<svg xmlns="http://www.w3.org/2000/svg" xmlns:xlink="http://www.w3.org/1999/xlink" version="1.1" id="Layer_1" x="0px" y="0px" enable-background="new 0 0 822.05 841.89" xml:space="preserve" viewBox="308.76 333.58 204.58 175.56">
<path fill-rule="evenodd" clip-rule="evenodd" fill="#E8CAA7" stroke="#000000" stroke-width="1.25" stroke-linecap="square" stroke-miterlimit="10" d="  M471.127,420.015c-26.669-17.097-31.182-12.32-58.875-2.25c-11.736,4.268-24.208,28.5-4.33,28.5  C445.254,446.265,460.587,456.905,471.127,420.015z"/>
<path fill-rule="evenodd" clip-rule="evenodd" fill="#82B9D7" stroke="#000000" stroke-width="1.25" stroke-linecap="square" stroke-miterlimit="10" d="  M486.877,418.515c-20.983-10.925-24.095,15-46.125,15c-24.202,0-22.465-28.035-50.625-16.5c-15.554,6.371-55.519,54.654-46.5,75  c14.246,32.138,38.432-7.539,42-24.75c-0.25,23.701-8.418,41.25,18.29,41.25c35.487,0,70.974,0,106.461,0  C517.104,508.515,509.324,427.818,486.877,418.515z"/>
<path fill-rule="evenodd" clip-rule="evenodd" fill="#E8CAA7" stroke="#000000" stroke-width="1.25" stroke-linecap="square" stroke-miterlimit="10" d="  M420.877,378.015C408.842,400.219,404.934,358.375,420.877,378.015L420.877,378.015z"/>
<path fill-rule="evenodd" clip-rule="evenodd" fill="#E8CAA7" stroke="#000000" stroke-width="1.25" stroke-linecap="square" stroke-miterlimit="10" d="  M479.377,401.265C456.299,411.228,480.208,376.532,479.377,401.265L479.377,401.265z"/>
<path fill-rule="evenodd" clip-rule="evenodd" fill="#E8CAA7" stroke="#000000" stroke-width="1.25" stroke-linecap="square" stroke-miterlimit="10" d="  M422.377,354.015c-22.973,39.715,20.179,88.884,51.75,45C506.561,353.932,448.826,306.384,422.377,354.015z"/>
<path fill-rule="evenodd" clip-rule="evenodd" fill="#FFFFFF" stroke="#000000" stroke-width="1.25" stroke-linecap="square" stroke-miterlimit="10" d="  M327.877,339.015c17.328-2.078,17.512,14.946,12,30.75c17.632-22.024,2.752,34.251-19.125,25.5  C304.104,388.606,305.128,335.396,327.877,339.015z"/>
<path fill-rule="evenodd" clip-rule="evenodd" fill="#FFFFFF" d="M336.127,340.515l-0.75,21.75L336.127,340.515z"/>
<line fill="none" stroke="#000000" stroke-width="1.25" stroke-linecap="square" stroke-miterlimit="10" x1="336.127" y1="340.515" x2="335.377" y2="362.265"/>
<path fill-rule="evenodd" clip-rule="evenodd" fill="#FFFFFF" d="M328.627,338.265v22.5V338.265z"/>
<line fill="none" stroke="#000000" stroke-width="1.25" stroke-linecap="square" stroke-miterlimit="10" x1="328.627" y1="338.265" x2="328.627" y2="360.765"/>
<path fill-rule="evenodd" clip-rule="evenodd" fill="#FFFFFF" d="M320.377,339.765v19.5V339.765z"/>
<line fill="none" stroke="#000000" stroke-width="1.25" stroke-linecap="square" stroke-miterlimit="10" x1="320.377" y1="339.765" x2="320.377" y2="359.265"/>
<path fill-rule="evenodd" clip-rule="evenodd" d="M442.627,381.015c-1.056-0.407-3.272,3.693-3.75-1.5  C442.511,375.27,441.136,380.441,442.627,381.015z"/>
<path fill-rule="evenodd" clip-rule="evenodd" d="M457.627,387.015C453.773,385.788,453.354,385.654,457.627,387.015  L457.627,387.015z"/>
<path fill="none" stroke="#000000" stroke-width="0.75" stroke-linecap="square" stroke-miterlimit="10" d="M442.627,390.015  c0.938,2.772,2.742,3.718,5.25,2.25"/>
<path fill="none" stroke="#000000" stroke-width="0.75" stroke-linecap="square" stroke-miterlimit="10" d="M435.127,378.015  c4.338-1.599,8.128,0.119,10.5,4.5"/>
<path fill="none" stroke="#000000" stroke-width="0.75" stroke-linecap="square" stroke-miterlimit="10" d="M462.877,389.265  c-2.814-3.91-6.782-5.297-11.25-3.75"/>
<path fill-rule="evenodd" clip-rule="evenodd" fill="#FB0F0C" d="M483.127,468.015v40.5V468.015z"/>
<line fill="none" stroke="#000000" stroke-width="1.25" stroke-linecap="square" stroke-miterlimit="10" x1="483.127" y1="468.015" x2="483.127" y2="508.515"/>
<path fill="none" stroke="#000000" stroke-width="1.25" stroke-linecap="square" stroke-miterlimit="10" d="M368.377,402.765  c-3.75,0.5-7.5,1-11.25,1.5"/>
<path fill-rule="evenodd" clip-rule="evenodd" d="M359.377,398.265c-3.25,2-6.5,4-9.75,6c3.75,1.75,7.5,3.5,11.25,5.25  C360.377,405.765,359.877,402.015,359.377,398.265z"/>
<path fill-rule="evenodd" clip-rule="evenodd" stroke="#000000" stroke-linecap="square" stroke-miterlimit="10" d="  M435.127,396.765c5.15,1.426,9.672,3.636,15,4.5C441.469,406.751,441.315,400.507,435.127,396.765z"/>
<path fill-rule="evenodd" clip-rule="evenodd" fill="#EBCBA7" d="M380.377,394.515c-10.339,15.733-15.72,28.736-8.25,47.25  C374.877,426.015,377.627,410.265,380.377,394.515z"/>
<path fill="none" stroke="#000000" stroke-width="1.25" stroke-linecap="square" stroke-miterlimit="10" d="M380.377,394.515  c-10.339,15.733-15.72,28.736-8.25,47.25"/>
<path fill-rule="evenodd" clip-rule="evenodd" fill="#EBCBA7" stroke="#000000" stroke-width="1.25" stroke-linecap="square" stroke-miterlimit="10" d="  M366.127,471.015c16.101-15.292,3.236-56.691,16.5-80.25c4.396,8.642,5.147,36.416,5.25,48c0.169,19.02-0.752,29.33-15,44.25  C370.627,479.015,368.377,475.015,366.127,471.015z"/>
<path fill-rule="evenodd" clip-rule="evenodd" fill="#EBCBA7" d="M382.627,416.265c-1.396,8.061-2.702,15.156-0.75,23.25  C382.126,431.784,382.697,423.999,382.627,416.265z"/>
<path fill="none" stroke="#000000" stroke-width="1.25" stroke-linecap="square" stroke-miterlimit="10" d="M382.627,416.265  c-2.324,7.569-2.598,15.587-0.75,23.25"/>
<path fill-rule="evenodd" clip-rule="evenodd" fill="#82B9D7" d="M353.377,465.765c5.374-7.008,11.522-13.525,17.25-20.25  c-2.959,13.587,5.729,24.687,19.5,26.25c-5.75,8.25-11.5,16.5-17.25,24.75C366.377,486.265,359.877,476.015,353.377,465.765z"/>
<path fill="none" stroke="#000000" stroke-width="1.25" stroke-linecap="square" stroke-miterlimit="10" d="M353.377,465.765  c5.374-7.008,11.522-13.525,17.25-20.25c-2.959,13.587,5.729,24.687,19.5,26.25c-5.75,8.25-11.5,16.5-17.25,24.75"/>
<path fill-rule="evenodd" clip-rule="evenodd" d="M349.627,399.015c-3.5,2-7,4-10.5,6c4,1.75,8,3.5,12,5.25  C350.627,406.515,350.127,402.765,349.627,399.015z"/>
<path fill="none" stroke="#000000" stroke-width="1.25" stroke-linecap="square" stroke-miterlimit="10" d="M390.877,403.515  c4,0,8,0,12,0"/>
<path fill-rule="evenodd" clip-rule="evenodd" d="M399.127,409.515c3.75-1.5,7.5-3,11.25-4.5c-3.75-2.25-7.5-4.5-11.25-6.75  C399.127,402.015,399.127,405.765,399.127,409.515z"/>
<path fill-rule="evenodd" clip-rule="evenodd" d="M408.127,410.265c3.75-1.75,7.5-3.5,11.25-5.25c-3.5-2-7-4-10.5-6  C408.627,402.765,408.377,406.515,408.127,410.265z"/>
</svg>