<svg xmlns="http://www.w3.org/2000/svg" xmlns:xlink="http://www.w3.org/1999/xlink" version="1.1" id="Layer_1" x="0px" y="0px" enable-background="new 0 0 822.05 841.89" xml:space="preserve" viewBox="309.96 334.55 201.04 174.35">
<path fill-rule="evenodd" clip-rule="evenodd" fill="#8BD3E5" stroke="#FFFFFF" stroke-width="3" stroke-linecap="square" stroke-miterlimit="10" d="  M488,354.14c-42.543-4.567-86.711-1.601-129.485-2.024c-30.707-0.304-22.844,5.817-23.239,36.082  c-0.099,7.584-3.179,78.379,0.756,78.495c24.612,0.724,124.109,17.861,144.468,2.947C496.027,458.265,489.689,378.988,488,354.14z"/>
<path fill-rule="evenodd" clip-rule="evenodd" stroke="#000000" stroke-width="0.5" stroke-linecap="square" stroke-miterlimit="10" d="  M329.75,463.64c8.854-19.486,31.637-87.491,49.5-97.5c10.919-6.118,42.555,0.275,47.25,18c6.17,23.287-37.509,77.792-48.306,98.306  C369.571,498.831,333.192,473.821,329.75,463.64z"/>
<path fill-rule="evenodd" clip-rule="evenodd" fill="#727171" stroke="#000000" stroke-width="0.5" stroke-linecap="square" stroke-miterlimit="10" d="  M412.25,420.14c-9.958,15.933-28.585,62.519-54,57c-24.521-5.325-15.843-34.667-8.917-50.25  c12.668-28.503,20.131-76.055,56.542-59.25C434.274,380.748,424.189,394.973,412.25,420.14z"/>
<path fill-rule="evenodd" clip-rule="evenodd" fill="#D6D5D7" stroke="#000000" stroke-width="0.5" stroke-linecap="square" stroke-miterlimit="10" d="  M388.25,363.89c46.637,5.389,37.575,55.305,4.125,75.375c-12.246,7.348-28.998-3.547-32.625-16.125  C354.37,404.485,377.23,376.787,388.25,363.89z"/>
<path fill-rule="evenodd" clip-rule="evenodd" fill="#27866C" stroke="#000000" stroke-width="0.5" stroke-linecap="square" stroke-miterlimit="10" d="  M379.25,384.89c23.013,12.054,39.915,13.536,20.25,39.75c-10.75-5.5-21.5-11-32.25-16.5  C371.047,400.783,374.133,391.364,379.25,384.89z"/>
<path fill-rule="evenodd" clip-rule="evenodd" stroke="#000000" stroke-width="0.5" stroke-linecap="square" stroke-miterlimit="10" d="  M396.5,374.39C401.493,379.821,400.788,379.053,396.5,374.39L396.5,374.39z"/>
<path fill-rule="evenodd" clip-rule="evenodd" stroke="#000000" stroke-width="0.5" stroke-linecap="square" stroke-miterlimit="10" d="  M402.5,374.39C405.95,376.599,406.03,376.65,402.5,374.39L402.5,374.39z"/>
<path fill-rule="evenodd" clip-rule="evenodd" stroke="#000000" stroke-width="0.5" stroke-linecap="square" stroke-miterlimit="10" d="  M403.25,380.39C409.829,381.737,409.821,381.735,403.25,380.39L403.25,380.39z"/>
<path fill-rule="evenodd" clip-rule="evenodd" fill="#939392" stroke="#000000" stroke-width="0.5" stroke-linecap="square" stroke-miterlimit="10" d="  M366.5,413.39c1.321,1.506,6.801,1.382,9,3.75C366.597,427.051,370.228,418.345,366.5,413.39z"/>
<path fill-rule="evenodd" clip-rule="evenodd" fill="#939392" stroke="#000000" stroke-width="0.5" stroke-linecap="square" stroke-miterlimit="10" d="  M386.75,423.89c1.714,1.499,6.669,1.662,9,3.75C385.375,436.733,390.053,427.75,386.75,423.89z"/>
<path fill-rule="evenodd" clip-rule="evenodd" fill="#939392" stroke="#000000" stroke-width="0.5" stroke-linecap="square" stroke-miterlimit="10" d="  M368.75,428.39C379.949,453.059,388.021,406.819,368.75,428.39L368.75,428.39z"/>
<path fill-rule="evenodd" clip-rule="evenodd" fill="#CCCCCC" stroke="#000000" stroke-width="0.5" stroke-linecap="square" stroke-miterlimit="10" d="  M353,423.14c-0.006,6.996-7.163,10.743,6,15.75C357.819,433.352,355.614,428.198,353,423.14z"/>
<path fill-rule="evenodd" clip-rule="evenodd" fill="#CCCCCC" stroke="#000000" stroke-width="0.5" stroke-linecap="square" stroke-miterlimit="10" d="  M362,436.64c6.275,1.512,11.66,2.777,15,8.25C366.682,448.955,366.681,442.881,362,436.64z"/>
<path fill-rule="evenodd" clip-rule="evenodd" fill="#CCCCCC" stroke="#000000" stroke-width="0.5" stroke-linecap="square" stroke-miterlimit="10" d="  M378.5,448.64C397.139,443.328,394.93,451.071,378.5,448.64L378.5,448.64z"/>
<path fill-rule="evenodd" clip-rule="evenodd" fill="#CCCCCC" stroke="#000000" stroke-width="0.5" stroke-linecap="square" stroke-miterlimit="10" d="  M357.5,445.64c5.802,1.251,10.694,0.334,15,6.75C362.794,457.072,362.927,450.694,357.5,445.64z"/>
<path fill-rule="evenodd" clip-rule="evenodd" fill="#CCCCCC" stroke="#000000" stroke-width="0.5" stroke-linecap="square" stroke-miterlimit="10" d="  M372.5,457.64c4.875-1.182,9.555-3.122,15-3C383.519,465.184,380.108,459.266,372.5,457.64z"/>
<path fill-rule="evenodd" clip-rule="evenodd" fill="#CCCCCC" stroke="#000000" stroke-width="0.5" stroke-linecap="square" stroke-miterlimit="10" d="  M354.5,453.89c4.217,1.711,9.342,2.143,13.5,6.75C358.711,465.213,359.269,459.113,354.5,453.89z"/>
<path fill-rule="evenodd" clip-rule="evenodd" fill="#CCCCCC" stroke="#000000" stroke-width="0.5" stroke-linecap="square" stroke-miterlimit="10" d="  M352.25,461.39c3.696,3.915,1.799,10.364,11.25,6.75C360.556,463.981,356.075,463.769,352.25,461.39z"/>
<path fill-rule="evenodd" clip-rule="evenodd" fill="#CCCCCC" stroke="#000000" stroke-width="0.5" stroke-linecap="square" stroke-miterlimit="10" d="  M367.25,465.89c4.957-0.807,8.602-3.465,14.25-2.25C377.167,473.038,373.691,467.002,367.25,465.89z"/>
<path fill-rule="evenodd" clip-rule="evenodd" fill="#CCCCCC" stroke="#000000" stroke-width="0.5" stroke-linecap="square" stroke-miterlimit="10" d="  M347.75,433.64c3.551,5.421,6.844,8.813,6.75,15.75C343.114,445.343,347.802,440.942,347.75,433.64z"/>
<path fill-rule="evenodd" clip-rule="evenodd" fill="#CCCCCC" stroke="#000000" stroke-width="0.5" stroke-linecap="square" stroke-miterlimit="10" d="  M351.5,458.39c-2.017-5.073-1.875-9.386-6.75-13.5C339.822,453.895,346.403,453.003,351.5,458.39z"/>
<path fill-rule="evenodd" clip-rule="evenodd" fill="#CCCCCC" stroke="#000000" stroke-width="0.5" stroke-linecap="square" stroke-miterlimit="10" d="  M347,470.39c-0.961-5.355,1.616-9.324-4.5-14.25C341.235,462.571,344.845,465.004,347,470.39z"/>
<path fill-rule="evenodd" clip-rule="evenodd" fill="#CCCCCC" stroke="#000000" stroke-width="0.5" stroke-linecap="square" stroke-miterlimit="10" d="  M360.5,476.39c5.46-1.594,8.193,2.18,12.75-3.75C366.771,470.765,365.463,474.941,360.5,476.39z"/>
<path fill-rule="evenodd" clip-rule="evenodd" fill="#4B4B4C" stroke="#000000" stroke-width="0.5" stroke-linecap="square" stroke-miterlimit="10" d="  M379.25,423.89C379.646,422.833,378.295,426.436,379.25,423.89L379.25,423.89z"/>
<path fill-rule="evenodd" clip-rule="evenodd" fill="#4B4B4C" stroke="#000000" stroke-width="0.5" stroke-linecap="square" stroke-miterlimit="10" d="  M374,433.64c-0.116,0.442,5.371,0.724-0.75,2.25C370.822,430.528,374.438,431.972,374,433.64z"/>
<path fill-rule="evenodd" clip-rule="evenodd" fill="#4B4B4C" stroke="#000000" stroke-width="0.5" stroke-linecap="square" stroke-miterlimit="10" d="  M368.75,415.64C368.544,415.481,375.063,420.53,368.75,415.64L368.75,415.64z"/>
<path fill-rule="evenodd" clip-rule="evenodd" fill="#4B4B4C" stroke="#000000" stroke-width="0.5" stroke-linecap="square" stroke-miterlimit="10" d="  M392.75,427.64C390.634,426.931,386.05,425.395,392.75,427.64L392.75,427.64z"/>
<path fill-rule="evenodd" clip-rule="evenodd" fill="#4B4B4C" d="M360.5,408.14L360.5,408.14L360.5,408.14z"/>
<line fill="none" stroke="#000000" stroke-width="0.5" stroke-linecap="square" stroke-miterlimit="10" x1="360.5" y1="408.14" x2="360.5" y2="408.14"/>
<path fill-rule="evenodd" clip-rule="evenodd" fill="#939392" stroke="#000000" stroke-width="0.5" stroke-linecap="square" stroke-miterlimit="10" d="  M400.25,432.89c-7.902,0.801-14.435,2.337-20.25,8.25C389.117,442.637,393.917,438.697,400.25,432.89z"/>
<path fill-rule="evenodd" clip-rule="evenodd" fill="#939392" stroke="#000000" stroke-width="0.5" stroke-linecap="square" stroke-miterlimit="10" d="  M359.75,411.14c4.274,6.74,7.134,12.726,5.25,21C358.358,425.468,359.305,419.921,359.75,411.14z"/>
<path fill-rule="evenodd" clip-rule="evenodd" fill="#1E8A30" stroke="#000000" stroke-width="0.5" stroke-linecap="square" stroke-miterlimit="10" d="  M361.25,423.89c0.95-2.089,1.283-3.043-0.75-5.25C366.161,424.698,361.185,424.034,361.25,423.89z"/>
<path fill-rule="evenodd" clip-rule="evenodd" fill="#F81028" stroke="#000000" stroke-width="0.5" stroke-linecap="square" stroke-miterlimit="10" d="  M391.25,437.39c-2.175-0.161-4.05,0.613-5.25,1.5C391.559,433.947,392.302,437.468,391.25,437.39z"/>
<path fill-rule="evenodd" clip-rule="evenodd" fill="#F81028" stroke="#000000" stroke-width="0.5" stroke-linecap="square" stroke-miterlimit="10" d="  M389,438.89C392.303,438.75,390.707,438.818,389,438.89L389,438.89z"/>
<path fill="none" stroke="#000000" stroke-width="4" stroke-linecap="square" stroke-miterlimit="10" d="M330.5,482.39  c0,0.75,0,1.5,0,2.25"/>
<path fill-rule="evenodd" clip-rule="evenodd" fill="#383636" d="M330.5,484.64c-10.402,26.07,33.557,19.635,49.5,20.133  c31.853,0.995,63.595,2.956,95.444,0.506c7.377-0.567,31.498-1.166,18.556-16.139c-3.477-4.021-34.074-0.938-39.125-1.077  C413.417,486.922,371.958,485.781,330.5,484.64z"/>
<path fill="none" stroke="#000000" stroke-linecap="square" stroke-miterlimit="10" d="M330.5,484.64  c-11.413,28.605,57.774,20.509,75.398,21.516c18.483,1.057,96.005,9.954,88.102-17.016"/>
<path fill-rule="evenodd" clip-rule="evenodd" fill="#383636" stroke="#000000" stroke-linecap="square" stroke-miterlimit="10" d="  M508.25,342.14c-56.973-11.126-121.411-7.099-178.875-1.875c-29.215,2.656-16.461,114.768-14.25,136.875  c2.997,29.97,147.354,17.722,169.125,15c37.449-4.681,23.522-40.494,24.516-73.278C509.533,393.547,510.508,367.236,508.25,342.14z   M486.5,469.64c-39.746,0.203-79.478-0.859-119.202-2.028c-32.511-0.956-33.12,4.482-32.701-27.586  c0.172-13.131-8.068-79.747,1.152-88.136c13.834-12.586,118.994,0.348,141.027,1.306C500.29,354.218,486.122,447.113,486.5,469.64z"/>
<path fill="none" stroke="#000000" stroke-linecap="square" stroke-miterlimit="10" d="M353,492.14  c-0.43-13.773,112.33-14.03,114.75,2.25"/>
<path fill-rule="evenodd" clip-rule="evenodd" fill="#F8F300" stroke="#000000" stroke-linecap="square" stroke-miterlimit="10" d="  M438.5,362.39c11.919,24.583,12.728,24.868,39.75,29.25c-19.079,19.08-19.433,19.903-15,46.5c-24.303-12.52-25.197-12.52-49.5,0  c4.433-26.597,4.079-27.42-15-46.5C425.334,387.209,426.138,386.387,438.5,362.39z"/>
<text transform="matrix(1 0 0 1 425.042 417.1401)" font-family="'MyriadPro-Regular'" font-size="42">£</text>
</svg>