<svg xmlns="http://www.w3.org/2000/svg" xmlns:xlink="http://www.w3.org/1999/xlink" version="1.1" id="Layer_1" x="0px" y="0px" enable-background="new 0 0 822.05 841.89" xml:space="preserve" viewBox="299.73 323.88 220.19 185.67">
<path fill-rule="evenodd" clip-rule="evenodd" fill="#ABABAB" d="M455.14,426.63L455.14,426.63L455.14,426.63z"/>
<line fill="none" stroke="#000000" stroke-width="0.5" stroke-linecap="square" stroke-miterlimit="10" x1="455.14" y1="426.63" x2="455.14" y2="426.63"/>
<path fill-rule="evenodd" clip-rule="evenodd" fill="#F7F359" stroke="#000000" stroke-width="0.5" stroke-linecap="square" stroke-miterlimit="10" d="  M341.89,409.38c-0.992,5.293-0.505,11.108-0.75,16.5c3.179-5.391,9.312-9.006,12.75-14.25c0.604,5.759,3.61,11.477,3.75,17.25  c0.484-5.842,4.168-11.465,5.25-17.25c4.327,6.125,11.144,10.834,15,17.25c-3.245-6.606-3.334-14.873-6-21.75  c9.5,1.75,19,3.5,28.5,5.25c-6.696-5.437-11.961-12.684-18.75-18c20.25-0.5,40.5-1,60.75-1.5c-19.25-4.25-38.5-8.5-57.75-12.75  c8.25-4.75,16.5-9.5,24.75-14.25c-9.25,1.5-18.5,3-27.75,4.5c4.57-6.531,7.062-14.755,12-21c-5.957,5.648-15.7,8.085-22.5,12.75  c-1.75-4.25-3.5-8.5-5.25-12.75c-2.5,2.5-5,5-7.5,7.5c-4.014-7.357-11.737-13.307-15-21c-1,9-2,18-3,27  c-6.025-4.416-13.967-7.007-19.5-12c4.9,4.814,7.551,11.988,12,17.25c-6.303-1.276-13.293,0.131-19.5-1.5  c5.5,2.764,9.656,8.17,15,11.25c-8.755,1.076-17.453,4.769-26.25,5.25c9,2.25,18,4.5,27,6.75c-6.567,3.585-12.023,9.492-18.75,12.75  c7.192-2.239,15.22-1.792,22.5-3.75c-4.635,4.804-7.783,11.312-12.75,15.75c4.562-3.347,10.272-5.129,15-8.25  c-4.63,9.683-9.633,19.205-15,28.5C327.39,426.38,334.64,417.88,341.89,409.38z"/>
<path fill-rule="evenodd" clip-rule="evenodd" fill="#EAA22D" stroke="#000000" stroke-width="0.5" stroke-linecap="square" stroke-miterlimit="10" d="  M375.64,385.38c-1.932,23.001-36.67,23.752-36.75,0C338.811,361.888,373.434,362.847,375.64,385.38z"/>
<path fill-rule="evenodd" clip-rule="evenodd" fill="#42BF00" stroke="#000000" stroke-width="0.5" stroke-linecap="square" stroke-miterlimit="10" d="  M300.64,465.63c33.697-22.887,79.757-31.164,118.833-18.139c30.567,10.188,64.757,41.416,97.917,36.139  c6.067,29.357-3.877,25.5-27.188,25.5c-33.9,0-67.801,0-101.701,0c-18.731,0-37.463,0-56.195,0  C292.667,509.13,300.64,504.296,300.64,465.63z"/>
<path fill-rule="evenodd" clip-rule="evenodd" fill="#149F00" stroke="#000000" stroke-width="0.5" stroke-linecap="square" stroke-miterlimit="10" d="  M352.39,509.13c54.985-22.337,107.417-42.426,167.25-45.75c0,50.582,2.941,45.75-46.627,45.75  C432.805,509.13,392.597,509.13,352.39,509.13z"/>
<text transform="matrix(1 0 0 1 421.3838 377.8794)"><tspan x="0" y="0" font-family="'MyriadPro-Regular'" font-size="60" letter-spacing="-24">P</tspan><tspan x="7.56" y="0" font-family="'MyriadPro-Regular'" font-size="60">M</tspan></text>
</svg>