<svg xmlns="http://www.w3.org/2000/svg" xmlns:xlink="http://www.w3.org/1999/xlink" version="1.1" id="Layer_1" x="0px" y="0px" enable-background="new 0 0 822.05 841.89" xml:space="preserve" viewBox="232.84 256.66 354.5 328.97">
<path fill-rule="evenodd" clip-rule="evenodd" fill="#BCBEC0" stroke="#000000" stroke-width="2" stroke-linecap="square" stroke-miterlimit="10" d="  M260.092,382.89c-6.678,14.932,5.486,22.788,19.5,17.25C279.978,386.98,273.034,379.94,260.092,382.89z"/>
<path fill-rule="evenodd" clip-rule="evenodd" fill="#BCBEC0" stroke="#000000" stroke-width="2" stroke-linecap="square" stroke-miterlimit="10" d="  M380.092,379.14c10.082,16.507,0.365,28.517-16.5,16.5C368.688,390.544,373.983,382.893,380.092,379.14z"/>
<path fill-rule="evenodd" clip-rule="evenodd" fill="#E0222B" stroke="#000000" stroke-width="2" stroke-linecap="square" stroke-miterlimit="10" d="  M399.592,332.64c-2.527,100.431-156.242,100.741-156,0C243.832,232.61,397.216,232.721,399.592,332.64z"/>
<path fill-rule="evenodd" clip-rule="evenodd" fill="#FFF200" stroke="#000000" stroke-width="2" stroke-linecap="square" stroke-miterlimit="10" d="  M356.842,324.39c-2.05,44.972-70.474,45.349-70.5,0C286.315,279.126,355.194,279.362,356.842,324.39z"/>
<path fill-rule="evenodd" clip-rule="evenodd" fill="#BCBEC0" stroke="#000000" stroke-width="2" stroke-linecap="square" stroke-miterlimit="10" d="  M329.092,323.64C312.298,351.457,312.298,295.824,329.092,323.64L329.092,323.64z"/>
<path fill="none" stroke="#000000" stroke-width="2" stroke-linecap="square" stroke-miterlimit="10" d="M386.092,268.14  c7.047,3.433,12.314,9.197,15,16.5"/>
<path fill="none" stroke="#000000" stroke-width="2" stroke-linecap="square" stroke-miterlimit="10" d="M398.092,265.89  c7.202,3.251,12.724,9.066,15.752,16.5"/>
<path fill="none" stroke="#000000" stroke-width="2" stroke-linecap="square" stroke-miterlimit="10" d="M262.342,260.64  c-7.232,3.211-12.825,9.086-15.75,16.5"/>
<path fill="none" stroke="#000000" stroke-width="2" stroke-linecap="square" stroke-miterlimit="10" d="M249.592,258.39  c-7.194,3.475-12.62,9.157-15.75,16.5"/>
<path fill-rule="evenodd" clip-rule="evenodd" fill="#BCBEC0" stroke="#000000" stroke-width="2" stroke-linecap="square" stroke-miterlimit="10" d="  M433.342,457.14c-6.367,14.891,4.989,22.95,19.5,17.25C453.228,461.23,446.284,454.19,433.342,457.14z"/>
<path fill-rule="evenodd" clip-rule="evenodd" fill="#BCBEC0" stroke="#000000" stroke-width="2" stroke-linecap="square" stroke-miterlimit="10" d="  M552.592,453.39c11.579,16.354,0.924,27.837-15.75,16.5C541.693,464.808,546.708,457.162,552.592,453.39z"/>
<path fill-rule="evenodd" clip-rule="evenodd" fill="#E0222B" stroke="#000000" stroke-width="2" stroke-linecap="square" stroke-miterlimit="10" d="  M572.092,406.89c2.567,100.779-155.758,100.47-155.25,0C417.347,307.022,574.515,306.736,572.092,406.89z"/>
<path fill-rule="evenodd" clip-rule="evenodd" fill="#FFF200" stroke="#000000" stroke-width="2" stroke-linecap="square" stroke-miterlimit="10" d="  M530.092,398.64c-2.049,44.942-70.5,45.628-70.5,0S528.043,353.698,530.092,398.64z"/>
<path fill-rule="evenodd" clip-rule="evenodd" fill="#BCBEC0" stroke="#000000" stroke-width="2" stroke-linecap="square" stroke-miterlimit="10" d="  M502.342,397.89C483.185,424.191,483.185,371.589,502.342,397.89L502.342,397.89z"/>
<path fill="none" stroke="#000000" stroke-width="2" stroke-linecap="square" stroke-miterlimit="10" d="M558.592,342.39  c7.084,3.419,12.524,9.152,15.75,16.5"/>
<path fill="none" stroke="#000000" stroke-width="2" stroke-linecap="square" stroke-miterlimit="10" d="M571.342,340.14  c7.297,3.268,12.562,9.016,15,16.5"/>
<path fill="none" stroke="#000000" stroke-width="2" stroke-linecap="square" stroke-miterlimit="10" d="M434.842,334.89  c-7.243,3.299-12.438,8.997-15,16.5"/>
<path fill="none" stroke="#000000" stroke-width="2" stroke-linecap="square" stroke-miterlimit="10" d="M422.842,332.64  c-7.504,3.02-13.176,8.914-15.75,16.5"/>
<path fill-rule="evenodd" clip-rule="evenodd" fill="#BCBEC0" stroke="#000000" stroke-width="2" stroke-linecap="square" stroke-miterlimit="10" d="  M264.592,559.14c-6.011,15.316,5.837,22.819,20.25,18C285.179,563.772,277.792,556.69,264.592,559.14z"/>
<path fill-rule="evenodd" clip-rule="evenodd" fill="#BCBEC0" stroke="#000000" stroke-width="2" stroke-linecap="square" stroke-miterlimit="10" d="  M384.592,555.39c11.579,16.354,0.924,27.837-15.75,16.5C373.693,566.808,378.708,559.162,384.592,555.39z"/>
<path fill-rule="evenodd" clip-rule="evenodd" fill="#E0222B" stroke="#000000" stroke-width="2" stroke-linecap="square" stroke-miterlimit="10" d="  M404.092,509.64c2.422,100.107-154.757,99.854-155.25,0C248.346,409.203,406.659,408.888,404.092,509.64z"/>
<path fill-rule="evenodd" clip-rule="evenodd" fill="#FFF200" stroke="#000000" stroke-width="2" stroke-linecap="square" stroke-miterlimit="10" d="  M362.092,500.64c-1.161,45.564-70.991,45.693-70.5,0C292.079,455.269,360.033,455.48,362.092,500.64z"/>
<path fill-rule="evenodd" clip-rule="evenodd" fill="#BCBEC0" stroke="#000000" stroke-width="2" stroke-linecap="square" stroke-miterlimit="10" d="  M334.342,499.89C318.923,532.014,313.726,468.757,334.342,499.89L334.342,499.89z"/>
<path fill="none" stroke="#000000" stroke-width="2" stroke-linecap="square" stroke-miterlimit="10" d="M390.592,445.14  c7.315,3.385,12.743,9.055,15.75,16.5"/>
<path fill="none" stroke="#000000" stroke-width="2" stroke-linecap="square" stroke-miterlimit="10" d="M403.342,442.14  c7.048,3.433,12.314,9.196,15,16.5"/>
<path fill="none" stroke="#000000" stroke-width="2" stroke-linecap="square" stroke-miterlimit="10" d="M266.842,437.64  c-7.315,3.385-12.743,9.055-15.75,16.5"/>
<path fill="none" stroke="#000000" stroke-width="2" stroke-linecap="square" stroke-miterlimit="10" d="M254.092,434.64  c-7.047,3.433-12.314,9.196-15,16.5"/>
</svg>