<svg xmlns="http://www.w3.org/2000/svg" xmlns:xlink="http://www.w3.org/1999/xlink" version="1.1" id="Layer_1" x="0px" y="0px" enable-background="new 0 0 822.05 841.89" xml:space="preserve" viewBox="322.4 338.58 175.2 165.44">
<path fill-rule="evenodd" clip-rule="evenodd" fill="#F7F619" stroke="#000000" stroke-width="1.25" stroke-linecap="square" stroke-miterlimit="10" d="  M385.5,448.89C351.39,471.868,389.127,407.542,385.5,448.89L385.5,448.89z"/>
<path fill-rule="evenodd" clip-rule="evenodd" fill="#F87F11" stroke="#000000" stroke-width="1.25" stroke-linecap="square" stroke-miterlimit="10" d="  M410.25,423.39C375.884,443.922,413.072,382.888,410.25,423.39L410.25,423.39z"/>
<path fill-rule="evenodd" clip-rule="evenodd" fill="#F7F619" stroke="#000000" stroke-width="1.25" stroke-linecap="square" stroke-miterlimit="10" d="  M369.75,409.14C335.812,429.3,369.744,369.893,369.75,409.14L369.75,409.14z"/>
<path fill-rule="evenodd" clip-rule="evenodd" fill="#F8130D" stroke="#000000" stroke-width="1.25" stroke-linecap="square" stroke-miterlimit="10" d="  M396.75,383.64C377.919,420.076,380.83,345.721,396.75,383.64L396.75,383.64z"/>
<path fill-rule="evenodd" clip-rule="evenodd" fill="#F7F619" stroke="#000000" stroke-width="1.25" stroke-linecap="square" stroke-miterlimit="10" d="  M428.25,384.39C393.566,407.754,433.987,343.293,428.25,384.39L428.25,384.39z"/>
<path fill-rule="evenodd" clip-rule="evenodd" fill="#F7F619" stroke="#000000" stroke-width="1.25" stroke-linecap="square" stroke-miterlimit="10" d="  M431.25,443.64C413.619,479.179,412.803,407.314,431.25,443.64L431.25,443.64z"/>
<path fill-rule="evenodd" clip-rule="evenodd" fill="#5DACC5" stroke="#000000" stroke-width="1.25" stroke-linecap="square" stroke-miterlimit="10" d="  M457.5,412.14C423.105,435.492,461.971,372.073,457.5,412.14L457.5,412.14z"/>
<path fill-rule="evenodd" clip-rule="evenodd" fill="#D21477" stroke="#000000" stroke-width="1.25" stroke-linecap="square" stroke-miterlimit="10" d="  M414,469.14C393.76,505.373,397.07,431.429,414,469.14L414,469.14z"/>
<path fill-rule="evenodd" clip-rule="evenodd" fill="#B10C0E" stroke="#000000" stroke-width="1.25" stroke-linecap="square" stroke-miterlimit="10" d="  M471.75,435.39C453.515,471.101,453.552,400.303,471.75,435.39L471.75,435.39z"/>
<path fill-rule="evenodd" clip-rule="evenodd" fill="#B10C0E" d="M456.75,370.14c66.247,42.815,16.643,129.795-52.5,124.5  c-70.866-5.428-100.576-92.937-38.25-134.25c28.508-18.897,66.487-15.131,96-0.375c8.768,4.384,27.139,5.408,11.25-4.125  c-16.742-10.045-36.605-16.563-56.25-17.25c-77.65-2.713-131.414,93.437-63.75,147c40.266,31.874,108.875,21.31,135-24  c12.497-21.674,12.171-47.093,0.75-69C484.594,384.189,452.93,347.801,456.75,370.14z"/>
<path fill-rule="evenodd" clip-rule="evenodd" fill="#F8130D" stroke="#000000" stroke-width="1.25" stroke-linecap="square" stroke-miterlimit="10" d="  M456.75,463.14C439.183,497.679,438.235,428.863,456.75,463.14L456.75,463.14z"/>
<path fill-rule="evenodd" clip-rule="evenodd" fill="#F7F619" stroke="#000000" stroke-width="1.25" stroke-linecap="square" stroke-miterlimit="10" d="  M435,407.64C416.36,443.397,416.36,371.883,435,407.64L435,407.64z"/>
<path fill-rule="evenodd" clip-rule="evenodd" fill="#B10C0E" stroke="#000000" stroke-width="1.25" stroke-linecap="square" stroke-miterlimit="10" d="  M360.75,433.89C341.454,469.616,344.375,396.678,360.75,433.89L360.75,433.89z"/>
</svg>