<svg xmlns="http://www.w3.org/2000/svg" xmlns:xlink="http://www.w3.org/1999/xlink" version="1.1" id="Layer_1" x="0px" y="0px" enable-background="new 0 0 822.05 841.89" xml:space="preserve" viewBox="281.24 258.41 256.69 324.17">
<path fill-rule="evenodd" clip-rule="evenodd" fill="#007647" stroke="#010101" stroke-width="2" stroke-linecap="square" stroke-miterlimit="10" d="  M388.75,517.08c-12.579,20.423,25.942,26.436,14.25,41.25c1.75,0,3.5,0,5.25,0c-1.607,4.867-2.317,9.107-2.25,14.25  c1.311-2.79,5.105-7.545,6-9c1.015,5.885,4.346,12.365,5.25,18c-0.903-13.609,2.128-21.207,12.75-8.25  c0.749-14.409-2.081-10.663,5.25-18c-9.364-4.284-19.134-13.209-24.75-24c23.107-12.678,68.563,25.364,99.75,24  c62.551-2.737-3.229-39.268-12.75-56.25c4.535,0.805,5.799,2.612,9.75,5.25c-0.317-0.976-3.862-7.699-3.75-8.25  c3.651,0.264,10.019-0.7,15,0c-4.391-3.646-7.303-6.293-12.75-9c3.404-0.744,6.468-1.963,9.75-3  c-4.782-1.478-10.741-1.979-15.75-2.25c1-1.25,2-2.5,3-3.75c-12.943,3.731-43.58-49.386-45.75-10.5  c-11.249-10.806-23.583-21.353-36-32.25c3.551,1.047,7.587,2.28,9.75,3c-3.526-3.118-7.695-8.615-11.25-11.25  c2.224-0.447,4.224,0.053,6,1.5c-13.682-17.514-47.83-15.514-67.5-12c-24.382-30.168-62.052-67.298-25.125-109.5  c45.272-51.739,132.963-8.141,191.625-36.75c-15.005-11.148-57.853-4.5-73.5-4.5c-28.824,0-59.725-10.668-88.5-4.5  c-39.129,8.387-65.641,34.933-76.875,76.125c-5.673,20.802-4.4,49.325,5.25,68.625c7.366,14.732,24.222,33.812,24.375,46.5  c-26.528-38.993-24.137,39.189-22.5,51c1.937-3.529,2.509-5.14,3.75-9c1.381,5.163,3.765,9.09,4.5,15  c1.733-4.732,3.796-7.255,4.5-12.75c2.645,3.092,4.55,5.744,6.75,9c1.13-2.968,0.485-8.815,0.75-12c1.5,1.5,3,3,4.5,4.5  c-1.718-3.829-2.086-8.128-3.75-12c10.775,18.774,26.144,9.487,28.5-10.5C350.461,494.972,370.829,508.142,388.75,517.08z"/>
<path fill="none" stroke="#010101" stroke-linecap="square" stroke-miterlimit="10" d="M435.25,507.33  c22.409,15.239,72.088,64.791,102,36.75"/>
<path fill="none" stroke="#010101" stroke-linecap="square" stroke-miterlimit="10" d="M457,469.08  c7.232,19.753,36.266,8.496,40.5,30"/>
<path fill="none" stroke="#010101" stroke-linecap="square" stroke-miterlimit="10" d="M474.25,461.58  c0.909,7.48,1.661,15,2.25,22.5"/>
<path fill="none" stroke="#010101" stroke-linecap="square" stroke-miterlimit="10" d="M463,532.83  C467.755,538.466,466.38,536.836,463,532.83L463,532.83z"/>
<path fill="none" stroke="#010101" stroke-linecap="square" stroke-miterlimit="10" d="M469.75,535.83  C474.538,540.238,473.171,538.979,469.75,535.83L469.75,535.83z"/>
<path fill="none" stroke="#010101" stroke-linecap="square" stroke-miterlimit="10" d="M477.25,537.33  C481.672,541.941,480.81,541.041,477.25,537.33L477.25,537.33z"/>
<path fill="none" stroke="#010101" stroke-linecap="square" stroke-miterlimit="10" d="M484,540.33  C487.883,544.894,487.202,544.095,484,540.33L484,540.33z"/>
<path fill="none" stroke="#010101" stroke-linecap="square" stroke-miterlimit="10" d="M490.75,544.08  C494.953,549.806,493.664,548.048,490.75,544.08L490.75,544.08z"/>
<path fill="none" stroke="#010101" stroke-linecap="square" stroke-miterlimit="10" d="M496.75,546.33  C501.172,550.941,500.31,550.041,496.75,546.33L496.75,546.33z"/>
<path fill="none" stroke="#010101" stroke-linecap="square" stroke-miterlimit="10" d="M513.25,550.08  C518.038,554.488,516.671,553.229,513.25,550.08L513.25,550.08z"/>
<path fill="none" stroke="#010101" stroke-linecap="square" stroke-miterlimit="10" d="M520,550.83  C524,553.632,523.111,553.01,520,550.83L520,550.83z"/>
<path fill-rule="evenodd" clip-rule="evenodd" fill="#FFFFFF" stroke="#010101" stroke-linecap="square" stroke-miterlimit="10" d="  M453.25,497.58C460.331,512.716,469.761,505.295,453.25,497.58L453.25,497.58z"/>
<path fill-rule="evenodd" clip-rule="evenodd" fill="#010101" d="M458.5,502.83C456.023,502.664,456.701,502.709,458.5,502.83  L458.5,502.83z"/>
<path fill="none" stroke="#010101" stroke-linecap="square" stroke-miterlimit="10" d="M447.25,502.83  c9.531-15.208,22.979-10.898,24.75,8.25c-6.413,2.312-11.246,0.567-17.25-2.25"/>
<path fill="none" stroke="#010101" stroke-linecap="square" stroke-miterlimit="10" d="M465.25,481.83  c-12.742,0.211-21.431,2.302-27.75,9"/>
<path fill="none" stroke="#010101" stroke-linecap="square" stroke-miterlimit="10" d="M389.5,516.33  c14.762-8.087,32.203-0.04,30.75-21.75"/>
<path fill="none" stroke="#010101" stroke-linecap="square" stroke-miterlimit="10" d="M415,514.83  c3.873,2.891,6.793,6.825,8.25,11.25"/>
<path fill="none" stroke="#010101" stroke-linecap="square" stroke-miterlimit="10" d="M422.5,516.33  c2.582,4.33,4.834,8.833,6.75,13.5"/>
<path fill="none" stroke="#010101" stroke-linecap="square" stroke-miterlimit="10" d="M427,514.83  c1.481,5.988,4.6,12.263,8.25,16.5"/>
<path fill="none" stroke="#010101" stroke-linecap="square" stroke-miterlimit="10" d="M330.25,436.83  c11.236,9.487,15.037,24.749,12,39c3.321-8.957,3.272-17.196,2.25-26.25"/>
<path fill="none" stroke="#010101" stroke-linecap="square" stroke-miterlimit="10" d="M298.75,456.33  c3.086,11.011,7.609,21.87,15.75,30c-6.956-6.316-12.565-13.961-16.5-22.5"/>
<path fill="none" stroke="#010101" stroke-linecap="square" stroke-miterlimit="10" d="M373.75,420.33  c17.462,5.521,35.408,11.316,51.75,19.5"/>
<path fill="none" stroke="#010101" stroke-linecap="square" stroke-miterlimit="10" d="M409.75,496.08  c9.368-16.426,29.812-30.925,48.75-21.75"/>
<path fill="none" stroke="#010101" stroke-linecap="square" stroke-miterlimit="10" d="M394.75,504.33  c10.679-23.396,32.763-47.678,60.75-36.75"/>
<path fill="none" stroke="#010101" stroke-linecap="square" stroke-miterlimit="10" d="M390.25,490.83  c11.463-17.689,34.029-38.939,57-30.75"/>
<path fill="none" stroke="#010101" stroke-linecap="square" stroke-miterlimit="10" d="M355,455.58  c10.699-15.431,29.615-31.893,49.5-24.75"/>
<path fill="none" stroke="#010101" stroke-linecap="square" stroke-miterlimit="10" d="M387.25,478.08  c14.718-14.673,34.488-29.122,56.25-24"/>
<path fill="none" stroke="#010101" stroke-linecap="square" stroke-miterlimit="10" d="M377.5,478.08  c14.475-16.992,36.375-33.725,60-29.25"/>
<path fill="none" stroke="#010101" stroke-linecap="square" stroke-miterlimit="10" d="M356.5,464.58  c14.021-17.506,36.427-33.715,60-29.25"/>
<path fill="none" stroke="#010101" stroke-linecap="square" stroke-miterlimit="10" d="M373.75,471.33  c15.542-14.862,32.403-31.303,55.5-28.5"/>
<path fill="none" stroke="#010101" stroke-linecap="square" stroke-miterlimit="10" d="M357.25,476.58  c15.659-18.821,38.042-38.095,63.75-39"/>
<path fill="none" stroke="#010101" stroke-linecap="square" stroke-miterlimit="10" d="M387.25,424.83  c-12.857,3.792-25.562,10.003-32.25,21.75"/>
<path fill="none" stroke="#010101" stroke-linecap="square" stroke-miterlimit="10" d="M376.75,421.08  c-10.41,3.683-19.529,9.111-24.75,18.75"/>
</svg>