<svg xmlns="http://www.w3.org/2000/svg" xmlns:xlink="http://www.w3.org/1999/xlink" version="1.1" id="Layer_1" x="0px" y="0px" enable-background="new 0 0 822.05 841.89" xml:space="preserve" viewBox="305.92 355.27 209.12 134.08">
<path fill-rule="evenodd" clip-rule="evenodd" stroke="#000000" stroke-width="0.5" stroke-linecap="square" stroke-miterlimit="10" d="  M377.514,449.406c-5.849,4.118-11.551,1.573-16.5,9c-4.332-20.401-33.683-23.133-38.25-1.5c-4.444,21.05,22.742,31.769,35.25,15  C368.268,519.006,426.31,455.019,377.514,449.406z"/>
<path fill-rule="evenodd" clip-rule="evenodd" stroke="#000000" stroke-width="0.5" stroke-linecap="square" stroke-miterlimit="10" d="  M483.264,448.656c-15.574,6.221-27.769-14.231-43.5,1.5c-12.37,12.37,1.357,35.66,18,31.5c12.337-3.084,29.172,17.819,42-1.5  C508.88,466.426,498.421,450.027,483.264,448.656z"/>
<path fill-rule="evenodd" clip-rule="evenodd" fill="#FFFFFF" stroke="#000000" stroke-width="0.5" stroke-linecap="square" stroke-miterlimit="10" d="  M510.264,384.904c-20.211-33.074-124.604-28.241-156.375-14.625c-12.04,5.16-9.41,15.66-16.875,25.125  c-6.645,8.426-0.606,11.444-12.375,13.125c-2.885,0.412-8.424,2.085-10.125,4.875c-8.15,13.367-13.088,40.017-1.5,51.752  c7.456,7.551,31.91,6.75,41.25,6.75c6.672,0,6.256-16.594,15.75-19.5c7.78-2.382,15.698-2.303,21.75,3.75  c12.952,12.951,0.255,15,26.634,15c15.388,0,33.869,1.763,44.616-3c4.517-2.002,4.31-13.509,12.75-15.75  c14.753-3.917,28.62,2.127,27.75,19.5C519.011,444.984,515.633,414.222,510.264,384.904z"/>
<path fill="none" stroke="#000000" stroke-width="0.5" stroke-linecap="square" stroke-miterlimit="10" d="M347.514,374.404  c39.664-5.022,131.712-16.978,162.75,12.75"/>
<path fill-rule="evenodd" clip-rule="evenodd" fill="#B9BDC7" stroke="#000000" stroke-width="0.5" stroke-linecap="square" stroke-miterlimit="10" d="  M412.764,411.904c-2.117-39.651,28.653-36.966,63.375-29.25c15.873,3.527,29.72,12.795,28.875,30.75  C474.264,412.904,443.514,412.404,412.764,411.904z"/>
<path fill-rule="evenodd" clip-rule="evenodd" fill="#B9BDC7" stroke="#000000" stroke-width="0.5" stroke-linecap="square" stroke-miterlimit="10" d="  M334.764,408.154c2.7-9.67,20.937-55.237,39.75-27.75c2.151,3.143-3.108,25.368-6.75,28.5  C359.095,416.359,346.271,411.276,334.764,408.154z"/>
<path fill-rule="evenodd" clip-rule="evenodd" fill="#B9BDC7" stroke="#000000" stroke-width="0.5" stroke-linecap="square" stroke-miterlimit="10" d="  M382.014,383.404c-3.088,6.052-8.4,21.074-3.75,27.75c17.884,25.676,22.366-24.492,22.5-30  C394.736,380.521,387.558,380.883,382.014,383.404z"/>
<path fill-rule="evenodd" clip-rule="evenodd" fill="#C5C6CC" stroke="#000000" stroke-width="0.5" stroke-linecap="square" stroke-miterlimit="10" d="  M325.014,419.404C310.577,463.44,309.583,376.872,325.014,419.404L325.014,419.404z"/>
<path fill-rule="evenodd" clip-rule="evenodd" fill="#F8E312" stroke="#000000" stroke-width="0.5" stroke-linecap="square" stroke-miterlimit="10" d="  M322.014,419.404C309.588,432.189,307.348,408.781,322.014,419.404L322.014,419.404z"/>
<path fill="none" stroke="#000000" stroke-width="0.5" stroke-linecap="square" stroke-miterlimit="10" d="M362.514,413.404  c-21.406,8.835-20.947,38.046-20.25,57.752"/>
<path fill-rule="evenodd" clip-rule="evenodd" fill="#3FA931" stroke="#000000" stroke-width="0.5" stroke-linecap="square" stroke-miterlimit="10" d="  M308.514,446.406c6.45,2.71,57.995,9.243,45,19.5C343.248,474.008,301.752,464.244,308.514,446.406z"/>
<path fill-rule="evenodd" clip-rule="evenodd" fill="#999999" stroke="#000000" stroke-width="0.5" stroke-linecap="square" stroke-miterlimit="10" d="  M313.014,444.156C314.406,401.148,362.108,477.017,313.014,444.156L313.014,444.156z"/>
<path fill="none" stroke="#000000" stroke-width="0.5" stroke-linecap="square" stroke-miterlimit="10" d="M465.264,478.656  c-1.231-3.137-1.981-6.388-2.25-9.75"/>
<path fill="none" stroke="#000000" stroke-width="0.5" stroke-linecap="square" stroke-miterlimit="10" d="M406.764,372.904  c-0.902,30.679,6.67,68.319-1.5,98.252"/>
<path fill-rule="evenodd" clip-rule="evenodd" fill="#C5C6CC" stroke="#000000" stroke-width="0.5" stroke-linecap="square" stroke-miterlimit="10" d="  M353.514,427.656C338.587,471.189,338.588,384.119,353.514,427.656L353.514,427.656z"/>
<path fill-rule="evenodd" clip-rule="evenodd" fill="#F8E312" stroke="#000000" stroke-width="0.5" stroke-linecap="square" stroke-miterlimit="10" d="  M349.764,428.406C335.028,438.709,338.2,415.596,349.764,428.406L349.764,428.406z"/>
<path fill-rule="evenodd" clip-rule="evenodd" fill="#FFFFFF" stroke="#000000" stroke-width="0.5" stroke-linecap="square" stroke-miterlimit="10" d="  M400.014,420.904c-2.642-2.642-7.135,2.463-5.25-5.25C402.477,413.769,397.372,418.262,400.014,420.904z"/>
<path fill-rule="evenodd" clip-rule="evenodd" fill="#FFFFFF" stroke="#000000" stroke-width="0.5" stroke-linecap="square" stroke-miterlimit="10" d="  M397.014,419.404c-4.079-0.52-6.928,0.961-9-1.5C390.713,417.352,396.949,419.396,397.014,419.404z"/>
<path fill-rule="evenodd" clip-rule="evenodd" fill="#3F57A2" stroke="#000000" stroke-width="0.5" stroke-linecap="square" stroke-miterlimit="10" d="  M428.514,366.904c-2.702-16.657-11.901-13.625-16.5,0C417.758,369.288,422.745,368.519,428.514,366.904z"/>
<path fill-rule="evenodd" clip-rule="evenodd" fill="#FFFFFF" stroke="#000000" stroke-width="0.5" stroke-linecap="square" stroke-miterlimit="10" d="  M377.514,459.906c-11.286,3.69-15.288,19.543,0,21C392.994,482.381,387.835,463.499,377.514,459.906z M377.514,474.156  C377.514,465.701,377.514,465.701,377.514,474.156L377.514,474.156z"/>
<path fill-rule="evenodd" clip-rule="evenodd" fill="#FFFFFF" stroke="#000000" stroke-width="0.5" stroke-linecap="square" stroke-miterlimit="10" d="  M484.014,459.156c-11.775,3.777-16.875,22.468,0,22.5C500.142,481.687,495.768,462.662,484.014,459.156z M484.014,474.906  C483.898,465.47,483.898,465.438,484.014,474.906L484.014,474.906z"/>
<path fill-rule="evenodd" clip-rule="evenodd" fill="#3FA931" stroke="#000000" stroke-width="0.5" stroke-linecap="square" stroke-miterlimit="10" d="  M352.764,423.156c-0.974,4.479,1.264,7.312-1.5,12c54.5,0.5,109,1,163.5,1.5C516.939,414.694,378.759,423.517,352.764,423.156z"/>
</svg>