<svg xmlns="http://www.w3.org/2000/svg" xmlns:xlink="http://www.w3.org/1999/xlink" version="1.1" id="Layer_1" x="0px" y="0px" enable-background="new 0 0 822.05 841.89" xml:space="preserve" viewBox="327.23 380.51 171.41 82.58">
<path fill-rule="evenodd" clip-rule="evenodd" d="M377.25,458.39c0.439-3.896-0.112-8.158-0.75-12  c-26.183,48.172-95.986-47.571-0.75-34.5c-4.521-18.117-27.856-14.007-41.25-7.5c-8.794-25.351,33.241-28.548,49.5-18.75  c24.887,14.999,13.401,48.307,17.25,72.75C393.737,458.39,384.565,459.964,377.25,458.39z M348.75,435.14  c8.147,14.481,25.288,5.738,27-9.75C364.532,422.862,352.794,424,348.75,435.14z"/>
<path fill-rule="evenodd" clip-rule="evenodd" d="M416.25,383.39c14.976-4.017,26.332-2.211,23.25,14.25  c8.421-14.73,30.873-21.757,45.75-10.5c8.439,6.386,11.25,17,11.25,27.326c0,7.539,4.803,38.894,0,43.924  c-11.555,12.104-26.25-1.714-26.25-12.672c0-7.126,4.691-37.011-6.75-41.328c-10.744-4.054-18.955,4.231-20.625,14.25  c-4.552,27.31,11.219,39.75-22.523,39.75C411.749,458.39,416.25,394.91,416.25,383.39z"/>
</svg>