<svg xmlns="http://www.w3.org/2000/svg" xmlns:xlink="http://www.w3.org/1999/xlink" version="1.1" id="Layer_1" x="0px" y="0px" enable-background="new 0 0 822.05 841.89" xml:space="preserve" viewBox="223.88 281.28 373.25 278.88">
<path fill-rule="evenodd" clip-rule="evenodd" fill="#D1D1D2" d="M596.129,426.64c-4.5-7.75-9-15.5-13.5-23.25c-5,8.5-10,17-15,25.5  c3.5,0.75,7,1.5,10.5,2.25c-3.973,18.805-11.292,57.286-36,60.375c-22.104,2.763-66.984-83.775-80.25-102.375  c9.388-5.346,73.095-30.263,68.25-42.375c-6.531-16.328-55.387,26.487-65.936,32.494c-28.892,16.453-9.344-47.282-34.564-37.369  c-21.402,8.412,13.203,37.37,18.75,46.5c-8.697,5.028-70.811,29.333-63.752,39c10.156,13.908,55.136-25.638,66.752-32.25  c12.934,22.994,64.514,85.419,60.375,110.25c-3.635,21.807-59.367,6.556-70.875,3.75c1.25-4.25,2.5-8.5,3.75-12.75  c-9.75,0.5-19.5,1-29.25,1.5c4.75,9,9.5,18,14.25,27c2.25-3.5,4.5-7,6.75-10.5c14.747,13.426,31.869,24.374,52.125,26.625  c13.284,1.476,47.83-0.613,55.875-4.875c5.067-2.685,26.732-33.461,31.125-43.125C583.574,475.261,579.785,429.16,596.129,426.64z"/>
<path fill="none" stroke="#000000" stroke-width="2" stroke-linecap="square" stroke-miterlimit="10" d="M596.129,426.64  c-4.5-7.75-9-15.5-13.5-23.25c-5,8.5-10,17-15,25.5c3.5,0.75,7,1.5,10.5,2.25c-3.973,18.805-11.292,57.286-36,60.375  c-22.104,2.763-66.984-83.775-80.25-102.375c9.388-5.346,73.095-30.263,68.25-42.375c-6.531-16.328-55.387,26.487-65.936,32.494  c-28.892,16.453-9.344-47.282-34.564-37.369c-21.402,8.412,13.203,37.37,18.75,46.5c-8.697,5.028-70.811,29.333-63.752,39  c10.156,13.908,55.136-25.638,66.752-32.25c12.934,22.994,64.514,85.419,60.375,110.25c-3.635,21.807-59.367,6.556-70.875,3.75  c1.25-4.25,2.5-8.5,3.75-12.75c-9.75,0.5-19.5,1-29.25,1.5c4.75,9,9.5,18,14.25,27c2.25-3.5,4.5-7,6.75-10.5  c14.747,13.426,31.869,24.374,52.125,26.625c13.284,1.476,47.83-0.613,55.875-4.875c5.067-2.685,26.732-33.461,31.125-43.125  C583.574,475.261,579.785,429.16,596.129,426.64z"/>
<path fill-rule="evenodd" clip-rule="evenodd" fill="#FFFFFF" stroke="#000000" stroke-width="2" stroke-linecap="square" stroke-miterlimit="10" d="  M439.379,353.14C427.745,364.102,424.364,347.495,439.379,353.14L439.379,353.14z"/>
<path fill-rule="evenodd" clip-rule="evenodd" fill="#D1D1D2" d="M482.879,374.89c-20.358,6.734-36.812-4.661-57.601-13.392  c-40.207-16.887-29.119-18.637-15.901-47.358c3.685-8.007,20.94-16.986,3.75-27.75c-25.18-15.767-17.252,18.572-18.75,24  c-11.166,40.457-22.094,28.952-57.018,14.268c-7.295-3.067-29.887-25.722-35.982-24.768c-16.387,2.563-13.269,16.437-4.5,24.75  c3.083,2.922,14.543-0.455,19.02,1.386c20.16,8.288,40.32,16.576,60.48,24.864c-10.625,24.75-21.25,49.5-31.875,74.25  c-5.228,12.179-20.765,71.234-34.125,75.75c-28.188,9.528-52.587-53.893-60-71.25c5.349-0.682,10.388-4.854,15.75-5.25  c-8.25-9.75-16.5-19.5-24.75-29.25c-5.5,12-11,24-16.5,36c5.035-1.813,11.313-0.096,16.5-1.5  c-2.804,31.147,1.678,63.524,22.875,87.75c10.357,11.837,22.475,17.812,34.875,27c2.283,1.691-3.466,12.922,6.75,14.625  c8.107,1.352,8.734-7.071,15-6.375c20.958,2.33,36.151,7.606,57.75,2.25c21.103-5.233,65.331-46.398,78.752-29.25  c4.5-11,9-22,13.5-33c-12.5,1.5-25,3-37.5,4.5c14.948,21.618-67.417,47.515-85.502,23.25c-11.74-15.751,6.81-47.318,12.003-64.462  c9.999-33.013,19.998-66.025,29.997-99.038c20.641,8.583,41.281,17.166,61.922,25.749c4.621,1.922,18.621,16.154,21.33,16.251  C488.831,399.454,497.803,385.626,482.879,374.89z"/>
<path fill="none" stroke="#000000" stroke-width="2" stroke-linecap="square" stroke-miterlimit="10" d="M482.879,374.89  c-20.358,6.734-36.812-4.661-57.601-13.392c-40.207-16.887-29.119-18.637-15.901-47.358c3.685-8.007,20.94-16.986,3.75-27.75  c-25.18-15.767-17.252,18.572-18.75,24c-11.166,40.457-22.094,28.952-57.018,14.268c-7.295-3.067-29.887-25.722-35.982-24.768  c-16.387,2.563-13.269,16.437-4.5,24.75c3.083,2.922,14.543-0.455,19.02,1.386c20.16,8.288,40.32,16.576,60.48,24.864  c-10.625,24.75-21.25,49.5-31.875,74.25c-5.228,12.179-20.765,71.234-34.125,75.75c-28.188,9.528-52.587-53.893-60-71.25  c5.349-0.682,10.388-4.854,15.75-5.25c-8.25-9.75-16.5-19.5-24.75-29.25c-5.5,12-11,24-16.5,36c5.035-1.813,11.313-0.096,16.5-1.5  c-2.804,31.147,1.678,63.524,22.875,87.75c10.357,11.837,22.475,17.812,34.875,27c2.283,1.691-3.466,12.922,6.75,14.625  c8.107,1.352,8.734-7.071,15-6.375c20.958,2.33,36.151,7.606,57.75,2.25c21.103-5.233,65.331-46.398,78.752-29.25  c4.5-11,9-22,13.5-33c-12.5,1.5-25,3-37.5,4.5c14.948,21.618-67.417,47.515-85.502,23.25c-11.74-15.751,6.81-47.318,12.003-64.462  c9.999-33.013,19.998-66.025,29.997-99.038c20.641,8.583,41.281,17.166,61.922,25.749c4.621,1.922,18.621,16.154,21.33,16.251  C488.831,399.454,497.803,385.626,482.879,374.89z"/>
<path fill-rule="evenodd" clip-rule="evenodd" fill="#FFFFFF" stroke="#000000" stroke-width="2" stroke-linecap="square" stroke-miterlimit="10" d="  M409.377,305.89C384.019,307.161,411.016,279.863,409.377,305.89L409.377,305.89z"/>
</svg>