<svg xmlns="http://www.w3.org/2000/svg" xmlns:xlink="http://www.w3.org/1999/xlink" version="1.1" id="Layer_1" x="0px" y="0px" enable-background="new 0 0 822.05 841.89" xml:space="preserve" viewBox="262.53 282.9 295.47 279.18">
<path fill-rule="evenodd" clip-rule="evenodd" fill="#D1D1D2" d="M557,403.181c-6-10.75-12-21.5-18-32.25c-7,11.5-14,23-21,34.5  c28.521-0.146-3.984,91.718-38.25,87.75c-18.534-2.146-35.256-40.525-45.021-54.256c-20.743-29.165-41.486-58.33-62.229-87.494  c21.094-12.023,42.188-24.047,63.281-36.07c5.504-3.138,24.371-3.464,27.469-8.18c13.993-21.301-18.178-32.863-22.125-13.125  c-2.838,14.191-23.755,20.129-37.125,27.75c-33.489,19.089-32.94,27.792-55.644-4.161c-4.677-6.582,9.492-35.758-17.106-31.464  c-36.777,5.938,3.401,29.07,6,32.25c36.507,44.672-21.738,51.6-53.25,67.5c-5.395,2.722-38.8,20.751-6.75,25.5  c11.622,1.722,10.425-11.332,15.822-14.391c21.976-12.453,43.952-24.906,65.928-37.359c14.779,26.363,29.559,52.726,44.338,79.089  c7.107,12.678,42.752,57.78,38.162,72.411c-9.246,29.475-78.825,10.939-98.25,5.25c3.22-4.922,2.627-12.446,6-17.25  c-13.5,0.75-27,1.5-40.5,2.25c6.75,12.25,13.5,24.5,20.25,36.75c1.62-5.424,7.214-9.618,9-15c25.023,24.611,57.338,40.669,93,37.5  c9.899-0.88,56.611-5.027,59.25-11.625c8.068-20.17,30.541-35.3,41.25-60.375C540.302,468.071,534.756,405.158,557,403.181z"/>
<path fill="none" stroke="#000000" stroke-width="2" stroke-linecap="square" stroke-miterlimit="10" d="M557,403.181  c-6-10.75-12-21.5-18-32.25c-7,11.5-14,23-21,34.5c28.521-0.146-3.984,91.718-38.25,87.75  c-18.534-2.146-35.256-40.525-45.021-54.256c-20.743-29.165-41.486-58.33-62.229-87.494c21.094-12.023,42.188-24.047,63.281-36.07  c5.504-3.138,24.371-3.464,27.469-8.18c13.993-21.301-18.178-32.863-22.125-13.125c-2.838,14.191-23.755,20.129-37.125,27.75  c-33.489,19.089-32.94,27.792-55.644-4.161c-4.677-6.582,9.492-35.758-17.106-31.464c-36.777,5.938,3.401,29.07,6,32.25  c36.507,44.672-21.738,51.6-53.25,67.5c-5.395,2.722-38.8,20.751-6.75,25.5c11.622,1.722,10.425-11.332,15.822-14.391  c21.976-12.453,43.952-24.906,65.928-37.359c14.779,26.363,29.559,52.726,44.338,79.089c7.107,12.678,42.752,57.78,38.162,72.411  c-9.246,29.475-78.825,10.939-98.25,5.25c3.22-4.922,2.627-12.446,6-17.25c-13.5,0.75-27,1.5-40.5,2.25  c6.75,12.25,13.5,24.5,20.25,36.75c1.62-5.424,7.214-9.618,9-15c25.023,24.611,57.338,40.669,93,37.5  c9.899-0.88,56.611-5.027,59.25-11.625c8.068-20.17,30.541-35.3,41.25-60.375C540.302,468.071,534.756,405.158,557,403.181z"/>
<path fill-rule="evenodd" clip-rule="evenodd" fill="#FFFFFF" stroke="#000000" stroke-width="2" stroke-linecap="square" stroke-miterlimit="10" d="  M341.75,301.931C329.668,329.985,319.034,281.307,341.75,301.931L341.75,301.931z"/>
</svg>