<svg xmlns="http://www.w3.org/2000/svg" xmlns:xlink="http://www.w3.org/1999/xlink" version="1.1" id="Layer_1" x="0px" y="0px" enable-background="new 0 0 822.05 841.89" xml:space="preserve" viewBox="341.79 352.69 137.43 136.2">
<path fill-rule="evenodd" clip-rule="evenodd" d="M393.25,488.89c0-16.286,9.306-50.25-9.962-50.25c-6.301,0-35.992,4.255-40.288,0  c-1.616-1.6-1.616-32.9,0-34.5c12.792-12.668,50.25,16.699,50.25-9.962c0-6.233-4.231-36.079,0-40.288  c1.606-1.598,32.145-1.598,33.75,0c12.887,12.82-16.897,50.25,10.11,50.25c6.349,0,36.589-4.302,40.89,0  c1.627,1.628,1.627,32.872,0,34.5c-12.785,12.789-51-16.838-51,9.962C427,487.85,432.727,488.89,393.25,488.89z"/>
</svg>