<svg xmlns="http://www.w3.org/2000/svg" xmlns:xlink="http://www.w3.org/1999/xlink" version="1.1" id="Layer_1" x="0px" y="0px" enable-background="new 0 0 822.05 841.89" xml:space="preserve" viewBox="334 338.71 154.25 168.5">
<path fill-rule="evenodd" clip-rule="evenodd" stroke="#000000" stroke-width="1.25" stroke-linecap="square" stroke-miterlimit="10" d="  M485.375,424.832c-10.944,41.191-139.628,43.834-140.25,0C344.496,380.481,474.716,383.095,485.375,424.832z"/>
<path fill-rule="evenodd" clip-rule="evenodd" stroke="#000000" stroke-width="1.25" stroke-linecap="square" stroke-miterlimit="10" d="  M385.625,385.082c-2.105,36.794-50.531,36.947-51,0C334.147,347.492,384.308,347.538,385.625,385.082z"/>
<path fill-rule="evenodd" clip-rule="evenodd" d="M345.125,367.832c1-9.5,2-19,3-28.5c16.402,32.804,16.491,27.917,51.75,18.75  C382.417,380.653,370.492,373.008,345.125,367.832z"/>
<path fill="none" stroke="#000000" stroke-width="1.25" stroke-linecap="square" stroke-miterlimit="10" d="M345.125,367.832  c1-9.5,2-19,3-28.5c16.402,32.804,16.491,27.917,51.75,18.75c-5.956,5.708-11.654,11.985-18,17.25"/>
<path fill-rule="evenodd" clip-rule="evenodd" stroke="#000000" stroke-width="1.25" stroke-linecap="square" stroke-miterlimit="10" d="  M462.125,411.332c11.51-0.249,22.051-8.055,25.5-19.5C475.549,390.959,464.353,400.302,462.125,411.332z"/>
<path fill-rule="evenodd" clip-rule="evenodd" stroke="#000000" stroke-width="1.25" stroke-linecap="square" stroke-miterlimit="10" d="  M391.625,466.082c-0.302,13.764,0.331,29.454-7.5,40.5c-13.129-17.269-13.184-62.963,0-80.25  C391.853,437.194,391.275,452.516,391.625,466.082z"/>
<path fill-rule="evenodd" clip-rule="evenodd" stroke="#000000" stroke-width="1.25" stroke-linecap="square" stroke-miterlimit="10" d="  M359.375,454.832c-2.07,6.01-25.217,52.018-21.375,25.125c2.956-20.693,8.879-53.788,26.625-65.625  C368.188,427.699,363.875,441.866,359.375,454.832z"/>
<path fill-rule="evenodd" clip-rule="evenodd" stroke="#000000" stroke-width="1.25" stroke-linecap="square" stroke-miterlimit="10" d="  M448.625,460.832c-0.304,13.814-0.296,29.078-7.5,40.5c-12.826-17.524-13.328-62.773,0-80.25  C448.36,432.043,448.276,447.306,448.625,460.832z"/>
<path fill-rule="evenodd" clip-rule="evenodd" stroke="#000000" stroke-width="1.25" stroke-linecap="square" stroke-miterlimit="10" d="  M474.875,458.582c1.489,5.779,10.843,57.072-3.375,33.375c-10.362-17.271-22.674-50.124-15.375-69.375  C466.638,431.266,470.44,445.706,474.875,458.582z"/>
</svg>