<svg xmlns="http://www.w3.org/2000/svg" xmlns:xlink="http://www.w3.org/1999/xlink" version="1.1" id="Layer_1" x="0px" y="0px" enable-background="new 0 0 822.05 841.89" xml:space="preserve" viewBox="314.5 344.23 191.41 156.12">
<path fill="none" stroke="#B10C0E" stroke-width="3" stroke-linecap="square" stroke-miterlimit="10" d="M471.25,439.64  c-3.289,78.959-155.485,78.936-155.25,0C316.234,361.075,467.281,361.241,471.25,439.64z"/>
<path fill-rule="evenodd" clip-rule="evenodd" fill="#F7F619" stroke="#000000" stroke-width="1.25" stroke-linecap="square" stroke-miterlimit="10" d="  M376,468.14c-7.077,5.231-26.887,1.692-17.25-9.75C368.23,447.133,378.252,456.66,376,468.14z"/>
<path fill-rule="evenodd" clip-rule="evenodd" fill="#F87F11" stroke="#000000" stroke-width="1.25" stroke-linecap="square" stroke-miterlimit="10" d="  M376,426.89c-10.605,0.375-22.037-11.758-8.25-18.75C381.514,401.16,383.027,419.709,376,426.89z"/>
<path fill-rule="evenodd" clip-rule="evenodd" fill="#5DACC5" stroke="#000000" stroke-width="1.25" stroke-linecap="square" stroke-miterlimit="10" d="  M419.5,417.14C383.59,444.796,424.647,370.498,419.5,417.14L419.5,417.14z"/>
<path fill-rule="evenodd" clip-rule="evenodd" fill="#D21477" stroke="#000000" stroke-width="1.25" stroke-linecap="square" stroke-miterlimit="10" d="  M412,472.64C393.596,512.601,393.596,432.679,412,472.64L412,472.64z"/>
<path fill-rule="evenodd" clip-rule="evenodd" fill="#B10C0E" stroke="#000000" stroke-width="1.25" stroke-linecap="square" stroke-miterlimit="10" d="  M455.5,435.14C436.876,475.674,436.876,394.605,455.5,435.14L455.5,435.14z"/>
<path fill-rule="evenodd" clip-rule="evenodd" fill="#F8130D" stroke="#000000" stroke-width="1.25" stroke-linecap="square" stroke-miterlimit="10" d="  M436.75,459.89c-3.685,9.285-20.25,14.922-20.25,0S433.065,450.605,436.75,459.89z"/>
<path fill-rule="evenodd" clip-rule="evenodd" fill="#F7F619" stroke="#000000" stroke-width="1.25" stroke-linecap="square" stroke-miterlimit="10" d="  M406,438.14c-3.703,9.195-20.25,14.954-20.25,0S402.297,428.945,406,438.14z"/>
<path fill-rule="evenodd" clip-rule="evenodd" fill="#B10C0E" stroke="#000000" stroke-width="1.25" stroke-linecap="square" stroke-miterlimit="10" d="  M354.25,434.39C335.626,474.924,335.626,393.855,354.25,434.39L354.25,434.39z"/>
<path fill-rule="evenodd" clip-rule="evenodd" fill="#5DACC5" stroke="#000000" stroke-width="1.25" stroke-linecap="square" stroke-miterlimit="10" d="  M505,406.64c-9.329,8.852-26.854,3.779-19.5-11.25C492.729,380.619,507.537,394.88,505,406.64z"/>
<path fill-rule="evenodd" clip-rule="evenodd" d="M428.5,384.14c2.783-20.551,15.401-41.984,39-39.75  c15.76,1.492,40.272,39,28.125,39c-4.466,0-11.918-28.221-27-30.375c-19.761-2.823-31.052,12.603-32.625,31.125  c2.75,0.25,5.5,0.5,8.25,0.75c-4.5,9-9,18-13.5,27c-3.5-9.5-7-19-10.5-28.5C423,383.64,425.75,383.89,428.5,384.14z"/>
</svg>