<svg xmlns="http://www.w3.org/2000/svg" xmlns:xlink="http://www.w3.org/1999/xlink" version="1.1" id="Layer_1" x="0px" y="0px" enable-background="new 0 0 822.05 841.89" xml:space="preserve" viewBox="377.25 407.05 68.25 29.59">
<path fill-rule="evenodd" clip-rule="evenodd" d="M411.752,415.64c0.665,0.537,7.602,6.157,13.498,7.5  C420.742,420.188,412.002,415.767,411.752,415.64z"/>
<path fill-rule="evenodd" clip-rule="evenodd" d="M396,411.89c-7.573,1.384-13.232,0.58-18.75,8.25  C383.207,416.502,390.131,414.701,396,411.89z"/>
<path fill-rule="evenodd" clip-rule="evenodd" d="M401.25,411.14c2.586-0.41,2.988-5.843,4.5,1.5  C402.474,411.153,402.796,410.895,401.25,411.14z"/>
<path fill-rule="evenodd" clip-rule="evenodd" d="M427.5,408.89c4.743-0.009,8.255-6.318,7.5,4.5  C430.435,405.044,429.073,409.742,427.5,408.89z"/>
<path fill-rule="evenodd" clip-rule="evenodd" d="M429,411.14c8.247,1.267,12.792-1.302,16.5,9.75  C438.394,409.46,426.88,415.526,429,411.14z"/>
<path fill-rule="evenodd" clip-rule="evenodd" d="M411.002,413.39c2.749,2.94,4.793-3.069,4.498,2.25  C407.936,420.209,412.896,415.416,411.002,413.39z"/>
<path fill-rule="evenodd" clip-rule="evenodd" d="M418.5,411.89c3.455,1.709,7.038-4.532,5.25,3  C418.352,418.587,421.686,413.466,418.5,411.89z"/>
<path fill-rule="evenodd" clip-rule="evenodd" d="M430.5,412.64C421.648,418.922,420.012,409.629,430.5,412.64L430.5,412.64z"/>
<path fill-rule="evenodd" clip-rule="evenodd" d="M421.5,414.89C413.773,414.337,413.626,414.326,421.5,414.89L421.5,414.89z"/>
<path fill-rule="evenodd" clip-rule="evenodd" d="M419.25,426.89c-4.631-10.641-21.448-26.924-34.5-6.75  c14.194,2.182,38.668-4.505,32.25,16.5C424.176,436.719,419.744,432.472,419.25,426.89z"/>
<path fill-rule="evenodd" clip-rule="evenodd" d="M416.25,414.89c1.818,3.883,10.313,10.114,18,12.75  C428.023,422.204,419.932,416.367,416.25,414.89z"/>
<path fill-rule="evenodd" clip-rule="evenodd" d="M408.002,418.64c-6.599,3.699-12.341,10.58-22.502,15  c10.964-0.982,10.383-2.074,17.25-11.25C409.618,425.598,407.595,420.028,408.002,418.64z"/>
<path fill-rule="evenodd" clip-rule="evenodd" d="M405.75,421.64C406.75,424.64,406.75,424.64,405.75,421.64L405.75,421.64z"/>
<path fill-rule="evenodd" clip-rule="evenodd" d="M413.25,421.64C411.252,423.64,411.252,423.64,413.25,421.64L413.25,421.64z"/>
</svg>