<svg xmlns="http://www.w3.org/2000/svg" xmlns:xlink="http://www.w3.org/1999/xlink" version="1.1" id="Layer_1" x="0px" y="0px" enable-background="new 0 0 822.05 841.89" xml:space="preserve" viewBox="308.81 337.14 203.23 168.22">
<path fill-rule="evenodd" clip-rule="evenodd" fill="#F7F619" stroke="#000000" stroke-width="1.25" stroke-linecap="square" stroke-miterlimit="10" d="  M457.063,470.525c4.883,19.417,47.446,17.607,53.25,0C492.535,475.567,474.658,476.8,457.063,470.525z"/>
<path fill-rule="evenodd" clip-rule="evenodd" fill="#200F75" stroke="#000000" stroke-width="1.25" stroke-linecap="square" stroke-miterlimit="10" d="  M505.813,435.275c-8.95-27.518-35.743-26.818-45,0C475.552,440.266,490.986,439.697,505.813,435.275z"/>
<path fill-rule="evenodd" clip-rule="evenodd" fill="#200F75" stroke="#000000" stroke-width="1.25" stroke-linecap="square" stroke-miterlimit="10" d="  M460.813,480.275c11.278,15.128,35.392,15.527,45.75-0.75C491.555,483.622,475.831,484.911,460.813,480.275z"/>
<path fill-rule="evenodd" clip-rule="evenodd" fill="#F7F619" stroke="#000000" stroke-width="1.25" stroke-linecap="square" stroke-miterlimit="10" d="  M460.813,435.275c-2.778,18.779,34.735,11.589,48,7.5C502.832,432.12,475.96,440.404,460.813,435.275z"/>
<path fill-rule="evenodd" clip-rule="evenodd" fill="#200F75" stroke="#000000" stroke-width="1.25" stroke-linecap="square" stroke-miterlimit="10" d="  M458.563,442.775c-0.75,2.75-1.5,5.5-2.25,8.25c10.647,4.802,10.542,7.855,0,12c3.126,12.469,22.844,14.556,36,11.25  c19.938-5.01,21.935-10.455,16.5-31.5C492.38,447.841,474.71,449.443,458.563,442.775z M502.063,451.775  C516.989,467.288,488.305,467.849,502.063,451.775L502.063,451.775z M487.813,460.775  C471.198,473.676,471.836,447.211,487.813,460.775L487.813,460.775z"/>
<path fill-rule="evenodd" clip-rule="evenodd" fill="#F8130D" stroke="#000000" stroke-width="1.25" stroke-linecap="square" stroke-miterlimit="10" d="  M465.313,457.025C452.405,444.301,452.845,470.383,465.313,457.025L465.313,457.025z"/>
<path fill-rule="evenodd" clip-rule="evenodd" fill="#F8130D" stroke="#000000" stroke-width="1.25" stroke-linecap="square" stroke-miterlimit="10" d="  M474.313,460.775C490.03,473.583,489.391,447.295,474.313,460.775L474.313,460.775z"/>
<path fill-rule="evenodd" clip-rule="evenodd" fill="#F8130D" stroke="#000000" stroke-width="1.25" stroke-linecap="square" stroke-miterlimit="10" d="  M502.063,465.275C515.968,449.869,489.313,449.36,502.063,465.275L502.063,465.275z"/>
<path fill-rule="evenodd" clip-rule="evenodd" fill="#F8130D" stroke="#000000" stroke-width="1.25" stroke-linecap="square" stroke-miterlimit="10" d="  M453.313,418.777c-5.35-26.572-18.854-61.999-48.002-69.75c2.629,25.326,4.792,50.317,6,75.748  C425.446,424.476,439.656,422.427,453.313,418.777z"/>
<path fill-rule="evenodd" clip-rule="evenodd" fill="#F8130D" stroke="#000000" stroke-width="1.25" stroke-linecap="square" stroke-miterlimit="10" d="  M346.062,420.277c16.378,2.314,32.917,5.087,49.5,4.498c-0.862-25.011-1.81-50.001-3-74.998  C364.104,359.302,351.874,393.537,346.062,420.277z"/>
<path fill-rule="evenodd" clip-rule="evenodd" fill="#F8130D" stroke="#000000" stroke-width="1.25" stroke-linecap="square" stroke-miterlimit="10" d="  M396.312,439.025c-17.095-0.794-34.171-2.003-51-5.25c-1.867,31.1,13.724,62.239,48,63.75  C396.1,478.175,395.858,458.531,396.312,439.025z"/>
<path fill-rule="evenodd" clip-rule="evenodd" fill="#F8130D" stroke="#000000" stroke-width="1.25" stroke-linecap="square" stroke-miterlimit="10" d="  M454.813,433.025c-9.761,2.503-43.502,3.258-43.502,10.861c0,18-1.004,35.74-3,53.639  C440.868,495.037,457.345,463.246,454.813,433.025z"/>
<path fill-rule="evenodd" clip-rule="evenodd" fill="#F8130D" stroke="#000000" stroke-width="1.25" stroke-linecap="square" stroke-miterlimit="10" d="  M411.312,439.025c3.067-13.312-2.563-17.665-15.75-14.25C393.143,437.727,398.559,442.292,411.312,439.025z"/>
<path fill-rule="evenodd" clip-rule="evenodd" fill="#F7F619" stroke="#000000" stroke-width="1.25" stroke-linecap="square" stroke-miterlimit="10" d="  M411.312,439.025c-25.842-5.019-15.258,39.47-18,58.5C418.942,503.255,411.646,456.941,411.312,439.025z"/>
<path fill-rule="evenodd" clip-rule="evenodd" fill="#F7F619" stroke="#000000" stroke-width="1.25" stroke-linecap="square" stroke-miterlimit="10" d="  M411.312,424.775c-0.626-13.193,1.15-81.423-15-75.748C391.693,350.65,381.379,433.493,411.312,424.775z"/>
<path fill-rule="evenodd" clip-rule="evenodd" fill="#F7F619" stroke="#000000" stroke-width="1.25" stroke-linecap="square" stroke-miterlimit="10" d="  M454.813,433.025c-0.5-4.749-1-9.499-1.5-14.248c-36.006,7.81-70.933,6.781-107.252,1.5  C336.906,449.251,436.203,437.646,454.813,433.025z"/>
<path fill-rule="evenodd" clip-rule="evenodd" fill="#F7F619" stroke="#000000" stroke-width="1.25" stroke-linecap="square" stroke-miterlimit="10" d="  M375.312,337.777c-24.664,1.113-22.875,27.792,1.5,26.25C400.828,362.507,399.667,337.103,375.312,337.777z M382.812,355.777  C349.04,346.119,415.114,342.031,382.812,355.777L382.812,355.777z"/>
<path fill-rule="evenodd" clip-rule="evenodd" fill="#F7F619" stroke="#000000" stroke-width="1.25" stroke-linecap="square" stroke-miterlimit="10" d="  M417.31,364.027c22.21,2.073,25.965-23.25,3.377-23.25C397.885,340.777,391.54,362.257,417.31,364.027z M412.812,347.527  C441.52,361.841,380.669,355.348,412.812,347.527L412.812,347.527z"/>
<path fill-rule="evenodd" clip-rule="evenodd" fill="#F7F619" stroke="#000000" stroke-width="1.25" stroke-linecap="square" stroke-miterlimit="10" d="  M391.812,352.777c-12,8-24,16-36,24c5.269,3.548,21.584,12.349,25.2,6.708C388.01,372.568,401.939,361.917,391.812,352.777z"/>
<path fill-rule="evenodd" clip-rule="evenodd" fill="#F7F619" stroke="#000000" stroke-width="1.25" stroke-linecap="square" stroke-miterlimit="10" d="  M398.562,358.027c6.5,10.25,12.999,20.5,19.498,30.75c4.221-2.635,10.473-9.815,12.754-14.25  C420.532,366.246,409.28,349.163,398.562,358.027z"/>
<path fill-rule="evenodd" clip-rule="evenodd" fill="#F7F619" stroke="#000000" stroke-width="1.25" stroke-linecap="square" stroke-miterlimit="10" d="  M405.312,352.027C389.798,374.003,386.13,330.951,405.312,352.027L405.312,352.027z"/>
<path fill-rule="evenodd" clip-rule="evenodd" fill="#200F75" stroke="#000000" stroke-width="1.25" stroke-linecap="square" stroke-miterlimit="10" d="  M425.563,483.275c6.028,18.408,48.771,18.517,53.25,0C462.377,489.899,442.077,489.641,425.563,483.275z"/>
<path fill-rule="evenodd" clip-rule="evenodd" fill="#F7F619" stroke="#000000" stroke-width="1.25" stroke-linecap="square" stroke-miterlimit="10" d="  M475.063,448.025c-8.881-27.125-36.003-26.796-45,0C444.771,453.089,460.261,452.432,475.063,448.025z"/>
<path fill-rule="evenodd" clip-rule="evenodd" fill="#F7F619" stroke="#000000" stroke-width="1.25" stroke-linecap="square" stroke-miterlimit="10" d="  M430.063,493.025c11.24,15.872,35.123,15.589,45.75-0.75C460.805,496.372,445.081,497.661,430.063,493.025z"/>
<path fill-rule="evenodd" clip-rule="evenodd" fill="#200F75" stroke="#000000" stroke-width="1.25" stroke-linecap="square" stroke-miterlimit="10" d="  M430.063,448.025c-1,2.5-2,5-3,7.5c15.907,6.201,35.172,6.591,51,0C472.027,444.772,445.27,453.261,430.063,448.025z"/>
<path fill-rule="evenodd" clip-rule="evenodd" fill="#F7F619" stroke="#000000" stroke-width="1.25" stroke-linecap="square" stroke-miterlimit="10" d="  M427.063,455.525c-0.5,2.75-1,5.5-1.5,8.25c11.055,5.07,10.458,8.392-0.75,12.75c7.547,23.059,64.545,17.624,53.25-21  C462.235,462.116,442.971,461.726,427.063,455.525z M471.313,464.525C484.478,480.686,458.354,480.918,471.313,464.525  L471.313,464.525z M456.313,473.525C440.811,486.387,441.064,460.452,456.313,473.525L456.313,473.525z"/>
<path fill-rule="evenodd" clip-rule="evenodd" fill="#F8130D" stroke="#000000" stroke-width="1.25" stroke-linecap="square" stroke-miterlimit="10" d="  M434.563,469.775c-8.391-6.771-10.396-7.377-9.75,6.75C432.449,477.9,430.799,473.489,434.563,469.775z"/>
<path fill-rule="evenodd" clip-rule="evenodd" fill="#F8130D" stroke="#000000" stroke-width="1.25" stroke-linecap="square" stroke-miterlimit="10" d="  M442.813,473.525C459.207,486.485,458.975,460.361,442.813,473.525L442.813,473.525z"/>
<path fill-rule="evenodd" clip-rule="evenodd" fill="#F8130D" stroke="#000000" stroke-width="1.25" stroke-linecap="square" stroke-miterlimit="10" d="  M471.313,478.025C484.387,462.776,458.451,462.522,471.313,478.025L471.313,478.025z"/>
<path fill-rule="evenodd" clip-rule="evenodd" fill="#FFFFFF" stroke="#000000" stroke-linecap="square" stroke-miterlimit="10" d="  M395.562,498.275c-23.506,0-47.012,0-70.518,0c-10.36,0-13.146-49.858-6.732-57c6.503-7.24,59.741,0,70.518,0  C403.092,441.275,395.562,485.367,395.562,498.275z"/>
<path fill-rule="evenodd" clip-rule="evenodd" fill="#FFFFFF" stroke="#000000" stroke-linecap="square" stroke-miterlimit="10" d="  M386.562,502.025c-25.75,0-51.5,0-77.25,0c0.883-7.459,3.886-57,8.549-57c25.15,0,50.3,0,75.451,0  C391.062,464.025,388.812,483.025,386.562,502.025z"/>
<path fill-rule="evenodd" clip-rule="evenodd" d="M363.312,453.275C362.737,448.787,362.634,447.98,363.312,453.275L363.312,453.275  z"/>
<path fill-rule="evenodd" clip-rule="evenodd" d="M344.562,453.275C343.987,448.787,343.884,447.98,344.562,453.275L344.562,453.275  z"/>
<path fill-rule="evenodd" clip-rule="evenodd" d="M382.062,453.275C381.487,448.787,381.384,447.98,382.062,453.275L382.062,453.275  z"/>
<path fill-rule="evenodd" clip-rule="evenodd" d="M325.812,453.275C325.237,448.787,325.134,447.98,325.812,453.275L325.812,453.275  z"/>
<path fill-rule="evenodd" clip-rule="evenodd" d="M325.812,437.525c-0.176,4.92-5.846,8.505,0.75,14.25  C325.166,445.29,326.059,439.609,325.812,437.525z"/>
<path fill-rule="evenodd" clip-rule="evenodd" d="M343.812,436.775c-0.128,5.998-6.202,9.229,0.75,15  c-0.85-3.941,1.018-12.07,0.75-10.5C349.251,439.524,343.71,438.927,343.812,436.775z"/>
<path fill-rule="evenodd" clip-rule="evenodd" d="M363.312,436.775c-0.188,5.674-6.066,9.424,0.75,15  C362.355,444.757,363.383,440.072,363.312,436.775z"/>
<path fill-rule="evenodd" clip-rule="evenodd" d="M381.312,436.775c-0.066,6.313-5.343,10.26,1.5,15  C380.758,444.139,381.23,439.957,381.312,436.775z"/>
<path fill="none" stroke="#000000" stroke-width="0.5" stroke-linecap="square" stroke-miterlimit="10" d="M382.812,496.025  c1.25-9.5,2.5-19,3.75-28.5c-18.032,0-36.064,0-54.096,0c-21.126,0-15.93,7.796-18.654,28.5  C336.812,496.025,359.812,496.025,382.812,496.025z"/>
<path fill-rule="evenodd" clip-rule="evenodd" d="M376.812,467.525l-3.75,28.5L376.812,467.525z"/>
<line fill="none" stroke="#000000" stroke-width="0.5" stroke-linecap="square" stroke-miterlimit="10" x1="376.812" y1="467.525" x2="373.062" y2="496.025"/>
<path fill-rule="evenodd" clip-rule="evenodd" d="M367.062,467.525l-3.75,28.5L367.062,467.525z"/>
<line fill="none" stroke="#000000" stroke-width="0.5" stroke-linecap="square" stroke-miterlimit="10" x1="367.062" y1="467.525" x2="363.312" y2="496.025"/>
<path fill-rule="evenodd" clip-rule="evenodd" d="M357.312,467.525l-3.75,28.5L357.312,467.525z"/>
<line fill="none" stroke="#000000" stroke-width="0.5" stroke-linecap="square" stroke-miterlimit="10" x1="357.312" y1="467.525" x2="353.562" y2="496.025"/>
<path fill-rule="evenodd" clip-rule="evenodd" d="M347.562,467.525l-4.5,28.5L347.562,467.525z"/>
<line fill="none" stroke="#000000" stroke-width="0.5" stroke-linecap="square" stroke-miterlimit="10" x1="347.562" y1="467.525" x2="343.062" y2="496.025"/>
<path fill-rule="evenodd" clip-rule="evenodd" d="M337.812,467.525l-4.5,28.5L337.812,467.525z"/>
<line fill="none" stroke="#000000" stroke-width="0.5" stroke-linecap="square" stroke-miterlimit="10" x1="337.812" y1="467.525" x2="333.312" y2="496.025"/>
<path fill-rule="evenodd" clip-rule="evenodd" d="M328.062,467.525l-4.5,28.5L328.062,467.525z"/>
<line fill="none" stroke="#000000" stroke-width="0.5" stroke-linecap="square" stroke-miterlimit="10" x1="328.062" y1="467.525" x2="323.562" y2="496.025"/>
<line fill="none" stroke="#000000" stroke-width="0.5" stroke-linecap="square" stroke-miterlimit="10" x1="316.812" y1="475.025" x2="385.812" y2="475.025"/>
<line fill="none" stroke="#000000" stroke-width="0.5" stroke-linecap="square" stroke-miterlimit="10" x1="316.062" y1="481.775" x2="385.062" y2="481.775"/>
<line fill="none" stroke="#000000" stroke-width="0.5" stroke-linecap="square" stroke-miterlimit="10" x1="315.312" y1="488.525" x2="384.312" y2="488.525"/>
<text transform="matrix(1 0 0 1 318.3291 466.0249)" font-family="'MyriadPro-Regular'" font-size="9">S  M  T  W  Th  F  S</text>
</svg>