<svg xmlns="http://www.w3.org/2000/svg" xmlns:xlink="http://www.w3.org/1999/xlink" version="1.1" id="Layer_1" x="0px" y="0px" enable-background="new 0 0 822.05 841.89" xml:space="preserve" viewBox="206.92 287.82 406.1 266.07">
<path fill-rule="evenodd" clip-rule="evenodd" fill="#90D8F8" stroke="#000000" stroke-width="2" stroke-linecap="square" stroke-miterlimit="10" d="  M579.918,425.39c34.932,2.806,43.502,34.027,15,54c-12.601,8.83-38.686,3.409-31.5,21.75c6.704,17.11,34.065,7.81,45.75,10.5  c-12.94,4.772-37.715,10.029-48-3c-16.003-20.273,3.653-20.312,17.25-27.75c9.879-5.404,29.621-11.755,30.75-26.25  C610.721,434.691,585.181,433.896,579.918,425.39z"/>
<path fill-rule="evenodd" clip-rule="evenodd" fill="#90D8F8" stroke="#000000" stroke-width="2" stroke-linecap="square" stroke-miterlimit="10" d="  M477.918,345.89c24.709,0,63.674-12.324,65.625,15c1.233,17.269,4.035,33.131,14.625,47.25c15.112,20.149,21.75,12.796,21.75,41.299  c0,34.483,0,68.967,0,103.451c-39.103-0.219-78.205-0.437-117.308-0.655c-33.093-0.185-16.942-57.729-16.942-85.243  c0-11.245-4.253-32.471,0-43.102c3.576-8.939,16.429-15.606,21-24.75C475.069,382.337,482.509,365.058,477.918,345.89z"/>
<path fill-rule="evenodd" clip-rule="evenodd" fill="#90D8F8" stroke="#000000" stroke-width="2" stroke-linecap="square" stroke-miterlimit="10" d="  M481.668,345.14c-9.729-60.281,67.449-62.435,57.75,0.75c21.352-17.708-5.404-56.01-30.75-54  C485.766,293.707,461.086,333.866,481.668,345.14z"/>
<path fill-rule="evenodd" clip-rule="evenodd" fill="#90D8F8" stroke="#000000" stroke-width="2" stroke-linecap="square" stroke-miterlimit="10" d="  M444.918,423.14c-38.761,11.746-12.809,38.245,0,57.75c22.04,33.562-7.367,41.012-42.002,48.75c0.25,1.5,0.5,3,0.75,4.5  c30.552-8.768,70.645-16.83,48.002-52.5c-7.491-11.801-22.539-15.982-25.125-31.5C424.38,437.16,442.037,431.032,444.918,423.14z"/>
<text transform="matrix(1 0 0 1 465.1611 457.6401)" font-family="'ArialMT'" font-size="36">C</text>
<text transform="matrix(1 0 0 1 484.6846 457.6401)" font-family="'ArialMT'" font-size="36">OOK</text>
<path fill-rule="evenodd" clip-rule="evenodd" fill="#90D8F8" stroke="#000000" stroke-width="2" stroke-linecap="square" stroke-miterlimit="10" d="  M384.916,421.64c33.846,5.445,45.492,33.598,15,54.75c-11.787,8.177-38.978,3.779-31.5,21.75c7.088,17.034,33.518,7.742,45.75,9.75  c-12.771,5.398-37.45,10.861-48-2.25c-16.341-20.31,5.452-20.876,18-27.75c10.412-5.704,29.271-11.968,30-27  C415.117,431.264,390.995,431.645,384.916,421.64z"/>
<path fill-rule="evenodd" clip-rule="evenodd" fill="#90D8F8" stroke="#000000" stroke-width="2" stroke-linecap="square" stroke-miterlimit="10" d="  M283.666,342.89c23.575,0,65.25-12.562,65.25,15c0,16.475,5.048,33.98,15,47.25c14.924,19.898,21,12.489,21,40.689  c0,34.688,0,69.374,0,104.061c-39.103-0.219-78.205-0.437-117.308-0.655c-33.093-0.185-16.942-57.729-16.942-85.243  c0-36.356,1.555-40.479,21.375-68.227C282.846,380.639,286.275,361.091,283.666,342.89z"/>
<path fill-rule="evenodd" clip-rule="evenodd" fill="#90D8F8" stroke="#000000" stroke-width="2" stroke-linecap="square" stroke-miterlimit="10" d="  M286.666,341.39c-9.679-58.739,66.453-62.155,58.5,0.75c19.896-18.064-5.362-55.191-30.75-53.25  C292.188,290.59,266.986,328.736,286.666,341.39z"/>
<path fill-rule="evenodd" clip-rule="evenodd" fill="#90D8F8" stroke="#000000" stroke-width="2" stroke-linecap="square" stroke-miterlimit="10" d="  M250.666,419.39c-30.582,9.81-23.697,36.958-4.125,54.75c35.753,32.503-7.585,45.358-38.625,52.5c0.25,1.25,0.5,2.5,0.75,3.75  c20.165-4.009,79.738-20.013,49.875-49.875c-7.617-7.617-25.227-18.31-25.875-31.125  C231.756,431.381,248.234,432.091,250.666,419.39z"/>
<text transform="matrix(1 0 0 1 270.1611 453.8901)" font-family="'ArialMT'" font-size="36">C</text>
<text transform="matrix(1 0 0 1 291.1846 453.8901)" font-family="'ArialMT'" font-size="36">OOK</text>
</svg>