<svg xmlns="http://www.w3.org/2000/svg" xmlns:xlink="http://www.w3.org/1999/xlink" version="1.1" id="Layer_1" x="0px" y="0px" enable-background="new 0 0 822.05 841.89" xml:space="preserve" viewBox="273.49 251.14 272.92 340.25">
<path fill-rule="evenodd" clip-rule="evenodd" fill="#90D8F8" stroke="#000000" stroke-width="2" stroke-linecap="square" stroke-miterlimit="10" d="  M503.236,424.64c40.784,4.918,59.19,42.149,22.125,68.625c-15.764,11.26-58.698,8.313-41.625,33.375  c13.552,19.893,41.547,3.26,57.75,9.75c-32.113,11.83-100.409-7.392-51.75-36.75c16.141-9.738,42.612-7.643,49.5-31.5  C548.932,434.559,506.221,442.995,503.236,424.64z"/>
<path fill-rule="evenodd" clip-rule="evenodd" fill="#90D8F8" stroke="#000000" stroke-width="2" stroke-linecap="square" stroke-miterlimit="10" d="  M371.986,322.64c28.25,0,56.5,0,84.75,0c-5.079,45.294,13.854,64.149,36.75,97.5c7.64,11.128,9.75,0.7,9.75,17.796  c0,17.819,0,35.638,0,53.456c0,33,0,65.999,0,98.998c-45.878-0.397-91.755-0.794-137.632-1.191  c-6.431-0.056-35.618,4.009-35.618-3.835c0-24.532,0-49.064,0-73.597c0-44.168-7.347-74.331,18.083-108.238  C365.524,380.256,378.072,352.474,371.986,322.64z"/>
<path fill-rule="evenodd" clip-rule="evenodd" fill="#90D8F8" stroke="#000000" stroke-width="2" stroke-linecap="square" stroke-miterlimit="10" d="  M376.486,321.14c-10.21-74.975,84.178-82.358,75,0.75c28.966-16.193-7.28-69.75-36.75-69.75  C382.633,252.14,350.209,316.201,376.486,321.14z"/>
<path fill-rule="evenodd" clip-rule="evenodd" fill="#90D8F8" stroke="#000000" stroke-width="2" stroke-linecap="square" stroke-miterlimit="10" d="  M329.236,421.64c-55.013,22.465-8.781,52.719,7.5,82.5c21.602,39.516-31.028,47.24-62.25,56.25c0.5,1.75,1,3.5,1.5,5.25  c31.842-9.176,91.859-20.927,66-63c-8.88-14.447-34.557-23.076-36-42.75C304.278,436.608,329.463,438.235,329.236,421.64z"/>
<text transform="matrix(1 0 0 1 355.5049 465.1167)" font-family="'ArialMT'" font-size="48">C</text>
<text transform="matrix(1 0 0 1 380.9814 465.1167)" font-family="'ArialMT'" font-size="48">OOK</text>
</svg>