<svg xmlns="http://www.w3.org/2000/svg" xmlns:xlink="http://www.w3.org/1999/xlink" version="1.1" id="Layer_1" x="0px" y="0px" enable-background="new 0 0 822.05 841.89" xml:space="preserve" viewBox="246.32 262.41 325.92 320.99">
<path fill-rule="evenodd" clip-rule="evenodd" fill="#D3D1D2" d="M561.752,445.901c-9.86-26.293-22.684-53.125-29.25-80.25  c-5.278-21.802,1.754-54.085-8.25-74.25c-7.539-15.196-28.502-30.013-45.75-18c-19.319,13.456-5.15,44.9,3,62.25  c-57.785-8.176-7.703,10.491,6.75,28.5c14.484,18.048,25.803,58.186,37.5,80.25c-17.633-8.816-55.85-38.393-75-35.556  c-37.461,5.55-57.243-6.874-94.889-11.856c-15.634-2.069-25.383,12.598-40.861,17.412c-12.55,3.904-30.59-0.996-41.625,5.625  c-38.525,23.115-23.055,80.499-22.629,118.013c0.484,42.649-6.901,44.362,36.615,44.362c7.972,0,15.858-73.929,17.889-85.5  c0.437,24.464-13.145,83.854,15.753,84.143c45.249,0.452,90.498,0.905,135.747,1.357c-7.312-33.904-47.364-120.245,16.89-104.538  c25.483,6.229,61.694,24.838,86.985,9.663C576.798,477.823,572.291,458.731,561.752,445.901z"/>
<path fill="none" stroke="#010101" stroke-width="2" stroke-linecap="square" stroke-miterlimit="10" d="M561.752,445.901  c-9.86-26.293-22.684-53.125-29.25-80.25c-5.278-21.802,1.754-54.085-8.25-74.25c-7.539-15.196-28.502-30.013-45.75-18  c-19.319,13.456-5.15,44.9,3,62.25c-57.785-8.176-7.703,10.491,6.75,28.5c14.484,18.048,25.803,58.186,37.5,80.25  c-17.633-8.816-55.85-38.393-75-35.556c-37.461,5.55-57.243-6.874-94.889-11.856c-15.634-2.069-25.383,12.598-40.861,17.412  c-12.55,3.904-30.59-0.996-41.625,5.625c-38.525,23.115-23.055,80.499-22.629,118.013c0.484,42.649-6.901,44.362,36.615,44.362  c7.972,0,15.858-73.929,17.889-85.5c0.437,24.464-13.145,83.854,15.753,84.143c45.249,0.452,90.498,0.905,135.747,1.357  c-7.312-33.904-47.364-120.245,16.89-104.538c25.483,6.229,61.694,24.838,86.985,9.663  C576.798,477.823,572.291,458.731,561.752,445.901z"/>
<path fill-rule="evenodd" clip-rule="evenodd" fill="#D3D1D2" stroke="#010101" stroke-width="2" stroke-linecap="square" stroke-miterlimit="10" d="  M318.752,354.401c8.281,16.47-5.798,26.383-16.875,10.875C290.772,349.729,308.252,336.99,318.752,354.401z"/>
<path fill-rule="evenodd" clip-rule="evenodd" fill="#D3D1D2" stroke="#010101" stroke-width="2" stroke-linecap="square" stroke-miterlimit="10" d="  M429.002,356.651c-5.932,15.713-19.5,13.5-19.5-3.375C409.502,333.691,434.877,333.492,429.002,356.651z"/>
<path fill-rule="evenodd" clip-rule="evenodd" fill="#D3D1D2" stroke="#010101" stroke-width="2" stroke-linecap="square" stroke-miterlimit="10" d="  M308.252,318.401c-13.937,85.781,96.963,134.816,111,30C431.041,260.367,325.236,225.478,308.252,318.401z"/>
<path fill-rule="evenodd" clip-rule="evenodd" fill="#E4BE9D" stroke="#010101" stroke-width="2" stroke-linecap="square" stroke-miterlimit="10" d="  M438.002,511.901c-14.339-27.712-13.64-59.956,25.5-40.5C440.449,470.329,432.767,492.542,438.002,511.901z"/>
<path fill-rule="evenodd" clip-rule="evenodd" stroke="#010101" stroke-linecap="square" stroke-miterlimit="10" d="  M440.252,487.901c3.551,9.102,7.794,17.841,12.75,26.25c-1.525-7.208,0.217-15.183-0.75-22.5c3,2,6,4,9,6  c-2.225-3.503-3.591-6.923-5.25-10.5c5.264,1.106,12.111,0.372,18,3c-5.315-3.233-9.697-7.996-15-11.25  c6.431,1.319,13.216,1.878,19.5,3.75C463.038,478.785,441.753,467.205,440.252,487.901z"/>
<path fill-rule="evenodd" clip-rule="evenodd" fill="#ED1C24" stroke="#010101" stroke-width="2" stroke-linecap="square" stroke-miterlimit="10" d="  M529.502,511.151c-14.75-2-29.5-4-44.25-6c1.75,14,3.5,28,5.25,42c3.913-5.421,12.228-7.574,16.5-12.75  c8.25,12.25,16.5,24.5,24.75,36.75c8-8.75,16-17.5,24-26.25c-12.25-6.5-24.5-13-36.75-19.5  C522.25,520.994,525.219,514.477,529.502,511.151z"/>
</svg>