<svg xmlns="http://www.w3.org/2000/svg" xmlns:xlink="http://www.w3.org/1999/xlink" version="1.1" id="Layer_1" x="0px" y="0px" enable-background="new 0 0 822.05 841.89" xml:space="preserve" viewBox="317.27 349.69 183.28 145.46">
<path fill-rule="evenodd" clip-rule="evenodd" fill="#D2D1D2" stroke="#000000" stroke-width="1.25" stroke-linecap="square" stroke-miterlimit="10" d="  M393.125,391.774C388.229,407.51,377.999,386.957,393.125,391.774L393.125,391.774z"/>
<path fill-rule="evenodd" clip-rule="evenodd" fill="#D2D1D2" stroke="#000000" stroke-width="1.25" stroke-linecap="square" stroke-miterlimit="10" d="  M443.375,392.524C429.4,399.727,435.531,377.584,443.375,392.524L443.375,392.524z"/>
<path fill-rule="evenodd" clip-rule="evenodd" fill="#D2D1D2" stroke="#000000" stroke-width="1.25" stroke-linecap="square" stroke-miterlimit="10" d="  M439.625,421.774c-17.65-16.541-29.286-9.984-48.375-1.5C348.287,439.369,441.091,469.228,439.625,421.774z"/>
<path fill-rule="evenodd" clip-rule="evenodd" fill="#D2D1D2" stroke="#000000" stroke-width="1.25" stroke-linecap="square" stroke-miterlimit="10" d="  M388.625,375.274c-8.238,48.36,59.922,57.866,51,1.5C434.498,344.383,392.809,339.269,388.625,375.274z"/>
<path fill-rule="evenodd" clip-rule="evenodd" fill="#FFFFFF" d="M473.375,427.774c1.95,6.925,3.804,13.804,6.75,20.25  C477.875,441.275,475.689,434.501,473.375,427.774z"/>
<path fill="none" stroke="#000000" stroke-width="1.25" stroke-linecap="square" stroke-miterlimit="10" d="M473.375,427.774  c1.532,6.94,3.851,13.905,6.75,20.25"/>
<path fill-rule="evenodd" clip-rule="evenodd" fill="#FB0F0C" d="M373.625,457.774c-36.039,45.769-54.129,22.58-47.25-27.75  c15.644-0.423,29.877-4.455,24.75,18c7.723-8.144,14.531-16.968,22.5-24.75C373.625,434.774,373.625,446.274,373.625,457.774z"/>
<path fill="none" stroke="#000000" stroke-width="1.25" stroke-linecap="square" stroke-miterlimit="10" d="M373.625,457.774  c-36.039,45.769-54.129,22.58-47.25-27.75c15.644-0.423,29.877-4.455,24.75,18c7.723-8.144,14.531-16.968,22.5-24.75"/>
<line fill="none" stroke="#000000" stroke-width="1.25" stroke-linecap="square" stroke-miterlimit="10" x1="351.125" y1="448.024" x2="350.375" y2="460.024"/>
<path fill-rule="evenodd" clip-rule="evenodd" fill="#D2D1D2" stroke="#000000" stroke-width="1.25" stroke-linecap="square" stroke-miterlimit="10" d="  M342.875,407.524c4.081-2.683,8.331-4.998,12.75-6.75c-11.167,18.324-16.99,53.106-34.125,13.125  C305.941,377.595,345.9,372.888,342.875,407.524z"/>
<path fill-rule="evenodd" clip-rule="evenodd" fill="#D2D1D2" stroke="#000000" stroke-width="1.25" stroke-linecap="square" stroke-miterlimit="10" d="  M465.875,382.774c-4.948-0.583-9.046-1.117-13.5,0c20.194,11.518,34.5,39.123,34.5-3.75  C486.875,341.322,447.2,351.652,465.875,382.774z"/>
<path fill-rule="evenodd" clip-rule="evenodd" fill="#D2D1D2" stroke="#000000" stroke-width="1.25" stroke-linecap="square" stroke-miterlimit="10" d="  M437.375,418.024c-6.98,18.575-36.762,20.964-43.5,0.75c-2.501-7.504-22.783,2.828-23.625,11.25  c-2.143,21.429,1.646,43.139,0.375,64.5c27.75,0,55.5,0,83.25,0C452.632,461.913,453.376,447.117,437.375,418.024z"/>
<path fill-rule="evenodd" clip-rule="evenodd" fill="#FB0F0C" d="M453.875,448.024c58.153,25.232,50.191-9.434,35.25-52.5  c-14.274,9.358-26.731,9.473-15.75,32.25c-11.756-4.023-23.813-7.324-36-9.75C442.875,428.024,448.375,438.024,453.875,448.024z"/>
<path fill="none" stroke="#000000" stroke-width="1.25" stroke-linecap="square" stroke-miterlimit="10" d="M453.875,448.024  c58.153,25.232,50.191-9.434,35.25-52.5c-14.274,9.358-26.731,9.473-15.75,32.25c-11.756-4.023-23.813-7.324-36-9.75"/>
</svg>