<svg xmlns="http://www.w3.org/2000/svg" xmlns:xlink="http://www.w3.org/1999/xlink" version="1.1" id="Layer_1" x="0px" y="0px" enable-background="new 0 0 822.05 841.89" xml:space="preserve" viewBox="343.22 370.35 135.57 99.08">
<path fill-rule="evenodd" clip-rule="evenodd" d="M343.25,409.39c0-38.089-2.337-34.5,34.806-34.5c14.581,0,90.019-10.215,99.444,0  c1.721,1.865,1.721,32.635,0,34.5c-3.199,3.467-30.366,0-34.806,0C409.546,409.39,376.398,409.39,343.25,409.39z M343.25,467.89  c0-38.089-2.337-34.5,34.806-34.5c14.581,0,90.019-10.216,99.444,0c1.721,1.865,1.721,32.635,0,34.5c-3.199,3.468-30.366,0-34.806,0  C409.546,467.89,376.398,467.89,343.25,467.89z"/>
</svg>