<svg xmlns="http://www.w3.org/2000/svg" xmlns:xlink="http://www.w3.org/1999/xlink" version="1.1" id="Layer_1" x="0px" y="0px" enable-background="new 0 0 822.05 841.89" xml:space="preserve" viewBox="309.9 343.39 199.35 157.71">
<path fill-rule="evenodd" clip-rule="evenodd" fill="#EED5B6" stroke="#000000" stroke-width="1.25" stroke-linecap="square" stroke-miterlimit="10" d="  M343.525,436.267c11.626-1.989,21.369-7.028,24.75-18c-1.132,0.974-1.882,2.224-2.25,3.75  c42.069-10.112,38.505,23.188,31.028,49.579C389.425,498.518,321.416,474.312,343.525,436.267z"/>
<path fill-rule="evenodd" clip-rule="evenodd" fill="#137827" stroke="#000000" stroke-width="1.25" stroke-linecap="square" stroke-miterlimit="10" d="  M339.025,468.517c-1.75,10-3.5,20-5.25,30c29.25,0,58.5,0,87.75,0c-1-9.25-2-18.5-3-27.75c3.156,23.355,1.924,33.815,30,27.75  c-5.429-20.86-13.026-71.555-44.25-67.5c-8.303,1.078-11.564,19.504-28.5,17.25c-18.507-2.463-17.678-21.219-36.75-15.75  c-22.682,6.504-24.524,47.286-28.5,66C336.77,506.658,335.117,488.06,339.025,468.517z"/>
<path fill-rule="evenodd" clip-rule="evenodd" fill="#EED5B6" stroke="#000000" stroke-width="1.25" stroke-linecap="square" stroke-miterlimit="10" d="  M351.025,406.267C354.961,431.543,326.613,399.646,351.025,406.267L351.025,406.267z"/>
<path fill-rule="evenodd" clip-rule="evenodd" fill="#EED5B6" stroke="#000000" stroke-width="1.25" stroke-linecap="square" stroke-miterlimit="10" d="  M414.775,388.267C403.052,412.887,400.294,363.542,414.775,388.267L414.775,388.267z"/>
<path fill-rule="evenodd" clip-rule="evenodd" fill="#EED5B6" stroke="#000000" stroke-width="1.25" stroke-linecap="square" stroke-miterlimit="10" d="  M340.525,388.267c4.236,46.887,69.055,60.559,68.25,6C407.946,338.054,333.111,335.047,340.525,388.267z"/>
<path fill-rule="evenodd" clip-rule="evenodd" fill="#FFFFFF" stroke="#000000" stroke-width="1.25" stroke-linecap="square" stroke-miterlimit="10" d="  M462.025,344.017c-34.956,0.227-70.384,39.974-26.25,58.5c-7.962,4.892-13.161,9.057-23.25,9c21.135,4.714,73.893-0.475,88.5-18  C524.363,365.518,488.972,344.235,462.025,344.017z"/>
<path fill-rule="evenodd" clip-rule="evenodd" fill="#392170" stroke="#000000" stroke-width="1.25" stroke-linecap="square" stroke-miterlimit="10" d="  M339.025,468.517c-2,10-4,20-6,30C335.518,490.008,337.316,478.283,339.025,468.517z"/>
<path fill-rule="evenodd" clip-rule="evenodd" fill="#63211C" stroke="#000000" stroke-linecap="square" stroke-miterlimit="10" d="  M400.525,401.767c-8.508,4.665-14.331,8.53-24.75,6C382.76,429.004,399.36,420.992,400.525,401.767z"/>
<path fill-rule="evenodd" clip-rule="evenodd" d="M457.525,387.517c6.12-18.452,18.113-28.676-8.25-29.25  C484.243,342.298,478.062,379.652,457.525,387.517z M461.275,400.267C457.155,391.333,462.884,391.193,461.275,400.267  L461.275,400.267z"/>
</svg>