<svg xmlns="http://www.w3.org/2000/svg" xmlns:xlink="http://www.w3.org/1999/xlink" version="1.1" id="Layer_1" x="0px" y="0px" enable-background="new 0 0 822.05 841.89" xml:space="preserve" viewBox="211.75 254.14 396.75 335.25">
<path fill-rule="evenodd" clip-rule="evenodd" fill="#226432" d="M218.5,416.14c31.012,32.878,94.717,37.729,134.556,55.917  c65.212,29.771,121.078,71.882,179.694,112.833c14.27-18.378-12.483-28.924-26.25-40.5c11.25,7,22.5,14,33.75,21  c12.557-16.284-25.808-33.847-38.25-43.5c19.318,10.947,47.498,40.881,57.75,7.5c-24.316-13.215-50.59-25.392-72.75-42  c11.291,6.106,69.847,44.526,76.027,36.444c15.869-20.751,25.864-46.774,40.973-68.694  c-60.427-28.932-118.627-57.625-174.138-95.106c-26.192-17.685-52.753-34.293-77.112-51.894c-20.275-14.65-30.681-33.409-49.5-48  c-3.915,12.049-10.427,7.269-17.25-1.5c0.997,6.11-2.427,13.901-2.25,18.75c-3.004-2.69-6.932-4.625-9.75-7.5  c2.645,6.402,1.618,11.552,5.25,18c-6.039-2.294-14.724-0.827-20.25-2.25c2,4.25,4,8.5,6,12.75c-4-0.75-8-1.5-12-2.25  c2.764,12.473,12.202,19.841,20.25,29.25c-14.834,1.862-29.532-5.901-43.5-10.5c1.731,18.28,22.32,37.994,36,49.5  c-17.609,2.376-34.362-4.932-48.75,8.25c5.276,1.525,9.709,6.034,15,7.5c-4.958,1.012-9.311,4.88-14.25,6  c27.032,11.479,4.483,14.963,9,27.75C224,414.64,221.25,415.39,218.5,416.14z"/>
<path fill-rule="evenodd" clip-rule="evenodd" fill="#010101" d="M218.5,416.14c1.441,11.652,26.877,25.14,37.5,21  c3.833,6.637,16.345,11.106,22.5,7.5c9.995,10.597,40.184,14.605,57.167,22.389c22.601,10.358,45.069,20.258,66.583,32.736  c45.726,26.521,87.966,59.326,131.25,89.625c23.196-20.943-8.953-34.142-24.75-47.25c-1.816,1.342-3.066,3.092-3.75,5.25  c12,7.25,24,14.5,36,21.75c19.736-20.54-21.507-38.056-36.75-50.25c-0.367,0.941-3.102,4.79-3.75,5.25  c30.967,15.59,44.268,40.329,63.75,3.75c-25.216-12.748-51.745-26.45-75-42c0.225-0.257,0.439-0.251,0.75,0c-2.5,0.5-4,2-4.5,4.5  c22.155,11.845,67.282,51.084,84.639,29.389c15.03-18.788,24.392-45.609,38.361-66.139c-45.432-20.825-92.354-41.253-135-67.5  c-35.979-22.144-79.756-70.876-119.25-78c0.867,0.272,2.277-1.49-0.75,0c3.393-1.672-0.051-1.122,2.25,0  c-15.558-18.755-35.33-36.711-54-54c-1,3.75-2,7.5-3,11.25c-3.765-4.567-11.05-6.82-15-11.25c-1.83,7.662-1.812,17.769,0,23.25  c-1.792-4.156-7.849-9.107-12-15c-2.278,10.303-0.558,19.678,5.25,22.5c-0.631,2.626-4.765,2.925,0.75,3.75  c-3.681,2.88,1.303-2.925-1.5,0.75c4.306-4.968-0.507-0.16,0,0c2.723-4.689,0.627,1.583,0-3c1.557,0.413,3.057,1.122,0,0  c4.732-0.641-0.178,1.22,2.25-1.5c-1,0.5-1,1,0,1.5c-10.027-7.093-26.589-8.879-18.75,8.25c-3.75-0.5-7.5-1-11.25-1.5  c3.88,10.451,5.801,13.678,10.5,15.75c0.791,5.306,7.018,11.223,12,18c-2.812-2.956,3.488,0.364-7.5-2.25  c-0.041-0.111-12.842-5.004-13.5-4.5c-29.486-28.551-26.24,21.384-3.75,16.5c-8.506,5.529-0.771,18.138,9.75,18  c0.424,1.43-0.964,2.672,2.25,6.75c-11.07-1.336-21.585,0.994-21.75,0c-13.705-0.474-32.333,9.663-12,18.75  c-4.25,1.75-8.5,3.5-12.75,5.25c6.266,6.822,14.752,11.326,23.25,12c-2.42,0.807-4.706,3.705-9,6c3.446,1.576,3.946,1.076,1.5-1.5  c-8.542,9.461-8.357,4.825-2.25,14.25c-1.951-0.874-1.807-1.823-12.75-1.5c5.439,5.084,12.474,5.133,22.5,0.75  c-3.516-1.72-16.059-8.808-10.5-6.75c-3.592,3.733,0.373,0.662,0,0c-1.941,2.206-1.316,0.513,0.75,1.5  c-0.579-1.053-1.329-1.053-2.25,0c3,0,3,0,0,0c3.664,0.223,1.309-0.568,0,0c10.017-1.986,15.802-8.505,12.75-19.5  c-2.447,0.105-3.447,1.105-3,3c0-2,0-2,0,0c0-1.75,0-2,0-0.75c0-1,0-1,0,0c-3.834-2.086-9.633-5.542-13.5-9  c0.707,8.518,10.862,2.466,19.5-3c-8.358-5.097-16.529-8.299-21.75-8.25c15.013-7.624,39.476-7.116,56.25-4.5  c-9.55-12.292-22.513-18.005-26.25-30.75c2,1,2,1,0,0c0.735,3.05,3.48-2.086,3.75-2.25c-10.111-2.922-18.017-14.059-21-20.25  c-0.374,2.643,1.05,1.22,1.5,3c0.177-0.677-0.073-1.177-0.75-1.5c7.209,6.095,33.105,16.656,47.25,11.25  c-5.168-11.946-20.873-28.012-25.5-28.5c5.628,1.855,12.213,0.892,18,2.25c-3.377-7.121-8.5-13.562-11.25-15.75  c1.87-0.724,2.634,0.293,3,0.75c-1.98,0.607-2.069-0.937-1.5,1.5c1-0.5,1-1,0-1.5c6.417,4.049,25.962,7.063,18,0.75  c-0.198-9.17-2.169-12.38-6-15.75c3.109,4.243,8.118,6.455,11.25,10.5c1.892-6.443,5.874-9.03,5.25-18  c10.766,10.322,8.233,4.735,15.75,1.5c13.577,14.796,36.062,39.618,45,42.75c5.479,6.109,5.411,4.956,10.5,5.25  c2.133,1.279,8.462,5.623,12.75,6c-3.229,9.118,73.027,60.594,87.75,61.5c14.99,25.892,114.529,73.27,143.25,74.25  c-19.748,10.49-25.608,44.524-40.125,63c-13.897,17.688-60.886-40.835-79.125-28.5c19.452,13.153,55.26,38.632,75,39.75  c-4.237,2.766-9.163,11.186-12.75,16.5c1.581-2.809-1.691,1.694-0.75-1.5c4.997,4.155,0.154-0.423,0,0  c3.361,1.861-0.215,3.287,2.25,0c-1.5-0.25-1.75,0.75-0.75,3c-0.47-2.242,0.03-3.242,1.5-3c-15.383-7.793-30.609-16.92-45.75-25.5  c-1,1.75-2,3.5-3,5.25c13.75,10.75,27.5,21.5,41.25,32.25c-1,1.5-2,3-3,4.5c-10-6.25-20-12.5-30-18.75c-1.25,1.75-2.5,3.5-3.75,5.25  c10.95,9.081,35.313,19.466,26.25,33.75c-63.553-45.203-123.966-84.015-192.778-119.917  c-34.925-18.222-90.681-16.046-117.722-47.333C219.812,416.23,215.686,420.673,218.5,416.14z"/>
<path fill-rule="evenodd" clip-rule="evenodd" fill="#010101" d="M264.25,367.39c16.622,11.602,49.2,15.573,69,18  c29.273,3.588,55.69,12.177,86.016,19.312c32.771,7.711,167.341,97.454,182.484,59.438c-85.102-31.125-167.199-58.93-245.25-104.25  c-1.217,1.624-2.217,3.374-3,5.25c45.337,18.418,91.286,35.571,135.99,55.44c19.888,8.839,112.415,50.853,117.51,31.56  c-112.732-50.555-239.136-91.198-339.75-156c-1.5,1.25-3,2.5-4.5,3.75c44.696,35.122,92.717,49.749,146.804,72.174  c63.637,26.384,126.29,55.005,189.196,83.076c-80.864-17.76-165.232-64.143-243-95.25C350.675,396.5,567.065,458.062,592,467.14  c-16.144,11.008-67.076-22.562-85.5-30.75c-30.694-13.642-61.492-30.983-94.125-39.375  C388.378,390.844,278.635,353.065,264.25,367.39z"/>
<path fill-rule="evenodd" clip-rule="evenodd" fill="#010101" d="M271.75,328.39c27.258,16.044,61.56,22.099,87,40.5  c1.25-1.5,2.5-3,3.75-4.5C348.438,353.248,280.097,320.938,271.75,328.39z"/>
<path fill-rule="evenodd" clip-rule="evenodd" fill="#010101" d="M231.25,383.14c28.714,2.344,56.091,8.259,84,10.875  c31.355,2.939,53.442,16.458,82.694,23.208c62.095,14.33,120.808,48.469,178.306,74.667c-0.75,1.75-1.5,3.5-2.25,5.25  c-41.679-18.811-82.769-39.142-124.5-57.75c-35.577-15.864-80.993-42.832-119.25-48.75c-0.5,1.75-1,3.5-1.5,5.25  c40.231,10.844,84.131,32.315,121.389,50.944c23.685,11.842,47.318,23.005,71.534,33.701c16.666,7.36,57.403,39.237,62.077,8.354  c-59.547-27.066-120.014-61.69-183.917-77.667C376.699,405.44,242.438,355.362,231.25,383.14z"/>
<path fill-rule="evenodd" clip-rule="evenodd" fill="#010101" d="M279.25,386.89c93.162,45.63,184.906,92.249,276.75,141  c-9.863,30.056-51.69-7.275-69.264-18.363c-27.831-17.56-54.957-35.497-84.38-50.209c-51.659-25.829-110.483-62.376-168.106-67.178  c-0.25,2-0.5,4-0.75,6c58.177,1.312,123.119,45.06,174.611,70.806c27.677,13.839,52.193,32.847,79.152,47.932  c18.229,10.198,36.456,20.397,54.685,30.597c12.075,6.756,16.577-11.828,23.052-21.834c-53.755-28.473-107.51-56.945-161.265-85.419  C381.441,428.413,296.014,374.762,279.25,386.89z"/>
<path fill-rule="evenodd" clip-rule="evenodd" fill="#010101" d="M224.5,416.14c70.176,21.69,129.772,47.386,189.752,90  c1.249-1.5,2.499-3,3.748-4.5C396.397,486.13,241.903,387.086,224.5,416.14z"/>
<path fill-rule="evenodd" clip-rule="evenodd" fill="#010101" d="M508.75,542.14C418.912,485.025,335.745,428.17,232,400.39  c-0.5,2-1,4-1.5,6c50.625,13.405,99.73,31.005,144.584,58.373C400.182,480.078,493.446,554.615,508.75,542.14z"/>
<path fill-rule="evenodd" clip-rule="evenodd" fill="#010101" d="M277,289.39c25.726,17.621,136.175,95.027,160.5,72.75  c-25.634-18.31-48.747-31.933-77.22-45.42c-21.812-10.332-57.347-37.334-76.53-39.33c18.786,12.861,42.837,20.564,63.75,30  c3.189-13.985-32.286-31.714-45-41.25c-1.25,1.5-2.5,3-3.75,4.5c9,6.75,18,13.5,27,20.25c-15.152-6.887-34.049-22.775-47.25-12.75  c51.239,31.224,106.338,53.854,155.25,88.5c1.354-1.483,2.104-3.233,2.25-5.25c-30.23-10.897-59.939-23.418-89.826-35.233  C326.601,318.418,290.536,281.758,277,289.39z"/>
<path fill-rule="evenodd" clip-rule="evenodd" fill="#282928" d="M244.75,338.89c26.159,16.688,42.001,27.541,72.396,31.782  c22.797,3.181,43.378,7.015,65.604,13.218c0.5-1.75,1-3.5,1.5-5.25c-24.888-7.353-48.238-11.34-73.824-15.084  C290.246,360.603,255.15,332.311,244.75,338.89z"/>
<path fill-rule="evenodd" clip-rule="evenodd" fill="#72441B" d="M384.25,480.64c4.067,6.797,2.942,11.819,12,13.5  c-16.336-14.729,5.163-44.531,15.752-57.75c7.268,7.313,11.304,16.075,11.998,26.25c4-0.75,8-1.5,12-2.25  c-9.436-16.297-21.916-31.289-9.375-47.25c10.063-12.808,17.052-29.492,34.125-32.25c-13.278-20.617-39.149,25.31-46.498,37.5  c-2.087-7.623-7.647-13.534-9.002-21.75c-3.25,1.75-6.5,3.5-9.75,5.25C423.212,425.644,390.792,453.058,384.25,480.64z"/>
<path fill-rule="evenodd" clip-rule="evenodd" fill="#010101" d="M384.25,480.64c-0.53,6.369-0.37,12.514,10.5,15.75  c-0.5-4-1-4-1.5,0c1.717-12.63,7.584-34.975,18.752-55.5c6.226,7.263,9.205,15.809,8.998,25.5c5.178,0.32,14.896-1.39,19.5-3.75  c-14.122-25.174-19.785-30.535-6.75-53.25c7.28-12.687,17.487-29.457,33.75-24c-1.407-2.526-4.986-12.573-8.25-10.125  c2.069-1.552-3.385-7.619-12-1.875c-13.373,8.915-24.595,25.616-32.998,39c-0.64-6.365-5.938-12.837-6.752-19.5  c-4.72,0.785-12.797,4.469-16.5,7.5c23.407,35.111-4.013,44.198-9.75,81c18.518-8.604,38.617-60.696,18.75-78.75  c1.25-0.5,2.5-1,3.75-1.5c1.653,8.596,6.638,14.729,10.502,22.5c5.414-8.223,9.788-15.004,9.748-20.25  c9.175-4.792,19.277-20.84,31.5-27c-1,0-1,0,0,0c-1.25,0-1,0,0.75,0c-4.067-1.179,1.735,2.176,2.25,6c2.139-0.697,3.139-2.197,3-4.5  c-16.844,0.985-25.904,18.289-35.333,30.861c-13.663,18.218-5.938,30.007,4.583,49.389c-1.5,0.5-3,1-4.5,1.5  c-0.239-11.065-6.329-20.822-14.248-28.5c-10.298,11.062-27.033,38.605-21.752,50.25c-2.054,4.232-3.004,5.357,4.5,15  c1.353-1.483,2.103-3.233,2.25-5.25c-4.823-4.054-5.5-5.345-9.75-11.25C385.033,482.938,387.757,481.496,384.25,480.64z"/>
<path fill-rule="evenodd" clip-rule="evenodd" fill="#589A46" d="M343.75,428.14c4.226,2.074,7.539,5.554,12,7.5  c0.5-1.25,1-2.5,1.5-3.75C352.75,430.64,348.25,429.39,343.75,428.14z"/>
<path fill-rule="evenodd" clip-rule="evenodd" fill="#2A2300" d="M349.75,432.64c1.75,1.5,3.5,3,5.25,4.5  C355.412,433.813,352.658,434.582,349.75,432.64z"/>
<path fill-rule="evenodd" clip-rule="evenodd" fill="#589A46" d="M312.25,354.64c3.5,3,7,6,10.5,9c0.75-1.75,1.5-3.5,2.25-5.25  C320.75,357.14,316.5,355.89,312.25,354.64z"/>
<path fill-rule="evenodd" clip-rule="evenodd" fill="#589A46" d="M311.5,305.89c3.75,2.5,7.5,5,11.25,7.5c0.5-1.25,1-2.5,1.5-3.75  C320,308.39,315.75,307.14,311.5,305.89z"/>
<path fill-rule="evenodd" clip-rule="evenodd" fill="#2A2300" d="M310.75,305.89c3.75,3,7.5,6,11.25,9  C320.385,311.086,315.039,308.899,310.75,305.89z"/>
<path fill-rule="evenodd" clip-rule="evenodd" fill="#589A46" d="M324.25,329.89c4.265,2.178,7.721,5.943,12,8.25  c0.5-1.5,1-3,1.5-4.5C333.25,332.39,328.75,331.14,324.25,329.89z"/>
<path fill-rule="evenodd" clip-rule="evenodd" fill="#2A2300" d="M333.25,336.64C336.305,338.817,337.367,339.574,333.25,336.64  L333.25,336.64z"/>
<path fill-rule="evenodd" clip-rule="evenodd" fill="#589A46" d="M344.5,321.64c4.148,2.308,6.96,6.137,11.25,8.25  c0.5-1.5,1-3,1.5-4.5C353,324.14,348.75,322.89,344.5,321.64z"/>
<path fill-rule="evenodd" clip-rule="evenodd" fill="#2A2300" d="M353.5,329.14C355.559,330.363,356.703,331.043,353.5,329.14  L353.5,329.14z"/>
<path fill-rule="evenodd" clip-rule="evenodd" fill="#589A46" d="M361.75,327.64c3.75,3,7.5,6,11.25,9c0.75-1.75,1.5-3.5,2.25-5.25  C370.75,330.14,366.25,328.89,361.75,327.64z"/>
<path fill-rule="evenodd" clip-rule="evenodd" fill="#589A46" d="M328.75,308.89c2.75,3.75,5.5,7.5,8.25,11.25  c1.25-1.5,2.5-3,3.75-4.5C336.75,313.39,332.75,311.14,328.75,308.89z"/>
<path fill-rule="evenodd" clip-rule="evenodd" fill="#589A46" d="M278.5,281.89c3.103,1.732,6.326,6.096,9.75,8.25  c0.75-1.75,1.5-3.5,2.25-5.25C287.462,284.262,281.344,283.319,278.5,281.89z"/>
<path fill-rule="evenodd" clip-rule="evenodd" fill="#2A2300" d="M277,281.89C281.994,284.095,278.247,282.44,277,281.89L277,281.89  z"/>
<path fill-rule="evenodd" clip-rule="evenodd" fill="#2A2300" d="M285.25,287.89C288.544,290.361,288.544,290.361,285.25,287.89  L285.25,287.89z M289.75,284.89C290.75,284.89,290.75,284.89,289.75,284.89L289.75,284.89z"/>
<path fill-rule="evenodd" clip-rule="evenodd" fill="#589A46" d="M287.5,307.39c3.75,3,7.5,6,11.25,9c0.75-1.75,1.5-3.5,2.25-5.25  C296.5,309.89,292,308.64,287.5,307.39z"/>
<path fill-rule="evenodd" clip-rule="evenodd" fill="#589A46" d="M294.25,274.39c4.51,2.328,6.955,5.983,12,7.5  c0.5-1.25,1-2.5,1.5-3.75C303.25,276.89,298.75,275.64,294.25,274.39z"/>
<path fill-rule="evenodd" clip-rule="evenodd" fill="#2A2300" d="M301.75,280.39C306.904,283.205,306.875,283.188,301.75,280.39  L301.75,280.39z"/>
<path fill-rule="evenodd" clip-rule="evenodd" fill="#589A46" d="M332.5,411.64c4.088,4.417,8.001,9.002,12,13.5  c1.25-2,2.5-4,3.75-6C343.097,416.4,337.791,414.072,332.5,411.64z"/>
<path fill-rule="evenodd" clip-rule="evenodd" fill="#2A2300" d="M332.5,411.64C338.265,414.111,338.265,414.111,332.5,411.64  L332.5,411.64z"/>
<path fill-rule="evenodd" clip-rule="evenodd" fill="#589A46" d="M292,341.89c3.924,4.564,8.001,9.001,12,13.5  c1.25-2.25,2.5-4.5,3.75-6.75C302.5,346.39,297.263,344.11,292,341.89z"/>
<path fill-rule="evenodd" clip-rule="evenodd" fill="#589A46" d="M307,313.39c3.457,4.836,8.045,9.051,12,13.5c1.25-2,2.5-4,3.75-6  C317.69,318.008,312.361,315.723,307,313.39z"/>
<path fill-rule="evenodd" clip-rule="evenodd" fill="#2A2300" d="M320.5,319.39C324.86,321.581,322.392,320.341,320.5,319.39  L320.5,319.39z"/>
<path fill-rule="evenodd" clip-rule="evenodd" fill="#589A46" d="M310,413.14c5.271,3.533,9.728,6.945,15.75,9  c0.5-1.75,1-3.5,1.5-5.25C321.5,415.64,315.74,414.434,310,413.14z"/>
<path fill-rule="evenodd" clip-rule="evenodd" fill="#2A2300" d="M319.75,419.89c1.75,1.5,3.5,3,5.25,4.5  C326.132,420.04,322.951,421.822,319.75,419.89z"/>
<path fill-rule="evenodd" clip-rule="evenodd" fill="#589A46" d="M273.25,421.39c4.907,3.448,9.766,6.853,15,9.75  c0.75-2,1.5-4,2.25-6C284.785,423.898,279.04,422.188,273.25,421.39z"/>
<path fill-rule="evenodd" clip-rule="evenodd" fill="#2A2300" d="M285.25,429.64C287.617,431.167,290.646,433.124,285.25,429.64  L285.25,429.64z"/>
<path fill-rule="evenodd" clip-rule="evenodd" fill="#589A46" d="M277,347.14c4.939,3.583,10.001,7.001,15,10.5  c0.75-2.25,1.5-4.5,2.25-6.75C288.5,349.64,282.762,348.333,277,347.14z"/>
<path fill-rule="evenodd" clip-rule="evenodd" fill="#589A46" d="M293.5,328.39c4.479,4.229,10.064,7.548,15,11.25  C310.629,329.652,303.605,330.961,293.5,328.39z"/>
<path fill-rule="evenodd" clip-rule="evenodd" fill="#2A2300" d="M307.75,331.39C310.654,335.696,310.255,335.104,307.75,331.39  L307.75,331.39z"/>
<path fill-rule="evenodd" clip-rule="evenodd" fill="#589A46" d="M273.25,317.89c4.919,3.851,10.002,7.501,15,11.25  C290.98,317.975,283.299,320.169,273.25,317.89z"/>
<path fill-rule="evenodd" clip-rule="evenodd" fill="#589A46" d="M254.5,337.39c4.918,3.797,9.521,7.503,15,10.5  c0.75-2.25,1.5-4.5,2.25-6.75C266.007,339.892,260.281,338.445,254.5,337.39z"/>
<path fill-rule="evenodd" clip-rule="evenodd" fill="#6D5A24" d="M262,343.39c2.5,1.5,5,3,7.5,4.5  C267,346.39,264.5,344.89,262,343.39z"/>
<path fill-rule="evenodd" clip-rule="evenodd" fill="#589A46" d="M286,402.64c4.864,3.672,10.136,6.858,15,10.5  c0.75-2.5,1.5-5,2.25-7.5C297.52,404.644,291.661,403.965,286,402.64z"/>
<path fill-rule="evenodd" clip-rule="evenodd" fill="#2A2300" d="M300.25,412.39C301.25,413.39,301.25,413.39,300.25,412.39  L300.25,412.39z"/>
<path fill-rule="evenodd" clip-rule="evenodd" fill="#589A46" d="M253.75,401.89c4.268,1.849,7.717,5.551,12,7.5  c0.5-1.75,1-3.5,1.5-5.25C262.75,403.39,258.25,402.64,253.75,401.89z"/>
<path fill-rule="evenodd" clip-rule="evenodd" fill="#2A2300" d="M263.5,408.64C267.86,410.831,265.392,409.591,263.5,408.64  L263.5,408.64z"/>
<path fill-rule="evenodd" clip-rule="evenodd" fill="#589A46" d="M296.5,429.64c2.5,2,5,4,7.5,6c0.5-1.25,1-2.5,1.5-3.75  C302.5,431.14,299.5,430.39,296.5,429.64z"/>
<path fill-rule="evenodd" clip-rule="evenodd" fill="#589A46" d="M230.5,418.39c4,2.75,8,5.5,12,8.25c0.25-1.5,0.5-3,0.75-4.5  C239,420.89,234.75,419.64,230.5,418.39z"/>
<path fill-rule="evenodd" clip-rule="evenodd" fill="#2A2300" d="M230.5,417.64c4.201,1.244,9.485,4.204,13.5,3  C239.5,419.64,235,418.64,230.5,417.64z"/>
<path fill-rule="evenodd" clip-rule="evenodd" fill="#589A46" d="M259,430.39c-4.5,0.25-9,0.5-13.5,0.75  C256.75,437.466,256.052,431.688,259,430.39z"/>
<path fill-rule="evenodd" clip-rule="evenodd" fill="#2A2300" d="M245.5,431.14c4.5,1.5,9,3,13.5,4.5  C254.968,433.596,250.153,432.542,245.5,431.14z"/>
<path fill-rule="evenodd" clip-rule="evenodd" fill="#589A46" d="M286.75,413.89c5.783,3.244,8.358,8.362,12.75,5.25  C295.508,416.568,290.672,415.954,286.75,413.89z"/>
<path fill-rule="evenodd" clip-rule="evenodd" fill="#2A2300" d="M290.5,414.64c3,1.5,6,3,9,4.5  C299.144,414.415,295.306,416.371,290.5,414.64z"/>
<path fill-rule="evenodd" clip-rule="evenodd" fill="#2A2300" d="M296.5,420.64C300.86,422.831,298.392,421.591,296.5,420.64  L296.5,420.64z"/>
<path fill-rule="evenodd" clip-rule="evenodd" fill="#589A46" d="M230.5,407.89c4.523,2.1,7.174,5.852,12,7.5c0.5-1.5,1-3,1.5-4.5  C239.5,409.89,235,408.89,230.5,407.89z"/>
<path fill-rule="evenodd" clip-rule="evenodd" fill="#2A2300" d="M239.5,414.64C242.812,416.444,244.04,417.113,239.5,414.64  L239.5,414.64z"/>
<path fill-rule="evenodd" clip-rule="evenodd" fill="#589A46" d="M250,412.39c3.75,2.75,7.5,5.5,11.25,8.25  c0.75-1.75,1.5-3.5,2.25-5.25C259,414.39,254.5,413.39,250,412.39z"/>
<path fill-rule="evenodd" clip-rule="evenodd" fill="#589A46" d="M235.75,323.89c3.951,3.013,4.455,7.018,9.75,9c0.5-2,1-4,1.5-6  C243.25,325.89,239.5,324.89,235.75,323.89z"/>
<path fill-rule="evenodd" clip-rule="evenodd" fill="#2A2300" d="M230.5,323.14c4.736,3.584,10.757,8.123,15,9.75  C240.794,328.664,235.209,326.17,230.5,323.14z"/>
<path fill-rule="evenodd" clip-rule="evenodd" fill="#589A46" d="M248.5,386.89c-5.808,0.979-11.545,3.012-17.25,4.5  c4.116,1.484,12.124,1.952,18,2.25C249,391.39,248.75,389.14,248.5,386.89z"/>
<path fill-rule="evenodd" clip-rule="evenodd" fill="#2A2300" d="M235.75,390.64C232.905,395.095,235.449,391.112,235.75,390.64  L235.75,390.64z"/>
<path fill-rule="evenodd" clip-rule="evenodd" fill="#2A2300" d="M236.5,392.14c4.25,0.75,8.5,1.5,12.75,2.25  C247.419,393.722,239.41,392.568,236.5,392.14z"/>
<path fill-rule="evenodd" clip-rule="evenodd" fill="#589A46" d="M260.5,390.64c4.788,4.2,8.332,8.109,14.25,10.5  c0.75-2,1.5-4,2.25-6C271.5,393.64,266.01,392.102,260.5,390.64z"/>
<path fill-rule="evenodd" clip-rule="evenodd" fill="#2A2300" d="M269.5,398.89C276.021,402.635,275.839,402.531,269.5,398.89  L269.5,398.89z"/>
<path fill-rule="evenodd" clip-rule="evenodd" fill="#589A46" d="M241.75,398.89c2.5,2,5,4,7.5,6c0.5-1.5,1-3,1.5-4.5  C247.931,399.511,244.38,399.961,241.75,398.89z"/>
<path fill-rule="evenodd" clip-rule="evenodd" fill="#2A2300" d="M239.5,396.64c3.229,1.336,4.642,3.536,9,3  C245.5,398.64,242.5,397.64,239.5,396.64z"/>
<path fill-rule="evenodd" clip-rule="evenodd" fill="#589A46" d="M325,431.14c7.28,3.87,11.491,8.3,16.5,4.5  C335.817,431.967,331.282,432.395,325,431.14z"/>
<path fill-rule="evenodd" clip-rule="evenodd" fill="#2A2300" d="M334,431.89c2.5,1.25,5,2.5,7.5,3.75  C342.59,429.736,338.479,433.171,334,431.89z"/>
<path fill-rule="evenodd" clip-rule="evenodd" fill="#2A2300" d="M334,436.39c2.25,1.25,4.5,2.5,6.75,3.75  C339.511,437.261,337.167,437.802,334,436.39z"/>
<path fill-rule="evenodd" clip-rule="evenodd" fill="#589A46" d="M310.75,436.39c5.19,3.42,11.039,6.021,16.5,9  c0.25-1.75,0.5-3.5,0.75-5.25C322.299,437.796,316.821,437.321,310.75,436.39z"/>
<path fill-rule="evenodd" clip-rule="evenodd" fill="#2A2300" d="M322,437.89C329.38,439.744,329.28,439.719,322,437.89L322,437.89z  "/>
<path fill-rule="evenodd" clip-rule="evenodd" fill="#589A46" d="M293.5,442.39c4,2.25,8,4.5,12,6.75c0.5-1.5,1-3,1.5-4.5  C302.655,443.641,297.696,443.738,293.5,442.39z"/>
<path fill-rule="evenodd" clip-rule="evenodd" fill="#2A2300" d="M304,443.89C308.515,444.457,307.596,444.341,304,443.89  L304,443.89z"/>
<path fill-rule="evenodd" clip-rule="evenodd" fill="#589A46" d="M261.25,431.89c4.629,3.833,11.2,6.109,16.5,9  c0.25-2.5,0.5-5,0.75-7.5C272.754,432.958,267.006,432.204,261.25,431.89z"/>
<path fill-rule="evenodd" clip-rule="evenodd" fill="#2A2300" d="M277.75,433.39C278.75,433.39,278.75,433.39,277.75,433.39  L277.75,433.39z"/>
<path fill-rule="evenodd" clip-rule="evenodd" fill="#589A46" d="M316.75,449.14c3.75,2.25,7.5,4.5,11.25,6.75  C326.367,449.882,322.004,451.475,316.75,449.14z"/>
<path fill-rule="evenodd" clip-rule="evenodd" fill="#2A2300" d="M319,449.14c4.834,1.353,6.722,5.145,9.75,1.5  C325.5,450.14,322.25,449.64,319,449.14z"/>
<path fill-rule="evenodd" clip-rule="evenodd" fill="#589A46" d="M306.25,400.39c3.972,4.479,8.516,8.516,12.75,12.75c1-2,2-4,3-6  C316.588,405.203,311.548,402.566,306.25,400.39z"/>
<path fill-rule="evenodd" clip-rule="evenodd" fill="#2A2300" d="M307.75,401.14c5.016,2.118,9.811,4.507,15,6  C317.75,405.14,312.733,403.181,307.75,401.14z"/>
<path fill-rule="evenodd" clip-rule="evenodd" fill="#589A46" d="M270.25,329.89c4.159,4.58,8.501,9.002,12.75,13.5  c1-2.25,2-4.5,3-6.75C280.75,334.39,275.509,332.118,270.25,329.89z"/>
<path fill-rule="evenodd" clip-rule="evenodd" fill="#589A46" d="M294.25,288.64c4.339,4.41,8.502,9.002,12.75,13.5  c0.75-1.75,1.5-3.5,2.25-5.25C304.486,293.604,299.29,291.307,294.25,288.64z"/>
<path fill-rule="evenodd" clip-rule="evenodd" fill="#2A2300" d="M298,290.14c3.75,2.25,7.5,4.5,11.25,6.75  C307.671,293.943,302.499,292.462,298,290.14z"/>
<path fill-rule="evenodd" clip-rule="evenodd" fill="#589A46" d="M272.5,386.14c4.176,4.566,8.501,9.001,12.75,13.5  c1.25-2.25,2.5-4.5,3.75-6.75C283.5,390.64,278.018,388.346,272.5,386.14z"/>
<path fill-rule="evenodd" clip-rule="evenodd" fill="#589A46" d="M261.25,302.14c4.475,3.977,8.515,8.515,12.75,12.75  c1.25-2,2.5-4,3.75-6C271.299,306.904,267.274,304.448,261.25,302.14z"/>
<path fill-rule="evenodd" clip-rule="evenodd" fill="#2A2300" d="M266.5,303.64c3.592,1.903,6.198,4.936,11.25,5.25  C274,307.14,270.25,305.39,266.5,303.64z"/>
<path fill-rule="evenodd" clip-rule="evenodd" fill="#589A46" d="M270.25,289.39c4.131,4.113,8.004,8.504,12,12.75  C286.794,291.675,279.01,292.769,270.25,289.39z"/>
<path fill-rule="evenodd" clip-rule="evenodd" fill="#2A2300" d="M269.5,288.64C273.682,290.439,274.756,290.901,269.5,288.64  L269.5,288.64z"/>
<path fill-rule="evenodd" clip-rule="evenodd" fill="#2A2300" d="M285.25,295.39C286.25,295.39,286.25,295.39,285.25,295.39  L285.25,295.39z"/>
<path fill-rule="evenodd" clip-rule="evenodd" fill="#589A46" d="M252.25,325.39c4.038,3.36,7.532,7.532,11.25,11.25c1-2,2-4,3-6  C262.365,329.701,256.842,327.748,252.25,325.39z"/>
<path fill-rule="evenodd" clip-rule="evenodd" fill="#2A2300" d="M250.75,323.89c5.073,2.469,9.763,5.613,15,6  C260.762,327.895,255.635,326.124,250.75,323.89z"/>
<path fill-rule="evenodd" clip-rule="evenodd" fill="#589A46" d="M249.25,368.14c-5.692,0.079-11.542,1.239-17.25,1.5  c4.541,3.002,11.931,4.675,17.25,6C249.25,373.14,249.25,370.64,249.25,368.14z"/>
<path fill-rule="evenodd" clip-rule="evenodd" fill="#2A2300" d="M249.25,368.14c-2.25,0.25-4.5,0.5-6.75,0.75  C244.756,368.727,246.999,368.405,249.25,368.14z"/>
<path fill-rule="evenodd" clip-rule="evenodd" fill="#589A46" d="M271.75,371.89c-5.718-0.021-11.548,1.004-17.25,1.5  c4.536,2.999,11.934,4.687,17.25,6C271.75,376.89,271.75,374.39,271.75,371.89z"/>
<path fill-rule="evenodd" clip-rule="evenodd" fill="#589A46" d="M285.25,375.64c-2.5,0.25-5,0.5-7.5,0.75  c5.961,1.95,11.895,4.591,18,6c0-1.5,0-3,0-4.5C292.339,377.495,288.52,376.827,285.25,375.64z"/>
<path fill-rule="evenodd" clip-rule="evenodd" fill="#2A2300" d="M295.75,374.89c-3.5,0.25-7,0.5-10.5,0.75  C292.315,379.527,293.924,375.415,295.75,374.89z"/>
<path fill-rule="evenodd" clip-rule="evenodd" fill="#589A46" d="M310.75,381.64c-3.5,0.25-7,0.5-10.5,0.75  C308.959,388.254,308.693,382.389,310.75,381.64z"/>
<path fill-rule="evenodd" clip-rule="evenodd" fill="#589A46" d="M331,385.39c-3.75,0.25-7.5,0.5-11.25,0.75  C328.264,391.568,328.577,386.247,331,385.39z"/>
<path fill-rule="evenodd" clip-rule="evenodd" fill="#2A2300" d="M328.75,389.14C332.275,389.731,331.366,389.579,328.75,389.14  L328.75,389.14z"/>
<path fill-rule="evenodd" clip-rule="evenodd" fill="#589A46" d="M249.25,345.64c3.161,2.025,5.858,4.986,9,6.75  C260.041,345.692,254.392,348.934,249.25,345.64z"/>
<path fill-rule="evenodd" clip-rule="evenodd" fill="#2A2300" d="M254.5,350.14C258.72,353.166,258.683,353.14,254.5,350.14  L254.5,350.14z"/>
<path fill-rule="evenodd" clip-rule="evenodd" fill="#589A46" d="M262.75,357.64c4.176,2.759,4.658,8.448,8.25,3  C268.25,359.64,265.5,358.64,262.75,357.64z"/>
<path fill-rule="evenodd" clip-rule="evenodd" fill="#2A2300" d="M261.25,356.89c2,2,4,4,6,6  C265.954,360.24,263.414,358.857,261.25,356.89z"/>
<path fill-rule="evenodd" clip-rule="evenodd" fill="#2A2300" d="M267.25,362.14C269.499,365.068,269.899,365.589,267.25,362.14  L267.25,362.14z"/>
<path fill-rule="evenodd" clip-rule="evenodd" fill="#589A46" d="M276.25,359.14c2.75,2.5,5.5,5,8.25,7.5  C284.216,361.804,280.486,362.279,276.25,359.14z"/>
<path fill-rule="evenodd" clip-rule="evenodd" fill="#6D5A24" d="M276.25,359.14c4.159,1.996,6.576,4.9,9.75,3.75  C282.75,361.64,279.5,360.39,276.25,359.14z"/>
<path fill-rule="evenodd" clip-rule="evenodd" fill="#589A46" d="M291.25,367.39c3.25,1.5,6.5,3,9.75,4.5  c0.25-1.25,0.5-2.5,0.75-3.75C298.239,367.336,294.675,368.078,291.25,367.39z"/>
<path fill-rule="evenodd" clip-rule="evenodd" fill="#6D5A24" d="M298,367.39C302.118,368.214,302.118,368.214,298,367.39  L298,367.39z"/>
<path fill-rule="evenodd" clip-rule="evenodd" fill="#589A46" d="M304.75,368.89c3.5,1.5,7,3,10.5,4.5  C313.822,367.752,310.171,370.392,304.75,368.89z"/>
<path fill-rule="evenodd" clip-rule="evenodd" fill="#6D5A24" d="M306.25,368.89c3,0.5,6,1,9,1.5  C313.26,368.027,310.281,369.227,306.25,368.89z"/>
<path fill-rule="evenodd" clip-rule="evenodd" fill="#589A46" d="M316,293.89C322.84,297.691,322.021,297.236,316,293.89L316,293.89  z"/>
<path fill-rule="evenodd" clip-rule="evenodd" fill="#2A2300" d="M316.75,293.89C322.873,295.29,323.045,295.329,316.75,293.89  L316.75,293.89z M310.75,293.89c3.5,1.5,7,3,10.5,4.5C318.186,293.629,315.265,295.319,310.75,293.89z"/>
<path fill-rule="evenodd" clip-rule="evenodd" fill="#589A46" d="M325.75,298.39c3.212,1.64,5.693,4.369,9,6  C334.091,299.208,330.259,300.692,325.75,298.39z"/>
<path fill-rule="evenodd" clip-rule="evenodd" fill="#2A2300" d="M331.75,302.89C334.551,305.483,335.759,306.601,331.75,302.89  L331.75,302.89z M329.5,299.14c2.669,1.097,4.389,2.701,6.75,2.25C334,300.64,331.75,299.89,329.5,299.14z"/>
<path fill-rule="evenodd" clip-rule="evenodd" fill="#589A46" d="M319,374.14c3.674,1.032,6.668,3.075,10.5,3.75  C328.078,371.915,324.608,375.716,319,374.14z"/>
<path fill-rule="evenodd" clip-rule="evenodd" fill="#2A2300" d="M325.75,377.14C330.595,379.103,330.299,378.983,325.75,377.14  L325.75,377.14z"/>
<path fill-rule="evenodd" clip-rule="evenodd" fill="#589A46" d="M331.75,356.14c1.75,2.5,3.5,5,5.25,7.5  c0.75-1.25,1.5-2.5,2.25-3.75C337.037,358.393,333.735,357.729,331.75,356.14z"/>
<path fill-rule="evenodd" clip-rule="evenodd" fill="#2A2300" d="M330.25,353.89C335.121,357.936,336.12,358.766,330.25,353.89  L330.25,353.89z"/>
<path fill-rule="evenodd" clip-rule="evenodd" fill="#589A46" d="M343,305.14c3.061,2.715,2.195,5.535,6.75,6.75  C350.087,306.917,346.424,308.178,343,305.14z"/>
<path fill-rule="evenodd" clip-rule="evenodd" fill="#2A2300" d="M349.75,308.89C351.342,310.482,351.342,310.482,349.75,308.89  L349.75,308.89z"/>
<path fill-rule="evenodd" clip-rule="evenodd" fill="#2A2300" d="M346,310.39C349.787,313.203,350.01,313.368,346,310.39L346,310.39  z M342.25,304.39C347.586,307.566,348.212,307.938,342.25,304.39L342.25,304.39z"/>
<path fill-rule="evenodd" clip-rule="evenodd" fill="#589A46" d="M307.75,267.64C311.844,272.647,311.834,272.635,307.75,267.64  L307.75,267.64z"/>
<path fill-rule="evenodd" clip-rule="evenodd" fill="#2A2300" d="M304.75,263.14c4.052,4.073,3.574,8.978,9,6  C310.75,267.14,307.75,265.14,304.75,263.14z"/>
<path fill-rule="evenodd" clip-rule="evenodd" fill="#2A2300" d="M310.75,272.14C310.75,273.14,310.75,273.14,310.75,272.14  L310.75,272.14z"/>
<path fill-rule="evenodd" clip-rule="evenodd" fill="#589A46" d="M342.25,331.39c2,3,4,6,6,9c1-1.25,2-2.5,3-3.75  C348.25,334.89,345.25,333.14,342.25,331.39z"/>
<path fill-rule="evenodd" clip-rule="evenodd" fill="#589A46" d="M316.75,284.14c2.515,2.435,1.906,5.253,6,4.5  C320.75,287.14,318.75,285.64,316.75,284.14z"/>
<path fill-rule="evenodd" clip-rule="evenodd" fill="#2A2300" d="M319,287.89C321.801,290.483,323.009,291.601,319,287.89  L319,287.89z M314.5,281.14c3.652,3.062,5.283,6.756,9,6C320.5,285.14,317.5,283.14,314.5,281.14z"/>
<path fill-rule="evenodd" clip-rule="evenodd" fill="#589A46" d="M246.25,384.64c5.809,1.004,11.541,3.011,17.25,4.5  C260.76,382.406,254.602,385.751,246.25,384.64z"/>
<path fill-rule="evenodd" clip-rule="evenodd" fill="#2A2300" d="M262.75,381.64c-5.765,0.563-11.506,1.501-17.25,2.25  C253.829,386.957,261.922,381.858,262.75,381.64z"/>
</svg>