<svg xmlns="http://www.w3.org/2000/svg" xmlns:xlink="http://www.w3.org/1999/xlink" version="1.1" id="Layer_1" x="0px" y="0px" enable-background="new 0 0 822.05 841.89" xml:space="preserve" viewBox="319.43 339.76 184.07 164.5">
<path fill-rule="evenodd" clip-rule="evenodd" fill="#636366" stroke="#000000" stroke-linecap="square" stroke-miterlimit="10" d="  M340.25,403.257c17.608,12.311,49.83-8.407,47.25-12C409.871,422.417,314.632,414.673,340.25,403.257z"/>
<path fill-rule="evenodd" clip-rule="evenodd" fill="#636366" stroke="#000000" stroke-linecap="square" stroke-miterlimit="10" d="  M329,404.007C321.793,420.211,312.834,395.433,329,404.007L329,404.007z"/>
<path fill-rule="evenodd" clip-rule="evenodd" fill="#636366" stroke="#000000" stroke-linecap="square" stroke-miterlimit="10" d="  M323.75,401.007c3.426,15.673,37.083-3.025,49.5-6.75c-0.706-4.542-4.617-12.143-7.5-15.75  C351.75,386.007,337.75,393.507,323.75,401.007z"/>
<path fill-rule="evenodd" clip-rule="evenodd" fill="#636366" stroke="#000000" stroke-linecap="square" stroke-miterlimit="10" d="  M358.25,377.757c-1.526,27.45,19.219,17.156,37.5,12c-4-9-8-18-12-27C375.25,367.757,366.75,372.757,358.25,377.757z"/>
<path fill-rule="evenodd" clip-rule="evenodd" fill="#636366" stroke="#000000" stroke-linecap="square" stroke-miterlimit="10" d="  M393.5,350.007c-31.03,8.863-9.731,57.715,21.75,39.75C408,376.507,400.75,363.257,393.5,350.007z"/>
<path fill-rule="evenodd" clip-rule="evenodd" fill="#636366" stroke="#000000" stroke-linecap="square" stroke-miterlimit="10" d="  M364.25,407.007c-0.647,7.522,2.06,16.48,3,24.002c12.061-2.322,9.247-14.678,5.25-26.252  C369.75,405.507,367,406.257,364.25,407.007z"/>
<path fill-rule="evenodd" clip-rule="evenodd" fill="#E4E4E9" stroke="#000000" stroke-linecap="square" stroke-miterlimit="10" d="  M416,364.257c12.599,20.482-8.033,36.434-19.875,12.75C384,352.758,405.023,337.798,416,364.257z"/>
<path fill-rule="evenodd" clip-rule="evenodd" fill="#636366" stroke="#000000" stroke-linecap="square" stroke-miterlimit="10" d="  M376.25,436.259c-0.25,22-0.5,44-0.75,66c-2,0-4,0-6,0c-1-23.25-2-46.5-3-69.75C369.75,433.759,373,435.009,376.25,436.259z"/>
<path fill-rule="evenodd" clip-rule="evenodd" fill="#636366" stroke="#000000" stroke-linecap="square" stroke-miterlimit="10" d="  M367.25,431.759c-12,24-24,48-36,72c18.448-0.807,31.821-46.233,40.5-63c11.532,17.193,28.027,56.771,47.25,61.5  C408.985,485.392,387.364,428.097,367.25,431.759z"/>
<path fill-rule="evenodd" clip-rule="evenodd" fill="#F7F619" stroke="#000000" stroke-linecap="square" stroke-miterlimit="10" d="  M455,340.257c7.296,7.223,4.621,14.037,18,12.75c-6.116,11.674-5.217,7.978-6.75,21c-13.37-2.692-8.627-2.76-21.75,0  c-1.538-13.064-0.381-9.299-6.75-21C451.247,354.432,448.124,347.644,455,340.257z"/>
<path fill-rule="evenodd" clip-rule="evenodd" fill="#F7F619" stroke="#000000" stroke-linecap="square" stroke-miterlimit="10" d="  M433.25,415.257c6.771,7.477,3.838,14.168,17.25,12.752c-5.2,10.568-4.752,9.468-6.75,21c-11.679-1.787-9.863-1.762-21.75,0  c-1.536-13.046-0.502-9.31-6.75-21C428.63,429.296,425.954,422.482,433.25,415.257z"/>
<path fill-rule="evenodd" clip-rule="evenodd" fill="#F7F619" stroke="#000000" stroke-linecap="square" stroke-miterlimit="10" d="  M485.75,385.257c6.771,7.517,3.987,14.028,17.25,13.5c-6.834,11.537-5.14,7.018-6.75,20.25c-11.665-1.786-9.887-1.727-21.75,0  c-1.606-13.204-0.186-8.718-6.75-20.25C480.879,399.146,478.564,392.602,485.75,385.257z"/>
</svg>