<svg xmlns="http://www.w3.org/2000/svg" xmlns:xlink="http://www.w3.org/1999/xlink" version="1.1" id="Layer_1" x="0px" y="0px" enable-background="new 0 0 822.05 841.89" xml:space="preserve" viewBox="311.15 339.55 201.47 166.7">
<path fill-rule="evenodd" clip-rule="evenodd" fill="#3E3A3A" d="M429.271,457.792C463.274,484.694,441.067,420.757,429.271,457.792  L429.271,457.792z"/>
<path fill="none" stroke="#000000" stroke-width="0.5" stroke-linecap="square" stroke-miterlimit="10" d="M429.271,457.792  c32.719,25.885,14.493-35.727-0.75,0"/>
<path fill-rule="evenodd" clip-rule="evenodd" fill="#3E3A3A" stroke="#000000" stroke-width="0.5" stroke-linecap="square" stroke-miterlimit="10" d="  M397.769,490.042C402.968,538.714,425.044,457.372,397.769,490.042L397.769,490.042z"/>
<path fill-rule="evenodd" clip-rule="evenodd" fill="#A09F9F" stroke="#000000" stroke-width="0.5" stroke-linecap="square" stroke-miterlimit="10" d="  M340.019,436.792c-22.752-21.585-46.478-37.351-9-59.25c16.427-9.599,16.717-13.009,31,2.861  C381.113,401.62,356.068,416.107,340.019,436.792z"/>
<path fill-rule="evenodd" clip-rule="evenodd" fill="#3E3A3A" stroke="#000000" stroke-width="0.5" stroke-linecap="square" stroke-miterlimit="10" d="  M363.269,466.792c2.704,0.158,2.852,7.503,9-0.75C368.288,464.745,366.558,466.985,363.269,466.792z"/>
<path fill-rule="evenodd" clip-rule="evenodd" fill="#3E3A3A" stroke="#000000" stroke-width="0.5" stroke-linecap="square" stroke-miterlimit="10" d="  M358.769,472.792C376.728,498.671,376.751,451.868,358.769,472.792L358.769,472.792z"/>
<path fill-rule="evenodd" clip-rule="evenodd" fill="#FFFFFF" stroke="#000000" stroke-width="0.5" stroke-linecap="square" stroke-miterlimit="10" d="  M397.019,490.792C396.811,489.765,397.506,493.202,397.019,490.792L397.019,490.792z M390.269,393.292  c-22.93-7.585-50.813,15.87-54,38.25c-2.618,18.384,13.628,29.173,21.75,43.5c1.872-1.323,8.542-6.965,9.75-8.25  c-3.434-5.364-2.341-9.304-6.75-14.25c14.857,5.449,21.257,33.696,33.75,36.75c27.599,6.745,2.769-29.507,0-39.75  c13.606-2.097,51.492,22.106,40.502-5.25c-1.957-4.871-23.802-16.161-29.627-18.75C385.445,416.565,411.634,399.354,390.269,393.292  z"/>
<path fill="none" stroke="#000000" stroke-width="0.5" stroke-linecap="square" stroke-miterlimit="10" d="M444.271,451.042  c-3.288,0.678-4.902,3.249-4.5,6.75"/>
<path fill="none" stroke="#000000" stroke-width="0.5" stroke-linecap="square" stroke-miterlimit="10" d="M400.769,496.792  c1.169-2.628,3.274-4.517,6-5.25"/>
<path fill-rule="evenodd" clip-rule="evenodd" fill="#FFFFFF" d="M354.269,433.042c2.56,6.639,5.593,12.453,6.75,19.5  C358.769,446.043,356.43,439.571,354.269,433.042z"/>
<path fill="none" stroke="#000000" stroke-width="0.5" stroke-linecap="square" stroke-miterlimit="10" d="M354.269,433.042  c3.316,6.059,5.644,12.762,6.75,19.5"/>
<path fill-rule="evenodd" clip-rule="evenodd" fill="#FFFFFF" d="M388.019,400.042c-3.735,5.41-7.618,7.952-8.25,15  C382.519,410.042,385.298,405.058,388.019,400.042z"/>
<path fill="none" stroke="#000000" stroke-width="0.5" stroke-linecap="square" stroke-miterlimit="10" d="M388.019,400.042  c-4.813,3.838-7.722,9.113-8.25,15"/>
<path fill-rule="evenodd" clip-rule="evenodd" fill="#FFFFFF" d="M383.519,447.292c3.973-0.122,7.428,0.077,10.5,2.25  c0.908-2.815,0.771-2.845,0.75-5.25C391.019,445.292,387.269,446.292,383.519,447.292z"/>
<path fill="none" stroke="#000000" stroke-width="0.5" stroke-linecap="square" stroke-miterlimit="10" d="M383.519,447.292  c6.375,2.156,11.302,2.738,11.25-3"/>
<path fill-rule="evenodd" clip-rule="evenodd" fill="#FFFFFF" d="M394.019,467.542C400.306,466.283,400.998,466.144,394.019,467.542  L394.019,467.542z"/>
<path fill="none" stroke="#000000" stroke-width="0.5" stroke-linecap="square" stroke-miterlimit="10" d="M394.019,467.542  c2.131,0.2,4.201-0.324,6-1.5"/>
<path fill-rule="evenodd" clip-rule="evenodd" fill="#FFFFFF" d="M378.269,466.042c1.906-2.537,2.251-4.605,5.25-6  C381.769,462.042,380.019,464.042,378.269,466.042z"/>
<path fill="none" stroke="#000000" stroke-width="0.5" stroke-linecap="square" stroke-miterlimit="10" d="M378.269,466.042  c0.885-2.707,2.721-4.824,5.25-6"/>
<path fill-rule="evenodd" clip-rule="evenodd" fill="#FFFFFF" d="M383.519,472.792c2.26-2.029,4.38-4.114,6.75-6  C388.019,468.792,385.769,470.792,383.519,472.792z"/>
<path fill="none" stroke="#000000" stroke-width="0.5" stroke-linecap="square" stroke-miterlimit="10" d="M383.519,472.792  c2.161-2.142,4.385-4.118,6.75-6"/>
<path fill-rule="evenodd" clip-rule="evenodd" fill="#FFFFFF" d="M388.769,483.292c7.131-2.381,11.332,0.204,15-8.25  C398.769,477.792,393.74,480.492,388.769,483.292z"/>
<path fill="none" stroke="#000000" stroke-width="0.5" stroke-linecap="square" stroke-miterlimit="10" d="M388.769,483.292  c6.943,0.822,12.265-1.947,15-8.25"/>
<path fill-rule="evenodd" clip-rule="evenodd" fill="#FFFFFF" d="M421.021,455.542c5.462-4.23,9.797-4.341,12-12  C429.021,447.542,425.015,451.537,421.021,455.542z"/>
<path fill="none" stroke="#000000" stroke-width="0.5" stroke-linecap="square" stroke-miterlimit="10" d="M421.021,455.542  c6.144-1.856,10.258-5.944,12-12"/>
<path fill-rule="evenodd" clip-rule="evenodd" fill="#A09F9F" stroke="#000000" stroke-width="0.5" stroke-linecap="square" stroke-miterlimit="10" d="  M360.269,421.792c-1.04,6.679-5.97,9.015,5.25,15c4.602-2.74,11.734-10.27,14.25-15c-3.5-3.25-7-6.5-10.5-9.75  C366.269,415.292,363.269,418.542,360.269,421.792z"/>
<path fill-rule="evenodd" clip-rule="evenodd" fill="#3E3A3A" stroke="#000000" stroke-width="0.5" stroke-linecap="square" stroke-miterlimit="10" d="  M376.769,416.542c-0.75-0.517-4.311,7.043,8.25,0.75C381.615,413.789,379.757,418.081,376.769,416.542z"/>
<path fill-rule="evenodd" clip-rule="evenodd" fill="#3E3A3A" stroke="#000000" stroke-width="0.5" stroke-linecap="square" stroke-miterlimit="10" d="  M379.769,415.042C366.631,443.658,409.484,416.621,379.769,415.042L379.769,415.042z"/>
<path fill-rule="evenodd" clip-rule="evenodd" fill="#3E3A3A" stroke="#000000" stroke-width="0.5" stroke-linecap="square" stroke-miterlimit="10" d="  M370.019,423.292c-3.342-0.822-4.621,6.924-9-2.25c1-1,2-2,3-3C366.019,419.792,368.019,421.542,370.019,423.292z"/>
<path fill-rule="evenodd" clip-rule="evenodd" fill="#3E3A3A" stroke="#000000" stroke-width="0.5" stroke-linecap="square" stroke-miterlimit="10" d="  M372.269,416.542C368.975,416.542,368.975,416.542,372.269,416.542L372.269,416.542z"/>
<path fill-rule="evenodd" clip-rule="evenodd" fill="#3E3A3A" stroke="#000000" stroke-width="0.5" stroke-linecap="square" stroke-miterlimit="10" d="  M375.269,420.292C372.827,419.725,373.089,419.786,375.269,420.292L375.269,420.292z"/>
<path fill="none" stroke="#000000" stroke-width="0.5" stroke-linecap="square" stroke-miterlimit="10" d="M403.019,447.292  c0.476-3.683,2.321-7.012,5.25-9"/>
<path fill="none" stroke="#000000" stroke-width="0.5" stroke-linecap="square" stroke-miterlimit="10" d="M426.271,439.792  c-2.643,0.843-4.586,2.778-5.25,5.25"/>
<path fill="none" stroke="#000000" stroke-width="0.5" stroke-linecap="square" stroke-miterlimit="10" d="M403.019,424.042  c-2.347,1.365-4.34,3.633-5.25,6"/>
<path fill="none" stroke="#000000" stroke-width="0.5" stroke-linecap="square" stroke-miterlimit="10" d="M370.769,457.042  c0.97-2.576,2.746-4.45,5.25-5.25"/>
<path fill-rule="evenodd" clip-rule="evenodd" fill="#FFFFFF" d="M352.019,465.292c3.94-2.401,5.727-5.021,10.5-5.25  C359.019,461.792,355.519,463.542,352.019,465.292z"/>
<path fill="none" stroke="#000000" stroke-width="0.5" stroke-linecap="square" stroke-miterlimit="10" d="M352.019,465.292  c2.792-3.15,6.489-5.058,10.5-5.25"/>
<path fill-rule="evenodd" clip-rule="evenodd" fill="#FFFFFF" d="M381.269,409.792c3.221,0.073,5.871-0.774,9,0.75  C387.269,410.292,384.269,410.042,381.269,409.792z"/>
<path fill="none" stroke="#000000" stroke-width="0.5" stroke-linecap="square" stroke-miterlimit="10" d="M381.269,409.792  c3.022-0.894,6.198-0.615,9,0.75"/>
<path fill-rule="evenodd" clip-rule="evenodd" fill="#FFFFFF" d="M394.769,412.792C391.103,417.763,390.813,418.155,394.769,412.792  L394.769,412.792z"/>
<path fill="none" stroke="#000000" stroke-width="0.5" stroke-linecap="square" stroke-miterlimit="10" d="M394.769,412.792  c-0.772,1.945-2.056,3.525-3.75,4.5"/>
<path fill-rule="evenodd" clip-rule="evenodd" fill="#FFFFFF" stroke="#000000" stroke-width="0.5" stroke-linecap="square" stroke-miterlimit="10" d="  M345.269,421.792c1.257,9.451-7.267,28.061-17.625,14.25c-2.178-2.903-11.625-36.86-11.625-15c0,35.904,44.297,30.863,36-2.25  C346.618,417.312,347.851,420.936,345.269,421.792z"/>
<path fill-rule="evenodd" clip-rule="evenodd" fill="#FFFFFF" stroke="#000000" stroke-width="0.5" stroke-linecap="square" stroke-miterlimit="10" d="  M358.769,384.292c19.062,21.792-11.339,52.074-31.5,30.75C307.502,394.136,338.161,365.021,358.769,384.292z"/>
<path fill-rule="evenodd" clip-rule="evenodd" fill="#574D48" d="M346.019,393.292c4.293,10.239-6.867,12.117-15.75,21  C356.031,437.422,372.474,381.635,346.019,393.292z"/>
<path fill-rule="evenodd" clip-rule="evenodd" fill="#2F2D2E" d="M336.269,393.292c-4.106,7.16-7.381,11.624-4.5,20.25  c13.486-13.035,14.735-28.296,30-18C355.966,385.065,345.125,385.331,336.269,393.292z"/>
<path fill-rule="evenodd" clip-rule="evenodd" fill="#FFFFFF" d="M346.019,403.042C343.122,401.993,339.325,400.617,346.019,403.042  L346.019,403.042z"/>
<path fill-rule="evenodd" clip-rule="evenodd" fill="#FFFFFF" d="M337.769,409.042C335.327,408.475,335.589,408.536,337.769,409.042  L337.769,409.042z"/>
<path fill-rule="evenodd" clip-rule="evenodd" fill="#FFFFFF" d="M346.769,391.792C345.122,391.792,345.122,391.792,346.769,391.792  L346.769,391.792z"/>
<path fill-rule="evenodd" clip-rule="evenodd" fill="#FFFFFF" d="M349.769,389.542C348.122,389.542,348.122,389.542,349.769,389.542  L349.769,389.542z"/>
<path fill-rule="evenodd" clip-rule="evenodd" fill="#3E3A3A" d="M444.271,432.292C437.694,458.97,460.33,442.36,444.271,432.292  L444.271,432.292z"/>
<path fill="none" stroke="#000000" stroke-width="0.25" stroke-linecap="square" stroke-miterlimit="10" d="M444.271,432.292  c-6.192,25.122,15.251,12.598,0-0.75"/>
<path fill-rule="evenodd" clip-rule="evenodd" fill="#3E3A3A" stroke="#000000" stroke-width="0.25" stroke-linecap="square" stroke-miterlimit="10" d="  M421.021,406.792c-4.354,1.092-7.27,3.533-12.002,3.75C412.614,423.722,429.416,421.73,421.021,406.792z"/>
<path fill-rule="evenodd" clip-rule="evenodd" fill="#A09F9F" stroke="#000000" stroke-width="0.25" stroke-linecap="square" stroke-miterlimit="10" d="  M460.021,362.542c14.876-15.939,29.379-37.843,45.75-8.25c4.37,7.9,10.751,11.41,3.277,19.417  C489.215,394.959,481.944,378.748,460.021,362.542z"/>
<path fill-rule="evenodd" clip-rule="evenodd" fill="#3E3A3A" stroke="#000000" stroke-width="0.25" stroke-linecap="square" stroke-miterlimit="10" d="  M437.521,381.292c0.222,2.357-3.907,4.574,1.5,7.5c-0.25-0.75,0-1,0.75-0.75C439.324,385.323,437.761,383.849,437.521,381.292z"/>
<path fill-rule="evenodd" clip-rule="evenodd" fill="#3E3A3A" stroke="#000000" stroke-width="0.25" stroke-linecap="square" stroke-miterlimit="10" d="  M433.021,377.542C420.008,391.121,439.794,392.036,433.021,377.542L433.021,377.542z"/>
<path fill-rule="evenodd" clip-rule="evenodd" fill="#FFFFFF" stroke="#000000" stroke-width="0.25" stroke-linecap="square" stroke-miterlimit="10" d="  M419.517,407.542C418.517,408.542,418.517,408.542,419.517,407.542L419.517,407.542z M493.771,401.542  c6.604-17.124-12.159-39.831-29.25-41.25c-13.682-1.136-23.88,9.315-33.75,17.25c2.856,1.391,5.145,6.023,6.75,7.5  c4.728-2.852,5.237-2.557,10.5-5.25c-3.723,9.392-29.737,22.653-28.504,31.5c1.901,13.639,25.066-3.176,31.504-6  c1.589,13.272-13.774,25.775,0.75,36c5.062-7.019,10.527-19.513,16.5-24.75C479.634,406.579,487.41,412.184,493.771,401.542z"/>
<path fill="none" stroke="#000000" stroke-width="0.25" stroke-linecap="square" stroke-miterlimit="10" d="M450.271,442.792  c-0.804-2.289-2.745-3.363-5.25-3"/>
<path fill="none" stroke="#000000" stroke-width="0.25" stroke-linecap="square" stroke-miterlimit="10" d="M415.767,410.542  c1.923,1.091,3.121,2.461,3.75,4.5"/>
<path fill-rule="evenodd" clip-rule="evenodd" fill="#FFFFFF" d="M463.021,373.792c-5.087,1.98-9.659,4.285-15,5.25  C453.019,377.293,458.054,375.628,463.021,373.792z"/>
<path fill="none" stroke="#000000" stroke-width="0.25" stroke-linecap="square" stroke-miterlimit="10" d="M463.021,373.792  c-4.679,2.501-9.864,4.322-15,5.25"/>
<path fill-rule="evenodd" clip-rule="evenodd" fill="#FFFFFF" d="M489.271,399.292c-4.249-3.01-6.203-6.45-12-6.75  C481.271,394.792,485.271,397.042,489.271,399.292z"/>
<path fill="none" stroke="#000000" stroke-width="0.25" stroke-linecap="square" stroke-miterlimit="10" d="M489.271,399.292  c-2.857-4.067-7.177-6.5-12-6.75"/>
<path fill-rule="evenodd" clip-rule="evenodd" fill="#FFFFFF" d="M452.521,396.292c0.143,3.166,0.185,5.593-1.5,8.25  c1,0.5,2,1,3,1.5C454.459,403.011,452.676,399.739,452.521,396.292z"/>
<path fill="none" stroke="#000000" stroke-width="0.25" stroke-linecap="square" stroke-miterlimit="10" d="M452.521,396.292  c-1.451,4.954-1.808,8.802,2.25,9"/>
<path fill-rule="evenodd" clip-rule="evenodd" fill="#FFFFFF" d="M436.771,405.292C437.22,409.864,437.284,410.516,436.771,405.292  L436.771,405.292z"/>
<path fill="none" stroke="#000000" stroke-width="0.25" stroke-linecap="square" stroke-miterlimit="10" d="M436.771,405.292  c-0.327,1.617-0.079,3.14,0.75,4.5"/>
<path fill-rule="evenodd" clip-rule="evenodd" fill="#FFFFFF" d="M438.271,393.292C443.127,396.797,443.927,397.375,438.271,393.292  L438.271,393.292z"/>
<path fill="none" stroke="#000000" stroke-width="0.25" stroke-linecap="square" stroke-miterlimit="10" d="M438.271,393.292  c2.249,0.524,3.715,1.813,4.5,3.75"/>
<path fill-rule="evenodd" clip-rule="evenodd" fill="#FFFFFF" d="M433.021,397.042c1.602,1.84,3,3.544,4.5,5.25  C436.021,400.542,434.521,398.792,433.021,397.042z"/>
<path fill="none" stroke="#000000" stroke-width="0.25" stroke-linecap="square" stroke-miterlimit="10" d="M433.021,397.042  c1.572,1.878,2.995,3.539,4.5,5.25"/>
<path fill-rule="evenodd" clip-rule="evenodd" fill="#FFFFFF" d="M424.771,400.792c2.084,5.828,0.283,9.408,6.75,12  C429.271,408.792,427.021,404.792,424.771,400.792z"/>
<path fill="none" stroke="#000000" stroke-width="0.25" stroke-linecap="square" stroke-miterlimit="10" d="M424.771,400.792  c-0.36,5.77,1.975,10.086,6.75,12"/>
<path fill-rule="evenodd" clip-rule="evenodd" fill="#FFFFFF" d="M447.271,425.542c3.34,4.387,3.615,7.455,9,9.75  C453.271,432.042,450.271,428.792,447.271,425.542z"/>
<path fill="none" stroke="#000000" stroke-width="0.25" stroke-linecap="square" stroke-miterlimit="10" d="M447.271,425.542  c1.668,4.591,4.659,7.899,9,9.75"/>
<path fill-rule="evenodd" clip-rule="evenodd" fill="#A09F9F" stroke="#000000" stroke-width="0.25" stroke-linecap="square" stroke-miterlimit="10" d="  M472.021,378.292c-4.67-0.103-6.892-3.725-11.25,4.5c3.468,3.523,7.169,7.733,11.25,10.5c2.5-2.75,5-5.5,7.5-8.25  C477.021,382.792,474.521,380.542,472.021,378.292z"/>
<path fill-rule="evenodd" clip-rule="evenodd" fill="#3E3A3A" stroke="#000000" stroke-width="0.25" stroke-linecap="square" stroke-miterlimit="10" d="  M477.271,391.042c-0.091,0.094-5.584-4.565-1.5,6C478.713,395.074,476.037,392.328,477.271,391.042z"/>
<path fill-rule="evenodd" clip-rule="evenodd" fill="#3E3A3A" stroke="#000000" stroke-width="0.25" stroke-linecap="square" stroke-miterlimit="10" d="  M476.521,394.042C459.633,391.595,469.64,408.06,476.521,394.042L476.521,394.042z"/>
<path fill-rule="evenodd" clip-rule="evenodd" fill="#3E3A3A" stroke="#000000" stroke-width="0.25" stroke-linecap="square" stroke-miterlimit="10" d="  M471.271,385.792c0.655-2.705-5.463-3.637,1.5-7.5C478.553,382.416,472.278,381.636,471.271,385.792z"/>
<path fill-rule="evenodd" clip-rule="evenodd" fill="#3E3A3A" stroke="#000000" stroke-width="0.25" stroke-linecap="square" stroke-miterlimit="10" d="  M477.271,388.042C477.271,384.749,477.271,384.749,477.271,388.042L477.271,388.042z"/>
<path fill-rule="evenodd" clip-rule="evenodd" fill="#3E3A3A" stroke="#000000" stroke-width="0.25" stroke-linecap="square" stroke-miterlimit="10" d="  M473.521,390.292C474.088,387.851,474.027,388.113,473.521,390.292L473.521,390.292z"/>
<path fill="none" stroke="#000000" stroke-width="0.25" stroke-linecap="square" stroke-miterlimit="10" d="M453.271,411.292  c2.78,0.686,5.382,1.97,7.5,3.75"/>
<path fill="none" stroke="#000000" stroke-width="0.25" stroke-linecap="square" stroke-miterlimit="10" d="M459.271,429.292  c-0.72-1.791-2.115-3.245-3.75-3.75"/>
<path fill="none" stroke="#000000" stroke-width="0.25" stroke-linecap="square" stroke-miterlimit="10" d="M470.521,410.542  c-1.146-1.592-2.891-3.075-4.5-3.75"/>
<path fill="none" stroke="#000000" stroke-width="0.25" stroke-linecap="square" stroke-miterlimit="10" d="M445.021,386.542  c1.582,1.053,2.777,2.233,3.75,3.75"/>
<path fill-rule="evenodd" clip-rule="evenodd" fill="#FFFFFF" d="M439.021,373.042c1.762,3.148,3.826,4.403,3.75,8.25  C441.521,378.542,440.271,375.792,439.021,373.042z"/>
<path fill="none" stroke="#000000" stroke-width="0.25" stroke-linecap="square" stroke-miterlimit="10" d="M439.021,373.042  c2.461,2.216,3.813,5.047,3.75,8.25"/>
<path fill-rule="evenodd" clip-rule="evenodd" fill="#FFFFFF" d="M481.771,393.292c-0.073,3.022,0.877,4.757-0.75,7.5  C481.271,398.292,481.521,395.792,481.771,393.292z"/>
<path fill="none" stroke="#000000" stroke-width="0.25" stroke-linecap="square" stroke-miterlimit="10" d="M481.771,393.292  c0.83,2.583,0.556,5.298-0.75,7.5"/>
<path fill-rule="evenodd" clip-rule="evenodd" fill="#FFFFFF" d="M478.771,404.542C475.635,401.611,475.134,401.143,478.771,404.542  L478.771,404.542z"/>
<path fill="none" stroke="#000000" stroke-width="0.25" stroke-linecap="square" stroke-miterlimit="10" d="M478.771,404.542  c-1.388-0.679-2.298-1.634-3-3"/>
<path fill-rule="evenodd" clip-rule="evenodd" fill="#FFFFFF" stroke="#000000" stroke-width="0.25" stroke-linecap="square" stroke-miterlimit="10" d="  M471.271,367.042c-24.692-1.334-9.58-20.703,6.75-19.5c0-0.75,0-1.5,0-2.25c-29.457-9.252-33.991,33.87-3.75,26.25  C475.285,367.264,471.453,367.882,471.271,367.042z"/>
<path fill-rule="evenodd" clip-rule="evenodd" fill="#FFFFFF" stroke="#000000" stroke-width="0.25" stroke-linecap="square" stroke-miterlimit="10" d="  M500.521,376.042c-17.265,13.511-39.668-8.494-23.25-24.75C493.362,335.359,514.101,359.53,500.521,376.042z"/>
<path fill-rule="evenodd" clip-rule="evenodd" fill="#574D48" d="M493.021,366.292c-5.562-0.405-11.014-3.145-16.5-12  C462.174,374.747,501.045,386.132,493.021,366.292z"/>
<path fill-rule="evenodd" clip-rule="evenodd" fill="#2F2D2E" d="M493.771,358.792c-5.801-2.737-9.063-5.286-15.75-3.75  c1.879,3.822,7.55,12.072,9.75,15c3.113,0.43,4.956-2.005,7.5-3c-0.382,4.003-1.092,7.732-3,12  C501.06,372.819,497.651,367.556,493.771,358.792z"/>
<path fill-rule="evenodd" clip-rule="evenodd" fill="#FFFFFF" d="M486.271,366.292C486.565,365.803,490.072,359.992,486.271,366.292  L486.271,366.292z"/>
<path fill-rule="evenodd" clip-rule="evenodd" fill="#FFFFFF" d="M481.771,361.042C482.338,358.601,482.277,358.863,481.771,361.042  L481.771,361.042z"/>
<path fill-rule="evenodd" clip-rule="evenodd" fill="#FFFFFF" d="M495.271,367.042C495.271,365.396,495.271,365.396,495.271,367.042  L495.271,367.042z"/>
<path fill-rule="evenodd" clip-rule="evenodd" fill="#FFFFFF" d="M496.771,369.292C496.771,367.646,496.771,367.646,496.771,369.292  L496.771,369.292z"/>
</svg>