<svg xmlns="http://www.w3.org/2000/svg" xmlns:xlink="http://www.w3.org/1999/xlink" version="1.1" id="Layer_1" x="0px" y="0px" enable-background="new 0 0 822.05 841.89" xml:space="preserve" viewBox="341.09 371.39 141.02 101.35">
<path fill-rule="evenodd" clip-rule="evenodd" d="M390.5,470.39c0.303-3.846-0.907-8.044-0.75-12  c-28.831,46.422-92.942-45.722-0.75-34.5c-4.119-18.288-27.886-13.79-41.25-7.5c-7.727-25.331,32.406-27.938,48.75-18.75  c25.298,14.222,15.374,48.42,17.25,72.75C406.506,470.39,397.539,471.963,390.5,470.39z M362,446.39c7.928,14.722,25,7.104,27-9  C377.715,434.553,367.129,436.356,362,446.39z"/>
<path fill-rule="evenodd" clip-rule="evenodd" d="M422,396.14c20.625,5.566,11.845-22.681,40.5-24.75  c-6.782,30.085,16.851,18.303,18,24.75c4.843,27.158-18,10.571-18,22.219c0,14.765-5.065,41.878,18,35.531  c10.127,26.652-30.399,21.342-40.5,6.75c-4.789-6.919-3-19.365-3-27.06C437,407.688,415.062,419.718,422,396.14z"/>
</svg>