<svg xmlns="http://www.w3.org/2000/svg" xmlns:xlink="http://www.w3.org/1999/xlink" version="1.1" id="Layer_1" x="0px" y="0px" enable-background="new 0 0 822.05 841.89" xml:space="preserve" viewBox="304.31 340.66 210.38 160.88">
<path fill-rule="evenodd" clip-rule="evenodd" fill="#F7F619" stroke="#000000" stroke-width="1.25" stroke-linecap="square" stroke-miterlimit="10" d="  M457.063,453.038c0.5,10,1,20,1.5,30c-2.951-7.184-8.792-13.171-12-20.25c-2.444,7.6-7.109,14.755-9,22.5  c0.478-8.209-1.06-16.531-0.75-24.75c-3.468,7.488-8.666,14.204-12,21.75c1.352-8.404,0.923-17.092,2.25-25.5  c-7.251,10.25-14.501,20.5-21.752,30.75c3-13,6.001-26,9.002-39c-5.399,3.216-12.726,3.354-18.002,6.75  c3.451-5.511,3.475-13.122,6.75-18.75c-11.75,2.5-23.5,5-35.25,7.5c9.5-7.75,19-15.5,28.5-23.25c-28,1-56,2-84,3  c27.5-6.25,55-12.5,82.5-18.75c-11-4.25-22-8.5-33-12.75c11.5,0,23,0,34.5,0c-7.5-7.25-15-14.5-22.5-21.75c10.25,3,20.5,6,30.75,9  c-7.25-11.5-14.5-23-21.75-34.5c11.5,7.5,23.001,15,34.502,22.5c-0.632-8.649,1.117-17.659,0-26.25  c2.546,7.326,7.603,13.799,10.5,21c0.582-7.064,4.076-13.93,4.5-21c1.453,5.948,5.221,11.319,6.75,17.25  c0.746-5.309,3.171-10.424,3.75-15.75c-0.007,6.468,3.701,13.05,4.5,19.5c4.688-5.842,12.636-9.104,17.25-15  c-1.604,7.202,0.803,15.285-0.75,22.5c9-7.25,18-14.5,27-21.75c-5.75,10.5-11.5,21-17.25,31.5c5.036-1.386,10.822-0.555,15.75-2.25  c-3.5,3.5-7,7-10.5,10.5c7.482,0.123,15.027,3.927,22.5,3.75c-7.104,2.824-13.094,8.571-20.25,11.25c11,0.75,22,1.5,33,2.25  c-11,4.5-22,9-33,13.5c6.98,2.663,13.107,8.357,20.25,10.5c-7.156-0.555-14.562,2.457-21.75,2.25  c6.753,5.241,12.33,12.621,19.5,17.25c-7.075-3.368-15.252-4.504-22.5-7.5c4.532,6.866,7.214,15.065,12,21.75  c-6.712-5.643-14.921-9.495-21.75-15c7.593,17.084,15.676,34.055,21.75,51.75C478.063,484.038,467.563,468.538,457.063,453.038z"/>
<path fill-rule="evenodd" clip-rule="evenodd" fill="#F87F11" stroke="#000000" stroke-width="1.25" stroke-linecap="square" stroke-miterlimit="10" d="  M406.812,412.538c2.008,38.434,59.696,38.662,60.002,0C467.124,373.207,407.745,373.3,406.812,412.538z"/>
<path fill-rule="evenodd" clip-rule="evenodd" fill="#FFFFFF" stroke="#000000" stroke-linecap="square" stroke-miterlimit="10" d="  M391.062,497.288c-23.506,0-47.012,0-70.518,0c-10.36,0-13.146-49.858-6.732-57c6.503-7.24,59.741,0,70.518,0  C398.592,440.288,391.062,484.379,391.062,497.288z"/>
<path fill-rule="evenodd" clip-rule="evenodd" fill="#FFFFFF" stroke="#000000" stroke-linecap="square" stroke-miterlimit="10" d="  M382.062,501.038c-25.75,0-51.5,0-77.25,0c0.883-7.459,3.886-57,8.549-57c25.15,0,50.3,0,75.451,0  C386.562,463.038,384.312,482.038,382.062,501.038z"/>
<path fill-rule="evenodd" clip-rule="evenodd" d="M358.812,452.288C358.237,447.799,358.134,446.993,358.812,452.288  L358.812,452.288z"/>
<path fill-rule="evenodd" clip-rule="evenodd" d="M340.062,452.288C339.487,447.799,339.384,446.993,340.062,452.288  L340.062,452.288z"/>
<path fill-rule="evenodd" clip-rule="evenodd" d="M377.562,452.288C376.987,447.799,376.884,446.993,377.562,452.288  L377.562,452.288z"/>
<path fill-rule="evenodd" clip-rule="evenodd" d="M321.312,452.288C320.737,447.799,320.634,446.993,321.312,452.288  L321.312,452.288z"/>
<path fill-rule="evenodd" clip-rule="evenodd" d="M321.312,436.538c-0.176,4.919-5.846,8.505,0.75,14.25  C320.666,444.302,321.559,438.622,321.312,436.538z"/>
<path fill-rule="evenodd" clip-rule="evenodd" d="M339.312,435.788c-0.128,5.998-6.202,9.229,0.75,15  c-0.85-3.941,1.018-12.07,0.75-10.5C344.751,438.537,339.21,437.939,339.312,435.788z"/>
<path fill-rule="evenodd" clip-rule="evenodd" d="M358.812,435.788c-0.188,5.674-6.066,9.424,0.75,15  C357.855,443.77,358.883,439.084,358.812,435.788z"/>
<path fill-rule="evenodd" clip-rule="evenodd" d="M376.812,435.788c-0.066,6.313-5.343,10.26,1.5,15  C376.258,443.152,376.73,438.969,376.812,435.788z"/>
<path fill="none" stroke="#000000" stroke-width="0.5" stroke-linecap="square" stroke-miterlimit="10" d="M378.312,495.038  c1.25-9.5,2.5-19,3.75-28.5c-18.032,0-36.064,0-54.096,0c-21.126,0-15.93,7.796-18.654,28.5  C332.312,495.038,355.312,495.038,378.312,495.038z"/>
<path fill-rule="evenodd" clip-rule="evenodd" d="M372.312,466.538l-3.75,28.5L372.312,466.538z"/>
<line fill="none" stroke="#000000" stroke-width="0.5" stroke-linecap="square" stroke-miterlimit="10" x1="372.312" y1="466.538" x2="368.562" y2="495.038"/>
<path fill-rule="evenodd" clip-rule="evenodd" d="M362.562,466.538l-3.75,28.5L362.562,466.538z"/>
<line fill="none" stroke="#000000" stroke-width="0.5" stroke-linecap="square" stroke-miterlimit="10" x1="362.562" y1="466.538" x2="358.812" y2="495.038"/>
<path fill-rule="evenodd" clip-rule="evenodd" d="M352.812,466.538l-3.75,28.5L352.812,466.538z"/>
<line fill="none" stroke="#000000" stroke-width="0.5" stroke-linecap="square" stroke-miterlimit="10" x1="352.812" y1="466.538" x2="349.062" y2="495.038"/>
<path fill-rule="evenodd" clip-rule="evenodd" d="M343.062,466.538l-4.5,28.5L343.062,466.538z"/>
<line fill="none" stroke="#000000" stroke-width="0.5" stroke-linecap="square" stroke-miterlimit="10" x1="343.062" y1="466.538" x2="338.562" y2="495.038"/>
<path fill-rule="evenodd" clip-rule="evenodd" d="M333.312,466.538l-4.5,28.5L333.312,466.538z"/>
<line fill="none" stroke="#000000" stroke-width="0.5" stroke-linecap="square" stroke-miterlimit="10" x1="333.312" y1="466.538" x2="328.812" y2="495.038"/>
<path fill-rule="evenodd" clip-rule="evenodd" d="M323.562,466.538l-4.5,28.5L323.562,466.538z"/>
<line fill="none" stroke="#000000" stroke-width="0.5" stroke-linecap="square" stroke-miterlimit="10" x1="323.562" y1="466.538" x2="319.062" y2="495.038"/>
<line fill="none" stroke="#000000" stroke-width="0.5" stroke-linecap="square" stroke-miterlimit="10" x1="312.312" y1="474.038" x2="381.312" y2="474.038"/>
<line fill="none" stroke="#000000" stroke-width="0.5" stroke-linecap="square" stroke-miterlimit="10" x1="311.562" y1="480.788" x2="380.562" y2="480.788"/>
<line fill="none" stroke="#000000" stroke-width="0.5" stroke-linecap="square" stroke-miterlimit="10" x1="310.812" y1="487.538" x2="379.812" y2="487.538"/>
<text transform="matrix(1 0 0 1 313.8066 464.311)" font-family="'MyriadPro-Regular'" font-size="9">S  M  T  W  Th  F  S</text>
</svg>