<svg xmlns="http://www.w3.org/2000/svg" xmlns:xlink="http://www.w3.org/1999/xlink" version="1.1" id="Layer_1" x="0px" y="0px" enable-background="new 0 0 822.05 841.89" xml:space="preserve" viewBox="219.74 277.24 385.8 287.71">
<path fill-rule="evenodd" clip-rule="evenodd" fill="#226432" stroke="#282928" stroke-width="2" stroke-linecap="square" stroke-miterlimit="10" d="  M581.25,371.142c16.654-19.176,36.805-60.256,10.875-81c-28.767-23.014-90.75-6.452-124.125-1.5  c-91.208,13.533-207.768,48.803-240.375,146.625c-27.257,81.771,29.625,140.19,114.75,126.75  c55.316-8.734,92.357-44.83,131.895-80.979C509.883,448.477,556.979,413.387,581.25,371.142z"/>
<path fill-rule="evenodd" clip-rule="evenodd" fill="#D2DE37" stroke="#010101" stroke-width="2" stroke-linecap="square" stroke-miterlimit="10" d="  M584.25,290.892c-117.75,78.75-235.5,157.5-353.25,236.25C371.725,504.626,543.179,443.096,584.25,290.892z"/>
<path fill-rule="evenodd" clip-rule="evenodd" fill="#D2DE37" stroke="#010101" stroke-width="2" stroke-linecap="square" stroke-miterlimit="10" d="  M229.5,521.142c66.758-138.32,199.773-232.032,354.75-230.25c-60.424,40.411-120.849,80.822-181.272,121.233  c-41.745,27.919-83.49,55.837-125.235,83.756C267.034,503.042,235.353,531.97,229.5,521.142z"/>
<path fill-rule="evenodd" clip-rule="evenodd" fill="#983720" stroke="#282928" stroke-width="2" stroke-linecap="square" stroke-miterlimit="10" d="  M357,442.392c1.814-29.494,17.489-56.167,43.5-70.5c15.632-8.614,62.199-21.924,71.25-6.75c11.662,19.553-18.146,59.82-33.75,69.75  C414.064,450.124,383.435,446.459,357,442.392z"/>
</svg>