<svg xmlns="http://www.w3.org/2000/svg" xmlns:xlink="http://www.w3.org/1999/xlink" version="1.1" id="Layer_1" x="0px" y="0px" enable-background="new 0 0 822.05 841.89" xml:space="preserve" viewBox="301.75 331.48 222.28 177.86">
<path fill-rule="evenodd" clip-rule="evenodd" fill="#F5EF36" stroke="#000000" stroke-width="1.25" stroke-linecap="square" stroke-miterlimit="10" d="  M513.125,401.785c-32.789,3.471-68.59,0.75-102,0.75c-7.767,0-120.066,7.128-102-15c10.757-13.175,96.528-1.5,113.142-1.5  C438.714,386.035,521.334,371.023,513.125,401.785z"/>
<path fill-rule="evenodd" clip-rule="evenodd" fill="#907133" stroke="#000000" stroke-width="1.25" stroke-linecap="square" stroke-miterlimit="10" d="  M513.125,410.785c-37.637,0-75.273,0-112.91,0c-7.862,0-113.361,7.883-91.09-17.25c10.049-11.34,97.511,0,112.91,0  C441.029,393.535,523.001,378.644,513.125,410.785z"/>
<path fill-rule="evenodd" clip-rule="evenodd" fill="#F20000" stroke="#000000" stroke-linecap="square" stroke-miterlimit="10" d="  M310.625,365.035c-2.539,20.196,43.776,37.608,51.75,21.75C372.595,366.458,321.452,358.504,310.625,365.035z"/>
<path fill-rule="evenodd" clip-rule="evenodd" fill="#F20000" stroke="#000000" stroke-linecap="square" stroke-miterlimit="10" d="  M354.875,374.035c38.292-6.643,79.613-11.887,118.5-9.75c13.842,0.761,60.054,18.739,24.375,25.875  c-33.977,6.795-72.655,1.875-107.25,1.875C380.347,392.035,323.913,390.759,354.875,374.035z"/>
<path fill-rule="evenodd" clip-rule="evenodd" fill="#907133" stroke="#000000" stroke-width="1.25" stroke-linecap="square" stroke-miterlimit="10" d="  M302.375,443.035c9.882-3.364,15.752-94.761,6.75-109.5c-6.195-10.143-6.75,36.839-6.75,38.544  C302.375,395.73,302.375,419.383,302.375,443.035z"/>
<path fill-rule="evenodd" clip-rule="evenodd" fill="#907133" stroke="#000000" stroke-width="1.25" stroke-linecap="square" stroke-miterlimit="10" d="  M512.375,442.285c9.724-3.527,15.44-85.504,6.75-99.75c-6.135-10.057-6.75,37.366-6.75,39.26  C512.375,401.958,512.375,422.122,512.375,442.285z"/>
<path fill-rule="evenodd" clip-rule="evenodd" fill="#FFFFFF" d="M312.125,390.535L312.125,390.535L312.125,390.535z"/>
<line fill="none" stroke="#000000" stroke-width="1.25" stroke-linecap="square" stroke-miterlimit="10" x1="312.125" y1="390.535" x2="312.125" y2="390.535"/>
<path fill-rule="evenodd" clip-rule="evenodd" fill="#EED5B6" stroke="#000000" stroke-width="1.25" stroke-linecap="square" stroke-miterlimit="10" d="  M374.375,370.285c-2.75-0.25-5.5-0.5-8.25-0.75c-1.648,19.056,14.369,22.593,27.75,11.25  C390.263,368.899,384.79,368.827,374.375,370.285z"/>
<path fill-rule="evenodd" clip-rule="evenodd" stroke="#000000" stroke-width="1.25" stroke-linecap="square" stroke-miterlimit="10" d="  M435.875,433.285c-17.024-10.883-25.658-48.871-43.5-47.25C406.259,397.602,419.933,434.148,435.875,433.285z"/>
<path fill-rule="evenodd" clip-rule="evenodd" fill="#332371" stroke="#000000" stroke-width="1.25" stroke-linecap="square" stroke-miterlimit="10" d="  M368.375,496.285C313.675,492.457,383.101,523.958,368.375,496.285L368.375,496.285z"/>
<path fill-rule="evenodd" clip-rule="evenodd" stroke="#000000" stroke-width="1.25" stroke-linecap="square" stroke-miterlimit="10" d="  M346.625,455.785c11.236-10.612,31.757-19.632,21-33.75c-4.913,8.176-23.484,27.201-24,34.5c-0.663,9.374,17.743,36.683,21.75,44.25  C366.463,487.541,353.904,468.957,346.625,455.785z"/>
<path fill-rule="evenodd" clip-rule="evenodd" fill="#332371" stroke="#000000" stroke-width="1.25" stroke-linecap="square" stroke-miterlimit="10" d="  M385.625,496.285C434.547,499.753,370.284,522.417,385.625,496.285L385.625,496.285z"/>
<path fill-rule="evenodd" clip-rule="evenodd" stroke="#000000" stroke-width="1.25" stroke-linecap="square" stroke-miterlimit="10" d="  M371.375,377.035c-15.696-13.393-37.991-12.928-52.5-28.5C320.279,360.429,366.038,380.803,371.375,377.035z"/>
<path fill-rule="evenodd" clip-rule="evenodd" fill="#137827" stroke="#000000" stroke-width="1.25" stroke-linecap="square" stroke-miterlimit="10" d="  M356.375,364.285c-3.189,3.418-5.174,9.391-7.5,13.5c20.889,4.235,12.421,23.742,9,39c13.041,1.525,25.976,3.689,39,5.25  c-1.595-8.2,1.144-17.374-0.75-25.5c3,2.25,6,4.5,9,6.75c1.987-1.756,8.473-9.749,9.75-12c-14.458-13.389-19.342-9.75-34.5-9.75  C371.549,381.535,364.68,368.352,356.375,364.285z"/>
<path fill-rule="evenodd" clip-rule="evenodd" stroke="#000000" stroke-width="1.25" stroke-linecap="square" stroke-miterlimit="10" d="  M387.125,456.535c-0.212-11.003-0.025-22.023,0.75-33c-1.5-0.25-3-0.5-4.5-0.75c0.508,22.884-3.612,57.03,3.75,77.25  C387.349,486.706,388.167,468.969,387.125,456.535z"/>
<path fill-rule="evenodd" clip-rule="evenodd" fill="#332371" stroke="#000000" stroke-width="1.25" stroke-linecap="square" stroke-miterlimit="10" d="  M359.375,422.035c-13.179,11.684-15.462,22.172,0,30.75c3.391-4.88,10.649-7.579,13.5-12.75c-1.558,15.512,9.81,19.785,22.5,18.75  C393.465,430.129,392.975,414.961,359.375,422.035z"/>
<path fill-rule="evenodd" clip-rule="evenodd" fill="#EED5B6" stroke="#000000" stroke-width="1.25" stroke-linecap="square" stroke-miterlimit="10" d="  M303.875,341.035C315.104,371.582,334.69,333.678,303.875,341.035L303.875,341.035z"/>
<path fill-rule="evenodd" clip-rule="evenodd" fill="#EED5B6" stroke="#000000" stroke-width="1.25" stroke-linecap="square" stroke-miterlimit="10" d="  M434.375,432.535C444.528,461.218,464.158,427.434,434.375,432.535L434.375,432.535z"/>
<path fill-rule="evenodd" clip-rule="evenodd" fill="#EED5B6" stroke="#000000" stroke-width="1.25" stroke-linecap="square" stroke-miterlimit="10" d="  M396.875,352.285c-1.011,24.554-30,24.765-30,0S395.864,327.73,396.875,352.285z"/>
<path fill-rule="evenodd" clip-rule="evenodd" fill="#F20000" stroke="#000000" stroke-linecap="square" stroke-miterlimit="10" d="  M437.375,492.535c-2.75,4-5.5,8-8.25,12c7.341-0.307,9.727-0.781,17.25-7.5C443.375,495.535,440.375,494.035,437.375,492.535z"/>
<path fill-rule="evenodd" clip-rule="evenodd" fill="#F20000" stroke="#000000" stroke-linecap="square" stroke-miterlimit="10" d="  M474.875,498.535c8.78-1.219,12.412-3.812,13.5,9C480.514,509.82,479.808,504.536,474.875,498.535z"/>
<path fill-rule="evenodd" clip-rule="evenodd" fill="#FFFFFF" d="M448.625,442.285l-12-13.5L448.625,442.285z"/>
<line fill="none" stroke="#000000" stroke-width="2" stroke-linecap="square" stroke-miterlimit="10" x1="448.625" y1="442.285" x2="436.625" y2="428.785"/>
<path fill-rule="evenodd" clip-rule="evenodd" d="M440.375,428.035C431.071,428.338,431.051,428.338,440.375,428.035  L440.375,428.035z"/>
<path fill-rule="evenodd" clip-rule="evenodd" fill="#F20000" stroke="#000000" stroke-linecap="square" stroke-miterlimit="10" d="  M496.625,468.535c-2.316,45.739-72.45,43.703-70.5-2.25C428.067,420.516,499.121,422.731,496.625,468.535z"/>
<path fill-rule="evenodd" clip-rule="evenodd" fill="#FFFFFF" stroke="#000000" stroke-linecap="square" stroke-miterlimit="10" d="  M487.625,468.535c-3.039,34.22-55.262,32.482-54-2.25C434.891,431.445,487.084,434.26,487.625,468.535z"/>
<path fill-rule="evenodd" clip-rule="evenodd" fill="#FFFFFF" d="M459.875,486.535v5.25V486.535z"/>
<line fill="none" stroke="#000000" stroke-width="0.75" stroke-linecap="square" stroke-miterlimit="10" x1="459.875" y1="486.535" x2="459.875" y2="491.785"/>
<path fill-rule="evenodd" clip-rule="evenodd" fill="#FFFFFF" d="M480.125,467.785h5.25H480.125z"/>
<line fill="none" stroke="#000000" stroke-width="0.75" stroke-linecap="square" stroke-miterlimit="10" x1="480.125" y1="467.785" x2="485.375" y2="467.785"/>
<path fill-rule="evenodd" clip-rule="evenodd" fill="#FFFFFF" d="M435.875,466.285l5.25,0.75L435.875,466.285z"/>
<line fill="none" stroke="#000000" stroke-width="0.75" stroke-linecap="square" stroke-miterlimit="10" x1="435.875" y1="466.285" x2="441.125" y2="467.035"/>
<path fill-rule="evenodd" clip-rule="evenodd" fill="#FFFFFF" d="M474.125,481.285l3,3.75L474.125,481.285z"/>
<line fill="none" stroke="#000000" stroke-width="0.75" stroke-linecap="square" stroke-miterlimit="10" x1="474.125" y1="481.285" x2="477.125" y2="485.035"/>
<path fill-rule="evenodd" clip-rule="evenodd" fill="#FFFFFF" d="M444.125,449.785l3,3.75L444.125,449.785z"/>
<line fill="none" stroke="#000000" stroke-width="0.75" stroke-linecap="square" stroke-miterlimit="10" x1="444.125" y1="449.785" x2="447.125" y2="453.535"/>
<path fill-rule="evenodd" clip-rule="evenodd" fill="#FFFFFF" d="M442.625,484.285l3.75-3.75L442.625,484.285z"/>
<line fill="none" stroke="#000000" stroke-width="0.75" stroke-linecap="square" stroke-miterlimit="10" x1="442.625" y1="484.285" x2="446.375" y2="480.535"/>
<path fill-rule="evenodd" clip-rule="evenodd" stroke="#000000" stroke-width="0.75" stroke-linecap="square" stroke-miterlimit="10" d="  M460.625,449.035c-0.868,6.482-1.5,13.002-2.25,19.5c1.5-0.25,3-0.5,4.5-0.75C462.125,461.536,461.461,455.272,460.625,449.035z"/>
<path fill-rule="evenodd" clip-rule="evenodd" stroke="#000000" stroke-width="0.75" stroke-linecap="square" stroke-miterlimit="10" d="  M463.625,467.785c-1.682-0.208-2.54,4.044-6,0.75C460.112,461.631,461.186,467.482,463.625,467.785z"/>
<path fill-rule="evenodd" clip-rule="evenodd" fill="#FFFFFF" d="M476.375,455.035l3.75-3.75L476.375,455.035z"/>
<line fill="none" stroke="#000000" stroke-width="0.75" stroke-linecap="square" stroke-miterlimit="10" x1="476.375" y1="455.035" x2="480.125" y2="451.285"/>
<path fill-rule="evenodd" clip-rule="evenodd" fill="#FFFFFF" d="M462.125,442.285l-0.75,5.25L462.125,442.285z"/>
<line fill="none" stroke="#000000" stroke-width="0.75" stroke-linecap="square" stroke-miterlimit="10" x1="462.125" y1="442.285" x2="461.375" y2="447.535"/>
<path fill-rule="evenodd" clip-rule="evenodd" stroke="#000000" stroke-width="0.75" stroke-linecap="square" stroke-miterlimit="10" d="  M472.625,467.035c-4.25-0.75-8.5-1.5-12.75-2.25c0.25,1.5,0.5,3,0.75,4.5C464.625,468.535,468.625,467.785,472.625,467.035z"/>
<path fill-rule="evenodd" clip-rule="evenodd" fill="#FFFFFF" d="M444.875,497.035L444.875,497.035L444.875,497.035z"/>
<line fill="none" stroke="#000000" stroke-width="2" stroke-linecap="square" stroke-miterlimit="10" x1="444.875" y1="497.035" x2="444.875" y2="497.035"/>
<path fill-rule="evenodd" clip-rule="evenodd" fill="#F20000" stroke="#000000" stroke-linecap="square" stroke-miterlimit="10" d="  M459.875,413.035c-9.317,2.524-15.494,5.917-17.25,15.75c5.317,0.876,36.591,3.417,37.5-3  C481.375,416.968,466.254,412.829,459.875,413.035z"/>
<path fill="none" stroke="#000000" stroke-width="0.75" stroke-linecap="square" stroke-miterlimit="10" d="M422.375,426.535  c0.143,3.86,2.006,7.002,5.25,9"/>
<path fill="none" stroke="#000000" stroke-width="0.75" stroke-linecap="square" stroke-miterlimit="10" d="M412.625,428.035  c-0.223,7.757,4.109,12.46,12,13.5"/>
<path fill="none" stroke="#000000" stroke-width="0.75" stroke-linecap="square" stroke-miterlimit="10" d="M485.375,435.535  c3.286-3.662,3.912-7.965,1.5-12"/>
<path fill="none" stroke="#000000" stroke-width="0.75" stroke-linecap="square" stroke-miterlimit="10" d="M494.375,439.285  c6.949-6.16,7.204-13.537,0.75-20.25"/>
</svg>