<svg xmlns="http://www.w3.org/2000/svg" xmlns:xlink="http://www.w3.org/1999/xlink" version="1.1" id="Layer_1" x="0px" y="0px" enable-background="new 0 0 822.05 841.89" xml:space="preserve" viewBox="285.93 260.73 247.57 321.25">
<path fill-rule="evenodd" clip-rule="evenodd" fill="#F6EB14" stroke="#000000" stroke-width="2" stroke-linecap="square" stroke-miterlimit="10" d="  M340.25,278.728c-4.808,43.94-14.245,161.7,52.5,168.375c82.869,8.287,72-115.819,72-170.625  C427.394,298.37,378.526,299.209,340.25,278.728z"/>
<path fill-rule="evenodd" clip-rule="evenodd" fill="#FBF4A2" d="M338.75,276.478c36.771-21.454,85.731-16.608,124.5-3.75  C427.201,295.323,375.118,302.376,338.75,276.478z"/>
<path fill="none" stroke="#000000" stroke-width="2" stroke-linecap="square" stroke-miterlimit="10" d="M338.75,276.478  c36.771-21.454,85.731-16.608,124.5-3.75c-38.435,24.09-81.689,25.385-123,6"/>
<path fill-rule="evenodd" clip-rule="evenodd" fill="#F6EB14" stroke="#000000" stroke-width="2" stroke-linecap="square" stroke-miterlimit="10" d="  M465.5,302.728c17.007,4.443,14.971-5.819,26.25-12.75c-2.735,1.681,19.562-28.873,22.875-9c3.461,20.767,3.238,44.046-1.875,64.5  c-8.137,32.547-25.647,60.883-60.75,67.5c0.429-18.854,23.975-23.976,34.5-38.25c16.406-22.25,19.833-54.912,18.75-81.75  c-2,0-4,0-6,0C497.35,311.932,464.416,326.28,465.5,302.728z"/>
<path fill-rule="evenodd" clip-rule="evenodd" fill="#F6EB14" stroke="#000000" stroke-width="2" stroke-linecap="square" stroke-miterlimit="10" d="  M338,302.728c-17.007,4.443-14.971-5.819-26.25-12.75c2.736,1.681-19.563-28.873-22.875-9c-3.628,21.766-1.779,43.012,2.25,64.5  c6.089,32.475,26.678,61.148,60.375,67.5c0.247-18.083-23.302-24.275-33.75-38.25c-17.728-23.713-18.266-53.437-19.5-81.75  c2,0,4,0,6,0C306.146,311.887,339.325,326.381,338,302.728z"/>
<path fill-rule="evenodd" clip-rule="evenodd" fill="#F6EB14" stroke="#000000" stroke-width="2" stroke-linecap="square" stroke-miterlimit="10" d="  M378.5,445.228c-11.062,33.329,70.683,31.546,49.5-2.25C414.105,453.103,394.33,448.687,378.5,445.228z"/>
<path fill-rule="evenodd" clip-rule="evenodd" fill="#F6EB14" stroke="#000000" stroke-width="2" stroke-linecap="square" stroke-miterlimit="10" d="  M378.5,465.478C366.063,492.671,507.839,463.604,378.5,465.478L378.5,465.478z"/>
<path fill-rule="evenodd" clip-rule="evenodd" fill="#F6EB14" stroke="#000000" stroke-width="2" stroke-linecap="square" stroke-miterlimit="10" d="  M377,480.478C369.81,509.364,503.634,478.643,377,480.478L377,480.478z"/>
<path fill-rule="evenodd" clip-rule="evenodd" fill="#F6EB14" stroke="#000000" stroke-width="2" stroke-linecap="square" stroke-miterlimit="10" d="  M374.75,494.728c-6.176,5.986-11.548,13.055-17.25,19.5c29.75,0,59.5,0,89.25,0C425.355,486.027,409.244,497.415,374.75,494.728z"/>
<path fill-rule="evenodd" clip-rule="evenodd" fill="#72441B" stroke="#000000" stroke-width="2" stroke-linecap="square" stroke-miterlimit="10" d="  M510.5,580.978c-50.77,0-101.54,0-152.31,0c-18.986,0-37.972,0-56.958,0c1.666,0-5.172-61.988-0.732-66.75  c4.58-4.912,41.693,0,48.124,0c34.729,0,69.458,0,104.187,0c18.985,0,37.972,0,56.958,0C511.26,514.228,510.5,573.918,510.5,580.978  z"/>
<path fill-rule="evenodd" clip-rule="evenodd" fill="#FBF4A2" stroke="#000000" stroke-width="2" stroke-linecap="square" stroke-miterlimit="10" d="  M481.25,568.978c-33.76,0-67.52,0-101.28,0c-15.911,0-31.821,0-47.732,0c-0.049,0-3.897-36.821-0.988-39.75  c10.621-10.694,85.844,0,101.279,0C479.27,529.228,481.25,521.033,481.25,568.978z"/>
<path fill-rule="evenodd" clip-rule="evenodd" fill="#ED2224" stroke="#000000" stroke-linecap="square" stroke-miterlimit="10" d="  M438.5,364.228c-8.085,34.036-21.294,86.59-48.75,110.25c17.795-6.102,31.011-15.281,38.25,9c8-39.75,16-79.5,24-119.25  C447.5,364.228,443,364.228,438.5,364.228z"/>
<path fill-rule="evenodd" clip-rule="evenodd" fill="#ED2224" stroke="#000000" stroke-linecap="square" stroke-miterlimit="10" d="  M464,364.228c16.865,35.675,34.839,84.505,69,107.25c-18.928-4.616-35.861-14.793-42,11.25c-14-39-28-78-42-117  C453.784,365.25,459.247,363.7,464,364.228z"/>
<path fill-rule="evenodd" clip-rule="evenodd" fill="#ED2224" stroke="#000000" stroke-linecap="square" stroke-miterlimit="10" d="  M448.25,298.978c4-11,8-22,12-33c0,11.75,0,23.5,0,35.25c7.5-9,15-18,22.5-27c-4.25,11-8.5,22-12.75,33c10.25-6,20.5-12,30.75-18  c-7.5,9-15,18-22.5,27c11.5-2.25,23-4.5,34.5-6.75c-10.25,6-20.5,12-30.75,18c11.5,2,23,4,34.5,6c-11.5,2-23,4-34.5,6  c10.25,5.75,20.5,11.5,30.75,17.25c-11.5-2-23-4-34.5-6c7.5,9,15,18,22.5,27c-10.25-6-20.5-12-30.75-18c4.25,11,8.5,22,12.75,33  c-7.5-9-15-18-22.5-27c0,11.75,0,23.5,0,35.25c-4-11.25-8-22.5-12-33.75c-4,11.25-8,22.5-12,33.75c0-11.75,0-23.5,0-35.25  c-7.499,9-14.999,18-22.498,27c4.249-11,8.499-22,12.748-33c-10.25,6-20.5,12-30.75,18c7.5-9,15-18,22.5-27c-11.5,2-23,4-34.5,6  c10.25-5.75,20.501-11.5,30.752-17.25c-11.75-2-23.501-4-35.252-6c11.75-2,23.501-4,35.252-6c-10.25-6-20.501-12-30.752-18  c11.5,2.25,23,4.5,34.5,6.75c-7.5-9-15-18-22.5-27c10.25,6,20.5,12,30.75,18c-4.249-11-8.499-22-12.748-33  c7.499,9,14.999,18,22.498,27c0-11.75,0-23.5,0-35.25C440.25,276.978,444.25,287.978,448.25,298.978z"/>
<path fill-rule="evenodd" clip-rule="evenodd" fill="#FBF4A2" stroke="#000000" stroke-linecap="square" stroke-miterlimit="10" d="  M483.5,334.228c-1.64,44.794-70.242,45.511-69.748,0C414.236,289.625,481.521,290.371,483.5,334.228z"/>
</svg>