<svg xmlns="http://www.w3.org/2000/svg" xmlns:xlink="http://www.w3.org/1999/xlink" version="1.1" id="Layer_1" x="0px" y="0px" enable-background="new 0 0 822.05 841.89" xml:space="preserve" viewBox="323.13 340.92 177.62 167.53">
<path fill-rule="evenodd" clip-rule="evenodd" fill="#F1F0EF" d="M364.375,341.546c6.25,54.75,12.5,109.5,18.75,164.25  c19.017-19.553,38.034-39.105,57.051-58.658c8.463-8.701,50.646-40.964,49.117-53.584c-4.494-37.076,3.796-46.341-33.326-47.976  C425.437,344.235,394.906,342.891,364.375,341.546z"/>
<path fill="none" stroke="#000000" stroke-width="1.25" stroke-linecap="square" stroke-miterlimit="10" d="M364.375,341.546  c6.25,54.75,12.5,109.5,18.75,164.25c19.017-19.553,38.034-39.105,57.051-58.658c8.463-8.701,50.646-40.964,49.117-53.584  c-4.494-37.076,3.796-46.341-33.326-47.976C425.437,344.235,394.906,342.891,364.375,341.546"/>
<path fill-rule="evenodd" clip-rule="evenodd" fill="#D3D2D2" stroke="#000000" stroke-width="1.25" stroke-linecap="square" stroke-miterlimit="10" d="  M383.125,505.796c-11.576,3.4-24,3.686-24-8.329c0-10.166-6.401-50.383,0-57.671C387.71,407.249,383.125,499.417,383.125,505.796z"/>
<path fill-rule="evenodd" clip-rule="evenodd" fill="#D3D2D2" stroke="#000000" stroke-width="1.25" stroke-linecap="square" stroke-miterlimit="10" d="  M374.125,358.046c3.305,5.069,11.005,5.753,3,10.5c12.213,6.972,21.091,37.612,10.5,41.25c11.795,5.754,17.224,11.67,3.75,15.75  c13.745,1.123,30.557,15.534,10.5,19.5c12.762,7.373,14.325,17.141-1.5,17.25c26.62,5.129,18.211,20.28-5.625,16.875  c-8.131-1.162-11.781-4.392-19.125-4.125c-6.291,0.229-12.396,10.286-23.25,8.25c4.43-3.643,7.024-7.005,12.75-9.75  c-30.405,21.727-58.603-9.401-28.5-9.75c-26.229-2.788-1.266-13.605,10.5-19.5c-27.392,5.389-16.164-15.152,0-22.5  c-3.636-0.528-7.616-2.463-11.25-3c6.014-6.146,11.957-13.116,17.25-20.25c-14.192-6.221-4.853-14.818,6.75-20.25  c-2.557-1.026-3.61,0.431-6.75-1.5c4.338-10.181,11.594-20.295,11.25-35.25C366.667,347.942,371.265,352.288,374.125,358.046z"/>
<path fill-rule="evenodd" clip-rule="evenodd" fill="#99330D" stroke="#000000" stroke-width="1.25" stroke-linecap="square" stroke-miterlimit="10" d="  M489.625,396.296C463.299,395.581,501.877,354.733,489.625,396.296L489.625,396.296z"/>
<path fill-rule="evenodd" clip-rule="evenodd" fill="#F7F619" stroke="#000000" stroke-width="1.25" stroke-linecap="square" stroke-miterlimit="10" d="  M486.625,351.296c3.305,5.795,5.97,10.709,3.75,15.75c4.58,5.245,3.836,0.926,1.5,5.25c5.943,6.878,3.554,0.921,3,6  c5.666,5.719,2.254,1.868-0.75,5.25c2.853,1.977,3.931,0.73,6,3.75c-7.034,1.049-13.238,2.158-20.25,2.25  c0.975-0.286,3.838-2.478,4.5-3c-13.045,4.198-10.439,3.354-9-3c0.15,0.195-4.541,1.424-3.75-1.5c2.209-1.79,4.247-3.091,6.75-4.5  c-0.125-0.107-4.004,0.55-5.25-0.75c4.879-7.42,1.849-5.505,7.5-12.75C480.169,358.465,481.08,349.986,486.625,351.296z"/>
</svg>