<svg xmlns="http://www.w3.org/2000/svg" xmlns:xlink="http://www.w3.org/1999/xlink" version="1.1" id="Layer_1" x="0px" y="0px" enable-background="new 0 0 822.05 841.89" xml:space="preserve" viewBox="219.74 261.1 381.75 318.01">
<path fill-rule="evenodd" clip-rule="evenodd" fill="#72441B" stroke="#010101" stroke-width="2" stroke-linecap="square" stroke-miterlimit="10" d="  M311.152,322.14c79.065,54.202,154.512,118.137,216.939,190.969c16.221,18.924,29.251,72.903,57.562,64.031  c42.229-13.233-17.658-64.179-31.875-80.25c-64.647-73.079-143.055-133.32-212.627-201.75c-11.912-11.717-38.222-47.948-57-26.25  C266.925,288.796,296.805,313.728,311.152,322.14z"/>
<path fill-rule="evenodd" clip-rule="evenodd" fill="#FFFFFF" stroke="#010101" stroke-width="2" stroke-linecap="square" stroke-miterlimit="10" d="  M579.654,549.39C558.396,563.651,568.169,526.494,579.654,549.39L579.654,549.39z"/>
<path fill-rule="evenodd" clip-rule="evenodd" fill="#878787" stroke="#010101" stroke-width="2" stroke-linecap="square" stroke-miterlimit="10" d="  M332.152,270.39c-36.222,21.462-60.233,55.352-88.945,85.312c-18.135,18.923-10.013,23.465,11.32,37.688  c15.73,10.487,33.159,19.494,51.375,24.75c-0.436-19.073-1.338-55.812,18-68.25c17.056-10.97,25.208,0.851,39-17.25  C380.824,309.119,377.063,256.586,332.152,270.39z"/>
<path fill-rule="evenodd" clip-rule="evenodd" fill="#D1D1D2" stroke="#010101" stroke-width="2" stroke-linecap="square" stroke-miterlimit="10" d="  M226.402,370.89c-28.731,19.981,60.113,60.352,82.5,61.5C309.532,413.15,243.41,384.792,226.402,370.89z"/>
<path fill="none" stroke="#010101" stroke-linecap="square" stroke-miterlimit="10" d="M386.902,378.39  c41.494,11.017,51.485,23.563,79.502,50.25c19.475,18.55,50.071,26.387,42.75,60.75"/>
<path fill="none" stroke="#010101" stroke-linecap="square" stroke-miterlimit="10" d="M401.902,391.89  c32.892,5.73,36.316,20.801,58.127,38.25c17.161,13.729,43.584,20.952,37.875,48.75"/>
<path fill="none" stroke="#010101" stroke-linecap="square" stroke-miterlimit="10" d="M424.404,410.64  c16.321,8.797,56.837,33.254,59.25,53.25"/>
<path fill="none" stroke="#010101" stroke-linecap="square" stroke-miterlimit="10" d="M575.904,523.89  c-17.228-1.704-30.455-21.703-31.5-36.75"/>
<path fill="none" stroke="#010101" stroke-linecap="square" stroke-miterlimit="10" d="M584.154,533.64  c-20.705-1.636-53.803-31.73-44.25-54"/>
</svg>