<svg xmlns="http://www.w3.org/2000/svg" xmlns:xlink="http://www.w3.org/1999/xlink" version="1.1" id="Layer_1" x="0px" y="0px" enable-background="new 0 0 822.05 841.89" xml:space="preserve" viewBox="339 333.19 143.13 176.9">
<path fill-rule="evenodd" clip-rule="evenodd" fill="#D2D1D2" stroke="#000000" stroke-width="1.25" stroke-linecap="square" stroke-miterlimit="10" d="  M429.747,402.765c10.568-8.35,27.385-0.882,33.004,13.5c10.682,27.337-7.116,33.967-27.05,35.016  C412.69,452.492,427.287,412.606,429.747,402.765z"/>
<path fill-rule="evenodd" clip-rule="evenodd" fill="#D2D1D2" stroke="#000000" stroke-width="1.25" stroke-linecap="square" stroke-miterlimit="10" d="  M481.501,506.265c-4.142-31.25-3.397-69.437-22.5-96c2.564,6.32,1.973,13.009,3,18.75c-9.393-5.8-31.536-26.218-42.754-15  c-19.118,19.117-11.106,68.142-14.998,93C430,506.765,455.75,506.515,481.501,506.265z"/>
<path fill-rule="evenodd" clip-rule="evenodd" fill="#D2D1D2" stroke="#000000" stroke-width="1.25" stroke-linecap="square" stroke-miterlimit="10" d="  M450.001,462.765c0.95-18.794-20.643-68.763-32.254-28.125c-5.993,20.977-2.25,45.541-2.25,67.125  c0,7.524,28.858,10.045,33.754,5.25C454.207,502.161,450.001,468.49,450.001,462.765z"/>
<path fill="none" stroke="#FB0F0C" stroke-width="3" stroke-linecap="square" stroke-miterlimit="10" d="M425.997,410.265  c-24.333,22.076-21.412,67.214-19.498,96.75"/>
<path fill-rule="evenodd" clip-rule="evenodd" fill="#FB0F0C" stroke="#000000" stroke-width="1.5" stroke-linecap="square" stroke-miterlimit="10" d="  M368.999,435.015c-13.2-6-22.987-17.348-29.25-1.5c8.5,3.75,17,7.5,25.5,11.25c-1.25,2.5-2.5,5-3.75,7.5c11.25-0.5,22.5-1,33.75-1.5  c-7.5-8-15-16-22.5-24C371.499,429.515,370.249,432.265,368.999,435.015z"/>
<path fill-rule="evenodd" clip-rule="evenodd" fill="#D2D1D2" stroke="#000000" stroke-width="1.25" stroke-linecap="square" stroke-miterlimit="10" d="  M422.247,378.765C413.507,399.393,405.768,365.335,422.247,378.765L422.247,378.765z"/>
<path fill-rule="evenodd" clip-rule="evenodd" fill="#D2D1D2" stroke="#000000" stroke-width="1.25" stroke-linecap="square" stroke-miterlimit="10" d="  M477.001,387.015C459.535,397.118,471.896,365.875,477.001,387.015L477.001,387.015z"/>
<path fill-rule="evenodd" clip-rule="evenodd" fill="#D2D1D2" stroke="#000000" stroke-width="1.25" stroke-linecap="square" stroke-miterlimit="10" d="  M418.497,357.765c-13.224,43.918,41.308,73.036,55.504,23.25C486.716,336.423,430.473,313.282,418.497,357.765z"/>
</svg>