<svg xmlns="http://www.w3.org/2000/svg" xmlns:xlink="http://www.w3.org/1999/xlink" version="1.1" id="Layer_1" x="0px" y="0px" enable-background="new 0 0 822.05 841.89" xml:space="preserve" viewBox="196.05 266.73 423.96 313.17">
<path fill-rule="evenodd" clip-rule="evenodd" fill="#FFFFFF" stroke="#000000" stroke-width="2" stroke-linecap="square" stroke-miterlimit="10" d="  M204.25,529.404c18.734,20.14,44.74,49.142,75,49.5c42.327,0.501,84.079-45.769,111.75-72.375  c55.11-52.991,121.554-90.378,183.417-137.512c25.567-19.48,63.787-45.654,33.333-74.361c-21.693-20.449-54.607-35.205-79.5-21.75  c-21.528,11.636-33.589,34.781-56.648,46.641c-23.237,11.951-36.321,40.027-63.351,51.609c-22.065,9.455-44.045,17.215-64.501,30  c-19.384,12.115-27.333,40.313-45.724,49.908C266.905,467.301,181.67,481.793,204.25,529.404z"/>
<path fill-rule="evenodd" clip-rule="evenodd" fill="#ED2224" stroke="#000000" stroke-width="2" stroke-linecap="square" stroke-miterlimit="10" d="  M322.75,422.904c24.735-14.918,49.07-21.26,74.25-27.748c13.371-3.445,40.021-9.431,52.875-18  c44.75-29.833-8.393-23.597-33.598-9.194C389.176,383.448,334.938,389.413,322.75,422.904z"/>
<path fill-rule="evenodd" clip-rule="evenodd" fill="#ED2224" stroke="#000000" stroke-width="2" stroke-linecap="square" stroke-miterlimit="10" d="  M262,470.904c27.064,24.597,102.932-28.945,124.875-46.5c3.214-2.572,36.144-26.704,40.875-17.248  c3.259,6.511-43.397,37.269-50.712,43.918c-31.103,28.275-78.474,104.183-121.788,110.58c-24.053,3.553-31.871-12.643-48.778-29.973  C171.897,496.243,242.099,479.257,262,470.904z"/>
<path fill-rule="evenodd" clip-rule="evenodd" fill="#ED2224" stroke="#000000" stroke-width="2" stroke-linecap="square" stroke-miterlimit="10" d="  M571,276.656c-49.293,58.217-95.45,110.016-153.174,159.646c-14.537,12.499-15.936,25.135-26.655,37.998  c-26.557,31.868-53.114,63.736-79.671,95.604c28.622-18.405,54.884-39.877,79.556-63.25c21.35-20.227,33.812-47.199,56.944-66.5  c37.592-31.365,97.567-57.443,125.25-98.248c-19.906-2.968-36.245,16.515-54.75,18.75c15.983-27.857,46.432-52.315,68.25-75.75  C581.854,282.341,576.351,277.835,571,276.656z"/>
</svg>