<svg xmlns="http://www.w3.org/2000/svg" xmlns:xlink="http://www.w3.org/1999/xlink" version="1.1" id="Layer_1" x="0px" y="0px" enable-background="new 0 0 822.05 841.89" xml:space="preserve" viewBox="217.56 262.84 387.8 313.98">
<path fill-rule="evenodd" clip-rule="evenodd" fill="#983620" stroke="#000000" stroke-width="2" stroke-linecap="square" stroke-miterlimit="10" d="  M410.502,312.892c40.819-19.603,89.205-21.313,128.998,1.5c35.96,20.615,78.978,67.105,60.375,111.75  c-15.116,36.279-56.384,42.947-91.875,40.5c-44.424-3.063-67.528-54.733-120.75-57.75C395,376.892,402.751,344.892,410.502,312.892z  "/>
<path fill-rule="evenodd" clip-rule="evenodd" fill="#983620" stroke="#000000" stroke-width="2" stroke-linecap="square" stroke-miterlimit="10" d="  M282.25,445.642c71.885-78.377,286.45-19.988,198,93C411.064,627.021,192.635,542.411,282.25,445.642z"/>
<path fill="none" stroke="#000000" stroke-width="2" stroke-linecap="square" stroke-miterlimit="10" d="M331.75,465.892  c26.264,25.369,58.922,17.771,85.5-3"/>
<path fill-rule="evenodd" clip-rule="evenodd" fill="#FFFFFF" stroke="#000000" stroke-width="2" stroke-linecap="square" stroke-miterlimit="10" d="  M347.5,474.142c16.51-10.326,36.945-9.464,53.25,0.75C384.912,480.35,359.656,489.362,347.5,474.142z"/>
<path fill-rule="evenodd" clip-rule="evenodd" fill="#983620" stroke="#000000" stroke-width="2" stroke-linecap="square" stroke-miterlimit="10" d="  M248.5,313.642c-37.765,30.685-39.857,75.62-6,108.75c6.15,6.018,25.809,24.362,34.5,24c10.469-0.436,33.183-24.52,44.25-30  c20.023-9.916,59.679-4.968,71.625-18c27.762-30.285,56.642-86.146,16.127-118.5C360.561,241.208,287.248,280.422,248.5,313.642z"/>
<path fill-rule="evenodd" clip-rule="evenodd" fill="#983620" d="M266.5,331.642c33.704,18.402,65.869-4.583,80.25-36  C320,307.642,293.25,319.642,266.5,331.642z"/>
<path fill="none" stroke="#000000" stroke-width="2" stroke-linecap="square" stroke-miterlimit="10" d="M266.5,331.642  c33.704,18.402,65.869-4.583,80.25-36"/>
<path fill="none" stroke="#000000" stroke-width="2" stroke-linecap="square" stroke-miterlimit="10" d="M532.75,354.142  c-20.005,21.679-53.067,30.239-79.5,15"/>
<path fill-rule="evenodd" clip-rule="evenodd" fill="#FFFFFF" stroke="#000000" stroke-width="2" stroke-linecap="square" stroke-miterlimit="10" d="  M286.75,335.392c0.704-26.324,29.177-28.283,48.75-21C323.961,326.387,304.039,342.223,286.75,335.392z"/>
<path fill-rule="evenodd" clip-rule="evenodd" fill="#FFFFFF" stroke="#000000" stroke-width="2" stroke-linecap="square" stroke-miterlimit="10" d="  M462.25,370.642c17.691-17.558,42.086-27.868,63-9C508.079,377.79,483.422,380.271,462.25,370.642z"/>
</svg>