<svg xmlns="http://www.w3.org/2000/svg" xmlns:xlink="http://www.w3.org/1999/xlink" version="1.1" id="Layer_1" x="0px" y="0px" enable-background="new 0 0 822.05 841.89" xml:space="preserve" viewBox="307.99 333.27 204.76 176">
<path fill="none" stroke="#000000" stroke-width="1.25" stroke-linecap="square" stroke-miterlimit="10" d="M411.627,508.64  c1.256-15.244,2.258-31.079,6.752-45.75"/>
<path fill-rule="evenodd" clip-rule="evenodd" fill="#F8130D" stroke="#000000" stroke-width="1.25" stroke-linecap="square" stroke-miterlimit="10" d="  M512.129,375.89c-0.138-26.489-32.857-62.536-51-26.25c-7.363,14.726-9.44,32.203-1.5,47.25c7.528,14.266,29.411,17.642,14.25,32.25  c3.488,0.689,13.996,1.544,17.25,1.5c-2.797-3.11-4.248-9.943-7.5-13.5C502.008,412.317,511.129,393.789,512.129,375.89z"/>
<path fill="none" stroke="#000000" stroke-width="1.25" stroke-linecap="square" stroke-miterlimit="10" d="M479.879,416.39  c3.823,5.772,0.695,74.373-3,89.25"/>
<path fill-rule="evenodd" clip-rule="evenodd" fill="#1D0E82" stroke="#000000" stroke-width="1.25" stroke-linecap="square" stroke-miterlimit="10" d="  M482.879,417.14c-24.114-19.733-22.286-62.012-1.5-83.25C441.422,340.139,446.67,407.939,482.879,417.14z"/>
<path fill-rule="evenodd" clip-rule="evenodd" fill="#F7F619" d="M482.879,417.14c25.726-9.363,38.188-48.507,19.5-70.5  C467.999,306.18,479.389,399.229,482.879,417.14z"/>
<path fill="none" stroke="#000000" stroke-width="1.25" stroke-linecap="square" stroke-miterlimit="10" d="M482.879,417.14  c25.726-9.363,38.188-48.507,19.5-70.5C467.999,306.18,479.389,399.229,482.879,417.14"/>
<path fill-rule="evenodd" clip-rule="evenodd" fill="#F8130D" stroke="#000000" stroke-width="1.25" stroke-linecap="square" stroke-miterlimit="10" d="  M483.629,333.89c12.447,23.701,9.501,55.845,1.5,82.5C519.257,405.088,523.088,339.484,483.629,333.89z"/>
<path fill-rule="evenodd" clip-rule="evenodd" fill="#1D0E82" stroke="#000000" stroke-width="1.25" stroke-linecap="square" stroke-miterlimit="10" d="  M483.629,416.39c24.207-21.848,25.826-61.774-1.5-82.5C496.953,357.294,493.146,391.382,483.629,416.39z"/>
<path fill-rule="evenodd" clip-rule="evenodd" fill="#FFFFFF" d="M363.627,337.64L363.627,337.64L363.627,337.64z"/>
<line fill="none" stroke="#000000" stroke-width="1.25" stroke-linecap="square" stroke-miterlimit="10" x1="363.627" y1="337.64" x2="363.627" y2="337.64"/>
<path fill-rule="evenodd" clip-rule="evenodd" fill="#F8130D" stroke="#000000" stroke-width="1.25" stroke-linecap="square" stroke-miterlimit="10" d="  M383.127,381.14c-2.092-101.537-135.284,24.765-40.5,39c1.955,10.76-4.214,9.097,9,10.5c-1.5-3.25-3-6.5-4.5-9.75  C368.309,420.577,382.957,401.385,383.127,381.14z"/>
<path fill-rule="evenodd" clip-rule="evenodd" fill="#1D0E82" stroke="#000000" stroke-width="1.25" stroke-linecap="square" stroke-miterlimit="10" d="  M372.627,363.14c-18.945,3.293-5.955,26.253,10.5,21C384.365,372.765,381.694,362.89,372.627,363.14z M374.877,370.64  c1.892,2.735,7.358-0.265,2.25,6C371.874,375.09,375.97,372.22,374.877,370.64z"/>
<path fill-rule="evenodd" clip-rule="evenodd" fill="#1D0E82" stroke="#000000" stroke-width="1.25" stroke-linecap="square" stroke-miterlimit="10" d="  M369.627,410.39c1.744-1.096,5.458-6.315,9.75-11.25C351.376,389.517,355.288,426.642,369.627,410.39z"/>
<path fill-rule="evenodd" clip-rule="evenodd" fill="#1D0E82" stroke="#000000" stroke-width="1.25" stroke-linecap="square" stroke-miterlimit="10" d="  M353.877,382.64c-8.197-18.103-43.986-19.065-37.5,6C322.155,410.972,352.622,401.386,353.877,382.64z M337.377,381.89  c-1.514,2.055,2.31,4.347-0.75,7.5C325.752,383.492,334.985,385.136,337.377,381.89z"/>
<path fill-rule="evenodd" clip-rule="evenodd" fill="#F7F619" stroke="#000000" stroke-width="1.25" stroke-linecap="square" stroke-miterlimit="10" d="  M342.627,384.14C323.641,410.828,323.641,357.452,342.627,384.14L342.627,384.14z"/>
<path fill-rule="evenodd" clip-rule="evenodd" fill="#1D0E82" stroke="#000000" stroke-width="1.25" stroke-linecap="square" stroke-miterlimit="10" d="  M361.377,354.14c-5.904-9.466-28.102-11.091-23.25,3.75C342.783,372.133,358.476,365.056,361.377,354.14z M351.627,354.14  c-2.048,1.897,1.638,5.874-3.75,3.75C345.887,351.878,349.948,355.695,351.627,354.14z"/>
<path fill-rule="evenodd" clip-rule="evenodd" fill="#F7F619" stroke="#000000" stroke-width="1.25" stroke-linecap="square" stroke-miterlimit="10" d="  M354.627,355.64C342.251,358.412,342.565,352.454,354.627,355.64L354.627,355.64z"/>
<path fill-rule="evenodd" clip-rule="evenodd" fill="#F7F619" stroke="#000000" stroke-width="1.25" stroke-linecap="square" stroke-miterlimit="10" d="  M380.127,372.89C365.847,380.776,365.711,364.527,380.127,372.89L380.127,372.89z"/>
<path fill-rule="evenodd" clip-rule="evenodd" fill="#F7F619" stroke="#000000" stroke-width="1.25" stroke-linecap="square" stroke-miterlimit="10" d="  M363.627,408.14c5.261,1.144,7.012,6.55,12.75-3.75C368.835,400.152,368.337,405.088,363.627,408.14z"/>
<path fill-rule="evenodd" clip-rule="evenodd" fill="#1D0E82" stroke="#000000" stroke-width="1.25" stroke-linecap="square" stroke-miterlimit="10" d="  M331.377,411.14c-4.682-2.961-3.887-8.284-12-4.5c4.646,5.773,10.984,10.199,18,12.75  C338.514,412.56,334.268,414.115,331.377,411.14z"/>
<path fill="none" stroke="#000000" stroke-width="1.25" stroke-linecap="square" stroke-miterlimit="10" d="M342.627,420.14  c7.326,8.201-1.43,30.07,11.25,42.75c14.049,14.049,25.745,23.3,28.5,45"/>
<path fill-rule="evenodd" clip-rule="evenodd" fill="#1D0E82" stroke="#000000" stroke-width="1.25" stroke-linecap="square" stroke-miterlimit="10" d="  M450.629,425.39c-1.974-95.794-132.034,18.812-37.502,38.25c-3.56,3.339-5.239,8.914-9,12c6.021,0.151,15.512,1.014,21.002,0.75  c-3.139-2.759-6.027-9.51-9.75-12.75C434.174,461.542,450.078,444.255,450.629,425.39z"/>
<path fill-rule="evenodd" clip-rule="evenodd" fill="#F7F619" stroke="#000000" stroke-width="1.25" stroke-linecap="square" stroke-miterlimit="10" d="  M420.629,418.64c-3.637,12.763-24.435,17.303-23.252,0C398.497,402.258,416.997,406.002,420.629,418.64z"/>
<path fill-rule="evenodd" clip-rule="evenodd" fill="#F7F619" stroke="#000000" stroke-width="1.25" stroke-linecap="square" stroke-miterlimit="10" d="  M434.129,445.64c-3.985,12.825-22.144,16.216-23.252,0C409.703,428.472,430.172,432.72,434.129,445.64z"/>
<path fill-rule="evenodd" clip-rule="evenodd" fill="#F7F619" stroke="#000000" stroke-width="1.25" stroke-linecap="square" stroke-miterlimit="10" d="  M434.129,427.64C451.117,468.293,450.346,383.449,434.129,427.64L434.129,427.64z"/>
<path fill-rule="evenodd" clip-rule="evenodd" fill="#F7F619" stroke="#000000" stroke-width="1.25" stroke-linecap="square" stroke-miterlimit="10" d="  M427.379,407.39c13.985-4.452,12.943-21.204-3-19.5C410.627,389.36,415.952,404.43,427.379,407.39z"/>
<path fill-rule="evenodd" clip-rule="evenodd" fill="#F7F619" stroke="#000000" stroke-width="1.25" stroke-linecap="square" stroke-miterlimit="10" d="  M399.627,397.64c-5.799-6.632-11.042,0.538-15.75,11.25C393.973,410.583,395.499,405.361,399.627,397.64z"/>
<path fill-rule="evenodd" clip-rule="evenodd" fill="#F7F619" stroke="#000000" stroke-width="1.25" stroke-linecap="square" stroke-miterlimit="10" d="  M401.127,442.64c-2.832-6.525-22.004-17.014-18.75-5.625C386.202,450.403,395.385,459.183,401.127,442.64z"/>
</svg>