<svg xmlns="http://www.w3.org/2000/svg" xmlns:xlink="http://www.w3.org/1999/xlink" version="1.1" id="Layer_1" x="0px" y="0px" enable-background="new 0 0 822.05 841.89" xml:space="preserve" viewBox="350.87 246.03 121.67 350.75">
<path fill-rule="evenodd" clip-rule="evenodd" fill="#E7B989" stroke="#000000" stroke-width="2" stroke-linecap="square" stroke-miterlimit="10" d="  M424.291,334.029c3.724,27.064,18.455-7.254,25.206-18.114c10.792-17.361,3.888-45.418-13.206-54.636  c2.688,0.321,5.047,1.849,8.25,3c-3.401-4.504,0.174-3.269-7.5-7.5c39.654-11.937,25.953,114-12.586,114  c-29.656,0-32.62-19.401-44.384-45.87c-13.973-31.44-8.317-54.167,17.22-77.88c0.323,0.677,0.823,0.927,1.5,0.75  c0.846,0.93-2.701,3.786-3,4.5c2.535,1.213,5.706-0.788,6.75,2.25c-5.455,1.038-8.486,3.936-12.75,5.25  c3.304,0.684,5.593-0.055,8.25,2.25c-29.733,4.002-16.869,42.108-6.375,60.375C409.033,352.635,401.094,338.524,424.291,334.029z"/>
<path fill-rule="evenodd" clip-rule="evenodd" fill="#E7B989" stroke="#000000" stroke-width="2" stroke-linecap="square" stroke-miterlimit="10" d="  M412.293,454.029c40.813-2.333,7.987,50.293,5.248,72.75c-2.492,20.433,8.498,55.188-8.998,69c0.341-7.31-2.841-16.072-3.752-23.25  c-0.787-6.199,1.638-11.489,1.502-17.25C405.467,520.319,408.204,489.299,412.293,454.029z"/>
<path fill-rule="evenodd" clip-rule="evenodd" fill="#E7B989" stroke="#000000" stroke-width="2" stroke-linecap="square" stroke-miterlimit="10" d="  M426.541,318.279c2.444,22.349-21.07,23.503-22.5,1.5C402.587,297.411,425.592,296.203,426.541,318.279z"/>
<path fill-rule="evenodd" clip-rule="evenodd" fill="#E7B989" stroke="#000000" stroke-width="2" stroke-linecap="square" stroke-miterlimit="10" d="  M367.291,427.779c-47.022-7.317,26.354,69.33,49.5,73.5c19.812,3.569-1.03-10.868-5.998-17.25  c-9.88-12.691-21.539-20.401-33.752-37.5c4,0.5,8,1,12,1.5C381.791,441.279,374.541,434.529,367.291,427.779z"/>
<path fill-rule="evenodd" clip-rule="evenodd" fill="#FFFFFF" stroke="#000000" stroke-width="2" stroke-linecap="square" stroke-miterlimit="10" d="  M400.291,373.029c4.757-17.777,16.797-19.306,26.25-3.75c33.247-39.751,6.533,52.5,7.5,52.5  C395.168,421.779,413.051,397.615,400.291,373.029z"/>
<path fill-rule="evenodd" clip-rule="evenodd" fill="#FFFFFF" stroke="#000000" stroke-width="2" stroke-linecap="square" stroke-miterlimit="10" d="  M401.041,408.279c-13.349,0.534-41.719-5.756-41.25,13.5c0.189,7.78,16.545,19.025,22.125,22.125  c22.524,12.514,65.543,25.524,89.625,12.375c-10.888-14.956-20.756-30.502-36-37.5C423.555,413.276,411.654,420.486,401.041,408.279  z"/>
<line fill="none" stroke="#000000" stroke-width="2" stroke-linecap="square" stroke-miterlimit="10" x1="403.291" y1="412.779" x2="363.541" y2="415.779"/>
<line fill="none" stroke="#000000" stroke-width="2" stroke-linecap="square" stroke-miterlimit="10" x1="408.543" y1="415.779" x2="364.291" y2="426.279"/>
<line fill="none" stroke="#000000" stroke-width="2" stroke-linecap="square" stroke-miterlimit="10" x1="413.043" y1="418.029" x2="373.291" y2="436.779"/>
<line fill="none" stroke="#000000" stroke-width="2" stroke-linecap="square" stroke-miterlimit="10" x1="419.041" y1="419.529" x2="386.041" y2="443.529"/>
<line fill="none" stroke="#000000" stroke-width="2" stroke-linecap="square" stroke-miterlimit="10" x1="424.291" y1="419.529" x2="403.291" y2="448.779"/>
<line fill="none" stroke="#000000" stroke-width="2" stroke-linecap="square" stroke-miterlimit="10" x1="435.541" y1="419.529" x2="462.541" y2="459.279"/>
<line fill="none" stroke="#000000" stroke-width="2" stroke-linecap="square" stroke-miterlimit="10" x1="431.041" y1="418.779" x2="443.041" y2="459.279"/>
<line fill="none" stroke="#000000" stroke-width="2" stroke-linecap="square" stroke-miterlimit="10" x1="427.291" y1="418.779" x2="420.541" y2="455.529"/>
</svg>