<svg xmlns="http://www.w3.org/2000/svg" xmlns:xlink="http://www.w3.org/1999/xlink" version="1.1" id="Layer_1" x="0px" y="0px" enable-background="new 0 0 822.05 841.89" xml:space="preserve" viewBox="350.78 340.18 117.66 163.25">
<path fill-rule="evenodd" clip-rule="evenodd" fill="#F87F11" d="M455.889,349.804c3.901-3.47,6.188-6.967,11.25-9  c-8.291,1.849-11.872,4.224-18.75,10.5C451.902,352.593,452.455,350.175,455.889,349.804z"/>
<path fill="none" stroke="#000000" stroke-width="1.25" stroke-linecap="square" stroke-miterlimit="10" d="M455.889,349.804  c3.901-3.47,6.188-6.967,11.25-9c-8.291,1.849-11.872,4.224-18.75,10.5C451.902,352.593,452.455,350.175,455.889,349.804z"/>
<path fill-rule="evenodd" clip-rule="evenodd" fill="#FFFFFF" d="M467.139,340.804c-6.861,3.257-11.62,8.258-18,10.5  C459.606,359.488,470.695,353.331,467.139,340.804z"/>
<path fill="none" stroke="#000000" stroke-width="1.25" stroke-linecap="square" stroke-miterlimit="10" d="M467.139,340.804  c-6.861,3.257-11.62,8.258-18,10.5C459.606,359.488,470.695,353.331,467.139,340.804z"/>
<path fill-rule="evenodd" clip-rule="evenodd" fill="#F87F11" d="M365.885,376.054c-7.306-14.489-17.921,16.591,0.75,22.5  C365.079,391.325,366.828,382.502,365.885,376.054z"/>
<path fill="none" stroke="#000000" stroke-width="1.25" stroke-linecap="square" stroke-miterlimit="10" d="M365.885,376.054  c-7.306-14.489-17.921,16.591,0.75,22.5C365.079,391.325,366.828,382.502,365.885,376.054z"/>
<path fill-rule="evenodd" clip-rule="evenodd" fill="#F87F11" d="M432.639,421.054c-4.355,21.16-16.728,52.329-3,71.998  c-1.159,0.907-2.409,1.657-3.75,2.25C412.768,480.121,412.555,426.25,432.639,421.054z"/>
<path fill="none" stroke="#000000" stroke-width="1.25" stroke-linecap="square" stroke-miterlimit="10" d="M432.639,421.054  c-4.355,21.16-16.728,52.329-3,71.998c-1.159,0.907-2.409,1.657-3.75,2.25C412.768,480.121,412.555,426.25,432.639,421.054z"/>
<path fill-rule="evenodd" clip-rule="evenodd" fill="#F87F11" d="M437.889,393.304c-0.995-0.065-2.862-2.11-2.25-3  c-1.25,1.25-2.5,2.5-3.75,3.75c-2.941-11.575,8.62-26.572,27-27.75c-2.019-14.69-23.909-28.728-32.25-7.875  c-6.933,17.331,2.644,38.629-27.753,31.875c-30.088-6.685-36.001,0.812-36.001,29.25c0,18.513-23.697,53.286-3,65.248  c-6.438-20.052,3.067-67.661,33-52.5c15.868,8.037,16.37,71.061,30.754,70.5c-8.273-17.842-12.535-52.739-4.5-69  C422.764,426.466,458.163,397.576,437.889,393.304z"/>
<path fill="none" stroke="#000000" stroke-width="1.25" stroke-linecap="square" stroke-miterlimit="10" d="M437.889,393.304  c-0.995-0.065-2.862-2.11-2.25-3c-1.25,1.25-2.5,2.5-3.75,3.75c-2.941-11.575,8.62-26.572,27-27.75  c-2.019-14.69-23.909-28.728-32.25-7.875c-6.933,17.331,2.644,38.629-27.753,31.875c-30.088-6.685-36.001,0.812-36.001,29.25  c0,18.513-23.697,53.286-3,65.248c-6.438-20.052,3.067-67.661,33-52.5c15.868,8.037,16.37,71.061,30.754,70.5  c-8.273-17.842-12.535-52.739-4.5-69C422.764,426.466,458.163,397.576,437.889,393.304z"/>
<path fill-rule="evenodd" clip-rule="evenodd" fill="#FFFFFF" d="M424.389,352.804c-24.529-8.834-14.171,18.061,6,5.25  C429.239,355.072,426.396,355.448,424.389,352.804z"/>
<path fill="none" stroke="#000000" stroke-width="1.25" stroke-linecap="square" stroke-miterlimit="10" d="M424.389,352.804  c-24.529-8.834-14.171,18.061,6,5.25C429.239,355.072,426.396,355.448,424.389,352.804z"/>
<path fill-rule="evenodd" clip-rule="evenodd" fill="#F87F11" d="M424.389,352.804c1.34,0.111,4.707,3.008,6,3.75  c0.5-0.5,1-1,1.5-1.5c-7.77-6.648-11.309-10.498-21.752-4.5C416.492,348.596,418.929,351.64,424.389,352.804z"/>
<path fill="none" stroke="#000000" stroke-width="1.25" stroke-linecap="square" stroke-miterlimit="10" d="M424.389,352.804  c1.34,0.111,4.707,3.008,6,3.75c0.5-0.5,1-1,1.5-1.5c-7.77-6.648-11.309-10.498-21.752-4.5  C416.492,348.596,418.929,351.64,424.389,352.804z"/>
<path fill-rule="evenodd" clip-rule="evenodd" fill="#FFFFFF" stroke="#000000" stroke-width="1.25" stroke-linecap="square" stroke-miterlimit="10" d="  M458.889,366.304c-16.888,1.082-30.448,12.351-27,30.75c4.731-0.074,0.905-0.166,6,0.75  C438.922,378.672,462.452,379.374,458.889,366.304z"/>
<path fill-rule="evenodd" clip-rule="evenodd" fill="#FFFFFF" d="M446.889,370.804c5.266,2.379,6.267,5.647,12.75,3.75  C455.389,373.304,451.139,372.054,446.889,370.804z"/>
<path fill="none" stroke="#000000" stroke-width="1.25" stroke-linecap="square" stroke-miterlimit="10" d="M446.889,370.804  c3.445,3.792,7.846,5.185,12.75,3.75"/>
<path fill-rule="evenodd" clip-rule="evenodd" fill="#FFFFFF" stroke="#000000" stroke-width="1.25" stroke-linecap="square" stroke-miterlimit="10" d="  M383.135,388.804c-3.57,2.629-2.791,8.426-10.5,6C374.562,387.065,379.014,390.838,383.135,388.804z"/>
<path fill-rule="evenodd" clip-rule="evenodd" fill="#FFFFFF" stroke="#000000" stroke-width="1.25" stroke-linecap="square" stroke-miterlimit="10" d="  M408.637,396.304c-3.458,2.525-2.429,7.367-9.752,6.75C398.706,394.536,404.324,398.304,408.637,396.304z"/>
<path fill-rule="evenodd" clip-rule="evenodd" fill="#FFFFFF" stroke="#000000" stroke-width="1.25" stroke-linecap="square" stroke-miterlimit="10" d="  M386.135,396.304C379.484,402.764,379.436,402.811,386.135,396.304L386.135,396.304z"/>
<path fill-rule="evenodd" clip-rule="evenodd" fill="#FFFFFF" stroke="#000000" stroke-width="1.25" stroke-linecap="square" stroke-miterlimit="10" d="  M394.385,390.304C395.954,395.434,396.521,397.29,394.385,390.304L394.385,390.304z"/>
<path fill-rule="evenodd" clip-rule="evenodd" fill="#FFFFFF" stroke="#000000" stroke-width="1.25" stroke-linecap="square" stroke-miterlimit="10" d="  M415.387,391.054C416.875,396.483,417.268,397.912,415.387,391.054L415.387,391.054z"/>
<path fill-rule="evenodd" clip-rule="evenodd" stroke="#000000" stroke-width="1.25" stroke-linecap="square" stroke-miterlimit="10" d="  M463.389,368.554c-2.986,0.192-4.935,5.697-9.75,0C458.248,364.341,460.218,368.758,463.389,368.554z"/>
<path fill-rule="evenodd" clip-rule="evenodd" d="M446.139,364.054c-1.731-0.21-2.395,4.57-5.25,0  C443.898,357.702,443.902,363.782,446.139,364.054z"/>
</svg>