<svg xmlns="http://www.w3.org/2000/svg" xmlns:xlink="http://www.w3.org/1999/xlink" version="1.1" id="Layer_1" x="0px" y="0px" enable-background="new 0 0 822.05 841.89" xml:space="preserve" viewBox="305.8 335.64 208.7 175.62">
<path fill-rule="evenodd" clip-rule="evenodd" stroke="#000000" stroke-width="1.25" stroke-linecap="square" stroke-miterlimit="10" d="  M330.875,378.265c-6.534,6.267-17.461,12.209-24,15.75C316.179,390.527,325.02,385.329,330.875,378.265z"/>
<path fill-rule="evenodd" clip-rule="evenodd" stroke="#000000" stroke-width="1.25" stroke-linecap="square" stroke-miterlimit="10" d="  M306.875,394.015c5.796,1.354,11.023,1.771,16.5,4.5C318.444,395.201,311.519,394.87,306.875,394.015z"/>
<path fill-rule="evenodd" clip-rule="evenodd" stroke="#000000" stroke-width="1.25" stroke-linecap="square" stroke-miterlimit="10" d="  M309.125,394.015C305.747,393.163,305.312,393.053,309.125,394.015L309.125,394.015z"/>
<path fill-rule="evenodd" clip-rule="evenodd" stroke="#000000" stroke-width="1.25" stroke-linecap="square" stroke-miterlimit="10" d="  M411.125,367.015c-7.511,0.75-23.757,2.514-30.75,5.25C390.613,370.474,400.874,368.62,411.125,367.015z"/>
<path fill-rule="evenodd" clip-rule="evenodd" fill="#EDCBA6" stroke="#000000" stroke-width="1.25" stroke-linecap="square" stroke-miterlimit="10" d="  M346.625,374.515c9.25,2.862,20.108,8.448,27.75,12C365.838,380.79,356.066,375.56,346.625,374.515z"/>
<path fill-rule="evenodd" clip-rule="evenodd" fill="#EDCBA6" stroke="#000000" stroke-width="1.25" stroke-linecap="square" stroke-miterlimit="10" d="  M375.125,388.015c3.016-5.108,6.812-12.537,9-16.5C379.814,376.481,377.461,383.407,375.125,388.015z"/>
<path fill-rule="evenodd" clip-rule="evenodd" fill="#EDCBA6" stroke="#000000" stroke-width="1.25" stroke-linecap="square" stroke-miterlimit="10" d="  M375.875,385.765C373.373,389.327,373.918,388.551,375.875,385.765L375.875,385.765z"/>
<path fill-rule="evenodd" clip-rule="evenodd" fill="#EDCBA6" stroke="#000000" stroke-width="1.25" stroke-linecap="square" stroke-miterlimit="10" d="  M393.125,369.265c-2.596,0.761-4.364,5.184-9.75,3C386.13,366.67,389.014,370.471,393.125,369.265z"/>
<path fill-rule="evenodd" clip-rule="evenodd" fill="#FFFFFF" stroke="#000000" stroke-width="1.25" stroke-linecap="square" stroke-miterlimit="10" d="  M361.625,445.015c-16.356,3.085-43.167-12.817-24-31.5C361.739,390.009,361.625,436.496,361.625,445.015z"/>
<path fill-rule="evenodd" clip-rule="evenodd" stroke="#000000" stroke-width="1.25" stroke-linecap="square" stroke-miterlimit="10" d="  M369.125,412.015c4.477,3.804,8.815,7.701,13.5,11.25C377.498,421.658,370.485,413.431,369.125,412.015z"/>
<path fill-rule="evenodd" clip-rule="evenodd" d="M380.375,422.515c-5.069,5.939-10.001,12.001-15,18  C371.265,435.676,379.87,424.859,380.375,422.515z"/>
<path fill="none" stroke="#000000" stroke-width="1.25" stroke-linecap="square" stroke-miterlimit="10" d="M380.375,422.515  c-5.069,5.939-10.001,12.001-15,18C371.265,435.676,379.87,424.859,380.375,422.515"/>
<path fill-rule="evenodd" clip-rule="evenodd" fill="#200F75" stroke="#000000" stroke-width="1.25" stroke-linecap="square" stroke-miterlimit="10" d="  M366.875,438.265C401.984,453.541,360.264,449.623,366.875,438.265L366.875,438.265z"/>
<path fill-rule="evenodd" clip-rule="evenodd" stroke="#000000" stroke-width="1.25" stroke-linecap="square" stroke-miterlimit="10" d="  M334.625,415.765c-5.191,2.881-9.273,5.997-15,7.5c0.5,0.5,1,1,1.5,1.5C325.59,422.944,334.737,415.695,334.625,415.765z"/>
<path fill-rule="evenodd" clip-rule="evenodd" d="M322.625,423.265c3.338,6.956,6.501,14.002,9.75,21  C328.286,438.839,323.252,425.856,322.625,423.265z"/>
<path fill="none" stroke="#000000" stroke-width="1.25" stroke-linecap="square" stroke-miterlimit="10" d="M322.625,423.265  c3.338,6.956,6.501,14.002,9.75,21C328.286,438.839,323.252,425.856,322.625,423.265"/>
<path fill-rule="evenodd" clip-rule="evenodd" fill="#200F75" stroke="#000000" stroke-width="1.25" stroke-linecap="square" stroke-miterlimit="10" d="  M331.625,441.265c-8.374,1.845-14.188,1.364-15.75,9.75C327.295,450.624,331.607,447.454,331.625,441.265z"/>
<path fill-rule="evenodd" clip-rule="evenodd" fill="#EDCBA6" stroke="#000000" stroke-width="1.25" stroke-linecap="square" stroke-miterlimit="10" d="  M360.125,346.015c10.361,16.889-8.243,27.208-20.25,12C348.53,355.527,352.992,349.916,360.125,346.015z"/>
<path fill-rule="evenodd" clip-rule="evenodd" fill="#F8130D" stroke="#000000" stroke-width="1.25" stroke-linecap="square" stroke-miterlimit="10" d="  M339.125,355.015c10.796-3.983,20.987-10.511,28.5-18.75C355.467,338.532,338.829,337.337,339.125,355.015z"/>
<path fill-rule="evenodd" clip-rule="evenodd" fill="#F8130D" stroke="#000000" stroke-width="1.25" stroke-linecap="square" stroke-miterlimit="10" d="  M342.125,367.765c15.23-1.241,38.762,2.986,27.75,22.5c-2-2.5-4-5-6-7.5c2.331,6.276,0.122,14.396,1.5,21c-11.75,0-23.5,0-35.25,0  c2.75-6.688,2.958-15.635,6.75-21.75c-2.75,3-5.5,6-8.25,9C319.609,377.629,326.683,369.623,342.125,367.765z"/>
<path fill-rule="evenodd" clip-rule="evenodd" fill="#200F75" stroke="#000000" stroke-width="1.25" stroke-linecap="square" stroke-miterlimit="10" d="  M324.125,415.015c4.65,8.155,47.076,7.009,54.75,0.75C365.128,401.368,337.875,400.79,324.125,415.015z"/>
<path fill-rule="evenodd" clip-rule="evenodd" fill="#B5B5B1" stroke="#000000" stroke-width="1.25" stroke-linecap="square" stroke-miterlimit="10" d="  M381.875,418.015c-0.639-4.452-2.056-15.449,0-20.25C381.875,404.51,382.062,411.273,381.875,418.015z"/>
<path fill-rule="evenodd" clip-rule="evenodd" fill="#B5B5B1" stroke="#000000" stroke-width="1.25" stroke-linecap="square" stroke-miterlimit="10" d="  M360.875,428.515c-2.696-6.123-2.696-20.877,0-27C360.875,410.515,360.875,419.515,360.875,428.515z"/>
<path fill-rule="evenodd" clip-rule="evenodd" fill="#FFFFFF" stroke="#000000" stroke-width="1.25" stroke-linecap="square" stroke-miterlimit="10" d="  M372.125,393.265c0.25,4.5,0.5,9,0.75,13.5c5.448,0.881,15.862-0.236,21-2.25C395.372,388.958,383.693,386.73,372.125,393.265z"/>
<path fill-rule="evenodd" clip-rule="evenodd" fill="#B5B5B1" stroke="#000000" stroke-width="1.25" stroke-linecap="square" stroke-miterlimit="10" d="  M393.875,404.515c-7.381,2.394-14.14,5.34-21,2.25C380.164,402.872,386.654,404.201,393.875,404.515z"/>
<path fill-rule="evenodd" clip-rule="evenodd" fill="#B5B5B1" stroke="#000000" stroke-width="1.25" stroke-linecap="square" stroke-miterlimit="10" d="  M381.875,391.015c3.688-0.06,8.464,0.433,11.25,0.75c-9.186-1.234-13.343-2.339-21.75,2.25  C374.839,391.62,377.786,391.589,381.875,391.015z"/>
<path fill-rule="evenodd" clip-rule="evenodd" fill="#B5B5B1" stroke="#000000" stroke-width="1.25" stroke-linecap="square" stroke-miterlimit="10" d="  M410.375,462.265c-2.25-24.175-2.25-56.076,0-80.25C410.375,408.765,410.375,435.515,410.375,462.265z"/>
<path fill-rule="evenodd" clip-rule="evenodd" fill="#B5B5B1" stroke="#000000" stroke-width="1.25" stroke-linecap="square" stroke-miterlimit="10" d="  M411.875,385.015C408.581,381.721,408.581,381.721,411.875,385.015L411.875,385.015z"/>
<path fill-rule="evenodd" clip-rule="evenodd" fill="#B5B5B1" stroke="#000000" stroke-width="1.25" stroke-linecap="square" stroke-miterlimit="10" d="  M411.125,407.515C409.577,405.275,407.957,402.931,411.125,407.515L411.125,407.515z"/>
<path fill-rule="evenodd" clip-rule="evenodd" fill="#B5B5B1" stroke="#000000" stroke-width="1.25" stroke-linecap="square" stroke-miterlimit="10" d="  M407.375,441.265c-8.951,1.32-0.102,11.9,9,19.5C413.686,455.966,410.016,446.492,407.375,441.265z"/>
<path fill-rule="evenodd" clip-rule="evenodd" stroke="#000000" stroke-width="1.25" stroke-linecap="square" stroke-miterlimit="10" d="  M418.625,460.015C415.383,462.572,416.405,461.765,418.625,460.015L418.625,460.015z"/>
<path fill-rule="evenodd" clip-rule="evenodd" fill="#FFFFFF" stroke="#000000" stroke-width="1.25" stroke-linecap="square" stroke-miterlimit="10" d="  M365.375,451.015c-24.547-24.807,8.75-46.836,33.75-34.5c-7.25,14.25-14.5,28.5-21.75,42.75  C373.375,456.515,369.375,453.765,365.375,451.015z"/>
<path fill-rule="evenodd" clip-rule="evenodd" fill="#F7DE58" stroke="#000000" stroke-width="1.25" stroke-linecap="square" stroke-miterlimit="10" d="  M360.875,379.015c-4.649,3.729-42.573,12.637-41.25,0C321.084,365.076,355.401,373.23,360.875,379.015z"/>
<path fill-rule="evenodd" clip-rule="evenodd" fill="#F7DE58" stroke="#000000" stroke-width="1.25" stroke-linecap="square" stroke-miterlimit="10" d="  M345.875,379.765c-2.511-0.052-5.255,1.369-8.25,0C341.11,377.394,342.934,379.705,345.875,379.765z"/>
<path fill-rule="evenodd" clip-rule="evenodd" fill="#B5B5B1" stroke="#000000" stroke-width="1.25" stroke-linecap="square" stroke-miterlimit="10" d="  M355.625,452.515c-4.548-7.352-10.56-14.08-15.75-21c12.6,12.733,3.648,24.598-12.75,15c2.5-2.75,5-5.5,7.5-8.25  c-5.908,3.916-14.016,13.47-17.25,20.25c7.185-14.336,18.614-5.08,30.75-13.5C349.778,449.161,355.391,452.331,355.625,452.515z"/>
<path fill-rule="evenodd" clip-rule="evenodd" fill="#FFFFFF" stroke="#000000" stroke-width="1.25" stroke-linecap="square" stroke-miterlimit="10" d="  M345.125,392.515c-1.341,6.284,1.038,14.526,1.5,21C387.417,416.738,371.431,374.717,345.125,392.515z"/>
<path fill-rule="evenodd" clip-rule="evenodd" fill="#B5B5B1" stroke="#000000" stroke-width="1.25" stroke-linecap="square" stroke-miterlimit="10" d="  M372.125,409.765c-7.336,5.619-17.086,7.278-26.25,4.5C353.367,408.009,363.277,406.225,372.125,409.765z"/>
<path fill-rule="evenodd" clip-rule="evenodd" fill="#B5B5B1" stroke="#000000" stroke-width="1.25" stroke-linecap="square" stroke-miterlimit="10" d="  M357.875,389.515c4.419,0.167,9.977,0.307,13.5,0.75c-9.847-5.015-21.155-3.425-26.25,3.75  C349.344,390.649,352.851,390.779,357.875,389.515z"/>
<path fill-rule="evenodd" clip-rule="evenodd" fill="#FFFFFF" stroke="#000000" stroke-width="1.25" stroke-linecap="square" stroke-miterlimit="10" d="  M352.625,438.265c-15.355,2.698-45.156-9.422-25.5-30c1.135-1.188,24.365-1.188,25.5,0  C355.944,411.74,352.625,432.944,352.625,438.265z"/>
<path fill-rule="evenodd" clip-rule="evenodd" fill="#B5B5B1" stroke="#000000" stroke-width="1.25" stroke-linecap="square" stroke-miterlimit="10" d="  M413.377,444.265c-3.779,31.484-45.588,25.452-41.252-6C376.466,406.782,416.574,413.217,413.377,444.265z"/>
<path fill-rule="evenodd" clip-rule="evenodd" fill="#282828" stroke="#000000" stroke-width="1.25" stroke-linecap="square" stroke-miterlimit="10" d="  M411.875,443.515c3.779-31.264-34.386-35.272-38.25-4.5C369.848,469.093,407.632,473.82,411.875,443.515z"/>
<path fill-rule="evenodd" clip-rule="evenodd" fill="#B5B5B1" stroke="#000000" stroke-width="1.25" stroke-linecap="square" stroke-miterlimit="10" d="  M370.625,449.515c-9.528-6.017-4.381,13.564-2.25,21.75C367.913,463.701,369.916,456.097,370.625,449.515z"/>
<path fill-rule="evenodd" clip-rule="evenodd" fill="#FFFFFF" stroke="#000000" stroke-width="1.25" stroke-linecap="square" stroke-miterlimit="10" d="  M352.625,408.265c-8.22,1.695-17.799,1.836-26.25,0C334.765,405.305,344.419,405.305,352.625,408.265z"/>
<path fill-rule="evenodd" clip-rule="evenodd" fill="#B5B5B1" stroke="#000000" stroke-width="1.25" stroke-linecap="square" stroke-miterlimit="10" d="  M351.875,436.765c-8.785,0.576-17.814,1.427-26.25,0.75C334.493,440.53,348.135,439.244,351.875,436.765z"/>
<path fill-rule="evenodd" clip-rule="evenodd" fill="#F7DE58" stroke="#000000" stroke-width="1.25" stroke-linecap="square" stroke-miterlimit="10" d="  M430.625,371.515c-3.934,3.863-37.629,19.83-39,8.25C390.242,368.088,425.31,368.844,430.625,371.515z"/>
<path fill-rule="evenodd" clip-rule="evenodd" fill="#B5B5B1" stroke="#000000" stroke-width="1.25" stroke-linecap="square" stroke-miterlimit="10" d="  M342.125,385.765c0-2.25,0-4.5,0-6.75c-1.26,6.871-6.129,18.873-9.75,24.75C335.625,397.766,338.825,391.737,342.125,385.765z"/>
<path fill-rule="evenodd" clip-rule="evenodd" fill="#F7DE58" stroke="#000000" stroke-width="1.25" stroke-linecap="square" stroke-miterlimit="10" d="  M412.625,375.265c-3.091,0.714-3.974,3.563-7.5,1.5C407.507,374.999,410.796,375.688,412.625,375.265z"/>
<path fill-rule="evenodd" clip-rule="evenodd" stroke="#000000" stroke-width="1.25" stroke-linecap="square" stroke-miterlimit="10" d="  M314.375,458.515C318.413,462.408,315.28,459.387,314.375,458.515L314.375,458.515z"/>
<path fill-rule="evenodd" clip-rule="evenodd" stroke="#000000" stroke-width="1.25" stroke-linecap="square" stroke-miterlimit="10" d="  M354.875,454.765C354.871,454.774,357.397,449.639,354.875,454.765L354.875,454.765z"/>
<path fill-rule="evenodd" clip-rule="evenodd" stroke="#000000" stroke-width="1.25" stroke-linecap="square" stroke-miterlimit="10" d="  M369.125,471.265C365.639,472.005,366.302,471.865,369.125,471.265L369.125,471.265z"/>
<path fill-rule="evenodd" clip-rule="evenodd" fill="#B5B5B1" stroke="#000000" stroke-width="1.25" stroke-linecap="square" stroke-miterlimit="10" d="  M384.125,412.015c-22.686-1.39-32.339,24.863-17.25,40.5C347.655,438.455,360.1,406.641,384.125,412.015z"/>
<path fill-rule="evenodd" clip-rule="evenodd" fill="#B5B5B1" stroke="#000000" stroke-width="1.25" stroke-linecap="square" stroke-miterlimit="10" d="  M414.127,387.265c0.846,1.622-5.745-10.453-6.002-11.25C409.839,378.3,412.526,384.194,414.127,387.265z"/>
<path fill-rule="evenodd" clip-rule="evenodd" stroke="#000000" stroke-width="1.25" stroke-linecap="square" stroke-miterlimit="10" d="  M337.625,409.015c-5.175-4.088-17.936-13.77-25.5-19.5C317.248,395.596,330.062,403.607,337.625,409.015z"/>
<path fill-rule="evenodd" clip-rule="evenodd" fill="#B5B5B1" stroke="#000000" stroke-width="1.25" stroke-linecap="square" stroke-miterlimit="10" d="  M339.875,455.515c-5.385-10.73-5.385-51.52,0-62.25C339.875,414.015,339.875,434.765,339.875,455.515z"/>
<path fill-rule="evenodd" clip-rule="evenodd" fill="#B5B5B1" stroke="#000000" stroke-width="1.25" stroke-linecap="square" stroke-miterlimit="10" d="  M341.375,394.015c-2.69-1.793-5.577,3.104-4.5-3C342.102,389.484,339.539,392.792,341.375,394.015z"/>
<path fill-rule="evenodd" clip-rule="evenodd" fill="#EDCBA6" stroke="#000000" stroke-width="1.25" stroke-linecap="square" stroke-miterlimit="10" d="  M328.625,399.265c-2.328-0.362-5.873,2.586-9-2.25C324.239,394.923,325.248,398.74,328.625,399.265z"/>
<path fill-rule="evenodd" clip-rule="evenodd" d="M452.375,470.515c-1.5,11.75-3,23.5-4.5,35.25  C449.259,497.402,452.893,474.127,452.375,470.515z"/>
<path fill="none" stroke="#000000" stroke-width="1.25" stroke-linecap="square" stroke-miterlimit="10" d="M452.375,470.515  c-1.5,11.75-3,23.5-4.5,35.25C449.259,497.402,452.893,474.127,452.375,470.515"/>
<path fill-rule="evenodd" clip-rule="evenodd" fill="#200F75" stroke="#000000" stroke-width="1.25" stroke-linecap="square" stroke-miterlimit="10" d="  M444.125,502.015C487.54,486.289,442.88,527.678,444.125,502.015L444.125,502.015z"/>
<path fill-rule="evenodd" clip-rule="evenodd" stroke="#000000" stroke-width="1.25" stroke-linecap="square" stroke-miterlimit="10" d="  M449.375,392.515c6.007,9.415,10.724,19.092,12.75,30C462.789,412.935,456.231,398.608,449.375,392.515z"/>
<path fill-rule="evenodd" clip-rule="evenodd" stroke="#000000" stroke-width="1.25" stroke-linecap="square" stroke-miterlimit="10" d="  M447.875,445.765c2.457,8.045,3.558,16.694,6,24.75C450.975,464.873,447.675,449.093,447.875,445.765z"/>
<path fill-rule="evenodd" clip-rule="evenodd" fill="#200F75" stroke="#000000" stroke-width="1.25" stroke-linecap="square" stroke-miterlimit="10" d="  M423.125,442.765c-1.591,8.83-3.94,17.99-6.75,26.25C420.086,463.417,422.518,450.275,423.125,442.765z"/>
<path fill-rule="evenodd" clip-rule="evenodd" fill="#200F75" d="M418.625,469.015c1.25,12.25,2.5,24.5,3.75,36.75  C420.686,496.706,417.693,473.464,418.625,469.015z"/>
<path fill="none" stroke="#000000" stroke-width="1.25" stroke-linecap="square" stroke-miterlimit="10" d="M418.625,469.015  c1.25,12.25,2.5,24.5,3.75,36.75C420.686,496.706,417.693,473.464,418.625,469.015"/>
<path fill-rule="evenodd" clip-rule="evenodd" fill="#200F75" stroke="#000000" stroke-width="1.25" stroke-linecap="square" stroke-miterlimit="10" d="  M423.875,501.265c-8.571-2.705-16.503-2.183-23.25,3C409.416,509.258,424.584,510.858,423.875,501.265z"/>
<path fill-rule="evenodd" clip-rule="evenodd" fill="#F8130D" stroke="#000000" stroke-width="1.25" stroke-linecap="square" stroke-miterlimit="10" d="  M429.125,383.515c15.835-4.77,29.414,2.416,39,15c-3.61,3.657-6.889,9.374-11.25,12c-1.25-2.5-2.5-5-3.75-7.5  c1.958,8.169,0.974,17.184,2.25,25.5c-15,0.75-30,1.5-45,2.25c6.572-11.614,5.222-23.453-6-30.75  C412.625,394.515,420.875,389.015,429.125,383.515z"/>
<path fill-rule="evenodd" clip-rule="evenodd" fill="#F4E619" d="M415.625,411.265l7.5-6L415.625,411.265z"/>
<line fill="none" stroke="#000000" stroke-width="1.25" stroke-linecap="square" stroke-miterlimit="10" x1="415.625" y1="411.265" x2="423.125" y2="405.265"/>
<path fill-rule="evenodd" clip-rule="evenodd" fill="#200F75" stroke="#000000" stroke-width="1.25" stroke-linecap="square" stroke-miterlimit="10" d="  M418.625,434.515c-3.132,5.899-22.047,29.641-10.875,31.875c15.046,3.009,24.895,1.175,28.125-17.625  c2.19,9.684,20.845,28.382,27,13.5C474.425,434.343,431.737,433.919,418.625,434.515z"/>
<path fill-rule="evenodd" clip-rule="evenodd" fill="#5E1F0A" stroke="#000000" stroke-width="1.25" stroke-linecap="square" stroke-miterlimit="10" d="  M513.875,400.765C510.782,368.875,471.581,431.125,513.875,400.765L513.875,400.765z M495.125,401.515c-0.18,0.098,6.809-6.263,12-6  C504.64,399.51,499.981,399.398,495.125,401.515z M497.375,405.265c-1.604,0.875,6.776-5.438,11.25-4.5  C505.14,402.604,501.06,403.632,497.375,405.265z"/>
<path fill-rule="evenodd" clip-rule="evenodd" fill="#F7DE58" stroke="#000000" stroke-width="1.25" stroke-linecap="square" stroke-miterlimit="10" d="  M451.625,421.015c6.383,17.371-14.268,25.438-26.25,30c-17.405,6.627-25.621,14.697-35.25-9.375  C376.151,406.706,444.756,396.941,451.625,421.015z"/>
<path fill-rule="evenodd" clip-rule="evenodd" fill="#FFFFFF" stroke="#000000" stroke-width="1.25" stroke-linecap="square" stroke-miterlimit="10" d="  M436.625,434.515C390.141,431.745,469.727,404.12,436.625,434.515L436.625,434.515z"/>
<path fill-rule="evenodd" clip-rule="evenodd" fill="#5E1F0A" stroke="#000000" stroke-width="1.25" stroke-linecap="square" stroke-miterlimit="10" d="  M406.625,423.265c-3.351,5.506-0.385,15.748,5.25,24C413.905,441.654,411.383,431.136,406.625,423.265z"/>
<path fill-rule="evenodd" clip-rule="evenodd" fill="#131211" stroke="#000000" stroke-width="1.25" stroke-linecap="square" stroke-miterlimit="10" d="  M435.125,431.515C422.165,421.118,438.188,415.591,435.125,431.515L435.125,431.515z"/>
<line fill="none" stroke="#000000" stroke-width="1.25" stroke-linecap="square" stroke-miterlimit="10" x1="500.375" y1="399.265" x2="500.375" y2="399.265"/>
<path fill-rule="evenodd" clip-rule="evenodd" fill="#99330C" stroke="#000000" stroke-width="1.25" stroke-linecap="square" stroke-miterlimit="10" d="  M435.125,429.265c-2.632-3.699-0.347-7.284-5.25-6.75C430.401,427.067,434.632,428.572,435.125,429.265z M437.375,427.765  c10.939-3.009,26.381-8.603,38.625-13.5c7.588-3.035,23.551-18.131,12.764-14c-18.37,7.036-36.987,14.199-54.389,20.75  C433.877,419.599,438.686,431.748,437.375,427.765z M437.375,428.515c-2.632-3.699-0.347-7.284-5.25-6.75  C432.651,426.317,436.882,427.822,437.375,428.515z"/>
<path fill-rule="evenodd" clip-rule="evenodd" fill="#282828" stroke="#000000" stroke-width="1.25" stroke-linecap="square" stroke-miterlimit="10" d="  M435.125,431.515C422.031,422.085,437.494,415.416,435.125,431.515L435.125,431.515z"/>
<path fill-rule="evenodd" clip-rule="evenodd" stroke="#000000" stroke-width="1.25" stroke-linecap="square" stroke-miterlimit="10" d="  M411.875,408.265c-3.935,6.19-5.629,12.072-11.25,17.25C407.958,422.171,409.048,414.807,411.875,408.265z"/>
<path fill-rule="evenodd" clip-rule="evenodd" stroke="#000000" stroke-width="1.25" stroke-linecap="square" stroke-miterlimit="10" d="  M402.875,427.015c9.082,0.104,17.684,0.681,26.25,3.75C421.598,426.265,410.981,424.794,402.875,427.015z"/>
<path fill-rule="evenodd" clip-rule="evenodd" fill="#EDCBA6" stroke="#000000" stroke-width="1.25" stroke-linecap="square" stroke-miterlimit="10" d="  M435.875,432.265c-5.704-0.799-9.786,3.113-14.25-4.5C428.57,423.802,430.56,428.831,435.875,432.265z"/>
<path fill-rule="evenodd" clip-rule="evenodd" stroke="#000000" stroke-width="1.25" stroke-linecap="square" stroke-miterlimit="10" d="  M403.625,425.515C398.337,426.375,398.925,426.279,403.625,425.515L403.625,425.515z"/>
<path fill-rule="evenodd" clip-rule="evenodd" fill="#EDCBA6" stroke="#000000" stroke-width="1.25" stroke-linecap="square" stroke-miterlimit="10" d="  M464.375,421.765c6.962-3.783,12.53-8.136,20.25-10.5C476.942,412.232,469.159,417.951,464.375,421.765z"/>
<path fill-rule="evenodd" clip-rule="evenodd" fill="#EDCBA6" stroke="#000000" stroke-width="1.25" stroke-linecap="square" stroke-miterlimit="10" d="  M464.375,420.265C461.472,423.335,460.85,423.994,464.375,420.265L464.375,420.265z"/>
<path fill-rule="evenodd" clip-rule="evenodd" fill="#EDCBA6" stroke="#000000" stroke-width="1.25" stroke-linecap="square" stroke-miterlimit="10" d="  M493.625,404.515c-3.63,2.665-4.352,8.565-12,6C484.76,403.242,488.688,406.427,493.625,404.515z"/>
<path fill-rule="evenodd" clip-rule="evenodd" fill="#EDCBA6" stroke="#000000" stroke-width="1.25" stroke-linecap="square" stroke-miterlimit="10" d="  M449.375,364.015c7.801,23.449-22.46,26.103-28.5,4.5C430.614,368.834,440.249,367.321,449.375,364.015z"/>
<path fill-rule="evenodd" clip-rule="evenodd" fill="#200F75" stroke="#000000" stroke-width="1.25" stroke-linecap="square" stroke-miterlimit="10" d="  M420.875,367.015c13.929-0.056,29.021-2.95,40.5-9.75C447.812,358.343,425.629,343.36,420.875,367.015z"/>
</svg>