<svg xmlns="http://www.w3.org/2000/svg" xmlns:xlink="http://www.w3.org/1999/xlink" version="1.1" id="Layer_1" x="0px" y="0px" enable-background="new 0 0 822.05 841.89" xml:space="preserve" viewBox="362.26 335.28 97.25 174.15">
<path fill-rule="evenodd" clip-rule="evenodd" fill="#E9CCA9" stroke="#000000" stroke-width="1.25" stroke-linecap="square" stroke-miterlimit="10" d="  M447.637,369.55c-3.238-5.23-6.764,8.602-12,17.25c-1.518-8.529-8.908-13.022-12-18.75c-5.972-11.064-2.287-6.298-4.125-21  c-3.182-25.457-31.894-1.85-14.627,16.5c-22.528,5.058-19.408,42.559-42,54.75c-0.107,1.484,3.752,0.621,3.75,0.75  c-6.702,21.943,23.715-16.621,28.5-27.75c6.08,18.004-2.46,43.993-1.5,63.748c0.918,18.885,10.304,44.982-11.25,53.25  c31.975,6.674,23.132-54.327,27-78c1.52,25.689-5.93,84.164,27.002,78c-24.939-9.079-10.674-45.575-10.5-66  c0.159-18.792-11.003-42.295-2.25-59.248c14.234,31.103,27.842-7.939,35.25-21C452.94,363.136,451.778,366.458,447.637,369.55z"/>
<path fill="none" stroke="#000000" stroke-width="0.75" stroke-linecap="square" stroke-miterlimit="10" d="M395.885,386.05  c4.547,7.538,8.194,7.306,10.5-1.5"/>
<path fill="none" stroke="#000000" stroke-width="0.75" stroke-linecap="square" stroke-miterlimit="10" d="M409.385,384.55  c3.26,7.834,7.162,7.532,11.252,0"/>
<path fill-rule="evenodd" clip-rule="evenodd" stroke="#000000" stroke-linecap="square" stroke-miterlimit="10" d="  M406.385,427.298c1,2.75,2,5.5,3,8.25c1.25-2.75,2.5-5.5,3.75-8.25C410.885,427.298,408.635,427.298,406.385,427.298z"/>
</svg>