<svg xmlns="http://www.w3.org/2000/svg" xmlns:xlink="http://www.w3.org/1999/xlink" version="1.1" id="Layer_1" x="0px" y="0px" enable-background="new 0 0 822.05 841.89" xml:space="preserve" viewBox="236.25 250.67 349.29 340.78">
<path fill="none" stroke="#ED2224" stroke-linecap="square" stroke-miterlimit="10" d="M278.5,386.39c4.845-3.25,9.63-3.358,14.25,0  "/>
<path fill="none" stroke="#ED2224" stroke-linecap="square" stroke-miterlimit="10" d="M277.75,390.89  c4.09-1.031,8.102-0.788,12,0.75"/>
<path fill="none" stroke="#ED2224" stroke-linecap="square" stroke-miterlimit="10" d="M276.25,394.64  c5.652-0.318,10.994,1.247,15.75,4.5"/>
<path fill="none" stroke="#000000" stroke-width="2" stroke-linecap="square" stroke-miterlimit="10" d="M399.25,330.14  c2.991,104.888-162,105.049-162,0C237.25,225.426,402.23,225.6,399.25,330.14z"/>
<path fill="none" stroke="#ED2224" stroke-linecap="square" stroke-miterlimit="10" d="M259.75,276.14  c24.801,36.69,36.818,83.902,21.75,126.75"/>
<path fill="none" stroke="#ED2224" stroke-linecap="square" stroke-miterlimit="10" d="M356.5,258.14  c-14.806,42.099-11.748,91.593,24,122.25"/>
<path fill="none" stroke="#ED2224" stroke-linecap="square" stroke-miterlimit="10" d="M257.5,290.39c3.301-5.933,8.3-9.435,15-10.5  "/>
<path fill="none" stroke="#ED2224" stroke-linecap="square" stroke-miterlimit="10" d="M261.25,296.39  c3.397-4.929,7.896-8.432,13.5-10.5"/>
<path fill="none" stroke="#ED2224" stroke-linecap="square" stroke-miterlimit="10" d="M265,303.89  c3.253-6.727,8.481-10.153,15.75-9.75"/>
<path fill="none" stroke="#ED2224" stroke-linecap="square" stroke-miterlimit="10" d="M269.5,311.39  c2.479-5.941,7.014-8.649,13.5-8.25"/>
<path fill="none" stroke="#ED2224" stroke-linecap="square" stroke-miterlimit="10" d="M275.5,323.39  c2.491-7.125,7.599-9.466,15-7.5"/>
<path fill="none" stroke="#ED2224" stroke-linecap="square" stroke-miterlimit="10" d="M276.25,333.89  c5.595-6.22,12.445-7.285,20.25-3.75"/>
<path fill="none" stroke="#ED2224" stroke-linecap="square" stroke-miterlimit="10" d="M278.5,347.39  c4.947-6.093,11.195-8.099,18.75-6"/>
<path fill="none" stroke="#ED2224" stroke-linecap="square" stroke-miterlimit="10" d="M280,357.14  c4.186-6.089,9.671-7.907,16.5-5.25"/>
<path fill="none" stroke="#ED2224" stroke-linecap="square" stroke-miterlimit="10" d="M280,365.39c4.646-4.251,9.895-5.264,15.75-3  "/>
<path fill="none" stroke="#ED2224" stroke-linecap="square" stroke-miterlimit="10" d="M279.25,372.89  c5.064-3.536,10.415-4.192,15.75-1.5"/>
<path fill="none" stroke="#ED2224" stroke-linecap="square" stroke-miterlimit="10" d="M278.5,378.14  c5.804-2.008,11.324-1.212,16.5,2.25"/>
<path fill="none" stroke="#ED2224" stroke-linecap="square" stroke-miterlimit="10" d="M349,261.14c2.747,4.131,6.994,5.174,12,3.75  "/>
<path fill="none" stroke="#ED2224" stroke-linecap="square" stroke-miterlimit="10" d="M346,266.39c4.254,3.892,9.354,4.801,15,3"/>
<path fill="none" stroke="#ED2224" stroke-linecap="square" stroke-miterlimit="10" d="M344.5,272.39  c4.914,4.289,10.628,4.225,16.5,0.75"/>
<path fill="none" stroke="#ED2224" stroke-linecap="square" stroke-miterlimit="10" d="M343.75,278.39  c3.626,6.084,8.123,6.854,13.5,2.25"/>
<path fill="none" stroke="#ED2224" stroke-linecap="square" stroke-miterlimit="10" d="M343,287.39c5.084,4.948,10.635,5,16.5,0.75"/>
<path fill="none" stroke="#ED2224" stroke-linecap="square" stroke-miterlimit="10" d="M341.5,296.39  c5.461,2.485,10.973,2.463,16.5,0"/>
<path fill="none" stroke="#ED2224" stroke-linecap="square" stroke-miterlimit="10" d="M339.25,306.14  c6.358,3.452,12.612,3.171,18.75-0.75"/>
<path fill="none" stroke="#ED2224" stroke-linecap="square" stroke-miterlimit="10" d="M338.5,317.39c7.789,3.402,14.928,2.588,21-3  "/>
<path fill="none" stroke="#ED2224" stroke-linecap="square" stroke-miterlimit="10" d="M342.25,330.14  c7.443,3.448,13.694,1.954,18.75-4.5"/>
<path fill="none" stroke="#ED2224" stroke-linecap="square" stroke-miterlimit="10" d="M345.25,342.89  c7.982,4.349,14.179,2.03,18.75-6"/>
<path fill="none" stroke="#ED2224" stroke-linecap="square" stroke-miterlimit="10" d="M352,357.14c6.647,2.118,11.647,0.118,15-6"/>
<path fill="none" stroke="#ED2224" stroke-linecap="square" stroke-miterlimit="10" d="M357.25,366.14  c6.884,1.427,11.32-1.465,13.5-8.25"/>
<path fill="none" stroke="#ED2224" stroke-linecap="square" stroke-miterlimit="10" d="M363.25,374.39  c7.115,0.629,10.368-3.224,10.5-10.5"/>
<path fill="none" stroke="#ED2224" stroke-linecap="square" stroke-miterlimit="10" d="M368.5,380.39  c7.112-1.952,11.584-6.896,13.5-14.25"/>
<path fill="none" stroke="#ED2224" stroke-linecap="square" stroke-miterlimit="10" d="M463.75,386.39  c4.845-3.25,9.63-3.358,14.25,0"/>
<path fill="none" stroke="#ED2224" stroke-linecap="square" stroke-miterlimit="10" d="M463,390.89c4.091-1.031,8.102-0.788,12,0.75  "/>
<path fill="none" stroke="#ED2224" stroke-linecap="square" stroke-miterlimit="10" d="M461.5,394.64  c5.652-0.318,10.993,1.247,15.75,4.5"/>
<path fill="none" stroke="#000000" stroke-width="2" stroke-linecap="square" stroke-miterlimit="10" d="M584.5,330.14  c2.989,104.852-162,105.095-162,0C422.5,225.38,587.479,225.636,584.5,330.14z"/>
<path fill="none" stroke="#ED2224" stroke-linecap="square" stroke-miterlimit="10" d="M445,276.14  c24.801,36.69,36.817,83.902,21.75,126.75"/>
<path fill="none" stroke="#ED2224" stroke-linecap="square" stroke-miterlimit="10" d="M541.75,258.14  c-14.786,42.043-11.624,91.699,24,122.25"/>
<path fill="none" stroke="#ED2224" stroke-linecap="square" stroke-miterlimit="10" d="M443.5,290.39  c2.834-6.081,7.59-9.575,14.25-10.5"/>
<path fill="none" stroke="#ED2224" stroke-linecap="square" stroke-miterlimit="10" d="M446.5,296.39  c3.397-4.929,7.896-8.432,13.5-10.5"/>
<path fill="none" stroke="#ED2224" stroke-linecap="square" stroke-miterlimit="10" d="M450.25,303.89  c3.254-6.727,8.481-10.153,15.75-9.75"/>
<path fill="none" stroke="#ED2224" stroke-linecap="square" stroke-miterlimit="10" d="M454.75,311.39  c2.479-5.941,7.014-8.649,13.5-8.25"/>
<path fill="none" stroke="#ED2224" stroke-linecap="square" stroke-miterlimit="10" d="M460.75,323.39  c2.491-7.125,7.599-9.466,15-7.5"/>
<path fill="none" stroke="#ED2224" stroke-linecap="square" stroke-miterlimit="10" d="M461.5,333.89  c5.596-6.22,12.445-7.285,20.25-3.75"/>
<path fill="none" stroke="#ED2224" stroke-linecap="square" stroke-miterlimit="10" d="M463.75,347.39  c4.947-6.093,11.195-8.099,18.75-6"/>
<path fill="none" stroke="#ED2224" stroke-linecap="square" stroke-miterlimit="10" d="M465.25,357.14  c4.328-5.842,9.818-7.741,16.5-5.25"/>
<path fill="none" stroke="#ED2224" stroke-linecap="square" stroke-miterlimit="10" d="M465.25,365.39  c4.646-4.251,9.895-5.264,15.75-3"/>
<path fill="none" stroke="#ED2224" stroke-linecap="square" stroke-miterlimit="10" d="M464.5,372.89  c5.064-3.536,10.415-4.192,15.75-1.5"/>
<path fill="none" stroke="#ED2224" stroke-linecap="square" stroke-miterlimit="10" d="M463.75,378.14  c5.804-2.008,11.324-1.212,16.5,2.25"/>
<path fill="none" stroke="#ED2224" stroke-linecap="square" stroke-miterlimit="10" d="M534.25,261.14  c2.747,4.131,6.994,5.174,12,3.75"/>
<path fill="none" stroke="#ED2224" stroke-linecap="square" stroke-miterlimit="10" d="M532,266.39c3.874,4.01,8.778,4.87,14.25,3"/>
<path fill="none" stroke="#ED2224" stroke-linecap="square" stroke-miterlimit="10" d="M530.5,272.39  c4.53,4.379,10.073,4.203,15.75,0.75"/>
<path fill="none" stroke="#ED2224" stroke-linecap="square" stroke-miterlimit="10" d="M529,278.39  c3.626,6.084,8.123,6.854,13.5,2.25"/>
<path fill="none" stroke="#ED2224" stroke-linecap="square" stroke-miterlimit="10" d="M528.25,287.39  c5.084,4.948,10.636,5,16.5,0.75"/>
<path fill="none" stroke="#ED2224" stroke-linecap="square" stroke-miterlimit="10" d="M526.75,296.39  c5.461,2.485,10.973,2.463,16.5,0"/>
<path fill="none" stroke="#ED2224" stroke-linecap="square" stroke-miterlimit="10" d="M524.5,306.14  c6.357,3.452,12.612,3.171,18.75-0.75"/>
<path fill="none" stroke="#ED2224" stroke-linecap="square" stroke-miterlimit="10" d="M523.75,317.39  c7.789,3.402,14.928,2.588,21-3"/>
<path fill="none" stroke="#ED2224" stroke-linecap="square" stroke-miterlimit="10" d="M527.5,330.14  c7.443,3.448,13.694,1.954,18.75-4.5"/>
<path fill="none" stroke="#ED2224" stroke-linecap="square" stroke-miterlimit="10" d="M530.5,342.89  c7.982,4.349,14.179,2.03,18.75-6"/>
<path fill="none" stroke="#ED2224" stroke-linecap="square" stroke-miterlimit="10" d="M537.25,357.14  c6.647,2.118,11.647,0.118,15-6"/>
<path fill="none" stroke="#ED2224" stroke-linecap="square" stroke-miterlimit="10" d="M542.5,366.14  c6.884,1.427,11.32-1.465,13.5-8.25"/>
<path fill="none" stroke="#ED2224" stroke-linecap="square" stroke-miterlimit="10" d="M548.5,374.39  c7.066,0.563,10.613-3.272,11.25-10.5"/>
<path fill="none" stroke="#ED2224" stroke-linecap="square" stroke-miterlimit="10" d="M553.75,380.39  c7.557-1.553,11.986-6.478,13.5-14.25"/>
<path fill="none" stroke="#ED2224" stroke-linecap="square" stroke-miterlimit="10" d="M278.5,567.89c4.845-3.25,9.63-3.358,14.25,0  "/>
<path fill="none" stroke="#ED2224" stroke-linecap="square" stroke-miterlimit="10" d="M277.75,572.39  c4.09-1.031,8.102-0.788,12,0.75"/>
<path fill="none" stroke="#ED2224" stroke-linecap="square" stroke-miterlimit="10" d="M276.25,576.14  c5.652-0.318,10.994,1.246,15.75,4.5"/>
<path fill="none" stroke="#000000" stroke-width="2" stroke-linecap="square" stroke-miterlimit="10" d="M399.25,511.64  c2.994,104.993-162,105.153-162,0C237.25,406.926,402.23,407.1,399.25,511.64z"/>
<path fill="none" stroke="#ED2224" stroke-linecap="square" stroke-miterlimit="10" d="M259.75,457.64  c24.539,36.303,37.359,84.354,21.75,126.75"/>
<path fill="none" stroke="#ED2224" stroke-linecap="square" stroke-miterlimit="10" d="M356.5,439.64  c-14.512,42.342-11.94,91.428,24,122.25"/>
<path fill="none" stroke="#ED2224" stroke-linecap="square" stroke-miterlimit="10" d="M257.5,471.89c3.301-5.933,8.3-9.435,15-10.5  "/>
<path fill="none" stroke="#ED2224" stroke-linecap="square" stroke-miterlimit="10" d="M261.25,477.89  c3.789-4.412,8.29-7.911,13.5-10.5"/>
<path fill="none" stroke="#ED2224" stroke-linecap="square" stroke-miterlimit="10" d="M265,485.39  c3.253-6.728,8.481-10.153,15.75-9.75"/>
<path fill="none" stroke="#ED2224" stroke-linecap="square" stroke-miterlimit="10" d="M269.5,492.89  c2.479-5.941,7.014-8.648,13.5-8.25"/>
<path fill="none" stroke="#ED2224" stroke-linecap="square" stroke-miterlimit="10" d="M275.5,504.89  c2.491-7.126,7.599-9.466,15-7.5"/>
<path fill="none" stroke="#ED2224" stroke-linecap="square" stroke-miterlimit="10" d="M276.25,515.39  c5.595-6.22,12.445-7.285,20.25-3.75"/>
<path fill="none" stroke="#ED2224" stroke-linecap="square" stroke-miterlimit="10" d="M278.5,528.89  c4.947-6.093,11.195-8.099,18.75-6"/>
<path fill="none" stroke="#ED2224" stroke-linecap="square" stroke-miterlimit="10" d="M280,538.64  c4.186-6.089,9.671-7.907,16.5-5.25"/>
<path fill="none" stroke="#ED2224" stroke-linecap="square" stroke-miterlimit="10" d="M280,546.89c4.646-4.251,9.895-5.265,15.75-3  "/>
<path fill="none" stroke="#ED2224" stroke-linecap="square" stroke-miterlimit="10" d="M279.25,554.39  c5.037-3.622,10.326-4.221,15.75-1.5"/>
<path fill="none" stroke="#ED2224" stroke-linecap="square" stroke-miterlimit="10" d="M278.5,560.39  c5.669-1.898,11.186-1.372,16.5,1.5"/>
<path fill="none" stroke="#ED2224" stroke-linecap="square" stroke-miterlimit="10" d="M349,443.39c3.087,3.388,7.343,4.248,12,3"/>
<path fill="none" stroke="#ED2224" stroke-linecap="square" stroke-miterlimit="10" d="M346,447.89c4.254,3.892,9.354,4.801,15,3"/>
<path fill="none" stroke="#ED2224" stroke-linecap="square" stroke-miterlimit="10" d="M344.5,453.89  c4.914,4.289,10.628,4.225,16.5,0.75"/>
<path fill="none" stroke="#ED2224" stroke-linecap="square" stroke-miterlimit="10" d="M343.75,459.89  c3.626,6.084,8.123,6.854,13.5,2.25"/>
<path fill="none" stroke="#ED2224" stroke-linecap="square" stroke-miterlimit="10" d="M343,469.64c5.301,4.223,10.855,4.044,16.5,0  "/>
<path fill="none" stroke="#ED2224" stroke-linecap="square" stroke-miterlimit="10" d="M341.5,477.89  c5.461,2.485,10.973,2.463,16.5,0"/>
<path fill="none" stroke="#ED2224" stroke-linecap="square" stroke-miterlimit="10" d="M339.25,487.64  c6.358,3.452,12.612,3.171,18.75-0.75"/>
<path fill="none" stroke="#ED2224" stroke-linecap="square" stroke-miterlimit="10" d="M338.5,499.64  c8.053,3.587,15.186,2.551,21-3.75"/>
<path fill="none" stroke="#ED2224" stroke-linecap="square" stroke-miterlimit="10" d="M342.25,511.64  c7.443,3.448,13.694,1.954,18.75-4.5"/>
<path fill="none" stroke="#ED2224" stroke-linecap="square" stroke-miterlimit="10" d="M345.25,524.39  c7.982,4.349,14.179,2.03,18.75-6"/>
<path fill="none" stroke="#ED2224" stroke-linecap="square" stroke-miterlimit="10" d="M352,538.64c6.647,2.117,11.647,0.117,15-6"/>
<path fill="none" stroke="#ED2224" stroke-linecap="square" stroke-miterlimit="10" d="M357.25,547.64  c6.884,1.427,11.32-1.465,13.5-8.25"/>
<path fill="none" stroke="#ED2224" stroke-linecap="square" stroke-miterlimit="10" d="M363.25,555.89  c7.115,0.629,10.368-3.224,10.5-10.5"/>
<path fill="none" stroke="#ED2224" stroke-linecap="square" stroke-miterlimit="10" d="M368.5,561.89  c7.485-1.406,11.909-6.487,13.5-14.25"/>
<path fill="none" stroke="#ED2224" stroke-linecap="square" stroke-miterlimit="10" d="M463.75,567.89  c4.845-3.25,9.63-3.358,14.25,0"/>
<path fill="none" stroke="#ED2224" stroke-linecap="square" stroke-miterlimit="10" d="M463,572.39c4.091-1.031,8.102-0.788,12,0.75  "/>
<path fill="none" stroke="#ED2224" stroke-linecap="square" stroke-miterlimit="10" d="M461.5,576.14  c5.652-0.318,10.993,1.246,15.75,4.5"/>
<path fill="none" stroke="#000000" stroke-width="2" stroke-linecap="square" stroke-miterlimit="10" d="M584.5,511.64  c2.992,104.957-162,105.199-162,0C422.5,406.88,587.479,407.136,584.5,511.64z"/>
<path fill="none" stroke="#ED2224" stroke-linecap="square" stroke-miterlimit="10" d="M445,457.64  c24.539,36.303,37.359,84.354,21.75,126.75"/>
<path fill="none" stroke="#ED2224" stroke-linecap="square" stroke-miterlimit="10" d="M541.75,439.64  c-14.493,42.287-11.817,91.533,24,122.25"/>
<path fill="none" stroke="#ED2224" stroke-linecap="square" stroke-miterlimit="10" d="M443.5,471.89  c2.834-6.081,7.59-9.575,14.25-10.5"/>
<path fill="none" stroke="#ED2224" stroke-linecap="square" stroke-miterlimit="10" d="M446.5,477.89  c3.789-4.412,8.29-7.911,13.5-10.5"/>
<path fill="none" stroke="#ED2224" stroke-linecap="square" stroke-miterlimit="10" d="M450.25,485.39  c3.254-6.728,8.481-10.153,15.75-9.75"/>
<path fill="none" stroke="#ED2224" stroke-linecap="square" stroke-miterlimit="10" d="M454.75,492.89  c2.479-5.941,7.014-8.648,13.5-8.25"/>
<path fill="none" stroke="#ED2224" stroke-linecap="square" stroke-miterlimit="10" d="M460.75,504.89  c2.491-7.126,7.599-9.466,15-7.5"/>
<path fill="none" stroke="#ED2224" stroke-linecap="square" stroke-miterlimit="10" d="M461.5,515.39  c5.596-6.22,12.445-7.285,20.25-3.75"/>
<path fill="none" stroke="#ED2224" stroke-linecap="square" stroke-miterlimit="10" d="M463.75,528.89  c4.947-6.093,11.195-8.099,18.75-6"/>
<path fill="none" stroke="#ED2224" stroke-linecap="square" stroke-miterlimit="10" d="M465.25,538.64  c4.328-5.842,9.818-7.741,16.5-5.25"/>
<path fill="none" stroke="#ED2224" stroke-linecap="square" stroke-miterlimit="10" d="M465.25,546.89  c4.646-4.251,9.895-5.265,15.75-3"/>
<path fill="none" stroke="#ED2224" stroke-linecap="square" stroke-miterlimit="10" d="M464.5,554.39  c5.064-3.535,10.415-4.192,15.75-1.5"/>
<path fill="none" stroke="#ED2224" stroke-linecap="square" stroke-miterlimit="10" d="M463.75,560.39  c5.669-1.898,11.186-1.372,16.5,1.5"/>
<path fill="none" stroke="#ED2224" stroke-linecap="square" stroke-miterlimit="10" d="M534.25,443.39c3.087,3.388,7.343,4.248,12,3  "/>
<path fill="none" stroke="#ED2224" stroke-linecap="square" stroke-miterlimit="10" d="M532,447.89c3.874,4.01,8.778,4.869,14.25,3"/>
<path fill="none" stroke="#ED2224" stroke-linecap="square" stroke-miterlimit="10" d="M530.5,453.89  c4.53,4.379,10.073,4.203,15.75,0.75"/>
<path fill="none" stroke="#ED2224" stroke-linecap="square" stroke-miterlimit="10" d="M529,459.89  c3.626,6.084,8.123,6.854,13.5,2.25"/>
<path fill="none" stroke="#ED2224" stroke-linecap="square" stroke-miterlimit="10" d="M528.25,469.64  c5.301,4.223,10.855,4.044,16.5,0"/>
<path fill="none" stroke="#ED2224" stroke-linecap="square" stroke-miterlimit="10" d="M526.75,477.89  c5.461,2.485,10.973,2.463,16.5,0"/>
<path fill="none" stroke="#ED2224" stroke-linecap="square" stroke-miterlimit="10" d="M524.5,487.64  c6.357,3.452,12.612,3.171,18.75-0.75"/>
<path fill="none" stroke="#ED2224" stroke-linecap="square" stroke-miterlimit="10" d="M523.75,499.64  c8.053,3.587,15.186,2.551,21-3.75"/>
<path fill="none" stroke="#ED2224" stroke-linecap="square" stroke-miterlimit="10" d="M527.5,511.64  c7.443,3.448,13.694,1.954,18.75-4.5"/>
<path fill="none" stroke="#ED2224" stroke-linecap="square" stroke-miterlimit="10" d="M530.5,524.39  c7.982,4.349,14.179,2.03,18.75-6"/>
<path fill="none" stroke="#ED2224" stroke-linecap="square" stroke-miterlimit="10" d="M537.25,538.64  c6.647,2.117,11.647,0.117,15-6"/>
<path fill="none" stroke="#ED2224" stroke-linecap="square" stroke-miterlimit="10" d="M542.5,547.64  c6.884,1.427,11.32-1.465,13.5-8.25"/>
<path fill="none" stroke="#ED2224" stroke-linecap="square" stroke-miterlimit="10" d="M548.5,555.89  c7.066,0.562,10.613-3.271,11.25-10.5"/>
<path fill="none" stroke="#ED2224" stroke-linecap="square" stroke-miterlimit="10" d="M553.75,561.89  c7.935-1.009,12.3-6.064,13.5-14.25"/>
</svg>