<svg xmlns="http://www.w3.org/2000/svg" xmlns:xlink="http://www.w3.org/1999/xlink" version="1.1" id="Layer_1" x="0px" y="0px" enable-background="new 0 0 822.05 841.89" xml:space="preserve" viewBox="303.09 343.35 213.34 155.89">
<path fill-rule="evenodd" clip-rule="evenodd" fill="#9B9B9B" stroke="#000000" stroke-linecap="square" stroke-miterlimit="10" d="  M324.75,478.599c4.37-8.951,9.095-13.676,1.5-20.25c-1.182,10.988-24.832,26.258-11.25,29.25  C327.024,490.248,327.13,485.078,324.75,478.599z"/>
<path fill-rule="evenodd" clip-rule="evenodd" fill="#FFFFFF" stroke="#000000" stroke-linecap="square" stroke-miterlimit="10" d="  M306.75,417.097c11.294,52.237,40.024,67.441,93.75,55.502c37.816-8.403,111.213-15.636,112.5-66.752  C444.25,409.597,375.5,413.347,306.75,417.097z"/>
<path fill-rule="evenodd" clip-rule="evenodd" fill="#76B5E5" stroke="#000000" stroke-width="0.5" stroke-linecap="square" stroke-miterlimit="10" d="  M341.25,405.097c37.91-7.108,80.081-21.511,118.5-20.25c15.305,0.502,66.316,10.662,29.266,20.954  c-33.412,9.282-69.625,25.548-104.641,25.548C370.308,431.349,314.531,416.392,341.25,405.097z"/>
<path fill-rule="evenodd" clip-rule="evenodd" fill="#F9F9F9" stroke="#000000" stroke-width="0.5" stroke-linecap="square" stroke-miterlimit="10" d="  M335.25,419.347c24.771-4.922,148.076-47.179,159.75-9c-31.008,8.227-62.016,16.454-93.023,24.682  C376.735,441.726,359.387,429.222,335.25,419.347z"/>
<path fill-rule="evenodd" clip-rule="evenodd" fill="#BEE4FC" stroke="#000000" stroke-width="0.5" stroke-linecap="square" stroke-miterlimit="10" d="  M494.25,401.347c-6.668,0.334-10.544-2.549-15.75,6c-5.911,1.29-5.704-7.945-7.5,3.75c-0.75,0-1.5,0-2.25,0  c0.171-1.17-2.246-7.087-2.25-9c3.573-0.178,2.679,1.33,5.25-2.25c-3.334-0.004-5.718-0.051-10.5,1.5  c-5.832-6.889-0.578-4.409-10.5-3.75c2.102,4.424,3.726,1.273,6,4.5c-3.115,0.544-3.355-0.979-7.5,1.5  c1.805-11.927,0.388-20.918-6-8.25c-5.389-10.06-7.415-8.162-8.25,3c-1.25,0.25-2.5,0.5-3.75,0.75  c-4.72-6.352-46.139,4.826-51.75,10.5c-7.189-2.913-7.75-0.687-15,0.75c-2.125,7.768-3.057,27.094,11.25,12.75  c-5.385,24.633,17.428,8.468,24.75,1.502c2.594,11.27,17.47,6.122,21.75-6.002c7.004,11.325,10.409,7.958,11.25-4.5  C442.946,418.756,500.349,417.458,494.25,401.347z M427.5,408.097c-2.46-0.74-5.12-0.01-7.5,1.5c0.682-1.697,0.932-3.447,0.75-5.25  c4.526,0.455,4.374,0.796,8.25,0C432.354,407.559,428.345,409.32,427.5,408.097z M436.5,405.097  C435.488,409.81,438.2,397.18,436.5,405.097L436.5,405.097z M444,405.097C443.416,401.715,442.925,398.87,444,405.097L444,405.097z   M453.75,410.347C454.248,409.712,456.574,406.741,453.75,410.347L453.75,410.347z M458.25,407.347  C454.41,403.862,459.064,408.087,458.25,407.347L458.25,407.347z"/>
<path fill-rule="evenodd" clip-rule="evenodd" fill="#FFFFFF" stroke="#000000" stroke-linecap="square" stroke-miterlimit="10" d="  M380.25,464.349C359.519,486.958,357.933,442.877,380.25,464.349L380.25,464.349z"/>
<path fill-rule="evenodd" clip-rule="evenodd" fill="#FFFFFF" stroke="#000000" stroke-linecap="square" stroke-miterlimit="10" d="  M498.75,429.099C484.975,450.961,476.072,421.718,498.75,429.099L498.75,429.099z"/>
<path fill-rule="evenodd" clip-rule="evenodd" fill="#9B9B9B" stroke="#000000" stroke-linecap="square" stroke-miterlimit="10" d="  M369,490.599c19.31-41.977-16.497-17.568-11.25,1.5C359.966,500.152,377.692,502.23,369,490.599z"/>
<path fill-rule="evenodd" clip-rule="evenodd" fill="#9B9B9B" stroke="#000000" stroke-linecap="square" stroke-miterlimit="10" d="  M502.5,453.849c-1.397-7.374-7.009-16.731-10.5-22.5C484.132,462.756,513.764,465.022,502.5,453.849z"/>
<path fill-rule="evenodd" clip-rule="evenodd" fill="#F9F9F9" stroke="#000000" stroke-width="0.5" stroke-linecap="square" stroke-miterlimit="10" d="  M426.75,399.097C408.948,410.402,433.116,413.64,426.75,399.097L426.75,399.097z"/>
<path fill-rule="evenodd" clip-rule="evenodd" fill="#FFFFFF" stroke="#000000" stroke-width="0.5" stroke-linecap="square" stroke-miterlimit="10" d="  M433.5,396.847C425.708,396.294,425.763,396.298,433.5,396.847L433.5,396.847z"/>
<path fill-rule="evenodd" clip-rule="evenodd" fill="#FFFFFF" stroke="#000000" stroke-width="0.5" stroke-linecap="square" stroke-miterlimit="10" d="  M465.75,396.097C457.247,396.697,457.267,396.696,465.75,396.097L465.75,396.097z"/>
<path fill-rule="evenodd" clip-rule="evenodd" fill="#F9F9F9" stroke="#000000" stroke-width="0.5" stroke-linecap="square" stroke-miterlimit="10" d="  M471.75,406.597C463.196,406.294,463.586,406.308,471.75,406.597L471.75,406.597z"/>
<path fill-rule="evenodd" clip-rule="evenodd" fill="#F9F9F9" stroke="#000000" stroke-width="0.5" stroke-linecap="square" stroke-miterlimit="10" d="  M475.5,400.597C470.865,399.936,470.46,399.878,475.5,400.597L475.5,400.597z"/>
<path fill-rule="evenodd" clip-rule="evenodd" fill="#F9F9F9" stroke="#000000" stroke-width="0.5" stroke-linecap="square" stroke-miterlimit="10" d="  M395.25,403.597C382.132,408.867,381.31,399.18,395.25,403.597L395.25,403.597z"/>
<path fill-rule="evenodd" clip-rule="evenodd" fill="#F9F9F9" stroke="#000000" stroke-width="0.5" stroke-linecap="square" stroke-miterlimit="10" d="  M473.25,409.597c-2.121,0-2.607,6.25-5.25,0C470.643,403.348,471.129,409.597,473.25,409.597z"/>
<path fill-rule="evenodd" clip-rule="evenodd" fill="#F9F9F9" stroke="#000000" stroke-width="0.5" stroke-linecap="square" stroke-miterlimit="10" d="  M381.75,424.599C368.018,433.886,367.986,414.338,381.75,424.599L381.75,424.599z"/>
<path fill-rule="evenodd" clip-rule="evenodd" fill="#F9F9F9" stroke="#000000" stroke-width="0.5" stroke-linecap="square" stroke-miterlimit="10" d="  M405.75,414.097C398.812,414.558,399.112,414.538,405.75,414.097L405.75,414.097z"/>
<path fill-rule="evenodd" clip-rule="evenodd" fill="#F9F9F9" stroke="#000000" stroke-width="0.5" stroke-linecap="square" stroke-miterlimit="10" d="  M411.75,424.599C402.108,424.597,402.108,424.597,411.75,424.599L411.75,424.599z"/>
<path fill-rule="evenodd" clip-rule="evenodd" fill="#F9F9F9" stroke="#000000" stroke-width="0.5" stroke-linecap="square" stroke-miterlimit="10" d="  M384,408.847C374.763,408.847,374.763,408.847,384,408.847L384,408.847z"/>
<path fill-rule="evenodd" clip-rule="evenodd" fill="#F9F9F9" stroke="#000000" stroke-width="0.5" stroke-linecap="square" stroke-miterlimit="10" d="  M414,400.597C405.566,401.153,405.416,401.163,414,400.597L414,400.597z"/>
<path fill-rule="evenodd" clip-rule="evenodd" fill="#F9F9F9" stroke="#000000" stroke-width="0.5" stroke-linecap="square" stroke-miterlimit="10" d="  M437.25,407.347C429.088,407.943,428.855,407.96,437.25,407.347L437.25,407.347z"/>
<path fill-rule="evenodd" clip-rule="evenodd" fill="#F9F9F9" stroke="#000000" stroke-width="0.5" stroke-linecap="square" stroke-miterlimit="10" d="  M456.75,409.597C450.089,409.597,450.089,409.597,456.75,409.597L456.75,409.597z"/>
<path fill-rule="evenodd" clip-rule="evenodd" fill="#F9F9F9" stroke="#000000" stroke-width="0.5" stroke-linecap="square" stroke-miterlimit="10" d="  M433.5,418.597c-1.983-0.277-2.239,5.775-5.25,0C431.287,411.207,431.008,418.249,433.5,418.597z"/>
<path fill-rule="evenodd" clip-rule="evenodd" fill="#F9F9F9" stroke="#000000" stroke-width="0.5" stroke-linecap="square" stroke-miterlimit="10" d="  M360,413.347C371.626,419.325,371.534,407.011,360,413.347L360,413.347z"/>
<path fill-rule="evenodd" clip-rule="evenodd" fill="#F9F9F9" d="M444,400.597C443.039,405.706,442.943,406.218,444,400.597  L444,400.597z"/>
<path fill-rule="evenodd" clip-rule="evenodd" fill="#F9F9F9" d="M378.75,409.597C380.238,411.573,374.952,404.553,378.75,409.597  L378.75,409.597z"/>
<path fill-rule="evenodd" clip-rule="evenodd" fill="#F9F9F9" d="M453.75,410.347C456.574,406.741,454.248,409.712,453.75,410.347  L453.75,410.347z"/>
<path fill-rule="evenodd" clip-rule="evenodd" fill="#F9F9F9" d="M429,404.347c-2.962,0.791-4.431,2.63-8.25,0  c0.182,1.803-0.068,3.553-0.75,5.25C427.049,409.062,428.813,404.465,429,404.347z"/>
<path fill-rule="evenodd" clip-rule="evenodd" fill="#F9F9F9" d="M436.5,403.597C439.016,410.431,435.258,400.223,436.5,403.597  L436.5,403.597z"/>
<path fill-rule="evenodd" clip-rule="evenodd" fill="#F9F9F9" stroke="#000000" stroke-width="0.5" stroke-linecap="square" stroke-miterlimit="10" d="  M465.75,399.847C458.456,399.105,458.185,399.077,465.75,399.847L465.75,399.847z"/>
<path fill-rule="evenodd" clip-rule="evenodd" fill="#F9F9F9" stroke="#000000" stroke-width="0.5" stroke-linecap="square" stroke-miterlimit="10" d="  M489,399.097C479.179,398.703,479.181,398.703,489,399.097L489,399.097z"/>
<path fill-rule="evenodd" clip-rule="evenodd" fill="#F9F9F9" stroke="#000000" stroke-width="0.5" stroke-linecap="square" stroke-miterlimit="10" d="  M494.25,399.097c-2.816,0-4.108,3.818-7.5,0C490.142,395.279,491.434,399.097,494.25,399.097z"/>
<path fill-rule="evenodd" clip-rule="evenodd" fill="#F9F9F9" stroke="#000000" stroke-width="0.5" stroke-linecap="square" stroke-miterlimit="10" d="  M325.5,420.847c6.279,7.65,40.493,16.104,41.25,0C367.493,405.033,331.265,412.801,325.5,420.847z"/>
<path fill-rule="evenodd" clip-rule="evenodd" fill="#FFFFFF" stroke="#000000" stroke-linecap="square" stroke-miterlimit="10" d="  M512.25,393.097c-40.16-13.982-63.464-11.915-104.24-4.397c-30.645,5.649-61.289,11.299-91.934,16.949  c-16.939,3.123-15.726,9.749-1.905,16.659c44.164,22.084,59.834,25.433,106.478,12.36  C432.223,431.424,536.629,412.996,512.25,393.097z M494.25,404.347c-32.459,9.017-71.125,27.752-105,27.752  c-17.069,0-61.618-11.571-53.25-25.502c7.995-13.31,98.482-21.361,115.5-21.75C463.465,384.574,523.895,392.183,494.25,404.347z"/>
<path fill-rule="evenodd" clip-rule="evenodd" fill="#9B9B9B" stroke="#000000" stroke-width="0.5" stroke-linecap="square" stroke-miterlimit="10" d="  M358.5,416.347c-4.366-2.549-2.17-9.983-11.25-4.5c3.746-7.683-6.61-3.609,3.75-9c-4.044-1.199-9.294-2.527-15-1.5c0,0.5,0,1,0,1.5  C353.302,413.303,331.008,422.343,358.5,416.347z"/>
<path fill-rule="evenodd" clip-rule="evenodd" fill="#9B9B9B" stroke="#000000" stroke-width="0.5" stroke-linecap="square" stroke-miterlimit="10" d="  M371.25,421.597c-5.646-3.823-9.271-8.432-13.5-13.5c0.775,2.01,5.874-1.424,6-1.5c-4.923-1.076-10.078-1.15-15,0  c0.257,0.216,5.25,3.445,6,1.5c-3.694,10.01-2.028,30.072,6,11.25C365.033,420.314,367.135,421.264,371.25,421.597z"/>
<path fill-rule="evenodd" clip-rule="evenodd" fill="#FFFFFF" stroke="#000000" stroke-width="0.5" stroke-linecap="square" stroke-miterlimit="10" d="  M478.5,373.597C463.52,365.707,477.608,348.517,478.5,373.597L478.5,373.597z"/>
<path fill-rule="evenodd" clip-rule="evenodd" fill="#FCD2AE" stroke="#000000" stroke-width="0.5" stroke-linecap="square" stroke-miterlimit="10" d="  M493.5,390.097c-7.445-6.048-12.994-10.671-15.75-20.25c0.732,7.436,0.761,11.533,9.75,19.5c-26.444,7.479-20.886-13.72-44.25,3  C459.939,415.643,477.979,393.755,493.5,390.097z"/>
<path fill-rule="evenodd" clip-rule="evenodd" fill="#FF0000" stroke="#000000" stroke-width="0.5" stroke-linecap="square" stroke-miterlimit="10" d="  M468.75,343.597c-20.25,14.881,3.739,33.539,15,43.5c2.703-10.012-2.523-18.017-12.75-21  C482.613,364.487,475.949,353.658,468.75,343.597z"/>
<path fill-rule="evenodd" clip-rule="evenodd" fill="#FF0000" d="M471,366.097c3.69,4.984,7.043,9.732,11.25,17.25  C478.505,377.605,474.535,371.97,471,366.097z"/>
<path fill="none" stroke="#000000" stroke-width="0.5" stroke-linecap="square" stroke-miterlimit="10" d="M471,366.097  c3.79,4.767,7.108,9.849,11.25,17.25"/>
<path fill-rule="evenodd" clip-rule="evenodd" fill="#993300" stroke="#000000" stroke-width="0.5" stroke-linecap="square" stroke-miterlimit="10" d="  M477.75,374.347c-3.242-2.536-6.136-4.322,0-5.25c-2,0-4,0-6,0c2.85-1.842,1.592-1.521-1.5-1.5c1.837-1.19,3.837-1.94,6-2.25  c-1.75,0.25-3.5,0.5-5.25,0.75c0.462-2.541,1.719-4.911,2.25-7.5c-1.237,0.421-2.237,1.171-3,2.25  c-0.109-2.598,1.469-4.567,1.5-6.75c-0.755,1.451-1.755,2.701-3,3.75c-0.163-1.963,0.675-4.896,0-6.75  c-0.347,1.697-1.097,3.197-2.25,4.5c-0.532-1.722,0.771-4.386,0-6c-1.304,0.693-2.389,4.739-3,5.25c-0.311-2.163-1.061-4.163-2.25-6  c-0.639,0.495-1.75,4.405-3,5.25c0.003,0.001-0.296-3.811-1.5-4.5c-0.783,1.876-1.783,3.626-3,5.25c0.119,0.045-2.39-2.711-1.5-3  c-1,1.5-2,3-3,4.5c-0.502-0.247-0.822-3.394-2.25-3.75c-0.816,1.658-1.066,3.408-0.75,5.25c-0.677-1.177-1.177-2.427-1.5-3.75  c-0.376,2.05,0.057,4.634,0,6.75c-1.079-0.763-1.829-1.763-2.25-3c0.5,2,1,4,1.5,6c-1.25-0.75-2.5-1.5-3.75-2.25  c1.647,7.549,0.777,3.391-3,8.25c1.5,0.5,3,1,4.5,1.5c-3.789,1.335-4.039,1.835-0.75,1.5c-2,0.5-4,1-6,1.5  c2.453,0.176,5.04,0.072,7.5,0c-0.513,0.677-4.305,3.398-4.5,4.5c1.939-0.743,3.939-0.993,6-0.75  c-2.028,1.755-3.522,3.327-5.25,5.25c0.592,0.301,6.608-2.723,7.5-3c-1.784,4.429-3.505,8.005-3.75,12.75  c2.042-3.611,4.699-6.839,6.75-10.5c1.113-0.314,16.085-2.301,18.75-2.25c2.543,2.811,5.92,5.416,8.25,8.25  c-0.888-4.494-3.49-7.591-6-11.25c1.118,0.145,7.453,2.001,8.25,1.5C472.431,375.019,472.224,376.029,477.75,374.347z"/>
<path fill-rule="evenodd" clip-rule="evenodd" fill="#FCD2AE" stroke="#000000" stroke-width="0.5" stroke-linecap="square" stroke-miterlimit="10" d="  M455.25,367.597c4.05-0.787,6.512,4.454,12-1.5c9.639,20.669-14.814,31.667-22.5,9C451.055,374.227,451.267,369.808,455.25,367.597z  "/>
<path fill-rule="evenodd" clip-rule="evenodd" fill="#993300" d="M447,372.097c0.038,5.842-1.21,7.366,2.25,0.75  c0,1.25,0,2.5,0,3.75c4.246-5.645,4.324-5.574,6.75-13.5C453,366.097,450,369.097,447,372.097z"/>
<path fill="none" stroke="#000000" stroke-width="0.5" stroke-linecap="square" stroke-miterlimit="10" d="M447,372.097  c0.038,5.842-1.21,7.366,2.25,0.75c0,1.25,0,2.5,0,3.75c4.812-4.146,4.613-6.519,6.75-13.5"/>
<path fill-rule="evenodd" clip-rule="evenodd" fill="#993300" d="M459,363.847c2.07,3.21,3.227,6.482,6.75,9  c-0.366-1.789-0.866-3.539-1.5-5.25c1.04-0.038,1.007,4.892,3.75,2.25c-0.5-1.25-1-2.5-1.5-3.75c0.646,1.354,1.646,1.854,3,1.5  c-0.737-1.421-0.987-2.921-0.75-4.5C465.5,363.347,462.25,363.597,459,363.847z"/>
<path fill="none" stroke="#000000" stroke-width="0.5" stroke-linecap="square" stroke-miterlimit="10" d="M459,363.847  c2.07,3.21,3.227,6.482,6.75,9c-0.366-1.789-0.866-3.539-1.5-5.25c0.752,0.587,1.512,4.406,3.75,2.25c-0.5-1.25-1-2.5-1.5-3.75  c4.138,3.769,1.849-0.131,2.25-3"/>
<path fill-rule="evenodd" clip-rule="evenodd" fill="#F9F9F9" stroke="#000000" stroke-width="0.5" stroke-linecap="square" stroke-miterlimit="10" d="  M441,409.597C435.428,409.181,434.695,409.126,441,409.597L441,409.597z"/>
<path fill-rule="evenodd" clip-rule="evenodd" fill="#F9F9F9" stroke="#000000" stroke-width="0.5" stroke-linecap="square" stroke-miterlimit="10" d="  M449.25,409.597C441.702,410.03,441.894,410.02,449.25,409.597L449.25,409.597z"/>
<path fill-rule="evenodd" clip-rule="evenodd" fill="#F9F9F9" stroke="#000000" stroke-width="0.5" stroke-linecap="square" stroke-miterlimit="10" d="  M457.5,398.347C438.783,396.554,457.322,413.76,457.5,398.347L457.5,398.347z"/>
<path fill-rule="evenodd" clip-rule="evenodd" fill="#F9F9F9" stroke="#000000" stroke-width="0.5" stroke-linecap="square" stroke-miterlimit="10" d="  M468.75,407.347C464.176,407.347,464.176,407.347,468.75,407.347L468.75,407.347z"/>
<path fill-rule="evenodd" clip-rule="evenodd" fill="#F9F9F9" stroke="#000000" stroke-width="0.5" stroke-linecap="square" stroke-miterlimit="10" d="  M451.5,398.347C444.155,398.347,444.155,398.347,451.5,398.347L451.5,398.347z"/>
<path fill-rule="evenodd" clip-rule="evenodd" fill="#F9F9F9" stroke="#000000" stroke-width="0.5" stroke-linecap="square" stroke-miterlimit="10" d="  M464.25,399.847C458.062,399.847,458.062,399.847,464.25,399.847L464.25,399.847z"/>
<path fill-rule="evenodd" clip-rule="evenodd" fill="#F9F9F9" stroke="#000000" stroke-width="0.5" stroke-linecap="square" stroke-miterlimit="10" d="  M461.25,407.347C449.037,413.096,449.135,401.208,461.25,407.347L461.25,407.347z"/>
<path fill-rule="evenodd" clip-rule="evenodd" fill="#F9F9F9" stroke="#000000" stroke-width="0.5" stroke-linecap="square" stroke-miterlimit="10" d="  M477,406.597C466.039,407.617,466.797,404.73,477,406.597L477,406.597z"/>
<path fill-rule="evenodd" clip-rule="evenodd" fill="#F9F9F9" stroke="#000000" stroke-width="0.5" stroke-linecap="square" stroke-miterlimit="10" d="  M482.25,400.597C472.529,402.027,472.954,399.045,482.25,400.597L482.25,400.597z"/>
<path fill-rule="evenodd" clip-rule="evenodd" fill="#F9F9F9" stroke="#000000" stroke-width="0.5" stroke-linecap="square" stroke-miterlimit="10" d="  M444.75,402.847c-9.575-2.15-18.428-6.753-25.5-13.5C424.094,397.235,436.507,403.718,444.75,402.847z"/>
<path fill-rule="evenodd" clip-rule="evenodd" fill="#FFFFFF" stroke="#000000" stroke-width="0.5" stroke-linecap="square" stroke-miterlimit="10" d="  M420.75,391.597c-6.17-2.346-8.982-7.228-16.5-1.5C410.542,396.226,414.079,392.525,420.75,391.597z"/>
<path fill-rule="evenodd" clip-rule="evenodd" fill="#FFFFFF" d="M393,406.597L393,406.597L393,406.597z"/>
<line fill="none" stroke="#000000" stroke-width="0.5" stroke-linecap="square" stroke-miterlimit="10" x1="393" y1="406.597" x2="393" y2="406.597"/>
<path fill-rule="evenodd" clip-rule="evenodd" fill="#101177" stroke="#000000" stroke-width="0.5" stroke-linecap="square" stroke-miterlimit="10" d="  M428.25,402.097c-4.529,1.921-10.838,1.548-15.75,2.25c-1.25-9.5-2.5-19-3.75-28.5c0.923,9.499,1.974,19.004,3,28.5  c-4.625,0.494-16.254,3.184-18,3C404.431,406.137,420.444,404.148,428.25,402.097z"/>
<path fill-rule="evenodd" clip-rule="evenodd" fill="#FFFF00" stroke="#000000" stroke-width="0.5" stroke-linecap="square" stroke-miterlimit="10" d="  M410.25,383.347c5.785,4.21,10.535,11.191,14.25,17.25c-2.453,1.481-9.865,4.009-12,4.5  C411.868,398.281,409.255,390.049,410.25,383.347z"/>
<path fill-rule="evenodd" clip-rule="evenodd" fill="#FFFF00" stroke="#000000" stroke-width="0.5" stroke-linecap="square" stroke-miterlimit="10" d="  M407.25,387.847c-4.863,5.681-8.185,13.146-12,19.5C416.022,408.717,412.643,387.196,407.25,387.847z"/>
<path fill-rule="evenodd" clip-rule="evenodd" fill="#FF0000" stroke="#000000" stroke-width="0.5" stroke-linecap="square" stroke-miterlimit="10" d="  M396.75,410.347c9.671,9.809,24.402,7.903,30.75-4.5C417.322,407.798,407.062,409.309,396.75,410.347z"/>
<path fill-rule="evenodd" clip-rule="evenodd" fill="#9596B5" stroke="#000000" stroke-width="0.5" stroke-linecap="square" stroke-miterlimit="10" d="  M426.75,403.597c-11,1.5-22,3-33,4.5C402.042,411.344,421.905,407.839,426.75,403.597z"/>
<path fill-rule="evenodd" clip-rule="evenodd" fill="#F9F9F9" stroke="#000000" stroke-width="0.5" stroke-linecap="square" stroke-miterlimit="10" d="  M411.75,409.597C403.246,409.597,403.246,409.597,411.75,409.597L411.75,409.597z"/>
<path fill-rule="evenodd" clip-rule="evenodd" fill="#F9F9F9" stroke="#000000" stroke-width="0.5" stroke-linecap="square" stroke-miterlimit="10" d="  M415.5,415.597C407.968,415.439,407.769,415.435,415.5,415.597L415.5,415.597z"/>
<path fill-rule="evenodd" clip-rule="evenodd" fill="#F9F9F9" stroke="#000000" stroke-width="0.5" stroke-linecap="square" stroke-miterlimit="10" d="  M396,410.347C371.981,397.516,405.23,435.408,396,410.347L396,410.347z"/>
<path fill-rule="evenodd" clip-rule="evenodd" fill="#F9F9F9" stroke="#000000" stroke-width="0.5" stroke-linecap="square" stroke-miterlimit="10" d="  M426.75,419.347C416.717,424.58,415.568,416.416,426.75,419.347L426.75,419.347z"/>
<path fill-rule="evenodd" clip-rule="evenodd" fill="#F9F9F9" stroke="#000000" stroke-width="0.5" stroke-linecap="square" stroke-miterlimit="10" d="  M411.75,413.347C404.254,412.609,404.098,412.593,411.75,413.347L411.75,413.347z"/>
<path fill-rule="evenodd" clip-rule="evenodd" fill="#FFFF00" stroke="#000000" stroke-width="0.5" stroke-linecap="square" stroke-miterlimit="10" d="  M435,402.847c-0.731-0.416-0.62-4.472-0.75-6c-2.5,1.5-5,3-7.5,4.5C433.832,403.902,428.261,400.394,435,402.847z"/>
<path fill-rule="evenodd" clip-rule="evenodd" fill="#FFFF00" stroke="#000000" stroke-width="0.5" stroke-linecap="square" stroke-miterlimit="10" d="  M444,401.347c-13.066-15.259-10.187,9.072-10.5,9C446.602,413.356,465.828,408.392,444,401.347z"/>
<path fill-rule="evenodd" clip-rule="evenodd" fill="#FFFF00" stroke="#000000" stroke-width="0.5" stroke-linecap="square" stroke-miterlimit="10" d="  M446.25,408.097c-19.012,2.316-2.5,3.815,7.5,0C451.128,407.158,448.677,408.863,446.25,408.097z"/>
<path fill-rule="evenodd" clip-rule="evenodd" fill="#FFFF00" stroke="#000000" stroke-width="0.5" stroke-linecap="square" stroke-miterlimit="10" d="  M437.25,400.597C437.202,400.576,434.649,399.431,437.25,400.597L437.25,400.597z"/>
<path fill-rule="evenodd" clip-rule="evenodd" fill="#F9F9F9" stroke="#000000" stroke-width="0.5" stroke-linecap="square" stroke-miterlimit="10" d="  M444.75,408.847C445.505,417.443,445.458,416.907,444.75,408.847L444.75,408.847z"/>
<path fill-rule="evenodd" clip-rule="evenodd" fill="#F9F9F9" stroke="#000000" stroke-width="0.5" stroke-linecap="square" stroke-miterlimit="10" d="  M442.5,414.097C431.456,415.25,431.797,410.49,442.5,414.097L442.5,414.097z"/>
<path fill-rule="evenodd" clip-rule="evenodd" fill="#F9F9F9" stroke="#000000" stroke-width="0.5" stroke-linecap="square" stroke-miterlimit="10" d="  M396.75,423.097C382.91,432.707,382.518,413.36,396.75,423.097L396.75,423.097z"/>
<path fill-rule="evenodd" clip-rule="evenodd" fill="#F9F9F9" stroke="#000000" stroke-width="0.5" stroke-linecap="square" stroke-miterlimit="10" d="  M384.75,417.847C371.616,426.919,371.617,408.777,384.75,417.847L384.75,417.847z"/>
<path fill-rule="evenodd" clip-rule="evenodd" fill="#F9F9F9" stroke="#000000" stroke-width="0.5" stroke-linecap="square" stroke-miterlimit="10" d="  M399.75,421.597C393.168,421.149,392.874,421.129,399.75,421.597L399.75,421.597z"/>
<path fill-rule="evenodd" clip-rule="evenodd" fill="#F9F9F9" stroke="#000000" stroke-width="0.5" stroke-linecap="square" stroke-miterlimit="10" d="  M407.25,421.597C400.312,422.059,400.613,422.04,407.25,421.597L407.25,421.597z"/>
<path fill-rule="evenodd" clip-rule="evenodd" fill="#F9F9F9" stroke="#000000" stroke-width="0.5" stroke-linecap="square" stroke-miterlimit="10" d="  M415.5,410.347C396.709,409.086,416.726,425.657,415.5,410.347L415.5,410.347z"/>
<path fill-rule="evenodd" clip-rule="evenodd" fill="#F9F9F9" stroke="#000000" stroke-width="0.5" stroke-linecap="square" stroke-miterlimit="10" d="  M426.75,419.347C423.044,419.347,423.044,419.347,426.75,419.347L426.75,419.347z"/>
<path fill-rule="evenodd" clip-rule="evenodd" fill="#F9F9F9" stroke="#000000" stroke-width="0.5" stroke-linecap="square" stroke-miterlimit="10" d="  M410.25,410.347C402.312,410.347,402.312,410.347,410.25,410.347L410.25,410.347z"/>
<path fill-rule="evenodd" clip-rule="evenodd" fill="#F9F9F9" stroke="#000000" stroke-width="0.5" stroke-linecap="square" stroke-miterlimit="10" d="  M422.25,411.847C416.742,411.847,416.742,411.847,422.25,411.847L422.25,411.847z"/>
<path fill-rule="evenodd" clip-rule="evenodd" fill="#F9F9F9" stroke="#000000" stroke-width="0.5" stroke-linecap="square" stroke-miterlimit="10" d="  M420,419.347C407.232,425.612,407.449,412.685,420,419.347L420,419.347z"/>
<path fill-rule="evenodd" clip-rule="evenodd" fill="#F9F9F9" stroke="#000000" stroke-width="0.5" stroke-linecap="square" stroke-miterlimit="10" d="  M435.75,418.597C424.305,419.859,424.934,416.716,435.75,418.597L435.75,418.597z"/>
<path fill-rule="evenodd" clip-rule="evenodd" fill="#F9F9F9" stroke="#000000" stroke-width="0.5" stroke-linecap="square" stroke-miterlimit="10" d="  M441,412.597C431.488,412.199,431.341,412.192,441,412.597L441,412.597z"/>
</svg>