<svg xmlns="http://www.w3.org/2000/svg" xmlns:xlink="http://www.w3.org/1999/xlink" version="1.1" id="Layer_1" x="0px" y="0px" enable-background="new 0 0 822.05 841.89" xml:space="preserve" viewBox="303.7 360.19 210.36 123.79">
<path fill-rule="evenodd" clip-rule="evenodd" fill="#9B9B9B" stroke="#000000" stroke-linecap="square" stroke-miterlimit="10" d="  M325.788,463.187c4.2-8.657,8.659-13.304,2.25-20.25c-1.352,12.564-23.8,24.156-12,29.25  C327.809,477.268,328.196,468.568,325.788,463.187z"/>
<path fill-rule="evenodd" clip-rule="evenodd" fill="#FFFFFF" stroke="#000000" stroke-linecap="square" stroke-miterlimit="10" d="  M307.788,401.689c12.37,50.849,38.614,68.206,92.625,55.498c36.808-8.66,110.25-16.216,110.627-66.748  C443.289,394.189,375.539,397.939,307.788,401.689z"/>
<path fill-rule="evenodd" clip-rule="evenodd" fill="#76B5E5" stroke="#000000" stroke-width="0.5" stroke-linecap="square" stroke-miterlimit="10" d="  M342.288,389.689c34.058-6.521,77.738-23.751,112.127-20.625c7.939,0.722,64.764,10.912,41.25,18.75  c-60.841,20.28-106.35,40.81-163.877,7.875C334.575,391.471,337.898,391.525,342.288,389.689z"/>
<path fill-rule="evenodd" clip-rule="evenodd" fill="#F9F9F9" stroke="#000000" stroke-width="0.5" stroke-linecap="square" stroke-miterlimit="10" d="  M336.288,403.939c17.147-3.474,149.73-44.105,156.002-12.75c1.725,8.623-77,24.806-88.308,27.868  C377.64,426.191,361.607,414.455,336.288,403.939z"/>
<path fill-rule="evenodd" clip-rule="evenodd" fill="#BEE4FC" stroke="#000000" stroke-width="0.5" stroke-linecap="square" stroke-miterlimit="10" d="  M492.29,385.939c-5.941,0.245-9.75-2.315-15,6c-5.998,1.281-5.806-8.035-7.5,3.75c-0.75,0-1.5,0-2.25,0  c0.169-1.075-2.249-7.155-2.25-9c3.833-0.201,2.946,0.95,5.25-2.25c-3.134,0.14-5.856,0.013-10.5,1.5  c-5.436-7.044-0.001-5.234-10.5-3.75c2.048,4.165,4.031,1.766,6.75,4.5c-3.739,0.615-3.46-1.193-7.5,1.5  c2.701-11.019-0.163-21.158-6-8.25c-6.314-11.132-6.47-6.813-8.25,3c-1.25,0.25-2.5,0.5-3.75,0.75  c-4.742-6.034-44.863,4.62-51.002,10.5c-20.183-8.114-20.75,30.971-3,13.5c-9.167,25.195,18.008,6.885,24,1.5  c0.771,12.423,17.317,5.349,21.002-6c7.004,11.323,10.409,7.957,11.25-4.5C442.289,403.297,499.843,401.128,492.29,385.939z   M427.79,392.689c-2.854-0.748-5.544-0.162-8.25,1.5c0.682-1.697,0.932-3.447,0.75-5.25c4.522,0.424,4.358,0.819,8.25,0  C429.138,389.486,432.932,395.902,427.79,392.689z M436.04,389.689C435.308,393.559,437.515,381.896,436.04,389.689L436.04,389.689z   M442.79,389.689C442.867,384.756,442.873,384.378,442.79,389.689L442.79,389.689z M453.29,394.939  C453.343,394.286,453.545,391.801,453.29,394.939L453.29,394.939z M457.04,391.939C456.986,391.332,456.809,389.331,457.04,391.939  L457.04,391.939z"/>
<path fill-rule="evenodd" clip-rule="evenodd" fill="#FFFFFF" stroke="#000000" stroke-linecap="square" stroke-miterlimit="10" d="  M380.538,448.937C360.237,470.96,358.624,428.022,380.538,448.937L380.538,448.937z"/>
<path fill-rule="evenodd" clip-rule="evenodd" fill="#FFFFFF" stroke="#000000" stroke-linecap="square" stroke-miterlimit="10" d="  M497.54,413.689C482.909,435.063,475.078,406.082,497.54,413.689L497.54,413.689z"/>
<path fill-rule="evenodd" clip-rule="evenodd" fill="#9B9B9B" stroke="#000000" stroke-linecap="square" stroke-miterlimit="10" d="  M370.038,475.187c19.903-41.011-17.529-18.841-11.25,1.5C361.331,484.925,376.005,487.043,370.038,475.187z"/>
<path fill-rule="evenodd" clip-rule="evenodd" fill="#9B9B9B" stroke="#000000" stroke-linecap="square" stroke-miterlimit="10" d="  M500.54,438.437c-1.282-7.574-6.624-17.579-10.5-22.498C478.692,445.65,514.636,450.652,500.54,438.437z"/>
<path fill-rule="evenodd" clip-rule="evenodd" fill="#F9F9F9" stroke="#000000" stroke-width="0.5" stroke-linecap="square" stroke-miterlimit="10" d="  M427.04,383.689C410.203,393.747,429.938,399.078,427.04,383.689L427.04,383.689z"/>
<path fill-rule="evenodd" clip-rule="evenodd" fill="#FFFFFF" stroke="#000000" stroke-width="0.5" stroke-linecap="square" stroke-miterlimit="10" d="  M433.04,381.439C425.248,380.886,425.303,380.89,433.04,381.439L433.04,381.439z"/>
<path fill-rule="evenodd" clip-rule="evenodd" fill="#FFFFFF" stroke="#000000" stroke-width="0.5" stroke-linecap="square" stroke-miterlimit="10" d="  M464.54,380.689C456.037,381.289,456.057,381.288,464.54,380.689L464.54,380.689z"/>
<path fill-rule="evenodd" clip-rule="evenodd" fill="#F9F9F9" stroke="#000000" stroke-width="0.5" stroke-linecap="square" stroke-miterlimit="10" d="  M470.54,391.189C462.557,390.887,462.845,390.898,470.54,391.189L470.54,391.189z"/>
<path fill-rule="evenodd" clip-rule="evenodd" fill="#F9F9F9" stroke="#000000" stroke-width="0.5" stroke-linecap="square" stroke-miterlimit="10" d="  M474.29,385.189C470.1,384.561,469.35,384.448,474.29,385.189L474.29,385.189z"/>
<path fill-rule="evenodd" clip-rule="evenodd" fill="#F9F9F9" stroke="#000000" stroke-width="0.5" stroke-linecap="square" stroke-miterlimit="10" d="  M395.538,388.189C382.235,393.415,381.503,383.838,395.538,388.189L395.538,388.189z"/>
<path fill-rule="evenodd" clip-rule="evenodd" fill="#F9F9F9" stroke="#000000" stroke-width="0.5" stroke-linecap="square" stroke-miterlimit="10" d="  M472.04,394.189c-2.12,0-2.607,6.25-5.25,0C469.433,387.939,469.92,394.189,472.04,394.189z"/>
<path fill-rule="evenodd" clip-rule="evenodd" fill="#F9F9F9" stroke="#000000" stroke-width="0.5" stroke-linecap="square" stroke-miterlimit="10" d="  M382.038,409.189C368.752,418.862,368.65,398.613,382.038,409.189L382.038,409.189z"/>
<path fill-rule="evenodd" clip-rule="evenodd" fill="#F9F9F9" stroke="#000000" stroke-width="0.5" stroke-linecap="square" stroke-miterlimit="10" d="  M406.038,398.689C398.545,399.128,398.796,399.114,406.038,398.689L406.038,398.689z"/>
<path fill-rule="evenodd" clip-rule="evenodd" fill="#F9F9F9" stroke="#000000" stroke-width="0.5" stroke-linecap="square" stroke-miterlimit="10" d="  M411.288,409.189C402.02,410.367,402.02,408.011,411.288,409.189L411.288,409.189z"/>
<path fill-rule="evenodd" clip-rule="evenodd" fill="#F9F9F9" stroke="#000000" stroke-width="0.5" stroke-linecap="square" stroke-miterlimit="10" d="  M384.288,393.439C375.354,393.439,375.354,393.439,384.288,393.439L384.288,393.439z"/>
<path fill-rule="evenodd" clip-rule="evenodd" fill="#F9F9F9" stroke="#000000" stroke-width="0.5" stroke-linecap="square" stroke-miterlimit="10" d="  M413.538,385.189C405.711,385.744,405.787,385.739,413.538,385.189L413.538,385.189z"/>
<path fill-rule="evenodd" clip-rule="evenodd" fill="#F9F9F9" stroke="#000000" stroke-width="0.5" stroke-linecap="square" stroke-miterlimit="10" d="  M436.79,391.939C428.268,392.514,428.42,392.504,436.79,391.939L436.79,391.939z"/>
<path fill-rule="evenodd" clip-rule="evenodd" fill="#F9F9F9" stroke="#000000" stroke-width="0.5" stroke-linecap="square" stroke-miterlimit="10" d="  M455.54,394.189C449.611,394.189,449.611,394.189,455.54,394.189L455.54,394.189z"/>
<path fill-rule="evenodd" clip-rule="evenodd" fill="#F9F9F9" stroke="#000000" stroke-width="0.5" stroke-linecap="square" stroke-miterlimit="10" d="  M433.04,403.189c-1.983-0.277-2.239,5.775-5.25,0C430.827,395.799,430.548,402.84,433.04,403.189z"/>
<path fill-rule="evenodd" clip-rule="evenodd" fill="#F9F9F9" stroke="#000000" stroke-width="0.5" stroke-linecap="square" stroke-miterlimit="10" d="  M360.288,397.939C372.108,403.751,372.023,391.755,360.288,397.939L360.288,397.939z"/>
<path fill-rule="evenodd" clip-rule="evenodd" fill="#F9F9F9" d="M442.79,385.189C442.632,390.724,442.671,389.358,442.79,385.189  L442.79,385.189z"/>
<path fill-rule="evenodd" clip-rule="evenodd" fill="#F9F9F9" d="M379.038,394.189C380.526,396.165,375.24,389.145,379.038,394.189  L379.038,394.189z"/>
<path fill-rule="evenodd" clip-rule="evenodd" fill="#F9F9F9" d="M453.29,394.939C453.545,391.801,453.343,394.286,453.29,394.939  L453.29,394.939z"/>
<path fill-rule="evenodd" clip-rule="evenodd" fill="#F9F9F9" d="M428.54,388.939c-2.961,0.785-4.429,2.631-8.25,0  c0.182,1.803-0.068,3.553-0.75,5.25C425.923,393.601,428.898,388.734,428.54,388.939z"/>
<path fill-rule="evenodd" clip-rule="evenodd" fill="#F9F9F9" d="M436.04,388.189C437.794,395.41,435.007,383.935,436.04,388.189  L436.04,388.189z"/>
<path fill-rule="evenodd" clip-rule="evenodd" fill="#F9F9F9" stroke="#000000" stroke-width="0.5" stroke-linecap="square" stroke-miterlimit="10" d="  M464.54,384.439C457.399,383.677,457.104,383.645,464.54,384.439L464.54,384.439z"/>
<path fill-rule="evenodd" clip-rule="evenodd" fill="#F9F9F9" stroke="#000000" stroke-width="0.5" stroke-linecap="square" stroke-miterlimit="10" d="  M487.79,383.689C477.129,383.245,477.778,383.271,487.79,383.689L487.79,383.689z"/>
<path fill-rule="evenodd" clip-rule="evenodd" fill="#F9F9F9" stroke="#000000" stroke-width="0.5" stroke-linecap="square" stroke-miterlimit="10" d="  M492.29,383.689c-1.56,0-2.919,3.667-6.75,0.75c0-0.5,0-1,0-1.5C489.371,380.021,490.73,383.689,492.29,383.689z"/>
<path fill-rule="evenodd" clip-rule="evenodd" fill="#F9F9F9" stroke="#000000" stroke-width="0.5" stroke-linecap="square" stroke-miterlimit="10" d="  M327.288,405.439c5.261,7.253,39.78,16.304,40.5,0C368.493,389.485,332.092,397.685,327.288,405.439z"/>
<path fill-rule="evenodd" clip-rule="evenodd" fill="#FFFFFF" stroke="#000000" stroke-linecap="square" stroke-miterlimit="10" d="  M510.29,377.689c-38.732-14.576-62.771-11.763-102.28-4.397c-30.303,5.649-60.605,11.299-90.908,16.949  c-8.66,1.614-19.607,7.346-7.613,13.444c40.898,20.794,58.484,30.52,101.896,18.118C424.445,418.071,533.649,396.621,510.29,377.689  z M492.29,388.939c-31.556,8.979-71.792,29.686-105.002,27.75c-16.611-0.968-58.663-11.664-50.25-25.5  c8.03-13.207,96.397-21.317,113.252-21.75C462.024,369.137,522.266,377.162,492.29,388.939z"/>
<path fill-rule="evenodd" clip-rule="evenodd" fill="#9B9B9B" stroke="#000000" stroke-width="0.5" stroke-linecap="square" stroke-miterlimit="10" d="  M359.538,400.939c-6.443-3.643-10.071-7.853-14.25-12.75c0.698-0.913,5.367-0.73,6.75-1.5c-4.749-1.128-9.786-1.656-15-0.75  c0,0.5,0,1,0,1.5C354.34,397.894,332.047,406.934,359.538,400.939z"/>
<path fill-rule="evenodd" clip-rule="evenodd" fill="#9B9B9B" stroke="#000000" stroke-width="0.5" stroke-linecap="square" stroke-miterlimit="10" d="  M372.288,406.189c-6.434-4.271-9.937-8.446-14.25-13.5c-0.101,0.151,5.918-1.059,6.75-1.5c-5.235-0.925-10.506-0.925-15.75,0  c0.872,0.521,6.863,1.69,6.75,1.5c-3.872,10.029-1.809,30.323,5.25,11.25C365.561,404.833,368.079,405.851,372.288,406.189z"/>
<path fill-rule="evenodd" clip-rule="evenodd" fill="#F9F9F9" stroke="#000000" stroke-width="0.5" stroke-linecap="square" stroke-miterlimit="10" d="  M440.54,394.189C434.635,393.767,434.006,393.722,440.54,394.189L440.54,394.189z"/>
<path fill-rule="evenodd" clip-rule="evenodd" fill="#F9F9F9" stroke="#000000" stroke-width="0.5" stroke-linecap="square" stroke-miterlimit="10" d="  M448.04,394.189C441.236,394.649,441.611,394.624,448.04,394.189L448.04,394.189z"/>
<path fill-rule="evenodd" clip-rule="evenodd" fill="#F9F9F9" stroke="#000000" stroke-width="0.5" stroke-linecap="square" stroke-miterlimit="10" d="  M456.29,382.939C437.284,381.501,457.353,398.28,456.29,382.939L456.29,382.939z"/>
<path fill-rule="evenodd" clip-rule="evenodd" fill="#F9F9F9" stroke="#000000" stroke-width="0.5" stroke-linecap="square" stroke-miterlimit="10" d="  M467.54,391.939C463.45,391.939,463.45,391.939,467.54,391.939L467.54,391.939z"/>
<path fill-rule="evenodd" clip-rule="evenodd" fill="#F9F9F9" stroke="#000000" stroke-width="0.5" stroke-linecap="square" stroke-miterlimit="10" d="  M451.04,382.939C443.102,382.939,443.102,382.939,451.04,382.939L451.04,382.939z"/>
<path fill-rule="evenodd" clip-rule="evenodd" fill="#F9F9F9" stroke="#000000" stroke-width="0.5" stroke-linecap="square" stroke-miterlimit="10" d="  M463.04,384.439C457.532,384.439,457.532,384.439,463.04,384.439L463.04,384.439z"/>
<path fill-rule="evenodd" clip-rule="evenodd" fill="#F9F9F9" stroke="#000000" stroke-width="0.5" stroke-linecap="square" stroke-miterlimit="10" d="  M460.79,391.939C447.996,398.159,448.103,385.344,460.79,391.939L460.79,391.939z"/>
<path fill-rule="evenodd" clip-rule="evenodd" fill="#F9F9F9" stroke="#000000" stroke-width="0.5" stroke-linecap="square" stroke-miterlimit="10" d="  M475.79,391.189C465.714,390.473,464.896,389.062,475.79,391.189L475.79,391.189z"/>
<path fill-rule="evenodd" clip-rule="evenodd" fill="#F9F9F9" stroke="#000000" stroke-width="0.5" stroke-linecap="square" stroke-miterlimit="10" d="  M481.04,385.189C471.374,386.649,471.597,383.649,481.04,385.189L481.04,385.189z"/>
<path fill-rule="evenodd" clip-rule="evenodd" fill="#F9F9F9" stroke="#000000" stroke-width="0.5" stroke-linecap="square" stroke-miterlimit="10" d="  M444.29,387.439c-9.562-2.213-18.284-6.833-25.5-13.5C423.433,381.76,435.232,388.516,444.29,387.439z"/>
<path fill-rule="evenodd" clip-rule="evenodd" fill="#FFFFFF" stroke="#000000" stroke-width="0.5" stroke-linecap="square" stroke-miterlimit="10" d="  M420.29,376.189C403.348,369.514,401.891,379.216,420.29,376.189L420.29,376.189z"/>
<path fill-rule="evenodd" clip-rule="evenodd" fill="#FFFFFF" d="M393.288,391.189L393.288,391.189L393.288,391.189z"/>
<line fill="none" stroke="#000000" stroke-width="0.5" stroke-linecap="square" stroke-miterlimit="10" x1="393.288" y1="391.189" x2="393.288" y2="391.189"/>
<path fill-rule="evenodd" clip-rule="evenodd" fill="#101177" stroke="#000000" stroke-width="0.5" stroke-linecap="square" stroke-miterlimit="10" d="  M427.79,386.689c-4.537,1.916-10.836,1.548-15.752,2.25c-1-9.5-2-19-3-28.5c0.136,8.751,1.739,19.167,3,28.5  c-5.675,0.582-13.243,2.635-18.75,1.5C402.537,391.101,419.912,388.756,427.79,386.689z"/>
<path fill-rule="evenodd" clip-rule="evenodd" fill="#FFFF00" stroke="#000000" stroke-width="0.5" stroke-linecap="square" stroke-miterlimit="10" d="  M410.538,367.939c5.402,4.309,9.799,11.453,13.502,17.25c-2.405,1.462-9.917,4.037-12.002,4.5  C412.362,383.256,409.556,374.716,410.538,367.939z"/>
<path fill-rule="evenodd" clip-rule="evenodd" fill="#FFFF00" stroke="#000000" stroke-width="0.5" stroke-linecap="square" stroke-miterlimit="10" d="  M406.788,372.439c-4.442,5.334-7.964,13.711-11.25,19.5C415.406,393.259,413.245,371.277,406.788,372.439z"/>
<path fill-rule="evenodd" clip-rule="evenodd" fill="#FF0000" stroke="#000000" stroke-width="0.5" stroke-linecap="square" stroke-miterlimit="10" d="  M397.038,394.939c8.991,9.865,23.725,7.872,30.002-4.5C417.119,392.399,407.103,393.901,397.038,394.939z"/>
<path fill-rule="evenodd" clip-rule="evenodd" fill="#9596B5" stroke="#000000" stroke-width="0.5" stroke-linecap="square" stroke-miterlimit="10" d="  M426.29,388.189c-10.751,1.5-21.501,3-32.252,4.5C402.167,395.787,421.624,392.603,426.29,388.189z"/>
<path fill-rule="evenodd" clip-rule="evenodd" fill="#F9F9F9" stroke="#000000" stroke-width="0.5" stroke-linecap="square" stroke-miterlimit="10" d="  M411.288,394.189C403.516,394.189,403.516,394.189,411.288,394.189L411.288,394.189z"/>
<path fill-rule="evenodd" clip-rule="evenodd" fill="#F9F9F9" stroke="#000000" stroke-width="0.5" stroke-linecap="square" stroke-miterlimit="10" d="  M415.04,400.189c-2.583-0.07-2.788,6.245-6.752,0C412.198,394.204,412.716,400.125,415.04,400.189z"/>
<path fill-rule="evenodd" clip-rule="evenodd" fill="#F9F9F9" stroke="#000000" stroke-width="0.5" stroke-linecap="square" stroke-miterlimit="10" d="  M396.288,394.939C372.696,382.683,404.33,419.755,396.288,394.939L396.288,394.939z"/>
<path fill-rule="evenodd" clip-rule="evenodd" fill="#F9F9F9" stroke="#000000" stroke-width="0.5" stroke-linecap="square" stroke-miterlimit="10" d="  M427.04,403.939C415.611,408.089,415.537,401.019,427.04,403.939L427.04,403.939z"/>
<path fill-rule="evenodd" clip-rule="evenodd" fill="#F9F9F9" stroke="#000000" stroke-width="0.5" stroke-linecap="square" stroke-miterlimit="10" d="  M411.288,397.939C404.148,397.177,403.852,397.145,411.288,397.939L411.288,397.939z"/>
<path fill-rule="evenodd" clip-rule="evenodd" fill="#FFFF00" stroke="#000000" stroke-width="0.5" stroke-linecap="square" stroke-miterlimit="10" d="  M434.54,387.439c-0.731-0.416-0.62-4.472-0.75-6c-2.5,1.5-5,3-7.5,4.5C433.372,388.494,427.801,384.985,434.54,387.439z"/>
<path fill-rule="evenodd" clip-rule="evenodd" fill="#FFFF00" stroke="#000000" stroke-width="0.5" stroke-linecap="square" stroke-miterlimit="10" d="  M443.54,385.939c-13.508-14.909-10.09,9.089-10.5,9C445.454,397.632,463.893,394.869,443.54,385.939z"/>
<path fill-rule="evenodd" clip-rule="evenodd" fill="#FFFF00" stroke="#000000" stroke-width="0.5" stroke-linecap="square" stroke-miterlimit="10" d="  M445.04,392.689c-18.174,2.149-1.441,3.525,8.25,0C450.38,391.748,447.883,393.353,445.04,392.689z"/>
<path fill-rule="evenodd" clip-rule="evenodd" fill="#FFFF00" stroke="#000000" stroke-width="0.5" stroke-linecap="square" stroke-miterlimit="10" d="  M436.79,385.189C436.742,385.167,434.189,384.022,436.79,385.189L436.79,385.189z"/>
<path fill-rule="evenodd" clip-rule="evenodd" fill="#F9F9F9" stroke="#000000" stroke-width="0.5" stroke-linecap="square" stroke-miterlimit="10" d="  M444.29,393.439C444.29,401.772,444.29,401.772,444.29,393.439L444.29,393.439z"/>
<path fill-rule="evenodd" clip-rule="evenodd" fill="#F9F9F9" stroke="#000000" stroke-width="0.5" stroke-linecap="square" stroke-miterlimit="10" d="  M441.29,398.689C431.436,399.721,431.576,395.242,441.29,398.689L441.29,398.689z"/>
<path fill-rule="evenodd" clip-rule="evenodd" fill="#F9F9F9" stroke="#000000" stroke-width="0.5" stroke-linecap="square" stroke-miterlimit="10" d="  M396.288,407.689C383.527,417.261,383.147,397.971,396.288,407.689L396.288,407.689z"/>
<path fill-rule="evenodd" clip-rule="evenodd" fill="#F9F9F9" stroke="#000000" stroke-width="0.5" stroke-linecap="square" stroke-miterlimit="10" d="  M385.038,402.439C371.905,411.509,371.905,393.369,385.038,402.439L385.038,402.439z"/>
<path fill-rule="evenodd" clip-rule="evenodd" fill="#F9F9F9" stroke="#000000" stroke-width="0.5" stroke-linecap="square" stroke-miterlimit="10" d="  M399.288,406.189C394.058,405.778,393.169,405.708,399.288,406.189L399.288,406.189z"/>
<path fill-rule="evenodd" clip-rule="evenodd" fill="#F9F9F9" stroke="#000000" stroke-width="0.5" stroke-linecap="square" stroke-miterlimit="10" d="  M407.538,406.189C400.045,406.628,400.296,406.614,407.538,406.189L407.538,406.189z"/>
<path fill-rule="evenodd" clip-rule="evenodd" fill="#F9F9F9" stroke="#000000" stroke-width="0.5" stroke-linecap="square" stroke-miterlimit="10" d="  M415.04,394.939C397.592,394.303,416.203,409.869,415.04,394.939L415.04,394.939z"/>
<path fill-rule="evenodd" clip-rule="evenodd" fill="#F9F9F9" stroke="#000000" stroke-width="0.5" stroke-linecap="square" stroke-miterlimit="10" d="  M426.29,403.939C422.584,403.939,422.584,403.939,426.29,403.939L426.29,403.939z"/>
<path fill-rule="evenodd" clip-rule="evenodd" fill="#F9F9F9" stroke="#000000" stroke-width="0.5" stroke-linecap="square" stroke-miterlimit="10" d="  M409.788,394.939C402.444,394.939,402.444,394.939,409.788,394.939L409.788,394.939z"/>
<path fill-rule="evenodd" clip-rule="evenodd" fill="#F9F9F9" stroke="#000000" stroke-width="0.5" stroke-linecap="square" stroke-miterlimit="10" d="  M421.79,396.439C416.395,396.439,416.395,396.439,421.79,396.439L421.79,396.439z"/>
<path fill-rule="evenodd" clip-rule="evenodd" fill="#F9F9F9" stroke="#000000" stroke-width="0.5" stroke-linecap="square" stroke-miterlimit="10" d="  M419.54,403.939C407.162,409.62,407.334,397.856,419.54,403.939L419.54,403.939z"/>
<path fill-rule="evenodd" clip-rule="evenodd" fill="#F9F9F9" stroke="#000000" stroke-width="0.5" stroke-linecap="square" stroke-miterlimit="10" d="  M434.54,403.189C424.26,404.368,424.87,401.393,434.54,403.189L434.54,403.189z"/>
<path fill-rule="evenodd" clip-rule="evenodd" fill="#F9F9F9" stroke="#000000" stroke-width="0.5" stroke-linecap="square" stroke-miterlimit="10" d="  M440.54,397.189C431.264,396.81,429.878,395.359,440.54,397.189L440.54,397.189z"/>
</svg>