<svg xmlns="http://www.w3.org/2000/svg" xmlns:xlink="http://www.w3.org/1999/xlink" version="1.1" id="Layer_1" x="0px" y="0px" enable-background="new 0 0 822.05 841.89" xml:space="preserve" viewBox="203.99 320.07 414.13 199.12">
<path fill-rule="evenodd" clip-rule="evenodd" fill="#282827" stroke="#000000" stroke-width="2" stroke-linecap="square" stroke-miterlimit="10" d="  M205.75,340.39c2.437,50.431,4.873,100.862,7.309,151.294c0.964,19.959,26.839,23.907,42.191,24.206  c13.535,0.263,51.377-5.174,50.913-24.668c-1.221-51.277-2.442-102.555-3.663-153.832C270.25,338.39,238,339.39,205.75,340.39z"/>
<path fill-rule="evenodd" clip-rule="evenodd" fill="#D1D1D2" stroke="#000000" stroke-width="2" stroke-linecap="square" stroke-miterlimit="10" d="  M205.75,343.39c2.827,49.116-15.469,116.104,48.75,117.75c72.168,1.849,49.868-69.958,49.5-122.25  C271.25,340.39,238.5,341.89,205.75,343.39z"/>
<path fill-rule="evenodd" clip-rule="evenodd" fill="#878787" stroke="#000000" stroke-width="2" stroke-linecap="square" stroke-miterlimit="10" d="  M304,338.89c-10.432,18.961-97.957,26.822-99,0C203.983,312.75,294.422,317.622,304,338.89z"/>
<path fill-rule="evenodd" clip-rule="evenodd" fill="#D1D1D2" stroke="#000000" stroke-width="2" stroke-linecap="square" stroke-miterlimit="10" d="  M289,335.14c-7.958,10.805-65.018,21.355-68.25,2.25C217.068,315.626,279.487,324.358,289,335.14z"/>
<path fill-rule="evenodd" clip-rule="evenodd" fill="#878787" stroke="#000000" stroke-width="2" stroke-linecap="square" stroke-miterlimit="10" d="  M241.75,327.64c5.444-3.035,34.124-6.17,24.75,8.25C258.358,348.416,240.24,340.347,241.75,327.64z"/>
<path fill="none" stroke="#000000" stroke-width="2" stroke-linecap="square" stroke-miterlimit="10" d="M241.75,327.64  c7.587,5.58,16.708,5.952,25.5,1.5"/>
<path fill-rule="evenodd" clip-rule="evenodd" fill="#282827" stroke="#000000" stroke-width="2" stroke-linecap="square" stroke-miterlimit="10" d="  M309.25,339.64c0.975,50.188,1.949,100.375,2.923,150.562c0.394,20.287,25.344,25.603,41.327,26.438  c13.795,0.721,50.775-3.758,51.052-23.168c0.733-51.277,1.465-102.555,2.198-153.832C374.25,339.64,341.75,339.64,309.25,339.64z"/>
<path fill-rule="evenodd" clip-rule="evenodd" fill="#D1D1D2" stroke="#000000" stroke-width="2" stroke-linecap="square" stroke-miterlimit="10" d="  M310,342.64c0.708,49.226-20.102,115.305,44.25,119.25c72.52,4.446,52.543-69.432,54-121.5C375.5,341.14,342.75,341.89,310,342.64z"/>
<path fill-rule="evenodd" clip-rule="evenodd" fill="#878787" stroke="#000000" stroke-width="2" stroke-linecap="square" stroke-miterlimit="10" d="  M408.25,340.39c-10.066,19.449-100.923,23.375-99.75-3C309.736,309.6,398.091,321.913,408.25,340.39z"/>
<path fill-rule="evenodd" clip-rule="evenodd" fill="#D1D1D2" stroke="#000000" stroke-width="2" stroke-linecap="square" stroke-miterlimit="10" d="  M393.25,337.39c-8.404,9.141-65.283,19.076-69,0C320.039,315.776,384.531,324.737,393.25,337.39z"/>
<path fill-rule="evenodd" clip-rule="evenodd" fill="#878787" stroke="#000000" stroke-width="2" stroke-linecap="square" stroke-miterlimit="10" d="  M346,327.64c5.668-3.017,33.722-5.239,24.75,9C362.662,349.476,344.383,340.402,346,327.64z"/>
<path fill="none" stroke="#000000" stroke-width="2" stroke-linecap="square" stroke-miterlimit="10" d="M346,327.64  c7.487,5.33,16.573,5.964,25.5,2.25"/>
<path fill-rule="evenodd" clip-rule="evenodd" fill="#282827" stroke="#000000" stroke-width="2" stroke-linecap="square" stroke-miterlimit="10" d="  M412.75,342.64c2.68,50.188,5.359,100.375,8.04,150.562c1.081,20.26,26.136,24.512,42.21,24.938  c13.749,0.364,50.549-5.294,50.18-24.668c-0.977-51.277-1.953-102.555-2.93-153.832C477.75,340.64,445.25,341.64,412.75,342.64z"/>
<path fill-rule="evenodd" clip-rule="evenodd" fill="#D1D1D2" stroke="#000000" stroke-width="2" stroke-linecap="square" stroke-miterlimit="10" d="  M413.5,345.64c2.473,49.099-16.12,115.499,48,117.75c72.355,2.54,50.25-71.161,50.25-123C479,342.14,446.25,343.89,413.5,345.64z"/>
<path fill-rule="evenodd" clip-rule="evenodd" fill="#878787" stroke="#000000" stroke-width="2" stroke-linecap="square" stroke-miterlimit="10" d="  M511.75,340.39c-9.484,20.3-100.356,25.995-99.75,0C412.632,313.299,501.519,321.793,511.75,340.39z"/>
<path fill-rule="evenodd" clip-rule="evenodd" fill="#D1D1D2" stroke="#000000" stroke-width="2" stroke-linecap="square" stroke-miterlimit="10" d="  M496,337.39c-7.212,10.849-65.188,20.899-68.25,2.25C424.286,318.544,487.091,325.042,496,337.39z"/>
<path fill-rule="evenodd" clip-rule="evenodd" fill="#878787" stroke="#000000" stroke-width="2" stroke-linecap="square" stroke-miterlimit="10" d="  M449.5,329.89c5.06-3.288,32.07-7.451,24.75,7.5C467.693,350.781,447.896,342.734,449.5,329.89z"/>
<path fill="none" stroke="#000000" stroke-width="2" stroke-linecap="square" stroke-miterlimit="10" d="M449.5,329.89  c7.108,4.458,16.217,4.902,24.75,1.5"/>
<path fill-rule="evenodd" clip-rule="evenodd" fill="#282827" stroke="#000000" stroke-width="2" stroke-linecap="square" stroke-miterlimit="10" d="  M517,341.89c0.975,50.188,1.949,100.375,2.924,150.562c0.4,20.63,25.283,25.028,41.326,25.688  c13.189,0.542,50.78-3.287,51.053-22.436c0.732-51.521,1.465-103.043,2.197-154.564C582,341.39,549.5,341.64,517,341.89z"/>
<path fill-rule="evenodd" clip-rule="evenodd" fill="#D1D1D2" stroke="#000000" stroke-width="2" stroke-linecap="square" stroke-miterlimit="10" d="  M517,344.14c1.078,49.94-19.436,115.066,45,119.25c71.676,4.654,52.175-68.556,54-120.75C583,343.14,550,343.64,517,344.14z"/>
<path fill-rule="evenodd" clip-rule="evenodd" fill="#878787" stroke="#000000" stroke-width="2" stroke-linecap="square" stroke-miterlimit="10" d="  M616,342.64c-11.814,18.725-99.756,24.169-99.75-3C516.256,313.261,605.854,322.757,616,342.64z"/>
<path fill-rule="evenodd" clip-rule="evenodd" fill="#D1D1D2" stroke="#000000" stroke-width="2" stroke-linecap="square" stroke-miterlimit="10" d="  M600.25,338.89c-8.303,10.296-69.676,18.392-69-2.25C531.915,316.345,592.542,327.667,600.25,338.89z"/>
<path fill-rule="evenodd" clip-rule="evenodd" fill="#878787" stroke="#000000" stroke-width="2" stroke-linecap="square" stroke-miterlimit="10" d="  M553.75,329.89c5.604-3.23,33.788-5.485,24,9C569.353,351.318,551.963,342.677,553.75,329.89z"/>
<path fill="none" stroke="#000000" stroke-width="2" stroke-linecap="square" stroke-miterlimit="10" d="M553.75,329.89  c6.987,5.217,15.966,5.889,24.75,2.25"/>
</svg>