<svg xmlns="http://www.w3.org/2000/svg" xmlns:xlink="http://www.w3.org/1999/xlink" version="1.1" id="Layer_1" x="0px" y="0px" enable-background="new 0 0 822.05 841.89" xml:space="preserve" viewBox="326.49 258.15 168.11 324.12">
<path fill-rule="evenodd" clip-rule="evenodd" fill="#282827" stroke="#000000" stroke-width="2" stroke-linecap="square" stroke-miterlimit="10" d="  M328.25,291.891c4.032,76.16,8.064,152.32,12.096,228.48c2.048,38.69,21.951,63.73,65.154,60.645  c38.313-2.736,89.063-7.001,88.09-55.139c-1.613-79.745-3.227-159.491-4.84-239.236C435.25,288.391,381.75,290.141,328.25,291.891z"/>
<path fill-rule="evenodd" clip-rule="evenodd" fill="#D1D1D2" stroke="#000000" stroke-width="2" stroke-linecap="square" stroke-miterlimit="10" d="  M329,297.141c2.86,54.344,5.72,108.688,8.581,163.031c1.305,24.796,58.461,30.469,77.294,30.469  c24.084,0,76.944-9.192,76.819-38.556c-0.231-54.398-0.463-108.796-0.694-163.194C437,291.641,383,294.391,329,297.141z"/>
<path fill-rule="evenodd" clip-rule="evenodd" fill="#878787" stroke="#000000" stroke-width="2" stroke-linecap="square" stroke-miterlimit="10" d="  M491,288.891c-12.688,36.822-164.64,39.418-163.5,0C328.694,247.604,479.402,250.908,491,288.891z"/>
<path fill-rule="evenodd" clip-rule="evenodd" fill="#D1D1D2" stroke="#000000" stroke-width="2" stroke-linecap="square" stroke-miterlimit="10" d="  M465.5,283.641c-11.938,20.952-115.718,29.995-114,0C353.248,253.134,455.083,259.711,465.5,283.641z"/>
<path fill-rule="evenodd" clip-rule="evenodd" fill="#878787" stroke="#000000" stroke-width="2" stroke-linecap="square" stroke-miterlimit="10" d="  M388.25,270.891c11.216-7.817,57.43-4.18,39,14.25C413.99,298.401,378.652,296.186,388.25,270.891z"/>
<path fill="none" stroke="#000000" stroke-width="2" stroke-linecap="square" stroke-miterlimit="10" d="M388.25,270.891  c11.31,10.014,27.667,7.223,41.25,2.25"/>
</svg>