<svg xmlns="http://www.w3.org/2000/svg" xmlns:xlink="http://www.w3.org/1999/xlink" version="1.1" id="Layer_1" x="0px" y="0px" enable-background="new 0 0 822.05 841.89" xml:space="preserve" viewBox="300.95 333.39 223.14 178.29">
<path fill-rule="evenodd" clip-rule="evenodd" fill="#F9DF58" stroke="#000000" stroke-linecap="square" stroke-miterlimit="10" d="  M479.258,477.89c0.506-24.775-2.13-50.458-7.5-74.625c-3.218-14.48-16.651-25.362-15-40.125c17.547,10.139,23.576,43.322,28.5,63  C489.474,442.988,511.437,489.243,479.258,477.89z"/>
<path fill-rule="evenodd" clip-rule="evenodd" fill="#F6F4D7" d="M423.758,479.39c30.048-13.808,79.312-27.756,95.25,12.75  C487.258,487.89,455.508,483.64,423.758,479.39z"/>
<path fill="none" stroke="#000000" stroke-linecap="square" stroke-miterlimit="10" d="M423.758,479.39  c30.048-13.808,79.312-27.756,95.25,12.75"/>
<path fill-rule="evenodd" clip-rule="evenodd" fill="#75BC22" stroke="#000000" stroke-linecap="square" stroke-miterlimit="10" d="  M459.758,363.14c-24.144,1.072-54.235,9.629-70.502,28.5c3.5-1.25,7-2.5,10.5-3.75c-1.25,1.75-2.5,3.5-3.75,5.25  c3.75-2.5,7.5-5,11.25-7.5c-0.25,1.5-0.5,3-0.75,4.5c2.25-2.25,4.5-4.5,6.75-6.75c-0.25,1.75-0.5,3.5-0.75,5.25  c2.001-2.25,4.001-4.5,6.002-6.75c0,1.25,0,2.5,0,3.75c1.25-1.75,2.5-3.5,3.75-5.25c0.75,2,1.5,4,2.25,6  c0.75-2.25,1.5-4.5,2.25-6.75c1.9-0.715,2.234,2.151,7.5-3c1.867,0.095-0.284,0.038,6-3c0.25,1.75,0.5,3.5,0.75,5.25  c6.437-6.149,5.178-3.332,10.5-10.5c0.25,1.25,0.5,2.5,0.75,3.75C454.758,369.14,457.258,366.14,459.758,363.14z"/>
<path fill-rule="evenodd" clip-rule="evenodd" fill="#75BC22" stroke="#000000" stroke-linecap="square" stroke-miterlimit="10" d="  M453.008,359.39c-15.834-15.097-24.776-11.579-42.752-19.5c0.5,1.25,1,2.5,1.5,3.75c-4-1-8-2-12-3c1.25,1,2.5,2,3.75,3c-2,0-4,0-6,0  c0.621,5.759-0.246,2.767-0.75,6.75c7.359,3.227,2.311,0.883,4.5,5.25c13.873-0.822,38.114,4.848,61.502,9  C459.508,362.89,456.258,361.14,453.008,359.39z"/>
<path fill-rule="evenodd" clip-rule="evenodd" fill="#75BC22" stroke="#000000" stroke-linecap="square" stroke-miterlimit="10" d="  M461.258,362.39c15.328,4.992,66.858,21.396,49.5,41.25c-1.5-2.75-3-5.5-4.5-8.25c-0.5,1.5-1,3-1.5,4.5  c-6.246-3.728,1.22-2.049-5.25-1.5c-1-2-2-4-3-6c-0.75,1.25-1.5,2.5-2.25,3.75c-1.25-2-2.5-4-3.75-6c-0.75,1.5-1.5,3-2.25,4.5  c-7.788-5.315-9.303-6.049-16.5-6.75c-2.945-3.387-4.27-9.265-6-13.5c-0.623,0.279-3.338,2.87-4.5,2.25  C461.258,372.021,460.648,366.949,461.258,362.39z"/>
<path fill-rule="evenodd" clip-rule="evenodd" fill="#75BC22" stroke="#000000" stroke-linecap="square" stroke-miterlimit="10" d="  M457.508,362.39c13.233-14.199,41.854-17.848,49.5,3.75C491.651,363.833,479.771,365.448,457.508,362.39z"/>
<path fill-rule="evenodd" clip-rule="evenodd" fill="#75BC22" stroke="#000000" stroke-linecap="square" stroke-miterlimit="10" d="  M453.758,359.39c-13.117-23.062,21.888-36.237,24.75-14.25c-10.185,0.968-18.076,7.256-20.25,20.25  C456.758,363.39,455.258,361.39,453.758,359.39z"/>
<path fill-rule="evenodd" clip-rule="evenodd" fill="#75BC22" stroke="#000000" stroke-linecap="square" stroke-miterlimit="10" d="  M459.008,361.64c-12.243,8.805-16.886,15.326-19.5,27c1-0.75,2-1.5,3-2.25c-0.194,6.946-1.498,4.459,0,11.25c1-0.75,2-1.5,3-2.25  c0.208,8.428-0.309,1.937,1.5,9.75c4.595-3.335,1.49-1.783,6-0.75c3.881-6.388,4.96-6.851,9.75-9.75  C465.119,383.253,468.505,372.984,459.008,361.64z"/>
<path fill="none" stroke="#000000" stroke-width="0.5" stroke-linecap="square" stroke-miterlimit="10" d="M403.506,345.89  c18.376,3.447,38.005,6.708,53.252,18"/>
<path fill="none" stroke="#000000" stroke-width="0.5" stroke-linecap="square" stroke-miterlimit="10" d="M505.508,365.39  c-9.44-15.787-31.816-8.835-46.5-3.75"/>
<path fill="none" stroke="#000000" stroke-width="0.5" stroke-linecap="square" stroke-miterlimit="10" d="M459.008,363.89  c-5.582,12.562-8.786,26.034-9.75,39.75"/>
<path fill="none" stroke="#000000" stroke-width="0.5" stroke-linecap="square" stroke-miterlimit="10" d="M474.758,336.14  c-15.084-1.138-20.806,12.642-17.25,26.25"/>
<path fill-rule="evenodd" clip-rule="evenodd" fill="#F6F4D7" d="M302.256,483.89c19.327-17.841,50.115,3.808,73.875-6.375  c28.507-12.217,72.217-0.375,103.127-0.375c11.669,0,24.866,4.077,34.5,10.5c29.797,19.865-16.699,21.75-26.43,21.75  c-44.941,0-89.882,0-134.823,0C323.94,509.39,296.365,521.248,302.256,483.89z"/>
<path fill="none" stroke="#000000" stroke-linecap="square" stroke-miterlimit="10" d="M302.256,483.89  c19.327-17.841,50.115,3.808,73.875-6.375c28.507-12.217,72.217-0.375,103.127-0.375c11.669,0,24.866,4.077,34.5,10.5  c29.797,19.865-16.699,21.75-26.43,21.75c-44.941,0-89.882,0-134.823,0C323.94,509.39,296.365,521.248,302.256,483.89z"/>
<path fill-rule="evenodd" clip-rule="evenodd" fill="#D63119" stroke="#000000" stroke-linecap="square" stroke-miterlimit="10" d="  M372.006,399.89c9.123-21.168-16.116-20.208-16.5-6.75c-0.121,4.24,26.726,30.142,26.25,30  C378.585,415.58,376.137,406.957,372.006,399.89z M369.756,398.39C353.246,393.129,371.358,379.185,369.756,398.39L369.756,398.39z"/>
<path fill-rule="evenodd" clip-rule="evenodd" fill="#F6F4D7" d="M419.258,447.14C432.799,416.335,285.564,416.837,419.258,447.14  L419.258,447.14z"/>
<path fill="none" stroke="#000000" stroke-linecap="square" stroke-miterlimit="10" d="M419.258,447.14  C432.799,416.335,285.564,416.837,419.258,447.14L419.258,447.14z"/>
<path fill-rule="evenodd" clip-rule="evenodd" fill="#F8E50E" stroke="#000000" stroke-linecap="square" stroke-miterlimit="10" d="  M360.756,432.89c-2,16.006-14.704,46.096,3.516,50.082c40.683,8.898,37.464,10.966,52.917-27.661  C426.168,432.867,377.407,429.541,360.756,432.89z"/>
<path fill="none" stroke="#000000" stroke-linecap="square" stroke-miterlimit="10" d="M385.506,429.14  c-3.678-2.555-8.103-3.82-12.75-3.75"/>
<path fill-rule="evenodd" clip-rule="evenodd" fill="#D63119" stroke="#000000" stroke-linecap="square" stroke-miterlimit="10" d="  M360.756,438.89c14.784-0.623,64.087,1.048,54.002,22.5c-15.169-11.565-36.059-15.247-54.752-12.75  C360.256,445.39,360.506,442.14,360.756,438.89z"/>
<path fill-rule="evenodd" clip-rule="evenodd" fill="#D63119" d="M358.506,456.89c13.869,0.037,61.31,1.153,48,23.25  c-14.74-9.403-32.273-13.689-49.5-9.75C357.506,465.89,358.006,461.39,358.506,456.89z"/>
<path fill="none" stroke="#000000" stroke-linecap="square" stroke-miterlimit="10" d="M358.506,456.89  c13.869,0.037,61.31,1.153,48,23.25c-14.74-9.403-32.273-13.689-49.5-9.75C357.506,465.89,358.006,461.39,358.506,456.89"/>
<path fill-rule="evenodd" clip-rule="evenodd" fill="#E6B98A" stroke="#000000" stroke-linecap="square" stroke-miterlimit="10" d="  M416.258,480.89c10.69-3.024,35.463-14.303,30,1.5c5.126,1.561,8.387,2.442,11.25,6c-5.204-0.784-11.194,2.102-16.5,2.25  c1.16,5.555-0.942,9.611-0.75,13.5c-6.738-7.54-14.866-10.695-24.75-9.75c3.02-1.409,7.597-6.409,11.25-8.25  C420.326,486.917,417.454,481.371,416.258,480.89z"/>
<line fill="none" stroke="#000000" stroke-linecap="square" stroke-miterlimit="10" x1="422.258" y1="481.64" x2="422.258" y2="481.64"/>
<line fill="none" stroke="#000000" stroke-linecap="square" stroke-miterlimit="10" x1="450.758" y1="486.89" x2="450.758" y2="486.89"/>
<path fill="none" stroke="#000000" stroke-width="0.5" stroke-linecap="square" stroke-miterlimit="10" d="M422.258,481.64  c4.405,0.327,8.656,1.328,12.75,3"/>
<path fill="none" stroke="#000000" stroke-width="0.5" stroke-linecap="square" stroke-miterlimit="10" d="M438.758,498.14  c-2.762-2.775-3.752-6.467-3-10.5"/>
<path fill="none" stroke="#000000" stroke-width="0.5" stroke-linecap="square" stroke-miterlimit="10" d="M450.758,486.89  c-4.294-1.747-8.875-2.511-13.5-2.25"/>
<path fill="none" stroke="#000000" stroke-width="0.5" stroke-linecap="square" stroke-miterlimit="10" d="M443.258,478.64  c-2.828,0.12-5.616,1.522-6.75,3.75"/>
<path fill="none" stroke="#000000" stroke-width="0.5" stroke-linecap="square" stroke-miterlimit="10" d="M432.008,487.64  c-3,1.25-6,2.5-9,3.75"/>
<path fill-rule="evenodd" clip-rule="evenodd" fill="#15519F" stroke="#000000" stroke-linecap="square" stroke-miterlimit="10" d="  M396.756,438.89c7.959,8.062,26.563,23.87,15,29.25C435.133,467.333,402.355,440.144,396.756,438.89z"/>
<path fill-rule="evenodd" clip-rule="evenodd" fill="#15519F" stroke="#000000" stroke-linecap="square" stroke-miterlimit="10" d="  M402.006,435.89C392.387,435.89,392.387,435.89,402.006,435.89L402.006,435.89z"/>
<path fill-rule="evenodd" clip-rule="evenodd" fill="#F6F4D7" d="M338.256,483.89c26.227-10.975,54.805-4.665,76.502,12.75  C389.257,492.39,363.756,488.14,338.256,483.89z"/>
<path fill="none" stroke="#000000" stroke-linecap="square" stroke-miterlimit="10" d="M338.256,483.89  c26.227-10.975,54.805-4.665,76.502,12.75"/>
</svg>