<svg xmlns="http://www.w3.org/2000/svg" xmlns:xlink="http://www.w3.org/1999/xlink" version="1.1" id="Layer_1" x="0px" y="0px" enable-background="new 0 0 822.05 841.89" xml:space="preserve" viewBox="313.75 367.19 194.5 102.95">
<path fill-rule="evenodd" clip-rule="evenodd" fill="#D2D1D2" stroke="#000000" stroke-width="1.5" stroke-linecap="square" stroke-miterlimit="10" d="  M327.5,377.14c28.021-12.788,62.981-14.269,85.875,8.625c15.669,15.669,11.242,39.753-7.875,46.125  c-35.604,11.868-38.559,62.196-72,22.5C314.512,431.85,305.192,400.836,327.5,377.14z"/>
<path fill-rule="evenodd" clip-rule="evenodd" fill="#F8130D" stroke="#000000" stroke-width="2" stroke-linecap="square" stroke-miterlimit="10" d="  M424.25,405.64c12.759,17.668,30.661,31.739,41.25,51C443.565,451.305,385.009,429.31,424.25,405.64z"/>
<path fill-rule="evenodd" clip-rule="evenodd" d="M390.5,392.14C397.35,412.205,410.909,391.185,390.5,392.14L390.5,392.14z"/>
<path fill-rule="evenodd" clip-rule="evenodd" fill="#F8130D" d="M459.5,452.89c-13.971-12.601-29.58-27.135-47.25-33.75  C428,430.39,443.75,441.64,459.5,452.89z"/>
<path fill="none" stroke="#000000" stroke-width="2" stroke-linecap="square" stroke-miterlimit="10" d="M459.5,452.89  c-13.971-12.601-29.58-27.135-47.25-33.75"/>
<path fill-rule="evenodd" clip-rule="evenodd" d="M480.5,413.89c10.558-8.474,22.067-15.224,27.75-2.25  c-11.505,3.034-23.935,7.164-20.25,18c-10.5,0-21,0-31.5,0c7-7.75,14-15.5,21-23.25C478.5,408.89,479.5,411.39,480.5,413.89z"/>
</svg>