<svg xmlns="http://www.w3.org/2000/svg" xmlns:xlink="http://www.w3.org/1999/xlink" version="1.1" id="Layer_1" x="0px" y="0px" enable-background="new 0 0 822.05 841.89" xml:space="preserve" viewBox="351.46 369.27 118.79 105.27">
<path fill-rule="evenodd" clip-rule="evenodd" fill="#792020" stroke="#000000" stroke-linecap="square" stroke-miterlimit="10" d="  M405.256,405.152c8.106-21.319,39.728-53.897,57.379-22.125c19.433,34.979-3.466,71.65-37.875,85.875  c-23.71,9.802-66.982,7.632-72.379-24.75C346.824,410.81,398.188,430.302,405.256,405.152z"/>
<path fill-rule="evenodd" clip-rule="evenodd" fill="#7F2218" d="M436.01,393.902C445.843,393.061,441.175,393.46,436.01,393.902  L436.01,393.902z"/>
<path fill-rule="evenodd" clip-rule="evenodd" fill="#A13621" d="M424.01,412.652c2.756-0.125,4.021,3.798,7.5,0.75  C427.832,407.087,426.149,412.555,424.01,412.652z"/>
<path fill-rule="evenodd" clip-rule="evenodd" fill="#7F2218" d="M415.006,426.902C426.197,426.083,421.925,426.395,415.006,426.902  L415.006,426.902z"/>
<path fill-rule="evenodd" clip-rule="evenodd" fill="#661C17" d="M392.506,437.402C397.791,437.597,393.792,437.45,392.506,437.402  L392.506,437.402z"/>
<path fill-rule="evenodd" clip-rule="evenodd" fill="#661C17" d="M391.756,448.652c-4.129,0.017-7.768,2.752-12-0.75  C384.036,446.687,389.172,448.663,391.756,448.652z"/>
<path fill-rule="evenodd" clip-rule="evenodd" fill="#661C17" d="M409.006,458.402c-2.12-0.015-5.03,3.357-9,0  C403.931,454.798,406.378,458.384,409.006,458.402z"/>
<path fill-rule="evenodd" clip-rule="evenodd" fill="#A13621" d="M419.51,449.402C412.121,449.551,408.382,449.627,419.51,449.402  L419.51,449.402z"/>
<path fill-rule="evenodd" clip-rule="evenodd" fill="#661C17" d="M377.506,434.402c-2.312-0.024-3.274,2.685-6,0  C373.737,431.512,374.695,434.372,377.506,434.402z"/>
<path fill-rule="evenodd" clip-rule="evenodd" fill="#A13621" d="M433.01,442.652c-2.358,0.074-4.27,4.435-7.5,0  c0.677-0.323,0.927-0.823,0.75-1.5C430.455,439.154,430.504,442.73,433.01,442.652z"/>
<path fill-rule="evenodd" clip-rule="evenodd" fill="#7F2218" d="M448.01,405.152C460.522,411.744,457.816,401.493,448.01,405.152  L448.01,405.152z"/>
<path fill-rule="evenodd" clip-rule="evenodd" fill="#A13621" d="M433.76,423.902C440.627,423.481,438.449,423.615,433.76,423.902  L433.76,423.902z"/>
<path fill-rule="evenodd" clip-rule="evenodd" fill="#A13621" d="M422.51,397.652c1.942-0.314,3.713,5.345,4.5-0.75  C423.104,391.997,423.817,397.44,422.51,397.652z"/>
<path fill-rule="evenodd" clip-rule="evenodd" fill="#661C17" d="M388.756,462.902c-4.584,0.748-7.206,6.561-12-0.75  C382.323,458.444,383.984,462.833,388.756,462.902z"/>
<path fill-rule="evenodd" clip-rule="evenodd" fill="#A13621" d="M461.51,396.152c9.854,43.61-22.067,57.759-52.504,73.5  C436.902,465.292,488.79,422.416,461.51,396.152z"/>
<path fill-rule="evenodd" clip-rule="evenodd" fill="#A13621" d="M443.51,371.402c-11.147,2.093-20.083,8.26-24,18.75  C424.396,383.697,439.162,373.234,443.51,371.402z"/>
</svg>