<svg xmlns="http://www.w3.org/2000/svg" xmlns:xlink="http://www.w3.org/1999/xlink" version="1.1" id="Layer_1" x="0px" y="0px" enable-background="new 0 0 822.05 841.89" xml:space="preserve" viewBox="312.5 342.14 199.1 159.13">
<path fill-rule="evenodd" clip-rule="evenodd" fill="#FFFFFF" d="M317.5,459.515L317.5,459.515L317.5,459.515z"/>
<line fill="none" stroke="#000000" stroke-linecap="square" stroke-miterlimit="10" x1="317.5" y1="459.515" x2="317.5" y2="459.515"/>
<path fill-rule="evenodd" clip-rule="evenodd" fill="#F7F619" stroke="#000000" stroke-linecap="square" stroke-miterlimit="10" d="  M439,466.265c-16.373,3.858-121.5,9.159-121.5-5.625C317.5,452.625,441.839,439.703,439,466.265z"/>
<path fill-rule="evenodd" clip-rule="evenodd" fill="#724211" stroke="#000000" stroke-linecap="square" stroke-miterlimit="10" d="  M439,473.765c-22.035,0-44.069,0-66.104,0c-5.782,0-71.989,6.785-55.396-13.5c5.205-6.362,57.686,0,66.104,0  C399.835,460.265,444.191,449.348,439,473.765z"/>
<path fill-rule="evenodd" clip-rule="evenodd" fill="#F8130D" stroke="#000000" stroke-linecap="square" stroke-miterlimit="10" d="  M319,435.515c-1.309,10.252,17.647,31.48,28.5,21C360.338,444.118,329.797,429.79,319,435.515z"/>
<path fill-rule="evenodd" clip-rule="evenodd" fill="#F8130D" stroke="#000000" stroke-linecap="square" stroke-miterlimit="10" d="  M344.5,443.765c9.774-2.097,114.313-20.231,89.25,12C426.383,465.239,326.106,465.735,344.5,443.765z"/>
<path fill-rule="evenodd" clip-rule="evenodd" fill="#724211" stroke="#000000" stroke-linecap="square" stroke-miterlimit="10" d="  M313,500.765c13.016-10.951,4.5-68.631,4.5-90c-1.5,0-3,0-4.5,0C313,440.765,313,470.765,313,500.765z"/>
<path fill-rule="evenodd" clip-rule="evenodd" fill="#724211" stroke="#000000" stroke-linecap="square" stroke-miterlimit="10" d="  M439,500.015c11.03-13.398,3.75-60.887,3.75-82.5c-1.25,0-2.5,0-3.75,0C439,445.015,439,472.515,439,500.015z"/>
<path fill-rule="evenodd" clip-rule="evenodd" fill="#FFFFFF" d="M388,388.265L388,388.265L388,388.265z"/>
<line fill="none" stroke="#000000" stroke-width="0.75" stroke-linecap="square" stroke-miterlimit="10" x1="388" y1="388.265" x2="388" y2="388.265"/>
<path fill-rule="evenodd" clip-rule="evenodd" fill="#F7F619" stroke="#000000" stroke-width="0.75" stroke-linecap="square" stroke-miterlimit="10" d="  M506.5,394.265c-15.491,3.9-119.25,8.666-119.25-5.25C387.25,381.649,509.268,369.056,506.5,394.265z"/>
<path fill-rule="evenodd" clip-rule="evenodd" fill="#724211" stroke="#000000" stroke-width="0.75" stroke-linecap="square" stroke-miterlimit="10" d="  M506.5,401.765c-23.582,0-47.164,0-70.746,0c-2.193,0-67.254,3.117-48.504-12.75c9.258-7.835,58.673,0,70.746,0  C473.874,389.015,510.561,378.966,506.5,401.765z"/>
<path fill-rule="evenodd" clip-rule="evenodd" fill="#F8130D" stroke="#000000" stroke-width="0.75" stroke-linecap="square" stroke-miterlimit="10" d="  M388.75,365.765c-1.426,11.335,20.392,29.35,28.5,18C426.698,370.54,397.818,360.578,388.75,365.765z"/>
<path fill-rule="evenodd" clip-rule="evenodd" fill="#F8130D" stroke="#000000" stroke-width="0.75" stroke-linecap="square" stroke-miterlimit="10" d="  M414.25,373.265c9.954-2.589,109.466-18.717,87,12C495.297,393.405,392.945,394.755,414.25,373.265z"/>
<path fill-rule="evenodd" clip-rule="evenodd" fill="#724211" stroke="#000000" stroke-width="0.75" stroke-linecap="square" stroke-miterlimit="10" d="  M382,426.515c12.248-11.485,4.5-62.783,4.5-84c-1.5,0-3,0-4.5,0C382,370.515,382,398.515,382,426.515z"/>
<path fill-rule="evenodd" clip-rule="evenodd" fill="#724211" stroke="#000000" stroke-width="0.75" stroke-linecap="square" stroke-miterlimit="10" d="  M506.5,425.015c8.438-16.103,3-54.331,3-76.5C501.062,364.618,506.5,402.846,506.5,425.015z"/>
</svg>