<svg xmlns="http://www.w3.org/2000/svg" xmlns:xlink="http://www.w3.org/1999/xlink" version="1.1" id="Layer_1" x="0px" y="0px" enable-background="new 0 0 822.05 841.89" xml:space="preserve" viewBox="305.87 333.14 211.75 176.75">
<path fill-rule="evenodd" clip-rule="evenodd" fill="#5C2812" stroke="#000000" stroke-linecap="square" stroke-miterlimit="10" d="  M372.374,427.64c9.5,5.25,19,10.5,28.5,15.75C397.622,432.51,382.99,420.186,372.374,427.64z"/>
<path fill-rule="evenodd" clip-rule="evenodd" fill="#5C2812" d="M413.622,422.39c11.028-5.656,21.943-11.292,33.754-15  C441.747,416.014,417.79,429.207,413.622,422.39z"/>
<path fill="none" stroke="#000000" stroke-linecap="square" stroke-miterlimit="10" d="M413.622,422.39  c11.028-5.656,21.943-11.292,33.754-15c-6.375,9.767-22.39,14.077-33.754,19.5"/>
<path fill-rule="evenodd" clip-rule="evenodd" fill="#1E3B1B" d="M343.124,418.64c4.301-1.608,6.488-5.122,11.25,3  c-6.966,7.695-16.649,8.844-28.5,9.75c1.404-3.581,5.708-11.077,7.5-13.5C336.642,418.425,339.776,418.451,343.124,418.64z"/>
<path fill-rule="evenodd" clip-rule="evenodd" fill="#1E3B1B" d="M366.374,413.39c5.227,2.111,8.99,2.955,10.5,9.75  c-12.947-0.526-23.797,6.889-25.5-6C360.49,420.493,357.49,415.12,366.374,413.39z"/>
<path fill-rule="evenodd" clip-rule="evenodd" fill="#1E3B1B" d="M365.624,422.39c-3.319-0.11-37.768,7.041-18.75,10.5  C365.021,436.191,369.508,421.251,365.624,422.39z"/>
<path fill-rule="evenodd" clip-rule="evenodd" fill="#1E3B1B" d="M346.874,433.64c5.752-1.429,7.981,1.036,15.75-3c0.5,1,1,2,1.5,3  c-4.519,9.596-12.024,12.75-21.75,6.75C343.015,436.5,345.486,435.748,346.874,433.64z"/>
<path fill-rule="evenodd" clip-rule="evenodd" fill="#1E3B1B" d="M375.374,438.14c6.223-1.145,7.081-7.881,12.75,0  c-12.383,4.861-33.011,22.751-32.25,3C365.405,444.488,366.927,440.967,375.374,438.14z"/>
<path fill-rule="evenodd" clip-rule="evenodd" fill="#1E3B1B" d="M385.124,435.14c-16.22-3.149-10.167-7.767-0.75-12  c-13.02-0.315-19.349,9.391-33,6.75C356.013,439.092,374.185,443.417,385.124,435.14z"/>
<path fill-rule="evenodd" clip-rule="evenodd" fill="#1E3B1B" d="M388.874,380.39c4.236-1.521,6.173-5.179,11.25,3  c-9.493,7.906-25.275,4.577-26.25,21.75c-4.677-10.73,0.337-19.215,6-25.5C382.872,380.269,385.757,380.352,388.874,380.39z"/>
<path fill-rule="evenodd" clip-rule="evenodd" fill="#1E3B1B" d="M412.124,375.14c5.591,2.299,9.43,2.912,10.502,9.75  c-12.822-0.167-22.855,6.399-25.502-5.25C406.282,381.43,403.211,377.08,412.124,375.14z"/>
<path fill-rule="evenodd" clip-rule="evenodd" fill="#1E3B1B" d="M411.374,384.14c-5.377-0.856-35.729,7.402-18.75,10.5  C411.742,398.129,414.584,383.008,411.374,384.14z"/>
<path fill-rule="evenodd" clip-rule="evenodd" fill="#1E3B1B" d="M392.624,395.39c6.48-1.473,8.014,1.346,15.75-3c0.5,1,1,2,1.5,3  c-3.794,9.5-11.465,12.46-21.75,7.5C388.792,398.479,391.171,397.246,392.624,395.39z"/>
<path fill-rule="evenodd" clip-rule="evenodd" fill="#1E3B1B" d="M421.876,399.89c5.919-1.258,6.823-7.251,12,0  c-13.011,6.316-17.828,12.929-30.752,13.5c-2.159-4.642-1.282-4.939-1.5-10.5C410.894,405.724,413.671,402.971,421.876,399.89z"/>
<path fill-rule="evenodd" clip-rule="evenodd" fill="#1E3B1B" d="M430.876,396.89c-16.137-2.701-10.042-7.514-0.75-12  c-12.618,0.364-19.36,9.925-33.002,6.75C401.803,400.823,419.858,405.475,430.876,396.89z"/>
<path fill-rule="evenodd" clip-rule="evenodd" fill="#1E3B1B" d="M354.374,444.14c3.85-0.534,6.221-5.576,11.25,3  c-7.179,7.144-17.473,8.547-28.5,9c1.877-3.717,5.961-9.924,8.25-12.75C348.383,443.935,351.21,444.131,354.374,444.14z"/>
<path fill-rule="evenodd" clip-rule="evenodd" fill="#1E3B1B" d="M378.374,438.89c4.839,2.176,8.655,2.819,9.75,9.75  c-13.176-0.842-22.485,6.851-25.5-6C371.641,445.668,369.344,440.715,378.374,438.89z"/>
<path fill-rule="evenodd" clip-rule="evenodd" fill="#1E3B1B" d="M376.874,447.89c-5.735-1.062-35.349,7.693-18,10.5  C376.312,461.211,382.238,446.715,376.874,447.89z"/>
<path fill-rule="evenodd" clip-rule="evenodd" fill="#1E3B1B" d="M358.874,458.39c5.022-0.916,11.288,0.385,16.5-0.75  c-3.261,10.848-11.306,14.931-21.75,8.25C354.748,461.222,356.729,460.948,358.874,458.39z"/>
<path fill-rule="evenodd" clip-rule="evenodd" fill="#1E3B1B" d="M387.374,463.64c5.958-1.278,7.535-7.904,12,0.75  c-14.634,3.354-17.245,12.792-30.75,12c-2.029-3.945-1.341-5.501-1.5-10.5C375.821,469.982,378.942,466.957,387.374,463.64z"/>
<path fill-rule="evenodd" clip-rule="evenodd" fill="#1E3B1B" d="M396.374,460.64c-5.002-1.156-8.748-1.095-12-5.25  c4.569-1.275,9.831-5.86,12-6.75c-12.857-0.432-19.691,9.349-33,6.75C367.918,464.296,385.959,469.085,396.374,460.64z"/>
<path fill-rule="evenodd" clip-rule="evenodd" fill="#1E3B1B" d="M336.374,387.89c4.029-1.283,6.581-4.119,11.25,3.75  c-6.677,6.778-17.788,8.625-28.5,9C323.212,392.77,328.354,388.638,336.374,387.89z"/>
<path fill-rule="evenodd" clip-rule="evenodd" fill="#1E3B1B" d="M360.374,383.39c4.49,1.861,8.19,2.994,9.75,9  c-12.965,0.082-22.546,7.144-25.5-5.25C353.758,389.679,350.949,385.033,360.374,383.39z"/>
<path fill-rule="evenodd" clip-rule="evenodd" fill="#1E3B1B" d="M358.874,392.39c-2.379-0.409-37.559,3.846-19.5,10.5  C357.274,409.486,365.287,389.752,358.874,392.39z"/>
<path fill-rule="evenodd" clip-rule="evenodd" fill="#1E3B1B" d="M340.124,402.89c6.31-1.207,10.159,1.029,17.25-1.5  c-3.483,11.562-11.659,15.636-21.75,9C336.916,405.877,338.76,404.419,340.124,402.89z"/>
<path fill-rule="evenodd" clip-rule="evenodd" fill="#1E3B1B" d="M369.374,408.14c5.731-1.214,7.745-7.846,12,0.75  c-15.268,3.373-16.993,12.414-30.75,12c-2.043-4.106-1.215-5.439-1.5-10.5C357.917,414.239,360.936,411.31,369.374,408.14z"/>
<path fill-rule="evenodd" clip-rule="evenodd" fill="#1E3B1B" d="M378.374,405.14c-4.252-0.958-8.1-1.386-12-3.75  c2.062-0.819,10.091-7.495,12-8.25c-12.877-0.548-19.751,9.356-33,6.75c-0.5,1-1,2-1.5,3  C354.279,408.972,368.479,412.989,378.374,405.14z"/>
<path fill-rule="evenodd" clip-rule="evenodd" fill="#1E3B1B" d="M352.874,363.14c4.236-1.521,6.173-5.179,11.25,3  c-9.084,10.035-26.094,2.254-26.25,21.75c-3.683-10.473-0.127-19.145,5.25-25.5C346.392,362.925,349.523,362.974,352.874,363.14z"/>
<path fill-rule="evenodd" clip-rule="evenodd" fill="#1E3B1B" d="M376.124,357.89c5.254,2.223,9.039,3.06,10.5,9.75  c-13.068-0.254-23.582,6.906-25.5-6C370.24,364.993,367.24,359.62,376.124,357.89z"/>
<path fill-rule="evenodd" clip-rule="evenodd" fill="#1E3B1B" d="M375.374,366.89c-5.674-1.008-35.525,7.485-18.75,10.5  C375.1,380.71,378.994,365.672,375.374,366.89z"/>
<path fill-rule="evenodd" clip-rule="evenodd" fill="#1E3B1B" d="M356.624,378.14c6.028-1.491,7.929,1.083,15.75-3c0.5,1,1,2,1.5,3  c-4.519,9.595-12.024,12.75-21.75,6.75C352.765,381,355.236,380.248,356.624,378.14z"/>
<path fill-rule="evenodd" clip-rule="evenodd" fill="#1E3B1B" d="M385.124,382.64c6.285-1.144,7.021-7.808,12.75,0  c-7.137,3.267-8.92,6.996-12.75,9.75c-10.847,3.716-19.579,5.064-19.5-6.75C375.188,389.088,376.646,385.453,385.124,382.64z"/>
<path fill-rule="evenodd" clip-rule="evenodd" fill="#1E3B1B" d="M394.874,379.64c-16.22-3.149-10.167-7.766-0.75-12  c-13.02-0.315-19.349,9.39-33,6.75C365.97,383.397,383.918,388.045,394.874,379.64z"/>
<path fill-rule="evenodd" clip-rule="evenodd" fill="#1E3B1B" d="M411.374,440.39c4.3-1.606,6.488-5.122,11.252,3  c-9.087,10.033-26.097,2.255-26.252,21.75c-4.519-10.436,0.184-19.634,6-25.5C405.372,440.269,408.257,440.352,411.374,440.39z"/>
<path fill-rule="evenodd" clip-rule="evenodd" fill="#1E3B1B" d="M434.626,435.14c5.418,2.288,9.289,2.601,10.5,9.75  c-13.402-1.069-22.995,7.045-25.5-6C428.823,442.387,425.623,436.996,434.626,435.14z"/>
<path fill-rule="evenodd" clip-rule="evenodd" fill="#1E3B1B" d="M433.876,444.14c-5.786-1.081-35.037,7.853-18.754,10.5  C433.62,457.647,437.743,442.834,433.876,444.14z"/>
<path fill-rule="evenodd" clip-rule="evenodd" fill="#1E3B1B" d="M415.122,455.39c6.299-1.46,7.965,1.141,15.754-3c0.5,1,1,2,1.5,3  c-3.967,9.45-11.393,12.609-21.752,6.75C411.264,458.254,413.755,457.497,415.122,455.39z"/>
<path fill-rule="evenodd" clip-rule="evenodd" fill="#1E3B1B" d="M444.376,459.89c5.661-1.129,6.481-7.954,12,0  c-12.597,5.188-18.271,13.385-30.75,12.75c-1.981-3.905-1.42-5.565-1.5-9.75C434.089,465.836,434.929,461.949,444.376,459.89z"/>
<path fill-rule="evenodd" clip-rule="evenodd" fill="#1E3B1B" d="M453.376,456.89c-15.991-3.448-10.066-7.96-0.75-12  c-12.927-0.331-19.264,9.411-33,6.75C424.646,460.571,442.482,465.237,453.376,456.89z"/>
<path fill-rule="evenodd" clip-rule="evenodd" fill="#1E3B1B" d="M367.874,392.39c3.861-0.637,5.95-5.54,11.25,3  c-9.761,7.537-25.812,4.669-25.5,22.5C346.444,403.167,356.844,392.866,367.874,392.39z"/>
<path fill-rule="evenodd" clip-rule="evenodd" fill="#1E3B1B" d="M391.874,387.14c5.201,2.44,8.617,3.531,9.75,9.75  c-12.537,0.362-21.711,6.169-25.5-5.25C385.008,393.395,383.066,388.982,391.874,387.14z"/>
<path fill-rule="evenodd" clip-rule="evenodd" fill="#1E3B1B" d="M390.374,396.89c-6.052-1.662-36.009,6.273-18,10.5  C390.083,411.546,395.813,394.248,390.374,396.89z"/>
<path fill-rule="evenodd" clip-rule="evenodd" fill="#1E3B1B" d="M371.624,407.39c5.51-1.337,11.642-0.198,17.25-1.5  c-3.726,11.432-11.99,15.052-21.75,9C367.857,410.8,370.211,409.393,371.624,407.39z"/>
<path fill-rule="evenodd" clip-rule="evenodd" fill="#1E3B1B" d="M400.874,411.89c5.864-1.002,8.356-7.002,11.998,1.5  c-15.892,3.371-16.782,11.895-30.748,12c-2.336-4.495-1.018-5.105-1.5-10.5C389.854,418.199,392.771,415.256,400.874,411.89z"/>
<path fill-rule="evenodd" clip-rule="evenodd" fill="#1E3B1B" d="M409.874,408.89c-16.042-2.598-9.6-7.946,0-12  c-13.071,0.487-19.201,9.634-33,7.5c-0.263,0.921-0.763,1.671-1.5,2.25C385.072,413.209,400.178,417.154,409.874,408.89z"/>
<path fill-rule="evenodd" clip-rule="evenodd" fill="#1E3B1B" d="M388.874,415.64c3.85-0.535,6.221-5.577,11.25,3  c-9.585,7.466-25.756,3.747-25.5,21.75c-5.057-10.374-0.534-19.547,5.25-25.5C382.887,415.436,385.709,415.615,388.874,415.64z"/>
<path fill-rule="evenodd" clip-rule="evenodd" fill="#1E3B1B" d="M412.872,410.39c4.841,2.175,8.658,2.818,9.754,9.75  c-13.176-0.842-22.487,6.851-25.502-6C406.193,417.137,403.612,412.209,412.872,410.39z"/>
<path fill-rule="evenodd" clip-rule="evenodd" fill="#1E3B1B" d="M411.374,419.39c-5.771-1.069-35.443,7.768-18,10.5  C410.966,432.646,416.428,418.277,411.374,419.39z"/>
<path fill-rule="evenodd" clip-rule="evenodd" fill="#1E3B1B" d="M393.374,429.89c5.085-0.956,11.173,0.368,16.5-0.75  c-3.464,11.118-11.404,14.867-21.75,8.25C389.248,432.722,391.229,432.448,393.374,429.89z"/>
<path fill-rule="evenodd" clip-rule="evenodd" fill="#1E3B1B" d="M421.876,435.14c5.881-1.149,7.551-8.007,12,0.75  c-14.706,3.229-17.063,12.801-30.752,12c-2.029-3.945-1.341-5.501-1.5-10.5C410.322,441.48,413.442,438.457,421.876,435.14z"/>
<path fill-rule="evenodd" clip-rule="evenodd" fill="#1E3B1B" d="M430.876,432.14c-16.339-3.658-9.403-8.246,0-12  c-12.857-0.432-19.693,9.348-33.002,6.75c-0.5,1-1,2-1.5,3C406.479,435.931,421.04,440.096,430.876,432.14z"/>
<path fill-rule="evenodd" clip-rule="evenodd" fill="#1E3B1B" d="M429.376,405.14c3.86-0.637,5.95-5.54,11.25,3  c-9.626,7.242-25.497,4.606-25.504,21.75c-4.953-10.757-0.312-19.159,5.254-25.5C423.389,404.936,426.211,405.115,429.376,405.14z"/>
<path fill-rule="evenodd" clip-rule="evenodd" fill="#1E3B1B" d="M453.376,399.89c4.874,2.238,8.445,3.468,9.75,9.75  c-12.941-0.008-21.972,6.199-25.5-5.25C446.479,405.797,444.477,401.592,453.376,399.89z"/>
<path fill-rule="evenodd" clip-rule="evenodd" fill="#1E3B1B" d="M451.876,408.89c-5.531-0.874-35.986,7.435-18,10.5  C451.754,422.437,456.666,407.782,451.876,408.89z"/>
<path fill-rule="evenodd" clip-rule="evenodd" fill="#1E3B1B" d="M433.876,420.14c4.454-1.09,11.719-0.677,16.5-1.5  c-3.105,10.909-11.326,14.687-21.75,9C429.023,422.315,431.681,422.581,433.876,420.14z"/>
<path fill-rule="evenodd" clip-rule="evenodd" fill="#1E3B1B" d="M462.376,424.64c6.135-1.386,7.716-7.375,12,0.75  c-14.678,4.144-16.692,12.323-30.75,12.75c-2.188-4.512-1.39-5.031-1.5-10.5C451.274,430.593,454.415,427.777,462.376,424.64z"/>
<path fill-rule="evenodd" clip-rule="evenodd" fill="#1E3B1B" d="M471.376,421.64c-5.503-0.989-8.938,0.26-12-5.25  c5.277-1.456,9.545-5.669,12-6.75c-12.814,0.19-19.729,9.96-33,6.75C442.808,425.72,460.801,430.298,471.376,421.64z"/>
<path fill-rule="evenodd" clip-rule="evenodd" fill="#1E3B1B" d="M420.376,372.89c4.236-1.521,6.174-5.179,11.25,3  c-9.07,9.548-25.094,3.492-26.252,21.75c-4.663-10.75,0.419-19.215,6-25.5C414.372,372.77,417.258,372.857,420.376,372.89z"/>
<path fill-rule="evenodd" clip-rule="evenodd" fill="#1E3B1B" d="M443.626,367.64c5.652,2.373,9.388,3.104,10.5,9.75  c-12.821-0.167-22.854,6.399-25.5-5.25C437.847,374.152,434.844,369.648,443.626,367.64z"/>
<path fill-rule="evenodd" clip-rule="evenodd" fill="#1E3B1B" d="M442.876,376.64c-5.376-0.856-35.729,7.4-18.75,10.5  C443.243,390.63,446.09,375.507,442.876,376.64z"/>
<path fill-rule="evenodd" clip-rule="evenodd" fill="#1E3B1B" d="M424.126,387.89c5.395-1.19,12.919-0.761,17.25,0  c-3.794,9.5-11.465,12.46-21.75,7.5C420.294,390.979,422.674,389.746,424.126,387.89z"/>
<path fill-rule="evenodd" clip-rule="evenodd" fill="#1E3B1B" d="M453.376,392.39c5.919-1.258,6.823-7.251,12,0  c-13.012,6.315-17.825,12.931-30.75,13.5c-2.158-4.642-1.282-4.939-1.5-10.5C442.396,398.225,445.174,395.471,453.376,392.39z"/>
<path fill-rule="evenodd" clip-rule="evenodd" fill="#1E3B1B" d="M462.376,389.39c-16.137-2.701-10.042-7.514-0.75-12  c-12.582,0.53-19.563,10.278-33,6.75C433.172,393.486,451.389,397.955,462.376,389.39z"/>
<path fill-rule="evenodd" clip-rule="evenodd" fill="#1E3B1B" d="M403.124,348.89c23.904-6.374-15.021,13.68-15,25.5  C381.369,359.481,391.114,349.511,403.124,348.89z"/>
<path fill-rule="evenodd" clip-rule="evenodd" fill="#1E3B1B" d="M426.376,343.64c5.413,2.469,8.87,3.239,9.75,9.75  c-13.028,0.607-22.167,6.336-25.502-5.25C419.506,350.065,418.187,345.621,426.376,343.64z"/>
<path fill-rule="evenodd" clip-rule="evenodd" fill="#1E3B1B" d="M425.626,353.39c-3.854-0.787-37.943,1.143-20.252,9.75  c7.999,3.892,13.823-1.805,15.752-2.25c6.271-1.449,4.782-1.115,7.5-6C433.318,346.455,419.39,356.993,425.626,353.39z"/>
<path fill-rule="evenodd" clip-rule="evenodd" fill="#1E3B1B" d="M406.874,363.89c4.956-1.109,10.789,0.163,16.502-1.5  c-3.267,11.355-11.611,15.156-21.752,9C402.525,367.432,404.73,366.441,406.874,363.89z"/>
<path fill-rule="evenodd" clip-rule="evenodd" fill="#1E3B1B" d="M435.376,368.39c6.068-1.064,6.774-6.623,12.75,0  c-5.133,2.6-10.561,8.295-12.75,9.75c-7.874,3.056-10.704,3.562-18.754,3.75c-2.32-4.525-1.015-5.082-1.5-10.5  C424.465,374.766,427.235,371.833,435.376,368.39z"/>
<path fill-rule="evenodd" clip-rule="evenodd" fill="#1E3B1B" d="M445.126,366.14c-5.211-1.125-9.157-1.127-12.75-5.25  c4.628-1.416,9.719-6.466,12-7.5c-13.307,0.415-19.234,10.034-33.002,7.5C416.546,370.195,433.498,373.412,445.126,366.14z"/>
<path fill-rule="evenodd" clip-rule="evenodd" fill="#1E3B1B" d="M370.874,344.39c3.967-0.149,6.967-4.052,11.25,3.75  c-9.112,8.853-25.865,2.519-25.5,21.75C349.436,355.536,359.938,345.32,370.874,344.39z"/>
<path fill-rule="evenodd" clip-rule="evenodd" fill="#1E3B1B" d="M394.124,339.89c5.175,2.092,9.232,2.566,10.5,9.75  c-13.145-1.171-22.522,6.789-25.5-6C388.288,347.055,384.956,341.709,394.124,339.89z"/>
<path fill-rule="evenodd" clip-rule="evenodd" fill="#1E3B1B" d="M393.374,348.89c-3.426-0.588-36.42,5.944-19.5,10.5  C392.217,364.329,399.272,346.781,393.374,348.89z"/>
<path fill-rule="evenodd" clip-rule="evenodd" fill="#1E3B1B" d="M374.624,359.39c7.117-1.342,7.706,2.75,15.75-2.25  c0.569,12.035-10.521,16.192-20.25,9.75C371.416,362.377,373.26,360.919,374.624,359.39z"/>
<path fill-rule="evenodd" clip-rule="evenodd" fill="#1E3B1B" d="M403.874,364.64c5.731-1.214,7.744-7.845,11.998,0.75  c-14.575,3.2-17.302,12.695-30.748,12c-1.992-3.974-1.39-5.467-1.5-10.5C392.417,370.739,395.436,367.81,403.874,364.64z"/>
<path fill-rule="evenodd" clip-rule="evenodd" fill="#1E3B1B" d="M412.872,361.64c-4.246-0.979-8.095-1.384-11.998-3.75  c2.349-0.983,8.134-5.162,11.998-6c-11.847-4.914-19.38,7.451-33.748,4.5c0.224,1.112-0.026,2.112-0.75,3  C388.786,365.561,402.768,369.472,412.872,361.64z"/>
<path fill-rule="evenodd" clip-rule="evenodd" fill="#5C2812" stroke="#000000" stroke-linecap="square" stroke-miterlimit="10" d="  M391.124,506.39c5.489-33.728,10.362-67.875,11.25-102c0.468-17.987-1.971-35.159,6.75-51.75c-1,9.5-2,19-3,28.5  c8.666-7.873,19.858-12.78,31.502-14.25c-35.913,15.565-30.818,28.195-31.178,67.434  C406.292,451.355,420.154,519.914,391.124,506.39z"/>
<path fill-rule="evenodd" clip-rule="evenodd" fill="#22631B" d="M347.624,411.89c3.604-1.364,6.045-4.266,11.25,3  c-8.924,8.939-25.82,3.228-26.25,21.75c-4.704-10.256-0.299-19.275,5.25-25.5C341.397,412.58,343.623,411.765,347.624,411.89z"/>
<path fill-rule="evenodd" clip-rule="evenodd" fill="#22631B" d="M370.874,406.64c4.895,2.19,8.643,3.559,10.5,9.75  c-8.804,0.039-12.668,1.669-17.25-0.75c-9.213,1.513-5.572,5.136-9-4.5C364.171,412.911,362.451,408.5,370.874,406.64z"/>
<path fill-rule="evenodd" clip-rule="evenodd" fill="#22631B" d="M370.124,415.64c-3.166-0.025-39.122,6.082-18.75,10.5  C370.007,430.181,373.377,414.731,370.124,415.64z"/>
<path fill-rule="evenodd" clip-rule="evenodd" fill="#22631B" d="M351.374,426.89c27.155-6.182,10.976,16.209-5.25,7.5  C346.935,430.222,349.353,429.294,351.374,426.89z"/>
<path fill-rule="evenodd" clip-rule="evenodd" fill="#22631B" d="M379.874,431.39c6.281-1.232,7.342-7.281,12.75,0  c-7.1,3.23-8.976,7.073-12.75,9.75c-6.608,2.262-11.742,3.487-18.75,3.75c-2.018-5.101-1.073-4.929-0.75-10.5  C369.299,437.333,372.359,434.571,379.874,431.39z"/>
<path fill-rule="evenodd" clip-rule="evenodd" fill="#22631B" d="M389.624,428.39c-16.288-2.603-10.087-7.463-0.75-12  c-13.05-0.287-19.509,10.806-33,6.75C360.267,432.959,378.546,436.777,389.624,428.39z"/>
<path fill-rule="evenodd" clip-rule="evenodd" fill="#22631B" d="M393.374,373.64c4.445-1.512,6.641-5.15,11.25,3.75  c-9.246,8.247-26.229,2.974-26.25,21.75C371.792,384.894,381.747,374.356,393.374,373.64z"/>
<path fill-rule="evenodd" clip-rule="evenodd" fill="#22631B" d="M416.622,368.39c5.77,2.611,9.24,3.258,10.504,9.75  c-13.246,0.574-22.872,6.574-25.502-5.25C410.671,375.083,408.086,370.49,416.622,368.39z"/>
<path fill-rule="evenodd" clip-rule="evenodd" fill="#22631B" d="M415.872,378.14c-6.514-1.547-35.924,6.596-18.748,10.5  c9.564,2.174,12.389-2.564,17.249-3.375C419.784,384.363,419.862,375.643,415.872,378.14z"/>
<path fill-rule="evenodd" clip-rule="evenodd" fill="#22631B" d="M397.124,388.64c5.055-1.066,13.126-0.333,17.248,0  c-4.462,9.941-12.344,13.162-21.748,7.5C393.111,392.097,395.326,391.048,397.124,388.64z"/>
<path fill-rule="evenodd" clip-rule="evenodd" fill="#22631B" d="M425.626,393.14c6.073-0.96,6.465-6.847,12.75,0  c-11.638,6.456-19.171,13.741-30.752,13.5c-2.459-4.402-1.344-5.479-1.5-10.5C415.198,399.608,417.966,396.655,425.626,393.14z"/>
<path fill-rule="evenodd" clip-rule="evenodd" fill="#22631B" d="M435.376,390.89c-15.985-3.212-10.254-8.188-0.75-12.75  c-13.056,0.599-19.062,9.746-33.002,7.5C406.621,394.809,424.002,398.168,435.376,390.89z"/>
<path fill-rule="evenodd" clip-rule="evenodd" fill="#22631B" d="M358.874,437.39c3.861-0.637,5.95-5.539,11.25,3  c-7.403,7.14-16.045,8.585-27.75,9.75c0.943-3.006,5.162-10.651,7.5-13.5C352.883,437.185,355.71,437.381,358.874,437.39z"/>
<path fill-rule="evenodd" clip-rule="evenodd" fill="#22631B" d="M382.874,432.14c4.796,2.159,8.485,3.287,9.75,9.75  c-12.941-0.008-21.971,6.198-25.5-5.25C376.053,437.989,373.725,433.837,382.874,432.14z"/>
<path fill-rule="evenodd" clip-rule="evenodd" fill="#22631B" d="M381.374,441.14c-2.441-0.386-37.486,2.983-19.5,10.5  C379.347,458.942,387.388,439.495,381.374,441.14z"/>
<path fill-rule="evenodd" clip-rule="evenodd" fill="#22631B" d="M362.624,452.39c6.52-1.587,8.096,1.401,15.75-3c0.5,1,1,2,1.5,3  c-4.127,10.196-12.126,12.75-21.75,7.5C358.792,455.48,361.22,454.251,362.624,452.39z"/>
<path fill-rule="evenodd" clip-rule="evenodd" fill="#22631B" d="M391.874,456.89c6.034-1.26,7.661-7.436,12,0.75  c-14.745,4.027-16.504,12.317-30.75,12.75c-2.189-4.512-1.39-5.031-1.5-10.5C380.772,462.843,383.914,460.027,391.874,456.89z"/>
<path fill-rule="evenodd" clip-rule="evenodd" fill="#22631B" d="M400.874,453.89c-16.338-2.962-9.551-7.992,0-12  c-13.17,0.172-20.07,10.163-33.75,6.75c0.224,1.111-0.026,2.111-0.75,3C376.042,458.087,390.797,461.855,400.874,453.89z"/>
<path fill-rule="evenodd" clip-rule="evenodd" fill="#22631B" d="M340.874,381.89c3.861-0.637,5.95-5.54,11.25,3  c-7.383,7.248-16.05,8.682-27.75,9.75c0.936-3.071,5.204-10.735,7.5-13.5C334.89,381.687,337.708,381.846,340.874,381.89z"/>
<path fill-rule="evenodd" clip-rule="evenodd" fill="#22631B" d="M364.124,376.64c5.59,2.299,9.428,2.913,10.5,9.75  c-13.14,0-22.314,6.14-25.5-5.25C358.136,382.899,355.258,378.552,364.124,376.64z"/>
<path fill-rule="evenodd" clip-rule="evenodd" fill="#22631B" d="M363.374,385.64c-3.029-0.543-36.707,5.127-19.5,10.5  C362.151,401.847,368.845,383.923,363.374,385.64z"/>
<path fill-rule="evenodd" clip-rule="evenodd" fill="#22631B" d="M344.624,396.89c6.345-1.544,8.047,1.19,15.75-3c0.5,1,1,2,1.5,3  c-4.256,10.301-12.004,12.997-21.75,6.75C341.011,399.689,343.412,398.574,344.624,396.89z"/>
<path fill-rule="evenodd" clip-rule="evenodd" fill="#22631B" d="M373.874,401.39c5.995-1.152,7.613-8.017,12,0.75  c-12.637,4.918-31.175,21.678-32.25,2.25C363.128,407.569,365.122,404.033,373.874,401.39z"/>
<path fill-rule="evenodd" clip-rule="evenodd" fill="#22631B" d="M382.874,398.39c-4.612-1.053-8.071-0.887-12-3.75  c2.764-1.15,5.958-3.555,11.25-4.5c0-1.25,0-2.5,0-3.75c-13.086,0.051-19.155,9.915-33,6.75  C354.31,402.054,372.051,406.997,382.874,398.39z"/>
<path fill-rule="evenodd" clip-rule="evenodd" fill="#22631B" d="M357.374,356.39c3.604-1.364,6.045-4.266,11.25,3  c-8.924,8.94-25.82,3.228-26.25,21.75C335.628,366.433,346.172,356.506,357.374,356.39z"/>
<path fill-rule="evenodd" clip-rule="evenodd" fill="#22631B" d="M380.624,351.14c4.895,2.19,8.643,3.559,10.5,9.75  c-13.262,0.067-22.007,6.395-26.25-5.25C373.921,357.411,372.201,353,380.624,351.14z"/>
<path fill-rule="evenodd" clip-rule="evenodd" fill="#22631B" d="M379.874,360.89c-52.533-8.211,11.5,26.178-0.75-3  C374.604,353.367,380.623,360.408,379.874,360.89z"/>
<path fill-rule="evenodd" clip-rule="evenodd" fill="#22631B" d="M361.124,371.39c26.997-6.196,11.072,16.261-5.25,7.5  C356.988,375.077,359.336,373.585,361.124,371.39z"/>
<path fill-rule="evenodd" clip-rule="evenodd" fill="#22631B" d="M389.624,375.89c5.977-0.939,7.041-6.797,12.75,0  c-6.743,3.214-9.407,7.466-12.75,9.75c-6.608,2.261-11.742,3.488-18.75,3.75c-1.985-5.146-1.075-4.888-0.75-10.5  C379.178,381.898,382.109,379.131,389.624,375.89z"/>
<path fill-rule="evenodd" clip-rule="evenodd" fill="#22631B" d="M399.374,372.89c-16.322-2.521-10.001-7.449-0.75-12  c-13.001-0.199-19.157,10.317-33,7.5C370.901,377.045,388.056,381.539,399.374,372.89z"/>
<path fill-rule="evenodd" clip-rule="evenodd" fill="#22631B" d="M415.872,433.64c4.237-1.521,6.177-5.18,11.254,3  c-9.039,9.563-25.34,3.254-26.252,21.75c-3.957-10.527-0.337-18.983,6-25.5C409.876,433.52,412.754,433.573,415.872,433.64z"/>
<path fill-rule="evenodd" clip-rule="evenodd" fill="#22631B" d="M439.126,428.39c5.317,2.296,9,3.252,10.5,9.75  c-12.79-0.249-23.164,6.572-25.5-5.25C433.372,434.908,430.318,430.354,439.126,428.39z"/>
<path fill-rule="evenodd" clip-rule="evenodd" fill="#22631B" d="M438.376,437.39c-5.334-0.846-36.03,7.129-18.75,10.5  C438.469,451.566,441.417,436.262,438.376,437.39z"/>
<path fill-rule="evenodd" clip-rule="evenodd" fill="#22631B" d="M419.626,448.64c5.395-1.19,12.919-0.761,17.25,0  c-4.372,9.66-12.16,12.603-21.754,7.5C415.536,451.799,417.906,450.919,419.626,448.64z"/>
<path fill-rule="evenodd" clip-rule="evenodd" fill="#22631B" d="M448.126,453.14c6.265-1.237,7.222-7.216,12.75,0  c-7.076,3.238-8.984,7.079-12.75,9.75c-6.134,2.035-11.676,3.449-18,3.75c-2.431-4.266-1.607-5.535-1.5-10.5  C437.63,459.25,440.568,456.43,448.126,453.14z"/>
<path fill-rule="evenodd" clip-rule="evenodd" fill="#22631B" d="M457.876,450.14c-16.288-2.603-10.088-7.464-0.75-12  c-12.665,0.384-19.521,10.151-33,6.75C428.477,454.474,447.032,458.593,457.876,450.14z"/>
<path fill-rule="evenodd" clip-rule="evenodd" fill="#22631B" d="M372.374,385.64c4.251-1.439,6.624-4.632,11.25,3.75  c-8.994,8.28-26.271,2.65-25.5,21.75C351.323,396.371,360.88,386.814,372.374,385.64z"/>
<path fill-rule="evenodd" clip-rule="evenodd" fill="#22631B" d="M395.624,380.39c5.143,2.282,8.629,3.633,10.5,9.75  c-13.064,0.678-23.053,6.565-25.5-5.25C389.412,387.121,387.306,382.668,395.624,380.39z"/>
<path fill-rule="evenodd" clip-rule="evenodd" fill="#22631B" d="M394.874,390.14c-3.709-0.771-36.836,4.786-19.5,10.5  C393.329,406.559,400.987,387.787,394.874,390.14z"/>
<path fill-rule="evenodd" clip-rule="evenodd" fill="#22631B" d="M376.124,400.64c6.065-1.294,10.121,0.721,16.5-1.5  c-1.314,11.547-11.709,15.121-21,9C372.357,404.05,374.712,402.643,376.124,400.64z"/>
<path fill-rule="evenodd" clip-rule="evenodd" fill="#22631B" d="M405.374,405.14c5.813-0.82,8.221-6.613,11.998,1.5  c-15.333,3.783-16.953,12.064-30.748,12c-2.37-4.338-1.145-5.208-1.5-10.5C393.848,411.64,397.396,408.588,405.374,405.14z"/>
<path fill-rule="evenodd" clip-rule="evenodd" fill="#22631B" d="M414.372,402.89c-4.257-0.935-8.104-1.389-11.998-3.75  c2.838-1.287,5.956-4.083,11.248-5.25c0-1,0-2,0-3c-13.208-0.314-19.24,9.396-32.998,6.75  C386.451,406.657,403.413,411.043,414.372,402.89z"/>
<path fill-rule="evenodd" clip-rule="evenodd" fill="#22631B" d="M393.374,408.89c3.861-0.637,5.95-5.54,11.25,3  c-9.579,7.428-25.912,4.57-25.5,21.75c-5.269-10.709-0.348-19.037,5.25-25.5C387.387,408.686,390.209,408.865,393.374,408.89z"/>
<path fill-rule="evenodd" clip-rule="evenodd" fill="#22631B" d="M416.622,403.64c5.111,2.053,9.078,3.04,10.504,9.75  c-13.117,0-22.372,6.212-25.502-5.25C410.607,409.895,407.786,405.609,416.622,403.64z"/>
<path fill-rule="evenodd" clip-rule="evenodd" fill="#22631B" d="M415.872,412.64c-2.927-0.462-37.046,4.608-19.498,10.5  C414.357,429.178,421.13,411.353,415.872,412.64z"/>
<path fill-rule="evenodd" clip-rule="evenodd" fill="#22631B" d="M397.124,423.89c6.517-1.595,8.093,1.403,15.748-3c0.5,1,1,2,1.5,3  c-4.203,10.176-12.129,12.822-21.748,7.5C393.291,426.983,395.765,425.755,397.124,423.89z"/>
<path fill-rule="evenodd" clip-rule="evenodd" fill="#22631B" d="M426.376,428.39c6.033-1.26,7.661-7.436,12,0.75  c-14.503,3.961-16.443,12.174-30.752,12.75c-2.163-4.458-1.514-5.063-1.5-10.5C415.272,434.342,418.415,431.526,426.376,428.39z"/>
<path fill-rule="evenodd" clip-rule="evenodd" fill="#22631B" d="M435.376,425.39c-16.422-3.034-9.013-8.326-0.75-12  c-12.683,0.366-19.493,10.12-33.002,6.75c0.224,1.112-0.026,2.111-0.75,3C410.55,429.441,425.365,433.509,435.376,425.39z"/>
<path fill-rule="evenodd" clip-rule="evenodd" fill="#22631B" d="M433.876,398.39c4.061-0.603,6.416-5.585,11.25,3.75  c-9.984,6.367-25.788,4.137-25.5,21.75C412.569,409.409,422.421,399.257,433.876,398.39z"/>
<path fill-rule="evenodd" clip-rule="evenodd" fill="#22631B" d="M457.126,393.14c5.597,2.407,9.292,3.276,10.5,9.75  c-13.064,0.633-22.05,6.331-25.5-5.25C451.012,399.785,448.648,395.234,457.126,393.14z"/>
<path fill-rule="evenodd" clip-rule="evenodd" fill="#22631B" d="M456.376,402.89c-3.665-0.875-36.951,1.587-19.5,9.75  C454.15,420.72,463.184,399.716,456.376,402.89z"/>
<path fill-rule="evenodd" clip-rule="evenodd" fill="#22631B" d="M437.626,413.39c5.094-1.156,13.148-0.333,17.25,0  c-4.577,10.676-12.569,13.257-21.75,7.5C433.858,416.804,436.145,415.376,437.626,413.39z"/>
<path fill-rule="evenodd" clip-rule="evenodd" fill="#22631B" d="M466.876,417.89c5.798-0.935,8.109-6.928,12,1.5  c-15.894,3.37-16.784,11.895-30.75,12c-2.336-4.495-1.018-5.105-1.5-10.5C455.855,424.2,458.773,421.256,466.876,417.89z"/>
<path fill-rule="evenodd" clip-rule="evenodd" fill="#22631B" d="M475.876,415.64c-16.092-3.592-9.664-8.626,0-12.75  c-13.342,0.453-19.552,9.844-33.75,7.5c0.354,1,0.104,1.75-0.75,2.25C451.209,419.447,464.705,422.677,475.876,415.64z"/>
<path fill-rule="evenodd" clip-rule="evenodd" fill="#22631B" d="M424.876,366.14c4.445-1.512,6.642-5.15,11.25,3.75  c-9.271,8.269-26.199,2.926-26.252,21.75C403.292,377.394,413.247,366.854,424.876,366.14z"/>
<path fill-rule="evenodd" clip-rule="evenodd" fill="#22631B" d="M448.126,360.89c5.768,2.611,9.236,3.259,10.5,9.75  c-13.295,0.535-22.786,6.558-25.5-5.25C442.173,367.583,439.589,362.989,448.126,360.89z"/>
<path fill-rule="evenodd" clip-rule="evenodd" fill="#22631B" d="M447.376,370.64c-6.515-1.547-35.925,6.597-18.75,10.5  c9.564,2.173,12.389-2.565,17.25-3.375C451.276,376.865,451.372,368.137,447.376,370.64z"/>
<path fill-rule="evenodd" clip-rule="evenodd" fill="#22631B" d="M428.626,381.14c5.056-1.066,13.127-0.333,17.25,0  c-4.464,9.94-12.346,13.162-21.75,7.5C424.613,384.597,426.828,383.548,428.626,381.14z"/>
<path fill-rule="evenodd" clip-rule="evenodd" fill="#22631B" d="M457.126,385.64c6.073-0.96,6.465-6.847,12.75,0  c-11.64,6.455-19.168,13.741-30.75,13.5c-2.459-4.403-1.344-5.479-1.5-10.5C446.7,392.108,449.466,389.156,457.126,385.64z"/>
<path fill-rule="evenodd" clip-rule="evenodd" fill="#22631B" d="M466.876,383.39c-15.985-3.212-10.254-8.188-0.75-12.75  c-13.056,0.6-19.06,9.747-33,7.5C437.987,387.076,455.316,391.007,466.876,383.39z"/>
<path fill-rule="evenodd" clip-rule="evenodd" fill="#22631B" d="M406.874,342.14c4.029-1.283,6.579-4.118,11.252,3.75  c-9.071,8.155-25.816,2.589-25.502,21.75C386.218,353.024,395.523,343.32,406.874,342.14z"/>
<path fill-rule="evenodd" clip-rule="evenodd" fill="#22631B" d="M430.876,337.64c4.49,1.861,8.19,2.994,9.75,9  c-12.967,0.082-22.547,7.143-25.504-5.25C424.187,343.962,421.702,339.29,430.876,337.64z"/>
<path fill-rule="evenodd" clip-rule="evenodd" fill="#22631B" d="M429.376,346.64c-6.514-1.303-35.89,6.964-18.002,10.5  C429.438,360.711,434.779,344.712,429.376,346.64z"/>
<path fill-rule="evenodd" clip-rule="evenodd" fill="#22631B" d="M411.374,357.14c5.655-1.066,9.9,1.004,16.502-1.5  c-2.136,11.477-12.268,15.237-21.752,9C407.237,359.821,409.127,359.298,411.374,357.14z"/>
<path fill-rule="evenodd" clip-rule="evenodd" fill="#22631B" d="M439.876,362.39c5.926-1.351,8.084-7.96,12,0.75  c-15.201,3.639-17.098,12.433-30.75,12c-2.286-4.419-1.264-5.124-1.5-10.5C428.42,368.489,431.438,365.56,439.876,362.39z"/>
<path fill-rule="evenodd" clip-rule="evenodd" fill="#22631B" d="M448.876,359.39c-5.003-1.119-8.759-1.11-12-5.25  c4.195-1.291,9.691-5.775,12-6.75c-13.175-0.263-19.459,9.706-33.004,6.75C420.595,363.073,438.443,367.686,448.876,359.39z"/>
<path fill-rule="evenodd" clip-rule="evenodd" fill="#22631B" d="M375.374,338.39c4.236-1.521,6.173-5.179,11.25,3  c-9.493,7.906-25.275,4.577-26.25,21.75c-4.663-10.75,0.419-19.215,6-25.5C369.371,338.269,372.257,338.357,375.374,338.39z"/>
<path fill-rule="evenodd" clip-rule="evenodd" fill="#22631B" d="M398.624,333.14c5.59,2.299,9.428,2.913,10.5,9.75  c-13.138,0-22.629,6.175-25.5-5.25C392.782,339.43,389.711,335.08,398.624,333.14z"/>
<path fill-rule="evenodd" clip-rule="evenodd" fill="#22631B" d="M397.874,342.14c-4.915-0.776-36.048,7.23-18.75,10.5  C398.04,356.216,401.849,340.822,397.874,342.14z"/>
<path fill-rule="evenodd" clip-rule="evenodd" fill="#22631B" d="M379.124,353.39c6.345-1.544,8.047,1.19,15.75-3c0.5,1,1,2,1.5,3  c-4.036,9.618-11.892,12.619-21.75,7.5C375.292,356.481,377.73,355.253,379.124,353.39z"/>
<path fill-rule="evenodd" clip-rule="evenodd" fill="#22631B" d="M408.374,357.89c5.995-1.152,7.613-8.018,12.002,0.75  c-12.75,4.961-30.977,21.64-32.252,2.25C397.165,363.833,400.395,360.985,408.374,357.89z"/>
<path fill-rule="evenodd" clip-rule="evenodd" fill="#22631B" d="M417.372,354.89c-4.627-0.893-8.121-0.924-11.998-3.75  c2.797-1.186,9.591-7.48,11.248-8.25c-12.944,0.201-18.846,9.738-32.998,6.75C388.803,358.543,406.327,363.499,417.372,354.89z"/>
<path fill-rule="evenodd" clip-rule="evenodd" fill="#22631B" d="M517.126,509.39c-58.526-32.214-149.572-14.567-210.752,0  C376.625,509.39,446.875,509.39,517.126,509.39z"/>
<path fill="none" stroke="#000000" stroke-linecap="square" stroke-miterlimit="10" d="M517.126,509.39  c-58.526-32.214-149.572-14.567-210.752,0C376.625,509.39,446.875,509.39,517.126,509.39z"/>
</svg>