<svg xmlns="http://www.w3.org/2000/svg" xmlns:xlink="http://www.w3.org/1999/xlink" version="1.1" id="Layer_1" x="0px" y="0px" enable-background="new 0 0 822.05 841.89" xml:space="preserve" viewBox="225.6 273.65 370.2 296.21">
<path fill-rule="evenodd" clip-rule="evenodd" fill="#878787" stroke="#000000" stroke-width="2" stroke-linecap="square" stroke-miterlimit="10" d="  M442.009,367.898c11.708,61.213-102.557,58.024-135.845,63.539c-61.673,10.218-81.581-29.938-79.407-91.289  c2.272-64.146,88.282-56.082,135.843-63.681C432.771,265.256,432.391,307.228,442.009,367.898z"/>
<path fill-rule="evenodd" clip-rule="evenodd" fill="#D1D1D2" stroke="#000000" stroke-width="2" stroke-linecap="square" stroke-miterlimit="10" d="  M380.507,285.398c-37.083,6.699-99.96,4.05-129.75,28.875c-20.132,16.777-9.954,63.216,18.924,58.515  c27.21-4.429,87.663-28.638,113.826-9.015C419.593,390.837,393.501,293.067,380.507,285.398z"/>
<path fill-rule="evenodd" clip-rule="evenodd" fill="#ABD151" stroke="#000000" stroke-width="2" stroke-linecap="square" stroke-miterlimit="10" d="  M384.257,338.648c-40.75,7.75-81.5,15.5-122.25,23.25c-5.985-32.584-13.824-35.405,18.755-41.601  c32.249-6.133,64.497-12.266,96.745-18.399C379.757,314.148,382.007,326.398,384.257,338.648z"/>
<path fill-rule="evenodd" clip-rule="evenodd" fill="#8388A7" stroke="#000000" stroke-width="2" stroke-linecap="square" stroke-miterlimit="10" d="  M253.007,376.148c18.685,29.019,110.744-1.002,137.25-4.5C370.125,335.938,281.784,371.117,253.007,376.148z"/>
<line fill="none" stroke="#000000" stroke-width="2" stroke-linecap="square" stroke-miterlimit="10" x1="295.007" y1="369.398" x2="298.007" y2="382.898"/>
<line fill="none" stroke="#000000" stroke-width="2" stroke-linecap="square" stroke-miterlimit="10" x1="338.507" y1="361.898" x2="340.757" y2="377.648"/>
<path fill-rule="evenodd" clip-rule="evenodd" fill="#8388A7" stroke="#000000" stroke-width="2" stroke-linecap="square" stroke-miterlimit="10" d="  M386.507,287.648c34.517-7.411,40.71,61.547,18,77.25C398.507,339.148,392.507,313.398,386.507,287.648z"/>
<line fill="none" stroke="#000000" stroke-width="2" stroke-linecap="square" stroke-miterlimit="10" x1="396.257" y1="326.648" x2="415.759" y2="320.648"/>
<path fill-rule="evenodd" clip-rule="evenodd" stroke="#000000" stroke-width="2" stroke-linecap="square" stroke-miterlimit="10" d="  M401.507,302.648c-0.25,4.5-0.5,9-0.75,13.5c2-0.25,4-0.5,6-0.75C405.007,311.148,403.257,306.898,401.507,302.648z"/>
<path fill-rule="evenodd" clip-rule="evenodd" stroke="#000000" stroke-width="2" stroke-linecap="square" stroke-miterlimit="10" d="  M410.509,345.398c0.25-4.5,0.5-9,0.75-13.5c-2,0.25-4.001,0.5-6.002,0.75C407.007,336.898,408.758,341.148,410.509,345.398z"/>
<path fill-rule="evenodd" clip-rule="evenodd" stroke="#000000" stroke-linecap="square" stroke-miterlimit="10" d="  M325.007,371.648c-4.5-0.25-9-0.5-13.5-0.75c0.5,2,1,4,1.5,6C317.007,375.148,321.007,373.398,325.007,371.648z"/>
<path fill-rule="evenodd" clip-rule="evenodd" stroke="#000000" stroke-linecap="square" stroke-miterlimit="10" d="  M271.007,379.898c4.5,0.5,9,1,13.5,1.5c-0.25-2-0.5-4-0.75-6C279.507,376.898,275.257,378.398,271.007,379.898z"/>
<path fill="none" stroke="#000000" stroke-linecap="square" stroke-miterlimit="10" d="M363.257,367.898  C357.461,367.286,357.425,367.282,363.257,367.898L363.257,367.898z"/>
<path fill="none" stroke="#000000" stroke-width="2" stroke-linecap="square" stroke-miterlimit="10" d="M432.259,385.898  c-3.405,16.466-35.127,23.525-37.502,3.75C392.408,370.088,425.865,370.111,432.259,385.898z"/>
<path fill="none" stroke="#000000" stroke-width="2" stroke-linecap="square" stroke-miterlimit="10" d="M421.759,388.148  c-6.801,0.442-12.871,2.112-17.252-0.75C410.362,385.786,420.188,388.088,421.759,388.148z"/>
<path fill-rule="evenodd" clip-rule="evenodd" fill="#878787" stroke="#000000" stroke-width="2" stroke-linecap="square" stroke-miterlimit="10" d="  M594.259,503.648c9.122,62.79-99.34,57.849-135.843,63.681c-61.986,9.903-81.49-29.177-79.409-91.431  c2.118-63.357,89.068-55.789,135.845-63.539C584.703,400.786,584.729,443.532,594.259,503.648z"/>
<path fill-rule="evenodd" clip-rule="evenodd" fill="#D1D1D2" stroke="#000000" stroke-width="2" stroke-linecap="square" stroke-miterlimit="10" d="  M532.759,421.898c-36.886,6.425-99.996,3.329-129.752,28.125c-15.814,13.179-12.275,63.595,12.861,59.503  c27.967-4.553,92.718-30.383,119.891-10.003C572.095,526.775,545.496,428.168,532.759,421.898z"/>
<path fill-rule="evenodd" clip-rule="evenodd" fill="#ABD151" stroke="#000000" stroke-width="2" stroke-linecap="square" stroke-miterlimit="10" d="  M536.509,475.148c-40.75,7.5-81.5,15-122.25,22.5c-5.983-32.567-13.863-35.441,18.754-41.444  c32.248-5.936,64.497-11.87,96.746-17.806C532.009,450.648,534.259,462.898,536.509,475.148z"/>
<path fill-rule="evenodd" clip-rule="evenodd" fill="#8388A7" stroke="#000000" stroke-width="2" stroke-linecap="square" stroke-miterlimit="10" d="  M405.257,511.898c15.963,29.15,112.387-1.219,137.252-4.5C521.484,472.612,434.574,506.978,405.257,511.898z"/>
<line fill="none" stroke="#000000" stroke-width="2" stroke-linecap="square" stroke-miterlimit="10" x1="447.259" y1="505.148" x2="450.259" y2="519.398"/>
<line fill="none" stroke="#000000" stroke-width="2" stroke-linecap="square" stroke-miterlimit="10" x1="490.759" y1="498.398" x2="493.009" y2="513.398"/>
<path fill-rule="evenodd" clip-rule="evenodd" fill="#8388A7" stroke="#000000" stroke-width="2" stroke-linecap="square" stroke-miterlimit="10" d="  M538.759,423.398c34.215-6.968,41.074,62.011,18,78C550.759,475.398,544.759,449.398,538.759,423.398z"/>
<line fill="none" stroke="#000000" stroke-width="2" stroke-linecap="square" stroke-miterlimit="10" x1="548.509" y1="462.398" x2="568.009" y2="457.148"/>
<path fill-rule="evenodd" clip-rule="evenodd" stroke="#000000" stroke-width="2" stroke-linecap="square" stroke-miterlimit="10" d="  M553.759,438.398c-0.25,4.75-0.5,9.5-0.75,14.25c2-0.5,4-1,6-1.5C557.259,446.898,555.509,442.648,553.759,438.398z"/>
<path fill-rule="evenodd" clip-rule="evenodd" stroke="#000000" stroke-width="2" stroke-linecap="square" stroke-miterlimit="10" d="  M562.759,481.898c0.25-4.75,0.5-9.5,0.75-14.25c-2,0.5-4,1-6,1.5C559.259,473.398,561.009,477.648,562.759,481.898z"/>
<path fill-rule="evenodd" clip-rule="evenodd" stroke="#000000" stroke-linecap="square" stroke-miterlimit="10" d="  M477.259,507.398c-4.5,0-9,0-13.5,0c0.5,1.75,1,3.5,1.5,5.25C469.259,510.898,473.259,509.148,477.259,507.398z"/>
<path fill-rule="evenodd" clip-rule="evenodd" stroke="#000000" stroke-linecap="square" stroke-miterlimit="10" d="  M423.259,516.398c4.5,0.25,9,0.5,13.5,0.75c-0.25-1.75-0.5-3.5-0.75-5.25C431.759,513.398,427.509,514.898,423.259,516.398z"/>
<path fill="none" stroke="#000000" stroke-linecap="square" stroke-miterlimit="10" d="M515.509,503.648  C509.697,503.839,509.742,503.838,515.509,503.648L515.509,503.648z"/>
<path fill="none" stroke="#000000" stroke-width="2" stroke-linecap="square" stroke-miterlimit="10" d="M583.759,522.398  c-2.663,16.731-34.766,22.246-36.75,3C545.013,506.041,578.755,506.48,583.759,522.398z"/>
<path fill="none" stroke="#000000" stroke-width="2" stroke-linecap="square" stroke-miterlimit="10" d="M574.009,524.648  c-6.801,0.442-12.869,2.111-17.25-0.75C562.614,522.286,572.438,524.587,574.009,524.648z"/>
</svg>