<svg xmlns="http://www.w3.org/2000/svg" xmlns:xlink="http://www.w3.org/1999/xlink" version="1.1" id="Layer_1" x="0px" y="0px" enable-background="new 0 0 822.05 841.89" xml:space="preserve" viewBox="204.74 245.66 411.69 355.4">
<path fill-rule="evenodd" clip-rule="evenodd" fill="#DFF3FD" stroke="#000000" stroke-width="2" stroke-linecap="square" stroke-miterlimit="10" d="  M224.5,284.64c1.297,54.051,2.594,108.102,3.892,162.153c0.239,9.972-2.304,35.108,5.858,43.347  c12.049,12.161,56.801,3.75,73.248,3.75c36.758,0,49.911-0.771,49.607-39.426c-0.452-57.358-0.903-114.716-1.355-172.074  C312,283.14,268.25,283.89,224.5,284.64z"/>
<path fill-rule="evenodd" clip-rule="evenodd" fill="#DFF3FD" stroke="#000000" stroke-width="2" stroke-linecap="square" stroke-miterlimit="10" d="  M349.75,303.39c-10.457,14.214-5.021,27.404,10.125,24.375c21.886-4.377,22.824,10.887,27,30.375c4.018,18.75,3.587,52.995-9.75,69  c-9.76,11.712-29.529,1.772-32.25,15.375c-4.266,21.327,22.473,15.017,33.75,8.25c20.522-12.313,22.302-31.626,26.25-54  C411.048,361.786,406.392,284.178,349.75,303.39z"/>
<path fill-rule="evenodd" clip-rule="evenodd" fill="#967A66" stroke="#000000" stroke-width="2" stroke-linecap="square" stroke-miterlimit="10" d="  M230.5,316.14c1.268,41.822,3.75,83.786,3.75,125.625c0,29.162,30.824,23.625,50.725,23.625c8.612,0,65.636,8.449,65.52-14.576  c-0.248-49.142-0.497-98.283-0.745-147.424C310,307.64,270.25,311.89,230.5,316.14z"/>
<path fill-rule="evenodd" clip-rule="evenodd" fill="#FAEFE4" stroke="#000000" stroke-width="2" stroke-linecap="square" stroke-miterlimit="10" d="  M282.25,256.14c-18.528-17.925-62.826-6.157-72.375,16.125c-18.073,42.171,26.852,62.653,63,48.75  c26.03-10.012,90.375,13.478,90.375-40.5C363.25,249.906,302.258,235.909,282.25,256.14z"/>
<path fill-rule="evenodd" clip-rule="evenodd" fill="#DFF3FD" stroke="#000000" stroke-width="2" stroke-linecap="square" stroke-miterlimit="10" d="  M433,284.64c1.297,54.051,2.595,108.102,3.892,162.153c1.408,58.671,23.343,47.097,78.843,47.097  c36.867,0,50.176-0.629,49.87-39.426c-0.451-57.358-0.903-114.716-1.354-172.074C520.5,283.14,476.75,283.89,433,284.64z"/>
<path fill-rule="evenodd" clip-rule="evenodd" fill="#DFF3FD" stroke="#000000" stroke-width="2" stroke-linecap="square" stroke-miterlimit="10" d="  M558.25,303.39c-10.423,13.809-5.131,27.426,10.125,24.375c21.886-4.377,22.824,10.887,27,30.375c4.018,18.75,3.588,52.995-9.75,69  c-9.76,11.712-29.529,1.772-32.25,15.375c-4.266,21.327,22.473,15.017,33.75,8.25c20.522-12.313,22.302-31.626,26.25-54  C619.5,362.059,614.866,283.827,558.25,303.39z"/>
<path fill-rule="evenodd" clip-rule="evenodd" fill="#967A66" stroke="#000000" stroke-width="2" stroke-linecap="square" stroke-miterlimit="10" d="  M439,316.14c1.268,41.822,3.75,83.786,3.75,125.625c0,29.162,30.824,23.625,50.725,23.625c8.612,0,65.637,8.449,65.52-14.576  c-0.248-49.142-0.496-98.283-0.744-147.424C518.5,307.64,478.75,311.89,439,316.14z"/>
<path fill-rule="evenodd" clip-rule="evenodd" fill="#FAEFE4" stroke="#000000" stroke-width="2" stroke-linecap="square" stroke-miterlimit="10" d="  M490.75,256.14c-18.528-17.925-62.826-6.157-72.375,16.125c-18.101,42.235,26.82,62.666,63,48.75  c18.431-7.089,46.348,12.903,64.125-4.875c12.246-12.246,22.957-15.2,25.875-35.625C575.805,249.509,509.232,237.452,490.75,256.14z  "/>
<path fill-rule="evenodd" clip-rule="evenodd" fill="#DFF3FD" stroke="#000000" stroke-width="2" stroke-linecap="square" stroke-miterlimit="10" d="  M343,388.14c1.297,54.051,2.594,108.102,3.892,162.153c0.249,10.381-2.322,33.863,5.858,42.597c12.024,12.838,55.989,4.5,73.248,4.5  c36.995,0,49.912-0.697,49.606-39.426c-0.451-57.358-0.903-114.716-1.354-172.074C430.5,386.64,386.75,387.39,343,388.14z"/>
<path fill-rule="evenodd" clip-rule="evenodd" fill="#DFF3FD" stroke="#000000" stroke-width="2" stroke-linecap="square" stroke-miterlimit="10" d="  M468.25,406.89c-9.119,12.344-6.402,30.61,10.125,24c21.255-8.502,23.424,14.876,27,30.375c4.258,18.451,3.455,53.529-9.75,69.375  c-10.379,12.454-29.386,1.055-32.25,15.375c-4.202,21.011,22.92,14.748,33.75,8.25c20.565-12.339,22.505-31.903,26.25-54.375  C529.254,464.619,525.024,387.811,468.25,406.89z"/>
<path fill-rule="evenodd" clip-rule="evenodd" fill="#967A66" stroke="#000000" stroke-width="2" stroke-linecap="square" stroke-miterlimit="10" d="  M349,419.64c1.271,41.698,3.75,83.535,3.75,125.25c0,29.191,30.35,24,50.725,24c9.428,0,65.643,8.774,65.52-15.321  c-0.248-48.893-0.496-97.786-0.744-146.679C428.5,411.14,388.75,415.39,349,419.64z"/>
<path fill-rule="evenodd" clip-rule="evenodd" fill="#FAEFE4" stroke="#000000" stroke-width="2" stroke-linecap="square" stroke-miterlimit="10" d="  M400.75,359.64c-19.311-18.689-61.651-5.698-72.375,15.75c-21.091,42.182,28.88,62.248,63,49.125  c25.769-9.911,90.375,12.828,90.375-40.5C481.75,353.306,420.855,339.31,400.75,359.64z"/>
</svg>