<svg xmlns="http://www.w3.org/2000/svg" xmlns:xlink="http://www.w3.org/1999/xlink" version="1.1" id="Layer_1" x="0px" y="0px" enable-background="new 0 0 822.05 841.89" xml:space="preserve" viewBox="317.93 333.6 185.9 172.23">
<path fill-rule="evenodd" clip-rule="evenodd" fill="#8ED4E5" stroke="#000000" stroke-width="0.75" stroke-linecap="square" stroke-miterlimit="10" d="  M376.705,438.644c-3.193-13.067-27.597-45.729-45-30.002C316.039,422.799,362.778,444.881,376.705,438.644z"/>
<path fill-rule="evenodd" clip-rule="evenodd" fill="#F7F619" stroke="#000000" stroke-width="0.75" stroke-linecap="square" stroke-miterlimit="10" d="  M360.205,445.394c-2.013-3.859-1.584-4.526-6-5.25c-3.786,3.135-55.304,26.085-16.5,36.75  C348.723,479.922,385.198,462.235,360.205,445.394z"/>
<path fill-rule="evenodd" clip-rule="evenodd" fill="#474646" stroke="#000000" stroke-width="0.75" stroke-linecap="square" stroke-miterlimit="10" d="  M382.705,457.394c-0.159,3.387,2.929,4.61-1.5,6.75C381.956,461.927,382.663,458.302,382.705,457.394z"/>
<path fill-rule="evenodd" clip-rule="evenodd" stroke="#000000" stroke-width="0.75" stroke-linecap="square" stroke-miterlimit="10" d="  M388.705,437.894C363.412,463.996,429.729,444.625,388.705,437.894L388.705,437.894z"/>
<path fill-rule="evenodd" clip-rule="evenodd" stroke="#000000" stroke-width="0.75" stroke-linecap="square" stroke-miterlimit="10" d="  M353.455,472.394C334.415,474.159,327.029,424.144,353.455,472.394L353.455,472.394z"/>
<path fill-rule="evenodd" clip-rule="evenodd" stroke="#000000" stroke-width="0.75" stroke-linecap="square" stroke-miterlimit="10" d="  M339.205,475.394c-1.864-6.841-6.865-13.952-12-18.75C324.999,465.839,330.335,473.575,339.205,475.394z"/>
<path fill-rule="evenodd" clip-rule="evenodd" stroke="#000000" stroke-width="0.75" stroke-linecap="square" stroke-miterlimit="10" d="  M330.955,476.894c-2.15-5.002-4.379-9.47-9-12.75C314.519,474.717,318.915,477.29,330.955,476.894z"/>
<path fill-rule="evenodd" clip-rule="evenodd" stroke="#000000" stroke-width="0.75" stroke-linecap="square" stroke-miterlimit="10" d="  M365.455,467.144C348,471.532,338.445,416.256,365.455,467.144L365.455,467.144z"/>
<path fill-rule="evenodd" clip-rule="evenodd" stroke="#000000" stroke-width="0.75" stroke-linecap="square" stroke-miterlimit="10" d="  M396.205,446.894c-9.427-16.501-31.6-14.767-32.25,0C362.899,470.874,399.306,468.125,396.205,446.894z"/>
<path fill-rule="evenodd" clip-rule="evenodd" fill="#8ED4E5" stroke="#000000" stroke-width="0.75" stroke-linecap="square" stroke-miterlimit="10" d="  M386.455,449.894c8.679,10.608,21.224,53.068-4.5,55.5C361.161,507.36,374.232,456.975,386.455,449.894z"/>
<path fill="none" stroke="#000000" stroke-width="0.75" stroke-linecap="square" stroke-miterlimit="10" d="M390.955,427.394  c3.157,7.421,8.773,9.738,4.5,19.5c8.428-0.453,7.781,5.419,12.75,8.25"/>
<path fill-rule="evenodd" clip-rule="evenodd" fill="#8ED4E5" stroke="#000000" stroke-width="0.75" stroke-linecap="square" stroke-miterlimit="10" d="  M471.959,376.392c-3.566-12.803-30.784-48.57-48-30C410.262,361.166,458.687,381.73,471.959,376.392z"/>
<path fill-rule="evenodd" clip-rule="evenodd" fill="#F7F619" stroke="#000000" stroke-width="0.75" stroke-linecap="square" stroke-miterlimit="10" d="  M456.209,382.392c-2.384-3.801-1.574-4.735-6.75-5.25c-5.342,3.118-56.532,27.992-17.25,37.5  C445.594,417.882,480.731,400.737,456.209,382.392z"/>
<path fill-rule="evenodd" clip-rule="evenodd" fill="#474646" stroke="#000000" stroke-width="0.75" stroke-linecap="square" stroke-miterlimit="10" d="  M477.209,395.892c-0.16,3.387,2.93,4.609-1.5,6.75C476.364,400.513,477.164,396.836,477.209,395.892z"/>
<path fill-rule="evenodd" clip-rule="evenodd" stroke="#000000" stroke-width="0.75" stroke-linecap="square" stroke-miterlimit="10" d="  M483.959,374.892C453.636,401.494,527.74,382.836,483.959,374.892L483.959,374.892z"/>
<path fill-rule="evenodd" clip-rule="evenodd" stroke="#000000" stroke-width="0.75" stroke-linecap="square" stroke-miterlimit="10" d="  M447.959,410.142C426.029,414.242,423.309,357.939,447.959,410.142L447.959,410.142z"/>
<path fill-rule="evenodd" clip-rule="evenodd" stroke="#000000" stroke-width="0.75" stroke-linecap="square" stroke-miterlimit="10" d="  M433.709,413.142c-2.329-6.649-7.955-13.542-12.75-18.75C418.854,404.058,424.418,412.481,433.709,413.142z"/>
<path fill-rule="evenodd" clip-rule="evenodd" stroke="#000000" stroke-width="0.75" stroke-linecap="square" stroke-miterlimit="10" d="  M424.709,416.142C414.199,392.803,402.413,419.79,424.709,416.142L424.709,416.142z"/>
<path fill-rule="evenodd" clip-rule="evenodd" stroke="#000000" stroke-width="0.75" stroke-linecap="square" stroke-miterlimit="10" d="  M459.959,404.892C437.559,409.591,436.75,351.883,459.959,404.892L459.959,404.892z"/>
<path fill-rule="evenodd" clip-rule="evenodd" stroke="#000000" stroke-width="0.75" stroke-linecap="square" stroke-miterlimit="10" d="  M490.709,383.892c-10.314-18.779-34.336-14.141-30.75,3C464.828,410.169,496.027,403.774,490.709,383.892z"/>
<path fill-rule="evenodd" clip-rule="evenodd" fill="#8ED4E5" stroke="#000000" stroke-width="0.75" stroke-linecap="square" stroke-miterlimit="10" d="  M481.709,387.642c8.009,10.269,21.188,59.991-6.75,58.502C455.215,445.091,469.843,394.058,481.709,387.642z"/>
<path fill="none" stroke="#000000" stroke-width="0.75" stroke-linecap="square" stroke-miterlimit="10" d="M485.459,364.392  c4.838,7.349,9.439,10.673,5.25,21c8.492-0.476,7.349,5.339,12.75,8.25"/>
<path fill-rule="evenodd" clip-rule="evenodd" fill="#8ED4E5" stroke="#000000" stroke-width="0.5" stroke-linecap="square" stroke-miterlimit="10" d="  M385.705,362.892c-1.87-9.574-28.412-41.229-39.75-24C336.752,352.878,376.531,365.87,385.705,362.892z"/>
<path fill-rule="evenodd" clip-rule="evenodd" fill="#F7F619" stroke="#000000" stroke-width="0.5" stroke-linecap="square" stroke-miterlimit="10" d="  M371.455,368.892c-6.494-10.156-46.854,14.962-19.5,25.5C363.081,398.678,391.087,382.918,371.455,368.892z"/>
<path fill-rule="evenodd" clip-rule="evenodd" fill="#474646" stroke="#000000" stroke-width="0.5" stroke-linecap="square" stroke-miterlimit="10" d="  M390.955,378.642C389.89,385.37,390.144,383.768,390.955,378.642L390.955,378.642z"/>
<path fill-rule="evenodd" clip-rule="evenodd" stroke="#000000" stroke-width="0.5" stroke-linecap="square" stroke-miterlimit="10" d="  M395.455,362.142C386.253,381.953,418.461,373.961,395.455,362.142L395.455,362.142z"/>
<path fill-rule="evenodd" clip-rule="evenodd" stroke="#000000" stroke-width="0.5" stroke-linecap="square" stroke-miterlimit="10" d="  M366.205,390.642c-9.365-0.955-17.085-11.994-12-20.25C358.722,376.062,364.365,383.498,366.205,390.642z"/>
<path fill-rule="evenodd" clip-rule="evenodd" stroke="#000000" stroke-width="0.5" stroke-linecap="square" stroke-miterlimit="10" d="  M354.955,392.892c-2.787-5.655-5.523-10.911-10.5-15C342.853,386.868,348.48,389.715,354.955,392.892z"/>
<path fill-rule="evenodd" clip-rule="evenodd" stroke="#000000" stroke-width="0.5" stroke-linecap="square" stroke-miterlimit="10" d="  M347.455,394.392c-2.812-3.401-3.495-7.648-7.5-10.5C332.362,394.889,339.549,391.809,347.455,394.392z"/>
<path fill-rule="evenodd" clip-rule="evenodd" stroke="#000000" stroke-width="0.5" stroke-linecap="square" stroke-miterlimit="10" d="  M375.955,386.892c-9.06-0.178-17.062-11.939-12-20.25C368.782,372.306,374.13,379.748,375.955,386.892z"/>
<path fill-rule="evenodd" clip-rule="evenodd" stroke="#000000" stroke-width="0.5" stroke-linecap="square" stroke-miterlimit="10" d="  M401.455,368.892c-8.665-14.04-31.772-13.248-24,4.5C383.266,386.66,403.344,385.55,401.455,368.892z"/>
<path fill-rule="evenodd" clip-rule="evenodd" fill="#8ED4E5" stroke="#000000" stroke-width="0.5" stroke-linecap="square" stroke-miterlimit="10" d="  M393.955,371.892c6.198,8.05,17.368,43.211-3.75,45.75C372.702,419.747,383.442,377.797,393.955,371.892z"/>
<path fill="none" stroke="#000000" stroke-width="0.5" stroke-linecap="square" stroke-miterlimit="10" d="M396.955,353.142  c1.694,6.505,7.781,8.23,3.75,16.5c7.324-0.646,6.095,4.071,10.5,6.75"/>
</svg>