<svg xmlns="http://www.w3.org/2000/svg" xmlns:xlink="http://www.w3.org/1999/xlink" version="1.1" id="Layer_1" x="0px" y="0px" enable-background="new 0 0 822.05 841.89" xml:space="preserve" viewBox="224.16 253.71 374.36 333.68">
<path fill-rule="evenodd" clip-rule="evenodd" fill="#AC315E" stroke="#000000" stroke-width="2" stroke-linecap="square" stroke-miterlimit="10" d="  M379.664,455.89c-23.395-0.426-60.767-24.716-79.875,13.5c-9.682,19.364-5.256,31.843-1.125,52.5c3.897,19.488-8.566,24.119-19.5,39  c23.224-1.52,20.426-21.753,48-21.75c25.876,0.003,37.566,9.99,60.75-10.875c18.327-16.494,8.842-31.229,8.25-52.125  c-0.471-16.637,10.456-28.756,12-51C399.055,436.482,389.738,446.628,379.664,455.89z"/>
<path fill-rule="evenodd" clip-rule="evenodd" fill="#ABD151" stroke="#000000" stroke-width="2" stroke-linecap="square" stroke-miterlimit="10" d="  M408.914,423.64c8.541-16.363,22.839-43.295,36.75-55.5c22.61-19.838,59.638-19.039,54.375-55.875  c-2.188-15.315,2.697-30.036,16.125-36.75c42.586-21.293,19.617,21.44,36.75,34.125c-28.653,8.312-51.263,29.394-72.444,48.083  C459.167,376.52,433.297,412.496,408.914,423.64z"/>
<path fill-rule="evenodd" clip-rule="evenodd" fill="#206432" stroke="#000000" stroke-width="2" stroke-linecap="square" stroke-miterlimit="10" d="  M410.414,434.89c23.952-36.451,63.724-58.842,90.75-92.625c15.655-19.569,68.781-56.977,90.75-40.5  c25.937,19.452-53.199,46.104-68.25,52.125c-19.432,7.773-30.925,21.87-50.25,32.25C449.265,399.111,435.275,425.127,410.414,434.89  z"/>
<path fill-rule="evenodd" clip-rule="evenodd" fill="#206432" d="M465.914,355.39c-24.219,2.334-24.779-49.188-7.125-56.25  c10.512-4.205,25.675-1.992,33.375,4.5C518.465,325.814,487.141,344.959,465.914,355.39z"/>
<path fill="none" stroke="#000000" stroke-width="2" stroke-linecap="square" stroke-miterlimit="10" d="M465.914,355.39  c-24.692,2.38-22.879-45.564-9-55.5c9.69-6.938,26.081-1.968,33,3c29.458,21.154-1.144,39.06-23.25,53.25"/>
<path fill-rule="evenodd" clip-rule="evenodd" fill="#ABD151" stroke="#000000" stroke-width="2" stroke-linecap="square" stroke-miterlimit="10" d="  M405.914,449.89c11.111-19.04,37.471-32.902,54.131-46.297c22.122-17.784,40.011-42.009,64.369-57.953  c32.002-20.947,62.561,0.276,36,32.25c-17.317,20.847-35.027,9.815-51.75,10.5C476.802,389.694,429.898,427.556,405.914,449.89z"/>
<path fill="none" stroke="#000000" stroke-width="2" stroke-linecap="square" stroke-miterlimit="10" d="M399.914,504.64  c-8.231-10.416-17.928-20.027-30.75-24"/>
<path fill="none" stroke="#000000" stroke-width="2" stroke-linecap="square" stroke-miterlimit="10" d="M393.164,520.39  c-6.829-10.985-15.423-21.213-27-27"/>
<path fill="none" stroke="#000000" stroke-width="2" stroke-linecap="square" stroke-miterlimit="10" d="M381.914,532.39  c-4.542-8.92-11.482-16.333-20.25-21"/>
<path fill-rule="evenodd" clip-rule="evenodd" fill="#AC315E" stroke="#000000" stroke-width="2" stroke-linecap="square" stroke-miterlimit="10" d="  M399.164,473.89c-22.331-3.547-54.876-16.138-71.25,16.5c-8.302,16.548-0.202,27.637,1.875,44.25  c2.171,17.37-5.169,21.806-16.125,35.25c19.947-4.652,20.7-27.35,45.375-19.125c18.934,6.312,35.722-0.211,50.25-13.125  c16.37-14.552,6.094-28.475,5.625-45.75c-0.428-15.774,7.741-25.937,9.75-46.5C418.35,456.533,408.72,465.968,399.164,473.89z"/>
<path fill-rule="evenodd" clip-rule="evenodd" fill="#ABD151" stroke="#000000" stroke-width="2" stroke-linecap="square" stroke-miterlimit="10" d="  M424.664,444.64c7.648-15.643,23.776-48.925,41.25-54.75c14.052-4.684,27.059-20.354,38.223-29.611  c5.604-4.648-4.542-17.162-2.973-24.389c3.032-13.961,3.317-20.692,16.5-27c35.753-17.107,15.93,18.83,31.5,30  C493.517,357.371,471.534,418.5,424.664,444.64z"/>
<path fill-rule="evenodd" clip-rule="evenodd" fill="#206432" stroke="#000000" stroke-width="2" stroke-linecap="square" stroke-miterlimit="10" d="  M426.164,454.39c18.231-24.143,132.588-158.659,159-123c15.132,20.43-43.728,42.076-60.375,47.625  c-17.695,5.898-30.704,23.19-48,32.625C456.425,422.748,447.493,445.298,426.164,454.39z"/>
<path fill-rule="evenodd" clip-rule="evenodd" fill="#206432" d="M473.414,382.39c-20.387,0.562-25.111-43.355-7.875-50.25  c9.73-3.892,22.472-2.046,29.625,3.75C517.596,354.066,493.741,371.208,473.414,382.39z"/>
<path fill="none" stroke="#000000" stroke-width="2" stroke-linecap="square" stroke-miterlimit="10" d="M473.414,382.39  c-20.387,0.562-25.111-43.355-7.875-50.25c9.444-3.778,20.391-2.267,27.375,2.25c26.247,16.974,1.615,35.458-18.75,48"/>
<path fill-rule="evenodd" clip-rule="evenodd" fill="#ABD151" stroke="#000000" stroke-width="2" stroke-linecap="square" stroke-miterlimit="10" d="  M423.164,467.89c23.422-34.894,68.781-66.103,100.457-94.611c25.559-23.003,50.077-9.385,37.168,20.736  c-9.436,22.016-32.747,15.409-46.875,17.625C481.799,416.678,448.719,444.664,423.164,467.89z"/>
<path fill="none" stroke="#000000" stroke-width="2" stroke-linecap="square" stroke-miterlimit="10" d="M418.664,516.64  c-6.984-9.519-16.468-17.533-27.75-21"/>
<path fill="none" stroke="#000000" stroke-width="2" stroke-linecap="square" stroke-miterlimit="10" d="M413.414,530.89  c-5.74-10.07-13.653-18.028-24-23.25"/>
<path fill="none" stroke="#000000" stroke-width="2" stroke-linecap="square" stroke-miterlimit="10" d="M404.414,541.39  c-4.822-7.308-11.269-13.514-18.75-18"/>
<path fill-rule="evenodd" clip-rule="evenodd" fill="#AC315E" stroke="#000000" stroke-width="2" stroke-linecap="square" stroke-miterlimit="10" d="  M421.664,483.64c-22.812-2.482-56.181-10.886-69.75,22.5c-13.56,33.364,18.599,48.445-7.5,80.25  c18.348-6.87,20.25-28.5,43.875-23.25c18.224,4.05,36.833-1.554,48.75-16.875c13.653-17.554,4.235-26.942,1.875-46.125  c-1.862-15.132,6.3-27.42,5.25-47.25C438.58,464.106,430.2,474.553,421.664,483.64z"/>
<path fill-rule="evenodd" clip-rule="evenodd" fill="#ABD151" stroke="#000000" stroke-width="2" stroke-linecap="square" stroke-miterlimit="10" d="  M444.164,452.14c8.269-19.714,18.887-41.345,32.25-56.25c10.465-11.672,28.037-23.154,39.889-34.694  c5.9-5.745-6.561-16.587-5.389-23.806c2.345-14.445,1.404-20.863,14.25-28.5c33.772-20.078,18.548,17.787,33.75,27  c-24.396,12.681-41.098,31.39-58.777,50.333C481.9,405.762,465.684,438.701,444.164,452.14z"/>
<path fill-rule="evenodd" clip-rule="evenodd" fill="#206432" stroke="#000000" stroke-width="2" stroke-linecap="square" stroke-miterlimit="10" d="  M446.414,461.89c16.727-26.382,119.025-169.012,147.75-135.75c17.797,20.609-40.066,43.342-55.875,52.125  c-18.338,10.188-25.869,24.576-45,36.75C473.819,427.405,467.243,451.962,446.414,461.89z"/>
<path fill-rule="evenodd" clip-rule="evenodd" fill="#206432" d="M487.664,385.39c-23.768,4.603-25.218-39.553-10.5-49.5  c7.155-4.836,22.151-2.383,27.75,1.5C528.935,354.049,505.671,374.346,487.664,385.39z"/>
<path fill="none" stroke="#000000" stroke-width="2" stroke-linecap="square" stroke-miterlimit="10" d="M487.664,385.39  c-23.768,4.603-25.218-39.553-10.5-49.5c7.155-4.836,22.151-2.383,27.75,1.5c24.37,16.901,0.85,34.466-16.5,48.75"/>
<path fill-rule="evenodd" clip-rule="evenodd" fill="#ABD151" stroke="#000000" stroke-width="2" stroke-linecap="square" stroke-miterlimit="10" d="  M444.914,475.39c19.606-36.197,62.86-71.918,91.585-102.732c23.583-25.298,54.979-10.553,38.165,20.232  c-12.344,22.601-32.485,14.068-48,17.25C496.641,416.298,466.12,453.889,444.914,475.39z"/>
<path fill="none" stroke="#000000" stroke-width="2" stroke-linecap="square" stroke-miterlimit="10" d="M444.914,524.14  c-7.937-8.783-17.725-15.48-29.25-18"/>
<path fill="none" stroke="#000000" stroke-width="2" stroke-linecap="square" stroke-miterlimit="10" d="M440.414,539.14  c-6.916-9.402-15.59-17.021-26.25-21.75"/>
<path fill="none" stroke="#000000" stroke-width="2" stroke-linecap="square" stroke-miterlimit="10" d="M432.164,550.39  c-5.001-6.764-11.858-12.317-19.5-15.75"/>
<path fill-rule="evenodd" clip-rule="evenodd" fill="#AC315E" stroke="#000000" stroke-width="2" stroke-linecap="square" stroke-miterlimit="10" d="  M333.914,438.64c-22.206-6.174-54.116-19.219-72.75,11.25c-18.824,30.78,9.073,50.12-20.25,78.75  c20.498-1.845,22.369-27.392,46.875-16.5c16.891,7.507,37.077,3.376,51-9c16.813-14.944,8.532-26.704,9.375-45.75  c0.668-15.097,9.744-25.124,12.75-45C353.587,422.545,343.478,431.272,333.914,438.64z"/>
<path fill-rule="evenodd" clip-rule="evenodd" fill="#ABD151" stroke="#000000" stroke-width="2" stroke-linecap="square" stroke-miterlimit="10" d="  M360.914,410.89c10.115-15.465,23.093-37.869,37.5-49.5c10.467-8.45,29.872-15.783,41.889-24.167  c12.806-8.934,4.611-12.966,4.611-26.833c0-14.139,6.359-23.086,18.75-27.75c37.435-14.091,13.341,21.053,29.25,32.25  c-27.192,5.844-48.876,25.935-69,42.75C405.859,372.727,381.837,403.269,360.914,410.89z"/>
<path fill-rule="evenodd" clip-rule="evenodd" fill="#206432" stroke="#000000" stroke-width="2" stroke-linecap="square" stroke-miterlimit="10" d="  M361.664,421.39c18.879-24.961,144.247-147.445,167.25-111c13.61,21.564-47.293,39.01-64.125,42.75  c-15.854,3.523-30.369,19.317-45.375,27C397.97,391.119,384.061,413.801,361.664,421.39z"/>
<path fill-rule="evenodd" clip-rule="evenodd" fill="#206432" d="M414.164,352.39c-23.111,0.186-19.233-43.224-3-51  c7.319-3.507,22.557,1.511,27.75,6C461.354,326.789,433.838,343.977,414.164,352.39z"/>
<path fill="none" stroke="#000000" stroke-width="2" stroke-linecap="square" stroke-miterlimit="10" d="M414.164,352.39  c-20.8,0.167-21.445-43.622-4.875-50.25c9.269-3.708,20.68-0.498,27.375,4.5c25.257,18.854-0.845,34.079-21.75,46.5"/>
<path fill-rule="evenodd" clip-rule="evenodd" fill="#ABD151" stroke="#000000" stroke-width="2" stroke-linecap="square" stroke-miterlimit="10" d="  M357.164,434.14c28.508-32.583,72.763-59.938,107.13-87.214c22.944-18.21,53.232-7.296,37.62,21.214  c-12.399,22.644-32.675,15.077-50.25,16.5C419.862,387.215,384.067,413.525,357.164,434.14z"/>
<path fill="none" stroke="#000000" stroke-width="2" stroke-linecap="square" stroke-miterlimit="10" d="M349.664,482.14  c-6.903-9.704-15.149-17.713-26.25-21.75"/>
<path fill="none" stroke="#000000" stroke-width="2" stroke-linecap="square" stroke-miterlimit="10" d="M343.664,496.39  c-5.416-10.285-12.526-18.955-22.5-24.75"/>
<path fill="none" stroke="#000000" stroke-width="2" stroke-linecap="square" stroke-miterlimit="10" d="M333.914,506.89  c-4.026-7.822-9.972-14.55-17.25-19.5"/>
<path fill-rule="evenodd" clip-rule="evenodd" fill="#AC315E" stroke="#000000" stroke-width="2" stroke-linecap="square" stroke-miterlimit="10" d="  M328.664,393.64c-21.395-7.949-50.212-26.528-73.5,1.5c-22.447,27.017,4.463,52.929-30,75c20.369,0.514,25.337-22.174,48.375-9.375  c16.314,9.063,35.98,8.526,51.375-2.25c14.82-10.374,18.39-23.537,15.375-41.625c-3.444-20.667,12.737-22.786,18.375-45.75  C350.091,380.128,339.398,387.661,328.664,393.64z"/>
<path fill-rule="evenodd" clip-rule="evenodd" fill="#ABD151" stroke="#000000" stroke-width="2" stroke-linecap="square" stroke-miterlimit="10" d="  M358.664,369.64c14.076-16.314,30.163-33.891,47.25-44.25c11.57-7.015,29.27-11.691,41.861-18.389  c13.728-7.302,5.721-12.104,8.014-25.861c2.47-14.818,8.733-21.586,22.125-24.75c39.316-9.289,10.059,22.271,24.75,35.25  c-27.149,2.705-52.478,18.998-74.25,33C408.311,337.569,381.065,364.808,358.664,369.64z"/>
<path fill-rule="evenodd" clip-rule="evenodd" fill="#206432" stroke="#000000" stroke-width="2" stroke-linecap="square" stroke-miterlimit="10" d="  M358.664,380.14c23.89-19.913,160.826-128.843,180-88.5c11.615,24.439-51.772,30.755-68.625,34.5  c-19.905,4.423-32.03,15.971-53.25,22.5C394.796,355.407,381.303,375.289,358.664,380.14z"/>
<path fill-rule="evenodd" clip-rule="evenodd" fill="#206432" d="M419.414,318.64c-23.303-2.637-12.786-44.99,3.75-50.25  c8.405-2.674,22.148,3.083,27,9C469.296,300.723,439.908,312.24,419.414,318.64z"/>
<path fill="none" stroke="#000000" stroke-width="2" stroke-linecap="square" stroke-miterlimit="10" d="M419.414,318.64  c-20.838-2.358-15.141-46.472,1.875-49.875c10.438-2.088,20.058,0.736,26.625,7.125c23.489,22.853-6.531,33.895-27.75,43.5"/>
<path fill-rule="evenodd" clip-rule="evenodd" fill="#ABD151" stroke="#000000" stroke-width="2" stroke-linecap="square" stroke-miterlimit="10" d="  M352.664,392.14c30.791-26.815,81.48-56.495,119.25-72.75c28.207-12.14,54.141,5.12,29.25,30.75  c-17.475,17.994-34.51,4.751-49.5,3.75C422.781,351.96,377.114,375.712,352.664,392.14z"/>
<path fill="none" stroke="#000000" stroke-width="2" stroke-linecap="square" stroke-miterlimit="10" d="M339.164,439.39  c-5.774-10.663-12.518-19.895-23.25-25.5"/>
<path fill="none" stroke="#000000" stroke-width="2" stroke-linecap="square" stroke-miterlimit="10" d="M330.914,452.14  c-4.343-10.868-10.2-20.723-19.5-27.75"/>
<path fill="none" stroke="#000000" stroke-width="2" stroke-linecap="square" stroke-miterlimit="10" d="M319.664,461.14  c-2.796-8.549-8.019-16.137-15-21.75"/>
</svg>