<svg xmlns="http://www.w3.org/2000/svg" xmlns:xlink="http://www.w3.org/1999/xlink" version="1.1" id="Layer_1" x="0px" y="0px" enable-background="new 0 0 822.05 841.89" xml:space="preserve" viewBox="231.84 274.04 358.43 292.06">
<path fill-rule="evenodd" clip-rule="evenodd" fill="#AC315E" stroke="#000000" stroke-width="2" stroke-linecap="square" stroke-miterlimit="10" d="  M348.338,461.39c-27.312-0.51-46.803-30.85-79.5,0c-16.78,15.832-15.803,32.631-12.75,54c3.697,25.88-5.173,32.078-23.25,49.5  c16.533,1.874,12.183-9.317,20.25-12c12.559-4.177,14.487-3.355,28.917-5.417c24.72-3.531,38.477,15.978,64.833-2.833  c23.952-17.095,16.989-33.873,17.25-59.25c0.202-19.613,13.521-30.315,17.25-54.75C371.283,442.7,360.491,452.346,348.338,461.39z"/>
<path fill-rule="evenodd" clip-rule="evenodd" fill="#ABD151" stroke="#000000" stroke-width="2" stroke-linecap="square" stroke-miterlimit="10" d="  M382.088,429.14c10.743-16.672,27.891-44.589,44.252-56.25c25.591-18.239,66.227-16.71,61.875-55.875  c-2.102-18.912,6.755-32.983,22.875-38.625c44.308-15.507,16.658,27.125,33,41.25c-31.136,6.29-57.009,27.559-81.056,45.278  C441.808,380.559,405.881,424.832,382.088,429.14z"/>
<path fill-rule="evenodd" clip-rule="evenodd" fill="#206432" stroke="#000000" stroke-width="2" stroke-linecap="square" stroke-miterlimit="10" d="  M382.088,441.14c34.785-32.25,74.034-55.825,104.627-91.125c14.388-16.602,81.735-57.144,99-34.125  c20.783,27.71-55.494,45.681-76.5,49.5c-19.198,3.491-37.36,21.966-55.875,30C427.602,406.559,408.086,435.685,382.088,441.14z"/>
<path fill-rule="evenodd" clip-rule="evenodd" fill="#206432" d="M448.09,360.89c-25.21-0.754-21.112-53.053-4.5-62.25  c10.535-5.833,28.083,1.019,34.5,6.75C505.153,329.562,475.553,352.699,448.09,360.89z"/>
<path fill="none" stroke="#000000" stroke-width="2" stroke-linecap="square" stroke-miterlimit="10" d="M448.09,360.89  c-23.881-0.714-22.021-51.737-6.375-61.125c12.083-7.25,25.769-0.788,33.375,4.875c31.59,23.516,1.996,42.271-25.5,57"/>
<path fill-rule="evenodd" clip-rule="evenodd" fill="#ABD151" stroke="#000000" stroke-width="2" stroke-linecap="square" stroke-miterlimit="10" d="  M376.838,457.64c10.961-18.649,43.745-32.745,60.676-44.838c24.864-17.76,46.962-46.318,76.024-57.66  c15.352-5.991,38.982-15.977,45.552,7.248c1.923,6.798-7.898,29.361-14.25,34.125c-25.105,18.829-34.661,6.166-56.25,4.125  C457.334,397.686,402.08,438.1,376.838,457.64z"/>
<path fill="none" stroke="#000000" stroke-width="2" stroke-linecap="square" stroke-miterlimit="10" d="M364.838,516.14  c-7.312-12.019-16.486-24.273-30-29.25"/>
<path fill="none" stroke="#000000" stroke-width="2" stroke-linecap="square" stroke-miterlimit="10" d="M356.588,533.39  c-5.132-13.219-13.862-24.889-25.5-33"/>
<path fill="none" stroke="#000000" stroke-width="2" stroke-linecap="square" stroke-miterlimit="10" d="M344.588,545.39  c-4.611-9.894-10.99-18.704-19.5-25.5"/>
</svg>