<svg xmlns="http://www.w3.org/2000/svg" xmlns:xlink="http://www.w3.org/1999/xlink" version="1.1" id="Layer_1" x="0px" y="0px" enable-background="new 0 0 822.05 841.89" xml:space="preserve" viewBox="318.68 341.36 184.25 158">
<path fill-rule="evenodd" clip-rule="evenodd" stroke="#000000" stroke-width="1.25" stroke-linecap="square" stroke-miterlimit="10" d="  M381.554,439.487c36.017-24.359,19.787,14.069,30.75,33c-0.947-0.724-1.447-1.724-1.5-3c-0.25,1.25-0.5,2.5-0.75,3.75  c-4.113-13.038-1.604-26.654-3-39.75C399.927,436.944,389.806,439.378,381.554,439.487z"/>
<path fill-rule="evenodd" clip-rule="evenodd" stroke="#000000" stroke-width="1.25" stroke-linecap="square" stroke-miterlimit="10" d="  M359.804,457.487c-24.136,19.352,0.023,28.647,15,41.25c-0.447-1.782,0.053-2.032,1.5-0.75c-7.454-8.297-17.053-14.302-27-19.5  C357.622,472.277,357.173,465.99,359.804,457.487z"/>
<path fill-rule="evenodd" clip-rule="evenodd" stroke="#000000" stroke-width="1.25" stroke-linecap="square" stroke-miterlimit="10" d="  M356.804,443.987c-16.197-16.462-19.54,4.291-17.25,18.75c0.37-6.896,2.78-15.011,3-22.5  C348.849,447.208,356.795,456.526,356.804,443.987z"/>
<path fill-rule="evenodd" clip-rule="evenodd" stroke="#000000" stroke-width="1.25" stroke-linecap="square" stroke-miterlimit="10" d="  M367.304,427.487c11.141-19.492,19.152-2.73,26.25,4.5c-4.83-5.243-9.313-5.805-13.5-14.25  C374.867,430.899,372.237,429.05,367.304,427.487z"/>
<path fill-rule="evenodd" clip-rule="evenodd" stroke="#000000" stroke-width="1.25" stroke-linecap="square" stroke-miterlimit="10" d="  M322.304,413.237c6.466,9.773,16.62,15.078,30,16.5c-0.25,1.5-0.5,3-0.75,4.5C337.159,434.237,328.057,422.859,322.304,413.237z"/>
<path fill-rule="evenodd" clip-rule="evenodd" stroke="#000000" stroke-width="1.25" stroke-linecap="square" stroke-miterlimit="10" d="  M352.304,404.987c11.226,0.688,16.493,8.994,5.25,17.25c1.325-3.791,2.936-9.029,3.75-12.75  C355.216,410.182,351.98,404.888,352.304,404.987z"/>
<path fill-rule="evenodd" clip-rule="evenodd" stroke="#000000" stroke-width="1.25" stroke-linecap="square" stroke-miterlimit="10" d="  M319.304,407.987c9.266-2.618,18.831-0.094,26.25,6C338.168,406.402,328.739,404.101,319.304,407.987z"/>
<path fill-rule="evenodd" clip-rule="evenodd" stroke="#000000" stroke-width="1.25" stroke-linecap="square" stroke-miterlimit="10" d="  M347.054,412.487c-5.699-8.443-5.431-17.433,0.75-25.5C342.387,395.133,342.19,403.97,347.054,412.487z"/>
<path fill-rule="evenodd" clip-rule="evenodd" stroke="#000000" stroke-width="1.25" stroke-linecap="square" stroke-miterlimit="10" d="  M348.554,419.987c-0.862,12.211,5.973,35.106,13.5,46.5c7.484,11.33,38.589,28.02,36,4.5c0.25,1.25,0.5,2.5,0.75,3.75  c1.233-30.64-37.747-61.238-56.25-60C343.938,417.626,347.208,417.923,348.554,419.987z"/>
<path fill-rule="evenodd" clip-rule="evenodd" fill="#FFFFFF" stroke="#000000" stroke-width="1.25" stroke-linecap="square" stroke-miterlimit="10" d="  M365.054,448.487C359.956,457.162,363.457,464.001,365.054,448.487L365.054,448.487z"/>
<path fill-rule="evenodd" clip-rule="evenodd" fill="#FFFFFF" stroke="#000000" stroke-width="1.25" stroke-linecap="square" stroke-miterlimit="10" d="  M379.304,439.487C378.417,443.483,377.39,452.478,379.304,439.487L379.304,439.487z"/>
<path fill-rule="evenodd" clip-rule="evenodd" stroke="#000000" stroke-width="1.25" stroke-linecap="square" stroke-miterlimit="10" d="  M471.556,394.487c36.017-24.359,19.786,14.07,30.75,33c-0.947-0.724-1.447-1.724-1.5-3c-0.25,1.25-0.5,2.5-0.75,3.75  c-4.113-13.038-1.604-26.654-3-39.75C489.929,391.944,479.809,394.378,471.556,394.487z"/>
<path fill-rule="evenodd" clip-rule="evenodd" stroke="#000000" stroke-width="1.25" stroke-linecap="square" stroke-miterlimit="10" d="  M449.806,412.487c-24.137,19.352,0.023,28.647,15,41.25c-0.447-1.782,0.053-2.032,1.5-0.75c-7.454-8.297-17.053-14.302-27-19.5  C447.624,427.277,447.176,420.989,449.806,412.487z"/>
<path fill-rule="evenodd" clip-rule="evenodd" stroke="#000000" stroke-width="1.25" stroke-linecap="square" stroke-miterlimit="10" d="  M446.806,398.987c-16.196-16.462-19.54,4.291-17.25,18.75c0.37-6.896,2.78-15.011,3-22.5  C438.851,402.209,446.797,411.526,446.806,398.987z"/>
<path fill-rule="evenodd" clip-rule="evenodd" stroke="#000000" stroke-width="1.25" stroke-linecap="square" stroke-miterlimit="10" d="  M457.306,382.487c11.141-19.492,19.152-2.731,26.25,4.5c-4.83-5.243-9.312-5.805-13.5-14.25  C464.868,385.898,462.239,384.05,457.306,382.487z"/>
<path fill-rule="evenodd" clip-rule="evenodd" stroke="#000000" stroke-width="1.25" stroke-linecap="square" stroke-miterlimit="10" d="  M412.304,368.237c6.468,9.772,16.622,15.078,30.002,16.5c-0.25,1.5-0.5,3-0.75,4.5C427.161,389.236,418.06,377.859,412.304,368.237z  "/>
<path fill-rule="evenodd" clip-rule="evenodd" stroke="#000000" stroke-width="1.25" stroke-linecap="square" stroke-miterlimit="10" d="  M442.306,359.987c11.226,0.688,16.492,8.994,5.25,17.25c1.325-3.791,2.937-9.029,3.75-12.75  C445.218,365.182,441.982,359.888,442.306,359.987z"/>
<path fill-rule="evenodd" clip-rule="evenodd" stroke="#000000" stroke-width="1.25" stroke-linecap="square" stroke-miterlimit="10" d="  M409.304,362.987c9.267-2.618,18.832-0.094,26.252,6C428.17,361.402,418.739,359.101,409.304,362.987z"/>
<path fill-rule="evenodd" clip-rule="evenodd" stroke="#000000" stroke-width="1.25" stroke-linecap="square" stroke-miterlimit="10" d="  M437.056,367.487c-5.699-8.443-5.431-17.433,0.75-25.5C432.39,350.133,432.192,358.97,437.056,367.487z"/>
<path fill-rule="evenodd" clip-rule="evenodd" stroke="#000000" stroke-width="1.25" stroke-linecap="square" stroke-miterlimit="10" d="  M438.556,374.987c-0.861,12.211,5.973,35.106,13.5,46.5c7.484,11.33,38.59,28.02,36,4.5c0.25,1.25,0.5,2.5,0.75,3.75  c1.232-30.639-37.747-61.238-56.25-60C433.939,372.626,437.21,372.923,438.556,374.987z"/>
<path fill-rule="evenodd" clip-rule="evenodd" fill="#FFFFFF" stroke="#000000" stroke-width="1.25" stroke-linecap="square" stroke-miterlimit="10" d="  M455.056,403.487C449.958,412.162,453.459,419.001,455.056,403.487L455.056,403.487z"/>
<path fill-rule="evenodd" clip-rule="evenodd" fill="#FFFFFF" stroke="#000000" stroke-width="1.25" stroke-linecap="square" stroke-miterlimit="10" d="  M469.306,394.487C468.42,398.483,467.393,407.478,469.306,394.487L469.306,394.487z"/>
</svg>