<svg xmlns="http://www.w3.org/2000/svg" xmlns:xlink="http://www.w3.org/1999/xlink" version="1.1" id="Layer_1" x="0px" y="0px" enable-background="new 0 0 822.05 841.89" xml:space="preserve" viewBox="347.01 337.82 128 167.85">
<path fill-rule="evenodd" clip-rule="evenodd" fill="#FFFFFF" stroke="#000000" stroke-width="2" stroke-linecap="square" stroke-miterlimit="10" d="  M348.006,443.935c3.52,80.76,126.001,81.194,126.004,0C474.013,362.417,351.272,362.802,348.006,443.935z"/>
<path fill-rule="evenodd" clip-rule="evenodd" fill="#FFFFFF" d="M411.008,488.935v12V488.935z"/>
<line fill="none" stroke="#000000" stroke-width="2" stroke-linecap="square" stroke-miterlimit="10" x1="411.008" y1="488.935" x2="411.008" y2="500.935"/>
<path fill-rule="evenodd" clip-rule="evenodd" fill="#FFFFFF" d="M366.006,443.935h-12H366.006z"/>
<line fill="none" stroke="#000000" stroke-width="2" stroke-linecap="square" stroke-miterlimit="10" x1="366.006" y1="443.935" x2="354.006" y2="443.935"/>
<path fill-rule="evenodd" clip-rule="evenodd" fill="#FFFFFF" d="M468.76,443.935h-12.75H468.76z"/>
<line fill="none" stroke="#000000" stroke-width="2" stroke-linecap="square" stroke-miterlimit="10" x1="468.76" y1="443.935" x2="456.01" y2="443.935"/>
<path fill-rule="evenodd" clip-rule="evenodd" fill="#FFFFFF" d="M379.506,475.435l-9,9L379.506,475.435z"/>
<line fill="none" stroke="#000000" stroke-width="2" stroke-linecap="square" stroke-miterlimit="10" x1="379.506" y1="475.435" x2="370.506" y2="484.435"/>
<path fill-rule="evenodd" clip-rule="evenodd" fill="#FFFFFF" d="M451.51,403.435l-8.25,8.25L451.51,403.435z"/>
<line fill="none" stroke="#000000" stroke-width="2" stroke-linecap="square" stroke-miterlimit="10" x1="451.51" y1="403.435" x2="443.26" y2="411.685"/>
<path fill-rule="evenodd" clip-rule="evenodd" fill="#FFFFFF" d="M451.51,484.435l-8.25-9L451.51,484.435z"/>
<line fill="none" stroke="#000000" stroke-width="2" stroke-linecap="square" stroke-miterlimit="10" x1="451.51" y1="484.435" x2="443.26" y2="475.435"/>
<path fill-rule="evenodd" clip-rule="evenodd" stroke="#000000" stroke-width="1.25" stroke-linecap="square" stroke-miterlimit="10" d="  M405.008,392.935C421.084,406.694,420.522,378.009,405.008,392.935L405.008,392.935z"/>
<path fill-rule="evenodd" clip-rule="evenodd" stroke="#000000" stroke-width="1.25" stroke-linecap="square" stroke-miterlimit="10" d="  M412.508,405.685c1.501,13.75,3.001,27.5,4.502,41.25c-3.751-0.5-7.501-1-11.252-1.5  C408.008,432.185,410.258,418.935,412.508,405.685z"/>
<path fill-rule="evenodd" clip-rule="evenodd" stroke="#000000" stroke-width="1.25" stroke-linecap="square" stroke-miterlimit="10" d="  M404.258,443.935C420.875,456.837,420.237,430.371,404.258,443.935L404.258,443.935z"/>
<path fill-rule="evenodd" clip-rule="evenodd" fill="#E03734" stroke="#000000" stroke-width="1.25" stroke-linecap="square" stroke-miterlimit="10" d="  M371.256,407.935C386.505,421.009,386.759,395.073,371.256,407.935L371.256,407.935z"/>
<path fill-rule="evenodd" clip-rule="evenodd" fill="#E03734" stroke="#000000" stroke-width="1.5" stroke-linecap="square" stroke-miterlimit="10" d="  M387.756,356.935c11.913-9.529,23.01-28.177,33.754-12c-8.751,7-17.502,14-26.254,21c2,2.5,4.001,5,6.002,7.5  c-12.25,2.75-24.501,5.5-36.752,8.25c5.75-10.75,11.5-21.5,17.25-32.25C383.756,351.935,385.756,354.435,387.756,356.935z"/>
</svg>