<svg xmlns="http://www.w3.org/2000/svg" xmlns:xlink="http://www.w3.org/1999/xlink" version="1.1" id="Layer_1" x="0px" y="0px" enable-background="new 0 0 822.05 841.89" xml:space="preserve" viewBox="206.07 365.38 415.25 111.47">
<path fill-rule="evenodd" clip-rule="evenodd" fill="#878787" stroke="#000000" stroke-width="2" stroke-linecap="square" stroke-miterlimit="10" d="  M496.572,396.427c1.608,19.703-4.439,35.264,16.125,39.377c16.959,3.392,24.378,0.75,19.125-20.627  c-10.498,5.342-9.66-0.572-10.5,15.002C493.847,429.665,520.572,394.801,496.572,396.427z"/>
<path fill-rule="evenodd" clip-rule="evenodd" fill="#878787" stroke="#000000" stroke-width="2" stroke-linecap="square" stroke-miterlimit="10" d="  M580.572,388.177c1.647,17.71-3.677,31.206,15,34.126c15.189,2.375,22.552,0.688,18-19.126c-10.323,5.796-9.594-1.144-9,15  c-19.648,1.593-14.626-16.892-15.75-31.5C586.072,387.177,583.322,387.677,580.572,388.177z"/>
<path fill="none" stroke="#000000" stroke-width="2" stroke-linecap="square" stroke-miterlimit="10" d="M504.822,415.177  c-3.147,15.626,7.593,20.07,16.5,14.252"/>
<line fill="none" stroke="#000000" stroke-width="2" stroke-linecap="square" stroke-miterlimit="10" x1="509.322" y1="427.179" x2="507.072" y2="430.179"/>
<path fill="none" stroke="#000000" stroke-width="2" stroke-linecap="square" stroke-miterlimit="10" d="M588.822,406.927  c-2.11,13.816,9.882,13.483,15.75,10.5"/>
<line fill="none" stroke="#000000" stroke-width="2" stroke-linecap="square" stroke-miterlimit="10" x1="591.822" y1="414.427" x2="589.572" y2="417.427"/>
<path fill="none" stroke="#000000" stroke-width="2" stroke-linecap="square" stroke-miterlimit="10" d="M486.072,371.677  c0.618,5.751-0.661,10.091,3,12.75C489.718,380.214,486.163,372.142,486.072,371.677z"/>
<path fill-rule="evenodd" clip-rule="evenodd" fill="#954811" stroke="#000000" stroke-width="2" stroke-linecap="square" stroke-miterlimit="10" d="  M489.072,371.677c0.25,4,0.5,8,0.75,12c36-2.75,72-5.5,108-8.25C596.841,358.058,508.056,370.886,489.072,371.677z"/>
<path fill="none" stroke="#000000" stroke-width="2" stroke-linecap="square" stroke-miterlimit="10" d="M487.572,387.427  c1.234,4.125,0.369,7.51,3,9.75C491.31,392.786,487.83,388.29,487.572,387.427z"/>
<path fill-rule="evenodd" clip-rule="evenodd" fill="#954811" stroke="#000000" stroke-width="2" stroke-linecap="square" stroke-miterlimit="10" d="  M490.572,387.427c1.07,19.879,89.145-0.057,108.75-2.25C590.033,368.286,512.924,385.552,490.572,387.427z"/>
<path fill-rule="evenodd" clip-rule="evenodd" fill="#954811" stroke="#000000" stroke-width="2" stroke-linecap="square" stroke-miterlimit="10" d="  M489.822,406.927c4.496,23.637,112.016-2.009,130.5-4.5c-0.25-2-0.5-4-0.75-6C578.211,401.745,531.368,415.545,489.822,406.927z"/>
<line fill="none" stroke="#000000" stroke-width="2" stroke-linecap="square" stroke-miterlimit="10" x1="514.572" y1="409.177" x2="514.572" y2="416.677"/>
<path fill-rule="evenodd" clip-rule="evenodd" fill="#72441B" stroke="#000000" stroke-width="2" stroke-linecap="square" stroke-miterlimit="10" d="  M489.822,406.927c42.697-4.811,87.421-14.777,130.5-11.25C578.839,401.267,531.541,415.681,489.822,406.927z"/>
<line fill="none" stroke="#000000" stroke-width="2" stroke-linecap="square" stroke-miterlimit="10" x1="522.072" y1="433.179" x2="522.072" y2="433.179"/>
<line fill="none" stroke="#000000" stroke-width="2" stroke-linecap="square" stroke-miterlimit="10" x1="520.572" y1="429.429" x2="520.572" y2="429.429"/>
<path fill-rule="evenodd" clip-rule="evenodd" fill="#878787" stroke="#000000" stroke-width="2" stroke-linecap="square" stroke-miterlimit="10" d="  M369.82,405.427c1.543,17.594-4.466,41.148,14.574,44.864c23.764,4.637,30.682,4.758,27.426-23.862  c-12.417-0.674-15.77,6.42-12.75,18.75C367.074,445.938,397.095,399.628,369.82,405.427z"/>
<path fill-rule="evenodd" clip-rule="evenodd" fill="#878787" stroke="#000000" stroke-width="2" stroke-linecap="square" stroke-miterlimit="10" d="  M468.072,394.927c2.006,20.465-4.045,36.988,17.625,40.502c20.123,3.264,24.067,0.466,20.625-22.502  c-11.548-0.165-13.578,6.869-9.75,18.002c-22.928,2.279-17.329-21.157-18.75-37.502  C474.572,393.927,471.322,394.427,468.072,394.927z"/>
<path fill="none" stroke="#000000" stroke-width="2" stroke-linecap="square" stroke-miterlimit="10" d="M380.32,427.179  c-4.364,17.757,8.496,22.567,18.75,16.5"/>
<line fill="none" stroke="#000000" stroke-width="2" stroke-linecap="square" stroke-miterlimit="10" x1="385.57" y1="440.679" x2="381.82" y2="444.429"/>
<path fill="none" stroke="#000000" stroke-width="2" stroke-linecap="square" stroke-miterlimit="10" d="M477.822,417.427  c-2.264,14.616,9.515,15.875,18,12.752"/>
<line fill="none" stroke="#000000" stroke-width="2" stroke-linecap="square" stroke-miterlimit="10" x1="481.572" y1="426.429" x2="478.572" y2="429.429"/>
<path fill="none" stroke="#000000" stroke-width="2" stroke-linecap="square" stroke-miterlimit="10" d="M357.82,376.927  c0.904,6.069,0.199,11.236,3.75,14.25C361.975,386.802,357.986,377.664,357.82,376.927z"/>
<path fill-rule="evenodd" clip-rule="evenodd" fill="#954811" stroke="#000000" stroke-width="2" stroke-linecap="square" stroke-miterlimit="10" d="  M361.57,376.177c0.25,4.75,0.5,9.5,0.75,14.25c42-3,84.001-6,126.002-9C489.146,361.981,382.581,375.427,361.57,376.177z"/>
<path fill="none" stroke="#000000" stroke-width="2" stroke-linecap="square" stroke-miterlimit="10" d="M360.07,394.927  c1.593,5.354-0.553,8.869,3.75,11.25C364.159,402.164,359.802,394.025,360.07,394.927z"/>
<path fill-rule="evenodd" clip-rule="evenodd" fill="#954811" stroke="#000000" stroke-width="2" stroke-linecap="square" stroke-miterlimit="10" d="  M363.07,394.177c-1.245,23.427,104.695,0.877,126.752-1.5C483.701,373.312,386.434,392.358,363.07,394.177z"/>
<path fill-rule="evenodd" clip-rule="evenodd" fill="#954811" stroke="#000000" stroke-width="2" stroke-linecap="square" stroke-miterlimit="10" d="  M362.32,417.427c3.42,24.45,150.172,2.206,151.502-12.75C463.53,411.156,412.889,422.614,362.32,417.427z"/>
<line fill="none" stroke="#000000" stroke-width="2" stroke-linecap="square" stroke-miterlimit="10" x1="390.82" y1="420.427" x2="390.82" y2="428.679"/>
<path fill-rule="evenodd" clip-rule="evenodd" fill="#72441B" stroke="#000000" stroke-width="2" stroke-linecap="square" stroke-miterlimit="10" d="  M362.32,417.427c50.572-5.484,101.353-14.125,152.252-12.75C464.169,411.398,412.909,424.087,362.32,417.427z"/>
<line fill="none" stroke="#000000" stroke-width="2" stroke-linecap="square" stroke-miterlimit="10" x1="400.57" y1="448.179" x2="400.57" y2="448.179"/>
<line fill="none" stroke="#000000" stroke-width="2" stroke-linecap="square" stroke-miterlimit="10" x1="398.32" y1="444.429" x2="398.32" y2="444.429"/>
<path fill-rule="evenodd" clip-rule="evenodd" fill="#878787" stroke="#000000" stroke-width="2" stroke-linecap="square" stroke-miterlimit="10" d="  M220.57,420.427c2.455,27.413-5.745,48.37,22.875,53.627c29.048,5.335,25.237-0.429,26.625-28.875  c-14.938-2.612-17.596,8.134-14.25,21.75c-27.363,2.635-19.72-29.114-21-48.002C230.07,419.427,225.32,419.927,220.57,420.427z"/>
<path fill-rule="evenodd" clip-rule="evenodd" fill="#878787" stroke="#000000" stroke-width="2" stroke-linecap="square" stroke-miterlimit="10" d="  M337.57,407.677c1.826,18.265-4.104,43.602,15.852,46.85c29.497,4.802,28.3,4.514,29.898-25.848c-14.777-1.896-16.791,8.048-12,21  c-27.132,4.039-20.762-24.735-22.5-43.502C345.07,406.677,341.32,407.177,337.57,407.677z"/>
<path fill="none" stroke="#000000" stroke-width="2" stroke-linecap="square" stroke-miterlimit="10" d="M232.57,445.179  c-4.122,18.731,10.33,30.808,23.25,20.25"/>
<line fill="none" stroke="#000000" stroke-width="2" stroke-linecap="square" stroke-miterlimit="10" x1="239.32" y1="461.679" x2="235.57" y2="466.179"/>
<path fill="none" stroke="#000000" stroke-width="2" stroke-linecap="square" stroke-miterlimit="10" d="M348.82,433.929  c-3.139,17.273,13.268,19.102,21.75,15"/>
<line fill="none" stroke="#000000" stroke-width="2" stroke-linecap="square" stroke-miterlimit="10" x1="353.32" y1="445.179" x2="350.32" y2="448.179"/>
<path fill="none" stroke="#000000" stroke-width="2" stroke-linecap="square" stroke-miterlimit="10" d="M207.07,385.927  c0.661,7.55-1.154,13.352,3.75,16.5C211.424,395.875,207.655,387.401,207.07,385.927z"/>
<path fill-rule="evenodd" clip-rule="evenodd" fill="#954811" stroke="#000000" stroke-width="2" stroke-linecap="square" stroke-miterlimit="10" d="  M210.82,385.177c-5.404,29.624,35.401,14.682,53.772,13.29c14.827-1.123,86.609,3.732,96.228-7.29  c15.217-17.437-55.176-9.812-59.493-9.639C271.159,382.751,240.989,383.964,210.82,385.177z"/>
<path fill="none" stroke="#000000" stroke-width="2" stroke-linecap="square" stroke-miterlimit="10" d="M209.32,406.927  c1.136,6.603-0.868,11.078,4.5,13.5C214.562,414.71,209.622,407.971,209.32,406.927z"/>
<path fill-rule="evenodd" clip-rule="evenodd" fill="#954811" stroke="#000000" stroke-width="2" stroke-linecap="square" stroke-miterlimit="10" d="  M213.07,406.927c-3.395,25.238,44.421,8.731,59.947,7.006c30.018-3.335,60.035-6.67,90.053-10.006  C359.272,383.717,237.699,404.937,213.07,406.927z"/>
<path fill-rule="evenodd" clip-rule="evenodd" fill="#954811" stroke="#000000" stroke-width="2" stroke-linecap="square" stroke-miterlimit="10" d="  M211.57,433.929c0.094,29.77,159.725-3.111,181.5-6c-3.363-18.882-67.713-0.424-84.695,1.775  C274,434.159,245.855,437.577,211.57,433.929z"/>
<line fill="none" stroke="#000000" stroke-width="2" stroke-linecap="square" stroke-miterlimit="10" x1="246.07" y1="437.679" x2="246.07" y2="447.429"/>
<path fill-rule="evenodd" clip-rule="evenodd" fill="#72441B" stroke="#000000" stroke-width="2" stroke-linecap="square" stroke-miterlimit="10" d="  M211.57,433.929c59.998-6.701,120.362-17.747,180.75-15.002C332.382,426.919,271.73,441.776,211.57,433.929z"/>
<line fill="none" stroke="#000000" stroke-width="2" stroke-linecap="square" stroke-miterlimit="10" x1="256.57" y1="470.679" x2="256.57" y2="470.679"/>
<line fill="none" stroke="#000000" stroke-width="2" stroke-linecap="square" stroke-miterlimit="10" x1="255.07" y1="465.429" x2="255.07" y2="465.429"/>
</svg>