<svg xmlns="http://www.w3.org/2000/svg" xmlns:xlink="http://www.w3.org/1999/xlink" version="1.1" id="Layer_1" x="0px" y="0px" enable-background="new 0 0 822.05 841.89" xml:space="preserve" viewBox="210.98 288.33 392.31 271.04">
<path fill-rule="evenodd" clip-rule="evenodd" fill="#878787" stroke="#000000" stroke-width="2" stroke-linecap="square" stroke-miterlimit="10" d="  M599.541,552.65c-87.712,19.146-123.938-22.15-149.25-97.5c-12.301-36.617-42.95-77.344-72.75-102.752  c-31.098-26.515-68.918-21.535-107.25-26.25c-11.776-1.449-78.037-13.818-52.5-35.25c8.633-7.245,54.243,12.774,62.554,15.046  c27.927,7.632,56.298,12.733,81.637,26.81c47.744,26.525,77.953,77.199,106.996,122.473  C494.229,494.59,548.656,554.705,599.541,552.65z"/>
<path fill-rule="evenodd" clip-rule="evenodd" fill="#D1D1D2" stroke="#000000" stroke-width="2" stroke-linecap="square" stroke-miterlimit="10" d="  M462.291,434.9c5.332,17.532,58.091,25.39,76.125,37.875c13.596,9.412,77.851,55.82,61.125,78.375  c-19.627,26.468-101.213-27.341-114.75-41.25c-23.59-24.238-21.196-50.009-33.75-77.25c-14.312-31.058-51.018-79.405-81.375-96.752  c-38.457-21.975-86.675-11.536-128.25-22.875c-50.974-13.902-8.481-29.812,26.069-19.181  c35.213,10.835,97.371,14.371,124.681,41.681C419.407,362.764,443.534,401.36,462.291,434.9z"/>
<path fill-rule="evenodd" clip-rule="evenodd" fill="#ED2224" d="M356.541,351.648c-7.707,0.948-15.776,4.58-23.25,6.75  c1.75,1.75,3.5,3.5,5.25,5.25c-8.5,7-17,14-25.5,21c1,1.25,2,2.5,3,3.75c10.097-8.077,21.022-24.705,31.5-15.75  C350.325,366.152,355.33,358.576,356.541,351.648z"/>
<path fill="none" stroke="#000000" stroke-width="2" stroke-linecap="square" stroke-miterlimit="10" d="M356.541,351.648  c-7.707,0.948-15.776,4.58-23.25,6.75c1.75,1.75,3.5,3.5,5.25,5.25c-8.5,7-17,14-25.5,21c1,1.25,2,2.5,3,3.75  c10.097-8.077,21.022-24.705,31.5-15.75C350.325,366.152,355.33,358.576,356.541,351.648z"/>
<path fill-rule="evenodd" clip-rule="evenodd" fill="#ED2224" d="M457.791,325.398c-12.927-0.862-32.681,4.142-33.75-9.75  c-6.008,1.313-16.052,5.366-21,9c5.938,4.322,14.831,8.776,21.75,11.25c-0.25-2.5-0.5-5-0.75-7.5  C437.679,329.328,450.938,333.525,457.791,325.398z"/>
<path fill="none" stroke="#000000" stroke-width="2" stroke-linecap="square" stroke-miterlimit="10" d="M457.791,325.398  c-12.927-0.862-32.681,4.142-33.75-9.75c-6.008,1.313-16.052,5.366-21,9c5.938,4.322,14.831,8.776,21.75,11.25  c-0.25-2.5-0.5-5-0.75-7.5C437.679,329.328,450.938,333.525,457.791,325.398z"/>
</svg>