<svg xmlns="http://www.w3.org/2000/svg" xmlns:xlink="http://www.w3.org/1999/xlink" version="1.1" id="Layer_1" x="0px" y="0px" enable-background="new 0 0 822.05 841.89" xml:space="preserve" viewBox="278.57 249.31 260.5 342.49">
<path fill-rule="evenodd" clip-rule="evenodd" fill="#FFFFFF" stroke="#000000" stroke-width="2" stroke-linecap="square" stroke-miterlimit="10" d="  M396.75,338.14c-32.504-50.396-112.25,122.501-115.875,140.625c-7.866,39.328,21.096,53.534,51.36,69.211  c27.36,14.172,71.839,50.366,106.515,41.414c36.535-9.433,53.072-69.229,67.973-97.917c13.322-25.65,31.88-60.216,10.777-88.083  c-14.132-18.661-11.824-11.17-32.25-3c-14.886,5.955-32.325,9.725-48,4.5C408.521,395.314,401.804,364.133,396.75,338.14z"/>
<path fill-rule="evenodd" clip-rule="evenodd" fill="#90D8F8" stroke="#000000" stroke-width="2" stroke-linecap="square" stroke-miterlimit="10" d="  M397.5,341.14c-53.709-13.895-81.562,80.424-97.945,111.844c-31.866,61.112,12.045,76.041,62.318,102.303  c51.467,26.886,80.385,43.728,109.691-14.012c17.682-34.835,76.546-113.379,27.186-149.885  c43.973-19.101,50.304-129.799,12.75-111.75c63.321,16.831,2.662,137.023-69,108c-39.165-15.862-50.469-62.494-30.748-97.5  c17.989-31.932,41.707-22.729,61.498-36C422.638,233.622,392.716,300.264,397.5,341.14z"/>
<text transform="matrix(0.8894 0.4571 -0.4571 0.8894 360.7349 422.8608)"><tspan x="0" y="0" font-family="'ArialMT'" font-size="45" letter-spacing="-26">B</tspan><tspan x="3.779" y="0" font-family="'ArialMT'" font-size="45">a</tspan></text>
<text transform="matrix(0.8894 0.4571 -0.4571 0.8894 401.9888 443.1401)" font-family="'ArialMT'" font-size="45">b</text>
<text transform="matrix(0.8894 0.4571 -0.4571 0.8894 425.2627 455.1274)" font-family="'ArialMT'" font-size="45">y</text>
<path fill-rule="evenodd" clip-rule="evenodd" fill="#FBF4A2" stroke="#000000" stroke-width="2" stroke-linecap="square" stroke-miterlimit="10" d="  M408.75,520.39c-23.08,35.173-78.307,0.244-55.5-35.25C376.129,449.535,430.385,484.164,408.75,520.39z"/>
<path fill-rule="evenodd" clip-rule="evenodd" d="M376.5,488.14C370.725,484.008,370.812,484.071,376.5,488.14L376.5,488.14z"/>
<path fill-rule="evenodd" clip-rule="evenodd" d="M402.75,500.89C396.859,496.822,396.071,496.278,402.75,500.89L402.75,500.89z"/>
<path fill="none" stroke="#000000" stroke-width="2" stroke-linecap="square" stroke-miterlimit="10" d="M381.75,497.89  c6.52,1.762,6.604,4.282,0.75,7.5"/>
<path fill="none" stroke="#000000" stroke-width="2" stroke-linecap="square" stroke-miterlimit="10" d="M375.75,501.64  c-3.42,3.687-7.335,4.631-10.5,1.5"/>
<path fill="none" stroke="#000000" stroke-width="2" stroke-linecap="square" stroke-miterlimit="10" d="M393,514.39  c-9.462,2.963-17.472-0.313-22.5-9"/>
<path fill="none" stroke="#000000" stroke-width="2" stroke-linecap="square" stroke-miterlimit="10" d="M387.75,458.89  c31.44,9.622-25.465-20.703,0,10.5"/>
<path fill="none" stroke="#000000" stroke-width="2" stroke-linecap="square" stroke-miterlimit="10" d="M347.25,492.64  c-1.806,4.832-8.528,5.174,0,13.5C347.25,501.64,347.25,497.14,347.25,492.64z"/>
<path fill="none" stroke="#000000" stroke-width="2" stroke-linecap="square" stroke-miterlimit="10" d="M412.502,512.14  c0.217,5.263,7.68,7.699-4.502,12.75C409.5,520.64,411.001,516.39,412.502,512.14z"/>
</svg>