<svg xmlns="http://www.w3.org/2000/svg" xmlns:xlink="http://www.w3.org/1999/xlink" version="1.1" id="Layer_1" x="0px" y="0px" enable-background="new 0 0 822.05 841.89" xml:space="preserve" viewBox="215.28 262.96 386.99 317.07">
<path fill-rule="evenodd" clip-rule="evenodd" fill="#AA4125" stroke="#000000" stroke-width="2" stroke-linecap="square" stroke-miterlimit="10" d="  M601,466.527c-15.519-8.705-24.726-20.49-40.638-11.933c-26.454,14.228-52.908,28.455-79.362,42.683  c-24.735,13.303-49.472,26.606-74.207,39.909c-21.076,11.336-13.369,17.505-9.043,41.841C426.93,564.597,609.3,491.641,601,466.527z  "/>
<path fill-rule="evenodd" clip-rule="evenodd" fill="#AA4125" stroke="#000000" stroke-width="2" stroke-linecap="square" stroke-miterlimit="10" d="  M238,325.527c35.005-14.2,70.01-28.4,105.016-42.601c22.844-9.267,44.907-28.572,65.747-13.253  c63.08,46.368,126.159,92.736,189.238,139.104c-60.632,30.073-121.264,60.146-181.896,90.22  c-28.59,14.181-25.978,53.472-16.854,79.28c-53.76-55.328-107.52-110.656-161.28-165.984  C219.559,393.345,200.126,337.583,238,325.527z"/>
<line fill="none" stroke="#000000" stroke-width="2" stroke-linecap="square" stroke-miterlimit="10" x1="237.25" y1="328.527" x2="410.5" y2="501.777"/>
<path fill="none" stroke="#000000" stroke-width="2" stroke-linecap="square" stroke-miterlimit="10" d="M260.5,326.277  c50.787,50.787,101.574,101.574,152.361,152.361c14.312,14.312,136.17-62.781,158.889-74.361  c-53.936-40.509-107.87-81.019-161.806-121.528C378.251,258.945,295.709,312.542,260.5,326.277z"/>
<path fill-rule="evenodd" clip-rule="evenodd" fill="#FFFFFF" stroke="#000000" stroke-width="2" stroke-linecap="square" stroke-miterlimit="10" d="  M592,414.027c-10.382,15.834-18.789,39.118-4.5,54.75c-62,32.5-124,65-186,97.5c-9.058-27.935-7.024-53.091,19.488-66.4  C477.992,471.259,534.996,442.643,592,414.027z"/>
<path fill-rule="evenodd" clip-rule="evenodd" fill="#F6EB14" stroke="#000000" stroke-width="2" stroke-linecap="square" stroke-miterlimit="10" d="  M354.25,351.027c9.85,25.205,25.002-0.049,43.194,16.722c14.934,13.767,30.754,41.122,52.806,27.528c-16-16-32-32-48-48  c5.825-1.293,10.678-6.94,16.5-8.25c-12.529-15.489-17.014,1.688-32.25-1.5c-15.899-3.327-13.87-20.684-32.25-12.75  c6.698,4.63,10.559,13.359,17.25,18C366.095,345.362,360.081,349.867,354.25,351.027z"/>
<path fill="none" stroke="#000000" stroke-width="2" stroke-linecap="square" stroke-miterlimit="10" d="M257.5,353.277  c-6.777,22.644-13.213,45.25-13.5,69"/>
<path fill="none" stroke="#000000" stroke-width="2" stroke-linecap="square" stroke-miterlimit="10" d="M298.75,390.777  c-5.808,23.233-13.887,47.841-11.25,72"/>
<path fill="none" stroke="#000000" stroke-width="2" stroke-linecap="square" stroke-miterlimit="10" d="M340,429.777  c-8.757,21.884-15.292,46.021-15,69.75"/>
<path fill="none" stroke="#000000" stroke-width="2" stroke-linecap="square" stroke-miterlimit="10" d="M376.75,471.777  c-6.609,22.014-16.038,45.683-13.5,69"/>
<line fill="none" stroke="#000000" stroke-width="2" stroke-linecap="square" stroke-miterlimit="10" x1="582.25" y1="433.527" x2="393.25" y2="525.777"/>
<line fill="none" stroke="#000000" stroke-width="2" stroke-linecap="square" stroke-miterlimit="10" x1="580.75" y1="445.527" x2="391.75" y2="537.777"/>
<line fill="none" stroke="#000000" stroke-width="2" stroke-linecap="square" stroke-miterlimit="10" x1="583" y1="456.777" x2="394" y2="549.027"/>
</svg>