<svg xmlns="http://www.w3.org/2000/svg" xmlns:xlink="http://www.w3.org/1999/xlink" version="1.1" id="Layer_1" x="0px" y="0px" enable-background="new 0 0 822.05 841.89" xml:space="preserve" viewBox="215.23 253.01 389.62 337.38">
<path fill-rule="evenodd" clip-rule="evenodd" fill="#FFFFFF" stroke="#000000" stroke-width="1.5" stroke-linecap="square" stroke-miterlimit="10" d="  M273.004,325.89c-38.124-19.331-57.72,96.06-57,114.75c0.747,19.396,8.177,34.168,27.861,39  c25.916,6.361,71.623,28.814,98.889,17.25c22.635-9.601,23.215-36.966,28.35-58.122c5.998-24.709,19.562-53.315,5.4-77.628  c-17.012-29.205-22.469-6.105-45.75,2.625C302.121,374.502,282.423,350.004,273.004,325.89z"/>
<path fill-rule="evenodd" clip-rule="evenodd" fill="#90D8F8" stroke="#000000" stroke-width="1.5" stroke-linecap="square" stroke-miterlimit="10" d="  M274.504,328.14c-39.232,1.488-53.25,82.323-53.25,110.25c0,47.462,59.867,45.355,94.898,54.278  c35.577,9.062,40.737-19.032,47.011-46.22c6.866-29.755,28.08-80.453-8.41-100.309c21.279-18.46,21.165-100.019-10.5-80.25  c47.337,2.942,25.167,94.881-27.375,87.375c-51.764-7.395-58.749-100.063-4.875-94.875c0.25-1.5,0.5-3,0.75-4.5  C275.738,250.926,261.449,299.332,274.504,328.14z"/>
<text transform="matrix(0.9724 0.2334 -0.2334 0.9724 262.481 393.3569)"><tspan x="0" y="0" font-family="'ArialMT'" font-size="33" letter-spacing="-18">B</tspan><tspan x="3.762" y="0" font-family="'ArialMT'" font-size="33">a</tspan></text>
<text transform="matrix(0.9724 0.2334 -0.2334 0.9724 295.4883 402.3535)" font-family="'ArialMT'" font-size="33">b</text>
<text transform="matrix(0.9724 0.2334 -0.2334 0.9724 313.459 406.1133)" font-family="'ArialMT'" font-size="33">y</text>
<path fill-rule="evenodd" clip-rule="evenodd" fill="#FBF4A2" stroke="#000000" stroke-width="1.5" stroke-linecap="square" stroke-miterlimit="10" d="  M312.754,452.64c-10.526,28.451-54.438,12.973-44.25-15.75C278.715,408.104,322.292,423.234,312.754,452.64z"/>
<path fill-rule="evenodd" clip-rule="evenodd" d="M285.004,435.39c-2.162-1.011-4.601,4.037-4.5-2.25  C284.946,430.743,283.323,434.604,285.004,435.39z"/>
<path fill-rule="evenodd" clip-rule="evenodd" d="M305.254,439.14c-1.677-0.496-3.79,4.155-4.5-1.5  C304.685,433.761,303.432,438.601,305.254,439.14z"/>
<path fill="none" stroke="#000000" stroke-width="1.5" stroke-linecap="square" stroke-miterlimit="10" d="M290.254,441.39  c4.692-0.176,5.154,1.721,2.25,5.25"/>
<path fill="none" stroke="#000000" stroke-width="1.5" stroke-linecap="square" stroke-miterlimit="10" d="M287.254,445.14  c-2.045,2.346-4.999,3.744-7.5,3"/>
<path fill="none" stroke="#000000" stroke-width="1.5" stroke-linecap="square" stroke-miterlimit="10" d="M300.754,451.14  c-6.101,3.211-12.255,2.103-17.25-3"/>
<path fill="none" stroke="#000000" stroke-width="1.5" stroke-linecap="square" stroke-miterlimit="10" d="M288.004,412.89  c11.044-7.505-8.282-8.328,1.5,7.5"/>
<path fill="none" stroke="#000000" stroke-width="1.5" stroke-linecap="square" stroke-miterlimit="10" d="M265.504,442.89  c-0.62,4.359-6.63,5.58,2.25,9.75C267.004,449.39,266.254,446.14,265.504,442.89z"/>
<path fill="none" stroke="#000000" stroke-width="1.5" stroke-linecap="square" stroke-miterlimit="10" d="M314.254,445.89  c1.127,3.72,6.916,3.837-0.75,9.75C313.754,452.39,314.004,449.14,314.254,445.89z"/>
<path fill-rule="evenodd" clip-rule="evenodd" fill="#FFFFFF" stroke="#000000" stroke-width="1.5" stroke-linecap="square" stroke-miterlimit="10" d="  M360.004,343.89c-39.374-28.053-58.365,88.091-62.056,102.194c-15.683,59.932,1.738,77.865,59.021,91.752  c43.779,10.612,98.728,35.707,113.267-22.92c12.604-50.821,44.438-112.111-5.231-151.526  C424.894,409.315,382.334,393.472,360.004,343.89z"/>
<path fill-rule="evenodd" clip-rule="evenodd" fill="#F8C0D9" stroke="#000000" stroke-width="1.5" stroke-linecap="square" stroke-miterlimit="10" d="  M362.254,346.89c-50.858-2.939-55.594,94.606-63.129,124.975c-12.902,52,40.949,55.855,77.845,65.079  c38.101,9.525,76.213,22.53,87.17-25.075c8.53-37.061,45.055-119.109-5.886-143.979c30.447-22.151,24.003-119.708-12-97.5  c58.98,3.296,28.576,115.149-36,106.5c-34.155-4.575-57.417-40.917-48-73.875c8.457-29.598,25.894-34.022,45.75-46.125  C361.931,248.748,347.424,314.302,362.254,346.89z"/>
<text transform="matrix(0.9724 0.2334 -0.2334 0.9724 346.542 424.1313)"><tspan x="0" y="0" font-family="'ArialMT'" font-size="39" letter-spacing="-22">B</tspan><tspan x="3.782" y="0" font-family="'ArialMT'" font-size="39">a</tspan></text>
<text transform="matrix(0.9724 0.2334 -0.2334 0.9724 387.0142 433.1597)" font-family="'ArialMT'" font-size="39">b</text>
<text transform="matrix(0.9724 0.2334 -0.2334 0.9724 408.0332 436.8687)" font-family="'ArialMT'" font-size="39">y</text>
<path fill-rule="evenodd" clip-rule="evenodd" fill="#FBF4A2" stroke="#000000" stroke-width="1.5" stroke-linecap="square" stroke-miterlimit="10" d="  M408.754,496.89c-14.343,33.723-66.549,16.293-54.75-18.75C366.079,442.28,417.528,461.708,408.754,496.89z"/>
<path fill-rule="evenodd" clip-rule="evenodd" d="M374.254,475.89C368.761,473.688,368.734,473.677,374.254,475.89L374.254,475.89z"/>
<path fill-rule="evenodd" clip-rule="evenodd" d="M399.004,481.14C393.607,479.049,393.017,478.821,399.004,481.14L399.004,481.14z"/>
<path fill="none" stroke="#000000" stroke-width="1.5" stroke-linecap="square" stroke-miterlimit="10" d="M381.004,483.39  c5.254,0.336,6.038,2.323,2.25,6"/>
<path fill="none" stroke="#000000" stroke-width="1.5" stroke-linecap="square" stroke-miterlimit="10" d="M376.504,487.89  c-2.36,3.448-5.413,5.239-8.25,3"/>
<path fill="none" stroke="#000000" stroke-width="1.5" stroke-linecap="square" stroke-miterlimit="10" d="M393.754,494.64  c-6.975,4.312-14.524,3.344-21-2.25"/>
<path fill="none" stroke="#000000" stroke-width="1.5" stroke-linecap="square" stroke-miterlimit="10" d="M378.004,448.89  c24.708-3.99-20.492-12.016,1.5,9"/>
<path fill="none" stroke="#000000" stroke-width="1.5" stroke-linecap="square" stroke-miterlimit="10" d="M350.254,485.64  c-0.386,4.758-6.499,6.301,3,11.25C352.254,493.14,351.254,489.39,350.254,485.64z"/>
<path fill="none" stroke="#000000" stroke-width="1.5" stroke-linecap="square" stroke-miterlimit="10" d="M410.254,488.64  c1.133,4.78,7.659,5.524-1.5,12C409.254,496.64,409.754,492.64,410.254,488.64z"/>
<path fill-rule="evenodd" clip-rule="evenodd" fill="#FFFFFF" stroke="#000000" stroke-width="1.5" stroke-linecap="square" stroke-miterlimit="10" d="  M465.754,369.39c-38.875-37.259-75.282,136.002-72,156c5.115,31.169,26.473,36.622,54.223,43.361  c29.008,7.045,85.932,34.167,115.277,12.889c28.462-20.638,30.297-83.48,37.666-113.649c6.717-27.496,3.368-47.74-15.541-69.351  c-13.724-15.684-41.675,23.134-66.375,21.75C490.949,418.818,475.144,392.533,465.754,369.39z"/>
<path fill-rule="evenodd" clip-rule="evenodd" fill="#ECB326" stroke="#000000" stroke-width="1.5" stroke-linecap="square" stroke-miterlimit="10" d="  M467.254,371.64c-50.343-0.866-55.147,87.84-62.896,118.832c-14.522,58.087,17.494,65.753,67.771,78.043  c40.844,9.984,89.622,31.403,102.163-22.4c9.793-42.014,46.918-121.829-5.038-151.975c19.398-16.142,27.618-41.272,23.25-66  c-2.739-15.507-18.34-49.744-36.75-36c60.457,2.201,31.703,118.772-34.875,111.375c-68.554-7.617-70.894-129.951-6.375-120.375  c0.5-2,1-4,1.5-6C466.896,272.921,453.375,334.617,467.254,371.64z"/>
<text transform="matrix(0.9724 0.2334 -0.2334 0.9724 450.7881 454.8589)"><tspan x="0" y="0" font-family="'ArialMT'" font-size="42" letter-spacing="-24">B</tspan><tspan x="3.779" y="0" font-family="'ArialMT'" font-size="42">a</tspan></text>
<text transform="matrix(0.9724 0.2334 -0.2334 0.9724 494.2549 463.1597)" font-family="'ArialMT'" font-size="42">b</text>
<text transform="matrix(0.9724 0.2334 -0.2334 0.9724 517.541 469.8726)" font-family="'ArialMT'" font-size="42">y</text>
<path fill-rule="evenodd" clip-rule="evenodd" fill="#FBF4A2" stroke="#000000" stroke-width="1.5" stroke-linecap="square" stroke-miterlimit="10" d="  M516.004,529.89c-13.24,36.133-69.368,16.079-56.25-20.25C472.97,473.042,528.771,493.163,516.004,529.89z"/>
<path fill-rule="evenodd" clip-rule="evenodd" d="M480.754,507.39C474.058,505.634,474.298,505.697,480.754,507.39L480.754,507.39z"/>
<path fill-rule="evenodd" clip-rule="evenodd" d="M506.254,513.39c-1.197-0.665-3.595,3.275-6-1.5  C505.657,505.797,503.948,512.109,506.254,513.39z"/>
<path fill="none" stroke="#000000" stroke-width="1.5" stroke-linecap="square" stroke-miterlimit="10" d="M487.504,515.64  c6.343-0.376,6.746,1.774,2.25,6"/>
<path fill="none" stroke="#000000" stroke-width="1.5" stroke-linecap="square" stroke-miterlimit="10" d="M483.004,520.14  c-2.408,2.949-5.839,4.592-9,3.75"/>
<path fill="none" stroke="#000000" stroke-width="1.5" stroke-linecap="square" stroke-miterlimit="10" d="M501.004,527.64  c-7.751,4.213-15.587,3.029-22.5-3"/>
<path fill="none" stroke="#000000" stroke-width="1.5" stroke-linecap="square" stroke-miterlimit="10" d="M484.504,478.89  c26.449-0.46-22.876-13.525,1.5,9.75"/>
<path fill="none" stroke="#000000" stroke-width="1.5" stroke-linecap="square" stroke-miterlimit="10" d="M455.254,517.89  c-0.395,5.104-6.521,7.022,3.75,12C457.754,525.89,456.504,521.89,455.254,517.89z"/>
<path fill="none" stroke="#000000" stroke-width="1.5" stroke-linecap="square" stroke-miterlimit="10" d="M518.254,520.89  c1.062,4.87,7.678,5.894-1.5,12.75C517.254,529.39,517.754,525.14,518.254,520.89z"/>
</svg>