<svg xmlns="http://www.w3.org/2000/svg" xmlns:xlink="http://www.w3.org/1999/xlink" version="1.1" id="Layer_1" x="0px" y="0px" enable-background="new 0 0 822.05 841.89" xml:space="preserve" viewBox="315.55 338.16 189.45 165.84">
<path fill-rule="evenodd" clip-rule="evenodd" fill="#895437" stroke="#000000" stroke-width="1.25" stroke-linecap="square" stroke-miterlimit="10" d="  M320.625,445.314c25.804,0,103.142-11.691,112.5,8.25c4.32,9.207-7.601,29.558-18,24c0.511,39.884-89.361,28.911-80.25-4.5  C321.134,470.005,309.479,457.626,320.625,445.314z"/>
<path fill-rule="evenodd" clip-rule="evenodd" fill="#552C17" stroke="#000000" stroke-width="1.25" stroke-linecap="square" stroke-miterlimit="10" d="  M377.625,444.564C363.71,449.456,363.017,440.201,377.625,444.564L377.625,444.564z"/>
<path fill-rule="evenodd" clip-rule="evenodd" fill="#568F20" stroke="#000000" stroke-width="1.25" stroke-linecap="square" stroke-miterlimit="10" d="  M376.125,460.314c1.042-21.605-9.247-44.477-29.25-54.002C380.574,404.657,383.378,435.009,376.125,460.314z"/>
<path fill-rule="evenodd" clip-rule="evenodd" fill="#895437" stroke="#000000" stroke-width="1.25" stroke-linecap="square" stroke-miterlimit="10" d="  M332.625,446.064C323.126,445.798,323.178,445.799,332.625,446.064L332.625,446.064z"/>
<path fill-rule="evenodd" clip-rule="evenodd" fill="#895437" stroke="#000000" stroke-width="1.25" stroke-linecap="square" stroke-miterlimit="10" d="  M339.375,445.314c-1.926-0.199-2.511,4.893-6,0C337.05,439.354,337.178,445.087,339.375,445.314z"/>
<path fill-rule="evenodd" clip-rule="evenodd" fill="#552C17" stroke="#000000" stroke-width="1.25" stroke-linecap="square" stroke-miterlimit="10" d="  M346.125,445.314C337.908,445.744,337.73,445.753,346.125,445.314L346.125,445.314z"/>
<path fill-rule="evenodd" clip-rule="evenodd" fill="#753F25" stroke="#000000" stroke-width="1.25" stroke-linecap="square" stroke-miterlimit="10" d="  M352.875,447.564C345.39,446.856,345.114,446.831,352.875,447.564L352.875,447.564z"/>
<path fill-rule="evenodd" clip-rule="evenodd" fill="#753F25" stroke="#000000" stroke-width="1.25" stroke-linecap="square" stroke-miterlimit="10" d="  M367.875,446.814C357.096,446.814,357.096,446.814,367.875,446.814L367.875,446.814z"/>
<path fill-rule="evenodd" clip-rule="evenodd" fill="#895437" stroke="#000000" stroke-width="1.25" stroke-linecap="square" stroke-miterlimit="10" d="  M362.625,446.064C352.345,447.243,352.955,444.268,362.625,446.064L362.625,446.064z"/>
<path fill-rule="evenodd" clip-rule="evenodd" fill="#552C17" stroke="#000000" stroke-width="1.25" stroke-linecap="square" stroke-miterlimit="10" d="  M394.125,448.314C384.717,447.754,385.044,447.773,394.125,448.314L394.125,448.314z"/>
<path fill-rule="evenodd" clip-rule="evenodd" fill="#895437" stroke="#000000" stroke-width="1.25" stroke-linecap="square" stroke-miterlimit="10" d="  M405.375,445.314C394.403,445.722,393.433,445.758,405.375,445.314L405.375,445.314z"/>
<path fill-rule="evenodd" clip-rule="evenodd" fill="#895437" stroke="#000000" stroke-width="1.25" stroke-linecap="square" stroke-miterlimit="10" d="  M412.875,443.064C407.011,443.329,407.698,443.297,412.875,443.064L412.875,443.064z"/>
<path fill-rule="evenodd" clip-rule="evenodd" fill="#753F25" stroke="#000000" stroke-width="1.25" stroke-linecap="square" stroke-miterlimit="10" d="  M395.625,444.564C387.607,444.883,388.622,444.843,395.625,444.564L395.625,444.564z"/>
<path fill-rule="evenodd" clip-rule="evenodd" fill="#895437" stroke="#000000" stroke-width="1.25" stroke-linecap="square" stroke-miterlimit="10" d="  M433.125,444.564c-4.698,0.733-6.688,6.322-12,0C426.327,439.506,428.537,444.141,433.125,444.564z"/>
<path fill-rule="evenodd" clip-rule="evenodd" fill="#895437" stroke="#000000" stroke-width="1.25" stroke-linecap="square" stroke-miterlimit="10" d="  M421.125,443.814C409.443,445.483,408.49,443.201,421.125,443.814L421.125,443.814z"/>
<path fill-rule="evenodd" clip-rule="evenodd" fill="#552C17" stroke="#000000" stroke-width="1.25" stroke-linecap="square" stroke-miterlimit="10" d="  M412.875,444.564C405.363,445.112,405.537,445.099,412.875,444.564L412.875,444.564z"/>
<path fill-rule="evenodd" clip-rule="evenodd" fill="#753F25" stroke="#000000" stroke-width="1.25" stroke-linecap="square" stroke-miterlimit="10" d="  M332.625,444.564C317.349,448.701,316.117,441.18,332.625,444.564L332.625,444.564z"/>
<path fill-rule="evenodd" clip-rule="evenodd" fill="#753F25" stroke="#000000" stroke-width="1.25" stroke-linecap="square" stroke-miterlimit="10" d="  M424.125,446.064C415.67,446.064,415.67,446.064,424.125,446.064L424.125,446.064z"/>
<path fill-rule="evenodd" clip-rule="evenodd" fill="#895437" stroke="#000000" stroke-width="1.25" stroke-linecap="square" stroke-miterlimit="10" d="  M388.875,446.064C380.026,445.458,378.941,444.167,388.875,446.064L388.875,446.064z"/>
<path fill-rule="evenodd" clip-rule="evenodd" fill="#568F20" stroke="#000000" stroke-width="1.25" stroke-linecap="square" stroke-miterlimit="10" d="  M380.625,416.062c-0.017-16.829,16.07-25.093,31.5-23.25C404.633,405.868,391.936,423.698,380.625,416.062z"/>
<path fill-rule="evenodd" clip-rule="evenodd" fill="#568F20" stroke="#000000" stroke-width="1.25" stroke-linecap="square" stroke-miterlimit="10" d="  M375.375,453.564c1.371,1.902-4.079,5.301,3,3.75c8.21-25.432,4.384-53.709-0.75-79.502  C369.696,399.047,382.805,428.978,375.375,453.564z"/>
<path fill-rule="evenodd" clip-rule="evenodd" fill="#FB0F0C" stroke="#000000" stroke-width="1.25" stroke-linecap="square" stroke-miterlimit="10" d="  M376.875,357.562c1.324-15.525,23.328-21.57,21.75-8.25C397.105,362.137,381.874,364.616,376.875,357.562z"/>
<path fill-rule="evenodd" clip-rule="evenodd" fill="#FB0F0C" stroke="#000000" stroke-width="1.25" stroke-linecap="square" stroke-miterlimit="10" d="  M374.625,360.562c-9.034-3.383-20.817-16.15-5.25-21C386.575,334.203,379.087,358.123,374.625,360.562z"/>
<path fill-rule="evenodd" clip-rule="evenodd" fill="#FB0F0C" stroke="#000000" stroke-width="1.25" stroke-linecap="square" stroke-miterlimit="10" d="  M376.875,364.312c-6.659,10.739-29.834,13.811-23.25-3C358.652,348.478,376.364,357.325,376.875,364.312z"/>
<path fill-rule="evenodd" clip-rule="evenodd" fill="#FB0F0C" stroke="#000000" stroke-width="1.25" stroke-linecap="square" stroke-miterlimit="10" d="  M380.625,362.812c10.574,11.874,9.153,21.75-7.125,21.75C357.235,384.562,375.212,362.364,380.625,362.812z"/>
<path fill-rule="evenodd" clip-rule="evenodd" fill="#FB0F0C" stroke="#000000" stroke-width="1.25" stroke-linecap="square" stroke-miterlimit="10" d="  M380.625,360.562c12.067-4.82,30.613,8.52,16.5,14.25C386.542,379.109,378.17,368.293,380.625,360.562z"/>
<path fill-rule="evenodd" clip-rule="evenodd" fill="#F7F619" stroke="#000000" stroke-width="1.25" stroke-linecap="square" stroke-miterlimit="10" d="  M383.625,360.562C370.726,366.947,368.215,356.004,383.625,360.562L383.625,360.562z"/>
<path fill-rule="evenodd" clip-rule="evenodd" fill="#D6D5D5" stroke="#000000" stroke-width="1.25" stroke-linecap="square" stroke-miterlimit="10" d="  M421.875,469.314C419.875,470.314,419.875,470.314,421.875,469.314L421.875,469.314z"/>
<path fill-rule="evenodd" clip-rule="evenodd" fill="#D6D5D5" stroke="#000000" stroke-width="1.25" stroke-linecap="square" stroke-miterlimit="10" d="  M411.375,481.314C413.375,481.314,413.375,481.314,411.375,481.314L411.375,481.314z"/>
<path fill-rule="evenodd" clip-rule="evenodd" fill="#D6D5D5" stroke="#000000" stroke-width="1.25" stroke-linecap="square" stroke-miterlimit="10" d="  M408.375,467.814c-7.506-5.234-15.649-8.706-24.75-10.5c10.039,1.786,23.985,2.048,35.25,3c-4.297-2.031-3.839-2.217-9.75-2.25  c7.18-0.165,7.193-1.493,15,0.75c-9.963-11.191-78.898-7.287-96.75-3.75c7.999-1.105,16.094,1.079,24,1.5  c-9,4.181-2.307,5.395-14.25,3.75c13.957,3.76,4.968,3.941,17.25-2.25c-1.236,1.95-0.211,5.316-4.5,7.5  c6.91-4.112,10.511-4.736,18-7.5c-10.952,3.8-18.199,11.667-29.25,15.75c4.209,1.5,7.159-0.917,10.5-2.25  c-1.194-0.154-0.822,6.81,0,7.5c1.346-3.685,4.401-8.898,5.25-11.25c-2.511,6.137-4.107,10.815-7.5,16.5  c3.41,0.84,4.542-2.725,6-4.5c0.081,0.561,1.878,5.973,3,6c-3.631-13.354,2.402-23.55,15-26.25c-1.615,14.296-16.188,24.661-12,37.5  c1.163-6.908,2.546-7.375,5.25-12.75c-3.035,4.33-2.304,4.786-2.25,9c0.978-3.872,2.489-7.308,3.75-11.25  c1.408,7.343,3.373,10.574,3,18c2.063-1.626,1.983-5.274,2.25-7.5c0.776,0.698,4.473,1.523,5.25,0.75  c-12.149-7.209-8.174-24.278-0.75-34.5c1.609,14.048,8.409,27.083,8.25,41.25c2.333-4.227,1.115-8.348,0.75-12.75  c0.745,0.598,4.75,3.454,6,2.25c-9.834-7.511-12.506-19.18-11.25-30.75c5.197,8.82,8.788,19.455,12.75,30.75  c0.432-4.51,0.053-3.716-1.5-8.25c3.752,5.736,3.854,3.525,4.5,11.25c3.496-9.528-7.132-26.329-14.25-33.75  c13.727,2,23.675,11.86,21,25.5c0.66-0.088,2.264-5.468,2.25-6c2.854,2.013,3.774,4.354,7.5,3c-5.134-4.657-7.018-9.475-11.25-15.75  c1.926,2.972,5.822,7.019,8.25,11.25c1.528-2.172-1.368-5.792-1.5-7.5c5.688,1.196,7.407,2.092,13.5,0.75  C415.182,471.157,413.182,468.866,408.375,467.814z M371.625,459.564C371.625,458.564,371.625,458.564,371.625,459.564  L371.625,459.564z"/>
<path fill-rule="evenodd" clip-rule="evenodd" fill="#D6D5D5" stroke="#000000" stroke-width="1.25" stroke-linecap="square" stroke-miterlimit="10" d="  M382.875,501.564L382.875,501.564z"/>
<path fill-rule="evenodd" clip-rule="evenodd" fill="#D6D5D5" stroke="#000000" stroke-width="1.25" stroke-linecap="square" stroke-miterlimit="10" d="  M383.625,500.064C382.625,502.064,382.625,502.064,383.625,500.064L383.625,500.064z"/>
<path fill-rule="evenodd" clip-rule="evenodd" fill="#D6D5D5" stroke="#000000" stroke-width="1.25" stroke-linecap="square" stroke-miterlimit="10" d="  M327.375,455.064L327.375,455.064z"/>
<path fill-rule="evenodd" clip-rule="evenodd" fill="#D6D5D5" stroke="#000000" stroke-width="1.25" stroke-linecap="square" stroke-miterlimit="10" d="  M338.625,473.814C336.625,472.814,336.625,472.814,338.625,473.814L338.625,473.814z"/>
<path fill-rule="evenodd" clip-rule="evenodd" fill="#D6D5D5" stroke="#000000" stroke-width="1.25" stroke-linecap="square" stroke-miterlimit="10" d="  M346.875,484.314C345.875,483.314,345.875,483.314,346.875,484.314L346.875,484.314z"/>
<path fill-rule="evenodd" clip-rule="evenodd" fill="#D6D5D5" stroke="#000000" stroke-width="1.25" stroke-linecap="square" stroke-miterlimit="10" d="  M367.875,500.814C368.875,499.814,368.875,499.814,367.875,500.814L367.875,500.814z"/>
<path fill-rule="evenodd" clip-rule="evenodd" fill="#D6D5D5" stroke="#000000" stroke-width="1.25" stroke-linecap="square" stroke-miterlimit="10" d="  M367.875,500.814C366.875,500.814,366.875,500.814,367.875,500.814L367.875,500.814z"/>
<path fill="none" stroke="#000000" stroke-width="1.25" stroke-linecap="square" stroke-miterlimit="10" d="M383.625,416.812  c5.332-11.214,14.606-20.539,27-22.5"/>
<path fill="none" stroke="#000000" stroke-width="1.25" stroke-linecap="square" stroke-miterlimit="10" d="M358.875,413.812  c11.695,6.422,19.918,17.855,18.75,31.502"/>
<path fill-rule="evenodd" clip-rule="evenodd" fill="#F0F2F2" d="M491.625,370.312c-27.107-36.682-88.196,2.87-60,41.25  C458.696,448.411,517.695,409.665,491.625,370.312z"/>
<path fill-rule="evenodd" clip-rule="evenodd" fill="#D3E3E4" d="M475.875,374.062C462.845,404.097,509.883,366.681,475.875,374.062  L475.875,374.062z"/>
<path fill-rule="evenodd" clip-rule="evenodd" fill="#D3E3E4" d="M479.625,413.062C459.107,412.875,480.534,394.16,479.625,413.062  L479.625,413.062z"/>
<path fill-rule="evenodd" clip-rule="evenodd" fill="#F81D0D" stroke="#000000" stroke-linecap="square" stroke-miterlimit="10" d="  M472.125,440.814c21.225-10.331,38.941,56.333,30,61.5C484.208,512.667,475.008,451.674,472.125,440.814z"/>
<path fill-rule="evenodd" clip-rule="evenodd" fill="#BFBFBF" stroke="#000000" stroke-linecap="square" stroke-miterlimit="10" d="  M484.875,437.814C469.862,405.68,463.554,452.087,484.875,437.814L484.875,437.814z"/>
<path fill-rule="evenodd" clip-rule="evenodd" fill="#BFBFBF" stroke="#000000" stroke-linecap="square" stroke-miterlimit="10" d="  M495.375,368.812c-29.91-40.673-96.722,2.078-66.75,44.25C457.8,454.113,523.268,412.154,495.375,368.812z M431.625,411.562  c-25.744-39.766,32.822-78.198,60-41.25C519.697,408.475,458.696,448.195,431.625,411.562z"/>
</svg>