<svg xmlns="http://www.w3.org/2000/svg" xmlns:xlink="http://www.w3.org/1999/xlink" version="1.1" id="Layer_1" x="0px" y="0px" enable-background="new 0 0 822.05 841.89" xml:space="preserve" viewBox="199.88 316.55 423.78 211.25">
<path fill-rule="evenodd" clip-rule="evenodd" fill="#685E53" stroke="#000000" stroke-width="2" stroke-linecap="square" stroke-miterlimit="10" d="  M208.08,388.052c23.086,2.874,71.193-28.978,41.25-49.5C235.58,355.052,221.83,371.552,208.08,388.052z"/>
<path fill-rule="evenodd" clip-rule="evenodd" fill="#E7B989" stroke="#000000" stroke-width="2" stroke-linecap="square" stroke-miterlimit="10" d="  M253.08,344.552c-25.585,31.202-31.715,33.052-23.298,71.845c6.918,31.884,8.967,62.265,52.437,45.545  c44.091-16.958,39.021-28.263,48.424-74.73C332.234,379.348,263.367,349.894,253.08,344.552z"/>
<path fill-rule="evenodd" clip-rule="evenodd" fill="#9A744C" stroke="#000000" stroke-width="2" stroke-linecap="square" stroke-miterlimit="10" d="  M250.83,317.552c-12.588,13.987-66.334,55.399-45,70.5c14.5-16.5,29-33,43.5-49.5c15.309,16.524,30.618,33.048,45.927,49.572  c5.136,5.543,48.163-2.538,51.198-9.822c4.93-11.833-32.013-42.154-40.461-51.54C294.749,314.268,266.943,318.755,250.83,317.552z"/>
<line fill="none" stroke="#000000" stroke-width="2" stroke-linecap="square" stroke-miterlimit="10" x1="279.33" y1="463.054" x2="296.58" y2="389.552"/>
<path fill-rule="evenodd" clip-rule="evenodd" fill="#57524C" stroke="#000000" stroke-width="2" stroke-linecap="square" stroke-miterlimit="10" d="  M273.33,385.802c-1.681,19.221-28.5,22.9-28.5,1.875C244.83,365.923,269.981,364.25,273.33,385.802z"/>
<path fill-rule="evenodd" clip-rule="evenodd" fill="#9A744C" stroke="#000000" stroke-width="2" stroke-linecap="square" stroke-miterlimit="10" d="  M239.58,461.554c-7.615,4.771-10.698,10.071-8.25,20.25c18.417,0.682,99.979-0.929,87-33.75  C288.065,459.205,271.712,463.562,239.58,461.554z"/>
<path fill="none" stroke="#000000" stroke-width="2" stroke-linecap="square" stroke-miterlimit="10" d="M232.83,466.804  c14.871,0.893,33.377,6.937,45-3.75"/>
<line fill="none" stroke="#000000" stroke-width="2" stroke-linecap="square" stroke-miterlimit="10" x1="271.83" y1="483.304" x2="270.33" y2="469.054"/>
<path fill="none" stroke="#000000" stroke-width="2" stroke-linecap="square" stroke-miterlimit="10" d="M297.33,389.552  c25.159-15.25-33.228-57.855-46.5-72"/>
<path fill-rule="evenodd" clip-rule="evenodd" fill="#9A744C" stroke="#000000" stroke-width="2" stroke-linecap="square" stroke-miterlimit="10" d="  M257.58,411.302c-4.721,1.19-7.655-0.788-10.5,3C260.168,419.723,256.297,412.636,257.58,411.302z"/>
<path fill="none" stroke="#000000" stroke-width="2" stroke-linecap="square" stroke-miterlimit="10" d="M249.33,412.052  c2.22,1.602,1.937,3.201-0.75,4.5"/>
<path fill-rule="evenodd" clip-rule="evenodd" fill="#685E53" stroke="#000000" stroke-width="2" stroke-linecap="square" stroke-miterlimit="10" d="  M299.58,400.052c23.308,2.954,71.175-29.862,40.5-49.5C326.58,367.052,313.08,383.552,299.58,400.052z"/>
<path fill-rule="evenodd" clip-rule="evenodd" fill="#E7B989" stroke="#000000" stroke-width="2" stroke-linecap="square" stroke-miterlimit="10" d="  M344.58,356.552c-25.847,30.89-31.613,32.55-23.622,71.419c6.589,32.046,8.237,62.809,52.011,45.972  c44.021-16.931,39.227-28.42,49.152-74.73C423.773,391.505,354.813,361.865,344.58,356.552z"/>
<path fill-rule="evenodd" clip-rule="evenodd" fill="#9A744C" stroke="#000000" stroke-width="2" stroke-linecap="square" stroke-miterlimit="10" d="  M342.33,328.802c-12.797,14.2-67.789,56.516-45,71.25c14.25-16.5,28.5-33,42.75-49.5c15.309,16.524,30.618,33.048,45.927,49.572  c5.224,5.639,47.954-2.575,51.577-9.822c5.637-11.272-31.781-42.31-40.089-51.54C386.204,326.218,358.51,330.251,342.33,328.802z"/>
<line fill="none" stroke="#000000" stroke-width="2" stroke-linecap="square" stroke-miterlimit="10" x1="370.08" y1="475.054" x2="387.33" y2="401.552"/>
<path fill-rule="evenodd" clip-rule="evenodd" fill="#57524C" stroke="#000000" stroke-width="2" stroke-linecap="square" stroke-miterlimit="10" d="  M364.08,397.802c-0.234,20.546-24.2,21.502-28.125,1.875C331.896,379.379,362.019,375.36,364.08,397.802z"/>
<path fill-rule="evenodd" clip-rule="evenodd" fill="#9A744C" stroke="#000000" stroke-width="2" stroke-linecap="square" stroke-miterlimit="10" d="  M330.33,473.554c-30.828,19.347,16.483,21.155,29.306,21.639c15.542,0.587,57.557-17.764,49.444-35.139  C378.815,471.205,362.462,475.562,330.33,473.554z"/>
<path fill="none" stroke="#000000" stroke-width="2" stroke-linecap="square" stroke-miterlimit="10" d="M323.58,478.054  c14.663,1.15,33.872,7.944,45-3"/>
<line fill="none" stroke="#000000" stroke-width="2" stroke-linecap="square" stroke-miterlimit="10" x1="362.58" y1="495.304" x2="361.83" y2="481.054"/>
<path fill="none" stroke="#000000" stroke-width="2" stroke-linecap="square" stroke-miterlimit="10" d="M388.08,400.802  c26.416-13.775-32.684-57.902-45.75-72"/>
<path fill-rule="evenodd" clip-rule="evenodd" fill="#9A744C" stroke="#000000" stroke-width="2" stroke-linecap="square" stroke-miterlimit="10" d="  M348.33,423.304c-3.646,1.105-6.358-0.549-9.75,1.5C350.649,431.558,347.241,424.771,348.33,423.304z"/>
<path fill="none" stroke="#000000" stroke-width="2" stroke-linecap="square" stroke-miterlimit="10" d="M340.83,423.304  c2.044,2.094,2.113,3.96-0.75,5.25"/>
<path fill-rule="evenodd" clip-rule="evenodd" fill="#685E53" stroke="#000000" stroke-width="2" stroke-linecap="square" stroke-miterlimit="10" d="  M390.33,412.802c23.086,2.874,71.199-28.977,41.254-49.5C417.833,379.802,404.082,396.302,390.33,412.802z"/>
<path fill-rule="evenodd" clip-rule="evenodd" fill="#E7B989" stroke="#000000" stroke-width="2" stroke-linecap="square" stroke-miterlimit="10" d="  M436.084,369.302c-26.143,31.118-32.525,32.792-24.05,71.846c6.919,31.883,8.969,62.265,52.438,45.545  c44.022-16.932,39.225-28.42,49.148-74.73C515.272,404.254,446.317,374.616,436.084,369.302z"/>
<path fill-rule="evenodd" clip-rule="evenodd" fill="#9A744C" stroke="#000000" stroke-width="2" stroke-linecap="square" stroke-miterlimit="10" d="  M433.084,342.302c-12.589,13.987-66.338,55.398-45.004,70.5c14.501-16.5,29.003-33,43.504-49.5  c15.309,16.524,30.618,33.048,45.927,49.572c5.224,5.639,47.95-2.575,51.573-9.822c5.637-11.272-31.778-42.309-40.086-51.54  C477.66,338.915,449.332,343.497,433.084,342.302z"/>
<line fill="none" stroke="#000000" stroke-width="2" stroke-linecap="square" stroke-miterlimit="10" x1="461.584" y1="487.804" x2="478.834" y2="414.302"/>
<path fill-rule="evenodd" clip-rule="evenodd" fill="#57524C" stroke="#000000" stroke-width="2" stroke-linecap="square" stroke-miterlimit="10" d="  M455.584,410.552c-0.438,19.947-28.5,22.327-28.5,1.875C427.084,391.066,454.187,388.468,455.584,410.552z"/>
<path fill-rule="evenodd" clip-rule="evenodd" fill="#9A744C" stroke="#000000" stroke-width="2" stroke-linecap="square" stroke-miterlimit="10" d="  M421.834,486.304c-7.616,4.771-10.701,10.07-8.254,20.25c17.975,0.666,102.034-1.555,87.004-33.75  C470.319,483.955,453.966,488.312,421.834,486.304z"/>
<path fill="none" stroke="#000000" stroke-width="2" stroke-linecap="square" stroke-miterlimit="10" d="M415.084,491.554  c14.703,0.865,33.879,7.176,45-3.75"/>
<line fill="none" stroke="#000000" stroke-width="2" stroke-linecap="square" stroke-miterlimit="10" x1="454.084" y1="508.054" x2="453.334" y2="493.804"/>
<path fill="none" stroke="#000000" stroke-width="2" stroke-linecap="square" stroke-miterlimit="10" d="M479.584,414.302  c25.159-15.25-33.229-57.855-46.5-72"/>
<path fill-rule="evenodd" clip-rule="evenodd" fill="#9A744C" stroke="#000000" stroke-width="2" stroke-linecap="square" stroke-miterlimit="10" d="  M439.834,436.054c-4.39,1.492-7.355-0.505-10.5,3C442.95,444.286,438.5,437.834,439.834,436.054z"/>
<path fill="none" stroke="#000000" stroke-width="2" stroke-linecap="square" stroke-miterlimit="10" d="M431.584,436.804  c2.672,1.621,2.315,3.172-0.75,4.5"/>
<path fill-rule="evenodd" clip-rule="evenodd" fill="#685E53" stroke="#000000" stroke-width="2" stroke-linecap="square" stroke-miterlimit="10" d="  M483.334,431.554c23.087,2.874,71.192-28.98,41.25-49.502C510.834,398.553,497.084,415.054,483.334,431.554z"/>
<path fill-rule="evenodd" clip-rule="evenodd" fill="#E7B989" stroke="#000000" stroke-width="2" stroke-linecap="square" stroke-miterlimit="10" d="  M529.084,388.052c-26.139,31.119-32.521,32.795-24.048,71.847c6.918,31.883,8.967,62.264,52.437,45.544  c44.021-16.931,39.225-28.418,49.148-74.729C608.273,423.005,539.317,393.366,529.084,388.052z"/>
<path fill-rule="evenodd" clip-rule="evenodd" fill="#9A744C" stroke="#000000" stroke-width="2" stroke-linecap="square" stroke-miterlimit="10" d="  M526.084,361.052c-12.589,13.988-66.335,55.398-45,70.502c14.5-16.5,29-33.001,43.5-49.502  c15.309,16.524,30.618,33.049,45.927,49.574c5.225,5.639,47.95-2.576,51.573-9.823c5.637-11.275-31.777-42.309-40.086-51.541  C570.66,357.665,542.332,362.247,526.084,361.052z"/>
<line fill="none" stroke="#000000" stroke-width="2" stroke-linecap="square" stroke-miterlimit="10" x1="554.584" y1="506.554" x2="571.834" y2="433.054"/>
<path fill-rule="evenodd" clip-rule="evenodd" fill="#57524C" stroke="#000000" stroke-width="2" stroke-linecap="square" stroke-miterlimit="10" d="  M548.584,429.304c-0.655,19.703-28.5,22.471-28.5,1.875C520.084,409.711,546.933,407.398,548.584,429.304z"/>
<path fill-rule="evenodd" clip-rule="evenodd" fill="#9A744C" stroke="#000000" stroke-width="2" stroke-linecap="square" stroke-miterlimit="10" d="  M514.834,505.054c-7.615,4.771-10.698,10.071-8.25,20.25c17.975,0.666,102.03-1.557,87-33.75  C563.319,502.705,546.966,507.062,514.834,505.054z"/>
<path fill="none" stroke="#000000" stroke-width="2" stroke-linecap="square" stroke-miterlimit="10" d="M508.084,510.304  c14.703,0.865,33.879,7.176,45-3.75"/>
<line fill="none" stroke="#000000" stroke-width="2" stroke-linecap="square" stroke-miterlimit="10" x1="547.084" y1="526.804" x2="546.334" y2="512.554"/>
<path fill="none" stroke="#000000" stroke-width="2" stroke-linecap="square" stroke-miterlimit="10" d="M572.584,433.054  c25.159-15.25-33.229-57.856-46.5-72.002"/>
<path fill-rule="evenodd" clip-rule="evenodd" fill="#9A744C" stroke="#000000" stroke-width="2" stroke-linecap="square" stroke-miterlimit="10" d="  M532.834,454.804c-4.722,1.19-7.655-0.787-10.5,3C535.969,463.043,531.661,456.113,532.834,454.804z"/>
<path fill="none" stroke="#000000" stroke-width="2" stroke-linecap="square" stroke-miterlimit="10" d="M524.584,455.554  c2.672,1.621,2.315,3.172-0.75,4.5"/>
</svg>