<svg xmlns="http://www.w3.org/2000/svg" xmlns:xlink="http://www.w3.org/1999/xlink" version="1.1" id="Layer_1" x="0px" y="0px" enable-background="new 0 0 822.05 841.89" xml:space="preserve" viewBox="262.21 253.3 300.82 339.88">
<path fill-rule="evenodd" clip-rule="evenodd" fill="#685E53" stroke="#000000" stroke-width="2" stroke-linecap="square" stroke-miterlimit="10" d="  M280.344,396.802c31.214-0.892,47.336,5.098,66.5-19.389c12-15.333,24-30.667,36-46c8.135-10.396-12.573-24.792-20-33.611  C335.344,330.802,307.844,363.802,280.344,396.802z"/>
<path fill-rule="evenodd" clip-rule="evenodd" fill="#E7B989" stroke="#000000" stroke-width="2" stroke-linecap="square" stroke-miterlimit="10" d="  M371.844,309.052c-19.837,23.852-39.673,47.703-59.51,71.554c-11.055,13.292,9.556,63.872,12.986,79.567  c1.857,8.495,13.648,85.688,20.625,85.951c28.919,1.091,62.668,8.582,90.07-1.758c18.826-7.104,64.605-13.375,69.022-34.701  c7.802-37.673,15.604-75.345,23.405-113.017C531.748,380.693,392.617,320.033,371.844,309.052z"/>
<path fill-rule="evenodd" clip-rule="evenodd" fill="#9A744C" stroke="#000000" stroke-width="2" stroke-linecap="square" stroke-miterlimit="10" d="  M366.594,254.302c-23.172,25.712-46.345,51.424-69.517,77.136c-26.471,29.372-48.792,34.498-21.233,65.364c29-33,58-66,87-99  c30.769,33.191,61.537,66.383,92.306,99.574c13.541,14.607,97.443-5.822,106.361-23.658c7.59-15.18-70.308-85.887-83.011-100.09  C455.762,248.205,399.282,256.946,366.594,254.302z"/>
<line fill="none" stroke="#000000" stroke-width="2" stroke-linecap="square" stroke-miterlimit="10" x1="423.594" y1="549.054" x2="458.094" y2="400.552"/>
<path fill-rule="evenodd" clip-rule="evenodd" fill="#57524C" stroke="#000000" stroke-width="2" stroke-linecap="square" stroke-miterlimit="10" d="  M411.596,393.802c0.824,41.615-57.297,41.44-57.752,0C353.378,351.408,413.172,351.304,411.596,393.802z"/>
<path fill-rule="evenodd" clip-rule="evenodd" fill="#9A744C" stroke="#000000" stroke-width="2" stroke-linecap="square" stroke-miterlimit="10" d="  M344.094,546.054c-15.453,3.586-23.614,40.986-14.613,41.32c23.93,0.886,55.872,8.168,79.115,2.93  c28.562-6.437,111.702-35.711,94.498-71.25c-27.152,9.831-54.304,19.662-81.456,29.493  C399.888,556.421,367.038,547.488,344.094,546.054z"/>
<path fill="none" stroke="#000000" stroke-width="2" stroke-linecap="square" stroke-miterlimit="10" d="M329.844,555.804  c24.845,1.705,73.639,17.126,90.75-6.75"/>
<line fill="none" stroke="#000000" stroke-width="2" stroke-linecap="square" stroke-miterlimit="10" x1="408.596" y1="590.304" x2="406.344" y2="561.054"/>
<path fill="none" stroke="#000000" stroke-width="2" stroke-linecap="square" stroke-miterlimit="10" d="M460.344,399.802  c4.93-5.1,24.793-19.26,19.282-25.128c-12.249-13.044-24.498-26.089-36.747-39.133c-25.429-27.079-50.857-54.159-76.285-81.238"/>
<path fill-rule="evenodd" clip-rule="evenodd" fill="#9A744C" stroke="#000000" stroke-width="2" stroke-linecap="square" stroke-miterlimit="10" d="  M380.094,444.054C325.617,434.395,403.488,471.245,380.094,444.054L380.094,444.054z"/>
<path fill="none" stroke="#000000" stroke-width="2" stroke-linecap="square" stroke-miterlimit="10" d="M363.594,444.804  c4.679,4.025,4.306,7.405-1.5,9.75"/>
</svg>