<svg xmlns="http://www.w3.org/2000/svg" xmlns:xlink="http://www.w3.org/1999/xlink" version="1.1" id="Layer_1" x="0px" y="0px" enable-background="new 0 0 822.05 841.89" xml:space="preserve" viewBox="310.15 342.26 200.5 159.67">
<path fill-rule="evenodd" clip-rule="evenodd" fill="#5E1F0A" stroke="#000000" stroke-linecap="square" stroke-miterlimit="10" d="  M420.902,498.39c-18.854-2.672-66.001-20.504-65.252-42c-0.21,3.098-2.169,5.853-1.5,10.5c-16.271-9.817-24.991-27.467-34.5-43.5  c4.465,21.372,22.223,39.082,39.75,51c-14.948-5.51-37.008-7.237-48.75,4.5c47.83-19.272,75.302,31.913,117.002,21  C425.415,498.896,423.143,499.204,420.902,498.39z"/>
<path fill-rule="evenodd" clip-rule="evenodd" stroke="#000000" stroke-linecap="square" stroke-miterlimit="10" d="M381.15,488.64  C382.735,493.25,381.219,488.839,381.15,488.64L381.15,488.64z M382.65,478.89c0.201-5.502,0.5-11,0.75-16.5  c-1.495,6.744-4.701,15.483-7.5,22.5c-0.307,0.05,5.522-3.174,5.25-3c0.188,0.554,1.338,7.153,0.75,6.75  c3.31,1.059,0.306-3.532,1.5-4.5c3.012,3.348,3.294,4.922,4.5,7.5C391.523,485.791,386.576,484.648,382.65,478.89z"/>
<path fill-rule="evenodd" clip-rule="evenodd" stroke="#000000" stroke-linecap="square" stroke-miterlimit="10" d="M369.9,483.39  C369.9,485.39,369.9,485.39,369.9,483.39L369.9,483.39z M368.4,475.14c-4.072,3.7-8.258,2.485-6,9c2.131-1.433,4.301-4.057,7.5-6  c0.433,0.677-4.033,4.939,0,5.25c-1.02,0.458,2.182-7.373,2.25-7.5c0.143,0.167,4.999,4.537,4.5,4.5  c-2.368-7.505-3.276-18.258-2.25-25.5C374.771,462.892,370.356,469.312,368.4,475.14z"/>
<path fill-rule="evenodd" clip-rule="evenodd" fill="#4D4D4D" stroke="#000000" stroke-linecap="square" stroke-miterlimit="10" d="  M331.65,401.64c-4.161,1.431-8.681,4.138-12.75,6C331.319,414.357,328.208,408.248,331.65,401.64z"/>
<path fill-rule="evenodd" clip-rule="evenodd" fill="#F7DE58" stroke="#000000" stroke-linecap="square" stroke-miterlimit="10" d="  M349.65,420.39c7.655-3.255,12.294-7.194,21.75-5.25c-78.939-69.591-9.484,85.034,15.75,42.75  C372.623,451.747,343.41,439.554,349.65,420.39z"/>
<path fill-rule="evenodd" clip-rule="evenodd" fill="#67832D" stroke="#000000" stroke-linecap="square" stroke-miterlimit="10" d="  M413.4,464.64c3.58-12.394-41.503-65.894-61.5-47.25C328.703,439.018,404.882,470.464,413.4,464.64z"/>
<path fill="none" stroke="#000000" stroke-linecap="square" stroke-miterlimit="10" d="M403.65,464.64  C403.65,465.64,403.65,465.64,403.65,464.64L403.65,464.64z"/>
<path fill-rule="evenodd" clip-rule="evenodd" fill="#67832D" stroke="#000000" stroke-linecap="square" stroke-miterlimit="10" d="  M434.402,485.64c-6.553-7.057-13.486-14.716-20.25-21c3.146-0.165-8.481,0.564-10.502,0.75c6.5,8.75,13.001,17.5,19.502,26.25  c4.796-1.919,0.141-0.86,7.5-0.75c-0.5-2-1-4-1.5-6C435.919,491.334,433.259,486.919,434.402,485.64z"/>
<path fill="none" stroke="#000000" stroke-linecap="square" stroke-miterlimit="10" d="M318.9,408.39  c4.474-0.692,8.974-0.941,13.5-0.75"/>
<path fill="none" stroke="#000000" stroke-linecap="square" stroke-miterlimit="10" d="M363.15,427.89  c13.429,9.557,38.466,29.833,43.5,19.5"/>
<path fill="none" stroke="#000000" stroke-linecap="square" stroke-miterlimit="10" d="M360.9,434.64  c16.427,10.487,39.906,28.599,52.5,23.25"/>
<path fill="none" stroke="#000000" stroke-linecap="square" stroke-miterlimit="10" d="M378.15,433.89  c7.948,4.669,15.148,11.69,16.5,4.5c1.896,1.479,4.884,3.664,7.5,3"/>
<path fill-rule="evenodd" clip-rule="evenodd" d="M343.65,403.89c-1.817,0.089-2.208,4.438-5.25,0  C341.406,399.358,341.734,403.984,343.65,403.89z"/>
<path fill-rule="evenodd" clip-rule="evenodd" fill="#F7DE58" stroke="#000000" stroke-linecap="square" stroke-miterlimit="10" d="  M435.152,361.89c7.14-1.961,10.539-6.619,19.5-4.5c-19.078-24.315-41.313-17.119-28.5,12.75c6.091,14.198,31.865,41.729,42.75,25.5  C454.186,389.054,432.22,379.86,435.152,361.89z"/>
<path fill-rule="evenodd" clip-rule="evenodd" fill="#5E1F0A" stroke="#000000" stroke-linecap="square" stroke-miterlimit="10" d="  M498.152,431.64c-17.909-2.305-56.849-18.055-57.75-37.5c-0.397,2.677-2.43,4.391-1.5,9c-14.759-8.393-21.92-24.546-30.002-39  c3.654,19.198,19.244,35.328,35.252,45.75c-14.194-3.986-32.964-6.196-43.502,4.5c42.48-18.774,64.548,26.608,102.752,19.5  C503.364,431.037,500.621,433.384,498.152,431.64z"/>
<path fill-rule="evenodd" clip-rule="evenodd" stroke="#000000" stroke-linecap="square" stroke-miterlimit="10" d="M462.902,423.39  C464.487,428,462.971,423.589,462.902,423.39L462.902,423.39z M464.402,415.14c0.199-5.002,0.5-10,0.75-15  c-1.796,5.542-4.394,14.1-6.75,20.25c0.121-0.028,4.436-2.95,4.5-3c0.248,0.622,1.371,6.399,0.75,6c0.5,0,1,0,1.5,0  c-0.953-0.468,0.508-3.584,0.75-3.75c2.479,3.228,2.269,4.428,3,6.75C472.801,421.555,468.214,420.307,464.402,415.14z"/>
<path fill-rule="evenodd" clip-rule="evenodd" stroke="#000000" stroke-linecap="square" stroke-miterlimit="10" d="M453.152,418.14  C453.152,420.14,453.152,420.14,453.152,418.14L453.152,418.14z M451.652,410.64c-3.821,3.112-7.159,3.025-5.25,8.25  c2.143-2.459,3.352-3.152,6.75-5.25c0.288,0.444-3.89,4.545,0,4.5c-0.854,0.326,2.185-6.621,2.25-6.75  c0.591,0.848,2.987,4.173,3.75,4.5c-1.028-7.157-1.835-16.31-2.25-23.25C457.561,400.069,453.109,406,451.652,410.64z"/>
<path fill-rule="evenodd" clip-rule="evenodd" fill="#4D4D4D" stroke="#000000" stroke-linecap="square" stroke-miterlimit="10" d="  M419.402,346.14c-3.559,2.113-7.177,4.084-11.252,5.25c3.333,1.91,7.24,2.655,11.252,3  C419.896,353.024,419.118,346.455,419.402,346.14z"/>
<path fill-rule="evenodd" clip-rule="evenodd" fill="#A4B8F4" stroke="#000000" stroke-linecap="square" stroke-miterlimit="10" d="  M491.402,400.89c1.986-10.038-33.866-57.882-53.25-42.75C414.972,376.236,483.693,407.274,491.402,400.89z"/>
<path fill="none" stroke="#000000" stroke-linecap="square" stroke-miterlimit="10" d="M483.152,402.39  C483.152,403.39,483.152,403.39,483.152,402.39L483.152,402.39z"/>
<path fill-rule="evenodd" clip-rule="evenodd" fill="#67832D" stroke="#000000" stroke-linecap="square" stroke-miterlimit="10" d="  M510.152,420.39c-5.38-6.583-12.045-13.276-18-18.75c3.057-0.324-7.372,0.565-9,0.75c5.75,7.75,11.5,15.5,17.25,23.25  c5.116-2.313-0.819-1.403,6.75-0.75c-0.5-1.75-1-3.5-1.5-5.25C511.265,424.549,509.333,422.065,510.152,420.39z"/>
<path fill="none" stroke="#000000" stroke-width="2" stroke-linecap="square" stroke-miterlimit="10" d="M408.15,352.14  c3.971-0.697,7.972-0.947,12.002-0.75"/>
<path fill="none" stroke="#000000" stroke-linecap="square" stroke-miterlimit="10" d="M447.902,369.39  c13.376,8.518,32.468,26.314,38.25,18"/>
<path fill="none" stroke="#000000" stroke-linecap="square" stroke-miterlimit="10" d="M444.902,375.39  c14.171,10.173,34.662,25.458,46.5,21"/>
<path fill="none" stroke="#000000" stroke-linecap="square" stroke-miterlimit="10" d="M460.652,373.89  c6.952,4.148,13.879,11.262,14.25,3.75c1.64,1.17,4.586,3.625,6.75,3"/>
<path fill-rule="evenodd" clip-rule="evenodd" d="M429.152,348.39C424.911,347.933,424.384,347.875,429.152,348.39L429.152,348.39z"/>
</svg>