<svg xmlns="http://www.w3.org/2000/svg" xmlns:xlink="http://www.w3.org/1999/xlink" version="1.1" id="Layer_1" x="0px" y="0px" enable-background="new 0 0 822.05 841.89" xml:space="preserve" viewBox="222.98 253.54 375.81 339.09">
<path fill-rule="evenodd" clip-rule="evenodd" fill="#90D8F8" stroke="#000000" stroke-width="2" stroke-linecap="square" stroke-miterlimit="10" d="  M429.25,276.894c29.685,34.396,5.399,101.598,24.375,145.875c6.475,15.106,34.574,15.375,48.375,15.375  c8.434,0,20.98-0.334,28.5-4.5c12.378-6.858,8.445-14.706,17.25-21.75c4.263-3.41,3.624-6.287,7.5-9  c3.222-2.255,13.727,0.558,18.75-2.25c10.908-6.097,17.257-14.974,21-27c5.415-17.397,2.061-43.945-2.625-61.125  c-5.832-21.382-35.123-15.636-30.375-34.875C518.252,283.534,472.756,284.847,429.25,276.894z"/>
<path fill-rule="evenodd" clip-rule="evenodd" fill="#FFFFFF" stroke="#000000" stroke-width="2" stroke-linecap="square" stroke-miterlimit="10" d="  M561.25,303.894c-2.069,28.968-2.276,59.427-9,87.75C600.39,396.208,599.474,299.13,561.25,303.894z"/>
<path fill-rule="evenodd" clip-rule="evenodd" fill="#878787" stroke="#000000" stroke-width="2" stroke-linecap="square" stroke-miterlimit="10" d="  M428.5,273.894c9.077-6.907,47.029-15.57,59.625-17.25c28.9-3.854,47.245,10.479,76.875,14.25  C539.864,293.527,460.877,284.212,428.5,273.894z"/>
<path fill-rule="evenodd" clip-rule="evenodd" fill="#D1D1D2" stroke="#000000" stroke-width="2" stroke-linecap="square" stroke-miterlimit="10" d="  M457,429.144c-6.343,36.576-25.003,69.03-29.25,107.25c-1.449,13.041-7.863,34.156,6.75,39.375  c16.956,6.056,33.803,11.087,51.75,13.125c17.963,2.039,37.27,2.838,54.75-2.625c28.226-8.82,32.146-13.956,29.611-43.098  c-3.441-39.579-26.047-78.466-27.361-116.277C517.165,441.746,484.079,440.782,457,429.144z"/>
<path fill-rule="evenodd" clip-rule="evenodd" fill="#A1A3A4" stroke="#000000" stroke-width="2" stroke-linecap="square" stroke-miterlimit="10" d="  M460,582.894c-1.087-22.105,19.668-104.832,56.25-68.25c12.335,12.335,23.691,43.674,18,60.75  C525.996,600.158,484.696,591.412,460,582.894z"/>
<path fill-rule="evenodd" clip-rule="evenodd" fill="#878787" stroke="#000000" stroke-width="2" stroke-linecap="square" stroke-miterlimit="10" d="  M516.25,561.144c-1.636,21.402-33.75,22.579-33.75,0S514.614,539.742,516.25,561.144z"/>
<path fill-rule="evenodd" clip-rule="evenodd" fill="#878787" stroke="#000000" stroke-width="2" stroke-linecap="square" stroke-miterlimit="10" d="  M506.5,559.644c2.733,26.826-12.646,28.691-12.75,0C493.644,530.583,509.354,532.561,506.5,559.644z"/>
<path fill="none" stroke="#000000" stroke-width="2" stroke-linecap="square" stroke-miterlimit="10" d="M455.5,441.894  c26.625,12.25,60.678,10.615,87.75,0.75"/>
<path fill="none" stroke="#000000" stroke-width="2" stroke-linecap="square" stroke-miterlimit="10" d="M453.25,308.394  c24.381,12.58,16.087,80.689,18,105.75"/>
<path fill="none" stroke="#000000" stroke-width="2" stroke-linecap="square" stroke-miterlimit="10" d="M544,307.644  c-21.94,13.727-13.922,83.138-15.75,108"/>
<line fill="none" stroke="#000000" stroke-width="2" stroke-linecap="square" stroke-miterlimit="10" x1="496.75" y1="303.894" x2="496.75" y2="419.394"/>
<line fill="none" stroke="#000000" stroke-width="2" stroke-linecap="square" stroke-miterlimit="10" x1="495.25" y1="321.144" x2="513.25" y2="321.144"/>
<line fill="none" stroke="#000000" stroke-width="2" stroke-linecap="square" stroke-miterlimit="10" x1="495.25" y1="330.894" x2="513.25" y2="330.894"/>
<line fill="none" stroke="#000000" stroke-width="2" stroke-linecap="square" stroke-miterlimit="10" x1="495.25" y1="342.894" x2="513.25" y2="342.894"/>
<line fill="none" stroke="#000000" stroke-width="2" stroke-linecap="square" stroke-miterlimit="10" x1="495.25" y1="353.394" x2="513.25" y2="353.394"/>
<line fill="none" stroke="#000000" stroke-width="2" stroke-linecap="square" stroke-miterlimit="10" x1="495.25" y1="361.644" x2="513.25" y2="361.644"/>
<line fill="none" stroke="#000000" stroke-width="2" stroke-linecap="square" stroke-miterlimit="10" x1="495.25" y1="372.894" x2="513.25" y2="372.894"/>
<line fill="none" stroke="#000000" stroke-width="2" stroke-linecap="square" stroke-miterlimit="10" x1="495.25" y1="382.644" x2="513.25" y2="382.644"/>
<line fill="none" stroke="#000000" stroke-width="2" stroke-linecap="square" stroke-miterlimit="10" x1="495.25" y1="392.394" x2="513.25" y2="392.394"/>
<line fill="none" stroke="#000000" stroke-width="2" stroke-linecap="square" stroke-miterlimit="10" x1="496" y1="401.394" x2="514" y2="401.394"/>
<line fill="none" stroke="#000000" stroke-width="2" stroke-linecap="square" stroke-miterlimit="10" x1="495.25" y1="411.144" x2="513.25" y2="411.144"/>
<path fill-rule="evenodd" clip-rule="evenodd" fill="#90D8F8" stroke="#000000" stroke-width="2" stroke-linecap="square" stroke-miterlimit="10" d="  M228.25,274.644c29.289,35.745,5.208,101.152,24.375,145.875c6.474,15.106,34.574,15.375,48.375,15.375  c8.489,0,20.903-0.371,28.5-4.5c12.312-6.692,8.229-13.646,17.25-21c7.034-5.734-3.06-11.258,10.125-9.375  c6.389,0.913,12.164-1.041,18-3.375c10.339-4.136,16.077-16.426,19.125-26.25c5.402-17.411,2.063-43.934-2.625-61.125  c-5.832-21.382-35.123-15.636-30.375-34.875C316.879,280.918,272.145,282.668,228.25,274.644z"/>
<path fill-rule="evenodd" clip-rule="evenodd" fill="#FFFFFF" stroke="#000000" stroke-width="2" stroke-linecap="square" stroke-miterlimit="10" d="  M360.25,302.394c-2.084,28.662-1.707,60.05-9,87.75C399.545,390.376,397.235,295.129,360.25,302.394z"/>
<path fill-rule="evenodd" clip-rule="evenodd" fill="#878787" stroke="#000000" stroke-width="2" stroke-linecap="square" stroke-miterlimit="10" d="  M227.5,271.644c8.496-6.465,47.968-16.098,59.625-16.875c30.295-2.02,45.653,9.901,76.875,13.875  C338.398,291.698,260.339,281.458,227.5,271.644z"/>
<path fill-rule="evenodd" clip-rule="evenodd" fill="#D1D1D2" stroke="#000000" stroke-width="2" stroke-linecap="square" stroke-miterlimit="10" d="  M256,427.644c-6.532,34.042-24.095,64.216-28.5,99.75c-1.694,13.665-9.65,40.536,6,46.125c16.956,6.056,33.802,11.087,51.75,13.125  c17.963,2.039,37.27,2.838,54.75-2.625c28.226-8.82,32.145-13.956,29.611-43.098c-3.441-39.566-26.046-78.447-27.361-116.277  C315.481,439.885,284.167,437.331,256,427.644z"/>
<path fill-rule="evenodd" clip-rule="evenodd" fill="#A1A3A4" stroke="#000000" stroke-width="2" stroke-linecap="square" stroke-miterlimit="10" d="  M259,580.644c-1.08-21.976,19.836-104.664,56.25-68.25c12.247,12.247,23.661,43.768,18,60.75  C324.996,597.908,283.696,589.162,259,580.644z"/>
<path fill-rule="evenodd" clip-rule="evenodd" fill="#878787" stroke="#000000" stroke-width="2" stroke-linecap="square" stroke-miterlimit="10" d="  M315.25,558.894c-1.635,21.402-33.75,22.579-33.75,0C281.5,536.437,313.646,537.429,315.25,558.894z"/>
<path fill-rule="evenodd" clip-rule="evenodd" fill="#878787" stroke="#000000" stroke-width="2" stroke-linecap="square" stroke-miterlimit="10" d="  M305.5,557.394c2.727,27.205-12.745,29.037-12.75,0C292.745,528.352,308.354,530.304,305.5,557.394z"/>
<path fill="none" stroke="#000000" stroke-width="2" stroke-linecap="square" stroke-miterlimit="10" d="M254.5,440.394  c28.729,9.642,59.125,10.431,87.75,0"/>
<path fill="none" stroke="#000000" stroke-width="2" stroke-linecap="square" stroke-miterlimit="10" d="M252.25,306.144  c24.38,12.58,16.087,80.689,18,105.75"/>
<path fill="none" stroke="#000000" stroke-width="2" stroke-linecap="square" stroke-miterlimit="10" d="M343,305.394  c-21.941,13.727-13.922,83.138-15.75,108"/>
<line fill="none" stroke="#000000" stroke-width="2" stroke-linecap="square" stroke-miterlimit="10" x1="295.75" y1="302.394" x2="295.75" y2="417.144"/>
<line fill="none" stroke="#000000" stroke-width="2" stroke-linecap="square" stroke-miterlimit="10" x1="294.25" y1="318.894" x2="312.25" y2="318.894"/>
<line fill="none" stroke="#000000" stroke-width="2" stroke-linecap="square" stroke-miterlimit="10" x1="294.25" y1="328.644" x2="312.25" y2="328.644"/>
<line fill="none" stroke="#000000" stroke-width="2" stroke-linecap="square" stroke-miterlimit="10" x1="294.25" y1="340.644" x2="312.25" y2="340.644"/>
<line fill="none" stroke="#000000" stroke-width="2" stroke-linecap="square" stroke-miterlimit="10" x1="294.25" y1="351.144" x2="312.25" y2="351.144"/>
<line fill="none" stroke="#000000" stroke-width="2" stroke-linecap="square" stroke-miterlimit="10" x1="294.25" y1="359.394" x2="312.25" y2="359.394"/>
<line fill="none" stroke="#000000" stroke-width="2" stroke-linecap="square" stroke-miterlimit="10" x1="294.25" y1="370.644" x2="312.25" y2="370.644"/>
<line fill="none" stroke="#000000" stroke-width="2" stroke-linecap="square" stroke-miterlimit="10" x1="294.25" y1="380.394" x2="312.25" y2="380.394"/>
<line fill="none" stroke="#000000" stroke-width="2" stroke-linecap="square" stroke-miterlimit="10" x1="294.25" y1="390.144" x2="312.25" y2="390.144"/>
<line fill="none" stroke="#000000" stroke-width="2" stroke-linecap="square" stroke-miterlimit="10" x1="295" y1="399.144" x2="313" y2="399.144"/>
<line fill="none" stroke="#000000" stroke-width="2" stroke-linecap="square" stroke-miterlimit="10" x1="294.25" y1="408.894" x2="312.25" y2="408.894"/>
</svg>