<svg xmlns="http://www.w3.org/2000/svg" xmlns:xlink="http://www.w3.org/1999/xlink" version="1.1" id="Layer_1" x="0px" y="0px" enable-background="new 0 0 822.05 841.89" xml:space="preserve" viewBox="321.01 248.51 178.31 348.21">
<path fill-rule="evenodd" clip-rule="evenodd" fill="#90D8F8" stroke="#000000" stroke-width="2" stroke-linecap="square" stroke-miterlimit="10" d="  M325.5,271.14c13.323,27.225,13.3,49.2,15.75,83.25c1.31,18.206-0.995,57.233,12,72c27.65,31.421,91.279,10.271,96.75-26.25  c27.133,8.275,45.355-13.664,47.625-38.625c1.726-18.985,0.438-41.435-5.625-59.625c-6.088-18.263-37.486-7.838-29.25-30  C417.229,277.472,370.708,280.692,325.5,271.14z"/>
<path fill-rule="evenodd" clip-rule="evenodd" fill="#FFFFFF" stroke="#000000" stroke-width="2" stroke-linecap="square" stroke-miterlimit="10" d="  M461.25,299.64c-1.577,29.96-1.428,61.396-8.25,90.75C501.783,393.203,500.557,293.199,461.25,299.64z"/>
<path fill-rule="evenodd" clip-rule="evenodd" fill="#878787" stroke="#000000" stroke-width="2" stroke-linecap="square" stroke-miterlimit="10" d="  M324.75,268.89c10.192-9.138,50.83-16.215,67.5-18.75c25.893-3.937,45.856,11.605,73.5,15  C438.386,288.796,358.671,279,324.75,268.89z"/>
<path fill-rule="evenodd" clip-rule="evenodd" fill="#D1D1D2" stroke="#000000" stroke-width="2" stroke-linecap="square" stroke-miterlimit="10" d="  M354,428.64c-6.708,37.752-25.62,70.828-30,110.25c-2.736,24.624-5.504,30.607,12.75,42.75c13.76,9.153,38.165,10.021,54,12  c21.225,2.653,42.591-0.429,62.625-7.5c22.969-8.106,19.19-17.245,18.181-40.473c-1.811-41.632-27.566-80.732-28.306-120.027  C417.357,442.568,381.544,439.509,354,428.64z"/>
<path fill-rule="evenodd" clip-rule="evenodd" fill="#A1A3A4" stroke="#000000" stroke-width="2" stroke-linecap="square" stroke-miterlimit="10" d="  M357,586.89c0.605-26.162,14.104-99.013,56.252-72.75c14.55,9.066,26.229,50.086,20.998,65.25  C425.421,604.985,381.536,594.788,357,586.89z"/>
<path fill-rule="evenodd" clip-rule="evenodd" fill="#878787" stroke="#000000" stroke-width="2" stroke-linecap="square" stroke-miterlimit="10" d="  M415.5,564.39c-1.175,22.107-34.573,22.732-34.5,0C381.074,541.423,414.025,542.645,415.5,564.39z"/>
<path fill-rule="evenodd" clip-rule="evenodd" fill="#878787" stroke="#000000" stroke-width="2" stroke-linecap="square" stroke-miterlimit="10" d="  M405.002,562.89c1.086,9.176-1.203,18.307-6.752,24.75C378.982,558.981,410.667,516.709,405.002,562.89z"/>
<path fill="none" stroke="#000000" stroke-width="2" stroke-linecap="square" stroke-miterlimit="10" d="M353.25,442.14  c29.296,10.316,60.754,10.792,90,0"/>
<path fill="none" stroke="#000000" stroke-width="2" stroke-linecap="square" stroke-miterlimit="10" d="M350.25,304.14  c24.754,13.026,16.655,83.04,18.75,108.75"/>
<path fill="none" stroke="#000000" stroke-width="2" stroke-linecap="square" stroke-miterlimit="10" d="M444,303.39  c-22.863,11.643-14.193,86.781-15.75,111"/>
<line fill="none" stroke="#000000" stroke-width="2" stroke-linecap="square" stroke-miterlimit="10" x1="395.25" y1="299.64" x2="395.25" y2="418.14"/>
<line fill="none" stroke="#000000" stroke-width="2" stroke-linecap="square" stroke-miterlimit="10" x1="393.75" y1="316.89" x2="412.502" y2="316.89"/>
<line fill="none" stroke="#000000" stroke-width="2" stroke-linecap="square" stroke-miterlimit="10" x1="393.75" y1="327.39" x2="412.502" y2="327.39"/>
<line fill="none" stroke="#000000" stroke-width="2" stroke-linecap="square" stroke-miterlimit="10" x1="393.75" y1="339.39" x2="412.502" y2="339.39"/>
<line fill="none" stroke="#000000" stroke-width="2" stroke-linecap="square" stroke-miterlimit="10" x1="393.75" y1="349.89" x2="412.502" y2="349.89"/>
<line fill="none" stroke="#000000" stroke-width="2" stroke-linecap="square" stroke-miterlimit="10" x1="393.75" y1="358.89" x2="412.502" y2="358.89"/>
<line fill="none" stroke="#000000" stroke-width="2" stroke-linecap="square" stroke-miterlimit="10" x1="393.75" y1="370.14" x2="412.502" y2="370.14"/>
<line fill="none" stroke="#000000" stroke-width="2" stroke-linecap="square" stroke-miterlimit="10" x1="393.75" y1="380.64" x2="412.502" y2="380.64"/>
<line fill="none" stroke="#000000" stroke-width="2" stroke-linecap="square" stroke-miterlimit="10" x1="393.75" y1="390.39" x2="412.502" y2="390.39"/>
<line fill="none" stroke="#000000" stroke-width="2" stroke-linecap="square" stroke-miterlimit="10" x1="394.5" y1="399.39" x2="413.252" y2="399.39"/>
<line fill="none" stroke="#000000" stroke-width="2" stroke-linecap="square" stroke-miterlimit="10" x1="393.75" y1="409.89" x2="412.502" y2="409.89"/>
</svg>