<svg xmlns="http://www.w3.org/2000/svg" xmlns:xlink="http://www.w3.org/1999/xlink" version="1.1" id="Layer_1" x="0px" y="0px" enable-background="new 0 0 822.05 841.89" xml:space="preserve" viewBox="204.51 270.86 413.53 302.68">
<path fill-rule="evenodd" clip-rule="evenodd" fill="#812C91" stroke="#000000" stroke-width="2" stroke-linecap="square" stroke-miterlimit="10" d="  M355.018,271.859c-27.969,7.628-38.496,5.761-50.858,30.402c-17.671,35.222-35.342,70.443-53.013,105.665  c-15.021,29.938-30.041,59.876-45.061,89.815c-6.074,12.107,38.05,35.582,48.432,43.368c19.75-33,39.5-66,59.25-99  c0.231,39.352,0.463,78.704,0.694,118.056c0.12,20.379,69.5,9.444,86.775,9.444c11.898,0,97.784,5.521,97.784-4.649  c0-38.95,0-77.9,0-116.851c15.937,29.731,31.872,59.463,47.809,89.194c3.195,5.963,67.434-21.056,69.941-29.944  c3.742-13.262-32.188-64.375-38.178-76.356c-20.212-40.422-40.423-80.844-60.634-121.267c-5.989-11.978-43.401-42.174-51.938-31.502  c-11.16,13.95-27.818,32.136-46.5,35.25C388.699,318.621,369.076,297.5,355.018,271.859z"/>
<path fill-rule="evenodd" clip-rule="evenodd" fill="#F8C0D9" stroke="#000000" stroke-width="2" stroke-linecap="square" stroke-miterlimit="10" d="  M328.768,281.609c45.579,72.538,111.681,71.79,164.254,6.75c-31.729-14.932-23.464-6.854-47.25,11.25  c-10.19,7.756-24.554,16.908-38.254,14.625c-11.095-1.849-20.948-5.688-29.625-13.125  C354.689,281.22,363.324,268.773,328.768,281.609z"/>
</svg>