<svg xmlns="http://www.w3.org/2000/svg" xmlns:xlink="http://www.w3.org/1999/xlink" version="1.1" id="Layer_1" x="0px" y="0px" enable-background="new 0 0 822.05 841.89" xml:space="preserve" viewBox="225.94 250.8 368.29 339.5">
<path fill-rule="evenodd" clip-rule="evenodd" fill="#34A048" stroke="#000000" stroke-width="2" stroke-linecap="square" stroke-miterlimit="10" d="  M257.983,287.804c-4.164,16.296-6.286,34.657,1.5,50.25c6.74,13.499,34.544,37.372,48,27  C343.497,337.293,277.137,292.867,257.983,287.804z"/>
<path fill-rule="evenodd" clip-rule="evenodd" fill="#34A048" stroke="#000000" stroke-width="2" stroke-linecap="square" stroke-miterlimit="10" d="  M443.983,312.554c-25.083-0.08-94.433,45.095-57,71.25C423.812,409.538,446.142,331.91,443.983,312.554z"/>
<path fill-rule="evenodd" clip-rule="evenodd" fill="#34A048" stroke="#000000" stroke-width="2" stroke-linecap="square" stroke-miterlimit="10" d="  M323.233,429.554c-15.589,0.112-35.848,5.677-47.25,17.25c-9.927,10.076-23.625,44.796-10.5,54  C304.163,527.928,323.681,448.862,323.233,429.554z"/>
<path fill-rule="evenodd" clip-rule="evenodd" fill="#34A048" stroke="#000000" stroke-width="2" stroke-linecap="square" stroke-miterlimit="10" d="  M378.733,428.054c-0.347,21.995,5.696,57.373,32.25,61.5C413.775,464.917,404.633,435.842,378.733,428.054z"/>
<path fill-rule="evenodd" clip-rule="evenodd" fill="#ABD151" stroke="#000000" stroke-width="2" stroke-linecap="square" stroke-miterlimit="10" d="  M305.983,422.804c-10.498-6.655-25.378-13.984-38.25-12.375c-11.133,1.392-44.222,14.976-40.5,31.125  C236.65,482.41,297.927,435.847,305.983,422.804z"/>
<path fill-rule="evenodd" clip-rule="evenodd" fill="#ABD151" stroke="#000000" stroke-width="2" stroke-linecap="square" stroke-miterlimit="10" d="  M462.733,446.804c-4.729-13.354-13.013-23.759-24.375-31.875c-9.221-6.586-44.495-12.101-50.625,1.875  C370.902,455.18,448.766,453.183,462.733,446.804z"/>
<path fill-rule="evenodd" clip-rule="evenodd" fill="#0D529F" stroke="#000000" stroke-width="2" stroke-linecap="square" stroke-miterlimit="10" d="  M311.983,392.804c-1.979,27.217-42.75,27.903-42.75,0C269.233,365.039,310.015,365.728,311.983,392.804z"/>
<path fill-rule="evenodd" clip-rule="evenodd" fill="#0D529F" stroke="#000000" stroke-width="2" stroke-linecap="square" stroke-miterlimit="10" d="  M297.733,413.054c-2.604,26.863-43.333,27.876-43.5,0C254.064,384.738,294.861,385.956,297.733,413.054z"/>
<path fill-rule="evenodd" clip-rule="evenodd" fill="#0D529F" stroke="#000000" stroke-width="2" stroke-linecap="square" stroke-miterlimit="10" d="  M332.983,426.554c-1.023,27.516-42.75,27.585-42.75,0S331.96,399.038,332.983,426.554z"/>
<path fill-rule="evenodd" clip-rule="evenodd" fill="#0D529F" stroke="#000000" stroke-width="2" stroke-linecap="square" stroke-miterlimit="10" d="  M374.233,429.554c-2.743,26.763-42.47,27.685-42.75,0C331.197,401.245,371.353,402.381,374.233,429.554z"/>
<path fill-rule="evenodd" clip-rule="evenodd" fill="#0D529F" stroke="#000000" stroke-width="2" stroke-linecap="square" stroke-miterlimit="10" d="  M413.233,419.054c-0.688,27.856-43.224,28.017-42.75,0C370.948,391.586,411.946,391.893,413.233,419.054z"/>
<path fill-rule="evenodd" clip-rule="evenodd" fill="#0D529F" stroke="#000000" stroke-width="2" stroke-linecap="square" stroke-miterlimit="10" d="  M421.483,380.804c-2.617,26.996-43.5,28.009-43.5,0S418.866,353.808,421.483,380.804z"/>
<path fill-rule="evenodd" clip-rule="evenodd" fill="#0D529F" stroke="#000000" stroke-width="2" stroke-linecap="square" stroke-miterlimit="10" d="  M389.233,360.554c-2.24,27.345-42.918,28.201-42.75,0C346.648,332.803,387.263,333.458,389.233,360.554z"/>
<path fill-rule="evenodd" clip-rule="evenodd" fill="#0D529F" stroke="#000000" stroke-width="2" stroke-linecap="square" stroke-miterlimit="10" d="  M349.483,365.054c-1.017,27.414-42.75,27.725-42.75,0S348.467,337.641,349.483,365.054z"/>
<path fill-rule="evenodd" clip-rule="evenodd" fill="#0D529F" stroke="#000000" stroke-width="2" stroke-linecap="square" stroke-miterlimit="10" d="  M319.483,359.804c-1.281,27.579-42.99,27.996-42.75,0C276.969,332.395,318.351,332.7,319.483,359.804z"/>
<path fill-rule="evenodd" clip-rule="evenodd" fill="#0D529F" stroke="#000000" stroke-width="2" stroke-linecap="square" stroke-miterlimit="10" d="  M348.733,396.554c-1.018,27.373-42.75,27.449-42.75,0C305.983,368.969,347.71,369.038,348.733,396.554z"/>
<path fill-rule="evenodd" clip-rule="evenodd" fill="#0D529F" stroke="#000000" stroke-width="2" stroke-linecap="square" stroke-miterlimit="10" d="  M383.233,392.804c-1.022,27.56-42.75,27.586-42.75,0C340.483,365.372,382.217,365.385,383.233,392.804z"/>
<path fill-rule="evenodd" clip-rule="evenodd" fill="#34A048" stroke="#000000" stroke-width="2" stroke-linecap="square" stroke-miterlimit="10" d="  M439.483,251.804c-11.833,16.898-18.738,94.717,21.75,80.25C499.781,318.281,454.219,260.939,439.483,251.804z"/>
<path fill-rule="evenodd" clip-rule="evenodd" fill="#34A048" stroke="#000000" stroke-width="2" stroke-linecap="square" stroke-miterlimit="10" d="  M593.233,323.054c-20.617-5.856-94.374,12.393-69,45.75C549.241,401.68,589.446,340.157,593.233,323.054z"/>
<path fill-rule="evenodd" clip-rule="evenodd" fill="#34A048" stroke="#000000" stroke-width="2" stroke-linecap="square" stroke-miterlimit="10" d="  M457.483,391.304c-19.776-4.156-94.88,12.478-69,46.5C413.919,471.242,453.608,408.103,457.483,391.304z"/>
<path fill-rule="evenodd" clip-rule="evenodd" fill="#34A048" stroke="#000000" stroke-width="2" stroke-linecap="square" stroke-miterlimit="10" d="  M505.483,404.804c-6.122,19.545-9.903,51.226,12,62.25C526.273,446.029,526.04,418.74,505.483,404.804z"/>
<path fill-rule="evenodd" clip-rule="evenodd" fill="#ABD151" stroke="#000000" stroke-width="2" stroke-linecap="square" stroke-miterlimit="10" d="  M443.983,381.554c-9.764-13.42-70.154-41.322-72.75-5.25C368.567,413.343,433.447,390.938,443.983,381.554z"/>
<path fill-rule="evenodd" clip-rule="evenodd" fill="#ABD151" stroke="#000000" stroke-width="2" stroke-linecap="square" stroke-miterlimit="10" d="  M572.983,443.804c-0.012-17.07-33.227-72.727-56.25-45.75C492.536,426.406,558.573,445.949,572.983,443.804z"/>
<path fill-rule="evenodd" clip-rule="evenodd" fill="#0D529F" stroke="#000000" stroke-width="2" stroke-linecap="square" stroke-miterlimit="10" d="  M457.483,356.804c-9.174,22.647-44.283,12.956-36.75-11.25C428.237,321.439,462.647,333.019,457.483,356.804z"/>
<path fill-rule="evenodd" clip-rule="evenodd" fill="#0D529F" stroke="#000000" stroke-width="2" stroke-linecap="square" stroke-miterlimit="10" d="  M439.483,370.304c-8.792,22.821-44.122,12.872-36.75-11.25C409.996,335.293,445.24,346.105,439.483,370.304z"/>
<path fill-rule="evenodd" clip-rule="evenodd" fill="#0D529F" stroke="#000000" stroke-width="2" stroke-linecap="square" stroke-miterlimit="10" d="  M467.233,391.304c-8.664,22.213-42.696,14.729-37.875-9.375C434.43,356.571,471.865,366.006,467.233,391.304z"/>
<path fill-rule="evenodd" clip-rule="evenodd" fill="#0D529F" stroke="#000000" stroke-width="2" stroke-linecap="square" stroke-miterlimit="10" d="  M501.733,404.804c-7.908,20.388-40.558,15.935-38.25-7.5C466.115,370.58,506.988,377.901,501.733,404.804z"/>
<path fill-rule="evenodd" clip-rule="evenodd" fill="#0D529F" stroke="#000000" stroke-width="2" stroke-linecap="square" stroke-miterlimit="10" d="  M537.733,407.054c-8.469,21.944-41.089,14.033-37.125-9.75C504.942,371.301,543.821,381.301,537.733,407.054z"/>
<path fill-rule="evenodd" clip-rule="evenodd" fill="#0D529F" stroke="#000000" stroke-width="2" stroke-linecap="square" stroke-miterlimit="10" d="  M554.983,375.554c-8.8,22.841-44.115,12.849-36.75-11.25C525.524,340.447,560.309,351.458,554.983,375.554z"/>
<path fill-rule="evenodd" clip-rule="evenodd" fill="#0D529F" stroke="#000000" stroke-width="2" stroke-linecap="square" stroke-miterlimit="10" d="  M532.483,350.054c-9.535,23.088-44.605,12.219-36.75-12C503.629,313.711,538.306,325.869,532.483,350.054z"/>
<path fill-rule="evenodd" clip-rule="evenodd" fill="#0D529F" stroke="#000000" stroke-width="2" stroke-linecap="square" stroke-miterlimit="10" d="  M497.983,343.304c-9.478,21.13-42.78,14.4-37.875-10.125C465.241,307.514,503.663,317.581,497.983,343.304z"/>
<path fill-rule="evenodd" clip-rule="evenodd" fill="#0D529F" stroke="#000000" stroke-width="2" stroke-linecap="square" stroke-miterlimit="10" d="  M473.233,330.554c-9.831,24.015-46.427,11.068-36.75-13.125C445.467,294.97,478.167,307.831,473.233,330.554z"/>
<path fill-rule="evenodd" clip-rule="evenodd" fill="#0D529F" stroke="#000000" stroke-width="2" stroke-linecap="square" stroke-miterlimit="10" d="  M488.233,369.554c-7.252,23.233-41.869,14.345-37.125-9.375C456.154,334.948,495.434,344.491,488.233,369.554z"/>
<path fill-rule="evenodd" clip-rule="evenodd" fill="#0D529F" stroke="#000000" stroke-width="2" stroke-linecap="square" stroke-miterlimit="10" d="  M518.983,376.304c-9.535,23.088-44.605,12.219-36.75-12C490.188,339.781,524.074,352.219,518.983,376.304z"/>
<path fill-rule="evenodd" clip-rule="evenodd" fill="#34A048" stroke="#000000" stroke-width="2" stroke-linecap="square" stroke-miterlimit="10" d="  M295.483,393.554c-9.351,14.681-19.497,80.902,18,74.25C353.334,460.735,307.523,400.684,295.483,393.554z"/>
<path fill-rule="evenodd" clip-rule="evenodd" fill="#34A048" stroke="#000000" stroke-width="2" stroke-linecap="square" stroke-miterlimit="10" d="  M435.733,458.054c-17.495-5.775-83.921,8.83-64.5,41.25C391.674,533.425,432.35,470.984,435.733,458.054z"/>
<path fill-rule="evenodd" clip-rule="evenodd" fill="#34A048" stroke="#000000" stroke-width="2" stroke-linecap="square" stroke-miterlimit="10" d="  M311.983,520.304c-16.345-3.902-83.649,8.52-64.5,41.25C267.478,595.728,309.556,535.125,311.983,520.304z"/>
<path fill-rule="evenodd" clip-rule="evenodd" fill="#34A048" stroke="#000000" stroke-width="2" stroke-linecap="square" stroke-miterlimit="10" d="  M356.233,532.304c-6.584,18.277-9.006,45.931,10.5,57C374.395,569.894,374.252,545.751,356.233,532.304z"/>
<path fill-rule="evenodd" clip-rule="evenodd" fill="#ABD151" stroke="#000000" stroke-width="2" stroke-linecap="square" stroke-miterlimit="10" d="  M299.983,511.304c-9.321-12.188-61.824-38.003-66-5.25C229.617,540.305,290.797,518.961,299.983,511.304z"/>
<path fill-rule="evenodd" clip-rule="evenodd" fill="#ABD151" stroke="#000000" stroke-width="2" stroke-linecap="square" stroke-miterlimit="10" d="  M416.983,567.554c-0.127-15.325-30.202-65.822-51-41.25C343.677,552.659,403.977,569.174,416.983,567.554z"/>
<path fill-rule="evenodd" clip-rule="evenodd" fill="#0D529F" stroke="#000000" stroke-width="2" stroke-linecap="square" stroke-miterlimit="10" d="  M311.983,488.804c-8.274,22.209-33.75,11.834-33.75-8.625C278.233,458.739,317.472,463.921,311.983,488.804z"/>
<path fill-rule="evenodd" clip-rule="evenodd" fill="#0D529F" stroke="#000000" stroke-width="2" stroke-linecap="square" stroke-miterlimit="10" d="  M296.233,500.804c-8.333,20.628-40.187,12.529-33.75-9.75C268.928,468.748,300.275,478.955,296.233,500.804z"/>
<path fill-rule="evenodd" clip-rule="evenodd" fill="#0D529F" stroke="#000000" stroke-width="2" stroke-linecap="square" stroke-miterlimit="10" d="  M320.983,520.304c-8.303,19.397-38.654,14.018-34.125-8.625C291.473,488.607,325.433,497.329,320.983,520.304z"/>
<path fill-rule="evenodd" clip-rule="evenodd" fill="#0D529F" stroke="#000000" stroke-width="2" stroke-linecap="square" stroke-miterlimit="10" d="  M352.483,532.304c-7.671,18.423-36.812,15.098-34.5-6.75C320.62,500.649,355.673,508.601,352.483,532.304z"/>
<path fill-rule="evenodd" clip-rule="evenodd" fill="#0D529F" stroke="#000000" stroke-width="2" stroke-linecap="square" stroke-miterlimit="10" d="  M385.483,534.554c-9.236,19.849-40.246,11.571-33.75-10.5C358.423,501.323,389.868,512.408,385.483,534.554z"/>
<path fill-rule="evenodd" clip-rule="evenodd" fill="#0D529F" stroke="#000000" stroke-width="2" stroke-linecap="square" stroke-miterlimit="10" d="  M401.233,506.054c-8.646,18.58-38.567,13.588-34.125-8.625C371.893,473.507,405.54,483.265,401.233,506.054z"/>
<path fill-rule="evenodd" clip-rule="evenodd" fill="#0D529F" stroke="#000000" stroke-width="2" stroke-linecap="square" stroke-miterlimit="10" d="  M380.233,482.804c-9.25,22.66-37.033,9.665-32.625-12.375C351.834,449.301,385.204,461.543,380.233,482.804z"/>
<path fill-rule="evenodd" clip-rule="evenodd" fill="#0D529F" stroke="#000000" stroke-width="2" stroke-linecap="square" stroke-miterlimit="10" d="  M348.733,476.054c-7.595,19.968-38.575,13.625-34.125-8.625C319.241,444.264,353.275,453.087,348.733,476.054z"/>
<path fill-rule="evenodd" clip-rule="evenodd" fill="#0D529F" stroke="#000000" stroke-width="2" stroke-linecap="square" stroke-miterlimit="10" d="  M326.233,464.804c-7.531,20.232-38.512,13.312-34.125-8.625C296.722,433.113,331.236,441.726,326.233,464.804z"/>
<path fill-rule="evenodd" clip-rule="evenodd" fill="#0D529F" stroke="#000000" stroke-width="2" stroke-linecap="square" stroke-miterlimit="10" d="  M340.483,500.804c-8.506,20.06-41.126,11.804-33.75-10.5C313.906,468.618,345.055,478.834,340.483,500.804z"/>
<path fill-rule="evenodd" clip-rule="evenodd" fill="#0D529F" stroke="#000000" stroke-width="2" stroke-linecap="square" stroke-miterlimit="10" d="  M368.233,506.054c-7.592,20.049-38.527,13.384-34.125-8.625C338.741,474.264,372.775,483.087,368.233,506.054z"/>
<path fill-rule="evenodd" clip-rule="evenodd" fill="#34A048" stroke="#000000" stroke-width="2" stroke-linecap="square" stroke-miterlimit="10" d="  M312.733,446.804c7.69,14.374,20.725,29.874,36.75,35.25c14.269,4.787,52.479,1.862,54.75-15.75  C410.153,420.404,329.939,437.374,312.733,446.804z"/>
<path fill-rule="evenodd" clip-rule="evenodd" fill="#34A048" stroke="#000000" stroke-width="2" stroke-linecap="square" stroke-miterlimit="10" d="  M500.233,459.554c15.312,16.653,46.538,37.563,68.25,20.25C551.08,460.751,525.414,446.535,500.233,459.554z"/>
<path fill-rule="evenodd" clip-rule="evenodd" fill="#ABD151" stroke="#000000" stroke-width="2" stroke-linecap="square" stroke-miterlimit="10" d="  M444.733,509.054c-14.057,2.535-26.012,8.762-36,18.75c-8.188,8.188-19.959,42.601-6.75,51  C437.942,601.668,448.364,524.129,444.733,509.054z"/>
<path fill-rule="evenodd" clip-rule="evenodd" fill="#ABD151" stroke="#000000" stroke-width="2" stroke-linecap="square" stroke-miterlimit="10" d="  M573.733,412.304c-12.831-5.477-26.757-8.686-40.5-5.25c-10.924,2.731-40.55,23.519-34.5,38.25  C514.874,484.607,568.388,427.087,573.733,412.304z"/>
<path fill-rule="evenodd" clip-rule="evenodd" fill="#0D529F" stroke="#000000" stroke-width="2" stroke-linecap="square" stroke-miterlimit="10" d="  M427.483,482.804c17.448,21.379-10.379,51.203-30.75,31.5C376.097,494.344,405.741,466.006,427.483,482.804z"/>
<path fill-rule="evenodd" clip-rule="evenodd" fill="#0D529F" stroke="#000000" stroke-width="2" stroke-linecap="square" stroke-miterlimit="10" d="  M431.233,507.554c18.763,20.523-9.462,50.78-30,31.5C380.658,519.74,410.156,489.134,431.233,507.554z"/>
<path fill-rule="evenodd" clip-rule="evenodd" fill="#0D529F" stroke="#000000" stroke-width="2" stroke-linecap="square" stroke-miterlimit="10" d="  M466.483,491.804c20.117,19.771-9.991,50.097-30,30.75C416.32,503.057,446.409,472.227,466.483,491.804z"/>
<path fill-rule="evenodd" clip-rule="evenodd" fill="#0D529F" stroke="#000000" stroke-width="2" stroke-linecap="square" stroke-miterlimit="10" d="  M497.983,464.054c18.397,21.18-10.778,51.258-30.75,30.75C447.759,474.806,476.902,446.104,497.983,464.054z"/>
<path fill-rule="evenodd" clip-rule="evenodd" fill="#0D529F" stroke="#000000" stroke-width="2" stroke-linecap="square" stroke-miterlimit="10" d="  M518.983,428.804c18.135,20.982-10.977,50.039-30.75,30.75C467.856,439.676,498.001,409.944,518.983,428.804z"/>
<path fill-rule="evenodd" clip-rule="evenodd" fill="#0D529F" stroke="#000000" stroke-width="2" stroke-linecap="square" stroke-miterlimit="10" d="  M496.483,395.054c18.082,21.072-10.335,51.245-30.75,31.5C445.277,406.77,474.992,377.303,496.483,395.054z"/>
<path fill-rule="evenodd" clip-rule="evenodd" fill="#0D529F" stroke="#000000" stroke-width="2" stroke-linecap="square" stroke-miterlimit="10" d="  M458.983,404.054c18.076,21.064-10.529,51.429-30.75,31.5C408.263,415.872,437.438,386.257,458.983,404.054z"/>
<path fill-rule="evenodd" clip-rule="evenodd" fill="#0D529F" stroke="#000000" stroke-width="2" stroke-linecap="square" stroke-miterlimit="10" d="  M434.233,435.554c17.562,20.854-10.081,51.339-30.75,31.5C382.878,447.276,412.775,418.177,434.233,435.554z"/>
<path fill-rule="evenodd" clip-rule="evenodd" fill="#0D529F" stroke="#000000" stroke-width="2" stroke-linecap="square" stroke-miterlimit="10" d="  M408.733,454.304c19.662,19.98-9.999,49.961-30,30.75C358.246,465.376,388.452,434.817,408.733,454.304z"/>
<path fill-rule="evenodd" clip-rule="evenodd" fill="#0D529F" stroke="#000000" stroke-width="2" stroke-linecap="square" stroke-miterlimit="10" d="  M455.983,458.804c20.096,19.75-10.032,50.353-30,30.75C405.879,469.818,435.28,440.268,455.983,458.804z"/>
<path fill-rule="evenodd" clip-rule="evenodd" fill="#0D529F" stroke="#000000" stroke-width="2" stroke-linecap="square" stroke-miterlimit="10" d="  M478.483,431.054c17.32,21.223-10.109,51.302-30.75,31.5C427.016,442.678,456.748,414.262,478.483,431.054z"/>
</svg>