<svg xmlns="http://www.w3.org/2000/svg" xmlns:xlink="http://www.w3.org/1999/xlink" version="1.1" id="Layer_1" x="0px" y="0px" enable-background="new 0 0 822.05 841.89" xml:space="preserve" viewBox="312.29 331.89 195.25 179.44">
<path fill-rule="evenodd" clip-rule="evenodd" fill="#5A3D1B" stroke="#000000" stroke-linecap="square" stroke-miterlimit="10" d="  M402.038,409.64c14.854,1.575,98.732,3.901,99.752,14.25c1.118,11.352-17.177,19.238-25.5,20.625  C441.671,450.285,417.268,433.472,402.038,409.64z"/>
<path fill-rule="evenodd" clip-rule="evenodd" fill="#FFFFFF" d="M401.288,405.14L401.288,405.14L401.288,405.14z"/>
<line fill="none" stroke="#000000" stroke-linecap="square" stroke-miterlimit="10" x1="401.288" y1="405.14" x2="401.288" y2="405.14"/>
<path fill-rule="evenodd" clip-rule="evenodd" fill="#F8130D" stroke="#000000" stroke-linecap="square" stroke-miterlimit="10" d="  M464.29,337.64c7.475,0.941,13.619,1.143,19.5,7.5c-8.411,1.357-13.613,1.765-21,4.5C463.29,345.64,463.79,341.64,464.29,337.64z"/>
<path fill-rule="evenodd" clip-rule="evenodd" fill="#5A3D1B" stroke="#000000" stroke-linecap="square" stroke-miterlimit="10" d="  M507.04,414.89c-16-1-32-2-48-3c2.5-26.5,5-53,7.5-79.5c-6.081,20.168-6.168,49.481-8.347,72.571  c-1.453,15.403-43.492,0.039-56.155-2.071c0,1.25,0,2.5,0,3.75C424.601,409.648,493.543,425.364,507.04,414.89z"/>
<path fill="none" stroke="#000000" stroke-linecap="square" stroke-miterlimit="10" d="M410.288,416.39  c30.308,3.637,61.692,9.314,92.252,9"/>
<path fill-rule="evenodd" clip-rule="evenodd" fill="#FFFF00" stroke="#000000" stroke-linecap="square" stroke-miterlimit="10" d="  M465.79,353.39c10.572,18.991,23.1,36.078,31.5,56.25c-13.022,1.925-27.368-1.311-38.25,5.25  C464.086,396.055,464.01,373.485,465.79,353.39z"/>
<path fill-rule="evenodd" clip-rule="evenodd" fill="#FF0000" stroke="#000000" stroke-linecap="square" stroke-miterlimit="10" d="  M447.04,369.89c-12.933,10.324-29.81,31.782-2.25,36.375C465.614,409.736,468.856,372.172,447.04,369.89z"/>
<path fill-rule="evenodd" clip-rule="evenodd" fill="#FFFF00" stroke="#000000" stroke-width="0.75" stroke-linecap="square" stroke-miterlimit="10" d="  M456.79,388.64c-3.812,10.759-23.88,16.003-22.5,0C435.638,373.004,453.817,374.681,456.79,388.64z"/>
<path fill-rule="evenodd" clip-rule="evenodd" fill="#000080" stroke="#000000" stroke-width="0.75" stroke-linecap="square" stroke-miterlimit="10" d="  M450.79,388.64C440.258,389.865,440.151,386.279,450.79,388.64L450.79,388.64z"/>
<path fill-rule="evenodd" clip-rule="evenodd" fill="#F7F619" stroke="#000000" stroke-linecap="square" stroke-miterlimit="10" d="  M420.79,395.39c-5.002,3.058-10.294,9.02-14.252,12.75c6.627,1.29,15.707,1.813,22.502,0.75  C424.248,404.944,423.975,399.651,420.79,395.39z"/>
<path fill-rule="evenodd" clip-rule="evenodd" fill="#F7F619" stroke="#000000" stroke-linecap="square" stroke-miterlimit="10" d="  M462.79,354.14c-3,3.25-6,6.5-9,9.75c1.668,0.859,5.695,2.443,7.5,3C461.79,362.64,462.29,358.39,462.79,354.14z"/>
<path fill-rule="evenodd" clip-rule="evenodd" fill="#F7F619" stroke="#000000" stroke-linecap="square" stroke-miterlimit="10" d="  M458.29,402.89c-13.338,9.954-29.243,2.065-30.75-14.25C405.043,407.929,456.678,424.233,458.29,402.89z"/>
<path fill-rule="evenodd" clip-rule="evenodd" fill="#F7F619" stroke="#000000" stroke-linecap="square" stroke-miterlimit="10" d="  M447.04,369.89c4.797,3.022,10.054,1.517,14.25,7.5C462.499,361.383,456.052,360.561,447.04,369.89z"/>
<path fill-rule="evenodd" clip-rule="evenodd" fill="#5A3D1B" stroke="#000000" stroke-linecap="square" stroke-miterlimit="10" d="  M312.788,468.89c16.225,1.754,110.461,4.753,111.752,15.75c1.402,11.941-17.839,20.634-26.252,23.25  C360.075,519.772,329.189,493.412,312.788,468.89z"/>
<path fill-rule="evenodd" clip-rule="evenodd" fill="#FFFFFF" d="M312.038,463.64L312.038,463.64L312.038,463.64z"/>
<line fill="none" stroke="#000000" stroke-linecap="square" stroke-miterlimit="10" x1="312.038" y1="463.64" x2="312.038" y2="463.64"/>
<path fill-rule="evenodd" clip-rule="evenodd" fill="#F8130D" stroke="#000000" stroke-linecap="square" stroke-miterlimit="10" d="  M382.538,388.64c8.624,0.298,15.271,1.111,21.75,8.25c-10.424,1.647-14.312-0.245-23.25,5.25  C381.538,397.64,382.038,393.14,382.538,388.64z"/>
<path fill-rule="evenodd" clip-rule="evenodd" fill="#5A3D1B" stroke="#000000" stroke-linecap="square" stroke-miterlimit="10" d="  M430.54,475.64c-18.001-1.25-36.001-2.5-54.002-3.75c2.75-29.5,5.5-59,8.25-88.5c-7.082,22.891-6.718,55.973-9.139,81.944  c-1.373,14.728-50.055-1.139-62.861-3.194c0,1.25,0,2.5,0,3.75C334.864,468.781,418.409,487.189,430.54,475.64z"/>
<path fill="none" stroke="#000000" stroke-linecap="square" stroke-miterlimit="10" d="M321.038,477.14  c33.961,4.245,69.189,10.47,103.502,9.75"/>
<path fill-rule="evenodd" clip-rule="evenodd" fill="#F7F619" stroke="#000000" stroke-linecap="square" stroke-miterlimit="10" d="  M384.038,406.64c12.346,20.581,25.894,40.048,35.252,62.25c-14.821,3.755-29.798-2.106-42.752,6  C382.431,454.116,382.023,428.801,384.038,406.64z"/>
<path fill-rule="evenodd" clip-rule="evenodd" fill="#F8B20C" stroke="#000000" stroke-linecap="square" stroke-miterlimit="10" d="  M363.038,424.64c-12.771,11.074-34.356,36.342-2.625,40.875C384.236,468.918,387.246,427.125,363.038,424.64z"/>
<path fill-rule="evenodd" clip-rule="evenodd" fill="#F87211" stroke="#000000" stroke-linecap="square" stroke-miterlimit="10" d="  M374.288,445.64c-3.259,14.428-24.712,17.164-25.5,0C347.975,427.939,371.502,430.021,374.288,445.64z"/>
<path fill-rule="evenodd" clip-rule="evenodd" fill="#F8130D" stroke="#000000" stroke-linecap="square" stroke-miterlimit="10" d="  M366.788,445.64C354.814,450.702,354.622,439.622,366.788,445.64L366.788,445.64z"/>
<path fill-rule="evenodd" clip-rule="evenodd" fill="#F7F619" stroke="#000000" stroke-linecap="square" stroke-miterlimit="10" d="  M333.788,453.14c-5.6,3.387-11.452,9.841-15.75,14.25c7.297,1.255,17.293,2,24.75,0.75  C337.784,463.721,337.255,457.731,333.788,453.14z"/>
<path fill-rule="evenodd" clip-rule="evenodd" fill="#F7F619" stroke="#000000" stroke-linecap="square" stroke-miterlimit="10" d="  M380.288,406.64c-3.25,3.5-6.5,7-9.75,10.5c1.96,1.191,6.051,3.049,8.25,3.75C379.288,416.14,379.788,411.39,380.288,406.64z"/>
<path fill-rule="evenodd" clip-rule="evenodd" fill="#F7F619" stroke="#000000" stroke-linecap="square" stroke-miterlimit="10" d="  M375.788,460.64c-14.317,12.191-32.99,2.075-34.5-15.75C315.042,464.768,375.985,486.281,375.788,460.64z"/>
<path fill-rule="evenodd" clip-rule="evenodd" fill="#F7F619" stroke="#000000" stroke-linecap="square" stroke-miterlimit="10" d="  M363.038,424.64c5.517,3.341,11.081,1.535,15.75,8.25C381.654,415.544,371.951,413.606,363.038,424.64z"/>
</svg>