<svg xmlns="http://www.w3.org/2000/svg" xmlns:xlink="http://www.w3.org/1999/xlink" version="1.1" id="Layer_1" x="0px" y="0px" enable-background="new 0 0 822.05 841.89" xml:space="preserve" viewBox="316.18 335.14 188.75 172.87">
<path fill-rule="evenodd" clip-rule="evenodd" fill="#5A3D1B" stroke="#000000" stroke-width="1.25" stroke-linecap="square" stroke-miterlimit="10" d="  M323.554,448.265c21.292,2.293,137.241,0.665,146.25,15.75c6.189,10.363-12.99,28.496-24,32.625  C393.758,516.158,346.846,485.049,323.554,448.265z"/>
<path fill-rule="evenodd" clip-rule="evenodd" fill="#FFFFFF" d="M322.804,440.765L322.804,440.765L322.804,440.765z"/>
<line fill="none" stroke="#000000" stroke-width="1.25" stroke-linecap="square" stroke-miterlimit="10" x1="322.804" y1="440.765" x2="322.804" y2="440.765"/>
<path fill-rule="evenodd" clip-rule="evenodd" fill="#F8130D" stroke="#000000" stroke-width="1.25" stroke-linecap="square" stroke-miterlimit="10" d="  M415.804,342.515c10.998-1.838,21.267,2.561,28.5,11.25c-11.432-2.254-22.558-1.075-30.75,6.75  C414.274,354.75,413.965,347.998,415.804,342.515z"/>
<path fill-rule="evenodd" clip-rule="evenodd" fill="#5A3D1B" stroke="#000000" stroke-width="1.25" stroke-linecap="square" stroke-miterlimit="10" d="  M478.804,457.265c-23.75-1.75-47.5-3.5-71.25-5.25c3.5-38.75,7-77.5,10.5-116.25c-13.241,23.342-9.12,76.058-11.781,105.521  c-2.118,23.447-63.372,1.053-82.719-2.021c0,1.5,0,3,0,4.5C344.665,446.644,472.152,471.05,478.804,457.265z"/>
<path fill="none" stroke="#000000" stroke-width="1.25" stroke-linecap="square" stroke-miterlimit="10" d="M334.804,458.765  c44.594,5.424,90.706,13.866,135.75,12.75"/>
<path fill-rule="evenodd" clip-rule="evenodd" fill="#199DBF" stroke="#000000" stroke-width="1.25" stroke-linecap="square" stroke-miterlimit="10" d="  M332.554,484.265c16.619-2.379,18.253,12.093,37.5,4.875c13.704-5.139,21.427,4.979,26.25,5.625c18.281,2.452,39.767-2.499,56.25,0  c7.772,1.179,51.751,2.151,51.75,3c-0.01,15.065-164.817,8.097-187.5,7.5C326.769,501.539,332.719,494.149,332.554,484.265z"/>
<path fill-rule="evenodd" clip-rule="evenodd" fill="#F7F619" stroke="#000000" stroke-width="1.25" stroke-linecap="square" stroke-miterlimit="10" d="  M417.304,366.515c16.341,26.654,35.208,52.377,46.5,81.75c-18.156,4.695-41.196-4.643-56.25,7.5  C414.373,427.585,414.503,395.795,417.304,366.515z"/>
<path fill-rule="evenodd" clip-rule="evenodd" fill="#F8B20C" stroke="#000000" stroke-width="1.25" stroke-linecap="square" stroke-miterlimit="10" d="  M388.804,389.765c-15.957,14.099-44.76,48.405-3,53.625C417.211,447.316,420.907,390.648,388.804,389.765z"/>
<path fill-rule="evenodd" clip-rule="evenodd" fill="#F87211" stroke="#000000" stroke-width="1.25" stroke-linecap="square" stroke-miterlimit="10" d="  M405.304,416.765c-1.59,21.235-33.75,22.477-33.75,0S403.714,395.53,405.304,416.765z"/>
<path fill-rule="evenodd" clip-rule="evenodd" fill="#F8130D" stroke="#000000" stroke-width="1.25" stroke-linecap="square" stroke-miterlimit="10" d="  M395.554,416.765C379.42,435.758,379.42,397.772,395.554,416.765L395.554,416.765z"/>
<path fill-rule="evenodd" clip-rule="evenodd" fill="#F7F619" stroke="#000000" stroke-width="1.25" stroke-linecap="square" stroke-miterlimit="10" d="  M350.554,427.265c-6.998,5.788-14.844,12.47-20.25,18.75c10.435,1.038,21.533,0.75,32.25,0.75  C356.348,440.884,354.626,434.063,350.554,427.265z"/>
<path fill-rule="evenodd" clip-rule="evenodd" fill="#F7F619" stroke="#000000" stroke-width="1.25" stroke-linecap="square" stroke-miterlimit="10" d="  M412.054,365.765c-4.88,3.053-8.765,9.281-12.75,13.5c2.677,1.709,8.205,4.304,11.25,5.25  C411.023,378.644,413.049,371.524,412.054,365.765z"/>
<path fill-rule="evenodd" clip-rule="evenodd" fill="#F7F619" stroke="#000000" stroke-width="1.25" stroke-linecap="square" stroke-miterlimit="10" d="  M406.804,436.265c-17.917,15.805-44.401,3.229-45-20.25C323.545,436.955,409.712,473.671,406.804,436.265z"/>
<path fill-rule="evenodd" clip-rule="evenodd" fill="#F7F619" stroke="#000000" stroke-width="1.25" stroke-linecap="square" stroke-miterlimit="10" d="  M388.804,389.765c8.583,3.298,14.929,2.882,21,11.25C416.556,380.971,397.055,373.302,388.804,389.765z"/>
</svg>