<svg xmlns="http://www.w3.org/2000/svg" xmlns:xlink="http://www.w3.org/1999/xlink" version="1.1" id="Layer_1" x="0px" y="0px" enable-background="new 0 0 822.05 841.89" xml:space="preserve" viewBox="204.15 335.37 412.26 173.79">
<path fill-rule="evenodd" clip-rule="evenodd" fill="#FBF4A2" stroke="#000000" stroke-width="2" stroke-linecap="square" stroke-miterlimit="10" d="  M328.25,383.149c51.359-0.759,102.761-2.25,154.125-2.25c28.968,0,41.855-33.077,66.375-41.25c25.427-8.476,49.686-0.708,60,25.5  c8.202,20.841-14.231,77.029-31.5,45.75c18.719,18.316,51.641,52.252,32.25,80.25c-14.992,21.647-52.161,21.2-71.25,6.75  c-21.8-16.503-22.268-45.123-56.25-40.875c-49.827,6.229-101.905-3.949-151.5,2.25c-27.17,3.396-39.964,39.616-69,46.875  c-25.477,6.369-55.5-16.24-55.5-43.125c0-8.797,14.937-38.72,13.5-40.875c-8.145-12.217-15.275-23.677-14.25-39  c1.66-24.818,20.453-42.493,45-39.75C279.079,346.621,300.143,376.173,328.25,383.149z"/>
<path fill-rule="evenodd" clip-rule="evenodd" fill="#FBF4A2" d="M227,402.649c1.361,9.036,2.992,14.124-6,21.75  C222.985,417.203,224.504,409.681,227,402.649z"/>
<path fill="none" stroke="#000000" stroke-width="2" stroke-linecap="square" stroke-miterlimit="10" d="M227,402.649  c3.839,8.162,1.332,15.532-6,21.75"/>
</svg>