<svg xmlns="http://www.w3.org/2000/svg" xmlns:xlink="http://www.w3.org/1999/xlink" version="1.1" id="Layer_1" x="0px" y="0px" enable-background="new 0 0 822.05 841.89" xml:space="preserve" viewBox="202 241.57 416.3 359.33">
<path fill-rule="evenodd" clip-rule="evenodd" fill="#FBF4A2" stroke="#000000" stroke-width="2" stroke-linecap="square" stroke-miterlimit="10" d="  M330.5,290.14c48.538-0.48,103.812,6.924,151.5-1.5c29.485-5.208,43.92-29.085,69-41.625c24.289-12.145,50.956,1.92,60,25.875  c7.775,20.595-14.363,76.16-31.5,45c18.123,18.008,50.888,52.688,32.25,80.25c-14.205,21.008-53.211,22.212-72,7.5  c-21.436-16.785-21.817-45.929-56.25-41.625c-47.961,5.995-104.812-10.607-151.125,2.625c-27.733,7.924-35.634,39.69-65.625,46.5  c-26.766,6.078-54.954-11.911-58.5-39.75c-2.183-17.138,15.422-29.602,15-42c-0.379-11.14-16.5-23.986-16.5-39  c0-22.336,19.089-44.962,42.375-42.375C279.804,253.424,301.162,284.641,330.5,290.14z"/>
<path fill-rule="evenodd" clip-rule="evenodd" fill="#FBF4A2" d="M228.5,309.64c1.086,9.225,4.767,13.374-5.25,21.75  C224.989,324.188,226.191,316.675,228.5,309.64z"/>
<path fill="none" stroke="#000000" stroke-width="2" stroke-linecap="square" stroke-miterlimit="10" d="M228.5,309.64  c4.72,8.032,2.361,15.385-5.25,21.75"/>
<path fill-rule="evenodd" clip-rule="evenodd" fill="#FBF4A2" stroke="#000000" stroke-width="2" stroke-linecap="square" stroke-miterlimit="10" d="  M329,378.64c48.674-0.719,104.512,6.644,152.25-2.25c29.167-5.434,42.358-32.619,68.25-41.25c25.101-8.367,49.687-0.791,60,25.5  c8.07,20.572-14.415,76.815-31.5,45.75c18.806,17.959,51.456,52.474,32.25,80.25c-14.911,21.564-53.112,21.436-72,6.75  c-21.461-16.687-21.587-45.773-55.875-40.875c-49.523,7.075-101.696-3.929-151.125,2.25c-27.275,3.409-39.756,39.564-69,46.875  c-26.108,6.527-55.5-16.467-55.5-43.5c0-8.507,13.842-39.64,13.125-40.5c-8.963-10.756-14.82-25.113-13.875-39  c1.698-24.968,20.118-42.544,45-39.75C279.658,342.108,301.009,371.403,329,378.64z"/>
<path fill-rule="evenodd" clip-rule="evenodd" fill="#FBF4A2" d="M227,398.14c1.086,9.225,4.767,13.374-5.25,21.75  C223.489,412.688,224.691,405.175,227,398.14z"/>
<path fill="none" stroke="#000000" stroke-width="2" stroke-linecap="square" stroke-miterlimit="10" d="M227,398.14  c4.72,8.032,2.361,15.385-5.25,21.75"/>
<path fill-rule="evenodd" clip-rule="evenodd" fill="#FBF4A2" stroke="#000000" stroke-width="2" stroke-linecap="square" stroke-miterlimit="10" d="  M326.75,474.64c48.666-0.723,103.669,6.164,151.5-2.25c29.298-5.154,43.244-28.372,68.25-40.875  c23.957-11.979,51.253,1.505,60.75,25.125c8.55,21.265-15.231,76.577-32.25,45.75c19.584,17.264,51.055,52.932,32.25,80.25  c-14.271,20.733-52.247,22.212-71.25,7.5c-21.624-16.741-22.244-45.876-56.25-41.625c-48.725,6.091-103.983-9.254-151.5,2.625  c-27.555,6.889-35.593,39.599-65.25,46.5c-26.438,6.152-55.625-11.912-59.25-39.75c-2.183-16.762,15.419-29.451,15-42  c-0.392-11.716-15.75-23.854-15.75-39c0-22.758,18.326-44.742,42-42.375C275.883,437.603,297.265,469.333,326.75,474.64z"/>
<path fill-rule="evenodd" clip-rule="evenodd" fill="#FBF4A2" d="M224.75,494.14c1.361,9.036,2.992,14.123-6,21.75  C220.735,508.694,222.254,501.172,224.75,494.14z"/>
<path fill="none" stroke="#000000" stroke-width="2" stroke-linecap="square" stroke-miterlimit="10" d="M224.75,494.14  c3.839,8.161,1.332,15.531-6,21.75"/>
</svg>