<svg xmlns="http://www.w3.org/2000/svg" xmlns:xlink="http://www.w3.org/1999/xlink" version="1.1" id="Layer_1" x="0px" y="0px" enable-background="new 0 0 822.05 841.89" xml:space="preserve" viewBox="244.31 253.56 333.45 337.25">
<path fill-rule="evenodd" clip-rule="evenodd" fill="#FBF4A2" stroke="#000000" stroke-width="2" stroke-linecap="square" stroke-miterlimit="10" d="  M506.662,589.806c-61.645-61.997-123.29-123.994-184.935-185.991c-25.446-25.592-50.893-51.184-76.339-76.775  c-2.575-2.59,62.001-64.461,70.023-72.483c61.645,61.997,123.29,123.994,184.935,185.991c25.446,25.592,50.893,51.184,76.339,76.775  C579.261,519.913,514.684,581.785,506.662,589.806z"/>
<path fill-rule="evenodd" clip-rule="evenodd" fill="#ECB326" stroke="#000000" stroke-width="2" stroke-linecap="square" stroke-miterlimit="10" d="  M509.662,570.306c-53.168-53.498-106.336-106.997-159.505-160.496c-25.611-25.771-51.223-51.541-76.834-77.312  c-11.611-11.684,33.887-44.241,44.339-54.693c53.168,53.499,106.337,106.997,159.505,160.495  c25.611,25.771,51.223,51.542,76.834,77.312C565.612,527.296,520.114,559.854,509.662,570.306z"/>
<path fill-rule="evenodd" clip-rule="evenodd" fill="#ED2224" stroke="#000000" stroke-width="2" stroke-linecap="square" stroke-miterlimit="10" d="  M266.662,288.306c2.354-10.178,9.837-12.463,18-3c6.256,7.253-1.089,25.777-1.383,35.766c-0.688,23.414-4.81,47.626-0.867,70.734  c3.212,18.83,6.041,31.72,28.125,34.875c17.779,2.54,46.836,4.018,46.875,25.875c-6.033,0.104-6.773,2.985-12,3.75  c2.75,2.25,5.5,4.5,8.25,6.75c-4.278-1.953-14.127-4.875-20.25-8.25c5.073,3.984,8.588,10.057,12.75,14.25  c-2.024-0.512-9.063-0.122-13.5-1.5c1.25,4.25,2.5,8.5,3.75,12.75c-3.966-3.801-14.457-9.748-19.5-15  c4.198,5.263,15.368,29.79-1.5,26.25c-8.664-1.818-7.161-12.821-11.625-21.75c-6.481-12.963-17.453-26.461-22.875-38.25  C261.584,389.532,267.547,336.105,266.662,288.306z"/>
<path fill="none" stroke="#000000" stroke-width="2" stroke-linecap="square" stroke-miterlimit="10" d="M289.912,288.306  c6.145,4.117,4.773,6.962-2.25,8.25"/>
</svg>