<svg xmlns="http://www.w3.org/2000/svg" xmlns:xlink="http://www.w3.org/1999/xlink" version="1.1" id="Layer_1" x="0px" y="0px" enable-background="new 0 0 822.05 841.89" xml:space="preserve" viewBox="322.63 339.74 176.75 167.4">
<path fill-rule="evenodd" clip-rule="evenodd" fill="#EDCBA6" stroke="#000000" stroke-width="1.25" stroke-linecap="square" stroke-miterlimit="10" d="  M457.502,445.765c-9.46-3.359-20.324-21.858-27.948-21.672c-17.997,0.438-42.268,6.521-56.054,20.922  c-21.9,22.876-19.843,41.25,11.473,41.25c20.371,0,40.741,0,61.111,0C450.864,486.265,456.07,451.713,457.502,445.765z"/>
<path fill-rule="evenodd" clip-rule="evenodd" fill="#FFFFFF" stroke="#000000" stroke-width="1.25" stroke-linecap="square" stroke-miterlimit="10" d="  M480.752,454.765c-8.41-7.658-18.997-12.364-30-15c-7.026,44.142-51.975,52.805-72.002,12.75c-22.122-44.243-52.344,32.963-55.5,54  c58.5,0,117.001,0,175.502,0C495.819,489.074,492.731,468.515,480.752,454.765z"/>
<path fill-rule="evenodd" clip-rule="evenodd" fill="#EDCBA6" stroke="#000000" stroke-width="1.25" stroke-linecap="square" stroke-miterlimit="10" d="  M375.75,403.015C376.834,443.167,347.879,374.232,375.75,403.015L375.75,403.015z"/>
<path fill-rule="evenodd" clip-rule="evenodd" fill="#EDCBA6" stroke="#000000" stroke-width="1.25" stroke-linecap="square" stroke-miterlimit="10" d="  M460.502,405.265C444.905,443.475,449.202,367.414,460.502,405.265L460.502,405.265z"/>
<path fill-rule="evenodd" clip-rule="evenodd" fill="#EDCBA6" stroke="#000000" stroke-width="1.25" stroke-linecap="square" stroke-miterlimit="10" d="  M369,382.015c-8.403,48.652,56.111,95.48,80.252,38.25C483.647,338.725,368.341,308.824,369,382.015z"/>
<path fill="none" stroke="#000000" stroke-linecap="square" stroke-miterlimit="10" d="M411,412.765  c3.007,3.782,6.183,3.952,9.002,0"/>
<path fill-rule="evenodd" clip-rule="evenodd" fill="#EDCBA6" stroke="#000000" stroke-width="1.25" stroke-linecap="square" stroke-miterlimit="10" d="  M408.75,463.015c-14.444-12.658,31.492-29.046,41.252-46.125c10.308-18.038,6.259,13.904,3.75,19.875  c-7.816,18.603-29.268,17.542-10.5,42C427.619,477.92,412.201,482.203,408.75,463.015z"/>
<path fill-rule="evenodd" clip-rule="evenodd" fill="#FFFFFF" stroke="#000000" stroke-width="1.25" stroke-linecap="square" stroke-miterlimit="10" d="  M405,459.265c42.664,0,36.56,3.721,42.752,45C401.177,504.265,405.765,505.16,405,459.265z"/>
<path fill="none" stroke="#000000" stroke-linecap="square" stroke-miterlimit="10" d="M405.75,430.765  c5.562-3.205,13.117-4.837,20.252-4.5"/>
<path fill-rule="evenodd" clip-rule="evenodd" d="M407.25,398.515c-1.792,0.697-0.207,5.436-4.5,1.5  C403.829,394.915,406.139,398.947,407.25,398.515z"/>
<path fill-rule="evenodd" clip-rule="evenodd" d="M430.502,400.015c-2.42-0.343-3.09,4.717-5.25-0.75  C428.805,394.634,428.058,399.669,430.502,400.015z"/>
<path fill="none" stroke="#000000" stroke-width="0.75" stroke-linecap="square" stroke-miterlimit="10" d="M397.5,401.515  c3.856-4.142,8.269-5.314,13.5-3"/>
<path fill="none" stroke="#000000" stroke-width="0.75" stroke-linecap="square" stroke-miterlimit="10" d="M435.002,401.515  c-4.106-4.328-8.984-5.004-13.5-1.5"/>
</svg>