<svg xmlns="http://www.w3.org/2000/svg" xmlns:xlink="http://www.w3.org/1999/xlink" version="1.1" id="Layer_1" x="0px" y="0px" enable-background="new 0 0 822.05 841.89" xml:space="preserve" viewBox="229.85 281.16 362.21 274.73">
<path fill-rule="evenodd" clip-rule="evenodd" fill="#F6CF95" stroke="#000000" stroke-width="2" stroke-linecap="square" stroke-miterlimit="10" d="  M232.76,384.64c27.098-123.528,332.848-144.125,357-13.5c15.81,85.507-117.135,112.18-176.249,115.875  C363.31,490.153,212.188,466.989,232.76,384.64z"/>
<path fill-rule="evenodd" clip-rule="evenodd" fill="#FBF4A2" stroke="#000000" stroke-width="2" stroke-linecap="square" stroke-miterlimit="10" d="  M236.51,417.64c42.341,69.299,82.662,137.409,172.502,137.25c96.836-0.171,150.124-72.849,180.748-156.75  c-15.496,63.351-106.375,85.279-162.333,87.944C352.663,489.645,285.143,479.337,236.51,417.64z"/>
<path fill-rule="evenodd" clip-rule="evenodd" fill="#AC936A" stroke="#000000" stroke-width="2" stroke-linecap="square" stroke-miterlimit="10" d="  M339.26,479.14c48.684-27.902,100.242-30.408,151.5-6.75C445.25,486.606,385.127,496.408,339.26,479.14z"/>
</svg>