<svg xmlns="http://www.w3.org/2000/svg" xmlns:xlink="http://www.w3.org/1999/xlink" version="1.1" id="Layer_1" x="0px" y="0px" enable-background="new 0 0 822.05 841.89" xml:space="preserve" viewBox="209.77 267.41 401.45 303.4">
<path fill-rule="evenodd" clip-rule="evenodd" fill="#F6CF95" stroke="#000000" stroke-width="2" stroke-linecap="square" stroke-miterlimit="10" d="  M211,333.39c28.468-76.003,240.192-97.224,234.75,1.5C440.782,425.002,202.254,427.509,211,333.39z"/>
<path fill-rule="evenodd" clip-rule="evenodd" fill="#FBF4A2" stroke="#000000" stroke-width="2" stroke-linecap="square" stroke-miterlimit="10" d="  M214,355.14c28.093,50.64,61.146,95.419,124.875,89.625c58.295-5.3,86.514-52.744,106.875-102.375  C423.968,427.427,254.386,413.912,214,355.14z"/>
<path fill-rule="evenodd" clip-rule="evenodd" fill="#AC936A" stroke="#000000" stroke-width="2" stroke-linecap="square" stroke-miterlimit="10" d="  M281.5,395.64c29.879-20.037,67.162-19.461,99-4.5C349.986,400.516,312.402,406.058,281.5,395.64z"/>
<path fill-rule="evenodd" clip-rule="evenodd" fill="#F6CF95" stroke="#000000" stroke-width="2" stroke-linecap="square" stroke-miterlimit="10" d="  M375.25,343.14c25.179-82.212,247.935-90.793,234.375,4.125C597.137,434.68,361.834,435.348,375.25,343.14z"/>
<path fill-rule="evenodd" clip-rule="evenodd" fill="#FBF4A2" stroke="#000000" stroke-width="2" stroke-linecap="square" stroke-miterlimit="10" d="  M378.25,364.89c54.326,124.534,186.943,109.895,231-12C589.362,437.156,416.821,423.975,378.25,364.89z"/>
<path fill-rule="evenodd" clip-rule="evenodd" fill="#AC936A" stroke="#000000" stroke-width="2" stroke-linecap="square" stroke-miterlimit="10" d="  M445,406.14c28.876-19.599,69.266-21.926,99.75-4.5C513.525,408.798,476.348,417.082,445,406.14z"/>
<path fill-rule="evenodd" clip-rule="evenodd" fill="#F6CF95" stroke="#000000" stroke-width="2" stroke-linecap="square" stroke-miterlimit="10" d="  M250,461.64c26.404-81.009,248.044-91.555,234.375,4.125C471.866,553.327,236.595,553.776,250,461.64z"/>
<path fill-rule="evenodd" clip-rule="evenodd" fill="#FBF4A2" stroke="#000000" stroke-width="2" stroke-linecap="square" stroke-miterlimit="10" d="  M253,483.39c56.932,123.666,184.793,110.137,231-12C463.148,555.129,291.977,543.097,253,483.39z"/>
<path fill-rule="evenodd" clip-rule="evenodd" fill="#AC936A" stroke="#000000" stroke-width="2" stroke-linecap="square" stroke-miterlimit="10" d="  M320.5,524.64c29.187-20.845,67.287-20.154,99-5.25C389.164,528.786,351.379,534.676,320.5,524.64z"/>
</svg>