<svg xmlns="http://www.w3.org/2000/svg" xmlns:xlink="http://www.w3.org/1999/xlink" version="1.1" id="Layer_1" x="0px" y="0px" enable-background="new 0 0 822.05 841.89" xml:space="preserve" viewBox="208.83 266.43 401.75 309.97">
<path fill-rule="evenodd" clip-rule="evenodd" fill="#CAA379" stroke="#000000" stroke-width="2" stroke-linecap="square" stroke-miterlimit="10" d="  M209.832,279.895c74.883-4.008,149.766-8.016,224.648-12.023c59.89-3.206,116.122,11.589,175.102,22.523  c-76.636,7.056-153.272,14.112-229.908,21.168c-19.173,1.765-49.223,10.803-67.918,4.221  C277.781,303.821,243.807,291.858,209.832,279.895z"/>
<path fill-rule="evenodd" clip-rule="evenodd" fill="#BB9771" d="M251.082,294.145l265.5-18.75L251.082,294.145z"/>
<line fill="none" stroke="#000000" stroke-width="2" stroke-linecap="square" stroke-miterlimit="10" x1="251.082" y1="294.145" x2="516.582" y2="275.395"/>
<path fill-rule="evenodd" clip-rule="evenodd" fill="#B38A37" stroke="#000000" stroke-width="2" stroke-linecap="square" stroke-miterlimit="10" d="  M210.582,282.895c1.779,63.14,3.557,126.28,5.336,189.42c1.322,46.953,64.841,75.116,99.664,103.08  c0.602-68.148,1.203-136.298,1.804-204.446c0.157-17.813,9.269-47.469-9.451-54.015  C275.483,305.588,243.033,294.242,210.582,282.895z"/>
<path fill-rule="evenodd" clip-rule="evenodd" fill="#B38A37" stroke="#000000" stroke-width="2" stroke-linecap="square" stroke-miterlimit="10" d="  M607.332,293.395c-2.303,32.583,2.75,207.776-23.461,214.383c-88.43,22.289-176.859,44.578-265.289,66.867  c0.157-26.729-4.419-255.225,3.689-255.944C417.291,310.266,512.312,301.83,607.332,293.395z"/>
</svg>