<svg xmlns="http://www.w3.org/2000/svg" xmlns:xlink="http://www.w3.org/1999/xlink" version="1.1" id="Layer_1" x="0px" y="0px" enable-background="new 0 0 822.05 841.89" xml:space="preserve" viewBox="201.04 264.66 425.23 312.5">
<path fill-rule="evenodd" clip-rule="evenodd" fill="#90D8F8" stroke="#000000" stroke-width="2" stroke-linecap="square" stroke-miterlimit="10" d="  M280.648,265.664c-27.827,63.837-68.915,139.102-75.75,209.248c-0.611,6.272-7,24.573,1.572,26.245  c25.51,4.975,51.021,9.949,76.531,14.924c45.749,8.921,87.506,4.655,96.647,55.581c5.184-6.48,25.566-40.95,35.248-42  c13.309-1.443,30.957,23.72,43.502,30.75c-3.541-5.81-3.048-14.082-6-20.25c14.5-2.489,175.518-27.805,172.839-41.032  c-6.297-31.088-12.28-61.664-21.55-91.998c-5.498-17.991-22.621-42.365-24.164-59.343c-1.422-15.64-19.574-77.033-33-73.5  c-28.769,7.57-56.767,11.906-86.25,15.375C406.12,296.035,331.786,283.922,280.648,265.664z"/>
<path fill-rule="evenodd" clip-rule="evenodd" fill="#0D529F" stroke="#000000" stroke-width="2" stroke-linecap="square" stroke-miterlimit="10" d="  M271.648,286.664c94.645,19.202,196.118,41.459,291,9c-4.597-37.367-39.566-14.016-65.25-9.75  c-25.812,4.287-51.49,4.635-77.446,2.639c-28.632-2.202-56.595-5.459-84.896-10.277  C311.105,274.199,276.249,253.165,271.648,286.664z"/>
<path fill="none" stroke="#000000" stroke-width="2" stroke-linecap="square" stroke-miterlimit="10" d="M411.896,312.164  c0,25.505,0,51.011,0,76.517c0,20.499-12.643,65.455,21.002,54.731"/>
<line fill="none" stroke="#000000" stroke-width="2" stroke-linecap="square" stroke-miterlimit="10" x1="435.898" y1="312.164" x2="435.148" y2="456.912"/>
<path fill-rule="evenodd" clip-rule="evenodd" fill="#5FADCA" stroke="#000000" stroke-width="2" stroke-linecap="square" stroke-miterlimit="10" d="  M354.148,529.662c16.979-23.553,36.868-66.383,66-71.777c29.234-5.414,33.748,56.667,42.75,77.777  c-13.361,2.486-12.925,11.112-5.25,22.5c-14.35-5.36-23.776-23.963-37.501-26.25c-11.986-1.997-31.04,29.252-38.999,38.25  C380.486,549.519,373.185,537.898,354.148,529.662z"/>
<line fill="none" stroke="#000000" stroke-width="2" stroke-linecap="square" stroke-miterlimit="10" x1="412.646" y1="461.412" x2="416.396" y2="529.662"/>
<line fill="none" stroke="#000000" stroke-width="2" stroke-linecap="square" stroke-miterlimit="10" x1="429.148" y1="457.662" x2="423.898" y2="530.412"/>
<path fill-rule="evenodd" clip-rule="evenodd" fill="#5FADCA" stroke="#000000" stroke-width="2" stroke-linecap="square" stroke-miterlimit="10" d="  M202.648,500.412c57.5,25.25,115,50.5,172.5,75.75c-0.956-40.143-15.192-45.075-52.238-52.299  C282.823,516.045,242.736,508.229,202.648,500.412z"/>
<path fill-rule="evenodd" clip-rule="evenodd" fill="#5FADCA" stroke="#000000" stroke-width="2" stroke-linecap="square" stroke-miterlimit="10" d="  M452.398,540.162c42.308-6.361,84.585-15.567,126.75-24C549.128,529.597,463.799,592.708,452.398,540.162z"/>
<path fill-rule="evenodd" clip-rule="evenodd" fill="#FFFFFF" stroke="#000000" stroke-width="2" stroke-linecap="square" stroke-miterlimit="10" d="  M429.148,354.164C415.121,363,415.121,345.327,429.148,354.164L429.148,354.164z"/>
</svg>