<svg xmlns="http://www.w3.org/2000/svg" xmlns:xlink="http://www.w3.org/1999/xlink" version="1.1" id="Layer_1" x="0px" y="0px" enable-background="new 0 0 822.05 841.89" xml:space="preserve" viewBox="206.06 279.42 407 286.97">
<path fill-rule="evenodd" clip-rule="evenodd" fill="#CAA379" stroke="#000000" stroke-width="2" stroke-linecap="square" stroke-miterlimit="10" d="  M207.059,284.145c75.589-3.958,141.07-7.909,215.252,6c-40.128,3.613-80.255,7.227-120.383,10.84  C263.805,304.418,243.935,297.246,207.059,284.145z"/>
<path fill-rule="evenodd" clip-rule="evenodd" fill="#BB9771" d="M229.559,291.645l142.5-9.75L229.559,291.645z"/>
<line fill="none" stroke="#000000" stroke-width="2" stroke-linecap="square" stroke-miterlimit="10" x1="229.559" y1="291.645" x2="372.059" y2="281.895"/>
<path fill-rule="evenodd" clip-rule="evenodd" fill="#B38A37" stroke="#000000" stroke-width="2" stroke-linecap="square" stroke-miterlimit="10" d="  M207.809,285.645c0.908,34.72,1.815,69.44,2.723,104.16c0.602,23.014,36.47,39.646,53.527,53.34  c0.415-37.913,0.829-75.825,1.243-113.738C265.696,293.327,240.744,297.194,207.809,285.645z"/>
<path fill-rule="evenodd" clip-rule="evenodd" fill="#B38A37" stroke="#000000" stroke-width="2" stroke-linecap="square" stroke-miterlimit="10" d="  M421.561,291.645c-1.2,16.58,0.657,111.739-12.015,114.956c-47.996,12.182-95.991,24.363-143.987,36.544  c0.077-14.238-2.245-137.74,1.772-138.089C318.741,300.586,370.151,296.115,421.561,291.645z"/>
<path fill-rule="evenodd" clip-rule="evenodd" fill="#CAA379" stroke="#000000" stroke-width="2" stroke-linecap="square" stroke-miterlimit="10" d="  M263.309,310.395c85.054-5.167,157.405-10.358,240.752,6c-46.673,4.767-93.345,9.533-140.017,14.299  C324.056,334.778,301.811,324.721,263.309,310.395z"/>
<path fill-rule="evenodd" clip-rule="evenodd" fill="#BB9771" d="M288.059,319.395l160.502-12L288.059,319.395z"/>
<line fill="none" stroke="#000000" stroke-width="2" stroke-linecap="square" stroke-miterlimit="10" x1="288.059" y1="319.395" x2="448.561" y2="307.395"/>
<path fill-rule="evenodd" clip-rule="evenodd" fill="#B38A37" stroke="#000000" stroke-width="2" stroke-linecap="square" stroke-miterlimit="10" d="  M264.059,311.895c0.886,40.078,1.771,80.156,2.657,120.233c0.663,30.014,38.402,47.391,60.343,65.767  c0.409-44.142,0.817-88.283,1.226-132.424C328.687,322.059,304.137,326.808,264.059,311.895z"/>
<path fill-rule="evenodd" clip-rule="evenodd" fill="#B38A37" stroke="#000000" stroke-width="2" stroke-linecap="square" stroke-miterlimit="10" d="  M503.311,318.645c-1.237,18.557,0.789,132.431-12.542,135.93c-54.07,14.19-108.14,28.38-162.21,42.57  c0.152-16.403-2.015-161.665,2.377-162.083C388.394,329.589,445.853,324.117,503.311,318.645z"/>
<path fill-rule="evenodd" clip-rule="evenodd" fill="#CAA379" stroke="#000000" stroke-width="2" stroke-linecap="square" stroke-miterlimit="10" d="  M325.559,332.895c54.917-3.459,109.833-6.918,164.749-10.378c41.5-2.614,81.092,9.619,121.753,17.878  c-54.152,5.588-108.304,11.177-162.456,16.766C398.94,362.39,374.393,351.752,325.559,332.895z"/>
<path fill-rule="evenodd" clip-rule="evenodd" fill="#BB9771" d="M354.809,343.395l190.502-15L354.809,343.395z"/>
<line fill="none" stroke="#000000" stroke-width="2" stroke-linecap="square" stroke-miterlimit="10" x1="354.809" y1="343.395" x2="545.311" y2="328.395"/>
<path fill-rule="evenodd" clip-rule="evenodd" fill="#B38A37" stroke="#000000" stroke-width="2" stroke-linecap="square" stroke-miterlimit="10" d="  M325.559,335.145c1.318,49.211,2.636,98.422,3.955,147.634c1.014,37.86,44.446,58.722,71.795,82.616  c0.395-52.84,0.789-105.679,1.183-158.519c0.084-11.348,6.758-40.043-5.405-44.648C373.244,353.201,349.401,344.173,325.559,335.145  z"/>
<path fill-rule="evenodd" clip-rule="evenodd" fill="#B38A37" stroke="#000000" stroke-width="2" stroke-linecap="square" stroke-miterlimit="10" d="  M611.311,343.395c-1.438,21.378,0.015,164.111-14.114,168.048c-64.546,17.984-129.092,35.968-193.638,53.952  c0.25-33.625,0.5-67.25,0.75-100.875c0.123-16.483-10.405-88.452,0.75-100.875c11.14-12.406,86.717-8.514,103.126-10.125  C542.56,350.145,576.936,346.77,611.311,343.395z"/>
</svg>