<svg xmlns="http://www.w3.org/2000/svg" xmlns:xlink="http://www.w3.org/1999/xlink" version="1.1" id="Layer_1" x="0px" y="0px" enable-background="new 0 0 822.05 841.89" xml:space="preserve" viewBox="332.96 338.63 155 165.51">
<path fill-rule="evenodd" clip-rule="evenodd" fill="#EED5B6" stroke="#000000" stroke-width="1.25" stroke-linecap="square" stroke-miterlimit="10" d="  M448.336,466.765c-9.583-3.131-14.727-15.234-22.5-18c-23.899-8.503-31.735,10.245-51.002,15.75  c-19.81,5.66-28.907,35.25-1.099,35.25c19.536,0,39.071,0,58.606,0C445.816,499.765,445.184,478.325,448.336,466.765z"/>
<path fill-rule="evenodd" clip-rule="evenodd" fill="#FF9900" stroke="#000000" stroke-width="1.25" stroke-linecap="square" stroke-miterlimit="10" d="  M468.586,465.265c-29.989-12.015-33.132,26.141-66.002,17.25c-17.719-4.793-19.433-21.559-35.25-21.75  c-24.19-0.292-28.946,24.076-33.75,42.75c51.25,0,102.501,0,153.752,0C482.146,490.335,478.714,475.347,468.586,465.265z"/>
<path fill-rule="evenodd" clip-rule="evenodd" fill="#EED5B6" stroke="#000000" stroke-width="1.25" stroke-linecap="square" stroke-miterlimit="10" d="  M449.836,401.515c13.937,0.141,8.664,13.683,4.5,24.75C446.202,419.767,444.338,410.599,449.836,401.515z"/>
<path fill-rule="evenodd" clip-rule="evenodd" fill="#EED5B6" stroke="#000000" stroke-width="1.25" stroke-linecap="square" stroke-miterlimit="10" d="  M368.834,409.765c-14.797,2.177-5.201,16.462,1.5,25.5C376.606,426.816,375.905,417.285,368.834,409.765z"/>
<path fill-rule="evenodd" clip-rule="evenodd" fill="#EED5B6" stroke="#000000" stroke-width="1.25" stroke-linecap="square" stroke-miterlimit="10" d="  M444.586,378.265c18.21,26.003,5.894,65.164-19.875,80.625c-32.906,19.743-52.68-30.126-60.377-52.875  C392.079,401.662,421.819,395.815,444.586,378.265z"/>
<path fill-rule="evenodd" clip-rule="evenodd" stroke="#000000" stroke-width="0.5" stroke-linecap="square" stroke-miterlimit="10" d="  M456.586,396.265c10.544-44.557-135.129-17.056-80.252,32.25c-2.88-5.335-3.028-11.412-4.5-16.5c1.861,1.31,1.284,2.896,4.5,4.5  c4.707-22.718,43.333-9.995,54.002-22.5c6.274,4.131,4.246,2.822,9.75,1.5C457.617,404.843,441.979,426.998,456.586,396.265z"/>
<path fill-rule="evenodd" clip-rule="evenodd" fill="#2F233D" stroke="#000000" stroke-width="1.5" stroke-linecap="square" stroke-miterlimit="10" d="  M443.086,381.265C486.916,407.627,477.346,362.995,443.086,381.265L443.086,381.265z"/>
<path fill-rule="evenodd" clip-rule="evenodd" fill="#D11E27" stroke="#000000" stroke-width="1.25" stroke-linecap="square" stroke-miterlimit="10" d="  M383.834,388.015c29.054,26.396,77.83-25.897,93.002,0C464.275,355.975,404.302,382.629,383.834,388.015z"/>
<path fill-rule="evenodd" clip-rule="evenodd" fill="#D11E27" stroke="#000000" stroke-width="1.25" stroke-linecap="square" stroke-miterlimit="10" d="  M451.336,373.765c-9.401-63.787-118.575-30.544-87.752,30C390.601,391.88,421.689,375.885,451.336,373.765z"/>
<path fill-rule="evenodd" clip-rule="evenodd" fill="#0D0D0D" d="M429.586,412.765c-1.558,0.42-1.322,5.345-5.25,1.5  C424.984,408.36,427.192,413.41,429.586,412.765z"/>
<path fill="none" stroke="#0D0D0D" stroke-linecap="square" stroke-miterlimit="10" d="M433.336,412.765  c-4.017-2.108-8.488-2.165-12,0"/>
<path fill="none" stroke="#0D0D0D" stroke-linecap="square" stroke-miterlimit="10" d="M420.586,424.015  c-3.643,3.583-7.829,3.803-12.002,0.75"/>
<path fill-rule="evenodd" clip-rule="evenodd" fill="#0D0D0D" d="M395.834,415.765c2.268,0.236,2.654,6.142,5.25,0  C399.124,410.972,397.736,415.963,395.834,415.765z"/>
<path fill="none" stroke="#0D0D0D" stroke-linecap="square" stroke-miterlimit="10" d="M392.084,416.515  c3.663-3.134,7.733-4.058,12-2.25"/>
<path fill="none" stroke="#000000" stroke-width="1.25" stroke-linecap="square" stroke-miterlimit="10" d="M397.334,439.765  c10.026,3.861,20.801,3.788,30.002-1.5"/>
</svg>