<svg xmlns="http://www.w3.org/2000/svg" xmlns:xlink="http://www.w3.org/1999/xlink" version="1.1" id="Layer_1" x="0px" y="0px" enable-background="new 0 0 822.05 841.89" xml:space="preserve" viewBox="302.15 354.85 217.25 135.3">
<path fill-rule="evenodd" clip-rule="evenodd" fill="#EED5B6" stroke="#000000" stroke-width="1.25" stroke-linecap="square" stroke-miterlimit="10" d="  M396.521,459.521c-11.877-6.61-16.78-15.062-30.75-14.625c-13.792,0.431-16.197,9.088-29.625,12.75  c-12.93,3.526-24.988,28.875-4.796,28.875C369.782,486.521,385.938,497.623,396.521,459.521z"/>
<path fill-rule="evenodd" clip-rule="evenodd" fill="#FF9900" stroke="#000000" stroke-width="1.25" stroke-linecap="square" stroke-miterlimit="10" d="  M412.271,458.021c-22.546-11.625-29.336,24.115-55.875,13.5c-11.963-4.785-14.512-17.065-25.875-17.25  c-19.37-0.314-25.43,19.673-27.75,35.25c41.5,0,83.001,0,124.502,0C423.919,478.153,419.896,467.01,412.271,458.021z"/>
<path fill-rule="evenodd" clip-rule="evenodd" fill="#EED5B6" stroke="#000000" stroke-width="1.25" stroke-linecap="square" stroke-miterlimit="10" d="  M397.271,406.269c10.128,1.641,8.452,10.854,3.75,20.252C392.693,420.056,395.331,414.922,397.271,406.269z"/>
<path fill-rule="evenodd" clip-rule="evenodd" fill="#EED5B6" stroke="#000000" stroke-width="1.25" stroke-linecap="square" stroke-miterlimit="10" d="  M331.271,413.019c-10.154,3.306-5.923,12.215,0.75,21.002C337.882,426.412,335.491,420.625,331.271,413.019z"/>
<path fill-rule="evenodd" clip-rule="evenodd" fill="#EED5B6" stroke="#000000" stroke-width="1.25" stroke-linecap="square" stroke-miterlimit="10" d="  M392.771,387.519c32.452,45.723-39.65,103.476-65.25,22.5C350.445,406.617,373.812,401.552,392.771,387.519z"/>
<path fill-rule="evenodd" clip-rule="evenodd" fill="#3F2906" stroke="#000000" stroke-width="0.5" stroke-linecap="square" stroke-miterlimit="10" d="  M402.521,401.769c9.149-33.292-109.615-16.648-65.25,27.002c-2.16-3.568-2.835-9.969-3.75-13.502c-0.07-0.006,0.964,7.133,3.75,3  c6.646-15.69,41.58-14.802,51.75-17.25c6.026,6.655,7.284,6.007,6.75,17.25C397.947,414.688,401.276,407.691,402.521,401.769z"/>
<path fill-rule="evenodd" clip-rule="evenodd" fill="#0A0FFF" stroke="#000000" stroke-width="1.5" stroke-linecap="square" stroke-miterlimit="10" d="  M392.021,389.769C427.125,414.476,419.971,372.158,392.021,389.769L392.021,389.769z"/>
<path fill-rule="evenodd" clip-rule="evenodd" fill="#0A0F7C" stroke="#000000" stroke-width="1.25" stroke-linecap="square" stroke-miterlimit="10" d="  M343.271,395.019c25.785,24.128,58.327-21.895,76.502,0C406.87,370.103,361.64,390.329,343.271,395.019z"/>
<path fill-rule="evenodd" clip-rule="evenodd" fill="#0A0F7C" stroke="#000000" stroke-width="1.25" stroke-linecap="square" stroke-miterlimit="10" d="  M398.771,383.769c-9.765-52.562-96.404-24.491-72,24C349.271,398.43,374.218,385.221,398.771,383.769z"/>
<path fill-rule="evenodd" clip-rule="evenodd" fill="#0D0D0D" d="M380.771,415.269c-1.711,0.614-0.989,5.493-4.5,1.5  C376.779,411.508,378.617,416.043,380.771,415.269z"/>
<path fill="none" stroke="#0D0D0D" stroke-linecap="square" stroke-miterlimit="10" d="M383.771,415.269  c-3.199-1.975-6.62-2.013-9.75,0"/>
<path fill="none" stroke="#0D0D0D" stroke-linecap="square" stroke-miterlimit="10" d="M373.271,425.021  c-2.911,2.463-6.382,2.668-9.75,0.75"/>
<path fill-rule="evenodd" clip-rule="evenodd" fill="#0D0D0D" d="M353.021,418.269C357.999,418.248,358.328,418.247,353.021,418.269  L353.021,418.269z"/>
<path fill="none" stroke="#0D0D0D" stroke-linecap="square" stroke-miterlimit="10" d="M350.021,418.269  c3-1.918,6.543-2.543,9.75-1.5"/>
<path fill="none" stroke="#000000" stroke-width="1.25" stroke-linecap="square" stroke-miterlimit="10" d="M354.521,437.021  c7.889,4.025,16.434,3.83,24-0.75"/>
<path fill-rule="evenodd" clip-rule="evenodd" fill="#EED5B6" stroke="#000000" stroke-width="1.25" stroke-linecap="square" stroke-miterlimit="10" d="  M488.023,459.521c-27.65-15.527-31.589-12.718-60.375-2.25c-12.343,4.488-25.34,29.25-4.796,29.25  C461.284,486.521,477.439,497.623,488.023,459.521z"/>
<path fill-rule="evenodd" clip-rule="evenodd" fill="#FF9900" stroke="#000000" stroke-width="1.25" stroke-linecap="square" stroke-miterlimit="10" d="  M503.773,458.021c-23.284-12.678-29.063,24.225-55.875,13.5c-12.354-4.941-14.417-17.427-26.625-17.25  c-18.639,0.27-24.719,19.192-27.002,34.5c41.501,0,83.001,0,124.502,0C515.422,477.632,511.479,466.701,503.773,458.021z"/>
<path fill-rule="evenodd" clip-rule="evenodd" fill="#EED5B6" stroke="#000000" stroke-width="1.25" stroke-linecap="square" stroke-miterlimit="10" d="  M488.773,406.269c9.742,1.462,8.476,9.831,3.75,19.502C484.15,420.164,486.794,414.699,488.773,406.269z"/>
<path fill-rule="evenodd" clip-rule="evenodd" fill="#EED5B6" stroke="#000000" stroke-width="1.25" stroke-linecap="square" stroke-miterlimit="10" d="  M422.023,412.269c-9.132,4.436-5.369,12.952,1.5,21.002C429.489,425.753,427.23,419.711,422.023,412.269z"/>
<path fill-rule="evenodd" clip-rule="evenodd" fill="#EED5B6" stroke="#000000" stroke-width="1.25" stroke-linecap="square" stroke-miterlimit="10" d="  M484.273,386.769c32.177,47.104-40.166,104.014-65.25,22.5C442.052,405.852,465.504,401.288,484.273,386.769z"/>
<path fill-rule="evenodd" clip-rule="evenodd" stroke="#000000" stroke-width="0.5" stroke-linecap="square" stroke-miterlimit="10" d="  M494.023,401.769c9.803-35.508-111.034-14.22-65.25,26.252c-2.432-4.24-2.789-9.295-3.75-13.502c-0.271-0.077,0.874,6.745,3.75,3.75  c5.975-16.342,32.045-10.324,44.25-18.75c7.252,2.723,2.171,2.761,7.5,1.5c6.234,5.814,7.511,5.91,6,17.25  C489.365,414.42,492.662,407.427,494.023,401.769z"/>
<path fill-rule="evenodd" clip-rule="evenodd" fill="#0D0D0D" d="M472.273,415.269C467.433,415.925,466.716,416.022,472.273,415.269  L472.273,415.269z"/>
<path fill="none" stroke="#0D0D0D" stroke-linecap="square" stroke-miterlimit="10" d="M475.273,415.269  c-3.199-1.975-6.62-2.013-9.75,0"/>
<path fill="none" stroke="#0D0D0D" stroke-linecap="square" stroke-miterlimit="10" d="M464.773,424.271  c-2.813,3.003-6.388,3.204-9.75,0.75"/>
<path fill-rule="evenodd" clip-rule="evenodd" fill="#0D0D0D" d="M444.523,417.519C450.101,418.262,448.474,418.045,444.523,417.519  L444.523,417.519z"/>
<path fill="none" stroke="#0D0D0D" stroke-linecap="square" stroke-miterlimit="10" d="M441.523,418.269  c2.934-2.765,6.36-3.453,9.75-1.5"/>
<path fill="none" stroke="#000000" stroke-width="1.25" stroke-linecap="square" stroke-miterlimit="10" d="M446.023,440.771  c7.874,2.413,16.357,2.172,24-0.75"/>
<path fill-rule="evenodd" clip-rule="evenodd" stroke="#000000" stroke-width="0.5" stroke-linecap="square" stroke-miterlimit="10" d="  M448.273,393.519c-3.812,8.974-21.75,15.252-21.75,0S444.462,384.545,448.273,393.519z"/>
<path fill-rule="evenodd" clip-rule="evenodd" stroke="#000000" stroke-width="0.5" stroke-linecap="square" stroke-miterlimit="10" d="  M458.773,384.519C443.091,412.624,442.093,357.923,458.773,384.519L458.773,384.519z"/>
<path fill-rule="evenodd" clip-rule="evenodd" stroke="#000000" stroke-width="0.5" stroke-linecap="square" stroke-miterlimit="10" d="  M469.273,379.269C449.715,424.083,449.08,335.816,469.273,379.269L469.273,379.269z"/>
<path fill-rule="evenodd" clip-rule="evenodd" stroke="#000000" stroke-width="0.5" stroke-linecap="square" stroke-miterlimit="10" d="  M479.773,379.269C462.591,402.26,466.431,355.474,479.773,379.269L479.773,379.269z"/>
<path fill-rule="evenodd" clip-rule="evenodd" stroke="#000000" stroke-width="0.5" stroke-linecap="square" stroke-miterlimit="10" d="  M485.023,379.269C472.326,394.709,472.264,364.567,485.023,379.269L485.023,379.269z"/>
<path fill-rule="evenodd" clip-rule="evenodd" stroke="#000000" stroke-width="0.5" stroke-linecap="square" stroke-miterlimit="10" d="  M432.523,381.519C452.127,415.547,452.087,347.958,432.523,381.519L432.523,381.519z"/>
<path fill-rule="evenodd" clip-rule="evenodd" stroke="#000000" stroke-width="0.5" stroke-linecap="square" stroke-miterlimit="10" d="  M419.773,389.019C433.124,404.212,432.986,373.079,419.773,389.019L419.773,389.019z"/>
<path fill-rule="evenodd" clip-rule="evenodd" stroke="#000000" stroke-width="0.5" stroke-linecap="square" stroke-miterlimit="10" d="  M422.023,386.769C444.071,430.265,447.27,344.578,422.023,386.769L422.023,386.769z"/>
<path fill-rule="evenodd" clip-rule="evenodd" stroke="#000000" stroke-width="0.5" stroke-linecap="square" stroke-miterlimit="10" d="  M419.023,397.269C432.886,402.723,432.829,392.186,419.023,397.269L419.023,397.269z"/>
<path fill-rule="evenodd" clip-rule="evenodd" stroke="#000000" stroke-width="0.5" stroke-linecap="square" stroke-miterlimit="10" d="  M455.773,375.519C436.744,359.635,437.024,391.948,455.773,375.519L455.773,375.519z"/>
<path fill-rule="evenodd" clip-rule="evenodd" stroke="#000000" stroke-width="0.5" stroke-linecap="square" stroke-miterlimit="10" d="  M445.273,376.269C425.412,344.094,426.672,409.163,445.273,376.269L445.273,376.269z"/>
<path fill-rule="evenodd" clip-rule="evenodd" stroke="#000000" stroke-width="0.5" stroke-linecap="square" stroke-miterlimit="10" d="  M476.023,371.019C454.957,343.878,454.933,398.231,476.023,371.019L476.023,371.019z"/>
<path fill-rule="evenodd" clip-rule="evenodd" stroke="#000000" stroke-width="0.5" stroke-linecap="square" stroke-miterlimit="10" d="  M458.773,369.519C440.505,359.149,440.374,380.243,458.773,369.519L458.773,369.519z"/>
<path fill-rule="evenodd" clip-rule="evenodd" stroke="#000000" stroke-width="0.5" stroke-linecap="square" stroke-miterlimit="10" d="  M451.273,369.519C438.381,367.206,438.436,372.083,451.273,369.519L451.273,369.519z"/>
<path fill-rule="evenodd" clip-rule="evenodd" stroke="#000000" stroke-width="0.5" stroke-linecap="square" stroke-miterlimit="10" d="  M492.523,382.269c-5.94,2.409-10.478,5.296-17.25,0C482.261,375.949,486.31,379.538,492.523,382.269z"/>
<path fill-rule="evenodd" clip-rule="evenodd" stroke="#000000" stroke-width="0.5" stroke-linecap="square" stroke-miterlimit="10" d="  M494.773,389.769C471.41,426.863,471.917,352.396,494.773,389.769L494.773,389.769z"/>
</svg>