<svg xmlns="http://www.w3.org/2000/svg" xmlns:xlink="http://www.w3.org/1999/xlink" version="1.1" id="Layer_1" x="0px" y="0px" enable-background="new 0 0 822.05 841.89" xml:space="preserve" viewBox="216.7 252.42 388.07 337.12">
<path fill-rule="evenodd" clip-rule="evenodd" fill="#F8C0D9" stroke="#000000" stroke-width="2" stroke-linecap="square" stroke-miterlimit="10" d="  M255.25,254.438c0,38.882,6.295,83.094-4.5,120c-10.789,36.885-29.986,69.546-32.625,109.125c-4.766,71.489,30.962,117.407,108,102  c96.258-19.252,49.475-70.231,13.689-129.532c-27.993-46.389-36.564-60.49-36.564-113.673c0-27.127,0-54.254,0-81.381  C303.25,251.376,264.614,254.877,255.25,254.438z"/>
<path fill-rule="evenodd" clip-rule="evenodd" fill="#F8C0D9" stroke="#000000" stroke-width="2" stroke-linecap="square" stroke-miterlimit="10" d="  M465.25,555.188c-8.876,0-100.095,6.501-76.5-18C398.781,526.772,473.315,527.047,465.25,555.188z"/>
<path fill-rule="evenodd" clip-rule="evenodd" fill="#F8C0D9" stroke="#000000" stroke-width="2" stroke-linecap="square" stroke-miterlimit="10" d="  M565.75,254.438c0,40.354-8.295,88.014,6.75,125.625c13.984,34.96,27.561,71.267,30.75,109.125  c5.9,70.023-38.533,110.344-108.375,96.375c-18.646-3.729-57.801-15.023-62.625-36.375c-5.558-24.6,31.651-65.758,42.564-83.843  C501.102,421.784,517,402.387,517,352.816c0-28.948,0-57.896,0-86.843C517,247.362,550.16,255.158,565.75,254.438z"/>
<path fill-rule="evenodd" clip-rule="evenodd" fill="#F8C0D9" d="M239.5,482.438c-6.646,55.689,28.729,89.648,83.25,78.75  C295,534.938,267.25,508.688,239.5,482.438z"/>
<path fill="none" stroke="#000000" stroke-width="2" stroke-linecap="square" stroke-miterlimit="10" d="M239.5,482.438  c-6.646,55.689,28.729,89.648,83.25,78.75"/>
<path fill="none" stroke="#000000" stroke-width="2" stroke-linecap="square" stroke-miterlimit="10" d="M582.25,486.938  c-1.843,39.957-24.121,92.646-72.75,72"/>
</svg>