<svg xmlns="http://www.w3.org/2000/svg" xmlns:xlink="http://www.w3.org/1999/xlink" version="1.1" id="Layer_1" x="0px" y="0px" enable-background="new 0 0 822.05 841.89" xml:space="preserve" viewBox="222.25 258.18 376.25 328.72">
<path fill-rule="evenodd" clip-rule="evenodd" fill="#D01679" stroke="#000000" stroke-width="2" stroke-linecap="square" stroke-miterlimit="10" d="  M316.25,533.921c-1.712,23.825-37.5,24.427-37.5,0S314.538,510.096,316.25,533.921z"/>
<path fill-rule="evenodd" clip-rule="evenodd" fill="#D01679" stroke="#000000" stroke-width="2" stroke-linecap="square" stroke-miterlimit="10" d="  M405.502,567.671c-1.436,22.831-36.752,25.066-36.752,1.875C368.75,544.603,403.241,542.812,405.502,567.671z"/>
<path fill-rule="evenodd" clip-rule="evenodd" fill="#D01679" stroke="#000000" stroke-width="2" stroke-linecap="square" stroke-miterlimit="10" d="  M506.75,556.421c-1.896,23.733-32.595,24.527-37.125,1.875C464.819,534.266,504.489,530.547,506.75,556.421z"/>
<path fill-rule="evenodd" clip-rule="evenodd" fill="#D01679" stroke="#000000" stroke-width="2" stroke-linecap="square" stroke-miterlimit="10" d="  M574.25,504.671c-2.445,22.96-36.325,24.062-36.75,0C537.068,480.244,572.864,480.626,574.25,504.671z"/>
<path fill-rule="evenodd" clip-rule="evenodd" fill="#D01679" stroke="#000000" stroke-width="2" stroke-linecap="square" stroke-miterlimit="10" d="  M597.5,434.171c-3.302,24.985-37.5,23.062-37.5-1.875C560,408.154,595.039,412.347,597.5,434.171z"/>
<path fill-rule="evenodd" clip-rule="evenodd" fill="#D01679" stroke="#000000" stroke-width="2" stroke-linecap="square" stroke-miterlimit="10" d="  M571.25,362.169c-1.933,24.186-37.901,24.595-37.5,0C534.144,338.049,568.602,338.853,571.25,362.169z"/>
<path fill-rule="evenodd" clip-rule="evenodd" fill="#D01679" stroke="#000000" stroke-width="2" stroke-linecap="square" stroke-miterlimit="10" d="  M507.5,305.919c-1.31,23.982-37.5,24.046-37.5,0S506.19,281.937,507.5,305.919z"/>
<path fill-rule="evenodd" clip-rule="evenodd" fill="#D01679" stroke="#000000" stroke-width="2" stroke-linecap="square" stroke-miterlimit="10" d="  M314.75,332.169c-2.589,23.142-37.299,24.712-37.5,0C277.047,307.153,312.109,308.756,314.75,332.169z"/>
<path fill-rule="evenodd" clip-rule="evenodd" fill="#D1D1D2" stroke="#000000" stroke-width="2" stroke-linecap="square" stroke-miterlimit="10" d="  M437.75,305.919c-1.412,48.425-87.64,48.322-87.75,0C349.888,256.958,437.704,256.736,437.75,305.919z"/>
<path fill-rule="evenodd" clip-rule="evenodd" fill="#FFFFFF" stroke="#000000" stroke-width="2" stroke-linecap="square" stroke-miterlimit="10" d="  M428,303.669c-1.891,38.387-69.147,38.715-69,0C359.146,265.324,425.105,266.063,428,303.669z"/>
<path fill-rule="evenodd" clip-rule="evenodd" fill="#D01679" stroke="#000000" stroke-width="2" stroke-linecap="square" stroke-miterlimit="10" d="  M263.75,394.419c-1.485,23.672-32.64,24.302-37.125,1.875C221.896,372.65,261.431,368.88,263.75,394.419z"/>
<path fill-rule="evenodd" clip-rule="evenodd" fill="#D01679" stroke="#000000" stroke-width="2" stroke-linecap="square" stroke-miterlimit="10" d="  M260.75,469.421c-2.461,21.822-37.5,26.015-37.5,1.875C223.25,445.915,257.978,444.638,260.75,469.421z"/>
<path fill-rule="evenodd" clip-rule="evenodd" fill="#F8C0D9" stroke="#000000" stroke-width="2" stroke-linecap="square" stroke-miterlimit="10" d="  M260.75,490.421C243.531,509.433,243.531,471.41,260.75,490.421L260.75,490.421z"/>
<path fill-rule="evenodd" clip-rule="evenodd" fill="#F8C0D9" stroke="#000000" stroke-width="2" stroke-linecap="square" stroke-miterlimit="10" d="  M244.25,446.171C227.031,465.183,227.031,427.16,244.25,446.171L244.25,446.171z"/>
<path fill-rule="evenodd" clip-rule="evenodd" fill="#F8C0D9" stroke="#000000" stroke-width="2" stroke-linecap="square" stroke-miterlimit="10" d="  M243.5,433.421C226.593,452.697,226.593,414.146,243.5,433.421L243.5,433.421z"/>
<path fill-rule="evenodd" clip-rule="evenodd" fill="#F8C0D9" stroke="#000000" stroke-width="2" stroke-linecap="square" stroke-miterlimit="10" d="  M243.5,419.919C226.506,438.664,226.704,400.751,243.5,419.919L243.5,419.919z"/>
<path fill-rule="evenodd" clip-rule="evenodd" fill="#F8C0D9" stroke="#000000" stroke-width="2" stroke-linecap="square" stroke-miterlimit="10" d="  M285.5,348.669C268.281,367.681,268.281,329.658,285.5,348.669L285.5,348.669z"/>
<path fill-rule="evenodd" clip-rule="evenodd" fill="#F8C0D9" stroke="#000000" stroke-width="2" stroke-linecap="square" stroke-miterlimit="10" d="  M321.5,312.669C304.281,331.681,304.281,293.658,321.5,312.669L321.5,312.669z"/>
<path fill-rule="evenodd" clip-rule="evenodd" fill="#878787" stroke="#000000" stroke-width="2" stroke-linecap="square" stroke-miterlimit="10" d="  M372.5,264.669C355.281,283.681,355.281,245.658,372.5,264.669L372.5,264.669z"/>
<path fill-rule="evenodd" clip-rule="evenodd" fill="#878787" stroke="#000000" stroke-width="2" stroke-linecap="square" stroke-miterlimit="10" d="  M465.5,322.419C450.343,342.678,448.855,303.261,465.5,322.419L465.5,322.419z"/>
<path fill-rule="evenodd" clip-rule="evenodd" fill="#F8C0D9" stroke="#000000" stroke-width="2" stroke-linecap="square" stroke-miterlimit="10" d="  M470.75,303.669C449.62,339.33,453.16,266.477,470.75,303.669L470.75,303.669z"/>
<path fill-rule="evenodd" clip-rule="evenodd" fill="#878787" stroke="#000000" stroke-width="2" stroke-linecap="square" stroke-miterlimit="10" d="  M348.5,298.419c-3.331,17.578-28.414,19.507-29.25,0C318.384,278.223,345.161,280.28,348.5,298.419z"/>
<path fill-rule="evenodd" clip-rule="evenodd" fill="#FFFFFF" stroke="#000000" stroke-width="2" stroke-linecap="square" stroke-miterlimit="10" d="  M343.25,298.419C323.302,334.831,326.634,260.562,343.25,298.419L343.25,298.419z"/>
<path fill-rule="evenodd" clip-rule="evenodd" fill="#F8C0D9" stroke="#000000" stroke-width="2" stroke-linecap="square" stroke-miterlimit="10" d="  M273.5,359.169C257.416,378.412,257.416,339.927,273.5,359.169L273.5,359.169z"/>
<path fill-rule="evenodd" clip-rule="evenodd" fill="#F8C0D9" stroke="#000000" stroke-width="2" stroke-linecap="square" stroke-miterlimit="10" d="  M266,370.419C249.504,388.898,249.504,351.941,266,370.419L266,370.419z"/>
<path fill-rule="evenodd" clip-rule="evenodd" fill="#F8C0D9" stroke="#000000" stroke-width="2" stroke-linecap="square" stroke-miterlimit="10" d="  M271.25,503.171C254.706,521.427,254.706,484.916,271.25,503.171L271.25,503.171z"/>
<path fill-rule="evenodd" clip-rule="evenodd" fill="#F8C0D9" stroke="#000000" stroke-width="2" stroke-linecap="square" stroke-miterlimit="10" d="  M326.75,548.921C309.531,567.933,309.531,529.91,326.75,548.921L326.75,548.921z"/>
<path fill-rule="evenodd" clip-rule="evenodd" fill="#F8C0D9" stroke="#000000" stroke-width="2" stroke-linecap="square" stroke-miterlimit="10" d="  M548.75,527.171C531.531,546.183,531.531,508.16,548.75,527.171L548.75,527.171z"/>
<path fill-rule="evenodd" clip-rule="evenodd" fill="#F8C0D9" stroke="#000000" stroke-width="2" stroke-linecap="square" stroke-miterlimit="10" d="  M536.75,536.171C519.531,555.183,519.531,517.16,536.75,536.171L536.75,536.171z"/>
<path fill-rule="evenodd" clip-rule="evenodd" fill="#F8C0D9" stroke="#000000" stroke-width="2" stroke-linecap="square" stroke-miterlimit="10" d="  M584,454.421C567.093,473.697,567.093,435.146,584,454.421L584,454.421z"/>
<path fill-rule="evenodd" clip-rule="evenodd" fill="#F8C0D9" stroke="#000000" stroke-width="2" stroke-linecap="square" stroke-miterlimit="10" d="  M584,468.671C567.504,487.15,567.504,450.193,584,468.671L584,468.671z"/>
<path fill-rule="evenodd" clip-rule="evenodd" fill="#F8C0D9" stroke="#000000" stroke-width="2" stroke-linecap="square" stroke-miterlimit="10" d="  M571.25,380.169C552.768,399.443,556.637,360.536,571.25,380.169L571.25,380.169z"/>
<path fill-rule="evenodd" clip-rule="evenodd" fill="#F8C0D9" stroke="#000000" stroke-width="2" stroke-linecap="square" stroke-miterlimit="10" d="  M577.25,392.919C560.031,411.931,560.031,373.908,577.25,392.919L577.25,392.919z"/>
<path fill-rule="evenodd" clip-rule="evenodd" fill="#F8C0D9" stroke="#000000" stroke-width="2" stroke-linecap="square" stroke-miterlimit="10" d="  M583.25,407.919C566.031,426.931,566.031,388.908,583.25,407.919L583.25,407.919z"/>
<path fill-rule="evenodd" clip-rule="evenodd" fill="#F8C0D9" stroke="#000000" stroke-width="2" stroke-linecap="square" stroke-miterlimit="10" d="  M518,317.169C501.093,336.445,501.093,297.894,518,317.169L518,317.169z"/>
<path fill-rule="evenodd" clip-rule="evenodd" fill="#F8C0D9" stroke="#000000" stroke-width="2" stroke-linecap="square" stroke-miterlimit="10" d="  M530,329.169C512.893,348.051,512.682,310.7,530,329.169L530,329.169z"/>
<path fill-rule="evenodd" clip-rule="evenodd" fill="#F8C0D9" stroke="#000000" stroke-width="2" stroke-linecap="square" stroke-miterlimit="10" d="  M540.5,341.919C525.967,361.445,521.995,323.042,540.5,341.919L540.5,341.919z"/>
<path fill-rule="evenodd" clip-rule="evenodd" fill="#F8C0D9" stroke="#000000" stroke-width="2" stroke-linecap="square" stroke-miterlimit="10" d="  M581,481.421C563.781,500.433,563.781,462.41,581,481.421L581,481.421z"/>
<path fill-rule="evenodd" clip-rule="evenodd" fill="#F8C0D9" stroke="#000000" stroke-width="2" stroke-linecap="square" stroke-miterlimit="10" d="  M346.25,557.171C328.318,598.474,326.906,517.288,346.25,557.171L346.25,557.171z"/>
<path fill-rule="evenodd" clip-rule="evenodd" fill="#F8C0D9" stroke="#000000" stroke-width="2" stroke-linecap="square" stroke-miterlimit="10" d="  M366.5,563.921C347.876,604.456,347.876,523.387,366.5,563.921L366.5,563.921z"/>
<path fill-rule="evenodd" clip-rule="evenodd" fill="#F8C0D9" stroke="#000000" stroke-width="2" stroke-linecap="square" stroke-miterlimit="10" d="  M447.5,572.171C429.882,613.14,429.882,531.203,447.5,572.171L447.5,572.171z"/>
<path fill-rule="evenodd" clip-rule="evenodd" fill="#F8C0D9" stroke="#000000" stroke-width="2" stroke-linecap="square" stroke-miterlimit="10" d="  M428,571.421C409.378,611.954,409.378,530.889,428,571.421L428,571.421z"/>
<path fill-rule="evenodd" clip-rule="evenodd" fill="#F8C0D9" stroke="#000000" stroke-width="2" stroke-linecap="square" stroke-miterlimit="10" d="  M525.5,548.171C506.876,588.706,506.876,507.637,525.5,548.171L525.5,548.171z"/>
<path fill-rule="evenodd" clip-rule="evenodd" fill="#F8C0D9" stroke="#000000" stroke-width="2" stroke-linecap="square" stroke-miterlimit="10" d="  M470,569.921C451.376,610.456,451.376,529.387,470,569.921L470,569.921z"/>
<path fill-rule="evenodd" clip-rule="evenodd" fill="#F8C0D9" stroke="#000000" stroke-width="2" stroke-linecap="square" stroke-miterlimit="10" d="  M283.25,515.921C265.932,534.39,266.143,497.041,283.25,515.921L283.25,515.921z"/>
<path fill-rule="evenodd" clip-rule="evenodd" fill="#D1D1D2" stroke="#000000" stroke-width="2" stroke-linecap="square" stroke-miterlimit="10" d="  M372.5,264.669c29.528,15.922,59.362,31.371,88.5,48c-1.45,1.711-9.424,8.932-10.5,9.75  C433.512,312.195,365.252,283.873,372.5,264.669z"/>
</svg>