<svg xmlns="http://www.w3.org/2000/svg" xmlns:xlink="http://www.w3.org/1999/xlink" version="1.1" id="Layer_1" x="0px" y="0px" enable-background="new 0 0 822.05 841.89" xml:space="preserve" viewBox="257.71 252.07 304.2 340.82">
<path fill-rule="evenodd" clip-rule="evenodd" fill="#E7B989" stroke="#000000" stroke-width="2" stroke-linecap="square" stroke-miterlimit="10" d="  M397.002,260.39c-77.637,7.689-96.924,79.239-115.502,141.75c-4.328,14.562-16.6,31.994-16.5,48.75  c0.02,3.316-13.104,11.941-1.5,13.875c15.539,2.59,11.934,18.953,17.625,33.75c24.464,63.607,61.543,93.375,129.001,93.375  c76.292,0,126.298-52.422,136.874-125.25c27.937,7.347,6.049-39.855,0.75-54.75c-4.698-13.206-11.793-6.527-10.875-22.125  c1.209-20.556-2.215-41.557-10.875-60.375c-13.46-29.248-37.448-48.211-67.125-59.625  C441.224,262.976,413.33,242.117,397.002,260.39z"/>
<path fill-rule="evenodd" clip-rule="evenodd" fill="#BB9771" stroke="#000000" stroke-width="2" stroke-linecap="square" stroke-miterlimit="10" d="  M307.75,364.64c5.697-36.385,17.005-66.118,50.25-79.5c28.225-11.361,44.226-22.766,69.75-13.5c19.234,6.983,55.528,12.043,67.5,30  c21.159,31.739,29.084,87.369,33.583,124.861c10.093,84.102-33.457,160.212-128.831,152.264  c-102.007-8.501-125.704-111.128-99.377-195.375C302.623,376.999,304.989,370.75,307.75,364.64z"/>
<path fill-rule="evenodd" clip-rule="evenodd" fill="#E28777" stroke="#000000" stroke-width="2" stroke-linecap="square" stroke-miterlimit="10" d="  M407.502,321.89c-11.058-21.726-39.234-5.234-52.502,6.375c-28.948,25.33-44.047,65.815-49.5,103.125  c-8.408,57.524,19.051,136.5,90.002,136.5C416.636,567.89,412.646,352.703,407.502,321.89z"/>
<path fill-rule="evenodd" clip-rule="evenodd" fill="#E28777" d="M313,405.14c7.541-7.541,42.981-27.635,49.5-6  c3.705,12.296-38.81,1.68-39.75,25.5c-11.023-0.008-4.027-8.149-14.25,4.5C309.999,421.148,311.288,413.088,313,405.14z"/>
<path fill="none" stroke="#000000" stroke-width="2" stroke-linecap="square" stroke-miterlimit="10" d="M313,405.14  c7.541-7.541,42.981-27.635,49.5-6c3.705,12.296-38.81,1.68-39.75,25.5c-8.577-10.413-8.64-2.441-14.25,4.5"/>
<path fill-rule="evenodd" clip-rule="evenodd" fill="#E28777" d="M306.25,450.89c9.69-4.175,4.819-9.026,13.5-15  c2.846-1.958,11.299,2.719,16.5-0.75c5.028-3.353,4.41-13.543,11.25-15.75c3.653-1.179,14.333,3.258,15,3  c10.44-4.024,13.289-3.096,24.75-12.75c9.306-7.839,9.011-13.318,18.752-16.5C372.751,412.39,339.5,431.64,306.25,450.89z"/>
<path fill="none" stroke="#000000" stroke-width="2" stroke-linecap="square" stroke-miterlimit="10" d="M306.25,450.89  c9.69-4.175,4.819-9.026,13.5-15c2.846-1.958,11.299,2.719,16.5-0.75c5.028-3.353,4.41-13.543,11.25-15.75  c3.653-1.179,14.333,3.258,15,3c10.44-4.024,13.289-3.096,24.75-12.75c9.306-7.839,9.011-13.318,18.752-16.5"/>
<path fill="none" stroke="#000000" stroke-width="2" stroke-linecap="square" stroke-miterlimit="10" d="M328,368.39  c7.783,6.158,10.787,14.521,7.5,23.25"/>
<path fill-rule="evenodd" clip-rule="evenodd" fill="#E28777" d="M339.25,379.64c11.296-14.41,29.88-9.396,45.75-15  C369.75,369.64,354.5,374.64,339.25,379.64z"/>
<path fill="none" stroke="#000000" stroke-width="2" stroke-linecap="square" stroke-miterlimit="10" d="M339.25,379.64  c11.296-14.41,29.88-9.396,45.75-15"/>
<path fill-rule="evenodd" clip-rule="evenodd" fill="#E28777" d="M355,368.39c2.046-6.17,27.34-21.91,35.25-17.25  c9.806,5.776,1.062,20.179,3.752,29.25C381.001,376.39,368,372.39,355,368.39z"/>
<path fill="none" stroke="#000000" stroke-width="2" stroke-linecap="square" stroke-miterlimit="10" d="M355,368.39  c2.046-6.17,27.34-21.91,35.25-17.25c9.806,5.776,1.062,20.179,3.752,29.25"/>
<path fill-rule="evenodd" clip-rule="evenodd" fill="#E28777" d="M388.75,371.39c-11.536,2.871-21.25,5.497-31.5,9.75  C367.75,377.89,378.25,374.64,388.75,371.39z"/>
<path fill="none" stroke="#000000" stroke-width="2" stroke-linecap="square" stroke-miterlimit="10" d="M388.75,371.39  c-11.536,2.871-21.25,5.497-31.5,9.75"/>
<path fill-rule="evenodd" clip-rule="evenodd" fill="#E28777" d="M381.25,384.14c-26.085-2.505-22.821,31.576,1.5,30.75  C382.25,404.64,381.75,394.39,381.25,384.14z"/>
<path fill="none" stroke="#000000" stroke-width="2" stroke-linecap="square" stroke-miterlimit="10" d="M381.25,384.14  c-26.085-2.505-22.821,31.576,1.5,30.75"/>
<path fill-rule="evenodd" clip-rule="evenodd" fill="#E28777" d="M370,396.14c10.938-0.888,30.507-3.513,35.252-15.375  c2.441-6.102,1.845-12.928-4.5-16.875C394.151,359.785,375.1,389.938,370,396.14z"/>
<path fill="none" stroke="#000000" stroke-width="2" stroke-linecap="square" stroke-miterlimit="10" d="M370,396.14  c14.774-1.2,56.529-17.477,27.752-33.75"/>
<path fill-rule="evenodd" clip-rule="evenodd" fill="#E28777" d="M335.5,435.89c5.684,5.975,23.688,12.518,33,9.75  c12.28-3.65,21.291-21.582,23.496-22.062C373.164,427.681,354.332,431.786,335.5,435.89z"/>
<path fill="none" stroke="#000000" stroke-width="2" stroke-linecap="square" stroke-miterlimit="10" d="M335.5,435.89  c21.358,22.454,44.973,3.9,58.502-12.75"/>
<path fill="none" stroke="#000000" stroke-width="2" stroke-linecap="square" stroke-miterlimit="10" d="M385,440.39  c3.047,0.226,5.5,1.812,6.75,4.5"/>
<path fill-rule="evenodd" clip-rule="evenodd" fill="#E28777" d="M367.75,446.39c-2.468,18.616,8.107,35.948,27.752,36.75  C386.251,470.89,377,458.64,367.75,446.39z"/>
<path fill="none" stroke="#000000" stroke-width="2" stroke-linecap="square" stroke-miterlimit="10" d="M367.75,446.39  c-2.468,18.616,8.107,35.948,27.752,36.75"/>
<path fill-rule="evenodd" clip-rule="evenodd" fill="#E28777" d="M375.25,477.89c-29.677,17.782-3.206,22.357,0.75,36.75  c4.228,15.382-3.467,28.399-12.75,40.5C367.25,529.39,371.25,503.64,375.25,477.89z"/>
<path fill="none" stroke="#000000" stroke-width="2" stroke-linecap="square" stroke-miterlimit="10" d="M375.25,477.89  c-29.677,17.782-3.206,22.357,0.75,36.75c4.228,15.382-3.467,28.399-12.75,40.5"/>
<path fill="none" stroke="#000000" stroke-width="2" stroke-linecap="square" stroke-miterlimit="10" d="M382,504.14  c3.906-1.255,6.446,0.768,8.25-3.75c4.021,9.158,10.22,8.736,16.502,13.5"/>
<path fill-rule="evenodd" clip-rule="evenodd" fill="#E28777" d="M371.5,546.89c11.398,4.367,24.104,5.361,35.252,0  C395.001,546.89,383.25,546.89,371.5,546.89z"/>
<path fill="none" stroke="#000000" stroke-width="2" stroke-linecap="square" stroke-miterlimit="10" d="M371.5,546.89  c11.398,4.367,24.104,5.361,35.252,0"/>
<path fill-rule="evenodd" clip-rule="evenodd" fill="#E28777" d="M330.25,528.89c11.942-4.694,28.65-2.753,35.25-13.5  C353.75,519.89,342,524.39,330.25,528.89z"/>
<path fill="none" stroke="#000000" stroke-width="2" stroke-linecap="square" stroke-miterlimit="10" d="M330.25,528.89  c11.942-4.694,28.65-2.753,35.25-13.5"/>
<path fill="none" stroke="#000000" stroke-width="2" stroke-linecap="square" stroke-miterlimit="10" d="M309.25,489.14  c13.083-0.979,25.229-18.675,37.5,0.75c-3.041-8.829,0.431-13.934,1.5-21"/>
<path fill-rule="evenodd" clip-rule="evenodd" fill="#E28777" d="M304.75,466.64c15.043-2.559,35.874,11.286,46.5-6  C335.75,462.64,320.25,464.64,304.75,466.64z"/>
<path fill="none" stroke="#000000" stroke-width="2" stroke-linecap="square" stroke-miterlimit="10" d="M304.75,466.64  c15.043-2.559,35.874,11.286,46.5-6"/>
<path fill="none" stroke="#000000" stroke-width="2" stroke-linecap="square" stroke-miterlimit="10" d="M329.5,497.39  c3.237,4.224,1.614,8.557,6.75,12c-8.252,0.503-11.758,6.163-18,9"/>
<line fill="none" stroke="#000000" stroke-width="2" stroke-linecap="square" stroke-miterlimit="10" x1="334.75" y1="491.39" x2="334.75" y2="491.39"/>
<path fill-rule="evenodd" clip-rule="evenodd" fill="#E28777" d="M333.25,491.39c7.529,8.278,20.428,3.996,24.75,7.5  c2.777,2.252,2.36,14.099-1.5,12C347.953,506.244,341.046,499.499,333.25,491.39z"/>
<path fill="none" stroke="#000000" stroke-width="2" stroke-linecap="square" stroke-miterlimit="10" d="M333.25,491.39  c9.441,10.381,40.327,7.704,18.75,19.5"/>
<path fill-rule="evenodd" clip-rule="evenodd" fill="#E28777" d="M328,366.14C368.857,360.146,349.49,321.547,328,366.14L328,366.14  z"/>
<path fill="none" stroke="#000000" stroke-width="2" stroke-linecap="square" stroke-miterlimit="10" d="M328,366.14  c14.869-2.182,42.628-28.613,13.5-20.25"/>
<path fill-rule="evenodd" clip-rule="evenodd" fill="#E28777" d="M363.25,357.89c1.252-16.066,20.641-27.188,22.5-6  c9.792-3.655,10.614-2.146,18.752-1.5c0.576-11.036-0.976-5.744,3.75-15.75C393.251,342.39,378.25,350.14,363.25,357.89z"/>
<path fill="none" stroke="#000000" stroke-width="2" stroke-linecap="square" stroke-miterlimit="10" d="M363.25,357.89  c1.252-16.066,20.641-27.188,22.5-6c9.792-3.655,10.614-2.146,18.752-1.5c-8.017-10.062,0.539-8.952,3.75-15.75"/>
<path fill-rule="evenodd" clip-rule="evenodd" fill="#E28777" d="M385.75,314.39c-7.608,9.473-8.101,18.931,1.5,24  c-1.5,0.75-3,1.5-4.5,2.25C383.724,332.119,383.629,322.686,385.75,314.39z"/>
<path fill="none" stroke="#000000" stroke-width="2" stroke-linecap="square" stroke-miterlimit="10" d="M385.75,314.39  c-8.988,11.19-2.884,22.451-3,26.25"/>
<path fill-rule="evenodd" clip-rule="evenodd" fill="#E28777" d="M352,330.14c13.598,4.318,3.133,17.973,24,9  C368.123,336.186,360.134,332.258,352,330.14z"/>
<path fill="none" stroke="#000000" stroke-width="2" stroke-linecap="square" stroke-miterlimit="10" d="M352,330.14  c13.598,4.318,3.133,17.973,24,9"/>
<path fill-rule="evenodd" clip-rule="evenodd" fill="#E28777" stroke="#000000" stroke-width="2" stroke-linecap="square" stroke-miterlimit="10" d="  M416.5,321.89c11.847-22.199,39.049-4.378,52.875,6.375c30.056,23.377,43.477,67.027,49.125,103.125  c8.979,57.378-18.7,136.5-89.625,136.5C407.396,567.89,412.639,354.551,416.5,321.89z"/>
<path fill="none" stroke="#000000" stroke-width="2" stroke-linecap="square" stroke-miterlimit="10" d="M511,405.14  c-7.689-7.954-41.831-27.313-48.75-6c-3.771,11.615,38.136,2.055,39.75,25.5c7.944-10.576,8.289-2.197,14.25,4.5"/>
<path fill="none" stroke="#000000" stroke-width="2" stroke-linecap="square" stroke-miterlimit="10" d="M518.5,450.89  c-12.045-3.748-4.189-7.963-14.25-15c-2.477-1.732-11.487,2.636-16.5-0.75c-3.66-2.473-5.18-11.197-9.75-14.625  c-5.074-3.805-11.262,1.968-15.75,0.375c-8.688-3.083-11.674,0.611-23.25-9.75c-9.52-8.52-10.553-15.766-21-18"/>
<path fill="none" stroke="#000000" stroke-width="2" stroke-linecap="square" stroke-miterlimit="10" d="M496,368.39  c-7.85,6.142-10.524,14.399-6.75,23.25"/>
<path fill="none" stroke="#000000" stroke-width="2" stroke-linecap="square" stroke-miterlimit="10" d="M485.5,379.64  c-11.932-14.323-29.759-9.078-45.75-15"/>
<path fill="none" stroke="#000000" stroke-width="2" stroke-linecap="square" stroke-miterlimit="10" d="M469.75,368.39  c-2.178-5.911-27.265-21.827-35.25-17.25c-9.033,5.177-2.925,21.307-3.75,29.25"/>
<path fill="none" stroke="#000000" stroke-width="2" stroke-linecap="square" stroke-miterlimit="10" d="M435.25,371.39  c11.791,2.763,21.646,5.776,32.25,9.75"/>
<path fill="none" stroke="#000000" stroke-width="2" stroke-linecap="square" stroke-miterlimit="10" d="M443.5,384.14  c25.822-1.898,21.711,31.434-2.25,30.75"/>
<path fill="none" stroke="#000000" stroke-width="2" stroke-linecap="square" stroke-miterlimit="10" d="M454.75,396.14  c-14.765-0.848-57.145-17.996-27.75-33.75"/>
<path fill="none" stroke="#000000" stroke-width="2" stroke-linecap="square" stroke-miterlimit="10" d="M488.5,435.89  c-19.139,20.892-46.306,6.416-57.75-12.75"/>
<path fill="none" stroke="#000000" stroke-width="2" stroke-linecap="square" stroke-miterlimit="10" d="M439.75,440.39  c-3.233,0.282-5.933,1.941-6.75,4.5"/>
<path fill="none" stroke="#000000" stroke-width="2" stroke-linecap="square" stroke-miterlimit="10" d="M456.25,446.39  c3.381,18.717-7.589,35.391-27,36.75"/>
<path fill="none" stroke="#000000" stroke-width="2" stroke-linecap="square" stroke-miterlimit="10" d="M444.25,453.89  c-7.28,9.983-17.429,12.566-26.25,3.75"/>
<path fill="none" stroke="#000000" stroke-width="2" stroke-linecap="square" stroke-miterlimit="10" d="M449.5,477.89  c21.768,14.681,13.897,25.765-2.25,37.875c-10.14,7.604,9.167,33.694,14.25,39.375"/>
<path fill="none" stroke="#000000" stroke-width="2" stroke-linecap="square" stroke-miterlimit="10" d="M442.75,504.14  c-3.965-1.311-6.407,0.452-9-3.75c-3.791,9.025-9.942,8.692-15.75,13.5"/>
<path fill="none" stroke="#000000" stroke-width="2" stroke-linecap="square" stroke-miterlimit="10" d="M452.5,546.89  c-11.158,4.317-23.618,5.411-34.5,0"/>
<path fill="none" stroke="#000000" stroke-width="2" stroke-linecap="square" stroke-miterlimit="10" d="M493.75,528.89  c-11.692-4.541-28.634-2.582-34.5-13.5"/>
<path fill="none" stroke="#000000" stroke-width="2" stroke-linecap="square" stroke-miterlimit="10" d="M514.75,489.14  c-11.952-2.273-25.892-17.895-36.75,0.75c1.726-7.9-0.731-14.731-1.5-21"/>
<path fill="none" stroke="#000000" stroke-width="2" stroke-linecap="square" stroke-miterlimit="10" d="M519.25,466.64  c-15.125-2.774-35.123,11.487-46.5-6"/>
<path fill="none" stroke="#000000" stroke-width="2" stroke-linecap="square" stroke-miterlimit="10" d="M484,443.39  c2.815,8.034,8.941,12.698,17.25,12.75"/>
<path fill="none" stroke="#000000" stroke-width="2" stroke-linecap="square" stroke-miterlimit="10" d="M495.25,497.39  c-3.246,4.204-1.616,8.558-6.75,12c8.058,0.417,11.948,6.956,17.25,9"/>
<line fill="none" stroke="#000000" stroke-width="2" stroke-linecap="square" stroke-miterlimit="10" x1="490" y1="491.39" x2="490" y2="491.39"/>
<path fill="none" stroke="#000000" stroke-width="2" stroke-linecap="square" stroke-miterlimit="10" d="M491.5,491.39  c-9.82,10.155-41.113,8.12-18.75,19.5"/>
<path fill="none" stroke="#000000" stroke-width="2" stroke-linecap="square" stroke-miterlimit="10" d="M496.75,366.14  c-16.172-2.265-42.545-29.751-13.5-20.25"/>
<path fill="none" stroke="#000000" stroke-width="2" stroke-linecap="square" stroke-miterlimit="10" d="M461.5,357.89  c-1.882-15.776-21.772-27.166-22.5-6c-10.191-3.602-9.356-4.085-19.5-1.5c8.58-9.65-0.271-8.749-3-15.75"/>
<path fill="none" stroke="#000000" stroke-width="2" stroke-linecap="square" stroke-miterlimit="10" d="M442,316.64  c8.367,9.256,3.374,20.467,3,21"/>
<path fill="none" stroke="#000000" stroke-width="2" stroke-linecap="square" stroke-miterlimit="10" d="M430,313.64  c4.747,9.308,0.932,16.987-7.5,23.25"/>
<path fill="none" stroke="#000000" stroke-width="2" stroke-linecap="square" stroke-miterlimit="10" d="M472.75,330.14  c-13.107,3.866-4.648,18.179-24.75,9"/>
</svg>