<svg xmlns="http://www.w3.org/2000/svg" xmlns:xlink="http://www.w3.org/1999/xlink" version="1.1" id="Layer_1" x="0px" y="0px" enable-background="new 0 0 822.05 841.89" xml:space="preserve" viewBox="302.62 337.08 216.66 173.66">
<path fill-rule="evenodd" clip-rule="evenodd" fill="#B2B2B2" stroke="#000000" stroke-width="1.25" stroke-linecap="square" stroke-miterlimit="10" d="  M441.999,434.773c-6.3-3.378-18.717-15.75-24.352-15.75c-23.083,0-22.292,7.798-41.648,14.25  c-19.926,6.642-25.099,32.25,1.302,32.25C419.531,465.523,430.946,475.97,441.999,434.773z"/>
<path fill-rule="evenodd" clip-rule="evenodd" fill="#B2B2B2" stroke="#000000" stroke-width="1.25" stroke-linecap="square" stroke-miterlimit="10" d="  M518.499,509.023c2.735-29.479-30.794-74.722-63-78c-22.428-2.283-23.726,19.5-47.625,19.5c-25.667,0-23.003-28.171-49.125-18.375  c-25.249,9.469-34.939,52.71-41.25,75.375c30.472,0,60.945,0,91.417,0c14.816,0,63.579,10.399,57.833-10.5  C480.756,513.256,499.544,507.895,518.499,509.023z"/>
<path fill-rule="evenodd" clip-rule="evenodd" fill="#B2B2B2" stroke="#000000" stroke-width="1.25" stroke-linecap="square" stroke-miterlimit="10" d="  M378.249,404.023C386.014,437.913,350.011,386.458,378.249,404.023L378.249,404.023z"/>
<path fill-rule="evenodd" clip-rule="evenodd" fill="#B2B2B2" stroke="#000000" stroke-width="1.25" stroke-linecap="square" stroke-miterlimit="10" d="  M446.499,385.273C433.454,419.496,433.172,352.403,446.499,385.273L446.499,385.273z"/>
<path fill-rule="evenodd" clip-rule="evenodd" fill="#B2B2B2" stroke="#000000" stroke-width="1.25" stroke-linecap="square" stroke-miterlimit="10" d="  M363.999,380.773c4.909,41.457,66.547,72.531,77.25,19.5C455.66,328.87,355.941,313.494,363.999,380.773z"/>
<path fill-rule="evenodd" clip-rule="evenodd" fill="#B2B2B2" stroke="#000000" stroke-width="1.25" stroke-linecap="square" stroke-miterlimit="10" d="  M354.999,485.773c-15.152-2.123-23.975-15.428-25.5-30c-9.565,17.108-17.84,34.81-26.25,52.5  C325.92,507.875,352.243,515.927,354.999,485.773z"/>
<path fill-rule="evenodd" clip-rule="evenodd" fill="#137827" d="M498.249,474.523l-36.75-23.25L498.249,474.523z"/>
<line fill="none" stroke="#000000" stroke-width="1.25" stroke-linecap="square" stroke-miterlimit="10" x1="498.249" y1="474.523" x2="461.499" y2="451.273"/>
<path fill-rule="evenodd" clip-rule="evenodd" fill="#FB0F0C" stroke="#000000" stroke-width="1.25" stroke-linecap="square" stroke-miterlimit="10" d="  M314.499,491.023c24.104-15.065,53.278-42.624,81.75-46.5c-2.5,3-5,6-7.5,9c4,0,8,0,12,0c-2.5,2-5,4-7.5,6c3,0.75,6,1.5,9,2.25  C378.496,475.651,341.099,513.76,314.499,491.023z"/>
<path fill-rule="evenodd" clip-rule="evenodd" fill="#E9CCA8" stroke="#000000" stroke-width="1.25" stroke-linecap="square" stroke-miterlimit="10" d="  M374.499,456.523c9.649,8.138,14.439,23.296,3,31.875C363.213,499.113,374.358,456.648,374.499,456.523z"/>
<path fill-rule="evenodd" clip-rule="evenodd" fill="#E9CCA8" stroke="#000000" stroke-width="1.25" stroke-linecap="square" stroke-miterlimit="10" d="  M351.999,445.273c36.297-0.721,30.933,31.983,9,41.25c-9.34,3.946-29.688,15.62-33.75-15.75  C325.282,455.584,334.927,443.237,351.999,445.273z"/>
<path fill-rule="evenodd" clip-rule="evenodd" fill="#E9CCA8" d="M363.249,466.273c3.164,4.507,6.449,8.604,9,13.5  C369.25,475.274,366.298,470.74,363.249,466.273z"/>
<path fill="none" stroke="#000000" stroke-width="1.25" stroke-linecap="square" stroke-miterlimit="10" d="M363.249,466.273  c3.473,4.164,6.502,8.706,9,13.5"/>
<path fill-rule="evenodd" clip-rule="evenodd" fill="#E9CCA8" d="M353.499,470.773c2.765,5.326,5.827,9.882,7.5,15.75  C358.5,481.274,355.937,476.051,353.499,470.773z"/>
<path fill="none" stroke="#000000" stroke-width="1.25" stroke-linecap="square" stroke-miterlimit="10" d="M353.499,470.773  c3.367,4.806,5.891,10.105,7.5,15.75"/>
<path fill-rule="evenodd" clip-rule="evenodd" fill="#E9CCA8" d="M344.499,476.773c2.683,4.289,5.514,8.09,7.5,12.75  C349.499,485.273,346.999,481.023,344.499,476.773z"/>
<path fill="none" stroke="#000000" stroke-width="1.25" stroke-linecap="square" stroke-miterlimit="10" d="M344.499,476.773  c3.04,3.925,5.568,8.217,7.5,12.75"/>
<path fill-rule="evenodd" clip-rule="evenodd" fill="#FB0F0C" stroke="#000000" stroke-width="1.25" stroke-linecap="square" stroke-miterlimit="10" d="  M491.499,505.273c-24.107-16.59-58.863-32.038-75.75-56.25c4,1,8,2,12,3c-1.5-3.5-3-7-4.5-10.5c2.75,1.25,5.5,2.5,8.25,3.75  c-0.5-2.75-1-5.5-1.5-8.25C452.312,452.96,503.429,471.736,491.499,505.273z"/>
<path fill-rule="evenodd" clip-rule="evenodd" fill="#E9CCA8" stroke="#000000" stroke-width="1.25" stroke-linecap="square" stroke-miterlimit="10" d="  M439.749,462.523C402.838,493.582,473.611,505.682,439.749,462.523L439.749,462.523z"/>
<path fill-rule="evenodd" clip-rule="evenodd" fill="#E9CCA8" stroke="#000000" stroke-width="1.25" stroke-linecap="square" stroke-miterlimit="10" d="  M462.249,451.273c-35.226-0.699-32.517,32.205-9,42C487.413,507.502,501.229,446.578,462.249,451.273z"/>
<path fill-rule="evenodd" clip-rule="evenodd" fill="#E9CCA8" d="M450.999,472.273c-3.354,4.604-6.771,8.44-9,13.5  C444.997,481.277,447.878,476.684,450.999,472.273z"/>
<path fill="none" stroke="#000000" stroke-width="1.25" stroke-linecap="square" stroke-miterlimit="10" d="M450.999,472.273  c-3.729,3.99-6.89,8.709-9,13.5"/>
<path fill-rule="evenodd" clip-rule="evenodd" fill="#E9CCA8" d="M460.749,476.773c-2.841,5.244-5.884,10.234-8.25,15.75  C455.248,487.274,458.083,482.064,460.749,476.773z"/>
<path fill="none" stroke="#000000" stroke-width="1.25" stroke-linecap="square" stroke-miterlimit="10" d="M460.749,476.773  c-3.161,5.042-5.9,10.273-8.25,15.75"/>
<path fill-rule="evenodd" clip-rule="evenodd" fill="#E9CCA8" d="M469.749,482.773c-2.683,4.289-5.515,8.09-7.5,12.75  C464.749,491.273,467.249,487.023,469.749,482.773z"/>
<path fill="none" stroke="#000000" stroke-width="1.25" stroke-linecap="square" stroke-miterlimit="10" d="M469.749,482.773  c-3.04,3.925-5.568,8.217-7.5,12.75"/>
<path fill-rule="evenodd" clip-rule="evenodd" d="M312.249,455.773c-0.671,0.742-7.101,5.592-7.5,15  c4.721-1.857,10.619-6.911,14.25-10.5C317.229,459.297,313.32,457.584,312.249,455.773z"/>
<path fill-rule="evenodd" clip-rule="evenodd" d="M337.749,429.523c-1.248,0.658-8.533,2.499-12,11.25  c4.711-0.206,11.488-3.144,15.75-5.25C340.345,434.189,337.836,431.218,337.749,429.523z"/>
<path fill="none" stroke="#000000" stroke-width="1.25" stroke-linecap="square" stroke-miterlimit="10" d="M368.499,422.023  c-24.401,4.044-49.304,16.715-59.25,40.5"/>
<path fill-rule="evenodd" clip-rule="evenodd" d="M503.499,452.023c0.672,0.742,7.102,5.592,7.5,15  c-4.729-1.889-10.606-6.899-14.25-10.5C498.376,455.227,502.473,453.629,503.499,452.023z"/>
<path fill-rule="evenodd" clip-rule="evenodd" d="M477.999,426.523c1.183,0.502,7.901,0.268,12,10.5  c-4.909-0.06-11.981-2.508-16.5-4.5C474.559,431.11,477.698,428.225,477.999,426.523z"/>
<path fill="none" stroke="#000000" stroke-width="1.25" stroke-linecap="square" stroke-miterlimit="10" d="M447.249,418.273  c24.556,4.968,48.146,17.015,59.25,40.5"/>
</svg>