<svg xmlns="http://www.w3.org/2000/svg" xmlns:xlink="http://www.w3.org/1999/xlink" version="1.1" id="Layer_1" x="0px" y="0px" enable-background="new 0 0 822.05 841.89" xml:space="preserve" viewBox="309.51 333.54 205.3 174.79">
<path fill-rule="evenodd" clip-rule="evenodd" fill="#F6FF3F" stroke="#000000" stroke-linecap="square" stroke-miterlimit="10" d="  M505,416.641c-15.009-12.99-24.973,2.333-20.25,19.5c1.147-20.879,21.75-22.416,21.75-0.75c0,16.093-13.825,28.565-21,9  C476.91,478.122,536.604,448.701,505,416.641z"/>
<path fill-rule="evenodd" clip-rule="evenodd" fill="#F6FF3F" stroke="#000000" stroke-linecap="square" stroke-miterlimit="10" d="  M427.75,404.641c0.422,37.511-14.573,73.019,30,72.75c44.23-0.267,28.5-37.231,28.5-73.5  C466.75,404.141,447.25,404.391,427.75,404.641z"/>
<path fill-rule="evenodd" clip-rule="evenodd" fill="#F6FF3F" stroke="#000000" stroke-linecap="square" stroke-miterlimit="10" d="  M486.25,403.891c-17.382,6.414-41.163,6.588-58.5,0C443.609,396.496,470.365,396.697,486.25,403.891z"/>
<path fill-rule="evenodd" clip-rule="evenodd" fill="#B5B509" stroke="#000000" stroke-linecap="square" stroke-miterlimit="10" d="  M485.5,403.891c-16.096,6.406-40.22,6.526-57,0C443.496,396.065,471.43,396.267,485.5,403.891z"/>
<path fill-rule="evenodd" clip-rule="evenodd" fill="#83BBF2" stroke="#000000" stroke-linecap="square" stroke-miterlimit="10" d="  M374.5,373.891c9.75-14.311,35.349-18.748,45-0.75c7.555,14.087-22.588,66.702-36,63.75c-10.253-2.257,33.351-43.909,27.75-57  c-9.353-21.861-28.802-3.336-32.25,9C377.513,383.935,375.52,378.959,374.5,373.891z"/>
<path fill-rule="evenodd" clip-rule="evenodd" fill="#83BBF2" stroke="#000000" stroke-linecap="square" stroke-miterlimit="10" d="  M385,444.391c-8.593,10.978-64.539,18.856-64.5,0.75C320.539,427.304,376.28,433.852,385,444.391z"/>
<path fill-rule="evenodd" clip-rule="evenodd" fill="#FFFFFF" d="M319,344.641L319,344.641L319,344.641z"/>
<line fill="none" stroke="#000000" stroke-linecap="square" stroke-miterlimit="10" x1="319" y1="344.641" x2="319" y2="344.641"/>
<path fill-rule="evenodd" clip-rule="evenodd" fill="#83BBF2" stroke="#000000" stroke-linecap="square" stroke-miterlimit="10" d="  M385,348.391c-19.471,23.069,12.823,64.989,8.25,83.25c-15.094,26.09-81,27.952-81-9.75c0-10.007,5.173-18.819,9-27.75  c3.33-7.77,6.737-15.506,10.125-23.25c5.741-13.122-6.438-4.475-4.875-12.75c0.924-4.895-12.161-6.304-7.5-13.5  C322.289,339.563,376.65,347.917,385,348.391z"/>
<path fill-rule="evenodd" clip-rule="evenodd" fill="#83BBF2" stroke="#000000" stroke-linecap="square" stroke-miterlimit="10" d="  M358.75,334.141c-14.034,0.122-29.115,4.763-41.25,9.75c11.743,8.043,41.99,16.303,56.25,9  C395.377,341.815,377.839,333.019,358.75,334.141z"/>
<path fill-rule="evenodd" clip-rule="evenodd" fill="#83BBF2" stroke="#000000" stroke-linecap="square" stroke-miterlimit="10" d="  M391.75,434.641C392.75,431.641,392.75,431.641,391.75,434.641L391.75,434.641z"/>
<path fill-rule="evenodd" clip-rule="evenodd" fill="#FFFFFF" d="M319.75,398.641c-20.562,38.519,11.263,58.496,48,48  c17.663-5.047,35.427-20.04,23.25-41.25C380.806,387.635,339.078,391.606,319.75,398.641z"/>
<path fill="none" stroke="#000000" stroke-width="0.5" stroke-linecap="square" stroke-miterlimit="10" d="M319,400.141  c23.251,6.302,48.886,7.851,71.25-2.25"/>
<path fill-rule="evenodd" clip-rule="evenodd" fill="#5CA4D4" stroke="#000000" stroke-linecap="square" stroke-miterlimit="10" d="  M386.5,469.141c11.859-0.185,64.003-0.576,63.75-20.25c-0.273-21.295-56.677-19.5-69-19.5c-13.229,0-53.149,1.046-57,18.375  C319.849,467.571,375.935,469.445,386.5,469.141z"/>
<path fill-rule="evenodd" clip-rule="evenodd" fill="#FFFFFF" d="M451,451.141c4.91,40.078-131.224,24.257-126.75,4.125  C329.833,430.141,433.638,449.472,451,451.141z"/>
<path fill-rule="evenodd" clip-rule="evenodd" fill="#F0EF82" d="M433,433.891L433,433.891L433,433.891z"/>
<line fill="none" stroke="#000000" stroke-width="0.75" stroke-linecap="square" stroke-miterlimit="10" x1="433" y1="433.891" x2="433" y2="433.891"/>
<path fill-rule="evenodd" clip-rule="evenodd" fill="#F0EF82" stroke="#000000" stroke-width="0.5" stroke-linecap="square" stroke-miterlimit="10" d="  M340.75,446.641c15.101,0.033,20.069,13.794,3,17.25C326.125,467.459,326.464,451.94,340.75,446.641z"/>
<path fill-rule="evenodd" clip-rule="evenodd" fill="#F0EF82" d="M415,460.891c-0.25-2.25-0.5-4.5-0.75-6.75  c10.482,4.987,9.111,0.339,9.75,12C421,464.391,418,462.641,415,460.891z"/>
<path fill="none" stroke="#000000" stroke-width="0.5" stroke-linecap="square" stroke-miterlimit="10" d="M415,460.891  c-0.25-2.25-0.5-4.5-0.75-6.75c10.482,4.987,9.111,0.339,9.75,12C421,464.391,418,462.641,415,460.891"/>
<path fill-rule="evenodd" clip-rule="evenodd" fill="#F0EF82" stroke="#000000" stroke-width="0.5" stroke-linecap="square" stroke-miterlimit="10" d="  M346.75,448.141C344.894,471.179,368.327,448.732,346.75,448.141L346.75,448.141z"/>
<path fill-rule="evenodd" clip-rule="evenodd" fill="#F0EF82" stroke="#000000" stroke-width="0.5" stroke-linecap="square" stroke-miterlimit="10" d="  M433,462.391C425.954,439.746,397.113,461.887,433,462.391L433,462.391z"/>
<path fill-rule="evenodd" clip-rule="evenodd" fill="#F0EF82" d="M403.75,457.141c0.349-2.305,8.073-2.435-6-7.5  C397.77,449.675,403.663,458.262,403.75,457.141z"/>
<path fill="none" stroke="#000000" stroke-width="0.5" stroke-linecap="square" stroke-miterlimit="10" d="M403.75,457.141  c0.349-2.305,8.073-2.435-6-7.5c1.75,2.5,3.5,5,5.25,7.5"/>
<path fill-rule="evenodd" clip-rule="evenodd" fill="#F0EF82" stroke="#000000" stroke-width="0.5" stroke-linecap="square" stroke-miterlimit="10" d="  M412,464.641c-3.818,0.081-6.319,6.2-9-1.5C407.422,461.515,408.642,464.712,412,464.641z"/>
<path fill-rule="evenodd" clip-rule="evenodd" fill="#F0EF82" stroke="#000000" stroke-width="0.5" stroke-linecap="square" stroke-miterlimit="10" d="  M418,469.891c4.334-4.226-0.803-12.248-8.25-19.5C405.12,458.738,410.3,464.332,418,469.891z"/>
<path fill-rule="evenodd" clip-rule="evenodd" fill="#F0EF82" d="M439.75,455.641c-10.525,5.661-18.167,5.604-13.5-7.5  C430.64,450.58,435.809,452.555,439.75,455.641z"/>
<path fill="none" stroke="#000000" stroke-width="0.5" stroke-linecap="square" stroke-miterlimit="10" d="M439.75,455.641  c-10.525,5.661-18.167,5.604-13.5-7.5C430.64,450.58,435.809,452.555,439.75,455.641"/>
<path fill-rule="evenodd" clip-rule="evenodd" fill="#F0EF82" stroke="#000000" stroke-width="0.5" stroke-linecap="square" stroke-miterlimit="10" d="  M411.25,461.641C405.388,446.443,410.819,453.919,411.25,461.641L411.25,461.641z"/>
<path fill-rule="evenodd" clip-rule="evenodd" fill="#F0EF82" stroke="#000000" stroke-width="0.5" stroke-linecap="square" stroke-miterlimit="10" d="  M391.75,445.891c7.698,1.898,13.216-1.857,13.5,7.5C400.515,451.211,396.313,448.344,391.75,445.891z"/>
<path fill-rule="evenodd" clip-rule="evenodd" fill="#F0EF82" stroke="#000000" stroke-width="0.5" stroke-linecap="square" stroke-miterlimit="10" d="  M411.25,464.641c-5.047-4.83-10.54-5.092-11.25-15C403.489,455.017,407.623,459.165,411.25,464.641z"/>
<path fill-rule="evenodd" clip-rule="evenodd" fill="#F0EF82" d="M354.25,451.141c-3.382,2.761-6.63,4.376-9,8.25  C348.25,456.641,351.25,453.891,354.25,451.141z"/>
<path fill="none" stroke="#000000" stroke-width="0.5" stroke-linecap="square" stroke-miterlimit="10" d="M354.25,451.141  c-3.709,1.867-6.859,4.751-9,8.25"/>
<path fill-rule="evenodd" clip-rule="evenodd" fill="#622A11" stroke="#000000" stroke-width="0.5" stroke-linecap="square" stroke-miterlimit="10" d="  M371.5,450.391C370.322,452.658,367.681,457.739,371.5,450.391L371.5,450.391z"/>
<path fill-rule="evenodd" clip-rule="evenodd" fill="#7A3313" stroke="#000000" stroke-width="0.5" stroke-linecap="square" stroke-miterlimit="10" d="  M360.25,459.391C362.975,468.231,363.223,469.038,360.25,459.391L360.25,459.391z"/>
<path fill-rule="evenodd" clip-rule="evenodd" fill="#622A11" stroke="#000000" stroke-width="0.5" stroke-linecap="square" stroke-miterlimit="10" d="  M349.75,448.141c-2.31,2.425-0.256,6.626-6,6.75C342.073,448.807,347.292,450.72,349.75,448.141z"/>
<path fill-rule="evenodd" clip-rule="evenodd" fill="#622A11" stroke="#000000" stroke-width="0.5" stroke-linecap="square" stroke-miterlimit="10" d="  M403,459.391c2.735,1.292,4.771-2.737,6.75,1.5C405.419,467.15,406.422,461.008,403,459.391z"/>
<path fill-rule="evenodd" clip-rule="evenodd" fill="#7A3313" stroke="#000000" stroke-width="0.5" stroke-linecap="square" stroke-miterlimit="10" d="  M423.25,455.641c-1.901,2.886-6.116,1.952-4.5,6.75C424.155,461.681,421.676,458.03,423.25,455.641z"/>
<path fill-rule="evenodd" clip-rule="evenodd" fill="#7A3313" stroke="#000000" stroke-width="0.5" stroke-linecap="square" stroke-miterlimit="10" d="  M358.75,447.391c1.919,3.114,7.246,1.453,3.75,6.75C357.518,452.901,360.123,449.619,358.75,447.391z"/>
<path fill-rule="evenodd" clip-rule="evenodd" fill="#7A3313" stroke="#000000" stroke-width="0.5" stroke-linecap="square" stroke-miterlimit="10" d="  M393.25,454.141c3.547-0.347,4.163-6.447,7.5,0.75C397.214,458.075,396.854,453.789,393.25,454.141z"/>
<path fill-rule="evenodd" clip-rule="evenodd" fill="#7A3313" stroke="#000000" stroke-width="0.5" stroke-linecap="square" stroke-miterlimit="10" d="  M370,448.141c-1.08,1.682-4.479,0.385-4.5,4.5c0.921,0.263,1.671,0.763,2.25,1.5C371.201,452.341,368.5,450.478,370,448.141z"/>
<path fill-rule="evenodd" clip-rule="evenodd" fill="#7A3313" stroke="#000000" stroke-width="0.5" stroke-linecap="square" stroke-miterlimit="10" d="  M355.75,454.891c2.38-2.237,8.134,1.177,3-5.25C354.141,450.462,356.682,454.015,355.75,454.891z"/>
<path fill-rule="evenodd" clip-rule="evenodd" fill="#7A3313" stroke="#000000" stroke-width="0.5" stroke-linecap="square" stroke-miterlimit="10" d="  M386.5,450.391c0.667,1.518,4.878,3.241,2.25,7.5C385.619,455.141,387.876,453.519,386.5,450.391z"/>
<path fill-rule="evenodd" clip-rule="evenodd" fill="#CEAB16" stroke="#000000" stroke-width="0.5" stroke-linecap="square" stroke-miterlimit="10" d="  M363.25,455.641C365.827,466.139,364.866,462.224,363.25,455.641L363.25,455.641z"/>
<path fill-rule="evenodd" clip-rule="evenodd" fill="#CEAB16" stroke="#000000" stroke-width="0.5" stroke-linecap="square" stroke-miterlimit="10" d="  M379.75,449.641c-1.717,2.091,0.686,6.739-6,6.75C372.881,451.337,377.666,452.178,379.75,449.641z"/>
<path fill-rule="evenodd" clip-rule="evenodd" fill="#CEAB16" stroke="#000000" stroke-width="0.5" stroke-linecap="square" stroke-miterlimit="10" d="  M425.5,451.891c-1.344,2.118-5.016,2.38-4.5,6.75C426.477,457.357,424.11,454.082,425.5,451.891z"/>
<path fill-rule="evenodd" clip-rule="evenodd" fill="#CEAB16" stroke="#000000" stroke-width="0.5" stroke-linecap="square" stroke-miterlimit="10" d="  M389.5,445.891c1.146,3.152,5.48,3.272,2.25,7.5C386.392,451.295,390.766,449.373,389.5,445.891z"/>
<path fill-rule="evenodd" clip-rule="evenodd" fill="#BFBEB2" stroke="#000000" stroke-width="0.5" stroke-linecap="square" stroke-miterlimit="10" d="  M361.75,436.891c4.811,6.539,53.588,14.3,42.375,29.25C387.68,488.068,362.502,439.382,361.75,436.891z"/>
<path fill-rule="evenodd" clip-rule="evenodd" fill="#BFBEB2" stroke="#000000" stroke-width="0.5" stroke-linecap="square" stroke-miterlimit="10" d="  M362.5,436.891c-4.772,0.59-9.114,9.659-6-3.75C357.637,434.125,361.099,437.064,362.5,436.891z"/>
<path fill-rule="evenodd" clip-rule="evenodd" fill="#1A6314" stroke="#000000" stroke-width="0.5" stroke-linecap="square" stroke-miterlimit="10" d="  M314.5,404.641c-15.377,8.821,10.568,20.018,22.5,24.75C382.533,447.45,329.373,414.733,314.5,404.641z"/>
<path fill-rule="evenodd" clip-rule="evenodd" fill="#F0EF82" stroke="#000000" stroke-width="0.5" stroke-linecap="square" stroke-miterlimit="10" d="  M386.5,461.641c15.019-4.294,22.076,7.002,10.5,17.25C393.746,473.545,388.184,467.608,386.5,461.641z"/>
<path fill-rule="evenodd" clip-rule="evenodd" fill="#F0EF82" stroke="#000000" stroke-width="0.5" stroke-linecap="square" stroke-miterlimit="10" d="  M390.25,485.641c8.949-0.715,13.857,0.528,9.75-12C396.783,477.6,393.049,481.384,390.25,485.641z"/>
<path fill-rule="evenodd" clip-rule="evenodd" fill="#F0EF82" stroke="#000000" stroke-width="0.5" stroke-linecap="square" stroke-miterlimit="10" d="  M388,487.141c11.378-6.314,12.119-18.206-2.25-21.75C385.783,472.097,385.633,480.695,388,487.141z"/>
<path fill-rule="evenodd" clip-rule="evenodd" fill="#F0EF82" stroke="#000000" stroke-width="0.5" stroke-linecap="square" stroke-miterlimit="10" d="  M380.5,486.391c4.479-4.297,13.647-1.23,1.5-10.5C381.5,479.391,381,482.891,380.5,486.391z"/>
<path fill-rule="evenodd" clip-rule="evenodd" fill="#F0EF82" stroke="#000000" stroke-width="0.5" stroke-linecap="square" stroke-miterlimit="10" d="  M390.25,472.141c16.696-3.638-0.751-14.418-9.75-18C379.843,464.385,384.284,466.745,390.25,472.141z"/>
<path fill-rule="evenodd" clip-rule="evenodd" fill="#F0EF82" stroke="#000000" stroke-width="0.5" stroke-linecap="square" stroke-miterlimit="10" d="  M373.75,480.391c-1.56-3.181-5.792-2.389-2.25-6.75C373.264,475.459,372.533,477.909,373.75,480.391z"/>
<path fill-rule="evenodd" clip-rule="evenodd" fill="#F0EF82" stroke="#000000" stroke-width="0.5" stroke-linecap="square" stroke-miterlimit="10" d="  M369.25,471.391c-21.736,0.866-11.043-17.798,4.5-21.75C372.311,456.598,372.048,464.899,369.25,471.391z"/>
<path fill-rule="evenodd" clip-rule="evenodd" fill="#F0EF82" stroke="#000000" stroke-width="0.5" stroke-linecap="square" stroke-miterlimit="10" d="  M368.5,459.391C367.179,430.476,397.059,454.859,368.5,459.391L368.5,459.391z"/>
<path fill-rule="evenodd" clip-rule="evenodd" fill="#F0EF82" stroke="#000000" stroke-width="0.5" stroke-linecap="square" stroke-miterlimit="10" d="  M391.75,460.891c-6.542-2.545-12.363-0.651-9-9c3.449,0.129,8.14,2.357,12,3C394.616,456.083,391.627,460.385,391.75,460.891z"/>
<path fill-rule="evenodd" clip-rule="evenodd" fill="#F0EF82" stroke="#000000" stroke-width="0.5" stroke-linecap="square" stroke-miterlimit="10" d="  M366.25,467.641c9.146,32.238,28.278,10.99,7.5-5.25C371.392,464.89,368.961,465.921,366.25,467.641z"/>
<path fill-rule="evenodd" clip-rule="evenodd" fill="#F0EF82" stroke="#000000" stroke-width="0.5" stroke-linecap="square" stroke-miterlimit="10" d="  M403.75,470.641c-0.717-2.991,5.701-6.429-5.25-9.75C394.452,469.746,400.109,467,403.75,470.641z"/>
<path fill-rule="evenodd" clip-rule="evenodd" fill="#F0EF82" stroke="#000000" stroke-width="0.5" stroke-linecap="square" stroke-miterlimit="10" d="  M379.75,451.891c-4.499,6.282-10.121,7.444-6,14.25C377.864,461.903,377.656,456.862,379.75,451.891z"/>
<path fill-rule="evenodd" clip-rule="evenodd" fill="#8DCAF3" stroke="#000000" stroke-linecap="square" stroke-miterlimit="10" d="  M386.5,468.391c-19.525,0.562-50.725-0.729-63-18c-7.329,76.775,134.836,76.899,128.25-1.5  C440.619,467.344,407.418,469.072,386.5,468.391z"/>
<path fill-rule="evenodd" clip-rule="evenodd" fill="#7A3313" stroke="#000000" stroke-width="0.5" stroke-linecap="square" stroke-miterlimit="10" d="  M373.75,466.141c0.109-1.532-5.9-0.382-0.75-6C381.759,462.433,373.991,462.77,373.75,466.141z"/>
<path fill-rule="evenodd" clip-rule="evenodd" fill="#7A3313" stroke="#000000" stroke-width="0.5" stroke-linecap="square" stroke-miterlimit="10" d="  M391.75,464.641c-0.442-0.417-6.468,3.385-2.25-6C394.033,460.315,390.167,463.146,391.75,464.641z"/>
<path fill-rule="evenodd" clip-rule="evenodd" fill="#622A11" stroke="#000000" stroke-width="0.5" stroke-linecap="square" stroke-miterlimit="10" d="  M380.5,453.391c1.752,4.277,9.943,5.569-0.75,6.75C378.252,457.212,381.426,455.652,380.5,453.391z"/>
<path fill-rule="evenodd" clip-rule="evenodd" fill="#CEAB16" stroke="#000000" stroke-width="0.5" stroke-linecap="square" stroke-miterlimit="10" d="  M376.75,461.641C376.233,457.858,375.89,455.347,376.75,461.641L376.75,461.641z"/>
<path fill-rule="evenodd" clip-rule="evenodd" fill="#CEAB16" stroke="#000000" stroke-width="0.5" stroke-linecap="square" stroke-miterlimit="10" d="  M401.5,457.891c0.018,0.008,3.741-2.27,6,0C404.256,466.212,404.554,459.152,401.5,457.891z"/>
</svg>