<svg xmlns="http://www.w3.org/2000/svg" xmlns:xlink="http://www.w3.org/1999/xlink" version="1.1" id="Layer_1" x="0px" y="0px" enable-background="new 0 0 822.05 841.89" xml:space="preserve" viewBox="190.91 238.28 439.45 362.94">
<path fill-rule="evenodd" clip-rule="evenodd" fill="#AD7640" stroke="#000000" stroke-width="2" stroke-linecap="square" stroke-miterlimit="10" d="  M484.75,303.89c-36.09,0-72.181,0-108.271,0c-4.905,0-33.479,3.006-33.479-2.514c0-9.955-6.215-49.169,0-55.986  c10.098-11.076,92.429,0,108.271,0c4.905,0,33.479-3.006,33.479,2.514C484.75,266.566,484.75,285.228,484.75,303.89z"/>
<path fill-rule="evenodd" clip-rule="evenodd" fill="#AD7640" stroke="#000000" stroke-width="2" stroke-linecap="square" stroke-miterlimit="10" d="  M422.5,363.14c-36.09,0-72.181,0-108.271,0c-4.949,0-33.479,3.041-33.479-2.546c0-10.028-6.28-49.875,0-56.704  c10.222-11.117,92.332,0,108.271,0C435.656,303.89,422.5,317.486,422.5,363.14z"/>
<path fill-rule="evenodd" clip-rule="evenodd" fill="#AD7640" stroke="#000000" stroke-width="2" stroke-linecap="square" stroke-miterlimit="10" d="  M409.75,481.64c-36.09,0-72.181,0-108.271,0c-4.905,0-33.479,3.007-33.479-2.514c0-9.955-6.215-49.17,0-55.986  c10.098-11.076,92.429,0,108.271,0c4.905,0,33.479-3.006,33.479,2.514C409.75,444.316,409.75,462.978,409.75,481.64z"/>
<path fill-rule="evenodd" clip-rule="evenodd" fill="#AD7640" stroke="#000000" stroke-width="2" stroke-linecap="square" stroke-miterlimit="10" d="  M411.25,599.39c-36.09,0-72.181,0-108.271,0c-4.949,0-33.479,3.041-33.479-2.546c0-10.028-6.28-49.874,0-56.704  c10.222-11.117,92.332,0,108.271,0C424.406,540.14,411.25,553.736,411.25,599.39z"/>
<path fill-rule="evenodd" clip-rule="evenodd" fill="#AD7640" stroke="#000000" stroke-width="2" stroke-linecap="square" stroke-miterlimit="10" d="  M626.5,599.39c-22.599,0-45.198,0-67.797,0c-1.059,0-6.363-54.323-1.953-59.25c6.278-7.013,57.111,0,67.797,0  C628.662,540.14,626.5,591.708,626.5,599.39z"/>
<path fill-rule="evenodd" clip-rule="evenodd" fill="#AD7640" stroke="#000000" stroke-width="2" stroke-linecap="square" stroke-miterlimit="10" d="  M626.5,482.39c-23.085,0-46.17,0-69.255,0c-1.196,0-6.345-53.531-1.995-58.5c6.209-7.092,58.489,0,69.255,0  C628.712,423.89,626.5,474.732,626.5,482.39z"/>
<path fill-rule="evenodd" clip-rule="evenodd" fill="#AD7640" stroke="#000000" stroke-width="2" stroke-linecap="square" stroke-miterlimit="10" d="  M626.5,360.89c-19.797,0-39.594,0-59.391,0c-1.422,0-6.501-53.465-2.109-58.5c5.289-6.064,50.216,0,59.391,0  C628.844,302.39,626.5,353.107,626.5,360.89z"/>
<path fill-rule="evenodd" clip-rule="evenodd" fill="#744F26" stroke="#000000" stroke-width="2" stroke-linecap="square" stroke-miterlimit="10" d="  M563.5,363.14c-35.899,0-71.799,0-107.698,0c-4.939,0-33.302,3.039-33.302-2.546c0-10.005-6.273-49.906,0-56.704  c10.221-11.076,91.803,0,107.697,0c4.94,0,33.303-3.039,33.303,2.546C563.5,325.337,563.5,344.239,563.5,363.14z"/>
<path fill-rule="evenodd" clip-rule="evenodd" fill="#744F26" stroke="#000000" stroke-width="2" stroke-linecap="square" stroke-miterlimit="10" d="  M626.5,303.89c-36.09,0-72.181,0-108.271,0c-4.905,0-33.479,3.006-33.479-2.514c0-9.955-6.215-49.169,0-55.986  c10.098-11.076,92.429,0,108.271,0c4.905,0,33.479-3.006,33.479,2.514C626.5,266.566,626.5,285.228,626.5,303.89z"/>
<path fill-rule="evenodd" clip-rule="evenodd" fill="#744F26" stroke="#000000" stroke-width="2" stroke-linecap="square" stroke-miterlimit="10" d="  M343.75,303.14c-38.808,0-77.616,0-116.424,0c-4.826,0-32.076,2.998-32.076-2.514c0-9.773-6.165-49.417,0-55.986  c11.326-12.07,98.932,0,116.424,0c4.826,0,32.076-2.998,32.076,2.514C343.75,265.816,343.75,284.478,343.75,303.14z"/>
<path fill-rule="evenodd" clip-rule="evenodd" fill="#744F26" stroke="#000000" stroke-width="2" stroke-linecap="square" stroke-miterlimit="10" d="  M328,423.14c-35.904,0-71.808,0-107.711,0c-4.419,0-25.039,2.932-25.039-2.514c0-10.072-6.245-49.011,0-55.986  c9.808-10.956,91.923,0,107.711,0C341.865,364.64,328,386.847,328,423.14z"/>
<path fill-rule="evenodd" clip-rule="evenodd" fill="#744F26" stroke="#000000" stroke-width="2" stroke-linecap="square" stroke-miterlimit="10" d="  M280.75,362.39c-26.389,0-52.778,0-79.167,0c-9.702,0-12.645-52.571-6.333-59.25c7.862-8.319,66.581,0,79.167,0  C287.999,303.14,280.75,349.754,280.75,362.39z"/>
<path fill-rule="evenodd" clip-rule="evenodd" fill="#744F26" stroke="#000000" stroke-width="2" stroke-linecap="square" stroke-miterlimit="10" d="  M333.25,543.89c-35.135,0-70.271,0-105.406,0c-4.865,0-32.594,2.998-32.594-2.514c0-9.841-6.184-49.324,0-55.986  c10.088-10.867,89.783,0,105.406,0c4.865,0,32.594-2.998,32.594,2.514C333.25,506.566,333.25,525.228,333.25,543.89z"/>
<path fill-rule="evenodd" clip-rule="evenodd" fill="#744F26" stroke="#000000" stroke-width="2" stroke-linecap="square" stroke-miterlimit="10" d="  M268.75,482.39c-23.814,0-47.628,0-71.442,0c-1.339,0-6.404-53.436-2.058-58.5c6.219-7.247,60.471,0,71.442,0  C271.035,423.89,268.75,474.664,268.75,482.39z"/>
<path fill-rule="evenodd" clip-rule="evenodd" fill="#744F26" stroke="#000000" stroke-width="2" stroke-linecap="square" stroke-miterlimit="10" d="  M269.5,599.39c-24.057,0-48.114,0-72.171,0c-1.556,0-6.197-50.511-2.079-55.5c5.926-7.182,61.349,0,72.171,0  C271.814,543.89,269.5,591.921,269.5,599.39z"/>
<path fill-rule="evenodd" clip-rule="evenodd" fill="#AD7640" stroke="#000000" stroke-width="2" stroke-linecap="square" stroke-miterlimit="10" d="  M471.25,421.64c-36.09,0-72.181,0-108.271,0c-4.905,0-33.479,3.007-33.479-2.514c0-9.955-6.215-49.169,0-55.986  c10.098-11.076,92.429,0,108.271,0c4.905,0,33.479-3.006,33.479,2.514C471.25,384.316,471.25,402.978,471.25,421.64z"/>
<path fill-rule="evenodd" clip-rule="evenodd" fill="#744F26" stroke="#000000" stroke-width="2" stroke-linecap="square" stroke-miterlimit="10" d="  M556,483.14c-38.416,0-76.832,0-115.248,0c-4.812,0-31.752,2.994-31.752-2.514c0-9.73-6.151-49.476,0-55.986  c11.321-11.982,97.847,0,115.248,0c4.812,0,31.752-2.994,31.752,2.514C556,445.816,556,464.478,556,483.14z"/>
<path fill-rule="evenodd" clip-rule="evenodd" fill="#744F26" stroke="#000000" stroke-width="2" stroke-linecap="square" stroke-miterlimit="10" d="  M626.5,423.89c-38.333,0-76.667,0-115,0c-5.469,0-36.26,4.134-40.25,0c-2.818-2.92-2.818-55.58,0-58.5c11.619-12.038,97.572,0,115,0  c5.469,0,36.26-4.134,40.25,0C632.938,372.06,626.5,413.603,626.5,423.89z"/>
<path fill-rule="evenodd" clip-rule="evenodd" fill="#744F26" stroke="#000000" stroke-width="2" stroke-linecap="square" stroke-miterlimit="10" d="  M626.5,541.64c-38.808,0-77.616,0-116.424,0c-4.826,0-32.076,2.998-32.076-2.514c0-9.773-6.164-49.417,0-55.986  c11.326-12.07,98.932,0,116.424,0c4.826,0,32.076-2.998,32.076,2.514C626.5,504.316,626.5,522.978,626.5,541.64z"/>
<path fill-rule="evenodd" clip-rule="evenodd" fill="#AD7640" stroke="#000000" stroke-width="2" stroke-linecap="square" stroke-miterlimit="10" d="  M475,543.14c-36.09,0-72.181,0-108.271,0c-4.905,0-33.479,3.007-33.479-2.514c0-9.955-6.215-49.17,0-55.986  c10.098-11.076,92.429,0,108.271,0c4.905,0,33.479-3.007,33.479,2.514C475,505.816,475,524.478,475,543.14z"/>
<path fill-rule="evenodd" clip-rule="evenodd" fill="#744F26" stroke="#000000" stroke-width="2" stroke-linecap="square" stroke-miterlimit="10" d="  M554.5,599.39c-36.09,0-72.181,0-108.271,0c-4.775,0-33.479,2.902-33.479-2.417c0-9.732-6.016-47.061,0-53.833  c9.725-10.947,92.72,0,108.271,0C566.688,543.14,554.5,554.517,554.5,599.39z"/>
</svg>