<svg xmlns="http://www.w3.org/2000/svg" xmlns:xlink="http://www.w3.org/1999/xlink" version="1.1" id="Layer_1" x="0px" y="0px" enable-background="new 0 0 822.05 841.89" xml:space="preserve" viewBox="356.27 258.76 108.49 325.25">
<path fill-rule="evenodd" clip-rule="evenodd" fill="#967A66" stroke="#000000" stroke-width="1.5" stroke-linecap="square" stroke-miterlimit="10" d="  M404.765,519.755c-10.999-1.709,18.552-103.247,22.254-119.073c9.453-40.414,12.395-107.111,35.498-141.177  c7.928,29.937-17.955,89.628-25.254,120.917C426.431,426.867,415.598,473.311,404.765,519.755z"/>
<path fill-rule="evenodd" clip-rule="evenodd" fill="#A4815C" stroke="#000000" stroke-linecap="square" stroke-miterlimit="10" d="  M408.515,461.255c5.65,0.312,9.237,2.755,14.248,5.25c-11.75,15.795-3.498,35.819-4.5,54c-1.1,19.95-5.319,45.803-7.498,63  c0-1.25,0-2.5,0-3.75c-5.35-0.61-1.434,9.608-6.75-5.25c-6.532,10.8-4.755,9.416-11.25,3.75c-8.215,5.515-17.277,1.939-21-3.75  c-6.087,1.344-6.268-1.077-15-5.25C378.025,542.572,410.603,496.396,408.515,461.255z"/>
<path fill-rule="evenodd" clip-rule="evenodd" fill="#ED2224" stroke="#000000" stroke-linecap="square" stroke-miterlimit="10" d="  M407.765,469.505c1.699,12.887,5.689,13.219,11.248,1.5C415.264,470.505,411.514,470.005,407.765,469.505z"/>
<path fill="none" stroke="#000000" stroke-linecap="square" stroke-miterlimit="10" d="M409.265,479.255  c-9.633,12.199-7.809,28.183-16.933,41.474c-11.296,16.453-22.439,33.09-34.067,49.276"/>
<path fill="none" stroke="#000000" stroke-linecap="square" stroke-miterlimit="10" d="M410.765,480.005  c-11.978,34.532-30.198,61.473-50.25,92.25"/>
<path fill="none" stroke="#000000" stroke-linecap="square" stroke-miterlimit="10" d="M414.513,480.005  c-11.213,35.517-26.52,64.289-44.998,96.75"/>
<path fill="none" stroke="#000000" stroke-linecap="square" stroke-miterlimit="10" d="M416.013,480.755  c-3.559,28.484-13.054,72.747-5.248,99.75"/>
<path fill="none" stroke="#000000" stroke-linecap="square" stroke-miterlimit="10" d="M413.765,480.755  c-3.534,31.805-5.688,62.736-10.5,94.5"/>
<path fill="none" stroke="#000000" stroke-linecap="square" stroke-miterlimit="10" d="M397.265,582.005  c6.289-33.959,10.073-67.938,15.75-102c-10.162,35.604-29.225,62.166-49.5,93"/>
<path fill="none" stroke="#000000" stroke-linecap="square" stroke-miterlimit="10" d="M393.515,578.255  c5.537-32.718,14.449-64.812,19.5-97.5"/>
<path fill="none" stroke="#000000" stroke-linecap="square" stroke-miterlimit="10" d="M382.265,579.005  c11.622-32.687,21.167-65.65,30.75-99c-8.774,32.905-18.665,65.825-26.25,99"/>
<path fill="none" stroke="#000000" stroke-linecap="square" stroke-miterlimit="10" d="M378.515,578.255  c6.787-18.576,13.213-37.311,21-55.5"/>
</svg>