<svg xmlns="http://www.w3.org/2000/svg" xmlns:xlink="http://www.w3.org/1999/xlink" version="1.1" id="Layer_1" x="0px" y="0px" enable-background="new 0 0 822.05 841.89" xml:space="preserve" viewBox="217.18 246.64 387.6 347.01">
<path fill-rule="evenodd" clip-rule="evenodd" fill="#6C5635" stroke="#000000" stroke-width="2" stroke-linecap="square" stroke-miterlimit="10" d="  M425.184,247.64c7.341,23.007-117.909,198.36-116.252,199.5C305.994,445.12,404.614,253.259,425.184,247.64z"/>
<path fill-rule="evenodd" clip-rule="evenodd" fill="#D1D1D2" stroke="#000000" stroke-width="2" stroke-linecap="square" stroke-miterlimit="10" d="  M314.932,426.89c-15.407,4.346-29.463,4.952-38.25,19.5c16,9,32,18,48,27C332.905,458.639,329.228,435.002,314.932,426.89z"/>
<path fill-rule="evenodd" clip-rule="evenodd" fill="#C5783A" stroke="#000000" stroke-width="2" stroke-linecap="square" stroke-miterlimit="10" d="  M275.932,447.89c-18.962,18.745-34.75,41.26-57.75,55.5c3.773-0.223,7.489-0.072,11.25-0.75c-3.354,2.621-6.216,4.505-9.75,6.75  c2.921,1.328,8.179,1.984,10.5,3.75c-1.25,1.25-2.5,2.5-3.75,3.75c13.482,10.449,23.539,11.421,32.25,25.5c2.5-1.5,5-3,7.5-4.5  c-1.552,26.205,13.26,2.192,21-11.25c-4.595,12.472-18.653,34.752,0.75,28.5c1.003,9.806-0.305,1.63,6,9.75  c9.624-21.7,17.495-43.804,24.139-66.583C328.379,462.963,306.415,463.835,275.932,447.89z"/>
<path fill-rule="evenodd" clip-rule="evenodd" fill="#6C5635" stroke="#000000" stroke-width="2" stroke-linecap="square" stroke-miterlimit="10" d="  M511.434,263.39c5.228,16.521-106.409,202.497-114.752,200.25c-9.309-2.507,42.896-84.94,47.634-93.089  C457.233,348.333,487.748,269.541,511.434,263.39z"/>
<path fill-rule="evenodd" clip-rule="evenodd" fill="#D1D1D2" stroke="#000000" stroke-width="2" stroke-linecap="square" stroke-miterlimit="10" d="  M401.182,442.64c-15.887,3.972-30.435,3.587-38.25,19.5c16,9,32,18,48,27C419.157,474.389,415.478,450.752,401.182,442.64z"/>
<path fill-rule="evenodd" clip-rule="evenodd" fill="#C5783A" stroke="#000000" stroke-width="2" stroke-linecap="square" stroke-miterlimit="10" d="  M362.182,462.89c-17.837,19.828-35.499,41.174-57.75,56.25c3.569,0.076,6.961-0.312,10.5-0.75c-3.158,2.907-5.439,4.402-9,6.75  c3.038,1.356,7.971,2.005,10.5,3.75c-1.25,1.25-2.5,2.5-3.75,3.75c13.306,10.303,23.469,11.885,32.25,25.5c2.5-1.5,5-3,7.5-4.5  c-1.197,25.697,13.208,2.285,21-11.25c-4.015,10.611-18.578,35.724,0,28.5c8.736,23.938,22.749-29.831,27-43.5  c1.894-6.091,13.333-36.725,8.405-39.378C393.285,479.638,377.733,471.264,362.182,462.89z"/>
<path fill-rule="evenodd" clip-rule="evenodd" fill="#6C5635" stroke="#000000" stroke-width="2" stroke-linecap="square" stroke-miterlimit="10" d="  M603.684,277.64c4.029,22.346-113.237,201.865-116.25,200.25C485.927,477.083,581.402,286.122,603.684,277.64z"/>
<path fill-rule="evenodd" clip-rule="evenodd" fill="#D1D1D2" stroke="#000000" stroke-width="2" stroke-linecap="square" stroke-miterlimit="10" d="  M493.434,457.64c-16.077,4.02-30.569,3.824-39,19.5c16.25,9,32.5,18,48.75,27C510.35,489.255,506.912,466.509,493.434,457.64z"/>
<path fill-rule="evenodd" clip-rule="evenodd" fill="#C5783A" stroke="#000000" stroke-width="2" stroke-linecap="square" stroke-miterlimit="10" d="  M453.684,477.89c-15.955,20.254-35.534,42.125-57.752,55.5c3.671,0.064,7.611,0.372,11.25,0c-3.283,2.258-6.43,4.576-9.75,6.75  c3.08,1.129,7.752,1.443,10.5,3c-1,1.5-2,3-3,4.5c10.432,7.981,28.421,25.35,39.752,21c-1.5,2.5-3,5-4.5,7.5  c14.825,13.111,18.662-6.873,25.5-18.75c-4.015,10.611-18.578,35.724,0,28.5c2.621,26.449,22.719-32.545,26.25-43.5  c1.983-6.151,14.694-36.424,9.123-39.378C485.266,494.638,469.475,486.264,453.684,477.89z"/>
</svg>