<svg xmlns="http://www.w3.org/2000/svg" xmlns:xlink="http://www.w3.org/1999/xlink" version="1.1" id="Layer_1" x="0px" y="0px" enable-background="new 0 0 822.05 841.89" xml:space="preserve" viewBox="303.96 254.45 210.1 331.25">
<path fill-rule="evenodd" clip-rule="evenodd" fill="#967A66" stroke="#000000" stroke-width="1.5" stroke-linecap="square" stroke-miterlimit="10" d="  M418.458,522.201c-10.844-1.367,18.528-102.843,22.256-118.73c9.3-39.641,12.46-108.063,35.498-140.771  c7.443,31.445-17.765,88.558-25.254,120.574C440.124,429.583,429.291,475.891,418.458,522.201z"/>
<path fill-rule="evenodd" clip-rule="evenodd" fill="#A4815C" stroke="#000000" stroke-linecap="square" stroke-miterlimit="10" d="  M421.458,464.451c4.804-0.071,9.626,1.988,14.254,4.5c-10.268,16.632-2.748,35.826-3.75,54c-1.166,21.157-9.004,40.691-5.25,62.25  c-0.494-0.031-5.16-2.49-3-3c-5.395-0.465-1.941,9.555-6.754-6c-5.583,12.188-4.06,9.827-10.498,4.5c-6.079,3.946-2.892,4.32-6,0  c-6.567,2.419-8.874,2.136-17.25,0c0.75-1.25,1.5-2.5,2.25-3.75c-6.195,0.752-7.807-1.836-15.75-5.25  C390.793,545.965,425.088,498.983,421.458,464.451z"/>
<path fill-rule="evenodd" clip-rule="evenodd" fill="#ED2224" stroke="#000000" stroke-width="2" stroke-linecap="square" stroke-miterlimit="10" d="  M421.458,472.701c1.346,7.059-2.037,10.964,9.004,10.5c0.5-3.25,1-6.5,1.5-9.75C428.461,473.201,424.959,472.951,421.458,472.701z"/>
<path fill="none" stroke="#000000" stroke-linecap="square" stroke-miterlimit="10" d="M422.962,481.701  c-19.146,25.707-30.671,62.447-51.002,90.75"/>
<path fill="none" stroke="#000000" stroke-linecap="square" stroke-miterlimit="10" d="M424.462,482.451  c-14.24,33.645-30.057,61.253-50.252,92.25"/>
<path fill="none" stroke="#000000" stroke-linecap="square" stroke-miterlimit="10" d="M428.212,482.451  c-11.22,35.514-26.524,64.289-45.002,96.75"/>
<path fill="none" stroke="#000000" stroke-linecap="square" stroke-miterlimit="10" d="M429.712,483.201  c-3.577,29.333-12.363,71.357-6,99.75"/>
<path fill="none" stroke="#000000" stroke-linecap="square" stroke-miterlimit="10" d="M427.462,483.201  c-3.534,31.806-5.688,62.736-10.504,94.5"/>
<path fill="none" stroke="#000000" stroke-linecap="square" stroke-miterlimit="10" d="M410.21,584.451  c6.279-33.919,10.694-67.882,15.752-102c-10.676,35.746-28.203,61.748-48.752,93"/>
<path fill="none" stroke="#000000" stroke-linecap="square" stroke-miterlimit="10" d="M407.21,580.701  c5.559-32.848,12.454-64.966,19.502-97.5"/>
<path fill="none" stroke="#000000" stroke-linecap="square" stroke-miterlimit="10" d="M395.21,580.701  c11.538-32.449,21.135-65.172,30.752-98.25c-8.211,32.837-17.054,65.478-25.502,98.25"/>
<path fill="none" stroke="#000000" stroke-linecap="square" stroke-miterlimit="10" d="M391.46,579.951  c7.169-18.281,14.201-36.62,21.75-54.75"/>
<path fill-rule="evenodd" clip-rule="evenodd" fill="#967A66" stroke="#000000" stroke-width="1.5" stroke-linecap="square" stroke-miterlimit="10" d="  M470.212,519.201c10.414,0.096-6.355-104.311-8.157-120.387c-4.291-38.286,1.151-111.688-18.843-143.615  c-9.77,31.959,7.347,88.629,11.157,122.637C459.65,424.958,464.931,472.079,470.212,519.201z"/>
<path fill-rule="evenodd" clip-rule="evenodd" fill="#A4815C" stroke="#000000" stroke-linecap="square" stroke-miterlimit="10" d="  M473.962,461.451c-5.319-0.719-9.61,0.838-15,3c9.07,17.44-1.162,35.855-2.25,54c-1.266,21.118,4.95,41.451-2.25,62.25  c2.481,0.113,3.421-2.936,3-3c0.25,1.75,0.5,3.5,0.75,5.25c1.017-1.895,4.836-5.993,6.75-9.75c4.222,15.236,3.755,6.252,9.75,6  c8.29,5.832,13.679,3.362,23.25,2.25c-0.5-1.25-1-2.5-1.5-3.75c6.253,1.842,7.161-0.817,15.75-3.75  C494.371,547.731,466.141,493.515,473.962,461.451z"/>
<path fill-rule="evenodd" clip-rule="evenodd" fill="#ED2224" stroke="#000000" stroke-width="2" stroke-linecap="square" stroke-miterlimit="10" d="  M473.212,469.701c-3.683,12.141-7.667,11.903-11.25-0.75C465.712,469.201,469.462,469.451,473.212,469.701z"/>
<path fill="none" stroke="#000000" stroke-linecap="square" stroke-miterlimit="10" d="M470.212,478.701  c8.513,13.081,4.818,28.734,12.202,43.102c9.072,17.655,17.887,35.649,27.548,52.898"/>
<path fill="none" stroke="#000000" stroke-linecap="square" stroke-miterlimit="10" d="M468.712,479.451  c11.024,34.803,22.315,64.13,39,97.5"/>
<path fill="none" stroke="#000000" stroke-linecap="square" stroke-miterlimit="10" d="M464.962,478.701  c7.44,36.271,19.042,66.854,33,101.25"/>
<path fill="none" stroke="#000000" stroke-linecap="square" stroke-miterlimit="10" d="M463.462,479.451  c0,29.631,3.444,72.152-6,99.75"/>
<path fill="none" stroke="#000000" stroke-linecap="square" stroke-miterlimit="10" d="M465.712,479.451  c0,32.058-1.711,63.06-0.75,95.25"/>
<path fill="none" stroke="#000000" stroke-linecap="square" stroke-miterlimit="10" d="M470.962,582.201  c-2.497-34.33-2.477-68.361-3.75-102.75c5.597,36.546,21.216,65.265,37.5,98.25"/>
<path fill="none" stroke="#000000" stroke-linecap="square" stroke-miterlimit="10" d="M474.712,578.451  c-2.023-32.883-4.5-65.515-8.25-98.25"/>
<path fill="none" stroke="#000000" stroke-linecap="square" stroke-miterlimit="10" d="M485.962,580.701  c-7.865-33.604-13.325-67.153-18.75-101.25c4.399,33.545,8.461,67.158,14.25,100.5"/>
<path fill="none" stroke="#000000" stroke-linecap="square" stroke-miterlimit="10" d="M489.712,579.951  c-4.68-19.077-8.835-38.329-15-57"/>
<path fill-rule="evenodd" clip-rule="evenodd" fill="#967A66" stroke="#000000" stroke-width="1.5" stroke-linecap="square" stroke-miterlimit="10" d="  M379.46,519.951c-8.739-2.141,43.943-82.543,52.11-96.078c25.771-42.715,48.789-95.113,81.392-132.674  c4.817,21.965-41.722,77.138-54.36,98.015C432.222,432.792,405.841,476.372,379.46,519.951z"/>
<path fill-rule="evenodd" clip-rule="evenodd" fill="#A4815C" stroke="#000000" stroke-linecap="square" stroke-miterlimit="10" d="  M400.46,466.701c5.402,1.718,8.75,4.789,12,9c-15.174,11.69-14.461,32.728-21,49.5c-7.683,19.707-19.947,36.418-24,57.75  c-0.413-0.188-3.782-4.015-1.5-3.75c-4.243-2.475-4.635,8.292-4.5-7.5c-9.084,8.972-7.305,7.34-11.25,0.75  c-6.432,1.649-4.206,2.535-6-1.5c-6.72-0.575-9.305-1.519-16.5-5.25c1-1,2-2,3-3c-6.295-1.473-6.075-4.183-12.75-10.5  C345.982,534.993,392.831,499.954,400.46,466.701z"/>
<path fill-rule="evenodd" clip-rule="evenodd" fill="#ED2224" stroke="#000000" stroke-width="2" stroke-linecap="square" stroke-miterlimit="10" d="  M397.46,474.201c-1.655,12.317,1.868,14.281,10.5,4.5C404.46,477.201,400.96,475.701,397.46,474.201z"/>
<path fill="none" stroke="#000000" stroke-linecap="square" stroke-miterlimit="10" d="M395.96,483.201  c-27.157,21.48-43.876,52.109-76.5,70.5"/>
<path fill="none" stroke="#000000" stroke-linecap="square" stroke-miterlimit="10" d="M397.46,484.701  c-23.681,27.885-47.61,48.794-76.5,72"/>
<path fill="none" stroke="#000000" stroke-linecap="square" stroke-miterlimit="10" d="M401.21,485.451  c-21.978,30.22-44.997,52.771-72.75,78"/>
<path fill="none" stroke="#000000" stroke-linecap="square" stroke-miterlimit="10" d="M401.96,486.951  c-11.929,25.963-35.12,65.178-36,93"/>
<path fill="none" stroke="#000000" stroke-linecap="square" stroke-miterlimit="10" d="M400.46,486.201  c-14.034,28.77-25.151,57.539-39.75,86.25"/>
<path fill="none" stroke="#000000" stroke-linecap="square" stroke-miterlimit="10" d="M352.46,577.701  c16.163-30.46,31.08-61.41,46.5-92.25c-20.79,30.714-46.171,50.183-75,73.5"/>
<path fill="none" stroke="#000000" stroke-linecap="square" stroke-miterlimit="10" d="M350.21,572.451  c15.604-29.194,32.974-57.205,48.75-86.25"/>
<path fill="none" stroke="#000000" stroke-linecap="square" stroke-miterlimit="10" d="M339.71,569.451  c20.859-27.333,39.996-55.503,59.25-84c-18.137,28.579-36.319,57.11-54.75,85.5"/>
<path fill="none" stroke="#000000" stroke-linecap="square" stroke-miterlimit="10" d="M335.96,567.201  c12.323-15.14,24.334-30.573,37.5-45"/>
<path fill-rule="evenodd" clip-rule="evenodd" fill="#967A66" stroke="#000000" stroke-width="1.5" stroke-linecap="square" stroke-miterlimit="10" d="  M360.71,515.451c-11.085-8.71,79.814-222.895,101.252-246.002c1.649,32.391-32.616,84.185-45.599,114.792  C397.812,427.978,379.261,471.714,360.71,515.451z"/>
<path fill-rule="evenodd" clip-rule="evenodd" fill="#A4815C" stroke="#000000" stroke-linecap="square" stroke-miterlimit="10" d="  M374.21,458.451c3.732,0.817,8.327,4.321,12.75,7.5c-21.223,24.025-20.787,84.976-31.5,113.25c0.25-1.25,0.5-2.5,0.75-3.75  c-4.673-2.038-3.271,8.177-6-6.75c-7.178,10.699-5.883,8.232-11.25,2.25c-10.283,2.961-11.245-1.176-22.5-3.75  c0.75-1.25,1.5-2.5,2.25-3.75c-5.56-0.174-6.78-2.817-14.25-7.5C329.934,533.16,370.766,493.911,374.21,458.451z"/>
<path fill-rule="evenodd" clip-rule="evenodd" fill="#ED2224" stroke="#000000" stroke-width="2" stroke-linecap="square" stroke-miterlimit="10" d="  M371.96,466.701c0.061,7.453-3.968,10.864,7.5,12c1-3,2-6,3-9C378.96,468.701,375.46,467.701,371.96,466.701z"/>
<path fill="none" stroke="#000000" stroke-linecap="square" stroke-miterlimit="10" d="M371.96,476.451  c-21.372,27.808-39.32,53.918-65.25,80.25"/>
<path fill="none" stroke="#000000" stroke-linecap="square" stroke-miterlimit="10" d="M373.46,477.201  c-17.536,32.497-39.777,55.612-65.25,82.5"/>
<path fill="none" stroke="#000000" stroke-linecap="square" stroke-miterlimit="10" d="M377.21,477.951  c-17.721,32.644-37,58.197-60.75,87"/>
<path fill="none" stroke="#000000" stroke-linecap="square" stroke-miterlimit="10" d="M378.71,478.701  c-8.695,28.259-24.294,68.385-22.5,97.5"/>
<path fill="none" stroke="#000000" stroke-linecap="square" stroke-miterlimit="10" d="M376.46,478.701  c-9.211,30.468-16.128,60.386-26.25,90.75"/>
<path fill="none" stroke="#000000" stroke-linecap="square" stroke-miterlimit="10" d="M341.96,575.451  c12.399-32.239,22.257-64.937,33.75-97.5c-16.991,33.044-39.095,56.15-64.5,83.25"/>
<path fill="none" stroke="#000000" stroke-linecap="square" stroke-miterlimit="10" d="M339.71,570.951  c11.095-31.267,24.166-61.321,36-92.25"/>
<path fill="none" stroke="#000000" stroke-linecap="square" stroke-miterlimit="10" d="M328.46,569.451  c16.512-30.151,31.875-60.749,47.25-91.5c-14.266,30.726-28.972,61.306-42.75,92.25"/>
<path fill="none" stroke="#000000" stroke-linecap="square" stroke-miterlimit="10" d="M324.71,567.951  c10.049-16.868,19.771-33.96,30.75-50.25"/>
</svg>