<svg xmlns="http://www.w3.org/2000/svg" xmlns:xlink="http://www.w3.org/1999/xlink" version="1.1" id="Layer_1" x="0px" y="0px" enable-background="new 0 0 822.05 841.89" xml:space="preserve" viewBox="202.75 305 414.5 234.46">
<path fill-rule="evenodd" clip-rule="evenodd" fill="#72441B" stroke="#000000" stroke-width="2" stroke-linecap="square" stroke-miterlimit="10" d="  M203.749,363.71c9.012,37.335,10.017,60.145,38.272,85.295c30.097,26.79,34.917,45.008,71.627,30.391  c42.525-16.933,85.05-33.866,127.575-50.799c25.637-10.208,16.927-60.664,19.028-85.887  c-50.009,17.952-100.019,35.904-150.027,53.855C269.615,411.143,241.291,383.176,203.749,363.71z"/>
<line fill="none" stroke="#000000" stroke-width="2" stroke-linecap="square" stroke-miterlimit="10" x1="284.749" y1="405.71" x2="287.749" y2="489.708"/>
<path fill-rule="evenodd" clip-rule="evenodd" fill="#5C230D" stroke="#000000" stroke-width="2" stroke-linecap="square" stroke-miterlimit="10" d="  M204.499,360.71c37.277,19.316,66.922,48.421,107.321,33.714c48.727-17.738,97.454-35.476,146.181-53.214  c-29.532-11.812-75.536-44-106.566-32.928C302.456,325.759,253.478,343.234,204.499,360.71z"/>
<path fill-rule="evenodd" clip-rule="evenodd" fill="#FBF4A2" d="M341.749,408.71C312.402,426.194,361.917,429.19,341.749,408.71  L341.749,408.71z"/>
<path fill="none" stroke="#000000" stroke-width="2" stroke-linecap="square" stroke-miterlimit="10" d="M341.749,408.71  c-27.284,16.254,16.168,21.786,0.75,1.5"/>
<path fill-rule="evenodd" clip-rule="evenodd" fill="#FBF4A2" d="M271.999,410.96C240.372,427.762,292.754,431.985,271.999,410.96  L271.999,410.96z"/>
<path fill="none" stroke="#000000" stroke-width="2" stroke-linecap="square" stroke-miterlimit="10" d="M271.999,410.96  c-29.164,15.493,16.565,22.711,0.75,0.75"/>
<path fill-rule="evenodd" clip-rule="evenodd" fill="#FBF4A2" stroke="#000000" stroke-width="2" stroke-linecap="square" stroke-miterlimit="10" d="  M379.249,393.71C415.853,354.477,394.301,430.774,379.249,393.71L379.249,393.71z"/>
<path fill-rule="evenodd" clip-rule="evenodd" fill="#FBF4A2" stroke="#000000" stroke-width="2" stroke-linecap="square" stroke-miterlimit="10" d="  M321.499,440.208C374.129,439.983,307.968,476.928,321.499,440.208L321.499,440.208z"/>
<path fill-rule="evenodd" clip-rule="evenodd" fill="#FBF4A2" stroke="#000000" stroke-width="2" stroke-linecap="square" stroke-miterlimit="10" d="  M372.499,442.458c5.368-11.72,16.507-19.197,29.25-20.248C397.497,431.921,385.748,446.709,372.499,442.458z"/>
<path fill-rule="evenodd" clip-rule="evenodd" fill="#FBF4A2" stroke="#000000" stroke-width="2" stroke-linecap="square" stroke-miterlimit="10" d="  M437.001,386.96c-6.703,5.108-11.562,9.442-11.25,17.25C438.223,403.217,442.731,397.321,437.001,386.96z"/>
<path fill-rule="evenodd" clip-rule="evenodd" fill="#FBF4A2" stroke="#000000" stroke-width="2" stroke-linecap="square" stroke-miterlimit="10" d="  M241.999,417.71c0.75-2.25,1.5-4.5,2.25-6.75c2.826,3.927,4.829,7.328,6,12C247.499,421.21,244.749,419.46,241.999,417.71z"/>
<path fill-rule="evenodd" clip-rule="evenodd" fill="#FBF4A2" stroke="#000000" stroke-width="2" stroke-linecap="square" stroke-miterlimit="10" d="  M264.499,461.208c0.511-12.123,8.042-9.279,14.25,1.5C273.203,468.079,268.689,463.759,264.499,461.208z"/>
<path fill-rule="evenodd" clip-rule="evenodd" fill="#72441B" stroke="#000000" stroke-width="2" stroke-linecap="square" stroke-miterlimit="10" d="  M616.251,405.71c-9.013,37.335-10.017,60.145-38.272,85.295c-30.097,26.79-34.917,45.008-71.626,30.391  c-42.525-16.933-85.051-33.866-127.576-50.799c-25.636-10.208-16.926-60.664-19.028-85.887  c50.009,17.951,100.019,35.902,150.027,53.854C550.385,453.141,578.709,425.175,616.251,405.71z"/>
<line fill="none" stroke="#000000" stroke-width="2" stroke-linecap="square" stroke-miterlimit="10" x1="535.251" y1="447.708" x2="532.251" y2="531.708"/>
<path fill-rule="evenodd" clip-rule="evenodd" fill="#5C230D" stroke="#000000" stroke-width="2" stroke-linecap="square" stroke-miterlimit="10" d="  M615.501,402.71c-37.276,19.315-66.922,48.419-107.321,33.713c-48.727-17.738-97.454-35.476-146.181-53.213  c29.532-11.812,75.536-44,106.566-32.928C517.544,367.759,566.522,385.234,615.501,402.71z"/>
<path fill-rule="evenodd" clip-rule="evenodd" fill="#FBF4A2" d="M477.501,451.458C506.337,466.069,461.55,473.125,477.501,451.458  L477.501,451.458z"/>
<path fill="none" stroke="#000000" stroke-width="2" stroke-linecap="square" stroke-miterlimit="10" d="M477.501,451.458  c28.94,14.663-15.696,21.404,0,0.75"/>
<path fill-rule="evenodd" clip-rule="evenodd" fill="#FBF4A2" d="M548.001,452.958C579.629,469.762,527.245,473.984,548.001,452.958  L548.001,452.958z"/>
<path fill="none" stroke="#000000" stroke-width="2" stroke-linecap="square" stroke-miterlimit="10" d="M548.001,452.958  c29.165,15.495-16.566,22.714-0.75,0.75"/>
<path fill-rule="evenodd" clip-rule="evenodd" fill="#FBF4A2" stroke="#000000" stroke-width="2" stroke-linecap="square" stroke-miterlimit="10" d="  M440.751,435.708C403.693,398.128,425.955,472.141,440.751,435.708L440.751,435.708z"/>
<path fill-rule="evenodd" clip-rule="evenodd" fill="#FBF4A2" stroke="#000000" stroke-width="2" stroke-linecap="square" stroke-miterlimit="10" d="  M498.501,482.208C445.755,481.983,511.913,519.399,498.501,482.208L498.501,482.208z"/>
<path fill-rule="evenodd" clip-rule="evenodd" fill="#FBF4A2" stroke="#000000" stroke-width="2" stroke-linecap="square" stroke-miterlimit="10" d="  M447.501,484.458c-5.942-11.246-16.675-18.482-29.25-20.25C421.557,474.513,434.347,488.907,447.501,484.458z"/>
<path fill-rule="evenodd" clip-rule="evenodd" fill="#FBF4A2" stroke="#000000" stroke-width="2" stroke-linecap="square" stroke-miterlimit="10" d="  M382.999,428.958c6.203,4.92,10.666,9.83,11.25,17.25C381.399,445.803,377.21,439.818,382.999,428.958z"/>
<path fill-rule="evenodd" clip-rule="evenodd" fill="#FBF4A2" stroke="#000000" stroke-width="2" stroke-linecap="square" stroke-miterlimit="10" d="  M578.001,459.708c-0.75-2.25-1.5-4.5-2.25-6.75c-2.57,3.693-4.812,7.647-6,12C572.501,463.208,575.251,461.458,578.001,459.708z"/>
<path fill-rule="evenodd" clip-rule="evenodd" fill="#FBF4A2" stroke="#000000" stroke-width="2" stroke-linecap="square" stroke-miterlimit="10" d="  M555.501,503.208c-0.999-11.574-8.206-9.568-14.25,1.5C546.776,510.059,551.327,505.813,555.501,503.208z"/>
<path fill-rule="evenodd" clip-rule="evenodd" fill="#72441B" stroke="#000000" stroke-width="2" stroke-linecap="square" stroke-miterlimit="10" d="  M520.251,476.208c-22.134,21.788-37.449,45.491-68.319,50.637c-41.038,6.839-61.622,22.726-86.089-11.004  c-26.938-37.136-53.877-74.272-80.816-111.409c-16.218-22.358,18.017-60.249,29.722-82.722  c32.698,41.887,65.397,83.774,98.096,125.661C439.379,481.362,478.131,472.727,520.251,476.208z"/>
<line fill="none" stroke="#000000" stroke-width="2" stroke-linecap="square" stroke-miterlimit="10" x1="429.501" y1="468.708" x2="382.249" y2="538.458"/>
<path fill-rule="evenodd" clip-rule="evenodd" fill="#5C230D" stroke="#000000" stroke-width="2" stroke-linecap="square" stroke-miterlimit="10" d="  M521.751,473.208c-41.825-3.4-82.132,5.538-108.471-28.401c-31.844-41.032-63.688-82.064-95.531-123.097  c31.283,5.925,86.98,3.551,107.425,29.398C457.366,391.809,489.559,432.508,521.751,473.208z"/>
<path fill-rule="evenodd" clip-rule="evenodd" fill="#FBF4A2" d="M379.249,440.958c4.181,7.275,7.786,10.187,2.25,18  C367.889,454.203,363.869,444.583,379.249,440.958z"/>
<path fill="none" stroke="#000000" stroke-width="2" stroke-linecap="square" stroke-miterlimit="10" d="M379.249,440.958  c4.181,7.275,7.786,10.187,2.25,18c-14.292-4.994-16.56-12.427-3-17.25"/>
<path fill-rule="evenodd" clip-rule="evenodd" fill="#FBF4A2" d="M437.001,479.958c4.186,7.271,7.784,10.189,2.25,18  C427.212,492.204,420.979,483.575,437.001,479.958z"/>
<path fill="none" stroke="#000000" stroke-width="2" stroke-linecap="square" stroke-miterlimit="10" d="M437.001,479.958  c4.186,7.271,7.784,10.189,2.25,18c-12.755-6.098-17.183-12.346-3-17.25"/>
<path fill-rule="evenodd" clip-rule="evenodd" fill="#FBF4A2" stroke="#000000" stroke-width="2" stroke-linecap="square" stroke-miterlimit="10" d="  M355.999,407.96C345.3,355.212,323.981,432.66,355.999,407.96L355.999,407.96z"/>
<path fill-rule="evenodd" clip-rule="evenodd" fill="#FBF4A2" stroke="#000000" stroke-width="2" stroke-linecap="square" stroke-miterlimit="10" d="  M379.999,478.458C335.568,449.334,371.795,517.298,379.999,478.458L379.999,478.458z"/>
<path fill-rule="evenodd" clip-rule="evenodd" fill="#FBF4A2" stroke="#000000" stroke-width="2" stroke-linecap="square" stroke-miterlimit="10" d="  M335.749,452.958c1.056-12.741-3.666-24.764-13.5-32.998C319.011,430.125,322.104,449.764,335.749,452.958z"/>
<path fill-rule="evenodd" clip-rule="evenodd" fill="#FBF4A2" stroke="#000000" stroke-width="2" stroke-linecap="square" stroke-miterlimit="10" d="  M310.999,371.21c2.633,7.425,3.757,14.062,0,20.25C299.309,384.969,300.603,376.968,310.999,371.21z"/>
<path fill-rule="evenodd" clip-rule="evenodd" fill="#FBF4A2" stroke="#000000" stroke-width="2" stroke-linecap="square" stroke-miterlimit="10" d="  M459.501,501.708c0.5-2.5,1-5,1.5-7.5c-4.48,1.981-7.888,4.003-11.25,7.5C453.001,501.708,456.251,501.708,459.501,501.708z"/>
<path fill-rule="evenodd" clip-rule="evenodd" fill="#FBF4A2" stroke="#000000" stroke-width="2" stroke-linecap="square" stroke-miterlimit="10" d="  M417.501,526.458c5.185-11.33-2.733-12.027-13.502-6c0,1.25,0,2.5,0,3.75C407.905,526.116,415.377,526.409,417.501,526.458z"/>
</svg>