<svg xmlns="http://www.w3.org/2000/svg" xmlns:xlink="http://www.w3.org/1999/xlink" version="1.1" id="Layer_1" x="0px" y="0px" enable-background="new 0 0 822.05 841.89" xml:space="preserve" viewBox="307.48 385.2 202.85 73.33">
<path fill-rule="evenodd" clip-rule="evenodd" fill="#C3AB86" stroke="#000000" stroke-linecap="square" stroke-miterlimit="10" d="  M308.733,425.447c65.75,1.5,131.501,3,197.252,4.5c1.639,43.273-79.937,23.771-102.752,23.25  C382.341,452.719,302.121,465.995,308.733,425.447z"/>
<path fill-rule="evenodd" clip-rule="evenodd" fill="#C3AB86" stroke="#000000" stroke-linecap="square" stroke-miterlimit="10" d="  M318.483,420.195c-32.595,10.895,38.07,24.887,47.25,24.377c35.815-1.99,78.012,7.689,112.502,0.375  c40.864-8.666,23.343-21.303-9.75-24.752C419.592,415.099,367.316,414.596,318.483,420.195z"/>
<path fill-rule="evenodd" clip-rule="evenodd" fill="#E9E7E4" stroke="#000000" stroke-linecap="square" stroke-miterlimit="10" d="  M310.233,398.445c2.609-2.638,5.703-4.729,8.25-7.5c3.285-0.451,10.595-2.839,12.75-3.75c10.156,2.288,18.533,2.93,26.25-1.5  c3.679,4.058,6.543,4.297,10.5,7.5c0.121-1.546-0.129-3.046-0.75-4.5c7.559-0.488,17.565-0.004,25.5,3.75  c6.033-4.564,15.996-3.991,22.502,3c17.092-22.047,66.352,4.88,85.125,1.125c16.33-3.266,8.687,12.219-1.5,16.875  c-21.107,9.649-43.837,5.464-66.92,5.062C415.921,418.227,304.042,423.053,310.233,398.445z"/>
<path fill-rule="evenodd" clip-rule="evenodd" fill="#E9E7E4" stroke="#000000" stroke-linecap="square" stroke-miterlimit="10" d="  M320.733,429.197c-8.798-6.462-12.188-17.305-12.75-28.502c28.415,22.686,92.255,13.509,127.502,12.75  c11.711-0.252,64.729-10.13,71.25-5.25c13.825,10.346-31.503,47.12-47.25,27.752c-9.8,4.734-5.575,9.009-9.75-2.25  c-12.927,8.344-4.601,4.814-14.25,1.5c-10.529,7.03-19.464,4.775-21.75-9c-1.195,4.004-5.114,9.824-6.002,12.75  c-1.811-1.226-3.511-7.071-4.5-9c-1.846,3.54-2.858,7.401-6,9c-2.216-2.913-4.009-6.644-6-9.75c-10.791,10.633-0.604,7.053-12,2.25  c-8.373,6.407,0.549,8.927-12,0c-5.108,11.702-1.987,8.139-12.75,1.5C349.446,444.678,331.047,436.032,320.733,429.197z"/>
</svg>