<svg xmlns="http://www.w3.org/2000/svg" xmlns:xlink="http://www.w3.org/1999/xlink" version="1.1" id="Layer_1" x="0px" y="0px" enable-background="new 0 0 822.05 841.89" xml:space="preserve" viewBox="292.58 254.33 233.19 331.24">
<path fill-rule="evenodd" clip-rule="evenodd" fill="#D1D1D2" stroke="#000000" stroke-width="2" stroke-linecap="square" stroke-miterlimit="10" d="  M307.5,389.39c9.831,50.863,19.662,101.727,29.492,152.591c6.929,35.848,32.672,40.662,68.758,42.409  c18.691,0.905,37.787-1.596,55.5-7.5c25.087-8.362,21.636-15.073,26.271-40.42c9.243-50.526,18.485-101.053,27.729-151.58  c-38.19,0-76.38,0-114.57,0C381.762,384.89,317.862,375.598,307.5,389.39z"/>
<path fill-rule="evenodd" clip-rule="evenodd" fill="#878787" stroke="#000000" stroke-width="2" stroke-linecap="square" stroke-miterlimit="10" d="  M515.25,384.89c-35.605,25.606-171.451,25.708-207,0C350.668,359.921,472.797,359.962,515.25,384.89z"/>
<path fill-rule="evenodd" clip-rule="evenodd" fill="#D1D1D2" stroke="#000000" stroke-width="2" stroke-linecap="square" stroke-miterlimit="10" d="  M305.25,397.64C257.012,350.699,378.698,398.135,305.25,397.64L305.25,397.64z"/>
<path fill-rule="evenodd" clip-rule="evenodd" fill="#D1D1D2" d="M499.5,378.14C555.315,325.749,492.433,432.668,499.5,378.14  L499.5,378.14z"/>
<path fill="none" stroke="#000000" stroke-width="2" stroke-linecap="square" stroke-miterlimit="10" d="M499.5,378.14  c54.103-50.783-1.918,52.592-0.75,1.5"/>
<path fill="none" stroke="#000000" stroke-width="2" stroke-linecap="square" stroke-miterlimit="10" d="M308.25,360.89  c4.999,31.929-18.577,13.423-5.25-17.25c17.948-41.309,64.421-81.071,111.002-82.5c41.592-1.276,71.111,31.568,94.123,62.25  c11.229,14.971,19.447,26.137,15.75,44.625c-3.159,15.797-14.612,3.875-12.375-8.625"/>
<path fill-rule="evenodd" clip-rule="evenodd" fill="#878787" stroke="#000000" stroke-width="2" stroke-linecap="square" stroke-miterlimit="10" d="  M453.75,266.39c-7.407,12.349-78.515,15.644-79.5,0C373.27,250.833,446.705,252.488,453.75,266.39z"/>
</svg>