<svg xmlns="http://www.w3.org/2000/svg" xmlns:xlink="http://www.w3.org/1999/xlink" version="1.1" id="Layer_1" x="0px" y="0px" enable-background="new 0 0 822.05 841.89" xml:space="preserve" viewBox="326.57 344.4 167.26 155.78">
<path fill-rule="evenodd" clip-rule="evenodd" fill="#9596B5" stroke="#000000" stroke-linecap="square" stroke-miterlimit="10" d="  M466.619,480.718C441.835,513.988,442.654,447.956,466.619,480.718L466.619,480.718z"/>
<path fill-rule="evenodd" clip-rule="evenodd" fill="#200E7E" stroke="#000000" stroke-linecap="square" stroke-miterlimit="10" d="  M329.365,455.218c0,17.328-8.99,42.75,11.25,42.75c20.675,0,2.849-6.817,15-12.75c13.569-6.625,16.078-14.407,33-6.75  c5.472,2.476,6.068,13.066,9.75,15c18.062,9.487,22.504,6.163,22.504-16.875c0-27.578-3.331-21.375-30.196-21.375  C370.237,455.218,349.801,455.218,329.365,455.218z"/>
<path fill-rule="evenodd" clip-rule="evenodd" fill="#1F0B7C" stroke="#000000" stroke-linecap="square" stroke-miterlimit="10" d="  M420.869,497.968c21.424-7.718,13.5-34.447,13.5-52.5C412.945,453.186,420.869,479.916,420.869,497.968z"/>
<path fill-rule="evenodd" clip-rule="evenodd" fill="#1F0B7C" stroke="#000000" stroke-linecap="square" stroke-miterlimit="10" d="  M329.365,455.218c27.266,0,84.88,12.93,105.004-9.75C407.103,445.468,349.49,432.539,329.365,455.218z"/>
<path fill-rule="evenodd" clip-rule="evenodd" fill="#1F0B7C" stroke="#000000" stroke-linecap="square" stroke-miterlimit="10" d="  M353.365,488.218c-0.5,3.353-1.396,6.337-1.5,9.75c9.373-4.8,14.751-12.914,17.25-22.5  C360.991,477.333,358.026,481.892,353.365,488.218z"/>
<path fill-rule="evenodd" clip-rule="evenodd" fill="#D1160B" stroke="#000000" stroke-linecap="square" stroke-miterlimit="10" d="  M372.865,406.47c0,13.526,4.788,37.799-6,45.748C366.865,437.985,360.981,415.016,372.865,406.47z"/>
<path fill-rule="evenodd" clip-rule="evenodd" fill="#F8130D" stroke="#000000" stroke-linecap="square" stroke-miterlimit="10" d="  M372.865,406.47c-9.422-1.924-19.002-0.746-27,3.75C355.287,412.145,364.868,410.966,372.865,406.47z"/>
<path fill-rule="evenodd" clip-rule="evenodd" fill="#F8130D" stroke="#000000" stroke-linecap="square" stroke-miterlimit="10" d="  M345.865,410.22c0,8.062-3.31,66.31,21,41.998C380.137,438.946,368.025,403.961,345.865,410.22z"/>
<path fill-rule="evenodd" clip-rule="evenodd" fill="#D1160B" stroke="#000000" stroke-linecap="square" stroke-miterlimit="10" d="  M417.869,406.47c0,13.527,4.789,37.803-6.004,45.748C411.865,437.984,405.979,415.011,417.869,406.47z"/>
<path fill-rule="evenodd" clip-rule="evenodd" fill="#F8130D" stroke="#000000" stroke-linecap="square" stroke-miterlimit="10" d="  M417.869,406.47c-9.423-1.924-19.005-0.746-27.004,3.75C400.288,412.144,409.87,410.965,417.869,406.47z"/>
<path fill-rule="evenodd" clip-rule="evenodd" fill="#F8130D" stroke="#000000" stroke-linecap="square" stroke-miterlimit="10" d="  M390.865,410.22c0,10.687-5.275,63.855,21.75,41.998C426.9,440.665,413.277,404.404,390.865,410.22z"/>
<path fill-rule="evenodd" clip-rule="evenodd" fill="#F5F21F" stroke="#000000" stroke-linecap="square" stroke-miterlimit="10" d="  M420.869,411.72c-11.219,0-109.959,5.801-91.504-15C337.58,387.461,427.806,386.994,420.869,411.72z"/>
<path fill-rule="evenodd" clip-rule="evenodd" fill="#F3DD15" stroke="#000000" stroke-linecap="square" stroke-miterlimit="10" d="  M420.869,411.72c11.196-4.084,16.542-13.218,13.5-24.75C423.173,391.054,417.827,400.188,420.869,411.72z"/>
<path fill-rule="evenodd" clip-rule="evenodd" fill="#F3DD15" stroke="#000000" stroke-linecap="square" stroke-miterlimit="10" d="  M329.365,396.72c27.266,0,84.88,12.93,105.004-9.75C406.574,386.97,350.428,374.286,329.365,396.72z"/>
<path fill-rule="evenodd" clip-rule="evenodd" fill="#200E7E" stroke="#000000" stroke-linecap="square" stroke-miterlimit="10" d="  M412.615,394.47c-11.4,3.22-36.116-5.884-21-21S415.835,383.07,412.615,394.47z"/>
<path fill-rule="evenodd" clip-rule="evenodd" fill="#1F0B7C" stroke="#000000" stroke-linecap="square" stroke-miterlimit="10" d="  M418.619,369.72c2.906,9.982,1.445,19.267-6.004,24.75C409.709,384.488,411.17,375.204,418.619,369.72z"/>
<path fill-rule="evenodd" clip-rule="evenodd" fill="#200E7E" stroke="#000000" stroke-linecap="square" stroke-miterlimit="10" d="  M418.619,369.72c-9.423-1.924-19.005-0.746-27.004,3.75C401.038,375.394,410.62,374.215,418.619,369.72z"/>
<path fill-rule="evenodd" clip-rule="evenodd" fill="#200E7E" stroke="#000000" stroke-linecap="square" stroke-miterlimit="10" d="  M367.615,393.72c-11.4,3.22-36.116-5.884-21-21S370.835,382.32,367.615,393.72z"/>
<path fill-rule="evenodd" clip-rule="evenodd" fill="#1F0B7C" stroke="#000000" stroke-linecap="square" stroke-miterlimit="10" d="  M373.615,368.22c2.95,10.2,1.491,19.805-6,25.5C364.756,383.652,366.332,374.263,373.615,368.22z"/>
<path fill-rule="evenodd" clip-rule="evenodd" fill="#200E7E" stroke="#000000" stroke-linecap="square" stroke-miterlimit="10" d="  M373.615,368.22c-9.708-2.326-19.52-0.986-27,4.5C356.295,374.939,365.925,373.562,373.615,368.22z"/>
<path fill-rule="evenodd" clip-rule="evenodd" fill="#200E7E" stroke="#000000" stroke-linecap="square" stroke-miterlimit="10" d="  M444.869,478.468c-11.368,38.644,15.544,4.227,26.625,10.875c3.454,2.072,14.625,19.75,14.625,3.569  C486.119,469.204,465.854,478.468,444.869,478.468z"/>
<path fill-rule="evenodd" clip-rule="evenodd" fill="#1F0B7C" stroke="#000000" stroke-linecap="square" stroke-miterlimit="10" d="  M486.119,497.968c6.076-6.578,9.05-12.64,6-23.25C483.733,480.51,485.361,487.411,486.119,497.968z"/>
<path fill-rule="evenodd" clip-rule="evenodd" fill="#1F0B7C" stroke="#000000" stroke-linecap="square" stroke-miterlimit="10" d="  M444.869,478.468c15.191,0,33.957,3.922,47.25-3.75C476.928,474.718,458.162,470.796,444.869,478.468z"/>
<path fill-rule="evenodd" clip-rule="evenodd" fill="#1F0B7C" stroke="#000000" stroke-linecap="square" stroke-miterlimit="10" d="  M456.119,493.468c-2.416,0.836,2.788,3.626,6.75-5.25C458.78,488.662,458.525,492.636,456.119,493.468z"/>
<path fill-rule="evenodd" clip-rule="evenodd" fill="#F3DD15" stroke="#000000" stroke-linecap="square" stroke-miterlimit="10" d="  M482.369,432.718c0,13.779,5.161,37.525-6,45.75C476.369,464.234,470.485,441.264,482.369,432.718z"/>
<path fill-rule="evenodd" clip-rule="evenodd" fill="#F5F21F" stroke="#000000" stroke-linecap="square" stroke-miterlimit="10" d="  M482.369,432.718c-9.422-1.924-19.003-0.745-27,3.75C464.791,438.392,474.372,437.213,482.369,432.718z"/>
<path fill-rule="evenodd" clip-rule="evenodd" fill="#F5F21F" stroke="#000000" stroke-linecap="square" stroke-miterlimit="10" d="  M455.369,436.468c0,8.062-3.311,66.311,21,42C489.641,465.197,477.53,430.209,455.369,436.468z"/>
<path fill-rule="evenodd" clip-rule="evenodd" fill="#F8130D" stroke="#000000" stroke-linecap="square" stroke-miterlimit="10" d="  M468.869,412.47c-6,7.75-12,15.499-18,23.248c11.764,2.459,24.264,1.957,36-0.75C480.869,427.469,474.869,419.97,468.869,412.47z"/>
<path fill-rule="evenodd" clip-rule="evenodd" fill="#F8130D" stroke="#000000" stroke-linecap="square" stroke-miterlimit="10" d="  M333.115,374.22c30.251,0,60.502,0,90.754,0c-9.755-6.117-33.247-27.989-44.254-27.75  C367.155,346.741,344.168,367.624,333.115,374.22z"/>
<path fill-rule="evenodd" clip-rule="evenodd" fill="#D1160B" stroke="#000000" stroke-linecap="square" stroke-miterlimit="10" d="  M430.619,369.72c-13.288-8.107-36.515-30.99-51.004-23.25C392.74,354.7,416.734,378.967,430.619,369.72z"/>
</svg>