<svg xmlns="http://www.w3.org/2000/svg" xmlns:xlink="http://www.w3.org/1999/xlink" version="1.1" id="Layer_1" x="0px" y="0px" enable-background="new 0 0 822.05 841.89" xml:space="preserve" viewBox="302.56 257.29 218.15 328.32">
<path fill-rule="evenodd" clip-rule="evenodd" fill="#878787" stroke="#000000" stroke-width="2" stroke-linecap="square" stroke-miterlimit="10" d="  M474.006,559.14c3.808,29.453-36.608,35.513-41.25,6.75C428.099,537.032,468.106,530.656,474.006,559.14z"/>
<path fill-rule="evenodd" clip-rule="evenodd" fill="#BCBDBE" stroke="#000000" stroke-width="2" stroke-linecap="square" stroke-miterlimit="10" d="  M410.254,529.14c28.735,12.965,58.707-1.073,75.002-26.25c1.4,33.141,10.675,62.932-28.5,72.75  C417.161,585.564,413.329,562.331,410.254,529.14z"/>
<path fill-rule="evenodd" clip-rule="evenodd" fill="#D5EFFC" stroke="#000000" stroke-width="2" stroke-linecap="square" stroke-miterlimit="10" d="  M408.004,526.14c-25.032-72.841-112.279-79.698-103.877-172.125c6.421-70.638,77.064-110.901,141.379-90.375  c63.882,20.387,95.966,105.427,57.75,162.75c-7.497,11.246-14.125,21.564-17.25,35.25c-2.876,12.597,3.191,34.995-3.75,44.25  C463.589,530.78,437.053,544.022,408.004,526.14z"/>
<path fill="none" stroke="#000000" stroke-width="2" stroke-linecap="square" stroke-miterlimit="10" d="M411.004,535.89  c27.13,12.34,58.711,5.785,75.752-19.5"/>
<path fill="none" stroke="#000000" stroke-width="2" stroke-linecap="square" stroke-miterlimit="10" d="M412.504,543.39  c27.282,11.695,59.264,7.938,75.752-19.5"/>
<path fill="none" stroke="#000000" stroke-width="2" stroke-linecap="square" stroke-miterlimit="10" d="M413.254,552.39  c27.543,11.878,59.018,7.827,75.752-19.5"/>
<path fill="none" stroke="#000000" stroke-width="2" stroke-linecap="square" stroke-miterlimit="10" d="M414.006,560.64  c27.095,12.305,58.726,5.759,75.75-19.5"/>
<path fill="none" stroke="#000000" stroke-width="2" stroke-linecap="square" stroke-miterlimit="10" d="M414.006,569.64  c27.607,11.297,59.114,8.185,75.75-19.5"/>
<path fill-rule="evenodd" clip-rule="evenodd" fill="#ADE1FA" stroke="#000000" stroke-width="2" stroke-linecap="square" stroke-miterlimit="10" d="  M408.004,526.14c-2.47-38.794,36.001-58.801,67.127-40.125C509.367,506.557,436.844,543.981,408.004,526.14z"/>
<path fill-rule="evenodd" clip-rule="evenodd" fill="#FCF7B9" stroke="#000000" stroke-width="2" stroke-linecap="square" stroke-miterlimit="10" d="  M444.756,491.64c-0.688-30.826,21.653-152.73-33.001-143.625C346.081,358.956,429.59,462.772,444.756,491.64z"/>
<path fill-rule="evenodd" clip-rule="evenodd" fill="#F6EB14" stroke="#000000" stroke-width="2" stroke-linecap="square" stroke-miterlimit="10" d="  M434.256,403.89c-40.844-4.479,0.769,66.161,6.75,83.25C438.756,459.39,436.506,431.64,434.256,403.89z"/>
</svg>