<svg xmlns="http://www.w3.org/2000/svg" xmlns:xlink="http://www.w3.org/1999/xlink" version="1.1" id="Layer_1" x="0px" y="0px" enable-background="new 0 0 822.05 841.89" xml:space="preserve" viewBox="194.55 329.29 430.79 184.25">
<path fill-rule="evenodd" clip-rule="evenodd" fill="#F57E20" stroke="#000000" stroke-width="2" stroke-linecap="square" stroke-miterlimit="10" d="  M263.051,463.791c13.972-4.795,33.255-13.668,43.5-15.375c16.563-2.761,63.899-8.112,75-19.875c17.116-18.137-73.021,4.599-79.5,6  c-0.943-7.88-0.274-18.341,1.5-25.498c20.135,9.042,82.446-1.352,90.75-17.25c-10.749-14.54-19.641-28.561-12.75-54  c-24.708-3.76-42.062-4.195-66.75-0.75c2.117,9.968,1.955,21.338,2.25,32.25c-34.908-0.635-40.646-6.99-63.066,17.832  C244.481,397.646,260.817,449.049,263.051,463.791z"/>
<path fill-rule="evenodd" clip-rule="evenodd" fill="#C8EAFB" stroke="#000000" stroke-width="2" stroke-linecap="square" stroke-miterlimit="10" d="  M323.801,343.792c24.495-10.177,31.855,25.066,18,34.5C327.238,388.208,320.347,353.555,323.801,343.792z"/>
<path fill-rule="evenodd" clip-rule="evenodd" fill="#A74F25" stroke="#000000" stroke-width="2" stroke-linecap="square" stroke-miterlimit="10" d="  M206.801,388.042c19.373,21.855-3.088,33.221-11.25,52.498c33.296,10.964,68.91,36.263,82.5-11.25  C292.007,380.5,238.416,389.88,206.801,388.042z"/>
<path fill-rule="evenodd" clip-rule="evenodd" fill="#983620" stroke="#000000" stroke-width="2" stroke-linecap="square" stroke-miterlimit="10" d="  M257.051,461.541c15.013-4.623,46.65-60.585,14.25-69.748C292.047,419.883,268.575,436.853,257.051,461.541z"/>
<line fill="none" stroke="#000000" stroke-width="2" stroke-linecap="square" stroke-miterlimit="10" x1="260.801" y1="453.291" x2="264.551" y2="455.541"/>
<line fill="none" stroke="#000000" stroke-width="2" stroke-linecap="square" stroke-miterlimit="10" x1="278.051" y1="429.291" x2="281.801" y2="429.291"/>
<line fill="none" stroke="#000000" stroke-width="2" stroke-linecap="square" stroke-miterlimit="10" x1="280.301" y1="410.542" x2="283.301" y2="410.542"/>
<path fill="none" stroke="#000000" stroke-width="2" stroke-linecap="square" stroke-miterlimit="10" d="M277.301,391.792  c30.333,17.013,5.584,51.13-8.25,70.498"/>
<path fill="none" stroke="#000000" stroke-width="2" stroke-linecap="square" stroke-miterlimit="10" d="M290.051,406.042  c7.874,7.78,0.329,34.933-1.5,50.248c19.656,0.522,12.984-35.043,14.25-50.998c-5.212-0.556-11.38-3.189-15.75-3"/>
<path fill="none" stroke="#000000" stroke-width="2" stroke-linecap="square" stroke-miterlimit="10" d="M276.551,369.292  c15.734,13.439,44.536,5.312,63.75,4.5c-7.468-1.494-14.963-3.415-22.5-4.5"/>
<path fill-rule="evenodd" clip-rule="evenodd" fill="#F57E20" d="M339.551,406.792v-33.75V406.792z"/>
<line fill="none" stroke="#000000" stroke-width="2" stroke-linecap="square" stroke-miterlimit="10" x1="339.551" y1="406.792" x2="339.551" y2="373.042"/>
<path fill="none" stroke="#000000" stroke-width="2" stroke-linecap="square" stroke-miterlimit="10" d="M381.551,398.542  c-10.75,0.25-21.5,0.5-32.25,0.75c0-21.634,3.355-46.416-2.25-66.75"/>
<line fill="none" stroke="#000000" stroke-width="2" stroke-linecap="square" stroke-miterlimit="10" x1="378.551" y1="374.542" x2="382.301" y2="397.792"/>
<line fill="none" stroke="#000000" stroke-width="2" stroke-linecap="square" stroke-miterlimit="10" x1="350.801" y1="385.042" x2="379.301" y2="383.542"/>
<path fill-rule="evenodd" clip-rule="evenodd" fill="#C8EAFB" stroke="#000000" stroke-width="2" stroke-linecap="square" stroke-miterlimit="10" d="  M353.801,340.042c0,14.003-5.956,26.884,9.75,27.75C366.607,354.837,366.951,342.354,353.801,340.042z"/>
<path fill-rule="evenodd" clip-rule="evenodd" fill="#C8EAFB" stroke="#000000" stroke-width="2" stroke-linecap="square" stroke-miterlimit="10" d="  M366.551,343.042c-1.571,7.139,0.521,16.652,0.75,24c1.75,0,3.5,0,5.25,0C375.482,356.319,374.658,346.417,366.551,343.042z"/>
<path fill-rule="evenodd" clip-rule="evenodd" fill="#878787" stroke="#000000" stroke-width="2" stroke-linecap="square" stroke-miterlimit="10" d="  M307.301,443.541C304.085,443.787,304.678,443.741,307.301,443.541L307.301,443.541z"/>
<path fill-rule="evenodd" clip-rule="evenodd" fill="#D1D1D2" stroke="#000000" stroke-width="2" stroke-linecap="square" stroke-miterlimit="10" d="  M311.051,448.041c7.578,9.312,22.453,3.786,30.75,4.5c8.667-5.987,19.814-8,28.5-6.75c9.038-8.483,23.268-0.771,28.5-18.75  c6.352-21.829-8.877-20.78-24.75-24.748C355.992,397.778,278.722,409.713,311.051,448.041z"/>
<path fill-rule="evenodd" clip-rule="evenodd" fill="#878787" stroke="#000000" stroke-width="2" stroke-linecap="square" stroke-miterlimit="10" d="  M325.301,412.792c-40.624,41.898,24.876,31.021,46.288,26.229c12.213-2.734,27.955-7.399,21.962-23.979  C386.262,394.88,342.713,410.695,325.301,412.792z"/>
<path fill-rule="evenodd" clip-rule="evenodd" fill="#983620" stroke="#000000" stroke-width="2" stroke-linecap="square" stroke-miterlimit="10" d="  M302.801,418.042c0.25-3,0.5-6,0.75-9C327.658,413.128,327.663,432.74,302.801,418.042z"/>
<path fill="none" stroke="#000000" stroke-width="2" stroke-linecap="square" stroke-miterlimit="10" d="M323.051,422.542  c4.45,1.049,4.782,5.73,8.25,1.498C327.95,421.156,322.938,422.516,323.051,422.542z"/>
<path fill-rule="evenodd" clip-rule="evenodd" fill="#F57E20" stroke="#000000" stroke-width="2" stroke-linecap="square" stroke-miterlimit="10" d="  M302.051,433.791c-2.22,5.275-2.053,12.316-3,18c13.466-6.665,89.024-15.078,84-31.498  C379.468,408.582,311.232,431.557,302.051,433.791z"/>
<path fill-rule="evenodd" clip-rule="evenodd" fill="#878787" stroke="#000000" stroke-width="2" stroke-linecap="square" stroke-miterlimit="10" d="  M380.801,424.041C380.05,423.844,375.815,422.735,380.801,424.041L380.801,424.041z"/>
<path fill-rule="evenodd" clip-rule="evenodd" fill="#F57E20" stroke="#000000" stroke-width="2" stroke-linecap="square" stroke-miterlimit="10" d="  M337.301,483.291c22.308-6.632,35.605-11.418,53.25-18c19.574-7.302,74.592-8.124,87.002-24.75  c14.659-19.638-87.289,6.621-95.252,8.25c-1.014-10.178,0.862-20.081,2.25-29.248c25.639,11.778,95.128-2.886,106.502-20.25  c-24.104-10.851-5.707-61.484-26.056-64.556c-23.5-3.547-40.519-3.116-64.168-0.278c-4.976,0.597-0.676,31.481-0.528,37.833  c-40.323,0-47.852-7.253-73.926,21.192C315.283,405.584,334.646,466.183,337.301,483.291z"/>
<path fill-rule="evenodd" clip-rule="evenodd" fill="#C8EAFB" stroke="#000000" stroke-width="2" stroke-linecap="square" stroke-miterlimit="10" d="  M408.551,342.292c29.536-12.517,30.956,22.654,21.002,41.25C414.54,368.52,395.72,373.727,408.551,342.292z"/>
<path fill-rule="evenodd" clip-rule="evenodd" fill="#A74F25" stroke="#000000" stroke-width="2" stroke-linecap="square" stroke-miterlimit="10" d="  M271.301,394.792c23.763,25.13-3.854,39.316-13.5,61.498c38.889,12.558,81.067,41.71,97.5-13.5  C372.236,385.892,306.959,396.911,271.301,394.792z"/>
<path fill-rule="evenodd" clip-rule="evenodd" fill="#983620" stroke="#000000" stroke-width="2" stroke-linecap="square" stroke-miterlimit="10" d="  M330.551,481.041c18.191-2.545,52.323-75.25,16.5-81.748C370.999,434.853,342.192,449.446,330.551,481.041z"/>
<line fill="none" stroke="#000000" stroke-width="2" stroke-linecap="square" stroke-miterlimit="10" x1="334.301" y1="471.291" x2="338.801" y2="474.291"/>
<line fill="none" stroke="#000000" stroke-width="2" stroke-linecap="square" stroke-miterlimit="10" x1="355.301" y1="442.791" x2="359.051" y2="443.541"/>
<line fill="none" stroke="#000000" stroke-width="2" stroke-linecap="square" stroke-miterlimit="10" x1="357.551" y1="421.042" x2="360.551" y2="421.042"/>
<path fill="none" stroke="#000000" stroke-width="2" stroke-linecap="square" stroke-miterlimit="10" d="M353.801,399.292  c39.636,10.976,3.299,64.928-9,82.498"/>
<path fill="none" stroke="#000000" stroke-width="2" stroke-linecap="square" stroke-miterlimit="10" d="M368.801,415.792  c10.286,6.898-0.184,42.386-2.25,58.498c22.267,3.054,15.098-41.958,16.5-59.248c-5.846-0.887-12.69-4.171-18-3.75"/>
<path fill="none" stroke="#000000" stroke-width="2" stroke-linecap="square" stroke-miterlimit="10" d="M353.051,373.042  c17.702,15.486,52.55,6.034,74.252,5.25c-8.751-2-17.501-4-26.252-6"/>
<path fill-rule="evenodd" clip-rule="evenodd" fill="#F57E20" d="M427.303,417.292l-0.75-40.5L427.303,417.292z"/>
<line fill="none" stroke="#000000" stroke-width="2" stroke-linecap="square" stroke-miterlimit="10" x1="427.303" y1="417.292" x2="426.553" y2="376.792"/>
<path fill="none" stroke="#000000" stroke-width="2" stroke-linecap="square" stroke-miterlimit="10" d="M476.053,406.792  c-12.5,0.5-25,1-37.5,1.5c0-24.664,5.025-55.374-3-78"/>
<line fill="none" stroke="#000000" stroke-width="2" stroke-linecap="square" stroke-miterlimit="10" x1="472.303" y1="379.042" x2="476.803" y2="406.792"/>
<line fill="none" stroke="#000000" stroke-width="2" stroke-linecap="square" stroke-miterlimit="10" x1="440.053" y1="391.042" x2="473.053" y2="389.542"/>
<path fill-rule="evenodd" clip-rule="evenodd" fill="#C8EAFB" stroke="#000000" stroke-width="2" stroke-linecap="square" stroke-miterlimit="10" d="  M443.803,338.542c0,14.115-6.969,32.668,10.5,32.25C454.303,356.751,460.7,340.14,443.803,338.542z"/>
<path fill-rule="evenodd" clip-rule="evenodd" fill="#C8EAFB" stroke="#000000" stroke-width="2" stroke-linecap="square" stroke-miterlimit="10" d="  M458.053,341.542C459.599,400.299,474.119,345.087,458.053,341.542L458.053,341.542z"/>
<path fill-rule="evenodd" clip-rule="evenodd" fill="#878787" stroke="#000000" stroke-width="2" stroke-linecap="square" stroke-miterlimit="10" d="  M389.051,460.041C385.777,459.405,385.05,459.264,389.051,460.041L389.051,460.041z"/>
<path fill-rule="evenodd" clip-rule="evenodd" fill="#D1D1D2" stroke="#000000" stroke-width="2" stroke-linecap="square" stroke-miterlimit="10" d="  M393.551,465.291c5.32,8.861,16.025,6.506,25.502,6.75c5.963-3.742,3.241-4.232,9.75-1.5c4.909-6.738,3.424-3.521,9.75-3  c5.365-3.648,1.256-4.799,8.25-1.5c6.384-4.234,9.302-4.399,15.75-4.5c6.496-3.939,2.785-2.642,8.25-1.5  c6.302-2.183,7.65-3.433,15.75-3.75c23.627-34.684,0.521-47.525-36-43.873C431.545,414.318,358.185,421.774,393.551,465.291z"/>
<path fill-rule="evenodd" clip-rule="evenodd" fill="#878787" stroke="#000000" stroke-width="2" stroke-linecap="square" stroke-miterlimit="10" d="  M410.051,423.291c-47.936,51.392,32.305,35.751,58.524,30.109c13.385-2.881,27.235-10.633,21.728-27.109  C482.216,402.096,429.791,421.053,410.051,423.291z"/>
<path fill-rule="evenodd" clip-rule="evenodd" fill="#983620" stroke="#000000" stroke-width="2" stroke-linecap="square" stroke-miterlimit="10" d="  M383.801,430.041c0.25-3.499,0.5-6.999,0.75-10.498C415.213,426.052,409.393,447.955,383.801,430.041z"/>
<path fill="none" stroke="#000000" stroke-width="2" stroke-linecap="square" stroke-miterlimit="10" d="M407.801,435.291  c2.25,1.25,4.501,2.5,6.752,3.75c1-1,2-2,3-3C414.099,433.83,407.702,435.271,407.801,435.291z"/>
<path fill-rule="evenodd" clip-rule="evenodd" fill="#F57E20" stroke="#000000" stroke-width="2" stroke-linecap="square" stroke-miterlimit="10" d="  M383.051,448.041c-2.575,6.243-2.556,14.314-3.75,21c12.793-5.658,109.693-25.011,96.752-38.25  C463.783,418.239,397.607,444.317,383.051,448.041z"/>
<path fill-rule="evenodd" clip-rule="evenodd" fill="#878787" stroke="#000000" stroke-width="2" stroke-linecap="square" stroke-miterlimit="10" d="  M475.303,436.041C469.458,437.255,473.374,436.441,475.303,436.041L475.303,436.041z"/>
<path fill-rule="evenodd" clip-rule="evenodd" fill="#F57E20" stroke="#000000" stroke-width="2" stroke-linecap="square" stroke-miterlimit="10" d="  M432.553,512.541c15.101-4.462,28.224-8.42,43.5-9.375c5.854-0.366,11.693-9.273,21.683-12.019  c14.513-3.988,98.171-16.194,102.067-29.606c8.241-28.365-98.583,6.93-113.25,9.75c-2.222-11.474,1.167-23.802,2.25-34.5  c32.544,17.593,93.447-11.193,122.473-16.47c5.548-1.009-4.643-31.861-13.348-32.653c-9.67-0.879-3.736-41.063-0.375-50.625  c-29.077-4.089-51.733-6.307-80.777-2.861c-19.57,2.322-9.59,27.62-9.223,46.361c-18.423,0-36.846,0-55.269,0  c-14.06,0-21.183,12.323-34.009,26.111C406.356,419.466,429.555,493.735,432.553,512.541z"/>
<path fill-rule="evenodd" clip-rule="evenodd" fill="#C8EAFB" stroke="#000000" stroke-width="2" stroke-linecap="square" stroke-miterlimit="10" d="  M517.303,345.292c33.701-11.062,45.191,35.521,24.75,48c3.568-2.179-27.186-11.13-27.75-12  C509.457,373.819,514.3,352.343,517.303,345.292z"/>
<path fill-rule="evenodd" clip-rule="evenodd" fill="#A74F25" stroke="#000000" stroke-width="2" stroke-linecap="square" stroke-miterlimit="10" d="  M353.801,406.792c26.414,33.401-4.935,44.123-15.75,73.498c24.648,8.216,49.295,16.432,73.943,24.647  c15.572,5.19,35.772-23.814,41.559-40.397C476.862,397.735,393.736,409.455,353.801,406.792z"/>
<path fill-rule="evenodd" clip-rule="evenodd" fill="#983620" stroke="#000000" stroke-width="2" stroke-linecap="square" stroke-miterlimit="10" d="  M424.303,510.291c25.647-0.896,59.624-99.694,19.5-97.498C467.447,461.469,438.441,466.382,424.303,510.291z"/>
<line fill="none" stroke="#000000" stroke-width="2" stroke-linecap="square" stroke-miterlimit="10" x1="428.803" y1="498.291" x2="434.803" y2="502.041"/>
<line fill="none" stroke="#000000" stroke-width="2" stroke-linecap="square" stroke-miterlimit="10" x1="453.553" y1="464.541" x2="458.803" y2="465.291"/>
<line fill="none" stroke="#000000" stroke-width="2" stroke-linecap="square" stroke-miterlimit="10" x1="456.553" y1="438.291" x2="460.303" y2="439.041"/>
<path fill="none" stroke="#000000" stroke-width="2" stroke-linecap="square" stroke-miterlimit="10" d="M452.803,412.042  c44.801,18.334,3.573,76.75-12,98.998"/>
<path fill="none" stroke="#000000" stroke-width="2" stroke-linecap="square" stroke-miterlimit="10" d="M470.053,431.541  c12.996,5.801-0.325,54.227-2.25,70.5c25.477,7.457,18.145-53.455,19.5-70.5c-7.214-0.836-15.193-4.782-21.75-4.5"/>
<path fill="none" stroke="#000000" stroke-width="2" stroke-linecap="square" stroke-miterlimit="10" d="M450.553,381.292  c22.018,17.631,63.181,6.79,89.25,6c-10.5-2.25-21-4.5-31.5-6.75"/>
<path fill-rule="evenodd" clip-rule="evenodd" fill="#F57E20" d="M539.053,433.791v-47.998V433.791z"/>
<line fill="none" stroke="#000000" stroke-width="2" stroke-linecap="square" stroke-miterlimit="10" x1="539.053" y1="433.791" x2="539.053" y2="385.792"/>
<path fill="none" stroke="#000000" stroke-width="2" stroke-linecap="square" stroke-miterlimit="10" d="M597.553,421.792  c-14.75,0.25-29.5,0.5-44.25,0.75c0-28.058,7.296-67.565-3.75-92.25"/>
<line fill="none" stroke="#000000" stroke-width="2" stroke-linecap="square" stroke-miterlimit="10" x1="593.803" y1="388.792" x2="599.053" y2="421.042"/>
<line fill="none" stroke="#000000" stroke-width="2" stroke-linecap="square" stroke-miterlimit="10" x1="554.803" y1="402.292" x2="594.553" y2="400.792"/>
<path fill-rule="evenodd" clip-rule="evenodd" fill="#C8EAFB" stroke="#000000" stroke-width="2" stroke-linecap="square" stroke-miterlimit="10" d="  M559.303,340.042c0,15.495-8.353,40.749,12.75,38.25C572.053,361.494,579.56,342.137,559.303,340.042z"/>
<path fill-rule="evenodd" clip-rule="evenodd" fill="#C8EAFB" stroke="#000000" stroke-width="2" stroke-linecap="square" stroke-miterlimit="10" d="  M576.553,343.792C578.119,414.29,595.734,346.32,576.553,343.792L576.553,343.792z"/>
<path fill-rule="evenodd" clip-rule="evenodd" fill="#878787" stroke="#000000" stroke-width="2" stroke-linecap="square" stroke-miterlimit="10" d="  M494.803,484.791c-1.835-0.207-2.76,4.401-5.25,0C492.145,478.66,492.523,484.533,494.803,484.791z"/>
<path fill-rule="evenodd" clip-rule="evenodd" fill="#D1D1D2" stroke="#000000" stroke-width="2" stroke-linecap="square" stroke-miterlimit="10" d="  M500.053,491.541c3.174,11.269,20.068,6.722,30,8.25c7.226-4.767,3.914-4.745,12-2.25c5.726-6.538,4.092-3.712,10.5-3.75  c5.918-5.601,2.831-4.68,10.5-2.25c4.965-4.546,1.929-4.843,9-2.25c5.752-4.161,4.972-4.15,9.75-2.25  c5.695-5.786,4.107-4.306,9.75-2.25c6.896-4.892,9.395-4.39,18.75-3.75c6.088-8.747,17.96-29.325,12.75-41.25  c-8.516-19.491-35.131-12.934-51-12c-21.308,1.253-50.831-0.767-67.5,13.125C488.329,454.435,485.498,475.223,500.053,491.541z"/>
<path fill-rule="evenodd" clip-rule="evenodd" fill="#878787" stroke="#000000" stroke-width="2" stroke-linecap="square" stroke-miterlimit="10" d="  M519.553,441.291c-8.945,8.774-22.892,31.754-13.5,44.25c14.457,19.236,73.759-6.412,90.255-10.059  c15.37-3.398,24.892-18.885,16.995-34.191C601.629,418.661,541.658,438.792,519.553,441.291z"/>
<path fill-rule="evenodd" clip-rule="evenodd" fill="#983620" stroke="#000000" stroke-width="2" stroke-linecap="square" stroke-miterlimit="10" d="  M488.053,448.791c0.25-4,0.5-8,0.75-12C520.207,450.645,522.144,466.781,488.053,448.791z"/>
<path fill="none" stroke="#000000" stroke-width="2" stroke-linecap="square" stroke-miterlimit="10" d="M516.553,455.541  c2.75,1.5,5.5,3,8.25,4.5c1-1,2-2,3-3C523.459,453.758,515.886,455.394,516.553,455.541z"/>
<path fill-rule="evenodd" clip-rule="evenodd" fill="#F57E20" stroke="#000000" stroke-width="2" stroke-linecap="square" stroke-miterlimit="10" d="  M486.553,471.291c-2.147,7.892-2.523,16.655-3.75,24.75c16.194-7.935,129.959-28.071,114.75-45.75  C583.727,434.219,502.906,467.202,486.553,471.291z"/>
<path fill-rule="evenodd" clip-rule="evenodd" fill="#878787" stroke="#000000" stroke-width="2" stroke-linecap="square" stroke-miterlimit="10" d="  M596.803,457.041C595.266,456.656,589.409,455.189,596.803,457.041L596.803,457.041z"/>
</svg>