<svg xmlns="http://www.w3.org/2000/svg" xmlns:xlink="http://www.w3.org/1999/xlink" version="1.1" id="Layer_1" x="0px" y="0px" enable-background="new 0 0 822.05 841.89" xml:space="preserve" viewBox="245.19 261.01 327.26 320.39">
<path fill-rule="evenodd" clip-rule="evenodd" fill="#ED2224" stroke="#000000" stroke-width="2" stroke-linecap="square" stroke-miterlimit="10" d="  M541.25,419.148c-3.281,152.937-246.75,153.286-246.75,0C294.5,266.036,537.972,266.372,541.25,419.148z"/>
<path fill-rule="evenodd" clip-rule="evenodd" fill="#ABD151" stroke="#000000" stroke-width="2" stroke-linecap="square" stroke-miterlimit="10" d="  M259.25,354.648c19.956,0.263,58.693-10.568,56.625,14.25c-1.301,15.617-1.413,34.884-11.25,48  C290.472,435.768,216.71,389.623,259.25,354.648z"/>
<path fill-rule="evenodd" clip-rule="evenodd" fill="#5FADCA" stroke="#000000" stroke-width="2" stroke-linecap="square" stroke-miterlimit="10" d="  M362.75,410.898c-15.005,18.954-42.761,41.124-22.5,66c16.533,20.299,53.013,13.337,68.626-4.5  C436.608,440.715,396.169,404.533,362.75,410.898z"/>
<path fill-rule="evenodd" clip-rule="evenodd" fill="#F6EB14" stroke="#000000" stroke-width="2" stroke-linecap="square" stroke-miterlimit="10" d="  M488.75,362.148c-23.588,21.242-9.773,89.771,27.076,70.688c19.533-10.115,46.424-16.633,46.424-42.563  C562.25,353.55,511.994,363.054,488.75,362.148z"/>
<path fill-rule="evenodd" clip-rule="evenodd" fill="#ABD151" stroke="#000000" stroke-width="2" stroke-linecap="square" stroke-miterlimit="10" d="  M454.25,305.148c16.894-14.944,40.439-48.618,66-29.25c23.585,17.871,2.336,43.235-6.75,65.25  C496.587,327.575,476.729,307.625,454.25,305.148z"/>
<path fill-rule="evenodd" clip-rule="evenodd" fill="#ABD151" stroke="#000000" stroke-width="2" stroke-linecap="square" stroke-miterlimit="10" d="  M543.5,425.148c43.827,26.527,34.429,51.833-16.5,54C536.357,462.261,542.442,444.49,543.5,425.148z"/>
<path fill-rule="evenodd" clip-rule="evenodd" fill="#5FADCA" stroke="#000000" stroke-width="2" stroke-linecap="square" stroke-miterlimit="10" d="  M431,538.398c13.127-10.886,28.102-20.779,44.625-25.5c27.163-7.761,22.169,11.898,26.027,35.689  c2.643,16.298-3.475,31.918-24.902,31.811C456.203,580.295,444.456,554.658,431,538.398z"/>
<path fill-rule="evenodd" clip-rule="evenodd" fill="#F6EB14" stroke="#000000" stroke-width="2" stroke-linecap="square" stroke-miterlimit="10" d="  M321.5,494.898c-9.569,21.817-27.964,41.46-6.75,60c23.881,20.871,43.165-8.053,62.25-23.25  C356.429,523.635,336.468,511.254,321.5,494.898z"/>
<path fill-rule="evenodd" clip-rule="evenodd" fill="#F6EB14" stroke="#000000" stroke-width="2" stroke-linecap="square" stroke-miterlimit="10" d="  M374,268.398c-42.103-9.457-34.703,30.318-30.75,57C372.574,315.424,368.978,296.248,374,268.398z"/>
<path fill-rule="evenodd" clip-rule="evenodd" fill="#ABD151" d="M260,356.898c-0.667,14.728-2.475,30-11.25,42  C252.5,384.898,256.25,370.898,260,356.898z"/>
<path fill="none" stroke="#000000" stroke-width="2" stroke-linecap="square" stroke-miterlimit="10" d="M260,356.898  c-0.667,14.728-2.475,30-11.25,42"/>
<path fill="none" stroke="#000000" stroke-width="2" stroke-linecap="square" stroke-miterlimit="10" d="M541.25,364.398  c-17.206,16.157-12.923,39.92,6.75,51.75"/>
<path fill="none" stroke="#000000" stroke-width="2" stroke-linecap="square" stroke-miterlimit="10" d="M340.25,440.898  c33.613-14.263,59.998,31.844,24.75,45.75"/>
<path fill-rule="evenodd" clip-rule="evenodd" fill="#5FADCA" stroke="#000000" stroke-width="2" stroke-linecap="square" stroke-miterlimit="10" d="  M362,281.148c-1.229,29.07-12.717,59.63,23.25,65.625c15.649,2.608,43.499-4.045,48.75-21.375  C444.959,289.231,383.315,231.836,362,281.148z"/>
<path fill="none" stroke="#000000" stroke-width="2" stroke-linecap="square" stroke-miterlimit="10" d="M362,281.148  c17.369,14.004,41.481,12.979,50.252-9.75"/>
</svg>