<svg xmlns="http://www.w3.org/2000/svg" xmlns:xlink="http://www.w3.org/1999/xlink" version="1.1" id="Layer_1" x="0px" y="0px" enable-background="new 0 0 822.05 841.89" xml:space="preserve" viewBox="212.5 290.07 396.5 258.54">
<path fill-rule="evenodd" clip-rule="evenodd" fill="#878787" stroke="#000000" stroke-width="2" stroke-linecap="square" stroke-miterlimit="10" d="  M608,380.64c-9.841,121.596-394.55,117.779-394.5,0C213.55,263.067,597.244,259.376,608,380.64z"/>
<path fill-rule="evenodd" clip-rule="evenodd" fill="#BCBDBE" stroke="#000000" stroke-width="2" stroke-linecap="square" stroke-miterlimit="10" d="  M230,417.39c15.313,19.206,10.315,35.64,18,56.25c6.974,18.705,24.18,29.91,38.625,42.75c15.153,13.469,35.381,7.692,47.625,16.875  c12.79,9.593,42.336,10.911,57.75,13.125c31.525,4.527,75.228-4.266,104.25-14.25c48.516-16.69,80.593-55.615,85.5-107.25  c-62.14,34.365-126.592,42.06-196.694,39.556C337.294,462.74,265.624,452.715,230,417.39z"/>
<path fill="none" stroke="#000000" stroke-width="2" stroke-linecap="square" stroke-miterlimit="10" d="M241.25,355.89  c0.645-15.876,47.98-34.9,65.25-39c10.665-2.532,27.448-7.336,37.5-8.25c8.301-0.754,26.556,4.527,32.25,2.25  c30.507-12.203,60.022-5.249,87.75-1.5c24.187,3.27,56.054,2.889,79.5,15.75c16.861,9.249,35.627,21.976,43.5,37.5  c13.719,27.051,0.732,37.533-20.25,53.25c-57.879,43.356-168.586,56.805-237.75,33.75c-16.803-5.601-105.91-34.178-93.75-51.75  C225.157,384.442,219.935,360.742,241.25,355.89z"/>
<path fill-rule="evenodd" clip-rule="evenodd" fill="#A7A8AA" stroke="#000000" stroke-width="2" stroke-linecap="square" stroke-miterlimit="10" d="  M377,371.64c-4.643,25.628-10.047,59.927-26.25,81c39.465,6.991,78.937,5.678,118.5,0c-14.237-25.115-23.304-52.58-28.5-81  C421.034,386.942,396.808,386.538,377,371.64z"/>
<path fill="none" stroke="#000000" stroke-width="2" stroke-linecap="square" stroke-miterlimit="10" d="M255.5,433.14  c3.204,25.456,8.019,60.783,27,79.5"/>
<path fill="none" stroke="#000000" stroke-width="2" stroke-linecap="square" stroke-miterlimit="10" d="M314.75,454.89  c1.178,24.831,3.201,60.388,21.75,78.75"/>
<path fill="none" stroke="#000000" stroke-width="2" stroke-linecap="square" stroke-miterlimit="10" d="M355.25,464.64  c1.615,23.965-0.178,52.333,9.75,74.25"/>
<path fill-rule="evenodd" clip-rule="evenodd" fill="#BCBDBE" d="M446,465.39c1.768,23.265,7.135,55.291-6,75.75  C442,515.89,444,490.64,446,465.39z"/>
<path fill="none" stroke="#000000" stroke-width="2" stroke-linecap="square" stroke-miterlimit="10" d="M446,465.39  c1.768,23.265,7.135,55.291-6,75.75"/>
<path fill="none" stroke="#000000" stroke-width="2" stroke-linecap="square" stroke-miterlimit="10" d="M492.5,459.39  c0.142,23.063,2.175,55.724-15,73.5"/>
<path fill="none" stroke="#000000" stroke-width="2" stroke-linecap="square" stroke-miterlimit="10" d="M557.75,439.14  c-3.5,21.085-5.322,45.268-16.5,63.75"/>
<path fill="none" stroke="#000000" stroke-width="2" stroke-linecap="square" stroke-miterlimit="10" d="M383,377.64  c-5.029,25.449-8.617,53.456-21,76.5"/>
<path fill="none" stroke="#000000" stroke-width="2" stroke-linecap="square" stroke-miterlimit="10" d="M389,380.64  c-3.03,23.703-5.411,53.156-16.5,74.25"/>
<path fill="none" stroke="#000000" stroke-width="2" stroke-linecap="square" stroke-miterlimit="10" d="M436.25,376.14  c2.944,24.981,6.365,57.736,21,78.75"/>
<path fill="none" stroke="#000000" stroke-width="2" stroke-linecap="square" stroke-miterlimit="10" d="M428,380.64  c3.123,23.678,3.97,54.079,16.5,74.25"/>
<path fill="none" stroke="#000000" stroke-width="2" stroke-linecap="square" stroke-miterlimit="10" d="M421.25,383.64  c-0.128,22.566,1.657,49.246,9.75,70.5"/>
<path fill="none" stroke="#000000" stroke-width="2" stroke-linecap="square" stroke-miterlimit="10" d="M397.25,383.64  c-3.414,24.64-3.088,50.663-11.25,74.25"/>
<path fill="none" stroke="#000000" stroke-width="2" stroke-linecap="square" stroke-miterlimit="10" d="M406.25,385.89  c-1.703,22.3,1.835,48.756-8.25,69"/>
<line fill="none" stroke="#000000" stroke-width="2" stroke-linecap="square" stroke-miterlimit="10" x1="412.252" y1="385.14" x2="413.002" y2="456.39"/>
<path fill="none" stroke="#000000" stroke-width="2" stroke-linecap="square" stroke-miterlimit="10" d="M242.75,357.39  c5.803,22.156,10.549,45.524,21,66"/>
<line fill="none" stroke="#000000" stroke-width="2" stroke-linecap="square" stroke-miterlimit="10" x1="236.75" y1="400.14" x2="244.25" y2="413.64"/>
<path fill="none" stroke="#000000" stroke-width="2" stroke-linecap="square" stroke-miterlimit="10" d="M262.25,342.39  c6.611,30.01,11.579,64.214,26.25,91.5"/>
<path fill="none" stroke="#000000" stroke-width="2" stroke-linecap="square" stroke-miterlimit="10" d="M332,318.39  c1.008,36.429,1.683,90.6,26.25,120"/>
<path fill="none" stroke="#000000" stroke-width="2" stroke-linecap="square" stroke-miterlimit="10" d="M373.25,314.64  c0.998,18.957,1.82,38.256,3.75,57"/>
<path fill="none" stroke="#000000" stroke-width="2" stroke-linecap="square" stroke-miterlimit="10" d="M455.75,315.39  c0,29.804,2.763,62.344-4.5,91.5"/>
<path fill="none" stroke="#000000" stroke-width="2" stroke-linecap="square" stroke-miterlimit="10" d="M494.75,316.89  c1.188,36.474,1.525,101.228-30,126.75"/>
<path fill="none" stroke="#000000" stroke-width="2" stroke-linecap="square" stroke-miterlimit="10" d="M559.25,342.39  c-4.573,28.965-6.046,73.71-28.5,95.25"/>
<line fill="none" stroke="#000000" stroke-width="2" stroke-linecap="square" stroke-miterlimit="10" x1="583.25" y1="360.39" x2="561.5" y2="417.39"/>
<path fill-rule="evenodd" clip-rule="evenodd" fill="#D1D1D2" stroke="#000000" stroke-width="2" stroke-linecap="square" stroke-miterlimit="10" d="  M441.5,370.14c-8.209,11.624-64.466,21.074-65.25,0C375.475,349.287,433.84,357.073,441.5,370.14z"/>
<path fill-rule="evenodd" clip-rule="evenodd" fill="#A7A8AA" stroke="#000000" stroke-width="2" stroke-linecap="square" stroke-miterlimit="10" d="  M431.75,368.64c-4.908,3.907-43.125,11.805-42.75,0C389.36,357.274,426.736,365.064,431.75,368.64z"/>
</svg>