<svg xmlns="http://www.w3.org/2000/svg" xmlns:xlink="http://www.w3.org/1999/xlink" version="1.1" id="Layer_1" x="0px" y="0px" enable-background="new 0 0 822.05 841.89" xml:space="preserve" viewBox="231.13 254.04 359.33 335.09">
<path fill-rule="evenodd" clip-rule="evenodd" fill="#FBF5AE" stroke="#000000" stroke-width="2" stroke-linecap="square" stroke-miterlimit="10" d="  M455.205,312.14c-0.92-12.576,5.555-69.234,30.75-54.75c19.819,11.394-9.382,49.829-7.5,65.25  C471.425,316.83,463.468,314.53,455.205,312.14z"/>
<path fill-rule="evenodd" clip-rule="evenodd" fill="#FCF8C5" stroke="#000000" stroke-width="2" stroke-linecap="square" stroke-miterlimit="10" d="  M412.451,261.14c-1.822-1.104-3.548-3.156-5.25-4.5c-5.413,23.482,19.363,50.063,21.379,74.25c2.694,32.331-12.572,20.002-37.129,18  c-53.223-4.34-102.316,65.007-81.75,114.75c-4.647-2.776-11.019-2.604-15.75-5.25c-3.134,11.405,0.629,19.361,12,27.75c-2,0-4,0-6,0  c19.18,32.145,60.581,14.197,87.75,10.5c13.853-1.885,77.035-5.699,25.5-21.75c22.469-33.068,46.979,51.473,66.004,11.25  c39.542,6.551-7.996-18.982-10.125-29.625c-4.093-20.465,24.31-53.844,25.875-79.125c1.103-17.81,0.32-41.76-16.5-54.375  c-13.058-9.793-19.086-12.179-29.25-22.875C436.541,286.813,429.213,270.829,412.451,261.14z"/>
<path fill-rule="evenodd" clip-rule="evenodd" fill="#E7B989" stroke="#000000" stroke-width="2" stroke-linecap="square" stroke-miterlimit="10" d="  M479.955,366.14c5.96-2.059,8.031-6.229,15-1.5C489.575,375.098,487.174,368.992,479.955,366.14z"/>
<path fill-rule="evenodd" clip-rule="evenodd" fill="#ED2224" stroke="#000000" stroke-width="2" stroke-linecap="square" stroke-miterlimit="10" d="  M451.455,341.39c3.523,4.626,0.726,9.429,9.75,9.75C460.59,343.222,456.224,345.391,451.455,341.39z"/>
<path fill-rule="evenodd" clip-rule="evenodd" fill="#FBF4A2" stroke="#000000" stroke-width="2" stroke-linecap="square" stroke-miterlimit="10" d="  M416.955,273.14c6.995,12.662,13.988,25.867,18,39.75C436.106,297.378,429.585,282.405,416.955,273.14z"/>
<path fill="none" stroke="#000000" stroke-width="2" stroke-linecap="square" stroke-miterlimit="10" d="M449.955,369.14  c5.977,16.138,33.691,22.607,37.5,3c0.76,3.467,3.743,4.674,5.25,6.75"/>
<path fill="none" stroke="#000000" stroke-width="2" stroke-linecap="square" stroke-miterlimit="10" d="M455.205,312.14  c-5.214,2.131-9.209,6.096-11.25,11.25"/>
<path fill="none" stroke="#000000" stroke-width="2" stroke-linecap="square" stroke-miterlimit="10" d="M427.455,463.64  c-10.886-12.404-20.864-27.918-19.504-45"/>
<path fill="none" stroke="#000000" stroke-width="2" stroke-linecap="square" stroke-miterlimit="10" d="M458.205,460.64  c2.324,11.911,12.557,20.691,21.75,27"/>
<path fill="none" stroke="#000000" stroke-width="2" stroke-linecap="square" stroke-miterlimit="10" d="M414.703,476.39  c-13.169-2.079-27.689,0.363-35.252,12"/>
<path fill="none" stroke="#000000" stroke-width="2" stroke-linecap="square" stroke-miterlimit="10" d="M309.701,463.64  c12.287,28.571,42.415,38.946,69.75,24"/>
<path fill="none" stroke="#000000" stroke-width="2" stroke-linecap="square" stroke-miterlimit="10" d="M468.705,364.64  c-12.969-3.075-27.181-3.661-39,2.25"/>
<path fill="none" stroke="#000000" stroke-width="2" stroke-linecap="square" stroke-miterlimit="10" d="M468.705,370.64  c-8.395,0.08-16.751,2.138-24,6"/>
<path fill="none" stroke="#000000" stroke-width="2" stroke-linecap="square" stroke-miterlimit="10" d="M474.705,376.64  c-5.942,0.786-10.268,4.104-12,9.75"/>
<path fill="none" stroke="#000000" stroke-width="2" stroke-linecap="square" stroke-miterlimit="10" d="M494.205,351.14  c4.805-6.729,11.803-10.643,19.5-10.5"/>
<path fill="none" stroke="#000000" stroke-width="2" stroke-linecap="square" stroke-miterlimit="10" d="M497.205,357.89  c2.976-3.687,7.396-5.111,12-3.75"/>
<path fill="none" stroke="#000000" stroke-width="2" stroke-linecap="square" stroke-miterlimit="10" d="M498.705,367.64  c3.812-2.657,7.448-2.537,10.5,0.75"/>
<path fill-rule="evenodd" clip-rule="evenodd" fill="#FBF5AE" stroke="#000000" stroke-width="2" stroke-linecap="square" stroke-miterlimit="10" d="  M530.955,352.64c-0.951-12.588,5.855-69.143,30.75-54.75c19.506,11.277-9.353,50.062-7.5,65.25  C547.175,357.33,539.219,355.03,530.955,352.64z"/>
<path fill-rule="evenodd" clip-rule="evenodd" fill="#FCF8C5" stroke="#000000" stroke-width="2" stroke-linecap="square" stroke-miterlimit="10" d="  M488.205,301.64c-1.819-1.08-3.558-3.164-5.25-4.5c-5.486,23.527,19.359,50.068,21.375,74.25c2.736,32.832-12.645,19.726-37.125,18  c-54.845-3.866-99.33,64.094-82.504,114.75c-4.418-2.711-10.515-2.639-15-5.25c-3.152,11.334,0.559,19.624,12,27.75  c-2,0.25-4,0.5-6,0.75c19.356,31.987,60.894,13.405,87.754,9.75c12.774-1.738,77.627-7.731,25.5-21  c22.298-35.597,46.103,51.804,66,10.5c39.346,6.519-8.014-19.07-10.125-29.625c-4.161-20.805,24.294-53.757,25.875-79.125  c1.153-18.5-0.181-38.328-15-53.25c-10.407-10.479-21.267-13.806-30.75-24C512.426,327.172,504.936,311.317,488.205,301.64z"/>
<path fill-rule="evenodd" clip-rule="evenodd" fill="#E7B989" stroke="#000000" stroke-width="2" stroke-linecap="square" stroke-miterlimit="10" d="  M555.705,407.39c5.621-2.191,7.277-6.98,15-2.25C566.012,415.225,563.123,410.02,555.705,407.39z"/>
<path fill-rule="evenodd" clip-rule="evenodd" fill="#ED2224" stroke="#000000" stroke-width="2" stroke-linecap="square" stroke-miterlimit="10" d="  M527.205,381.89c3.555,4.762,0.604,9.858,9.75,9.75C536.337,383.681,531.926,385.95,527.205,381.89z"/>
<path fill-rule="evenodd" clip-rule="evenodd" fill="#FBF4A2" stroke="#000000" stroke-width="2" stroke-linecap="square" stroke-miterlimit="10" d="  M492.705,313.64c7.098,12.848,14.422,26.28,18,40.5C511.987,338.372,505.575,323.082,492.705,313.64z"/>
<path fill="none" stroke="#000000" stroke-width="2" stroke-linecap="square" stroke-miterlimit="10" d="M525.705,410.39  c7.01,14.838,32.898,21.803,37.5,3c1,3.238,3.496,4.182,5.25,6"/>
<path fill="none" stroke="#000000" stroke-width="2" stroke-linecap="square" stroke-miterlimit="10" d="M530.955,352.64  c-5.31,2.48-9.349,6.709-11.25,12"/>
<path fill="none" stroke="#000000" stroke-width="2" stroke-linecap="square" stroke-miterlimit="10" d="M503.205,504.14  c-11.181-12.164-21.227-28.064-19.5-45"/>
<path fill="none" stroke="#000000" stroke-width="2" stroke-linecap="square" stroke-miterlimit="10" d="M533.955,501.14  c2.301,11.933,12.433,21.016,21.75,27"/>
<path fill="none" stroke="#000000" stroke-width="2" stroke-linecap="square" stroke-miterlimit="10" d="M490.455,516.89  c-13.091-1.511-27.409,0.76-35.25,12"/>
<path fill="none" stroke="#000000" stroke-width="2" stroke-linecap="square" stroke-miterlimit="10" d="M384.701,504.14  c14.559,27.664,41.63,39.788,70.504,24"/>
<path fill="none" stroke="#000000" stroke-width="2" stroke-linecap="square" stroke-miterlimit="10" d="M544.455,405.14  c-13.402-2.391-27.319-3.64-39.75,2.25"/>
<path fill="none" stroke="#000000" stroke-width="2" stroke-linecap="square" stroke-miterlimit="10" d="M543.705,411.14  c-8.339-0.229-17.08,2.194-23.25,6.75"/>
<path fill="none" stroke="#000000" stroke-width="2" stroke-linecap="square" stroke-miterlimit="10" d="M550.455,417.89  c-6.084-0.026-10.451,3.17-12,9"/>
<path fill="none" stroke="#000000" stroke-width="2" stroke-linecap="square" stroke-miterlimit="10" d="M569.955,391.64  c4.961-6.25,11.744-9.964,19.5-10.5"/>
<path fill="none" stroke="#000000" stroke-width="2" stroke-linecap="square" stroke-miterlimit="10" d="M572.955,398.39  c3.206-3.657,7.459-5.064,12-3.75"/>
<path fill="none" stroke="#000000" stroke-width="2" stroke-linecap="square" stroke-miterlimit="10" d="M574.455,408.14  c3.732-2.3,7.491-2.141,10.5,0.75"/>
<path fill-rule="evenodd" clip-rule="evenodd" fill="#FBF5AE" stroke="#000000" stroke-width="2" stroke-linecap="square" stroke-miterlimit="10" d="  M394.451,336.89c-1.602-12.71,5.992-69.09,30.754-54.75c19.447,11.262-9.568,50.017-7.5,65.25  C410.598,341.765,402.673,339.298,394.451,336.89z"/>
<path fill-rule="evenodd" clip-rule="evenodd" fill="#FCF8C5" stroke="#000000" stroke-width="2" stroke-linecap="square" stroke-miterlimit="10" d="  M351.701,285.89c-2.14-1.235-3.669-3.353-6-4.5c-3.066,25.421,20.051,49.357,22.125,74.25c2.73,32.758-12.635,19.516-37.125,18  c-54.237-3.357-100.526,64-82.5,114.75c-4.419-2.712-10.494-2.67-15-5.25c-3.152,11.334,0.559,19.624,12,27.75c-2,0.25-4,0.5-6,0.75  c19.573,32.116,60.082,13.008,87,9.75c13.469-1.63,77.714-6.315,26.25-21c23.01-35.221,44.199,51.505,66.004,10.5  c39.349,6.519-8.019-19.072-10.129-29.625c-4.123-20.612,23.562-54.205,25.129-79.125c1.181-18.766,1.083-37.809-14.25-53.25  c-10.147-10.219-21.482-14.262-30.754-24C375.761,311.562,367.965,296.009,351.701,285.89z"/>
<path fill-rule="evenodd" clip-rule="evenodd" fill="#E7B989" stroke="#000000" stroke-width="2" stroke-linecap="square" stroke-miterlimit="10" d="  M418.455,391.64c6.087-2.482,7.289-7.201,15-2.25C428.938,400.173,425.788,395.127,418.455,391.64z"/>
<path fill-rule="evenodd" clip-rule="evenodd" fill="#ED2224" stroke="#000000" stroke-width="2" stroke-linecap="square" stroke-miterlimit="10" d="  M389.951,366.14c3.819,4.767,1.796,9.729,10.5,9.75C399.307,367.788,394.815,369.947,389.951,366.14z"/>
<path fill-rule="evenodd" clip-rule="evenodd" fill="#FBF4A2" stroke="#000000" stroke-width="2" stroke-linecap="square" stroke-miterlimit="10" d="  M355.451,297.89c7.753,12.568,15.237,26.157,18.75,40.5C375.258,322.687,368.524,306.898,355.451,297.89z"/>
<path fill="none" stroke="#000000" stroke-width="2" stroke-linecap="square" stroke-miterlimit="10" d="M389.201,394.64  c5.738,15.615,32.65,21.656,37.504,3c0.887,4.003,3.514,4.227,5.25,6"/>
<path fill="none" stroke="#000000" stroke-width="2" stroke-linecap="square" stroke-miterlimit="10" d="M394.451,336.89  c-5.31,2.48-9.348,6.709-11.25,12"/>
<path fill="none" stroke="#000000" stroke-width="2" stroke-linecap="square" stroke-miterlimit="10" d="M366.701,488.39  c-11.951-11.853-21.296-27.762-19.5-45"/>
<path fill="none" stroke="#000000" stroke-width="2" stroke-linecap="square" stroke-miterlimit="10" d="M397.451,485.39  c2.358,11.883,12.164,20.938,21.754,27"/>
<path fill="none" stroke="#000000" stroke-width="2" stroke-linecap="square" stroke-miterlimit="10" d="M353.951,501.14  c-13.339-1.395-28.151,0.449-35.25,12.75"/>
<path fill="none" stroke="#000000" stroke-width="2" stroke-linecap="square" stroke-miterlimit="10" d="M248.201,488.39  c13.667,27.288,42.34,40.968,70.5,24"/>
<path fill="none" stroke="#000000" stroke-width="2" stroke-linecap="square" stroke-miterlimit="10" d="M407.951,390.14  c-13.092-3.492-27.371-4.447-39.75,1.5"/>
<path fill="none" stroke="#000000" stroke-width="2" stroke-linecap="square" stroke-miterlimit="10" d="M407.201,395.39  c-8.399-0.206-17.039,2.208-23.25,6.75"/>
<path fill="none" stroke="#000000" stroke-width="2" stroke-linecap="square" stroke-miterlimit="10" d="M413.953,402.14  c-6.171-0.164-10.475,3.021-12.002,9"/>
<path fill="none" stroke="#000000" stroke-width="2" stroke-linecap="square" stroke-miterlimit="10" d="M433.455,375.89  c4.759-6.286,11.717-10.099,19.5-10.5"/>
<path fill="none" stroke="#000000" stroke-width="2" stroke-linecap="square" stroke-miterlimit="10" d="M436.455,382.64  c3.008-3.482,7.056-4.929,11.25-3.75"/>
<path fill="none" stroke="#000000" stroke-width="2" stroke-linecap="square" stroke-miterlimit="10" d="M437.955,393.14  c3.513-3.07,7.292-3.159,10.5,0"/>
<path fill-rule="evenodd" clip-rule="evenodd" fill="#FBF5AE" stroke="#000000" stroke-width="2" stroke-linecap="square" stroke-miterlimit="10" d="  M465.705,395.39c-1.952-12.446,5.918-69.783,30.75-54.75c18.064,10.936-8.719,50.969-8.25,65.25  C481.553,399.21,473.729,397.34,465.705,395.39z"/>
<path fill-rule="evenodd" clip-rule="evenodd" fill="#FCF8C5" stroke="#000000" stroke-width="2" stroke-linecap="square" stroke-miterlimit="10" d="  M422.205,343.64c-20.604-5.35,12.873,43.45,15.75,53.25c10.139,34.539-0.506,38.955-26.254,36.75  c-57.555-4.93-113.929,52.215-92.25,113.25c-4.419-2.712-10.494-2.67-15-5.25c-2.962,11.136,0.483,19.074,11.25,27.75  c-1.75,0-3.5,0-5.25,0c18.645,31.785,60.4,14.355,87,10.5c14.907-2.16,76.114-4.905,26.254-21.75c14.352-22.053,15.322-3.415,25.5,3  c17.833,11.239,17.219,19.17,40.5,10.5c44.863-16.707-29.601-12.225-7.5-45.375c21.266-31.898,33.955-69.115,15.75-102.375  c-9.562-17.47-18.603-15.837-32.25-28.5C449.148,380.028,443.475,357.062,422.205,343.64z"/>
<path fill-rule="evenodd" clip-rule="evenodd" fill="#E7B989" stroke="#000000" stroke-width="2" stroke-linecap="square" stroke-miterlimit="10" d="  M489.705,449.39c6.026-2.072,7.747-6.29,15-2.25C500.535,458.538,497.272,452.449,489.705,449.39z"/>
<path fill-rule="evenodd" clip-rule="evenodd" fill="#ED2224" stroke="#000000" stroke-width="2" stroke-linecap="square" stroke-miterlimit="10" d="  M461.205,424.64c4.057,4.405,0.442,9.632,9.75,9C470.031,425.914,465.547,428.369,461.205,424.64z"/>
<path fill-rule="evenodd" clip-rule="evenodd" fill="#FBF4A2" stroke="#000000" stroke-width="2" stroke-linecap="square" stroke-miterlimit="10" d="  M426.705,356.39c7.189,12.723,14.904,25.622,18.75,39.75C445.786,380.31,439.937,365.667,426.705,356.39z"/>
<path fill="none" stroke="#000000" stroke-width="2" stroke-linecap="square" stroke-miterlimit="10" d="M460.455,452.39  c5.29,15.739,32.896,22.693,37.5,3c0.521,3.322,3.232,4.483,4.5,6"/>
<path fill="none" stroke="#000000" stroke-width="2" stroke-linecap="square" stroke-miterlimit="10" d="M465.705,395.39  c-5.214,2.131-9.209,6.096-11.25,11.25"/>
<path fill="none" stroke="#000000" stroke-width="2" stroke-linecap="square" stroke-miterlimit="10" d="M437.955,546.89  c-11.628-11.908-20.942-27.955-20.25-45"/>
<path fill="none" stroke="#000000" stroke-width="2" stroke-linecap="square" stroke-miterlimit="10" d="M468.705,543.89  c1.729,11.944,11.939,21.041,21,26.25"/>
<path fill="none" stroke="#000000" stroke-width="2" stroke-linecap="square" stroke-miterlimit="10" d="M425.205,559.64  c-13.391-2.163-28.177,0.078-36.004,12"/>
<path fill="none" stroke="#000000" stroke-width="2" stroke-linecap="square" stroke-miterlimit="10" d="M319.451,546.89  c13.243,29.23,42.129,37.91,70.5,24"/>
<path fill="none" stroke="#000000" stroke-width="2" stroke-linecap="square" stroke-miterlimit="10" d="M479.205,447.89  c-13.201-2.994-27.773-3.942-39.75,2.25"/>
<path fill="none" stroke="#000000" stroke-width="2" stroke-linecap="square" stroke-miterlimit="10" d="M478.455,453.89  c-8.475-0.371-16.814,1.687-24,6"/>
<path fill="none" stroke="#000000" stroke-width="2" stroke-linecap="square" stroke-miterlimit="10" d="M485.205,459.89  c-5.811,0.484-10.055,3.548-12,9"/>
<path fill="none" stroke="#000000" stroke-width="2" stroke-linecap="square" stroke-miterlimit="10" d="M503.955,434.39  c5.04-6.913,12.267-10.852,20.25-10.5"/>
<path fill="none" stroke="#000000" stroke-width="2" stroke-linecap="square" stroke-miterlimit="10" d="M506.955,440.39  c3.507-2.643,7.646-3.955,12-3.75"/>
<path fill="none" stroke="#000000" stroke-width="2" stroke-linecap="square" stroke-miterlimit="10" d="M509.205,450.89  c3.542-2.726,7.345-2.934,10.5,0"/>
</svg>