<svg xmlns="http://www.w3.org/2000/svg" xmlns:xlink="http://www.w3.org/1999/xlink" version="1.1" id="Layer_1" x="0px" y="0px" enable-background="new 0 0 822.05 841.89" xml:space="preserve" viewBox="211.98 271.68 398.77 300.8">
<path fill-rule="evenodd" clip-rule="evenodd" fill="#B88046" stroke="#000000" stroke-width="2" stroke-linecap="square" stroke-miterlimit="10" d="  M284.234,513.142c58.025,89.74,244.173,69.031,295.5-15c-53.916-0.15-107.832-0.301-161.748-0.45  C370.365,497.559,325.3,488.502,284.234,513.142z"/>
<path fill-rule="evenodd" clip-rule="evenodd" fill="#0DB14B" stroke="#000000" stroke-width="2" stroke-linecap="square" stroke-miterlimit="10" d="  M246.734,453.142c-26.902-24.229-9.784,28.847-1.5,35.25c5.25,4.059,14.496,0.944,17.25,3c-0.035-0.025,16.172,10.499,14.25,9.75  c3.207,1.25,5.89,8.563,10.5,10.5c5.702,2.396,12.858-4.62,18-3c9.388,2.957,32.078,10.543,36.75,16.5  c9.752,12.433-9.785,19.696,10.5,21.75c8.161,0.826,25.279-13.65,36.75-14.25c18.401-0.963,25.759,10.829,45.75-3.75  c-2.5,1.25-5,2.5-7.5,3.75c23.236-4.848,28.32,1.771,48.375,7.5c17.354,4.958,19.632-8.042,33.375-11.25  c6.812-1.59,11.97,4.937,19.5,3c7.77-1.998,10.163-9.61,15.75-12c18.16-7.766,28.791-7.464,42.75-24  c19.644,13.434,19.979-29.591,13.5-39.75c-15.674-24.575-93.925,2.754-119.354,8.291c-38.518,8.387-76.997,16.932-115.456,25.585  C326.75,498.833,283.019,468.147,246.734,453.142z"/>
<path fill-rule="evenodd" clip-rule="evenodd" fill="#942923" d="M246.734,440.392c-2.367,49.891,79.118,67.301,114.75,75.75  c62.783,14.887,139.834,17.66,191.25-26.25c17.894-15.282,40.5-37.862,40.5-63.375c0-24.515-89.921-1.1-109.855,1.274  c-35.318,4.205-71.06,4.446-106.576,6.007C343.042,435.281,268.17,430.141,246.734,440.392z"/>
<path fill="none" stroke="#000000" stroke-width="2" stroke-linecap="square" stroke-miterlimit="10" d="M246.734,440.392  c-2.367,49.891,79.118,67.301,114.75,75.75c62.783,14.887,139.834,17.66,191.25-26.25c17.894-15.282,40.5-37.862,40.5-63.375  c0-24.589-82.188-2.021-101.213,0.245c-82.059,9.771-165.756,9.255-248.287,12.88"/>
<path fill-rule="evenodd" clip-rule="evenodd" fill="#EAB649" stroke="#000000" stroke-width="2" stroke-linecap="square" stroke-miterlimit="10" d="  M212.984,426.142c7.558,15.713,90.136,23.773,112.111,30.806c23.703,7.585,47.65,16.948,69.389,29.194  c11.443,6.446,36.431,33.138,48,35.25c22.435,4.097,74.597-65.926,99-82.5c16.409-11.145,69.385-25.768,68.25-50.252  c-60.168,8.973-123.893,24.167-184.845,24.792C352.556,414.174,284.289,414.64,212.984,426.142z"/>
<path fill-rule="evenodd" clip-rule="evenodd" fill="#EAB649" stroke="#000000" stroke-width="2" stroke-linecap="square" stroke-miterlimit="10" d="  M260.984,390.89c-14.25,10.75-28.5,21.501-42.75,32.252c79.309,15.812,177.824,32.561,233.25,97.5  c27.772-29.374,56.295-58.432,87-84.75c19.916-17.071,50.866-26.953,66.75-47.252c-51.02-12.245-96.692-28.995-148.711-22.43  C391.344,374.437,326.164,382.664,260.984,390.89z"/>
<path fill-rule="evenodd" clip-rule="evenodd" fill="#B88046" stroke="#000000" stroke-width="2" stroke-linecap="square" stroke-miterlimit="10" d="  M263.234,389.39c-9.232-125.988,238.745-152.328,298.125-67.5c56.811,81.157-44.734,117.721-109.875,119.252  C407.763,442.169,278.699,444.844,263.234,389.39z"/>
<path fill-rule="evenodd" clip-rule="evenodd" fill="#E7C5A7" stroke="#000000" stroke-width="2" stroke-linecap="square" stroke-miterlimit="10" d="  M371.234,297.89C350.937,306.388,350.59,289.95,371.234,297.89L371.234,297.89z"/>
<path fill-rule="evenodd" clip-rule="evenodd" fill="#E7C5A7" stroke="#000000" stroke-width="2" stroke-linecap="square" stroke-miterlimit="10" d="  M386.984,281.39c-7.495,2.977-11.9,6.426-19.5,0C375.015,276.311,379.519,278.947,386.984,281.39z"/>
<path fill-rule="evenodd" clip-rule="evenodd" fill="#E7C5A7" stroke="#000000" stroke-width="2" stroke-linecap="square" stroke-miterlimit="10" d="  M464.234,289.64C443.59,297.58,443.937,281.143,464.234,289.64L464.234,289.64z"/>
<path fill-rule="evenodd" clip-rule="evenodd" fill="#E7C5A7" stroke="#000000" stroke-width="2" stroke-linecap="square" stroke-miterlimit="10" d="  M425.984,279.14c-7.018,4.13-11.076,7.796-19.5,3C413.158,274.872,417.811,277.544,425.984,279.14z"/>
<path fill-rule="evenodd" clip-rule="evenodd" fill="#E7C5A7" stroke="#000000" stroke-width="2" stroke-linecap="square" stroke-miterlimit="10" d="  M429.734,293.39c-5.724,2.799-9.396,6.784-16.5,2.25C419.392,289.058,422.749,292.781,429.734,293.39z"/>
<path fill-rule="evenodd" clip-rule="evenodd" fill="#E7C5A7" stroke="#000000" stroke-width="2" stroke-linecap="square" stroke-miterlimit="10" d="  M413.234,304.64c-5.745,2.729-9.362,6.805-16.5,2.25C402.759,300.896,406.471,304.131,413.234,304.64z"/>
<path fill-rule="evenodd" clip-rule="evenodd" fill="#E7C5A7" stroke="#000000" stroke-width="2" stroke-linecap="square" stroke-miterlimit="10" d="  M447.734,304.64c-6.256,2.618-9.434,7.049-16.5,2.25C437.514,300.705,440.914,304.118,447.734,304.64z"/>
<path fill-rule="evenodd" clip-rule="evenodd" fill="#E7C5A7" stroke="#000000" stroke-width="2" stroke-linecap="square" stroke-miterlimit="10" d="  M482.234,303.14c-6.325,1.032-10.306,4.216-16.5-2.25C472.591,296.085,475.612,300.337,482.234,303.14z"/>
<path fill-rule="evenodd" clip-rule="evenodd" fill="#E7C5A7" stroke="#000000" stroke-width="2" stroke-linecap="square" stroke-miterlimit="10" d="  M486.734,278.39c-5.753,2.703-9.351,6.813-16.5,2.25C476.214,275.235,480.33,277.994,486.734,278.39z"/>
</svg>