<svg xmlns="http://www.w3.org/2000/svg" xmlns:xlink="http://www.w3.org/1999/xlink" version="1.1" id="Layer_1" x="0px" y="0px" enable-background="new 0 0 822.05 841.89" xml:space="preserve" viewBox="300.18 343.54 219.25 159.64">
<path fill-rule="evenodd" clip-rule="evenodd" fill="#1A6314" stroke="#000000" stroke-width="0.5" stroke-linecap="square" stroke-miterlimit="10" d="  M518.996,382.173c-0.071-7.541-0.819-15.086-2.25-22.5c-0.75,3.75-1.5,7.5-2.25,11.25c-0.577-6.251-1.944-12.483-2.25-18.75  c0.871,7.335-0.171,15.107,0,22.5c-1.5-2.5-3-5-4.5-7.5c0,2.75,0,5.5,0,8.25c-0.75-3-1.5-6-2.25-9c0,3,0,6,0,9c-2.5-4-5-8-7.5-12  c-0.5,3-1,6-1.5,9c-0.25-2.25-0.5-4.5-0.75-6.75c-1.25,3.25-2.5,6.5-3.75,9.75c-0.5-3.25-1-6.5-1.5-9.75c-0.25,2.5-0.5,5-0.75,7.5  c-0.25-4.75-0.5-9.5-0.75-14.25c-2.588,5.424-6.664,10.22-9,15.75c-0.25-2.75-0.5-5.5-0.75-8.25c-1.25,2.25-2.5,4.5-3.75,6.75  c-0.5-2-1-4-1.5-6c-0.75,3-1.5,6-2.25,9c-0.5-3.5-1-7-1.5-10.5c-1.25,3.5-2.5,7-3.75,10.5c-0.25-4.5-0.5-9-0.75-13.5  c-1.25,4.25-2.5,8.5-3.75,12.75c0.494-7.449-0.998-15.035-0.75-22.5c-3.718,8.426-7.85,18.131-12,25.5  c-0.025-5.498-1.57-11.005-1.5-16.5c-1.25,2-2.5,4-3.75,6c-0.25-2.25-0.5-4.5-0.75-6.75c-1,3.75-2,7.5-3,11.25  c-0.334-6.489-1.491-13.006-1.5-19.5c0.483,7.413-0.662,15.066-0.75,22.5c-0.488-4.389-2.38-9.481-3-14.25  c-2.25,3.5-4.5,7-6.75,10.5c-1.25-2.75-2.5-5.5-3.75-8.25c-0.75,3.25-1.5,6.5-2.25,9.75c-0.25-2.5-0.5-5-0.75-7.5  c-0.5,1.25-1,2.5-1.5,3.75c-0.25-2.25-0.5-4.5-0.75-6.75c-1.351,0.822-2.409,4.865-3.752,5.25c0-3,0-6,0-9c-1.5,2.5-3,5-4.5,7.5  c-0.25-1.5-0.5-3-0.75-4.5c-0.879,3.857-2.697,8.454-3.75,12c-0.25-2.75-0.5-5.5-0.75-8.25c-1.416,3.025-1.916,3.025-1.5,0  c-1,1.5-2,3-3,4.5c-0.25-1.25-0.5-2.5-0.75-3.75c-1,2.75-2,5.5-3,8.25c-0.25-3.5-0.5-7-0.75-10.5c-1.447,4.013-1.947,4.013-1.5,0  c-1,2.25-2,4.5-3,6.75c0-3,0-6,0-9c-1.5,4-3,8-4.5,12c0.745-7.175-0.548-14.553,0-21.75c-4.25,8.5-8.5,17-12.75,25.5  c0.531-5.681-1.114-11.551-0.75-17.25c-3.122,5.959-8.886,10.537-12,16.5c0.624-5.91-1.323-12.083-0.75-18  c-3.849,6.999-10.343,12.532-14.25,19.5c0.476-6.175-1.969-12.574-1.5-18.75c-2.75,3.5-5.5,7-8.25,10.5c-0.25-4-0.5-8-0.75-12  c-1.574,5.616-4.506,10.864-6,16.5c0-4.25,0-8.5,0-12.75c-2.443,4.314-6.567,7.68-9,12c0-4.5,0-9,0-13.5  c-2.155,5.966-6.077,11.291-8.25,17.25c0.53-5.449-0.509-11.048,0-16.5c-1.792,4.917-4.969,9.33-6.75,14.25c0-4.25,0-8.5,0-12.75  c-10.778,27.916-4.5,64.796-4.5,95.69c0,5.981-3.516,44.56,2.762,44.56c21.097,0,42.194,0,63.292,0c49.998,0,99.995,0,149.993,0  C519.708,502.923,518.996,394.279,518.996,382.173z"/>
<path fill-rule="evenodd" clip-rule="evenodd" fill="#9B6A1C" stroke="#000000" stroke-linecap="square" stroke-miterlimit="10" d="  M302.994,422.673c-1.815-6.119,0-14.549,0-21c56.164,2.496,105.044-29.992,156.002-52.5c7.21,36.252-39.056,45.468-65.079,59.544  C351.667,431.569,346.471,441.695,302.994,422.673z"/>
<path fill-rule="evenodd" clip-rule="evenodd" fill="#9B6A1C" stroke="#000000" stroke-linecap="square" stroke-miterlimit="10" d="  M302.244,400.923c28.232-14.029,56.465-28.059,84.698-42.088c32.748-16.273,36.553-18.944,72.054-8.912  c-28.06,14.896-56.119,29.791-84.178,44.687C340.325,412.92,338.874,414.952,302.244,400.923z"/>
<path fill-rule="evenodd" clip-rule="evenodd" fill="#792020" d="M425.246,353.673l-45.752,23.25L425.246,353.673z"/>
<line fill="none" stroke="#000000" stroke-linecap="square" stroke-miterlimit="10" x1="425.246" y1="353.673" x2="379.494" y2="376.923"/>
<path fill-rule="evenodd" clip-rule="evenodd" fill="#792020" d="M401.244,358.923l14.25,5.25L401.244,358.923z"/>
<line fill="none" stroke="#000000" stroke-linecap="square" stroke-miterlimit="10" x1="401.244" y1="358.923" x2="415.494" y2="364.173"/>
<path fill-rule="evenodd" clip-rule="evenodd" fill="#1A6314" stroke="#000000" stroke-linecap="square" stroke-miterlimit="10" d="  M352.494,376.923c-34.992-2.813-31.727,33.75,2.625,33.75C387.283,410.673,383.347,374.605,352.494,376.923z M352.494,400.173  C312.409,388.469,393.083,388.528,352.494,400.173L352.494,400.173z"/>
<path fill-rule="evenodd" clip-rule="evenodd" fill="#FFFFFF" stroke="#000000" stroke-linecap="square" stroke-miterlimit="10" d="  M354.744,397.173c24.519,2.879-1.072,22.919,6.75,38.25c-4.25,1-8.5,2-12.75,3C355.451,423.81,351.515,405.3,354.744,397.173z"/>
<path fill-rule="evenodd" clip-rule="evenodd" fill="#FFFFFF" stroke="#000000" stroke-linecap="square" stroke-miterlimit="10" d="  M356.994,395.673c24.29-6.311,6.179,23.055,19.5,33c-3.75,2.5-7.5,5-11.25,7.5C366.187,420.706,357.534,404.466,356.994,395.673z"/>
<path fill-rule="evenodd" clip-rule="evenodd" fill="#5E1F03" stroke="#000000" stroke-linecap="square" stroke-miterlimit="10" d="  M466.496,385.173c16.5,10.25,33,20.5,49.5,30.75c-34.676,22.649-69.353,45.299-104.028,67.948  c-36.439,23.801-43.6,3.961-78.974-21.448C377.495,436.673,421.995,410.923,466.496,385.173z"/>
<path fill-rule="evenodd" clip-rule="evenodd" fill="#724211" d="M467.996,445.923l-1.5-60.75L467.996,445.923z"/>
<line fill="none" stroke="#000000" stroke-linecap="square" stroke-miterlimit="10" x1="467.996" y1="445.923" x2="466.496" y2="385.173"/>
<path fill-rule="evenodd" clip-rule="evenodd" fill="#724211" d="M482.246,459.423c2.958-23.436,31.575-6.746,35.25,12.75  C505.746,467.923,493.996,463.673,482.246,459.423z"/>
<path fill="none" stroke="#000000" stroke-linecap="square" stroke-miterlimit="10" d="M482.246,459.423  c2.958-23.436,31.575-6.746,35.25,12.75"/>
<path fill-rule="evenodd" clip-rule="evenodd" fill="#792020" d="M338.244,415.923l1.5,24L338.244,415.923z"/>
<line fill="none" stroke="#000000" stroke-linecap="square" stroke-miterlimit="10" x1="338.244" y1="415.923" x2="339.744" y2="439.923"/>
<path fill-rule="evenodd" clip-rule="evenodd" fill="#421706" d="M517.496,426.423c-22.479-47.406-94.968,50.666-117.002,70.5  c39.251,1,78.501,2,117.752,3C517.996,475.423,517.746,450.923,517.496,426.423z"/>
<path fill="none" stroke="#000000" stroke-linecap="square" stroke-miterlimit="10" d="M517.496,426.423  c-22.479-47.406-94.968,50.666-117.002,70.5c39.251,1,78.501,2,117.752,3"/>
<path fill-rule="evenodd" clip-rule="evenodd" fill="#5E1F03" stroke="#000000" stroke-linecap="square" stroke-miterlimit="10" d="  M479.246,466.173c-8.453-22.95-21.527,4.074-34.5,11.25c-20.876,11.546-49.381,12.149-71.252,24c48.001,0,96.001,0,144.002,0  C513.043,473.232,484.169,486.016,479.246,466.173z"/>
<path fill-rule="evenodd" clip-rule="evenodd" fill="#421706" d="M470.246,451.923c12.133-19.33,30.994-4.435,41.25,9.75  C497.746,458.423,483.996,455.173,470.246,451.923z"/>
<path fill="none" stroke="#000000" stroke-linecap="square" stroke-miterlimit="10" d="M470.246,451.923  c12.133-19.33,30.994-4.435,41.25,9.75"/>
</svg>