<svg xmlns="http://www.w3.org/2000/svg" xmlns:xlink="http://www.w3.org/1999/xlink" version="1.1" id="Layer_1" x="0px" y="0px" enable-background="new 0 0 822.05 841.89" xml:space="preserve" viewBox="314.17 346.41 189.95 148.85">
<path fill-rule="evenodd" clip-rule="evenodd" fill="#212728" d="M361,433.292c1.736-4.612-13.854-12.197-18.75-21.75  c2.79-1.109,4.514,0.338,7.5,0c-4.537-10.188,0.3-9.238,0.75-13.5c3.785-21.402,9.491,6.243,23.25,6  c-3.085-23.612-18.502-39.529-34.5-21c-13.073,15.142-16.45,33.263,2.25,40.5c-26.125-5.04-37.862,28.186-13.5,38.25  C302.748,435.45,337.544,418.68,361,433.292z"/>
<path fill="none" stroke="#000000" stroke-linecap="square" stroke-miterlimit="10" d="M361,433.292  c1.736-4.612-13.854-12.197-18.75-21.75c2.79-1.109,4.514,0.338,7.5,0c-4.537-10.188,0.3-9.238,0.75-13.5  c3.785-21.402,9.491,6.243,23.25,6c-3.085-23.612-18.502-39.529-34.5-21c-13.073,15.142-16.45,33.263,2.25,40.5  c-26.125-5.04-37.862,28.186-13.5,38.25C302.748,435.45,337.544,418.68,361,433.292z"/>
<path fill-rule="evenodd" clip-rule="evenodd" fill="#F7DE58" d="M348.25,443.042c4.129-14.106,14.739-0.652,19.875-7.5  c6.733-8.978-15.722-28.448,7.125-22.5c-3.927-10.854-21.417-31.531-24.75-14.25c-0.042,2.652-5.105,3.991,0,12.75  c-18.021,1.104,4.892,14.719,13.5,22.5c-65.379-30.741-37.721,60.272-6.75,13.5C350.63,449.124,351.94,444.996,348.25,443.042z"/>
<path fill="none" stroke="#000000" stroke-linecap="square" stroke-miterlimit="10" d="M348.25,443.042  c4.129-14.106,14.739-0.652,19.875-7.5c6.733-8.978-15.722-28.448,7.125-22.5c-3.927-10.854-21.417-31.531-24.75-14.25  c-0.042,2.652-5.105,3.991,0,12.75c-18.021,1.104,4.892,14.719,13.5,22.5c-65.379-30.741-37.721,60.272-6.75,13.5  C350.63,449.124,351.94,444.996,348.25,443.042z"/>
<path fill-rule="evenodd" clip-rule="evenodd" fill="#212728" d="M375.25,448.292c4.055-2.413,12.906,13.575,22.5,18  c0.679-3.064-0.048-5.778,0-8.25c9.108,4.959,20.847,4.457,22.5-6.75c0.304-2.057-16.104-5.355-15.75-16.5  c16.681,1.454,36.972,13.009,28.5,28.5c-6.592,12.054-28.597,7.072-35.25,20.25c-3.344-5.27-8.917-9.249-11.25-15.75  c4.589,25.183-26.771,37.903-38.25,15C376.462,506.67,389.526,471.207,375.25,448.292z"/>
<path fill="none" stroke="#000000" stroke-linecap="square" stroke-miterlimit="10" d="M375.25,448.292  c4.055-2.413,12.906,13.575,22.5,18c0.679-3.064-0.048-5.778,0-8.25c9.108,4.959,20.847,4.457,22.5-6.75  c0.304-2.057-16.104-5.355-15.75-16.5c16.681,1.454,36.972,13.009,28.5,28.5c-6.592,12.054-28.597,7.072-35.25,20.25  c-3.344-5.27-8.917-9.249-11.25-15.75c4.589,25.183-26.771,37.903-38.25,15C376.462,506.67,389.526,471.207,375.25,448.292z"/>
<path fill-rule="evenodd" clip-rule="evenodd" fill="#F7DE58" d="M367,461.792c10.096-5.93,0.597-15.579,8.25-21.75  c7.612-6.138,27.727,16.888,20.25-6.75c11.035,3.62,32.471,19.915,15.75,24c-2.636,0.249-6.121,4.433-14.25,1.5  c0.212,3.428,2.208,3.253,1.5,6.75c-10.095-3.358-16.763-15.059-24-19.5c40.33,64.311-64.318,37.624-12,6.75  C359.882,460.403,365.123,458.261,367,461.792z"/>
<path fill="none" stroke="#000000" stroke-linecap="square" stroke-miterlimit="10" d="M367,461.792  c10.096-5.93,0.597-15.579,8.25-21.75c7.612-6.138,27.727,16.888,20.25-6.75c11.035,3.62,32.471,19.915,15.75,24  c-2.636,0.249-6.121,4.433-14.25,1.5c0.212,3.428,2.208,3.253,1.5,6.75c-10.095-3.358-16.763-15.059-24-19.5  c40.33,64.311-64.318,37.624-12,6.75C359.882,460.403,365.123,458.261,367,461.792z"/>
<path fill-rule="evenodd" clip-rule="evenodd" fill="#212728" d="M362.5,408.542c-2.478-0.153-2.757,5.431-6.75,0  C359.597,401.89,359.755,408.372,362.5,408.542z"/>
<path fill="none" stroke="#000000" stroke-linecap="square" stroke-miterlimit="10" d="M362.5,408.542  c-2.478-0.153-2.757,5.431-6.75,0C359.597,401.89,359.755,408.372,362.5,408.542z"/>
<path fill-rule="evenodd" clip-rule="evenodd" fill="#F87F11" d="M337.75,437.042c-3.67-0.247-6.002,2.753-9-0.75  C333,433.756,335.271,436.875,337.75,437.042z"/>
<path fill="none" stroke="#000000" stroke-linecap="square" stroke-miterlimit="10" d="M337.75,437.042  c-3.67-0.247-6.002,2.753-9-0.75C333,433.756,335.271,436.875,337.75,437.042z"/>
<path fill-rule="evenodd" clip-rule="evenodd" fill="#F87F11" d="M337.75,443.792c-2.633,0.058-5.361,3.869-9.75,0  C332.607,439.581,334.464,443.863,337.75,443.792z"/>
<path fill="none" stroke="#000000" stroke-linecap="square" stroke-miterlimit="10" d="M337.75,443.792  c-2.633,0.058-5.361,3.869-9.75,0C332.607,439.581,334.464,443.863,337.75,443.792z"/>
<path fill-rule="evenodd" clip-rule="evenodd" fill="#E6B98A" d="M369.25,433.292C390.904,411.421,349.34,401.104,369.25,433.292  L369.25,433.292z"/>
<path fill="none" stroke="#000000" stroke-linecap="square" stroke-miterlimit="10" d="M369.25,433.292  C390.904,411.421,349.34,401.104,369.25,433.292L369.25,433.292z"/>
<path fill-rule="evenodd" clip-rule="evenodd" fill="#E6B98A" d="M347.5,443.042c7.253,6.061,12.114,5.323,18.75-6.75  C353.884,431.903,352.148,437.005,347.5,443.042z"/>
<path fill="none" stroke="#000000" stroke-linecap="square" stroke-miterlimit="10" d="M347.5,443.042  c7.253,6.061,12.114,5.323,18.75-6.75C353.884,431.903,352.148,437.005,347.5,443.042z"/>
<path fill-rule="evenodd" clip-rule="evenodd" fill="#212728" d="M401.5,446.042C400.953,453.739,400.923,454.151,401.5,446.042  L401.5,446.042z"/>
<path fill="none" stroke="#000000" stroke-linecap="square" stroke-miterlimit="10" d="M401.5,446.042  C400.953,453.739,400.923,454.151,401.5,446.042L401.5,446.042z"/>
<path fill-rule="evenodd" clip-rule="evenodd" fill="#F87F11" d="M373.75,470.792c-0.183,2.016-3.727,4.972,0,9  C376.147,475.985,373.449,474.115,373.75,470.792z"/>
<path fill="none" stroke="#000000" stroke-linecap="square" stroke-miterlimit="10" d="M373.75,470.792  c-0.183,2.016-3.727,4.972,0,9C376.147,475.985,373.449,474.115,373.75,470.792z"/>
<path fill-rule="evenodd" clip-rule="evenodd" fill="#F87F11" d="M365.5,472.292c0.043,3.205-3.398,5.318-0.75,9.75  c0.75,0,1.5,0,2.25,0C368.456,477.918,365.541,475.338,365.5,472.292z"/>
<path fill="none" stroke="#000000" stroke-linecap="square" stroke-miterlimit="10" d="M365.5,472.292  c0.043,3.205-3.398,5.318-0.75,9.75c0.75,0,1.5,0,2.25,0C368.456,477.918,365.541,475.338,365.5,472.292z"/>
<path fill-rule="evenodd" clip-rule="evenodd" fill="#E6B98A" d="M375.25,440.042C396.159,418.086,407.518,458.987,375.25,440.042  L375.25,440.042z"/>
<path fill="none" stroke="#000000" stroke-linecap="square" stroke-miterlimit="10" d="M375.25,440.042  C396.159,418.086,407.518,458.987,375.25,440.042L375.25,440.042z"/>
<path fill-rule="evenodd" clip-rule="evenodd" fill="#E6B98A" d="M366.25,461.042c-6.305-7.006-5.808-11.758,6-18.75  C376.845,454.41,372.078,456.358,366.25,461.042z"/>
<path fill="none" stroke="#000000" stroke-linecap="square" stroke-miterlimit="10" d="M366.25,461.042  c-6.305-7.006-5.808-11.758,6-18.75C376.845,454.41,372.078,456.358,366.25,461.042z"/>
<path fill-rule="evenodd" clip-rule="evenodd" fill="#212728" d="M406,412.292c-15.349,18.12-33.383,7.021-17.25-12  c-6.812,12.689-12.61,21.787-18,29.25c-8.041,11.134-23.779,23.146-24.75,36C370.098,453.542,387.618,428.723,406,412.292z"/>
<path fill="none" stroke="#000000" stroke-linecap="square" stroke-miterlimit="10" d="M406,412.292  c-15.349,18.12-33.383,7.021-17.25-12c-6.812,12.689-12.61,21.787-18,29.25c-8.041,11.134-23.779,23.146-24.75,36  C370.098,453.542,387.618,428.723,406,412.292z"/>
<path fill-rule="evenodd" clip-rule="evenodd" fill="#212728" d="M452.5,401.792c-4.253,1.379-21.968,17.961-20.25,4.5  c-30.951,4.241-4.905-13.558,0-21c-57.263-10.727-10.895,57.023,7.5,30c-10.359,19.896,11.183,35.548,27,20.25  C440.27,448.589,435.227,417.549,452.5,401.792z"/>
<path fill="none" stroke="#000000" stroke-width="0.75" stroke-linecap="square" stroke-miterlimit="10" d="M452.5,401.792  c-4.253,1.379-21.968,17.961-20.25,4.5c-30.951,4.241-4.905-13.558,0-21c-57.263-10.727-10.895,57.023,7.5,30  c-10.359,19.896,11.183,35.548,27,20.25C440.27,448.589,435.227,417.549,452.5,401.792z"/>
<path fill-rule="evenodd" clip-rule="evenodd" fill="#F7DE58" d="M457,414.542c-1.154-3.886-1.571-18.75-5.625-18.75  c-11.908,0-17.196,0.004-10.875-10.5c-9.812,3.388-32.203,8.359-17.25,15.75c3.676,3.125-0.963,5.87,9.75,3.75  c-0.85,2.872-2.336,2.615-2.25,6c7.511-0.978,16.756-5.623,23.25-11.25c-43.058,45.043,41.56,45.561,9,9  C462.597,414.757,459.585,412.097,457,414.542z"/>
<path fill="none" stroke="#000000" stroke-width="0.75" stroke-linecap="square" stroke-miterlimit="10" d="M457,414.542  c-1.154-3.886-1.571-18.75-5.625-18.75c-11.908,0-17.196,0.004-10.875-10.5c-9.812,3.388-32.203,8.359-17.25,15.75  c3.676,3.125-0.963,5.87,9.75,3.75c-0.85,2.872-2.336,2.615-2.25,6c7.511-0.978,16.756-5.623,23.25-11.25  c-43.058,45.043,41.56,45.561,9,9C462.597,414.757,459.585,412.097,457,414.542z"/>
<path fill-rule="evenodd" clip-rule="evenodd" fill="#212728" d="M468.25,395.042c1.318-1.615,28.646-10.319,13.5-15  c6.741-7.214,2.585-6.798,2.25-11.25c0.453-17.218-7.504,2.405-19.5-0.75c2.74-6.055,24.723-30.833,29.25-17.25  c4.019,12.054,1.018,25.375,8.25,35.25c-4.696,0.812-10.327,5.057-15.75,5.25c22.681,1.812,23.196,28.002,2.25,33.75  C513.258,410.491,491.886,387.556,468.25,395.042z"/>
<path fill="none" stroke="#000000" stroke-width="0.75" stroke-linecap="square" stroke-miterlimit="10" d="M468.25,395.042  c1.318-1.615,28.646-10.319,13.5-15c6.741-7.214,2.585-6.798,2.25-11.25c0.453-17.218-7.504,2.405-19.5-0.75  c2.74-6.055,24.723-30.833,29.25-17.25c4.019,12.054,1.018,25.375,8.25,35.25c-4.696,0.812-10.327,5.057-15.75,5.25  c22.681,1.812,23.196,28.002,2.25,33.75C513.258,410.491,491.886,387.556,468.25,395.042z"/>
<path fill-rule="evenodd" clip-rule="evenodd" fill="#F7DE58" d="M476.5,404.792c-2.942-3.306-6.86-10.341-15.75-12  c9.521-8.623,12.702-15.98,0-18c10.497-7.647,42.238-17.542,21,4.5c1.948,0.975,3.695-0.292,6,1.5  c-5.62,5.934-14.769,11.255-22.5,13.5c63.116-10.264,14.313,57.095,3,12C473.721,410.492,472.866,405.901,476.5,404.792z"/>
<path fill="none" stroke="#000000" stroke-width="0.75" stroke-linecap="square" stroke-miterlimit="10" d="M476.5,404.792  c-2.942-3.306-6.86-10.341-15.75-12c9.521-8.623,12.702-15.98,0-18c10.497-7.647,42.238-17.542,21,4.5  c1.948,0.975,3.695-0.292,6,1.5c-5.62,5.934-14.769,11.255-22.5,13.5c63.116-10.264,14.313,57.095,3,12  C473.721,410.492,472.866,405.901,476.5,404.792z"/>
<path fill-rule="evenodd" clip-rule="evenodd" fill="#212728" d="M432.25,395.042c-0.464,1.781,3.539,2.521,0.75,6  c-0.921-1.053-1.671-1.053-2.25,0c-0.579-0.737-1.329-1.237-2.25-1.5C428.438,395.825,431.877,396.477,432.25,395.042z"/>
<path fill="none" stroke="#000000" stroke-width="0.75" stroke-linecap="square" stroke-miterlimit="10" d="M432.25,395.042  c-0.464,1.781,3.539,2.521,0.75,6c-0.921-1.053-1.671-1.053-2.25,0c-0.579-0.737-1.329-1.237-2.25-1.5  C428.438,395.825,431.877,396.477,432.25,395.042z"/>
<path fill-rule="evenodd" clip-rule="evenodd" fill="#F87F11" d="M449.5,421.292c-0.584,2.741,1.958,4.424-1.5,7.5  C445.895,425.167,448.826,424.454,449.5,421.292z"/>
<path fill="none" stroke="#000000" stroke-width="0.75" stroke-linecap="square" stroke-miterlimit="10" d="M449.5,421.292  c-0.584,2.741,1.958,4.424-1.5,7.5C445.895,425.167,448.826,424.454,449.5,421.292z"/>
<path fill-rule="evenodd" clip-rule="evenodd" fill="#F87F11" d="M456.25,424.292c-0.541,1.086,0.371,4.881-3,7.5  C450.687,425.539,455.271,426.257,456.25,424.292z"/>
<path fill="none" stroke="#000000" stroke-width="0.75" stroke-linecap="square" stroke-miterlimit="10" d="M456.25,424.292  c-0.541,1.086,0.371,4.881-3,7.5C450.687,425.539,455.271,426.257,456.25,424.292z"/>
<path fill-rule="evenodd" clip-rule="evenodd" fill="#E6B98A" d="M454,395.792C443.261,374.938,422.724,400.694,454,395.792  L454,395.792z"/>
<path fill="none" stroke="#000000" stroke-width="0.75" stroke-linecap="square" stroke-miterlimit="10" d="M454,395.792  C443.261,374.938,422.724,400.694,454,395.792L454,395.792z"/>
<path fill-rule="evenodd" clip-rule="evenodd" fill="#E6B98A" d="M456.25,415.292c3.619-5.692,9.764-6.078-0.75-16.5  C449.019,408.402,452.838,410.67,456.25,415.292z"/>
<path fill="none" stroke="#000000" stroke-width="0.75" stroke-linecap="square" stroke-miterlimit="10" d="M456.25,415.292  c3.619-5.692,9.764-6.078-0.75-16.5C449.019,408.402,452.838,410.67,456.25,415.292z"/>
<path fill-rule="evenodd" clip-rule="evenodd" fill="#212728" d="M472.75,373.292c1.208,0.369,0.933,3.606,3.75,3.75  c0.985-2.265,0.875-2.09,1.5-4.5C475.209,370.064,474.179,373.727,472.75,373.292z"/>
<path fill="none" stroke="#000000" stroke-width="0.75" stroke-linecap="square" stroke-miterlimit="10" d="M472.75,373.292  c1.208,0.369,0.933,3.606,3.75,3.75c0.985-2.265,0.875-2.09,1.5-4.5C475.209,370.064,474.179,373.727,472.75,373.292z"/>
<path fill-rule="evenodd" clip-rule="evenodd" fill="#F87F11" d="M485.5,401.792c2.597,0.587,3.799,3.559,7.5,1.5  C489.921,399.83,488.216,402.405,485.5,401.792z"/>
<path fill="none" stroke="#000000" stroke-width="0.75" stroke-linecap="square" stroke-miterlimit="10" d="M485.5,401.792  c2.597,0.587,3.799,3.559,7.5,1.5C489.921,399.83,488.216,402.405,485.5,401.792z"/>
<path fill-rule="evenodd" clip-rule="evenodd" fill="#F87F11" d="M485.5,407.792c1.369,0.455,3.02,3.832,7.5,3c0-0.5,0-1,0-1.5  C490.532,406.348,487.867,408.577,485.5,407.792z"/>
<path fill="none" stroke="#000000" stroke-width="0.75" stroke-linecap="square" stroke-miterlimit="10" d="M485.5,407.792  c1.369,0.455,3.02,3.832,7.5,3c0-0.5,0-1,0-1.5C490.532,406.348,487.867,408.577,485.5,407.792z"/>
<path fill-rule="evenodd" clip-rule="evenodd" fill="#E6B98A" d="M461.5,392.792C451.694,371.301,482.739,370.752,461.5,392.792  L461.5,392.792z"/>
<path fill="none" stroke="#000000" stroke-width="0.75" stroke-linecap="square" stroke-miterlimit="10" d="M461.5,392.792  C451.694,371.301,482.739,370.752,461.5,392.792L461.5,392.792z"/>
<path fill-rule="evenodd" clip-rule="evenodd" fill="#E6B98A" d="M476.5,404.792c-6.149,0.626-9.434,4.932-13.5-9  C474.586,395.252,474.557,399.525,476.5,404.792z"/>
<path fill="none" stroke="#000000" stroke-width="0.75" stroke-linecap="square" stroke-miterlimit="10" d="M476.5,404.792  c-6.149,0.626-9.434,4.932-13.5-9C474.586,395.252,474.557,399.525,476.5,404.792z"/>
<path fill-rule="evenodd" clip-rule="evenodd" fill="#212728" d="M448,360.542c8.892,16.812-1.003,28.824-14.25,10.5  c7.954,9.317,14.571,15.526,19.5,21.75c7.65,9.66,12.388,22.155,21,30c0.323-0.677,0.823-0.927,1.5-0.75  C469.818,398.421,457.327,380.749,448,360.542z"/>
<path fill="none" stroke="#000000" stroke-width="0.75" stroke-linecap="square" stroke-miterlimit="10" d="M448,360.542  c8.892,16.812-1.003,28.824-14.25,10.5c7.954,9.317,14.571,15.526,19.5,21.75c7.65,9.66,12.388,22.155,21,30  c0.323-0.677,0.823-0.927,1.5-0.75C469.818,398.421,457.327,380.749,448,360.542z"/>
</svg>