<svg xmlns="http://www.w3.org/2000/svg" xmlns:xlink="http://www.w3.org/1999/xlink" version="1.1" id="Layer_1" x="0px" y="0px" enable-background="new 0 0 822.05 841.89" xml:space="preserve" viewBox="330.07 344.76 157.19 157.69">
<path fill-rule="evenodd" clip-rule="evenodd" fill="#212728" d="M390.125,423.136c3.465-7.797-40.276-27.311-14.25-28.502  c-6.675-12.271-2.383-9.604,0.75-16.5c-2.285-25.304,16.605,6.795,29.25,7.5c-3.579-21.489-33.19-63.085-44.25-24.375  c-7.337,25.68-27.232,36.899,3,49.125c-32.181-6.008-48.327,35.846-17.25,48.752C314.773,423.665,360.687,407.225,390.125,423.136z"/>
<path fill="none" stroke="#000000" stroke-width="1.25" stroke-linecap="square" stroke-miterlimit="10" d="M390.125,423.136  c3.465-7.797-40.276-27.311-14.25-28.502c-6.675-12.271-2.383-9.604,0.75-16.5c-2.285-25.304,16.605,6.795,29.25,7.5  c-3.579-21.489-33.19-63.085-44.25-24.375c-7.337,25.68-27.232,36.899,3,49.125c-32.181-6.008-48.327,35.846-17.25,48.752  C314.773,423.665,360.687,407.225,390.125,423.136z"/>
<path fill-rule="evenodd" clip-rule="evenodd" fill="#F7DE58" d="M372.875,434.386c3.746-18.79,20.21-0.399,27-11.25  c5.469-8.74-20.145-36.694,7.5-26.252c0.344-15.628-11.991-15.209-19.5-19.5c-2.445-1.397-13.574-24.979-11.25,0.75  c-3.133,6.896-7.425,4.229-0.75,16.5c-23.373,1.069,9.528,19.435,17.25,28.502c-19.124-7.711-49.032-19.788-54.75,9.75  c-7.355,37.992,32.003,26.987,46.5,7.5C376.583,442.314,377.333,436.276,372.875,434.386z"/>
<path fill="none" stroke="#000000" stroke-width="1.25" stroke-linecap="square" stroke-miterlimit="10" d="M372.875,434.386  c3.746-18.79,20.21-0.399,27-11.25c5.469-8.74-20.145-36.694,7.5-26.252c0.344-15.628-11.991-15.209-19.5-19.5  c-2.445-1.397-13.574-24.979-11.25,0.75c-3.133,6.896-7.425,4.229-0.75,16.5c-23.373,1.069,9.528,19.435,17.25,28.502  c-19.124-7.711-49.032-19.788-54.75,9.75c-7.355,37.992,32.003,26.987,46.5,7.5C376.583,442.314,377.333,436.276,372.875,434.386z"/>
<path fill-rule="evenodd" clip-rule="evenodd" fill="#212728" d="M407.375,441.886c6.593-8.126,30.028,39.471,27.75,13.5  c9.643,5.069,12.583,4.827,18-2.25c25.904,0.957-8.63-15.11-8.25-28.5c14.021,1.855,59.686,22.539,34.125,37.875  c-14.508,8.705-35.137,8.271-43.125,24.375c-4.624-6.607-10.921-12.683-14.25-20.25c5.521,31.49-34.748,50.741-48,18.75  C406.226,518.178,426.434,471.302,407.375,441.886z"/>
<path fill="none" stroke="#000000" stroke-width="1.25" stroke-linecap="square" stroke-miterlimit="10" d="M407.375,441.886  c6.593-8.126,30.028,39.471,27.75,13.5c9.643,5.069,12.583,4.827,18-2.25c25.904,0.957-8.63-15.11-8.25-28.5  c14.021,1.855,59.686,22.539,34.125,37.875c-14.508,8.705-35.137,8.271-43.125,24.375c-4.624-6.607-10.921-12.683-14.25-20.25  c5.521,31.49-34.748,50.741-48,18.75C406.226,518.178,426.434,471.302,407.375,441.886z"/>
<path fill-rule="evenodd" clip-rule="evenodd" fill="#F7DE58" d="M396.875,459.136c18.911-3.871-0.849-20.135,10.5-27.75  c6.437-4.319,38.977,18.445,25.5-8.25c23.467-0.715,7.094,21.381,22.125,18.375c12.858-2.571,12.97,12.174-1.875,11.625  c-5.417,7.077-8.357,7.319-18,2.25c2.003,22.83-20.062-10.821-27.75-17.25c5.943,19.059,23.748,48.43-7.5,55.5  c-37.072,8.389-29.374-30.637-9-45.75C388.322,456.527,394.853,455.032,396.875,459.136z"/>
<path fill="none" stroke="#000000" stroke-width="1.25" stroke-linecap="square" stroke-miterlimit="10" d="M396.875,459.136  c18.911-3.871-0.849-20.135,10.5-27.75c6.437-4.319,38.977,18.445,25.5-8.25c23.467-0.715,7.094,21.381,22.125,18.375  c12.858-2.571,12.97,12.174-1.875,11.625c-5.417,7.077-8.357,7.319-18,2.25c2.003,22.83-20.062-10.821-27.75-17.25  c5.943,19.059,23.748,48.43-7.5,55.5c-37.072,8.389-29.374-30.637-9-45.75C388.322,456.527,394.853,455.032,396.875,459.136z"/>
<path fill-rule="evenodd" clip-rule="evenodd" fill="#212728" d="M390.875,390.134C381.236,390.134,381.236,390.134,390.875,390.134  L390.875,390.134z"/>
<path fill="none" stroke="#000000" stroke-width="1.25" stroke-linecap="square" stroke-miterlimit="10" d="M390.875,390.134  C381.236,390.134,381.236,390.134,390.875,390.134L390.875,390.134z"/>
<path fill-rule="evenodd" clip-rule="evenodd" fill="#F87F11" d="M360.875,426.886c-3.157,0-6.427,3.163-11.25,0.75c0-0.5,0-1,0-1.5  C354.448,423.723,357.718,426.886,360.875,426.886z"/>
<path fill="none" stroke="#000000" stroke-width="1.25" stroke-linecap="square" stroke-miterlimit="10" d="M360.875,426.886  c-3.157,0-6.427,3.163-11.25,0.75c0-0.5,0-1,0-1.5C354.448,423.723,357.718,426.886,360.875,426.886z"/>
<path fill-rule="evenodd" clip-rule="evenodd" fill="#F87F11" d="M359.375,436.636C346.243,438.399,346.243,434.874,359.375,436.636  L359.375,436.636z"/>
<path fill="none" stroke="#000000" stroke-width="1.25" stroke-linecap="square" stroke-miterlimit="10" d="M359.375,436.636  C346.243,438.399,346.243,434.874,359.375,436.636L359.375,436.636z"/>
<path fill-rule="evenodd" clip-rule="evenodd" fill="#E6B98A" d="M399.875,423.136C425.17,400.462,378.452,376.942,399.875,423.136  L399.875,423.136z"/>
<path fill="none" stroke="#000000" stroke-width="1.25" stroke-linecap="square" stroke-miterlimit="10" d="M399.875,423.136  C425.17,400.462,378.452,376.942,399.875,423.136L399.875,423.136z"/>
<path fill-rule="evenodd" clip-rule="evenodd" fill="#E6B98A" d="M372.875,434.386c7.585,10.606,18.244,5.119,24-7.5  C385.919,422.069,375.063,423.413,372.875,434.386z"/>
<path fill="none" stroke="#000000" stroke-width="1.25" stroke-linecap="square" stroke-miterlimit="10" d="M372.875,434.386  c7.585,10.606,18.244,5.119,24-7.5C385.919,422.069,375.063,423.413,372.875,434.386z"/>
<path fill-rule="evenodd" clip-rule="evenodd" fill="#212728" d="M440.375,439.636C440.517,449.394,440.506,448.707,440.375,439.636  L440.375,439.636z"/>
<path fill="none" stroke="#000000" stroke-width="1.25" stroke-linecap="square" stroke-miterlimit="10" d="M440.375,439.636  C440.517,449.394,440.506,448.707,440.375,439.636L440.375,439.636z"/>
<path fill-rule="evenodd" clip-rule="evenodd" fill="#F87F11" d="M405.125,471.136c-0.039,2.099-3.327,6.245-0.75,11.25  c0.5,0,1,0,1.5,0C408.35,477.41,405.067,474.276,405.125,471.136z"/>
<path fill="none" stroke="#000000" stroke-width="1.25" stroke-linecap="square" stroke-miterlimit="10" d="M405.125,471.136  c-0.039,2.099-3.327,6.245-0.75,11.25c0.5,0,1,0,1.5,0C408.35,477.41,405.067,474.276,405.125,471.136z"/>
<path fill-rule="evenodd" clip-rule="evenodd" fill="#F87F11" d="M395.375,472.636c-0.576,5.195-6.017,8.336,1.5,12  C399.967,478.703,395.721,476.653,395.375,472.636z"/>
<path fill="none" stroke="#000000" stroke-width="1.25" stroke-linecap="square" stroke-miterlimit="10" d="M395.375,472.636  c-0.576,5.195-6.017,8.336,1.5,12C399.967,478.703,395.721,476.653,395.375,472.636z"/>
<path fill-rule="evenodd" clip-rule="evenodd" fill="#E6B98A" d="M407.375,431.386C430.78,403.882,451.928,454.105,407.375,431.386  L407.375,431.386z"/>
<path fill="none" stroke="#000000" stroke-width="1.25" stroke-linecap="square" stroke-miterlimit="10" d="M407.375,431.386  C430.78,403.882,451.928,454.105,407.375,431.386L407.375,431.386z"/>
<path fill-rule="evenodd" clip-rule="evenodd" fill="#E6B98A" d="M396.875,459.136c-11.001-6.652-5.321-17.614,6.75-24  C408.424,445.938,407.723,456.916,396.875,459.136z"/>
<path fill="none" stroke="#000000" stroke-width="1.25" stroke-linecap="square" stroke-miterlimit="10" d="M396.875,459.136  c-11.001-6.652-5.321-17.614,6.75-24C408.424,445.938,407.723,456.916,396.875,459.136z"/>
<path fill-rule="evenodd" clip-rule="evenodd" fill="#212728" d="M446.375,396.884c-20.08,18.658-40.852,10.249-21.75-15.75  c-10.073,10.045-13.654,28.709-19.5,36.75c-4.52,6.216-44.328,39.307-35.25,46.502C370.861,465.167,441.868,402.884,446.375,396.884  z"/>
<path fill="none" stroke="#000000" stroke-width="1.25" stroke-linecap="square" stroke-miterlimit="10" d="M446.375,396.884  c-20.08,18.658-40.852,10.249-21.75-15.75c-10.073,10.045-13.654,28.709-19.5,36.75c-4.52,6.216-44.328,39.307-35.25,46.502  C370.861,465.167,441.868,402.884,446.375,396.884z"/>
</svg>