<svg xmlns="http://www.w3.org/2000/svg" xmlns:xlink="http://www.w3.org/1999/xlink" version="1.1" id="Layer_1" x="0px" y="0px" enable-background="new 0 0 822.05 841.89" xml:space="preserve" viewBox="245.75 261.96 329.75 319.07">
<path fill-rule="evenodd" clip-rule="evenodd" fill="#ECB326" stroke="#000000" stroke-width="2" stroke-linecap="square" stroke-miterlimit="10" d="  M574.504,421.141c-1.451,211.869-328.188,211.831-327.752,0C247.187,210.205,572.354,210.253,574.504,421.141z"/>
<path fill-rule="evenodd" clip-rule="evenodd" fill="#ECB326" stroke="#000000" stroke-width="2" stroke-linecap="square" stroke-miterlimit="10" d="  M546.004,418.891c-6.57,174.042-270.25,175.269-270.752,0C274.75,243.549,540.229,244.587,546.004,418.891z"/>
<path fill-rule="evenodd" clip-rule="evenodd" fill="#282827" stroke="#000000" stroke-width="2" stroke-linecap="square" stroke-miterlimit="10" d="  M396.752,388.891c-2.7,23.601-38.25,24.792-38.25,0S394.052,365.29,396.752,388.891z"/>
<path fill-rule="evenodd" clip-rule="evenodd" fill="#282827" stroke="#000000" stroke-width="2" stroke-linecap="square" stroke-miterlimit="10" d="  M463.504,389.641c-2.34,24.045-38.25,24.403-38.25,0S461.164,365.596,463.504,389.641z"/>
<path fill-rule="evenodd" clip-rule="evenodd" fill="#282827" stroke="#000000" stroke-width="2" stroke-linecap="square" stroke-miterlimit="10" d="  M464.254,450.391c-2.057,23.958-37.362,24.038-37.5,0C426.614,425.974,461.908,426.288,464.254,450.391z"/>
<path fill-rule="evenodd" clip-rule="evenodd" fill="#282827" stroke="#000000" stroke-width="2" stroke-linecap="square" stroke-miterlimit="10" d="  M399.002,451.141c-2.394,23.485-38.11,24.283-38.25,0C360.61,426.489,396.338,427.525,399.002,451.141z"/>
</svg>