<svg xmlns="http://www.w3.org/2000/svg" xmlns:xlink="http://www.w3.org/1999/xlink" version="1.1" id="Layer_1" x="0px" y="0px" enable-background="new 0 0 822.05 841.89" xml:space="preserve" viewBox="219.74 258.63 379.63 328.65">
<path fill-rule="evenodd" clip-rule="evenodd" fill="#C5783A" stroke="#000000" stroke-width="2" stroke-linecap="square" stroke-miterlimit="10" d="  M468.755,505.39c-75.116,59.171-210.114-105.693-136.502-165.75C406.045,279.437,539.92,442.006,468.755,505.39z"/>
<path fill-rule="evenodd" clip-rule="evenodd" fill="#C5783A" stroke="#000000" stroke-width="2" stroke-linecap="square" stroke-miterlimit="10" d="  M465.005,504.64c-74.167,60.228-209.796-105.422-135.752-165.75C402.907,278.88,538.364,444.061,465.005,504.64z"/>
<path fill-rule="evenodd" clip-rule="evenodd" fill="#C5783A" stroke="#000000" stroke-width="2" stroke-linecap="square" stroke-miterlimit="10" d="  M378.003,573.64c-75.165,59.209-209.72-105.383-135.75-165.75C315.838,347.836,448.141,509.342,378.003,573.64z"/>
<path fill-rule="evenodd" clip-rule="evenodd" fill="#72441B" stroke="#000000" stroke-width="2" stroke-linecap="square" stroke-miterlimit="10" d="  M321.753,517.39c-22.442,11.666-58.512-28.055-37.5-45.75C305.24,453.965,337.335,497.723,321.753,517.39z"/>
<path fill-rule="evenodd" clip-rule="evenodd" fill="#D1D1D2" stroke="#000000" stroke-width="2" stroke-linecap="square" stroke-miterlimit="10" d="  M300.753,389.14C282.702,417.187,284.277,361.339,300.753,389.14L300.753,389.14z"/>
<path fill-rule="evenodd" clip-rule="evenodd" fill="#D1D1D2" stroke="#000000" stroke-width="2" stroke-linecap="square" stroke-miterlimit="10" d="  M314.253,393.64C296.49,420.574,296.49,366.707,314.253,393.64L314.253,393.64z"/>
<path fill-rule="evenodd" clip-rule="evenodd" fill="#D1D1D2" stroke="#000000" stroke-width="2" stroke-linecap="square" stroke-miterlimit="10" d="  M329.253,398.89C312.994,425.513,309.949,371.496,329.253,398.89L329.253,398.89z"/>
<path fill-rule="evenodd" clip-rule="evenodd" fill="#D1D1D2" stroke="#000000" stroke-width="2" stroke-linecap="square" stroke-miterlimit="10" d="  M345.003,405.64C326.794,432.132,326.794,379.148,345.003,405.64L345.003,405.64z"/>
<path fill-rule="evenodd" clip-rule="evenodd" fill="#D1D1D2" stroke="#000000" stroke-width="2" stroke-linecap="square" stroke-miterlimit="10" d="  M357.753,416.89C339.544,443.382,339.544,390.398,357.753,416.89L357.753,416.89z"/>
<path fill-rule="evenodd" clip-rule="evenodd" fill="#D1D1D2" stroke="#000000" stroke-width="2" stroke-linecap="square" stroke-miterlimit="10" d="  M370.503,428.89C352.442,455.167,352.382,402.998,370.503,428.89L370.503,428.89z"/>
<path fill-rule="evenodd" clip-rule="evenodd" fill="#D1D1D2" stroke="#000000" stroke-width="2" stroke-linecap="square" stroke-miterlimit="10" d="  M380.253,441.64C362.129,468.447,363.022,415.211,380.253,441.64L380.253,441.64z"/>
<path fill-rule="evenodd" clip-rule="evenodd" fill="#D1D1D2" stroke="#000000" stroke-width="2" stroke-linecap="square" stroke-miterlimit="10" d="  M390.003,452.14C372.057,479.551,373.79,425.286,390.003,452.14L390.003,452.14z"/>
<path fill-rule="evenodd" clip-rule="evenodd" fill="#D1D1D2" stroke="#000000" stroke-width="2" stroke-linecap="square" stroke-miterlimit="10" d="  M399.003,465.64C379.739,492.696,381.874,439.218,399.003,465.64L399.003,465.64z"/>
<path fill-rule="evenodd" clip-rule="evenodd" fill="#D1D1D2" stroke="#000000" stroke-width="2" stroke-linecap="square" stroke-miterlimit="10" d="  M406.503,479.89C387.098,507.428,390.33,452.845,406.503,479.89L406.503,479.89z"/>
<path fill-rule="evenodd" clip-rule="evenodd" fill="#D1D1D2" stroke="#000000" stroke-width="2" stroke-linecap="square" stroke-miterlimit="10" d="  M411.755,498.64C393.543,525.132,393.543,472.148,411.755,498.64L411.755,498.64z"/>
<path fill-rule="evenodd" clip-rule="evenodd" fill="#D1D1D2" stroke="#000000" stroke-width="2" stroke-linecap="square" stroke-miterlimit="10" d="  M415.505,517.39C397.411,545.025,399.429,489.97,415.505,517.39L415.505,517.39z"/>
<path fill-rule="evenodd" clip-rule="evenodd" fill="#D1D1D2" stroke="#000000" stroke-width="2" stroke-linecap="square" stroke-miterlimit="10" d="  M415.505,534.64C398.904,561.634,398.904,507.646,415.505,534.64L415.505,534.64z"/>
<path fill-rule="evenodd" clip-rule="evenodd" fill="#D1D1D2" stroke="#000000" stroke-width="2" stroke-linecap="square" stroke-miterlimit="10" d="  M410.255,551.14C392.131,577.032,392.191,524.865,410.255,551.14L410.255,551.14z"/>
<path fill-rule="evenodd" clip-rule="evenodd" fill="#D1D1D2" stroke="#000000" stroke-width="2" stroke-linecap="square" stroke-miterlimit="10" d="  M285.753,387.64C267.807,415.051,269.54,360.786,285.753,387.64L285.753,387.64z"/>
<path fill-rule="evenodd" clip-rule="evenodd" fill="#D1D1D2" stroke="#000000" stroke-width="2" stroke-linecap="square" stroke-miterlimit="10" d="  M340.503,385.39C322.65,411.615,322.65,359.165,340.503,385.39L340.503,385.39z"/>
<path fill-rule="evenodd" clip-rule="evenodd" fill="#D1D1D2" stroke="#000000" stroke-width="2" stroke-linecap="square" stroke-miterlimit="10" d="  M356.253,393.64C338.044,420.132,338.044,367.148,356.253,393.64L356.253,393.64z"/>
<path fill-rule="evenodd" clip-rule="evenodd" fill="#D1D1D2" stroke="#000000" stroke-width="2" stroke-linecap="square" stroke-miterlimit="10" d="  M369.003,404.14C350.794,430.632,350.794,377.648,369.003,404.14L369.003,404.14z"/>
<path fill-rule="evenodd" clip-rule="evenodd" fill="#D1D1D2" stroke="#000000" stroke-width="2" stroke-linecap="square" stroke-miterlimit="10" d="  M382.503,415.39C364.294,441.882,364.294,388.898,382.503,415.39L382.503,415.39z"/>
<path fill-rule="evenodd" clip-rule="evenodd" fill="#D1D1D2" stroke="#000000" stroke-width="2" stroke-linecap="square" stroke-miterlimit="10" d="  M393.003,428.89C376.79,455.745,375.057,401.479,393.003,428.89L393.003,428.89z"/>
<path fill-rule="evenodd" clip-rule="evenodd" fill="#D1D1D2" stroke="#000000" stroke-width="2" stroke-linecap="square" stroke-miterlimit="10" d="  M403.503,440.89C385.294,467.382,385.294,414.398,403.503,440.89L403.503,440.89z"/>
<path fill-rule="evenodd" clip-rule="evenodd" fill="#D1D1D2" stroke="#000000" stroke-width="2" stroke-linecap="square" stroke-miterlimit="10" d="  M414.755,455.89C395.51,482.393,397.139,429.925,414.755,455.89L414.755,455.89z"/>
<path fill-rule="evenodd" clip-rule="evenodd" fill="#D1D1D2" stroke="#000000" stroke-width="2" stroke-linecap="square" stroke-miterlimit="10" d="  M421.505,472.39C403.74,499.325,403.74,445.456,421.505,472.39L421.505,472.39z"/>
<path fill-rule="evenodd" clip-rule="evenodd" fill="#D1D1D2" stroke="#000000" stroke-width="2" stroke-linecap="square" stroke-miterlimit="10" d="  M427.505,488.89C410.907,515.883,410.907,461.897,427.505,488.89L427.505,488.89z"/>
<path fill-rule="evenodd" clip-rule="evenodd" fill="#D1D1D2" stroke="#000000" stroke-width="2" stroke-linecap="square" stroke-miterlimit="10" d="  M430.505,506.14C412.444,532.417,412.384,480.248,430.505,506.14L430.505,506.14z"/>
<path fill-rule="evenodd" clip-rule="evenodd" fill="#D1D1D2" stroke="#000000" stroke-width="2" stroke-linecap="square" stroke-miterlimit="10" d="  M432.755,524.89C413.491,551.946,415.626,498.468,432.755,524.89L432.755,524.89z"/>
<path fill-rule="evenodd" clip-rule="evenodd" fill="#D1D1D2" stroke="#000000" stroke-width="2" stroke-linecap="square" stroke-miterlimit="10" d="  M446.255,510.64C428.194,536.917,428.134,484.748,446.255,510.64L446.255,510.64z"/>
<path fill-rule="evenodd" clip-rule="evenodd" fill="#D1D1D2" stroke="#000000" stroke-width="2" stroke-linecap="square" stroke-miterlimit="10" d="  M445.505,492.64C426.101,520.178,429.332,465.595,445.505,492.64L445.505,492.64z"/>
<path fill-rule="evenodd" clip-rule="evenodd" fill="#D1D1D2" stroke="#000000" stroke-width="2" stroke-linecap="square" stroke-miterlimit="10" d="  M441.755,473.89C422.491,500.946,424.626,447.468,441.755,473.89L441.755,473.89z"/>
<path fill-rule="evenodd" clip-rule="evenodd" fill="#D1D1D2" stroke="#000000" stroke-width="2" stroke-linecap="square" stroke-miterlimit="10" d="  M433.505,457.39C416.405,485.031,416.405,429.75,433.505,457.39L433.505,457.39z"/>
<path fill-rule="evenodd" clip-rule="evenodd" fill="#D1D1D2" stroke="#000000" stroke-width="2" stroke-linecap="square" stroke-miterlimit="10" d="  M424.505,440.14C405.982,465.888,405.982,414.392,424.505,440.14L424.505,440.14z"/>
<path fill-rule="evenodd" clip-rule="evenodd" fill="#D1D1D2" stroke="#000000" stroke-width="2" stroke-linecap="square" stroke-miterlimit="10" d="  M414.755,425.89C396.75,452.001,396.75,399.779,414.755,425.89L414.755,425.89z"/>
<path fill-rule="evenodd" clip-rule="evenodd" fill="#D1D1D2" stroke="#000000" stroke-width="2" stroke-linecap="square" stroke-miterlimit="10" d="  M401.253,412.39C383.044,438.882,383.044,385.898,401.253,412.39L401.253,412.39z"/>
<path fill-rule="evenodd" clip-rule="evenodd" fill="#D1D1D2" stroke="#000000" stroke-width="2" stroke-linecap="square" stroke-miterlimit="10" d="  M389.253,398.89C373.04,425.745,371.307,371.479,389.253,398.89L389.253,398.89z"/>
<path fill-rule="evenodd" clip-rule="evenodd" fill="#D1D1D2" stroke="#000000" stroke-width="2" stroke-linecap="square" stroke-miterlimit="10" d="  M374.253,385.39C357.777,413.191,356.202,357.343,374.253,385.39L374.253,385.39z"/>
<path fill-rule="evenodd" clip-rule="evenodd" fill="#D1D1D2" stroke="#000000" stroke-width="2" stroke-linecap="square" stroke-miterlimit="10" d="  M357.003,374.89C339.976,401.687,339.077,347.709,357.003,374.89L357.003,374.89z"/>
<path fill-rule="evenodd" clip-rule="evenodd" fill="#D1D1D2" stroke="#000000" stroke-width="2" stroke-linecap="square" stroke-miterlimit="10" d="  M342.003,365.89C324.001,392,324.001,339.78,342.003,365.89L342.003,365.89z"/>
<path fill-rule="evenodd" clip-rule="evenodd" fill="#D1D1D2" stroke="#000000" stroke-width="2" stroke-linecap="square" stroke-miterlimit="10" d="  M324.753,376.39C305.357,403.104,307.279,349.872,324.753,376.39L324.753,376.39z"/>
<path fill-rule="evenodd" clip-rule="evenodd" fill="#D1D1D2" stroke="#000000" stroke-width="2" stroke-linecap="square" stroke-miterlimit="10" d="  M309.753,374.14C292.438,400.849,291.083,346.143,309.753,374.14L309.753,374.14z"/>
<path fill-rule="evenodd" clip-rule="evenodd" fill="#D1D1D2" stroke="#000000" stroke-width="2" stroke-linecap="square" stroke-miterlimit="10" d="  M328.503,360.64C310.889,386.604,309.26,334.138,328.503,360.64L328.503,360.64z"/>
<path fill-rule="evenodd" clip-rule="evenodd" fill="#D1D1D2" stroke="#000000" stroke-width="2" stroke-linecap="square" stroke-miterlimit="10" d="  M345.753,352.39C327.544,378.882,327.544,325.898,345.753,352.39L345.753,352.39z"/>
<path fill-rule="evenodd" clip-rule="evenodd" fill="#D1D1D2" stroke="#000000" stroke-width="2" stroke-linecap="square" stroke-miterlimit="10" d="  M363.003,357.64C345.053,384.189,345.053,331.091,363.003,357.64L363.003,357.64z"/>
<path fill-rule="evenodd" clip-rule="evenodd" fill="#D1D1D2" stroke="#000000" stroke-width="2" stroke-linecap="square" stroke-miterlimit="10" d="  M378.003,366.64C358.739,393.696,360.874,340.218,378.003,366.64L378.003,366.64z"/>
<path fill-rule="evenodd" clip-rule="evenodd" fill="#D1D1D2" stroke="#000000" stroke-width="2" stroke-linecap="square" stroke-miterlimit="10" d="  M378.753,350.14C359.393,377.331,361.707,323.324,378.753,350.14L378.753,350.14z"/>
<path fill-rule="evenodd" clip-rule="evenodd" fill="#D1D1D2" stroke="#000000" stroke-width="2" stroke-linecap="square" stroke-miterlimit="10" d="  M361.503,342.64C344.374,369.062,342.239,315.584,361.503,342.64L361.503,342.64z"/>
<path fill-rule="evenodd" clip-rule="evenodd" fill="#D1D1D2" stroke="#000000" stroke-width="2" stroke-linecap="square" stroke-miterlimit="10" d="  M393.753,361.39C377.095,388.667,375.608,332.863,393.753,361.39L393.753,361.39z"/>
<path fill-rule="evenodd" clip-rule="evenodd" fill="#D1D1D2" stroke="#000000" stroke-width="2" stroke-linecap="square" stroke-miterlimit="10" d="  M408.003,373.39C390.24,400.324,390.24,346.457,408.003,373.39L408.003,373.39z"/>
<path fill-rule="evenodd" clip-rule="evenodd" fill="#D1D1D2" stroke="#000000" stroke-width="2" stroke-linecap="square" stroke-miterlimit="10" d="  M424.505,386.89C406.558,414.3,408.292,360.037,424.505,386.89L424.505,386.89z"/>
<path fill-rule="evenodd" clip-rule="evenodd" fill="#D1D1D2" stroke="#000000" stroke-width="2" stroke-linecap="square" stroke-miterlimit="10" d="  M435.005,401.89C417.958,428.706,415.646,374.7,435.005,401.89L435.005,401.89z"/>
<path fill-rule="evenodd" clip-rule="evenodd" fill="#D1D1D2" stroke="#000000" stroke-width="2" stroke-linecap="square" stroke-miterlimit="10" d="  M449.255,413.89C431.31,441.301,433.042,387.036,449.255,413.89L449.255,413.89z"/>
<path fill-rule="evenodd" clip-rule="evenodd" fill="#D1D1D2" stroke="#000000" stroke-width="2" stroke-linecap="square" stroke-miterlimit="10" d="  M459.005,429.64C440.335,457.637,441.689,402.931,459.005,429.64L459.005,429.64z"/>
<path fill-rule="evenodd" clip-rule="evenodd" fill="#D1D1D2" stroke="#000000" stroke-width="2" stroke-linecap="square" stroke-miterlimit="10" d="  M468.005,444.64C450.958,471.456,448.646,417.45,468.005,444.64L468.005,444.64z"/>
<path fill-rule="evenodd" clip-rule="evenodd" fill="#D1D1D2" stroke="#000000" stroke-width="2" stroke-linecap="square" stroke-miterlimit="10" d="  M472.505,460.39C454.296,486.882,454.296,433.898,472.505,460.39L472.505,460.39z"/>
<path fill-rule="evenodd" clip-rule="evenodd" fill="#D1D1D2" stroke="#000000" stroke-width="2" stroke-linecap="square" stroke-miterlimit="10" d="  M478.505,477.64C459.262,504.142,460.891,451.676,478.505,477.64L478.505,477.64z"/>
<path fill-rule="evenodd" clip-rule="evenodd" fill="#D1D1D2" stroke="#000000" stroke-width="2" stroke-linecap="square" stroke-miterlimit="10" d="  M476.255,490.39C456.991,517.446,459.126,463.968,476.255,490.39L476.255,490.39z"/>
<path fill-rule="evenodd" clip-rule="evenodd" fill="#D1D1D2" stroke="#000000" stroke-width="2" stroke-linecap="square" stroke-miterlimit="10" d="  M429.005,541.39C413.761,572.866,410.858,511.521,429.005,541.39L429.005,541.39z"/>
<path fill-rule="evenodd" clip-rule="evenodd" fill="#D1D1D2" stroke="#000000" stroke-width="2" stroke-linecap="square" stroke-miterlimit="10" d="  M450.005,528.64C432.876,555.062,430.741,501.584,450.005,528.64L450.005,528.64z"/>
<path fill-rule="evenodd" clip-rule="evenodd" fill="#D1D1D2" stroke="#000000" stroke-width="2" stroke-linecap="square" stroke-miterlimit="10" d="  M461.255,518.89C443.194,545.167,443.134,492.998,461.255,518.89L461.255,518.89z"/>
<path fill-rule="evenodd" clip-rule="evenodd" fill="#D1D1D2" stroke="#000000" stroke-width="2" stroke-linecap="square" stroke-miterlimit="10" d="  M477.005,507.64C458.796,534.132,458.796,481.148,477.005,507.64L477.005,507.64z"/>
<path fill-rule="evenodd" clip-rule="evenodd" fill="#D1D1D2" stroke="#000000" stroke-width="2" stroke-linecap="square" stroke-miterlimit="10" d="  M391.503,379.39C373.593,407.218,374.899,352.144,391.503,379.39L391.503,379.39z"/>
<path fill-rule="evenodd" clip-rule="evenodd" fill="#D1D1D2" stroke="#000000" stroke-width="2" stroke-linecap="square" stroke-miterlimit="10" d="  M405.753,391.39C387.544,417.882,387.544,364.898,405.753,391.39L405.753,391.39z"/>
<path fill-rule="evenodd" clip-rule="evenodd" fill="#D1D1D2" stroke="#000000" stroke-width="2" stroke-linecap="square" stroke-miterlimit="10" d="  M417.755,405.64C399.9,431.867,399.9,379.414,417.755,405.64L417.755,405.64z"/>
<path fill-rule="evenodd" clip-rule="evenodd" fill="#D1D1D2" stroke="#000000" stroke-width="2" stroke-linecap="square" stroke-miterlimit="10" d="  M431.255,419.14C413.253,445.25,413.253,393.03,431.255,419.14L431.255,419.14z"/>
<path fill-rule="evenodd" clip-rule="evenodd" fill="#D1D1D2" stroke="#000000" stroke-width="2" stroke-linecap="square" stroke-miterlimit="10" d="  M441.755,434.14C423.81,461.551,425.542,407.286,441.755,434.14L441.755,434.14z"/>
<path fill-rule="evenodd" clip-rule="evenodd" fill="#D1D1D2" stroke="#000000" stroke-width="2" stroke-linecap="square" stroke-miterlimit="10" d="  M449.255,449.89C431.305,476.44,431.305,423.34,449.255,449.89L449.255,449.89z"/>
<path fill-rule="evenodd" clip-rule="evenodd" fill="#D1D1D2" stroke="#000000" stroke-width="2" stroke-linecap="square" stroke-miterlimit="10" d="  M456.755,465.64C438.634,491.533,438.694,439.364,456.755,465.64L456.755,465.64z"/>
<path fill-rule="evenodd" clip-rule="evenodd" fill="#D1D1D2" stroke="#000000" stroke-width="2" stroke-linecap="square" stroke-miterlimit="10" d="  M461.255,483.64C443.781,510.159,441.858,456.926,461.255,483.64L461.255,483.64z"/>
<path fill-rule="evenodd" clip-rule="evenodd" fill="#D1D1D2" stroke="#000000" stroke-width="2" stroke-linecap="square" stroke-miterlimit="10" d="  M463.505,502.39C445.296,528.882,445.296,475.898,463.505,502.39L463.505,502.39z"/>
<path fill-rule="evenodd" clip-rule="evenodd" fill="#C5783A" stroke="#000000" stroke-width="2" stroke-linecap="square" stroke-miterlimit="10" d="  M436.505,359.14c30.981-20.696,111.212-139.67,153.75-85.5c21.029,26.78-3.066,49.473-24,65.25  c-25.242,19.024-54.29,34.355-81,51.258C460.41,405.87,453.729,379.809,436.505,359.14z"/>
<path fill="none" stroke="#000000" stroke-width="2" stroke-linecap="square" stroke-miterlimit="10" d="M507.755,291.64  c29.403-1.406,52.047,22.161,49.5,51.75"/>
<path fill="none" stroke="#000000" stroke-width="2" stroke-linecap="square" stroke-miterlimit="10" d="M525.005,278.89  c25.991,6.159,50.236,27.111,45,56.25"/>
<path fill="none" stroke="#000000" stroke-width="2" stroke-linecap="square" stroke-miterlimit="10" d="M537.005,270.64  c26.491,6.277,49.331,27.116,45,56.25"/>
</svg>