<svg xmlns="http://www.w3.org/2000/svg" xmlns:xlink="http://www.w3.org/1999/xlink" version="1.1" id="Layer_1" x="0px" y="0px" enable-background="new 0 0 822.05 841.89" xml:space="preserve" viewBox="304.23 333.39 216.03 181.02">
<line fill="none" stroke="#000000" stroke-linecap="square" stroke-miterlimit="10" x1="382" y1="473.39" x2="319" y2="506.39"/>
<path fill="none" stroke="#000000" stroke-linecap="square" stroke-miterlimit="10" d="M501.25,473.39  c-12.408,0-119.25,1.144-119.25-1.118c0-46.128,0-92.255,0-138.382"/>
<path fill-rule="evenodd" clip-rule="evenodd" fill="#F0D95E" stroke="#000000" stroke-width="1.25" stroke-linecap="square" stroke-miterlimit="10" d="  M429.25,464.39c11.073,12.214-16.32,30.75,0,30.75c23.932,0,19.169-29.135,24-42C441.938,448.551,430.667,454.001,429.25,464.39z"/>
<path fill-rule="evenodd" clip-rule="evenodd" fill="#F0D95E" stroke="#000000" stroke-width="1.25" stroke-linecap="square" stroke-miterlimit="10" d="  M379,447.89c7.054,14.987,15.104,33.858,2.25,46.5C419.05,511.295,407.55,441.158,379,447.89z"/>
<path fill-rule="evenodd" clip-rule="evenodd" fill="#F0D95E" stroke="#000000" stroke-width="1.25" stroke-linecap="square" stroke-miterlimit="10" d="  M370.75,413.39c5.926-20.353,57.042-17.759,74.25-15c39.558,6.343,18.167,38.846,41.25,57c-1.332,0.11-3.737,1.235-3.75,3  c-10.299-11.237-9.993-25.126-14.25-38.25c-2.31,18.968,11.563,59.228-2.25,72c-15.381,14.222-14.343-5.418-14.25-5.25  c-3.979-7.195,9.375-15.854-4.5-27c-8.848,7.756-19.346,12.193-30.75,9.75c-1.29,15.311-7.236,35.456-25.5,26.25  C413.647,478.456,367.168,438.941,370.75,413.39z"/>
<path fill-rule="evenodd" clip-rule="evenodd" fill="#E08610" stroke="#000000" stroke-width="1.25" stroke-linecap="square" stroke-miterlimit="10" d="  M486.25,455.39c5.025,1.835,9.511,3.613,12,7.5c-2-0.75-4-1.5-6-2.25c1.768,2.581,6.177,6.891,6,10.5  c-2.857-0.988-4.84-4.668-6.75-6.75c1.087,4.472,1.872,8.91,2.25,13.5c-2.04-4.006-4.186-8.04-6-12c-0.795,2.254-1.396,7.281-3,9  C482.31,466.769,484.67,460.348,486.25,455.39z"/>
<path fill="none" stroke="#000000" stroke-width="1.25" stroke-linecap="square" stroke-miterlimit="10" d="M458.5,472.64  c1.25,0,2.5,0,3.75,0"/>
<path fill="none" stroke="#000000" stroke-width="1.25" stroke-linecap="square" stroke-miterlimit="10" d="M447.25,459.89  c1.925-1.068,3.42-2.573,4.5-4.5"/>
<path fill="none" stroke="#000000" stroke-width="1.25" stroke-linecap="square" stroke-miterlimit="10" d="M416.5,469.64  c-1.75-1-3.5-2-5.25-3"/>
<path fill-rule="evenodd" clip-rule="evenodd" fill="#E08610" stroke="#000000" stroke-width="1.25" stroke-linecap="square" stroke-miterlimit="10" d="  M406,389.39c3.25,1.375-1.531-5.031-11.25-3c0.481-1.399,4.356-4.026,4.5-5.25c-4.852,0.079-4.737,0.922-9.75,3c1-2,2-4,3-6  c-4.203-0.773-8.175,1.932-12,1.5c1.893-0.853,4.659-3.215,5.25-5.25c-5.892,2.666-6.056,2.597-9,7.5  c0.022,0.047-2.786-6.699-3-6.75c0.029,0.001-0.028,6.493,0,6c-3.096-2.854-5.277-5.664-9-7.5c-0.82,3.21,2.184,5.367,2.25,8.25  c-3.932-1.965-9.209-3.162-13.5-4.5c0.046-0.05,2.312,3.547,3,3.75c-4.778,0.843-9.982,0.502-14.25,3  c-0.056-0.167,5.352,3.57,5.25,2.25c-2.342,0.262-8.515,1.149-10.5,2.25c0.659,12.313,0.665,20.349-1.5,30.75  c1.228,1.214,5.082-0.297,6,0c-1.896,10.932,2,16.543,7.5,25.5c1.416-1.223,1.916-2.723,1.5-4.5c2.102,1.214,2.748,5.914,3.75,7.5  c1.341,2.061,3.571-3.205,3-3c-1.021,5.225,1.402,8.861-1.5,15c5.233-3.854,8.924-3.127,13.5-8.25c1.962,2.646,4.812,6.679,6,9.75  c2.784-1.006,0.466-5.916,0.75-7.5c2.336,1.993,3.933,6.536,6,8.25c1.91-4.115-0.408-5.399,0-9c2.969,3.069,5.649,6.46,9,9  c0.156-4.339,0.331-8.192,0-12.75c1.357,3.129,3.25,5.822,4.5,9c0.216-6.024,2.095-11.354,2.25-17.25  c2.783,1.219,3.187,5.058,5.25,6.75c0.374-5.476,1.036-9.59,0.75-15c2.812,2.474,4.474,4.529,6.75,7.5  c-1.244-5.326-1.167-9.854-3-15c2.818,1.778,5.315,3.597,8.25,5.25c-1.964-5.797-1.828-11.02-4.5-16.5  c2.7,1.143,5.119,3.055,7.5,4.5c-2.534-6.4-3.072-10.69-7.5-16.5c1.75-0.25,3.5-0.5,5.25-0.75  C412.528,397.897,403.348,387.442,406,389.39z"/>
<path fill-rule="evenodd" clip-rule="evenodd" fill="#F0D95E" stroke="#000000" stroke-width="1.25" stroke-linecap="square" stroke-miterlimit="10" d="  M400,395.39c-10.698-1.229-67.718-1.03-46.5,12.75c-5.828,17.235,12.491,36.789,29.25,30.75  C399.688,432.787,396.65,406.681,400,395.39z"/>
<path fill="none" stroke="#000000" stroke-width="1.25" stroke-linecap="square" stroke-miterlimit="10" d="M367.75,410.39  C367.75,411.39,367.75,411.39,367.75,410.39L367.75,410.39z"/>
<path fill="none" stroke="#000000" stroke-width="1.25" stroke-linecap="square" stroke-miterlimit="10" d="M368.5,411.14  C367.896,411.744,367.896,411.744,368.5,411.14L368.5,411.14z"/>
<path fill="none" stroke="#000000" stroke-width="1.25" stroke-linecap="square" stroke-miterlimit="10" d="M368.5,411.14  C367.896,411.744,367.896,411.744,368.5,411.14L368.5,411.14z"/>
<path fill="none" stroke="#000000" stroke-width="1.25" stroke-linecap="square" stroke-miterlimit="10" d="M369.25,411.14  C367.459,411.085,366.187,411.046,369.25,411.14L369.25,411.14z"/>
<path fill="none" stroke="#000000" stroke-width="1.25" stroke-linecap="square" stroke-miterlimit="10" d="M369.25,411.14  C366.869,411.14,366.869,411.14,369.25,411.14L369.25,411.14z"/>
<path fill="none" stroke="#000000" stroke-width="1.25" stroke-linecap="square" stroke-miterlimit="10" d="M367.75,411.14  C368.392,411.486,369.394,412.027,367.75,411.14L367.75,411.14z"/>
<path fill="none" stroke="#000000" stroke-width="1.25" stroke-linecap="square" stroke-miterlimit="10" d="M369.25,411.14  C367.278,411.14,367.278,411.14,369.25,411.14L369.25,411.14z"/>
<path fill="none" stroke="#000000" stroke-width="1.25" stroke-linecap="square" stroke-miterlimit="10" d="M369.25,411.14  C367.603,411.14,367.603,411.14,369.25,411.14L369.25,411.14z"/>
<path fill="none" stroke="#000000" stroke-width="1.25" stroke-linecap="square" stroke-miterlimit="10" d="M369.25,411.14  C367.603,411.14,367.603,411.14,369.25,411.14L369.25,411.14z"/>
<path fill="none" stroke="#000000" stroke-width="1.25" stroke-linecap="square" stroke-miterlimit="10" d="M368.5,411.14  C367.963,411.14,367.963,411.14,368.5,411.14L368.5,411.14z"/>
<path fill="none" stroke="#000000" stroke-width="1.25" stroke-linecap="square" stroke-miterlimit="10" d="M368.5,411.14  C367.896,411.744,367.896,411.744,368.5,411.14L368.5,411.14z"/>
<path fill="none" stroke="#000000" stroke-width="1.25" stroke-linecap="square" stroke-miterlimit="10" d="M368.5,411.14  C367.896,411.744,367.896,411.744,368.5,411.14L368.5,411.14z"/>
<path fill="none" stroke="#000000" stroke-width="1.25" stroke-linecap="square" stroke-miterlimit="10" d="M368.5,411.14  C367.896,411.744,367.896,411.744,368.5,411.14L368.5,411.14z"/>
<path fill="none" stroke="#000000" stroke-width="1.25" stroke-linecap="square" stroke-miterlimit="10" d="M368.5,411.14  C368.5,412.14,368.5,412.14,368.5,411.14L368.5,411.14z"/>
<path fill="none" stroke="#000000" stroke-width="1.25" stroke-linecap="square" stroke-miterlimit="10" d="M369.25,411.14  C367.788,411.27,366.321,411.399,369.25,411.14L369.25,411.14z"/>
<path fill="none" stroke="#000000" stroke-width="1.25" stroke-linecap="square" stroke-miterlimit="10" d="M369.25,411.14  C366.869,411.14,366.869,411.14,369.25,411.14L369.25,411.14z"/>
<path fill="none" stroke="#000000" stroke-width="1.25" stroke-linecap="square" stroke-miterlimit="10" d="M367.75,411.14  C368.392,411.486,369.394,412.027,367.75,411.14L367.75,411.14z"/>
<path fill="none" stroke="#000000" stroke-width="1.25" stroke-linecap="square" stroke-miterlimit="10" d="M369.25,411.14  C367.603,411.14,367.603,411.14,369.25,411.14L369.25,411.14z"/>
<path fill="none" stroke="#000000" stroke-width="1.25" stroke-linecap="square" stroke-miterlimit="10" d="M369.25,411.14  C367.603,411.14,367.603,411.14,369.25,411.14L369.25,411.14z"/>
<path fill="none" stroke="#000000" stroke-width="1.25" stroke-linecap="square" stroke-miterlimit="10" d="M368.5,411.14  C367.963,411.14,367.963,411.14,368.5,411.14L368.5,411.14z"/>
<path fill="none" stroke="#000000" stroke-width="1.25" stroke-linecap="square" stroke-miterlimit="10" d="M368.5,411.14  C367.896,411.744,367.896,411.744,368.5,411.14L368.5,411.14z"/>
<path fill="none" stroke="#000000" stroke-width="1.25" stroke-linecap="square" stroke-miterlimit="10" d="M368.5,411.14  C367.896,411.744,367.896,411.744,368.5,411.14L368.5,411.14z"/>
<path fill="none" stroke="#000000" stroke-width="1.25" stroke-linecap="square" stroke-miterlimit="10" d="M368.5,411.14  C367.896,411.744,367.896,411.744,368.5,411.14L368.5,411.14z"/>
<path fill="none" stroke="#000000" stroke-width="1.25" stroke-linecap="square" stroke-miterlimit="10" d="M368.5,411.14  C367.896,411.744,367.896,411.744,368.5,411.14L368.5,411.14z"/>
<path fill="none" stroke="#000000" stroke-width="1.25" stroke-linecap="square" stroke-miterlimit="10" d="M368.5,411.14  L368.5,411.14z"/>
<path fill="none" stroke="#000000" stroke-width="1.25" stroke-linecap="square" stroke-miterlimit="10" d="M369.25,411.14  C367.603,411.14,367.603,411.14,369.25,411.14L369.25,411.14z"/>
<path fill="none" stroke="#000000" stroke-width="1.25" stroke-linecap="square" stroke-miterlimit="10" d="M369.25,411.14  C367.603,411.14,367.603,411.14,369.25,411.14L369.25,411.14z"/>
<path fill="none" stroke="#000000" stroke-width="1.25" stroke-linecap="square" stroke-miterlimit="10" d="M368.5,411.14  C368.5,412.14,368.5,412.14,368.5,411.14L368.5,411.14z"/>
<path fill="none" stroke="#000000" stroke-width="1.25" stroke-linecap="square" stroke-miterlimit="10" d="M369.25,411.14  C367.603,411.14,367.603,411.14,369.25,411.14L369.25,411.14z"/>
<path fill="none" stroke="#000000" stroke-width="1.25" stroke-linecap="square" stroke-miterlimit="10" d="M368.5,411.14  C367.963,411.14,367.963,411.14,368.5,411.14L368.5,411.14z"/>
<path fill="none" stroke="#000000" stroke-width="1.25" stroke-linecap="square" stroke-miterlimit="10" d="M368.5,411.14  C367.896,411.744,367.896,411.744,368.5,411.14L368.5,411.14z"/>
<path fill="none" stroke="#000000" stroke-width="1.25" stroke-linecap="square" stroke-miterlimit="10" d="M368.5,411.14  C367.896,411.744,367.896,411.744,368.5,411.14L368.5,411.14z"/>
<path fill="none" stroke="#000000" stroke-width="1.25" stroke-linecap="square" stroke-miterlimit="10" d="M368.5,411.14  C367.896,411.744,367.896,411.744,368.5,411.14L368.5,411.14z"/>
<path fill="none" stroke="#000000" stroke-width="1.25" stroke-linecap="square" stroke-miterlimit="10" d="M368.5,411.14  C367.896,411.744,367.896,411.744,368.5,411.14L368.5,411.14z"/>
<path fill="none" stroke="#000000" stroke-width="1.25" stroke-linecap="square" stroke-miterlimit="10" d="M368.5,411.14  L368.5,411.14z"/>
<path fill="none" stroke="#000000" stroke-width="1.25" stroke-linecap="square" stroke-miterlimit="10" d="M368.5,411.14  L368.5,411.14z"/>
<path fill="none" stroke="#000000" stroke-width="1.25" stroke-linecap="square" stroke-miterlimit="10" d="M368.5,411.14  C367.896,411.744,367.896,411.744,368.5,411.14L368.5,411.14z"/>
<path fill="none" stroke="#000000" stroke-width="1.25" stroke-linecap="square" stroke-miterlimit="10" d="M368.5,411.14  C367.896,411.744,367.896,411.744,368.5,411.14L368.5,411.14z"/>
<path fill="none" stroke="#000000" stroke-width="1.25" stroke-linecap="square" stroke-miterlimit="10" d="M368.5,411.14  L368.5,411.14z"/>
<path fill="none" stroke="#000000" stroke-width="1.25" stroke-linecap="square" stroke-miterlimit="10" d="M368.5,411.14  C367.896,411.744,367.896,411.744,368.5,411.14L368.5,411.14z"/>
<path fill="none" stroke="#000000" stroke-width="1.25" stroke-linecap="square" stroke-miterlimit="10" d="M368.5,411.14  C367.896,411.744,367.896,411.744,368.5,411.14L368.5,411.14z"/>
<path fill="none" stroke="#000000" stroke-width="1.25" stroke-linecap="square" stroke-miterlimit="10" d="M368.5,411.14  C368.5,412.14,368.5,412.14,368.5,411.14L368.5,411.14z"/>
<path fill="none" stroke="#000000" stroke-width="1.25" stroke-linecap="square" stroke-miterlimit="10" d="M368.5,411.14  L368.5,411.14z"/>
<path fill="none" stroke="#000000" stroke-width="1.25" stroke-linecap="square" stroke-miterlimit="10" d="M368.5,411.14  L368.5,411.14z"/>
<path fill="none" stroke="#000000" stroke-width="1.25" stroke-linecap="square" stroke-miterlimit="10" d="M368.5,411.14  L368.5,411.14z"/>
<path fill="none" stroke="#000000" stroke-width="1.25" stroke-linecap="square" stroke-miterlimit="10" d="M368.5,411.14  C367.858,410.794,366.856,410.253,368.5,411.14L368.5,411.14z"/>
<path fill="none" stroke="#000000" stroke-width="1.25" stroke-linecap="square" stroke-miterlimit="10" d="M368.5,411.14  C367.896,410.537,367.896,410.537,368.5,411.14L368.5,411.14z"/>
<path fill="none" stroke="#000000" stroke-width="1.25" stroke-linecap="square" stroke-miterlimit="10" d="M368.5,410.39  C367.896,410.994,367.896,410.994,368.5,410.39L368.5,410.39z"/>
<path fill="none" stroke="#000000" stroke-width="1.25" stroke-linecap="square" stroke-miterlimit="10" d="M368.5,410.39  C366.856,411.277,367.858,410.736,368.5,410.39L368.5,410.39z"/>
<path fill="none" stroke="#000000" stroke-width="1.25" stroke-linecap="square" stroke-miterlimit="10" d="M367.75,411.14  C368.354,410.537,368.354,410.537,367.75,411.14L367.75,411.14z"/>
<path fill="none" stroke="#000000" stroke-width="1.25" stroke-linecap="square" stroke-miterlimit="10" d="M368.5,410.39  C367.896,410.994,367.896,410.994,368.5,410.39L368.5,410.39z"/>
<path fill="none" stroke="#000000" stroke-width="1.25" stroke-linecap="square" stroke-miterlimit="10" d="M368.5,410.39  C367.676,411.214,367.676,411.214,368.5,410.39L368.5,410.39z"/>
<path fill="none" stroke="#000000" stroke-width="1.25" stroke-linecap="square" stroke-miterlimit="10" d="M368.5,410.39  C367.676,411.214,367.676,411.214,368.5,410.39L368.5,410.39z"/>
<path fill="none" stroke="#000000" stroke-width="1.25" stroke-linecap="square" stroke-miterlimit="10" d="M368.5,410.39  C366.856,411.277,367.858,410.736,368.5,410.39L368.5,410.39z"/>
<path fill="none" stroke="#000000" stroke-width="1.25" stroke-linecap="square" stroke-miterlimit="10" d="M368.5,410.39  C366.856,411.277,367.858,410.736,368.5,410.39L368.5,410.39z"/>
<path fill="none" stroke="#000000" stroke-width="1.25" stroke-linecap="square" stroke-miterlimit="10" d="M368.5,411.14  C367.858,410.794,366.856,410.253,368.5,411.14L368.5,411.14z"/>
<path fill="none" stroke="#000000" stroke-width="1.25" stroke-linecap="square" stroke-miterlimit="10" d="M368.5,411.14  C367.858,410.794,366.856,410.253,368.5,411.14L368.5,411.14z"/>
<path fill="none" stroke="#000000" stroke-width="1.25" stroke-linecap="square" stroke-miterlimit="10" d="M368.5,411.14  C367.896,410.537,367.896,410.537,368.5,411.14L368.5,411.14z"/>
<path fill="none" stroke="#000000" stroke-width="1.25" stroke-linecap="square" stroke-miterlimit="10" d="M368.5,410.39  C367.896,410.994,367.896,410.994,368.5,410.39L368.5,410.39z"/>
<path fill="none" stroke="#000000" stroke-width="1.25" stroke-linecap="square" stroke-miterlimit="10" d="M368.5,410.39  C366.856,411.277,367.858,410.736,368.5,410.39L368.5,410.39z"/>
<path fill="none" stroke="#000000" stroke-width="1.25" stroke-linecap="square" stroke-miterlimit="10" d="M367.75,411.14  C368.354,410.537,368.354,410.537,367.75,411.14L367.75,411.14z"/>
<path fill="none" stroke="#000000" stroke-width="1.25" stroke-linecap="square" stroke-miterlimit="10" d="M368.5,410.39  C367.896,410.994,367.896,410.994,368.5,410.39L368.5,410.39z"/>
<path fill="none" stroke="#000000" stroke-width="1.25" stroke-linecap="square" stroke-miterlimit="10" d="M368.5,410.39  C367.676,411.214,367.676,411.214,368.5,410.39L368.5,410.39z"/>
<path fill="none" stroke="#000000" stroke-width="1.25" stroke-linecap="square" stroke-miterlimit="10" d="M368.5,410.39  C367.676,411.214,367.676,411.214,368.5,410.39L368.5,410.39z"/>
<path fill="none" stroke="#000000" stroke-width="1.25" stroke-linecap="square" stroke-miterlimit="10" d="M368.5,410.39  C367.676,411.214,367.676,411.214,368.5,410.39L368.5,410.39z"/>
<path fill="none" stroke="#000000" stroke-width="1.25" stroke-linecap="square" stroke-miterlimit="10" d="M368.5,410.39  C367.676,411.214,367.676,411.214,368.5,410.39L368.5,410.39z"/>
<path fill="none" stroke="#000000" stroke-width="1.25" stroke-linecap="square" stroke-miterlimit="10" d="M368.5,411.14  C367.858,410.794,366.856,410.253,368.5,411.14L368.5,411.14z"/>
<path fill="none" stroke="#000000" stroke-width="1.25" stroke-linecap="square" stroke-miterlimit="10" d="M368.5,411.14  C367.896,410.537,367.896,410.537,368.5,411.14L368.5,411.14z"/>
<path fill="none" stroke="#000000" stroke-width="1.25" stroke-linecap="square" stroke-miterlimit="10" d="M368.5,411.14  C367.896,410.537,367.896,410.537,368.5,411.14L368.5,411.14z"/>
<path fill="none" stroke="#000000" stroke-width="1.25" stroke-linecap="square" stroke-miterlimit="10" d="M368.5,410.39  C367.896,410.994,367.896,410.994,368.5,410.39L368.5,410.39z"/>
<path fill="none" stroke="#000000" stroke-width="1.25" stroke-linecap="square" stroke-miterlimit="10" d="M368.5,410.39  C367.896,410.994,367.896,410.994,368.5,410.39L368.5,410.39z"/>
<path fill="none" stroke="#000000" stroke-width="1.25" stroke-linecap="square" stroke-miterlimit="10" d="M367.75,411.14  C368.354,410.537,368.354,410.537,367.75,411.14L367.75,411.14z"/>
<path fill="none" stroke="#000000" stroke-width="1.25" stroke-linecap="square" stroke-miterlimit="10" d="M368.5,410.39  C367.676,411.214,367.676,411.214,368.5,410.39L368.5,410.39z"/>
<path fill="none" stroke="#000000" stroke-width="1.25" stroke-linecap="square" stroke-miterlimit="10" d="M368.5,410.39  C367.676,411.214,367.676,411.214,368.5,410.39L368.5,410.39z"/>
<path fill="none" stroke="#000000" stroke-width="1.25" stroke-linecap="square" stroke-miterlimit="10" d="M368.5,410.39  C367.676,411.214,367.676,411.214,368.5,410.39L368.5,410.39z"/>
<path fill="none" stroke="#000000" stroke-width="1.25" stroke-linecap="square" stroke-miterlimit="10" d="M368.5,410.39  C367.676,411.214,367.676,411.214,368.5,410.39L368.5,410.39z"/>
<path fill="none" stroke="#000000" stroke-width="1.25" stroke-linecap="square" stroke-miterlimit="10" d="M368.5,410.39  C368.154,411.032,367.613,412.034,368.5,410.39L368.5,410.39z"/>
<path fill="none" stroke="#000000" stroke-width="1.25" stroke-linecap="square" stroke-miterlimit="10" d="M368.5,411.14  C367.896,410.537,367.896,410.537,368.5,411.14L368.5,411.14z"/>
<path fill="none" stroke="#000000" stroke-width="1.25" stroke-linecap="square" stroke-miterlimit="10" d="M368.5,411.14  C368.5,410.14,368.5,410.14,368.5,411.14L368.5,411.14z"/>
<path fill="none" stroke="#000000" stroke-width="1.25" stroke-linecap="square" stroke-miterlimit="10" d="M368.5,411.14  C368.5,410.14,368.5,410.14,368.5,411.14L368.5,411.14z"/>
<path fill="none" stroke="#000000" stroke-width="1.25" stroke-linecap="square" stroke-miterlimit="10" d="M368.5,410.39  C368.154,411.032,367.613,412.034,368.5,410.39L368.5,410.39z"/>
<path fill="none" stroke="#000000" stroke-width="1.25" stroke-linecap="square" stroke-miterlimit="10" d="M368.5,410.39  C367.896,410.994,367.896,410.994,368.5,410.39L368.5,410.39z"/>
<path fill="none" stroke="#000000" stroke-width="1.25" stroke-linecap="square" stroke-miterlimit="10" d="M368.5,411.14  L368.5,411.14z"/>
<path fill="none" stroke="#000000" stroke-width="1.25" stroke-linecap="square" stroke-miterlimit="10" d="M368.5,410.39  C368.154,411.032,367.613,412.034,368.5,410.39L368.5,410.39z"/>
<path fill="none" stroke="#000000" stroke-width="1.25" stroke-linecap="square" stroke-miterlimit="10" d="M368.5,410.39  C368.154,411.032,367.613,412.034,368.5,410.39L368.5,410.39z"/>
<path fill="none" stroke="#000000" stroke-width="1.25" stroke-linecap="square" stroke-miterlimit="10" d="M368.5,410.39  C368.154,411.032,367.613,412.034,368.5,410.39L368.5,410.39z"/>
<path fill="none" stroke="#000000" stroke-width="1.25" stroke-linecap="square" stroke-miterlimit="10" d="M368.5,410.39  C368.154,411.032,367.613,412.034,368.5,410.39L368.5,410.39z"/>
<path fill="none" stroke="#000000" stroke-width="1.25" stroke-linecap="square" stroke-miterlimit="10" d="M368.5,411.14  C367.896,410.537,367.896,410.537,368.5,411.14L368.5,411.14z"/>
<path fill="none" stroke="#000000" stroke-width="1.25" stroke-linecap="square" stroke-miterlimit="10" d="M368.5,411.14  C368.5,410.14,368.5,410.14,368.5,411.14L368.5,411.14z"/>
<path fill="none" stroke="#000000" stroke-width="1.25" stroke-linecap="square" stroke-miterlimit="10" d="M366.25,410.39  c1.275-0.722,2.422-0.844,3.75,0"/>
<path fill-rule="evenodd" clip-rule="evenodd" fill="#F1DCB2" stroke="#000000" stroke-width="1.25" stroke-linecap="square" stroke-miterlimit="10" d="  M391.75,421.64c-31.717-11.274-31.531,21.755-15,2.25C384.985,433.057,388.74,431.638,391.75,421.64z"/>
<path fill-rule="evenodd" clip-rule="evenodd" fill="#F1CD9B" stroke="#000000" stroke-width="1.25" stroke-linecap="square" stroke-miterlimit="10" d="  M375.25,415.64C376.141,421.216,376.254,421.928,375.25,415.64L375.25,415.64z"/>
<path fill="none" stroke="#000000" stroke-width="1.25" stroke-linecap="square" stroke-miterlimit="10" d="M387.25,423.14  L387.25,423.14z"/>
<path fill="none" stroke="#000000" stroke-width="1.25" stroke-linecap="square" stroke-miterlimit="10" d="M383.5,425.39  C382.896,424.787,382.896,424.787,383.5,425.39L383.5,425.39z"/>
<path fill="none" stroke="#000000" stroke-width="1.25" stroke-linecap="square" stroke-miterlimit="10" d="M373,426.89  C373,425.89,373,425.89,373,426.89L373,426.89z"/>
<path fill="none" stroke="#000000" stroke-width="1.25" stroke-linecap="square" stroke-miterlimit="10" d="M370,427.64  C369,427.64,369,427.64,370,427.64L370,427.64z"/>
<path fill="none" stroke="#000000" stroke-width="1.25" stroke-linecap="square" stroke-miterlimit="10" d="M368.5,426.14  C367.896,426.744,367.896,426.744,368.5,426.14L368.5,426.14z"/>
<path fill="none" stroke="#000000" stroke-width="1.25" stroke-linecap="square" stroke-miterlimit="10" d="M370.75,424.64  C370.75,425.64,370.75,425.64,370.75,424.64L370.75,424.64z"/>
<path fill="none" stroke="#000000" stroke-width="1.25" stroke-linecap="square" stroke-miterlimit="10" d="M385.75,425.39  L385.75,425.39z"/>
<path fill="none" stroke="#000000" stroke-width="1.25" stroke-linecap="square" stroke-miterlimit="10" d="M388,426.14  C387.396,425.537,387.396,425.537,388,426.14L388,426.14z"/>
<path fill="none" stroke="#000000" stroke-width="1.25" stroke-linecap="square" stroke-miterlimit="10" d="M354.25,405.89  c-1.438-1.447-3.29-2.266-5.25-2.25"/>
<path fill="none" stroke="#000000" stroke-width="1.25" stroke-linecap="square" stroke-miterlimit="10" d="M393.25,399.89  c1.353-2.369,3.274-3.512,5.25-2.25"/>
<path fill="none" stroke="#000000" stroke-width="1.25" stroke-linecap="square" stroke-miterlimit="10" d="M371.5,429.89  c3.148,2.343,6.946,1.845,9-1.5"/>
<path fill="none" stroke="#000000" stroke-width="1.25" stroke-linecap="square" stroke-miterlimit="10" d="M382,408.89  C383.644,409.777,382.642,409.236,382,408.89L382,408.89z"/>
<path fill="none" stroke="#000000" stroke-width="1.25" stroke-linecap="square" stroke-miterlimit="10" d="M382,409.64  C383.644,410.527,382.642,409.986,382,409.64L382,409.64z"/>
<path fill="none" stroke="#000000" stroke-width="1.25" stroke-linecap="square" stroke-miterlimit="10" d="M382,409.64  C382.604,410.244,382.604,410.244,382,409.64L382,409.64z"/>
<path fill="none" stroke="#000000" stroke-width="1.25" stroke-linecap="square" stroke-miterlimit="10" d="M381.25,409.64  C384.847,409.737,382.527,409.674,381.25,409.64L381.25,409.64z"/>
<path fill="none" stroke="#000000" stroke-width="1.25" stroke-linecap="square" stroke-miterlimit="10" d="M381.25,409.64  C383.631,409.64,383.631,409.64,381.25,409.64L381.25,409.64z"/>
<path fill="none" stroke="#000000" stroke-width="1.25" stroke-linecap="square" stroke-miterlimit="10" d="M382.75,409.64  C382.146,410.244,382.146,410.244,382.75,409.64L382.75,409.64z"/>
<path fill="none" stroke="#000000" stroke-width="1.25" stroke-linecap="square" stroke-miterlimit="10" d="M381.25,409.64  C383.399,409.567,382.966,409.582,381.25,409.64L381.25,409.64z"/>
<path fill="none" stroke="#000000" stroke-width="1.25" stroke-linecap="square" stroke-miterlimit="10" d="M381.25,409.64  C384.298,409.784,382.159,409.683,381.25,409.64L381.25,409.64z"/>
<path fill="none" stroke="#000000" stroke-width="1.25" stroke-linecap="square" stroke-miterlimit="10" d="M382,409.64  C384.276,409.854,381.407,409.584,382,409.64L382,409.64z"/>
<path fill="none" stroke="#000000" stroke-width="1.25" stroke-linecap="square" stroke-miterlimit="10" d="M382,409.64  C383.644,410.527,382.642,409.986,382,409.64L382,409.64z"/>
<path fill="none" stroke="#000000" stroke-width="1.25" stroke-linecap="square" stroke-miterlimit="10" d="M382,409.64  C383.644,410.527,382.642,409.986,382,409.64L382,409.64z"/>
<path fill="none" stroke="#000000" stroke-width="1.25" stroke-linecap="square" stroke-miterlimit="10" d="M382,409.64  C383.644,410.527,382.642,409.986,382,409.64L382,409.64z"/>
<path fill="none" stroke="#000000" stroke-width="1.25" stroke-linecap="square" stroke-miterlimit="10" d="M382,409.64  C382.604,410.244,382.604,410.244,382,409.64L382,409.64z"/>
<path fill="none" stroke="#000000" stroke-width="1.25" stroke-linecap="square" stroke-miterlimit="10" d="M382,409.64  C382.604,410.244,382.604,410.244,382,409.64L382,409.64z"/>
<path fill="none" stroke="#000000" stroke-width="1.25" stroke-linecap="square" stroke-miterlimit="10" d="M381.25,409.64  C384.179,409.381,382.712,409.511,381.25,409.64L381.25,409.64z"/>
<path fill="none" stroke="#000000" stroke-width="1.25" stroke-linecap="square" stroke-miterlimit="10" d="M381.25,409.64  C383.631,409.64,383.631,409.64,381.25,409.64L381.25,409.64z"/>
<path fill="none" stroke="#000000" stroke-width="1.25" stroke-linecap="square" stroke-miterlimit="10" d="M382.75,409.64  C382.146,410.244,382.146,410.244,382.75,409.64L382.75,409.64z"/>
<path fill="none" stroke="#000000" stroke-width="1.25" stroke-linecap="square" stroke-miterlimit="10" d="M381.25,409.64  C384.298,409.784,382.159,409.683,381.25,409.64L381.25,409.64z"/>
<path fill="none" stroke="#000000" stroke-width="1.25" stroke-linecap="square" stroke-miterlimit="10" d="M382,409.64  C384.276,409.854,381.407,409.584,382,409.64L382,409.64z"/>
<path fill="none" stroke="#000000" stroke-width="1.25" stroke-linecap="square" stroke-miterlimit="10" d="M382,409.64  C383.644,410.527,382.642,409.986,382,409.64L382,409.64z"/>
<path fill="none" stroke="#000000" stroke-width="1.25" stroke-linecap="square" stroke-miterlimit="10" d="M382,409.64  C382.604,410.244,382.604,410.244,382,409.64L382,409.64z"/>
<path fill="none" stroke="#000000" stroke-width="1.25" stroke-linecap="square" stroke-miterlimit="10" d="M382,409.64  C382.604,410.244,382.604,410.244,382,409.64L382,409.64z"/>
<path fill="none" stroke="#000000" stroke-width="1.25" stroke-linecap="square" stroke-miterlimit="10" d="M382,409.64  C382.604,410.244,382.604,410.244,382,409.64L382,409.64z"/>
<path fill="none" stroke="#000000" stroke-width="1.25" stroke-linecap="square" stroke-miterlimit="10" d="M382,409.64  C382.604,410.244,382.604,410.244,382,409.64L382,409.64z"/>
<path fill="none" stroke="#000000" stroke-width="1.25" stroke-linecap="square" stroke-miterlimit="10" d="M382,409.64  C382.604,410.244,382.604,410.244,382,409.64L382,409.64z"/>
<path fill="none" stroke="#000000" stroke-width="1.25" stroke-linecap="square" stroke-miterlimit="10" d="M381.25,409.64  C382.897,409.64,382.897,409.64,381.25,409.64L381.25,409.64z"/>
<path fill="none" stroke="#000000" stroke-width="1.25" stroke-linecap="square" stroke-miterlimit="10" d="M382,409.64  C384.276,409.854,381.407,409.584,382,409.64L382,409.64z"/>
<path fill="none" stroke="#000000" stroke-width="1.25" stroke-linecap="square" stroke-miterlimit="10" d="M382.75,409.64  C382.108,409.986,381.106,410.527,382.75,409.64L382.75,409.64z"/>
<path fill="none" stroke="#000000" stroke-width="1.25" stroke-linecap="square" stroke-miterlimit="10" d="M382,409.64  C382.604,410.244,382.604,410.244,382,409.64L382,409.64z"/>
<path fill="none" stroke="#000000" stroke-width="1.25" stroke-linecap="square" stroke-miterlimit="10" d="M382,409.64  C382.604,410.244,382.604,410.244,382,409.64L382,409.64z"/>
<path fill="none" stroke="#000000" stroke-width="1.25" stroke-linecap="square" stroke-miterlimit="10" d="M382,409.64  C382.604,410.244,382.604,410.244,382,409.64L382,409.64z"/>
<path fill="none" stroke="#000000" stroke-width="1.25" stroke-linecap="square" stroke-miterlimit="10" d="M382,409.64  C382.604,410.244,382.604,410.244,382,409.64L382,409.64z"/>
<path fill="none" stroke="#000000" stroke-width="1.25" stroke-linecap="square" stroke-miterlimit="10" d="M382,409.64  C382.604,410.244,382.604,410.244,382,409.64L382,409.64z"/>
<path fill="none" stroke="#000000" stroke-width="1.25" stroke-linecap="square" stroke-miterlimit="10" d="M382,409.64  C382.604,410.244,382.604,410.244,382,409.64L382,409.64z"/>
<path fill="none" stroke="#000000" stroke-width="1.25" stroke-linecap="square" stroke-miterlimit="10" d="M382,409.64  C382,410.64,382,410.64,382,409.64L382,409.64z"/>
<path fill="none" stroke="#000000" stroke-width="1.25" stroke-linecap="square" stroke-miterlimit="10" d="M382,409.64  C382,410.64,382,410.64,382,409.64L382,409.64z"/>
<path fill="none" stroke="#000000" stroke-width="1.25" stroke-linecap="square" stroke-miterlimit="10" d="M382,409.64  C382.604,410.244,382.604,410.244,382,409.64L382,409.64z"/>
<path fill="none" stroke="#000000" stroke-width="1.25" stroke-linecap="square" stroke-miterlimit="10" d="M382,409.64  C382.604,410.244,382.604,410.244,382,409.64L382,409.64z"/>
<path fill="none" stroke="#000000" stroke-width="1.25" stroke-linecap="square" stroke-miterlimit="10" d="M382,409.64  C382,410.64,382,410.64,382,409.64L382,409.64z"/>
<path fill="none" stroke="#000000" stroke-width="1.25" stroke-linecap="square" stroke-miterlimit="10" d="M382,409.64  C382.604,410.244,382.604,410.244,382,409.64L382,409.64z"/>
<path fill="none" stroke="#000000" stroke-width="1.25" stroke-linecap="square" stroke-miterlimit="10" d="M382,409.64  C382.604,410.244,382.604,410.244,382,409.64L382,409.64z"/>
<path fill="none" stroke="#000000" stroke-width="1.25" stroke-linecap="square" stroke-miterlimit="10" d="M382,409.64  C382.604,410.244,382.604,410.244,382,409.64L382,409.64z"/>
<path fill="none" stroke="#000000" stroke-width="1.25" stroke-linecap="square" stroke-miterlimit="10" d="M382,409.64  C382,410.64,382,410.64,382,409.64L382,409.64z"/>
<path fill="none" stroke="#000000" stroke-width="1.25" stroke-linecap="square" stroke-miterlimit="10" d="M382,409.64  C382,410.64,382,410.64,382,409.64L382,409.64z"/>
<path fill="none" stroke="#000000" stroke-width="1.25" stroke-linecap="square" stroke-miterlimit="10" d="M382,409.64  C382,410.64,382,410.64,382,409.64L382,409.64z"/>
<path fill="none" stroke="#000000" stroke-width="1.25" stroke-linecap="square" stroke-miterlimit="10" d="M382,409.64  C382.604,409.037,382.604,409.037,382,409.64L382,409.64z"/>
<path fill="none" stroke="#000000" stroke-width="1.25" stroke-linecap="square" stroke-miterlimit="10" d="M382,409.64  C383,409.64,383,409.64,382,409.64L382,409.64z"/>
<path fill="none" stroke="#000000" stroke-width="1.25" stroke-linecap="square" stroke-miterlimit="10" d="M382,409.64  C382.824,408.816,382.824,408.816,382,409.64L382,409.64z"/>
<path fill="none" stroke="#000000" stroke-width="1.25" stroke-linecap="square" stroke-miterlimit="10" d="M382,409.64  C382.824,408.816,382.824,408.816,382,409.64L382,409.64z"/>
<path fill="none" stroke="#000000" stroke-width="1.25" stroke-linecap="square" stroke-miterlimit="10" d="M382.75,409.64  C381.75,409.64,381.75,409.64,382.75,409.64L382.75,409.64z"/>
<path fill="none" stroke="#000000" stroke-width="1.25" stroke-linecap="square" stroke-miterlimit="10" d="M382,409.64  C382.824,408.816,382.824,408.816,382,409.64L382,409.64z"/>
<path fill="none" stroke="#000000" stroke-width="1.25" stroke-linecap="square" stroke-miterlimit="10" d="M382,409.64  C382.824,408.816,382.824,408.816,382,409.64L382,409.64z"/>
<path fill="none" stroke="#000000" stroke-width="1.25" stroke-linecap="square" stroke-miterlimit="10" d="M382,409.64  C382.824,408.816,382.824,408.816,382,409.64L382,409.64z"/>
<path fill="none" stroke="#000000" stroke-width="1.25" stroke-linecap="square" stroke-miterlimit="10" d="M382,409.64  C382.604,409.037,382.604,409.037,382,409.64L382,409.64z"/>
<path fill="none" stroke="#000000" stroke-width="1.25" stroke-linecap="square" stroke-miterlimit="10" d="M382,409.64  C382.604,409.037,382.604,409.037,382,409.64L382,409.64z"/>
<path fill="none" stroke="#000000" stroke-width="1.25" stroke-linecap="square" stroke-miterlimit="10" d="M382,409.64  C382.604,409.037,382.604,409.037,382,409.64L382,409.64z"/>
<path fill="none" stroke="#000000" stroke-width="1.25" stroke-linecap="square" stroke-miterlimit="10" d="M382,409.64  C383,409.64,383,409.64,382,409.64L382,409.64z"/>
<path fill="none" stroke="#000000" stroke-width="1.25" stroke-linecap="square" stroke-miterlimit="10" d="M382,409.64  C383,409.64,383,409.64,382,409.64L382,409.64z"/>
<path fill="none" stroke="#000000" stroke-width="1.25" stroke-linecap="square" stroke-miterlimit="10" d="M382,409.64  C382.887,407.996,382.346,408.999,382,409.64L382,409.64z"/>
<path fill="none" stroke="#000000" stroke-width="1.25" stroke-linecap="square" stroke-miterlimit="10" d="M382,409.64  C382.824,408.816,382.824,408.816,382,409.64L382,409.64z"/>
<path fill="none" stroke="#000000" stroke-width="1.25" stroke-linecap="square" stroke-miterlimit="10" d="M382.75,409.64  C381.75,409.64,381.75,409.64,382.75,409.64L382.75,409.64z"/>
<path fill="none" stroke="#000000" stroke-width="1.25" stroke-linecap="square" stroke-miterlimit="10" d="M382,409.64  C382.887,407.996,382.346,408.999,382,409.64L382,409.64z"/>
<path fill="none" stroke="#000000" stroke-width="1.25" stroke-linecap="square" stroke-miterlimit="10" d="M382,409.64  C382.604,409.037,382.604,409.037,382,409.64L382,409.64z"/>
<path fill="none" stroke="#000000" stroke-width="1.25" stroke-linecap="square" stroke-miterlimit="10" d="M382,409.64  C382.604,409.037,382.604,409.037,382,409.64L382,409.64z"/>
<path fill="none" stroke="#000000" stroke-width="1.25" stroke-linecap="square" stroke-miterlimit="10" d="M382,409.64  C382.604,409.037,382.604,409.037,382,409.64L382,409.64z"/>
<path fill="none" stroke="#000000" stroke-width="1.25" stroke-linecap="square" stroke-miterlimit="10" d="M382,409.64  C382.604,409.037,382.604,409.037,382,409.64L382,409.64z"/>
<path fill="none" stroke="#000000" stroke-width="1.25" stroke-linecap="square" stroke-miterlimit="10" d="M382,409.64  C382.604,409.037,382.604,409.037,382,409.64L382,409.64z"/>
<path fill="none" stroke="#000000" stroke-width="1.25" stroke-linecap="square" stroke-miterlimit="10" d="M382,409.64  C383,409.64,383,409.64,382,409.64L382,409.64z"/>
<path fill="none" stroke="#000000" stroke-width="1.25" stroke-linecap="square" stroke-miterlimit="10" d="M382,409.64L382,409.64z  "/>
<path fill="none" stroke="#000000" stroke-width="1.25" stroke-linecap="square" stroke-miterlimit="10" d="M382,409.64  C382.887,407.996,382.346,408.999,382,409.64L382,409.64z"/>
<path fill="none" stroke="#000000" stroke-width="1.25" stroke-linecap="square" stroke-miterlimit="10" d="M382,409.64  C382.887,407.996,382.346,408.999,382,409.64L382,409.64z"/>
<path fill="none" stroke="#000000" stroke-width="1.25" stroke-linecap="square" stroke-miterlimit="10" d="M382.75,409.64  C381.75,409.64,381.75,409.64,382.75,409.64L382.75,409.64z"/>
<path fill="none" stroke="#000000" stroke-width="1.25" stroke-linecap="square" stroke-miterlimit="10" d="M382,409.64  C382.604,409.037,382.604,409.037,382,409.64L382,409.64z"/>
<path fill="none" stroke="#000000" stroke-width="1.25" stroke-linecap="square" stroke-miterlimit="10" d="M382,409.64  C382.604,409.037,382.604,409.037,382,409.64L382,409.64z"/>
<path fill="none" stroke="#000000" stroke-width="1.25" stroke-linecap="square" stroke-miterlimit="10" d="M382,409.64  C382.604,409.037,382.604,409.037,382,409.64L382,409.64z"/>
<path fill="none" stroke="#000000" stroke-width="1.25" stroke-linecap="square" stroke-miterlimit="10" d="M382,409.64  C382.604,409.037,382.604,409.037,382,409.64L382,409.64z"/>
<path fill="none" stroke="#000000" stroke-width="1.25" stroke-linecap="square" stroke-miterlimit="10" d="M382,409.64  C382.604,409.037,382.604,409.037,382,409.64L382,409.64z"/>
<path fill="none" stroke="#000000" stroke-width="1.25" stroke-linecap="square" stroke-miterlimit="10" d="M382,409.64  C383,409.64,383,409.64,382,409.64L382,409.64z"/>
<path fill="none" stroke="#000000" stroke-width="1.25" stroke-linecap="square" stroke-miterlimit="10" d="M382,409.64L382,409.64z  "/>
<path fill="none" stroke="#000000" stroke-width="1.25" stroke-linecap="square" stroke-miterlimit="10" d="M382,409.64L382,409.64z  "/>
<path fill="none" stroke="#000000" stroke-width="1.25" stroke-linecap="square" stroke-miterlimit="10" d="M382,409.64  C382.604,409.037,382.604,409.037,382,409.64L382,409.64z"/>
<path fill="none" stroke="#000000" stroke-width="1.25" stroke-linecap="square" stroke-miterlimit="10" d="M382,409.64  C382.604,409.037,382.604,409.037,382,409.64L382,409.64z"/>
<path fill="none" stroke="#000000" stroke-width="1.25" stroke-linecap="square" stroke-miterlimit="10" d="M382,409.64L382,409.64z  "/>
<path fill="none" stroke="#000000" stroke-width="1.25" stroke-linecap="square" stroke-miterlimit="10" d="M382,409.64  C382.604,409.037,382.604,409.037,382,409.64L382,409.64z"/>
<path fill="none" stroke="#000000" stroke-width="1.25" stroke-linecap="square" stroke-miterlimit="10" d="M382,409.64  C382.604,409.037,382.604,409.037,382,409.64L382,409.64z"/>
<path fill="none" stroke="#000000" stroke-width="1.25" stroke-linecap="square" stroke-miterlimit="10" d="M382,409.64  C382.604,409.037,382.604,409.037,382,409.64L382,409.64z"/>
<path fill="none" stroke="#000000" stroke-width="1.25" stroke-linecap="square" stroke-miterlimit="10" d="M382,409.64L382,409.64z  "/>
<path fill="none" stroke="#000000" stroke-width="1.25" stroke-linecap="square" stroke-miterlimit="10" d="M382,409.64L382,409.64z  "/>
<path fill="none" stroke="#000000" stroke-width="1.25" stroke-linecap="square" stroke-miterlimit="10" d="M382,409.64L382,409.64z  "/>
<path fill="none" stroke="#000000" stroke-width="1.25" stroke-linecap="square" stroke-miterlimit="10" d="M384.25,408.89  c-1.359-0.247-2.612-0.002-3.75,0.75"/>
<path fill="none" stroke="#000000" stroke-width="1.25" stroke-linecap="square" stroke-miterlimit="10" d="M376.75,420.89  c0,1,0,2,0,3"/>
<path fill="none" stroke="#000000" stroke-width="1.25" stroke-linecap="square" stroke-miterlimit="10" d="M356.5,401.39  c0.224,1.112-0.026,2.112-0.75,3"/>
<path fill-rule="evenodd" clip-rule="evenodd" fill="#CECACA" stroke="#000000" stroke-linecap="square" stroke-miterlimit="10" d="  M340,504.89c-23.282,2.83-12-52.508-12-69.661c0-15.741-10.177-79.432,0-91.589c14.233-17.002,12,65.141,12,69.661  C340,443.831,340,474.361,340,504.89z"/>
<path fill-rule="evenodd" clip-rule="evenodd" fill="#CECACA" stroke="#000000" stroke-linecap="square" stroke-miterlimit="10" d="  M369.25,504.89c-23.282,2.83-12-52.508-12-69.661c0-15.741-10.177-79.432,0-91.589c14.233-17.002,12,65.141,12,69.661  C369.25,443.831,369.25,474.361,369.25,504.89z"/>
<path fill-rule="evenodd" clip-rule="evenodd" fill="#CECACA" stroke="#000000" stroke-linecap="square" stroke-miterlimit="10" d="  M398.5,504.89c-22.104,2.223-11.25-52.966-11.25-69.661c0-15.467-10.126-79.772,0-91.589c13.398-15.636,11.25,64.864,11.25,69.661  C398.5,443.831,398.5,474.361,398.5,504.89z"/>
<path fill-rule="evenodd" clip-rule="evenodd" fill="#CECACA" stroke="#000000" stroke-linecap="square" stroke-miterlimit="10" d="  M428.5,504.89c-23.282,2.83-12-52.508-12-69.661c0-15.741-10.177-79.432,0-91.589c14.232-17.002,12,65.141,12,69.661  C428.5,443.831,428.5,474.361,428.5,504.89z"/>
<path fill-rule="evenodd" clip-rule="evenodd" fill="#CECACA" stroke="#000000" stroke-linecap="square" stroke-miterlimit="10" d="  M457.75,504.89c-23.282,2.83-12-52.508-12-69.661c0-15.741-10.177-79.432,0-91.589c14.232-17.002,12,65.141,12,69.661  C457.75,443.831,457.75,474.361,457.75,504.89z"/>
<path fill-rule="evenodd" clip-rule="evenodd" fill="#CECACA" stroke="#000000" stroke-linecap="square" stroke-miterlimit="10" d="  M487,504.89c-23.282,2.83-12-52.508-12-69.661c0-15.741-10.177-79.432,0-91.589c14.232-17.002,12,65.141,12,69.661  C487,443.831,487,474.361,487,504.89z"/>
<path fill="none" stroke="#000000" stroke-linecap="square" stroke-miterlimit="10" d="M488.5,505.64c-26.75,0-53.5,0-80.25,0  c-11.986,0-71.674,8.492-80.25,0c-7.593-7.52-7.593-155.23,0-162.75c7.669-7.594,152.831-7.594,160.5,0  c8.55,8.467,0,69.407,0,81.375C488.5,451.39,488.5,478.515,488.5,505.64z"/>
<path fill-rule="evenodd" clip-rule="evenodd" fill="#CECACA" stroke="#000000" stroke-linecap="square" stroke-miterlimit="10" d="  M305.5,333.89c0,19.57-3.007,175.5,2.859,175.5c35.856,0,71.713,0,107.57,0c13.804,0,90.194,10.17,99.571,0  c12.024-13.04-5.501-175.5-2.858-175.5C443.594,333.89,374.547,333.89,305.5,333.89z M503.5,500.39c-60.873,0-121.746,0-182.619,0  c1.142,0-14.949-147.22-3.381-158.25c8.575-8.177,64.743,0,76.34,0c35.426,0,70.853,0,106.279,0  C507.115,342.14,503.5,481.874,503.5,500.39z"/>
</svg>