<svg xmlns="http://www.w3.org/2000/svg" xmlns:xlink="http://www.w3.org/1999/xlink" version="1.1" id="Layer_1" x="0px" y="0px" enable-background="new 0 0 822.05 841.89" xml:space="preserve" viewBox="308.72 341.74 204.18 163.96">
<path fill-rule="evenodd" clip-rule="evenodd" fill="#FFFFFF" stroke="#000000" stroke-linecap="square" stroke-miterlimit="10" d="  M453.277,480.863c-13.116,29.408-147.087,34.813-144.002,1.5C312.458,447.998,437.942,456.072,453.277,480.863z"/>
<path fill-rule="evenodd" clip-rule="evenodd" fill="#FFFFFF" stroke="#000000" stroke-linecap="square" stroke-miterlimit="10" d="  M430.777,481.613c-10.485,18.166-99.004,27.281-99.752,2.25C330.27,458.544,419.06,466.016,430.777,481.613z"/>
<path fill-rule="evenodd" clip-rule="evenodd" fill="#99521F" stroke="#000000" stroke-linecap="square" stroke-miterlimit="10" d="  M433.777,467.363c-6.238-10.339-86.332,1.914-107.252-2.25C327.241,488.706,416.504,478.884,433.777,467.363z"/>
<path fill-rule="evenodd" clip-rule="evenodd" fill="#99521F" stroke="#000000" stroke-linecap="square" stroke-miterlimit="10" d="  M434.527,472.613c-21.096,19.867-84.279,14.824-109.502,3.75C326.416,514.426,440.4,503.71,434.527,472.613z"/>
<path fill-rule="evenodd" clip-rule="evenodd" fill="#E61324" stroke="#000000" stroke-linecap="square" stroke-miterlimit="10" d="  M434.527,471.113c-9.525-8.229-82.801,9.119-108.752,0c3.217,25.058,57.681,4.099,72,18  C405.471,475.899,429.415,485.199,434.527,471.113z"/>
<path fill-rule="evenodd" clip-rule="evenodd" fill="#E61324" stroke="#000000" stroke-linecap="square" stroke-miterlimit="10" d="  M433.027,461.363c-0.072-2.68-1.093-5.822-0.75-9c-35.286,5.305-70.928,4.5-106.502,4.5  C328.791,480.523,417.185,469.315,433.027,461.363z"/>
<path fill-rule="evenodd" clip-rule="evenodd" fill="#99521F" stroke="#000000" stroke-linecap="square" stroke-miterlimit="10" d="  M432.277,452.363c-0.012-28.182-83.806-7.084-107.252-10.5C316.616,478.274,413.248,463.662,432.277,452.363z"/>
<path fill-rule="evenodd" clip-rule="evenodd" fill="#F8E4EF" stroke="#000000" stroke-linecap="square" stroke-miterlimit="10" d="  M354.275,420.113c-11.544,4.824-13.187,14.775-5.25,24.75c-6.14-20.941,21.154-15.43,27-35.248  C369.59,416.635,363.034,417.184,354.275,420.113z"/>
<path fill-rule="evenodd" clip-rule="evenodd" fill="#F9D3E7" stroke="#000000" stroke-linecap="square" stroke-miterlimit="10" d="  M388.775,416.365c-4.386-1.337-7.562-0.841-11.25-3.75c11.205,9.346,30.719,22.568,45.002,18.748  C415.183,421.261,401.641,417.313,388.775,416.365z"/>
<path fill-rule="evenodd" clip-rule="evenodd" fill="#F9D3E7" stroke="#000000" stroke-linecap="square" stroke-miterlimit="10" d="  M355.775,429.113c-13.228,7.174-9.677,17.155,3.75,9.75c10.836-5.976,16.69-15.002,16.5-28.498  C372.54,420.117,365.665,427.105,355.775,429.113z"/>
<path fill-rule="evenodd" clip-rule="evenodd" fill="#F8E4EF" stroke="#000000" stroke-linecap="square" stroke-miterlimit="10" d="  M380.525,432.863c-1.706-6.036-4.878-13.464-5.25-20.998c0.831,15.293-10.24,23.046-17.25,32.248c7.796-0.44,18.134-1.935,25.5-4.5  C383.188,436.5,381.69,435.5,380.525,432.863z"/>
<path fill-rule="evenodd" clip-rule="evenodd" fill="#F9D3E7" stroke="#000000" stroke-linecap="square" stroke-miterlimit="10" d="  M376.025,411.115c-0.443,14.765,3.63,32.044,20.25,26.248C389.472,428.618,381.918,420.286,376.025,411.115z"/>
<path fill-rule="evenodd" clip-rule="evenodd" fill="#F8E4EF" stroke="#000000" stroke-linecap="square" stroke-miterlimit="10" d="  M390.275,421.613c-4.862-4.226-10.335-7.121-14.25-11.998c7.558,13.776,19.119,33.043,36.75,23.998  C406.174,427.803,398.71,423.966,390.275,421.613z"/>
<path fill-rule="evenodd" clip-rule="evenodd" fill="#FFFFFF" stroke="#000000" stroke-linecap="square" stroke-miterlimit="10" d="  M324.275,436.613c-1.203,5.433-0.59,11.931-2.25,17.25c9.909-11.88,44.028-3.06,57-3c19.823,0.092,37.555-11.817,59.252-3.75  c-0.354-1-0.104-1.75,0.75-2.25c-13.014-27.888-24.265-12.646-46.502-12.75C369.124,432.003,347.875,423.732,324.275,436.613z"/>
<path fill-rule="evenodd" clip-rule="evenodd" fill="#E61324" stroke="#000000" stroke-linecap="square" stroke-miterlimit="10" d="  M331.025,438.113C321.61,439.844,321.396,437.383,331.025,438.113L331.025,438.113z"/>
<path fill-rule="evenodd" clip-rule="evenodd" fill="#E61324" stroke="#000000" stroke-linecap="square" stroke-miterlimit="10" d="  M344.525,443.363C336.774,443.082,335.678,443.042,344.525,443.363L344.525,443.363z"/>
<path fill-rule="evenodd" clip-rule="evenodd" fill="#E61324" stroke="#000000" stroke-linecap="square" stroke-miterlimit="10" d="  M364.025,442.613C356.215,442.001,357.045,442.067,364.025,442.613L364.025,442.613z"/>
<path fill-rule="evenodd" clip-rule="evenodd" fill="#E61324" stroke="#000000" stroke-linecap="square" stroke-miterlimit="10" d="  M376.775,438.113c-1.154-0.193-1.866,4.458-4.5,0C375.135,431.944,374.965,437.809,376.775,438.113z"/>
<path fill-rule="evenodd" clip-rule="evenodd" fill="#E61324" stroke="#000000" stroke-linecap="square" stroke-miterlimit="10" d="  M392.525,441.113C382.872,440.367,383.285,440.398,392.525,441.113L392.525,441.113z"/>
<path fill-rule="evenodd" clip-rule="evenodd" fill="#E61324" stroke="#000000" stroke-linecap="square" stroke-miterlimit="10" d="  M408.275,439.613C400.24,439.889,399.755,439.906,408.275,439.613L408.275,439.613z"/>
<path fill-rule="evenodd" clip-rule="evenodd" fill="#E61324" stroke="#000000" stroke-linecap="square" stroke-miterlimit="10" d="  M419.527,429.863C409.536,430.5,409.577,427.143,419.527,429.863L419.527,429.863z"/>
<path fill-rule="evenodd" clip-rule="evenodd" fill="#E61324" stroke="#000000" stroke-linecap="square" stroke-miterlimit="10" d="  M436.027,435.863C426.66,434.634,427.159,434.7,436.027,435.863L436.027,435.863z"/>
<path fill-rule="evenodd" clip-rule="evenodd" fill="#E61324" stroke="#000000" stroke-linecap="square" stroke-miterlimit="10" d="  M352.025,435.863C345.732,436.751,348.344,436.383,352.025,435.863L352.025,435.863z"/>
<path fill-rule="evenodd" clip-rule="evenodd" fill="#FFFFFF" stroke="#000000" stroke-width="0.75" stroke-linecap="square" stroke-miterlimit="10" d="  M512.527,398.365c-10.734,23.87-115.977,28.371-114.002,1.5C400.551,372.306,498.769,380.519,512.527,398.365z"/>
<path fill-rule="evenodd" clip-rule="evenodd" fill="#FFFFFF" stroke="#000000" stroke-width="0.75" stroke-linecap="square" stroke-miterlimit="10" d="  M494.527,399.115c-8.202,13.744-79.416,21.838-78.75,2.25C416.525,379.369,484.886,388.858,494.527,399.115z"/>
<path fill-rule="evenodd" clip-rule="evenodd" fill="#99521F" stroke="#000000" stroke-width="0.75" stroke-linecap="square" stroke-miterlimit="10" d="  M496.777,387.115c-13.701-9.123-61.843,1.323-84.752-1.5C417.389,403.243,480.009,397.163,496.777,387.115z"/>
<path fill-rule="evenodd" clip-rule="evenodd" fill="#99521F" stroke="#000000" stroke-width="0.75" stroke-linecap="square" stroke-miterlimit="10" d="  M497.527,393.115c-19.018,13.438-67.475,12.466-87.002,2.25C413.463,424.625,499.031,417.121,497.527,393.115z"/>
<path fill-rule="evenodd" clip-rule="evenodd" fill="#E61324" stroke="#000000" stroke-width="0.75" stroke-linecap="square" stroke-miterlimit="10" d="  M497.527,390.865c-19.153-1.892-59.882,11.851-86.252,0C415.896,411.188,490.66,407.313,497.527,390.865z"/>
<path fill-rule="evenodd" clip-rule="evenodd" fill="#E61324" stroke="#000000" stroke-width="0.75" stroke-linecap="square" stroke-miterlimit="10" d="  M496.027,383.365c-0.376-2.33-1.044-4.758-0.75-7.5c-27.24,5.073-56.385,3-84.002,3  C415.272,396.745,481.088,391.685,496.027,383.365z"/>
<path fill-rule="evenodd" clip-rule="evenodd" fill="#99521F" stroke="#000000" stroke-width="0.75" stroke-linecap="square" stroke-miterlimit="10" d="  M495.277,375.115c-0.608-21.982-90.032-9.821-84.002,2.25C419.171,393.169,480.276,383.124,495.277,375.115z"/>
<path fill-rule="evenodd" clip-rule="evenodd" fill="#F8E4EF" stroke="#000000" stroke-width="0.75" stroke-linecap="square" stroke-miterlimit="10" d="  M433.777,350.365c-7.021,6.056-10.947,10.096-4.5,20.25c-3.059-17.492,16.677-11.984,21.75-28.5  C445.974,347.864,440.12,347.025,433.777,350.365z"/>
<path fill-rule="evenodd" clip-rule="evenodd" fill="#F9D3E7" stroke="#000000" stroke-width="0.75" stroke-linecap="square" stroke-miterlimit="10" d="  M462.277,348.115c-3.698-0.651-6.119,0.042-9-3c9.771,8.689,23.144,15.331,35.25,15C482.305,351.91,472.941,348.224,462.277,348.115  z"/>
<path fill-rule="evenodd" clip-rule="evenodd" fill="#F9D3E7" stroke="#000000" stroke-width="0.75" stroke-linecap="square" stroke-miterlimit="10" d="  M434.527,356.365c-15.457,22.657,17.144,7.228,16.5-14.25C447.936,352.158,442.198,353.541,434.527,356.365z"/>
<path fill-rule="evenodd" clip-rule="evenodd" fill="#F8E4EF" stroke="#000000" stroke-width="0.75" stroke-linecap="square" stroke-miterlimit="10" d="  M455.527,360.865c-1.424-5.688-4.351-10.826-4.5-17.25c0.283,10.95-7.09,20.142-13.5,26.25  C450.313,370.577,454.614,367.829,455.527,360.865z"/>
<path fill-rule="evenodd" clip-rule="evenodd" fill="#F9D3E7" stroke="#000000" stroke-width="0.75" stroke-linecap="square" stroke-miterlimit="10" d="  M451.027,342.865c-0.503,12.927,3.347,23.638,15.75,20.25C461.502,356.842,456.729,348.202,451.027,342.865z"/>
<path fill-rule="evenodd" clip-rule="evenodd" fill="#F8E4EF" stroke="#000000" stroke-width="0.75" stroke-linecap="square" stroke-miterlimit="10" d="  M462.277,351.865c-4.158-3.296-8.416-4.747-11.25-9c5.604,12.292,15.794,23.792,29.25,18.75  C475.153,357.099,468.946,353.83,462.277,351.865z"/>
<path fill-rule="evenodd" clip-rule="evenodd" fill="#FFFFFF" stroke="#000000" stroke-width="0.75" stroke-linecap="square" stroke-miterlimit="10" d="  M409.775,363.115c-1.174,4.522,0.028,10.234-1.5,14.25c8.148-8.737,79.196-9.169,92.252-5.25c-0.354-1-0.104-1.75,0.75-2.25  C493.427,350.344,430.952,352.564,409.775,363.115z"/>
<path fill-rule="evenodd" clip-rule="evenodd" fill="#E61324" stroke="#000000" stroke-width="0.75" stroke-linecap="square" stroke-miterlimit="10" d="  M415.777,364.615C408.342,365.077,408.349,365.077,415.777,364.615L415.777,364.615z"/>
<path fill-rule="evenodd" clip-rule="evenodd" fill="#E61324" stroke="#000000" stroke-width="0.75" stroke-linecap="square" stroke-miterlimit="10" d="  M426.277,368.365c-1.641-0.039-1.56,3.654-5.25,2.25C420.763,362.046,423.487,368.298,426.277,368.365z"/>
<path fill-rule="evenodd" clip-rule="evenodd" fill="#E61324" stroke="#000000" stroke-width="0.75" stroke-linecap="square" stroke-miterlimit="10" d="  M442.027,369.115c-1.522-0.149-1.759,4.234-5.25,0.75c0-0.75,0-1.5,0-2.25C440.911,364.625,440.475,368.962,442.027,369.115z"/>
<path fill-rule="evenodd" clip-rule="evenodd" fill="#E61324" stroke="#000000" stroke-width="0.75" stroke-linecap="square" stroke-miterlimit="10" d="  M452.527,364.615C448.981,363.91,448.596,363.833,452.527,364.615L452.527,364.615z"/>
<path fill-rule="evenodd" clip-rule="evenodd" fill="#E61324" stroke="#000000" stroke-width="0.75" stroke-linecap="square" stroke-miterlimit="10" d="  M464.527,367.615C456.744,366.883,457.097,366.917,464.527,367.615L464.527,367.615z"/>
<path fill-rule="evenodd" clip-rule="evenodd" fill="#E61324" stroke="#000000" stroke-width="0.75" stroke-linecap="square" stroke-miterlimit="10" d="  M477.277,366.115C470.861,366.376,470.633,366.386,477.277,366.115L477.277,366.115z"/>
<path fill-rule="evenodd" clip-rule="evenodd" fill="#E61324" stroke="#000000" stroke-width="0.75" stroke-linecap="square" stroke-miterlimit="10" d="  M485.527,357.115C477.658,356.524,477.446,356.508,485.527,357.115L485.527,357.115z"/>
<path fill-rule="evenodd" clip-rule="evenodd" fill="#E61324" stroke="#000000" stroke-width="0.75" stroke-linecap="square" stroke-miterlimit="10" d="  M499.027,363.115C491.363,361.908,491.863,361.987,499.027,363.115L499.027,363.115z"/>
<path fill-rule="evenodd" clip-rule="evenodd" fill="#E61324" stroke="#000000" stroke-width="0.75" stroke-linecap="square" stroke-miterlimit="10" d="  M432.277,362.365c-1.813,0.128-2.21,4.632-3.75,0C431.481,357.701,430.342,362.501,432.277,362.365z"/>
</svg>