<svg xmlns="http://www.w3.org/2000/svg" xmlns:xlink="http://www.w3.org/1999/xlink" version="1.1" id="Layer_1" x="0px" y="0px" enable-background="new 0 0 822.05 841.89" xml:space="preserve" viewBox="346.92 332.45 124.45 177.7">
<path fill-rule="evenodd" clip-rule="evenodd" fill="#CCCCCA" stroke="#000000" stroke-width="1.25" stroke-linecap="square" stroke-miterlimit="10" d="  M467.125,498.265c-8.74,14-100.598,15.161-112.5,2.25c-9.483-10.287-9.14-144.449-0.75-156c10.176-14.01,101.219-15.616,113.25-2.25  c8.154,9.059,0,61.87,0,73.638C467.125,443.357,467.125,470.811,467.125,498.265z"/>
<path fill-rule="evenodd" clip-rule="evenodd" fill="#128080" d="M449.875,370.765c-8.367,10.697-91.228,19.082-80.25-11.25  C373.946,347.576,457.639,338.849,449.875,370.765z"/>
<path fill="none" stroke="#000000" stroke-width="1.25" stroke-linecap="square" stroke-miterlimit="10" d="M449.875,370.765  c-8.367,10.697-91.228,19.082-80.25-11.25C373.946,347.576,457.639,338.849,449.875,370.765z"/>
<path fill-rule="evenodd" clip-rule="evenodd" fill="#FFFFFF" stroke="#000000" stroke-width="0.5" stroke-linecap="square" stroke-miterlimit="10" d="  M392.125,402.265C345.602,414.927,402.587,361.916,392.125,402.265L392.125,402.265z"/>
<path fill-rule="evenodd" clip-rule="evenodd" fill="#FFFFFF" stroke="#000000" stroke-width="0.5" stroke-linecap="square" stroke-miterlimit="10" d="  M444.625,402.265C396.593,415.503,454.982,361.474,444.625,402.265L444.625,402.265z"/>
<path fill-rule="evenodd" clip-rule="evenodd" fill="#FFFFFF" stroke="#000000" stroke-width="0.5" stroke-linecap="square" stroke-miterlimit="10" d="  M418.375,402.265C370.343,415.503,428.732,361.474,418.375,402.265L418.375,402.265z"/>
<path fill-rule="evenodd" clip-rule="evenodd" fill="#FFFFFF" stroke="#000000" stroke-width="0.5" stroke-linecap="square" stroke-miterlimit="10" d="  M392.125,422.515C345.602,435.177,402.587,382.166,392.125,422.515L392.125,422.515z"/>
<path fill-rule="evenodd" clip-rule="evenodd" fill="#FFFFFF" stroke="#000000" stroke-width="0.5" stroke-linecap="square" stroke-miterlimit="10" d="  M444.625,422.515C396.593,435.753,454.982,381.724,444.625,422.515L444.625,422.515z"/>
<path fill-rule="evenodd" clip-rule="evenodd" fill="#FFFFFF" stroke="#000000" stroke-width="0.5" stroke-linecap="square" stroke-miterlimit="10" d="  M418.375,422.515C370.343,435.753,428.732,381.724,418.375,422.515L418.375,422.515z"/>
<path fill-rule="evenodd" clip-rule="evenodd" fill="#FFFFFF" stroke="#000000" stroke-width="0.5" stroke-linecap="square" stroke-miterlimit="10" d="  M392.125,442.765C345.602,455.427,402.587,402.416,392.125,442.765L392.125,442.765z"/>
<path fill-rule="evenodd" clip-rule="evenodd" fill="#FFFFFF" stroke="#000000" stroke-width="0.5" stroke-linecap="square" stroke-miterlimit="10" d="  M444.625,442.765C396.593,456.003,454.982,401.974,444.625,442.765L444.625,442.765z"/>
<path fill-rule="evenodd" clip-rule="evenodd" fill="#FFFFFF" stroke="#000000" stroke-width="0.5" stroke-linecap="square" stroke-miterlimit="10" d="  M418.375,442.765C370.343,456.003,428.732,401.974,418.375,442.765L418.375,442.765z"/>
<path fill-rule="evenodd" clip-rule="evenodd" fill="#F7F73D" stroke="#000000" stroke-width="0.5" stroke-linecap="square" stroke-miterlimit="10" d="  M392.125,464.515C344.093,477.753,402.482,423.724,392.125,464.515L392.125,464.515z"/>
<path fill-rule="evenodd" clip-rule="evenodd" fill="#F7F73D" stroke="#000000" stroke-width="0.5" stroke-linecap="square" stroke-miterlimit="10" d="  M443.875,464.515C395.843,477.753,454.232,423.724,443.875,464.515L443.875,464.515z"/>
<path fill-rule="evenodd" clip-rule="evenodd" fill="#F7F73D" stroke="#000000" stroke-width="0.5" stroke-linecap="square" stroke-miterlimit="10" d="  M417.625,464.515C369.593,477.753,427.982,423.724,417.625,464.515L417.625,464.515z"/>
<path fill-rule="evenodd" clip-rule="evenodd" fill="#F7F73D" stroke="#000000" stroke-width="0.5" stroke-linecap="square" stroke-miterlimit="10" d="  M392.125,484.015C347.718,496.301,399.637,445.156,392.125,484.015L392.125,484.015z"/>
<path fill-rule="evenodd" clip-rule="evenodd" fill="#F8180C" stroke="#000000" stroke-width="0.5" stroke-linecap="square" stroke-miterlimit="10" d="  M444.625,484.015c-4.288,0-63.932,2.533-45-13.5C410.19,461.568,448.379,465.598,444.625,484.015z"/>
<path fill-rule="evenodd" clip-rule="evenodd" d="M384.625,390.265c0,3,0,6,0,9c-0.997-0.696-5.772-5.157-5.25-4.5  C379.878,390.356,383.436,392.463,384.625,390.265z"/>
<path fill-rule="evenodd" clip-rule="evenodd" d="M410.877,399.265c-2.5,0-5.001,0-7.502,0c0.708-2.219,3.281-5.558,4.5-6.75  c-0.579-0.72-3.528,1.213-4.5,0.75C411.778,389.986,408.669,394.997,410.877,399.265z"/>
<path fill-rule="evenodd" clip-rule="evenodd" d="M434.125,393.265c0.635,0.248,8.898,0.86-2.25,3.75  c3.036-0.328,2.03,0.003,4.5,0.75C435.997,396.081,434.386,390.896,434.125,393.265z"/>
<path fill-rule="evenodd" clip-rule="evenodd" d="M382.375,418.015c0.024-0.117-6.283-3.206,2.25-7.5  C386.937,418.994,382.785,417.259,382.375,418.015z M382.375,415.765C380.564,413.955,380.564,413.955,382.375,415.765  L382.375,415.765z"/>
<path fill-rule="evenodd" clip-rule="evenodd" d="M404.875,410.515c2.939,1.591,5.296-2.649,5.252,2.25  c0.415-0.602-4.668,1.071-3.752,0.75c-0.112-0.31,4.072,2.243,4.502,3c-4.525,3.438-4.065,0.188-7.502,0.75  c0.85,0.092,4.187,0.275,4.5,0c0-0.75,0-1.5,0-2.25C403.351,416.445,405.086,414.146,404.875,410.515z"/>
<path fill-rule="evenodd" clip-rule="evenodd" d="M438.625,412.765c-0.291,1.01-6.917-1.855-3.75,0.75  c1.926-3.165,4.124,4.86,3.75,4.5C426.008,412.833,436.341,414.771,438.625,412.765z M434.125,416.515  C436.674,416.137,437.222,416.056,434.125,416.515L434.125,416.515z"/>
<path fill-rule="evenodd" clip-rule="evenodd" d="M378.625,431.515c2.25,0,4.5,0,6.75,0c-1.25,4.054-2.643,6.233-5.25,8.25  C384.196,432.616,380.522,434.881,378.625,431.515z"/>
<path fill-rule="evenodd" clip-rule="evenodd" d="M404.875,435.265C407.93,436.028,412.445,437.156,404.875,435.265L404.875,435.265  z M405.625,437.515C408.237,436.915,408.66,436.817,405.625,437.515L405.625,437.515z M405.625,433.765  C408.462,433.549,408.439,433.55,405.625,433.765L405.625,433.765z"/>
<path fill-rule="evenodd" clip-rule="evenodd" d="M431.875,437.515c0.509-1.426,6.428,2.862,3.75-0.75  c-2.009,3.136-4.048-4.803-3.75-4.5C444.5,437.903,434.203,435.568,431.875,437.515z M436.375,433.765  C433.826,434.143,433.278,434.224,436.375,433.765L436.375,433.765z"/>
<path fill-rule="evenodd" clip-rule="evenodd" d="M416.875,474.265c4.402,0.993,6.983-2.303,8.25,2.25  C420.968,477.602,417.353,474.373,416.875,474.265z M416.875,478.015c4.402,0.993,6.983-2.303,8.25,2.25  C420.968,481.352,417.353,478.123,416.875,478.015z"/>
<path fill-rule="evenodd" clip-rule="evenodd" d="M406.375,456.265c2.654,1.242,4.853-2.314,4.502,2.25  C406.648,459.759,407.599,456.837,406.375,456.265z"/>
<path fill-rule="evenodd" clip-rule="evenodd" d="M377.125,456.265c3.26,0.027,3.583-1.453,5.25-3c1.447,4.684,1.535,1.229,3,5.25  c-1.514,1.439-3.799,1.553-5.25,3C379.284,458.938,378.765,457.457,377.125,456.265z"/>
<path fill-rule="evenodd" clip-rule="evenodd" d="M386.125,472.765c-0.593,0.733-4.156,7.214-8.25,8.25  C380.625,478.265,383.375,475.515,386.125,472.765z"/>
<path fill-rule="evenodd" clip-rule="evenodd" d="M434.125,454.015c1.435,2.394,2.271,2.14,4.5,3.75  c-4.62,2.596-0.407-2.433-0.75,2.25c-3.383,0.115-2.602-0.083-6,0c0.899-4.567,3.138-0.065-0.75-2.25  C433.813,456.916,433.252,456.661,434.125,454.015z"/>
</svg>