<svg xmlns="http://www.w3.org/2000/svg" xmlns:xlink="http://www.w3.org/1999/xlink" version="1.1" id="Layer_1" x="0px" y="0px" enable-background="new 0 0 822.05 841.89" xml:space="preserve" viewBox="345.75 339.64 130.75 164.42">
<path fill-rule="evenodd" clip-rule="evenodd" fill="#FFFFFF" stroke="#000000" stroke-linecap="square" stroke-miterlimit="10" d="  M476,502.39c-14.877,0-112.5,4.431-112.5-3.976c0-26.53,0-53.061,0-79.592c0-11.522-7.875-63.749,0-72.433  c8.012-8.834,112.5,1.669,112.5,3.976C476,401.041,476,451.715,476,502.39z"/>
<path fill-rule="evenodd" clip-rule="evenodd" fill="#FFFFFF" stroke="#000000" stroke-linecap="square" stroke-miterlimit="10" d="  M471.5,497.89c-15.194,0-114,4.616-114-4.137c0-26.928,0-53.855,0-80.783c0-9.822-6.796-55.43,0-62.831  c8.247-8.98,114,1.577,114,4.137C471.5,402.148,471.5,450.019,471.5,497.89z"/>
<path fill-rule="evenodd" clip-rule="evenodd" fill="#FFFFFF" stroke="#000000" stroke-linecap="square" stroke-miterlimit="10" d="  M460.25,492.64c21.059-21.853,12.769-73.704,11.806-101.639c-1.123-32.567,5.266-37.861-28.442-37.861c-29.954,0-59.909,0-89.863,0  c6.904,35.817,21.029,110.356-7.5,139.5C384.25,492.64,422.25,492.64,460.25,492.64z"/>
<path fill-rule="evenodd" clip-rule="evenodd" d="M427.25,362.89c-0.173-1.814-5.151-3.078,0-6.75  C430.733,359.371,427.115,361.474,427.25,362.89z"/>
<path fill-rule="evenodd" clip-rule="evenodd" d="M399.5,362.89c0.135-1.416-3.483-3.519,0-6.75  C404.651,359.812,399.673,361.076,399.5,362.89z"/>
<path fill-rule="evenodd" clip-rule="evenodd" d="M454.25,362.89c0-1.709-3.53-3.476,0-6.75  C457.78,359.415,454.25,361.181,454.25,362.89z"/>
<path fill-rule="evenodd" clip-rule="evenodd" d="M372.5,362.89c0-1.709-3.53-3.476,0-6.75  C376.03,359.415,372.5,361.181,372.5,362.89z"/>
<path fill-rule="evenodd" clip-rule="evenodd" d="M372.5,339.64c-6.305,8.781-5.891,16.508,2.25,19.5  c-0.612-0.665-0.862-1.415-0.75-2.25c-4.798-6.928-6.968-11.465,2.25-11.25C375.856,342.205,373.792,341.936,372.5,339.64z"/>
<path fill-rule="evenodd" clip-rule="evenodd" d="M398.75,339.64c-4.793,7.993-5.791,15.164,1.5,21c0.724-0.888,0.974-1.888,0.75-3  c-4.663-7.248-7.472-11.192,2.25-12.75C402.781,341.522,399.531,341.042,398.75,339.64z"/>
<path fill-rule="evenodd" clip-rule="evenodd" d="M427.25,339.64c-6.228,8.833-6.043,16.66,2.25,19.5  c-5.95-7.701-7.549-12.156,1.5-14.25C430.762,343.442,427.242,339.537,427.25,339.64z"/>
<path fill-rule="evenodd" clip-rule="evenodd" d="M454.25,339.64c-6.228,8.833-6.043,16.66,2.25,19.5  c-0.611-0.665-0.861-1.415-0.75-2.25c-4.77-7.345-6.451-9.823,2.25-12C457.762,343.442,454.242,339.537,454.25,339.64z"/>
<path fill-rule="evenodd" clip-rule="evenodd" d="M422,380.89c0,11.636,6.801,50.8,0,59.25c-18.061,22.44-16.5-35.591-16.5-39  c-5.358,4.645-11.944,4.575-17.25,8.25C385.659,395.082,408.089,378.945,422,380.89z"/>
<path fill-rule="evenodd" clip-rule="evenodd" d="M394.25,461.89c7.974,7.07,4.625,20.998-7.5,10.5  C396.891,476.435,391.624,470.095,394.25,461.89z"/>
<path fill-rule="evenodd" clip-rule="evenodd" d="M413.002,476.89c-7.605,0.584-12.174,1.192-11.252-10.5c1.25,0,2.5,0,3.75,0  c1.228,0.893-0.806,5.793,0.75,7.5c0.75,0,1.5,0,2.25,0c0.335-1.422,0.116-6.58,0.752-7.5c1.25,0,2.5,0,3.75,0  C413.002,469.89,413.002,473.39,413.002,476.89z"/>
<path fill-rule="evenodd" clip-rule="evenodd" d="M416,461.89c0.354,1.468,5.89,7.128,3.75,15c-1.25,0-2.5,0-3.75,0  C416,471.9,416.214,466.875,416,461.89z"/>
<path fill-rule="evenodd" clip-rule="evenodd" d="M422,466.39c4.617,0.678,6.795,1.314,6.75,7.5c0.75-2.5,1.5-5,2.25-7.5  c1.25,0,2.5,0,3.75,0c-5.134,11.16-5.06,10.092-12,15C428.289,476.925,422.195,474.935,422,466.39z"/>
</svg>