<svg xmlns="http://www.w3.org/2000/svg" xmlns:xlink="http://www.w3.org/1999/xlink" version="1.1" id="Layer_1" x="0px" y="0px" enable-background="new 0 0 822.05 841.89" xml:space="preserve" viewBox="317.83 336.49 189.38 170.45">
<path fill-rule="evenodd" clip-rule="evenodd" fill="#134A1C" stroke="#000000" stroke-width="1.25" stroke-linecap="square" stroke-miterlimit="10" d="  M360.457,425.242c2.043,16.959,12.952,22.56,26.25,25.5C370.485,451.329,351.556,432.468,360.457,425.242z"/>
<path fill-rule="evenodd" clip-rule="evenodd" fill="#134A1C" stroke="#000000" stroke-width="1.25" stroke-linecap="square" stroke-miterlimit="10" d="  M390.457,449.242c-2.489-0.474-6.923,1.14-10.5-1.5C384.837,444.628,386.567,448.501,390.457,449.242z"/>
<path fill-rule="evenodd" clip-rule="evenodd" fill="#134A1C" stroke="#000000" stroke-width="1.25" stroke-linecap="square" stroke-miterlimit="10" d="  M366.457,433.492C349.113,404.101,348.812,441.921,366.457,433.492L366.457,433.492z"/>
<path fill-rule="evenodd" clip-rule="evenodd" fill="#134A1C" stroke="#000000" stroke-width="1.25" stroke-linecap="square" stroke-miterlimit="10" d="  M360.457,501.742c7.4-0.17,10.556-3.737,15.75,3C365.084,508.414,362.497,504.916,360.457,501.742z"/>
<path fill-rule="evenodd" clip-rule="evenodd" fill="#134A1C" stroke="#000000" stroke-width="1.25" stroke-linecap="square" stroke-miterlimit="10" d="  M340.957,480.742c3.503-7.771,8.333-15.235,12.75-22.5c6.025,20.897-20.003,28.232-35.25,30  C325.936,485.749,333.376,482.901,340.957,480.742z"/>
<path fill-rule="evenodd" clip-rule="evenodd" fill="#134A1C" stroke="#000000" stroke-width="1.25" stroke-linecap="square" stroke-miterlimit="10" d="  M319.957,488.242c2.85,6.259,7.477,8.289,3.75,15C316.924,495.916,319.561,490.892,319.957,488.242z"/>
<path fill-rule="evenodd" clip-rule="evenodd" fill="#134A1C" stroke="#000000" stroke-width="1.25" stroke-linecap="square" stroke-miterlimit="10" d="  M365.707,476.992c-1.005,8.806-3.995,19.874-6.75,25.5c3.451-11.57,4.595-23.431-2.25-33  C361.719,469.852,362.88,472.782,365.707,476.992z"/>
<path fill-rule="evenodd" clip-rule="evenodd" fill="#134A1C" stroke="#000000" stroke-width="1.25" stroke-linecap="square" stroke-miterlimit="10" d="  M361.957,453.742c7.204-33.906-21.058-43.271-19.5-0.75C348.469,453.223,356.177,455.176,361.957,453.742z M361.957,458.242  c-17.787-15.03-35.537,15.409-13.5,24c1.25-4.5,2.5-9,3.75-13.5c1.75,3.5,3.5,7,5.25,10.5  C368.467,474.648,369.495,467.512,361.957,458.242z"/>
<path fill-rule="evenodd" clip-rule="evenodd" fill="#EED5B6" stroke="#000000" stroke-width="1.25" stroke-linecap="square" stroke-miterlimit="10" d="  M359.707,404.992c3.02,16.509-13.42,19.146-19.5,3.75C347.082,408.708,353.283,405.229,359.707,404.992z"/>
<path fill-rule="evenodd" clip-rule="evenodd" fill="#134A1C" stroke="#000000" stroke-width="1.25" stroke-linecap="square" stroke-miterlimit="10" d="  M339.457,407.242c10.125-0.062,20.566-2.425,28.5-7.5C356.709,397.41,345.293,394.158,339.457,407.242z"/>
<path fill-rule="evenodd" clip-rule="evenodd" fill="#134A1C" stroke="#000000" stroke-width="1.25" stroke-linecap="square" stroke-miterlimit="10" d="  M348.457,425.992c-16.84,5.615-19.286,17.245-18.75,31.5C325.528,441.803,337.735,419.381,348.457,425.992z"/>
<path fill-rule="evenodd" clip-rule="evenodd" fill="#134A1C" stroke="#000000" stroke-width="1.25" stroke-linecap="square" stroke-miterlimit="10" d="  M331.957,464.992c-0.263-2.694-3.233-6.158-1.5-10.5C334.675,457.557,331.529,460.604,331.957,464.992z"/>
<path fill-rule="evenodd" clip-rule="evenodd" fill="#134A1C" stroke="#000000" stroke-width="1.25" stroke-linecap="square" stroke-miterlimit="10" d="  M339.457,434.992C370.428,420.096,333.258,415.863,339.457,434.992L339.457,434.992z"/>
<path fill-rule="evenodd" clip-rule="evenodd" fill="#134A1C" d="M342.457,458.242c3.311,4.981,1.711,9.115,9.75,10.5  C348.957,465.242,345.707,461.742,342.457,458.242z"/>
<path fill="none" stroke="#000000" stroke-width="1.25" stroke-linecap="square" stroke-miterlimit="10" d="M342.457,458.242  c0.412,5.766,3.92,9.496,9.75,10.5"/>
<path fill-rule="evenodd" clip-rule="evenodd" d="M420.459,464.992c-14.25-0.25-28.501-0.5-42.752-0.75  c-7.5,37.408,47.483-4.758,42.752,28.5c14.5-7,29-14,43.5-21c-14.25-6.25-28.5-12.5-42.75-18.75  C420.959,456.992,420.709,460.992,420.459,464.992z"/>
<path fill-rule="evenodd" clip-rule="evenodd" fill="#FFFFFF" stroke="#000000" stroke-linecap="square" stroke-miterlimit="10" d="  M439.959,388.492c0.377,42.649,66.267,42.39,66.75,0C507.2,345.395,439.757,345.129,439.959,388.492z"/>
<path fill-rule="evenodd" clip-rule="evenodd" fill="#FFFFFF" d="M472.959,411.742v6.75V411.742z"/>
<line fill="none" stroke="#000000" stroke-linecap="square" stroke-miterlimit="10" x1="472.959" y1="411.742" x2="472.959" y2="418.492"/>
<path fill-rule="evenodd" clip-rule="evenodd" fill="#FFFFFF" d="M448.959,388.492h-6H448.959z"/>
<line fill="none" stroke="#000000" stroke-linecap="square" stroke-miterlimit="10" x1="448.959" y1="388.492" x2="442.959" y2="388.492"/>
<path fill-rule="evenodd" clip-rule="evenodd" fill="#FFFFFF" d="M503.709,388.492h-6.75H503.709z"/>
<line fill="none" stroke="#000000" stroke-linecap="square" stroke-miterlimit="10" x1="503.709" y1="388.492" x2="496.959" y2="388.492"/>
<path fill-rule="evenodd" clip-rule="evenodd" fill="#FFFFFF" d="M456.459,404.992l-4.5,4.5L456.459,404.992z"/>
<line fill="none" stroke="#000000" stroke-linecap="square" stroke-miterlimit="10" x1="456.459" y1="404.992" x2="451.959" y2="409.492"/>
<path fill-rule="evenodd" clip-rule="evenodd" fill="#FFFFFF" d="M494.709,366.742l-4.5,4.5L494.709,366.742z"/>
<line fill="none" stroke="#000000" stroke-linecap="square" stroke-miterlimit="10" x1="494.709" y1="366.742" x2="490.209" y2="371.242"/>
<path fill-rule="evenodd" clip-rule="evenodd" fill="#FFFFFF" d="M494.709,409.492l-4.5-4.5L494.709,409.492z"/>
<line fill="none" stroke="#000000" stroke-linecap="square" stroke-miterlimit="10" x1="494.709" y1="409.492" x2="490.209" y2="404.992"/>
<path fill-rule="evenodd" clip-rule="evenodd" stroke="#000000" stroke-linecap="square" stroke-miterlimit="10" d="  M469.959,360.742C477.643,361.463,477.9,361.487,469.959,360.742L469.959,360.742z"/>
<path fill-rule="evenodd" clip-rule="evenodd" stroke="#000000" stroke-linecap="square" stroke-miterlimit="10" d="  M473.709,368.242c2.302,6.433,1.542,14.905,2.25,21.75c-1.75-0.25-3.5-0.5-5.25-0.75  C471.709,382.243,472.608,375.225,473.709,368.242z"/>
<path fill-rule="evenodd" clip-rule="evenodd" stroke="#000000" stroke-linecap="square" stroke-miterlimit="10" d="  M469.959,388.492C477.353,387.728,477.267,387.737,469.959,388.492L469.959,388.492z"/>
<path fill-rule="evenodd" clip-rule="evenodd" fill="#D12327" stroke="#000000" stroke-width="0.5" stroke-linecap="square" stroke-miterlimit="10" d="  M451.959,368.992C459.729,369.426,459.735,369.427,451.959,368.992L451.959,368.992z"/>
<path fill-rule="evenodd" clip-rule="evenodd" fill="#D12327" stroke="#000000" stroke-width="0.5" stroke-linecap="square" stroke-miterlimit="10" d="  M451.209,345.742c3.75-3,7.5-6,11.25-9c1,1.25,2,2.5,3,3.75c-1.842,3.038-8.256,12.009-8.25,12  c-4.553,1.986-10.805,3.186-15.75,3.75C444.561,345.443,450.267,346.174,451.209,345.742z"/>
</svg>