<svg xmlns="http://www.w3.org/2000/svg" xmlns:xlink="http://www.w3.org/1999/xlink" version="1.1" id="Layer_1" x="0px" y="0px" enable-background="new 0 0 822.05 841.89" xml:space="preserve" viewBox="314.26 344.35 192.87 154.03">
<path fill-rule="evenodd" clip-rule="evenodd" fill="#B77539" stroke="#000000" stroke-width="1.25" stroke-linecap="square" stroke-miterlimit="10" d="  M484.387,380.515c11.449,12.717,24.478,34.148,21.75,49.5c-9.525-22.297-20-38.151-34.5-58.5  C476.281,373.935,480.192,377.265,484.387,380.515z"/>
<path fill-rule="evenodd" clip-rule="evenodd" fill="#B77539" stroke="#000000" stroke-width="1.25" stroke-linecap="square" stroke-miterlimit="10" d="  M495.637,454.015c0.483-21.575,6.016-64.676-14.25-79.875c-17.476-13.106-22.895-34.086-47.25-28.125  c-9.22,2.257-39.469,27.042-43.502,37.125c-11.732,29.331-27.434-24.407-27-33.375c-12.967-0.84-50.43-6.14-43.5,15.75  c2.571,8.122,29.99,18.228,37.125,34.875c11.74,27.394,41.562,6.377,44.25,38.625c1.31,15.716,9.148,46.761-7.125,54  c22.465,11.036,16.45-50.769,18-65.25c2.472,15.277,14.754,58.49,0.75,68.25c32.306,15.065-11.798-72.88,23.252-69.375  c25.66,2.566,37.506-19.764,47.25,17.625c3.627,13.918,3.821,39.107-9.75,46.5c13.422,6.413,14.497-9.75,17.25-21  c0.938,9.517-1.482,18.944-6,26.25C500.508,496.993,497.749,464.608,495.637,454.015z"/>
<path fill="none" stroke="#000000" stroke-width="1.25" stroke-linecap="square" stroke-miterlimit="10" d="M482.887,443.515  c2.648,10.151,5.53,18.326,8.25,27"/>
<path fill="none" stroke="#000000" stroke-width="1.25" stroke-linecap="square" stroke-miterlimit="10" d="M400.385,414.265  c2.493,5.319,7.127,10.733,12,14.25"/>
<path fill="none" stroke="#000000" stroke-width="1.25" stroke-linecap="square" stroke-miterlimit="10" d="M458.887,419.515  c4.905-5.786,7.988-12.701,9-20.25"/>
<path fill-rule="evenodd" clip-rule="evenodd" fill="#FFFFFF" d="M362.885,355.765C359.749,359.908,359.596,360.109,362.885,355.765  L362.885,355.765z"/>
<path fill="none" stroke="#000000" stroke-width="1.25" stroke-linecap="square" stroke-miterlimit="10" d="M362.885,355.765  c-0.579,1.553-1.579,2.803-3,3.75"/>
<path fill-rule="evenodd" clip-rule="evenodd" fill="#F11241" stroke="#000000" stroke-width="1.25" stroke-linecap="square" stroke-miterlimit="10" d="  M365.135,366.265c-13.11,2.323-25.084-2.572-27.75-12.75c-2.306,4.734-4.674,13.145-6.75,18c0.754,1.344,8.155,9.388,9.75,10.5  C344.904,370.951,358.934,366,365.135,366.265z M339.635,378.265c-6.006-10.863-2.458-14.616,9.75-11.25  C346.299,370.765,343.237,375.021,339.635,378.265z"/>
<path fill-rule="evenodd" clip-rule="evenodd" fill="#F1D6B0" stroke="#000000" stroke-width="1.25" stroke-linecap="square" stroke-miterlimit="10" d="  M334.385,354.265c3.969,14.987-13.244,23.576-18.75,8.25C312.395,353.499,322.234,341.834,334.385,354.265z"/>
<path fill-rule="evenodd" clip-rule="evenodd" stroke="#000000" stroke-width="1.25" stroke-linecap="square" stroke-miterlimit="10" d="  M321.635,357.265c1.109-1.139,7.107,0.969-0.75-3.75C318.317,355.675,319.775,359.174,321.635,357.265z"/>
<path fill="none" stroke="#000000" stroke-width="1.25" stroke-linecap="square" stroke-miterlimit="10" d="M314.885,362.515  c5.542,2.95,11.1,2.503,15.75-1.5"/>
<path fill-rule="evenodd" clip-rule="evenodd" d="M354.635,356.515c-1.965,0-2.418,4.534-5.25,0  C352.217,351.981,352.669,356.515,354.635,356.515z"/>
</svg>