<svg xmlns="http://www.w3.org/2000/svg" xmlns:xlink="http://www.w3.org/1999/xlink" version="1.1" id="Layer_1" x="0px" y="0px" enable-background="new 0 0 822.05 841.89" xml:space="preserve" viewBox="238.61 274.73 344.95 295.99">
<path fill-rule="evenodd" clip-rule="evenodd" fill="#FFFFFF" stroke="#000000" stroke-width="2" stroke-linecap="square" stroke-miterlimit="10" d="  M242.75,549.476c42.098-54.49,84.196-108.979,126.294-163.47c26.735-34.604,51.902-76.307,91.206-98.278  c64.603-36.114,145.197,21.762,116.25,96c-7.863,20.166-36.028,57.984-62.25,53.248c-43.259-7.814-3.035-39.102,8.25-52.498  c16.937-20.105,21.134-43.65-3.75-58.5c-28.038-16.732-49.935,2.293-67.661,22.723c-48.756,56.192-97.783,112.085-147.147,167.745  c-14.704,16.579-28.433,35.623-45.817,49.53C244.768,576.662,234.073,562.345,242.75,549.476z"/>
<path fill-rule="evenodd" clip-rule="evenodd" fill="#EF3824" stroke="#000000" stroke-width="2" stroke-linecap="square" stroke-miterlimit="10" d="  M256.25,539.726c23.256,8.611,31.903-7.68,45.75-24C270.744,513.494,271.131,512.314,256.25,539.726z"/>
<path fill-rule="evenodd" clip-rule="evenodd" fill="#EF3824" stroke="#000000" stroke-width="2" stroke-linecap="square" stroke-miterlimit="10" d="  M326.75,443.726c-10.25,13-20.5,26-30.75,39c29.966,14.3,43.293-6.16,62.25-27.75C347.139,452.773,335.944,450.424,326.75,443.726z"/>
<path fill-rule="evenodd" clip-rule="evenodd" fill="#EF3824" stroke="#000000" stroke-width="2" stroke-linecap="square" stroke-miterlimit="10" d="  M344.75,418.978c13.576-2.637,27.735-6,41.625-6c18.165,0,31.395-24.959,43.875-39C383.163,373.044,374.441,382.045,344.75,418.978z  "/>
<path fill-rule="evenodd" clip-rule="evenodd" fill="#EF3824" stroke="#000000" stroke-width="2" stroke-linecap="square" stroke-miterlimit="10" d="  M399.5,346.978c17.276-7.692,34.751,0.321,50.25-3.75c10.468-2.75,19.357-17.253,33.75-21.75  C453.024,285.072,419.627,324.106,399.5,346.978z"/>
<path fill-rule="evenodd" clip-rule="evenodd" fill="#EF3824" stroke="#000000" stroke-width="2" stroke-linecap="square" stroke-miterlimit="10" d="  M515.75,275.728c13.606,14.562,7.656,24.83,10.5,40.5c2.387,13.151-4.192,3.305,3.75,18c3.587,6.636,6.838,8.531,7.5,16.5  C592.373,324.844,552.027,288.861,515.75,275.728z"/>
<path fill-rule="evenodd" clip-rule="evenodd" fill="#EF3824" stroke="#000000" stroke-width="2" stroke-linecap="square" stroke-miterlimit="10" d="  M528.5,380.728c-8.25,7-16.5,14-24.75,21c35.38,28.397,70.452,8.736,75.75-33.75C564.632,377.061,545.815,389.202,528.5,380.728z"/>
</svg>