<svg xmlns="http://www.w3.org/2000/svg" xmlns:xlink="http://www.w3.org/1999/xlink" version="1.1" id="Layer_1" x="0px" y="0px" enable-background="new 0 0 822.05 841.89" xml:space="preserve" viewBox="232.64 252.03 357.19 340.99">
<path fill-rule="evenodd" clip-rule="evenodd" fill="#FFE7A8" stroke="#000000" stroke-width="2" stroke-linecap="square" stroke-miterlimit="10" d="  M396.387,277.029c0,57.669-16.514,139.819,3.75,194.25c42.77,0.016,22.5-114.542,22.5-141.369  C422.637,311.504,431.852,254.362,396.387,277.029z"/>
<path fill-rule="evenodd" clip-rule="evenodd" fill="#867E69" stroke="#000000" stroke-width="2" stroke-linecap="square" stroke-miterlimit="10" d="  M394.887,453.279c11.805,12.246,24.797-2.631,33,3.75c9.351,7.272-7.785,59.763-4.875,72.375  c2.761,11.965,22.202,20.2,32.848,27.458c26.771,18.253-20.658,30.7-32.473,32.167c-18.156,2.254-39.561,0.075-56.625-6.75  c-22.599-9.039-0.375-24.917,9.375-34.5c3.327-3.271,10.985-6.437,12.75-9.75c8.329-15.633-0.689-10.22,0.125-26.493  C389.901,493.737,381.38,461.081,394.887,453.279z"/>
<path fill="none" stroke="#000000" stroke-width="2" stroke-linecap="square" stroke-miterlimit="10" d="M392.637,470.529  c12.218,3.322,25.131,1.362,36-5.25"/>
<path fill="none" stroke="#000000" stroke-width="2" stroke-linecap="square" stroke-miterlimit="10" d="M397.887,525.279  c7.826,3.228,16.186,2.91,24-0.75"/>
<path fill="none" stroke="#000000" stroke-width="2" stroke-linecap="square" stroke-miterlimit="10" d="M394.137,535.779  c9.93,3.511,20.619,3.156,30-1.5"/>
<path fill="none" stroke="#000000" stroke-width="2" stroke-linecap="square" stroke-miterlimit="10" d="M385.137,540.279  c13.147,10.382,32.55,14.689,45,1.5"/>
<path fill="none" stroke="#000000" stroke-width="2" stroke-linecap="square" stroke-miterlimit="10" d="M375.387,549.279  c20.461,14.405,46.804,16.381,66.75,0"/>
<path fill="none" stroke="#000000" stroke-width="2" stroke-linecap="square" stroke-miterlimit="10" d="M356.637,565.029  c33.23,15.25,74.461,18.005,105.75-3.75"/>
<path fill-rule="evenodd" clip-rule="evenodd" fill="#FFE398" stroke="#000000" stroke-width="2" stroke-linecap="square" stroke-miterlimit="10" d="  M409.137,268.779c-1.813-5.368-4.986-7.831-3-14.25C410.745,259.96,408.617,264.106,409.137,268.779z"/>
<path fill-rule="evenodd" clip-rule="evenodd" fill="#FFE7A8" stroke="#000000" stroke-width="2" stroke-linecap="square" stroke-miterlimit="10" d="  M273.387,276.279c0,58.301-15.598,138.19,3.75,193.5c43.015-0.231,22.5-113.449,22.5-140.619  C299.637,312.178,308.372,251.839,273.387,276.279z"/>
<path fill-rule="evenodd" clip-rule="evenodd" fill="#867E69" stroke="#000000" stroke-width="2" stroke-linecap="square" stroke-miterlimit="10" d="  M271.887,452.529c11.52,11.295,26.267-2.31,33,3.75c8.905,8.014-9.045,55.183-6,66.75c4.292,16.303,12.853,18.684,26.028,27.667  c30.263,20.634,2.924,32.093-20.778,36.833c-14.746,2.949-45.929,3.218-58.5-6c-19.566-14.347-8.941-18.174,7.5-34.5  c3.009-2.988,13.563-8.003,15-11.25c6.208-14.029-2.584-15.824-1.804-31.421C267.188,487.252,258.63,459.706,271.887,452.529z"/>
<path fill="none" stroke="#000000" stroke-width="2" stroke-linecap="square" stroke-miterlimit="10" d="M269.637,469.029  c11.554,4.416,24.655,2.364,35.25-4.5"/>
<path fill="none" stroke="#000000" stroke-width="2" stroke-linecap="square" stroke-miterlimit="10" d="M274.137,523.779  c8.036,4.042,16.764,3.761,24.75-0.75"/>
<path fill="none" stroke="#000000" stroke-width="2" stroke-linecap="square" stroke-miterlimit="10" d="M271.137,535.029  c10.092,3.441,20.814,2.921,30-2.25"/>
<path fill="none" stroke="#000000" stroke-width="2" stroke-linecap="square" stroke-miterlimit="10" d="M262.137,539.529  c13.843,10.155,31.415,13.791,45,1.5"/>
<path fill="none" stroke="#000000" stroke-width="2" stroke-linecap="square" stroke-miterlimit="10" d="M252.387,548.529  c20.397,13.805,47.579,16.311,66.75-0.75"/>
<path fill="none" stroke="#000000" stroke-width="2" stroke-linecap="square" stroke-miterlimit="10" d="M233.637,563.529  c32.445,18.699,74.261,15.933,105.75-3"/>
<path fill-rule="evenodd" clip-rule="evenodd" fill="#FFE398" stroke="#000000" stroke-width="2" stroke-linecap="square" stroke-miterlimit="10" d="  M286.137,267.279c-1.792-5.373-4.989-7.822-3-14.25C286.877,258.06,285.611,263.095,286.137,267.279z"/>
<path fill-rule="evenodd" clip-rule="evenodd" fill="#FFE7A8" stroke="#000000" stroke-width="2" stroke-linecap="square" stroke-miterlimit="10" d="  M521.637,279.279c0,58.301-15.598,138.19,3.75,193.5c41.941-0.746,21.75-113.934,21.75-140.619  C547.137,316.139,556.134,254.54,521.637,279.279z"/>
<path fill-rule="evenodd" clip-rule="evenodd" fill="#867E69" stroke="#000000" stroke-width="2" stroke-linecap="square" stroke-miterlimit="10" d="  M520.137,455.529c11.89,11.97,26.876-3.126,34.5,5.25c7.328,8.051-9.08,57.875-6.375,70.5c2.707,12.633,22.012,20.445,32.848,27.833  c25.995,17.725-21.116,30.839-32.473,32.167c-17.593,2.057-40.187-0.175-56.625-6.75c-22.951-9.181-0.24-24.952,9.375-34.5  c3.01-2.988,13.562-8.003,15-11.25c6.219-14.054-2.475-15.759-1.953-31.421C514.999,490.414,506.355,463.057,520.137,455.529z"/>
<path fill="none" stroke="#000000" stroke-width="2" stroke-linecap="square" stroke-miterlimit="10" d="M517.137,472.029  c11.94,4.369,25.193,2.501,36-4.5"/>
<path fill="none" stroke="#000000" stroke-width="2" stroke-linecap="square" stroke-miterlimit="10" d="M522.387,526.779  c8.021,4.015,16.742,3.725,24.75-0.75"/>
<path fill="none" stroke="#000000" stroke-width="2" stroke-linecap="square" stroke-miterlimit="10" d="M519.387,538.029  c9.9,3.254,20.53,2.819,30-1.5"/>
<path fill="none" stroke="#000000" stroke-width="2" stroke-linecap="square" stroke-miterlimit="10" d="M510.387,542.529  c13.611,10.563,31.648,13.998,45,1.5"/>
<path fill="none" stroke="#000000" stroke-width="2" stroke-linecap="square" stroke-miterlimit="10" d="M500.637,551.529  c20.402,13.808,47.566,16.322,66.75-0.75"/>
<path fill="none" stroke="#000000" stroke-width="2" stroke-linecap="square" stroke-miterlimit="10" d="M481.887,566.529  c32.531,18.749,73.444,15.796,105-3"/>
<path fill-rule="evenodd" clip-rule="evenodd" fill="#FFE398" stroke="#000000" stroke-width="2" stroke-linecap="square" stroke-miterlimit="10" d="  M534.387,270.279c-1.801-5.113-4.691-8.091-3.75-14.25C535.337,261.069,533.752,265.874,534.387,270.279z"/>
</svg>