<svg xmlns="http://www.w3.org/2000/svg" xmlns:xlink="http://www.w3.org/1999/xlink" version="1.1" id="Layer_1" x="0px" y="0px" enable-background="new 0 0 822.05 841.89" xml:space="preserve" viewBox="213.76 276.31 392.99 289.31">
<path fill-rule="evenodd" clip-rule="evenodd" fill="#0071BC" stroke="#000000" stroke-width="2" stroke-linecap="square" stroke-miterlimit="10" d="  M296.018,455.144c-25.268,20.545-50.537,41.091-75.805,61.636c-8.188,6.658-7.722,19.66,5.305,17.489  c17.316-2.886,30.689-22.2,46.5-24.375c13.492-1.855,41.683,14.146,52.125,22.5c81.33,65.063,158.061,22.535,215.627-47.25  c-40.919-17.607-81.839-35.215-122.758-52.823C392.917,421.953,322.836,449.948,296.018,455.144z"/>
<path fill-rule="evenodd" clip-rule="evenodd" fill="#0071BC" stroke="#000000" stroke-width="2" stroke-linecap="square" stroke-miterlimit="10" d="  M290.768,460.394c6.276-61.785,32.877-139.709,97.5-161.25c60.79-20.263,158.714-2.035,195.002,53.25  c22.042,33.581,24.495,73.314,21.389,112.139c-2.677,33.468-19.361,25.495-49.822,27.764c-22.304,1.66-41.683-0.24-63.816-3.402  c-38.136-5.448-71.692-13.665-107.252-27C354.136,450.783,320.136,446.075,290.768,460.394z"/>
<path fill-rule="evenodd" clip-rule="evenodd" fill="#0071BC" d="M226.268,510.644c15.062-3.23,30.975-6.083,45.75-0.75  C256.768,510.144,241.518,510.394,226.268,510.644z"/>
<path fill="none" stroke="#000000" stroke-width="2" stroke-linecap="square" stroke-miterlimit="10" d="M226.268,510.644  c15.062-3.23,30.975-6.083,45.75-0.75"/>
<path fill-rule="evenodd" clip-rule="evenodd" fill="#374BA0" stroke="#000000" stroke-width="2" stroke-linecap="square" stroke-miterlimit="10" d="  M480.52,285.644c-5.462,6.099-37.073,14.577-37.5,0C442.582,270.723,475.222,279.104,480.52,285.644z"/>
</svg>