<svg xmlns="http://www.w3.org/2000/svg" xmlns:xlink="http://www.w3.org/1999/xlink" version="1.1" id="Layer_1" x="0px" y="0px" enable-background="new 0 0 822.05 841.89" xml:space="preserve" viewBox="201.52 317.97 413.73 209.19">
<path fill-rule="evenodd" clip-rule="evenodd" fill="#474A4D" stroke="#000000" stroke-width="2" stroke-linecap="square" stroke-miterlimit="10" d="  M468,440.654c14.674-1.134,16.081-13.628,5.25-18.75C473.991,429.852,469.231,434.714,468,440.654z"/>
<path fill-rule="evenodd" clip-rule="evenodd" fill="#DCDDDE" stroke="#000000" stroke-width="2" stroke-linecap="square" stroke-miterlimit="10" d="  M411.752,327.404c47.032-8.335,99.834-15.035,146.248,3c28.086,10.914,65.608,63.42,52.5,91.5  c-14.492,31.045-66.678,27.203-96.375,19.875c-16.979-4.189-32.427-5.979-39.75-20.625c-6.338-12.675-15.36-11.158-17.625,1.5  c-12.781-4.446-44.876-10.128-52.5-24C397.563,386.486,398.409,334.672,411.752,327.404z"/>
<path fill="none" stroke="#000000" stroke-width="2" stroke-linecap="square" stroke-miterlimit="10" d="M411.002,328.154  C474.221,339.704,549,343.683,549,428.279c0,34.459-43.485,6.597-66.551-0.384c-2.547-0.771-26.367-44.342-27.199-6.741"/>
<path fill-rule="evenodd" clip-rule="evenodd" fill="#9EA2A6" stroke="#000000" stroke-width="2" stroke-linecap="square" stroke-miterlimit="10" d="  M404.25,377.654c47.183,12.868,95.188,24.198,141.75,39c-5.845-19.093-54.057-21.898-72-26.625  C460.599,386.499,407.323,365.593,404.25,377.654z"/>
<path fill-rule="evenodd" clip-rule="evenodd" fill="#7E8082" stroke="#000000" stroke-width="2" stroke-linecap="square" stroke-miterlimit="10" d="  M450.75,415.154c-23.85-4.112-12.75-50.881-12.75-69.75C464.168,342.833,451.152,397.059,450.75,415.154z"/>
<path fill-rule="evenodd" clip-rule="evenodd" fill="#BEE7FB" stroke="#000000" stroke-width="2" stroke-linecap="square" stroke-miterlimit="10" d="  M429.75,375.404c-16.855-0.85-28.094-8.284-22.5-26.25C425.96,348.049,436.558,355.986,429.75,375.404z"/>
<path fill-rule="evenodd" clip-rule="evenodd" fill="#BEE7FB" stroke="#000000" stroke-width="2" stroke-linecap="square" stroke-miterlimit="10" d="  M523.5,399.404c-25.385-6.923-47.146-3.756-41.25-35.25C509.11,370.502,529.388,366.504,523.5,399.404z"/>
<path fill-rule="evenodd" clip-rule="evenodd" fill="#BEE7FB" stroke="#000000" stroke-width="2" stroke-linecap="square" stroke-miterlimit="10" d="  M589.5,362.654c-11.25,3.5-22.5,7-33.75,10.5c9.822,28.25,18.895,20.503,42.75,12.75C595.634,378.5,593.635,369.404,589.5,362.654z"/>
<path fill-rule="evenodd" clip-rule="evenodd" fill="#8E9093" stroke="#000000" stroke-width="2" stroke-linecap="square" stroke-miterlimit="10" d="  M569.25,399.404c0.562,2.737,0.927,5.512,1.5,8.25c12.554-3.836,33.198-3.141,28.5-19.5  C589.25,391.904,579.25,395.654,569.25,399.404z"/>
<path fill="none" stroke="#000000" stroke-width="2" stroke-linecap="square" stroke-miterlimit="10" d="M608.25,411.404  c-17.5,7-35,14-52.5,21c18.577,0.349,38.864-12.49,56.25-19.5"/>
<path fill="none" stroke="#000000" stroke-width="2" stroke-linecap="square" stroke-miterlimit="10" d="M564.75,433.154  c0.574,5.909-0.984,11.759-4.5,15.75"/>
<path fill-rule="evenodd" clip-rule="evenodd" fill="#778289" stroke="#000000" stroke-width="2" stroke-linecap="square" stroke-miterlimit="10" d="  M571.5,445.154c14.25,1,28.5,2,42.75,3C608.929,423.402,584.701,431.94,571.5,445.154z"/>
<line fill="none" stroke="#000000" stroke-width="2" stroke-linecap="square" stroke-miterlimit="10" x1="612.75" y1="444.404" x2="575.25" y2="442.154"/>
<path fill-rule="evenodd" clip-rule="evenodd" fill="#778289" stroke="#000000" stroke-width="2" stroke-linecap="square" stroke-miterlimit="10" d="  M612,458.654c-1.371-3.639-2.113-17.043-0.75-24C612.181,441.985,612.331,450.782,612,458.654z"/>
<path fill-rule="evenodd" clip-rule="evenodd" fill="#474A4D" stroke="#000000" stroke-width="2" stroke-linecap="square" stroke-miterlimit="10" d="  M473.25,425.654c-0.321,15.926-13.87,20.08-15.75,2.25C455.681,410.645,468.604,410.026,473.25,425.654z"/>
<path fill-rule="evenodd" clip-rule="evenodd" fill="#BCBEC0" stroke="#000000" stroke-width="2" stroke-linecap="square" stroke-miterlimit="10" d="  M469.5,426.404C460.103,444.214,455.543,411.129,469.5,426.404L469.5,426.404z"/>
<path fill-rule="evenodd" clip-rule="evenodd" fill="#474A4D" stroke="#000000" stroke-width="2" stroke-linecap="square" stroke-miterlimit="10" d="  M403.5,460.154C425.842,460.292,415.598,422.916,403.5,460.154L403.5,460.154z"/>
<path fill-rule="evenodd" clip-rule="evenodd" fill="#DCDDDE" stroke="#000000" stroke-width="2" stroke-linecap="square" stroke-miterlimit="10" d="  M344.25,338.654c53.656-9.582,108.079-13.948,160.875,5.25c30.677,11.155,57.257,62.646,52.875,91.125  c-5.583,36.292-70.6,34.868-99.146,27.557c-19.363-4.958-38.979-6.449-47.478-23.432c-6.323-12.635-17.113-12.162-19.126,1.5  c-9.741-3.312-57-12.605-57-29.166C335.25,391.827,325.833,349.773,344.25,338.654z"/>
<path fill="none" stroke="#000000" stroke-width="2" stroke-linecap="square" stroke-miterlimit="10" d="M342.75,340.154  c33.53,5.688,81.195,4.455,110.25,25.5c20.385,14.766,42.411,59.704,38.25,84c-4.849,28.312-52.553,11.645-73.5-3.75  c-4.031-2.963-27.314-44.887-27.75-6.75"/>
<path fill-rule="evenodd" clip-rule="evenodd" fill="#9EA2A6" stroke="#000000" stroke-width="2" stroke-linecap="square" stroke-miterlimit="10" d="  M336,391.904c50.671,13.865,102.251,26.036,152.25,42c-7.242-19.227-53.903-21.807-72.299-26.707  C402.066,403.5,338.873,379.858,336,391.904z"/>
<path fill-rule="evenodd" clip-rule="evenodd" fill="#7E8082" stroke="#000000" stroke-width="2" stroke-linecap="square" stroke-miterlimit="10" d="  M386.25,433.154c-26.7-3.731-14.25-55.662-14.25-75.75C400.108,355.814,386.451,413.649,386.25,433.154z"/>
<path fill-rule="evenodd" clip-rule="evenodd" fill="#BEE7FB" stroke="#000000" stroke-width="2" stroke-linecap="square" stroke-miterlimit="10" d="  M363,389.654c-18.139-0.57-30.017-8.466-24-27.75C360.569,361.548,368.438,368.065,363,389.654z"/>
<path fill-rule="evenodd" clip-rule="evenodd" fill="#BEE7FB" stroke="#000000" stroke-width="2" stroke-linecap="square" stroke-miterlimit="10" d="  M464.25,415.904c-28.551-7.743-49.384-3.788-44.25-38.25C454.222,385.774,464.25,379.738,464.25,415.904z"/>
<path fill-rule="evenodd" clip-rule="evenodd" fill="#BEE7FB" stroke="#000000" stroke-width="2" stroke-linecap="square" stroke-miterlimit="10" d="  M534.75,376.154c-12,3.75-24,7.5-36,11.25c15.623,28.642,15.324,24.114,45.75,13.5C541.398,393.032,539.215,383.311,534.75,376.154z  "/>
<path fill-rule="evenodd" clip-rule="evenodd" fill="#8E9093" stroke="#000000" stroke-width="2" stroke-linecap="square" stroke-miterlimit="10" d="  M513,415.904c0.081,3.046,0.913,5.882,0.75,9c14.532-4.471,35.027-3.427,31.5-21C534.5,407.904,523.75,411.904,513,415.904z"/>
<path fill="none" stroke="#000000" stroke-width="2" stroke-linecap="square" stroke-miterlimit="10" d="M554.25,428.654  c-18.5,7.5-37,15-55.5,22.5c19.565,1.185,41.951-13.616,60-21"/>
<path fill="none" stroke="#000000" stroke-width="2" stroke-linecap="square" stroke-miterlimit="10" d="M508.5,451.904  c0.57,6.441-1.275,12.851-5.25,17.25"/>
<path fill-rule="evenodd" clip-rule="evenodd" fill="#778289" stroke="#000000" stroke-width="2" stroke-linecap="square" stroke-miterlimit="10" d="  M515.25,465.404c15.25,0.75,30.5,1.5,45.75,2.25C555.488,441.684,527.748,450.624,515.25,465.404z"/>
<line fill="none" stroke="#000000" stroke-width="2" stroke-linecap="square" stroke-miterlimit="10" x1="560.25" y1="464.654" x2="519" y2="461.654"/>
<path fill-rule="evenodd" clip-rule="evenodd" fill="#778289" stroke="#000000" stroke-width="2" stroke-linecap="square" stroke-miterlimit="10" d="  M558.75,479.654c-1.323-3.531-1.715-19.787,0-26.25C558.75,462.116,559.244,470.959,558.75,479.654z"/>
<path fill-rule="evenodd" clip-rule="evenodd" fill="#474A4D" stroke="#000000" stroke-width="2" stroke-linecap="square" stroke-miterlimit="10" d="  M409.5,444.404c0.01,17.224-14.322,20.583-16.5,2.25C390.813,428.248,404.982,427.377,409.5,444.404z"/>
<path fill-rule="evenodd" clip-rule="evenodd" fill="#BCBEC0" stroke="#000000" stroke-width="2" stroke-linecap="square" stroke-miterlimit="10" d="  M405.75,444.404C396.87,468.167,390.849,425.577,405.75,444.404L405.75,444.404z"/>
<path fill-rule="evenodd" clip-rule="evenodd" fill="#474A4D" stroke="#000000" stroke-width="2" stroke-linecap="square" stroke-miterlimit="10" d="  M342.75,481.904C366.471,481.525,353.159,443.071,342.75,481.904L342.75,481.904z"/>
<path fill-rule="evenodd" clip-rule="evenodd" fill="#DCDDDE" stroke="#000000" stroke-width="2" stroke-linecap="square" stroke-miterlimit="10" d="  M280.5,355.904c54.402-10.51,108.799-15.628,162.75,3c33.271,11.487,67.752,65.16,60.375,97.125  c-8.771,38.006-73.374,36.521-103.772,28.744c-19.977-5.11-40.8-6.264-49.978-24.619c-6.367-12.734-17.701-13.903-19.125,1.5  c-11.723-3.981-58.946-12.422-59.328-30.744C271.057,413.4,259.919,362.908,280.5,355.904z"/>
<path fill="none" stroke="#000000" stroke-width="2" stroke-linecap="square" stroke-miterlimit="10" d="M279,356.654  c91.01,16.335,135.939,17.449,155.625,115.875c6.315,31.578-68.861,1.835-77.625-4.875c-4.211-3.224-28.612-47.561-28.5-7.5"/>
<path fill-rule="evenodd" clip-rule="evenodd" fill="#9EA2A6" stroke="#000000" stroke-width="2" stroke-linecap="square" stroke-miterlimit="10" d="  M271.5,411.404c52.903,14.359,106.828,26.838,159,43.5c-10.398-28.898-127.995-41.902-159-50.25  C271.5,406.904,271.5,409.154,271.5,411.404z"/>
<path fill-rule="evenodd" clip-rule="evenodd" fill="#7E8082" stroke="#000000" stroke-width="2" stroke-linecap="square" stroke-miterlimit="10" d="  M324,454.154c-28.042-3.379-15-57.859-15-78.75C339.42,371.034,324.394,434.078,324,454.154z"/>
<path fill-rule="evenodd" clip-rule="evenodd" fill="#BEE7FB" stroke="#000000" stroke-width="2" stroke-linecap="square" stroke-miterlimit="10" d="  M300,409.154c-18.566-0.974-30.948-9.409-25.5-29.25C297.458,379.281,305.717,386.199,300,409.154z"/>
<path fill-rule="evenodd" clip-rule="evenodd" fill="#BEE7FB" stroke="#000000" stroke-width="2" stroke-linecap="square" stroke-miterlimit="10" d="  M405,436.154c-33.735-9.401-45.75-3.856-45.75-39.75C395.118,404.636,405,398.285,405,436.154z"/>
<path fill-rule="evenodd" clip-rule="evenodd" fill="#BEE7FB" stroke="#000000" stroke-width="2" stroke-linecap="square" stroke-miterlimit="10" d="  M479.25,394.904c-12.75,3.75-25.5,7.5-38.25,11.25c16.48,29.49,16.306,24.814,48,14.25C485.75,411.904,482.5,403.404,479.25,394.904  z"/>
<path fill-rule="evenodd" clip-rule="evenodd" fill="#8E9093" stroke="#000000" stroke-width="2" stroke-linecap="square" stroke-miterlimit="10" d="  M456,436.154c0.318,3.004,1.003,6.02,1.5,9c15.349-4.492,37.011-3.34,32.25-21.75C478.5,427.654,467.25,431.904,456,436.154z"/>
<path fill="none" stroke="#000000" stroke-width="2" stroke-linecap="square" stroke-miterlimit="10" d="M499.5,448.904  c-19.25,7.75-38.5,15.5-57.75,23.25c18.069,3.552,45.14-13.855,63-21"/>
<path fill="none" stroke="#000000" stroke-width="2" stroke-linecap="square" stroke-miterlimit="10" d="M451.5,473.654  c0.546,6.625-1.342,13.35-5.25,18"/>
<path fill-rule="evenodd" clip-rule="evenodd" fill="#778289" stroke="#000000" stroke-width="2" stroke-linecap="square" stroke-miterlimit="10" d="  M459,487.154c15.75,1,31.5,2,47.25,3C500.578,462.434,473.686,473.604,459,487.154z"/>
<line fill="none" stroke="#000000" stroke-width="2" stroke-linecap="square" stroke-miterlimit="10" x1="505.5" y1="486.404" x2="462.75" y2="483.404"/>
<path fill-rule="evenodd" clip-rule="evenodd" fill="#778289" stroke="#000000" stroke-width="2" stroke-linecap="square" stroke-miterlimit="10" d="  M504.75,502.154c-2.394-4.129-2.618-19.719-0.75-27C504.927,483.444,505.199,493.32,504.75,502.154z"/>
<path fill-rule="evenodd" clip-rule="evenodd" fill="#474A4D" stroke="#000000" stroke-width="2" stroke-linecap="square" stroke-miterlimit="10" d="  M348.75,465.404c0.796,18.516-15.795,21.149-18,2.25C328.546,448.765,344.858,447.618,348.75,465.404z"/>
<path fill-rule="evenodd" clip-rule="evenodd" fill="#BCBEC0" stroke="#000000" stroke-width="2" stroke-linecap="square" stroke-miterlimit="10" d="  M345,466.154C334.5,489.163,329.145,445.844,345,466.154L345,466.154z"/>
<path fill-rule="evenodd" clip-rule="evenodd" fill="#474A4D" stroke="#000000" stroke-width="2" stroke-linecap="square" stroke-miterlimit="10" d="  M279.75,505.154c13.554,0.395,21.829-21.75,10.125-21.75C287.153,483.404,281.995,501.088,279.75,505.154z"/>
<path fill-rule="evenodd" clip-rule="evenodd" fill="#DCDDDE" stroke="#000000" stroke-width="2" stroke-linecap="square" stroke-miterlimit="10" d="  M216,374.654c56.576-10.569,112.692-15.636,168.75,3.75c34.242,11.841,74.594,73.384,60.75,105  c-16.115,36.804-77.806,31.548-111.375,23.25c-13.629-3.369-27.279-5.135-37.875-12.75c-2.887-2.074-7.219-12.431-9.75-13.5  c-9.008-3.806-16.448-16.069-18.75,3.75c-30.948-10.316-54.79-11.197-61.5-41.25C202.533,426.257,196.973,381.518,216,374.654z"/>
<path fill="none" stroke="#000000" stroke-width="2" stroke-linecap="square" stroke-miterlimit="10" d="M214.5,375.404  c37.807,6.874,91.188,6.154,122.625,31.875c18.622,15.236,41.403,62.983,37.125,86.625c-6.123,33.839-49.461,5.228-77.673-3.204  c-0.867-0.259-32.67-51.306-31.077-8.046"/>
<path fill-rule="evenodd" clip-rule="evenodd" fill="#9EA2A6" stroke="#000000" stroke-width="2" stroke-linecap="square" stroke-miterlimit="10" d="  M207,432.404c54.387,14.855,109.899,27.676,163.5,45c-8.07-28.976-133.114-43.656-163.5-51.75C207,427.904,207,430.154,207,432.404z  "/>
<path fill-rule="evenodd" clip-rule="evenodd" fill="#7E8082" stroke="#000000" stroke-width="2" stroke-linecap="square" stroke-miterlimit="10" d="  M261,475.904c-28.156-2.859-15-60.34-15-81C276.577,391.876,261.395,455.396,261,475.904z"/>
<path fill-rule="evenodd" clip-rule="evenodd" fill="#BEE7FB" stroke="#000000" stroke-width="2" stroke-linecap="square" stroke-miterlimit="10" d="  M236.25,429.404c-18.547-5.299-33.616-5.83-26.25-30C232.05,403.691,242.993,402.781,236.25,429.404z"/>
<path fill-rule="evenodd" clip-rule="evenodd" fill="#BEE7FB" stroke="#000000" stroke-width="2" stroke-linecap="square" stroke-miterlimit="10" d="  M345,457.904c-34.9-9.815-48-4.088-48-41.25C334.502,425.444,345,418.902,345,457.904z"/>
<path fill-rule="evenodd" clip-rule="evenodd" fill="#BEE7FB" stroke="#000000" stroke-width="2" stroke-linecap="square" stroke-miterlimit="10" d="  M421.5,415.154c-13.25,4-26.5,8-39.75,12c17.197,30.096,16.88,25.65,50.25,15C428.5,433.154,425,424.154,421.5,415.154z"/>
<path fill-rule="evenodd" clip-rule="evenodd" fill="#8E9093" stroke="#000000" stroke-width="2" stroke-linecap="square" stroke-miterlimit="10" d="  M397.5,457.904c0.341,3.006,1.002,6.016,1.5,9C441.803,454.674,443.581,440.874,397.5,457.904z"/>
<path fill="none" stroke="#000000" stroke-width="2" stroke-linecap="square" stroke-miterlimit="10" d="M442.5,471.404  c-20,8-40,16-60,24c18.732,3.512,46.734-14.395,65.25-21.75"/>
<path fill="none" stroke="#000000" stroke-width="2" stroke-linecap="square" stroke-miterlimit="10" d="M392.25,496.154  c1.194,6.905-0.363,13.838-4.5,18.75"/>
<path fill-rule="evenodd" clip-rule="evenodd" fill="#778289" stroke="#000000" stroke-width="2" stroke-linecap="square" stroke-miterlimit="10" d="  M400.5,511.154c16.25,0.75,32.5,1.5,48.75,2.25C443.388,487.634,412.647,492.306,400.5,511.154z"/>
<line fill="none" stroke="#000000" stroke-width="2" stroke-linecap="square" stroke-miterlimit="10" x1="448.5" y1="509.654" x2="404.25" y2="506.654"/>
<path fill-rule="evenodd" clip-rule="evenodd" fill="#778289" stroke="#000000" stroke-width="2" stroke-linecap="square" stroke-miterlimit="10" d="  M447.75,526.154c-2.363-4.262-2.599-20.312-0.75-27.75C447.937,507.025,447.75,516.995,447.75,526.154z"/>
<path fill-rule="evenodd" clip-rule="evenodd" fill="#474A4D" stroke="#000000" stroke-width="2" stroke-linecap="square" stroke-miterlimit="10" d="  M286.5,487.904c0.982,18.834-15.475,22.451-18.75,3C264.451,471.312,282.148,469.582,286.5,487.904z"/>
<path fill-rule="evenodd" clip-rule="evenodd" fill="#BCBEC0" stroke="#000000" stroke-width="2" stroke-linecap="square" stroke-miterlimit="10" d="  M282.75,488.654C273.707,516.219,265.297,464.739,282.75,488.654L282.75,488.654z"/>
</svg>