<svg xmlns="http://www.w3.org/2000/svg" xmlns:xlink="http://www.w3.org/1999/xlink" version="1.1" id="Layer_1" x="0px" y="0px" enable-background="new 0 0 822.05 841.89" xml:space="preserve" viewBox="303.89 335.11 214.25 171.33">
<path fill-rule="evenodd" clip-rule="evenodd" fill="#993300" stroke="#000000" stroke-width="0.5" stroke-linecap="square" stroke-miterlimit="10" d="  M406.141,375.14c-10.937,5.068-24.032,12.411-32.25,11.25C384.136,382,398.675,375.22,406.141,375.14z"/>
<path fill-rule="evenodd" clip-rule="evenodd" fill="#191919" stroke="#000000" stroke-width="0.5" stroke-linecap="square" stroke-miterlimit="10" d="  M404.641,366.14c2.166,6.491,5.332,10.168,3,16.5C401.792,375.463,404.848,368.203,404.641,366.14z"/>
<path fill-rule="evenodd" clip-rule="evenodd" fill="#993300" stroke="#000000" stroke-width="0.5" stroke-linecap="square" stroke-miterlimit="10" d="  M452.641,501.14c-2.415-15.123,0.306-29.986,14.25-38.25c-0.291,6.424,2.162,13.116,1.5,19.5c14.168-18.07,13.347-59.576-18.75-54  c-0.284,14.626-0.568,29.252-0.852,43.878C448.595,482.258,442.089,508.481,452.641,501.14z"/>
<path fill-rule="evenodd" clip-rule="evenodd" fill="#993300" stroke="#000000" stroke-width="0.5" stroke-linecap="square" stroke-miterlimit="10" d="  M442.141,430.64c-0.25,14.5-0.5,29-0.75,43.5c-28.49-5.446-51,1.353-51-29.625c0-32.465-28.453-23.201-57.75-26.625  c0.647,18.34-6.688,59.167,10.5,66c-1.697-5.277,0.343-11.783-0.75-17.25c23.025,4.073,46.05,8.147,69.074,12.221  c6.433,1.139,22.984,0.963,28.426,5.029c8.516,6.364-7.941,17.843,8.25,21.75C449.083,486.981,461.895,432.957,442.141,430.64z   M385.891,463.64c-28.319-5.28-49.131,0.406-45-33.75C377.189,433.52,385.891,425.63,385.891,463.64z"/>
<path fill-rule="evenodd" clip-rule="evenodd" fill="#993300" stroke="#000000" stroke-width="0.5" stroke-linecap="square" stroke-miterlimit="10" d="  M441.391,474.14c0.136-7.895,5.52-38.119,0.75-43.5c-5.825-6.571-42.219-4.895-51.75-6  C390.391,471.859,395.12,465.294,441.391,474.14z"/>
<path fill-rule="evenodd" clip-rule="evenodd" fill="#993300" stroke="#000000" stroke-width="0.5" stroke-linecap="square" stroke-miterlimit="10" d="  M409.141,447.89C405.799,447.89,405.799,447.89,409.141,447.89L409.141,447.89z"/>
<path fill-rule="evenodd" clip-rule="evenodd" fill="#993300" stroke="#000000" stroke-width="0.5" stroke-linecap="square" stroke-miterlimit="10" d="  M516.391,406.64c3.923,14.084-1.444,26.008-15,31.5C489.345,423.067,499.971,411.67,516.391,406.64z"/>
<path fill-rule="evenodd" clip-rule="evenodd" fill="#993300" stroke="#000000" stroke-width="0.5" stroke-linecap="square" stroke-miterlimit="10" d="  M307.141,407.39c15.521,22.179,66.084,16.401,89.425,18.913c16.934,1.823,88.854,20.131,90.575-0.163  C427.141,419.89,367.141,413.64,307.141,407.39z"/>
<path fill-rule="evenodd" clip-rule="evenodd" fill="#993300" stroke="#000000" stroke-width="0.5" stroke-linecap="square" stroke-miterlimit="10" d="  M304.141,403.64c9.749,14.395,178.651,28.926,184.5,15c-32.462-3.047-64.923-6.095-97.385-9.142  C366.983,407.219,325.352,396.383,304.141,403.64z"/>
<path fill-rule="evenodd" clip-rule="evenodd" fill="#993300" stroke="#000000" stroke-width="0.5" stroke-linecap="square" stroke-miterlimit="10" d="  M500.641,405.14c-65.475-5.612-131.759-20.062-195.75-3.75c35.669,3.979,71.338,7.959,107.007,11.939  C438.097,416.252,486.107,435.316,500.641,405.14z"/>
<path fill-rule="evenodd" clip-rule="evenodd" fill="#993300" stroke="#000000" stroke-width="0.5" stroke-linecap="square" stroke-miterlimit="10" d="  M487.141,419.39c-5.229,13.388-0.086,20.678,14.25,18.75C505.781,425.47,500.55,418.263,487.141,419.39z"/>
<path fill-rule="evenodd" clip-rule="evenodd" fill="#993300" stroke="#000000" stroke-width="0.5" stroke-linecap="square" stroke-miterlimit="10" d="  M516.391,406.64c-13.432-4.592-24.821,2.395-30,15C499.714,426.172,510.609,419.422,516.391,406.64z"/>
<path fill-rule="evenodd" clip-rule="evenodd" fill="#993300" d="M493.141,435.89c-0.715-11.831,5.134-22.46,14.25-30  C502.641,415.89,497.891,425.89,493.141,435.89z"/>
<path fill="none" stroke="#000000" stroke-width="0.5" stroke-linecap="square" stroke-miterlimit="10" d="M493.141,435.89  c-0.715-11.831,5.134-22.46,14.25-30"/>
<path fill-rule="evenodd" clip-rule="evenodd" fill="#993300" stroke="#000000" stroke-width="0.5" stroke-linecap="square" stroke-miterlimit="10" d="  M515.641,447.14c-1.527-4.949-4.799-14.452,0-20.25C515.641,433.623,515.981,440.418,515.641,447.14z"/>
<path fill-rule="evenodd" clip-rule="evenodd" fill="#993300" stroke="#000000" stroke-width="0.5" stroke-linecap="square" stroke-miterlimit="10" d="  M517.891,423.14C506.947,430.467,507.127,417.245,517.891,423.14L517.891,423.14z"/>
<path fill-rule="evenodd" clip-rule="evenodd" fill="#993300" d="M415.141,428.39l-2.25,39L415.141,428.39z"/>
<line fill="none" stroke="#000000" stroke-width="0.5" stroke-linecap="square" stroke-miterlimit="10" x1="415.141" y1="428.39" x2="412.891" y2="467.39"/>
<path fill-rule="evenodd" clip-rule="evenodd" fill="#993300" stroke="#000000" stroke-width="0.5" stroke-linecap="square" stroke-miterlimit="10" d="  M421.141,449.39c-1.818,0-1.778,6.418-3.75,0C419.362,442.972,419.322,449.39,421.141,449.39z"/>
<path fill-rule="evenodd" clip-rule="evenodd" fill="#FCD2AE" stroke="#000000" stroke-width="0.5" stroke-linecap="square" stroke-miterlimit="10" d="  M368.641,382.64c-9.363,1.535-17.917,0.107-27-4.5c11.181-2.5,21.673-7.878,30-15.75c-9.47,1.802-24.441,8.866-35.25,14.25  c11.139,5.862,28.875,15.936,39,9C373.642,384.366,369.971,383.819,368.641,382.64z"/>
<path fill-rule="evenodd" clip-rule="evenodd" fill="#FFFFFF" stroke="#000000" stroke-width="0.5" stroke-linecap="square" stroke-miterlimit="10" d="  M365.641,365.39c-13.858,0.089-25.718,5.362-18,18C353.496,377.535,360.608,371.951,365.641,365.39z"/>
<path fill-rule="evenodd" clip-rule="evenodd" fill="#CC6635" stroke="#000000" stroke-width="0.5" stroke-linecap="square" stroke-miterlimit="10" d="  M336.391,402.14c16.909-12.856,91.879-12.507,109.5-1.5C423.892,426.831,366.125,405.418,336.391,402.14z"/>
<path fill-rule="evenodd" clip-rule="evenodd" stroke="#000000" stroke-width="0.5" stroke-linecap="square" stroke-miterlimit="10" d="  M358.141,371.39c9.483,4.521,20.131,7.739,30.75,8.25C379.135,381.468,365.063,377.324,358.141,371.39z"/>
<path fill-rule="evenodd" clip-rule="evenodd" fill="#FCD2AE" stroke="#000000" stroke-width="0.5" stroke-linecap="square" stroke-miterlimit="10" d="  M403.891,357.89c-14.01,19.325-37.217-1.974-19.5-19.5C389.329,346.361,395.98,353.041,403.891,357.89z"/>
<path fill-rule="evenodd" clip-rule="evenodd" fill="#101177" stroke="#000000" stroke-width="0.5" stroke-linecap="square" stroke-miterlimit="10" d="  M385.141,336.89c7.976,11.693,18.752,21.873,31.5,27.75C408.169,353.091,407.846,329.095,385.141,336.89z"/>
<path fill-rule="evenodd" clip-rule="evenodd" fill="#00003F" stroke="#000000" stroke-width="0.5" stroke-linecap="square" stroke-miterlimit="10" d="  M357.391,495.14C412.612,484.905,345.84,524.493,357.391,495.14L357.391,495.14z"/>
<path fill-rule="evenodd" clip-rule="evenodd" fill="#FCD2AE" stroke="#000000" stroke-width="0.5" stroke-linecap="square" stroke-miterlimit="10" d="  M370.141,451.64c-5.873-12.194-9.951-25.781-13.5-39c-1.5,0.25-3,0.5-4.5,0.75c13.422,35.322,9.419,50.354,10.5,87  C366.913,486.501,367.624,467.348,370.141,451.64z"/>
<path fill-rule="evenodd" clip-rule="evenodd" fill="#00003F" stroke="#000000" stroke-width="0.5" stroke-linecap="square" stroke-miterlimit="10" d="  M367.141,405.89c3,12.25,6,24.5,9,36.75C338.96,460.691,323.879,388.965,367.141,405.89z"/>
<path fill-rule="evenodd" clip-rule="evenodd" fill="#00003F" stroke="#000000" stroke-width="0.5" stroke-linecap="square" stroke-miterlimit="10" d="  M343.891,477.89c7.602,8.348,10.489,18.029,5.25,25.5C340.305,494.222,329.709,481.148,343.891,477.89z"/>
<path fill-rule="evenodd" clip-rule="evenodd" fill="#FCD2AE" stroke="#000000" stroke-width="0.5" stroke-linecap="square" stroke-miterlimit="10" d="  M382.891,453.14c-9.006-9.719-17.731-21.698-25.5-33c-1.25,0.75-2.5,1.5-3.75,2.25c30.597,37.088,20.476,28.983-10.5,60.75  C355.999,476.456,369.4,462.158,382.891,453.14z"/>
<path fill-rule="evenodd" clip-rule="evenodd" fill="#00003F" d="M349.141,404.39c-10.231,23.386,2.112,55.062,29.25,39  C372.558,424.919,371.029,409.222,349.141,404.39z"/>
<path fill="none" stroke="#000000" stroke-width="0.5" stroke-linecap="square" stroke-miterlimit="10" d="M349.141,404.39  c-10.231,23.386,2.112,55.062,29.25,39c-3-9.5-6-19-9-28.5"/>
<path fill-rule="evenodd" clip-rule="evenodd" fill="#FFFFFF" stroke="#000000" stroke-width="0.5" stroke-linecap="square" stroke-miterlimit="10" d="  M340.891,402.14c-8.918-34.481,45.73-63.022,53.25-14.25c-1.97,1.27-12.275,6.145-14.25,6.75c-0.75-3.75-1.5-7.5-2.25-11.25  c0.289,7.283-3.633,15.23-4.5,22.5C363.399,401.067,351.933,400.166,340.891,402.14z"/>
<path fill-rule="evenodd" clip-rule="evenodd" fill="#101177" stroke="#000000" stroke-width="0.25" stroke-linecap="square" stroke-miterlimit="10" d="  M409.141,386.39c2.622,5.558,5.502,11.003,8.25,16.5C416.078,396.936,409.45,386.939,409.141,386.39z"/>
<path fill="none" stroke="#000000" stroke-width="0.25" stroke-linecap="square" stroke-miterlimit="10" d="M420.391,401.39  c-1.7,2.67-4.121,3.616-6.75,2.25"/>
<path fill-rule="evenodd" clip-rule="evenodd" fill="#993300" stroke="#000000" stroke-width="0.5" stroke-linecap="square" stroke-miterlimit="10" d="  M421.891,342.89c-1.179,17.753-4.357,26.297,13.523,28.758c9.815,1.351,62.27,15.531,68.977,9.492  c12.938-11.648,2.232-32.198-11.625-33.188C469.141,346.265,445.516,344.578,421.891,342.89z"/>
<path fill-rule="evenodd" clip-rule="evenodd" fill="#993300" stroke="#000000" stroke-width="0.5" stroke-linecap="square" stroke-miterlimit="10" d="  M421.141,344.39c-0.711,27.034-5.339,28.049,21.027,30.639c20.741,2.037,41.481,4.074,62.223,6.111  c0-18.963,7.062-30.241-13.008-31.688C467.969,347.765,444.555,346.078,421.141,344.39z"/>
<path fill-rule="evenodd" clip-rule="evenodd" fill="#FFFFFF" stroke="#000000" stroke-width="0.5" stroke-linecap="square" stroke-miterlimit="10" d="  M496.141,372.89c1.484-6.958,1.779-15.653,1.5-21c4.587,0.115-8.319,0.096-3.75,0c-0.291,7.04-0.291,18.327,0,25.5  C498.281,377.166,495.217,375.973,496.141,372.89z"/>
<path fill-rule="evenodd" clip-rule="evenodd" fill="#FFFFFF" stroke="#000000" stroke-width="0.5" stroke-linecap="square" stroke-miterlimit="10" d="  M449.641,360.14c0.075-3.641,0.489-7.098,0.75-9.75c-1.709,3.16-1.675-0.022-2.25,0c-0.152,3.191-0.209,7.116-0.75,11.25  C448.037,361.978,451.652,362.995,449.641,360.14z"/>
<path fill-rule="evenodd" clip-rule="evenodd" fill="#FFFFFF" stroke="#000000" stroke-width="0.5" stroke-linecap="square" stroke-miterlimit="10" d="  M460.891,363.89c0.143-5.099,0.85-9.042,0.75-12.75c-2.015,2.724-1.263,0.056-2.25,0c-0.315,4.543-0.103,11.298,0,15.75  C460.461,366.856,461.913,363.65,460.891,363.89z"/>
<path fill-rule="evenodd" clip-rule="evenodd" fill="#FFFFFF" stroke="#000000" stroke-width="0.5" stroke-linecap="square" stroke-miterlimit="10" d="  M472.891,366.89c0.911-3.988,1.771-10.779,1.5-15c0.093-0.016-3.625-0.015-3,0c-0.821,4.833-0.858,13.566,0,18.75  C474.658,370.668,472.397,369.545,472.891,366.89z"/>
<path fill-rule="evenodd" clip-rule="evenodd" fill="#FFFFFF" stroke="#000000" stroke-width="0.5" stroke-linecap="square" stroke-miterlimit="10" d="  M484.141,370.64c1.466-5.238,1.986-13.067,1.5-18c5.498,0.423-8.269,0.117-3,0c-1.01,5.9-1.104,16.276,0,21.75  C486.357,374.231,483.532,373.035,484.141,370.64z"/>
<path fill-rule="evenodd" clip-rule="evenodd" fill="#FFFFFF" stroke="#000000" stroke-width="0.5" stroke-linecap="square" stroke-miterlimit="10" d="  M428.641,369.89c-0.639-4.272-2.059-14.867,0-19.5C428.641,356.889,428.557,363.392,428.641,369.89z"/>
<path fill-rule="evenodd" clip-rule="evenodd" fill="#FFFFFF" stroke="#000000" stroke-width="0.5" stroke-linecap="square" stroke-miterlimit="10" d="  M431.641,369.89c-0.158-4.677-1.096-13.945,0-18.75C431.641,357.39,431.599,363.641,431.641,369.89z"/>
<path fill-rule="evenodd" clip-rule="evenodd" fill="#FFFFFF" stroke="#000000" stroke-width="0.5" stroke-linecap="square" stroke-miterlimit="10" d="  M438.391,366.89c-0.152-3.729-1.062-11.86,0-15.75C438.391,356.39,438.349,361.641,438.391,366.89z"/>
<path fill-rule="evenodd" clip-rule="evenodd" fill="#FFFFFF" stroke="#000000" stroke-width="0.5" stroke-linecap="square" stroke-miterlimit="10" d="  M439.891,351.14C433.917,352.287,439.34,351.246,439.891,351.14L439.891,351.14z"/>
<path fill-rule="evenodd" clip-rule="evenodd" fill="#FFFFFF" stroke="#000000" stroke-width="0.5" stroke-linecap="square" stroke-miterlimit="10" d="  M439.141,370.64C438.336,368.384,436.99,364.615,439.141,370.64L439.141,370.64z"/>
<path fill-rule="evenodd" clip-rule="evenodd" fill="#FCD2AE" stroke="#000000" stroke-width="0.5" stroke-linecap="square" stroke-miterlimit="10" d="  M413.641,392.39c-6.735,5.817-15.024,8.556-24.75,8.25c-0.822-2.601-1.245-7.744-1.5-10.5  C374.172,415.994,432.52,399.168,413.641,392.39z"/>
</svg>