<svg xmlns="http://www.w3.org/2000/svg" xmlns:xlink="http://www.w3.org/1999/xlink" version="1.1" id="Layer_1" x="0px" y="0px" enable-background="new 0 0 822.05 841.89" xml:space="preserve" viewBox="203.6 272.66 413 299.68">
<path fill-rule="evenodd" clip-rule="evenodd" fill="#F7931E" stroke="#000000" stroke-width="2" stroke-linecap="square" stroke-miterlimit="10" d="  M362.846,405.777c-15.358-13.292-1.734-45.521,18-48c13.568-1.704,21.956,11.322,30.98,20.153  c33.176,32.464,66.353,64.928,99.529,97.392c9.75,9.541,58.858,44.678,59.991,58.703c1.464,18.123-17.291,4.351-25.594-1.407  C484.783,490.337,423.814,448.057,362.846,405.777z"/>
<path fill="none" stroke="#000000" stroke-width="2" stroke-linecap="square" stroke-miterlimit="10" d="M366.596,408.777  c-2.389-7.476-0.622-14.412,5.25-19.5"/>
<path fill="none" stroke="#000000" stroke-width="2" stroke-linecap="square" stroke-miterlimit="10" d="M406.346,436.525  c-2.541-11.402,1.34-22.446,12-27.748"/>
<path fill="none" stroke="#000000" stroke-width="2" stroke-linecap="square" stroke-miterlimit="10" d="M393.596,426.025  c-2.889-11.019,3.757-19.838,14.25-24.748"/>
<path fill="none" stroke="#000000" stroke-width="2" stroke-linecap="square" stroke-miterlimit="10" d="M464.096,476.275  c-1.942-4.696-0.659-8.72,3.75-11.25"/>
<path fill="none" stroke="#000000" stroke-width="2" stroke-linecap="square" stroke-miterlimit="10" d="M463.346,429.775  c-7.501-0.553-13.185,2.828-15.75,9.75"/>
<path fill="none" stroke="#000000" stroke-width="2" stroke-linecap="square" stroke-miterlimit="10" d="M414.596,381.777  c-10.187-1.477-18.152,3.058-22.5,12.75"/>
<path fill="none" stroke="#000000" stroke-width="2" stroke-linecap="square" stroke-miterlimit="10" d="M518.846,483.025  c-3.456,0.927-6.538,2.711-9,5.25"/>
<path fill="none" stroke="#000000" stroke-width="2" stroke-linecap="square" stroke-miterlimit="10" d="M470.846,480.025  c1.579-7.006,5.701-12.493,12-15.75"/>
<path fill-rule="evenodd" clip-rule="evenodd" fill="#0DB14B" stroke="#000000" stroke-width="2" stroke-linecap="square" stroke-miterlimit="10" d="  M352.346,384.777c-27.5-10.5-55-21-82.5-31.5c3-2.75,6-5.5,9-8.25c-4.831-2.242-7.91-8.28-12.75-10.5  c13.586-9.19,27.541-26.931,35.25-3c-6.136-13.152,0.165-23.789,13.5-29.25c2.969,5.495,8.62,10.593,10.5,16.5  c-10.179-40.714,1.308-29.035,17.395-1.224C359.416,346.382,380.496,360.097,352.346,384.777z"/>
<path fill-rule="evenodd" clip-rule="evenodd" fill="#F7931E" stroke="#000000" stroke-width="2" stroke-linecap="square" stroke-miterlimit="10" d="  M323.096,439.525c-17.01-10.772-10.284-44.057,9-50.248c13.028-4.182,23.628,7.152,34.083,14.342  c38.302,26.341,76.604,52.683,114.907,79.024c10.125,6.964,66.903,35.223,69.26,47.632c3.293,17.344-17.305,7.273-26.123,3.156  C457.181,502.128,390.138,470.827,323.096,439.525z"/>
<path fill="none" stroke="#000000" stroke-width="2" stroke-linecap="square" stroke-miterlimit="10" d="M326.846,441.775  c-3.276-6.885-2.771-14.105,1.5-20.248"/>
<path fill="none" stroke="#000000" stroke-width="2" stroke-linecap="square" stroke-miterlimit="10" d="M371.096,462.025  c-4.462-10.814-1.899-22.276,7.5-29.25"/>
<path fill="none" stroke="#000000" stroke-width="2" stroke-linecap="square" stroke-miterlimit="10" d="M356.846,453.775  c-4.893-10.006,0.698-19.93,9.75-27"/>
<path fill="none" stroke="#000000" stroke-width="2" stroke-linecap="square" stroke-miterlimit="10" d="M434.096,492.025  c-1.936-4.855-1.106-9.088,3-12"/>
<path fill="none" stroke="#000000" stroke-width="2" stroke-linecap="square" stroke-miterlimit="10" d="M426.596,445.525  c-7.613,0.999-12.748,5.397-14.25,12.75"/>
<path fill="none" stroke="#000000" stroke-width="2" stroke-linecap="square" stroke-miterlimit="10" d="M369.596,406.527  c-10.039,1.324-17.216,7.435-20.25,17.248"/>
<path fill="none" stroke="#000000" stroke-width="2" stroke-linecap="square" stroke-miterlimit="10" d="M489.596,488.275  c-3.012,1.941-5.572,4.499-7.5,7.5"/>
<path fill="none" stroke="#000000" stroke-width="2" stroke-linecap="square" stroke-miterlimit="10" d="M442.346,493.525  c-0.076-6.731,2.833-12.626,8.25-16.5"/>
<path fill-rule="evenodd" clip-rule="evenodd" fill="#0DB14B" stroke="#000000" stroke-width="2" stroke-linecap="square" stroke-miterlimit="10" d="  M308.846,420.027c-28.75-5.5-57.5-11-86.25-16.5c2.5-3.25,5-6.5,7.5-9.75c-5.349-1.372-9.644-6.919-15-8.25  c11.857-11.067,22.775-30.687,34.5-9c-7.807-11.778-3.598-23.191,8.25-30.75c3.973,4.834,10.545,8.789,13.5,14.25  c-18.054-38.364-3.781-28.387,16.659-3.859C308.952,381.304,332.256,391.493,308.846,420.027z"/>
<path fill-rule="evenodd" clip-rule="evenodd" fill="#F7931E" stroke="#000000" stroke-width="2" stroke-linecap="square" stroke-miterlimit="10" d="  M317.096,495.025c-17.319-9.32-14.888-43.738,3.75-51.75c12.558-5.397,25.558,5.281,35.944,10.947  c40.723,22.212,81.446,44.425,122.169,66.637c11.989,6.54,68.714,26.965,73.637,40.166c6.289,16.863-15.694,8.734-25.263,5.48  C457.254,542.678,387.175,518.852,317.096,495.025z"/>
<path fill="none" stroke="#000000" stroke-width="2" stroke-linecap="square" stroke-miterlimit="10" d="M321.596,496.525  c-4.457-6.438-4.818-13.707-0.75-20.25"/>
<path fill="none" stroke="#000000" stroke-width="2" stroke-linecap="square" stroke-miterlimit="10" d="M367.346,512.275  c-5.585-10.117-4.527-21.698,3.75-30"/>
<path fill="none" stroke="#000000" stroke-width="2" stroke-linecap="square" stroke-miterlimit="10" d="M352.346,505.525  c-6.452-9.632-2.085-20.004,6.75-27.75"/>
<path fill="none" stroke="#000000" stroke-width="2" stroke-linecap="square" stroke-miterlimit="10" d="M433.346,534.775  c-2.556-4.246-2.069-8.575,1.5-12"/>
<path fill="none" stroke="#000000" stroke-width="2" stroke-linecap="square" stroke-miterlimit="10" d="M420.596,490.525  c-7.254,1.311-12.089,6.2-12.75,13.5"/>
<path fill="none" stroke="#000000" stroke-width="2" stroke-linecap="square" stroke-miterlimit="10" d="M359.846,457.525  c-10.038,1.648-16.399,8.418-18,18.75"/>
<path fill="none" stroke="#000000" stroke-width="2" stroke-linecap="square" stroke-miterlimit="10" d="M488.096,525.775  c-2.834,2.274-5.121,5.057-6.75,8.25"/>
<path fill="none" stroke="#000000" stroke-width="2" stroke-linecap="square" stroke-miterlimit="10" d="M441.596,536.275  c-1.082-6.783,1.362-13.354,6.75-18"/>
<path fill-rule="evenodd" clip-rule="evenodd" fill="#0DB14B" stroke="#000000" stroke-width="2" stroke-linecap="square" stroke-miterlimit="10" d="  M301.346,477.025c-29.25-2.5-58.5-5-87.75-7.5c2-3.25,4-6.5,6-9.75c-5.227-0.871-9.771-5.911-15-6.75  c10.293-12.668,18.506-33.767,33-13.5c-9.018-10.955-5.826-22.769,5.25-31.498c4.27,4.574,10.975,8.225,14.25,13.5  c-21.537-36.273-6.76-28.536,16.48-6.117C297.278,438.275,321.853,445.985,301.346,477.025z"/>
<path fill-rule="evenodd" clip-rule="evenodd" fill="#F7931E" stroke="#000000" stroke-width="2" stroke-linecap="square" stroke-miterlimit="10" d="  M533.096,392.277c12.823-16.126-6.099-45.699-26.25-44.25c-13.192,0.948-19.723,15.952-26.604,25.637  c-26.912,37.875-53.823,75.75-80.734,113.625c-7.454,10.49-50.438,55.351-48.662,68.486c2.401,17.758,18.283,1.199,25.273-5.822  C428.444,497.394,480.77,444.835,533.096,392.277z"/>
<path fill="none" stroke="#000000" stroke-width="2" stroke-linecap="square" stroke-miterlimit="10" d="M530.096,395.277  c1.093-7.624-1.767-13.958-8.25-18"/>
<path fill="none" stroke="#000000" stroke-width="2" stroke-linecap="square" stroke-miterlimit="10" d="M496.346,429.775  c-0.336-11.343-6.297-21.185-17.25-24.748"/>
<path fill="none" stroke="#000000" stroke-width="2" stroke-linecap="square" stroke-miterlimit="10" d="M506.846,417.027  c0.395-11.035-7.788-18.663-18.75-21.75"/>
<path fill="none" stroke="#000000" stroke-width="2" stroke-linecap="square" stroke-miterlimit="10" d="M446.846,480.025  c0.306-5.268-1.953-9.118-6.75-10.5"/>
<path fill="none" stroke="#000000" stroke-width="2" stroke-linecap="square" stroke-miterlimit="10" d="M438.596,433.525  c7.312-1.453,13.521,0.712,17.25,6.75"/>
<path fill="none" stroke="#000000" stroke-width="2" stroke-linecap="square" stroke-miterlimit="10" d="M478.346,377.277  c9.839-2.335,18.619,0.863,24.75,9"/>
<path fill="none" stroke="#000000" stroke-width="2" stroke-linecap="square" stroke-miterlimit="10" d="M393.596,495.775  c3.793,0.25,7.185,1.795,9.75,4.5"/>
<path fill="none" stroke="#000000" stroke-width="2" stroke-linecap="square" stroke-miterlimit="10" d="M440.096,484.525  c-2.445-6.634-7.497-11.194-14.25-12.75"/>
<path fill-rule="evenodd" clip-rule="evenodd" fill="#0DB14B" stroke="#000000" stroke-width="2" stroke-linecap="square" stroke-miterlimit="10" d="  M539.846,369.777c25.25-15.25,50.5-30.5,75.75-45.75c-3.5-2-7-4-10.5-6c4.323-3.107,6.184-9.633,10.5-12.75  c-14.984-6.885-31.378-21.862-35.25,3c3.669-13.949-3.945-23.366-18-26.25c-1.985,5.887-6.69,11.889-7.5,18  c3.413-42.097-6.443-28.019-17.285,2.065C526.367,333.154,507.862,350.749,539.846,369.777z"/>
</svg>