<svg xmlns="http://www.w3.org/2000/svg" xmlns:xlink="http://www.w3.org/1999/xlink" version="1.1" id="Layer_1" x="0px" y="0px" enable-background="new 0 0 822.05 841.89" xml:space="preserve" viewBox="308.57 336.6 203.17 169.41">
<path fill-rule="evenodd" clip-rule="evenodd" fill="#EED5B6" stroke="#000000" stroke-width="1.25" stroke-linecap="square" stroke-miterlimit="10" d="  M453.951,424.39c-5.114-12.561-18.995-6.947-28.5,3.75c-0.44-4.531-2.816-10.499-3-14.25c-3.403,11.881-28.591,34.326-4.5,41.25  C432.657,459.367,461.375,436.798,453.951,424.39z"/>
<path fill-rule="evenodd" clip-rule="evenodd" fill="#137827" d="M449.451,419.89l-16.5,9L449.451,419.89z"/>
<line fill="none" stroke="#000000" stroke-width="1.25" stroke-linecap="square" stroke-miterlimit="10" x1="449.451" y1="419.89" x2="432.951" y2="428.89"/>
<path fill-rule="evenodd" clip-rule="evenodd" fill="#137827" d="M453.951,424.39l-18,9L453.951,424.39z"/>
<line fill="none" stroke="#000000" stroke-width="1.25" stroke-linecap="square" stroke-miterlimit="10" x1="453.951" y1="424.39" x2="435.951" y2="433.39"/>
<path fill-rule="evenodd" clip-rule="evenodd" fill="#137827" d="M455.451,431.14l-15.75,7.5L455.451,431.14z"/>
<line fill="none" stroke="#000000" stroke-width="1.25" stroke-linecap="square" stroke-miterlimit="10" x1="455.451" y1="431.14" x2="439.701" y2="438.64"/>
<path fill-rule="evenodd" clip-rule="evenodd" fill="#137827" stroke="#000000" stroke-width="1.25" stroke-linecap="square" stroke-miterlimit="10" d="  M412.697,434.89c-24.811,12.741-35.18,28.538-59.625,15.375c-8.753-4.713-33.675-22.901-36.375-0.375  c-1.876,15.647,30.742,28.521,41.25,31.5c29.211,8.283,40.872-7.279,65.254-25.5C414.873,449.333,416.146,443.563,412.697,434.89z"/>
<path fill-rule="evenodd" clip-rule="evenodd" fill="#EED5B6" stroke="#000000" stroke-width="1.25" stroke-linecap="square" stroke-miterlimit="10" d="  M369.947,437.14c-25.854-25.097-50.254-3.548-55.5,28.5C337.405,468.941,371.039,466.667,369.947,437.14z"/>
<path fill-rule="evenodd" clip-rule="evenodd" fill="#137827" stroke="#000000" stroke-width="1.25" stroke-linecap="square" stroke-miterlimit="10" d="  M381.197,505.39c0-19.93,6.615-70.949-22.5-72.75c17.684,24.912-18.104,15.646-28.875,4.875  c-15.791-15.791-20.397,64.408-20.625,67.875C333.197,505.39,357.197,505.39,381.197,505.39z"/>
<path fill-rule="evenodd" clip-rule="evenodd" fill="#EED5B6" stroke="#000000" stroke-width="1.25" stroke-linecap="square" stroke-miterlimit="10" d="  M310.697,401.14c4.231,48.217,72.521,40.434,51-11.25C349.214,359.911,306.853,365.521,310.697,401.14z"/>
<path fill-rule="evenodd" clip-rule="evenodd" d="M435.951,380.14c2.928-22.152,14.647-44.615,39.75-43.5  c16.114,0.716,46.742,38.676,32.25,40.125c-2.424,0.242-15.718-29.406-30.375-31.5c-20.188-2.884-33.707,16.062-33.375,34.875  c3.25,0.25,6.5,0.5,9.75,0.75c-4.75,9.75-9.5,19.5-14.25,29.25c-4-10-8-20-12-30C430.451,380.14,433.201,380.14,435.951,380.14z"/>
<path fill-rule="evenodd" clip-rule="evenodd" fill="#F4EE12" stroke="#000000" stroke-width="1.25" stroke-linecap="square" stroke-miterlimit="10" d="  M463.701,462.64c-14.672,30.705-62.758,12.165-49.502-20.25C427.264,410.443,475.951,429.883,463.701,462.64z"/>
<path fill-rule="evenodd" clip-rule="evenodd" fill="#EED5B6" stroke="#000000" stroke-width="1.25" stroke-linecap="square" stroke-miterlimit="10" d="  M451.701,476.14c0.525-12.832-14.64-13.944-27.75-8.25c1.373-4.229,1.729-10.949,3-14.25c-6.012,7.507-40.264,21.742-21.754,35.625  C417.594,498.563,453.225,492.017,451.701,476.14z"/>
<path fill-rule="evenodd" clip-rule="evenodd" fill="#137827" d="M448.701,470.14l-18,1.5L448.701,470.14z"/>
<line fill="none" stroke="#000000" stroke-width="1.25" stroke-linecap="square" stroke-miterlimit="10" x1="448.701" y1="470.14" x2="430.701" y2="471.64"/>
<path fill-rule="evenodd" clip-rule="evenodd" fill="#137827" d="M451.701,476.14l-20.25,0.75L451.701,476.14z"/>
<line fill="none" stroke="#000000" stroke-width="1.25" stroke-linecap="square" stroke-miterlimit="10" x1="451.701" y1="476.14" x2="431.451" y2="476.89"/>
<path fill-rule="evenodd" clip-rule="evenodd" fill="#137827" d="M450.201,482.89l-17.25,0.75L450.201,482.89z"/>
<line fill="none" stroke="#000000" stroke-width="1.25" stroke-linecap="square" stroke-miterlimit="10" x1="450.201" y1="482.89" x2="432.951" y2="483.64"/>
<path fill-rule="evenodd" clip-rule="evenodd" fill="#137827" stroke="#000000" stroke-width="1.25" stroke-linecap="square" stroke-miterlimit="10" d="  M409.697,469.39c-25.774,1.076-40.515,8.618-57.75-6c-7.12-6.039-22.701-42.007-36-19.5c-7.446,12.603,14.339,34.183,21.375,42  c22.612,25.125,42.025,13.462,73.125,6.75C406.054,483.45,409.462,478.379,409.697,469.39z"/>
</svg>