<svg xmlns="http://www.w3.org/2000/svg" xmlns:xlink="http://www.w3.org/1999/xlink" version="1.1" id="Layer_1" x="0px" y="0px" enable-background="new 0 0 822.05 841.89" xml:space="preserve" viewBox="233.7 247.82 354.24 343.69">
<path fill-rule="evenodd" clip-rule="evenodd" fill="#6D6F71" stroke="#000000" stroke-width="2" stroke-linecap="square" stroke-miterlimit="10" d="  M272.75,552.14c-14.802,33.554,21.654,50.053,37.5,17.25C326.504,535.743,286.847,517.604,272.75,552.14z"/>
<path fill-rule="evenodd" clip-rule="evenodd" fill="#6D6F71" stroke="#000000" stroke-width="2" stroke-linecap="square" stroke-miterlimit="10" d="  M501.5,573.14c15.625,33.466,53.197,13.805,36.75-18.75C521.656,521.545,484.401,540.089,501.5,573.14z"/>
<path fill-rule="evenodd" clip-rule="evenodd" fill="#6D6F71" stroke="#000000" stroke-width="2" stroke-linecap="square" stroke-miterlimit="10" d="  M542.75,535.64c12.753,28.674,42.256,13.902,28.5-14.25C557.336,492.914,526.797,508.212,542.75,535.64z"/>
<path fill-rule="evenodd" clip-rule="evenodd" fill="#6D6F71" stroke="#000000" stroke-width="2" stroke-linecap="square" stroke-miterlimit="10" d="  M251.75,511.64c-16.207,31.838,14.743,46.917,30,14.25C296.812,493.639,266.184,478.427,251.75,511.64z"/>
<path fill-rule="evenodd" clip-rule="evenodd" fill="#8E9093" stroke="#000000" stroke-width="2" stroke-linecap="square" stroke-miterlimit="10" d="  M260.75,282.14c6.155,16.324,17.549,34.985,14.25,51c-3.447,16.731-19.999,35.104-26.111,51.694  c-10.884,29.544-17.857,61.23-12.139,92.681c13.317,73.246,107.645,94.875,170.625,94.875c65.349,0,147.17-20.249,172.125-88.875  c10.762-29.596,9.449-63.976-1.361-93.319c-7.119-19.324-22.38-36.835-28.639-55.556c-7.337-21.945,3.406-36.208,13.5-60  C462.25,277.14,361.5,279.64,260.75,282.14z"/>
<path fill-rule="evenodd" clip-rule="evenodd" fill="#656668" stroke="#000000" stroke-width="2" stroke-linecap="square" stroke-miterlimit="10" d="  M564.5,278.39c-23.329,39.62-306,39.242-306,0S541.171,238.771,564.5,278.39z"/>
<path fill-rule="evenodd" clip-rule="evenodd" fill="#C4C6C8" stroke="#000000" stroke-width="2" stroke-linecap="square" stroke-miterlimit="10" d="  M262.25,309.89c-4.017,31.794,31.339,11.952,44.25,18c-7.884,10.642-20.911,19.042-34.5,15.75  C253.401,339.135,242.076,300.227,262.25,309.89z"/>
<path fill-rule="evenodd" clip-rule="evenodd" fill="#CBCCCE" stroke="#000000" stroke-width="2" stroke-linecap="square" stroke-miterlimit="10" d="  M269.75,298.64C252.744,340.124,251.483,258.57,269.75,298.64L269.75,298.64z"/>
<path fill-rule="evenodd" clip-rule="evenodd" fill="#CBCCCE" stroke="#000000" stroke-width="2" stroke-linecap="square" stroke-miterlimit="10" d="  M323.75,318.14c-3.07,13.991-25,17.163-24,0C300.717,301.53,320.278,305.101,323.75,318.14z"/>
<path fill-rule="evenodd" clip-rule="evenodd" fill="#C4C6C8" stroke="#000000" stroke-width="2" stroke-linecap="square" stroke-miterlimit="10" d="  M557,292.64C571.225,319.923,528.706,352.057,557,292.64L557,292.64z"/>
</svg>