<svg xmlns="http://www.w3.org/2000/svg" xmlns:xlink="http://www.w3.org/1999/xlink" version="1.1" id="Layer_1" x="0px" y="0px" enable-background="new 0 0 822.05 841.89" xml:space="preserve" viewBox="212.21 250.87 396.5 341">
<path fill-rule="evenodd" clip-rule="evenodd" fill="#48484A" stroke="#000000" stroke-width="2" stroke-linecap="square" stroke-miterlimit="10" d="  M403.71,251.874c-63.5,112.25-127,224.5-190.5,336.75c131.5,0.75,263,1.5,394.5,2.25C539.71,477.874,471.71,364.874,403.71,251.874z  "/>
<path fill-rule="evenodd" clip-rule="evenodd" fill="#FFF200" stroke="#000000" stroke-width="2" stroke-linecap="square" stroke-miterlimit="10" d="  M403.71,286.374c-53,95.5-106,191-159,286.5c109.75,0.5,219.5,1,329.25,1.5C517.21,478.374,460.46,382.374,403.71,286.374z"/>
<path fill-rule="evenodd" clip-rule="evenodd" fill="#48484A" stroke="#000000" stroke-width="2" stroke-linecap="square" stroke-miterlimit="10" d="  M429.96,536.124c-0.896,29.08-45.282,29.204-45,0C385.237,507.409,429.231,507.521,429.96,536.124z"/>
<path fill-rule="evenodd" clip-rule="evenodd" fill="#48484A" stroke="#000000" stroke-width="2" stroke-linecap="square" stroke-miterlimit="10" d="  M378.96,367.374c7.342-11.021,21.744-24.753,36-17.625c32.763,16.381,10.023,81.409,7.224,108.668  c-1.718,16.715-6.188,43.287-28.224,25.957C375.619,469.95,381.314,391.07,378.96,367.374z"/>
</svg>