<svg xmlns="http://www.w3.org/2000/svg" xmlns:xlink="http://www.w3.org/1999/xlink" version="1.1" id="Layer_1" x="0px" y="0px" enable-background="new 0 0 822.05 841.89" xml:space="preserve" viewBox="303.76 330.16 219.57 179.08">
<path fill-rule="evenodd" clip-rule="evenodd" fill="#FFFFFF" stroke="#000000" stroke-width="0.75" stroke-linecap="square" stroke-miterlimit="10" d="  M430.25,333.67c20.365,0,88.5-11.92,88.5,10.728c0,29.363,15.935,102.561-14.25,120.522c-17.099-22.559-34.197-45.118-51.297-67.677  C440.908,381.022,398.502,347.717,430.25,333.67z"/>
<path fill-rule="evenodd" clip-rule="evenodd" fill="#FFFFFF" stroke="#000000" stroke-width="0.75" stroke-linecap="square" stroke-miterlimit="10" d="  M505.25,464.92c-13.873,0-89.25,5.803-89.25-5.027c0-20.593-12.591-97.399,0-111.973c6.576-7.611,89.25-0.719,89.25,5.027  C505.25,390.272,505.25,427.596,505.25,464.92z"/>
<path fill-rule="evenodd" clip-rule="evenodd" fill="#F0EF82" d="M505.25,347.92l13.5-14.25L505.25,347.92z"/>
<line fill="none" stroke="#000000" stroke-width="0.75" stroke-linecap="square" stroke-miterlimit="10" x1="505.25" y1="347.92" x2="518.75" y2="333.67"/>
<path fill-rule="evenodd" clip-rule="evenodd" fill="#83BBF2" stroke="#000000" stroke-width="0.75" stroke-linecap="square" stroke-miterlimit="10" d="  M504.5,398.92c-12.331,0-121.454,10.844-88.5-27c5.7-6.546,56.368,0,65.556,0C508.299,371.92,504.5,371.811,504.5,398.92z"/>
<path fill-rule="evenodd" clip-rule="evenodd" fill="#83BBF2" stroke="#000000" stroke-width="0.75" stroke-linecap="square" stroke-miterlimit="10" d="  M518,359.92c-17.16,8.74-13.5,22.513-13.5,39C522.458,391.192,518,376.409,518,359.92z"/>
<path fill-rule="evenodd" clip-rule="evenodd" fill="#65B62E" stroke="#000000" stroke-width="0.5" stroke-linecap="square" stroke-miterlimit="10" d="  M461.75,441.67c-2.869,1.265-4.873-0.304-5.25,3.75C458.165,443.333,460.129,442.385,461.75,441.67z"/>
<path fill-rule="evenodd" clip-rule="evenodd" fill="#65B62E" stroke="#000000" stroke-width="0.5" stroke-linecap="square" stroke-miterlimit="10" d="  M455,443.17C457.986,444.4,455.546,443.395,455,443.17L455,443.17z"/>
<path fill-rule="evenodd" clip-rule="evenodd" fill="#65B62E" stroke="#000000" stroke-width="0.5" stroke-linecap="square" stroke-miterlimit="10" d="  M443,440.17c1.151-3.435,6.516-2.377,5.25-9.75C438.079,430.428,444.758,434.926,443,440.17z"/>
<path fill-rule="evenodd" clip-rule="evenodd" fill="#65B62E" stroke="#000000" stroke-width="0.5" stroke-linecap="square" stroke-miterlimit="10" d="  M443,443.17C436.811,435.583,436.836,435.613,443,443.17L443,443.17z"/>
<path fill-rule="evenodd" clip-rule="evenodd" fill="#65B62E" stroke="#000000" stroke-width="0.5" stroke-linecap="square" stroke-miterlimit="10" d="  M425.75,437.17C432.075,443.349,432.044,443.318,425.75,437.17L425.75,437.17z"/>
<path fill-rule="evenodd" clip-rule="evenodd" fill="#65B62E" stroke="#000000" stroke-width="0.5" stroke-linecap="square" stroke-miterlimit="10" d="  M427.25,430.42C432.978,440.895,438.082,435.907,427.25,430.42L427.25,430.42z"/>
<path fill-rule="evenodd" clip-rule="evenodd" fill="#65B62E" stroke="#000000" stroke-width="0.5" stroke-linecap="square" stroke-miterlimit="10" d="  M435.5,446.92C430.398,441.299,430.309,441.199,435.5,446.92L435.5,446.92z"/>
<path fill-rule="evenodd" clip-rule="evenodd" fill="#65B62E" stroke="#000000" stroke-width="0.5" stroke-linecap="square" stroke-miterlimit="10" d="  M431,423.67c1.523,1.595-2.068,5.646,3.75,3.75C436.497,421.875,432.274,425.004,431,423.67z"/>
<path fill-rule="evenodd" clip-rule="evenodd" fill="#65B62E" stroke="#000000" stroke-width="0.5" stroke-linecap="square" stroke-miterlimit="10" d="  M445.25,424.42c2.749-2.141,5.181-4.308,8.25-6C478.207,433.254,449.122,450.29,445.25,424.42z"/>
<path fill-rule="evenodd" clip-rule="evenodd" fill="#65B62E" stroke="#000000" stroke-width="0.5" stroke-linecap="square" stroke-miterlimit="10" d="  M448.25,437.92c1.767,1.328,6.044-0.628,7.5,4.5C449.532,447.02,451.658,440.483,448.25,437.92z"/>
<path fill-rule="evenodd" clip-rule="evenodd" fill="#65B62E" stroke="#000000" stroke-width="0.5" stroke-linecap="square" stroke-miterlimit="10" d="  M474.5,413.92c-0.208,2.12,2.36,4.74-2.25,7.5C474.094,418.975,474.227,416.704,474.5,413.92z"/>
<path fill-rule="evenodd" clip-rule="evenodd" fill="#65B62E" stroke="#000000" stroke-width="0.5" stroke-linecap="square" stroke-miterlimit="10" d="  M458,413.92c0.082,3.839-3.171,0.176-0.75,6.75C459.726,415.2,457.896,409.033,458,413.92z"/>
<path fill-rule="evenodd" clip-rule="evenodd" fill="#65B62E" stroke="#000000" stroke-width="0.5" stroke-linecap="square" stroke-miterlimit="10" d="  M467.75,434.17C470.277,436.621,471.119,437.437,467.75,434.17L467.75,434.17z"/>
<path fill-rule="evenodd" clip-rule="evenodd" fill="#65B62E" stroke="#000000" stroke-width="0.5" stroke-linecap="square" stroke-miterlimit="10" d="  M470.75,432.67c-2.396,1.002-3.431,2.71-4.5,4.5c-0.75-1.5-1.5-3-2.25-4.5C467.702,429.581,467.671,433.958,470.75,432.67z"/>
<path fill-rule="evenodd" clip-rule="evenodd" fill="#65B62E" stroke="#000000" stroke-width="0.5" stroke-linecap="square" stroke-miterlimit="10" d="  M467,424.42C473.221,427.627,466.212,424.014,467,424.42L467,424.42z"/>
<path fill-rule="evenodd" clip-rule="evenodd" fill="#65B62E" stroke="#000000" stroke-width="0.5" stroke-linecap="square" stroke-miterlimit="10" d="  M466.25,427.42C472.985,423.052,467.501,426.609,466.25,427.42L466.25,427.42z"/>
<path fill-rule="evenodd" clip-rule="evenodd" fill="#65B62E" stroke="#000000" stroke-width="0.5" stroke-linecap="square" stroke-miterlimit="10" d="  M455,419.92c0.736,3.165,0.31,4.998,3.75,6.75C453.725,424.4,455.34,421.383,455,419.92z"/>
<path fill-rule="evenodd" clip-rule="evenodd" fill="#65B62E" stroke="#000000" stroke-width="0.5" stroke-linecap="square" stroke-miterlimit="10" d="  M446,440.17c0.686-4.096-5.857-5.5,2.25-9C450.394,436.69,446.297,438.394,446,440.17z"/>
<path fill-rule="evenodd" clip-rule="evenodd" fill="#65B62E" stroke="#000000" stroke-width="0.5" stroke-linecap="square" stroke-miterlimit="10" d="  M458,443.92c0.378,2.807,6.373,3.62,0.75,9C453.552,448.279,458.331,446.373,458,443.92z"/>
<path fill-rule="evenodd" clip-rule="evenodd" fill="#65B62E" stroke="#000000" stroke-width="0.5" stroke-linecap="square" stroke-miterlimit="10" d="  M461.75,441.67C469.447,446.402,469.481,446.422,461.75,441.67L461.75,441.67z"/>
<path fill-rule="evenodd" clip-rule="evenodd" fill="#65B62E" stroke="#000000" stroke-width="0.5" stroke-linecap="square" stroke-miterlimit="10" d="  M477.5,438.67c-2.582-0.77-5.742,2.85-8.25-3C474.617,432.617,475.04,437.937,477.5,438.67z"/>
<path fill-rule="evenodd" clip-rule="evenodd" fill="#65B62E" stroke="#000000" stroke-width="0.5" stroke-linecap="square" stroke-miterlimit="10" d="  M464,416.17c1.188,3.319,5.603,1.924,4.5,8.25C459.721,422.458,464.932,418.773,464,416.17z"/>
<path fill-rule="evenodd" clip-rule="evenodd" fill="#65B62E" stroke="#000000" stroke-width="0.5" stroke-linecap="square" stroke-miterlimit="10" d="  M442.25,419.17c2.349,0.547,5.47-8.262,7.5,5.25C443.596,425.336,444.495,419.693,442.25,419.17z"/>
<path fill-rule="evenodd" clip-rule="evenodd" fill="#65B62E" stroke="#000000" stroke-width="0.5" stroke-linecap="square" stroke-miterlimit="10" d="  M452.75,410.92C449.922,414.472,446.898,418.268,452.75,410.92L452.75,410.92z"/>
<path fill-rule="evenodd" clip-rule="evenodd" fill="#65B62E" stroke="#000000" stroke-width="0.5" stroke-linecap="square" stroke-miterlimit="10" d="  M458,405.67C449.531,416.287,456.056,408.108,458,405.67L458,405.67z"/>
<path fill-rule="evenodd" clip-rule="evenodd" fill="#65B62E" stroke="#000000" stroke-width="0.5" stroke-linecap="square" stroke-miterlimit="10" d="  M467.75,408.67c-2.074,0.937-1.385,6.508-7.5,3.75C461.689,405.453,465.065,409.882,467.75,408.67z"/>
<path fill-rule="evenodd" clip-rule="evenodd" fill="#65B62E" stroke="#000000" stroke-width="0.5" stroke-linecap="square" stroke-miterlimit="10" d="  M441.5,422.92c-3.173,0.325-4.162-2.994-7.5-2.25C443.515,431.995,439.678,426.333,441.5,422.92z"/>
<path fill-rule="evenodd" clip-rule="evenodd" fill="#65B62E" stroke="#000000" stroke-width="0.5" stroke-linecap="square" stroke-miterlimit="10" d="  M428.75,440.92c-2.914,2.102-1.998,9.636-7.5,1.5C423.664,440.03,427.65,441.713,428.75,440.92z"/>
<path fill-rule="evenodd" clip-rule="evenodd" fill="#65B62E" stroke="#000000" stroke-width="0.5" stroke-linecap="square" stroke-miterlimit="10" d="  M441.5,439.42C443.434,448.906,443.734,450.386,441.5,439.42L441.5,439.42z"/>
<path fill-rule="evenodd" clip-rule="evenodd" fill="#65B62E" stroke="#000000" stroke-width="0.5" stroke-linecap="square" stroke-miterlimit="10" d="  M437.75,453.67c-0.04-2.841-5.43-3.248-1.5-9C443.544,447.056,437.698,449.971,437.75,453.67z"/>
<path fill-rule="evenodd" clip-rule="evenodd" fill="#65B62E" stroke="#000000" stroke-width="0.5" stroke-linecap="square" stroke-miterlimit="10" d="  M433.25,438.67C430.205,447.497,429.75,448.817,433.25,438.67L433.25,438.67z"/>
<path fill-rule="evenodd" clip-rule="evenodd" fill="#65B62E" stroke="#000000" stroke-width="0.5" stroke-linecap="square" stroke-miterlimit="10" d="  M434,433.42c-3.58-2.879-7.413,1.998-7.5-5.25C434.985,425.263,431.651,431.532,434,433.42z"/>
<path fill-rule="evenodd" clip-rule="evenodd" fill="#65B62E" stroke="#000000" stroke-width="0.5" stroke-linecap="square" stroke-miterlimit="10" d="  M443.75,429.67c-2.555,2.328,0.723,7.743-7.5,6.75C435.846,427.278,440.921,432.249,443.75,429.67z"/>
<path fill-rule="evenodd" clip-rule="evenodd" fill="#65B62E" stroke="#000000" stroke-width="0.5" stroke-linecap="square" stroke-miterlimit="10" d="  M441.5,430.42c0.636-1.94-3.977-3.811-0.75-7.5C450.562,428.968,442.337,427.864,441.5,430.42z"/>
<path fill-rule="evenodd" clip-rule="evenodd" fill="#65B62E" stroke="#000000" stroke-width="0.5" stroke-linecap="square" stroke-miterlimit="10" d="  M437,432.67C432.259,422.564,432.108,422.243,437,432.67L437,432.67z"/>
<path fill-rule="evenodd" clip-rule="evenodd" fill="#65B62E" stroke="#000000" stroke-width="0.5" stroke-linecap="square" stroke-miterlimit="10" d="  M437,433.42C431.904,441.256,431.861,441.322,437,433.42L437,433.42z"/>
<path fill-rule="evenodd" clip-rule="evenodd" fill="#65B62E" stroke="#000000" stroke-width="0.5" stroke-linecap="square" stroke-miterlimit="10" d="  M421.25,434.92C431.8,436.991,432.188,437.067,421.25,434.92L421.25,434.92z"/>
<path fill-rule="evenodd" clip-rule="evenodd" fill="#65B62E" stroke="#000000" stroke-width="0.5" stroke-linecap="square" stroke-miterlimit="10" d="  M440.75,440.92C436.084,449.533,436.578,448.62,440.75,440.92L440.75,440.92z"/>
<path fill-rule="evenodd" clip-rule="evenodd" fill="#65B62E" stroke="#000000" stroke-width="0.5" stroke-linecap="square" stroke-miterlimit="10" d="  M449.75,428.17C441.295,430.031,439.534,430.417,449.75,428.17L449.75,428.17z"/>
<path fill-rule="evenodd" clip-rule="evenodd" fill="#65B62E" stroke="#000000" stroke-width="0.5" stroke-linecap="square" stroke-miterlimit="10" d="  M440.75,424.42C446.438,419.826,446.714,419.603,440.75,424.42L440.75,424.42z"/>
<path fill-rule="evenodd" clip-rule="evenodd" fill="#65B62E" stroke="#000000" stroke-width="0.5" stroke-linecap="square" stroke-miterlimit="10" d="  M455.75,416.17C452.225,416.203,443.636,416.283,455.75,416.17L455.75,416.17z"/>
<path fill-rule="evenodd" clip-rule="evenodd" fill="#65B62E" stroke="#000000" stroke-width="0.5" stroke-linecap="square" stroke-miterlimit="10" d="  M449,417.67C452.076,427.381,452.663,429.232,449,417.67L449,417.67z"/>
<path fill-rule="evenodd" clip-rule="evenodd" fill="#65B62E" d="M450.5,394.42L450.5,394.42L450.5,394.42z"/>
<line fill="none" stroke="#000000" stroke-width="0.5" stroke-linecap="square" stroke-miterlimit="10" x1="450.5" y1="394.42" x2="450.5" y2="394.42"/>
<path fill-rule="evenodd" clip-rule="evenodd" fill="#65B62E" stroke="#000000" stroke-width="0.5" stroke-linecap="square" stroke-miterlimit="10" d="  M458.75,413.92C455.966,408.646,454.433,405.741,458.75,413.92L458.75,413.92z"/>
<path fill-rule="evenodd" clip-rule="evenodd" fill="#65B62E" stroke="#000000" stroke-width="0.5" stroke-linecap="square" stroke-miterlimit="10" d="  M464.75,416.92C460.027,414.655,457.53,413.456,464.75,416.92L464.75,416.92z"/>
<path fill-rule="evenodd" clip-rule="evenodd" fill="#65B62E" stroke="#000000" stroke-width="0.5" stroke-linecap="square" stroke-miterlimit="10" d="  M470.75,432.67C478.809,433.47,480.422,433.629,470.75,432.67L470.75,432.67z"/>
<path fill-rule="evenodd" clip-rule="evenodd" fill="#65B62E" stroke="#000000" stroke-width="0.5" stroke-linecap="square" stroke-miterlimit="10" d="  M458,419.92c0.94,1.062-2.806,5.069,4.5,5.25c0.263-0.921,0.763-1.671,1.5-2.25C462.376,419.038,458.67,420.677,458,419.92z"/>
<path fill-rule="evenodd" clip-rule="evenodd" fill="#65B62E" stroke="#000000" stroke-width="0.5" stroke-linecap="square" stroke-miterlimit="10" d="  M473,443.92C466.583,434.644,466.948,435.172,473,443.92L473,443.92z"/>
<path fill-rule="evenodd" clip-rule="evenodd" fill="#65B62E" stroke="#000000" stroke-width="0.5" stroke-linecap="square" stroke-miterlimit="10" d="  M447.5,437.92c1.21-1.816-2.986-6.947,6-8.25C455.083,436.963,449.226,435.329,447.5,437.92z"/>
<path fill-rule="evenodd" clip-rule="evenodd" fill="#65B62E" stroke="#000000" stroke-width="0.5" stroke-linecap="square" stroke-miterlimit="10" d="  M455.75,446.17C449.979,452.053,448.354,453.708,455.75,446.17L455.75,446.17z"/>
<path fill-rule="evenodd" clip-rule="evenodd" fill="#65B62E" stroke="#000000" stroke-width="0.5" stroke-linecap="square" stroke-miterlimit="10" d="  M459.5,427.42c-1.81,1.486,2.703,5.21-4.5,5.25C453.095,424.205,457.715,428.886,459.5,427.42z"/>
<path fill-rule="evenodd" clip-rule="evenodd" fill="#65B62E" stroke="#000000" stroke-width="0.5" stroke-linecap="square" stroke-miterlimit="10" d="  M458,445.42c1.881,2.307,7.535-0.285,5.25,7.5C455.656,452.196,459.599,447.381,458,445.42z"/>
<path fill-rule="evenodd" clip-rule="evenodd" fill="#65B62E" stroke="#000000" stroke-width="0.5" stroke-linecap="square" stroke-miterlimit="10" d="  M455.75,443.92C446.778,445.545,447.608,445.395,455.75,443.92L455.75,443.92z"/>
<path fill-rule="evenodd" clip-rule="evenodd" fill="#65B62E" stroke="#000000" stroke-width="0.5" stroke-linecap="square" stroke-miterlimit="10" d="  M456.5,427.42C448.839,428.912,449.129,428.855,456.5,427.42L456.5,427.42z"/>
<path fill-rule="evenodd" clip-rule="evenodd" fill="#65B62E" stroke="#000000" stroke-width="0.5" stroke-linecap="square" stroke-miterlimit="10" d="  M472.25,428.92C463.26,431.82,463.807,431.644,472.25,428.92L472.25,428.92z"/>
<path fill-rule="evenodd" clip-rule="evenodd" fill="#65B62E" stroke="#000000" stroke-width="0.5" stroke-linecap="square" stroke-miterlimit="10" d="  M466.25,419.92c-1.446,3.05,4.52,6.596-4.5,9C458.951,421.872,464.624,423.35,466.25,419.92z"/>
<path fill-rule="evenodd" clip-rule="evenodd" fill="#65B62E" stroke="#000000" stroke-width="0.5" stroke-linecap="square" stroke-miterlimit="10" d="  M467.75,441.67C461.697,434.802,460.746,433.722,467.75,441.67L467.75,441.67z"/>
<path fill-rule="evenodd" clip-rule="evenodd" fill="#65B62E" stroke="#000000" stroke-width="0.5" stroke-linecap="square" stroke-miterlimit="10" d="  M455,433.42C458.551,441.418,459.822,444.285,455,433.42L455,433.42z"/>
<path fill-rule="evenodd" clip-rule="evenodd" fill="#65B62E" stroke="#000000" stroke-width="0.5" stroke-linecap="square" stroke-miterlimit="10" d="  M460.25,431.17C467.279,436.939,466.919,436.643,460.25,431.17L460.25,431.17z"/>
<path fill-rule="evenodd" clip-rule="evenodd" fill="#65B62E" stroke="#000000" stroke-width="0.5" stroke-linecap="square" stroke-miterlimit="10" d="  M469.25,425.17c2.078-1.315,0.816-8.051,7.5-2.25C473.91,427.151,469.71,424.879,469.25,425.17z"/>
<path fill-rule="evenodd" clip-rule="evenodd" fill="#65B62E" stroke="#000000" stroke-width="0.5" stroke-linecap="square" stroke-miterlimit="10" d="  M456.5,425.92c2.459-0.045,3.827-6.103,8.25,0.75C460.331,431.034,459.225,425.871,456.5,425.92z"/>
<path fill-rule="evenodd" clip-rule="evenodd" fill="#5CA4D4" stroke="#000000" stroke-width="0.75" stroke-linecap="square" stroke-miterlimit="10" d="  M380.75,470.17c11.859-0.185,64.003-0.576,63.75-20.25c-0.273-21.295-56.677-19.5-69-19.5c-13.229,0-53.149,1.046-57,18.375  C314.099,468.6,370.185,470.474,380.75,470.17z"/>
<path fill-rule="evenodd" clip-rule="evenodd" fill="#FFFFFF" d="M445.25,452.17c4.91,40.078-131.224,24.257-126.75,4.125  C324.083,431.17,427.888,450.501,445.25,452.17z"/>
<path fill-rule="evenodd" clip-rule="evenodd" fill="#F0EF82" d="M427.25,434.92L427.25,434.92L427.25,434.92z"/>
<line fill="none" stroke="#000000" stroke-width="0.75" stroke-linecap="square" stroke-miterlimit="10" x1="427.25" y1="434.92" x2="427.25" y2="434.92"/>
<path fill-rule="evenodd" clip-rule="evenodd" fill="#009B3F" stroke="#000000" stroke-width="0.5" stroke-linecap="square" stroke-miterlimit="10" d="  M481.25,404.92C505.564,419.294,462.106,420.066,481.25,404.92L481.25,404.92z"/>
<path fill="none" stroke="#000000" stroke-width="0.5" stroke-linecap="square" stroke-miterlimit="10" d="M484.25,417.67  c0.468-3.675-0.556-7.05-3-9.75"/>
<path fill-rule="evenodd" clip-rule="evenodd" fill="#D1391D" stroke="#000000" stroke-width="0.5" stroke-linecap="square" stroke-miterlimit="10" d="  M473.75,425.17c-0.918,18.239,12.718,28.58,21,7.875C500.967,417.503,481.507,413.745,473.75,425.17z"/>
<path fill-rule="evenodd" clip-rule="evenodd" fill="#009B3F" stroke="#000000" stroke-width="0.5" stroke-linecap="square" stroke-miterlimit="10" d="  M473.75,428.92C510.008,428.193,456.433,401.65,473.75,428.92L473.75,428.92z"/>
<path fill="none" stroke="#000000" stroke-width="0.5" stroke-linecap="square" stroke-miterlimit="10" d="M485,416.92  c-2.488,3.784-5.801,6.849-9.75,9"/>
<path fill-rule="evenodd" clip-rule="evenodd" fill="#F4E800" d="M479,432.67C477.353,432.67,477.353,432.67,479,432.67L479,432.67z  "/>
<path fill-rule="evenodd" clip-rule="evenodd" fill="#F4E800" d="M487.25,433.42C485.603,433.42,485.603,433.42,487.25,433.42  L487.25,433.42z"/>
<path fill-rule="evenodd" clip-rule="evenodd" fill="#F4E800" d="M482,438.67C480.356,439.557,481.358,439.016,482,438.67  L482,438.67z"/>
<path fill-rule="evenodd" clip-rule="evenodd" fill="#F4E800" d="M486.5,438.67C485.896,438.067,485.896,438.067,486.5,438.67  L486.5,438.67z"/>
<path fill-rule="evenodd" clip-rule="evenodd" fill="#F4E800" d="M485.75,430.42C485.108,430.075,484.106,429.534,485.75,430.42  L485.75,430.42z"/>
<path fill-rule="evenodd" clip-rule="evenodd" fill="#F4E800" d="M488.75,435.67C487.927,434.847,487.927,434.847,488.75,435.67  L488.75,435.67z"/>
<path fill-rule="evenodd" clip-rule="evenodd" fill="#F4E800" d="M488,425.92C486.353,425.92,486.353,425.92,488,425.92L488,425.92z  "/>
<path fill-rule="evenodd" clip-rule="evenodd" fill="#F4E800" d="M483.5,432.67C482.896,433.274,482.896,433.274,483.5,432.67  L483.5,432.67z"/>
<path fill-rule="evenodd" clip-rule="evenodd" fill="#F4E800" d="M483.5,436.42C482.858,436.075,481.856,435.534,483.5,436.42  L483.5,436.42z"/>
<path fill-rule="evenodd" clip-rule="evenodd" fill="#F4E800" d="M480.5,435.67C478.643,435.221,479.057,435.322,480.5,435.67  L480.5,435.67z"/>
<path fill-rule="evenodd" clip-rule="evenodd" fill="#F4E800" d="M482.75,430.42C481.103,430.42,481.103,430.42,482.75,430.42  L482.75,430.42z"/>
<path fill-rule="evenodd" clip-rule="evenodd" fill="#F4E800" d="M488.75,429.67C487.106,430.557,488.108,430.016,488.75,429.67  L488.75,429.67z"/>
<path fill-rule="evenodd" clip-rule="evenodd" d="M491.75,437.17C490.63,437.17,490.63,437.17,491.75,437.17L491.75,437.17z"/>
<path fill-rule="evenodd" clip-rule="evenodd" d="M488,437.92C485.724,438.134,488.593,437.865,488,437.92L488,437.92z"/>
<path fill-rule="evenodd" clip-rule="evenodd" d="M482,442.42C482,445.087,482,439.753,482,442.42L482,442.42z"/>
<path fill-rule="evenodd" clip-rule="evenodd" d="M484.25,438.67C483.646,438.067,483.646,438.067,484.25,438.67L484.25,438.67z"/>
<path fill-rule="evenodd" clip-rule="evenodd" d="M480.5,440.17C480.154,440.812,479.613,441.814,480.5,440.17L480.5,440.17z"/>
<path fill-rule="evenodd" clip-rule="evenodd" d="M482.75,445.42C482.146,444.817,482.146,444.817,482.75,445.42L482.75,445.42z"/>
<path fill-rule="evenodd" clip-rule="evenodd" d="M485.75,440.92C483.474,441.134,486.343,440.865,485.75,440.92L485.75,440.92z"/>
<path fill-rule="evenodd" clip-rule="evenodd" d="M481.25,443.92C481.843,443.976,478.974,443.707,481.25,443.92L481.25,443.92z"/>
<path fill-rule="evenodd" clip-rule="evenodd" d="M484.25,440.92C483.646,440.317,483.646,440.317,484.25,440.92L484.25,440.92z"/>
<path fill-rule="evenodd" clip-rule="evenodd" d="M479,439.42C479.593,439.476,476.724,439.207,479,439.42L479,439.42z"/>
<path fill-rule="evenodd" clip-rule="evenodd" d="M483.5,443.92C483.5,442.92,483.5,442.92,483.5,443.92L483.5,443.92z"/>
<path fill-rule="evenodd" clip-rule="evenodd" d="M488,440.17C488,442.837,488,437.503,488,440.17L488,440.17z"/>
<path fill-rule="evenodd" clip-rule="evenodd" fill="#F4E800" d="M491.75,434.17C490.927,433.347,490.927,433.347,491.75,434.17  L491.75,434.17z"/>
<path fill-rule="evenodd" clip-rule="evenodd" fill="#F4E800" d="M492.5,429.67C491.677,428.847,491.677,428.847,492.5,429.67  L492.5,429.67z"/>
<path fill-rule="evenodd" clip-rule="evenodd" fill="#F4E800" d="M495.5,427.42C493.224,427.634,496.093,427.365,495.5,427.42  L495.5,427.42z"/>
<path fill-rule="evenodd" clip-rule="evenodd" fill="#F4E800" d="M488.75,431.92C488.213,431.92,488.213,431.92,488.75,431.92  L488.75,431.92z"/>
<path fill-rule="evenodd" clip-rule="evenodd" fill="#F4E800" d="M489.5,427.42C489.5,430.087,489.5,424.753,489.5,427.42  L489.5,427.42z"/>
<path fill-rule="evenodd" clip-rule="evenodd" fill="#F4E800" d="M494.75,431.17C492.474,431.384,495.343,431.115,494.75,431.17  L494.75,431.17z"/>
<path fill-rule="evenodd" clip-rule="evenodd" fill="#F4E800" d="M486.5,442.42C485.677,441.597,485.677,441.597,486.5,442.42  L486.5,442.42z"/>
<path fill-rule="evenodd" clip-rule="evenodd" fill="#F4E800" d="M485,427.42C484.463,427.42,484.463,427.42,485,427.42L485,427.42z  "/>
<path fill-rule="evenodd" clip-rule="evenodd" fill="#F4E800" d="M487.25,423.67C486.13,423.67,486.13,423.67,487.25,423.67  L487.25,423.67z"/>
<path fill-rule="evenodd" clip-rule="evenodd" fill="#F4E800" d="M488,427.42C487.396,428.024,487.396,428.024,488,427.42  L488,427.42z"/>
<path fill-rule="evenodd" clip-rule="evenodd" fill="#F4E800" d="M489.5,425.17C487.224,425.384,490.093,425.115,489.5,425.17  L489.5,425.17z"/>
<path fill-rule="evenodd" clip-rule="evenodd" fill="#009B3F" stroke="#000000" stroke-width="0.5" stroke-linecap="square" stroke-miterlimit="10" d="  M502.25,417.67C481.424,397.298,485.325,439.905,502.25,417.67L502.25,417.67z"/>
<path fill="none" stroke="#000000" stroke-width="0.5" stroke-linecap="square" stroke-miterlimit="10" d="M485.75,416.92  c4.379-0.496,8.661,0,12.75,1.5"/>
<path fill-rule="evenodd" clip-rule="evenodd" fill="#F0EF82" stroke="#000000" stroke-width="0.5" stroke-linecap="square" stroke-miterlimit="10" d="  M335,447.67c15.101,0.033,20.069,13.794,3,17.25C320.375,468.489,320.714,452.969,335,447.67z"/>
<path fill-rule="evenodd" clip-rule="evenodd" fill="#F0EF82" d="M409.25,461.92c-0.25-2.25-0.5-4.5-0.75-6.75  c10.482,4.987,9.111,0.339,9.75,12C415.25,465.42,412.25,463.67,409.25,461.92z"/>
<path fill="none" stroke="#000000" stroke-width="0.5" stroke-linecap="square" stroke-miterlimit="10" d="M409.25,461.92  c-0.25-2.25-0.5-4.5-0.75-6.75c10.482,4.987,9.111,0.339,9.75,12C415.25,465.42,412.25,463.67,409.25,461.92"/>
<path fill-rule="evenodd" clip-rule="evenodd" fill="#F0EF82" stroke="#000000" stroke-width="0.5" stroke-linecap="square" stroke-miterlimit="10" d="  M341,449.17C339.144,472.208,362.577,449.761,341,449.17L341,449.17z"/>
<path fill-rule="evenodd" clip-rule="evenodd" fill="#F0EF82" stroke="#000000" stroke-width="0.5" stroke-linecap="square" stroke-miterlimit="10" d="  M427.25,463.42C420.204,440.775,391.363,462.917,427.25,463.42L427.25,463.42z"/>
<path fill-rule="evenodd" clip-rule="evenodd" fill="#F0EF82" d="M398,458.17c0.349-2.305,8.073-2.435-6-7.5  C392.02,450.705,397.913,459.292,398,458.17z"/>
<path fill="none" stroke="#000000" stroke-width="0.5" stroke-linecap="square" stroke-miterlimit="10" d="M398,458.17  c0.349-2.305,8.073-2.435-6-7.5c1.75,2.5,3.5,5,5.25,7.5"/>
<path fill-rule="evenodd" clip-rule="evenodd" fill="#F0EF82" stroke="#000000" stroke-width="0.5" stroke-linecap="square" stroke-miterlimit="10" d="  M406.25,465.67c-3.818,0.081-6.319,6.2-9-1.5C401.672,462.544,402.892,465.742,406.25,465.67z"/>
<path fill-rule="evenodd" clip-rule="evenodd" fill="#F0EF82" stroke="#000000" stroke-width="0.5" stroke-linecap="square" stroke-miterlimit="10" d="  M412.25,470.92c4.336-4.226-0.802-12.248-8.25-19.5C399.37,459.767,404.55,465.361,412.25,470.92z"/>
<path fill-rule="evenodd" clip-rule="evenodd" fill="#F0EF82" d="M434,456.67c-10.525,5.661-18.167,5.604-13.5-7.5  C424.89,451.609,430.059,453.584,434,456.67z"/>
<path fill="none" stroke="#000000" stroke-width="0.5" stroke-linecap="square" stroke-miterlimit="10" d="M434,456.67  c-10.525,5.661-18.167,5.604-13.5-7.5C424.89,451.609,430.059,453.584,434,456.67"/>
<path fill-rule="evenodd" clip-rule="evenodd" fill="#F0EF82" stroke="#000000" stroke-width="0.5" stroke-linecap="square" stroke-miterlimit="10" d="  M405.5,462.67C399.638,447.472,405.069,454.949,405.5,462.67L405.5,462.67z"/>
<path fill-rule="evenodd" clip-rule="evenodd" fill="#F0EF82" stroke="#000000" stroke-width="0.5" stroke-linecap="square" stroke-miterlimit="10" d="  M386,446.92c7.698,1.898,13.216-1.857,13.5,7.5C394.765,452.241,390.563,449.374,386,446.92z"/>
<path fill-rule="evenodd" clip-rule="evenodd" fill="#F0EF82" stroke="#000000" stroke-width="0.5" stroke-linecap="square" stroke-miterlimit="10" d="  M405.5,465.67c-5.047-4.83-10.54-5.092-11.25-15C397.739,456.046,401.873,460.194,405.5,465.67z"/>
<path fill-rule="evenodd" clip-rule="evenodd" fill="#F0EF82" d="M348.5,452.17c-3.382,2.761-6.63,4.376-9,8.25  C342.5,457.67,345.5,454.92,348.5,452.17z"/>
<path fill="none" stroke="#000000" stroke-width="0.5" stroke-linecap="square" stroke-miterlimit="10" d="M348.5,452.17  c-3.709,1.867-6.859,4.751-9,8.25"/>
<path fill-rule="evenodd" clip-rule="evenodd" fill="#622A11" stroke="#000000" stroke-width="0.5" stroke-linecap="square" stroke-miterlimit="10" d="  M365.75,451.42C364.572,453.687,361.931,458.768,365.75,451.42L365.75,451.42z"/>
<path fill-rule="evenodd" clip-rule="evenodd" fill="#7A3313" stroke="#000000" stroke-width="0.5" stroke-linecap="square" stroke-miterlimit="10" d="  M354.5,460.42C357.225,469.26,357.473,470.067,354.5,460.42L354.5,460.42z"/>
<path fill-rule="evenodd" clip-rule="evenodd" fill="#622A11" stroke="#000000" stroke-width="0.5" stroke-linecap="square" stroke-miterlimit="10" d="  M344,449.17c-2.31,2.425-0.256,6.626-6,6.75C336.323,449.836,341.542,451.75,344,449.17z"/>
<path fill-rule="evenodd" clip-rule="evenodd" fill="#622A11" stroke="#000000" stroke-width="0.5" stroke-linecap="square" stroke-miterlimit="10" d="  M397.25,460.42c2.735,1.292,4.771-2.737,6.75,1.5C399.669,468.179,400.672,462.038,397.25,460.42z"/>
<path fill-rule="evenodd" clip-rule="evenodd" fill="#7A3313" stroke="#000000" stroke-width="0.5" stroke-linecap="square" stroke-miterlimit="10" d="  M417.5,456.67c-1.901,2.885-6.115,1.953-4.5,6.75C418.404,462.711,415.926,459.06,417.5,456.67z"/>
<path fill-rule="evenodd" clip-rule="evenodd" fill="#7A3313" stroke="#000000" stroke-width="0.5" stroke-linecap="square" stroke-miterlimit="10" d="  M353,448.42c1.919,3.114,7.246,1.453,3.75,6.75C351.768,453.93,354.373,450.648,353,448.42z"/>
<path fill-rule="evenodd" clip-rule="evenodd" fill="#7A3313" stroke="#000000" stroke-width="0.5" stroke-linecap="square" stroke-miterlimit="10" d="  M387.5,455.17c3.547-0.347,4.163-6.447,7.5,0.75C391.464,459.104,391.104,454.818,387.5,455.17z"/>
<path fill-rule="evenodd" clip-rule="evenodd" fill="#7A3313" stroke="#000000" stroke-width="0.5" stroke-linecap="square" stroke-miterlimit="10" d="  M364.25,449.17c-1.08,1.682-4.479,0.385-4.5,4.5c0.921,0.263,1.671,0.763,2.25,1.5C365.451,453.371,362.75,451.507,364.25,449.17z"/>
<path fill-rule="evenodd" clip-rule="evenodd" fill="#7A3313" stroke="#000000" stroke-width="0.5" stroke-linecap="square" stroke-miterlimit="10" d="  M350,455.92c2.38-2.237,8.134,1.177,3-5.25C348.391,451.492,350.932,455.044,350,455.92z"/>
<path fill-rule="evenodd" clip-rule="evenodd" fill="#7A3313" stroke="#000000" stroke-width="0.5" stroke-linecap="square" stroke-miterlimit="10" d="  M380.75,451.42c0.667,1.518,4.878,3.241,2.25,7.5C379.869,456.17,382.126,454.548,380.75,451.42z"/>
<path fill-rule="evenodd" clip-rule="evenodd" fill="#CEAB16" stroke="#000000" stroke-width="0.5" stroke-linecap="square" stroke-miterlimit="10" d="  M357.5,456.67C360.077,467.168,359.116,463.253,357.5,456.67L357.5,456.67z"/>
<path fill-rule="evenodd" clip-rule="evenodd" fill="#CEAB16" stroke="#000000" stroke-width="0.5" stroke-linecap="square" stroke-miterlimit="10" d="  M374,450.67c-1.717,2.091,0.686,6.739-6,6.75C367.131,452.367,371.916,453.208,374,450.67z"/>
<path fill-rule="evenodd" clip-rule="evenodd" fill="#CEAB16" stroke="#000000" stroke-width="0.5" stroke-linecap="square" stroke-miterlimit="10" d="  M419.75,452.92c-1.344,2.118-5.016,2.38-4.5,6.75C420.727,458.386,418.36,455.111,419.75,452.92z"/>
<path fill-rule="evenodd" clip-rule="evenodd" fill="#CEAB16" stroke="#000000" stroke-width="0.5" stroke-linecap="square" stroke-miterlimit="10" d="  M383.75,446.92c1.146,3.152,5.48,3.272,2.25,7.5C380.642,452.325,385.016,450.402,383.75,446.92z"/>
<path fill-rule="evenodd" clip-rule="evenodd" fill="#009239" stroke="#000000" stroke-width="0.5" stroke-linecap="square" stroke-miterlimit="10" d="  M477.5,434.17C475.074,434.578,472.886,434.945,477.5,434.17L477.5,434.17z"/>
<path fill-rule="evenodd" clip-rule="evenodd" fill="#009239" stroke="#000000" stroke-width="0.5" stroke-linecap="square" stroke-miterlimit="10" d="  M482.75,446.92c0.439,2.886,3.611,4.05,0.75,5.25C481.014,449.899,482.873,447.728,482.75,446.92z"/>
<path fill-rule="evenodd" clip-rule="evenodd" fill="#009239" stroke="#000000" stroke-width="0.5" stroke-linecap="square" stroke-miterlimit="10" d="  M484.25,443.17c0.499,2.725,4.37,2.804,3,6.75C477.81,448.474,484.751,445.904,484.25,443.17z"/>
<path fill-rule="evenodd" clip-rule="evenodd" fill="#009239" stroke="#000000" stroke-width="0.5" stroke-linecap="square" stroke-miterlimit="10" d="  M481.25,438.67c2.371,1.569,4.381-0.589,6.75,2.25C483.35,446.945,484.542,440.85,481.25,438.67z"/>
<path fill-rule="evenodd" clip-rule="evenodd" fill="#009239" stroke="#000000" stroke-width="0.5" stroke-linecap="square" stroke-miterlimit="10" d="  M476.75,436.42c2.163-2.176-1.486-5.951,3-5.25C483.203,437.796,478.315,434.845,476.75,436.42z"/>
<path fill-rule="evenodd" clip-rule="evenodd" fill="#009239" stroke="#000000" stroke-width="0.5" stroke-linecap="square" stroke-miterlimit="10" d="  M482,439.42c-0.509-1.166,3.986-3.07,2.25-5.25C474.845,440.749,481.879,439.142,482,439.42z"/>
<path fill-rule="evenodd" clip-rule="evenodd" fill="#C61256" stroke="#000000" stroke-width="0.5" stroke-linecap="square" stroke-miterlimit="10" d="  M477.5,437.92C478.026,433.97,478.243,432.343,477.5,437.92L477.5,437.92z"/>
<path fill-rule="evenodd" clip-rule="evenodd" fill="#C61256" stroke="#000000" stroke-width="0.5" stroke-linecap="square" stroke-miterlimit="10" d="  M479.75,442.42c0.445-2.188-3.997-3.599,0.75-5.25C485.217,440.278,480.186,440.284,479.75,442.42z"/>
<path fill-rule="evenodd" clip-rule="evenodd" fill="#C61256" stroke="#000000" stroke-width="0.5" stroke-linecap="square" stroke-miterlimit="10" d="  M482.75,447.67c0.309-1.418-3.228-3.033,0.75-5.25C488.481,445.995,483.228,445.472,482.75,447.67z"/>
<path fill-rule="evenodd" clip-rule="evenodd" fill="#C61256" stroke="#000000" stroke-width="0.5" stroke-linecap="square" stroke-miterlimit="10" d="  M474.5,437.92c0.17-2.258-4.996-3.292,0.75-5.25C478.545,436.082,474.605,436.516,474.5,437.92z"/>
<path fill-rule="evenodd" clip-rule="evenodd" fill="#C61256" stroke="#000000" stroke-width="0.5" stroke-linecap="square" stroke-miterlimit="10" d="  M476,441.67c0.266-1.811-4.236-3.67,0.75-6C480.861,439.811,476.23,440.101,476,441.67z"/>
<path fill-rule="evenodd" clip-rule="evenodd" fill="#C61256" stroke="#000000" stroke-width="0.5" stroke-linecap="square" stroke-miterlimit="10" d="  M479.75,446.17c0.131-2.752-6.018-3.729,0.75-6.75C485.294,443.729,479.852,444.027,479.75,446.17z"/>
<path fill-rule="evenodd" clip-rule="evenodd" fill="#C61256" stroke="#000000" stroke-width="0.5" stroke-linecap="square" stroke-miterlimit="10" d="  M482,451.42C482.209,444.323,482.183,445.204,482,451.42L482,451.42z"/>
<path fill-rule="evenodd" clip-rule="evenodd" fill="#C61256" stroke="#000000" stroke-width="0.5" stroke-linecap="square" stroke-miterlimit="10" d="  M470,439.42c0.258-2.939-5.138-4.061,0.75-6C475.229,436.983,470.227,436.833,470,439.42z"/>
<path fill-rule="evenodd" clip-rule="evenodd" fill="#C61256" stroke="#000000" stroke-width="0.5" stroke-linecap="square" stroke-miterlimit="10" d="  M471.5,441.67c0.263-1.833-5.478-3.332,0.75-4.5C476.727,440.077,471.708,440.218,471.5,441.67z"/>
<path fill-rule="evenodd" clip-rule="evenodd" fill="#C61256" stroke="#000000" stroke-width="0.5" stroke-linecap="square" stroke-miterlimit="10" d="  M474.5,446.17c0.054-2.717-6.129-4.301,1.5-6C479.409,444.325,474.542,444.031,474.5,446.17z"/>
<path fill-rule="evenodd" clip-rule="evenodd" fill="#C61256" stroke="#000000" stroke-width="0.5" stroke-linecap="square" stroke-miterlimit="10" d="  M477.5,449.17c0.283-2.824-5.312-3.728,0.75-6C482.72,446.726,477.762,446.569,477.5,449.17z"/>
<path fill-rule="evenodd" clip-rule="evenodd" fill="#C61256" stroke="#000000" stroke-width="0.5" stroke-linecap="square" stroke-miterlimit="10" d="  M478.25,452.92C478.783,447.704,478.8,447.543,478.25,452.92L478.25,452.92z"/>
<path fill-rule="evenodd" clip-rule="evenodd" fill="#C61256" stroke="#000000" stroke-width="0.5" stroke-linecap="square" stroke-miterlimit="10" d="  M467,443.17c0.013-0.261-3.563-1.475-1.5-5.25c0.835,0.112,1.585-0.138,2.25-0.75C471.735,440.812,467.088,441.37,467,443.17z"/>
<path fill-rule="evenodd" clip-rule="evenodd" fill="#C61256" stroke="#000000" stroke-width="0.5" stroke-linecap="square" stroke-miterlimit="10" d="  M470,446.17c0.047-2.297-5.222-3.02,0-5.25C476.342,443.518,470.048,443.847,470,446.17z"/>
<path fill-rule="evenodd" clip-rule="evenodd" fill="#C61256" stroke="#000000" stroke-width="0.5" stroke-linecap="square" stroke-miterlimit="10" d="  M473,449.17c-0.022-1.638-4.75-1.671,0-4.5C478.291,447.444,472.981,447.796,473,449.17z"/>
<path fill-rule="evenodd" clip-rule="evenodd" fill="#C61256" stroke="#000000" stroke-width="0.5" stroke-linecap="square" stroke-miterlimit="10" d="  M475.25,452.17C475.25,447.306,475.25,447.306,475.25,452.17L475.25,452.17z"/>
<path fill-rule="evenodd" clip-rule="evenodd" fill="#C61256" stroke="#000000" stroke-width="0.5" stroke-linecap="square" stroke-miterlimit="10" d="  M465.5,445.42C466.114,441.256,466.121,441.214,465.5,445.42L465.5,445.42z"/>
<path fill-rule="evenodd" clip-rule="evenodd" fill="#C61256" stroke="#000000" stroke-width="0.5" stroke-linecap="square" stroke-miterlimit="10" d="  M468.5,448.42c0.365-1.817-5.257-2.579,0.75-4.5C474.15,447.822,468.777,447.042,468.5,448.42z"/>
<path fill-rule="evenodd" clip-rule="evenodd" fill="#C61256" stroke="#000000" stroke-width="0.5" stroke-linecap="square" stroke-miterlimit="10" d="  M470.75,451.42C471.972,446.58,471.664,447.796,470.75,451.42L470.75,451.42z"/>
<path fill-rule="evenodd" clip-rule="evenodd" fill="#C61256" stroke="#000000" stroke-width="0.5" stroke-linecap="square" stroke-miterlimit="10" d="  M464.75,448.42C466.26,445.041,466.586,444.31,464.75,448.42L464.75,448.42z"/>
<path fill-rule="evenodd" clip-rule="evenodd" fill="#C61256" stroke="#000000" stroke-width="0.5" stroke-linecap="square" stroke-miterlimit="10" d="  M467.75,451.42C467.724,445.546,467.734,447.943,467.75,451.42L467.75,451.42z"/>
<path fill-rule="evenodd" clip-rule="evenodd" fill="#BFBEB2" stroke="#000000" stroke-width="0.5" stroke-linecap="square" stroke-miterlimit="10" d="  M356,437.92c4.811,6.539,53.588,14.3,42.375,29.25C381.93,489.097,356.752,440.412,356,437.92z"/>
<path fill-rule="evenodd" clip-rule="evenodd" fill="#BFBEB2" stroke="#000000" stroke-width="0.5" stroke-linecap="square" stroke-miterlimit="10" d="  M356.75,437.92c-4.772,0.59-9.114,9.659-6-3.75C351.887,435.154,355.349,438.093,356.75,437.92z"/>
<path fill-rule="evenodd" clip-rule="evenodd" fill="#1A6314" stroke="#000000" stroke-width="0.5" stroke-linecap="square" stroke-miterlimit="10" d="  M308.75,405.67c-15.377,8.821,10.568,20.018,22.5,24.75C376.783,448.479,323.623,415.763,308.75,405.67z"/>
<path fill-rule="evenodd" clip-rule="evenodd" fill="#F0EF82" stroke="#000000" stroke-width="0.5" stroke-linecap="square" stroke-miterlimit="10" d="  M380.75,462.67c15.019-4.294,22.076,7.002,10.5,17.25C387.996,474.575,382.434,468.637,380.75,462.67z"/>
<path fill-rule="evenodd" clip-rule="evenodd" fill="#F0EF82" stroke="#000000" stroke-width="0.5" stroke-linecap="square" stroke-miterlimit="10" d="  M384.5,486.67c8.949-0.715,13.857,0.528,9.75-12C391.033,478.629,387.299,482.414,384.5,486.67z"/>
<path fill-rule="evenodd" clip-rule="evenodd" fill="#F0EF82" stroke="#000000" stroke-width="0.5" stroke-linecap="square" stroke-miterlimit="10" d="  M382.25,488.17c11.378-6.314,12.119-18.206-2.25-21.75C380.033,473.126,379.883,481.724,382.25,488.17z"/>
<path fill-rule="evenodd" clip-rule="evenodd" fill="#F0EF82" stroke="#000000" stroke-width="0.5" stroke-linecap="square" stroke-miterlimit="10" d="  M374.75,487.42c4.479-4.297,13.647-1.23,1.5-10.5C375.75,480.42,375.25,483.92,374.75,487.42z"/>
<path fill-rule="evenodd" clip-rule="evenodd" fill="#F0EF82" stroke="#000000" stroke-width="0.5" stroke-linecap="square" stroke-miterlimit="10" d="  M384.5,473.17c16.696-3.638-0.751-14.418-9.75-18C374.093,465.415,378.534,467.774,384.5,473.17z"/>
<path fill-rule="evenodd" clip-rule="evenodd" fill="#F0EF82" stroke="#000000" stroke-width="0.5" stroke-linecap="square" stroke-miterlimit="10" d="  M368,481.42c-1.56-3.181-5.792-2.389-2.25-6.75C367.514,476.489,366.783,478.938,368,481.42z"/>
<path fill-rule="evenodd" clip-rule="evenodd" fill="#F0EF82" stroke="#000000" stroke-width="0.5" stroke-linecap="square" stroke-miterlimit="10" d="  M363.5,472.42c-21.736,0.866-11.043-17.798,4.5-21.75C366.561,457.627,366.298,465.928,363.5,472.42z"/>
<path fill-rule="evenodd" clip-rule="evenodd" fill="#F0EF82" stroke="#000000" stroke-width="0.5" stroke-linecap="square" stroke-miterlimit="10" d="  M362.75,460.42C361.429,431.505,391.309,455.888,362.75,460.42L362.75,460.42z"/>
<path fill-rule="evenodd" clip-rule="evenodd" fill="#F0EF82" stroke="#000000" stroke-width="0.5" stroke-linecap="square" stroke-miterlimit="10" d="  M386,461.92c-6.542-2.545-12.363-0.651-9-9c3.449,0.129,8.14,2.357,12,3C388.866,457.112,385.877,461.415,386,461.92z"/>
<path fill-rule="evenodd" clip-rule="evenodd" fill="#F0EF82" stroke="#000000" stroke-width="0.5" stroke-linecap="square" stroke-miterlimit="10" d="  M360.5,468.67c9.146,32.238,28.278,10.99,7.5-5.25C365.642,465.919,363.211,466.951,360.5,468.67z"/>
<path fill-rule="evenodd" clip-rule="evenodd" fill="#F0EF82" stroke="#000000" stroke-width="0.5" stroke-linecap="square" stroke-miterlimit="10" d="  M398,471.67c-0.717-2.991,5.701-6.429-5.25-9.75C388.702,470.775,394.359,468.03,398,471.67z"/>
<path fill-rule="evenodd" clip-rule="evenodd" fill="#F0EF82" stroke="#000000" stroke-width="0.5" stroke-linecap="square" stroke-miterlimit="10" d="  M374,452.92c-4.499,6.282-10.121,7.444-6,14.25C372.114,462.932,371.906,457.891,374,452.92z"/>
<path fill-rule="evenodd" clip-rule="evenodd" fill="#8DCAF3" stroke="#000000" stroke-width="0.75" stroke-linecap="square" stroke-miterlimit="10" d="  M380.75,469.42c-19.525,0.562-50.725-0.729-63-18c-7.329,76.775,134.836,76.899,128.25-1.5  C434.869,468.374,401.668,470.101,380.75,469.42z"/>
<path fill-rule="evenodd" clip-rule="evenodd" fill="#7A3313" stroke="#000000" stroke-width="0.5" stroke-linecap="square" stroke-miterlimit="10" d="  M368,467.17c0.109-1.532-5.9-0.382-0.75-6C376.009,463.462,368.241,463.799,368,467.17z"/>
<path fill-rule="evenodd" clip-rule="evenodd" fill="#7A3313" stroke="#000000" stroke-width="0.5" stroke-linecap="square" stroke-miterlimit="10" d="  M386,465.67c-0.442-0.417-6.468,3.385-2.25-6C388.283,461.344,384.417,464.175,386,465.67z"/>
<path fill-rule="evenodd" clip-rule="evenodd" fill="#622A11" stroke="#000000" stroke-width="0.5" stroke-linecap="square" stroke-miterlimit="10" d="  M374.75,454.42c1.752,4.277,9.943,5.569-0.75,6.75C372.502,458.242,375.676,456.681,374.75,454.42z"/>
<path fill-rule="evenodd" clip-rule="evenodd" fill="#CEAB16" stroke="#000000" stroke-width="0.5" stroke-linecap="square" stroke-miterlimit="10" d="  M371,462.67C370.483,458.887,370.14,456.376,371,462.67L371,462.67z"/>
<path fill-rule="evenodd" clip-rule="evenodd" fill="#CEAB16" stroke="#000000" stroke-width="0.5" stroke-linecap="square" stroke-miterlimit="10" d="  M395.75,458.92c0.018,0.008,3.741-2.27,6,0C398.506,467.242,398.804,460.181,395.75,458.92z"/>
</svg>