<svg xmlns="http://www.w3.org/2000/svg" xmlns:xlink="http://www.w3.org/1999/xlink" version="1.1" id="Layer_1" x="0px" y="0px" enable-background="new 0 0 822.05 841.89" xml:space="preserve" viewBox="260.51 251.7 300.59 337.65">
<path fill-rule="evenodd" clip-rule="evenodd" fill="#BCBEC0" stroke="#000000" stroke-width="2" stroke-linecap="square" stroke-miterlimit="10" d="  M271,385.64c-19.814-10.395-5.952-62.502,17.25-56.25C310.618,335.417,292.792,386.384,271,385.64z"/>
<path fill-rule="evenodd" clip-rule="evenodd" fill="#FFFFFF" stroke="#000000" stroke-width="2" stroke-linecap="square" stroke-miterlimit="10" d="  M273.25,378.14c-9.397-9.332-3.76-47.453,12.75-41.25C300.922,342.497,287.64,377.321,273.25,378.14z"/>
<path fill-rule="evenodd" clip-rule="evenodd" fill="#B3B3B3" stroke="#000000" stroke-width="2" stroke-linecap="square" stroke-miterlimit="10" d="  M322,308.39c-16.191-14.387-61.418,15.167-47.25,34.5C288.79,362.049,330.643,328.341,322,308.39z M313,326.39  c-11.78,11.358-41.238,25.048-29.25-1.5C291.452,307.834,328.709,304.296,313,326.39z"/>
<path fill-rule="evenodd" clip-rule="evenodd" fill="#B3B3B3" stroke="#000000" stroke-width="2" stroke-linecap="square" stroke-miterlimit="10" d="  M352,298.64c17.724-28.268-32.042-26.708-41.25,3.75C297.999,344.57,339.872,312.116,352,298.64z M316.75,316.64  c-5.896-13.033,16.152-43.63,29.25-32.25C359.339,295.979,330.084,320.574,316.75,316.64z"/>
<path fill-rule="evenodd" clip-rule="evenodd" fill="#B3B3B3" stroke="#000000" stroke-width="2" stroke-linecap="square" stroke-miterlimit="10" d="  M391.75,274.64c-8.429-18.969-56.969-13.354-57.75,8.25C333.074,308.52,392.675,299.012,391.75,274.64z M376,287.39  c-8.815,2.31-54.532-2.637-27.375-13.5C362.196,268.461,401.828,269.891,376,287.39z"/>
<path fill-rule="evenodd" clip-rule="evenodd" fill="#B3B3B3" stroke="#000000" stroke-width="2" stroke-linecap="square" stroke-miterlimit="10" d="  M430.75,264.89c-7.48-21.702-61.442-11.162-57,11.25C378.309,299.137,431.929,287.235,430.75,264.89z M415,277.64  c-13.92,3.715-49.345,4.829-25.5-14.25C403.192,252.435,437.621,261.803,415,277.64z"/>
<path fill-rule="evenodd" clip-rule="evenodd" fill="#B3B3B3" stroke="#000000" stroke-width="2" stroke-linecap="square" stroke-miterlimit="10" d="  M464.5,279.89c1.689-22.331-48.261-39.014-55.5-16.5C401.601,286.402,454.038,299.085,464.5,279.89z M445,283.64  c-15.317-2.885-45.078-17.851-16.5-24C446.211,255.829,472.022,281.261,445,283.64z"/>
<path fill-rule="evenodd" clip-rule="evenodd" fill="#B3B3B3" stroke="#000000" stroke-width="2" stroke-linecap="square" stroke-miterlimit="10" d="  M502,294.89c4.751-21.331-43.167-46.17-53.25-24.75C438.644,291.609,488.602,311.944,502,294.89z M481.75,295.64  c-14.136-5.31-43.102-24.808-12.75-26.25C486.289,268.569,510.142,296.966,481.75,295.64z"/>
<path fill-rule="evenodd" clip-rule="evenodd" fill="#B3B3B3" stroke="#000000" stroke-width="2" stroke-linecap="square" stroke-miterlimit="10" d="  M529.75,300.14c-12.397-12.84-56.349-44.879-42-2.25C497.678,327.385,547.857,327.874,529.75,300.14z M509.5,312.89  c-13.299-10.553-29.085-37.48-1.5-28.5C526.463,290.401,533.654,326.412,509.5,312.89z"/>
<path fill-rule="evenodd" clip-rule="evenodd" fill="#B3B3B3" stroke="#000000" stroke-width="2" stroke-linecap="square" stroke-miterlimit="10" d="  M547.75,337.64c-5.785-16.91-31.672-63.607-36.75-19.5C507.318,350.118,552.977,370.819,547.75,337.64z M536.5,348.89  c-14.946-1.792-30.721-37.956-12.375-41.625C540.49,303.992,545.08,339.482,536.5,348.89z"/>
<path fill-rule="evenodd" clip-rule="evenodd" fill="#B3B3B3" stroke="#000000" stroke-width="2" stroke-linecap="square" stroke-miterlimit="10" d="  M559.75,372.14c-5.565-16.696-31.464-64.705-36.75-20.25C519.302,382.995,564.332,404.839,559.75,372.14z M548.5,382.64  c-13.185-1.719-30.539-37.638-14.25-41.25C552.207,337.409,557.732,372.516,548.5,382.64z"/>
<path fill-rule="evenodd" clip-rule="evenodd" fill="#BCBEC0" stroke="#000000" stroke-width="2" stroke-linecap="square" stroke-miterlimit="10" d="  M271,485.39c-17.587-10.456-7.262-58.602,14.25-56.25C310.694,431.921,294.912,489.36,271,485.39z"/>
<path fill-rule="evenodd" clip-rule="evenodd" fill="#FFFFFF" stroke="#000000" stroke-width="2" stroke-linecap="square" stroke-miterlimit="10" d="  M273.25,478.64c-9.598-10.111-5.667-42,10.875-42C301.276,436.64,287.69,475.775,273.25,478.64z"/>
<path fill-rule="evenodd" clip-rule="evenodd" fill="#B3B3B3" stroke="#000000" stroke-width="2" stroke-linecap="square" stroke-miterlimit="10" d="  M322,408.14c-15.705-12.942-57.877,12.492-48.75,32.25C284.135,463.954,333.22,429.81,322,408.14z M313,426.89  c-12.401,11.033-41.445,24.37-29.25-2.25C291.764,407.147,329.117,404.779,313,426.89z"/>
<path fill-rule="evenodd" clip-rule="evenodd" fill="#B3B3B3" stroke="#000000" stroke-width="2" stroke-linecap="square" stroke-miterlimit="10" d="  M352,399.14c5.139-8.194,4.777-19.585-6-23.25c-13.938-4.74-25.864,15.822-33.144,23.91c-6.914,7.682-8.018,17.411,0.894,24.09  C327.92,434.51,345.17,406.476,352,399.14z M316.75,416.39c-5.842-12.724,16.429-42.973,29.25-32.25  C359.367,395.319,330.011,421.124,316.75,416.39z"/>
<path fill-rule="evenodd" clip-rule="evenodd" fill="#B3B3B3" stroke="#000000" stroke-width="2" stroke-linecap="square" stroke-miterlimit="10" d="  M391.75,375.14c-8.137-19.011-56.669-14.233-57.75,7.5C332.73,408.161,392.581,399.72,391.75,375.14z M376,387.14  c-11.179,3.781-52.827-2.569-27.375-12.75C362.146,368.981,401.715,371.405,376,387.14z"/>
<path fill-rule="evenodd" clip-rule="evenodd" fill="#B3B3B3" stroke="#000000" stroke-width="2" stroke-linecap="square" stroke-miterlimit="10" d="  M430.75,365.39c-7.478-21.634-61.286-12.154-57,10.5C378.101,398.886,431.838,387.896,430.75,365.39z M415,377.39  c-15.648,5.603-47.136,4.63-25.5-13.5C403.598,352.077,437.662,363.155,415,377.39z"/>
<path fill-rule="evenodd" clip-rule="evenodd" fill="#B3B3B3" stroke="#000000" stroke-width="2" stroke-linecap="square" stroke-miterlimit="10" d="  M464.5,379.64c1.704-22.063-49.45-38.431-55.5-15.75C402.907,386.731,454.479,399.259,464.5,379.64z M445,384.14  c-15.94-3.165-44.895-17.901-16.5-24C446.083,356.364,472.496,380.565,445,384.14z"/>
<path fill-rule="evenodd" clip-rule="evenodd" fill="#B3B3B3" stroke="#000000" stroke-width="2" stroke-linecap="square" stroke-miterlimit="10" d="  M502,394.64c4.53-21.568-43.809-45.953-53.25-24C439.326,392.552,488.811,412.41,502,394.64z M481.75,395.39  c-17.363-5.121-40.615-23.115-12.75-25.5C488.541,368.218,508.783,399.009,481.75,395.39z"/>
<path fill-rule="evenodd" clip-rule="evenodd" fill="#B3B3B3" stroke="#000000" stroke-width="2" stroke-linecap="square" stroke-miterlimit="10" d="  M529.75,399.89c-12.361-12.803-55.753-44.024-42-2.25C497.651,427.717,548.15,428.268,529.75,399.89z M509.5,413.39  c-8.009-6.355-27.678-44.957-3.375-30.375C520.479,391.627,536.051,427.24,509.5,413.39z"/>
<path fill-rule="evenodd" clip-rule="evenodd" fill="#B3B3B3" stroke="#000000" stroke-width="2" stroke-linecap="square" stroke-miterlimit="10" d="  M547.75,438.14c-5.829-17.04-31.992-64.004-36.75-19.5C507.7,449.5,552.156,471.571,547.75,438.14z M536.5,448.64  c-14.507-0.813-28.891-30.27-15.75-40.125C534.526,398.183,547.684,438.368,536.5,448.64z"/>
<path fill-rule="evenodd" clip-rule="evenodd" fill="#B3B3B3" stroke="#000000" stroke-width="2" stroke-linecap="square" stroke-miterlimit="10" d="  M559.75,471.89c-5.829-17.04-31.992-64.004-36.75-19.5C519.665,483.583,564.454,505.097,559.75,471.89z M548.5,482.39  c-14.026-0.906-28.812-30.329-15.75-40.125C546.526,431.933,559.684,472.118,548.5,482.39z"/>
<path fill-rule="evenodd" clip-rule="evenodd" fill="#BCBEC0" stroke="#000000" stroke-width="2" stroke-linecap="square" stroke-miterlimit="10" d="  M271,585.14c-19.752-9.953-5.387-63.792,17.25-56.25C310.167,536.193,293.495,588.259,271,585.14z"/>
<path fill-rule="evenodd" clip-rule="evenodd" fill="#FFFFFF" stroke="#000000" stroke-width="2" stroke-linecap="square" stroke-miterlimit="10" d="  M273.25,577.64c-10.263-9.133-3.627-46.866,12.75-41.25C301.777,541.801,287.046,576.357,273.25,577.64z"/>
<path fill-rule="evenodd" clip-rule="evenodd" fill="#B3B3B3" stroke="#000000" stroke-width="2" stroke-linecap="square" stroke-miterlimit="10" d="  M322,507.89c-15.557-13.164-58.076,12.647-48.75,32.25C284.331,563.43,333.211,529.543,322,507.89z M313,525.89  c-9.618,9.273-48.9,18.15-30.75,0C291.639,516.501,330.178,499.681,313,525.89z"/>
<path fill-rule="evenodd" clip-rule="evenodd" fill="#B3B3B3" stroke="#000000" stroke-width="2" stroke-linecap="square" stroke-miterlimit="10" d="  M352,498.89c5.141-8.24,4.756-19.521-6-23.25c-13.976-4.846-25.728,15.67-33.144,23.91c-7.179,7.977-8.004,17.896,1.644,24.09  C329.174,533.059,344.585,506.854,352,498.89z M316.75,516.14c-5.051-12.904,14.306-42.124,29.25-32.25  C360.061,493.181,329.764,520.402,316.75,516.14z"/>
<path fill-rule="evenodd" clip-rule="evenodd" fill="#B3B3B3" stroke="#000000" stroke-width="2" stroke-linecap="square" stroke-miterlimit="10" d="  M391.75,474.14c-8.825-18.611-56.915-13.404-57.75,8.25C333.015,507.946,392.822,499.226,391.75,474.14z M376,486.89  c-11.619,3.93-53.124-3.2-27.375-13.5C362.489,467.844,401.341,470.195,376,486.89z"/>
<path fill-rule="evenodd" clip-rule="evenodd" fill="#B3B3B3" stroke="#000000" stroke-width="2" stroke-linecap="square" stroke-miterlimit="10" d="  M430.75,465.14c-7.442-22.284-61.294-12.166-57,10.5C378.107,498.636,431.838,487.646,430.75,465.14z M415,477.14  c-15.49,5.546-47.375,4.751-25.5-13.5C403.708,451.786,437.748,463.22,415,477.14z"/>
<path fill-rule="evenodd" clip-rule="evenodd" fill="#B3B3B3" stroke="#000000" stroke-width="2" stroke-linecap="square" stroke-miterlimit="10" d="  M464.5,479.39c1.701-22.021-50.6-38.685-56.25-15.75C402.648,486.378,454.564,498.839,464.5,479.39z M445,483.14  c-9.994-1.546-47.432-24-18.375-24C443.185,459.14,473.986,481.357,445,483.14z"/>
<path fill-rule="evenodd" clip-rule="evenodd" fill="#B3B3B3" stroke="#000000" stroke-width="2" stroke-linecap="square" stroke-miterlimit="10" d="  M502,494.39c4.55-21.218-42.688-45.927-53.25-24.75C437.938,491.319,488.664,511.732,502,494.39z M481.75,495.14  c-24.499-7.225-33.059-36.028-9.586-24.727C482.494,475.387,511.992,499.39,481.75,495.14z"/>
<path fill-rule="evenodd" clip-rule="evenodd" fill="#B3B3B3" stroke="#000000" stroke-width="2" stroke-linecap="square" stroke-miterlimit="10" d="  M529.75,499.64c-12.367-12.809-56.237-44.633-42-2.25C497.752,527.167,548.085,528.084,529.75,499.64z M509.5,513.14  c-11.959-10.564-29.722-37.963-1.5-29.25C525.453,489.279,534.739,524.968,509.5,513.14z"/>
<path fill-rule="evenodd" clip-rule="evenodd" fill="#B3B3B3" stroke="#000000" stroke-width="2" stroke-linecap="square" stroke-miterlimit="10" d="  M547.75,537.89c-5.839-17.068-31.967-64.263-36.75-19.5C507.703,549.25,552.156,571.321,547.75,537.89z M536.5,548.39  c-14.658,0.065-28.249-30.751-15.75-40.125C534.86,497.682,547.461,538.148,536.5,548.39z"/>
<path fill-rule="evenodd" clip-rule="evenodd" fill="#B3B3B3" stroke="#000000" stroke-width="2" stroke-linecap="square" stroke-miterlimit="10" d="  M559.75,571.64c-5.829-17.04-31.992-64.004-36.75-19.5C519.7,583,564.156,605.071,559.75,571.64z M548.5,582.14  c-14.026-0.906-28.812-30.329-15.75-40.125C546.781,531.492,559.657,571.892,548.5,582.14z"/>
</svg>