<svg xmlns="http://www.w3.org/2000/svg" xmlns:xlink="http://www.w3.org/1999/xlink" version="1.1" id="Layer_1" x="0px" y="0px" enable-background="new 0 0 822.05 841.89" xml:space="preserve" viewBox="309.2 346.59 199.55 151.69">
<path fill-rule="evenodd" clip-rule="evenodd" fill="#724211" stroke="#000000" stroke-width="1.25" stroke-linecap="square" stroke-miterlimit="10" d="  M454.875,347.213c-18.858-0.083-9.75,36.791-9.75,52.507c0,13.355-9.12,75.122,0,84.743c12.928,13.639,9.75-49.097,9.75-52.507  C454.875,403.709,454.875,375.461,454.875,347.213z"/>
<path fill-rule="evenodd" clip-rule="evenodd" fill="#724211" stroke="#000000" stroke-width="1.25" stroke-linecap="square" stroke-miterlimit="10" d="  M500.625,424.463c-12.132,0.74-17.854,51.749-9,60C503.498,495.527,500.625,431.708,500.625,424.463z"/>
<path fill-rule="evenodd" clip-rule="evenodd" fill="#724211" stroke="#000000" stroke-width="1.25" stroke-linecap="square" stroke-miterlimit="10" d="  M473.625,435.713c-13.405,0.294-18.818,51.055-9.75,60C476.479,508.145,473.625,442.723,473.625,435.713z"/>
<path fill-rule="evenodd" clip-rule="evenodd" fill="#F8130D" stroke="#000000" stroke-width="1.25" stroke-linecap="square" stroke-miterlimit="10" d="  M427.125,363.713c9.25-5.25,18.5-10.5,27.75-15.75c6.482,21.637-12.588,26.575-27.75,36  C427.125,377.523,425.747,369.966,427.125,363.713z"/>
<path fill-rule="evenodd" clip-rule="evenodd" fill="#F8130D" stroke="#000000" stroke-width="1.25" stroke-linecap="square" stroke-miterlimit="10" d="  M508.125,429.713c-10.05,19.236-88.446,22.231-83.625-1.875C429.372,403.478,499.873,410.481,508.125,429.713z"/>
<path fill-rule="evenodd" clip-rule="evenodd" fill="#724211" stroke="#000000" stroke-width="1.25" stroke-linecap="square" stroke-miterlimit="10" d="  M427.875,358.463c-18.859-0.083-9.75,36.791-9.75,52.507c0,13.355-9.12,75.122,0,84.743c12.928,13.639,9.75-49.097,9.75-52.507  C427.875,414.959,427.875,386.711,427.875,358.463z"/>
<path fill-rule="evenodd" clip-rule="evenodd" fill="#724211" stroke="#000000" stroke-width="1.25" stroke-linecap="square" stroke-miterlimit="10" d="  M350.625,347.213c-17.688,0.574-9,37.222-9,52.507c0,12.888-8.976,75.706,0,84.743c12.191,12.273,9-48.808,9-52.507  C350.625,403.709,350.625,375.461,350.625,347.213z"/>
<path fill-rule="evenodd" clip-rule="evenodd" fill="#724211" stroke="#000000" stroke-width="1.25" stroke-linecap="square" stroke-miterlimit="10" d="  M397.125,424.463c-13.405,0.294-18.819,51.055-9.75,60C399.979,496.895,397.125,431.473,397.125,424.463z"/>
<path fill-rule="evenodd" clip-rule="evenodd" fill="#724211" stroke="#000000" stroke-width="1.25" stroke-linecap="square" stroke-miterlimit="10" d="  M369.375,435.713c-12.132,0.74-17.854,51.749-9,60C372.249,506.777,369.375,442.958,369.375,435.713z"/>
<path fill-rule="evenodd" clip-rule="evenodd" fill="#F8130D" stroke="#000000" stroke-width="1.25" stroke-linecap="square" stroke-miterlimit="10" d="  M322.875,363.713c9.5-5.25,19-10.5,28.5-15.75c6.558,21.894-13.111,26.686-28.5,36C322.875,377.528,321.488,369.959,322.875,363.713  z"/>
<path fill-rule="evenodd" clip-rule="evenodd" fill="#F8130D" stroke="#000000" stroke-width="1.25" stroke-linecap="square" stroke-miterlimit="10" d="  M404.625,429.713c-12.339,19.898-91.749,17.498-84-1.875C330.245,403.789,394.068,409.493,404.625,429.713z"/>
<path fill-rule="evenodd" clip-rule="evenodd" fill="#724211" stroke="#000000" stroke-width="1.25" stroke-linecap="square" stroke-miterlimit="10" d="  M323.625,358.463c-18.859-0.083-9.75,36.791-9.75,52.507c0,13.355-9.12,75.122,0,84.743c12.928,13.639,9.75-49.097,9.75-52.507  C323.625,414.959,323.625,386.711,323.625,358.463z"/>
</svg>