<svg xmlns="http://www.w3.org/2000/svg" xmlns:xlink="http://www.w3.org/1999/xlink" version="1.1" id="Layer_1" x="0px" y="0px" enable-background="new 0 0 822.05 841.89" xml:space="preserve" viewBox="205.4 297.77 409.47 244.19">
<path fill-rule="evenodd" clip-rule="evenodd" fill="#F9CBDF" d="M217.75,348.212c62.058-12.193,124.116-24.386,186.174-36.58  c26.36-5.179,77.438-30.995,84.201,9.58c6.697,40.183-55.562,39.13-85.19,47.365c-59.229,16.462-118.457,32.923-177.685,49.385  C222.75,394.712,220.25,371.462,217.75,348.212z"/>
<path fill="none" stroke="#000000" stroke-width="2" stroke-linecap="square" stroke-miterlimit="10" d="M217.75,348.212  c62.058-12.193,124.116-24.386,186.174-36.58c26.36-5.179,77.438-30.995,84.201,9.58c6.697,40.183-55.562,39.13-85.19,47.365  c-59.229,16.462-118.457,32.923-177.685,49.385C222.75,394.712,220.25,371.462,217.75,348.212z"/>
<path fill-rule="evenodd" clip-rule="evenodd" fill="#F9CBDF" d="M229.75,382.712c4.723,36.852-18.739,48.105-22.875,6.75  C202.891,349.616,225.27,337.519,229.75,382.712z"/>
<path fill="none" stroke="#000000" stroke-width="2" stroke-linecap="square" stroke-miterlimit="10" d="M229.75,382.712  c4.723,36.852-18.739,48.105-22.875,6.75C202.891,349.616,225.27,337.519,229.75,382.712z"/>
<path fill-rule="evenodd" clip-rule="evenodd" fill="#E6E9A4" d="M282.25,380.462c62.058-12.011,124.116-24.022,186.174-36.034  c25.124-4.863,77.548-30.885,84.201,9.034c6.831,40.986-54.805,39.516-85.19,47.873c-59.228,16.292-118.456,32.583-177.685,48.875  C287.25,426.961,284.75,403.712,282.25,380.462z"/>
<path fill="none" stroke="#000000" stroke-width="2" stroke-linecap="square" stroke-miterlimit="10" d="M282.25,380.462  c62.058-12.011,124.116-24.022,186.174-36.034c25.124-4.863,77.548-30.885,84.201,9.034c6.831,40.986-54.805,39.516-85.19,47.873  c-59.228,16.292-118.456,32.583-177.685,48.875C287.25,426.961,284.75,403.712,282.25,380.462z"/>
<path fill-rule="evenodd" clip-rule="evenodd" fill="#E6E9A4" d="M294.25,415.712c5.885,40.382-18.708,43.523-23.25,2.25  C266.483,376.914,289.427,375.501,294.25,415.712z"/>
<path fill="none" stroke="#000000" stroke-width="2" stroke-linecap="square" stroke-miterlimit="10" d="M294.25,415.712  c5.885,40.382-18.708,43.523-23.25,2.25C266.483,376.914,289.427,375.501,294.25,415.712z"/>
<path fill-rule="evenodd" clip-rule="evenodd" fill="#A4C096" d="M343,422.462c62.058-12.011,124.116-24.022,186.174-36.034  c25.21-4.879,77.544-30.909,84.201,9.034c6.697,40.183-55.562,39.13-85.19,47.364C468.957,459.288,409.729,475.75,350.5,492.21  C348,468.961,345.5,445.711,343,422.462z"/>
<path fill="none" stroke="#000000" stroke-width="2" stroke-linecap="square" stroke-miterlimit="10" d="M343,422.462  c62.058-12.011,124.116-24.022,186.174-36.034c25.21-4.879,77.544-30.909,84.201,9.034c6.697,40.183-55.562,39.13-85.19,47.364  C468.957,459.288,409.729,475.75,350.5,492.21C348,468.961,345.5,445.711,343,422.462z"/>
<path fill-rule="evenodd" clip-rule="evenodd" fill="#A4C096" d="M355,457.71c4.351,37.289-15.427,45.116-23.25,6  C323.753,423.726,349.07,412.578,355,457.71z"/>
<path fill="none" stroke="#000000" stroke-width="2" stroke-linecap="square" stroke-miterlimit="10" d="M355,457.71  c4.351,37.289-15.427,45.116-23.25,6C323.753,423.726,349.07,412.578,355,457.71z"/>
<path fill-rule="evenodd" clip-rule="evenodd" fill="#BEE7FB" d="M313.75,471.21c62.058-12.011,124.116-24.021,186.174-36.032  c25.586-4.952,77.552-30.862,84.201,9.032c6.826,40.955-54.829,39.522-85.19,47.874c-59.228,16.292-118.456,32.584-177.685,48.876  C318.75,517.71,316.25,494.46,313.75,471.21z"/>
<path fill="none" stroke="#000000" stroke-width="2" stroke-linecap="square" stroke-miterlimit="10" d="M313.75,471.21  c62.058-12.011,124.116-24.021,186.174-36.032c25.586-4.952,77.552-30.862,84.201,9.032c6.826,40.955-54.829,39.522-85.19,47.874  c-59.228,16.292-118.456,32.584-177.685,48.876C318.75,517.71,316.25,494.46,313.75,471.21z"/>
<path fill-rule="evenodd" clip-rule="evenodd" fill="#BEE7FB" d="M325.75,506.46c4.879,36.971-18.781,46.938-22.875,6  C298.786,471.568,322.415,461.778,325.75,506.46z"/>
<path fill="none" stroke="#000000" stroke-width="2" stroke-linecap="square" stroke-miterlimit="10" d="M325.75,506.46  c4.879,36.971-18.781,46.938-22.875,6C298.786,471.568,322.415,461.778,325.75,506.46z"/>
</svg>