<svg xmlns="http://www.w3.org/2000/svg" xmlns:xlink="http://www.w3.org/1999/xlink" version="1.1" id="Layer_1" x="0px" y="0px" enable-background="new 0 0 822.05 841.89" xml:space="preserve" viewBox="215.99 293.51 389.76 259.9">
<path fill-rule="evenodd" clip-rule="evenodd" fill="#E6E9A4" d="M229.5,452.14c74.496-35.435,148.992-70.87,223.488-106.305  c32.06-15.25,114.387-82.226,141.762-34.32c7.964,13.937,17.215,35.824,1.249,45.023c-36.416,20.981-72.832,41.962-109.248,62.944  c-74,42.636-148,85.272-222.001,127.908C253,515.64,241.25,483.89,229.5,452.14z"/>
<path fill="none" stroke="#000000" stroke-width="2" stroke-linecap="square" stroke-miterlimit="10" d="M229.5,452.14  c74.496-35.435,148.992-70.87,223.488-106.305c32.06-15.25,114.387-82.226,141.762-34.32c7.964,13.937,17.215,35.824,1.249,45.023  c-36.416,20.981-72.832,41.962-109.248,62.944c-74,42.636-148,85.272-222.001,127.908C253,515.64,241.25,483.89,229.5,452.14z"/>
<path fill-rule="evenodd" clip-rule="evenodd" fill="#E6E9A4" d="M258,496.39c3.314,8.975,18.852,49.787,3,55.5  c-15.276,5.506-31.18-33.802-34.5-42.75c-3.174-8.555-17.808-49.559-3-55.5C238.752,447.521,254.79,487.79,258,496.39z"/>
<path fill="none" stroke="#000000" stroke-width="2" stroke-linecap="square" stroke-miterlimit="10" d="M258,496.39  c3.314,8.975,18.852,49.787,3,55.5c-15.276,5.506-31.18-33.802-34.5-42.75c-3.174-8.555-17.808-49.559-3-55.5  C238.752,447.521,254.79,487.79,258,496.39z"/>
</svg>