<svg xmlns="http://www.w3.org/2000/svg" xmlns:xlink="http://www.w3.org/1999/xlink" version="1.1" id="Layer_1" x="0px" y="0px" enable-background="new 0 0 822.05 841.89" xml:space="preserve" viewBox="314.37 340.59 191.41 161.71">
<path fill-rule="evenodd" clip-rule="evenodd" fill="#7F5916" stroke="#000000" stroke-width="0.5" stroke-linecap="square" stroke-miterlimit="10" d="  M365.252,356.14c11.368,29.051-34.527,48.993-48,21C302.927,347.375,351.158,329.35,365.252,356.14z"/>
<path fill-rule="evenodd" clip-rule="evenodd" fill="#AF832C" stroke="#000000" stroke-width="0.5" stroke-linecap="square" stroke-miterlimit="10" d="  M365.252,353.14c10.087,29.861-34.648,50.143-48,21C303.711,344.585,349.444,328.007,365.252,353.14z"/>
<path fill-rule="evenodd" clip-rule="evenodd" fill="#7F5916" d="M318.752,369.64c1.51-2.031,0.416-2.907,2.25-2.25  C321.595,367.319,320.399,367.425,318.752,369.64z"/>
<path fill-rule="evenodd" clip-rule="evenodd" fill="#7F5916" d="M318.752,366.64C320.773,364.484,321.392,363.825,318.752,366.64  L318.752,366.64z"/>
<path fill-rule="evenodd" clip-rule="evenodd" fill="#7F5916" d="M318.752,363.64C320.839,363.568,322.101,363.524,318.752,363.64  L318.752,363.64z"/>
<path fill-rule="evenodd" clip-rule="evenodd" fill="#7F5916" d="M318.752,360.64C320.769,361.494,321.833,361.945,318.752,360.64  L318.752,360.64z"/>
<path fill-rule="evenodd" clip-rule="evenodd" fill="#7F5916" d="M319.502,358.39c2.379,1.065,2.842,0.321,1.5,0  C321.99,361.218,321.85,359.441,319.502,358.39z M320.252,359.14C319.906,358.499,319.365,357.496,320.252,359.14L320.252,359.14z"/>
<path fill-rule="evenodd" clip-rule="evenodd" fill="#7F5916" d="M320.252,356.89C321.441,355.919,323.268,354.428,320.252,356.89  L320.252,356.89z M321.002,356.14C320.649,355.787,320.649,355.787,321.002,356.14L321.002,356.14z M321.752,356.89  C322.576,356.066,322.576,356.066,321.752,356.89L321.752,356.89z"/>
<path fill-rule="evenodd" clip-rule="evenodd" fill="#7F5916" d="M321.002,353.89c3.806-0.305,0.889-0.425,1.5-0.75  c0.053,0.029,1.869,1.118,1.5,0.75c-1.03-0.677-1.03-0.927,0-0.75C323.083,356.692,322.289,353.787,321.002,353.89z"/>
<path fill-rule="evenodd" clip-rule="evenodd" fill="#7F5916" d="M323.252,351.64C325.792,352.166,324.378,351.874,323.252,351.64  L323.252,351.64z"/>
<path fill-rule="evenodd" clip-rule="evenodd" fill="#7F5916" d="M324.752,350.14c1.994-0.398,2.056-0.871,2.25-2.25  c0.352,0.584,0.489,1.588,0.75,2.25c-0.25-0.75,0-1,0.75-0.75C327.088,351.629,327.194,349.653,324.752,350.14z"/>
<path fill-rule="evenodd" clip-rule="evenodd" fill="#7F5916" d="M328.502,347.14C329.418,347.877,332.092,350.027,328.502,347.14  L328.502,347.14z"/>
<path fill-rule="evenodd" clip-rule="evenodd" fill="#7F5916" d="M329.252,346.39C331.444,347.548,333.015,348.378,329.252,346.39  L329.252,346.39z"/>
<path fill-rule="evenodd" clip-rule="evenodd" fill="#7F5916" d="M361.502,359.14C358.693,361.903,360.103,360.517,361.502,359.14  L361.502,359.14z M361.502,359.89C359.555,361.311,360.133,360.889,361.502,359.89L361.502,359.89z"/>
<path fill-rule="evenodd" clip-rule="evenodd" fill="#7F5916" d="M360.752,362.14C359.928,362.964,359.928,362.964,360.752,362.14  L360.752,362.14z"/>
<path fill-rule="evenodd" clip-rule="evenodd" fill="#7F5916" d="M360.752,364.39c0.207,0.832-1.677,1.864,0-1.5  c0.5,0.5,1,1,1.5,1.5C361.059,364.39,360.6,363.776,360.752,364.39z"/>
<path fill-rule="evenodd" clip-rule="evenodd" fill="#7F5916" d="M360.752,365.89C359.108,366.777,360.11,366.236,360.752,365.89  L360.752,365.89z"/>
<path fill-rule="evenodd" clip-rule="evenodd" fill="#7F5916" d="M360.002,368.14c-0.988,1.435-2.009,0.54,1.5,0  C359.559,368.282,360.012,368.125,360.002,368.14z"/>
<path fill-rule="evenodd" clip-rule="evenodd" fill="#7F5916" d="M360.002,371.14c-1.757,0.755-0.54,2.341-2.25,0.75  c0.75,0.25,1,0,0.75-0.75C355.787,372.41,358.331,371.858,360.002,371.14z"/>
<path fill-rule="evenodd" clip-rule="evenodd" fill="#7F5916" d="M356.252,374.89c-1.926,0.744-1.093-0.454,0.75-1.5  c0.001,0.014,0.662,2.173,0.75,2.25C356.714,375.053,356.296,374.873,356.252,374.89z"/>
<path fill-rule="evenodd" clip-rule="evenodd" fill="#7F5916" d="M353.252,379.39C352.024,374.452,352.977,378.284,353.252,379.39  L353.252,379.39z"/>
<path fill-rule="evenodd" clip-rule="evenodd" fill="#7F5916" d="M351.002,377.89C351.384,380.048,351.448,380.414,351.002,377.89  L351.002,377.89z M351.002,379.39C351.826,380.214,351.826,380.214,351.002,379.39L351.002,379.39z"/>
<path fill-rule="evenodd" clip-rule="evenodd" fill="#7F5916" d="M349.502,378.64C349.299,379.708,348.758,382.564,349.502,378.64  L349.502,378.64z M349.502,380.14C348.678,380.964,348.678,380.964,349.502,380.14L349.502,380.14z"/>
<path fill-rule="evenodd" clip-rule="evenodd" fill="#7F5916" d="M348.002,380.89c-1.209-0.118-1.378,1.275-2.25,0  C348.255,379.493,346.962,380.789,348.002,380.89z"/>
<path fill="none" stroke="#54390E" stroke-width="0.25" stroke-linecap="square" stroke-miterlimit="10" d="M363.002,354.64  c10.075,26.697-32.631,44.981-44.25,18.75C306.826,346.465,349.98,330.552,363.002,354.64z"/>
<path fill-rule="evenodd" clip-rule="evenodd" fill="#54390E" d="M325.502,370.39c0.585-0.44,4.788-4.314,7.5-5.25  c-2.165-6.767,0.642-7.594-0.75-15.75c9.069-3.918,20.408-4.573,21.75,8.25c1.673,15.984-13.494,12.544-19.5,23.25  C332.551,378.72,327.102,373.706,325.502,370.39z"/>
<path fill-rule="evenodd" clip-rule="evenodd" fill="#7F5916" d="M324.752,369.64c6.425-5.176,8.841-11.75,6.75-21  c3.31-1.552,14.411-2.663,21-1.5c5.268,23.694-9.746,20.373-20.25,33C330.914,375.613,326.461,373.291,324.752,369.64z"/>
<path fill-rule="evenodd" clip-rule="evenodd" fill="#AFAFAF" stroke="#000000" stroke-width="0.5" stroke-linecap="square" stroke-miterlimit="10" d="  M464.254,365.14c7.356,21.835-24.949,36.949-35.25,15.75C418.073,358.396,452.23,347.177,464.254,365.14z"/>
<path fill-rule="evenodd" clip-rule="evenodd" fill="#858585" d="M430.504,377.14C431.094,375.738,431.904,373.812,430.504,377.14  L430.504,377.14z"/>
<path fill-rule="evenodd" clip-rule="evenodd" fill="#858585" d="M429.754,374.89C431.695,373.544,432.229,373.174,429.754,374.89  L429.754,374.89z"/>
<path fill-rule="evenodd" clip-rule="evenodd" fill="#858585" d="M429.754,373.39C431.033,372.373,432.365,371.314,429.754,373.39  L429.754,373.39z"/>
<path fill-rule="evenodd" clip-rule="evenodd" fill="#858585" d="M429.754,370.39C432.328,372.028,432.133,371.903,429.754,370.39  L429.754,370.39z"/>
<path fill-rule="evenodd" clip-rule="evenodd" fill="#858585" d="M430.504,368.89C432.99,370.035,432.463,369.792,430.504,368.89  L430.504,368.89z M431.254,369.64C430.908,368.999,430.367,367.996,431.254,369.64L431.254,369.64z"/>
<path fill-rule="evenodd" clip-rule="evenodd" fill="#858585" d="M431.254,368.14C433.11,366.497,432.222,367.283,431.254,368.14  L431.254,368.14z M432.004,367.39C431.181,366.566,431.181,366.566,432.004,367.39L432.004,367.39z M432.004,367.39  C433.647,368.277,432.646,367.736,432.004,367.39L432.004,367.39z"/>
<path fill-rule="evenodd" clip-rule="evenodd" fill="#858585" d="M432.004,365.89C433.658,365.391,434.287,365.201,432.004,365.89  L432.004,365.89z"/>
<path fill-rule="evenodd" clip-rule="evenodd" fill="#858585" d="M432.754,363.64C435.786,364.52,435.16,364.338,432.754,363.64  L432.754,363.64z"/>
<path fill-rule="evenodd" clip-rule="evenodd" fill="#858585" d="M434.254,362.89c2.209-0.139,0.448-2.468,3,0  C436.025,363.821,436.998,362.718,434.254,362.89z"/>
<path fill-rule="evenodd" clip-rule="evenodd" fill="#858585" d="M437.254,360.64C437.424,360.747,440.058,362.405,437.254,360.64  L437.254,360.64z"/>
<path fill-rule="evenodd" clip-rule="evenodd" fill="#858585" d="M438.004,359.89C438.004,359.89,441.492,362.132,438.004,359.89  L438.004,359.89z"/>
<path fill-rule="evenodd" clip-rule="evenodd" fill="#858585" d="M462.004,369.64C460.422,371.223,460.422,371.223,462.004,369.64  L462.004,369.64z M461.254,370.39C460.431,371.214,460.431,371.214,461.254,370.39L461.254,370.39z"/>
<path fill-rule="evenodd" clip-rule="evenodd" fill="#858585" d="M461.254,371.89C460.254,371.89,460.254,371.89,461.254,371.89  L461.254,371.89z"/>
<path fill-rule="evenodd" clip-rule="evenodd" fill="#858585" d="M461.254,373.39C460.205,373.49,462.387,373.282,461.254,373.39  L461.254,373.39z"/>
<path fill-rule="evenodd" clip-rule="evenodd" fill="#858585" d="M461.254,374.14C459.61,375.027,460.612,374.486,461.254,374.14  L461.254,374.14z"/>
<path fill-rule="evenodd" clip-rule="evenodd" fill="#858585" d="M460.504,376.39C460.273,376.507,461.493,375.889,460.504,376.39  L460.504,376.39z"/>
<path fill-rule="evenodd" clip-rule="evenodd" fill="#858585" d="M460.504,378.64C460.029,378.636,457.067,378.611,460.504,378.64  L460.504,378.64z"/>
<path fill-rule="evenodd" clip-rule="evenodd" fill="#858585" d="M458.254,380.89C457.705,381.313,458.114,380.998,458.254,380.89  L458.254,380.89z"/>
<path fill-rule="evenodd" clip-rule="evenodd" fill="#858585" d="M456.004,383.89C453.716,381.278,455.998,383.883,456.004,383.89  L456.004,383.89z"/>
<path fill-rule="evenodd" clip-rule="evenodd" fill="#858585" d="M453.754,383.14C453.832,384.125,453.997,386.204,453.754,383.14  L453.754,383.14z M453.754,383.89C454.577,384.714,454.577,384.714,453.754,383.89L453.754,383.89z"/>
<path fill-rule="evenodd" clip-rule="evenodd" fill="#858585" d="M453.004,383.89C452.43,385.536,451.853,387.19,453.004,383.89  L453.004,383.89z M452.254,384.64C453.077,385.464,453.077,385.464,452.254,384.64L452.254,384.64z"/>
<path fill-rule="evenodd" clip-rule="evenodd" fill="#858585" d="M451.504,385.39C449.66,386.147,451.041,385.581,451.504,385.39  L451.504,385.39z"/>
<path fill="none" stroke="#858585" stroke-width="0.25" stroke-linecap="square" stroke-miterlimit="10" d="M462.754,365.89  c5.972,19.434-19.635,32.07-31.875,15.75C417.375,363.635,450.559,347.875,462.754,365.89z"/>
<path fill-rule="evenodd" clip-rule="evenodd" fill="#858585" d="M435.004,377.89c1.376-1.966,8.95-27.91,19.5-16.5  c9.244,9.998-8.958,21.646-14.25,24C439.247,382.269,436.68,380.437,435.004,377.89z"/>
<path fill-rule="evenodd" clip-rule="evenodd" fill="#BFBDBB" d="M435.004,377.14c0.328-0.426,2.156-2.843,5.25-3.75  c-1.613-3.947,0.156-6.051-0.75-11.25c24.162-12.125,11.757,15.515,1.5,23.25C439.426,382.986,436.645,380.055,435.004,377.14z"/>
<path fill-rule="evenodd" clip-rule="evenodd" fill="#7C3709" stroke="#000000" stroke-width="0.5" stroke-linecap="square" stroke-miterlimit="10" d="  M435.754,443.89c8.567,25.274-30.204,42.846-42.002,18C381.223,435.505,421.956,421.589,435.754,443.89z"/>
<path fill-rule="evenodd" clip-rule="evenodd" fill="#994D10" stroke="#000000" stroke-width="0.5" stroke-linecap="square" stroke-miterlimit="10" d="  M434.254,442.39c9.365,24.639-27.178,42.706-40.877,19.875C378.1,436.804,420.087,419.288,434.254,442.39z"/>
<path fill-rule="evenodd" clip-rule="evenodd" fill="#6D340D" d="M394.502,455.89c0.539-0.979-0.702-2.03,1.5-0.75  C395.958,452.415,395.104,454.798,394.502,455.89z"/>
<path fill-rule="evenodd" clip-rule="evenodd" fill="#6D340D" d="M393.752,453.64C396.026,452.129,396.75,451.649,393.752,453.64  L393.752,453.64z"/>
<path fill-rule="evenodd" clip-rule="evenodd" fill="#6D340D" d="M393.752,451.39C395.194,450.956,397.175,450.359,393.752,451.39  L393.752,451.39z"/>
<path fill-rule="evenodd" clip-rule="evenodd" fill="#6D340D" d="M393.752,448.39c1.094,0.702,0.378,1.205,2.25,0.75  C395.446,450.587,395.18,449.307,393.752,448.39z"/>
<path fill-rule="evenodd" clip-rule="evenodd" fill="#6D340D" d="M394.502,446.89C397.066,446.968,397.009,446.967,394.502,446.89  L394.502,446.89z M395.252,447.64C395.252,446.64,395.252,446.64,395.252,447.64L395.252,447.64z"/>
<path fill-rule="evenodd" clip-rule="evenodd" fill="#6D340D" d="M395.252,445.39C397.643,444.25,397.934,444.112,395.252,445.39  L395.252,445.39z M396.002,444.64C395.649,444.288,395.649,444.288,396.002,444.64L396.002,444.64z M396.002,445.39  C396.644,445.044,397.646,444.503,396.002,445.39L396.002,445.39z"/>
<path fill-rule="evenodd" clip-rule="evenodd" fill="#6D340D" d="M396.002,443.14c1.614-0.467,1.487-1.928,2.25,0  c-1.095,1.542,0.417-1.871-0.75,0C400.122,441.915,397.948,442.577,396.002,443.14z"/>
<path fill-rule="evenodd" clip-rule="evenodd" fill="#6D340D" d="M397.502,440.89C400.384,440.355,399.645,440.492,397.502,440.89  L397.502,440.89z"/>
<path fill-rule="evenodd" clip-rule="evenodd" fill="#6D340D" d="M399.002,439.39c2.005-0.065,1.453-2.228,3,0  C400.714,441.287,401.264,439.316,399.002,439.39z"/>
<path fill-rule="evenodd" clip-rule="evenodd" fill="#6D340D" d="M402.002,436.39C403.443,437.583,405.121,438.971,402.002,436.39  L402.002,436.39z"/>
<path fill-rule="evenodd" clip-rule="evenodd" fill="#6D340D" d="M403.502,435.64C404.715,437.666,405.079,438.272,403.502,435.64  L403.502,435.64z"/>
<path fill-rule="evenodd" clip-rule="evenodd" fill="#6D340D" d="M431.254,447.64C429.757,449.241,429.648,449.357,431.254,447.64  L431.254,447.64z M431.254,448.39C428.855,449.707,430.779,448.65,431.254,448.39L431.254,448.39z"/>
<path fill-rule="evenodd" clip-rule="evenodd" fill="#6D340D" d="M430.504,449.89C430.504,450.89,430.504,450.89,430.504,449.89  L430.504,449.89z"/>
<path fill-rule="evenodd" clip-rule="evenodd" fill="#6D340D" d="M430.504,452.14C430.708,451.782,431.044,451.194,430.504,452.14  L430.504,452.14z"/>
<path fill-rule="evenodd" clip-rule="evenodd" fill="#6D340D" d="M430.504,452.89C429.681,453.713,429.681,453.713,430.504,452.89  L430.504,452.89z"/>
<path fill-rule="evenodd" clip-rule="evenodd" fill="#6D340D" d="M429.754,455.14C429.111,455.3,431.77,454.638,429.754,455.14  L429.754,455.14z"/>
<path fill-rule="evenodd" clip-rule="evenodd" fill="#6D340D" d="M429.754,458.14c-0.705-0.065-0.611,1.487-1.5-0.75  c0,0.5,0,1,0,1.5C428.173,455.352,428.984,458.069,429.754,458.14z"/>
<path fill-rule="evenodd" clip-rule="evenodd" fill="#6D340D" d="M426.754,461.14c-0.305,0.166,0.219-2.622,0.75,0.75  C426.732,460.573,427.02,460.996,426.754,461.14z"/>
<path fill-rule="evenodd" clip-rule="evenodd" fill="#6D340D" d="M424.504,464.89C422.793,461.662,423.482,462.963,424.504,464.89  L424.504,464.89z"/>
<path fill-rule="evenodd" clip-rule="evenodd" fill="#6D340D" d="M422.254,463.39C422.297,464.339,422.415,466.917,422.254,463.39  L422.254,463.39z M422.254,464.89C422.857,465.494,422.857,465.494,422.254,464.89L422.254,464.89z"/>
<path fill-rule="evenodd" clip-rule="evenodd" fill="#6D340D" d="M420.754,464.14C420.668,465.487,420.513,467.925,420.754,464.14  L420.754,464.14z M420.754,465.64C419.931,466.463,419.931,466.463,420.754,465.64L420.754,465.64z"/>
<path fill-rule="evenodd" clip-rule="evenodd" fill="#6D340D" d="M419.254,466.39C417.223,465.783,418.601,466.195,419.254,466.39  L419.254,466.39z"/>
<path fill="none" stroke="#6D340D" stroke-width="0.25" stroke-linecap="square" stroke-miterlimit="10" d="M432.754,443.14  c7.842,22.957-28.025,39.988-39.002,17.25C382.216,436.493,419.842,423.415,432.754,443.14z"/>
<path fill-rule="evenodd" clip-rule="evenodd" fill="#6D340D" d="M399.752,457.39c5.03-4.276,7.124-10.729,6-18.75  c1.98-0.829,13.729-2.156,18.002-1.5c4.434,19.533-7.526,19.844-18.002,29.25C404.751,462.401,401.439,460.5,399.752,457.39z"/>
<path fill-rule="evenodd" clip-rule="evenodd" fill="#A05A2B" d="M399.752,456.64c0.071-0.057,3.055-3.749,6-4.5  c-2.316-5.517,0.319-6.465-0.75-13.5c4.403-1.938,14.773-2.918,18.002-2.25c4.762,17.945-6.021,21.685-15.752,29.25  C405.392,463.775,401.327,459.601,399.752,456.64z"/>
<path fill-rule="evenodd" clip-rule="evenodd" fill="#7C3709" stroke="#000000" stroke-width="0.5" stroke-linecap="square" stroke-miterlimit="10" d="  M398.252,463.39c9.139,25.588-30.048,43.92-42,18.75C343.776,455.867,383.509,442.307,398.252,463.39z"/>
<path fill-rule="evenodd" clip-rule="evenodd" fill="#994D10" stroke="#000000" stroke-width="0.5" stroke-linecap="square" stroke-miterlimit="10" d="  M396.752,462.64c9.925,24.483-27.451,42.249-40.875,19.875C340.586,457.031,382.087,439.402,396.752,462.64z"/>
<path fill-rule="evenodd" clip-rule="evenodd" fill="#6D340D" d="M357.002,476.14c0.821-1.306-0.722-1.758,1.5-1.5  C359.004,474.713,357.873,474.755,357.002,476.14z"/>
<path fill-rule="evenodd" clip-rule="evenodd" fill="#6D340D" d="M356.252,473.89C357.64,472.855,359.635,471.368,356.252,473.89  L356.252,473.89z"/>
<path fill-rule="evenodd" clip-rule="evenodd" fill="#6D340D" d="M356.252,471.64C357.694,471.206,359.675,470.609,356.252,471.64  L356.252,471.64z"/>
<path fill-rule="evenodd" clip-rule="evenodd" fill="#6D340D" d="M356.252,468.64C359.865,470.606,357.806,469.486,356.252,468.64  L356.252,468.64z"/>
<path fill-rule="evenodd" clip-rule="evenodd" fill="#6D340D" d="M357.002,467.14C359.124,467.418,360.315,467.575,357.002,467.14  L357.002,467.14z M357.752,467.14C358.752,467.14,358.752,467.14,357.752,467.14L357.752,467.14z"/>
<path fill-rule="evenodd" clip-rule="evenodd" fill="#6D340D" d="M357.752,465.64C360.143,464.5,360.434,464.362,357.752,465.64  L357.752,465.64z M358.502,464.89C358.502,463.89,358.502,463.89,358.502,464.89L358.502,464.89z M359.252,464.89  C359.605,465.243,359.605,465.243,359.252,464.89L359.252,464.89z"/>
<path fill-rule="evenodd" clip-rule="evenodd" fill="#6D340D" d="M358.502,463.39c2.114-0.673,1.898-2.705,2.25,0  c-0.338,0.271,0.066-1.27,0,0C362.414,462.874,360.22,462.843,358.502,463.39z"/>
<path fill-rule="evenodd" clip-rule="evenodd" fill="#6D340D" d="M360.002,461.14c1.74-0.109,1.427-2.363,3,0  C360.622,462.083,361.602,461.04,360.002,461.14z"/>
<path fill-rule="evenodd" clip-rule="evenodd" fill="#6D340D" d="M361.502,459.64c1.757-0.279,1.82-0.406,2.25-1.5  c0.677,0.323,0.927,0.823,0.75,1.5c-0.177-1.03,0.073-1.03,0.75,0C362.744,460.939,364.186,459.214,361.502,459.64z"/>
<path fill-rule="evenodd" clip-rule="evenodd" fill="#6D340D" d="M364.502,456.64C366.384,458.276,367.56,459.298,364.502,456.64  L364.502,456.64z"/>
<path fill-rule="evenodd" clip-rule="evenodd" fill="#6D340D" d="M366.002,455.89C368.349,458.795,367.53,457.782,366.002,455.89  L366.002,455.89z"/>
<path fill-rule="evenodd" clip-rule="evenodd" fill="#6D340D" d="M393.752,467.14C392.48,469.985,392.634,469.641,393.752,467.14  L393.752,467.14z M393.752,467.89C391.981,470.025,392.762,469.083,393.752,467.89L393.752,467.89z"/>
<path fill-rule="evenodd" clip-rule="evenodd" fill="#6D340D" d="M393.002,470.14C393.002,471.14,393.002,471.14,393.002,470.14  L393.002,470.14z"/>
<path fill-rule="evenodd" clip-rule="evenodd" fill="#6D340D" d="M393.002,472.39C394.001,471.74,394.01,471.734,393.002,472.39  L393.002,472.39z"/>
<path fill-rule="evenodd" clip-rule="evenodd" fill="#6D340D" d="M393.002,473.14C392.656,473.782,392.115,474.784,393.002,473.14  L393.002,473.14z"/>
<path fill-rule="evenodd" clip-rule="evenodd" fill="#6D340D" d="M393.002,475.39C391.187,474.155,394.065,476.114,393.002,475.39  L393.002,475.39z"/>
<path fill-rule="evenodd" clip-rule="evenodd" fill="#6D340D" d="M393.002,478.39c-1.496-0.13-1.774,1.385-2.25-0.75  c0,0.5,0,1,0,1.5C390.486,475.251,391.657,478.273,393.002,478.39z"/>
<path fill-rule="evenodd" clip-rule="evenodd" fill="#6D340D" d="M389.252,481.39C390.09,480.871,390.164,480.825,389.252,481.39  L389.252,481.39z"/>
<path fill-rule="evenodd" clip-rule="evenodd" fill="#6D340D" d="M387.002,485.14C385.736,481.213,386.8,484.514,387.002,485.14  L387.002,485.14z"/>
<path fill-rule="evenodd" clip-rule="evenodd" fill="#6D340D" d="M384.752,483.64C384.961,485.157,385.194,486.848,384.752,483.64  L384.752,483.64z M384.752,485.14C385.355,485.744,385.355,485.744,384.752,485.14L384.752,485.14z"/>
<path fill-rule="evenodd" clip-rule="evenodd" fill="#6D340D" d="M383.252,484.39C383.174,485.477,383.004,487.857,383.252,484.39  L383.252,484.39z M383.252,485.89C383.252,486.89,383.252,486.89,383.252,485.89L383.252,485.89z"/>
<path fill-rule="evenodd" clip-rule="evenodd" fill="#6D340D" d="M381.752,486.64C381.039,486.369,380.188,486.045,381.752,486.64  L381.752,486.64z"/>
<path fill="none" stroke="#6D340D" stroke-width="0.25" stroke-linecap="square" stroke-miterlimit="10" d="M395.252,463.39  c7.941,22.044-28.704,40.366-37.5,18.375C347.845,456.997,381.38,441.761,395.252,463.39z"/>
<path fill-rule="evenodd" clip-rule="evenodd" fill="#6D340D" d="M362.252,477.64c1.382-1.059,2.88-4.058,6.75-4.5  c-2.491-6.104,0.357-6.821-0.75-14.25c2.767-1.373,12.687-2.607,18-1.5c3.847,18.401-6.271,20.814-15.75,29.25  C368.502,484.195,363.964,480.464,362.252,477.64z"/>
<path fill-rule="evenodd" clip-rule="evenodd" fill="#A05A2B" d="M362.252,476.89c2.501-2.993,7.642-30.951,21.75-19.5  c14.154,11.488-10.444,23.712-15.75,28.5C367.25,481.894,363.963,480.004,362.252,476.89z"/>
<path fill-rule="evenodd" clip-rule="evenodd" fill="#7F5916" stroke="#000000" stroke-width="0.5" stroke-linecap="square" stroke-miterlimit="10" d="  M399.002,380.89c17.129,39.965-47.513,67.344-66,29.25C313.51,369.976,381.398,343.546,399.002,380.89z"/>
<path fill-rule="evenodd" clip-rule="evenodd" fill="#AF832C" stroke="#000000" stroke-width="0.5" stroke-linecap="square" stroke-miterlimit="10" d="  M399.002,377.89c13.541,40.612-47.774,67.254-66,28.5C313.716,365.383,378.142,342.288,399.002,377.89z"/>
<path fill-rule="evenodd" clip-rule="evenodd" fill="#7F5916" d="M335.252,399.64c1.526-1.976-0.032-5.129,1.5-1.5  c0.25-0.75,0-1-0.75-0.75c1.653-0.552,1.08-0.784,2.25,0c-0.5-0.5-1-1-1.5-1.5C342.335,399.285,336.85,397.572,335.252,399.64z"/>
<path fill-rule="evenodd" clip-rule="evenodd" fill="#7F5916" d="M334.502,395.14c1.311-0.858,2.164-1.454,2.25-3  C340.971,396.192,336.528,393.813,334.502,395.14z"/>
<path fill-rule="evenodd" clip-rule="evenodd" fill="#7F5916" d="M334.502,392.14C337.965,391.004,339.428,390.525,334.502,392.14  L334.502,392.14z"/>
<path fill-rule="evenodd" clip-rule="evenodd" fill="#7F5916" d="M335.252,386.89c0.835,0.791,0.273,3.977,1.5,0  c-0.271-0.637,1.691,3.218,1.5,3c-1.25,0.5-1.75,0.25-1.5-0.75c0.677,0.177,1.177-0.073,1.5-0.75  C335.781,390.821,336.973,388.52,335.252,386.89z"/>
<path fill-rule="evenodd" clip-rule="evenodd" fill="#7F5916" d="M336.002,384.64c1.381,0.246,4.669-1.677,3,0  C339.022,388.064,338.569,385.098,336.002,384.64z M337.502,385.39C337.156,384.749,336.615,383.746,337.502,385.39L337.502,385.39z  "/>
<path fill-rule="evenodd" clip-rule="evenodd" fill="#7F5916" d="M336.752,382.39c2.587-0.983,0.548-3.818,3.75-2.25  C341.044,386.002,339.203,381.459,336.752,382.39z M338.252,381.64C338.039,379.885,338.138,380.707,338.252,381.64L338.252,381.64z   M339.002,381.64C340.014,381.354,339.913,381.382,339.002,381.64L339.002,381.64z"/>
<path fill-rule="evenodd" clip-rule="evenodd" fill="#7F5916" d="M338.252,378.64c1.763-0.28,4.181-3.783,1.5-0.75  c2.827,0.71-0.862,0.33,0.75-0.75c0.241,0.178,2.039,3.104,1.5,1.5c0-0.5,0-1,0-1.5C343.416,383.88,340.813,378.233,338.252,378.64z  "/>
<path fill-rule="evenodd" clip-rule="evenodd" fill="#7F5916" d="M340.502,374.89c2.746,0.116,2.249-3.559,4.5,0.75  C341.856,377.562,342.809,374.987,340.502,374.89z"/>
<path fill-rule="evenodd" clip-rule="evenodd" fill="#7F5916" d="M343.502,372.64c2.061,0.088,2.273-0.964,3-2.25  c0.76,2.436,0.542,1.899,0.75,3.75c-0.918,0.758,0.004-1.573,0-1.5C345.647,377.144,346.241,372.757,343.502,372.64z"/>
<path fill-rule="evenodd" clip-rule="evenodd" fill="#7F5916" d="M348.002,368.89C350.269,370.609,352.667,372.427,348.002,368.89  L348.002,368.89z"/>
<path fill-rule="evenodd" clip-rule="evenodd" fill="#7F5916" d="M349.502,367.39c1.252,1.025,2.318-1.202,3.75,2.25  C350.78,371.897,351.84,369.305,349.502,367.39z"/>
<path fill-rule="evenodd" clip-rule="evenodd" fill="#7F5916" d="M393.752,385.39C390.856,388.942,391.748,387.849,393.752,385.39  L393.752,385.39z M393.752,386.89C389.188,388.581,393.045,387.152,393.752,386.89L393.752,386.89z"/>
<path fill-rule="evenodd" clip-rule="evenodd" fill="#7F5916" d="M393.002,389.14C391.772,392.127,392.777,389.687,393.002,389.14  L393.002,389.14z"/>
<path fill-rule="evenodd" clip-rule="evenodd" fill="#7F5916" d="M393.002,392.89c0.067,1.896-1.768,0.685,0-2.25  c-0.234-0.877,2.378,4.432,0.75,3C393.282,393.07,392.947,391.353,393.002,392.89z"/>
<path fill-rule="evenodd" clip-rule="evenodd" fill="#7F5916" d="M392.252,394.39C391.834,396.031,391.603,396.943,392.252,394.39  L392.252,394.39z"/>
<path fill-rule="evenodd" clip-rule="evenodd" fill="#7F5916" d="M392.252,398.14c-0.27-0.211-1.841,2.33-2.25-0.75  c0.816-0.006,1.038-0.665,1.5-1.5c-0.293-0.458,3.687,4.154,1.5,3C392.831,398.703,389.747,396.177,392.252,398.14z"/>
<path fill-rule="evenodd" clip-rule="evenodd" fill="#7F5916" d="M392.252,401.89c-3.73,1.155-1.542,1.525-1.5,1.5  c-1.921-0.587-0.994-0.246-0.75-1.5c-0.359,0.064-2.308,1.421-1.5,1.5c1.03-0.177,1.03,0.073,0,0.75  C387.418,397.795,389.725,402.672,392.252,401.89z"/>
<path fill-rule="evenodd" clip-rule="evenodd" fill="#7F5916" d="M387.002,407.14c-0.424,1.258-2.927,0.134,0-2.25  c-0.086-0.373,1.901,3.316,1.5,3c-0.75-0.25-1,0-0.75,0.75C386.967,406.673,387.482,405.717,387.002,407.14z"/>
<path fill-rule="evenodd" clip-rule="evenodd" fill="#7F5916" d="M382.502,412.39C380.713,407.291,382.118,411.294,382.502,412.39  L382.502,412.39z"/>
<path fill-rule="evenodd" clip-rule="evenodd" fill="#7F5916" d="M379.502,410.89C379.592,413.206,379.695,415.833,379.502,410.89  L379.502,410.89z M379.502,413.14C380.413,413.398,380.514,413.427,379.502,413.14L379.502,413.14z"/>
<path fill-rule="evenodd" clip-rule="evenodd" fill="#7F5916" d="M377.252,412.39C376.942,414.193,376.45,417.059,377.252,412.39  L377.252,412.39z M376.502,413.89C377.806,415.706,377.189,414.847,376.502,413.89L376.502,413.89z"/>
<path fill-rule="evenodd" clip-rule="evenodd" fill="#7F5916" d="M375.002,415.39c-0.502-0.043-1.073,1.952-2.25-0.75  c0.502,0.152-0.231-0.785,0,0C374.863,416.124,373.533,415.263,375.002,415.39z"/>
<path fill="none" stroke="#54390E" stroke-width="0.25" stroke-linecap="square" stroke-miterlimit="10" d="M396.002,378.64  c15.541,36.008-43.708,61.844-60.75,27C317.497,369.339,378.081,345.767,396.002,378.64z"/>
<path fill-rule="evenodd" clip-rule="evenodd" fill="#54390E" d="M344.252,401.14c0.697-0.409,6.57-6.383,9.75-7.5  c-1.416-6.584-1.58-12.947-0.75-21c7.161-3.938,20.128-3.843,28.5-3c9.621,35.854-20.677,23.371-25.5,45.75  C353.435,411.4,346.861,405.661,344.252,401.14z"/>
<path fill-rule="evenodd" clip-rule="evenodd" fill="#7F5916" d="M343.502,400.39c1.205-0.735,4.903-5.814,9.75-6.75  c-1.06-7.93-0.972-12.614-0.75-21.75c5.522-3.586,20.077-3.954,28.5-3c10.132,35.063-20.918,23.553-24.75,45.75  C353.245,411.067,345.905,404.625,343.502,400.39z"/>
<path fill-rule="evenodd" clip-rule="evenodd" fill="#7F5916" stroke="#000000" stroke-width="0.5" stroke-linecap="square" stroke-miterlimit="10" d="  M377.252,427.39c-3.61,36.107-61.289,35.925-62.25-0.75C313.991,388.064,375.016,391.985,377.252,427.39z"/>
<path fill-rule="evenodd" clip-rule="evenodd" fill="#AF832C" stroke="#000000" stroke-width="0.5" stroke-linecap="square" stroke-miterlimit="10" d="  M377.252,424.39c0.118,36.804-60.779,35.535-61.5-0.75C314.996,385.59,374.77,389.266,377.252,424.39z"/>
<path fill-rule="evenodd" clip-rule="evenodd" fill="#7F5916" d="M321.002,419.14c1.489-1.156,0.499-3.778,1.5-0.75  c0.25-0.75,0-1-0.75-0.75c1.72,0.099,0.874-0.318,1.5,0.75c0.184-0.033-0.282-1.259,0.75-1.5  C324.253,422.523,322.952,417.626,321.002,419.14z"/>
<path fill-rule="evenodd" clip-rule="evenodd" fill="#7F5916" d="M321.752,415.39c1.822-0.214,2.505-1.088,3-0.75  C323.12,417.629,322.835,415.263,321.752,415.39z"/>
<path fill-rule="evenodd" clip-rule="evenodd" fill="#7F5916" d="M322.502,413.14C323.456,413.003,328.469,412.285,322.502,413.14  L322.502,413.14z"/>
<path fill-rule="evenodd" clip-rule="evenodd" fill="#7F5916" d="M324.752,409.39c0.753,1.334,0.428,0.378,2.25,2.25  c-1.001,0.578-0.967-0.019-2.25,0.75C326.115,411.536,325.636,410.955,324.752,409.39z"/>
<path fill-rule="evenodd" clip-rule="evenodd" fill="#7F5916" d="M326.252,407.89C329.221,409.542,329.489,409.692,326.252,407.89  L326.252,407.89z M327.002,408.64C327.605,408.037,327.605,408.037,327.002,408.64L327.002,408.64z"/>
<path fill-rule="evenodd" clip-rule="evenodd" fill="#7F5916" d="M327.752,406.39C331.604,405.817,332.097,405.744,327.752,406.39  L327.752,406.39z M329.252,406.39C329.252,404.455,329.252,405.269,329.252,406.39L329.252,406.39z M329.252,406.39  C330.695,406.739,331.11,406.839,329.252,406.39L329.252,406.39z"/>
<path fill-rule="evenodd" clip-rule="evenodd" fill="#7F5916" d="M330.752,404.14c1.559,0.41,2.074-1.941,2.25,1.5  c0.446-0.038,0.575-0.952,0-1.5C333.025,408.02,332.25,404.534,330.752,404.14z"/>
<path fill-rule="evenodd" clip-rule="evenodd" fill="#7F5916" d="M333.752,401.89c1.104,1.069,3.531,0.084,1.5,3  C334.394,402.812,334.36,402.479,333.752,401.89z"/>
<path fill-rule="evenodd" clip-rule="evenodd" fill="#7F5916" d="M336.002,401.14c2.168,0.518,1.724,0.187,3.75-0.75  c-0.032,0.184-0.578,2.136-0.75,3C337.04,403.524,339.027,401.862,336.002,401.14z"/>
<path fill-rule="evenodd" clip-rule="evenodd" fill="#7F5916" d="M341.252,399.64C342.728,402.121,343.391,403.235,341.252,399.64  L341.252,399.64z"/>
<path fill-rule="evenodd" clip-rule="evenodd" fill="#7F5916" d="M342.752,399.64C343.911,400.716,346.427,403.053,342.752,399.64  L342.752,399.64z"/>
<path fill-rule="evenodd" clip-rule="evenodd" fill="#7F5916" d="M371.252,428.89C367.5,430.681,367.887,430.497,371.252,428.89  L371.252,428.89z M370.502,429.64C367.723,430.243,369.509,429.855,370.502,429.64L370.502,429.64z"/>
<path fill-rule="evenodd" clip-rule="evenodd" fill="#7F5916" d="M369.002,431.14C367.358,432.027,368.36,431.486,369.002,431.14  L369.002,431.14z"/>
<path fill-rule="evenodd" clip-rule="evenodd" fill="#7F5916" d="M367.502,434.14c-0.547,0.409-1.676-2.354,1.5,0.75  C367.612,433.816,367.751,433.954,367.502,434.14z"/>
<path fill-rule="evenodd" clip-rule="evenodd" fill="#7F5916" d="M366.752,435.64C365.632,435.64,365.632,435.64,366.752,435.64  L366.752,435.64z"/>
<path fill-rule="evenodd" clip-rule="evenodd" fill="#7F5916" d="M365.252,437.89c-0.47,0.989-1.989-2.259,0.75,0.75  C365.191,438.246,365.39,437.601,365.252,437.89z"/>
<path fill-rule="evenodd" clip-rule="evenodd" fill="#7F5916" d="M363.752,440.89c-1.823-0.229-1.832,2.086-2.25-0.75  c-0.177,1.03,0.073,1.03,0.75,0c-0.5,0-1,0-1.5,0C361.3,438.352,361.914,440.66,363.752,440.89z"/>
<path fill-rule="evenodd" clip-rule="evenodd" fill="#7F5916" d="M357.752,443.14c-2.181,0.116-0.602-1.219,1.5-0.75  c0,0.5,0,1,0,1.5c0.616,0.205-3.144,0.995-2.25,0C359.36,442.597,358.312,443.11,357.752,443.14z"/>
<path fill-rule="evenodd" clip-rule="evenodd" fill="#7F5916" d="M352.502,446.14C353.486,440.831,352.718,444.977,352.502,446.14  L352.502,446.14z"/>
<path fill-rule="evenodd" clip-rule="evenodd" fill="#7F5916" d="M351.002,443.89C350.434,444.915,349.168,447.197,351.002,443.89  L351.002,443.89z M350.252,444.64C351.19,446.717,350.56,445.323,350.252,444.64L350.252,444.64z"/>
<path fill-rule="evenodd" clip-rule="evenodd" fill="#7F5916" d="M348.752,443.89C347.753,445.208,346.236,447.208,348.752,443.89  L348.752,443.89z M348.002,445.39C347.178,446.213,347.178,446.213,348.002,445.39L348.002,445.39z"/>
<path fill-rule="evenodd" clip-rule="evenodd" fill="#7F5916" d="M345.752,445.39c-0.259-0.117-1.269,0.907-1.5-1.5  C345.698,445.331,345.031,445.064,345.752,445.39z"/>
<path fill="none" stroke="#54390E" stroke-width="0.25" stroke-linecap="square" stroke-miterlimit="10" d="M375.002,424.39  c-2.097,33.592-56.041,32.493-56.25-0.75C318.533,388.956,372.944,392.142,375.002,424.39z"/>
<path fill-rule="evenodd" clip-rule="evenodd" fill="#54390E" d="M327.002,423.64c1.95-0.747,6.334-2.687,10.5-2.25  c0.37-7.306,3.031-8.438,6.75-17.25c5.901-0.021,18.303,4.543,23.25,8.25C360.863,431.907,328.174,450.941,327.002,423.64z"/>
<path fill-rule="evenodd" clip-rule="evenodd" fill="#7F5916" d="M327.002,422.89c2.507-1.428,4.102-4.133,9.75-2.25  c1.999-12.102,24.142-28.261,30-7.5c6.292,22.296-28.668,18.677-36,24.75C330.416,433.429,327.181,426.986,327.002,422.89z"/>
<path fill-rule="evenodd" clip-rule="evenodd" fill="#7C3709" stroke="#000000" stroke-width="0.5" stroke-linecap="square" stroke-miterlimit="10" d="  M492.004,456.64c9.156,25.637-30.041,43.721-42,18.75C437.561,449.408,478.294,434.591,492.004,456.64z"/>
<path fill-rule="evenodd" clip-rule="evenodd" fill="#994D10" stroke="#000000" stroke-width="0.5" stroke-linecap="square" stroke-miterlimit="10" d="  M490.504,455.14c9.993,25.584-30.208,43.752-42,18.75C436.339,448.096,476.26,433.269,490.504,455.14z"/>
<path fill-rule="evenodd" clip-rule="evenodd" fill="#6D340D" d="M450.754,469.39c0.708-1.367,0.017-2.271,0.75-0.75  C453.77,466.301,451.416,468.113,450.754,469.39z"/>
<path fill-rule="evenodd" clip-rule="evenodd" fill="#6D340D" d="M450.004,467.14C452.414,464.609,452.139,464.898,450.004,467.14  L450.004,467.14z"/>
<path fill-rule="evenodd" clip-rule="evenodd" fill="#6D340D" d="M450.004,464.89C451.416,463.995,452.908,463.048,450.004,464.89  L450.004,464.89z"/>
<path fill-rule="evenodd" clip-rule="evenodd" fill="#6D340D" d="M450.004,461.89c0.855,0.335,2.184-0.612,1.5,1.5  C452.574,461.919,451.08,462.312,450.004,461.89z"/>
<path fill-rule="evenodd" clip-rule="evenodd" fill="#6D340D" d="M450.754,460.39C452.99,460.656,453.938,460.768,450.754,460.39  L450.754,460.39z M451.504,460.39L451.504,460.39z"/>
<path fill-rule="evenodd" clip-rule="evenodd" fill="#6D340D" d="M451.504,458.14C453.998,457.567,454.157,457.53,451.504,458.14  L451.504,458.14z M452.254,458.14C451.65,457.537,451.65,457.537,452.254,458.14L452.254,458.14z M452.254,458.14  C454.267,457.766,453.23,457.958,452.254,458.14L452.254,458.14z"/>
<path fill-rule="evenodd" clip-rule="evenodd" fill="#6D340D" d="M452.254,455.89c1.246,0.036,1.39-1.587,2.25,0.75c0-0.5,0-1,0-1.5  C454.631,459.07,453.448,455.924,452.254,455.89z"/>
<path fill-rule="evenodd" clip-rule="evenodd" fill="#6D340D" d="M453.754,453.64C456.26,454.263,457.289,454.518,453.754,453.64  L453.754,453.64z"/>
<path fill-rule="evenodd" clip-rule="evenodd" fill="#6D340D" d="M455.254,452.14c2.674,0.012,0.469-1.454,3.75,0  C456.237,454.051,457.484,452.15,455.254,452.14z"/>
<path fill-rule="evenodd" clip-rule="evenodd" fill="#6D340D" d="M458.254,449.89C458.907,450.119,462.54,451.388,458.254,449.89  L458.254,449.89z"/>
<path fill-rule="evenodd" clip-rule="evenodd" fill="#6D340D" d="M459.754,449.14C460.392,449.705,462.973,451.989,459.754,449.14  L459.754,449.14z"/>
<path fill-rule="evenodd" clip-rule="evenodd" fill="#6D340D" d="M487.504,460.39C485.254,463.804,486.704,461.603,487.504,460.39  L487.504,460.39z M487.504,461.14C484.844,462.534,486.795,461.511,487.504,461.14L487.504,461.14z"/>
<path fill-rule="evenodd" clip-rule="evenodd" fill="#6D340D" d="M486.754,462.64C486.754,463.64,486.754,463.64,486.754,462.64  L486.754,462.64z"/>
<path fill-rule="evenodd" clip-rule="evenodd" fill="#6D340D" d="M486.754,464.89C486.336,464.899,487.551,464.874,486.754,464.89  L486.754,464.89z"/>
<path fill-rule="evenodd" clip-rule="evenodd" fill="#6D340D" d="M486.754,466.39C486.408,467.032,485.867,468.034,486.754,466.39  L486.754,466.39z"/>
<path fill-rule="evenodd" clip-rule="evenodd" fill="#6D340D" d="M486.754,468.64C485.959,466.287,487.116,469.712,486.754,468.64  L486.754,468.64z"/>
<path fill-rule="evenodd" clip-rule="evenodd" fill="#6D340D" d="M486.754,470.89c-1.656,0.371-1.637,2.063-2.25,0c0,0.5,0,1,0,1.5  C483.409,468.3,485.005,471.283,486.754,470.89z"/>
<path fill-rule="evenodd" clip-rule="evenodd" fill="#6D340D" d="M483.004,473.89C482.932,473.855,484.229,474.485,483.004,473.89  L483.004,473.89z"/>
<path fill-rule="evenodd" clip-rule="evenodd" fill="#6D340D" d="M480.754,477.64C478.91,475.539,478.856,475.478,480.754,477.64  L480.754,477.64z"/>
<path fill-rule="evenodd" clip-rule="evenodd" fill="#6D340D" d="M478.504,476.89C478.448,478.194,478.393,479.506,478.504,476.89  L478.504,476.89z M478.504,477.64C479.327,478.463,479.327,478.463,478.504,477.64L478.504,477.64z"/>
<path fill-rule="evenodd" clip-rule="evenodd" fill="#6D340D" d="M477.004,477.64C476.825,478.708,476.479,480.778,477.004,477.64  L477.004,477.64z M477.004,479.14C476.651,478.788,476.651,478.788,477.004,479.14L477.004,479.14z"/>
<path fill-rule="evenodd" clip-rule="evenodd" fill="#6D340D" d="M475.504,479.89C476.57,480.243,472.151,478.782,475.504,479.89  L475.504,479.89z"/>
<path fill="none" stroke="#6D340D" stroke-width="0.25" stroke-linecap="square" stroke-miterlimit="10" d="M489.004,456.64  c8.403,23.446-28.785,39.169-39,16.5C439.207,449.178,477.009,436.882,489.004,456.64z"/>
<path fill-rule="evenodd" clip-rule="evenodd" fill="#6D340D" d="M456.004,470.14c0.424-0.31,3.894-3.692,6.75-4.5  c-5.612-12.08,3.519-18.141,17.25-15c3.721,17.465-6.48,20.197-15.75,28.5C461.634,477.2,458.011,473.573,456.004,470.14z"/>
<path fill-rule="evenodd" clip-rule="evenodd" fill="#A05A2B" d="M456.004,470.14c0.76-0.621,1.487-4.329,6-4.5  c-2.208-5.378,0.209-7.416-0.75-14.25c33.591-14.818,8.383,20.649,2.25,27.75c-0.665-0.611-1.415-0.861-2.25-0.75  C460.967,473.232,457.968,473.605,456.004,470.14z"/>
<path fill-rule="evenodd" clip-rule="evenodd" fill="#7C3709" stroke="#000000" stroke-width="0.5" stroke-linecap="square" stroke-miterlimit="10" d="  M451.504,416.89c10.527,25.853-30.47,43.517-42.002,18.75C397.596,410.071,438.072,394.639,451.504,416.89z"/>
<path fill-rule="evenodd" clip-rule="evenodd" fill="#994D10" stroke="#000000" stroke-width="0.5" stroke-linecap="square" stroke-miterlimit="10" d="  M450.754,416.14c8.566,25.273-30.203,42.847-42.002,18C396.318,407.956,437.204,393.283,450.754,416.14z"/>
<path fill-rule="evenodd" clip-rule="evenodd" fill="#6D340D" d="M410.254,429.64c1.073-1.449,0.263-2.06,1.5-1.5  C413.037,427.328,411.656,427.746,410.254,429.64z"/>
<path fill-rule="evenodd" clip-rule="evenodd" fill="#6D340D" d="M410.254,427.39C412.07,425.251,411.966,425.374,410.254,427.39  L410.254,427.39z"/>
<path fill-rule="evenodd" clip-rule="evenodd" fill="#6D340D" d="M409.502,425.14C411.833,424.049,412.646,423.668,409.502,425.14  L409.502,425.14z"/>
<path fill-rule="evenodd" clip-rule="evenodd" fill="#6D340D" d="M410.254,422.14c0.709,0.406,1.345-0.558,1.5,1.5  C411.2,422.534,411.901,423.083,410.254,422.14z"/>
<path fill-rule="evenodd" clip-rule="evenodd" fill="#6D340D" d="M410.254,420.64C413.37,421.182,413.324,421.173,410.254,420.64  L410.254,420.64z M411.754,420.64C410.754,420.64,410.754,420.64,411.754,420.64L411.754,420.64z"/>
<path fill-rule="evenodd" clip-rule="evenodd" fill="#6D340D" d="M411.754,419.14C414.578,417.066,412.81,418.365,411.754,419.14  L411.754,419.14z M412.504,418.39C411.68,417.566,411.68,417.566,412.504,418.39L412.504,418.39z M412.504,418.39  C413.959,418.461,413.386,418.433,412.504,418.39L412.504,418.39z"/>
<path fill-rule="evenodd" clip-rule="evenodd" fill="#6D340D" d="M412.504,416.14c1.342,0.007,0.632-1.896,2.25,0.75  c-0.836-0.867-0.305-1.224,0-1.5C413.163,418.616,413.034,416.143,412.504,416.14z"/>
<path fill-rule="evenodd" clip-rule="evenodd" fill="#6D340D" d="M414.004,413.89C416.575,414.893,415.492,414.471,414.004,413.89  L414.004,413.89z"/>
<path fill-rule="evenodd" clip-rule="evenodd" fill="#6D340D" d="M415.504,412.39c1.247,0.194,1.35,0.163,1.5-1.5  c0.385,1.292,0.351,1.011,1.5,1.5c-1.509,2.343-1.076-1.171-0.75,0.75C415.796,415.481,416.693,412.575,415.504,412.39z"/>
<path fill-rule="evenodd" clip-rule="evenodd" fill="#6D340D" d="M418.504,410.14C419.42,410.877,422.094,413.027,418.504,410.14  L418.504,410.14z"/>
<path fill-rule="evenodd" clip-rule="evenodd" fill="#6D340D" d="M419.254,409.39C420.105,409.872,423.163,411.601,419.254,409.39  L419.254,409.39z"/>
<path fill-rule="evenodd" clip-rule="evenodd" fill="#6D340D" d="M447.754,420.64C445.114,423.305,446.117,422.292,447.754,420.64  L447.754,420.64z M447.754,421.39C445.094,422.784,447.045,421.762,447.754,421.39L447.754,421.39z"/>
<path fill-rule="evenodd" clip-rule="evenodd" fill="#6D340D" d="M447.004,422.89C446.181,423.713,446.181,423.713,447.004,422.89  L447.004,422.89z"/>
<path fill-rule="evenodd" clip-rule="evenodd" fill="#6D340D" d="M447.004,425.14c-1.586,1.803-1.26,0.765,0.75-0.75  C446.936,426.487,446.759,425.418,447.004,425.14z"/>
<path fill-rule="evenodd" clip-rule="evenodd" fill="#6D340D" d="M446.254,426.64C446.254,427.64,446.254,427.64,446.254,426.64  L446.254,426.64z"/>
<path fill-rule="evenodd" clip-rule="evenodd" fill="#6D340D" d="M446.254,428.89C446.201,429.136,446.451,427.96,446.254,428.89  L446.254,428.89z"/>
<path fill-rule="evenodd" clip-rule="evenodd" fill="#6D340D" d="M446.254,431.14C444.321,432.175,443.074,432.842,446.254,431.14  L446.254,431.14z"/>
<path fill-rule="evenodd" clip-rule="evenodd" fill="#6D340D" d="M443.254,434.89c-0.035-1.176-0.41-2.453,0,0.75  C443.108,434.383,443.214,433.54,443.254,434.89z"/>
<path fill-rule="evenodd" clip-rule="evenodd" fill="#6D340D" d="M440.254,437.89C439.421,434.495,440.27,437.953,440.254,437.89  L440.254,437.89z"/>
<path fill-rule="evenodd" clip-rule="evenodd" fill="#6D340D" d="M438.754,437.14C438.426,438.61,438.051,440.288,438.754,437.14  L438.754,437.14z M438.754,437.89C437.867,439.534,438.408,438.532,438.754,437.89L438.754,437.89z"/>
<path fill-rule="evenodd" clip-rule="evenodd" fill="#6D340D" d="M436.504,437.89C436.638,438.824,436.99,441.283,436.504,437.89  L436.504,437.89z M436.504,439.39C437.327,440.213,437.327,440.213,436.504,439.39L436.504,439.39z"/>
<path fill-rule="evenodd" clip-rule="evenodd" fill="#6D340D" d="M435.754,440.14C434.32,439.52,433.664,439.236,435.754,440.14  L435.754,440.14z"/>
<path fill="none" stroke="#6D340D" stroke-width="0.25" stroke-linecap="square" stroke-miterlimit="10" d="M449.254,416.89  c6.981,23.297-28.468,39.601-39,16.5C399.047,408.809,436.534,397.682,449.254,416.89z"/>
<path fill-rule="evenodd" clip-rule="evenodd" fill="#6D340D" d="M416.254,431.14c1.023-0.827-0.715-4.374,5.25-3.75  c-1.998-6.667,9.521-29.952,18.75-15.75c9.333,14.363-12.221,22.997-18,27.75C421.133,434.899,418.463,434.334,416.254,431.14z"/>
<path fill-rule="evenodd" clip-rule="evenodd" fill="#A05A2B" d="M415.504,430.39c0.586-0.455,3.293-3.693,6.75-4.5  c-3.011-6.623,0.773-6.471-0.75-14.25c2.935-1.279,13.091-2.446,18-1.5c3.881,17.825-6.462,20.794-15.75,29.25  C421.147,436.916,417.486,433.714,415.504,430.39z"/>
<path fill-rule="evenodd" clip-rule="evenodd" fill="#7C3709" stroke="#000000" stroke-width="0.5" stroke-linecap="square" stroke-miterlimit="10" d="  M504.004,430.39c9.443,24.49-27.346,42.424-40.875,19.875C447.853,424.805,489.837,407.288,504.004,430.39z"/>
<path fill-rule="evenodd" clip-rule="evenodd" fill="#994D10" stroke="#000000" stroke-width="0.5" stroke-linecap="square" stroke-miterlimit="10" d="  M503.254,428.89c7.974,25.803-31.094,43.983-42.75,18.75C448.37,421.374,489.41,407.336,503.254,428.89z"/>
<path fill-rule="evenodd" clip-rule="evenodd" fill="#6D340D" d="M462.754,443.14c1.081-2.088-0.84-2.792,1.5-2.25  c-0.979,0.825-0.123,0.593,0,0.75C465.021,439.672,463.457,441.782,462.754,443.14z"/>
<path fill-rule="evenodd" clip-rule="evenodd" fill="#6D340D" d="M462.004,440.14C464.453,438.765,465.334,438.271,462.004,440.14  L462.004,440.14z"/>
<path fill-rule="evenodd" clip-rule="evenodd" fill="#6D340D" d="M462.004,437.89C463.329,437.549,465.554,436.976,462.004,437.89  L462.004,437.89z"/>
<path fill-rule="evenodd" clip-rule="evenodd" fill="#6D340D" d="M462.754,434.89c0.864,1.17,1.441-0.468,0.75,2.25  C463.174,435.754,463.629,436.076,462.754,434.89z"/>
<path fill-rule="evenodd" clip-rule="evenodd" fill="#6D340D" d="M462.754,433.39C465.874,434.126,465.775,434.103,462.754,433.39  L462.754,433.39z M464.254,434.14C463.908,433.499,463.367,432.497,464.254,434.14L464.254,434.14z"/>
<path fill-rule="evenodd" clip-rule="evenodd" fill="#6D340D" d="M463.504,431.89C466.227,430.789,466.366,430.732,463.504,431.89  L463.504,431.89z M464.254,431.89C465.141,430.247,464.6,431.249,464.254,431.89L464.254,431.89z M465.004,431.89  C465.827,431.067,465.827,431.067,465.004,431.89L465.004,431.89z"/>
<path fill-rule="evenodd" clip-rule="evenodd" fill="#6D340D" d="M464.254,429.64C466.38,429.32,468.538,428.995,464.254,429.64  L464.254,429.64z"/>
<path fill-rule="evenodd" clip-rule="evenodd" fill="#6D340D" d="M465.754,427.39C468.82,427.571,469.621,427.619,465.754,427.39  L465.754,427.39z"/>
<path fill-rule="evenodd" clip-rule="evenodd" fill="#6D340D" d="M468.004,425.89c1.965-0.045,0.187-2.298,3,0  C468.968,427.434,470.093,425.842,468.004,425.89z"/>
<path fill-rule="evenodd" clip-rule="evenodd" fill="#6D340D" d="M471.004,423.64C471.334,423.823,473.74,425.153,471.004,423.64  L471.004,423.64z"/>
<path fill-rule="evenodd" clip-rule="evenodd" fill="#6D340D" d="M471.754,422.89C473.031,423.702,474.862,424.867,471.754,422.89  L471.754,422.89z"/>
<path fill-rule="evenodd" clip-rule="evenodd" fill="#6D340D" d="M500.254,434.14C498.089,436.086,497.783,436.361,500.254,434.14  L500.254,434.14z M499.504,434.89C498.681,435.713,498.681,435.713,499.504,434.89L499.504,434.89z"/>
<path fill-rule="evenodd" clip-rule="evenodd" fill="#6D340D" d="M498.754,436.39C498.754,437.39,498.754,437.39,498.754,436.39  L498.754,436.39z"/>
<path fill-rule="evenodd" clip-rule="evenodd" fill="#6D340D" d="M499.504,438.64C498.182,437.13,500.075,439.292,499.504,438.64  L499.504,438.64z"/>
<path fill-rule="evenodd" clip-rule="evenodd" fill="#6D340D" d="M498.754,440.14C498.754,439.14,498.754,439.14,498.754,440.14  L498.754,440.14z"/>
<path fill-rule="evenodd" clip-rule="evenodd" fill="#6D340D" d="M498.754,441.64c-1.8,1.568-1.111,0.342,0.75,0  C499.367,441.734,497.721,442.54,498.754,441.64z"/>
<path fill-rule="evenodd" clip-rule="evenodd" fill="#6D340D" d="M498.754,444.64c-2.58,0.79-0.718,0.739-0.75,0.75  C495.246,444.415,496.867,445.217,498.754,444.64z"/>
<path fill-rule="evenodd" clip-rule="evenodd" fill="#6D340D" d="M495.754,447.64c-1.645,0.029-2.117,0.297,0.75-0.75  C494.779,448.923,495.554,447.644,495.754,447.64z"/>
<path fill-rule="evenodd" clip-rule="evenodd" fill="#6D340D" d="M492.754,451.39C491.54,447.215,492.492,450.489,492.754,451.39  L492.754,451.39z"/>
<path fill-rule="evenodd" clip-rule="evenodd" fill="#6D340D" d="M490.504,449.89C490.797,451.21,491.4,453.93,490.504,449.89  L490.504,449.89z M490.504,451.39C491.327,452.213,491.327,452.213,490.504,451.39L490.504,451.39z"/>
<path fill-rule="evenodd" clip-rule="evenodd" fill="#6D340D" d="M489.004,451.39C488.885,453.888,488.918,453.179,489.004,451.39  L489.004,451.39z M489.004,452.14C489.827,452.963,489.827,452.963,489.004,452.14L489.004,452.14z"/>
<path fill-rule="evenodd" clip-rule="evenodd" fill="#6D340D" d="M487.504,452.89C487.628,452.881,485.974,452.995,487.504,452.89  L487.504,452.89z"/>
<path fill="none" stroke="#6D340D" stroke-width="0.25" stroke-linecap="square" stroke-miterlimit="10" d="M501.004,429.64  c8.228,23.177-27.272,39.704-38.25,17.25C451.134,423.123,488.229,409.495,501.004,429.64z"/>
<path fill-rule="evenodd" clip-rule="evenodd" fill="#6D340D" d="M468.754,443.89c0.142-0.115,2.941-3.739,6-4.5  c-2.323-5.47,0.262-6.505-0.75-13.5c4.438-1.939,14.85-2.898,18-2.25c3.943,20.116-6.096,19.346-15.75,29.25  C474.395,451.025,470.329,446.851,468.754,443.89z"/>
<path fill-rule="evenodd" clip-rule="evenodd" fill="#A05A2B" d="M468.004,443.14c10.286-9.411,2.134-24.773,24-19.5  c3.904,19.805-7.551,19.002-18,28.5C472.993,448.111,469.845,446.269,468.004,443.14z"/>
<path fill-rule="evenodd" clip-rule="evenodd" fill="#7C3709" stroke="#000000" stroke-width="0.5" stroke-linecap="square" stroke-miterlimit="10" d="  M490.504,388.39c10.02,25.651-30.232,43.549-42,18.75C436.304,381.43,476.931,366.099,490.504,388.39z"/>
<path fill-rule="evenodd" clip-rule="evenodd" fill="#994D10" stroke="#000000" stroke-width="0.5" stroke-linecap="square" stroke-miterlimit="10" d="  M489.754,387.64c7.546,25.534-30.384,42.696-42,18C435.196,378.943,475.958,365.342,489.754,387.64z"/>
<path fill-rule="evenodd" clip-rule="evenodd" fill="#6D340D" d="M449.254,401.14c1.06-1.483-0.562-2.261,1.5-1.5  c-1.815,1.086-0.216-0.628,0-0.75C452.365,400.463,450.23,399.774,449.254,401.14z"/>
<path fill-rule="evenodd" clip-rule="evenodd" fill="#6D340D" d="M448.504,398.89c1.305-1,2.005-0.642,1.5-2.25  C452.51,399.177,449.872,397.841,448.504,398.89z"/>
<path fill-rule="evenodd" clip-rule="evenodd" fill="#6D340D" d="M448.504,396.64C449.44,396.036,451.636,394.619,448.504,396.64  L448.504,396.64z"/>
<path fill-rule="evenodd" clip-rule="evenodd" fill="#6D340D" d="M449.254,393.64c0.529,0.449,1.518-0.267,0.75,1.5  C450.19,394.292,450.077,394.339,449.254,393.64z"/>
<path fill-rule="evenodd" clip-rule="evenodd" fill="#6D340D" d="M449.254,392.14C450.666,392.514,453.321,393.217,449.254,392.14  L449.254,392.14z M450.754,392.14C449.754,392.14,449.754,392.14,450.754,392.14L450.754,392.14z"/>
<path fill-rule="evenodd" clip-rule="evenodd" fill="#6D340D" d="M450.004,390.64C453.599,388.586,451.426,389.828,450.004,390.64  L450.004,390.64z M450.754,389.89C451.577,389.066,451.577,389.066,450.754,389.89L450.754,389.89z M451.504,389.89  C452.327,390.714,452.327,390.714,451.504,389.89L451.504,389.89z"/>
<path fill-rule="evenodd" clip-rule="evenodd" fill="#6D340D" d="M451.504,387.64c2.038,0.081-0.701-0.641,2.25,0  c-1.03-0.677-1.03-0.927,0-0.75C452.167,390.108,452.046,387.662,451.504,387.64z"/>
<path fill-rule="evenodd" clip-rule="evenodd" fill="#6D340D" d="M453.004,386.14C455.581,385.16,454.532,385.559,453.004,386.14  L453.004,386.14z"/>
<path fill-rule="evenodd" clip-rule="evenodd" fill="#6D340D" d="M454.504,383.89c1.255,0.169,1.349,0.181,1.5-1.5  c0.432,1.264,0.33,1.002,1.5,1.5c-0.98,1.61-0.653-0.581-2.25,0.75C457.521,386.852,455.841,384.071,454.504,383.89z"/>
<path fill-rule="evenodd" clip-rule="evenodd" fill="#6D340D" d="M457.504,381.64C458.93,383.409,458.659,383.073,457.504,381.64  L457.504,381.64z"/>
<path fill-rule="evenodd" clip-rule="evenodd" fill="#6D340D" d="M458.254,380.89C461.068,383.45,459.454,381.981,458.254,380.89  L458.254,380.89z"/>
<path fill-rule="evenodd" clip-rule="evenodd" fill="#6D340D" d="M486.754,392.14C483.919,394.951,484.753,394.124,486.754,392.14  L486.754,392.14z M486.004,392.89C485.181,393.714,485.181,393.714,486.004,392.89L486.004,392.89z"/>
<path fill-rule="evenodd" clip-rule="evenodd" fill="#6D340D" d="M486.004,395.14C485.181,395.964,485.181,395.964,486.004,395.14  L486.004,395.14z"/>
<path fill-rule="evenodd" clip-rule="evenodd" fill="#6D340D" d="M486.004,396.64c-1.768,1.301-1.294,0.95,0-0.75  C486.128,398.033,485.659,396.894,486.004,396.64z"/>
<path fill-rule="evenodd" clip-rule="evenodd" fill="#6D340D" d="M485.254,398.14C485.254,399.14,485.254,399.14,485.254,398.14  L485.254,398.14z"/>
<path fill-rule="evenodd" clip-rule="evenodd" fill="#6D340D" d="M485.254,400.39c0.104,0.408-2.524-0.312,0.75,0  C486.183,400.482,484.925,399.108,485.254,400.39z"/>
<path fill-rule="evenodd" clip-rule="evenodd" fill="#6D340D" d="M485.254,402.64c-1.583,0.816-1.069,2.472-2.25,0  C482.269,404.564,483.917,403.329,485.254,402.64z"/>
<path fill-rule="evenodd" clip-rule="evenodd" fill="#6D340D" d="M482.254,406.39c-0.146-0.362-1.883-2.106,0.75,0  c-0.75-0.25-1,0-0.75,0.75C482.055,406.573,481.618,404.821,482.254,406.39z"/>
<path fill-rule="evenodd" clip-rule="evenodd" fill="#6D340D" d="M479.254,409.39C477.928,405.829,479.426,409.852,479.254,409.39  L479.254,409.39z"/>
<path fill-rule="evenodd" clip-rule="evenodd" fill="#6D340D" d="M477.004,408.64C477.361,409.774,477.989,411.771,477.004,408.64  L477.004,408.64z M477.004,409.39C477.827,410.214,477.827,410.214,477.004,409.39L477.004,409.39z"/>
<path fill-rule="evenodd" clip-rule="evenodd" fill="#6D340D" d="M475.504,409.39C475.715,411.229,475.829,412.223,475.504,409.39  L475.504,409.39z M475.504,410.89C476.327,411.714,476.327,411.714,475.504,410.89L475.504,410.89z"/>
<path fill-rule="evenodd" clip-rule="evenodd" fill="#6D340D" d="M474.004,411.64C473.706,411.415,473.012,410.89,474.004,411.64  L474.004,411.64z"/>
<path fill="none" stroke="#6D340D" stroke-width="0.25" stroke-linecap="square" stroke-miterlimit="10" d="M487.504,388.39  c8.667,22.397-28.914,39.839-37.5,18.375C440.018,381.799,474.321,366.853,487.504,388.39z"/>
<path fill-rule="evenodd" clip-rule="evenodd" fill="#6D340D" d="M455.254,402.64c0.491-0.402,2.938-4.56,6-5.25  c-2.013-4.625,0.173-6.625-0.75-13.5c11.181-5,18.949-3.023,18.75,9.75c-0.162,10.422-10.477,10.297-16.5,18  c-0.665-0.612-1.415-0.862-2.25-0.75C460.218,405.744,457.291,406.087,455.254,402.64z"/>
<path fill-rule="evenodd" clip-rule="evenodd" fill="#A05A2B" d="M454.504,401.89c4.974-4.521,7.071-11.029,6-18.75  c2.192-0.941,13.744-2.204,18-1.5c3.72,17.016-5.922,21.51-16.5,29.25C459.961,408.199,456.233,404.801,454.504,401.89z"/>
<path fill-rule="evenodd" clip-rule="evenodd" fill="#AFAFAF" stroke="#000000" stroke-width="0.5" stroke-linecap="square" stroke-miterlimit="10" d="  M441.754,476.14c7.416,21.718-26.02,36.946-36.002,15.75C394.996,469.049,429.783,458.393,441.754,476.14z"/>
<path fill-rule="evenodd" clip-rule="evenodd" fill="#858585" d="M408.002,488.14C408.571,486.54,409.091,485.076,408.002,488.14  L408.002,488.14z"/>
<path fill-rule="evenodd" clip-rule="evenodd" fill="#858585" d="M407.252,485.89C409.336,484.24,409.198,484.349,407.252,485.89  L407.252,485.89z"/>
<path fill-rule="evenodd" clip-rule="evenodd" fill="#858585" d="M407.252,483.64C406.787,483.735,410.882,482.901,407.252,483.64  L407.252,483.64z"/>
<path fill-rule="evenodd" clip-rule="evenodd" fill="#858585" d="M407.252,481.39C409.055,482.426,409.574,482.724,407.252,481.39  L407.252,481.39z"/>
<path fill-rule="evenodd" clip-rule="evenodd" fill="#858585" d="M408.002,479.89C410.568,480.703,409.748,480.443,408.002,479.89  L408.002,479.89z M408.752,480.64C408.406,479.999,407.865,478.997,408.752,480.64L408.752,480.64z"/>
<path fill-rule="evenodd" clip-rule="evenodd" fill="#858585" d="M408.752,478.39C408.163,478.516,412.192,477.653,408.752,478.39  L408.752,478.39z M409.502,478.39C408.678,477.567,408.678,477.567,409.502,478.39L409.502,478.39z M409.502,478.39  C410.504,478.39,410.504,478.39,409.502,478.39L409.502,478.39z"/>
<path fill-rule="evenodd" clip-rule="evenodd" fill="#858585" d="M409.502,476.89C411.4,476.404,411.708,476.325,409.502,476.89  L409.502,476.89z"/>
<path fill-rule="evenodd" clip-rule="evenodd" fill="#858585" d="M410.254,474.64C412.291,474.913,412.844,474.987,410.254,474.64  L410.254,474.64z"/>
<path fill-rule="evenodd" clip-rule="evenodd" fill="#858585" d="M411.754,473.14c1.915,0.424,0.731-1.134,3,0.75  C412.97,475.089,413.853,473.605,411.754,473.14z"/>
<path fill-rule="evenodd" clip-rule="evenodd" fill="#858585" d="M414.754,471.64C414.924,471.747,417.558,473.405,414.754,471.64  L414.754,471.64z"/>
<path fill-rule="evenodd" clip-rule="evenodd" fill="#858585" d="M415.504,470.89C415.834,471.073,418.24,472.403,415.504,470.89  L415.504,470.89z"/>
<path fill-rule="evenodd" clip-rule="evenodd" fill="#858585" d="M439.504,480.64C437.644,481.63,436.943,482.002,439.504,480.64  L439.504,480.64z M438.754,481.39C438.15,481.994,438.15,481.994,438.754,481.39L438.754,481.39z"/>
<path fill-rule="evenodd" clip-rule="evenodd" fill="#858585" d="M438.754,482.14C437.931,482.963,437.931,482.963,438.754,482.14  L438.754,482.14z"/>
<path fill-rule="evenodd" clip-rule="evenodd" fill="#858585" d="M438.754,484.39C438.742,484.454,438.825,483.999,438.754,484.39  L438.754,484.39z"/>
<path fill-rule="evenodd" clip-rule="evenodd" fill="#858585" d="M438.004,485.14C438.004,486.14,438.004,486.14,438.004,485.14  L438.004,485.14z"/>
<path fill-rule="evenodd" clip-rule="evenodd" fill="#858585" d="M438.004,487.39C438.143,487.229,438.471,486.849,438.004,487.39  L438.004,487.39z"/>
<path fill-rule="evenodd" clip-rule="evenodd" fill="#858585" d="M438.004,489.64C436.129,489.561,435.749,489.545,438.004,489.64  L438.004,489.64z"/>
<path fill-rule="evenodd" clip-rule="evenodd" fill="#858585" d="M435.754,491.89C434.396,491.992,436.075,491.866,435.754,491.89  L435.754,491.89z"/>
<path fill-rule="evenodd" clip-rule="evenodd" fill="#858585" d="M432.754,494.89C433.341,493.306,432.997,494.233,432.754,494.89  L432.754,494.89z"/>
<path fill-rule="evenodd" clip-rule="evenodd" fill="#858585" d="M431.254,494.14C431.254,496.044,431.254,496.044,431.254,494.14  L431.254,494.14z M431.254,494.89C431.6,495.532,432.141,496.534,431.254,494.89L431.254,494.89z"/>
<path fill-rule="evenodd" clip-rule="evenodd" fill="#858585" d="M429.754,494.89C429.833,495.492,430.121,497.695,429.754,494.89  L429.754,494.89z M429.754,495.64C430.577,496.463,430.577,496.463,429.754,495.64L429.754,495.64z"/>
<path fill-rule="evenodd" clip-rule="evenodd" fill="#858585" d="M429.004,496.39C426.98,496.347,428.352,496.376,429.004,496.39  L429.004,496.39z"/>
<path fill="none" stroke="#858585" stroke-width="0.25" stroke-linecap="square" stroke-miterlimit="10" d="M440.254,476.89  c4.801,19.465-19.354,32.447-31.877,15.75C394.794,474.53,428.09,459.069,440.254,476.89z"/>
<path fill-rule="evenodd" clip-rule="evenodd" fill="#858585" d="M412.504,488.89c5.462-8.662,3.112-20.222,20.25-17.25  c3.118,13.374-5.635,20.433-15,24.75C416.748,493.27,414.174,491.437,412.504,488.89z"/>
<path fill-rule="evenodd" clip-rule="evenodd" fill="#BFBDBB" d="M412.504,488.14c0.44-0.827,2.006-2.799,5.25-3.75  c-7.727-19.226,34.366-8.77,0.75,11.25c-0.5,0-1,0-1.5,0C416.371,492,414.491,490.849,412.504,488.14z"/>
<path fill-rule="evenodd" clip-rule="evenodd" fill="#AFAFAF" stroke="#000000" stroke-width="0.5" stroke-linecap="square" stroke-miterlimit="10" d="  M492.004,410.14c6.88,19.626-21.272,37.28-33.75,18.75C443.753,407.356,478.571,389.851,492.004,410.14z"/>
<path fill-rule="evenodd" clip-rule="evenodd" fill="#858585" d="M458.254,422.14c0.938-1.41-0.631-1.623,1.5-1.5  C459.934,420.62,459.165,420.771,458.254,422.14z"/>
<path fill-rule="evenodd" clip-rule="evenodd" fill="#858585" d="M458.254,419.89C458.692,419.361,460.31,417.405,458.254,419.89  L458.254,419.89z"/>
<path fill-rule="evenodd" clip-rule="evenodd" fill="#858585" d="M457.504,418.39C459.98,417.562,459.828,417.613,457.504,418.39  L457.504,418.39z"/>
<path fill-rule="evenodd" clip-rule="evenodd" fill="#858585" d="M458.254,415.39C459.087,416.26,460.371,417.602,458.254,415.39  L458.254,415.39z"/>
<path fill-rule="evenodd" clip-rule="evenodd" fill="#858585" d="M458.254,414.64C460.507,414.33,461.164,414.239,458.254,414.64  L458.254,414.64z M459.004,414.64C460.004,414.64,460.004,414.64,459.004,414.64L459.004,414.64z"/>
<path fill-rule="evenodd" clip-rule="evenodd" fill="#858585" d="M459.004,413.14C461.179,412.025,461.671,411.773,459.004,413.14  L459.004,413.14z M459.754,412.39C459.754,411.39,459.754,411.39,459.754,412.39L459.754,412.39z M459.754,412.39  C461.397,413.277,460.396,412.736,459.754,412.39L459.754,412.39z"/>
<path fill-rule="evenodd" clip-rule="evenodd" fill="#858585" d="M459.754,410.89c1.915-0.515,0.529-1.06,1.5-0.75  C462.586,410.788,461.913,410.309,459.754,410.89z"/>
<path fill-rule="evenodd" clip-rule="evenodd" fill="#858585" d="M461.254,409.39C463.723,408.845,462.823,409.043,461.254,409.39  L461.254,409.39z"/>
<path fill-rule="evenodd" clip-rule="evenodd" fill="#858585" d="M462.754,407.89C465.252,407.635,464.642,407.697,462.754,407.89  L462.754,407.89z"/>
<path fill-rule="evenodd" clip-rule="evenodd" fill="#858585" d="M465.004,405.64C465.731,406.041,467.3,406.904,465.004,405.64  L465.004,405.64z"/>
<path fill-rule="evenodd" clip-rule="evenodd" fill="#858585" d="M465.754,404.89C468.297,407.008,467.787,406.583,465.754,404.89  L465.754,404.89z"/>
<path fill-rule="evenodd" clip-rule="evenodd" fill="#858585" d="M489.754,414.64C488.257,416.241,488.148,416.357,489.754,414.64  L489.754,414.64z M489.754,415.39C487.094,416.784,489.045,415.762,489.754,415.39L489.754,415.39z"/>
<path fill-rule="evenodd" clip-rule="evenodd" fill="#858585" d="M489.004,416.89C489.004,417.89,489.004,417.89,489.004,416.89  L489.004,416.89z"/>
<path fill-rule="evenodd" clip-rule="evenodd" fill="#858585" d="M489.004,418.39C487.696,417.942,490.902,419.041,489.004,418.39  L489.004,418.39z"/>
<path fill-rule="evenodd" clip-rule="evenodd" fill="#858585" d="M489.004,419.89C488.4,419.287,488.4,419.287,489.004,419.89  L489.004,419.89z"/>
<path fill-rule="evenodd" clip-rule="evenodd" fill="#858585" d="M489.004,421.39C487.237,420.245,489.498,421.71,489.004,421.39  L489.004,421.39z"/>
<path fill-rule="evenodd" clip-rule="evenodd" fill="#858585" d="M489.004,423.64C487.605,424.044,485.507,424.652,489.004,423.64  L489.004,423.64z"/>
<path fill-rule="evenodd" clip-rule="evenodd" fill="#858585" d="M486.004,425.89C485.62,425.362,487.172,427.501,486.004,425.89  L486.004,425.89z"/>
<path fill-rule="evenodd" clip-rule="evenodd" fill="#858585" d="M483.754,429.64C482.54,425.465,483.492,428.739,483.754,429.64  L483.754,429.64z"/>
<path fill-rule="evenodd" clip-rule="evenodd" fill="#858585" d="M482.254,428.14C482.151,429.09,481.932,431.122,482.254,428.14  L482.254,428.14z M482.254,429.64C481.254,429.64,481.254,429.64,482.254,429.64L482.254,429.64z"/>
<path fill-rule="evenodd" clip-rule="evenodd" fill="#858585" d="M480.754,428.89C480.497,430.064,480.09,431.932,480.754,428.89  L480.754,428.89z M480.754,430.39L480.754,430.39z"/>
<path fill-rule="evenodd" clip-rule="evenodd" fill="#858585" d="M479.254,431.14C480.517,432.082,476.928,429.406,479.254,431.14  L479.254,431.14z"/>
<path fill="none" stroke="#858585" stroke-width="0.25" stroke-linecap="square" stroke-miterlimit="10" d="M491.254,410.89  c4.324,17.812-19.122,33.819-31.5,17.25C444.752,408.059,478.098,393.971,491.254,410.89z"/>
<path fill-rule="evenodd" clip-rule="evenodd" fill="#858585" d="M462.754,422.89c16.899-27.262,29.331-7.254,6.75,7.5  c-0.5,0-1,0-1.5,0C467.41,425.974,464.799,425.912,462.754,422.89z"/>
<path fill-rule="evenodd" clip-rule="evenodd" fill="#BFBDBB" d="M462.754,422.89c17.809-28.979,29.013-5.345,6.75,7.5  C467.62,427.986,464.252,424.975,462.754,422.89z"/>
</svg>