<svg xmlns="http://www.w3.org/2000/svg" xmlns:xlink="http://www.w3.org/1999/xlink" version="1.1" id="Layer_1" x="0px" y="0px" enable-background="new 0 0 822.05 841.89" xml:space="preserve" viewBox="299.05 339.64 221.17 163.5">
<path fill-rule="evenodd" clip-rule="evenodd" fill="#993817" stroke="#000000" stroke-linecap="square" stroke-miterlimit="10" d="  M519,470.64c-39.732,0-79.464,0-119.196,0c-8.353,0-118.74,7.125-97.554-16.5c10.795-12.038,102.799,0,119.196,0  C440.08,454.14,528.612,439.58,519,470.64z"/>
<path fill-rule="evenodd" clip-rule="evenodd" fill="#F1EC00" stroke="#000000" stroke-linecap="square" stroke-miterlimit="10" d="  M333.75,448.14c-8.752,2.556-17.095,6.345-24.75,11.25c23.932,11.267,72.18,10.359,95.25-4.5  c-11.154-4.528-27.667-4.753-29.625-16.5c-1.195-7.173-8.23-11.161-14.625-12.75C344.707,421.84,333.351,435.101,333.75,448.14z"/>
<path fill-rule="evenodd" clip-rule="evenodd" fill="#CE0822" stroke="#000000" stroke-width="0.5" stroke-linecap="square" stroke-miterlimit="10" d="  M334.5,444.39c13.096,0.277,26.141,0.196,39-2.25C368.875,450.284,336.042,452.404,334.5,444.39z"/>
<path fill-rule="evenodd" clip-rule="evenodd" fill="#CE0822" stroke="#000000" stroke-width="0.5" stroke-linecap="square" stroke-miterlimit="10" d="  M371.25,442.89c5.115-2.637,2.508-12.07,10.5-2.25C378.11,444.35,372.603,442.494,371.25,442.89z"/>
<path fill-rule="evenodd" clip-rule="evenodd" fill="#CE0822" stroke="#000000" stroke-width="0.5" stroke-linecap="square" stroke-miterlimit="10" d="  M370.5,444.39C366.984,433.015,368.626,435.223,370.5,444.39L370.5,444.39z"/>
<path fill-rule="evenodd" clip-rule="evenodd" fill="#CE0822" stroke="#000000" stroke-width="0.5" stroke-linecap="square" stroke-miterlimit="10" d="  M372,445.14C357.734,446.298,361.746,444.22,372,445.14L372,445.14z"/>
<path fill-rule="evenodd" clip-rule="evenodd" fill="#CE0822" stroke="#000000" stroke-width="0.5" stroke-linecap="square" stroke-miterlimit="10" d="  M373.5,443.64c1.508,0.941,6.522,0,8.25,0C377.12,456.614,376.986,446.912,373.5,443.64z"/>
<path fill-rule="evenodd" clip-rule="evenodd" fill="#CE0822" stroke="#000000" stroke-width="0.5" stroke-linecap="square" stroke-miterlimit="10" d="  M373.5,445.14c-0.259,1.327,2.886,5.471,3,7.5c-3.763,0.095-6.147,0.924-9.75,0C367.583,447.812,373.6,444.967,373.5,445.14z"/>
<path fill-rule="evenodd" clip-rule="evenodd" fill="#CE0822" stroke="#000000" stroke-width="0.5" stroke-linecap="square" stroke-miterlimit="10" d="  M374.25,444.39C367.835,443.693,369.187,443.839,374.25,444.39L374.25,444.39z"/>
<path fill-rule="evenodd" clip-rule="evenodd" fill="#CE0822" d="M321.75,428.64l-8.25-4.5L321.75,428.64z"/>
<line fill="none" stroke="#000000" stroke-width="0.5" stroke-linecap="square" stroke-miterlimit="10" x1="321.75" y1="428.64" x2="313.5" y2="424.14"/>
<path fill-rule="evenodd" clip-rule="evenodd" fill="#CE0822" d="M326.25,421.89l-6-6.75L326.25,421.89z"/>
<line fill="none" stroke="#000000" stroke-width="0.5" stroke-linecap="square" stroke-miterlimit="10" x1="326.25" y1="421.89" x2="320.25" y2="415.14"/>
<path fill-rule="evenodd" clip-rule="evenodd" fill="#CE0822" d="M333.75,418.14l-2.25-9.75L333.75,418.14z"/>
<line fill="none" stroke="#000000" stroke-width="0.5" stroke-linecap="square" stroke-miterlimit="10" x1="333.75" y1="418.14" x2="331.5" y2="408.39"/>
<path fill-rule="evenodd" clip-rule="evenodd" fill="#CE0822" d="M347.25,416.64l-0.75-9.75L347.25,416.64z"/>
<line fill="none" stroke="#000000" stroke-width="0.5" stroke-linecap="square" stroke-miterlimit="10" x1="347.25" y1="416.64" x2="346.5" y2="406.89"/>
<path fill-rule="evenodd" clip-rule="evenodd" fill="#CE0822" d="M357.75,415.14l1.5-9L357.75,415.14z"/>
<line fill="none" stroke="#000000" stroke-width="0.5" stroke-linecap="square" stroke-miterlimit="10" x1="357.75" y1="415.14" x2="359.25" y2="406.14"/>
<path fill-rule="evenodd" clip-rule="evenodd" fill="#CE0822" d="M368.25,416.64l4.5-8.25L368.25,416.64z"/>
<line fill="none" stroke="#000000" stroke-width="0.5" stroke-linecap="square" stroke-miterlimit="10" x1="368.25" y1="416.64" x2="372.75" y2="408.39"/>
<path fill-rule="evenodd" clip-rule="evenodd" fill="#CE0822" d="M378,422.64l8.25-5.25L378,422.64z"/>
<line fill="none" stroke="#000000" stroke-width="0.5" stroke-linecap="square" stroke-miterlimit="10" x1="378" y1="422.64" x2="386.25" y2="417.39"/>
<path fill-rule="evenodd" clip-rule="evenodd" fill="#CE0822" d="M386.25,429.39l8.25-3L386.25,429.39z"/>
<line fill="none" stroke="#000000" stroke-width="0.5" stroke-linecap="square" stroke-miterlimit="10" x1="386.25" y1="429.39" x2="394.5" y2="426.39"/>
<path fill-rule="evenodd" clip-rule="evenodd" fill="#CE0822" d="M320.25,433.14h-9H320.25z"/>
<line fill="none" stroke="#000000" stroke-width="0.5" stroke-linecap="square" stroke-miterlimit="10" x1="320.25" y1="433.14" x2="311.25" y2="433.14"/>
<path fill-rule="evenodd" clip-rule="evenodd" fill="#993817" stroke="#000000" stroke-linecap="square" stroke-miterlimit="10" d="  M519,473.64c-39.732,0-79.464,0-119.196,0c-9.974,0-104.965-1.318-97.554-8.25c13.77-12.878,100.4,0,119.196,0  C438.585,465.39,517.948,455.76,519,473.64z"/>
<path fill-rule="evenodd" clip-rule="evenodd" fill="#FFFFFF" stroke="#000000" stroke-width="0.5" stroke-linecap="square" stroke-miterlimit="10" d="  M375,498.39c-6.492,0-66.938,4.189-42.75-20.25C345.045,465.212,382.136,474.81,375,498.39z"/>
<text transform="matrix(1 0 0 1 336.7686 493.1626)" font-family="'ArialMT'" font-size="21">£60</text>
<path fill-rule="evenodd" clip-rule="evenodd" fill="#D1D1D1" stroke="#000000" stroke-linecap="square" stroke-miterlimit="10" d="  M438,448.89c-7.562,2.32-15.266,7.568-21.75,12c22.878,9.367,63.888,10.875,84-5.25c-10.176-4.142-20.031-10.724-25.5-14.25  c-4.164-2.685-2.525-11.381-10.5-13.5C448.967,423.829,437.641,434.31,438,448.89z"/>
<path fill-rule="evenodd" clip-rule="evenodd" fill="#2A1A6D" stroke="#000000" stroke-width="0.5" stroke-linecap="square" stroke-miterlimit="10" d="  M440.25,445.89c7.021,1.609,45.078-2.234,35.25,4.5C464.413,457.988,435.451,457.458,440.25,445.89z"/>
<path fill-rule="evenodd" clip-rule="evenodd" fill="#2A1A6D" stroke="#000000" stroke-width="0.5" stroke-linecap="square" stroke-miterlimit="10" d="  M435.75,448.14c-9.27,3.592-16.462,3.367-11.25,13.5C433.001,457.992,434.736,452.498,435.75,448.14z"/>
<path fill-rule="evenodd" clip-rule="evenodd" fill="#2A1A6D" stroke="#000000" stroke-width="0.5" stroke-linecap="square" stroke-miterlimit="10" d="  M442.5,448.14c1.615,5.071,0.517,11.886,0.75,17.25c-3.25-0.5-6.5-1-9.75-1.5C433.972,455.483,438.192,451.327,442.5,448.14z"/>
<path fill-rule="evenodd" clip-rule="evenodd" fill="#2A1A6D" stroke="#000000" stroke-width="0.5" stroke-linecap="square" stroke-miterlimit="10" d="  M446.25,448.14C433.576,453.602,433.812,441.98,446.25,448.14L446.25,448.14z"/>
<path fill-rule="evenodd" clip-rule="evenodd" fill="#F8E50B" stroke="#000000" stroke-width="0.5" stroke-linecap="square" stroke-miterlimit="10" d="  M489,451.14c-2.421,13.208,3.727,23.607,16.5,27.75c-13.277,1.638-21.14,10.623-21,24c-5.743-12.312-17.062-16.886-30-12.75  c10.95-8.901,12.119-20.728,3-31.5C469.588,465.526,481.422,462.811,489,451.14z"/>
<text transform="matrix(0.9191 0.3939 -0.3939 0.9191 463.4854 478.8979)"><tspan x="0" y="0" font-family="'ArialMT'" font-size="24" letter-spacing="-7">£</tspan><tspan x="6.004" y="0" font-family="'ArialMT'" font-size="24">5</tspan></text>
<path fill-rule="evenodd" clip-rule="evenodd" fill="#D01924" stroke="#000000" stroke-linecap="square" stroke-miterlimit="10" d="  M450.75,379.14c0-16.817-8.347-39,11.111-39c15.551,0-11.779,42.574,15.139,39c-6.75,13.25-13.5,26.5-20.25,39.75  c-5.75-13.25-11.5-26.5-17.25-39.75C443.25,379.14,447,379.14,450.75,379.14z"/>
</svg>