<svg xmlns="http://www.w3.org/2000/svg" xmlns:xlink="http://www.w3.org/1999/xlink" version="1.1" id="Layer_1" x="0px" y="0px" enable-background="new 0 0 822.05 841.89" xml:space="preserve" viewBox="207.19 309.23 404.37 223.59">
<path fill-rule="evenodd" clip-rule="evenodd" fill="#FFFFFF" stroke="#000000" stroke-width="2" stroke-linecap="square" stroke-miterlimit="10" d="  M391.938,310.23c-60,29.5-120,59-180,88.5c70.698,29.909,141.396,59.819,212.093,89.729c14.05,5.944,71.149-35.604,84.122-42.516  c33.763-17.987,67.524-35.975,101.287-53.963C536.938,364.73,464.438,337.48,391.938,310.23z"/>
<path fill-rule="evenodd" clip-rule="evenodd" fill="#E9EAEB" stroke="#000000" stroke-width="2" stroke-linecap="square" stroke-miterlimit="10" d="  M208.188,433.978c0-11.499,0-22.999,0-34.498c72.675,29.662,145.351,59.325,218.025,88.987  c13.973,5.703,69.479-36.149,82.181-43.194c32.932-18.264,65.864-36.528,98.796-54.793c6.661,49.482-4.503,44.456-47.884,68.735  c-42.812,23.961-85.624,47.921-128.436,71.882c-12.65,7.08-93.2-40.252-106.638-46.154  C285.551,467.955,246.869,450.966,208.188,433.978z"/>
<path fill-rule="evenodd" clip-rule="evenodd" fill="#48484A" stroke="#000000" stroke-width="2" stroke-linecap="square" stroke-miterlimit="10" d="  M362.688,324.48c34.251,13.22,39.304,18.404,71.252,0.75C400.296,313.215,394.329,309.065,362.688,324.48z"/>
<path fill-rule="evenodd" clip-rule="evenodd" fill="#48484A" stroke="#000000" stroke-width="2" stroke-linecap="square" stroke-miterlimit="10" d="  M289.188,360.48c38.427,15.011,43.895,21.096,79.5,0.75C330.594,345.19,326.535,342.95,289.188,360.48z"/>
<path fill-rule="evenodd" clip-rule="evenodd" fill="#48484A" stroke="#000000" stroke-width="2" stroke-linecap="square" stroke-miterlimit="10" d="  M209.688,399.48c45.618,19.455,48.744,23.045,91.5-1.5C257.562,382.353,251.344,379.788,209.688,399.48z"/>
<path fill-rule="evenodd" clip-rule="evenodd" fill="#48484A" stroke="#000000" stroke-width="2" stroke-linecap="square" stroke-miterlimit="10" d="  M298.938,399.48c40.694,14.961,47.409,20.624,85.5,0.75C344.149,385.798,337.078,380.816,298.938,399.48z"/>
<path fill-rule="evenodd" clip-rule="evenodd" fill="#48484A" stroke="#000000" stroke-width="2" stroke-linecap="square" stroke-miterlimit="10" d="  M367.188,359.73c41.106,15.716,47.156,21.59,85.502,0.75C412.846,346.803,405.021,342.021,367.188,359.73z"/>
<path fill-rule="evenodd" clip-rule="evenodd" fill="#48484A" stroke="#000000" stroke-width="2" stroke-linecap="square" stroke-miterlimit="10" d="  M451.939,362.73c41.011,15.681,47.468,21.304,86.25,1.5C498.034,350.058,490.141,344.848,451.939,362.73z"/>
<path fill-rule="evenodd" clip-rule="evenodd" fill="#48484A" stroke="#000000" stroke-width="2" stroke-linecap="square" stroke-miterlimit="10" d="  M462.439,395.73c34.109,11.573,40.454,14.966,72.75,0C499.845,381.592,495.912,378.197,462.439,395.73z"/>
<path fill-rule="evenodd" clip-rule="evenodd" fill="#48484A" stroke="#000000" stroke-width="2" stroke-linecap="square" stroke-miterlimit="10" d="  M382.188,399.48c40.694,14.961,47.41,20.624,85.502,0.75C427.4,385.798,420.329,380.816,382.188,399.48z"/>
<path fill-rule="evenodd" clip-rule="evenodd" fill="#48484A" stroke="#000000" stroke-width="2" stroke-linecap="square" stroke-miterlimit="10" d="  M393.438,433.228c36.962,15.147,41.838,20.946,76.502,1.5C433.734,420.851,427.953,415.973,393.438,433.228z"/>
<path fill-rule="evenodd" clip-rule="evenodd" fill="#48484A" stroke="#000000" stroke-width="2" stroke-linecap="square" stroke-miterlimit="10" d="  M307.938,438.478c41.075,19.07,43.164,18.887,83.25-2.25C350.964,421.957,345.725,419.201,307.938,438.478z"/>
<path fill-rule="evenodd" clip-rule="evenodd" fill="#48484A" stroke="#000000" stroke-width="2" stroke-linecap="square" stroke-miterlimit="10" d="  M388.188,471.478c41.016,15.877,44.049,19.547,81.002-3.75C429.146,449.595,426.874,451.081,388.188,471.478z"/>
<path fill-rule="evenodd" clip-rule="evenodd" fill="#48484A" stroke="#000000" stroke-width="2" stroke-linecap="square" stroke-miterlimit="10" d="  M460.939,430.978c41.916,15.968,44.912,19.492,82.5-4.5C503.369,411.454,499.251,411.824,460.939,430.978z"/>
<path fill-rule="evenodd" clip-rule="evenodd" fill="#48484A" stroke="#000000" stroke-width="2" stroke-linecap="square" stroke-miterlimit="10" d="  M535.189,393.48c36.725,14.551,40.078,15.582,75-2.25C573.727,377.725,569.597,376.276,535.189,393.48z"/>
<path fill-rule="evenodd" clip-rule="evenodd" fill="#48484A" stroke="#000000" stroke-width="2" stroke-linecap="square" stroke-miterlimit="10" d="  M259.188,421.23c0,12.249,0,24.499,0,36.748c-39.179-17.861-51-14.384-51-57.748C225.188,407.23,242.188,414.23,259.188,421.23z"/>
<path fill-rule="evenodd" clip-rule="evenodd" fill="#48484A" stroke="#000000" stroke-width="2" stroke-linecap="square" stroke-miterlimit="10" d="  M305.688,439.228c0,43.177,7.323,38.906,47.25,54.75C352.938,451.932,344.271,455.764,305.688,439.228z"/>
<path fill-rule="evenodd" clip-rule="evenodd" fill="#48484A" stroke="#000000" stroke-width="2" stroke-linecap="square" stroke-miterlimit="10" d="  M388.938,473.728c0,26.223-0.133,59.626,39.752,56.25c38.506-3.259,39-33.49,39-61.5C431.54,485.53,426.482,486.724,388.938,473.728  z"/>
<path fill-rule="evenodd" clip-rule="evenodd" fill="#48484A" stroke="#000000" stroke-width="2" stroke-linecap="square" stroke-miterlimit="10" d="  M505.189,451.228c0,13,0,26,0,39c33.812-19.98,33-20.528,33-60C527.189,437.228,516.189,444.228,505.189,451.228z"/>
<path fill-rule="evenodd" clip-rule="evenodd" fill="#48484A" stroke="#000000" stroke-width="2" stroke-linecap="square" stroke-miterlimit="10" d="  M574.189,411.48c0,12.499,0,24.999,0,37.498c36.763-18.742,38.507-16.286,35.25-56.998  C597.689,398.48,585.939,404.98,574.189,411.48z"/>
</svg>