<svg xmlns="http://www.w3.org/2000/svg" xmlns:xlink="http://www.w3.org/1999/xlink" version="1.1" id="Layer_1" x="0px" y="0px" enable-background="new 0 0 822.05 841.89" xml:space="preserve" viewBox="296.54 256 229.09 331.45">
<path fill-rule="evenodd" clip-rule="evenodd" fill="#FFDF88" stroke="#000000" stroke-width="2" stroke-linecap="square" stroke-miterlimit="10" d="  M297.537,297.695c17.156,54.653,34.312,109.306,51.467,163.959c13.412,42.727,66.021,88.885,93.283,124.791  c28.411-29.112,66.041-59.565,75-101.25c12.564-58.46,4.685-128.361,6.868-188.182c1.12-30.691,1.616-45.282-33.082-38.294  C426.562,271.711,362.049,284.703,297.537,297.695z"/>
<path fill-rule="evenodd" clip-rule="evenodd" fill="#FFDF88" d="M299.037,301.445c38.25,43.25,76.5,86.5,114.75,129.75  c33.883-33.883,110.527-97.935,105.75-153c-0.761-8.771,3.983-21.339-7.632-19.032c-23.652,4.698-47.304,9.396-70.956,14.094  C393.645,282.653,346.341,292.049,299.037,301.445z"/>
<path fill="none" stroke="#000000" stroke-width="2" stroke-linecap="square" stroke-miterlimit="10" d="M299.037,301.445  c38.25,43.25,76.5,86.5,114.75,129.75c39.867-39.868,120.001-108.13,104.25-173.25"/>
<line fill="none" stroke="#000000" stroke-width="2" stroke-linecap="square" stroke-miterlimit="10" x1="442.287" y1="586.445" x2="413.787" y2="431.195"/>
</svg>