<svg xmlns="http://www.w3.org/2000/svg" xmlns:xlink="http://www.w3.org/1999/xlink" version="1.1" id="Layer_1" x="0px" y="0px" enable-background="new 0 0 822.05 841.89" xml:space="preserve" viewBox="235.91 258.39 350.49 326">
<path fill-rule="evenodd" clip-rule="evenodd" fill="#FFDB78" stroke="#000000" stroke-width="2" stroke-linecap="square" stroke-miterlimit="10" d="  M246.25,410.14c37.366,65.273,68.035,146.644,159,120.75c-15.82-35.102-31.641-70.203-47.461-105.304  C352.458,413.758,262.216,412.19,246.25,410.14z"/>
<path fill-rule="evenodd" clip-rule="evenodd" fill="#E0C47A" stroke="#000000" stroke-width="2" stroke-linecap="square" stroke-miterlimit="10" d="  M405.25,530.89c3.25-30.25,6.5-60.5,9.75-90.75c37.559,6.829,57.052-4.04,78.75-37.5c6.817-10.513,20.402-35.672,15.75-48.75  c-7.074-19.89-32.248-13.42-54.669-15.003c-24.397-1.722-48.796-3.445-73.194-5.167c-3.559-0.251-13.193,62.132-14.42,68.463  C358.206,448.68,386.711,488.058,405.25,530.89z"/>
<path fill-rule="evenodd" clip-rule="evenodd" fill="#E0C47A" d="M380.5,333.64L418,439.39L380.5,333.64z"/>
<line fill="none" stroke="#000000" stroke-width="2" stroke-linecap="square" stroke-miterlimit="10" x1="380.5" y1="333.64" x2="418" y2="439.39"/>
<path fill-rule="evenodd" clip-rule="evenodd" fill="#FFDF88" stroke="#000000" stroke-width="2" stroke-linecap="square" stroke-miterlimit="10" d="  M512.5,312.64c3.003,15.071,8.446,37.729-0.75,50.25C505.62,345.081,512.934,330.064,512.5,312.64z"/>
<path fill-rule="evenodd" clip-rule="evenodd" fill="#FFDF88" stroke="#000000" stroke-width="2" stroke-linecap="square" stroke-miterlimit="10" d="  M424.75,380.14c12.375,38.858,24.751,77.717,37.126,116.575c9.373,29.433,46.107,61.798,64.874,86.675  c19.694-19.226,44.676-41.241,52.5-68.625c11.117-38.91,3.518-91.198,4.782-131.649c0.662-21.208,3.45-35.042-21.499-30.125  C516.605,362.041,470.678,371.09,424.75,380.14z"/>
<path fill-rule="evenodd" clip-rule="evenodd" fill="#FFDF88" d="M428.5,384.64c26,29.75,52,59.5,78,89.25  c30.975-25.709,82.066-76.021,73.5-120.75C529.5,363.64,479,374.14,428.5,384.64z"/>
<path fill="none" stroke="#000000" stroke-width="2" stroke-linecap="square" stroke-miterlimit="10" d="M428.5,384.64  c26,29.75,52,59.5,78,89.25c30.975-25.709,82.066-76.021,73.5-120.75"/>
<line fill="none" stroke="#000000" stroke-width="2" stroke-linecap="square" stroke-miterlimit="10" x1="526.75" y1="583.39" x2="506.5" y2="473.89"/>
<path fill-rule="evenodd" clip-rule="evenodd" fill="#FFE398" stroke="#000000" stroke-width="2" stroke-linecap="square" stroke-miterlimit="10" d="  M361.75,430.39c-44.083,7.545-119.148,8.441-124.5-50.25c-6.302-69.118,77.616-101.523,130.5-114  c46.337-10.933,137.085-16.652,143.625,48.75c4.91,49.101-65.838,22.666-98.931,19.972c-26.887-2.188-32.186-9.892-36.864,16.756  C370.97,377.875,366.36,404.133,361.75,430.39z"/>
</svg>