<svg xmlns="http://www.w3.org/2000/svg" xmlns:xlink="http://www.w3.org/1999/xlink" version="1.1" id="Layer_1" x="0px" y="0px" enable-background="new 0 0 822.05 841.89" xml:space="preserve" viewBox="312.26 335.14 198.35 174.29">
<path fill-rule="evenodd" clip-rule="evenodd" fill="#562A16" stroke="#000000" stroke-width="1.25" stroke-linecap="square" stroke-miterlimit="10" d="  M323.385,503.799c21.668-3.371,84.608-12.292,86.25-39c-0.231,1.634,0.498,9.093,0,12.75c21.267-9.511,35.42-29.123,50.252-46.5  c-10.758,24.458-33.458,43.613-57.752,54c19.249-2.972,46.214-2.068,58.502,15c-52.877-37.703-97.982,26.456-146.252,3.75  C317.684,502.841,319.999,503.765,323.385,503.799z"/>
<path fill-rule="evenodd" clip-rule="evenodd" stroke="#000000" stroke-width="1.25" stroke-linecap="square" stroke-miterlimit="10" d="  M386.385,490.299C389.318,492.394,385.952,489.99,386.385,490.299L386.385,490.299z M381.885,480.549  c-3.885,6.229-10.182,6.136-3.75,13.5c1.862-2.576,2.742-6.879,6-10.5c0.001,2.934-0.933,5.516,2.25,6.75  c-0.657,0.766,0.708-9.44,0.75-9.75c-0.1-0.066,8.231,3.242,6.75,3.75c-6.926-8.526-4.692-22.905-10.5-30.75  C386.541,462.855,386.324,473.175,381.885,480.549z"/>
<path fill-rule="evenodd" clip-rule="evenodd" stroke="#000000" stroke-width="1.25" stroke-linecap="square" stroke-miterlimit="10" d="  M401.385,482.049C401.499,487.775,401.396,482.645,401.385,482.049L401.385,482.049z M399.135,467.799  c-0.706-8.011-2.508-16.052-3.75-24c-2.847,9.376,1.251,24.75-3,34.5c9.742,1.389,0.33-1.938,9.75,3.75c1.53-2.359,1.87-4.17,0-7.5  c4.593,3.748,5.81,5.978,9,9.75C414.573,474.331,407.627,473.375,399.135,467.799z"/>
<path fill-rule="evenodd" clip-rule="evenodd" fill="#FFFF00" stroke="#000000" stroke-width="1.25" stroke-linecap="square" stroke-miterlimit="10" d="  M429.887,395.049c-8.59-6.066-18.642-8.159-29.252-6.75c31.003-20.865,58.126-39.746,45.752,9.75  c-5.004,20.016-7.293,36.274-27.751,46.5c-13.806,6.9-35.284,13.313-39.751,3C394.699,440.208,444.883,419.826,429.887,395.049z"/>
<path fill-rule="evenodd" clip-rule="evenodd" fill="#15509E" stroke="#000000" stroke-width="1.25" stroke-linecap="square" stroke-miterlimit="10" d="  M340.635,455.799c-6.026-18.646,60.336-88.646,86.252-63C456.551,422.155,348.568,469.747,340.635,455.799z"/>
<path fill="none" stroke="#000000" stroke-width="1.25" stroke-linecap="square" stroke-miterlimit="10" d="M354.885,457.299  C355.885,457.299,355.885,457.299,354.885,457.299L354.885,457.299z"/>
<path fill-rule="evenodd" clip-rule="evenodd" fill="#FFFF00" stroke="#000000" stroke-width="1.25" stroke-linecap="square" stroke-miterlimit="10" d="  M312.885,485.049c9.25-9.75,18.5-19.5,27.75-29.25c-0.067-0.014,5.724,1.885,14.25,1.5c-8.75,12-17.5,24-26.25,36  c-8.969-4.882,2.07-1.446-10.5,0c0.75-3,1.5-6,2.25-9C310.981,492.898,314.506,487.43,312.885,485.049z"/>
<path fill="none" stroke="#000000" stroke-width="1.25" stroke-linecap="square" stroke-miterlimit="10" d="M411.135,406.299  c-12.57,10.09-33.57,30.289-50.25,33c-4.245,0.69-10.935-11.613-9-5.25"/>
<path fill="none" stroke="#000000" stroke-width="1.25" stroke-linecap="square" stroke-miterlimit="10" d="M413.385,415.299  c-10.625,6.892-59.107,47.994-64.5,28.5c-0.921,0.767-5.364,4.375-6.75,3.75"/>
<path fill="none" stroke="#000000" stroke-width="1.25" stroke-linecap="square" stroke-miterlimit="10" d="M390.885,414.549  c-8.044,4.729-17.29,9.193-25.5,10.5c0.586-0.905,2.644-4.111,3-5.25c-3.24,2.121-6.792,4.08-10.5,5.25"/>
<path fill-rule="evenodd" clip-rule="evenodd" d="M438.137,372.549c2.835,0.261,2.164,5.382,6.75,1.5c0-0.75,0-1.5,0-2.25  C440.96,368.235,440.863,372.8,438.137,372.549z"/>
<path fill-rule="evenodd" clip-rule="evenodd" fill="#E58015" stroke="#000000" stroke-width="1.25" stroke-linecap="square" stroke-miterlimit="10" d="  M456.137,368.799c4.047-4.426,8.509-8.509,12.75-12.75c-12.287,10.344-14.55,22.057,0,30  C454.833,385.886,449.399,379.802,456.137,368.799z"/>
<path fill-rule="evenodd" clip-rule="evenodd" d="M484.637,365.049c-1.868,0.151-3.756,5.067-7.5,0  C480.469,361.588,483.051,365.178,484.637,365.049z"/>
<path fill-rule="evenodd" clip-rule="evenodd" d="M484.637,365.799c-0.154-3.962-1.071-12.386,0-16.5  C484.637,354.799,484.595,360.3,484.637,365.799z"/>
<path fill-rule="evenodd" clip-rule="evenodd" d="M484.637,349.299C487.897,355.589,487.469,354.761,484.637,349.299  L484.637,349.299z"/>
<path fill-rule="evenodd" clip-rule="evenodd" d="M497.387,357.549c-3.193,0.051-5.419,5.22-7.5-0.75  C493.988,353.595,494.624,357.594,497.387,357.549z"/>
<path fill-rule="evenodd" clip-rule="evenodd" d="M497.387,357.549c-0.154-3.962-1.071-12.386,0-16.5  C497.387,346.549,497.345,352.05,497.387,357.549z"/>
<path fill-rule="evenodd" clip-rule="evenodd" d="M497.387,341.049C500.595,347.48,500.118,346.525,497.387,341.049L497.387,341.049  z"/>
<path fill-rule="evenodd" clip-rule="evenodd" d="M508.637,365.049c-2.632-0.189-3.408,3.947-7.5,0.75c0-0.75,0-1.5,0-2.25  C506.123,359.916,506.018,364.861,508.637,365.049z"/>
<path fill-rule="evenodd" clip-rule="evenodd" d="M508.637,365.049c-0.154-3.962-1.071-12.386,0-16.5  C508.637,354.049,508.595,359.55,508.637,365.049z"/>
<path fill-rule="evenodd" clip-rule="evenodd" d="M508.637,348.549C511.479,355.032,511.034,354.019,508.637,348.549  L508.637,348.549z"/>
<path fill="none" stroke="#000000" stroke-width="0.5" stroke-linecap="square" stroke-miterlimit="10" d="M478.637,374.799  c0,2.25,0,4.5,0,6.75c2-1.5,4-3,6-4.5c1.75,2.75,3.5,5.5,5.25,8.25c2.5-1.75,5-3.5,7.5-5.25c0.5,3.25,1,6.5,1.5,9.75c3-1,6-2,9-3"/>
<path fill="none" stroke="#000000" stroke-width="0.5" stroke-linecap="square" stroke-miterlimit="10" d="M486.137,335.799  c-3.158,1.341-8.104-3.637-2.25,3.75c-2.25,0.75-4.5,1.5-6.75,2.25c1.25,2,2.5,4,3.75,6c-8.503-3.046-5.615,0.192-6.75,5.25"/>
</svg>