<svg xmlns="http://www.w3.org/2000/svg" xmlns:xlink="http://www.w3.org/1999/xlink" version="1.1" id="Layer_1" x="0px" y="0px" enable-background="new 0 0 822.05 841.89" xml:space="preserve" viewBox="204.81 298.5 411.04 246.74">
<path fill-rule="evenodd" clip-rule="evenodd" fill="#8E745C" stroke="#000000" stroke-width="0.75" stroke-linecap="square" stroke-miterlimit="10" d="  M275.689,367.874c6.121-1.255,11.86,7.347,11.25-6.75c2.755,3.846,12.244,8.352,15.75,12  C309.208,338.289,281.801,330.265,275.689,367.874z"/>
<path fill-rule="evenodd" clip-rule="evenodd" fill="#EFDAC8" stroke="#000000" stroke-width="0.75" stroke-linecap="square" stroke-miterlimit="10" d="  M296.689,355.874c-2.049,15.521-15.173,17.212-14.25,0C283.374,338.45,295.656,338.493,296.689,355.874z"/>
<path fill-rule="evenodd" clip-rule="evenodd" fill="#EDD4BD" stroke="#000000" stroke-width="0.75" stroke-linecap="square" stroke-miterlimit="10" d="  M302.689,371.624c0.522,4.229,2.111,8.57,3,12.75c12.365-11.031,33.651-34.856,36-51  C326.856,344.473,315.553,361.726,302.689,371.624z"/>
<path fill-rule="evenodd" clip-rule="evenodd" fill="#EDD4BD" stroke="#000000" stroke-width="0.75" stroke-linecap="square" stroke-miterlimit="10" d="  M226.939,331.874c15.98,13.166,33.477,33.532,43.5,52.5c18.953-10.806-3.116-23.829-13.5-33.75  C248.387,342.452,234.158,319.331,226.939,331.874z"/>
<path fill-rule="evenodd" clip-rule="evenodd" fill="#ED1C24" stroke="#000000" stroke-width="0.75" stroke-linecap="square" stroke-miterlimit="10" d="  M269.689,385.124c3.588,21.39,11.372,25.904,31.5,31.5c1.101-7.705,4.415-60.968-7.5-41.25c-6.359-6.312-8.369-3.918-15-6  C280.833,379.562,274.65,379.516,269.689,385.124z"/>
<path fill-rule="evenodd" clip-rule="evenodd" fill="#ED1C24" stroke="#000000" stroke-width="0.75" stroke-linecap="square" stroke-miterlimit="10" d="  M274.939,409.124c-5.11,5.363-16.968,20.913-15.75,29.25c2.114,14.474,23.448,9.241,39.75,15.75  C299.471,427.012,306.866,412.405,274.939,409.124z"/>
<path fill="none" stroke="#000000" stroke-width="0.75" stroke-linecap="square" stroke-miterlimit="10" d="M277.939,379.874  c10.224,9.831,15.404,23.167,27,12"/>
<path fill="none" stroke="#000000" stroke-width="0.75" stroke-linecap="square" stroke-miterlimit="10" d="M279.439,375.374  c6.978,11.934,15.706,19.473,26.25,9.75"/>
<path fill="none" stroke="#000000" stroke-width="0.75" stroke-linecap="square" stroke-miterlimit="10" d="M274.939,410.624  c-3.918,12.229-8.258,24.055-9.75,36.75"/>
<path fill-rule="evenodd" clip-rule="evenodd" fill="#EDD4BD" stroke="#000000" stroke-width="0.75" stroke-linecap="square" stroke-miterlimit="10" d="  M270.439,449.624c14.127,23.44-5.534,53.475,14.25,72.75c4.922-14.319,2.143-32.25,6.75-48.375  C298.212,450.293,270.625,444.12,270.439,449.624z"/>
<path fill-rule="evenodd" clip-rule="evenodd" fill="#EDD4BD" d="M295.189,453.374c-0.014,4.494,1.712,12.854-3.75,20.25  c3.107,5.608,2.565,17.038-3,23.25C288.955,484.224,292.159,463.241,295.189,453.374z"/>
<path fill="none" stroke="#000000" stroke-width="0.75" stroke-linecap="square" stroke-miterlimit="10" d="M295.189,453.374  c-0.014,4.494,1.712,12.854-3.75,20.25c3.107,5.608,2.565,17.038-3,23.25c0.561-13.784,4.529-28.903,4.5-43.5"/>
<path fill-rule="evenodd" clip-rule="evenodd" fill="#FFFFFF" stroke="#000000" stroke-width="0.75" stroke-linecap="square" stroke-miterlimit="10" d="  M277.939,519.374c-2.205,10.168,11.293,25.685,23.25,18C313.313,529.582,287.73,516.861,277.939,519.374z"/>
<path fill-rule="evenodd" clip-rule="evenodd" fill="#FFFFFF" stroke="#000000" stroke-width="0.75" stroke-linecap="square" stroke-miterlimit="10" d="  M289.189,497.624c-0.25,3-0.5,6-0.75,9c8.675,1.482,14.951,0.681,21-3.75C302.525,496.237,296.229,495.639,289.189,497.624z"/>
<path fill-rule="evenodd" clip-rule="evenodd" fill="#ED1C24" d="M336.439,311.624c-3.486,3.453-9.988,4.571-1.5,10.5  c-5.748,6.792-5.81,3.867,1.5,6.75c-1.75,1.5-3.5,3-5.25,4.5c5.348,2.4,5.208,0.799,9,0.75c2.505,7.373-1.196,4.988,6.75,5.25  c0.169,2.935-0.948,3.49,0,6.75c5.852-0.922,1.651-0.484,3.75-5.25c6.388,4.438,3.275,4.962,10.5,2.25c-1-0.75-2-1.5-3-2.25  c8.253-4.591,12.74-9.944,2.25-15c9.89-6.067,4.179-14.276-2.25-20.25c-2.868,0.757-3.568,2.619-6,4.5c0-2,0-4,0-6  c-3.006,0.004-2.81,2.654-5.25,3.75C340.793,303.472,339.028,306.175,336.439,311.624z"/>
<path fill="none" stroke="#000000" stroke-width="0.75" stroke-linecap="square" stroke-miterlimit="10" d="M336.439,311.624  c-3.486,3.453-9.988,4.571-1.5,10.5c-5.748,6.792-5.81,3.867,1.5,6.75c-1.75,1.5-3.5,3-5.25,4.5c5.348,2.4,5.208,0.799,9,0.75  c2.505,7.373-1.196,4.988,6.75,5.25c0.169,2.935-0.948,3.49,0,6.75c5.852-0.922,1.651-0.484,3.75-5.25  c6.388,4.438,3.275,4.962,10.5,2.25c-1-0.75-2-1.5-3-2.25c8.253-4.591,12.74-9.944,2.25-15c9.89-6.067,4.179-14.276-2.25-20.25  c-2.868,0.757-3.568,2.619-6,4.5c0-2,0-4,0-6c-2.995,0.101-2.788,2.644-5.25,3.75c-6.37-4.47-7.188-1.185-9.75,3"/>
<path fill-rule="evenodd" clip-rule="evenodd" fill="#ED1C24" d="M212.689,306.374c-1.335,0.935-5.543-1.553-0.75,3  c-2.25,0.5-4.5,1-6.75,1.5c1.358,4.494,2.107,3.123,5.25,6c-4.746,7.201-4.795,3.884,2.25,6.75c-1.75,1.5-3.5,3-5.25,4.5  c5.33,2.61,4.299,0.854,8.25,0.75c3.128,7.116-0.083,5.125,7.5,5.25c-0.068,2.425-1.147,4.181-0.75,6.75  c5.467-0.831,2.247-0.563,4.5-5.25c6.237,4.595,2.761,4.962,10.5,2.25c-1.25-0.75-2.5-1.5-3.75-2.25c8.635-4.408,12.75-9.679,3-15  c8.307-6.545,3.966-14-2.25-20.25c-2.901,0.726-3.543,2.652-6,4.5c-0.25-2-0.5-4-0.75-6  C220.251,298.857,215.666,300.899,212.689,306.374z"/>
<path fill="none" stroke="#000000" stroke-width="0.75" stroke-linecap="square" stroke-miterlimit="10" d="M212.689,306.374  c-1.335,0.935-5.543-1.553-0.75,3c-2.25,0.5-4.5,1-6.75,1.5c1.358,4.494,2.107,3.123,5.25,6c-4.746,7.201-4.795,3.884,2.25,6.75  c-1.75,1.5-3.5,3-5.25,4.5c5.33,2.61,4.299,0.854,8.25,0.75c3.128,7.116-0.083,5.125,7.5,5.25c-0.068,2.425-1.147,4.181-0.75,6.75  c5.467-0.831,2.247-0.563,4.5-5.25c6.237,4.595,2.761,4.962,10.5,2.25c-1.25-0.75-2.5-1.5-3.75-2.25c8.635-4.408,12.75-9.679,3-15  c8.307-6.545,3.966-14-2.25-20.25c-2.901,0.726-3.543,2.652-6,4.5c-0.25-2-0.5-4-0.75-6c-6.974,0.268-11.902,2.239-15,6.75"/>
<path fill-rule="evenodd" clip-rule="evenodd" fill="#8E745C" stroke="#000000" stroke-width="0.75" stroke-linecap="square" stroke-miterlimit="10" d="  M356.689,370.124c5.919-2.135,12.358,7.472,11.25-6.75c2.39,3.198,12.715,8.455,15.75,12  C390.209,340.532,361.838,332.23,356.689,370.124z"/>
<path fill-rule="evenodd" clip-rule="evenodd" fill="#EFDAC8" stroke="#000000" stroke-width="0.75" stroke-linecap="square" stroke-miterlimit="10" d="  M378.439,357.374c-1.901,16.942-14.07,17.895-15,0C362.514,339.555,375.62,342.53,378.439,357.374z"/>
<path fill-rule="evenodd" clip-rule="evenodd" fill="#EDD4BD" stroke="#000000" stroke-width="0.75" stroke-linecap="square" stroke-miterlimit="10" d="  M383.689,373.874c0.737,4.272,2.991,8.359,3.75,12.75c12.087-11.638,33.468-34.593,35.25-51  C407.531,346.354,396.551,363.922,383.689,373.874z"/>
<path fill-rule="evenodd" clip-rule="evenodd" fill="#EDD4BD" stroke="#000000" stroke-width="0.75" stroke-linecap="square" stroke-miterlimit="10" d="  M307.939,334.124c15.789,10.499,35.927,35.035,43.5,52.5c18.841-11.476-1.234-22.956-12.75-33.75  C330.047,344.773,315.026,321.81,307.939,334.124z"/>
<path fill-rule="evenodd" clip-rule="evenodd" fill="#ED1C24" stroke="#000000" stroke-width="0.75" stroke-linecap="square" stroke-miterlimit="10" d="  M351.439,387.374c3.226,21.85,11.022,25.959,31.5,31.5c1.133-7.934,4.61-61.726-7.5-41.25  C363.632,366.349,357.197,376.256,351.439,387.374z"/>
<path fill-rule="evenodd" clip-rule="evenodd" fill="#ED1C24" stroke="#000000" stroke-width="0.75" stroke-linecap="square" stroke-miterlimit="10" d="  M355.939,411.374c-4.34,5.681-16.83,21.385-15.75,29.25c1.963,14.299,24.238,9.339,39.75,15.75  C381.025,428.677,388.634,414.584,355.939,411.374z"/>
<path fill="none" stroke="#000000" stroke-width="0.75" stroke-linecap="square" stroke-miterlimit="10" d="M358.939,382.124  c10.224,9.831,15.404,23.167,27,12"/>
<path fill="none" stroke="#000000" stroke-width="0.75" stroke-linecap="square" stroke-miterlimit="10" d="M361.189,377.624  c6.978,11.934,15.706,19.473,26.25,9.75"/>
<path fill="none" stroke="#000000" stroke-width="0.75" stroke-linecap="square" stroke-miterlimit="10" d="M356.689,412.874  c-4.633,12.066-9.165,23.933-10.5,36.75"/>
<path fill-rule="evenodd" clip-rule="evenodd" fill="#EDD4BD" stroke="#000000" stroke-width="0.75" stroke-linecap="square" stroke-miterlimit="10" d="  M351.439,451.874c12.259,22.041-4.738,56.971,15,72.75c4.63-15.136,1.424-32.36,6-48.375  C379.226,452.496,352.088,445.666,351.439,451.874z"/>
<path fill-rule="evenodd" clip-rule="evenodd" fill="#EDD4BD" d="M376.189,455.624c0.765,6.521-0.206,37.083-6,43.5  C370.388,486.12,373.171,466.896,376.189,455.624z"/>
<path fill="none" stroke="#000000" stroke-width="0.75" stroke-linecap="square" stroke-miterlimit="10" d="M376.189,455.624  c0.765,6.521-0.206,37.083-6,43.5c0.209-13.701,3.479-29.146,4.5-43.5"/>
<path fill-rule="evenodd" clip-rule="evenodd" fill="#FFFFFF" stroke="#000000" stroke-width="0.75" stroke-linecap="square" stroke-miterlimit="10" d="  M359.689,521.624c-3.439,11.029,10.575,24.759,22.5,18C395.715,531.958,369.057,519.748,359.689,521.624z"/>
<path fill-rule="evenodd" clip-rule="evenodd" fill="#FFFFFF" stroke="#000000" stroke-width="0.75" stroke-linecap="square" stroke-miterlimit="10" d="  M370.939,499.874c-0.25,2.75-0.5,5.5-0.75,8.25c8.996,2.11,14.667,1.827,21-3C384.275,498.487,377.979,497.889,370.939,499.874z"/>
<path fill-rule="evenodd" clip-rule="evenodd" fill="#ED1C24" d="M418.189,313.874c-4.366,3.019-10.527,4.289-2.25,10.5  c-4.942,7.295-5.346,4.018,2.25,6.75c-2,1.5-4,3-6,4.5c4.301,1.286,5.498,0.835,9,0.75c3.341,7.171-0.052,4.756,7.5,5.25  c-0.233,2.417-1.046,4.211-0.75,6.75c5.41-1.207,2.178-0.027,3.75-5.25c5.697,3.17,3.955,4.803,10.5,2.25c-1-0.75-2-1.5-3-2.25  c7.792-3.942,13.254-9.801,3-15c8.557-6.935,3.625-14.928-3-20.25c-2.209,0.785-3.324,3.025-5.25,4.5c-0.25-2-0.5-4-0.75-6  c-2.411-0.061-3.145,3.05-5.25,3.75C422.278,305.533,420.469,308.208,418.189,313.874z"/>
<path fill="none" stroke="#000000" stroke-width="0.75" stroke-linecap="square" stroke-miterlimit="10" d="M418.189,313.874  c-4.366,3.019-10.527,4.289-2.25,10.5c-4.942,7.295-5.346,4.018,2.25,6.75c-2,1.5-4,3-6,4.5c4.301,1.286,5.498,0.835,9,0.75  c3.341,7.171-0.052,4.756,7.5,5.25c-0.233,2.417-1.046,4.211-0.75,6.75c5.41-1.207,2.178-0.027,3.75-5.25  c5.697,3.17,3.955,4.803,10.5,2.25c-1-0.75-2-1.5-3-2.25c7.792-3.942,13.254-9.801,3-15c8.557-6.935,3.625-14.928-3-20.25  c-2.209,0.785-3.324,3.025-5.25,4.5c-0.25-2-0.5-4-0.75-6c-2.442,0.034-3.097,3.034-5.25,3.75c-5.668-4.727-6.98-1.275-9.75,3"/>
<path fill-rule="evenodd" clip-rule="evenodd" fill="#ED1C24" d="M293.689,308.624c-3.477,3.356-9.862,4.458-1.5,10.5  c-5.748,6.792-5.81,3.867,1.5,6.75c-1.75,1.5-3.5,3-5.25,4.5c5.348,2.4,5.208,0.799,9,0.75c2.505,7.373-1.196,4.988,6.75,5.25  c0.169,2.935-0.948,3.49,0,6.75c5.852-0.922,1.651-0.484,3.75-5.25c6.358,4.474,3.303,4.951,10.5,2.25c-1-0.75-2-1.5-3-2.25  c8-4.697,11.996-10.082,2.25-15c9.488-6.686,4.077-14.833-2.25-20.25c-2.85,0.752-3.605,2.583-6,4.5c0-2,0-4,0-6  c-3.059-0.023-2.745,2.873-5.25,3.75C297.704,300.409,296.139,303.262,293.689,308.624z"/>
<path fill="none" stroke="#000000" stroke-width="0.75" stroke-linecap="square" stroke-miterlimit="10" d="M293.689,308.624  c-3.477,3.356-9.862,4.458-1.5,10.5c-5.748,6.792-5.81,3.867,1.5,6.75c-1.75,1.5-3.5,3-5.25,4.5c5.348,2.4,5.208,0.799,9,0.75  c2.505,7.373-1.196,4.988,6.75,5.25c0.169,2.935-0.948,3.49,0,6.75c5.852-0.922,1.651-0.484,3.75-5.25  c6.358,4.474,3.303,4.951,10.5,2.25c-1-0.75-2-1.5-3-2.25c8-4.697,11.996-10.082,2.25-15c9.488-6.686,4.077-14.833-2.25-20.25  c-2.85,0.752-3.605,2.583-6,4.5c0-2,0-4,0-6c-3.035,0.072-2.739,2.871-5.25,3.75c-6.745-4.571-7.281-1.08-9.75,3"/>
<path fill-rule="evenodd" clip-rule="evenodd" fill="#8E745C" stroke="#000000" stroke-width="0.75" stroke-linecap="square" stroke-miterlimit="10" d="  M442.939,372.374c5.748-1.554,11.847,8.783,10.5-6c2.348,3.008,13.01,8.163,15.75,11.25  C475.324,343.083,444.94,335.32,442.939,372.374z"/>
<path fill-rule="evenodd" clip-rule="evenodd" fill="#EFDAC8" stroke="#000000" stroke-width="0.75" stroke-linecap="square" stroke-miterlimit="10" d="  M463.939,360.374c-1.901,16.942-14.07,17.895-15,0C448.014,342.555,461.12,345.53,463.939,360.374z"/>
<path fill-rule="evenodd" clip-rule="evenodd" fill="#EDD4BD" stroke="#000000" stroke-width="0.75" stroke-linecap="square" stroke-miterlimit="10" d="  M469.189,376.874c0.741,4.296,3.204,8.188,3.75,12.75c12.008-12.572,33.282-33.786,35.25-51  C492.909,349.751,482.627,366.797,469.189,376.874z"/>
<path fill-rule="evenodd" clip-rule="evenodd" fill="#EDD4BD" stroke="#000000" stroke-width="0.75" stroke-linecap="square" stroke-miterlimit="10" d="  M393.439,337.124c12.404,7.94,40.051,53.627,49.5,49.5C452.837,382.3,403.185,321.912,393.439,337.124z"/>
<path fill-rule="evenodd" clip-rule="evenodd" fill="#ED1C24" stroke="#000000" stroke-width="0.75" stroke-linecap="square" stroke-miterlimit="10" d="  M436.939,390.374c3.892,21.998,10.676,25.531,31.5,31.5c1.134-7.934,4.609-61.726-7.5-41.25  C449.199,369.414,442.815,378.986,436.939,390.374z"/>
<path fill-rule="evenodd" clip-rule="evenodd" fill="#ED1C24" stroke="#000000" stroke-width="0.75" stroke-linecap="square" stroke-miterlimit="10" d="  M441.439,413.624c-4.627,6.961-16.142,20.863-15,30c1.758,14.065,22.117,9.563,39,15  C466.547,430.93,473.709,417.801,441.439,413.624z"/>
<path fill="none" stroke="#000000" stroke-width="0.75" stroke-linecap="square" stroke-miterlimit="10" d="M445.189,385.124  c7.308,11.643,16.114,21.917,26.25,12"/>
<path fill="none" stroke="#000000" stroke-width="0.75" stroke-linecap="square" stroke-miterlimit="10" d="M446.689,380.624  c6.978,11.934,15.705,19.473,26.25,9.75"/>
<path fill="none" stroke="#000000" stroke-width="0.75" stroke-linecap="square" stroke-miterlimit="10" d="M442.189,415.874  c-4.822,11.759-9.068,24.438-9.75,36.75"/>
<path fill-rule="evenodd" clip-rule="evenodd" fill="#EDD4BD" stroke="#000000" stroke-width="0.75" stroke-linecap="square" stroke-miterlimit="10" d="  M436.939,454.874c12.53,22.529-4.054,56.07,15,72.75c4.582-15.101,2.183-32.389,6.75-48.375  C464.29,459.648,442.087,444.361,436.939,454.874z"/>
<path fill-rule="evenodd" clip-rule="evenodd" fill="#EDD4BD" d="M461.689,458.624c0.89,6.604-0.242,37.124-6,43.5  C455.891,489.083,458.506,469.918,461.689,458.624z"/>
<path fill="none" stroke="#000000" stroke-width="0.75" stroke-linecap="square" stroke-miterlimit="10" d="M461.689,458.624  c0.89,6.604-0.242,37.124-6,43.5c0.211-13.712,3.364-29.147,4.5-43.5"/>
<path fill-rule="evenodd" clip-rule="evenodd" fill="#FFFFFF" stroke="#000000" stroke-width="0.75" stroke-linecap="square" stroke-miterlimit="10" d="  M445.189,524.624c-3.564,11.958,16.755,27.475,25.5,16.5C477.205,532.947,454.044,522.825,445.189,524.624z"/>
<path fill-rule="evenodd" clip-rule="evenodd" fill="#FFFFFF" stroke="#000000" stroke-width="0.75" stroke-linecap="square" stroke-miterlimit="10" d="  M456.439,502.874c-0.25,2.75-0.5,5.5-0.75,8.25c8.599,1.941,14.575,1.585,21-3C469.775,501.487,463.479,500.889,456.439,502.874z"/>
<path fill-rule="evenodd" clip-rule="evenodd" fill="#ED1C24" d="M503.689,316.874c-1.335,0.935-5.544-1.553-0.75,3  c-2.25,0.5-4.5,1-6.75,1.5c1.358,4.494,2.106,3.123,5.25,6c-4.652,7.227-4.855,3.859,2.25,6.75c-1.75,1.5-3.5,3-5.25,4.5  c4.096,1.401,5.015,0.657,8.25,0.75c3.164,7.198-0.027,4.957,7.5,5.25c-0.135,2.43-1.069,4.185-0.75,6.75  c5.411-1.161,2.146-0.355,4.5-5.25c5.643,3.316,4.015,4.719,10.5,2.25c-1-1-2-2-3-3c7.853-4.08,11.896-9.134,2.25-14.25  c8.908-6.923,3.659-14.88-2.25-20.25c-2.827-0.153-3.746,2.458-6,3.75c-0.25-1.75-0.5-3.5-0.75-5.25  C511.072,309.42,505.881,310.196,503.689,316.874z"/>
<path fill="none" stroke="#000000" stroke-width="0.75" stroke-linecap="square" stroke-miterlimit="10" d="M503.689,316.874  c-1.335,0.935-5.544-1.553-0.75,3c-2.25,0.5-4.5,1-6.75,1.5c1.358,4.494,2.106,3.123,5.25,6c-4.652,7.227-4.855,3.859,2.25,6.75  c-1.75,1.5-3.5,3-5.25,4.5c4.096,1.401,5.015,0.657,8.25,0.75c3.164,7.198-0.027,4.957,7.5,5.25c-0.135,2.43-1.069,4.185-0.75,6.75  c5.411-1.161,2.146-0.355,4.5-5.25c5.643,3.316,4.015,4.719,10.5,2.25c-1-1-2-2-3-3c7.853-4.08,11.896-9.134,2.25-14.25  c8.908-6.923,3.659-14.88-2.25-20.25c-2.827-0.153-3.746,2.458-6,3.75c-0.25-1.75-0.5-3.5-0.75-5.25  c-7.313,0.044-12.435,1.389-15,6.75"/>
<path fill-rule="evenodd" clip-rule="evenodd" fill="#ED1C24" d="M379.939,311.624c-4.366,3.018-10.528,4.289-2.25,10.5  c-5.087,7.318-5.458,4.063,2.25,6.75c-2,1.5-4,3-6,4.5c4.238,1.87,5.529,0.874,9,0.75c2.815,7.564-1.343,4.854,7.5,5.25  c-0.45,3.467-1.613,2.783-0.75,6.75c5.662-1.344,1.71-0.117,3.75-5.25c5.846,3.021,3.816,4.785,10.5,2.25c-1-1-2-2-3-3  c8.53-3.621,12.309-8.484,2.25-14.25c10.863-7.655,1.387-22.502-8.25-16.5c0-1.75,0-3.5,0-5.25c-3.031,0.03-2.764,2.754-5.25,3.75  C383.563,303.181,381.913,305.732,379.939,311.624z"/>
<path fill="none" stroke="#000000" stroke-width="0.75" stroke-linecap="square" stroke-miterlimit="10" d="M379.939,311.624  c-4.366,3.018-10.528,4.289-2.25,10.5c-5.087,7.318-5.458,4.063,2.25,6.75c-2,1.5-4,3-6,4.5c4.238,1.87,5.529,0.874,9,0.75  c2.815,7.564-1.343,4.854,7.5,5.25c-0.45,3.467-1.613,2.783-0.75,6.75c5.662-1.344,1.71-0.117,3.75-5.25  c5.846,3.021,3.816,4.785,10.5,2.25c-1-1-2-2-3-3c8.53-3.621,12.309-8.484,2.25-14.25c10.863-7.655,1.387-22.502-8.25-16.5  c0-1.75,0-3.5,0-5.25c-3.031,0.03-2.764,2.754-5.25,3.75c-5.976-4.658-7.42-1.839-9.75,3"/>
<path fill-rule="evenodd" clip-rule="evenodd" fill="#8E745C" stroke="#000000" stroke-width="0.75" stroke-linecap="square" stroke-miterlimit="10" d="  M524.689,372.374c6.463-0.804,11.871,8.177,11.25-6c2.891,4.048,12.325,7.986,15.75,11.25  C557.604,342.388,530.824,336.992,524.689,372.374z"/>
<path fill-rule="evenodd" clip-rule="evenodd" fill="#EFDAC8" stroke="#000000" stroke-width="0.75" stroke-linecap="square" stroke-miterlimit="10" d="  M545.689,360.374c-1.033,17.381-13.315,17.424-14.25,0C530.517,343.162,543.641,344.852,545.689,360.374z"/>
<path fill-rule="evenodd" clip-rule="evenodd" fill="#EDD4BD" stroke="#000000" stroke-width="0.75" stroke-linecap="square" stroke-miterlimit="10" d="  M551.689,376.874c0.52,4.224,2.29,8.505,3,12.75c12.496-11.428,33.625-34.672,36-51  C575.461,349.455,564.287,366.799,551.689,376.874z"/>
<path fill-rule="evenodd" clip-rule="evenodd" fill="#EDD4BD" stroke="#000000" stroke-width="0.75" stroke-linecap="square" stroke-miterlimit="10" d="  M475.939,337.124c9.065,7.38,46.112,57.778,50.25,47.25C530.664,372.989,482.308,325.727,475.939,337.124z"/>
<path fill-rule="evenodd" clip-rule="evenodd" fill="#ED1C24" stroke="#000000" stroke-width="0.75" stroke-linecap="square" stroke-miterlimit="10" d="  M518.689,390.374c3.589,21.39,11.372,25.904,31.5,31.5c1.134-7.934,4.609-61.726-7.5-41.25c-6.354-6.307-8.57-3.728-15-6  C529.923,384.472,523.546,384.306,518.689,390.374z"/>
<path fill-rule="evenodd" clip-rule="evenodd" fill="#ED1C24" stroke="#000000" stroke-width="0.75" stroke-linecap="square" stroke-miterlimit="10" d="  M523.939,413.624c-4.909,5.853-17.003,21.425-15.75,30c2.075,14.201,23.303,9.871,39.75,15  C548.481,431.502,555.442,417.876,523.939,413.624z"/>
<path fill="none" stroke="#000000" stroke-width="0.75" stroke-linecap="square" stroke-miterlimit="10" d="M526.939,385.124  c10.224,9.831,15.404,23.167,27,12"/>
<path fill="none" stroke="#000000" stroke-width="0.75" stroke-linecap="square" stroke-miterlimit="10" d="M528.439,380.624  c6.978,11.934,15.705,19.473,26.25,9.75"/>
<path fill="none" stroke="#000000" stroke-width="0.75" stroke-linecap="square" stroke-miterlimit="10" d="M523.939,415.874  c-3.918,12.229-8.259,24.055-9.75,36.75"/>
<path fill-rule="evenodd" clip-rule="evenodd" fill="#EDD4BD" stroke="#000000" stroke-width="0.75" stroke-linecap="square" stroke-miterlimit="10" d="  M519.439,454.874c13.971,23.4-5.439,53.354,14.25,72.75c4.922-14.319,2.143-32.25,6.75-48.375  C547.212,455.543,519.626,449.37,519.439,454.874z"/>
<path fill-rule="evenodd" clip-rule="evenodd" fill="#EDD4BD" d="M544.189,458.624c-0.014,4.494,1.712,12.854-3.75,20.25  c3.102,5.743,2.652,17.322-3,23.25C537.95,489.433,540.994,468.52,544.189,458.624z"/>
<path fill="none" stroke="#000000" stroke-width="0.75" stroke-linecap="square" stroke-miterlimit="10" d="M544.189,458.624  c-0.014,4.494,1.712,12.854-3.75,20.25c3.102,5.743,2.652,17.322-3,23.25c0.555-13.776,4.438-28.926,4.5-43.5"/>
<path fill-rule="evenodd" clip-rule="evenodd" fill="#FFFFFF" stroke="#000000" stroke-width="0.75" stroke-linecap="square" stroke-miterlimit="10" d="  M526.939,524.624c-2.056,10.255,11.382,25.048,23.25,18C562.562,535.276,536.64,522.134,526.939,524.624z"/>
<path fill-rule="evenodd" clip-rule="evenodd" fill="#FFFFFF" stroke="#000000" stroke-width="0.75" stroke-linecap="square" stroke-miterlimit="10" d="  M538.189,502.874c-0.25,2.75-0.5,5.5-0.75,8.25c8.8,2.026,14.688,1.746,21-3C551.525,501.487,545.229,500.889,538.189,502.874z"/>
<path fill-rule="evenodd" clip-rule="evenodd" fill="#ED1C24" d="M585.439,316.874c-3.486,3.453-9.987,4.571-1.5,10.5  c-5.629,6.833-5.889,3.836,1.5,6.75c-1.75,1.5-3.5,3-5.25,4.5c4.164,1.771,5.75,0.639,9,0.75c2.544,7.486-1.129,4.783,6.75,5.25  c0.075,2.965-0.881,3.491,0,6.75c5.77-1.369,1.523-0.195,3.75-5.25c5.601,3.234,4.043,4.835,10.5,2.25c-1-1-2-2-3-3  c8.08-3.973,12.657-8.983,2.25-14.25c10.863-7.655,1.387-22.502-8.25-16.5c0-1.75,0-3.5,0-5.25c-3.033,0.021-2.766,2.755-5.25,3.75  C589.624,308.27,587.76,310.714,585.439,316.874z"/>
<path fill="none" stroke="#000000" stroke-width="0.75" stroke-linecap="square" stroke-miterlimit="10" d="M585.439,316.874  c-3.486,3.453-9.987,4.571-1.5,10.5c-5.629,6.833-5.889,3.836,1.5,6.75c-1.75,1.5-3.5,3-5.25,4.5c4.164,1.771,5.75,0.639,9,0.75  c2.544,7.486-1.129,4.783,6.75,5.25c0.075,2.965-0.881,3.491,0,6.75c5.77-1.369,1.523-0.195,3.75-5.25  c5.601,3.234,4.043,4.835,10.5,2.25c-1-1-2-2-3-3c8.08-3.973,12.657-8.983,2.25-14.25c10.863-7.655,1.387-22.502-8.25-16.5  c0-1.75,0-3.5,0-5.25c-3.033,0.021-2.766,2.755-5.25,3.75c-6.161-4.6-7.848-2.517-9.75,3"/>
<path fill-rule="evenodd" clip-rule="evenodd" fill="#ED1C24" d="M461.689,311.624c-1.335,0.935-5.544-1.553-0.75,3  c-2.25,0.5-4.5,1-6.75,1.5c1.358,4.494,2.106,3.123,5.25,6c-4.652,7.227-4.855,3.859,2.25,6.75c-1.75,1.5-3.5,3-5.25,4.5  c4.096,1.401,5.015,0.657,8.25,0.75c3.164,7.198-0.027,4.957,7.5,5.25c-0.149,2.429-1.068,4.188-0.75,6.75  c5.433-1.057,2.178-0.42,4.5-5.25c5.494,3.421,3.613,4.846,10.5,2.25c-1.25-1-2.5-2-3.75-3c8.583-3.697,12.668-8.617,3-14.25  c8.908-6.923,3.659-14.88-2.25-20.25c-2.827-0.153-3.746,2.458-6,3.75c-0.25-1.75-0.5-3.5-0.75-5.25  C469.527,303.96,464.105,305.499,461.689,311.624z"/>
<path fill="none" stroke="#000000" stroke-width="0.75" stroke-linecap="square" stroke-miterlimit="10" d="M461.689,311.624  c-1.335,0.935-5.544-1.553-0.75,3c-2.25,0.5-4.5,1-6.75,1.5c1.358,4.494,2.106,3.123,5.25,6c-4.652,7.227-4.855,3.859,2.25,6.75  c-1.75,1.5-3.5,3-5.25,4.5c4.096,1.401,5.015,0.657,8.25,0.75c3.164,7.198-0.027,4.957,7.5,5.25c-0.149,2.429-1.068,4.188-0.75,6.75  c5.433-1.057,2.178-0.42,4.5-5.25c5.494,3.421,3.613,4.846,10.5,2.25c-1.25-1-2.5-2-3.75-3c8.583-3.697,12.668-8.617,3-14.25  c8.908-6.923,3.659-14.88-2.25-20.25c-2.827-0.153-3.746,2.458-6,3.75c-0.25-1.75-0.5-3.5-0.75-5.25  c-7.146,0.116-11.906,1.927-15,6.75"/>
</svg>