<svg xmlns="http://www.w3.org/2000/svg" xmlns:xlink="http://www.w3.org/1999/xlink" version="1.1" id="Layer_1" x="0px" y="0px" enable-background="new 0 0 822.05 841.89" xml:space="preserve" viewBox="213.87 251.66 392.75 337.29">
<path fill-rule="evenodd" clip-rule="evenodd" fill="#B4DAE2" stroke="#000000" stroke-width="2" stroke-linecap="square" stroke-miterlimit="10" d="  M479.621,351.642c23.675,17.653,10.5,77.655,10.5,103.041c0,28.822,27.185,29.964,54,29.707  c91.694-0.878,18.965-85.062,56.25-132.748C560.121,351.642,519.871,351.642,479.621,351.642z"/>
<path fill-rule="evenodd" clip-rule="evenodd" fill="#9CD0DA" stroke="#000000" stroke-width="2" stroke-linecap="square" stroke-miterlimit="10" d="  M605.621,350.142c-31.524,15.842-97.155,14.017-129.75,0.75c0-0.75,0-1.5,0-2.25C508.544,336.58,575.482,332.606,605.621,350.142z"/>
<path fill-rule="evenodd" clip-rule="evenodd" fill="#B4DAE2" stroke="#000000" stroke-width="2" stroke-linecap="square" stroke-miterlimit="10" d="  M375.369,367.392c-13.948,14.629-160.5,26.352-160.5,0S361.421,352.763,375.369,367.392z"/>
<path fill-rule="evenodd" clip-rule="evenodd" fill="#CCE5EA" stroke="#000000" stroke-width="2" stroke-linecap="square" stroke-miterlimit="10" d="  M218.619,374.142c26.26,35.513,11.25,103.144,11.25,144.553c0,29.227,37.445,37.185,63.75,38.445  c20.42,0.979,74.25-5.953,74.25-32.735c0-45.279-14.002-111.873,8.25-153.263C328.166,388.718,267.679,386.437,218.619,374.142z"/>
<path fill-rule="evenodd" clip-rule="evenodd" fill="#9CD0DA" stroke="#000000" stroke-width="2" stroke-linecap="square" stroke-miterlimit="10" d="  M383.619,261.642c31.419,20.777,18.75,67.689,18.75,99.637c0,35.334-10.88,42.693-33.806,68.028  c-61.797,68.294-29.693,101.241,55.183,105.708c46.35,2.439,135.529-8.247,98.625-67.875c-16.396-26.491-59.25-65.225-59.25-98.635  c0-27.038-14.627-92.55,21-105.363C450.62,262.634,417.12,262.135,383.619,261.642z"/>
<path fill-rule="evenodd" clip-rule="evenodd" fill="#47B6C6" stroke="#000000" stroke-width="2" stroke-linecap="square" stroke-miterlimit="10" d="  M484.121,261.642c-24.112,11.341-78.67,11.327-102.752,0C404.323,249.671,461.136,249.654,484.121,261.642z"/>
<path fill-rule="evenodd" clip-rule="evenodd" fill="#68BDCC" stroke="#000000" stroke-width="2" stroke-linecap="square" stroke-miterlimit="10" d="  M437.621,385.392c45.391,30.951-25.843,194.307,28.875,202.123c71.577,10.226,9.836-163.448,41.625-204.373  C484.621,383.892,461.121,384.642,437.621,385.392z"/>
<path fill-rule="evenodd" clip-rule="evenodd" fill="#47B6C6" stroke="#000000" stroke-width="2" stroke-linecap="square" stroke-miterlimit="10" d="  M509.621,383.142c-17.117,10.376-53.383,10.376-70.5,0C457.129,372.941,491.613,372.941,509.621,383.142z"/>
<line fill="none" stroke="#000000" stroke-width="2" stroke-linecap="square" stroke-miterlimit="10" x1="245.619" y1="404.892" x2="261.369" y2="407.142"/>
<line fill="none" stroke="#000000" stroke-width="2" stroke-linecap="square" stroke-miterlimit="10" x1="245.619" y1="426.64" x2="262.119" y2="428.14"/>
<line fill="none" stroke="#000000" stroke-width="2" stroke-linecap="square" stroke-miterlimit="10" x1="245.619" y1="444.64" x2="262.119" y2="446.14"/>
<line fill="none" stroke="#000000" stroke-width="2" stroke-linecap="square" stroke-miterlimit="10" x1="245.619" y1="463.39" x2="262.119" y2="465.64"/>
<line fill="none" stroke="#000000" stroke-width="2" stroke-linecap="square" stroke-miterlimit="10" x1="246.369" y1="481.39" x2="262.119" y2="483.64"/>
<line fill="none" stroke="#000000" stroke-width="2" stroke-linecap="square" stroke-miterlimit="10" x1="244.869" y1="500.14" x2="261.369" y2="502.39"/>
<line fill="none" stroke="#000000" stroke-width="2" stroke-linecap="square" stroke-miterlimit="10" x1="245.619" y1="518.14" x2="262.119" y2="520.39"/>
<line fill="none" stroke="#000000" stroke-width="2" stroke-linecap="square" stroke-miterlimit="10" x1="417.371" y1="298.392" x2="433.121" y2="299.142"/>
<line fill="none" stroke="#000000" stroke-width="2" stroke-linecap="square" stroke-miterlimit="10" x1="418.121" y1="323.142" x2="433.871" y2="323.142"/>
<line fill="none" stroke="#000000" stroke-width="2" stroke-linecap="square" stroke-miterlimit="10" x1="418.121" y1="347.142" x2="434.621" y2="347.892"/>
<line fill="none" stroke="#000000" stroke-width="2" stroke-linecap="square" stroke-miterlimit="10" x1="418.121" y1="371.142" x2="434.621" y2="371.892"/>
<line fill="none" stroke="#000000" stroke-width="2" stroke-linecap="square" stroke-miterlimit="10" x1="418.121" y1="395.892" x2="434.621" y2="395.892"/>
</svg>