<svg xmlns="http://www.w3.org/2000/svg" xmlns:xlink="http://www.w3.org/1999/xlink" version="1.1" id="Layer_1" x="0px" y="0px" enable-background="new 0 0 822.05 841.89" xml:space="preserve" viewBox="315.1 352.5 190.41 138.69">
<path fill-rule="evenodd" clip-rule="evenodd" fill="#99330C" stroke="#000000" stroke-width="1.25" stroke-linecap="square" stroke-miterlimit="10" d="  M429.725,427.839c6.896,27.776-1.344,74.514,48,60c23.707-6.973,28.134-44.712,27-69.752c-5.215,4.462-35.511,21.604-42.75,19.502  c-15.063-4.376-12.503-27.652-33-29.252C429.209,414.423,427.96,422.063,429.725,427.839z"/>
<path fill-rule="evenodd" clip-rule="evenodd" fill="#5E1F0A" stroke="#000000" stroke-width="1.25" stroke-linecap="square" stroke-miterlimit="10" d="  M461.225,441.339c-1.685,1.853,0.479,8.631-13.5,7.5c67.283,22.12-0.399,62.2-17.625,27.75c-3.507-7.015-6.429-72.171-1.875-74.252  C442.951,395.609,458.488,435.616,461.225,441.339z"/>
<path fill-rule="evenodd" clip-rule="evenodd" fill="#F87F11" stroke="#000000" stroke-width="1.25" stroke-linecap="square" stroke-miterlimit="10" d="  M425.975,418.087c-5.118,0.147-7.688-7.355-9.75,3.75C420.708,422.499,423.646,418.155,425.975,418.087z"/>
<path fill-rule="evenodd" clip-rule="evenodd" fill="#FB0F0C" stroke="#000000" stroke-width="1.25" stroke-linecap="square" stroke-miterlimit="10" d="  M437.975,418.837c-10.864-1.401-13.214-7.722-7.5-18.75c-7.273-0.735-4.103,0.498-7.5,4.5c-6.234,1.484-5.294,6.563,3,13.5  c-8.039,13.21,3.326,14.767,6,1.5C435.549,426.011,434.448,421.818,437.975,418.837z"/>
<path fill="none" stroke="#000000" stroke-width="1.25" stroke-linecap="square" stroke-miterlimit="10" d="M424.475,420.337  c-0.399,2.794,0.381,5.391,2.25,7.502"/>
<path fill-rule="evenodd" clip-rule="evenodd" fill="#FFFFFF" stroke="#000000" stroke-width="1.25" stroke-linecap="square" stroke-miterlimit="10" d="  M431.225,412.837C429.581,413.724,430.583,413.184,431.225,412.837L431.225,412.837z"/>
<path fill-rule="evenodd" clip-rule="evenodd" fill="#FFFFFF" stroke="#000000" stroke-width="1.25" stroke-linecap="square" stroke-miterlimit="10" d="  M431.225,412.837C429.581,413.724,430.583,413.184,431.225,412.837L431.225,412.837z"/>
<path fill-rule="evenodd" clip-rule="evenodd" fill="#FFFFFF" stroke="#000000" stroke-width="1.25" stroke-linecap="square" stroke-miterlimit="10" d="  M431.975,412.837C429.16,413.052,429.138,413.054,431.975,412.837L431.975,412.837z"/>
<path fill-rule="evenodd" clip-rule="evenodd" fill="#FFFFFF" stroke="#000000" stroke-width="1.25" stroke-linecap="square" stroke-miterlimit="10" d="  M431.225,412.837C429.525,412.837,429.525,412.837,431.225,412.837L431.225,412.837z"/>
<path fill-rule="evenodd" clip-rule="evenodd" fill="#FFFFFF" stroke="#000000" stroke-width="1.25" stroke-linecap="square" stroke-miterlimit="10" d="  M430.475,413.587C430.475,412.587,430.475,412.587,430.475,413.587L430.475,413.587z"/>
<path fill-rule="evenodd" clip-rule="evenodd" fill="#FFFFFF" stroke="#000000" stroke-width="1.25" stroke-linecap="square" stroke-miterlimit="10" d="  M431.225,412.837C429.525,412.837,429.525,412.837,431.225,412.837L431.225,412.837z"/>
<path fill-rule="evenodd" clip-rule="evenodd" fill="#FFFFFF" stroke="#000000" stroke-width="1.25" stroke-linecap="square" stroke-miterlimit="10" d="  M431.225,412.837C429.105,413.209,430.321,412.996,431.225,412.837L431.225,412.837z"/>
<path fill-rule="evenodd" clip-rule="evenodd" fill="#FFFFFF" stroke="#000000" stroke-width="1.25" stroke-linecap="square" stroke-miterlimit="10" d="  M431.225,412.837C429.577,412.837,429.577,412.837,431.225,412.837L431.225,412.837z"/>
<path fill-rule="evenodd" clip-rule="evenodd" fill="#FFFFFF" stroke="#000000" stroke-width="1.25" stroke-linecap="square" stroke-miterlimit="10" d="  M431.225,412.837C429.781,413.186,429.367,413.287,431.225,412.837L431.225,412.837z"/>
<path fill-rule="evenodd" clip-rule="evenodd" fill="#FFFFFF" stroke="#000000" stroke-width="1.25" stroke-linecap="square" stroke-miterlimit="10" d="  M431.225,412.837C429.781,413.186,429.367,413.287,431.225,412.837L431.225,412.837z"/>
<path fill-rule="evenodd" clip-rule="evenodd" fill="#FFFFFF" stroke="#000000" stroke-width="1.25" stroke-linecap="square" stroke-miterlimit="10" d="  M431.225,412.837C429.581,413.724,430.583,413.184,431.225,412.837L431.225,412.837z"/>
<path fill-rule="evenodd" clip-rule="evenodd" fill="#FFFFFF" stroke="#000000" stroke-width="1.25" stroke-linecap="square" stroke-miterlimit="10" d="  M431.225,412.837C429.581,413.724,430.583,413.184,431.225,412.837L431.225,412.837z"/>
<path fill-rule="evenodd" clip-rule="evenodd" fill="#FFFFFF" stroke="#000000" stroke-width="1.25" stroke-linecap="square" stroke-miterlimit="10" d="  M431.225,412.837C429.581,413.724,430.583,413.184,431.225,412.837L431.225,412.837z"/>
<path fill-rule="evenodd" clip-rule="evenodd" fill="#FFFFFF" stroke="#000000" stroke-width="1.25" stroke-linecap="square" stroke-miterlimit="10" d="  M431.975,412.837C429.186,412.837,429.186,412.837,431.975,412.837L431.975,412.837z"/>
<path fill-rule="evenodd" clip-rule="evenodd" fill="#FFFFFF" stroke="#000000" stroke-width="1.25" stroke-linecap="square" stroke-miterlimit="10" d="  M431.225,412.837C429.525,412.837,429.525,412.837,431.225,412.837L431.225,412.837z"/>
<path fill-rule="evenodd" clip-rule="evenodd" fill="#FFFFFF" stroke="#000000" stroke-width="1.25" stroke-linecap="square" stroke-miterlimit="10" d="  M430.475,413.587C430.475,412.587,430.475,412.587,430.475,413.587L430.475,413.587z"/>
<path fill-rule="evenodd" clip-rule="evenodd" fill="#FFFFFF" stroke="#000000" stroke-width="1.25" stroke-linecap="square" stroke-miterlimit="10" d="  M431.225,412.837C430.306,413.021,429.281,413.225,431.225,412.837L431.225,412.837z"/>
<path fill-rule="evenodd" clip-rule="evenodd" fill="#FFFFFF" stroke="#000000" stroke-width="1.25" stroke-linecap="square" stroke-miterlimit="10" d="  M431.225,412.837C429.577,412.837,429.577,412.837,431.225,412.837L431.225,412.837z"/>
<path fill-rule="evenodd" clip-rule="evenodd" fill="#FFFFFF" stroke="#000000" stroke-width="1.25" stroke-linecap="square" stroke-miterlimit="10" d="  M431.225,412.837C429.577,412.837,429.577,412.837,431.225,412.837L431.225,412.837z"/>
<path fill-rule="evenodd" clip-rule="evenodd" fill="#FFFFFF" stroke="#000000" stroke-width="1.25" stroke-linecap="square" stroke-miterlimit="10" d="  M431.225,412.837C429.581,413.724,430.583,413.184,431.225,412.837L431.225,412.837z"/>
<path fill-rule="evenodd" clip-rule="evenodd" fill="#FFFFFF" stroke="#000000" stroke-width="1.25" stroke-linecap="square" stroke-miterlimit="10" d="  M431.225,412.837C429.581,413.724,430.583,413.184,431.225,412.837L431.225,412.837z"/>
<path fill-rule="evenodd" clip-rule="evenodd" fill="#FFFFFF" stroke="#000000" stroke-width="1.25" stroke-linecap="square" stroke-miterlimit="10" d="  M431.225,412.837C429.581,413.724,430.583,413.184,431.225,412.837L431.225,412.837z"/>
<path fill-rule="evenodd" clip-rule="evenodd" fill="#FFFFFF" stroke="#000000" stroke-width="1.25" stroke-linecap="square" stroke-miterlimit="10" d="  M431.225,412.837C429.581,413.724,430.583,413.184,431.225,412.837L431.225,412.837z"/>
<path fill-rule="evenodd" clip-rule="evenodd" fill="#FFFFFF" stroke="#000000" stroke-width="1.25" stroke-linecap="square" stroke-miterlimit="10" d="  M431.225,412.837C429.581,413.724,430.583,413.184,431.225,412.837L431.225,412.837z"/>
<path fill-rule="evenodd" clip-rule="evenodd" fill="#FFFFFF" stroke="#000000" stroke-width="1.25" stroke-linecap="square" stroke-miterlimit="10" d="  M431.225,412.837C429.951,412.837,429.951,412.837,431.225,412.837L431.225,412.837z"/>
<path fill-rule="evenodd" clip-rule="evenodd" fill="#FFFFFF" stroke="#000000" stroke-width="1.25" stroke-linecap="square" stroke-miterlimit="10" d="  M431.225,412.837C429.577,412.837,429.577,412.837,431.225,412.837L431.225,412.837z"/>
<path fill-rule="evenodd" clip-rule="evenodd" fill="#FFFFFF" stroke="#000000" stroke-width="1.25" stroke-linecap="square" stroke-miterlimit="10" d="  M430.475,413.587C430.475,412.587,430.475,412.587,430.475,413.587L430.475,413.587z"/>
<path fill-rule="evenodd" clip-rule="evenodd" fill="#FFFFFF" stroke="#000000" stroke-width="1.25" stroke-linecap="square" stroke-miterlimit="10" d="  M431.225,412.837C429.577,412.837,429.577,412.837,431.225,412.837L431.225,412.837z"/>
<path fill-rule="evenodd" clip-rule="evenodd" fill="#FFFFFF" stroke="#000000" stroke-width="1.25" stroke-linecap="square" stroke-miterlimit="10" d="  M431.225,412.837C429.781,413.186,429.367,413.287,431.225,412.837L431.225,412.837z"/>
<path fill-rule="evenodd" clip-rule="evenodd" fill="#FFFFFF" stroke="#000000" stroke-width="1.25" stroke-linecap="square" stroke-miterlimit="10" d="  M431.225,412.837C429.581,413.724,430.583,413.184,431.225,412.837L431.225,412.837z"/>
<path fill-rule="evenodd" clip-rule="evenodd" fill="#FFFFFF" stroke="#000000" stroke-width="1.25" stroke-linecap="square" stroke-miterlimit="10" d="  M431.225,412.837C429.581,413.724,430.583,413.184,431.225,412.837L431.225,412.837z"/>
<path fill-rule="evenodd" clip-rule="evenodd" fill="#FFFFFF" stroke="#000000" stroke-width="1.25" stroke-linecap="square" stroke-miterlimit="10" d="  M431.225,412.837C429.581,413.724,430.583,413.184,431.225,412.837L431.225,412.837z"/>
<path fill-rule="evenodd" clip-rule="evenodd" fill="#FFFFFF" stroke="#000000" stroke-width="1.25" stroke-linecap="square" stroke-miterlimit="10" d="  M431.225,412.837C429.581,413.724,430.583,413.184,431.225,412.837L431.225,412.837z"/>
<path fill-rule="evenodd" clip-rule="evenodd" fill="#FFFFFF" stroke="#000000" stroke-width="1.25" stroke-linecap="square" stroke-miterlimit="10" d="  M431.225,412.837C429.581,413.724,430.583,413.184,431.225,412.837L431.225,412.837z"/>
<path fill-rule="evenodd" clip-rule="evenodd" fill="#FFFFFF" stroke="#000000" stroke-width="1.25" stroke-linecap="square" stroke-miterlimit="10" d="  M431.225,412.837C429.581,413.724,430.583,413.184,431.225,412.837L431.225,412.837z"/>
<path fill-rule="evenodd" clip-rule="evenodd" fill="#FFFFFF" stroke="#000000" stroke-width="1.25" stroke-linecap="square" stroke-miterlimit="10" d="  M431.225,412.837C429.581,413.724,430.583,413.184,431.225,412.837L431.225,412.837z"/>
<path fill-rule="evenodd" clip-rule="evenodd" fill="#FFFFFF" stroke="#000000" stroke-width="1.25" stroke-linecap="square" stroke-miterlimit="10" d="  M431.225,412.837C429.581,413.724,430.583,413.184,431.225,412.837L431.225,412.837z"/>
<path fill-rule="evenodd" clip-rule="evenodd" fill="#FFFFFF" stroke="#000000" stroke-width="1.25" stroke-linecap="square" stroke-miterlimit="10" d="  M430.475,413.587C431.078,412.984,431.078,412.984,430.475,413.587L430.475,413.587z"/>
<path fill-rule="evenodd" clip-rule="evenodd" fill="#FFFFFF" stroke="#000000" stroke-width="1.25" stroke-linecap="square" stroke-miterlimit="10" d="  M431.225,412.837C429.581,413.724,430.583,413.184,431.225,412.837L431.225,412.837z"/>
<path fill-rule="evenodd" clip-rule="evenodd" fill="#FFFFFF" stroke="#000000" stroke-width="1.25" stroke-linecap="square" stroke-miterlimit="10" d="  M431.225,412.837C429.581,413.724,430.583,413.184,431.225,412.837L431.225,412.837z"/>
<path fill-rule="evenodd" clip-rule="evenodd" fill="#FFFFFF" stroke="#000000" stroke-width="1.25" stroke-linecap="square" stroke-miterlimit="10" d="  M431.225,412.837C429.581,413.724,430.583,413.184,431.225,412.837L431.225,412.837z"/>
<path fill-rule="evenodd" clip-rule="evenodd" fill="#FFFFFF" stroke="#000000" stroke-width="1.25" stroke-linecap="square" stroke-miterlimit="10" d="  M431.225,412.837C429.581,413.724,430.583,413.184,431.225,412.837L431.225,412.837z"/>
<path fill-rule="evenodd" clip-rule="evenodd" fill="#FFFFFF" stroke="#000000" stroke-width="1.25" stroke-linecap="square" stroke-miterlimit="10" d="  M431.225,412.837C429.581,413.724,430.583,413.184,431.225,412.837L431.225,412.837z"/>
<path fill-rule="evenodd" clip-rule="evenodd" fill="#FFFFFF" stroke="#000000" stroke-width="1.25" stroke-linecap="square" stroke-miterlimit="10" d="  M431.225,412.837C429.581,413.724,430.583,413.184,431.225,412.837L431.225,412.837z"/>
<path fill-rule="evenodd" clip-rule="evenodd" fill="#FFFFFF" stroke="#000000" stroke-width="1.25" stroke-linecap="square" stroke-miterlimit="10" d="  M430.475,412.837C430.475,411.837,430.475,411.837,430.475,412.837L430.475,412.837z"/>
<path fill-rule="evenodd" clip-rule="evenodd" fill="#FFFFFF" stroke="#000000" stroke-width="1.25" stroke-linecap="square" stroke-miterlimit="10" d="  M430.475,412.837L430.475,412.837z"/>
<path fill-rule="evenodd" clip-rule="evenodd" fill="#FFFFFF" stroke="#000000" stroke-width="1.25" stroke-linecap="square" stroke-miterlimit="10" d="  M431.225,412.087C429.368,413.061,429.796,412.837,431.225,412.087L431.225,412.087z"/>
<path fill-rule="evenodd" clip-rule="evenodd" fill="#FFFFFF" stroke="#000000" stroke-width="1.25" stroke-linecap="square" stroke-miterlimit="10" d="  M431.225,412.087C429.781,412.436,429.367,412.537,431.225,412.087L431.225,412.087z"/>
<path fill-rule="evenodd" clip-rule="evenodd" fill="#FFFFFF" stroke="#000000" stroke-width="1.25" stroke-linecap="square" stroke-miterlimit="10" d="  M430.475,412.837L430.475,412.837z"/>
<path fill-rule="evenodd" clip-rule="evenodd" fill="#FFFFFF" stroke="#000000" stroke-width="1.25" stroke-linecap="square" stroke-miterlimit="10" d="  M431.225,412.087C429.368,413.061,429.796,412.837,431.225,412.087L431.225,412.087z"/>
<path fill-rule="evenodd" clip-rule="evenodd" fill="#FFFFFF" stroke="#000000" stroke-width="1.25" stroke-linecap="square" stroke-miterlimit="10" d="  M431.225,412.837C429.367,412.388,429.781,412.489,431.225,412.837L431.225,412.837z"/>
<path fill-rule="evenodd" clip-rule="evenodd" fill="#FFFFFF" stroke="#000000" stroke-width="1.25" stroke-linecap="square" stroke-miterlimit="10" d="  M430.475,412.837C429.871,412.234,429.871,412.234,430.475,412.837L430.475,412.837z"/>
<path fill-rule="evenodd" clip-rule="evenodd" fill="#FFFFFF" stroke="#000000" stroke-width="1.25" stroke-linecap="square" stroke-miterlimit="10" d="  M430.475,412.837C430.475,411.837,430.475,411.837,430.475,412.837L430.475,412.837z"/>
<path fill-rule="evenodd" clip-rule="evenodd" fill="#FFFFFF" stroke="#000000" stroke-width="1.25" stroke-linecap="square" stroke-miterlimit="10" d="  M430.475,412.837C430.475,411.837,430.475,411.837,430.475,412.837L430.475,412.837z"/>
<path fill-rule="evenodd" clip-rule="evenodd" fill="#FFFFFF" stroke="#000000" stroke-width="1.25" stroke-linecap="square" stroke-miterlimit="10" d="  M430.475,412.837C430.475,411.837,430.475,411.837,430.475,412.837L430.475,412.837z"/>
<path fill-rule="evenodd" clip-rule="evenodd" fill="#FFFFFF" stroke="#000000" stroke-width="1.25" stroke-linecap="square" stroke-miterlimit="10" d="  M430.475,412.837L430.475,412.837z"/>
<path fill-rule="evenodd" clip-rule="evenodd" fill="#FFFFFF" stroke="#000000" stroke-width="1.25" stroke-linecap="square" stroke-miterlimit="10" d="  M430.475,412.837L430.475,412.837z"/>
<path fill-rule="evenodd" clip-rule="evenodd" fill="#FFFFFF" stroke="#000000" stroke-width="1.25" stroke-linecap="square" stroke-miterlimit="10" d="  M431.225,412.087C429.368,413.061,429.796,412.837,431.225,412.087L431.225,412.087z"/>
<path fill-rule="evenodd" clip-rule="evenodd" fill="#FFFFFF" stroke="#000000" stroke-width="1.25" stroke-linecap="square" stroke-miterlimit="10" d="  M431.225,412.087C429.368,413.061,429.796,412.837,431.225,412.087L431.225,412.087z"/>
<path fill-rule="evenodd" clip-rule="evenodd" fill="#FFFFFF" stroke="#000000" stroke-width="1.25" stroke-linecap="square" stroke-miterlimit="10" d="  M430.475,412.837L430.475,412.837z"/>
<path fill-rule="evenodd" clip-rule="evenodd" fill="#FFFFFF" stroke="#000000" stroke-width="1.25" stroke-linecap="square" stroke-miterlimit="10" d="  M431.225,412.837C429.367,412.388,429.781,412.489,431.225,412.837L431.225,412.837z"/>
<path fill-rule="evenodd" clip-rule="evenodd" fill="#FFFFFF" stroke="#000000" stroke-width="1.25" stroke-linecap="square" stroke-miterlimit="10" d="  M430.475,412.837C430.475,411.837,430.475,411.837,430.475,412.837L430.475,412.837z"/>
<path fill-rule="evenodd" clip-rule="evenodd" fill="#FFFFFF" stroke="#000000" stroke-width="1.25" stroke-linecap="square" stroke-miterlimit="10" d="  M430.475,412.837C430.475,411.837,430.475,411.837,430.475,412.837L430.475,412.837z"/>
<path fill-rule="evenodd" clip-rule="evenodd" fill="#FFFFFF" stroke="#000000" stroke-width="1.25" stroke-linecap="square" stroke-miterlimit="10" d="  M430.475,412.837C430.475,411.837,430.475,411.837,430.475,412.837L430.475,412.837z"/>
<path fill-rule="evenodd" clip-rule="evenodd" fill="#FFFFFF" stroke="#000000" stroke-width="1.25" stroke-linecap="square" stroke-miterlimit="10" d="  M430.475,412.837C430.475,411.837,430.475,411.837,430.475,412.837L430.475,412.837z"/>
<path fill-rule="evenodd" clip-rule="evenodd" fill="#FFFFFF" stroke="#000000" stroke-width="1.25" stroke-linecap="square" stroke-miterlimit="10" d="  M430.475,412.837C430.475,411.837,430.475,411.837,430.475,412.837L430.475,412.837z"/>
<path fill-rule="evenodd" clip-rule="evenodd" fill="#FFFFFF" stroke="#000000" stroke-width="1.25" stroke-linecap="square" stroke-miterlimit="10" d="  M430.475,412.837L430.475,412.837z"/>
<path fill-rule="evenodd" clip-rule="evenodd" fill="#FFFFFF" stroke="#000000" stroke-width="1.25" stroke-linecap="square" stroke-miterlimit="10" d="  M430.475,412.837L430.475,412.837z"/>
<path fill-rule="evenodd" clip-rule="evenodd" fill="#FFFFFF" stroke="#000000" stroke-width="1.25" stroke-linecap="square" stroke-miterlimit="10" d="  M431.225,412.087C429.368,413.061,429.796,412.837,431.225,412.087L431.225,412.087z"/>
<path fill-rule="evenodd" clip-rule="evenodd" fill="#FFFFFF" stroke="#000000" stroke-width="1.25" stroke-linecap="square" stroke-miterlimit="10" d="  M430.475,412.087C430.475,413.087,430.475,413.087,430.475,412.087L430.475,412.087z"/>
<path fill-rule="evenodd" clip-rule="evenodd" fill="#FFFFFF" stroke="#000000" stroke-width="1.25" stroke-linecap="square" stroke-miterlimit="10" d="  M430.475,412.837L430.475,412.837z"/>
<path fill-rule="evenodd" clip-rule="evenodd" fill="#FFFFFF" stroke="#000000" stroke-width="1.25" stroke-linecap="square" stroke-miterlimit="10" d="  M430.475,412.837C430.475,411.837,430.475,411.837,430.475,412.837L430.475,412.837z"/>
<path fill-rule="evenodd" clip-rule="evenodd" fill="#FFFFFF" stroke="#000000" stroke-width="1.25" stroke-linecap="square" stroke-miterlimit="10" d="  M430.475,412.837C430.475,411.837,430.475,411.837,430.475,412.837L430.475,412.837z"/>
<path fill-rule="evenodd" clip-rule="evenodd" fill="#FFFFFF" stroke="#000000" stroke-width="1.25" stroke-linecap="square" stroke-miterlimit="10" d="  M430.475,412.837C430.475,411.837,430.475,411.837,430.475,412.837L430.475,412.837z"/>
<path fill-rule="evenodd" clip-rule="evenodd" fill="#FFFFFF" stroke="#000000" stroke-width="1.25" stroke-linecap="square" stroke-miterlimit="10" d="  M430.475,412.837C430.475,411.837,430.475,411.837,430.475,412.837L430.475,412.837z"/>
<path fill-rule="evenodd" clip-rule="evenodd" fill="#FFFFFF" stroke="#000000" stroke-width="1.25" stroke-linecap="square" stroke-miterlimit="10" d="  M430.475,412.837C430.475,411.837,430.475,411.837,430.475,412.837L430.475,412.837z"/>
<path fill-rule="evenodd" clip-rule="evenodd" fill="#FFFFFF" stroke="#000000" stroke-width="1.25" stroke-linecap="square" stroke-miterlimit="10" d="  M430.475,412.837L430.475,412.837z"/>
<path fill-rule="evenodd" clip-rule="evenodd" fill="#FFFFFF" stroke="#000000" stroke-width="1.25" stroke-linecap="square" stroke-miterlimit="10" d="  M430.475,412.837L430.475,412.837z"/>
<path fill-rule="evenodd" clip-rule="evenodd" fill="#FFFFFF" stroke="#000000" stroke-width="1.25" stroke-linecap="square" stroke-miterlimit="10" d="  M430.475,412.837L430.475,412.837z"/>
<path fill-rule="evenodd" clip-rule="evenodd" fill="#FFFFFF" stroke="#000000" stroke-width="1.25" stroke-linecap="square" stroke-miterlimit="10" d="  M430.475,412.837C430.475,411.837,430.475,411.837,430.475,412.837L430.475,412.837z"/>
<path fill-rule="evenodd" clip-rule="evenodd" fill="#FFFFFF" stroke="#000000" stroke-width="1.25" stroke-linecap="square" stroke-miterlimit="10" d="  M430.475,412.837C430.475,411.837,430.475,411.837,430.475,412.837L430.475,412.837z"/>
<path fill-rule="evenodd" clip-rule="evenodd" fill="#FFFFFF" stroke="#000000" stroke-width="1.25" stroke-linecap="square" stroke-miterlimit="10" d="  M430.475,412.837L430.475,412.837z"/>
<path fill-rule="evenodd" clip-rule="evenodd" fill="#FFFFFF" stroke="#000000" stroke-width="1.25" stroke-linecap="square" stroke-miterlimit="10" d="  M430.475,412.837C430.475,411.837,430.475,411.837,430.475,412.837L430.475,412.837z"/>
<path fill-rule="evenodd" clip-rule="evenodd" fill="#FFFFFF" stroke="#000000" stroke-width="1.25" stroke-linecap="square" stroke-miterlimit="10" d="  M430.475,412.837C430.475,411.837,430.475,411.837,430.475,412.837L430.475,412.837z"/>
<path fill-rule="evenodd" clip-rule="evenodd" fill="#FFFFFF" stroke="#000000" stroke-width="1.25" stroke-linecap="square" stroke-miterlimit="10" d="  M430.475,412.837C430.475,411.837,430.475,411.837,430.475,412.837L430.475,412.837z"/>
<path fill-rule="evenodd" clip-rule="evenodd" fill="#FFFFFF" stroke="#000000" stroke-width="1.25" stroke-linecap="square" stroke-miterlimit="10" d="  M430.475,412.837C430.475,411.837,430.475,411.837,430.475,412.837L430.475,412.837z"/>
<path fill-rule="evenodd" clip-rule="evenodd" fill="#FFFFFF" stroke="#000000" stroke-width="1.25" stroke-linecap="square" stroke-miterlimit="10" d="  M430.475,412.837L430.475,412.837z"/>
<path fill-rule="evenodd" clip-rule="evenodd" fill="#FFFFFF" stroke="#000000" stroke-width="1.25" stroke-linecap="square" stroke-miterlimit="10" d="  M430.475,412.837L430.475,412.837z"/>
<path fill="none" stroke="#000000" stroke-width="1.25" stroke-linecap="square" stroke-miterlimit="10" d="M416.225,421.837  c3.566-0.224,6.695-1.773,9-4.5"/>
<path fill-rule="evenodd" clip-rule="evenodd" fill="#F87F11" stroke="#000000" stroke-width="1.25" stroke-linecap="square" stroke-miterlimit="10" d="  M386.973,484.089c-15.684-1.776-13.719-16.997-22.5-27c4.914,9.581,8.117,20.498-1.5,23.25c3.167,3.736,5.204,5.894,8.25,9.75  c6.696-1.736,5.412-0.105,16.5,0c-3.053-1.378-5.782-4.09-9-5.25C379.988,484.845,386.177,485.657,386.973,484.089z"/>
<path fill-rule="evenodd" clip-rule="evenodd" fill="#F87F11" stroke="#000000" stroke-width="1.25" stroke-linecap="square" stroke-miterlimit="10" d="  M353.223,464.589c-2.571,12.359,2.695,19.38,15,18.75c-1.476,1.564-6.029,1.03-8.25,0.75c3.727,1.206,7.95,2.2,11.25,3.75  c-6.125,0.843-16.554,1.859-18.75,2.25c-2.093-4.496-3.823-4.612-5.25-6.75c0.069-7.466,0.878-11.404-0.75-20.25  C348.723,463.589,350.973,464.089,353.223,464.589z"/>
<path fill-rule="evenodd" clip-rule="evenodd" fill="#99330C" stroke="#000000" stroke-width="1.25" stroke-linecap="square" stroke-miterlimit="10" d="  M403.473,383.587c-3.61,20.3,6.641,37.72-3.375,57.752c-6.229,12.457-34.557,25.58-45.375,23.25  c-26.331-5.672-37.28-57.386-39-84.752c6.892,4.605,42.978,21.239,51.75,18c17.55-6.48,10.859-34.299,36-36.75  C403.473,367.983,405.145,376.938,403.473,383.587z"/>
<path fill-rule="evenodd" clip-rule="evenodd" fill="#5E1F0A" stroke="#000000" stroke-width="1.25" stroke-linecap="square" stroke-miterlimit="10" d="  M368.223,402.337c-1.068,2.702-2.306,3.176-3,6c5.761-0.498,13.703,1.875,19.5,0.75c-71.429,38.918,7.307,69.968,24.75,27.752  c2.556-6.187-1.975-78.92-5.25-81.377C388.678,343.804,370.693,396.629,368.223,402.337z"/>
<path fill-rule="evenodd" clip-rule="evenodd" fill="#F87F11" stroke="#000000" stroke-width="1.25" stroke-linecap="square" stroke-miterlimit="10" d="  M407.223,371.587c6.308-0.302,8.851-7.933,12.002,4.5C413.43,376.698,410.762,373.114,407.223,371.587z"/>
<path fill-rule="evenodd" clip-rule="evenodd" fill="#FB0F0C" stroke="#000000" stroke-width="1.25" stroke-linecap="square" stroke-miterlimit="10" d="  M393.723,374.587c17.751-4.064,2.373-29.725,15-18.75c6.482,0.612,10.196,8.236-1.5,15.75c6.877,8.062,1.887,4.997,3.75,14.25  c0.539,0.398-4.798-4.138-3-3.75c-3.656-3.303-6.199,1.493-7.5-8.25c-0.119,0.245-2.402,4.196-3,5.25  C395.641,379.017,392.634,374.704,393.723,374.587z"/>
<path fill="none" stroke="#000000" stroke-width="1.25" stroke-linecap="square" stroke-miterlimit="10" d="M408.723,374.587  c1.128,3.145,0.563,6.289-1.5,9"/>
<path fill-rule="evenodd" clip-rule="evenodd" fill="#FFFFFF" stroke="#000000" stroke-width="1.25" stroke-linecap="square" stroke-miterlimit="10" d="  M401.973,367.087C402.859,365.443,402.319,366.446,401.973,367.087L401.973,367.087z"/>
<path fill-rule="evenodd" clip-rule="evenodd" fill="#FFFFFF" stroke="#000000" stroke-width="1.25" stroke-linecap="square" stroke-miterlimit="10" d="  M401.973,366.337C402.576,366.941,402.576,366.941,401.973,366.337L401.973,366.337z"/>
<path fill-rule="evenodd" clip-rule="evenodd" fill="#FFFFFF" stroke="#000000" stroke-width="1.25" stroke-linecap="square" stroke-miterlimit="10" d="  M400.473,366.337C404.107,366.337,404.107,366.337,400.473,366.337L400.473,366.337z"/>
<path fill-rule="evenodd" clip-rule="evenodd" fill="#FFFFFF" stroke="#000000" stroke-width="1.25" stroke-linecap="square" stroke-miterlimit="10" d="  M401.223,366.337C403.855,366.135,404.027,366.122,401.223,366.337L401.223,366.337z"/>
<path fill-rule="evenodd" clip-rule="evenodd" fill="#FFFFFF" stroke="#000000" stroke-width="1.25" stroke-linecap="square" stroke-miterlimit="10" d="  M402.723,367.087C402.119,366.484,402.119,366.484,402.723,367.087L402.723,367.087z"/>
<path fill-rule="evenodd" clip-rule="evenodd" fill="#FFFFFF" stroke="#000000" stroke-width="1.25" stroke-linecap="square" stroke-miterlimit="10" d="  M401.223,366.337C403.731,366.546,403.826,366.554,401.223,366.337L401.223,366.337z"/>
<path fill-rule="evenodd" clip-rule="evenodd" fill="#FFFFFF" stroke="#000000" stroke-width="1.25" stroke-linecap="square" stroke-miterlimit="10" d="  M401.223,366.337C403.354,366.588,403.201,366.57,401.223,366.337L401.223,366.337z"/>
<path fill-rule="evenodd" clip-rule="evenodd" fill="#FFFFFF" stroke="#000000" stroke-width="1.25" stroke-linecap="square" stroke-miterlimit="10" d="  M401.223,366.337C403.604,366.337,403.604,366.337,401.223,366.337L401.223,366.337z"/>
<path fill-rule="evenodd" clip-rule="evenodd" fill="#FFFFFF" stroke="#000000" stroke-width="1.25" stroke-linecap="square" stroke-miterlimit="10" d="  M401.973,366.337C402.509,366.337,402.509,366.337,401.973,366.337L401.973,366.337z"/>
<path fill-rule="evenodd" clip-rule="evenodd" fill="#FFFFFF" stroke="#000000" stroke-width="1.25" stroke-linecap="square" stroke-miterlimit="10" d="  M401.973,366.337C402.576,366.941,402.576,366.941,401.973,366.337L401.973,366.337z"/>
<path fill-rule="evenodd" clip-rule="evenodd" fill="#FFFFFF" stroke="#000000" stroke-width="1.25" stroke-linecap="square" stroke-miterlimit="10" d="  M401.973,366.337C402.576,366.941,402.576,366.941,401.973,366.337L401.973,366.337z"/>
<path fill-rule="evenodd" clip-rule="evenodd" fill="#FFFFFF" stroke="#000000" stroke-width="1.25" stroke-linecap="square" stroke-miterlimit="10" d="  M401.973,367.087C402.859,365.443,402.319,366.446,401.973,367.087L401.973,367.087z"/>
<path fill-rule="evenodd" clip-rule="evenodd" fill="#FFFFFF" stroke="#000000" stroke-width="1.25" stroke-linecap="square" stroke-miterlimit="10" d="  M401.973,366.337C402.576,366.941,402.576,366.941,401.973,366.337L401.973,366.337z"/>
<path fill-rule="evenodd" clip-rule="evenodd" fill="#FFFFFF" stroke="#000000" stroke-width="1.25" stroke-linecap="square" stroke-miterlimit="10" d="  M401.223,366.337C403.77,366.337,403.77,366.337,401.223,366.337L401.223,366.337z"/>
<path fill-rule="evenodd" clip-rule="evenodd" fill="#FFFFFF" stroke="#000000" stroke-width="1.25" stroke-linecap="square" stroke-miterlimit="10" d="  M401.223,366.337C404.347,366.157,403.306,366.217,401.223,366.337L401.223,366.337z"/>
<path fill-rule="evenodd" clip-rule="evenodd" fill="#FFFFFF" stroke="#000000" stroke-width="1.25" stroke-linecap="square" stroke-miterlimit="10" d="  M402.723,367.087C402.119,366.484,402.119,366.484,402.723,367.087L402.723,367.087z"/>
<path fill-rule="evenodd" clip-rule="evenodd" fill="#FFFFFF" stroke="#000000" stroke-width="1.25" stroke-linecap="square" stroke-miterlimit="10" d="  M401.223,366.337C403.264,366.337,403.264,366.337,401.223,366.337L401.223,366.337z"/>
<path fill-rule="evenodd" clip-rule="evenodd" fill="#FFFFFF" stroke="#000000" stroke-width="1.25" stroke-linecap="square" stroke-miterlimit="10" d="  M401.223,366.337C404.151,366.078,402.685,366.208,401.223,366.337L401.223,366.337z"/>
<path fill-rule="evenodd" clip-rule="evenodd" fill="#FFFFFF" stroke="#000000" stroke-width="1.25" stroke-linecap="square" stroke-miterlimit="10" d="  M401.223,366.337C403.372,366.265,402.939,366.279,401.223,366.337L401.223,366.337z"/>
<path fill-rule="evenodd" clip-rule="evenodd" fill="#FFFFFF" stroke="#000000" stroke-width="1.25" stroke-linecap="square" stroke-miterlimit="10" d="  M401.973,366.337C402.509,366.337,402.509,366.337,401.973,366.337L401.973,366.337z"/>
<path fill-rule="evenodd" clip-rule="evenodd" fill="#FFFFFF" stroke="#000000" stroke-width="1.25" stroke-linecap="square" stroke-miterlimit="10" d="  M401.973,366.337C402.576,366.941,402.576,366.941,401.973,366.337L401.973,366.337z"/>
<path fill-rule="evenodd" clip-rule="evenodd" fill="#FFFFFF" stroke="#000000" stroke-width="1.25" stroke-linecap="square" stroke-miterlimit="10" d="  M401.973,366.337C402.576,366.941,402.576,366.941,401.973,366.337L401.973,366.337z"/>
<path fill-rule="evenodd" clip-rule="evenodd" fill="#FFFFFF" stroke="#000000" stroke-width="1.25" stroke-linecap="square" stroke-miterlimit="10" d="  M401.973,367.087C402.859,365.443,402.319,366.446,401.973,367.087L401.973,367.087z"/>
<path fill-rule="evenodd" clip-rule="evenodd" fill="#FFFFFF" stroke="#000000" stroke-width="1.25" stroke-linecap="square" stroke-miterlimit="10" d="  M401.973,366.337C402.576,366.941,402.576,366.941,401.973,366.337L401.973,366.337z"/>
<path fill-rule="evenodd" clip-rule="evenodd" fill="#FFFFFF" stroke="#000000" stroke-width="1.25" stroke-linecap="square" stroke-miterlimit="10" d="  M401.223,366.337C403.264,366.337,403.264,366.337,401.223,366.337L401.223,366.337z"/>
<path fill-rule="evenodd" clip-rule="evenodd" fill="#FFFFFF" stroke="#000000" stroke-width="1.25" stroke-linecap="square" stroke-miterlimit="10" d="  M401.223,366.337C404.151,366.078,402.685,366.208,401.223,366.337L401.223,366.337z"/>
<path fill-rule="evenodd" clip-rule="evenodd" fill="#FFFFFF" stroke="#000000" stroke-width="1.25" stroke-linecap="square" stroke-miterlimit="10" d="  M402.723,367.087C401.079,366.201,402.081,366.741,402.723,367.087L402.723,367.087z"/>
<path fill-rule="evenodd" clip-rule="evenodd" fill="#FFFFFF" stroke="#000000" stroke-width="1.25" stroke-linecap="square" stroke-miterlimit="10" d="  M401.223,366.337C403.195,366.337,403.195,366.337,401.223,366.337L401.223,366.337z"/>
<path fill-rule="evenodd" clip-rule="evenodd" fill="#FFFFFF" stroke="#000000" stroke-width="1.25" stroke-linecap="square" stroke-miterlimit="10" d="  M401.223,366.337C402.87,366.337,402.87,366.337,401.223,366.337L401.223,366.337z"/>
<path fill-rule="evenodd" clip-rule="evenodd" fill="#FFFFFF" stroke="#000000" stroke-width="1.25" stroke-linecap="square" stroke-miterlimit="10" d="  M401.223,366.337C402.87,366.337,402.87,366.337,401.223,366.337L401.223,366.337z"/>
<path fill-rule="evenodd" clip-rule="evenodd" fill="#FFFFFF" stroke="#000000" stroke-width="1.25" stroke-linecap="square" stroke-miterlimit="10" d="  M401.973,366.337C402.576,366.941,402.576,366.941,401.973,366.337L401.973,366.337z"/>
<path fill-rule="evenodd" clip-rule="evenodd" fill="#FFFFFF" stroke="#000000" stroke-width="1.25" stroke-linecap="square" stroke-miterlimit="10" d="  M401.973,366.337C402.576,366.941,402.576,366.941,401.973,366.337L401.973,366.337z"/>
<path fill-rule="evenodd" clip-rule="evenodd" fill="#FFFFFF" stroke="#000000" stroke-width="1.25" stroke-linecap="square" stroke-miterlimit="10" d="  M401.973,366.337C402.576,366.941,402.576,366.941,401.973,366.337L401.973,366.337z"/>
<path fill-rule="evenodd" clip-rule="evenodd" fill="#FFFFFF" stroke="#000000" stroke-width="1.25" stroke-linecap="square" stroke-miterlimit="10" d="  M401.973,366.337C401.973,367.337,401.973,367.337,401.973,366.337L401.973,366.337z"/>
<path fill-rule="evenodd" clip-rule="evenodd" fill="#FFFFFF" stroke="#000000" stroke-width="1.25" stroke-linecap="square" stroke-miterlimit="10" d="  M401.973,366.337C401.973,367.337,401.973,367.337,401.973,366.337L401.973,366.337z"/>
<path fill-rule="evenodd" clip-rule="evenodd" fill="#FFFFFF" stroke="#000000" stroke-width="1.25" stroke-linecap="square" stroke-miterlimit="10" d="  M401.223,366.337C402.87,366.337,402.87,366.337,401.223,366.337L401.223,366.337z"/>
<path fill-rule="evenodd" clip-rule="evenodd" fill="#FFFFFF" stroke="#000000" stroke-width="1.25" stroke-linecap="square" stroke-miterlimit="10" d="  M401.223,366.337C402.666,366.686,403.081,366.787,401.223,366.337L401.223,366.337z"/>
<path fill-rule="evenodd" clip-rule="evenodd" fill="#FFFFFF" stroke="#000000" stroke-width="1.25" stroke-linecap="square" stroke-miterlimit="10" d="  M401.973,367.087C401.973,366.087,401.973,366.087,401.973,367.087L401.973,367.087z"/>
<path fill-rule="evenodd" clip-rule="evenodd" fill="#FFFFFF" stroke="#000000" stroke-width="1.25" stroke-linecap="square" stroke-miterlimit="10" d="  M401.223,366.337C402.666,366.686,403.081,366.787,401.223,366.337L401.223,366.337z"/>
<path fill-rule="evenodd" clip-rule="evenodd" fill="#FFFFFF" stroke="#000000" stroke-width="1.25" stroke-linecap="square" stroke-miterlimit="10" d="  M401.973,366.337C402.576,366.941,402.576,366.941,401.973,366.337L401.973,366.337z"/>
<path fill-rule="evenodd" clip-rule="evenodd" fill="#FFFFFF" stroke="#000000" stroke-width="1.25" stroke-linecap="square" stroke-miterlimit="10" d="  M401.973,366.337C402.576,366.941,402.576,366.941,401.973,366.337L401.973,366.337z"/>
<path fill-rule="evenodd" clip-rule="evenodd" fill="#FFFFFF" stroke="#000000" stroke-width="1.25" stroke-linecap="square" stroke-miterlimit="10" d="  M401.973,366.337C402.576,366.941,402.576,366.941,401.973,366.337L401.973,366.337z"/>
<path fill-rule="evenodd" clip-rule="evenodd" fill="#FFFFFF" stroke="#000000" stroke-width="1.25" stroke-linecap="square" stroke-miterlimit="10" d="  M401.973,366.337C401.973,367.337,401.973,367.337,401.973,366.337L401.973,366.337z"/>
<path fill-rule="evenodd" clip-rule="evenodd" fill="#FFFFFF" stroke="#000000" stroke-width="1.25" stroke-linecap="square" stroke-miterlimit="10" d="  M401.973,366.337C401.973,367.337,401.973,367.337,401.973,366.337L401.973,366.337z"/>
<path fill-rule="evenodd" clip-rule="evenodd" fill="#FFFFFF" stroke="#000000" stroke-width="1.25" stroke-linecap="square" stroke-miterlimit="10" d="  M401.973,365.587C403.617,366.474,402.614,365.934,401.973,365.587L401.973,365.587z"/>
<path fill-rule="evenodd" clip-rule="evenodd" fill="#FFFFFF" stroke="#000000" stroke-width="1.25" stroke-linecap="square" stroke-miterlimit="10" d="  M401.973,365.587C403.617,366.474,402.614,365.934,401.973,365.587L401.973,365.587z"/>
<path fill-rule="evenodd" clip-rule="evenodd" fill="#FFFFFF" stroke="#000000" stroke-width="1.25" stroke-linecap="square" stroke-miterlimit="10" d="  M401.973,365.587C403.62,365.587,403.62,365.587,401.973,365.587L401.973,365.587z"/>
<path fill-rule="evenodd" clip-rule="evenodd" fill="#FFFFFF" stroke="#000000" stroke-width="1.25" stroke-linecap="square" stroke-miterlimit="10" d="  M401.973,365.587C403.62,365.587,403.62,365.587,401.973,365.587L401.973,365.587z"/>
<path fill-rule="evenodd" clip-rule="evenodd" fill="#FFFFFF" stroke="#000000" stroke-width="1.25" stroke-linecap="square" stroke-miterlimit="10" d="  M402.723,365.587C402.119,366.191,402.119,366.191,402.723,365.587L402.723,365.587z"/>
<path fill-rule="evenodd" clip-rule="evenodd" fill="#FFFFFF" stroke="#000000" stroke-width="1.25" stroke-linecap="square" stroke-miterlimit="10" d="  M401.973,365.587C403.617,366.474,402.614,365.934,401.973,365.587L401.973,365.587z"/>
<path fill-rule="evenodd" clip-rule="evenodd" fill="#FFFFFF" stroke="#000000" stroke-width="1.25" stroke-linecap="square" stroke-miterlimit="10" d="  M401.973,365.587C403.617,366.474,402.614,365.934,401.973,365.587L401.973,365.587z"/>
<path fill-rule="evenodd" clip-rule="evenodd" fill="#FFFFFF" stroke="#000000" stroke-width="1.25" stroke-linecap="square" stroke-miterlimit="10" d="  M401.973,365.587C403.617,366.474,402.614,365.934,401.973,365.587L401.973,365.587z"/>
<path fill-rule="evenodd" clip-rule="evenodd" fill="#FFFFFF" stroke="#000000" stroke-width="1.25" stroke-linecap="square" stroke-miterlimit="10" d="  M401.973,365.587C403.617,366.474,402.614,365.934,401.973,365.587L401.973,365.587z"/>
<path fill-rule="evenodd" clip-rule="evenodd" fill="#FFFFFF" stroke="#000000" stroke-width="1.25" stroke-linecap="square" stroke-miterlimit="10" d="  M401.973,365.587C403.617,366.474,402.614,365.934,401.973,365.587L401.973,365.587z"/>
<path fill-rule="evenodd" clip-rule="evenodd" fill="#FFFFFF" stroke="#000000" stroke-width="1.25" stroke-linecap="square" stroke-miterlimit="10" d="  M401.973,365.587C403.617,366.474,402.614,365.934,401.973,365.587L401.973,365.587z"/>
<path fill-rule="evenodd" clip-rule="evenodd" fill="#FFFFFF" stroke="#000000" stroke-width="1.25" stroke-linecap="square" stroke-miterlimit="10" d="  M401.973,365.587C403.617,366.474,402.614,365.934,401.973,365.587L401.973,365.587z"/>
<path fill-rule="evenodd" clip-rule="evenodd" fill="#FFFFFF" stroke="#000000" stroke-width="1.25" stroke-linecap="square" stroke-miterlimit="10" d="  M401.973,365.587C402.576,366.191,402.576,366.191,401.973,365.587L401.973,365.587z"/>
<path fill-rule="evenodd" clip-rule="evenodd" fill="#FFFFFF" stroke="#000000" stroke-width="1.25" stroke-linecap="square" stroke-miterlimit="10" d="  M401.973,365.587C403.092,365.587,403.092,365.587,401.973,365.587L401.973,365.587z"/>
<path fill-rule="evenodd" clip-rule="evenodd" fill="#FFFFFF" stroke="#000000" stroke-width="1.25" stroke-linecap="square" stroke-miterlimit="10" d="  M401.973,365.587C403.092,365.587,403.092,365.587,401.973,365.587L401.973,365.587z"/>
<path fill-rule="evenodd" clip-rule="evenodd" fill="#FFFFFF" stroke="#000000" stroke-width="1.25" stroke-linecap="square" stroke-miterlimit="10" d="  M402.723,365.587C402.119,366.191,402.119,366.191,402.723,365.587L402.723,365.587z"/>
<path fill-rule="evenodd" clip-rule="evenodd" fill="#FFFFFF" stroke="#000000" stroke-width="1.25" stroke-linecap="square" stroke-miterlimit="10" d="  M401.973,365.587C403.617,366.474,402.614,365.934,401.973,365.587L401.973,365.587z"/>
<path fill-rule="evenodd" clip-rule="evenodd" fill="#FFFFFF" stroke="#000000" stroke-width="1.25" stroke-linecap="square" stroke-miterlimit="10" d="  M401.973,365.587C403.617,366.474,402.614,365.934,401.973,365.587L401.973,365.587z"/>
<path fill-rule="evenodd" clip-rule="evenodd" fill="#FFFFFF" stroke="#000000" stroke-width="1.25" stroke-linecap="square" stroke-miterlimit="10" d="  M401.973,365.587C403.617,366.474,402.614,365.934,401.973,365.587L401.973,365.587z"/>
<path fill-rule="evenodd" clip-rule="evenodd" fill="#FFFFFF" stroke="#000000" stroke-width="1.25" stroke-linecap="square" stroke-miterlimit="10" d="  M401.973,365.587C403.617,366.474,402.614,365.934,401.973,365.587L401.973,365.587z"/>
<path fill-rule="evenodd" clip-rule="evenodd" fill="#FFFFFF" stroke="#000000" stroke-width="1.25" stroke-linecap="square" stroke-miterlimit="10" d="  M401.973,365.587C403.617,366.474,402.614,365.934,401.973,365.587L401.973,365.587z"/>
<path fill-rule="evenodd" clip-rule="evenodd" fill="#FFFFFF" stroke="#000000" stroke-width="1.25" stroke-linecap="square" stroke-miterlimit="10" d="  M401.973,365.587C403.617,366.474,402.614,365.934,401.973,365.587L401.973,365.587z"/>
<path fill-rule="evenodd" clip-rule="evenodd" fill="#FFFFFF" stroke="#000000" stroke-width="1.25" stroke-linecap="square" stroke-miterlimit="10" d="  M401.973,365.587C403.617,366.474,402.614,365.934,401.973,365.587L401.973,365.587z"/>
<path fill-rule="evenodd" clip-rule="evenodd" fill="#FFFFFF" stroke="#000000" stroke-width="1.25" stroke-linecap="square" stroke-miterlimit="10" d="  M401.973,365.587C402.576,366.191,402.576,366.191,401.973,365.587L401.973,365.587z"/>
<path fill-rule="evenodd" clip-rule="evenodd" fill="#FFFFFF" stroke="#000000" stroke-width="1.25" stroke-linecap="square" stroke-miterlimit="10" d="  M401.973,365.587C403.617,366.474,402.614,365.934,401.973,365.587L401.973,365.587z"/>
<path fill-rule="evenodd" clip-rule="evenodd" fill="#FFFFFF" stroke="#000000" stroke-width="1.25" stroke-linecap="square" stroke-miterlimit="10" d="  M401.973,365.587C403.617,366.474,402.614,365.934,401.973,365.587L401.973,365.587z"/>
<path fill-rule="evenodd" clip-rule="evenodd" fill="#FFFFFF" stroke="#000000" stroke-width="1.25" stroke-linecap="square" stroke-miterlimit="10" d="  M402.723,365.587C402.119,366.191,402.119,366.191,402.723,365.587L402.723,365.587z"/>
<path fill-rule="evenodd" clip-rule="evenodd" fill="#FFFFFF" stroke="#000000" stroke-width="1.25" stroke-linecap="square" stroke-miterlimit="10" d="  M401.973,365.587C403.617,366.474,402.614,365.934,401.973,365.587L401.973,365.587z"/>
<path fill-rule="evenodd" clip-rule="evenodd" fill="#FFFFFF" stroke="#000000" stroke-width="1.25" stroke-linecap="square" stroke-miterlimit="10" d="  M401.973,365.587C403.617,366.474,402.614,365.934,401.973,365.587L401.973,365.587z"/>
<path fill-rule="evenodd" clip-rule="evenodd" fill="#FFFFFF" stroke="#000000" stroke-width="1.25" stroke-linecap="square" stroke-miterlimit="10" d="  M401.973,365.587C403.617,366.474,402.614,365.934,401.973,365.587L401.973,365.587z"/>
<path fill-rule="evenodd" clip-rule="evenodd" fill="#FFFFFF" stroke="#000000" stroke-width="1.25" stroke-linecap="square" stroke-miterlimit="10" d="  M401.973,365.587C403.617,366.474,402.614,365.934,401.973,365.587L401.973,365.587z"/>
<path fill-rule="evenodd" clip-rule="evenodd" fill="#FFFFFF" stroke="#000000" stroke-width="1.25" stroke-linecap="square" stroke-miterlimit="10" d="  M401.973,365.587C403.617,366.474,402.614,365.934,401.973,365.587L401.973,365.587z"/>
<path fill-rule="evenodd" clip-rule="evenodd" fill="#FFFFFF" stroke="#000000" stroke-width="1.25" stroke-linecap="square" stroke-miterlimit="10" d="  M401.973,365.587C403.617,366.474,402.614,365.934,401.973,365.587L401.973,365.587z"/>
<path fill-rule="evenodd" clip-rule="evenodd" fill="#FFFFFF" stroke="#000000" stroke-width="1.25" stroke-linecap="square" stroke-miterlimit="10" d="  M401.973,365.587C402.576,366.191,402.576,366.191,401.973,365.587L401.973,365.587z"/>
<path fill-rule="evenodd" clip-rule="evenodd" fill="#FFFFFF" stroke="#000000" stroke-width="1.25" stroke-linecap="square" stroke-miterlimit="10" d="  M401.973,365.587C401.973,366.587,401.973,366.587,401.973,365.587L401.973,365.587z"/>
<path fill-rule="evenodd" clip-rule="evenodd" fill="#FFFFFF" stroke="#000000" stroke-width="1.25" stroke-linecap="square" stroke-miterlimit="10" d="  M401.973,365.587C402.576,366.191,402.576,366.191,401.973,365.587L401.973,365.587z"/>
<path fill-rule="evenodd" clip-rule="evenodd" fill="#FFFFFF" stroke="#000000" stroke-width="1.25" stroke-linecap="square" stroke-miterlimit="10" d="  M401.973,365.587C402.576,366.191,402.576,366.191,401.973,365.587L401.973,365.587z"/>
<path fill-rule="evenodd" clip-rule="evenodd" fill="#FFFFFF" stroke="#000000" stroke-width="1.25" stroke-linecap="square" stroke-miterlimit="10" d="  M402.723,365.587C402.081,365.934,401.079,366.474,402.723,365.587L402.723,365.587z"/>
<path fill-rule="evenodd" clip-rule="evenodd" fill="#FFFFFF" stroke="#000000" stroke-width="1.25" stroke-linecap="square" stroke-miterlimit="10" d="  M401.973,365.587C402.576,366.191,402.576,366.191,401.973,365.587L401.973,365.587z"/>
<path fill-rule="evenodd" clip-rule="evenodd" fill="#FFFFFF" stroke="#000000" stroke-width="1.25" stroke-linecap="square" stroke-miterlimit="10" d="  M401.973,365.587C402.576,366.191,402.576,366.191,401.973,365.587L401.973,365.587z"/>
<path fill-rule="evenodd" clip-rule="evenodd" fill="#FFFFFF" stroke="#000000" stroke-width="1.25" stroke-linecap="square" stroke-miterlimit="10" d="  M401.973,365.587C402.576,366.191,402.576,366.191,401.973,365.587L401.973,365.587z"/>
<path fill-rule="evenodd" clip-rule="evenodd" fill="#FFFFFF" stroke="#000000" stroke-width="1.25" stroke-linecap="square" stroke-miterlimit="10" d="  M401.973,365.587C402.576,366.191,402.576,366.191,401.973,365.587L401.973,365.587z"/>
<path fill-rule="evenodd" clip-rule="evenodd" fill="#FFFFFF" stroke="#000000" stroke-width="1.25" stroke-linecap="square" stroke-miterlimit="10" d="  M401.973,365.587C402.576,366.191,402.576,366.191,401.973,365.587L401.973,365.587z"/>
<path fill-rule="evenodd" clip-rule="evenodd" fill="#FFFFFF" stroke="#000000" stroke-width="1.25" stroke-linecap="square" stroke-miterlimit="10" d="  M401.973,365.587C402.576,366.191,402.576,366.191,401.973,365.587L401.973,365.587z"/>
<path fill="none" stroke="#000000" stroke-width="1.25" stroke-linecap="square" stroke-miterlimit="10" d="M419.225,375.337  c-4.392,0.318-8.504-0.983-12.002-3.75"/>
</svg>