<svg xmlns="http://www.w3.org/2000/svg" xmlns:xlink="http://www.w3.org/1999/xlink" version="1.1" id="Layer_1" x="0px" y="0px" enable-background="new 0 0 822.05 841.89" xml:space="preserve" viewBox="317.51 345.39 186.6 155.95">
<path fill-rule="evenodd" clip-rule="evenodd" fill="#FB0F0C" stroke="#000000" stroke-linecap="square" stroke-miterlimit="10" d="  M351.756,377.388c9.93,3.731,21.057,14.66,19.125,26.25c-0.994,5.961,52.404,44.633,61.125,51.002  c10.896,7.958,77.007,26.118,71.25,39C489.056,525.412,259.729,445.667,351.756,377.388z"/>
<path fill-rule="evenodd" clip-rule="evenodd" fill="#1A6314" stroke="#000000" stroke-linecap="square" stroke-miterlimit="10" d="  M325.506,345.888c-20.619,15.371,8.702,31.654,0.75,51c10.921-3.434,19.709-11.072,25.5-21  C329.954,386.766,318.924,357.486,325.506,345.888z"/>
<path fill-rule="evenodd" clip-rule="evenodd" fill="#FB0F0C" d="M370.506,405.888c-2.946,1.288-3.898,4.162-8.25,2.25  C365.006,407.388,367.756,406.638,370.506,405.888z"/>
<path fill="none" stroke="#000000" stroke-linecap="square" stroke-miterlimit="10" d="M370.506,405.888  c-1.833,2.822-4.958,3.696-8.25,2.25"/>
</svg>