<svg xmlns="http://www.w3.org/2000/svg" xmlns:xlink="http://www.w3.org/1999/xlink" version="1.1" id="Layer_1" x="0px" y="0px" enable-background="new 0 0 822.05 841.89" xml:space="preserve" viewBox="303.9 336.31 213.5 167.8">
<path fill-rule="evenodd" clip-rule="evenodd" fill="#D2D1D2" stroke="#000000" stroke-width="1.25" stroke-linecap="square" stroke-miterlimit="10" d="  M501.029,390.89c1.142,10.1,4.152,19.691,9,28.5C503.544,412.195,499.678,398.975,501.029,390.89z"/>
<path fill-rule="evenodd" clip-rule="evenodd" fill="#D2D1D2" stroke="#000000" stroke-width="1.25" stroke-linecap="square" stroke-miterlimit="10" d="  M510.029,421.64c-1.479,7.355-3.929,13.343-3.75,21C504.895,435.812,508.244,428.098,510.029,421.64z"/>
<path fill-rule="evenodd" clip-rule="evenodd" fill="#D2D1D2" stroke="#000000" stroke-width="1.25" stroke-linecap="square" stroke-miterlimit="10" d="  M509.279,422.39C510.096,418.517,510.146,418.28,509.279,422.39L509.279,422.39z"/>
<path fill-rule="evenodd" clip-rule="evenodd" fill="#D2D1D2" stroke="#000000" stroke-width="1.25" stroke-linecap="square" stroke-miterlimit="10" d="  M502.529,452.39c1.208-4.047,6.33-5.37,3-12C498.892,443.937,502.998,447.936,502.529,452.39z"/>
<path fill-rule="evenodd" clip-rule="evenodd" fill="#D2D1D2" stroke="#000000" stroke-width="1.25" stroke-linecap="square" stroke-miterlimit="10" d="  M465.029,393.14c-2.256,7.803-4.522,17.687-7.5,24C463.063,410.015,466.118,400.353,465.029,393.14z"/>
<path fill-rule="evenodd" clip-rule="evenodd" fill="#D2D1D2" stroke="#000000" stroke-width="1.25" stroke-linecap="square" stroke-miterlimit="10" d="  M456.029,417.14c-2.938,8.04-4.947,15.698-9,23.25C452.152,433.814,454.271,424.781,456.029,417.14z"/>
<path fill-rule="evenodd" clip-rule="evenodd" fill="#D2D1D2" stroke="#000000" stroke-width="1.25" stroke-linecap="square" stroke-miterlimit="10" d="  M444.029,450.14c1.093-3.028-1.696-7.11,3.75-10.5C450.251,445.605,445.341,446.506,444.029,450.14z"/>
<path fill-rule="evenodd" clip-rule="evenodd" fill="#D2D1D2" stroke="#000000" stroke-width="1.25" stroke-linecap="square" stroke-miterlimit="10" d="  M457.529,414.89C456.342,419.06,456.023,420.176,457.529,414.89L457.529,414.89z"/>
<path fill-rule="evenodd" clip-rule="evenodd" fill="#D2D1D2" stroke="#000000" stroke-width="1.25" stroke-linecap="square" stroke-miterlimit="10" d="  M479.279,386.39c17.73-6.655,45.819,12.154,24,25.5c-1-4.25-2-8.5-3-12.75c1,9.5,2,19,3,28.5c-13.5,0.5-27,1-40.5,1.5  C471.748,414.32,445.854,387.643,479.279,386.39z"/>
<path fill-rule="evenodd" clip-rule="evenodd" fill="#D2D1D2" d="M467.279,411.14l1.5-8.25L467.279,411.14z"/>
<line fill="none" stroke="#000000" stroke-width="1.25" stroke-linecap="square" stroke-miterlimit="10" x1="467.279" y1="411.14" x2="468.779" y2="402.89"/>
<path fill-rule="evenodd" clip-rule="evenodd" fill="#D2D1D2" stroke="#000000" stroke-width="1.25" stroke-linecap="square" stroke-miterlimit="10" d="  M493.529,372.14c6.52,20.761-19.931,23.664-25.5,3.75C477.278,376.301,484.882,373.745,493.529,372.14z"/>
<path fill-rule="evenodd" clip-rule="evenodd" fill="#D2D1D2" stroke="#000000" stroke-width="1.25" stroke-linecap="square" stroke-miterlimit="10" d="  M468.029,373.64c12.857,0.923,26.008-2.366,37.5-8.25C492.116,365.817,474.22,353.293,468.029,373.64z"/>
<path fill-rule="evenodd" clip-rule="evenodd" fill="#D2D1D2" stroke="#000000" stroke-width="1.25" stroke-linecap="square" stroke-miterlimit="10" d="  M496.529,440.39c1.97,7.956,2.381,16.63,3.75,24.75C499.213,462.846,496.108,444.395,496.529,440.39z"/>
<path fill-rule="evenodd" clip-rule="evenodd" fill="#D2D1D2" d="M498.779,465.89c-1.008,10.834-2.445,22.728-2.25,33  C496.969,490.021,499.312,468.832,498.779,465.89z"/>
<path fill="none" stroke="#000000" stroke-width="1.25" stroke-linecap="square" stroke-miterlimit="10" d="M498.779,465.89  c-1.008,10.834-2.445,22.728-2.25,33C496.969,490.021,499.312,468.832,498.779,465.89"/>
<path fill-rule="evenodd" clip-rule="evenodd" fill="#D2D1D2" stroke="#000000" stroke-width="1.25" stroke-linecap="square" stroke-miterlimit="10" d="  M496.529,496.64c8.31-0.566,13.512-1.992,20.25,3c-0.611,0.665-0.861,1.415-0.75,2.25  C505.577,504.342,495.462,504.921,496.529,496.64z"/>
<path fill-rule="evenodd" clip-rule="evenodd" fill="#D2D1D2" stroke="#000000" stroke-width="1.25" stroke-linecap="square" stroke-miterlimit="10" d="  M474.779,441.14c-1.248,8.391-1.097,17.071-2.25,25.5C474.475,460.236,475.578,445.673,474.779,441.14z"/>
<path fill-rule="evenodd" clip-rule="evenodd" fill="#D2D1D2" d="M474.029,465.89c1.5,10.5,3,21,4.5,31.5  C476.771,489.304,473.976,472.339,474.029,465.89z"/>
<path fill="none" stroke="#000000" stroke-width="1.25" stroke-linecap="square" stroke-miterlimit="10" d="M474.029,465.89  c1.5,10.5,3,21,4.5,31.5C476.771,489.304,473.976,472.339,474.029,465.89"/>
<path fill-rule="evenodd" clip-rule="evenodd" fill="#D2D1D2" stroke="#000000" stroke-width="1.25" stroke-linecap="square" stroke-miterlimit="10" d="  M478.529,495.14c-9.001,0.25-14.775-0.815-20.25,6C468.604,504.06,478.123,502.43,478.529,495.14z"/>
<path fill-rule="evenodd" clip-rule="evenodd" fill="#D2D1D2" stroke="#000000" stroke-width="1.25" stroke-linecap="square" stroke-miterlimit="10" d="  M471.029,432.14c-1.675,7.729-11.418,27.754-6.75,33.75c10.022,12.875,21.086-10.032,19.5-18.75  c-0.761,10.633,14.221,30.634,21.75,15C515.383,441.681,486.501,426.879,471.029,432.14z"/>
<path fill-rule="evenodd" clip-rule="evenodd" fill="#D2D1D2" stroke="#000000" stroke-width="1.25" stroke-linecap="square" stroke-miterlimit="10" d="  M343.529,398.39C368.644,348.138,261.89,400.597,343.529,398.39L343.529,398.39z"/>
<path fill-rule="evenodd" clip-rule="evenodd" fill="#D2D1D2" stroke="#000000" stroke-width="1.25" stroke-linecap="square" stroke-miterlimit="10" d="  M336.779,401.39c4.828,6.774,12.378,17.197,15.75,21.75C349.59,414.41,343.961,406.562,336.779,401.39z"/>
<path fill-rule="evenodd" clip-rule="evenodd" fill="#D2D1D2" stroke="#000000" stroke-width="1.25" stroke-linecap="square" stroke-miterlimit="10" d="  M350.279,422.39c1.959,6.325,4.889,14.03,6.75,19.5C356.337,434.577,352.716,428.08,350.279,422.39z"/>
<path fill-rule="evenodd" clip-rule="evenodd" fill="#D2D1D2" stroke="#000000" stroke-width="1.25" stroke-linecap="square" stroke-miterlimit="10" d="  M351.779,424.64C350.1,420.489,350.331,421.059,351.779,424.64L351.779,424.64z"/>
<path fill-rule="evenodd" clip-rule="evenodd" fill="#D2D1D2" stroke="#000000" stroke-width="1.25" stroke-linecap="square" stroke-miterlimit="10" d="  M356.279,453.89c-0.047-4.433-4.59-7.949,1.5-12C360.91,447.643,356.699,450.869,356.279,453.89z"/>
<path fill-rule="evenodd" clip-rule="evenodd" fill="#D2D1D2" stroke="#000000" stroke-width="1.25" stroke-linecap="square" stroke-miterlimit="10" d="  M319.529,402.14c-5.29,7.107-10.291,18.326-13.5,24.75C308.58,417.57,313.128,408.212,319.529,402.14z"/>
<path fill-rule="evenodd" clip-rule="evenodd" fill="#D2D1D2" stroke="#000000" stroke-width="1.25" stroke-linecap="square" stroke-miterlimit="10" d="  M308.279,423.14c0.316,7.561-0.033,14.951,0.75,22.5C306.399,438.75,307.354,429.901,308.279,423.14z"/>
<path fill-rule="evenodd" clip-rule="evenodd" fill="#D2D1D2" stroke="#000000" stroke-width="1.25" stroke-linecap="square" stroke-miterlimit="10" d="  M306.779,426.14C307.693,421.321,307.856,420.462,306.779,426.14L306.779,426.14z"/>
<path fill-rule="evenodd" clip-rule="evenodd" fill="#D2D1D2" stroke="#000000" stroke-width="1.25" stroke-linecap="square" stroke-miterlimit="10" d="  M308.279,456.14c0.539-5.396,5.4-8.732-0.75-14.25C304.842,447.678,307.729,450.814,308.279,456.14z"/>
<path fill-rule="evenodd" clip-rule="evenodd" fill="#D2D1D2" stroke="#000000" stroke-width="1.25" stroke-linecap="square" stroke-miterlimit="10" d="  M312.779,403.64c17.677-6.904,36.566-3.89,42,16.5c-2.5,1.25-5,2.5-7.5,3.75c-1-3-2-6-3-9c1.998,5.271,0.722,12.363,1.5,18  c-11.5,0.25-23,0.5-34.5,0.75c1.647-5.868,1.625-13.433,4.5-18.75C303.574,435.59,302.542,414.22,312.779,403.64z"/>
<path fill-rule="evenodd" clip-rule="evenodd" fill="#D2D1D2" stroke="#000000" stroke-width="1.25" stroke-linecap="square" stroke-miterlimit="10" d="  M320.279,382.64c-3.746,19.857,16.899,23.605,22.5,4.5C334.886,386.771,327.746,383.474,320.279,382.64z"/>
<path fill-rule="evenodd" clip-rule="evenodd" fill="#D2D1D2" stroke="#000000" stroke-width="1.25" stroke-linecap="square" stroke-miterlimit="10" d="  M337.529,447.89c0.968,7.437,1.005,14.602,3,21.75c-0.323-0.677-0.823-0.927-1.5-0.75C338.052,462.511,337.62,450.8,337.529,447.89z  "/>
<path fill-rule="evenodd" clip-rule="evenodd" fill="#D2D1D2" d="M338.279,468.89c-1.5,9.5-3,19-4.5,28.5  C335.935,489.345,339.035,474.71,338.279,468.89z"/>
<path fill="none" stroke="#000000" stroke-width="1.25" stroke-linecap="square" stroke-miterlimit="10" d="M338.279,468.89  c-1.5,9.5-3,19-4.5,28.5C335.935,489.345,339.035,474.71,338.279,468.89"/>
<path fill-rule="evenodd" clip-rule="evenodd" fill="#D2D1D2" stroke="#000000" stroke-width="1.25" stroke-linecap="square" stroke-miterlimit="10" d="  M333.779,496.64C356.871,498.707,340.648,503.341,333.779,496.64L333.779,496.64z"/>
<path fill-rule="evenodd" clip-rule="evenodd" fill="#D2D1D2" stroke="#000000" stroke-width="1.25" stroke-linecap="square" stroke-miterlimit="10" d="  M326.279,450.14c-0.836,6.479-1.498,16.037-2.25,21C326.104,464.894,326.365,452.144,326.279,450.14z"/>
<path fill-rule="evenodd" clip-rule="evenodd" fill="#D2D1D2" d="M324.779,471.14c1,9,2,18,3,27  C326.953,491.464,324.765,476.079,324.779,471.14z"/>
<path fill="none" stroke="#000000" stroke-width="1.25" stroke-linecap="square" stroke-miterlimit="10" d="M324.779,471.14  c1,9,2,18,3,27C326.953,491.464,324.765,476.079,324.779,471.14"/>
<path fill-rule="evenodd" clip-rule="evenodd" fill="#D2D1D2" stroke="#000000" stroke-width="1.25" stroke-linecap="square" stroke-miterlimit="10" d="  M328.529,496.64c-7.528,0.128-11.488-2.771-16.5,3.75C321.281,502.691,326.578,497.893,328.529,496.64z"/>
<path fill-rule="evenodd" clip-rule="evenodd" fill="#D2D1D2" stroke="#000000" stroke-width="1.25" stroke-linecap="square" stroke-miterlimit="10" d="  M319.529,434.39c25.081-8.004,27.514,16.707,35.25,34.5c-16.154,4.916-33.854,4.965-50.25,0.75  C309.529,457.89,314.529,446.14,319.529,434.39z"/>
<path fill-rule="evenodd" clip-rule="evenodd" fill="#EDCBA6" stroke="#000000" stroke-width="1.25" stroke-linecap="square" stroke-miterlimit="10" d="  M383.279,441.14c-0.197,4.568-5.681,8.913,9,5.25C389.812,439.949,386.678,443.729,383.279,441.14z"/>
<path fill-rule="evenodd" clip-rule="evenodd" stroke="#000000" stroke-width="1.25" stroke-linecap="square" stroke-miterlimit="10" d="  M411.029,468.89c-7.066-6.912-13.468-17.104-19.5-20.25C397.746,456.09,405.181,465.644,411.029,468.89z"/>
<path fill-rule="evenodd" clip-rule="evenodd" fill="#1B1076" stroke="#000000" stroke-width="1.25" stroke-linecap="square" stroke-miterlimit="10" d="  M380.279,496.64c-4.395,2.138-7.35-0.595-10.5,4.5C378.298,502.896,379.589,497.036,380.279,496.64z"/>
<path fill-rule="evenodd" clip-rule="evenodd" stroke="#000000" stroke-width="1.25" stroke-linecap="square" stroke-miterlimit="10" d="  M370.529,478.64c5.627-5.787,11.853-7.534,9.75-14.25c-12.947,9.727-11.245,22.902-0.75,33.75  C377.925,492.451,373.95,484.856,370.529,478.64z"/>
<path fill-rule="evenodd" clip-rule="evenodd" fill="#1B1076" stroke="#000000" stroke-width="1.25" stroke-linecap="square" stroke-miterlimit="10" d="  M387.779,496.64c4.137,3.238,7.528-0.444,9,6C387.875,502.913,388.781,497.424,387.779,496.64z"/>
<path fill-rule="evenodd" clip-rule="evenodd" fill="#EDCBA6" stroke="#000000" stroke-width="1.25" stroke-linecap="square" stroke-miterlimit="10" d="  M394.529,434.39c-5.258,12.242-10.528,11.92-15-0.75C384.469,434.285,389.67,433.65,394.529,434.39z"/>
<path fill-rule="evenodd" clip-rule="evenodd" fill="#1B1076" stroke="#000000" stroke-width="1.25" stroke-linecap="square" stroke-miterlimit="10" d="  M379.529,432.89c7.923,0.598,14.953,1.074,22.5-1.5C394.168,426.397,386.707,426.038,379.529,432.89z"/>
<path fill-rule="evenodd" clip-rule="evenodd" stroke="#000000" stroke-width="1.25" stroke-linecap="square" stroke-miterlimit="10" d="  M381.779,444.14c-8.351-3.629-18.048-8.499-25.5-11.25C364.163,438.641,376.434,443.723,381.779,444.14z"/>
<path fill-rule="evenodd" clip-rule="evenodd" fill="#FB0F0C" stroke="#000000" stroke-width="1.25" stroke-linecap="square" stroke-miterlimit="10" d="  M375.029,438.89c0.08,0.924-3.182,5.01-3.75,6c5.234,8.985,4.775,21.194,21.75,19.5c0-3.75,0-7.5,0-11.25  c4.813-0.825,3.232,1.199,9-2.25C391.149,448,383.832,444.648,375.029,438.89z"/>
<path fill-rule="evenodd" clip-rule="evenodd" stroke="#000000" stroke-width="1.25" stroke-linecap="square" stroke-miterlimit="10" d="  M389.279,479.39c-0.134-4.992,0-10.006,0-15c-2.196,8.635-1.739,23.341,0,33.75C389.279,491.891,389.206,485.639,389.279,479.39z"/>
<path fill-rule="evenodd" clip-rule="evenodd" fill="#1B1076" stroke="#000000" stroke-width="1.25" stroke-linecap="square" stroke-miterlimit="10" d="  M376.529,464.39c-2.25,2.5-4.5,5-6.75,7.5c2.789,0.872,4.028,4.631,6,6c2.25-2,4.5-4,6.75-6c5.263,10.193,1.313,3.569,10.5,8.25  C395.107,466.893,388.109,460.644,376.529,464.39z"/>
<path fill-rule="evenodd" clip-rule="evenodd" fill="#EDCBA6" stroke="#000000" stroke-width="1.25" stroke-linecap="square" stroke-miterlimit="10" d="  M408.029,468.14c2.37,1.295,2.684,5.759,7.5,3.75C413.747,468.449,409.985,469.208,408.029,468.14z"/>
<path fill-rule="evenodd" clip-rule="evenodd" fill="#EDCBA6" stroke="#000000" stroke-width="1.25" stroke-linecap="square" stroke-miterlimit="10" d="  M357.779,434.39c-0.958-3.678-4.269-6.454-3-11.25C358.623,426.507,356.786,430.577,357.779,434.39z"/>
<path fill-rule="evenodd" clip-rule="evenodd" fill="#FB0F0C" stroke="#000000" stroke-width="1.5" stroke-linecap="square" stroke-miterlimit="10" d="  M390.779,372.89c0-3.033,1.659-48.742-12-32.25c-9.082,10.966,12.283,32.865-9,32.25c5.25,10.75,10.5,21.5,15.75,32.25  c4.5-10.75,9-21.5,13.5-32.25C396.279,372.89,393.529,372.89,390.779,372.89z"/>
<path fill-rule="evenodd" clip-rule="evenodd" fill="#EDCBA6" stroke="#000000" stroke-width="1.25" stroke-linecap="square" stroke-miterlimit="10" d="  M441.779,450.89c-0.209,4.948,0.256,8.84-1.5,13.5C443.088,460.094,441.714,455.769,441.779,450.89z"/>
<path fill-rule="evenodd" clip-rule="evenodd" fill="#EDCBA6" stroke="#000000" stroke-width="1.25" stroke-linecap="square" stroke-miterlimit="10" d="  M442.529,453.14C442.529,450.125,442.529,450.125,442.529,453.14L442.529,453.14z"/>
<path fill-rule="evenodd" clip-rule="evenodd" fill="#EDCBA6" stroke="#000000" stroke-width="1.25" stroke-linecap="square" stroke-miterlimit="10" d="  M437.279,471.14c1.104-1.859-0.601-6.234,4.5-6C441.727,469.78,437.72,470.398,437.279,471.14z"/>
<path fill-rule="evenodd" clip-rule="evenodd" fill="#F8E616" stroke="#000000" stroke-width="1.25" stroke-linecap="square" stroke-miterlimit="10" d="  M435.029,435.14C444.95,386.452,387.116,458.371,435.029,435.14L435.029,435.14z"/>
<path fill-rule="evenodd" clip-rule="evenodd" stroke="#000000" stroke-width="1.25" stroke-linecap="square" stroke-miterlimit="10" d="  M432.779,438.14c3.038,4.681,7.151,9.957,9.75,14.25C440.968,445.632,436.454,442.992,432.779,438.14z"/>
<path fill-rule="evenodd" clip-rule="evenodd" stroke="#000000" stroke-width="1.25" stroke-linecap="square" stroke-miterlimit="10" d="  M421.529,438.14c-2.755,5.688-6.021,10.188-7.498,16.5C414.163,447.966,418.429,443.477,421.529,438.14z"/>
<path fill-rule="evenodd" clip-rule="evenodd" stroke="#000000" stroke-width="1.25" stroke-linecap="square" stroke-miterlimit="10" d="  M414.031,452.39c-0.982,4.915-2.555,9.071-2.252,14.25C410.572,462.001,412.837,457.5,414.031,452.39z"/>
<path fill-rule="evenodd" clip-rule="evenodd" stroke="#000000" stroke-width="1.25" stroke-linecap="square" stroke-miterlimit="10" d="  M413.279,453.89C413.985,451.559,414.613,449.485,413.279,453.89L413.279,453.89z"/>
<path fill-rule="evenodd" clip-rule="evenodd" fill="#EDCBA6" stroke="#000000" stroke-width="1.25" stroke-linecap="square" stroke-miterlimit="10" d="  M411.029,474.14c0.174-3.005,2.737-5.053,1.5-9c-0.5,0-1,0-1.5,0C408.17,469.029,411.204,471.125,411.029,474.14z"/>
<path fill-rule="evenodd" clip-rule="evenodd" fill="#1B1076" stroke="#000000" stroke-width="1.25" stroke-linecap="square" stroke-miterlimit="10" d="  M417.029,439.64c11.42-5.332,23.144-2.324,27,10.5c-6.068-1.685-0.849,0.093-6.75-3.75c0.25,4,0.5,8,0.75,12  c-5.621,1.593-16.062,2.052-21.75,0.75c1-4.25,2-8.5,3-12.75c-1,2.25-2,4.5-3,6.75c-1.75-0.5-3.5-1-5.25-1.5  C412.406,447.109,415.315,443.838,417.029,439.64z"/>
<path fill-rule="evenodd" clip-rule="evenodd" fill="#EDCBA6" stroke="#000000" stroke-width="1.25" stroke-linecap="square" stroke-miterlimit="10" d="  M419.279,430.64c9.944,9.334,14.906,7.712,13.5-6C428.372,428.117,423.845,428.333,419.279,430.64z"/>
<path fill-rule="evenodd" clip-rule="evenodd" stroke="#000000" stroke-width="1.25" stroke-linecap="square" stroke-miterlimit="10" d="  M433.529,467.39c0.41,4.944,0.142,9.444,1.5,14.25C433.766,478.003,433.702,469.988,433.529,467.39z"/>
<path fill-rule="evenodd" clip-rule="evenodd" d="M433.529,481.64c-0.788,5.995-1.5,12-2.25,18  C432.587,494.455,433.305,484.047,433.529,481.64z"/>
<path fill="none" stroke="#000000" stroke-width="1.25" stroke-linecap="square" stroke-miterlimit="10" d="M433.529,481.64  c-0.788,5.995-1.5,12-2.25,18C432.587,494.455,433.305,484.047,433.529,481.64"/>
<path fill-rule="evenodd" clip-rule="evenodd" fill="#F8E616" stroke="#000000" stroke-width="1.25" stroke-linecap="square" stroke-miterlimit="10" d="  M430.529,498.89c4.492,1.577,6.624-1.922,9,3C432.678,503.977,430.487,498.875,430.529,498.89z"/>
<path fill-rule="evenodd" clip-rule="evenodd" stroke="#000000" stroke-width="1.25" stroke-linecap="square" stroke-miterlimit="10" d="  M426.029,468.89c-0.622,4.791-1.205,9.584-2.25,14.25C425.191,480.497,425.976,469.366,426.029,468.89z"/>
<path fill-rule="evenodd" clip-rule="evenodd" d="M425.279,482.39c0.595,5.989,1,12.002,1.5,18  C425.369,494.944,425.378,485.188,425.279,482.39z"/>
<path fill="none" stroke="#000000" stroke-width="1.25" stroke-linecap="square" stroke-miterlimit="10" d="M425.279,482.39  c0.595,5.989,1,12.002,1.5,18C425.369,494.944,425.378,485.188,425.279,482.39"/>
<path fill-rule="evenodd" clip-rule="evenodd" fill="#F8E616" stroke="#000000" stroke-width="1.25" stroke-linecap="square" stroke-miterlimit="10" d="  M427.529,498.89c-4.922,1.192-7.763-1.465-10.5,3C422.69,503.224,427.732,498.841,427.529,498.89z"/>
<path fill-rule="evenodd" clip-rule="evenodd" fill="#F8E616" stroke="#000000" stroke-width="1.25" stroke-linecap="square" stroke-miterlimit="10" d="  M421.529,460.64c13.685-2.143,20.102,7.438,22.5,21c-10.421,3.036-21.572,2.927-32.25,0.75  C414.896,475.438,417.277,466.938,421.529,460.64z"/>
<path fill-rule="evenodd" clip-rule="evenodd" fill="#FB0F0C" stroke="#000000" stroke-width="1.5" stroke-linecap="square" stroke-miterlimit="10" d="  M432.029,373.64c0-3.033,1.659-48.742-12-32.25c-8.865,10.704,11.794,32.087-8.25,32.25c5,10.75,10,21.5,15,32.25  c4.75-10.75,9.5-21.5,14.25-32.25C438.029,373.64,435.029,373.64,432.029,373.64z"/>
<path fill-rule="evenodd" clip-rule="evenodd" fill="#FB0F0C" stroke="#000000" stroke-width="1.5" stroke-linecap="square" stroke-miterlimit="10" d="  M390.779,372.89c0-3.033,1.659-48.742-12-32.25c-9.082,10.966,12.283,32.865-9,32.25c5.25,10.75,10.5,21.5,15.75,32.25  c4.5-10.75,9-21.5,13.5-32.25C396.279,372.89,393.529,372.89,390.779,372.89z"/>
</svg>