<svg xmlns="http://www.w3.org/2000/svg" xmlns:xlink="http://www.w3.org/1999/xlink" version="1.1" id="Layer_1" x="0px" y="0px" enable-background="new 0 0 822.05 841.89" xml:space="preserve" viewBox="210.31 255.24 400.25 328.73">
<path fill-rule="evenodd" clip-rule="evenodd" fill="#D4D5D7" stroke="#000000" stroke-width="2" stroke-linecap="square" stroke-miterlimit="10" d="  M379.309,413.236c-4.5,1.5-9,3-13.5,4.5c10.995,32.983,22.137,60.823,38.562,91.325c10.56,19.61,21.12,39.222,31.68,58.832  c8.429,15.652,20.356,0.443,34.011-6.909C441.559,509.535,414.815,460.039,379.309,413.236z"/>
<path fill="none" stroke="#000000" stroke-width="2" stroke-linecap="square" stroke-miterlimit="10" d="M395.059,491.984  c-13.575-39.429,1.559-43.447,28.502-14.25"/>
<path fill-rule="evenodd" clip-rule="evenodd" fill="#957966" stroke="#000000" stroke-width="2" stroke-linecap="square" stroke-miterlimit="10" d="  M307.309,260.236c22.292,37.924,43.604,76.708,63.278,116.056c19.098,38.197-3.02,57.258-29.528,19.694  c-23.273-32.979-50.616-73.193-64.5-111.375C269.31,264.676,291.028,248.43,307.309,260.236z"/>
<path fill="none" stroke="#000000" stroke-width="2" stroke-linecap="square" stroke-miterlimit="10" d="M355.309,417.736  c18.233-14.011-63.123-128.449-76.5-151.5"/>
<path fill="none" stroke="#000000" stroke-width="2" stroke-linecap="square" stroke-miterlimit="10" d="M382.309,403.486  c-25.46,10.518-75.705-121.04-88.5-146.25"/>
<line fill="none" stroke="#000000" stroke-width="2" stroke-linecap="square" stroke-miterlimit="10" x1="362.809" y1="410.986" x2="369.559" y2="406.486"/>
<path fill-rule="evenodd" clip-rule="evenodd" fill="#D4D5D7" stroke="#000000" stroke-width="2" stroke-linecap="square" stroke-miterlimit="10" d="  M449.061,415.486c-4.5,1.5-9,3-13.5,4.5c11.333,32.581,22.895,60.957,39.034,91.325c10.423,19.61,20.845,39.222,31.267,58.832  c8.381,15.769,20.949,0.31,34.699-6.909C511.912,511.517,485.254,462.133,449.061,415.486z"/>
<path fill="none" stroke="#000000" stroke-width="2" stroke-linecap="square" stroke-miterlimit="10" d="M465.561,494.234  c-16.129-39.387,2.362-42.356,28.5-14.25"/>
<path fill-rule="evenodd" clip-rule="evenodd" fill="#957966" stroke="#000000" stroke-width="2" stroke-linecap="square" stroke-miterlimit="10" d="  M377.809,262.486c22.095,42.068,47.479,82.242,67.419,125.444c6.688,14.49,9.555,18.757-1.417,28.306  c-16.277,14.166-23.777-4.44-33.541-20.062c-15.758-25.213-65.548-82.083-64.711-113.438  C346.02,265.472,361.061,250.474,377.809,262.486z"/>
<path fill="none" stroke="#000000" stroke-width="2" stroke-linecap="square" stroke-miterlimit="10" d="M425.811,419.986  c18.189-14-63.775-128.482-77.252-151.5"/>
<path fill="none" stroke="#000000" stroke-width="2" stroke-linecap="square" stroke-miterlimit="10" d="M452.811,405.736  c-25.529,10.528-76.323-121.026-89.252-146.25"/>
<line fill="none" stroke="#000000" stroke-width="2" stroke-linecap="square" stroke-miterlimit="10" x1="433.311" y1="413.236" x2="440.061" y2="408.736"/>
<path fill-rule="evenodd" clip-rule="evenodd" fill="#D4D5D7" stroke="#000000" stroke-width="2" stroke-linecap="square" stroke-miterlimit="10" d="  M518.061,417.736c-25.762,3.826,0.32,48.329,9.199,65.151c17.434,33.032,34.867,66.064,52.301,99.097c10-5.5,20-11,30-16.5  C580.82,513.975,553.79,464.58,518.061,417.736z"/>
<path fill="none" stroke="#000000" stroke-width="2" stroke-linecap="square" stroke-miterlimit="10" d="M533.811,496.484  c-14.184-40.008,3.068-41.646,29.25-13.5"/>
<path fill-rule="evenodd" clip-rule="evenodd" fill="#957966" stroke="#000000" stroke-width="2" stroke-linecap="square" stroke-miterlimit="10" d="  M446.061,265.486c24.648,40.145,48.421,81.912,68.167,124.694c17.207,37.283-15.889,39.945-34.956,8.961  c-19.361-31.462-60.484-78.557-65.838-116.03C410.855,265.06,434.197,256.296,446.061,265.486z"/>
<path fill="none" stroke="#000000" stroke-width="2" stroke-linecap="square" stroke-miterlimit="10" d="M494.061,422.986  c19.094-12.797-63.064-129.184-76.5-152.25"/>
<path fill="none" stroke="#000000" stroke-width="2" stroke-linecap="square" stroke-miterlimit="10" d="M521.811,408.736  c-26.6,9.155-76.128-120.778-89.25-146.25"/>
<line fill="none" stroke="#000000" stroke-width="2" stroke-linecap="square" stroke-miterlimit="10" x1="502.311" y1="416.236" x2="509.061" y2="410.986"/>
<path fill-rule="evenodd" clip-rule="evenodd" fill="#D4D5D7" stroke="#000000" stroke-width="2" stroke-linecap="square" stroke-miterlimit="10" d="  M315.559,421.486c-29.435,4.327,10.562,68.898,20.253,86.897c12.162,22.586,24.324,45.173,36.486,67.76  c8.475,15.738,20.967,0.332,34.761-6.909C378.251,517.898,351.104,468.338,315.559,421.486z"/>
<path fill="none" stroke="#000000" stroke-width="2" stroke-linecap="square" stroke-miterlimit="10" d="M331.309,500.234  c-13.451-39.069,2.384-44.623,28.5-13.5"/>
<path fill-rule="evenodd" clip-rule="evenodd" fill="#957966" stroke="#000000" stroke-width="2" stroke-linecap="square" stroke-miterlimit="10" d="  M243.559,268.486c22.292,37.924,43.604,76.708,63.278,116.056c19.15,38.301-3.005,57.276-29.528,19.694  c-16.145-22.877-66.104-85.377-66-114.75C211.369,272.29,226.89,256.149,243.559,268.486z"/>
<path fill="none" stroke="#000000" stroke-width="2" stroke-linecap="square" stroke-miterlimit="10" d="M291.559,425.984  c18.231-14.007-63.124-128.448-76.5-151.498"/>
<path fill="none" stroke="#000000" stroke-width="2" stroke-linecap="square" stroke-miterlimit="10" d="M318.559,411.736  c-25.442,10.543-75.686-120.38-88.5-145.5"/>
<line fill="none" stroke="#000000" stroke-width="2" stroke-linecap="square" stroke-miterlimit="10" x1="299.059" y1="419.236" x2="305.809" y2="414.736"/>
</svg>