<svg xmlns="http://www.w3.org/2000/svg" xmlns:xlink="http://www.w3.org/1999/xlink" version="1.1" id="Layer_1" x="0px" y="0px" enable-background="new 0 0 822.05 841.89" xml:space="preserve" viewBox="254.45 251.84 312.25 333.37">
<path fill-rule="evenodd" clip-rule="evenodd" fill="#B2753B" stroke="#000000" stroke-linecap="square" stroke-miterlimit="10" d="  M566.201,352.092c-52.689,68.802-105.38,137.604-158.069,206.405c-22.219,29.012-17.573,35.064-47.119,12.521  c-35.354-26.976-70.708-53.95-106.062-80.926c60.5-79.25,121-158.5,181.5-237.75C479.701,285.592,522.951,318.842,566.201,352.092z"/>
<path fill-rule="evenodd" clip-rule="evenodd" fill="#B2753B" d="M496.451,301.842l-175.5,236.25L496.451,301.842z"/>
<line fill="none" stroke="#000000" stroke-linecap="square" stroke-miterlimit="10" x1="496.451" y1="301.842" x2="320.951" y2="538.092"/>
<path fill-rule="evenodd" clip-rule="evenodd" fill="#B2753B" d="M398.951,303.342l127.5,97.5L398.951,303.342z"/>
<line fill="none" stroke="#000000" stroke-linecap="square" stroke-miterlimit="10" x1="398.951" y1="303.342" x2="526.451" y2="400.842"/>
<path fill-rule="evenodd" clip-rule="evenodd" fill="#B2753B" d="M362.951,349.842l127.5,97.5L362.951,349.842z"/>
<line fill="none" stroke="#000000" stroke-linecap="square" stroke-miterlimit="10" x1="362.951" y1="349.842" x2="490.451" y2="447.342"/>
<path fill-rule="evenodd" clip-rule="evenodd" fill="#B2753B" d="M327.701,395.592l126.75,97.5L327.701,395.592z"/>
<line fill="none" stroke="#000000" stroke-linecap="square" stroke-miterlimit="10" x1="327.701" y1="395.592" x2="454.451" y2="493.092"/>
<path fill-rule="evenodd" clip-rule="evenodd" fill="#B2753B" d="M293.201,442.092l127.5,98.25L293.201,442.092z"/>
<line fill="none" stroke="#000000" stroke-linecap="square" stroke-miterlimit="10" x1="293.201" y1="442.092" x2="420.701" y2="540.342"/>
<path fill-rule="evenodd" clip-rule="evenodd" fill="#553614" d="M498.701,311.592c-26.02,39.029-28.79,37.603,9.75,66  C481.261,355.409,483.7,341.162,498.701,311.592z"/>
<path fill-rule="evenodd" clip-rule="evenodd" fill="#553614" d="M461.951,360.342c-25.962,38.943-28.632,37.719,9.75,66  C445.458,403.466,446.818,390.171,461.951,360.342z"/>
<path fill-rule="evenodd" clip-rule="evenodd" fill="#553614" d="M427.451,406.092c-26.02,39.029-28.79,37.603,9.75,66  C410.337,450.175,412.721,435.129,427.451,406.092z"/>
<path fill-rule="evenodd" clip-rule="evenodd" fill="#553614" d="M391.451,451.842c-26.02,39.029-28.79,37.603,9.75,66  C375.848,493.32,375.627,483.035,391.451,451.842z"/>
<path fill-rule="evenodd" clip-rule="evenodd" fill="#553614" d="M356.951,500.592c-26.02,39.029-28.79,37.603,9.75,66  C339.739,544.595,342.154,529.761,356.951,500.592z"/>
<path fill-rule="evenodd" clip-rule="evenodd" fill="#553614" d="M292.451,451.842c-25.715,39.491-29.866,37.852,9.75,66  C275.335,495.923,277.233,481.075,292.451,451.842z"/>
<path fill-rule="evenodd" clip-rule="evenodd" fill="#553614" d="M329.951,403.092c-26.096,40.076-30.264,37.349,9,66  C314.383,445.968,312.07,432.712,329.951,403.092z"/>
<path fill-rule="evenodd" clip-rule="evenodd" fill="#553614" d="M366.701,356.592c-26.012,39.946-29.413,37.143,9.75,66  C349.342,400.476,351.796,385.973,366.701,356.592z"/>
<path fill-rule="evenodd" clip-rule="evenodd" fill="#553614" d="M401.201,310.092c-26.86,39.827-29.729,36.691,9,66  C385.689,352.285,383.287,340.416,401.201,310.092z"/>
<path fill-rule="evenodd" clip-rule="evenodd" fill="#553614" d="M437.951,262.842c-26.02,39.029-28.79,37.603,9.75,66  C420.388,306.559,422.881,292.55,437.951,262.842z"/>
</svg>