<svg xmlns="http://www.w3.org/2000/svg" xmlns:xlink="http://www.w3.org/1999/xlink" version="1.1" id="Layer_1" x="0px" y="0px" enable-background="new 0 0 822.05 841.89" xml:space="preserve" viewBox="212.15 304.33 398.17 234.58">
<path fill-rule="evenodd" clip-rule="evenodd" fill="#8E8780" stroke="#000000" stroke-width="2" stroke-linecap="square" stroke-miterlimit="10" d="  M246.77,450.946c-60.197,39.669,62.519,77.967,88.5,81.75c76.716,11.172,162.106,6.745,228.75-36.75  c14.006-9.141,48.931-31.154,45-53.25c-5.682-31.935-60.913-19.285-81.674-18.774C432.452,426.259,340.969,438.561,246.77,450.946z"/>
<path fill-rule="evenodd" clip-rule="evenodd" fill="#D6C4B3" stroke="#000000" stroke-width="2" stroke-linecap="square" stroke-miterlimit="10" d="  M291.77,349.696c46.048-66.817,146.862-45.342,208.5-18.375c42.684,18.674,143.167,69.471,58.694,108.458  c-84.599,39.046-171.377,39.131-262.167,26.75c-19.262-2.626-78.216-5.772-83.403-31.708  C208.576,410.727,277.243,363.907,291.77,349.696z"/>
<line fill="none" stroke="#000000" stroke-width="2" stroke-linecap="square" stroke-miterlimit="10" x1="259.52" y1="382.696" x2="259.52" y2="382.696"/>
<path fill="none" stroke="#000000" stroke-width="2" stroke-linecap="square" stroke-miterlimit="10" d="M244.52,399.196  c-34.827,41.518,118.941,47.155,135.375,47.625c56.699,1.62,184.146,4.78,189.375-76.875"/>
<path fill="none" stroke="#000000" stroke-width="2" stroke-linecap="square" stroke-miterlimit="10" d="M259.52,382.696  c2.236,84.911,310.657,40.356,270.75-36.75"/>
<path fill="none" stroke="#000000" stroke-width="2" stroke-linecap="square" stroke-miterlimit="10" d="M280.52,360.946  c-20.818,66.794,237.665,62.643,214.5-30.75"/>
<path fill="none" stroke="#000000" stroke-width="2" stroke-linecap="square" stroke-miterlimit="10" d="M300.02,342.946  c-0.251,85.662,221.748,31.481,162-24.75"/>
<path fill="none" stroke="#000000" stroke-width="2" stroke-linecap="square" stroke-miterlimit="10" d="M318.77,327.946  c-15.15,75.375,213.034,36.532,94.502-21"/>
<path fill="none" stroke="#000000" stroke-width="2" stroke-linecap="square" stroke-miterlimit="10" d="M343.52,312.946  c-47.695,60.852,170.002,39.076,45-6.75"/>
</svg>