<svg xmlns="http://www.w3.org/2000/svg" xmlns:xlink="http://www.w3.org/1999/xlink" version="1.1" id="Layer_1" x="0px" y="0px" enable-background="new 0 0 822.05 841.89" xml:space="preserve" viewBox="227.37 290.13 362.13 261.24">
<path fill-rule="evenodd" clip-rule="evenodd" fill="#6D757D" stroke="#000000" stroke-width="2" stroke-linecap="square" stroke-miterlimit="10" d="  M368.75,522.14c-6.015,0-88.566,2.855-66-15.75C314.452,496.742,374.621,497.965,368.75,522.14z"/>
<path fill-rule="evenodd" clip-rule="evenodd" fill="#6D757D" stroke="#000000" stroke-width="2" stroke-linecap="square" stroke-miterlimit="10" d="  M517.25,522.14c-7.777,0-82.879,2.493-68.25-11.25C459.192,501.315,518.175,505.946,517.25,522.14z"/>
<path fill-rule="evenodd" clip-rule="evenodd" fill="#6B6569" stroke="#000000" stroke-width="2" stroke-linecap="square" stroke-miterlimit="10" d="  M521,543.89c-10.127,0-86.368,8.757-62.25-21C468.147,511.296,530.193,513.771,521,543.89z"/>
<path fill-rule="evenodd" clip-rule="evenodd" fill="#6B6569" stroke="#000000" stroke-width="2" stroke-linecap="square" stroke-miterlimit="10" d="  M374,549.14c-16.453,0-32.906,0-49.359,0c-9.726,0-17.759-16.233-9.141-24c6.016-5.421,40.912,0,49.359,0  C377.487,525.14,377.721,536.594,374,549.14z"/>
<path fill-rule="evenodd" clip-rule="evenodd" fill="#007647" stroke="#000000" stroke-width="2" stroke-linecap="square" stroke-miterlimit="10" d="  M494,380.39c-46.764,0-93.526,0-140.29,0c-19.546,0-28.46,6.784-28.46-13.594c0-10.971-7.521-66.584,0-73.406  c5.607-5.086,39.793,0,47.045,0c31.082,0,62.163,0,93.245,0c19.546,0,28.46-6.784,28.46,13.594C494,331.453,494,355.921,494,380.39z  "/>
<path fill-rule="evenodd" clip-rule="evenodd" fill="#AF8977" stroke="#000000" stroke-width="2" stroke-linecap="square" stroke-miterlimit="10" d="  M502.25,389.39c-32.064,0-64.128,0-96.192,0c-9.618,0-93.418,5.452-85.308-9c4.084-7.277,86.757,0,96.192,0  C432.492,380.39,503.421,370.841,502.25,389.39z"/>
<path fill-rule="evenodd" clip-rule="evenodd" fill="#C4C6C8" stroke="#000000" stroke-width="2" stroke-linecap="square" stroke-miterlimit="10" d="  M297.5,549.89c-7.964,0-65.25,1.845-65.25-1.697c0-13.323-8.724-76.814,0-84.553c5.258-4.664,65.25,1.418,65.25,1.697  C297.5,493.522,297.5,521.706,297.5,549.89z"/>
<path fill-rule="evenodd" clip-rule="evenodd" fill="#C4C6C8" stroke="#000000" stroke-width="2" stroke-linecap="square" stroke-miterlimit="10" d="  M368,506.39c-7.964,0-65.25,1.845-65.25-1.697c0-13.323-8.724-76.814,0-84.553c5.258-4.664,65.25,1.417,65.25,1.697  C368,450.022,368,478.206,368,506.39z"/>
<path fill-rule="evenodd" clip-rule="evenodd" fill="#C4C6C8" stroke="#000000" stroke-width="2" stroke-linecap="square" stroke-miterlimit="10" d="  M440,547.64c-7.878,0-64.5,1.828-64.5-1.683c0-13.192-8.641-76.167,0-83.817c5.206-4.609,64.5,1.395,64.5,1.683  C440,491.761,440,519.701,440,547.64z"/>
<path fill-rule="evenodd" clip-rule="evenodd" fill="#C4C6C8" stroke="#000000" stroke-width="2" stroke-linecap="square" stroke-miterlimit="10" d="  M515,508.64c-7.965,0-65.25,1.845-65.25-1.697c0-13.323-8.725-76.814,0-84.553c5.258-4.664,65.25,1.418,65.25,1.697  C515,452.272,515,480.456,515,508.64z"/>
<path fill-rule="evenodd" clip-rule="evenodd" fill="#C4C6C8" stroke="#000000" stroke-width="2" stroke-linecap="square" stroke-miterlimit="10" d="  M588.5,547.64c-7.895,0-64.5,1.846-64.5-1.697c0-13.262-8.694-76.899,0-84.553c5.232-4.606,64.5,1.375,64.5,1.697  C588.5,491.272,588.5,519.456,588.5,547.64z"/>
<path fill-rule="evenodd" clip-rule="evenodd" fill="#0071BC" stroke="#000000" stroke-width="2" stroke-linecap="square" stroke-miterlimit="10" d="  M395,364.64c23.9-22.92,58.823,9.059,68.25,32.625c2.229,5.57,4.8,14.855,1.5,20.625c-3.522,6.159-9.882,5.315-16.875,6.75  c-23.038,4.726-4.513,15.867-14.625,20.25c-60.181,26.083-33.921-36.443-55.403-62.039c-8.416-10.027-25.205-23.278-30.097-35.461  c-2.503-6.234,8.13-10.432-0.75-22.5C363.013,333.558,380.076,351.582,395,364.64z"/>
<path fill-rule="evenodd" clip-rule="evenodd" fill="#636467" stroke="#000000" stroke-width="2" stroke-linecap="square" stroke-miterlimit="10" d="  M431,337.64c-0.886,30.016-35.973,30.152-36,0C394.972,307.382,430.424,307.508,431,337.64z"/>
<path fill-rule="evenodd" clip-rule="evenodd" fill="#AF8977" stroke="#000000" stroke-width="2" stroke-linecap="square" stroke-miterlimit="10" d="  M284.75,438.89c0.009,30.198-36.022,30.199-36,0C248.772,408.788,284.493,408.824,284.75,438.89z"/>
<path fill-rule="evenodd" clip-rule="evenodd" fill="#AF8977" stroke="#000000" stroke-width="2" stroke-linecap="square" stroke-miterlimit="10" d="  M354.5,387.89c0.514,30.046-35.038,29.909-35.25,0C319.035,357.612,355.212,357.483,354.5,387.89z"/>
<path fill-rule="evenodd" clip-rule="evenodd" fill="#AF8977" stroke="#000000" stroke-width="2" stroke-linecap="square" stroke-miterlimit="10" d="  M504.5,391.64c-0.882,29.887-35.978,30.314-36,0C468.478,361.362,503.93,361.794,504.5,391.64z"/>
<path fill-rule="evenodd" clip-rule="evenodd" fill="#AF8977" stroke="#000000" stroke-width="2" stroke-linecap="square" stroke-miterlimit="10" d="  M425.75,430.64c0.709,30.289-35.25,30.097-35.25,0S426.459,400.351,425.75,430.64z"/>
<path fill-rule="evenodd" clip-rule="evenodd" fill="#AF8977" stroke="#000000" stroke-width="2" stroke-linecap="square" stroke-miterlimit="10" d="  M572.75,438.89c0.711,30.336-35.304,30.13-35.25,0C537.554,408.803,573.126,408.663,572.75,438.89z"/>
</svg>