<svg xmlns="http://www.w3.org/2000/svg" xmlns:xlink="http://www.w3.org/1999/xlink" version="1.1" id="Layer_1" x="0px" y="0px" enable-background="new 0 0 822.05 841.89" xml:space="preserve" viewBox="221.12 259.77 380.92 323.18">
<path fill-rule="evenodd" clip-rule="evenodd" fill="#95979D" stroke="#000000" stroke-width="2" stroke-linecap="square" stroke-miterlimit="10" d="  M228.871,318.704c5.939-22.88,18.494-42.774,39.375-54.375c22.727-12.626,22.208,11.826,41.625,19.875  c21.171,8.777,48.334,2.75,71.625,13.5c27.676,12.773,62.212,49.46,53.627,82.5c-30.193-24.407-32.565-58.933-76.502-74.625  c-28.268-10.096,7.26,20.83,12.375,25.5c18.025,16.458,50.021,41.45,42.377,69.375c-25.739-16.666-47.319-83.372-88.502-78  c-22.405,2.922,20.883,30.923,29.25,39c16.58,16.004,43.557,36.021,38.25,62.25c-25.638-25.183-50.432-63.935-85.875-79.125  c-22.876-9.804-2.412,14.383,3.687,20.695c17.905,18.529,63.817,50.462,62.688,79.43c-18.204-12.651-66.511-80.521-86.25-75  c-16.002,4.476,17.15,31.036,23.32,37.453c18.461,19.199,35.368,36.285,44.93,61.547c-29.013-12.892-60.966-43.349-80.625-68.625  C254.521,374.717,257.999,337.807,228.871,318.704z"/>
<path fill-rule="evenodd" clip-rule="evenodd" fill="#95979D" stroke="#000000" stroke-width="2" stroke-linecap="square" stroke-miterlimit="10" d="  M222.121,408.704c5.468-21.065,18.513-44.728,39.375-54c23.4-10.4,21.76,11.191,41.625,19.5c19.764,8.266,45.165,1.239,66.75,11.25  c29.159,13.524,67.733,49.222,58.502,84.75c-12.354-8.857-15.555-27.646-26.252-40.125c-13.919-16.239-30.021-26.114-49.875-33.75  c-28.352-10.904,6.612,20.44,12,25.125c18.582,16.158,49.784,41.767,42.375,69.75c-30.135-21.894-42.234-70.289-86.25-77.625  c-29.079-4.847,18.165,30.399,23.602,35.461c18.439,17.168,46.482,36.983,41.648,65.414c-25.224-26.838-51.176-62.713-85.5-79.875  c-23.273-11.637-1.738,16.105,3.481,21.444c18.33,18.751,63.111,49.338,63.269,78.681c-19.852-11.189-66.938-80.427-87-74.25  c-15.317,4.716,16.892,30.018,23.32,36.703c18.461,19.199,35.368,36.285,44.93,61.547c-28.375-9.928-62.14-44.108-80.625-67.875  C247.522,465.148,250.773,429.089,222.121,408.704z"/>
<path fill-rule="evenodd" clip-rule="evenodd" fill="#95979D" stroke="#000000" stroke-width="2" stroke-linecap="square" stroke-miterlimit="10" d="  M392.371,326.954c5.93-20.596,18.784-44.848,39.377-54c27.171-12.076,19.207,15.017,43.5,19.875  c44.532,8.906,142.377,22.497,123.375,95.625c-27.738-24.087-32.165-61.797-75.75-74.25c-29.543-8.441,6.183,19.572,12,25.125  c17.988,17.171,49.724,41.782,42,70.125c-22.627-18.765-48.97-84.173-87.75-78c-22.024,3.506,15.176,26.152,25.219,35.836  c18.283,17.63,46.431,36.592,41.531,65.414c-24.575-27.713-50.944-62.597-85.5-79.875c-23-11.5-0.536,16.57,4.062,21.275  c18.827,19.265,62.133,48.823,62.688,78.85c-23.442-13.734-60.234-77.435-87-74.25c-15.848,1.885,19.638,32.388,23.953,36.703  c17.893,17.893,36.63,37.223,45.047,61.547c-27.257-8.888-64.724-44.462-81.375-68.25  C419.465,382.585,421.053,346.092,392.371,326.954z"/>
<path fill-rule="evenodd" clip-rule="evenodd" fill="#95979D" stroke="#000000" stroke-width="2" stroke-linecap="square" stroke-miterlimit="10" d="  M354.121,431.954c6.664-23.145,19.459-41.693,39.75-54.375c21.638-13.524,23.17,12.107,41.252,19.875  c19.593,8.417,45.626,0.718,67.5,11.25c29.028,13.977,67.051,48.955,57.75,84.75c-29.06-25.846-32.086-59.03-75.75-74.625  c-28.854-10.305,7.044,20.77,12,25.5c18.735,17.884,48.745,40.828,42.75,70.125c-23.632-18.285-49.088-84.47-88.5-78.75  c-22.759,3.303,17.212,28.207,25.852,35.953c18.335,16.438,45.552,38.674,40.898,66.047c-23.859-28.696-51.046-62.648-85.5-79.875  c-22.577-11.288-1.037,15.418,4.062,20.694c17.905,18.53,63.817,50.463,62.688,79.431c-18.892-11.541-67.847-80.699-86.25-75  c-16.549,5.124,16.971,31.221,23.203,37.453c18.155,18.155,36.486,36.808,45.047,61.547c-28.816-12.119-62.125-43.872-81.377-68.625  C380.02,488.288,384.361,449.592,354.121,431.954z"/>
</svg>