<svg xmlns="http://www.w3.org/2000/svg" xmlns:xlink="http://www.w3.org/1999/xlink" version="1.1" id="Layer_1" x="0px" y="0px" enable-background="new 0 0 822.05 841.89" xml:space="preserve" viewBox="209.08 281.72 410.56 283.1">
<path fill-rule="evenodd" clip-rule="evenodd" fill="#7E7F80" stroke="#000000" stroke-width="2" stroke-linecap="square" stroke-miterlimit="10" d="  M259.1,293.969c40.327,13.426,67.191,41.343,103.639,61.389c36.753,20.214,80.064,26.407,118.586,43.917  c30.279,13.764,188.466,102.116,120.527,153.069c-58.854,44.141-183.789-51.394-236.808-77.902  c-23.694-11.848-48.783-22.844-74.444-29.723c-17.333-4.646-46.302-3.61-60.75-15.75C201.019,404.745,247.926,326.691,259.1,293.969  z"/>
<path fill-rule="evenodd" clip-rule="evenodd" fill="#CDC7B8" stroke="#000000" stroke-width="2" stroke-linecap="square" stroke-miterlimit="10" d="  M221.6,413.969c34.468,13.226,117.23,24.366,140.625-14.625c24.173-40.288-79.619-95.535-103.125-105.375  C246.6,333.969,234.1,373.969,221.6,413.969z"/>
<path fill-rule="evenodd" clip-rule="evenodd" fill="#BCBEC0" stroke="#000000" stroke-width="2" stroke-linecap="square" stroke-miterlimit="10" d="  M259.1,293.969c-3.951-4.688-11.388-7.764-16.5-11.25c-13.121,40.701-50.18,98.827-22.5,135.75  C233.1,376.969,246.1,335.469,259.1,293.969z"/>
<path fill-rule="evenodd" clip-rule="evenodd" fill="#FFDB78" stroke="#000000" stroke-width="2" stroke-linecap="square" stroke-miterlimit="10" d="  M492.352,448.469c-13.499,22.013-60.335,7.436-50.25-18.75C452.174,403.567,496.608,423.081,492.352,448.469z"/>
</svg>