<svg xmlns="http://www.w3.org/2000/svg" xmlns:xlink="http://www.w3.org/1999/xlink" version="1.1" id="Layer_1" x="0px" y="0px" enable-background="new 0 0 822.05 841.89" xml:space="preserve" viewBox="204.39 302.64 411.62 236.75">
<path fill-rule="evenodd" clip-rule="evenodd" fill="#78583B" stroke="#000000" stroke-width="2" stroke-linecap="square" stroke-miterlimit="10" d="  M261.015,458.89c-5.155,30.382,79.342,41.469,100.019,48.166c28.936,9.372,68.483,31.334,99.481,31.334  c22.418,0,48.224-39.224,61.792-52.792c21.233-21.233,92.384-69.954,92.708-101.708c-24.557,19.834-49.112,39.668-73.669,59.502  c-19.408,15.676-57.568,61.335-82.331,66.498c-24.407,5.089-75.204-19.371-99-25.5C327.015,475.89,294.015,467.39,261.015,458.89z"/>
<path fill-rule="evenodd" clip-rule="evenodd" fill="#B78555" stroke="#000000" stroke-width="2" stroke-linecap="square" stroke-miterlimit="10" d="  M268.515,447.64c38.887-25.142,77.775-50.282,116.662-75.423c16.144-10.438,41.067-34.827,62.213-34.827  c38.829,0,82.94,18.034,120.609,26.622c7.207,1.643,58.049,7.072,43.191,21.364c-37.018,35.609-74.035,71.219-111.053,106.829  c-21.741,20.913-26.3,29.615-56.123,24.436c-41.843-7.267-84.376-26.45-124.793-39.126  C307.571,473.86,245.378,464.834,268.515,447.64z"/>
<path fill-rule="evenodd" clip-rule="evenodd" fill="#EDE2D6" stroke="#000000" stroke-width="2" stroke-linecap="square" stroke-miterlimit="10" d="  M481.515,353.89c6.197,1.351,81.808,17.67,50.625,22.125C519.599,377.807,453.083,369.428,481.515,353.89z"/>
<path fill-rule="evenodd" clip-rule="evenodd" fill="#78583B" stroke="#000000" stroke-width="2" stroke-linecap="square" stroke-miterlimit="10" d="  M244.515,458.89c-5.003,30.857,83.845,43.035,105.123,49.955c27.612,8.979,64.718,29.545,94.377,29.545  c22.379,0,48.105-39.279,61.544-52.792c22.563-22.688,89.959-68.263,92.956-101.708c-24.557,19.834-49.112,39.668-73.669,59.502  c-19.408,15.676-57.568,61.335-82.331,66.498c-24.407,5.089-75.204-19.371-99-25.5C310.515,475.89,277.515,467.39,244.515,458.89z"/>
<path fill-rule="evenodd" clip-rule="evenodd" fill="#B78555" stroke="#000000" stroke-width="2" stroke-linecap="square" stroke-miterlimit="10" d="  M252.015,447.64c38.887-25.142,77.775-50.282,116.662-75.423c16.107-10.413,40.871-34.827,61.838-34.827  c38.819,0,82.768,17.999,120.396,26.622c3.074,0.705,56.72,8.917,45.508,19.702c-35.416,34.068-70.832,68.137-106.248,102.206  c-23.916,23.006-30.494,36.47-63.405,30.72c-41.683-7.283-84.03-26.444-124.281-39.126  C290.973,473.887,228.407,464.595,252.015,447.64z"/>
<path fill-rule="evenodd" clip-rule="evenodd" fill="#EDE2D6" stroke="#000000" stroke-width="2" stroke-linecap="square" stroke-miterlimit="10" d="  M465.015,353.89c5.853,1.292,81.016,17.784,50.625,22.125C503.093,377.808,435.719,368.918,465.015,353.89z"/>
<path fill-rule="evenodd" clip-rule="evenodd" fill="#78583B" stroke="#000000" stroke-width="2" stroke-linecap="square" stroke-miterlimit="10" d="  M259.515,425.14c-5.146,30.384,79.331,41.777,100.019,48.562c29.418,9.647,67.749,30.938,99.481,30.938  c22.418,0,48.224-39.224,61.792-52.792c21.233-21.233,92.384-69.954,92.708-101.708c-24.438,19.952-48.876,39.904-73.314,59.856  c-19.236,15.706-57.296,61.702-81.936,66.894c-24.361,5.134-75.634-19.693-99.375-25.875  C325.765,442.39,292.64,433.765,259.515,425.14z"/>
<path fill-rule="evenodd" clip-rule="evenodd" fill="#B78555" stroke="#000000" stroke-width="2" stroke-linecap="square" stroke-miterlimit="10" d="  M267.765,413.89c38.707-25.141,77.413-50.282,116.12-75.423c16.09-10.451,40.893-34.827,62.005-34.827  c38.829,0,82.94,18.034,120.609,26.622c7.219,1.646,58.836,7.067,43.204,22.101c-36.816,35.408-73.633,70.817-110.449,106.225  c-21.744,20.912-26.816,29.514-56.739,24.302c-41.847-7.288-84.368-26.447-124.793-39.126  C306.582,440.27,243.127,430.672,267.765,413.89z"/>
<path fill-rule="evenodd" clip-rule="evenodd" fill="#EDE2D6" stroke="#000000" stroke-width="2" stroke-linecap="square" stroke-miterlimit="10" d="  M480.015,320.14c11.056,2.551,72.556,7.464,53.25,21.75C525.514,347.626,450.258,336.604,480.015,320.14z"/>
<path fill-rule="evenodd" clip-rule="evenodd" fill="#78583B" stroke="#000000" stroke-width="2" stroke-linecap="square" stroke-miterlimit="10" d="  M205.515,440.89c-3.749,30.6,79.325,41.631,100.373,48.562c29.14,9.595,68.559,31.688,99.877,31.688  c22.417,0,48.464-39.639,61.544-52.792c22.563-22.688,89.959-68.263,92.956-101.708c-24.557,19.834-49.112,39.668-73.669,59.502  c-19.395,15.665-57.583,61.353-82.331,66.498c-24.457,5.085-75.552-19.672-99.375-25.875  C271.765,458.14,238.64,449.515,205.515,440.89z"/>
<path fill-rule="evenodd" clip-rule="evenodd" fill="#B78555" stroke="#000000" stroke-width="2" stroke-linecap="square" stroke-miterlimit="10" d="  M213.765,429.64c38.887-24.96,77.775-49.92,116.662-74.881c15.336-9.844,41.632-35.369,61.838-35.369  c38.232,0,83.215,18.851,120.396,27.372c2.71,0.621,56.908,8.794,45.508,19.699c-35.416,33.876-70.832,67.752-106.248,101.628  c-23.219,22.209-31.092,37.272-63.405,31.301c-41.437-7.658-84.027-26.864-124.28-39.363  C252.702,456.446,190.113,447.727,213.765,429.64z"/>
<path fill-rule="evenodd" clip-rule="evenodd" fill="#EDE2D6" stroke="#000000" stroke-width="2" stroke-linecap="square" stroke-miterlimit="10" d="  M426.765,336.64c6.012,1.327,81.257,16.957,50.25,22.125C465.104,360.75,395.821,351.706,426.765,336.64z"/>
</svg>