<svg xmlns="http://www.w3.org/2000/svg" xmlns:xlink="http://www.w3.org/1999/xlink" version="1.1" id="Layer_1" x="0px" y="0px" enable-background="new 0 0 822.05 841.89" xml:space="preserve" viewBox="216.34 271.97 388.29 300.04">
<path fill-rule="evenodd" clip-rule="evenodd" fill="#B1B3C2" stroke="#000000" stroke-width="2" stroke-linecap="square" stroke-miterlimit="10" d="  M281.651,331.407c-29.909,3.417-12.228-65.793,22.5-57.75c29.635,6.864,44.198,72.596-4.5,53.25  c27.911,3.702,23.415-41.782,2.25-45.75c-26.354-4.94-33.439,44.467-6.75,46.5C290.908,329.99,286.465,331.069,281.651,331.407z"/>
<path fill-rule="evenodd" clip-rule="evenodd" fill="#B1B3C2" stroke="#000000" stroke-width="2" stroke-linecap="square" stroke-miterlimit="10" d="  M273.401,334.407c-38.774,59.391-41.79,155.892-56.052,223.312c-0.772,3.65,77.148,13.798,87.177,11.062  c17.613-4.804,41.175,0.476,56.625-6.375c5.15-2.283,18.81-1.344,17.376-9.588c-3.843-22.099-7.816-44.148-12.126-66.162  c-7.708-39.368-15.228-79.592-27.75-117.75C325.943,330.182,315.276,325.101,273.401,334.407z"/>
<path fill-rule="evenodd" clip-rule="evenodd" fill="#F5F4F7" stroke="#000000" stroke-width="2" stroke-linecap="square" stroke-miterlimit="10" d="  M296.651,331.407c-4.153,49.84-8.307,99.681-12.46,149.521c-2.229,26.749-21.927,81.553,8.71,88.979  c46.195,11.198,20.869-66.764,18.606-89.459C306.556,430.768,301.604,381.087,296.651,331.407z"/>
<path fill-rule="evenodd" clip-rule="evenodd" fill="#B1B3C2" d="M260.651,418.407l-33,141.75L260.651,418.407z"/>
<line fill="none" stroke="#000000" stroke-width="2" stroke-linecap="square" stroke-miterlimit="10" x1="260.651" y1="418.407" x2="227.651" y2="560.157"/>
<path fill-rule="evenodd" clip-rule="evenodd" fill="#B1B3C2" d="M269.651,415.407l-25.5,145.5L269.651,415.407z"/>
<line fill="none" stroke="#000000" stroke-width="2" stroke-linecap="square" stroke-miterlimit="10" x1="269.651" y1="415.407" x2="244.151" y2="560.907"/>
<path fill-rule="evenodd" clip-rule="evenodd" fill="#B1B3C2" d="M326.651,413.907l27,147L326.651,413.907z"/>
<line fill="none" stroke="#000000" stroke-width="2" stroke-linecap="square" stroke-miterlimit="10" x1="326.651" y1="413.907" x2="353.651" y2="560.907"/>
<path fill-rule="evenodd" clip-rule="evenodd" fill="#B1B3C2" d="M337.151,418.407l32.25,141L337.151,418.407z"/>
<line fill="none" stroke="#000000" stroke-width="2" stroke-linecap="square" stroke-miterlimit="10" x1="337.151" y1="418.407" x2="369.401" y2="559.407"/>
<path fill-rule="evenodd" clip-rule="evenodd" fill="#B1B3C2" d="M282.401,334.407c-2.442,5.302-5.116,10.14-6.75,15.75  C277.901,344.908,280.086,339.627,282.401,334.407z"/>
<path fill="none" stroke="#000000" stroke-width="2" stroke-linecap="square" stroke-miterlimit="10" d="M282.401,334.407  c-2.872,4.956-5.156,10.28-6.75,15.75"/>
<path fill-rule="evenodd" clip-rule="evenodd" fill="#B1B3C2" d="M290.651,332.907c-2.797,8.553-5.417,16.77-5.25,25.5  C287.142,349.955,289.448,341.448,290.651,332.907z"/>
<path fill="none" stroke="#000000" stroke-width="2" stroke-linecap="square" stroke-miterlimit="10" d="M290.651,332.907  c-3.5,7.986-5.409,17.156-5.25,25.5"/>
<path fill-rule="evenodd" clip-rule="evenodd" fill="#B1B3C2" d="M306.401,332.157c2.508,7.705,4.925,15.286,6,23.25  C310.403,347.665,308.186,339.95,306.401,332.157z"/>
<path fill="none" stroke="#000000" stroke-width="2" stroke-linecap="square" stroke-miterlimit="10" d="M306.401,332.157  c2.884,7.459,4.94,15.402,6,23.25"/>
<path fill-rule="evenodd" clip-rule="evenodd" fill="#B1B3C2" d="M313.901,331.407c1.908,5.125,4.353,8.613,4.5,14.25  C316.905,340.919,315.634,336.062,313.901,331.407z"/>
<path fill="none" stroke="#000000" stroke-width="2" stroke-linecap="square" stroke-miterlimit="10" d="M313.901,331.407  c2.798,4.282,4.368,9.209,4.5,14.25"/>
<path fill-rule="evenodd" clip-rule="evenodd" fill="#B1B3C2" stroke="#000000" stroke-width="2" stroke-linecap="square" stroke-miterlimit="10" d="  M390.401,331.407c-30.601,3.637-12.095-66.064,22.502-57.75c29.485,7.086,44.178,72.999-4.502,53.25  c27.629,3.808,23.17-41.827,2.252-45.75c-26.379-4.947-33.638,44.623-6.752,46.5C399.63,329.806,395.148,331.027,390.401,331.407z"/>
<path fill-rule="evenodd" clip-rule="evenodd" fill="#B1B3C2" stroke="#000000" stroke-width="2" stroke-linecap="square" stroke-miterlimit="10" d="  M382.151,334.407c-39.07,59.844-42.026,155.446-56.056,223.312c-0.761,3.683,77.186,13.788,87.182,11.062  c17.4-4.744,40.584,0.382,55.876-6.375c5.361-2.369,19.604-1.092,18.126-9.588c-3.843-22.099-7.816-44.148-12.126-66.162  c-7.709-39.377-15.257-79.576-27.75-117.75C434.828,330.48,423.089,325.31,382.151,334.407z"/>
<path fill-rule="evenodd" clip-rule="evenodd" fill="#F5F4F7" stroke="#000000" stroke-width="2" stroke-linecap="square" stroke-miterlimit="10" d="  M405.401,331.407c-4.153,49.84-8.307,99.681-12.46,149.521c-2.229,26.75-21.927,81.552,8.71,88.979  c46.197,11.201,20.87-66.763,18.607-89.459C415.307,430.768,410.354,381.087,405.401,331.407z"/>
<path fill-rule="evenodd" clip-rule="evenodd" fill="#B1B3C2" d="M369.401,418.407l-33,141.75L369.401,418.407z"/>
<line fill="none" stroke="#000000" stroke-width="2" stroke-linecap="square" stroke-miterlimit="10" x1="369.401" y1="418.407" x2="336.401" y2="560.157"/>
<path fill-rule="evenodd" clip-rule="evenodd" fill="#B1B3C2" d="M377.651,415.407l-24.75,145.5L377.651,415.407z"/>
<line fill="none" stroke="#000000" stroke-width="2" stroke-linecap="square" stroke-miterlimit="10" x1="377.651" y1="415.407" x2="352.901" y2="560.907"/>
<path fill-rule="evenodd" clip-rule="evenodd" fill="#B1B3C2" d="M434.653,413.907l27.75,147L434.653,413.907z"/>
<line fill="none" stroke="#000000" stroke-width="2" stroke-linecap="square" stroke-miterlimit="10" x1="434.653" y1="413.907" x2="462.403" y2="560.907"/>
<path fill-rule="evenodd" clip-rule="evenodd" fill="#B1B3C2" d="M445.153,418.407l33,141L445.153,418.407z"/>
<line fill="none" stroke="#000000" stroke-width="2" stroke-linecap="square" stroke-miterlimit="10" x1="445.153" y1="418.407" x2="478.153" y2="559.407"/>
<path fill-rule="evenodd" clip-rule="evenodd" fill="#B1B3C2" d="M391.151,334.407c-2.442,5.302-5.116,10.14-6.75,15.75  C386.651,344.908,388.836,339.627,391.151,334.407z"/>
<path fill="none" stroke="#000000" stroke-width="2" stroke-linecap="square" stroke-miterlimit="10" d="M391.151,334.407  c-2.872,4.956-5.156,10.28-6.75,15.75"/>
<path fill-rule="evenodd" clip-rule="evenodd" fill="#B1B3C2" d="M399.401,332.907c-3.067,8.687-5.822,16.534-5.25,25.5  C395.892,349.955,398.198,341.448,399.401,332.907z"/>
<path fill="none" stroke="#000000" stroke-width="2" stroke-linecap="square" stroke-miterlimit="10" d="M399.401,332.907  c-3.852,7.916-5.787,17.078-5.25,25.5"/>
<path fill-rule="evenodd" clip-rule="evenodd" fill="#B1B3C2" d="M415.153,332.157c2.508,7.705,4.925,15.286,6,23.25  C419.155,347.665,416.938,339.95,415.153,332.157z"/>
<path fill="none" stroke="#000000" stroke-width="2" stroke-linecap="square" stroke-miterlimit="10" d="M415.153,332.157  c2.884,7.459,4.94,15.402,6,23.25"/>
<path fill-rule="evenodd" clip-rule="evenodd" fill="#B1B3C2" d="M422.653,331.407c1.907,5.125,4.353,8.613,4.5,14.25  C425.657,340.919,424.386,336.062,422.653,331.407z"/>
<path fill="none" stroke="#000000" stroke-width="2" stroke-linecap="square" stroke-miterlimit="10" d="M422.653,331.407  c2.798,4.282,4.368,9.209,4.5,14.25"/>
<path fill-rule="evenodd" clip-rule="evenodd" fill="#B1B3C2" stroke="#000000" stroke-width="2" stroke-linecap="square" stroke-miterlimit="10" d="  M507.403,331.407c-30.281,5.154-13.495-63.624,19.5-58.125c30.639,5.106,47.708,74.533-1.5,53.625  c27.972,4.016,22.19-42.494,1.5-45.75c-25.877-4.072-33.286,44.362-6.75,46.5C516.162,330.026,512.005,331.102,507.403,331.407z"/>
<path fill-rule="evenodd" clip-rule="evenodd" fill="#B1B3C2" stroke="#000000" stroke-width="2" stroke-linecap="square" stroke-miterlimit="10" d="  M499.153,334.407c-40.583,54.123-42.396,157.232-55.499,220.616c-1.755,8.491,73.906,17.462,86.249,13.759  c17.56-5.268,40.554,0.482,56.25-6.375c5.208-2.275,18.821-1.275,17.376-9.588c-3.843-22.099-7.816-44.148-12.126-66.162  c-7.667-39.158-14.206-79.851-27-117.75C551.478,330.62,540.015,325.326,499.153,334.407z"/>
<path fill-rule="evenodd" clip-rule="evenodd" fill="#F5F4F7" stroke="#000000" stroke-width="2" stroke-linecap="square" stroke-miterlimit="10" d="  M522.403,331.407c-4.313,49.84-8.626,99.681-12.939,149.521c-2.312,26.726-22.167,81.541,8.439,88.979  c46.133,11.211,21.067-66.753,18.877-89.459C531.988,430.768,527.195,381.087,522.403,331.407z"/>
<path fill-rule="evenodd" clip-rule="evenodd" fill="#B1B3C2" d="M486.403,418.407l-33,141.75L486.403,418.407z"/>
<line fill="none" stroke="#000000" stroke-width="2" stroke-linecap="square" stroke-miterlimit="10" x1="486.403" y1="418.407" x2="453.403" y2="560.157"/>
<path fill-rule="evenodd" clip-rule="evenodd" fill="#B1B3C2" d="M494.653,415.407l-24.75,145.5L494.653,415.407z"/>
<line fill="none" stroke="#000000" stroke-width="2" stroke-linecap="square" stroke-miterlimit="10" x1="494.653" y1="415.407" x2="469.903" y2="560.907"/>
<path fill-rule="evenodd" clip-rule="evenodd" fill="#B1B3C2" d="M551.653,413.907l27.75,147L551.653,413.907z"/>
<line fill="none" stroke="#000000" stroke-width="2" stroke-linecap="square" stroke-miterlimit="10" x1="551.653" y1="413.907" x2="579.403" y2="560.907"/>
<path fill-rule="evenodd" clip-rule="evenodd" fill="#B1B3C2" d="M562.153,418.407l32.25,141L562.153,418.407z"/>
<line fill="none" stroke="#000000" stroke-width="2" stroke-linecap="square" stroke-miterlimit="10" x1="562.153" y1="418.407" x2="594.403" y2="559.407"/>
<path fill-rule="evenodd" clip-rule="evenodd" fill="#B1B3C2" d="M507.403,334.407c-2.201,5.293-4.238,10.594-6.75,15.75  C502.903,344.907,505.18,339.667,507.403,334.407z"/>
<path fill="none" stroke="#000000" stroke-width="2" stroke-linecap="square" stroke-miterlimit="10" d="M507.403,334.407  c-1.994,5.355-4.249,10.617-6.75,15.75"/>
<path fill-rule="evenodd" clip-rule="evenodd" fill="#B1B3C2" d="M515.653,332.907c-2.399,8.537-4.667,16.72-5.25,25.5  C512.152,349.914,514.11,341.439,515.653,332.907z"/>
<path fill="none" stroke="#000000" stroke-width="2" stroke-linecap="square" stroke-miterlimit="10" d="M515.653,332.907  c-2.883,8.222-4.68,16.908-5.25,25.5"/>
<path fill-rule="evenodd" clip-rule="evenodd" fill="#B1B3C2" d="M531.403,332.157c2.508,7.705,4.925,15.286,6,23.25  C535.405,347.665,533.188,339.95,531.403,332.157z"/>
<path fill="none" stroke="#000000" stroke-width="2" stroke-linecap="square" stroke-miterlimit="10" d="M531.403,332.157  c2.884,7.459,4.94,15.402,6,23.25"/>
<path fill-rule="evenodd" clip-rule="evenodd" fill="#B1B3C2" d="M539.653,331.407c1.577,4.77,3.368,9.332,4.5,14.25  C542.653,340.908,541.217,336.135,539.653,331.407z"/>
<path fill="none" stroke="#000000" stroke-width="2" stroke-linecap="square" stroke-miterlimit="10" d="M539.653,331.407  c1.877,4.625,3.381,9.385,4.5,14.25"/>
</svg>