<svg xmlns="http://www.w3.org/2000/svg" xmlns:xlink="http://www.w3.org/1999/xlink" version="1.1" id="Layer_1" x="0px" y="0px" enable-background="new 0 0 822.05 841.89" xml:space="preserve" viewBox="309.07 360.47 196.99 124.34">
<path fill-rule="evenodd" clip-rule="evenodd" fill="#EDEDED" stroke="#000000" stroke-linecap="square" stroke-miterlimit="10" d="  M409.75,444.89c58.029,39.147,72.714-56.943,32.25-46.5c24.329-23.769-59.364-63.644-69.75-12.75  c-36.513-21.71-86.14,21.809-50.25,37.5C298.814,467.539,391.052,455.371,409.75,444.89z"/>
<path fill-rule="evenodd" clip-rule="evenodd" fill="#EDEDED" stroke="#000000" stroke-linecap="square" stroke-miterlimit="10" d="  M455.5,432.89c-15.369-28.477-60.415-5.748-39.375,19.5c4.972,5.966-14.289,16.633,2.625,28.5c11.203,7.86,26.052,1.179,32.25-9.75  c6.997,6.454,16.231,9.185,25.5,6.75c7.659-2.012,7.903-7.677,12.75-11.25c-3.201,2.36,14.19-15.122,13.5-13.5  C515.502,423.195,482.31,418.945,455.5,432.89z"/>
</svg>