<svg xmlns="http://www.w3.org/2000/svg" xmlns:xlink="http://www.w3.org/1999/xlink" version="1.1" id="Layer_1" x="0px" y="0px" enable-background="new 0 0 822.05 841.89" xml:space="preserve" viewBox="245.27 281.55 330.74 278.23">
<path fill-rule="evenodd" clip-rule="evenodd" fill="#4A4B4C" d="M343.308,282.55c-22.396,19.286-75.183,48.42-82.988,77.038  c-2.903,10.645-17.588,41.611-13.261,51.621c10.402,24.064,20.804,48.128,31.206,72.192c3.076,7.115,12.082,40.76,19.872,43.338  c25.298,8.372,50.596,16.744,75.894,25.116c41.03,13.578,80.889,3.708,123.795-0.464c15.006-1.459,22.109-0.719,33.091-11.7  c7.337-7.337,44.598-35.211,44.087-45.207c-2.411-47.273-4.823-94.546-7.235-141.818  C566.732,332.381,371.906,290.967,343.308,282.55z"/>
<path fill="none" stroke="#000000" stroke-width="2" stroke-linecap="square" stroke-miterlimit="10" d="M343.308,282.55  c-22.396,19.286-75.183,48.42-82.988,77.038c-2.903,10.645-17.588,41.611-13.261,51.621c10.402,24.064,20.804,48.128,31.206,72.192  c3.076,7.115,12.082,40.76,19.872,43.338c25.298,8.372,50.596,16.744,75.894,25.116c41.03,13.578,80.889,3.708,123.795-0.464  c15.006-1.459,22.109-0.719,33.091-11.7c7.337-7.337,44.598-35.211,44.087-45.207c-2.411-47.273-4.823-94.546-7.235-141.818  C566.732,332.381,371.906,290.967,343.308,282.55"/>
</svg>