<svg xmlns="http://www.w3.org/2000/svg" xmlns:xlink="http://www.w3.org/1999/xlink" version="1.1" id="Layer_1" x="0px" y="0px" enable-background="new 0 0 822.05 841.89" xml:space="preserve" viewBox="213.13 288.89 398.65 261.4">
<path fill-rule="evenodd" clip-rule="evenodd" fill="#4A4B4C" stroke="#000000" stroke-width="2" stroke-linecap="square" stroke-miterlimit="10" d="  M214.135,388.89c6.771-22.052,23.81-27.526,42.426-24.348c21.325,3.641,26.296,39.562,34.001,58.342  c6.464,15.755-31.585,38.724-45.677,32.006C233.079,449.261,220.083,401.659,214.135,388.89z"/>
<path fill-rule="evenodd" clip-rule="evenodd" fill="#4A4B4C" stroke="#000000" stroke-width="2" stroke-linecap="square" stroke-miterlimit="10" d="  M270.385,298.89c-1.386,38.819-0.526,53.451,45,59.25c13.219,1.684,77.908-2.131,85.972-12.5  c17.872-22.977-16.453-55.75-40.972-55.75C330.639,289.89,300.033,295.925,270.385,298.89z"/>
<path fill-rule="evenodd" clip-rule="evenodd" fill="#4A4B4C" stroke="#000000" stroke-width="2" stroke-linecap="square" stroke-miterlimit="10" d="  M298.885,438.39c-20.513,29.538-18.316,27.569,3.472,56.167c4.627,6.072,52.366,32.695,61.028,30.833  c21.686-4.661,18.826-43.524,2.667-53.527C344.929,458.787,321.144,449.52,298.885,438.39z"/>
<path fill-rule="evenodd" clip-rule="evenodd" fill="#4A4B4C" stroke="#000000" stroke-width="2" stroke-linecap="square" stroke-miterlimit="10" d="  M250.885,460.89c-25.258,22.287-33.766,34.321-4.125,57.375c23.144,18.001,37.25,47.156,63.375,19.875  C344.975,501.758,295.191,434.124,250.885,460.89z"/>
<path fill-rule="evenodd" clip-rule="evenodd" fill="#4A4B4C" stroke="#000000" stroke-width="2" stroke-linecap="square" stroke-miterlimit="10" d="  M385.135,357.39c-1.26,27.722-12.114,65.406,30.695,49.639c20.703-7.625,34.939-41.841,38.921-63.241  c6.198-33.317-11.173-49.87-45.239-46.773C380.695,299.634,388.085,333.131,385.135,357.39z"/>
<path fill-rule="evenodd" clip-rule="evenodd" fill="#4A4B4C" stroke="#000000" stroke-width="2" stroke-linecap="square" stroke-miterlimit="10" d="  M451.139,484.14c-20.107,18.055-55.384,37.792-14.306,57.25c20.252,9.593,54.265-3.548,72.823-15.586  c28.864-18.723,28.493-42.885,2.607-65.664C490.685,441.151,470.579,469.884,451.139,484.14z"/>
<path fill-rule="evenodd" clip-rule="evenodd" fill="#4A4B4C" d="M313.135,362.64c-31.018,26.827-36.761,34.833-20.222,72.944  c9.734,22.432,54.818,27.915,76.472,18.556c29.941-12.94,21.629-38.204,20.375-66.216  C389.342,378.612,324.395,365.952,313.135,362.64z"/>
<path fill="none" stroke="#000000" stroke-width="2" stroke-linecap="square" stroke-miterlimit="10" d="M313.135,362.64  c-31.018,26.827-36.761,34.833-20.222,72.944c9.734,22.432,54.818,27.915,76.472,18.556c29.941-12.94,21.629-38.204,20.375-66.216  C389.342,378.612,324.395,365.952,313.135,362.64"/>
<path fill-rule="evenodd" clip-rule="evenodd" fill="#4A4B4C" stroke="#000000" stroke-width="2" stroke-linecap="square" stroke-miterlimit="10" d="  M360.385,505.14c8.928-34.225,16.325-56.025,35.749-85.423c8.289-12.545,18.62-9.551,33.628-10.952  c25.639-2.393,27.426-8.004,30.783,17.743c3.955,30.32,9.989,68.518-23.281,79.382C416.158,512.782,364.871,537.408,360.385,505.14z  "/>
<path fill-rule="evenodd" clip-rule="evenodd" fill="#4A4B4C" stroke="#000000" stroke-width="2" stroke-linecap="square" stroke-miterlimit="10" d="  M454.889,339.39c2.734-5.272,8.759-9.789,12.75-14.25c29.184,44.943,43.615,78.935,58.5,130.5c-44.427,9.354-53.562,23.635-66.75-21  C449.227,400.244,451.842,375.522,454.889,339.39z"/>
<path fill-rule="evenodd" clip-rule="evenodd" fill="#4A4B4C" stroke="#000000" stroke-width="2" stroke-linecap="square" stroke-miterlimit="10" d="  M538.889,477.39c-14.231,25.277-2.976,28.884,16.614,44.238c5.095,3.993,48.01,0.37,51.636-4.488c12.382-16.591-9.823-34.141-21-39  C566.988,469.814,559.608,472.728,538.889,477.39z"/>
</svg>