<svg xmlns="http://www.w3.org/2000/svg" xmlns:xlink="http://www.w3.org/1999/xlink" version="1.1" id="Layer_1" x="0px" y="0px" enable-background="new 0 0 822.05 841.89" xml:space="preserve" viewBox="339.88 336.46 141 171.51">
<path fill-rule="evenodd" clip-rule="evenodd" fill="#99330C" stroke="#000000" stroke-width="1.25" stroke-linecap="square" stroke-miterlimit="10" d="  M460.945,496.269c-13.94,12.438-83.19,16.908-95.252,0c-8.984-12.594,0-61.252,0-76.873c0-17.066-12.523-43.642-6.75-59.625  c9.306-25.763,72.404-28.69,92.252-12C478.99,371.145,460.669,461.212,460.945,496.269z"/>
<path fill-rule="evenodd" clip-rule="evenodd" fill="#99330C" d="M360.443,353.021c-4.159,19.455-38.202,103.915-6,104.248  C395.479,457.694,366.831,372.185,360.443,353.021z"/>
<path fill="none" stroke="#000000" stroke-width="1.25" stroke-linecap="square" stroke-miterlimit="10" d="M360.443,353.021  c-4.24,19.836-30.718,90.714-15,101.998c30.65,22.005,28.94-46.557,30-56.998"/>
<path fill-rule="evenodd" clip-rule="evenodd" fill="#99330C" d="M460.945,355.271c4.005,19.581,36.826,103.597,6,104.998  C425.011,462.176,454.702,373.405,460.945,355.271z"/>
<path fill="none" stroke="#000000" stroke-width="1.25" stroke-linecap="square" stroke-miterlimit="10" d="M460.945,355.271  c4.031,19.707,30.098,91.813,14.25,102.748c-30.219,20.852-28.757-46.275-30-56.998"/>
<path fill-rule="evenodd" clip-rule="evenodd" fill="#99330C" d="M385.193,341.771c23.957,50.189,26.943,107.321,24,161.998  C401.193,449.77,393.193,395.771,385.193,341.771z"/>
<path fill="none" stroke="#000000" stroke-width="1.25" stroke-linecap="square" stroke-miterlimit="10" d="M385.193,341.771  c23.957,50.189,26.943,107.321,24,161.998"/>
<path fill="none" stroke="#000000" stroke-width="1.25" stroke-linecap="square" stroke-miterlimit="10" d="M433.945,343.271  c-32.597-7.996-22.211,142.083-21.752,162.748"/>
<path fill-rule="evenodd" clip-rule="evenodd" d="M403.943,437.769C396.061,438.095,396.216,438.089,403.943,437.769  L403.943,437.769z"/>
<path fill-rule="evenodd" clip-rule="evenodd" d="M404.693,454.269C396.222,454.269,396.222,454.269,404.693,454.269  L404.693,454.269z"/>
<path fill-rule="evenodd" clip-rule="evenodd" d="M403.943,473.769C395.472,473.769,395.472,473.769,403.943,473.769  L403.943,473.769z"/>
<line fill="none" stroke="#000000" stroke-linecap="square" stroke-miterlimit="10" x1="418.195" y1="437.019" x2="424.195" y2="437.019"/>
<line fill="none" stroke="#000000" stroke-linecap="square" stroke-miterlimit="10" x1="417.445" y1="454.269" x2="423.445" y2="454.269"/>
<line fill="none" stroke="#000000" stroke-linecap="square" stroke-miterlimit="10" x1="417.445" y1="473.769" x2="423.445" y2="473.769"/>
<path fill-rule="evenodd" clip-rule="evenodd" fill="#5E1F0A" stroke="#000000" stroke-width="1.25" stroke-linecap="square" stroke-miterlimit="10" d="  M379.943,342.521c9.75,29.75,19.5,59.499,29.25,89.248c3.457-11.332,31.295-86.352,24.752-89.623  C418.352,334.349,395.615,336.416,379.943,342.521z"/>
<path fill-rule="evenodd" clip-rule="evenodd" fill="#CEAB1B" stroke="#000000" stroke-width="1.25" stroke-linecap="square" stroke-miterlimit="10" d="  M406.943,428.019c-6.616-17.367-15.203-35.357-22.5-50.248c-3.374-6.884-18.94-23.932-15-32.25  C384.352,314.048,406.656,418.576,406.943,428.019z"/>
<path fill-rule="evenodd" clip-rule="evenodd" fill="#CEAB1B" stroke="#000000" stroke-width="1.25" stroke-linecap="square" stroke-miterlimit="10" d="  M411.443,426.519c8.922-30.433,22.561-51.488,33.752-80.248C408.522,325.179,410.664,406.228,411.443,426.519z"/>
</svg>