<svg xmlns="http://www.w3.org/2000/svg" xmlns:xlink="http://www.w3.org/1999/xlink" version="1.1" id="Layer_1" x="0px" y="0px" enable-background="new 0 0 822.05 841.89" xml:space="preserve" viewBox="305.37 358.71 211.03 125.79">
<path fill-rule="evenodd" clip-rule="evenodd" fill="#99330C" stroke="#000000" stroke-linecap="square" stroke-miterlimit="10" d="  M391.311,474.644c-10.477,8.396-68.25,14.233-68.25-5.056c0-18.463-12.151-83.899-3-97.696c9.876-14.89,49.159-10.671,62.25-4.125  C405.588,379.406,391.106,452.264,391.311,474.644z"/>
<path fill-rule="evenodd" clip-rule="evenodd" fill="#99330C" d="M320.061,371.892c-3.727,17.329-26.702,68.967-4.5,74.252  C343.857,452.88,323.174,381.455,320.061,371.892z"/>
<path fill="none" stroke="#000000" stroke-linecap="square" stroke-miterlimit="10" d="M320.061,371.892  c-3.183,14.801-22.031,63.777-10.5,72.752c20.826,16.208,20.372-34.349,21-40.502"/>
<path fill-rule="evenodd" clip-rule="evenodd" fill="#99330C" d="M392.061,373.392c2.975,14.718,26.95,75.002,2.625,75.002  C367.082,448.394,387.921,385.534,392.061,373.392z"/>
<path fill="none" stroke="#000000" stroke-linecap="square" stroke-miterlimit="10" d="M392.061,373.392  c2.967,14.681,21.436,64.861,9.75,73.502c-20.434,15.109-20.189-33.876-21-40.502"/>
<path fill-rule="evenodd" clip-rule="evenodd" fill="#99330C" d="M337.311,364.392c16.895,36.555,20.05,76.476,17.25,116.252  C348.811,441.893,343.061,403.143,337.311,364.392z"/>
<path fill="none" stroke="#000000" stroke-linecap="square" stroke-miterlimit="10" d="M337.311,364.392  c16.895,36.555,20.05,76.476,17.25,116.252"/>
<path fill="none" stroke="#000000" stroke-linecap="square" stroke-miterlimit="10" d="M372.561,365.142  c-26.644,0.047-15.526,96.858-15.75,116.252"/>
<path fill-rule="evenodd" clip-rule="evenodd" d="M351.561,432.644C346.37,432.281,345.789,432.24,351.561,432.644L351.561,432.644z  "/>
<path fill-rule="evenodd" clip-rule="evenodd" d="M352.311,445.394c-1.788-0.226-1.647,4.401-5.25,0.75c0-0.75,0-1.5,0-2.25  C351.424,439.784,350.056,445.109,352.311,445.394z"/>
<path fill-rule="evenodd" clip-rule="evenodd" d="M351.561,458.894c-1.788-0.226-1.647,4.401-5.25,0.75c0-0.75,0-1.5,0-2.25  C350.674,453.284,349.306,458.609,351.561,458.894z"/>
<line fill="none" stroke="#000000" stroke-width="0.75" stroke-linecap="square" stroke-miterlimit="10" x1="361.311" y1="431.894" x2="365.811" y2="431.894"/>
<line fill="none" stroke="#000000" stroke-width="0.75" stroke-linecap="square" stroke-miterlimit="10" x1="360.561" y1="444.644" x2="365.061" y2="444.644"/>
<line fill="none" stroke="#000000" stroke-width="0.75" stroke-linecap="square" stroke-miterlimit="10" x1="360.561" y1="458.144" x2="365.061" y2="458.144"/>
<path fill-rule="evenodd" clip-rule="evenodd" fill="#5E1F0A" stroke="#000000" stroke-linecap="square" stroke-miterlimit="10" d="  M333.561,364.392c7,21.25,14,42.501,21,63.752C364.753,395.212,389.776,342.468,333.561,364.392z"/>
<path fill-rule="evenodd" clip-rule="evenodd" fill="#CEAB1B" stroke="#000000" stroke-linecap="square" stroke-miterlimit="10" d="  M353.061,425.144c-1.814-4.207-29.507-57.998-24.75-60.377C347.814,355.015,352.292,411.159,353.061,425.144z"/>
<path fill-rule="evenodd" clip-rule="evenodd" fill="#CEAB1B" stroke="#000000" stroke-linecap="square" stroke-miterlimit="10" d="  M356.061,424.394c6.303-21.538,17.006-36.421,24-57.002C353.116,353.903,355.485,408.41,356.061,424.394z"/>
<path fill-rule="evenodd" clip-rule="evenodd" fill="#99330C" stroke="#000000" stroke-linecap="square" stroke-miterlimit="10" d="  M501.561,476.144c-10.477,8.396-68.25,14.233-68.25-5.056c0-18.463-12.151-83.899-3-97.696c9.876-14.89,49.158-10.671,62.25-4.125  C515.838,380.906,501.355,453.764,501.561,476.144z"/>
<path fill-rule="evenodd" clip-rule="evenodd" fill="#99330C" d="M430.311,373.392c-3.727,17.329-26.702,68.967-4.5,74.252  C454.106,454.38,433.424,382.955,430.311,373.392z"/>
<path fill="none" stroke="#000000" stroke-linecap="square" stroke-miterlimit="10" d="M430.311,373.392  c-3.183,14.801-22.031,63.777-10.5,72.752c20.826,16.208,20.372-34.349,21-40.502"/>
<path fill-rule="evenodd" clip-rule="evenodd" fill="#99330C" d="M502.311,374.892c2.975,14.718,26.95,75.002,2.625,75.002  C477.332,449.894,498.172,387.034,502.311,374.892z"/>
<path fill="none" stroke="#000000" stroke-linecap="square" stroke-miterlimit="10" d="M502.311,374.892  c2.968,14.681,21.436,64.861,9.75,73.502c-20.435,15.109-20.188-33.876-21-40.502"/>
<path fill-rule="evenodd" clip-rule="evenodd" fill="#99330C" d="M447.561,365.892c16.896,36.555,20.05,76.476,17.25,116.252  C459.061,443.393,453.311,404.643,447.561,365.892z"/>
<path fill="none" stroke="#000000" stroke-linecap="square" stroke-miterlimit="10" d="M447.561,365.892  c16.896,36.555,20.05,76.476,17.25,116.252"/>
<path fill="none" stroke="#000000" stroke-linecap="square" stroke-miterlimit="10" d="M482.811,366.642  c-26.644,0.047-15.526,96.858-15.75,116.252"/>
<path fill-rule="evenodd" clip-rule="evenodd" d="M461.811,434.144C456.619,433.781,456.038,433.74,461.811,434.144L461.811,434.144  z"/>
<path fill-rule="evenodd" clip-rule="evenodd" d="M462.561,446.894c-1.788-0.226-1.647,4.401-5.25,0.75c0-0.75,0-1.5,0-2.25  C461.674,441.284,460.306,446.609,462.561,446.894z"/>
<path fill-rule="evenodd" clip-rule="evenodd" d="M461.811,460.394c-1.788-0.226-1.647,4.401-5.25,0.75c0-0.75,0-1.5,0-2.25  C460.924,454.784,459.556,460.109,461.811,460.394z"/>
<line fill="none" stroke="#000000" stroke-width="0.75" stroke-linecap="square" stroke-miterlimit="10" x1="471.561" y1="433.394" x2="476.061" y2="433.394"/>
<line fill="none" stroke="#000000" stroke-width="0.75" stroke-linecap="square" stroke-miterlimit="10" x1="470.811" y1="446.144" x2="475.311" y2="446.144"/>
<line fill="none" stroke="#000000" stroke-width="0.75" stroke-linecap="square" stroke-miterlimit="10" x1="470.811" y1="459.644" x2="475.311" y2="459.644"/>
<path fill-rule="evenodd" clip-rule="evenodd" fill="#5E1F0A" stroke="#000000" stroke-linecap="square" stroke-miterlimit="10" d="  M443.811,365.892c7,21.25,14,42.501,21,63.752C475.003,396.712,500.026,343.968,443.811,365.892z"/>
<path fill-rule="evenodd" clip-rule="evenodd" fill="#CEAB1B" stroke="#000000" stroke-linecap="square" stroke-miterlimit="10" d="  M463.311,426.644c-1.814-4.207-29.508-57.998-24.75-60.377C458.064,356.515,462.542,412.659,463.311,426.644z"/>
<path fill-rule="evenodd" clip-rule="evenodd" fill="#CEAB1B" stroke="#000000" stroke-linecap="square" stroke-miterlimit="10" d="  M466.311,425.894c6.304-21.538,17.007-36.421,24-57.002C463.366,355.403,465.735,409.91,466.311,425.894z"/>
</svg>