<svg xmlns="http://www.w3.org/2000/svg" xmlns:xlink="http://www.w3.org/1999/xlink" version="1.1" id="Layer_1" x="0px" y="0px" enable-background="new 0 0 822.05 841.89" xml:space="preserve" viewBox="209.13 292.29 405.22 258.14">
<path fill-rule="evenodd" clip-rule="evenodd" fill="#808285" stroke="#000000" stroke-width="2" stroke-linecap="square" stroke-miterlimit="10" d="  M376.75,427.39c15.971,0.581,23.491,6.757,37.5-3.75c16.842-12.631,47.498-16.255,67.866-18.57  c13.56-1.541,126.035-19.366,108.384,23.07c12.013,0.884,29.985,12.77,19.875,26.25c-13.094,17.459-47.296,8.068-64.848,7.306  C525.124,460.808,405.257,481.756,418,433.39C405.385,444.41,374.088,433.538,376.75,427.39z"/>
<path fill="none" stroke="#000000" stroke-width="2" stroke-linecap="square" stroke-miterlimit="10" d="M438.25,415.39  c43.333,2.482,93.7,27.688,135.75,0.75"/>
<path fill="none" stroke="#000000" stroke-width="2" stroke-linecap="square" stroke-miterlimit="10" d="M419.5,430.39  c24.984-9.056,54.848,12.856,81.375,14.625c26.485,1.766,70.887,5.88,89.625-16.875"/>
<path fill="none" stroke="#000000" stroke-width="0.5" stroke-linecap="square" stroke-miterlimit="10" d="M453.25,434.89  c-2.922,1.494-5.654,1.386-7.5,3.75c9.207,4.043,19.159,4.675,29.25,3C467.828,439.415,460.583,436.483,453.25,434.89z"/>
<path fill-rule="evenodd" clip-rule="evenodd" fill="#6D6F71" stroke="#000000" stroke-width="2" stroke-linecap="square" stroke-miterlimit="10" d="  M492.25,426.64c12-0.25,24-0.5,36-0.75c-33.578-7.234-44.4-33.749-26.625-63.375c9.806-16.343,15.126-60.843-15.375-56.625  c-32.745,4.528-9.615,40.627-9,57C478.16,387.126,454.71,415.855,492.25,426.64z"/>
<path fill="none" stroke="#000000" stroke-width="2" stroke-linecap="square" stroke-miterlimit="10" d="M496,402.64  c21.589,5.002,46.859,6.517,66,18"/>
<line fill="none" stroke="#000000" stroke-width="0.5" stroke-linecap="square" stroke-miterlimit="10" x1="387.25" y1="426.64" x2="385" y2="432.64"/>
<path fill="none" stroke="#000000" stroke-width="0.5" stroke-linecap="square" stroke-miterlimit="10" d="M392.5,428.89  c-2.234,2.622-2.544,5.381-0.75,8.25"/>
<path fill="none" stroke="#000000" stroke-width="0.5" stroke-linecap="square" stroke-miterlimit="10" d="M397.75,431.14  c-0.639,2.784-0.196,5.479,1.5,7.5"/>
<path fill="none" stroke="#000000" stroke-width="0.5" stroke-linecap="square" stroke-miterlimit="10" d="M403.75,430.39  c-0.697,3.407,0.323,6.627,3,8.25"/>
<path fill="none" stroke="#000000" stroke-width="0.5" stroke-linecap="square" stroke-miterlimit="10" d="M411.25,425.89  c0.042,3.928,1.862,7.144,5.25,8.25"/>
<path fill="none" stroke="#000000" stroke-width="0.5" stroke-linecap="square" stroke-miterlimit="10" d="M419.5,420.64  c-0.662,3.436,0.271,6.396,3,7.5"/>
<path fill="none" stroke="#000000" stroke-width="0.5" stroke-linecap="square" stroke-miterlimit="10" d="M430,416.14  c-2.265,4.063-2.166,8.284,0.75,11.25"/>
<path fill="none" stroke="#000000" stroke-width="0.5" stroke-linecap="square" stroke-miterlimit="10" d="M443.5,416.89  c-2.853,4.335-3.514,9.358-1.5,13.5"/>
<path fill="none" stroke="#000000" stroke-width="0.5" stroke-linecap="square" stroke-miterlimit="10" d="M458.5,419.14  c-4.715,4.099-5.799,9.43-3,15"/>
<path fill="none" stroke="#000000" stroke-width="0.5" stroke-linecap="square" stroke-miterlimit="10" d="M472,424.39  c-5.439,3.988-6.235,9.391-2.25,15"/>
<path fill="none" stroke="#000000" stroke-width="0.5" stroke-linecap="square" stroke-miterlimit="10" d="M483.25,426.64  c-4.252,4.898-4.831,10.203-0.75,15"/>
<path fill="none" stroke="#000000" stroke-width="0.5" stroke-linecap="square" stroke-miterlimit="10" d="M499,426.64  c-1.534,6.162-1.055,12.693,1.5,18"/>
<path fill="none" stroke="#000000" stroke-width="0.5" stroke-linecap="square" stroke-miterlimit="10" d="M513.25,425.89  c5.382,5.804,7.121,13.03,4.5,20.25"/>
<path fill="none" stroke="#000000" stroke-width="0.5" stroke-linecap="square" stroke-miterlimit="10" d="M553.75,422.14  c7.513,4.781,9.965,12.017,6.75,20.25"/>
<path fill="none" stroke="#000000" stroke-width="0.5" stroke-linecap="square" stroke-miterlimit="10" d="M570.25,419.89  c8.668,1.512,13.213,7.004,12.75,15.75"/>
<path fill="none" stroke="#000000" stroke-width="0.5" stroke-linecap="square" stroke-miterlimit="10" d="M574,416.89  c-0.696-5.929,2.223-9.627,8.25-10.5"/>
<path fill="none" stroke="#000000" stroke-width="0.5" stroke-linecap="square" stroke-miterlimit="10" d="M558.25,417.64  c-1.394-7.221,1.056-12.973,7.5-15.75"/>
<path fill="none" stroke="#000000" stroke-width="0.5" stroke-linecap="square" stroke-miterlimit="10" d="M547.75,413.89  c-1.946-5.854-0.932-11.028,3.75-14.25"/>
<path fill="none" stroke="#000000" stroke-width="0.5" stroke-linecap="square" stroke-miterlimit="10" d="M535,410.89  c-3.371-3.782-3.496-7.684,0-11.25"/>
<path fill="none" stroke="#000000" stroke-width="0.5" stroke-linecap="square" stroke-miterlimit="10" d="M535,412.39  c-1.303,13.123,5.612,18.776,5.25,33"/>
<path fill="none" stroke="#000000" stroke-width="0.5" stroke-linecap="square" stroke-miterlimit="10" d="M516.25,406.39  c2.174,5.353,1.091,10.115-3.75,12.75"/>
<path fill="none" stroke="#000000" stroke-width="0.5" stroke-linecap="square" stroke-miterlimit="10" d="M457,409.39  c4.507,2.278,6.91,6.229,6.75,11.25"/>
<path fill="none" stroke="#000000" stroke-width="0.5" stroke-linecap="square" stroke-miterlimit="10" d="M442.75,431.14  c-11.111,5.231-14.809,16.628-9.75,27.75"/>
<path fill="none" stroke="#000000" stroke-width="0.5" stroke-linecap="square" stroke-miterlimit="10" d="M458.5,442.39  c-6.306,7.014-6.278,14.688,0,21.75"/>
<path fill="none" stroke="#000000" stroke-width="0.5" stroke-linecap="square" stroke-miterlimit="10" d="M475,443.14  c-3.881,7.725-2.736,14.936,3.75,20.25"/>
<line fill="none" stroke="#000000" stroke-width="0.5" stroke-linecap="square" stroke-miterlimit="10" x1="495.25" y1="444.64" x2="496" y2="461.89"/>
<path fill="none" stroke="#000000" stroke-width="0.5" stroke-linecap="square" stroke-miterlimit="10" d="M523,446.14  c4.044,4.37,4.877,9.714,2.25,15"/>
<path fill="none" stroke="#000000" stroke-width="0.5" stroke-linecap="square" stroke-miterlimit="10" d="M550.75,444.64  c7.651,3.73,10.017,10.171,6.75,18"/>
<path fill="none" stroke="#000000" stroke-width="0.5" stroke-linecap="square" stroke-miterlimit="10" d="M571.75,440.89  c10.096,4.3,14.133,12.603,11.25,23.25"/>
<path fill="none" stroke="#000000" stroke-width="0.5" stroke-linecap="square" stroke-miterlimit="10" d="M583.75,434.89  c14.061-1.879,24.308,7.8,24.75,21.75"/>
<path fill="none" stroke="#000000" stroke-linecap="square" stroke-miterlimit="10" d="M475.75,314.89  c7.574,13.078,19.72,14.294,27,0.75"/>
<path fill="none" stroke="#000000" stroke-linecap="square" stroke-miterlimit="10" d="M480.25,321.64  c-2.299,13.878-4.527,27.277-2.25,41.25"/>
<path fill="none" stroke="#000000" stroke-linecap="square" stroke-miterlimit="10" d="M498.25,322.39  c2.902,14.548,3.751,29.492,2.25,44.25"/>
<path fill="none" stroke="#000000" stroke-width="0.5" stroke-linecap="square" stroke-miterlimit="10" d="M479.5,328.39  c6.754,3.935,13.631,3.486,19.5-1.5"/>
<path fill="none" stroke="#000000" stroke-width="0.5" stroke-linecap="square" stroke-miterlimit="10" d="M479.5,332.14  c6.51,4.25,13.334,3.986,19.5-0.75"/>
<path fill="none" stroke="#000000" stroke-width="0.5" stroke-linecap="square" stroke-miterlimit="10" d="M478,336.64  c7.475,3.705,15.315,3.448,22.5-0.75"/>
<path fill="none" stroke="#000000" stroke-width="0.5" stroke-linecap="square" stroke-miterlimit="10" d="M477.25,341.14  c7.802,3.957,15.743,3.542,22.5-1.5"/>
<path fill="none" stroke="#000000" stroke-width="0.5" stroke-linecap="square" stroke-miterlimit="10" d="M477.25,344.14  c7.641,3.964,15.471,3.813,22.5-0.75"/>
<path fill="none" stroke="#000000" stroke-width="0.5" stroke-linecap="square" stroke-miterlimit="10" d="M478,348.64  c7.781,3.898,15.738,3.479,22.5-1.5"/>
<path fill="none" stroke="#000000" stroke-width="0.5" stroke-linecap="square" stroke-miterlimit="10" d="M478,353.14  c7.74,3.875,15.604,3.433,22.5-1.5"/>
<path fill="none" stroke="#000000" stroke-width="0.5" stroke-linecap="square" stroke-miterlimit="10" d="M478,356.14  c7.539,3.612,15.32,3.388,22.5-0.75"/>
<path fill="none" stroke="#000000" stroke-width="0.5" stroke-linecap="square" stroke-miterlimit="10" d="M478,359.89  c7.379,4.277,15.4,4.015,22.5-0.75"/>
<path fill="none" stroke="#000000" stroke-width="0.5" stroke-linecap="square" stroke-miterlimit="10" d="M478,364.39  c7.442,4.251,15.299,3.972,22.5-0.75"/>
<path fill="none" stroke="#000000" stroke-width="0.5" stroke-linecap="square" stroke-miterlimit="10" d="M478,367.39  c7.201,4.289,15.236,3.976,22.5-0.75"/>
<path fill="none" stroke="#000000" stroke-width="0.5" stroke-linecap="square" stroke-miterlimit="10" d="M477.25,370.39  c5.462,6.255,12.619,8.182,20.25,5.25"/>
<path fill="none" stroke="#000000" stroke-width="0.5" stroke-linecap="square" stroke-miterlimit="10" d="M475.75,374.89  c5.491,5.499,12.646,7.309,20.25,5.25"/>
<path fill="none" stroke="#000000" stroke-width="0.5" stroke-linecap="square" stroke-miterlimit="10" d="M474.25,377.89  c5.569,5.339,12.748,7.188,20.25,5.25"/>
<path fill="none" stroke="#000000" stroke-width="0.5" stroke-linecap="square" stroke-miterlimit="10" d="M472.75,380.89  c5.54,6.164,12.643,8.112,20.25,5.25"/>
<path fill="none" stroke="#000000" stroke-width="0.5" stroke-linecap="square" stroke-miterlimit="10" d="M471.25,384.64  c5.54,6.164,12.643,8.112,20.25,5.25"/>
<path fill="none" stroke="#000000" stroke-width="0.5" stroke-linecap="square" stroke-miterlimit="10" d="M470.5,387.64  c6.239,6.463,14,8.556,22.5,6"/>
<path fill="none" stroke="#000000" stroke-width="0.5" stroke-linecap="square" stroke-miterlimit="10" d="M469.75,393.64  c7.042,5.173,15.198,6.249,23.25,3"/>
<path fill="none" stroke="#000000" stroke-width="0.5" stroke-linecap="square" stroke-miterlimit="10" d="M469,397.39  c6.518,5.861,14.488,7.213,22.5,3.75"/>
<path fill="none" stroke="#000000" stroke-width="0.5" stroke-linecap="square" stroke-miterlimit="10" d="M470.5,407.89  c8.008,3.91,15.999,2.558,22.5-3.75"/>
<path fill="none" stroke="#000000" stroke-width="0.5" stroke-linecap="square" stroke-miterlimit="10" d="M472.75,413.89  c8.453,2.187,16.275-0.153,21.75-6.75"/>
<path fill="none" stroke="#000000" stroke-width="0.5" stroke-linecap="square" stroke-miterlimit="10" d="M475.75,417.64  c8.565,2.17,16.583-0.201,22.5-6.75"/>
<path fill="none" stroke="#000000" stroke-width="0.5" stroke-linecap="square" stroke-miterlimit="10" d="M481,422.14  c8.319,1.799,15.942-0.538,21.75-6.75"/>
<path fill="none" stroke="#000000" stroke-width="0.5" stroke-linecap="square" stroke-miterlimit="10" d="M468.25,401.14  c7.076,5.082,15.102,6.167,23.25,3"/>
<path fill-rule="evenodd" clip-rule="evenodd" fill="#D6D7D9" stroke="#000000" stroke-width="0.5" stroke-linecap="square" stroke-miterlimit="10" d="  M484.75,314.14C479.93,314.342,480.353,314.324,484.75,314.14L484.75,314.14z"/>
<path fill-rule="evenodd" clip-rule="evenodd" fill="#D6D7D9" stroke="#000000" stroke-width="0.5" stroke-linecap="square" stroke-miterlimit="10" d="  M497.5,314.89C493.103,314.706,492.68,314.688,497.5,314.89L497.5,314.89z"/>
<path fill="none" stroke="#000000" stroke-width="0.5" stroke-linecap="square" stroke-miterlimit="10" d="M481.75,319.39  c4.312-4.014,9.272-3.584,13.5,0.75"/>
<path fill-rule="evenodd" clip-rule="evenodd" fill="#808285" stroke="#000000" stroke-width="2" stroke-linecap="square" stroke-miterlimit="10" d="  M218.5,415.39c35.286,3.547,58.947-16.953,97.104-21.39c13.816-1.606,134.206-21.186,115.896,22.14  c10.355,1.161,32.691,13.809,20.25,26.25c-16.423,16.423-44.325,8.182-64.472,7.306C365.125,448.733,249.024,470.677,259,421.39  C246.604,432.489,215.779,421.567,218.5,415.39z"/>
<path fill="none" stroke="#000000" stroke-width="2" stroke-linecap="square" stroke-miterlimit="10" d="M280,403.39  c42.913,5.366,94.043,25.793,135.75,0.75"/>
<path fill="none" stroke="#000000" stroke-width="2" stroke-linecap="square" stroke-miterlimit="10" d="M260.5,419.14  c43.815-19.254,129.071,52.078,171-3"/>
<path fill="none" stroke="#000000" stroke-width="2" stroke-linecap="square" stroke-miterlimit="10" d="M295,422.89  c-2.66,1.207-5.596,1.595-8.25,3c9.083,5.163,19.694,5.94,30,3.75C309.619,427.427,302.32,424.323,295,422.89z"/>
<path fill-rule="evenodd" clip-rule="evenodd" fill="#6D6F71" stroke="#000000" stroke-width="2" stroke-linecap="square" stroke-miterlimit="10" d="  M334,414.64c12-0.25,24-0.5,36-0.75c-33.96-7.651-44.795-33.091-26.625-63.375c10.015-16.691,13.881-62.991-16.875-56.625  c-31.719,6.565-8.238,40.499-7.5,57C320.061,374.589,295.9,404.419,334,414.64z"/>
<path fill="none" stroke="#000000" stroke-width="2" stroke-linecap="square" stroke-miterlimit="10" d="M337.75,390.64  c21.665,5.426,46.526,6.548,66,18"/>
<line fill="none" stroke="#000000" stroke-width="0.5" stroke-linecap="square" stroke-miterlimit="10" x1="228.25" y1="414.64" x2="226" y2="420.64"/>
<path fill="none" stroke="#000000" stroke-width="0.5" stroke-linecap="square" stroke-miterlimit="10" d="M233.5,416.89  c-2.234,2.622-2.544,5.381-0.75,8.25"/>
<path fill="none" stroke="#000000" stroke-width="0.5" stroke-linecap="square" stroke-miterlimit="10" d="M239.5,419.14  c-0.915,2.785-0.589,5.895,0.75,7.5"/>
<path fill="none" stroke="#000000" stroke-width="0.5" stroke-linecap="square" stroke-miterlimit="10" d="M245.5,419.14  c-0.773,3.456-0.03,6.528,3,7.5"/>
<path fill="none" stroke="#000000" stroke-width="0.5" stroke-linecap="square" stroke-miterlimit="10" d="M252.25,413.89  c0.657,4.04,2.744,7.3,6,8.25"/>
<path fill="none" stroke="#000000" stroke-width="0.5" stroke-linecap="square" stroke-miterlimit="10" d="M261.25,408.64  c-0.612,2.992,0.128,6.016,2.25,7.5"/>
<path fill="none" stroke="#000000" stroke-width="0.5" stroke-linecap="square" stroke-miterlimit="10" d="M271,404.14  c-1.491,4.198-1.127,8.362,1.5,11.25"/>
<path fill="none" stroke="#000000" stroke-width="0.5" stroke-linecap="square" stroke-miterlimit="10" d="M285.25,404.89  c-3.536,3.863-4.389,8.769-2.25,13.5"/>
<path fill="none" stroke="#000000" stroke-width="0.5" stroke-linecap="square" stroke-miterlimit="10" d="M299.5,407.14  c-3.967,4.37-5.065,9.481-3,15"/>
<path fill="none" stroke="#000000" stroke-width="0.5" stroke-linecap="square" stroke-miterlimit="10" d="M313,412.39  c-5.056,4.07-5.692,9.35-2.25,15"/>
<path fill="none" stroke="#000000" stroke-width="0.5" stroke-linecap="square" stroke-miterlimit="10" d="M325,414.64  c-4.108,4.465-4.733,9.88-1.5,15"/>
<path fill="none" stroke="#000000" stroke-width="0.5" stroke-linecap="square" stroke-miterlimit="10" d="M340.75,414.64  c-2.236,6.292-1.712,13.004,1.5,18.75"/>
<path fill="none" stroke="#000000" stroke-width="0.5" stroke-linecap="square" stroke-miterlimit="10" d="M354.25,413.89  c5.616,5.748,7.541,12.729,5.25,20.25"/>
<path fill="none" stroke="#000000" stroke-width="0.5" stroke-linecap="square" stroke-miterlimit="10" d="M395.5,410.14  c7.498,4.827,9.969,12,6.75,20.25"/>
<path fill="none" stroke="#000000" stroke-width="0.5" stroke-linecap="square" stroke-miterlimit="10" d="M412,407.89  c9.017,1.911,13.46,7.636,12,16.5"/>
<path fill="none" stroke="#000000" stroke-width="0.5" stroke-linecap="square" stroke-miterlimit="10" d="M415,404.89  c-0.244-6.196,2.853-9.946,9-10.5"/>
<path fill="none" stroke="#000000" stroke-width="0.5" stroke-linecap="square" stroke-miterlimit="10" d="M399.25,405.64  c-0.767-6.948,1.667-12.613,7.5-15.75"/>
<path fill="none" stroke="#000000" stroke-width="0.5" stroke-linecap="square" stroke-miterlimit="10" d="M389.5,401.89  c-2.573-5.707-1.677-11.011,3-14.25"/>
<path fill="none" stroke="#000000" stroke-width="0.5" stroke-linecap="square" stroke-miterlimit="10" d="M376.75,398.89  c-3.909-3.836-4.174-7.833,0-11.25"/>
<path fill="none" stroke="#000000" stroke-width="0.5" stroke-linecap="square" stroke-miterlimit="10" d="M376,400.39  c-0.301,5.803,4.859,7.503-1.5,12.75c9.698,6.075,7.345,11.335,7.5,20.25"/>
<path fill="none" stroke="#000000" stroke-width="0.5" stroke-linecap="square" stroke-miterlimit="10" d="M358,394.39  c1.366,5.517,0.08,10.186-4.5,12.75"/>
<path fill="none" stroke="#000000" stroke-width="0.5" stroke-linecap="square" stroke-miterlimit="10" d="M298.75,397.39  c4.573,2.444,6.846,6.372,6,11.25"/>
<path fill="none" stroke="#000000" stroke-width="0.5" stroke-linecap="square" stroke-miterlimit="10" d="M283.75,419.14  c-10.833,5.441-14.022,16.552-9.75,27.75"/>
<path fill="none" stroke="#000000" stroke-width="0.5" stroke-linecap="square" stroke-miterlimit="10" d="M299.5,430.39  c-5.777,7.03-5.845,14.801,0,21.75"/>
<path fill="none" stroke="#000000" stroke-width="0.5" stroke-linecap="square" stroke-miterlimit="10" d="M316,431.14  c-4.032,8.013-2.633,15.185,4.5,20.25"/>
<line fill="none" stroke="#000000" stroke-width="0.5" stroke-linecap="square" stroke-miterlimit="10" x1="336.25" y1="432.64" x2="337.75" y2="449.89"/>
<path fill="none" stroke="#000000" stroke-width="0.5" stroke-linecap="square" stroke-miterlimit="10" d="M364.75,434.14  c3.966,4.337,4.707,9.561,2.25,15"/>
<path fill="none" stroke="#000000" stroke-width="0.5" stroke-linecap="square" stroke-miterlimit="10" d="M391.75,432.64  c8.083,3.988,10.699,10.679,6.75,18.75"/>
<path fill="none" stroke="#000000" stroke-width="0.5" stroke-linecap="square" stroke-miterlimit="10" d="M412.75,428.89  c10.157,4.023,14.32,12.332,12,23.25"/>
<path fill="none" stroke="#000000" stroke-width="0.5" stroke-linecap="square" stroke-miterlimit="10" d="M425.5,422.89  c14.067-1.892,23.551,8.228,24.75,21.75"/>
<path fill="none" stroke="#000000" stroke-linecap="square" stroke-miterlimit="10" d="M316.75,302.89  c7.728,12.973,20.379,14.335,27,0.75"/>
<path fill="none" stroke="#000000" stroke-linecap="square" stroke-miterlimit="10" d="M322,309.64  c-3.5,13.419-5.289,27.676-2.25,41.25"/>
<path fill="none" stroke="#000000" stroke-linecap="square" stroke-miterlimit="10" d="M340,310.39  c2.902,14.548,3.751,29.492,2.25,44.25"/>
<path fill="none" stroke="#000000" stroke-width="0.5" stroke-linecap="square" stroke-miterlimit="10" d="M321.25,316.39  c6.748,3.851,13.685,3.399,19.5-1.5"/>
<path fill="none" stroke="#000000" stroke-width="0.5" stroke-linecap="square" stroke-miterlimit="10" d="M321.25,320.14  c6.249,4.246,13.297,3.906,19.5-0.75"/>
<path fill="none" stroke="#000000" stroke-width="0.5" stroke-linecap="square" stroke-miterlimit="10" d="M319,324.64  c7.517,4.188,15.392,3.98,22.5-0.75"/>
<path fill="none" stroke="#000000" stroke-width="0.5" stroke-linecap="square" stroke-miterlimit="10" d="M319,329.14  c7.74,3.875,15.604,3.433,22.5-1.5"/>
<path fill="none" stroke="#000000" stroke-width="0.5" stroke-linecap="square" stroke-miterlimit="10" d="M319,332.14  c7.523,4.154,15.318,3.919,22.5-0.75"/>
<path fill="none" stroke="#000000" stroke-width="0.5" stroke-linecap="square" stroke-miterlimit="10" d="M319.75,336.64  c7.508,3.676,15.306,3.431,22.5-0.75"/>
<path fill="none" stroke="#000000" stroke-width="0.5" stroke-linecap="square" stroke-miterlimit="10" d="M319.75,341.14  c7.504,3.985,15.216,3.538,21.75-1.5"/>
<path fill="none" stroke="#000000" stroke-width="0.5" stroke-linecap="square" stroke-miterlimit="10" d="M319.75,344.14  c7.341,4.009,14.946,3.831,21.75-0.75"/>
<path fill="none" stroke="#000000" stroke-width="0.5" stroke-linecap="square" stroke-miterlimit="10" d="M319.75,347.89  c7.002,4.324,14.818,4.044,21.75-0.75"/>
<path fill="none" stroke="#000000" stroke-width="0.5" stroke-linecap="square" stroke-miterlimit="10" d="M319,352.39  c7.517,4.188,15.392,3.98,22.5-0.75"/>
<path fill="none" stroke="#000000" stroke-width="0.5" stroke-linecap="square" stroke-miterlimit="10" d="M319,355.39  c7.379,4.277,15.4,4.015,22.5-0.75"/>
<path fill="none" stroke="#000000" stroke-width="0.5" stroke-linecap="square" stroke-miterlimit="10" d="M318.25,358.39  c5.542,6.022,12.735,8.019,20.25,5.25"/>
<path fill="none" stroke="#000000" stroke-width="0.5" stroke-linecap="square" stroke-miterlimit="10" d="M316.75,362.89  c5.569,5.339,12.748,7.188,20.25,5.25"/>
<path fill="none" stroke="#000000" stroke-width="0.5" stroke-linecap="square" stroke-miterlimit="10" d="M316,365.89  c5.491,5.499,12.645,7.309,20.25,5.25"/>
<path fill="none" stroke="#000000" stroke-width="0.5" stroke-linecap="square" stroke-miterlimit="10" d="M314.5,368.89  c5.462,6.255,12.62,8.182,20.25,5.25"/>
<path fill="none" stroke="#000000" stroke-width="0.5" stroke-linecap="square" stroke-miterlimit="10" d="M313,372.64  c5.163,5.837,12.025,7.977,19.5,6"/>
<path fill="none" stroke="#000000" stroke-width="0.5" stroke-linecap="square" stroke-miterlimit="10" d="M312.25,375.64  c5.804,6.812,13.328,8.865,21.75,6"/>
<path fill="none" stroke="#000000" stroke-width="0.5" stroke-linecap="square" stroke-miterlimit="10" d="M311.5,381.64  c6.677,5.18,14.692,6.279,22.5,3"/>
<path fill="none" stroke="#000000" stroke-width="0.5" stroke-linecap="square" stroke-miterlimit="10" d="M310,385.39  c6.834,5.858,14.964,7.192,23.25,3.75"/>
<path fill="none" stroke="#000000" stroke-width="0.5" stroke-linecap="square" stroke-miterlimit="10" d="M312.25,395.89  c8.083,3.967,16.191,2.667,22.5-3.75"/>
<path fill="none" stroke="#000000" stroke-width="0.5" stroke-linecap="square" stroke-miterlimit="10" d="M314.5,401.89  c8.24,2.064,16.032-0.333,21.75-6.75"/>
<path fill="none" stroke="#000000" stroke-width="0.5" stroke-linecap="square" stroke-miterlimit="10" d="M317.5,405.64  c8.454,2.187,16.275-0.153,21.75-6.75"/>
<path fill="none" stroke="#000000" stroke-width="0.5" stroke-linecap="square" stroke-miterlimit="10" d="M322,410.14  c8.546,1.733,16.485-0.598,22.5-6.75"/>
<path fill="none" stroke="#000000" stroke-width="0.5" stroke-linecap="square" stroke-miterlimit="10" d="M310,389.14  c6.856,5.169,14.675,6.265,22.5,3"/>
<path fill-rule="evenodd" clip-rule="evenodd" fill="#D6D7D9" stroke="#000000" stroke-width="0.5" stroke-linecap="square" stroke-miterlimit="10" d="  M325.75,302.14C320.93,302.342,321.352,302.324,325.75,302.14L325.75,302.14z"/>
<path fill-rule="evenodd" clip-rule="evenodd" fill="#D6D7D9" stroke="#000000" stroke-width="0.5" stroke-linecap="square" stroke-miterlimit="10" d="  M339.25,302.89C334.852,302.706,334.43,302.688,339.25,302.89L339.25,302.89z"/>
<path fill="none" stroke="#000000" stroke-width="0.5" stroke-linecap="square" stroke-miterlimit="10" d="M323.5,307.39  c4.529-4.196,9.254-3.616,12.75,1.5"/>
<path fill-rule="evenodd" clip-rule="evenodd" fill="#808285" stroke="#000000" stroke-width="2" stroke-linecap="square" stroke-miterlimit="10" d="  M303.25,465.64c15.931,0.44,23.46,6.78,37.5-3.75c16.451-12.338,47.934-17.055,67.866-19.32  c14.02-1.593,126.942-18.326,108.384,23.82c13.303,0.969,33.828,17.698,16.5,29.25c-20.678,13.785-51.427,4.479-74.25,3.75  c-17.495-0.56-128.571,19.557-114.75-28.5C332.312,483.375,301.479,471.817,303.25,465.64z"/>
<path fill="none" stroke="#000000" stroke-width="2" stroke-linecap="square" stroke-miterlimit="10" d="M365.5,453.64  c44.14,3.061,91.424,25.45,135,0.75"/>
<path fill="none" stroke="#000000" stroke-width="2" stroke-linecap="square" stroke-miterlimit="10" d="M346,468.64  c44.771-16.229,129.715,51.771,171-2.25"/>
<path fill="none" stroke="#000000" stroke-width="0.5" stroke-linecap="square" stroke-miterlimit="10" d="M379.75,473.14  c-3.599,1.729-5.718,0.237-7.5,3.75c9.165,3.894,19.347,4.912,29.25,3C394.328,477.665,387.083,474.733,379.75,473.14z"/>
<path fill-rule="evenodd" clip-rule="evenodd" fill="#6D6F71" stroke="#000000" stroke-width="2" stroke-linecap="square" stroke-miterlimit="10" d="  M418.75,464.89c12-0.25,24-0.5,36-0.75c-37.025-9.604-39.044-31.39-26.25-63.375c6.34-15.85,16.891-62.82-16.5-56.625  c-30.982,5.748-10.672,42.468-7.875,59.25C407.752,425.156,380.408,454.611,418.75,464.89z"/>
<path fill="none" stroke="#000000" stroke-width="2" stroke-linecap="square" stroke-miterlimit="10" d="M422.5,440.89  c21.796,3.312,46.814,6.92,66,18"/>
<line fill="none" stroke="#000000" stroke-width="0.5" stroke-linecap="square" stroke-miterlimit="10" x1="313.75" y1="464.89" x2="311.5" y2="470.89"/>
<path fill="none" stroke="#000000" stroke-width="0.5" stroke-linecap="square" stroke-miterlimit="10" d="M319,467.14  c-2.278,2.32-2.555,4.82-0.75,7.5"/>
<path fill="none" stroke="#000000" stroke-width="0.5" stroke-linecap="square" stroke-miterlimit="10" d="M325,469.39  c-1.41,2.697-1.3,5.484,0.75,7.5"/>
<path fill="none" stroke="#000000" stroke-width="0.5" stroke-linecap="square" stroke-miterlimit="10" d="M330.25,468.64  c-0.282,3.695,0.873,7.056,3.75,8.25"/>
<path fill="none" stroke="#000000" stroke-width="0.5" stroke-linecap="square" stroke-miterlimit="10" d="M337.75,463.39  c-0.133,4.215,1.668,7.714,5.25,9"/>
<path fill="none" stroke="#000000" stroke-width="0.5" stroke-linecap="square" stroke-miterlimit="10" d="M346.75,458.89  c-0.514,2.962,0.311,5.917,2.25,7.5"/>
<path fill="none" stroke="#000000" stroke-width="0.5" stroke-linecap="square" stroke-miterlimit="10" d="M356.5,454.39  c-2.285,3.984-2.177,8.087,0.75,11.25"/>
<path fill="none" stroke="#000000" stroke-width="0.5" stroke-linecap="square" stroke-miterlimit="10" d="M370,454.39  c-2.716,4.637-3.377,9.918-1.5,14.25"/>
<path fill="none" stroke="#000000" stroke-width="0.5" stroke-linecap="square" stroke-miterlimit="10" d="M385,457.39  c-4.531,4.244-5.688,9.524-3,15"/>
<path fill="none" stroke="#000000" stroke-width="0.5" stroke-linecap="square" stroke-miterlimit="10" d="M398.5,462.64  c-5.259,3.921-5.964,9.406-2.25,15"/>
<path fill="none" stroke="#000000" stroke-width="0.5" stroke-linecap="square" stroke-miterlimit="10" d="M409.75,464.89  c-3.43,5.005-3.875,10.398-0.75,15"/>
<path fill="none" stroke="#000000" stroke-width="0.5" stroke-linecap="square" stroke-miterlimit="10" d="M425.5,464.89  c-1.766,6.368-1.084,12.745,2.25,18"/>
<path fill="none" stroke="#000000" stroke-width="0.5" stroke-linecap="square" stroke-miterlimit="10" d="M439.75,464.14  c5.266,5.595,7.037,12.599,4.5,19.5"/>
<path fill="none" stroke="#000000" stroke-width="0.5" stroke-linecap="square" stroke-miterlimit="10" d="M480.25,460.39  c7.999,4.752,10.664,12.039,6.75,20.25"/>
<path fill="none" stroke="#000000" stroke-width="0.5" stroke-linecap="square" stroke-miterlimit="10" d="M496.75,458.14  c8.628,1.325,13.256,6.92,12.75,15.75"/>
<path fill="none" stroke="#000000" stroke-width="0.5" stroke-linecap="square" stroke-miterlimit="10" d="M500.5,455.14  c-0.308-5.839,2.491-9.601,8.25-10.5"/>
<path fill="none" stroke="#000000" stroke-width="0.5" stroke-linecap="square" stroke-miterlimit="10" d="M484.75,455.89  c-1.394-7.221,1.056-12.973,7.5-15.75"/>
<path fill="none" stroke="#000000" stroke-width="0.5" stroke-linecap="square" stroke-miterlimit="10" d="M474.25,452.14  c-1.946-5.854-0.932-11.028,3.75-14.25"/>
<path fill="none" stroke="#000000" stroke-width="0.5" stroke-linecap="square" stroke-miterlimit="10" d="M461.5,449.14  c-2.954-3.805-3.069-7.778,0-11.25"/>
<path fill="none" stroke="#000000" stroke-width="0.5" stroke-linecap="square" stroke-miterlimit="10" d="M461.5,450.64  c-0.456,5.763,3.884,7.924-1.5,12.75c9.191,6.048,6.913,11.181,7.5,20.25"/>
<path fill="none" stroke="#000000" stroke-width="0.5" stroke-linecap="square" stroke-miterlimit="10" d="M442.75,444.64  c2.174,5.354,1.091,10.115-3.75,12.75"/>
<path fill="none" stroke="#000000" stroke-width="0.5" stroke-linecap="square" stroke-miterlimit="10" d="M383.5,447.64  c4.83,2.27,7.27,6.125,6.75,11.25"/>
<path fill="none" stroke="#000000" stroke-width="0.5" stroke-linecap="square" stroke-miterlimit="10" d="M369.25,469.39  c-10.95,4.983-14.836,16.568-9.75,27.75"/>
<path fill="none" stroke="#000000" stroke-width="0.5" stroke-linecap="square" stroke-miterlimit="10" d="M385,480.64  c-5.952,6.955-5.905,14.629,0,21.75"/>
<path fill="none" stroke="#000000" stroke-width="0.5" stroke-linecap="square" stroke-miterlimit="10" d="M401.5,481.39  c-3.846,7.678-2.652,14.806,3.75,20.25"/>
<line fill="none" stroke="#000000" stroke-width="0.5" stroke-linecap="square" stroke-miterlimit="10" x1="421.75" y1="482.89" x2="422.5" y2="500.14"/>
<path fill="none" stroke="#000000" stroke-width="0.5" stroke-linecap="square" stroke-miterlimit="10" d="M449.5,483.64  c4.224,4.629,5.111,10.234,2.25,15.75"/>
<path fill="none" stroke="#000000" stroke-width="0.5" stroke-linecap="square" stroke-miterlimit="10" d="M477.25,482.89  c7.651,3.73,10.017,10.171,6.75,18"/>
<path fill="none" stroke="#000000" stroke-width="0.5" stroke-linecap="square" stroke-miterlimit="10" d="M498.25,478.39  c9.52,4.648,13.817,12.864,12,23.25"/>
<path fill="none" stroke="#000000" stroke-width="0.5" stroke-linecap="square" stroke-miterlimit="10" d="M511,473.14  c13.937-1.59,23.519,8.145,24.75,21.75"/>
<path fill="none" stroke="#000000" stroke-linecap="square" stroke-miterlimit="10" d="M402.25,353.14  c7.752,13.437,20.2,13.833,27,0"/>
<path fill="none" stroke="#000000" stroke-linecap="square" stroke-miterlimit="10" d="M407.5,359.89  c-3.927,13.22-4.759,27.567-3,41.25"/>
<path fill="none" stroke="#000000" stroke-linecap="square" stroke-miterlimit="10" d="M424.75,360.64  c2.683,14.739,4.604,29.337,2.25,44.25"/>
<path fill="none" stroke="#000000" stroke-width="0.5" stroke-linecap="square" stroke-miterlimit="10" d="M406,366.64  c6.883,3.82,13.873,3.488,19.5-1.5"/>
<path fill="none" stroke="#000000" stroke-width="0.5" stroke-linecap="square" stroke-miterlimit="10" d="M406,370.39  c6.663,3.834,13.534,3.764,19.5-0.75"/>
<path fill="none" stroke="#000000" stroke-width="0.5" stroke-linecap="square" stroke-miterlimit="10" d="M404.5,374.89  c7.74,3.875,15.604,3.433,22.5-1.5"/>
<path fill="none" stroke="#000000" stroke-width="0.5" stroke-linecap="square" stroke-miterlimit="10" d="M404.5,379.39  c7.504,3.985,15.216,3.538,21.75-1.5"/>
<path fill="none" stroke="#000000" stroke-width="0.5" stroke-linecap="square" stroke-miterlimit="10" d="M404.5,382.39  c7.504,3.985,15.216,3.538,21.75-1.5"/>
<path fill="none" stroke="#000000" stroke-width="0.5" stroke-linecap="square" stroke-miterlimit="10" d="M405.25,386.89  c7.504,3.985,15.216,3.538,21.75-1.5"/>
<path fill="none" stroke="#000000" stroke-width="0.5" stroke-linecap="square" stroke-miterlimit="10" d="M404.5,391.39  c7.691,3.802,15.48,3.326,22.5-1.5"/>
<path fill="none" stroke="#000000" stroke-width="0.5" stroke-linecap="square" stroke-miterlimit="10" d="M404.5,394.39  c7.781,3.898,15.738,3.479,22.5-1.5"/>
<path fill="none" stroke="#000000" stroke-width="0.5" stroke-linecap="square" stroke-miterlimit="10" d="M404.5,398.14  c7.518,4.188,15.393,3.98,22.5-0.75"/>
<path fill="none" stroke="#000000" stroke-width="0.5" stroke-linecap="square" stroke-miterlimit="10" d="M404.5,402.64  c7.539,3.612,15.32,3.388,22.5-0.75"/>
<path fill="none" stroke="#000000" stroke-width="0.5" stroke-linecap="square" stroke-miterlimit="10" d="M404.5,405.64  c7.523,4.154,15.317,3.919,22.5-0.75"/>
<path fill="none" stroke="#000000" stroke-width="0.5" stroke-linecap="square" stroke-miterlimit="10" d="M403.75,408.64  c5.462,6.255,12.619,8.182,20.25,5.25"/>
<path fill="none" stroke="#000000" stroke-width="0.5" stroke-linecap="square" stroke-miterlimit="10" d="M402.25,412.39  c5.086,6.175,12.334,8.221,20.25,6"/>
<path fill="none" stroke="#000000" stroke-width="0.5" stroke-linecap="square" stroke-miterlimit="10" d="M401.5,415.39  c5.136,5.852,12.022,7.998,19.5,6"/>
<path fill="none" stroke="#000000" stroke-width="0.5" stroke-linecap="square" stroke-miterlimit="10" d="M399.25,419.14  c5.569,5.339,12.748,7.188,20.25,5.25"/>
<path fill="none" stroke="#000000" stroke-width="0.5" stroke-linecap="square" stroke-miterlimit="10" d="M397.75,422.89  c5.542,6.022,12.735,8.019,20.25,5.25"/>
<path fill="none" stroke="#000000" stroke-width="0.5" stroke-linecap="square" stroke-miterlimit="10" d="M397,425.89  c6.273,6.234,14.215,8.126,22.5,5.25"/>
<path fill="none" stroke="#000000" stroke-width="0.5" stroke-linecap="square" stroke-miterlimit="10" d="M396.25,431.89  c7.066,5.094,15.133,6.195,23.25,3"/>
<path fill="none" stroke="#000000" stroke-width="0.5" stroke-linecap="square" stroke-miterlimit="10" d="M395.5,435.64  c6.503,5.528,14.483,6.832,22.5,3.75"/>
<path fill="none" stroke="#000000" stroke-width="0.5" stroke-linecap="square" stroke-miterlimit="10" d="M397,446.14  c8.419,3.743,16.555,2.465,23.25-3.75"/>
<path fill="none" stroke="#000000" stroke-width="0.5" stroke-linecap="square" stroke-miterlimit="10" d="M399.25,452.14  c8.432,1.851,16.517-0.564,22.5-6.75"/>
<path fill="none" stroke="#000000" stroke-width="0.5" stroke-linecap="square" stroke-miterlimit="10" d="M403,455.89  c8.314,1.742,15.82-0.594,21.75-6.75"/>
<path fill="none" stroke="#000000" stroke-width="0.5" stroke-linecap="square" stroke-miterlimit="10" d="M407.5,460.39  c8.455,1.659,16.254-0.69,22.5-6.75"/>
<path fill="none" stroke="#000000" stroke-width="0.5" stroke-linecap="square" stroke-miterlimit="10" d="M394.75,438.64  c6.834,5.858,14.964,7.192,23.25,3.75"/>
<path fill-rule="evenodd" clip-rule="evenodd" fill="#D6D7D9" stroke="#000000" stroke-width="0.5" stroke-linecap="square" stroke-miterlimit="10" d="  M411.25,352.39c-2.224,0-1.826,7.065-4.5,0C409.424,345.325,409.026,352.39,411.25,352.39z"/>
<path fill-rule="evenodd" clip-rule="evenodd" fill="#D6D7D9" stroke="#000000" stroke-width="0.5" stroke-linecap="square" stroke-miterlimit="10" d="  M424,353.14C419.791,353.054,418.949,353.037,424,353.14L424,353.14z"/>
<path fill="none" stroke="#000000" stroke-width="0.5" stroke-linecap="square" stroke-miterlimit="10" d="M408.25,357.64  c4.487-4.138,9.35-3.806,13.5,0.75"/>
<path fill-rule="evenodd" clip-rule="evenodd" fill="#808285" stroke="#000000" stroke-width="2" stroke-linecap="square" stroke-miterlimit="10" d="  M210.25,511.39c35.395,1.662,58.821-17.031,97.182-21.39c14.282-1.623,133.543-22.178,116.568,22.14  c11.818,1.048,29.93,12.845,19.875,26.25c-13.094,17.459-47.296,8.068-64.847,7.306c-20.334-0.884-140.796,19.963-127.528-28.306  C238.787,528.245,207.926,517.976,210.25,511.39z"/>
<path fill="none" stroke="#000000" stroke-width="2" stroke-linecap="square" stroke-miterlimit="10" d="M271.75,499.39  c43.184,4.978,93.864,25.9,135.75,0.75"/>
<path fill="none" stroke="#000000" stroke-width="2" stroke-linecap="square" stroke-miterlimit="10" d="M253,515.14  c21.939-10.188,51.938,10.669,75.75,13.5c27.436,3.262,75.474,6.536,95.25-16.5"/>
<path fill="none" stroke="#000000" stroke-width="2" stroke-linecap="square" stroke-miterlimit="10" d="M286.75,518.89  c-2.634,1.226-5.582,1.818-8.25,3c9.097,5.118,19.705,5.898,30,3.75C301.369,523.427,294.07,520.323,286.75,518.89z"/>
<path fill-rule="evenodd" clip-rule="evenodd" fill="#6D6F71" stroke="#000000" stroke-width="2" stroke-linecap="square" stroke-miterlimit="10" d="  M325.75,510.64c12-0.25,24-0.5,36-0.75c-33.85-7.626-44.742-33.18-26.625-63.375c9.954-16.59,14.643-63.163-16.875-56.625  c-30.886,6.407-8.295,41.21-7.5,57C311.968,471.064,287.799,499.737,325.75,510.64z"/>
<path fill="none" stroke="#000000" stroke-width="2" stroke-linecap="square" stroke-miterlimit="10" d="M329.5,486.64  c21.589,5.003,46.859,6.518,66,18"/>
<line fill="none" stroke="#000000" stroke-width="0.5" stroke-linecap="square" stroke-miterlimit="10" x1="220.75" y1="510.64" x2="217.75" y2="516.64"/>
<path fill="none" stroke="#000000" stroke-width="0.5" stroke-linecap="square" stroke-miterlimit="10" d="M226,512.89  c-2.234,2.622-2.544,5.381-0.75,8.25"/>
<path fill="none" stroke="#000000" stroke-width="0.5" stroke-linecap="square" stroke-miterlimit="10" d="M231.25,515.14  c-0.417,2.521-0.155,5.426,0.75,7.5"/>
<path fill="none" stroke="#000000" stroke-width="0.5" stroke-linecap="square" stroke-miterlimit="10" d="M237.25,515.14  c-0.765,3.386,0.041,6.302,3,7.5"/>
<path fill="none" stroke="#000000" stroke-width="0.5" stroke-linecap="square" stroke-miterlimit="10" d="M244.75,509.89  c0.042,3.928,1.862,7.144,5.25,8.25"/>
<path fill="none" stroke="#000000" stroke-width="0.5" stroke-linecap="square" stroke-miterlimit="10" d="M253,504.64  c-0.662,3.436,0.271,6.396,3,7.5"/>
<path fill="none" stroke="#000000" stroke-width="0.5" stroke-linecap="square" stroke-miterlimit="10" d="M263.5,500.14  c-2.265,4.063-2.166,8.284,0.75,11.25"/>
<path fill="none" stroke="#000000" stroke-width="0.5" stroke-linecap="square" stroke-miterlimit="10" d="M277,500.89  c-2.557,4.131-3.401,9.004-2.25,13.5"/>
<path fill="none" stroke="#000000" stroke-width="0.5" stroke-linecap="square" stroke-miterlimit="10" d="M291.25,503.14  c-3.706,4.327-4.757,9.496-3,15"/>
<path fill="none" stroke="#000000" stroke-width="0.5" stroke-linecap="square" stroke-miterlimit="10" d="M305.5,508.39  c-5.189,3.811-6.182,9.216-3,15"/>
<path fill="none" stroke="#000000" stroke-width="0.5" stroke-linecap="square" stroke-miterlimit="10" d="M316.75,510.64  c-3.998,4.646-4.704,9.9-1.5,15"/>
<path fill="none" stroke="#000000" stroke-width="0.5" stroke-linecap="square" stroke-miterlimit="10" d="M332.5,510.64  c-1.734,6.033-1.209,12.753,1.5,18"/>
<path fill="none" stroke="#000000" stroke-width="0.5" stroke-linecap="square" stroke-miterlimit="10" d="M346.75,509.89  c5.135,5.913,6.915,13.12,4.5,20.25"/>
<path fill="none" stroke="#000000" stroke-width="0.5" stroke-linecap="square" stroke-miterlimit="10" d="M387.25,506.14  c7.513,4.781,9.965,12.017,6.75,20.25"/>
<path fill="none" stroke="#000000" stroke-width="0.5" stroke-linecap="square" stroke-miterlimit="10" d="M403.75,503.89  c9.017,1.911,13.46,7.636,12,16.5"/>
<path fill="none" stroke="#000000" stroke-width="0.5" stroke-linecap="square" stroke-miterlimit="10" d="M406.75,500.89  c-0.016-5.856,3.169-9.595,9-10.5"/>
<path fill="none" stroke="#000000" stroke-width="0.5" stroke-linecap="square" stroke-miterlimit="10" d="M391.75,501.64  c-1.558-7.019,1.071-12.92,7.5-15.75"/>
<path fill="none" stroke="#000000" stroke-width="0.5" stroke-linecap="square" stroke-miterlimit="10" d="M381.25,497.89  c-2.023-5.325-1.042-10.604,3-14.25"/>
<path fill="none" stroke="#000000" stroke-width="0.5" stroke-linecap="square" stroke-miterlimit="10" d="M368.5,494.89  c-3.585-3.856-3.844-7.76,0-11.25"/>
<path fill="none" stroke="#000000" stroke-width="0.5" stroke-linecap="square" stroke-miterlimit="10" d="M368.5,496.39  c-1.438,12.919,5.291,19.247,5.25,33"/>
<path fill="none" stroke="#000000" stroke-width="0.5" stroke-linecap="square" stroke-miterlimit="10" d="M349.75,490.39  c1.612,5.126,0.452,9.727-3.75,12.75"/>
<path fill="none" stroke="#000000" stroke-width="0.5" stroke-linecap="square" stroke-miterlimit="10" d="M290.5,493.39  c4.507,2.277,6.91,6.229,6.75,11.25"/>
<path fill="none" stroke="#000000" stroke-width="0.5" stroke-linecap="square" stroke-miterlimit="10" d="M276.25,515.14  c-11.111,5.231-14.809,16.628-9.75,27.75"/>
<path fill="none" stroke="#000000" stroke-width="0.5" stroke-linecap="square" stroke-miterlimit="10" d="M291.25,526.39  c-5.698,7.185-5.82,14.884,0,21.75"/>
<path fill="none" stroke="#000000" stroke-width="0.5" stroke-linecap="square" stroke-miterlimit="10" d="M308.5,527.14  c-4.645,7.612-3.312,14.837,3.75,20.25"/>
<line fill="none" stroke="#000000" stroke-width="0.5" stroke-linecap="square" stroke-miterlimit="10" x1="328" y1="528.64" x2="329.5" y2="545.89"/>
<path fill="none" stroke="#000000" stroke-width="0.5" stroke-linecap="square" stroke-miterlimit="10" d="M356.5,530.14  c4.044,4.37,4.877,9.714,2.25,15"/>
<path fill="none" stroke="#000000" stroke-width="0.5" stroke-linecap="square" stroke-miterlimit="10" d="M383.5,528.64  c7.923,3.483,10.675,9.926,7.5,18"/>
<path fill="none" stroke="#000000" stroke-width="0.5" stroke-linecap="square" stroke-miterlimit="10" d="M405.25,524.89  c9.731,4.287,13.589,12.618,11.25,23.25"/>
<path fill="none" stroke="#000000" stroke-width="0.5" stroke-linecap="square" stroke-miterlimit="10" d="M417.25,518.89  c14.07-2.076,23.727,8.122,24.75,21.75"/>
<path fill="none" stroke="#000000" stroke-linecap="square" stroke-miterlimit="10" d="M309.25,398.89  c7.525,13.146,19.653,14.292,27,0.75"/>
<path fill="none" stroke="#000000" stroke-linecap="square" stroke-miterlimit="10" d="M313.75,405.64  c-2.292,13.838-4.842,27.452-2.25,41.25"/>
<path fill="none" stroke="#000000" stroke-linecap="square" stroke-miterlimit="10" d="M331.75,406.39  c2.902,14.548,3.751,29.492,2.25,44.25"/>
<path fill="none" stroke="#000000" stroke-width="0.5" stroke-linecap="square" stroke-miterlimit="10" d="M313,412.39  c6.753,3.935,13.631,3.486,19.5-1.5"/>
<path fill="none" stroke="#000000" stroke-width="0.5" stroke-linecap="square" stroke-miterlimit="10" d="M313,416.14  c6.51,4.25,13.334,3.986,19.5-0.75"/>
<path fill="none" stroke="#000000" stroke-width="0.5" stroke-linecap="square" stroke-miterlimit="10" d="M311.5,420.64  c7.341,4.009,14.946,3.831,21.75-0.75"/>
<path fill="none" stroke="#000000" stroke-width="0.5" stroke-linecap="square" stroke-miterlimit="10" d="M310.75,425.14  c7.781,3.898,15.738,3.479,22.5-1.5"/>
<path fill="none" stroke="#000000" stroke-width="0.5" stroke-linecap="square" stroke-miterlimit="10" d="M310.75,428.14  c7.517,4.188,15.392,3.979,22.5-0.75"/>
<path fill="none" stroke="#000000" stroke-width="0.5" stroke-linecap="square" stroke-miterlimit="10" d="M311.5,432.64  c7.55,3.642,15.415,3.434,22.5-0.75"/>
<path fill="none" stroke="#000000" stroke-width="0.5" stroke-linecap="square" stroke-miterlimit="10" d="M311.5,437.14  c7.679,3.957,15.587,3.472,22.5-1.5"/>
<path fill="none" stroke="#000000" stroke-width="0.5" stroke-linecap="square" stroke-miterlimit="10" d="M311.5,440.14  c7.475,3.705,15.315,3.448,22.5-0.75"/>
<path fill="none" stroke="#000000" stroke-width="0.5" stroke-linecap="square" stroke-miterlimit="10" d="M311.5,443.89  c7.342,4.286,15.291,3.979,22.5-0.75"/>
<path fill="none" stroke="#000000" stroke-width="0.5" stroke-linecap="square" stroke-miterlimit="10" d="M311.5,448.39  c7.237,4.283,14.885,4.041,21.75-0.75"/>
<path fill="none" stroke="#000000" stroke-width="0.5" stroke-linecap="square" stroke-miterlimit="10" d="M311.5,451.39  c7.002,4.324,14.818,4.045,21.75-0.75"/>
<path fill="none" stroke="#000000" stroke-width="0.5" stroke-linecap="square" stroke-miterlimit="10" d="M310.75,454.39  c5.209,6.132,12.173,8.13,19.5,5.25"/>
<path fill="none" stroke="#000000" stroke-width="0.5" stroke-linecap="square" stroke-miterlimit="10" d="M309.25,458.89  c5.012,5.425,12.118,7.281,19.5,5.25"/>
<path fill="none" stroke="#000000" stroke-width="0.5" stroke-linecap="square" stroke-miterlimit="10" d="M307.75,461.89  c5.569,5.339,12.748,7.188,20.25,5.25"/>
<path fill="none" stroke="#000000" stroke-width="0.5" stroke-linecap="square" stroke-miterlimit="10" d="M306.25,464.89  c5.462,6.255,12.62,8.182,20.25,5.25"/>
<path fill="none" stroke="#000000" stroke-width="0.5" stroke-linecap="square" stroke-miterlimit="10" d="M304.75,468.64  c5.462,6.255,12.62,8.182,20.25,5.25"/>
<path fill="none" stroke="#000000" stroke-width="0.5" stroke-linecap="square" stroke-miterlimit="10" d="M304,471.64  c5.862,6.527,13.424,8.606,21.75,6"/>
<path fill="none" stroke="#000000" stroke-width="0.5" stroke-linecap="square" stroke-miterlimit="10" d="M303.25,477.64  c7.051,5.159,15.167,6.22,23.25,3"/>
<path fill="none" stroke="#000000" stroke-width="0.5" stroke-linecap="square" stroke-miterlimit="10" d="M302.5,481.39  c6.521,5.884,14.457,7.221,22.5,3.75"/>
<path fill="none" stroke="#000000" stroke-width="0.5" stroke-linecap="square" stroke-miterlimit="10" d="M304,491.89  c8.008,3.91,15.999,2.558,22.5-3.75"/>
<path fill="none" stroke="#000000" stroke-width="0.5" stroke-linecap="square" stroke-miterlimit="10" d="M306.25,497.89  c8.454,2.188,16.275-0.153,21.75-6.75"/>
<path fill="none" stroke="#000000" stroke-width="0.5" stroke-linecap="square" stroke-miterlimit="10" d="M309.25,501.64  c8.581,2.127,16.597-0.233,22.5-6.75"/>
<path fill="none" stroke="#000000" stroke-width="0.5" stroke-linecap="square" stroke-miterlimit="10" d="M314.5,506.14  c8.421,1.85,16.189-0.482,21.75-6.75"/>
<path fill="none" stroke="#000000" stroke-width="0.5" stroke-linecap="square" stroke-miterlimit="10" d="M301.75,485.14  c6.852,5.149,14.704,6.26,22.5,3"/>
<path fill-rule="evenodd" clip-rule="evenodd" fill="#D6D7D9" stroke="#000000" stroke-width="0.5" stroke-linecap="square" stroke-miterlimit="10" d="  M318.25,398.14C312.888,398.317,313.186,398.307,318.25,398.14L318.25,398.14z"/>
<path fill-rule="evenodd" clip-rule="evenodd" fill="#D6D7D9" stroke="#000000" stroke-width="0.5" stroke-linecap="square" stroke-miterlimit="10" d="  M331,398.89C326.602,398.706,326.18,398.688,331,398.89L331,398.89z"/>
<path fill="none" stroke="#000000" stroke-width="0.5" stroke-linecap="square" stroke-miterlimit="10" d="M315.25,403.39  c4.51-4.19,9.454-3.534,13.5,1.5"/>
</svg>