<svg xmlns="http://www.w3.org/2000/svg" xmlns:xlink="http://www.w3.org/1999/xlink" version="1.1" id="Layer_1" x="0px" y="0px" enable-background="new 0 0 822.05 841.89" xml:space="preserve" viewBox="206.25 284.42 409.63 272.46">
<path fill-rule="evenodd" clip-rule="evenodd" fill="#808285" stroke="#000000" stroke-width="2" stroke-linecap="square" stroke-miterlimit="10" d="  M213.25,492.89c19.848-7.886,33.956,8.548,55.5,0c32.514-12.899,61.878-29.813,99-36c24.575-4.096,243.761-35.113,207.75,36.75  c17.78,2.08,51.558,20.507,34.875,42.75c-21.947,29.263-73.165,16.521-103.125,14.25c-28.583-2.167-254.097,31.615-224.25-48.75  c-30.056,27.18-45.479-7.666-75.75-4.5C208.587,494.763,210.698,494.476,213.25,492.89z"/>
<path fill="none" stroke="#000000" stroke-width="2" stroke-linecap="square" stroke-miterlimit="10" d="M318.25,471.89  c38.682,3.708,70.473,19.861,110.25,18.75c35.125-0.981,89.726,4.108,119.25-17.25"/>
<path fill="none" stroke="#000000" stroke-width="2" stroke-linecap="square" stroke-miterlimit="10" d="M286,498.14  c20.823-12.076,41.32,0.459,61.896,7.158c29.278,9.532,57.827,15.962,88.737,16.959c39.266,1.267,111.965,8.195,138.867-28.617"/>
<path fill="none" stroke="#000000" stroke-width="2" stroke-linecap="square" stroke-miterlimit="10" d="M343,505.64  c-4.87,0.903-9.112,1.476-13.5,3.75c11.56,10.334,34.468,10.175,50.25,7.5C367.5,513.14,355.25,509.39,343,505.64z"/>
<path fill-rule="evenodd" clip-rule="evenodd" fill="#6D6F71" stroke="#000000" stroke-width="2" stroke-linecap="square" stroke-miterlimit="10" d="  M409.75,490.64c20-0.25,40-0.5,60-0.75c-74.609-17.442-62.646-65.729-37.125-121.875c12.345-27.159,7.522-92.277-35.625-81.375  c-52.333,13.224-16.207,69.686-13.125,100.5C387.156,419.95,343.426,482.068,409.75,490.64z"/>
<path fill="none" stroke="#000000" stroke-width="2" stroke-linecap="square" stroke-miterlimit="10" d="M415.75,450.14  c35.843,8.902,80.095,10.4,111.75,30.75"/>
<line fill="none" stroke="#000000" stroke-width="2" stroke-linecap="square" stroke-miterlimit="10" x1="230.5" y1="490.64" x2="226.75" y2="501.14"/>
<path fill="none" stroke="#000000" stroke-width="2" stroke-linecap="square" stroke-miterlimit="10" d="M240.25,495.14  c-4.454,3.912-5.118,8.164-1.5,12.75"/>
<path fill="none" stroke="#000000" stroke-width="2" stroke-linecap="square" stroke-miterlimit="10" d="M249.25,498.89  c-1.231,4.384-0.718,8.948,1.5,12.75"/>
<path fill="none" stroke="#000000" stroke-width="2" stroke-linecap="square" stroke-miterlimit="10" d="M259.75,498.14  c-1.455,5.67,0.372,10.757,5.25,13.5"/>
<path fill="none" stroke="#000000" stroke-width="2" stroke-linecap="square" stroke-miterlimit="10" d="M271.75,489.14  c-0.12,6.838,3.06,12.464,9,15"/>
<path fill="none" stroke="#000000" stroke-width="2" stroke-linecap="square" stroke-miterlimit="10" d="M286.75,480.89  c-1.887,5.083-0.628,9.784,3.75,12.75"/>
<path fill="none" stroke="#000000" stroke-width="2" stroke-linecap="square" stroke-miterlimit="10" d="M303.25,473.39  c-3.389,6.761-3.116,13.537,1.5,18.75"/>
<path fill="none" stroke="#000000" stroke-width="2" stroke-linecap="square" stroke-miterlimit="10" d="M326.5,474.14  c-5.127,7.375-6.438,15.999-3,23.25"/>
<path fill="none" stroke="#000000" stroke-width="2" stroke-linecap="square" stroke-miterlimit="10" d="M351.25,478.64  c-7.054,7.159-8.913,16.148-5.25,25.5"/>
<path fill="none" stroke="#000000" stroke-width="2" stroke-linecap="square" stroke-miterlimit="10" d="M374.5,486.89  c-8.915,7.1-10.289,16.188-3.75,25.5"/>
<path fill="none" stroke="#000000" stroke-width="2" stroke-linecap="square" stroke-miterlimit="10" d="M394,491.39  c-6.692,7.795-7.72,16.597-2.25,24.75"/>
<path fill="none" stroke="#000000" stroke-width="2" stroke-linecap="square" stroke-miterlimit="10" d="M421,490.64  c-3.395,10.644-3.297,21.857,2.25,31.5"/>
<path fill="none" stroke="#000000" stroke-width="2" stroke-linecap="square" stroke-miterlimit="10" d="M444.25,489.89  c9.099,8.859,13.183,21.854,8.25,33.75"/>
<path fill="none" stroke="#000000" stroke-width="2" stroke-linecap="square" stroke-miterlimit="10" d="M513.25,483.89  c13.047,6.662,17.909,20.401,12,33.75"/>
<path fill="none" stroke="#000000" stroke-width="2" stroke-linecap="square" stroke-miterlimit="10" d="M541,479.39  c14.063,2.186,24.633,13.169,21,27.75"/>
<path fill="none" stroke="#000000" stroke-width="2" stroke-linecap="square" stroke-miterlimit="10" d="M547,474.89  c-0.323-10.15,4.99-16.815,15-18.75"/>
<path fill="none" stroke="#000000" stroke-width="2" stroke-linecap="square" stroke-miterlimit="10" d="M520.75,475.64  c-2.398-11.488,1.856-22.577,12.75-27"/>
<path fill="none" stroke="#000000" stroke-width="2" stroke-linecap="square" stroke-miterlimit="10" d="M503.5,469.64  c-3.814-9.757-2.359-18.776,5.25-24.75"/>
<path fill="none" stroke="#000000" stroke-width="2" stroke-linecap="square" stroke-miterlimit="10" d="M481.75,463.64  c-5.924-6.088-5.98-12.843,0-18.75"/>
<path fill="none" stroke="#000000" stroke-width="2" stroke-linecap="square" stroke-miterlimit="10" d="M481,466.64  c3.378,8.824,5.136,14.946-2.25,21.75c11.752,7.43,17.849,20.651,12,33.75"/>
<path fill="none" stroke="#000000" stroke-width="2" stroke-linecap="square" stroke-miterlimit="10" d="M449.5,456.14  c3.395,9.44,1.303,17.711-6.75,22.5"/>
<path fill="none" stroke="#000000" stroke-width="2" stroke-linecap="square" stroke-miterlimit="10" d="M349.75,462.14  c8.149,3.986,12.031,10.814,10.5,19.5"/>
<path fill="none" stroke="#000000" stroke-width="2" stroke-linecap="square" stroke-miterlimit="10" d="M325,498.14  c-19.577,9.094-24.642,28.764-16.5,48"/>
<path fill="none" stroke="#000000" stroke-width="2" stroke-linecap="square" stroke-miterlimit="10" d="M351.25,518.39  c-10.015,10.774-9.871,25.92,0,36.75"/>
<path fill="none" stroke="#000000" stroke-width="2" stroke-linecap="square" stroke-miterlimit="10" d="M379.75,519.14  c-7.097,11.967-5.81,26.522,6.75,33.75"/>
<line fill="none" stroke="#000000" stroke-width="2" stroke-linecap="square" stroke-miterlimit="10" x1="413.5" y1="521.39" x2="415.75" y2="550.64"/>
<path fill="none" stroke="#000000" stroke-width="2" stroke-linecap="square" stroke-miterlimit="10" d="M461.5,523.64  c6.651,7.633,8.073,16.562,3.75,25.5"/>
<path fill="none" stroke="#000000" stroke-width="2" stroke-linecap="square" stroke-miterlimit="10" d="M507.25,521.39  c13.731,4.733,18.558,18.809,12,31.5"/>
<path fill="none" stroke="#000000" stroke-width="2" stroke-linecap="square" stroke-miterlimit="10" d="M543.25,514.64  c16.07,6.394,24.817,22.21,20.25,39"/>
<path fill="none" stroke="#000000" stroke-width="2" stroke-linecap="square" stroke-miterlimit="10" d="M565,505.64  c24.001-5.38,39.704,14.654,41.25,36.75"/>
<path fill="none" stroke="#000000" stroke-width="2" stroke-linecap="square" stroke-miterlimit="10" d="M380.5,301.64  c13.57,18.713,35.533,26.596,46.5,0.75"/>
<path fill="none" stroke="#000000" stroke-width="2" stroke-linecap="square" stroke-miterlimit="10" d="M389.5,313.64  c-7.1,21.687-8.601,47.288-4.5,69.75"/>
<path fill="none" stroke="#000000" stroke-width="2" stroke-linecap="square" stroke-miterlimit="10" d="M419.5,314.39  c5.317,23.976,7.218,50.662,3.75,75"/>
<path fill="none" stroke="#000000" stroke-width="2" stroke-linecap="square" stroke-miterlimit="10" d="M387.25,324.14  c10.698,6.783,23.776,6.58,33.75-1.5"/>
<path fill="none" stroke="#000000" stroke-width="2" stroke-linecap="square" stroke-miterlimit="10" d="M387.25,330.89  c10.698,6.783,23.776,6.58,33.75-1.5"/>
<path fill="none" stroke="#000000" stroke-width="2" stroke-linecap="square" stroke-miterlimit="10" d="M385,338.39  c11.878,6.991,26.199,6.448,37.5-1.5"/>
<path fill="none" stroke="#000000" stroke-width="2" stroke-linecap="square" stroke-miterlimit="10" d="M384.25,345.89  c11.893,6.845,26.35,6.528,37.5-1.5"/>
<path fill="none" stroke="#000000" stroke-width="2" stroke-linecap="square" stroke-miterlimit="10" d="M384.25,351.14  c11.893,6.845,26.35,6.528,37.5-1.5"/>
<path fill="none" stroke="#000000" stroke-width="2" stroke-linecap="square" stroke-miterlimit="10" d="M385,358.64  c12.227,6.735,26.703,6.621,38.25-1.5"/>
<path fill="none" stroke="#000000" stroke-width="2" stroke-linecap="square" stroke-miterlimit="10" d="M385,366.14  c11.893,6.845,26.35,6.528,37.5-1.5"/>
<path fill="none" stroke="#000000" stroke-width="2" stroke-linecap="square" stroke-miterlimit="10" d="M385,371.39  c11.893,6.845,26.35,6.528,37.5-1.5"/>
<path fill="none" stroke="#000000" stroke-width="2" stroke-linecap="square" stroke-miterlimit="10" d="M385,378.14  c12.17,7.005,26.612,6.224,38.25-1.5"/>
<path fill="none" stroke="#000000" stroke-width="2" stroke-linecap="square" stroke-miterlimit="10" d="M384.25,385.64  c12.227,6.735,26.703,6.621,38.25-1.5"/>
<path fill="none" stroke="#000000" stroke-width="2" stroke-linecap="square" stroke-miterlimit="10" d="M384.25,390.89  c12.227,6.735,26.703,6.621,38.25-1.5"/>
<path fill="none" stroke="#000000" stroke-width="2" stroke-linecap="square" stroke-miterlimit="10" d="M383.5,396.14  c8.554,9.83,21.438,13.369,33.75,9"/>
<path fill="none" stroke="#000000" stroke-width="2" stroke-linecap="square" stroke-miterlimit="10" d="M380.5,402.89  c8.938,9.544,22.09,14.132,34.5,9"/>
<path fill="none" stroke="#000000" stroke-width="2" stroke-linecap="square" stroke-miterlimit="10" d="M379,408.14  c8.888,9.792,21.963,13.482,34.5,9"/>
<path fill="none" stroke="#000000" stroke-width="2" stroke-linecap="square" stroke-miterlimit="10" d="M376,413.39  c8.938,9.544,22.09,14.132,34.5,9"/>
<path fill="none" stroke="#000000" stroke-width="2" stroke-linecap="square" stroke-miterlimit="10" d="M373.75,420.14  c8.499,9.81,21.554,13.919,33.75,9"/>
<path fill="none" stroke="#000000" stroke-width="2" stroke-linecap="square" stroke-miterlimit="10" d="M372.25,424.64  c9.771,10.723,23.81,16.007,37.5,9.75"/>
<path fill="none" stroke="#000000" stroke-width="2" stroke-linecap="square" stroke-miterlimit="10" d="M371.5,434.39  c10.427,9.129,25.464,12.557,38.25,6"/>
<path fill="none" stroke="#000000" stroke-width="2" stroke-linecap="square" stroke-miterlimit="10" d="M369.25,441.89  c10.989,8.88,25.885,11.317,39,6"/>
<path fill="none" stroke="#000000" stroke-width="2" stroke-linecap="square" stroke-miterlimit="10" d="M372.25,459.89  c13.142,5.197,28.356,3.983,38.25-6.75"/>
<path fill="none" stroke="#000000" stroke-width="2" stroke-linecap="square" stroke-miterlimit="10" d="M376,469.64  c13.636,2.909,27.929-0.925,37.5-11.25"/>
<path fill="none" stroke="#000000" stroke-width="2" stroke-linecap="square" stroke-miterlimit="10" d="M382,475.64  c13.481,3.572,28.04-0.186,36.75-11.25"/>
<path fill="none" stroke="#000000" stroke-width="2" stroke-linecap="square" stroke-miterlimit="10" d="M389.5,483.14  c13.714,3.595,28.62,0.03,37.5-11.25"/>
<path fill="none" stroke="#000000" stroke-width="2" stroke-linecap="square" stroke-miterlimit="10" d="M368.5,447.14  c11.02,9.131,25.717,11.059,39,6"/>
<path fill-rule="evenodd" clip-rule="evenodd" fill="#D6D7D9" stroke="#000000" stroke-width="2" stroke-linecap="square" stroke-miterlimit="10" d="  M396.25,300.89C387.32,302.901,387.157,298.516,396.25,300.89L396.25,300.89z"/>
<path fill-rule="evenodd" clip-rule="evenodd" fill="#D6D7D9" stroke="#000000" stroke-width="2" stroke-linecap="square" stroke-miterlimit="10" d="  M418,300.89C409.468,303.104,410.138,299.828,418,300.89L418,300.89z"/>
<path fill="none" stroke="#000000" stroke-width="2" stroke-linecap="square" stroke-miterlimit="10" d="M391,309.89  c7.36-7.428,16.305-6.641,23.25,1.5"/>
</svg>