<svg xmlns="http://www.w3.org/2000/svg" xmlns:xlink="http://www.w3.org/1999/xlink" version="1.1" id="Layer_1" x="0px" y="0px" enable-background="new 0 0 822.05 841.89" xml:space="preserve" viewBox="241.22 263.33 347.21 315.13">
<path fill-rule="evenodd" clip-rule="evenodd" fill="#6C5635" stroke="#000000" stroke-width="2" stroke-linecap="square" stroke-miterlimit="10" d="  M586.477,264.332c-28.918,16.592-58.25,27.268-80.602,51.216c-24.772,26.542-49.942,51.824-84.177,66.2  c-28.912,12.142-70.27,19.684-93.976,40.833c-13.256,11.826-19.589,29.423-33.768,40.92c-16.629,13.482-32.22,21.225-51.732,30.33  c31.568-6.577,50.292-13.957,70.392-40.518c12.559-16.597,40.652-45.701,63.108-40.482c-18.405,15.401-39,57.37-39,81  c0,24.012-33.674,63.866-48.75,83.25c19.722,6.615,55.772-73.9,56.766-91.781c2.338-42.084,43.134-73.346,73.738-88.219  c30.114-14.635,50.841-30.909,77.976-56.448C517.197,321.109,597.032,293.821,586.477,264.332z"/>
<path fill-rule="evenodd" clip-rule="evenodd" fill="#FFF799" stroke="#000000" stroke-width="2" stroke-linecap="square" stroke-miterlimit="10" d="  M452.977,381.332c1.564,16.343-12.921,30.616-18,45c-5.15,14.588-9.677,34.207-13.5,49.5c-8.878,35.512,31.321,46.903,47.25,72.75  c33.707-16.826,18.445-52.751,13.5-84C477.567,435.137,480.586,396.037,452.977,381.332z"/>
<path fill="none" stroke="#000000" stroke-width="2" stroke-linecap="square" stroke-miterlimit="10" d="M431.977,504.332  c18.752,1.521,33.454,6.898,37.5-17.25"/>
<path fill="none" stroke="#000000" stroke-width="2" stroke-linecap="square" stroke-miterlimit="10" d="M473.227,424.832  c-11.041,12.268-17.203,25.425-35.25,23.25"/>
<path fill="none" stroke="#000000" stroke-width="2" stroke-linecap="square" stroke-miterlimit="10" d="M451.477,529.832  c9.561-9.192,18.696-16.301,24-28.5"/>
</svg>