<svg xmlns="http://www.w3.org/2000/svg" xmlns:xlink="http://www.w3.org/1999/xlink" version="1.1" id="Layer_1" x="0px" y="0px" enable-background="new 0 0 822.05 841.89" xml:space="preserve" viewBox="227.75 256.98 365.75 328.6">
<path fill-rule="evenodd" clip-rule="evenodd" fill="#EAB649" stroke="#000000" stroke-width="2" stroke-linecap="square" stroke-miterlimit="10" d="  M581.25,341.64c2.302,85.686-189.331,86.199-189.75,0C391.078,254.783,584.252,255.228,581.25,341.64z"/>
<path fill-rule="evenodd" clip-rule="evenodd" fill="#FFDB78" stroke="#000000" stroke-width="2" stroke-linecap="square" stroke-miterlimit="10" d="  M425.25,316.89c19.506,78.359,114.527,71.459,128.25-6.75C510.75,312.39,468,314.64,425.25,316.89z"/>
<path fill-rule="evenodd" clip-rule="evenodd" fill="#B29542" stroke="#000000" stroke-width="2" stroke-linecap="square" stroke-miterlimit="10" d="  M553.5,304.14c-3.036,61.777-128.284,61.796-128.25,0C425.283,242.485,549.997,242.715,553.5,304.14z"/>
<path fill-rule="evenodd" clip-rule="evenodd" fill="#FFDB78" stroke="#000000" stroke-width="2" stroke-linecap="square" stroke-miterlimit="10" d="  M428.25,287.64c-26.265-10.712-24.941,23.813-1.5,27.75C424.873,306.387,425.419,296.645,428.25,287.64z"/>
<path fill-rule="evenodd" clip-rule="evenodd" fill="#EAB649" stroke="#000000" stroke-width="2" stroke-linecap="square" stroke-miterlimit="10" d="  M425.25,295.14c-3.708-0.697-6.582-1.916-10.5-1.5c2.533,7.014,4.326,10.276,10.5,15C425.25,304.212,425.684,299.538,425.25,295.14z  "/>
<path fill="none" stroke="#000000" stroke-width="2" stroke-linecap="square" stroke-miterlimit="10" d="M414.75,293.64  c-3.993,0.958-5.881,3.455-5.25,7.5"/>
<path fill-rule="evenodd" clip-rule="evenodd" fill="#6C5635" stroke="#000000" stroke-width="2" stroke-linecap="square" stroke-miterlimit="10" d="  M428.25,317.64c16.717-41.21,119.84-71.16,122.25-12C552.89,364.299,448.031,359.097,428.25,317.64z"/>
<path fill-rule="evenodd" clip-rule="evenodd" fill="#0071BC" stroke="#000000" stroke-width="2" stroke-linecap="square" stroke-miterlimit="10" d="  M418.5,399.39c1.946,86.477-190.066,86.641-189.75,0C229.065,312.938,421.166,313.55,418.5,399.39z"/>
<path fill-rule="evenodd" clip-rule="evenodd" fill="#00AEEF" stroke="#000000" stroke-width="2" stroke-linecap="square" stroke-miterlimit="10" d="  M262.5,375.39c21.71,77.065,112.944,71.475,128.25-6.75C348,370.89,305.25,373.14,262.5,375.39z"/>
<path fill-rule="evenodd" clip-rule="evenodd" fill="#7CAABF" stroke="#000000" stroke-width="2" stroke-linecap="square" stroke-miterlimit="10" d="  M390.75,362.64c-2.864,61.143-127.591,61.345-128.25,0C261.835,300.738,389.128,300.509,390.75,362.64z"/>
<path fill-rule="evenodd" clip-rule="evenodd" fill="#7BD3F7" stroke="#000000" stroke-width="2" stroke-linecap="square" stroke-miterlimit="10" d="  M265.5,346.14c-25.122-11.958-25.64,22.772-1.5,27C262.054,364.396,262.604,354.86,265.5,346.14z"/>
<path fill-rule="evenodd" clip-rule="evenodd" fill="#90A7D6" stroke="#000000" stroke-width="2" stroke-linecap="square" stroke-miterlimit="10" d="  M262.5,353.64c-16.153-3.576-9.927,5.224,0,12.75C262.5,362.164,262.738,357.858,262.5,353.64z"/>
<path fill="none" stroke="#000000" stroke-width="2" stroke-linecap="square" stroke-miterlimit="10" d="M252,352.14  c-4.258,0.501-6.038,3.212-5.25,7.5"/>
<path fill-rule="evenodd" clip-rule="evenodd" fill="#6C5635" stroke="#000000" stroke-width="2" stroke-linecap="square" stroke-miterlimit="10" d="  M265.5,375.39c16.246-41.516,118.763-70.53,122.25-12C391.169,420.789,282.662,419.198,265.5,375.39z"/>
<path fill-rule="evenodd" clip-rule="evenodd" fill="#93B670" stroke="#000000" stroke-width="2" stroke-linecap="square" stroke-miterlimit="10" d="  M592.5,451.89c-4.96,86.723-190.856,86.864-190.5,0C402.354,365.648,586.807,366.065,592.5,451.89z"/>
<path fill-rule="evenodd" clip-rule="evenodd" fill="#0DB14B" stroke="#000000" stroke-width="2" stroke-linecap="square" stroke-miterlimit="10" d="  M435.75,427.89c21.176,75.939,115.533,73.232,128.25-6.75C521.25,423.39,478.5,425.64,435.75,427.89z"/>
<path fill-rule="evenodd" clip-rule="evenodd" fill="#3D5F40" stroke="#000000" stroke-width="2" stroke-linecap="square" stroke-miterlimit="10" d="  M564.75,415.14c-4.074,61.309-128.239,61.726-128.25,0C436.489,353.206,561.177,353.547,564.75,415.14z"/>
<path fill-rule="evenodd" clip-rule="evenodd" fill="#0DB14B" stroke="#000000" stroke-width="2" stroke-linecap="square" stroke-miterlimit="10" d="  M438.75,398.64c-25.967-10.98-24.259,22.569-1.5,27.75C435.639,417.287,436.158,407.623,438.75,398.64z"/>
<path fill-rule="evenodd" clip-rule="evenodd" fill="#93B670" stroke="#000000" stroke-width="2" stroke-linecap="square" stroke-miterlimit="10" d="  M435.75,406.14c-3.988-0.877-6.503-2.617-10.5-1.5c2.628,6.667,4.633,9.701,10.5,14.25  C435.75,414.666,435.999,410.355,435.75,406.14z"/>
<path fill="none" stroke="#000000" stroke-width="2" stroke-linecap="square" stroke-miterlimit="10" d="M425.25,404.64  c-3.513,1.066-5.389,3.77-5.25,7.5"/>
<path fill-rule="evenodd" clip-rule="evenodd" fill="#6C5635" stroke="#000000" stroke-width="2" stroke-linecap="square" stroke-miterlimit="10" d="  M439.5,428.64c14.353-43.666,118.239-70.179,122.25-12.75C565.775,473.523,456.857,471.661,439.5,428.64z"/>
<path fill-rule="evenodd" clip-rule="evenodd" fill="#A9469A" stroke="#000000" stroke-width="2" stroke-linecap="square" stroke-miterlimit="10" d="  M453.75,519.39c-3.246,86.965-191.206,86.89-190.5,0C263.949,433.269,449.113,433.588,453.75,519.39z"/>
<path fill-rule="evenodd" clip-rule="evenodd" fill="#CB9CC7" stroke="#000000" stroke-width="2" stroke-linecap="square" stroke-miterlimit="10" d="  M297,495.39c21.193,75.271,116.391,73.957,128.25-6.75C382.5,490.89,339.75,493.14,297,495.39z"/>
<path fill-rule="evenodd" clip-rule="evenodd" fill="#7A4C6F" stroke="#000000" stroke-width="2" stroke-linecap="square" stroke-miterlimit="10" d="  M425.25,482.64c1.142,61.419-127.5,61.551-127.5,0S426.392,421.221,425.25,482.64z"/>
<path fill-rule="evenodd" clip-rule="evenodd" fill="#CB9CC7" stroke="#000000" stroke-width="2" stroke-linecap="square" stroke-miterlimit="10" d="  M300,466.14c-26.474-11.028-23.922,22.646-1.5,27.75C296.922,484.791,297.444,475.125,300,466.14z"/>
<path fill-rule="evenodd" clip-rule="evenodd" fill="#A9469A" stroke="#000000" stroke-width="2" stroke-linecap="square" stroke-miterlimit="10" d="  M297,473.64c-4.019-0.833-6.339-2.445-10.5-1.5c2.608,6.738,4.486,10.154,10.5,15C297,482.719,297.432,478.038,297,473.64z"/>
<path fill="none" stroke="#000000" stroke-width="2" stroke-linecap="square" stroke-miterlimit="10" d="M286.5,472.14  c-3.513,1.065-5.389,3.77-5.25,7.5"/>
<path fill-rule="evenodd" clip-rule="evenodd" fill="#6C5635" stroke="#000000" stroke-width="2" stroke-linecap="square" stroke-miterlimit="10" d="  M300.75,496.14c15.062-42.902,119.698-70.453,122.25-12C425.493,541.256,317.358,539.6,300.75,496.14z"/>
</svg>