<svg xmlns="http://www.w3.org/2000/svg" xmlns:xlink="http://www.w3.org/1999/xlink" version="1.1" id="Layer_1" x="0px" y="0px" enable-background="new 0 0 822.05 841.89" xml:space="preserve" viewBox="219.07 247.65 383.29 346.6">
<path fill-rule="evenodd" clip-rule="evenodd" fill="#8E9093" stroke="#000000" stroke-width="0.75" stroke-linecap="square" stroke-miterlimit="10" d="  M296.75,390.149c-12.887,49.827,71.795,44.552,97.875,33.375c10.902-4.672,29.605-22.654,21.375-36.375  C407.136,372.372,315.718,389.047,296.75,390.149z"/>
<path fill-rule="evenodd" clip-rule="evenodd" fill="#8E9093" stroke="#000000" stroke-width="2" stroke-linecap="square" stroke-miterlimit="10" d="  M455.75,297.899c-6.83,66.809-201.238,65.869-201,0C254.988,232.052,445.954,232.407,455.75,297.899z"/>
<path fill-rule="evenodd" clip-rule="evenodd" fill="#8E9093" stroke="#000000" stroke-width="2" stroke-linecap="square" stroke-miterlimit="10" d="  M401,255.899c15.766-13.439,32.683-4.383,49.102,2.977c17.305,7.757,2.698,19.462-8.602,15.023c3.913-2.47,5.544-4.88,8.25-8.25  C430.778,258.953,419.011,251.337,401,255.899z"/>
<path fill-rule="evenodd" clip-rule="evenodd" fill="#C4C6C8" stroke="#000000" stroke-width="2" stroke-linecap="square" stroke-miterlimit="10" d="  M256.25,308.399c11.372,56.246,41.38,99.125,104.625,93.375c56.49-5.135,87.589-39.87,94.125-95.625  C418.196,368.923,298.708,352.127,256.25,308.399z"/>
<path fill="none" stroke="#000000" stroke-width="0.75" stroke-linecap="square" stroke-miterlimit="10" d="M300.5,392.399  c1.241,51.189,104.627,46.528,110.25-3"/>
<path fill-rule="evenodd" clip-rule="evenodd" fill="#C4C6C8" stroke="#000000" stroke-width="0.75" stroke-linecap="square" stroke-miterlimit="10" d="  M320,397.649c20.615,17.058,50.031,16.96,70.5,0C367.758,402.272,342.431,404.927,320,397.649z"/>
<path fill="none" stroke="#000000" stroke-width="0.75" stroke-linecap="square" stroke-miterlimit="10" d="M403.25,279.899  C392.284,281.319,392.643,278.086,403.25,279.899L403.25,279.899z"/>
<path fill="none" stroke="#000000" stroke-width="0.75" stroke-linecap="square" stroke-miterlimit="10" d="M437.75,295.649  c-0.936-0.071-1.601,4.539-4.5,4.5C430.745,286.529,434.043,295.368,437.75,295.649z"/>
<path fill="none" stroke="#000000" stroke-width="0.75" stroke-linecap="square" stroke-miterlimit="10" d="M332.75,289.649  C325.228,289.523,325.346,289.525,332.75,289.649L332.75,289.649z"/>
<path fill="none" stroke="#000000" stroke-width="0.75" stroke-linecap="square" stroke-miterlimit="10" d="M355.25,288.149  C347.441,288.034,347.473,288.035,355.25,288.149L355.25,288.149z"/>
<path fill="none" stroke="#000000" stroke-width="0.75" stroke-linecap="square" stroke-miterlimit="10" d="M368,379.649  C360.404,379.326,360.757,379.34,368,379.649L368,379.649z"/>
<path fill="none" stroke="#000000" stroke-width="0.75" stroke-linecap="square" stroke-miterlimit="10" d="M368.75,393.149  c-1.072,0.089-2.464,4.494-6.75,1.5c0-0.75,0-1.5,0-2.25C365.276,389.815,367.688,393.237,368.75,393.149z"/>
<path fill="none" stroke="#000000" stroke-width="0.75" stroke-linecap="square" stroke-miterlimit="10" d="M345.5,393.149  c-2.378,0.264-4.106,4.234-6.75,0C341.979,390.237,343.403,393.381,345.5,393.149z"/>
<path fill="none" stroke="#000000" stroke-width="0.75" stroke-linecap="square" stroke-miterlimit="10" d="M395,375.899  C387.596,376.022,387.478,376.024,395,375.899L395,375.899z"/>
<path fill="none" stroke="#000000" stroke-width="0.75" stroke-linecap="square" stroke-miterlimit="10" d="M414.502,369.899  C409.304,369.161,410.241,369.294,414.502,369.899L414.502,369.899z"/>
<path fill="none" stroke="#000000" stroke-width="0.75" stroke-linecap="square" stroke-miterlimit="10" d="M431.75,361.649  c-2.278-0.786-6.517,6.272-3.75-3.75C433.271,356.713,429.465,360.861,431.75,361.649z"/>
<path fill="none" stroke="#000000" stroke-width="0.75" stroke-linecap="square" stroke-miterlimit="10" d="M394.25,388.649  c-2.77-0.971-5.04,6.498-5.25-2.25C394.776,381.016,391.678,387.748,394.25,388.649z"/>
<path fill="none" stroke="#000000" stroke-width="0.75" stroke-linecap="square" stroke-miterlimit="10" d="M410.75,382.649  C406.16,380.932,406.937,381.223,410.75,382.649L410.75,382.649z"/>
<path fill="none" stroke="#000000" stroke-width="0.75" stroke-linecap="square" stroke-miterlimit="10" d="M426.5,372.899  C423.394,371.113,423.088,370.938,426.5,372.899L426.5,372.899z"/>
<path fill="none" stroke="#000000" stroke-width="0.75" stroke-linecap="square" stroke-miterlimit="10" d="M344,379.649  C336.526,379.52,336.707,379.523,344,379.649L344,379.649z"/>
<path fill="none" stroke="#000000" stroke-width="0.75" stroke-linecap="square" stroke-miterlimit="10" d="M314.75,375.899  C311.111,376.929,308.963,377.537,314.75,375.899L314.75,375.899z"/>
<path fill="none" stroke="#000000" stroke-width="0.75" stroke-linecap="square" stroke-miterlimit="10" d="M317,386.399  C313.311,387.884,312.916,388.043,317,386.399L317,386.399z"/>
<path fill="none" stroke="#000000" stroke-width="0.75" stroke-linecap="square" stroke-miterlimit="10" d="M294.5,367.649  C289.408,369.5,290.579,369.075,294.5,367.649L294.5,367.649z"/>
<path fill="none" stroke="#000000" stroke-width="0.75" stroke-linecap="square" stroke-miterlimit="10" d="M298.25,379.649  C294.375,381.449,297.552,379.973,298.25,379.649L298.25,379.649z"/>
<path fill="none" stroke="#000000" stroke-width="0.75" stroke-linecap="square" stroke-miterlimit="10" d="M355.25,303.149  C348.497,302.961,348.613,302.964,355.25,303.149L355.25,303.149z"/>
<path fill="none" stroke="#000000" stroke-width="0.75" stroke-linecap="square" stroke-miterlimit="10" d="M335,303.899  C328.482,304.6,328.064,304.645,335,303.899L335,303.899z"/>
<path fill="none" stroke="#000000" stroke-width="0.75" stroke-linecap="square" stroke-miterlimit="10" d="M336.5,317.399  c-1.965,0-2.418,4.534-5.25,0C334.082,312.865,334.535,317.399,336.5,317.399z"/>
<path fill="none" stroke="#000000" stroke-width="0.75" stroke-linecap="square" stroke-miterlimit="10" d="M320.75,320.399  c-1.965,0-2.418,4.534-5.25,0C318.332,315.865,318.785,320.399,320.75,320.399z"/>
<path fill="none" stroke="#000000" stroke-width="0.75" stroke-linecap="square" stroke-miterlimit="10" d="M297.5,315.149  C292.459,315.868,292.865,315.81,297.5,315.149L297.5,315.149z"/>
<path fill="none" stroke="#000000" stroke-width="0.75" stroke-linecap="square" stroke-miterlimit="10" d="M302,326.399  c-1.731-0.21-2.395,4.57-5.25,0C299.76,320.047,299.764,326.127,302,326.399z"/>
<path fill="none" stroke="#000000" stroke-width="0.75" stroke-linecap="square" stroke-miterlimit="10" d="M287,324.149  C282.365,323.488,281.959,323.43,287,324.149L287,324.149z"/>
<path fill="none" stroke="#000000" stroke-width="0.75" stroke-linecap="square" stroke-miterlimit="10" d="M337.25,327.149  C332.676,327.149,332.676,327.149,337.25,327.149L337.25,327.149z"/>
<path fill="none" stroke="#000000" stroke-width="0.75" stroke-linecap="square" stroke-miterlimit="10" d="M356.75,325.649  C351.816,325.857,351.968,325.851,356.75,325.649L356.75,325.649z"/>
<path fill="none" stroke="#000000" stroke-width="0.75" stroke-linecap="square" stroke-miterlimit="10" d="M370.25,326.399  C366.543,326.399,366.543,326.399,370.25,326.399L370.25,326.399z"/>
<path fill="none" stroke="#000000" stroke-width="0.75" stroke-linecap="square" stroke-miterlimit="10" d="M387.5,328.649  C382.926,328.649,382.926,328.649,387.5,328.649L387.5,328.649z"/>
<path fill="none" stroke="#000000" stroke-width="0.75" stroke-linecap="square" stroke-miterlimit="10" d="M401,333.899  C396.156,333.245,396.682,333.316,401,333.899L401,333.899z"/>
<path fill="none" stroke="#000000" stroke-width="0.75" stroke-linecap="square" stroke-miterlimit="10" d="M383.75,336.899  C379.868,337.118,380.229,337.097,383.75,336.899L383.75,336.899z"/>
<path fill="none" stroke="#000000" stroke-width="0.75" stroke-linecap="square" stroke-miterlimit="10" d="M368,335.399  C364.118,335.618,364.479,335.597,368,335.399L368,335.399z"/>
<path fill="none" stroke="#000000" stroke-width="0.75" stroke-linecap="square" stroke-miterlimit="10" d="M356,335.399  C352.293,335.399,352.293,335.399,356,335.399L356,335.399z"/>
<path fill="none" stroke="#000000" stroke-width="0.75" stroke-linecap="square" stroke-miterlimit="10" d="M341,336.899  C336.426,336.899,336.426,336.899,341,336.899L341,336.899z"/>
<path fill="none" stroke="#000000" stroke-width="0.75" stroke-linecap="square" stroke-miterlimit="10" d="M323,330.149  C318.066,330.357,318.218,330.351,323,330.149L323,330.149z"/>
<path fill="none" stroke="#000000" stroke-width="0.75" stroke-linecap="square" stroke-miterlimit="10" d="M325.25,337.649  C321.271,337.88,321.408,337.872,325.25,337.649L325.25,337.649z"/>
<path fill="none" stroke="#000000" stroke-width="0.75" stroke-linecap="square" stroke-miterlimit="10" d="M308.75,336.899  C303.886,336.899,303.886,336.899,308.75,336.899L308.75,336.899z"/>
<path fill="none" stroke="#000000" stroke-width="0.75" stroke-linecap="square" stroke-miterlimit="10" d="M356,315.149  c-1.965,0-2.418,4.534-5.25,0C353.582,310.615,354.035,315.149,356,315.149z"/>
<path fill="none" stroke="#000000" stroke-width="0.75" stroke-linecap="square" stroke-miterlimit="10" d="M372.5,315.899  c-1.731-0.21-2.395,4.57-5.25,0C370.26,309.547,370.264,315.627,372.5,315.899z"/>
<path fill="none" stroke="#000000" stroke-width="0.75" stroke-linecap="square" stroke-miterlimit="10" d="M389,318.899  C384.136,318.899,384.136,318.899,389,318.899L389,318.899z"/>
<path fill="none" stroke="#000000" stroke-width="0.75" stroke-linecap="square" stroke-miterlimit="10" d="M404,323.399  c-2.036,0-2.787,4.353-5.25,0C401.213,319.046,401.964,323.399,404,323.399z"/>
<path fill="none" stroke="#000000" stroke-width="0.75" stroke-linecap="square" stroke-miterlimit="10" d="M418.25,330.149  c-2.036,0-2.787,4.353-5.25,0C415.463,325.796,416.214,330.149,418.25,330.149z"/>
<path fill="none" stroke="#000000" stroke-width="0.75" stroke-linecap="square" stroke-miterlimit="10" d="M317.75,308.399  C311.089,308.399,311.089,308.399,317.75,308.399L317.75,308.399z"/>
<path fill="none" stroke="#000000" stroke-width="0.75" stroke-linecap="square" stroke-miterlimit="10" d="M374,303.899  c-0.787-0.046-1.861,3.658-5.25,2.25C368.645,297.415,371.357,303.745,374,303.899z"/>
<path fill="none" stroke="#000000" stroke-width="0.75" stroke-linecap="square" stroke-miterlimit="10" d="M392.75,306.149  C386.231,305.954,386.276,305.955,392.75,306.149L392.75,306.149z"/>
<path fill="none" stroke="#000000" stroke-width="0.75" stroke-linecap="square" stroke-miterlimit="10" d="M409.25,311.399  C402.261,311.535,402.795,311.524,409.25,311.399L409.25,311.399z"/>
<path fill="none" stroke="#000000" stroke-width="0.75" stroke-linecap="square" stroke-miterlimit="10" d="M423.5,318.899  C418.104,318.899,418.104,318.899,423.5,318.899L423.5,318.899z"/>
<path fill="none" stroke="#000000" stroke-width="0.75" stroke-linecap="square" stroke-miterlimit="10" d="M374.75,288.899  C366.973,289.013,366.941,289.014,374.75,288.899L374.75,288.899z"/>
<path fill="none" stroke="#000000" stroke-width="0.75" stroke-linecap="square" stroke-miterlimit="10" d="M395,292.649  C387.526,292.52,387.707,292.523,395,292.649L395,292.649z"/>
<path fill="none" stroke="#000000" stroke-width="0.75" stroke-linecap="square" stroke-miterlimit="10" d="M412.25,297.899  C405.917,297.226,405.187,297.148,412.25,297.899L412.25,297.899z"/>
<path fill="none" stroke="#000000" stroke-width="0.75" stroke-linecap="square" stroke-miterlimit="10" d="M428,304.649  C421.051,304.941,421.221,304.934,428,304.649L428,304.649z"/>
<path fill="none" stroke="#000000" stroke-width="0.75" stroke-linecap="square" stroke-miterlimit="10" d="M438.5,314.399  C433.831,314.6,434.323,314.579,438.5,314.399L438.5,314.399z"/>
<path fill="none" stroke="#000000" stroke-width="0.75" stroke-linecap="square" stroke-miterlimit="10" d="M314,294.149  C306.478,294.023,306.596,294.025,314,294.149L314,294.149z"/>
<path fill="none" stroke="#000000" stroke-width="0.75" stroke-linecap="square" stroke-miterlimit="10" d="M294.5,300.899  c-2.46,0.092-1.822,7.678-5.25,0C292.732,293.648,292.102,300.989,294.5,300.899z"/>
<path fill="none" stroke="#000000" stroke-width="0.75" stroke-linecap="square" stroke-miterlimit="10" d="M281,309.899  C275.326,310.07,275.61,310.061,281,309.899L281,309.899z"/>
<path fill-rule="evenodd" clip-rule="evenodd" fill="#8E9093" stroke="#000000" stroke-width="2" stroke-linecap="square" stroke-miterlimit="10" d="  M256.25,315.149c-20.728-6.582-29.809,8.27-9,20.625c24.315,14.437,33.105-0.67,55.5,6.375c-8.911-7.644-27.733-0.733-30-3  c-7.471-7.471-17.974-12.701-27.75-16.5c8.136-0.832,10.281-2.45,18-0.75C260.75,319.649,258.5,317.399,256.25,315.149z"/>
<path fill-rule="evenodd" clip-rule="evenodd" fill="#8E9093" stroke="#000000" stroke-width="0.75" stroke-linecap="square" stroke-miterlimit="10" d="  M441.5,458.399c-13.74,48.728,71.837,46.206,97.5,33.375c10.085-5.042,29.728-22.507,21.75-36.375  C552.244,440.613,459.964,457.32,441.5,458.399z"/>
<path fill-rule="evenodd" clip-rule="evenodd" fill="#8E9093" stroke="#000000" stroke-width="2" stroke-linecap="square" stroke-miterlimit="10" d="  M600.5,366.149c-9.146,66.274-201.188,65.729-201,0C399.688,299.998,589.151,300.79,600.5,366.149z"/>
<path fill-rule="evenodd" clip-rule="evenodd" fill="#8E9093" stroke="#000000" stroke-width="2" stroke-linecap="square" stroke-miterlimit="10" d="  M545.75,324.149c19.099-16.85,78.984,7.237,45.75,21c-1.75-1-3.5-2-5.25-3c4.029-2.801,5.229-5.972,7.5-9  C575.482,328.395,562.953,318.705,545.75,324.149z"/>
<path fill-rule="evenodd" clip-rule="evenodd" fill="#C4C6C8" stroke="#000000" stroke-width="2" stroke-linecap="square" stroke-miterlimit="10" d="  M401,376.649c12.816,56.236,39.783,98.747,104.25,93.375c54.95-4.579,89.53-40.438,94.5-95.625  C561.253,433.961,443.576,424.156,401,376.649z"/>
<path fill="none" stroke="#000000" stroke-width="0.75" stroke-linecap="square" stroke-miterlimit="10" d="M444.5,460.649  c3.73,50.316,105.764,47.373,110.25-3"/>
<path fill-rule="evenodd" clip-rule="evenodd" fill="#C4C6C8" stroke="#000000" stroke-width="0.75" stroke-linecap="square" stroke-miterlimit="10" d="  M464,465.899c21.684,15.488,50.143,17.89,71.25,0C512.471,470.944,486.652,472.174,464,465.899z"/>
<path fill="none" stroke="#000000" stroke-width="0.75" stroke-linecap="square" stroke-miterlimit="10" d="M547.25,348.149  C536.972,350.633,536.983,344.616,547.25,348.149L547.25,348.149z"/>
<path fill="none" stroke="#000000" stroke-width="0.75" stroke-linecap="square" stroke-miterlimit="10" d="M581.75,363.899  c0.574,0.053-1.248,4.582-3.75,4.5C575.827,354.78,578.752,363.625,581.75,363.899z"/>
<path fill="none" stroke="#000000" stroke-width="0.75" stroke-linecap="square" stroke-miterlimit="10" d="M476.75,357.899  C469.954,357.782,469.938,357.781,476.75,357.899L476.75,357.899z"/>
<path fill="none" stroke="#000000" stroke-width="0.75" stroke-linecap="square" stroke-miterlimit="10" d="M499.25,356.399  C491.654,356.076,492.007,356.09,499.25,356.399L499.25,356.399z"/>
<path fill="none" stroke="#000000" stroke-width="0.75" stroke-linecap="square" stroke-miterlimit="10" d="M512.75,447.899  C505.08,447.199,504.877,447.18,512.75,447.899L512.75,447.899z"/>
<path fill="none" stroke="#000000" stroke-width="0.75" stroke-linecap="square" stroke-miterlimit="10" d="M512.75,461.399  c-2.142,0.129-3.025,5.327-6.75,0C509.251,457.894,511.221,461.492,512.75,461.399z"/>
<path fill="none" stroke="#000000" stroke-width="0.75" stroke-linecap="square" stroke-miterlimit="10" d="M490.25,461.399  c-2.078,0.164-2.834,3.668-6.75,1.5c0-0.5,0-1,0-1.5C487.402,457.253,488.135,461.566,490.25,461.399z"/>
<path fill="none" stroke="#000000" stroke-width="0.75" stroke-linecap="square" stroke-miterlimit="10" d="M539,444.149  C532.188,444.266,532.204,444.266,539,444.149L539,444.149z"/>
<path fill="none" stroke="#000000" stroke-width="0.75" stroke-linecap="square" stroke-miterlimit="10" d="M559.25,438.149  c-2.52-0.351-3.354,6.878-5.25-0.75C558.732,430.447,557.129,437.854,559.25,438.149z"/>
<path fill="none" stroke="#000000" stroke-width="0.75" stroke-linecap="square" stroke-miterlimit="10" d="M575.75,429.899  C573,428.506,569.321,426.644,575.75,429.899L575.75,429.899z"/>
<path fill="none" stroke="#000000" stroke-width="0.75" stroke-linecap="square" stroke-miterlimit="10" d="M538.25,456.899  c-1.313-0.534-2.085,4.362-5.25,0.75C537.258,447.737,535.943,455.961,538.25,456.899z"/>
<path fill="none" stroke="#000000" stroke-width="0.75" stroke-linecap="square" stroke-miterlimit="10" d="M554.75,450.899  C550.539,449.118,551.136,449.37,554.75,450.899L554.75,450.899z"/>
<path fill="none" stroke="#000000" stroke-width="0.75" stroke-linecap="square" stroke-miterlimit="10" d="M570.5,441.149  C570.448,441.1,566.139,437.028,570.5,441.149L570.5,441.149z"/>
<path fill="none" stroke="#000000" stroke-width="0.75" stroke-linecap="square" stroke-miterlimit="10" d="M488.75,447.899  C480.941,447.785,480.973,447.785,488.75,447.899L488.75,447.899z"/>
<path fill="none" stroke="#000000" stroke-width="0.75" stroke-linecap="square" stroke-miterlimit="10" d="M458.75,443.399  c-2.174,1.956,3.036,4.844-2.25,4.5C451.739,438.995,457.351,444.658,458.75,443.399z"/>
<path fill="none" stroke="#000000" stroke-width="0.75" stroke-linecap="square" stroke-miterlimit="10" d="M461.75,454.649  C458.604,455.638,455.813,456.516,461.75,454.649L461.75,454.649z"/>
<path fill="none" stroke="#000000" stroke-width="0.75" stroke-linecap="square" stroke-miterlimit="10" d="M438.5,435.899  C434.276,437.28,435.618,436.841,438.5,435.899L438.5,435.899z"/>
<path fill="none" stroke="#000000" stroke-width="0.75" stroke-linecap="square" stroke-miterlimit="10" d="M443,447.899  C440.059,448.771,439.455,448.951,443,447.899L443,447.899z"/>
<path fill="none" stroke="#000000" stroke-width="0.75" stroke-linecap="square" stroke-miterlimit="10" d="M500,371.399  c-3.04-0.148-3.216,5.656-6.75,0C496.716,365.217,497.008,371.253,500,371.399z"/>
<path fill="none" stroke="#000000" stroke-width="0.75" stroke-linecap="square" stroke-miterlimit="10" d="M479.75,372.149  c-2.992,0.146-3.284,6.182-6.75,0C476.534,366.493,476.71,372.297,479.75,372.149z"/>
<path fill="none" stroke="#000000" stroke-width="0.75" stroke-linecap="square" stroke-miterlimit="10" d="M481.25,385.649  c-2.036,0-2.787,4.353-5.25,0C478.463,381.296,479.214,385.649,481.25,385.649z"/>
<path fill="none" stroke="#000000" stroke-width="0.75" stroke-linecap="square" stroke-miterlimit="10" d="M464.75,388.649  C459.886,388.649,459.886,388.649,464.75,388.649L464.75,388.649z"/>
<path fill="none" stroke="#000000" stroke-width="0.75" stroke-linecap="square" stroke-miterlimit="10" d="M442.25,383.399  c-2.236,0.272-2.24,6.352-5.25,0C439.855,378.829,440.519,383.609,442.25,383.399z"/>
<path fill="none" stroke="#000000" stroke-width="0.75" stroke-linecap="square" stroke-miterlimit="10" d="M446,394.649  C441.365,393.988,440.96,393.93,446,394.649L446,394.649z"/>
<path fill="none" stroke="#000000" stroke-width="0.75" stroke-linecap="square" stroke-miterlimit="10" d="M431.75,392.399  c-1.731-0.21-2.395,4.57-5.25,0C429.51,386.047,429.514,392.127,431.75,392.399z"/>
<path fill="none" stroke="#000000" stroke-width="0.75" stroke-linecap="square" stroke-miterlimit="10" d="M482,395.399  C477.136,395.399,477.136,395.399,482,395.399L482,395.399z"/>
<path fill="none" stroke="#000000" stroke-width="0.75" stroke-linecap="square" stroke-miterlimit="10" d="M500.75,393.899  C496.771,394.13,496.907,394.122,500.75,393.899L500.75,393.899z"/>
<path fill="none" stroke="#000000" stroke-width="0.75" stroke-linecap="square" stroke-miterlimit="10" d="M515,394.649  C510.548,394.452,510.319,394.441,515,394.649L515,394.649z"/>
<path fill="none" stroke="#000000" stroke-width="0.75" stroke-linecap="square" stroke-miterlimit="10" d="M532.25,396.899  C527.386,396.899,527.386,396.899,532.25,396.899L532.25,396.899z"/>
<path fill="none" stroke="#000000" stroke-width="0.75" stroke-linecap="square" stroke-miterlimit="10" d="M545.75,401.399  C541.262,401.973,540.455,402.077,545.75,401.399L545.75,401.399z"/>
<path fill="none" stroke="#000000" stroke-width="0.75" stroke-linecap="square" stroke-miterlimit="10" d="M528.5,405.149  C523.926,405.149,523.926,405.149,528.5,405.149L528.5,405.149z"/>
<path fill="none" stroke="#000000" stroke-width="0.75" stroke-linecap="square" stroke-miterlimit="10" d="M512.75,403.649  C507.886,403.649,507.886,403.649,512.75,403.649L512.75,403.649z"/>
<path fill="none" stroke="#000000" stroke-width="0.75" stroke-linecap="square" stroke-miterlimit="10" d="M500.75,403.649  C495.886,403.649,495.886,403.649,500.75,403.649L500.75,403.649z"/>
<path fill="none" stroke="#000000" stroke-width="0.75" stroke-linecap="square" stroke-miterlimit="10" d="M485.75,405.149  C480.968,404.947,480.816,404.941,485.75,405.149L485.75,405.149z"/>
<path fill="none" stroke="#000000" stroke-width="0.75" stroke-linecap="square" stroke-miterlimit="10" d="M467,398.399  C463.294,398.399,463.294,398.399,467,398.399L467,398.399z"/>
<path fill="none" stroke="#000000" stroke-width="0.75" stroke-linecap="square" stroke-miterlimit="10" d="M470,405.899  C465.066,406.107,465.218,406.101,470,405.899L470,405.899z"/>
<path fill="none" stroke="#000000" stroke-width="0.75" stroke-linecap="square" stroke-miterlimit="10" d="M452.75,405.149  C448.809,404.938,448.546,404.925,452.75,405.149L452.75,405.149z"/>
<path fill="none" stroke="#000000" stroke-width="0.75" stroke-linecap="square" stroke-miterlimit="10" d="M500.75,383.399  c-1.835-0.207-2.76,4.401-5.25,0C498.092,377.269,498.471,383.142,500.75,383.399z"/>
<path fill="none" stroke="#000000" stroke-width="0.75" stroke-linecap="square" stroke-miterlimit="10" d="M517.25,384.149  c-1.835-0.207-2.76,4.401-5.25,0C514.592,378.019,514.971,383.892,517.25,384.149z"/>
<path fill="none" stroke="#000000" stroke-width="0.75" stroke-linecap="square" stroke-miterlimit="10" d="M533.75,387.149  c-1.966,0-2.418,4.534-5.25,0C531.332,382.615,531.784,387.149,533.75,387.149z"/>
<path fill="none" stroke="#000000" stroke-width="0.75" stroke-linecap="square" stroke-miterlimit="10" d="M548,391.649  C543.365,390.988,542.96,390.93,548,391.649L548,391.649z"/>
<path fill="none" stroke="#000000" stroke-width="0.75" stroke-linecap="square" stroke-miterlimit="10" d="M562.25,398.399  c-1.731-0.21-2.395,4.57-5.25,0C560.01,392.047,560.014,398.127,562.25,398.399z"/>
<path fill="none" stroke="#000000" stroke-width="0.75" stroke-linecap="square" stroke-miterlimit="10" d="M462.5,376.649  c-3.139-0.07-3.135,6.406-6.75,0C459.234,370.434,459.547,376.583,462.5,376.649z"/>
<path fill="none" stroke="#000000" stroke-width="0.75" stroke-linecap="square" stroke-miterlimit="10" d="M518.75,372.149  C511.814,371.403,512.231,371.448,518.75,372.149L518.75,372.149z"/>
<path fill="none" stroke="#000000" stroke-width="0.75" stroke-linecap="square" stroke-miterlimit="10" d="M537.5,374.399  C531.016,374.056,530.619,374.035,537.5,374.399L537.5,374.399z"/>
<path fill="none" stroke="#000000" stroke-width="0.75" stroke-linecap="square" stroke-miterlimit="10" d="M553.25,379.649  c-2.656,0.082-5.04,6.476-5.25-2.25C552.044,375.118,552.022,379.687,553.25,379.649z"/>
<path fill="none" stroke="#000000" stroke-width="0.75" stroke-linecap="square" stroke-miterlimit="10" d="M568.25,387.149  C562.742,387.149,562.742,387.149,568.25,387.149L568.25,387.149z"/>
<path fill="none" stroke="#000000" stroke-width="0.75" stroke-linecap="square" stroke-miterlimit="10" d="M518.75,357.149  C511.938,357.267,511.954,357.266,518.75,357.149L518.75,357.149z"/>
<path fill="none" stroke="#000000" stroke-width="0.75" stroke-linecap="square" stroke-miterlimit="10" d="M539.75,360.899  C532.031,360.631,531.886,360.626,539.75,360.899L539.75,360.899z"/>
<path fill="none" stroke="#000000" stroke-width="0.75" stroke-linecap="square" stroke-miterlimit="10" d="M556.25,365.399  C549.972,366.227,550.957,366.097,556.25,365.399L556.25,365.399z"/>
<path fill="none" stroke="#000000" stroke-width="0.75" stroke-linecap="square" stroke-miterlimit="10" d="M572,372.899  C566.032,373.03,566.069,373.03,572,372.899L572,372.899z"/>
<path fill="none" stroke="#000000" stroke-width="0.75" stroke-linecap="square" stroke-miterlimit="10" d="M583.25,382.649  C578.43,382.851,578.852,382.833,583.25,382.649L583.25,382.649z"/>
<path fill="none" stroke="#000000" stroke-width="0.75" stroke-linecap="square" stroke-miterlimit="10" d="M458,362.399  C451.103,362.088,451.181,362.092,458,362.399L458,362.399z"/>
<path fill="none" stroke="#000000" stroke-width="0.75" stroke-linecap="square" stroke-miterlimit="10" d="M439.25,369.149  C433.576,369.32,433.86,369.311,439.25,369.149L439.25,369.149z"/>
<path fill="none" stroke="#000000" stroke-width="0.75" stroke-linecap="square" stroke-miterlimit="10" d="M425,378.149  C420.18,378.351,420.603,378.333,425,378.149L425,378.149z"/>
<path fill-rule="evenodd" clip-rule="evenodd" fill="#8E9093" stroke="#000000" stroke-width="0.75" stroke-linecap="square" stroke-miterlimit="10" d="  M401,383.399c-21.195-7.526-29.8,8.275-9,20.625c24.483,14.537,31.385,0.437,54.75,5.625c-8.147-6.291-27.642-0.642-29.25-2.25  c-7.477-7.477-18.735-12.662-28.5-16.5c8.142-0.955,10.141-3.099,18.75-1.5C405.5,387.399,403.25,385.399,401,383.399z"/>
<path fill-rule="evenodd" clip-rule="evenodd" fill="#8E9093" stroke="#000000" stroke-width="2" stroke-linecap="square" stroke-miterlimit="10" d="  M281,486.899c-9.659,50.058,70.16,45.253,97.875,33.375c11.036-4.729,29.729-22.287,21.375-36.375  C391.597,469.307,300.098,485.79,281,486.899z"/>
<path fill-rule="evenodd" clip-rule="evenodd" fill="#8E9093" stroke="#000000" stroke-width="2" stroke-linecap="square" stroke-miterlimit="10" d="  M440,394.649c-5.871,66.71-201.304,65.468-201,0C239.305,328.983,431.344,328.812,440,394.649z"/>
<path fill-rule="evenodd" clip-rule="evenodd" fill="#8E9093" stroke="#000000" stroke-width="2" stroke-linecap="square" stroke-miterlimit="10" d="  M386,352.649c11.542-10.4,42.943-9.421,52.5,3.75c8.144,11.223-0.865,17.459-12,14.25C446.714,354.376,396.094,349.704,386,352.649z  "/>
<path fill-rule="evenodd" clip-rule="evenodd" fill="#C4C6C8" stroke="#000000" stroke-width="2" stroke-linecap="square" stroke-miterlimit="10" d="  M241.25,405.149c13.019,56.392,39.181,98.798,104.25,93.375c58.462-4.872,84.112-40.959,94.5-95.625  C400.467,461.418,284.044,453.447,241.25,405.149z"/>
<path fill="none" stroke="#000000" stroke-width="2" stroke-linecap="square" stroke-miterlimit="10" d="M284.75,489.149  c3.244,50.649,105.786,47.129,110.25-3"/>
<path fill-rule="evenodd" clip-rule="evenodd" fill="#C4C6C8" stroke="#000000" stroke-width="2" stroke-linecap="square" stroke-miterlimit="10" d="  M304.25,494.399c22.423,16.659,48.98,16.756,71.25,0C353.397,499.198,326.036,501.817,304.25,494.399z"/>
<path fill="none" stroke="#000000" stroke-width="0.75" stroke-linecap="square" stroke-miterlimit="10" d="M387.5,376.649  C376.746,377.665,377.158,373.014,387.5,376.649L387.5,376.649z"/>
<path fill="none" stroke="#000000" stroke-width="0.75" stroke-linecap="square" stroke-miterlimit="10" d="M422,392.399  C416.432,391.896,414.942,391.762,422,392.399L422,392.399z"/>
<path fill="none" stroke="#000000" stroke-width="0.75" stroke-linecap="square" stroke-miterlimit="10" d="M317,386.399  C309.526,386.27,309.707,386.273,317,386.399L317,386.399z"/>
<path fill="none" stroke="#000000" stroke-width="0.75" stroke-linecap="square" stroke-miterlimit="10" d="M339.5,384.899  C331.891,384.616,331.806,384.613,339.5,384.899L339.5,384.899z"/>
<path fill="none" stroke="#000000" stroke-width="0.75" stroke-linecap="square" stroke-miterlimit="10" d="M352.25,476.399  C345.55,475.652,345.293,475.623,352.25,476.399L352.25,476.399z"/>
<path fill="none" stroke="#000000" stroke-width="0.75" stroke-linecap="square" stroke-miterlimit="10" d="M353,489.899  c-1.225,0.11-1.095,4.422-6,2.25c0.112-0.835-0.138-1.585-0.75-2.25c0.677-0.323,0.927-0.823,0.75-1.5  C350.51,486.693,352.137,489.976,353,489.899z"/>
<path fill="none" stroke="#000000" stroke-width="0.75" stroke-linecap="square" stroke-miterlimit="10" d="M329.75,489.899  c-1.937,0.187-3.383,3.788-6.75,0.75c0.677-0.323,0.927-0.823,0.75-1.5C327.146,486.322,328.742,489.997,329.75,489.899z"/>
<path fill="none" stroke="#000000" stroke-width="0.75" stroke-linecap="square" stroke-miterlimit="10" d="M379.25,472.649  C371.957,472.775,371.776,472.778,379.25,472.649L379.25,472.649z"/>
<path fill="none" stroke="#000000" stroke-width="0.75" stroke-linecap="square" stroke-miterlimit="10" d="M399.5,466.649  C393.375,465.981,394.194,466.07,399.5,466.649L399.5,466.649z"/>
<path fill="none" stroke="#000000" stroke-width="0.75" stroke-linecap="square" stroke-miterlimit="10" d="M416,458.399  c-2.344-1.1-3.56,6.627-5.25-1.5C415.911,449.853,413.53,457.241,416,458.399z"/>
<path fill="none" stroke="#000000" stroke-width="0.75" stroke-linecap="square" stroke-miterlimit="10" d="M378.5,485.399  C373.443,483.429,373.611,483.495,378.5,485.399L378.5,485.399z"/>
<path fill="none" stroke="#000000" stroke-width="0.75" stroke-linecap="square" stroke-miterlimit="10" d="M395,479.399  C391.62,477.523,390.664,476.992,395,479.399L395,479.399z"/>
<path fill="none" stroke="#000000" stroke-width="0.75" stroke-linecap="square" stroke-miterlimit="10" d="M410.75,469.649  C409.043,468.436,406.688,466.761,410.75,469.649L410.75,469.649z"/>
<path fill="none" stroke="#000000" stroke-width="0.75" stroke-linecap="square" stroke-miterlimit="10" d="M328.25,476.399  C321.454,476.282,321.438,476.282,328.25,476.399L328.25,476.399z"/>
<path fill="none" stroke="#000000" stroke-width="0.75" stroke-linecap="square" stroke-miterlimit="10" d="M299,472.649  C295.73,473.757,293.56,474.494,299,472.649L299,472.649z"/>
<path fill="none" stroke="#000000" stroke-width="0.75" stroke-linecap="square" stroke-miterlimit="10" d="M302,483.149  c-2.125,0.583-0.942,8.591-5.25-0.75C299.877,478.415,299.092,483.948,302,483.149z"/>
<path fill="none" stroke="#000000" stroke-width="0.75" stroke-linecap="square" stroke-miterlimit="10" d="M278.75,464.399  C274.094,465.879,275.04,465.579,278.75,464.399L278.75,464.399z"/>
<path fill="none" stroke="#000000" stroke-width="0.75" stroke-linecap="square" stroke-miterlimit="10" d="M282.5,476.399  C278.625,478.199,281.802,476.723,282.5,476.399L282.5,476.399z"/>
<path fill="none" stroke="#000000" stroke-width="0.75" stroke-linecap="square" stroke-miterlimit="10" d="M339.5,399.899  C332.869,399.513,332.822,399.51,339.5,399.899L339.5,399.899z"/>
<path fill="none" stroke="#000000" stroke-width="0.75" stroke-linecap="square" stroke-miterlimit="10" d="M319.25,400.649  C312.88,401.375,312.524,401.416,319.25,400.649L319.25,400.649z"/>
<path fill="none" stroke="#000000" stroke-width="0.75" stroke-linecap="square" stroke-miterlimit="10" d="M320.75,414.149  C315.886,414.149,315.886,414.149,320.75,414.149L320.75,414.149z"/>
<path fill="none" stroke="#000000" stroke-width="0.75" stroke-linecap="square" stroke-miterlimit="10" d="M305,417.149  c-1.965,0-2.418,4.534-5.25,0C302.582,412.615,303.035,417.149,305,417.149z"/>
<path fill="none" stroke="#000000" stroke-width="0.75" stroke-linecap="square" stroke-miterlimit="10" d="M282.5,411.899  c-2.279,0.257-2.658,6.13-5.25,0C279.74,407.498,280.666,412.106,282.5,411.899z"/>
<path fill="none" stroke="#000000" stroke-width="0.75" stroke-linecap="square" stroke-miterlimit="10" d="M286.25,423.149  c-1.731-0.211-2.395,4.57-5.25,0C284.01,416.797,284.014,422.876,286.25,423.149z"/>
<path fill="none" stroke="#000000" stroke-width="0.75" stroke-linecap="square" stroke-miterlimit="10" d="M272,420.899  c-1.834-0.207-2.76,4.401-5.25,0C269.342,414.769,269.721,420.642,272,420.899z"/>
<path fill="none" stroke="#000000" stroke-width="0.75" stroke-linecap="square" stroke-miterlimit="10" d="M321.5,423.899  C317.793,423.899,317.793,423.899,321.5,423.899L321.5,423.899z"/>
<path fill="none" stroke="#000000" stroke-width="0.75" stroke-linecap="square" stroke-miterlimit="10" d="M341,422.399  C336.066,422.607,336.218,422.6,341,422.399L341,422.399z"/>
<path fill="none" stroke="#000000" stroke-width="0.75" stroke-linecap="square" stroke-miterlimit="10" d="M355.25,423.149  C350.468,422.948,350.316,422.941,355.25,423.149L355.25,423.149z"/>
<path fill="none" stroke="#000000" stroke-width="0.75" stroke-linecap="square" stroke-miterlimit="10" d="M371.75,425.399  C368.043,425.399,368.043,425.399,371.75,425.399L371.75,425.399z"/>
<path fill="none" stroke="#000000" stroke-width="0.75" stroke-linecap="square" stroke-miterlimit="10" d="M385.25,429.899  C381.8,430.515,381.15,430.631,385.25,429.899L385.25,429.899z"/>
<path fill="none" stroke="#000000" stroke-width="0.75" stroke-linecap="square" stroke-miterlimit="10" d="M368.75,433.649  C363.886,433.649,363.886,433.649,368.75,433.649L368.75,433.649z"/>
<path fill="none" stroke="#000000" stroke-width="0.75" stroke-linecap="square" stroke-miterlimit="10" d="M353,432.149  C348.136,432.149,348.136,432.149,353,432.149L353,432.149z"/>
<path fill="none" stroke="#000000" stroke-width="0.75" stroke-linecap="square" stroke-miterlimit="10" d="M341,432.149  C336.136,432.149,336.136,432.149,341,432.149L341,432.149z"/>
<path fill="none" stroke="#000000" stroke-width="0.75" stroke-linecap="square" stroke-miterlimit="10" d="M325.25,433.649  C321.16,433.649,321.16,433.649,325.25,433.649L325.25,433.649z"/>
<path fill="none" stroke="#000000" stroke-width="0.75" stroke-linecap="square" stroke-miterlimit="10" d="M307.25,426.899  C302.676,426.899,302.676,426.899,307.25,426.899L307.25,426.899z"/>
<path fill="none" stroke="#000000" stroke-width="0.75" stroke-linecap="square" stroke-miterlimit="10" d="M310.25,434.399  C305.316,434.607,305.468,434.6,310.25,434.399L310.25,434.399z"/>
<path fill="none" stroke="#000000" stroke-width="0.75" stroke-linecap="square" stroke-miterlimit="10" d="M293,433.649  C288.136,433.649,288.136,433.649,293,433.649L293,433.649z"/>
<path fill="none" stroke="#000000" stroke-width="0.75" stroke-linecap="square" stroke-miterlimit="10" d="M340.25,411.899  C335.386,411.899,335.386,411.899,340.25,411.899L340.25,411.899z"/>
<path fill="none" stroke="#000000" stroke-width="0.75" stroke-linecap="square" stroke-miterlimit="10" d="M356.75,412.649  C352.115,411.988,351.709,411.93,356.75,412.649L356.75,412.649z"/>
<path fill="none" stroke="#000000" stroke-width="0.75" stroke-linecap="square" stroke-miterlimit="10" d="M373.25,415.649  c-1.05,0-1.889,4.097-4.5,0C371.361,411.552,372.2,415.649,373.25,415.649z"/>
<path fill="none" stroke="#000000" stroke-width="0.75" stroke-linecap="square" stroke-miterlimit="10" d="M388.25,420.149  c-1.731-0.21-2.395,4.57-5.25,0C386.01,413.797,386.014,419.877,388.25,420.149z"/>
<path fill="none" stroke="#000000" stroke-width="0.75" stroke-linecap="square" stroke-miterlimit="10" d="M402.5,426.899  c-1.834-0.207-2.76,4.401-5.25,0C399.842,420.769,400.221,426.641,402.5,426.899z"/>
<path fill="none" stroke="#000000" stroke-width="0.75" stroke-linecap="square" stroke-miterlimit="10" d="M302,405.149  C295.296,404.958,295.4,404.96,302,405.149L302,405.149z"/>
<path fill="none" stroke="#000000" stroke-width="0.75" stroke-linecap="square" stroke-miterlimit="10" d="M359,400.649  c-3.04-0.148-3.216,5.656-6.75,0C355.716,394.467,356.008,400.503,359,400.649z"/>
<path fill="none" stroke="#000000" stroke-width="0.75" stroke-linecap="square" stroke-miterlimit="10" d="M377.75,402.899  c-3.139-0.07-3.135,6.406-6.75,0C374.484,396.684,374.797,402.833,377.75,402.899z"/>
<path fill="none" stroke="#000000" stroke-width="0.75" stroke-linecap="square" stroke-miterlimit="10" d="M393.5,408.149  C386.9,408.337,386.796,408.34,393.5,408.149L393.5,408.149z"/>
<path fill="none" stroke="#000000" stroke-width="0.75" stroke-linecap="square" stroke-miterlimit="10" d="M408.5,415.649  c-2.564,0-2.586,6.837-5.25,0C405.914,408.812,405.936,415.649,408.5,415.649z"/>
<path fill="none" stroke="#000000" stroke-width="0.75" stroke-linecap="square" stroke-miterlimit="10" d="M359,385.649  C351.596,385.772,351.478,385.774,359,385.649L359,385.649z"/>
<path fill="none" stroke="#000000" stroke-width="0.75" stroke-linecap="square" stroke-miterlimit="10" d="M379.25,389.399  C372.454,389.282,372.438,389.281,379.25,389.399L379.25,389.399z"/>
<path fill="none" stroke="#000000" stroke-width="0.75" stroke-linecap="square" stroke-miterlimit="10" d="M396.5,393.899  C389.881,394.714,390.582,394.628,396.5,393.899L396.5,393.899z"/>
<path fill="none" stroke="#000000" stroke-width="0.75" stroke-linecap="square" stroke-miterlimit="10" d="M412.25,401.399  C405.53,401.527,405.449,401.529,412.25,401.399L412.25,401.399z"/>
<path fill="none" stroke="#000000" stroke-width="0.75" stroke-linecap="square" stroke-miterlimit="10" d="M422.75,411.149  C418.595,411.342,419.26,411.312,422.75,411.149L422.75,411.149z"/>
<path fill="none" stroke="#000000" stroke-width="0.75" stroke-linecap="square" stroke-miterlimit="10" d="M298.25,390.899  C290.654,390.576,291.007,390.59,298.25,390.899L298.25,390.899z"/>
<path fill="none" stroke="#000000" stroke-width="0.75" stroke-linecap="square" stroke-miterlimit="10" d="M279.5,397.649  C273.786,397.833,273.985,397.826,279.5,397.649L279.5,397.649z"/>
<path fill="none" stroke="#000000" stroke-width="0.75" stroke-linecap="square" stroke-miterlimit="10" d="M265.25,406.649  C259.72,406.826,259.968,406.818,265.25,406.649L265.25,406.649z"/>
<path fill-rule="evenodd" clip-rule="evenodd" fill="#8E9093" stroke="#000000" stroke-width="2" stroke-linecap="square" stroke-miterlimit="10" d="  M241.25,411.899c-21.26-7.164-30.163,7.884-9.375,20.625c24.409,14.96,31.578,0.572,55.125,5.625  c-9.771-7.476-26.279,0.427-29.625-2.25c-8.56-6.848-17.892-12.662-28.125-16.5c8.798-1.261,9.566-3.378,18.75-1.5  C245.75,415.899,243.5,413.899,241.25,411.899z"/>
<path fill-rule="evenodd" clip-rule="evenodd" fill="#8E9093" stroke="#000000" stroke-width="2" stroke-linecap="square" stroke-miterlimit="10" d="  M422.75,552.149c-10.948,50.026,70.843,44.96,97.875,33.375c11-4.714,29.481-22.572,21.375-36.375  C533.453,534.595,441.772,551.044,422.75,552.149z"/>
<path fill-rule="evenodd" clip-rule="evenodd" fill="#8E9093" stroke="#000000" stroke-width="2" stroke-linecap="square" stroke-miterlimit="10" d="  M581.75,459.899c-5.905,67.104-201.66,65.921-201,0C381.407,394.259,573.418,394.252,581.75,459.899z"/>
<path fill-rule="evenodd" clip-rule="evenodd" fill="#8E9093" stroke="#000000" stroke-width="2" stroke-linecap="square" stroke-miterlimit="10" d="  M527.75,417.899c12.522-11.381,26.883-6.647,40.875-0.375c19.94,8.938,17.012,25.385-1.125,18.375c3.913-2.47,5.544-4.88,8.25-8.25  C557.305,421.138,545.148,413.124,527.75,417.899z"/>
<path fill-rule="evenodd" clip-rule="evenodd" fill="#C4C6C8" stroke="#000000" stroke-width="2" stroke-linecap="square" stroke-miterlimit="10" d="  M383,470.399c16.564,125.262,183.539,121.101,198-2.25C545.781,530.524,423.507,514.857,383,470.399z"/>
<path fill="none" stroke="#000000" stroke-width="2" stroke-linecap="square" stroke-miterlimit="10" d="M426.5,554.399  c1.234,50.93,105.277,47.008,110.25-3"/>
<path fill-rule="evenodd" clip-rule="evenodd" fill="#C4C6C8" stroke="#000000" stroke-width="2" stroke-linecap="square" stroke-miterlimit="10" d="  M446,559.649c21.348,16.967,49.389,16.537,71.25,0.75C493.703,563.159,469.053,567.129,446,559.649z"/>
<path fill="none" stroke="#000000" stroke-width="0.75" stroke-linecap="square" stroke-miterlimit="10" d="M529.25,441.899  C518.284,443.319,518.643,440.086,529.25,441.899L529.25,441.899z"/>
<path fill="none" stroke="#000000" stroke-width="0.75" stroke-linecap="square" stroke-miterlimit="10" d="M563.75,457.649  C557.416,457.505,556.74,457.49,563.75,457.649L563.75,457.649z"/>
<path fill="none" stroke="#000000" stroke-width="0.75" stroke-linecap="square" stroke-miterlimit="10" d="M458.75,451.649  C451.347,451.772,451.228,451.774,458.75,451.649L458.75,451.649z"/>
<path fill="none" stroke="#000000" stroke-width="0.75" stroke-linecap="square" stroke-miterlimit="10" d="M481.25,450.149  C473.441,450.035,473.473,450.035,481.25,450.149L481.25,450.149z"/>
<path fill="none" stroke="#000000" stroke-width="0.75" stroke-linecap="square" stroke-miterlimit="10" d="M494,541.649  c-2.215-0.042-2.828,6.003-6.75,0C491.238,535.125,491.636,541.604,494,541.649z"/>
<path fill="none" stroke="#000000" stroke-width="0.75" stroke-linecap="square" stroke-miterlimit="10" d="M494.75,555.149  c-1.421,0.122-1.839,4.849-6.75,1.5c0-0.75,0-1.5,0-2.25C491.721,551.566,493.48,555.258,494.75,555.149z"/>
<path fill="none" stroke="#000000" stroke-width="0.75" stroke-linecap="square" stroke-miterlimit="10" d="M471.5,555.149  c-2.373,0.256-4.104,4.236-6.75,0C467.921,552.56,470.064,555.303,471.5,555.149z"/>
<path fill="none" stroke="#000000" stroke-width="0.75" stroke-linecap="square" stroke-miterlimit="10" d="M521,537.899  C513.661,538.2,513.346,538.213,521,537.899L521,537.899z"/>
<path fill="none" stroke="#000000" stroke-width="0.75" stroke-linecap="square" stroke-miterlimit="10" d="M540.5,531.899  C535.734,531.172,535.91,531.199,540.5,531.899L540.5,531.899z"/>
<path fill="none" stroke="#000000" stroke-width="0.75" stroke-linecap="square" stroke-miterlimit="10" d="M557.75,523.649  c-2.384-0.769-6.7,6.864-3.75-3.75C559.255,518.717,555.505,522.925,557.75,523.649z"/>
<path fill="none" stroke="#000000" stroke-width="0.75" stroke-linecap="square" stroke-miterlimit="10" d="M520.25,550.649  c-2.813-0.897-5.042,6.433-5.25-2.25C520.895,543.188,517.551,549.789,520.25,550.649z"/>
<path fill="none" stroke="#000000" stroke-width="0.75" stroke-linecap="square" stroke-miterlimit="10" d="M536.75,544.649  c-1.736-0.572-1.958,4.765-4.5,0.75C536.388,535.889,534.763,543.994,536.75,544.649z"/>
<path fill="none" stroke="#000000" stroke-width="0.75" stroke-linecap="square" stroke-miterlimit="10" d="M552.5,534.899  C549.394,533.114,549.088,532.937,552.5,534.899L552.5,534.899z"/>
<path fill="none" stroke="#000000" stroke-width="0.75" stroke-linecap="square" stroke-miterlimit="10" d="M470,541.649  c-2.215-0.042-2.828,6.003-6.75,0C467.238,535.125,467.636,541.604,470,541.649z"/>
<path fill="none" stroke="#000000" stroke-width="0.75" stroke-linecap="square" stroke-miterlimit="10" d="M440.75,537.899  C437.604,538.888,434.813,539.766,440.75,537.899L440.75,537.899z"/>
<path fill="none" stroke="#000000" stroke-width="0.75" stroke-linecap="square" stroke-miterlimit="10" d="M443.75,548.399  c-1.867,0.569,0.886,6.661-4.5,2.25C438.021,541.93,441.161,549.188,443.75,548.399z"/>
<path fill="none" stroke="#000000" stroke-width="0.75" stroke-linecap="square" stroke-miterlimit="10" d="M420.5,529.649  C415.408,531.5,416.578,531.075,420.5,529.649L420.5,529.649z"/>
<path fill="none" stroke="#000000" stroke-width="0.75" stroke-linecap="square" stroke-miterlimit="10" d="M424.25,541.649  C420.385,543.883,423.521,542.071,424.25,541.649L424.25,541.649z"/>
<path fill="none" stroke="#000000" stroke-width="0.75" stroke-linecap="square" stroke-miterlimit="10" d="M481.25,465.149  C474.547,464.958,474.649,464.96,481.25,465.149L481.25,465.149z"/>
<path fill="none" stroke="#000000" stroke-width="0.75" stroke-linecap="square" stroke-miterlimit="10" d="M461,466.649  C454.064,465.888,454.557,465.942,461,466.649L461,466.649z"/>
<path fill="none" stroke="#000000" stroke-width="0.75" stroke-linecap="square" stroke-miterlimit="10" d="M462.5,479.399  c-2.137,0.182-2.294,5.521-5.25,0C460.102,474.833,460.69,479.553,462.5,479.399z"/>
<path fill="none" stroke="#000000" stroke-width="0.75" stroke-linecap="square" stroke-miterlimit="10" d="M446.75,482.399  c-1.966,0-2.418,4.533-5.25,0C444.332,477.866,444.784,482.399,446.75,482.399z"/>
<path fill="none" stroke="#000000" stroke-width="0.75" stroke-linecap="square" stroke-miterlimit="10" d="M423.5,477.149  c-1.528,0.224-1.593,5.996-4.5,0C421.57,473.116,422.814,477.25,423.5,477.149z"/>
<path fill="none" stroke="#000000" stroke-width="0.75" stroke-linecap="square" stroke-miterlimit="10" d="M428,488.399  c-1.966,0-2.418,4.533-5.25,0C425.582,483.866,426.034,488.399,428,488.399z"/>
<path fill="none" stroke="#000000" stroke-width="0.75" stroke-linecap="square" stroke-miterlimit="10" d="M413,486.149  C408.365,485.488,407.959,485.43,413,486.149L413,486.149z"/>
<path fill="none" stroke="#000000" stroke-width="0.75" stroke-linecap="square" stroke-miterlimit="10" d="M463.25,489.149  C459.046,489.374,459.309,489.359,463.25,489.149L463.25,489.149z"/>
<path fill="none" stroke="#000000" stroke-width="0.75" stroke-linecap="square" stroke-miterlimit="10" d="M482.75,487.649  C478.262,488.223,477.455,488.327,482.75,487.649L482.75,487.649z"/>
<path fill="none" stroke="#000000" stroke-width="0.75" stroke-linecap="square" stroke-miterlimit="10" d="M497,488.399  C492.136,488.399,492.136,488.399,497,488.399L497,488.399z"/>
<path fill="none" stroke="#000000" stroke-width="0.75" stroke-linecap="square" stroke-miterlimit="10" d="M513.5,490.649  C509.41,490.649,509.41,490.649,513.5,490.649L513.5,490.649z"/>
<path fill="none" stroke="#000000" stroke-width="0.75" stroke-linecap="square" stroke-miterlimit="10" d="M527,495.899  C523.059,495.689,522.796,495.674,527,495.899L527,495.899z"/>
<path fill="none" stroke="#000000" stroke-width="0.75" stroke-linecap="square" stroke-miterlimit="10" d="M510.5,498.899  C505.566,499.107,505.718,499.1,510.5,498.899L510.5,498.899z"/>
<path fill="none" stroke="#000000" stroke-width="0.75" stroke-linecap="square" stroke-miterlimit="10" d="M494,497.399  C490.118,497.618,490.479,497.597,494,497.399L494,497.399z"/>
<path fill="none" stroke="#000000" stroke-width="0.75" stroke-linecap="square" stroke-miterlimit="10" d="M482,497.399  C478.294,497.399,478.294,497.399,482,497.399L482,497.399z"/>
<path fill="none" stroke="#000000" stroke-width="0.75" stroke-linecap="square" stroke-miterlimit="10" d="M467,498.899  C462.426,498.899,462.426,498.899,467,498.899L467,498.899z"/>
<path fill="none" stroke="#000000" stroke-width="0.75" stroke-linecap="square" stroke-miterlimit="10" d="M449,492.149  C444.066,492.357,444.218,492.35,449,492.149L449,492.149z"/>
<path fill="none" stroke="#000000" stroke-width="0.75" stroke-linecap="square" stroke-miterlimit="10" d="M451.25,500.399  C447.15,499.667,447.8,499.783,451.25,500.399L451.25,500.399z"/>
<path fill="none" stroke="#000000" stroke-width="0.75" stroke-linecap="square" stroke-miterlimit="10" d="M434.75,498.899  C429.886,498.899,429.886,498.899,434.75,498.899L434.75,498.899z"/>
<path fill="none" stroke="#000000" stroke-width="0.75" stroke-linecap="square" stroke-miterlimit="10" d="M482,477.149  C477.136,477.149,477.136,477.149,482,477.149L482,477.149z"/>
<path fill="none" stroke="#000000" stroke-width="0.75" stroke-linecap="square" stroke-miterlimit="10" d="M498.5,477.899  c-1.731-0.211-2.395,4.57-5.25,0C496.26,471.547,496.264,477.626,498.5,477.899z"/>
<path fill="none" stroke="#000000" stroke-width="0.75" stroke-linecap="square" stroke-miterlimit="10" d="M515,480.899  C510.136,480.899,510.136,480.899,515,480.899L515,480.899z"/>
<path fill="none" stroke="#000000" stroke-width="0.75" stroke-linecap="square" stroke-miterlimit="10" d="M530,485.399  c-1.966,0-2.418,4.533-5.25,0C527.582,480.866,528.034,485.399,530,485.399z"/>
<path fill="none" stroke="#000000" stroke-width="0.75" stroke-linecap="square" stroke-miterlimit="10" d="M544.25,492.149  c-2.036,0-2.787,4.354-5.25,0C541.463,487.795,542.214,492.149,544.25,492.149z"/>
<path fill="none" stroke="#000000" stroke-width="0.75" stroke-linecap="square" stroke-miterlimit="10" d="M443.75,470.399  C437.134,470.399,437.134,470.399,443.75,470.399L443.75,470.399z"/>
<path fill="none" stroke="#000000" stroke-width="0.75" stroke-linecap="square" stroke-miterlimit="10" d="M500,465.899  c-1.228-0.038-1.206,4.531-5.25,2.25C494.96,459.423,497.344,465.817,500,465.899z"/>
<path fill="none" stroke="#000000" stroke-width="0.75" stroke-linecap="square" stroke-miterlimit="10" d="M518.75,468.149  C512.553,468.149,512.553,468.149,518.75,468.149L518.75,468.149z"/>
<path fill="none" stroke="#000000" stroke-width="0.75" stroke-linecap="square" stroke-miterlimit="10" d="M535.25,473.399  C528.369,473.763,528.766,473.742,535.25,473.399L535.25,473.399z"/>
<path fill="none" stroke="#000000" stroke-width="0.75" stroke-linecap="square" stroke-miterlimit="10" d="M549.5,480.899  c-2.438,0-1.794,7.197-5.25,0C547.706,473.702,547.062,480.899,549.5,480.899z"/>
<path fill="none" stroke="#000000" stroke-width="0.75" stroke-linecap="square" stroke-miterlimit="10" d="M500.75,450.899  C493.024,451.16,493.43,451.146,500.75,450.899L500.75,450.899z"/>
<path fill="none" stroke="#000000" stroke-width="0.75" stroke-linecap="square" stroke-miterlimit="10" d="M521,454.649  c-2.215-0.042-2.828,6.003-6.75,0C518.238,448.125,518.636,454.604,521,454.649z"/>
<path fill="none" stroke="#000000" stroke-width="0.75" stroke-linecap="square" stroke-miterlimit="10" d="M538.25,459.899  C532.331,459.169,531.631,459.083,538.25,459.899L538.25,459.899z"/>
<path fill="none" stroke="#000000" stroke-width="0.75" stroke-linecap="square" stroke-miterlimit="10" d="M554,466.649  C546.938,467.399,547.667,467.322,554,466.649L554,466.649z"/>
<path fill="none" stroke="#000000" stroke-width="0.75" stroke-linecap="square" stroke-miterlimit="10" d="M564.5,476.399  C560.082,476.605,560.689,476.577,564.5,476.399L564.5,476.399z"/>
<path fill="none" stroke="#000000" stroke-width="0.75" stroke-linecap="square" stroke-miterlimit="10" d="M440,456.149  C432.478,456.024,432.597,456.026,440,456.149L440,456.149z"/>
<path fill="none" stroke="#000000" stroke-width="0.75" stroke-linecap="square" stroke-miterlimit="10" d="M420.5,462.899  C415.68,463.101,416.103,463.083,420.5,462.899L420.5,462.899z"/>
<path fill="none" stroke="#000000" stroke-width="0.75" stroke-linecap="square" stroke-miterlimit="10" d="M407,471.899  C400.696,472.839,402.576,472.559,407,471.899L407,471.899z"/>
<path fill-rule="evenodd" clip-rule="evenodd" fill="#8E9093" stroke="#000000" stroke-width="2" stroke-linecap="square" stroke-miterlimit="10" d="  M383,477.149c-21.06-6.087-31.178,7.902-9.75,20.625c24.443,14.513,32.792-0.215,55.5,6.375c-10.749-9.22-25.508,0.744-30-2.625  c-8.937-6.703-16.919-13.293-27.75-16.125c8.105-0.994,10.404-3.429,18.75-1.5C387.5,481.649,385.25,479.399,383,477.149z"/>
</svg>