<svg xmlns="http://www.w3.org/2000/svg" xmlns:xlink="http://www.w3.org/1999/xlink" version="1.1" id="Layer_1" x="0px" y="0px" enable-background="new 0 0 822.05 841.89" xml:space="preserve" viewBox="235.32 278.05 350.83 284.23">
<path fill-rule="evenodd" clip-rule="evenodd" fill="#8E9093" stroke="#000000" stroke-width="2" stroke-linecap="square" stroke-miterlimit="10" d="  M334,498.39c-20.899,82.187,126.528,69.148,166.125,42.75c13.019-8.68,35.285-55.338,6.721-53.553  C449.23,491.188,391.615,494.79,334,498.39z"/>
<path fill-rule="evenodd" clip-rule="evenodd" fill="#8E9093" stroke="#000000" stroke-width="2" stroke-linecap="square" stroke-miterlimit="10" d="  M580.75,355.14c-2.444,101.961-311.32,101.689-311.25,0C269.569,254.121,576.431,253.418,580.75,355.14z"/>
<path fill-rule="evenodd" clip-rule="evenodd" fill="#8E9093" stroke="#000000" stroke-width="2" stroke-linecap="square" stroke-miterlimit="10" d="  M496.75,289.89c17.647-17.109,39.083-10.767,59.13-2.748c11.562,4.625,33.303,8.268,28.62,23.748  c-3.343,11.05-19.421,11.146-25.5,6.75c26.994-16.523-6.422-19.369-21.75-25.5C519.759,285.144,512.974,290.527,496.75,289.89z"/>
<path fill-rule="evenodd" clip-rule="evenodd" fill="#C4C6C8" stroke="#000000" stroke-width="2" stroke-linecap="square" stroke-miterlimit="10" d="  M271.75,370.89c20.224,91.507,58.519,143.794,155.25,145.5c93.186,1.644,139.243-64.229,153-148.5  C525.321,466.082,336.766,439.113,271.75,370.89z"/>
<path fill="none" stroke="#000000" stroke-width="2" stroke-linecap="square" stroke-miterlimit="10" d="M340,501.39  c-0.274,77.623,166.638,73.604,170.25-4.5"/>
<path fill-rule="evenodd" clip-rule="evenodd" fill="#C4C6C8" stroke="#000000" stroke-width="2" stroke-linecap="square" stroke-miterlimit="10" d="  M370,509.64c32.543,28.485,76.475,23.418,110.25,0.75C443.491,515.215,406.232,520.109,370,509.64z"/>
<path fill="none" stroke="#000000" stroke-linecap="square" stroke-miterlimit="10" d="M499,326.64  C482.579,345.234,482.579,308.046,499,326.64L499,326.64z"/>
<path fill="none" stroke="#000000" stroke-linecap="square" stroke-miterlimit="10" d="M552.25,351.39  C540.977,367.466,541.32,333.741,552.25,351.39L552.25,351.39z"/>
<path fill="none" stroke="#000000" stroke-linecap="square" stroke-miterlimit="10" d="M390.25,342.39  C377.674,345.699,378.007,338.2,390.25,342.39L390.25,342.39z"/>
<path fill="none" stroke="#000000" stroke-linecap="square" stroke-miterlimit="10" d="M424.75,339.39  C413.256,344.868,411.62,336.211,424.75,339.39L424.75,339.39z"/>
<path fill="none" stroke="#000000" stroke-linecap="square" stroke-miterlimit="10" d="M445,481.14  C432.453,486.589,432.669,476.168,445,481.14L445,481.14z"/>
<path fill="none" stroke="#000000" stroke-linecap="square" stroke-miterlimit="10" d="M445.75,502.89  C434.143,504.075,434.143,501.706,445.75,502.89L445.75,502.89z"/>
<path fill="none" stroke="#000000" stroke-linecap="square" stroke-miterlimit="10" d="M409.75,502.14  c-3.186,0.643-3.792,7.145-10.5,2.25C403.215,497.086,406.043,502.888,409.75,502.14z"/>
<path fill="none" stroke="#000000" stroke-linecap="square" stroke-miterlimit="10" d="M486.25,475.89  C475.21,481.077,473.753,472.621,486.25,475.89L486.25,475.89z"/>
<path fill="none" stroke="#000000" stroke-linecap="square" stroke-miterlimit="10" d="M517,466.89  C508.22,467.146,508.795,462.932,517,466.89L517,466.89z"/>
<path fill="none" stroke="#000000" stroke-linecap="square" stroke-miterlimit="10" d="M543.25,453.39  C534.389,453.101,534.773,449.639,543.25,453.39L543.25,453.39z"/>
<path fill="none" stroke="#000000" stroke-linecap="square" stroke-miterlimit="10" d="M484.75,495.39  C475.997,493.686,477.563,490.664,484.75,495.39L484.75,495.39z"/>
<path fill="none" stroke="#000000" stroke-linecap="square" stroke-miterlimit="10" d="M511,486.39  c-3.457-1.537-11.349,5.264-2.25-6.75C510.849,480.936,510.567,486.198,511,486.39z"/>
<path fill="none" stroke="#000000" stroke-linecap="square" stroke-miterlimit="10" d="M535,470.64  C530.346,468.691,530.904,468.924,535,470.64L535,470.64z"/>
<path fill="none" stroke="#000000" stroke-linecap="square" stroke-miterlimit="10" d="M407.5,481.89  C394.815,484.634,396.542,476.621,407.5,481.89L407.5,481.89z"/>
<path fill="none" stroke="#000000" stroke-linecap="square" stroke-miterlimit="10" d="M361.75,475.14  C354.135,479.794,355.872,478.733,361.75,475.14L361.75,475.14z"/>
<path fill="none" stroke="#000000" stroke-linecap="square" stroke-miterlimit="10" d="M366.25,491.64  C359.051,495.085,358.351,495.42,366.25,491.64L366.25,491.64z"/>
<path fill="none" stroke="#000000" stroke-linecap="square" stroke-miterlimit="10" d="M330.25,463.14  C323.253,465.692,324.557,465.216,330.25,463.14L330.25,463.14z"/>
<path fill="none" stroke="#000000" stroke-linecap="square" stroke-miterlimit="10" d="M336.25,481.89  C330.991,484.483,335.273,482.372,336.25,481.89L336.25,481.89z"/>
<path fill="none" stroke="#000000" stroke-linecap="square" stroke-miterlimit="10" d="M424.75,362.64  C414.314,365.953,413.777,361.349,424.75,362.64L424.75,362.64z"/>
<path fill="none" stroke="#000000" stroke-linecap="square" stroke-miterlimit="10" d="M393.25,364.89  C382.926,366.308,383.537,363.329,393.25,364.89L393.25,364.89z"/>
<path fill="none" stroke="#000000" stroke-linecap="square" stroke-miterlimit="10" d="M395.5,385.14  C387.67,385.347,387.744,385.345,395.5,385.14L395.5,385.14z"/>
<path fill="none" stroke="#000000" stroke-linecap="square" stroke-miterlimit="10" d="M371.5,389.64  C362.759,389.831,362.925,389.827,371.5,389.64L371.5,389.64z"/>
<path fill="none" stroke="#000000" stroke-linecap="square" stroke-miterlimit="10" d="M335.5,382.14  C327.75,382.14,327.75,382.14,335.5,382.14L335.5,382.14z"/>
<path fill="none" stroke="#000000" stroke-linecap="square" stroke-miterlimit="10" d="M342.25,398.64  C333.805,399.047,334.021,399.036,342.25,398.64L342.25,398.64z"/>
<path fill="none" stroke="#000000" stroke-linecap="square" stroke-miterlimit="10" d="M319.75,394.89  C311.172,395.447,310.949,395.462,319.75,394.89L319.75,394.89z"/>
<path fill="none" stroke="#000000" stroke-linecap="square" stroke-miterlimit="10" d="M397,400.14  C390.284,400.646,390.381,400.638,397,400.14L397,400.14z"/>
<path fill="none" stroke="#000000" stroke-linecap="square" stroke-miterlimit="10" d="M427,398.64c-2.541-0.117-2.779,6.256-6.75,0  C424.229,392.13,424.572,398.529,427,398.64z"/>
<path fill="none" stroke="#000000" stroke-linecap="square" stroke-miterlimit="10" d="M448.75,398.64  c-2.428,0.111-2.771,6.51-6.75,0C445.971,392.384,446.209,398.757,448.75,398.64z"/>
<path fill="none" stroke="#000000" stroke-linecap="square" stroke-miterlimit="10" d="M475,402.39  C468.362,402.575,468.247,402.578,475,402.39L475,402.39z"/>
<path fill="none" stroke="#000000" stroke-linecap="square" stroke-miterlimit="10" d="M496,409.89c-2.479,0.173-2.78,6.494-6.75,0  C493.133,404.528,493.689,410.052,496,409.89z"/>
<path fill="none" stroke="#000000" stroke-linecap="square" stroke-miterlimit="10" d="M469.75,415.89  c-2.688-0.101-2.682,6.303-6.75,0C466.86,409.217,467.054,415.789,469.75,415.89z"/>
<path fill="none" stroke="#000000" stroke-linecap="square" stroke-miterlimit="10" d="M445,413.64  C438.312,413.333,438.362,413.336,445,413.64L445,413.64z"/>
<path fill="none" stroke="#000000" stroke-linecap="square" stroke-miterlimit="10" d="M426.25,412.89  C419.634,412.89,419.634,412.89,426.25,412.89L426.25,412.89z"/>
<path fill="none" stroke="#000000" stroke-linecap="square" stroke-miterlimit="10" d="M403,415.14c-2.57,0-2.932,6.18-6.75,0  C400.068,408.96,400.43,415.14,403,415.14z"/>
<path fill="none" stroke="#000000" stroke-linecap="square" stroke-miterlimit="10" d="M374.5,405.39  C367.796,405.199,367.9,405.202,374.5,405.39L374.5,405.39z"/>
<path fill="none" stroke="#000000" stroke-linecap="square" stroke-miterlimit="10" d="M379,417.39c-2.068-0.129-2.249,3.759-6,2.25  C372.831,410.581,375.435,417.167,379,417.39z"/>
<path fill="none" stroke="#000000" stroke-linecap="square" stroke-miterlimit="10" d="M352.75,415.14  C345.118,415.14,345.118,415.14,352.75,415.14L352.75,415.14z"/>
<path fill="none" stroke="#000000" stroke-linecap="square" stroke-miterlimit="10" d="M426.25,381.39  C417.805,381.797,418.021,381.786,426.25,381.39L426.25,381.39z"/>
<path fill="none" stroke="#000000" stroke-linecap="square" stroke-miterlimit="10" d="M451.75,382.89  C443.166,382.325,443.316,382.334,451.75,382.89L451.75,382.89z"/>
<path fill="none" stroke="#000000" stroke-linecap="square" stroke-miterlimit="10" d="M477.25,387.39  C469.421,387.597,469.494,387.595,477.25,387.39L477.25,387.39z"/>
<path fill="none" stroke="#000000" stroke-linecap="square" stroke-miterlimit="10" d="M500.5,394.14  C491.937,394.581,491.707,394.592,500.5,394.14L500.5,394.14z"/>
<path fill="none" stroke="#000000" stroke-linecap="square" stroke-miterlimit="10" d="M522.25,404.64  C513.51,404.831,513.675,404.827,522.25,404.64L522.25,404.64z"/>
<path fill="none" stroke="#000000" stroke-linecap="square" stroke-miterlimit="10" d="M367,370.89  C356.139,372.907,355.561,369.768,367,370.89L367,370.89z"/>
<path fill="none" stroke="#000000" stroke-linecap="square" stroke-miterlimit="10" d="M454.75,364.14  C443.32,365.542,443.717,360.917,454.75,364.14L454.75,364.14z"/>
<path fill="none" stroke="#000000" stroke-linecap="square" stroke-miterlimit="10" d="M483.25,367.89  C472.512,368.898,473.104,366.012,483.25,367.89L483.25,367.89z"/>
<path fill="none" stroke="#000000" stroke-linecap="square" stroke-miterlimit="10" d="M508.75,376.14  C497.755,379.205,497.306,374.596,508.75,376.14L508.75,376.14z"/>
<path fill="none" stroke="#000000" stroke-linecap="square" stroke-miterlimit="10" d="M531.25,387.39  C520.992,389.384,523.055,387.822,531.25,387.39L531.25,387.39z"/>
<path fill="none" stroke="#000000" stroke-linecap="square" stroke-miterlimit="10" d="M454.75,340.89  C442.664,346.427,442.764,335.817,454.75,340.89L454.75,340.89z"/>
<path fill="none" stroke="#000000" stroke-linecap="square" stroke-miterlimit="10" d="M487,346.89  C474.424,350.199,474.757,342.7,487,346.89L487,346.89z"/>
<path fill="none" stroke="#000000" stroke-linecap="square" stroke-miterlimit="10" d="M513.25,354.39  C502.784,356.411,502.784,352.369,513.25,354.39L513.25,354.39z"/>
<path fill="none" stroke="#000000" stroke-linecap="square" stroke-miterlimit="10" d="M537.25,365.64  C527.131,368.01,527.276,363.863,537.25,365.64L537.25,365.64z"/>
<path fill="none" stroke="#000000" stroke-linecap="square" stroke-miterlimit="10" d="M553.75,380.64  C546.996,380.92,547.777,380.888,553.75,380.64L553.75,380.64z"/>
<path fill="none" stroke="#000000" stroke-linecap="square" stroke-miterlimit="10" d="M361,349.14  C348.669,354.112,348.453,343.691,361,349.14L361,349.14z"/>
<path fill="none" stroke="#000000" stroke-linecap="square" stroke-miterlimit="10" d="M331,359.64  C322.28,361.338,322.381,358.16,331,359.64L331,359.64z"/>
<path fill="none" stroke="#000000" stroke-linecap="square" stroke-miterlimit="10" d="M309.25,373.89  C301.049,373.89,301.049,373.89,309.25,373.89L309.25,373.89z"/>
<path fill-rule="evenodd" clip-rule="evenodd" fill="#8E9093" stroke="#000000" stroke-width="2" stroke-linecap="square" stroke-miterlimit="10" d="  M271.75,382.14c-9.23-3.253-25.533-4.456-32.25,4.5c-12.403,16.538,14.56,24.664,27.222,32.417  c32.45,19.868,44.324-5.051,76.278,3.583c-19.394-15.561-25.559-0.363-41.25-3.75c-13.616-2.939-29.802-21.086-48-24.75  c8.599-6.845,19.276-8.033,28.5-2.25C278.75,388.64,275.25,385.39,271.75,382.14z"/>
</svg>