<svg xmlns="http://www.w3.org/2000/svg" xmlns:xlink="http://www.w3.org/1999/xlink" version="1.1" id="Layer_1" x="0px" y="0px" enable-background="new 0 0 822.05 841.89" xml:space="preserve" viewBox="204.87 289.69 410.67 261.7">
<path fill-rule="evenodd" clip-rule="evenodd" fill="#5B6773" stroke="#000000" stroke-width="2" stroke-linecap="square" stroke-miterlimit="10" d="  M291.287,296.14c-15.817,4.218-90.658,22.208-85.125,49.875c7.233,36.165,45.949,3.904,60-4.125  c24.166-13.809,64.427-5.208,91.153-4.139c24.834,0.993,16.984-39.212,9.722-39.75C341.72,296.126,316.583,297.567,291.287,296.14z"/>
<path fill-rule="evenodd" clip-rule="evenodd" fill="#6E91A3" stroke="#000000" stroke-width="2" stroke-linecap="square" stroke-miterlimit="10" d="  M208.787,353.14c12.5,62.5,53.367,79.44,117.75,77.056c67.126-2.486,100.289-19.192,108.752-88.306  C393.25,404.214,262.158,392.848,208.787,353.14z"/>
<path fill-rule="evenodd" clip-rule="evenodd" fill="#D7D8DB" stroke="#000000" stroke-width="2" stroke-linecap="square" stroke-miterlimit="10" d="  M258.287,391.39c-0.5,3.5-1,7-1.5,10.5C277.982,400.952,275.674,378.302,258.287,391.39z"/>
<path fill-rule="evenodd" clip-rule="evenodd" fill="#D7D8DB" stroke="#000000" stroke-width="2" stroke-linecap="square" stroke-miterlimit="10" d="  M259.037,416.89c-0.25,3.5-0.5,7-0.75,10.5C279.354,425.21,276.237,404.273,259.037,416.89z"/>
<path fill-rule="evenodd" clip-rule="evenodd" fill="#D7D8DB" stroke="#000000" stroke-width="2" stroke-linecap="square" stroke-miterlimit="10" d="  M225.287,400.39c-1.5,3.5-3,7-4.5,10.5C241.213,416.005,245.872,394.839,225.287,400.39z"/>
<path fill-rule="evenodd" clip-rule="evenodd" fill="#D7D8DB" stroke="#000000" stroke-width="2" stroke-linecap="square" stroke-miterlimit="10" d="  M219.287,376.39c-1.5,3.25-3,6.5-4.5,9.75C235.057,390.471,239.484,369.946,219.287,376.39z"/>
<path fill-rule="evenodd" clip-rule="evenodd" fill="#D7D8DB" stroke="#000000" stroke-width="2" stroke-linecap="square" stroke-miterlimit="10" d="  M307.787,399.64c0.5,4,1,8,1.5,12C332.778,404.855,320.81,382.228,307.787,399.64z"/>
<path fill-rule="evenodd" clip-rule="evenodd" fill="#D7D8DB" stroke="#000000" stroke-width="2" stroke-linecap="square" stroke-miterlimit="10" d="  M307.787,428.14c1,3.75,2,7.5,3,11.25C332.715,429.5,317.64,408.257,307.787,428.14z"/>
<path fill-rule="evenodd" clip-rule="evenodd" fill="#D7D8DB" stroke="#000000" stroke-width="2" stroke-linecap="square" stroke-miterlimit="10" d="  M364.037,428.14c3,2,6,4,9,6C381.875,412.576,358.816,408.865,364.037,428.14z"/>
<path fill-rule="evenodd" clip-rule="evenodd" fill="#D7D8DB" stroke="#000000" stroke-width="2" stroke-linecap="square" stroke-miterlimit="10" d="  M366.287,401.89c3,1.25,6,2.5,9,3.75C377.271,387.6,361.458,383.017,366.287,401.89z"/>
<path fill-rule="evenodd" clip-rule="evenodd" fill="#D7D8DB" stroke="#000000" stroke-width="2" stroke-linecap="square" stroke-miterlimit="10" d="  M415.039,388.39c2.75-1,5.5-2,8.25-3C412.594,372.848,401.78,378.266,415.039,388.39z"/>
<path fill-rule="evenodd" clip-rule="evenodd" fill="#D7D8DB" stroke="#000000" stroke-width="2" stroke-linecap="square" stroke-miterlimit="10" d="  M436.789,366.64c2.25-1.25,4.5-2.5,6.75-3.75C430.917,356.247,426.786,357.972,436.789,366.64z"/>
<path fill-rule="evenodd" clip-rule="evenodd" fill="#D7D8DB" stroke="#000000" stroke-width="2" stroke-linecap="square" stroke-miterlimit="10" d="  M433.789,386.89C433.067,380.022,425.896,376.941,433.789,386.89L433.789,386.89z"/>
<path fill-rule="evenodd" clip-rule="evenodd" fill="#D7D8DB" stroke="#000000" stroke-width="2" stroke-linecap="square" stroke-miterlimit="10" d="  M409.789,410.89c3-0.5,6-1,9-1.5C410.449,394.496,397.245,398.443,409.789,410.89z"/>
<path fill-rule="evenodd" clip-rule="evenodd" fill="#5B6773" stroke="#000000" stroke-width="2" stroke-linecap="square" stroke-miterlimit="10" d="  M375.287,332.14c17.1,4.052,34.536,10.667,45.002,25.5c59.264-29.866-61.562-74.236-94.502-61.5  C342.287,308.14,358.787,320.14,375.287,332.14z"/>
<path fill-rule="evenodd" clip-rule="evenodd" fill="#E4ECF0" stroke="#000000" stroke-width="2" stroke-linecap="square" stroke-miterlimit="10" d="  M380.537,316.39c-1.643,35.208-80.61,34.89-80.25,0C300.641,282.057,377.736,282.198,380.537,316.39z"/>
<path fill-rule="evenodd" clip-rule="evenodd" fill="#5B6773" stroke="#000000" stroke-width="2" stroke-linecap="square" stroke-miterlimit="10" d="  M374.537,316.39c-5.313,22.67-65.336,24.392-65.25,0C309.374,291.732,369.568,293.737,374.537,316.39z"/>
<path fill-rule="evenodd" clip-rule="evenodd" fill="#D7D8DB" stroke="#000000" stroke-width="2" stroke-linecap="square" stroke-miterlimit="10" d="  M364.787,314.89c6.603-0.713,14.427-0.92,19.5,0.75C375.667,320.447,370.174,316.686,364.787,314.89z"/>
<path fill-rule="evenodd" clip-rule="evenodd" fill="#5B6773" stroke="#000000" stroke-width="2" stroke-linecap="square" stroke-miterlimit="10" d="  M462.289,331.39c-18.51,4.936-89.645,20.696-84.002,51c6.969,37.425,47.298-1.143,59.252-5.625  c27.506-10.315,58.655-4.979,87.564-4.389c10.093,0.206,20.201,3.663,18.936-8.361c-0.979-9.293,3.96-30.026-6-30.764  C512.77,331.379,487.613,331.39,462.289,331.39z"/>
<path fill-rule="evenodd" clip-rule="evenodd" fill="#6E91A3" stroke="#000000" stroke-width="2" stroke-linecap="square" stroke-miterlimit="10" d="  M379.787,388.39c12.846,64.229,54.304,76.5,118.308,76.5c67.002,0,99.776-20.403,108.194-87.75  C567.655,440.512,430.762,427.037,379.787,388.39z"/>
<path fill-rule="evenodd" clip-rule="evenodd" fill="#D7D8DB" stroke="#000000" stroke-width="2" stroke-linecap="square" stroke-miterlimit="10" d="  M429.289,426.64c-0.25,3.5-0.5,7-0.75,10.5C450.053,434.843,445.881,413.646,429.289,426.64z"/>
<path fill-rule="evenodd" clip-rule="evenodd" fill="#D7D8DB" stroke="#000000" stroke-width="2" stroke-linecap="square" stroke-miterlimit="10" d="  M430.039,452.14c-0.25,3.5-0.5,7-0.75,10.5C450.597,461.179,447.757,438.66,430.039,452.14z"/>
<path fill-rule="evenodd" clip-rule="evenodd" fill="#D7D8DB" stroke="#000000" stroke-width="2" stroke-linecap="square" stroke-miterlimit="10" d="  M396.287,435.64c-1.5,3.25-3,6.5-4.5,9.75C412.946,450.602,416.917,428.553,396.287,435.64z"/>
<path fill-rule="evenodd" clip-rule="evenodd" fill="#D7D8DB" stroke="#000000" stroke-width="2" stroke-linecap="square" stroke-miterlimit="10" d="  M390.287,411.64c-1.5,3.25-3,6.5-4.5,9.75C406.735,426.532,410.27,404.074,390.287,411.64z"/>
<path fill-rule="evenodd" clip-rule="evenodd" fill="#D7D8DB" stroke="#000000" stroke-width="2" stroke-linecap="square" stroke-miterlimit="10" d="  M479.539,434.89c0.25,3.75,0.5,7.5,0.75,11.25C504.991,440.17,490.535,416.219,479.539,434.89z"/>
<path fill-rule="evenodd" clip-rule="evenodd" fill="#D7D8DB" stroke="#000000" stroke-width="2" stroke-linecap="square" stroke-miterlimit="10" d="  M478.789,463.39c1,3.75,2,7.5,3,11.25C504.839,463.457,487.834,443.714,478.789,463.39z"/>
<path fill-rule="evenodd" clip-rule="evenodd" fill="#D7D8DB" stroke="#000000" stroke-width="2" stroke-linecap="square" stroke-miterlimit="10" d="  M535.789,462.64c3,2.25,6,4.5,9,6.75C553.348,449.971,532.087,441.498,535.789,462.64z"/>
<path fill-rule="evenodd" clip-rule="evenodd" fill="#D7D8DB" stroke="#000000" stroke-width="2" stroke-linecap="square" stroke-miterlimit="10" d="  M537.289,436.39c3,1.5,6,3,9,4.5C550.2,423.164,533.435,417.296,537.289,436.39z"/>
<path fill-rule="evenodd" clip-rule="evenodd" fill="#D7D8DB" stroke="#000000" stroke-width="2" stroke-linecap="square" stroke-miterlimit="10" d="  M586.039,423.64c3-1,6-2,9-3C585.348,407.481,572.865,413.17,586.039,423.64z"/>
<path fill-rule="evenodd" clip-rule="evenodd" fill="#D7D8DB" stroke="#000000" stroke-width="2" stroke-linecap="square" stroke-miterlimit="10" d="  M608.539,401.89c2-1.5,4-3,6-4.5C601.919,391.497,596.299,393.979,608.539,401.89z"/>
<path fill-rule="evenodd" clip-rule="evenodd" fill="#D7D8DB" stroke="#000000" stroke-width="2" stroke-linecap="square" stroke-miterlimit="10" d="  M605.539,422.14C605.192,413.981,597.571,411.973,605.539,422.14L605.539,422.14z"/>
<path fill-rule="evenodd" clip-rule="evenodd" fill="#D7D8DB" stroke="#000000" stroke-width="2" stroke-linecap="square" stroke-miterlimit="10" d="  M580.789,446.14c3-0.75,6-1.5,9-2.25C580.35,429.66,569.114,434.774,580.789,446.14z"/>
<path fill-rule="evenodd" clip-rule="evenodd" fill="#5B6773" stroke="#000000" stroke-width="2" stroke-linecap="square" stroke-miterlimit="10" d="  M547.039,367.39c16.554,2.914,35.088,10.866,44.25,25.5c25.047-11.785,14.447-36.118-3.375-48  c-24.141-16.094-62.492-21.811-90.375-14.25C514.039,342.89,530.539,355.14,547.039,367.39z"/>
<path fill-rule="evenodd" clip-rule="evenodd" fill="#E4ECF0" stroke="#000000" stroke-width="2" stroke-linecap="square" stroke-miterlimit="10" d="  M551.539,351.64c-1.595,34.41-80.25,34.666-80.25,0C471.289,316.975,549.944,317.23,551.539,351.64z"/>
<path fill-rule="evenodd" clip-rule="evenodd" fill="#5B6773" stroke="#000000" stroke-width="2" stroke-linecap="square" stroke-miterlimit="10" d="  M546.289,351.64c-6.996,21.48-66.978,24.172-65.25,0C482.87,326.027,539.839,328.403,546.289,351.64z"/>
<path fill-rule="evenodd" clip-rule="evenodd" fill="#D7D8DB" stroke="#000000" stroke-width="2" stroke-linecap="square" stroke-miterlimit="10" d="  M536.539,350.14c6.137-0.905,13.146-1.299,18.75-0.75C548.182,354.83,540.913,351.46,536.539,350.14z"/>
<path fill-rule="evenodd" clip-rule="evenodd" fill="#5B6773" stroke="#000000" stroke-width="2" stroke-linecap="square" stroke-miterlimit="10" d="  M328.787,407.14c-15.817,4.218-90.658,22.208-85.125,49.875c7.614,38.068,45.868,1.557,60-4.5  c27.233-11.672,62.302-4.918,91.153-3.764c24.835,0.993,16.987-39.212,9.724-39.75C379.221,407.126,354.083,408.567,328.787,407.14z  "/>
<path fill-rule="evenodd" clip-rule="evenodd" fill="#6E91A3" stroke="#000000" stroke-width="2" stroke-linecap="square" stroke-miterlimit="10" d="  M246.287,464.14c12.5,62.5,53.367,79.44,117.75,77.056c67.127-2.486,100.289-19.191,108.752-88.306  C427.689,514.852,302.434,503.595,246.287,464.14z"/>
<path fill-rule="evenodd" clip-rule="evenodd" fill="#D7D8DB" stroke="#000000" stroke-width="2" stroke-linecap="square" stroke-miterlimit="10" d="  M295.787,502.39c-0.5,3.5-1,7-1.5,10.5C315.828,511.988,312.625,489.015,295.787,502.39z"/>
<path fill-rule="evenodd" clip-rule="evenodd" fill="#D7D8DB" stroke="#000000" stroke-width="2" stroke-linecap="square" stroke-miterlimit="10" d="  M296.537,527.89c-0.25,3.5-0.5,7-0.75,10.5C316.854,536.21,313.737,515.274,296.537,527.89z"/>
<path fill-rule="evenodd" clip-rule="evenodd" fill="#D7D8DB" stroke="#000000" stroke-width="2" stroke-linecap="square" stroke-miterlimit="10" d="  M262.787,511.39c-1.5,3.5-3,7-4.5,10.5C278.927,526.956,283.015,505.447,262.787,511.39z"/>
<path fill-rule="evenodd" clip-rule="evenodd" fill="#D7D8DB" stroke="#000000" stroke-width="2" stroke-linecap="square" stroke-miterlimit="10" d="  M256.787,487.39c-1.5,3.25-3,6.5-4.5,9.75C272.626,502.323,277.533,480.913,256.787,487.39z"/>
<path fill-rule="evenodd" clip-rule="evenodd" fill="#D7D8DB" stroke="#000000" stroke-width="2" stroke-linecap="square" stroke-miterlimit="10" d="  M345.287,510.64c0.5,4,1,8,1.5,12C370.063,515.917,358.557,492.925,345.287,510.64z"/>
<path fill-rule="evenodd" clip-rule="evenodd" fill="#D7D8DB" stroke="#000000" stroke-width="2" stroke-linecap="square" stroke-miterlimit="10" d="  M345.287,539.14c1,3.75,2,7.5,3,11.25C370.215,540.5,355.14,519.257,345.287,539.14z"/>
<path fill-rule="evenodd" clip-rule="evenodd" fill="#D7D8DB" stroke="#000000" stroke-width="2" stroke-linecap="square" stroke-miterlimit="10" d="  M401.537,539.14c3,2,6.001,4,9.002,6C419.215,524.677,398.431,518.818,401.537,539.14z"/>
<path fill-rule="evenodd" clip-rule="evenodd" fill="#D7D8DB" stroke="#000000" stroke-width="2" stroke-linecap="square" stroke-miterlimit="10" d="  M403.787,512.89c3,1.25,6.001,2.5,9.002,3.75C414.79,498.565,399.117,494.083,403.787,512.89z"/>
<path fill-rule="evenodd" clip-rule="evenodd" fill="#D7D8DB" stroke="#000000" stroke-width="2" stroke-linecap="square" stroke-miterlimit="10" d="  M452.539,499.39c2.75-1,5.5-2,8.25-3C450.094,483.848,439.283,489.266,452.539,499.39z"/>
<path fill-rule="evenodd" clip-rule="evenodd" fill="#D7D8DB" stroke="#000000" stroke-width="2" stroke-linecap="square" stroke-miterlimit="10" d="  M474.289,477.64c2.25-1.25,4.5-2.5,6.75-3.75C468.417,467.247,464.286,468.971,474.289,477.64z"/>
<path fill-rule="evenodd" clip-rule="evenodd" fill="#D7D8DB" stroke="#000000" stroke-width="2" stroke-linecap="square" stroke-miterlimit="10" d="  M471.289,497.89C470.698,491.021,463.564,487.759,471.289,497.89L471.289,497.89z"/>
<path fill-rule="evenodd" clip-rule="evenodd" fill="#D7D8DB" stroke="#000000" stroke-width="2" stroke-linecap="square" stroke-miterlimit="10" d="  M447.289,521.89c3-0.5,6-1,9-1.5C447.949,505.497,434.749,509.444,447.289,521.89z"/>
<path fill-rule="evenodd" clip-rule="evenodd" fill="#5B6773" stroke="#000000" stroke-width="2" stroke-linecap="square" stroke-miterlimit="10" d="  M412.789,443.14c17.003,4.029,34.893,10.389,45,25.5c59.421-29.945-61.613-74.216-94.502-61.5  C379.788,419.14,396.289,431.14,412.789,443.14z"/>
<path fill-rule="evenodd" clip-rule="evenodd" fill="#E4ECF0" stroke="#000000" stroke-width="2" stroke-linecap="square" stroke-miterlimit="10" d="  M418.039,427.39c-1.641,35.152-80.69,34.999-80.252,0C338.215,393.159,415.236,393.184,418.039,427.39z"/>
<path fill-rule="evenodd" clip-rule="evenodd" fill="#5B6773" stroke="#000000" stroke-width="2" stroke-linecap="square" stroke-miterlimit="10" d="  M412.039,427.39c-5.379,22.3-65.252,24.582-65.252,0C346.787,402.549,407.102,404.891,412.039,427.39z"/>
<path fill-rule="evenodd" clip-rule="evenodd" fill="#D7D8DB" stroke="#000000" stroke-width="2" stroke-linecap="square" stroke-miterlimit="10" d="  M402.287,425.89c6.171-0.915,12.53-1.002,18.752-1.5c-0.111,0.835,0.139,1.585,0.75,2.25  C413.137,431.464,407.631,427.508,402.287,425.89z"/>
</svg>