<svg xmlns="http://www.w3.org/2000/svg" xmlns:xlink="http://www.w3.org/1999/xlink" version="1.1" id="Layer_1" x="0px" y="0px" enable-background="new 0 0 822.05 841.89" xml:space="preserve" viewBox="329.03 351.88 164 141.19">
<path fill-rule="evenodd" clip-rule="evenodd" fill="#CC6635" stroke="#000000" stroke-width="1.5" stroke-linecap="square" stroke-miterlimit="10" d="  M390.006,357.89c-32.925-15.377-63.12,4.401-60,40.5c4.816,55.719,75.633,114.318,131.25,87c31.117-15.285,50.191-96.544,0.75-95.25  c-14.1,0.369-19.956,18.847-34.5,15C414.749,401.766,405.272,366.65,390.006,357.89z"/>
<path fill-rule="evenodd" clip-rule="evenodd" fill="#2F9E32" stroke="#000000" stroke-width="1.5" stroke-linecap="square" stroke-miterlimit="10" d="  M362.256,411.89c8.037,12.619-8.818,21.909-10.875,11.625C348.865,410.937,346.72,401.142,362.256,411.89z"/>
<path fill-rule="evenodd" clip-rule="evenodd" fill="#F79910" stroke="#000000" stroke-width="1.5" stroke-linecap="square" stroke-miterlimit="10" d="  M393.756,443.39C352.253,451.41,440.365,500.45,393.756,443.39L393.756,443.39z"/>
<path fill-rule="evenodd" clip-rule="evenodd" fill="#28097F" stroke="#000000" stroke-width="1.5" stroke-linecap="square" stroke-miterlimit="10" d="  M459.756,461.39c0.924,8.676-14.214,23.703-24,13.5C424.262,462.906,451.086,455.561,459.756,461.39z"/>
<path fill-rule="evenodd" clip-rule="evenodd" fill="#9A1184" stroke="#000000" stroke-width="1.5" stroke-linecap="square" stroke-miterlimit="10" d="  M471.756,410.39C445.846,429.865,494.976,456.913,471.756,410.39L471.756,410.39z"/>
<path fill-rule="evenodd" clip-rule="evenodd" fill="#F7F619" stroke="#000000" stroke-width="1.5" stroke-linecap="square" stroke-miterlimit="10" d="  M410.256,415.64c-25.902-2.396,2.114,27.022,13.5,25.125C451.76,436.098,424.986,417.662,410.256,415.64z"/>
<path fill-rule="evenodd" clip-rule="evenodd" fill="#F8130D" stroke="#000000" stroke-width="1.5" stroke-linecap="square" stroke-miterlimit="10" d="  M375.006,369.14c-6.132-3.348-15.186-4.721-20.25-0.75c-11.17,8.757,4.748,7.52,8.25,10.5  C376.952,390.757,390.33,388.174,375.006,369.14z"/>
</svg>