<svg xmlns="http://www.w3.org/2000/svg" xmlns:xlink="http://www.w3.org/1999/xlink" version="1.1" id="Layer_1" x="0px" y="0px" enable-background="new 0 0 822.05 841.89" xml:space="preserve" viewBox="206.82 281.69 408.45 278.44">
<path fill-rule="evenodd" clip-rule="evenodd" fill="#D01679" d="M558.625,333.265c-10.681-22.124-16.428-57.581-47.25-49.875  c-35.404,8.851-63.834,30.119-92.953,51.398c-32.121,23.473-62.409,50.527-94.547,73.477c-30.645,21.884-82.966,35.229-106.5,64.5  c-11.991,14.913-13.581,28.231-2.25,44.25c24.749,34.989,36.549,7.495,55.5-13.5c33.817-37.465,87.782-101.35,135.75-54.75  c-4.133-14.011-20.577-29.421-21-42.75c8.694,12.529,17.298,25.187,26.25,37.5c1.331-14.095-25.169-29.22-20.25-43.5  c8.492,12.617,18.151,31.863,29.25,39c-6.47-14.279-17.799-27.959-27-41.25c1-1,2-2,3-3c9.148,13.468,18.066,29.635,29.25,40.5  c-4.58-14.116-17.893-29.459-27-42.75c1-0.75,2-1.5,3-2.25c9.325,13.357,18.771,29.996,30,40.5  c-4.769-14.139-18.409-29.477-27.75-42.75c1.25-1,2.5-2,3.75-3c9.44,13.777,18.726,27.742,28.5,41.25  c0.921-0.263,1.671-0.763,2.25-1.5c-7.801-14.368-18.864-28.307-28.5-42c1.25-0.75,2.5-1.5,3.75-2.25  c9.401,13.721,18.579,30.124,30,41.25c-4.806-14.372-18.399-29.966-27.75-43.5c1.25-0.75,2.5-1.5,3.75-2.25  c9.655,13.975,19.09,30.613,30.75,42c-5.033-14.628-18.906-30.474-28.5-44.25c1.25-0.75,2.5-1.5,3.75-2.25  c9.822,14.104,19.763,31.507,31.5,42.75c-5.262-14.885-19.412-30.98-29.25-45c1-0.75,2-1.5,3-2.25  c9.956,14.295,19.564,29.771,30.75,42.75c0.5-0.5,1-1,1.5-1.5c-8.064-14.863-19.362-29.302-29.25-43.5c1-0.75,2-1.5,3-2.25  c9.94,14.528,19.725,29.242,30,43.5c0.921-0.263,1.671-0.763,2.25-1.5c-8.282-14.878-19.865-29.312-30-43.5  c1.25-0.75,2.5-1.5,3.75-2.25c9.855,14.405,19.61,32.952,32.25,43.5c-6.001-15.196-19.903-31.361-30-45.75  c1.25-0.75,2.5-1.5,3.75-2.25c10.075,14.357,20.274,31.996,32.25,43.5c-5.824-15.163-19.393-31.343-29.25-45.75  c12.828,5.87,23.365,30.582,35.25,42c-5.745-14.843-19.628-31.44-29.25-45.75c1-0.75,2-1.5,3-2.25  c10.075,14.357,20.274,31.996,32.25,43.5c-5.262-14.885-19.412-30.98-29.25-45c1-0.75,2-1.5,3-2.25  c10.162,14.735,19.792,31.079,31.5,44.25c0.5-0.5,1-1,1.5-1.5c-8.305-15.118-19.863-29.805-30-44.25c1-0.75,2-1.5,3-2.25  c9.377,13.597,20.383,36.112,33,43.5c-7.436-15.543-19.803-30.469-30-45c1.25-1,2.5-2,3.75-3c10.195,14.671,20.377,33.644,33,45  c-3.655-15.543-20.104-32.5-30-46.5c1-0.75,2-1.5,3-2.25c10.195,14.671,20.377,33.644,33,45c-4.502-15.146-20.142-32.314-30-46.5  c1-0.75,2-1.5,3-2.25c10.44,15.024,20.663,30.29,31.5,45c0.921-0.263,1.671-0.763,2.25-1.5c-9.769-15.272-20.445-30.058-30.75-45  c1-0.75,2-1.5,3-2.25c10.203,14.434,20.417,33.107,33,44.25c-4.468-15.177-20.154-31.822-30-45.75c1.25-0.75,2.5-1.5,3.75-2.25  c8.934,13.176,20.748,39.158,33.75,43.5c-9.795-15.506-20.447-30.553-30.75-45.75c12.495,4.076,24.887,29.893,34.5,42.75  c0.921-0.263,1.671-0.763,2.25-1.5c-9.769-15.272-20.445-30.058-30.75-45c12.828,5.87,23.365,30.582,35.25,42  c-4.286-15.145-19.632-31.804-29.25-45.75c13.62,4.443,23.729,31.884,36,42.75c-5.923-14.879-20.143-31.458-30-45.75  c1.25-0.75,2.5-1.5,3.75-2.25c10.091,13.918,20.014,31.613,33,42C561.731,341.565,560.102,337.515,558.625,333.265z"/>
<path fill="none" stroke="#000000" stroke-width="1.25" stroke-linecap="square" stroke-miterlimit="10" d="M558.625,333.265  c-10.681-22.124-16.428-57.581-47.25-49.875c-35.404,8.851-63.834,30.119-92.953,51.398c-32.121,23.473-62.409,50.527-94.547,73.477  c-30.645,21.884-82.966,35.229-106.5,64.5c-11.991,14.913-13.581,28.231-2.25,44.25c24.749,34.989,36.549,7.495,55.5-13.5  c33.817-37.465,87.782-101.35,135.75-54.75c-4.133-14.011-20.577-29.421-21-42.75c8.694,12.529,17.298,25.187,26.25,37.5  c1.331-14.095-25.169-29.22-20.25-43.5c8.492,12.617,18.151,31.863,29.25,39c-6.47-14.279-17.799-27.959-27-41.25c1-1,2-2,3-3  c9.148,13.468,18.066,29.635,29.25,40.5c-4.58-14.116-17.893-29.459-27-42.75c1-0.75,2-1.5,3-2.25  c9.325,13.357,18.771,29.996,30,40.5c-4.769-14.139-18.409-29.477-27.75-42.75c1.25-1,2.5-2,3.75-3  c9.44,13.777,18.726,27.742,28.5,41.25c0.921-0.263,1.671-0.763,2.25-1.5c-7.801-14.368-18.864-28.307-28.5-42  c1.25-0.75,2.5-1.5,3.75-2.25c9.401,13.721,18.579,30.124,30,41.25c-4.806-14.372-18.399-29.966-27.75-43.5  c1.25-0.75,2.5-1.5,3.75-2.25c9.655,13.975,19.09,30.613,30.75,42c-5.033-14.628-18.906-30.474-28.5-44.25  c1.25-0.75,2.5-1.5,3.75-2.25c9.822,14.104,19.763,31.507,31.5,42.75c-5.262-14.885-19.412-30.98-29.25-45c1-0.75,2-1.5,3-2.25  c9.956,14.295,19.564,29.771,30.75,42.75c0.5-0.5,1-1,1.5-1.5c-8.064-14.863-19.362-29.302-29.25-43.5c1-0.75,2-1.5,3-2.25  c9.94,14.528,19.725,29.242,30,43.5c0.921-0.263,1.671-0.763,2.25-1.5c-8.282-14.878-19.865-29.312-30-43.5  c1.25-0.75,2.5-1.5,3.75-2.25c9.855,14.405,19.61,32.952,32.25,43.5c-6.001-15.196-19.903-31.361-30-45.75  c1.25-0.75,2.5-1.5,3.75-2.25c10.075,14.357,20.274,31.996,32.25,43.5c-5.824-15.163-19.393-31.343-29.25-45.75  c12.828,5.87,23.365,30.582,35.25,42c-5.745-14.843-19.628-31.44-29.25-45.75c1-0.75,2-1.5,3-2.25  c10.075,14.357,20.274,31.996,32.25,43.5c-5.262-14.885-19.412-30.98-29.25-45c1-0.75,2-1.5,3-2.25  c10.162,14.735,19.792,31.079,31.5,44.25c0.5-0.5,1-1,1.5-1.5c-8.305-15.118-19.863-29.805-30-44.25c1-0.75,2-1.5,3-2.25  c9.377,13.597,20.383,36.112,33,43.5c-7.436-15.543-19.803-30.469-30-45c1.25-1,2.5-2,3.75-3c10.195,14.671,20.377,33.644,33,45  c-3.655-15.543-20.104-32.5-30-46.5c1-0.75,2-1.5,3-2.25c10.195,14.671,20.377,33.644,33,45c-4.502-15.146-20.142-32.314-30-46.5  c1-0.75,2-1.5,3-2.25c10.44,15.024,20.663,30.29,31.5,45c0.921-0.263,1.671-0.763,2.25-1.5c-9.769-15.272-20.445-30.058-30.75-45  c1-0.75,2-1.5,3-2.25c10.203,14.434,20.417,33.107,33,44.25c-4.468-15.177-20.154-31.822-30-45.75c1.25-0.75,2.5-1.5,3.75-2.25  c8.934,13.176,20.748,39.158,33.75,43.5c-9.795-15.506-20.447-30.553-30.75-45.75c12.495,4.076,24.887,29.893,34.5,42.75  c0.921-0.263,1.671-0.763,2.25-1.5c-9.769-15.272-20.445-30.058-30.75-45c12.828,5.87,23.365,30.582,35.25,42  c-4.286-15.145-19.632-31.804-29.25-45.75c13.62,4.443,23.729,31.884,36,42.75c-5.923-14.879-20.143-31.458-30-45.75  c1.25-0.75,2.5-1.5,3.75-2.25c10.091,13.918,20.014,31.613,33,42C561.731,341.565,560.102,337.515,558.625,333.265z"/>
<path fill-rule="evenodd" clip-rule="evenodd" fill="#ABD151" d="M593.875,411.265c-6.515-25.245-4.926-58.5-36.75-58.5  c-33.084,0-64.348,14.029-93.75,27.75c-37.837,17.657-74.966,40.036-113.625,55.5c-32.79,13.116-90.049,18.729-116.625,40.875  c-15.509,12.924-22.079,24.618-13.5,44.625c16.879,39.363,35.335,14.003,57.75-2.25c44.754-32.452,102.192-78.038,144-26.25  c-2.329-15.472-13.514-32.145-12.75-45.75c5.932,13.593,11.497,31.639,20.25,42c-2.276-14.039-11.232-30.21-17.25-44.25  c1.25-0.75,2.5-1.5,3.75-2.25c6.176,14.327,11.971,33.168,21,44.25c-2.535-14.782-11.732-31.709-18-46.5c1.25-0.5,2.5-1,3.75-1.5  c6.172,14.565,11.942,33.69,21,45c-2.541-14.906-17.565-36.325-15-48.75c6.547,14.855,12.936,33.738,21.75,45.75  c-2.776-15.587-12.215-32.668-18.75-48c1.25-0.5,2.5-1,3.75-1.5c6.425,14.826,12.475,34.171,21.75,45.75  c-2.74-15.04-12.238-32.222-18.75-47.25c1.25-0.75,2.5-1.5,3.75-2.25c6.421,15.064,12.447,34.692,21.75,46.5  c-2.767-15.283-12.235-32.715-18.75-48c1.25-0.5,2.5-1,3.75-1.5c6.674,15.325,12.979,35.174,22.5,47.25  c-2.974-15.541-12.74-33.227-19.5-48.75c1.25-0.75,2.5-1.5,3.75-2.25c6.667,15.804,12.926,36.214,22.5,48.75  c-3.026-16.028-12.734-34.212-19.5-50.25c1.25-0.5,2.5-1,3.75-1.5c6.67,15.564,12.951,35.693,22.5,48  c-3.001-15.785-12.737-33.72-19.5-49.5c10.932,8.766,15.834,34.792,25.5,47.25c-2.785-15.579-18.072-37.912-15.75-51  c6.784,15.508,12.943,36.926,23.25,48.75c-2.411-15.993-13.35-34.477-20.25-50.25c1.5-0.5,3-1,4.5-1.5  c6.667,15.804,12.926,36.214,22.5,48.75c-2.984-15.803-18.628-38.433-16.5-51.75c6.951,15.889,13.426,36.808,23.25,49.5  c-2.433-16.531-13.328-34.93-20.25-51c1.5-0.5,3-1,4.5-1.5c6.667,15.804,12.926,36.214,22.5,48.75  c-2.961-15.577-18.652-37.901-16.5-51c6.951,15.889,13.426,36.808,23.25,49.5c-2.262-16.514-12.814-34.905-19.5-51  c12.104,7.682,16.543,36.209,26.25,48.75c-2.262-16.514-12.814-34.905-19.5-51c1.25-0.5,2.5-1,3.75-1.5  c6.18,14.567,13.01,42.945,24.75,49.5c-5.598-17.219-13.864-34.18-21-51c12.271,8.186,15.706,37.022,26.25,49.5  c-2.47-16.485-13.336-35.453-20.25-51.75c1.25-0.5,2.5-1,3.75-1.5c6.781,15.983,12.87,37.967,23.25,50.25  c-2.44-16.239-13.343-34.965-20.25-51c1.105-1.112,2.355-1.612,3.75-1.5c6.782,15.746,12.906,37.446,23.25,49.5  c-2.44-16.239-13.343-34.965-20.25-51c1.25-0.5,2.5-1,3.75-1.5c6.18,14.567,13.01,42.945,24.75,49.5  c-5.579-16.974-13.864-33.685-21-50.25c1.25-0.5,2.5-1,3.75-1.5c6.947,16.127,13.385,37.333,23.25,50.25  c-2.367-16.09-21.003-39.272-17.25-52.5c6.784,15.508,12.943,36.925,23.25,48.75c-3.026-16.028-12.734-34.212-19.5-50.25  c12.237,7.964,15.729,36.49,26.25,48.75c-2.271-16.22-12.829-34.941-19.5-51c1.25-0.5,2.5-1,3.75-1.5  c6.938,15.956,12.771,35.833,24,48.75C594.918,420.17,594.392,415.788,593.875,411.265z"/>
<path fill="none" stroke="#000000" stroke-width="1.25" stroke-linecap="square" stroke-miterlimit="10" d="M593.875,411.265  c-6.515-25.245-4.926-58.5-36.75-58.5c-33.084,0-64.348,14.029-93.75,27.75c-37.837,17.657-74.966,40.036-113.625,55.5  c-32.79,13.116-90.049,18.729-116.625,40.875c-15.509,12.924-22.079,24.618-13.5,44.625c16.879,39.363,35.335,14.003,57.75-2.25  c44.754-32.452,102.192-78.038,144-26.25c-2.329-15.472-13.514-32.145-12.75-45.75c5.932,13.593,11.497,31.639,20.25,42  c-2.276-14.039-11.232-30.21-17.25-44.25c1.25-0.75,2.5-1.5,3.75-2.25c6.176,14.327,11.971,33.168,21,44.25  c-2.535-14.782-11.732-31.709-18-46.5c1.25-0.5,2.5-1,3.75-1.5c6.172,14.565,11.942,33.69,21,45  c-2.541-14.906-17.565-36.325-15-48.75c6.547,14.855,12.936,33.738,21.75,45.75c-2.776-15.587-12.215-32.668-18.75-48  c1.25-0.5,2.5-1,3.75-1.5c6.425,14.826,12.475,34.171,21.75,45.75c-2.74-15.04-12.238-32.222-18.75-47.25  c1.25-0.75,2.5-1.5,3.75-2.25c6.421,15.064,12.447,34.692,21.75,46.5c-2.767-15.283-12.235-32.715-18.75-48c1.25-0.5,2.5-1,3.75-1.5  c6.674,15.325,12.979,35.174,22.5,47.25c-2.974-15.541-12.74-33.227-19.5-48.75c1.25-0.75,2.5-1.5,3.75-2.25  c6.667,15.804,12.926,36.214,22.5,48.75c-3.026-16.028-12.734-34.212-19.5-50.25c1.25-0.5,2.5-1,3.75-1.5  c6.67,15.564,12.951,35.693,22.5,48c-3.001-15.785-12.737-33.72-19.5-49.5c10.932,8.766,15.834,34.792,25.5,47.25  c-2.785-15.579-18.072-37.912-15.75-51c6.784,15.508,12.943,36.926,23.25,48.75c-2.411-15.993-13.35-34.477-20.25-50.25  c1.5-0.5,3-1,4.5-1.5c6.667,15.804,12.926,36.214,22.5,48.75c-2.984-15.803-18.628-38.433-16.5-51.75  c6.951,15.889,13.426,36.808,23.25,49.5c-2.433-16.531-13.328-34.93-20.25-51c1.5-0.5,3-1,4.5-1.5  c6.667,15.804,12.926,36.214,22.5,48.75c-2.961-15.577-18.652-37.901-16.5-51c6.951,15.889,13.426,36.808,23.25,49.5  c-2.262-16.514-12.814-34.905-19.5-51c12.104,7.682,16.543,36.209,26.25,48.75c-2.262-16.514-12.814-34.905-19.5-51  c1.25-0.5,2.5-1,3.75-1.5c6.18,14.567,13.01,42.945,24.75,49.5c-5.598-17.219-13.864-34.18-21-51  c12.271,8.186,15.706,37.022,26.25,49.5c-2.47-16.485-13.336-35.453-20.25-51.75c1.25-0.5,2.5-1,3.75-1.5  c6.781,15.983,12.87,37.967,23.25,50.25c-2.44-16.239-13.343-34.965-20.25-51c1.105-1.112,2.355-1.612,3.75-1.5  c6.782,15.746,12.906,37.446,23.25,49.5c-2.44-16.239-13.343-34.965-20.25-51c1.25-0.5,2.5-1,3.75-1.5  c6.18,14.567,13.01,42.945,24.75,49.5c-5.579-16.974-13.864-33.685-21-50.25c1.25-0.5,2.5-1,3.75-1.5  c6.947,16.127,13.385,37.333,23.25,50.25c-2.367-16.09-21.003-39.272-17.25-52.5c6.784,15.508,12.943,36.925,23.25,48.75  c-3.026-16.028-12.734-34.212-19.5-50.25c12.237,7.964,15.729,36.49,26.25,48.75c-2.271-16.22-12.829-34.941-19.5-51  c1.25-0.5,2.5-1,3.75-1.5c6.938,15.956,12.771,35.833,24,48.75C594.918,420.17,594.392,415.788,593.875,411.265z"/>
<path fill-rule="evenodd" clip-rule="evenodd" fill="#F6EB14" d="M613.375,464.515c-15.616-46.164-132.062-9.572-161.806-3.083  c-36.764,8.021-73.276,19.939-110.833,22.944c-26.946,2.155-80.397-4.732-102.736,13.139c-15.497,12.397-20.076,33.785-7.125,51  c18.969,25.214,38.57,0.428,64.5-9c56.582-20.571,99.89-40.564,132.75,12.75c0.508-15.456-6.621-34.965-2.25-47.25  c2.502,14.514,4.282,33.393,9.75,45c-0.162-14.618-4.233-31.398-6.75-46.5c1.5-0.5,3-1,4.5-1.5c2.805,15.81,4.41,33.366,9.75,48  c1.679-14.002-4.034-33.946-6.75-49.5c1.25-0.25,2.5-0.5,3.75-0.75c2.834,16.232,5.144,32.828,9,48.75  c4.893-11.346-2.707-35.225-5.25-50.25c1.25-0.25,2.5-0.5,3.75-0.75c2.802,16.303,4.388,34.375,9.75,49.5  c1.669-14.246-4.034-34.446-6.75-50.25c1.5-0.5,3-1,4.5-1.5c2.778,16.417,4.959,33.661,9,49.5c0.75,0,1.5,0,2.25,0  c-2.278-16.776-5.42-33.527-8.25-50.25c1.25-0.25,2.5-0.5,3.75-0.75c3.009,16.299,4.984,35.732,10.5,50.25  c1.659-14.491-4.033-34.946-6.75-51c1.25-0.25,2.5-0.5,3.75-0.75c3.088,16.985,5.665,34.322,9.75,51  c3.669-14.019-8.979-40.51-2.25-53.25c3.085,17.483,5.648,35.327,9.75,52.5c3.32-12.95-3.424-36.577-6-52.5  c1.25-0.25,2.5-0.5,3.75-0.75c2.6,15.835,3.305,39.966,11.25,51c-0.776-16.765-5.208-34.767-8.25-51.75c1.25-0.25,2.5-0.5,3.75-0.75  c2.776,17.164,4.945,35.165,9,51.75c4.736-12.016-3.229-36.803-6-52.5c1.25-0.25,2.5-0.5,3.75-0.75  c2.932,16.857,3.536,39.038,11.25,53.25c0.29-17.055-4.713-36.516-7.5-54c1.25-0.25,2.5-0.5,3.75-0.75  c2.932,16.857,3.536,39.038,11.25,53.25c-0.225-16.352-9.117-41.274-4.5-54c2.932,16.857,3.536,39.038,11.25,53.25  c2.061-16.331-4.535-36.95-7.5-54c1.5-0.25,3-0.5,4.5-0.75c2.682,16.819,2.95,39.072,10.5,53.25c1.23-16.407-4.477-36.117-7.5-53.25  c1.25-0.25,2.5-0.5,3.75-0.75c3.08,17.708,5.421,35.901,9.75,53.25c0.835,0.111,1.585-0.139,2.25-0.75  c-2.699-17.522-5.959-35.016-9-52.5c1.25-0.25,2.5-0.5,3.75-0.75c3.08,17.708,5.421,35.901,9.75,53.25  c5.971-11.335-3.395-38.803-6-54c11.582,7.015,10.409,38.422,14.25,54c4.503-12.594-4.033-38.902-6.75-54.75  c1.25-0.25,2.5-0.5,3.75-0.75c3.077,18.206,5.401,36.905,9.75,54.75c5.855-11.565-3.931-39.353-6.75-54.75  c1.25-0.25,2.5-0.5,3.75-0.75c3.021,17.878,5.17,36.767,9.75,54c1.111,0.224,2.111-0.026,3-0.75c-2.703-17.772-5.96-35.515-9-53.25  c1.25-0.25,2.5-0.5,3.75-0.75c3.078,17.957,5.411,36.403,9.75,54c6.013-12.081-3.319-39.112-6-54.75c1.25,0,2.5,0,3.75,0  c2.882,16.813,3.791,40.62,11.25,54c-0.13-17.307-5.251-37.008-8.25-54.75c12.134,7.348,9.256,38.747,15,54  c2.333-15.376-4.599-37.824-7.5-54.75c1.25,0,2.5,0,3.75,0c3.022,17.379,5.182,35.766,9.75,52.5c0.75,0,1.5,0,2.25,0  c-2.393-17.79-5.919-35.536-9-53.25c1.25,0,2.5,0,3.75,0c2.932,17.102,3.513,39.545,11.25,54c2.053-16.584-4.533-37.443-7.5-54.75  c1.25,0,2.5,0,3.75,0c3.568,17.486,6.422,35.808,12,52.5C617.146,506.884,613.688,484.586,613.375,464.515z"/>
<path fill="none" stroke="#000000" stroke-width="1.25" stroke-linecap="square" stroke-miterlimit="10" d="M613.375,464.515  c-15.616-46.164-132.062-9.572-161.806-3.083c-36.764,8.021-73.276,19.939-110.833,22.944  c-26.946,2.155-80.397-4.732-102.736,13.139c-15.497,12.397-20.076,33.785-7.125,51c18.969,25.214,38.57,0.428,64.5-9  c56.582-20.571,99.89-40.564,132.75,12.75c0.508-15.456-6.621-34.965-2.25-47.25c2.502,14.514,4.282,33.393,9.75,45  c-0.162-14.618-4.233-31.398-6.75-46.5c1.5-0.5,3-1,4.5-1.5c2.805,15.81,4.41,33.366,9.75,48c1.679-14.002-4.034-33.946-6.75-49.5  c1.25-0.25,2.5-0.5,3.75-0.75c2.834,16.232,5.144,32.828,9,48.75c4.893-11.346-2.707-35.225-5.25-50.25c1.25-0.25,2.5-0.5,3.75-0.75  c2.802,16.303,4.388,34.375,9.75,49.5c1.669-14.246-4.034-34.446-6.75-50.25c1.5-0.5,3-1,4.5-1.5c2.778,16.417,4.959,33.661,9,49.5  c0.75,0,1.5,0,2.25,0c-2.278-16.776-5.42-33.527-8.25-50.25c1.25-0.25,2.5-0.5,3.75-0.75c3.009,16.299,4.984,35.732,10.5,50.25  c1.659-14.491-4.033-34.946-6.75-51c1.25-0.25,2.5-0.5,3.75-0.75c3.088,16.985,5.665,34.322,9.75,51  c3.669-14.019-8.979-40.51-2.25-53.25c3.085,17.483,5.648,35.327,9.75,52.5c3.32-12.95-3.424-36.577-6-52.5  c1.25-0.25,2.5-0.5,3.75-0.75c2.6,15.835,3.305,39.966,11.25,51c-0.776-16.765-5.208-34.767-8.25-51.75c1.25-0.25,2.5-0.5,3.75-0.75  c2.776,17.164,4.945,35.165,9,51.75c4.736-12.016-3.229-36.803-6-52.5c1.25-0.25,2.5-0.5,3.75-0.75  c2.932,16.857,3.536,39.038,11.25,53.25c0.29-17.055-4.713-36.516-7.5-54c1.25-0.25,2.5-0.5,3.75-0.75  c2.932,16.857,3.536,39.038,11.25,53.25c-0.225-16.352-9.117-41.274-4.5-54c2.932,16.857,3.536,39.038,11.25,53.25  c2.061-16.331-4.535-36.95-7.5-54c1.5-0.25,3-0.5,4.5-0.75c2.682,16.819,2.95,39.072,10.5,53.25c1.23-16.407-4.477-36.117-7.5-53.25  c1.25-0.25,2.5-0.5,3.75-0.75c3.08,17.708,5.421,35.901,9.75,53.25c0.835,0.111,1.585-0.139,2.25-0.75  c-2.699-17.522-5.959-35.016-9-52.5c1.25-0.25,2.5-0.5,3.75-0.75c3.08,17.708,5.421,35.901,9.75,53.25  c5.971-11.335-3.395-38.803-6-54c11.582,7.015,10.409,38.422,14.25,54c4.503-12.594-4.033-38.902-6.75-54.75  c1.25-0.25,2.5-0.5,3.75-0.75c3.077,18.206,5.401,36.905,9.75,54.75c5.855-11.565-3.931-39.353-6.75-54.75  c1.25-0.25,2.5-0.5,3.75-0.75c3.021,17.878,5.17,36.767,9.75,54c1.111,0.224,2.111-0.026,3-0.75c-2.703-17.772-5.96-35.515-9-53.25  c1.25-0.25,2.5-0.5,3.75-0.75c3.078,17.957,5.411,36.403,9.75,54c6.013-12.081-3.319-39.112-6-54.75c1.25,0,2.5,0,3.75,0  c2.882,16.813,3.791,40.62,11.25,54c-0.13-17.307-5.251-37.008-8.25-54.75c12.134,7.348,9.256,38.747,15,54  c2.333-15.376-4.599-37.824-7.5-54.75c1.25,0,2.5,0,3.75,0c3.022,17.379,5.182,35.766,9.75,52.5c0.75,0,1.5,0,2.25,0  c-2.393-17.79-5.919-35.536-9-53.25c1.25,0,2.5,0,3.75,0c2.932,17.102,3.513,39.545,11.25,54c2.053-16.584-4.533-37.443-7.5-54.75  c1.25,0,2.5,0,3.75,0c3.568,17.486,6.422,35.808,12,52.5C617.146,506.884,613.688,484.586,613.375,464.515z"/>
</svg>