<svg xmlns="http://www.w3.org/2000/svg" xmlns:xlink="http://www.w3.org/1999/xlink" version="1.1" id="Layer_1" x="0px" y="0px" enable-background="new 0 0 822.05 841.89" xml:space="preserve" viewBox="212.67 279.71 397.59 280.63">
<path fill-rule="evenodd" clip-rule="evenodd" fill="#D01679" d="M605.885,335.515c-16.469-32.938-18.924-61.406-58.5-54  c-38.692,7.24-73.824,37.088-104.077,60.079c-36.594,27.808-71.642,59.884-110.121,84.783  c-31.94,20.667-88.939,36.975-110.931,67.764c-14.828,20.759-10.443,36.808,7.125,54.375c28.994,28.994,37.37-5.12,57.861-25.611  c45.652-45.652,88.923-102.686,148.393-58.389c-3.615-15.188-17.029-30.415-26.254-44.25c0.75-1,1.501-2,2.252-3  c9.404,13.362,20.143,32.573,31.502,41.25c-6.299-14.579-28.438-33.878-24.75-48c10.189,14.774,20.156,29.796,30.75,44.25  c0.921-0.263,1.671-0.763,2.25-1.5c-8.14-15.521-20.411-30.375-30.75-45c1.25-1,2.5-2,3.75-3c10.44,15.024,20.663,30.29,31.5,45  c0.921-0.263,1.671-0.763,2.25-1.5c-8.406-16.017-20.907-31.368-31.5-46.5c1.25-1,2.5-2,3.75-3c9.619,14.077,20.837,37.168,33.75,45  c-6.358-15.36-20.604-32.401-30.75-47.25c1-1,2-2,3-3c9.286,13.266,22.396,40.323,35.25,44.25  c-10.245-15.788-21.443-31.062-32.25-46.5c1.25-1,2.5-2,3.75-3c10.398,14.855,20.77,35.312,34.5,45.75  c-5.66-16.053-21.069-33.099-31.5-48c1.25-1,2.5-2,3.75-3c10.643,15.345,21.229,36.349,35.25,47.25  c-4.334-16.578-21.611-34.509-32.25-49.5c1.25-1,2.5-2,3.75-3c11.048,15.818,21.719,35.194,35.25,48  c-4.379-16.81-21.595-34.994-32.25-50.25c1.25-0.75,2.5-1.5,3.75-2.25c10.643,15.345,21.229,36.349,35.25,47.25  c-5.927-16.549-21.562-34.09-32.25-49.5c1-0.75,2-1.5,3-2.25c11.191,16.024,22.168,32.286,33.75,48  c0.921-0.263,1.671-0.763,2.25-1.5c-8.911-16.77-21.904-32.864-33-48.75c1.25-1,2.5-2,3.75-3c10.887,15.836,21.691,37.382,36,48.75  c-6.193-17.045-22.056-35.082-33-51c1.25-0.75,2.5-1.5,3.75-2.25c10.363,15.074,22.303,39.21,36,48  c-5.44-16.452-22.146-34.812-33-50.25c1.25-0.75,2.5-1.5,3.75-2.25c10.887,15.836,21.691,37.382,36,48.75  c-4.593-17.078-22.103-35.501-33-51c1.25-0.75,2.5-1.5,3.75-2.25c11.216,15.702,22.409,35.586,36,48  c-5.266-16.689-21.619-34.787-32.25-50.25c1-0.75,2-1.5,3-2.25c11.208,15.941,22.373,36.119,36,48.75  c-4.593-17.078-22.103-35.501-33-51c1.25-0.75,2.5-1.5,3.75-2.25c11.143,16.094,22.198,37.87,36.75,49.5  c-6.364-17.083-22.572-35.102-33.75-51c1.5-1,3-2,4.5-3c11.693,16.777,23.228,33.739,35.25,50.25c0.921-0.263,1.671-0.763,2.25-1.5  c-9.761-17.395-22.864-34.305-34.5-51c1.25-0.75,2.5-1.5,3.75-2.25c11.69,17.028,23.216,34.248,35.25,51  c2.275-13.51-23.04-39.286-32.25-52.5c1.25-0.75,2.5-1.5,3.75-2.25c11.143,16.094,22.198,37.87,36.75,49.5  c-6.412-17.312-22.561-35.587-33.75-51.75c1-0.75,2-1.5,3-2.25c12.413,15.005,22.623,37.61,37.5,49.5  c-4.809-17.345-22.609-36.007-33.75-51.75c1.25-0.75,2.5-1.5,3.75-2.25c11.704,16.793,23.021,34.807,36,50.25  c0.921-0.263,1.671-0.763,2.25-1.5c-11.116-17.215-22.943-34.051-34.5-51c1.25-0.75,2.5-1.5,3.75-2.25  c11.143,16.094,22.198,37.87,36.75,49.5c-6.364-17.083-22.572-35.103-33.75-51c1.25-0.75,2.5-1.5,3.75-2.25  c10.887,15.836,21.691,37.382,36,48.75c-6.193-17.045-22.056-35.082-33-51c1.25-0.75,2.5-1.5,3.75-2.25  c9.264,13.587,24.036,45.483,37.5,48.75c-11.012-17.028-22.944-33.558-34.5-50.25c1.25-0.75,2.5-1.5,3.75-2.25  c11.431,15.587,22.42,35.552,37.5,47.25C609.058,345.395,607.639,340.414,605.885,335.515z"/>
<path fill="none" stroke="#000000" stroke-width="1.25" stroke-linecap="square" stroke-miterlimit="10" d="M605.885,335.515  c-16.469-32.938-18.924-61.406-58.5-54c-38.692,7.24-73.824,37.088-104.077,60.079c-36.594,27.808-71.642,59.884-110.121,84.783  c-31.94,20.667-88.939,36.975-110.931,67.764c-14.828,20.759-10.443,36.808,7.125,54.375c28.994,28.994,37.37-5.12,57.861-25.611  c45.652-45.652,88.923-102.686,148.393-58.389c-3.615-15.188-17.029-30.415-26.254-44.25c0.75-1,1.501-2,2.252-3  c9.404,13.362,20.143,32.573,31.502,41.25c-6.299-14.579-28.438-33.878-24.75-48c10.189,14.774,20.156,29.796,30.75,44.25  c0.921-0.263,1.671-0.763,2.25-1.5c-8.14-15.521-20.411-30.375-30.75-45c1.25-1,2.5-2,3.75-3c10.44,15.024,20.663,30.29,31.5,45  c0.921-0.263,1.671-0.763,2.25-1.5c-8.406-16.017-20.907-31.368-31.5-46.5c1.25-1,2.5-2,3.75-3c9.619,14.077,20.837,37.168,33.75,45  c-6.358-15.36-20.604-32.401-30.75-47.25c1-1,2-2,3-3c9.286,13.266,22.396,40.323,35.25,44.25  c-10.245-15.788-21.443-31.062-32.25-46.5c1.25-1,2.5-2,3.75-3c10.398,14.855,20.77,35.312,34.5,45.75  c-5.66-16.053-21.069-33.099-31.5-48c1.25-1,2.5-2,3.75-3c10.643,15.345,21.229,36.349,35.25,47.25  c-4.334-16.578-21.611-34.509-32.25-49.5c1.25-1,2.5-2,3.75-3c11.048,15.818,21.719,35.194,35.25,48  c-4.379-16.81-21.595-34.994-32.25-50.25c1.25-0.75,2.5-1.5,3.75-2.25c10.643,15.345,21.229,36.349,35.25,47.25  c-5.927-16.549-21.562-34.09-32.25-49.5c1-0.75,2-1.5,3-2.25c11.191,16.024,22.168,32.286,33.75,48  c0.921-0.263,1.671-0.763,2.25-1.5c-8.911-16.77-21.904-32.864-33-48.75c1.25-1,2.5-2,3.75-3c10.887,15.836,21.691,37.382,36,48.75  c-6.193-17.045-22.056-35.082-33-51c1.25-0.75,2.5-1.5,3.75-2.25c10.363,15.074,22.303,39.21,36,48  c-5.44-16.452-22.146-34.812-33-50.25c1.25-0.75,2.5-1.5,3.75-2.25c10.887,15.836,21.691,37.382,36,48.75  c-4.593-17.078-22.103-35.501-33-51c1.25-0.75,2.5-1.5,3.75-2.25c11.216,15.702,22.409,35.586,36,48  c-5.266-16.689-21.619-34.787-32.25-50.25c1-0.75,2-1.5,3-2.25c11.208,15.941,22.373,36.119,36,48.75  c-4.593-17.078-22.103-35.501-33-51c1.25-0.75,2.5-1.5,3.75-2.25c11.143,16.094,22.198,37.87,36.75,49.5  c-6.364-17.083-22.572-35.102-33.75-51c1.5-1,3-2,4.5-3c11.693,16.777,23.228,33.739,35.25,50.25c0.921-0.263,1.671-0.763,2.25-1.5  c-9.761-17.395-22.864-34.305-34.5-51c1.25-0.75,2.5-1.5,3.75-2.25c11.69,17.028,23.216,34.248,35.25,51  c2.275-13.51-23.04-39.286-32.25-52.5c1.25-0.75,2.5-1.5,3.75-2.25c11.143,16.094,22.198,37.87,36.75,49.5  c-6.412-17.312-22.561-35.587-33.75-51.75c1-0.75,2-1.5,3-2.25c12.413,15.005,22.623,37.61,37.5,49.5  c-4.809-17.345-22.609-36.007-33.75-51.75c1.25-0.75,2.5-1.5,3.75-2.25c11.704,16.793,23.021,34.807,36,50.25  c0.921-0.263,1.671-0.763,2.25-1.5c-11.116-17.215-22.943-34.051-34.5-51c1.25-0.75,2.5-1.5,3.75-2.25  c11.143,16.094,22.198,37.87,36.75,49.5c-6.364-17.083-22.572-35.103-33.75-51c1.25-0.75,2.5-1.5,3.75-2.25  c10.887,15.836,21.691,37.382,36,48.75c-6.193-17.045-22.056-35.082-33-51c1.25-0.75,2.5-1.5,3.75-2.25  c9.264,13.587,24.036,45.483,37.5,48.75c-11.012-17.028-22.944-33.558-34.5-50.25c1.25-0.75,2.5-1.5,3.75-2.25  c11.431,15.587,22.42,35.552,37.5,47.25C609.058,345.395,607.639,340.414,605.885,335.515z"/>
</svg>