<svg xmlns="http://www.w3.org/2000/svg" xmlns:xlink="http://www.w3.org/1999/xlink" version="1.1" id="Layer_1" x="0px" y="0px" enable-background="new 0 0 822.05 841.89" xml:space="preserve" viewBox="235.51 267.39 355 315.71">
<path fill-rule="evenodd" clip-rule="evenodd" fill="#6D6F71" stroke="#000000" stroke-width="2" stroke-linecap="square" stroke-miterlimit="10" d="  M238.006,334.39c0,52.865,0,105.729,0,158.594c0,25.761,0,51.521,0,77.281c0,10.247,12,5.625,20.904,5.625  c64.047,0,128.094,0,192.14,0c18.862,0,122.581,13.971,135.708,0c6.183-6.58,0-48.891,0-57.556c0-35.63,0-71.259,0-106.889  c0-33.81,4.675-67.418-15-96.931c-43.537-65.306-132.467-46.943-157.502,23.625c-19.852-30.708-33.062-69.75-82.125-69.75  C292.628,268.39,246.166,292.325,238.006,334.39z"/>
<path fill="none" stroke="#000000" stroke-width="2" stroke-linecap="square" stroke-miterlimit="10" d="M414.256,338.14  c8.86,19.357-7.479,83.192,8.252,81.75c-11.122,36.161,7.393,60.852-18.752,87c-10.167,10.168-23.285,25.765-35.25,30.639  c-20.182,8.223-15.05,18.376-23.25,36.861"/>
<path fill="none" stroke="#000000" stroke-width="2" stroke-linecap="square" stroke-miterlimit="10" d="M373.756,535.39  c-2.099,18.715,13.561,20.78,12,39.75"/>
<path fill="none" stroke="#000000" stroke-width="2" stroke-linecap="square" stroke-miterlimit="10" d="M403.756,506.89  c16.277,21.384,27.676,38.125,24.002,68.25"/>
<path fill="none" stroke="#000000" stroke-width="2" stroke-linecap="square" stroke-miterlimit="10" d="M236.506,364.39  c20.234-10.079,81.913,14.283,89.25,32.625c4.491,11.228,9.702,2.772,18,6.375c5.584,2.424,12.97-5.586,17.625,0  c1.268,1.521,5.041,9.202,6.375,9.75c12.698,5.218,35.923,23.291,50.25,20.25"/>
<text transform="matrix(1 0 0 1 318.249 331.3892)" font-family="'TimesNewRomanPSMT'" font-size="30">I</text>
<text transform="matrix(1 0 0 1 505.749 331.3892)" font-family="'TimesNewRomanPSMT'" font-size="30">I</text>
<text transform="matrix(1 0 0 1 312.249 382.3892)" font-family="'TimesNewRomanPSMT'" font-size="30">I</text>
<text transform="matrix(1 0 0 1 310.749 487.3892)" font-family="'TimesNewRomanPSMT'" font-size="30">I</text>
<text transform="matrix(1 0 0 1 324.2725 382.3892)" font-family="'TimesNewRomanPSMT'" font-size="30">I</text>
<text transform="matrix(1 0 0 1 310.749 432.6392)" font-family="'TimesNewRomanPSMT'" font-size="30">I</text>
<text transform="matrix(1 0 0 1 320.5225 432.6392)" font-family="'TimesNewRomanPSMT'" font-size="30">I</text>
<text transform="matrix(1 0 0 1 328.0225 432.6392)" font-family="'TimesNewRomanPSMT'" font-size="30">I</text>
<text transform="matrix(1 0 0 1 321.999 487.3892)" font-family="'TimesNewRomanPSMT'" font-size="30">V</text>
<text transform="matrix(1 0 0 1 312.249 540.6626)" font-family="'TimesNewRomanPSMT'" font-size="30">V</text>
<text transform="matrix(1 0 0 1 483.999 331.3892)" font-family="'TimesNewRomanPSMT'" font-size="30">V</text>
<text transform="matrix(1 0 0 1 499.749 386.1392)" font-family="'TimesNewRomanPSMT'" font-size="30">I</text>
<text transform="matrix(1 0 0 1 511.7725 386.1392)" font-family="'TimesNewRomanPSMT'" font-size="30">I</text>
<text transform="matrix(1 0 0 1 478.749 386.1392)" font-family="'TimesNewRomanPSMT'" font-size="30">V</text>
<text transform="matrix(1 0 0 1 499.749 438.6392)" font-family="'TimesNewRomanPSMT'" font-size="30">I</text>
<text transform="matrix(1 0 0 1 509.499 438.6392)" font-family="'TimesNewRomanPSMT'" font-size="30">I</text>
<text transform="matrix(1 0 0 1 519.2725 438.6392)" font-family="'TimesNewRomanPSMT'" font-size="30">I</text>
<text transform="matrix(1 0 0 1 486.249 487.3892)" font-family="'TimesNewRomanPSMT'" font-size="30">I</text>
<text transform="matrix(1 0 0 1 476.499 438.6392)" font-family="'TimesNewRomanPSMT'" font-size="30">V</text>
<text transform="matrix(1 0 0 1 495.999 487.3892)" font-family="'TimesNewRomanPSMT'" font-size="30">X</text>
<text transform="matrix(1 0 0 1 489.999 542.1157)" font-family="'TimesNewRomanPSMT'" font-size="30">X</text>
</svg>