<svg xmlns="http://www.w3.org/2000/svg" xmlns:xlink="http://www.w3.org/1999/xlink" version="1.1" id="Layer_1" x="0px" y="0px" enable-background="new 0 0 822.05 841.89" xml:space="preserve" viewBox="272.36 263.64 277.77 312.73">
<path fill-rule="evenodd" clip-rule="evenodd" fill="#808285" stroke="#000000" stroke-width="2" stroke-linecap="square" stroke-miterlimit="10" d="  M378,264.64c-82.888,4.546-143.417,129.766-75,184.5c-40.046-36.421-8.118-122.886,30.75-148.5c-2.5-2.25-5-4.5-7.5-6.75  c21.78-19.983,56.629-27.315,84.75-14.25C400.016,273.649,390.22,267.124,378,264.64z"/>
<path fill-rule="evenodd" clip-rule="evenodd" fill="#BCBEC0" stroke="#000000" stroke-width="2" stroke-linecap="square" stroke-miterlimit="10" d="  M300.75,449.14c77.268,44.684,179.481-139.83,107.625-170.625C321.696,241.367,236.495,387.353,300.75,449.14z"/>
<path fill-rule="evenodd" clip-rule="evenodd" fill="#808285" stroke="#000000" stroke-width="2" stroke-linecap="square" stroke-miterlimit="10" d="  M399.75,276.64c70.607,49.469-31.39,195.679-105.75,164.25C362.581,521.626,493.181,298.337,399.75,276.64z"/>
<path fill-rule="evenodd" clip-rule="evenodd" fill="#F3F4F4" stroke="#000000" stroke-width="2" stroke-linecap="square" stroke-miterlimit="10" d="  M357.75,398.14c-4.044,4.227-5.08,7.763-12.75,6c1.173-13.007-11.406-92.165-3-95.25C361.025,301.907,356.914,384.638,357.75,398.14  z"/>
<path fill="none" stroke="#000000" stroke-width="2" stroke-linecap="square" stroke-miterlimit="10" d="M351.75,452.14  C358.243,473.796,417.742,405.003,351.75,452.14L351.75,452.14z"/>
<path fill-rule="evenodd" clip-rule="evenodd" fill="#CEEDFC" stroke="#000000" stroke-width="2" stroke-linecap="square" stroke-miterlimit="10" d="  M354,462.64c-57.977,83.483,117.062,123.377,164.25,66.75c33.757-40.508,2.72-85.747-41.25-96.75  C432.844,421.591,387.166,430.991,354,462.64z"/>
<path fill-rule="evenodd" clip-rule="evenodd" fill="#CEEDFC" stroke="#000000" stroke-width="2" stroke-linecap="square" stroke-miterlimit="10" d="  M377.25,464.89c-46.268,61.902,85.735,93.329,122.25,54C560.995,452.655,423.387,417.071,377.25,464.89z"/>
<path fill-rule="evenodd" clip-rule="evenodd" fill="#808285" stroke="#000000" stroke-width="2" stroke-linecap="square" stroke-miterlimit="10" d="  M342.75,503.14c0.474,89.199,171.215,86.469,159.75,42C452.388,567.468,365.91,562.85,342.75,503.14z"/>
<path fill-rule="evenodd" clip-rule="evenodd" fill="#808285" stroke="#000000" stroke-width="2" stroke-linecap="square" stroke-miterlimit="10" d="  M513.75,415.39c-1.188,32.644-2.374,65.288-3.562,97.932c-0.667,18.365-10.319,40.444-2.438,56.568  c45.142-35.639,35.794-73.399,38.946-131.089c0.274-5.023,8.412-52.34-6.696-44.786C529.307,399.362,520.328,405.411,513.75,415.39z  "/>
<path fill="none" stroke="#000000" stroke-width="2" stroke-linecap="square" stroke-miterlimit="10" d="M549,396.64  c-51.104,23.671-31.04,95.137-32.25,143.25"/>
<path fill-rule="evenodd" clip-rule="evenodd" fill="#5A666D" stroke="#000000" stroke-width="2" stroke-linecap="square" stroke-miterlimit="10" d="  M371.25,464.14c50.678,19.65,94.231,32.06,147.75,41.25C468.536,484.11,425.376,473.636,371.25,464.14z"/>
<path fill-rule="evenodd" clip-rule="evenodd" fill="#ECEDED" stroke="#000000" stroke-width="2" stroke-linecap="square" stroke-miterlimit="10" d="  M535.5,513.64c-3.497,2.204-2.745,5.286-7.5,3.75c0.088-16.006-9.546-88.622,3-96.75C538.333,415.889,535.816,504.461,535.5,513.64z  "/>
</svg>