<svg xmlns="http://www.w3.org/2000/svg" xmlns:xlink="http://www.w3.org/1999/xlink" version="1.1" id="Layer_1" x="0px" y="0px" enable-background="new 0 0 822.05 841.89" xml:space="preserve" viewBox="218.59 267.64 386.47 307.48">
<path fill-rule="evenodd" clip-rule="evenodd" fill="#808285" stroke="#000000" stroke-width="2" stroke-linecap="square" stroke-miterlimit="10" d="  M367,268.64c-51.834-0.191-110.199,99.992-53.25,130.5c-27.145-29.04-5.455-83.919,21.75-105c-1.75-1.75-3.5-3.5-5.25-5.25  c15.952-13.487,40.137-19.629,60-9.75C383.097,273.578,375.251,270.949,367,268.64z"/>
<path fill-rule="evenodd" clip-rule="evenodd" fill="#BCBEC0" stroke="#000000" stroke-width="2" stroke-linecap="square" stroke-miterlimit="10" d="  M312.25,399.14c53.753,29.394,125.774-88.514,74.25-121.5C328.483,240.498,271.977,359.601,312.25,399.14z"/>
<path fill-rule="evenodd" clip-rule="evenodd" fill="#808285" stroke="#000000" stroke-width="2" stroke-linecap="square" stroke-miterlimit="10" d="  M382.75,276.89c48.223,37.271-22.543,138.754-75,116.25C352.742,445.098,449.569,303.348,382.75,276.89z"/>
<path fill-rule="evenodd" clip-rule="evenodd" fill="#F3F4F4" stroke="#000000" stroke-width="2" stroke-linecap="square" stroke-miterlimit="10" d="  M352.75,363.14c-18.091,13.706-11.26-45.193-11.897-57.942c-0.447-8.938,4.79-5.523,8.147-2.058  C356.314,310.69,352.04,351.774,352.75,363.14z"/>
<path fill="none" stroke="#000000" stroke-width="2" stroke-linecap="square" stroke-miterlimit="10" d="M348.25,401.39  c5.446,10.359,14.931-2.475,24-8.25C365.508,384.968,355.42,392.876,348.25,401.39z"/>
<path fill-rule="evenodd" clip-rule="evenodd" fill="#CEEDFC" stroke="#000000" stroke-width="2" stroke-linecap="square" stroke-miterlimit="10" d="  M350.5,408.89c-44.003,54.706,82.771,89.438,115.875,46.875C516.883,390.826,390.038,365.268,350.5,408.89z"/>
<path fill-rule="evenodd" clip-rule="evenodd" fill="#CEEDFC" stroke="#000000" stroke-width="2" stroke-linecap="square" stroke-miterlimit="10" d="  M366.25,410.39c-31.343,45.815,66.751,69.24,90,33C489.479,391.594,394.944,380.895,366.25,410.39z"/>
<path fill-rule="evenodd" clip-rule="evenodd" fill="#808285" stroke="#000000" stroke-width="2" stroke-linecap="square" stroke-miterlimit="10" d="  M341.5,437.39c-0.468,58.279,119.003,67.034,114,30C415.75,480.534,363.165,479.499,341.5,437.39z"/>
<path fill-rule="evenodd" clip-rule="evenodd" fill="#808285" stroke="#000000" stroke-width="2" stroke-linecap="square" stroke-miterlimit="10" d="  M463,375.14c-1.098,32.098-12.969,81.936-4.5,109.5c32.002-19.772,25.286-49.391,27.184-84.625  C486.885,377.714,487.657,337.995,463,375.14z"/>
<path fill="none" stroke="#000000" stroke-width="2" stroke-linecap="square" stroke-miterlimit="10" d="M487.75,361.64  c-36.519,12.795-21.703,71.501-22.5,101.25"/>
<path fill-rule="evenodd" clip-rule="evenodd" fill="#5A666D" stroke="#000000" stroke-width="2" stroke-linecap="square" stroke-miterlimit="10" d="  M362.5,409.64c35.793,14.006,66.401,22.762,104.25,29.25C431.074,423.773,400.75,416.334,362.5,409.64z"/>
<path fill-rule="evenodd" clip-rule="evenodd" fill="#ECEDED" stroke="#000000" stroke-width="2" stroke-linecap="square" stroke-miterlimit="10" d="  M478,444.89C467.121,446.143,483.162,303.802,478,444.89L478,444.89z"/>
<path fill-rule="evenodd" clip-rule="evenodd" fill="#808285" stroke="#000000" stroke-width="2" stroke-linecap="square" stroke-miterlimit="10" d="  M535,308.39c43.344,4.524,101.196,89.607,47.25,116.25c25.472-25.034,3.679-75.295-19.5-93.75  c7.844-16.81-35.126-18.732-48.75-12.75C520.529,313.076,527.715,310.989,535,308.39z"/>
<path fill-rule="evenodd" clip-rule="evenodd" fill="#BCBEC0" stroke="#000000" stroke-width="2" stroke-linecap="square" stroke-miterlimit="10" d="  M583.75,424.64c-49.152,29.734-112.928-89.229-67.875-107.25C569.833,295.807,625.028,384.993,583.75,424.64z"/>
<path fill-rule="evenodd" clip-rule="evenodd" fill="#808285" stroke="#000000" stroke-width="2" stroke-linecap="square" stroke-miterlimit="10" d="  M521.5,315.89c-43.029,34.091,19.225,123.777,66.75,103.5C546.578,466.004,461.636,339.066,521.5,315.89z"/>
<path fill-rule="evenodd" clip-rule="evenodd" fill="#F3F4F4" stroke="#000000" stroke-width="2" stroke-linecap="square" stroke-miterlimit="10" d="  M547.75,393.14c14.998,9.754,15.29-45.202,10.5-54C549.997,323.982,548.085,387.107,547.75,393.14z"/>
<path fill="none" stroke="#000000" stroke-width="2" stroke-linecap="square" stroke-miterlimit="10" d="M551.5,426.89  c-5.302,6.007-13.131,0.402-21-7.5C537.08,413.259,545.059,418.598,551.5,426.89z"/>
<path fill-rule="evenodd" clip-rule="evenodd" fill="#CEEDFC" stroke="#000000" stroke-width="2" stroke-linecap="square" stroke-miterlimit="10" d="  M550,433.64c37.719,51.854-73.329,76.824-103.5,41.625C398.92,419.756,514.066,396.73,550,433.64z"/>
<path fill-rule="evenodd" clip-rule="evenodd" fill="#CEEDFC" stroke="#000000" stroke-width="2" stroke-linecap="square" stroke-miterlimit="10" d="  M535.75,435.14c28.019,39.046-59.517,62.697-80.25,29.25C426.399,417.445,510.359,408.643,535.75,435.14z"/>
<path fill-rule="evenodd" clip-rule="evenodd" fill="#808285" stroke="#000000" stroke-width="2" stroke-linecap="square" stroke-miterlimit="10" d="  M557.5,459.14c1.447,49.94-104.228,63.019-101.25,26.25C491.115,497.031,539.097,497.853,557.5,459.14z"/>
<path fill-rule="evenodd" clip-rule="evenodd" fill="#808285" stroke="#000000" stroke-width="2" stroke-linecap="square" stroke-miterlimit="10" d="  M449.5,403.64c0.83,28.791,11.116,73.462,3.75,97.5c-26.923-13.066-22.041-39.756-23.625-66  C428.574,417.733,423.773,365.319,449.5,403.64z"/>
<path fill="none" stroke="#000000" stroke-width="2" stroke-linecap="square" stroke-miterlimit="10" d="M427,391.64  c33.89,9.961,19.738,64.889,20.25,90.75"/>
<path fill-rule="evenodd" clip-rule="evenodd" fill="#5A666D" stroke="#000000" stroke-width="2" stroke-linecap="square" stroke-miterlimit="10" d="  M539.5,434.39c-32.037,12.401-59.128,20.037-93,25.5C478.085,447.134,505.912,440.455,539.5,434.39z"/>
<path fill-rule="evenodd" clip-rule="evenodd" fill="#ECEDED" stroke="#000000" stroke-width="2" stroke-linecap="square" stroke-miterlimit="10" d="  M436,465.14c9.658,1.921,7.004-45.975,1.5-58.5C428.978,422.075,435.249,447.125,436,465.14z"/>
<path fill-rule="evenodd" clip-rule="evenodd" fill="#808285" stroke="#000000" stroke-width="2" stroke-linecap="square" stroke-miterlimit="10" d="  M307,318.14c-65.274,1.991-121.824,109.186-62.25,151.5c-32.093-34.003-5.874-97.468,25.5-122.25c-2-1.75-4-3.5-6-5.25  c17.727-16.644,46.921-22.929,69.75-11.25C325.536,325.086,316.775,320.318,307,318.14z"/>
<path fill-rule="evenodd" clip-rule="evenodd" fill="#BCBEC0" stroke="#000000" stroke-width="2" stroke-linecap="square" stroke-miterlimit="10" d="  M243.25,469.64c61.374,35.49,146.672-104.083,86.25-141C261.961,287.375,194.402,424.984,243.25,469.64z"/>
<path fill-rule="evenodd" clip-rule="evenodd" fill="#808285" stroke="#000000" stroke-width="2" stroke-linecap="square" stroke-miterlimit="10" d="  M324.25,327.89c57.786,41.891-25.123,159.924-86.25,135C295.691,525.917,400.49,348.725,324.25,327.89z"/>
<path fill-rule="evenodd" clip-rule="evenodd" fill="#F3F4F4" stroke="#000000" stroke-width="2" stroke-linecap="square" stroke-miterlimit="10" d="  M289.75,427.64c-19.459,17.298-12.604-53.091-13.395-67.797c-0.493-9.177,5.929-6.056,9.645-1.953  C294.523,367.3,289.018,414.02,289.75,427.64z"/>
<path fill="none" stroke="#000000" stroke-width="2" stroke-linecap="square" stroke-miterlimit="10" d="M285.25,471.89  c5.037,15.098,16.142-4.324,27.75-9C304.652,452.976,294.66,463.177,285.25,471.89z"/>
<path fill-rule="evenodd" clip-rule="evenodd" fill="#CEEDFC" stroke="#000000" stroke-width="2" stroke-linecap="square" stroke-miterlimit="10" d="  M287.5,480.89c-53.086,63.351,93.862,99.812,134.25,54.375C483.774,465.488,334.157,428.352,287.5,480.89z"/>
<path fill-rule="evenodd" clip-rule="evenodd" fill="#CEEDFC" stroke="#000000" stroke-width="2" stroke-linecap="square" stroke-miterlimit="10" d="  M305.5,482.39c-35.277,52.886,74.687,79.418,102.75,42C454.058,463.313,341.435,450.577,305.5,482.39z"/>
<path fill-rule="evenodd" clip-rule="evenodd" fill="#808285" stroke="#000000" stroke-width="2" stroke-linecap="square" stroke-miterlimit="10" d="  M277.75,513.89c-4.281,72.407,139.811,73.773,131.25,34.5C365.91,564.331,298.57,564.157,277.75,513.89z"/>
<path fill-rule="evenodd" clip-rule="evenodd" fill="#808285" stroke="#000000" stroke-width="2" stroke-linecap="square" stroke-miterlimit="10" d="  M418,441.89c-0.802,27.26-1.604,54.519-2.405,81.778c-0.437,14.855-9.722,31.974-2.843,44.972  c35.793-27.966,29.598-49.998,32.058-96.437C446.354,443.061,447.143,402.159,418,441.89z"/>
<path fill="none" stroke="#000000" stroke-width="2" stroke-linecap="square" stroke-miterlimit="10" d="M447.25,426.14  c-42.815,17.213-25.399,80.608-26.25,117.75"/>
<path fill-rule="evenodd" clip-rule="evenodd" fill="#5A666D" stroke="#000000" stroke-width="2" stroke-linecap="square" stroke-miterlimit="10" d="  M301,481.64c41.966,16.579,77.013,26.61,121.5,33.75C381.182,498.376,345.091,489.614,301,481.64z"/>
<path fill-rule="evenodd" clip-rule="evenodd" fill="#ECEDED" stroke="#000000" stroke-width="2" stroke-linecap="square" stroke-miterlimit="10" d="  M436,522.14c-13.487,6.546-12.505-64.787-6-71.25C444.004,436.976,436.352,510.996,436,522.14z"/>
</svg>