<svg xmlns="http://www.w3.org/2000/svg" xmlns:xlink="http://www.w3.org/1999/xlink" version="1.1" id="Layer_1" x="0px" y="0px" enable-background="new 0 0 822.05 841.89" xml:space="preserve" viewBox="301.57 331.79 218.5 174.1">
<path fill-rule="evenodd" clip-rule="evenodd" fill="#02084F" stroke="#000000" stroke-width="0.5" stroke-linecap="square" stroke-miterlimit="10" d="  M519.32,502.64c-19,0-38,0-57,0c5.43-26.245-0.437-43.351,27.597-43.795C527.606,458.247,518.698,465.925,519.32,502.64z"/>
<path fill-rule="evenodd" clip-rule="evenodd" fill="#F4F4F4" stroke="#000000" stroke-width="0.5" stroke-linecap="square" stroke-miterlimit="10" d="  M478.82,470.39c-3.2,17.761,22.002,39.736,25.875,16.5C507.394,470.699,489.664,459.467,478.82,470.39z"/>
<path fill="none" stroke="#000000" stroke-width="0.5" stroke-linecap="square" stroke-miterlimit="10" d="M478.82,479.39  c5.141-6.597,12.738-9.6,21-8.25"/>
<path fill-rule="evenodd" clip-rule="evenodd" fill="#BFBFBF" stroke="#000000" stroke-width="0.5" stroke-linecap="square" stroke-miterlimit="10" d="  M490.07,471.89C488.969,472.298,487.041,473.012,490.07,471.89L490.07,471.89z"/>
<path fill-rule="evenodd" clip-rule="evenodd" fill="#B8B8B8" stroke="#000000" stroke-width="0.5" stroke-linecap="square" stroke-miterlimit="10" d="  M313.068,465.14c-9.206,9.198-8.79,25.026-11.25,38.25c2,0.25,4,0.5,6,0.75C309.568,491.14,311.318,478.14,313.068,465.14z"/>
<path fill-rule="evenodd" clip-rule="evenodd" fill="#B8B8B8" stroke="#000000" stroke-width="0.5" stroke-linecap="square" stroke-miterlimit="10" d="  M449.57,465.14c6.305,11.775,1.135,27.1-0.75,40.5C439.968,493.916,447.065,479.23,449.57,465.14z"/>
<path fill-rule="evenodd" clip-rule="evenodd" fill="#B8B8B8" stroke="#000000" stroke-width="0.5" stroke-linecap="square" stroke-miterlimit="10" d="  M442.82,498.89c-45.25,0-90.501,0-135.752,0c7.093-39.898,7.813-33.75,47.471-33.75c31.177,0,62.354,0,93.531,0  C446.32,476.39,444.57,487.64,442.82,498.89z"/>
<path fill-rule="evenodd" clip-rule="evenodd" fill="#F4F4F4" stroke="#000000" stroke-width="0.5" stroke-linecap="square" stroke-miterlimit="10" d="  M316.818,489.14C320.472,487.669,321.463,487.271,316.818,489.14L316.818,489.14z"/>
<path fill-rule="evenodd" clip-rule="evenodd" fill="#F4F4F4" stroke="#000000" stroke-width="0.5" stroke-linecap="square" stroke-miterlimit="10" d="  M328.068,489.14C333.699,487.392,332.822,487.665,328.068,489.14L328.068,489.14z"/>
<path fill-rule="evenodd" clip-rule="evenodd" fill="#F4F4F4" stroke="#000000" stroke-width="0.5" stroke-linecap="square" stroke-miterlimit="10" d="  M322.068,489.14C327.559,487.436,327.028,487.601,322.068,489.14L322.068,489.14z"/>
<path fill-rule="evenodd" clip-rule="evenodd" fill="#F4F4F4" stroke="#000000" stroke-width="0.5" stroke-linecap="square" stroke-miterlimit="10" d="  M334.068,489.14c1.449-0.453,3.526,2.418,4.5-1.5C335.46,484.961,335.829,488.589,334.068,489.14z"/>
<path fill-rule="evenodd" clip-rule="evenodd" fill="#F4F4F4" stroke="#000000" stroke-width="0.5" stroke-linecap="square" stroke-miterlimit="10" d="  M346.068,489.14C350.685,487.537,350.66,487.545,346.068,489.14L346.068,489.14z"/>
<path fill-rule="evenodd" clip-rule="evenodd" fill="#F4F4F4" stroke="#000000" stroke-width="0.5" stroke-linecap="square" stroke-miterlimit="10" d="  M340.068,489.14c1.386-0.457,3.205,2.269,4.5-1.5C341.405,485.177,341.419,488.695,340.068,489.14z"/>
<path fill-rule="evenodd" clip-rule="evenodd" fill="#F4F4F4" stroke="#000000" stroke-width="0.5" stroke-linecap="square" stroke-miterlimit="10" d="  M352.068,489.14C355.722,487.669,356.713,487.271,352.068,489.14L352.068,489.14z"/>
<path fill-rule="evenodd" clip-rule="evenodd" fill="#F4F4F4" stroke="#000000" stroke-width="0.5" stroke-linecap="square" stroke-miterlimit="10" d="  M363.318,489.14C368.949,487.392,368.072,487.665,363.318,489.14L363.318,489.14z"/>
<path fill-rule="evenodd" clip-rule="evenodd" fill="#F4F4F4" stroke="#000000" stroke-width="0.5" stroke-linecap="square" stroke-miterlimit="10" d="  M357.318,489.14C362.949,487.392,362.072,487.665,357.318,489.14L357.318,489.14z"/>
<path fill-rule="evenodd" clip-rule="evenodd" fill="#F4F4F4" stroke="#000000" stroke-width="0.5" stroke-linecap="square" stroke-miterlimit="10" d="  M369.318,489.14c1.449-0.453,3.526,2.418,4.5-1.5C370.71,484.961,371.079,488.589,369.318,489.14z"/>
<path fill-rule="evenodd" clip-rule="evenodd" fill="#F4F4F4" stroke="#000000" stroke-width="0.5" stroke-linecap="square" stroke-miterlimit="10" d="  M375.318,489.14C379.935,487.537,379.91,487.545,375.318,489.14L375.318,489.14z"/>
<path fill-rule="evenodd" clip-rule="evenodd" fill="#F4F4F4" stroke="#000000" stroke-width="0.5" stroke-linecap="square" stroke-miterlimit="10" d="  M320.568,484.64C325.185,483.037,325.16,483.045,320.568,484.64L320.568,484.64z"/>
<path fill-rule="evenodd" clip-rule="evenodd" fill="#F4F4F4" stroke="#000000" stroke-width="0.5" stroke-linecap="square" stroke-miterlimit="10" d="  M332.568,484.64C336.222,483.169,337.213,482.771,332.568,484.64L332.568,484.64z"/>
<path fill-rule="evenodd" clip-rule="evenodd" fill="#F4F4F4" stroke="#000000" stroke-width="0.5" stroke-linecap="square" stroke-miterlimit="10" d="  M326.568,484.64C330.222,483.169,331.213,482.771,326.568,484.64L326.568,484.64z"/>
<path fill-rule="evenodd" clip-rule="evenodd" fill="#F4F4F4" stroke="#000000" stroke-width="0.5" stroke-linecap="square" stroke-miterlimit="10" d="  M337.818,484.64C343.309,482.936,342.778,483.101,337.818,484.64L337.818,484.64z"/>
<path fill-rule="evenodd" clip-rule="evenodd" fill="#F4F4F4" stroke="#000000" stroke-width="0.5" stroke-linecap="square" stroke-miterlimit="10" d="  M349.818,484.64c1.449-0.453,3.526,2.418,4.5-1.5C351.21,480.461,351.579,484.089,349.818,484.64z"/>
<path fill-rule="evenodd" clip-rule="evenodd" fill="#F4F4F4" stroke="#000000" stroke-width="0.5" stroke-linecap="square" stroke-miterlimit="10" d="  M343.818,484.64C349.449,482.892,348.572,483.165,343.818,484.64L343.818,484.64z"/>
<path fill-rule="evenodd" clip-rule="evenodd" fill="#F4F4F4" stroke="#000000" stroke-width="0.5" stroke-linecap="square" stroke-miterlimit="10" d="  M355.818,484.64C360.093,483.079,360.616,482.888,355.818,484.64L355.818,484.64z"/>
<path fill-rule="evenodd" clip-rule="evenodd" fill="#F4F4F4" stroke="#000000" stroke-width="0.5" stroke-linecap="square" stroke-miterlimit="10" d="  M367.818,484.64C371.472,483.169,372.463,482.771,367.818,484.64L367.818,484.64z"/>
<path fill-rule="evenodd" clip-rule="evenodd" fill="#F4F4F4" stroke="#000000" stroke-width="0.5" stroke-linecap="square" stroke-miterlimit="10" d="  M361.818,484.64C365.472,483.169,366.463,482.771,361.818,484.64L361.818,484.64z"/>
<path fill-rule="evenodd" clip-rule="evenodd" fill="#F4F4F4" stroke="#000000" stroke-width="0.5" stroke-linecap="square" stroke-miterlimit="10" d="  M373.068,484.64C378.699,482.892,377.822,483.165,373.068,484.64L373.068,484.64z"/>
<path fill-rule="evenodd" clip-rule="evenodd" fill="#F4F4F4" stroke="#000000" stroke-width="0.5" stroke-linecap="square" stroke-miterlimit="10" d="  M379.068,484.64C384.699,482.892,383.822,483.165,379.068,484.64L379.068,484.64z"/>
<path fill-rule="evenodd" clip-rule="evenodd" fill="#F4F4F4" stroke="#000000" stroke-width="0.5" stroke-linecap="square" stroke-miterlimit="10" d="  M385.068,484.64C388.869,483.46,390.27,483.026,385.068,484.64L385.068,484.64z"/>
<path fill-rule="evenodd" clip-rule="evenodd" fill="#F4F4F4" stroke="#000000" stroke-width="0.5" stroke-linecap="square" stroke-miterlimit="10" d="  M319.818,480.14C325.449,478.392,324.572,478.665,319.818,480.14L319.818,480.14z"/>
<path fill-rule="evenodd" clip-rule="evenodd" fill="#F4F4F4" stroke="#000000" stroke-width="0.5" stroke-linecap="square" stroke-miterlimit="10" d="  M331.818,480.14C336.878,478.672,336.023,478.92,331.818,480.14L331.818,480.14z"/>
<path fill-rule="evenodd" clip-rule="evenodd" fill="#F4F4F4" stroke="#000000" stroke-width="0.5" stroke-linecap="square" stroke-miterlimit="10" d="  M325.818,480.14c1.449-0.453,3.526,2.418,4.5-1.5C327.21,475.961,327.579,479.589,325.818,480.14z"/>
<path fill-rule="evenodd" clip-rule="evenodd" fill="#F4F4F4" stroke="#000000" stroke-width="0.5" stroke-linecap="square" stroke-miterlimit="10" d="  M337.818,480.14C342.435,478.537,342.41,478.545,337.818,480.14L337.818,480.14z"/>
<path fill-rule="evenodd" clip-rule="evenodd" fill="#F4F4F4" stroke="#000000" stroke-width="0.5" stroke-linecap="square" stroke-miterlimit="10" d="  M349.818,480.14C353.472,478.669,354.463,478.271,349.818,480.14L349.818,480.14z"/>
<path fill-rule="evenodd" clip-rule="evenodd" fill="#F4F4F4" stroke="#000000" stroke-width="0.5" stroke-linecap="square" stroke-miterlimit="10" d="  M343.818,480.14C347.792,478.633,348.439,478.388,343.818,480.14L343.818,480.14z"/>
<path fill-rule="evenodd" clip-rule="evenodd" fill="#F4F4F4" stroke="#000000" stroke-width="0.5" stroke-linecap="square" stroke-miterlimit="10" d="  M355.068,480.14C360.699,478.392,359.822,478.665,355.068,480.14L355.068,480.14z"/>
<path fill-rule="evenodd" clip-rule="evenodd" fill="#F4F4F4" stroke="#000000" stroke-width="0.5" stroke-linecap="square" stroke-miterlimit="10" d="  M367.068,480.14C371.685,478.537,371.66,478.545,367.068,480.14L367.068,480.14z"/>
<path fill-rule="evenodd" clip-rule="evenodd" fill="#F4F4F4" stroke="#000000" stroke-width="0.5" stroke-linecap="square" stroke-miterlimit="10" d="  M361.068,480.14c1.386-0.457,3.205,2.269,4.5-1.5C362.405,476.177,362.419,479.695,361.068,480.14z"/>
<path fill-rule="evenodd" clip-rule="evenodd" fill="#F4F4F4" stroke="#000000" stroke-width="0.5" stroke-linecap="square" stroke-miterlimit="10" d="  M373.068,480.14C377.685,478.537,377.66,478.545,373.068,480.14L373.068,480.14z"/>
<path fill-rule="evenodd" clip-rule="evenodd" fill="#F4F4F4" stroke="#000000" stroke-width="0.5" stroke-linecap="square" stroke-miterlimit="10" d="  M379.068,480.14C382.722,478.669,383.713,478.271,379.068,480.14L379.068,480.14z"/>
<path fill-rule="evenodd" clip-rule="evenodd" fill="#F4F4F4" stroke="#000000" stroke-width="0.5" stroke-linecap="square" stroke-miterlimit="10" d="  M384.318,480.14c1.517-0.393,3.452,3.359,4.5-1.5C385.688,475.943,386.031,479.697,384.318,480.14z"/>
<path fill-rule="evenodd" clip-rule="evenodd" fill="#F4F4F4" stroke="#000000" stroke-width="0.5" stroke-linecap="square" stroke-miterlimit="10" d="  M319.818,475.64c0.917-0.319,2.754,3.168,3.75-1.5C320.63,471.789,320.765,475.31,319.818,475.64z"/>
<path fill-rule="evenodd" clip-rule="evenodd" fill="#F4F4F4" stroke="#000000" stroke-width="0.5" stroke-linecap="square" stroke-miterlimit="10" d="  M331.068,475.64c1.936-0.503,3.684,3.55,4.5-1.5C332.438,471.443,332.782,475.196,331.068,475.64z"/>
<path fill-rule="evenodd" clip-rule="evenodd" fill="#F4F4F4" stroke="#000000" stroke-width="0.5" stroke-linecap="square" stroke-miterlimit="10" d="  M325.068,475.64c1.936-0.503,3.684,3.55,4.5-1.5C326.438,471.443,326.782,475.196,325.068,475.64z"/>
<path fill-rule="evenodd" clip-rule="evenodd" fill="#F4F4F4" stroke="#000000" stroke-width="0.5" stroke-linecap="square" stroke-miterlimit="10" d="  M337.068,475.64c1.184-0.322,3.087,3.062,4.5-1.5C338.443,471.447,338.794,475.17,337.068,475.64z"/>
<path fill-rule="evenodd" clip-rule="evenodd" fill="#F4F4F4" stroke="#000000" stroke-width="0.5" stroke-linecap="square" stroke-miterlimit="10" d="  M349.068,475.64C353.239,474.429,354.074,474.187,349.068,475.64L349.068,475.64z"/>
<path fill-rule="evenodd" clip-rule="evenodd" fill="#F4F4F4" stroke="#000000" stroke-width="0.5" stroke-linecap="square" stroke-miterlimit="10" d="  M343.068,475.64C347.239,474.429,348.074,474.187,343.068,475.64L343.068,475.64z"/>
<path fill-rule="evenodd" clip-rule="evenodd" fill="#F4F4F4" stroke="#000000" stroke-width="0.5" stroke-linecap="square" stroke-miterlimit="10" d="  M355.068,475.64c0.917-0.319,2.754,3.168,3.75-1.5C355.88,471.789,356.015,475.31,355.068,475.64z"/>
<path fill-rule="evenodd" clip-rule="evenodd" fill="#F4F4F4" stroke="#000000" stroke-width="0.5" stroke-linecap="square" stroke-miterlimit="10" d="  M366.318,475.64c1.517-0.393,3.452,3.359,4.5-1.5C367.688,471.443,368.031,475.197,366.318,475.64z"/>
<path fill-rule="evenodd" clip-rule="evenodd" fill="#F4F4F4" stroke="#000000" stroke-width="0.5" stroke-linecap="square" stroke-miterlimit="10" d="  M360.318,475.64c1.936-0.503,3.684,3.55,4.5-1.5C361.688,471.443,362.032,475.196,360.318,475.64z"/>
<path fill-rule="evenodd" clip-rule="evenodd" fill="#F4F4F4" stroke="#000000" stroke-width="0.5" stroke-linecap="square" stroke-miterlimit="10" d="  M372.318,475.64c1.172-0.325,3.087,3.062,4.5-1.5C373.657,471.679,373.595,475.286,372.318,475.64z"/>
<path fill-rule="evenodd" clip-rule="evenodd" fill="#F4F4F4" stroke="#000000" stroke-width="0.5" stroke-linecap="square" stroke-miterlimit="10" d="  M378.318,475.64C382.489,474.429,383.324,474.187,378.318,475.64L378.318,475.64z"/>
<path fill-rule="evenodd" clip-rule="evenodd" fill="#F4F4F4" stroke="#000000" stroke-width="0.5" stroke-linecap="square" stroke-miterlimit="10" d="  M384.318,476.39C388.703,474,388.332,474.203,384.318,476.39L384.318,476.39z"/>
<path fill-rule="evenodd" clip-rule="evenodd" fill="#F4F4F4" stroke="#000000" stroke-width="0.5" stroke-linecap="square" stroke-miterlimit="10" d="  M313.818,475.64C318.435,474.037,318.41,474.045,313.818,475.64L313.818,475.64z"/>
<path fill-rule="evenodd" clip-rule="evenodd" fill="#F4F4F4" stroke="#000000" stroke-width="0.5" stroke-linecap="square" stroke-miterlimit="10" d="  M358.818,490.64c-8.343-1.632-17.998-1.243-23.25,3C344.71,496.451,355.774,496.132,358.818,490.64z"/>
<path fill-rule="evenodd" clip-rule="evenodd" fill="#F4F4F4" stroke="#000000" stroke-width="0.5" stroke-linecap="square" stroke-miterlimit="10" d="  M386.568,489.14C390.617,487.468,390.719,487.426,386.568,489.14L386.568,489.14z"/>
<path fill-rule="evenodd" clip-rule="evenodd" fill="#F4F4F4" stroke="#000000" stroke-width="0.5" stroke-linecap="square" stroke-miterlimit="10" d="  M394.818,486.89c-4.742,0.27-10.018-0.45-14.25,0.75c0,0.75,0,1.5,0,2.25C387.302,491.607,394.614,486.936,394.818,486.89z"/>
<path fill-rule="evenodd" clip-rule="evenodd" fill="#F4F4F4" stroke="#000000" stroke-width="0.5" stroke-linecap="square" stroke-miterlimit="10" d="  M396.318,473.39c-3.315,2.172-5.742-2.188-6.75,3C396.66,478.939,395.19,474.129,396.318,473.39z"/>
<path fill-rule="evenodd" clip-rule="evenodd" fill="#F4F4F4" stroke="#000000" stroke-width="0.5" stroke-linecap="square" stroke-miterlimit="10" d="  M396.318,477.89C390.054,484.327,388.691,485.727,396.318,477.89L396.318,477.89z"/>
<path fill-rule="evenodd" clip-rule="evenodd" fill="#F4F4F4" stroke="#000000" stroke-width="0.5" stroke-linecap="square" stroke-miterlimit="10" d="  M367.068,491.39c-2.583,1.365-4.943-2.589-6,3C367.413,495.347,367.094,491.376,367.068,491.39z"/>
<path fill-rule="evenodd" clip-rule="evenodd" fill="#F4F4F4" stroke="#000000" stroke-width="0.5" stroke-linecap="square" stroke-miterlimit="10" d="  M376.818,491.39c-3.768,1.771-6.276-2.458-6.75,3C376.156,495.797,375.459,492.029,376.818,491.39z"/>
<path fill-rule="evenodd" clip-rule="evenodd" fill="#F4F4F4" stroke="#000000" stroke-width="0.5" stroke-linecap="square" stroke-miterlimit="10" d="  M385.068,491.39c-0.185,0.072-4.551-0.618-6,0c0.112,0.835-0.138,1.585-0.75,2.25C384.111,495.731,384.717,491.528,385.068,491.39z"/>
<path fill-rule="evenodd" clip-rule="evenodd" fill="#F4F4F4" stroke="#000000" stroke-width="0.5" stroke-linecap="square" stroke-miterlimit="10" d="  M394.068,491.39c-3.183,1.206-5.541-2.662-6.75,3C392.923,495.411,393.812,491.487,394.068,491.39z"/>
<path fill-rule="evenodd" clip-rule="evenodd" fill="#F4F4F4" stroke="#000000" stroke-width="0.5" stroke-linecap="square" stroke-miterlimit="10" d="  M319.068,482.39c-3.753,1.817-6.273-2.489-6.75,3C318.459,486.528,318.144,482.838,319.068,482.39z"/>
<path fill-rule="evenodd" clip-rule="evenodd" fill="#F4F4F4" stroke="#000000" stroke-width="0.5" stroke-linecap="square" stroke-miterlimit="10" d="  M317.568,490.64c-3.337,2.016-5.689-2.105-6.75,3C317.425,496.15,316.363,491.368,317.568,490.64z"/>
<path fill-rule="evenodd" clip-rule="evenodd" fill="#F4F4F4" stroke="#000000" stroke-width="0.5" stroke-linecap="square" stroke-miterlimit="10" d="  M325.818,490.64c-3.086,2.105-6.025-2.387-6,3C326.177,496.274,324.464,491.564,325.818,490.64z"/>
<path fill-rule="evenodd" clip-rule="evenodd" fill="#F4F4F4" stroke="#000000" stroke-width="0.5" stroke-linecap="square" stroke-miterlimit="10" d="  M334.068,490.64c-2.88,2.082-5.216-2.026-6,3C334.279,496.027,332.778,491.573,334.068,490.64z"/>
<path fill-rule="evenodd" clip-rule="evenodd" fill="#F4F4F4" stroke="#000000" stroke-width="0.5" stroke-linecap="square" stroke-miterlimit="10" d="  M318.318,477.89c-2.782,1.924-5.415-2.281-5.25,3C318.596,481.752,317.624,478.371,318.318,477.89z"/>
<path fill-rule="evenodd" clip-rule="evenodd" fill="#F4F4F4" stroke="#000000" stroke-width="0.5" stroke-linecap="square" stroke-miterlimit="10" d="  M311.568,489.14C316.185,487.537,316.16,487.545,311.568,489.14L311.568,489.14z"/>
<path fill-rule="evenodd" clip-rule="evenodd" fill="#F4F4F4" stroke="#000000" stroke-width="0.5" stroke-linecap="square" stroke-miterlimit="10" d="  M326.568,471.14c1.172-0.524,3.284,2.727,3.75-1.5C327.367,465.9,328.204,470.409,326.568,471.14z"/>
<path fill-rule="evenodd" clip-rule="evenodd" fill="#F4F4F4" stroke="#000000" stroke-width="0.5" stroke-linecap="square" stroke-miterlimit="10" d="  M337.818,471.14C343.023,469.238,343.18,469.18,337.818,471.14L337.818,471.14z"/>
<path fill-rule="evenodd" clip-rule="evenodd" fill="#F4F4F4" stroke="#000000" stroke-width="0.5" stroke-linecap="square" stroke-miterlimit="10" d="  M332.568,471.14C335.942,469.54,337.605,468.75,332.568,471.14L332.568,471.14z"/>
<path fill-rule="evenodd" clip-rule="evenodd" fill="#F4F4F4" stroke="#000000" stroke-width="0.5" stroke-linecap="square" stroke-miterlimit="10" d="  M343.818,471.14c2.235-0.821,4.409,2.956,4.5-2.25C343.718,466.115,346.103,470.301,343.818,471.14z"/>
<path fill-rule="evenodd" clip-rule="evenodd" fill="#F4F4F4" stroke="#000000" stroke-width="0.5" stroke-linecap="square" stroke-miterlimit="10" d="  M376.818,471.14c1.25-0.514,3.203,2.274,4.5-1.5C377.479,466.083,378.637,470.393,376.818,471.14z"/>
<path fill-rule="evenodd" clip-rule="evenodd" fill="#F4F4F4" stroke="#000000" stroke-width="0.5" stroke-linecap="square" stroke-miterlimit="10" d="  M388.818,471.14C392.192,469.54,393.855,468.75,388.818,471.14L388.818,471.14z"/>
<path fill-rule="evenodd" clip-rule="evenodd" fill="#F4F4F4" stroke="#000000" stroke-width="0.5" stroke-linecap="square" stroke-miterlimit="10" d="  M382.818,471.14c1.172-0.524,3.284,2.727,3.75-1.5C383.617,465.9,384.454,470.409,382.818,471.14z"/>
<path fill-rule="evenodd" clip-rule="evenodd" fill="#F4F4F4" stroke="#000000" stroke-width="0.5" stroke-linecap="square" stroke-miterlimit="10" d="  M394.818,471.14C398.475,469.365,399.477,468.878,394.818,471.14L394.818,471.14z"/>
<path fill-rule="evenodd" clip-rule="evenodd" fill="#F4F4F4" stroke="#000000" stroke-width="0.5" stroke-linecap="square" stroke-miterlimit="10" d="  M352.068,471.14C355.725,469.365,356.727,468.878,352.068,471.14L352.068,471.14z"/>
<path fill-rule="evenodd" clip-rule="evenodd" fill="#F4F4F4" stroke="#000000" stroke-width="0.5" stroke-linecap="square" stroke-miterlimit="10" d="  M363.318,471.14c2.235-0.821,4.409,2.956,4.5-2.25C363.218,466.115,365.603,470.301,363.318,471.14z"/>
<path fill-rule="evenodd" clip-rule="evenodd" fill="#F4F4F4" stroke="#000000" stroke-width="0.5" stroke-linecap="square" stroke-miterlimit="10" d="  M357.318,471.14c2.235-0.821,4.409,2.956,4.5-2.25C357.218,466.115,359.603,470.301,357.318,471.14z"/>
<path fill-rule="evenodd" clip-rule="evenodd" fill="#F4F4F4" stroke="#000000" stroke-width="0.5" stroke-linecap="square" stroke-miterlimit="10" d="  M369.318,471.14c2.33-0.912,4.619,2.87,4.5-2.25C369.245,466.13,371.596,470.249,369.318,471.14z"/>
<path fill-rule="evenodd" clip-rule="evenodd" fill="#F4F4F4" stroke="#000000" stroke-width="0.5" stroke-linecap="square" stroke-miterlimit="10" d="  M314.568,471.14c1.395-0.451,3.206,2.268,4.5-1.5C315.965,466.965,316.336,470.568,314.568,471.14z"/>
<path fill-rule="evenodd" clip-rule="evenodd" fill="#F4F4F4" stroke="#000000" stroke-width="0.5" stroke-linecap="square" stroke-miterlimit="10" d="  M400.818,476.39C405.752,473.766,405.304,474.004,400.818,476.39L400.818,476.39z"/>
<path fill-rule="evenodd" clip-rule="evenodd" fill="#F4F4F4" stroke="#000000" stroke-width="0.5" stroke-linecap="square" stroke-miterlimit="10" d="  M412.818,476.39C416.728,474.003,417.227,473.699,412.818,476.39L412.818,476.39z"/>
<path fill-rule="evenodd" clip-rule="evenodd" fill="#F4F4F4" stroke="#000000" stroke-width="0.5" stroke-linecap="square" stroke-miterlimit="10" d="  M406.818,476.39C411.458,473.835,411.187,473.985,406.818,476.39L406.818,476.39z"/>
<path fill-rule="evenodd" clip-rule="evenodd" fill="#F4F4F4" stroke="#000000" stroke-width="0.5" stroke-linecap="square" stroke-miterlimit="10" d="  M402.318,471.14C406.367,469.468,406.469,469.426,402.318,471.14L402.318,471.14z"/>
<path fill-rule="evenodd" clip-rule="evenodd" fill="#F4F4F4" stroke="#000000" stroke-width="0.5" stroke-linecap="square" stroke-miterlimit="10" d="  M413.568,471.14C419.543,469.148,418.069,469.639,413.568,471.14L413.568,471.14z"/>
<path fill-rule="evenodd" clip-rule="evenodd" fill="#F4F4F4" stroke="#000000" stroke-width="0.5" stroke-linecap="square" stroke-miterlimit="10" d="  M407.568,471.14C413.199,469.392,412.322,469.665,407.568,471.14L407.568,471.14z"/>
<path fill-rule="evenodd" clip-rule="evenodd" fill="#F4F4F4" stroke="#000000" stroke-width="0.5" stroke-linecap="square" stroke-miterlimit="10" d="  M400.068,480.14c1.224-0.322,3.395,3.21,4.5-1.5C401.44,475.944,401.786,479.688,400.068,480.14z"/>
<path fill-rule="evenodd" clip-rule="evenodd" fill="#F4F4F4" stroke="#000000" stroke-width="0.5" stroke-linecap="square" stroke-miterlimit="10" d="  M412.068,480.14C416.244,478.929,417.074,478.688,412.068,480.14L412.068,480.14z"/>
<path fill-rule="evenodd" clip-rule="evenodd" fill="#F4F4F4" stroke="#000000" stroke-width="0.5" stroke-linecap="square" stroke-miterlimit="10" d="  M406.068,480.14C410.781,479.072,410.608,479.111,406.068,480.14L406.068,480.14z"/>
<path fill-rule="evenodd" clip-rule="evenodd" fill="#F4F4F4" stroke="#000000" stroke-width="0.5" stroke-linecap="square" stroke-miterlimit="10" d="  M397.818,493.64c2.235-0.821,4.409,2.956,4.5-2.25C397.718,488.615,400.103,492.801,397.818,493.64z"/>
<path fill-rule="evenodd" clip-rule="evenodd" fill="#F4F4F4" stroke="#000000" stroke-width="0.5" stroke-linecap="square" stroke-miterlimit="10" d="  M409.818,493.64c1.25-0.514,3.203,2.273,4.502-1.5C410.479,488.584,411.637,492.893,409.818,493.64z"/>
<path fill-rule="evenodd" clip-rule="evenodd" fill="#F4F4F4" stroke="#000000" stroke-width="0.5" stroke-linecap="square" stroke-miterlimit="10" d="  M403.818,493.64c1.718-0.656,3.708,2.574,4.5-2.25C403.734,488.624,406.099,492.769,403.818,493.64z"/>
<path fill-rule="evenodd" clip-rule="evenodd" fill="#F4F4F4" stroke="#000000" stroke-width="0.5" stroke-linecap="square" stroke-miterlimit="10" d="  M404.568,489.14C410.199,487.392,409.322,487.665,404.568,489.14L404.568,489.14z"/>
<path fill-rule="evenodd" clip-rule="evenodd" fill="#F4F4F4" stroke="#000000" stroke-width="0.5" stroke-linecap="square" stroke-miterlimit="10" d="  M421.07,476.39C425.186,474.197,425.473,474.043,421.07,476.39L421.07,476.39z"/>
<path fill-rule="evenodd" clip-rule="evenodd" fill="#F4F4F4" stroke="#000000" stroke-width="0.5" stroke-linecap="square" stroke-miterlimit="10" d="  M432.32,476.39c2.342-0.936,4.417,2.413,4.5-2.25C432.256,471.386,434.596,475.481,432.32,476.39z"/>
<path fill-rule="evenodd" clip-rule="evenodd" fill="#F4F4F4" stroke="#000000" stroke-width="0.5" stroke-linecap="square" stroke-miterlimit="10" d="  M427.07,476.39C431.454,474,431.084,474.203,427.07,476.39L427.07,476.39z"/>
<path fill-rule="evenodd" clip-rule="evenodd" fill="#F4F4F4" stroke="#000000" stroke-width="0.5" stroke-linecap="square" stroke-miterlimit="10" d="  M420.32,480.14C424.121,478.96,425.522,478.526,420.32,480.14L420.32,480.14z"/>
<path fill-rule="evenodd" clip-rule="evenodd" fill="#F4F4F4" stroke="#000000" stroke-width="0.5" stroke-linecap="square" stroke-miterlimit="10" d="  M432.32,480.14c0.917-0.319,2.755,3.168,3.75-1.5C433.132,476.289,433.267,479.81,432.32,480.14z"/>
<path fill-rule="evenodd" clip-rule="evenodd" fill="#F4F4F4" stroke="#000000" stroke-width="0.5" stroke-linecap="square" stroke-miterlimit="10" d="  M426.32,480.14C429.465,479.075,431.415,478.414,426.32,480.14L426.32,480.14z"/>
<path fill-rule="evenodd" clip-rule="evenodd" fill="#F4F4F4" stroke="#000000" stroke-width="0.5" stroke-linecap="square" stroke-miterlimit="10" d="  M419.57,484.64C424.187,483.037,424.162,483.045,419.57,484.64L419.57,484.64z"/>
<path fill-rule="evenodd" clip-rule="evenodd" fill="#F4F4F4" stroke="#000000" stroke-width="0.5" stroke-linecap="square" stroke-miterlimit="10" d="  M431.57,484.64C435.619,482.968,435.721,482.926,431.57,484.64L431.57,484.64z"/>
<path fill-rule="evenodd" clip-rule="evenodd" fill="#F4F4F4" stroke="#000000" stroke-width="0.5" stroke-linecap="square" stroke-miterlimit="10" d="  M425.57,484.64C429.224,483.169,430.215,482.771,425.57,484.64L425.57,484.64z"/>
<path fill-rule="evenodd" clip-rule="evenodd" fill="#F4F4F4" stroke="#000000" stroke-width="0.5" stroke-linecap="square" stroke-miterlimit="10" d="  M418.82,489.14C422.474,487.669,423.465,487.271,418.82,489.14L418.82,489.14z"/>
<path fill-rule="evenodd" clip-rule="evenodd" fill="#F4F4F4" stroke="#000000" stroke-width="0.5" stroke-linecap="square" stroke-miterlimit="10" d="  M430.07,489.14C435.701,487.392,434.824,487.665,430.07,489.14L430.07,489.14z"/>
<path fill-rule="evenodd" clip-rule="evenodd" fill="#F4F4F4" stroke="#000000" stroke-width="0.5" stroke-linecap="square" stroke-miterlimit="10" d="  M424.82,489.14C428.869,487.468,428.971,487.426,424.82,489.14L424.82,489.14z"/>
<path fill-rule="evenodd" clip-rule="evenodd" fill="#F4F4F4" stroke="#000000" stroke-width="0.5" stroke-linecap="square" stroke-miterlimit="10" d="  M430.07,493.64C434.186,491.447,434.473,491.293,430.07,493.64L430.07,493.64z"/>
<path fill-rule="evenodd" clip-rule="evenodd" fill="#F4F4F4" stroke="#000000" stroke-width="0.5" stroke-linecap="square" stroke-miterlimit="10" d="  M438.32,476.39C442.96,473.835,442.689,473.985,438.32,476.39L438.32,476.39z"/>
<path fill-rule="evenodd" clip-rule="evenodd" fill="#F4F4F4" stroke="#000000" stroke-width="0.5" stroke-linecap="square" stroke-miterlimit="10" d="  M441.32,477.89c-0.758,1.709-5.202,1.399-4.5,7.5c1.098-0.133,2.742-0.385,3.75,0C441.493,483.14,441.175,478.217,441.32,477.89z"/>
<path fill-rule="evenodd" clip-rule="evenodd" fill="#F4F4F4" stroke="#000000" stroke-width="0.5" stroke-linecap="square" stroke-miterlimit="10" d="  M439.82,486.89c-0.749,1.659-5.16,1.996-4.5,7.5c1.097-0.141,2.739-0.379,3.75,0C439.926,492.255,439.67,487.223,439.82,486.89z"/>
<path fill-rule="evenodd" clip-rule="evenodd" fill="#F4F4F4" stroke="#000000" stroke-width="0.5" stroke-linecap="square" stroke-miterlimit="10" d="  M427.07,490.64c-3.147,1.542-5.969-0.854-9,1.5c0,0.75,0,1.5,0,2.25C425.83,496.149,426.02,491.155,427.07,490.64z"/>
<path fill-rule="evenodd" clip-rule="evenodd" fill="#B8B8B8" stroke="#000000" stroke-width="0.5" stroke-linecap="square" stroke-miterlimit="10" d="  M307.068,498.89c-2.546,2.876-4.568,1.517-5.25,6c48.75,0.25,97.501,0.5,146.252,0.75  C431.493,485.837,334.155,498.89,307.068,498.89z"/>
<path fill-rule="evenodd" clip-rule="evenodd" fill="#B8B8B8" stroke="#000000" stroke-width="0.5" stroke-linecap="square" stroke-miterlimit="10" d="  M350.568,451.64c10.347,8.26,94.255,17.734,96.752,1.5C449.906,436.333,362.459,443.588,350.568,451.64z"/>
<path fill-rule="evenodd" clip-rule="evenodd" fill="#EFEFEF" stroke="#000000" stroke-width="0.5" stroke-linecap="square" stroke-miterlimit="10" d="  M373.068,446.39c6.049,5.772,52.9,14.753,52.502,0C425.178,431.82,379.141,441.213,373.068,446.39z"/>
<path fill-rule="evenodd" clip-rule="evenodd" fill="#B8B8B8" stroke="#000000" stroke-width="0.5" stroke-linecap="square" stroke-miterlimit="10" d="  M462.32,441.89c-18.797,17.424-92.42,4.5-119.881,4.5c-15.802,0-16.754-94.761-9.121-105c13.396-17.968,97.646-4.5,120.66-4.5  C472.887,336.89,462.32,424.914,462.32,441.89z"/>
<path fill-rule="evenodd" clip-rule="evenodd" fill="#02084F" stroke="#000000" stroke-width="0.5" stroke-linecap="square" stroke-miterlimit="10" d="  M454.07,426.89c-21.346,14.155-77.075,3.75-104.363,3.75c-15.044,0-14.577-71.783-8.139-79.5  c12.493-14.975,82.865-3.75,103.613-3.75C465.218,347.39,454.07,411.663,454.07,426.89z"/>
<path fill-rule="evenodd" clip-rule="evenodd" fill="#DEDEDE" stroke="#000000" stroke-width="0.5" stroke-linecap="square" stroke-miterlimit="10" d="  M440.57,438.14C447.218,438.256,447.182,438.256,440.57,438.14L440.57,438.14z"/>
<path fill-rule="evenodd" clip-rule="evenodd" fill="#EFEFEF" stroke="#000000" stroke-width="0.5" stroke-linecap="square" stroke-miterlimit="10" d="  M370.818,336.89c15.334,10.611,36.349,9.811,51.752,0C405.32,336.89,388.069,336.89,370.818,336.89z"/>
<path fill-rule="evenodd" clip-rule="evenodd" fill="#FFFFFF" d="M439.07,429.89c-26.96,0-53.919,0-80.879,0  c0.389,0-6.968-67.173-1.623-72c10.003-9.033,66.243,0,80.879,0C440.813,357.89,439.07,421.373,439.07,429.89z"/>
<path fill-rule="evenodd" clip-rule="evenodd" fill="#FFFFFF" d="M368.568,369.89h51.002H368.568z"/>
<line fill="none" stroke="#000000" stroke-linecap="square" stroke-miterlimit="10" x1="368.568" y1="369.89" x2="419.57" y2="369.89"/>
<path fill-rule="evenodd" clip-rule="evenodd" fill="#FFFFFF" d="M368.568,381.14h51.002H368.568z"/>
<line fill="none" stroke="#000000" stroke-linecap="square" stroke-miterlimit="10" x1="368.568" y1="381.14" x2="419.57" y2="381.14"/>
<path fill-rule="evenodd" clip-rule="evenodd" fill="#FFFFFF" d="M368.568,391.64h51.002H368.568z"/>
<line fill="none" stroke="#000000" stroke-linecap="square" stroke-miterlimit="10" x1="368.568" y1="391.64" x2="419.57" y2="391.64"/>
<path fill-rule="evenodd" clip-rule="evenodd" fill="#FFFFFF" d="M368.568,402.89h51.002H368.568z"/>
<line fill="none" stroke="#000000" stroke-linecap="square" stroke-miterlimit="10" x1="368.568" y1="402.89" x2="419.57" y2="402.89"/>
<path fill-rule="evenodd" clip-rule="evenodd" fill="#FFFFFF" d="M368.568,414.14h51.002H368.568z"/>
<line fill="none" stroke="#000000" stroke-linecap="square" stroke-miterlimit="10" x1="368.568" y1="414.14" x2="419.57" y2="414.14"/>
</svg>