<svg xmlns="http://www.w3.org/2000/svg" xmlns:xlink="http://www.w3.org/1999/xlink" version="1.1" id="Layer_1" x="0px" y="0px" enable-background="new 0 0 822.05 841.89" xml:space="preserve" viewBox="231.77 274.03 357 296.05">
<path fill-rule="evenodd" clip-rule="evenodd" fill="#FFE398" stroke="#000000" stroke-width="2" stroke-linecap="square" stroke-miterlimit="10" d="  M394.092,334.898c-59.403,3.584-164.525,31.297-161.25,109.498c3.367,80.395,111.338,120.478,177,124.125  c70.327,3.907,160.893-11.217,175.875-91.125C606.114,368.61,469.478,347.14,394.092,334.898z"/>
<path fill-rule="evenodd" clip-rule="evenodd" fill="#FFEBB9" stroke="#000000" stroke-width="2" stroke-linecap="square" stroke-miterlimit="10" d="  M385.842,354.398c22.791-7.982,18.121-49.094,39.375-65.625c20.497-15.942,59.156-22.312,72.75,4.875  c13.93,27.86-22.321,47.495-35.625,64.125c-0.728,0.909,57.248,47.401,65.25,63.375c50.058,99.929-84.743,115.611-153,96.748  c-30.961-8.557-67.579-29.242-83.625-58.125c-21.795-39.231,21.084-55.29,46.125-76.873C351.38,370.583,367,358.503,385.842,354.398  z"/>
<path fill="none" stroke="#000000" stroke-width="2" stroke-linecap="square" stroke-miterlimit="10" d="M232.842,430.896  c6.597-16.556,23.451-24.731,40.5-20.248"/>
<path fill="none" stroke="#000000" stroke-width="2" stroke-linecap="square" stroke-miterlimit="10" d="M232.842,451.146  c6.125-16.926,23.345-25.343,40.5-20.25"/>
<path fill="none" stroke="#000000" stroke-width="2" stroke-linecap="square" stroke-miterlimit="10" d="M238.842,468.396  c5.692-16.949,22.729-25.291,39.75-20.25"/>
<path fill="none" stroke="#000000" stroke-width="2" stroke-linecap="square" stroke-miterlimit="10" d="M523.092,510.396  c16.432-7.273,33.719-0.706,42,15"/>
<path fill="none" stroke="#000000" stroke-width="2" stroke-linecap="square" stroke-miterlimit="10" d="M532.842,497.646  c16.05-7.443,34.327-1.08,42,15"/>
<path fill="none" stroke="#000000" stroke-width="2" stroke-linecap="square" stroke-miterlimit="10" d="M372.342,389.648  c-0.422,25.312-5.244,40.033,11.555,58.592c22.148,24.469,44.297,48.938,66.445,73.406"/>
<path fill="none" stroke="#000000" stroke-width="2" stroke-linecap="square" stroke-miterlimit="10" d="M460.092,366.398  c-10.955,12.994-28.255,40.135-11.25,50.25"/>
</svg>