<svg xmlns="http://www.w3.org/2000/svg" xmlns:xlink="http://www.w3.org/1999/xlink" version="1.1" id="Layer_1" x="0px" y="0px" enable-background="new 0 0 822.05 841.89" xml:space="preserve" viewBox="231.05 255.8 358.45 332.59">
<path fill-rule="evenodd" clip-rule="evenodd" fill="#8BD3E5" stroke="#000000" stroke-width="2" stroke-linecap="square" stroke-miterlimit="10" d="  M363.5,256.89c-19.597-1.655-26.07,20.751-34.144,34.688C314.35,317.482,279.591,355.95,278,386.64  c-1.441,27.795,18.496,29.213,40.699,35.81c55.117,16.377,110.234,32.754,165.352,49.131c43.752,12.999,37.114,5.766,59.251-35.891  c20.601-38.765,45.198-70.631,45.198-114.618C588.5,304.825,390.244,264.111,363.5,256.89z"/>
<path fill="none" stroke="#000000" stroke-width="2" stroke-linecap="square" stroke-miterlimit="10" d="M276.5,389.64  c70.746,20.539,141.491,41.078,212.237,61.617c30.367,8.816,28.428-8.444,44.154-36.041c18.536-32.525,37.072-65.051,55.608-97.577"/>
<line fill="none" stroke="#000000" stroke-width="2" stroke-linecap="square" stroke-miterlimit="10" x1="509" y1="457.14" x2="518" y2="484.89"/>
<path fill-rule="evenodd" clip-rule="evenodd" fill="#009193" stroke="#000000" stroke-width="2" stroke-linecap="square" stroke-miterlimit="10" d="  M254,451.89c-12.879,14.051-26.877,38.617-20.25,58.5c6.21,18.632,30.538-19.795,32.25-24.75c7.654,23.022,33.599,24.002,52.5,14.25  c-9.299,76.163,63.275,7.002,24.75-35.25C330.511,450.668,264.599,435.771,254,451.89z"/>
<path fill-rule="evenodd" clip-rule="evenodd" fill="#009193" stroke="#000000" stroke-width="2" stroke-linecap="square" stroke-miterlimit="10" d="  M389.75,499.89c-10.803,13.23-29.008,40.233-19.875,58.5c8.712,17.425,29.616-18.164,31.875-24.75  c8.18,23.436,33.988,23.569,53.25,14.25c-2.493,14.386,5.937,57.085,25.125,31.5c9.69-12.92,9.99-55.105-0.375-66.75  C467.171,498.508,400.342,483.916,389.75,499.89z"/>
<path fill-rule="evenodd" clip-rule="evenodd" fill="#0A50A1" stroke="#000000" stroke-width="2" stroke-linecap="square" stroke-miterlimit="10" d="  M281.75,456.39c-3.597,9.214-23.25,15.144-23.25,0S278.153,447.176,281.75,456.39z"/>
<path fill-rule="evenodd" clip-rule="evenodd" fill="#0A50A1" stroke="#000000" stroke-width="2" stroke-linecap="square" stroke-miterlimit="10" d="  M417.5,506.64C396.508,551.44,393.451,462.725,417.5,506.64L417.5,506.64z"/>
<path fill-rule="evenodd" clip-rule="evenodd" fill="#0A50A1" stroke="#000000" stroke-width="2" stroke-linecap="square" stroke-miterlimit="10" d="  M342.5,472.14C318.451,516.055,321.508,427.34,342.5,472.14L342.5,472.14z"/>
<path fill-rule="evenodd" clip-rule="evenodd" fill="#0A50A1" stroke="#000000" stroke-width="2" stroke-linecap="square" stroke-miterlimit="10" d="  M480.5,521.64C459.508,566.44,456.45,477.725,480.5,521.64L480.5,521.64z"/>
<path fill="none" stroke="#000000" stroke-width="2" stroke-linecap="square" stroke-miterlimit="10" d="M299,415.89  c-2,10.25-4,20.5-6,30.75c30.413-2.742,25.445,18.193,42-21"/>
<path fill="none" stroke="#000000" stroke-width="2" stroke-linecap="square" stroke-miterlimit="10" d="M431,458.64  c-1.75,12.75-3.5,25.5-5.25,38.25c10.144-4.325,19.459-2.379,26.25,6c8.5-10.25,17-20.5,25.5-30.75"/>
<path fill-rule="evenodd" clip-rule="evenodd" fill="#668187" stroke="#000000" stroke-width="2" stroke-linecap="square" stroke-miterlimit="10" d="  M491,353.64c-2.878,63.318-129.125,63.197-129,0C362.125,290.736,486.121,291.24,491,353.64z"/>
</svg>