<svg xmlns="http://www.w3.org/2000/svg" xmlns:xlink="http://www.w3.org/1999/xlink" version="1.1" id="Layer_1" x="0px" y="0px" enable-background="new 0 0 822.05 841.89" xml:space="preserve" viewBox="318.37 333.4 183.3 176.83">
<path fill-rule="evenodd" clip-rule="evenodd" fill="#FCD2AE" stroke="#000000" stroke-width="0.5" stroke-linecap="square" stroke-miterlimit="10" d="  M458.872,424.89c-11.523,9.521-30.355,18.099-43.504,11.25c-1.249,1.75-2.499,3.5-3.748,5.25  C422.606,451.896,455.053,438.799,458.872,424.89z"/>
<path fill-rule="evenodd" clip-rule="evenodd" fill="#FFFFFF" stroke="#000000" stroke-width="0.5" stroke-linecap="square" stroke-miterlimit="10" d="  M452.122,477.39c-37.36,14.942-49.907,30.75,0.166,30.75c28.108,0,45.584,10.662,45.584-19.44  C497.872,469.125,468.829,477.664,452.122,477.39z"/>
<path fill-rule="evenodd" clip-rule="evenodd" fill="#A9A9AA" stroke="#000000" stroke-width="0.5" stroke-linecap="square" stroke-miterlimit="10" d="  M455.872,481.89c-9.889,3.846-21.644,7.813-30.004,12.75c23.342,3.855,48.221,2.434,72.004,3  C503.099,472.028,473.983,481.89,455.872,481.89z"/>
<path fill-rule="evenodd" clip-rule="evenodd" fill="#FCD2AE" stroke="#000000" stroke-width="0.5" stroke-linecap="square" stroke-miterlimit="10" d="  M368.87,407.64c-7.085,8.989-5.972,17.771,2.25,26.25C387.84,426.267,392.677,400.222,368.87,407.64z"/>
<path fill-rule="evenodd" clip-rule="evenodd" stroke="#000000" stroke-width="0.5" stroke-linecap="square" stroke-miterlimit="10" d="  M495.622,487.14c-13.071,6.258-37.697,6.286-51.75,0C459.811,482.198,480.418,482.25,495.622,487.14z"/>
<path fill-rule="evenodd" clip-rule="evenodd" fill="#ADADAD" stroke="#000000" stroke-width="0.5" stroke-linecap="square" stroke-miterlimit="10" d="  M438.622,465.39C452.205,475.081,452.453,456.333,438.622,465.39L438.622,465.39z"/>
<path fill-rule="evenodd" clip-rule="evenodd" fill="#ADADAD" stroke="#000000" stroke-width="0.5" stroke-linecap="square" stroke-miterlimit="10" d="  M491.122,467.64C504.955,476.666,504.746,458.015,491.122,467.64L491.122,467.64z"/>
<path fill-rule="evenodd" clip-rule="evenodd" fill="#ADADAD" stroke="#000000" stroke-width="0.5" stroke-linecap="square" stroke-miterlimit="10" d="  M446.122,457.14c-4.654,21.887,15.085,50.021,41.25,30.75c7.337-5.404,8.673-11.426,7.875-21  C493.646,447.681,460.096,456.908,446.122,457.14z"/>
<path fill-rule="evenodd" clip-rule="evenodd" fill="#ADADAD" stroke="#000000" stroke-width="0.5" stroke-linecap="square" stroke-miterlimit="10" d="  M497.872,454.89c-14.436,9.646-40.311,9.548-54.75,0C457.562,445.342,483.437,445.245,497.872,454.89z"/>
<path fill-rule="evenodd" clip-rule="evenodd" fill="#FFFFFF" stroke="#000000" stroke-width="0.5" stroke-linecap="square" stroke-miterlimit="10" d="  M492.622,454.14c-11.337,6.859-31.369,6.652-43.5,0C461.629,448.281,480.915,448.111,492.622,454.14z"/>
<path fill-rule="evenodd" clip-rule="evenodd" fill="#993300" stroke="#000000" stroke-width="0.5" stroke-linecap="square" stroke-miterlimit="10" d="  M473.122,458.64c-6.469-1.356-16.287-41.042-15-52.5C463.82,423.35,468.232,441.141,473.122,458.64z"/>
<path fill-rule="evenodd" clip-rule="evenodd" fill="#FCD2AE" stroke="#000000" stroke-width="0.5" stroke-linecap="square" stroke-miterlimit="10" d="  M451.372,429.39C481.671,451.765,476.885,396.37,451.372,429.39L451.372,429.39z"/>
<path fill-rule="evenodd" clip-rule="evenodd" fill="#9596B5" d="M472.372,458.64c-6.685-0.293-13.516-0.495-19.5,0.75  c12.399,1.742,25.101,1.742,37.5,0C484.764,458.125,478.646,458.487,472.372,458.64z"/>
<path fill-rule="evenodd" clip-rule="evenodd" fill="#FCD2AE" stroke="#000000" stroke-width="0.5" stroke-linecap="square" stroke-miterlimit="10" d="  M398.87,391.14c-6.297,33.069-49.88,25.963-44.25-7.5C360.186,350.557,403.607,357.715,398.87,391.14z"/>
<path fill-rule="evenodd" clip-rule="evenodd" fill="#FFFFFF" stroke="#000000" stroke-width="0.5" stroke-linecap="square" stroke-miterlimit="10" d="  M359.12,370.89c14.437,3.066,28.854,7.245,40.5,16.5C418.295,359.865,363.227,339.405,359.12,370.89z"/>
<path fill-rule="evenodd" clip-rule="evenodd" fill="#FFFFFF" stroke="#000000" stroke-width="0.5" stroke-linecap="square" stroke-miterlimit="10" d="  M361.37,367.89c-34.134-21.327,40.99-55.886,53.998-15.75c6.452,19.909-1.898,27.958-21.748,26.25  c-6.527-0.562-4.486-12.074-11.25-13.5C378.473,364.068,365.992,367.618,361.37,367.89z"/>
<path fill-rule="evenodd" clip-rule="evenodd" fill="#FFFFFF" d="M407.12,346.14c3.008,1.965,5.894,2.867,8.248,6  C412.619,350.14,409.87,348.14,407.12,346.14z"/>
<path fill="none" stroke="#000000" stroke-width="0.5" stroke-linecap="square" stroke-miterlimit="10" d="M407.12,346.14  c3.294,1.101,6.131,3.184,8.248,6"/>
<path fill-rule="evenodd" clip-rule="evenodd" fill="#FFFFFF" d="M374.87,337.89c-4.204,3.019-7.91,2.839-9.75,9  C368.37,343.89,371.62,340.89,374.87,337.89z"/>
<path fill="none" stroke="#000000" stroke-width="0.5" stroke-linecap="square" stroke-miterlimit="10" d="M374.87,337.89  c-4.797,0.904-8.312,4.187-9.75,9"/>
<path fill-rule="evenodd" clip-rule="evenodd" fill="#FF9900" stroke="#000000" stroke-width="0.5" stroke-linecap="square" stroke-miterlimit="10" d="  M418.368,432.39c-5.892-4.603-16.838-17.485-23.998-18.75c-7.192-1.271-10.347,6.955-11.25,6.75c-9.518-2.156-15.781,7.543-19.5-9  c-18.781,4.785-26.835,24.884-37.5,39.75c8.242,9.256,16.532,12.549,23.25,3c-1,10.5-2,21-3,31.5c16.75,0.25,33.5,0.5,50.25,0.75  c0-15.5,0-31,0-46.5c3.5,3.25,7,6.5,10.5,9.75C410.628,444.26,416.374,438.438,418.368,432.39z"/>
<path fill-rule="evenodd" clip-rule="evenodd" fill="#FFFFFF" stroke="#000000" stroke-width="0.5" stroke-linecap="square" stroke-miterlimit="10" d="  M360.62,412.14c1.507,5.839,2.008,12.047,3,18C353.23,426.468,352.353,419.34,360.62,412.14z"/>
<path fill-rule="evenodd" clip-rule="evenodd" fill="#FFFFFF" stroke="#000000" stroke-width="0.5" stroke-linecap="square" stroke-miterlimit="10" d="  M388.37,412.89c-2.896,5.13-3.59,12.309-5.25,18C394.421,426.697,397.029,419.874,388.37,412.89z"/>
<path fill-rule="evenodd" clip-rule="evenodd" fill="#FFFFFF" stroke="#000000" stroke-width="0.5" stroke-linecap="square" stroke-miterlimit="10" d="  M356.12,427.89c40.967,0.872,35.551,3.201,40.5,43.5c-16-0.25-32-0.5-48-0.75C351.12,456.39,353.62,442.14,356.12,427.89z"/>
<path fill-rule="evenodd" clip-rule="evenodd" fill="#FFFFFF" stroke="#000000" stroke-width="0.5" stroke-linecap="square" stroke-miterlimit="10" d="  M396.62,468.39c-44.813,1.4-46.931-4.559-54.75,39.75c21.5,0,43,0,64.5,0C403.12,494.89,399.87,481.64,396.62,468.39z"/>
<path fill-rule="evenodd" clip-rule="evenodd" fill="#FCD2AE" stroke="#000000" stroke-width="0.5" stroke-linecap="square" stroke-miterlimit="10" d="  M326.87,462.39c2.75-1.75,5.5-3.5,8.25-5.25c-10.202-1.444-12.699,3.064-16.5,9c12.958,1.135,37.796,7.087,46.5-4.5  C352.686,465.225,339.467,465.424,326.87,462.39z"/>
<path fill-rule="evenodd" clip-rule="evenodd" fill="#FCD2AE" stroke="#000000" stroke-width="0.5" stroke-linecap="square" stroke-miterlimit="10" d="  M359.87,463.89C386.79,488.257,389.687,435.55,359.87,463.89L359.87,463.89z"/>
</svg>