<svg xmlns="http://www.w3.org/2000/svg" xmlns:xlink="http://www.w3.org/1999/xlink" version="1.1" id="Layer_1" x="0px" y="0px" enable-background="new 0 0 822.05 841.89" xml:space="preserve" viewBox="245.39 261.86 330.28 326.37">
<path fill-rule="evenodd" clip-rule="evenodd" fill="#E2AC46" stroke="#000000" stroke-width="2" stroke-linecap="square" stroke-miterlimit="10" d="  M285,327.89c16.457-79.749,99.03-64.275,154.5-63c76.436,1.758,132.407,68.346,135,144c2.34,68.259-19.224,146.158-92.625,170.625  C410.209,603.404,341.812,569.026,297,514.64c-26.535-32.205-54.107-59.772-50.25-106.5C248.607,385.637,265.137,340.712,285,327.89  z"/>
<path fill-rule="evenodd" clip-rule="evenodd" fill="#942923" stroke="#000000" stroke-width="2" stroke-linecap="square" stroke-miterlimit="10" d="  M327.75,331.64c-13.792,15.192,2.297,36.743,20.25,24.75C368.895,342.432,349.268,314.993,327.75,331.64z"/>
<path fill-rule="evenodd" clip-rule="evenodd" fill="#942923" stroke="#000000" stroke-width="2" stroke-linecap="square" stroke-miterlimit="10" d="  M383.25,449.39c-20.585-9.163-33.651,19.489-15,30.75C388.664,492.465,405.502,454.763,383.25,449.39z"/>
<path fill-rule="evenodd" clip-rule="evenodd" fill="#942923" stroke="#000000" stroke-width="2" stroke-linecap="square" stroke-miterlimit="10" d="  M504.75,382.64c-22.743-10.979-32.281,25.043-12,32.25C512.427,421.882,526.894,385.913,504.75,382.64z"/>
<path fill-rule="evenodd" clip-rule="evenodd" fill="#942923" stroke="#000000" stroke-width="2" stroke-linecap="square" stroke-miterlimit="10" d="  M418.5,402.89c-15.418-7.94-30.035,10.786-15.75,16.5C422.101,427.13,440.887,422.292,418.5,402.89z"/>
<path fill-rule="evenodd" clip-rule="evenodd" fill="#942923" stroke="#000000" stroke-width="2" stroke-linecap="square" stroke-miterlimit="10" d="  M444.75,441.89c14.344-20.994,45.717-1.788,37.5,17.25C474.16,477.884,432.299,462.843,444.75,441.89z"/>
<path fill-rule="evenodd" clip-rule="evenodd" fill="#942923" stroke="#000000" stroke-width="2" stroke-linecap="square" stroke-miterlimit="10" d="  M309.75,534.14C356.792,585.177,335.705,496.632,309.75,534.14L309.75,534.14z"/>
<path fill-rule="evenodd" clip-rule="evenodd" fill="#942923" stroke="#000000" stroke-width="2" stroke-linecap="square" stroke-miterlimit="10" d="  M460.5,508.64c-17.089,8.242-13.26,31.983,6.75,28.5C484.458,534.145,483.359,502.789,460.5,508.64z"/>
<path fill-rule="evenodd" clip-rule="evenodd" fill="#942923" stroke="#000000" stroke-width="2" stroke-linecap="square" stroke-miterlimit="10" d="  M447,325.64c-2.366,16.549,12.913,53.706,30.75,38.25C497.122,347.104,466.908,315.856,447,325.64z"/>
<path fill-rule="evenodd" clip-rule="evenodd" fill="#942923" stroke="#000000" stroke-width="2" stroke-linecap="square" stroke-miterlimit="10" d="  M520.5,310.64c12.911,8.842,21.07,48.504-5.25,44.25C501.273,352.631,503.366,305.082,520.5,310.64z"/>
<path fill-rule="evenodd" clip-rule="evenodd" fill="#942923" stroke="#000000" stroke-width="2" stroke-linecap="square" stroke-miterlimit="10" d="  M437.25,282.14c7.287-12.271,34.929-17.729,34.5,3C471.481,298.149,444.467,290.023,437.25,282.14z"/>
</svg>