<svg xmlns="http://www.w3.org/2000/svg" xmlns:xlink="http://www.w3.org/1999/xlink" version="1.1" id="Layer_1" x="0px" y="0px" enable-background="new 0 0 822.05 841.89" xml:space="preserve" viewBox="215.03 250.63 391.16 345.32">
<path fill-rule="evenodd" clip-rule="evenodd" fill="#E2AC46" stroke="#000000" stroke-width="2" stroke-linecap="square" stroke-miterlimit="10" d="  M312.25,334.148c13.334-49.15,75.64-39.047,109.875-24.375c42.227,18.097,54.346,86.627,30.375,124.125  C394.289,524.958,241.047,411.766,312.25,334.148z"/>
<path fill-rule="evenodd" clip-rule="evenodd" fill="#942923" stroke="#000000" stroke-width="2" stroke-linecap="square" stroke-miterlimit="10" d="  M334.75,335.648C321.54,374.441,372.213,320.093,334.75,335.648L334.75,335.648z"/>
<path fill-rule="evenodd" clip-rule="evenodd" fill="#942923" stroke="#000000" stroke-width="2" stroke-linecap="square" stroke-miterlimit="10" d="  M363.25,397.148C319.277,396.968,396.041,426.153,363.25,397.148L363.25,397.148z"/>
<path fill-rule="evenodd" clip-rule="evenodd" fill="#942923" stroke="#000000" stroke-width="2" stroke-linecap="square" stroke-miterlimit="10" d="  M427,362.648c-7.863-0.515-21.151,10.128-7.5,15.75C432.313,383.675,434.071,368.717,427,362.648z"/>
<path fill-rule="evenodd" clip-rule="evenodd" fill="#942923" stroke="#000000" stroke-width="2" stroke-linecap="square" stroke-miterlimit="10" d="  M382,373.148C352.929,373.46,397.862,397.361,382,373.148L382,373.148z"/>
<path fill-rule="evenodd" clip-rule="evenodd" fill="#942923" stroke="#000000" stroke-width="2" stroke-linecap="square" stroke-miterlimit="10" d="  M395.5,393.398c7.344-7.087,22.415-5.765,20.25,8.25C413.841,414.007,394.881,403.686,395.5,393.398z"/>
<path fill-rule="evenodd" clip-rule="evenodd" fill="#942923" stroke="#000000" stroke-width="2" stroke-linecap="square" stroke-miterlimit="10" d="  M325,441.398c4.107,4.587,8.329,8.012,14.25,9.75C342.064,438.003,336.123,434.256,325,441.398z"/>
<path fill-rule="evenodd" clip-rule="evenodd" fill="#942923" stroke="#000000" stroke-width="2" stroke-linecap="square" stroke-miterlimit="10" d="  M403.75,428.648C382.247,451.026,434.721,436.39,403.75,428.648L403.75,428.648z"/>
<path fill-rule="evenodd" clip-rule="evenodd" fill="#942923" stroke="#000000" stroke-width="2" stroke-linecap="square" stroke-miterlimit="10" d="  M397,332.648C390.615,384.316,438.787,322.453,397,332.648L397,332.648z"/>
<path fill-rule="evenodd" clip-rule="evenodd" fill="#942923" stroke="#000000" stroke-width="2" stroke-linecap="square" stroke-miterlimit="10" d="  M435.25,325.148c5.077,4.407,8.942,28.11-3,22.5C422.216,342.935,431.265,326.239,435.25,325.148z"/>
<path fill-rule="evenodd" clip-rule="evenodd" fill="#942923" stroke="#000000" stroke-width="2" stroke-linecap="square" stroke-miterlimit="10" d="  M391.75,310.148C408.313,294.365,417.999,325.1,391.75,310.148L391.75,310.148z"/>
<path fill-rule="evenodd" clip-rule="evenodd" fill="#E2AC46" stroke="#000000" stroke-width="2" stroke-linecap="square" stroke-miterlimit="10" d="  M451.75,386.648c-41.032-26.083-18.174-82.413,6-110.25c29.785-34.299,96.283-32.446,127.5,2.25  C657.85,359.341,513.389,475.478,451.75,386.648z"/>
<path fill-rule="evenodd" clip-rule="evenodd" fill="#942923" stroke="#000000" stroke-width="2" stroke-linecap="square" stroke-miterlimit="10" d="  M460,365.648C493.449,388.715,454.74,326.816,460,365.648L460,365.648z"/>
<path fill-rule="evenodd" clip-rule="evenodd" fill="#942923" stroke="#000000" stroke-width="2" stroke-linecap="square" stroke-miterlimit="10" d="  M526.75,355.898c-2.453,7.582,6.963,22.6,13.5,12C547.761,355.72,535.306,349.877,526.75,355.898z"/>
<path fill-rule="evenodd" clip-rule="evenodd" fill="#942923" stroke="#000000" stroke-width="2" stroke-linecap="square" stroke-miterlimit="10" d="  M511,284.648C498.454,326.24,547.697,262.035,511,284.648L511,284.648z"/>
<path fill-rule="evenodd" clip-rule="evenodd" fill="#942923" stroke="#000000" stroke-width="2" stroke-linecap="square" stroke-miterlimit="10" d="  M508.75,331.148C503.401,359.328,535.724,321.068,508.75,331.148L508.75,331.148z"/>
<path fill-rule="evenodd" clip-rule="evenodd" fill="#942923" stroke="#000000" stroke-width="2" stroke-linecap="square" stroke-miterlimit="10" d="  M532,323.648c-4.274-8.75,1.088-23,13.5-17.25C557.134,311.787,542.111,327.347,532,323.648z"/>
<path fill-rule="evenodd" clip-rule="evenodd" fill="#942923" stroke="#000000" stroke-width="2" stroke-linecap="square" stroke-miterlimit="10" d="  M559,404.648C585.162,392.783,551.227,380.932,559,404.648L559,404.648z"/>
<path fill-rule="evenodd" clip-rule="evenodd" fill="#942923" stroke="#000000" stroke-width="2" stroke-linecap="square" stroke-miterlimit="10" d="  M568,325.148C584.087,352.671,584.521,298.542,568,325.148L568,325.148z"/>
<path fill-rule="evenodd" clip-rule="evenodd" fill="#942923" stroke="#000000" stroke-width="2" stroke-linecap="square" stroke-miterlimit="10" d="  M474.25,305.648C521.509,322.585,475.592,264.202,474.25,305.648L474.25,305.648z"/>
<path fill-rule="evenodd" clip-rule="evenodd" fill="#942923" stroke="#000000" stroke-width="2" stroke-linecap="square" stroke-miterlimit="10" d="  M477.25,266.648c7.932-5.768,29.479,2,21.75,9C490.562,283.29,477.741,270.879,477.25,266.648z"/>
<path fill-rule="evenodd" clip-rule="evenodd" fill="#942923" stroke="#000000" stroke-width="2" stroke-linecap="square" stroke-miterlimit="10" d="  M451,304.148C439.917,283.686,473.649,283.342,451,304.148L451,304.148z"/>
<path fill-rule="evenodd" clip-rule="evenodd" fill="#E2AC46" stroke="#000000" stroke-width="2" stroke-linecap="square" stroke-miterlimit="10" d="  M530.5,359.648c84.044,0.352,49.855,186.364-61.5,141.75C383.899,467.302,446.289,320.875,530.5,359.648z"/>
<path fill-rule="evenodd" clip-rule="evenodd" fill="#942923" stroke="#000000" stroke-width="2" stroke-linecap="square" stroke-miterlimit="10" d="  M533.5,379.898C499.688,380.367,552.223,407.916,533.5,379.898L533.5,379.898z"/>
<path fill-rule="evenodd" clip-rule="evenodd" fill="#942923" stroke="#000000" stroke-width="2" stroke-linecap="square" stroke-miterlimit="10" d="  M486.25,418.148C476.975,383.398,466.408,448.422,486.25,418.148L486.25,418.148z"/>
<path fill-rule="evenodd" clip-rule="evenodd" fill="#942923" stroke="#000000" stroke-width="2" stroke-linecap="square" stroke-miterlimit="10" d="  M530.5,466.148C520.391,432.373,511.216,494.818,530.5,466.148L530.5,466.148z"/>
<path fill-rule="evenodd" clip-rule="evenodd" fill="#942923" stroke="#000000" stroke-width="2" stroke-linecap="square" stroke-miterlimit="10" d="  M511.75,428.648C501.606,409.812,495.391,443.919,511.75,428.648L511.75,428.648z"/>
<path fill-rule="evenodd" clip-rule="evenodd" fill="#942923" stroke="#000000" stroke-width="2" stroke-linecap="square" stroke-miterlimit="10" d="  M496.75,445.148c16.573,11.449-1.405,9.739-3,19.5C494.878,457.745,478.797,449.849,496.75,445.148z"/>
<path fill-rule="evenodd" clip-rule="evenodd" fill="#942923" stroke="#000000" stroke-width="2" stroke-linecap="square" stroke-miterlimit="10" d="  M439.75,394.898C428.071,415.774,451.915,409.295,439.75,394.898L439.75,394.898z"/>
<path fill-rule="evenodd" clip-rule="evenodd" fill="#942923" stroke="#000000" stroke-width="2" stroke-linecap="square" stroke-miterlimit="10" d="  M468.25,460.148C444.092,450.393,466.287,485.458,468.25,460.148L468.25,460.148z"/>
<path fill-rule="evenodd" clip-rule="evenodd" fill="#942923" stroke="#000000" stroke-width="2" stroke-linecap="square" stroke-miterlimit="10" d="  M550,433.148C507.687,439.944,563.023,467.431,550,433.148L550,433.148z"/>
<path fill-rule="evenodd" clip-rule="evenodd" fill="#942923" stroke="#000000" stroke-width="2" stroke-linecap="square" stroke-miterlimit="10" d="  M565,464.648C546.903,498.31,544.38,439.542,565,464.648L565,464.648z"/>
<path fill-rule="evenodd" clip-rule="evenodd" fill="#942923" stroke="#000000" stroke-width="2" stroke-linecap="square" stroke-miterlimit="10" d="  M568.75,423.398c5.82,6.829,11.112,9.312,1.5,17.25C564.805,434.354,567.171,430.141,568.75,423.398z"/>
<path fill-rule="evenodd" clip-rule="evenodd" fill="#E2AC46" stroke="#000000" stroke-width="2" stroke-linecap="square" stroke-miterlimit="10" d="  M435.25,445.898c84.474,0.354,48.916,187.864-62.25,141.75C288.018,552.396,350.997,409.02,435.25,445.898z"/>
<path fill-rule="evenodd" clip-rule="evenodd" fill="#942923" stroke="#000000" stroke-width="2" stroke-linecap="square" stroke-miterlimit="10" d="  M438.25,466.148C405.272,467.974,455.473,493.004,438.25,466.148L438.25,466.148z"/>
<path fill-rule="evenodd" clip-rule="evenodd" fill="#942923" stroke="#000000" stroke-width="2" stroke-linecap="square" stroke-miterlimit="10" d="  M391,504.398C380.734,470.039,370.888,534.233,391,504.398L391,504.398z"/>
<path fill-rule="evenodd" clip-rule="evenodd" fill="#942923" stroke="#000000" stroke-width="2" stroke-linecap="square" stroke-miterlimit="10" d="  M435.25,552.398C425.233,518.93,415.299,580.476,435.25,552.398L435.25,552.398z"/>
<path fill-rule="evenodd" clip-rule="evenodd" fill="#942923" stroke="#000000" stroke-width="2" stroke-linecap="square" stroke-miterlimit="10" d="  M416.5,514.898C405.928,496.558,400.048,529.941,416.5,514.898L416.5,514.898z"/>
<path fill-rule="evenodd" clip-rule="evenodd" fill="#942923" stroke="#000000" stroke-width="2" stroke-linecap="square" stroke-miterlimit="10" d="  M401.5,531.398c16.065,11.361-1.267,9.726-3,19.5C399.715,544.046,383.015,536.069,401.5,531.398z"/>
<path fill-rule="evenodd" clip-rule="evenodd" fill="#942923" stroke="#000000" stroke-width="2" stroke-linecap="square" stroke-miterlimit="10" d="  M344.5,481.148C331.709,501.707,356.213,495.837,344.5,481.148L344.5,481.148z"/>
<path fill-rule="evenodd" clip-rule="evenodd" fill="#942923" stroke="#000000" stroke-width="2" stroke-linecap="square" stroke-miterlimit="10" d="  M373,546.398C349.119,537.272,370.05,571.268,373,546.398L373,546.398z"/>
<path fill-rule="evenodd" clip-rule="evenodd" fill="#942923" stroke="#000000" stroke-width="2" stroke-linecap="square" stroke-miterlimit="10" d="  M454.75,519.398C412.379,525.534,467.397,554.251,454.75,519.398L454.75,519.398z"/>
<path fill-rule="evenodd" clip-rule="evenodd" fill="#942923" stroke="#000000" stroke-width="2" stroke-linecap="square" stroke-miterlimit="10" d="  M469.75,550.898C452.03,582.992,447.529,527.431,469.75,550.898L469.75,550.898z"/>
<path fill-rule="evenodd" clip-rule="evenodd" fill="#942923" stroke="#000000" stroke-width="2" stroke-linecap="square" stroke-miterlimit="10" d="  M473.5,509.648c6.008,6.836,11.155,9.194,1.5,17.25C469.612,520.67,471.785,516.355,473.5,509.648z"/>
<path fill-rule="evenodd" clip-rule="evenodd" fill="#E2AC46" stroke="#000000" stroke-width="2" stroke-linecap="square" stroke-miterlimit="10" d="  M317.5,406.898c85.734,1.139,48.03,186.896-61.5,141.75C169.913,513.164,238.077,360.728,317.5,406.898z"/>
<path fill-rule="evenodd" clip-rule="evenodd" fill="#942923" stroke="#000000" stroke-width="2" stroke-linecap="square" stroke-miterlimit="10" d="  M320.5,426.398C287.894,428.475,337.733,454.801,320.5,426.398L320.5,426.398z"/>
<path fill-rule="evenodd" clip-rule="evenodd" fill="#942923" stroke="#000000" stroke-width="2" stroke-linecap="square" stroke-miterlimit="10" d="  M273.25,465.398C263.294,432.061,251.997,493.303,273.25,465.398L273.25,465.398z"/>
<path fill-rule="evenodd" clip-rule="evenodd" fill="#942923" stroke="#000000" stroke-width="2" stroke-linecap="square" stroke-miterlimit="10" d="  M317.5,512.648C306.624,478.416,300.052,543.918,317.5,512.648L317.5,512.648z"/>
<path fill-rule="evenodd" clip-rule="evenodd" fill="#942923" stroke="#000000" stroke-width="2" stroke-linecap="square" stroke-miterlimit="10" d="  M298.75,475.898C290.597,454.57,281.175,491.703,298.75,475.898L298.75,475.898z"/>
<path fill-rule="evenodd" clip-rule="evenodd" fill="#942923" stroke="#000000" stroke-width="2" stroke-linecap="square" stroke-miterlimit="10" d="  M283.75,492.398C318.088,515.914,242.94,503.471,283.75,492.398L283.75,492.398z"/>
<path fill-rule="evenodd" clip-rule="evenodd" fill="#942923" stroke="#000000" stroke-width="2" stroke-linecap="square" stroke-miterlimit="10" d="  M226.75,441.398C214.569,462.367,238.864,456.836,226.75,441.398L226.75,441.398z"/>
<path fill-rule="evenodd" clip-rule="evenodd" fill="#942923" stroke="#000000" stroke-width="2" stroke-linecap="square" stroke-miterlimit="10" d="  M255.25,507.398C231.002,497.272,252.754,532.044,255.25,507.398L255.25,507.398z"/>
<path fill-rule="evenodd" clip-rule="evenodd" fill="#942923" stroke="#000000" stroke-width="2" stroke-linecap="square" stroke-miterlimit="10" d="  M337,479.648C293.412,489.409,352.161,512.854,337,479.648L337,479.648z"/>
<path fill-rule="evenodd" clip-rule="evenodd" fill="#942923" stroke="#000000" stroke-width="2" stroke-linecap="square" stroke-miterlimit="10" d="  M352,511.898C332.959,545.178,332.825,486.068,352,511.898L352,511.898z"/>
<path fill-rule="evenodd" clip-rule="evenodd" fill="#942923" stroke="#000000" stroke-width="2" stroke-linecap="square" stroke-miterlimit="10" d="  M355.75,470.648c5.425,6.751,11.222,8.488,1.5,17.25C351.796,481.417,354.363,477.404,355.75,470.648z"/>
</svg>