<svg xmlns="http://www.w3.org/2000/svg" xmlns:xlink="http://www.w3.org/1999/xlink" version="1.1" id="Layer_1" x="0px" y="0px" enable-background="new 0 0 822.05 841.89" xml:space="preserve" viewBox="321.35 358.92 174.4 120.79">
<path fill-rule="evenodd" clip-rule="evenodd" stroke="#000000" stroke-width="1.25" stroke-linecap="square" stroke-miterlimit="10" d="  M432.875,473.785c0.558,1.689,5.021,4.312,6,5.25C424.125,479.488,432.525,476.492,432.875,473.785z"/>
<path fill-rule="evenodd" clip-rule="evenodd" fill="#FFFFFF" stroke="#000000" stroke-width="1.25" stroke-linecap="square" stroke-miterlimit="10" d="  M441.875,431.785c-3.806,9.415-7.556,18.272-12.75,27c-0.25-9.5-0.5-19-0.75-28.5C432.875,430.785,437.375,431.285,441.875,431.785z  "/>
<path fill-rule="evenodd" clip-rule="evenodd" fill="#FFFFFF" stroke="#000000" stroke-width="1.25" stroke-linecap="square" stroke-miterlimit="10" d="  M430.625,455.785c-1.281-16.751,12.458-31.187-12-33.75c0.351,19.134-0.743,55.505,17.25,54.75  C432.339,470.09,433.25,461.954,430.625,455.785z"/>
<path fill-rule="evenodd" clip-rule="evenodd" stroke="#000000" stroke-width="1.25" stroke-linecap="square" stroke-miterlimit="10" d="  M421.625,465.535c0.466,1.774-1.58,4.694,1.5,7.5C425.874,468.507,422.868,470.27,421.625,465.535z"/>
<path fill="none" stroke="#000000" stroke-width="1.25" stroke-linecap="square" stroke-miterlimit="10" d="M424.625,457.285  c0.863,5.267,0.605,10.554-0.75,15.75"/>
<path fill-rule="evenodd" clip-rule="evenodd" fill="#5E1F0A" stroke="#000000" stroke-width="1.25" stroke-linecap="square" stroke-miterlimit="10" d="  M459.875,416.785c6.337-22.364,17.822-18.106,10.805-45.398c-3.792-14.747-36.518-8.602-47.18-8.602  c-14.481,0-8.981,16.024-12.373,24.75c-4.054,10.43-25.767,21.641,2.25,21c0.48,10.026-0.477,2.556,4.498,6.75  C414.765,436.031,453.688,435.433,459.875,416.785z"/>
<path fill-rule="evenodd" clip-rule="evenodd" stroke="#000000" stroke-width="1.25" stroke-linecap="square" stroke-miterlimit="10" d="  M380.375,458.785c0.329,0.628,6.381,2.984,7.5,4.5C376.545,466.998,381.89,461.677,380.375,458.785z"/>
<path fill-rule="evenodd" clip-rule="evenodd" fill="#FFFFFF" d="M358.625,431.035c8.938,12.983,9.551,37.537,26.25,28.5  c-11.794-8.406-15.62-22.645-15-36.75C366.125,425.535,362.375,428.285,358.625,431.035z"/>
<path fill="none" stroke="#000000" stroke-width="1.25" stroke-linecap="square" stroke-miterlimit="10" d="M358.625,431.035  c8.938,12.983,9.551,37.537,26.25,28.5c-11.794-8.406-15.62-22.645-15-36.75C366.125,425.535,362.375,428.285,358.625,431.035"/>
<path fill-rule="evenodd" clip-rule="evenodd" fill="#E6B98A" stroke="#000000" stroke-width="1.25" stroke-linecap="square" stroke-miterlimit="10" d="  M372.125,428.785c-0.931,3.01,0.156,6.86-0.75,9.75C367.131,424.937,373.146,427.663,372.125,428.785z"/>
<path fill-rule="evenodd" clip-rule="evenodd" stroke="#000000" stroke-width="1.25" stroke-linecap="square" stroke-miterlimit="10" d="  M348.875,463.285c2.341,4.241,6.142,3.02,6.75,8.25C343.087,474,350.321,468.499,348.875,463.285z"/>
<path fill-rule="evenodd" clip-rule="evenodd" fill="#5E1F0A" stroke="#000000" stroke-width="1.25" stroke-linecap="square" stroke-miterlimit="10" d="  M339.125,374.035c-22.771,12.593-16.19,57.352-16.5,78.75C343.296,432.758,317.635,397.953,339.125,374.035z"/>
<path fill-rule="evenodd" clip-rule="evenodd" fill="#E6B98A" stroke="#000000" stroke-width="1.25" stroke-linecap="square" stroke-miterlimit="10" d="  M350.375,420.535c1.737,9.199,4.335,9.799,5.25,18c2.439-1.324,7.687-4.342,9.75-6c-0.203,2.753-2.125,5.531,0.75,7.5  c4.104-4.792,8.373-7.914,13.125-14.25C387.857,414.308,358.55,395.442,350.375,420.535z"/>
<path fill-rule="evenodd" clip-rule="evenodd" fill="#FFFFFF" stroke="#000000" stroke-width="1.25" stroke-linecap="square" stroke-miterlimit="10" d="  M442.625,427.285c-12.733,3.042-27.311,5.079-24.75-12c-4.975-4.194-4.018,3.276-4.498-6.75c-27.585,0.631-6.513-9.066-3.75-18.75  c2.875-10.074,1.637-19.181,9.748-27c-30.098-7.273-19.004,33.726-39,36.75c-17.622,2.665-19.726-22.306-8.25-33.75  c-8.429-3.12-12.831-2.235-21,0.75c2.505,7.038,11.023,17.47,10.5,23.25c-0.3,3.315-12.423,6.349-13.5,11.25  c-1.015,4.616,1.78,11.91,0,16.5c-4.376,11.286-21.981,59.783,3.75,48c-13.747-18.982-3.867-52.677,17.25-51.75  C377.513,414.153,444.614,456.143,442.625,427.285z"/>
<path fill-rule="evenodd" clip-rule="evenodd" fill="#5E1F0A" stroke="#000000" stroke-width="1.25" stroke-linecap="square" stroke-miterlimit="10" d="  M366.125,384.535c-0.121,13.883,10.316,17.451,20.25,11.25c10.303-6.432,7.781-23.355,18.752-33  C390.399,367.209,357.398,361.707,366.125,384.535z"/>
<path fill-rule="evenodd" clip-rule="evenodd" fill="#5E1F0A" stroke="#000000" stroke-width="1.25" stroke-linecap="square" stroke-miterlimit="10" d="  M346.625,403.285c18.718-13.565,10.959-44.782-8.25-30.375c-12.675,9.506,1.477,47.649-2.25,64.125  C348.27,430.5,350.386,415.867,346.625,403.285z"/>
<path fill-rule="evenodd" clip-rule="evenodd" fill="#5E1F0A" stroke="#000000" stroke-width="1.25" stroke-linecap="square" stroke-miterlimit="10" d="  M474.125,365.035C506.484,345.398,493.638,386.406,474.125,365.035L474.125,365.035z"/>
<path fill-rule="evenodd" clip-rule="evenodd" fill="#FFFFFF" stroke="#000000" stroke-width="1.25" stroke-linecap="square" stroke-miterlimit="10" d="  M482.375,365.035c4.846-0.371,7.739-2.503,12.75-1.5C489.443,368.565,487.163,364.832,482.375,365.035z"/>
<path fill-rule="evenodd" clip-rule="evenodd" fill="#FFFFFF" stroke="#000000" stroke-width="1.25" stroke-linecap="square" stroke-miterlimit="10" d="  M477.875,392.035c4.229-12.575,2.242-25.56-7.5-30.75c-3.539,14.357,2.289,30.23-6,44.25c4.402,0.882,12.192,0.519,16.5-0.75  C479.406,400.825,479.474,395.705,477.875,392.035z"/>
<path fill-rule="evenodd" clip-rule="evenodd" fill="#5E1F0A" stroke="#000000" stroke-width="1.25" stroke-linecap="square" stroke-miterlimit="10" d="  M486.875,383.785c1.111-8.879,0.045-15.146-9-20.25c2.527,11.587,2.273,25.369,2.25,36.75  C479.981,392.613,484.33,390.152,486.875,383.785z"/>
<path fill-rule="evenodd" clip-rule="evenodd" fill="#5E1F0A" stroke="#000000" stroke-width="1.25" stroke-linecap="square" stroke-miterlimit="10" d="  M468.875,385.285c0.385-8.174-0.393-15.684,1.5-24c-12.278,1.511-46.149,9.417-14.25,9.75c-9.87,13.779,5.794,21.223,7.5,34.5  C468.427,399.396,468.423,392.948,468.875,385.285z"/>
<path fill-rule="evenodd" clip-rule="evenodd" fill="#E6B98A" stroke="#000000" stroke-width="1.25" stroke-linecap="square" stroke-miterlimit="10" d="  M463.625,405.535C490.304,393.601,475.386,423.991,463.625,405.535L463.625,405.535z"/>
<path fill-rule="evenodd" clip-rule="evenodd" stroke="#000000" stroke-width="1.25" stroke-linecap="square" stroke-miterlimit="10" d="  M470.375,407.785C467.446,406.093,466.283,405.421,470.375,407.785L470.375,407.785z"/>
<path fill-rule="evenodd" clip-rule="evenodd" stroke="#000000" stroke-width="1.25" stroke-linecap="square" stroke-miterlimit="10" d="  M480.125,404.785C476.292,406.935,474.855,407.741,480.125,404.785L480.125,404.785z"/>
<path fill="none" stroke="#000000" stroke-width="1.25" stroke-linecap="square" stroke-miterlimit="10" d="M469.625,409.285  c2.344,1.598,4.629,1.77,6.75,0"/>
<path fill-rule="evenodd" clip-rule="evenodd" fill="#FFFFFF" stroke="#000000" stroke-width="1.25" stroke-linecap="square" stroke-miterlimit="10" d="  M458.375,366.535c-5.164,0.04-7.344-3.108-12.75-0.75C451.254,370.603,454.002,366.568,458.375,366.535z"/>
<path fill-rule="evenodd" clip-rule="evenodd" fill="#352413" stroke="#000000" stroke-width="1.25" stroke-linecap="square" stroke-miterlimit="10" d="  M461.375,382.285c-2.393-2.308-0.636-5.21-5.25-5.25C455.532,382.006,458.805,379.805,461.375,382.285z"/>
<path fill-rule="evenodd" clip-rule="evenodd" fill="#5E1F0A" stroke="#000000" stroke-width="1.25" stroke-linecap="square" stroke-miterlimit="10" d="  M483.125,384.535c2.31-2.417,0.69-5.21,5.25-5.25C487.917,382.901,485.469,382.082,483.125,384.535z"/>
<path fill-rule="evenodd" clip-rule="evenodd" stroke="#000000" stroke-width="1.25" stroke-linecap="square" stroke-miterlimit="10" d="  M459.875,380.035C456.626,378.916,456.633,378.917,459.875,380.035L459.875,380.035z"/>
<path fill-rule="evenodd" clip-rule="evenodd" stroke="#000000" stroke-width="1.25" stroke-linecap="square" stroke-miterlimit="10" d="  M486.875,382.285C485.059,381.477,483.825,380.928,486.875,382.285L486.875,382.285z"/>
<path fill-rule="evenodd" clip-rule="evenodd" fill="#FFFFFF" stroke="#000000" stroke-width="1.25" stroke-linecap="square" stroke-miterlimit="10" d="  M459.875,379.285C458.231,380.171,459.233,379.631,459.875,379.285L459.875,379.285z"/>
<path fill-rule="evenodd" clip-rule="evenodd" fill="#FFFFFF" stroke="#000000" stroke-width="1.25" stroke-linecap="square" stroke-miterlimit="10" d="  M486.875,380.785C486.233,380.438,485.231,379.898,486.875,380.785L486.875,380.785z"/>
</svg>