<svg xmlns="http://www.w3.org/2000/svg" xmlns:xlink="http://www.w3.org/1999/xlink" version="1.1" id="Layer_1" x="0px" y="0px" enable-background="new 0 0 822.05 841.89" xml:space="preserve" viewBox="305.34 343.49 210.16 154.27">
<path fill-rule="evenodd" clip-rule="evenodd" fill="#7F4208" d="M376.75,487.265C368.63,487.558,372.778,487.409,376.75,487.265  L376.75,487.265z"/>
<path fill-rule="evenodd" clip-rule="evenodd" fill="#7F4208" d="M373,482.765C364.88,483.058,369.028,482.909,373,482.765  L373,482.765z"/>
<path fill-rule="evenodd" clip-rule="evenodd" fill="#7F4208" d="M373.75,485.765C365.63,486.058,369.778,485.909,373.75,485.765  L373.75,485.765z"/>
<path fill-rule="evenodd" clip-rule="evenodd" fill="#7F4208" d="M368.5,473.765C362.57,467.731,366.536,471.766,368.5,473.765  L368.5,473.765z"/>
<path fill-rule="evenodd" clip-rule="evenodd" fill="#7F4208" d="M368.5,476.015C361.935,469.997,366.149,473.861,368.5,476.015  L368.5,476.015z"/>
<path fill-rule="evenodd" clip-rule="evenodd" fill="#7F4208" d="M369.25,479.015C362.685,472.997,366.899,476.861,369.25,479.015  L369.25,479.015z"/>
<path fill-rule="evenodd" clip-rule="evenodd" fill="#F87F11" stroke="#000000" stroke-width="1.25" stroke-linecap="square" stroke-miterlimit="10" d="  M398.5,470.765c12.923,3.96,24.535,0.856,26.25-12.75C410.581,454.23,398.784,455.496,398.5,470.765z"/>
<path fill-rule="evenodd" clip-rule="evenodd" fill="#F87F11" stroke="#000000" stroke-width="1.25" stroke-linecap="square" stroke-miterlimit="10" d="  M360.25,452.015c31.257,15.385,68.198,18.081,98.25-1.5C446.391,432.167,372.526,434.187,360.25,452.015z"/>
<path fill-rule="evenodd" clip-rule="evenodd" fill="#F87F11" stroke="#000000" stroke-width="1.25" stroke-linecap="square" stroke-miterlimit="10" d="  M387.25,470.015C411.769,483.389,402.973,445.226,387.25,470.015L387.25,470.015z"/>
<path fill-rule="evenodd" clip-rule="evenodd" fill="#F87F11" stroke="#000000" stroke-width="1.25" stroke-linecap="square" stroke-miterlimit="10" d="  M391.75,466.265c-9.227-5.402-19.689-5.747-28.5,0C372.567,471.223,394.525,480.301,391.75,466.265z"/>
<path fill-rule="evenodd" clip-rule="evenodd" fill="#F87F11" stroke="#000000" stroke-width="1.25" stroke-linecap="square" stroke-miterlimit="10" d="  M337,407.765C342.312,431.643,361.972,403.953,337,407.765L337,407.765z"/>
<path fill-rule="evenodd" clip-rule="evenodd" fill="#F87F11" stroke="#000000" stroke-width="1.25" stroke-linecap="square" stroke-miterlimit="10" d="  M345.25,427.265c-16.191-4.373-11.771,3.993,1.5,6.75C346.25,431.765,345.75,429.515,345.25,427.265z"/>
<path fill-rule="evenodd" clip-rule="evenodd" fill="#F87F11" stroke="#000000" stroke-width="1.25" stroke-linecap="square" stroke-miterlimit="10" d="  M337,423.515c-15.622-25.271-17.941-0.852-1.5,8.25C336.694,429.077,336.114,426.013,337,423.515z"/>
<path fill-rule="evenodd" clip-rule="evenodd" stroke="#000000" stroke-width="1.25" stroke-linecap="square" stroke-miterlimit="10" d="  M400,381.515C394.492,381.515,394.492,381.515,400,381.515L400,381.515z"/>
<path fill-rule="evenodd" clip-rule="evenodd" stroke="#000000" stroke-width="1.25" stroke-linecap="square" stroke-miterlimit="10" d="  M407.5,380.015c-4.017-5.739-5.797-10.631-12-13.5C400.178,375.271,406.5,379.611,407.5,380.015z"/>
<path fill-rule="evenodd" clip-rule="evenodd" fill="#F87F11" stroke="#000000" stroke-width="1.25" stroke-linecap="square" stroke-miterlimit="10" d="  M333.25,381.515c-5.571,6.367-10.803,6.951-9,16.5C327.557,393.662,331.093,387.318,333.25,381.515z"/>
<path fill-rule="evenodd" clip-rule="evenodd" fill="#F87F11" stroke="#000000" stroke-width="1.25" stroke-linecap="square" stroke-miterlimit="10" d="  M315.25,427.265c-8.04-2.12-10.215-10.464-7.5-21C309.092,414.098,312.652,420.021,315.25,427.265z"/>
<path fill-rule="evenodd" clip-rule="evenodd" fill="#F87F11" stroke="#000000" stroke-width="1.25" stroke-linecap="square" stroke-miterlimit="10" d="  M348.25,484.265c-5.746-3.42-9.518-1.961-12-9c-1,1.5-2,3-3,4.5C338.336,485.201,342.577,482.514,348.25,484.265z"/>
<path fill-rule="evenodd" clip-rule="evenodd" fill="#F87F11" d="M386.5,346.265C357.374,341.024,368.361,378.168,386.5,346.265  L386.5,346.265z"/>
<path fill="none" stroke="#000000" stroke-width="1.25" stroke-linecap="square" stroke-miterlimit="10" d="M386.5,346.265  C357.374,341.024,368.361,378.168,386.5,346.265L386.5,346.265z"/>
<path fill-rule="evenodd" clip-rule="evenodd" stroke="#000000" stroke-width="1.25" stroke-linecap="square" stroke-miterlimit="10" d="  M382.75,356.765c5.109-2.591,6.701-6.754,14.25-7.5c-9.827-4.736-14.425-4.986-24.75-1.5c4.008,0.161,6.34-0.083,9.75,0.75  c-3.814,3.956-4.725,7.62-7.5,12C377.042,358.515,379.917,357.65,382.75,356.765z"/>
<path fill-rule="evenodd" clip-rule="evenodd" fill="#F87F11" stroke="#000000" stroke-width="1.25" stroke-linecap="square" stroke-miterlimit="10" d="  M379,363.515c-2.083-0.041-4.72,2.626-6.75,2.25c-2.843-28.201-36.872,0.169-30.75,12C348.911,392.087,397.494,373.812,379,363.515z  "/>
<path fill-rule="evenodd" clip-rule="evenodd" stroke="#000000" stroke-width="1.25" stroke-linecap="square" stroke-miterlimit="10" d="  M398.5,353.015c-7.439,3.682-12.101,7.401-19.5,10.5c0.947,0.975,6.333,6.395,6.75,6.75  C394.888,366.124,398.014,359.251,398.5,353.015z"/>
<path fill-rule="evenodd" clip-rule="evenodd" fill="#F87F11" stroke="#000000" stroke-width="1.25" stroke-linecap="square" stroke-miterlimit="10" d="  M350.5,373.265c-13.398,3.114-29.869,35.36-8.25,37.5C360.894,412.61,355.946,381.109,350.5,373.265z"/>
<path fill-rule="evenodd" clip-rule="evenodd" fill="#F87F11" stroke="#000000" stroke-width="1.25" stroke-linecap="square" stroke-miterlimit="10" d="  M330.25,440.015c-5.441-7.96-10.809-13.09-20.25-12.75C314.896,437.318,322.43,442.744,330.25,440.015z"/>
<path fill-rule="evenodd" clip-rule="evenodd" fill="#F87F11" stroke="#000000" stroke-width="1.25" stroke-linecap="square" stroke-miterlimit="10" d="  M343.75,443.765c-7.843-3.833-11.883-8.126-18.75-0.75C334.592,450.235,339.249,449.417,343.75,443.765z"/>
<path fill-rule="evenodd" clip-rule="evenodd" fill="#F87F11" stroke="#000000" stroke-width="1.25" stroke-linecap="square" stroke-miterlimit="10" d="  M352.75,444.515c-26.366-0.938,3.351,12.896,17.25,6C365.118,443.044,360.899,444.91,352.75,444.515z"/>
<path fill-rule="evenodd" clip-rule="evenodd" fill="#F87F11" stroke="#000000" stroke-width="1.25" stroke-linecap="square" stroke-miterlimit="10" d="  M328.75,412.265c-0.014-6.329,0.369-11.521-2.25-17.25C317.495,402.626,321.562,406.546,328.75,412.265z"/>
<path fill-rule="evenodd" clip-rule="evenodd" fill="#F87F11" stroke="#000000" stroke-width="1.25" stroke-linecap="square" stroke-miterlimit="10" d="  M336.25,463.265c-2.751,6.578-5.438,10.58-3,18C341.662,474.321,345.542,467.153,336.25,463.265z"/>
<path fill-rule="evenodd" clip-rule="evenodd" fill="#F87F11" stroke="#000000" stroke-width="1.25" stroke-linecap="square" stroke-miterlimit="10" d="  M355,455.765c-9.094,0.101-15.566,0.652-21,9C345.737,466.275,355.543,461.748,355,455.765z"/>
<path fill-rule="evenodd" clip-rule="evenodd" fill="#F87F11" stroke="#000000" stroke-width="1.25" stroke-linecap="square" stroke-miterlimit="10" d="  M388,455.015c-12.295-1.675-26.849-3.646-37.5,1.5c11.309,8.943,33.262,11.138,46.5,6C394.732,460.122,390.979,457.378,388,455.015z  "/>
<path fill-rule="evenodd" clip-rule="evenodd" fill="#F87F11" stroke="#000000" stroke-width="1.25" stroke-linecap="square" stroke-miterlimit="10" d="  M429.25,491.765c7.836-2.027,13.002,1.984,20.25-4.5C445.257,497.125,437.723,498.714,429.25,491.765z"/>
<path fill-rule="evenodd" clip-rule="evenodd" fill="#F87F11" stroke="#000000" stroke-width="1.25" stroke-linecap="square" stroke-miterlimit="10" d="  M445,489.515c2.934-4.2,6.518-8.021,9.75-12C459.933,488.308,453.016,496.291,445,489.515z"/>
<path fill-rule="evenodd" clip-rule="evenodd" fill="#F87F11" stroke="#000000" stroke-width="1.25" stroke-linecap="square" stroke-miterlimit="10" d="  M452.5,479.015c2.848,1.536,4.679,2.527,5.25,6c3.936-10.711,3.479-11.419-2.25-20.25C452,469.696,452.924,473.243,452.5,479.015z"/>
<path fill-rule="evenodd" clip-rule="evenodd" fill="#F87F11" stroke="#000000" stroke-width="1.25" stroke-linecap="square" stroke-miterlimit="10" d="  M433,469.265C407.481,486.129,418.775,442.146,433,469.265L433,469.265z"/>
<path fill-rule="evenodd" clip-rule="evenodd" fill="#F87F11" stroke="#000000" stroke-width="1.25" stroke-linecap="square" stroke-miterlimit="10" d="  M428.5,466.265c9.048-5.516,19.344-5.869,28.5-0.75C448.832,470.287,425.222,479.977,428.5,466.265z"/>
<path fill-rule="evenodd" clip-rule="evenodd" fill="#F87F11" stroke="#000000" stroke-width="1.25" stroke-linecap="square" stroke-miterlimit="10" d="  M482.5,407.015C478.452,431.025,458.108,404.068,482.5,407.015L482.5,407.015z"/>
<path fill-rule="evenodd" clip-rule="evenodd" fill="#F87F11" stroke="#000000" stroke-width="1.25" stroke-linecap="square" stroke-miterlimit="10" d="  M475,426.515c15.899-4.33,11.211,3.696-1.5,6.75C474,431.015,474.5,428.765,475,426.515z"/>
<path fill-rule="evenodd" clip-rule="evenodd" fill="#F87F11" stroke="#000000" stroke-width="1.25" stroke-linecap="square" stroke-miterlimit="10" d="  M482.5,423.515c14.818-25.39,19.177-2.809,2.25,7.5C482.348,428.301,483.92,426.03,482.5,423.515z"/>
<path fill-rule="evenodd" clip-rule="evenodd" stroke="#000000" stroke-width="1.25" stroke-linecap="square" stroke-miterlimit="10" d="  M420.25,380.765c2.442,0.267,2.209,6.899,5.25,0C422.495,375.002,422.299,380.989,420.25,380.765z"/>
<path fill-rule="evenodd" clip-rule="evenodd" stroke="#000000" stroke-width="1.25" stroke-linecap="square" stroke-miterlimit="10" d="  M412.75,380.015c3.536-5.542,6.203-10.935,11.25-14.25C420.513,373.544,413.701,379.486,412.75,380.015z"/>
<path fill-rule="evenodd" clip-rule="evenodd" fill="#F87F11" stroke="#000000" stroke-width="1.25" stroke-linecap="square" stroke-miterlimit="10" d="  M486.25,380.765c5.842,6.518,12.396,7.916,8.25,16.5C492.354,391.626,488.527,386.438,486.25,380.765z"/>
<path fill-rule="evenodd" clip-rule="evenodd" fill="#F87F11" stroke="#000000" stroke-width="1.25" stroke-linecap="square" stroke-miterlimit="10" d="  M505,427.265c7.241-2.716,9.864-11.27,7.5-21.75C510.488,412.953,507.173,419.95,505,427.265z"/>
<path fill-rule="evenodd" clip-rule="evenodd" fill="#F87F11" stroke="#000000" stroke-width="1.25" stroke-linecap="square" stroke-miterlimit="10" d="  M471.25,483.515c5.411-2.788,9.789-1.487,12.75-8.25c1,1.25,2,2.5,3,3.75C481.437,485.159,477.587,482.112,471.25,483.515z"/>
<path fill-rule="evenodd" clip-rule="evenodd" fill="#F87F11" d="M433.75,345.515C463.554,341.232,450.49,376.832,433.75,345.515  L433.75,345.515z"/>
<path fill="none" stroke="#000000" stroke-width="1.25" stroke-linecap="square" stroke-miterlimit="10" d="M433.75,345.515  C463.554,341.232,450.49,376.832,433.75,345.515L433.75,345.515z"/>
<path fill-rule="evenodd" clip-rule="evenodd" stroke="#000000" stroke-width="1.25" stroke-linecap="square" stroke-miterlimit="10" d="  M437.5,356.765c-5.251-2.875-6.399-7.441-15-8.25c8.027-5.275,17.04-5.838,25.5-1.5c-3.848,0.068-6.979,0.146-10.5,0.75  c4.728,4.347,4.659,7.184,7.5,12C442.848,358.304,440.043,356.956,437.5,356.765z"/>
<path fill-rule="evenodd" clip-rule="evenodd" fill="#F87F11" stroke="#000000" stroke-width="1.25" stroke-linecap="square" stroke-miterlimit="10" d="  M440.5,362.765c1.637-0.107,4.591,2.814,7.5,2.25c0.678-21.754,26.364-9.179,29.625,7.125c4.62,23.1-37.812,0.171-43.875-1.875  C434.103,365.191,436.868,365.15,440.5,362.765z"/>
<path fill-rule="evenodd" clip-rule="evenodd" stroke="#000000" stroke-width="1.25" stroke-linecap="square" stroke-miterlimit="10" d="  M421.75,352.265c5.112,2.256,11.348,7.47,18.75,10.5c-1.457,1.683-5.319,6.104-6.75,7.5  C424.971,365.507,421.503,358.476,421.75,352.265z"/>
<path fill-rule="evenodd" clip-rule="evenodd" fill="#F87F11" stroke="#000000" stroke-width="1.25" stroke-linecap="square" stroke-miterlimit="10" d="  M469,373.265c14.77,2.231,29.043,29.183,10.125,36.75C461.371,417.117,464.225,380.542,469,373.265z"/>
<path fill-rule="evenodd" clip-rule="evenodd" fill="#F87F11" stroke="#000000" stroke-width="1.25" stroke-linecap="square" stroke-miterlimit="10" d="  M490,439.265c5.39-8.134,10.501-13.389,19.5-12C504.766,437.38,497.861,442.626,490,439.265z"/>
<path fill-rule="evenodd" clip-rule="evenodd" fill="#F87F11" stroke="#000000" stroke-width="1.25" stroke-linecap="square" stroke-miterlimit="10" d="  M476.5,443.015C503.496,429.128,487.86,457.223,476.5,443.015L476.5,443.015z"/>
<path fill-rule="evenodd" clip-rule="evenodd" fill="#F87F11" stroke="#000000" stroke-width="1.25" stroke-linecap="square" stroke-miterlimit="10" d="  M467.5,444.515c25.523-1.992-3.522,13.607-17.25,5.25C454.835,441.817,459.118,444.292,467.5,444.515z"/>
<path fill-rule="evenodd" clip-rule="evenodd" fill="#F87F11" stroke="#000000" stroke-width="1.25" stroke-linecap="square" stroke-miterlimit="10" d="  M491.5,411.515c-0.121-6.285-0.362-11.594,2.25-17.25C502.373,402.525,498.625,406.02,491.5,411.515z"/>
<path fill-rule="evenodd" clip-rule="evenodd" fill="#F87F11" stroke="#000000" stroke-width="1.25" stroke-linecap="square" stroke-miterlimit="10" d="  M483.25,462.515c3.251,6.537,6.333,10.519,3,18C478.114,473.201,474.577,465.958,483.25,462.515z"/>
<path fill-rule="evenodd" clip-rule="evenodd" fill="#F87F11" stroke="#000000" stroke-width="1.25" stroke-linecap="square" stroke-miterlimit="10" d="  M464.5,455.015c9.535-0.674,16.557,1.072,21,9.75C474.266,466.762,464.465,460.495,464.5,455.015z"/>
<path fill-rule="evenodd" clip-rule="evenodd" fill="#F87F11" stroke="#000000" stroke-width="1.25" stroke-linecap="square" stroke-miterlimit="10" d="  M432.25,455.015c12.295-2.283,24.876-3.762,36.75,0C461.336,463.586,408.175,472.21,432.25,455.015z"/>
<path fill-rule="evenodd" clip-rule="evenodd" fill="#F87F11" stroke="#000000" stroke-width="1.25" stroke-linecap="square" stroke-miterlimit="10" d="  M475,423.515c4.19-7.844,0.924-15.976-6.75-20.25c-0.47-8.301-5.321-13.138-12.75-12.75c-6.411-4.585-1.04-7.853-9.75-2.25  c-5.977-10.68-0.961-7.697-10.5-3.75c-5.306-4.157-13.674-3.217-20.248-1.5c-5.493-9.026-0.412-1.784-5.252-3  c-2.72,0.705-0.08-3.904-5.25,3c-5.495-0.411-14.146-1.542-20.25,2.25c-8.436-3.932-4.164-7.19-9.75,3.75  c-8.998-6.084-3.391-2.944-9.75,2.25c-6.528-0.886-4.786-2.471-6.75,4.5c-7.935,2.531-12.091,9.208-11.25,18  c-5.331,4.862-5.703,2.423-1.5,10.5c-4.305,7.824-3.704,5.721,2.25,12.75c-5.442,29.566,130.109,30.824,125.25-0.75  C481.342,432.333,477.795,429.292,475,423.515z"/>
<path fill-rule="evenodd" clip-rule="evenodd" fill="#F87F11" stroke="#000000" stroke-width="1.25" stroke-linecap="square" stroke-miterlimit="10" d="  M390.25,492.515c-7.582-2.034-12.617,2.164-19.5-5.25C373.515,496.698,381.573,499.388,390.25,492.515z"/>
<path fill-rule="evenodd" clip-rule="evenodd" fill="#F87F11" stroke="#000000" stroke-width="1.25" stroke-linecap="square" stroke-miterlimit="10" d="  M375.25,490.265c-3.129-4.089-6.503-8.004-9.75-12C360.047,488.619,366.458,496.387,375.25,490.265z"/>
<path fill-rule="evenodd" clip-rule="evenodd" fill="#F87F11" stroke="#000000" stroke-width="1.25" stroke-linecap="square" stroke-miterlimit="10" d="  M367,479.765c-2.647,1.545-4.209,2.739-4.5,6c-4.318-10.212-3.702-11.366,1.5-20.25C368.977,470.323,366.834,473.366,367,479.765z"/>
<path fill-rule="evenodd" clip-rule="evenodd" fill="#7F4208" d="M314.5,430.265C306.643,429.425,310.261,429.812,314.5,430.265  L314.5,430.265z"/>
<path fill-rule="evenodd" clip-rule="evenodd" fill="#7F4208" d="M316,432.515C308.143,431.675,311.761,432.062,316,432.515  L316,432.515z"/>
<path fill-rule="evenodd" clip-rule="evenodd" fill="#7F4208" d="M316.75,434.015C308.893,433.175,312.511,433.562,316.75,434.015  L316.75,434.015z"/>
<path fill-rule="evenodd" clip-rule="evenodd" fill="#7F4208" d="M318.25,436.265C310.393,435.425,314.011,435.812,318.25,436.265  L318.25,436.265z"/>
<path fill-rule="evenodd" clip-rule="evenodd" fill="#7F4208" d="M320.5,438.515C312.643,437.675,316.261,438.062,320.5,438.515  L320.5,438.515z"/>
<path fill-rule="evenodd" clip-rule="evenodd" fill="#7F4208" d="M322.75,440.015C314.893,439.175,318.511,439.562,322.75,440.015  L322.75,440.015z"/>
<path fill-rule="evenodd" clip-rule="evenodd" fill="#7F4208" d="M330.25,444.515C322.431,446.915,325.692,445.914,330.25,444.515  L330.25,444.515z"/>
<path fill-rule="evenodd" clip-rule="evenodd" fill="#7F4208" d="M331.75,445.265C325.858,447.523,325.795,447.547,331.75,445.265  L331.75,445.265z"/>
<path fill-rule="evenodd" clip-rule="evenodd" fill="#7F4208" d="M334,446.765C326.366,449.625,331.305,447.775,334,446.765  L334,446.765z"/>
<path fill-rule="evenodd" clip-rule="evenodd" fill="#7F4208" d="M337,447.515C330.448,449.779,331.01,449.584,337,447.515  L337,447.515z"/>
<path fill-rule="evenodd" clip-rule="evenodd" fill="#7F4208" d="M340,448.265C332.366,451.125,337.305,449.275,340,448.265  L340,448.265z"/>
<path fill-rule="evenodd" clip-rule="evenodd" fill="#7F4208" d="M325.75,432.515C328.623,439.843,327.631,437.312,325.75,432.515  L325.75,432.515z"/>
<path fill-rule="evenodd" clip-rule="evenodd" fill="#7F4208" d="M323.5,429.515C327.129,437.609,325.037,432.944,323.5,429.515  L323.5,429.515z"/>
<path fill-rule="evenodd" clip-rule="evenodd" fill="#7F4208" d="M322,428.015C323.924,435.212,323.129,432.238,322,428.015  L322,428.015z"/>
<path fill-rule="evenodd" clip-rule="evenodd" fill="#7F4208" d="M319.75,427.265C322.415,435.667,320.064,428.255,319.75,427.265  L319.75,427.265z"/>
<path fill-rule="evenodd" clip-rule="evenodd" fill="#7F4208" d="M317.5,425.015C319.393,432.599,318.629,429.54,317.5,425.015  L317.5,425.015z"/>
<path fill-rule="evenodd" clip-rule="evenodd" fill="#7F4208" d="M315.25,423.515C317.174,430.712,316.379,427.738,315.25,423.515  L315.25,423.515z"/>
<path fill-rule="evenodd" clip-rule="evenodd" fill="#7F4208" d="M325,440.765C319.108,443.023,319.045,443.047,325,440.765  L325,440.765z"/>
<path fill-rule="evenodd" clip-rule="evenodd" fill="#7F4208" d="M338.5,439.265C343.517,446.827,339.822,441.257,338.5,439.265  L338.5,439.265z"/>
<path fill-rule="evenodd" clip-rule="evenodd" fill="#7F4208" d="M335.5,437.015C339.311,443.648,338.239,441.783,335.5,437.015  L335.5,437.015z"/>
<path fill-rule="evenodd" clip-rule="evenodd" fill="#7F4208" d="M333.25,436.265C338.303,443.206,334.652,438.191,333.25,436.265  L333.25,436.265z"/>
<path fill-rule="evenodd" clip-rule="evenodd" fill="#7F4208" d="M331,435.515C334.811,442.148,333.739,440.283,331,435.515  L331,435.515z"/>
<path fill-rule="evenodd" clip-rule="evenodd" fill="#7F4208" d="M328,434.765C331.807,440.852,330.685,439.058,328,434.765  L328,434.765z"/>
<path fill-rule="evenodd" clip-rule="evenodd" fill="#7F4208" d="M313,419.765C312.369,424.799,312.594,423.007,313,419.765  L313,419.765z"/>
<path fill-rule="evenodd" clip-rule="evenodd" fill="#7F4208" d="M312.25,418.265C309.375,426.958,312.712,416.869,312.25,418.265  L312.25,418.265z"/>
<path fill-rule="evenodd" clip-rule="evenodd" fill="#7F4208" d="M311.5,416.015C309.709,421.81,310.532,419.146,311.5,416.015  L311.5,416.015z"/>
<path fill-rule="evenodd" clip-rule="evenodd" fill="#7F4208" d="M310.75,413.015C308.959,418.81,309.782,416.146,310.75,413.015  L310.75,413.015z"/>
<path fill-rule="evenodd" clip-rule="evenodd" fill="#7F4208" d="M309.25,410.765C308.562,416.765,309.066,412.371,309.25,410.765  L309.25,410.765z"/>
<path fill-rule="evenodd" clip-rule="evenodd" fill="#7F4208" d="M309.25,408.515C307.88,413.068,307.888,413.043,309.25,408.515  L309.25,408.515z"/>
<path fill-rule="evenodd" clip-rule="evenodd" fill="#7F4208" d="M307,422.765C310.294,425.236,310.294,425.236,307,422.765  L307,422.765z"/>
<path fill-rule="evenodd" clip-rule="evenodd" fill="#7F4208" d="M306.25,419.765C311.351,424.525,306.606,420.097,306.25,419.765  L306.25,419.765z"/>
<path fill-rule="evenodd" clip-rule="evenodd" fill="#7F4208" d="M306.25,417.515C311.345,424.37,305.841,416.964,306.25,417.515  L306.25,417.515z"/>
<path fill-rule="evenodd" clip-rule="evenodd" fill="#7F4208" d="M305.5,414.515C311.209,421.549,304.206,412.92,305.5,414.515  L305.5,414.515z"/>
<path fill-rule="evenodd" clip-rule="evenodd" fill="#7F4208" d="M307,412.265C312.095,419.119,306.591,411.714,307,412.265  L307,412.265z"/>
<path fill-rule="evenodd" clip-rule="evenodd" fill="#7F4208" d="M306.25,410.015C310.214,413.767,309.15,412.76,306.25,410.015  L306.25,410.015z"/>
<path fill-rule="evenodd" clip-rule="evenodd" fill="#7F4208" d="M344.5,449.015C336.866,451.875,341.805,450.025,344.5,449.015  L344.5,449.015z"/>
<path fill-rule="evenodd" clip-rule="evenodd" fill="#7F4208" d="M346.75,450.515C339.184,451.789,341.961,451.321,346.75,450.515  L346.75,450.515z"/>
<path fill-rule="evenodd" clip-rule="evenodd" fill="#7F4208" d="M349,451.265C341.181,453.665,344.442,452.664,349,451.265  L349,451.265z"/>
<path fill-rule="evenodd" clip-rule="evenodd" fill="#7F4208" d="M351.25,452.015C345.358,454.273,345.295,454.297,351.25,452.015  L351.25,452.015z"/>
<path fill-rule="evenodd" clip-rule="evenodd" fill="#7F4208" d="M322.75,398.015C317.003,391.881,321.192,396.353,322.75,398.015  L322.75,398.015z"/>
<path fill-rule="evenodd" clip-rule="evenodd" fill="#7F4208" d="M322.75,401.015C317.761,394.167,320.531,397.97,322.75,401.015  L322.75,401.015z"/>
<path fill-rule="evenodd" clip-rule="evenodd" fill="#7F4208" d="M322.75,402.515C316.359,396.434,321.101,400.946,322.75,402.515  L322.75,402.515z"/>
<path fill-rule="evenodd" clip-rule="evenodd" fill="#7F4208" d="M322,404.765C316.253,398.631,320.442,403.103,322,404.765  L322,404.765z"/>
<path fill-rule="evenodd" clip-rule="evenodd" fill="#7F4208" d="M322.75,408.515C317.081,401.577,320.444,405.694,322.75,408.515  L322.75,408.515z"/>
<path fill-rule="evenodd" clip-rule="evenodd" fill="#7F4208" d="M322.75,410.765C317.512,404.784,320.835,408.579,322.75,410.765  L322.75,410.765z"/>
<path fill-rule="evenodd" clip-rule="evenodd" fill="#7F4208" d="M325.75,416.765C318.553,414.841,321.527,415.636,325.75,416.765  L325.75,416.765z"/>
<path fill-rule="evenodd" clip-rule="evenodd" fill="#7F4208" d="M326.5,420.515C319.609,417.614,321.983,418.614,326.5,420.515  L326.5,420.515z"/>
<path fill-rule="evenodd" clip-rule="evenodd" fill="#7F4208" d="M327.25,422.765C319.666,420.872,322.726,421.636,327.25,422.765  L327.25,422.765z"/>
<path fill-rule="evenodd" clip-rule="evenodd" fill="#7F4208" d="M329.5,425.765C321.295,426.641,325.275,426.216,329.5,425.765  L329.5,425.765z"/>
<path fill-rule="evenodd" clip-rule="evenodd" fill="#7F4208" d="M332.5,428.015C324.702,429.49,328.99,428.678,332.5,428.015  L332.5,428.015z"/>
<path fill-rule="evenodd" clip-rule="evenodd" fill="#7F4208" d="M331,404.015C327.425,411.553,329.062,408.1,331,404.015  L331,404.015z"/>
<path fill-rule="evenodd" clip-rule="evenodd" fill="#7F4208" d="M331,401.765C326.826,409.461,329.563,404.415,331,401.765  L331,401.765z"/>
<path fill-rule="evenodd" clip-rule="evenodd" fill="#7F4208" d="M329.5,399.515C326.386,406.656,328.553,401.686,329.5,399.515  L329.5,399.515z"/>
<path fill-rule="evenodd" clip-rule="evenodd" fill="#7F4208" d="M328.75,396.515C325.89,404.149,327.74,399.21,328.75,396.515  L328.75,396.515z"/>
<path fill-rule="evenodd" clip-rule="evenodd" fill="#7F4208" d="M328.75,393.515C325.175,401.053,326.812,397.6,328.75,393.515  L328.75,393.515z"/>
<path fill-rule="evenodd" clip-rule="evenodd" fill="#7F4208" d="M337,419.765C334.267,427.723,335.853,423.107,337,419.765  L337,419.765z"/>
<path fill-rule="evenodd" clip-rule="evenodd" fill="#7F4208" d="M335.5,417.515C334.026,425.314,334.836,421.025,335.5,417.515  L335.5,417.515z"/>
<path fill-rule="evenodd" clip-rule="evenodd" fill="#7F4208" d="M334.75,416.015C332.017,423.973,333.603,419.357,334.75,416.015  L334.75,416.015z"/>
<path fill-rule="evenodd" clip-rule="evenodd" fill="#7F4208" d="M333.25,413.765C330.851,421.584,331.852,418.323,333.25,413.765  L333.25,413.765z"/>
<path fill-rule="evenodd" clip-rule="evenodd" fill="#7F4208" d="M332.5,410.765C330.101,418.584,331.102,415.323,332.5,410.765  L332.5,410.765z"/>
<path fill-rule="evenodd" clip-rule="evenodd" fill="#7F4208" d="M329.5,393.515C324.241,396.435,326.167,395.366,329.5,393.515  L329.5,393.515z"/>
<path fill-rule="evenodd" clip-rule="evenodd" fill="#7F4208" d="M330.25,392.015C325.722,393.377,325.697,393.385,330.25,392.015  L330.25,392.015z"/>
<path fill-rule="evenodd" clip-rule="evenodd" fill="#7F4208" d="M331,389.765C328.208,390.815,325.604,391.794,331,389.765  L331,389.765z"/>
<path fill-rule="evenodd" clip-rule="evenodd" fill="#7F4208" d="M332.5,386.765C326.615,390.704,330.857,387.865,332.5,386.765  L332.5,386.765z"/>
<path fill-rule="evenodd" clip-rule="evenodd" fill="#7F4208" d="M334,385.265C329.472,386.627,329.447,386.635,334,385.265  L334,385.265z"/>
<path fill-rule="evenodd" clip-rule="evenodd" fill="#7F4208" d="M335.5,383.015C330.543,385.413,332.81,384.316,335.5,383.015  L335.5,383.015z"/>
<path fill-rule="evenodd" clip-rule="evenodd" fill="#7F4208" d="M323.5,390.515C322.571,396.434,323.087,393.147,323.5,390.515  L323.5,390.515z"/>
<path fill-rule="evenodd" clip-rule="evenodd" fill="#7F4208" d="M325,388.265C324.071,394.184,324.587,390.897,325,388.265  L325,388.265z"/>
<path fill-rule="evenodd" clip-rule="evenodd" fill="#7F4208" d="M326.5,386.765C325.281,393.79,326.438,387.123,326.5,386.765  L326.5,386.765z"/>
<path fill-rule="evenodd" clip-rule="evenodd" fill="#7F4208" d="M328,383.765C328,387.883,328,387.883,328,383.765L328,383.765z"/>
<path fill-rule="evenodd" clip-rule="evenodd" fill="#7F4208" d="M329.5,382.265C329.5,386.383,329.5,386.383,329.5,382.265  L329.5,382.265z"/>
<path fill-rule="evenodd" clip-rule="evenodd" fill="#7F4208" d="M331,380.765C330.513,386.427,330.833,382.704,331,380.765  L331,380.765z"/>
<path fill-rule="evenodd" clip-rule="evenodd" fill="#7F4208" d="M333.25,478.265C327.836,481.428,327.853,481.418,333.25,478.265  L333.25,478.265z"/>
<path fill-rule="evenodd" clip-rule="evenodd" fill="#7F4208" d="M333.25,475.265C326.685,481.284,330.899,477.419,333.25,475.265  L333.25,475.265z"/>
<path fill-rule="evenodd" clip-rule="evenodd" fill="#7F4208" d="M333.25,473.765C325.935,478.675,331.515,474.93,333.25,473.765  L333.25,473.765z"/>
<path fill-rule="evenodd" clip-rule="evenodd" fill="#7F4208" d="M333.25,470.765C326.685,476.784,330.899,472.919,333.25,470.765  L333.25,470.765z"/>
<path fill-rule="evenodd" clip-rule="evenodd" fill="#7F4208" d="M334,467.765C327.435,473.784,331.649,469.919,334,467.765  L334,467.765z"/>
<path fill-rule="evenodd" clip-rule="evenodd" fill="#7F4208" d="M334.75,465.515C327.81,470.568,332.824,466.917,334.75,465.515  L334.75,465.515z"/>
<path fill-rule="evenodd" clip-rule="evenodd" fill="#7F4208" d="M343,470.765C339.425,463.227,341.062,466.681,343,470.765  L343,470.765z"/>
<path fill-rule="evenodd" clip-rule="evenodd" fill="#7F4208" d="M343,473.015C338.826,465.32,341.563,470.366,343,473.015  L343,473.015z"/>
<path fill-rule="evenodd" clip-rule="evenodd" fill="#7F4208" d="M341.5,475.265C339.034,468.271,340.216,471.625,341.5,475.265  L341.5,475.265z"/>
<path fill-rule="evenodd" clip-rule="evenodd" fill="#7F4208" d="M341.5,478.265C337.326,470.57,340.063,475.616,341.5,478.265  L341.5,478.265z"/>
<path fill-rule="evenodd" clip-rule="evenodd" fill="#7F4208" d="M340.75,481.265C337.175,473.727,338.812,477.181,340.75,481.265  L340.75,481.265z"/>
<path fill-rule="evenodd" clip-rule="evenodd" fill="#7F4208" d="M339.25,460.265C329.718,460.466,337.375,460.305,339.25,460.265  L339.25,460.265z"/>
<path fill-rule="evenodd" clip-rule="evenodd" fill="#7F4208" d="M340.75,459.515C332.411,458.019,336.997,458.842,340.75,459.515  L340.75,459.515z"/>
<path fill-rule="evenodd" clip-rule="evenodd" fill="#7F4208" d="M343,457.265C334.88,456.972,339.028,457.122,343,457.265  L343,457.265z"/>
<path fill-rule="evenodd" clip-rule="evenodd" fill="#7F4208" d="M345.25,455.765C337.954,455.544,340.211,455.613,345.25,455.765  L345.25,455.765z"/>
<path fill-rule="evenodd" clip-rule="evenodd" fill="#7F4208" d="M348.25,454.265C340.13,453.972,344.278,454.122,348.25,454.265  L348.25,454.265z"/>
<path fill-rule="evenodd" clip-rule="evenodd" fill="#7F4208" d="M349,464.015C350.893,456.431,350.129,459.491,349,464.015  L349,464.015z"/>
<path fill-rule="evenodd" clip-rule="evenodd" fill="#7F4208" d="M346,466.265C350.483,457.556,346.702,464.901,346,466.265  L346,466.265z"/>
<path fill-rule="evenodd" clip-rule="evenodd" fill="#7F4208" d="M344.5,468.515C347.373,461.187,346.381,463.718,344.5,468.515  L344.5,468.515z"/>
<path fill-rule="evenodd" clip-rule="evenodd" fill="#7F4208" d="M340,479.015C332.149,480.87,339.477,479.139,340,479.015  L340,479.015z"/>
<path fill-rule="evenodd" clip-rule="evenodd" fill="#7F4208" d="M342.25,480.515C335.958,480.789,339.998,480.613,342.25,480.515  L342.25,480.515z"/>
<path fill-rule="evenodd" clip-rule="evenodd" fill="#7F4208" d="M345.25,481.265C340.216,481.896,342.008,481.671,345.25,481.265  L345.25,481.265z"/>
<path fill-rule="evenodd" clip-rule="evenodd" fill="#7F4208" d="M346.75,482.015C338.057,484.89,348.146,481.553,346.75,482.015  L346.75,482.015z"/>
<path fill-rule="evenodd" clip-rule="evenodd" fill="#7F4208" d="M349,482.765C340.671,484.054,350.421,482.545,349,482.765  L349,482.765z"/>
<path fill-rule="evenodd" clip-rule="evenodd" fill="#7F4208" d="M338.5,485.015C333.517,480.898,337.028,483.798,338.5,485.015  L338.5,485.015z"/>
<path fill-rule="evenodd" clip-rule="evenodd" fill="#7F4208" d="M340.75,485.015C334.316,480.76,340.364,484.76,340.75,485.015  L340.75,485.015z"/>
<path fill-rule="evenodd" clip-rule="evenodd" fill="#7F4208" d="M343,486.515C339.517,481.119,341.473,484.148,343,486.515  L343,486.515z"/>
<path fill-rule="evenodd" clip-rule="evenodd" fill="#7F4208" d="M345.25,486.515C339.602,479.802,345.982,487.385,345.25,486.515  L345.25,486.515z"/>
<path fill-rule="evenodd" clip-rule="evenodd" fill="#7F4208" d="M347.5,486.515C341.066,482.26,347.114,486.26,347.5,486.515  L347.5,486.515z"/>
<path fill-rule="evenodd" clip-rule="evenodd" fill="#7F4208" d="M379.75,491.015C371.215,494.098,381.039,490.549,379.75,491.015  L379.75,491.015z"/>
<path fill-rule="evenodd" clip-rule="evenodd" fill="#7F4208" d="M382.75,491.765C375.421,494.181,381.505,492.175,382.75,491.765  L382.75,491.765z"/>
<path fill-rule="evenodd" clip-rule="evenodd" fill="#7F4208" d="M385,492.515C379.406,495.023,382.438,493.664,385,492.515  L385,492.515z"/>
<path fill-rule="evenodd" clip-rule="evenodd" fill="#7F4208" d="M387.25,491.765C380.342,495.754,387.529,491.604,387.25,491.765  L387.25,491.765z"/>
<path fill-rule="evenodd" clip-rule="evenodd" fill="#7F4208" d="M390.25,491.765C383.342,495.754,390.529,491.604,390.25,491.765  L390.25,491.765z"/>
<path fill-rule="evenodd" clip-rule="evenodd" fill="#7F4208" d="M377.5,496.265C371.647,493.024,376.548,495.738,377.5,496.265  L377.5,496.265z"/>
<path fill-rule="evenodd" clip-rule="evenodd" fill="#7F4208" d="M382,497.765C374.671,495.349,380.755,497.355,382,497.765  L382,497.765z"/>
<path fill-rule="evenodd" clip-rule="evenodd" fill="#7F4208" d="M385,497.765C379.406,495.257,382.438,496.617,385,497.765  L385,497.765z"/>
<path fill-rule="evenodd" clip-rule="evenodd" fill="#7F4208" d="M387.25,497.765C382.754,494.947,383.525,495.43,387.25,497.765  L387.25,497.765z"/>
<path fill-rule="evenodd" clip-rule="evenodd" fill="#7F4208" d="M388.75,497.015C382.897,493.774,387.798,496.488,388.75,497.015  L388.75,497.015z"/>
<path fill-rule="evenodd" clip-rule="evenodd" fill="#7F4208" d="M370.75,492.515C370.457,500.635,370.606,496.487,370.75,492.515  L370.75,492.515z"/>
<path fill-rule="evenodd" clip-rule="evenodd" fill="#7F4208" d="M368.5,490.265C369.34,498.123,368.953,494.504,368.5,490.265  L368.5,490.265z"/>
<path fill-rule="evenodd" clip-rule="evenodd" fill="#7F4208" d="M367,489.515C367.84,497.373,367.453,493.754,367,489.515  L367,489.515z"/>
<path fill-rule="evenodd" clip-rule="evenodd" fill="#7F4208" d="M365.5,488.015C365.207,496.135,365.356,491.987,365.5,488.015  L365.5,488.015z"/>
<path fill-rule="evenodd" clip-rule="evenodd" fill="#7F4208" d="M363.25,486.515C362.957,494.635,363.106,490.487,363.25,486.515  L363.25,486.515z"/>
<path fill-rule="evenodd" clip-rule="evenodd" fill="#7F4208" d="M361,470.765C352.88,470.472,357.028,470.622,361,470.765  L361,470.765z"/>
<path fill-rule="evenodd" clip-rule="evenodd" fill="#7F4208" d="M361.75,468.515C354.035,468.302,356.104,468.359,361.75,468.515  L361.75,468.515z"/>
<path fill-rule="evenodd" clip-rule="evenodd" fill="#7F4208" d="M364,467.015C355.88,466.722,360.028,466.872,364,467.015  L364,467.015z"/>
<path fill-rule="evenodd" clip-rule="evenodd" fill="#7F4208" d="M361,480.515C357.425,488.053,359.062,484.599,361,480.515  L361,480.515z"/>
<path fill-rule="evenodd" clip-rule="evenodd" fill="#7F4208" d="M360.25,478.265C356.675,485.803,358.312,482.349,360.25,478.265  L360.25,478.265z"/>
<path fill-rule="evenodd" clip-rule="evenodd" fill="#7F4208" d="M359.5,476.765C356.347,482.163,356.337,482.179,359.5,476.765  L359.5,476.765z"/>
<path fill-rule="evenodd" clip-rule="evenodd" fill="#7F4208" d="M360.25,473.765C354.34,478.439,355.757,477.318,360.25,473.765  L360.25,473.765z"/>
<path fill-rule="evenodd" clip-rule="evenodd" fill="#7F4208" d="M360.25,472.265C353.935,475.168,356.208,474.124,360.25,472.265  L360.25,472.265z"/>
<path fill-rule="evenodd" clip-rule="evenodd" fill="#7F4208" d="M376,470.015C368.181,472.415,371.442,471.414,376,470.015  L376,470.015z"/>
<path fill-rule="evenodd" clip-rule="evenodd" fill="#7F4208" d="M379,470.015C371.642,474.988,375.679,472.26,379,470.015  L379,470.015z"/>
<path fill-rule="evenodd" clip-rule="evenodd" fill="#7F4208" d="M381.25,470.765C374.402,475.754,378.205,472.984,381.25,470.765  L381.25,470.765z"/>
<path fill-rule="evenodd" clip-rule="evenodd" fill="#7F4208" d="M383.5,471.515C377.366,477.262,381.838,473.073,383.5,471.515  L383.5,471.515z"/>
<path fill-rule="evenodd" clip-rule="evenodd" fill="#7F4208" d="M387.25,471.515C383.443,477.602,384.565,475.808,387.25,471.515  L387.25,471.515z"/>
<path fill-rule="evenodd" clip-rule="evenodd" fill="#7F4208" d="M390.25,472.265C386.443,478.352,387.565,476.558,390.25,472.265  L390.25,472.265z"/>
<path fill-rule="evenodd" clip-rule="evenodd" fill="#7F4208" d="M330.25,421.265C328.603,421.265,328.603,421.265,330.25,421.265  L330.25,421.265z"/>
<path fill-rule="evenodd" clip-rule="evenodd" fill="#7F4208" d="M334.75,425.015C332.892,424.566,333.307,424.667,334.75,425.015  L334.75,425.015z"/>
<path fill-rule="evenodd" clip-rule="evenodd" fill="#7F4208" d="M325.75,404.765C324.75,404.765,324.75,404.765,325.75,404.765  L325.75,404.765z"/>
<path fill-rule="evenodd" clip-rule="evenodd" fill="#7F4208" d="M311.5,424.265C310.896,423.662,310.896,423.662,311.5,424.265  L311.5,424.265z"/>
<path fill-rule="evenodd" clip-rule="evenodd" fill="#7F4208" d="M316,429.515C315.396,428.912,315.396,428.912,316,429.515  L316,429.515z"/>
<path fill-rule="evenodd" clip-rule="evenodd" fill="#7F4208" d="M321.25,434.015C320.646,433.412,320.646,433.412,321.25,434.015  L321.25,434.015z"/>
<path fill-rule="evenodd" clip-rule="evenodd" fill="#7F4208" d="M330.25,442.265C330.25,441.265,330.25,441.265,330.25,442.265  L330.25,442.265z"/>
<path fill-rule="evenodd" clip-rule="evenodd" fill="#7F4208" d="M325,437.765C324.463,437.765,324.463,437.765,325,437.765  L325,437.765z"/>
<path fill-rule="evenodd" clip-rule="evenodd" fill="#7F4208" d="M334,440.765C333.396,441.369,333.396,441.369,334,440.765  L334,440.765z"/>
<path fill-rule="evenodd" clip-rule="evenodd" fill="#7F4208" d="M337,444.515C335.353,444.515,335.353,444.515,337,444.515  L337,444.515z"/>
<path fill-rule="evenodd" clip-rule="evenodd" fill="#7F4208" d="M345.25,446.765C344.25,446.765,344.25,446.765,345.25,446.765  L345.25,446.765z"/>
<path fill-rule="evenodd" clip-rule="evenodd" fill="#7F4208" d="M351.25,447.515C350.13,447.515,350.13,447.515,351.25,447.515  L351.25,447.515z"/>
<path fill-rule="evenodd" clip-rule="evenodd" fill="#7F4208" d="M343.75,461.765C343.146,461.162,343.146,461.162,343.75,461.765  L343.75,461.765z"/>
<path fill-rule="evenodd" clip-rule="evenodd" fill="#7F4208" d="M337.75,467.765C337.213,467.765,337.213,467.765,337.75,467.765  L337.75,467.765z"/>
<path fill-rule="evenodd" clip-rule="evenodd" fill="#7F4208" d="M337,472.265C336.358,471.919,335.356,471.378,337,472.265  L337,472.265z"/>
<path fill-rule="evenodd" clip-rule="evenodd" fill="#7F4208" d="M340.75,463.265C340.213,463.265,340.213,463.265,340.75,463.265  L340.75,463.265z"/>
<path fill-rule="evenodd" clip-rule="evenodd" fill="#7F4208" d="M361.75,457.265C360.05,457.265,360.05,457.265,361.75,457.265  L361.75,457.265z"/>
<path fill-rule="evenodd" clip-rule="evenodd" fill="#7F4208" d="M368.5,457.265C367.057,457.614,366.642,457.714,368.5,457.265  L368.5,457.265z"/>
<path fill-rule="evenodd" clip-rule="evenodd" fill="#7F4208" d="M373,461.015C372.396,461.619,372.396,461.619,373,461.015  L373,461.015z"/>
<path fill-rule="evenodd" clip-rule="evenodd" fill="#7F4208" d="M379,458.765C378.463,458.765,378.463,458.765,379,458.765  L379,458.765z"/>
<path fill-rule="evenodd" clip-rule="evenodd" fill="#7F4208" d="M374.5,467.015C373.896,466.412,373.896,466.412,374.5,467.015  L374.5,467.015z"/>
<path fill-rule="evenodd" clip-rule="evenodd" fill="#7F4208" d="M364.75,473.015C364.108,472.669,363.106,472.128,364.75,473.015  L364.75,473.015z"/>
<path fill-rule="evenodd" clip-rule="evenodd" fill="#7F4208" d="M364,476.765C363,476.765,363,476.765,364,476.765L364,476.765z"/>
<path fill-rule="evenodd" clip-rule="evenodd" fill="#7F4208" d="M367.75,484.265C367.75,485.265,367.75,485.265,367.75,484.265  L367.75,484.265z"/>
<path fill-rule="evenodd" clip-rule="evenodd" fill="#7F4208" d="M370,488.015C369.396,487.412,369.396,487.412,370,488.015  L370,488.015z"/>
<path fill-rule="evenodd" clip-rule="evenodd" fill="#7F4208" d="M365.5,483.515C364.896,482.912,364.896,482.912,365.5,483.515  L365.5,483.515z"/>
<path fill-rule="evenodd" clip-rule="evenodd" fill="#7F4208" d="M386.5,467.765C384.552,468.027,384.98,467.969,386.5,467.765  L386.5,467.765z"/>
<path fill-rule="evenodd" clip-rule="evenodd" fill="#7F4208" d="M396.25,467.015C394.603,467.015,394.603,467.015,396.25,467.015  L396.25,467.015z"/>
<path fill-rule="evenodd" clip-rule="evenodd" fill="#7F4208" d="M387.25,461.015C385.5,460.593,385.168,460.512,387.25,461.015  L387.25,461.015z"/>
<path fill-rule="evenodd" clip-rule="evenodd" fill="#7F4208" d="M443.5,487.265C451.62,487.558,447.472,487.409,443.5,487.265  L443.5,487.265z"/>
<path fill-rule="evenodd" clip-rule="evenodd" fill="#7F4208" d="M447.25,482.765C455.37,483.058,451.222,482.909,447.25,482.765  L447.25,482.765z"/>
<path fill-rule="evenodd" clip-rule="evenodd" fill="#7F4208" d="M445.75,485.015C453.87,485.308,449.722,485.159,445.75,485.015  L445.75,485.015z"/>
<path fill-rule="evenodd" clip-rule="evenodd" fill="#7F4208" d="M451,473.015C456.91,468.341,455.492,469.462,451,473.015  L451,473.015z"/>
<path fill-rule="evenodd" clip-rule="evenodd" fill="#7F4208" d="M451,475.265C456.462,471.285,454.914,472.413,451,475.265  L451,475.265z"/>
<path fill-rule="evenodd" clip-rule="evenodd" fill="#7F4208" d="M450.25,478.265C455.712,474.285,454.164,475.413,450.25,478.265  L450.25,478.265z"/>
<path fill-rule="evenodd" clip-rule="evenodd" fill="#7F4208" d="M505.75,430.265c2.83-0.675,4.516,1.553,5.25-1.5  C508.216,428.026,506.104,430.18,505.75,430.265z"/>
<path fill-rule="evenodd" clip-rule="evenodd" fill="#7F4208" d="M504.25,431.765C512.107,430.925,508.489,431.312,504.25,431.765  L504.25,431.765z"/>
<path fill-rule="evenodd" clip-rule="evenodd" fill="#7F4208" d="M502.75,433.265C510.607,432.425,506.989,432.812,502.75,433.265  L502.75,433.265z"/>
<path fill-rule="evenodd" clip-rule="evenodd" fill="#7F4208" d="M502,435.515C509.857,434.675,506.239,435.062,502,435.515  L502,435.515z"/>
<path fill-rule="evenodd" clip-rule="evenodd" fill="#7F4208" d="M499.75,437.765C507.607,436.925,503.989,437.312,499.75,437.765  L499.75,437.765z"/>
<path fill-rule="evenodd" clip-rule="evenodd" fill="#7F4208" d="M497.5,440.015c2.83-0.675,4.516,1.553,5.25-1.5  C499.966,437.776,497.854,439.93,497.5,440.015z"/>
<path fill-rule="evenodd" clip-rule="evenodd" fill="#7F4208" d="M490,443.765C497.958,446.499,493.342,444.913,490,443.765  L490,443.765z"/>
<path fill-rule="evenodd" clip-rule="evenodd" fill="#7F4208" d="M487.75,445.265C495.569,447.665,492.308,446.664,487.75,445.265  L487.75,445.265z"/>
<path fill-rule="evenodd" clip-rule="evenodd" fill="#7F4208" d="M485.5,446.015C493.319,448.415,490.058,447.414,485.5,446.015  L485.5,446.015z"/>
<path fill-rule="evenodd" clip-rule="evenodd" fill="#7F4208" d="M483.25,447.515C491.208,450.249,486.592,448.663,483.25,447.515  L483.25,447.515z"/>
<path fill-rule="evenodd" clip-rule="evenodd" fill="#7F4208" d="M479.5,448.265C487.066,449.539,484.288,449.071,479.5,448.265  L479.5,448.265z"/>
<path fill-rule="evenodd" clip-rule="evenodd" fill="#7F4208" d="M493.75,431.765C491.856,439.349,492.621,436.29,493.75,431.765  L493.75,431.765z"/>
<path fill-rule="evenodd" clip-rule="evenodd" fill="#7F4208" d="M496,429.515C494.076,436.712,494.871,433.738,496,429.515  L496,429.515z"/>
<path fill-rule="evenodd" clip-rule="evenodd" fill="#7F4208" d="M497.5,427.265C495.606,434.849,496.371,431.79,497.5,427.265  L497.5,427.265z"/>
<path fill-rule="evenodd" clip-rule="evenodd" fill="#7F4208" d="M499.75,426.515C497.856,434.099,498.621,431.04,499.75,426.515  L499.75,426.515z"/>
<path fill-rule="evenodd" clip-rule="evenodd" fill="#7F4208" d="M502.75,424.265C500.856,431.849,501.621,428.79,502.75,424.265  L502.75,424.265z"/>
<path fill-rule="evenodd" clip-rule="evenodd" fill="#7F4208" d="M505,422.765C503.106,430.349,503.871,427.29,505,422.765  L505,422.765z"/>
<path fill-rule="evenodd" clip-rule="evenodd" fill="#7F4208" d="M494.5,440.765C502.319,443.165,499.058,442.164,494.5,440.765  L494.5,440.765z"/>
<path fill-rule="evenodd" clip-rule="evenodd" fill="#7F4208" d="M481,438.515C477.837,443.929,477.847,443.913,481,438.515  L481,438.515z"/>
<path fill-rule="evenodd" clip-rule="evenodd" fill="#7F4208" d="M484,437.015C478.983,444.577,482.679,439.007,484,437.015  L484,437.015z"/>
<path fill-rule="evenodd" clip-rule="evenodd" fill="#7F4208" d="M486.25,435.515C481.233,443.077,484.929,437.507,486.25,435.515  L486.25,435.515z"/>
<path fill-rule="evenodd" clip-rule="evenodd" fill="#7F4208" d="M489.25,435.515C483.226,442.728,487.227,437.938,489.25,435.515  L489.25,435.515z"/>
<path fill-rule="evenodd" clip-rule="evenodd" fill="#7F4208" d="M491.5,434.015C487.689,440.648,488.761,438.783,491.5,434.015  L491.5,434.015z"/>
<path fill-rule="evenodd" clip-rule="evenodd" fill="#7F4208" d="M506.5,419.765C508.528,425.162,507.55,422.558,506.5,419.765  L506.5,419.765z"/>
<path fill-rule="evenodd" clip-rule="evenodd" fill="#7F4208" d="M508,417.515C508.688,423.515,508.185,419.121,508,417.515  L508,417.515z"/>
<path fill-rule="evenodd" clip-rule="evenodd" fill="#7F4208" d="M508.75,415.265C510.363,421.857,509.229,417.222,508.75,415.265  L508.75,415.265z"/>
<path fill-rule="evenodd" clip-rule="evenodd" fill="#7F4208" d="M509.5,412.265C510.963,417.692,510.492,415.944,509.5,412.265  L509.5,412.265z"/>
<path fill-rule="evenodd" clip-rule="evenodd" fill="#7F4208" d="M510.25,410.765C512.278,416.161,511.3,413.558,510.25,410.765  L510.25,410.765z"/>
<path fill-rule="evenodd" clip-rule="evenodd" fill="#7F4208" d="M511,408.515C513.875,417.208,510.538,407.119,511,408.515  L511,408.515z"/>
<path fill-rule="evenodd" clip-rule="evenodd" fill="#7F4208" d="M512.5,422.015C508.245,428.449,512.245,422.401,512.5,422.015  L512.5,422.015z"/>
<path fill-rule="evenodd" clip-rule="evenodd" fill="#7F4208" d="M514,419.015C510.814,422.196,510.554,422.456,514,419.015  L514,419.015z"/>
<path fill-rule="evenodd" clip-rule="evenodd" fill="#7F4208" d="M514,416.765C509.745,423.199,513.745,417.151,514,416.765  L514,416.765z"/>
<path fill-rule="evenodd" clip-rule="evenodd" fill="#7F4208" d="M514.75,413.765C511.564,416.946,511.304,417.206,514.75,413.765  L514.75,413.765z"/>
<path fill-rule="evenodd" clip-rule="evenodd" fill="#7F4208" d="M514.75,411.515C510.495,417.949,514.495,411.901,514.75,411.515  L514.75,411.515z"/>
<path fill-rule="evenodd" clip-rule="evenodd" fill="#7F4208" d="M515.5,410.015C512.206,412.486,512.206,412.486,515.5,410.015  L515.5,410.015z"/>
<path fill-rule="evenodd" clip-rule="evenodd" fill="#7F4208" d="M475,448.265C481.553,450.529,480.989,450.334,475,448.265  L475,448.265z"/>
<path fill-rule="evenodd" clip-rule="evenodd" fill="#7F4208" d="M473.5,449.765C481.458,452.499,476.842,450.913,473.5,449.765  L473.5,449.765z"/>
<path fill-rule="evenodd" clip-rule="evenodd" fill="#7F4208" d="M471.25,450.515C479.208,453.249,474.592,451.663,471.25,450.515  L471.25,450.515z"/>
<path fill-rule="evenodd" clip-rule="evenodd" fill="#7F4208" d="M469,452.015C476.634,454.875,471.695,453.025,469,452.015  L469,452.015z"/>
<path fill-rule="evenodd" clip-rule="evenodd" fill="#7F4208" d="M496.75,398.015C501.521,392.532,500.649,393.533,496.75,398.015  L496.75,398.015z"/>
<path fill-rule="evenodd" clip-rule="evenodd" fill="#7F4208" d="M496.75,400.265C502.101,395.181,500.972,396.253,496.75,400.265  L496.75,400.265z"/>
<path fill-rule="evenodd" clip-rule="evenodd" fill="#7F4208" d="M497.5,402.515C502.489,395.667,499.719,399.47,497.5,402.515  L497.5,402.515z"/>
<path fill-rule="evenodd" clip-rule="evenodd" fill="#7F4208" d="M497.5,404.765C502.766,399.271,501.866,400.21,497.5,404.765  L497.5,404.765z"/>
<path fill-rule="evenodd" clip-rule="evenodd" fill="#7F4208" d="M497.5,407.765C502.721,401.244,499.443,405.337,497.5,407.765  L497.5,407.765z"/>
<path fill-rule="evenodd" clip-rule="evenodd" fill="#7F4208" d="M496.75,410.765C502.016,405.271,501.116,406.21,496.75,410.765  L496.75,410.765z"/>
<path fill-rule="evenodd" clip-rule="evenodd" fill="#7F4208" d="M494.5,416.765C502.464,412.856,496.005,416.026,494.5,416.765  L494.5,416.765z"/>
<path fill-rule="evenodd" clip-rule="evenodd" fill="#7F4208" d="M493,419.765C500.584,417.872,497.524,418.636,493,419.765  L493,419.765z"/>
<path fill-rule="evenodd" clip-rule="evenodd" fill="#7F4208" d="M492.25,422.015C499.876,420.64,497.046,421.15,492.25,422.015  L492.25,422.015z"/>
<path fill-rule="evenodd" clip-rule="evenodd" fill="#7F4208" d="M490.75,425.765C498.326,426.031,494.5,425.897,490.75,425.765  L490.75,425.765z"/>
<path fill-rule="evenodd" clip-rule="evenodd" fill="#7F4208" d="M487,427.265C494.566,428.539,491.788,428.071,487,427.265  L487,427.265z"/>
<path fill-rule="evenodd" clip-rule="evenodd" fill="#7F4208" d="M489.25,403.265C492.825,410.803,491.188,407.35,489.25,403.265  L489.25,403.265z"/>
<path fill-rule="evenodd" clip-rule="evenodd" fill="#7F4208" d="M489.25,401.015C492.959,408.232,491.02,404.458,489.25,401.015  L489.25,401.015z"/>
<path fill-rule="evenodd" clip-rule="evenodd" fill="#7F4208" d="M490,398.765C493.211,404.967,492.9,404.367,490,398.765  L490,398.765z"/>
<path fill-rule="evenodd" clip-rule="evenodd" fill="#7F4208" d="M490.75,395.765C494.325,403.303,492.688,399.85,490.75,395.765  L490.75,395.765z"/>
<path fill-rule="evenodd" clip-rule="evenodd" fill="#7F4208" d="M491.5,393.515C495.679,400.648,492.908,395.918,491.5,393.515  L491.5,393.515z"/>
<path fill-rule="evenodd" clip-rule="evenodd" fill="#7F4208" d="M483.25,419.015C485.649,426.834,484.648,423.573,483.25,419.015  L483.25,419.015z"/>
<path fill-rule="evenodd" clip-rule="evenodd" fill="#7F4208" d="M484,416.765C486.733,424.723,485.147,420.107,484,416.765  L484,416.765z"/>
<path fill-rule="evenodd" clip-rule="evenodd" fill="#7F4208" d="M485.5,415.265C486.996,423.605,486.173,419.018,485.5,415.265  L485.5,415.265z"/>
<path fill-rule="evenodd" clip-rule="evenodd" fill="#7F4208" d="M487,413.765C488.546,421.237,487.589,416.613,487,413.765  L487,413.765z"/>
<path fill-rule="evenodd" clip-rule="evenodd" fill="#7F4208" d="M487.75,410.765C490.483,418.724,488.897,414.107,487.75,410.765  L487.75,410.765z"/>
<path fill-rule="evenodd" clip-rule="evenodd" fill="#7F4208" d="M490.75,393.515C493.543,394.565,496.146,395.544,490.75,393.515  L490.75,393.515z"/>
<path fill-rule="evenodd" clip-rule="evenodd" fill="#7F4208" d="M490,391.265C496.34,393.943,491.112,391.735,490,391.265  L490,391.265z"/>
<path fill-rule="evenodd" clip-rule="evenodd" fill="#7F4208" d="M489.25,389.015C495.879,394.424,488.896,388.727,489.25,389.015  L489.25,389.015z"/>
<path fill-rule="evenodd" clip-rule="evenodd" fill="#7F4208" d="M487,386.765C491.527,388.127,491.554,388.135,487,386.765  L487,386.765z"/>
<path fill-rule="evenodd" clip-rule="evenodd" fill="#7F4208" d="M486.25,384.515C490.792,386.634,489.966,386.249,486.25,384.515  L486.25,384.515z"/>
<path fill-rule="evenodd" clip-rule="evenodd" fill="#7F4208" d="M484.75,383.015C487.881,383.983,490.545,384.806,484.75,383.015  L484.75,383.015z"/>
<path fill-rule="evenodd" clip-rule="evenodd" fill="#7F4208" d="M496.75,390.515C496.75,394.633,496.75,394.633,496.75,390.515  L496.75,390.515z"/>
<path fill-rule="evenodd" clip-rule="evenodd" fill="#7F4208" d="M495.25,387.515C496.18,393.434,495.663,390.147,495.25,387.515  L495.25,387.515z"/>
<path fill-rule="evenodd" clip-rule="evenodd" fill="#7F4208" d="M493.75,386.015C494.205,390.554,494.206,390.566,493.75,386.015  L493.75,386.015z"/>
<path fill-rule="evenodd" clip-rule="evenodd" fill="#7F4208" d="M491.5,383.765C492.719,390.79,491.562,384.123,491.5,383.765  L491.5,383.765z"/>
<path fill-rule="evenodd" clip-rule="evenodd" fill="#7F4208" d="M490,381.515C490.93,387.434,490.413,384.147,490,381.515  L490,381.515z"/>
<path fill-rule="evenodd" clip-rule="evenodd" fill="#7F4208" d="M489.25,380.765C488.684,385.28,488.799,384.361,489.25,380.765  L489.25,380.765z"/>
<path fill-rule="evenodd" clip-rule="evenodd" fill="#7F4208" d="M487,477.515C492.462,481.496,490.914,480.368,487,477.515  L487,477.515z"/>
<path fill-rule="evenodd" clip-rule="evenodd" fill="#7F4208" d="M487,475.265C494.314,480.175,488.735,476.43,487,475.265  L487,475.265z"/>
<path fill-rule="evenodd" clip-rule="evenodd" fill="#7F4208" d="M486.25,473.015C492.337,476.822,490.543,475.7,486.25,473.015  L486.25,473.015z"/>
<path fill-rule="evenodd" clip-rule="evenodd" fill="#7F4208" d="M487,470.765C493.259,475.838,488.544,472.016,487,470.765  L487,470.765z"/>
<path fill-rule="evenodd" clip-rule="evenodd" fill="#7F4208" d="M485.5,467.765C491.587,471.572,489.793,470.45,485.5,467.765  L485.5,467.765z"/>
<path fill-rule="evenodd" clip-rule="evenodd" fill="#7F4208" d="M484.75,464.765C490.66,469.439,489.242,468.318,484.75,464.765  L484.75,464.765z"/>
<path fill-rule="evenodd" clip-rule="evenodd" fill="#7F4208" d="M477.25,470.015C481.425,462.32,478.688,467.366,477.25,470.015  L477.25,470.015z"/>
<path fill-rule="evenodd" clip-rule="evenodd" fill="#7F4208" d="M477.25,473.015C480.825,465.477,479.188,468.931,477.25,473.015  L477.25,473.015z"/>
<path fill-rule="evenodd" clip-rule="evenodd" fill="#7F4208" d="M478,474.515C482.179,467.382,479.408,472.112,478,474.515  L478,474.515z"/>
<path fill-rule="evenodd" clip-rule="evenodd" fill="#7F4208" d="M478.75,477.515C482.929,470.382,480.158,475.112,478.75,477.515  L478.75,477.515z"/>
<path fill-rule="evenodd" clip-rule="evenodd" fill="#7F4208" d="M479.5,480.515C482.614,473.374,480.446,478.344,479.5,480.515  L479.5,480.515z"/>
<path fill-rule="evenodd" clip-rule="evenodd" fill="#7F4208" d="M481,460.265C488.576,460,484.75,460.133,481,460.265L481,460.265z  "/>
<path fill-rule="evenodd" clip-rule="evenodd" fill="#7F4208" d="M479.5,458.765C487.076,458.5,483.25,458.633,479.5,458.765  L479.5,458.765z"/>
<path fill-rule="evenodd" clip-rule="evenodd" fill="#7F4208" d="M477.25,457.265C485.37,456.972,481.222,457.122,477.25,457.265  L477.25,457.265z"/>
<path fill-rule="evenodd" clip-rule="evenodd" fill="#7F4208" d="M475,455.765C483.34,454.269,478.753,455.092,475,455.765  L475,455.765z"/>
<path fill-rule="evenodd" clip-rule="evenodd" fill="#7F4208" d="M472,454.265C479.576,454,475.75,454.133,472,454.265L472,454.265z  "/>
<path fill-rule="evenodd" clip-rule="evenodd" fill="#7F4208" d="M471.25,463.265C467.341,455.301,470.511,461.76,471.25,463.265  L471.25,463.265z"/>
<path fill-rule="evenodd" clip-rule="evenodd" fill="#7F4208" d="M473.5,466.265C471.606,458.681,472.371,461.741,473.5,466.265  L473.5,466.265z"/>
<path fill-rule="evenodd" clip-rule="evenodd" fill="#7F4208" d="M475.75,467.765C472.849,460.874,473.849,463.249,475.75,467.765  L475.75,467.765z"/>
<path fill-rule="evenodd" clip-rule="evenodd" fill="#7F4208" d="M480.25,478.265C485.646,480.293,483.043,479.315,480.25,478.265  L480.25,478.265z"/>
<path fill-rule="evenodd" clip-rule="evenodd" fill="#7F4208" d="M478,479.765C485.27,479.884,479.021,479.782,478,479.765  L478,479.765z"/>
<path fill-rule="evenodd" clip-rule="evenodd" fill="#7F4208" d="M475,480.515C481.592,482.128,476.957,480.994,475,480.515  L475,480.515z"/>
<path fill-rule="evenodd" clip-rule="evenodd" fill="#7F4208" d="M472.75,481.265C476.801,482.51,478.088,482.906,472.75,481.265  L472.75,481.265z"/>
<path fill-rule="evenodd" clip-rule="evenodd" fill="#7F4208" d="M470.5,482.015C474.551,483.26,475.838,483.656,470.5,482.015  L470.5,482.015z"/>
<path fill-rule="evenodd" clip-rule="evenodd" fill="#7F4208" d="M481.75,484.265C488.184,480.01,482.136,484.01,481.75,484.265  L481.75,484.265z"/>
<path fill-rule="evenodd" clip-rule="evenodd" fill="#7F4208" d="M479.5,485.015C482.681,481.83,482.94,481.569,479.5,485.015  L479.5,485.015z"/>
<path fill-rule="evenodd" clip-rule="evenodd" fill="#7F4208" d="M476.5,485.765C479.681,482.58,479.94,482.319,476.5,485.765  L476.5,485.765z"/>
<path fill-rule="evenodd" clip-rule="evenodd" fill="#7F4208" d="M474.25,485.765C480.684,481.51,474.636,485.51,474.25,485.765  L474.25,485.765z"/>
<path fill-rule="evenodd" clip-rule="evenodd" fill="#7F4208" d="M472.75,486.515C475.221,483.221,475.221,483.221,472.75,486.515  L472.75,486.515z"/>
<path fill-rule="evenodd" clip-rule="evenodd" fill="#7F4208" d="M440.5,490.265C447.408,494.254,440.222,490.104,440.5,490.265  L440.5,490.265z"/>
<path fill-rule="evenodd" clip-rule="evenodd" fill="#7F4208" d="M437.5,491.015C439.867,492.542,442.896,494.499,437.5,491.015  L437.5,491.015z"/>
<path fill-rule="evenodd" clip-rule="evenodd" fill="#7F4208" d="M435.25,491.765C437.617,493.292,440.646,495.249,435.25,491.765  L435.25,491.765z"/>
<path fill-rule="evenodd" clip-rule="evenodd" fill="#7F4208" d="M432.25,491.015C435.617,493.388,435.904,493.59,432.25,491.015  L432.25,491.015z"/>
<path fill-rule="evenodd" clip-rule="evenodd" fill="#7F4208" d="M429.25,491.015C432.779,493.211,433.215,493.483,429.25,491.015  L429.25,491.015z"/>
<path fill-rule="evenodd" clip-rule="evenodd" fill="#7F4208" d="M442.75,496.265C446.044,493.794,446.044,493.794,442.75,496.265  L442.75,496.265z"/>
<path fill-rule="evenodd" clip-rule="evenodd" fill="#7F4208" d="M438.25,497.015C446.943,494.14,436.854,497.477,438.25,497.015  L438.25,497.015z"/>
<path fill-rule="evenodd" clip-rule="evenodd" fill="#7F4208" d="M435.25,497.015C443.785,493.932,433.961,497.481,435.25,497.015  L435.25,497.015z"/>
<path fill-rule="evenodd" clip-rule="evenodd" fill="#7F4208" d="M433,497.015C435.367,495.488,438.396,493.532,433,497.015  L433,497.015z"/>
<path fill-rule="evenodd" clip-rule="evenodd" fill="#7F4208" d="M430.75,496.265C438.078,493.849,431.995,495.855,430.75,496.265  L430.75,496.265z"/>
<path fill-rule="evenodd" clip-rule="evenodd" fill="#7F4208" d="M449.5,491.765C449.793,499.885,449.644,495.737,449.5,491.765  L449.5,491.765z"/>
<path fill-rule="evenodd" clip-rule="evenodd" fill="#7F4208" d="M451,490.265C451.293,498.385,451.144,494.237,451,490.265  L451,490.265z"/>
<path fill-rule="evenodd" clip-rule="evenodd" fill="#7F4208" d="M453.25,488.765C452.41,496.623,452.797,493.004,453.25,488.765  L453.25,488.765z"/>
<path fill-rule="evenodd" clip-rule="evenodd" fill="#7F4208" d="M454.75,487.265C455.043,495.385,454.894,491.237,454.75,487.265  L454.75,487.265z"/>
<path fill-rule="evenodd" clip-rule="evenodd" fill="#7F4208" d="M457,486.515C457.293,494.635,457.144,490.487,457,486.515  L457,486.515z"/>
<path fill-rule="evenodd" clip-rule="evenodd" fill="#7F4208" d="M459.25,470.765C467.37,470.472,463.222,470.622,459.25,470.765  L459.25,470.765z"/>
<path fill-rule="evenodd" clip-rule="evenodd" fill="#7F4208" d="M458.5,468.515C466.84,467.019,462.253,467.842,458.5,468.515  L458.5,468.515z"/>
<path fill-rule="evenodd" clip-rule="evenodd" fill="#7F4208" d="M455.5,466.265C462.797,466.044,460.539,466.113,455.5,466.265  L455.5,466.265z"/>
<path fill-rule="evenodd" clip-rule="evenodd" fill="#7F4208" d="M459.25,480.515C462.109,488.149,460.26,483.21,459.25,480.515  L459.25,480.515z"/>
<path fill-rule="evenodd" clip-rule="evenodd" fill="#7F4208" d="M460,477.515C463.575,485.053,461.938,481.599,460,477.515  L460,477.515z"/>
<path fill-rule="evenodd" clip-rule="evenodd" fill="#7F4208" d="M460.75,476.015C464.459,483.232,462.52,479.458,460.75,476.015  L460.75,476.015z"/>
<path fill-rule="evenodd" clip-rule="evenodd" fill="#7F4208" d="M460,473.765C464.958,477.366,464.982,477.383,460,473.765  L460,473.765z"/>
<path fill-rule="evenodd" clip-rule="evenodd" fill="#7F4208" d="M460,471.515C467.562,476.532,461.992,472.836,460,471.515  L460,471.515z"/>
<path fill-rule="evenodd" clip-rule="evenodd" fill="#7F4208" d="M444.25,469.265C452.208,471.999,447.592,470.413,444.25,469.265  L444.25,469.265z"/>
<path fill-rule="evenodd" clip-rule="evenodd" fill="#7F4208" d="M441.25,469.265C446.688,473.52,445.863,472.875,441.25,469.265  L441.25,469.265z"/>
<path fill-rule="evenodd" clip-rule="evenodd" fill="#7F4208" d="M439,470.015C444.494,475.281,443.556,474.381,439,470.015  L439,470.015z"/>
<path fill-rule="evenodd" clip-rule="evenodd" fill="#7F4208" d="M436,470.765C441.483,475.536,440.482,474.665,436,470.765  L436,470.765z"/>
<path fill-rule="evenodd" clip-rule="evenodd" fill="#7F4208" d="M433,471.515C438.053,478.456,434.402,473.441,433,471.515  L433,471.515z"/>
<path fill-rule="evenodd" clip-rule="evenodd" fill="#7F4208" d="M430,471.515C433.811,478.148,432.739,476.283,430,471.515  L430,471.515z"/>
<path fill-rule="evenodd" clip-rule="evenodd" fill="#7F4208" d="M490,420.515C490.537,420.515,490.537,420.515,490,420.515  L490,420.515z"/>
<path fill-rule="evenodd" clip-rule="evenodd" fill="#7F4208" d="M485.5,424.265C487.147,424.265,487.147,424.265,485.5,424.265  L485.5,424.265z"/>
<path fill-rule="evenodd" clip-rule="evenodd" fill="#7F4208" d="M493.75,404.015C495.394,404.902,494.392,404.361,493.75,404.015  L493.75,404.015z"/>
<path fill-rule="evenodd" clip-rule="evenodd" fill="#7F4208" d="M508.75,423.515L508.75,423.515z"/>
<path fill-rule="evenodd" clip-rule="evenodd" fill="#7F4208" d="M504.25,428.765C504.854,428.162,504.854,428.162,504.25,428.765  L504.25,428.765z"/>
<path fill-rule="evenodd" clip-rule="evenodd" fill="#7F4208" d="M499,433.265C499.604,433.869,499.604,433.869,499,433.265  L499,433.265z"/>
<path fill-rule="evenodd" clip-rule="evenodd" fill="#7F4208" d="M489.25,441.515C490.25,441.515,490.25,441.515,489.25,441.515  L489.25,441.515z"/>
<path fill-rule="evenodd" clip-rule="evenodd" fill="#7F4208" d="M494.5,437.015C496.144,437.902,495.142,437.361,494.5,437.015  L494.5,437.015z"/>
<path fill-rule="evenodd" clip-rule="evenodd" fill="#7F4208" d="M486.25,440.765C486.854,440.162,486.854,440.162,486.25,440.765  L486.25,440.765z"/>
<path fill-rule="evenodd" clip-rule="evenodd" fill="#7F4208" d="M483.25,444.515C484.37,444.515,484.37,444.515,483.25,444.515  L483.25,444.515z"/>
<path fill-rule="evenodd" clip-rule="evenodd" fill="#7F4208" d="M475,446.015C475.604,446.619,475.604,446.619,475,446.015  L475,446.015z"/>
<path fill-rule="evenodd" clip-rule="evenodd" fill="#7F4208" d="M468.25,446.765C469.897,446.765,469.897,446.765,468.25,446.765  L468.25,446.765z"/>
<path fill-rule="evenodd" clip-rule="evenodd" fill="#7F4208" d="M475.75,461.015C477.193,461.364,477.607,461.464,475.75,461.015  L475.75,461.015z"/>
<path fill-rule="evenodd" clip-rule="evenodd" fill="#7F4208" d="M481.75,467.765C482.392,467.419,483.394,466.878,481.75,467.765  L481.75,467.765z"/>
<path fill-rule="evenodd" clip-rule="evenodd" fill="#7F4208" d="M483.25,471.515C483.787,471.515,483.787,471.515,483.25,471.515  L483.25,471.515z"/>
<path fill-rule="evenodd" clip-rule="evenodd" fill="#7F4208" d="M478.75,462.515C480.394,463.402,479.392,462.861,478.75,462.515  L478.75,462.515z"/>
<path fill-rule="evenodd" clip-rule="evenodd" fill="#7F4208" d="M458.5,457.265C459.857,456.608,460.496,456.299,458.5,457.265  L458.5,457.265z"/>
<path fill-rule="evenodd" clip-rule="evenodd" fill="#7F4208" d="M451,457.265C452.857,456.816,452.443,456.917,451,457.265  L451,457.265z"/>
<path fill-rule="evenodd" clip-rule="evenodd" fill="#7F4208" d="M446.5,460.265C447.943,460.614,448.357,460.714,446.5,460.265  L446.5,460.265z"/>
<path fill-rule="evenodd" clip-rule="evenodd" fill="#7F4208" d="M440.5,458.015C442.147,458.015,442.147,458.015,440.5,458.015  L440.5,458.015z"/>
<path fill-rule="evenodd" clip-rule="evenodd" fill="#7F4208" d="M445.75,466.265C446.287,466.265,446.287,466.265,445.75,466.265  L445.75,466.265z"/>
<path fill-rule="evenodd" clip-rule="evenodd" fill="#7F4208" d="M455.5,472.265C456.5,472.265,456.5,472.265,455.5,472.265  L455.5,472.265z"/>
<path fill-rule="evenodd" clip-rule="evenodd" fill="#7F4208" d="M456.25,476.015C456.854,476.619,456.854,476.619,456.25,476.015  L456.25,476.015z"/>
<path fill-rule="evenodd" clip-rule="evenodd" fill="#7F4208" d="M451.75,484.265C452.87,484.265,452.87,484.265,451.75,484.265  L451.75,484.265z"/>
<path fill-rule="evenodd" clip-rule="evenodd" fill="#7F4208" d="M449.5,487.265C450.5,487.265,450.5,487.265,449.5,487.265  L449.5,487.265z"/>
<path fill-rule="evenodd" clip-rule="evenodd" fill="#7F4208" d="M454.75,482.765C454.75,483.765,454.75,483.765,454.75,482.765  L454.75,482.765z"/>
<path fill-rule="evenodd" clip-rule="evenodd" fill="#7F4208" d="M433,467.765C435.113,467.327,435.729,467.199,433,467.765  L433,467.765z"/>
<path fill-rule="evenodd" clip-rule="evenodd" fill="#7F4208" d="M424,467.015C425.857,466.566,425.443,466.667,424,467.015  L424,467.015z"/>
<path fill-rule="evenodd" clip-rule="evenodd" fill="#7F4208" d="M433,460.265C434.699,460.265,434.699,460.265,433,460.265  L433,460.265z"/>
</svg>