<svg xmlns="http://www.w3.org/2000/svg" xmlns:xlink="http://www.w3.org/1999/xlink" version="1.1" id="Layer_1" x="0px" y="0px" enable-background="new 0 0 822.05 841.89" xml:space="preserve" viewBox="213.08 260.87 398.24 321.8">
<path fill-rule="evenodd" clip-rule="evenodd" fill="#FFE398" stroke="#000000" stroke-width="2" stroke-linecap="square" stroke-miterlimit="10" d="  M214.076,434.148c2.007,11.676,1.212,43.212,11.113,49.948c20.271,13.793,40.543,27.586,60.814,41.379  c42.77,29.101,68.456,55.492,119.765,56.186c35.032,0.474,61.241-47.188,83.675-71.544c38.069-41.333,76.139-82.666,114.209-123.999  c27.789-30.171-39.296-61.812-54.705-70.733c-45.92-26.586-78.619-54.914-131.547-53.464c-36.64,1.004-68.282,47.529-93.988,71.266  C286.967,366.841,250.521,400.495,214.076,434.148z"/>
<path fill-rule="evenodd" clip-rule="evenodd" fill="#EEC576" stroke="#000000" stroke-width="2" stroke-linecap="square" stroke-miterlimit="10" d="  M439.08,315.646c-6.101,4.375-31.155,1.284-24-11.25C422.235,291.863,438.584,307.215,439.08,315.646z"/>
<path fill-rule="evenodd" clip-rule="evenodd" fill="#EEC576" stroke="#000000" stroke-width="2" stroke-linecap="square" stroke-miterlimit="10" d="  M364.076,374.896C324.363,402.082,355.152,325.712,364.076,374.896L364.076,374.896z"/>
<path fill-rule="evenodd" clip-rule="evenodd" fill="#EEC576" stroke="#000000" stroke-width="2" stroke-linecap="square" stroke-miterlimit="10" d="  M487.83,350.896c-6.527,4.081-29.103,1.803-23.25-11.25C470.479,326.49,487.381,342.534,487.83,350.896z"/>
<path fill-rule="evenodd" clip-rule="evenodd" fill="#EEC576" stroke="#000000" stroke-width="2" stroke-linecap="square" stroke-miterlimit="10" d="  M421.83,412.396c-7.505,4.963-27.671,1.851-24.004-11.25C401.64,387.52,420.761,404.408,421.83,412.396z"/>
<path fill-rule="evenodd" clip-rule="evenodd" fill="#EEC576" stroke="#000000" stroke-width="2" stroke-linecap="square" stroke-miterlimit="10" d="  M354.326,480.648c-6.085,4.364-31.406,0.979-24-11.25C337.547,457.474,353.854,472.137,354.326,480.648z"/>
<path fill-rule="evenodd" clip-rule="evenodd" fill="#EEC576" stroke="#000000" stroke-width="2" stroke-linecap="square" stroke-miterlimit="10" d="  M299.576,446.898C258.643,474.002,291.116,397.686,299.576,446.898L299.576,446.898z"/>
<path fill-rule="evenodd" clip-rule="evenodd" fill="#EEC576" stroke="#000000" stroke-width="2" stroke-linecap="square" stroke-miterlimit="10" d="  M424.08,524.148c-6.527,4.08-29.107,1.804-23.254-11.25C406.726,499.742,423.631,515.785,424.08,524.148z"/>
<path fill-rule="evenodd" clip-rule="evenodd" fill="#EEC576" stroke="#000000" stroke-width="2" stroke-linecap="square" stroke-miterlimit="10" d="  M484.08,455.148c-6.547,4.677-30.141,1.681-23.25-11.25C467.428,431.516,483.391,447.395,484.08,455.148z"/>
<path fill-rule="evenodd" clip-rule="evenodd" fill="#EEC576" stroke="#000000" stroke-width="2" stroke-linecap="square" stroke-miterlimit="10" d="  M543.33,387.646c-7.121,5.411-29.545,2.238-24-11.25C524.625,363.516,542.024,380.118,543.33,387.646z"/>
</svg>