<svg xmlns="http://www.w3.org/2000/svg" xmlns:xlink="http://www.w3.org/1999/xlink" version="1.1" id="Layer_1" x="0px" y="0px" enable-background="new 0 0 822.05 841.89" xml:space="preserve" viewBox="207.3 301.93 408.94 239">
<path fill-rule="evenodd" clip-rule="evenodd" fill="#904098" stroke="#000000" stroke-width="2" stroke-linecap="square" stroke-miterlimit="10" d="  M593.75,484.437c0.936,24.795,11.15,39.294-14.682,40.516c-37.261,1.762-74.521,3.524-111.781,5.287  c-68.346,3.232-136.691,6.465-205.037,9.697c-0.921-24.882-11.36-40.056,14.681-41.229c37.261-1.679,74.521-3.357,111.782-5.035  C457.059,490.594,525.404,487.515,593.75,484.437z"/>
<path fill-rule="evenodd" clip-rule="evenodd" fill="#CB97C4" stroke="#000000" stroke-width="2" stroke-linecap="square" stroke-miterlimit="10" d="  M258.5,538.437c-7.311-2.007-74.647-13.111-40.694-23.361C256.388,503.428,255.667,491.227,258.5,538.437z"/>
<path fill-rule="evenodd" clip-rule="evenodd" fill="#CB97C4" stroke="#000000" stroke-width="2" stroke-linecap="square" stroke-miterlimit="10" d="  M599.75,519.687c11.958-4.851,10.049-29.91-4.5-32.25C596.75,498.187,598.25,508.937,599.75,519.687z"/>
<line fill="none" stroke="#000000" stroke-width="2" stroke-linecap="square" stroke-miterlimit="10" x1="248.75" y1="533.937" x2="247.25" y2="506.187"/>
<path fill-rule="evenodd" clip-rule="evenodd" fill="#CB97C4" stroke="#000000" stroke-width="2" stroke-linecap="square" stroke-miterlimit="10" d="  M363.5,534.687c7.359-48.388,122.688-47.872,143.25-6.75C459,530.187,411.25,532.437,363.5,534.687z"/>
<path fill-rule="evenodd" clip-rule="evenodd" fill="#ED1C24" stroke="#000000" stroke-width="2" stroke-linecap="square" stroke-miterlimit="10" d="  M595.25,440.187c0.75,13.25,1.5,26.5,2.25,39.75c-64.712,3.061-129.424,6.121-194.136,9.182  c-39.066,1.849-78.132,3.696-117.198,5.544c-30.598,1.447-22.146-7.454-23.917-38.726C373.25,450.687,484.25,445.437,595.25,440.187  z"/>
<path fill-rule="evenodd" clip-rule="evenodd" fill="#F9AE95" stroke="#000000" stroke-width="2" stroke-linecap="square" stroke-miterlimit="10" d="  M260.75,494.937c-8.231-2.384-51.75-8.629-51.75-16.125c0-8.397,42.541-19.409,49.5-22.125  C259.25,469.437,260,482.187,260.75,494.937z"/>
<path fill-rule="evenodd" clip-rule="evenodd" fill="#F9AE95" stroke="#000000" stroke-width="2" stroke-linecap="square" stroke-miterlimit="10" d="  M601.25,475.437c11.604-3.786,12.145-32.008-4.5-31.5C598.25,454.437,599.75,464.937,601.25,475.437z"/>
<line fill="none" stroke="#000000" stroke-width="2" stroke-linecap="square" stroke-miterlimit="10" x1="250.25" y1="490.437" x2="249.5" y2="461.937"/>
<path fill-rule="evenodd" clip-rule="evenodd" fill="#F9AE95" stroke="#000000" stroke-width="2" stroke-linecap="square" stroke-miterlimit="10" d="  M365,490.437c8.585-49.616,121.755-45.619,144-6.75C461,485.937,413,488.187,365,490.437z"/>
<path fill-rule="evenodd" clip-rule="evenodd" fill="#0DB14B" stroke="#000000" stroke-width="2" stroke-linecap="square" stroke-miterlimit="10" d="  M597.5,395.185c0.922,24.882,11.36,40.058-14.682,41.23c-37.261,1.679-74.521,3.357-111.781,5.035  c-68.346,3.079-136.691,6.158-205.037,9.236c-0.936-24.795-11.151-39.295,14.681-40.517c37.261-1.763,74.521-3.525,111.782-5.287  C460.809,401.65,529.154,398.417,597.5,395.185z"/>
<path fill-rule="evenodd" clip-rule="evenodd" fill="#B6DCB2" stroke="#000000" stroke-width="2" stroke-linecap="square" stroke-miterlimit="10" d="  M262.25,449.937c-7.611-2.337-50.647-8.118-51.375-16.125c-0.715-7.864,41.567-19.018,49.125-22.127  C260.75,424.436,261.5,437.186,262.25,449.937z"/>
<path fill-rule="evenodd" clip-rule="evenodd" fill="#B6DCB2" stroke="#000000" stroke-width="2" stroke-linecap="square" stroke-miterlimit="10" d="  M603.5,431.187c10.738-5.514,11.342-32.183-4.5-32.252C600.5,409.686,602,420.437,603.5,431.187z"/>
<line fill="none" stroke="#000000" stroke-width="2" stroke-linecap="square" stroke-miterlimit="10" x1="252.5" y1="445.437" x2="251" y2="416.935"/>
<path fill-rule="evenodd" clip-rule="evenodd" fill="#B6DCB2" stroke="#000000" stroke-width="2" stroke-linecap="square" stroke-miterlimit="10" d="  M367.25,445.437c9.368-47.537,122.229-47.617,143.25-6.75C462.75,440.937,415,443.187,367.25,445.437z"/>
<path fill-rule="evenodd" clip-rule="evenodd" fill="#FFF200" stroke="#000000" stroke-width="2" stroke-linecap="square" stroke-miterlimit="10" d="  M599,349.435c0.75,13.25,1.5,26.5,2.25,39.75c-64.712,3.061-129.424,6.122-194.136,9.182c-39.066,1.848-78.132,3.695-117.198,5.543  c-30.598,1.447-22.146-7.454-23.917-38.725C377,359.935,488,354.685,599,349.435z"/>
<path fill-rule="evenodd" clip-rule="evenodd" fill="#FFE7A8" stroke="#000000" stroke-width="2" stroke-linecap="square" stroke-miterlimit="10" d="  M264.5,404.185c-8.329-2.396-50.641-8.046-51.375-16.125c-0.707-7.773,42.354-19.482,49.125-22.125  C263,378.685,263.75,391.435,264.5,404.185z"/>
<path fill-rule="evenodd" clip-rule="evenodd" fill="#FFEBB9" stroke="#000000" stroke-width="2" stroke-linecap="square" stroke-miterlimit="10" d="  M605,385.435c11.387-4.882,12.302-32.763-4.5-32.25C602,363.935,603.5,374.685,605,385.435z"/>
<line fill="none" stroke="#000000" stroke-width="2" stroke-linecap="square" stroke-miterlimit="10" x1="254" y1="399.685" x2="253.25" y2="371.185"/>
<path fill-rule="evenodd" clip-rule="evenodd" fill="#FFEBB9" stroke="#000000" stroke-width="2" stroke-linecap="square" stroke-miterlimit="10" d="  M369.5,399.685c7.794-48.546,121.318-46.062,143.25-6.75C465,395.185,417.25,397.435,369.5,399.685z"/>
<path fill-rule="evenodd" clip-rule="evenodd" fill="#7BD3F7" stroke="#000000" stroke-width="2" stroke-linecap="square" stroke-miterlimit="10" d="  M601.25,302.935c0.936,24.795,11.15,39.293-14.682,40.515c-37.261,1.763-74.521,3.525-111.781,5.287  c-68.346,3.232-136.691,6.465-205.037,9.698c-0.936-24.795-11.151-39.293,14.681-40.515c37.261-1.763,74.521-3.525,111.782-5.287  C464.559,309.4,532.904,306.167,601.25,302.935z"/>
<path fill-rule="evenodd" clip-rule="evenodd" fill="#CEEDFC" stroke="#000000" stroke-width="2" stroke-linecap="square" stroke-miterlimit="10" d="  M266.75,356.935c-7.679-1.872-74.608-12.168-41.444-22.806C263.855,321.765,262.973,309.723,266.75,356.935z"/>
<path fill-rule="evenodd" clip-rule="evenodd" fill="#CEEDFC" stroke="#000000" stroke-width="2" stroke-linecap="square" stroke-miterlimit="10" d="  M607.25,338.185c11.961-4.559,10.517-30.968-4.5-32.25C604.25,316.685,605.75,327.435,607.25,338.185z"/>
<line fill="none" stroke="#000000" stroke-width="2" stroke-linecap="square" stroke-miterlimit="10" x1="256.25" y1="352.435" x2="254.75" y2="324.685"/>
<path fill-rule="evenodd" clip-rule="evenodd" fill="#CEEDFC" stroke="#000000" stroke-width="2" stroke-linecap="square" stroke-miterlimit="10" d="  M371,353.185c7.214-47.993,123.653-48.176,143.25-6.75C466.5,348.685,418.75,350.935,371,353.185z"/>
</svg>