<svg xmlns="http://www.w3.org/2000/svg" xmlns:xlink="http://www.w3.org/1999/xlink" version="1.1" id="Layer_1" x="0px" y="0px" enable-background="new 0 0 822.05 841.89" xml:space="preserve" viewBox="239.39 274.24 343.73 293.27">
<path fill-rule="evenodd" clip-rule="evenodd" fill="#904098" stroke="#000000" stroke-width="2" stroke-linecap="square" stroke-miterlimit="10" d="  M579.521,532.887c-19.825,23.477-20.393,40.535-44.038,20.746c-31.621-26.463-63.242-52.927-94.862-79.391  c-56.7-47.452-113.4-94.903-170.1-142.355c19.825-23.477,20.393-40.535,44.038-20.746c31.621,26.463,63.242,52.927,94.863,79.391  C466.122,437.984,522.822,485.435,579.521,532.887z"/>
<path fill-rule="evenodd" clip-rule="evenodd" fill="#CB97C4" stroke="#000000" stroke-width="2" stroke-linecap="square" stroke-miterlimit="10" d="  M269.021,328.137c-4.661-6.814-47.631-64.697-18.673-50.735C291.669,297.325,302.759,286.689,269.021,328.137z"/>
<path fill-rule="evenodd" clip-rule="evenodd" fill="#CB97C4" stroke="#000000" stroke-width="2" stroke-linecap="square" stroke-miterlimit="10" d="  M557.771,565.887c12.647,4.577,33.145-17.272,20.25-29.25C571.271,546.387,564.521,556.137,557.771,565.887z"/>
<line fill="none" stroke="#000000" stroke-width="2" stroke-linecap="square" stroke-miterlimit="10" x1="263.771" y1="316.887" x2="284.021" y2="293.637"/>
<path fill-rule="evenodd" clip-rule="evenodd" fill="#CB97C4" stroke="#000000" stroke-width="2" stroke-linecap="square" stroke-miterlimit="10" d="  M356.771,402.387c43.886-33.721,130.45,53.682,120.75,101.25C437.271,469.887,397.021,436.137,356.771,402.387z"/>
</svg>