<svg xmlns="http://www.w3.org/2000/svg" xmlns:xlink="http://www.w3.org/1999/xlink" version="1.1" id="Layer_1" x="0px" y="0px" enable-background="new 0 0 822.05 841.89" xml:space="preserve" viewBox="320.75 340.42 181.34 161.66">
<path fill-rule="evenodd" clip-rule="evenodd" fill="#FFFFFF" d="M500,422.14c-7.349,104.752-176.46,106.42-177,0  C322.457,315.032,493.85,316.177,500,422.14z"/>
<path fill-rule="evenodd" clip-rule="evenodd" d="M500,422.14c-11.76,41.78-33.391,74.907-84,79.125  c-46.056,3.838-86.593-30.054-91.125-75.375c-10.625-106.245,177.184-110.608,172.875-3.75c1.25,0,2.5,0,3.75,0  c4.421-108.62-181.295-109.293-180.75,0C321.339,540.326,524.766,516.455,500,422.14z"/>
<path fill-rule="evenodd" clip-rule="evenodd" fill="#D9D9D9" d="M423.5,347.89c-11.569,0.306-22.724,9.159-20.625,21.75  c2.856,17.14-14.903,4.285-21.375,12.375c-4.141,5.176-12.15,2.993-18.375,4.125c-10.508,1.911,0.404,8.868-1.875,14.25  c-2.706,6.39-9.668,27.47-9,33c3.1,25.657,22.399,16.262,38.25,32.25c6.672,6.73-1.143,11.798,6.75,18.375  c5.571,4.643,20.857-10.038,27-12.375c-1.17,3.634-1.544,7.568-2.25,11.25c2.588-2.286,6.123-4.422,9-7.5  c0.84,2.403,2.819,6.454,3.75,8.25c18.169,6.476,35.755-37.993,30.75-48c-7.271-6.474,3.404-26.512,0-38.25  c-1.019-3.511-16.524-21.188-19.5-25.5C438.4,360.877,436.981,351.334,423.5,347.89z"/>
<path fill-rule="evenodd" clip-rule="evenodd" fill="#D9D9D9" d="M467.75,440.89L467.75,440.89z M467.75,440.89L467.75,440.89z   M358.25,386.89L358.25,386.89L358.25,386.89z M357.5,386.14L357.5,386.14L357.5,386.14z M393.5,380.89  c17.932-5.637,2.518-29.138,26.25-33c17.382-2.829,22.619,20.623,30,31.5c4.653,6.858,23.199,21.334,18,30  c-5.896,9.827-6.063,22.854-2.25,26.25c5.005,10.007-12.581,54.476-30.75,48c-0.931-1.796-2.91-5.847-3.75-8.25  c-2.877,3.078-6.412,5.214-9,7.5c0.706-3.682,1.08-7.616,2.25-11.25c-18.817,7.16-18.096,14.991-33,5.25  c1.764,1.153-6.233-13.485-9.75-16.5c-7.863-6.741-9.525-4.175-19.5-7.5c-21.708-7.236-3.812-29.384-2.625-41.25  C361.946,385.934,367.69,380.743,393.5,380.89z M423.5,344.14c-26.596,0.502-18.211,27.192-37.875,31.125  c-33.763,6.752-27.658,13.618-31.875,41.625c-4.389,29.152-7.917,22.978,15,40.5c14.622,11.18,16.874,24.39,28.5,33.75  c1.737-1.369,2.487-1.369,2.25,0c6.07-4.453,13.62-8.494,19.5-14.25c3.78,11.318-0.097,9.946,12,4.5  c5.677,17.856,19.389,1.378,25.875-9c13.137-21.02,10.875-24.066,10.875-44.25c0-24.471,5.237-18.599-8.25-41.25  C451.667,373.735,442.308,346.681,423.5,344.14z"/>
<path fill-rule="evenodd" clip-rule="evenodd" fill="#F1F67B" d="M446,420.64c1.962,43.143-45.887,43.031-45.75,0  C400.385,378.169,448.154,378.036,446,420.64z"/>
<path fill-rule="evenodd" clip-rule="evenodd" d="M446,420.64c-4.663,31.443-43.5,47.287-43.5,3.375  c0-41.177,42.604-46.794,42-3.375c1.25,0,2.5,0,3.75,0c-1.4-44.986-49.5-45.282-49.5,0C398.75,473.252,459.047,455.978,446,420.64z"/>
<path fill-rule="evenodd" clip-rule="evenodd" fill="#F1F67B" d="M413.75,422.14c7.357,16.481-2.021,39.074-19.875,41.625  c-8.628,1.232-22.616-3.608-25.125-13.125C364.302,433.771,399.672,428.173,413.75,422.14z"/>
<path fill-rule="evenodd" clip-rule="evenodd" d="M413.75,422.14c1.511,8.076-4.086,28.701-11.25,40.5  c-13.983,0.596-31.336-2.615-34.5-20.25C372.696,442.921,405.975,429.876,413.75,422.14c-3.486-0.001,1.007,2.745-0.75-1.5  c-15.098,6.471-50.252,11.39-46.5,29.25c2.544,12.112,16.968,15.75,27.375,15.75C415.178,465.64,424.176,426.899,413.75,422.14z"/>
<path fill-rule="evenodd" clip-rule="evenodd" fill="#F1F67B" d="M350.75,421.39c-17.561,22.056,6.493,36.224,27.75,31.5  C369.25,442.39,360,431.89,350.75,421.39z"/>
<path fill-rule="evenodd" clip-rule="evenodd" d="M350.75,421.39c-24.244,17.582,7.262,39.404,30.75,32.25  c-9.759-12.106-20.265-23.735-30.75-35.25c-1.647,9.235,18.922,28.254,27.75,34.5C352.585,451.917,342.079,440.197,350.75,421.39z"/>
<path fill-rule="evenodd" clip-rule="evenodd" fill="#F1F67B" d="M349.25,416.14c-2.196,35.217,48.43,34.965,57,3.75  C387.238,417.91,368.41,415.3,349.25,416.14z"/>
<path fill-rule="evenodd" clip-rule="evenodd" d="M349.25,416.14c-3.587,8.43,0.882,18.163,9,20.25  c9.524,23.36,45.489,1.897,50.25-18c-19.904-2.972-40.529-4.458-60.75-3.75c4.515,3.741,15.983,4.15,22.5,1.5  c8.954,2.913,26.142,4.794,36,3.75c0.111-0.266-8.757,16.367-8.25,15.75C376.492,444.395,349.982,439.542,349.25,416.14z"/>
<path fill-rule="evenodd" clip-rule="evenodd" fill="#F1F67B" d="M355.25,395.89c-11.687,24.315,11.738,27.117,25.5,10.5  C372.25,402.89,363.75,399.39,355.25,395.89z"/>
<path fill-rule="evenodd" clip-rule="evenodd" d="M355.25,395.89c-17.864,23.205,13.825,30.065,29.25,9.75  c-10.376-3.582-20.488-8.032-30.75-12c2.429,6.848,17.535,11.933,27,12.75c1.574-1.644-14.576,11.157-12,9.75  c-1.326,0.272-11.602-0.585-15-1.5c1,0,1,0,0,0C355.129,407.779,355.163,395.531,355.25,395.89z"/>
<path fill-rule="evenodd" clip-rule="evenodd" fill="#F1F67B" d="M400.25,407.14c33.096-4.83,8.096,43.587-18,20.25  C387.757,420.409,394.259,413.093,400.25,407.14z"/>
<path fill-rule="evenodd" clip-rule="evenodd" d="M400.25,409.39c7.426-1.479,14.959,2.729,15.75,0c0.018,0.155,0.75-0.124,0.75,0  c-1.677,21.251-18.988,27.478-34.5,18c3.888-2.337,13.249-12.561,18.75-18.75c-1-0.75-2-1.5-3-2.25  c-6.12,7.356-12.382,14.62-18.75,21.75C419.129,460.197,426.372,388.82,400.25,409.39z"/>
<path fill-rule="evenodd" clip-rule="evenodd" fill="#F1F67B" d="M369.5,406.39c-18.519,46.721,48.547,3.552,49.5-16.5  C400.681,390.968,377.993,385.874,369.5,406.39z"/>
<path fill-rule="evenodd" clip-rule="evenodd" d="M369.5,406.39c-6.675,6.91-1.933,38.683,13.125,23.625  c11.539-11.539,40.087-24.882,37.875-42.375c-20.448,2.761-43.021-4.714-53.25,18c1.612,0.165,2.862,0.915,3.75,2.25  c1.37-4.218,9-14.458,9.75-15.75c10.232,1.886,29.041,0.715,38.25-2.25c-1.224,1.171-1.724,1.171-1.5,0c0,1,0,1,0,0  c-1.055,12.292-31.935,33.473-42,41.25C371.292,428.699,369.162,408.835,369.5,406.39z"/>
<path fill-rule="evenodd" clip-rule="evenodd" fill="#F1F67B" d="M373.25,381.64c7.217-5.986,11.417-10.613,18.75-1.5  C386.032,382.606,379.869,382.569,373.25,381.64z"/>
<path fill-rule="evenodd" clip-rule="evenodd" d="M373.25,381.64c6.648-2.186,8.265-7.627,17.25-2.25c-1,0-1,0,0,0c-1,0-1,0,0,0  c-1,0-1,0,0,0c-5.69,0.131-11.411,1.252-17.25,0.75c0.901,2.7,1.85,1.678-0.75,3C421.566,393.859,362.716,359.24,373.25,381.64z"/>
<path fill-rule="evenodd" clip-rule="evenodd" fill="#F1F67B" d="M398,375.64c-5.731-16.863,5.898-35.354,24.75-31.5  c17.847,3.648,26.296,35.885,28.5,51.75C433.5,389.14,415.75,382.39,398,375.64z"/>
<path fill-rule="evenodd" clip-rule="evenodd" d="M398,375.64c-1.853-11.054,12.399-44.601,30-27  c12.072,12.072,19.171,31.098,21.75,48C446.479,389.165,409.978,376.614,398,375.64c0.224,0.327,2.027-0.479-0.75,2.25  c19.222,7.31,38.357,14.913,57.75,21.75c-4.906-14.92-7.2-33.932-20.25-43.5C435.767,323.556,374.129,356.166,398,375.64z"/>
<path fill-rule="evenodd" clip-rule="evenodd" fill="#F1F67B" d="M428.75,379.39c12.958-0.108,28.708,4.916,34.875,17.25  C475.888,421.165,419.101,427.817,428.75,379.39z"/>
<path fill-rule="evenodd" clip-rule="evenodd" d="M428.75,379.39c14.146,2.332,34.213,15.51,36,22.5  c-3.965,5.749-8.141,11.829-12.75,16.5c-0.751-0.462,0.978-1.142,0,0.75c1.256-0.017-0.817-0.194,0.75-0.75  c-0.625-0.312-1.049-0.074-1.5,0.75c-1.706-2.83-14.891-11.144-21.75-15.75c-1.282,1.447-1.032,1.947,0.75,1.5  c0.785-8.047,0.785-17.453,0-25.5c-2.985,1.167-0.016,1.176-3,0c-2.783,29.93,6.896,29.263,21.75,40.5  C486.406,422.959,452.894,362.41,428.75,379.39z"/>
<path fill-rule="evenodd" clip-rule="evenodd" fill="#F1F67B" d="M446.75,406.39c-11.237-8.266-30.072-14.074-31.5,4.5  C413.471,434.048,458.758,444.674,446.75,406.39z"/>
<path fill-rule="evenodd" clip-rule="evenodd" d="M446.75,406.39c-10.745-13.659-35.574-13.904-33,6.75  c3.351,26.886,42.369,30.094,34.5-8.25c-4.137,6.046-4.027,18.744-0.75,24.75c2.604-0.982-15.616,0.615-15,0.75  c1.619,0.28-20.81-11.573-15-24C423.407,393.756,444.429,406.079,446.75,406.39z"/>
<path fill-rule="evenodd" clip-rule="evenodd" fill="#F1F67B" d="M444.5,425.89c1.899-13.919,12.222-42.932,21.75-20.25  c-1.441-3.43-8.094,25.132-4.5,22.5C455.003,433.081,453.39,434.33,444.5,425.89z"/>
<path fill-rule="evenodd" clip-rule="evenodd" d="M444.5,425.89c4.992-10.46,3.438-32.818,21.75-23.25c-1,0-1,0,0,0  C453.679,414.125,465.568,441.945,444.5,425.89c-0.172-0.906,1.174,2.776-1.5,1.5c13.369,13.205,25.156,5.701,18-11.25  c-2.061-0.354-2.061,0.146,0,1.5C486.632,392.497,429.681,391.166,444.5,425.89z"/>
<path fill-rule="evenodd" clip-rule="evenodd" fill="#F1F67B" d="M427.25,482.14C467.11,500.106,475.358,364.056,427.25,482.14  L427.25,482.14z"/>
<path fill-rule="evenodd" clip-rule="evenodd" d="M427.25,482.14c8.368,7.847,22.979,3.775,21.75-9.75  c3.905-4.031,8.293-12.597,9-18.75c6.833-2.072,15.521-14.615,4.5-21.75c-19.247-12.461-35.216,46.849-36,51.75  c6.705-9.08,15.533-30.49,17.25-42c1.271-0.661,13.926-6.182,18-6.75c-6.475,0.121,4.162,3.525,3.75,3  c-2.527,0.579-3.027,0.829-1.5,0.75c-1,0-1,0,0,0C458.886,455.133,443.86,489.563,427.25,482.14z"/>
<path fill-rule="evenodd" clip-rule="evenodd" fill="#F1F67B" d="M418.25,468.64c-9.428,29.472,16.199-1.946,21.75-11.25  C433.017,460.102,422.311,465.714,418.25,468.64z"/>
<path fill-rule="evenodd" clip-rule="evenodd" d="M416.75,467.89c-11.642,31.443,18.226,2.108,24.75-9.75  c-6.732-0.691-17.303,2.976-24.75,8.25c0.5,1.25,1,2.5,1.5,3.75c7.08-1.947,16.381-7.162,22.5-11.25  c-0.421-1.237-1.171-2.237-2.25-3c-2.718,4.993-7.858,14.314-9,16.5c-1.216,1.225-9.166,7.019-12,9c0-1,0-1,0,0  C419.5,476.426,416.6,469.235,416.75,467.89z"/>
<path fill-rule="evenodd" clip-rule="evenodd" fill="#F1F67B" d="M395,485.89C370.185,464.459,426.818,457.319,395,485.89  L395,485.89z"/>
<path fill-rule="evenodd" clip-rule="evenodd" d="M395,485.89c1.138,0.615-3.997-6.093-5.25-6.75c-1.83,6.458,6.02-16.545,6-16.5  c-5.028-0.325,10.977,4.23,7.5,2.25c0.114-4.822-3.505,19.415-1.5,13.5c2.103-2.029-8.084,6.646-8.25,6.75  c1.539,0.249,3.329-0.862,3,2.25c5.876-5.769,11.227-35.902-1.5-27C379.326,471.355,390.344,486.366,395,485.89z"/>
<path fill-rule="evenodd" clip-rule="evenodd" fill="#F1F67B" d="M388.25,470.14c-7.964,21.341,10.905,1.612,19.453-0.188  C475.208,455.741,400.544,436.081,388.25,470.14z"/>
<path fill-rule="evenodd" clip-rule="evenodd" d="M388.25,470.14c-12.008,15.138,10.697,14.414,15,0.75  c12.965,0.453,30.207-1.616,39.75-13.5c-10.566-22.505-50.761-6.547-57,12c2.73,1.282,2.98,1.032,0.75-0.75  c0.763,1.079,1.763,1.829,3,2.25c0.022-0.176,3.045-11.742,2.25-9.75c10.749-0.89,29.878-7.647,39.75-13.5  c-5.136-3.312,10.035,13.761,8.25,9.75c3.364-3.521-11.538,9.256-8.25,7.5C416.695,460.409,385.616,486.897,388.25,470.14z"/>
<path fill-rule="evenodd" clip-rule="evenodd" fill="#F1F67B" d="M409.25,369.64c-16.305,3.527-69.588,6.244-53.25,30.75  c15.511,23.267,46.5-0.534,63-10.5C413.465,383.333,413.076,376.507,409.25,369.64z"/>
<path fill-rule="evenodd" clip-rule="evenodd" d="M409.25,369.64c-5.673-1.824-23.515,6.484-26.25,8.25  c-67.259,0.725-9.106,44.892,4.5,28.5c24.813-8.22,37.424-10.366,22.5-38.25c-1.421,9.468,2.505,18.353,9,21.75  c-12.527,2.861-35.194,12.188-39,21c-14.569-1.476-26.762-12.502-27-27c2.881,0.814-0.003-0.132,0,0  c1.539-0.019,0.326,0.586,0.75,0.75C373.139,381.055,396.642,377.464,409.25,369.64z"/>
<path fill-rule="evenodd" clip-rule="evenodd" fill="#F1F67B" d="M436.25,464.14c-9.229-12.207-10.479-35.945,5.25-42  C475.882,408.906,438.301,461.293,436.25,464.14z"/>
<path fill-rule="evenodd" clip-rule="evenodd" d="M437.75,462.64c-8.503-11.435-5.899-26.642-3-37.5  c7.846-2.382,20.481,2.762,26.25,8.25c-7.882,4.301-22.855,21.687-24,30.75c8.861-10.164,31.104-24.324,21.375-36  c-4.213-5.055-13.945-10.311-20.625-7.5C422.547,427.039,425.893,461.172,437.75,462.64z"/>
<path fill-rule="evenodd" clip-rule="evenodd" fill="#F1F67B" d="M408.5,449.89c14.521-20.251,56.178,5.942-3,7.5  C406.5,454.89,407.5,452.39,408.5,449.89z"/>
<path fill-rule="evenodd" clip-rule="evenodd" d="M408.5,449.89c6.63-6.1,33.529-13.791,24,5.25c1,0,1,0,0,0  c-0.216-0.889,1.462,1.562,1.5,1.5c-5.973-2.131-21.332-1.38-28.5,0.75c0.121-0.227,8.095-8.8,4.5-6  c-0.763-1.079-1.763-1.829-3-2.25c-1.816,3.269-2.231,7.189-3.75,10.5C474.291,456.988,416.311,426.961,408.5,449.89z"/>
<path fill-rule="evenodd" clip-rule="evenodd" fill="#F1F67B" d="M452,443.89c-4.445,14.948-3.378,36.951-24.75,33.75  C432.462,465.055,442.991,454.306,452,443.89z"/>
<path fill-rule="evenodd" clip-rule="evenodd" d="M452,443.89c-8.334,11.183-2.607,34.326-24,32.25c1,0,1,0,0,0c1,0,1,0,0,0  c1,0,1,0,0,0c8.071-10.032,17.12-21.045,25.5-31.5c-3.89-0.593-1.313,0.045-3-2.25c-49.6,55.924,5.637,32.665-3,13.5  C451.752,449.972,457.075,442.867,452,443.89z"/>
<path fill-rule="evenodd" clip-rule="evenodd" fill="#F1F67B" d="M395.75,485.89c3.007-21.608,24.143-21.792,42-22.5  C424.023,471.093,409.084,475.327,395.75,485.89z"/>
<path fill-rule="evenodd" clip-rule="evenodd" d="M395.75,485.89c7.387-21.033,28.413-16.179,42-22.5  c-1.057,0.412-0.188,1.923-1.5,0c-0.513,0.021,3.819,1.11,0,0c0.555-0.482-0.029-0.214,0.75,0c-1,0-1,0,0,0c-1,0-1,0,0,0  c-16.61,4.179-28.111,11.43-42,20.25c2.123,2.705,1.49,1.524,1.5,3.75c8.305-4.76,15.311-8.658,17.25-15  c6.812,1.123,18.905-2.207,26.25-9c-0.677-0.323-0.927-0.823-0.75-1.5c-13.197,0.049-27.751-0.172-38.25,8.25  C392.275,477.139,393.072,486.196,395.75,485.89z"/>
<path fill-rule="evenodd" clip-rule="evenodd" fill="#F1F67B" d="M383.75,463.39c4.768,19.469,28.938,0.266,27-9  C407.601,439.336,383.693,449.792,383.75,463.39z"/>
<path fill-rule="evenodd" clip-rule="evenodd" d="M383.75,463.39c-2.358,23.256,29.307,4.535,28.5-6.75  c-1.245-17.417-31.089-12.698-30,6.75c1.25,0,2.5,0,3.75,0c0.721-15.032,12.623-17.475,24-9c-1,0-1,0,0,0  C402.317,464.844,389.599,478.092,383.75,463.39z"/>
<path fill-rule="evenodd" clip-rule="evenodd" fill="#F1F67B" d="M446.75,406.39c-1.854-11.588-7.752-21.438-18-27  C434.75,388.39,440.75,397.39,446.75,406.39z"/>
<path fill-rule="evenodd" clip-rule="evenodd" d="M448.25,405.64c-2.21-12.024-8.077-22.162-18.75-27.75  C433.544,383.387,443.395,400.666,448.25,405.64z"/>
<path fill-rule="evenodd" clip-rule="evenodd" fill="#F1F67B" d="M443.75,404.89c-2.538-2.559-23.826-38.099-30.75-27  C405.095,390.562,433.906,402.67,443.75,404.89z"/>
<path fill-rule="evenodd" clip-rule="evenodd" d="M443.75,404.89c-4.614-7.093-18.637-37.772-31.5-28.125  c-15.239,11.429,23.12,28.093,31.5,29.625C443.207,401.921,445.261,403.784,443.75,404.89c-7.938-4.089-25.176-15.503-32.25-18.75  C420.677,365.394,438.523,406.149,443.75,404.89z"/>
</svg>