<svg xmlns="http://www.w3.org/2000/svg" xmlns:xlink="http://www.w3.org/1999/xlink" version="1.1" id="Layer_1" x="0px" y="0px" enable-background="new 0 0 822.05 841.89" xml:space="preserve" viewBox="223.56 285.96 371.87 271.77">
<path fill-rule="evenodd" clip-rule="evenodd" fill="#A18268" stroke="#000000" stroke-width="2" stroke-linecap="square" stroke-miterlimit="10" d="  M292.75,487.957c-10.981-3.586-5.2-6.33,4.633-12.226c31.73-19.021,63.459-38.044,95.189-57.066  c65.597-39.325,131.193-78.651,196.791-117.977c11.665-6.993,0.317,8.814-5.351,12.22c-32.74,19.677-65.481,39.354-98.223,59.032  C421.443,410.612,357.097,449.285,292.75,487.957z"/>
<path fill-rule="evenodd" clip-rule="evenodd" fill="#ED1C24" stroke="#000000" stroke-width="2" stroke-linecap="square" stroke-miterlimit="10" d="  M330.25,424.957c-14.688,32.828-65.487,11.393-51.75-21.75C292.368,369.751,342.642,390.963,330.25,424.957z"/>
<path fill-rule="evenodd" clip-rule="evenodd" fill="#A18268" stroke="#000000" stroke-width="2" stroke-linecap="square" stroke-miterlimit="10" d="  M325.75,553.957c-23.957,13.322-46.027-24.93-58.377-39.109c-8.149-9.355-57.709-51.055-38.373-70.391  c20.521-20.521,50.972,27.867,59.545,37.94C301.888,498.076,342.868,529.024,325.75,553.957z"/>
<path fill="none" stroke="#000000" stroke-width="2" stroke-linecap="square" stroke-miterlimit="10" d="M299.5,550.207  c3.059-15,16.929-23.569,30.75-15.75"/>
<path fill-rule="evenodd" clip-rule="evenodd" fill="#ED1C24" stroke="#000000" stroke-width="2" stroke-linecap="square" stroke-miterlimit="10" d="  M241,481.207c2.947-13.435,14.796-21.907,28.5-18.75C251.875,429.002,215.003,464.453,241,481.207z"/>
<path fill-rule="evenodd" clip-rule="evenodd" fill="#ED1C24" stroke="#000000" stroke-width="2" stroke-linecap="square" stroke-miterlimit="10" d="  M309.25,508.957c-15.282,1.799-33.915,17.588-18.75,31.5c7.055-11.423,16.589-21.936,30.75-19.5  C317.394,517.1,313.749,511.997,309.25,508.957z"/>
<path fill-rule="evenodd" clip-rule="evenodd" fill="#C4C6C8" stroke="#000000" stroke-width="2" stroke-linecap="square" stroke-miterlimit="10" d="  M353.5,370.207c-1.121-19.057-15.087-62.884,7.482-64.608c32.256-2.464,64.512-4.928,96.768-7.392c0,20,0,40,0,60  c19.722-3.157,9.75-52.901,9.75-71.25c-37.792,2.403-75.583,4.806-113.375,7.209c-31.489,2.002-13.431,51.085-11.875,77.541  C346,371.207,349.75,370.707,353.5,370.207z"/>
</svg>