<svg xmlns="http://www.w3.org/2000/svg" xmlns:xlink="http://www.w3.org/1999/xlink" version="1.1" id="Layer_1" x="0px" y="0px" enable-background="new 0 0 822.05 841.89" xml:space="preserve" viewBox="206.76 265.92 407.75 312.49">
<path fill-rule="evenodd" clip-rule="evenodd" fill="#6D6F71" stroke="#000000" stroke-width="2" stroke-linecap="square" stroke-miterlimit="10" d="  M230.257,428.157c34.398-9.459,68.797-18.919,103.196-28.379c24.617-6.77,36.755,6.526,59.248,19.093  c64.603,36.095,129.204,72.19,193.807,108.286c-34.598,13.881-69.196,27.761-103.794,41.642  c-27.588,11.068-30.21,2.952-55.81-13.588C361.354,512.859,295.806,470.508,230.257,428.157z"/>
<path fill-rule="evenodd" clip-rule="evenodd" fill="#FFFFFF" stroke="#000000" stroke-width="2" stroke-linecap="square" stroke-miterlimit="10" d="  M258.757,447.657c30.17-9.67,110.033-54.646,135.75-26.25c-25.122,9.57-50.244,19.141-75.366,28.711  C288.087,461.948,286.871,465.021,258.757,447.657z"/>
<path fill-rule="evenodd" clip-rule="evenodd" fill="#FFFFFF" stroke="#000000" stroke-width="2" stroke-linecap="square" stroke-miterlimit="10" d="  M318.007,484.407c26.689,19.183,27.205,16.135,57.864,5.462c28.212-9.82,56.424-19.642,84.636-29.462  c-27.396-16.564-28.841-20.845-57.821-9.411C374.46,462.132,346.233,473.27,318.007,484.407z"/>
<path fill-rule="evenodd" clip-rule="evenodd" fill="#FFFFFF" stroke="#000000" stroke-width="2" stroke-linecap="square" stroke-miterlimit="10" d="  M377.257,523.407c28.317,18.368,27.838,17.964,58.473,5.556c29.259-11.852,58.519-23.704,87.777-35.556  c-31.78-16.999-32.361-17.204-64.828-3.747C431.538,500.909,404.397,512.158,377.257,523.407z"/>
<path fill-rule="evenodd" clip-rule="evenodd" fill="#FFFFFF" stroke="#000000" stroke-width="2" stroke-linecap="square" stroke-miterlimit="10" d="  M461.257,577.407c-8.25-4.5-16.5-9-24.75-13.5c26.723-11.618,53.446-23.237,80.169-34.856c34.62-15.052,36.693-19.737,69.831-1.894  C544.757,543.907,503.007,560.657,461.257,577.407z"/>
<path fill-rule="evenodd" clip-rule="evenodd" fill="#BCBEC0" stroke="#000000" stroke-width="2" stroke-linecap="square" stroke-miterlimit="10" d="  M568.507,542.907c35.437,18.657,25.894-72.756,24.75-90.75c-2.873-45.187-2.532-102.602-0.75-153c-1.5,0-3,0-4.5,0  C582.461,382.775,569.948,460.74,568.507,542.907z"/>
<path fill-rule="evenodd" clip-rule="evenodd" fill="#FFDB78" stroke="#000000" stroke-width="2" stroke-linecap="square" stroke-miterlimit="10" d="  M613.507,287.157c-0.525,27.083-42.067,27.43-42,0C571.573,259.961,612.781,260.381,613.507,287.157z"/>
<path fill-rule="evenodd" clip-rule="evenodd" fill="#BCBEC0" stroke="#000000" stroke-width="2" stroke-linecap="square" stroke-miterlimit="10" d="  M207.757,434.157c21.491,5.948,14.676-38.794,14.25-53.25c-0.772-26.195-1.765-60.557-0.75-90  C206.978,324.148,208.346,394.689,207.757,434.157z"/>
<path fill-rule="evenodd" clip-rule="evenodd" fill="#FFDB78" stroke="#000000" stroke-width="2" stroke-linecap="square" stroke-miterlimit="10" d="  M234.007,283.407c-2.829,15.022-24.445,17.683-24.75,0C208.955,265.913,230.34,270.449,234.007,283.407z"/>
</svg>