<svg xmlns="http://www.w3.org/2000/svg" xmlns:xlink="http://www.w3.org/1999/xlink" version="1.1" id="Layer_1" x="0px" y="0px" enable-background="new 0 0 822.05 841.89" xml:space="preserve" viewBox="317.72 251.23 185.3 337.96">
<path fill-rule="evenodd" clip-rule="evenodd" fill="#C2BB62" d="M355.02,354.664c36.443,7.607,77.753,11.837,113.25-2.25  C440.922,335.768,376.416,316.292,355.02,354.664z"/>
<path fill="none" stroke="#000000" stroke-width="2" stroke-linecap="square" stroke-miterlimit="10" d="M355.02,354.664  c36.443,7.607,77.753,11.837,113.25-2.25c-27.626-16.816-89.04-35.604-112.5,0.75"/>
<path fill-rule="evenodd" clip-rule="evenodd" fill="#FFF799" stroke="#000000" stroke-width="2" stroke-linecap="square" stroke-miterlimit="10" d="  M333.27,288.664c4.142,11.872,12.428,58.937,22.5,64.5c8.646,4.775,47.085-5.653,58.502-6c16.808-0.51,33.561-0.324,49.873,4.125  c8.945,2.44,21.69-53.453,25.125-64.125c-10.5,12.5-21,25-31.5,37.5c-2.25-14.25-4.5-28.5-6.75-42.75c-7.5,13.25-15,26.5-22.5,39.75  c-4.749-15.25-9.499-30.5-14.248-45.75c-5.75,15.25-11.501,30.5-17.252,45.75c-8.25-15-16.5-30-24.75-45  c-1.5,16.25-3,32.5-4.5,48.75C356.27,313.164,344.77,300.914,333.27,288.664z"/>
<path fill-rule="evenodd" clip-rule="evenodd" fill="#FFF799" stroke="#000000" stroke-width="2" stroke-linecap="square" stroke-miterlimit="10" d="  M337.77,278.914c-3.083,10.346-18.75,15.59-18.75,0S334.687,268.567,337.77,278.914z"/>
<path fill-rule="evenodd" clip-rule="evenodd" fill="#FFF799" stroke="#000000" stroke-width="2" stroke-linecap="square" stroke-miterlimit="10" d="  M379.77,266.164C361.503,306.234,362.763,224.68,379.77,266.164L379.77,266.164z"/>
<path fill-rule="evenodd" clip-rule="evenodd" fill="#FFF799" stroke="#000000" stroke-width="2" stroke-linecap="square" stroke-miterlimit="10" d="  M424.02,265.414C407.877,311.1,407.877,219.727,424.02,265.414L424.02,265.414z"/>
<path fill-rule="evenodd" clip-rule="evenodd" fill="#FFF799" stroke="#000000" stroke-width="2" stroke-linecap="square" stroke-miterlimit="10" d="  M502.02,278.164C482.136,321.44,487.379,233.588,502.02,278.164L502.02,278.164z"/>
<path fill-rule="evenodd" clip-rule="evenodd" fill="#FFF799" stroke="#000000" stroke-width="2" stroke-linecap="square" stroke-miterlimit="10" d="  M463.02,271.414C444.753,311.484,446.013,229.93,463.02,271.414L463.02,271.414z"/>
<path fill-rule="evenodd" clip-rule="evenodd" fill="#FFF335" stroke="#000000" stroke-width="2" stroke-linecap="square" stroke-miterlimit="10" d="  M351.27,338.164c39.472-11.97,82.186-15.734,121.5-0.75c-0.5,1.75-1,3.5-1.5,5.25c-21.207-5.143-41.966-7.884-63.75-6.75  C391.156,336.765,357,349.884,351.27,338.164z"/>
<path fill-rule="evenodd" clip-rule="evenodd" fill="#C2BB62" d="M355.02,466.416c36.443,7.607,77.753,11.838,113.25-2.25  C440.673,447.368,376.917,428.182,355.02,466.416z"/>
<path fill="none" stroke="#000000" stroke-width="2" stroke-linecap="square" stroke-miterlimit="10" d="M355.02,466.416  c36.443,7.607,77.753,11.838,113.25-2.25c-27.091-16.49-90.802-36.158-112.5,1.5"/>
<path fill-rule="evenodd" clip-rule="evenodd" fill="#FFF799" stroke="#000000" stroke-width="2" stroke-linecap="square" stroke-miterlimit="10" d="  M333.27,400.414c4.057,11.766,12.525,59.913,22.5,65.252c7.913,4.236,47.511-6.416,58.502-6.75  c16.808-0.511,33.561-0.324,49.873,4.125c8.945,2.439,21.69-53.454,25.125-64.127c-10.5,12.5-21,25.001-31.5,37.502  c-2.25-14.251-4.5-28.501-6.75-42.752c-7.5,13.25-15,26.501-22.5,39.752c-4.749-15.25-9.499-30.501-14.248-45.752  c-5.75,15.25-11.501,30.501-17.252,45.752c-8.25-15-16.5-30.001-24.75-45.002c-1.5,16.25-3,32.501-4.5,48.752  C356.27,424.915,344.77,412.664,333.27,400.414z"/>
<path fill-rule="evenodd" clip-rule="evenodd" fill="#FFF799" stroke="#000000" stroke-width="2" stroke-linecap="square" stroke-miterlimit="10" d="  M337.77,390.664c-3.083,10.346-18.75,15.59-18.75,0S334.687,380.317,337.77,390.664z"/>
<path fill-rule="evenodd" clip-rule="evenodd" fill="#FFF799" stroke="#000000" stroke-width="2" stroke-linecap="square" stroke-miterlimit="10" d="  M379.77,377.914C361.503,417.984,362.763,336.43,379.77,377.914L379.77,377.914z"/>
<path fill-rule="evenodd" clip-rule="evenodd" fill="#FFF799" stroke="#000000" stroke-width="2" stroke-linecap="square" stroke-miterlimit="10" d="  M424.02,377.164C407.877,422.85,407.877,331.477,424.02,377.164L424.02,377.164z"/>
<path fill-rule="evenodd" clip-rule="evenodd" fill="#FFF799" stroke="#000000" stroke-width="2" stroke-linecap="square" stroke-miterlimit="10" d="  M502.02,389.914C482.136,433.19,487.379,345.338,502.02,389.914L502.02,389.914z"/>
<path fill-rule="evenodd" clip-rule="evenodd" fill="#FFF799" stroke="#000000" stroke-width="2" stroke-linecap="square" stroke-miterlimit="10" d="  M463.02,383.164C444.753,423.234,446.013,341.68,463.02,383.164L463.02,383.164z"/>
<path fill-rule="evenodd" clip-rule="evenodd" fill="#FFF335" stroke="#000000" stroke-width="2" stroke-linecap="square" stroke-miterlimit="10" d="  M351.27,449.916c39.472-11.97,82.186-15.734,121.5-0.75c-0.5,1.75-1,3.5-1.5,5.25c-21.195-5.141-41.975-7.913-63.75-6.75  C391.071,448.543,357.043,461.724,351.27,449.916z"/>
<path fill-rule="evenodd" clip-rule="evenodd" fill="#C2BB62" d="M355.02,581.916c36.9,7.662,77.425,10.04,113.25-3  C441.264,562.477,374.955,542.388,355.02,581.916z"/>
<path fill="none" stroke="#000000" stroke-width="2" stroke-linecap="square" stroke-miterlimit="10" d="M355.02,581.916  c36.9,7.662,77.425,10.04,113.25-3c-27.091-16.49-90.802-36.158-112.5,1.5"/>
<path fill-rule="evenodd" clip-rule="evenodd" fill="#FFF799" stroke="#000000" stroke-width="2" stroke-linecap="square" stroke-miterlimit="10" d="  M333.27,515.166c4.106,11.907,12.419,59.728,22.5,65.25c8.488,4.649,47.146-6.466,58.502-6.75  c16.424-0.411,33.913-0.228,49.873,4.125c8.96,2.443,21.672-52.77,25.125-63.375c-10.5,12.25-21,24.5-31.5,36.75  c-2.25-14.25-4.5-28.5-6.75-42.75c-7.5,13.5-15,27-22.5,40.5c-4.749-15.5-9.499-31-14.248-46.5  c-5.75,15.25-11.501,30.5-17.252,45.75c-8.25-15-16.5-30-24.75-45c-1.5,16.25-3,32.5-4.5,48.75  C356.27,539.666,344.77,527.416,333.27,515.166z"/>
<path fill-rule="evenodd" clip-rule="evenodd" fill="#FFF799" stroke="#000000" stroke-width="2" stroke-linecap="square" stroke-miterlimit="10" d="  M337.77,505.416c-3.105,11.992-15.861,14.318-18.75,0C316.198,491.428,334.408,496.796,337.77,505.416z"/>
<path fill-rule="evenodd" clip-rule="evenodd" fill="#FFF799" stroke="#000000" stroke-width="2" stroke-linecap="square" stroke-miterlimit="10" d="  M379.77,492.666C361.503,532.736,362.763,451.182,379.77,492.666L379.77,492.666z"/>
<path fill-rule="evenodd" clip-rule="evenodd" fill="#FFF799" stroke="#000000" stroke-width="2" stroke-linecap="square" stroke-miterlimit="10" d="  M424.02,491.916C406.896,534.265,405.659,451.019,424.02,491.916L424.02,491.916z"/>
<path fill-rule="evenodd" clip-rule="evenodd" fill="#FFF799" stroke="#000000" stroke-width="2" stroke-linecap="square" stroke-miterlimit="10" d="  M502.02,504.666c-4.466,11.962-21.687,13.117-19.125-2.25C485.292,488.033,499.095,495.762,502.02,504.666z"/>
<path fill-rule="evenodd" clip-rule="evenodd" fill="#FFF799" stroke="#000000" stroke-width="2" stroke-linecap="square" stroke-miterlimit="10" d="  M463.02,497.916C446.396,541.167,445.234,454.533,463.02,497.916L463.02,497.916z"/>
<path fill-rule="evenodd" clip-rule="evenodd" fill="#FFF335" stroke="#000000" stroke-width="2" stroke-linecap="square" stroke-miterlimit="10" d="  M351.27,564.666c39.803-12.07,81.72-14.87,121.5-0.75c-0.5,1.75-1,3.5-1.5,5.25c-20.688-5.416-42.479-7.569-63.75-6.75  C390.95,563.053,357.132,576.656,351.27,564.666z"/>
</svg>