<svg xmlns="http://www.w3.org/2000/svg" xmlns:xlink="http://www.w3.org/1999/xlink" version="1.1" id="Layer_1" x="0px" y="0px" enable-background="new 0 0 822.05 841.89" xml:space="preserve" viewBox="217.76 309.25 386.75 227.07">
<path fill-rule="evenodd" clip-rule="evenodd" fill="#C2BB62" d="M295.264,519.907c73.502,16.644,167.318,26.389,237.75-6  c-38.216-23.486-59.399-46.458-103.428-38.742C383.591,483.226,322.966,478.492,295.264,519.907z"/>
<path fill="none" stroke="#000000" stroke-width="2" stroke-linecap="square" stroke-miterlimit="10" d="M295.264,519.907  c73.502,16.644,167.318,26.389,237.75-6c-38.216-23.486-59.399-46.458-103.428-38.742c-46.95,8.229-101.029,4.862-132.822,41.742"/>
<path fill-rule="evenodd" clip-rule="evenodd" fill="#FFF799" stroke="#000000" stroke-width="2" stroke-linecap="square" stroke-miterlimit="10" d="  M248.764,380.407c15.884,45.17,31.768,90.34,47.652,135.511c0.422,1.199,106.053-11.938,117.737-12.872  c19.449-1.556,39.625-0.772,59.056,0.723c9.559,0.735,53.346,13.873,59.806,10.139c10.116-5.849,18.568-57.278,22.125-68.25  c7.375-22.75,14.75-45.5,22.125-68.25c-22,26-44,52-66,78c-4.75-30-9.5-60-14.25-90c-16,28.25-32,56.5-48,84.75  c-9.75-32.25-19.5-64.5-29.25-96.75c-12.25,32-24.5,64-36.75,96c-17.25-31.75-34.5-63.5-51.75-95.25  c-3.25,34.25-6.5,68.5-9.75,102.75C297.264,431.407,273.014,405.907,248.764,380.407z"/>
<path fill-rule="evenodd" clip-rule="evenodd" fill="#FFF799" stroke="#000000" stroke-width="2" stroke-linecap="square" stroke-miterlimit="10" d="  M258.514,359.407c-0.367,27.985-39.992,27.965-39.75,0C219.004,331.634,257.713,332.016,258.514,359.407z"/>
<path fill-rule="evenodd" clip-rule="evenodd" fill="#FFF799" stroke="#000000" stroke-width="2" stroke-linecap="square" stroke-miterlimit="10" d="  M346.264,331.657c-0.593,27.74-39.993,28.074-39.75,0C306.754,303.859,345.326,304.387,346.264,331.657z"/>
<path fill-rule="evenodd" clip-rule="evenodd" fill="#FFF799" stroke="#000000" stroke-width="2" stroke-linecap="square" stroke-miterlimit="10" d="  M440.014,330.907c-1.45,27.754-39.993,28.056-39.75,0C400.503,303.187,438.603,303.535,440.014,330.907z"/>
<path fill-rule="evenodd" clip-rule="evenodd" fill="#FFF799" stroke="#000000" stroke-width="2" stroke-linecap="square" stroke-miterlimit="10" d="  M603.514,357.157c-0.056,28.059-39.916,27.81-39.75,0C563.928,329.662,603.092,329.524,603.514,357.157z"/>
<path fill-rule="evenodd" clip-rule="evenodd" fill="#FFF799" stroke="#000000" stroke-width="2" stroke-linecap="square" stroke-miterlimit="10" d="  M521.764,342.907c-1.992,27.501-39.994,28.219-39.75,0C482.254,315.071,519.812,315.729,521.764,342.907z"/>
<path fill-rule="evenodd" clip-rule="evenodd" fill="#FFF335" stroke="#000000" stroke-width="2" stroke-linecap="square" stroke-miterlimit="10" d="  M287.014,484.657c37.508-14.961,82.104-22.5,122.444-22.5c20.194,0,124.839-1.64,133.306,21c7.097,18.976-42.177,2.61-48.75,1.5  c-21.324-3.601-42.364-4.976-63.944-5.806c-46.968-1.807-93.543,6.854-137.806,22.306  C290.639,496.052,287.189,489.959,287.014,484.657z"/>
</svg>