<svg xmlns="http://www.w3.org/2000/svg" xmlns:xlink="http://www.w3.org/1999/xlink" version="1.1" id="Layer_1" x="0px" y="0px" enable-background="new 0 0 822.05 841.89" xml:space="preserve" viewBox="310.28 341.41 197.06 158.19">
<path fill-rule="evenodd" clip-rule="evenodd" fill="#622B11" stroke="#000000" stroke-width="0.5" stroke-linecap="square" stroke-miterlimit="10" d="  M464.256,418.16c-9.257-5.097-12.878-10.62-7.5-21C469.031,401.476,474.078,409.585,464.256,418.16z"/>
<path fill-rule="evenodd" clip-rule="evenodd" fill="#622B11" stroke="#000000" stroke-width="0.5" stroke-linecap="square" stroke-miterlimit="10" d="  M387.004,420.41c15.325,6.002,8.378,13.396-5.25,13.5C376.242,433.952,366.513,415.855,387.004,420.41z"/>
<path fill-rule="evenodd" clip-rule="evenodd" fill="#7A3412" stroke="#000000" stroke-width="0.5" stroke-linecap="square" stroke-miterlimit="10" d="  M465.006,460.16c11.074-7.823,19.736-1.737,21,10.5C478.461,469.504,470.732,465.716,465.006,460.16z"/>
<path fill-rule="evenodd" clip-rule="evenodd" fill="#7A3412" stroke="#000000" stroke-width="0.5" stroke-linecap="square" stroke-miterlimit="10" d="  M394.504,460.16C367.281,453.396,421.044,438.666,394.504,460.16L394.504,460.16z"/>
<path fill-rule="evenodd" clip-rule="evenodd" fill="#7A3412" stroke="#000000" stroke-width="0.5" stroke-linecap="square" stroke-miterlimit="10" d="  M359.254,442.91C398.286,457.491,333.524,473.877,359.254,442.91L359.254,442.91z"/>
<path fill-rule="evenodd" clip-rule="evenodd" fill="#622B11" stroke="#000000" stroke-width="0.5" stroke-linecap="square" stroke-miterlimit="10" d="  M387.004,433.16C422.627,452.438,352.956,452.561,387.004,433.16L387.004,433.16z"/>
<path fill-rule="evenodd" clip-rule="evenodd" fill="#622B11" stroke="#000000" stroke-width="0.5" stroke-linecap="square" stroke-miterlimit="10" d="  M382.504,409.16C385.395,446.459,344.844,405.298,382.504,409.16L382.504,409.16z"/>
<path fill-rule="evenodd" clip-rule="evenodd" fill="#7A3412" stroke="#000000" stroke-width="0.5" stroke-linecap="square" stroke-miterlimit="10" d="  M459.006,457.16C483.412,453.046,468.828,478.773,459.006,457.16L459.006,457.16z"/>
<path fill-rule="evenodd" clip-rule="evenodd" fill="#7A3412" stroke="#000000" stroke-width="0.5" stroke-linecap="square" stroke-miterlimit="10" d="  M449.256,476.66C474.327,499.953,466.707,441.614,449.256,476.66L449.256,476.66z"/>
<path fill-rule="evenodd" clip-rule="evenodd" fill="#7A3412" stroke="#000000" stroke-width="0.5" stroke-linecap="square" stroke-miterlimit="10" d="  M484.506,421.91c-3.458,8.222-8.35,12.489-18.75,11.25C468.896,422.936,474.981,421.662,484.506,421.91z"/>
<path fill-rule="evenodd" clip-rule="evenodd" fill="#622B11" stroke="#000000" stroke-width="0.5" stroke-linecap="square" stroke-miterlimit="10" d="  M445.506,442.16C472.812,430.484,453.514,469.173,445.506,442.16L445.506,442.16z"/>
<path fill-rule="evenodd" clip-rule="evenodd" fill="#622B11" stroke="#000000" stroke-width="0.5" stroke-linecap="square" stroke-miterlimit="10" d="  M481.506,457.16C467.163,482,512.44,470.394,481.506,457.16L481.506,457.16z"/>
<path fill-rule="evenodd" clip-rule="evenodd" fill="#7A3412" stroke="#000000" stroke-width="0.5" stroke-linecap="square" stroke-miterlimit="10" d="  M475.506,433.91c-8.956,2.998-13.893,7.373-12,18C474.782,449.104,476.543,443.088,475.506,433.91z"/>
<path fill-rule="evenodd" clip-rule="evenodd" fill="#622B11" stroke="#000000" stroke-width="0.5" stroke-linecap="square" stroke-miterlimit="10" d="  M408.004,471.41c3.848-6.019,19.03-12.025,23.252-1.5C435.651,480.868,412.668,484.396,408.004,471.41z"/>
<path fill-rule="evenodd" clip-rule="evenodd" fill="#7A3412" stroke="#000000" stroke-width="0.5" stroke-linecap="square" stroke-miterlimit="10" d="  M387.754,407.66c-3.152-9.546,4.506-13.557,15-6.75C415.653,409.276,402.961,424.809,387.754,407.66z"/>
<path fill-rule="evenodd" clip-rule="evenodd" fill="#622B11" stroke="#000000" stroke-width="0.5" stroke-linecap="square" stroke-miterlimit="10" d="  M408.004,396.41C441.15,423.357,382.746,419.678,408.004,396.41L408.004,396.41z"/>
<path fill-rule="evenodd" clip-rule="evenodd" fill="#7A3412" stroke="#000000" stroke-width="0.5" stroke-linecap="square" stroke-miterlimit="10" d="  M385.504,427.91c6.919-7.326,30.856-9.57,26.252,6.75C407.177,450.886,388.071,437.936,385.504,427.91z"/>
<path fill-rule="evenodd" clip-rule="evenodd" fill="#7A3412" stroke="#000000" stroke-width="0.5" stroke-linecap="square" stroke-miterlimit="10" d="  M429.756,460.16C406.539,489.604,428.601,416.349,429.756,460.16L429.756,460.16z"/>
<path fill-rule="evenodd" clip-rule="evenodd" fill="#622B11" stroke="#000000" stroke-width="0.5" stroke-linecap="square" stroke-miterlimit="10" d="  M412.506,426.41C444.15,441.861,394.268,456.012,412.506,426.41L412.506,426.41z"/>
<path fill-rule="evenodd" clip-rule="evenodd" fill="#622B11" stroke="#000000" stroke-width="0.5" stroke-linecap="square" stroke-miterlimit="10" d="  M423.006,454.16c11.176-1.911,14.567-8.887,10.5-19.5C420.438,436.89,411.776,444.418,423.006,454.16z"/>
<path fill-rule="evenodd" clip-rule="evenodd" fill="#7A3412" stroke="#000000" stroke-width="0.5" stroke-linecap="square" stroke-miterlimit="10" d="  M410.256,462.41c5.848-4.907,11.356-4.911,4.5-16.5C403.43,453.184,407.496,456.067,410.256,462.41z"/>
<path fill-rule="evenodd" clip-rule="evenodd" fill="#7A3412" stroke="#000000" stroke-width="0.5" stroke-linecap="square" stroke-miterlimit="10" d="  M321.754,381.41C288.276,393.847,342.373,415.483,321.754,381.41L321.754,381.41z"/>
<path fill-rule="evenodd" clip-rule="evenodd" fill="#7A3412" stroke="#000000" stroke-width="0.5" stroke-linecap="square" stroke-miterlimit="10" d="  M418.506,341.66C443.748,352.312,399.066,370.339,418.506,341.66L418.506,341.66z"/>
<path fill-rule="evenodd" clip-rule="evenodd" fill="#7A3412" stroke="#000000" stroke-width="0.5" stroke-linecap="square" stroke-miterlimit="10" d="  M392.254,361.91C397.855,379.442,376.817,373.994,392.254,361.91L392.254,361.91z"/>
<path fill-rule="evenodd" clip-rule="evenodd" fill="#622B11" stroke="#000000" stroke-width="0.5" stroke-linecap="square" stroke-miterlimit="10" d="  M419.256,363.41C453.683,344.798,426.699,397.719,419.256,363.41L419.256,363.41z"/>
<path fill-rule="evenodd" clip-rule="evenodd" fill="#7A3412" stroke="#000000" stroke-width="0.5" stroke-linecap="square" stroke-miterlimit="10" d="  M441.756,373.16C410.113,377.764,464.893,409.226,441.756,373.16L441.756,373.16z"/>
<path fill-rule="evenodd" clip-rule="evenodd" fill="#7A3412" stroke="#000000" stroke-width="0.5" stroke-linecap="square" stroke-miterlimit="10" d="  M447.006,391.91C462.715,406.03,434.285,412.878,447.006,391.91L447.006,391.91z"/>
<path fill-rule="evenodd" clip-rule="evenodd" fill="#7A3412" stroke="#000000" stroke-width="0.5" stroke-linecap="square" stroke-miterlimit="10" d="  M378.004,388.16C405.26,375.02,387.532,415.481,378.004,388.16L378.004,388.16z"/>
<path fill-rule="evenodd" clip-rule="evenodd" fill="#7A3412" stroke="#000000" stroke-width="0.5" stroke-linecap="square" stroke-miterlimit="10" d="  M409.504,373.16C382.033,388.249,422.629,403.939,409.504,373.16L409.504,373.16z"/>
<path fill-rule="evenodd" clip-rule="evenodd" fill="#622B11" stroke="#000000" stroke-width="0.5" stroke-linecap="square" stroke-miterlimit="10" d="  M429.756,385.91C448.171,416.7,396.542,388.387,429.756,385.91L429.756,385.91z"/>
<path fill-rule="evenodd" clip-rule="evenodd" fill="#7A3412" stroke="#000000" stroke-width="0.5" stroke-linecap="square" stroke-miterlimit="10" d="  M426.756,373.91C401.031,388.183,432.828,401.785,426.756,373.91L426.756,373.91z"/>
<path fill-rule="evenodd" clip-rule="evenodd" fill="#7A3412" stroke="#000000" stroke-width="0.5" stroke-linecap="square" stroke-miterlimit="10" d="  M411.756,410.66C374.767,411.562,415.734,442.832,411.756,410.66L411.756,410.66z"/>
<path fill-rule="evenodd" clip-rule="evenodd" fill="#622B11" stroke="#000000" stroke-width="0.5" stroke-linecap="square" stroke-miterlimit="10" d="  M434.256,414.41C415.235,395.836,452.748,395.208,434.256,414.41L434.256,414.41z"/>
<path fill-rule="evenodd" clip-rule="evenodd" fill="#7A3412" stroke="#000000" stroke-width="0.5" stroke-linecap="square" stroke-miterlimit="10" d="  M492.006,426.41C462.186,452.715,520.344,443.283,492.006,426.41L492.006,426.41z"/>
<path fill-rule="evenodd" clip-rule="evenodd" fill="#7A3412" stroke="#000000" stroke-width="0.5" stroke-linecap="square" stroke-miterlimit="10" d="  M355.504,412.91C380.704,420.164,353.347,440.364,355.504,412.91L355.504,412.91z"/>
<path fill-rule="evenodd" clip-rule="evenodd" fill="#7A3412" stroke="#000000" stroke-width="0.5" stroke-linecap="square" stroke-miterlimit="10" d="  M396.754,466.16C425.352,458.904,401.799,499.22,396.754,466.16L396.754,466.16z"/>
<path fill-rule="evenodd" clip-rule="evenodd" fill="#7A3412" stroke="#000000" stroke-width="0.5" stroke-linecap="square" stroke-miterlimit="10" d="  M357.004,474.41C387.757,474.506,355.412,509.647,357.004,474.41L357.004,474.41z"/>
<path fill-rule="evenodd" clip-rule="evenodd" fill="#7A3412" stroke="#000000" stroke-width="0.5" stroke-linecap="square" stroke-miterlimit="10" d="  M420.756,488.66C446.553,478.706,431.173,517.081,420.756,488.66L420.756,488.66z"/>
<path fill-rule="evenodd" clip-rule="evenodd" fill="#7A3412" stroke="#000000" stroke-width="0.5" stroke-linecap="square" stroke-miterlimit="10" d="  M461.256,488.66C499.012,495.475,451.871,450.478,461.256,488.66L461.256,488.66z"/>
<path fill-rule="evenodd" clip-rule="evenodd" fill="#7A3412" stroke="#000000" stroke-width="0.5" stroke-linecap="square" stroke-miterlimit="10" d="  M444.756,428.66C460.217,408.833,471.867,447.317,444.756,428.66L444.756,428.66z"/>
<path fill-rule="evenodd" clip-rule="evenodd" fill="#7A3412" stroke="#000000" stroke-width="0.5" stroke-linecap="square" stroke-miterlimit="10" d="  M372.754,385.91C365.04,405.841,396.048,399.443,372.754,385.91L372.754,385.91z"/>
<path fill-rule="evenodd" clip-rule="evenodd" fill="#7A3412" stroke="#000000" stroke-width="0.5" stroke-linecap="square" stroke-miterlimit="10" d="  M383.254,413.66C364.511,426.639,385.83,436.423,383.254,413.66L383.254,413.66z"/>
<path fill-rule="evenodd" clip-rule="evenodd" fill="#7A3412" stroke="#000000" stroke-width="0.5" stroke-linecap="square" stroke-miterlimit="10" d="  M422.256,466.16C458.397,447.441,434.008,498.935,422.256,466.16L422.256,466.16z"/>
<path fill-rule="evenodd" clip-rule="evenodd" fill="#7A3412" stroke="#000000" stroke-width="0.5" stroke-linecap="square" stroke-miterlimit="10" d="  M433.506,454.16C464.905,430.11,440.689,488.806,433.506,454.16L433.506,454.16z"/>
<path fill-rule="evenodd" clip-rule="evenodd" fill="#622B11" stroke="#000000" stroke-width="0.5" stroke-linecap="square" stroke-miterlimit="10" d="  M351.754,467.66C339.48,438.967,386.306,462.582,351.754,467.66L351.754,467.66z"/>
<path fill-rule="evenodd" clip-rule="evenodd" fill="#622B11" stroke="#000000" stroke-width="0.5" stroke-linecap="square" stroke-miterlimit="10" d="  M384.004,478.16C355.453,498.625,379.516,449.365,384.004,478.16L384.004,478.16z"/>
<path fill-rule="evenodd" clip-rule="evenodd" fill="#7A3412" stroke="#000000" stroke-width="0.5" stroke-linecap="square" stroke-miterlimit="10" d="  M342.754,462.41C357.614,459.777,356.678,467.919,342.754,462.41L342.754,462.41z"/>
<path fill-rule="evenodd" clip-rule="evenodd" fill="#7A3412" stroke="#000000" stroke-width="0.5" stroke-linecap="square" stroke-miterlimit="10" d="  M388.504,469.16C366.516,494.653,364.864,442.427,388.504,469.16L388.504,469.16z"/>
<path fill-rule="evenodd" clip-rule="evenodd" fill="#7A3412" stroke="#000000" stroke-width="0.5" stroke-linecap="square" stroke-miterlimit="10" d="  M376.504,443.66C418.131,456.124,335.881,470.604,376.504,443.66L376.504,443.66z"/>
<path fill-rule="evenodd" clip-rule="evenodd" fill="#7A3412" stroke="#000000" stroke-width="0.5" stroke-linecap="square" stroke-miterlimit="10" d="  M357.004,430.16C389.974,433.458,355.338,459.012,357.004,430.16L357.004,430.16z"/>
<path fill-rule="evenodd" clip-rule="evenodd" fill="#7A3412" stroke="#000000" stroke-width="0.5" stroke-linecap="square" stroke-miterlimit="10" d="  M346.504,430.91C373.837,435.248,345.732,403.638,346.504,430.91L346.504,430.91z"/>
<path fill-rule="evenodd" clip-rule="evenodd" fill="#7A3412" stroke="#000000" stroke-width="0.5" stroke-linecap="square" stroke-miterlimit="10" d="  M362.254,407.66c8.312,9.279,17.654,2.874,22.5-8.25C374.687,396.447,366.27,399.031,362.254,407.66z"/>
<path fill-rule="evenodd" clip-rule="evenodd" fill="#7A3412" stroke="#000000" stroke-width="0.5" stroke-linecap="square" stroke-miterlimit="10" d="  M427.506,418.91C453.982,428.368,417.383,451.457,427.506,418.91L427.506,418.91z"/>
<path fill-rule="evenodd" clip-rule="evenodd" fill="#7A3412" stroke="#000000" stroke-width="0.5" stroke-linecap="square" stroke-miterlimit="10" d="  M482.256,426.41C449.673,425.342,488.66,456.926,482.256,426.41L482.256,426.41z"/>
<path fill-rule="evenodd" clip-rule="evenodd" fill="#7A3412" stroke="#000000" stroke-width="0.5" stroke-linecap="square" stroke-miterlimit="10" d="  M456.006,397.16C484.738,382.944,463.862,429.883,456.006,397.16L456.006,397.16z"/>
<path fill-rule="evenodd" clip-rule="evenodd" fill="#7A3412" stroke="#000000" stroke-width="0.5" stroke-linecap="square" stroke-miterlimit="10" d="  M479.256,485.66C515.399,499.139,467.536,445.835,479.256,485.66L479.256,485.66z"/>
<path fill-rule="evenodd" clip-rule="evenodd" fill="#7A3412" stroke="#000000" stroke-width="0.5" stroke-linecap="square" stroke-miterlimit="10" d="  M496.506,480.41C478.893,500.583,503.253,499.944,496.506,480.41L496.506,480.41z"/>
<path fill-rule="evenodd" clip-rule="evenodd" fill="#7A3412" stroke="#000000" stroke-width="0.5" stroke-linecap="square" stroke-miterlimit="10" d="  M506.256,451.16C512.182,472.191,483.947,464.397,506.256,451.16L506.256,451.16z"/>
<path fill-rule="evenodd" clip-rule="evenodd" fill="#7A3412" stroke="#000000" stroke-width="0.5" stroke-linecap="square" stroke-miterlimit="10" d="  M489.756,451.16c-6.961,9.443-16.211,8.865-24.75,0.75C473.253,444.8,482.116,444.075,489.756,451.16z"/>
<path fill-rule="evenodd" clip-rule="evenodd" fill="#7A3412" stroke="#000000" stroke-width="0.5" stroke-linecap="square" stroke-miterlimit="10" d="  M502.506,460.16C495.012,490.601,473.892,447.347,502.506,460.16L502.506,460.16z"/>
<path fill-rule="evenodd" clip-rule="evenodd" fill="#7A3412" stroke="#000000" stroke-width="0.5" stroke-linecap="square" stroke-miterlimit="10" d="  M453.006,442.91C456.324,421.027,480.222,446.766,453.006,442.91L453.006,442.91z"/>
<path fill-rule="evenodd" clip-rule="evenodd" fill="#7A3412" stroke="#000000" stroke-width="0.5" stroke-linecap="square" stroke-miterlimit="10" d="  M417.006,405.41C434.002,420.948,394.805,425.527,417.006,405.41L417.006,405.41z"/>
<path fill-rule="evenodd" clip-rule="evenodd" fill="#7A3412" stroke="#000000" stroke-width="0.5" stroke-linecap="square" stroke-miterlimit="10" d="  M396.754,447.41C416.583,425.736,418.638,474.574,396.754,447.41L396.754,447.41z"/>
<path fill-rule="evenodd" clip-rule="evenodd" fill="#7A3412" stroke="#000000" stroke-width="0.5" stroke-linecap="square" stroke-miterlimit="10" d="  M419.256,425.66C449.291,435.259,412.58,453.539,419.256,425.66L419.256,425.66z"/>
<path fill-rule="evenodd" clip-rule="evenodd" fill="#7A3412" stroke="#000000" stroke-width="0.5" stroke-linecap="square" stroke-miterlimit="10" d="  M413.256,415.16C390.396,447.44,436.497,426.571,413.256,415.16L413.256,415.16z"/>
<path fill-rule="evenodd" clip-rule="evenodd" fill="#622B11" stroke="#000000" stroke-width="0.5" stroke-linecap="square" stroke-miterlimit="10" d="  M412.506,394.91c-7.217,6.155-10.628,10.254-16.502-0.75C402.878,389.681,406.169,392.85,412.506,394.91z"/>
</svg>