<svg xmlns="http://www.w3.org/2000/svg" xmlns:xlink="http://www.w3.org/1999/xlink" version="1.1" id="Layer_1" x="0px" y="0px" enable-background="new 0 0 822.05 841.89" xml:space="preserve" viewBox="253.76 256.1 317.38 332.73">
<path fill-rule="evenodd" clip-rule="evenodd" fill="#BCBEC0" stroke="#000000" stroke-width="2" stroke-linecap="square" stroke-miterlimit="10" d="  M254.764,357.193c2.956,24.238,2.581,29.714,20.76,45.816c16.57,14.676-3.59,27.547-5.76,47.186c-6.181,55.951,25.421,2.177,48.75,3  c17.21,0.607,33.811,44.058,48,37.5c4.823-2.229,4.929-28.008,4.472-33.723c-2.329-29.113-2.901-25.152,21.528-38.724  c17.381-9.656,32.499-32.88,16.002-46.806c-26.411-22.294-44.833,9.678-54.656-29.616c-9.439-37.754-14.212-32.306-32.945-0.279  C302.921,372.31,270.865,334.35,254.764,357.193z"/>
<path fill-rule="evenodd" clip-rule="evenodd" fill="#BCBEC0" stroke="#000000" stroke-width="2" stroke-linecap="square" stroke-miterlimit="10" d="  M311.764,357.193c4.106-7.02,30.156-65.639,37.472-35.25c2.683,11.142,3.237,33.566,12.028,41.25  c10.324,9.024,34.908-0.634,45.752,7.5c21.565,16.176-21.32,23.301-36.752,34.875c-13.75,10.313,15.917,58.939-2.25,64.877  c-12.877,4.209-32.165-37.957-51-37.5c-24.186,0.588-46.18,39.285-43.5,3c3.594-48.655,30.868-29.134-8.75-68.752  C235.638,338.067,299.179,355.273,311.764,357.193z"/>
<path fill-rule="evenodd" clip-rule="evenodd" fill="#FFFFFF" stroke="#000000" stroke-width="2" stroke-linecap="square" stroke-miterlimit="10" d="  M281.764,384.193c26.194,4.702,27.207,9.044,39.75-14.25c0.954-1.771,11.251-28.051,17.25-27c7.892,1.383,8.662,19.036,9.837,24.461  c6.059,27.964,4.489,27.051,32.913,31.789c-27.926,10.345-19.229,46.047-15,68.252c-40.358-33.277-39.806-36.408-88.5-17.25  C289.77,429.622,304.233,404.123,281.764,384.193z"/>
<path fill-rule="evenodd" clip-rule="evenodd" fill="#FFFFFF" d="M311.764,357.193l-0.75,32.25L311.764,357.193z"/>
<line fill="none" stroke="#000000" stroke-width="2" stroke-linecap="square" stroke-miterlimit="10" x1="311.764" y1="357.193" x2="311.014" y2="389.443"/>
<path fill-rule="evenodd" clip-rule="evenodd" fill="#FFFFFF" d="M361.264,363.193l-6.75,31.5L361.264,363.193z"/>
<line fill="none" stroke="#000000" stroke-width="2" stroke-linecap="square" stroke-miterlimit="10" x1="361.264" y1="363.193" x2="354.514" y2="394.693"/>
<path fill-rule="evenodd" clip-rule="evenodd" fill="#FFFFFF" d="M323.764,432.195l-0.75,20.25L323.764,432.195z"/>
<line fill="none" stroke="#000000" stroke-width="2" stroke-linecap="square" stroke-miterlimit="10" x1="323.764" y1="432.195" x2="323.014" y2="452.445"/>
<path fill-rule="evenodd" clip-rule="evenodd" fill="#BCBEC0" stroke="#000000" stroke-width="2" stroke-linecap="square" stroke-miterlimit="10" d="  M360.514,300.943c2.956,24.238,2.581,29.714,20.76,45.816c16.437,14.558-2.978,27.826-5.76,47.184  c-8.097,56.348,26.305,3.092,48.752,3.75c14.645,0.429,36.405,42.87,46.5,38.252c4.684-2.143,6.972-21.977,6.527-27.53  c-2.741-34.27-3.999-25.526,17.473-44.472c14.138-12.475,40.725-30.944,19.5-48.75c-26.42-22.164-45.084,10.018-54.654-29.13  c-9.407-38.485-13.884-32.443-32.945-0.47C408.635,315.84,376.408,278.258,360.514,300.943z"/>
<path fill-rule="evenodd" clip-rule="evenodd" fill="#BCBEC0" stroke="#000000" stroke-width="2" stroke-linecap="square" stroke-miterlimit="10" d="  M417.516,300.943c4.295-7.205,30.221-65.37,37.473-35.25c2.682,11.142,3.236,33.566,12.027,41.25c10.32,9.02,35.02-0.75,45.75,7.5  c25.22,19.392-29.389,19.243-38.25,36c-6.652,12.579,15.308,59.484-1.5,63.75c-13.716,3.48-30.313-38.246-51-37.5  c-23.628,0.852-44.417,38.859-42.752,3.75c2.338-49.318,31.513-29.237-8.75-69.5C341.411,281.84,404.898,299.018,417.516,300.943z"/>
<path fill-rule="evenodd" clip-rule="evenodd" fill="#FFFFFF" stroke="#000000" stroke-width="2" stroke-linecap="square" stroke-miterlimit="10" d="  M387.514,327.943c22.99,4.715,26.662,10.901,37.518-9.645c1.893-3.583,11.621-30.858,18.734-30.855  c8.714,0.003,9.466,18.535,10.588,23.711c6.059,27.964,4.488,27.051,32.912,31.789c-27.588,10.519-19.471,46.673-15.75,69  c-40.016-34.299-38.915-37.264-87.752-17.25C394.896,374.187,409.75,347.462,387.514,327.943z"/>
<path fill-rule="evenodd" clip-rule="evenodd" fill="#FFFFFF" d="M417.516,300.943l-0.75,33L417.516,300.943z"/>
<line fill="none" stroke="#000000" stroke-width="2" stroke-linecap="square" stroke-miterlimit="10" x1="417.516" y1="300.943" x2="416.766" y2="333.943"/>
<path fill-rule="evenodd" clip-rule="evenodd" fill="#FFFFFF" d="M467.016,307.693l-6.75,30.75L467.016,307.693z"/>
<line fill="none" stroke="#000000" stroke-width="2" stroke-linecap="square" stroke-miterlimit="10" x1="467.016" y1="307.693" x2="460.266" y2="338.443"/>
<path fill-rule="evenodd" clip-rule="evenodd" fill="#FFFFFF" d="M429.516,375.943l-0.75,21L429.516,375.943z"/>
<line fill="none" stroke="#000000" stroke-width="2" stroke-linecap="square" stroke-miterlimit="10" x1="429.516" y1="375.943" x2="428.766" y2="396.943"/>
<path fill-rule="evenodd" clip-rule="evenodd" fill="#BCBEC0" stroke="#000000" stroke-width="2" stroke-linecap="square" stroke-miterlimit="10" d="  M405.514,381.943c1.306,8.701,0.588,22.215,4.502,30c4.488,8.928,28.326,17.34,23.859,27.869  c-9.252,21.809-15.219,37.276-11.859,61.383c16.105-2.929,35.925-25.226,50.25-24c13.289,1.137,32.531,42.784,42.75,39  c12.982-4.808,6.185-50.569,5.473-59.473c-1.265-15.802,63.285-17.075,47.027-53.779c-7.786-17.58-38.157-4.945-50.25-13.5  c-14.574-10.311-7.684-41.933-18.75-49.5c-17.545-11.998-24.906,35.822-36,41.25C444.95,389.787,418.647,363.052,405.514,381.943z"/>
<path fill-rule="evenodd" clip-rule="evenodd" fill="#BCBEC0" stroke="#000000" stroke-width="2" stroke-linecap="square" stroke-miterlimit="10" d="  M462.516,381.193c10.707-17.96,28.996-66.854,39.473-27.194c2.958,11.2,3.661,27.491,12.277,34.694  c9.074,7.586,38.278-2.824,46.5,6.75c17.266,20.106-31.359,18.876-40.5,36.002c-7.789,14.593,14.623,57.486-3,63  c-17.144,5.364-27.98-49.047-52.125-35.25c-15.483,8.848-54.722,32.598-38.848-1.223c18.742-39.929,19.625-36.377-10.027-66.029  C386.865,362.542,448.948,379.087,462.516,381.193z"/>
<path fill-rule="evenodd" clip-rule="evenodd" fill="#FFFFFF" stroke="#000000" stroke-width="2" stroke-linecap="square" stroke-miterlimit="10" d="  M432.516,408.943c26.193,4.702,27.207,9.044,39.75-14.25c1.046-1.943,11.609-27.806,17.25-27c23.822,3.401-1.344,55.08,42.75,56.252  c-27.443,10.191-18.627,46.489-15,68.25c-40.466-34.076-39.526-37.321-88.5-17.25C440.522,454.371,454.984,428.875,432.516,408.943z  "/>
<path fill-rule="evenodd" clip-rule="evenodd" fill="#FFFFFF" d="M462.516,381.193l-0.75,33L462.516,381.193z"/>
<line fill="none" stroke="#000000" stroke-width="2" stroke-linecap="square" stroke-miterlimit="10" x1="462.516" y1="381.193" x2="461.766" y2="414.193"/>
<path fill-rule="evenodd" clip-rule="evenodd" fill="#FFFFFF" d="M512.016,387.943l-6,31.5L512.016,387.943z"/>
<line fill="none" stroke="#000000" stroke-width="2" stroke-linecap="square" stroke-miterlimit="10" x1="512.016" y1="387.943" x2="506.016" y2="419.443"/>
<path fill-rule="evenodd" clip-rule="evenodd" fill="#FFFFFF" d="M474.516,456.195l-0.75,21L474.516,456.195z"/>
<line fill="none" stroke="#000000" stroke-width="2" stroke-linecap="square" stroke-miterlimit="10" x1="474.516" y1="456.195" x2="473.766" y2="477.195"/>
<path fill-rule="evenodd" clip-rule="evenodd" fill="#BCBEC0" stroke="#000000" stroke-width="2" stroke-linecap="square" stroke-miterlimit="10" d="  M288.514,453.195c3.512,23.415,3.86,29.397,21.024,45.552c16.153,15.203-3.067,27.456-6.024,46.698  c-8.739,56.877,27.358,2.599,49.5,3.75c14.052,0.73,36.488,43.092,46.5,38.25c3.09-1.494,6.875-23.185,6.528-27.527  c-2.621-32.755-4.348-25.754,16.724-44.473c14.263-12.669,42.126-30.125,19.5-48.75c-26.572-21.873-45.124,9.865-54.656-29.131  c-9.207-37.666-13.735-32.695-32.945-0.47C336.634,467.341,304.552,429.417,288.514,453.195z"/>
<path fill-rule="evenodd" clip-rule="evenodd" fill="#BCBEC0" stroke="#000000" stroke-width="2" stroke-linecap="square" stroke-miterlimit="10" d="  M345.514,452.445c5.018-8.417,29.935-65.29,37.472-34.558c2.696,10.991,3.027,32.598,12.028,40.558  c10.227,9.045,35.28-0.946,45.752,7.5c23.896,19.273-23.395,17.016-35.252,34.5c-9.034,13.321,10.927,60.887-3.75,65.25  c-12.945,3.849-31.223-37.324-51-36.75c-24.838,0.722-45.034,38.081-42.75,3c3.266-50.178,29.863-28.281-8.944-69.306  C271.048,433.017,331.013,450.195,345.514,452.445z"/>
<path fill-rule="evenodd" clip-rule="evenodd" fill="#FFFFFF" stroke="#000000" stroke-width="2" stroke-linecap="square" stroke-miterlimit="10" d="  M315.514,479.445c22.989,4.716,26.661,10.9,37.515-9.646c2.025-3.833,11.949-31.132,19.485-30.854  c7.867,0.29,8.955,19.415,10.133,24.461c5.67,24.303,4.863,31.054,32.619,31.789c-27.811,10.046-19.16,46.423-15.002,68.25  c-40.466-34.076-39.527-37.321-88.5-17.25C323.606,525.471,338.068,499.524,315.514,479.445z"/>
<path fill-rule="evenodd" clip-rule="evenodd" fill="#FFFFFF" d="M345.514,452.445l-0.75,33L345.514,452.445z"/>
<line fill="none" stroke="#000000" stroke-width="2" stroke-linecap="square" stroke-miterlimit="10" x1="345.514" y1="452.445" x2="344.764" y2="485.445"/>
<path fill-rule="evenodd" clip-rule="evenodd" fill="#FFFFFF" d="M395.014,459.195l-6,31.5L395.014,459.195z"/>
<line fill="none" stroke="#000000" stroke-width="2" stroke-linecap="square" stroke-miterlimit="10" x1="395.014" y1="459.195" x2="389.014" y2="490.695"/>
<path fill-rule="evenodd" clip-rule="evenodd" fill="#FFFFFF" d="M357.514,527.445l-0.75,21L357.514,527.445z"/>
<line fill="none" stroke="#000000" stroke-width="2" stroke-linecap="square" stroke-miterlimit="10" x1="357.514" y1="527.445" x2="356.764" y2="548.445"/>
</svg>