<svg xmlns="http://www.w3.org/2000/svg" xmlns:xlink="http://www.w3.org/1999/xlink" version="1.1" id="Layer_1" x="0px" y="0px" enable-background="new 0 0 822.05 841.89" xml:space="preserve" viewBox="308.53 353.2 204.22 137.46">
<path fill-rule="evenodd" clip-rule="evenodd" fill="#D2D1D2" stroke="#000000" stroke-width="1.25" stroke-linecap="square" stroke-miterlimit="10" d="  M337.375,447.265c2.841-2.291,6.574-4.858,9-6.75C342.751,441.982,338.595,446.282,337.375,447.265z"/>
<path fill-rule="evenodd" clip-rule="evenodd" fill="#D2D1D2" stroke="#000000" stroke-width="1.25" stroke-linecap="square" stroke-miterlimit="10" d="  M338.125,445.765C335.907,447.984,335.907,447.984,338.125,445.765L338.125,445.765z"/>
<path fill-rule="evenodd" clip-rule="evenodd" fill="#D2D1D2" stroke="#000000" stroke-width="1.25" stroke-linecap="square" stroke-miterlimit="10" d="  M353.125,439.015c-2.515,0.62-2.661,5.037-6.75,1.5C348.256,437.032,350.485,439.666,353.125,439.015z"/>
<path fill-rule="evenodd" clip-rule="evenodd" stroke="#000000" stroke-width="1.25" stroke-linecap="square" stroke-miterlimit="10" d="  M446.125,381.265c0.841,9.439,4.483,20.767,7.5,28.5C448.594,400.849,444.77,389.904,446.125,381.265z"/>
<path fill-rule="evenodd" clip-rule="evenodd" fill="#EDCBA6" stroke="#000000" stroke-width="1.25" stroke-linecap="square" stroke-miterlimit="10" d="  M454.375,411.265c-1.189,6.791-2.808,13.418-3.75,20.25C450.422,424.369,452.836,417.058,454.375,411.265z"/>
<path fill-rule="evenodd" clip-rule="evenodd" fill="#EDCBA6" stroke="#000000" stroke-width="1.25" stroke-linecap="square" stroke-miterlimit="10" d="  M453.625,412.015C455.157,408.303,454.869,409,453.625,412.015L453.625,412.015z"/>
<path fill-rule="evenodd" clip-rule="evenodd" fill="#EDCBA6" stroke="#000000" stroke-width="1.25" stroke-linecap="square" stroke-miterlimit="10" d="  M446.875,441.265c1.348-3.944,6.979-5.225,3-12C444.538,433.249,447.938,436.383,446.875,441.265z"/>
<path fill-rule="evenodd" clip-rule="evenodd" stroke="#000000" stroke-width="1.25" stroke-linecap="square" stroke-miterlimit="10" d="  M413.127,387.265c-1.88,9.953-6.379,21.774-9.752,30C409.078,408.186,413.086,397.375,413.127,387.265z"/>
<path fill-rule="evenodd" clip-rule="evenodd" stroke="#000000" stroke-width="1.25" stroke-linecap="square" stroke-miterlimit="10" d="  M402.625,416.515c-0.76,7.824-1.154,16.875-2.25,24C402.979,432.571,402.831,424.201,402.625,416.515z"/>
<path fill-rule="evenodd" clip-rule="evenodd" fill="#FFFFFF" stroke="#000000" stroke-width="1.25" stroke-linecap="square" stroke-miterlimit="10" d="  M398.875,444.265c1.514-4.498-2.205-8.941,4.5-9.75C404.209,439.977,400.059,440.747,398.875,444.265z"/>
<path fill-rule="evenodd" clip-rule="evenodd" stroke="#000000" stroke-width="1.25" stroke-linecap="square" stroke-miterlimit="10" d="  M404.125,415.765C401.987,420.679,402.517,419.46,404.125,415.765L404.125,415.765z"/>
<path fill-rule="evenodd" clip-rule="evenodd" fill="#1B1076" stroke="#000000" stroke-width="1.25" stroke-linecap="square" stroke-miterlimit="10" d="  M425.125,377.515c17.87-7.84,43.645,12.218,23.25,24.75c-1-4.25-2-8.5-3-12.75c1,9.25,2,18.5,3,27.75  c-13.249,0.5-26.499,1-39.748,1.5C417.051,404.887,392.953,377.333,425.125,377.515z"/>
<path fill-rule="evenodd" clip-rule="evenodd" fill="#F8E616" d="M413.127,401.515l2.248-8.25L413.127,401.515z"/>
<line fill="none" stroke="#000000" stroke-width="1.25" stroke-linecap="square" stroke-miterlimit="10" x1="413.127" y1="401.515" x2="415.375" y2="393.265"/>
<path fill-rule="evenodd" clip-rule="evenodd" fill="#EDCBA6" stroke="#000000" stroke-width="1.25" stroke-linecap="square" stroke-miterlimit="10" d="  M438.625,363.265c6.963,20.582-19.285,23.094-24.748,3.75C422.944,367.444,430.183,364.915,438.625,363.265z"/>
<path fill-rule="evenodd" clip-rule="evenodd" fill="#1B1076" stroke="#000000" stroke-width="1.25" stroke-linecap="square" stroke-miterlimit="10" d="  M413.877,365.515c12.371-0.022,24.749-2.277,35.998-7.5C438.574,355.749,419.82,346.649,413.877,365.515z"/>
<path fill-rule="evenodd" clip-rule="evenodd" stroke="#000000" stroke-width="1.25" stroke-linecap="square" stroke-miterlimit="10" d="  M441.625,429.265c1.498,7.94,2.26,16.041,3.75,24C442.938,447.913,441.592,435.609,441.625,429.265z"/>
<path fill-rule="evenodd" clip-rule="evenodd" d="M443.875,454.015c-1,10.5-2,21-3,31.5  C442.092,477.798,444.435,458.698,443.875,454.015z"/>
<path fill="none" stroke="#000000" stroke-width="1.25" stroke-linecap="square" stroke-miterlimit="10" d="M443.875,454.015  c-1,10.5-2,21-3,31.5C442.092,477.798,444.435,458.698,443.875,454.015"/>
<path fill-rule="evenodd" clip-rule="evenodd" fill="#1B1076" stroke="#000000" stroke-width="1.25" stroke-linecap="square" stroke-miterlimit="10" d="  M441.625,484.015c8.517-0.797,12.856-3.108,19.5,3c-0.677,0.323-0.927,0.823-0.75,1.5  C450.043,490.661,440.308,491.271,441.625,484.015z"/>
<path fill-rule="evenodd" clip-rule="evenodd" stroke="#000000" stroke-width="1.25" stroke-linecap="square" stroke-miterlimit="10" d="  M420.625,430.015c-0.9,8.249-1.114,16.517-2.25,24.75C420.297,448.882,421.195,434.261,420.625,430.015z"/>
<path fill-rule="evenodd" clip-rule="evenodd" d="M419.875,454.015c1.5,10.25,3,20.5,4.5,30.75  C422.759,476.465,419.928,461.396,419.875,454.015z"/>
<path fill="none" stroke="#000000" stroke-width="1.25" stroke-linecap="square" stroke-miterlimit="10" d="M419.875,454.015  c1.5,10.25,3,20.5,4.5,30.75C422.759,476.465,419.928,461.396,419.875,454.015"/>
<path fill-rule="evenodd" clip-rule="evenodd" fill="#1B1076" stroke="#000000" stroke-width="1.25" stroke-linecap="square" stroke-miterlimit="10" d="  M424.375,482.515C388.051,483.093,421.62,496.693,424.375,482.515L424.375,482.515z"/>
<path fill-rule="evenodd" clip-rule="evenodd" stroke="#000000" stroke-width="1.25" stroke-linecap="square" stroke-miterlimit="10" d="  M417.625,421.015c-1.432,7.341-11.506,27.059-7.498,33c9.009,13.354,20.622-9.626,18.748-18c-0.214,7.37,13.35,29.969,21,15.75  C460.083,432.793,433.212,416.208,417.625,421.015z"/>
<path fill-rule="evenodd" clip-rule="evenodd" fill="#D2D1D2" stroke="#000000" stroke-width="1.25" stroke-linecap="square" stroke-miterlimit="10" d="  M387.625,390.265c5.965-11.015,0.522-28.154-14.625-25.125C348.271,370.086,360.938,394.717,387.625,390.265z"/>
<path fill-rule="evenodd" clip-rule="evenodd" fill="#D2D1D2" stroke="#000000" stroke-width="1.25" stroke-linecap="square" stroke-miterlimit="10" d="  M380.875,393.265c5.119,6.183,12.953,16.662,15.75,21C393.558,405.876,387.678,397.974,380.875,393.265z"/>
<path fill-rule="evenodd" clip-rule="evenodd" fill="#EDCBA6" stroke="#000000" stroke-width="1.25" stroke-linecap="square" stroke-miterlimit="10" d="  M394.375,413.515c2.268,6.75,5.262,12.268,6,19.5C400.827,425.842,396.922,419.5,394.375,413.515z"/>
<path fill-rule="evenodd" clip-rule="evenodd" fill="#EDCBA6" stroke="#000000" stroke-width="1.25" stroke-linecap="square" stroke-miterlimit="10" d="  M396.625,415.765C394.366,412.954,393.747,412.184,396.625,415.765L396.625,415.765z"/>
<path fill-rule="evenodd" clip-rule="evenodd" fill="#EDCBA6" stroke="#000000" stroke-width="1.25" stroke-linecap="square" stroke-miterlimit="10" d="  M400.375,444.265c-0.073-4.499-4.353-7.983,1.5-12C405.003,437.922,400.746,440.284,400.375,444.265z"/>
<path fill-rule="evenodd" clip-rule="evenodd" fill="#D2D1D2" stroke="#000000" stroke-width="1.25" stroke-linecap="square" stroke-miterlimit="10" d="  M365.125,394.015c-5.706,7.065-9.849,15.294-12,24C354.214,409.393,358.821,399.935,365.125,394.015z"/>
<path fill-rule="evenodd" clip-rule="evenodd" fill="#D2D1D2" stroke="#000000" stroke-width="1.25" stroke-linecap="square" stroke-miterlimit="10" d="  M353.875,414.265c-1.529,7.554-3.954,13.883-3.75,21.75C348.799,429.07,351.561,420.913,353.875,414.265z"/>
<path fill-rule="evenodd" clip-rule="evenodd" fill="#D2D1D2" stroke="#000000" stroke-width="1.25" stroke-linecap="square" stroke-miterlimit="10" d="  M352.375,417.265C354.088,411.661,353.86,412.408,352.375,417.265L352.375,417.265z"/>
<path fill-rule="evenodd" clip-rule="evenodd" fill="#D2D1D2" stroke="#000000" stroke-width="1.25" stroke-linecap="square" stroke-miterlimit="10" d="  M347.125,445.765c1.451-4.673,6.149-7.506,2.25-13.5C345.306,437.158,347.795,440.751,347.125,445.765z"/>
<path fill-rule="evenodd" clip-rule="evenodd" fill="#D2D1D2" stroke="#000000" stroke-width="1.25" stroke-linecap="square" stroke-miterlimit="10" d="  M358.375,395.515c14.767-5.898,54.664,6.671,33,19.5c-1-3-2-6-3-9c2.008,5.26,0.723,12.37,1.5,18c-11,0.25-22,0.5-33,0.75  c1.687-5.865,1.612-13.43,4.5-18.75c-7.074,11.325-4.516,3.381-12,7.5C350.971,407.327,354.089,399.89,358.375,395.515z"/>
<path fill-rule="evenodd" clip-rule="evenodd" fill="#D2D1D2" stroke="#000000" stroke-width="1.25" stroke-linecap="square" stroke-miterlimit="10" d="  M365.875,375.265c-4.053,19.103,16.618,22.933,21,3.75C379.237,379.353,372.771,375.655,365.875,375.265z"/>
<path fill-rule="evenodd" clip-rule="evenodd" fill="#D2D1D2" stroke="#000000" stroke-width="1.25" stroke-linecap="square" stroke-miterlimit="10" d="  M382.375,438.265c0.756,5.911,1.629,17.28,1.5,20.25C382.913,452.44,382.59,440.821,382.375,438.265z"/>
<path fill-rule="evenodd" clip-rule="evenodd" fill="#D2D1D2" d="M383.125,458.515c-1.427,8.56-3.384,19.854-3.75,27  C380.192,477.333,383.646,462.273,383.125,458.515z"/>
<path fill="none" stroke="#000000" stroke-width="1.25" stroke-linecap="square" stroke-miterlimit="10" d="M383.125,458.515  c-1.427,8.56-3.384,19.854-3.75,27C380.192,477.333,383.646,462.273,383.125,458.515"/>
<path fill-rule="evenodd" clip-rule="evenodd" fill="#D2D1D2" stroke="#000000" stroke-width="1.25" stroke-linecap="square" stroke-miterlimit="10" d="  M378.625,484.765c6.639,0.872,10.163-2.394,13.5,4.5C381.526,492.044,380.296,486.023,378.625,484.765z"/>
<path fill-rule="evenodd" clip-rule="evenodd" fill="#D2D1D2" stroke="#000000" stroke-width="1.25" stroke-linecap="square" stroke-miterlimit="10" d="  M371.875,439.765c-1.048,6.203-2.421,16.549-3,21C370.614,454.744,371.625,442.672,371.875,439.765z"/>
<path fill-rule="evenodd" clip-rule="evenodd" fill="#D2D1D2" d="M370.375,460.015c1.232,8.738,1.792,18.796,1.5,27  C371.629,478.877,369.586,463.916,370.375,460.015z"/>
<path fill="none" stroke="#000000" stroke-width="1.25" stroke-linecap="square" stroke-miterlimit="10" d="M370.375,460.015  c1.232,8.738,1.792,18.796,1.5,27C371.629,478.877,369.586,463.916,370.375,460.015"/>
<path fill-rule="evenodd" clip-rule="evenodd" fill="#D2D1D2" stroke="#000000" stroke-width="1.25" stroke-linecap="square" stroke-miterlimit="10" d="  M373.375,484.765c-7.021,0.298-10.731-1.808-15.75,3.75C367.881,491.342,371.374,486.419,373.375,484.765z"/>
<path fill-rule="evenodd" clip-rule="evenodd" fill="#D2D1D2" stroke="#000000" stroke-width="1.25" stroke-linecap="square" stroke-miterlimit="10" d="  M364.375,424.765c24.976-7.68,26.902,15.755,34.5,33.75c-15.718,4.852-32.791,4.927-48.75,0.75  C354.875,447.765,359.625,436.265,364.375,424.765z"/>
<path fill-rule="evenodd" clip-rule="evenodd" fill="#D2D1D2" stroke="#000000" stroke-width="1.25" stroke-linecap="square" stroke-miterlimit="10" d="  M330.625,431.515C334.401,394.142,292.538,444.546,330.625,431.515L330.625,431.515z"/>
<path fill-rule="evenodd" clip-rule="evenodd" fill="#D2D1D2" stroke="#000000" stroke-width="1.25" stroke-linecap="square" stroke-miterlimit="10" d="  M328.375,433.765c2.955,3.889,6.373,8.513,9,12C335.291,440.455,331.461,437.652,328.375,433.765z"/>
<path fill-rule="evenodd" clip-rule="evenodd" fill="#D2D1D2" stroke="#000000" stroke-width="1.25" stroke-linecap="square" stroke-miterlimit="10" d="  M318.625,433.765c-2.457,4.801-5.105,9.073-6.75,14.25C312.882,442.166,316.161,438.279,318.625,433.765z"/>
<path fill-rule="evenodd" clip-rule="evenodd" fill="#D2D1D2" stroke="#000000" stroke-width="1.25" stroke-linecap="square" stroke-miterlimit="10" d="  M312.625,445.765c-1.038,4.045-2.549,9.683-3,12.75C309.638,453.935,311.766,449.115,312.625,445.765z"/>
<path fill-rule="evenodd" clip-rule="evenodd" fill="#D2D1D2" stroke="#000000" stroke-width="1.25" stroke-linecap="square" stroke-miterlimit="10" d="  M311.875,447.265C312.336,444.955,312.509,444.092,311.875,447.265L311.875,447.265z"/>
<path fill-rule="evenodd" clip-rule="evenodd" fill="#D2D1D2" stroke="#000000" stroke-width="1.25" stroke-linecap="square" stroke-miterlimit="10" d="  M309.625,464.515c0.173-2.125,2.551-4.717,0-7.5C308.477,459.725,309.816,462.172,309.625,464.515z"/>
<path fill-rule="evenodd" clip-rule="evenodd" fill="#D2D1D2" stroke="#000000" stroke-width="1.25" stroke-linecap="square" stroke-miterlimit="10" d="  M314.875,434.515c10.539-4.018,19.407-0.851,23.25,9.75c-5.769,3.907-2.442-2.438-5.25-3c0.25,3.25,0.5,6.5,0.75,9.75  c-4.894,1.451-14.563,1.988-19.5,0.75c1-3.5,2-7,3-10.5c-3.432,3.178-1.359,6.395-6.75,3.75  C311.342,441.179,313.592,438.074,314.875,434.515z"/>
<path fill-rule="evenodd" clip-rule="evenodd" fill="#D2D1D2" stroke="#000000" stroke-width="1.25" stroke-linecap="square" stroke-miterlimit="10" d="  M317.125,427.015c8.296,4.963,12.533,9.056,11.25-5.25C324.934,424.15,321.122,425.912,317.125,427.015z"/>
<path fill-rule="evenodd" clip-rule="evenodd" fill="#D2D1D2" stroke="#000000" stroke-width="1.25" stroke-linecap="square" stroke-miterlimit="10" d="  M329.125,459.265c0.241,3.638,0.536,9.808,0.75,12C329.773,470.671,328.945,456.543,329.125,459.265z"/>
<path fill-rule="evenodd" clip-rule="evenodd" fill="#D2D1D2" d="M329.125,471.265c-0.731,5.253-1.5,10.5-2.25,15.75  C327.988,483.551,328.965,472.962,329.125,471.265z"/>
<path fill="none" stroke="#000000" stroke-width="1.25" stroke-linecap="square" stroke-miterlimit="10" d="M329.125,471.265  c-0.731,5.253-1.5,10.5-2.25,15.75C327.988,483.551,328.965,472.962,329.125,471.265"/>
<path fill-rule="evenodd" clip-rule="evenodd" fill="#D2D1D2" stroke="#000000" stroke-width="1.25" stroke-linecap="square" stroke-miterlimit="10" d="  M326.875,486.265c3.282,1.162,5.59-1.104,7.5,2.25C328.764,490.727,327.045,486.326,326.875,486.265z"/>
<path fill-rule="evenodd" clip-rule="evenodd" fill="#D2D1D2" stroke="#000000" stroke-width="1.25" stroke-linecap="square" stroke-miterlimit="10" d="  M323.125,460.015c-0.554,3.672-1.411,9.737-1.5,12C322.125,468.015,322.625,464.015,323.125,460.015z"/>
<path fill-rule="evenodd" clip-rule="evenodd" fill="#D2D1D2" d="M321.625,472.015c0.532,5.247,1.074,10.499,1.5,15.75  C322.612,483.002,321.947,475.374,321.625,472.015z"/>
<path fill="none" stroke="#000000" stroke-width="1.25" stroke-linecap="square" stroke-miterlimit="10" d="M321.625,472.015  c0.532,5.247,1.074,10.499,1.5,15.75C322.612,483.002,321.947,475.374,321.625,472.015"/>
<path fill-rule="evenodd" clip-rule="evenodd" fill="#D2D1D2" stroke="#000000" stroke-width="1.25" stroke-linecap="square" stroke-miterlimit="10" d="  M323.875,486.265c-4.117,0.979-6.353-1.11-9,2.25C319.061,489.77,324.617,486.088,323.875,486.265z"/>
<path fill-rule="evenodd" clip-rule="evenodd" fill="#D2D1D2" stroke="#000000" stroke-width="1.25" stroke-linecap="square" stroke-miterlimit="10" d="  M318.625,453.265c11.726-1.361,17.803,5.572,19.5,18c-9.063,2.402-18.535,2.655-27.75,0.75  C312.943,466.177,314.663,458.193,318.625,453.265z"/>
<path fill-rule="evenodd" clip-rule="evenodd" fill="#D2D1D2" stroke="#000000" stroke-width="1.25" stroke-linecap="square" stroke-miterlimit="10" d="  M482.875,427.015c-1.971,5.343-3.854,7.789,9.75,4.5C489.746,424.141,487.013,429.469,482.875,427.015z"/>
<path fill-rule="evenodd" clip-rule="evenodd" fill="#D2D1D2" stroke="#000000" stroke-width="1.25" stroke-linecap="square" stroke-miterlimit="10" d="  M512.125,455.515c-7.796-7.033-13.078-17.166-20.25-21.75C498.885,442.395,503.721,450.963,512.125,455.515z"/>
<path fill-rule="evenodd" clip-rule="evenodd" fill="#D2D1D2" stroke="#000000" stroke-width="1.25" stroke-linecap="square" stroke-miterlimit="10" d="  M479.875,484.015c-4.553,1.861-7.414-0.491-10.5,4.5C479.281,489.85,479.56,484.279,479.875,484.015z"/>
<path fill-rule="evenodd" clip-rule="evenodd" fill="#D2D1D2" stroke="#000000" stroke-width="1.25" stroke-linecap="square" stroke-miterlimit="10" d="  M470.125,465.265c3.953-4.017,8.521-7.519,12.75-11.25c-1-1.25-2-2.5-3-3.75c-3.912,2.914-8.77,10.835-12,15  c2.887,5.526,7.382,15.549,11.25,20.25C477.734,479.097,473.683,471.845,470.125,465.265z"/>
<path fill-rule="evenodd" clip-rule="evenodd" fill="#D2D1D2" stroke="#000000" stroke-width="1.25" stroke-linecap="square" stroke-miterlimit="10" d="  M488.125,484.015c3.977,2.757,7.724-0.092,9.75,6C488.821,490.49,489.143,484.775,488.125,484.015z"/>
<path fill-rule="evenodd" clip-rule="evenodd" fill="#D2D1D2" stroke="#000000" stroke-width="1.25" stroke-linecap="square" stroke-miterlimit="10" d="  M494.875,419.515c-5.299,12.058-10.661,12.534-15-0.75C484.721,419.398,490.137,418.624,494.875,419.515z"/>
<path fill-rule="evenodd" clip-rule="evenodd" fill="#D2D1D2" stroke="#000000" stroke-width="1.25" stroke-linecap="square" stroke-miterlimit="10" d="  M479.875,418.015c7.923,0.598,14.953,1.074,22.5-1.5C494.523,411.333,486.723,410.555,479.875,418.015z"/>
<path fill-rule="evenodd" clip-rule="evenodd" fill="#D2D1D2" stroke="#000000" stroke-width="1.25" stroke-linecap="square" stroke-miterlimit="10" d="  M481.375,430.015c-8.024-3.671-18.32-9.033-25.5-12C463.732,423.724,476.525,429.074,481.375,430.015z"/>
<path fill-rule="evenodd" clip-rule="evenodd" fill="#D2D1D2" stroke="#000000" stroke-width="1.25" stroke-linecap="square" stroke-miterlimit="10" d="  M474.625,424.015c0.049,1.012-3.147,4.948-3.75,6c3.018,8.489,4.838,6.245,4.5,18c3.649,1.367,14.282,2.76,18,2.25  c0-3.75,0-7.5,0-11.25c6.437-0.811,2.475,1.904,9-3C492.014,433.7,482.591,431.038,474.625,424.015z"/>
<path fill-rule="evenodd" clip-rule="evenodd" fill="#D2D1D2" stroke="#000000" stroke-width="1.25" stroke-linecap="square" stroke-miterlimit="10" d="  M489.625,466.015c-0.237-6.028-0.282-12.134-2.25-15.75c-0.194,11.489-0.025,25.441,2.25,35.25  C489.625,479.015,489.636,472.515,489.625,466.015z"/>
<path fill-rule="evenodd" clip-rule="evenodd" fill="#D2D1D2" stroke="#000000" stroke-width="1.25" stroke-linecap="square" stroke-miterlimit="10" d="  M476.125,450.265c-2.25,2.75-4.5,5.5-6.75,8.25c10.167,2.947,2.061,6.207,13.5,0c5.065,10.473,0.726,3.357,10.5,8.25  C495.416,453.195,487.832,446.921,476.125,450.265z"/>
<path fill-rule="evenodd" clip-rule="evenodd" fill="#D2D1D2" stroke="#000000" stroke-width="1.25" stroke-linecap="square" stroke-miterlimit="10" d="  M457.375,419.515c-1.131-3.925-4.685-6.271-3.75-12C458.503,411.384,456.021,414.813,457.375,419.515z"/>
<path fill-rule="evenodd" clip-rule="evenodd" d="M474.625,379.015c13.366,3.652,23.593,14.837,16.5,27.75c-1.5-0.5-3-1-4.5-1.5  c7.081-12.626-5.541-24.559-14.25-16.5c-4.618-2.41-9.835-6.784-13.5-10.5C470.041,373.278,473.478,378.461,474.625,379.015z"/>
</svg>