<svg xmlns="http://www.w3.org/2000/svg" xmlns:xlink="http://www.w3.org/1999/xlink" version="1.1" id="Layer_1" x="0px" y="0px" enable-background="new 0 0 822.05 841.89" xml:space="preserve" viewBox="201.8 266.58 412.25 312.5">
<path fill-rule="evenodd" clip-rule="evenodd" fill="#ED1C24" stroke="#000000" stroke-width="2" stroke-linecap="square" stroke-miterlimit="10" d="  M202.8,482.824c30.75,3.25,61.5,6.5,92.25,9.75c-6.25,28.5-12.5,57-18.75,85.5c22.987-17.047,57.861-33.403,71.872-58.774  c16.668-30.184,33.547-86.46,66.128-103.224c-9.864-14.081-19.936,3.251-34.89,4.801c-25.903,2.685-51.807,5.369-77.71,8.055  C257.519,433.509,238.164,454.949,202.8,482.824z"/>
<path fill-rule="evenodd" clip-rule="evenodd" fill="#BCBEC0" stroke="#000000" stroke-width="2" stroke-linecap="square" stroke-miterlimit="10" d="  M407.55,407.826c11.236,18.525,93.325-53.242,109.037-64.402c34.145-24.252,65.385-47.816,96.463-75.848  C538.54,304.831,474.573,358.507,407.55,407.826z"/>
<line fill="none" stroke="#000000" stroke-width="2" stroke-linecap="square" stroke-miterlimit="10" x1="295.05" y1="492.574" x2="385.8" y2="425.074"/>
<line fill="none" stroke="#000000" stroke-width="2" stroke-linecap="square" stroke-miterlimit="10" x1="394.05" y1="432.574" x2="385.05" y2="424.324"/>
</svg>