<svg xmlns="http://www.w3.org/2000/svg" xmlns:xlink="http://www.w3.org/1999/xlink" version="1.1" id="Layer_1" x="0px" y="0px" enable-background="new 0 0 822.05 841.89" xml:space="preserve" viewBox="300.34 334.82 220.19 173.17">
<path fill-rule="evenodd" clip-rule="evenodd" fill="#EAA22D" stroke="#000000" stroke-width="0.5" stroke-linecap="square" stroke-miterlimit="10" d="  M350.75,460.314c-3.577,13.48-25.156,17.332-25.5,0C324.905,442.95,347.628,446.072,350.75,460.314z"/>
<path fill-rule="evenodd" clip-rule="evenodd" fill="#42BF00" stroke="#000000" stroke-width="0.5" stroke-linecap="square" stroke-miterlimit="10" d="  M301.25,464.064c33.697-22.887,79.757-31.164,118.833-18.139c30.567,10.188,64.757,41.416,97.917,36.139  c6.066,29.357-3.877,25.5-27.188,25.5c-33.9,0-67.801,0-101.701,0c-18.731,0-37.463,0-56.195,0  C293.277,507.564,301.25,502.73,301.25,464.064z"/>
<path fill-rule="evenodd" clip-rule="evenodd" fill="#149F00" stroke="#000000" stroke-width="0.5" stroke-linecap="square" stroke-miterlimit="10" d="  M353,507.564c54.985-22.337,107.417-42.426,167.25-45.75c0,50.582,2.941,45.75-46.627,45.75  C433.415,507.564,393.208,507.564,353,507.564z"/>
<path fill-rule="evenodd" clip-rule="evenodd" fill="#F7F359" stroke="#000000" stroke-width="0.5" stroke-linecap="square" stroke-miterlimit="10" d="  M383.75,407.066c-1.001,5.288-0.505,11.109-0.75,16.498c2.983-5.103,8.758-8.542,12-13.498c0.606,5.517,3.574,10.967,3.75,16.498  c0.64-5.623,4.162-10.928,5.25-16.498c4.28,5.865,11.424,10.216,15,16.498c-3.211-6.626-3.382-14.85-6-21.748c9.25,2,18.5,4,27.75,6  c-6.534-5.348-11.469-12.649-18-18c19.75-0.5,39.5-1,59.25-1.5c-18.75-4.25-37.5-8.5-56.25-12.75c8-4.5,16-9,24-13.5  c-9.25,1.25-18.5,2.5-27.75,3.75c4.536-6.286,7.084-14.269,12-20.25c-5.751,5.37-15.18,7.603-21.75,12  c-1.75-4.25-3.5-8.5-5.25-12.75c-2.5,2.75-5,5.5-7.5,8.25c-4.021-7.351-11.738-13.308-15-21c0.682,8.599-3.028,17.607-3,26.25  c-5.729-4.346-13.777-6.862-18.75-12c4.917,4.765,7.613,11.96,12,17.25c-6.325-1.041-13.267,0.679-19.5-0.75  c5.449,2.552,9.681,7.666,15,10.5c-8.52,1.078-16.939,4.701-25.5,5.25c8.75,2.25,17.5,4.5,26.25,6.75  c-6.539,3.63-12.028,9.49-18.75,12.75c7.158-2.479,15.23-2.348,22.5-4.5c-4.686,5.028-7.747,11.808-12.75,16.5  c4.611-3.298,10.277-5.106,15-8.25c-5.489,8.962-10.518,18.241-15,27.748C369.25,424.065,376.5,415.565,383.75,407.066z"/>
<path fill-rule="evenodd" clip-rule="evenodd" fill="#EAA22D" stroke="#000000" stroke-width="0.5" stroke-linecap="square" stroke-miterlimit="10" d="  M416.75,383.816c-2.182,22.298-36.957,23.753-36.75,0C380.207,360.101,414.067,362.228,416.75,383.816z"/>
</svg>