<svg xmlns="http://www.w3.org/2000/svg" xmlns:xlink="http://www.w3.org/1999/xlink" version="1.1" id="Layer_1" x="0px" y="0px" enable-background="new 0 0 822.05 841.89" xml:space="preserve" viewBox="305.45 334.24 209.14 176.56">
<path fill-rule="evenodd" clip-rule="evenodd" fill="#137827" stroke="#000000" stroke-width="1.25" stroke-linecap="square" stroke-miterlimit="10" d="  M420.875,386.224c6.25,10.25,12.5,20.5,18.75,30.75c15.839-14.142,44.123-33.23,24.75-0.75c-26.617,44.626-41.076,5.124-57-21.75  C411.718,392.265,416.185,387.777,420.875,386.224z"/>
<path fill-rule="evenodd" clip-rule="evenodd" fill="#EED5B6" stroke="#000000" stroke-width="1.25" stroke-linecap="square" stroke-miterlimit="10" d="  M413.377,374.974c2.628-3.034,4.236-5.565,7.498-7.5c-1.218,19.791-0.97,38.031-21.75,17.25  C378.499,364.098,407,348.551,413.377,374.974z"/>
<path fill-rule="evenodd" clip-rule="evenodd" fill="#EED5B6" stroke="#000000" stroke-width="1.25" stroke-linecap="square" stroke-miterlimit="10" d="  M495.125,402.724c-7.106-3.949-14.347-5.818-14.25-8.25c-26.917-2.654-24.429,11.853-18.539,31.666  C466.94,441.628,508.384,426.439,495.125,402.724z"/>
<path fill-rule="evenodd" clip-rule="evenodd" fill="#137827" stroke="#000000" stroke-width="1.25" stroke-linecap="square" stroke-miterlimit="10" d="  M457.625,399.724c11.448,26.32,30.76-5.691,45.75,3.75c-17.857,3.352-8.546,22.254-5.25,37.502c-12,0-24,0-36,0  c1.652,4.773-0.802,10.958,0.75,15.75c-4.026,0.995-11.782,1.158-15.75,0C448.658,437.958,449.305,416.638,457.625,399.724z"/>
<path fill-rule="evenodd" clip-rule="evenodd" fill="#137827" stroke="#000000" stroke-width="1.25" stroke-linecap="square" stroke-miterlimit="10" d="  M462.125,440.976c12,0,24,0,36,0c-9.136-42.258,7.16-47.565,15.375-3.75C519.961,471.685,457.334,465.388,462.125,440.976z"/>
<path fill-rule="evenodd" clip-rule="evenodd" fill="#EED5B6" stroke="#000000" stroke-width="1.25" stroke-linecap="square" stroke-miterlimit="10" d="  M453.875,442.476c-1.197-3.045-2.373-6.42-2.25-9c15.163,6.248,26.309,18.432,5.25,23.25  C431.278,462.583,430.431,436.068,453.875,442.476z"/>
<path fill-rule="evenodd" clip-rule="evenodd" fill="#EED5B6" stroke="#000000" stroke-width="1.25" stroke-linecap="square" stroke-miterlimit="10" d="  M456.875,380.974c-3.767,1.034-6.183,9.7-4.5-4.5C452.854,376.641,458.51,380.525,456.875,380.974z"/>
<path fill-rule="evenodd" clip-rule="evenodd" fill="#EED5B6" stroke="#000000" stroke-width="1.25" stroke-linecap="square" stroke-miterlimit="10" d="  M493.625,386.224c-2.991-1.454-10.737,5.329-2.25-6.75C493.92,380.716,494.136,386.472,493.625,386.224z"/>
<path fill-rule="evenodd" clip-rule="evenodd" fill="#EED5B6" stroke="#000000" stroke-width="1.25" stroke-linecap="square" stroke-miterlimit="10" d="  M454.625,366.724c-8.754,27.745,25.926,49.625,36.75,15.75C500.644,353.467,464.642,337.625,454.625,366.724z"/>
<path fill-rule="evenodd" clip-rule="evenodd" fill="#137827" stroke="#000000" stroke-width="1.25" stroke-linecap="square" stroke-miterlimit="10" d="  M394.625,485.976c-12.5,0-25,0-37.5,0c6.457-37.104-9.328-54.929-15-9.75c-1.676,13.346-7.2,18.562,3,26.25  C358.479,512.541,399.069,509.131,394.625,485.976z"/>
<path fill-rule="evenodd" clip-rule="evenodd" fill="#EED5B6" stroke="#000000" stroke-width="1.25" stroke-linecap="square" stroke-miterlimit="10" d="  M392.375,486.726c1.175-2.957,2.027-5.154,2.25-8.25c-16.171,6.075-23.706,18.059-3.375,22.125  C412.678,504.886,414.216,482.211,392.375,486.726z"/>
<path fill-rule="evenodd" clip-rule="evenodd" fill="#EED5B6" stroke="#000000" stroke-width="1.25" stroke-linecap="square" stroke-miterlimit="10" d="  M325.625,449.976c7.225-3.991,12.729-2.787,15.75-11.25c0.112,0.835-0.138,1.585-0.75,2.25c19.255-2.985,26.639,7.657,22.125,23.25  C353.709,495.458,310.684,472.869,325.625,449.976z"/>
<path fill-rule="evenodd" clip-rule="evenodd" fill="#137827" stroke="#000000" stroke-width="1.25" stroke-linecap="square" stroke-miterlimit="10" d="  M364.625,446.976c-12.996,27.044-31.508-7.204-47.25,3.75c17.851,3.162,8.522,22.794,5.25,38.25c12.5,0,25,0,37.5,0  c-1.725,5.014,0.672,11.391-0.75,16.5c4.208,1.048,12.352,1.213,16.5,0C372.62,486.206,373.305,464.3,364.625,446.976z"/>
<path fill-rule="evenodd" clip-rule="evenodd" fill="#F4EE12" stroke="#000000" stroke-width="1.25" stroke-linecap="square" stroke-miterlimit="10" d="  M372.125,508.476c12.269,0,24.537,0,36.806,0c4.144,0,6.32-31.232,2.944-34.5c-4.126-3.993-30.604,0-36.806,0  C368.758,473.976,372.125,501.974,372.125,508.476z"/>
<path fill-rule="evenodd" clip-rule="evenodd" fill="#137827" stroke="#000000" stroke-width="1.25" stroke-linecap="square" stroke-miterlimit="10" d="  M360.125,488.976c-12.5,0-25,0-37.5,0c9.285-43.853-8.175-48.423-16.125-3.375C300.265,520.932,365.221,514.63,360.125,488.976z"/>
<path fill-rule="evenodd" clip-rule="evenodd" fill="#EED5B6" stroke="#000000" stroke-width="1.25" stroke-linecap="square" stroke-miterlimit="10" d="  M368.375,491.226c1.095-3.194,1.846-6.613,3-9.75c-16.442,6.868-28.044,17.977-6,24  C391.622,512.648,392.968,483.756,368.375,491.226z"/>
<path fill-rule="evenodd" clip-rule="evenodd" fill="#EED5B6" stroke="#000000" stroke-width="1.25" stroke-linecap="square" stroke-miterlimit="10" d="  M365.375,427.476C370.903,428.69,374.645,427.792,365.375,427.476L365.375,427.476z"/>
<path fill-rule="evenodd" clip-rule="evenodd" fill="#EED5B6" stroke="#000000" stroke-width="1.25" stroke-linecap="square" stroke-miterlimit="10" d="  M327.125,432.726C334.685,429.529,334.604,429.563,327.125,432.726L327.125,432.726z"/>
<path fill-rule="evenodd" clip-rule="evenodd" fill="#EED5B6" stroke="#000000" stroke-width="1.25" stroke-linecap="square" stroke-miterlimit="10" d="  M367.625,412.474c9.63,31.492-32.372,51.779-39,12.001C324.024,396.866,359.188,384.12,367.625,412.474z"/>
<path fill-rule="evenodd" clip-rule="evenodd" fill="#D01424" stroke="#000000" stroke-linecap="square" stroke-miterlimit="10" d="  M414.127,380.974c-5.988,0.617-13.525-2.601-19.502-3.75c3.687-19.103,0.004-53.539,27.75-39  C419.626,352.474,416.876,366.724,414.127,380.974z"/>
<path fill-rule="evenodd" clip-rule="evenodd" fill="#D01424" stroke="#000000" stroke-linecap="square" stroke-miterlimit="10" d="  M403.625,383.974c-30.087-10.476-2.642-31.157,9-47.25C442.712,347.2,415.267,367.881,403.625,383.974z"/>
<path fill-rule="evenodd" clip-rule="evenodd" d="M406.625,377.974c-5.058-4.493-8.753-4.787-5.25-14.25  c0.314,8.717-0.365,1.232,4.5,4.5c-2.33-1.693,0.678,6.537,0.75,6.75c1.5-1.75,3-3.5,4.5-5.25  C410.914,372.039,408.497,375.293,406.625,377.974z"/>
<path fill-rule="evenodd" clip-rule="evenodd" d="M406.625,358.474c-0.027-0.006-1.916,4.594,0-3c1.554,1.148,10.218,9.338,9.75,9  C413.125,362.474,409.875,360.474,406.625,358.474z"/>
<path fill-rule="evenodd" clip-rule="evenodd" d="M423.875,354.724C405.358,351.04,418.22,338.417,423.875,354.724L423.875,354.724z   M422.375,353.974c-3.122-2.567-0.973-9.714-8.998-5.25C415.481,354.61,420.433,352.377,422.375,353.974z"/>
<path fill-rule="evenodd" clip-rule="evenodd" fill="#EED5B6" d="M423.875,367.474c-7.248,3.138-12.069,3.125-7.5,15  C418.842,377.542,421.997,372.65,423.875,367.474z"/>
<path fill="none" stroke="#000000" stroke-width="1.25" stroke-linecap="square" stroke-miterlimit="10" d="M423.875,367.474  c-9.419-0.188-10.99,5.93-7.5,15"/>
<path fill-rule="evenodd" clip-rule="evenodd" fill="#D01424" stroke="#000000" stroke-linecap="square" stroke-miterlimit="10" d="  M385.625,397.474c2.5-3.75,5-7.5,7.5-11.25c1.75,1.25,3.5,2.5,5.25,3.75c-1.385,5.978-2.734,12.673-3,14.25  c-5.158,4.353-13.221,10.331-19.5,12.75C376.001,406.057,377.734,395.861,385.625,397.474z"/>
<path fill-rule="evenodd" clip-rule="evenodd" fill="#F4EE12" stroke="#000000" stroke-width="1.25" stroke-linecap="square" stroke-miterlimit="10" d="  M400.625,452.976c-2.75,4-5.5,8-8.25,12c1.75,1.25,3.5,2.5,5.25,3.75c5.702-3.99,11.607-7.583,12.75-8.25  c2.46-7.09,4.693-16.521,5.252-24C405.341,440.728,396.286,446.217,400.625,452.976z"/>
</svg>