<svg xmlns="http://www.w3.org/2000/svg" xmlns:xlink="http://www.w3.org/1999/xlink" version="1.1" id="Layer_1" x="0px" y="0px" enable-background="new 0 0 822.05 841.89" xml:space="preserve" viewBox="313.31 336.86 196.16 169.57">
<path fill-rule="evenodd" clip-rule="evenodd" fill="#F7F619" stroke="#000000" stroke-width="1.25" stroke-linecap="square" stroke-miterlimit="10" d="  M493.063,504.742c-21.873,6.689-34.587-23.566-21-38.25C495.394,441.279,493.063,498.883,493.063,504.742z"/>
<path fill-rule="evenodd" clip-rule="evenodd" fill="#F8130D" d="M482.563,467.992v35.25V467.992z"/>
<line fill="none" stroke="#000000" stroke-width="1.25" stroke-linecap="square" stroke-miterlimit="10" x1="482.563" y1="467.992" x2="482.563" y2="503.242"/>
<path fill-rule="evenodd" clip-rule="evenodd" fill="#F8130D" d="M470.563,484.492h22.5H470.563z"/>
<line fill="none" stroke="#000000" stroke-width="1.25" stroke-linecap="square" stroke-miterlimit="10" x1="470.563" y1="484.492" x2="493.063" y2="484.492"/>
<path fill-rule="evenodd" clip-rule="evenodd" fill="#724211" stroke="#000000" stroke-width="1.25" stroke-linecap="square" stroke-miterlimit="10" d="  M453.313,503.242c-11.554,1.514-25.5,5.02-25.5-7.762c0-7.656-5.291-49.34,0-53.738  C462.046,413.284,453.313,492.191,453.313,503.242z"/>
<path fill-rule="evenodd" clip-rule="evenodd" fill="#279A30" stroke="#000000" stroke-width="1.25" stroke-linecap="square" stroke-miterlimit="10" d="  M443.563,365.24c4.232,4.661,12.24,4.966,3.75,9.75c10.086,5.507,16.781,11.693,7.5,17.25c9.261,7.361,17.585,17.518,3.75,21.75  c13.677,4.819,18.586,10.958,3.75,14.252c13.422,0.671,34.763,16.931,12,18c13.159,7.461,15.15,17.765-2.25,16.5  c28.338,3.349,20.666,23.262-5.625,15.75c-21.078-6.022-25.754,7.342-46.879,4.5c4.672-3.439,7.899-7.224,14.254-9.75  c-35.454,23.484-60.039-11.839-30.002-9c-32.007,0.529,1.989-12.846,11.248-18.75c-29.872,8.945-15.393-11.566-0.75-21  c-4.086-0.336-8.089-1.736-11.998-2.252c5.914-5.512,12.766-12.361,18.748-18.75c-15.686-6.606-4.766-14.803,6.754-19.5  c-1.028-0.559-4.652-0.291-6.754-1.5c1.915-3.288,5.687-5.542,7.504-9.75c-1.25,0-2.5,0-3.75,0c5.333-8.671,7.744-13.02,8.25-22.5  C436.191,355.193,440.989,360.09,443.563,365.24z"/>
<path fill-rule="evenodd" clip-rule="evenodd" fill="#F8130D" stroke="#000000" stroke-width="1.25" stroke-linecap="square" stroke-miterlimit="10" d="  M433.063,409.49C418.011,422.333,418.044,396.352,433.063,409.49L433.063,409.49z"/>
<path fill-rule="evenodd" clip-rule="evenodd" fill="#F8130D" stroke="#000000" stroke-width="1.25" stroke-linecap="square" stroke-miterlimit="10" d="  M409.062,458.242C393.974,471.153,394.108,444.903,409.062,458.242L409.062,458.242z"/>
<path fill-rule="evenodd" clip-rule="evenodd" fill="#F8130D" stroke="#000000" stroke-width="1.25" stroke-linecap="square" stroke-miterlimit="10" d="  M475.063,431.242C459.355,443.401,459.609,418.585,475.063,431.242L475.063,431.242z"/>
<path fill-rule="evenodd" clip-rule="evenodd" fill="#F8130D" stroke="#000000" stroke-width="1.25" stroke-linecap="square" stroke-miterlimit="10" d="  M450.313,377.24C434.894,389.639,434.922,364.553,450.313,377.24L450.313,377.24z"/>
<path fill-rule="evenodd" clip-rule="evenodd" fill="#F8130D" stroke="#000000" stroke-width="1.25" stroke-linecap="square" stroke-miterlimit="10" d="  M437.563,439.492C421.855,451.651,422.109,426.835,437.563,439.492L437.563,439.492z"/>
<path fill-rule="evenodd" clip-rule="evenodd" fill="#F7F619" stroke="#000000" stroke-width="1.25" stroke-linecap="square" stroke-miterlimit="10" d="  M414.31,419.99c29.847-4.842,59.167,10.961,66.004,41.252c-15.17-30.361-43.719-38.264-75.752-35.25  C407.613,423.652,410.882,421.746,414.31,419.99z"/>
<path fill-rule="evenodd" clip-rule="evenodd" fill="#F7F619" stroke="#000000" stroke-width="1.25" stroke-linecap="square" stroke-miterlimit="10" d="  M419.56,392.24c26.932-3.533,51.611,11.872,55.504,39.752c-8.119-29.628-37.495-35.589-63.752-34.502  C414.026,395.685,416.785,393.953,419.56,392.24z"/>
<path fill-rule="evenodd" clip-rule="evenodd" fill="#F7F619" stroke="#000000" stroke-width="1.25" stroke-linecap="square" stroke-miterlimit="10" d="  M416.56,444.742c25.675-1.415,58.158,4.313,66.004,33c-15.605-28.532-48.004-28.037-75.752-28.5  C410.015,447.633,413.273,446.173,416.56,444.742z"/>
<path fill-rule="evenodd" clip-rule="evenodd" fill="#F8130D" stroke="#000000" stroke-width="1.25" stroke-linecap="square" stroke-miterlimit="10" d="  M475.063,462.742C459.433,475.221,459.433,450.262,475.063,462.742L475.063,462.742z"/>
<path fill-rule="evenodd" clip-rule="evenodd" fill="#F7F619" stroke="#000000" stroke-width="1.25" stroke-linecap="square" stroke-miterlimit="10" d="  M439.063,337.49c5.587,6.914,3.059,12.529,15,12.75c-5.87,9.384-4.794,7.098-7.5,18c-11.549-3.181-7.912-2.78-19.5-1.5  c-1.218-11.11-0.315-8.482-5.254-18.75C433.342,349.03,432.068,343.13,439.063,337.49z"/>
<path fill-rule="evenodd" clip-rule="evenodd" fill="#F8130D" stroke="#000000" stroke-width="1.25" stroke-linecap="square" stroke-miterlimit="10" d="  M475.813,503.242c-10.6,2.751-39.112-9.219-21.75-21C471.556,470.373,479.704,489.324,475.813,503.242z"/>
<path fill-rule="evenodd" clip-rule="evenodd" fill="#F8130D" d="M464.563,482.992v19.5V482.992z"/>
<line fill="none" stroke="#000000" stroke-width="1.25" stroke-linecap="square" stroke-miterlimit="10" x1="464.563" y1="482.992" x2="464.563" y2="502.492"/>
<path fill-rule="evenodd" clip-rule="evenodd" fill="#F8130D" d="M453.313,491.992h21.75H453.313z"/>
<line fill="none" stroke="#000000" stroke-width="1.25" stroke-linecap="square" stroke-miterlimit="10" x1="453.313" y1="491.992" x2="475.063" y2="491.992"/>
<path fill-rule="evenodd" clip-rule="evenodd" fill="#F8130D" stroke="#000000" stroke-width="1.25" stroke-linecap="square" stroke-miterlimit="10" d="  M508.063,503.992C450.9,516.123,516.647,461.975,508.063,503.992L508.063,503.992z"/>
<path fill-rule="evenodd" clip-rule="evenodd" fill="#FFFFFF" stroke="#000000" stroke-linecap="square" stroke-miterlimit="10" d="  M400.062,499.492c-23.506,0-47.012,0-70.518,0c-10.36,0-13.146-49.858-6.732-57c6.503-7.24,59.741,0,70.518,0  C407.592,442.492,400.062,486.583,400.062,499.492z"/>
<path fill-rule="evenodd" clip-rule="evenodd" fill="#FFFFFF" stroke="#000000" stroke-linecap="square" stroke-miterlimit="10" d="  M391.062,503.242c-25.75,0-51.5,0-77.25,0c0.883-7.459,3.886-57,8.549-57c25.15,0,50.3,0,75.451,0  C395.562,465.242,393.312,484.242,391.062,503.242z"/>
<path fill-rule="evenodd" clip-rule="evenodd" d="M367.812,454.492C367.237,450.003,367.134,449.197,367.812,454.492  L367.812,454.492z"/>
<path fill-rule="evenodd" clip-rule="evenodd" d="M349.062,454.492C348.487,450.003,348.384,449.197,349.062,454.492  L349.062,454.492z"/>
<path fill-rule="evenodd" clip-rule="evenodd" d="M386.562,454.492C385.987,450.003,385.884,449.197,386.562,454.492  L386.562,454.492z"/>
<path fill-rule="evenodd" clip-rule="evenodd" d="M330.312,454.492C329.737,450.003,329.634,449.197,330.312,454.492  L330.312,454.492z"/>
<path fill-rule="evenodd" clip-rule="evenodd" d="M330.312,438.742c-0.176,4.92-5.846,8.505,0.75,14.25  C329.666,446.506,330.559,440.826,330.312,438.742z"/>
<path fill-rule="evenodd" clip-rule="evenodd" d="M348.312,437.992c-0.128,5.998-6.202,9.229,0.75,15  c-0.85-3.941,1.018-12.07,0.75-10.5C353.751,440.741,348.21,440.144,348.312,437.992z"/>
<path fill-rule="evenodd" clip-rule="evenodd" d="M367.812,437.992c-0.188,5.674-6.066,9.424,0.75,15  C366.855,445.974,367.883,441.289,367.812,437.992z"/>
<path fill-rule="evenodd" clip-rule="evenodd" d="M385.812,437.992c-0.066,6.313-5.343,10.26,1.5,15  C385.258,445.356,385.73,441.173,385.812,437.992z"/>
<path fill="none" stroke="#000000" stroke-width="0.5" stroke-linecap="square" stroke-miterlimit="10" d="M387.312,497.242  c1.25-9.5,2.5-19,3.75-28.5c-18.032,0-36.064,0-54.096,0c-21.126,0-15.93,7.796-18.654,28.5  C341.312,497.242,364.312,497.242,387.312,497.242z"/>
<path fill-rule="evenodd" clip-rule="evenodd" d="M381.312,468.742l-3.75,28.5L381.312,468.742z"/>
<line fill="none" stroke="#000000" stroke-width="0.5" stroke-linecap="square" stroke-miterlimit="10" x1="381.312" y1="468.742" x2="377.562" y2="497.242"/>
<path fill-rule="evenodd" clip-rule="evenodd" d="M371.562,468.742l-3.75,28.5L371.562,468.742z"/>
<line fill="none" stroke="#000000" stroke-width="0.5" stroke-linecap="square" stroke-miterlimit="10" x1="371.562" y1="468.742" x2="367.812" y2="497.242"/>
<path fill-rule="evenodd" clip-rule="evenodd" d="M361.812,468.742l-3.75,28.5L361.812,468.742z"/>
<line fill="none" stroke="#000000" stroke-width="0.5" stroke-linecap="square" stroke-miterlimit="10" x1="361.812" y1="468.742" x2="358.062" y2="497.242"/>
<path fill-rule="evenodd" clip-rule="evenodd" d="M352.062,468.742l-4.5,28.5L352.062,468.742z"/>
<line fill="none" stroke="#000000" stroke-width="0.5" stroke-linecap="square" stroke-miterlimit="10" x1="352.062" y1="468.742" x2="347.562" y2="497.242"/>
<path fill-rule="evenodd" clip-rule="evenodd" d="M342.312,468.742l-4.5,28.5L342.312,468.742z"/>
<line fill="none" stroke="#000000" stroke-width="0.5" stroke-linecap="square" stroke-miterlimit="10" x1="342.312" y1="468.742" x2="337.812" y2="497.242"/>
<path fill-rule="evenodd" clip-rule="evenodd" d="M332.562,468.742l-4.5,28.5L332.562,468.742z"/>
<line fill="none" stroke="#000000" stroke-width="0.5" stroke-linecap="square" stroke-miterlimit="10" x1="332.562" y1="468.742" x2="328.062" y2="497.242"/>
<line fill="none" stroke="#000000" stroke-width="0.5" stroke-linecap="square" stroke-miterlimit="10" x1="321.312" y1="476.242" x2="390.312" y2="476.242"/>
<line fill="none" stroke="#000000" stroke-width="0.5" stroke-linecap="square" stroke-miterlimit="10" x1="320.562" y1="482.992" x2="389.562" y2="482.992"/>
<line fill="none" stroke="#000000" stroke-width="0.5" stroke-linecap="square" stroke-miterlimit="10" x1="319.812" y1="489.742" x2="388.812" y2="489.742"/>
<text transform="matrix(1 0 0 1 321.3057 466.5142)" font-family="'MyriadPro-Regular'" font-size="9">S  M  T  W  Th  F  S</text>
</svg>