<svg xmlns="http://www.w3.org/2000/svg" xmlns:xlink="http://www.w3.org/1999/xlink" version="1.1" id="Layer_1" x="0px" y="0px" enable-background="new 0 0 822.05 841.89" xml:space="preserve" viewBox="229.57 261.65 360.44 314.43">
<path fill-rule="evenodd" clip-rule="evenodd" fill="#F69679" stroke="#000000" stroke-width="2" stroke-linecap="square" stroke-miterlimit="10" d="  M346.75,432.14c-47.986-9.14-46.439-10.123-75.094,29.602c-10.325,14.314,26.14,46.875,36.844,60.398  C312.849,493.869,321.814,450.029,346.75,432.14z"/>
<path fill-rule="evenodd" clip-rule="evenodd" fill="#FFFDE4" d="M504.25,452.39c15.25,4.5,30.5,9,45.75,13.5  c-19.782,45.56-22.085,55.808-66.973,75.889c-21.48,9.61-56.911,34.225-80.582,30.584c-33.995-5.229-67.87-12.762-101.446-20.223  c-12.62-2.805-22.689-9.513-33.972-15.667c-23.343-12.732-27.856-10.278-25.629-37.747c1.406-17.342-2.479-30.069,4.102-47.086  c5.831-15.081,52.502-73.754,67.5-39c8.745,20.263-30.979,48.07-46.5,50.25c18.809,15.541,26.167,26.807,52.5,28.5  c26.167,1.683,53.416,0.023,77.252-3c21.482-2.725,39.528-14.854,56.248-22.5c10.33-4.725,8.416-13.167,23.625-10.125  C487.534,458.047,494.394,455.322,504.25,452.39z"/>
<path fill="none" stroke="#000000" stroke-width="2" stroke-linecap="square" stroke-miterlimit="10" d="M504.25,452.39  c15.25,4.5,30.5,9,45.75,13.5c-19.782,45.56-22.085,55.808-66.973,75.889c-21.48,9.61-56.911,34.225-80.582,30.584  c-33.995-5.229-67.87-12.762-101.446-20.223c-12.62-2.805-22.689-9.513-33.972-15.667c-23.343-12.732-27.856-10.278-25.629-37.747  c1.406-17.342-2.479-30.069,4.102-47.086c5.831-15.081,52.502-73.754,67.5-39c8.745,20.263-30.979,48.07-46.5,50.25  c18.809,15.541,26.167,26.807,52.5,28.5c26.167,1.683,53.416,0.023,77.252-3c21.482-2.725,39.528-14.854,56.248-22.5  c10.33-4.725,8.416-13.167,23.625-10.125C487.534,458.047,494.394,455.322,504.25,452.39"/>
<path fill-rule="evenodd" clip-rule="evenodd" fill="#F69679" stroke="#000000" stroke-width="2" stroke-linecap="square" stroke-miterlimit="10" d="  M238.75,487.64c-49.041,97.437,136.312,95.562,187.875,78.375c41.796-13.932,93.92-19.787,118.125-59.625  c8.027-13.211,17.889-32.567,15-48.75c-6.239-34.954-31.542-17.651-59.25-8.25c67.115,14.655-11.312,67.662-35.25,42  c1.802,30.428-17.484,48.379-36,15c0.271,23.42-15.941,45.971-31.498,15.75c-3.717,30.194-29.164,19.99-40.502,0.75  c-10.337,23.927-33.709,45.087-39.75,4.5c-6.529,12.812-19.209,18.622-22.5,1.5c-12.698,13.757-29.136,6.6-27.75-12  c-11.014,8.377-20.461,5.99-18.75-8.25C238.444,506.486,235.712,498.431,238.75,487.64z"/>
<path fill-rule="evenodd" clip-rule="evenodd" fill="#FFFDE4" stroke="#000000" stroke-width="2" stroke-linecap="square" stroke-miterlimit="10" d="  M232.75,357.89c-0.529,11.973-2.194,35.137,6,45c10.709,12.892,50.505,21.729,64.5,17.25c12.373,12.704,48.287,3.735,54.375,10.5  c6.908,7.675,19.87,4.931,29.625,6.75c9.116,1.7,17.583,3.783,28.876,4.125c9.149,0.277,20.859-5.02,25.874,1.5  c4.174,5.427,6.919,7.392,13.875,6c16.033-3.207,34.92,9.099,46.875-7.125c0.4,17.284,16.286,8.761,29.833,7.167  c19.192-2.258,4.646-21.762,24.167-29.667c-52.207-26.756-101.558-42.629-158.222-58.083  C354.126,349.197,261.643,312.58,232.75,357.89z"/>
<path fill-rule="evenodd" clip-rule="evenodd" fill="#F69679" stroke="#000000" stroke-width="2" stroke-linecap="square" stroke-miterlimit="10" d="  M232.75,357.89c2.669-24.051,5.15-83.972,35.25-93.75c27.007-8.773,47.821,23.283,54.75,43.5  c58.47-24.923,123.039-8.264,177.723,17.889c26.541,12.694,61.281,29.21,79.527,53.361c23.295,30.833-2.65,33.828-31.5,48.75  c1.393-26.167-27.65-10.237-39.75-2.25c-5.729-16.23-22.251-16.13-33.75-5.25c5.357-24.45-16.215-23.859-27.75-7.5  c0.745-34.18-31.906-20.743-46.498-5.25c-5.035-25.54-27.525-31.037-41.252-7.5c-4.541-36.326-28.093-39.193-46.5-8.25  c-6.17-20.929-30.017-57.812-42-16.5c-1.247-22.99-18.05-25.445-21-1.5C249.253,360.653,242.949,340.18,232.75,357.89z"/>
</svg>