<svg xmlns="http://www.w3.org/2000/svg" xmlns:xlink="http://www.w3.org/1999/xlink" version="1.1" id="Layer_1" x="0px" y="0px" enable-background="new 0 0 822.05 841.89" xml:space="preserve" viewBox="211.25 271.37 392.96 297.59">
<path fill-rule="evenodd" clip-rule="evenodd" fill="#F69679" stroke="#000000" stroke-width="2" stroke-linecap="square" stroke-miterlimit="10" d="  M280.26,369.39c-21.938-8.561-26.358-5.104-38.886,11.76c-11.204,15.083,6.722,26.571,17.136,39.99  C261.991,403.533,266.337,381.687,280.26,369.39z"/>
<path fill-rule="evenodd" clip-rule="evenodd" fill="#FFFDE4" d="M371.76,381.39c8.75,2.5,17.5,5,26.25,7.5  c-14.284,33.079-53.875,66.589-94.38,59.388c-18.396-3.27-38.837-5.415-56.37-12.138c-23.697-9.087-20.44-14.35-27.75-32.625  c-11.268-28.169,42-60.561,42-42.75c0,12.911-16.558,22.375-27,26.625c13.851,22.038,53.477,18.443,74.25,14.25  C332.017,396.946,349.284,387.081,371.76,381.39z"/>
<path fill="none" stroke="#000000" stroke-width="2" stroke-linecap="square" stroke-miterlimit="10" d="M371.76,381.39  c8.75,2.5,17.5,5,26.25,7.5c-14.284,33.079-53.875,66.589-94.38,59.388c-18.396-3.27-38.837-5.415-56.37-12.138  c-23.697-9.087-20.44-14.35-27.75-32.625c-11.268-28.169,42-60.561,42-42.75c0,12.911-16.558,22.375-27,26.625  c13.851,22.038,53.477,18.443,74.25,14.25C332.017,396.946,349.284,387.081,371.76,381.39"/>
<path fill-rule="evenodd" clip-rule="evenodd" fill="#F69679" stroke="#000000" stroke-width="2" stroke-linecap="square" stroke-miterlimit="10" d="  M218.76,401.64c-37.005,60.456,94.824,47.996,117.75,41.25c24.477-7.202,43.965-12.37,58.875-32.25  c19.551-26.068,5.073-45.307-25.875-31.5c32.661,0.978,2.529,39.08-20.25,24.75c1.57,18.159-11.31,25.638-21,8.25  c1.089,15.614-7.619,23.324-18,9c-4.549,15.667-16.321,13.471-24,0.75c-3.707,16.964-18.97,22.796-21.75,2.25  c-10.609,9.07-6.341,7.31-13.5,0.75c-10.708,6.238-13.382,5.626-15.75-6.75C223.956,421.896,218.826,413.683,218.76,401.64z"/>
<path fill-rule="evenodd" clip-rule="evenodd" fill="#FFFDE4" stroke="#000000" stroke-width="2" stroke-linecap="square" stroke-miterlimit="10" d="  M215.76,326.64c-6.275,42.793,42.679,37.568,69,39.75c26.82,2.223,59.908,21.565,85.5,9c8.21,17.351,27.372-3.402,31.5-13.5  C372.995,347.508,233.902,286.865,215.76,326.64z"/>
<path fill-rule="evenodd" clip-rule="evenodd" fill="#F69679" stroke="#000000" stroke-width="2" stroke-linecap="square" stroke-miterlimit="10" d="  M215.76,326.64c0.407-13.37,2.646-47.738,18.75-53.25c15.51-5.309,29.652,11.161,32.25,24.75c32.804-14.598,68.863-5.606,99.75,9  c15.815,7.479,34.113,16.041,45.751,29.625c15.839,18.487,3.955,19.942-15.751,30.375c-2.566-11.963-12.307-10.554-22.5-1.5  c-8.708-7.652-8.047-8.346-19.5-3c-0.361-13.882-6.137-14.458-15.75-4.5c-2.903-16.887-17.695-14.756-27-3  c-3.483-14.878-14.44-16.895-23.25-4.5c-1.894-19.645-19.205-23.027-27-4.5c-3.03-15.247-16.738-30.36-24-9  c-3.37-13.383-7.384-16.165-12-1.5c-0.769-5.529-4.657-9.623-6-14.25C218.688,321.767,214.733,326.406,215.76,326.64z"/>
<path fill-rule="evenodd" clip-rule="evenodd" fill="#F69679" stroke="#000000" stroke-width="2" stroke-linecap="square" stroke-miterlimit="10" d="  M467.01,425.64c-24.049-4.676-25.035-8.001-39.15,11.76c-10.796,15.115,7.068,26.678,17.4,39.99  C448.691,459.77,452.748,437.73,467.01,425.64z"/>
<path fill-rule="evenodd" clip-rule="evenodd" fill="#FFFDE4" d="M557.76,436.89c8.75,2.75,17.5,5.5,26.25,8.25  c-14.244,32.985-53.575,66.4-93.894,59.388c-18.487-3.215-39.282-5.254-56.856-12.138c-21.012-8.23-23.548-12.109-26.25-30.75  c-2.545-17.558,27.398-74.602,40.5-47.25c5.949,12.42-18.236,25.352-26.25,29.25C445.876,487.865,531.351,443.097,557.76,436.89z"/>
<path fill="none" stroke="#000000" stroke-width="2" stroke-linecap="square" stroke-miterlimit="10" d="M557.76,436.89  c8.75,2.75,17.5,5.5,26.25,8.25c-14.244,32.985-53.575,66.4-93.894,59.388c-18.487-3.215-39.282-5.254-56.856-12.138  c-21.012-8.23-23.548-12.109-26.25-30.75c-2.545-17.558,27.398-74.602,40.5-47.25c5.949,12.42-18.236,25.352-26.25,29.25  C445.876,487.865,531.351,443.097,557.76,436.89"/>
<path fill-rule="evenodd" clip-rule="evenodd" fill="#F69679" stroke="#000000" stroke-width="2" stroke-linecap="square" stroke-miterlimit="10" d="  M404.76,457.89c-31.705,61.92,92.148,48.74,117.75,41.25c24.405-7.14,44.316-11.838,59.625-32.25  c19.32-25.761,3.944-47.241-26.625-31.5c33.607,1.146,2.159,39.626-20.25,24c2.516,18.645-10.604,26.479-21,9  c1.19,15.696-7.574,23.297-18,9c-3.738,15.557-15.979,13.489-23.25,0.75c-4.787,16.413-19.411,22.611-22.5,2.25  c-11.17,8.32-5.477,7.18-13.5,0.75c-10.635,4.576-12.706,6.065-15.75-6.75C410.4,478.269,405.494,469.942,404.76,457.89z"/>
<path fill-rule="evenodd" clip-rule="evenodd" fill="#FFFDE4" stroke="#000000" stroke-width="2" stroke-linecap="square" stroke-miterlimit="10" d="  M401.76,382.89c-6.571,42.904,43.633,37.591,69.75,39.75c21.738,1.798,64.906,23.617,85.5,8.25  c6.366,18.115,26.967-2.889,30.75-12.75C558.75,403.635,420.313,342.354,401.76,382.89z"/>
<path fill-rule="evenodd" clip-rule="evenodd" fill="#F69679" stroke="#000000" stroke-width="2" stroke-linecap="square" stroke-miterlimit="10" d="  M401.76,382.89c0.815-14.909,3.897-54,25.125-54c9.733,0,12.821,8.087,19.875,11.25c2.304,1.033,4.694,8.703,5.625,10.875  c2.486,5.802,10.943-2.431,16.125-1.875c35.926,3.855,60.211,0.822,94.5,18.75c32.109,16.788,60.792,33.865,20.25,54.75  c-3.773-11.5-13.202-9.797-23.25-0.75c-8.151-8.252-7.34-8.414-18.75-3c-1.001-13.698-7.091-15.431-16.5-4.5  c-2.002-17.198-17.204-14.884-26.25-3c-3.705-14.657-15.488-17.847-24-4.5c-1.379-20.077-18.911-22.689-27-4.5  c-2.365-15.257-15.961-30.081-24-9.75c-3.317-13.392-7.342-14.704-11.998-0.75c-0.704-5.554-4.677-9.623-6.002-14.25  C405.25,377.844,401.623,382.862,401.76,382.89z"/>
<path fill-rule="evenodd" clip-rule="evenodd" fill="#F69679" stroke="#000000" stroke-width="2" stroke-linecap="square" stroke-miterlimit="10" d="  M317.01,486.39c-28.48-6.329-27.138-5.814-44.472,17.52c-4.55,6.125,16.859,27.501,21.972,33.48  C297.918,520.16,303.021,497.638,317.01,486.39z"/>
<path fill-rule="evenodd" clip-rule="evenodd" fill="#FFFDE4" d="M407.76,497.64c8.75,2.5,17.5,5,26.25,7.5  c-13.981,32.379-54.451,67.859-94.38,59.874c-18.237-3.647-38.961-5.201-56.37-11.874c-23.699-9.084-20.461-15.153-27.75-33.375  c-11.285-28.212,42-59.638,42-42.75c0,13.064-16.392,22.439-27,26.625c10.733,17.794,60.032,25.477,76.5,13.125  c7.915-5.936,25.634-0.644,31.125-11.625C382.998,495.415,399.74,499.671,407.76,497.64z"/>
<path fill="none" stroke="#000000" stroke-width="2" stroke-linecap="square" stroke-miterlimit="10" d="M407.76,497.64  c8.75,2.5,17.5,5,26.25,7.5c-13.981,32.379-54.451,67.859-94.38,59.874c-18.237-3.647-38.961-5.201-56.37-11.874  c-23.699-9.084-20.461-15.153-27.75-33.375c-11.285-28.212,42-59.638,42-42.75c0,13.064-16.392,22.439-27,26.625  c10.733,17.794,60.032,25.477,76.5,13.125c7.915-5.936,25.634-0.644,31.125-11.625C382.998,495.415,399.74,499.671,407.76,497.64"/>
<path fill-rule="evenodd" clip-rule="evenodd" fill="#F69679" stroke="#000000" stroke-width="2" stroke-linecap="square" stroke-miterlimit="10" d="  M254.76,517.89c-29.893,56.432,83.995,55.149,111.375,43.875c21.021-8.656,55.819-9.985,65.625-34.5  c10.921-27.302,10.327-48.91-26.25-31.125c32.688-0.104,2.856,39.135-20.25,24c2.305,18.166-10.476,26.271-21,9  c0.822,15.907-8.209,22.603-18,8.25c-3.884,15.234-16.37,14.29-23.25,0.75c-4.743,16.395-18.327,22.657-22.5,3  c-11.874,7.852-5.098,5.945-13.5,0c-10.202,7.028-13.243,5.814-15.75-6C259.478,538.291,254.899,529.75,254.76,517.89z"/>
<path fill-rule="evenodd" clip-rule="evenodd" fill="#FFFDE4" stroke="#000000" stroke-width="2" stroke-linecap="square" stroke-miterlimit="10" d="  M251.76,443.64c-5.043,42.637,43.519,36.948,69,39c24.233,1.951,63.755,23.713,85.5,9c8.072,17.06,27.396-2.696,31.5-13.5  C408.736,463.628,270.345,403.024,251.76,443.64z"/>
<path fill-rule="evenodd" clip-rule="evenodd" fill="#F69679" stroke="#000000" stroke-width="2" stroke-linecap="square" stroke-miterlimit="10" d="  M251.76,443.64c0.672-31.718,38.608-87.183,51-29.25c34.039-12.945,67.806-6,99.75,9c16.004,7.515,34.561,16.122,46.125,30  c15.446,18.535,3.21,19.764-16.125,30c-2.282-11.385-7.223-9.834-18.374-3.75c-5.334,2.91-12.034-6.141-23.626-0.75  c-0.335-13.799-6.16-14.306-15.75-4.5c-2.889-16.989-18.349-14.591-27-2.25c-2.637-15.153-15.041-18.313-23.25-4.5  c-1.614-19.999-18.191-23.37-27-5.25c-3.013-15.079-16.587-29.455-24-9c-1.214-4.712-4.762-8.696-6-12.75  c-1.279,3.32-4.581,6.922-6,11.25c-0.877-5.387-4.659-9.59-6-14.25C253.15,439.022,253.374,442.69,251.76,443.64z"/>
</svg>