<svg xmlns="http://www.w3.org/2000/svg" xmlns:xlink="http://www.w3.org/1999/xlink" version="1.1" id="Layer_1" x="0px" y="0px" enable-background="new 0 0 822.05 841.89" xml:space="preserve" viewBox="303.32 334.88 213.27 173.73">
<path fill-rule="evenodd" clip-rule="evenodd" fill="#724211" stroke="#000000" stroke-linecap="square" stroke-miterlimit="10" d="  M342.847,507.128c41.481-22.064,35.379-28.564,36-75.75c-6.976,3.086-39.234,12.691-38.871,19.764  C340.933,469.804,341.89,488.466,342.847,507.128z"/>
<path fill-rule="evenodd" clip-rule="evenodd" fill="#724211" stroke="#000000" stroke-linecap="square" stroke-miterlimit="10" d="  M421.597,507.128c42.167-21.962,36.122-28.06,36.75-75.75c-7.018,3.104-39.178,12.622-38.903,19.764  C420.161,469.804,420.879,488.466,421.597,507.128z"/>
<path fill-rule="evenodd" clip-rule="evenodd" fill="#724211" stroke="#000000" stroke-linecap="square" stroke-miterlimit="10" d="  M425.347,440.378c-40,0-80,0-120,0c51.665-20.666,101.933-15,157.5-15C450.347,430.378,437.847,435.378,425.347,440.378z"/>
<path fill-rule="evenodd" clip-rule="evenodd" fill="#724211" stroke="#000000" stroke-linecap="square" stroke-miterlimit="10" d="  M342.097,506.378c-12.795,0-33,6.986-33-8.14c0-9.504-6.145-49.807,0-56.36c6.611-7.052,33-3.034,33,8.14  C342.097,468.805,342.097,487.591,342.097,506.378z"/>
<path fill-rule="evenodd" clip-rule="evenodd" fill="#724211" stroke="#000000" stroke-width="1.25" stroke-linecap="square" stroke-miterlimit="10" d="  M420.847,506.378c-12.795,0-33,6.986-33-8.14c0-9.504-6.145-49.807,0-56.36c6.611-7.052,33-3.034,33,8.14  C420.847,468.805,420.847,487.591,420.847,506.378z"/>
<path fill-rule="evenodd" clip-rule="evenodd" fill="#724211" stroke="#000000" stroke-linecap="square" stroke-miterlimit="10" d="  M426.097,449.378c-21.898,0-43.797,0-65.696,0c-4.23,0-67.068,3.289-55.054-9c6.709-6.862,56.087,0,65.696,0  C387.04,440.378,424.883,431.579,426.097,449.378z"/>
<path fill-rule="evenodd" clip-rule="evenodd" fill="#724211" d="M308.347,467.378h31.5H308.347z"/>
<line fill="none" stroke="#000000" stroke-linecap="square" stroke-miterlimit="10" x1="308.347" y1="467.378" x2="339.847" y2="467.378"/>
<path fill-rule="evenodd" clip-rule="evenodd" fill="#724211" d="M388.597,465.128h32.25H388.597z"/>
<line fill="none" stroke="#000000" stroke-linecap="square" stroke-miterlimit="10" x1="388.597" y1="465.128" x2="420.847" y2="465.128"/>
<path fill-rule="evenodd" clip-rule="evenodd" stroke="#000000" stroke-width="1.75" stroke-linecap="square" stroke-miterlimit="10" d="  M416.347,498.128c-16.355,4.775-37.069-8.741-22.5-27C412.615,447.608,416.347,492.389,416.347,498.128z"/>
<path fill-rule="evenodd" clip-rule="evenodd" fill="#724211" d="M417.847,488.378C361.504,488.378,415.277,473.308,417.847,488.378  L417.847,488.378z"/>
<path fill-rule="evenodd" clip-rule="evenodd" stroke="#000000" stroke-linecap="square" stroke-miterlimit="10" d="  M327.847,459.128c-1.961-0.329-1.871,5.252-4.5,0C325.921,452.329,325.521,458.739,327.847,459.128z"/>
<path fill-rule="evenodd" clip-rule="evenodd" stroke="#000000" stroke-linecap="square" stroke-miterlimit="10" d="  M408.097,457.628c-1.961-0.329-1.871,5.252-4.5,0C406.171,450.829,405.771,457.239,408.097,457.628z"/>
<path fill-rule="evenodd" clip-rule="evenodd" stroke="#000000" stroke-linecap="square" stroke-miterlimit="10" d="  M338.347,487.628C335.396,487.046,333.566,486.685,338.347,487.628L338.347,487.628z"/>
<path fill-rule="evenodd" clip-rule="evenodd" fill="#724211" stroke="#000000" stroke-linecap="square" stroke-miterlimit="10" d="  M425.347,450.128c13.439-5.645,38.165-8.497,37.5-24.75C449.407,431.023,424.682,433.875,425.347,450.128z"/>
<path fill-rule="evenodd" clip-rule="evenodd" fill="#724211" stroke="#000000" stroke-linecap="square" stroke-miterlimit="10" d="  M396.097,414.13c41.325-21.102,35.371-26.972,36-73.5C386.005,360.131,393.479,364.396,396.097,414.13z"/>
<path fill-rule="evenodd" clip-rule="evenodd" fill="#724211" stroke="#000000" stroke-linecap="square" stroke-miterlimit="10" d="  M474.097,414.13c41.999-21,36.114-26.474,36.75-73.5C464.859,360.086,472.136,364.452,474.097,414.13z"/>
<path fill-rule="evenodd" clip-rule="evenodd" fill="#724211" stroke="#000000" stroke-linecap="square" stroke-miterlimit="10" d="  M479.347,350.38c-40,0-80,0-120,0c51.322-19.9,101.795-14.25,156.75-14.25C503.847,340.88,491.597,345.63,479.347,350.38z"/>
<path fill-rule="evenodd" clip-rule="evenodd" fill="#724211" stroke="#000000" stroke-linecap="square" stroke-miterlimit="10" d="  M395.347,414.13c-12.435,0-33,6.899-33-7.856c0-8.008-5.487-49.603,0-54.394c7.54-6.584,33-3.222,33,7.856  C395.347,377.868,395.347,395.999,395.347,414.13z"/>
<path fill-rule="evenodd" clip-rule="evenodd" fill="#724211" stroke="#000000" stroke-width="1.25" stroke-linecap="square" stroke-miterlimit="10" d="  M474.097,414.13c-12.436,0-33,6.899-33-7.856c0-8.008-5.486-49.603,0-54.394c7.54-6.584,33-3.222,33,7.856  C474.097,377.868,474.097,395.999,474.097,414.13z"/>
<path fill-rule="evenodd" clip-rule="evenodd" fill="#724211" stroke="#000000" stroke-linecap="square" stroke-miterlimit="10" d="  M478.597,359.38c-21.763,0-43.525,0-65.288,0c-4.181,0-66.756,3.268-54.712-9c6.707-6.831,55.707,0,65.288,0  C439.812,350.38,477.441,341.601,478.597,359.38z"/>
<path fill-rule="evenodd" clip-rule="evenodd" fill="#724211" d="M361.597,376.63h31.5H361.597z"/>
<line fill="none" stroke="#000000" stroke-linecap="square" stroke-miterlimit="10" x1="361.597" y1="376.63" x2="393.097" y2="376.63"/>
<path fill-rule="evenodd" clip-rule="evenodd" fill="#724211" d="M441.847,373.63h32.25H441.847z"/>
<line fill="none" stroke="#000000" stroke-linecap="square" stroke-miterlimit="10" x1="441.847" y1="373.63" x2="474.097" y2="373.63"/>
<path fill-rule="evenodd" clip-rule="evenodd" stroke="#000000" stroke-width="1.5" stroke-linecap="square" stroke-miterlimit="10" d="  M469.597,406.63c-15.702,4.601-37.344-8.289-22.5-26.25C464.339,359.518,471.314,397.416,469.597,406.63z"/>
<path fill-rule="evenodd" clip-rule="evenodd" fill="#724211" d="M470.347,396.88C416.341,406.686,466.832,373.875,470.347,396.88  L470.347,396.88z"/>
<path fill-rule="evenodd" clip-rule="evenodd" stroke="#000000" stroke-linecap="square" stroke-miterlimit="10" d="M381.097,366.88  c-2.141,0-1.949,5.095-4.5,0C379.147,361.786,378.956,366.88,381.097,366.88z"/>
<path fill-rule="evenodd" clip-rule="evenodd" stroke="#000000" stroke-linecap="square" stroke-miterlimit="10" d="M460.597,366.13  c-2.142,0-1.949,5.095-4.5,0C458.647,361.036,458.455,366.13,460.597,366.13z"/>
<path fill-rule="evenodd" clip-rule="evenodd" stroke="#000000" stroke-linecap="square" stroke-miterlimit="10" d="M391.597,394.63  C387.718,394.63,387.718,394.63,391.597,394.63L391.597,394.63z"/>
<path fill-rule="evenodd" clip-rule="evenodd" fill="#724211" stroke="#000000" stroke-linecap="square" stroke-miterlimit="10" d="  M477.847,359.38c13.053-5.482,37.618-8.547,37.5-24C501.905,340.757,477.137,343.158,477.847,359.38z"/>
</svg>