<svg xmlns="http://www.w3.org/2000/svg" xmlns:xlink="http://www.w3.org/1999/xlink" version="1.1" id="Layer_1" x="0px" y="0px" enable-background="new 0 0 822.05 841.89" xml:space="preserve" viewBox="225.32 264.12 371 309.6">
<path fill-rule="evenodd" clip-rule="evenodd" fill="#DEF2FD" stroke="#000000" stroke-width="2" stroke-linecap="square" stroke-miterlimit="10" d="  M299.822,267.465c56.434,0,112.867,0,169.301,0c8.729,0,49.704-5.91,55.859,1.022c20.977,23.627,41.954,47.254,62.932,70.881  c16.757,18.874-57.341,86.673-71.688,104.028c-35.635,43.105-71.27,86.212-106.904,129.318  c-47.229-58.455-94.457-116.91-141.686-175.365c-3.488-4.317-43.239-49.073-40.378-52.139  C251.447,319.296,275.634,293.381,299.822,267.465z"/>
<path fill-rule="evenodd" clip-rule="evenodd" fill="#DEF2FD" d="M229.322,345.465c32.834-24.867,65.668-49.734,98.502-74.601  c8.891-6.733,71.138,64.99,82.105,75.958c5.856,5.856,72.281-77.721,84.895-79.357c18.665-2.421,81.643,64.815,98.25,78  C471.823,345.465,350.573,345.465,229.322,345.465z"/>
<path fill="none" stroke="#000000" stroke-width="2" stroke-linecap="square" stroke-miterlimit="10" d="M229.322,345.465  c32.834-24.867,65.668-49.734,98.502-74.601c8.891-6.733,71.138,64.99,82.105,75.958c5.856,5.856,72.281-77.721,84.895-79.357  c18.665-2.421,81.643,64.815,98.25,78"/>
<path fill="none" stroke="#000000" stroke-width="2" stroke-linecap="square" stroke-miterlimit="10" d="M331.322,268.215  c-11.274,26.959-22.547,53.918-33.821,80.877c-4.02,9.612,22.603,47.565,27.028,56.298c28.264,55.775,56.529,111.55,84.793,167.325  c0.5-75,1-150,1.5-225"/>
<path fill-rule="evenodd" clip-rule="evenodd" fill="#DEF2FD" d="M494.824,267.465c11.764,25.733,23.527,51.467,35.292,77.201  c3.904,8.542-23.538,46.15-27.753,53.902c-31.014,57.049-62.027,114.099-93.041,171.147  C437.823,468.965,466.323,368.215,494.824,267.465z"/>
<path fill="none" stroke="#000000" stroke-width="2" stroke-linecap="square" stroke-miterlimit="10" d="M494.824,267.465  c11.764,25.733,23.527,51.467,35.292,77.201c3.904,8.542-23.538,46.15-27.753,53.902c-31.014,57.049-62.027,114.099-93.041,171.147"/>
<line fill="none" stroke="#000000" stroke-width="2" stroke-linecap="square" stroke-miterlimit="10" x1="226.322" y1="346.215" x2="595.324" y2="347.715"/>
</svg>