<svg xmlns="http://www.w3.org/2000/svg" xmlns:xlink="http://www.w3.org/1999/xlink" version="1.1" id="Layer_1" x="0px" y="0px" enable-background="new 0 0 822.05 841.89" xml:space="preserve" viewBox="325 335.08 171.25 170.95">
<path fill-rule="evenodd" clip-rule="evenodd" fill="#A9A8AC" stroke="#000000" stroke-width="1.25" stroke-linecap="square" stroke-miterlimit="10" d="  M362.75,451.409c19.528,2.399,20.325,29.256,1.5,33C342.585,488.717,352.282,459.824,362.75,451.409z"/>
<path fill-rule="evenodd" clip-rule="evenodd" fill="#EED5B6" stroke="#000000" stroke-width="1.25" stroke-linecap="square" stroke-miterlimit="10" d="  M427.25,373.409c-1.931,9.68-2.731,20.56-3.75,30.75c-8.768-3.192-16.966-1.358-25.5-1.5  C422.21,407.111,436.744,409.983,427.25,373.409z"/>
<path fill-rule="evenodd" clip-rule="evenodd" fill="#7D5E23" stroke="#000000" stroke-width="1.5" stroke-linecap="square" stroke-miterlimit="10" d="  M331.25,476.909c5.171-11.773,31.054-2.497,44.25,0c21.186,4.009,31.576,6.414,48.75,3c5.648-1.123-4.022-11.776,7.125-9.75  c6.178,1.123,13.617,3.924,19.875,3.75c9.614-0.267,23.99-6.719,33-2.25c24.903,12.351-8.591,16.693,11.25,26.25  c-29.17,7.464-68.296,8.831-97.5,6c-14.425-1.398-65.361,2.945-58.5-14.25C325.097,490.444,321.428,485.863,331.25,476.909z"/>
<path fill-rule="evenodd" clip-rule="evenodd" fill="#7D5E23" stroke="#000000" stroke-width="1.5" stroke-linecap="square" stroke-miterlimit="10" d="  M348.5,481.409c9.652-15.259,41.348-24.47,59.625-28.125c22.57-4.514,40.018-1.385,57.375,11.625  c29.686,22.251-5.138,30.039-33,32.25c-15.838,1.257-29.536-11.397-44.25-14.25C375.828,480.5,361.264,482.527,348.5,481.409z"/>
<path fill-rule="evenodd" clip-rule="evenodd" fill="#7D5E23" stroke="#000000" stroke-width="1.5" stroke-linecap="square" stroke-miterlimit="10" d="  M398,482.909C384.447,484.846,384.167,481.465,398,482.909L398,482.909z"/>
<path fill-rule="evenodd" clip-rule="evenodd" fill="#7D5E23" stroke="#000000" stroke-width="1.5" stroke-linecap="square" stroke-miterlimit="10" d="  M405.5,484.409C393.627,485.616,392.208,483.986,405.5,484.409L405.5,484.409z"/>
<path fill-rule="evenodd" clip-rule="evenodd" fill="#7D5E23" stroke="#000000" stroke-width="1.5" stroke-linecap="square" stroke-miterlimit="10" d="  M424.25,487.409C403.571,502.132,404.722,471.955,424.25,487.409L424.25,487.409z"/>
<path fill-rule="evenodd" clip-rule="evenodd" fill="#7D5E23" stroke="#000000" stroke-width="1.5" stroke-linecap="square" stroke-miterlimit="10" d="  M392.75,484.409c-3.821,0.186-8.019,2.426-12.75,0.75c0-0.5,0-1,0-1.5C384.541,482.588,388.855,484.356,392.75,484.409z"/>
<path fill-rule="evenodd" clip-rule="evenodd" fill="#7D5E23" stroke="#000000" stroke-width="1.5" stroke-linecap="square" stroke-miterlimit="10" d="  M411.5,488.909C397.702,494.618,395.963,484.579,411.5,488.909L411.5,488.909z"/>
<path fill-rule="evenodd" clip-rule="evenodd" fill="#EED5B6" stroke="#000000" stroke-width="1.25" stroke-linecap="square" stroke-miterlimit="10" d="  M399.5,403.409C389.036,405.218,388.727,401.999,399.5,403.409L399.5,403.409z"/>
<path fill-rule="evenodd" clip-rule="evenodd" fill="#137827" stroke="#000000" stroke-width="1.25" stroke-linecap="square" stroke-miterlimit="10" d="  M418.25,398.909c12.343,11.827,24.557,3.682,34.5-7.5c-8.75-5.25-17.5-10.5-26.25-15.75  C423.86,383.097,419.586,391.15,418.25,398.909z"/>
<path fill-rule="evenodd" clip-rule="evenodd" fill="#392170" d="M441.5,412.409c-26.056,14.81,3.191,46.309,24.375,25.125  C488.937,414.472,463.34,409.404,441.5,412.409z"/>
<path fill="none" stroke="#000000" stroke-width="1.5" stroke-linecap="square" stroke-miterlimit="10" d="M441.5,412.409  c-26.056,14.81,3.191,46.309,24.375,25.125C488.937,414.472,463.34,409.404,441.5,412.409"/>
<path fill-rule="evenodd" clip-rule="evenodd" fill="#EED5B6" stroke="#000000" stroke-width="1.25" stroke-linecap="square" stroke-miterlimit="10" d="  M466.25,478.409c-25.104-29.534-28.108-26.87-3-57c-11.24,0.477-19.572,20.041-31.5,26.25  C442.17,456.953,456.477,478.253,466.25,478.409z"/>
<path fill-rule="evenodd" clip-rule="evenodd" fill="#EED5B6" stroke="#000000" stroke-width="1.25" stroke-linecap="square" stroke-miterlimit="10" d="  M423.5,443.159c9-8,18-16,27-24c-1-1-2-2-3-3c-32.37,34.538-28.411,26.339-16.5,76.5C436.84,481.211,427.079,458.191,423.5,443.159z  "/>
<path fill="none" stroke="#000000" stroke-width="1.25" stroke-linecap="square" stroke-miterlimit="10" d="M419.75,379.409  c-0.575,6.458,0.438,12.833,3,18.75"/>
<path fill-rule="evenodd" clip-rule="evenodd" fill="#EED5B6" stroke="#000000" stroke-width="1.25" stroke-linecap="square" stroke-miterlimit="10" d="  M389.75,359.909c13.157,22.956,42.19,2.407,24.75-19.5C407.141,348.129,399.336,355.361,389.75,359.909z"/>
<path fill-rule="evenodd" clip-rule="evenodd" fill="#392170" stroke="#000000" stroke-width="1.5" stroke-linecap="square" stroke-miterlimit="10" d="  M413,339.659c-9.94,11.844-23.993,21.521-38.25,27C385.646,357.849,388.883,324.679,413,339.659z"/>
<path fill-rule="evenodd" clip-rule="evenodd" fill="#392170" stroke="#000000" stroke-width="1.5" stroke-linecap="square" stroke-miterlimit="10" d="  M438.5,412.409c-6.25,6.75-12.5,13.5-18.75,20.25C448.408,468.765,499.694,398.418,438.5,412.409z"/>
<path fill-rule="evenodd" clip-rule="evenodd" fill="#137827" stroke="#000000" stroke-width="1.25" stroke-linecap="square" stroke-miterlimit="10" d="  M416,370.409c1.331-5.377,6.794-7.894,6.75-15c29.893,1.216,42.783,30.463,51.75,54.75c-18.191-1.096-43.768,7.759-46.5-15.75  c-8.804,3.277-13.318-0.691-23.25-2.25C408.264,385.366,411.133,376.266,416,370.409z"/>
<path fill-rule="evenodd" clip-rule="evenodd" stroke="#000000" stroke-width="1.25" stroke-linecap="square" stroke-miterlimit="10" d="  M437,486.659C377.074,482.603,452.926,514.663,437,486.659L437,486.659z"/>
<path fill="none" stroke="#000000" stroke-width="1.25" stroke-linecap="square" stroke-miterlimit="10" d="M433.25,374.909  c3.269,7.422,1.261,14.359-5.25,19.5"/>
<path fill-rule="evenodd" clip-rule="evenodd" stroke="#000000" stroke-width="1.25" stroke-linecap="square" stroke-miterlimit="10" d="  M395.75,386.909c-1.842,25.217-23.139,46.556-28.5,72c19.631-14.493,21.527-49.666,42-65.25  C404.937,391.502,400.389,388.131,395.75,386.909z M402.5,395.909c-3.607,0.161-6.534,4.982-4.5-3  C397.713,392.845,405.774,395.763,402.5,395.909z"/>
<path fill-rule="evenodd" clip-rule="evenodd" fill="#EED5B6" stroke="#000000" stroke-width="1.25" stroke-linecap="square" stroke-miterlimit="10" d="  M395.75,404.909c1.101-0.274-2.287,5.54-3,6c-2.252-6.706-2.358-5.319,0-12C394.512,399.777,395.993,404.987,395.75,404.909z"/>
<path fill-rule="evenodd" clip-rule="evenodd" fill="#C7834D" stroke="#000000" stroke-width="1.25" stroke-linecap="square" stroke-miterlimit="10" d="  M460.25,488.159c-6.615,1.394-9.764,5.534-16.5,0C450.213,482.859,454.125,486.732,460.25,488.159z"/>
<path fill-rule="evenodd" clip-rule="evenodd" fill="#C7834D" stroke="#000000" stroke-width="1.25" stroke-linecap="square" stroke-miterlimit="10" d="  M473,488.159c-3.768-0.176-5.262,6.077-10.5,0C467.758,481.367,469.198,487.808,473,488.159z"/>
<path fill-rule="evenodd" clip-rule="evenodd" fill="#C7834D" stroke="#000000" stroke-width="1.25" stroke-linecap="square" stroke-miterlimit="10" d="  M478.25,485.159c-4.835,0.654-7.238,5.685-12.75,0C471.012,479.474,473.415,484.504,478.25,485.159z"/>
<path fill-rule="evenodd" clip-rule="evenodd" fill="#C7834D" stroke="#000000" stroke-width="1.25" stroke-linecap="square" stroke-miterlimit="10" d="  M467.75,488.909C455.276,493.668,453.823,486.143,467.75,488.909L467.75,488.909z"/>
<path fill-rule="evenodd" clip-rule="evenodd" fill="#7D5E23" d="M389.75,490.409c-21.771,4.784-31.884-21.657-58.5-4.5  C350.75,487.409,370.25,488.909,389.75,490.409z"/>
<path fill="none" stroke="#000000" stroke-width="1.5" stroke-linecap="square" stroke-miterlimit="10" d="M389.75,490.409  c-21.771,4.784-31.884-21.657-58.5-4.5"/>
<path fill-rule="evenodd" clip-rule="evenodd" stroke="#000000" stroke-width="1.25" stroke-linecap="square" stroke-miterlimit="10" d="  M469.25,477.659C415.547,470.83,482.171,505.226,469.25,477.659L469.25,477.659z"/>
<path fill="none" stroke="#000000" stroke-width="1.25" stroke-linecap="square" stroke-miterlimit="10" d="M367.25,461.909  c-1.229,5.562-3.812,10.754-7.5,15"/>
<path fill-rule="evenodd" clip-rule="evenodd" fill="#EED5B6" d="M413.75,394.409c2.157,20.069-11.528,17.117-21.75,27  c-0.025,0.024-28.343,15.953-7.5,11.25C400.82,428.976,424.52,407.745,413.75,394.409z"/>
<path fill="none" stroke="#000000" stroke-width="1.25" stroke-linecap="square" stroke-miterlimit="10" d="M413.75,394.409  c2.157,20.069-11.528,17.117-21.75,27c-0.025,0.024-28.343,15.953-7.5,11.25C400.82,428.976,424.52,407.745,413.75,394.409z"/>
</svg>