<svg xmlns="http://www.w3.org/2000/svg" xmlns:xlink="http://www.w3.org/1999/xlink" version="1.1" id="Layer_1" x="0px" y="0px" enable-background="new 0 0 822.05 841.89" xml:space="preserve" viewBox="305.16 333.89 211.25 175.25">
<path fill-rule="evenodd" clip-rule="evenodd" fill="#F2DCC4" stroke="#000000" stroke-width="1.25" stroke-linecap="square" stroke-miterlimit="10" d="  M393.533,417.019c-18.379-18.351-28.857-8.381-48.375-1.875c-21.141,7.047-14.382,24.373,5.974,24.373  C372.838,439.517,394.672,446.772,393.533,417.019z"/>
<path fill-rule="evenodd" clip-rule="evenodd" fill="#137827" stroke="#000000" stroke-width="1.25" stroke-linecap="square" stroke-miterlimit="10" d="  M392.033,416.269c-4.791,39.654-40.041,35.995-44.25-2.25c-33.727,4.084-36.194,68.348-42,93.748c38.001,0,76.002,0,114.004,0  C416.312,483.438,416.66,427.998,392.033,416.269z"/>
<path fill-rule="evenodd" clip-rule="evenodd" fill="#F2DCC4" stroke="#000000" stroke-width="1.25" stroke-linecap="square" stroke-miterlimit="10" d="  M348.533,396.769C347.774,413.347,331.787,394.271,348.533,396.769L348.533,396.769z"/>
<path fill-rule="evenodd" clip-rule="evenodd" fill="#F2DCC4" stroke="#000000" stroke-width="1.25" stroke-linecap="square" stroke-miterlimit="10" d="  M398.033,381.019C386.108,392.984,386.108,369.054,398.033,381.019L398.033,381.019z"/>
<path fill-rule="evenodd" clip-rule="evenodd" fill="#F2DCC4" stroke="#000000" stroke-width="1.25" stroke-linecap="square" stroke-miterlimit="10" d="  M336.533,376.519c3.921,50.854,75.855,42.264,54-12C377.578,332.354,329.561,339.211,336.533,376.519z"/>
<path fill-rule="evenodd" clip-rule="evenodd" fill="#FFFFFF" d="M331.283,441.017l-0.75,66L331.283,441.017z"/>
<line fill="none" stroke="#000000" stroke-width="1.25" stroke-linecap="square" stroke-miterlimit="10" x1="331.283" y1="441.017" x2="330.533" y2="507.017"/>
<path fill-rule="evenodd" clip-rule="evenodd" fill="#F2DCC4" stroke="#000000" stroke-width="1.25" stroke-linecap="square" stroke-miterlimit="10" d="  M437.037,482.267c18.521-18.649,28.767-8.661,49.125-1.875c12.167,4.056,20.141,24.375,1.805,24.375  C465.109,504.767,435.801,514.555,437.037,482.267z"/>
<path fill-rule="evenodd" clip-rule="evenodd" fill="#137827" stroke="#000000" stroke-width="1.25" stroke-linecap="square" stroke-miterlimit="10" d="  M437.787,480.017c13.137,15.771,24.23,5.137,39,3.75c23.822-2.236,24.984-0.218,39,24.75c-36.001,0-72.003,0-108.004,0  C412.771,495.136,423.033,482.157,437.787,480.017z"/>
<path fill-rule="evenodd" clip-rule="evenodd" fill="#F2DCC4" stroke="#000000" stroke-width="1.25" stroke-linecap="square" stroke-miterlimit="10" d="  M485.787,456.767C491.893,473.372,500.674,449.909,485.787,456.767L485.787,456.767z"/>
<path fill-rule="evenodd" clip-rule="evenodd" fill="#F2DCC4" stroke="#000000" stroke-width="1.25" stroke-linecap="square" stroke-miterlimit="10" d="  M441.537,447.767C455.873,461.343,450.395,429.871,441.537,447.767L441.537,447.767z"/>
<path fill-rule="evenodd" clip-rule="evenodd" fill="#F2DCC4" stroke="#000000" stroke-width="1.25" stroke-linecap="square" stroke-miterlimit="10" d="  M493.287,436.517c3.182,51.554-66.37,56.15-55.5-1.5C444.297,400.492,490.074,398.836,493.287,436.517z"/>
<path fill-rule="evenodd" clip-rule="evenodd" fill="#FFFFFF" stroke="#000000" stroke-width="1.25" stroke-linecap="square" stroke-miterlimit="10" d="  M395.033,411.019c29.801,0.458,60.922,35.281,22.504,50.998c7.875,3.813,10.214,7.753,20.25,7.5  c-19.326,6.339-58.579-1.66-74.629-13.125C333.757,435.391,374.035,411.074,395.033,411.019z"/>
<path fill-rule="evenodd" clip-rule="evenodd" d="M356.783,378.019c-1.817,0.524-0.565,5.383-4.5,1.5  C352.759,373.556,354.636,378.638,356.783,378.019z"/>
<path fill-rule="evenodd" clip-rule="evenodd" d="M377.783,372.019c-1.77,0.612-0.183,5.457-4.5,1.5  C373.997,367.833,376.195,372.568,377.783,372.019z"/>
<path fill="none" stroke="#000000" stroke-linecap="square" stroke-miterlimit="10" d="M371.783,381.769  c-3.247-1.435-5.642-0.46-6.75,3"/>
<path fill="none" stroke="#000000" stroke-width="0.75" stroke-linecap="square" stroke-miterlimit="10" d="M347.783,380.269  c3.217-4.467,7.636-5.467,12.75-3"/>
<path fill="none" stroke="#000000" stroke-width="0.75" stroke-linecap="square" stroke-miterlimit="10" d="M382.283,370.519  c-5.286-1.806-9.622,0.074-12,5.25"/>
<path fill-rule="evenodd" clip-rule="evenodd" fill="#631D1B" stroke="#000000" stroke-linecap="square" stroke-miterlimit="10" d="  M360.533,405.019c4.752-11.026,14.342-19.274,22.5-9C375.826,398.902,368.047,403.402,360.533,405.019z"/>
<path fill-rule="evenodd" clip-rule="evenodd" fill="#FFFFFF" stroke="#000000" stroke-width="1.25" stroke-linecap="square" stroke-miterlimit="10" d="  M444.537,334.519c-33.143-0.145-65.355,39.021-24,55.5c-7.954,4.318-12.754,8.058-22.504,8.25  c22.539,4.827,62.806-1.358,81.379-14.625C511.312,360.858,467.025,334.318,444.537,334.519z"/>
<path fill-rule="evenodd" clip-rule="evenodd" d="M470.037,345.769c-21.975,4.513-18.945,17.5-39.75,4.125  c-17.245-11.086-4.618,11.264,8.25,15.375c-16.739,10.398-14.223,15.448-5.25,19.5c4.618,2.086,4.599-20.442,15.375-11.625  c5.637,4.612,10.749,9.738,15.375,15.375C455.556,364.366,442.538,363.715,470.037,345.769z"/>
<path fill="none" stroke="#000000" stroke-linecap="square" stroke-miterlimit="10" d="M464.037,449.267  c-2.345,1.368-4.58,1.046-6-1.5"/>
<path fill-rule="evenodd" clip-rule="evenodd" fill="#631D1B" stroke="#000000" stroke-linecap="square" stroke-miterlimit="10" d="  M474.537,464.267c-8.313-5.718-18.125-7.326-27.75-4.5C454.768,466.306,464.824,467.98,474.537,464.267z"/>
<path fill="none" stroke="#000000" stroke-linecap="square" stroke-miterlimit="10" d="M474.537,444.767  c-8.252-1.708-2.283,0.567,2.25,2.25"/>
<path fill="none" stroke="#000000" stroke-linecap="square" stroke-miterlimit="10" d="M451.287,440.267  c8.714,1.735,1.851,2.058-3,2.25"/>
<path fill="none" stroke="#000000" stroke-linecap="square" stroke-miterlimit="10" d="M477.537,438.767  c-4.667-0.797-8.771,0.725-11.25,4.5"/>
<path fill="none" stroke="#000000" stroke-linecap="square" stroke-miterlimit="10" d="M459.537,441.017  c-1.13-3.939-4.113-6.181-8.25-6"/>
<path fill-rule="evenodd" clip-rule="evenodd" d="M419.787,419.269c-5.261,1.604-9.878,5.179-15.004,6.748  c-7.667,2.347-13.019-0.391-17.25,0.75c-6.899,1.86-7.734-10.395-14.25-3c-2.622,2.977,14.768,12.699,17.25,13.5  c-22.781,17.916-5.191,29.009,5.25,4.5c5.909,5.96,13.814,11.136,18.754,18C402.048,442.291,398.524,431.256,419.787,419.269z"/>
</svg>