<svg xmlns="http://www.w3.org/2000/svg" xmlns:xlink="http://www.w3.org/1999/xlink" version="1.1" id="Layer_1" x="0px" y="0px" enable-background="new 0 0 822.05 841.89" xml:space="preserve" viewBox="226 263.73 368.47 316.72">
<path fill-rule="evenodd" clip-rule="evenodd" fill="#FFFFFF" stroke="#010101" stroke-width="2" stroke-linecap="square" stroke-miterlimit="10" d="  M563.75,476.395c12.523,125.026-291.744,143.103-297.75,16.5C259.962,365.633,551.28,349.228,563.75,476.395z"/>
<path fill-rule="evenodd" clip-rule="evenodd" fill="#2A286F" d="M553.25,476.395c-1.909,117.513-270.734,132.497-278.25,15  C267.509,374.293,546.045,359.14,553.25,476.395z"/>
<path fill-rule="evenodd" clip-rule="evenodd" fill="#FFFFFF" stroke="#010101" stroke-width="2" stroke-linecap="square" stroke-miterlimit="10" d="  M517.25,479.395c4.973,86.239-199.839,99.672-205.5,12C306.114,404.121,505.524,392.388,517.25,479.395z"/>
<path fill-rule="evenodd" clip-rule="evenodd" fill="#FFFFFF" stroke="#010101" stroke-width="2" stroke-linecap="square" stroke-miterlimit="10" d="  M557.75,444.145C569.474,570.873,260,584.878,260,464.77C260,334.211,542.184,315.198,557.75,444.145z"/>
<path fill-rule="evenodd" clip-rule="evenodd" fill="#2A286F" d="M548,444.145c-11.526,115.217-271.222,134.651-279,15  C261.394,342.132,532.135,327.605,548,444.145z"/>
<path fill-rule="evenodd" clip-rule="evenodd" fill="#FFFFFF" stroke="#010101" stroke-width="2" stroke-linecap="square" stroke-miterlimit="10" d="  M511.25,447.145c5.915,86.571-199.635,100.229-205.5,12C299.983,372.389,500.129,359.778,511.25,447.145z"/>
<path fill-rule="evenodd" clip-rule="evenodd" fill="#FFFFFF" stroke="#010101" stroke-width="2" stroke-linecap="square" stroke-miterlimit="10" d="  M578.75,417.895C592.905,543.003,281,559.851,281,438.52C281,307.732,566.059,288.472,578.75,417.895z"/>
<path fill-rule="evenodd" clip-rule="evenodd" fill="#2A286F" d="M568.25,417.895c-11.536,115.314-271.228,134.558-279,15  C281.645,315.907,552.39,301.39,568.25,417.895z"/>
<path fill-rule="evenodd" clip-rule="evenodd" fill="#FFFFFF" stroke="#010101" stroke-width="2" stroke-linecap="square" stroke-miterlimit="10" d="  M531.5,420.895c4.166,86.938-199.788,99.843-205.5,12C320.359,346.142,522.917,333.375,531.5,420.895z"/>
<path fill-rule="evenodd" clip-rule="evenodd" fill="#FFFFFF" stroke="#010101" stroke-width="2" stroke-linecap="square" stroke-miterlimit="10" d="  M524.75,397.645C537.295,522.88,227,538.605,227,418.27C227,286.963,513.78,268.332,524.75,397.645z"/>
<path fill-rule="evenodd" clip-rule="evenodd" fill="#2A286F" d="M514.25,397.645c-13.068,114.673-270.865,134.972-279,15  C227.31,295.545,498.518,280.96,514.25,397.645z"/>
<path fill-rule="evenodd" clip-rule="evenodd" fill="#FFFFFF" stroke="#010101" stroke-width="2" stroke-linecap="square" stroke-miterlimit="10" d="  M477.5,400.645c3.219,86.764-199.883,99.017-205.5,12C266.386,325.671,469.235,313.066,477.5,400.645z"/>
<path fill-rule="evenodd" clip-rule="evenodd" fill="#FFFFFF" stroke="#010101" stroke-width="2" stroke-linecap="square" stroke-miterlimit="10" d="  M593,365.395c14.085,124.488-291.69,144.226-297.75,16.5C289.22,254.785,580.534,238.268,593,365.395z"/>
<path fill-rule="evenodd" clip-rule="evenodd" fill="#2A286F" d="M582.5,365.395C573.757,480.5,325.774,498.777,305,384.52  C283.873,268.319,570.387,244.14,582.5,365.395z"/>
<path fill-rule="evenodd" clip-rule="evenodd" fill="#FFFFFF" stroke="#010101" stroke-width="2" stroke-linecap="square" stroke-miterlimit="10" d="  M546.5,368.395c4.989,86.514-200.559,99.979-206.25,12C334.623,293.394,535.449,281.159,546.5,368.395z"/>
<path fill-rule="evenodd" clip-rule="evenodd" fill="#FFFFFF" stroke="#010101" stroke-width="2" stroke-linecap="square" stroke-miterlimit="10" d="  M548,352.645c14.163,125.18-297.75,141.958-297.75,20.625C250.25,242.419,535.294,223.071,548,352.645z"/>
<path fill-rule="evenodd" clip-rule="evenodd" fill="#2A286F" d="M537.5,352.645C526.105,466.55,280.226,487.136,259.25,371.77  C238.176,255.863,519.445,232.211,537.5,352.645z"/>
<path fill-rule="evenodd" clip-rule="evenodd" fill="#FFFFFF" stroke="#010101" stroke-width="2" stroke-linecap="square" stroke-miterlimit="10" d="  M500.75,355.645c5.656,86.527-199.803,100.07-205.5,12C289.636,280.854,494.191,268.053,500.75,355.645z"/>
</svg>