<svg xmlns="http://www.w3.org/2000/svg" xmlns:xlink="http://www.w3.org/1999/xlink" version="1.1" id="Layer_1" x="0px" y="0px" enable-background="new 0 0 822.05 841.89" xml:space="preserve" viewBox="215.76 247.71 390.24 345.22">
<path fill-rule="evenodd" clip-rule="evenodd" fill="#E3E4E5" stroke="#000000" stroke-width="2" stroke-linecap="square" stroke-miterlimit="10" d="  M302.26,255.93c46.292-1.136,92.584-2.272,138.877-3.408c42.206-1.036,89.399-12.37,126.219,9.816  c9.828,5.922,38.295,15.367,37.628,28.266c-1.121,21.697-2.242,43.393-3.363,65.09c-2.942,56.938-5.884,113.875-8.826,170.812  c-1.021,19.764-86.062,49.836-104.843,59.559c-9.146,4.735-96.205-87.802-106.166-97.07c-22.499-20.937-69.36-48.521-70.869-75.91  C308.031,360.7,305.146,308.315,302.26,255.93z"/>
<path fill-rule="evenodd" clip-rule="evenodd" fill="#FFFFFF" stroke="#000000" stroke-width="2" stroke-linecap="square" stroke-miterlimit="10" d="  M495.014,398.43c-2.524,59.289-70.894,60.118-71.25,0C423.403,337.51,493.198,338.101,495.014,398.43z"/>
<path fill-rule="evenodd" clip-rule="evenodd" fill="#FFFFFF" stroke="#000000" stroke-width="2" stroke-linecap="square" stroke-miterlimit="10" d="  M519.764,393.93c-1.817,60.387-71.25,60.732-71.25,0C448.514,333.538,517.956,333.857,519.764,393.93z"/>
<path fill-rule="evenodd" clip-rule="evenodd" fill="#FFFFFF" stroke="#000000" stroke-width="2" stroke-linecap="square" stroke-miterlimit="10" d="  M414.01,382.68c-1.804,59.938-71.25,60.521-71.25,0C342.76,322.158,412.206,322.743,414.01,382.68z"/>
<path fill-rule="evenodd" clip-rule="evenodd" fill="#FFFFFF" stroke="#000000" stroke-width="2" stroke-linecap="square" stroke-miterlimit="10" d="  M435.014,382.68c1.123,60.195-71.254,60.329-71.254,0C363.76,322.351,436.137,322.485,435.014,382.68z"/>
<line fill="none" stroke="#000000" stroke-width="2" stroke-linecap="square" stroke-miterlimit="10" x1="546.764" y1="249.93" x2="534.014" y2="558.93"/>
<path fill-rule="evenodd" clip-rule="evenodd" fill="#95979D" stroke="#000000" stroke-width="2" stroke-linecap="square" stroke-miterlimit="10" d="  M216.76,387.18c28.584-31.017,28.72-39.089,68.572-33.968c47.177,6.063,94.354,12.125,141.532,18.188  c24.626,3.165,32.196,45.796,41.632,66.376c18.667,40.712,37.334,81.425,56,122.138c7.724,16.845-49.343,30.757-63.947,27.479  c-43.319-9.72-86.638-19.44-129.957-29.16c-18.153-4.073-43.18-61.952-52.81-76.823C257.44,450,237.1,418.59,216.76,387.18z"/>
<path fill-rule="evenodd" clip-rule="evenodd" fill="#95979D" d="M216.76,387.18c65.486,8.217,130.972,16.434,196.458,24.651  c17.173,2.154,59.112,157.358,67.546,180.099C392.762,523.68,304.761,455.43,216.76,387.18z"/>
<path fill="none" stroke="#000000" stroke-width="2" stroke-linecap="square" stroke-miterlimit="10" d="M216.76,387.18  c65.486,8.217,130.972,16.434,196.458,24.651c17.173,2.154,59.112,157.358,67.546,180.099"/>
<line fill="none" stroke="#000000" stroke-width="2" stroke-linecap="square" stroke-miterlimit="10" x1="414.01" y1="411.93" x2="438.764" y2="372.93"/>
<path fill-rule="evenodd" clip-rule="evenodd" fill="#A7A7AC" stroke="#000000" stroke-width="2" stroke-linecap="square" stroke-miterlimit="10" d="  M302.26,315.93c80.501,3.25,161.003,6.5,241.504,9.75c1-25.25,2-50.5,3-75.75c-57.008,1.399-114.016,2.798-171.024,4.197  c-23.632,0.58-47.263,1.16-70.895,1.74C299.028,256.009,302.26,307.448,302.26,315.93z"/>
<line fill="none" stroke="#000000" stroke-width="2" stroke-linecap="square" stroke-miterlimit="10" x1="539.264" y1="399.18" x2="458.264" y2="416.43"/>
<line fill="none" stroke="#000000" stroke-width="2" stroke-linecap="square" stroke-miterlimit="10" x1="540.764" y1="450.93" x2="489.014" y2="474.93"/>
<path fill-rule="evenodd" clip-rule="evenodd" fill="#ECEDED" stroke="#000000" stroke-width="2" stroke-linecap="square" stroke-miterlimit="10" d="  M288.01,423.18c-4.656,32.754,29,26.037,52.621,29.251c22.312,3.036,67.723,23.123,65.129-12.751  C366.51,434.18,327.26,428.68,288.01,423.18z"/>
<path fill-rule="evenodd" clip-rule="evenodd" fill="#6D6F71" stroke="#000000" stroke-width="2" stroke-linecap="square" stroke-miterlimit="10" d="  M531.014,288.93c-4.089,23.911-45.237,26.414-45.75,0C484.747,262.333,527.556,264.111,531.014,288.93z"/>
<path fill-rule="evenodd" clip-rule="evenodd" fill="#6D6F71" stroke="#000000" stroke-width="2" stroke-linecap="square" stroke-miterlimit="10" d="  M459.764,298.68c-9.164,0-76.691,7.179-61.504-13.5C403.994,277.373,464.628,277.192,459.764,298.68z"/>
</svg>