<svg xmlns="http://www.w3.org/2000/svg" xmlns:xlink="http://www.w3.org/1999/xlink" version="1.1" id="Layer_1" x="0px" y="0px" enable-background="new 0 0 822.05 841.89" xml:space="preserve" viewBox="202.67 291.29 413.83 266.26">
<path fill-rule="evenodd" clip-rule="evenodd" fill="#808285" stroke="#000000" stroke-width="2" stroke-linecap="square" stroke-miterlimit="10" d="  M203.75,375.8c36.377-33.282,94.016-56.58,137.5-82.056c18.016-10.555,110.189,39.355,110.944,57.472  c1.405,33.72-105.774,72.466-134.652,88.526C295.633,451.926,200.458,401.073,203.75,375.8z"/>
<path fill-rule="evenodd" clip-rule="evenodd" fill="#BCBEC0" stroke="#000000" stroke-width="2" stroke-linecap="square" stroke-miterlimit="10" d="  M418.25,348.05c-3.671,54.122-133.689,53.743-133.5,0C284.938,294.708,412.609,295.029,418.25,348.05z"/>
<path fill-rule="evenodd" clip-rule="evenodd" fill="#ECEDED" stroke="#000000" stroke-width="2" stroke-linecap="square" stroke-miterlimit="10" d="  M419,340.55c-4.169,53.799-133.621,54.161-133.5,0C285.62,286.977,413.088,287.66,419,340.55z"/>
<path fill-rule="evenodd" clip-rule="evenodd" fill="#939598" stroke="#000000" stroke-width="2" stroke-linecap="square" stroke-miterlimit="10" d="  M371.75,337.55c-5.459,12.747-44.18,21.436-45,0C325.942,316.433,366.9,322.625,371.75,337.55z"/>
<path fill="none" stroke="#000000" stroke-width="2" stroke-linecap="square" stroke-miterlimit="10" d="M206,374.3  c20.613,11.712,85.507,63.96,105.851,52.336C358.567,399.94,405.284,373.246,452,346.55"/>
<line fill="none" stroke="#000000" stroke-width="2" stroke-linecap="square" stroke-miterlimit="10" x1="305" y1="430.55" x2="305.75" y2="446.3"/>
<path fill-rule="evenodd" clip-rule="evenodd" fill="#BCBEC0" stroke="#000000" stroke-width="2" stroke-linecap="square" stroke-miterlimit="10" d="  M263.75,332.3c-14.082,8.449-47.997,27.005-31.125,49.5C272.926,435.535,292.491,335.516,263.75,332.3z"/>
<path fill="none" stroke="#000000" stroke-width="2" stroke-linecap="square" stroke-miterlimit="10" d="M229.25,363.05  c-0.35,21.727,29.403,30.71,44.25,16.5"/>
<line fill="none" stroke="#000000" stroke-width="2" stroke-linecap="square" stroke-miterlimit="10" x1="257" y1="390.05" x2="257" y2="397.55"/>
<path fill-rule="evenodd" clip-rule="evenodd" fill="#CAB49E" stroke="#000000" stroke-width="2" stroke-linecap="square" stroke-miterlimit="10" d="  M279.5,357.8c18.538,17.687,58.039,1.244,80.25-2.25C338.352,353.939,296.067,340.881,279.5,357.8z"/>
<path fill-rule="evenodd" clip-rule="evenodd" fill="#6E91A3" stroke="#000000" stroke-width="2" stroke-linecap="square" stroke-miterlimit="10" d="  M287,351.05c12.608,12.17-6.979,20.87-16.5,12.75C258.29,353.386,278.982,349.082,287,351.05z"/>
<path fill-rule="evenodd" clip-rule="evenodd" fill="#808285" stroke="#000000" stroke-width="2" stroke-linecap="square" stroke-miterlimit="10" d="  M367.25,399.05c32.378-35.194,98.225-59.589,140.864-84.48c18.332-10.702,107.386,46.481,107.386,68.008  c0,21.166-118.266,70.58-139.435,82.413C459.146,474.448,363.578,419.964,367.25,399.05z"/>
<path fill-rule="evenodd" clip-rule="evenodd" fill="#BCBEC0" stroke="#000000" stroke-width="2" stroke-linecap="square" stroke-miterlimit="10" d="  M581.75,371.3c-5.458,53.98-122.83,53.349-133.125,1.875C438.296,321.53,576.343,314.545,581.75,371.3z"/>
<path fill-rule="evenodd" clip-rule="evenodd" fill="#ECEDED" stroke="#000000" stroke-width="2" stroke-linecap="square" stroke-miterlimit="10" d="  M581.75,363.8c-5.052,53.791-132.664,53.836-132.75,0C448.914,309.966,577.788,309.761,581.75,363.8z"/>
<path fill-rule="evenodd" clip-rule="evenodd" fill="#939598" stroke="#000000" stroke-width="2" stroke-linecap="square" stroke-miterlimit="10" d="  M535.25,360.05c-5.062,12.679-40.146,22.079-44.25,3C486.274,341.08,528.646,344.543,535.25,360.05z"/>
<path fill="none" stroke="#000000" stroke-width="2" stroke-linecap="square" stroke-miterlimit="10" d="M369.5,397.55  c20.613,11.712,85.507,63.96,105.851,52.336c46.717-26.695,93.433-53.391,140.149-80.086"/>
<line fill="none" stroke="#000000" stroke-width="2" stroke-linecap="square" stroke-miterlimit="10" x1="468.5" y1="453.8" x2="469.25" y2="468.8"/>
<path fill-rule="evenodd" clip-rule="evenodd" fill="#BCBEC0" stroke="#000000" stroke-width="2" stroke-linecap="square" stroke-miterlimit="10" d="  M427.25,355.55c-18.259,10.651-46.257,25.525-30.75,51C429.356,460.527,461.805,357.327,427.25,355.55z"/>
<path fill="none" stroke="#000000" stroke-width="2" stroke-linecap="square" stroke-miterlimit="10" d="M392.75,386.3  c-0.573,21.352,29.066,30.484,44.25,16.5"/>
<line fill="none" stroke="#000000" stroke-width="2" stroke-linecap="square" stroke-miterlimit="10" x1="419.75" y1="413.3" x2="419.75" y2="420.8"/>
<path fill-rule="evenodd" clip-rule="evenodd" fill="#CAB49E" stroke="#000000" stroke-width="2" stroke-linecap="square" stroke-miterlimit="10" d="  M443,381.05c17.746,17.814,57.811,1.162,79.5-2.25C501.271,377.185,459.426,364.209,443,381.05z"/>
<path fill-rule="evenodd" clip-rule="evenodd" fill="#6E91A3" stroke="#000000" stroke-width="2" stroke-linecap="square" stroke-miterlimit="10" d="  M450.5,374.3c10.488,12.337-5.504,19.141-17.25,12C419.421,377.893,443.01,372.034,450.5,374.3z"/>
<path fill-rule="evenodd" clip-rule="evenodd" fill="#808285" stroke="#000000" stroke-width="2" stroke-linecap="square" stroke-miterlimit="10" d="  M218.75,486.8c32.378-35.194,98.225-59.589,140.865-84.48c18.358-10.717,107,46.364,107.941,68.008  c0.867,19.955-119.438,71.003-139.955,82.413C310.62,562.184,215.075,507.732,218.75,486.8z"/>
<path fill-rule="evenodd" clip-rule="evenodd" fill="#BCBEC0" stroke="#000000" stroke-width="2" stroke-linecap="square" stroke-miterlimit="10" d="  M433.25,459.05c-6.23,53.173-133.378,53.628-133.5,0C299.627,405.075,428.863,404.959,433.25,459.05z"/>
<path fill-rule="evenodd" clip-rule="evenodd" fill="#ECEDED" stroke="#000000" stroke-width="2" stroke-linecap="square" stroke-miterlimit="10" d="  M433.25,451.55c-3.646,53.239-132.617,53.197-132.75,0C300.365,397.633,431.365,397.627,433.25,451.55z"/>
<path fill-rule="evenodd" clip-rule="evenodd" fill="#939598" stroke="#000000" stroke-width="2" stroke-linecap="square" stroke-miterlimit="10" d="  M386.75,447.8c-4.918,12.07-39.484,22.408-44.25,3C337.201,429.221,380.357,432.361,386.75,447.8z"/>
<path fill="none" stroke="#000000" stroke-width="2" stroke-linecap="square" stroke-miterlimit="10" d="M221,485.3  c20.613,11.712,85.507,63.96,105.851,52.336c46.716-26.695,93.433-53.391,140.149-80.086"/>
<line fill="none" stroke="#000000" stroke-width="2" stroke-linecap="square" stroke-miterlimit="10" x1="320" y1="541.55" x2="320.75" y2="556.55"/>
<path fill-rule="evenodd" clip-rule="evenodd" fill="#BCBEC0" stroke="#000000" stroke-width="2" stroke-linecap="square" stroke-miterlimit="10" d="  M278.75,442.55c-18.62,11.379-46.026,26.16-30,51.75C281.794,547.063,312.74,446.479,278.75,442.55z"/>
<path fill="none" stroke="#000000" stroke-width="2" stroke-linecap="square" stroke-miterlimit="10" d="M244.25,474.05  c-0.515,21.028,29.353,30.758,44.25,16.5"/>
<line fill="none" stroke="#000000" stroke-width="2" stroke-linecap="square" stroke-miterlimit="10" x1="272" y1="501.05" x2="272" y2="508.55"/>
<path fill-rule="evenodd" clip-rule="evenodd" fill="#CAB49E" stroke="#000000" stroke-width="2" stroke-linecap="square" stroke-miterlimit="10" d="  M294.5,468.8c17.747,17.814,57.811,1.162,79.5-2.25C352.772,464.935,310.926,451.958,294.5,468.8z"/>
<path fill-rule="evenodd" clip-rule="evenodd" fill="#6E91A3" stroke="#000000" stroke-width="2" stroke-linecap="square" stroke-miterlimit="10" d="  M302,462.05c10.518,11.745-5.184,19.329-16.5,12C271.906,465.246,294.32,459.843,302,462.05z"/>
</svg>