<svg xmlns="http://www.w3.org/2000/svg" xmlns:xlink="http://www.w3.org/1999/xlink" version="1.1" id="Layer_1" x="0px" y="0px" enable-background="new 0 0 822.05 841.89" xml:space="preserve" viewBox="210.06 297.07 400.98 251.98">
<path fill-rule="evenodd" clip-rule="evenodd" fill="#808285" stroke="#000000" stroke-width="2" stroke-linecap="square" stroke-miterlimit="10" d="  M211.9,436.299c10.934-20.69,63.14-40.286,84.793-52.922c46.786-27.304,93.571-54.607,140.357-81.911  c24.023-14.02,55.958,19.053,77.726,31.869c35.282,20.774,94.116,36.336,95.259,79.761c0.4,15.213-71.993,44.412-84.616,51.407  c-46.344,25.68-92.687,51.36-139.029,77.041c-24.033,13.316-56.345-18.482-78.23-30.742  C285.196,497.939,201.816,471.322,211.9,436.299z"/>
<path fill-rule="evenodd" clip-rule="evenodd" fill="#BCBEC0" stroke="#000000" stroke-width="2" stroke-linecap="square" stroke-miterlimit="10" d="  M554.652,391.299c-0.615,86.14-213.806,85.519-213.002,0C342.448,306.426,552.458,306.033,554.652,391.299z"/>
<path fill-rule="evenodd" clip-rule="evenodd" fill="#ECEDED" stroke="#000000" stroke-width="2" stroke-linecap="square" stroke-miterlimit="10" d="  M555.402,379.299c-0.614,85.999-213.804,85.38-213.002,0C343.2,294.244,553.203,293.852,555.402,379.299z"/>
<path fill-rule="evenodd" clip-rule="evenodd" fill="#939598" stroke="#000000" stroke-width="2" stroke-linecap="square" stroke-miterlimit="10" d="  M481.152,374.049c-6.557,26.487-71.806,30.377-72.002,0C408.955,343.796,475.23,346.743,481.152,374.049z"/>
<path fill="none" stroke="#000000" stroke-width="2" stroke-linecap="square" stroke-miterlimit="10" d="M215.65,434.049  c34.182,19.278,68.364,38.556,102.546,57.834c26.843,15.139,44.888,37.582,72.274,21.97  c72.978-41.601,145.954-83.202,218.932-124.804"/>
<line fill="none" stroke="#000000" stroke-width="2" stroke-linecap="square" stroke-miterlimit="10" x1="373.9" y1="523.299" x2="374.65" y2="548.049"/>
<path fill-rule="evenodd" clip-rule="evenodd" fill="#BCBEC0" stroke="#000000" stroke-width="2" stroke-linecap="square" stroke-miterlimit="10" d="  M307.9,365.799c-26.439,15.771-79.548,45.819-46.5,84.375C329.557,529.691,347.696,364.888,307.9,365.799z"/>
<path fill="none" stroke="#000000" stroke-width="2" stroke-linecap="square" stroke-miterlimit="10" d="M253.15,416.049  c-3.29,12.466,3.866,18.398,12.75,26.25c20.504,18.121,36.451,11.241,57.75,0"/>
<line fill="none" stroke="#000000" stroke-width="2" stroke-linecap="square" stroke-miterlimit="10" x1="296.65" y1="458.799" x2="296.65" y2="470.799"/>
<path fill-rule="evenodd" clip-rule="evenodd" fill="#CAB49E" stroke="#000000" stroke-width="2" stroke-linecap="square" stroke-miterlimit="10" d="  M333.4,407.049c27.872,28.973,92.97,1.804,127.502-3.75C429.64,400.976,356.149,379.163,333.4,407.049z"/>
<path fill-rule="evenodd" clip-rule="evenodd" fill="#6E91A3" stroke="#000000" stroke-width="2" stroke-linecap="square" stroke-miterlimit="10" d="  M344.65,396.549c23.29,13.168-5.298,28.181-21.375,21.75C295.243,407.086,327.655,390.854,344.65,396.549z"/>
</svg>