<svg xmlns="http://www.w3.org/2000/svg" xmlns:xlink="http://www.w3.org/1999/xlink" version="1.1" id="Layer_1" x="0px" y="0px" enable-background="new 0 0 822.05 841.89" xml:space="preserve" viewBox="207.01 243.4 414.49 358.28">
<path fill-rule="evenodd" clip-rule="evenodd" fill="#FFF19F" stroke="#000000" stroke-width="2" stroke-linecap="square" stroke-miterlimit="10" d="  M346.008,252.89c19.055-3.74,55.249-14.158,73.5-4.5c19.065,10.089,8.467,32.485,26.25,39.75c-0.373,14.566,7.068,58.5-9.45,58.5  c-15.7,0-31.399,0-47.099,0c-14.444,0-7.951-16.786-7.951-29.25c0-8.332-4.831-28.507,4.875-30  c3.374-0.519,9.292-14.074,9.181-16.861C394.149,241.435,362.832,266.7,346.008,252.89z"/>
<path fill-rule="evenodd" clip-rule="evenodd" fill="#FFE500" stroke="#000000" stroke-width="2" stroke-linecap="square" stroke-miterlimit="10" d="  M385.758,347.39c-56.947,35.217-35.25,109.273-35.25,167.619c0,24.015-4.678,48.445,7.5,69.756  c14.237,24.915,62.806,13.125,85.714,13.125c56.793,0,30.536-138.849,30.536-172.073  C474.258,357.359,454.693,348.419,385.758,347.39z"/>
<line fill="none" stroke="#000000" stroke-width="2" stroke-linecap="square" stroke-miterlimit="10" x1="395.508" y1="275.39" x2="431.508" y2="275.39"/>
<line fill="none" stroke="#000000" stroke-width="2" stroke-linecap="square" stroke-miterlimit="10" x1="400.758" y1="288.14" x2="400.758" y2="345.89"/>
<line fill="none" stroke="#000000" stroke-width="2" stroke-linecap="square" stroke-miterlimit="10" x1="412.758" y1="288.89" x2="412.758" y2="348.14"/>
<line fill="none" stroke="#000000" stroke-width="2" stroke-linecap="square" stroke-miterlimit="10" x1="424.008" y1="288.89" x2="424.008" y2="345.14"/>
<path fill="none" stroke="#000000" stroke-width="2" stroke-linecap="square" stroke-miterlimit="10" d="M434.508,345.14  c-0.397-31.031,12.556-58.5-22.125-58.5c-34.897,0-21.375,28.17-21.375,59.25"/>
<path fill-rule="evenodd" clip-rule="evenodd" fill="#FFF19F" stroke="#000000" stroke-width="2" stroke-linecap="square" stroke-miterlimit="10" d="  M208.008,252.89c19.055-3.74,55.249-14.158,73.5-4.5c19.065,10.089,8.467,32.485,26.25,39.75c-0.374,14.566,7.068,58.5-9.451,58.5  c-15.7,0-31.399,0-47.099,0c-14.444,0-7.951-16.786-7.951-29.25c0-8.332-4.831-28.507,4.875-30  c3.374-0.519,9.292-14.074,9.181-16.861C256.149,241.435,224.832,266.7,208.008,252.89z"/>
<path fill-rule="evenodd" clip-rule="evenodd" fill="#FFE500" stroke="#000000" stroke-width="2" stroke-linecap="square" stroke-miterlimit="10" d="  M247.758,347.39c-56.947,35.217-35.25,109.273-35.25,167.619c0,24.015-4.678,48.445,7.5,69.756  c14.237,24.915,62.806,13.125,85.713,13.125c56.793,0,30.537-138.849,30.537-172.073  C336.258,357.359,316.693,348.419,247.758,347.39z"/>
<line fill="none" stroke="#000000" stroke-width="2" stroke-linecap="square" stroke-miterlimit="10" x1="257.508" y1="275.39" x2="293.508" y2="275.39"/>
<line fill="none" stroke="#000000" stroke-width="2" stroke-linecap="square" stroke-miterlimit="10" x1="262.758" y1="288.14" x2="262.758" y2="345.89"/>
<line fill="none" stroke="#000000" stroke-width="2" stroke-linecap="square" stroke-miterlimit="10" x1="274.758" y1="288.89" x2="274.758" y2="348.14"/>
<line fill="none" stroke="#000000" stroke-width="2" stroke-linecap="square" stroke-miterlimit="10" x1="286.008" y1="288.89" x2="286.008" y2="345.14"/>
<path fill="none" stroke="#000000" stroke-width="2" stroke-linecap="square" stroke-miterlimit="10" d="M296.508,345.14  c-0.398-31.031,12.556-58.5-22.125-58.5c-34.897,0-21.375,28.17-21.375,59.25"/>
<path fill-rule="evenodd" clip-rule="evenodd" fill="#FFF19F" stroke="#000000" stroke-width="2" stroke-linecap="square" stroke-miterlimit="10" d="  M486.258,252.89c18.891-3.872,55.365-14.097,73.5-4.5c19.215,10.169,7.186,34.28,26.25,39.75c-0.373,14.566,7.068,58.5-9.45,58.5  c-15.7,0-31.399,0-47.1,0c-14.443,0-7.95-16.786-7.95-29.25c0-8.332-4.83-28.507,4.875-30c3.373-0.519,9.292-14.074,9.181-16.861  C534.385,241.065,502.126,267.21,486.258,252.89z"/>
<path fill-rule="evenodd" clip-rule="evenodd" fill="#FFE500" stroke="#000000" stroke-width="2" stroke-linecap="square" stroke-miterlimit="10" d="  M526.008,347.39c-57.489,33.305-35.25,111.188-35.25,167.619c0,81.214,11.258,82.881,93.214,82.881  c56.591,0,30.536-139.229,30.536-172.073C614.508,357.624,594.434,348.412,526.008,347.39z"/>
<line fill="none" stroke="#000000" stroke-width="2" stroke-linecap="square" stroke-miterlimit="10" x1="535.758" y1="275.39" x2="571.758" y2="275.39"/>
<line fill="none" stroke="#000000" stroke-width="2" stroke-linecap="square" stroke-miterlimit="10" x1="541.008" y1="288.14" x2="541.008" y2="345.89"/>
<line fill="none" stroke="#000000" stroke-width="2" stroke-linecap="square" stroke-miterlimit="10" x1="552.258" y1="288.89" x2="552.258" y2="348.14"/>
<line fill="none" stroke="#000000" stroke-width="2" stroke-linecap="square" stroke-miterlimit="10" x1="564.258" y1="288.89" x2="564.258" y2="345.14"/>
<path fill="none" stroke="#000000" stroke-width="2" stroke-linecap="square" stroke-miterlimit="10" d="M574.758,345.14  c-0.785-30.626,11.71-58.5-22.5-58.5c-34.488,0-21,28.606-21,59.25"/>
</svg>