<svg xmlns="http://www.w3.org/2000/svg" xmlns:xlink="http://www.w3.org/1999/xlink" version="1.1" id="Layer_1" x="0px" y="0px" enable-background="new 0 0 822.05 841.89" xml:space="preserve" viewBox="309.49 350.43 204.26 142.91">
<path fill-rule="evenodd" clip-rule="evenodd" fill="#5E1F0A" d="M513.125,419.03c-11.173,46.488-47.664-11.222-48.75-30  c-0.298-5.152,5.017-16.966,14.625,2.25C485.1,403.478,497.001,443.511,513.125,419.03z"/>
<path fill="none" stroke="#000000" stroke-width="1.25" stroke-linecap="square" stroke-miterlimit="10" d="M513.125,419.03  c-11.173,46.488-47.664-11.222-48.75-30c-0.298-5.152,5.017-16.966,14.625,2.25C485.1,403.478,497.001,443.511,513.125,419.03"/>
<path fill-rule="evenodd" clip-rule="evenodd" fill="#5E1F0A" stroke="#000000" stroke-width="1.25" stroke-linecap="square" stroke-miterlimit="10" d="  M456.875,443.78c1.347,6.293-7.573,47.11-10.5,42.75C454.163,498.132,491.19,448.684,456.875,443.78z"/>
<path fill-rule="evenodd" clip-rule="evenodd" fill="#5E1F0A" stroke="#000000" stroke-width="1.25" stroke-linecap="square" stroke-miterlimit="10" d="  M483.125,448.28c-48.417-10.677,28.483-83.581-57-75.75c-12.398,1.136-53.162,10.06-58.5-8.625  c-4.198-14.693-22.565-14.31-33.75-10.875c-4.346,1.334-25.096,22.164-23.25,27.75c5.031,15.223,29.586,6.495,39,16.5  c21.888,23.263,7.259,72.403-15,86.25c26.622,13.877,37.458-36.125,41.25-52.5c16.437,13.563,2.771,46.989,10.5,56.25  c12.855,15.404,8.482-57.787,8.25-62.25c12.836,5.839,28.863-3.224,40.5-12c-9.201,33.347,39,32.709,39,50.625  c0,3.989-8.145,31.608,0.75,28.875C485.573,489.242,483.326,456.136,483.125,448.28z"/>
<path fill="none" stroke="#000000" stroke-width="1.25" stroke-linecap="square" stroke-miterlimit="10" d="M446.375,395.03  c-6.025,5.224-9.371,12.221-9.75,20.25"/>
<path fill="none" stroke="#000000" stroke-width="1.25" stroke-linecap="square" stroke-miterlimit="10" d="M314.375,384.53  c7.776,2.113,15.976,1.022,23.25-3"/>
<path fill-rule="evenodd" clip-rule="evenodd" stroke="#000000" stroke-width="1.25" stroke-linecap="square" stroke-miterlimit="10" d="  M342.875,368.78c-2.236,0.272-2.24,6.352-5.25,0C340.48,364.209,341.144,368.99,342.875,368.78z"/>
<path fill-rule="evenodd" clip-rule="evenodd" stroke="#000000" stroke-width="1.25" stroke-linecap="square" stroke-miterlimit="10" d="  M320.375,377.78C306.054,381.409,307.35,371.713,320.375,377.78L320.375,377.78z"/>
<path fill="none" stroke="#000000" stroke-width="1.25" stroke-linecap="square" stroke-miterlimit="10" d="M365.375,419.78  c2.551,5.46,6.748,9.929,12,12.75"/>
<path fill="none" stroke="#000000" stroke-width="1.25" stroke-linecap="square" stroke-miterlimit="10" d="M391.625,416.78  c2.54,2.818,3.803,6.481,3.75,10.5"/>
<path fill="none" stroke="#000000" stroke-width="1.25" stroke-linecap="square" stroke-miterlimit="10" d="M369.875,368.03  c12.568,36.597-26.049,20.603-15.75-3.75"/>
<path fill-rule="evenodd" clip-rule="evenodd" fill="#FB0F0C" stroke="#000000" stroke-width="1.25" stroke-linecap="square" stroke-miterlimit="10" d="  M378.125,372.53c-2.073,14.947-6.94,34.172-24,34.5c-0.25,2-0.5,4-0.75,6C371.434,413.711,390.837,381.348,378.125,372.53z"/>
<path fill-rule="evenodd" clip-rule="evenodd" fill="#F7DE58" stroke="#000000" stroke-width="1.25" stroke-linecap="square" stroke-miterlimit="10" d="  M360.125,411.53C349.894,413.084,350.251,410.007,360.125,411.53L360.125,411.53z"/>
</svg>