<svg xmlns="http://www.w3.org/2000/svg" xmlns:xlink="http://www.w3.org/1999/xlink" version="1.1" id="Layer_1" x="0px" y="0px" enable-background="new 0 0 822.05 841.89" xml:space="preserve" viewBox="308.4 338.98 201.17 168.46">
<path fill-rule="evenodd" clip-rule="evenodd" fill="#EED5B6" stroke="#000000" stroke-width="1.25" stroke-linecap="square" stroke-miterlimit="10" d="  M440.375,426.275c-27.292-16.985-31.446-12.322-58.5-1.5c-11.446,4.578-23.663,28.5-4.61,28.5  C415.279,453.275,430.866,464.311,440.375,426.275z"/>
<path fill-rule="evenodd" clip-rule="evenodd" fill="#137827" stroke="#000000" stroke-width="1.25" stroke-linecap="square" stroke-miterlimit="10" d="  M508.625,478.775c-20.673-20.969-44.75-59.853-72.75-53.25c-11.588,2.732-13.449,18.976-32.25,13.5  c-18.289-5.326-17.421-26.248-39.75-14.25c-20.8,11.177-27.885,60.805-33.75,81.75c44.75,0,89.5,0,134.25,0  c-1.409-7.928,0.615-17.009-1.5-24.75C475.153,492.967,512.777,512.445,508.625,478.775z"/>
<path fill-rule="evenodd" clip-rule="evenodd" fill="#EED5B6" stroke="#000000" stroke-width="1.25" stroke-linecap="square" stroke-miterlimit="10" d="  M384.125,398.525C387.924,423.719,359.617,391.648,384.125,398.525L384.125,398.525z"/>
<path fill-rule="evenodd" clip-rule="evenodd" fill="#EED5B6" stroke="#000000" stroke-width="1.25" stroke-linecap="square" stroke-miterlimit="10" d="  M444.875,382.775C430.448,402.41,430.866,361.433,444.875,382.775L444.875,382.775z"/>
<path fill-rule="evenodd" clip-rule="evenodd" fill="#EED5B6" stroke="#000000" stroke-width="1.25" stroke-linecap="square" stroke-miterlimit="10" d="  M371.375,378.275c5.323,46.301,68.431,60.162,68.25,6C439.439,328.581,366.058,323.137,371.375,378.275z"/>
<path fill-rule="evenodd" clip-rule="evenodd" fill="#EED5B6" stroke="#000000" stroke-width="1.25" stroke-linecap="square" stroke-miterlimit="10" d="  M376.625,459.275c8.116-5.373,13.127-6.561,18.75,4.5C390.053,463.759,382.171,462.033,376.625,459.275z"/>
<path fill-rule="evenodd" clip-rule="evenodd" fill="#EED5B6" stroke="#000000" stroke-width="1.25" stroke-linecap="square" stroke-miterlimit="10" d="  M371.375,463.025c12.333-11.184,44.152,1.736,22.5,3.75C407.578,492.455,337.285,486.392,371.375,463.025z"/>
<path fill-rule="evenodd" clip-rule="evenodd" fill="#EED5B6" d="M374.375,478.775c2.775,1.374,5.302,3.934,9.75,3.75  C380.875,481.275,377.625,480.025,374.375,478.775z"/>
<path fill="none" stroke="#000000" stroke-width="1.25" stroke-linecap="square" stroke-miterlimit="10" d="M374.375,478.775  c2.076,2.518,5.925,3.908,9.75,3.75"/>
<path fill-rule="evenodd" clip-rule="evenodd" fill="#EED5B6" stroke="#000000" stroke-width="1.25" stroke-linecap="square" stroke-miterlimit="10" d="  M420.875,438.275c-10.116-0.311-15.459,1.043-15,13.5C410.616,448.326,417.036,443.393,420.875,438.275z"/>
<path fill-rule="evenodd" clip-rule="evenodd" fill="#EED5B6" stroke="#000000" stroke-width="1.25" stroke-linecap="square" stroke-miterlimit="10" d="  M427.625,439.775c-15.792-4.333-38.699,19.912-19.5,14.25C412.396,484.682,466.709,445.021,427.625,439.775z"/>
<path fill-rule="evenodd" clip-rule="evenodd" fill="#137827" d="M471.125,487.775c-13.75-7.25-27.5-14.5-41.25-21.75  c9.082-5.014,13.408-13.062,11.25-22.5c14.371,6.78,28.903,13.222,43.5,19.5C480.125,471.275,475.625,479.525,471.125,487.775z"/>
<path fill="none" stroke="#000000" stroke-width="1.25" stroke-linecap="square" stroke-miterlimit="10" d="M471.125,487.775  c-13.75-7.25-27.5-14.5-41.25-21.75c9.082-5.014,13.408-13.062,11.25-22.5c14.371,6.78,28.903,13.222,43.5,19.5"/>
<path fill-rule="evenodd" clip-rule="evenodd" fill="#EED5B6" d="M432.875,455.525c-2.487,2.805-4.164,6.307-8.25,8.25  C427.375,461.025,430.125,458.275,432.875,455.525z"/>
<path fill="none" stroke="#000000" stroke-width="1.25" stroke-linecap="square" stroke-miterlimit="10" d="M432.875,455.525  c-1.496,3.495-4.584,6.507-8.25,8.25"/>
<path fill-rule="evenodd" clip-rule="evenodd" fill="#137827" stroke="#000000" stroke-width="1.25" stroke-linecap="square" stroke-miterlimit="10" d="  M381.125,487.025c-9.649-1.239-17.079-6.503-20.25-15c-9.75,11.5-19.5,23-29.25,34.5  C355.712,506.525,368.784,510.694,381.125,487.025z"/>
<path fill-rule="evenodd" clip-rule="evenodd" d="M384.125,434.525c-1.286,1.363-7.696,4.048-7.5,15  c4.787-2.146,10.634-7.41,14.25-11.25C389.603,437.457,384.747,435.518,384.125,434.525z"/>
<path fill-rule="evenodd" clip-rule="evenodd" d="M399.875,430.775c2.052,0.568,8.066,4.177,16.502,0  c-3.54-3.192-10.441-5.999-15.002-7.5C401.001,425.146,400.965,429.247,399.875,430.775z"/>
<path fill="none" stroke="#000000" stroke-linecap="square" stroke-miterlimit="10" d="M382.625,442.025  c3.431-10.981,11.014-15.449,21.75-12"/>
<path fill-rule="evenodd" clip-rule="evenodd" fill="#FFFFFF" stroke="#000000" stroke-width="1.25" stroke-linecap="square" stroke-miterlimit="10" d="  M327.875,341.525c17.233-1.463,17.257,15.635,11.25,31.5c17.688-24.582,4.002,33.701-18.375,24.75  C303.501,390.875,304.791,338.052,327.875,341.525z"/>
<path fill-rule="evenodd" clip-rule="evenodd" fill="#FFFFFF" d="M336.125,343.025l-1.5,21.75L336.125,343.025z"/>
<line fill="none" stroke="#000000" stroke-width="1.25" stroke-linecap="square" stroke-miterlimit="10" x1="336.125" y1="343.025" x2="334.625" y2="364.775"/>
<path fill-rule="evenodd" clip-rule="evenodd" fill="#FFFFFF" d="M327.875,340.775l0.75,22.5L327.875,340.775z"/>
<line fill="none" stroke="#000000" stroke-width="1.25" stroke-linecap="square" stroke-miterlimit="10" x1="327.875" y1="340.775" x2="328.625" y2="363.275"/>
<path fill-rule="evenodd" clip-rule="evenodd" fill="#FFFFFF" d="M320.375,342.275v20.25V342.275z"/>
<line fill="none" stroke="#000000" stroke-width="1.25" stroke-linecap="square" stroke-miterlimit="10" x1="320.375" y1="342.275" x2="320.375" y2="362.525"/>
</svg>