<svg xmlns="http://www.w3.org/2000/svg" xmlns:xlink="http://www.w3.org/1999/xlink" version="1.1" id="Layer_1" x="0px" y="0px" enable-background="new 0 0 822.05 841.89" xml:space="preserve" viewBox="209.02 337.5 400.48 166.94">
<path fill-rule="evenodd" clip-rule="evenodd" fill="#ECEDED" stroke="#000000" stroke-width="2" stroke-linecap="square" stroke-miterlimit="10" d="  M608.5,500.89c-102.979,0-205.957,0-308.935,0c-14.95,0-86.315,9.433-86.315-7.987c0-27.157,0-54.314,0-81.472  c0-10.268-7.259-60.507,0-68.041c10.598-11,91.045,0,105.802,0c67.711,0,135.421,0,203.132,0c14.95,0,86.315-9.433,86.315,7.987  C608.5,401.215,608.5,451.052,608.5,500.89z"/>
<path fill="none" stroke="#000000" stroke-width="2" stroke-linecap="square" stroke-miterlimit="10" d="M451,434.89  c-0.195,67.116-80.614,67.357-80.25,0C371.112,367.775,450.688,367.921,451,434.89z"/>
<path fill-rule="evenodd" clip-rule="evenodd" fill="#6D6F71" stroke="#000000" stroke-width="2" stroke-linecap="square" stroke-miterlimit="10" d="  M381.25,420.64c34.621,11.956-26.586,42.738,14.25,63.75c21.938,11.288,43.59-6.105,51.75-26.25  c-38.032-1.334-23.989-22.334-6.75-34.5C428.308,391.79,385.602,375.684,381.25,420.64z"/>
<path fill="none" stroke="#000000" stroke-width="2" stroke-linecap="square" stroke-miterlimit="10" d="M323.5,419.14  c-1.587,28.232-46.031,28.671-46.5,0C276.52,389.765,322.215,389.939,323.5,419.14z"/>
<path fill="none" stroke="#000000" stroke-width="2" stroke-linecap="square" stroke-miterlimit="10" d="M556,419.14  c-1.588,28.244-46.031,28.66-46.5,0C509.021,389.779,554.714,389.925,556,419.14z"/>
<path fill-rule="evenodd" clip-rule="evenodd" stroke="#000000" stroke-width="2" stroke-linecap="square" stroke-miterlimit="10" d="  M301.75,434.89c13.738-14.654-15.998-26.121,4.5-26.25c-1.253-3.458-4.287-6.677-7.5-8.25c-13.866,15.108,18.229,26.498-6.75,28.5  C297.634,431.43,298.045,433.002,301.75,434.89z"/>
<path fill-rule="evenodd" clip-rule="evenodd" stroke="#000000" stroke-width="2" stroke-linecap="square" stroke-miterlimit="10" d="  M534.25,435.64c14.131-14.699-16.406-25.926,4.5-26.25c-1.256-3.465-4.288-6.665-7.5-8.25c-13.779,14.924,18.098,26.957-6.75,28.5  C530.134,432.18,530.545,433.752,534.25,435.64z"/>
</svg>