<svg xmlns="http://www.w3.org/2000/svg" xmlns:xlink="http://www.w3.org/1999/xlink" version="1.1" id="Layer_1" x="0px" y="0px" enable-background="new 0 0 822.05 841.89" xml:space="preserve" viewBox="299.44 250.84 218.37 342.05">
<path fill-rule="evenodd" clip-rule="evenodd" fill="#FFDB78" stroke="#000000" stroke-width="2" stroke-linecap="square" stroke-miterlimit="10" d="  M375.5,374.158c2.457,21.413-65.28,55.348-74.25,34.5C292.238,387.713,360.762,359.505,375.5,374.158z"/>
<path fill-rule="evenodd" clip-rule="evenodd" fill="#FFDB78" stroke="#000000" stroke-width="2" stroke-linecap="square" stroke-miterlimit="10" d="  M500.75,410.908c-16.271,13.142-82.225-22.577-70.5-42C441.97,349.494,505.091,390.226,500.75,410.908z"/>
<path fill-rule="evenodd" clip-rule="evenodd" fill="#FFDB78" stroke="#000000" stroke-width="2" stroke-linecap="square" stroke-miterlimit="10" d="  M492.5,586.408c-25.663,9.356-65.016-58.686-39.75-72C476.465,501.911,515.603,569.468,492.5,586.408z"/>
<path fill-rule="evenodd" clip-rule="evenodd" fill="#FFDB78" stroke="#000000" stroke-width="2" stroke-linecap="square" stroke-miterlimit="10" d="  M357.5,591.658c-25.435-11.391-1.585-86.928,24-78.75C407.764,521.302,384.615,596.629,357.5,591.658z"/>
<path fill-rule="evenodd" clip-rule="evenodd" fill="#F9CBDF" stroke="#000000" stroke-width="2" stroke-linecap="square" stroke-miterlimit="10" d="  M380,357.658c-32.464,41.106-58.669,88.717-73.083,139.167c-8.76,30.661,17.284,27.434,43.833,33.333  c25.162,5.592,52.658,7.667,78.361,5.611c26.351-2.108,52.51-6.966,77.264-16.486c25.979-9.992-3.504-53.036-13.875-73.875  c-10.182-20.459-21.929-39.669-34.875-58.5C434.175,352.798,419.37,355.118,380,357.658z"/>
<path fill-rule="evenodd" clip-rule="evenodd" fill="#FFDB78" stroke="#000000" stroke-width="2" stroke-linecap="square" stroke-miterlimit="10" d="  M446,314.158c1.121,57.071-87.75,57.096-87.75,0C358.25,256.871,447.125,256.895,446,314.158z"/>
<path fill-rule="evenodd" clip-rule="evenodd" fill="#942923" stroke="#000000" stroke-width="2" stroke-linecap="square" stroke-miterlimit="10" d="  M364.25,296.908c24.5-0.25,49-0.5,73.5-0.75c-1,17.5-2,35-3,52.5c12.584-2.456,32.362,0.732,30-14.625  c-2.127-13.823-5.062-27.71-10.875-40.5c-8.809-19.379-22.712-38.066-44.998-41.25c-20.164-2.88-39.876,8.785-52.127,24.375  c-9.81,12.484-14.514,29.508-15.375,45c-1.479,26.627,5.34,23.245,30.375,27C369.25,331.408,366.75,314.158,364.25,296.908z"/>
</svg>