<svg xmlns="http://www.w3.org/2000/svg" xmlns:xlink="http://www.w3.org/1999/xlink" version="1.1" id="Layer_1" x="0px" y="0px" enable-background="new 0 0 822.05 841.89" xml:space="preserve" viewBox="222.94 253.75 374.11 334.42">
<path fill-rule="evenodd" clip-rule="evenodd" fill="#FFDB78" stroke="#000000" stroke-width="2" stroke-linecap="square" stroke-miterlimit="10" d="  M290.803,368.14c1.363,18.243-56.681,49.441-66,30.75C216.02,381.275,277.097,354.496,290.803,368.14z"/>
<path fill-rule="evenodd" clip-rule="evenodd" fill="#FFDB78" stroke="#000000" stroke-width="2" stroke-linecap="square" stroke-miterlimit="10" d="  M402.553,400.39c-14.891,11.396-72.759-18.034-63-36.75C349.007,345.509,404.546,381.812,402.553,400.39z"/>
<path fill-rule="evenodd" clip-rule="evenodd" fill="#FFDB78" stroke="#000000" stroke-width="2" stroke-linecap="square" stroke-miterlimit="10" d="  M395.053,556.39c-23.115,7.389-57.483-50.646-35.25-63C381.803,481.167,413.358,539.809,395.053,556.39z"/>
<path fill-rule="evenodd" clip-rule="evenodd" fill="#FFDB78" stroke="#000000" stroke-width="2" stroke-linecap="square" stroke-miterlimit="10" d="  M275.053,561.64c-21.281-12.52-3.598-76.542,21-69.75C320.509,498.643,299.328,562.33,275.053,561.64z"/>
<path fill-rule="evenodd" clip-rule="evenodd" fill="#F9CBDF" stroke="#000000" stroke-width="2" stroke-linecap="square" stroke-miterlimit="10" d="  M294.553,353.14c-23.496,31.906-65.645,85.746-65.25,127.5c0.132,14.002-7.792,13.768,7.875,18.375  c12.41,3.65,25.129,6.412,37.875,8.625c23.745,4.122,47.467,5.571,71.472,3.389c20.26-1.842,42.274-5.798,60.904-14.264  c22.903-10.408-1.687-41.956-10.735-61.992c-9.362-20.73-21.668-42.984-36.141-60.633  C339.365,348.302,327.308,351.385,294.553,353.14z"/>
<path fill-rule="evenodd" clip-rule="evenodd" fill="#FFDB78" stroke="#000000" stroke-width="2" stroke-linecap="square" stroke-miterlimit="10" d="  M353.803,314.89c-2.065,50.127-78.252,50.372-78.75,0C274.548,263.772,353.383,263.615,353.803,314.89z"/>
<path fill-rule="evenodd" clip-rule="evenodd" fill="#942923" stroke="#000000" stroke-width="2" stroke-linecap="square" stroke-miterlimit="10" d="  M281.053,299.14c21.75-0.25,43.5-0.5,65.25-0.75c-0.75,15.75-1.5,31.5-2.25,47.25c35.089-6.823,29.075-18.062,16.5-49.5  c-6.918-17.295-22.026-35.654-42-37.5c-16.59-1.533-34.399,9.823-44.25,22.5c-7.377,9.493-12.39,22.535-13.5,34.5  c-2.457,26.475,1.717,25.786,27,30C285.553,330.14,283.303,314.64,281.053,299.14z"/>
<path fill-rule="evenodd" clip-rule="evenodd" fill="#FFDB78" stroke="#000000" stroke-width="2" stroke-linecap="square" stroke-miterlimit="10" d="  M466.305,363.64c0.473,19.502-56.685,49.924-66.002,31.5C390.835,376.418,451.735,351.395,466.305,363.64z"/>
<path fill-rule="evenodd" clip-rule="evenodd" fill="#FFDB78" stroke="#000000" stroke-width="2" stroke-linecap="square" stroke-miterlimit="10" d="  M578.055,396.64c-16.031,11.343-72.816-18.816-63-36.75C524.936,341.838,579.651,377.968,578.055,396.64z"/>
<path fill-rule="evenodd" clip-rule="evenodd" fill="#FFDB78" stroke="#000000" stroke-width="2" stroke-linecap="square" stroke-miterlimit="10" d="  M570.555,552.64c-23.654,7.295-58.052-51.597-36-63.75C556.471,476.811,587.888,536.465,570.555,552.64z"/>
<path fill-rule="evenodd" clip-rule="evenodd" fill="#FFDB78" stroke="#000000" stroke-width="2" stroke-linecap="square" stroke-miterlimit="10" d="  M449.805,557.14c-21.1-11.534-1.697-77.441,21.75-69.75C495.42,495.218,473.869,560.379,449.805,557.14z"/>
<path fill-rule="evenodd" clip-rule="evenodd" fill="#ED1C24" stroke="#000000" stroke-width="2" stroke-linecap="square" stroke-miterlimit="10" d="  M470.055,349.39c-20.183,23.954-36.595,52.359-49.125,81c-11.867,27.125-34.027,59.771,2.625,67.917  c58.257,12.945,117.064,14.542,172.5-10.917c-13.466-32.507-26.91-65.39-45.75-95.25  C525.904,353.466,515.343,346.155,470.055,349.39z"/>
<path fill-rule="evenodd" clip-rule="evenodd" fill="#FFDB78" stroke="#000000" stroke-width="2" stroke-linecap="square" stroke-miterlimit="10" d="  M529.305,310.39c-1.6,50.838-78.737,51.333-78.75,0C450.542,259.7,526.294,260.636,529.305,310.39z"/>
<path fill-rule="evenodd" clip-rule="evenodd" fill="#942923" stroke="#000000" stroke-width="2" stroke-linecap="square" stroke-miterlimit="10" d="  M456.555,295.39c21.5-0.25,43-0.5,64.5-0.75c-0.75,15.5-1.5,31-2.25,46.5c9.25-1.75,18.5-3.5,27.75-5.25  c-3.443-32.43-18.938-84.18-60.75-81c-17.163,1.305-32.252,15.301-40.5,29.25c-6.264,10.592-8.659,21.212-9.375,33.375  c-1.419,24.121,4.323,20.51,27.375,23.625C461.055,325.89,458.805,310.64,456.555,295.39z"/>
<path fill-rule="evenodd" clip-rule="evenodd" fill="#FFDB78" stroke="#000000" stroke-width="2" stroke-linecap="square" stroke-miterlimit="10" d="  M374.053,393.64c1.77,19.548-57.998,50.181-66,30.75C300.37,405.735,360.216,381.408,374.053,393.64z"/>
<path fill-rule="evenodd" clip-rule="evenodd" fill="#FFDB78" stroke="#000000" stroke-width="2" stroke-linecap="square" stroke-miterlimit="10" d="  M485.805,426.64c-15.407,10.935-74.088-19.424-63-37.5C433.767,371.269,488.137,407.617,485.805,426.64z"/>
<path fill-rule="evenodd" clip-rule="evenodd" fill="#FFDB78" stroke="#000000" stroke-width="2" stroke-linecap="square" stroke-miterlimit="10" d="  M478.305,582.64c-23.332,6.04-57.415-50.69-36-63.75C464.241,505.512,496.563,565.897,478.305,582.64z"/>
<path fill-rule="evenodd" clip-rule="evenodd" fill="#FFDB78" stroke="#000000" stroke-width="2" stroke-linecap="square" stroke-miterlimit="10" d="  M358.303,587.14c-21.433-11.418-3.274-76.575,21-69.75C403.875,524.299,382.57,588.814,358.303,587.14z"/>
<path fill-rule="evenodd" clip-rule="evenodd" fill="#7BD3F7" stroke="#000000" stroke-width="2" stroke-linecap="square" stroke-miterlimit="10" d="  M377.803,379.39c-22.815,30.982-66.991,86.718-65.25,127.5c0.618,14.473-8.072,12.935,7.875,17.625  c12.526,3.685,25.035,7.012,37.875,9.375c24.061,4.428,47.19,4.298,71.475,3.194c19.521-0.887,43.118-5.985,60.902-14.069  c22.882-10.4-1.428-42.166-10.734-62.109c-9.822-21.049-21.346-42.516-36.141-60.516  C422.211,374.119,411.366,376.993,377.803,379.39z"/>
<path fill-rule="evenodd" clip-rule="evenodd" fill="#FFDB78" stroke="#000000" stroke-width="2" stroke-linecap="square" stroke-miterlimit="10" d="  M437.055,340.39c-1.674,50.191-78.79,50.262-78.752,0C358.341,290.014,434.99,290.281,437.055,340.39z"/>
<path fill-rule="evenodd" clip-rule="evenodd" fill="#942923" stroke="#000000" stroke-width="2" stroke-linecap="square" stroke-miterlimit="10" d="  M364.303,325.39c21.75-0.5,43.501-1,65.252-1.5c-0.75,15.75-1.5,31.5-2.25,47.25c33.761-6.564,30.506-22.648,15-52.5  c-9.442-18.178-22.158-31.129-43.127-34.125c-15.432-2.205-35.786,13.367-43.875,25.5c-5.859,8.789-10.216,20.567-11.25,31.125  c-2.631,26.862,1.346,26.437,27,30C368.803,355.89,366.553,340.64,364.303,325.39z"/>
</svg>