<svg xmlns="http://www.w3.org/2000/svg" xmlns:xlink="http://www.w3.org/1999/xlink" version="1.1" id="Layer_1" x="0px" y="0px" enable-background="new 0 0 822.05 841.89" xml:space="preserve" viewBox="201.11 300.86 415.32 238.19">
<path fill-rule="evenodd" clip-rule="evenodd" fill="#CCCED0" stroke="#000000" stroke-width="2" stroke-linecap="square" stroke-miterlimit="10" d="  M202.107,484.111c12.659-50.004,25.691-73.505,56.766-114.939c15.967-21.29,58.437-56.3,84.79-58.979  c57.101-5.807,85.288-7.195,138.863,11.051c52.664,17.937,69.763,42.59,106.802,85.294c11.978,13.81,15.785,38.034,21.893,54.959  c10.318,28.597,1.238,27.306-22.667,46.864c-32.312,26.438-91.444,26.39-130.695,28.625c-48.296,2.751-90.45-0.116-138.695-5.514  C282.112,527.327,224.833,515.863,202.107,484.111z"/>
<path fill="none" stroke="#000000" stroke-width="2" stroke-linecap="square" stroke-miterlimit="10" d="M337.857,315.359  c0.5,10.5,1,21,1.5,31.5c28.75-15,57.501-30,86.252-45c5.25,20.5,10.5,41,15.75,61.5c29.25-8.75,58.5-17.5,87.75-26.25  c1.5,29.25,3,58.501,4.5,87.752c19.75-4.75,39.5-9.501,59.25-14.252c-1.75,30.501-3.5,61.001-5.25,91.502  c-18.5-24.5-37-49-55.5-73.5c-5.5,33.5-11,67-16.5,100.5c-21-24.25-42-48.5-63-72.75c-18.001,26-36.001,52-54.002,78  c-14.25-31.25-28.5-62.5-42.75-93.75c-21.5,27.5-43,55-64.5,82.5c-9.75-32.25-19.5-64.5-29.25-96.75  c-14.25,21.75-28.5,43.5-42.75,65.25c-0.724-21.487-1.449-42.974-2.173-64.461c-0.299-8.887,44.437-0.146,45.077-8.9  c0.609-8.319-0.139-58.33,6.299-59.853c22.599-5.346,45.198-10.692,67.797-16.038c5.75,29.5,11.5,59.001,17.25,88.502  c28.5-21.25,57.001-42.501,85.502-63.752c4,28,8,56.001,12,84.002c25.75-6.75,51.5-13.5,77.25-20.25"/>
<path fill="none" stroke="#000000" stroke-width="2" stroke-linecap="square" stroke-miterlimit="10" d="M529.109,424.861  c-49.139-34.44-80.074-60.26-138.751-69.752c-27.828-4.501-44.404-15.116-63.894,5.168c-20.202,21.027-40.405,42.054-60.607,63.082  c61.969,8.333,123.549,17.629,185.252,27.752"/>
</svg>