<svg xmlns="http://www.w3.org/2000/svg" xmlns:xlink="http://www.w3.org/1999/xlink" version="1.1" id="Layer_1" x="0px" y="0px" enable-background="new 0 0 822.05 841.89" xml:space="preserve" viewBox="213.21 259.92 397.7 322.37">
<path fill-rule="evenodd" clip-rule="evenodd" fill="#626163" stroke="#000000" stroke-width="2" stroke-linecap="square" stroke-miterlimit="10" d="  M501.904,366.786c-45.455,35.051-90.91,70.102-136.365,105.152c-23.236,17.918-46.473,35.836-69.709,53.754  c-14.855,11.455-33.041-28.372-42.151-40.136c-6.113-7.894-46.418-50.854-38.429-57.074c29.383-22.876,58.766-45.753,88.148-68.629  c40.283-31.363,80.82-62.4,121.255-93.567C450.404,299.786,476.154,333.286,501.904,366.786z"/>
<path fill-rule="evenodd" clip-rule="evenodd" d="M391.65,439.536l-67.5-87L391.65,439.536z"/>
<line fill="none" stroke="#000000" stroke-width="2" stroke-linecap="square" stroke-miterlimit="10" x1="391.65" y1="439.536" x2="324.15" y2="352.536"/>
<path fill-rule="evenodd" clip-rule="evenodd" fill="#FFFFFF" stroke="#000000" stroke-width="2" stroke-linecap="square" stroke-miterlimit="10" d="  M378.15,344.286c3.607,10.344-7.971,25.963-16.5,12.75C353.407,344.265,369.146,339.177,378.15,344.286z"/>
<path fill-rule="evenodd" clip-rule="evenodd" fill="#FFFFFF" stroke="#000000" stroke-width="2" stroke-linecap="square" stroke-miterlimit="10" d="  M426.154,307.536c2.831,9.89-8.84,26.227-16.502,12.75C402.15,307.091,416.899,301.782,426.154,307.536z"/>
<path fill-rule="evenodd" clip-rule="evenodd" fill="#FFFFFF" stroke="#000000" stroke-width="2" stroke-linecap="square" stroke-miterlimit="10" d="  M423.154,348.786c2.901,9.852-8.588,26.071-16.504,12.75C398.863,348.431,414.021,343.108,423.154,348.786z"/>
<path fill-rule="evenodd" clip-rule="evenodd" fill="#FFFFFF" stroke="#000000" stroke-width="2" stroke-linecap="square" stroke-miterlimit="10" d="  M279.9,426.036c3.653,10.798-4.891,23.012-15.75,12.75C253.211,428.45,270.646,420.545,279.9,426.036z"/>
<path fill-rule="evenodd" clip-rule="evenodd" fill="#FFFFFF" stroke="#000000" stroke-width="2" stroke-linecap="square" stroke-miterlimit="10" d="  M348.9,436.536c3.879,10.531-6.653,25.335-15.75,12.75C324.392,437.168,339.602,431.165,348.9,436.536z"/>
<path fill-rule="evenodd" clip-rule="evenodd" fill="#FFFFFF" stroke="#000000" stroke-width="2" stroke-linecap="square" stroke-miterlimit="10" d="  M414.152,390.786c2.659,9.612-7.579,25.813-16.502,12.75C388.742,390.494,405.243,385.438,414.152,390.786z"/>
<path fill-rule="evenodd" clip-rule="evenodd" fill="#FFFFFF" stroke="#000000" stroke-width="2" stroke-linecap="square" stroke-miterlimit="10" d="  M462.154,354.036c2.579,9.975-8.048,25.025-16.5,12C436.923,352.579,453.123,348.169,462.154,354.036z"/>
<path fill-rule="evenodd" clip-rule="evenodd" fill="#626163" stroke="#000000" stroke-width="2" stroke-linecap="square" stroke-miterlimit="10" d="  M609.904,361.536c-72.001,53.75-144.003,107.5-216.004,161.25c-13.308-17.919-78.351-82.062-75.75-102  c1.248-9.565,45.563-34.011,53.252-39.75c17.75-13.25,35.472-26.54,53.252-39.75c36.15-26.86,72.415-53.567,108.622-80.351  C535.133,259.562,602.081,351.079,609.904,361.536z"/>
<path fill-rule="evenodd" clip-rule="evenodd" d="M498.154,432.786l-66-88.5L498.154,432.786z"/>
<line fill="none" stroke="#000000" stroke-width="2" stroke-linecap="square" stroke-miterlimit="10" x1="498.154" y1="432.786" x2="432.154" y2="344.286"/>
<path fill-rule="evenodd" clip-rule="evenodd" fill="#FFFFFF" stroke="#000000" stroke-width="2" stroke-linecap="square" stroke-miterlimit="10" d="  M486.154,337.536c3.293,10.238-8.54,25.015-16.5,12C461.574,336.324,477.29,331.848,486.154,337.536z"/>
<path fill-rule="evenodd" clip-rule="evenodd" fill="#FFFFFF" stroke="#000000" stroke-width="2" stroke-linecap="square" stroke-miterlimit="10" d="  M534.904,301.536c3.185,10.512-7.604,23.961-16.5,12C508.973,300.855,526.028,295.534,534.904,301.536z"/>
<path fill-rule="evenodd" clip-rule="evenodd" fill="#FFFFFF" stroke="#000000" stroke-width="2" stroke-linecap="square" stroke-miterlimit="10" d="  M531.154,342.786c3.117,10.274-9.006,24.65-16.5,12C506.818,341.559,521.918,336.311,531.154,342.786z"/>
<path fill-rule="evenodd" clip-rule="evenodd" fill="#FFFFFF" stroke="#000000" stroke-width="2" stroke-linecap="square" stroke-miterlimit="10" d="  M386.4,417.036c3.038,10.2-5.452,24.048-16.5,12.75C359.024,418.663,377.468,411.716,386.4,417.036z"/>
<path fill-rule="evenodd" clip-rule="evenodd" fill="#FFFFFF" stroke="#000000" stroke-width="2" stroke-linecap="square" stroke-miterlimit="10" d="  M455.404,429.036c3.092,10.326-5.442,23.629-16.5,12.75C427.905,430.964,446.44,423.698,455.404,429.036z"/>
<path fill-rule="evenodd" clip-rule="evenodd" fill="#FFFFFF" stroke="#000000" stroke-width="2" stroke-linecap="square" stroke-miterlimit="10" d="  M521.404,384.036c2.661,10.543-5.693,23.678-16.5,12.75C494.304,386.066,512.435,378.691,521.404,384.036z"/>
<path fill-rule="evenodd" clip-rule="evenodd" fill="#FFFFFF" stroke="#000000" stroke-width="2" stroke-linecap="square" stroke-miterlimit="10" d="  M570.154,348.036C581.242,395.774,527.594,322.43,570.154,348.036L570.154,348.036z"/>
<path fill-rule="evenodd" clip-rule="evenodd" fill="#626163" stroke="#000000" stroke-width="2" stroke-linecap="square" stroke-miterlimit="10" d="  M359.4,307.536c54.161,48.48,108.322,96.96,162.483,145.44c12.5,11.189,44.243,26.527,30.846,41.6  c-25.691,28.903-51.384,57.807-77.075,86.71c-67.028-59.97-134.029-119.971-201.004-180C302.9,370.036,331.15,338.786,359.4,307.536  z"/>
<path fill-rule="evenodd" clip-rule="evenodd" d="M450.904,402.786l-73.504,81.75L450.904,402.786z"/>
<line fill="none" stroke="#000000" stroke-width="2" stroke-linecap="square" stroke-miterlimit="10" x1="450.904" y1="402.786" x2="377.4" y2="484.536"/>
<path fill-rule="evenodd" clip-rule="evenodd" fill="#FFFFFF" stroke="#000000" stroke-width="2" stroke-linecap="square" stroke-miterlimit="10" d="  M360.15,432.786c9.671-4.771,24.428,1.91,15,13.5C365.457,458.202,356.024,442.877,360.15,432.786z"/>
<path fill-rule="evenodd" clip-rule="evenodd" fill="#FFFFFF" stroke="#000000" stroke-width="2" stroke-linecap="square" stroke-miterlimit="10" d="  M315.15,392.286c8.559-4.396,23.398,0.253,16.125,12.375C323.465,417.678,309.76,404.441,315.15,392.286z"/>
<path fill-rule="evenodd" clip-rule="evenodd" fill="#FFFFFF" stroke="#000000" stroke-width="2" stroke-linecap="square" stroke-miterlimit="10" d="  M457.654,514.536c9.85-4.531,24.972,1.564,15.75,14.25C464.183,541.47,454.223,524.314,457.654,514.536z"/>
<path fill-rule="evenodd" clip-rule="evenodd" fill="#FFFFFF" stroke="#000000" stroke-width="2" stroke-linecap="square" stroke-miterlimit="10" d="  M456.154,444.786c9.585-4.72,24.794,1.766,15,13.5C461.308,470.083,452.013,454.914,456.154,444.786z"/>
<path fill-rule="evenodd" clip-rule="evenodd" fill="#FFFFFF" stroke="#000000" stroke-width="2" stroke-linecap="square" stroke-miterlimit="10" d="  M399.15,389.286c7.931-3.912,24.743,0.522,16.128,12C405.771,413.951,394.087,401.294,399.15,389.286z"/>
<path fill-rule="evenodd" clip-rule="evenodd" fill="#FFFFFF" stroke="#000000" stroke-width="2" stroke-linecap="square" stroke-miterlimit="10" d="  M354.15,348.786c8.559-4.396,23.398,0.253,16.125,12.375C362.465,374.178,348.76,360.941,354.15,348.786z"/>
</svg>