<svg xmlns="http://www.w3.org/2000/svg" xmlns:xlink="http://www.w3.org/1999/xlink" version="1.1" id="Layer_1" x="0px" y="0px" enable-background="new 0 0 822.05 841.89" xml:space="preserve" viewBox="209.31 324.66 399.78 193.48">
<path fill-rule="evenodd" clip-rule="evenodd" fill="#626163" stroke="#000000" stroke-width="2" stroke-linecap="square" stroke-miterlimit="10" d="  M608,513.89c-108.821,0-217.642,0-326.463,0c-30.108,0-68.037,14.963-68.037-19.344c0-33.729,0-67.456,0-101.184  c0-10.524-7.17-57.316,0-65.472c4.418-5.025,44.099,0,50.556,0c34.41,0,68.821,0,103.231,0c41.469,0,82.938,0,124.407,0  c32.771,0,65.544,0,98.315,0c20.508,0,17.991-1.297,17.991,19.344C608,402.786,608,458.338,608,513.89z"/>
<path fill-rule="evenodd" clip-rule="evenodd" d="M414.5,499.64v-162V499.64z"/>
<line fill="none" stroke="#000000" stroke-width="2" stroke-linecap="square" stroke-miterlimit="10" x1="414.5" y1="499.64" x2="414.5" y2="337.64"/>
<path fill-rule="evenodd" clip-rule="evenodd" fill="#FFFFFF" stroke="#000000" stroke-width="2" stroke-linecap="square" stroke-miterlimit="10" d="  M484.25,377.39c-2.917,17.459-29.718,20.125-30,0C453.966,357.154,482.218,358.596,484.25,377.39z"/>
<path fill-rule="evenodd" clip-rule="evenodd" fill="#FFFFFF" stroke="#000000" stroke-width="2" stroke-linecap="square" stroke-miterlimit="10" d="  M573.5,377.39c-3.589,17.583-30.375,20.011-30,0C543.884,356.913,570.02,358.783,573.5,377.39z"/>
<path fill-rule="evenodd" clip-rule="evenodd" fill="#FFFFFF" stroke="#000000" stroke-width="2" stroke-linecap="square" stroke-miterlimit="10" d="  M533,422.39c-3.45,18.45-30.062,20.467-30,0C503.062,402.012,529.358,404.298,533,422.39z"/>
<path fill-rule="evenodd" clip-rule="evenodd" fill="#FFFFFF" stroke="#000000" stroke-width="2" stroke-linecap="square" stroke-miterlimit="10" d="  M297.5,383.39c-3.524,18.419-29.657,20.655-30,0C267.165,363.247,293.856,365.921,297.5,383.39z"/>
<path fill-rule="evenodd" clip-rule="evenodd" fill="#FFFFFF" stroke="#000000" stroke-width="2" stroke-linecap="square" stroke-miterlimit="10" d="  M368,458.39c-3.701,17.524-30.253,19.989-30,0C338.259,437.902,364.828,439.597,368,458.39z"/>
<path fill-rule="evenodd" clip-rule="evenodd" fill="#FFFFFF" stroke="#000000" stroke-width="2" stroke-linecap="square" stroke-miterlimit="10" d="  M484.25,462.89c-2.033,18.801-29.816,20.278-30,0C454.068,442.812,482.128,444.364,484.25,462.89z"/>
<path fill-rule="evenodd" clip-rule="evenodd" fill="#FFFFFF" stroke="#000000" stroke-width="2" stroke-linecap="square" stroke-miterlimit="10" d="  M573.5,462.89c-3.466,18.531-30,20.512-30,0C543.5,442.483,569.838,444.697,573.5,462.89z"/>
</svg>