<svg xmlns="http://www.w3.org/2000/svg" xmlns:xlink="http://www.w3.org/1999/xlink" version="1.1" id="Layer_1" x="0px" y="0px" enable-background="new 0 0 822.05 841.89" xml:space="preserve" viewBox="315.89 339.44 186.87 161">
<path fill-rule="evenodd" clip-rule="evenodd" fill="#F8130D" stroke="#000000" stroke-width="1.25" stroke-linecap="square" stroke-miterlimit="10" d="  M502.139,340.064c-29.047,8.679-51.822,24.574-78,39c-21.832,12.031-17.05,16.379-38.587-1.056  c-14.956-12.107-31.232-21.958-47.502-32.202c-14.399-9.066-25.102,9.422-20.414,22.008c6.155,16.526,51.951,34.674,66.75,45  c-11.548,11.065-54.346,48.808-51,65.252c3.511,17.253,18.423,15.587,30.75,9c10.432-5.574,33.562-63.904,46.28-53.5  c24.75,20.247,48.126,42.188,69.224,66.25c-11.037-31.775-30.274-59.347-52.875-84.002  C416.553,404.675,489.47,349.935,502.139,340.064z"/>
</svg>