<svg xmlns="http://www.w3.org/2000/svg" xmlns:xlink="http://www.w3.org/1999/xlink" version="1.1" id="Layer_1" x="0px" y="0px" enable-background="new 0 0 822.05 841.89" xml:space="preserve" viewBox="307.65 335.74 202.98 176.7">
<path fill-rule="evenodd" clip-rule="evenodd" fill="#EED5B6" stroke="#000000" stroke-width="1.25" stroke-linecap="square" stroke-miterlimit="10" d="  M423.125,437.992c-14.608-14.71-39.721-17.023-54.75-0.75C334.855,473.538,423.759,476.126,423.125,437.992z"/>
<path fill-rule="evenodd" clip-rule="evenodd" fill="#134A1C" stroke="#000000" stroke-width="1.25" stroke-linecap="square" stroke-miterlimit="10" d="  M482.375,483.742c-10.659-11.009-49.134-64.989-64.125-45c-7.773,10.364-17.299,11.766-29.25,9.375  c-16.876-3.375-9.868-18.341-30.75-12.375c-19.996,5.713-26.361,54.955-31.875,72c25.618,0,130.928,18.029,115.5-21.75  C453.172,495.694,484.641,512.698,482.375,483.742z"/>
<path fill-rule="evenodd" clip-rule="evenodd" fill="#EED5B6" stroke="#000000" stroke-width="1.25" stroke-linecap="square" stroke-miterlimit="10" d="  M373.625,413.242C374.624,433.29,354.323,409.941,373.625,413.242L373.625,413.242z"/>
<path fill-rule="evenodd" clip-rule="evenodd" fill="#EED5B6" stroke="#000000" stroke-width="1.25" stroke-linecap="square" stroke-miterlimit="10" d="  M426.875,399.742C413.66,415.417,414.115,382.428,426.875,399.742L426.875,399.742z"/>
<path fill-rule="evenodd" clip-rule="evenodd" fill="#EED5B6" stroke="#000000" stroke-width="1.25" stroke-linecap="square" stroke-miterlimit="10" d="  M362.375,395.242c4.919,48.333,68.035,49.782,58.125-6.375C413.384,348.54,357.55,354.414,362.375,395.242z"/>
<path fill-rule="evenodd" clip-rule="evenodd" fill="#EED5B6" stroke="#000000" stroke-width="1.25" stroke-linecap="square" stroke-miterlimit="10" d="  M366.875,466.492c7.062-0.314,9.922-8.972,16.5,3.75C378.928,470.382,371.843,468.661,366.875,466.492z"/>
<path fill-rule="evenodd" clip-rule="evenodd" fill="#EED5B6" stroke="#000000" stroke-width="1.25" stroke-linecap="square" stroke-miterlimit="10" d="  M362.375,469.492c9.308-6.949,20.864-5.759,28.5,2.25c-2.455,0.585-5.969,0.915-8.25,1.5  C386.943,496.324,337.852,490.131,362.375,469.492z"/>
<path fill-rule="evenodd" clip-rule="evenodd" fill="#EED5B6" d="M364.625,483.742c2.722,1.107,5.047,2.998,9,3  C370.625,485.742,367.625,484.742,364.625,483.742z"/>
<path fill="none" stroke="#000000" stroke-width="1.25" stroke-linecap="square" stroke-miterlimit="10" d="M364.625,483.742  c2.169,1.9,5.49,2.999,9,3"/>
<path fill-rule="evenodd" clip-rule="evenodd" fill="#EED5B6" stroke="#000000" stroke-width="1.25" stroke-linecap="square" stroke-miterlimit="10" d="  M405.875,448.492c-7.124,3.125-13.68-3.922-13.5,11.25C397.188,457.148,402.17,452.861,405.875,448.492z"/>
<path fill-rule="evenodd" clip-rule="evenodd" fill="#EED5B6" stroke="#000000" stroke-width="1.25" stroke-linecap="square" stroke-miterlimit="10" d="  M411.875,449.242c-12.849-2.802-35.384,16.119-17.25,12.75C399.543,485.867,444.263,457.595,411.875,449.242z"/>
<path fill-rule="evenodd" clip-rule="evenodd" fill="#134A1C" d="M450.125,491.242c-12.25-6.25-24.5-12.5-36.75-18.75  c7.234-9.168,9.103-8.593,9.75-19.5c12.722,5.564,25.479,11.051,38.25,16.5C457.812,476.38,454.914,485.173,450.125,491.242z"/>
<path fill="none" stroke="#000000" stroke-width="1.25" stroke-linecap="square" stroke-miterlimit="10" d="M450.125,491.242  c-12.25-6.25-24.5-12.5-36.75-18.75c7.234-9.168,9.103-8.593,9.75-19.5c12.722,5.564,25.479,11.051,38.25,16.5"/>
<path fill-rule="evenodd" clip-rule="evenodd" fill="#EED5B6" d="M415.625,463.492c-1.907,2.188-3.171,5.257-6.75,6.75  C411.125,467.992,413.375,465.742,415.625,463.492z"/>
<path fill="none" stroke="#000000" stroke-width="1.25" stroke-linecap="square" stroke-miterlimit="10" d="M415.625,463.492  c-0.97,2.923-3.562,5.42-6.75,6.75"/>
<path fill-rule="evenodd" clip-rule="evenodd" fill="#134A1C" stroke="#000000" stroke-width="1.25" stroke-linecap="square" stroke-miterlimit="10" d="  M370.625,490.492c-7.025-5.743-13.861-2.226-17.25-12.75c-8.5,10-17,20-25.5,30C346.573,507.742,362.83,512.13,370.625,490.492z"/>
<path fill-rule="evenodd" clip-rule="evenodd" d="M373.625,444.742c-1.845,1.943-7.304,3.549-6.75,13.5  c4.232-1.781,9.556-6.415,12.75-9.75C378.244,447.7,374.419,446.07,373.625,444.742z"/>
<path fill-rule="evenodd" clip-rule="evenodd" d="M387.875,441.742c-0.65-0.121,7.504,2.067,13.5-0.75c-4.25-2-8.5-4-12.75-6  C388.373,435.881,388.056,441.556,387.875,441.742z"/>
<path fill="none" stroke="#000000" stroke-linecap="square" stroke-miterlimit="10" d="M372.125,451.492  c2.876-9.731,9.413-13.711,18.75-10.5"/>
<path fill-rule="evenodd" clip-rule="evenodd" fill="#FFFFFF" stroke="#000000" stroke-width="1.25" stroke-linecap="square" stroke-miterlimit="10" d="  M327.125,339.742c17.233-1.463,17.257,15.635,11.25,31.5c17.688-24.582,4.002,33.701-18.375,24.75  C302.751,389.092,304.041,336.269,327.125,339.742z"/>
<path fill-rule="evenodd" clip-rule="evenodd" fill="#FFFFFF" d="M335.375,341.242l-1.5,21.75L335.375,341.242z"/>
<line fill="none" stroke="#000000" stroke-width="1.25" stroke-linecap="square" stroke-miterlimit="10" x1="335.375" y1="341.242" x2="333.875" y2="362.992"/>
<path fill-rule="evenodd" clip-rule="evenodd" fill="#FFFFFF" d="M327.125,338.992l0.75,22.5L327.125,338.992z"/>
<line fill="none" stroke="#000000" stroke-width="1.25" stroke-linecap="square" stroke-miterlimit="10" x1="327.125" y1="338.992" x2="327.875" y2="361.492"/>
<path fill-rule="evenodd" clip-rule="evenodd" fill="#FFFFFF" d="M319.625,340.492v20.25V340.492z"/>
<line fill="none" stroke="#000000" stroke-width="1.25" stroke-linecap="square" stroke-miterlimit="10" x1="319.625" y1="340.492" x2="319.625" y2="360.742"/>
<path fill-rule="evenodd" clip-rule="evenodd" fill="#FFFFFF" stroke="#000000" stroke-linecap="square" stroke-miterlimit="10" d="  M443.375,387.742c0.377,42.649,66.267,42.39,66.75,0C510.616,344.645,443.173,344.379,443.375,387.742z"/>
<path fill-rule="evenodd" clip-rule="evenodd" fill="#FFFFFF" d="M476.375,410.992v6.75V410.992z"/>
<line fill="none" stroke="#000000" stroke-linecap="square" stroke-miterlimit="10" x1="476.375" y1="410.992" x2="476.375" y2="417.742"/>
<path fill-rule="evenodd" clip-rule="evenodd" fill="#FFFFFF" d="M452.375,387.742h-6H452.375z"/>
<line fill="none" stroke="#000000" stroke-linecap="square" stroke-miterlimit="10" x1="452.375" y1="387.742" x2="446.375" y2="387.742"/>
<path fill-rule="evenodd" clip-rule="evenodd" fill="#FFFFFF" d="M507.125,387.742h-6.75H507.125z"/>
<line fill="none" stroke="#000000" stroke-linecap="square" stroke-miterlimit="10" x1="507.125" y1="387.742" x2="500.375" y2="387.742"/>
<path fill-rule="evenodd" clip-rule="evenodd" fill="#FFFFFF" d="M459.875,404.242l-4.5,4.5L459.875,404.242z"/>
<line fill="none" stroke="#000000" stroke-linecap="square" stroke-miterlimit="10" x1="459.875" y1="404.242" x2="455.375" y2="408.742"/>
<path fill-rule="evenodd" clip-rule="evenodd" fill="#FFFFFF" d="M498.125,365.992l-4.5,4.5L498.125,365.992z"/>
<line fill="none" stroke="#000000" stroke-linecap="square" stroke-miterlimit="10" x1="498.125" y1="365.992" x2="493.625" y2="370.492"/>
<path fill-rule="evenodd" clip-rule="evenodd" fill="#FFFFFF" d="M498.125,408.742l-4.5-4.5L498.125,408.742z"/>
<line fill="none" stroke="#000000" stroke-linecap="square" stroke-miterlimit="10" x1="498.125" y1="408.742" x2="493.625" y2="404.242"/>
<path fill-rule="evenodd" clip-rule="evenodd" stroke="#000000" stroke-linecap="square" stroke-miterlimit="10" d="  M473.375,359.992C481.059,360.713,481.316,360.737,473.375,359.992L473.375,359.992z"/>
<path fill-rule="evenodd" clip-rule="evenodd" stroke="#000000" stroke-linecap="square" stroke-miterlimit="10" d="  M477.125,367.492c2.302,6.433,1.542,14.905,2.25,21.75c-1.75-0.25-3.5-0.5-5.25-0.75  C475.125,381.493,476.024,374.475,477.125,367.492z"/>
<path fill-rule="evenodd" clip-rule="evenodd" stroke="#000000" stroke-linecap="square" stroke-miterlimit="10" d="  M473.375,387.742C480.769,386.978,480.683,386.987,473.375,387.742L473.375,387.742z"/>
<path fill-rule="evenodd" clip-rule="evenodd" fill="#D12327" stroke="#000000" stroke-width="0.5" stroke-linecap="square" stroke-miterlimit="10" d="  M455.375,368.242C463.146,368.676,463.151,368.677,455.375,368.242L455.375,368.242z"/>
<path fill-rule="evenodd" clip-rule="evenodd" fill="#D12327" stroke="#000000" stroke-width="0.5" stroke-linecap="square" stroke-miterlimit="10" d="  M454.625,344.992c3.75-3,7.5-6,11.25-9c1,1.25,2,2.5,3,3.75c-1.842,3.038-8.256,12.009-8.25,12  c-4.553,1.986-10.805,3.186-15.75,3.75C447.977,344.693,453.683,345.424,454.625,344.992z"/>
</svg>