<svg xmlns="http://www.w3.org/2000/svg" xmlns:xlink="http://www.w3.org/1999/xlink" version="1.1" id="Layer_1" x="0px" y="0px" enable-background="new 0 0 822.05 841.89" xml:space="preserve" viewBox="318.75 349.36 187.92 142.72">
<path fill-rule="evenodd" clip-rule="evenodd" fill="#724211" stroke="#000000" stroke-width="1.25" stroke-linecap="square" stroke-miterlimit="10" d="  M319.375,488.515c18.667,0,80.25,11.084,80.25-9.889c0-20.411,13.278-110.317,0-123.611c-9.265-9.276-80.25-5.515-80.25,9.889  C319.375,406.108,319.375,447.311,319.375,488.515z"/>
<path fill="none" stroke="#000000" stroke-width="1.25" stroke-linecap="square" stroke-miterlimit="10" d="M344.125,422.515  c-5.226-3.146-10.547-3.06-15,0.75"/>
<path fill-rule="evenodd" clip-rule="evenodd" fill="#724211" stroke="#000000" stroke-width="1.25" stroke-linecap="square" stroke-miterlimit="10" d="  M419.125,488.515c18.731,0,81,11.112,81-9.889c0-20.498,13.309-110.2,0-123.611c-9.233-9.304-81-5.521-81,9.889  C419.125,406.108,419.125,447.311,419.125,488.515z"/>
<path fill="none" stroke="#000000" stroke-width="1.25" stroke-linecap="square" stroke-miterlimit="10" d="M443.875,422.515  c-5.138-3.278-10.544-3.139-15,0.75"/>
</svg>