<svg xmlns="http://www.w3.org/2000/svg" xmlns:xlink="http://www.w3.org/1999/xlink" version="1.1" id="Layer_1" x="0px" y="0px" enable-background="new 0 0 822.05 841.89" xml:space="preserve" viewBox="212.09 249.31 397.08 343.25">
<path fill-rule="evenodd" clip-rule="evenodd" fill="#ECB326" stroke="#000000" stroke-width="2" stroke-linecap="square" stroke-miterlimit="10" d="  M311.25,262.307C289.58,289.337,289.474,235.18,311.25,262.307L311.25,262.307z"/>
<path fill-rule="evenodd" clip-rule="evenodd" fill="#5FADCA" stroke="#000000" stroke-width="2" stroke-linecap="square" stroke-miterlimit="10" d="  M309.75,296.057c-7.772,14.91-22.472,6.824-18-9.75C296.654,268.129,312.936,280.393,309.75,296.057z"/>
<path fill-rule="evenodd" clip-rule="evenodd" fill="#90D8F8" stroke="#000000" stroke-width="2" stroke-linecap="square" stroke-miterlimit="10" d="  M306.75,392.057c-15.865,7.904-15.948-71.234-9-83.25c5.242-9.065,9-0.316,9,6.167C306.75,340.668,306.75,366.363,306.75,392.057z"/>
<path fill-rule="evenodd" clip-rule="evenodd" fill="#0D529F" stroke="#000000" stroke-width="2" stroke-linecap="square" stroke-miterlimit="10" d="  M314.25,272.057c-3.981,8.877-27,15.721-27,0C287.25,256.362,310.323,263.163,314.25,272.057z"/>
<path fill-rule="evenodd" clip-rule="evenodd" fill="#878787" stroke="#000000" stroke-width="2" stroke-linecap="square" stroke-miterlimit="10" d="  M297.75,269.807C286.778,271.099,287.314,266.495,297.75,269.807L297.75,269.807z"/>
<path fill-rule="evenodd" clip-rule="evenodd" fill="#878787" stroke="#000000" stroke-width="2" stroke-linecap="square" stroke-miterlimit="10" d="  M312,270.557C300.57,271.959,300.967,267.333,312,270.557L312,270.557z"/>
<path fill-rule="evenodd" clip-rule="evenodd" fill="#D2EBE1" stroke="#000000" stroke-width="2" stroke-linecap="square" stroke-miterlimit="10" d="  M312,290.807C468.892,209.456,340.881,325.978,312,290.807L312,290.807z"/>
<path fill-rule="evenodd" clip-rule="evenodd" fill="#D2EBE1" stroke="#000000" stroke-width="2" stroke-linecap="square" stroke-miterlimit="10" d="  M309.75,302.057c16.642-0.876,123.306-1.322,61.875,23.25C350.548,333.738,299.898,339.917,309.75,302.057z"/>
<path fill-rule="evenodd" clip-rule="evenodd" fill="#D2EBE1" stroke="#000000" stroke-width="2" stroke-linecap="square" stroke-miterlimit="10" d="  M291.75,292.307C134.217,212.568,264.879,328.425,291.75,292.307L291.75,292.307z"/>
<path fill-rule="evenodd" clip-rule="evenodd" fill="#D2EBE1" stroke="#000000" stroke-width="2" stroke-linecap="square" stroke-miterlimit="10" d="  M293.25,303.557c-17.082-1.244-122.56-0.574-61.125,24C252.226,335.597,306.564,341.282,293.25,303.557z"/>
<line fill="none" stroke="#000000" stroke-width="2" stroke-linecap="square" stroke-miterlimit="10" x1="293.25" y1="308.057" x2="270" y2="319.307"/>
<path fill="none" stroke="#000000" stroke-width="2" stroke-linecap="square" stroke-miterlimit="10" d="M285,303.557  c-13.792,1.868-29.257,3.825-39.75,12.75"/>
<line fill="none" stroke="#000000" stroke-width="2" stroke-linecap="square" stroke-miterlimit="10" x1="310.5" y1="309.557" x2="328.5" y2="317.807"/>
<path fill="none" stroke="#000000" stroke-width="2" stroke-linecap="square" stroke-miterlimit="10" d="M317.25,302.057  c13.272,2.303,26.287,6.019,37.5,13.5"/>
<path fill="none" stroke="#000000" stroke-width="2" stroke-linecap="square" stroke-miterlimit="10" d="M300.75,395.057  c-2.487,3.286-3.512,7.15-3,11.25"/>
<path fill="none" stroke="#000000" stroke-width="2" stroke-linecap="square" stroke-miterlimit="10" d="M305.25,395.807  c1.829,2.715,2.597,5.777,2.25,9"/>
<path fill="none" stroke="#000000" stroke-width="2" stroke-linecap="square" stroke-miterlimit="10" d="M279,250.307  c-0.146,9.561,2.847,19.84,8.25,26.25"/>
<path fill="none" stroke="#000000" stroke-width="2" stroke-linecap="square" stroke-miterlimit="10" d="M275.25,263.807  c1.625,10.994,7.299,18.867,17.25,21.75"/>
<path fill="none" stroke="#000000" stroke-width="2" stroke-linecap="square" stroke-miterlimit="10" d="M324.75,254.057  c0.072,10.321-3.848,19.112-12,24"/>
<path fill="none" stroke="#000000" stroke-width="2" stroke-linecap="square" stroke-miterlimit="10" d="M328.5,263.807  c-3.16,10.528-9.871,17.372-20.25,20.25"/>
<path fill-rule="evenodd" clip-rule="evenodd" fill="#ECB326" stroke="#000000" stroke-width="2" stroke-linecap="square" stroke-miterlimit="10" d="  M522,262.307C500.329,289.337,500.224,235.18,522,262.307L522,262.307z"/>
<path fill-rule="evenodd" clip-rule="evenodd" fill="#5FADCA" stroke="#000000" stroke-width="2" stroke-linecap="square" stroke-miterlimit="10" d="  M520.5,296.057c-8.824,17.282-20.884,4.669-17.625-11.625C506.27,267.458,523.369,281.945,520.5,296.057z"/>
<path fill-rule="evenodd" clip-rule="evenodd" fill="#90D8F8" stroke="#000000" stroke-width="2" stroke-linecap="square" stroke-miterlimit="10" d="  M517.5,392.057c-15.998,7.999-15.935-70.883-9-83.25c4.966-8.855,9-0.652,9,6.167C517.5,340.668,517.5,366.363,517.5,392.057z"/>
<path fill-rule="evenodd" clip-rule="evenodd" fill="#0D529F" stroke="#000000" stroke-width="2" stroke-linecap="square" stroke-miterlimit="10" d="  M525,272.057c-4.06,8.832-27,15.948-27,0C498,256.136,520.995,263.211,525,272.057z"/>
<path fill-rule="evenodd" clip-rule="evenodd" fill="#878787" stroke="#000000" stroke-width="2" stroke-linecap="square" stroke-miterlimit="10" d="  M508.5,269.807C497.527,271.099,498.064,266.495,508.5,269.807L508.5,269.807z"/>
<path fill-rule="evenodd" clip-rule="evenodd" fill="#878787" stroke="#000000" stroke-width="2" stroke-linecap="square" stroke-miterlimit="10" d="  M522.75,270.557C511.32,271.959,511.717,267.333,522.75,270.557L522.75,270.557z"/>
<path fill-rule="evenodd" clip-rule="evenodd" fill="#D2EBE1" stroke="#000000" stroke-width="2" stroke-linecap="square" stroke-miterlimit="10" d="  M522.75,290.807C680.001,209.27,551.171,326.031,522.75,290.807L522.75,290.807z"/>
<path fill-rule="evenodd" clip-rule="evenodd" fill="#D2EBE1" stroke="#000000" stroke-width="2" stroke-linecap="square" stroke-miterlimit="10" d="  M520.5,302.057c17.994-0.929,122.358-2.832,61.5,23.25C561.325,334.168,509.967,339.379,520.5,302.057z"/>
<path fill-rule="evenodd" clip-rule="evenodd" fill="#D2EBE1" stroke="#000000" stroke-width="2" stroke-linecap="square" stroke-miterlimit="10" d="  M502.5,292.307C339.996,211.055,479.12,328.436,502.5,292.307L502.5,292.307z"/>
<path fill-rule="evenodd" clip-rule="evenodd" fill="#D2EBE1" stroke="#000000" stroke-width="2" stroke-linecap="square" stroke-miterlimit="10" d="  M504,303.557c-17.445-1.271-122.748-0.649-61.125,24C463.263,335.712,516.531,341.266,504,303.557z"/>
<line fill="none" stroke="#000000" stroke-width="2" stroke-linecap="square" stroke-miterlimit="10" x1="504" y1="308.057" x2="480.75" y2="319.307"/>
<path fill="none" stroke="#000000" stroke-width="2" stroke-linecap="square" stroke-miterlimit="10" d="M495,303.557  c-13.588,2.058-28.654,3.95-39,12.75"/>
<line fill="none" stroke="#000000" stroke-width="2" stroke-linecap="square" stroke-miterlimit="10" x1="521.25" y1="309.557" x2="539.25" y2="317.807"/>
<path fill="none" stroke="#000000" stroke-width="2" stroke-linecap="square" stroke-miterlimit="10" d="M528,302.057  c13.206,2.094,26.32,6.271,37.5,13.5"/>
<path fill="none" stroke="#000000" stroke-width="2" stroke-linecap="square" stroke-miterlimit="10" d="M510.75,395.057  c-1.799,3.508-2.565,7.329-2.25,11.25"/>
<path fill="none" stroke="#000000" stroke-width="2" stroke-linecap="square" stroke-miterlimit="10" d="M516,395.807  c1.829,2.715,2.597,5.777,2.25,9"/>
<path fill="none" stroke="#000000" stroke-width="2" stroke-linecap="square" stroke-miterlimit="10" d="M489.75,250.307  c-0.745,9.984,2.097,20.319,8.25,26.25"/>
<path fill="none" stroke="#000000" stroke-width="2" stroke-linecap="square" stroke-miterlimit="10" d="M486,263.807  c1.208,11.44,6.783,19.297,17.25,21.75"/>
<path fill="none" stroke="#000000" stroke-width="2" stroke-linecap="square" stroke-miterlimit="10" d="M535.5,254.057  c0.072,10.321-3.849,19.112-12,24"/>
<path fill="none" stroke="#000000" stroke-width="2" stroke-linecap="square" stroke-miterlimit="10" d="M539.25,263.807  c-3.16,10.528-9.871,17.372-20.25,20.25"/>
<path fill-rule="evenodd" clip-rule="evenodd" fill="#ECB326" stroke="#000000" stroke-width="2" stroke-linecap="square" stroke-miterlimit="10" d="  M327.75,447.557C302.995,471.789,308.265,421.495,327.75,447.557L327.75,447.557z"/>
<path fill-rule="evenodd" clip-rule="evenodd" fill="#5FADCA" stroke="#000000" stroke-width="2" stroke-linecap="square" stroke-miterlimit="10" d="  M326.25,481.307c-6.585,12.696-18,10.24-18-5.25C308.25,454.458,330.208,461.01,326.25,481.307z"/>
<path fill-rule="evenodd" clip-rule="evenodd" fill="#90D8F8" stroke="#000000" stroke-width="2" stroke-linecap="square" stroke-miterlimit="10" d="  M323.25,576.557c-15.046,12.398-15.111-71.132-9-82.5c4.924-9.161,9-0.853,9,6.111C323.25,525.631,323.25,551.094,323.25,576.557z"/>
<path fill-rule="evenodd" clip-rule="evenodd" fill="#0D529F" stroke="#000000" stroke-width="2" stroke-linecap="square" stroke-miterlimit="10" d="  M330.75,456.557c-3.938,8.697-27.977,15.725-27,0C304.696,441.327,326.712,448.263,330.75,456.557z"/>
<path fill-rule="evenodd" clip-rule="evenodd" fill="#878787" stroke="#000000" stroke-width="2" stroke-linecap="square" stroke-miterlimit="10" d="  M314.25,454.307C303.814,457.62,303.278,453.016,314.25,454.307L314.25,454.307z"/>
<path fill-rule="evenodd" clip-rule="evenodd" fill="#878787" stroke="#000000" stroke-width="2" stroke-linecap="square" stroke-miterlimit="10" d="  M328.5,455.057C317.467,458.281,317.07,453.655,328.5,455.057L328.5,455.057z"/>
<path fill-rule="evenodd" clip-rule="evenodd" fill="#D2EBE1" stroke="#000000" stroke-width="2" stroke-linecap="square" stroke-miterlimit="10" d="  M328.5,475.307C487.011,393.116,355.174,512.095,328.5,475.307L328.5,475.307z"/>
<path fill-rule="evenodd" clip-rule="evenodd" fill="#D2EBE1" stroke="#000000" stroke-width="2" stroke-linecap="square" stroke-miterlimit="10" d="  M326.25,486.557c20.538-1.446,119.24-5.245,61.5,23.625C366.874,520.621,315.394,523.547,326.25,486.557z"/>
<path fill-rule="evenodd" clip-rule="evenodd" fill="#D2EBE1" stroke="#000000" stroke-width="2" stroke-linecap="square" stroke-miterlimit="10" d="  M308.25,477.557C150.353,396.683,278.766,512.773,308.25,477.557L308.25,477.557z"/>
<path fill-rule="evenodd" clip-rule="evenodd" fill="#D2EBE1" stroke="#000000" stroke-width="2" stroke-linecap="square" stroke-miterlimit="10" d="  M309.75,488.807c-21.762-1.585-127.57,2.368-55.5,26.25C274.896,521.899,321.041,522.602,309.75,488.807z"/>
<line fill="none" stroke="#000000" stroke-width="2" stroke-linecap="square" stroke-miterlimit="10" x1="309.75" y1="492.557" x2="286.5" y2="503.807"/>
<path fill="none" stroke="#000000" stroke-width="2" stroke-linecap="square" stroke-miterlimit="10" d="M300.75,488.807  c-13.637,1.545-28.426,3.717-39,12"/>
<line fill="none" stroke="#000000" stroke-width="2" stroke-linecap="square" stroke-miterlimit="10" x1="327" y1="494.057" x2="345" y2="503.057"/>
<path fill="none" stroke="#000000" stroke-width="2" stroke-linecap="square" stroke-miterlimit="10" d="M333.75,487.307  c13.219,2.062,26.127,5.53,37.5,12.75"/>
<path fill="none" stroke="#000000" stroke-width="2" stroke-linecap="square" stroke-miterlimit="10" d="M316.5,580.307  c-1.927,3.438-2.692,7.303-2.25,11.25"/>
<path fill="none" stroke="#000000" stroke-width="2" stroke-linecap="square" stroke-miterlimit="10" d="M321.75,581.057  c1.958,2.614,2.721,5.745,2.25,9"/>
<path fill="none" stroke="#000000" stroke-width="2" stroke-linecap="square" stroke-miterlimit="10" d="M295.5,434.807  c0.127,10.582,1.611,20.485,8.25,26.25"/>
<path fill="none" stroke="#000000" stroke-width="2" stroke-linecap="square" stroke-miterlimit="10" d="M291.75,449.057  c1.37,11.15,6.964,18.691,17.25,21"/>
<path fill="none" stroke="#000000" stroke-width="2" stroke-linecap="square" stroke-miterlimit="10" d="M341.25,439.307  c0.196,10.321-3.656,19.007-12,23.25"/>
<path fill="none" stroke="#000000" stroke-width="2" stroke-linecap="square" stroke-miterlimit="10" d="M345,449.057  c-3.16,10.528-9.871,17.372-20.25,20.25"/>
<path fill-rule="evenodd" clip-rule="evenodd" fill="#ECB326" stroke="#000000" stroke-width="2" stroke-linecap="square" stroke-miterlimit="10" d="  M530.25,447.557C507.443,474.671,508.911,419.142,530.25,447.557L530.25,447.557z"/>
<path fill-rule="evenodd" clip-rule="evenodd" fill="#5FADCA" stroke="#000000" stroke-width="2" stroke-linecap="square" stroke-miterlimit="10" d="  M528.75,481.307c-8.139,14.632-24.211,6.315-18.75-10.5C515.743,453.123,531.679,466.161,528.75,481.307z"/>
<path fill-rule="evenodd" clip-rule="evenodd" fill="#90D8F8" stroke="#000000" stroke-width="2" stroke-linecap="square" stroke-miterlimit="10" d="  M525,576.557c-14.841,12.302-15.028-71.613-9-82.5c5.193-9.378,9-0.514,9,6.111C525,525.631,525,551.094,525,576.557z"/>
<path fill-rule="evenodd" clip-rule="evenodd" fill="#0D529F" stroke="#000000" stroke-width="2" stroke-linecap="square" stroke-miterlimit="10" d="  M532.5,456.557c-3.964,9.055-27.29,15.312-26.25,0C507.255,441.76,528.417,447.881,532.5,456.557z"/>
<path fill-rule="evenodd" clip-rule="evenodd" fill="#878787" stroke="#000000" stroke-width="2" stroke-linecap="square" stroke-miterlimit="10" d="  M516,454.307C505.584,457.479,505.497,451.591,516,454.307L516,454.307z"/>
<path fill-rule="evenodd" clip-rule="evenodd" fill="#878787" stroke="#000000" stroke-width="2" stroke-linecap="square" stroke-miterlimit="10" d="  M530.25,455.057C519.814,458.37,519.277,453.766,530.25,455.057L530.25,455.057z"/>
<path fill-rule="evenodd" clip-rule="evenodd" fill="#D2EBE1" stroke="#000000" stroke-width="2" stroke-linecap="square" stroke-miterlimit="10" d="  M530.25,475.307C690.793,393.078,555.578,512.559,530.25,475.307L530.25,475.307z"/>
<path fill-rule="evenodd" clip-rule="evenodd" fill="#D2EBE1" stroke="#000000" stroke-width="2" stroke-linecap="square" stroke-miterlimit="10" d="  M528.75,486.557c19.514-1.421,120.043-3.87,61.125,23.625C569.938,519.487,515.653,523.695,528.75,486.557z"/>
<path fill-rule="evenodd" clip-rule="evenodd" fill="#D2EBE1" stroke="#000000" stroke-width="2" stroke-linecap="square" stroke-miterlimit="10" d="  M510,477.557C351.71,395.481,482.902,513.561,510,477.557L510,477.557z"/>
<path fill-rule="evenodd" clip-rule="evenodd" fill="#D2EBE1" stroke="#000000" stroke-width="2" stroke-linecap="square" stroke-miterlimit="10" d="  M512.25,488.807c-21.146-1.474-128.028,1.893-56.25,26.25C477.075,522.208,522.187,522.819,512.25,488.807z"/>
<line fill="none" stroke="#000000" stroke-width="2" stroke-linecap="square" stroke-miterlimit="10" x1="511.5" y1="492.557" x2="488.25" y2="503.807"/>
<path fill="none" stroke="#000000" stroke-width="2" stroke-linecap="square" stroke-miterlimit="10" d="M503.25,488.807  c-13.824,1.462-28.842,3.815-39.75,12"/>
<line fill="none" stroke="#000000" stroke-width="2" stroke-linecap="square" stroke-miterlimit="10" x1="528.75" y1="494.057" x2="547.5" y2="503.057"/>
<path fill="none" stroke="#000000" stroke-width="2" stroke-linecap="square" stroke-miterlimit="10" d="M535.5,487.307  c13.261,2.007,26.332,5.106,37.5,12.75"/>
<path fill="none" stroke="#000000" stroke-width="2" stroke-linecap="square" stroke-miterlimit="10" d="M519,580.307  c-2.645,3.167-3.654,7.078-3,11.25"/>
<path fill="none" stroke="#000000" stroke-width="2" stroke-linecap="square" stroke-miterlimit="10" d="M524.25,581.057  c1.223,2.863,1.732,5.905,1.5,9"/>
<path fill="none" stroke="#000000" stroke-width="2" stroke-linecap="square" stroke-miterlimit="10" d="M497.25,434.807  c0.644,10.015,2.503,20.032,8.25,26.25"/>
<path fill="none" stroke="#000000" stroke-width="2" stroke-linecap="square" stroke-miterlimit="10" d="M494.25,449.057  c1.37,11.15,6.964,18.691,17.25,21"/>
<path fill="none" stroke="#000000" stroke-width="2" stroke-linecap="square" stroke-miterlimit="10" d="M543,439.307  c0.606,10.322-2.918,19.031-11.25,23.25"/>
<path fill="none" stroke="#000000" stroke-width="2" stroke-linecap="square" stroke-miterlimit="10" d="M547.5,449.057  c-3.56,10.112-10.295,16.971-20.25,20.25"/>
</svg>