<svg xmlns="http://www.w3.org/2000/svg" xmlns:xlink="http://www.w3.org/1999/xlink" version="1.1" id="Layer_1" x="0px" y="0px" enable-background="new 0 0 822.05 841.89" xml:space="preserve" viewBox="207.04 283.09 405.5 277.3">
<path fill-rule="evenodd" clip-rule="evenodd" fill="#ED1C24" stroke="#000000" stroke-width="2" stroke-linecap="square" stroke-miterlimit="10" d="  M385.037,362.14c3.825-15.802,16.449-55.951,38.252-57.75c29.597-2.442,7.386,23.692,21,33.75  c12.726,9.401,35.991-21.964,46.194-29.167c24.146-17.044,53.312-25.637,82.806-24.833c-2,23.75-4,47.5-6,71.25  c-17.629-13.293-39.276-26.334-62.25-21c-24.346,5.653-36.417,45.321-59.25,46.5c-24.113,1.245-12.304-26.714-16.5-43.5  c-7.062-28.248-45.82,33.671-49.502,39C381.532,371.653,383.047,366.777,385.037,362.14z"/>
<path fill-rule="evenodd" clip-rule="evenodd" fill="#CB97C4" stroke="#000000" stroke-width="2" stroke-linecap="square" stroke-miterlimit="10" d="  M495.289,477.64c7.83-3.679,29.191-13.592,38.25-7.5c14.982,10.075,2.664,13.216-1.5,23.625c-0.197,0.493,68.313,26.535,79.5,38.625  c-11,9-22,18-33,27c-1.395-13.464-6.783-29.714-18.75-37.5c-12.112-7.881-34.062,1.356-43.5-6.75  c-18.666-16.032,35.739-46.269-29.25-33.75C489.789,480.14,492.539,478.89,495.289,477.64z"/>
<path fill-rule="evenodd" clip-rule="evenodd" fill="#ED1C24" stroke="#000000" stroke-width="2" stroke-linecap="square" stroke-miterlimit="10" d="  M298.037,408.64c-7.248-4.574-23.079-12.973-31.5-7.5c-12.997,8.447,9.515,14.706,3,21c-11.396,11.01-44.793,4.927-61.5,20.25  c8.5,7.5,17,15,25.5,22.5c3.889-37.757,23.979-17.406,42.75-28.5c17.99-10.632-19.271-42.91,28.5-24  C302.537,411.14,300.287,409.89,298.037,408.64z"/>
<path fill-rule="evenodd" clip-rule="evenodd" fill="#CB97C4" stroke="#000000" stroke-width="2" stroke-linecap="square" stroke-miterlimit="10" d="  M407.537,495.64c-6.116,10.597-17.696,26.159-31.5,27c-20.1,1.224-10.969-13.562-17.25-16.5  c-23.574-11.027-74.199,18.454-109.5,12.75c3.25-12.75,6.5-25.5,9.75-38.25c43.027,29.79,56.224,7.355,98.625-1.125  c23.384-4.677,4.526,20.442,12.375,26.625c12.131,9.555,32.174-8.726,42-17.25C410.537,491.14,409.037,493.39,407.537,495.64z"/>
<path fill-rule="evenodd" clip-rule="evenodd" fill="#E4BE9D" stroke="#000000" stroke-width="2" stroke-linecap="square" stroke-miterlimit="10" d="  M403.037,392.89c20.499,96.225-87.901,121.769-110.25,25.5C270.276,321.421,375.017,299.878,403.037,392.89z"/>
<path fill-rule="evenodd" clip-rule="evenodd" fill="#6D6F71" stroke="#000000" stroke-width="2" stroke-linecap="square" stroke-miterlimit="10" d="  M307.787,402.64c6.888-12.288,20.787-14.894,30.75-4.5C329.594,380.201,310.916,382.637,307.787,402.64z"/>
<path fill-rule="evenodd" clip-rule="evenodd" fill="#6D6F71" stroke="#000000" stroke-width="2" stroke-linecap="square" stroke-miterlimit="10" d="  M351.287,394.39c6.888-12.288,20.787-14.894,30.75-4.5C373.051,371.936,354.436,374.397,351.287,394.39z"/>
<path fill-rule="evenodd" clip-rule="evenodd" fill="#6D6F71" stroke="#000000" stroke-width="2" stroke-linecap="square" stroke-miterlimit="10" d="  M379.037,422.89c-11.007,22.014-34.162,24.857-51,7.5C346.846,458.501,370.182,458.949,379.037,422.89z"/>
<path fill-rule="evenodd" clip-rule="evenodd" fill="#967A66" stroke="#000000" stroke-width="2" stroke-linecap="square" stroke-miterlimit="10" d="  M511.039,478.39c-43.079,88.448-143.948,41.352-102.752-48C449.638,340.703,553.564,389.084,511.039,478.39z"/>
<path fill-rule="evenodd" clip-rule="evenodd" fill="#BCBEC0" stroke="#000000" stroke-width="2" stroke-linecap="square" stroke-miterlimit="10" d="  M430.039,427.39c13.254-5.708,25.641,1.008,27,15.75C461.62,423.386,444.843,413.059,430.039,427.39z"/>
<path fill-rule="evenodd" clip-rule="evenodd" fill="#BCBEC0" stroke="#000000" stroke-width="2" stroke-linecap="square" stroke-miterlimit="10" d="  M469.789,447.64c13.178-5.773,25.724,1.109,27,15.75C501.014,443.75,484.61,433.105,469.789,447.64z"/>
<path fill-rule="evenodd" clip-rule="evenodd" fill="#BCBEC0" stroke="#000000" stroke-width="2" stroke-linecap="square" stroke-miterlimit="10" d="  M418.789,485.14c21.295-11.487,42.688-0.201,45,24C466.916,475.637,446.245,460.311,418.789,485.14z"/>
</svg>