<svg xmlns="http://www.w3.org/2000/svg" xmlns:xlink="http://www.w3.org/1999/xlink" version="1.1" id="Layer_1" x="0px" y="0px" enable-background="new 0 0 822.05 841.89" xml:space="preserve" viewBox="215.47 264.01 389.75 309.42">
<path fill-rule="evenodd" clip-rule="evenodd" fill="#CEEDFC" stroke="#000000" stroke-width="2" stroke-linecap="square" stroke-miterlimit="10" d="  M216.471,365.506c71.065,65.509,142.13,131.019,213.194,196.527c27.278,25.146,35.781-0.328,62.974-23.636  c37.194-31.881,74.389-63.761,111.582-95.642c-67.848-49.633-135.694-99.267-203.542-148.899  c-28.589-20.915-36.166-6.09-68.492,10.885C293.615,324.997,255.043,345.251,216.471,365.506z"/>
<path fill-rule="evenodd" clip-rule="evenodd" fill="#CB97C4" d="M414.471,384.256C414.347,384.999,415.31,379.229,414.471,384.256  L414.471,384.256z"/>
<path fill-rule="evenodd" clip-rule="evenodd" fill="#CB97C4" d="M424.221,386.506c-2.469-1.79-4.708-5.641-9-6.75  c0.92,2.7,1.995,3.705,3,6c0.224-1.112-0.026-2.112-0.75-3C421.022,387.431,420.33,385.115,424.221,386.506z"/>
<path fill-rule="evenodd" clip-rule="evenodd" fill="#CB97C4" d="M419.721,381.256C424.521,386.056,420.921,382.457,419.721,381.256  L419.721,381.256z"/>
<path fill-rule="evenodd" clip-rule="evenodd" fill="#CB97C4" d="M419.721,379.756C426.54,381.551,415.489,378.643,419.721,379.756  L419.721,379.756z"/>
<path fill-rule="evenodd" clip-rule="evenodd" fill="#CB97C4" d="M422.721,377.506C422.375,376.865,421.834,375.862,422.721,377.506  L422.721,377.506z"/>
<path fill-rule="evenodd" clip-rule="evenodd" fill="#CB97C4" d="M423.471,376.006c0.138,0.722,3.113,4.229-0.75,3.75  C428.068,384.423,424.138,379.51,423.471,376.006z"/>
<path fill-rule="evenodd" clip-rule="evenodd" fill="#CB97C4" d="M422.721,377.506C421.721,377.506,421.721,377.506,422.721,377.506  L422.721,377.506z"/>
<path fill-rule="evenodd" clip-rule="evenodd" fill="#CB97C4" d="M420.471,378.256C421.138,378.923,423.804,381.59,420.471,378.256  L420.471,378.256z"/>
<path fill-rule="evenodd" clip-rule="evenodd" fill="#CB97C4" d="M425.721,373.756c1.381,2.739-0.307,4.139,4.5,7.5  C430.016,377.078,427.348,376.982,425.721,373.756z"/>
<path fill-rule="evenodd" clip-rule="evenodd" fill="#CB97C4" d="M433.221,382.756C433.221,381.756,433.221,381.756,433.221,382.756  L433.221,382.756z"/>
<path fill-rule="evenodd" clip-rule="evenodd" fill="#CB97C4" d="M435.471,373.756c-1.63,1.002-2.385,9.138-1.5,1.5  c-1.391-0.309-1.665,2.23-1.5,2.25c-0.977-0.451-0.662-3.315-0.75-3.75c-0.136,4.102,1.127,3.709-2.25,2.25  c1.941,3.793,2.516,3.613,6,7.5C435.047,380.229,434.783,376.929,435.471,373.756z"/>
<path fill-rule="evenodd" clip-rule="evenodd" fill="#CB97C4" d="M436.221,379.006C436.221,383.957,436.221,375.856,436.221,379.006  L436.221,379.006z"/>
<path fill-rule="evenodd" clip-rule="evenodd" fill="#CB97C4" d="M438.471,373.006c-1.745,3.624-4.002-0.013-1.5,6  c-0.812-0.894,0.786-3.051,1.5-3.75c0.479,4.049-1.031,5.019-0.75,6.75C442.212,378.047,439.193,376.217,438.471,373.006z"/>
<path fill-rule="evenodd" clip-rule="evenodd" fill="#CB97C4" d="M435.471,373.006C436.956,373.109,436.464,373.075,435.471,373.006  L435.471,373.006z"/>
<path fill-rule="evenodd" clip-rule="evenodd" fill="#CB97C4" d="M439.971,379.756L439.971,379.756z"/>
<path fill-rule="evenodd" clip-rule="evenodd" fill="#CB97C4" d="M440.721,374.506C440.385,374.782,443.265,372.418,440.721,374.506  L440.721,374.506z"/>
<path fill-rule="evenodd" clip-rule="evenodd" fill="#CB97C4" d="M463.221,406.756c2.92-1.281,4.264-3.968,8.25-5.25  c-4.115-4.582-13.776-20.734-23.25-21c-0.39-3.635,1.203-1.116,1.5-4.5c-1.053-0.633-2.738-0.145-3.75-1.5  c-0.146,2.017-0.896,3.767-2.25,5.25c0.609,0.472-0.132-7.131,0-6.75c-1.867,3.75-2.913,6.746-3.75,9  c3.713,0.096,6.688-1.058,10.5-0.75c-0.3-1.417-0.248,5.878,0.75,7.5c6.256-0.809,3.312,0.159,4.5,2.25  c0.727,0.047,3.497-1.338,5.25-2.25c-1.5,2.5-3,5-4.5,7.5c0.95-0.35,2.847-3.001,4.5-2.25c-0.5,1.75-1.75,2.75-3.75,3  c2.99,1.069,4.291-0.126,6.75-0.75c-0.529,0.735,0.021,3.957,0.75,4.5c-3.918,0.121-3.757,0.255-6,2.25  C466.576,401.099,462.246,403.637,463.221,406.756z"/>
<path fill-rule="evenodd" clip-rule="evenodd" fill="#CB97C4" d="M458.721,403.006C457.08,403.424,456.168,403.656,458.721,403.006  L458.721,403.006z"/>
<path fill-rule="evenodd" clip-rule="evenodd" fill="#CB97C4" d="M463.221,406.756C462.221,406.756,462.221,406.756,463.221,406.756  L463.221,406.756z"/>
<path fill-rule="evenodd" clip-rule="evenodd" fill="#CB97C4" d="M465.471,393.256C465.471,394.256,465.471,394.256,465.471,393.256  L465.471,393.256z"/>
<path fill-rule="evenodd" clip-rule="evenodd" fill="#CB97C4" d="M454.971,398.506C458.388,393.789,455.765,397.411,454.971,398.506  L454.971,398.506z"/>
<path fill-rule="evenodd" clip-rule="evenodd" fill="#CB97C4" d="M451.971,390.256C448.994,392.188,451.302,390.69,451.971,390.256  L451.971,390.256z"/>
<path fill-rule="evenodd" clip-rule="evenodd" fill="#CB97C4" d="M458.721,404.506C461.945,407.704,461.68,407.44,458.721,404.506  L458.721,404.506z"/>
<path fill-rule="evenodd" clip-rule="evenodd" fill="#CB97C4" d="M476.721,423.256c-0.458-3.304,4.454-5.657-4.5-6.75  c2.25,0,4.5,0,6.75,0c-0.465-0.417-5.508-8.911-5.25-7.5c2.969,0.928-3.885,0.656-6,0.75c0.49-0.586,5.834-3.376,7.5-3.75  c-6.001-0.542-5.155-0.169-11.25,1.5c1.25,0,2.5,0,3.75,0c0.499,1.668-2.043,1.062-2.25,3c1.774,1.883,2.417-0.062,5.25,0  c-2.632,2.686-4.005,0.812-0.75,1.5c0.021,0.825-3.188,2.602-3.75,3.75c0.523-0.285,4.7,0.701,3.75-0.75  c-1.054,0.079-2.054-0.171-3-0.75c1.843,0.78,5.057-0.105,6.75-0.75c-2.317,3.466-4.412,4.392-5.25,5.25  c3.121,2.525,2.909,3.099,6.75,6C473.374,420.883,473.903,423.096,476.721,423.256z"/>
<path fill-rule="evenodd" clip-rule="evenodd" fill="#CB97C4" d="M465.471,411.256C467.471,411.256,467.471,411.256,465.471,411.256  L465.471,411.256z"/>
<path fill-rule="evenodd" clip-rule="evenodd" fill="#CB97C4" d="M469.221,427.006c-5.039-0.506-1.016-0.042,3,2.25  c-0.814,0.07-1.45,1.159-0.75,2.25c-1.255-1.549-2.755-2.799-4.5-3.75c-0.072,1.02-0.465,0.921-1.5,0.75  c1.126,1.835,3.549,1.977,3.75,5.25c0.097-0.097-4.316-3.41-5.25-3.75c0.452,4.855,3.918,9.083,4.5,11.25  c-0.27-1.012-3.654-3.848-3-5.25c0.75,0.25,1,0,0.75-0.75c1.058,0.064,3.982,2.227,2.25,3.75c3.367-2.607,5.199-8.338,8.25-10.5  c-1.616-1.07-8.588-6.171-12-7.5C464.878,424.236,466.515,423.93,469.221,427.006z"/>
<path fill-rule="evenodd" clip-rule="evenodd" fill="#CB97C4" d="M469.221,422.506C472.554,425.839,469.888,423.173,469.221,422.506  L469.221,422.506z"/>
<path fill-rule="evenodd" clip-rule="evenodd" fill="#CB97C4" d="M477.471,427.756C474.702,426.18,475.11,426.413,477.471,427.756  L477.471,427.756z"/>
<path fill-rule="evenodd" clip-rule="evenodd" fill="#CB97C4" d="M463.221,430.756C463.273,431.41,463.476,433.894,463.221,430.756  L463.221,430.756z"/>
<path fill-rule="evenodd" clip-rule="evenodd" fill="#CB97C4" d="M463.221,445.006c0.28-4.563,5.891-3.934-0.75-9.75  c0.022,1.12,1.656,4.621,1.5,6C460.175,440.072,463.365,442.657,463.221,445.006z"/>
<path fill-rule="evenodd" clip-rule="evenodd" fill="#CB97C4" d="M452.721,439.756c-1.199,0.103-2.128-0.057-3-1.5  c-1.366,1.877-1.762,4.239-2.25,7.5c-1.342-1.816-3.092-3.066-5.25-3.75c1.5,2,3,4,4.5,6c-4.297-1.798-3.005-0.468-6-2.25  c-0.711-0.003-9.431,1.293-12,2.25c0.548,1.45,2.109,3.479,3,6c-1.723-2.041-3.25-1.192-3,0.75c-1.062-1.545-0.574-2.979-0.75-4.5  c-2.282,1.325-0.027,2.634-3-0.75c-3.168,8.536-1.226,3.544,0,11.25c4.732-3.919,6.73-5.109,9.75-8.25c0.75,1.25,1.5,2.5,2.25,3.75  c0.472,0.78-1.492-3.725-1.5-3.75c1.008,1.268,2.314-0.14,3,3c0.636-0.383-1.048-4.251-0.75-3.75c1,1.25,2,2.5,3,3.75  c4.646-5.108,7.757-5.981,12.75-9c0.887-1.72,3.064-7.614,3-7.5c1.633,1.372,2.198,4.129,3,6c0.04-0.119,1.071-2.669,1.5-2.25  c0.078,0.172-5.588-4.85,0.75-0.75C454.826,434.239,454.984,436.397,452.721,439.756z"/>
<path fill-rule="evenodd" clip-rule="evenodd" fill="#CB97C4" d="M459.471,445.756C459.471,444.756,459.471,444.756,459.471,445.756  L459.471,445.756z"/>
<path fill-rule="evenodd" clip-rule="evenodd" fill="#CB97C4" d="M421.971,455.506C420.971,455.506,420.971,455.506,421.971,455.506  L421.971,455.506z"/>
<path fill-rule="evenodd" clip-rule="evenodd" fill="#CB97C4" d="M461.721,442.006L461.721,442.006z"/>
<path fill-rule="evenodd" clip-rule="evenodd" fill="#CB97C4" d="M458.721,435.256C458.426,436.244,457.964,437.787,458.721,435.256  L458.721,435.256z"/>
<path fill-rule="evenodd" clip-rule="evenodd" fill="#CB97C4" d="M414.471,452.506C415.471,455.506,415.471,455.506,414.471,452.506  L414.471,452.506z"/>
<path fill-rule="evenodd" clip-rule="evenodd" fill="#CB97C4" d="M398.721,451.006C399.721,452.006,399.721,452.006,398.721,451.006  L398.721,451.006z"/>
<path fill-rule="evenodd" clip-rule="evenodd" fill="#CB97C4" d="M369.471,427.006c-5.636-1.487-3.854-4.028-9.75-1.5  c1.927,3.425,0.304-0.991-1.5,3.75c1.257,0.195,5.123,0.136,6,0.75c0.038-0.112-0.084,5.759-2.25,2.25c1.826,0.523,4.154-0.411,6,0  c-2.199,6.518,0.655,6.421,0.75,13.5c3.868,1.104,3.795,0.157,7.5,0c1.154,3.369,0.098,3.416,2.25,6c0.718,0.092,1.718-2.72,3-3  c1.783,0.954-1.312,4.518-1.5,6c4.647-3.328,5.988-3.467,10.5-6c-2.417,2.301-4.183,3.461-7.5,6  c9.609,5.301,17.312,8.036,23.25-2.25c-0.772,3.891-0.709,4.193-3,9.75c0.837-0.702,5.104-0.901,4.5-3c-0.25,1.25-0.5,2.5-0.75,3.75  c2.249-0.066,1.804-4.527,2.25-5.25c8.924,2.206,10.021,6.289,9-6.75c-3.011,8.884-1.726,1.917-3.75,9.75  c-0.283-1.185-1.007-2.785-1.5-1.5c-0.29-2.125,0.037-4.627,0-6.75c-1.535,0.191-0.957,2.144-1.5-1.5  c-1.318,1.101-2.792,3.323-3.75,3.75c-0.323-1.323-0.823-2.573-1.5-3.75c-1.008,0.785-1.953,4.011-3,5.25  c-0.388-0.969-0.156-4.45-1.5-5.25c0.111,0.009-2.577,2.931-3,3c-1.96-4.479,0.107-1.92,0-4.5c-3.534,2.324-4.246,2.459-7.5,6  c0.353-4.882,0.791-3.501-2.25-4.5c0.393-1.463,2.553-2.173,3-3.75c-3.95-0.11-2.685,4.533-3-1.5c-5.245,0.881,0.259,1.909-3.75-1.5  c-5.488,0.491-1.597-0.037-9.75,0.75c1.082-8.179-0.151-2.423-1.5-11.25c-0.277,0.374-3.303,5.612-3,5.25  c-0.665,0.612-1.415,0.862-2.25,0.75c-0.145,0.312-0.796-3.796-1.5-3.75c2.575-1.2,4.064-2.253,6-3.75  C367.548,430.971,369.466,429.749,369.471,427.006z"/>
<path fill-rule="evenodd" clip-rule="evenodd" fill="#CB97C4" d="M379.221,442.756C380.878,437.448,379.357,442.318,379.221,442.756  L379.221,442.756z"/>
<path fill-rule="evenodd" clip-rule="evenodd" fill="#CB97C4" d="M378.471,442.006C377.471,442.006,377.471,442.006,378.471,442.006  L378.471,442.006z"/>
<path fill-rule="evenodd" clip-rule="evenodd" fill="#CB97C4" d="M367.221,423.256C366.617,422.653,366.617,422.653,367.221,423.256  L367.221,423.256z"/>
<path fill-rule="evenodd" clip-rule="evenodd" fill="#CB97C4" d="M365.721,423.256C364.721,424.256,364.721,424.256,365.721,423.256  L365.721,423.256z"/>
<path fill-rule="evenodd" clip-rule="evenodd" fill="#CB97C4" d="M370.971,391.006c1.865-1.969,0.233-5.644,3.75-2.25  c-0.092-0.372,0.657-5.219,0.75-6c-15.003,4.443-20.76,18.71-16.5,26.25c-1.5-0.5-3-1-4.5-1.5c4.853,7.1,1.977,3.719,3.75,9.75  c-0.106-0.197-1.39-2.759-1.5-0.75c3.212,4.962-1.35,3.448,7.5,6.75c0-0.75,0-1.5,0-2.25c-1.776-1.447-3.776-1.947-6-1.5  c1.72-0.716,1.867-2.002,1.5-3c6.003-2.454,1.623,0.085,6.75-3c-2.6-0.477-5.247-0.027-8.25-0.75c2.964-0.359,0.25-2.163,0-2.25  c0.138,0.021,4.369,1.155,3.75,1.5c0.893-2.53-3.651-1.219,3-2.25c-0.538-0.535-3.754-1.354-4.5-0.75  c1.618-4.103,2.935-2.558,2.25-8.25c-0.833,0.852,1.577,1.495,1.5,2.25C364.959,394.448,366.907,388.658,370.971,391.006z"/>
<path fill-rule="evenodd" clip-rule="evenodd" fill="#CB97C4" d="M377.721,383.506C375.995,392.021,378.746,378.449,377.721,383.506  L377.721,383.506z"/>
<path fill-rule="evenodd" clip-rule="evenodd" fill="#CB97C4" d="M393.471,382.006c-7.407-2.1-11.962-3.142-14.25,3  c3.531-3.317,0.371-0.645,3,1.5c1.91-1.604,0.594-3.97,2.25-5.25c2.237,3.26,1.304,3.525,5.25,5.25c0.642-1.486-1.687-2.934,0-5.25  c0.222,0.107-0.002,5.152,0,5.25c4.377-1.067,3.652-1.81,7.5-1.5c1.792-1.539-0.604-2.998,2.25-4.5  c-0.982-0.098-1.51,3.704-0.75,4.5c0.534-1.018,2.653-5.205,3-6.75C398.438,378.744,396.421,381.322,393.471,382.006z"/>
<path fill-rule="evenodd" clip-rule="evenodd" fill="#CB97C4" d="M394.221,379.006C394.221,380.213,394.221,380.213,394.221,379.006  L394.221,379.006z"/>
<path fill-rule="evenodd" clip-rule="evenodd" fill="#CB97C4" d="M412.221,348.256C412.654,347.947,409.288,350.351,412.221,348.256  L412.221,348.256z"/>
<path fill-rule="evenodd" clip-rule="evenodd" fill="#CB97C4" d="M410.721,339.256c0.502,3.658,0.397,7.559,0.75,11.25c0-2,0-4,0-6  C412.329,346.849,410.991,341.482,410.721,339.256z"/>
<path fill-rule="evenodd" clip-rule="evenodd" fill="#CB97C4" d="M410.721,346.756C410.721,342.639,410.721,342.639,410.721,346.756  L410.721,346.756z"/>
<path fill-rule="evenodd" clip-rule="evenodd" fill="#CB97C4" d="M410.721,347.506C410.721,337.613,410.721,353.29,410.721,347.506  L410.721,347.506z"/>
<path fill-rule="evenodd" clip-rule="evenodd" fill="#CB97C4" d="M409.971,347.506L409.971,347.506z"/>
<path fill-rule="evenodd" clip-rule="evenodd" fill="#CB97C4" d="M409.971,347.506c0.245,3.999,0-3.004,0-3.75c0,1,0,1,0,0  C407.237,337.959,409.904,346.417,409.971,347.506z"/>
<path fill-rule="evenodd" clip-rule="evenodd" fill="#CB97C4" d="M409.971,347.506C409.971,346.506,409.971,346.506,409.971,347.506  L409.971,347.506z"/>
<path fill-rule="evenodd" clip-rule="evenodd" fill="#CB97C4" d="M409.971,347.506C410.144,346.568,410.811,342.94,409.971,347.506  L409.971,347.506z"/>
<path fill-rule="evenodd" clip-rule="evenodd" fill="#CB97C4" d="M409.221,348.256c-0.347-2.282-0.09-4.273-1.5-8.25  C408.085,342.763,408.801,345.497,409.221,348.256z"/>
<path fill-rule="evenodd" clip-rule="evenodd" fill="#CB97C4" d="M406.971,337.006C406.971,338.006,406.971,338.006,406.971,337.006  L406.971,337.006z"/>
<path fill-rule="evenodd" clip-rule="evenodd" fill="#CB97C4" d="M406.221,344.506c1.056-0.631-0.471-8.215,0.75-0.75  c0-0.75,0-1.5,0-2.25c-0.237,1.579,0.013,3.079,0.75,4.5c-0.251-2.704-1.374-5.418,0.75-1.5c-0.5-1.5-1-3-1.5-4.5  c0.982,3.584-1.762-3.971-2.25-5.25C405.268,337.913,406.133,341.305,406.221,344.506z"/>
<path fill-rule="evenodd" clip-rule="evenodd" fill="#CB97C4" d="M405.471,340.006C402.45,335.717,407.088,342.303,405.471,340.006  L405.471,340.006z"/>
<path fill-rule="evenodd" clip-rule="evenodd" fill="#CB97C4" d="M406.221,346.006c-1.05-4.66,0.851,0.855-1.5-6  c-0.061,1.288,0.189,2.538,0.75,3.75c-0.758-1.68-1.393-4.427-2.25-6c1.03,2.237,1.03,1.987,0-0.75  C402.761,340.55,404.948,343.077,406.221,346.006z"/>
<path fill-rule="evenodd" clip-rule="evenodd" fill="#CB97C4" d="M406.221,346.006C406.221,345.006,406.221,345.006,406.221,346.006  L406.221,346.006z"/>
<path fill-rule="evenodd" clip-rule="evenodd" fill="#CB97C4" d="M403.221,340.756C403.221,339.756,403.221,339.756,403.221,340.756  L403.221,340.756z"/>
<path fill-rule="evenodd" clip-rule="evenodd" fill="#CB97C4" d="M404.721,345.256C403.103,342.959,407.742,349.546,404.721,345.256  L404.721,345.256z"/>
<path fill-rule="evenodd" clip-rule="evenodd" fill="#CB97C4" d="M391.221,349.006c2.523,1.822,6.193,2.854,9,4.5  c0.051,0.385-4.468-3.902,0,0c0.083-0.188,3.067-5.424,3-5.25c-0.75-1.25-1.5-2.5-2.25-3.75c0.666,0.682,2.55,3.768,2.25,3.75  c0.281-2.387-0.57-3.108-1.5-6c1.217,1.624,2.217,3.374,3,5.25c-1.011-3.241-2.679-6.81-3.75-9c-0.829,1.833,0.526,4.803,0,6.75  c1.586,0.188-3.528-2.701-4.5-2.25c0.394,0.81,2.273,3.116,2.25,3.75c-2.028-1.211-2.028-0.961,0,0.75c-0.75-0.75-1.5-1.5-2.25-2.25  c1.25,1.5,2.5,3,3.75,4.5c-2.25-1.5-4.5-3-6.75-4.5c0.032,0.029,4.027,3.088,3.75,3.75c-1.25-1-2.5-2-3.75-3  c2.282,3.111,1.924,2.155,3.75,4.5c-0.008-0.005-2.336-1.883-1.5,0c-2.04-1.88-2.91-2.56-5.25-3.75  C394.295,349.466,397.215,350.187,391.221,349.006z"/>
<path fill-rule="evenodd" clip-rule="evenodd" fill="#CB97C4" d="M390.471,346.756C387.137,343.423,389.804,346.09,390.471,346.756  L390.471,346.756z"/>
<path fill-rule="evenodd" clip-rule="evenodd" fill="#CB97C4" d="M391.221,349.006C390.221,349.006,390.221,349.006,391.221,349.006  L391.221,349.006z"/>
<path fill-rule="evenodd" clip-rule="evenodd" fill="#CB97C4" d="M400.221,351.256C399.221,351.256,399.221,351.256,400.221,351.256  L400.221,351.256z"/>
<path fill-rule="evenodd" clip-rule="evenodd" fill="#CB97C4" d="M391.221,343.756C395.938,347.173,392.316,344.55,391.221,343.756  L391.221,343.756z"/>
<path fill-rule="evenodd" clip-rule="evenodd" fill="#CB97C4" d="M395.721,343.006C394.721,341.006,394.721,341.006,395.721,343.006  L395.721,343.006z"/>
<path fill-rule="evenodd" clip-rule="evenodd" fill="#CB97C4" d="M389.721,346.756C389.999,347.5,390.965,350.085,389.721,346.756  L389.721,346.756z"/>
<path fill-rule="evenodd" clip-rule="evenodd" fill="#CB97C4" d="M399.471,358.006c0.062-0.797-0.153-1.524-5.25-3  c2,0.75,4,1.5,6,2.25c-3.161-2.311-3.797-1.46-1.5-2.25c-1.027-1.16-4.652-1.972-6-3c2.387,0.195,5.214,2.236,7.5,3  c-2.908-1.71-6.047-3.516-9-5.25c1.25,0.25,2,1,2.25,2.25c-2.419,1.053,0.038-0.637-3-0.75c-0.304,0.271,3.019,1.633,3.75,2.25  c-3.745-1.018-3.995-1.018-0.75,0c-1.211-0.48-3.188-0.801-4.5-0.75c0.724,0.947,1.724,1.447,3,1.5  c-1.267,0.568-1.241-0.519,4.5,0.75c-0.622,0.063-6.012-0.481-6-0.75c2.643,2.932,1.216-0.369,0,1.5c1.75,0,2,0,0.75,0  C397.993,358.251,394.008,357.116,399.471,358.006z"/>
<path fill-rule="evenodd" clip-rule="evenodd" fill="#CB97C4" d="M390.471,351.256C391.471,352.256,391.471,352.256,390.471,351.256  L390.471,351.256z"/>
<path fill-rule="evenodd" clip-rule="evenodd" fill="#CB97C4" d="M394.221,358.756c-8.11-0.619,2.505,0.51,4.5,0.75  c-3.19-0.105-5.203-0.154-7.5,0c2.41,0.545,5.038,0.172,7.5,0.75c-1.764,0.716-4.867-0.163-6.75,0c3.76,0.678,8.091,0.6,11.25,0.75  c-1.764-0.647-4.197,0.541-6,0c0.936-1.652,2.773,0.25,3.75-2.25c-6.103-0.97-6.581-0.711-13.5-2.25  C389.112,358.872,390.344,357.435,394.221,358.756z"/>
<path fill-rule="evenodd" clip-rule="evenodd" fill="#CB97C4" d="M391.971,357.256C396.827,358.633,393.151,357.591,391.971,357.256  L391.971,357.256z"/>
<path fill-rule="evenodd" clip-rule="evenodd" fill="#CB97C4" d="M401.721,358.756C398.721,358.756,398.721,358.756,401.721,358.756  L401.721,358.756z"/>
<path fill-rule="evenodd" clip-rule="evenodd" fill="#CB97C4" d="M391.971,360.256C392.958,360.552,394.501,361.013,391.971,360.256  L391.971,360.256z"/>
<path fill-rule="evenodd" clip-rule="evenodd" fill="#CB97C4" d="M403.221,362.506c-0.409-0.062-5.131-1.189-8.25-0.75  C400.032,361.627,398.822,361.843,403.221,362.506z"/>
<path fill-rule="evenodd" clip-rule="evenodd" fill="#CB97C4" d="M393.471,364.006c2.121-1.663-2.311,0.764-2.25,0.75  c3.991,0.108,1.604,0.229,6,0c-2,0.5-4,1-6,1.5c2.5-0.25,5-0.5,7.5-0.75c-0.208,0.073-3.102,0.644-0.75,0.75  c-3.521,1.299-1.484-0.1-5.25,1.5c2.4,0.542,0.392-0.021-1.5,0.75c3.63,0.022,3.189,0.049,0.75,1.5  c2.274-0.407,4.395-1.284,6.75-1.5c-5.039,1.657-2.366,0.894,0,0.75c-1.353,0.503-3.787,0.552-5.25,0.75  c4.939,0.889-0.001,0.365-1.5,0.75c6.786-0.663,4.174-0.251,11.25-1.5c-0.716-0.242-4.759-1.004-5.25-1.5  c4.187,0.089,3.952,0.279,0,0c1.25-0.25,2.5-0.5,3.75-0.75c-1.25,0-2.5,0-3.75,0c1.5-0.25,3-0.5,4.5-0.75  c-4.059-1.589-4.125-1.012-7.5-3c3.25,0,3,0-0.75,0c2.25-0.25,4.5-0.5,6.75-0.75c-1.266-0.006-5.629-0.384-0.75,0  c-2.746,0.084-5.505-0.114-8.25,0C391.433,362.785,391.421,367.37,393.471,364.006z"/>
<path fill-rule="evenodd" clip-rule="evenodd" fill="#CB97C4" d="M401.721,362.506C400.721,362.506,400.721,362.506,401.721,362.506  L401.721,362.506z"/>
<path fill-rule="evenodd" clip-rule="evenodd" fill="#CB97C4" d="M396.471,370.756C397.471,370.756,397.471,370.756,396.471,370.756  L396.471,370.756z"/>
<path fill-rule="evenodd" clip-rule="evenodd" fill="#CB97C4" d="M400.221,362.506L400.221,362.506z"/>
<path fill-rule="evenodd" clip-rule="evenodd" fill="#CB97C4" d="M392.721,362.506C394.721,362.506,394.721,362.506,392.721,362.506  L392.721,362.506z"/>
<path fill-rule="evenodd" clip-rule="evenodd" fill="#CB97C4" d="M393.471,373.006C395.471,373.006,395.471,373.006,393.471,373.006  L393.471,373.006z"/>
<path fill-rule="evenodd" clip-rule="evenodd" fill="#CB97C4" d="M393.471,377.506L393.471,377.506z"/>
<path fill-rule="evenodd" clip-rule="evenodd" fill="#CB97C4" d="M399.471,385.006c5.589-1.653,2.596-0.461,9-3  c-4.674,1.098,2.415-0.813,2.25-0.75c-2.929,0.597-6.823-0.731-3,0c-1.5,0.5-3,1-4.5,1.5c1.5-0.75,3-1.5,4.5-2.25  c-1.112-0.224-2.112,0.026-3,0.75c3.459-4.749,2.029,0.859-0.75-1.5c1.323-0.323,2.573-0.823,3.75-1.5  c-2.567,0.359-2.964,1.03-6,1.5c0.731-0.415,2.044-1.536,3-1.5c-1.922-0.252-1.19-0.687,0,0c-1.546-0.121-3.046,0.129-4.5,0.75  c0.547,0.122,4.762-1.892,5.25-2.25c-4.333,1.101-6.751,1.502-10.5,2.25c2.667-0.849,5.453-1.469,8.25-2.25  c-0.115,0.523-3.392,0.317,0.75-1.5c-0.573-0.043-3.376,0.512-3.75,0.75c1.338,0.294,3.823-0.596-1.5-0.75  c0.882,0.51,1.409-0.947-5.25,0c2.98-0.725,6.004-1.647,9-2.25c-1.321-0.464-4.72,0.912,0-0.75c-1.184,0.658-2.434,0.908-3.75,0.75  c2.326,0.442,2.063-1.202,3-2.25c-3.105,0.695-6.565,1.652-9.75,2.25c2-0.25,4-0.5,6-0.75c-7.783,1.471,1.732-0.612,3-0.75  c-2.422,0.733-5.5,1.615-8.25,2.25c2.265-0.158,2.015,0.092-0.75,0.75c2.006-0.224,2.006,0.026,0,0.75c0.75,0.25,1,0,0.75-0.75  c4.643,2.208,2.226-1.236-0.75,1.5c1.75-0.25,3.5-0.5,5.25-0.75c-1.789,0.366-3.539,0.866-5.25,1.5  c1.388,0.335,2.638,0.085,3.75-0.75c-0.988,1.057-1.756,0.838-3,1.5c2.42-0.341,0.66,0.079-0.75,0.75  c4.942-1.059,1.784-0.261,8.25-1.5c-1.323,0.323-2.573,0.823-3.75,1.5c3.801-2.356-0.749,0.166,1.5,0c-1.5,0.5-3,1-4.5,1.5  c0.094,0.306,6.529-2.437,0,0.75c1.618-0.315,2.339-1.393,3.75-0.75c-1.193-0.139-2.193,0.361-3,1.5c1.5-0.5,3-1,4.5-1.5  c-0.929,2.952-0.834,0.698,3.75,0c-1.162,1.026-3.473,1.099-4.5,2.25c3.268-1.207,3.018-0.957-0.75,0.75  c3.009-0.868,2.188,0.088,1.5,0.75c1.73-0.874,7.282-2.526,6-2.25c-0.028,0.009-3.26,1.336-5.25,2.25  C397.135,383.87,405.158,381.453,399.471,385.006z"/>
<path fill-rule="evenodd" clip-rule="evenodd" fill="#CB97C4" d="M398.721,381.256C392.38,382.689,397.042,381.636,398.721,381.256  L398.721,381.256z"/>
<path fill-rule="evenodd" clip-rule="evenodd" fill="#CB97C4" d="M397.971,381.256C401.304,381.256,398.637,381.256,397.971,381.256  L397.971,381.256z"/>
<path fill-rule="evenodd" clip-rule="evenodd" fill="#CB97C4" d="M400.971,385.006C401.574,385.61,401.574,385.61,400.971,385.006  L400.971,385.006z"/>
<path fill-rule="evenodd" clip-rule="evenodd" fill="#CB97C4" d="M402.471,385.006C403.471,384.006,403.471,384.006,402.471,385.006  L402.471,385.006z"/>
<path fill-rule="evenodd" clip-rule="evenodd" fill="#CB97C4" d="M409.221,388.756c5.516-2.383-2.336,1.386,6-1.5  c-2.691-2.145-1.602-0.508-4.5-1.5c1.267-2.556,2.698-0.35-2.25-0.75c1.5-0.5,3-1,4.5-1.5c1.273,0.1-5.202-0.209-2.25,0  c-1.707-0.152-0.531-0.09-3,0.75c1.251-2.085,0.838-0.314,3-1.5c-0.75,0.25-1,0-0.75-0.75c-2.141,0.883-4.721,2.339-6.75,3  c0.101,0.559,4.925-1.597,5.25-1.5c-1.555,0.952-3.254,1.075-6,3c1.705-0.514,2.13-2.627-0.75,0.75c2.56-1.084,7.448-2.982,7.5-3  c-4.082,1.934-1.349,1.257-6,3c1.25-0.5,2.5-1,3.75-1.5c-0.572-0.339-1.051,1.774-1.5,2.25c1.614,0.143,2.864-0.357,3.75-1.5  c0.224,0.947-0.276,1.447-1.5,1.5c0.888-0.724,1.888-0.974,3-0.75C411.053,387.312,408.296,388.233,409.221,388.756  C414.106,386.758,413.974,386.665,409.221,388.756z"/>
<path fill-rule="evenodd" clip-rule="evenodd" fill="#CB97C4" d="M413.721,388.006C414.404,390.219,413.343,386.783,413.721,388.006  L413.721,388.006z"/>
<path fill-rule="evenodd" clip-rule="evenodd" fill="#CB97C4" d="M415.221,390.256c-0.508-0.554,5.986-4.447-1.5-1.5  c7.623-2.887-4,2.204,0.75-0.75c-0.17,0.995-1.971,0.862-3,1.5c-1.558,0.178,4.553,0.146,3.75-0.75c2.166-1.35-3.533,1.867-4.5,3  c1.141-0.406,7.218-3.294,3.75-2.25c-1,0.75-2,1.5-3,2.25c3.072-1.314,3.822-1.314,2.25,0c2.09-0.907,7.32-2.391,0.75-0.75  C416.848,390.159,424.435,390.015,415.221,390.256z"/>
<path fill-rule="evenodd" clip-rule="evenodd" fill="#CB97C4" d="M418.221,388.756C417.221,388.756,417.221,388.756,418.221,388.756  L418.221,388.756z"/>
<path fill-rule="evenodd" clip-rule="evenodd" fill="#904098" stroke="#000000" stroke-width="2" stroke-linecap="square" stroke-miterlimit="10" d="  M562.971,265.006c4.291,3.82,6.791,11.492,9.75,16.5c-25.702,15.052-51.403,30.104-77.105,45.155  c-16.695,9.778-60.671,51.856-68.395,17.845C472.471,318.006,517.721,291.506,562.971,265.006z"/>
<path fill-rule="evenodd" clip-rule="evenodd" fill="#CB97C4" stroke="#000000" stroke-width="2" stroke-linecap="square" stroke-miterlimit="10" d="  M435.471,361.006c-7.516,1.079-18.522,4.022-26.25,3c6.49-6.83,12.579-13.474,16.5-18  C428.858,350.834,433.294,355.702,435.471,361.006z"/>
<path fill-rule="evenodd" clip-rule="evenodd" fill="#CB97C4" stroke="#000000" stroke-width="2" stroke-linecap="square" stroke-miterlimit="10" d="  M573.471,279.256c-2.021-6.287,1.47-12.699-9-12.75C567.467,270.751,570.626,274.91,573.471,279.256z"/>
<line fill="none" stroke="#000000" stroke-width="2" stroke-linecap="square" stroke-miterlimit="10" x1="430.221" y1="361.006" x2="423.471" y2="349.756"/>
<path fill-rule="evenodd" clip-rule="evenodd" fill="#CB97C4" stroke="#000000" stroke-width="2" stroke-linecap="square" stroke-miterlimit="10" d="  M478.221,336.256c-1.223-22.5,38.327-47.426,58.5-33.75C517.221,313.756,497.721,325.006,478.221,336.256z"/>
</svg>