<svg xmlns="http://www.w3.org/2000/svg" xmlns:xlink="http://www.w3.org/1999/xlink" version="1.1" id="Layer_1" x="0px" y="0px" enable-background="new 0 0 822.05 841.89" xml:space="preserve" viewBox="212.97 261.65 394.25 312.85">
<path fill-rule="evenodd" clip-rule="evenodd" fill="#CEEDFC" stroke="#000000" stroke-width="2" stroke-linecap="square" stroke-miterlimit="10" d="  M213.973,364.648c72.24,66.434,144.48,132.866,216.721,199.299c27.803,25.568,40.99-5.795,67.806-28.815  c35.908-30.827,71.817-61.654,107.726-92.481c-70.215-51.32-140.43-102.64-210.645-153.96  c-25.117-18.357-43.283,3.681-70.052,17.667C288.343,325.788,251.158,345.218,213.973,364.648z"/>
<path fill-rule="evenodd" clip-rule="evenodd" fill="#CB97C4" d="M414.225,383.398C415.432,382.191,415.432,382.191,414.225,383.398  L414.225,383.398z"/>
<path fill-rule="evenodd" clip-rule="evenodd" fill="#CB97C4" d="M423.975,386.398c-2.785-2.157-4.05-5.885-9-6.75  c0.937,1.557,2.965,3.886,3.75,5.25c-0.055,0.938-1.126-3.223-0.75-3c1,1.5,2,3,3,4.5  C421.104,383.672,421.146,385.496,423.975,386.398z"/>
<path fill-rule="evenodd" clip-rule="evenodd" fill="#CB97C4" d="M419.475,380.398C424.73,384.768,420.612,381.344,419.475,380.398  L419.475,380.398z"/>
<path fill-rule="evenodd" clip-rule="evenodd" fill="#CB97C4" d="M419.475,379.648C424.09,379.346,418.464,379.714,419.475,379.648  L419.475,379.648z"/>
<path fill-rule="evenodd" clip-rule="evenodd" fill="#CB97C4" d="M422.475,376.648C422.475,375.648,422.475,375.648,422.475,376.648  L422.475,376.648z"/>
<path fill-rule="evenodd" clip-rule="evenodd" fill="#CB97C4" d="M423.225,375.148c0.129,0.545,0.673,3.613,0.75,5.25  c-1.224-1.273-0.686-0.177,2.25,1.5C425.126,379.82,423.766,377.443,423.225,375.148z"/>
<path fill-rule="evenodd" clip-rule="evenodd" fill="#CB97C4" d="M422.475,376.648C422.475,377.648,422.475,377.648,422.475,376.648  L422.475,376.648z"/>
<path fill-rule="evenodd" clip-rule="evenodd" fill="#CB97C4" d="M420.975,378.148C421.253,378.892,422.219,381.477,420.975,378.148  L420.975,378.148z"/>
<path fill-rule="evenodd" clip-rule="evenodd" fill="#CB97C4" d="M426.225,372.898c1.231,3.421-1.303,4.556,3.75,7.5  C429.569,377.086,427.238,375.714,426.225,372.898z"/>
<path fill-rule="evenodd" clip-rule="evenodd" fill="#CB97C4" d="M433.725,381.898C432.725,380.898,432.725,380.898,433.725,381.898  L433.725,381.898z"/>
<path fill-rule="evenodd" clip-rule="evenodd" fill="#CB97C4" d="M435.225,372.898c-1.597,1.744-0.629,8.818-1.5,1.5  c-1.199,0.012-0.419,2.471-1.5,3c0.062,0.078,0.021-4.333,0-4.5c-0.904,4.179,0.135,3.9-3,2.25c0.69,1.346,2.577,3.169,3,4.5  c-0.346-0.649-0.525-1.516-0.75-2.25c1.632,3.094,2.133,3.544,4.5,6C435.291,380.116,434.676,376.231,435.225,372.898z"/>
<path fill-rule="evenodd" clip-rule="evenodd" fill="#CB97C4" d="M435.975,378.148C438.995,382.438,434.357,375.851,435.975,378.148  L435.975,378.148z"/>
<path fill-rule="evenodd" clip-rule="evenodd" fill="#CB97C4" d="M438.225,372.148c-1.66,4.216-2.544-0.654-1.5,6  c0.471,0.333,2.066-3.565,2.25-3.75c0.317,1.752-1.085,4.714-0.75,6c0-1.25,0-1,0,0.75  C442.851,376.762,439.343,375.509,438.225,372.148z"/>
<path fill-rule="evenodd" clip-rule="evenodd" fill="#CB97C4" d="M435.975,372.148C438.384,372.636,434.947,371.94,435.975,372.148  L435.975,372.148z"/>
<path fill-rule="evenodd" clip-rule="evenodd" fill="#CB97C4" d="M440.475,378.898L440.475,378.898z"/>
<path fill-rule="evenodd" clip-rule="evenodd" fill="#CB97C4" d="M441.225,373.648C441.799,373.391,442.454,373.098,441.225,373.648  L441.225,373.648z"/>
<path fill-rule="evenodd" clip-rule="evenodd" fill="#CB97C4" d="M463.725,406.648c2.124-1.009,4.498-4.173,8.25-6  c-4.136-4.502-14.19-21.169-23.25-21c-0.515-3.442,1.454-1.345,1.5-3.75c-1.492-0.901-2.549-0.392-3.75-1.5  c-0.347,1.697-1.097,3.197-2.25,4.5c0.246,0.081,0.691-6.265,0.75-6c-1.901,2.766-4,6.279-4.5,8.25  c3.293,0.175,7.379-1.627,10.5-0.75c0.376,6.096,4.12,6.841,6,10.5c1.303-1.153,2.803-1.903,4.5-2.25c-1.25,2.5-2.5,5-3.75,7.5  c-0.675,0.346,3.507-3.763,3.75-3c0.379,1.409-2.49,3.04-3,3.75c3.385,1.58,3.793-0.805,6-1.5c-0.157,0.267,0.076,4.014,0.75,4.5  c-2.946,0.39-3.882,1.203-6,3C467.058,400.368,463.177,403.154,463.725,406.648z"/>
<path fill-rule="evenodd" clip-rule="evenodd" fill="#CB97C4" d="M459.225,402.898C455.892,402.898,458.558,402.898,459.225,402.898  L459.225,402.898z"/>
<path fill-rule="evenodd" clip-rule="evenodd" fill="#CB97C4" d="M463.725,406.648C462.725,406.648,462.725,406.648,463.725,406.648  L463.725,406.648z"/>
<path fill-rule="evenodd" clip-rule="evenodd" fill="#CB97C4" d="M465.975,393.148C465.975,394.148,465.975,394.148,465.975,393.148  L465.975,393.148z"/>
<path fill-rule="evenodd" clip-rule="evenodd" fill="#CB97C4" d="M455.475,398.398C459.844,393.142,456.42,397.26,455.475,398.398  L455.475,398.398z"/>
<path fill-rule="evenodd" clip-rule="evenodd" fill="#CB97C4" d="M452.475,389.398C449.997,392.665,451.662,390.47,452.475,389.398  L452.475,389.398z"/>
<path fill-rule="evenodd" clip-rule="evenodd" fill="#CB97C4" d="M459.225,404.398C461.904,406.894,462.795,407.723,459.225,404.398  L459.225,404.398z"/>
<path fill-rule="evenodd" clip-rule="evenodd" fill="#CB97C4" d="M477.225,423.148c0.372-3.869,4.646-5.682-3.75-6.75c2,0,4,0,6,0  c0.364,0.363-6.501-7.544-6-6.75c-0.193-0.535,1.551-0.496,1.5-1.5c-0.366-0.669-5.781,1.403-6.75,1.5  c0.338-0.418,6.15-4.117,7.5-4.5c-4.332,0.047-4.591,0.184-10.5,2.25c1.25,0,2.5,0,3.75,0c-0.191,2.589-2.302,0.399-3,3  c0.881,0.723,3.711,0.01,5.25,0c-3.768,1.707-4.018,1.957-0.75,0.75c0.227,2.219-3.229,2.555-3.75,3.75  c-0.415,0.106,3.874,1.497,3.75,0.75c0.029-0.681-1.369-1.644-2.25-1.5c1.493,0.971,4.783-0.325,6-0.75  c-2.192,1.63-1.732,1.757-5.25,3c1.691,2.617,1.897,1.725,0.75,3c4.412,2.951,1.84,2.941,6.75,5.252  C473.572,420.76,474.783,423.516,477.225,423.148z"/>
<path fill-rule="evenodd" clip-rule="evenodd" fill="#CB97C4" d="M466.725,411.148C468.725,410.148,468.725,410.148,466.725,411.148  L466.725,411.148z"/>
<path fill-rule="evenodd" clip-rule="evenodd" fill="#CB97C4" d="M470.475,426.9c0.036-1.047-4.823-2.273,2.25,2.25  c-1.117,0.381-1.103,0.79,0,2.25c-1.863-0.59-3.409-2.98-5.25-3.75c0.25,1-0.25,1.25-1.5,0.75c1.928,1.501,4.541,3.308,3.75,6  c-0.251,0.003-3.258-3.443-5.25-4.5c1.026,4.153,3.632,8.518,4.5,12c-0.867-1.232-2.657-3.66-3-6c0.75,0.25,1,0,0.75-0.75  c8.451,0.044,1.969-1.484,10.5-6.75c-2.189-1.484-8.477-6.021-12-6.752C465.916,424.497,467.088,423.188,470.475,426.9z"/>
<path fill-rule="evenodd" clip-rule="evenodd" fill="#CB97C4" d="M469.725,422.398C474.961,425.576,470.623,422.943,469.725,422.398  L469.725,422.398z"/>
<path fill-rule="evenodd" clip-rule="evenodd" fill="#CB97C4" d="M478.725,427.65C474.365,425.459,476.833,426.7,478.725,427.65  L478.725,427.65z"/>
<path fill-rule="evenodd" clip-rule="evenodd" fill="#CB97C4" d="M463.725,430.65C464.143,432.291,464.374,433.203,463.725,430.65  L463.725,430.65z"/>
<path fill-rule="evenodd" clip-rule="evenodd" fill="#CB97C4" d="M463.725,445.65c0.319-4.576,6.258-4.267-0.75-9.75  c0.1,1.329,1.657,4.358,1.5,5.25C461.015,440.797,463.905,443.064,463.725,445.65z"/>
<path fill-rule="evenodd" clip-rule="evenodd" fill="#CB97C4" d="M453.975,439.65c-2.015,0.19-2.282,2.218-3-1.5  c0.177,1.03-0.073,1.03-0.75,0c-1.237,1.69-1.817,5.044-2.25,7.5c-1.342-1.816-3.092-3.066-5.25-3.75c1.5,2.25,3,4.5,4.5,6.75  c-7.398-2.935-3.445,1.119-8.25-3.75c-4.526,2.038,1.346,3.86-3.75,0c-3.373,5.635-2.982,2.518-6.75,3.75  c0.899,2.237,2.643,3.038,3,6c-0.465-0.557-2.907-4.345-1.5,0.75c-0.5,0-1,0-1.5,0c-0.166-0.368-0.675-4.089-0.75-4.5  c-1.383,0.376,0.539,2.84-3-1.5c-1.777,5.344-0.436,4.021-3,6c1.451,0.737,2.723,4.577,3,6c5.058-3.838,7.752-5.589,10.5-8.25  c0.75,1,1.5,2,2.25,3c-0.559-0.578-1.423-2.819-1.5-3.75c1.496,0.438,2.496,1.438,3,3c0.061-1.288-0.189-2.538-0.75-3.75  c1,1.5,2,3,3,4.5c7.681-8.868,14.154-12.872,15.75-17.25c1,2,2,4,3,6c0.03-0.297,1.365-1.659,1.5-1.5  c-0.123-0.225-4.281-5.254,0.75-0.75C455.235,435.168,455.378,435.387,453.975,439.65z"/>
<path fill-rule="evenodd" clip-rule="evenodd" fill="#CB97C4" d="M459.975,445.65C459.975,444.65,459.975,444.65,459.975,445.65  L459.975,445.65z"/>
<path fill-rule="evenodd" clip-rule="evenodd" fill="#CB97C4" d="M421.725,455.4C420.838,457.043,421.379,456.042,421.725,455.4  L421.725,455.4z"/>
<path fill-rule="evenodd" clip-rule="evenodd" fill="#CB97C4" d="M462.225,442.65L462.225,442.65z"/>
<path fill-rule="evenodd" clip-rule="evenodd" fill="#CB97C4" d="M459.225,435.9C458.621,436.503,458.621,436.503,459.225,435.9  L459.225,435.9z"/>
<path fill-rule="evenodd" clip-rule="evenodd" fill="#CB97C4" d="M414.975,453.15C414.975,455.15,414.975,455.15,414.975,453.15  L414.975,453.15z"/>
<path fill-rule="evenodd" clip-rule="evenodd" fill="#CB97C4" d="M398.473,451.65C399.473,451.65,399.473,451.65,398.473,451.65  L398.473,451.65z"/>
<path fill-rule="evenodd" clip-rule="evenodd" fill="#CB97C4" d="M369.223,426.9c-5.799-1.495-3.967-4.023-10.5-1.5  c2.72,2.997,0.841-0.883-0.75,3.75c1.221,0.276,5.082,0.129,6,0.75c-0.021,0.052-1.465,3.538-2.25,2.25  c1.906,1.526,2.804-0.127,5.25,0.75c-1.159,0.907-2.409,1.657-3.75,2.25c1.786,3.894,4.701,5.142,7.5,7.5  c-0.031-0.213-2.247,3.079-2.25,3c5.185,1.217,5.356,3.02,7.5,4.5c0.072,0.063,1.018,0.233,2.25,1.5c0.67,0.112,1.727-2.755,3-3  c1.547,1.991-1.143,3.736-1.5,6c4.563-2.587,5.934-2.924,10.5-6c-3.377,3.398-0.691,1.022-1.5,1.5c-1.75,2.714-2.87,2.306-6,4.5  c6.796,4.13,5.275,3.021,11.25,2.25c3.007,4.701,4.363,2.499,9.75,2.25c0.938-3.369,1.253-3.386,3-6  c-1.297,3.869-0.776,4.512-3.75,9c4.062-1.29,3.665-2.953,4.5,0.75c1.218,0.115,1.504-3.729,2.25-4.5  c8.452,1.453,11.148,5.957,8.252-7.5c-0.179,0.685-1.981,7.361-2.25,7.5c-0.25-1.25-0.5-2.5-0.75-3.75c-0.101,2.115,0.124,4.312,0,6  c-0.12-0.349-1.838-1.828-2.252-0.75c-0.245-2.475,0.177-5.019,0-7.5c0.031-0.008-2.708,2.187-4.5-0.75  c-1.054,1.393,1.029,2.173-0.75,3.75c-0.323-1.323-0.823-2.573-1.5-3.75c0.441-0.258-2.839,4.343-3,4.5  c-0.458-1.143,0.131-4.403-0.75-5.25c-0.25,0.055-2.366,3.534-3.75,3.75c-1.282-2.029,0.025-4.433,0-4.5  c-4.628,3.063-3.048,1.577-7.5,6c0.021-3.468,0.952-4.907-2.25-4.5c1.245-1.049,2.245-2.299,3-3.75c-3.71,0.293-2.605,3.168-3-1.5  c-2.299-0.399-1.709,1.365-3,2.25c-2.305-1.752,0.561-3.058-0.75-4.5c-5.46,1.267-1.71,0.226-9.75,1.5  c0.958-7.427-1.213-2.932-2.25-11.25c-1.053-0.079-2.053,0.171-3,0.75c-1.169,4.794,1.327,1.775-2.25,4.5  c1.938-3.875-0.106-3.718,4.5-7.5C366.721,430.938,369.081,429.875,369.223,426.9z"/>
<path fill-rule="evenodd" clip-rule="evenodd" fill="#CB97C4" d="M378.973,443.4C379.196,437.454,379.035,441.756,378.973,443.4  L378.973,443.4z"/>
<path fill-rule="evenodd" clip-rule="evenodd" fill="#CB97C4" d="M378.223,441.9C377.336,443.543,377.876,442.542,378.223,441.9  L378.223,441.9z"/>
<path fill-rule="evenodd" clip-rule="evenodd" fill="#CB97C4" d="M366.973,423.9C366.524,422.04,366.624,422.455,366.973,423.9  L366.973,423.9z"/>
<path fill-rule="evenodd" clip-rule="evenodd" fill="#CB97C4" d="M364.723,423.148C364.723,424.151,364.723,424.151,364.723,423.148  L364.723,423.148z"/>
<path fill-rule="evenodd" clip-rule="evenodd" fill="#CB97C4" d="M370.723,390.898c1.785-1.992,0.537-6.138,3.75-2.25  c-0.101-3.042,0.667-3.15,0.75-6.75c-13.078,7.103-22.427,17.067-16.5,26.25c-1.5-0.25-3-0.5-4.5-0.75  c4.625,7.187,1.776,5.921,4.5,10.5c1.147,4.237-4.615,3.383,5.25,3.75c-1.453-1.422-5.839-2.008-6-2.25  c2.002-0.77,1.252-1.876,0.75-3c2.749-1.775,4.465-1.861,6.75-3c-2.158-0.691-4.778-0.151-7.5-1.5c1.858,0.312-0.072-1.528,0-1.5  c1.789,0.463,1.928,0.75,3.75,1.5c0.874-2.745-4.398-1.875,3-2.25c-0.692-0.771-3.54-1.141-4.5-0.75  c2.097-4.143,2.722-3.048,2.25-8.25c-0.487,0.322,1.667,1.21,1.5,2.25C364.23,394.245,366.848,389.321,370.723,390.898z"/>
<path fill-rule="evenodd" clip-rule="evenodd" fill="#CB97C4" d="M377.473,383.398C377.93,391.442,377.108,376.989,377.473,383.398  L377.473,383.398z"/>
<path fill-rule="evenodd" clip-rule="evenodd" fill="#CB97C4" d="M393.223,381.898c-3.843-1.496-7.079-5.294-11.25,1.5  c-2.618-1.187,0.847-4.022-3-2.25c0,1,0,2,0,3c2.853,0.349-0.241-1.232,3,1.5c1.27-0.891,0.841-4.007,1.5-4.5c0.5,0,1,0,1.5,0  c1.766,2.86,1.241,4.109,4.5,5.25c0.045-2.161-1.567-2.419,0-5.25c-0.458-0.182,0.748,5.234,0.75,5.25  c4.189-1.367,4.373-1.669,6.75-1.5c1.412-1.21-0.557-3.639,2.25-4.5c-0.186-0.006-0.612,3.888,0,4.5c0.604-1.467,1.63-5.654,1.5-7.5  C398.419,378.664,395.955,381.01,393.223,381.898z"/>
<path fill-rule="evenodd" clip-rule="evenodd" fill="#CB97C4" d="M393.973,378.148C394.39,379.789,394.622,380.701,393.973,378.148  L393.973,378.148z"/>
<path fill-rule="evenodd" clip-rule="evenodd" fill="#CB97C4" d="M411.973,347.398C411.973,344.248,411.973,352.348,411.973,347.398  L411.973,347.398z"/>
<path fill-rule="evenodd" clip-rule="evenodd" fill="#CB97C4" d="M411.223,338.398c0.051,3.358-0.779,7.531,0,11.25  c0.25-2,0.5-4,0.75-6c-0.612,0.665-0.862,1.415-0.75,2.25C411.223,339.329,411.444,343.437,411.223,338.398z"/>
<path fill-rule="evenodd" clip-rule="evenodd" fill="#CB97C4" d="M410.473,345.898C410.473,341.78,410.473,341.78,410.473,345.898  L410.473,345.898z"/>
<path fill-rule="evenodd" clip-rule="evenodd" fill="#CB97C4" d="M410.473,346.648C410.473,336.754,410.473,352.432,410.473,346.648  L410.473,346.648z"/>
<path fill-rule="evenodd" clip-rule="evenodd" fill="#CB97C4" d="M409.723,346.648L409.723,346.648z"/>
<path fill-rule="evenodd" clip-rule="evenodd" fill="#CB97C4" d="M409.723,346.648c0,1.568,0-4.621,0-3.75  C409.723,336.291,409.723,346.184,409.723,346.648z"/>
<path fill-rule="evenodd" clip-rule="evenodd" fill="#CB97C4" d="M409.723,346.648C409.723,345.648,409.723,345.648,409.723,346.648  L409.723,346.648z"/>
<path fill-rule="evenodd" clip-rule="evenodd" fill="#CB97C4" d="M410.473,346.648C410.473,345.448,410.473,341.848,410.473,346.648  L410.473,346.648z"/>
<path fill-rule="evenodd" clip-rule="evenodd" fill="#CB97C4" d="M408.973,347.398c-0.248-2.213-0.056-4.296-0.75-8.25  C407.535,341.792,408.631,344.339,408.973,347.398z"/>
<path fill-rule="evenodd" clip-rule="evenodd" fill="#CB97C4" d="M406.723,336.148C406.723,337.148,406.723,337.148,406.723,336.148  L406.723,336.148z"/>
<path fill-rule="evenodd" clip-rule="evenodd" fill="#CB97C4" d="M406.723,343.648c0.916-2.319-1.233-7.103,0-0.75  c0-0.75,0-1.5,0-2.25c0.737,1.421,0.987,2.921,0.75,4.5c-0.165-3.042-1.474-5.067,0.75-1.5c-0.25-1.5-0.5-3-0.75-4.5  c1.373,3.287-1.767-3.788-2.25-5.25C404.957,337.512,406.492,340.221,406.723,343.648z"/>
<path fill-rule="evenodd" clip-rule="evenodd" fill="#CB97C4" d="M405.223,339.148C402.202,334.858,406.84,341.445,405.223,339.148  L405.223,339.148z"/>
<path fill-rule="evenodd" clip-rule="evenodd" fill="#CB97C4" d="M405.973,345.148c-0.826-4.623,0.826,0.784-1.5-6  c-0.061,1.288,0.189,2.538,0.75,3.75c-0.796-1.918-1.193-4.189-2.25-6c1.03,2.237,1.03,1.987,0-0.75  C402.709,340.21,404.82,342.271,405.973,345.148z"/>
<path fill-rule="evenodd" clip-rule="evenodd" fill="#CB97C4" d="M406.723,345.148C405.723,344.148,405.723,344.148,406.723,345.148  L406.723,345.148z"/>
<path fill-rule="evenodd" clip-rule="evenodd" fill="#CB97C4" d="M402.973,339.898C402.973,338.898,402.973,338.898,402.973,339.898  L402.973,339.898z"/>
<path fill-rule="evenodd" clip-rule="evenodd" fill="#CB97C4" d="M404.473,344.398C402.855,342.101,407.494,348.688,404.473,344.398  L404.473,344.398z"/>
<path fill-rule="evenodd" clip-rule="evenodd" fill="#CB97C4" d="M390.973,348.148c2.485,1.833,6.215,2.867,9,4.5  c-0.131-1.43-4.891-2.496,0.75,0c0.681-2.027,1.024-5.93,0.75-9c0.949,1.06,1.024,3.79,2.25,3.75c0.027-1.018-0.442-1.479,0.75-1.5  c-0.75-1.5-1.5-3-2.25-4.5c0.5,1.854,1.25,3.604,2.25,5.25c-0.881-3.483-2.196-6.981-3-9c-1.448,2.401,0.337,4.079,0,6.75  c0.66,0.053-4.075-2.727-5.25-2.25c0.388,0.842,2.27,3.056,2.25,3.75c-2.028-1.211-2.028-0.961,0,0.75  c-0.47-1.177-1.22-1.677-2.25-1.5c1.25,1.25,2.5,2.5,3.75,3.75c-2.25-1.5-4.5-3-6.75-4.5c-0.091-0.081,4.547,2.67,3.75,3.75  c-1.25-1-2.5-2-3.75-3c2.182,2.702,2.75,3.134,3.75,4.5c-0.055-0.035-2.284-1.873-1.5,0c-2.81-2.774-2.115-2.173-5.25-3.75  C393.264,348.053,397.554,350.723,390.973,348.148z"/>
<path fill-rule="evenodd" clip-rule="evenodd" fill="#CB97C4" d="M390.223,345.898C388.292,342.922,389.789,345.229,390.223,345.898  L390.223,345.898z"/>
<path fill-rule="evenodd" clip-rule="evenodd" fill="#CB97C4" d="M390.973,348.148C389.973,348.148,389.973,348.148,390.973,348.148  L390.973,348.148z"/>
<path fill-rule="evenodd" clip-rule="evenodd" fill="#CB97C4" d="M399.973,350.398C398.973,350.398,398.973,350.398,399.973,350.398  L399.973,350.398z"/>
<path fill-rule="evenodd" clip-rule="evenodd" fill="#CB97C4" d="M390.973,342.898C395.69,346.315,392.068,343.692,390.973,342.898  L390.973,342.898z"/>
<path fill-rule="evenodd" clip-rule="evenodd" fill="#CB97C4" d="M396.223,342.148C394.223,340.148,394.223,340.148,396.223,342.148  L396.223,342.148z"/>
<path fill-rule="evenodd" clip-rule="evenodd" fill="#CB97C4" d="M389.473,345.898C389.75,346.642,390.717,349.227,389.473,345.898  L389.473,345.898z"/>
<path fill-rule="evenodd" clip-rule="evenodd" fill="#CB97C4" d="M399.223,357.148c0.854-1.388,0.815-0.872-4.5-2.25  c2,0.5,4,1,6,1.5c-1.22-0.75-3.54-1.983-4.5-3c7.363,2.444-2.443-1.481-3.75-2.25c2.289,0.312,5.395,2.025,7.5,3  c-2.337-1.228-6.025-3.696-8.25-5.25c1.737,2.804,2.242,1.853-0.75,0.75c1,2.137,2.268,1.287-0.75,0.75  c1.224,0.053,1.724,0.553,1.5,1.5c-0.171,0,0.026-1.23,3,0.75c-2.094-0.094-5.627-2.514-1.5,0c-1.454-0.621-2.954-0.871-4.5-0.75  c0.785,0.33,3.375,1.123,3.75,1.5c-0.835,0.112-1.585-0.138-2.25-0.75c2,0.5,4,1,6,1.5c-1.611,0.296-3.866-1.218-5.25-0.75  c1.168,1.42,0.838,0.819,0,1.5c1,0,1,0,0,0c5.352,2.145,2.235,0.292,7.5,2.25C391.444,355.457,397.91,356.981,399.223,357.148z"/>
<path fill-rule="evenodd" clip-rule="evenodd" fill="#CB97C4" d="M390.223,350.398C392.223,351.398,392.223,351.398,390.223,350.398  L390.223,350.398z"/>
<path fill-rule="evenodd" clip-rule="evenodd" fill="#CB97C4" d="M393.973,357.898c-0.001,0.088-4.704,0.2,4.5,0.75  c-2.25,0.014-4.5-0.01-6.75,0c2.065,0.491,4.627,0.402,6.75,0.75c-0.473,0.636-5.957-0.033-6.75,0  c3.716,0.775,7.521,0.933,11.25,1.5c-2.047-1.098-3.797-0.039-6-0.75c1,0,1,0,0,0c0.501-0.597,3.669,0.163,4.5,0  c0.112-0.835-0.138-1.585-0.75-2.25c-6.022-0.789-7.623-1.038-13.5-1.5C388.911,357.608,390.257,357.121,393.973,357.898z"/>
<path fill-rule="evenodd" clip-rule="evenodd" fill="#CB97C4" d="M391.723,356.398C396.579,357.775,392.903,356.732,391.723,356.398  L391.723,356.398z"/>
<path fill-rule="evenodd" clip-rule="evenodd" fill="#CB97C4" d="M401.473,357.898C398.473,357.898,398.473,357.898,401.473,357.898  L401.473,357.898z"/>
<path fill-rule="evenodd" clip-rule="evenodd" fill="#CB97C4" d="M391.723,359.398C392.392,359.832,394.699,361.329,391.723,359.398  L391.723,359.398z"/>
<path fill-rule="evenodd" clip-rule="evenodd" fill="#CB97C4" d="M402.973,361.648c-0.357-0.047-5.173-1.184-8.25-0.75  C399.913,361.283,398.356,361.044,402.973,361.648z"/>
<path fill-rule="evenodd" clip-rule="evenodd" fill="#CB97C4" d="M393.223,363.148c2.031-1.62-1.596,0.691-2.25,0.75  c3.766,0.525,1.829,0.316,6,0.75c-2,0.25-4,0.5-6,0.75c2.75-0.25,5.5-0.5,8.25-0.75c-2.528,0.579-3.028,0.829-1.5,0.75  c-3.725,1.434-2.43,0.925-6.75,2.25c4.64-0.019,2.048,0.814,0.75,1.5c2.106-0.385,4.636-1.253,6.75-1.5  c-3.323,1.342-2.129,0.95,0,0.75c-0.924,0.443-3.446,0.647-4.5,0.75c2.584,0.9-0.223,0.933-2.25,1.5  c7.013-0.898,3.623-0.25,11.25-2.25c-6.585-2.794-0.582-0.812-0.75-2.25c-1.421,0.737-2.921,0.987-4.5,0.75  c1.25-0.25,2.5-0.5,3.75-0.75c-1.25,0.25-2.5,0.5-3.75,0.75c1.75-0.5,3.5-1,5.25-1.5c-6.333-2.272-2.068,0.021-2.25-2.25  c-0.102-0.084-5.31-0.443-6-0.75c3,0,3,0,0,0c0.558-0.099,6.589-0.811,6-0.75c-1.201,0.039-5.721-0.166-0.75,0  C390.693,362.292,390.896,365.778,393.223,363.148z"/>
<path fill-rule="evenodd" clip-rule="evenodd" fill="#CB97C4" d="M401.473,362.398C400.473,362.398,400.473,362.398,401.473,362.398  L401.473,362.398z"/>
<path fill-rule="evenodd" clip-rule="evenodd" fill="#CB97C4" d="M396.973,370.648L396.973,370.648z"/>
<path fill-rule="evenodd" clip-rule="evenodd" fill="#CB97C4" d="M399.973,361.648L399.973,361.648z"/>
<path fill-rule="evenodd" clip-rule="evenodd" fill="#CB97C4" d="M392.473,361.648C394.473,361.648,394.473,361.648,392.473,361.648  L392.473,361.648z"/>
<path fill-rule="evenodd" clip-rule="evenodd" fill="#CB97C4" d="M393.223,372.898C395.223,371.898,395.223,371.898,393.223,372.898  L393.223,372.898z"/>
<path fill-rule="evenodd" clip-rule="evenodd" fill="#CB97C4" d="M393.223,376.648L393.223,376.648z"/>
<path fill-rule="evenodd" clip-rule="evenodd" fill="#CB97C4" d="M399.973,384.148c5.919-1.338,2.06,1.407,8.25-2.25  c-2.27,0.004-1.059,1.212,2.25-1.5c-1.211,0.367-4.098,1.461-5.25,1.5c2.653-2.656,1.108-0.409-2.25,0c1.5-0.5,3-1,4.5-1.5  c-1,0-2,0-3,0c3.389-3.666,2.097,1.141,0-0.75c1-0.5,2-1,3-1.5c-4.44,0.05-1.84,1.042-1.5,0c-1.288-0.061-2.538,0.189-3.75,0.75  c0.22-0.123,2.833-1.284,2.25-1.5c-3.69-0.031,1.464,1.387,0,0c-1.671-0.224-3.171,0.276-4.5,1.5  c-0.987-0.241,5.323-2.279,5.25-2.25c-3.526,0.843-6.989,1.48-10.5,2.25c3.097-1.028,5.824-1.505,9-2.25  c-0.677-1.03-1.677-1.28-3-0.75c0.947-0.579,1.947-0.829,3-0.75c-0.309-0.14-3.728-0.058-3.75,0c1.053,0.079,2.053-0.171,3-0.75  c-1.707,0.354-1.957,0.104-0.75-0.75c-1.288-0.061-2.538,0.189-3.75,0.75c4.469-0.024-1.762-0.363-5.25,0  c3.844-0.317,4.982-0.707,9.75-1.5c-0.8-0.679-7.451,1.066,0-0.75c-1.665-0.447-3.165-0.197-4.5,0.75c-0.868-1.17,4.808-0.392,3-3  c-2.943,0.704-6.723,1.845-9.75,2.25c2.25-0.25,4.5-0.5,6.75-0.75c-1.25,0.25-2.5,0.5-3.75,0.75c2-0.25,4-0.5,6-0.75  c-2.605,0.597-5.575,1.028-8.25,1.5c3.258-0.182,3.008,0.068-0.75,0.75c1.707-0.354,1.957-0.104,0.75,0.75  c1.053,0.079,2.053-0.171,3-0.75c-1.25,0.5-2.5,1-3.75,1.5c1.75-0.25,3.5-0.5,5.25-0.75c-2.017,0.147-3.767,0.897-5.25,2.25  c1.629,0.054,2.874-0.934,4.5-0.75c-0.616,0.59-2.882,0.889-3.75,1.5c3.853-0.75-0.146-0.253-0.75,0  c4.882-0.635,2.571-0.115,8.25-1.5c-3.514,1.825-3.706,1.617-2.25,1.5c-1.5,0.5-3,1-4.5,1.5c0.118,1.415,8.156-2.439,0,0.75  c2.849-0.288,1.075-1.589,3.75-0.75c-0.724,0.947-1.724,1.447-3,1.5c6.206-0.58,1.171,0.023,8.25-1.5  c0.018,0.955-3.795,2.209-3.75,2.25c2.516-0.121,2.016,0.129-1.5,0.75c2.384-0.53,2.884-0.28,1.5,0.75c2.428-1.032,4.3-2.08,6.75-3  c-0.472,0.283-2.479,1.614-0.75,1.5c-1.75,0.5-3.5,1-5.25,1.5C400.206,382.903,402.342,382.073,399.973,384.148z"/>
<path fill-rule="evenodd" clip-rule="evenodd" fill="#CB97C4" d="M398.473,380.398C393.755,383.815,397.377,381.192,398.473,380.398  L398.473,380.398z"/>
<path fill-rule="evenodd" clip-rule="evenodd" fill="#CB97C4" d="M397.723,381.148C400.699,379.217,398.392,380.714,397.723,381.148  L397.723,381.148z"/>
<path fill-rule="evenodd" clip-rule="evenodd" fill="#CB97C4" d="M400.723,384.898C401.723,384.898,401.723,384.898,400.723,384.898  L400.723,384.898z"/>
<path fill-rule="evenodd" clip-rule="evenodd" fill="#CB97C4" d="M402.223,384.148C403.223,384.148,403.223,384.148,402.223,384.148  L402.223,384.148z"/>
<path fill-rule="evenodd" clip-rule="evenodd" fill="#CB97C4" d="M408.973,388.648c5.955-2.837-2.74,1.479,6.002-2.25  c-1.685-1.352-1.604-0.277-4.502-1.5c2.737-1.03,2.987-1.03,0.75,0c-1.509-0.358,6.777-0.486-2.25,0c1.25-0.5,2.5-1,3.75-1.5  c-2.457-0.387-3.911,1.625-1.5,0c-4.453-0.34,0.014-0.19-3,0.75c0.323-0.677,0.823-0.927,1.5-0.75  c-1.928-1.204-1.166,1.364,0.75-1.5c-1.822,0.638-4.91,1.756-6.75,2.25c0.015,0.074,4.553-0.617,3.75-0.75  c-3.139,2.509-3.772,1.597-6,3.75c2.507-1.115,4.852-2.19,7.5-3c-1,0-1,0,0,0c-6.203,2.822,1.163-0.363-6,3c1.5-0.5,3-1,4.5-1.5  c-0.921,0.263-1.671,0.763-2.25,1.5c3.745-1.018,3.995-1.018,0.75,0c7.502-1.062-0.799-0.448,1.5,0.75  c4.075-1.349,2.186,0.169,1.5,0C415.673,385.623,411.835,386.152,408.973,388.648z"/>
<path fill-rule="evenodd" clip-rule="evenodd" fill="#CB97C4" d="M414.225,387.898C405.095,387.484,419.482,388.136,414.225,387.898  L414.225,387.898z"/>
<path fill-rule="evenodd" clip-rule="evenodd" fill="#CB97C4" d="M415.725,389.398c0.599,0.273,4.727-3.244-2.25-0.75  c6.811-0.42-3.465,1.205,0.75-0.75c-1.052,1.12-1.542,1.083-3.002,2.25c1.74-0.708,2.56-2.211,4.502-2.25  c-1.061,0.974-3.972,1.51-4.502,3c1.623-0.313,3.225-2.034,4.502-2.25c-1.264,1.329-2.944,1.392-4.502,2.25  c6.587-0.438-0.227,1.005,6.752-1.5c-1.525,0.368-2.775,1.118-3.75,2.25C421.678,387.727,420.17,390.189,415.725,389.398z"/>
<path fill-rule="evenodd" clip-rule="evenodd" fill="#CB97C4" d="M418.725,387.898C417.725,388.898,417.725,388.898,418.725,387.898  L418.725,387.898z"/>
<path fill-rule="evenodd" clip-rule="evenodd" fill="#904098" stroke="#000000" stroke-width="2" stroke-linecap="square" stroke-miterlimit="10" d="  M564.975,263.398c4.291,3.821,6.791,11.492,9.75,16.5c-25.985,15.194-51.972,30.388-77.957,45.582  c-16.728,9.781-61.301,52.26-69.043,18.168C473.475,316.898,519.225,290.148,564.975,263.398z"/>
<path fill-rule="evenodd" clip-rule="evenodd" fill="#CB97C4" stroke="#000000" stroke-width="2" stroke-linecap="square" stroke-miterlimit="10" d="  M435.225,360.148c-6.863,2.616-15.379,4.132-24.002,6.75c0.86-7.648,8.503-16.645,15.002-21.75  C429.101,349.941,433.397,354.896,435.225,360.148z"/>
<path fill-rule="evenodd" clip-rule="evenodd" fill="#CB97C4" stroke="#000000" stroke-width="2" stroke-linecap="square" stroke-miterlimit="10" d="  M575.475,276.898c-1.056-3.165,0.368-9.341-5.25-14.25c-1.25,0.75-2.5,1.5-3.75,2.25  C569.457,268.875,572.805,272.709,575.475,276.898z"/>
<line fill="none" stroke="#000000" stroke-width="2" stroke-linecap="square" stroke-miterlimit="10" x1="429.975" y1="360.898" x2="423.225" y2="348.898"/>
<path fill-rule="evenodd" clip-rule="evenodd" fill="#CB97C4" stroke="#000000" stroke-width="2" stroke-linecap="square" stroke-miterlimit="10" d="  M478.725,335.398c-1.646-23.086,38.763-47.965,59.25-34.5C518.225,312.398,498.475,323.898,478.725,335.398z"/>
</svg>