<svg xmlns="http://www.w3.org/2000/svg" xmlns:xlink="http://www.w3.org/1999/xlink" version="1.1" id="Layer_1" x="0px" y="0px" enable-background="new 0 0 822.05 841.89" xml:space="preserve" viewBox="206.22 315.04 408.38 212.25">
<path fill-rule="evenodd" clip-rule="evenodd" fill="#BCBEC0" stroke="#010101" stroke-width="2" stroke-linecap="square" stroke-miterlimit="10" d="  M500.924,419.38c-22.07,0-44.142,0-66.212,0c-15.936,0-27.714-22.424-14.788-37.5c5.653-6.593,56.792,0,66.212,0  C509.759,381.88,500.924,397.886,500.924,419.38z"/>
<path fill-rule="evenodd" clip-rule="evenodd" fill="#BCBEC0" stroke="#010101" stroke-width="2" stroke-linecap="square" stroke-miterlimit="10" d="  M305.174,525.882c20.229-10.789,89.85-33.457,90.091-56.839c0.469-45.555,0.939-91.109,1.409-136.663  c-19.85,8.806-100.477,31.098-99.293,52.518C299.979,431.893,302.576,478.887,305.174,525.882z"/>
<path fill-rule="evenodd" clip-rule="evenodd" fill="#BCBEC0" stroke="#010101" stroke-width="2" stroke-linecap="square" stroke-miterlimit="10" d="  M506.174,525.882c20.463-10.647,92.1-33.378,92.341-56.839c0.47-45.555,0.939-91.109,1.409-136.663  c-19.972,8.859-100.286,30.919-99.418,52.518C502.396,431.893,504.284,478.887,506.174,525.882z"/>
<path fill-rule="evenodd" clip-rule="evenodd" fill="#BCBEC0" stroke="#010101" stroke-width="2" stroke-linecap="square" stroke-miterlimit="10" d="  M515.924,356.38c-102.5,0-205,0-307.5,0c30.088-12.083,63.508-32.174,95.25-38.25c24.563-4.702,54.639,0,79.528,0  c75.741,0,151.482,0,227.222,0C578.924,330.88,547.424,343.63,515.924,356.38z"/>
<path fill-rule="evenodd" clip-rule="evenodd" fill="#BCBEC0" stroke="#010101" stroke-width="2" stroke-linecap="square" stroke-miterlimit="10" d="  M303.674,525.882c-20.741,0-41.481,0-62.222,0c-23.327,0-21.778,2.67-21.778-20.003c0-29.659,0-59.318,0-88.977  c0-8.684-6.061-49.399,0-56.022c5.816-6.356,53.184,0,62.222,0c23.327,0,21.778-2.67,21.778,20.003  C303.674,429.216,303.674,477.549,303.674,525.882z"/>
<path fill-rule="evenodd" clip-rule="evenodd" fill="#72441B" stroke="#010101" stroke-width="2" stroke-linecap="square" stroke-miterlimit="10" d="  M504.674,525.882c-9.52,0-84,1.592-84-1.509c0-17.72-11.173-90.454,0-101.991c5.822-6.012,84,2.654,84,1.509  C504.674,457.888,504.674,491.885,504.674,525.882z"/>
<path fill-rule="evenodd" clip-rule="evenodd" fill="#BCBEC0" stroke="#010101" stroke-width="2" stroke-linecap="square" stroke-miterlimit="10" d="  M515.924,381.13c-58.549,0-117.099,0-175.648,0c-34.211,0-68.422,0-102.633,0c-9.064,0-18.129,0-27.194,0  c-3.519,0-4.118-21.067-2.025-23.25c5.185-5.408,45.1,0,52.229,0c41.14,0,82.279,0,123.418,0c34.21,0,68.421,0,102.632,0  C507.759,357.88,523.69,352.091,515.924,381.13z"/>
<path fill-rule="evenodd" clip-rule="evenodd" fill="#72441B" d="M215.924,426.132c27,0,54,0,81,0  C269.924,426.132,242.924,426.132,215.924,426.132z"/>
<line fill="none" stroke="#010101" stroke-width="2" stroke-linecap="square" stroke-miterlimit="10" x1="218.924" y1="426.132" x2="299.924" y2="426.132"/>
<path fill-rule="evenodd" clip-rule="evenodd" fill="#72441B" d="M420.674,419.38c27.5,0,55,0,82.5,0  C475.674,419.38,448.174,419.38,420.674,419.38z"/>
<line fill="none" stroke="#010101" stroke-width="2" stroke-linecap="square" stroke-miterlimit="10" x1="420.674" y1="419.38" x2="503.174" y2="419.38"/>
<path fill-rule="evenodd" clip-rule="evenodd" fill="#010101" stroke="#010101" stroke-width="2" stroke-linecap="square" stroke-miterlimit="10" d="  M491.924,504.882c-7.472,0-57,2.166-57-1.953c0-10.52-6.933-61.746,0-67.797c4.855-4.238,57,0.767,57,1.953  C491.924,459.684,491.924,482.284,491.924,504.882z"/>
<path fill-rule="evenodd" clip-rule="evenodd" fill="#72441B" d="M494.924,479.382c-8.292,0-90.417,6.712-68.25-17.25  C435.924,452.132,502.272,452.75,494.924,479.382z"/>
<path fill-rule="evenodd" clip-rule="evenodd" fill="#010101" stroke="#010101" stroke-width="2" stroke-linecap="square" stroke-miterlimit="10" d="  M266.924,402.13C252.521,413.002,254.538,389.651,266.924,402.13L266.924,402.13z"/>
<path fill-rule="evenodd" clip-rule="evenodd" fill="#010101" stroke="#010101" stroke-width="2" stroke-linecap="square" stroke-miterlimit="10" d="  M471.674,399.13C457.78,409.819,457.955,387.04,471.674,399.13L471.674,399.13z"/>
<path fill-rule="evenodd" clip-rule="evenodd" fill="#010101" stroke="#010101" stroke-width="2" stroke-linecap="square" stroke-miterlimit="10" d="  M292.424,474.882C280.458,485.152,280.618,465.603,292.424,474.882L292.424,474.882z"/>
<path fill-rule="evenodd" clip-rule="evenodd" fill="#BCBEC0" stroke="#010101" stroke-width="2" stroke-linecap="square" stroke-miterlimit="10" d="  M515.924,381.13c27.025-11.313,107.133-25.008,96.75-63C584.933,329.528,505.414,342.167,515.924,381.13z"/>
<path fill-rule="evenodd" clip-rule="evenodd" fill="#ED1C24" stroke="#000000" stroke-width="2" stroke-linecap="square" stroke-miterlimit="10" d="  M539.174,389.38c4.436,3.117,7.749,9.299,11.25,13.5c-17.133,9.611-40.064,14.111-25.5,37.502c-13.5-1.25-27-2.5-40.5-3.75  c5.75-13.001,11.5-26.001,17.25-39.002C512.626,419.415,526.285,399.323,539.174,389.38z"/>
</svg>