<svg xmlns="http://www.w3.org/2000/svg" xmlns:xlink="http://www.w3.org/1999/xlink" version="1.1" id="Layer_1" x="0px" y="0px" enable-background="new 0 0 822.05 841.89" xml:space="preserve" viewBox="307.37 342.68 203.66 159.49">
<path fill-rule="evenodd" clip-rule="evenodd" fill="#ECD5B7" stroke="#000000" stroke-width="1.25" stroke-linecap="square" stroke-miterlimit="10" d="  M431.752,395.77C411.453,420.764,426.646,363.782,431.752,395.77L431.752,395.77z"/>
<path fill-rule="evenodd" clip-rule="evenodd" fill="#ECD5B7" stroke="#000000" stroke-width="1.25" stroke-linecap="square" stroke-miterlimit="10" d="  M358.248,392.77C345.951,420.014,341.493,367.115,358.248,392.77L358.248,392.77z"/>
<path fill-rule="evenodd" clip-rule="evenodd" fill="#EED5B6" stroke="#000000" stroke-width="1.25" stroke-linecap="square" stroke-miterlimit="10" d="  M352.248,433.27c11.518-1.013,21.318-6.482,24.75-17.25c0.58,11.957,44.218-2.297,34.279,34.961  c-5.814,21.797-9.843,37.962-38.779,28.789C349.254,472.402,341.186,452.917,352.248,433.27z"/>
<path fill-rule="evenodd" clip-rule="evenodd" fill="#EED5B6" stroke="#000000" stroke-width="1.25" stroke-linecap="square" stroke-miterlimit="10" d="  M355.248,377.77c-9.169,42.738,47.241,79.121,66.004,30.75C443.631,350.828,367.029,311.824,355.248,377.77z"/>
<path fill-rule="evenodd" clip-rule="evenodd" fill="#137827" stroke="#000000" stroke-width="1.25" stroke-linecap="square" stroke-miterlimit="10" d="  M434.002,466.27c39.385,6.85,35.898,3.257,54-32.25c-21.484-4.192-41.438-14.122-60-8.25c-14.768,4.672-30.532,31.104-48.004,18  c-46.234-34.676-65.646,11.597-72,57c17.411,0,38.098,6.588,31.5-18.75c-2.694,5.346-2.807,13.529-3.75,19.5  c34.501,0,69.002,0,103.504,0C437.502,489.77,435.752,478.02,434.002,466.27z"/>
<path fill-rule="evenodd" clip-rule="evenodd" fill="#62361E" stroke="#000000" stroke-width="1.25" stroke-linecap="square" stroke-miterlimit="10" d="  M403.248,410.02C383.333,440.882,375.593,387.391,403.248,410.02L403.248,410.02z"/>
<path fill-rule="evenodd" clip-rule="evenodd" stroke="#000000" stroke-width="1.25" stroke-linecap="square" stroke-miterlimit="10" d="  M507.502,447.52c-8.874-3.315-16.593-6.432-24-3c5.004,1.35,10.133,2.723,15,4.5c-16.259-2.592-33.241-4.991-48.75-9.75  c-0.742,1.939-0.992,3.939-0.75,6C459.888,447.007,524.765,460.622,507.502,447.52z"/>
<path fill-rule="evenodd" clip-rule="evenodd" fill="#D9F3FC" d="M409.248,437.77c24.562-3.812,14.826-18.577-5.25-18.75  C405.66,424.955,406.307,432.4,409.248,437.77z"/>
<path fill="none" stroke="#000000" stroke-width="1.25" stroke-linecap="square" stroke-miterlimit="10" d="M409.248,437.77  c24.562-3.812,14.826-18.577-5.25-18.75"/>
<path fill-rule="evenodd" clip-rule="evenodd" fill="#D9F3FC" stroke="#000000" stroke-width="1.25" stroke-linecap="square" stroke-miterlimit="10" d="  M411.498,440.77c-9.5,1-19,2-28.5,3C378.518,398.968,407.177,397.562,411.498,440.77z"/>
<path fill-rule="evenodd" clip-rule="evenodd" fill="#D9F3FC" stroke="#000000" stroke-width="1.25" stroke-linecap="square" stroke-miterlimit="10" d="  M411.498,438.52C386.715,472.206,376.876,411.735,411.498,438.52L411.498,438.52z"/>
<path fill-rule="evenodd" clip-rule="evenodd" fill="#EED5B6" stroke="#000000" stroke-width="1.25" stroke-linecap="square" stroke-miterlimit="10" d="  M454.252,444.52c-11.74,4.075-57.628-13.349-46.504-29.25C418.545,399.837,453.008,431.772,454.252,444.52z"/>
<path fill-rule="evenodd" clip-rule="evenodd" d="M381.498,386.02c-1.814,0.18-0.878,4.531-5.25,2.25  C375.65,380.991,378.796,386.288,381.498,386.02z"/>
<path fill-rule="evenodd" clip-rule="evenodd" d="M401.748,386.77c-2.121,0-2.608,6.25-5.25,0  C399.14,380.521,399.627,386.77,401.748,386.77z"/>
<path fill="none" stroke="#000000" stroke-width="0.75" stroke-linecap="square" stroke-miterlimit="10" d="M384.498,396.52  c2.269,2.444,4.854,2.742,7.5,0.75"/>
<path fill="none" stroke="#000000" stroke-width="0.75" stroke-linecap="square" stroke-miterlimit="10" d="M370.248,383.02  c5.127-4.115,10.388-3.986,15,0.75"/>
<path fill="none" stroke="#000000" stroke-width="0.75" stroke-linecap="square" stroke-miterlimit="10" d="M408.498,383.77  c-5.136-3.248-10.515-3.077-15,0.75"/>
<path fill-rule="evenodd" clip-rule="evenodd" fill="#D9F3FC" stroke="#000000" stroke-width="1.25" stroke-linecap="square" stroke-miterlimit="10" d="  M376.998,416.02C353.835,426.708,371.676,440.433,376.998,416.02L376.998,416.02z"/>
</svg>