<svg xmlns="http://www.w3.org/2000/svg" xmlns:xlink="http://www.w3.org/1999/xlink" version="1.1" id="Layer_1" x="0px" y="0px" enable-background="new 0 0 822.05 841.89" xml:space="preserve" viewBox="314.92 339.3 191.33 165.03">
<path fill-rule="evenodd" clip-rule="evenodd" stroke="#000000" stroke-width="1.25" stroke-linecap="square" stroke-miterlimit="10" d="  M408.875,405.769c6.691,7.17,14.817,13.222,23.25,18.002C423.698,422.76,410.237,410.464,408.875,405.769z"/>
<path fill-rule="evenodd" clip-rule="evenodd" d="M427.625,423.019c-8.25,9.501-16.5,19.001-24.75,28.502  C410.111,446.052,430.699,427.781,427.625,423.019z"/>
<path fill="none" stroke="#000000" stroke-width="1.25" stroke-linecap="square" stroke-miterlimit="10" d="M427.625,423.019  c-8.25,9.501-16.5,19.001-24.75,28.502C410.111,446.052,430.699,427.781,427.625,423.019"/>
<path fill-rule="evenodd" clip-rule="evenodd" fill="#200F75" stroke="#000000" stroke-width="1.25" stroke-linecap="square" stroke-miterlimit="10" d="  M405.875,447.771c5.351,1.361,37.457,17.11,21.75,20.25C417.301,470.084,394.637,455.302,405.875,447.771z"/>
<path fill-rule="evenodd" clip-rule="evenodd" fill="#B5B5B1" stroke="#000000" stroke-width="1.25" stroke-linecap="square" stroke-miterlimit="10" d="  M430.625,414.769c-2.909-7.135-2.909-25.115,0-32.25C430.625,393.269,430.625,404.019,430.625,414.769z"/>
<path fill-rule="evenodd" clip-rule="evenodd" fill="#B5B5B1" stroke="#000000" stroke-width="1.25" stroke-linecap="square" stroke-miterlimit="10" d="  M395.375,432.771c-6.242-8.165-3.75-29.16-3.75-43.502c1.25,0,2.5,0,3.75,0C395.375,403.77,395.375,418.271,395.375,432.771z"/>
<path fill-rule="evenodd" clip-rule="evenodd" fill="#B10C0E" stroke="#000000" stroke-width="1.25" stroke-linecap="square" stroke-miterlimit="10" d="  M414.127,375.019c-1.441,6.522,1.051,15.783,1.498,22.5c11.75-1.25,23.5-2.5,35.25-3.75  C456.081,367.255,431.709,366.164,414.127,375.019z"/>
<path fill-rule="evenodd" clip-rule="evenodd" fill="#B5B5B1" stroke="#000000" stroke-width="1.25" stroke-linecap="square" stroke-miterlimit="10" d="  M450.875,393.769c-9.782,6.278-24.795,7.709-35.998,4.5C425.02,392.298,440.062,389.586,450.875,393.769z"/>
<path fill-rule="evenodd" clip-rule="evenodd" fill="#B5B5B1" stroke="#000000" stroke-width="1.25" stroke-linecap="square" stroke-miterlimit="10" d="  M430.625,372.019c6.91,0.856,12.186-0.432,18.75,2.25c-8.271-7.594-26.859-5.968-36.748,1.5  C417.391,374.087,424.708,373.381,430.625,372.019z"/>
<path fill-rule="evenodd" clip-rule="evenodd" fill="#B5B5B1" stroke="#000000" stroke-width="1.25" stroke-linecap="square" stroke-miterlimit="10" d="  M479.375,486.771c-9.205-25.892-9.205-103.11,0-129.002C479.375,400.77,479.375,443.77,479.375,486.771z"/>
<path fill-rule="evenodd" clip-rule="evenodd" fill="#B5B5B1" stroke="#000000" stroke-width="1.25" stroke-linecap="square" stroke-miterlimit="10" d="  M480.875,362.269c-2.027-2.447-6.415,2.001-4.5-5.25C483.322,355.491,478.52,359.426,480.875,362.269z"/>
<path fill-rule="evenodd" clip-rule="evenodd" fill="#B5B5B1" stroke="#000000" stroke-width="1.25" stroke-linecap="square" stroke-miterlimit="10" d="  M480.875,399.019c-2.027-2.447-6.415,2.001-4.5-5.25C483.322,392.241,478.52,396.176,480.875,399.019z"/>
<path fill-rule="evenodd" clip-rule="evenodd" fill="#B5B5B1" stroke="#000000" stroke-width="1.25" stroke-linecap="square" stroke-miterlimit="10" d="  M474.125,452.271c-20.649-0.199,8.959,24.872,17.25,30.75C484.151,472.657,476.31,463.779,474.125,452.271z"/>
<path fill-rule="evenodd" clip-rule="evenodd" stroke="#000000" stroke-width="1.25" stroke-linecap="square" stroke-miterlimit="10" d="  M492.875,483.021c-1.353,1.111,1.362,5.247-3.75,3C487.242,480.106,491.351,484.274,492.875,483.021z"/>
<path fill-rule="evenodd" clip-rule="evenodd" fill="#B10C0E" stroke="#000000" stroke-width="1.25" stroke-linecap="square" stroke-miterlimit="10" d="  M402.125,468.771c-10.713-9.743-15.163-25.866-10.5-39.75c11.044-32.887,42.74-23.371,67.5-15.752  c-11.75,22.751-23.5,45.501-35.25,68.252C416.758,477.349,408.715,473.719,402.125,468.771z"/>
<path fill-rule="evenodd" clip-rule="evenodd" fill="#F7DE58" stroke="#000000" stroke-width="1.25" stroke-linecap="square" stroke-miterlimit="10" d="  M394.625,353.269c-8.313,9.951-68.25,18.976-68.25,0S386.312,343.318,394.625,353.269z"/>
<path fill-rule="evenodd" clip-rule="evenodd" fill="#F7DE58" stroke="#000000" stroke-width="1.25" stroke-linecap="square" stroke-miterlimit="10" d="  M369.875,353.269c-3.907,0.216-8.49,2.554-13.5,0C361.056,351.445,366.179,353.093,369.875,353.269z"/>
<path fill-rule="evenodd" clip-rule="evenodd" fill="#B5B5B1" stroke="#000000" stroke-width="1.25" stroke-linecap="square" stroke-miterlimit="10" d="  M386.375,471.771c-8.461-10.879-19.229-27.394-28.5-32.25c24.701,19.026,2.054,41.863-19.5,21.75c3.619-4.097,7.472-9.752,12-12.75  c-8.83,2.751-26.097,22.612-28.5,31.5c15.911-34.613,35.141,12.663,51.75-21C375.935,464.073,386.212,471.503,386.375,471.771z"/>
<path fill-rule="evenodd" clip-rule="evenodd" fill="#B10C0E" stroke="#000000" stroke-width="1.25" stroke-linecap="square" stroke-miterlimit="10" d="  M369.125,374.269c0.5,11.25,1,22.5,1.5,33.75c7.207-0.87,39.72-0.103,43.502-5.25c3.396-4.623-1.912-29.885-6.002-33  C398.112,362.144,377.972,368.369,369.125,374.269z"/>
<path fill-rule="evenodd" clip-rule="evenodd" fill="#B5B5B1" stroke="#000000" stroke-width="1.25" stroke-linecap="square" stroke-miterlimit="10" d="  M414.127,402.019c-4.639,3.875-42.868,17.616-43.502,6.75C369.954,397.277,408.264,398.982,414.127,402.019z"/>
<path fill-rule="evenodd" clip-rule="evenodd" fill="#B5B5B1" stroke="#000000" stroke-width="1.25" stroke-linecap="square" stroke-miterlimit="10" d="  M389.375,369.019c8.227,1.373,15.002-0.07,22.5,3.75c-6.63-12.436-37.889-8.173-43.5,3.75  C375.197,371.798,381.935,371.995,389.375,369.019z"/>
<path fill-rule="evenodd" clip-rule="evenodd" fill="#B10C0E" stroke="#000000" stroke-width="1.25" stroke-linecap="square" stroke-miterlimit="10" d="  M380.375,447.771c-7.107,0-38.45,4.554-42.75,0c-2.349-2.487-2.349-45.514,0-48.002c1.82-1.928,40.93-1.928,42.75,0  C385.694,405.402,380.375,439.214,380.375,447.771z"/>
<path fill-rule="evenodd" clip-rule="evenodd" fill="#B5B5B1" stroke="#000000" stroke-width="1.25" stroke-linecap="square" stroke-miterlimit="10" d="  M483.875,457.521c-4.729,51.214-76.166,41.86-69.748-9C420.581,397.371,490.508,406.447,483.875,457.521z"/>
<path fill-rule="evenodd" clip-rule="evenodd" fill="#282828" stroke="#000000" stroke-width="1.25" stroke-linecap="square" stroke-miterlimit="10" d="  M481.625,456.021c6.513-49.792-58.406-56.491-65.25-7.5C409.313,499.069,477.563,505.712,481.625,456.021z"/>
<path fill-rule="evenodd" clip-rule="evenodd" fill="#B5B5B1" stroke="#000000" stroke-width="1.25" stroke-linecap="square" stroke-miterlimit="10" d="  M412.627,465.771c-16.894-12.471-8.012,27.092-4.502,34.5C408.44,487.66,407.114,476.149,412.627,465.771z"/>
<path fill-rule="evenodd" clip-rule="evenodd" fill="#FFFFFF" stroke="#000000" stroke-width="1.25" stroke-linecap="square" stroke-miterlimit="10" d="  M381.875,399.019c-13.056,4.887-31.714,4.785-45,0C350.161,394.234,368.819,394.132,381.875,399.019z"/>
<path fill-rule="evenodd" clip-rule="evenodd" fill="#B5B5B1" stroke="#000000" stroke-width="1.25" stroke-linecap="square" stroke-miterlimit="10" d="  M380.375,446.271c-14.979,1.776-30.349,0.79-45,0.75C348.297,451.611,373.75,451.691,380.375,446.271z"/>
<path fill-rule="evenodd" clip-rule="evenodd" fill="#F7DE58" stroke="#000000" stroke-width="1.25" stroke-linecap="square" stroke-miterlimit="10" d="  M505.625,342.019c-5.043,6.251-48.544,25.291-51.75,11.25C450.683,339.288,497.997,337.756,505.625,342.019z"/>
<path fill-rule="evenodd" clip-rule="evenodd" fill="#B5B5B1" stroke="#000000" stroke-width="1.25" stroke-linecap="square" stroke-miterlimit="10" d="  M363.875,363.769c0.409-2.973-0.231-9.493-0.75-11.25c0.18,14.801-13.036,27.092-15.75,39.75  C352.875,382.769,358.375,373.269,363.875,363.769z"/>
<path fill-rule="evenodd" clip-rule="evenodd" fill="#F7DE58" stroke="#000000" stroke-width="1.25" stroke-linecap="square" stroke-miterlimit="10" d="  M483.125,346.519c-4.687,1.342-8.697,4.734-13.5,2.25C474.214,346.319,479.137,347.209,483.125,346.519z"/>
<path fill-rule="evenodd" clip-rule="evenodd" stroke="#000000" stroke-width="1.25" stroke-linecap="square" stroke-miterlimit="10" d="  M316.625,480.771c1.221,0.955-3.544,4.126,0.75,6C326.445,476.927,318.583,482.303,316.625,480.771z"/>
<path fill-rule="evenodd" clip-rule="evenodd" stroke="#000000" stroke-width="1.25" stroke-linecap="square" stroke-miterlimit="10" d="  M384.875,474.021C387.09,471.506,388.415,470.003,384.875,474.021L384.875,474.021z"/>
<path fill-rule="evenodd" clip-rule="evenodd" stroke="#000000" stroke-width="1.25" stroke-linecap="square" stroke-miterlimit="10" d="  M409.625,501.771c-2.036,0-2.787,4.354-5.25,0C406.838,497.417,407.589,501.771,409.625,501.771z"/>
<path fill-rule="evenodd" clip-rule="evenodd" fill="#B5B5B1" stroke="#000000" stroke-width="1.25" stroke-linecap="square" stroke-miterlimit="10" d="  M434.375,405.769c-36.251-3.708-55.676,41.517-29.25,65.252C371.855,450.179,395.646,394.544,434.375,405.769z"/>
<path fill-rule="evenodd" clip-rule="evenodd" fill="#B5B5B1" stroke="#000000" stroke-width="1.25" stroke-linecap="square" stroke-miterlimit="10" d="  M485.375,366.019c-2.579-3.737-8.92-13.24-9-18.75C479.372,353.513,482.566,359.688,485.375,366.019z"/>
<path fill-rule="evenodd" clip-rule="evenodd" fill="#B5B5B1" stroke="#000000" stroke-width="1.25" stroke-linecap="square" stroke-miterlimit="10" d="  M360.125,476.271c-13.301-14.642-3.75-76.339-3.75-100.502c1.25,0,2.5,0,3.75,0C360.125,409.27,360.125,442.77,360.125,476.271z"/>
<path fill-rule="evenodd" clip-rule="evenodd" fill="#B5B5B1" stroke="#000000" stroke-width="1.25" stroke-linecap="square" stroke-miterlimit="10" d="  M361.625,377.269c-2.25,0-4.5,0-6.75,0c0-1.75,0-3.5,0-5.25C363.768,369.582,358.692,375.111,361.625,377.269z"/>
</svg>