<svg xmlns="http://www.w3.org/2000/svg" xmlns:xlink="http://www.w3.org/1999/xlink" version="1.1" id="Layer_1" x="0px" y="0px" enable-background="new 0 0 822.05 841.89" xml:space="preserve" viewBox="222.25 276.13 376.5 292.03">
<path fill-rule="evenodd" clip-rule="evenodd" fill="#EAB649" d="M597.75,386.915c-17.013-9.896-46.424,14.38-61.9,22.193  c-52.279,26.396-104.56,52.79-156.84,79.186c-6.967,3.518-140.935,61.852-127.759,77.121  c11.887,13.776,125.833-58.377,134.755-62.871c52.408-26.396,104.815-52.79,157.223-79.186  C558.308,415.763,596.488,406.133,597.75,386.915z"/>
<path fill="none" stroke="#000000" stroke-width="2" stroke-linecap="square" stroke-miterlimit="10" d="M597.75,386.915  c-17.013-9.896-46.424,14.38-61.9,22.193c-52.279,26.396-104.56,52.79-156.84,79.186c-6.967,3.518-140.935,61.852-127.759,77.121  c11.887,13.776,125.833-58.377,134.755-62.871c52.408-26.396,104.815-52.79,157.223-79.186  C558.308,415.763,596.488,406.133,597.75,386.915z"/>
<path fill-rule="evenodd" clip-rule="evenodd" fill="#EAB649" d="M522.75,278.165c-17.48-7.127-42.171,24.463-54.963,35.154  c-45.012,37.616-90.023,75.232-135.036,112.848c-6.44,5.383-121.374,87.797-108.501,103.248  c10.967,13.164,105.802-79.467,111.104-83.897c45.445-37.979,90.891-75.958,136.336-113.936  C485.381,320.14,526.241,298.543,522.75,278.165z"/>
<path fill="none" stroke="#000000" stroke-width="2" stroke-linecap="square" stroke-miterlimit="10" d="M522.75,278.165  c-17.48-7.127-42.171,24.463-54.963,35.154c-45.012,37.616-90.023,75.232-135.036,112.848  c-6.44,5.383-121.374,87.797-108.501,103.248c10.967,13.164,105.802-79.467,111.104-83.897  c45.445-37.979,90.891-75.958,136.336-113.936C485.381,320.14,526.241,298.543,522.75,278.165z"/>
</svg>