<svg xmlns="http://www.w3.org/2000/svg" xmlns:xlink="http://www.w3.org/1999/xlink" version="1.1" id="Layer_1" x="0px" y="0px" enable-background="new 0 0 822.05 841.89" xml:space="preserve" viewBox="315.27 343.6 188.63 157.78">
<path fill-rule="evenodd" clip-rule="evenodd" fill="#F8130D" stroke="#000000" stroke-width="1.25" stroke-linecap="square" stroke-miterlimit="10" d="  M455.4,475.265c-12.824,30.805-133.603,36.75-138.75,0.75C311.431,439.507,443.439,439.097,455.4,475.265z"/>
<path fill-rule="evenodd" clip-rule="evenodd" fill="#F7F619" stroke="#000000" stroke-width="1.25" stroke-linecap="square" stroke-miterlimit="10" d="  M318.9,404.765c0.564,16.364-6.771,60.196,3,72c11.125,13.439,45.594,14.25,61.125,14.25c17.083,0,51.528,3.106,64.125-12  c12.536-15.034,2.848-55.962,3-75.75C406.4,403.765,362.65,404.265,318.9,404.765z"/>
<path fill-rule="evenodd" clip-rule="evenodd" fill="#1D0E82" stroke="#000000" stroke-width="1.25" stroke-linecap="square" stroke-miterlimit="10" d="  M318.9,404.765c5,26,10,52,15,78c5.096-17.444,10.192-34.888,15.288-52.332C355.784,407.855,339.722,411.555,318.9,404.765z"/>
<path fill-rule="evenodd" clip-rule="evenodd" fill="#1D0E82" stroke="#000000" stroke-width="1.25" stroke-linecap="square" stroke-miterlimit="10" d="  M397.65,416.765c-8.5,24.5-17,49-25.5,73.5c-7.5-25.5-15-51-22.5-76.5C365.65,414.765,381.65,415.765,397.65,416.765z"/>
<path fill-rule="evenodd" clip-rule="evenodd" fill="#1D0E82" stroke="#000000" stroke-width="1.25" stroke-linecap="square" stroke-miterlimit="10" d="  M441.15,410.015c-7.25,26.25-14.5,52.5-21.75,78.75c-8.25-23.75-16.5-47.5-24.75-71.25  C410.15,415.015,425.65,412.515,441.15,410.015z"/>
<path fill-rule="evenodd" clip-rule="evenodd" fill="#1D0E82" stroke="#000000" stroke-width="1.25" stroke-linecap="square" stroke-miterlimit="10" d="  M447.15,478.265c1.47-24.98,3.625-49.956,3-75C427.761,411.444,444.862,459.542,447.15,478.265z"/>
<path fill-rule="evenodd" clip-rule="evenodd" fill="#F8130D" stroke="#000000" stroke-width="1.25" stroke-linecap="square" stroke-miterlimit="10" d="  M453.9,401.015c-14.101,23.503-138.594,30.874-138,0C316.506,369.491,439.514,379.113,453.9,401.015z"/>
<path fill-rule="evenodd" clip-rule="evenodd" fill="#9F9E9E" stroke="#000000" stroke-width="1.25" stroke-linecap="square" stroke-miterlimit="10" d="  M445.65,400.265c-11.488,18.545-124.563,24.759-123.75,0C322.765,373.949,432.863,384.784,445.65,400.265z"/>
<path fill-rule="evenodd" clip-rule="evenodd" fill="#F7F619" stroke="#000000" stroke-width="1.25" stroke-linecap="square" stroke-miterlimit="10" d="  M467.4,375.515c-36.896,2.574-75.041,2.463-111.75,6.75c-4.749,0.555-10.155-12.209-17.625-2.25  c-4.073,5.431-1.779,12.469,5.25,13.875c18.2,3.64,54.951-6.759,77.98-7.314c10.861-0.262,48.345,5.392,56.645-1.311  C488.76,376.496,475.753,375.505,467.4,375.515z"/>
<path fill-rule="evenodd" clip-rule="evenodd" fill="#F7F619" stroke="#000000" stroke-width="1.25" stroke-linecap="square" stroke-miterlimit="10" d="  M488.4,347.015c-33.765,14.959-70.314,28.013-102.75,45.75c-2.902,1.587-12.425-7.682-16.5,2.25  c-2.993,7.295,1.662,12.75,9.375,12.75c8.467,0,10.1-10.046,17.695-13.148c17.414-7.113,34.754-14.438,52.312-21.191  c9.166-3.525,49.405-12.058,53.367-21.161C507.105,340.306,496.434,344.544,488.4,347.015z"/>
</svg>