<svg xmlns="http://www.w3.org/2000/svg" xmlns:xlink="http://www.w3.org/1999/xlink" version="1.1" id="Layer_1" x="0px" y="0px" enable-background="new 0 0 822.05 841.89" xml:space="preserve" viewBox="281.02 250.82 259.18 343.15">
<path fill-rule="evenodd" clip-rule="evenodd" fill="#FBF4A2" stroke="#000000" stroke-width="2" stroke-linecap="square" stroke-miterlimit="10" d="  M346.756,394.14c51.192-9.307,44.63-41.564,40.875-82.875c-3.675-40.427,19.151-68.725,61.502-56.625  c78.359,22.388-52.15,115.445,26.625,158.25C433.805,429.886,383.097,418.496,346.756,394.14z"/>
<path fill-rule="evenodd" clip-rule="evenodd" fill="#90D8F8" stroke="#000000" stroke-width="2" stroke-linecap="square" stroke-miterlimit="10" d="  M376.756,374.64c-28.114-3.26-112.645-7.04-87.75,42.75c23.186,46.372,113.359,25.786,155.252,39.75  c22.822,7.607,103.953,21.767,94.125-27.375C529.122,383.463,407.749,380.681,376.756,374.64z"/>
<path fill-rule="evenodd" clip-rule="evenodd" fill="#90D8F8" stroke="#000000" stroke-width="2" stroke-linecap="square" stroke-miterlimit="10" d="  M504.258,533.64c-13.726,100.844-238.91,63.138-221.252-38.25C300.376,395.652,520.693,433.166,504.258,533.64z"/>
<path fill-rule="evenodd" clip-rule="evenodd" fill="#FFFFFF" stroke="#000000" stroke-width="2" stroke-linecap="square" stroke-miterlimit="10" d="  M476.508,524.64c-12.981,70.949-168.537,44.458-157.502-27C330.082,425.917,487.446,452.247,476.508,524.64z"/>
<path fill-rule="evenodd" clip-rule="evenodd" fill="#90D8F8" stroke="#000000" stroke-width="2" stroke-linecap="square" stroke-miterlimit="10" d="  M417.258,464.64c1.79,27.599-33.752,28.035-33.752,0S419.048,437.042,417.258,464.64z"/>
</svg>