<svg xmlns="http://www.w3.org/2000/svg" xmlns:xlink="http://www.w3.org/1999/xlink" version="1.1" id="Layer_1" x="0px" y="0px" enable-background="new 0 0 822.05 841.89" xml:space="preserve" viewBox="305.21 253.76 212 335.54">
<path fill-rule="evenodd" clip-rule="evenodd" fill="#0071BC" stroke="#000000" stroke-width="2" stroke-linecap="square" stroke-miterlimit="10" d="  M405.209,256.697c-0.75,16.25-1.5,32.5-2.25,48.75c23.461-3.847,48.958,5.27,72,9.75c1.963-10.631,14.632-46.723,4.139-50.5  c-23.513-8.464-27.172,19.491-37.889,39.25C434.619,285.323,432.479,245.57,405.209,256.697z"/>
<path fill-rule="evenodd" clip-rule="evenodd" fill="#0071BC" d="M423.209,257.447l-0.75,47.25L423.209,257.447z"/>
<line fill="none" stroke="#000000" stroke-width="2" stroke-linecap="square" stroke-miterlimit="10" x1="423.209" y1="257.447" x2="422.459" y2="304.697"/>
<line fill="none" stroke="#000000" stroke-width="2" stroke-linecap="square" stroke-miterlimit="10" x1="465.209" y1="259.697" x2="458.459" y2="309.947"/>
<path fill-rule="evenodd" clip-rule="evenodd" fill="#90A7D6" stroke="#000000" stroke-width="2" stroke-linecap="square" stroke-miterlimit="10" d="  M402.209,309.197c-6.551,9.339-28.717,51.883-39.139,49.278c-20.388-5.097-28.212,35.533-28.556,54.417  c-0.937,51.52-16.787,101.184-28.306,151.307c16.278,2.96,78.124,24.623,90.75,16.5c14.311-9.206,22.009-78.864,27-96.75  c-0.25,34.5-0.5,69-0.75,103.5c12.931-0.106,91.455,3.952,91.538-4.706c0.46-47.564,0.919-95.13,1.379-142.694  c0.145-14.999-3.23-29.689-5.557-44.49c-3.537-22.507-15.116-13.047-21.527-34.417c-4.047-13.489-5.378-43.633-20.977-45.225  C446.113,313.677,424.161,311.437,402.209,309.197z"/>
<path fill-rule="evenodd" clip-rule="evenodd" fill="#90A7D6" d="M367.709,361.697c-17.68,29.12-26.604,47.742-33,81.002  C345.709,415.698,356.709,388.697,367.709,361.697z"/>
<path fill="none" stroke="#000000" stroke-width="2" stroke-linecap="square" stroke-miterlimit="10" d="M367.709,361.697  c-17.68,29.12-26.604,47.742-33,81.002"/>
<path fill="none" stroke="#000000" stroke-width="2" stroke-linecap="square" stroke-miterlimit="10" d="M366.209,364.697  c31.766,9.297,56.27,18.476,89.022,15.498c48.524-4.412,42.528,6.36,60.978,51.254"/>
<path fill="none" stroke="#000000" stroke-width="2" stroke-linecap="square" stroke-miterlimit="10" d="M344.459,400.697  c21.605,0.631,45.775-6.199,60.75-22.5"/>
<path fill="none" stroke="#000000" stroke-width="2" stroke-linecap="square" stroke-miterlimit="10" d="M467.459,379.697  c8.259,16.901,21.795,38.952,42.75,39"/>
<path fill-rule="evenodd" clip-rule="evenodd" fill="#FFF200" stroke="#000000" stroke-linecap="square" stroke-miterlimit="10" d="  M416.459,306.947c-0.971,4.861,0.159,8.122-3,12c-5.234-7.636-5.229-17.094,0-24.75C416.644,298.248,415.72,301.757,416.459,306.947  z"/>
<path fill-rule="evenodd" clip-rule="evenodd" fill="#FFF200" stroke="#000000" stroke-linecap="square" stroke-miterlimit="10" d="  M471.209,312.197c-1.805,4.72-1.898,8.506-6,11.25c-2.249-8.812-0.926-17.042,5.25-24  C472.63,304.191,471.205,307.318,471.209,312.197z"/>
</svg>