<svg xmlns="http://www.w3.org/2000/svg" xmlns:xlink="http://www.w3.org/1999/xlink" version="1.1" id="Layer_1" x="0px" y="0px" enable-background="new 0 0 822.05 841.89" xml:space="preserve" viewBox="249.19 255.83 323 332.06">
<path fill-rule="evenodd" clip-rule="evenodd" fill="#90A7D6" stroke="#000000" stroke-width="2" stroke-linecap="square" stroke-miterlimit="10" d="  M332.694,312.39c11.068,19.769,25.829,8.686,42,6c30.617-5.084,59.069-1.816,86.252,15c17.633,10.908,31.122,27.049,45.366,41.815  c13.224,13.709,54.641,43.021,56.272,62.602c2.771,33.252-103.285,74.294-130.2,90.011c-23.037,13.451-46.074,26.904-69.11,40.355  c-11.477,6.702-30.398-35.01-36.54-44.223c-19.865-29.798-60.122-71.321-65.291-108.061c-1.558-11.073-0.291-21.347,4.5-31.5  c7.213-15.287,40.116-26.646,43.5-37.5c6.836-21.927-45.612-63.827-59.25-79.5c8.751,0.339,24.069-11.475,29.25-10.5  C297.631,260.312,320.232,298.586,332.694,312.39z"/>
<path fill="none" stroke="#000000" stroke-width="2" stroke-linecap="square" stroke-miterlimit="10" d="M281.694,452.64  c12.562-52.396,44.534-88.222,100.5-93c29.737-2.539,51.172,8.612,76.41,22.424c37.621,20.59,77.75,35.79,105.092,69.076"/>
<path fill-rule="evenodd" clip-rule="evenodd" fill="#FFFFFF" stroke="#000000" stroke-width="2" stroke-linecap="square" stroke-miterlimit="10" d="  M289.194,286.89C259.27,287.118,287.594,256.492,289.194,286.89L289.194,286.89z"/>
<path fill-rule="evenodd" clip-rule="evenodd" fill="#6D6F71" stroke="#000000" stroke-width="2" stroke-linecap="square" stroke-miterlimit="10" d="  M355.944,569.64c1.195,5.811,6.794,12.021,9.75,17.25c68.501-41.5,137.001-83,205.502-124.5  c-12.225-30.896-77.09,25.471-94.226,35.613C436.629,521.882,396.287,545.761,355.944,569.64z"/>
</svg>