<svg xmlns="http://www.w3.org/2000/svg" xmlns:xlink="http://www.w3.org/1999/xlink" version="1.1" id="Layer_1" x="0px" y="0px" enable-background="new 0 0 822.05 841.89" xml:space="preserve" viewBox="272.26 255.05 278.26 332.84">
<path fill-rule="evenodd" clip-rule="evenodd" fill="#967A66" stroke="#000000" stroke-width="2" stroke-linecap="square" stroke-miterlimit="10" d="  M386,411.39c-21.042,0.765-118.151-151.239-112.5-155.25C279.278,252.039,392.33,391.366,386,411.39z"/>
<path fill-rule="evenodd" clip-rule="evenodd" fill="#8E9093" d="M371,399.39c14.084-16.12,59.814,28.641,75.99,38.808  c25.034,15.736,50.887,31.075,78.51,41.817c10.66,4.146,22.419,6.087,24,17.625c0.614,4.481-14.033,12.639-15.75,17.25  c-2.245,6.03,4.512,10.73,0.375,17.625c-9.061,15.102-29.142,15.491-40.875,29.625c-8.468-11.354-18.473,11.854-30.75,16.5  c-16.473,6.233-31.152-12.703-41.25,8.25c-15.34-11.225-48.891-3.676-52.5-25.5c-3.318,2.392-8.055,3.465-11.25,6  C376.678,513.94,390.637,451.388,371,399.39z"/>
<path fill="none" stroke="#000000" stroke-width="2" stroke-linecap="square" stroke-miterlimit="10" d="M371,399.39  c14.084-16.12,59.814,28.641,75.99,38.808c25.034,15.736,50.887,31.075,78.51,41.817c10.66,4.146,22.419,6.087,24,17.625  c0.614,4.481-14.033,12.639-15.75,17.25c-2.245,6.03,4.512,10.73,0.375,17.625c-9.061,15.102-29.142,15.491-40.875,29.625  c-8.468-11.354-18.473,11.854-30.75,16.5c-16.473,6.233-31.152-12.703-41.25,8.25c-15.34-11.225-48.891-3.676-52.5-25.5  c-3.318,2.392-8.055,3.465-11.25,6c15.452-43.065,44.03-124.856,12-165.75"/>
</svg>