<svg xmlns="http://www.w3.org/2000/svg" xmlns:xlink="http://www.w3.org/1999/xlink" version="1.1" id="Layer_1" x="0px" y="0px" enable-background="new 0 0 822.05 841.89" xml:space="preserve" viewBox="307.71 340.52 205.7 160.63">
<path fill-rule="evenodd" clip-rule="evenodd" fill="#D2D1D2" stroke="#000000" stroke-width="1.25" stroke-linecap="square" stroke-miterlimit="10" d="  M392.799,445.768c0.579-1.056,3.023-2.918,3-6C394.437,441.632,393.917,443.727,392.799,445.768z"/>
<path fill-rule="evenodd" clip-rule="evenodd" fill="#D2D1D2" stroke="#000000" stroke-width="1.25" stroke-linecap="square" stroke-miterlimit="10" d="  M452.053,464.518c-24.088-5.951-25.568-29.054-57.754-18.75c-22.141,7.088-36.887,27.259-43.5,48.75c24.002,0,48.005,0,72.007,0  C449.1,494.518,444.976,490.252,452.053,464.518z"/>
<path fill-rule="evenodd" clip-rule="evenodd" fill="#EDCBA6" stroke="#000000" stroke-width="1.25" stroke-linecap="square" stroke-miterlimit="10" d="  M365.049,412.768c3.172,14.483-6.873,21.778-15,6.75C341.861,404.376,356.496,401.337,365.049,412.768z"/>
<path fill-rule="evenodd" clip-rule="evenodd" fill="#EDCBA6" stroke="#000000" stroke-width="1.25" stroke-linecap="square" stroke-miterlimit="10" d="  M459.553,415.018c-6.557,14.193-22.637,12.555-17.25-4.5C447.533,393.956,460.751,399.935,459.553,415.018z"/>
<path fill-rule="evenodd" clip-rule="evenodd" fill="#D2D1D2" stroke="#000000" stroke-width="1.25" stroke-linecap="square" stroke-miterlimit="10" d="  M358.299,385.768c-10.083,51.834,63.69,109.689,85.879,43.125c8.431-25.292,11.045-64.125-14.625-80.625  C398.845,328.529,362.345,352.636,358.299,385.768z"/>
<path fill-rule="evenodd" clip-rule="evenodd" fill="#FB0F0C" stroke="#000000" stroke-width="1.5" stroke-linecap="square" stroke-miterlimit="10" d="  M491.803,390.268c13.634-3.025,25.912-8.112,18.75-21c-9.639,7.316-20.613,14.375-27,4.5c-6.5,8.25-13,16.5-19.5,24.75  c10.25-0.5,20.5-1,30.75-1.5C493.803,394.768,492.803,392.518,491.803,390.268z"/>
<path fill-rule="evenodd" clip-rule="evenodd" fill="#D2D1D2" stroke="#000000" stroke-width="1.25" stroke-linecap="square" stroke-miterlimit="10" d="  M473.803,463.018c-32.91-12.979-36.786,29.658-72.754,19.5c-19.296-5.449-20.693-24.167-38.25-24.75  c-23.984-0.797-33.189,24.104-38.25,42.75c57.001,0,114.003,0,171.004,0C490.621,487.001,484.135,473.035,473.803,463.018z"/>
<path fill-rule="evenodd" clip-rule="evenodd" fill="#FB0F0C" stroke="#000000" stroke-width="1.5" stroke-linecap="square" stroke-miterlimit="10" d="  M330.549,374.518c-18.318-27.604-35.104-10.818-7.5,7.5c-2,1.75-4,3.5-6,5.25c10,3.5,20,7,30,10.5c-3.75-9.5-7.5-19-11.25-28.5  C334.049,371.018,332.299,372.768,330.549,374.518z"/>
</svg>