<svg xmlns="http://www.w3.org/2000/svg" xmlns:xlink="http://www.w3.org/1999/xlink" version="1.1" id="Layer_1" x="0px" y="0px" enable-background="new 0 0 822.05 841.89" xml:space="preserve" viewBox="323 336.58 175.1 169.57">
<path fill-rule="evenodd" clip-rule="evenodd" fill="#90BBE1" stroke="#000000" stroke-linecap="square" stroke-miterlimit="10" d="  M497.502,421.39c3.837,112.193-173.749,112.508-174.002,0C323.246,308.724,502.38,309.23,497.502,421.39z"/>
<path fill-rule="evenodd" clip-rule="evenodd" fill="#BFDC7D" stroke="#000000" stroke-linecap="square" stroke-miterlimit="10" d="  M352,430.39c6.305,9.967,11.441-0.458,12-11.25C356.149,421.393,355.353,424.417,352,430.39z"/>
<path fill-rule="evenodd" clip-rule="evenodd" fill="#BFDC7D" stroke="#000000" stroke-linecap="square" stroke-miterlimit="10" d="  M478.002,419.14c0.526,7.05-2.158,15.612-3,22.5c-4.225,1.983-14.944,4.339-21,6C464.436,437.018,478.386,437.611,478.002,419.14z"/>
<path fill-rule="evenodd" clip-rule="evenodd" fill="#BFDC7D" stroke="#000000" stroke-linecap="square" stroke-miterlimit="10" d="  M481.002,457.39c0.495,5.087,2.297,8.656,0,14.25c-0.5-1.5-1-3-1.5-4.5c-0.5,1.25-1,2.5-1.5,3.75  C476.085,460.066,478.748,459.221,481.002,457.39z"/>
<path fill-rule="evenodd" clip-rule="evenodd" fill="#BFDC7D" stroke="#000000" stroke-linecap="square" stroke-miterlimit="10" d="  M475.752,479.14c-0.867-2.684-2.384-4.881-6-3.75c-0.206-2.515,0.403-4.279,0.75-6.75c-14.521,2.186-57.384,24.665-19.5,21.75  c-1.857,3.57-2.8,7.086-5.25,10.5C457.34,495.968,467.112,488.253,475.752,479.14z"/>
<path fill-rule="evenodd" clip-rule="evenodd" fill="#BFDC7D" stroke="#000000" stroke-linecap="square" stroke-miterlimit="10" d="  M382,345.64c2.802,8.728-9.942,20.628-8.25,38.25c19.358,0.503,28.626,2.063,18-17.25c12.104,16.249,25.746,20.653,23.252,47.25  c17.23-27.879,37.303-6.287,30.75,20.25c-1.929-2.491-4.37-5.438-6-7.5c0.008,16.946,9.914,30.977,27,33.75  c-22.66-6.327-14.939-23.057-18-40.5c1.114,2.888,4.486,8.039,6,12c7.54-5.085,8.835-13,6.75-22.5  c13.149,11.392,19.133-4.914,16.5-19.5c1.358,0.957,3.465,6.65,4.5,8.25c1.219-2.485,1.208-5.869,4.5-7.5  c-0.208,6.175,2.002,11.913,2.25,18c37.852-46.85-79.422-81.409-111.002-68.25C381.159,341.64,381.053,343.33,382,345.64z"/>
<path fill-rule="evenodd" clip-rule="evenodd" fill="#BFDC7D" stroke="#000000" stroke-linecap="square" stroke-miterlimit="10" d="  M331.75,410.14c-3.073,10.805-3.133,22.151,3,31.5c5.157-25.765,28.828-37.602,45-52.5c-22.372-4.972,4.566-33.499-12-34.5  c0.636-2.713,2.145-7.841,2.25-10.5C343.128,357.444,331.577,381.683,331.75,410.14z"/>
</svg>