<svg xmlns="http://www.w3.org/2000/svg" xmlns:xlink="http://www.w3.org/1999/xlink" version="1.1" id="Layer_1" x="0px" y="0px" enable-background="new 0 0 822.05 841.89" xml:space="preserve" viewBox="223.22 269.25 375.17 304.64">
<path fill-rule="evenodd" clip-rule="evenodd" fill="#AF8977" stroke="#000000" stroke-width="2" stroke-linecap="square" stroke-miterlimit="10" d="  M542,285.64c-6.72,0.351-13.519,0-20.25,0c0-1.25,0-2.5,0-3.75C530.965,279.654,538.285,281.789,542,285.64z"/>
<path fill-rule="evenodd" clip-rule="evenodd" fill="#AF8977" stroke="#000000" stroke-width="2" stroke-linecap="square" stroke-miterlimit="10" d="  M558.5,470.14c-16.806,3.9-28.243-95.344-32.25-114.75C544.855,355.762,553.804,448.082,558.5,470.14z"/>
<path fill-rule="evenodd" clip-rule="evenodd" fill="#AF8977" stroke="#000000" stroke-width="2" stroke-linecap="square" stroke-miterlimit="10" d="  M596,572.89c-15.556-18.523-49.504-251.724-43.5-253.5C549.489,320.281,606.934,547.308,596,572.89z"/>
<path fill-rule="evenodd" clip-rule="evenodd" fill="#AF8977" stroke="#000000" stroke-width="2" stroke-linecap="square" stroke-miterlimit="10" d="  M468.5,572.89c15.74-19.168,48.444-252.197,43.5-253.5C513.638,319.822,457.834,547.935,468.5,572.89z"/>
<path fill-rule="evenodd" clip-rule="evenodd" fill="#AF8977" stroke="#000000" stroke-width="2" stroke-linecap="square" stroke-miterlimit="10" d="  M566.75,359.89c-7.558,7.141-72.87,12.467-73.5,0C492.67,348.4,559.489,352.569,566.75,359.89z"/>
<path fill-rule="evenodd" clip-rule="evenodd" fill="#AF8977" stroke="#000000" stroke-width="2" stroke-linecap="square" stroke-miterlimit="10" d="  M535.25,509.89c-12.956,9.071-6.75-62.77-6.75-74.751c0-35.568,0-71.137,0-106.705c0-11.289-6.175-44.866,0-54.794  c7.904-12.709,6.75,66.124,6.75,74.751C535.25,402.224,535.25,456.057,535.25,509.89z"/>
<path fill-rule="evenodd" clip-rule="evenodd" fill="#AF8977" stroke="#000000" stroke-width="2" stroke-linecap="square" stroke-miterlimit="10" d="  M584,470.89c-8.355,11.183-113.006,8.194-112.5,0C472.062,461.799,575.521,461.688,584,470.89z"/>
<path fill-rule="evenodd" clip-rule="evenodd" fill="#AF8977" stroke="#000000" stroke-width="2" stroke-linecap="square" stroke-miterlimit="10" d="  M592.25,509.89c-10.912,8.788-119.665,7.576-119.25,0C473.524,500.307,581.329,501.598,592.25,509.89z"/>
<path fill-rule="evenodd" clip-rule="evenodd" fill="#AF8977" stroke="#000000" stroke-width="2" stroke-linecap="square" stroke-miterlimit="10" d="  M419.75,285.64c-6.72,0.351-13.519,0-20.25,0c0-1.25,0-2.5,0-3.75C408.715,279.654,416.035,281.789,419.75,285.64z"/>
<path fill-rule="evenodd" clip-rule="evenodd" fill="#AF8977" stroke="#000000" stroke-width="2" stroke-linecap="square" stroke-miterlimit="10" d="  M436.25,470.14c-16.806,3.9-28.244-95.344-32.25-114.75C422.605,355.762,431.554,448.082,436.25,470.14z"/>
<path fill-rule="evenodd" clip-rule="evenodd" fill="#AF8977" stroke="#000000" stroke-width="2" stroke-linecap="square" stroke-miterlimit="10" d="  M473.75,572.89c-15.878-18.907-47.844-252.422-43.5-253.5C427.807,319.997,484.328,548.057,473.75,572.89z"/>
<path fill-rule="evenodd" clip-rule="evenodd" fill="#AF8977" stroke="#000000" stroke-width="2" stroke-linecap="square" stroke-miterlimit="10" d="  M346.25,572.89c15.74-19.168,48.445-252.197,43.5-253.5C391.595,319.876,335.155,548.557,346.25,572.89z"/>
<path fill-rule="evenodd" clip-rule="evenodd" fill="#AF8977" stroke="#000000" stroke-width="2" stroke-linecap="square" stroke-miterlimit="10" d="  M444.5,359.89c-7.803,7.292-72.536,12.574-73.5,0C370.159,348.921,436.741,352.237,444.5,359.89z"/>
<path fill-rule="evenodd" clip-rule="evenodd" fill="#AF8977" stroke="#000000" stroke-width="2" stroke-linecap="square" stroke-miterlimit="10" d="  M413,509.89c-13.048,9.191-6.75-62.686-6.75-74.751c0-35.568,0-71.137,0-106.705c0-11.444-6.163-44.681,0-54.794  c3.205-5.26,6.75-4.432,6.75,2.653c0,24.032,0,48.065,0,72.098C413,402.224,413,456.057,413,509.89z"/>
<path fill-rule="evenodd" clip-rule="evenodd" fill="#AF8977" stroke="#000000" stroke-width="2" stroke-linecap="square" stroke-miterlimit="10" d="  M461.75,470.89c-8.355,11.183-113.006,8.194-112.5,0C349.811,461.799,453.271,461.688,461.75,470.89z"/>
<path fill-rule="evenodd" clip-rule="evenodd" fill="#AF8977" stroke="#000000" stroke-width="2" stroke-linecap="square" stroke-miterlimit="10" d="  M470,509.89c-10.912,8.788-119.665,7.576-119.25,0C351.275,500.307,459.079,501.598,470,509.89z"/>
<path fill-rule="evenodd" clip-rule="evenodd" fill="#AF8977" stroke="#000000" stroke-width="2" stroke-linecap="square" stroke-miterlimit="10" d="  M299.75,285.64c-6.971,0.354-14.019,0-21,0c0-1.25,0-2.5,0-3.75C288.104,279.659,295.92,281.791,299.75,285.64z"/>
<path fill-rule="evenodd" clip-rule="evenodd" fill="#AF8977" stroke="#000000" stroke-width="2" stroke-linecap="square" stroke-miterlimit="10" d="  M315.5,470.14c-18.605-0.372-27.554-92.691-32.25-114.75C301.855,355.762,310.804,448.082,315.5,470.14z"/>
<path fill-rule="evenodd" clip-rule="evenodd" fill="#AF8977" stroke="#000000" stroke-width="2" stroke-linecap="square" stroke-miterlimit="10" d="  M353.75,572.89c-19.521-18.562-41.051-253.758-43.5-253.5C314.186,318.976,362.836,550.306,353.75,572.89z"/>
<path fill-rule="evenodd" clip-rule="evenodd" fill="#AF8977" stroke="#000000" stroke-width="2" stroke-linecap="square" stroke-miterlimit="10" d="  M225.5,572.89c16.196-18.432,46.427-252.874,43.5-253.5C269.971,319.598,215.23,548.783,225.5,572.89z"/>
<path fill-rule="evenodd" clip-rule="evenodd" fill="#AF8977" stroke="#000000" stroke-width="2" stroke-linecap="square" stroke-miterlimit="10" d="  M323.75,359.89c-7.263,7.003-73.201,12.292-73.5,0C249.958,347.887,317.066,352.877,323.75,359.89z"/>
<path fill-rule="evenodd" clip-rule="evenodd" fill="#AF8977" stroke="#000000" stroke-width="2" stroke-linecap="square" stroke-miterlimit="10" d="  M292.25,509.89c-12.878,9.034-6.75-62.746-6.75-74.751c0-35.568,0-71.137,0-106.705c0-11.294-6.175-44.86,0-54.794  c7.951-12.792,6.75,66.192,6.75,74.751C292.25,402.224,292.25,456.057,292.25,509.89z"/>
<path fill-rule="evenodd" clip-rule="evenodd" fill="#AF8977" stroke="#000000" stroke-width="2" stroke-linecap="square" stroke-miterlimit="10" d="  M341.75,470.89c-9.619,11.329-113.129,7.86-112.5,0C229.998,461.542,332.262,461.664,341.75,470.89z"/>
<path fill-rule="evenodd" clip-rule="evenodd" fill="#AF8977" stroke="#000000" stroke-width="2" stroke-linecap="square" stroke-miterlimit="10" d="  M349.25,509.89c-8.699,10.794-112.625,12.139-119.25,0C232.107,513.751,333.847,497.859,349.25,509.89z"/>
</svg>