<svg xmlns="http://www.w3.org/2000/svg" xmlns:xlink="http://www.w3.org/1999/xlink" version="1.1" id="Layer_1" x="0px" y="0px" enable-background="new 0 0 822.05 841.89" xml:space="preserve" viewBox="327.63 337.14 167.5 168.22">
<path fill-rule="evenodd" clip-rule="evenodd" fill="#F7F619" stroke="#000000" stroke-width="1.25" stroke-linecap="square" stroke-miterlimit="10" d="  M440.155,470.525c4.883,19.417,47.446,17.607,53.25,0C475.627,475.567,457.75,476.8,440.155,470.525z"/>
<path fill-rule="evenodd" clip-rule="evenodd" fill="#200F75" stroke="#000000" stroke-width="1.25" stroke-linecap="square" stroke-miterlimit="10" d="  M488.905,435.275c-8.95-27.518-35.743-26.818-45,0C458.644,440.266,474.078,439.697,488.905,435.275z"/>
<path fill-rule="evenodd" clip-rule="evenodd" fill="#200F75" stroke="#000000" stroke-width="1.25" stroke-linecap="square" stroke-miterlimit="10" d="  M443.905,480.275c11.278,15.128,35.392,15.527,45.75-0.75C474.646,483.622,458.923,484.911,443.905,480.275z"/>
<path fill-rule="evenodd" clip-rule="evenodd" fill="#F7F619" stroke="#000000" stroke-width="1.25" stroke-linecap="square" stroke-miterlimit="10" d="  M443.905,435.275c-2.778,18.779,34.735,11.589,48,7.5C485.924,432.12,459.052,440.404,443.905,435.275z"/>
<path fill-rule="evenodd" clip-rule="evenodd" fill="#200F75" stroke="#000000" stroke-width="1.25" stroke-linecap="square" stroke-miterlimit="10" d="  M441.655,442.775c-0.75,2.75-1.5,5.5-2.25,8.25c10.647,4.802,10.542,7.855,0,12c3.126,12.469,22.844,14.556,36,11.25  c19.938-5.01,21.935-10.455,16.5-31.5C475.472,447.841,457.802,449.443,441.655,442.775z M485.155,451.775  C500.081,467.288,471.396,467.849,485.155,451.775L485.155,451.775z M470.905,460.775  C454.29,473.676,454.928,447.211,470.905,460.775L470.905,460.775z"/>
<path fill-rule="evenodd" clip-rule="evenodd" fill="#F8130D" stroke="#000000" stroke-width="1.25" stroke-linecap="square" stroke-miterlimit="10" d="  M448.405,457.025C435.497,444.301,435.937,470.383,448.405,457.025L448.405,457.025z"/>
<path fill-rule="evenodd" clip-rule="evenodd" fill="#F8130D" stroke="#000000" stroke-width="1.25" stroke-linecap="square" stroke-miterlimit="10" d="  M457.405,460.775C473.122,473.583,472.482,447.295,457.405,460.775L457.405,460.775z"/>
<path fill-rule="evenodd" clip-rule="evenodd" fill="#F8130D" stroke="#000000" stroke-width="1.25" stroke-linecap="square" stroke-miterlimit="10" d="  M485.155,465.275C499.06,449.869,472.405,449.36,485.155,465.275L485.155,465.275z"/>
<path fill-rule="evenodd" clip-rule="evenodd" fill="#F8130D" stroke="#000000" stroke-width="1.25" stroke-linecap="square" stroke-miterlimit="10" d="  M436.405,418.777c-5.349-26.569-18.854-62-48-69.75c2.629,25.326,4.792,50.317,6,75.748  C408.539,424.475,422.749,422.426,436.405,418.777z"/>
<path fill-rule="evenodd" clip-rule="evenodd" fill="#F8130D" stroke="#000000" stroke-width="1.25" stroke-linecap="square" stroke-miterlimit="10" d="  M329.155,420.277c16.378,2.314,32.917,5.087,49.5,4.498c-0.862-25.011-1.81-50.001-3-74.998  C347.197,359.302,334.968,393.537,329.155,420.277z"/>
<path fill-rule="evenodd" clip-rule="evenodd" fill="#F8130D" stroke="#000000" stroke-width="1.25" stroke-linecap="square" stroke-miterlimit="10" d="  M379.405,439.025c-17.095-0.794-34.171-2.003-51-5.25c-1.867,31.1,13.724,62.239,48,63.75  C379.193,478.175,378.952,458.531,379.405,439.025z"/>
<path fill-rule="evenodd" clip-rule="evenodd" fill="#F8130D" stroke="#000000" stroke-width="1.25" stroke-linecap="square" stroke-miterlimit="10" d="  M437.905,433.025c-9.761,2.503-43.5,3.258-43.5,10.861c0,18-1.004,35.74-3,53.639C423.961,495.035,440.437,463.246,437.905,433.025z  "/>
<path fill-rule="evenodd" clip-rule="evenodd" fill="#F8130D" stroke="#000000" stroke-width="1.25" stroke-linecap="square" stroke-miterlimit="10" d="  M394.405,439.025c3.068-13.312-2.563-17.665-15.75-14.25C376.237,437.727,381.653,442.292,394.405,439.025z"/>
<path fill-rule="evenodd" clip-rule="evenodd" fill="#F7F619" stroke="#000000" stroke-width="1.25" stroke-linecap="square" stroke-miterlimit="10" d="  M394.405,439.025c-25.842-5.019-15.258,39.47-18,58.5C402.036,503.255,394.739,456.941,394.405,439.025z"/>
<path fill-rule="evenodd" clip-rule="evenodd" fill="#F7F619" stroke="#000000" stroke-width="1.25" stroke-linecap="square" stroke-miterlimit="10" d="  M394.405,424.775c-0.626-13.193,1.15-81.423-15-75.748C374.787,350.65,364.473,433.493,394.405,424.775z"/>
<path fill-rule="evenodd" clip-rule="evenodd" fill="#F7F619" stroke="#000000" stroke-width="1.25" stroke-linecap="square" stroke-miterlimit="10" d="  M437.905,433.025c-0.5-4.749-1-9.499-1.5-14.248c-36.005,7.81-70.932,6.78-107.25,1.5C320,449.251,419.295,437.646,437.905,433.025z  "/>
<path fill-rule="evenodd" clip-rule="evenodd" fill="#F7F619" stroke="#000000" stroke-width="1.25" stroke-linecap="square" stroke-miterlimit="10" d="  M358.405,337.777c-24.664,1.113-22.875,27.792,1.5,26.25C383.922,362.507,382.76,337.103,358.405,337.777z M365.905,355.777  C332.133,346.119,398.208,342.031,365.905,355.777L365.905,355.777z"/>
<path fill-rule="evenodd" clip-rule="evenodd" fill="#F7F619" stroke="#000000" stroke-width="1.25" stroke-linecap="square" stroke-miterlimit="10" d="  M400.405,364.027c22.207,2.071,25.959-23.25,3.375-23.25C380.943,340.777,374.681,362.939,400.405,364.027z M395.905,347.527  C424.609,361.84,363.765,355.349,395.905,347.527L395.905,347.527z"/>
<path fill-rule="evenodd" clip-rule="evenodd" fill="#F7F619" stroke="#000000" stroke-width="1.25" stroke-linecap="square" stroke-miterlimit="10" d="  M374.905,352.777c-12,8-24,16-36,24c5.269,3.548,21.584,12.349,25.2,6.708C371.104,372.568,385.033,361.917,374.905,352.777z"/>
<path fill-rule="evenodd" clip-rule="evenodd" fill="#F7F619" stroke="#000000" stroke-width="1.25" stroke-linecap="square" stroke-miterlimit="10" d="  M381.655,358.027c6.5,10.25,13,20.5,19.5,30.75c4.219-2.635,10.468-9.816,12.748-14.25  C403.624,366.246,392.373,349.163,381.655,358.027z"/>
<path fill-rule="evenodd" clip-rule="evenodd" fill="#F7F619" stroke="#000000" stroke-width="1.25" stroke-linecap="square" stroke-miterlimit="10" d="  M388.405,352.027C372.892,374.003,369.224,330.951,388.405,352.027L388.405,352.027z"/>
<path fill-rule="evenodd" clip-rule="evenodd" fill="#200F75" stroke="#000000" stroke-width="1.25" stroke-linecap="square" stroke-miterlimit="10" d="  M408.655,483.275c6.028,18.408,48.771,18.517,53.25,0C445.469,489.899,425.169,489.641,408.655,483.275z"/>
<path fill-rule="evenodd" clip-rule="evenodd" fill="#F7F619" stroke="#000000" stroke-width="1.25" stroke-linecap="square" stroke-miterlimit="10" d="  M458.155,448.025c-8.881-27.125-36.003-26.796-45,0C427.863,453.089,443.353,452.432,458.155,448.025z"/>
<path fill-rule="evenodd" clip-rule="evenodd" fill="#F7F619" stroke="#000000" stroke-width="1.25" stroke-linecap="square" stroke-miterlimit="10" d="  M413.155,493.025c11.24,15.872,35.123,15.589,45.75-0.75C443.896,496.372,428.173,497.661,413.155,493.025z"/>
<path fill-rule="evenodd" clip-rule="evenodd" fill="#200F75" stroke="#000000" stroke-width="1.25" stroke-linecap="square" stroke-miterlimit="10" d="  M413.155,448.025c-1,2.5-2,5-3,7.5c15.907,6.201,35.172,6.591,51,0C455.119,444.772,428.361,453.261,413.155,448.025z"/>
<path fill-rule="evenodd" clip-rule="evenodd" fill="#F7F619" stroke="#000000" stroke-width="1.25" stroke-linecap="square" stroke-miterlimit="10" d="  M410.155,455.525c-0.5,2.75-1,5.5-1.5,8.25c11.054,5.07,10.458,8.392-0.75,12.75c7.547,23.059,64.545,17.624,53.25-21  C445.327,462.116,426.062,461.726,410.155,455.525z M454.405,464.525C467.569,480.686,441.445,480.918,454.405,464.525  L454.405,464.525z M439.405,473.525C423.902,486.387,424.156,460.452,439.405,473.525L439.405,473.525z"/>
<path fill-rule="evenodd" clip-rule="evenodd" fill="#F8130D" stroke="#000000" stroke-width="1.25" stroke-linecap="square" stroke-miterlimit="10" d="  M417.655,469.775c-8.391-6.771-10.396-7.376-9.75,6.75C415.54,477.899,413.891,473.489,417.655,469.775z"/>
<path fill-rule="evenodd" clip-rule="evenodd" fill="#F8130D" stroke="#000000" stroke-width="1.25" stroke-linecap="square" stroke-miterlimit="10" d="  M425.905,473.525C442.299,486.485,442.066,460.361,425.905,473.525L425.905,473.525z"/>
<path fill-rule="evenodd" clip-rule="evenodd" fill="#F8130D" stroke="#000000" stroke-width="1.25" stroke-linecap="square" stroke-miterlimit="10" d="  M454.405,478.025C467.479,462.776,441.543,462.522,454.405,478.025L454.405,478.025z"/>
</svg>