<svg xmlns="http://www.w3.org/2000/svg" xmlns:xlink="http://www.w3.org/1999/xlink" version="1.1" id="Layer_1" x="0px" y="0px" enable-background="new 0 0 822.05 841.89" xml:space="preserve" viewBox="323.95 339.55 171.05 168.3">
<path fill-rule="evenodd" clip-rule="evenodd" fill="#EED5B6" stroke="#000000" stroke-width="1.25" stroke-linecap="square" stroke-miterlimit="10" d="  M373.375,408.015c8.693-3.628,16.141-6.513,18-12.75c23.186-2.438,30.015,11.946,24.168,33.87  C407.539,459.152,355.841,434.257,373.375,408.015z"/>
<path fill-rule="evenodd" clip-rule="evenodd" fill="#EED5B6" stroke="#000000" stroke-width="1.25" stroke-linecap="square" stroke-miterlimit="10" d="  M375.625,366.015c-8.142,46.191,57.975,56.64,52.5,3C424.496,333.458,380.752,328.867,375.625,366.015z"/>
<path fill-rule="evenodd" clip-rule="evenodd" fill="#137827" stroke="#000000" stroke-width="1.25" stroke-linecap="square" stroke-miterlimit="10" d="  M437.125,439.515c19.346,20.877,29.074,1.377,43.5-13.5c-16.173-7.057-33.779-18.293-51.375-21  c-10.652-1.639-18.498,13.418-31.875,12.75c-12.447-0.621-13.505-14.184-29.25-12c-13.608,1.887-30.161,19.328-40.5,27.75  c12.091,11.675,21.548,29.599,36.75,11.25c-0.75,15-1.5,30-2.25,45c25.75,0,51.5,0,77.25,0  C438.625,473.015,437.875,456.265,437.125,439.515z"/>
<path fill-rule="evenodd" clip-rule="evenodd" fill="#FFFFFF" stroke="#000000" stroke-width="1.25" stroke-linecap="square" stroke-miterlimit="10" d="  M469.375,482.265c-7.899,30.137-116.825,34.883-117,3.75C352.184,451.988,455.856,458.048,469.375,482.265z"/>
<path fill-rule="evenodd" clip-rule="evenodd" fill="#7D5E23" stroke="#000000" stroke-width="1.25" stroke-linecap="square" stroke-miterlimit="10" d="  M399.625,491.265C398.625,491.265,398.625,491.265,399.625,491.265L399.625,491.265z"/>
<path fill-rule="evenodd" clip-rule="evenodd" fill="#7D5E23" stroke="#000000" stroke-width="1.25" stroke-linecap="square" stroke-miterlimit="10" d="  M398.875,492.765C397.231,493.652,398.233,493.111,398.875,492.765L398.875,492.765z"/>
<path fill-rule="evenodd" clip-rule="evenodd" fill="#7D5E23" stroke="#000000" stroke-width="1.25" stroke-linecap="square" stroke-miterlimit="10" d="  M403.375,493.515L403.375,493.515z"/>
<path fill-rule="evenodd" clip-rule="evenodd" fill="#7D5E23" stroke="#000000" stroke-width="1.25" stroke-linecap="square" stroke-miterlimit="10" d="  M404.875,492.015C403.875,492.015,403.875,492.015,404.875,492.015L404.875,492.015z"/>
<path fill-rule="evenodd" clip-rule="evenodd" fill="#7D5E23" stroke="#000000" stroke-width="1.25" stroke-linecap="square" stroke-miterlimit="10" d="  M407.125,492.765C406.125,492.765,406.125,492.765,407.125,492.765L407.125,492.765z"/>
<path fill-rule="evenodd" clip-rule="evenodd" fill="#7D5E23" stroke="#000000" stroke-width="1.25" stroke-linecap="square" stroke-miterlimit="10" d="  M407.875,494.265C407.271,493.662,407.271,493.662,407.875,494.265L407.875,494.265z"/>
<path fill-rule="evenodd" clip-rule="evenodd" fill="#7D5E23" stroke="#000000" stroke-width="1.25" stroke-linecap="square" stroke-miterlimit="10" d="  M413.877,493.515C413.232,493.168,412.23,492.629,413.877,493.515L413.877,493.515z"/>
<path fill-rule="evenodd" clip-rule="evenodd" fill="#7D5E23" stroke="#000000" stroke-width="1.25" stroke-linecap="square" stroke-miterlimit="10" d="  M398.125,492.015L398.125,492.015z"/>
<path fill-rule="evenodd" clip-rule="evenodd" fill="#7D5E23" stroke="#000000" stroke-width="1.25" stroke-linecap="square" stroke-miterlimit="10" d="  M397.375,494.265C396.771,493.662,396.771,493.662,397.375,494.265L397.375,494.265z"/>
<path fill-rule="evenodd" clip-rule="evenodd" fill="#7D5E23" stroke="#000000" stroke-width="1.25" stroke-linecap="square" stroke-miterlimit="10" d="  M402.625,494.265C401.625,494.265,401.625,494.265,402.625,494.265L402.625,494.265z"/>
<path fill-rule="evenodd" clip-rule="evenodd" fill="#7D5E23" stroke="#000000" stroke-width="1.25" stroke-linecap="square" stroke-miterlimit="10" d="  M403.375,492.765C402.375,492.765,402.375,492.765,403.375,492.765L403.375,492.765z"/>
<path fill-rule="evenodd" clip-rule="evenodd" fill="#7D5E23" stroke="#000000" stroke-width="1.25" stroke-linecap="square" stroke-miterlimit="10" d="  M405.625,493.515C404.625,493.515,404.625,493.515,405.625,493.515L405.625,493.515z"/>
<path fill-rule="evenodd" clip-rule="evenodd" fill="#7D5E23" stroke="#000000" stroke-width="1.25" stroke-linecap="square" stroke-miterlimit="10" d="  M407.125,495.015C405.478,495.015,405.478,495.015,407.125,495.015L407.125,495.015z"/>
<path fill-rule="evenodd" clip-rule="evenodd" fill="#7D5E23" stroke="#000000" stroke-width="1.25" stroke-linecap="square" stroke-miterlimit="10" d="  M413.125,494.265C411.478,494.265,411.478,494.265,413.125,494.265L413.125,494.265z"/>
<path fill-rule="evenodd" clip-rule="evenodd" fill="#7D5E23" stroke="#000000" stroke-width="1.25" stroke-linecap="square" stroke-miterlimit="10" d="  M401.875,491.265C401.875,492.265,401.875,492.265,401.875,491.265L401.875,491.265z"/>
<path fill-rule="evenodd" clip-rule="evenodd" fill="#7D5E23" stroke="#000000" stroke-width="1.25" stroke-linecap="square" stroke-miterlimit="10" d="  M401.875,493.515C401.875,492.515,401.875,492.515,401.875,493.515L401.875,493.515z"/>
<path fill-rule="evenodd" clip-rule="evenodd" fill="#7D5E23" stroke="#000000" stroke-width="1.25" stroke-linecap="square" stroke-miterlimit="10" d="  M402.625,493.515C402.625,494.515,402.625,494.515,402.625,493.515L402.625,493.515z"/>
<path fill-rule="evenodd" clip-rule="evenodd" fill="#7D5E23" stroke="#000000" stroke-width="1.25" stroke-linecap="square" stroke-miterlimit="10" d="  M402.625,492.015L402.625,492.015z"/>
<path fill-rule="evenodd" clip-rule="evenodd" fill="#7D5E23" stroke="#000000" stroke-width="1.25" stroke-linecap="square" stroke-miterlimit="10" d="  M403.375,492.765L403.375,492.765z"/>
<path fill-rule="evenodd" clip-rule="evenodd" fill="#7D5E23" stroke="#000000" stroke-width="1.25" stroke-linecap="square" stroke-miterlimit="10" d="  M403.375,494.265L403.375,494.265z"/>
<path fill-rule="evenodd" clip-rule="evenodd" fill="#7D5E23" stroke="#000000" stroke-width="1.25" stroke-linecap="square" stroke-miterlimit="10" d="  M404.125,493.515L404.125,493.515z"/>
<path fill-rule="evenodd" clip-rule="evenodd" fill="#7D5E23" stroke="#000000" stroke-width="1.25" stroke-linecap="square" stroke-miterlimit="10" d="  M389.125,491.265c-2.939-2.866-3.903-2.877-6-7.5c10.114,5.752,23.546,3.609,35.25,8.25  C406.54,488.5,394.999,491.968,389.125,491.265z"/>
<path fill-rule="evenodd" clip-rule="evenodd" fill="#7D5E23" stroke="#000000" stroke-width="1.25" stroke-linecap="square" stroke-miterlimit="10" d="  M446.125,484.515c-4.613,5.009-34.833,13.227-35.25,0C410.442,470.801,441.837,479.061,446.125,484.515z"/>
<path fill-rule="evenodd" clip-rule="evenodd" fill="#A5A5C2" stroke="#000000" stroke-width="1.25" stroke-linecap="square" stroke-miterlimit="10" d="  M425.125,412.515c0.303,1.916-4.661,0.85-0.75,5.25C429.947,415.86,425.592,415.464,425.125,412.515z"/>
<path fill-rule="evenodd" clip-rule="evenodd" fill="#D4D3D7" stroke="#000000" stroke-width="1.25" stroke-linecap="square" stroke-miterlimit="10" d="  M413.877,470.265c2.051,2.959-5.561,7.336,5.248,6.75C422.055,469.284,416.4,473.907,413.877,470.265z"/>
<path fill-rule="evenodd" clip-rule="evenodd" fill="#137827" stroke="#000000" stroke-width="1.25" stroke-linecap="square" stroke-miterlimit="10" d="  M411.625,476.265C419.645,459.323,328.426,461.052,411.625,476.265L411.625,476.265z"/>
<path fill-rule="evenodd" clip-rule="evenodd" fill="#D4D3D7" stroke="#000000" stroke-width="1.25" stroke-linecap="square" stroke-miterlimit="10" d="  M418.375,476.265c6.494,8.921,22.213,9.737,36,8.25c0-0.5,0-1,0-1.5C443.414,478.955,424.116,468.559,418.375,476.265z"/>
<path fill-rule="evenodd" clip-rule="evenodd" fill="#62361E" stroke="#000000" stroke-width="1.25" stroke-linecap="square" stroke-miterlimit="10" d="  M414.627,393.015C397.021,405.8,393.578,388.052,414.627,393.015L414.627,393.015z"/>
<path fill-rule="evenodd" clip-rule="evenodd" fill="#7D5E23" stroke="#000000" stroke-width="1.25" stroke-linecap="square" stroke-miterlimit="10" d="  M423.625,480.015c-4.566,5.23-35.126,13.545-35.25,0C388.249,466.253,419.015,474.533,423.625,480.015z"/>
<path fill-rule="evenodd" clip-rule="evenodd" fill="#F4D342" stroke="#000000" stroke-width="1.25" stroke-linecap="square" stroke-miterlimit="10" d="  M425.875,485.265c-6.197,5.608-14.744,9.66-21.75,14.25c-1-1.5-2-3-3-4.5C409.128,487.772,418.809,479.429,425.875,485.265z"/>
<path fill-rule="evenodd" clip-rule="evenodd" fill="#F4D342" stroke="#000000" stroke-width="1.25" stroke-linecap="square" stroke-miterlimit="10" d="  M407.125,497.265c-6.657-1.263-14.106-6.792-20.25-9.75c0.75-1.75,1.5-3.5,2.25-5.25  C399.684,484.268,408.047,488.972,407.125,497.265z"/>
<path fill-rule="evenodd" clip-rule="evenodd" fill="#F4D342" stroke="#000000" stroke-width="1.25" stroke-linecap="square" stroke-miterlimit="10" d="  M404.125,492.765c-7.194,1.693-16.573,0-24,0c0-1.5,0-3,0-4.5C390.191,485.895,400.52,486.79,404.125,492.765z"/>
<path fill-rule="evenodd" clip-rule="evenodd" stroke="#000000" stroke-width="1.25" stroke-linecap="square" stroke-miterlimit="10" d="  M392.875,459.765c-22.249-0.81-38.276,0.88-61.5-6c2.421-3.2,5.236-6.349,8.25-9c-1.25-1-2.5-2-3.75-3  c-37.124,25.321,28.006,17.442,41.25,27.375C392.15,480.41,425.062,467.352,392.875,459.765z"/>
<path fill-rule="evenodd" clip-rule="evenodd" fill="#137827" stroke="#000000" stroke-width="1.25" stroke-linecap="square" stroke-miterlimit="10" d="  M441.625,438.015c-0.455-8.771-8.292-18.067-16.5-22.5C428.331,424.183,434.621,433.776,441.625,438.015z"/>
<path fill-rule="evenodd" clip-rule="evenodd" fill="#D4D3D7" stroke="#000000" stroke-width="1.25" stroke-linecap="square" stroke-miterlimit="10" d="  M422.875,414.765c-5.08-6.767-8.623-12.279-17.25-16.5c2.75,1.5,5.501,3,8.252,4.5c-2.5-2-5.001-4-7.502-6  c2.75,1.5,5.501,3,8.252,4.5c-2.75-2-5.501-4-8.252-6c3.213,0.811,5.909,3.205,9.002,4.5c-2.501-2-5.001-4-7.502-6  C417.871,398.509,423.994,406.337,422.875,414.765z"/>
<path fill-rule="evenodd" clip-rule="evenodd" stroke="#000000" stroke-width="1.25" stroke-linecap="square" stroke-miterlimit="10" d="  M492.625,435.015c-7.066-2.252-12.06-5.416-18-3c3.5,1.25,7,2.5,10.5,3.75c-5.974-1.307-70.944-28.792-62.25-15.75  c8.368,12.553,16.651,8.383,27,11.25C457.814,433.465,503.856,446.491,492.625,435.015z"/>
<path fill-rule="evenodd" clip-rule="evenodd" fill="#EED5B6" stroke="#000000" stroke-width="1.25" stroke-linecap="square" stroke-miterlimit="10" d="  M409.375,469.515c-4.967,4.05-40.879,10.09-39-5.25C372.149,449.787,405.482,463.246,409.375,469.515z"/>
<path fill-rule="evenodd" clip-rule="evenodd" fill="#EED5B6" stroke="#000000" stroke-width="1.25" stroke-linecap="square" stroke-miterlimit="10" d="  M450.625,430.515c-7.579,3.265-42.687-5.4-36.748-18.75C419.907,398.21,448.805,422.317,450.625,430.515z"/>
</svg>