<svg xmlns="http://www.w3.org/2000/svg" xmlns:xlink="http://www.w3.org/1999/xlink" version="1.1" id="Layer_1" x="0px" y="0px" enable-background="new 0 0 822.05 841.89" xml:space="preserve" viewBox="204.57 263.13 411.3 316.31">
<path fill-rule="evenodd" clip-rule="evenodd" fill="#FFFDE4" stroke="#000000" stroke-width="2" stroke-linecap="square" stroke-miterlimit="10" d="  M271.75,290.39c26.737,1.856,37.177-26.8,60.75-26.25c24.286,0.566,37.021,31.967,62.625,35.625  c37.283,5.326,15.138,36.442,4.125,52.875c-15.725,23.464-15.516,63.516-34.125,82.125c-25.452,25.452-39.386,6.702-62.25-6  c-26.674-14.819-38.731,10.676-63.75,14.25c-28.404,4.058-38.757-26.988-31.125-50.625c3.683-11.407,14.006-16.377,18-26.25  c6.298-15.57-0.313-28.517,2.25-44.25C232.106,298.221,247.088,288.315,271.75,290.39z"/>
<path fill-rule="evenodd" clip-rule="evenodd" fill="#F7931E" stroke="#000000" stroke-width="2" stroke-linecap="square" stroke-miterlimit="10" d="  M351.25,350.39c0.157,52.272-81.305,52.308-81.75,0C269.05,297.478,350.859,297.6,351.25,350.39z"/>
<path fill-rule="evenodd" clip-rule="evenodd" fill="#FFFDE4" stroke="#000000" stroke-width="2" stroke-linecap="square" stroke-miterlimit="10" d="  M548.5,300.89c-26.543,2.108-37.008-26.88-60.75-26.25c-24.212,0.643-37.132,31.438-62.25,35.625  c-36.805,6.134-16.359,35.219-4.5,52.875c17.983,26.774,17.242,55.863,34.5,81.75c19.401,29.103,43.353,4.665,61.875-5.625  c26.98-14.989,38.49,10.642,63.75,14.25c28.718,4.103,39.159-27.652,31.125-51.375c-3.685-10.879-14.078-16.067-18-25.5  c-6.556-15.769,0.954-28.758-1.5-44.25C589.025,308.873,572.842,298.842,548.5,300.89z"/>
<path fill-rule="evenodd" clip-rule="evenodd" fill="#F7931E" stroke="#000000" stroke-width="2" stroke-linecap="square" stroke-miterlimit="10" d="  M469,360.89c2.87,51.821,81.246,52.598,81.75,0C551.262,307.475,470.908,308.016,469,360.89z"/>
<path fill-rule="evenodd" clip-rule="evenodd" fill="#FFFDE4" stroke="#000000" stroke-width="2" stroke-linecap="square" stroke-miterlimit="10" d="  M367,420.89c27.616,2.301,39.091-29.551,64.5-26.25c21.825,2.835,40.234,30.139,63.375,36.75c36.393,10.397,3.635,43.67-6.375,59.25  c-15.294,23.805-10.875,59.938-33,78.375c-28.027,23.356-38.018-2.972-61.5-11.625c-27.149-10.004-36.807,16.23-62.25,16.5  c-30.544,0.324-34.602-31.41-27.375-55.5c3.075-10.25,14.47-14.533,17.625-24c5.267-15.8-0.812-30.252,1.125-45.75  C325.899,426.449,346.557,419.17,367,420.89z"/>
<path fill-rule="evenodd" clip-rule="evenodd" fill="#F7931E" stroke="#000000" stroke-width="2" stroke-linecap="square" stroke-miterlimit="10" d="  M445.75,480.14c0.522,53.241-82.233,53.051-81.75,0C364.475,428.014,445.907,427.871,445.75,480.14z"/>
</svg>