<svg xmlns="http://www.w3.org/2000/svg" xmlns:xlink="http://www.w3.org/1999/xlink" version="1.1" id="Layer_1" x="0px" y="0px" enable-background="new 0 0 822.05 841.89" xml:space="preserve" viewBox="323.17 344.31 174.38 156.3">
<path fill-rule="evenodd" clip-rule="evenodd" stroke="#000000" stroke-width="1.25" stroke-linecap="square" stroke-miterlimit="10" d="  M408.375,346.015c38.728,7.182,85.181,29.709,88.5,74.25c1.601,21.484-32.199,80.355-55.5,55.5c30.538-6.61,52.354-33.017,43.5-64.5  c-4.726-16.802-17.724-27.406-30.375-38.25C442.052,362.346,405.72,359.814,408.375,346.015z"/>
<path fill-rule="evenodd" clip-rule="evenodd" fill="#F5F4F4" stroke="#000000" stroke-width="1.25" stroke-linecap="square" stroke-miterlimit="10" d="  M454.125,482.515C432.573,478.709,456.646,452.526,454.125,482.515L454.125,482.515z"/>
<path fill-rule="evenodd" clip-rule="evenodd" fill="#FA100D" stroke="#000000" stroke-width="1.25" stroke-linecap="square" stroke-miterlimit="10" d="  M390.375,486.265c-28.188-13.238-62.155-37.492-66.375-71.25c-2.449-19.589,17.736-90.07,45.375-64.5  c-31.712,3.578-42.226,45.687-34.5,72C341.319,444.461,393.078,477.083,390.375,486.265z"/>
<path fill-rule="evenodd" clip-rule="evenodd" fill="#F5F4F4" stroke="#000000" stroke-width="1.25" stroke-linecap="square" stroke-miterlimit="10" d="  M391.875,487.765C373.159,484.961,390.76,458.573,391.875,487.765L391.875,487.765z"/>
<path fill-rule="evenodd" clip-rule="evenodd" fill="#F5F4F4" stroke="#000000" stroke-width="1.25" stroke-linecap="square" stroke-miterlimit="10" d="  M375.375,363.265C365.373,354.061,372.473,346.98,375.375,363.265L375.375,363.265z"/>
<path fill-rule="evenodd" clip-rule="evenodd" fill="#1C2D91" stroke="#000000" stroke-width="1.25" stroke-linecap="square" stroke-miterlimit="10" d="  M412.125,415.765c-6.979,13.805-28.006,11.648-43.125,8.625c-15.123-3.024-7.125-43.609-7.125-53.258  c0-15.663,32.209-16.158,41.25-10.867C419.319,369.743,412.125,396.931,412.125,415.765z"/>
<path fill-rule="evenodd" clip-rule="evenodd" fill="#12307E" stroke="#000000" stroke-width="1.25" stroke-linecap="square" stroke-miterlimit="10" d="  M412.875,415.765c-3.865,11.525-30.04,15.423-39.75,8.25c-9.438-6.971-10.256-44.494-5.25-51.75c6.589-9.55,23.562-16.675,36.75-9  C420.196,372.328,412.875,398.966,412.875,415.765z"/>
<path fill-rule="evenodd" clip-rule="evenodd" fill="#F5F4F4" stroke="#000000" stroke-width="1.25" stroke-linecap="square" stroke-miterlimit="10" d="  M410.625,355.015C303.652,355.015,413.682,332.343,410.625,355.015L410.625,355.015z"/>
<path fill-rule="evenodd" clip-rule="evenodd" fill="#FA100D" stroke="#000000" stroke-width="1.25" stroke-linecap="square" stroke-miterlimit="10" d="  M367.875,407.515c3.75-8.25,7.5-16.5,11.25-24.75c1.25,3.5,2.5,7,3.75,10.5c5-7.5,10-15,15-22.5  c5.096,2.406,13.402,9.546,16.5,14.25c-11,8-22,16-33,24c-1.25-3.25-2.5-6.5-3.75-9.75  C374.375,402.015,371.125,404.765,367.875,407.515z"/>
<path fill-rule="evenodd" clip-rule="evenodd" fill="#F5F4F4" stroke="#000000" stroke-width="1.25" stroke-linecap="square" stroke-miterlimit="10" d="  M387.375,466.765c21.5-0.25,43-0.5,64.5-0.75C452.043,515.095,373.827,507.143,387.375,466.765z"/>
<path fill-rule="evenodd" clip-rule="evenodd" fill="#F5F4F4" stroke="#000000" stroke-width="1.25" stroke-linecap="square" stroke-miterlimit="10" d="  M451.875,469.015c-7.841,7.662-65.44,15.95-64.5,0C388.321,452.96,443.656,461.901,451.875,469.015z"/>
<path fill-rule="evenodd" clip-rule="evenodd" fill="#F5F4F4" stroke="#000000" stroke-width="1.25" stroke-linecap="square" stroke-miterlimit="10" d="  M397.125,452.515c14.5-0.25,29-0.5,43.5-0.75C444.325,478.339,391.617,476.506,397.125,452.515z"/>
<path fill-rule="evenodd" clip-rule="evenodd" fill="#F5F4F4" stroke="#000000" stroke-width="1.25" stroke-linecap="square" stroke-miterlimit="10" d="  M442.875,441.265c-14.062,7.909-36.697,8.028-50.25,0C405.495,432.801,429.928,432.382,442.875,441.265z"/>
<path fill-rule="evenodd" clip-rule="evenodd" fill="#F5F4F4" stroke="#000000" stroke-width="1.25" stroke-linecap="square" stroke-miterlimit="10" d="  M403.125,367.765C381.425,363.413,405.883,334.919,403.125,367.765L403.125,367.765z"/>
<path fill-rule="evenodd" clip-rule="evenodd" fill="#F4F12C" stroke="#000000" stroke-width="1.25" stroke-linecap="square" stroke-miterlimit="10" d="  M406.875,437.515c-9.836-23.499-32.827-79.353,19.5-69C471.653,377.474,445.489,444.948,406.875,437.515z"/>
<path fill-rule="evenodd" clip-rule="evenodd" fill="#FFFFFF" d="M413.625,433.015l-5.25-24.75L413.625,433.015z"/>
<line fill="none" stroke="#000000" stroke-width="1.25" stroke-linecap="square" stroke-miterlimit="10" x1="413.625" y1="433.015" x2="408.375" y2="408.265"/>
<path fill-rule="evenodd" clip-rule="evenodd" fill="#FFFFFF" d="M425.625,434.515l6.75-24.75L425.625,434.515z"/>
<line fill="none" stroke="#000000" stroke-width="1.25" stroke-linecap="square" stroke-miterlimit="10" x1="425.625" y1="434.515" x2="432.375" y2="409.765"/>
<path fill-rule="evenodd" clip-rule="evenodd" fill="#FFFFFF" stroke="#000000" stroke-width="1.25" stroke-linecap="square" stroke-miterlimit="10" d="  M432.375,408.265C431.025,413.814,430.482,416.049,432.375,408.265L432.375,408.265z"/>
<path fill-rule="evenodd" clip-rule="evenodd" fill="#FFFFFF" d="M417.375,418.765l-3.75-12.75L417.375,418.765z"/>
<line fill="none" stroke="#000000" stroke-width="1.25" stroke-linecap="square" stroke-miterlimit="10" x1="417.375" y1="418.765" x2="413.625" y2="406.015"/>
<path fill-rule="evenodd" clip-rule="evenodd" fill="#F4F12C" stroke="#000000" stroke-width="1.25" stroke-linecap="square" stroke-miterlimit="10" d="  M418.125,419.515C399.804,469.288,442.895,434.023,418.125,419.515L418.125,419.515z"/>
<path fill-rule="evenodd" clip-rule="evenodd" fill="#F7F7F7" stroke="#000000" stroke-width="1.25" stroke-linecap="square" stroke-miterlimit="10" d="  M422.625,418.765C421.208,419.065,412.911,420.822,422.625,418.765L422.625,418.765z"/>
<path fill-rule="evenodd" clip-rule="evenodd" fill="#FFFFFF" stroke="#000000" stroke-width="1.25" stroke-linecap="square" stroke-miterlimit="10" d="  M408.375,406.765C409.724,412.314,410.268,414.549,408.375,406.765L408.375,406.765z"/>
<path fill-rule="evenodd" clip-rule="evenodd" fill="#FFFFFF" d="M422.625,419.515l4.5-12.75L422.625,419.515z"/>
<line fill="none" stroke="#000000" stroke-width="1.25" stroke-linecap="square" stroke-miterlimit="10" x1="422.625" y1="419.515" x2="427.125" y2="406.765"/>
<path fill="none" stroke="#000000" stroke-width="1.25" stroke-linecap="square" stroke-miterlimit="10" d="M408.375,406.765  c6.48-1.502,16.243-0.941,24,1.5"/>
<path fill-rule="evenodd" clip-rule="evenodd" stroke="#000000" stroke-width="1.25" stroke-linecap="square" stroke-miterlimit="10" d="  M410.625,460.015c1.94-1.759,9.425-4.648,18.75-3C423.885,461.796,418.661,459.851,410.625,460.015z"/>
<path fill-rule="evenodd" clip-rule="evenodd" fill="#BFBFBB" stroke="#000000" stroke-width="1.25" stroke-linecap="square" stroke-miterlimit="10" d="  M419.625,435.265c4.226,0.434,8.978,0.591,12.75,1.5c-8.221,2.109-18.104,1.841-26.25-0.75  C410.655,435.165,414.993,435.386,419.625,435.265z"/>
<path fill-rule="evenodd" clip-rule="evenodd" fill="#BCBCBB" stroke="#000000" stroke-width="1.25" stroke-linecap="square" stroke-miterlimit="10" d="  M408.375,457.015c0-4,0-8,0-12C438.457,438.004,433.785,466.251,408.375,457.015z"/>
<path fill-rule="evenodd" clip-rule="evenodd" fill="#BCBCBB" stroke="#000000" stroke-width="1.25" stroke-linecap="square" stroke-miterlimit="10" d="  M409.125,445.765c-0.055,0.029,14.957-2.119,21.75-1.5C424.537,448.613,417.144,447.207,409.125,445.765z"/>
<path fill-rule="evenodd" clip-rule="evenodd" fill="#BCBCBB" stroke="#000000" stroke-width="1.25" stroke-linecap="square" stroke-miterlimit="10" d="  M406.125,444.265c1.397-13.036,14.32-7.5,27-7.5C430.888,448.928,417.63,448.383,406.125,444.265z"/>
<path fill-rule="evenodd" clip-rule="evenodd" fill="#F5F4F4" stroke="#000000" stroke-width="1.25" stroke-linecap="square" stroke-miterlimit="10" d="  M445.125,442.015c-15.85,6.785-36.577,7.153-53.25,0.75c-6.933,26.389,38.764,20.981,52.5,12.75  C443.163,451.791,445.719,446.464,445.125,442.015z"/>
</svg>