<svg xmlns="http://www.w3.org/2000/svg" xmlns:xlink="http://www.w3.org/1999/xlink" version="1.1" id="Layer_1" x="0px" y="0px" enable-background="new 0 0 822.05 841.89" xml:space="preserve" viewBox="326.14 336.92 169.25 169.26">
<path fill-rule="evenodd" clip-rule="evenodd" fill="#878787" stroke="#000000" stroke-width="1.25" stroke-linecap="square" stroke-miterlimit="10" d="  M392.011,348.515c4,1.75,8,3.5,12,5.25c-5.499-24.291-29.938-15.003-42.75-2.25C370.989,347.765,381.738,346.741,392.011,348.515z"/>
<path fill-rule="evenodd" clip-rule="evenodd" fill="#878787" stroke="#000000" stroke-width="1.25" stroke-linecap="square" stroke-miterlimit="10" d="  M484.261,419.015c-19.51-22.444-9.204-56.829-44.25-65.25c-13.063-3.139-24.315,4.723-37.444-0.806  c-14.663-6.174-27.369-7.605-42.056-0.694c-29.854,14.047-21.024,36.956-22.5,64.5c-0.81,15.11-14.94,83.957,12,72  c-13.931-12.55,1.493-56.989,15.75-71.25c-1.304,15.117-4.094,82.357,2.25,86.25c22.199,13.62,19.27-54.548,24.75-67.5  c16.699,14.938,9.148,40.844,16.5,54c3.259,5.831-2.193,12.172,13.499,8.25c14.68-3.669,1.67-12.144,1.501-22.5  c-0.21-12.838,0.695-63.217,21-30.75c4.561,7.292-7.728,69.723,10.5,35.25c9.621-1.947,13.125-63.86,15-79.5  c5.327,12.224,12.988,27.038,24,25.5C492.145,420.646,488.119,421.935,484.261,419.015z"/>
<path fill-rule="evenodd" clip-rule="evenodd" fill="#FFFFFF" stroke="#000000" stroke-width="1.25" stroke-linecap="square" stroke-miterlimit="10" d="  M368.011,393.515C361.638,392.62,361.585,392.613,368.011,393.515L368.011,393.515z"/>
<path fill="none" stroke="#000000" stroke-width="1.25" stroke-linecap="square" stroke-miterlimit="10" d="M462.511,438.515  c-5.532,12.963-6.663,28.556-6.75,42"/>
<path fill="none" stroke="#000000" stroke-width="1.25" stroke-linecap="square" stroke-miterlimit="10" d="M438.511,437.015  c7.33-2.247,12.922-7.256,15.75-14.25"/>
<path fill-rule="evenodd" clip-rule="evenodd" fill="#878787" d="M371.761,364.265c8.404-9.725,34.836-37.162,49.498-22.5  c14.504,14.504,0.476,32.666-4.125,48c-4.42,14.734-2.827,39.628-26.998,25.125C379.579,408.556,374.942,373.673,371.761,364.265z"/>
<path fill="none" stroke="#000000" stroke-width="1.25" stroke-linecap="square" stroke-miterlimit="10" d="M371.761,364.265  c8.404-9.725,34.836-37.162,49.498-22.5c14.135,14.134,0.956,29.295-3,44.25c-4.991,18.867,0.61,34.477-23.998,30.375  c-11.935-1.989-18.151-32.58-16.5-41.625"/>
<path fill="none" stroke="#000000" stroke-width="1.25" stroke-linecap="square" stroke-miterlimit="10" d="M359.761,389.015  c2.842-3.831,6.258-4.531,9.75-1.5"/>
<path fill-rule="evenodd" clip-rule="evenodd" fill="#FFFFFF" stroke="#000000" stroke-width="1.25" stroke-linecap="square" stroke-miterlimit="10" d="  M380.011,414.515c-11.686,24.166-44.07,13.963-53.25-6.75C344.851,417.344,358.603,422.216,380.011,414.515z"/>
<path fill="none" stroke="#000000" stroke-width="1.25" stroke-linecap="square" stroke-miterlimit="10" d="M365.761,395.765  C365.119,395.419,364.117,394.878,365.761,395.765L365.761,395.765z"/>
<path fill="none" stroke="#000000" stroke-width="1.25" stroke-linecap="square" stroke-miterlimit="10" d="M365.761,395.765  C365.119,395.419,364.117,394.878,365.761,395.765L365.761,395.765z"/>
<path fill="none" stroke="#000000" stroke-width="1.25" stroke-linecap="square" stroke-miterlimit="10" d="M366.511,395.015  C363.673,395.015,363.673,395.015,366.511,395.015L366.511,395.015z"/>
<path fill="none" stroke="#000000" stroke-width="1.25" stroke-linecap="square" stroke-miterlimit="10" d="M366.511,395.015  C363.696,395.229,363.673,395.231,366.511,395.015L366.511,395.015z"/>
<path fill="none" stroke="#000000" stroke-width="1.25" stroke-linecap="square" stroke-miterlimit="10" d="M365.011,395.765  C365.011,394.765,365.011,394.765,365.011,395.765L365.011,395.765z"/>
<path fill="none" stroke="#000000" stroke-width="1.25" stroke-linecap="square" stroke-miterlimit="10" d="M366.511,395.015  C363.696,395.229,363.673,395.231,366.511,395.015L366.511,395.015z"/>
<path fill="none" stroke="#000000" stroke-width="1.25" stroke-linecap="square" stroke-miterlimit="10" d="M365.761,395.015  C363.764,395.981,364.403,395.672,365.761,395.015L365.761,395.015z"/>
<path fill="none" stroke="#000000" stroke-width="1.25" stroke-linecap="square" stroke-miterlimit="10" d="M365.761,395.015  C364.586,395.194,364.193,395.254,365.761,395.015L365.761,395.015z"/>
<path fill="none" stroke="#000000" stroke-width="1.25" stroke-linecap="square" stroke-miterlimit="10" d="M365.761,395.015  C364.318,395.364,363.903,395.464,365.761,395.015L365.761,395.015z"/>
<path fill="none" stroke="#000000" stroke-width="1.25" stroke-linecap="square" stroke-miterlimit="10" d="M365.761,395.765  C365.119,395.419,364.117,394.878,365.761,395.765L365.761,395.765z"/>
<path fill="none" stroke="#000000" stroke-width="1.25" stroke-linecap="square" stroke-miterlimit="10" d="M365.761,395.765  C365.119,395.419,364.117,394.878,365.761,395.765L365.761,395.765z"/>
<path fill="none" stroke="#000000" stroke-width="1.25" stroke-linecap="square" stroke-miterlimit="10" d="M365.761,395.765  C365.119,395.419,364.117,394.878,365.761,395.765L365.761,395.765z"/>
<path fill="none" stroke="#000000" stroke-width="1.25" stroke-linecap="square" stroke-miterlimit="10" d="M365.761,395.765  C365.119,395.419,364.117,394.878,365.761,395.765L365.761,395.765z"/>
<path fill="none" stroke="#000000" stroke-width="1.25" stroke-linecap="square" stroke-miterlimit="10" d="M366.511,395.015  C363.696,395.229,363.673,395.231,366.511,395.015L366.511,395.015z"/>
<path fill="none" stroke="#000000" stroke-width="1.25" stroke-linecap="square" stroke-miterlimit="10" d="M365.761,395.015  C364.061,395.015,364.061,395.015,365.761,395.015L365.761,395.015z"/>
<path fill="none" stroke="#000000" stroke-width="1.25" stroke-linecap="square" stroke-miterlimit="10" d="M365.011,395.765  C365.011,394.765,365.011,394.765,365.011,395.765L365.011,395.765z"/>
<path fill="none" stroke="#000000" stroke-width="1.25" stroke-linecap="square" stroke-miterlimit="10" d="M365.761,395.015  C363.875,395.927,364.895,395.434,365.761,395.015L365.761,395.015z"/>
<path fill="none" stroke="#000000" stroke-width="1.25" stroke-linecap="square" stroke-miterlimit="10" d="M365.761,395.015  C363.875,395.927,364.895,395.434,365.761,395.015L365.761,395.015z"/>
<path fill="none" stroke="#000000" stroke-width="1.25" stroke-linecap="square" stroke-miterlimit="10" d="M365.761,395.015  C364.114,395.015,364.114,395.015,365.761,395.015L365.761,395.015z"/>
<path fill="none" stroke="#000000" stroke-width="1.25" stroke-linecap="square" stroke-miterlimit="10" d="M365.761,395.015  C364.117,395.902,365.119,395.361,365.761,395.015L365.761,395.015z"/>
<path fill="none" stroke="#000000" stroke-width="1.25" stroke-linecap="square" stroke-miterlimit="10" d="M365.761,395.765  C365.119,395.419,364.117,394.878,365.761,395.765L365.761,395.765z"/>
<path fill="none" stroke="#000000" stroke-width="1.25" stroke-linecap="square" stroke-miterlimit="10" d="M365.761,395.765  C365.119,395.419,364.117,394.878,365.761,395.765L365.761,395.765z"/>
<path fill="none" stroke="#000000" stroke-width="1.25" stroke-linecap="square" stroke-miterlimit="10" d="M365.761,395.765  C365.119,395.419,364.117,394.878,365.761,395.765L365.761,395.765z"/>
<path fill="none" stroke="#000000" stroke-width="1.25" stroke-linecap="square" stroke-miterlimit="10" d="M365.761,395.765  C365.119,395.419,364.117,394.878,365.761,395.765L365.761,395.765z"/>
<path fill="none" stroke="#000000" stroke-width="1.25" stroke-linecap="square" stroke-miterlimit="10" d="M366.511,395.015  C363.782,395.582,364.397,395.454,366.511,395.015L366.511,395.015z"/>
<path fill="none" stroke="#000000" stroke-width="1.25" stroke-linecap="square" stroke-miterlimit="10" d="M365.761,395.015  C364.488,395.015,364.488,395.015,365.761,395.015L365.761,395.015z"/>
<path fill="none" stroke="#000000" stroke-width="1.25" stroke-linecap="square" stroke-miterlimit="10" d="M365.011,395.765  C365.614,395.162,365.614,395.162,365.011,395.765L365.011,395.765z"/>
<path fill="none" stroke="#000000" stroke-width="1.25" stroke-linecap="square" stroke-miterlimit="10" d="M365.761,395.015  C364.641,395.015,364.641,395.015,365.761,395.015L365.761,395.015z"/>
<path fill="none" stroke="#000000" stroke-width="1.25" stroke-linecap="square" stroke-miterlimit="10" d="M365.761,395.015  C364.117,395.902,365.119,395.361,365.761,395.015L365.761,395.015z"/>
<path fill="none" stroke="#000000" stroke-width="1.25" stroke-linecap="square" stroke-miterlimit="10" d="M365.761,395.015  C364.117,395.902,365.119,395.361,365.761,395.015L365.761,395.015z"/>
<path fill="none" stroke="#000000" stroke-width="1.25" stroke-linecap="square" stroke-miterlimit="10" d="M365.761,395.015  C364.117,395.902,365.119,395.361,365.761,395.015L365.761,395.015z"/>
<path fill="none" stroke="#000000" stroke-width="1.25" stroke-linecap="square" stroke-miterlimit="10" d="M365.761,395.765  C365.119,395.419,364.117,394.878,365.761,395.765L365.761,395.765z"/>
<path fill="none" stroke="#000000" stroke-width="1.25" stroke-linecap="square" stroke-miterlimit="10" d="M365.761,395.765  C365.119,395.419,364.117,394.878,365.761,395.765L365.761,395.765z"/>
<path fill="none" stroke="#000000" stroke-width="1.25" stroke-linecap="square" stroke-miterlimit="10" d="M365.761,395.765  C365.157,395.162,365.157,395.162,365.761,395.765L365.761,395.765z"/>
<path fill="none" stroke="#000000" stroke-width="1.25" stroke-linecap="square" stroke-miterlimit="10" d="M365.761,395.765  C364.761,395.765,364.761,395.765,365.761,395.765L365.761,395.765z"/>
<path fill="none" stroke="#000000" stroke-width="1.25" stroke-linecap="square" stroke-miterlimit="10" d="M365.761,395.015  C365.157,395.619,365.157,395.619,365.761,395.015L365.761,395.015z"/>
<path fill="none" stroke="#000000" stroke-width="1.25" stroke-linecap="square" stroke-miterlimit="10" d="M365.761,395.015  C365.157,395.619,365.157,395.619,365.761,395.015L365.761,395.015z"/>
<path fill="none" stroke="#000000" stroke-width="1.25" stroke-linecap="square" stroke-miterlimit="10" d="M365.011,395.765  C366.011,395.765,366.011,395.765,365.011,395.765L365.011,395.765z"/>
<path fill="none" stroke="#000000" stroke-width="1.25" stroke-linecap="square" stroke-miterlimit="10" d="M365.761,395.765  C365.157,395.162,365.157,395.162,365.761,395.765L365.761,395.765z"/>
<path fill="none" stroke="#000000" stroke-width="1.25" stroke-linecap="square" stroke-miterlimit="10" d="M365.761,395.765  C365.157,395.162,365.157,395.162,365.761,395.765L365.761,395.765z"/>
<path fill="none" stroke="#000000" stroke-width="1.25" stroke-linecap="square" stroke-miterlimit="10" d="M365.761,395.765  C365.157,395.162,365.157,395.162,365.761,395.765L365.761,395.765z"/>
<path fill="none" stroke="#000000" stroke-width="1.25" stroke-linecap="square" stroke-miterlimit="10" d="M365.761,395.765  C365.157,395.162,365.157,395.162,365.761,395.765L365.761,395.765z"/>
<path fill="none" stroke="#000000" stroke-width="1.25" stroke-linecap="square" stroke-miterlimit="10" d="M365.761,395.765  C365.157,395.162,365.157,395.162,365.761,395.765L365.761,395.765z"/>
<path fill="none" stroke="#000000" stroke-width="1.25" stroke-linecap="square" stroke-miterlimit="10" d="M365.761,395.765  C365.157,395.162,365.157,395.162,365.761,395.765L365.761,395.765z"/>
<path fill="none" stroke="#000000" stroke-width="1.25" stroke-linecap="square" stroke-miterlimit="10" d="M365.761,395.765  C364.114,395.765,364.114,395.765,365.761,395.765L365.761,395.765z"/>
<path fill="none" stroke="#000000" stroke-width="1.25" stroke-linecap="square" stroke-miterlimit="10" d="M365.761,395.765  C363.903,395.316,364.318,395.417,365.761,395.765L365.761,395.765z"/>
<path fill="none" stroke="#000000" stroke-width="1.25" stroke-linecap="square" stroke-miterlimit="10" d="M367.261,395.015  C362.396,395.015,362.396,395.015,367.261,395.015L367.261,395.015z"/>
<path fill="none" stroke="#000000" stroke-width="1.25" stroke-linecap="square" stroke-miterlimit="10" d="M366.511,395.015  C362.668,394.792,362.531,394.784,366.511,395.015L366.511,395.015z"/>
<path fill="none" stroke="#000000" stroke-width="1.25" stroke-linecap="square" stroke-miterlimit="10" d="M364.261,395.765  C365.905,394.878,364.902,395.419,364.261,395.765L364.261,395.765z"/>
<path fill="none" stroke="#000000" stroke-width="1.25" stroke-linecap="square" stroke-miterlimit="10" d="M366.511,395.015  C362.903,395.015,362.903,395.015,366.511,395.015L366.511,395.015z"/>
<path fill="none" stroke="#000000" stroke-width="1.25" stroke-linecap="square" stroke-miterlimit="10" d="M366.511,395.015  C362.942,395.444,362.846,395.455,366.511,395.015L366.511,395.015z"/>
<path fill="none" stroke="#000000" stroke-width="1.25" stroke-linecap="square" stroke-miterlimit="10" d="M366.511,395.015  C363.262,395.458,363.508,395.425,366.511,395.015L366.511,395.015z"/>
<path fill="none" stroke="#000000" stroke-width="1.25" stroke-linecap="square" stroke-miterlimit="10" d="M365.761,395.015  C363.63,395.266,363.782,395.248,365.761,395.015L365.761,395.015z"/>
<path fill="none" stroke="#000000" stroke-width="1.25" stroke-linecap="square" stroke-miterlimit="10" d="M365.761,395.015  C363.812,395.277,364.241,395.22,365.761,395.015L365.761,395.015z"/>
<path fill="none" stroke="#000000" stroke-width="1.25" stroke-linecap="square" stroke-miterlimit="10" d="M365.761,395.765  C364.114,395.765,364.114,395.765,365.761,395.765L365.761,395.765z"/>
<path fill="none" stroke="#000000" stroke-width="1.25" stroke-linecap="square" stroke-miterlimit="10" d="M365.761,395.765  C364.114,395.765,364.114,395.765,365.761,395.765L365.761,395.765z"/>
<path fill="none" stroke="#000000" stroke-width="1.25" stroke-linecap="square" stroke-miterlimit="10" d="M365.761,395.765  C365.119,395.419,364.117,394.878,365.761,395.765L365.761,395.765z"/>
<path fill="none" stroke="#000000" stroke-width="1.25" stroke-linecap="square" stroke-miterlimit="10" d="M367.261,395.015  C362.396,395.015,362.396,395.015,367.261,395.015L367.261,395.015z"/>
<path fill="none" stroke="#000000" stroke-width="1.25" stroke-linecap="square" stroke-miterlimit="10" d="M366.511,395.015  C362.492,394.336,362.648,394.363,366.511,395.015L366.511,395.015z"/>
<path fill="none" stroke="#000000" stroke-width="1.25" stroke-linecap="square" stroke-miterlimit="10" d="M364.261,395.765  C365.905,394.878,364.902,395.419,364.261,395.765L364.261,395.765z"/>
<path fill="none" stroke="#000000" stroke-width="1.25" stroke-linecap="square" stroke-miterlimit="10" d="M366.511,395.015  C363.262,395.458,363.508,395.425,366.511,395.015L366.511,395.015z"/>
<path fill="none" stroke="#000000" stroke-width="1.25" stroke-linecap="square" stroke-miterlimit="10" d="M366.511,395.015  C363.262,395.458,363.508,395.425,366.511,395.015L366.511,395.015z"/>
<path fill="none" stroke="#000000" stroke-width="1.25" stroke-linecap="square" stroke-miterlimit="10" d="M366.511,395.015  C363.455,395.232,363.25,395.247,366.511,395.015L366.511,395.015z"/>
<path fill="none" stroke="#000000" stroke-width="1.25" stroke-linecap="square" stroke-miterlimit="10" d="M365.761,395.015  C363.812,395.277,364.241,395.22,365.761,395.015L365.761,395.015z"/>
<path fill="none" stroke="#000000" stroke-width="1.25" stroke-linecap="square" stroke-miterlimit="10" d="M365.761,395.015  C363.764,395.981,364.403,395.672,365.761,395.015L365.761,395.015z"/>
<path fill="none" stroke="#000000" stroke-width="1.25" stroke-linecap="square" stroke-miterlimit="10" d="M365.761,395.765  C364.114,395.765,364.114,395.765,365.761,395.765L365.761,395.765z"/>
<path fill="none" stroke="#000000" stroke-width="1.25" stroke-linecap="square" stroke-miterlimit="10" d="M365.761,395.765  C363.903,395.316,364.318,395.417,365.761,395.765L365.761,395.765z"/>
<path fill="none" stroke="#000000" stroke-width="1.25" stroke-linecap="square" stroke-miterlimit="10" d="M365.761,395.765  C365.119,395.419,364.117,394.878,365.761,395.765L365.761,395.765z"/>
<path fill="none" stroke="#000000" stroke-width="1.25" stroke-linecap="square" stroke-miterlimit="10" d="M366.511,395.015  C363.622,395.015,363.622,395.015,366.511,395.015L366.511,395.015z"/>
<path fill="none" stroke="#000000" stroke-width="1.25" stroke-linecap="square" stroke-miterlimit="10" d="M366.511,395.015  C363.346,395.015,363.346,395.015,366.511,395.015L366.511,395.015z"/>
<path fill="none" stroke="#000000" stroke-width="1.25" stroke-linecap="square" stroke-miterlimit="10" d="M365.011,395.765  C365.011,394.765,365.011,394.765,365.011,395.765L365.011,395.765z"/>
<path fill="none" stroke="#000000" stroke-width="1.25" stroke-linecap="square" stroke-miterlimit="10" d="M366.511,395.015  C363.346,395.015,363.346,395.015,366.511,395.015L366.511,395.015z"/>
<path fill="none" stroke="#000000" stroke-width="1.25" stroke-linecap="square" stroke-miterlimit="10" d="M366.511,395.015  C363.696,395.229,363.673,395.231,366.511,395.015L366.511,395.015z"/>
<path fill="none" stroke="#000000" stroke-width="1.25" stroke-linecap="square" stroke-miterlimit="10" d="M365.761,395.015  C363.812,395.277,364.241,395.22,365.761,395.015L365.761,395.015z"/>
<path fill="none" stroke="#000000" stroke-width="1.25" stroke-linecap="square" stroke-miterlimit="10" d="M365.761,395.015  C364.244,395.48,363.973,395.564,365.761,395.015L365.761,395.015z"/>
<path fill="none" stroke="#000000" stroke-width="1.25" stroke-linecap="square" stroke-miterlimit="10" d="M365.761,395.015  C364.318,395.364,363.903,395.464,365.761,395.015L365.761,395.015z"/>
<path fill="none" stroke="#000000" stroke-width="1.25" stroke-linecap="square" stroke-miterlimit="10" d="M365.761,395.765  C363.903,395.316,364.318,395.417,365.761,395.765L365.761,395.765z"/>
<path fill="none" stroke="#000000" stroke-width="1.25" stroke-linecap="square" stroke-miterlimit="10" d="M365.761,395.765  C365.119,395.419,364.117,394.878,365.761,395.765L365.761,395.765z"/>
<path fill="none" stroke="#000000" stroke-width="1.25" stroke-linecap="square" stroke-miterlimit="10" d="M365.761,395.765  C365.119,395.419,364.117,394.878,365.761,395.765L365.761,395.765z"/>
<path fill="none" stroke="#000000" stroke-width="1.25" stroke-linecap="square" stroke-miterlimit="10" d="M366.511,395.015  C363.696,395.229,363.673,395.231,366.511,395.015L366.511,395.015z"/>
<path fill="none" stroke="#000000" stroke-width="1.25" stroke-linecap="square" stroke-miterlimit="10" d="M365.761,395.015  C364.488,395.015,364.488,395.015,365.761,395.015L365.761,395.015z"/>
<path fill="none" stroke="#000000" stroke-width="1.25" stroke-linecap="square" stroke-miterlimit="10" d="M365.011,395.765  C365.614,395.162,365.614,395.162,365.011,395.765L365.011,395.765z"/>
<path fill="none" stroke="#000000" stroke-width="1.25" stroke-linecap="square" stroke-miterlimit="10" d="M365.761,395.015  C364.114,395.015,364.114,395.015,365.761,395.015L365.761,395.015z"/>
<path fill="none" stroke="#000000" stroke-width="1.25" stroke-linecap="square" stroke-miterlimit="10" d="M365.761,395.015  C364.318,395.364,363.903,395.464,365.761,395.015L365.761,395.015z"/>
<path fill="none" stroke="#000000" stroke-width="1.25" stroke-linecap="square" stroke-miterlimit="10" d="M365.761,395.015  C364.117,395.902,365.119,395.361,365.761,395.015L365.761,395.015z"/>
<path fill="none" stroke="#000000" stroke-width="1.25" stroke-linecap="square" stroke-miterlimit="10" d="M365.761,395.015  C364.117,395.902,365.119,395.361,365.761,395.015L365.761,395.015z"/>
<path fill="none" stroke="#000000" stroke-width="1.25" stroke-linecap="square" stroke-miterlimit="10" d="M365.761,395.765  C365.119,395.419,364.117,394.878,365.761,395.765L365.761,395.765z"/>
<path fill="none" stroke="#000000" stroke-width="1.25" stroke-linecap="square" stroke-miterlimit="10" d="M365.761,395.765  C365.119,395.419,364.117,394.878,365.761,395.765L365.761,395.765z"/>
<path fill="none" stroke="#000000" stroke-width="1.25" stroke-linecap="square" stroke-miterlimit="10" d="M365.761,395.765  C363.903,395.316,364.318,395.417,365.761,395.765L365.761,395.765z"/>
<path fill="none" stroke="#000000" stroke-width="1.25" stroke-linecap="square" stroke-miterlimit="10" d="M365.761,395.765  C365.119,395.419,364.117,394.878,365.761,395.765L365.761,395.765z"/>
<path fill="none" stroke="#000000" stroke-width="1.25" stroke-linecap="square" stroke-miterlimit="10" d="M366.511,395.015  C363.09,395.015,363.09,395.015,366.511,395.015L366.511,395.015z"/>
<path fill="none" stroke="#000000" stroke-width="1.25" stroke-linecap="square" stroke-miterlimit="10" d="M366.511,395.015  C362.846,394.575,362.942,394.586,366.511,395.015L366.511,395.015z"/>
<path fill="none" stroke="#000000" stroke-width="1.25" stroke-linecap="square" stroke-miterlimit="10" d="M364.261,395.765  C365.905,394.878,364.902,395.419,364.261,395.765L364.261,395.765z"/>
<path fill="none" stroke="#000000" stroke-width="1.25" stroke-linecap="square" stroke-miterlimit="10" d="M366.511,395.015  C363.262,395.458,363.508,395.425,366.511,395.015L366.511,395.015z"/>
<path fill="none" stroke="#000000" stroke-width="1.25" stroke-linecap="square" stroke-miterlimit="10" d="M366.511,395.015  C363.262,395.458,363.508,395.425,366.511,395.015L366.511,395.015z"/>
<path fill="none" stroke="#000000" stroke-width="1.25" stroke-linecap="square" stroke-miterlimit="10" d="M366.511,395.015  C363.455,395.232,363.25,395.247,366.511,395.015L366.511,395.015z"/>
<path fill="none" stroke="#000000" stroke-width="1.25" stroke-linecap="square" stroke-miterlimit="10" d="M365.761,395.015  C364.061,395.015,364.061,395.015,365.761,395.015L365.761,395.015z"/>
<path fill="none" stroke="#000000" stroke-width="1.25" stroke-linecap="square" stroke-miterlimit="10" d="M365.761,395.015  C364.244,395.48,363.973,395.564,365.761,395.015L365.761,395.015z"/>
<path fill="none" stroke="#000000" stroke-width="1.25" stroke-linecap="square" stroke-miterlimit="10" d="M365.761,395.765  C363.903,395.316,364.318,395.417,365.761,395.765L365.761,395.765z"/>
<path fill="none" stroke="#000000" stroke-width="1.25" stroke-linecap="square" stroke-miterlimit="10" d="M365.761,395.765  C363.903,395.316,364.318,395.417,365.761,395.765L365.761,395.765z"/>
<path fill="none" stroke="#000000" stroke-width="1.25" stroke-linecap="square" stroke-miterlimit="10" d="M365.761,395.765  C365.119,395.419,364.117,394.878,365.761,395.765L365.761,395.765z"/>
<path fill="none" stroke="#000000" stroke-width="1.25" stroke-linecap="square" stroke-miterlimit="10" d="M366.511,395.015  C363.622,395.015,363.622,395.015,366.511,395.015L366.511,395.015z"/>
<path fill="none" stroke="#000000" stroke-width="1.25" stroke-linecap="square" stroke-miterlimit="10" d="M366.511,395.015  C363.346,395.015,363.346,395.015,366.511,395.015L366.511,395.015z"/>
<path fill="none" stroke="#000000" stroke-width="1.25" stroke-linecap="square" stroke-miterlimit="10" d="M365.011,395.765  C365.011,394.765,365.011,394.765,365.011,395.765L365.011,395.765z"/>
<path fill="none" stroke="#000000" stroke-width="1.25" stroke-linecap="square" stroke-miterlimit="10" d="M366.511,395.015  C363.346,395.015,363.346,395.015,366.511,395.015L366.511,395.015z"/>
<path fill="none" stroke="#000000" stroke-width="1.25" stroke-linecap="square" stroke-miterlimit="10" d="M366.511,395.015  C363.696,395.229,363.673,395.231,366.511,395.015L366.511,395.015z"/>
<path fill="none" stroke="#000000" stroke-width="1.25" stroke-linecap="square" stroke-miterlimit="10" d="M365.761,395.015  C363.812,395.277,364.241,395.22,365.761,395.015L365.761,395.015z"/>
<path fill="none" stroke="#000000" stroke-width="1.25" stroke-linecap="square" stroke-miterlimit="10" d="M365.761,395.015  C364.244,395.48,363.973,395.564,365.761,395.015L365.761,395.015z"/>
<path fill="none" stroke="#000000" stroke-width="1.25" stroke-linecap="square" stroke-miterlimit="10" d="M365.761,395.015  C364.318,395.364,363.903,395.464,365.761,395.015L365.761,395.015z"/>
<path fill="none" stroke="#000000" stroke-width="1.25" stroke-linecap="square" stroke-miterlimit="10" d="M365.761,395.765  C363.903,395.316,364.318,395.417,365.761,395.765L365.761,395.765z"/>
<path fill="none" stroke="#000000" stroke-width="1.25" stroke-linecap="square" stroke-miterlimit="10" d="M365.761,395.765  C365.119,395.419,364.117,394.878,365.761,395.765L365.761,395.765z"/>
<path fill="none" stroke="#000000" stroke-width="1.25" stroke-linecap="square" stroke-miterlimit="10" d="M365.761,395.765  C365.119,395.419,364.117,394.878,365.761,395.765L365.761,395.765z"/>
<path fill="none" stroke="#000000" stroke-width="1.25" stroke-linecap="square" stroke-miterlimit="10" d="M366.511,395.015  C363.346,395.015,363.346,395.015,366.511,395.015L366.511,395.015z"/>
<path fill="none" stroke="#000000" stroke-width="1.25" stroke-linecap="square" stroke-miterlimit="10" d="M366.511,395.015  C363.673,395.015,363.673,395.015,366.511,395.015L366.511,395.015z"/>
<path fill="none" stroke="#000000" stroke-width="1.25" stroke-linecap="square" stroke-miterlimit="10" d="M365.011,395.765  C365.011,394.765,365.011,394.765,365.011,395.765L365.011,395.765z"/>
<path fill="none" stroke="#000000" stroke-width="1.25" stroke-linecap="square" stroke-miterlimit="10" d="M366.511,395.015  C363.696,395.229,363.673,395.231,366.511,395.015L366.511,395.015z"/>
<path fill="none" stroke="#000000" stroke-width="1.25" stroke-linecap="square" stroke-miterlimit="10" d="M365.761,395.015  C363.812,395.277,364.241,395.22,365.761,395.015L365.761,395.015z"/>
<path fill="none" stroke="#000000" stroke-width="1.25" stroke-linecap="square" stroke-miterlimit="10" d="M365.761,395.015  C363.764,395.981,364.403,395.672,365.761,395.015L365.761,395.015z"/>
<path fill="none" stroke="#000000" stroke-width="1.25" stroke-linecap="square" stroke-miterlimit="10" d="M365.761,395.015  C364.318,395.364,363.903,395.464,365.761,395.015L365.761,395.015z"/>
<path fill="none" stroke="#000000" stroke-width="1.25" stroke-linecap="square" stroke-miterlimit="10" d="M365.761,395.015  C364.117,395.902,365.119,395.361,365.761,395.015L365.761,395.015z"/>
<path fill="none" stroke="#000000" stroke-width="1.25" stroke-linecap="square" stroke-miterlimit="10" d="M365.761,395.765  C365.119,395.419,364.117,394.878,365.761,395.765L365.761,395.765z"/>
<path fill="none" stroke="#000000" stroke-width="1.25" stroke-linecap="square" stroke-miterlimit="10" d="M365.761,395.765  C365.119,395.419,364.117,394.878,365.761,395.765L365.761,395.765z"/>
<path fill="none" stroke="#000000" stroke-width="1.25" stroke-linecap="square" stroke-miterlimit="10" d="M365.761,395.765  C365.157,395.162,365.157,395.162,365.761,395.765L365.761,395.765z"/>
<path fill="none" stroke="#000000" stroke-width="1.25" stroke-linecap="square" stroke-miterlimit="10" d="M365.761,395.015  C364.586,395.194,364.193,395.254,365.761,395.015L365.761,395.015z"/>
<path fill="none" stroke="#000000" stroke-width="1.25" stroke-linecap="square" stroke-miterlimit="10" d="M365.761,395.015  C364.114,395.015,364.114,395.015,365.761,395.015L365.761,395.015z"/>
<path fill="none" stroke="#000000" stroke-width="1.25" stroke-linecap="square" stroke-miterlimit="10" d="M365.011,395.765  C366.011,395.765,366.011,395.765,365.011,395.765L365.011,395.765z"/>
<path fill="none" stroke="#000000" stroke-width="1.25" stroke-linecap="square" stroke-miterlimit="10" d="M365.761,395.015  C364.117,395.902,365.119,395.361,365.761,395.015L365.761,395.015z"/>
<path fill="none" stroke="#000000" stroke-width="1.25" stroke-linecap="square" stroke-miterlimit="10" d="M365.761,395.765  C365.119,395.419,364.117,394.878,365.761,395.765L365.761,395.765z"/>
<path fill="none" stroke="#000000" stroke-width="1.25" stroke-linecap="square" stroke-miterlimit="10" d="M365.761,395.765  C365.119,395.419,364.117,394.878,365.761,395.765L365.761,395.765z"/>
<path fill="none" stroke="#000000" stroke-width="1.25" stroke-linecap="square" stroke-miterlimit="10" d="M365.761,395.765  C365.119,395.419,364.117,394.878,365.761,395.765L365.761,395.765z"/>
<path fill="none" stroke="#000000" stroke-width="1.25" stroke-linecap="square" stroke-miterlimit="10" d="M365.761,395.765  C365.119,395.419,364.117,394.878,365.761,395.765L365.761,395.765z"/>
<path fill="none" stroke="#000000" stroke-width="1.25" stroke-linecap="square" stroke-miterlimit="10" d="M365.761,395.765  C365.119,395.419,364.117,394.878,365.761,395.765L365.761,395.765z"/>
<path fill="none" stroke="#000000" stroke-width="1.25" stroke-linecap="square" stroke-miterlimit="10" d="M365.761,395.765  C365.119,395.419,364.117,394.878,365.761,395.765L365.761,395.765z"/>
<path fill="none" stroke="#000000" stroke-width="1.25" stroke-linecap="square" stroke-miterlimit="10" d="M365.761,395.765  C365.119,395.419,364.117,394.878,365.761,395.765L365.761,395.765z"/>
<path fill="none" stroke="#000000" stroke-width="1.25" stroke-linecap="square" stroke-miterlimit="10" d="M366.511,395.015  C363.696,395.229,363.673,395.231,366.511,395.015L366.511,395.015z"/>
<path fill="none" stroke="#000000" stroke-width="1.25" stroke-linecap="square" stroke-miterlimit="10" d="M366.511,395.015  C363.696,395.229,363.673,395.231,366.511,395.015L366.511,395.015z"/>
<path fill="none" stroke="#000000" stroke-width="1.25" stroke-linecap="square" stroke-miterlimit="10" d="M365.011,395.765  C365.011,394.765,365.011,394.765,365.011,395.765L365.011,395.765z"/>
<path fill="none" stroke="#000000" stroke-width="1.25" stroke-linecap="square" stroke-miterlimit="10" d="M365.761,395.015  C363.812,395.277,364.241,395.22,365.761,395.015L365.761,395.015z"/>
<path fill="none" stroke="#000000" stroke-width="1.25" stroke-linecap="square" stroke-miterlimit="10" d="M365.761,395.015  C363.875,395.927,364.895,395.434,365.761,395.015L365.761,395.015z"/>
<path fill="none" stroke="#000000" stroke-width="1.25" stroke-linecap="square" stroke-miterlimit="10" d="M365.761,395.015  C364.114,395.015,364.114,395.015,365.761,395.015L365.761,395.015z"/>
<path fill="none" stroke="#000000" stroke-width="1.25" stroke-linecap="square" stroke-miterlimit="10" d="M365.761,395.015  C364.117,395.902,365.119,395.361,365.761,395.015L365.761,395.015z"/>
<path fill="none" stroke="#000000" stroke-width="1.25" stroke-linecap="square" stroke-miterlimit="10" d="M365.761,395.765  C365.119,395.419,364.117,394.878,365.761,395.765L365.761,395.765z"/>
<path fill="none" stroke="#000000" stroke-width="1.25" stroke-linecap="square" stroke-miterlimit="10" d="M365.761,395.765  C365.119,395.419,364.117,394.878,365.761,395.765L365.761,395.765z"/>
<path fill="none" stroke="#000000" stroke-width="1.25" stroke-linecap="square" stroke-miterlimit="10" d="M365.761,395.765  C365.119,395.419,364.117,394.878,365.761,395.765L365.761,395.765z"/>
<path fill="none" stroke="#000000" stroke-width="1.25" stroke-linecap="square" stroke-miterlimit="10" d="M365.761,395.765  C365.119,395.419,364.117,394.878,365.761,395.765L365.761,395.765z"/>
<path fill="none" stroke="#000000" stroke-width="1.25" stroke-linecap="square" stroke-miterlimit="10" d="M366.511,395.015  C363.696,395.229,363.673,395.231,366.511,395.015L366.511,395.015z"/>
<path fill="none" stroke="#000000" stroke-width="1.25" stroke-linecap="square" stroke-miterlimit="10" d="M365.761,395.015  C364.061,395.015,364.061,395.015,365.761,395.015L365.761,395.015z"/>
<path fill="none" stroke="#000000" stroke-width="1.25" stroke-linecap="square" stroke-miterlimit="10" d="M365.011,395.765  C365.614,395.162,365.614,395.162,365.011,395.765L365.011,395.765z"/>
<path fill="none" stroke="#000000" stroke-width="1.25" stroke-linecap="square" stroke-miterlimit="10" d="M365.761,395.015  C364.586,395.194,364.193,395.254,365.761,395.015L365.761,395.015z"/>
<path fill="none" stroke="#000000" stroke-width="1.25" stroke-linecap="square" stroke-miterlimit="10" d="M365.761,395.015  C364.114,395.015,364.114,395.015,365.761,395.015L365.761,395.015z"/>
<path fill="none" stroke="#000000" stroke-width="1.25" stroke-linecap="square" stroke-miterlimit="10" d="M365.761,395.015  C364.117,395.902,365.119,395.361,365.761,395.015L365.761,395.015z"/>
<path fill="none" stroke="#000000" stroke-width="1.25" stroke-linecap="square" stroke-miterlimit="10" d="M365.761,395.015  C364.117,395.902,365.119,395.361,365.761,395.015L365.761,395.015z"/>
<path fill="none" stroke="#000000" stroke-width="1.25" stroke-linecap="square" stroke-miterlimit="10" d="M365.761,395.765  C365.119,395.419,364.117,394.878,365.761,395.765L365.761,395.765z"/>
<path fill="none" stroke="#000000" stroke-width="1.25" stroke-linecap="square" stroke-miterlimit="10" d="M365.761,395.765  C365.119,395.419,364.117,394.878,365.761,395.765L365.761,395.765z"/>
<path fill="none" stroke="#000000" stroke-width="1.25" stroke-linecap="square" stroke-miterlimit="10" d="M365.761,395.765  C365.119,395.419,364.117,394.878,365.761,395.765L365.761,395.765z"/>
<path fill="none" stroke="#000000" stroke-width="1.25" stroke-linecap="square" stroke-miterlimit="10" d="M365.761,395.765  C365.157,395.162,365.157,395.162,365.761,395.765L365.761,395.765z"/>
<path fill="none" stroke="#000000" stroke-width="1.25" stroke-linecap="square" stroke-miterlimit="10" d="M366.511,395.015  C363.833,395.604,364.267,395.509,366.511,395.015L366.511,395.015z"/>
<path fill="none" stroke="#000000" stroke-width="1.25" stroke-linecap="square" stroke-miterlimit="10" d="M365.761,395.015  C364.114,395.015,364.114,395.015,365.761,395.015L365.761,395.015z"/>
<path fill="none" stroke="#000000" stroke-width="1.25" stroke-linecap="square" stroke-miterlimit="10" d="M365.011,395.765  C366.011,395.765,366.011,395.765,365.011,395.765L365.011,395.765z"/>
<path fill="none" stroke="#000000" stroke-width="1.25" stroke-linecap="square" stroke-miterlimit="10" d="M365.761,395.015  C364.117,395.902,365.119,395.361,365.761,395.015L365.761,395.015z"/>
<path fill="none" stroke="#000000" stroke-width="1.25" stroke-linecap="square" stroke-miterlimit="10" d="M365.761,395.765  C365.119,395.419,364.117,394.878,365.761,395.765L365.761,395.765z"/>
<path fill="none" stroke="#000000" stroke-width="1.25" stroke-linecap="square" stroke-miterlimit="10" d="M365.761,395.765  C365.119,395.419,364.117,394.878,365.761,395.765L365.761,395.765z"/>
<path fill="none" stroke="#000000" stroke-width="1.25" stroke-linecap="square" stroke-miterlimit="10" d="M365.761,395.765  C365.119,395.419,364.117,394.878,365.761,395.765L365.761,395.765z"/>
<path fill="none" stroke="#000000" stroke-width="1.25" stroke-linecap="square" stroke-miterlimit="10" d="M365.761,395.765  C365.119,395.419,364.117,394.878,365.761,395.765L365.761,395.765z"/>
<path fill="none" stroke="#000000" stroke-width="1.25" stroke-linecap="square" stroke-miterlimit="10" d="M365.761,395.765  C365.119,395.419,364.117,394.878,365.761,395.765L365.761,395.765z"/>
<path fill="none" stroke="#000000" stroke-width="1.25" stroke-linecap="square" stroke-miterlimit="10" d="M365.761,395.765  C365.157,395.162,365.157,395.162,365.761,395.765L365.761,395.765z"/>
<path fill="none" stroke="#000000" stroke-width="1.25" stroke-linecap="square" stroke-miterlimit="10" d="M365.761,395.765  C364.761,395.765,364.761,395.765,365.761,395.765L365.761,395.765z"/>
<path fill="none" stroke="#000000" stroke-width="1.25" stroke-linecap="square" stroke-miterlimit="10" d="M365.761,395.015  C365.157,395.619,365.157,395.619,365.761,395.015L365.761,395.015z"/>
<path fill="none" stroke="#000000" stroke-width="1.25" stroke-linecap="square" stroke-miterlimit="10" d="M365.761,395.015  C365.157,395.619,365.157,395.619,365.761,395.015L365.761,395.015z"/>
<path fill="none" stroke="#000000" stroke-width="1.25" stroke-linecap="square" stroke-miterlimit="10" d="M365.011,395.765  C366.011,395.765,366.011,395.765,365.011,395.765L365.011,395.765z"/>
<path fill="none" stroke="#000000" stroke-width="1.25" stroke-linecap="square" stroke-miterlimit="10" d="M365.761,395.765  C365.157,395.162,365.157,395.162,365.761,395.765L365.761,395.765z"/>
<path fill="none" stroke="#000000" stroke-width="1.25" stroke-linecap="square" stroke-miterlimit="10" d="M365.761,395.765  C365.157,395.162,365.157,395.162,365.761,395.765L365.761,395.765z"/>
<path fill="none" stroke="#000000" stroke-width="1.25" stroke-linecap="square" stroke-miterlimit="10" d="M365.761,395.765  C365.157,395.162,365.157,395.162,365.761,395.765L365.761,395.765z"/>
<path fill="none" stroke="#000000" stroke-width="1.25" stroke-linecap="square" stroke-miterlimit="10" d="M365.761,395.765  C365.157,395.162,365.157,395.162,365.761,395.765L365.761,395.765z"/>
<path fill="none" stroke="#000000" stroke-width="1.25" stroke-linecap="square" stroke-miterlimit="10" d="M365.761,395.765  C365.157,395.162,365.157,395.162,365.761,395.765L365.761,395.765z"/>
<path fill="none" stroke="#000000" stroke-width="1.25" stroke-linecap="square" stroke-miterlimit="10" d="M365.761,395.765  C365.157,395.162,365.157,395.162,365.761,395.765L365.761,395.765z"/>
<path fill="none" stroke="#000000" stroke-width="1.25" stroke-linecap="square" stroke-miterlimit="10" d="M365.761,395.765  C364.114,395.765,364.114,395.765,365.761,395.765L365.761,395.765z"/>
<path fill="none" stroke="#000000" stroke-width="1.25" stroke-linecap="square" stroke-miterlimit="10" d="M365.761,395.765  C363.903,395.316,364.318,395.417,365.761,395.765L365.761,395.765z"/>
<path fill="none" stroke="#000000" stroke-width="1.25" stroke-linecap="square" stroke-miterlimit="10" d="M367.261,395.015  C362.396,395.015,362.396,395.015,367.261,395.015L367.261,395.015z"/>
<path fill="none" stroke="#000000" stroke-width="1.25" stroke-linecap="square" stroke-miterlimit="10" d="M366.511,395.015  C362.492,394.336,362.648,394.363,366.511,395.015L366.511,395.015z"/>
<path fill="none" stroke="#000000" stroke-width="1.25" stroke-linecap="square" stroke-miterlimit="10" d="M364.261,395.765  C365.905,394.878,364.902,395.419,364.261,395.765L364.261,395.765z"/>
<path fill="none" stroke="#000000" stroke-width="1.25" stroke-linecap="square" stroke-miterlimit="10" d="M366.511,395.015  C362.903,395.015,362.903,395.015,366.511,395.015L366.511,395.015z"/>
<path fill="none" stroke="#000000" stroke-width="1.25" stroke-linecap="square" stroke-miterlimit="10" d="M366.511,395.015  C362.942,395.444,362.846,395.455,366.511,395.015L366.511,395.015z"/>
<path fill="none" stroke="#000000" stroke-width="1.25" stroke-linecap="square" stroke-miterlimit="10" d="M366.511,395.015  C363.262,395.458,363.508,395.425,366.511,395.015L366.511,395.015z"/>
<path fill="none" stroke="#000000" stroke-width="1.25" stroke-linecap="square" stroke-miterlimit="10" d="M365.761,395.015  C363.63,395.266,363.782,395.248,365.761,395.015L365.761,395.015z"/>
<path fill="none" stroke="#000000" stroke-width="1.25" stroke-linecap="square" stroke-miterlimit="10" d="M365.761,395.015  C363.812,395.277,364.241,395.22,365.761,395.015L365.761,395.015z"/>
<path fill="none" stroke="#000000" stroke-width="1.25" stroke-linecap="square" stroke-miterlimit="10" d="M365.761,395.765  C364.114,395.765,364.114,395.765,365.761,395.765L365.761,395.765z"/>
<path fill="none" stroke="#000000" stroke-width="1.25" stroke-linecap="square" stroke-miterlimit="10" d="M365.761,395.765  C363.903,395.316,364.318,395.417,365.761,395.765L365.761,395.765z"/>
<path fill="none" stroke="#000000" stroke-width="1.25" stroke-linecap="square" stroke-miterlimit="10" d="M365.761,395.765  C365.119,395.419,364.117,394.878,365.761,395.765L365.761,395.765z"/>
<path fill="none" stroke="#000000" stroke-width="1.25" stroke-linecap="square" stroke-miterlimit="10" d="M366.511,395.015  C362.804,395.015,362.804,395.015,366.511,395.015L366.511,395.015z"/>
<path fill="none" stroke="#000000" stroke-width="1.25" stroke-linecap="square" stroke-miterlimit="10" d="M366.511,395.015  C362.99,394.378,362.772,394.339,366.511,395.015L366.511,395.015z"/>
<path fill="none" stroke="#000000" stroke-width="1.25" stroke-linecap="square" stroke-miterlimit="10" d="M364.261,395.765  C365.905,394.878,364.902,395.419,364.261,395.765L364.261,395.765z"/>
<path fill="none" stroke="#000000" stroke-width="1.25" stroke-linecap="square" stroke-miterlimit="10" d="M366.511,395.015  C363.262,395.458,363.508,395.425,366.511,395.015L366.511,395.015z"/>
<path fill="none" stroke="#000000" stroke-width="1.25" stroke-linecap="square" stroke-miterlimit="10" d="M366.511,395.015  C363.262,395.458,363.508,395.425,366.511,395.015L366.511,395.015z"/>
<path fill="none" stroke="#000000" stroke-width="1.25" stroke-linecap="square" stroke-miterlimit="10" d="M366.511,395.015  C363.455,395.232,363.25,395.247,366.511,395.015L366.511,395.015z"/>
<path fill="none" stroke="#000000" stroke-width="1.25" stroke-linecap="square" stroke-miterlimit="10" d="M365.761,395.015  C364.061,395.015,364.061,395.015,365.761,395.015L365.761,395.015z"/>
<path fill="none" stroke="#000000" stroke-width="1.25" stroke-linecap="square" stroke-miterlimit="10" d="M365.761,395.015  C364.244,395.48,363.973,395.564,365.761,395.015L365.761,395.015z"/>
<path fill="none" stroke="#000000" stroke-width="1.25" stroke-linecap="square" stroke-miterlimit="10" d="M365.761,395.765  C363.903,395.316,364.318,395.417,365.761,395.765L365.761,395.765z"/>
<path fill="none" stroke="#000000" stroke-width="1.25" stroke-linecap="square" stroke-miterlimit="10" d="M365.761,395.765  C363.903,395.316,364.318,395.417,365.761,395.765L365.761,395.765z"/>
<path fill="none" stroke="#000000" stroke-width="1.25" stroke-linecap="square" stroke-miterlimit="10" d="M365.761,395.765  C365.119,395.419,364.117,394.878,365.761,395.765L365.761,395.765z"/>
<path fill="none" stroke="#000000" stroke-width="1.25" stroke-linecap="square" stroke-miterlimit="10" d="M366.511,395.015  C363.262,395.458,363.508,395.425,366.511,395.015L366.511,395.015z"/>
<path fill="none" stroke="#000000" stroke-width="1.25" stroke-linecap="square" stroke-miterlimit="10" d="M366.511,395.015  C363.346,395.015,363.346,395.015,366.511,395.015L366.511,395.015z"/>
<path fill="none" stroke="#000000" stroke-width="1.25" stroke-linecap="square" stroke-miterlimit="10" d="M365.011,395.765  C365.011,394.765,365.011,394.765,365.011,395.765L365.011,395.765z"/>
<path fill="none" stroke="#000000" stroke-width="1.25" stroke-linecap="square" stroke-miterlimit="10" d="M366.511,395.015  C363.696,395.229,363.673,395.231,366.511,395.015L366.511,395.015z"/>
<path fill="none" stroke="#000000" stroke-width="1.25" stroke-linecap="square" stroke-miterlimit="10" d="M366.511,395.015  C363.696,395.229,363.673,395.231,366.511,395.015L366.511,395.015z"/>
<path fill="none" stroke="#000000" stroke-width="1.25" stroke-linecap="square" stroke-miterlimit="10" d="M365.761,395.015  C363.812,395.277,364.241,395.22,365.761,395.015L365.761,395.015z"/>
<path fill="none" stroke="#000000" stroke-width="1.25" stroke-linecap="square" stroke-miterlimit="10" d="M365.761,395.015  C364.114,395.015,364.114,395.015,365.761,395.015L365.761,395.015z"/>
<path fill="none" stroke="#000000" stroke-width="1.25" stroke-linecap="square" stroke-miterlimit="10" d="M365.761,395.015  C364.318,395.364,363.903,395.464,365.761,395.015L365.761,395.015z"/>
<path fill="none" stroke="#000000" stroke-width="1.25" stroke-linecap="square" stroke-miterlimit="10" d="M365.761,395.765  C363.903,395.316,364.318,395.417,365.761,395.765L365.761,395.765z"/>
<path fill="none" stroke="#000000" stroke-width="1.25" stroke-linecap="square" stroke-miterlimit="10" d="M365.761,395.765  C365.119,395.419,364.117,394.878,365.761,395.765L365.761,395.765z"/>
<path fill="none" stroke="#000000" stroke-width="1.25" stroke-linecap="square" stroke-miterlimit="10" d="M365.761,395.765  C365.119,395.419,364.117,394.878,365.761,395.765L365.761,395.765z"/>
<path fill="none" stroke="#000000" stroke-width="1.25" stroke-linecap="square" stroke-miterlimit="10" d="M366.511,395.015  C363.696,395.229,363.673,395.231,366.511,395.015L366.511,395.015z"/>
<path fill="none" stroke="#000000" stroke-width="1.25" stroke-linecap="square" stroke-miterlimit="10" d="M365.761,395.015  C364.488,395.015,364.488,395.015,365.761,395.015L365.761,395.015z"/>
<path fill="none" stroke="#000000" stroke-width="1.25" stroke-linecap="square" stroke-miterlimit="10" d="M365.011,395.765  C365.011,394.765,365.011,394.765,365.011,395.765L365.011,395.765z"/>
<path fill="none" stroke="#000000" stroke-width="1.25" stroke-linecap="square" stroke-miterlimit="10" d="M365.761,395.015  C364.114,395.015,364.114,395.015,365.761,395.015L365.761,395.015z"/>
<path fill="none" stroke="#000000" stroke-width="1.25" stroke-linecap="square" stroke-miterlimit="10" d="M365.761,395.015  C364.318,395.364,363.903,395.464,365.761,395.015L365.761,395.015z"/>
<path fill="none" stroke="#000000" stroke-width="1.25" stroke-linecap="square" stroke-miterlimit="10" d="M365.761,395.015  C364.117,395.902,365.119,395.361,365.761,395.015L365.761,395.015z"/>
<path fill="none" stroke="#000000" stroke-width="1.25" stroke-linecap="square" stroke-miterlimit="10" d="M365.761,395.015  C364.117,395.902,365.119,395.361,365.761,395.015L365.761,395.015z"/>
<path fill="none" stroke="#000000" stroke-width="1.25" stroke-linecap="square" stroke-miterlimit="10" d="M365.761,395.765  C365.119,395.419,364.117,394.878,365.761,395.765L365.761,395.765z"/>
<path fill="none" stroke="#000000" stroke-width="1.25" stroke-linecap="square" stroke-miterlimit="10" d="M365.761,395.765  C365.119,395.419,364.117,394.878,365.761,395.765L365.761,395.765z"/>
</svg>