<svg xmlns="http://www.w3.org/2000/svg" xmlns:xlink="http://www.w3.org/1999/xlink" version="1.1" id="Layer_1" x="0px" y="0px" enable-background="new 0 0 822.05 841.89" xml:space="preserve" viewBox="249.94 256.26 323.65 332.73">
<path fill-rule="evenodd" clip-rule="evenodd" fill="#FFF67F" stroke="#000000" stroke-width="2" stroke-linecap="square" stroke-miterlimit="10" d="  M389.375,480.013c2.451,27.694,4.901,55.389,7.353,83.082c0.623,7.041-24.505,21.173-22.353-1.332  c-20.764,18.146,9.118,28.53,25.278,23.389c27.324-8.693,11.058-101.101,10.722-129.139  C403.375,464.013,396.375,472.013,389.375,480.013z"/>
<path fill-rule="evenodd" clip-rule="evenodd" fill="#FFF67F" stroke="#000000" stroke-width="2" stroke-linecap="square" stroke-miterlimit="10" d="  M441.125,482.263c-1.484,16.623-16.073,70.981-7.5,84c10.223,15.523,24.778,12.57,22.5-3c20.271,18.314-8.234,28.407-24.723,23.389  c-28.077-8.545-11.039-100.64-10.527-129.139C427.625,465.763,434.375,474.013,441.125,482.263z"/>
<path fill-rule="evenodd" clip-rule="evenodd" fill="#F7EBE0" stroke="#000000" stroke-width="2" stroke-linecap="square" stroke-miterlimit="10" d="  M367.625,425.263C349.084,453.032,399.334,441.912,367.625,425.263L367.625,425.263z"/>
<path fill-rule="evenodd" clip-rule="evenodd" fill="#F7EBE0" stroke="#000000" stroke-width="2" stroke-linecap="square" stroke-miterlimit="10" d="  M462.125,427.513c3.64,19.815-18.326,29.509-18.75,1.5C449.25,428.543,456.361,426.524,462.125,427.513z"/>
<path fill-rule="evenodd" clip-rule="evenodd" fill="#F7EBE0" stroke="#000000" stroke-width="2" stroke-linecap="square" stroke-miterlimit="10" d="  M435.125,308.261c0.605,32.211-39.364,32.425-39,0C396.48,276.567,435.869,276.639,435.125,308.261z"/>
<path fill-rule="evenodd" clip-rule="evenodd" fill="#FFF335" stroke="#000000" stroke-width="2" stroke-linecap="square" stroke-miterlimit="10" d="  M400.625,293.261c10.25,0.25,20.5,0.5,30.75,0.75c-4.75-12.25-9.5-24.5-14.25-36.75  C411.625,269.261,406.125,281.261,400.625,293.261z"/>
<path fill-rule="evenodd" clip-rule="evenodd" fill="#0DB14B" stroke="#000000" stroke-width="2" stroke-linecap="square" stroke-miterlimit="10" d="  M402.125,330.011c-36.865,10.826-32.321,44.137-39.938,78.728c-5.055,22.958,10.545,7.895,16.688,25.524  c4.33,12.426-1.634,35.408-2.25,48.75c30.918-4.557,37.467-45.144,36-70.502c-1.498,26.288,0.693,73.923,39,69.752  c-2.75-17.75-5.5-35.5-8.25-53.25c5.892,1.213,12.871-2.759,18.75-1.5c-2.781-16.288-6.126-90.031-20.806-93.418  C427.055,330.803,413.89,343.926,402.125,330.011z"/>
<path fill-rule="evenodd" clip-rule="evenodd" fill="#F7EBE0" stroke="#000000" stroke-width="2" stroke-linecap="square" stroke-miterlimit="10" d="  M435.125,303.761c2.129-8.833,4.413-14.449,14.25-16.5c-0.003,13.394-4.356,26.812-15,35.25  C434.619,316.405,433.963,309.744,435.125,303.761z"/>
<path fill-rule="evenodd" clip-rule="evenodd" fill="#F7EBE0" stroke="#000000" stroke-width="2" stroke-linecap="square" stroke-miterlimit="10" d="  M394.625,299.261c-2.374-8.889-4.7-14.765-14.25-17.25c0.221,13.44,3.973,27.292,15,35.25  C395.131,311.401,395.756,305,394.625,299.261z"/>
<line fill="none" stroke="#000000" stroke-width="2" stroke-linecap="square" stroke-miterlimit="10" x1="414.125" y1="340.511" x2="412.625" y2="421.513"/>
<line fill="none" stroke="#000000" stroke-width="2" stroke-linecap="square" stroke-miterlimit="10" x1="378.875" y1="434.263" x2="390.125" y2="380.261"/>
<line fill="none" stroke="#000000" stroke-width="2" stroke-linecap="square" stroke-miterlimit="10" x1="443.375" y1="429.013" x2="429.125" y2="375.761"/>
<path fill-rule="evenodd" clip-rule="evenodd" fill="#FFF67F" stroke="#000000" stroke-width="2" stroke-linecap="square" stroke-miterlimit="10" d="  M498.875,480.013c2.451,27.694,4.901,55.389,7.353,83.082c0.639,7.222-24.26,20.888-22.353-1.332  c-20.764,18.146,9.118,28.53,25.277,23.389c27.324-8.693,11.059-101.101,10.723-129.139  C512.875,464.013,505.875,472.013,498.875,480.013z"/>
<path fill-rule="evenodd" clip-rule="evenodd" fill="#FFF67F" stroke="#000000" stroke-width="2" stroke-linecap="square" stroke-miterlimit="10" d="  M550.625,482.263c-1.481,16.594-16.073,71.022-7.5,84c10.208,15.452,24.491,12.513,23.25-3  c18.643,19.071-9.022,28.396-25.473,23.389c-28.077-8.545-11.039-100.64-10.527-129.139  C537.125,465.763,543.875,474.013,550.625,482.263z"/>
<path fill-rule="evenodd" clip-rule="evenodd" fill="#F7EBE0" stroke="#000000" stroke-width="2" stroke-linecap="square" stroke-miterlimit="10" d="  M477.125,425.263C459.152,453.832,509.456,440.535,477.125,425.263L477.125,425.263z"/>
<path fill-rule="evenodd" clip-rule="evenodd" fill="#F7EBE0" stroke="#000000" stroke-width="2" stroke-linecap="square" stroke-miterlimit="10" d="  M571.625,427.513c3.64,19.815-18.326,29.509-18.75,1.5C558.75,428.543,565.861,426.524,571.625,427.513z"/>
<path fill-rule="evenodd" clip-rule="evenodd" fill="#F7EBE0" stroke="#000000" stroke-width="2" stroke-linecap="square" stroke-miterlimit="10" d="  M544.625,308.261c1.143,32.411-39.397,32.227-39,0C506.014,276.723,545.845,276.491,544.625,308.261z"/>
<path fill-rule="evenodd" clip-rule="evenodd" fill="#FFF335" stroke="#000000" stroke-width="2" stroke-linecap="square" stroke-miterlimit="10" d="  M510.875,293.261c10,0.25,20,0.5,30,0.75c-4.75-12.25-9.5-24.5-14.25-36.75C521.375,269.261,516.125,281.261,510.875,293.261z"/>
<path fill-rule="evenodd" clip-rule="evenodd" fill="#0DB14B" stroke="#000000" stroke-width="2" stroke-linecap="square" stroke-miterlimit="10" d="  M511.625,330.011c-36.865,10.826-32.321,44.137-39.938,78.728c-5.131,23.303,11.265,7.768,17.438,25.524  c4.258,12.248-2.19,35.594-3,48.75c31.728-4.925,37.004-44.457,36-70.502c-2.366,26.249,1.719,73.812,39,69.752  c-2.75-17.75-5.5-35.5-8.25-53.25c5.892,1.213,12.871-2.759,18.75-1.5c-2.781-16.288-6.126-90.031-20.806-93.418  C536.555,330.803,523.391,343.926,511.625,330.011z"/>
<path fill-rule="evenodd" clip-rule="evenodd" fill="#F7EBE0" stroke="#000000" stroke-width="2" stroke-linecap="square" stroke-miterlimit="10" d="  M544.625,303.761c2.331-8.765,4.679-14.451,14.25-16.5c-0.003,13.394-4.356,26.812-15,35.25  C544.119,316.405,543.463,309.744,544.625,303.761z"/>
<path fill-rule="evenodd" clip-rule="evenodd" fill="#F7EBE0" stroke="#000000" stroke-width="2" stroke-linecap="square" stroke-miterlimit="10" d="  M504.125,299.261c-2.373-8.889-4.699-14.765-14.25-17.25c0.221,13.44,3.974,27.292,15,35.25  C504.631,311.401,505.256,305,504.125,299.261z"/>
<line fill="none" stroke="#000000" stroke-width="2" stroke-linecap="square" stroke-miterlimit="10" x1="523.625" y1="340.511" x2="522.125" y2="421.513"/>
<line fill="none" stroke="#000000" stroke-width="2" stroke-linecap="square" stroke-miterlimit="10" x1="489.125" y1="434.263" x2="499.625" y2="380.261"/>
<line fill="none" stroke="#000000" stroke-width="2" stroke-linecap="square" stroke-miterlimit="10" x1="552.875" y1="429.013" x2="538.625" y2="375.761"/>
<path fill-rule="evenodd" clip-rule="evenodd" fill="#FFF67F" stroke="#000000" stroke-width="2" stroke-linecap="square" stroke-miterlimit="10" d="  M279.125,480.013c2.451,27.694,4.901,55.389,7.353,83.082c0.623,7.041-24.505,21.173-22.353-1.332  c-20.689,18.335,8.89,28.604,25.278,23.389c27.323-8.693,11.058-101.101,10.722-129.139  C293.125,464.013,286.125,472.013,279.125,480.013z"/>
<path fill-rule="evenodd" clip-rule="evenodd" fill="#FFF67F" stroke="#000000" stroke-width="2" stroke-linecap="square" stroke-miterlimit="10" d="  M330.875,482.263c-1.484,16.623-16.073,70.981-7.5,84c10.223,15.523,24.778,12.57,22.5-3c20.271,18.314-8.234,28.407-24.722,23.389  c-28.126-8.561-11.62-100.587-11.278-129.139C316.875,465.763,323.875,474.013,330.875,482.263z"/>
<path fill-rule="evenodd" clip-rule="evenodd" fill="#F7EBE0" stroke="#000000" stroke-width="2" stroke-linecap="square" stroke-miterlimit="10" d="  M257.375,425.263C237.794,452.487,289.929,442.356,257.375,425.263L257.375,425.263z"/>
<path fill-rule="evenodd" clip-rule="evenodd" fill="#F7EBE0" stroke="#000000" stroke-width="2" stroke-linecap="square" stroke-miterlimit="10" d="  M351.875,427.513c3.639,19.815-18.326,29.509-18.75,1.5C339,428.543,346.111,426.524,351.875,427.513z"/>
<path fill-rule="evenodd" clip-rule="evenodd" fill="#F7EBE0" stroke="#000000" stroke-width="2" stroke-linecap="square" stroke-miterlimit="10" d="  M324.875,308.261c0.595,32.117-39.363,32.417-39,0C286.23,276.559,325.56,276.741,324.875,308.261z"/>
<path fill-rule="evenodd" clip-rule="evenodd" fill="#FFF335" stroke="#000000" stroke-width="2" stroke-linecap="square" stroke-miterlimit="10" d="  M290.375,293.261c10,0.25,20,0.5,30,0.75c-4.5-12.25-9-24.5-13.5-36.75C301.375,269.261,295.875,281.261,290.375,293.261z"/>
<path fill-rule="evenodd" clip-rule="evenodd" fill="#0DB14B" stroke="#000000" stroke-width="2" stroke-linecap="square" stroke-miterlimit="10" d="  M291.125,330.011c-36.075,10.944-31.726,44.837-39.188,78.728c-5.055,22.958,10.545,7.895,16.688,25.524  c4.33,12.426-1.634,35.408-2.25,48.75c30.918-4.557,37.466-45.144,36-70.502c-2.623,26.257,1.387,74.185,39,69.752  c-2.75-17.75-5.5-35.5-8.25-53.25c5.892,1.213,12.871-2.759,18.75-1.5c-2.781-16.288-6.126-90.031-20.806-93.418  C316.282,330.682,303.818,343.891,291.125,330.011z"/>
<path fill-rule="evenodd" clip-rule="evenodd" fill="#F7EBE0" stroke="#000000" stroke-width="2" stroke-linecap="square" stroke-miterlimit="10" d="  M324.875,303.761c2.129-8.833,4.414-14.449,14.25-16.5c-0.002,13.394-4.357,26.812-15,35.25  C324.369,316.405,323.713,309.744,324.875,303.761z"/>
<path fill-rule="evenodd" clip-rule="evenodd" fill="#F7EBE0" stroke="#000000" stroke-width="2" stroke-linecap="square" stroke-miterlimit="10" d="  M283.625,299.261c-1.386-9.257-4.403-15.178-14.25-17.25c1.154,13.736,4.048,27.285,15.75,35.25  C284.637,311.403,285.001,304.96,283.625,299.261z"/>
<line fill="none" stroke="#000000" stroke-width="2" stroke-linecap="square" stroke-miterlimit="10" x1="303.875" y1="340.511" x2="302.375" y2="421.513"/>
<line fill="none" stroke="#000000" stroke-width="2" stroke-linecap="square" stroke-miterlimit="10" x1="268.625" y1="434.263" x2="279.875" y2="380.261"/>
<line fill="none" stroke="#000000" stroke-width="2" stroke-linecap="square" stroke-miterlimit="10" x1="333.125" y1="429.013" x2="318.875" y2="375.761"/>
</svg>