<svg xmlns="http://www.w3.org/2000/svg" xmlns:xlink="http://www.w3.org/1999/xlink" version="1.1" id="Layer_1" x="0px" y="0px" enable-background="new 0 0 822.05 841.89" xml:space="preserve" viewBox="229.35 255.36 361.19 332.75">
<path fill-rule="evenodd" clip-rule="evenodd" fill="#FFFBCC" stroke="#010101" stroke-width="2" stroke-linecap="square" stroke-miterlimit="10" d="  M555.789,430.359c-78.241,20.37-156.483,40.741-234.724,61.111c-31.225,8.129-24.869-18.199-32.518-47.191  c-10.92-41.39-21.84-82.78-32.76-124.17c78.241-20.37,156.482-40.741,234.724-61.111c31.226-8.129,24.87,18.199,32.519,47.191  C533.949,347.579,544.869,388.969,555.789,430.359z"/>
<path fill-rule="evenodd" clip-rule="evenodd" fill="#FFFBCC" d="M255.787,320.109c23.487,11.101,46.975,22.202,70.462,33.303  c14.074,6.652,64.975,41.685,80.288,37.947c13.438-3.281,39.187-52.248,47.326-63.101c17.976-23.966,35.95-47.933,53.926-71.899  C423.788,277.609,339.788,298.859,255.787,320.109z"/>
<path fill="none" stroke="#010101" stroke-width="2" stroke-linecap="square" stroke-miterlimit="10" d="M255.787,320.109  c23.487,11.101,46.975,22.202,70.462,33.303c14.074,6.652,64.975,41.685,80.288,37.947c13.438-3.281,39.187-52.248,47.326-63.101  c17.976-23.966,35.95-47.933,53.926-71.899"/>
<path fill-rule="evenodd" clip-rule="evenodd" fill="#FFFBCC" stroke="#010101" stroke-width="2" stroke-linecap="square" stroke-miterlimit="10" d="  M528.039,573.609c-75.695-28.473-151.39-56.944-227.085-85.417c-30.221-11.367-9.808-29.255,0.67-57.361  c14.971-40.157,29.942-80.314,44.913-120.472c75.695,28.241,151.39,56.481,227.085,84.722c30.28,11.297,9.764,29.417-0.67,57.528  C557.98,492.942,543.01,533.276,528.039,573.609z"/>
<path fill-rule="evenodd" clip-rule="evenodd" fill="#FFFBCC" d="M346.537,310.359c12.737,22.669,25.475,45.339,38.212,68.008  c7.618,13.558,28.897,71.7,43.54,77.492c12.853,5.084,62.479-20.342,75.37-24.539c28.627-9.32,57.253-18.641,85.88-27.961  C508.538,372.359,427.538,341.359,346.537,310.359z"/>
<path fill="none" stroke="#010101" stroke-width="2" stroke-linecap="square" stroke-miterlimit="10" d="M346.537,310.359  c12.737,22.669,25.475,45.339,38.212,68.008c7.618,13.558,28.897,71.7,43.54,77.492c12.853,5.084,62.479-20.342,75.37-24.539  c28.627-9.32,57.253-18.641,85.88-27.961"/>
<path fill-rule="evenodd" clip-rule="evenodd" fill="#FFFBCC" stroke="#010101" stroke-width="2" stroke-linecap="square" stroke-miterlimit="10" d="  M473.289,587.109c-75.695-28.241-151.39-56.481-227.085-84.723c-30.244-11.283-9.796-29.23,0.67-57.306  c14.971-40.157,29.942-80.314,44.913-120.472c75.695,28.241,151.39,56.481,227.085,84.722c30.244,11.284,9.797,29.231-0.67,57.306  C503.23,506.794,488.26,546.952,473.289,587.109z"/>
<path fill-rule="evenodd" clip-rule="evenodd" fill="#FFFBCC" d="M291.787,324.609c12.737,22.553,25.474,45.105,38.211,67.658  c7.663,13.569,28.874,71.262,43.539,77.092c12.878,5.12,62.43-20.035,75.371-24.188c28.627-9.188,57.254-18.374,85.881-27.562  C453.788,386.609,372.788,355.609,291.787,324.609z"/>
<path fill="none" stroke="#010101" stroke-width="2" stroke-linecap="square" stroke-miterlimit="10" d="M291.787,324.609  c12.737,22.553,25.474,45.105,38.211,67.658c7.663,13.569,28.874,71.262,43.539,77.092c12.878,5.12,62.43-20.035,75.371-24.188  c28.627-9.188,57.254-18.374,85.881-27.562"/>
</svg>