<svg xmlns="http://www.w3.org/2000/svg" xmlns:xlink="http://www.w3.org/1999/xlink" version="1.1" id="Layer_1" x="0px" y="0px" enable-background="new 0 0 822.05 841.89" xml:space="preserve" viewBox="222.91 310.68 375.5 218.52">
<path fill-rule="evenodd" clip-rule="evenodd" fill="#ED1C24" stroke="#000000" stroke-width="2" stroke-linecap="square" stroke-miterlimit="10" d="  M223.913,424.699c20.579,39.763,31.606,78.388,70.917,100.5c24.873,13.991,86.982-26.174,111.446-36.074  c48.438-19.603,96.878-39.205,145.316-58.809c25.337-10.253,36.18-75.244,45.821-100.119c-18.472-6.079-47.318-23.829-66.258-16.958  c-34.536,12.529-69.072,25.058-103.608,37.587C359.669,375.45,291.791,400.074,223.913,424.699z"/>
<path fill-rule="evenodd" clip-rule="evenodd" fill="#6E91A3" stroke="#000000" stroke-width="2" stroke-linecap="square" stroke-miterlimit="10" d="  M384.413,366.947c42.318,20.151,47.414,15.936,46.255,62.318c-1.341,53.621,0.182,49.599-49.171,69.694  c-41.343,16.834-64.816,38.53-104,16.489c-26.506-14.91-39.827-64.169-53.583-90.75  C277.413,405.448,330.913,386.197,384.413,366.947z"/>
<path fill="none" stroke="#000000" stroke-width="2" stroke-linecap="square" stroke-miterlimit="10" d="M227.663,426.949  c14.387,4.396,51.404,7.611,55.833,22.777c7.639,26.158,15.278,52.315,22.917,78.473"/>
<line fill="none" stroke="#000000" stroke-width="2" stroke-linecap="square" stroke-miterlimit="10" x1="281.663" y1="443.449" x2="597.413" y2="330.197"/>
<path fill="none" stroke="#FFFFFF" stroke-width="2" stroke-linecap="square" stroke-miterlimit="10" d="M558.413,322.697  c-70.472,25.356-140.944,50.713-211.416,76.069c-29.672,10.676-59.345,21.353-89.017,32.029  c-3.967,1.427,23.321,73.42,26.683,83.153"/>
</svg>