<svg xmlns="http://www.w3.org/2000/svg" xmlns:xlink="http://www.w3.org/1999/xlink" version="1.1" id="Layer_1" x="0px" y="0px" enable-background="new 0 0 822.05 841.89" xml:space="preserve" viewBox="217.41 293.12 386 261.33">
<path fill-rule="evenodd" clip-rule="evenodd" fill="#ED1C24" stroke="#000000" stroke-width="2" stroke-linecap="square" stroke-miterlimit="10" d="  M219.909,374.197c14.8,28.284,23.306,58.854,51.732,74.22c22.186,11.993,63.912-16.63,85.632-25.419  c36.907-14.936,73.815-29.871,110.722-44.807c18.889-7.644,26.874-57.347,33.914-75.994c-52.21-16.813-69.587-5.058-121.943,13.936  C326.614,335.487,273.261,354.842,219.909,374.197z"/>
<path fill-rule="evenodd" clip-rule="evenodd" fill="#6E91A3" stroke="#000000" stroke-width="2" stroke-linecap="square" stroke-miterlimit="10" d="  M341.409,330.697c34.669,15.89,36.122,12.812,34.875,50.625c-1.268,38.444-2.239,34.58-38.023,49.18  c-28.518,11.636-47.424,28.291-74.833,13.476c-22.356-12.085-31.993-47.754-43.518-69.78  C260.409,359.697,300.909,345.197,341.409,330.697z"/>
<path fill="none" stroke="#000000" stroke-width="2" stroke-linecap="square" stroke-miterlimit="10" d="M222.909,374.947  c8.065,2.64,39.661,7.873,41.867,15.686c5.794,20.521,11.588,41.042,17.383,61.564"/>
<line fill="none" stroke="#000000" stroke-width="2" stroke-linecap="square" stroke-miterlimit="10" x1="264.159" y1="388.447" x2="501.909" y2="302.197"/>
<path fill="none" stroke="#FFFFFF" stroke-width="2" stroke-linecap="square" stroke-miterlimit="10" d="M472.659,296.947  c-53.16,19.061-106.32,38.121-159.48,57.182c-22.037,7.901-44.073,15.802-66.109,23.704c-5.392,1.933,15.719,54.607,18.589,63.114"/>
<path fill-rule="evenodd" clip-rule="evenodd" fill="#ED1C24" stroke="#000000" stroke-width="2" stroke-linecap="square" stroke-miterlimit="10" d="  M218.409,446.197c14.51,28.361,22.605,58.882,50.982,74.22c22.234,12.019,64.107-16.413,85.927-25.124  c37.051-14.792,74.102-29.584,111.154-44.375c18.892-7.543,26.911-57.36,33.938-75.971c-13.887-4.629-35.968-18.287-50.21-13.104  c-24.079,8.763-48.159,17.526-72.238,26.29C324.777,407.487,271.593,426.842,218.409,446.197z"/>
<path fill-rule="evenodd" clip-rule="evenodd" fill="#6E91A3" stroke="#000000" stroke-width="2" stroke-linecap="square" stroke-miterlimit="10" d="  M339.909,402.697c33.742,16.512,35.327,13.774,34.5,51c-0.853,38.372-2.13,34.309-37.944,48.805  c-28.609,11.58-47.813,28.326-75.288,13.476c-22.239-12.021-31.512-47.779-42.768-69.78  C258.909,431.697,299.409,417.197,339.909,402.697z"/>
<path fill="none" stroke="#000000" stroke-width="2" stroke-linecap="square" stroke-miterlimit="10" d="M221.409,447.697  c48.558,15.287,44.829,27.468,59.25,76.5"/>
<line fill="none" stroke="#000000" stroke-width="2" stroke-linecap="square" stroke-miterlimit="10" x1="261.909" y1="460.447" x2="500.409" y2="374.947"/>
<path fill="none" stroke="#FFFFFF" stroke-width="2" stroke-linecap="square" stroke-miterlimit="10" d="M471.159,369.697  c-53.335,19.061-106.67,38.121-160.005,57.182c-22.108,7.901-44.217,15.803-66.326,23.704c-5.322,1.901,16.365,54.625,19.331,63.114  "/>
<path fill-rule="evenodd" clip-rule="evenodd" fill="#ED1C24" stroke="#000000" stroke-width="2" stroke-linecap="square" stroke-miterlimit="10" d="  M320.409,475.447c14.647,27.993,23.286,58.687,51.246,74.22c21.796,12.109,64.224-16.777,85.663-25.419  c37.051-14.936,74.102-29.871,111.153-44.807c18.911-7.623,26.895-57.34,33.938-75.994c-52.668-16.678-69.775-5.233-122.448,13.936  C426.777,436.737,373.593,456.092,320.409,475.447z"/>
<path fill-rule="evenodd" clip-rule="evenodd" fill="#6E91A3" stroke="#000000" stroke-width="2" stroke-linecap="square" stroke-miterlimit="10" d="  M441.909,431.947c34.146,15.983,35.323,13.186,34.5,50.625c-0.849,38.63-1.936,34.604-37.944,49.18  c-28.233,11.428-47.792,28.48-74.802,13.476c-22.121-12.29-31.768-47.829-43.254-69.78  C360.909,460.947,401.409,446.447,441.909,431.947z"/>
<path fill="none" stroke="#000000" stroke-width="2" stroke-linecap="square" stroke-miterlimit="10" d="M323.409,476.947  c48.558,15.287,44.829,27.468,59.25,76.5"/>
<line fill="none" stroke="#000000" stroke-width="2" stroke-linecap="square" stroke-miterlimit="10" x1="363.909" y1="489.697" x2="602.409" y2="403.447"/>
<path fill="none" stroke="#FFFFFF" stroke-width="2" stroke-linecap="square" stroke-miterlimit="10" d="M573.159,398.197  c-53.335,19.235-106.67,38.471-160.005,57.707c-22.108,7.974-44.217,15.947-66.326,23.921c-5.344,1.927,16.363,54.627,19.331,63.122  "/>
</svg>