<svg xmlns="http://www.w3.org/2000/svg" xmlns:xlink="http://www.w3.org/1999/xlink" version="1.1" id="Layer_1" x="0px" y="0px" enable-background="new 0 0 822.05 841.89" xml:space="preserve" viewBox="234.26 253.72 352.11 331.75">
<path fill-rule="evenodd" clip-rule="evenodd" fill="#BCBEC0" stroke="#000000" stroke-width="2" stroke-linecap="square" stroke-miterlimit="10" d="  M563.75,553.39c-61.946,64.039-129.919-47.36-165.354-84.831c-34.293-36.265-92.831-78.416-115.146-123.669  c-11.296-22.908-3.854-43.804,10.125-63.375c51.345-71.882,116.152,19.685,149.722,55.184  c43.793,46.31,92.819,90.774,132.653,140.566c14.569,18.212,11.178,43.945-0.75,62.625  C571.79,544.917,568.026,549.241,563.75,553.39z"/>
<path fill-rule="evenodd" clip-rule="evenodd" fill="#DEF2FD" stroke="#000000" stroke-width="2" stroke-linecap="square" stroke-miterlimit="10" d="  M550.25,539.89c-49.064,47.724-121.199-64.223-146.24-90.548C378.39,422.41,262.688,339.096,314,290.89  c49.581-46.579,120.109,64.115,145.49,90.906C483.971,407.637,600.771,492.461,550.25,539.89z"/>
<path fill-rule="evenodd" clip-rule="evenodd" fill="#BCBEC0" stroke="#000000" stroke-width="2" stroke-linecap="square" stroke-miterlimit="10" d="  M521,566.89c-67.08,58.075-124.847-42.746-165.354-85.581c-34.113-36.073-93.164-78.268-115.146-123.669  c-10.309-21.292-4.608-45.32,10.125-63c56.395-67.674,111.415,14.95,149.722,55.312C442.731,394.609,498.784,439.067,533,490.39  c12.86,19.291,12.498,42.278,0,62.25C529.74,557.849,525.529,562.75,521,566.89z"/>
<path fill-rule="evenodd" clip-rule="evenodd" fill="#DEF2FD" stroke="#000000" stroke-width="2" stroke-linecap="square" stroke-miterlimit="10" d="  M507.5,553.39c-50.808,45.963-119.983-63.452-145.881-90.906C336.425,435.776,220.213,351.46,271.25,303.64  c49.849-46.707,120.613,64.12,145.882,90.906C444.523,423.584,556.168,502.793,507.5,553.39z"/>
<path fill-rule="evenodd" clip-rule="evenodd" fill="#7594A4" stroke="#000000" stroke-width="2" stroke-linecap="square" stroke-miterlimit="10" d="  M265.25,339.64c12.479-3.089,69.69-25.078,77.542-16.878c26.369,27.536,52.738,55.071,79.106,82.607  C446.416,430.97,524.871,483.971,518,527.89c-11.021,70.45-68.645-3.521-88.861-23.806C374.509,449.27,319.88,394.455,265.25,339.64  z"/>
<path fill-rule="evenodd" clip-rule="evenodd" fill="#7594A4" stroke="#000000" stroke-width="2" stroke-linecap="square" stroke-miterlimit="10" d="  M267.5,341.89c13.25-0.25,26.5-0.5,39.75-0.75c0.624,36.792-8.094,44.25,29.639,44.25c27.037,0-5.918,41.25,20.583,41.25  c52.328,0,4.103,12.782,27.778,38.25c5.499,5.915,29.596-5.811,35.25,0c4.505,4.63,0.615,32.628,0.75,39.75  c15.1-0.296,38.09-8.742,38.444,8.973c0.105,5.249-2.596,23.509,0.556,27.777c1.896,2.569,23.267-2.64,24,0  c3.441,12.381-15.119,34.936-25.881,23.599c-8.728-9.194-17.455-18.388-26.183-27.582c-37.384-39.381-74.768-78.763-112.151-118.144  C305.415,403.861,250.504,366.505,267.5,341.89z"/>
<path fill-rule="evenodd" clip-rule="evenodd" fill="#7594A4" d="M309.5,381.64l63-25.5L309.5,381.64z"/>
<line fill="none" stroke="#000000" stroke-width="2" stroke-linecap="square" stroke-miterlimit="10" x1="309.5" y1="381.64" x2="372.5" y2="356.14"/>
<path fill-rule="evenodd" clip-rule="evenodd" fill="#7594A4" d="M345.5,384.64l40.5-18L345.5,384.64z"/>
<line fill="none" stroke="#000000" stroke-width="2" stroke-linecap="square" stroke-miterlimit="10" x1="345.5" y1="384.64" x2="386" y2="366.64"/>
<path fill-rule="evenodd" clip-rule="evenodd" fill="#BCBEC0" d="M349.25,424.39l58.5-30.75L349.25,424.39z"/>
<line fill="none" stroke="#000000" stroke-width="2" stroke-linecap="square" stroke-miterlimit="10" x1="349.25" y1="424.39" x2="407.75" y2="393.64"/>
<path fill-rule="evenodd" clip-rule="evenodd" fill="#BCBEC0" d="M385.25,426.64l40.5-21.75L385.25,426.64z"/>
<line fill="none" stroke="#000000" stroke-width="2" stroke-linecap="square" stroke-miterlimit="10" x1="385.25" y1="426.64" x2="425.75" y2="404.89"/>
<path fill-rule="evenodd" clip-rule="evenodd" fill="#BCBEC0" d="M385.25,462.64l59.25-35.25L385.25,462.64z"/>
<line fill="none" stroke="#000000" stroke-width="2" stroke-linecap="square" stroke-miterlimit="10" x1="385.25" y1="462.64" x2="444.5" y2="427.39"/>
<path fill-rule="evenodd" clip-rule="evenodd" fill="#BCBEC0" d="M420.5,464.89l36.75-24L420.5,464.89z"/>
<line fill="none" stroke="#000000" stroke-width="2" stroke-linecap="square" stroke-miterlimit="10" x1="420.5" y1="464.89" x2="457.25" y2="440.89"/>
<path fill-rule="evenodd" clip-rule="evenodd" fill="#BCBEC0" d="M422.75,502.39L479,467.14L422.75,502.39z"/>
<line fill="none" stroke="#000000" stroke-width="2" stroke-linecap="square" stroke-miterlimit="10" x1="422.75" y1="502.39" x2="479" y2="467.14"/>
<path fill-rule="evenodd" clip-rule="evenodd" fill="#BCBEC0" d="M459.5,503.89l34.5-24.75L459.5,503.89z"/>
<line fill="none" stroke="#000000" stroke-width="2" stroke-linecap="square" stroke-miterlimit="10" x1="459.5" y1="503.89" x2="494" y2="479.14"/>
<path fill-rule="evenodd" clip-rule="evenodd" fill="#BCBEC0" d="M460.25,541.39l52.5-39.75L460.25,541.39z"/>
<line fill="none" stroke="#000000" stroke-width="2" stroke-linecap="square" stroke-miterlimit="10" x1="460.25" y1="541.39" x2="512.75" y2="501.64"/>
<path fill-rule="evenodd" clip-rule="evenodd" fill="#BCBEC0" d="M485.75,542.89l30.75-20.25L485.75,542.89z"/>
<line fill="none" stroke="#000000" stroke-width="2" stroke-linecap="square" stroke-miterlimit="10" x1="485.75" y1="542.89" x2="516.5" y2="522.64"/>
<path fill-rule="evenodd" clip-rule="evenodd" fill="#BCBEC0" d="M308.75,343.39l40.5-13.5L308.75,343.39z"/>
<line fill="none" stroke="#000000" stroke-width="2" stroke-linecap="square" stroke-miterlimit="10" x1="308.75" y1="343.39" x2="349.25" y2="329.89"/>
</svg>