<svg xmlns="http://www.w3.org/2000/svg" xmlns:xlink="http://www.w3.org/1999/xlink" version="1.1" id="Layer_1" x="0px" y="0px" enable-background="new 0 0 822.05 841.89" xml:space="preserve" viewBox="300.34 319.13 220.19 185.67">
<path fill-rule="evenodd" clip-rule="evenodd" fill="#ABABAB" d="M455.75,421.88L455.75,421.88L455.75,421.88z"/>
<line fill="none" stroke="#000000" stroke-width="0.5" stroke-linecap="square" stroke-miterlimit="10" x1="455.75" y1="421.88" x2="455.75" y2="421.88"/>
<path fill-rule="evenodd" clip-rule="evenodd" fill="#F7F359" stroke="#000000" stroke-width="0.5" stroke-linecap="square" stroke-miterlimit="10" d="  M356.75,470.63c-1.097,5.758-0.505,12.129-0.75,18c3.58-5.741,10.402-9.419,14.25-15c0.514,6.012,3.665,11.982,3.75,18  c0.787-6.172,5.287-11.923,6.75-18c4.913,6.01,12.305,10.743,16.5,17.25c-3.351-6.936-3.957-15.309-6.75-22.5  c10.75,2,21.5,4,32.25,6c-7-6.25-14-12.5-21-18.75c23-0.75,46-1.5,69-2.25c-21.75-4.5-43.5-9-65.25-13.5c9.25-5,18.5-10,27.75-15  c-10.75,1.5-21.5,3-32.25,4.5c5.329-6.761,8.692-15.183,14.25-21.75c-8.5,4.5-17,9-25.5,13.5c-0.896-4.932-5.26-9.301-6-14.25  c-2.75,3-5.5,6-8.25,9c-6-7.5-12-15-18-22.5c-1,9.5-2,19-3,28.5c-7.047-4.581-16.065-7.375-22.5-12.75  c5.623,4.866,9.235,12.483,14.25,18c-7.293-0.973-15.337,0.858-22.5-0.75c6.168,2.468,11.203,7.725,17.25,10.5c-10,2-20,4-30,6  c10.5,2.5,21,5,31.5,7.5c-7.715,3.995-14.604,9.892-22.5,13.5c8.377-2.605,17.702-2.485,26.25-4.5  c-5.103,5.315-8.738,12.385-14.25,17.25c5.066-3.61,11.286-5.595,16.5-9c-5.802,9.826-11.316,19.834-16.5,30  C340.25,488.63,348.5,479.63,356.75,470.63z"/>
<path fill-rule="evenodd" clip-rule="evenodd" fill="#EAA22D" stroke="#000000" stroke-width="0.5" stroke-linecap="square" stroke-miterlimit="10" d="  M395,447.38c-1.163,29.533-45.961,29.59-46.5,0C347.944,416.892,394.603,416.87,395,447.38z"/>
<path fill-rule="evenodd" clip-rule="evenodd" fill="#42BF00" stroke="#000000" stroke-width="0.5" stroke-linecap="square" stroke-miterlimit="10" d="  M301.25,460.88c33.697-22.887,79.757-31.164,118.833-18.139C450.65,452.93,484.84,484.158,518,478.88  c6.066,29.357-3.877,25.5-27.188,25.5c-33.9,0-67.801,0-101.701,0c-18.731,0-37.463,0-56.195,0  C293.277,504.38,301.25,499.546,301.25,460.88z"/>
<path fill-rule="evenodd" clip-rule="evenodd" fill="#149F00" stroke="#000000" stroke-width="0.5" stroke-linecap="square" stroke-miterlimit="10" d="  M353,504.38c54.985-22.337,107.417-42.426,167.25-45.75c0,50.582,2.941,45.75-46.627,45.75  C433.415,504.38,393.208,504.38,353,504.38z"/>
<text transform="matrix(1 0 0 1 421.9951 373.1304)"><tspan x="0" y="0" font-family="'MyriadPro-Regular'" font-size="60" letter-spacing="-26">P</tspan><tspan x="5.28" y="0" font-family="'MyriadPro-Regular'" font-size="60">M</tspan></text>
<path fill-rule="evenodd" clip-rule="evenodd" fill="#020202" stroke="#000000" stroke-width="0.5" stroke-linecap="square" stroke-miterlimit="10" d="  M373.25,394.13c-4.718-6.755-7.186-16.425-10.5-24c5.801-1.384,15.957-1.41,21.75,0C380.941,377.722,378.184,387.386,373.25,394.13z  "/>
<path fill-rule="evenodd" clip-rule="evenodd" fill="#020202" stroke="#000000" stroke-width="0.5" stroke-linecap="square" stroke-miterlimit="10" d="  M375.5,345.38c-8.806,4.474-4.5,24.099-4.5,36c1.5,0,3,0,4.5,0C375.5,369.38,375.5,357.38,375.5,345.38z"/>
</svg>