<svg xmlns="http://www.w3.org/2000/svg" xmlns:xlink="http://www.w3.org/1999/xlink" version="1.1" id="Layer_1" x="0px" y="0px" enable-background="new 0 0 822.05 841.89" xml:space="preserve" viewBox="299.05 338.64 221.17 166.5">
<path fill-rule="evenodd" clip-rule="evenodd" fill="#993817" stroke="#000000" stroke-linecap="square" stroke-miterlimit="10" d="  M519,472.64c-39.732,0-79.464,0-119.196,0c-8.353,0-118.74,7.125-97.554-16.5c10.795-12.038,102.799,0,119.196,0  C440.08,456.14,528.612,441.58,519,472.64z"/>
<path fill-rule="evenodd" clip-rule="evenodd" fill="#F1EC00" stroke="#000000" stroke-linecap="square" stroke-miterlimit="10" d="  M333.75,450.14c-8.752,2.556-17.095,6.345-24.75,11.25c23.932,11.267,72.18,10.359,95.25-4.5  c-11.154-4.528-27.667-4.753-29.625-16.5c-1.195-7.173-8.23-11.161-14.625-12.75C344.707,423.84,333.351,437.101,333.75,450.14z"/>
<path fill-rule="evenodd" clip-rule="evenodd" fill="#CE0822" stroke="#000000" stroke-width="0.5" stroke-linecap="square" stroke-miterlimit="10" d="  M334.5,446.39c13.096,0.277,26.141,0.196,39-2.25C368.875,452.284,336.042,454.404,334.5,446.39z"/>
<path fill-rule="evenodd" clip-rule="evenodd" fill="#CE0822" stroke="#000000" stroke-width="0.5" stroke-linecap="square" stroke-miterlimit="10" d="  M371.25,444.89c5.115-2.637,2.508-12.07,10.5-2.25C378.11,446.35,372.603,444.494,371.25,444.89z"/>
<path fill-rule="evenodd" clip-rule="evenodd" fill="#CE0822" stroke="#000000" stroke-width="0.5" stroke-linecap="square" stroke-miterlimit="10" d="  M370.5,446.39C366.984,435.015,368.626,437.223,370.5,446.39L370.5,446.39z"/>
<path fill-rule="evenodd" clip-rule="evenodd" fill="#CE0822" stroke="#000000" stroke-width="0.5" stroke-linecap="square" stroke-miterlimit="10" d="  M372,447.14C357.734,448.298,361.746,446.22,372,447.14L372,447.14z"/>
<path fill-rule="evenodd" clip-rule="evenodd" fill="#CE0822" stroke="#000000" stroke-width="0.5" stroke-linecap="square" stroke-miterlimit="10" d="  M373.5,445.64c1.508,0.941,6.522,0,8.25,0C377.12,458.614,376.986,448.912,373.5,445.64z"/>
<path fill-rule="evenodd" clip-rule="evenodd" fill="#CE0822" stroke="#000000" stroke-width="0.5" stroke-linecap="square" stroke-miterlimit="10" d="  M373.5,447.14c-0.259,1.327,2.886,5.471,3,7.5c-3.763,0.095-6.147,0.924-9.75,0C367.583,449.812,373.6,446.967,373.5,447.14z"/>
<path fill-rule="evenodd" clip-rule="evenodd" fill="#CE0822" stroke="#000000" stroke-width="0.5" stroke-linecap="square" stroke-miterlimit="10" d="  M374.25,446.39C367.835,445.693,369.187,445.839,374.25,446.39L374.25,446.39z"/>
<path fill-rule="evenodd" clip-rule="evenodd" fill="#CE0822" d="M321.75,430.64l-8.25-4.5L321.75,430.64z"/>
<line fill="none" stroke="#000000" stroke-width="0.5" stroke-linecap="square" stroke-miterlimit="10" x1="321.75" y1="430.64" x2="313.5" y2="426.14"/>
<path fill-rule="evenodd" clip-rule="evenodd" fill="#CE0822" d="M326.25,423.89l-6-6.75L326.25,423.89z"/>
<line fill="none" stroke="#000000" stroke-width="0.5" stroke-linecap="square" stroke-miterlimit="10" x1="326.25" y1="423.89" x2="320.25" y2="417.14"/>
<path fill-rule="evenodd" clip-rule="evenodd" fill="#CE0822" d="M333.75,420.14l-2.25-9.75L333.75,420.14z"/>
<line fill="none" stroke="#000000" stroke-width="0.5" stroke-linecap="square" stroke-miterlimit="10" x1="333.75" y1="420.14" x2="331.5" y2="410.39"/>
<path fill-rule="evenodd" clip-rule="evenodd" fill="#CE0822" d="M347.25,418.64l-0.75-9.75L347.25,418.64z"/>
<line fill="none" stroke="#000000" stroke-width="0.5" stroke-linecap="square" stroke-miterlimit="10" x1="347.25" y1="418.64" x2="346.5" y2="408.89"/>
<path fill-rule="evenodd" clip-rule="evenodd" fill="#CE0822" d="M357.75,417.14l1.5-9L357.75,417.14z"/>
<line fill="none" stroke="#000000" stroke-width="0.5" stroke-linecap="square" stroke-miterlimit="10" x1="357.75" y1="417.14" x2="359.25" y2="408.14"/>
<path fill-rule="evenodd" clip-rule="evenodd" fill="#CE0822" d="M368.25,418.64l4.5-8.25L368.25,418.64z"/>
<line fill="none" stroke="#000000" stroke-width="0.5" stroke-linecap="square" stroke-miterlimit="10" x1="368.25" y1="418.64" x2="372.75" y2="410.39"/>
<path fill-rule="evenodd" clip-rule="evenodd" fill="#CE0822" d="M378,424.64l8.25-5.25L378,424.64z"/>
<line fill="none" stroke="#000000" stroke-width="0.5" stroke-linecap="square" stroke-miterlimit="10" x1="378" y1="424.64" x2="386.25" y2="419.39"/>
<path fill-rule="evenodd" clip-rule="evenodd" fill="#CE0822" d="M386.25,431.39l8.25-3L386.25,431.39z"/>
<line fill="none" stroke="#000000" stroke-width="0.5" stroke-linecap="square" stroke-miterlimit="10" x1="386.25" y1="431.39" x2="394.5" y2="428.39"/>
<path fill-rule="evenodd" clip-rule="evenodd" fill="#CE0822" d="M320.25,435.14h-9H320.25z"/>
<line fill="none" stroke="#000000" stroke-width="0.5" stroke-linecap="square" stroke-miterlimit="10" x1="320.25" y1="435.14" x2="311.25" y2="435.14"/>
<path fill-rule="evenodd" clip-rule="evenodd" fill="#993817" stroke="#000000" stroke-linecap="square" stroke-miterlimit="10" d="  M519,475.64c-39.732,0-79.464,0-119.196,0c-9.974,0-104.965-1.318-97.554-8.25c13.77-12.878,100.4,0,119.196,0  C438.585,467.39,517.948,457.76,519,475.64z"/>
<path fill-rule="evenodd" clip-rule="evenodd" fill="#FFFFFF" stroke="#000000" stroke-width="0.5" stroke-linecap="square" stroke-miterlimit="10" d="  M375,500.39c-6.492,0-66.938,4.189-42.75-20.25C345.045,467.212,382.136,476.81,375,500.39z"/>
<text transform="matrix(1 0 0 1 336.7686 495.1636)" font-family="'ArialMT'" font-size="21">£60</text>
<path fill-rule="evenodd" clip-rule="evenodd" fill="#D1D1D1" stroke="#000000" stroke-linecap="square" stroke-miterlimit="10" d="  M438,450.89c-7.562,2.32-15.266,7.568-21.75,12c22.878,9.367,63.888,10.875,84-5.25c-10.176-4.142-20.031-10.724-25.5-14.25  c-4.164-2.685-2.525-11.381-10.5-13.5C448.967,425.829,437.641,436.31,438,450.89z"/>
<path fill-rule="evenodd" clip-rule="evenodd" fill="#2A1A6D" stroke="#000000" stroke-width="0.5" stroke-linecap="square" stroke-miterlimit="10" d="  M440.25,447.89c7.021,1.609,45.078-2.234,35.25,4.5C464.413,459.988,435.451,459.458,440.25,447.89z"/>
<path fill-rule="evenodd" clip-rule="evenodd" fill="#2A1A6D" stroke="#000000" stroke-width="0.5" stroke-linecap="square" stroke-miterlimit="10" d="  M435.75,450.14c-9.27,3.592-16.462,3.367-11.25,13.5C433.001,459.992,434.736,454.498,435.75,450.14z"/>
<path fill-rule="evenodd" clip-rule="evenodd" fill="#2A1A6D" stroke="#000000" stroke-width="0.5" stroke-linecap="square" stroke-miterlimit="10" d="  M442.5,450.14c1.615,5.071,0.517,11.886,0.75,17.25c-3.25-0.5-6.5-1-9.75-1.5C433.972,457.483,438.192,453.327,442.5,450.14z"/>
<path fill-rule="evenodd" clip-rule="evenodd" fill="#2A1A6D" stroke="#000000" stroke-width="0.5" stroke-linecap="square" stroke-miterlimit="10" d="  M446.25,450.14C433.576,455.602,433.812,443.98,446.25,450.14L446.25,450.14z"/>
<path fill-rule="evenodd" clip-rule="evenodd" fill="#F8E50B" stroke="#000000" stroke-width="0.5" stroke-linecap="square" stroke-miterlimit="10" d="  M489,453.14c-2.421,13.208,3.727,23.607,16.5,27.75c-13.277,1.638-21.14,10.623-21,24c-5.743-12.312-17.062-16.886-30-12.75  c10.95-8.901,12.119-20.728,3-31.5C469.588,467.526,481.422,464.811,489,453.14z"/>
<text transform="matrix(0.9191 0.3939 -0.3939 0.9191 463.4863 480.8979)"><tspan x="0" y="0" font-family="'ArialMT'" font-size="24" letter-spacing="-7">£</tspan><tspan x="6.004" y="0" font-family="'ArialMT'" font-size="24">5</tspan></text>
<path fill-rule="evenodd" clip-rule="evenodd" fill="#D01924" stroke="#000000" stroke-linecap="square" stroke-miterlimit="10" d="  M348,378.14c0-16.817-8.346-39,11.111-39c15.551,0-11.779,42.574,15.139,39c-6.75,13.25-13.5,26.5-20.25,39.75  c-5.75-13.25-11.5-26.5-17.25-39.75C340.5,378.14,344.25,378.14,348,378.14z"/>
</svg>