<svg xmlns="http://www.w3.org/2000/svg" xmlns:xlink="http://www.w3.org/1999/xlink" version="1.1" id="Layer_1" x="0px" y="0px" enable-background="new 0 0 822.05 841.89" xml:space="preserve" viewBox="305.15 339.08 210.88 168.23">
<path fill-rule="evenodd" clip-rule="evenodd" fill="#EED5B6" stroke="#000000" stroke-width="1.25" stroke-linecap="square" stroke-miterlimit="10" d="  M339.525,442.39c11.354-1.925,20.755-7.472,24-18c3.156,8.08,17.285-1.158,25.125,8.25c13.813,16.576,13.762,9.424,6.598,36.289  C384.334,509.859,317.969,479.693,339.525,442.39z"/>
<path fill-rule="evenodd" clip-rule="evenodd" fill="#137827" stroke="#000000" stroke-width="1.25" stroke-linecap="square" stroke-miterlimit="10" d="  M335.025,474.64c-1.75,10-3.5,20-5.25,30c29,0,58,0,87,0c-0.75-9.25-1.5-18.5-2.25-27.75c2.536,23.456,1.05,33.816,29.25,27.75  c-5.473-21.031-12.658-71.61-44.25-67.5c-8.307,1.081-11.561,19.504-28.5,17.25c-18.507-2.463-17.678-21.219-36.75-15.75  c-22.682,6.504-24.524,47.286-28.5,66C332.513,512.938,331.031,494.614,335.025,474.64z"/>
<path fill-rule="evenodd" clip-rule="evenodd" fill="#EED5B6" stroke="#000000" stroke-width="1.25" stroke-linecap="square" stroke-miterlimit="10" d="  M347.775,413.892C350.267,439.722,324.083,406.632,347.775,413.892L347.775,413.892z"/>
<path fill-rule="evenodd" clip-rule="evenodd" fill="#EED5B6" stroke="#000000" stroke-width="1.25" stroke-linecap="square" stroke-miterlimit="10" d="  M411.525,394.392C397.67,414.757,398.099,372.34,411.525,394.392L411.525,394.392z"/>
<path fill-rule="evenodd" clip-rule="evenodd" fill="#EED5B6" stroke="#000000" stroke-width="1.25" stroke-linecap="square" stroke-miterlimit="10" d="  M337.275,395.892c2.67,44.356,68.25,61.916,68.25,9C405.525,346.568,329.081,341.274,337.275,395.892z"/>
<path fill-rule="evenodd" clip-rule="evenodd" fill="#392170" stroke="#000000" stroke-width="1.25" stroke-linecap="square" stroke-miterlimit="10" d="  M335.025,474.64c-2,10-4,20-6,30C331.518,496.131,333.316,484.406,335.025,474.64z"/>
<path fill-rule="evenodd" clip-rule="evenodd" fill="#63211C" stroke="#000000" stroke-linecap="square" stroke-miterlimit="10" d="  M395.775,407.892c-7.987,4.703-13.655,8.562-24,6C378.064,435.277,395.039,427.06,395.775,407.892z"/>
<path fill-rule="evenodd" clip-rule="evenodd" fill="#71AFDB" stroke="#000000" stroke-width="0.5" stroke-linecap="square" stroke-miterlimit="10" d="  M515.775,374.142c-3.173-47.884-80.735-40.854-102.375-12c-18.746,24.994,31.592,21.805,45.375,24.82  C480.003,391.606,514.782,408.339,515.775,374.142z"/>
<path fill-rule="evenodd" clip-rule="evenodd" fill="#0AA121" stroke="#000000" stroke-width="0.5" stroke-linecap="square" stroke-miterlimit="10" d="  M434.025,404.142c-7.27,6.641-16.436,10.065-26.25,9.75c26.232,5.184,73.853-1.275,95.25-16.5  c-30.661-7.865-60.997-12.599-92.25-17.25C414.541,391.256,423.229,399.43,434.025,404.142z"/>
<path fill-rule="evenodd" clip-rule="evenodd" fill="#ABABAB" d="M433.275,352.392L433.275,352.392L433.275,352.392z"/>
<path fill-rule="evenodd" clip-rule="evenodd" fill="#FFFFFF" d="M497.775,368.142c18.216-1.112,5.271-11.917-6-10.5  C474.012,359.876,482.788,373.455,497.775,368.142z"/>
<path fill-rule="evenodd" clip-rule="evenodd" fill="#F7F154" d="M476.025,386.892C431.618,399.179,483.538,348.033,476.025,386.892  L476.025,386.892z"/>
<path fill-rule="evenodd" clip-rule="evenodd" fill="#F7F154" d="M459.525,386.892C430.124,386.839,471.667,330.417,459.525,386.892  L459.525,386.892z"/>
<path fill-rule="evenodd" clip-rule="evenodd" fill="#D63116" d="M459.525,368.892c9.756-0.184,15.106-1.937,18.75,8.25  C467.529,380.329,459.188,379.556,459.525,368.892z"/>
<path fill-rule="evenodd" clip-rule="evenodd" fill="#6A5830" d="M456.525,382.392c-1.247,1.023-4.201-2.215-3,4.5  C460.466,388.011,453.942,384.512,456.525,382.392z"/>
<path fill-rule="evenodd" clip-rule="evenodd" fill="#FFFFFF" d="M455.775,373.392C456.186,373.071,449.898,377.995,455.775,373.392  L455.775,373.392z"/>
<path fill-rule="evenodd" clip-rule="evenodd" fill="#D63116" d="M460.275,361.392c-2.218-6.483-4.024-11.295-5.25-20.25  c-2.735,8.091-2.797,14.306-5.25,20.25C453.275,361.392,456.775,361.392,460.275,361.392z"/>
<path fill-rule="evenodd" clip-rule="evenodd" fill="#FFFFFF" d="M456.525,365.142C453.126,365.142,453.126,365.142,456.525,365.142  L456.525,365.142z"/>
<path fill-rule="evenodd" clip-rule="evenodd" d="M455.025,365.142L455.025,365.142z"/>
<path fill-rule="evenodd" clip-rule="evenodd" d="M455.025,366.642C455.025,364.642,455.025,364.642,455.025,366.642  L455.025,366.642z"/>
<path fill-rule="evenodd" clip-rule="evenodd" d="M456.525,365.142C454.525,365.142,454.525,365.142,456.525,365.142  L456.525,365.142z"/>
<path fill-rule="evenodd" clip-rule="evenodd" fill="#FFFFFF" d="M466.275,380.142C463.159,381.463,462.25,381.849,466.275,380.142  L466.275,380.142z"/>
<path fill-rule="evenodd" clip-rule="evenodd" fill="#FFFFFF" d="M471.525,380.142C468.409,381.463,467.5,381.849,471.525,380.142  L471.525,380.142z"/>
<path fill-rule="evenodd" clip-rule="evenodd" fill="#FFFFFF" d="M479.025,385.392c0.25,2.75,0.5,5.5,0.75,8.25  c-10.789,2.099-19.263-0.318-21-9.75C468.098,382.054,473.656,382.131,479.025,385.392z"/>
<path fill-rule="evenodd" clip-rule="evenodd" fill="#D63116" d="M457.275,384.642c6.239-11.639,17.061-9.791,23.25,1.5  c-2.532-1.288-2.807-4.355-5.25-6C469.659,390.899,466.241,384.283,457.275,384.642z"/>
<path fill-rule="evenodd" clip-rule="evenodd" fill="#6A5830" d="M476.775,389.142c-1.383,1.17-4.771-2.411-3.75,4.5  C479.255,394.935,474.5,391.068,476.775,389.142z"/>
<path fill-rule="evenodd" clip-rule="evenodd" fill="#9ED1F5" d="M467.775,391.392c-2.183-2.251-5.061,2.04-3.75-3.75  C468.715,387.204,465.996,389.557,467.775,391.392z"/>
<path fill-rule="evenodd" clip-rule="evenodd" fill="#9ED1F5" d="M474.525,384.642C476.225,384.642,476.225,384.642,474.525,384.642  L474.525,384.642z"/>
<path fill-rule="evenodd" clip-rule="evenodd" fill="#D63116" d="M469.275,377.892C465.903,376.926,465.596,376.837,469.275,377.892  L469.275,377.892z"/>
<path fill-rule="evenodd" clip-rule="evenodd" fill="#0AA121" d="M456.525,375.642c-6.154-10.8-24.835-14.832-26.25,2.25  C429.125,391.785,452.961,385.388,456.525,375.642z"/>
<path fill-rule="evenodd" clip-rule="evenodd" fill="#98521F" d="M447.525,380.142c-0.761-0.227-5.829,4.054-4.5,3  c-0.158-1.316,0.092-2.566,0.75-3.75c-4.102,4.328-5.241,8.148-6.75,16.5c2.437-0.125,6.07-0.723,9-0.75  C442.18,389.044,447.3,385.28,447.525,380.142z"/>
<path fill-rule="evenodd" clip-rule="evenodd" fill="#FFFFFF" d="M455.775,398.142c-4.955,1.118-10.658,0.507-15.75,0.75  c0.203-8.432,0.867-10.182,6.75-16.5c6.097,3.412,12.394,5.608,17.25,8.25c0,2,0,4,0,6  C461.275,397.142,458.525,397.642,455.775,398.142z"/>
<path fill-rule="evenodd" clip-rule="evenodd" fill="#9ED1F5" d="M458.775,395.892C457.228,393.652,455.607,391.308,458.775,395.892  L458.775,395.892z"/>
<path fill-rule="evenodd" clip-rule="evenodd" fill="#9ED1F5" d="M462.525,395.142C462.068,394.179,459.985,389.789,462.525,395.142  L462.525,395.142z"/>
<path fill-rule="evenodd" clip-rule="evenodd" fill="#9ED1F5" d="M450.525,394.392c-2.225-1.858-5.149,3.202-3.75-3  C451.565,390.017,448.736,392.897,450.525,394.392z"/>
<path fill-rule="evenodd" clip-rule="evenodd" fill="#6A5830" d="M445.275,393.642c-1.282,0.944-4.631-3.089-3.75,4.5  C447.83,399.451,442.938,395.364,445.275,393.642z"/>
<path fill-rule="evenodd" clip-rule="evenodd" fill="#9ED1F5" d="M448.275,388.392C443.69,385.224,446.035,386.844,448.275,388.392  L448.275,388.392z"/>
<path fill-rule="evenodd" clip-rule="evenodd" fill="#D63116" d="M438.525,389.892c7.963-12.089,21.219-12.621,27,1.5  c-10.739-1.656-10.436,1.169-18.75-8.25C446.155,383.964,435.287,394.714,438.525,389.892z"/>
<path fill-rule="evenodd" clip-rule="evenodd" fill="#D63116" d="M455.775,382.392C455.217,381.737,451.865,377.806,455.775,382.392  L455.775,382.392z"/>
<path fill-rule="evenodd" clip-rule="evenodd" fill="#FFFFFF" d="M479.775,355.392C448.72,362.652,510.164,358.41,479.775,355.392  L479.775,355.392z"/>
</svg>