<svg xmlns="http://www.w3.org/2000/svg" xmlns:xlink="http://www.w3.org/1999/xlink" version="1.1" id="Layer_1" x="0px" y="0px" enable-background="new 0 0 822.05 841.89" xml:space="preserve" viewBox="258.99 257.39 302.75 327.5">
<path fill-rule="evenodd" clip-rule="evenodd" fill="#ED1C24" stroke="#000000" stroke-width="2" stroke-linecap="square" stroke-miterlimit="10" d="  M321.491,274.14c8.786,16.888,51.53,117.542,65.25,110.25c18.506-9.836,9.75-107.875,9.75-126  c-0.516,22.953-7.667,99.727,9.752,117.75c16.447,17.017,29.901-5.528,38.25-22.5c-43.524,63.457,43.119,14.215,65.25-0.75  c-8.077,4.021-83.687,53.525-58.125,63.75c31.429,12.571,77.783-4.232,109.125-10.5c-17.859,2.245-109.497,9.297-111,33.75  c-0.46,7.492,33.729,30.537,38.024,34.338c24.075,21.304,48.15,42.608,72.226,63.912c-16.371-11.856-77.942-70.646-99.75-63  c-22.279,7.811,35.381,72.217,43.5,82.5c-11.151-12.558-94.828-92.452-61.5-27.75c-53.682-77.132-34.22,13.121-24,54  c-4.735-23.556-19.816-75.854-46.502-84.75c-29.936-9.979-46.714,33.974-54.75,55.5c35.079-67.351,24.62-114.102-57-91.5  c38.396-7.077,112.948-36.679,31.5-47.25c14.418,0.48,60.882,8.101,65.25-12c4.521-20.805-58.398-48.407-69.75-54.75  c16.007,9.484,52.32,36.544,66.75,13.5C366.483,342.292,329.985,289.854,321.491,274.14z"/>
<path fill-rule="evenodd" clip-rule="evenodd" fill="#FFF200" stroke="#000000" stroke-width="2" stroke-linecap="square" stroke-miterlimit="10" d="  M363.491,361.89c8.635,16.763,16.888,33.97,26.25,50.25c9.551-15.61,7.097-39.358,6.75-57.75  c-0.007,11.713,1.726,84.062,21.752,42.75c-18.868,28.628,19.232,6.142,28.5-0.75c-48.874,27.867-14.854,34.349,23.25,24  c-8.549,1.297-46.701,3.137-49.5,14.25c-2.007,7.968,41.921,38.302,48.75,44.25c-37.107-25.842-62.481-40.451-24.75,9  c-7.255-8.892-35.783-41.362-27.75-12c-17.13-36.527-15.881,6.116-10.5,23.25c-6.288-29.694-32.385-57.288-45.002-12.75  c13.951-25.13,11.629-56.522-25.5-40.5c15.813-2.986,50.495-19.327,14.25-21c41.873,4.037,22.761-16.123-2.25-30  C384.792,423.461,375.439,384.601,363.491,361.89z"/>
</svg>