<svg xmlns="http://www.w3.org/2000/svg" xmlns:xlink="http://www.w3.org/1999/xlink" version="1.1" id="Layer_1" x="0px" y="0px" enable-background="new 0 0 822.05 841.89" xml:space="preserve" viewBox="334.09 256.87 145.02 329.02">
<path fill-rule="evenodd" clip-rule="evenodd" fill="#ED1C24" stroke="#000000" stroke-width="2" stroke-linecap="square" stroke-miterlimit="10" d="  M387.029,334.39c-43.45,15.865-37.331,77.253-40.034,113.83c-1.934,26.162-20.34,96.846-7.216,119.42  c9.141,15.724,37.287,17.25,52.502,17.25c43.728,0,37.412-26.672,41.657-62.83c4.752-40.476,7.3-81.936,14.593-122.045  c3.461-19.036,4.397-39.87-9-55.5C424.241,326.677,408.006,344.973,387.029,334.39z"/>
<path fill-rule="evenodd" clip-rule="evenodd" fill="#BCBEC0" stroke="#000000" stroke-width="2" stroke-linecap="square" stroke-miterlimit="10" d="  M390.781,261.64c-12.627,38.787,55.028,17.389,81,30.375c12.093,6.046,5.147-12.623-6.375-18  c-10.616-4.954-22.646-10.482-34.125-13.125C417.532,257.725,404.001,255.798,390.781,261.64z"/>
<path fill-rule="evenodd" clip-rule="evenodd" fill="#BCBEC0" stroke="#000000" stroke-width="2" stroke-linecap="square" stroke-miterlimit="10" d="  M402.031,288.64c-1.572,15.857-21.34,6.36-22.502,12c-2.711,13.158,4.137,19.909,17.252,18c-15.546,28.913,43.995,26.332,21-5.25  c9.317-0.902,48.785,1.985,48-10.5c-1.295-20.573-30.941-8.01-42.75-6c-0.5-4.25-1-8.5-1.5-12.75  C415.482,285.536,407.439,285.709,402.031,288.64z"/>
<path fill-rule="evenodd" clip-rule="evenodd" fill="#6D6F71" stroke="#000000" stroke-width="2" stroke-linecap="square" stroke-miterlimit="10" d="  M375.029,305.14c-46.958,16.271-24.346,86.857-5.25,72.75c-17.165-22.136-23.074-53.379,11.25-61.5  C379.029,312.64,377.029,308.89,375.029,305.14z"/>
<path fill-rule="evenodd" clip-rule="evenodd" fill="#65686D" stroke="#000000" stroke-width="2" stroke-linecap="square" stroke-miterlimit="10" d="  M358.529,383.89c19.039-16.972,78.084,55.832,92.918,69.556c16.675,15.426,41.64,30.24,13.584,48.944  C397.54,547.384,378.935,430.413,358.529,383.89z"/>
</svg>