<svg xmlns="http://www.w3.org/2000/svg" xmlns:xlink="http://www.w3.org/1999/xlink" version="1.1" id="Layer_1" x="0px" y="0px" enable-background="new 0 0 822.05 841.89" xml:space="preserve" viewBox="211.38 259.3 392.98 326.09">
<path fill-rule="evenodd" clip-rule="evenodd" fill="#D3D1D2" stroke="#010101" stroke-width="2" stroke-linecap="square" stroke-miterlimit="10" d="  M492.138,525.144c-30.226-2.343-37.926-32.457-61.5-42.75c-16.999-7.422-65.997-0.217-78.752,6  c-18.365,8.951-32.957,25.306-55.875,31.5c-34.658,9.367-33.6,30.92-45.375,64.5c53.194,0,106.389,0,159.583,0  c21.328,0,42.656,0,63.984,0C478.312,584.394,490.136,532.019,492.138,525.144z"/>
<path fill-rule="evenodd" clip-rule="evenodd" fill="#D3D1D2" stroke="#010101" stroke-width="2" stroke-linecap="square" stroke-miterlimit="10" d="  M481.638,513.144c-16.438,64.895-105.602,78.673-151.502,36.75c-11.239-10.266-18.107-23.336-24.306-36.973  c-5.343-11.753-34.729,7.894-43.056,12.89c-22.919,13.752-43.572,31.764-50.389,58.583c116.5,0,233.001,0,349.502,0  C548.887,547.713,523.446,516.417,481.638,513.144z"/>
<path fill-rule="evenodd" clip-rule="evenodd" fill="#D3D1D2" stroke="#010101" stroke-width="2" stroke-linecap="square" stroke-miterlimit="10" d="  M493.638,367.644c18.047,63.374,17.925,130.794-66,119.25c8.032-24.78,16.064-49.561,24.097-74.341  C462.245,380.127,461.127,378.745,493.638,367.644z"/>
<path fill-rule="evenodd" clip-rule="evenodd" fill="#D3D1D2" stroke="#010101" stroke-width="2" stroke-linecap="square" stroke-miterlimit="10" d="  M264.886,354.894c0,73.496,52.719,159.74,136.5,156.75c88.154-3.146,90.752-116.969,90.752-180.75  C417.69,360.673,343.867,369.07,264.886,354.894z"/>
<path fill-rule="evenodd" clip-rule="evenodd" fill="#D3D1D2" stroke="#010101" stroke-width="2" stroke-linecap="square" stroke-miterlimit="10" d="  M493.638,322.644c35.9,50.933-31.6,59.25-65.648,59.25c-31.876,0-64.51-1.628-94.854,9.75c-29.347,11.005-12.769,61.414-11.25,89.25  C209.09,487.63,230.397,364.631,283.719,304.2C350.224,228.827,434.501,260.851,493.638,322.644z"/>
<path fill-rule="evenodd" clip-rule="evenodd" fill="#EE2424" stroke="#010101" stroke-width="2" stroke-linecap="square" stroke-miterlimit="10" d="  M544.638,417.144c29.237-14.791,75.58-19.834,52.5-55.5c-21.5,10.75-43,21.5-64.5,32.25c-1.345-6.024-7.189-11.187-8.25-17.25  c-16.5,20.75-33,41.5-49.5,62.25c26-1.5,52-3,78-4.5C550.288,428.958,548.417,421.783,544.638,417.144z"/>
<path fill-rule="evenodd" clip-rule="evenodd" fill="#EE2424" d="M351.886,435.894L351.886,435.894z"/>
<line fill="none" stroke="#010101" stroke-width="2" stroke-linecap="square" stroke-miterlimit="10" x1="351.886" y1="435.894" x2="351.886" y2="435.894"/>
<path fill-rule="evenodd" clip-rule="evenodd" fill="#010101" d="M427.638,421.644C445.052,449.225,447.502,397.225,427.638,421.644  L427.638,421.644z"/>
<path fill="none" stroke="#010101" stroke-width="2" stroke-linecap="square" stroke-miterlimit="10" d="M452.388,418.644  c-10.978-8.208-25.497-4.415-36,4.5"/>
<path fill-rule="evenodd" clip-rule="evenodd" fill="#010101" d="M365.386,432.894C381.699,454.59,387.291,415.51,365.386,432.894  L365.386,432.894z"/>
<path fill="none" stroke="#010101" stroke-width="2" stroke-linecap="square" stroke-miterlimit="10" d="M388.636,427.644  c-12.14-5.019-24.479-0.588-33.75,8.25"/>
<path fill="none" stroke="#010101" stroke-width="2" stroke-linecap="square" stroke-miterlimit="10" d="M396.136,453.894  c6.802,3.571,14.102,3.052,20.252-1.5"/>
<path fill="none" stroke="#010101" stroke-width="2" stroke-linecap="square" stroke-miterlimit="10" d="M384.136,479.394  c15.285,6.102,34.161,7.6,45.002-6.75"/>
<path fill-rule="evenodd" clip-rule="evenodd" fill="#B4D670" stroke="#000000" stroke-width="2" stroke-linecap="square" stroke-miterlimit="10" d="  M333.136,483.144c0.63-26.259,7.029-29.364,24.75-26.25c33.551,5.896,10.23,18.148-1.5,45  C347.032,497.162,338.396,491.687,333.136,483.144z"/>
<path fill-rule="evenodd" clip-rule="evenodd" fill="#F9CBDF" d="M481.638,420.894c-15.944,4.182-64.42,13.48-42,39.75  c12.042,14.109,30.124,7.35,37.5-3.75C483.92,446.688,479.463,431.102,481.638,420.894z"/>
<path fill="none" stroke="#000000" stroke-width="2" stroke-linecap="square" stroke-miterlimit="10" d="M481.638,420.894  c-15.243,3.997-62.822,12.057-43.5,39c7.499,10.457,32.056,10.889,37.875-0.75c5.148-10.298,6.558-22.117,2.625-33"/>
</svg>