<svg xmlns="http://www.w3.org/2000/svg" xmlns:xlink="http://www.w3.org/1999/xlink" version="1.1" id="Layer_1" x="0px" y="0px" enable-background="new 0 0 822.05 841.89" xml:space="preserve" viewBox="308.43 353.65 204.82 134.96">
<path fill-rule="evenodd" clip-rule="evenodd" fill="#EDCBA6" stroke="#000000" stroke-width="1.25" stroke-linecap="square" stroke-miterlimit="10" d="  M336.375,446.015c3.175-2.264,7.17-4.561,9.75-6.75C342.074,440.723,339.596,443.719,336.375,446.015z"/>
<path fill-rule="evenodd" clip-rule="evenodd" fill="#EDCBA6" stroke="#000000" stroke-width="1.25" stroke-linecap="square" stroke-miterlimit="10" d="  M337.875,444.515C335.417,446.974,335.417,446.974,337.875,444.515L337.875,444.515z"/>
<path fill-rule="evenodd" clip-rule="evenodd" fill="#EDCBA6" stroke="#000000" stroke-width="1.25" stroke-linecap="square" stroke-miterlimit="10" d="  M352.875,438.515c-2.658,0.213-4.548,4.757-6.75-0.75C349.265,435.936,351.036,438.663,352.875,438.515z"/>
<path fill-rule="evenodd" clip-rule="evenodd" stroke="#000000" stroke-width="1.25" stroke-linecap="square" stroke-miterlimit="10" d="  M443.625,381.515c1.311,9.355,4.128,18.625,8.25,27C445.977,401.053,442.719,390.199,443.625,381.515z"/>
<path fill-rule="evenodd" clip-rule="evenodd" fill="#EDCBA6" stroke="#000000" stroke-width="1.25" stroke-linecap="square" stroke-miterlimit="10" d="  M452.625,410.765c-1.477,6.833-3.937,12.327-3.75,19.5C447.538,423.894,450.83,416.783,452.625,410.765z"/>
<path fill-rule="evenodd" clip-rule="evenodd" fill="#EDCBA6" stroke="#000000" stroke-width="1.25" stroke-linecap="square" stroke-miterlimit="10" d="  M451.125,411.515C452.51,408.085,452.959,406.973,451.125,411.515L451.125,411.515z"/>
<path fill-rule="evenodd" clip-rule="evenodd" fill="#EDCBA6" stroke="#000000" stroke-width="1.25" stroke-linecap="square" stroke-miterlimit="10" d="  M445.125,440.015c0.729-3.527,5.471-5.498,3-11.25C441.425,432.165,445.821,435.898,445.125,440.015z"/>
<path fill-rule="evenodd" clip-rule="evenodd" stroke="#000000" stroke-width="1.25" stroke-linecap="square" stroke-miterlimit="10" d="  M411.377,386.765c-1.466,9.678-5.697,21.477-9.002,29.25C407.568,406.937,411.385,396.599,411.377,386.765z"/>
<path fill-rule="evenodd" clip-rule="evenodd" stroke="#000000" stroke-width="1.25" stroke-linecap="square" stroke-miterlimit="10" d="  M401.625,416.015c-1.15,7.585-1.752,16.524-3,23.25C401.683,431.495,401.619,422.798,401.625,416.015z"/>
<path fill-rule="evenodd" clip-rule="evenodd" fill="#FFFFFF" stroke="#000000" stroke-width="1.25" stroke-linecap="square" stroke-miterlimit="10" d="  M397.875,443.015c1.048-3.995-3.341-6.968,3-10.5C403.733,437.875,398.989,438.768,397.875,443.015z"/>
<path fill-rule="evenodd" clip-rule="evenodd" stroke="#000000" stroke-width="1.25" stroke-linecap="square" stroke-miterlimit="10" d="  M402.375,414.515C401.195,418.368,400.593,420.337,402.375,414.515L402.375,414.515z"/>
<path fill-rule="evenodd" clip-rule="evenodd" fill="#1B1076" stroke="#000000" stroke-width="1.25" stroke-linecap="square" stroke-miterlimit="10" d="  M423.375,377.015c17.298-6.824,43.108,12.452,22.5,24.75c-1-4-2-8-3-12c2.293,8.247,1.805,17.755,3,26.25  c-12.75,0.75-25.5,1.5-38.25,2.25C415.717,403.703,391.417,378.479,423.375,377.015z"/>
<path fill-rule="evenodd" clip-rule="evenodd" fill="#F8E616" d="M411.377,401.015l2.25-8.25L411.377,401.015z"/>
<line fill="none" stroke="#000000" stroke-width="1.25" stroke-linecap="square" stroke-miterlimit="10" x1="411.377" y1="401.015" x2="413.627" y2="392.765"/>
<path fill-rule="evenodd" clip-rule="evenodd" fill="#EDCBA6" stroke="#000000" stroke-width="1.25" stroke-linecap="square" stroke-miterlimit="10" d="  M436.875,363.515c5.615,20.599-19.1,22.271-24.748,3.75C421.085,367.611,428.49,365.199,436.875,363.515z"/>
<path fill-rule="evenodd" clip-rule="evenodd" fill="#1B1076" stroke="#000000" stroke-width="1.25" stroke-linecap="square" stroke-miterlimit="10" d="  M412.127,365.765c12.465-0.577,24.824-2.912,35.998-8.25C435.253,355.932,418.359,347.708,412.127,365.765z"/>
<path fill-rule="evenodd" clip-rule="evenodd" stroke="#000000" stroke-width="1.25" stroke-linecap="square" stroke-miterlimit="10" d="  M439.125,428.765c1.462,7.782,2.178,15.912,4.5,23.25C441.259,446.464,439.248,432.431,439.125,428.765z"/>
<path fill-rule="evenodd" clip-rule="evenodd" d="M441.375,452.015c-0.75,10.5-1.5,21-2.25,31.5  C440.687,475.41,442.462,457.022,441.375,452.015z"/>
<path fill="none" stroke="#000000" stroke-width="1.25" stroke-linecap="square" stroke-miterlimit="10" d="M441.375,452.015  c-0.75,10.5-1.5,21-2.25,31.5C440.687,475.41,442.462,457.022,441.375,452.015"/>
<path fill-rule="evenodd" clip-rule="evenodd" fill="#1B1076" stroke="#000000" stroke-width="1.25" stroke-linecap="square" stroke-miterlimit="10" d="  M439.125,482.015c8.517-0.797,12.856-3.108,19.5,3c-0.677,0.323-0.927,0.823-0.75,1.5  C447.13,489.232,440.335,488.393,439.125,482.015z"/>
<path fill-rule="evenodd" clip-rule="evenodd" stroke="#000000" stroke-width="1.25" stroke-linecap="square" stroke-miterlimit="10" d="  M418.125,429.515c-0.629,8.046-0.22,15.981-1.5,24C418.924,447.052,419.433,433.168,418.125,429.515z"/>
<path fill-rule="evenodd" clip-rule="evenodd" d="M418.125,452.765c1.5,10,3,20,4.5,30  C421.166,475.14,418.079,458.631,418.125,452.765z"/>
<path fill="none" stroke="#000000" stroke-width="1.25" stroke-linecap="square" stroke-miterlimit="10" d="M418.125,452.765  c1.5,10,3,20,4.5,30C421.166,475.14,418.079,458.631,418.125,452.765"/>
<path fill-rule="evenodd" clip-rule="evenodd" fill="#1B1076" stroke="#000000" stroke-width="1.25" stroke-linecap="square" stroke-miterlimit="10" d="  M421.875,480.515c-8.94,0.207-14.075-1.552-18.75,6C413.444,488.186,422.799,487.583,421.875,480.515z"/>
<path fill-rule="evenodd" clip-rule="evenodd" stroke="#000000" stroke-width="1.25" stroke-linecap="square" stroke-miterlimit="10" d="  M415.875,420.515c-1.801,7.784-11.214,26.562-6.748,32.25c9.936,12.656,19.767-10.288,17.998-18c-0.425,8.569,12.102,29.42,21,15  C458.834,432.412,429.4,415.664,415.875,420.515z"/>
<path fill-rule="evenodd" clip-rule="evenodd" stroke="#000000" stroke-width="1.25" stroke-linecap="square" stroke-miterlimit="10" d="  M386.625,390.515C413.901,336.786,307.226,399.902,386.625,390.515L386.625,390.515z"/>
<path fill-rule="evenodd" clip-rule="evenodd" stroke="#000000" stroke-width="1.25" stroke-linecap="square" stroke-miterlimit="10" d="  M379.875,392.765c5.318,6.844,11.278,13.834,15,21C392.418,405.121,386.813,397.344,379.875,392.765z"/>
<path fill-rule="evenodd" clip-rule="evenodd" fill="#EDCBA6" stroke="#000000" stroke-width="1.25" stroke-linecap="square" stroke-miterlimit="10" d="  M393.375,413.015c1.831,6.454,4.297,12.088,5.25,18.75C399.211,425.608,395.654,418.863,393.375,413.015z"/>
<path fill-rule="evenodd" clip-rule="evenodd" fill="#EDCBA6" stroke="#000000" stroke-width="1.25" stroke-linecap="square" stroke-miterlimit="10" d="  M394.875,415.265C393.033,410.687,393.299,411.349,394.875,415.265L394.875,415.265z"/>
<path fill-rule="evenodd" clip-rule="evenodd" fill="#EDCBA6" stroke="#000000" stroke-width="1.25" stroke-linecap="square" stroke-miterlimit="10" d="  M398.625,443.015c0.26-3.894-4.133-7.035,0.75-12C403.739,436.44,399.071,438.67,398.625,443.015z"/>
<path fill-rule="evenodd" clip-rule="evenodd" stroke="#000000" stroke-width="1.25" stroke-linecap="square" stroke-miterlimit="10" d="  M364.125,393.515c-4.263,7.27-9.68,17.145-12.75,23.25C353.378,407.963,358.019,399.471,364.125,393.515z"/>
<path fill-rule="evenodd" clip-rule="evenodd" stroke="#000000" stroke-width="1.25" stroke-linecap="square" stroke-miterlimit="10" d="  M353.625,413.765c-1.465,7.358-3.929,13.341-3.75,21C348.399,427.814,351.792,420.283,353.625,413.765z"/>
<path fill-rule="evenodd" clip-rule="evenodd" stroke="#000000" stroke-width="1.25" stroke-linecap="square" stroke-miterlimit="10" d="  M351.375,416.015C352.964,413.045,354.109,410.906,351.375,416.015L351.375,416.015z"/>
<path fill-rule="evenodd" clip-rule="evenodd" fill="#EDCBA6" stroke="#000000" stroke-width="1.25" stroke-linecap="square" stroke-miterlimit="10" d="  M346.875,444.515c1.407-4.458,5.28-7.147,3-13.5C344.751,435.011,347.454,439.253,346.875,444.515z"/>
<path fill-rule="evenodd" clip-rule="evenodd" fill="#F8E616" stroke="#000000" stroke-width="1.25" stroke-linecap="square" stroke-miterlimit="10" d="  M357.375,395.015c14.659-5.855,52.012,2.753,33,19.5c-1-3-2-6-3-9c1.98,5.172,0.156,11.841,1.5,17.25c-11,0.25-22,0.5-33,0.75  c1.574-5.631,1.699-12.922,4.5-18c-6.739,11.809-3.567,3.207-11.25,7.5C350.917,407.259,353.371,399.707,357.375,395.015z"/>
<path fill-rule="evenodd" clip-rule="evenodd" fill="#EDCBA6" stroke="#000000" stroke-width="1.25" stroke-linecap="square" stroke-miterlimit="10" d="  M364.875,374.765c-3.848,18.378,15.958,23.542,21,4.5C377.96,379.509,371.979,375.294,364.875,374.765z"/>
<path fill-rule="evenodd" clip-rule="evenodd" stroke="#000000" stroke-width="1.25" stroke-linecap="square" stroke-miterlimit="10" d="  M381.375,437.015c0.864,6.744,1.169,13.545,2.25,20.25C381.618,452.007,381.45,440.069,381.375,437.015z"/>
<path fill-rule="evenodd" clip-rule="evenodd" d="M382.125,457.265c-1.801,8.183-3.394,19.429-3.75,26.25  C378.731,476.316,382.27,459.168,382.125,457.265z"/>
<path fill="none" stroke="#000000" stroke-width="1.25" stroke-linecap="square" stroke-miterlimit="10" d="M382.125,457.265  c-1.801,8.183-3.394,19.429-3.75,26.25C378.731,476.316,382.27,459.168,382.125,457.265"/>
<path fill-rule="evenodd" clip-rule="evenodd" fill="#FB0F0C" stroke="#000000" stroke-width="1.25" stroke-linecap="square" stroke-miterlimit="10" d="  M377.625,482.765c6.635,0.832,9.932-2.383,13.5,4.5C380.405,490.028,379.348,484.067,377.625,482.765z"/>
<path fill-rule="evenodd" clip-rule="evenodd" stroke="#000000" stroke-width="1.25" stroke-linecap="square" stroke-miterlimit="10" d="  M370.875,438.515c-1.128,6.997-1.445,14.055-3,21C370.174,454.696,370.472,444.138,370.875,438.515z"/>
<path fill-rule="evenodd" clip-rule="evenodd" d="M369.375,458.765c0.803,8.612,1.799,18.201,1.5,26.25  C371.164,477.565,368.971,461.158,369.375,458.765z"/>
<path fill="none" stroke="#000000" stroke-width="1.25" stroke-linecap="square" stroke-miterlimit="10" d="M369.375,458.765  c0.803,8.612,1.799,18.201,1.5,26.25C371.164,477.565,368.971,461.158,369.375,458.765"/>
<path fill-rule="evenodd" clip-rule="evenodd" fill="#FB0F0C" stroke="#000000" stroke-width="1.25" stroke-linecap="square" stroke-miterlimit="10" d="  M372.375,482.765c-7.131,0.792-11.556-1.755-15,4.5C367.002,488.834,371.036,483.729,372.375,482.765z"/>
<path fill-rule="evenodd" clip-rule="evenodd" fill="#FB0F0C" stroke="#000000" stroke-width="1.25" stroke-linecap="square" stroke-miterlimit="10" d="  M364.125,424.265c23.608-7.157,25.674,16.035,33,33c-15.392,4.327-31.61,3.729-47.25,0.75  C354.625,446.765,359.375,435.515,364.125,424.265z"/>
<path fill-rule="evenodd" clip-rule="evenodd" fill="#F8E616" stroke="#000000" stroke-width="1.25" stroke-linecap="square" stroke-miterlimit="10" d="  M330.375,430.265c1.789-20.35-19.377-17.422-15,3C320.088,432.323,326.061,432.303,330.375,430.265z"/>
<path fill-rule="evenodd" clip-rule="evenodd" stroke="#000000" stroke-width="1.25" stroke-linecap="square" stroke-miterlimit="10" d="  M328.125,432.515c2.998,3.915,5.926,7.606,8.25,12C334.964,438.679,331.365,436.554,328.125,432.515z"/>
<path fill-rule="evenodd" clip-rule="evenodd" stroke="#000000" stroke-width="1.25" stroke-linecap="square" stroke-miterlimit="10" d="  M319.125,433.265c-2.409,4.115-5.47,9.197-7.5,12.75C312.73,440.229,317.305,435.998,319.125,433.265z"/>
<path fill-rule="evenodd" clip-rule="evenodd" stroke="#000000" stroke-width="1.25" stroke-linecap="square" stroke-miterlimit="10" d="  M312.375,444.515c-0.776,3.996-1.405,8.015-2.25,12C310.483,452.369,311.588,448.568,312.375,444.515z"/>
<path fill-rule="evenodd" clip-rule="evenodd" stroke="#000000" stroke-width="1.25" stroke-linecap="square" stroke-miterlimit="10" d="  M311.625,446.015C312.053,444.998,313.068,442.584,311.625,446.015L311.625,446.015z"/>
<path fill-rule="evenodd" clip-rule="evenodd" fill="#EDCBA6" stroke="#000000" stroke-width="1.25" stroke-linecap="square" stroke-miterlimit="10" d="  M309.375,462.515c0.221-1.182,3.317-3.688,1.5-7.5C307.579,457.101,309.866,459.885,309.375,462.515z"/>
<path fill-rule="evenodd" clip-rule="evenodd" fill="#1B1076" stroke="#000000" stroke-width="1.25" stroke-linecap="square" stroke-miterlimit="10" d="  M315.375,434.015c10.288-4.664,18.647-1.817,22.5,9c-5.872,3.753-2.274-2.268-5.25-3c0.25,3.25,0.5,6.5,0.75,9.75  c-4.661,1.432-14.028,1.925-18.75,0.75c0.75-3.5,1.5-7,2.25-10.5c-3.914,3.546-0.174,6.051-6.75,3.75  C311.033,439.662,313.736,437.461,315.375,434.015z"/>
<path fill-rule="evenodd" clip-rule="evenodd" fill="#EDCBA6" stroke="#000000" stroke-width="1.25" stroke-linecap="square" stroke-miterlimit="10" d="  M316.875,426.515c8.58,4.596,12.76,8.563,11.25-5.25C324.663,423.871,320.929,425.422,316.875,426.515z"/>
<path fill-rule="evenodd" clip-rule="evenodd" stroke="#000000" stroke-width="1.25" stroke-linecap="square" stroke-miterlimit="10" d="  M328.875,457.265c0.245,3.645,0.539,9.804,0.75,12C329.366,468.038,328.854,456.959,328.875,457.265z"/>
<path fill-rule="evenodd" clip-rule="evenodd" d="M328.875,469.265c-0.739,5.252-1.5,10.5-2.25,15.75  C328.359,480.902,328.715,471.508,328.875,469.265z"/>
<path fill="none" stroke="#000000" stroke-width="1.25" stroke-linecap="square" stroke-miterlimit="10" d="M328.875,469.265  c-0.739,5.252-1.5,10.5-2.25,15.75C328.359,480.902,328.715,471.508,328.875,469.265"/>
<path fill-rule="evenodd" clip-rule="evenodd" fill="#F8E616" stroke="#000000" stroke-width="1.25" stroke-linecap="square" stroke-miterlimit="10" d="  M326.625,484.265c3.282,1.162,5.59-1.104,7.5,2.25C328.514,488.727,326.795,484.326,326.625,484.265z"/>
<path fill-rule="evenodd" clip-rule="evenodd" stroke="#000000" stroke-width="1.25" stroke-linecap="square" stroke-miterlimit="10" d="  M322.875,458.765c-0.57,3.687-1.622,9.754-1.5,12C321.436,470.489,323.35,455.693,322.875,458.765z"/>
<path fill-rule="evenodd" clip-rule="evenodd" d="M322.125,470.015c0.488,5.272,1.332,11.018,0.75,15.75  C321.925,481.378,322.166,471.567,322.125,470.015z"/>
<path fill="none" stroke="#000000" stroke-width="1.25" stroke-linecap="square" stroke-miterlimit="10" d="M322.125,470.015  c0.488,5.272,1.332,11.018,0.75,15.75C321.925,481.378,322.166,471.567,322.125,470.015"/>
<path fill-rule="evenodd" clip-rule="evenodd" fill="#F8E616" stroke="#000000" stroke-width="1.25" stroke-linecap="square" stroke-miterlimit="10" d="  M323.625,484.265c-3.876,0.937-6.395-0.737-9,2.25C318.755,487.414,324.645,484.019,323.625,484.265z"/>
<path fill-rule="evenodd" clip-rule="evenodd" fill="#F8E616" stroke="#000000" stroke-width="1.25" stroke-linecap="square" stroke-miterlimit="10" d="  M318.375,451.265c11.726-1.361,17.803,5.572,19.5,18c-8.734,2.795-18.012,3.028-27,0.75  C313.202,464.197,314.618,456.208,318.375,451.265z"/>
<path fill-rule="evenodd" clip-rule="evenodd" fill="#EDCBA6" stroke="#000000" stroke-width="1.25" stroke-linecap="square" stroke-miterlimit="10" d="  M480.375,425.765c-0.189,4.654-5.632,9.231,9,4.5C486.77,423.23,483.84,428.124,480.375,425.765z"/>
<path fill-rule="evenodd" clip-rule="evenodd" stroke="#000000" stroke-width="1.25" stroke-linecap="square" stroke-miterlimit="10" d="  M508.875,453.515c-7.567-6.73-13.493-17.108-20.25-20.25C496.035,441.408,501.297,450.559,508.875,453.515z"/>
<path fill-rule="evenodd" clip-rule="evenodd" fill="#1B1076" stroke="#000000" stroke-width="1.25" stroke-linecap="square" stroke-miterlimit="10" d="  M477.375,482.015c-4.292,2.267-7.326-0.633-10.5,4.5C475.572,488.147,476.856,482.309,477.375,482.015z"/>
<path fill-rule="evenodd" clip-rule="evenodd" stroke="#000000" stroke-width="1.25" stroke-linecap="square" stroke-miterlimit="10" d="  M467.625,464.015c6.014-6.363,13.052-7.557,9-15c-12.654,9.916-11.485,22.41-1.5,34.5c0.5,0,1,0,1.5,0  C474.327,476.935,470.883,470.41,467.625,464.015z"/>
<path fill-rule="evenodd" clip-rule="evenodd" fill="#1B1076" stroke="#000000" stroke-width="1.25" stroke-linecap="square" stroke-miterlimit="10" d="  M485.625,482.015c2.803,2.481,6.722,0.607,9,5.25C484.952,488.171,485.85,482.214,485.625,482.015z"/>
<path fill-rule="evenodd" clip-rule="evenodd" fill="#EDCBA6" stroke="#000000" stroke-width="1.25" stroke-linecap="square" stroke-miterlimit="10" d="  M491.625,418.265c-4.698,12.126-9.995,12.836-15,0C481.861,419.33,486.714,417.772,491.625,418.265z"/>
<path fill-rule="evenodd" clip-rule="evenodd" fill="#1B1076" stroke="#000000" stroke-width="1.25" stroke-linecap="square" stroke-miterlimit="10" d="  M476.625,416.765c7.597,0.766,14.957,1.676,22.5-0.75C491.628,410.885,484.133,410.259,476.625,416.765z"/>
<path fill-rule="evenodd" clip-rule="evenodd" stroke="#000000" stroke-width="1.25" stroke-linecap="square" stroke-miterlimit="10" d="  M478.875,428.765c-8.727-3.52-16.86-7.703-24.75-12.75C459.752,422.312,473.302,428.084,478.875,428.765z"/>
<path fill-rule="evenodd" clip-rule="evenodd" fill="#FB0F0C" stroke="#000000" stroke-width="1.25" stroke-linecap="square" stroke-miterlimit="10" d="  M471.375,422.765c0.392,1.885-1.893,5.316-3,6.75c5.233,8.985,4.775,21.194,21.75,19.5c0-3.75,0-7.5,0-11.25  c6.244-0.498,2.636,1.706,9-2.25C488.45,432.038,479.884,430.09,471.375,422.765z"/>
<path fill-rule="evenodd" clip-rule="evenodd" stroke="#000000" stroke-width="1.25" stroke-linecap="square" stroke-miterlimit="10" d="  M486.375,464.015c-0.19-6.242,0.792-11.024-2.25-15c0.551,11.588,0.592,24.371,2.25,34.5  C486.375,477.016,486.31,470.514,486.375,464.015z"/>
<path fill-rule="evenodd" clip-rule="evenodd" fill="#1B1076" stroke="#000000" stroke-width="1.25" stroke-linecap="square" stroke-miterlimit="10" d="  M473.625,449.015c-2.25,2.75-4.5,5.5-6.75,8.25c9.578,2.362,1.965,5.622,12.75-0.75c5.5,10.039,1.224,3.523,10.5,8.25  C491.978,451.534,484.643,446.386,473.625,449.015z"/>
<path fill-rule="evenodd" clip-rule="evenodd" fill="#EDCBA6" stroke="#000000" stroke-width="1.25" stroke-linecap="square" stroke-miterlimit="10" d="  M505.125,452.765c2.024,1.15,2.804,4.893,7.5,4.5C511.887,452.023,508.514,454.691,505.125,452.765z"/>
<path fill-rule="evenodd" clip-rule="evenodd" fill="#EDCBA6" stroke="#000000" stroke-width="1.25" stroke-linecap="square" stroke-miterlimit="10" d="  M454.875,418.265c-0.971-3.496-4.536-6.264-3-11.25C455.229,410.451,453.836,414.525,454.875,418.265z"/>
</svg>