<svg xmlns="http://www.w3.org/2000/svg" xmlns:xlink="http://www.w3.org/1999/xlink" version="1.1" id="Layer_1" x="0px" y="0px" enable-background="new 0 0 822.05 841.89" xml:space="preserve" viewBox="209.75 295.66 401.75 251.2">
<path fill="none" stroke="#000000" stroke-width="2" stroke-linecap="square" stroke-miterlimit="10" d="M382.504,382.688  c3.791,110.85-171.97,111.014-171.75,0C210.973,272.121,386.525,272.448,382.504,382.688z"/>
<path fill-rule="evenodd" clip-rule="evenodd" fill="#90A7D6" stroke="#000000" stroke-width="2" stroke-linecap="square" stroke-miterlimit="10" d="  M327.004,390.188c-1.252,35.206-55.095,35.748-55.5,0C271.09,353.63,327.095,353.912,327.004,390.188z"/>
<path fill="none" stroke="#000000" stroke-width="2" stroke-linecap="square" stroke-miterlimit="10" d="M368.254,386.438  c5.144,89.714-139.5,90.264-139.5,0C228.754,296.219,373.136,296.674,368.254,386.438z"/>
<path fill-rule="evenodd" clip-rule="evenodd" fill="#BCBEC0" stroke="#000000" stroke-width="2" stroke-linecap="square" stroke-miterlimit="10" d="  M282.004,366.938c-19.16-27.445-13.078-66.291,27-58.5c9.828,1.911,45.278,20.29,42,34.5c-2.857,12.385-29.298,9.378-36,24  C304.819,359.979,292.251,359.925,282.004,366.938z"/>
<path fill-rule="evenodd" clip-rule="evenodd" fill="#BCBEC0" stroke="#000000" stroke-width="2" stroke-linecap="square" stroke-miterlimit="10" d="  M288.754,414.938c-12.107,33.264-44.077,35.345-57,2.25c-3.129-8.015-9.305-46.253,3.75-51c9.005-3.274,23.66,19.479,36,20.25  C271.934,398.325,278.515,408.761,288.754,414.938z"/>
<path fill-rule="evenodd" clip-rule="evenodd" fill="#BCBEC0" stroke="#000000" stroke-width="2" stroke-linecap="square" stroke-miterlimit="10" d="  M328.504,384.188c33.665-5.499,52.782,17.832,30.75,46.5c-5.122,6.665-33.887,31.008-44.25,23.25  c-7.922-5.931,4.245-29.683-1.5-40.5C323.055,406.672,328.455,395.958,328.504,384.188z"/>
<path fill-rule="evenodd" clip-rule="evenodd" fill="#90A7D6" stroke="#000000" stroke-width="2" stroke-linecap="square" stroke-miterlimit="10" d="  M296.254,417.938c-5.149,27.854-10.299,55.708-15.449,83.562c-3.39,18.336-31.176,19.059-34.801,43.188  c35.25,0.25,70.5,0.5,105.75,0.75c-5.456-26.777-36.208-25.465-40.176-50.315C308.106,473.38,307.981,433.002,296.254,417.938z"/>
<path fill="none" stroke="#000000" stroke-width="2" stroke-linecap="square" stroke-miterlimit="10" d="M279.754,507.188  c10.85,5.308,23.085,5.812,33.75,0"/>
<path fill="none" stroke="#000000" stroke-width="2" stroke-linecap="square" stroke-miterlimit="10" d="M276.754,544.688  c-2.167-6.513-0.527-16.335-0.75-23.25c26.049-0.474,46.949-10.036,42,23.25C304.254,544.688,290.504,544.688,276.754,544.688z"/>
<path fill-rule="evenodd" clip-rule="evenodd" fill="#FFFFFF" stroke="#000000" stroke-width="2" stroke-linecap="square" stroke-miterlimit="10" d="  M290.254,532.688c1.758-0.033-2.404,5.689-3,6c-1.647-4.941-2.336-5.229-1.5-11.25C289.598,527.099,290.388,532.685,290.254,532.688  z"/>
<path fill-rule="evenodd" clip-rule="evenodd" fill="#FFFFFF" stroke="#000000" stroke-width="2" stroke-linecap="square" stroke-miterlimit="10" d="  M301.504,532.688c1.826-0.038-2.603,5.743-3,6C293.242,524.122,298.043,532.761,301.504,532.688z"/>
<path fill-rule="evenodd" clip-rule="evenodd" fill="#FFFFFF" stroke="#000000" stroke-width="2" stroke-linecap="square" stroke-miterlimit="10" d="  M312.004,532.688c1.826-0.038-2.603,5.743-3,6C303.742,524.122,308.543,532.761,312.004,532.688z"/>
<path fill="none" stroke="#000000" stroke-width="2" stroke-linecap="square" stroke-miterlimit="10" d="M294.004,362.438  c-0.5-21.75-1-43.5-1.5-65.25c4.409-0.873,12.19-0.524,16.5,0.75c-1.775,11.606-15.59,61.803-5.25,65.25  c9.948,3.316,26.049-46.523,30.75-57c5.079,1.675,15.285,8.671,18.75,12.75c-6.657,8.354-41.994,44.256-35.25,51  c7.487,7.487,46.347-20.2,56.25-25.5c3.094,6.882,5.622,16.535,6.75,24c-12.203,2.968-55.932,6.597-55.125,19.5  c0.783,12.523,45.169,6,57.375,6c0.012,5.749-3.793,18.308-6.75,23.25c-11.295-3.55-49.403-22.252-55.125-11.625  c-5.576,10.355,30.842,28.947,40.125,35.625c-29.211,37.709-74.482-84.93-47.25,24c-36.376,13.597-23.912-11.779-19.636-37.437  c2-12.003-8.703-20.87-14.278-7.446c-5.695,13.711-11.391,27.422-17.086,41.133c-5.245-1.04-14.906-6.036-18.75-9.75  c10.18-14.345,39.979-39.992,27.75-57c-17,10.25-34,20.5-51,30.75c-2.75-9-5.5-18-8.25-27c18.58-4.645,54.079-5.504,63-22.5  c-21-3.75-42-7.5-63-11.25c3.5-9.75,7-19.5,10.5-29.25c9.322,5.842,52.642,39.374,58.875,32.25c6.721-7.681-26.47-47.57-32.625-57"/>
<path fill="none" stroke="#000000" stroke-width="2" stroke-linecap="square" stroke-miterlimit="10" d="M495.754,382.688  c3.79,110.817-171.249,111.127-171,0C325.001,272.071,499.775,272.425,495.754,382.688z"/>
<path fill-rule="evenodd" clip-rule="evenodd" fill="#90A7D6" stroke="#000000" stroke-width="2" stroke-linecap="square" stroke-miterlimit="10" d="  M440.254,390.188c0.658,35.505-54.973,35.48-55.5,0C384.213,353.765,441.718,353.755,440.254,390.188z"/>
<path fill="none" stroke="#000000" stroke-width="2" stroke-linecap="square" stroke-miterlimit="10" d="M482.254,386.438  c-2.45,89.863-140.25,90.207-140.25,0C342.004,296.192,479.416,296.636,482.254,386.438z"/>
<path fill-rule="evenodd" clip-rule="evenodd" fill="#BCBEC0" stroke="#000000" stroke-width="2" stroke-linecap="square" stroke-miterlimit="10" d="  M395.254,366.938c-17.578-27.711-14.054-66.457,27-58.5c9.006,1.745,45.984,20.516,42.75,34.5c-3.056,13.214-30.172,8.64-36,24  C418.45,360.207,405.739,359.849,395.254,366.938z"/>
<path fill-rule="evenodd" clip-rule="evenodd" fill="#BCBEC0" stroke="#000000" stroke-width="2" stroke-linecap="square" stroke-miterlimit="10" d="  M402.004,414.938c-12.31,32.584-44.029,36.094-57,2.25c-3.036-7.921-8.695-46.237,3.75-51c8.945-3.424,23.747,19.479,36,20.25  C385.184,398.325,391.765,408.761,402.004,414.938z"/>
<path fill-rule="evenodd" clip-rule="evenodd" fill="#BCBEC0" stroke="#000000" stroke-width="2" stroke-linecap="square" stroke-miterlimit="10" d="  M441.754,384.188c33.646-5.371,52.875,17.71,30.75,46.5c-5.026,6.54-34.043,31.123-44.25,23.25c-7.882-6.08,4.622-29.584-1.5-40.5  C436.536,406.842,441.976,396.068,441.754,384.188z"/>
<path fill-rule="evenodd" clip-rule="evenodd" fill="#90A7D6" stroke="#000000" stroke-width="2" stroke-linecap="square" stroke-miterlimit="10" d="  M409.504,417.938c-4.756,25.729-9.513,51.456-14.27,77.185c-4.252,23.003-29.809,24.096-35.23,49.565c35,0.25,70,0.5,105,0.75  c-5.456-26.777-36.209-25.465-40.177-50.315C421.356,473.38,421.23,433.002,409.504,417.938z"/>
<path fill="none" stroke="#000000" stroke-width="2" stroke-linecap="square" stroke-miterlimit="10" d="M393.004,507.188  c10.822,5.33,23.123,5.867,33.75,0"/>
<path fill="none" stroke="#000000" stroke-width="2" stroke-linecap="square" stroke-miterlimit="10" d="M390.004,544.688  c-2.166-6.513-0.527-16.335-0.75-23.25c14-0.25,28-0.5,42-0.75C437.245,553.897,416.033,544.688,390.004,544.688z"/>
<path fill-rule="evenodd" clip-rule="evenodd" fill="#FFFFFF" stroke="#000000" stroke-width="2" stroke-linecap="square" stroke-miterlimit="10" d="  M404.254,532.688c0.715-0.012-3.16,5.633-3.75,6C395.186,524.125,400.085,532.754,404.254,532.688z"/>
<path fill-rule="evenodd" clip-rule="evenodd" fill="#FFFFFF" stroke="#000000" stroke-width="2" stroke-linecap="square" stroke-miterlimit="10" d="  M414.754,532.688c1.76-0.033-2.405,5.689-3,6C406.63,524.046,411.461,532.75,414.754,532.688z"/>
<path fill-rule="evenodd" clip-rule="evenodd" fill="#FFFFFF" stroke="#000000" stroke-width="2" stroke-linecap="square" stroke-miterlimit="10" d="  M425.254,532.688c1.76-0.033-2.405,5.689-3,6C417.13,524.046,421.961,532.75,425.254,532.688z"/>
<path fill="none" stroke="#000000" stroke-width="2" stroke-linecap="square" stroke-miterlimit="10" d="M407.254,362.438  c-0.5-21.75-1-43.5-1.5-65.25c4.568-0.933,12.785-0.589,17.25,0.75c-1.903,11.558-16.279,61.824-6,65.25  c9.948,3.316,26.049-46.523,30.75-57c5.076,1.671,15.287,8.674,18.75,12.75c-6.51,8.333-41.125,43.857-34.875,51  c6.396,7.31,46.475-20.469,55.875-25.5c3.088,6.892,5.621,16.528,6.75,24c-12.33,3.041-54.75,6.392-54.75,19.5  c0,12.339,44.969,6,57,6c0.012,5.749-3.794,18.308-6.75,23.25c-11.295-3.55-49.403-22.252-55.125-11.625  c-5.576,10.355,30.842,28.947,40.125,35.625c-28.25,37.993-74.591-85.366-47.25,24c-35.323,13.223-23.276-12.429-19.487-37.437  c1.81-11.947-8.839-20.899-14.427-7.446c-5.695,13.711-11.391,27.422-17.086,41.133c-5.245-1.04-14.906-6.036-18.75-9.75  c10.18-14.345,39.979-39.992,27.75-57c-17,10.25-34,20.5-51,30.75c-2.75-9-5.5-18-8.25-27c18.58-4.645,54.079-5.504,63-22.5  c-21-3.75-42-7.5-63-11.25c3.5-9.75,7-19.5,10.5-29.25c9.322,5.842,52.642,39.374,58.875,32.25c6.721-7.681-26.47-47.57-32.625-57"/>
<path fill="none" stroke="#000000" stroke-width="2" stroke-linecap="square" stroke-miterlimit="10" d="M609.754,382.688  c3.79,110.817-171.249,111.127-171,0C439.002,272.071,613.775,272.425,609.754,382.688z"/>
<path fill-rule="evenodd" clip-rule="evenodd" fill="#90A7D6" stroke="#000000" stroke-width="2" stroke-linecap="square" stroke-miterlimit="10" d="  M554.254,390.188c0.658,35.505-54.974,35.48-55.5,0C498.213,353.765,555.718,353.755,554.254,390.188z"/>
<path fill="none" stroke="#000000" stroke-width="2" stroke-linecap="square" stroke-miterlimit="10" d="M596.254,386.438  c-2.45,89.863-140.25,90.207-140.25,0C456.004,296.192,593.416,296.636,596.254,386.438z"/>
<path fill-rule="evenodd" clip-rule="evenodd" fill="#BCBEC0" stroke="#000000" stroke-width="2" stroke-linecap="square" stroke-miterlimit="10" d="  M509.254,366.938c-17.578-27.711-14.054-66.457,27-58.5c9.006,1.745,45.984,20.516,42.75,34.5c-3.056,13.214-30.172,8.64-36,24  C532.45,360.207,519.738,359.849,509.254,366.938z"/>
<path fill-rule="evenodd" clip-rule="evenodd" fill="#BCBEC0" stroke="#000000" stroke-width="2" stroke-linecap="square" stroke-miterlimit="10" d="  M516.004,414.938c-12.31,32.584-44.029,36.094-57,2.25c-3.036-7.921-8.694-46.237,3.75-51c8.945-3.424,23.747,19.479,36,20.25  C499.184,398.325,505.765,408.761,516.004,414.938z"/>
<path fill-rule="evenodd" clip-rule="evenodd" fill="#BCBEC0" stroke="#000000" stroke-width="2" stroke-linecap="square" stroke-miterlimit="10" d="  M555.754,384.188c33.646-5.371,52.875,17.71,30.75,46.5c-5.026,6.54-34.043,31.123-44.25,23.25c-7.882-6.08,4.622-29.584-1.5-40.5  C550.536,406.842,555.976,396.068,555.754,384.188z"/>
<path fill-rule="evenodd" clip-rule="evenodd" fill="#90A7D6" stroke="#000000" stroke-width="2" stroke-linecap="square" stroke-miterlimit="10" d="  M523.504,417.938c-4.757,25.729-9.513,51.456-14.27,77.185c-4.253,23.003-29.81,24.096-35.23,49.565c35,0.25,70,0.5,105,0.75  c-5.456-26.777-36.209-25.465-40.177-50.315C535.356,473.38,535.23,433.002,523.504,417.938z"/>
<path fill="none" stroke="#000000" stroke-width="2" stroke-linecap="square" stroke-miterlimit="10" d="M507.004,507.188  c10.821,5.33,23.123,5.867,33.75,0"/>
<path fill="none" stroke="#000000" stroke-width="2" stroke-linecap="square" stroke-miterlimit="10" d="M504.004,544.688  c-2.166-6.513-0.527-16.335-0.75-23.25c14-0.25,28-0.5,42-0.75C551.245,553.897,530.033,544.688,504.004,544.688z"/>
<path fill-rule="evenodd" clip-rule="evenodd" fill="#FFFFFF" stroke="#000000" stroke-width="2" stroke-linecap="square" stroke-miterlimit="10" d="  M518.254,532.688c0.715-0.012-3.16,5.633-3.75,6C509.186,524.125,514.086,532.754,518.254,532.688z"/>
<path fill-rule="evenodd" clip-rule="evenodd" fill="#FFFFFF" stroke="#000000" stroke-width="2" stroke-linecap="square" stroke-miterlimit="10" d="  M528.754,532.688c1.76-0.033-2.405,5.689-3,6C520.63,524.046,525.461,532.75,528.754,532.688z"/>
<path fill-rule="evenodd" clip-rule="evenodd" fill="#FFFFFF" stroke="#000000" stroke-width="2" stroke-linecap="square" stroke-miterlimit="10" d="  M539.254,532.688c1.76-0.033-2.405,5.689-3,6C531.13,524.046,535.961,532.75,539.254,532.688z"/>
<path fill="none" stroke="#000000" stroke-width="2" stroke-linecap="square" stroke-miterlimit="10" d="M521.254,362.438  c-0.5-21.75-1-43.5-1.5-65.25c4.568-0.933,12.785-0.589,17.25,0.75c-1.903,11.558-16.279,61.824-6,65.25  c9.948,3.316,26.049-46.523,30.75-57c5.076,1.671,15.287,8.674,18.75,12.75c-6.51,8.333-41.125,43.857-34.875,51  c6.396,7.31,46.475-20.469,55.875-25.5c3.088,6.892,5.621,16.528,6.75,24c-12.33,3.041-54.75,6.392-54.75,19.5  c0,12.339,44.969,6,57,6c0.012,5.749-3.794,18.308-6.75,23.25c-11.295-3.55-49.403-22.252-55.125-11.625  c-5.576,10.355,30.842,28.947,40.125,35.625c-28.25,37.993-74.592-85.366-47.25,24c-35.323,13.223-23.276-12.429-19.487-37.437  c1.811-11.947-8.839-20.899-14.427-7.446c-5.695,13.711-11.391,27.422-17.086,41.133c-5.245-1.04-14.906-6.036-18.75-9.75  c10.18-14.345,39.979-39.992,27.75-57c-17,10.25-34,20.5-51,30.75c-2.75-9-5.5-18-8.25-27c18.58-4.645,54.079-5.504,63-22.5  c-21-3.75-42-7.5-63-11.25c3.5-9.75,7-19.5,10.5-29.25c9.322,5.842,52.642,39.374,58.875,32.25c6.721-7.681-26.47-47.57-32.625-57"/>
</svg>