<svg xmlns="http://www.w3.org/2000/svg" xmlns:xlink="http://www.w3.org/1999/xlink" version="1.1" id="Layer_1" x="0px" y="0px" enable-background="new 0 0 822.05 841.89" xml:space="preserve" viewBox="305.65 338.66 208.89 168.37">
<path fill-rule="evenodd" clip-rule="evenodd" fill="#F2DCC4" stroke="#000000" stroke-width="1.25" stroke-linecap="square" stroke-miterlimit="10" d="  M426.409,426.288c-26.534-17.01-31.395-13.092-58.5-2.25c-11.483,4.593-24.044,29.25-4.61,29.25  C401.313,453.288,416.9,464.324,426.409,426.288z"/>
<path fill-rule="evenodd" clip-rule="evenodd" fill="#FFE600" stroke="#000000" stroke-width="1.25" stroke-linecap="square" stroke-miterlimit="10" d="  M423.409,421.038c-4.549,17.075-22.247,21.38-37.5,16.5c-8.732-2.794-12.437-17.551-19.875-16.875  c-17.34,1.576-23.975,10.868-34.764,23.681c-24.141,28.667-35.868,49.695,9.264,44.944c14.722-1.55,3.532,17.289,28.977,17.118  c30.716-0.206,61.433-0.412,92.148-0.618C460.478,480.935,453.131,428.399,423.409,421.038z"/>
<path fill-rule="evenodd" clip-rule="evenodd" fill="#F2DCC4" stroke="#000000" stroke-width="1.25" stroke-linecap="square" stroke-miterlimit="10" d="  M372.409,401.538C376.188,426.598,348.022,394.923,372.409,401.538L372.409,401.538z"/>
<path fill-rule="evenodd" clip-rule="evenodd" fill="#F2DCC4" stroke="#000000" stroke-width="1.25" stroke-linecap="square" stroke-miterlimit="10" d="  M431.659,383.538C418.051,404.099,418.359,362.114,431.659,383.538L431.659,383.538z"/>
<path fill-rule="evenodd" clip-rule="evenodd" fill="#F2DCC4" stroke="#000000" stroke-width="1.25" stroke-linecap="square" stroke-miterlimit="10" d="  M357.409,377.538c4.207,46.559,68.463,60.778,68.25,6.75C425.439,328.503,351.988,322.8,357.409,377.538z"/>
<path fill-rule="evenodd" clip-rule="evenodd" fill="#FFFFFF" d="M351.409,451.788l-0.75,13.5L351.409,451.788z"/>
<line fill="none" stroke="#000000" stroke-width="1.25" stroke-linecap="square" stroke-miterlimit="10" x1="351.409" y1="451.788" x2="350.659" y2="465.288"/>
<path fill-rule="evenodd" clip-rule="evenodd" fill="#FFE600" stroke="#000000" stroke-width="1.25" stroke-linecap="square" stroke-miterlimit="10" d="  M370.909,457.038c-13.85,1.13-56.611-0.587-63,18c-12.646,36.792,51.612,12.164,65.25,8.25  C368.072,475.205,367.318,465.996,370.909,457.038z"/>
<path fill-rule="evenodd" clip-rule="evenodd" fill="#7A2A25" stroke="#000000" stroke-linecap="square" stroke-miterlimit="10" d="  M416.659,392.538c-6.809,16.071-16.794,24.659-31.5,12C396.52,403.592,407.259,399.041,416.659,392.538z"/>
<path fill-rule="evenodd" clip-rule="evenodd" d="M387.409,387.288c-1.491,0.574-0.117,5.745-3.75,1.5  C384.137,383.594,386.353,387.694,387.409,387.288z"/>
<path fill-rule="evenodd" clip-rule="evenodd" d="M406.909,382.038c-1.792,0.697-0.207,5.436-4.5,1.5  C403.488,378.437,405.798,382.47,406.909,382.038z"/>
<path fill="none" stroke="#000000" stroke-linecap="square" stroke-miterlimit="10" d="M394.909,392.538  c2.626,2.062,5.108,1.383,6.75-1.5"/>
<path fill="none" stroke="#000000" stroke-width="0.75" stroke-linecap="square" stroke-miterlimit="10" d="M379.909,390.288  c2.262-4.381,5.961-5.657,10.5-3.75"/>
<path fill="none" stroke="#000000" stroke-width="0.75" stroke-linecap="square" stroke-miterlimit="10" d="M410.659,381.288  c-4.284-1.715-8.247-0.624-11.25,3"/>
<path fill-rule="evenodd" clip-rule="evenodd" fill="#F2DCC4" stroke="#000000" stroke-width="1.25" stroke-linecap="square" stroke-miterlimit="10" d="  M335.659,432.288c-2.638,22.184,16.536,30.179,21,5.625C361.664,410.387,335.924,403.102,335.659,432.288z"/>
<path fill-rule="evenodd" clip-rule="evenodd" fill="#F2DCC4" stroke="#000000" stroke-width="1.25" stroke-linecap="square" stroke-miterlimit="10" d="  M331.909,445.788c0.334,10.838-7.309,26.653-1.5,37.5c8.705,16.254,33.191,15.497,42.75,3  C391.083,462.854,361.787,418.471,331.909,445.788z"/>
<path fill-rule="evenodd" clip-rule="evenodd" fill="#F2DCC4" d="M339.409,452.538c12.308-5.006,26.356-3.382,36,6  C363.409,456.538,351.409,454.538,339.409,452.538z"/>
<path fill="none" stroke="#000000" stroke-width="1.25" stroke-linecap="square" stroke-miterlimit="10" d="M339.409,452.538  c12.308-5.006,26.356-3.382,36,6"/>
<path fill-rule="evenodd" clip-rule="evenodd" fill="#F2DCC4" d="M372.409,469.788c-9.946-8.348-23.302-9.81-34.5-3  C349.409,467.788,360.909,468.788,372.409,469.788z"/>
<path fill="none" stroke="#000000" stroke-width="1.25" stroke-linecap="square" stroke-miterlimit="10" d="M372.409,469.788  c-9.946-8.348-23.302-9.81-34.5-3"/>
<path fill-rule="evenodd" clip-rule="evenodd" fill="#F2DCC4" d="M371.659,481.788c-9.373-7.466-20.571-10.395-28.5-1.5  C352.659,480.788,362.159,481.288,371.659,481.788z"/>
<path fill="none" stroke="#000000" stroke-width="1.25" stroke-linecap="square" stroke-miterlimit="10" d="M371.659,481.788  c-9.373-7.466-20.571-10.395-28.5-1.5"/>
<path fill-rule="evenodd" clip-rule="evenodd" fill="#FFE600" stroke="#000000" stroke-width="1.25" stroke-linecap="square" stroke-miterlimit="10" d="  M467.659,339.288c2.638,10.452,9.442,15.134,20.25,14.25c-9.803,5.444-12.357,13.178-7.5,23.25c-8.307-7.379-16.559-7.445-24.75,0  c4.075-9.863,1.567-17.61-7.5-23.25C458.652,354.217,465.166,349.485,467.659,339.288z"/>
<path fill-rule="evenodd" clip-rule="evenodd" fill="#FFE600" stroke="#000000" stroke-width="1.25" stroke-linecap="square" stroke-miterlimit="10" d="  M328.159,357.288c6.302,4.8,1.716,11.49,13.5,10.5c-1.256,4.367-3.705,12.201-5.25,16.5c-5.958-0.052-11.078-0.038-17.25,0  c-1.477-4.109-4.114-12.366-5.25-16.5C325.468,368.628,321.516,361.944,328.159,357.288z"/>
<path fill-rule="evenodd" clip-rule="evenodd" fill="#FFE600" stroke="#000000" stroke-width="1.25" stroke-linecap="square" stroke-miterlimit="10" d="  M472.909,409.038c2.451,10.322,8.961,14.809,19.5,13.5c-6.64,12.369-5.509,8.896-7.5,22.5c-13.574-2.38-10.426-2.38-24,0  c-1.63-13.106-1.083-10.556-6.75-22.5C468.432,424.083,465.417,416.867,472.909,409.038z"/>
<line fill="none" stroke="#FFE600" stroke-width="0.75" stroke-linecap="square" stroke-miterlimit="10" x1="490.159" y1="392.538" x2="514.159" y2="392.538"/>
<line fill="none" stroke="#FFE600" stroke-width="0.75" stroke-linecap="square" stroke-miterlimit="10" x1="502.159" y1="379.038" x2="502.159" y2="405.288"/>
<line fill="none" stroke="#FFE600" stroke-width="1.25" stroke-linecap="square" stroke-miterlimit="10" x1="506.659" y1="386.538" x2="506.659" y2="386.538"/>
<line fill="none" stroke="#FFE600" stroke-width="0.75" stroke-linecap="square" stroke-miterlimit="10" x1="490.909" y1="401.538" x2="513.409" y2="382.788"/>
<line fill="none" stroke="#FFE600" stroke-width="0.75" stroke-linecap="square" stroke-miterlimit="10" x1="493.159" y1="382.038" x2="512.659" y2="402.288"/>
<line fill="none" stroke="#FFE600" stroke-width="0.75" stroke-linecap="square" stroke-miterlimit="10" x1="467.659" y1="470.538" x2="492.409" y2="470.538"/>
<line fill="none" stroke="#FFE600" stroke-width="0.75" stroke-linecap="square" stroke-miterlimit="10" x1="480.409" y1="457.038" x2="480.409" y2="483.288"/>
<line fill="none" stroke="#FFE600" stroke-width="1.25" stroke-linecap="square" stroke-miterlimit="10" x1="484.909" y1="464.538" x2="484.909" y2="464.538"/>
<line fill="none" stroke="#FFE600" stroke-width="0.75" stroke-linecap="square" stroke-miterlimit="10" x1="469.159" y1="479.538" x2="490.909" y2="460.788"/>
<line fill="none" stroke="#FFE600" stroke-width="0.75" stroke-linecap="square" stroke-miterlimit="10" x1="470.659" y1="460.038" x2="490.159" y2="480.288"/>
<line fill="none" stroke="#FFE600" stroke-width="0.75" stroke-linecap="square" stroke-miterlimit="10" x1="309.409" y1="406.038" x2="334.159" y2="406.038"/>
<line fill="none" stroke="#FFE600" stroke-width="0.75" stroke-linecap="square" stroke-miterlimit="10" x1="321.409" y1="392.538" x2="321.409" y2="418.788"/>
<line fill="none" stroke="#FFE600" stroke-width="1.25" stroke-linecap="square" stroke-miterlimit="10" x1="325.909" y1="400.038" x2="325.909" y2="400.038"/>
<line fill="none" stroke="#FFE600" stroke-width="0.75" stroke-linecap="square" stroke-miterlimit="10" x1="310.909" y1="415.038" x2="332.659" y2="397.038"/>
<line fill="none" stroke="#FFE600" stroke-width="0.75" stroke-linecap="square" stroke-miterlimit="10" x1="312.409" y1="395.538" x2="331.909" y2="415.788"/>
</svg>