<svg xmlns="http://www.w3.org/2000/svg" xmlns:xlink="http://www.w3.org/1999/xlink" version="1.1" id="Layer_1" x="0px" y="0px" enable-background="new 0 0 822.05 841.89" xml:space="preserve" viewBox="303.5 344.14 212.88 156.51">
<path fill-rule="evenodd" clip-rule="evenodd" fill="#FFFFFF" stroke="#000000" stroke-width="2" stroke-linecap="square" stroke-miterlimit="10" d="  M320.625,373.148c1.958,36.21,57.403,36.834,57.75,0C378.731,335.401,322.626,336.204,320.625,373.148z"/>
<path fill-rule="evenodd" clip-rule="evenodd" fill="#FFFFFF" d="M349.875,393.398v6V393.398z"/>
<line fill="none" stroke="#000000" stroke-width="2" stroke-linecap="square" stroke-miterlimit="10" x1="349.875" y1="393.398" x2="349.875" y2="399.398"/>
<path fill-rule="evenodd" clip-rule="evenodd" fill="#FFFFFF" d="M349.875,346.898v5.25V346.898z"/>
<line fill="none" stroke="#000000" stroke-width="2" stroke-linecap="square" stroke-miterlimit="10" x1="349.875" y1="346.898" x2="349.875" y2="352.148"/>
<path fill-rule="evenodd" clip-rule="evenodd" fill="#FFFFFF" d="M328.875,373.148h-5.25H328.875z"/>
<line fill="none" stroke="#000000" stroke-width="2" stroke-linecap="square" stroke-miterlimit="10" x1="328.875" y1="373.148" x2="323.625" y2="373.148"/>
<path fill-rule="evenodd" clip-rule="evenodd" fill="#FFFFFF" d="M376.125,373.148h-6H376.125z"/>
<line fill="none" stroke="#000000" stroke-width="2" stroke-linecap="square" stroke-miterlimit="10" x1="376.125" y1="373.148" x2="370.125" y2="373.148"/>
<path fill-rule="evenodd" clip-rule="evenodd" fill="#FFFFFF" d="M334.875,387.398l-3.75,3.75L334.875,387.398z"/>
<line fill="none" stroke="#000000" stroke-width="2" stroke-linecap="square" stroke-miterlimit="10" x1="334.875" y1="387.398" x2="331.125" y2="391.148"/>
<path fill-rule="evenodd" clip-rule="evenodd" fill="#FFFFFF" d="M367.875,354.398l-3.75,3.75L367.875,354.398z"/>
<line fill="none" stroke="#000000" stroke-width="2" stroke-linecap="square" stroke-miterlimit="10" x1="367.875" y1="354.398" x2="364.125" y2="358.148"/>
<path fill-rule="evenodd" clip-rule="evenodd" fill="#FFFFFF" d="M334.875,358.148l-3.75-3.75L334.875,358.148z"/>
<line fill="none" stroke="#000000" stroke-width="2" stroke-linecap="square" stroke-miterlimit="10" x1="334.875" y1="358.148" x2="331.125" y2="354.398"/>
<path fill-rule="evenodd" clip-rule="evenodd" fill="#FFFFFF" d="M367.875,391.148l-3.75-3.75L367.875,391.148z"/>
<line fill="none" stroke="#000000" stroke-width="2" stroke-linecap="square" stroke-miterlimit="10" x1="367.875" y1="391.148" x2="364.125" y2="387.398"/>
<path fill-rule="evenodd" clip-rule="evenodd" d="M337.125,359.648c5.074,3.901,10.002,8.001,15,12c-1.5,1-3,2-4.5,3  C344.125,369.649,340.561,364.691,337.125,359.648z"/>
<path fill-rule="evenodd" clip-rule="evenodd" stroke="#000000" stroke-width="1.25" stroke-linecap="square" stroke-miterlimit="10" d="  M346.875,373.148c0.787-0.046,1.861,3.658,5.25,2.25C352.23,366.664,349.518,372.994,346.875,373.148z"/>
<path fill-rule="evenodd" clip-rule="evenodd" fill="#F7F619" stroke="#000000" stroke-width="1.25" stroke-linecap="square" stroke-miterlimit="10" d="  M489.375,434.648c-17.484-8.298-42.233-29.41-61.875-17.625C414.046,425.095,486.725,434.648,489.375,434.648z"/>
<path fill-rule="evenodd" clip-rule="evenodd" fill="#F7F619" stroke="#000000" stroke-width="1.25" stroke-linecap="square" stroke-miterlimit="10" d="  M485.625,439.148c-18.562,8.662-43.653,29.789-64.5,17.25C438.027,436.876,461.06,439.612,485.625,439.148z"/>
<path fill-rule="evenodd" clip-rule="evenodd" fill="#F7F619" stroke="#000000" stroke-width="1.25" stroke-linecap="square" stroke-miterlimit="10" d="  M469.125,427.148c-22.153-0.197-36.485,9.312-51.75-3C404.431,471.902,563.558,427.266,469.125,427.148z"/>
<path fill-rule="evenodd" clip-rule="evenodd" fill="#F7F619" stroke="#000000" stroke-width="1.25" stroke-linecap="square" stroke-miterlimit="10" d="  M418.125,438.398c2.917-0.722,10.063-2.119,12-3C426.881,435.263,418.985,438.185,418.125,438.398z"/>
<path fill-rule="evenodd" clip-rule="evenodd" fill="#F7F619" d="M430.125,436.148L430.125,436.148L430.125,436.148z"/>
<line fill="none" stroke="#000000" stroke-width="1.25" stroke-linecap="square" stroke-miterlimit="10" x1="430.125" y1="436.148" x2="430.125" y2="436.148"/>
<path fill-rule="evenodd" clip-rule="evenodd" fill="#F7F619" stroke="#000000" stroke-width="1.25" stroke-linecap="square" stroke-miterlimit="10" d="  M411.375,430.898c3.896,1.641,7.41-2.991,6.75,4.5C414.093,435.875,414.132,432.059,411.375,430.898z"/>
<path fill-rule="evenodd" clip-rule="evenodd" fill="#F7F619" stroke="#000000" stroke-width="1.25" stroke-linecap="square" stroke-miterlimit="10" d="  M430.125,436.898c-6.971,5.173-10.761,9.911-18.75,7.5C416.824,437.865,421.973,438.131,430.125,436.898z"/>
<path fill-rule="evenodd" clip-rule="evenodd" fill="#F7F619" d="M304.125,490.148h195H304.125z"/>
<line fill="none" stroke="#000000" stroke-width="1.25" stroke-linecap="square" stroke-miterlimit="10" x1="304.125" y1="490.148" x2="499.125" y2="490.148"/>
<path fill-rule="evenodd" clip-rule="evenodd" fill="#FB0F0C" stroke="#000000" stroke-width="1.5" stroke-linecap="square" stroke-miterlimit="10" d="  M488.625,481.148c-1.418,5.67,0,12.862,0,18.75c9-2.75,18-5.5,27-8.25C506.625,488.148,497.625,484.648,488.625,481.148z"/>
<path fill-rule="evenodd" clip-rule="evenodd" fill="#F7F619" d="M389.625,439.148h-75H389.625z"/>
<line fill="none" stroke="#000000" stroke-width="1.25" stroke-linecap="square" stroke-miterlimit="10" x1="389.625" y1="439.148" x2="314.625" y2="439.148"/>
<path fill-rule="evenodd" clip-rule="evenodd" fill="#F7F619" d="M405.375,454.898h-41.25H405.375z"/>
<line fill="none" stroke="#000000" stroke-width="1.25" stroke-linecap="square" stroke-miterlimit="10" x1="405.375" y1="454.898" x2="364.125" y2="454.898"/>
<path fill-rule="evenodd" clip-rule="evenodd" fill="#F7F619" d="M410.625,410.648h-31.5H410.625z"/>
<line fill="none" stroke="#000000" stroke-width="1.25" stroke-linecap="square" stroke-miterlimit="10" x1="410.625" y1="410.648" x2="379.125" y2="410.648"/>
</svg>