<svg xmlns="http://www.w3.org/2000/svg" xmlns:xlink="http://www.w3.org/1999/xlink" version="1.1" id="Layer_1" x="0px" y="0px" enable-background="new 0 0 822.05 841.89" xml:space="preserve" viewBox="248.41 259.66 324.59 320.21">
<path fill-rule="evenodd" clip-rule="evenodd" fill="#CCCCCE" stroke="#000000" stroke-width="2" stroke-linecap="square" stroke-miterlimit="10" d="  M250.25,263.501c-2.114,45.462-1.366,62.254,15.75,98.625c11.967,25.429,32.58,72.436,66,73.875  c-6.798,22.561,36.302,58.689,60.75,56.25c-8.719,31.111,48.276,15.935,51,42c33.535-0.404,61.959,13.194,62.736-24.078  c0.231-11.127-15.54-65.258-31.236-32.922c-14.103-20.236-3.636-36.519-23.117-56.965c-24.274-25.479-48.549-50.957-72.824-76.436  c-1.789-1.877-10.383-0.849-11.92-0.849c-10.789,0,1.536-8.096-3.889-12c-9.746-7.014-19.764-13.598-29.25-21  c-12.708-9.916-30.861-34.309-43.5-34.5c-0.285-15.587-24.953-21.299-27-5.25C260.768,261.211,256.926,266.833,250.25,263.501z"/>
<path fill-rule="evenodd" clip-rule="evenodd" fill="#6E745B" stroke="#000000" stroke-width="2" stroke-linecap="square" stroke-miterlimit="10" d="  M287.75,311.501c39.824,52.061,83.314,102.814,129.684,149.184C440.616,483.868,540.986,597.468,572,576.251  c-51.928-20.466-94.98-67.23-133.664-105.914C386.82,418.821,337.923,364.351,287.75,311.501z"/>
</svg>