<svg xmlns="http://www.w3.org/2000/svg" xmlns:xlink="http://www.w3.org/1999/xlink" version="1.1" id="Layer_1" x="0px" y="0px" enable-background="new 0 0 822.05 841.89" xml:space="preserve" viewBox="306.06 335.35 208.13 171.17">
<path fill-rule="evenodd" clip-rule="evenodd" fill="#279A30" stroke="#000000" stroke-width="1.5" stroke-linecap="square" stroke-miterlimit="10" d="  M353.812,466.269c-2.668,10.958,41.435,0.238,53.25-5.25C392.618,456.822,372.254,470.68,353.812,466.269z"/>
<path fill-rule="evenodd" clip-rule="evenodd" fill="#F8130D" stroke="#000000" stroke-width="1.25" stroke-linecap="square" stroke-miterlimit="10" d="  M396.562,363.521c-7.312-25.369-45.658-41.572-57.75-10.5c-11.782,30.275,39.734,72.815,54,92.998  c16.318-21.068,69.338-50.422,63.002-81.748C449.591,333.507,406.043,336.493,396.562,363.521z"/>
<path fill-rule="evenodd" clip-rule="evenodd" fill="#279A30" stroke="#000000" stroke-width="1.25" stroke-linecap="square" stroke-miterlimit="10" d="  M465.563,436.269c23.367-9.295,21.071-35.704,12-54.748C469.259,395.454,447.244,428.756,465.563,436.269z"/>
<path fill="none" stroke="#000000" stroke-width="1.25" stroke-linecap="square" stroke-miterlimit="10" d="M464.813,433.269  c7.319-10.134,11.679-22.23,9-34.498"/>
<path fill-rule="evenodd" clip-rule="evenodd" fill="#279A30" stroke="#000000" stroke-width="1.25" stroke-linecap="square" stroke-miterlimit="10" d="  M442.313,431.019c11.264-16.871-2.196-34.336-18-41.998C424.813,402.371,425.04,435.348,442.313,431.019z"/>
<path fill="none" stroke="#000000" stroke-width="1.25" stroke-linecap="square" stroke-miterlimit="10" d="M439.313,429.519  c1.143-10.294-1.801-20.392-9-27.748"/>
<path fill-rule="evenodd" clip-rule="evenodd" fill="#279A30" stroke="#000000" stroke-width="1.25" stroke-linecap="square" stroke-miterlimit="10" d="  M360.562,482.019c-11.574,12.685,21.073-3.724,27.75-7.5c19.459-11.006,37.918-25.804,54.002-41.25  C414.453,439.318,391.178,473.139,360.562,482.019z"/>
<path fill-rule="evenodd" clip-rule="evenodd" fill="#279A30" stroke="#000000" stroke-width="1.25" stroke-linecap="square" stroke-miterlimit="10" d="  M459.563,446.769c17.494-16.103,39.325-9.459,54,6.75C498.617,457.798,457.06,466.897,459.563,446.769z"/>
<path fill="none" stroke="#000000" stroke-width="1.25" stroke-linecap="square" stroke-miterlimit="10" d="M461.813,449.019  c11.904-3.186,24.459-4.029,35.25,2.25"/>
<path fill-rule="evenodd" clip-rule="evenodd" fill="#279A30" stroke="#000000" stroke-width="1.25" stroke-linecap="square" stroke-miterlimit="10" d="  M362.812,476.019c-14.589-4.991,18.25-9.22,27-10.5c21.919-3.207,44.77-2.916,66.752-0.75  C431.142,477.498,392.187,464.206,362.812,476.019z"/>
<path fill-rule="evenodd" clip-rule="evenodd" fill="#279A30" stroke="#000000" stroke-width="1.25" stroke-linecap="square" stroke-miterlimit="10" d="  M361.312,476.769c-11.039,11.387,19.682,1.325,28.5-1.5c21.235-6.805,42.097-17.919,60.752-30  C425.623,441.329,391.159,475.425,361.312,476.769z"/>
<path fill-rule="evenodd" clip-rule="evenodd" fill="#279A30" stroke="#000000" stroke-width="1.25" stroke-linecap="square" stroke-miterlimit="10" d="  M452.063,456.519c24.715-1.29,29.449,24.789,27.75,44.25C466.573,492.685,436.645,470.134,452.063,456.519z"/>
<path fill="none" stroke="#000000" stroke-width="1.25" stroke-linecap="square" stroke-miterlimit="10" d="M452.063,460.269  c10.143,5.962,17.347,15.409,19.5,27"/>
<path fill-rule="evenodd" clip-rule="evenodd" fill="#FFFFFF" stroke="#000000" stroke-width="1.25" stroke-linecap="square" stroke-miterlimit="10" d="  M446.063,465.519C474.53,440.51,456.484,497.145,446.063,465.519L446.063,465.519z"/>
<path fill-rule="evenodd" clip-rule="evenodd" fill="#FFFFFF" stroke="#000000" stroke-width="1.25" stroke-linecap="square" stroke-miterlimit="10" d="  M443.063,466.269C427.328,439.782,475.368,458.964,443.063,466.269L443.063,466.269z"/>
<path fill-rule="evenodd" clip-rule="evenodd" fill="#FFFFFF" stroke="#000000" stroke-width="1.25" stroke-linecap="square" stroke-miterlimit="10" d="  M443.063,470.019C405.088,483.199,448.525,434.705,443.063,470.019L443.063,470.019z"/>
<path fill-rule="evenodd" clip-rule="evenodd" fill="#FFFFFF" stroke="#000000" stroke-width="1.25" stroke-linecap="square" stroke-miterlimit="10" d="  M447.563,469.269C480.156,480.103,427.626,493.014,447.563,469.269L447.563,469.269z"/>
<path fill-rule="evenodd" clip-rule="evenodd" fill="#FFFFFF" stroke="#000000" stroke-width="1.25" stroke-linecap="square" stroke-miterlimit="10" d="  M446.063,470.769C448.007,508.102,412.021,457.076,446.063,470.769L446.063,470.769z"/>
<path fill-rule="evenodd" clip-rule="evenodd" fill="#F7F619" stroke="#000000" stroke-width="1.25" stroke-linecap="square" stroke-miterlimit="10" d="  M449.063,470.769C439.164,465.646,440.478,463.602,449.063,470.769L449.063,470.769z"/>
<path fill-rule="evenodd" clip-rule="evenodd" fill="#FB0F0C" stroke="#000000" stroke-width="1.25" stroke-linecap="square" stroke-miterlimit="10" d="  M465.563,424.269c8.188-8.89,34.095-10.233,24,6.75C482.217,443.379,464.944,430.658,465.563,424.269z"/>
<path fill-rule="evenodd" clip-rule="evenodd" fill="#FB0F0C" stroke="#000000" stroke-width="1.25" stroke-linecap="square" stroke-miterlimit="10" d="  M461.063,425.769c-7.763-11.114-2.799-31.508,12.75-19.498C486.164,415.811,466.306,427.201,461.063,425.769z"/>
<path fill-rule="evenodd" clip-rule="evenodd" fill="#FB0F0C" stroke="#000000" stroke-width="1.25" stroke-linecap="square" stroke-miterlimit="10" d="  M461.813,430.269c-12.751,4.763-30.709,2.184-20.625-14.623C450.626,399.917,464.09,425.207,461.813,430.269z"/>
<path fill-rule="evenodd" clip-rule="evenodd" fill="#FB0F0C" stroke="#000000" stroke-width="1.25" stroke-linecap="square" stroke-miterlimit="10" d="  M467.063,429.519c16.308,3.915,19.772,11.608,6.75,21.375C461.338,460.25,461.062,433.359,467.063,429.519z"/>
<path fill-rule="evenodd" clip-rule="evenodd" fill="#FB0F0C" stroke="#000000" stroke-width="1.25" stroke-linecap="square" stroke-miterlimit="10" d="  M465.563,431.019c1.611,19.888-24.409,26.134-24.75,10.5C440.546,429.25,462.266,427.56,465.563,431.019z"/>
<path fill-rule="evenodd" clip-rule="evenodd" fill="#F7F619" stroke="#000000" stroke-width="1.25" stroke-linecap="square" stroke-miterlimit="10" d="  M469.313,431.769C451.441,427.453,461.567,416.745,469.313,431.769L469.313,431.769z"/>
<path fill-rule="evenodd" clip-rule="evenodd" fill="#FFFFFF" stroke="#000000" stroke-width="1.25" stroke-linecap="square" stroke-miterlimit="10" d="  M434.813,428.019C465.599,397.218,444.672,463.591,434.813,428.019L434.813,428.019z"/>
<path fill-rule="evenodd" clip-rule="evenodd" fill="#FFFFFF" stroke="#000000" stroke-width="1.25" stroke-linecap="square" stroke-miterlimit="10" d="  M431.063,428.769C414.163,396.691,468.324,424.549,431.063,428.769L431.063,428.769z"/>
<path fill-rule="evenodd" clip-rule="evenodd" fill="#FFFFFF" stroke="#000000" stroke-width="1.25" stroke-linecap="square" stroke-miterlimit="10" d="  M431.813,432.519C390.533,446.503,439.293,395.575,431.813,432.519L431.813,432.519z"/>
<path fill-rule="evenodd" clip-rule="evenodd" fill="#FFFFFF" stroke="#000000" stroke-width="1.25" stroke-linecap="square" stroke-miterlimit="10" d="  M436.313,431.769C474.577,441.381,411.982,457.056,436.313,431.769L436.313,431.769z"/>
<path fill-rule="evenodd" clip-rule="evenodd" fill="#FFFFFF" stroke="#000000" stroke-width="1.25" stroke-linecap="square" stroke-miterlimit="10" d="  M435.563,433.269C435.406,476.219,400.189,414.524,435.563,433.269L435.563,433.269z"/>
<path fill-rule="evenodd" clip-rule="evenodd" fill="#F7F619" stroke="#000000" stroke-width="1.25" stroke-linecap="square" stroke-miterlimit="10" d="  M438.563,433.269C426.017,428.079,429.538,424.899,438.563,433.269L438.563,433.269z"/>
<path fill-rule="evenodd" clip-rule="evenodd" fill="#279A30" stroke="#000000" stroke-width="1.25" stroke-linecap="square" stroke-miterlimit="10" d="  M356.812,455.019c-0.951,1.213-4.048-3.551-3.75,2.25c17.743,8.107,37.272,7.494,56.25,4.5  C394.883,455.119,373.652,463.461,356.812,455.019z"/>
<path fill-rule="evenodd" clip-rule="evenodd" fill="#F8130D" stroke="#000000" stroke-width="1.25" stroke-linecap="square" stroke-miterlimit="10" d="  M402.562,455.769c2.598,4.526,4.514,9.53,6.75,14.25c2-0.75,4.001-1.5,6.002-2.25C413.147,455.592,410.169,453.887,402.562,455.769z  "/>
<path fill-rule="evenodd" clip-rule="evenodd" fill="#FFFFFF" stroke="#000000" stroke-linecap="square" stroke-miterlimit="10" d="  M392.812,502.269c-23.506,0-47.012,0-70.518,0c-10.36,0-13.146-49.858-6.732-57c6.503-7.24,59.741,0,70.518,0  C400.342,445.269,392.812,489.361,392.812,502.269z"/>
<path fill-rule="evenodd" clip-rule="evenodd" fill="#FFFFFF" stroke="#000000" stroke-linecap="square" stroke-miterlimit="10" d="  M383.812,506.019c-25.75,0-51.5,0-77.25,0c0.883-7.459,3.886-57,8.549-57c25.15,0,50.3,0,75.451,0  C388.312,468.019,386.062,487.019,383.812,506.019z"/>
<path fill-rule="evenodd" clip-rule="evenodd" d="M360.562,457.269C359.987,452.781,359.884,451.974,360.562,457.269  L360.562,457.269z"/>
<path fill-rule="evenodd" clip-rule="evenodd" d="M341.812,457.269C341.237,452.781,341.134,451.974,341.812,457.269  L341.812,457.269z"/>
<path fill-rule="evenodd" clip-rule="evenodd" d="M379.312,457.269C378.737,452.781,378.634,451.974,379.312,457.269  L379.312,457.269z"/>
<path fill-rule="evenodd" clip-rule="evenodd" d="M323.062,457.269C322.487,452.781,322.384,451.974,323.062,457.269  L323.062,457.269z"/>
<path fill-rule="evenodd" clip-rule="evenodd" d="M323.062,441.519c-0.176,4.92-5.846,8.505,0.75,14.25  C322.416,449.284,323.309,443.603,323.062,441.519z"/>
<path fill-rule="evenodd" clip-rule="evenodd" d="M341.062,440.769c-0.128,5.998-6.202,9.229,0.75,15  c-0.85-3.941,1.018-12.07,0.75-10.5C346.501,443.518,340.96,442.921,341.062,440.769z"/>
<path fill-rule="evenodd" clip-rule="evenodd" d="M360.562,440.769c-0.188,5.674-6.066,9.424,0.75,15  C359.605,448.751,360.633,444.066,360.562,440.769z"/>
<path fill-rule="evenodd" clip-rule="evenodd" d="M378.562,440.769c-0.066,6.313-5.343,10.26,1.5,15  C378.008,448.133,378.48,443.951,378.562,440.769z"/>
<path fill="none" stroke="#000000" stroke-width="0.5" stroke-linecap="square" stroke-miterlimit="10" d="M380.062,500.019  c1.25-9.5,2.5-19,3.75-28.5c-18.032,0-36.064,0-54.096,0c-21.126,0-15.93,7.796-18.654,28.5  C334.062,500.019,357.062,500.019,380.062,500.019z"/>
<path fill-rule="evenodd" clip-rule="evenodd" d="M374.062,471.519l-3.75,28.5L374.062,471.519z"/>
<line fill="none" stroke="#000000" stroke-width="0.5" stroke-linecap="square" stroke-miterlimit="10" x1="374.062" y1="471.519" x2="370.312" y2="500.019"/>
<path fill-rule="evenodd" clip-rule="evenodd" d="M364.312,471.519l-3.75,28.5L364.312,471.519z"/>
<line fill="none" stroke="#000000" stroke-width="0.5" stroke-linecap="square" stroke-miterlimit="10" x1="364.312" y1="471.519" x2="360.562" y2="500.019"/>
<path fill-rule="evenodd" clip-rule="evenodd" d="M354.562,471.519l-3.75,28.5L354.562,471.519z"/>
<line fill="none" stroke="#000000" stroke-width="0.5" stroke-linecap="square" stroke-miterlimit="10" x1="354.562" y1="471.519" x2="350.812" y2="500.019"/>
<path fill-rule="evenodd" clip-rule="evenodd" d="M344.812,471.519l-4.5,28.5L344.812,471.519z"/>
<line fill="none" stroke="#000000" stroke-width="0.5" stroke-linecap="square" stroke-miterlimit="10" x1="344.812" y1="471.519" x2="340.312" y2="500.019"/>
<path fill-rule="evenodd" clip-rule="evenodd" d="M335.062,471.519l-4.5,28.5L335.062,471.519z"/>
<line fill="none" stroke="#000000" stroke-width="0.5" stroke-linecap="square" stroke-miterlimit="10" x1="335.062" y1="471.519" x2="330.562" y2="500.019"/>
<path fill-rule="evenodd" clip-rule="evenodd" d="M325.312,471.519l-4.5,28.5L325.312,471.519z"/>
<line fill="none" stroke="#000000" stroke-width="0.5" stroke-linecap="square" stroke-miterlimit="10" x1="325.312" y1="471.519" x2="320.812" y2="500.019"/>
<line fill="none" stroke="#000000" stroke-width="0.5" stroke-linecap="square" stroke-miterlimit="10" x1="314.062" y1="479.019" x2="383.062" y2="479.019"/>
<line fill="none" stroke="#000000" stroke-width="0.5" stroke-linecap="square" stroke-miterlimit="10" x1="313.312" y1="485.769" x2="382.312" y2="485.769"/>
<line fill="none" stroke="#000000" stroke-width="0.5" stroke-linecap="square" stroke-miterlimit="10" x1="312.562" y1="492.519" x2="381.562" y2="492.519"/>
<text transform="matrix(1 0 0 1 314.0566 470.0181)" font-family="'MyriadPro-Regular'" font-size="9">S  M  T  W  Th  F  S</text>
</svg>