<svg xmlns="http://www.w3.org/2000/svg" xmlns:xlink="http://www.w3.org/1999/xlink" version="1.1" id="Layer_1" x="0px" y="0px" enable-background="new 0 0 822.05 841.89" xml:space="preserve" viewBox="307.14 334.4 204.58 174.69">
<path fill-rule="evenodd" clip-rule="evenodd" fill="#ECD5B7" stroke="#000000" stroke-width="1.25" stroke-linecap="square" stroke-miterlimit="10" d="  M442.88,414.765c-27.567-19.731-33.281-5.194-61.127,0.375c-19.411,3.882-8.042,25.125,9.375,25.125  C421.713,440.265,438.24,449.329,442.88,414.765z"/>
<path fill-rule="evenodd" clip-rule="evenodd" fill="#137827" stroke="#000000" stroke-width="1.25" stroke-linecap="square" stroke-miterlimit="10" d="  M501.38,451.515c-11.59-13.045-25.44-28.471-41.25-36.375c-17.206-8.603-16.229-1.328-27,6.75  c-21.04,15.78-25.999-3.69-42.002-7.875c-25.462-6.658-62.425,27.526-72,56.25c-11.049,33.146,34.122,8.35,42-9.75  c0.47,15.752,1.916,31.536,0.75,47.25c29.728,0.234,59.455,0.468,89.183,0.702c12.174,0.096,6.819-41.929,6.819-53.952  c6.039,5.032,34.019,36.556,45.75,30.75C517.101,478.599,509.853,461.039,501.38,451.515z"/>
<path fill-rule="evenodd" clip-rule="evenodd" fill="#ECD5B7" stroke="#000000" stroke-width="1.25" stroke-linecap="square" stroke-miterlimit="10" d="  M386.628,390.765C389.539,415.254,362.669,382.587,386.628,390.765L386.628,390.765z"/>
<path fill-rule="evenodd" clip-rule="evenodd" fill="#ECD5B7" stroke="#000000" stroke-width="1.25" stroke-linecap="square" stroke-miterlimit="10" d="  M443.63,375.765C431.212,396.893,431.212,354.637,443.63,375.765L443.63,375.765z"/>
<path fill-rule="evenodd" clip-rule="evenodd" fill="#ECD5B7" stroke="#000000" stroke-width="1.25" stroke-linecap="square" stroke-miterlimit="10" d="  M373.878,371.265c6.354,43.592,65.459,57.83,65.252,6C438.917,323.846,368.677,320.275,373.878,371.265z"/>
<path fill-rule="evenodd" clip-rule="evenodd" fill="#EED5B6" stroke="#000000" stroke-width="1.25" stroke-linecap="square" stroke-miterlimit="10" d="  M471.38,442.515c-10.98-1.335-17.068-9.638-17.25-21c-1.188,6.56-5.401,6.939-3.75,17.25c-8.591-2.958-18.59-4.149-27-3  c5.362,3.432,13.281,8.123,21.75,9c-7.688-0.884-17.653,1.393-24.75,1.5c6.375,4.453,16.257,6.176,25.5,5.25  c-29.922,2.841-27.791,14.118,1.5,8.25c-6.705,2.459-11.465,7.11-17.25,10.5C446.165,468.062,479.724,463.589,471.38,442.515z"/>
<path fill-rule="evenodd" clip-rule="evenodd" fill="#EED5B6" d="M454.13,444.015c0.663,4.391,1.646,8.245,1.5,12.75  C455.13,452.515,454.63,448.265,454.13,444.015z"/>
<path fill="none" stroke="#000000" stroke-width="1.25" stroke-linecap="square" stroke-miterlimit="10" d="M454.13,444.015  c1.137,4.179,1.639,8.434,1.5,12.75"/>
<path fill-rule="evenodd" clip-rule="evenodd" fill="#137827" d="M487.13,449.265c-6.641-4.016-15.277-6.111-22.5-9  c0.397,25.543-0.768,24.602,25.5,40.5C489.13,470.265,488.13,459.765,487.13,449.265z"/>
<path fill="none" stroke="#000000" stroke-width="1.25" stroke-linecap="square" stroke-miterlimit="10" d="M487.13,449.265  c-6.641-4.016-15.277-6.111-22.5-9c0.397,25.543-0.768,24.602,25.5,40.5"/>
<path fill-rule="evenodd" clip-rule="evenodd" fill="#EED5B6" stroke="#000000" stroke-width="1.25" stroke-linecap="square" stroke-miterlimit="10" d="  M352.128,447.765c10.912-0.462,17.523-8.346,18.75-19.5c0.367,6.427,4.85,7.528,2.25,17.25c30.189-8.114,32.056,5.615,5.25,6  c7.328-0.318,17.625,2.914,24,3.75c-5.962,3.632-16.737,4.597-25.5,3c8.591,1.909,17.84,5.518,24.75,9.75  c-7.721,1.844-17.708,1.186-26.25-1.5c5.555,2.755,10.863,8.612,15.75,12C375.366,475.098,342.041,468.648,352.128,447.765z"/>
<path fill-rule="evenodd" clip-rule="evenodd" fill="#EED5B6" d="M369.378,450.765c-1.056,4.653-2.508,7.812-2.25,12.75  C367.878,459.265,368.628,455.015,369.378,450.765z"/>
<path fill="none" stroke="#000000" stroke-width="1.25" stroke-linecap="square" stroke-miterlimit="10" d="M369.378,450.765  c-1.739,4.125-2.483,8.29-2.25,12.75"/>
<path fill-rule="evenodd" clip-rule="evenodd" fill="#137827" d="M335.628,454.515c6.885-5.175,14.543-9.528,21.75-14.25  c-5.981,12.026-1.636,24.34,10.5,30c-8.5,5.5-17,11-25.5,16.5C340.128,476.015,337.878,465.265,335.628,454.515z"/>
<path fill="none" stroke="#000000" stroke-width="1.25" stroke-linecap="square" stroke-miterlimit="10" d="M335.628,454.515  c6.885-5.175,14.543-9.528,21.75-14.25c-5.981,12.026-1.636,24.34,10.5,30c-8.5,5.5-17,11-25.5,16.5"/>
<path fill="none" stroke="#000000" stroke-width="1.25" stroke-linecap="square" stroke-miterlimit="10" d="M415.88,502.515  c-0.277-8.809,2.877-17.013,9-23.25"/>
<path fill-rule="evenodd" clip-rule="evenodd" d="M418.13,477.765c3.5-1.25,7-2.5,10.5-3.75c-1,3.75-2,7.5-3,11.25  C423.13,482.765,420.63,480.265,418.13,477.765z"/>
<path fill="none" stroke="#000000" stroke-width="1.25" stroke-linecap="square" stroke-miterlimit="10" d="M406.878,503.265  c0.276-8.9-2.822-17.079-9-23.25"/>
<path fill-rule="evenodd" clip-rule="evenodd" d="M403.878,478.515c-3.5-1.5-7-3-10.5-4.5c1,4,2,8,3,12  C398.878,483.515,401.378,481.015,403.878,478.515z"/>
<path fill-rule="evenodd" clip-rule="evenodd" fill="#FFFFFF" stroke="#000000" stroke-width="1.25" stroke-linecap="square" stroke-miterlimit="10" d="  M327.378,337.515c16.753-1.733,16.468,15.411,11.25,30.75c2.896-4.126,6.003-5.938,9-9c1.268,15.59-14.125,46.991-32.25,30.75  C301.624,377.691,307.024,333.117,327.378,337.515z"/>
<path fill-rule="evenodd" clip-rule="evenodd" fill="#FFFFFF" d="M334.878,339.015l-0.75,21.75L334.878,339.015z"/>
<line fill="none" stroke="#000000" stroke-width="1.25" stroke-linecap="square" stroke-miterlimit="10" x1="334.878" y1="339.015" x2="334.128" y2="360.765"/>
<path fill-rule="evenodd" clip-rule="evenodd" fill="#FFFFFF" d="M327.378,336.015v23.25V336.015z"/>
<line fill="none" stroke="#000000" stroke-width="1.25" stroke-linecap="square" stroke-miterlimit="10" x1="327.378" y1="336.015" x2="327.378" y2="359.265"/>
<path fill-rule="evenodd" clip-rule="evenodd" fill="#FFFFFF" d="M319.128,338.265v19.5V338.265z"/>
<line fill="none" stroke="#000000" stroke-width="1.25" stroke-linecap="square" stroke-miterlimit="10" x1="319.128" y1="338.265" x2="319.128" y2="357.765"/>
<path fill-rule="evenodd" clip-rule="evenodd" d="M405.378,381.015C401.093,381.882,400.279,382.047,405.378,381.015  L405.378,381.015z"/>
<path fill-rule="evenodd" clip-rule="evenodd" d="M420.38,377.265C416.267,378.826,415.923,378.956,420.38,377.265L420.38,377.265z"/>
<path fill="none" stroke="#000000" stroke-width="0.75" stroke-linecap="square" stroke-miterlimit="10" d="M409.878,387.765  c2.092,1.983,3.991,1.574,5.25-0.75"/>
<path fill="none" stroke="#000000" stroke-width="0.75" stroke-linecap="square" stroke-miterlimit="10" d="M397.128,382.515  c3.188-3.471,7.089-4.301,11.25-2.25"/>
<path fill="none" stroke="#000000" stroke-width="0.75" stroke-linecap="square" stroke-miterlimit="10" d="M424.88,376.515  c-3.972-1.715-7.748-0.609-10.502,3"/>
<path fill="none" stroke="#000000" stroke-linecap="square" stroke-miterlimit="10" d="M409.128,398.265  c4.412-0.613,8.699-1.875,12.752-3.75"/>
</svg>