<svg xmlns="http://www.w3.org/2000/svg" xmlns:xlink="http://www.w3.org/1999/xlink" version="1.1" id="Layer_1" x="0px" y="0px" enable-background="new 0 0 822.05 841.89" xml:space="preserve" viewBox="320.49 337.82 180.4 169.89">
<path fill-rule="evenodd" clip-rule="evenodd" fill="#FB0F0C" stroke="#000000" stroke-width="1.5" stroke-linecap="square" stroke-miterlimit="10" d="  M441.045,505.105c7.658,2.299,16.707,2.354,24,0.75c-6.404-6.067-32.542-25.94-41.25-20.25  C407.109,496.509,432.062,506.195,441.045,505.105z"/>
<path fill-rule="evenodd" clip-rule="evenodd" fill="#FB0F0C" stroke="#000000" stroke-width="1.5" stroke-linecap="square" stroke-miterlimit="10" d="  M483.045,464.605c28.382-29.328,18.856-37.606-9.75-9c-2.25-2.5-4.5-5-6.75-7.5c-4.25,12.75-8.5,25.5-12.75,38.25c12-5,24-10,36-15  C487.545,469.105,485.295,466.855,483.045,464.605z"/>
<path fill-rule="evenodd" clip-rule="evenodd" fill="#FB0F0C" stroke="#000000" stroke-width="1.5" stroke-linecap="square" stroke-miterlimit="10" d="  M345.791,454.105c-24.889-32.264-34.984-25.459-10.5,7.5c-2.75,2-5.5,4-8.25,6c12,6.25,24,12.5,36,18.75  c-3.25-12.75-6.5-25.5-9.75-38.25C350.791,450.105,348.291,452.105,345.791,454.105z"/>
<path fill-rule="evenodd" clip-rule="evenodd" fill="#FB0F0C" stroke="#000000" stroke-width="1.5" stroke-linecap="square" stroke-miterlimit="10" d="  M379.541,486.355c-8.932,6.904-20.049,11.688-28.5,19.5c7.246,1.263,33.383,2.208,39.75-3.75  C400.592,492.933,390.489,478.648,379.541,486.355z"/>
<path fill-rule="evenodd" clip-rule="evenodd" fill="#D2D1D2" stroke="#000000" stroke-width="1.25" stroke-linecap="square" stroke-miterlimit="10" d="  M438.045,408.355c-1.432-17.577,11.152-39.797,6-56.25c-5.164-16.492-3.438-12-25.346-12c-11.062,0-46.658-6.564-46.658,6.375  c0,23.67,6,46.662,6,69.986c0,18.406-8.916,70.051,14.25,67.639c-3.314-45.745,9.676-97.025,15.75-142.5  c3.205,37.236,10.569,71.08,13.143,108.389c1.09,15.793,1.727,54.279,16.111,25.861  C445.199,460.241,438.828,425.426,438.045,408.355z"/>
</svg>