<svg xmlns="http://www.w3.org/2000/svg" xmlns:xlink="http://www.w3.org/1999/xlink" version="1.1" id="Layer_1" x="0px" y="0px" enable-background="new 0 0 822.05 841.89" xml:space="preserve" viewBox="309.25 337.98 202.25 166.04">
<path fill-rule="evenodd" clip-rule="evenodd" d="M330.123,465.14c-2.707-36.404-3.84-92.928,28.125-118.5  c19.757-15.806,52.438-8.909,66.377,12c15.021,22.531,30.542,89.187,8.25,112.5C418.089,486.604,339.15,487.259,330.123,465.14z"/>
<path fill-rule="evenodd" clip-rule="evenodd" fill="#EBCBA7" stroke="#000000" stroke-width="1.25" stroke-linecap="square" stroke-miterlimit="10" d="  M351.873,405.14C347.926,440.974,334.44,373.939,351.873,405.14L351.873,405.14z"/>
<path fill-rule="evenodd" clip-rule="evenodd" fill="#EBCBA7" stroke="#000000" stroke-width="1.25" stroke-linecap="square" stroke-miterlimit="10" d="  M428.375,397.64C416.53,430.593,416.53,364.687,428.375,397.64L428.375,397.64z"/>
<path fill-rule="evenodd" clip-rule="evenodd" fill="#EBCBA7" stroke="#000000" stroke-width="1.25" stroke-linecap="square" stroke-miterlimit="10" d="  M423.125,454.64c-8.443-3.608-17.323-17.355-25.104-17.133c-22.29,0.637-23.278,8.51-42.398,14.883  c-20.297,6.766-24.782,32.25,1.626,32.25C399.131,484.64,411.903,495.438,423.125,454.64z"/>
<path fill-rule="evenodd" clip-rule="evenodd" fill="#EBCBA7" stroke="#000000" stroke-width="1.25" stroke-linecap="square" stroke-miterlimit="10" d="  M419.375,384.89c-12.671-7.162-70.958-4.605-72.377,6.75c-2.673,21.386,11.975,52.754,34.875,57.75  C419.516,457.603,423.503,409.368,419.375,384.89z"/>
<path fill-rule="evenodd" clip-rule="evenodd" fill="#F7F619" stroke="#000000" stroke-width="1.25" stroke-linecap="square" stroke-miterlimit="10" d="  M445.625,451.64c-24.542-10.42-41.963,19.513-71.252,9.75c-17.189-5.729-16.012-18.163-37.875-10.875  c-17.576,5.858-21.299,37.307-26.625,52.875c51.75,0,103.501,0,155.252,0C460.617,485.73,456.598,466.361,445.625,451.64z"/>
<path fill-rule="evenodd" clip-rule="evenodd" d="M348.123,387.89c2.848,5.442,2.303,7.584,6-0.75c0.25,1.75,0.5,3.5,0.75,5.25  c9.418-5.576,12.774-2.966,24-9c4.87,5.904,11.531,5.526,20.25,0c-0.75,2-1.5,4-2.25,6c3.25-1.75,6.5-3.5,9.75-5.25  c5.722,6.548-0.268,5.22,6,0.75c0.5,2.25,1,4.5,1.5,6.75c1.001-2.25,2.001-4.5,3.002-6.75c0.5,2,1,4,1.5,6  c0.095-0.184,3.873-3.972,4.5-4.5C391.443,370.979,382.19,377.075,348.123,387.89z"/>
<path fill="none" stroke="#000000" stroke-linecap="square" stroke-miterlimit="10" d="M387.123,414.89  c2.735,2.766,5.644,2.892,8.25,0"/>
<path fill="none" stroke="#000000" stroke-linecap="square" stroke-miterlimit="10" d="M374.373,426.14  c10.371,7.719,23.435,7.169,33.75-0.75"/>
<path fill-rule="evenodd" clip-rule="evenodd" d="M381.123,406.64c-1.41,0.222-1.075,5.468-4.5,0.75  C377.82,401.837,379.444,406.904,381.123,406.64z"/>
<path fill-rule="evenodd" clip-rule="evenodd" d="M402.123,403.64c-2.168,0.333-1.857,5.526-4.5,0.75  C398.819,398.84,400.437,403.899,402.123,403.64z"/>
<path fill="none" stroke="#000000" stroke-width="0.75" stroke-linecap="square" stroke-miterlimit="10" d="M372.873,408.14  c3.265-4.135,7.486-4.931,12-2.25"/>
<path fill="none" stroke="#000000" stroke-width="0.75" stroke-linecap="square" stroke-miterlimit="10" d="M405.873,402.89  c-4.372-2.509-8.687-1.677-12,2.25"/>
<path fill-rule="evenodd" clip-rule="evenodd" fill="#F8130D" stroke="#000000" stroke-width="1.25" stroke-linecap="square" stroke-miterlimit="10" d="  M510.875,373.64c-0.293-24.997-28.73-41.492-50.25-27c-26.992,18.177-7.263,36.406,1.5,54c4.062,8.157,9.75-2.492,9.75,11.25  c0,3.372-23.95,16.5-6,16.5c14.642,0-2.201,16.5,10.875,16.5c-3.077,0,16.875-24.867,16.875-16.5c0-17.59-23.871-13.038,1.875-27.75  C505.401,394.982,510.716,385.074,510.875,373.64z M456.875,373.64c1.429-28.032,43.723-28.551,43.5,0  C500.154,401.886,459.128,401.138,456.875,373.64z"/>
</svg>