<svg xmlns="http://www.w3.org/2000/svg" xmlns:xlink="http://www.w3.org/1999/xlink" version="1.1" id="Layer_1" x="0px" y="0px" enable-background="new 0 0 822.05 841.89" xml:space="preserve" viewBox="311.77 341.44 195.52 160.25">
<path fill-rule="evenodd" clip-rule="evenodd" fill="#D2D1D2" stroke="#000000" stroke-width="1.25" stroke-linecap="square" stroke-miterlimit="10" d="  M430.875,448.532c-11.114,0.191-86.905,4.574-87.083-1.2c-1.465-47.608,5.395-53.931,36.833-90.3  c15.008,16.128,30.016,32.256,45.024,48.384c10.83,11.639,36.121,1.564,50.976-0.384C479.495,446.167,470.31,439.29,430.875,448.532  z"/>
<path fill-rule="evenodd" clip-rule="evenodd" fill="#D2D1D2" d="M430.875,448.532v-37.5V448.532z"/>
<line fill="none" stroke="#000000" stroke-width="1.25" stroke-linecap="square" stroke-miterlimit="10" x1="430.875" y1="448.532" x2="430.875" y2="411.032"/>
<path fill-rule="evenodd" clip-rule="evenodd" fill="#D2D1D2" stroke="#000000" stroke-width="1.25" stroke-linecap="square" stroke-miterlimit="10" d="  M448.125,433.532c-4,0.75-8,1.5-12,2.25c-3.434-11.935-0.199-18.825,12-18.75C448.125,422.191,449.411,428.579,448.125,433.532z"/>
<path fill-rule="evenodd" clip-rule="evenodd" fill="#D2D1D2" stroke="#000000" stroke-width="1.25" stroke-linecap="square" stroke-miterlimit="10" d="  M470.625,429.032c-4,0.75-8,1.5-12,2.25c-3.309-11.666,0.048-18.197,12-18C470.625,418.214,471.84,424.292,470.625,429.032z"/>
<path fill-rule="evenodd" clip-rule="evenodd" fill="#D2D1D2" stroke="#000000" stroke-width="1.25" stroke-linecap="square" stroke-miterlimit="10" d="  M402.375,427.532c-10.545,3.035-35.514-4.342-21-19.5C395.289,393.5,405.542,416.066,402.375,427.532z"/>
<path fill-rule="evenodd" clip-rule="evenodd" fill="#D2D1D2" d="M392.625,407.282v19.5V407.282z"/>
<line fill="none" stroke="#000000" stroke-width="1.25" stroke-linecap="square" stroke-miterlimit="10" x1="392.625" y1="407.282" x2="392.625" y2="426.782"/>
<path fill-rule="evenodd" clip-rule="evenodd" fill="#D2D1D2" d="M380.625,417.782h21.75H380.625z"/>
<line fill="none" stroke="#000000" stroke-width="1.25" stroke-linecap="square" stroke-miterlimit="10" x1="380.625" y1="417.782" x2="402.375" y2="417.782"/>
<path fill-rule="evenodd" clip-rule="evenodd" fill="#D2D1D2" stroke="#000000" stroke-width="1.25" stroke-linecap="square" stroke-miterlimit="10" d="  M371.625,422.282c-3.852-10.57-12.017-13.979-20.25-4.5C335.412,436.159,371.625,476.522,371.625,422.282z"/>
<path fill-rule="evenodd" clip-rule="evenodd" fill="#D2D1D2" stroke="#000000" stroke-width="1.25" stroke-linecap="square" stroke-miterlimit="10" d="  M388.125,392.282C358.735,390.536,385.657,367.381,388.125,392.282L388.125,392.282z"/>
<path fill-rule="evenodd" clip-rule="evenodd" fill="#D2D1D2" stroke="#000000" stroke-width="1.25" stroke-linecap="square" stroke-miterlimit="10" d="  M336.375,405.032c34.632-37.424,43.785-51.198,95.806-53.056c30.654-1.095,44.88,35.754,59.444,59.056  c-57.914,26.27-72.754-2.148-105.75-45.75C379.104,372.834,333.267,430.542,336.375,405.032z"/>
<path fill-rule="evenodd" clip-rule="evenodd" fill="#D2D1D2" stroke="#000000" stroke-width="1.25" stroke-linecap="square" stroke-miterlimit="10" d="  M433.125,357.032c-12.757,9.883-14.52,2.986-16.5-11.25C416.083,341.883,436.61,336.358,433.125,357.032z"/>
<path fill-rule="evenodd" clip-rule="evenodd" fill="#724211" stroke="#000000" stroke-width="1.25" stroke-linecap="square" stroke-miterlimit="10" d="  M506.625,450.032c-35.685,0-71.37,0-107.055,0c-9.053,0-94.712,5.368-84.945-9.75c5.789-8.959,95.458,0,107.055,0  C437.485,440.282,508.562,430.214,506.625,450.032z"/>
<path fill-rule="evenodd" clip-rule="evenodd" fill="#724211" stroke="#000000" stroke-width="1.25" stroke-linecap="square" stroke-miterlimit="10" d="  M506.625,485.282c-35.685,0-71.37,0-107.055,0c-9.053,0-94.712,5.368-84.945-9.75c5.789-8.959,95.458,0,107.055,0  C437.485,475.532,508.562,465.464,506.625,485.282z"/>
<path fill-rule="evenodd" clip-rule="evenodd" fill="#724211" stroke="#000000" stroke-width="1.25" stroke-linecap="square" stroke-miterlimit="10" d="  M329.625,501.032c-17.635,1.71-21.91-65.584-12-76.5C331.651,409.082,329.625,492.245,329.625,501.032z"/>
<path fill-rule="evenodd" clip-rule="evenodd" fill="#724211" stroke="#000000" stroke-width="1.25" stroke-linecap="square" stroke-miterlimit="10" d="  M358.125,501.032c-17.635,1.71-21.91-65.584-12-76.5C360.151,409.082,358.125,492.245,358.125,501.032z"/>
<path fill-rule="evenodd" clip-rule="evenodd" fill="#724211" stroke="#000000" stroke-width="1.25" stroke-linecap="square" stroke-miterlimit="10" d="  M386.625,501.032c-17.635,1.71-21.91-65.584-12-76.5C388.651,409.082,386.625,492.245,386.625,501.032z"/>
<path fill-rule="evenodd" clip-rule="evenodd" fill="#724211" stroke="#000000" stroke-width="1.25" stroke-linecap="square" stroke-miterlimit="10" d="  M415.125,501.032c-17.635,1.71-21.91-65.584-12-76.5C417.151,409.082,415.125,492.245,415.125,501.032z"/>
<path fill-rule="evenodd" clip-rule="evenodd" fill="#724211" stroke="#000000" stroke-width="1.25" stroke-linecap="square" stroke-miterlimit="10" d="  M443.625,501.032c-17.635,1.71-21.91-65.584-12-76.5C445.651,409.082,443.625,492.245,443.625,501.032z"/>
<path fill-rule="evenodd" clip-rule="evenodd" fill="#724211" stroke="#000000" stroke-width="1.25" stroke-linecap="square" stroke-miterlimit="10" d="  M472.125,501.032c-17.635,1.71-21.91-65.584-12-76.5C474.151,409.082,472.125,492.245,472.125,501.032z"/>
<path fill-rule="evenodd" clip-rule="evenodd" fill="#724211" stroke="#000000" stroke-width="1.25" stroke-linecap="square" stroke-miterlimit="10" d="  M500.625,501.032c-17.635,1.71-21.91-65.584-12-76.5C502.651,409.082,500.625,492.245,500.625,501.032z"/>
</svg>