<svg xmlns="http://www.w3.org/2000/svg" xmlns:xlink="http://www.w3.org/1999/xlink" version="1.1" id="Layer_1" x="0px" y="0px" enable-background="new 0 0 822.05 841.89" xml:space="preserve" viewBox="288.12 256.01 251 333.97">
<path fill-rule="evenodd" clip-rule="evenodd" fill="#FABAA2" stroke="#000000" stroke-width="2" stroke-linecap="square" stroke-miterlimit="10" d="  M538.123,368.392c-2.523,147.648-229.229,147.92-229.5,0C308.351,219.779,536.092,219.992,538.123,368.392z"/>
<path fill-rule="evenodd" clip-rule="evenodd" fill="#FFDB78" stroke="#000000" stroke-width="2" stroke-linecap="square" stroke-miterlimit="10" d="  M340.873,494.392c-7.584-16.238,10.247-50.172,22.125-30.375c9.477,15.795-6.547,42.483-9.75,58.5  c-4.476,22.379-30.799,15.417-37.875,31.875c-3.539,8.231,10.356,15.409,4.5,25.5c-4.822,8.309-22.807,9.471-30.75,9  c29.424-9.484,10.123-32.886,24.75-51C325.423,523.588,356.74,522.96,340.873,494.392z"/>
</svg>