<svg xmlns="http://www.w3.org/2000/svg" xmlns:xlink="http://www.w3.org/1999/xlink" version="1.1" id="Layer_1" x="0px" y="0px" enable-background="new 0 0 822.05 841.89" xml:space="preserve" viewBox="204.53 311.49 411.18 222.46">
<path fill-rule="evenodd" clip-rule="evenodd" fill="#F1CBA6" stroke="#010101" stroke-width="2" stroke-linecap="square" stroke-miterlimit="10" d="  M289,353.16c-3.5-0.5-7-1-10.5-1.5c-3.929,25.748,20.551,24.713,36.75,14.25C310.532,354.152,300.912,348.75,289,353.16z"/>
<path fill-rule="evenodd" clip-rule="evenodd" fill="#F1CBA6" stroke="#010101" stroke-width="2" stroke-linecap="square" stroke-miterlimit="10" d="  M382.75,417.66c-20.78-4.733-53.938-52.232-69-39.75C332.872,383.835,365.116,427.027,382.75,417.66z"/>
<path fill-rule="evenodd" clip-rule="evenodd" fill="#2A286F" stroke="#010101" stroke-width="2" stroke-linecap="square" stroke-miterlimit="10" d="  M253,511.408c-5.896,1.199-37.103,15.012-22.5,21C238.831,535.824,268.012,522.242,253,511.408z"/>
<path fill-rule="evenodd" clip-rule="evenodd" fill="#F1CBA6" stroke="#010101" stroke-width="2" stroke-linecap="square" stroke-miterlimit="10" d="  M236.5,458.158c13.737-8.035,47.831-16.909,33.75-34.5c-6.509,6.35-35.93,25.509-38.25,32.25  c-3.825,11.113,12.631,50.135,15.75,61.5C254.669,503.349,241.095,475.16,236.5,458.158z"/>
<path fill-rule="evenodd" clip-rule="evenodd" fill="#2A286F" stroke="#010101" stroke-width="2" stroke-linecap="square" stroke-miterlimit="10" d="  M374.5,507.658C438.95,498.954,360.17,540.989,374.5,507.658L374.5,507.658z"/>
<path fill-rule="evenodd" clip-rule="evenodd" fill="#F1CBA6" stroke="#010101" stroke-width="2" stroke-linecap="square" stroke-miterlimit="10" d="  M322,332.16c7.358,31.725-43.552,39.553-42-1.5C294.034,334.243,307.932,335.865,322,332.16z"/>
<path fill-rule="evenodd" clip-rule="evenodd" fill="#2A286F" stroke="#010101" stroke-width="2" stroke-linecap="square" stroke-miterlimit="10" d="  M280,328.41c17.631,3.977,47.022,5.761,61.5-3.75C321.835,328.278,293.962,292.973,280,328.41z"/>
<path fill-rule="evenodd" clip-rule="evenodd" fill="#F1CBA6" stroke="#010101" stroke-width="2" stroke-linecap="square" stroke-miterlimit="10" d="  M285.25,361.41c-19.074-17.888-47.858-16.99-67.5-35.25c-1.25,1.25-2.5,2.5-3.75,3.75  C227.183,340.748,281.337,367.683,285.25,361.41z"/>
<path fill-rule="evenodd" clip-rule="evenodd" fill="#ED2224" stroke="#010101" stroke-width="2" stroke-linecap="square" stroke-miterlimit="10" d="  M265.75,344.91c-4.239,4.765-5.969,12.016-9.75,17.25c25.937,5.395,19.074,28.151,12,47.25c16.692,3.072,33.384,4.927,50.25,6.75  c-0.25-10.5-0.5-21-0.75-31.5c3.75,2.75,7.5,5.5,11.25,8.25c2.282-1.911,10.819-11.394,12.75-14.25  c-23.231-15.267-22-11.25-43.5-11.25C284.301,367.41,279.137,348.781,265.75,344.91z"/>
<path fill-rule="evenodd" clip-rule="evenodd" fill="#F1CBA6" stroke="#010101" stroke-width="2" stroke-linecap="square" stroke-miterlimit="10" d="  M338.5,463.408c-9.795-9.499-25.751-37.924-37.5-31.5c19.378,21.14,52.458,70.291,78,79.5  C368.404,494.644,351.185,477.817,338.5,463.408z"/>
<path fill-rule="evenodd" clip-rule="evenodd" fill="#2A286F" stroke="#010101" stroke-width="2" stroke-linecap="square" stroke-miterlimit="10" d="  M270.25,416.16c-5.75,6.999-11.5,13.999-17.25,20.998c2.158,2.737,13.282,12.341,16.5,14.25c4.938-6.029,14.019-8.819,18.75-15  c14.268,31.245,25.525,11.361,50.25,10.5C319.572,426.26,299.684,406.409,270.25,416.16z"/>
<path fill-rule="evenodd" clip-rule="evenodd" fill="#F1CBA6" stroke="#010101" stroke-width="2" stroke-linecap="square" stroke-miterlimit="10" d="  M376.75,419.91C406.913,433.664,393.941,392.088,376.75,419.91L376.75,419.91z"/>
<path fill-rule="evenodd" clip-rule="evenodd" fill="#F1CBA6" stroke="#010101" stroke-width="2" stroke-linecap="square" stroke-miterlimit="10" d="  M215.5,332.91C188.333,316.511,226.531,303.39,215.5,332.91L215.5,332.91z"/>
<path fill-rule="evenodd" clip-rule="evenodd" fill="#F1CBA6" stroke="#010101" stroke-width="2" stroke-linecap="square" stroke-miterlimit="10" d="  M534.25,353.91c3.25-0.5,6.5-1,9.75-1.5c3.47,24.256-19.652,24.478-35.25,13.5C513.291,354.45,522.701,349.538,534.25,353.91z"/>
<path fill-rule="evenodd" clip-rule="evenodd" fill="#F1CBA6" stroke="#010101" stroke-width="2" stroke-linecap="square" stroke-miterlimit="10" d="  M443.5,416.16c19.831-5.451,51.091-49.865,66.75-38.25C494.452,384.181,456.784,425.749,443.5,416.16z"/>
<path fill-rule="evenodd" clip-rule="evenodd" fill="#2A286F" stroke="#010101" stroke-width="2" stroke-linecap="square" stroke-miterlimit="10" d="  M568.75,506.908c6.22,1.215,35.67,14.479,21.75,20.25C580.04,531.495,556.837,517.373,568.75,506.908z"/>
<path fill-rule="evenodd" clip-rule="evenodd" fill="#F1CBA6" stroke="#010101" stroke-width="2" stroke-linecap="square" stroke-miterlimit="10" d="  M585.25,455.908c-13.622-7.858-47.109-16.298-33-33.75c5.98,6.455,35.139,24.593,37.5,31.5c3.133,9.165-13.105,50.655-16.5,59.25  C568.065,497.994,580.546,472.607,585.25,455.908z"/>
<path fill-rule="evenodd" clip-rule="evenodd" fill="#2A286F" stroke="#010101" stroke-width="2" stroke-linecap="square" stroke-miterlimit="10" d="  M451,503.158C388.318,496.035,466.304,535.615,451,503.158L451,503.158z"/>
<path fill-rule="evenodd" clip-rule="evenodd" fill="#F1CBA6" stroke="#010101" stroke-width="2" stroke-linecap="square" stroke-miterlimit="10" d="  M502,333.66c-6.987,31.43,39.036,36.624,41.25-1.5C529.438,335.689,515.837,337.352,502,333.66z"/>
<path fill-rule="evenodd" clip-rule="evenodd" fill="#2A286F" stroke="#010101" stroke-width="2" stroke-linecap="square" stroke-miterlimit="10" d="  M543.25,329.91c-17.681,4.025-45.198,5.274-60.75-3C503.357,329.271,526.97,296.1,543.25,329.91z"/>
<path fill-rule="evenodd" clip-rule="evenodd" fill="#F1CBA6" stroke="#010101" stroke-width="2" stroke-linecap="square" stroke-miterlimit="10" d="  M537.25,361.41c20.102-15.429,46.589-16.365,66-33.75c1,1.25,2,2.5,3,3.75C593.468,342.906,542.673,367.274,537.25,361.41z"/>
<path fill-rule="evenodd" clip-rule="evenodd" fill="#ED2224" stroke="#010101" stroke-width="2" stroke-linecap="square" stroke-miterlimit="10" d="  M556.75,345.66c4.005,4.956,4.942,12.022,9,17.25c-25.088,4.407-18.312,27.189-11.25,45c-16.182,3.02-32.451,5.236-48.75,7.5  c0.25-10.25,0.5-20.5,0.75-30.75c-3.75,2.5-7.5,5-11.25,7.5c-2.331-1.902-10.959-10.983-12.75-13.5  c23.101-15.18,21.569-11.25,42.75-11.25C539.946,367.41,542.34,349.556,556.75,345.66z"/>
<path fill-rule="evenodd" clip-rule="evenodd" fill="#F1CBA6" stroke="#010101" stroke-width="2" stroke-linecap="square" stroke-miterlimit="10" d="  M486.25,460.408c11.408-10.977,21.979-33.06,36-30.75c-18.871,21.117-50.248,68.12-75.75,77.25  C457.836,491.137,474.128,473.542,486.25,460.408z"/>
<path fill-rule="evenodd" clip-rule="evenodd" fill="#2A286F" stroke="#010101" stroke-width="2" stroke-linecap="square" stroke-miterlimit="10" d="  M552.25,415.41c6.343,5.191,11.304,13.871,16.5,20.248c-2.14,2.592-13.069,11.894-15.75,13.5c-4.712-5.995-13.387-8.935-18-15  c-14.421,30.009-24.535,10.646-48.75,10.5C503.159,426.165,526.266,402.428,552.25,415.41z"/>
<path fill-rule="evenodd" clip-rule="evenodd" fill="#F1CBA6" stroke="#010101" stroke-width="2" stroke-linecap="square" stroke-miterlimit="10" d="  M448.75,418.41C418.606,430.444,433.213,392.59,448.75,418.41L448.75,418.41z"/>
<path fill-rule="evenodd" clip-rule="evenodd" fill="#F1CBA6" stroke="#010101" stroke-width="2" stroke-linecap="square" stroke-miterlimit="10" d="  M605.5,334.41C630.942,317.389,594.442,305.617,605.5,334.41L605.5,334.41z"/>
</svg>