<svg xmlns="http://www.w3.org/2000/svg" xmlns:xlink="http://www.w3.org/1999/xlink" version="1.1" id="Layer_1" x="0px" y="0px" enable-background="new 0 0 822.05 841.89" xml:space="preserve" viewBox="213 263.31 395 321.77">
<path fill-rule="evenodd" clip-rule="evenodd" fill="#BCBEC0" stroke="#000000" stroke-width="2" stroke-linecap="square" stroke-miterlimit="10" d="  M390.252,276.892c85.617,22.27,58.686,136.175,68.625,199.125c3.776,23.916,11.082,60.462,39.375,67.125  c25.605,6.03,60.107-23.05,69-45c13.25,8.25,26.5,16.5,39.75,24.75c-25.246,27.801-74.07,74.177-116.25,57.75  c-42.162-16.42-48.074-93.484-50.25-131.25c-33.755,42.276-87.959,58.658-138.75,39  C331.252,417.892,360.752,347.392,390.252,276.892z"/>
<path fill-rule="evenodd" clip-rule="evenodd" fill="#6D6F71" stroke="#000000" stroke-width="2" stroke-linecap="square" stroke-miterlimit="10" d="  M443.502,375.142c-2.021,147.696-229.735,148.139-229.5,0C214.237,227.161,440.979,227.562,443.502,375.142z"/>
<path fill-rule="evenodd" clip-rule="evenodd" fill="#FFFFFF" stroke="#000000" stroke-width="2" stroke-linecap="square" stroke-miterlimit="10" d="  M307.752,333.142c-2.578,28.14-43.997,28.268-43.5,0C264.743,305.236,305.111,305.899,307.752,333.142z"/>
<path fill-rule="evenodd" clip-rule="evenodd" fill="#FFFFFF" stroke="#000000" stroke-width="2" stroke-linecap="square" stroke-miterlimit="10" d="  M307.002,418.642c-1.863,27.612-43.5,28-43.5,0S305.139,391.03,307.002,418.642z"/>
<path fill-rule="evenodd" clip-rule="evenodd" fill="#FFFFFF" stroke="#000000" stroke-width="2" stroke-linecap="square" stroke-miterlimit="10" d="  M397.002,418.642c-0.692,27.853-42.75,27.94-42.75,0C354.252,390.701,396.31,390.79,397.002,418.642z"/>
<path fill-rule="evenodd" clip-rule="evenodd" fill="#BCBEC0" stroke="#000000" stroke-width="2" stroke-linecap="square" stroke-miterlimit="10" d="  M339.252,372.892c-3.937,10.765-19.736,15.355-21,0C316.933,356.859,335.688,361.423,339.252,372.892z"/>
<path fill-rule="evenodd" clip-rule="evenodd" fill="#FFFFFF" stroke="#000000" stroke-width="2" stroke-linecap="square" stroke-miterlimit="10" d="  M397.002,330.892c-0.372,28.03-43.026,27.97-42.75,0C354.525,303.229,396.57,303.226,397.002,330.892z"/>
<path fill-rule="evenodd" clip-rule="evenodd" fill="#6D6F71" stroke="#000000" stroke-width="2" stroke-linecap="square" stroke-miterlimit="10" d="  M547.752,534.142c19.855,28.402,28.879,8.416,49.5-9.75C569.479,507.902,571.132,512.138,547.752,534.142z"/>
<path fill-rule="evenodd" clip-rule="evenodd" fill="#6D6F71" stroke="#000000" stroke-width="2" stroke-linecap="square" stroke-miterlimit="10" d="  M537.252,540.142c-8.187,6.694-18.133,10.275-28.5,9c3,9,6,18,9,27C540.823,568.327,560.764,563.289,537.252,540.142z"/>
<path fill-rule="evenodd" clip-rule="evenodd" fill="#6D6F71" stroke="#000000" stroke-width="2" stroke-linecap="square" stroke-miterlimit="10" d="  M477.252,535.642c20.039,15.2,21.399,15.033,26.25,42.75C488.32,571.846,454.657,551.18,477.252,535.642z"/>
<path fill-rule="evenodd" clip-rule="evenodd" fill="#6D6F71" stroke="#000000" stroke-width="2" stroke-linecap="square" stroke-miterlimit="10" d="  M453.252,502.642c3.5,11.75,7,23.5,10.5,35.25C474.299,528.637,468.09,501.053,453.252,502.642z"/>
</svg>