<svg xmlns="http://www.w3.org/2000/svg" xmlns:xlink="http://www.w3.org/1999/xlink" version="1.1" id="Layer_1" x="0px" y="0px" enable-background="new 0 0 822.05 841.89" xml:space="preserve" viewBox="233.75 266.1 353.75 311.31">
<path fill-rule="evenodd" clip-rule="evenodd" fill="#1B529E" stroke="#010101" stroke-width="2" stroke-linecap="square" stroke-miterlimit="10" d="  M453,342.851c-3.449,1.387-7.565,0.848-11.25,3c-1.786-14.049-24.217-29.961-37.5-20.25c-7.122-11.911-19.474-10.851-32.25-6  c-5.334-11.913-14.742-10.574-21.75,0c-31.064-26.016-35.965,71.665-6.75,39c8.571,7.979,5.473,8.16,17.25,3  c10.027,10.304,21.113,11.453,33,4.5c14.054,17.433,16.13,15.714,35.25,12.75C442.059,376.827,468.715,362.607,453,342.851z"/>
<path fill-rule="evenodd" clip-rule="evenodd" fill="#BCBEC0" stroke="#010101" stroke-width="2" stroke-linecap="square" stroke-miterlimit="10" d="  M577.5,507.851c-23.756-55.146,12.66-98.953-0.75-156.75c-23.877,7.099-53.755,63.399-58.5,84.75  c-12.853,57.836,23.409,75.724,62.25,115.5C585.595,537.064,581.785,522.058,577.5,507.851z"/>
<path fill-rule="evenodd" clip-rule="evenodd" fill="#BCBEC0" stroke="#010101" stroke-width="2" stroke-linecap="square" stroke-miterlimit="10" d="  M314.25,364.601c-33.468-10.374-67.588,67.288-76.5,90.75c36.822,9.952,33.89,17.619,4.5,37.5  c14.502,12.325,34.246,26.339,51.528,34.194c20.557,9.344,33.264-18.563,39.972-37.569  C348.089,448.849,332.967,401.285,314.25,364.601z"/>
<path fill-rule="evenodd" clip-rule="evenodd" fill="#BCBEC0" stroke="#010101" stroke-width="2" stroke-linecap="square" stroke-miterlimit="10" d="  M234.75,448.601c23.987-42.22,53.364,59.382,11.25,53.25c-25.91-3.772,5.986-25.84,6-24.75  C251.802,461.642,234.654,465.472,234.75,448.601z"/>
<path fill-rule="evenodd" clip-rule="evenodd" fill="#BCBEC0" stroke="#010101" stroke-width="2" stroke-linecap="square" stroke-miterlimit="10" d="  M519.75,429.101c-62.852-43.829-130.044-104.89-211.5-67.5c47.404,42.843,31.271,128.126-3.75,171  c36.974,20.885,72.025,21.316,112.917,13.527c22.962-4.373,41.028-14.095,58.833-28.527c13.28-10.766,23.34-27.409,40.5-30  C512.113,468.829,513.568,447.429,519.75,429.101z"/>
<path fill="none" stroke="#010101" stroke-width="2" stroke-linecap="square" stroke-miterlimit="10" d="M285.75,423.851  C282.456,423.851,282.456,423.851,285.75,423.851L285.75,423.851z"/>
<path fill="none" stroke="#010101" stroke-width="2" stroke-linecap="square" stroke-miterlimit="10" d="M285.75,423.851  C282.456,423.851,282.456,423.851,285.75,423.851L285.75,423.851z"/>
<path fill="none" stroke="#010101" stroke-width="2" stroke-linecap="square" stroke-miterlimit="10" d="M288,422.351  c-3.524,0-3.545,9.161-8.25,0C284.455,413.19,284.476,422.351,288,422.351z"/>
<path fill="none" stroke="#010101" stroke-width="2" stroke-linecap="square" stroke-miterlimit="10" d="M288,422.351  c-3.524,0-3.545,9.161-8.25,0C284.455,413.19,284.476,422.351,288,422.351z"/>
<path fill="none" stroke="#010101" stroke-width="2" stroke-linecap="square" stroke-miterlimit="10" d="M282.75,423.851  C284.99,423.851,284.99,423.851,282.75,423.851L282.75,423.851z"/>
<path fill="none" stroke="#010101" stroke-width="2" stroke-linecap="square" stroke-miterlimit="10" d="M288,422.351  c-3.788,0.554-3.683,8.893-8.25,0C284.131,416.826,284.859,422.81,288,422.351z"/>
<path fill="none" stroke="#010101" stroke-width="2" stroke-linecap="square" stroke-miterlimit="10" d="M286.5,422.351  c-2.345,0.546,1.562,7.309-5.25,3c0-1.5,0-3,0-4.5C285.715,417.453,285.957,422.477,286.5,422.351z"/>
<path fill="none" stroke="#010101" stroke-width="2" stroke-linecap="square" stroke-miterlimit="10" d="M286.5,422.351  c-3.1,0.476,1.069,4.992-5.25,3c0-1.5,0-3,0-4.5C286.983,415.932,283.723,422.777,286.5,422.351z"/>
<path fill="none" stroke="#010101" stroke-width="2" stroke-linecap="square" stroke-miterlimit="10" d="M286.5,422.351  c-2.336,0.209-1.944,5.291-5.25,0C284.298,418.942,284.661,422.515,286.5,422.351z"/>
<path fill="none" stroke="#010101" stroke-width="2" stroke-linecap="square" stroke-miterlimit="10" d="M285.75,423.851  C283.034,422.537,281.757,421.919,285.75,423.851L285.75,423.851z"/>
<path fill="none" stroke="#010101" stroke-width="2" stroke-linecap="square" stroke-miterlimit="10" d="M285.75,423.851  C282.456,423.851,282.456,423.851,285.75,423.851L285.75,423.851z"/>
<path fill="none" stroke="#010101" stroke-width="2" stroke-linecap="square" stroke-miterlimit="10" d="M285.75,423.851  C282.456,423.851,282.456,423.851,285.75,423.851L285.75,423.851z"/>
<path fill="none" stroke="#010101" stroke-width="2" stroke-linecap="square" stroke-miterlimit="10" d="M285.75,423.851  C283.51,423.851,283.51,423.851,285.75,423.851L285.75,423.851z"/>
<path fill="none" stroke="#010101" stroke-width="2" stroke-linecap="square" stroke-miterlimit="10" d="M288,422.351  c-3.524,0-3.545,9.161-8.25,0C284.455,413.19,284.476,422.351,288,422.351z"/>
<path fill="none" stroke="#010101" stroke-width="2" stroke-linecap="square" stroke-miterlimit="10" d="M286.5,422.351  c0.305,0-0.87,4.3-5.25,3c-2-2-2-4,0-6C285.63,418.051,286.805,422.351,286.5,422.351z"/>
<path fill="none" stroke="#010101" stroke-width="2" stroke-linecap="square" stroke-miterlimit="10" d="M282.75,423.851  C286.038,422.078,284.033,423.159,282.75,423.851L282.75,423.851z"/>
<path fill="none" stroke="#010101" stroke-width="2" stroke-linecap="square" stroke-miterlimit="10" d="M286.5,422.351  c-1.046,0.166,0.161,4.606-5.25,3c0-1.5,0-3,0-4.5C285.943,417.28,285.596,422.495,286.5,422.351z"/>
<path fill="none" stroke="#010101" stroke-width="2" stroke-linecap="square" stroke-miterlimit="10" d="M286.5,422.351  c-2.06,0.585-1.205,6.851-5.25,0C283.847,419.854,286.531,422.342,286.5,422.351z"/>
<path fill="none" stroke="#010101" stroke-width="2" stroke-linecap="square" stroke-miterlimit="10" d="M286.5,422.351  c-2.537,0.706-1.625,7.152-5.25,0C284.224,419.025,285.107,422.739,286.5,422.351z"/>
<path fill="none" stroke="#010101" stroke-width="2" stroke-linecap="square" stroke-miterlimit="10" d="M285.75,422.351  C281.757,424.283,283.034,423.666,285.75,422.351L285.75,422.351z"/>
<path fill="none" stroke="#010101" stroke-width="2" stroke-linecap="square" stroke-miterlimit="10" d="M285.75,423.851  C282.175,422.753,282.717,422.92,285.75,423.851L285.75,423.851z"/>
<path fill="none" stroke="#010101" stroke-width="2" stroke-linecap="square" stroke-miterlimit="10" d="M285.75,423.851  C282.456,423.851,282.456,423.851,285.75,423.851L285.75,423.851z"/>
<path fill="none" stroke="#010101" stroke-width="2" stroke-linecap="square" stroke-miterlimit="10" d="M285.75,423.851  C283.51,423.851,283.51,423.851,285.75,423.851L285.75,423.851z"/>
<path fill="none" stroke="#010101" stroke-width="2" stroke-linecap="square" stroke-miterlimit="10" d="M285.75,423.851  C284.467,423.159,282.462,422.078,285.75,423.851L285.75,423.851z"/>
<path fill="none" stroke="#010101" stroke-width="2" stroke-linecap="square" stroke-miterlimit="10" d="M288,422.351  c-3.286,0.382-3.211,7.089-6.75,0C284.736,416.84,284.907,422.71,288,422.351z"/>
<path fill="none" stroke="#010101" stroke-width="2" stroke-linecap="square" stroke-miterlimit="10" d="M286.5,422.351  c-1.435,0-1.721,4.979-5.25,0C284.779,417.372,285.065,422.351,286.5,422.351z"/>
<path fill="none" stroke="#010101" stroke-width="2" stroke-linecap="square" stroke-miterlimit="10" d="M284.25,423.851  C286.25,423.851,286.25,423.851,284.25,423.851L284.25,423.851z"/>
<path fill="none" stroke="#010101" stroke-width="2" stroke-linecap="square" stroke-miterlimit="10" d="M286.5,422.351  c-2.06,0.585-1.205,6.851-5.25,0C283.847,419.854,286.531,422.342,286.5,422.351z"/>
<path fill="none" stroke="#010101" stroke-width="2" stroke-linecap="square" stroke-miterlimit="10" d="M286.5,423.851  C282.828,422.718,281.066,422.174,286.5,423.851L286.5,423.851z"/>
<path fill="none" stroke="#010101" stroke-width="2" stroke-linecap="square" stroke-miterlimit="10" d="M286.5,423.851  C282.021,423.411,281.75,423.383,286.5,423.851L286.5,423.851z"/>
<path fill="none" stroke="#010101" stroke-width="2" stroke-linecap="square" stroke-miterlimit="10" d="M285.75,423.851  C282.175,422.753,282.717,422.92,285.75,423.851L285.75,423.851z"/>
<path fill="none" stroke="#010101" stroke-width="2" stroke-linecap="square" stroke-miterlimit="10" d="M285.75,423.851  C282.456,423.851,282.456,423.851,285.75,423.851L285.75,423.851z"/>
<path fill="none" stroke="#010101" stroke-width="2" stroke-linecap="square" stroke-miterlimit="10" d="M285.75,423.851  C282.456,423.851,282.456,423.851,285.75,423.851L285.75,423.851z"/>
<path fill="none" stroke="#010101" stroke-width="2" stroke-linecap="square" stroke-miterlimit="10" d="M285.75,423.851  C283.75,423.851,283.75,423.851,285.75,423.851L285.75,423.851z"/>
<path fill="none" stroke="#010101" stroke-width="2" stroke-linecap="square" stroke-miterlimit="10" d="M285.75,423.851  C283.75,423.851,283.75,423.851,285.75,423.851L285.75,423.851z"/>
<path fill="none" stroke="#010101" stroke-width="2" stroke-linecap="square" stroke-miterlimit="10" d="M286.5,423.851  C283.438,422.557,283.058,422.397,286.5,423.851L286.5,423.851z"/>
<path fill="none" stroke="#010101" stroke-width="2" stroke-linecap="square" stroke-miterlimit="10" d="M286.5,422.351  C282.005,423.708,283.251,423.333,286.5,422.351L286.5,422.351z"/>
<path fill="none" stroke="#010101" stroke-width="2" stroke-linecap="square" stroke-miterlimit="10" d="M284.25,423.851  C286.25,423.851,286.25,423.851,284.25,423.851L284.25,423.851z"/>
<path fill="none" stroke="#010101" stroke-width="2" stroke-linecap="square" stroke-miterlimit="10" d="M286.5,423.851  C283.657,423.291,282.057,422.975,286.5,423.851L286.5,423.851z"/>
<path fill="none" stroke="#010101" stroke-width="2" stroke-linecap="square" stroke-miterlimit="10" d="M286.5,423.851  C284.252,423.851,284.252,423.851,286.5,423.851L286.5,423.851z"/>
<path fill="none" stroke="#010101" stroke-width="2" stroke-linecap="square" stroke-miterlimit="10" d="M285.75,423.851  C284.543,422.644,284.543,422.644,285.75,423.851L285.75,423.851z"/>
<path fill="none" stroke="#010101" stroke-width="2" stroke-linecap="square" stroke-miterlimit="10" d="M285.75,423.851  C284.543,422.644,284.543,422.644,285.75,423.851L285.75,423.851z"/>
<path fill="none" stroke="#010101" stroke-width="2" stroke-linecap="square" stroke-miterlimit="10" d="M285.75,423.851  C284.543,422.644,284.543,422.644,285.75,423.851L285.75,423.851z"/>
<path fill="none" stroke="#010101" stroke-width="2" stroke-linecap="square" stroke-miterlimit="10" d="M285.75,423.851  C284.543,422.644,284.543,422.644,285.75,423.851L285.75,423.851z"/>
<path fill="none" stroke="#010101" stroke-width="2" stroke-linecap="square" stroke-miterlimit="10" d="M285.75,423.851  c-3.019,0-2.67,5.484-6,0C283.08,418.366,282.731,423.851,285.75,423.851z"/>
<path fill="none" stroke="#010101" stroke-width="2" stroke-linecap="square" stroke-miterlimit="10" d="M285.75,423.851  C281.668,423.851,281.668,423.851,285.75,423.851L285.75,423.851z"/>
<path fill="none" stroke="#010101" stroke-width="2" stroke-linecap="square" stroke-miterlimit="10" d="M291,420.851  C274.387,451.929,271.124,390.922,291,420.851L291,420.851z"/>
<path fill="none" stroke="#010101" stroke-width="2" stroke-linecap="square" stroke-miterlimit="10" d="M289.5,420.851  C272.534,443.627,274.331,396.571,289.5,420.851L289.5,420.851z"/>
<path fill="none" stroke="#010101" stroke-width="2" stroke-linecap="square" stroke-miterlimit="10" d="M281.25,423.851  C283.796,423.851,283.796,423.851,281.25,423.851L281.25,423.851z"/>
<path fill="none" stroke="#010101" stroke-width="2" stroke-linecap="square" stroke-miterlimit="10" d="M289.5,422.351  C272.343,435.997,274.752,407.195,289.5,422.351L289.5,422.351z"/>
<path fill="none" stroke="#010101" stroke-width="2" stroke-linecap="square" stroke-miterlimit="10" d="M288,422.351  C274.594,436.157,274.594,408.545,288,422.351L288,422.351z"/>
<path fill="none" stroke="#010101" stroke-width="2" stroke-linecap="square" stroke-miterlimit="10" d="M288,422.351  C273.773,427.739,276.557,413.75,288,422.351L288,422.351z"/>
<path fill="none" stroke="#010101" stroke-width="2" stroke-linecap="square" stroke-miterlimit="10" d="M286.5,422.351  c-2.875,0-3.311,8.812-8.25,0C283.189,413.539,283.625,422.351,286.5,422.351z"/>
<path fill="none" stroke="#010101" stroke-width="2" stroke-linecap="square" stroke-miterlimit="10" d="M286.5,422.351  c-2.691,0.433-0.485,7.064-6.75,3c0-1.5,0-3,0-4.5C284.241,417.335,284.48,422.675,286.5,422.351z"/>
<path fill="none" stroke="#010101" stroke-width="2" stroke-linecap="square" stroke-miterlimit="10" d="M285.75,423.851  c-3.019,0-2.67,5.484-6,0C283.08,418.366,282.731,423.851,285.75,423.851z"/>
<path fill="none" stroke="#010101" stroke-width="2" stroke-linecap="square" stroke-miterlimit="10" d="M285.75,423.851  C280.172,423.851,280.172,423.851,285.75,423.851L285.75,423.851z"/>
<path fill="none" stroke="#010101" stroke-width="2" stroke-linecap="square" stroke-miterlimit="10" d="M285.75,423.851  C282.351,423.851,282.351,423.851,285.75,423.851L285.75,423.851z"/>
<path fill="none" stroke="#010101" stroke-width="2" stroke-linecap="square" stroke-miterlimit="10" d="M291,422.351  C271.457,439.654,273.429,402.139,291,422.351L291,422.351z"/>
<path fill="none" stroke="#010101" stroke-width="2" stroke-linecap="square" stroke-miterlimit="10" d="M289.5,420.851  C273.624,433.91,273.475,408.105,289.5,420.851L289.5,420.851z"/>
<path fill="none" stroke="#010101" stroke-width="2" stroke-linecap="square" stroke-miterlimit="10" d="M281.25,423.851  C284.544,423.851,284.544,423.851,281.25,423.851L281.25,423.851z"/>
<path fill="none" stroke="#010101" stroke-width="2" stroke-linecap="square" stroke-miterlimit="10" d="M288,422.351  C275.232,432.526,275.19,411.19,288,422.351L288,422.351z"/>
<path fill="none" stroke="#010101" stroke-width="2" stroke-linecap="square" stroke-miterlimit="10" d="M288,422.351  C277.328,427.331,277.298,422.289,288,422.351L288,422.351z"/>
<path fill="none" stroke="#010101" stroke-width="2" stroke-linecap="square" stroke-miterlimit="10" d="M288,422.351  C277.82,422.351,277.82,422.351,288,422.351L288,422.351z"/>
<path fill="none" stroke="#010101" stroke-width="2" stroke-linecap="square" stroke-miterlimit="10" d="M286.5,422.351  c-0.016,0-1.625,4.169-5.25,3c-2-2-2-4,0-6C284.875,418.182,286.484,422.351,286.5,422.351z"/>
<path fill="none" stroke="#010101" stroke-width="2" stroke-linecap="square" stroke-miterlimit="10" d="M286.5,422.351  c-2.712,0.333-2.951,6.805-6.75,0C283.194,417.141,284.112,422.644,286.5,422.351z"/>
<path fill="none" stroke="#010101" stroke-width="2" stroke-linecap="square" stroke-miterlimit="10" d="M285.75,423.851  C280.076,423.418,280.122,423.422,285.75,423.851L285.75,423.851z"/>
<path fill="none" stroke="#010101" stroke-width="2" stroke-linecap="square" stroke-miterlimit="10" d="M285.75,423.851  C281.668,423.851,281.668,423.851,285.75,423.851L285.75,423.851z"/>
<path fill="none" stroke="#010101" stroke-width="2" stroke-linecap="square" stroke-miterlimit="10" d="M285.75,423.851  C282.456,423.851,282.456,423.851,285.75,423.851L285.75,423.851z"/>
<path fill="none" stroke="#010101" stroke-width="2" stroke-linecap="square" stroke-miterlimit="10" d="M289.5,422.351  C275.595,433.764,275.741,409.895,289.5,422.351L289.5,422.351z"/>
<path fill="none" stroke="#010101" stroke-width="2" stroke-linecap="square" stroke-miterlimit="10" d="M288,422.351  C277.298,422.414,277.328,417.371,288,422.351L288,422.351z"/>
<path fill="none" stroke="#010101" stroke-width="2" stroke-linecap="square" stroke-miterlimit="10" d="M282.75,423.851  C283.824,423.851,283.824,423.851,282.75,423.851L282.75,423.851z"/>
<path fill="none" stroke="#010101" stroke-width="2" stroke-linecap="square" stroke-miterlimit="10" d="M288,422.351  C277.78,422.351,277.78,422.351,288,422.351L288,422.351z"/>
<path fill="none" stroke="#010101" stroke-width="2" stroke-linecap="square" stroke-miterlimit="10" d="M288,422.351  C278.269,422.351,278.269,422.351,288,422.351L288,422.351z"/>
<path fill="none" stroke="#010101" stroke-width="2" stroke-linecap="square" stroke-miterlimit="10" d="M286.5,422.351  c-2.359,0.159-5.387,8.586-5.25-3C285,418.238,287.58,422.278,286.5,422.351z"/>
<path fill="none" stroke="#010101" stroke-width="2" stroke-linecap="square" stroke-miterlimit="10" d="M286.5,422.351  c-3.1,0.476,1.069,4.992-5.25,3c0-1.5,0-3,0-4.5C286.983,415.932,283.723,422.777,286.5,422.351z"/>
<path fill="none" stroke="#010101" stroke-width="2" stroke-linecap="square" stroke-miterlimit="10" d="M285.75,422.351  c-2.565,0.734,2.156,5.013-4.5,3C281.289,417.78,284.133,422.814,285.75,422.351z"/>
<path fill="none" stroke="#010101" stroke-width="2" stroke-linecap="square" stroke-miterlimit="10" d="M285.75,423.851  C281.668,423.851,281.668,423.851,285.75,423.851L285.75,423.851z"/>
<path fill="none" stroke="#010101" stroke-width="2" stroke-linecap="square" stroke-miterlimit="10" d="M285.75,423.851  C282.456,423.851,282.456,423.851,285.75,423.851L285.75,423.851z"/>
<path fill="none" stroke="#010101" stroke-width="2" stroke-linecap="square" stroke-miterlimit="10" d="M285.75,423.851  C284.467,423.159,282.462,422.078,285.75,423.851L285.75,423.851z"/>
<path fill="none" stroke="#010101" stroke-width="2" stroke-linecap="square" stroke-miterlimit="10" d="M288,422.351  c-3.891,0.604-0.35,7.35-6.75,3c0-1.5,0-3,0-4.5C286.494,416.773,284.576,422.882,288,422.351z"/>
<path fill="none" stroke="#010101" stroke-width="2" stroke-linecap="square" stroke-miterlimit="10" d="M286.5,422.351  c-1.046,0.166,0.161,4.606-5.25,3c0-1.5,0-3,0-4.5C285.943,417.28,285.596,422.495,286.5,422.351z"/>
<path fill="none" stroke="#010101" stroke-width="2" stroke-linecap="square" stroke-miterlimit="10" d="M284.25,423.851  L284.25,423.851z"/>
<path fill="none" stroke="#010101" stroke-width="2" stroke-linecap="square" stroke-miterlimit="10" d="M286.5,422.351  c-2.06,0.585-1.205,6.851-5.25,0C283.847,419.854,286.531,422.342,286.5,422.351z"/>
<path fill="none" stroke="#010101" stroke-width="2" stroke-linecap="square" stroke-miterlimit="10" d="M286.5,423.851  c-1.393-0.388-2.276,3.326-5.25,0C284.875,416.698,283.963,423.145,286.5,423.851z"/>
<path fill="none" stroke="#010101" stroke-width="2" stroke-linecap="square" stroke-miterlimit="10" d="M286.5,423.851  C282.828,422.718,281.066,422.174,286.5,423.851L286.5,423.851z"/>
<path fill="none" stroke="#010101" stroke-width="2" stroke-linecap="square" stroke-miterlimit="10" d="M285.75,423.851  C283.034,422.537,281.757,421.919,285.75,423.851L285.75,423.851z"/>
<path fill="none" stroke="#010101" stroke-width="2" stroke-linecap="square" stroke-miterlimit="10" d="M285.75,423.851  C282.456,423.851,282.456,423.851,285.75,423.851L285.75,423.851z"/>
<path fill="none" stroke="#010101" stroke-width="2" stroke-linecap="square" stroke-miterlimit="10" d="M285.75,423.851  C282.456,423.851,282.456,423.851,285.75,423.851L285.75,423.851z"/>
<path fill="none" stroke="#010101" stroke-width="2" stroke-linecap="square" stroke-miterlimit="10" d="M285.75,423.851  C280.172,423.851,280.172,423.851,285.75,423.851L285.75,423.851z"/>
<path fill="none" stroke="#010101" stroke-width="2" stroke-linecap="square" stroke-miterlimit="10" d="M285.75,423.851  C282.351,423.851,282.351,423.851,285.75,423.851L285.75,423.851z"/>
<path fill="none" stroke="#010101" stroke-width="2" stroke-linecap="square" stroke-miterlimit="10" d="M289.5,422.351  C271.422,435.741,277.357,404.844,289.5,422.351L289.5,422.351z"/>
<path fill="none" stroke="#010101" stroke-width="2" stroke-linecap="square" stroke-miterlimit="10" d="M288,420.851  C274.94,430.014,274.247,413.175,288,420.851L288,420.851z"/>
<path fill="none" stroke="#010101" stroke-width="2" stroke-linecap="square" stroke-miterlimit="10" d="M281.25,423.851  C284.544,423.851,284.544,423.851,281.25,423.851L281.25,423.851z"/>
<path fill="none" stroke="#010101" stroke-width="2" stroke-linecap="square" stroke-miterlimit="10" d="M288,422.351  C277.298,422.414,277.328,417.371,288,422.351L288,422.351z"/>
<path fill="none" stroke="#010101" stroke-width="2" stroke-linecap="square" stroke-miterlimit="10" d="M288,422.351  C277.82,422.351,277.82,422.351,288,422.351L288,422.351z"/>
<path fill="none" stroke="#010101" stroke-width="2" stroke-linecap="square" stroke-miterlimit="10" d="M288,422.351  C277.82,422.351,277.82,422.351,288,422.351L288,422.351z"/>
<path fill="none" stroke="#010101" stroke-width="2" stroke-linecap="square" stroke-miterlimit="10" d="M286.5,422.351  c-2.712,0.333-2.951,6.805-6.75,0C283.194,417.141,284.112,422.644,286.5,422.351z"/>
<path fill="none" stroke="#010101" stroke-width="2" stroke-linecap="square" stroke-miterlimit="10" d="M285.75,422.351  c-2.081,0.469-1.945,6.617-6,0C282.372,419.932,285.705,422.361,285.75,422.351z"/>
<path fill="none" stroke="#010101" stroke-width="2" stroke-linecap="square" stroke-miterlimit="10" d="M285.75,423.851  c-1.744-0.134-4.006,4.07-4.5-1.5C284.466,419.247,285.035,423.796,285.75,423.851z"/>
<path fill="none" stroke="#010101" stroke-width="2" stroke-linecap="square" stroke-miterlimit="10" d="M285.75,423.851  C281.668,423.851,281.668,423.851,285.75,423.851L285.75,423.851z"/>
<path fill="none" stroke="#010101" stroke-width="2" stroke-linecap="square" stroke-miterlimit="10" d="M285.75,423.851  C282.456,423.851,282.456,423.851,285.75,423.851L285.75,423.851z"/>
<path fill="none" stroke="#010101" stroke-width="2" stroke-linecap="square" stroke-miterlimit="10" d="M289.5,422.351  C275.595,433.764,275.741,409.895,289.5,422.351L289.5,422.351z"/>
<path fill="none" stroke="#010101" stroke-width="2" stroke-linecap="square" stroke-miterlimit="10" d="M288,422.351  C277.298,422.414,277.328,417.371,288,422.351L288,422.351z"/>
<path fill="none" stroke="#010101" stroke-width="2" stroke-linecap="square" stroke-miterlimit="10" d="M282.75,423.851  C283.824,423.851,283.824,423.851,282.75,423.851L282.75,423.851z"/>
<path fill="none" stroke="#010101" stroke-width="2" stroke-linecap="square" stroke-miterlimit="10" d="M288,422.351  C277.78,422.351,277.78,422.351,288,422.351L288,422.351z"/>
<path fill="none" stroke="#010101" stroke-width="2" stroke-linecap="square" stroke-miterlimit="10" d="M288,422.351  C278.269,422.351,278.269,422.351,288,422.351L288,422.351z"/>
<path fill="none" stroke="#010101" stroke-width="2" stroke-linecap="square" stroke-miterlimit="10" d="M286.5,422.351  c-2.359,0.159-5.387,8.586-5.25-3C285,418.238,287.58,422.278,286.5,422.351z"/>
<path fill="none" stroke="#010101" stroke-width="2" stroke-linecap="square" stroke-miterlimit="10" d="M286.5,422.351  c-3.1,0.476,1.069,4.992-5.25,3c0-1.5,0-3,0-4.5C286.983,415.932,283.723,422.777,286.5,422.351z"/>
<path fill="none" stroke="#010101" stroke-width="2" stroke-linecap="square" stroke-miterlimit="10" d="M285.75,422.351  c-2.565,0.734,2.156,5.013-4.5,3C281.289,417.78,284.133,422.814,285.75,422.351z"/>
<path fill="none" stroke="#010101" stroke-width="2" stroke-linecap="square" stroke-miterlimit="10" d="M285.75,423.851  C281.668,423.851,281.668,423.851,285.75,423.851L285.75,423.851z"/>
<path fill="none" stroke="#010101" stroke-width="2" stroke-linecap="square" stroke-miterlimit="10" d="M285.75,423.851  C282.456,423.851,282.456,423.851,285.75,423.851L285.75,423.851z"/>
<path fill="none" stroke="#010101" stroke-width="2" stroke-linecap="square" stroke-miterlimit="10" d="M285.75,423.851  C282.456,423.851,282.456,423.851,285.75,423.851L285.75,423.851z"/>
<path fill="none" stroke="#010101" stroke-width="2" stroke-linecap="square" stroke-miterlimit="10" d="M288,422.351  C277.78,422.351,277.78,422.351,288,422.351L288,422.351z"/>
<path fill="none" stroke="#010101" stroke-width="2" stroke-linecap="square" stroke-miterlimit="10" d="M288,422.351  C278.269,422.351,278.269,422.351,288,422.351L288,422.351z"/>
<path fill="none" stroke="#010101" stroke-width="2" stroke-linecap="square" stroke-miterlimit="10" d="M282.75,423.851  C284.99,423.851,284.99,423.851,282.75,423.851L282.75,423.851z"/>
<path fill="none" stroke="#010101" stroke-width="2" stroke-linecap="square" stroke-miterlimit="10" d="M288,422.351  c-3.912,0.189-7.718,8.822-6.75-3C285.712,417.994,286.492,422.424,288,422.351z"/>
<path fill="none" stroke="#010101" stroke-width="2" stroke-linecap="square" stroke-miterlimit="10" d="M286.5,422.351  c-2.33,0.498-1.579,8.639-6.75,0C283.736,417.74,285.968,422.464,286.5,422.351z"/>
<path fill="none" stroke="#010101" stroke-width="2" stroke-linecap="square" stroke-miterlimit="10" d="M286.5,422.351  c-3.1,0.476,1.069,4.992-5.25,3c0-1.5,0-3,0-4.5C286.983,415.932,283.723,422.777,286.5,422.351z"/>
<path fill="none" stroke="#010101" stroke-width="2" stroke-linecap="square" stroke-miterlimit="10" d="M286.5,422.351  c-2.336,0.209-1.944,5.291-5.25,0C284.298,418.942,284.661,422.515,286.5,422.351z"/>
<path fill="none" stroke="#010101" stroke-width="2" stroke-linecap="square" stroke-miterlimit="10" d="M285.75,423.851  C281.793,423.385,281.489,423.349,285.75,423.851L285.75,423.851z"/>
<path fill="none" stroke="#010101" stroke-width="2" stroke-linecap="square" stroke-miterlimit="10" d="M285.75,423.851  C282.351,423.851,282.351,423.851,285.75,423.851L285.75,423.851z"/>
<path fill="none" stroke="#010101" stroke-width="2" stroke-linecap="square" stroke-miterlimit="10" d="M285.75,423.851  C284.467,423.159,282.462,422.078,285.75,423.851L285.75,423.851z"/>
<path fill="none" stroke="#010101" stroke-width="2" stroke-linecap="square" stroke-miterlimit="10" d="M285.75,423.851  C284.467,423.159,282.462,422.078,285.75,423.851L285.75,423.851z"/>
<path fill="none" stroke="#010101" stroke-width="2" stroke-linecap="square" stroke-miterlimit="10" d="M286.5,422.351  c-0.566,0.107,0.462,4.234-3.75,3C281.293,416.697,284.724,422.689,286.5,422.351z"/>
<path fill="none" stroke="#010101" stroke-width="2" stroke-linecap="square" stroke-miterlimit="10" d="M286.5,422.351  c-2.336,0.209-1.944,5.291-5.25,0C284.298,418.942,284.661,422.515,286.5,422.351z"/>
<path fill="none" stroke="#010101" stroke-width="2" stroke-linecap="square" stroke-miterlimit="10" d="M284.25,423.851  C286.25,423.851,286.25,423.851,284.25,423.851L284.25,423.851z"/>
<path fill="none" stroke="#010101" stroke-width="2" stroke-linecap="square" stroke-miterlimit="10" d="M286.5,422.351  C281.066,424.028,282.828,423.484,286.5,422.351L286.5,422.351z"/>
<path fill="none" stroke="#010101" stroke-width="2" stroke-linecap="square" stroke-miterlimit="10" d="M286.5,423.851  C282.021,423.411,281.75,423.383,286.5,423.851L286.5,423.851z"/>
<path fill="none" stroke="#010101" stroke-width="2" stroke-linecap="square" stroke-miterlimit="10" d="M286.5,423.851  C282.583,422.584,281.535,422.246,286.5,423.851L286.5,423.851z"/>
<path fill="none" stroke="#010101" stroke-width="2" stroke-linecap="square" stroke-miterlimit="10" d="M285.75,423.851  C282.034,422.953,282.864,423.154,285.75,423.851L285.75,423.851z"/>
<path fill="none" stroke="#010101" stroke-width="2" stroke-linecap="square" stroke-miterlimit="10" d="M285.75,423.851  C282.034,422.953,282.864,423.154,285.75,423.851L285.75,423.851z"/>
<path fill="none" stroke="#010101" stroke-width="2" stroke-linecap="square" stroke-miterlimit="10" d="M285.75,423.851  C284.467,423.159,282.462,422.078,285.75,423.851L285.75,423.851z"/>
<path fill="none" stroke="#010101" stroke-width="2" stroke-linecap="square" stroke-miterlimit="10" d="M285.75,423.851  C282.456,423.851,282.456,423.851,285.75,423.851L285.75,423.851z"/>
<path fill="none" stroke="#010101" stroke-width="2" stroke-linecap="square" stroke-miterlimit="10" d="M285.75,423.851  C283.51,423.851,283.51,423.851,285.75,423.851L285.75,423.851z"/>
<path fill="none" stroke="#010101" stroke-width="2" stroke-linecap="square" stroke-miterlimit="10" d="M288,422.351  c-3.524,0-3.545,9.161-8.25,0C284.455,413.19,284.476,422.351,288,422.351z"/>
<path fill="none" stroke="#010101" stroke-width="2" stroke-linecap="square" stroke-miterlimit="10" d="M286.5,422.351  c1.08,0.073-1.5,4.113-5.25,3C281.113,413.765,284.141,422.192,286.5,422.351z"/>
<path fill="none" stroke="#010101" stroke-width="2" stroke-linecap="square" stroke-miterlimit="10" d="M282.75,423.851  C284.99,423.851,284.99,423.851,282.75,423.851L282.75,423.851z"/>
<path fill="none" stroke="#010101" stroke-width="2" stroke-linecap="square" stroke-miterlimit="10" d="M286.5,422.351  c-1.046,0.166,0.161,4.606-5.25,3c0-1.5,0-3,0-4.5C285.943,417.28,285.596,422.495,286.5,422.351z"/>
<path fill="none" stroke="#010101" stroke-width="2" stroke-linecap="square" stroke-miterlimit="10" d="M286.5,422.351  c-1.046,0.166,0.161,4.606-5.25,3c0-1.5,0-3,0-4.5C285.943,417.28,285.596,422.495,286.5,422.351z"/>
<path fill="none" stroke="#010101" stroke-width="2" stroke-linecap="square" stroke-miterlimit="10" d="M286.5,422.351  c-2.537,0.706-1.625,7.152-5.25,0C284.224,419.025,285.107,422.739,286.5,422.351z"/>
<path fill="none" stroke="#010101" stroke-width="2" stroke-linecap="square" stroke-miterlimit="10" d="M285.75,422.351  C281.853,422.875,282.709,422.76,285.75,422.351L285.75,422.351z"/>
<path fill="none" stroke="#010101" stroke-width="2" stroke-linecap="square" stroke-miterlimit="10" d="M285.75,423.851  C283.034,422.537,281.757,421.919,285.75,423.851L285.75,423.851z"/>
<path fill="none" stroke="#010101" stroke-width="2" stroke-linecap="square" stroke-miterlimit="10" d="M285.75,423.851  C282.456,423.851,282.456,423.851,285.75,423.851L285.75,423.851z"/>
<path fill="none" stroke="#010101" stroke-width="2" stroke-linecap="square" stroke-miterlimit="10" d="M285.75,423.851  C282.456,423.851,282.456,423.851,285.75,423.851L285.75,423.851z"/>
<path fill="none" stroke="#010101" stroke-width="2" stroke-linecap="square" stroke-miterlimit="10" d="M285.75,423.851  C284.467,423.159,282.462,422.078,285.75,423.851L285.75,423.851z"/>
<path fill="none" stroke="#010101" stroke-width="2" stroke-linecap="square" stroke-miterlimit="10" d="M288,422.351  c-3.912,0.189-7.718,8.822-6.75-3C285.712,417.994,286.492,422.424,288,422.351z"/>
<path fill="none" stroke="#010101" stroke-width="2" stroke-linecap="square" stroke-miterlimit="10" d="M286.5,422.351  c0.305,0-0.87,4.3-5.25,3c0-2,0-4,0-6C285.63,418.051,286.805,422.351,286.5,422.351z"/>
<path fill="none" stroke="#010101" stroke-width="2" stroke-linecap="square" stroke-miterlimit="10" d="M282.75,423.851  C284.75,423.851,284.75,423.851,282.75,423.851L282.75,423.851z"/>
<path fill="none" stroke="#010101" stroke-width="2" stroke-linecap="square" stroke-miterlimit="10" d="M286.5,422.351  c-0.566,0.107,0.462,4.234-3.75,3C281.293,416.697,284.724,422.689,286.5,422.351z"/>
<path fill="none" stroke="#010101" stroke-width="2" stroke-linecap="square" stroke-miterlimit="10" d="M286.5,422.351  c-2.06,0.585-1.205,6.851-5.25,0C283.847,419.854,286.531,422.342,286.5,422.351z"/>
<path fill="none" stroke="#010101" stroke-width="2" stroke-linecap="square" stroke-miterlimit="10" d="M286.5,422.351  c-2.537,0.706-1.625,7.152-5.25,0C284.224,419.025,285.107,422.739,286.5,422.351z"/>
<path fill="none" stroke="#010101" stroke-width="2" stroke-linecap="square" stroke-miterlimit="10" d="M285.75,422.351  C281.757,424.283,283.034,423.666,285.75,422.351L285.75,422.351z"/>
<path fill="none" stroke="#010101" stroke-width="2" stroke-linecap="square" stroke-miterlimit="10" d="M285.75,423.851  C282.175,422.753,282.717,422.92,285.75,423.851L285.75,423.851z"/>
<path fill="none" stroke="#010101" stroke-width="2" stroke-linecap="square" stroke-miterlimit="10" d="M285.75,423.851  C282.456,423.851,282.456,423.851,285.75,423.851L285.75,423.851z"/>
<path fill="none" stroke="#010101" stroke-width="2" stroke-linecap="square" stroke-miterlimit="10" d="M285.75,423.851  C283.51,423.851,283.51,423.851,285.75,423.851L285.75,423.851z"/>
<path fill="none" stroke="#010101" stroke-width="2" stroke-linecap="square" stroke-miterlimit="10" d="M285.75,423.851  C284.467,423.159,282.462,422.078,285.75,423.851L285.75,423.851z"/>
<path fill="none" stroke="#010101" stroke-width="2" stroke-linecap="square" stroke-miterlimit="10" d="M286.5,422.351  c-0.566,0.107,0.462,4.234-3.75,3C281.293,416.697,284.724,422.689,286.5,422.351z"/>
<path fill="none" stroke="#010101" stroke-width="2" stroke-linecap="square" stroke-miterlimit="10" d="M286.5,422.351  c-2.198,0-1.902,5.359-5.25,0C284.598,416.992,284.302,422.351,286.5,422.351z"/>
<path fill="none" stroke="#010101" stroke-width="2" stroke-linecap="square" stroke-miterlimit="10" d="M284.25,423.851  C286.25,423.851,286.25,423.851,284.25,423.851L284.25,423.851z"/>
<path fill="none" stroke="#010101" stroke-width="2" stroke-linecap="square" stroke-miterlimit="10" d="M286.5,422.351  C281.066,424.028,282.828,423.484,286.5,422.351L286.5,422.351z"/>
<path fill="none" stroke="#010101" stroke-width="2" stroke-linecap="square" stroke-miterlimit="10" d="M286.5,423.851  C282.021,423.411,281.75,423.383,286.5,423.851L286.5,423.851z"/>
<path fill="none" stroke="#010101" stroke-width="2" stroke-linecap="square" stroke-miterlimit="10" d="M286.5,423.851  C282.583,422.584,281.535,422.246,286.5,423.851L286.5,423.851z"/>
<path fill="none" stroke="#010101" stroke-width="2" stroke-linecap="square" stroke-miterlimit="10" d="M285.75,423.851  C282.456,423.851,282.456,423.851,285.75,423.851L285.75,423.851z"/>
<path fill="none" stroke="#010101" stroke-width="2" stroke-linecap="square" stroke-miterlimit="10" d="M285.75,423.851  C282.456,423.851,282.456,423.851,285.75,423.851L285.75,423.851z"/>
<path fill="none" stroke="#010101" stroke-width="2" stroke-linecap="square" stroke-miterlimit="10" d="M285.75,423.851  C283.51,423.851,283.51,423.851,285.75,423.851L285.75,423.851z"/>
<path fill="none" stroke="#010101" stroke-width="2" stroke-linecap="square" stroke-miterlimit="10" d="M285.75,423.851  C283.75,423.851,283.75,423.851,285.75,423.851L285.75,423.851z"/>
<path fill="none" stroke="#010101" stroke-width="2" stroke-linecap="square" stroke-miterlimit="10" d="M285.75,423.851  C283.75,423.851,283.75,423.851,285.75,423.851L285.75,423.851z"/>
<path fill="none" stroke="#010101" stroke-width="2" stroke-linecap="square" stroke-miterlimit="10" d="M286.5,423.851  C284.054,422.947,282.336,422.312,286.5,423.851L286.5,423.851z"/>
<path fill="none" stroke="#010101" stroke-width="2" stroke-linecap="square" stroke-miterlimit="10" d="M286.5,422.351  C282.005,423.708,283.251,423.333,286.5,422.351L286.5,422.351z"/>
<path fill="none" stroke="#010101" stroke-width="2" stroke-linecap="square" stroke-miterlimit="10" d="M284.25,423.851  C286.25,423.851,286.25,423.851,284.25,423.851L284.25,423.851z"/>
<path fill="none" stroke="#010101" stroke-width="2" stroke-linecap="square" stroke-miterlimit="10" d="M286.5,423.851  C284.252,423.851,284.252,423.851,286.5,423.851L286.5,423.851z"/>
<path fill="none" stroke="#010101" stroke-width="2" stroke-linecap="square" stroke-miterlimit="10" d="M285.75,423.851  C284.676,423.851,284.676,423.851,285.75,423.851L285.75,423.851z"/>
<path fill="none" stroke="#010101" stroke-width="2" stroke-linecap="square" stroke-miterlimit="10" d="M285.75,423.851  C284.543,422.644,284.543,422.644,285.75,423.851L285.75,423.851z"/>
<path fill="none" stroke="#010101" stroke-width="2" stroke-linecap="square" stroke-miterlimit="10" d="M285.75,423.851  C284.543,422.644,284.543,422.644,285.75,423.851L285.75,423.851z"/>
<path fill="none" stroke="#010101" stroke-width="2" stroke-linecap="square" stroke-miterlimit="10" d="M285.75,423.851  C284.543,422.644,284.543,422.644,285.75,423.851L285.75,423.851z"/>
<path fill="none" stroke="#010101" stroke-width="2" stroke-linecap="square" stroke-miterlimit="10" d="M285.75,423.851  C283.75,423.851,283.75,423.851,285.75,423.851L285.75,423.851z"/>
<path fill="none" stroke="#010101" stroke-width="2" stroke-linecap="square" stroke-miterlimit="10" d="M285.75,423.851  c-3.019,0-2.67,5.484-6,0C283.08,418.366,282.731,423.851,285.75,423.851z"/>
<path fill="none" stroke="#010101" stroke-width="2" stroke-linecap="square" stroke-miterlimit="10" d="M285.75,423.851  C280.989,423.851,280.989,423.851,285.75,423.851L285.75,423.851z"/>
<path fill="none" stroke="#010101" stroke-width="2" stroke-linecap="square" stroke-miterlimit="10" d="M291,420.851  C272.586,445.221,272.143,397.25,291,420.851L291,420.851z"/>
<path fill="none" stroke="#010101" stroke-width="2" stroke-linecap="square" stroke-miterlimit="10" d="M289.5,420.851  C272.666,438.907,272.666,402.795,289.5,420.851L289.5,420.851z"/>
<path fill="none" stroke="#010101" stroke-width="2" stroke-linecap="square" stroke-miterlimit="10" d="M281.25,423.851  C283.796,423.851,283.796,423.851,281.25,423.851L281.25,423.851z"/>
<path fill="none" stroke="#010101" stroke-width="2" stroke-linecap="square" stroke-miterlimit="10" d="M288,422.351  C272.302,432.198,276.774,410.705,288,422.351L288,422.351z"/>
<path fill="none" stroke="#010101" stroke-width="2" stroke-linecap="square" stroke-miterlimit="10" d="M288,422.351  C274.501,430.981,274.501,413.721,288,422.351L288,422.351z"/>
<path fill="none" stroke="#010101" stroke-width="2" stroke-linecap="square" stroke-miterlimit="10" d="M288,422.351  C275.835,425.198,275.835,419.504,288,422.351L288,422.351z"/>
<path fill="none" stroke="#010101" stroke-width="2" stroke-linecap="square" stroke-miterlimit="10" d="M286.5,422.351  c-2.875,0-3.311,8.812-8.25,0C283.189,413.539,283.625,422.351,286.5,422.351z"/>
<path fill="none" stroke="#010101" stroke-width="2" stroke-linecap="square" stroke-miterlimit="10" d="M285.75,422.351  c-1.798,0.346,0.419,6.93-6,3c0-1.5,0-3,0-4.5C283.749,417.917,285.448,422.409,285.75,422.351z"/>
<path fill="none" stroke="#010101" stroke-width="2" stroke-linecap="square" stroke-miterlimit="10" d="M285.75,423.851  c-3.019,0-2.67,5.484-6,0C283.08,418.366,282.731,423.851,285.75,423.851z"/>
<path fill="none" stroke="#010101" stroke-width="2" stroke-linecap="square" stroke-miterlimit="10" d="M285.75,423.851  C280.172,423.851,280.172,423.851,285.75,423.851L285.75,423.851z"/>
<path fill="none" stroke="#010101" stroke-width="2" stroke-linecap="square" stroke-miterlimit="10" d="M285.75,423.851  C280.989,423.851,280.989,423.851,285.75,423.851L285.75,423.851z"/>
<path fill="none" stroke="#010101" stroke-width="2" stroke-linecap="square" stroke-miterlimit="10" d="M289.5,422.351  C272.89,438.45,274.688,403.231,289.5,422.351L289.5,422.351z"/>
<path fill="none" stroke="#010101" stroke-width="2" stroke-linecap="square" stroke-miterlimit="10" d="M288,420.851  C274.32,434.082,273.968,407.991,288,420.851L288,420.851z"/>
<path fill="none" stroke="#010101" stroke-width="2" stroke-linecap="square" stroke-miterlimit="10" d="M281.25,423.851  C284.544,423.851,284.544,423.851,281.25,423.851L281.25,423.851z"/>
<path fill="none" stroke="#010101" stroke-width="2" stroke-linecap="square" stroke-miterlimit="10" d="M288,422.351  C275.197,425.139,277.098,416.262,288,422.351L288,422.351z"/>
<path fill="none" stroke="#010101" stroke-width="2" stroke-linecap="square" stroke-miterlimit="10" d="M288,422.351  C277.82,422.351,277.82,422.351,288,422.351L288,422.351z"/>
<path fill="none" stroke="#010101" stroke-width="2" stroke-linecap="square" stroke-miterlimit="10" d="M286.5,422.351  c-2.875,0-3.311,8.812-8.25,0C283.189,413.539,283.625,422.351,286.5,422.351z"/>
<path fill="none" stroke="#010101" stroke-width="2" stroke-linecap="square" stroke-miterlimit="10" d="M286.5,422.351  c-2.712,0.333-2.951,6.805-6.75,0C283.194,417.141,284.112,422.644,286.5,422.351z"/>
<path fill="none" stroke="#010101" stroke-width="2" stroke-linecap="square" stroke-miterlimit="10" d="M285.75,422.351  c-1.959,0.297-1.913,6.67-6,0C283.219,417.546,284.635,422.52,285.75,422.351z"/>
<path fill="none" stroke="#010101" stroke-width="2" stroke-linecap="square" stroke-miterlimit="10" d="M285.75,423.851  C280.076,423.418,280.122,423.422,285.75,423.851L285.75,423.851z"/>
<path fill="none" stroke="#010101" stroke-width="2" stroke-linecap="square" stroke-miterlimit="10" d="M285.75,423.851  C280.989,423.851,280.989,423.851,285.75,423.851L285.75,423.851z"/>
<path fill="none" stroke="#010101" stroke-width="2" stroke-linecap="square" stroke-miterlimit="10" d="M285.75,423.851  C282.456,423.851,282.456,423.851,285.75,423.851L285.75,423.851z"/>
<path fill="none" stroke="#010101" stroke-width="2" stroke-linecap="square" stroke-miterlimit="10" d="M289.5,422.351  C274.954,428.989,275.877,413.494,289.5,422.351L289.5,422.351z"/>
<path fill="none" stroke="#010101" stroke-width="2" stroke-linecap="square" stroke-miterlimit="10" d="M288,422.351  C277.298,422.414,277.328,417.371,288,422.351L288,422.351z"/>
<path fill="none" stroke="#010101" stroke-width="2" stroke-linecap="square" stroke-miterlimit="10" d="M281.25,423.851  C284.544,423.851,284.544,423.851,281.25,423.851L281.25,423.851z"/>
<path fill="none" stroke="#010101" stroke-width="2" stroke-linecap="square" stroke-miterlimit="10" d="M288,422.351  C277.78,422.351,277.78,422.351,288,422.351L288,422.351z"/>
<path fill="none" stroke="#010101" stroke-width="2" stroke-linecap="square" stroke-miterlimit="10" d="M286.5,422.351  c-3.057,0.2-5.372,9.326-6.75-3C283.12,418.45,288.058,422.25,286.5,422.351z"/>
<path fill="none" stroke="#010101" stroke-width="2" stroke-linecap="square" stroke-miterlimit="10" d="M286.5,422.351  c-2.87,0.601-2.007,8.917-6.75,0C283.751,417.188,284.995,422.666,286.5,422.351z"/>
<path fill="none" stroke="#010101" stroke-width="2" stroke-linecap="square" stroke-miterlimit="10" d="M285.75,422.351  c-2.419,0.478,2.098,4.994-4.5,3c0-1.5,0-3,0-4.5C286.764,416.494,284.484,422.601,285.75,422.351z"/>
<path fill="none" stroke="#010101" stroke-width="2" stroke-linecap="square" stroke-miterlimit="10" d="M285.75,422.351  c-2.565,0.734,2.156,5.013-4.5,3C281.289,417.78,284.133,422.814,285.75,422.351z"/>
<path fill="none" stroke="#010101" stroke-width="2" stroke-linecap="square" stroke-miterlimit="10" d="M285.75,423.851  C280.989,423.851,280.989,423.851,285.75,423.851L285.75,423.851z"/>
<path fill="none" stroke="#010101" stroke-width="2" stroke-linecap="square" stroke-miterlimit="10" d="M285.75,423.851  C282.456,423.851,282.456,423.851,285.75,423.851L285.75,423.851z"/>
<path fill="none" stroke="#010101" stroke-width="2" stroke-linecap="square" stroke-miterlimit="10" d="M285.75,423.851  C284.467,423.159,282.462,422.078,285.75,423.851L285.75,423.851z"/>
<path fill="none" stroke="#010101" stroke-width="2" stroke-linecap="square" stroke-miterlimit="10" d="M286.5,422.351  c-1.046,0.166,0.161,4.606-5.25,3c0-1.5,0-3,0-4.5C285.943,417.28,285.596,422.495,286.5,422.351z"/>
<path fill="none" stroke="#010101" stroke-width="2" stroke-linecap="square" stroke-miterlimit="10" d="M286.5,422.351  c-2.949,0,0.361,6.313-5.25,1.5c0-1,0-2,0-3C286.861,416.038,283.551,422.351,286.5,422.351z"/>
<path fill="none" stroke="#010101" stroke-width="2" stroke-linecap="square" stroke-miterlimit="10" d="M282.75,423.851  C284.75,423.851,284.75,423.851,282.75,423.851L282.75,423.851z"/>
<path fill="none" stroke="#010101" stroke-width="2" stroke-linecap="square" stroke-miterlimit="10" d="M286.5,422.351  c-2.537,0.706-1.625,7.152-5.25,0C284.224,419.025,285.107,422.739,286.5,422.351z"/>
<path fill="none" stroke="#010101" stroke-width="2" stroke-linecap="square" stroke-miterlimit="10" d="M286.5,423.851  c-1.393-0.388-2.276,3.326-5.25,0C284.875,416.698,283.963,423.145,286.5,423.851z"/>
<path fill="none" stroke="#010101" stroke-width="2" stroke-linecap="square" stroke-miterlimit="10" d="M286.5,423.851  C282.583,422.584,281.535,422.246,286.5,423.851L286.5,423.851z"/>
<path fill="none" stroke="#010101" stroke-width="2" stroke-linecap="square" stroke-miterlimit="10" d="M285.75,423.851  C283.034,422.537,281.757,421.919,285.75,423.851L285.75,423.851z"/>
<path fill="none" stroke="#010101" stroke-width="2" stroke-linecap="square" stroke-miterlimit="10" d="M285.75,423.851  C282.456,423.851,282.456,423.851,285.75,423.851L285.75,423.851z"/>
<path fill-rule="evenodd" clip-rule="evenodd" fill="#BCBEC0" stroke="#010101" stroke-width="2" stroke-linecap="square" stroke-miterlimit="10" d="  M285.75,423.851C282.456,423.851,282.456,423.851,285.75,423.851L285.75,423.851z"/>
<path fill-rule="evenodd" clip-rule="evenodd" fill="#BCBEC0" stroke="#010101" stroke-width="2" stroke-linecap="square" stroke-miterlimit="10" d="  M331.5,545.351c-0.605,36.848,56.833,43.45,52.5,6C366.913,553.996,347.551,551.983,331.5,545.351z"/>
<path fill-rule="evenodd" clip-rule="evenodd" fill="#ED1C24" stroke="#010101" stroke-width="2" stroke-linecap="square" stroke-miterlimit="10" d="  M570,267.101c5.5,9.5,11,19,16.5,28.5c-23.521,12.016-85.551,24.923-60,57.75c-19.75-3-39.5-6-59.25-9c11-19,22-38,33-57  c2.261,8.032,7.325,15.263,9.75,23.25C530,296.101,550,281.601,570,267.101z"/>
</svg>