<svg xmlns="http://www.w3.org/2000/svg" xmlns:xlink="http://www.w3.org/1999/xlink" version="1.1" id="Layer_1" x="0px" y="0px" enable-background="new 0 0 822.05 841.89" xml:space="preserve" viewBox="308.11 346.14 206.24 152">
<path fill-rule="evenodd" clip-rule="evenodd" fill="#F2DCC4" stroke="#000000" stroke-width="1.25" stroke-linecap="square" stroke-miterlimit="10" d="  M422.742,440.515c-6.012-2.872-19.268-15.757-23.369-15.633c-21.103,0.64-21.621,8.129-39.633,14.133  c-19.26,6.42-23.795,30.75,1.404,30.75C401.368,469.765,412.64,479.916,422.742,440.515z"/>
<path fill-rule="evenodd" clip-rule="evenodd" fill="#FFE600" stroke="#000000" stroke-width="1.25" stroke-linecap="square" stroke-miterlimit="10" d="  M420.492,438.265c-5.453,19.463-31.129,26.848-46.877,14.25c-11.937-9.549-10.871-19.502-29.25-11.625  c-17.578,7.533-28.191,40.201-35.625,56.625c49,0,98.001,0,147.002,0C451.796,477.559,444.208,442.709,420.492,438.265z"/>
<path fill-rule="evenodd" clip-rule="evenodd" fill="#F2DCC4" stroke="#000000" stroke-width="1.25" stroke-linecap="square" stroke-miterlimit="10" d="  M364.24,414.265C371.689,443.789,335.582,403.007,364.24,414.265L364.24,414.265z"/>
<path fill-rule="evenodd" clip-rule="evenodd" fill="#F2DCC4" stroke="#000000" stroke-width="1.25" stroke-linecap="square" stroke-miterlimit="10" d="  M427.992,394.765C414.156,421.591,414.433,366.759,427.992,394.765L427.992,394.765z"/>
<path fill-rule="evenodd" clip-rule="evenodd" fill="#F2DCC4" stroke="#000000" stroke-width="1.25" stroke-linecap="square" stroke-miterlimit="10" d="  M348.49,388.765c4.284,41.852,66.489,68.852,73.127,15.75C430.22,335.697,338.546,328,348.49,388.765z"/>
<path fill-rule="evenodd" clip-rule="evenodd" fill="#FFFFFF" stroke="#000000" stroke-width="1.25" stroke-linecap="square" stroke-miterlimit="10" d="  M473.742,346.765c-28.862,0.348-58.074,34.629-21,49.5c-7.808,3.268-10.972,6.61-20.25,6.75c17.862,4.892,57.738-0.49,72-12.375  C530.493,368.972,495.568,346.75,473.742,346.765z"/>
<path fill-rule="evenodd" clip-rule="evenodd" fill="#00AC35" stroke="#000000" stroke-width="1.25" stroke-linecap="square" stroke-miterlimit="10" d="  M476.742,367.765c-3.194,5.487-9.324,9.306-12.75,15c-19.542-29.623-10.991,7.124-2.25,8.25c9.363,1.207,27.092-28.758,36-36.75  C489.823,357.084,483.249,362.127,476.742,367.765z"/>
<path fill-rule="evenodd" clip-rule="evenodd" fill="#7A2A25" stroke="#000000" stroke-linecap="square" stroke-miterlimit="10" d="  M412.24,404.515c-9.214,15.442-16.567,27.896-33.75,12.75C390.574,416.419,402.253,411.312,412.24,404.515z"/>
<path fill-rule="evenodd" clip-rule="evenodd" d="M380.74,398.515c-2.001,1.047,0.049,6.258-4.5,2.25  C376.542,394.238,379.06,399.394,380.74,398.515z"/>
<path fill-rule="evenodd" clip-rule="evenodd" d="M401.74,393.265c-2.438,0.726-1.23,5.489-5.25,1.5  C398.175,389.007,399.431,393.953,401.74,393.265z"/>
<path fill="none" stroke="#000000" stroke-linecap="square" stroke-miterlimit="10" d="M388.99,404.515  c2.877,2.312,5.2,1.263,6.75-2.25"/>
<path fill="none" stroke="#000000" stroke-width="0.75" stroke-linecap="square" stroke-miterlimit="10" d="M372.49,402.265  c2.417-4.51,6.444-6.149,11.25-4.5"/>
<path fill="none" stroke="#000000" stroke-width="0.75" stroke-linecap="square" stroke-miterlimit="10" d="M405.49,392.515  c-4.876-2.286-9.135-0.882-12,3.75"/>
<path fill-rule="evenodd" clip-rule="evenodd" fill="#FFFFFF" d="M341.74,472.015l-0.75,24.75L341.74,472.015z"/>
<line fill="none" stroke="#000000" stroke-width="1.25" stroke-linecap="square" stroke-miterlimit="10" x1="341.74" y1="472.015" x2="340.99" y2="496.765"/>
</svg>