<svg xmlns="http://www.w3.org/2000/svg" xmlns:xlink="http://www.w3.org/1999/xlink" version="1.1" id="Layer_1" x="0px" y="0px" enable-background="new 0 0 822.05 841.89" xml:space="preserve" viewBox="324.23 339.02 172.73 167.33">
<path fill-rule="evenodd" clip-rule="evenodd" fill="#FB0F0C" d="M405.625,397.015L405.625,397.015L405.625,397.015z"/>
<line fill="none" stroke="#000000" stroke-width="1.25" stroke-linecap="square" stroke-miterlimit="10" x1="405.625" y1="397.015" x2="405.625" y2="397.015"/>
<path fill-rule="evenodd" clip-rule="evenodd" fill="#FB0F0C" stroke="#000000" stroke-width="1.5" stroke-linecap="square" stroke-miterlimit="10" d="  M423.625,354.265c-8.72,20.053-30.885,47.611,3,52.5C430.3,393.899,447.325,353.342,423.625,354.265z"/>
<path fill-rule="evenodd" clip-rule="evenodd" fill="#EDCBA6" stroke="#000000" stroke-width="1.25" stroke-linecap="square" stroke-miterlimit="10" d="  M415.375,351.265c-24.195-23.986-26.571,32.499-30.75,48.75c0.522-9.916,12.193-65.38-7.5-60c-13.638,3.726-8.352,50.742-9,62.25  c-1.245-7.811-6.983-73.8-21.75-46.5c-8.705,16.094,6.878,49.488,10.5,65.25c12.337-9.095,28.69-7.589,39,3.75  c-7.007-7.706-17.797-11.951-28.125-9c-19.637,5.61-14.262-5.095-33-13.125c-27.52-11.794,10.126,47.251,19.125,54  c16.956,12.717,26.727,56.916,58.876,24.75c7.08-7.084,14.342-56.238,11.624-66.375c-2.999-11.187-15.517-8.871-18.75-18  C402.188,387.311,413.146,361.728,415.375,351.265z"/>
<path fill-rule="evenodd" clip-rule="evenodd" fill="#D2D1D2" stroke="#000000" stroke-width="1.25" stroke-linecap="square" stroke-miterlimit="10" d="  M416.875,475.765c-13.602,7.953-30.341,15.373-45.75,9.75c-8.919,29.526,32.588,18,51,18  C420.375,494.265,418.625,485.015,416.875,475.765z"/>
<path fill-rule="evenodd" clip-rule="evenodd" fill="#FB0F0C" stroke="#000000" stroke-width="1.5" stroke-linecap="square" stroke-miterlimit="10" d="  M465.625,420.265c8.25,7.25,16.5,14.5,24.75,21.75c22.266-19.668-27.706-20.962-9-39c-12.75-3.75-25.5-7.5-38.25-11.25  c5.5,12,11,24,16.5,36C461.625,425.265,463.625,422.765,465.625,420.265z"/>
</svg>