<svg xmlns="http://www.w3.org/2000/svg" xmlns:xlink="http://www.w3.org/1999/xlink" version="1.1" id="Layer_1" x="0px" y="0px" enable-background="new 0 0 822.05 841.89" xml:space="preserve" viewBox="208.84 275.04 405.5 297.85">
<path fill-rule="evenodd" clip-rule="evenodd" fill="#967A66" stroke="#000000" stroke-width="2" stroke-linecap="square" stroke-miterlimit="10" d="  M398.842,357.39c7.939,44.548,44.132,51.436,80.254,33.375C558.401,351.112,410.099,324.585,398.842,357.39z"/>
<path fill-rule="evenodd" clip-rule="evenodd" fill="#FFDB78" stroke="#000000" stroke-width="2" stroke-linecap="square" stroke-miterlimit="10" d="  M521.846,317.64c-5.198,53.829-31.456,49.944-27-3C499.388,260.681,527.869,264.787,521.846,317.64z"/>
<path fill-rule="evenodd" clip-rule="evenodd" fill="#FFDB78" stroke="#000000" stroke-width="2" stroke-linecap="square" stroke-miterlimit="10" d="  M491.096,361.14c-36.558-10.417-75.184-18.683-113.254-12C412.84,356.483,455.497,372.101,491.096,361.14z"/>
<path fill-rule="evenodd" clip-rule="evenodd" fill="#AF8977" stroke="#000000" stroke-width="2" stroke-linecap="square" stroke-miterlimit="10" d="  M524.846,361.89c-19.92-6.608-39.756,11.999-13.5,17.25C530.046,382.88,552.195,371.554,524.846,361.89z"/>
<path fill-rule="evenodd" clip-rule="evenodd" fill="#6C5635" stroke="#000000" stroke-width="2" stroke-linecap="square" stroke-miterlimit="10" d="  M530.846,382.89C547.788,381.615,549.844,375.762,530.846,382.89L530.846,382.89z"/>
<path fill="none" stroke="#000000" stroke-width="2" stroke-linecap="square" stroke-miterlimit="10" d="M449.096,403.14  c-4.877,13.261-2.001,22.088,5.527,32.306c5.451,7.397-14.828,16.857-21.277,21.694"/>
<path fill="none" stroke="#000000" stroke-width="2" stroke-linecap="square" stroke-miterlimit="10" d="M499.346,379.14  c-2.314,12.963-4.63,25.926-6.944,38.889c-2.596,14.533,14.985,19.315,5.444,36.111"/>
<path fill-rule="evenodd" clip-rule="evenodd" fill="#6C5635" stroke="#000000" stroke-width="2" stroke-linecap="square" stroke-miterlimit="10" d="  M415.346,343.14c-21.552-8.888-50.667-16.96-72.754-6C365.736,344.739,391.496,351.113,415.346,343.14z"/>
<path fill="none" stroke="#000000" stroke-width="2" stroke-linecap="square" stroke-miterlimit="10" d="M518.096,381.39  c-0.946,9.464-5.729,24.238-1.596,32.964c5.305,11.199,13.765,20.659,9.096,32.286"/>
<path fill="none" stroke="#000000" stroke-width="2" stroke-linecap="square" stroke-miterlimit="10" d="M544.346,385.14  c19.379,13.768,2.542,36.799,21.75,44.25"/>
<path fill="none" stroke="#000000" stroke-width="2" stroke-linecap="square" stroke-miterlimit="10" d="M530.846,385.14  c5.613,14.584,0.176,35.313,11.25,43.5"/>
<path fill-rule="evenodd" clip-rule="evenodd" fill="#967A66" stroke="#000000" stroke-width="2" stroke-linecap="square" stroke-miterlimit="10" d="  M265.342,406.89c7.877,44.042,48.555,54.576,84,31.5C418.106,393.622,275.341,377.621,265.342,406.89z"/>
<path fill-rule="evenodd" clip-rule="evenodd" fill="#FFDB78" stroke="#000000" stroke-width="2" stroke-linecap="square" stroke-miterlimit="10" d="  M388.342,366.39c-1.608,53.139-31.506,52.023-26.25-2.25C367.245,310.926,394.636,313.412,388.342,366.39z"/>
<path fill-rule="evenodd" clip-rule="evenodd" fill="#FFDB78" stroke="#000000" stroke-width="2" stroke-linecap="square" stroke-miterlimit="10" d="  M357.592,410.64c-37.115-10.833-73.891-18.037-112.5-12C281.138,406.974,320.581,419.137,357.592,410.64z"/>
<path fill-rule="evenodd" clip-rule="evenodd" fill="#AF8977" stroke="#000000" stroke-width="2" stroke-linecap="square" stroke-miterlimit="10" d="  M391.342,411.39c-16.598-5.974-37.94,3.657-17.25,16.5C391.874,438.927,422.247,421.047,391.342,411.39z"/>
<path fill-rule="evenodd" clip-rule="evenodd" fill="#6C5635" stroke="#000000" stroke-width="2" stroke-linecap="square" stroke-miterlimit="10" d="  M398.092,431.64C414.488,431.25,416.668,425.065,398.092,431.64L398.092,431.64z"/>
<path fill="none" stroke="#000000" stroke-width="2" stroke-linecap="square" stroke-miterlimit="10" d="M315.592,451.89  c-3.315,13.594-1.695,22.215,5.722,33.056c5.09,7.439-15.086,16.904-21.472,21.694"/>
<path fill="none" stroke="#000000" stroke-width="2" stroke-linecap="square" stroke-miterlimit="10" d="M365.842,428.64  c-2.359,13.214-7.813,28.628-7.5,42c0.354,15.098,15.599,16.06,6,33"/>
<path fill-rule="evenodd" clip-rule="evenodd" fill="#6C5635" stroke="#000000" stroke-width="2" stroke-linecap="square" stroke-miterlimit="10" d="  M281.842,391.89c-21.433-6.825-50.538-17.391-72-6C231.051,395.347,259.524,399.95,281.842,391.89z"/>
<path fill="none" stroke="#000000" stroke-width="2" stroke-linecap="square" stroke-miterlimit="10" d="M384.592,430.14  c-0.942,9.652-5.809,24.821-1.596,33.714c5.305,11.199,13.765,20.659,9.096,32.286"/>
<path fill="none" stroke="#000000" stroke-width="2" stroke-linecap="square" stroke-miterlimit="10" d="M410.842,434.64  c21.2,13.478,1.453,36.371,22.504,43.5"/>
<path fill="none" stroke="#000000" stroke-width="2" stroke-linecap="square" stroke-miterlimit="10" d="M398.092,433.89  c5.093,14.859-0.733,35.819,10.5,44.25"/>
<path fill-rule="evenodd" clip-rule="evenodd" fill="#967A66" stroke="#000000" stroke-width="2" stroke-linecap="square" stroke-miterlimit="10" d="  M446.096,472.14c7.966,44.698,43.994,51.503,80.25,33.375C605.293,466.042,457.899,439.528,446.096,472.14z"/>
<path fill-rule="evenodd" clip-rule="evenodd" fill="#FFDB78" stroke="#000000" stroke-width="2" stroke-linecap="square" stroke-miterlimit="10" d="  M569.096,432.39c-6.9,52.778-31.427,51.227-27-2.25C546.54,376.456,575.237,378.504,569.096,432.39z"/>
<path fill-rule="evenodd" clip-rule="evenodd" fill="#FFDB78" stroke="#000000" stroke-width="2" stroke-linecap="square" stroke-miterlimit="10" d="  M538.346,476.64c-34.245-13.329-76.937-19.124-113.25-12.75C459.919,474.313,502.059,484.523,538.346,476.64z"/>
<path fill-rule="evenodd" clip-rule="evenodd" fill="#AF8977" stroke="#000000" stroke-width="2" stroke-linecap="square" stroke-miterlimit="10" d="  M572.096,476.64c-19.323-6.311-39.78,9.741-13.5,17.625C578.476,500.229,598.251,486.22,572.096,476.64z"/>
<path fill-rule="evenodd" clip-rule="evenodd" fill="#6C5635" stroke="#000000" stroke-width="2" stroke-linecap="square" stroke-miterlimit="10" d="  M578.096,497.64C594.936,496.486,597.1,490.708,578.096,497.64L578.096,497.64z"/>
<path fill="none" stroke="#000000" stroke-width="2" stroke-linecap="square" stroke-miterlimit="10" d="M495.596,517.89  c-4.27,13.29-1.21,22.144,6.277,32.306c5.451,7.397-14.828,16.857-21.277,21.694"/>
<path fill="none" stroke="#000000" stroke-width="2" stroke-linecap="square" stroke-miterlimit="10" d="M546.596,493.89  c-2.363,13.232-7.78,28.607-7.5,42c0.321,15.328,15.483,16.749,6,33.75"/>
<path fill-rule="evenodd" clip-rule="evenodd" fill="#6C5635" stroke="#000000" stroke-width="2" stroke-linecap="square" stroke-miterlimit="10" d="  M462.596,457.89c-22.319-7.86-50.126-17.229-72.754-6C412.984,459.489,438.747,465.865,462.596,457.89z"/>
<path fill="none" stroke="#000000" stroke-width="2" stroke-linecap="square" stroke-miterlimit="10" d="M565.346,496.14  c-0.946,9.464-5.729,24.238-1.596,32.964c5.305,11.199,13.765,20.659,9.096,32.286"/>
<path fill="none" stroke="#000000" stroke-width="2" stroke-linecap="square" stroke-miterlimit="10" d="M590.846,500.64  c20.988,13.127,2.829,35.869,22.5,43.5"/>
<path fill="none" stroke="#000000" stroke-width="2" stroke-linecap="square" stroke-miterlimit="10" d="M578.096,499.89  c5.552,14.425,0.43,34.656,10.5,43.5"/>
</svg>