<svg xmlns="http://www.w3.org/2000/svg" xmlns:xlink="http://www.w3.org/1999/xlink" version="1.1" id="Layer_1" x="0px" y="0px" enable-background="new 0 0 822.05 841.89" xml:space="preserve" viewBox="319.75 353.26 181.24 138.42">
<path fill-rule="evenodd" clip-rule="evenodd" fill="#19519D" stroke="#000000" stroke-linecap="square" stroke-miterlimit="10" d="  M433.5,369.89c-15.084-2.955-36.548-23.244-54.75-13.5c-32.726,17.52,6.632,31.261,24,25.5  C412.188,397.212,441.045,390.057,433.5,369.89z"/>
<path fill-rule="evenodd" clip-rule="evenodd" fill="#8ED4E5" stroke="#000000" stroke-linecap="square" stroke-miterlimit="10" d="  M498,455.39c-14.947-28.234,8.989-51.45-0.75-81c-13.27,6.104-27.047,30.584-30,43.875c-6.707,30.181,11.286,38.173,32.25,59.625  C501.389,470.239,500.389,462.999,498,455.39z"/>
<path fill-rule="evenodd" clip-rule="evenodd" fill="#8ED4E5" stroke="#000000" stroke-linecap="square" stroke-miterlimit="10" d="  M361.5,381.14c-19.651,2.319-33.627,28.746-39.75,47.25c18.269,3.076,19.576,11.772,2.25,19.5  c22.189,15.302,39.205,28.702,48.75-5.25C378.414,422.494,370.564,398.872,361.5,381.14z"/>
<path fill-rule="evenodd" clip-rule="evenodd" fill="#19519D" stroke="#000000" stroke-linecap="square" stroke-miterlimit="10" d="  M320.25,424.64c17.437-13.519,20.901,17.945,7.5,27.75C327.105,452.862,326.735,430.682,320.25,424.64z"/>
<path fill-rule="evenodd" clip-rule="evenodd" fill="#5DACC5" stroke="#000000" stroke-linecap="square" stroke-miterlimit="10" d="  M468,414.89c-30.381-22.17-69.39-55.738-109.5-35.25c19.21,24.479,21.252,65.741-2.25,88.5c46.083,28.4,72.868-9.795,110.25-23.25  C463.784,435.095,464.621,424.579,468,414.89z"/>
<path fill="none" stroke="#000000" stroke-linecap="square" stroke-miterlimit="10" d="M346.5,411.89  C344.853,411.89,344.853,411.89,346.5,411.89L346.5,411.89z"/>
<path fill="none" stroke="#000000" stroke-linecap="square" stroke-miterlimit="10" d="M346.5,411.89  C344.853,411.89,344.853,411.89,346.5,411.89L346.5,411.89z"/>
<path fill="none" stroke="#000000" stroke-linecap="square" stroke-miterlimit="10" d="M348,411.14  C343.136,411.14,343.136,411.14,348,411.14L348,411.14z"/>
<path fill="none" stroke="#000000" stroke-linecap="square" stroke-miterlimit="10" d="M348,411.14  C343.136,411.14,343.136,411.14,348,411.14L348,411.14z"/>
<path fill="none" stroke="#000000" stroke-linecap="square" stroke-miterlimit="10" d="M345,411.89  C346.12,411.89,346.12,411.89,345,411.89L345,411.89z"/>
<path fill="none" stroke="#000000" stroke-linecap="square" stroke-miterlimit="10" d="M348,411.14  C343.512,411.714,342.706,411.818,348,411.14L348,411.14z"/>
<path fill="none" stroke="#000000" stroke-linecap="square" stroke-miterlimit="10" d="M347.25,411.14  C343.907,411.782,343.651,411.831,347.25,411.14L347.25,411.14z"/>
<path fill="none" stroke="#000000" stroke-linecap="square" stroke-miterlimit="10" d="M347.25,411.14  C343.681,411.569,343.585,411.58,347.25,411.14L347.25,411.14z"/>
<path fill="none" stroke="#000000" stroke-linecap="square" stroke-miterlimit="10" d="M347.25,411.14  C344.194,411.357,343.989,411.372,347.25,411.14L347.25,411.14z"/>
<path fill="none" stroke="#000000" stroke-linecap="square" stroke-miterlimit="10" d="M346.5,411.89  C345.142,411.233,344.503,410.924,346.5,411.89L346.5,411.89z"/>
<path fill="none" stroke="#000000" stroke-linecap="square" stroke-miterlimit="10" d="M346.5,411.89  C344.853,411.89,344.853,411.89,346.5,411.89L346.5,411.89z"/>
<path fill="none" stroke="#000000" stroke-linecap="square" stroke-miterlimit="10" d="M346.5,411.89  C344.853,411.89,344.853,411.89,346.5,411.89L346.5,411.89z"/>
<path fill="none" stroke="#000000" stroke-linecap="square" stroke-miterlimit="10" d="M346.5,411.89  C345.38,411.89,345.38,411.89,346.5,411.89L346.5,411.89z"/>
<path fill="none" stroke="#000000" stroke-linecap="square" stroke-miterlimit="10" d="M348,411.14  C343.136,411.14,343.136,411.14,348,411.14L348,411.14z"/>
<path fill="none" stroke="#000000" stroke-linecap="square" stroke-miterlimit="10" d="M347.25,411.14  C343.562,411.14,343.562,411.14,347.25,411.14L347.25,411.14z"/>
<path fill="none" stroke="#000000" stroke-linecap="square" stroke-miterlimit="10" d="M345,411.89  C346.644,411.003,345.642,411.544,345,411.89L345,411.89z"/>
<path fill="none" stroke="#000000" stroke-linecap="square" stroke-miterlimit="10" d="M347.25,411.14  C344.216,411.537,343.376,411.646,347.25,411.14L347.25,411.14z"/>
<path fill="none" stroke="#000000" stroke-linecap="square" stroke-miterlimit="10" d="M347.25,411.14  C344.506,411.758,344.109,411.847,347.25,411.14L347.25,411.14z"/>
<path fill="none" stroke="#000000" stroke-linecap="square" stroke-miterlimit="10" d="M347.25,411.14  C344.138,411.801,344.118,411.805,347.25,411.14L347.25,411.14z"/>
<path fill="none" stroke="#000000" stroke-linecap="square" stroke-miterlimit="10" d="M346.5,411.14  C344.503,412.106,345.142,411.797,346.5,411.14L346.5,411.14z"/>
<path fill="none" stroke="#000000" stroke-linecap="square" stroke-miterlimit="10" d="M346.5,411.89  C344.712,411.341,344.983,411.425,346.5,411.89L346.5,411.89z"/>
<path fill="none" stroke="#000000" stroke-linecap="square" stroke-miterlimit="10" d="M346.5,411.89  C344.853,411.89,344.853,411.89,346.5,411.89L346.5,411.89z"/>
<path fill="none" stroke="#000000" stroke-linecap="square" stroke-miterlimit="10" d="M346.5,411.89  C345.38,411.89,345.38,411.89,346.5,411.89L346.5,411.89z"/>
<path fill="none" stroke="#000000" stroke-linecap="square" stroke-miterlimit="10" d="M346.5,411.89  C345.858,411.544,344.856,411.003,346.5,411.89L346.5,411.89z"/>
<path fill="none" stroke="#000000" stroke-linecap="square" stroke-miterlimit="10" d="M348,411.14  C344.193,411.519,343.653,411.573,348,411.14L348,411.14z"/>
<path fill="none" stroke="#000000" stroke-linecap="square" stroke-miterlimit="10" d="M347.25,411.14  C344.199,411.14,344.199,411.14,347.25,411.14L347.25,411.14z"/>
<path fill="none" stroke="#000000" stroke-linecap="square" stroke-miterlimit="10" d="M345.75,411.89  C346.75,411.89,346.75,411.89,345.75,411.89L345.75,411.89z"/>
<path fill="none" stroke="#000000" stroke-linecap="square" stroke-miterlimit="10" d="M347.25,411.14  C344.506,411.758,344.109,411.847,347.25,411.14L347.25,411.14z"/>
<path fill="none" stroke="#000000" stroke-linecap="square" stroke-miterlimit="10" d="M347.25,411.89  C344.638,411.29,344.215,411.192,347.25,411.89L347.25,411.89z"/>
<path fill="none" stroke="#000000" stroke-linecap="square" stroke-miterlimit="10" d="M347.25,411.89  C344.413,411.674,344.436,411.676,347.25,411.89L347.25,411.89z"/>
<path fill="none" stroke="#000000" stroke-linecap="square" stroke-miterlimit="10" d="M346.5,411.89  C344.712,411.341,344.983,411.425,346.5,411.89L346.5,411.89z"/>
<path fill="none" stroke="#000000" stroke-linecap="square" stroke-miterlimit="10" d="M346.5,411.89  C344.853,411.89,344.853,411.89,346.5,411.89L346.5,411.89z"/>
<path fill="none" stroke="#000000" stroke-linecap="square" stroke-miterlimit="10" d="M346.5,411.89  C344.853,411.89,344.853,411.89,346.5,411.89L346.5,411.89z"/>
<path fill="none" stroke="#000000" stroke-linecap="square" stroke-miterlimit="10" d="M346.5,411.89  C345.5,411.89,345.5,411.89,346.5,411.89L346.5,411.89z"/>
<path fill="none" stroke="#000000" stroke-linecap="square" stroke-miterlimit="10" d="M346.5,411.89  C345.5,411.89,345.5,411.89,346.5,411.89L346.5,411.89z"/>
<path fill="none" stroke="#000000" stroke-linecap="square" stroke-miterlimit="10" d="M347.25,411.89  C344.791,411.142,345.428,411.335,347.25,411.89L347.25,411.89z"/>
<path fill="none" stroke="#000000" stroke-linecap="square" stroke-miterlimit="10" d="M347.25,411.14  C344.572,411.729,345.006,411.634,347.25,411.14L347.25,411.14z"/>
<path fill="none" stroke="#000000" stroke-linecap="square" stroke-miterlimit="10" d="M345.75,411.89  C346.75,411.89,346.75,411.89,345.75,411.89L345.75,411.89z"/>
<path fill="none" stroke="#000000" stroke-linecap="square" stroke-miterlimit="10" d="M347.25,411.89  C345.189,411.588,344.618,411.505,347.25,411.89L347.25,411.89z"/>
<path fill="none" stroke="#000000" stroke-linecap="square" stroke-miterlimit="10" d="M347.25,411.89  C345.603,411.89,345.603,411.89,347.25,411.89L347.25,411.89z"/>
<path fill="none" stroke="#000000" stroke-linecap="square" stroke-miterlimit="10" d="M346.5,411.89  C345.896,411.287,345.896,411.287,346.5,411.89L346.5,411.89z"/>
<path fill="none" stroke="#000000" stroke-linecap="square" stroke-miterlimit="10" d="M346.5,411.89  C345.896,411.287,345.896,411.287,346.5,411.89L346.5,411.89z"/>
<path fill="none" stroke="#000000" stroke-linecap="square" stroke-miterlimit="10" d="M346.5,411.89  C345.896,411.287,345.896,411.287,346.5,411.89L346.5,411.89z"/>
<path fill="none" stroke="#000000" stroke-linecap="square" stroke-miterlimit="10" d="M346.5,411.89  C345.896,411.287,345.896,411.287,346.5,411.89L346.5,411.89z"/>
<path fill="none" stroke="#000000" stroke-linecap="square" stroke-miterlimit="10" d="M346.5,411.89  C343.335,411.89,343.335,411.89,346.5,411.89L346.5,411.89z"/>
<path fill="none" stroke="#000000" stroke-linecap="square" stroke-miterlimit="10" d="M346.5,411.89  C344.459,411.89,344.459,411.89,346.5,411.89L346.5,411.89z"/>
<path fill="none" stroke="#000000" stroke-linecap="square" stroke-miterlimit="10" d="M349.5,410.39  C340.056,410.724,339.414,410.747,349.5,410.39L349.5,410.39z"/>
<path fill="none" stroke="#000000" stroke-linecap="square" stroke-miterlimit="10" d="M348.75,410.39  C340.321,409.991,340.152,409.982,348.75,410.39L348.75,410.39z"/>
<path fill="none" stroke="#000000" stroke-linecap="square" stroke-miterlimit="10" d="M344.25,411.89  C345.523,411.89,345.523,411.89,344.25,411.89L344.25,411.89z"/>
<path fill="none" stroke="#000000" stroke-linecap="square" stroke-miterlimit="10" d="M348.75,411.14  C340.82,410.869,340.695,410.865,348.75,411.14L348.75,411.14z"/>
<path fill="none" stroke="#000000" stroke-linecap="square" stroke-miterlimit="10" d="M348,411.14  C341.383,411.14,341.383,411.14,348,411.14L348,411.14z"/>
<path fill="none" stroke="#000000" stroke-linecap="square" stroke-miterlimit="10" d="M348,411.14  c-2.189-0.141-1.127,5.303-5.25,1.5c-1.03-1.177-1.03-2.427,0-3.75C347.078,406.632,346.291,411.03,348,411.14z"/>
<path fill="none" stroke="#000000" stroke-linecap="square" stroke-miterlimit="10" d="M347.25,411.14  C342.386,411.14,342.386,411.14,347.25,411.14L347.25,411.14z"/>
<path fill="none" stroke="#000000" stroke-linecap="square" stroke-miterlimit="10" d="M347.25,411.14  C342.932,411.723,342.406,411.794,347.25,411.14L347.25,411.14z"/>
<path fill="none" stroke="#000000" stroke-linecap="square" stroke-miterlimit="10" d="M346.5,411.89  C343.335,411.89,343.335,411.89,346.5,411.89L346.5,411.89z"/>
<path fill="none" stroke="#000000" stroke-linecap="square" stroke-miterlimit="10" d="M346.5,411.89  C343.711,411.89,343.711,411.89,346.5,411.89L346.5,411.89z"/>
<path fill="none" stroke="#000000" stroke-linecap="square" stroke-miterlimit="10" d="M346.5,411.89  C344.8,411.89,344.8,411.89,346.5,411.89L346.5,411.89z"/>
<path fill="none" stroke="#000000" stroke-linecap="square" stroke-miterlimit="10" d="M349.5,411.14  C340.105,410.431,340.451,410.457,349.5,411.14L349.5,411.14z"/>
<path fill="none" stroke="#000000" stroke-linecap="square" stroke-miterlimit="10" d="M348.75,410.39  C340.686,410.55,340.851,410.547,348.75,410.39L348.75,410.39z"/>
<path fill="none" stroke="#000000" stroke-linecap="square" stroke-miterlimit="10" d="M344.25,411.89  C345.897,411.89,345.897,411.89,344.25,411.89L344.25,411.89z"/>
<path fill="none" stroke="#000000" stroke-linecap="square" stroke-miterlimit="10" d="M348,411.14  c-0.776-0.047-1.868,3.655-5.25,2.25C342.958,404.727,345.273,410.976,348,411.14z"/>
<path fill="none" stroke="#000000" stroke-linecap="square" stroke-miterlimit="10" d="M348,411.14c-2.279,0.257-2.658,6.13-5.25,0  C345.24,406.739,346.166,411.347,348,411.14z"/>
<path fill="none" stroke="#000000" stroke-linecap="square" stroke-miterlimit="10" d="M348,411.14c-2.036,0-2.787,4.353-5.25,0  C345.213,406.787,345.964,411.14,348,411.14z"/>
<path fill="none" stroke="#000000" stroke-linecap="square" stroke-miterlimit="10" d="M347.25,411.14  C343.207,411.14,343.207,411.14,347.25,411.14L347.25,411.14z"/>
<path fill="none" stroke="#000000" stroke-linecap="square" stroke-miterlimit="10" d="M347.25,411.14  C343.443,411.519,342.903,411.573,347.25,411.14L347.25,411.14z"/>
<path fill="none" stroke="#000000" stroke-linecap="square" stroke-miterlimit="10" d="M346.5,411.89  C343.663,411.674,343.686,411.676,346.5,411.89L346.5,411.89z"/>
<path fill="none" stroke="#000000" stroke-linecap="square" stroke-miterlimit="10" d="M346.5,411.89  C344.459,411.89,344.459,411.89,346.5,411.89L346.5,411.89z"/>
<path fill="none" stroke="#000000" stroke-linecap="square" stroke-miterlimit="10" d="M346.5,411.89  C344.853,411.89,344.853,411.89,346.5,411.89L346.5,411.89z"/>
<path fill="none" stroke="#000000" stroke-linecap="square" stroke-miterlimit="10" d="M348.75,411.14  c-2.355-0.122-2.87,5.358-6.75,0C345.901,405.168,346.375,411.017,348.75,411.14z"/>
<path fill="none" stroke="#000000" stroke-linecap="square" stroke-miterlimit="10" d="M348,411.14c-1.834-0.207-2.76,4.401-5.25,0  C345.342,405.01,345.721,410.883,348,411.14z"/>
<path fill="none" stroke="#000000" stroke-linecap="square" stroke-miterlimit="10" d="M345,411.89  C345.537,411.89,345.537,411.89,345,411.89L345,411.89z"/>
<path fill="none" stroke="#000000" stroke-linecap="square" stroke-miterlimit="10" d="M348,411.14c-1.965,0-2.418,4.534-5.25,0  C345.582,406.606,346.035,411.14,348,411.14z"/>
<path fill="none" stroke="#000000" stroke-linecap="square" stroke-miterlimit="10" d="M348,411.14c-1.833,0-2.68,4.864-4.5,0  C345.32,406.276,346.167,411.14,348,411.14z"/>
<path fill="none" stroke="#000000" stroke-linecap="square" stroke-miterlimit="10" d="M347.25,411.14  C343.368,411.359,343.729,411.338,347.25,411.14L347.25,411.14z"/>
<path fill="none" stroke="#000000" stroke-linecap="square" stroke-miterlimit="10" d="M347.25,411.14  C343.681,411.569,343.585,411.58,347.25,411.14L347.25,411.14z"/>
<path fill="none" stroke="#000000" stroke-linecap="square" stroke-miterlimit="10" d="M346.5,411.14  C343.93,411.875,344.107,411.825,346.5,411.14L346.5,411.14z"/>
<path fill="none" stroke="#000000" stroke-linecap="square" stroke-miterlimit="10" d="M346.5,411.89  C344.459,411.89,344.459,411.89,346.5,411.89L346.5,411.89z"/>
<path fill="none" stroke="#000000" stroke-linecap="square" stroke-miterlimit="10" d="M346.5,411.89  C344.853,411.89,344.853,411.89,346.5,411.89L346.5,411.89z"/>
<path fill="none" stroke="#000000" stroke-linecap="square" stroke-miterlimit="10" d="M346.5,411.89  C345.858,411.544,344.856,411.003,346.5,411.89L346.5,411.89z"/>
<path fill="none" stroke="#000000" stroke-linecap="square" stroke-miterlimit="10" d="M348,411.14  C343.682,411.723,343.156,411.794,348,411.14L348,411.14z"/>
<path fill="none" stroke="#000000" stroke-linecap="square" stroke-miterlimit="10" d="M347.25,411.14  C344.216,411.537,343.376,411.646,347.25,411.14L347.25,411.14z"/>
<path fill="none" stroke="#000000" stroke-linecap="square" stroke-miterlimit="10" d="M345.75,411.89L345.75,411.89z"/>
<path fill="none" stroke="#000000" stroke-linecap="square" stroke-miterlimit="10" d="M347.25,411.14  C344.506,411.758,344.109,411.847,347.25,411.14L347.25,411.14z"/>
<path fill="none" stroke="#000000" stroke-linecap="square" stroke-miterlimit="10" d="M347.25,411.89  C344.118,411.225,344.138,411.229,347.25,411.89L347.25,411.89z"/>
<path fill="none" stroke="#000000" stroke-linecap="square" stroke-miterlimit="10" d="M347.25,411.89  C344.638,411.29,344.215,411.192,347.25,411.89L347.25,411.89z"/>
<path fill="none" stroke="#000000" stroke-linecap="square" stroke-miterlimit="10" d="M346.5,411.89  C345.142,411.233,344.503,410.924,346.5,411.89L346.5,411.89z"/>
<path fill="none" stroke="#000000" stroke-linecap="square" stroke-miterlimit="10" d="M346.5,411.89  C344.853,411.89,344.853,411.89,346.5,411.89L346.5,411.89z"/>
<path fill="none" stroke="#000000" stroke-linecap="square" stroke-miterlimit="10" d="M346.5,411.89  C344.853,411.89,344.853,411.89,346.5,411.89L346.5,411.89z"/>
<path fill="none" stroke="#000000" stroke-linecap="square" stroke-miterlimit="10" d="M346.5,411.89  C343.711,411.89,343.711,411.89,346.5,411.89L346.5,411.89z"/>
<path fill="none" stroke="#000000" stroke-linecap="square" stroke-miterlimit="10" d="M346.5,411.89  C344.8,411.89,344.8,411.89,346.5,411.89L346.5,411.89z"/>
<path fill="none" stroke="#000000" stroke-linecap="square" stroke-miterlimit="10" d="M348.75,411.14  C341.243,410.397,341.327,410.406,348.75,411.14L348.75,411.14z"/>
<path fill="none" stroke="#000000" stroke-linecap="square" stroke-miterlimit="10" d="M348,410.39  C341.322,410.779,341.369,410.776,348,410.39L348,410.39z"/>
<path fill="none" stroke="#000000" stroke-linecap="square" stroke-miterlimit="10" d="M344.25,411.89  C345.897,411.89,345.897,411.89,344.25,411.89L344.25,411.89z"/>
<path fill="none" stroke="#000000" stroke-linecap="square" stroke-miterlimit="10" d="M348,411.14c-1.834-0.207-2.76,4.401-5.25,0  C345.342,405.01,345.721,410.883,348,411.14z"/>
<path fill="none" stroke="#000000" stroke-linecap="square" stroke-miterlimit="10" d="M348,411.14c-2.036,0-2.787,4.353-5.25,0  C345.213,406.787,345.964,411.14,348,411.14z"/>
<path fill="none" stroke="#000000" stroke-linecap="square" stroke-miterlimit="10" d="M348,411.14c-2.036,0-2.787,4.353-5.25,0  C345.213,406.787,345.964,411.14,348,411.14z"/>
<path fill="none" stroke="#000000" stroke-linecap="square" stroke-miterlimit="10" d="M347.25,411.14  C343.443,411.519,342.903,411.573,347.25,411.14L347.25,411.14z"/>
<path fill="none" stroke="#000000" stroke-linecap="square" stroke-miterlimit="10" d="M346.5,411.14  C343.756,411.758,343.359,411.847,346.5,411.14L346.5,411.14z"/>
<path fill="none" stroke="#000000" stroke-linecap="square" stroke-miterlimit="10" d="M346.5,411.89  C343.867,411.688,343.695,411.674,346.5,411.89L346.5,411.89z"/>
<path fill="none" stroke="#000000" stroke-linecap="square" stroke-miterlimit="10" d="M346.5,411.89  C344.459,411.89,344.459,411.89,346.5,411.89L346.5,411.89z"/>
<path fill="none" stroke="#000000" stroke-linecap="square" stroke-miterlimit="10" d="M346.5,411.89  C344.853,411.89,344.853,411.89,346.5,411.89L346.5,411.89z"/>
<path fill="none" stroke="#000000" stroke-linecap="square" stroke-miterlimit="10" d="M348.75,411.14  c-2.355-0.122-2.87,5.358-6.75,0C345.901,405.168,346.375,411.017,348.75,411.14z"/>
<path fill="none" stroke="#000000" stroke-linecap="square" stroke-miterlimit="10" d="M348,411.14c-1.834-0.207-2.76,4.401-5.25,0  C345.342,405.01,345.721,410.883,348,411.14z"/>
<path fill="none" stroke="#000000" stroke-linecap="square" stroke-miterlimit="10" d="M345,411.89  C345.537,411.89,345.537,411.89,345,411.89L345,411.89z"/>
<path fill="none" stroke="#000000" stroke-linecap="square" stroke-miterlimit="10" d="M348,411.14c-1.965,0-2.418,4.534-5.25,0  C345.582,406.606,346.035,411.14,348,411.14z"/>
<path fill="none" stroke="#000000" stroke-linecap="square" stroke-miterlimit="10" d="M348,411.14c-1.833,0-2.68,4.864-4.5,0  C345.32,406.276,346.167,411.14,348,411.14z"/>
<path fill="none" stroke="#000000" stroke-linecap="square" stroke-miterlimit="10" d="M347.25,411.14  C343.368,411.359,343.729,411.338,347.25,411.14L347.25,411.14z"/>
<path fill="none" stroke="#000000" stroke-linecap="square" stroke-miterlimit="10" d="M347.25,411.14  C343.681,411.569,343.585,411.58,347.25,411.14L347.25,411.14z"/>
<path fill="none" stroke="#000000" stroke-linecap="square" stroke-miterlimit="10" d="M346.5,411.14  C343.93,411.875,344.107,411.825,346.5,411.14L346.5,411.14z"/>
<path fill="none" stroke="#000000" stroke-linecap="square" stroke-miterlimit="10" d="M346.5,411.89  C344.459,411.89,344.459,411.89,346.5,411.89L346.5,411.89z"/>
<path fill="none" stroke="#000000" stroke-linecap="square" stroke-miterlimit="10" d="M346.5,411.89  C344.853,411.89,344.853,411.89,346.5,411.89L346.5,411.89z"/>
<path fill="none" stroke="#000000" stroke-linecap="square" stroke-miterlimit="10" d="M346.5,411.89  C344.853,411.89,344.853,411.89,346.5,411.89L346.5,411.89z"/>
<path fill="none" stroke="#000000" stroke-linecap="square" stroke-miterlimit="10" d="M348,411.14c-1.965,0-2.418,4.534-5.25,0  C345.582,406.606,346.035,411.14,348,411.14z"/>
<path fill="none" stroke="#000000" stroke-linecap="square" stroke-miterlimit="10" d="M348,411.14c-1.833,0-2.68,4.864-4.5,0  C345.32,406.276,346.167,411.14,348,411.14z"/>
<path fill="none" stroke="#000000" stroke-linecap="square" stroke-miterlimit="10" d="M345,411.89  C346.12,411.89,346.12,411.89,345,411.89L345,411.89z"/>
<path fill="none" stroke="#000000" stroke-linecap="square" stroke-miterlimit="10" d="M348,411.14  C343.066,411.348,343.218,411.342,348,411.14L348,411.14z"/>
<path fill="none" stroke="#000000" stroke-linecap="square" stroke-miterlimit="10" d="M347.25,411.14  C343.8,411.756,343.15,411.873,347.25,411.14L347.25,411.14z"/>
<path fill="none" stroke="#000000" stroke-linecap="square" stroke-miterlimit="10" d="M347.25,411.14  C343.681,411.569,343.585,411.58,347.25,411.14L347.25,411.14z"/>
<path fill="none" stroke="#000000" stroke-linecap="square" stroke-miterlimit="10" d="M347.25,411.14  C344.194,411.357,343.989,411.372,347.25,411.14L347.25,411.14z"/>
<path fill="none" stroke="#000000" stroke-linecap="square" stroke-miterlimit="10" d="M346.5,411.89  C344.521,411.657,344.369,411.639,346.5,411.89L346.5,411.89z"/>
<path fill="none" stroke="#000000" stroke-linecap="square" stroke-miterlimit="10" d="M346.5,411.89  C344.8,411.89,344.8,411.89,346.5,411.89L346.5,411.89z"/>
<path fill="none" stroke="#000000" stroke-linecap="square" stroke-miterlimit="10" d="M346.5,411.89  C345.858,411.544,344.856,411.003,346.5,411.89L346.5,411.89z"/>
<path fill="none" stroke="#000000" stroke-linecap="square" stroke-miterlimit="10" d="M346.5,411.89  C345.858,411.544,344.856,411.003,346.5,411.89L346.5,411.89z"/>
<path fill="none" stroke="#000000" stroke-linecap="square" stroke-miterlimit="10" d="M347.25,411.14  C344.452,411.564,344.129,411.613,347.25,411.14L347.25,411.14z"/>
<path fill="none" stroke="#000000" stroke-linecap="square" stroke-miterlimit="10" d="M347.25,411.14  C344.194,411.357,343.989,411.372,347.25,411.14L347.25,411.14z"/>
<path fill="none" stroke="#000000" stroke-linecap="square" stroke-miterlimit="10" d="M345.75,411.89  C346.75,411.89,346.75,411.89,345.75,411.89L345.75,411.89z"/>
<path fill="none" stroke="#000000" stroke-linecap="square" stroke-miterlimit="10" d="M347.25,411.14  C344.215,411.838,344.638,411.741,347.25,411.14L347.25,411.14z"/>
<path fill="none" stroke="#000000" stroke-linecap="square" stroke-miterlimit="10" d="M347.25,411.89  C344.413,411.674,344.436,411.676,347.25,411.89L347.25,411.89z"/>
<path fill="none" stroke="#000000" stroke-linecap="square" stroke-miterlimit="10" d="M347.25,411.89  C344.764,411.286,344.299,411.173,347.25,411.89L347.25,411.89z"/>
<path fill="none" stroke="#000000" stroke-linecap="square" stroke-miterlimit="10" d="M346.5,411.89  C344.642,411.441,345.057,411.542,346.5,411.89L346.5,411.89z"/>
<path fill="none" stroke="#000000" stroke-linecap="square" stroke-miterlimit="10" d="M346.5,411.89  C344.642,411.441,345.057,411.542,346.5,411.89L346.5,411.89z"/>
<path fill="none" stroke="#000000" stroke-linecap="square" stroke-miterlimit="10" d="M346.5,411.89  C345.858,411.544,344.856,411.003,346.5,411.89L346.5,411.89z"/>
<path fill="none" stroke="#000000" stroke-linecap="square" stroke-miterlimit="10" d="M346.5,411.89  C344.853,411.89,344.853,411.89,346.5,411.89L346.5,411.89z"/>
<path fill="none" stroke="#000000" stroke-linecap="square" stroke-miterlimit="10" d="M346.5,411.89  C345.38,411.89,345.38,411.89,346.5,411.89L346.5,411.89z"/>
<path fill="none" stroke="#000000" stroke-linecap="square" stroke-miterlimit="10" d="M348,411.14  C343.136,411.14,343.136,411.14,348,411.14L348,411.14z"/>
<path fill="none" stroke="#000000" stroke-linecap="square" stroke-miterlimit="10" d="M347.25,411.14  C343.729,410.942,343.368,410.921,347.25,411.14L347.25,411.14z"/>
<path fill="none" stroke="#000000" stroke-linecap="square" stroke-miterlimit="10" d="M345,411.89  C346.12,411.89,346.12,411.89,345,411.89L345,411.89z"/>
<path fill="none" stroke="#000000" stroke-linecap="square" stroke-miterlimit="10" d="M347.25,411.14  C344.216,411.537,343.376,411.646,347.25,411.14L347.25,411.14z"/>
<path fill="none" stroke="#000000" stroke-linecap="square" stroke-miterlimit="10" d="M347.25,411.14  C344.216,411.537,343.376,411.646,347.25,411.14L347.25,411.14z"/>
<path fill="none" stroke="#000000" stroke-linecap="square" stroke-miterlimit="10" d="M347.25,411.14  C344.138,411.801,344.118,411.805,347.25,411.14L347.25,411.14z"/>
<path fill="none" stroke="#000000" stroke-linecap="square" stroke-miterlimit="10" d="M346.5,411.14  C344.552,411.402,344.98,411.345,346.5,411.14L346.5,411.14z"/>
<path fill="none" stroke="#000000" stroke-linecap="square" stroke-miterlimit="10" d="M346.5,411.89  C345.142,411.233,344.503,410.924,346.5,411.89L346.5,411.89z"/>
<path fill="none" stroke="#000000" stroke-linecap="square" stroke-miterlimit="10" d="M346.5,411.89  C344.853,411.89,344.853,411.89,346.5,411.89L346.5,411.89z"/>
<path fill="none" stroke="#000000" stroke-linecap="square" stroke-miterlimit="10" d="M346.5,411.89  C344.853,411.89,344.853,411.89,346.5,411.89L346.5,411.89z"/>
<path fill="none" stroke="#000000" stroke-linecap="square" stroke-miterlimit="10" d="M346.5,411.89  C345.858,411.544,344.856,411.003,346.5,411.89L346.5,411.89z"/>
<path fill="none" stroke="#000000" stroke-linecap="square" stroke-miterlimit="10" d="M348,411.14  C343.066,411.348,343.218,411.342,348,411.14L348,411.14z"/>
<path fill="none" stroke="#000000" stroke-linecap="square" stroke-miterlimit="10" d="M347.25,411.14  C343.851,411.14,343.851,411.14,347.25,411.14L347.25,411.14z"/>
<path fill="none" stroke="#000000" stroke-linecap="square" stroke-miterlimit="10" d="M345,411.89  C346,411.89,346,411.89,345,411.89L345,411.89z"/>
<path fill="none" stroke="#000000" stroke-linecap="square" stroke-miterlimit="10" d="M347.25,411.14  C344.452,411.564,344.129,411.613,347.25,411.14L347.25,411.14z"/>
<path fill="none" stroke="#000000" stroke-linecap="square" stroke-miterlimit="10" d="M347.25,411.14  C344.506,411.758,344.109,411.847,347.25,411.14L347.25,411.14z"/>
<path fill="none" stroke="#000000" stroke-linecap="square" stroke-miterlimit="10" d="M347.25,411.14  C344.138,411.801,344.118,411.805,347.25,411.14L347.25,411.14z"/>
<path fill="none" stroke="#000000" stroke-linecap="square" stroke-miterlimit="10" d="M346.5,411.14  C344.503,412.106,345.142,411.797,346.5,411.14L346.5,411.14z"/>
<path fill="none" stroke="#000000" stroke-linecap="square" stroke-miterlimit="10" d="M346.5,411.89  C344.712,411.341,344.983,411.425,346.5,411.89L346.5,411.89z"/>
<path fill="none" stroke="#000000" stroke-linecap="square" stroke-miterlimit="10" d="M346.5,411.89  C344.853,411.89,344.853,411.89,346.5,411.89L346.5,411.89z"/>
<path fill="none" stroke="#000000" stroke-linecap="square" stroke-miterlimit="10" d="M346.5,411.89  C345.38,411.89,345.38,411.89,346.5,411.89L346.5,411.89z"/>
<path fill="none" stroke="#000000" stroke-linecap="square" stroke-miterlimit="10" d="M346.5,411.89  C345.858,411.544,344.856,411.003,346.5,411.89L346.5,411.89z"/>
<path fill="none" stroke="#000000" stroke-linecap="square" stroke-miterlimit="10" d="M347.25,411.14  C344.452,411.564,344.129,411.613,347.25,411.14L347.25,411.14z"/>
<path fill="none" stroke="#000000" stroke-linecap="square" stroke-miterlimit="10" d="M347.25,411.14  C344.085,411.14,344.085,411.14,347.25,411.14L347.25,411.14z"/>
<path fill="none" stroke="#000000" stroke-linecap="square" stroke-miterlimit="10" d="M345.75,411.89  C346.75,411.89,346.75,411.89,345.75,411.89L345.75,411.89z"/>
<path fill="none" stroke="#000000" stroke-linecap="square" stroke-miterlimit="10" d="M347.25,411.14  C344.215,411.838,344.638,411.741,347.25,411.14L347.25,411.14z"/>
<path fill="none" stroke="#000000" stroke-linecap="square" stroke-miterlimit="10" d="M347.25,411.89  C344.413,411.674,344.436,411.676,347.25,411.89L347.25,411.89z"/>
<path fill="none" stroke="#000000" stroke-linecap="square" stroke-miterlimit="10" d="M347.25,411.89  C344.764,411.286,344.299,411.173,347.25,411.89L347.25,411.89z"/>
<path fill="none" stroke="#000000" stroke-linecap="square" stroke-miterlimit="10" d="M346.5,411.89  C344.853,411.89,344.853,411.89,346.5,411.89L346.5,411.89z"/>
<path fill="none" stroke="#000000" stroke-linecap="square" stroke-miterlimit="10" d="M346.5,411.89  C344.853,411.89,344.853,411.89,346.5,411.89L346.5,411.89z"/>
<path fill="none" stroke="#000000" stroke-linecap="square" stroke-miterlimit="10" d="M346.5,411.89  C345.38,411.89,345.38,411.89,346.5,411.89L346.5,411.89z"/>
<path fill="none" stroke="#000000" stroke-linecap="square" stroke-miterlimit="10" d="M346.5,411.89  C345.5,411.89,345.5,411.89,346.5,411.89L346.5,411.89z"/>
<path fill="none" stroke="#000000" stroke-linecap="square" stroke-miterlimit="10" d="M346.5,411.89  C345.5,411.89,345.5,411.89,346.5,411.89L346.5,411.89z"/>
<path fill="none" stroke="#000000" stroke-linecap="square" stroke-miterlimit="10" d="M347.25,411.89  C345.347,411.404,344.777,411.258,347.25,411.89L347.25,411.89z"/>
<path fill="none" stroke="#000000" stroke-linecap="square" stroke-miterlimit="10" d="M347.25,411.14  C344.572,411.729,345.006,411.634,347.25,411.14L347.25,411.14z"/>
<path fill="none" stroke="#000000" stroke-linecap="square" stroke-miterlimit="10" d="M345.75,411.89  C346.75,411.89,346.75,411.89,345.75,411.89L345.75,411.89z"/>
<path fill="none" stroke="#000000" stroke-linecap="square" stroke-miterlimit="10" d="M347.25,411.89  C345.603,411.89,345.603,411.89,347.25,411.89L347.25,411.89z"/>
<path fill="none" stroke="#000000" stroke-linecap="square" stroke-miterlimit="10" d="M346.5,411.89  C345.963,411.89,345.963,411.89,346.5,411.89L346.5,411.89z"/>
<path fill="none" stroke="#000000" stroke-linecap="square" stroke-miterlimit="10" d="M346.5,411.89  C345.896,411.287,345.896,411.287,346.5,411.89L346.5,411.89z"/>
<path fill="none" stroke="#000000" stroke-linecap="square" stroke-miterlimit="10" d="M346.5,411.89  C345.896,411.287,345.896,411.287,346.5,411.89L346.5,411.89z"/>
<path fill="none" stroke="#000000" stroke-linecap="square" stroke-miterlimit="10" d="M346.5,411.89  C345.896,411.287,345.896,411.287,346.5,411.89L346.5,411.89z"/>
<path fill="none" stroke="#000000" stroke-linecap="square" stroke-miterlimit="10" d="M346.5,411.89  C345.5,411.89,345.5,411.89,346.5,411.89L346.5,411.89z"/>
<path fill="none" stroke="#000000" stroke-linecap="square" stroke-miterlimit="10" d="M346.5,411.89  C343.335,411.89,343.335,411.89,346.5,411.89L346.5,411.89z"/>
<path fill="none" stroke="#000000" stroke-linecap="square" stroke-miterlimit="10" d="M346.5,411.89  C344.119,411.89,344.119,411.89,346.5,411.89L346.5,411.89z"/>
<path fill="none" stroke="#000000" stroke-linecap="square" stroke-miterlimit="10" d="M349.5,410.39  C339.971,410.712,339.722,410.72,349.5,410.39L349.5,410.39z"/>
<path fill="none" stroke="#000000" stroke-linecap="square" stroke-miterlimit="10" d="M348.75,410.39  C340.227,410.39,340.227,410.39,348.75,410.39L348.75,410.39z"/>
<path fill="none" stroke="#000000" stroke-linecap="square" stroke-miterlimit="10" d="M344.25,411.89  C345.523,411.89,345.523,411.89,344.25,411.89L344.25,411.89z"/>
<path fill="none" stroke="#000000" stroke-linecap="square" stroke-miterlimit="10" d="M348,411.14  C341.296,410.949,341.4,410.952,348,411.14L348,411.14z"/>
<path fill="none" stroke="#000000" stroke-linecap="square" stroke-miterlimit="10" d="M348,411.14  C341.31,411.14,341.31,411.14,348,411.14L348,411.14z"/>
<path fill="none" stroke="#000000" stroke-linecap="square" stroke-miterlimit="10" d="M348,411.14c-2.191,0-3.091,4.393-6,0  C344.909,406.747,345.809,411.14,348,411.14z"/>
<path fill="none" stroke="#000000" stroke-linecap="square" stroke-miterlimit="10" d="M347.25,411.14  C342.386,411.14,342.386,411.14,347.25,411.14L347.25,411.14z"/>
<path fill="none" stroke="#000000" stroke-linecap="square" stroke-miterlimit="10" d="M346.5,411.14  C343.157,411.782,342.901,411.831,346.5,411.14L346.5,411.14z"/>
<path fill="none" stroke="#000000" stroke-linecap="square" stroke-miterlimit="10" d="M346.5,411.89  C343.335,411.89,343.335,411.89,346.5,411.89L346.5,411.89z"/>
<path fill="none" stroke="#000000" stroke-linecap="square" stroke-miterlimit="10" d="M346.5,411.89  C343.711,411.89,343.711,411.89,346.5,411.89L346.5,411.89z"/>
<path fill="none" stroke="#000000" stroke-linecap="square" stroke-miterlimit="10" d="M346.5,411.89  C344.119,411.89,344.119,411.89,346.5,411.89L346.5,411.89z"/>
<path fill="none" stroke="#000000" stroke-linecap="square" stroke-miterlimit="10" d="M348.75,411.14  C340.809,410.395,341.066,410.419,348.75,411.14L348.75,411.14z"/>
<path fill="none" stroke="#000000" stroke-linecap="square" stroke-miterlimit="10" d="M348,410.39  C341.206,410.58,341.096,410.583,348,410.39L348,410.39z"/>
<path fill="none" stroke="#000000" stroke-linecap="square" stroke-miterlimit="10" d="M344.25,411.89  C345.897,411.89,345.897,411.89,344.25,411.89L344.25,411.89z"/>
<path fill="none" stroke="#000000" stroke-linecap="square" stroke-miterlimit="10" d="M348,411.14c-1.315-0.144-3.042,3.481-6,0  C345.359,405.969,346.221,410.945,348,411.14z"/>
<path fill="none" stroke="#000000" stroke-linecap="square" stroke-miterlimit="10" d="M348,411.14c-2.036,0-2.787,4.353-5.25,0  C345.213,406.787,345.964,411.14,348,411.14z"/>
<path fill="none" stroke="#000000" stroke-linecap="square" stroke-miterlimit="10" d="M347.25,411.14  C342.386,411.14,342.386,411.14,347.25,411.14L347.25,411.14z"/>
<path fill="none" stroke="#000000" stroke-linecap="square" stroke-miterlimit="10" d="M347.25,411.14  C343.443,411.519,342.903,411.573,347.25,411.14L347.25,411.14z"/>
<path fill="none" stroke="#000000" stroke-linecap="square" stroke-miterlimit="10" d="M346.5,411.14  C343.702,411.564,343.379,411.613,346.5,411.14L346.5,411.14z"/>
<path fill="none" stroke="#000000" stroke-linecap="square" stroke-miterlimit="10" d="M346.5,411.89  C343.663,411.674,343.686,411.676,346.5,411.89L346.5,411.89z"/>
<path fill="none" stroke="#000000" stroke-linecap="square" stroke-miterlimit="10" d="M346.5,411.89  C344.119,411.89,344.119,411.89,346.5,411.89L346.5,411.89z"/>
<path fill="none" stroke="#000000" stroke-linecap="square" stroke-miterlimit="10" d="M346.5,411.89  C344.853,411.89,344.853,411.89,346.5,411.89L346.5,411.89z"/>
<path fill="none" stroke="#000000" stroke-linecap="square" stroke-miterlimit="10" d="M348.75,411.14  c-2.895-0.242-3.09,5.215-6.75,0C345.605,404.896,345.736,410.889,348.75,411.14z"/>
<path fill="none" stroke="#000000" stroke-linecap="square" stroke-miterlimit="10" d="M348,411.14c-1.834-0.207-2.76,4.401-5.25,0  C345.342,405.01,345.721,410.883,348,411.14z"/>
<path fill="none" stroke="#000000" stroke-linecap="square" stroke-miterlimit="10" d="M344.25,411.89  C345.897,411.89,345.897,411.89,344.25,411.89L344.25,411.89z"/>
<path fill="none" stroke="#000000" stroke-linecap="square" stroke-miterlimit="10" d="M348,411.14c-1.965,0-2.418,4.534-5.25,0  C345.582,406.606,346.035,411.14,348,411.14z"/>
<path fill="none" stroke="#000000" stroke-linecap="square" stroke-miterlimit="10" d="M347.25,411.14  c-0.985,0.046-1.643,4.582-3.75,0C345.456,407.621,346.508,411.174,347.25,411.14z"/>
<path fill="none" stroke="#000000" stroke-linecap="square" stroke-miterlimit="10" d="M347.25,411.14  C343.388,411.792,343.231,411.819,347.25,411.14L347.25,411.14z"/>
<path fill="none" stroke="#000000" stroke-linecap="square" stroke-miterlimit="10" d="M346.5,411.14  C343.844,411.665,344.212,411.592,346.5,411.14L346.5,411.14z"/>
<path fill="none" stroke="#000000" stroke-linecap="square" stroke-miterlimit="10" d="M346.5,411.14  C343.93,411.875,344.107,411.825,346.5,411.14L346.5,411.14z"/>
<path fill="none" stroke="#000000" stroke-linecap="square" stroke-miterlimit="10" d="M346.5,411.89  C344.119,411.89,344.119,411.89,346.5,411.89L346.5,411.89z"/>
<path fill="none" stroke="#000000" stroke-linecap="square" stroke-miterlimit="10" d="M346.5,411.89  C344.853,411.89,344.853,411.89,346.5,411.89L346.5,411.89z"/>
<path fill="none" stroke="#000000" stroke-linecap="square" stroke-miterlimit="10" d="M346.5,411.89  C345.858,411.544,344.856,411.003,346.5,411.89L346.5,411.89z"/>
<path fill="none" stroke="#000000" stroke-linecap="square" stroke-miterlimit="10" d="M347.25,411.14  C344.216,411.537,343.376,411.646,347.25,411.14L347.25,411.14z"/>
<path fill="none" stroke="#000000" stroke-linecap="square" stroke-miterlimit="10" d="M347.25,411.14  C343.615,411.14,343.615,411.14,347.25,411.14L347.25,411.14z"/>
<path fill="none" stroke="#000000" stroke-linecap="square" stroke-miterlimit="10" d="M345,411.89  C346,411.89,346,411.89,345,411.89L345,411.89z"/>
<path fill="none" stroke="#000000" stroke-linecap="square" stroke-miterlimit="10" d="M347.25,411.14  C344.138,411.801,344.118,411.805,347.25,411.14L347.25,411.14z"/>
<path fill="none" stroke="#000000" stroke-linecap="square" stroke-miterlimit="10" d="M347.25,411.89  C344.118,411.225,344.138,411.229,347.25,411.89L347.25,411.89z"/>
<path fill="none" stroke="#000000" stroke-linecap="square" stroke-miterlimit="10" d="M347.25,411.89  C344.764,411.286,344.299,411.173,347.25,411.89L347.25,411.89z"/>
<path fill="none" stroke="#000000" stroke-linecap="square" stroke-miterlimit="10" d="M346.5,411.89  C345.142,411.233,344.503,410.924,346.5,411.89L346.5,411.89z"/>
<path fill="none" stroke="#000000" stroke-linecap="square" stroke-miterlimit="10" d="M346.5,411.89  C344.853,411.89,344.853,411.89,346.5,411.89L346.5,411.89z"/>
<path fill="none" stroke="#000000" stroke-linecap="square" stroke-miterlimit="10" d="M346.5,411.89  C344.853,411.89,344.853,411.89,346.5,411.89L346.5,411.89z"/>
<path fill-rule="evenodd" clip-rule="evenodd" fill="#19519D" stroke="#000000" stroke-linecap="square" stroke-miterlimit="10" d="  M370.5,474.89c0.753,18.828,25.156,23.276,27,3C388.423,479.091,379.103,478.054,370.5,474.89z"/>
</svg>