<svg xmlns="http://www.w3.org/2000/svg" xmlns:xlink="http://www.w3.org/1999/xlink" version="1.1" id="Layer_1" x="0px" y="0px" enable-background="new 0 0 822.05 841.89" xml:space="preserve" viewBox="189.92 238.64 440.84 365.93">
<path fill-rule="evenodd" clip-rule="evenodd" fill="#FFFFFF" stroke="#FFFFFF" stroke-linecap="square" stroke-miterlimit="10" d="  M629,602.89c-136.61,0-273.221,0-409.831,0c-6.615,0-27.419,4.436-27.419-3.924c0-29.033,0-58.066,0-87.1  c0-82.269,0-164.537,0-246.805c0-9.319-5.461-25.922,5.757-25.922c27.409,0,54.819,0,82.228,0c87.093,0,174.187,0,261.281,0  c26.365,0,52.73,0,79.096,0c15.076,0,8.889,12,8.889,25.922c0,82.268,0,164.536,0,246.805C629,542.208,629,572.549,629,602.89z"/>
<path fill-rule="evenodd" clip-rule="evenodd" fill="#967A66" stroke="#000000" stroke-width="2" stroke-linecap="square" stroke-miterlimit="10" d="  M440.75,343.39c1.011,28.98,0.067,57.433-0.794,85.421c-0.874,28.4,14.856,106.476-27.706,103.579  c6.7-0.647,13.522-0.462,20.25-0.75c-4,1.25-8,2.5-12,3.75c6.315-0.096,14.082-0.166,16.5,0  C451.089,521.089,456.841,364.818,440.75,343.39z"/>
<path fill-rule="evenodd" clip-rule="evenodd" fill="#967A66" stroke="#000000" stroke-width="2" stroke-linecap="square" stroke-miterlimit="10" d="  M469.25,348.64c1.417,33.07,17.773,171.077-5.25,181.5c2.25-0.5,4.5-1,6.75-1.5c-2.25,2.5-4.5,5-6.75,7.5  c7.652-1.249,11.184-2.399,18-3C474.015,511.2,491.228,359.764,469.25,348.64z"/>
<path fill-rule="evenodd" clip-rule="evenodd" fill="#EC008C" stroke="#000000" stroke-width="2" stroke-linecap="square" stroke-miterlimit="10" d="  M366.5,341.14c-2.935-24.444,25.915-61.004,38.25-24c2.881,8.643,1.811,30.027,14.25,30.75c17.091,0.993,8.693-21.104,7.5-27.75  c-5.026-28-21.196-46.935,18-60c47.209-15.736,52.141,32.944,76.5,55.5c-2.5,0-5,0-7.5,0c6.006,11.158,13.916,21.812,13.5,36  c-10.748-18.652-20.296-17.15-38.25-14.25c-3.568,0.576-17.221,8.213-15,8.25c-1.466-0.024-11.434-5.7-7.5-6.75  c-3.515,0.938-7.622-13.225-12-3.375c-2.789,6.275-7.814,15.768-13.5,19.875c-9.438,6.817-18.836,10.269-30,4.5  c-12.989-6.712-15.79-59.724-33.75-39c-6.308,7.278,4.439,60.889,9.75,67.5C362.427,393.518,356.745,356.821,366.5,341.14z"/>
<path fill-rule="evenodd" clip-rule="evenodd" stroke="#000000" stroke-width="2" stroke-linecap="square" stroke-miterlimit="10" d="  M371.75,371.89c0.652,4.462-4.001,5.61,1.5,9C376.186,376.662,372.385,376.23,371.75,371.89z"/>
<path fill="none" stroke="#000000" stroke-width="2" stroke-linecap="square" stroke-miterlimit="10" d="M447.5,298.39  c2.966,10.598,11.086,16.199,22.5,15.75c-0.5-2.5-1-5-1.5-7.5c6.907,3.922,14.194,4.369,21,7.5c-1.75-1.75-3.5-3.5-5.25-5.25  c6.355,3.895,13.786,6.031,20.25,9.75c-3.449-5.174-6.463-11.035-10.5-15.75"/>
<path fill-rule="evenodd" clip-rule="evenodd" fill="#967A66" stroke="#000000" stroke-width="2" stroke-linecap="square" stroke-miterlimit="10" d="  M524,338.89c1.013,29.355,0.077,57.868-0.794,86.171c-0.874,28.4,14.856,106.476-27.706,103.579c6.7-0.647,13.522-0.462,20.25-0.75  c-4,1.25-8,2.5-12,3.75c6.315-0.096,14.082-0.166,16.5,0c20.899-21.214,0.942-77.174,9-105.375  C535.829,403.24,536.232,356.39,524,338.89z"/>
<path fill-rule="evenodd" clip-rule="evenodd" fill="#967A66" stroke="#000000" stroke-width="2" stroke-linecap="square" stroke-miterlimit="10" d="  M552.5,344.14c0.96,34.088,18.638,169.868-5.25,182.25c2.25-0.5,4.5-1,6.75-1.5c-2.25,2.25-4.5,4.5-6.75,6.75  c7.283-0.902,10.467-1.921,17.25-2.25c-8.967-33.227-6.045-77.553-2.625-111.75C563.562,400.769,559.002,348.553,552.5,344.14z"/>
<path fill-rule="evenodd" clip-rule="evenodd" fill="#EC008C" stroke="#000000" stroke-width="2" stroke-linecap="square" stroke-miterlimit="10" d="  M449.75,337.39c-4.853-25.712,24.17-59.575,38.25-24.375c3.438,8.594,1.271,30.339,14.25,31.125c16.51,1,8.68-21.01,7.5-27.75  c-4.961-28.353-21.555-46.815,18-60c47.679-15.893,51.828,32.812,76.5,55.5c-2.5,0-5,0-7.5,0c6.006,11.158,13.916,21.812,13.5,36  c-10.859-18.934-20.049-17.24-38.25-14.25c-2.935,0.482-17.741,8.206-15,8.25c-1.581-0.025-11.727-5.556-7.5-6.75  c-3.915,1.106-7.006-13.04-12.375-3.375c-3.711,6.68-7.56,14.619-13.875,19.125c-10.327,7.368-16.982,11.026-29.25,4.5  c-11.856-6.308-17.417-58.519-33.75-38.25c-6.45,8.004,4.045,60.353,9.75,67.5C445.679,389.555,439.835,353,449.75,337.39z"/>
<path fill-rule="evenodd" clip-rule="evenodd" stroke="#000000" stroke-width="2" stroke-linecap="square" stroke-miterlimit="10" d="  M455,368.14c0.667,4.286-3.917,5.152,1.5,9C459.671,372.573,455.678,372.493,455,368.14z"/>
<path fill="none" stroke="#000000" stroke-width="2" stroke-linecap="square" stroke-miterlimit="10" d="M530.75,294.64  c3.092,10.504,11.287,16.107,22.5,15c-0.75-2.25-1.5-4.5-2.25-6.75c7.3,3.904,14.569,4.118,21.75,6.75c-1.75-1.5-3.5-3-5.25-4.5  c6.349,3.891,13.729,6.146,20.25,9.75c-3.449-5.174-6.463-11.035-10.5-15.75"/>
<path fill-rule="evenodd" clip-rule="evenodd" fill="#967A66" stroke="#000000" stroke-width="2" stroke-linecap="square" stroke-miterlimit="10" d="  M296.75,403.39c-1.023,26.953,0.144,52.999,0.788,78.766c0.634,25.352-14.362,99.538,25.462,95.234  c-6.216-0.557-12.514-0.463-18.75-0.75c3.75,1,7.5,2,11.25,3c-37.24,6.489-20.946-68.152-22.5-94.5  C291.521,460.066,282.394,424.086,296.75,403.39z"/>
<path fill-rule="evenodd" clip-rule="evenodd" fill="#967A66" stroke="#000000" stroke-width="2" stroke-linecap="square" stroke-miterlimit="10" d="  M270.5,407.89c-0.975,31.687-17.921,155.005,4.5,167.25c-2-0.5-4-1-6-1.5c2,2.25,4,4.5,6,6.75c-6.349-0.667-9.86-1.931-15.75-2.25  c9.364-33.763,0.464-72.06,2.25-106.5C262.382,454.619,263.478,415.655,270.5,407.89z"/>
<path fill-rule="evenodd" clip-rule="evenodd" fill="#EC008C" stroke="#000000" stroke-width="2" stroke-linecap="square" stroke-miterlimit="10" d="  M365,401.89c4.138-29.166-16.43-48.568-36-21c-4.644,6.542,0.799,26.147-12,27c-15.464,1.031-9.945-21.221-6-28.125  c15.501-27.126,5.711-44.221-22.5-53.625c-38.632-12.877-47.1,33.185-65.25,51.75c2.25,0,4.5,0,6.75,0  c-4.98,10.799-13.516,19.908-12,33c13.735-29.144,51.95-2.376,54.75-9.375c8.027-20.068,26.706,29.397,49.5,18  c12.631-6.315,17.845-53.649,33-37.125c6.671,7.273-4.439,55.628-9,62.25C368.57,448.247,374.583,417.353,365,401.89z"/>
<path fill-rule="evenodd" clip-rule="evenodd" stroke="#000000" stroke-width="2" stroke-linecap="square" stroke-miterlimit="10" d="  M360.5,430.39c-0.716,3.106,2.557,5.7-2.25,7.5C355.775,433.129,359.729,433.737,360.5,430.39z"/>
<path fill="none" stroke="#000000" stroke-width="2" stroke-linecap="square" stroke-miterlimit="10" d="M290.75,362.14  c-3.191,9.436-10.723,14.398-21,14.25c0.75-2.25,1.5-4.5,2.25-6.75c-6.825,3.881-13.494,4.154-20.25,6.75c1.75-1.5,3.5-3,5.25-4.5  c-5.813,3.679-12.725,5.662-18.75,9c3.212-4.695,6.059-9.932,9.75-14.25"/>
</svg>