<svg xmlns="http://www.w3.org/2000/svg" xmlns:xlink="http://www.w3.org/1999/xlink" version="1.1" id="Layer_1" x="0px" y="0px" enable-background="new 0 0 822.05 841.89" xml:space="preserve" viewBox="356.81 334.33 107.5 173.25">
<path fill-rule="evenodd" clip-rule="evenodd" fill="#009900" stroke="#000000" stroke-linecap="square" stroke-miterlimit="10" d="  M409.06,498.14c1.875-30.721-21.333-51.789-51.752-48.75C361.761,458.618,401.395,528.06,409.06,498.14z"/>
<path fill="none" stroke="#000000" stroke-linecap="square" stroke-miterlimit="10" d="M405.308,497.39  c-6.625-14.49-16.317-29.312-32.25-33.75"/>
<path fill-rule="evenodd" clip-rule="evenodd" fill="#009900" stroke="#000000" stroke-linecap="square" stroke-miterlimit="10" d="  M412.81,447.14c-1.068-27.219,28.814-35.242,51-33.75C456.409,424.504,423.431,466.94,412.81,447.14z"/>
<path fill-rule="evenodd" clip-rule="evenodd" fill="#009900" stroke="#000000" stroke-linecap="square" stroke-miterlimit="10" d="  M403.808,501.89c5.657,20.811,12.351-27.028,13.127-37.125c1.868-24.29-3.586-48.792-8.625-72.375  C392.365,412.576,417.636,470.666,403.808,501.89z"/>
<path fill-rule="evenodd" clip-rule="evenodd" fill="#FF0000" stroke="#000000" stroke-linecap="square" stroke-miterlimit="10" d="  M406.81,362.39c2.735-24.153,16.259-29.492,32.625-13.125C454.999,364.83,411.548,373.826,406.81,362.39z"/>
<path fill-rule="evenodd" clip-rule="evenodd" fill="#FF0000" stroke="#000000" stroke-linecap="square" stroke-miterlimit="10" d="  M402.308,367.64c-21.11-8.704-29.083-21.071-5.625-31.125C420.373,326.362,413.646,365.268,402.308,367.64z"/>
<path fill-rule="evenodd" clip-rule="evenodd" fill="#FF0000" stroke="#000000" stroke-linecap="square" stroke-miterlimit="10" d="  M407.56,372.14c-9.042,9.227-44.15,27.802-38.252-3.75C373.088,348.167,409.804,361.209,407.56,372.14z"/>
<path fill-rule="evenodd" clip-rule="evenodd" fill="#FF0000" stroke="#000000" stroke-linecap="square" stroke-miterlimit="10" d="  M412.81,366.89c17.983-6.46,39.567-4.135,28.125,18.75C431.343,404.824,403.31,374.033,412.81,366.89z"/>
<path fill="none" stroke="#000000" stroke-linecap="square" stroke-miterlimit="10" d="M416.56,447.14  c6.75-11.748,17.812-21.075,31.5-23.25"/>
<path fill-rule="evenodd" clip-rule="evenodd" fill="#FF0000" stroke="#000000" stroke-linecap="square" stroke-miterlimit="10" d="  M412.81,369.89c11.664,13.714,13.804,47.233-14.252,32.25C380.131,392.299,402.751,366.298,412.81,369.89z"/>
<path fill-rule="evenodd" clip-rule="evenodd" fill="#FFFF00" stroke="#000000" stroke-linecap="square" stroke-miterlimit="10" d="  M418.06,366.89C396.985,396.034,395.78,339.103,418.06,366.89L418.06,366.89z"/>
</svg>