<svg xmlns="http://www.w3.org/2000/svg" xmlns:xlink="http://www.w3.org/1999/xlink" version="1.1" id="Layer_1" x="0px" y="0px" enable-background="new 0 0 822.05 841.89" xml:space="preserve" viewBox="189.92 238.64 440.84 365.93">
<path fill-rule="evenodd" clip-rule="evenodd" fill="#FFFFFF" stroke="#FFFFFF" stroke-linecap="square" stroke-miterlimit="10" d="  M629,602.89c-136.61,0-273.221,0-409.831,0c-6.615,0-27.419,4.436-27.419-3.924c0-29.033,0-58.066,0-87.1  c0-82.269,0-164.537,0-246.805c0-9.319-5.461-25.922,5.757-25.922c27.409,0,54.819,0,82.228,0c87.093,0,174.187,0,261.281,0  c26.365,0,52.73,0,79.096,0c15.076,0,8.889,12,8.889,25.922c0,82.268,0,164.536,0,246.805C629,542.208,629,572.549,629,602.89z"/>
<path fill-rule="evenodd" clip-rule="evenodd" fill="#6D6F71" stroke="#000000" stroke-width="2" stroke-linecap="square" stroke-miterlimit="10" d="  M294.5,522.64c-8.23,6.357-69.753,50.005-63,60.75c6.505,10.351,69.343-45.724,75.75-51  C303.269,529.345,299.086,524.558,294.5,522.64z"/>
<path fill-rule="evenodd" clip-rule="evenodd" fill="#E3E4E5" stroke="#000000" stroke-width="2" stroke-linecap="square" stroke-miterlimit="10" d="  M308.75,510.64c-37.921-21.942-26.18,3.206-3,21.75c16.252,13.002,13.029,10.205,18.75,1.5c7.014-10.672-10.569-12.839,6.999-29.502  c82.417-78.166,164.834-156.332,247.251-234.498c-18.238-9.417-107.922,91.033-125.074,106.877  C405.367,421.392,357.059,466.016,308.75,510.64z"/>
<path fill-rule="evenodd" clip-rule="evenodd" fill="#58595B" stroke="#000000" stroke-width="2" stroke-linecap="square" stroke-miterlimit="10" d="  M570.5,263.89c2.571,4.251,7.711,7.711,11.25,11.25C594.378,258.681,586.592,248.75,570.5,263.89z"/>
</svg>