<svg xmlns="http://www.w3.org/2000/svg" xmlns:xlink="http://www.w3.org/1999/xlink" version="1.1" id="Layer_1" x="0px" y="0px" enable-background="new 0 0 822.05 841.89" xml:space="preserve" viewBox="190.17 238.64 440.09 365.93">
<path fill-rule="evenodd" clip-rule="evenodd" fill="#FFFFFF" stroke="#FFFFFF" stroke-linecap="square" stroke-miterlimit="10" d="  M628.5,602.89c-136.376,0-272.752,0-409.128,0c-6.613,0-27.372,4.433-27.372-3.924c0-29.033,0-58.066,0-87.1  c0-82.269,0-164.537,0-246.805c0-9.305-5.458-25.922,5.747-25.922c27.362,0,54.725,0,82.087,0c86.944,0,173.888,0,260.832,0  c26.32,0,52.641,0,78.961,0c15.06,0,8.873,12.02,8.873,25.922c0,82.268,0,164.536,0,246.805  C628.5,542.208,628.5,572.549,628.5,602.89z"/>
<path fill-rule="evenodd" clip-rule="evenodd" fill="#6D6F71" stroke="#000000" stroke-width="2" stroke-linecap="square" stroke-miterlimit="10" d="  M311.25,504.64c-14.873,11.626-45.027,29.635-48.75,48c21.013-1.9,42.429-27.379,58.5-40.5  C317.75,509.64,314.5,507.14,311.25,504.64z"/>
<path fill-rule="evenodd" clip-rule="evenodd" fill="#E3E4E5" stroke="#000000" stroke-width="2" stroke-linecap="square" stroke-miterlimit="10" d="  M321.75,495.64c-6.29-4.405-14.692-6.838-21.75-6.75c5.699,13.65,20.317,27.336,34.5,32.25  c-14.73-33.008,40.989-64.227,63.749-85.891C442.499,393.13,486.75,351.01,531,308.89c-20.694-4.356-81.485,68.777-98.396,84.392  C395.653,427.401,358.702,461.521,321.75,495.64z"/>
<path fill-rule="evenodd" clip-rule="evenodd" fill="#58595B" stroke="#000000" stroke-width="2" stroke-linecap="square" stroke-miterlimit="10" d="  M525,304.39c2.75,2.75,5.5,5.5,8.25,8.25c4.859-9.199,4.29-8.095,2.25-15.75C532,299.39,528.5,301.89,525,304.39z"/>
<path fill-rule="evenodd" clip-rule="evenodd" fill="#6D6F71" stroke="#000000" stroke-width="2" stroke-linecap="square" stroke-miterlimit="10" d="  M266.25,464.14c-17.388,13.996-37.792,27.087-49.5,46.5c17.44,4.632,46.147-27.561,59.25-39  C272.75,469.14,269.5,466.64,266.25,464.14z"/>
<path fill-rule="evenodd" clip-rule="evenodd" fill="#E3E4E5" stroke="#000000" stroke-width="2" stroke-linecap="square" stroke-miterlimit="10" d="  M277.5,455.14c-6.655-4.902-14.772-7.472-22.5-6.75c2.915,7.026,23.913,35.184,34.5,31.5c3.793-1.32-3.32-13.927-4.125-15.375  c-3.802-6.843,11.3-15.915,16.208-20.587C363.055,385.415,424.527,326.903,486,268.39c-1.25-1.25-2.5-2.5-3.75-3.75  C414,328.14,345.75,391.64,277.5,455.14z"/>
<path fill-rule="evenodd" clip-rule="evenodd" fill="#58595B" stroke="#000000" stroke-width="2" stroke-linecap="square" stroke-miterlimit="10" d="  M480,263.14c2.75,3,5.5,6,8.25,9c5.001-9.165,4.143-8.162,2.25-15.75C487,258.64,483.5,260.89,480,263.14z"/>
<path fill-rule="evenodd" clip-rule="evenodd" fill="#6D6F71" stroke="#000000" stroke-width="2" stroke-linecap="square" stroke-miterlimit="10" d="  M367.5,539.89c-16.878,13.586-40.591,27.224-49.5,47.25c19.705,0.57,43.62-27.74,58.5-39.75C373.5,544.89,370.5,542.39,367.5,539.89  z"/>
<path fill-rule="evenodd" clip-rule="evenodd" fill="#E3E4E5" stroke="#000000" stroke-width="2" stroke-linecap="square" stroke-miterlimit="10" d="  M378,530.14c-6.358-4.401-14.544-6.769-21.75-6.75c5.338,14.128,20.373,27.092,34.5,32.25  c-14.833-32.876,41.11-64.342,63.749-85.891C498.749,427.629,543,385.51,587.25,343.39c-20.694-4.356-81.485,68.777-98.396,84.392  C451.903,461.901,414.951,496.021,378,530.14z"/>
<path fill-rule="evenodd" clip-rule="evenodd" fill="#58595B" stroke="#000000" stroke-width="2" stroke-linecap="square" stroke-miterlimit="10" d="  M581.25,338.89c2.75,3,5.5,6,8.25,9c4.931-9.457,4.308-8.288,2.25-16.5C588.25,333.89,584.75,336.39,581.25,338.89z"/>
</svg>