<svg xmlns="http://www.w3.org/2000/svg" xmlns:xlink="http://www.w3.org/1999/xlink" version="1.1" id="Layer_1" x="0px" y="0px" enable-background="new 0 0 822.05 841.89" xml:space="preserve" viewBox="190.17 238.64 440.09 365.93">
<path fill-rule="evenodd" clip-rule="evenodd" fill="#FFFFFF" stroke="#FFFFFF" stroke-linecap="square" stroke-miterlimit="10" d="  M628.5,602.89c-136.376,0-272.752,0-409.128,0c-6.613,0-27.372,4.433-27.372-3.924c0-29.033,0-58.066,0-87.1  c0-82.269,0-164.537,0-246.805c0-9.305-5.458-25.922,5.747-25.922c27.362,0,54.725,0,82.087,0c86.944,0,173.888,0,260.832,0  c26.32,0,52.641,0,78.961,0c15.06,0,8.873,12.02,8.873,25.922c0,82.268,0,164.536,0,246.805  C628.5,542.208,628.5,572.549,628.5,602.89z"/>
<path fill-rule="evenodd" clip-rule="evenodd" fill="#D1BE9B" stroke="#000000" stroke-width="2" stroke-linecap="square" stroke-miterlimit="10" d="  M279.75,489.64c8.856-44.088,20.987-89.551,45.375-127.875c22.848-35.904,44.366-40.771,80.25-55.125  c59.12-23.648,134.804,56.444,75.75,102.375c-25.424,19.774-60.959,21.793-76.5,52.875c-18.079,36.158,7.179,78.094-13.125,113.625  c-14.984,26.223-61.649,7.666-79.5-5.625C286.482,550.89,278.044,520.38,279.75,489.64z"/>
<path fill-rule="evenodd" clip-rule="evenodd" fill="#D1BE9B" stroke="#000000" stroke-width="2" stroke-linecap="square" stroke-miterlimit="10" d="  M494.25,311.89c11.13-27.774,64.971-54.87,54-6.75C541.229,335.937,504.446,345.429,494.25,311.89z"/>
<path fill-rule="evenodd" clip-rule="evenodd" fill="#D1BE9B" stroke="#000000" stroke-width="2" stroke-linecap="square" stroke-miterlimit="10" d="  M492,269.14c6.189,15.016-19.415,43.266-30.75,24.75C451.154,277.399,480.524,262.812,492,269.14z"/>
<path fill-rule="evenodd" clip-rule="evenodd" fill="#D1BE9B" stroke="#000000" stroke-width="2" stroke-linecap="square" stroke-miterlimit="10" d="  M452.25,260.14c2.063,11.415-19.041,43.237-31.5,29.25C408.627,275.78,440.593,256.601,452.25,260.14z"/>
<path fill-rule="evenodd" clip-rule="evenodd" fill="#D1BE9B" stroke="#000000" stroke-width="2" stroke-linecap="square" stroke-miterlimit="10" d="  M410.25,266.14c2.157,10.721-15.658,38.682-27.75,25.5C370.614,278.683,398.897,261.792,410.25,266.14z"/>
<path fill-rule="evenodd" clip-rule="evenodd" fill="#D1BE9B" stroke="#000000" stroke-width="2" stroke-linecap="square" stroke-miterlimit="10" d="  M370.5,276.64c1.724,8.444-12.077,31.12-21,18.75C341.046,283.67,361.713,273.115,370.5,276.64z"/>
</svg>