<svg xmlns="http://www.w3.org/2000/svg" xmlns:xlink="http://www.w3.org/1999/xlink" version="1.1" id="Layer_1" x="0px" y="0px" enable-background="new 0 0 822.05 841.89" xml:space="preserve" viewBox="190.17 238.64 440.09 365.93">
<path fill-rule="evenodd" clip-rule="evenodd" fill="#FFFFFF" stroke="#FFFFFF" stroke-linecap="square" stroke-miterlimit="10" d="  M628.5,602.89c-136.376,0-272.752,0-409.128,0c-6.613,0-27.372,4.433-27.372-3.924c0-29.033,0-58.066,0-87.1  c0-82.269,0-164.537,0-246.805c0-9.305-5.458-25.922,5.747-25.922c27.362,0,54.725,0,82.087,0c86.944,0,173.888,0,260.832,0  c26.32,0,52.641,0,78.961,0c15.06,0,8.873,12.02,8.873,25.922c0,82.268,0,164.536,0,246.805  C628.5,542.208,628.5,572.549,628.5,602.89z"/>
<path fill-rule="evenodd" clip-rule="evenodd" fill="#FFFFFF" stroke="#010101" stroke-width="2" stroke-linecap="square" stroke-miterlimit="10" d="  M583.5,317.89c5.994-18.095,0.509-43.318-18.75-51.75c-8.414-3.684-16.508-0.1-24-1.5c-2.851-0.533-11.321,0.425-15,0  c-5.388-0.623-9.354-7.5-16.5-7.5c-10.465,0-19.167,1.463-26.625,9.75c-10.234,11.371-15.263,8.244-24.375,15.75  c-15.024,12.376-28.041,29.678-16.5,49.875c10.066,17.616,24.095,19.314,33,37.125c13.401,26.803,31.903,8.395,49.5,8.25  c17.74-0.146,33.229,14.013,56.25-0.375C599.793,365.457,595.072,333.255,583.5,317.89z"/>
<path fill-rule="evenodd" clip-rule="evenodd" fill="#FFFFFF" stroke="#010101" stroke-width="2" stroke-linecap="square" stroke-miterlimit="10" d="  M446.25,385.39C430.67,397.612,430.67,373.168,446.25,385.39L446.25,385.39z"/>
<path fill-rule="evenodd" clip-rule="evenodd" fill="#FFFFFF" stroke="#010101" stroke-width="2" stroke-linecap="square" stroke-miterlimit="10" d="  M467.25,372.64C446.526,406.498,452.019,336.148,467.25,372.64L467.25,372.64z"/>
<path fill-rule="evenodd" clip-rule="evenodd" fill="#EECBA7" stroke="#010101" stroke-width="2" stroke-linecap="square" stroke-miterlimit="10" d="  M405,534.64c-11.264-2.855-16.823-10.261-26.25-16.5c-21.206-14.035-22.556-14.25-52.585-14.25  c-9.107,0-61.824,31.183-64.743,40.336c-2.109,6.616-22.206,48.914-6.833,48.914c24.047,0,48.094,0,72.14,0  c11.748,0,52.8,7.061,62.521,0C398.197,586.642,401.915,546.101,405,534.64z"/>
<path fill-rule="evenodd" clip-rule="evenodd" fill="#F2EA31" stroke="#010101" stroke-width="2" stroke-linecap="square" stroke-miterlimit="10" d="  M444.75,521.14c-14.343-2.31-28.858-1.161-43.361-2.611c-4.851-0.485-14.184,21.156-19.639,26.611  c-16.608,16.607-53.622,17.341-72.75,4.5c-18.292-12.28-37.942-59.558-69-28.5c-18.781,18.78-22.373,45.311-29.25,72  c86,0,172,0,258,0C463.21,569.528,459.336,541.117,444.75,521.14z"/>
<path fill-rule="evenodd" clip-rule="evenodd" fill="#EECBA7" stroke="#010101" stroke-width="2" stroke-linecap="square" stroke-miterlimit="10" d="  M279.75,459.64c7.299,20.919-14.039,29.37-21.75,8.25C250.688,447.861,269.941,441.729,279.75,459.64z"/>
<path fill-rule="evenodd" clip-rule="evenodd" fill="#EECBA7" stroke="#010101" stroke-width="2" stroke-linecap="square" stroke-miterlimit="10" d="  M420,464.89c-0.641,22.043-22.743,20.803-22.5-0.75C397.75,441.982,420.7,443.463,420,464.89z"/>
<path fill-rule="evenodd" clip-rule="evenodd" fill="#EECBA7" stroke="#010101" stroke-width="2" stroke-linecap="square" stroke-miterlimit="10" d="  M267.75,425.14c-4.324,75.789,95.568,164.071,132.75,63.75c14.914-40.24,17.392-104.735-24.75-129.75  C324.218,328.551,273.977,375.063,267.75,425.14z"/>
<path fill-rule="evenodd" clip-rule="evenodd" fill="#010101" d="M325.5,459.64C314.211,466.921,312.635,459.318,325.5,459.64  L325.5,459.64z"/>
<path fill-rule="evenodd" clip-rule="evenodd" fill="#010101" d="M374.25,464.14C361.271,464.825,365.007,457.263,374.25,464.14  L374.25,464.14z"/>
<path fill="none" stroke="#010101" stroke-width="2" stroke-linecap="square" stroke-miterlimit="10" d="M336,482.89  c4.547,5.854,9.604,5.903,14.25,0"/>
<path fill="none" stroke="#010101" stroke-width="2" stroke-linecap="square" stroke-miterlimit="10" d="M315,503.89  c16.553,6.933,34.763,6.832,51.75,1.5"/>
<path fill="none" stroke="#010101" stroke-width="2" stroke-linecap="square" stroke-miterlimit="10" d="M306.75,462.64  c7.385-8.44,17.21-9.562,26.25-3"/>
<path fill="none" stroke="#010101" stroke-width="2" stroke-linecap="square" stroke-miterlimit="10" d="M383.25,462.64  c-8.207-7.119-18.185-7.727-27-1.5"/>
<text transform="matrix(1 0 0 1 493.4951 359.1626)" fill="#ED1C24" font-family="'TimesNewRomanPSMT'" font-size="105">?</text>
</svg>