<svg xmlns="http://www.w3.org/2000/svg" xmlns:xlink="http://www.w3.org/1999/xlink" version="1.1" id="Layer_1" x="0px" y="0px" enable-background="new 0 0 822.05 841.89" xml:space="preserve" viewBox="190.17 239.89 440.08 365.17">
<path fill-rule="evenodd" clip-rule="evenodd" fill="#FFFFFF" stroke="#FFFFFF" stroke-linecap="square" stroke-miterlimit="10" d="  M628.5,603.39c-136.376,0-272.752,0-409.128,0c-6.601,0-27.372,4.427-27.372-3.915c0-28.974,0-57.947,0-86.921  c0-82.099,0-164.197,0-246.296c0-9.303-5.451-25.868,5.747-25.868c27.362,0,54.725,0,82.087,0c86.944,0,173.888,0,260.832,0  c26.32,0,52.641,0,78.961,0c15.048,0,8.873,11.971,8.873,25.868c0,82.099,0,164.197,0,246.296  C628.5,542.833,628.5,573.112,628.5,603.39z"/>
<path fill-rule="evenodd" clip-rule="evenodd" fill="#BFBEB2" stroke="#010101" stroke-width="2" stroke-linecap="square" stroke-miterlimit="10" d="  M447,331.14c-9.439-28.466-38.071-47.943-60.75-65.25c10.5,15,21,30,31.5,45c-15.25-9-30.5-18-45.75-27c11.25,13,22.5,26,33.75,39  c-16-7.75-32-15.5-48-23.25c17.649,19.426,34.435,36.928,57.75,49.5c18.987,10.238,57.538,40.579,69.75,18.75  C468.299,360.826,456.01,346.803,447,331.14z"/>
<path fill-rule="evenodd" clip-rule="evenodd" fill="#BFBEB2" stroke="#010101" stroke-width="2" stroke-linecap="square" stroke-miterlimit="10" d="  M485.25,367.89c-4.978,3.18-8.268,9.896-13.5,13.5c2.62,4.357,9.753,11.131,14.25,13.5c3.854-2.595,11.834-11.413,14.25-15.75  C495.667,375.889,490.385,370.09,485.25,367.89z"/>
<path fill-rule="evenodd" clip-rule="evenodd" fill="#BFBEB2" stroke="#010101" stroke-width="2" stroke-linecap="square" stroke-miterlimit="10" d="  M616.5,466.14c12.234,17.054-6.028,23.987-20.625,17.25c-31.614-14.591-60.757-47.495-87-70.875  c-19.979-17.8-22.234-43.133,4.809-22.983C547.956,415.068,582.229,440.604,616.5,466.14z"/>
<path fill-rule="evenodd" clip-rule="evenodd" fill="#BFBEB2" stroke="#010101" stroke-width="2" stroke-linecap="square" stroke-miterlimit="10" d="  M375,365.64c-9.439-28.465-38.072-47.943-60.75-65.25c10.5,15,21,30,31.5,45c-15.25-8.75-30.5-17.5-45.75-26.25  c11.25,13,22.5,26,33.75,39c-16-8-32-16-48-24c17.649,19.426,34.435,36.928,57.75,49.5c19.386,10.453,57.579,42.027,69.752,18.75  C396.299,395.327,384.01,381.303,375,365.64z"/>
<path fill-rule="evenodd" clip-rule="evenodd" fill="#BFBEB2" stroke="#010101" stroke-width="2" stroke-linecap="square" stroke-miterlimit="10" d="  M413.252,402.39c-4.92,3.248-8.675,10.323-13.502,14.25c2.642,4.154,9.826,10.599,14.252,12.75c3.468-2.275,11.876-11.093,14.248-15  C423.867,410.737,418.502,404.753,413.252,402.39z"/>
<path fill-rule="evenodd" clip-rule="evenodd" fill="#BFBEB2" stroke="#010101" stroke-width="2" stroke-linecap="square" stroke-miterlimit="10" d="  M544.5,500.64c12.234,17.054-6.028,23.987-20.625,17.25c-31.483-14.531-60.459-47.241-86.625-70.5  c-19.655-17.472-22.924-43.743,4.434-23.358C475.956,449.568,510.228,475.104,544.5,500.64z"/>
<path fill-rule="evenodd" clip-rule="evenodd" fill="#BFBEB2" stroke="#010101" stroke-width="2" stroke-linecap="square" stroke-miterlimit="10" d="  M298.5,403.14c-9.439-28.465-38.072-47.943-60.75-65.25c10.5,15,21,30,31.5,45c-15.25-9-30.5-18-45.75-27c11.25,13,22.5,26,33.75,39  c-16-7.75-32-15.5-48-23.25c16.625,20.589,34.529,36.825,57.75,49.5c18.955,10.346,57.445,40.745,69.75,18.75  C319.798,432.826,307.51,418.803,298.5,403.14z"/>
<path fill-rule="evenodd" clip-rule="evenodd" fill="#BFBEB2" stroke="#010101" stroke-width="2" stroke-linecap="square" stroke-miterlimit="10" d="  M336.75,439.89c-4.972,3.159-8.277,9.901-13.5,13.5c2.392,4.287,9.213,11.108,13.5,13.5c4.72-3.223,11.782-10.839,15-15.75  C347.167,447.888,341.885,442.09,336.75,439.89z"/>
<path fill-rule="evenodd" clip-rule="evenodd" fill="#BFBEB2" stroke="#010101" stroke-width="2" stroke-linecap="square" stroke-miterlimit="10" d="  M468,537.39c12.077,17.706-5.61,24.93-20.625,18c-31.614-14.591-60.757-47.495-87-70.875c-19.916-17.743-22.33-43.104,4.809-23.061  C399.456,486.766,433.728,512.078,468,537.39z"/>
</svg>