<svg xmlns="http://www.w3.org/2000/svg" xmlns:xlink="http://www.w3.org/1999/xlink" version="1.1" id="Layer_1" x="0px" y="0px" enable-background="new 0 0 822.05 841.89" xml:space="preserve" viewBox="189.92 238.64 440.84 365.93">
<path fill-rule="evenodd" clip-rule="evenodd" fill="#FFFFFF" stroke="#FFFFFF" stroke-linecap="square" stroke-miterlimit="10" d="  M629,602.89c-136.61,0-273.221,0-409.831,0c-6.615,0-27.419,4.436-27.419-3.924c0-29.033,0-58.066,0-87.1  c0-82.269,0-164.537,0-246.805c0-9.319-5.461-25.922,5.757-25.922c27.409,0,54.819,0,82.228,0c87.093,0,174.187,0,261.281,0  c26.365,0,52.73,0,79.096,0c15.076,0,8.889,12,8.889,25.922c0,82.268,0,164.536,0,246.805C629,542.208,629,572.549,629,602.89z"/>
<path fill-rule="evenodd" clip-rule="evenodd" fill="#BFBEB2" stroke="#010101" stroke-width="2" stroke-linecap="square" stroke-miterlimit="10" d="  M346.25,349.39c-11.413-40.525-57.144-70.556-88.5-94.5c15.25,21.75,30.5,43.5,45.75,65.25c-22-13-44-26-66-39  c16.25,18.75,32.5,37.5,48.75,56.25c-23.25-11.25-46.5-22.5-69.75-33.75c24.73,25.922,51.049,62.05,87.333,72.417  c18.223,5.207,33.971,16.079,50.385,25.458c26.935,15.391,21.774,26.352,46.031,1.125  C375.734,389.707,361.534,371.953,346.25,349.39z"/>
<path fill-rule="evenodd" clip-rule="evenodd" fill="#BFBEB2" stroke="#010101" stroke-width="2" stroke-linecap="square" stroke-miterlimit="10" d="  M400.25,402.64c-4.808,7.905-11.06,14.414-18.75,19.5c6.75,6.25,13.5,12.5,20.25,18.75  C419.505,420.289,425.974,419.737,400.25,402.64z"/>
<path fill-rule="evenodd" clip-rule="evenodd" fill="#BFBEB2" stroke="#010101" stroke-width="2" stroke-linecap="square" stroke-miterlimit="10" d="  M590,543.64c8.726,8.724,7.307,21.475-2.25,28.5c-13.031,9.579-30.67-3.489-41.986-12.714  c-43.821-35.72-87.141-71.465-129.446-108.951c-8.502-7.533-18.219-25.352,1.933-28.71c12.542-2.09,22.772,10.819,32.531,18.094  C497.188,474.453,543.594,509.046,590,543.64z"/>
</svg>