<svg xmlns="http://www.w3.org/2000/svg" xmlns:xlink="http://www.w3.org/1999/xlink" version="1.1" id="Layer_1" x="0px" y="0px" enable-background="new 0 0 822.05 841.89" xml:space="preserve" viewBox="308.72 371.14 204.81 101.88">
<path fill-rule="evenodd" clip-rule="evenodd" fill="#F7F619" stroke="#000000" stroke-width="1.25" stroke-linecap="square" stroke-miterlimit="10" d="  M354.525,426.515C310.171,439.222,350.92,401.225,354.525,426.515L354.525,426.515z"/>
<path fill-rule="evenodd" clip-rule="evenodd" fill="#FFFFFF" d="M376.275,397.265c7.75,14.59,65.252,22.917,65.252,0  C441.527,374.52,383.961,382.795,376.275,397.265z"/>
<path fill-rule="evenodd" clip-rule="evenodd" fill="#F7F619" stroke="#000000" stroke-width="1.25" stroke-linecap="square" stroke-miterlimit="10" d="  M346.275,428.765c30.122,9.325,71.961,1.435,104.252,4.125c39.311,3.276,5.404-27.668-6-34.875  c-19.251-12.165-54.925-23.077-75.752-2.25C358.891,405.649,340.729,418.119,346.275,428.765z M421.277,402.515  c-13.013-0.306-26.047,0.266-39.002,1.5C388.595,389.706,423.024,383.788,421.277,402.515z M440.777,401.015  c-5.734,2.127-9.529-0.62-15,3.75C424.371,387.871,435.438,389.542,440.777,401.015z"/>
<path fill-rule="evenodd" clip-rule="evenodd" stroke="#000000" stroke-linecap="square" stroke-miterlimit="10" d="  M419.027,426.515c2.995,15.241,25.533,17.626,25.5,0C444.494,408.839,422.146,411.399,419.027,426.515z"/>
<path fill-rule="evenodd" clip-rule="evenodd" fill="#FFFFFF" stroke="#000000" stroke-linecap="square" stroke-miterlimit="10" d="  M423.527,426.515C442.483,452.866,440.558,400.828,423.527,426.515L423.527,426.515z"/>
<path fill-rule="evenodd" clip-rule="evenodd" stroke="#000000" stroke-linecap="square" stroke-miterlimit="10" d="  M429.527,426.515C434.208,426.723,433.979,426.712,429.527,426.515L429.527,426.515z"/>
<path fill-rule="evenodd" clip-rule="evenodd" stroke="#000000" stroke-linecap="square" stroke-miterlimit="10" d="  M356.775,426.515c3.494,14.742,26.377,18.021,26.25,0C382.897,408.396,360.417,411.89,356.775,426.515z"/>
<path fill-rule="evenodd" clip-rule="evenodd" fill="#FFFFFF" stroke="#000000" stroke-linecap="square" stroke-miterlimit="10" d="  M362.025,426.515C379.264,452.739,379.436,400.568,362.025,426.515L362.025,426.515z"/>
<path fill-rule="evenodd" clip-rule="evenodd" stroke="#000000" stroke-linecap="square" stroke-miterlimit="10" d="  M368.025,426.515C372.005,426.746,371.868,426.738,368.025,426.515L368.025,426.515z"/>
<path fill-rule="evenodd" clip-rule="evenodd" fill="#F7F619" stroke="#000000" stroke-linecap="square" stroke-miterlimit="10" d="  M470.777,421.265c-8.094,1.483-15.123,4.64-24,4.5C454.489,432.914,469.819,432.205,470.777,421.265z"/>
<path fill-rule="evenodd" clip-rule="evenodd" fill="#F7F619" stroke="#000000" stroke-linecap="square" stroke-miterlimit="10" d="  M448.277,419.765C456.217,417.802,456.516,417.728,448.277,419.765L448.277,419.765z"/>
<path fill-rule="evenodd" clip-rule="evenodd" fill="#F7F619" stroke="#000000" stroke-linecap="square" stroke-miterlimit="10" d="  M461.777,416.015C470.193,414.541,469.681,414.63,461.777,416.015L461.777,416.015z"/>
<path fill-rule="evenodd" clip-rule="evenodd" d="M473.777,447.515c-18.277,0-71.92-11.895-67.502,14.25  c18.098,0,68.837-10.536,67.502,11.25c13.25-6.5,26.5-13,39.75-19.5c-13.25-5.75-26.5-11.5-39.75-17.25  C473.777,440.015,473.777,443.765,473.777,447.515z"/>
<path fill-rule="evenodd" clip-rule="evenodd" fill="#F7F619" d="M408.525,371.765h-83.25H408.525z"/>
<line fill="none" stroke="#000000" stroke-width="1.25" stroke-linecap="square" stroke-miterlimit="10" x1="408.525" y1="371.765" x2="325.275" y2="371.765"/>
<path fill-rule="evenodd" clip-rule="evenodd" fill="#F7F619" d="M355.275,389.765h-34.5H355.275z"/>
<line fill="none" stroke="#000000" stroke-width="1.25" stroke-linecap="square" stroke-miterlimit="10" x1="355.275" y1="389.765" x2="320.775" y2="389.765"/>
<path fill-rule="evenodd" clip-rule="evenodd" fill="#D2D1D2" stroke="#000000" stroke-linecap="square" stroke-miterlimit="10" d="  M320.775,413.765C284.73,396.812,346.92,445.566,320.775,413.765L320.775,413.765z"/>
</svg>