<svg xmlns="http://www.w3.org/2000/svg" xmlns:xlink="http://www.w3.org/1999/xlink" version="1.1" id="Layer_1" x="0px" y="0px" enable-background="new 0 0 822.05 841.89" xml:space="preserve" viewBox="304.98 333.21 210.45 176.88">
<path fill-rule="evenodd" clip-rule="evenodd" fill="#EED5B6" stroke="#000000" stroke-width="0.75" stroke-linecap="square" stroke-miterlimit="10" d="  M398.428,448.209c-17.556-16.88-26.886-7.288-45.375-1.125c-12.657,4.219-16.883,22.125,0.29,22.125  C374.04,469.209,399.4,477.555,398.428,448.209z"/>
<path fill-rule="evenodd" clip-rule="evenodd" fill="#FFFFFF" stroke="#000000" stroke-width="0.75" stroke-linecap="square" stroke-miterlimit="10" d="  M396.178,444.459c-9.683,24.168-23.727,8.722-37.5,6c-18.786-3.712-21.685-5.571-38.528,17.75  c-16.934,23.447-19.197,30.569,11.528,28.375c11.855-0.847,2.239,13.125,20.977,13.125c24.258,0,48.517,0,72.775,0  C423.179,489.157,419.377,452.063,396.178,444.459z"/>
<path fill-rule="evenodd" clip-rule="evenodd" fill="#EED5B6" stroke="#000000" stroke-width="0.75" stroke-linecap="square" stroke-miterlimit="10" d="  M356.428,429.459C353.608,443.044,342.806,429.675,356.428,429.459L356.428,429.459z"/>
<path fill-rule="evenodd" clip-rule="evenodd" fill="#EED5B6" stroke="#000000" stroke-width="0.75" stroke-linecap="square" stroke-miterlimit="10" d="  M402.178,415.209C391.636,422.702,391.543,407.976,402.178,415.209L402.178,415.209z"/>
<path fill-rule="evenodd" clip-rule="evenodd" fill="#EED5B6" stroke="#000000" stroke-width="0.75" stroke-linecap="square" stroke-miterlimit="10" d="  M345.178,410.709c4.056,47.934,71.479,38.303,49.5-11.25C382.174,371.27,339.937,376.343,345.178,410.709z"/>
<path fill-rule="evenodd" clip-rule="evenodd" fill="#FFFFFF" d="M339.928,467.709l-0.75,10.5L339.928,467.709z"/>
<line fill="none" stroke="#000000" stroke-width="1.25" stroke-linecap="square" stroke-miterlimit="10" x1="339.928" y1="467.709" x2="339.178" y2="478.209"/>
<path fill-rule="evenodd" clip-rule="evenodd" fill="#631D1B" stroke="#000000" stroke-width="0.75" stroke-linecap="square" stroke-miterlimit="10" d="  M390.928,421.959c-4.659,13.73-13.772,18.597-24.75,9.75C375.323,430.068,382.749,426.179,390.928,421.959z"/>
<path fill-rule="evenodd" clip-rule="evenodd" d="M368.428,418.209C364.732,419.786,364.203,420.012,368.428,418.209  L368.428,418.209z"/>
<path fill-rule="evenodd" clip-rule="evenodd" d="M383.428,414.459C379.043,415.227,379.208,415.198,383.428,414.459  L383.428,414.459z"/>
<path fill="none" stroke="#000000" stroke-width="0.75" stroke-linecap="square" stroke-miterlimit="10" d="M373.678,422.709  c2.152,1.181,3.938,0.588,5.25-1.5"/>
<path fill="none" stroke="#000000" stroke-width="0.75" stroke-linecap="square" stroke-miterlimit="10" d="M361.678,420.459  c2.377-3.037,5.519-4.263,9-3"/>
<path fill="none" stroke="#000000" stroke-width="0.75" stroke-linecap="square" stroke-miterlimit="10" d="M385.678,413.709  c-3.289-1.32-6.392-0.63-8.25,2.25"/>
<path fill-rule="evenodd" clip-rule="evenodd" fill="#5E1F03" stroke="#000000" stroke-width="0.5" stroke-linecap="square" stroke-miterlimit="10" d="  M376.678,481.959c-2.25-0.75-4.5-1.5-6.75-2.25c19.75-48.75,39.501-97.5,59.252-146.25c2,0.75,4,1.5,6,2.25  C415.679,384.459,396.178,433.209,376.678,481.959z"/>
<path fill-rule="evenodd" clip-rule="evenodd" fill="#003399" d="M425.43,334.959c-7.751,20.25-15.501,40.5-23.252,60.75  c12.109,4.43,28.271,17.733,33.687,3.583c6.771-17.695,13.544-35.389,20.315-53.083C445.93,342.459,435.68,338.709,425.43,334.959z"/>
<path fill-rule="evenodd" clip-rule="evenodd" fill="#FFFFFF" d="M456.18,346.209c-6.771,17.694-13.544,35.389-20.315,53.083  c-5.353,13.984,14.405,14.336,26.315,18.917c6.771-17.694,13.544-35.389,20.315-53.083  C487.848,351.142,468.09,350.79,456.18,346.209z"/>
<path fill-rule="evenodd" clip-rule="evenodd" fill="#DE2110" d="M515.43,369.459c-10-4-20-8-30-12  c-6.771,17.694-13.544,35.389-20.315,53.083c-5.394,14.091,15.124,14.89,27.065,19.667  C499.93,409.959,507.68,389.709,515.43,369.459z"/>
<path fill="none" stroke="#000000" stroke-linecap="square" stroke-miterlimit="10" d="M492.18,430.209  c-27.854-10.767-55.71-21.534-83.564-32.302c-12.255-4.737,12.959-50.917,17.564-62.948c27.854,10.767,55.708,21.534,83.562,32.302  C521.997,371.998,496.784,418.178,492.18,430.209z"/>
<path fill-rule="evenodd" clip-rule="evenodd" fill="#003399" d="M357.178,478.209C357.178,538.963,385.109,474.937,357.178,478.209  L357.178,478.209z"/>
<path fill-rule="evenodd" clip-rule="evenodd" fill="#FFFFFF" d="M369.928,478.209C369.928,542.046,398.864,470.875,369.928,478.209  L369.928,478.209z"/>
<path fill-rule="evenodd" clip-rule="evenodd" fill="#DE2110" d="M396.178,478.209C368.247,474.937,396.178,538.963,396.178,478.209  L396.178,478.209z"/>
<path fill="none" stroke="#000000" stroke-width="0.5" stroke-linecap="square" stroke-miterlimit="10" d="M396.178,505.209  c-12.037,0-24.074,0-36.111,0c-4.354,0-5.814-23.939-2.889-27c3.641-3.809,30.331,0,36.111,0  C399.454,478.209,396.178,499.418,396.178,505.209z"/>
<path fill-rule="evenodd" clip-rule="evenodd" fill="#FFFFFF" stroke="#000000" stroke-width="0.75" stroke-linecap="square" stroke-miterlimit="10" d="  M354.928,472.209c-11.915,0.484-43.994-0.169-48.75,15.75c-7.791,26.077,42.399,6.894,51,4.5  C351.901,484.517,356.44,479.963,354.928,472.209z"/>
<path fill-rule="evenodd" clip-rule="evenodd" fill="#E9CCA8" stroke="#000000" stroke-width="0.75" stroke-linecap="square" stroke-miterlimit="10" d="  M363.928,466.959c8.556-3.445,12.986-6.654,17.25,5.25C375.534,470.634,369.22,469.507,363.928,466.959z"/>
<path fill-rule="evenodd" clip-rule="evenodd" fill="#E9CCA8" stroke="#000000" stroke-width="0.75" stroke-linecap="square" stroke-miterlimit="10" d="  M359.428,470.709c10.179-8.786,41.009-0.616,21,3.75C386.874,499.335,332.412,492.061,359.428,470.709z"/>
</svg>