<svg xmlns="http://www.w3.org/2000/svg" xmlns:xlink="http://www.w3.org/1999/xlink" version="1.1" id="Layer_1" x="0px" y="0px" enable-background="new 0 0 822.05 841.89" xml:space="preserve" viewBox="308.53 342.83 203.72 158.68">
<path fill-rule="evenodd" clip-rule="evenodd" fill="#D12327" stroke="#000000" stroke-width="1.25" stroke-linecap="square" stroke-miterlimit="10" d="  M418.625,477.265c-11.685,0-50.366-6.564-27-30c1.294-1.298,25.706-1.298,27,0C421.898,450.548,418.625,472.082,418.625,477.265z"/>
<path fill-rule="evenodd" clip-rule="evenodd" fill="#EED6B6" stroke="#000000" stroke-width="1.25" stroke-linecap="square" stroke-miterlimit="10" d="  M421.625,420.265c11.971-1.104,20.342-11.271,20.25-12c13.236-4.317,26.907,3.125,36,11.25  c-8.136,28.746-3.641,39.327-34.031,41.016C424.626,461.598,410.854,435.907,421.625,420.265z"/>
<path fill="none" stroke="#000000" stroke-width="1.25" stroke-linecap="square" stroke-miterlimit="10" d="M489.875,478.765  c0.23-7.731-0.78-19.389-1.5-28.5C488.875,459.765,489.375,469.265,489.875,478.765z"/>
<path fill-rule="evenodd" clip-rule="evenodd" fill="#F1EC14" stroke="#000000" stroke-width="1.25" stroke-linecap="square" stroke-miterlimit="10" d="  M417.875,448.765c-1.25,10-2.5,20-3.75,30C415.375,468.765,416.625,458.765,417.875,448.765z"/>
<path fill-rule="evenodd" clip-rule="evenodd" fill="#EA9913" stroke="#000000" stroke-width="1.25" stroke-linecap="square" stroke-miterlimit="10" d="  M489.125,499.015c-0.75-12.25-1.5-24.5-2.25-36.75c1.294,21.131-4.898,45.617,24.75,36.75c-5.139-27.489-7.537-85.312-38.25-77.25  c-5.975,1.568-8.588,13.418-18.375,15.375c-11.767,2.354-13.592-8.197-21.375-11.625c-6.064-2.67,0.653-10.218-8.777-9.361  c-11.585,1.053-27.131,1.203-37.723,6.361c-8.812,4.292-22.139,8.479-21,21c2.303,25.325,26.163,3.917,39,11.25  c11.125,6.355,5.936,29.504,4.5,44.25C436.125,499.015,462.625,499.015,489.125,499.015z"/>
<path fill-rule="evenodd" clip-rule="evenodd" fill="#785929" stroke="#000000" stroke-width="1.25" stroke-linecap="square" stroke-miterlimit="10" d="  M420.875,376.015c-7.93,16.123-3.751,39.793,18.75,33.75C435.13,396.6,434.569,380.806,420.875,376.015z"/>
<path fill-rule="evenodd" clip-rule="evenodd" fill="#EED6B6" stroke="#000000" stroke-width="1.25" stroke-linecap="square" stroke-miterlimit="10" d="  M485.375,372.265c4.441,56.091-68.713,56.129-64.5-6.75C441.721,374.284,463.15,376.855,485.375,372.265z"/>
<path fill-rule="evenodd" clip-rule="evenodd" fill="#785929" stroke="#000000" stroke-width="1.25" stroke-linecap="square" stroke-miterlimit="10" d="  M420.875,363.265c-14.805,33.85,65.26-5.313,48.75,45C518.239,414.488,468.071,298.287,420.875,363.265z"/>
<path fill-rule="evenodd" clip-rule="evenodd" fill="#EED6B6" stroke="#000000" stroke-width="1.25" stroke-linecap="square" stroke-miterlimit="10" d="  M339.875,432.265c12.238-1.761,20.456-11.74,20.25-12.75c35.989-10.551,34.595,20.312,28.972,42  C381.459,490.976,316.653,464.219,339.875,432.265z"/>
<path fill-rule="evenodd" clip-rule="evenodd" fill="#EED6B6" stroke="#000000" stroke-width="1.25" stroke-linecap="square" stroke-miterlimit="10" d="  M337.625,390.265c4.003,50.812,74.462,45.706,55.5-12.75C377.586,388.522,356.267,391.587,337.625,390.265z"/>
<path fill-rule="evenodd" clip-rule="evenodd" fill="#392270" stroke="#000000" stroke-width="1.25" stroke-linecap="square" stroke-miterlimit="10" d="  M392.375,374.515c-19.393,11.319-43.341,14.839-65.625,13.125c-41.468-3.19,3.375-8.16,3.375-15.75  C330.125,338.992,388.818,339.845,392.375,374.515z"/>
<path fill-rule="evenodd" clip-rule="evenodd" fill="#392270" d="M331.625,370.765c-6.614,18.714,22.702,14.882,35.25,14.25  C355.125,380.265,343.375,375.515,331.625,370.765z"/>
<path fill="none" stroke="#000000" stroke-width="1.25" stroke-linecap="square" stroke-miterlimit="10" d="M331.625,370.765  c-6.614,18.714,22.702,14.882,35.25,14.25"/>
<path fill="none" stroke="#000000" stroke-width="1.25" stroke-linecap="square" stroke-miterlimit="10" d="M393.125,498.265  c0.133-10.218-1.285-24.414-2.25-36C391.625,474.265,392.375,486.265,393.125,498.265z"/>
<path fill-rule="evenodd" clip-rule="evenodd" fill="#392270" stroke="#000000" stroke-width="1.25" stroke-linecap="square" stroke-miterlimit="10" d="  M336.125,461.515c-2,12.5-4,25-6,37.5C332.917,488.12,334.415,473.732,336.125,461.515z"/>
<path fill-rule="evenodd" clip-rule="evenodd" fill="#EA9913" stroke="#000000" stroke-width="1.25" stroke-linecap="square" stroke-miterlimit="10" d="  M336.125,461.515c-1.75,12.5-3.5,25-5.25,37.5c27.75,0,55.5,0,83.25,0c-4.795-23.779-6.468-51.229-19.5-72  c-11.528,30.968-29.405,7.072-44.25,3.75c-34.506-7.723-35.6,37.56-40.5,68.25C337.291,507.704,333.078,480.561,336.125,461.515z"/>
<path fill-rule="evenodd" clip-rule="evenodd" fill="#62231C" stroke="#000000" stroke-width="1.25" stroke-linecap="square" stroke-miterlimit="10" d="  M390.125,404.515c-8.986,2.902-12.461,7.849-22.5,4.5C374.298,428.022,387.733,422.164,390.125,404.515z"/>
<path fill-rule="evenodd" clip-rule="evenodd" fill="#62231C" stroke="#000000" stroke-width="1.25" stroke-linecap="square" stroke-miterlimit="10" d="  M456.125,397.015c-9.174,1.809-13.023,6.47-22.5,1.5C437.085,418.45,451.58,414.032,456.125,397.015z"/>
<path fill-rule="evenodd" clip-rule="evenodd" fill="#EED6B6" stroke="#000000" stroke-width="1.25" stroke-linecap="square" stroke-miterlimit="10" d="  M479.375,419.515c5.082,15.349,25.974,11.279,19.5,3C492.747,414.677,466.866,406.039,479.375,419.515z"/>
<path fill-rule="evenodd" clip-rule="evenodd" fill="#EED6B6" stroke="#000000" stroke-width="1.25" stroke-linecap="square" stroke-miterlimit="10" d="  M340.625,430.015c-4.286,15.31-24.966,12.685-18.75,3.75C327.735,425.342,349.605,417.058,340.625,430.015z"/>
</svg>