<svg xmlns="http://www.w3.org/2000/svg" xmlns:xlink="http://www.w3.org/1999/xlink" version="1.1" id="Layer_1" x="0px" y="0px" enable-background="new 0 0 822.05 841.89" xml:space="preserve" viewBox="281.29 253.55 260.25 331.28">
<path fill-rule="evenodd" clip-rule="evenodd" fill="#FFDB78" stroke="#000000" stroke-width="2" stroke-linecap="square" stroke-miterlimit="10" d="  M310.17,322.804c-16.408-20.51-30.316-27.809-13.5-52.5c26.351,37.511,51.732,75.84,80.25,111.75  C351.971,397.281,323.766,339.799,310.17,322.804z"/>
<path fill-rule="evenodd" clip-rule="evenodd" fill="#FFDB78" stroke="#000000" stroke-width="2" stroke-linecap="square" stroke-miterlimit="10" d="  M356.67,316.804c-8.055-24.668-18.756-36.796,5.25-54c12.111,44.096,23.233,88.543,37.5,132  C370.67,401.42,363.661,337.378,356.67,316.804z"/>
<path fill-rule="evenodd" clip-rule="evenodd" fill="#FFDB78" stroke="#000000" stroke-width="2" stroke-linecap="square" stroke-miterlimit="10" d="  M389.67,322.054c-8.778-24.785-19.301-36.02,4.5-54c12.365,43.893,23.097,88.482,39.002,131.25  C404.582,407.277,396.787,342.416,389.67,322.054z"/>
<path fill-rule="evenodd" clip-rule="evenodd" fill="#FFDB78" stroke="#000000" stroke-width="2" stroke-linecap="square" stroke-miterlimit="10" d="  M440.672,308.554c-8.925-25.198-19.355-36.169,5.25-54c12.418,44.085,23.988,88.468,38.25,132  C455.432,393.148,447.866,329.139,440.672,308.554z"/>
<path fill-rule="evenodd" clip-rule="evenodd" fill="#FFDB78" stroke="#000000" stroke-width="2" stroke-linecap="square" stroke-miterlimit="10" d="  M333.42,334.054c-4-23-8-46-12-69c38.649-2.77,30.747,70.653,33,98.25C345.332,354.484,326.56,344.468,333.42,334.054z"/>
<path fill-rule="evenodd" clip-rule="evenodd" fill="#FFDB78" stroke="#000000" stroke-width="2" stroke-linecap="square" stroke-miterlimit="10" d="  M488.672,312.304c-3.596-26.194-11.982-39.733,15.75-51.75c3.097,45.515,5.115,91.188,10.5,136.5  C484.798,398.623,491.283,334.001,488.672,312.304z"/>
<path fill-rule="evenodd" clip-rule="evenodd" fill="#FFDB78" stroke="#000000" stroke-width="2" stroke-linecap="square" stroke-miterlimit="10" d="  M460.922,310.804c0-26.483-6.151-40.49,22.5-49.5c-2.489,45.739-5.479,91.459-6.75,137.25  C447.868,395.295,461.12,332.4,460.922,310.804z"/>
<path fill-rule="evenodd" clip-rule="evenodd" fill="#FFDB78" stroke="#000000" stroke-width="2" stroke-linecap="square" stroke-miterlimit="10" d="  M418.172,338.554c-4.001-23-8.001-46-12.002-69c38.651-2.771,30.749,70.651,33.002,98.25  C430.083,358.983,411.307,348.967,418.172,338.554z"/>
<path fill-rule="evenodd" clip-rule="evenodd" fill="#FFDB78" stroke="#000000" stroke-width="2" stroke-linecap="square" stroke-miterlimit="10" d="  M303.42,356.554c-16.408-20.51-30.316-27.809-13.5-52.5c26.351,37.511,51.732,75.84,80.25,111.75  C344.649,432.743,317.059,374.061,303.42,356.554z"/>
<path fill-rule="evenodd" clip-rule="evenodd" fill="#FFDB78" stroke="#000000" stroke-width="2" stroke-linecap="square" stroke-miterlimit="10" d="  M398.67,368.554c-8.778-24.785-19.301-36.02,4.5-54c12.442,44.169,23.727,88.72,39.002,132  C413.432,453.148,405.865,389.139,398.67,368.554z"/>
<path fill-rule="evenodd" clip-rule="evenodd" fill="#FFDB78" stroke="#000000" stroke-width="2" stroke-linecap="square" stroke-miterlimit="10" d="  M365.67,421.054c1.75-17,3.5-34,5.25-51c19,8.143,27.801,5.315,22.524,25.506c-4.508,17.248-9.016,34.496-13.524,51.744  C362.287,447.073,357.864,436.529,365.67,421.054z"/>
<path fill-rule="evenodd" clip-rule="evenodd" fill="#FFDB78" stroke="#000000" stroke-width="2" stroke-linecap="square" stroke-miterlimit="10" d="  M456.422,410.554c1.75-17.25,3.5-34.5,5.25-51.75c18.57,8.739,26.93,6.283,21.936,26.256c-4.312,17.248-8.623,34.496-12.936,51.744  C453.039,436.573,448.616,426.029,456.422,410.554z"/>
<path fill-rule="evenodd" clip-rule="evenodd" fill="#FFDB78" stroke="#000000" stroke-width="2" stroke-linecap="square" stroke-miterlimit="10" d="  M511.922,370.804c1.75-17.25,3.5-34.5,5.25-51.75c18.725,8.261,26.926,5.546,21.936,25.506  c-4.312,17.248-8.623,34.496-12.936,51.744C508.847,396.128,504.157,386.046,511.922,370.804z"/>
<path fill-rule="evenodd" clip-rule="evenodd" fill="#FFDB78" stroke="#000000" stroke-width="2" stroke-linecap="square" stroke-miterlimit="10" d="  M350.67,383.554c-4-23-8-46-12-69c38.237-2.725,30.942,69.979,33.75,97.5C363.402,403.567,345.537,394.155,350.67,383.554z"/>
<path fill-rule="evenodd" clip-rule="evenodd" fill="#FFDB78" stroke="#000000" stroke-width="2" stroke-linecap="square" stroke-miterlimit="10" d="  M338.67,365.554c-3.75-23-7.5-46-11.25-69c-37.292,9.543-5.913,76.85,0.75,103.5C333.772,388.849,347.523,373.737,338.67,365.554z"/>
<path fill-rule="evenodd" clip-rule="evenodd" fill="#FFDB78" stroke="#000000" stroke-width="2" stroke-linecap="square" stroke-miterlimit="10" d="  M433.172,360.304c-3.596-26.194-11.982-39.733,15.75-51.75c3.097,45.515,5.115,91.188,10.5,136.5  C430.3,446.083,435.933,381.599,433.172,360.304z"/>
<path fill-rule="evenodd" clip-rule="evenodd" fill="#FFDB78" stroke="#000000" stroke-width="2" stroke-linecap="square" stroke-miterlimit="10" d="  M505.922,328.804c6.659-25.099,4.353-40.385,33.75-42c-13.708,43.615-28.363,86.967-39.75,131.25  C472.111,407.789,500.701,350.089,505.922,328.804z"/>
<path fill-rule="evenodd" clip-rule="evenodd" fill="#FFDB78" stroke="#000000" stroke-width="2" stroke-linecap="square" stroke-miterlimit="10" d="  M407.67,367.804c-4-23-8-46-12-69c38.319-2.747,30.933,70.62,33.752,98.25C420.42,388.317,402.596,378.52,407.67,367.804z"/>
<path fill-rule="evenodd" clip-rule="evenodd" fill="#FFDB78" stroke="#000000" stroke-width="2" stroke-linecap="square" stroke-miterlimit="10" d="  M391.17,418.804c-4-23-8-46-12-69c39.152-3.063,30.876,70.09,33.75,98.25C403.918,439.317,386.096,429.519,391.17,418.804z"/>
<path fill-rule="evenodd" clip-rule="evenodd" fill="#FFDB78" stroke="#000000" stroke-width="2" stroke-linecap="square" stroke-miterlimit="10" d="  M488.672,377.554c-4-23-8-46-12-69c38.309-3.999,30.961,70.171,33.75,97.5C501.404,397.567,483.539,388.155,488.672,377.554z"/>
<path fill-rule="evenodd" clip-rule="evenodd" fill="#ED1C24" stroke="#000000" stroke-width="2" stroke-linecap="square" stroke-miterlimit="10" d="  M291.42,358.804c8.405,63.578,16.811,127.156,25.216,190.734c3.556,26.895-0.1,33.506,24.284,34.266  c23.151,0.721,48.586-10.396,72.75-10.5c40.22-0.173,91.497,29.874,98.138-21.636c8.288-64.288,16.576-128.576,24.864-192.864  c-49.309,0-33.997,2.899-56.25,39c-13.907,22.562-37.911,40.5-65.626,40.5c-23.533,0-51.99-10.786-69.376-27  C319.7,387.318,329.621,360.48,291.42,358.804z"/>
</svg>