<svg xmlns="http://www.w3.org/2000/svg" xmlns:xlink="http://www.w3.org/1999/xlink" version="1.1" id="Layer_1" x="0px" y="0px" enable-background="new 0 0 822.05 841.89" xml:space="preserve" viewBox="215.57 301.03 389.02 239.75">
<path fill-rule="evenodd" clip-rule="evenodd" fill="#31567C" stroke="#000000" stroke-width="2" stroke-linecap="square" stroke-miterlimit="10" d="  M264.203,361.277c-12.811,1.684-53.656,22.439-46.875,36c12.7,25.399,31.525,48.399,51.514,68.389  c48.591,48.591,110.75,74.111,179.336,74.111c26.506,0,43.536,0.415,46.277-29.25c1.175-12.711-1.892-39.796-15.05-46.103  C407.671,430.042,335.937,395.659,264.203,361.277z"/>
<path fill="none" stroke="#000000" stroke-width="2" stroke-linecap="square" stroke-miterlimit="10" d="M401.453,364.277  c36.207,1.14,152.805,14.304,154.502-44.25"/>
<path fill="none" stroke="#000000" stroke-width="2" stroke-linecap="square" stroke-miterlimit="10" d="M525.205,466.277  c60.312-34.505,106.364-99.806,58.5-164.25"/>
<path fill-rule="evenodd" clip-rule="evenodd" fill="#0071BC" stroke="#000000" stroke-width="2" stroke-linecap="square" stroke-miterlimit="10" d="  M483.955,493.277c-42.879,55.678-261.911-67.678-229.502-125.25C287.186,309.879,507.507,427.598,483.955,493.277z"/>
<path fill-rule="evenodd" clip-rule="evenodd" fill="#00AEEF" stroke="#000000" stroke-width="2" stroke-linecap="square" stroke-miterlimit="10" d="  M438.955,465.527c-26.663,24.317-142.255-33.767-124.502-67.5C331.998,364.689,445.637,429.739,438.955,465.527z"/>
</svg>