<svg xmlns="http://www.w3.org/2000/svg" xmlns:xlink="http://www.w3.org/1999/xlink" version="1.1" id="Layer_1" x="0px" y="0px" enable-background="new 0 0 822.05 841.89" xml:space="preserve" viewBox="201.99 252.38 417.5 343.55">
<path fill-rule="evenodd" clip-rule="evenodd" fill="#FFF200" stroke="#000000" stroke-width="2" stroke-linecap="square" stroke-miterlimit="10" d="  M376.988,335.132c24.732-15.105,114.892-50.563,114.002-81.75c0.83,31.676,90.717,64.039,116.25,78.75  C530.489,333.132,453.739,334.132,376.988,335.132z"/>
<path fill-rule="evenodd" clip-rule="evenodd" fill="#BCBEC0" stroke="#000000" stroke-width="2" stroke-linecap="square" stroke-miterlimit="10" d="  M387.488,431.13c-9.538-8.655-3.75-46.615-3.75-62.998c1.25,0,2.5,0,3.75,0C387.488,389.132,387.488,410.131,387.488,431.13z"/>
<path fill-rule="evenodd" clip-rule="evenodd" fill="#BCBEC0" stroke="#000000" stroke-width="2" stroke-linecap="square" stroke-miterlimit="10" d="  M457.24,430.38c-9.538-8.656-3.75-46.615-3.75-62.998c1.25,0,2.5,0,3.75,0C457.24,388.382,457.24,409.381,457.24,430.38z"/>
<path fill-rule="evenodd" clip-rule="evenodd" fill="#BCBEC0" stroke="#000000" stroke-width="2" stroke-linecap="square" stroke-miterlimit="10" d="  M522.49,428.88c-9.493-8.445-3.75-46.086-3.75-62.248c1.25,0,2.5,0,3.75,0C522.49,387.382,522.49,408.131,522.49,428.88z"/>
<path fill-rule="evenodd" clip-rule="evenodd" fill="#BCBEC0" stroke="#000000" stroke-width="2" stroke-linecap="square" stroke-miterlimit="10" d="  M599.74,431.13c-9.538-8.655-3.75-46.615-3.75-62.998c1.25,0,2.5,0,3.75,0C599.74,389.132,599.74,410.131,599.74,431.13z"/>
<path fill-rule="evenodd" clip-rule="evenodd" fill="#BCBEC0" stroke="#000000" stroke-width="2" stroke-linecap="square" stroke-miterlimit="10" d="  M563.74,429.63c-9.493-8.445-3.75-46.086-3.75-62.248c1.25,0,2.5,0,3.75,0C563.74,388.132,563.74,408.881,563.74,429.63z"/>
<path fill-rule="evenodd" clip-rule="evenodd" fill="#BCBEC0" stroke="#000000" stroke-width="2" stroke-linecap="square" stroke-miterlimit="10" d="  M421.99,430.38c-10.69-7.065-4.5-46.91-4.5-62.998c1.5,0,3,0,4.5,0C421.99,388.382,421.99,409.381,421.99,430.38z"/>
<path fill-rule="evenodd" clip-rule="evenodd" fill="#6D6F71" stroke="#000000" stroke-width="2" stroke-linecap="square" stroke-miterlimit="10" d="  M605.74,437.13c-40.362,0-80.726,0-121.088,0c-26.633,0-53.266,0-79.898,0c-1.378,0-41.757,2.771-30.016-8.25  c13.916-13.063,102.122,0,121.088,0C513.768,428.88,604.653,419.052,605.74,437.13z"/>
<path fill-rule="evenodd" clip-rule="evenodd" fill="#6D6F71" stroke="#000000" stroke-width="2" stroke-linecap="square" stroke-miterlimit="10" d="  M528.49,449.88c-7.159,0-75.837,2.95-62.25-10.5C475.855,429.862,528.419,435.344,528.49,449.88z"/>
<path fill-rule="evenodd" clip-rule="evenodd" fill="#ED1C24" stroke="#000000" stroke-width="2" stroke-linecap="square" stroke-miterlimit="10" d="  M442.99,333.632c16-23.25,32-46.5,48-69.75c10.5,23.25,21,46.5,31.5,69.75C495.99,333.632,469.49,333.632,442.99,333.632z"/>
<path fill-rule="evenodd" clip-rule="evenodd" fill="#EC008C" stroke="#000000" stroke-width="2" stroke-linecap="square" stroke-miterlimit="10" d="  M360.488,333.632c13.784,33.372,11.588,34.461,46.974,33.708c27.632-0.588,55.266-1.458,82.905-1.458c28.586,0,57.172,0,85.757,0  c36.821,0,35.294,3.253,42.366-35.25C532.489,331.632,446.489,332.632,360.488,333.632z"/>
<path fill-rule="evenodd" clip-rule="evenodd" fill="#F9CBDF" stroke="#000000" stroke-width="2" stroke-linecap="square" stroke-miterlimit="10" d="  M392.738,349.382C376.491,379.078,371.63,321.499,392.738,349.382L392.738,349.382z"/>
<path fill-rule="evenodd" clip-rule="evenodd" fill="#F9CBDF" stroke="#000000" stroke-width="2" stroke-linecap="square" stroke-miterlimit="10" d="  M433.99,349.382C418.031,378.05,412.614,322.241,433.99,349.382L433.99,349.382z"/>
<path fill-rule="evenodd" clip-rule="evenodd" fill="#F9CBDF" stroke="#000000" stroke-width="2" stroke-linecap="square" stroke-miterlimit="10" d="  M475.24,349.382C458.993,379.078,454.132,321.499,475.24,349.382L475.24,349.382z"/>
<path fill-rule="evenodd" clip-rule="evenodd" fill="#F9CBDF" stroke="#000000" stroke-width="2" stroke-linecap="square" stroke-miterlimit="10" d="  M520.24,349.382C501.194,375.677,500.743,324.393,520.24,349.382L520.24,349.382z"/>
<path fill-rule="evenodd" clip-rule="evenodd" fill="#F9CBDF" stroke="#000000" stroke-width="2" stroke-linecap="square" stroke-miterlimit="10" d="  M562.99,349.382C546.743,379.078,541.882,321.499,562.99,349.382L562.99,349.382z"/>
<path fill-rule="evenodd" clip-rule="evenodd" fill="#F9CBDF" stroke="#000000" stroke-width="2" stroke-linecap="square" stroke-miterlimit="10" d="  M605.74,349.382C588.156,376.12,586.575,323.798,605.74,349.382L605.74,349.382z"/>
<path fill-rule="evenodd" clip-rule="evenodd" fill="#FFF200" stroke="#000000" stroke-width="2" stroke-linecap="square" stroke-miterlimit="10" d="  M219.488,399.632c24.208-14.785,116.516-51.587,113.25-82.5c0.873,31.802,90.659,64.585,116.252,79.5  C372.49,397.632,295.989,398.632,219.488,399.632z"/>
<path fill-rule="evenodd" clip-rule="evenodd" fill="#BCBEC0" stroke="#000000" stroke-width="2" stroke-linecap="square" stroke-miterlimit="10" d="  M229.988,495.63c-10.69-7.066-4.5-46.911-4.5-63c1.5,0,3,0,4.5,0C229.988,453.63,229.988,474.63,229.988,495.63z"/>
<path fill-rule="evenodd" clip-rule="evenodd" fill="#BCBEC0" stroke="#000000" stroke-width="2" stroke-linecap="square" stroke-miterlimit="10" d="  M299.738,494.88c-9.538-8.656-3.75-46.616-3.75-63c1.25,0,2.5,0,3.75,0C299.738,452.88,299.738,473.88,299.738,494.88z"/>
<path fill-rule="evenodd" clip-rule="evenodd" fill="#BCBEC0" stroke="#000000" stroke-width="2" stroke-linecap="square" stroke-miterlimit="10" d="  M364.238,493.38c-9.538-8.656-3.75-46.616-3.75-63c1.25,0,2.5,0,3.75,0C364.238,451.38,364.238,472.38,364.238,493.38z"/>
<path fill-rule="evenodd" clip-rule="evenodd" fill="#BCBEC0" stroke="#000000" stroke-width="2" stroke-linecap="square" stroke-miterlimit="10" d="  M441.49,494.88c-9.494-8.446-3.75-46.088-3.75-62.25c1.25,0,2.5,0,3.75,0C441.49,453.38,441.49,474.13,441.49,494.88z"/>
<path fill-rule="evenodd" clip-rule="evenodd" fill="#BCBEC0" stroke="#000000" stroke-width="2" stroke-linecap="square" stroke-miterlimit="10" d="  M405.488,494.13c-9.538-8.656-3.75-46.616-3.75-63c1.25,0,2.5,0,3.75,0C405.488,452.13,405.488,473.13,405.488,494.13z"/>
<path fill-rule="evenodd" clip-rule="evenodd" fill="#BCBEC0" stroke="#000000" stroke-width="2" stroke-linecap="square" stroke-miterlimit="10" d="  M263.738,494.88c-9.538-8.656-3.75-46.616-3.75-63c1.25,0,2.5,0,3.75,0C263.738,452.88,263.738,473.88,263.738,494.88z"/>
<path fill-rule="evenodd" clip-rule="evenodd" fill="#6D6F71" stroke="#000000" stroke-width="2" stroke-linecap="square" stroke-miterlimit="10" d="  M448.24,500.88c-40.363,0-80.725,0-121.088,0c-26.633,0-53.265,0-79.898,0c-1.613,0-40.497,2.896-30.016-7.5  c12.928-12.824,102.921,0,121.088,0C355.989,493.38,446.344,483.896,448.24,500.88z"/>
<path fill-rule="evenodd" clip-rule="evenodd" fill="#6D6F71" stroke="#000000" stroke-width="2" stroke-linecap="square" stroke-miterlimit="10" d="  M370.988,513.63c-7.385,0-74.485,2.97-62.25-9.75C317.688,494.576,370.463,500.335,370.988,513.63z"/>
<path fill-rule="evenodd" clip-rule="evenodd" fill="#ED1C24" stroke="#000000" stroke-width="2" stroke-linecap="square" stroke-miterlimit="10" d="  M285.488,397.382c15.75-23.25,31.5-46.5,47.25-69.75c10.5,23.25,21,46.5,31.5,69.75  C337.988,397.382,311.738,397.382,285.488,397.382z"/>
<path fill-rule="evenodd" clip-rule="evenodd" fill="#EC008C" stroke="#000000" stroke-width="2" stroke-linecap="square" stroke-miterlimit="10" d="  M202.988,397.382c13.745,33.276,11.253,34.099,46.224,33.727c27.634-0.294,55.269-0.603,82.903-0.865  c28.761-0.274,57.489-0.767,86.244-0.127c36.572,0.812,34.911,2.959,41.881-34.984C374.49,395.882,288.739,396.632,202.988,397.382z  "/>
<path fill-rule="evenodd" clip-rule="evenodd" fill="#F9CBDF" stroke="#000000" stroke-width="2" stroke-linecap="square" stroke-miterlimit="10" d="  M234.488,413.882C214.189,442.311,218.582,383.985,234.488,413.882L234.488,413.882z"/>
<path fill-rule="evenodd" clip-rule="evenodd" fill="#F9CBDF" stroke="#000000" stroke-width="2" stroke-linecap="square" stroke-miterlimit="10" d="  M275.738,413.882C254.628,441.76,259.492,384.189,275.738,413.882L275.738,413.882z"/>
<path fill-rule="evenodd" clip-rule="evenodd" fill="#F9CBDF" stroke="#000000" stroke-width="2" stroke-linecap="square" stroke-miterlimit="10" d="  M317.738,413.882C295.634,440.673,301.367,385.561,317.738,413.882L317.738,413.882z"/>
<path fill-rule="evenodd" clip-rule="evenodd" fill="#F9CBDF" stroke="#000000" stroke-width="2" stroke-linecap="square" stroke-miterlimit="10" d="  M361.988,413.882C340.878,441.76,345.742,384.189,361.988,413.882L361.988,413.882z"/>
<path fill-rule="evenodd" clip-rule="evenodd" fill="#F9CBDF" stroke="#000000" stroke-width="2" stroke-linecap="square" stroke-miterlimit="10" d="  M405.488,413.882C383.384,440.673,389.117,385.561,405.488,413.882L405.488,413.882z"/>
<path fill-rule="evenodd" clip-rule="evenodd" fill="#F9CBDF" stroke="#000000" stroke-width="2" stroke-linecap="square" stroke-miterlimit="10" d="  M448.24,413.882C426.136,440.673,431.869,385.561,448.24,413.882L448.24,413.882z"/>
<path fill-rule="evenodd" clip-rule="evenodd" fill="#FFF200" stroke="#000000" stroke-width="2" stroke-linecap="square" stroke-miterlimit="10" d="  M329.738,480.63c24.017-14.828,115.895-52.113,113.252-82.498c0.83,31.676,90.717,64.037,116.25,78.748  C482.739,478.13,406.239,479.38,329.738,480.63z"/>
<path fill-rule="evenodd" clip-rule="evenodd" fill="#BCBEC0" stroke="#000000" stroke-width="2" stroke-linecap="square" stroke-miterlimit="10" d="  M340.238,575.88c-9.494-8.446-3.75-46.088-3.75-62.25c1.25,0,2.5,0,3.75,0C340.238,534.38,340.238,555.13,340.238,575.88z"/>
<path fill-rule="evenodd" clip-rule="evenodd" fill="#BCBEC0" stroke="#000000" stroke-width="2" stroke-linecap="square" stroke-miterlimit="10" d="  M409.988,575.13c-9.494-8.446-3.75-46.088-3.75-62.25c1.25,0,2.5,0,3.75,0C409.988,533.63,409.988,554.38,409.988,575.13z"/>
<path fill-rule="evenodd" clip-rule="evenodd" fill="#BCBEC0" stroke="#000000" stroke-width="2" stroke-linecap="square" stroke-miterlimit="10" d="  M474.49,573.63c-9.494-8.446-3.75-46.088-3.75-62.25c1.25,0,2.5,0,3.75,0C474.49,532.13,474.49,552.88,474.49,573.63z"/>
<path fill-rule="evenodd" clip-rule="evenodd" fill="#BCBEC0" stroke="#000000" stroke-width="2" stroke-linecap="square" stroke-miterlimit="10" d="  M551.74,575.88c-9.538-8.656-3.75-46.616-3.75-63c1.25,0,2.5,0,3.75,0C551.74,533.88,551.74,554.88,551.74,575.88z"/>
<path fill-rule="evenodd" clip-rule="evenodd" fill="#BCBEC0" stroke="#000000" stroke-width="2" stroke-linecap="square" stroke-miterlimit="10" d="  M515.74,575.13c-9.538-8.656-3.75-46.616-3.75-63c1.25,0,2.5,0,3.75,0C515.74,533.13,515.74,554.13,515.74,575.13z"/>
<path fill-rule="evenodd" clip-rule="evenodd" fill="#BCBEC0" stroke="#000000" stroke-width="2" stroke-linecap="square" stroke-miterlimit="10" d="  M373.988,575.13c-9.494-8.446-3.75-46.088-3.75-62.25c1.25,0,2.5,0,3.75,0C373.988,533.63,373.988,554.38,373.988,575.13z"/>
<path fill-rule="evenodd" clip-rule="evenodd" fill="#6D6F71" stroke="#000000" stroke-width="2" stroke-linecap="square" stroke-miterlimit="10" d="  M558.49,581.88c-40.362,0-80.726,0-121.088,0c-26.633,0-53.265,0-79.898,0c-1.378,0-41.757,2.771-30.016-8.25  c13.916-13.062,102.122,0,121.088,0C466.518,573.63,557.403,563.802,558.49,581.88z"/>
<path fill-rule="evenodd" clip-rule="evenodd" fill="#6D6F71" stroke="#000000" stroke-width="2" stroke-linecap="square" stroke-miterlimit="10" d="  M481.24,594.63c-7.385,0-74.485,2.97-62.25-9.75C427.94,575.576,480.715,581.335,481.24,594.63z"/>
<path fill-rule="evenodd" clip-rule="evenodd" fill="#ED1C24" stroke="#000000" stroke-width="2" stroke-linecap="square" stroke-miterlimit="10" d="  M395.738,478.38c15.75-23.249,31.501-46.499,47.252-69.748c10.5,23.249,21,46.499,31.5,69.748  C448.239,478.38,421.989,478.38,395.738,478.38z"/>
<path fill-rule="evenodd" clip-rule="evenodd" fill="#EC008C" stroke="#000000" stroke-width="2" stroke-linecap="square" stroke-miterlimit="10" d="  M313.238,478.38c13.635,33.012,11.294,34.451,46.224,33.708c27.678-0.589,55.357-1.458,83.042-1.458  c28.797,0,57.58-0.168,86.369,0.486c36.368,0.826,34.795,1.401,41.616-35.736C484.739,476.38,398.989,477.38,313.238,478.38z"/>
<path fill-rule="evenodd" clip-rule="evenodd" fill="#F9CBDF" stroke="#000000" stroke-width="2" stroke-linecap="square" stroke-miterlimit="10" d="  M344.738,494.13C327.154,520.868,325.573,468.546,344.738,494.13L344.738,494.13z"/>
<path fill-rule="evenodd" clip-rule="evenodd" fill="#F9CBDF" stroke="#000000" stroke-width="2" stroke-linecap="square" stroke-miterlimit="10" d="  M385.988,494.13C369.741,523.826,364.88,466.247,385.988,494.13L385.988,494.13z"/>
<path fill-rule="evenodd" clip-rule="evenodd" fill="#F9CBDF" stroke="#000000" stroke-width="2" stroke-linecap="square" stroke-miterlimit="10" d="  M427.99,494.13C411.617,522.455,405.885,467.333,427.99,494.13L427.99,494.13z"/>
<path fill-rule="evenodd" clip-rule="evenodd" fill="#F9CBDF" stroke="#000000" stroke-width="2" stroke-linecap="square" stroke-miterlimit="10" d="  M472.24,494.13C455.993,523.826,451.132,466.247,472.24,494.13L472.24,494.13z"/>
<path fill-rule="evenodd" clip-rule="evenodd" fill="#F9CBDF" stroke="#000000" stroke-width="2" stroke-linecap="square" stroke-miterlimit="10" d="  M515.74,494.13C499.368,522.454,493.637,467.334,515.74,494.13L515.74,494.13z"/>
<path fill-rule="evenodd" clip-rule="evenodd" fill="#F9CBDF" stroke="#000000" stroke-width="2" stroke-linecap="square" stroke-miterlimit="10" d="  M558.49,494.13C542.531,522.798,537.114,466.989,558.49,494.13L558.49,494.13z"/>
</svg>