<svg xmlns="http://www.w3.org/2000/svg" xmlns:xlink="http://www.w3.org/1999/xlink" version="1.1" id="Layer_1" x="0px" y="0px" enable-background="new 0 0 822.05 841.89" xml:space="preserve" viewBox="339.76 343.27 140.5 157.38">
<path fill-rule="evenodd" clip-rule="evenodd" fill="#FFFFFF" stroke="#000000" stroke-width="2" stroke-linecap="square" stroke-miterlimit="10" d="  M466.76,438.921c-1.462,80.79-126.004,81.163-126.004,0C340.756,357.34,465.643,357.683,466.76,438.921z"/>
<path fill-rule="evenodd" clip-rule="evenodd" fill="#FFFFFF" d="M403.756,483.921v12V483.921z"/>
<line fill="none" stroke="#000000" stroke-width="2" stroke-linecap="square" stroke-miterlimit="10" x1="403.756" y1="483.921" x2="403.756" y2="495.921"/>
<path fill-rule="evenodd" clip-rule="evenodd" fill="#FFFFFF" d="M448.76,438.921h12.75H448.76z"/>
<line fill="none" stroke="#000000" stroke-width="2" stroke-linecap="square" stroke-miterlimit="10" x1="448.76" y1="438.921" x2="461.51" y2="438.921"/>
<path fill-rule="evenodd" clip-rule="evenodd" fill="#FFFFFF" d="M346.756,438.921h12H346.756z"/>
<line fill="none" stroke="#000000" stroke-width="2" stroke-linecap="square" stroke-miterlimit="10" x1="346.756" y1="438.921" x2="358.756" y2="438.921"/>
<path fill-rule="evenodd" clip-rule="evenodd" fill="#FFFFFF" d="M436.01,470.421l8.25,9L436.01,470.421z"/>
<line fill="none" stroke="#000000" stroke-width="2" stroke-linecap="square" stroke-miterlimit="10" x1="436.01" y1="470.421" x2="444.26" y2="479.421"/>
<path fill-rule="evenodd" clip-rule="evenodd" fill="#FFFFFF" d="M363.256,398.421l9,8.25L363.256,398.421z"/>
<line fill="none" stroke="#000000" stroke-width="2" stroke-linecap="square" stroke-miterlimit="10" x1="363.256" y1="398.421" x2="372.256" y2="406.671"/>
<path fill-rule="evenodd" clip-rule="evenodd" fill="#FFFFFF" d="M363.256,479.421l9-9L363.256,479.421z"/>
<line fill="none" stroke="#000000" stroke-width="2" stroke-linecap="square" stroke-miterlimit="10" x1="363.256" y1="479.421" x2="372.256" y2="470.421"/>
<path fill-rule="evenodd" clip-rule="evenodd" stroke="#000000" stroke-width="1.25" stroke-linecap="square" stroke-miterlimit="10" d="  M409.756,387.921C392.242,402.422,396.576,371.117,409.756,387.921L409.756,387.921z"/>
<path fill-rule="evenodd" clip-rule="evenodd" stroke="#000000" stroke-width="1.25" stroke-linecap="square" stroke-miterlimit="10" d="  M403.006,400.671c-1.5,13.75-3,27.5-4.5,41.25c3.5-0.5,7-1,10.5-1.5C407.006,427.171,405.006,413.921,403.006,400.671z"/>
<path fill-rule="evenodd" clip-rule="evenodd" stroke="#000000" stroke-width="1.25" stroke-linecap="square" stroke-miterlimit="10" d="  M410.506,438.921C392.984,453.2,397.133,422.647,410.506,438.921L410.506,438.921z"/>
<path fill-rule="evenodd" clip-rule="evenodd" fill="#FB0F0C" stroke="#000000" stroke-width="1.25" stroke-linecap="square" stroke-miterlimit="10" d="  M444.26,402.921C427.866,415.881,428.099,389.757,444.26,402.921L444.26,402.921z"/>
<path fill-rule="evenodd" clip-rule="evenodd" fill="#FB0F0C" stroke="#000000" stroke-width="1.5" stroke-linecap="square" stroke-miterlimit="10" d="  M456.26,362.421c-11.933-9.827-22.345-28.14-33.75-12c8.75,7,17.5,14,26.25,21c-2,2.5-4,5-6,7.5c12.25,3,24.5,6,36.75,9  c-5.75-11-11.5-22-17.25-33C460.26,357.421,458.26,359.921,456.26,362.421z"/>
</svg>