<svg xmlns="http://www.w3.org/2000/svg" xmlns:xlink="http://www.w3.org/1999/xlink" version="1.1" id="Layer_1" x="0px" y="0px" enable-background="new 0 0 822.05 841.89" xml:space="preserve" viewBox="240.36 258.91 341 328.34">
<path fill-rule="evenodd" clip-rule="evenodd" fill="#FFFFFF" stroke="#000000" stroke-width="2" stroke-linecap="square" stroke-miterlimit="10" d="  M512.109,489.496c-33.575,18.187-67.15,36.373-100.726,54.559c-33.143,17.952-37.829,33.466-55.79,0.414  c-38.079-70.075-76.158-140.15-114.237-210.225c33.575-18.187,67.149-36.373,100.724-54.559  c33.142-17.952,37.829-33.465,55.789-0.414C435.95,349.346,474.03,419.421,512.109,489.496z"/>
<path fill-rule="evenodd" clip-rule="evenodd" fill="#ED1C24" stroke="#000000" stroke-width="2" stroke-linecap="square" stroke-miterlimit="10" d="  M298.357,344.744c-4.723,36.212-4.86,34.316,27.75,51C328.357,360.5,329.519,361.103,298.357,344.744z"/>
<text transform="matrix(0.8358 -0.549 0.549 0.8358 375.6133 311.7559)" font-family="'TimesNewRomanPSMT'" font-size="36">5</text>
<path fill-rule="evenodd" clip-rule="evenodd" fill="#FFFFFF" stroke="#000000" stroke-width="2" stroke-linecap="square" stroke-miterlimit="10" d="  M535.359,547.246c-37.422,6.645-74.845,13.29-112.267,19.935c-37.037,6.577-46.216,19.718-52.9-17.201  c-14.195-78.412-28.39-156.824-42.585-235.235c37.597-6.645,75.194-13.29,112.792-19.935c37.081-6.554,46.458-19.8,53.051,17.202  C507.42,390.422,521.39,468.833,535.359,547.246z"/>
<path fill-rule="evenodd" clip-rule="evenodd" fill="#FFFFFF" stroke="#000000" stroke-width="2" stroke-linecap="square" stroke-miterlimit="10" d="  M547.359,586.246c-54.251-6.75-108.501-13.5-162.752-20.25c9.914-79.088,19.828-158.175,29.742-237.263  c4.265-34.021,7.388-25.475,42.203-21.143c41.269,5.135,82.538,10.27,123.807,15.404  C569.359,410.744,558.359,498.495,547.359,586.246z"/>
<path fill-rule="evenodd" clip-rule="evenodd" fill="#ED1C24" stroke="#000000" stroke-width="2" stroke-linecap="square" stroke-miterlimit="10" d="  M460.359,361.244c-24.277,26.626-23.361,25.272-7.5,57.75C474.663,391.927,474.944,392.717,460.359,361.244z"/>
<path fill-rule="evenodd" clip-rule="evenodd" fill="#ED1C24" stroke="#000000" stroke-width="2" stroke-linecap="square" stroke-miterlimit="10" d="  M374.857,341.744c-15.502,32.555-15.368,31.098,9,57.75C397.163,366.969,398.369,367.606,374.857,341.744z"/>
<path fill-rule="evenodd" clip-rule="evenodd" fill="#ED1C24" stroke="#000000" stroke-width="2" stroke-linecap="square" stroke-miterlimit="10" d="  M482.109,415.994c-24.276,26.628-23.361,25.273-7.5,57.752C497.252,446.575,497.58,447.711,482.109,415.994z"/>
<path fill-rule="evenodd" clip-rule="evenodd" fill="#ED1C24" stroke="#000000" stroke-width="2" stroke-linecap="square" stroke-miterlimit="10" d="  M506.859,469.996c-24.277,26.627-23.361,25.272-7.5,57.75C521.607,500.306,522.575,501.427,506.859,469.996z"/>
<text transform="matrix(0.9907 0.1357 -0.1357 0.9907 541.3359 368.7188)" font-family="'TimesNewRomanPSMT'" font-size="36">3</text>
<text transform="matrix(0.9907 0.1357 -0.1357 0.9907 410.8438 550.2437)" font-family="'TimesNewRomanPSMT'" font-size="36">3</text>
</svg>