<svg xmlns="http://www.w3.org/2000/svg" xmlns:xlink="http://www.w3.org/1999/xlink" version="1.1" id="Layer_1" x="0px" y="0px" enable-background="new 0 0 822.05 841.89" xml:space="preserve" viewBox="296.31 332.73 222.11 175.54">
<path fill-rule="evenodd" clip-rule="evenodd" fill="#03AC3D" stroke="#000000" stroke-width="1.25" stroke-linecap="square" stroke-miterlimit="10" d="  M511.625,504.515c-8.63-7.033-12.968-7.585-18.75-13.5c-1.543,1.442-2.411,4.04-3.75,5.25c-0.554-3.813-0.124-5.32,0.75-9  c-6.357-0.855-2.297,7.316-5.25-3c-1.25,1-2.5,2-3.75,3c0-2.25,0-4.5,0-6.75c-1.062,2.297-2.306,5.96-3,8.25c-0.25-3-0.5-6-0.75-9  c-0.5,2.25-1,4.5-1.5,6.75c0-3.75,0-7.5,0-11.25c-0.25,3.25-0.5,6.5-0.75,9.75c-4.803-2.248-4.6-5.487-6.75-8.25  c-0.755,1.451-1.755,2.701-3,3.75c0.5-2.5,1-5,1.5-7.5c-1.1,3.716-3.066,6.952-4.5,10.5c0.25-1.25,0.5-2.5,0.75-3.75  c-0.165,1.611-0.915,2.861-2.25,3.75c0-2.25,0-4.5,0-6.75c-7.398-2.106-11.339-5.558-17.25-8.25c-1.062-3.353,0.745-5.525,0.75-9  c-1.627,2.15-3.914,5.469-4.5,8.25c0.367-3.341,0.961-7.949,0.75-11.25c-4.986,6.831-10.246,12.271-14.25,20.25c0-2,0-4,0-6  c-3.205-0.515-1.658,3.92-2.25-3.75c-1,1-2,2-3,3c-2.29-1.102-5.819-6.547-7.498-8.25c-0.839,5.525,0.582-10.737,0.75-11.25  c-4.757,13.38-11.34,18.493-13.502,8.25c-2.132,1.856-2.796,4.599-4.5,6.75c-0.712-2.561,0.625-5.664,0-8.25  c-2.088,2.215-2.713,5.829-4.5,8.25c-0.161-4.953-1.211-10.006-1.5-15c-1.496,0.438-2.496,1.438-3,3  c-0.755-0.915,0.047-4.597-0.75-6c-1.684,1.091-1.012,2.164-3,3.75c-0.5-2-1-4-1.5-6c-0.907,1.159-1.657,2.409-2.25,3.75  c0.292-4.309,0.092-8.445,0.75-12.75c-2.886,6.758-8.372,13.163-11.25,20.25c-0.147-2.017-0.897-3.767-2.25-5.25  c-2.037,6.389-1.402,4.984-4.5,2.25c-0.75,2-1.5,4-2.25,6c-7.687-4.526-19.537-0.382-24.75,10.5c0-1.25,0-2.5,0-3.75  c-4.166,2.235-3.659,4.438-7.5,0c-1.686,1.985-2.181,5.262-3.75,7.5c0.793-5.775,0.81-11.461,2.25-17.25  c-4.224,11.456-6.709,23.258-9,35.25c0.42-6.071-0.769-9.328-1.5-15c-0.25,3.5-0.5,7-0.75,10.5c-1.168-4.428-2.968-8.664-3.75-13.5  c1.3,6.837,1.104,13.379,1.5,20.25c-3.309-6.98-6.519-13.776-8.25-21.75c1.103,11.024,2.535,22.102,2.25,33  c34.625,0,69.25,0,103.875,0C429.034,505.265,506.416,511.089,511.625,504.515z"/>
<path fill-rule="evenodd" clip-rule="evenodd" fill="#03AC3D" stroke="#000000" stroke-width="1.25" stroke-linecap="square" stroke-miterlimit="10" d="  M416.377,377.015c12.912-27.991-23.249-49.978-43.502-27.75c-7.512-17.38-31.198-21.302-44.625-7.875  c-7.319,7.319-3.035,15.839-11.25,19.125c-7.877,3.151-12.158,10.695-13.5,18.75c-2.191,13.145,10.192,16.366,4.5,27.75  c-5.222,10.443-4.735,22.968,3,32.25c14.11,16.932,38.666,11.243,46.875-8.25c9.544,9.175,47.916,7.906,59.25,2.25  C440.21,421.744,439.421,387.494,416.377,377.015z"/>
<path fill-rule="evenodd" clip-rule="evenodd" fill="#DF3734" stroke="#000000" stroke-width="1.25" stroke-linecap="square" stroke-miterlimit="10" d="  M369.125,396.515C363.626,414.576,385.459,406.149,369.125,396.515L369.125,396.515z"/>
<path fill-rule="evenodd" clip-rule="evenodd" fill="#DF3734" stroke="#000000" stroke-width="1.25" stroke-linecap="square" stroke-miterlimit="10" d="  M321.875,405.515C319.117,421.493,334.277,415.144,321.875,405.515L321.875,405.515z"/>
<path fill-rule="evenodd" clip-rule="evenodd" fill="#DF3734" stroke="#000000" stroke-width="1.25" stroke-linecap="square" stroke-miterlimit="10" d="  M336.875,422.765C331.095,440.916,352.233,432.202,336.875,422.765L336.875,422.765z"/>
<path fill-rule="evenodd" clip-rule="evenodd" fill="#DF3734" stroke="#000000" stroke-width="1.25" stroke-linecap="square" stroke-miterlimit="10" d="  M376.625,356.015C373.554,372.01,389.378,365.735,376.625,356.015L376.625,356.015z"/>
<path fill-rule="evenodd" clip-rule="evenodd" fill="#DF3734" stroke="#000000" stroke-width="1.25" stroke-linecap="square" stroke-miterlimit="10" d="  M404.375,416.765C395.99,437.642,425.816,424.348,404.375,416.765L404.375,416.765z"/>
<path fill-rule="evenodd" clip-rule="evenodd" fill="#DF3734" stroke="#000000" stroke-width="1.25" stroke-linecap="square" stroke-miterlimit="10" d="  M399.875,356.015C396.507,373.444,414.801,363.72,399.875,356.015L399.875,356.015z"/>
<path fill-rule="evenodd" clip-rule="evenodd" fill="#DF3734" stroke="#000000" stroke-width="1.25" stroke-linecap="square" stroke-miterlimit="10" d="  M321.125,373.265C315.434,391.394,336.799,382.726,321.125,373.265L321.125,373.265z"/>
<path fill-rule="evenodd" clip-rule="evenodd" fill="#DF3734" stroke="#000000" stroke-width="1.25" stroke-linecap="square" stroke-miterlimit="10" d="  M339.875,348.515C335.156,366.841,356.454,357.413,339.875,348.515L339.875,348.515z"/>
<path fill-rule="evenodd" clip-rule="evenodd" fill="#DF3734" stroke="#000000" stroke-width="1.25" stroke-linecap="square" stroke-miterlimit="10" d="  M414.127,388.265C407.966,405.092,430.187,397.041,414.127,388.265L414.127,388.265z"/>
<path fill-rule="evenodd" clip-rule="evenodd" fill="#DF3734" stroke="#000000" stroke-width="1.25" stroke-linecap="square" stroke-miterlimit="10" d="  M350.375,383.015C347.625,401.687,365.478,391.585,350.375,383.015L350.375,383.015z"/>
<path fill-rule="evenodd" clip-rule="evenodd" fill="#DF3734" stroke="#000000" stroke-width="1.25" stroke-linecap="square" stroke-miterlimit="10" d="  M394.625,398.015C389.481,416.144,411.173,407.367,394.625,398.015L394.625,398.015z"/>
<path fill-rule="evenodd" clip-rule="evenodd" fill="#DF3734" stroke="#000000" stroke-width="1.25" stroke-linecap="square" stroke-miterlimit="10" d="  M311.375,423.515C308.723,440.95,326.637,430.922,311.375,423.515L311.375,423.515z"/>
<path fill="none" stroke="#000000" stroke-width="1.25" stroke-linecap="square" stroke-miterlimit="10" d="M329.375,416.765  c5.602,0.589,11.201,0.09,16.5-1.5"/>
<path fill="none" stroke="#000000" stroke-width="1.25" stroke-linecap="square" stroke-miterlimit="10" d="M352.625,412.265  c3-3,6-6,9-9"/>
<path fill-rule="evenodd" clip-rule="evenodd" fill="#907133" stroke="#000000" stroke-width="1.25" stroke-linecap="square" stroke-miterlimit="10" d="  M374.375,422.015c-3.22-3.708-7.761-4.888-10.5-9.75c0.07,4.833-2.408,10.607-2.25,15c-18.847-38.896-6.358,10.916-9,19.5  c-8.598-5.687-6.989-1.022-16.5-4.5c18.844,12.133,13.306,32.232,8.25,49.5c11.287-8.477,24.196-1.877,35.25,4.5  c-4.468-12.98-6.656-21.396-5.25-33c1.279-10.553,10.811-23.967,6.75-36.75c-1.157,2.233-5.384,8.036-6.75,11.25  C372.805,432.633,373.771,427.805,374.375,422.015z"/>
<path fill="none" stroke="#000000" stroke-width="1.25" stroke-linecap="square" stroke-miterlimit="10" d="M362.375,406.265  c0.5,2,1,4,1.5,6"/>
<path fill="none" stroke="#000000" stroke-width="1.25" stroke-linecap="square" stroke-miterlimit="10" d="M375.125,422.015  c4.485,1.588,8.981,1.573,13.5,0"/>
<path fill="none" stroke="#000000" stroke-width="1.25" stroke-linecap="square" stroke-miterlimit="10" d="M346.625,440.765  c2.001-0.979,3.52-2.499,4.5-4.5"/>
<path fill-rule="evenodd" clip-rule="evenodd" fill="#DF3734" stroke="#000000" stroke-width="1.25" stroke-linecap="square" stroke-miterlimit="10" d="  M339.875,369.515C336.804,385.51,352.628,379.235,339.875,369.515L339.875,369.515z"/>
<path fill-rule="evenodd" clip-rule="evenodd" fill="#DF3734" stroke="#000000" stroke-width="1.25" stroke-linecap="square" stroke-miterlimit="10" d="  M394.625,372.515C388.941,390.62,410.008,382.031,394.625,372.515L394.625,372.515z"/>
<path fill-rule="evenodd" clip-rule="evenodd" fill="#6CA930" stroke="#000000" stroke-width="1.25" stroke-linecap="square" stroke-miterlimit="10" d="  M444.125,504.515c0.322-15.539-5.657-33.008-21-39C445.764,464.022,452.004,486.141,444.125,504.515z"/>
<path fill-rule="evenodd" clip-rule="evenodd" fill="#6CA930" stroke="#000000" stroke-width="1.25" stroke-linecap="square" stroke-miterlimit="10" d="  M447.875,472.265c1.092-12.348,10.797-18.408,23.25-17.25C465.155,465.604,456.077,475.482,447.875,472.265z"/>
<path fill-rule="evenodd" clip-rule="evenodd" fill="#6CA930" stroke="#000000" stroke-width="1.25" stroke-linecap="square" stroke-miterlimit="10" d="  M444.125,499.265c0.982,0.597-3.562,4.301,2.25,3c5.343-19.104,2.366-38.506-0.75-57.75  C441.419,460.353,448.241,481.158,444.125,499.265z"/>
<path fill-rule="evenodd" clip-rule="evenodd" fill="#E02B32" stroke="#000000" stroke-width="1.25" stroke-linecap="square" stroke-miterlimit="10" d="  M444.875,429.515C451.849,398.559,470.372,443.98,444.875,429.515L444.875,429.515z"/>
<path fill-rule="evenodd" clip-rule="evenodd" fill="#E02B32" stroke="#000000" stroke-width="1.25" stroke-linecap="square" stroke-miterlimit="10" d="  M443.375,431.765C418.912,418.833,459.094,409.443,443.375,431.765L443.375,431.765z"/>
<path fill-rule="evenodd" clip-rule="evenodd" fill="#E02B32" stroke="#000000" stroke-width="1.25" stroke-linecap="square" stroke-miterlimit="10" d="  M444.875,434.015C424.823,459.323,428.276,409.668,444.875,434.015L444.875,434.015z"/>
<path fill-rule="evenodd" clip-rule="evenodd" fill="#E02B32" stroke="#000000" stroke-width="1.25" stroke-linecap="square" stroke-miterlimit="10" d="  M447.875,433.265C466.721,460.047,418.202,442.768,447.875,433.265L447.875,433.265z"/>
<path fill-rule="evenodd" clip-rule="evenodd" fill="#E02B32" stroke="#000000" stroke-width="1.25" stroke-linecap="square" stroke-miterlimit="10" d="  M447.875,431.765C475.241,424.041,450.288,458.201,447.875,431.765L447.875,431.765z"/>
<path fill-rule="evenodd" clip-rule="evenodd" fill="#F5EF36" stroke="#000000" stroke-width="1.25" stroke-linecap="square" stroke-miterlimit="10" d="  M450.125,431.765C439.577,431.765,439.577,431.765,450.125,431.765L450.125,431.765z"/>
<path fill="none" stroke="#000000" stroke-width="1.25" stroke-linecap="square" stroke-miterlimit="10" d="M449.375,472.265  c4.602-8.063,11.591-13.829,20.25-16.5"/>
<path fill="none" stroke="#000000" stroke-width="1.25" stroke-linecap="square" stroke-miterlimit="10" d="M432.125,470.765  c8.729,4.725,13.551,12.677,13.5,22.5"/>
<path fill-rule="evenodd" clip-rule="evenodd" fill="#6CA930" stroke="#000000" stroke-width="1.25" stroke-linecap="square" stroke-miterlimit="10" d="  M478.625,507.515c0.719-21.637-7.299-47.133-28.5-56.25C486.158,448.865,483.283,482.894,478.625,507.515z"/>
<path fill-rule="evenodd" clip-rule="evenodd" fill="#6CA930" stroke="#000000" stroke-width="1.25" stroke-linecap="square" stroke-miterlimit="10" d="  M483.125,461.015c-0.383-16.736,15.189-26.257,30.75-24C507.174,446.964,492.84,471.983,483.125,461.015z"/>
<path fill-rule="evenodd" clip-rule="evenodd" fill="#6CA930" stroke="#000000" stroke-width="1.25" stroke-linecap="square" stroke-miterlimit="10" d="  M477.875,500.015c1.669,2.471-3.214,5.757,3,4.5c8.241-26.711,4.461-56.231-0.75-83.25  C471.858,443.475,487.039,474.541,477.875,500.015z"/>
<path fill-rule="evenodd" clip-rule="evenodd" fill="#E02B32" stroke="#000000" stroke-width="1.25" stroke-linecap="square" stroke-miterlimit="10" d="  M479.375,399.515c1.664-18.359,23.33-19.797,21-8.25C497.951,403.275,485.188,406.84,479.375,399.515z"/>
<path fill-rule="evenodd" clip-rule="evenodd" fill="#E02B32" stroke="#000000" stroke-width="1.25" stroke-linecap="square" stroke-miterlimit="10" d="  M477.125,402.515c-6.828-2.893-22.171-21.68-4.5-21.75C487.935,380.705,483.381,399.176,477.125,402.515z"/>
<path fill-rule="evenodd" clip-rule="evenodd" fill="#E02B32" stroke="#000000" stroke-width="1.25" stroke-linecap="square" stroke-miterlimit="10" d="  M480.125,406.265c-7.88,12.758-31.325,11.059-23.25-2.25C463.577,392.969,477.635,397.179,480.125,406.265z"/>
<path fill-rule="evenodd" clip-rule="evenodd" fill="#E02B32" stroke="#000000" stroke-width="1.25" stroke-linecap="square" stroke-miterlimit="10" d="  M483.125,404.765c8.076,9.818,2.317,35.348-8.25,23.25C466.446,418.366,475.485,404.4,483.125,404.765z"/>
<path fill-rule="evenodd" clip-rule="evenodd" fill="#E02B32" stroke="#000000" stroke-width="1.25" stroke-linecap="square" stroke-miterlimit="10" d="  M483.125,402.515c13.884-5.271,25.781,2.625,15.375,16.5C490.323,429.917,482.394,405.04,483.125,402.515z"/>
<path fill-rule="evenodd" clip-rule="evenodd" fill="#F5EF36" stroke="#000000" stroke-width="1.25" stroke-linecap="square" stroke-miterlimit="10" d="  M486.125,403.265C470.905,408.24,473.161,396.215,486.125,403.265L486.125,403.265z"/>
<path fill="none" stroke="#000000" stroke-width="1.25" stroke-linecap="square" stroke-miterlimit="10" d="M486.125,461.765  c4.77-11.623,13.836-21.229,26.25-24"/>
<path fill="none" stroke="#000000" stroke-width="1.25" stroke-linecap="square" stroke-miterlimit="10" d="M462.125,458.765  c11.532,6.707,19.014,18.693,18,32.25"/>
<path fill-rule="evenodd" clip-rule="evenodd" fill="#6CA930" stroke="#000000" stroke-width="1.25" stroke-linecap="square" stroke-miterlimit="10" d="  M411.125,507.515c-0.329-14.612-5.876-30.142-19.5-36.75C412.478,469.791,417.831,490.511,411.125,507.515z"/>
<path fill-rule="evenodd" clip-rule="evenodd" fill="#6CA930" stroke="#000000" stroke-width="1.25" stroke-linecap="square" stroke-miterlimit="10" d="  M413.377,477.515c1.348-11.448,8.925-17.411,20.998-16.5C429.799,471.127,421.392,479.89,413.377,477.515z"/>
<path fill-rule="evenodd" clip-rule="evenodd" fill="#6CA930" stroke="#000000" stroke-width="1.25" stroke-linecap="square" stroke-miterlimit="10" d="  M410.375,503.015c8.581,2.442,3.794-38.909,1.5-51.75C408.321,466.69,414.621,485.763,410.375,503.015z"/>
<path fill-rule="evenodd" clip-rule="evenodd" fill="#E02B32" stroke="#000000" stroke-width="1.25" stroke-linecap="square" stroke-miterlimit="10" d="  M411.125,437.015C419.265,410.68,434.073,445.772,411.125,437.015L411.125,437.015z"/>
<path fill-rule="evenodd" clip-rule="evenodd" fill="#E02B32" stroke="#000000" stroke-width="1.25" stroke-linecap="square" stroke-miterlimit="10" d="  M409.625,439.265C388.226,423.855,424.534,420.149,409.625,439.265L409.625,439.265z"/>
<path fill-rule="evenodd" clip-rule="evenodd" fill="#E02B32" stroke="#000000" stroke-width="1.25" stroke-linecap="square" stroke-miterlimit="10" d="  M411.125,441.515C394.272,462.467,393.653,420.545,411.125,441.515L411.125,441.515z"/>
<path fill-rule="evenodd" clip-rule="evenodd" fill="#E02B32" stroke="#000000" stroke-width="1.25" stroke-linecap="square" stroke-miterlimit="10" d="  M414.127,440.765C427.703,467.232,389.927,447.825,414.127,440.765L414.127,440.765z"/>
<path fill-rule="evenodd" clip-rule="evenodd" fill="#E02B32" stroke="#000000" stroke-width="1.25" stroke-linecap="square" stroke-miterlimit="10" d="  M414.127,439.265C438.724,434.479,416.505,462.976,414.127,439.265L414.127,439.265z"/>
<path fill-rule="evenodd" clip-rule="evenodd" fill="#F5EF36" stroke="#000000" stroke-width="1.25" stroke-linecap="square" stroke-miterlimit="10" d="  M415.627,439.265C406.555,439.156,406.642,439.157,415.627,439.265L415.627,439.265z"/>
<path fill="none" stroke="#000000" stroke-width="1.25" stroke-linecap="square" stroke-miterlimit="10" d="M415.627,477.515  c3.5-7.968,9.675-13.398,17.998-15.75"/>
<path fill="none" stroke="#000000" stroke-width="1.25" stroke-linecap="square" stroke-miterlimit="10" d="M399.125,475.265  c8.275,4.73,12.787,12.355,12.75,21.75"/>
<path fill-rule="evenodd" clip-rule="evenodd" fill="#907133" stroke="#000000" stroke-width="1.25" stroke-linecap="square" stroke-miterlimit="10" d="  M515.375,478.265c-70.25,0-140.5,0-210.75,0c0-1.75,0-3.5,0-5.25C335.87,473.015,507.402,457.845,515.375,478.265z"/>
<path fill-rule="evenodd" clip-rule="evenodd" fill="#907133" stroke="#000000" stroke-width="1.25" stroke-linecap="square" stroke-miterlimit="10" d="  M515.375,497.765c-70.25,0-140.5,0-210.75,0c0-1.75,0-3.5,0-5.25C335.87,492.515,507.402,477.345,515.375,497.765z"/>
<path fill-rule="evenodd" clip-rule="evenodd" fill="#907133" stroke="#000000" stroke-width="1.25" stroke-linecap="square" stroke-miterlimit="10" d="  M315.125,506.765c-17.675,2.789-23.085-31.743-13.5-42.75C317.88,445.348,315.125,502.583,315.125,506.765z"/>
<path fill-rule="evenodd" clip-rule="evenodd" fill="#907133" stroke="#000000" stroke-width="1.25" stroke-linecap="square" stroke-miterlimit="10" d="  M349.625,506.765c-17.675,2.789-23.085-31.743-13.5-42.75C352.38,445.348,349.625,502.583,349.625,506.765z"/>
<path fill-rule="evenodd" clip-rule="evenodd" fill="#907133" stroke="#000000" stroke-width="1.25" stroke-linecap="square" stroke-miterlimit="10" d="  M381.125,506.765c-16.969,2.414-21.993-32.392-12.75-42.75C384.059,446.438,381.125,502.5,381.125,506.765z"/>
<path fill-rule="evenodd" clip-rule="evenodd" fill="#907133" stroke="#000000" stroke-width="1.25" stroke-linecap="square" stroke-miterlimit="10" d="  M413.377,506.765c-17.677,2.79-23.088-31.741-13.502-42.75C416.132,445.345,413.377,502.583,413.377,506.765z"/>
<path fill-rule="evenodd" clip-rule="evenodd" fill="#907133" stroke="#000000" stroke-width="1.25" stroke-linecap="square" stroke-miterlimit="10" d="  M444.875,506.765c-17.675,2.789-23.085-31.743-13.5-42.75C447.63,445.348,444.875,502.583,444.875,506.765z"/>
<path fill-rule="evenodd" clip-rule="evenodd" fill="#907133" stroke="#000000" stroke-width="1.25" stroke-linecap="square" stroke-miterlimit="10" d="  M476.375,506.765c-16.969,2.414-21.992-32.392-12.75-42.75C479.309,446.438,476.375,502.5,476.375,506.765z"/>
<path fill-rule="evenodd" clip-rule="evenodd" fill="#907133" stroke="#000000" stroke-width="1.25" stroke-linecap="square" stroke-miterlimit="10" d="  M517.625,506.765c-17.675,2.789-23.085-31.743-13.5-42.75C520.38,445.348,517.625,502.583,517.625,506.765z"/>
</svg>