<svg xmlns="http://www.w3.org/2000/svg" xmlns:xlink="http://www.w3.org/1999/xlink" version="1.1" id="Layer_1" x="0px" y="0px" enable-background="new 0 0 822.05 841.89" xml:space="preserve" viewBox="299.79 362.72 218.1 115.87">
<path fill-rule="evenodd" clip-rule="evenodd" fill="#012477" d="M516,403.39c1.596-6.736,0-15.543,0-22.5  c-15.25,7.5-30.5,15-45.75,22.5C485.5,403.39,500.75,403.39,516,403.39z"/>
<path fill-rule="evenodd" clip-rule="evenodd" fill="#012477" d="M493.5,368.89c-19.005,0-38.011,0-57.016,0  c-15.142,0-8.234,19.391-8.234,32.25C450,390.39,471.75,379.64,493.5,368.89z"/>
<path fill-rule="evenodd" clip-rule="evenodd" fill="#C11320" d="M516,410.89c-29.727,0-59.453,0-89.181,0  c-9.298,0-1.405-67.408-26.319-42.75c-4.231,4.188,0,33.1,0,39.583c0,6.819-25.761,3.167-31.432,3.167  c-4.919,0-91.531-6.051-63.818,20.25c10.28,9.756,73.883,0,89.18,0c9.069,0,1.757,66.584,26.32,42c4.174-4.177,0-32.473,0-38.889  c0-6.712,25.838-3.111,31.432-3.111C472.932,431.14,526.394,445.1,516,410.89z"/>
<path fill-rule="evenodd" clip-rule="evenodd" fill="#012477" d="M329.25,473.89c18.568,0,37.137,0,55.705,0  c14.9,0,8.045-19.631,8.045-32.25C371.75,452.39,350.5,463.14,329.25,473.89z"/>
<path fill-rule="evenodd" clip-rule="evenodd" fill="#012477" d="M468.75,438.64c15.75,8,31.5,16,47.25,24  C526.356,427.767,491.962,438.64,468.75,438.64z"/>
<path fill-rule="evenodd" clip-rule="evenodd" fill="#012477" d="M428.25,473.89c21,0,42,0,63,0c-21-10.5-42-21-63-31.5  C428.25,452.89,428.25,463.39,428.25,473.89z"/>
<path fill-rule="evenodd" clip-rule="evenodd" fill="#012477" d="M305.25,438.64c-1.642,6.968,0,16.057,0,23.25  c15.5-7.75,31-15.5,46.5-23.25C336.25,438.64,320.75,438.64,305.25,438.64z"/>
<path fill-rule="evenodd" clip-rule="evenodd" fill="#012477" d="M305.25,381.64c-9.862,32.199,24.109,21.75,45,21.75  C335.25,396.14,320.25,388.89,305.25,381.64z"/>
<path fill-rule="evenodd" clip-rule="evenodd" fill="#012477" d="M393,368.89c-22,0-44,0-66,0c22,11,44,22,66,33  C393,390.89,393,379.89,393,368.89z"/>
<path fill-rule="evenodd" clip-rule="evenodd" fill="#FFFEFE" d="M305.25,461.89c0,4,0,8,0,12c23.25-11.75,46.5-23.5,69.75-35.25  C349.15,433.928,327.241,450.895,305.25,461.89z"/>
<path fill-rule="evenodd" clip-rule="evenodd" fill="#FFFEFE" d="M446.25,403.39c20.681,3.718,73.094-10.396,69.75-34.5  C492.75,380.39,469.5,391.89,446.25,403.39z"/>
<path fill-rule="evenodd" clip-rule="evenodd" fill="#FFFEFE" d="M321.75,473.89c19.748-1.281,60.906-20.766,71.25-35.25  C368.72,447.527,345.063,461.98,321.75,473.89z"/>
<path fill-rule="evenodd" clip-rule="evenodd" fill="#C11320" d="M375,438.64c-23.25,11.75-46.5,23.5-69.75,35.25  c28.211,4.691,61.614-23.047,85.5-35.25C385.552,438.64,380.167,438.128,375,438.64z"/>
<path fill-rule="evenodd" clip-rule="evenodd" fill="#FFFEFE" d="M493.5,368.89c-19.915,9.843-51.157,19.443-65.25,34.5  c24.582-7.783,48.611-22.806,72-34.5C498,368.89,495.75,368.89,493.5,368.89z"/>
<path fill-rule="evenodd" clip-rule="evenodd" fill="#C11320" d="M500.25,368.89c-23,11.5-46,23-69,34.5  c27.627,4.223,61.075-22.79,84.75-34.5C510.799,368.89,505.422,368.392,500.25,368.89z"/>
<path fill-rule="evenodd" clip-rule="evenodd" fill="#FFFEFE" d="M445.5,438.64c-5.649-0.59-11.562,0-17.25,0  c10.067,18.821,62.205,39.451,86.25,35.25C491.5,462.14,468.5,450.39,445.5,438.64z"/>
<path fill-rule="evenodd" clip-rule="evenodd" fill="#FFFEFE" d="M393,401.89c-25.525-12.763-57.608-38.623-87.75-33  C328.446,380.364,368.08,411.022,393,401.89z"/>
<path fill-rule="evenodd" clip-rule="evenodd" fill="#FFFEFE" d="M516,462.64c-16.984-8.627-35.159-22.08-54-24  C474.686,445.159,509.328,468.004,516,462.64z"/>
<path fill-rule="evenodd" clip-rule="evenodd" fill="#C11320" d="M462,438.64c-5.41-0.545-11.056,0-16.5,0  c23.243,11.874,46.592,25.4,70.5,35.25C513.51,456.33,477.955,446.839,462,438.64z"/>
<path fill-rule="evenodd" clip-rule="evenodd" fill="#FFFEFE" d="M305.25,381.64c16.269,7.863,34.889,21.955,53.25,21.75  C344.557,396.32,311.545,373.752,305.25,381.64z"/>
<path fill-rule="evenodd" clip-rule="evenodd" fill="#C11320" d="M305.25,368.89c4.234,18.396,48.691,37.313,69.75,34.5  C351.75,391.89,328.5,380.39,305.25,368.89z"/>
<path fill="none" stroke="#000000" stroke-linecap="square" stroke-miterlimit="10" d="M516,473.89c-59.947,0-119.894,0-179.84,0  c-25.02,0-30.91,7.024-30.91-18.55c0-14.694-9.539-76.835,0-87.2c6.368-6.919,58.802,0,67.963,0c37.292,0,74.585,0,111.878,0  c25.02,0,30.909-7.024,30.909,18.549C516,415.756,516,444.824,516,473.89z"/>
</svg>