<svg xmlns="http://www.w3.org/2000/svg" xmlns:xlink="http://www.w3.org/1999/xlink" version="1.1" id="Layer_1" x="0px" y="0px" enable-background="new 0 0 822.05 841.89" xml:space="preserve" viewBox="302.33 358.53 214.6 130.09">
<path fill-rule="evenodd" clip-rule="evenodd" d="M515,363.14c-45.255,0-90.51,0-135.765,0c-21.296,0-42.593,0-63.889,0  c-10.996,0-12.09,33.904-6.596,39.75c13.183,14.025,115.971,0,135.765,0c21.297,0,42.593,0,63.89,0  C522.337,402.89,515,374.542,515,363.14z"/>
<path fill-rule="evenodd" clip-rule="evenodd" fill="#CE3100" d="M515,402.89c-45.255,0-90.51,0-135.765,0  c-21.296,0-42.593,0-63.889,0c-10.996,0-12.09,33.904-6.596,39.75c13.183,14.025,115.971,0,135.765,0c21.297,0,42.593,0,63.89,0  C522.337,442.64,515,414.292,515,402.89z"/>
<path fill-rule="evenodd" clip-rule="evenodd" fill="#FFCE00" d="M308.75,442.64c0,7.049-3.791,39.75,3.006,39.75  c22.493,0,44.986,0,67.479,0c19.794,0,122.583,14.025,135.765,0c3.516-3.74,1.58-39.75-3.007-39.75c-22.492,0-44.985,0-67.479,0  C399.26,442.64,354.005,442.64,308.75,442.64z"/>
<path fill="none" stroke="#000000" stroke-linecap="square" stroke-miterlimit="10" d="M514.25,482.39  c-60.853,0-121.706,0-182.558,0c-26.987,0-24.442,2.47-24.442-25.035c0-14.526-9.938-85.427,0-94.965c7.874-7.557,60.148,0,70.741,0  c37.272,0,74.545,0,111.817,0c26.986,0,24.441-2.47,24.441,25.036C514.25,419.081,514.25,450.736,514.25,482.39z"/>
</svg>