<svg xmlns="http://www.w3.org/2000/svg" xmlns:xlink="http://www.w3.org/1999/xlink" version="1.1" id="Layer_1" x="0px" y="0px" enable-background="new 0 0 822.05 841.89" xml:space="preserve" viewBox="236.76 252.35 347.76 337.22">
<path fill-rule="evenodd" clip-rule="evenodd" fill="#5EBB47" stroke="#000000" stroke-width="2" stroke-linecap="square" stroke-miterlimit="10" d="  M282.018,365.16c-2.099,26.944-44.7,27.629-44.25,0C238.208,338.089,279.288,339.181,282.018,365.16z"/>
<path fill-rule="evenodd" clip-rule="evenodd" fill="#5EBB47" stroke="#000000" stroke-width="2" stroke-linecap="square" stroke-miterlimit="10" d="  M302.268,330.66c-2.324,25.847-40.979,26.906-41.25,0C260.746,303.721,300.566,303.907,302.268,330.66z"/>
<path fill-rule="evenodd" clip-rule="evenodd" fill="#5EBB47" stroke="#000000" stroke-width="2" stroke-linecap="square" stroke-miterlimit="10" d="  M315.768,369.66c-0.741,25.162-38.767,21.335-34.125-1.875C286.066,345.667,314.923,346.944,315.768,369.66z"/>
<path fill-rule="evenodd" clip-rule="evenodd" fill="#5EBB47" stroke="#000000" stroke-width="2" stroke-linecap="square" stroke-miterlimit="10" d="  M328.518,500.16c-2.63,31.049-48.815,31.822-48.75,0C279.833,468.302,325.392,469.404,328.518,500.16z"/>
<path fill-rule="evenodd" clip-rule="evenodd" fill="#5EBB47" stroke="#000000" stroke-width="2" stroke-linecap="square" stroke-miterlimit="10" d="  M396.768,449.91c-2.698,31.001-48.726,31.638-48.75,0C347.993,418.204,394.208,418.731,396.768,449.91z"/>
<path fill-rule="evenodd" clip-rule="evenodd" fill="#5EBB47" stroke="#000000" stroke-width="2" stroke-linecap="square" stroke-miterlimit="10" d="  M412.518,382.41c-3.116,30.665-49.369,31.932-49.5,0C362.887,350.596,410.324,351.258,412.518,382.41z"/>
<path fill-rule="evenodd" clip-rule="evenodd" fill="#5EBB47" stroke="#000000" stroke-width="2" stroke-linecap="square" stroke-miterlimit="10" d="  M514.52,315.66c-0.638,31.343-48.621,31.387-48.75,0C465.641,284.205,514.776,284.061,514.52,315.66z"/>
<path fill-rule="evenodd" clip-rule="evenodd" fill="#5EBB47" stroke="#000000" stroke-width="2" stroke-linecap="square" stroke-miterlimit="10" d="  M361.518,543.66c-0.904,25.979-39.804,25.753-39.75,0C321.822,517.72,359.95,518.859,361.518,543.66z"/>
<path fill-rule="evenodd" clip-rule="evenodd" fill="#5EBB47" stroke="#000000" stroke-width="2" stroke-linecap="square" stroke-miterlimit="10" d="  M305.268,569.16c-0.95,25.79-39.75,25.957-39.75,0S304.317,543.37,305.268,569.16z"/>
<path fill-rule="evenodd" clip-rule="evenodd" fill="#5EBB47" stroke="#000000" stroke-width="2" stroke-linecap="square" stroke-miterlimit="10" d="  M297.018,532.41c-1.577,20.604-31.734,20.917-32.25,0C264.239,510.97,295.888,511.135,297.018,532.41z"/>
<path fill-rule="evenodd" clip-rule="evenodd" fill="#5EBB47" stroke="#000000" stroke-width="2" stroke-linecap="square" stroke-miterlimit="10" d="  M429.02,421.41c-1.777,24.27-34.016,24.929-38.627,1.875C385.384,398.24,427.793,393.867,429.02,421.41z"/>
<path fill-rule="evenodd" clip-rule="evenodd" fill="#5EBB47" stroke="#000000" stroke-width="2" stroke-linecap="square" stroke-miterlimit="10" d="  M356.268,363.66c-2.675,21.306-33.989,27.337-39,3.75C311.545,340.471,353.795,335.678,356.268,363.66z"/>
<path fill-rule="evenodd" clip-rule="evenodd" fill="#5EBB47" stroke="#000000" stroke-width="2" stroke-linecap="square" stroke-miterlimit="10" d="  M348.018,399.66c-3.004,23.926-38.418,25.605-39,0C308.421,373.4,345.986,374.521,348.018,399.66z"/>
<path fill-rule="evenodd" clip-rule="evenodd" fill="#5EBB47" stroke="#000000" stroke-width="2" stroke-linecap="square" stroke-miterlimit="10" d="  M469.52,364.41c-2.79,22.225-39,26.797-39,1.875C430.52,339.723,467.121,337.896,469.52,364.41z"/>
<path fill-rule="evenodd" clip-rule="evenodd" fill="#5EBB47" stroke="#000000" stroke-width="2" stroke-linecap="square" stroke-miterlimit="10" d="  M463.52,319.41c-1.256,26.672-39,24.521-39-1.875C424.52,293.483,462.337,295.898,463.52,319.41z"/>
<path fill-rule="evenodd" clip-rule="evenodd" fill="#5EBB47" stroke="#000000" stroke-width="2" stroke-linecap="square" stroke-miterlimit="10" d="  M482.27,272.16c-1.256,26.672-39,24.521-39-1.875C443.27,246.233,481.087,248.648,482.27,272.16z"/>
<path fill-rule="evenodd" clip-rule="evenodd" fill="#5EBB47" stroke="#000000" stroke-width="2" stroke-linecap="square" stroke-miterlimit="10" d="  M533.27,386.16c-1.128,25.332-39.116,25.458-39,0C494.383,361.265,531.453,361.356,533.27,386.16z"/>
<path fill-rule="evenodd" clip-rule="evenodd" fill="#5EBB47" stroke="#000000" stroke-width="2" stroke-linecap="square" stroke-miterlimit="10" d="  M582.02,381.66c-2.997,23.6-34.657,25.465-39.375,1.875C537.562,358.119,579.994,354.61,582.02,381.66z"/>
<path fill-rule="evenodd" clip-rule="evenodd" fill="#5EBB47" stroke="#000000" stroke-width="2" stroke-linecap="square" stroke-miterlimit="10" d="  M576.02,329.91c-1.6,23.673-39,26.487-39,1.875C537.02,305.612,573.095,304.093,576.02,329.91z"/>
<path fill-rule="evenodd" clip-rule="evenodd" fill="#5EBB47" stroke="#000000" stroke-width="2" stroke-linecap="square" stroke-miterlimit="10" d="  M577.52,422.91c-1.572,24.864-39,25.695-39,0S575.947,398.046,577.52,422.91z"/>
<path fill-rule="evenodd" clip-rule="evenodd" fill="#5EBB47" stroke="#000000" stroke-width="2" stroke-linecap="square" stroke-miterlimit="10" d="  M550.52,448.41c-1.788,24.172-34.022,24.887-38.625,1.875C506.867,425.148,549.6,420.957,550.52,448.41z"/>
<path fill-rule="evenodd" clip-rule="evenodd" fill="#5EBB47" stroke="#000000" stroke-width="2" stroke-linecap="square" stroke-miterlimit="10" d="  M583.52,455.16c-2.919,18.232-29.149,23.433-33,3C546.188,435.178,580.19,431.572,583.52,455.16z"/>
<path fill-rule="evenodd" clip-rule="evenodd" fill="#5EBB47" stroke="#000000" stroke-width="2" stroke-linecap="square" stroke-miterlimit="10" d="  M536.27,494.91c-3.329,23.588-37.331,19.981-33-3C507.12,471.477,533.351,476.677,536.27,494.91z"/>
<path fill-rule="evenodd" clip-rule="evenodd" fill="#5EBB47" stroke="#000000" stroke-width="2" stroke-linecap="square" stroke-miterlimit="10" d="  M509.27,511.41c-1.329,28.576-44.82,28.875-45,0C464.088,482.244,507.665,482.684,509.27,511.41z"/>
<path fill-rule="evenodd" clip-rule="evenodd" fill="#5EBB47" stroke="#000000" stroke-width="2" stroke-linecap="square" stroke-miterlimit="10" d="  M538.52,542.91c-1.768,28.86-45.354,29.536-45,0C493.867,513.883,536.54,514.573,538.52,542.91z"/>
<path fill-rule="evenodd" clip-rule="evenodd" fill="#5EBB47" stroke="#000000" stroke-width="2" stroke-linecap="square" stroke-miterlimit="10" d="  M463.52,552.66c-1.769,28.877-45.477,29.437-45,0C418.985,523.863,461.408,524.523,463.52,552.66z"/>
</svg>