<svg xmlns="http://www.w3.org/2000/svg" xmlns:xlink="http://www.w3.org/1999/xlink" version="1.1" id="Layer_1" x="0px" y="0px" enable-background="new 0 0 822.05 841.89" xml:space="preserve" viewBox="342.43 336.18 140.61 170.86">
<path fill-rule="evenodd" clip-rule="evenodd" fill="#FEFDFC" stroke="#000000" stroke-linecap="square" stroke-miterlimit="10" d="  M418.259,344.14c8.283,14.727-3.282,35.762,13.504,43.5c2.709-18.203,7.342-21.402,18-27c4.158-2.184,44.102-12.552,29.625,6.75  c-30.912,41.216-56.179,51.437-40.125,107.625c1.954,6.84,22.949,35.196,1.5,31.125c-8.283-1.572-13.273-27.724-18.75-33.75  c-8.729-9.604-20.099-7.829-29.252-18.75c-10.832-12.924-11.441-35.619-29.25-34.5c4.089-13.255,10.171-43.079-1.5-54.75  c-7.425-7.425-21.424-2.214-18.75-17.25c2.036-11.448,14.049-12.301,23.25-8.25c11.43,5.032,16.115,48.641,24.75,48.75  C406.166,387.83,382.615,329.47,418.259,344.14z"/>
<path fill-rule="evenodd" clip-rule="evenodd" fill="#1D1D1D" d="M410.011,371.14c4.346,9.121,6.133,19.464,4.498,29.25  c-2.991-1.184-8.208-3.083-9.748-3.75C402.187,386.005,401.718,372.76,410.011,371.14z"/>
<path fill-rule="evenodd" clip-rule="evenodd" fill="#1D1D1D" d="M404.761,356.14c-0.667,3.59,0.843,6.012-1.5,8.25  C401.974,360.586,404.7,356.464,404.761,356.14z"/>
<path fill-rule="evenodd" clip-rule="evenodd" fill="#1D1D1D" d="M410.761,355.39c-0.951,3.11,0.466,5.296-1.5,8.25  C407.495,359.381,410.878,355.005,410.761,355.39z"/>
</svg>