<svg xmlns="http://www.w3.org/2000/svg" xmlns:xlink="http://www.w3.org/1999/xlink" version="1.1" id="Layer_1" x="0px" y="0px" enable-background="new 0 0 822.05 841.89" xml:space="preserve" viewBox="309.04 337.32 202.47 170.07">
<path fill-rule="evenodd" clip-rule="evenodd" fill="#FB0F0C" stroke="#000000" stroke-linecap="square" stroke-miterlimit="10" d="  M358.761,444.64c16.237-5.946,39.301-16.797,53.25-18c-30.624-20.929-63.608-11.732-98.25-1.5  C328.761,431.64,343.761,438.14,358.761,444.64z"/>
<path fill-rule="evenodd" clip-rule="evenodd" fill="#FB0F0C" stroke="#000000" stroke-linecap="square" stroke-miterlimit="10" d="  M415.759,476.89c-1.811-17.214-3.061-34.437-2.998-51.75c-20.06,7.145-54.531,8.981-55.014,32.172  c-0.345,16.544-0.962,33.096,0.264,49.578C377.23,497.021,396.021,485.637,415.759,476.89z"/>
<path fill-rule="evenodd" clip-rule="evenodd" fill="#FB0F0C" stroke="#000000" stroke-linecap="square" stroke-miterlimit="10" d="  M358.011,444.64c-15-6.5-30-13-45-19.5c-0.452,11.155-8.334,52.255,1.266,57.375c14.655,7.816,30.154,14.781,43.734,24.375  C355.918,486.414,357.582,465.227,358.011,444.64z"/>
<path fill-rule="evenodd" clip-rule="evenodd" fill="#F7F619" stroke="#000000" stroke-linecap="square" stroke-miterlimit="10" d="  M392.511,432.64c-7.084-1.221-14.206-5.073-21-7.5c5.067-2.51,10.348-5.883,15.75-7.5c-17.483,3.369-29.783-2.596-47.25-1.5  c7.063,1.746,13.292,6.824,20.25,9c-20.773,8.554-25.168,6.35-26.924,28.298c-1.181,14.763-7.516,32.346,2.924,40.702  c2.106-32.008-6.221-53.072,24.633-65.227c33.944-13.372,25.19,46.962,25.617,62.977C400.204,480.842,392.754,450.63,392.511,432.64  z"/>
<path fill-rule="evenodd" clip-rule="evenodd" fill="#F7F619" stroke="#000000" stroke-linecap="square" stroke-miterlimit="10" d="  M382.761,401.89c-12.406-2.45-17.349,9.461-20.25,20.25c-0.09-39.039-43.816,0.111-11.25,5.25c-12.322,6.891-17.64,23.709-1.5,27  c-11.408-16,5.729-26.332,15-33c0.247,0.134-0.749,4.895-0.75,4.5c33.716-0.069-11.146,33.254,10.5,36.75  c-0.89-12.872,17.327-27.423-1.5-38.25C387.591,422.625,392.203,413.037,382.761,401.89z M347.511,410.14  c6.739,2.206,11.348,2.615,12,13.5C347.373,424.685,341.226,421.043,347.511,410.14z M358.761,424.39  C359.761,424.39,359.761,424.39,358.761,424.39L358.761,424.39z M366.261,422.14C370.853,391.5,399.235,422.939,366.261,422.14  L366.261,422.14z"/>
<path fill-rule="evenodd" clip-rule="evenodd" fill="#F7F619" stroke="#000000" stroke-linecap="square" stroke-miterlimit="10" d="  M370.011,423.64C356.159,430.29,353.574,418.907,370.011,423.64L370.011,423.64z"/>
<line fill="none" stroke="#000000" stroke-linecap="square" stroke-miterlimit="10" x1="336.261" y1="434.89" x2="341.511" y2="436.39"/>
<path fill-rule="evenodd" clip-rule="evenodd" fill="#FFFFFF" d="M385.011,435.64l7.5-3L385.011,435.64z"/>
<line fill="none" stroke="#000000" stroke-linecap="square" stroke-miterlimit="10" x1="385.011" y1="435.64" x2="392.511" y2="432.64"/>
<path fill-rule="evenodd" clip-rule="evenodd" fill="#FB0F0C" stroke="#000000" stroke-linecap="square" stroke-miterlimit="10" d="  M454.013,380.89c16.237-5.946,39.301-16.797,53.25-18c-30.625-20.929-63.609-11.731-98.252-1.5  C424.012,367.89,439.012,374.39,454.013,380.89z"/>
<path fill-rule="evenodd" clip-rule="evenodd" fill="#FB0F0C" stroke="#000000" stroke-linecap="square" stroke-miterlimit="10" d="  M511.013,413.14c-1.812-17.214-3.062-34.437-3-51.75c-20.06,7.145-54.531,8.981-55.014,32.172  c-0.345,16.544-0.962,33.096,0.264,49.578C472.482,433.271,491.273,421.886,511.013,413.14z"/>
<path fill-rule="evenodd" clip-rule="evenodd" fill="#FB0F0C" stroke="#000000" stroke-linecap="square" stroke-miterlimit="10" d="  M453.263,380.89c-15.001-6.5-30.001-13-45.002-19.5c-0.452,11.155-8.334,52.255,1.266,57.375  c14.656,7.815,30.155,14.781,43.736,24.375C451.17,422.664,452.834,401.477,453.263,380.89z"/>
<path fill-rule="evenodd" clip-rule="evenodd" fill="#F7F619" stroke="#000000" stroke-linecap="square" stroke-miterlimit="10" d="  M487.763,368.89c-7.084-1.221-14.206-5.074-21-7.5c5.067-2.51,10.348-5.883,15.75-7.5c-17.483,3.369-29.783-2.596-47.25-1.5  c7.062,1.746,13.292,6.824,20.25,9c-20.773,8.554-25.168,6.35-26.924,28.298c-1.181,14.763-7.517,32.346,2.924,40.702  c2.105-32.007-6.221-53.072,24.633-65.227c33.944-13.372,25.19,46.962,25.617,62.977  C495.456,417.092,488.006,386.881,487.763,368.89z"/>
<path fill-rule="evenodd" clip-rule="evenodd" fill="#F7F619" stroke="#000000" stroke-linecap="square" stroke-miterlimit="10" d="  M478.013,338.14c-12.405-2.45-17.35,9.461-20.25,20.25c-0.09-39.039-43.816,0.111-11.25,5.25c-12.322,6.891-17.64,23.709-1.5,27  c-11.407-16,5.729-26.332,15-33c0.247,0.134-0.749,4.895-0.75,4.5c33.716-0.07-11.146,33.254,10.5,36.75  c-0.891-12.872,17.327-27.422-1.5-38.25C482.843,358.875,487.455,349.287,478.013,338.14z M442.763,346.39  c6.739,2.206,11.348,2.615,12,13.5C442.625,360.935,436.478,357.293,442.763,346.39z M454.013,360.64  C455.013,360.64,455.013,360.64,454.013,360.64L454.013,360.64z M461.513,358.39C466.105,327.75,494.487,359.189,461.513,358.39  L461.513,358.39z"/>
<path fill-rule="evenodd" clip-rule="evenodd" fill="#F7F619" stroke="#000000" stroke-linecap="square" stroke-miterlimit="10" d="  M465.263,359.89C451.411,366.539,448.826,355.157,465.263,359.89L465.263,359.89z"/>
<line fill="none" stroke="#000000" stroke-linecap="square" stroke-miterlimit="10" x1="431.513" y1="371.14" x2="436.763" y2="372.64"/>
<path fill-rule="evenodd" clip-rule="evenodd" fill="#FFFFFF" d="M480.263,371.89l7.5-3L480.263,371.89z"/>
<line fill="none" stroke="#000000" stroke-linecap="square" stroke-miterlimit="10" x1="480.263" y1="371.89" x2="487.763" y2="368.89"/>
</svg>