<svg xmlns="http://www.w3.org/2000/svg" xmlns:xlink="http://www.w3.org/1999/xlink" version="1.1" id="Layer_1" x="0px" y="0px" enable-background="new 0 0 822.05 841.89" xml:space="preserve" viewBox="328.72 331.75 162.61 176.97">
<path fill-rule="evenodd" clip-rule="evenodd" fill="#FFFFFF" stroke="#000000" stroke-linecap="square" stroke-miterlimit="10" d="  M341.25,449.999c-3.168,7.428-6.188,14.704-8.25,22.5c0.677-0.177,1.177,0.073,1.5,0.75  C337.377,461.283,347.929,451.535,341.25,449.999z"/>
<path fill-rule="evenodd" clip-rule="evenodd" stroke="#000000" stroke-linecap="square" stroke-miterlimit="10" d="M333,472.499  c-1.462,5.168-6.185,5.743-2.25,12.75C334.934,480.21,332.624,475.922,333,472.499z"/>
<path fill-rule="evenodd" clip-rule="evenodd" fill="#F7DE58" stroke="#000000" stroke-linecap="square" stroke-miterlimit="10" d="  M399,348.749c-2.773-6.29-8.398-5.683-6-14.25c-0.553,1.651-4.611,7.649-5.25,9.75c-0.202-4.202,0.053-6.454-1.5-9.75  c-0.961,3.69-1.16,4.099-0.75,9.75c-0.95-0.432-5.891-4.667-8.25-3.75c10.829,27.405,7.327,68.263-15.75,93  c-13.583,14.56-21.75,12.887-21.75,36c0,13.707-4.937,42.763,12.75,38.25c-10.409-9.082-11.734-25.188-3.75-36.75  c2.751,12.429,9.875,36.133,23.25,31.5c-16.273-12.297-14.169-24.098-16.5-42c9.115-0.925,15.405-0.32,24-3  c1.009,15.138-4.877,57.435,15.75,48c-14.251-17.706-0.75-46.397-0.75-66.75c0-25.523-0.947-54.367-1.5-81  C407.443,361.421,415.841,352.296,399,348.749z"/>
<path fill="none" stroke="#000000" stroke-linecap="square" stroke-miterlimit="10" d="M350.25,451.499  c1.782,7.054,1.069,13.98-2.25,20.25"/>
<path fill="none" stroke="#000000" stroke-linecap="square" stroke-miterlimit="10" d="M388.5,446.249  c-0.45,20.219-5.225,40.068,0,60"/>
<path fill="none" stroke="#000000" stroke-linecap="square" stroke-miterlimit="10" d="M384,344.999  c-1.363,1.141-1.883,2.719-1.5,4.5"/>
<path fill="none" stroke="#000000" stroke-linecap="square" stroke-miterlimit="10" d="M389.25,344.249c0.724-1.171,1.724-1.171,3,0  "/>
<path fill="none" stroke="#000000" stroke-linecap="square" stroke-miterlimit="10" d="M353.25,459.749  c1.053-0.079,2.053,0.171,3,0.75"/>
<path fill="none" stroke="#000000" stroke-linecap="square" stroke-miterlimit="10" d="M391.5,350.249  C389.856,351.135,390.858,350.595,391.5,350.249L391.5,350.249z"/>
<path fill="none" stroke="#000000" stroke-linecap="square" stroke-miterlimit="10" d="M391.5,350.249  C389.856,351.135,390.858,350.595,391.5,350.249L391.5,350.249z"/>
<path fill="none" stroke="#000000" stroke-linecap="square" stroke-miterlimit="10" d="M392.25,350.249  C389.461,350.249,389.461,350.249,392.25,350.249L392.25,350.249z"/>
<path fill="none" stroke="#000000" stroke-linecap="square" stroke-miterlimit="10" d="M391.5,350.249  C389.8,350.249,389.8,350.249,391.5,350.249L391.5,350.249z"/>
<path fill="none" stroke="#000000" stroke-linecap="square" stroke-miterlimit="10" d="M390.75,350.249  C390.75,351.249,390.75,351.249,390.75,350.249L390.75,350.249z"/>
<path fill="none" stroke="#000000" stroke-linecap="square" stroke-miterlimit="10" d="M391.5,350.249  C390.597,350.09,389.381,349.876,391.5,350.249L391.5,350.249z"/>
<path fill="none" stroke="#000000" stroke-linecap="square" stroke-miterlimit="10" d="M391.5,350.249  C389.853,350.249,389.853,350.249,391.5,350.249L391.5,350.249z"/>
<path fill="none" stroke="#000000" stroke-linecap="square" stroke-miterlimit="10" d="M391.5,350.249  C389.853,350.249,389.853,350.249,391.5,350.249L391.5,350.249z"/>
<path fill="none" stroke="#000000" stroke-linecap="square" stroke-miterlimit="10" d="M391.5,350.249  C389.856,351.135,390.858,350.595,391.5,350.249L391.5,350.249z"/>
<path fill="none" stroke="#000000" stroke-linecap="square" stroke-miterlimit="10" d="M391.5,350.249  C389.856,351.135,390.858,350.595,391.5,350.249L391.5,350.249z"/>
<path fill="none" stroke="#000000" stroke-linecap="square" stroke-miterlimit="10" d="M391.5,350.249  C389.856,351.135,390.858,350.595,391.5,350.249L391.5,350.249z"/>
<path fill="none" stroke="#000000" stroke-linecap="square" stroke-miterlimit="10" d="M391.5,350.249  C389.856,351.135,390.858,350.595,391.5,350.249L391.5,350.249z"/>
<path fill="none" stroke="#000000" stroke-linecap="square" stroke-miterlimit="10" d="M391.5,350.249  C389.856,351.135,390.858,350.595,391.5,350.249L391.5,350.249z"/>
<path fill="none" stroke="#000000" stroke-linecap="square" stroke-miterlimit="10" d="M392.25,350.249  C389.997,350.037,389.282,349.97,392.25,350.249L392.25,350.249z"/>
<path fill="none" stroke="#000000" stroke-linecap="square" stroke-miterlimit="10" d="M391.5,350.249  C390.597,350.09,389.381,349.876,391.5,350.249L391.5,350.249z"/>
<path fill="none" stroke="#000000" stroke-linecap="square" stroke-miterlimit="10" d="M390.75,350.249  C391.354,350.852,391.354,350.852,390.75,350.249L390.75,350.249z"/>
<path fill="none" stroke="#000000" stroke-linecap="square" stroke-miterlimit="10" d="M391.5,350.249  C389.853,350.249,389.853,350.249,391.5,350.249L391.5,350.249z"/>
<path fill="none" stroke="#000000" stroke-linecap="square" stroke-miterlimit="10" d="M391.5,350.249  C389.853,350.249,389.853,350.249,391.5,350.249L391.5,350.249z"/>
<path fill="none" stroke="#000000" stroke-linecap="square" stroke-miterlimit="10" d="M391.5,350.249  C390.38,350.249,390.38,350.249,391.5,350.249L391.5,350.249z"/>
<path fill="none" stroke="#000000" stroke-linecap="square" stroke-miterlimit="10" d="M391.5,350.249  C389.856,351.135,390.858,350.595,391.5,350.249L391.5,350.249z"/>
<path fill="none" stroke="#000000" stroke-linecap="square" stroke-miterlimit="10" d="M391.5,350.249  C389.856,351.135,390.858,350.595,391.5,350.249L391.5,350.249z"/>
<path fill="none" stroke="#000000" stroke-linecap="square" stroke-miterlimit="10" d="M391.5,350.249  C389.856,351.135,390.858,350.595,391.5,350.249L391.5,350.249z"/>
<path fill="none" stroke="#000000" stroke-linecap="square" stroke-miterlimit="10" d="M391.5,350.249  C389.856,351.135,390.858,350.595,391.5,350.249L391.5,350.249z"/>
<path fill="none" stroke="#000000" stroke-linecap="square" stroke-miterlimit="10" d="M391.5,350.249  C390.896,350.852,390.896,350.852,391.5,350.249L391.5,350.249z"/>
<path fill="none" stroke="#000000" stroke-linecap="square" stroke-miterlimit="10" d="M391.5,350.249  C389.853,350.249,389.853,350.249,391.5,350.249L391.5,350.249z"/>
<path fill="none" stroke="#000000" stroke-linecap="square" stroke-miterlimit="10" d="M391.5,350.249  C389.853,350.249,389.853,350.249,391.5,350.249L391.5,350.249z"/>
<path fill="none" stroke="#000000" stroke-linecap="square" stroke-miterlimit="10" d="M390.75,350.249  C391.354,350.852,391.354,350.852,390.75,350.249L390.75,350.249z"/>
<path fill="none" stroke="#000000" stroke-linecap="square" stroke-miterlimit="10" d="M391.5,350.249  C390.38,350.249,390.38,350.249,391.5,350.249L391.5,350.249z"/>
<path fill="none" stroke="#000000" stroke-linecap="square" stroke-miterlimit="10" d="M391.5,350.249  C389.856,351.135,390.858,350.595,391.5,350.249L391.5,350.249z"/>
<path fill="none" stroke="#000000" stroke-linecap="square" stroke-miterlimit="10" d="M391.5,350.249  C389.856,351.135,390.858,350.595,391.5,350.249L391.5,350.249z"/>
<path fill="none" stroke="#000000" stroke-linecap="square" stroke-miterlimit="10" d="M391.5,350.249  C389.856,351.135,390.858,350.595,391.5,350.249L391.5,350.249z"/>
<path fill="none" stroke="#000000" stroke-linecap="square" stroke-miterlimit="10" d="M391.5,350.249  C389.856,351.135,390.858,350.595,391.5,350.249L391.5,350.249z"/>
<path fill="none" stroke="#000000" stroke-linecap="square" stroke-miterlimit="10" d="M391.5,350.249  C389.856,351.135,390.858,350.595,391.5,350.249L391.5,350.249z"/>
<path fill="none" stroke="#000000" stroke-linecap="square" stroke-miterlimit="10" d="M391.5,350.249  C390.896,350.852,390.896,350.852,391.5,350.249L391.5,350.249z"/>
<path fill="none" stroke="#000000" stroke-linecap="square" stroke-miterlimit="10" d="M391.5,350.249  C390.5,350.249,390.5,350.249,391.5,350.249L391.5,350.249z"/>
<path fill="none" stroke="#000000" stroke-linecap="square" stroke-miterlimit="10" d="M391.5,350.249  C390.896,350.852,390.896,350.852,391.5,350.249L391.5,350.249z"/>
<path fill="none" stroke="#000000" stroke-linecap="square" stroke-miterlimit="10" d="M391.5,350.249  C390.896,350.852,390.896,350.852,391.5,350.249L391.5,350.249z"/>
<path fill="none" stroke="#000000" stroke-linecap="square" stroke-miterlimit="10" d="M390.75,350.249  C391.75,350.249,391.75,350.249,390.75,350.249L390.75,350.249z"/>
<path fill="none" stroke="#000000" stroke-linecap="square" stroke-miterlimit="10" d="M391.5,350.249  C390.896,350.852,390.896,350.852,391.5,350.249L391.5,350.249z"/>
<path fill="none" stroke="#000000" stroke-linecap="square" stroke-miterlimit="10" d="M391.5,350.249  C390.896,350.852,390.896,350.852,391.5,350.249L391.5,350.249z"/>
<path fill="none" stroke="#000000" stroke-linecap="square" stroke-miterlimit="10" d="M391.5,350.249  C390.896,350.852,390.896,350.852,391.5,350.249L391.5,350.249z"/>
<path fill="none" stroke="#000000" stroke-linecap="square" stroke-miterlimit="10" d="M391.5,350.249  C390.896,350.852,390.896,350.852,391.5,350.249L391.5,350.249z"/>
<path fill="none" stroke="#000000" stroke-linecap="square" stroke-miterlimit="10" d="M391.5,350.249  C390.896,350.852,390.896,350.852,391.5,350.249L391.5,350.249z"/>
<path fill="none" stroke="#000000" stroke-linecap="square" stroke-miterlimit="10" d="M391.5,350.249  C390.896,350.852,390.896,350.852,391.5,350.249L391.5,350.249z"/>
<path fill="none" stroke="#000000" stroke-linecap="square" stroke-miterlimit="10" d="M405,350.999  C404.396,350.395,404.396,350.395,405,350.999L405,350.999z"/>
<path fill="none" stroke="#000000" stroke-linecap="square" stroke-miterlimit="10" d="M405,350.999L405,350.999z"/>
<path fill="none" stroke="#000000" stroke-linecap="square" stroke-miterlimit="10" d="M406.5,350.249  C403.039,350.868,403.659,350.757,406.5,350.249L406.5,350.249z"/>
<path fill="none" stroke="#000000" stroke-linecap="square" stroke-miterlimit="10" d="M405.75,350.249  C404.353,350.829,402.797,351.474,405.75,350.249L405.75,350.249z"/>
<path fill="none" stroke="#000000" stroke-linecap="square" stroke-miterlimit="10" d="M404.25,350.999  C405.25,350.999,405.25,350.999,404.25,350.999L404.25,350.999z"/>
<path fill="none" stroke="#000000" stroke-linecap="square" stroke-miterlimit="10" d="M405.75,350.249  C403.894,351.222,404.321,350.999,405.75,350.249L405.75,350.249z"/>
<path fill="none" stroke="#000000" stroke-linecap="square" stroke-miterlimit="10" d="M405.75,350.999  C403.892,350.549,404.307,350.65,405.75,350.999L405.75,350.999z"/>
<path fill="none" stroke="#000000" stroke-linecap="square" stroke-miterlimit="10" d="M405.75,350.999  C403.892,350.549,404.307,350.65,405.75,350.999L405.75,350.999z"/>
<path fill="none" stroke="#000000" stroke-linecap="square" stroke-miterlimit="10" d="M405.75,350.999  C403.892,350.549,404.307,350.65,405.75,350.999L405.75,350.999z"/>
<path fill="none" stroke="#000000" stroke-linecap="square" stroke-miterlimit="10" d="M405.75,350.999  C403.892,350.549,404.307,350.65,405.75,350.999L405.75,350.999z"/>
<path fill="none" stroke="#000000" stroke-linecap="square" stroke-miterlimit="10" d="M405,350.999  C404.396,350.395,404.396,350.395,405,350.999L405,350.999z"/>
<path fill="none" stroke="#000000" stroke-linecap="square" stroke-miterlimit="10" d="M405,350.999  C405,349.999,405,349.999,405,350.999L405,350.999z"/>
<path fill="none" stroke="#000000" stroke-linecap="square" stroke-miterlimit="10" d="M405,350.999L405,350.999z"/>
<path fill="none" stroke="#000000" stroke-linecap="square" stroke-miterlimit="10" d="M406.5,350.249  C403.497,350.98,403.206,351.051,406.5,350.249L406.5,350.249z"/>
<path fill="none" stroke="#000000" stroke-linecap="square" stroke-miterlimit="10" d="M405.75,350.249  C403.894,351.222,404.321,350.999,405.75,350.249L405.75,350.249z"/>
<path fill="none" stroke="#000000" stroke-linecap="square" stroke-miterlimit="10" d="M405,350.999L405,350.999z"/>
<path fill="none" stroke="#000000" stroke-linecap="square" stroke-miterlimit="10" d="M405.75,350.249  C403.894,351.222,404.321,350.999,405.75,350.249L405.75,350.249z"/>
<path fill="none" stroke="#000000" stroke-linecap="square" stroke-miterlimit="10" d="M405.75,350.999  C403.892,350.549,404.307,350.65,405.75,350.999L405.75,350.999z"/>
<path fill="none" stroke="#000000" stroke-linecap="square" stroke-miterlimit="10" d="M405.75,350.999  C403.892,350.549,404.307,350.65,405.75,350.999L405.75,350.999z"/>
<path fill="none" stroke="#000000" stroke-linecap="square" stroke-miterlimit="10" d="M405.75,350.999  C403.892,350.549,404.307,350.65,405.75,350.999L405.75,350.999z"/>
<path fill="none" stroke="#000000" stroke-linecap="square" stroke-miterlimit="10" d="M405.75,350.999  C403.892,350.549,404.307,350.65,405.75,350.999L405.75,350.999z"/>
<path fill="none" stroke="#000000" stroke-linecap="square" stroke-miterlimit="10" d="M405,350.999  C405,349.999,405,349.999,405,350.999L405,350.999z"/>
<path fill="none" stroke="#000000" stroke-linecap="square" stroke-miterlimit="10" d="M405,350.999L405,350.999z"/>
<path fill="none" stroke="#000000" stroke-linecap="square" stroke-miterlimit="10" d="M405,350.999L405,350.999z"/>
<path fill="none" stroke="#000000" stroke-linecap="square" stroke-miterlimit="10" d="M405.75,350.249  C403.894,351.222,404.321,350.999,405.75,350.249L405.75,350.249z"/>
<path fill="none" stroke="#000000" stroke-linecap="square" stroke-miterlimit="10" d="M405.75,350.249  C403.894,351.222,404.321,350.999,405.75,350.249L405.75,350.249z"/>
<path fill="none" stroke="#000000" stroke-linecap="square" stroke-miterlimit="10" d="M405,350.999L405,350.999z"/>
<path fill="none" stroke="#000000" stroke-linecap="square" stroke-miterlimit="10" d="M405.75,350.999  C403.892,350.549,404.307,350.65,405.75,350.999L405.75,350.999z"/>
<path fill="none" stroke="#000000" stroke-linecap="square" stroke-miterlimit="10" d="M405.75,350.999  C403.892,350.549,404.307,350.65,405.75,350.999L405.75,350.999z"/>
<path fill="none" stroke="#000000" stroke-linecap="square" stroke-miterlimit="10" d="M405.75,350.999  C403.892,350.549,404.307,350.65,405.75,350.999L405.75,350.999z"/>
<path fill="none" stroke="#000000" stroke-linecap="square" stroke-miterlimit="10" d="M405.75,350.999  C405.108,350.652,404.106,350.112,405.75,350.999L405.75,350.999z"/>
<path fill="none" stroke="#000000" stroke-linecap="square" stroke-miterlimit="10" d="M405.75,350.999  C405.108,350.652,404.106,350.112,405.75,350.999L405.75,350.999z"/>
<path fill="none" stroke="#000000" stroke-linecap="square" stroke-miterlimit="10" d="M405,350.999L405,350.999z"/>
<path fill="none" stroke="#000000" stroke-linecap="square" stroke-miterlimit="10" d="M405,350.999L405,350.999z"/>
<path fill="none" stroke="#000000" stroke-linecap="square" stroke-miterlimit="10" d="M405,350.999L405,350.999z"/>
<path fill="none" stroke="#000000" stroke-linecap="square" stroke-miterlimit="10" d="M405.75,350.999  C405.108,350.652,404.106,350.112,405.75,350.999L405.75,350.999z"/>
<path fill="none" stroke="#000000" stroke-linecap="square" stroke-miterlimit="10" d="M405.75,350.999  C405.108,350.652,404.106,350.112,405.75,350.999L405.75,350.999z"/>
<path fill="none" stroke="#000000" stroke-linecap="square" stroke-miterlimit="10" d="M405,350.999L405,350.999z"/>
<path fill="none" stroke="#000000" stroke-linecap="square" stroke-miterlimit="10" d="M405.75,350.999  C405.108,350.652,404.106,350.112,405.75,350.999L405.75,350.999z"/>
<path fill="none" stroke="#000000" stroke-linecap="square" stroke-miterlimit="10" d="M405.75,350.999  C405.108,350.652,404.106,350.112,405.75,350.999L405.75,350.999z"/>
<path fill="none" stroke="#000000" stroke-linecap="square" stroke-miterlimit="10" d="M405.75,350.999  C405.108,350.652,404.106,350.112,405.75,350.999L405.75,350.999z"/>
<path fill="none" stroke="#000000" stroke-linecap="square" stroke-miterlimit="10" d="M405.75,350.999  C405.108,350.652,404.106,350.112,405.75,350.999L405.75,350.999z"/>
<path fill="none" stroke="#000000" stroke-linecap="square" stroke-miterlimit="10" d="M405.75,350.999  C404.75,350.999,404.75,350.999,405.75,350.999L405.75,350.999z"/>
<path fill="none" stroke="#000000" stroke-linecap="square" stroke-miterlimit="10" d="M405,350.999L405,350.999z"/>
<path fill="none" stroke="#000000" stroke-linecap="square" stroke-miterlimit="10" d="M387,355.499c0.944,2.169,3.371,2.863,6,2.25  "/>
<path fill="none" stroke="#000000" stroke-linecap="square" stroke-miterlimit="10" d="M397.5,355.499  c2.779,3.126,6.542,3.874,10.5,2.25"/>
<path fill-rule="evenodd" clip-rule="evenodd" stroke="#000000" stroke-linecap="square" stroke-miterlimit="10" d="M384,422.999  c2.387,4.717,2.236,7.938,8.25,9c0.773-4.809,0.678-13.548,0-18.75C385.983,414.721,386.348,418.264,384,422.999z"/>
<path fill-rule="evenodd" clip-rule="evenodd" stroke="#000000" stroke-linecap="square" stroke-miterlimit="10" d="M387.75,398.249  c-2.104-4.164-1.2-6.694-6.75-8.25c-1.289,5.162-2.081,11.182-2.25,16.5C386.036,406.258,384.896,402.559,387.75,398.249z"/>
<path fill-rule="evenodd" clip-rule="evenodd" stroke="#000000" stroke-linecap="square" stroke-miterlimit="10" d="M386.25,374.999  c1.675,4.356,1.166,7.157,6,9.75c1.003-5.705,1.36-12.908,0.75-18.75C387.566,367.519,388.626,370.635,386.25,374.999z"/>
<path fill-rule="evenodd" clip-rule="evenodd" stroke="#000000" stroke-linecap="square" stroke-miterlimit="10" d="M373.5,438.749  C353.628,473.876,411.578,426.739,373.5,438.749L373.5,438.749z"/>
<path fill-rule="evenodd" clip-rule="evenodd" stroke="#000000" stroke-linecap="square" stroke-miterlimit="10" d="M370.5,434.999  c7.418-5.98,11.693-10.621,6-21c-3.857,3.917-9.538,12.994-12,18C366.261,433.787,368.917,433.645,370.5,434.999z"/>
<path fill-rule="evenodd" clip-rule="evenodd" stroke="#000000" stroke-linecap="square" stroke-miterlimit="10" d="M351,470.249  c2.942,3.192,0.186,6.22,6,7.5c0.39-4.928,0.083-9.229-0.75-14.25C352.155,464.664,353.258,469.309,351,470.249z"/>
<path fill-rule="evenodd" clip-rule="evenodd" stroke="#000000" stroke-linecap="square" stroke-miterlimit="10" d="M354,447.749  c5.18-4.59,11.125-3.777,6-13.5c-4.495,1.687-9.81,5.213-13.5,8.25C348.372,446.615,351.698,445.709,354,447.749z"/>
<path fill-rule="evenodd" clip-rule="evenodd" stroke="#000000" stroke-linecap="square" stroke-miterlimit="10" d="M365.25,453.749  c-4.152,2.668-7.373,1.337-8.25,7.5c5.284,0.372,10.555-0.026,15.75-0.75C372.112,454.396,368.856,456.037,365.25,453.749z"/>
<path fill="none" stroke="#000000" stroke-linecap="square" stroke-miterlimit="10" d="M389.25,347.999  c1.359-0.247,2.612-0.002,3.75,0.75"/>
<path fill-rule="evenodd" clip-rule="evenodd" fill="#FFFFFF" stroke="#000000" stroke-linecap="square" stroke-miterlimit="10" d="  M423.75,447.749c-3.168,7.428-6.188,14.704-8.25,22.5c0.677-0.177,1.177,0.073,1.5,0.75  C419.877,459.033,430.429,449.285,423.75,447.749z"/>
<path fill-rule="evenodd" clip-rule="evenodd" stroke="#000000" stroke-linecap="square" stroke-miterlimit="10" d="M415.5,470.249  c-1.463,5.168-6.185,5.743-2.25,12.75C417.434,477.96,415.124,473.672,415.5,470.249z"/>
<path fill-rule="evenodd" clip-rule="evenodd" fill="#F7DE58" stroke="#000000" stroke-linecap="square" stroke-miterlimit="10" d="  M481.5,346.499c-2.773-6.29-8.398-5.683-6-14.25c-0.553,1.651-4.611,7.649-5.25,9.75c-0.202-4.202,0.053-6.454-1.5-9.75  c-0.961,3.69-1.16,4.099-0.75,9.75c-0.95-0.432-5.892-4.667-8.25-3.75c10.829,27.405,7.327,68.263-15.75,93  c-13.582,14.56-21.75,12.887-21.75,36c0,13.707-4.938,42.763,12.75,38.25c-10.408-9.082-11.734-25.188-3.75-36.75  c2.752,12.429,9.875,36.133,23.25,31.5c-16.273-12.297-14.17-24.098-16.5-42c9.114-0.925,15.404-0.32,24-3  c1.009,15.138-4.877,57.435,15.75,48c-14.251-17.706-0.75-46.397-0.75-66.75c0-25.523-0.947-54.367-1.5-81  C489.943,359.171,498.341,350.046,481.5,346.499z"/>
<path fill="none" stroke="#000000" stroke-linecap="square" stroke-miterlimit="10" d="M432.75,449.249  c1.782,7.054,1.069,13.98-2.25,20.25"/>
<path fill="none" stroke="#000000" stroke-linecap="square" stroke-miterlimit="10" d="M471,443.999c-0.45,20.219-5.226,40.068,0,60  "/>
<path fill="none" stroke="#000000" stroke-linecap="square" stroke-miterlimit="10" d="M466.5,342.749  c-1.362,1.141-1.883,2.719-1.5,4.5"/>
<path fill="none" stroke="#000000" stroke-linecap="square" stroke-miterlimit="10" d="M471.75,341.999c0.724-1.171,1.724-1.171,3,0  "/>
<path fill="none" stroke="#000000" stroke-linecap="square" stroke-miterlimit="10" d="M435.75,457.499  c1.054-0.079,2.054,0.171,3,0.75"/>
<path fill="none" stroke="#000000" stroke-linecap="square" stroke-miterlimit="10" d="M474,347.999  C472.356,348.885,473.358,348.345,474,347.999L474,347.999z"/>
<path fill="none" stroke="#000000" stroke-linecap="square" stroke-miterlimit="10" d="M474,347.999  C472.356,348.885,473.358,348.345,474,347.999L474,347.999z"/>
<path fill="none" stroke="#000000" stroke-linecap="square" stroke-miterlimit="10" d="M474.75,347.999  C471.961,347.999,471.961,347.999,474.75,347.999L474.75,347.999z"/>
<path fill="none" stroke="#000000" stroke-linecap="square" stroke-miterlimit="10" d="M474,347.999  C472.301,347.999,472.301,347.999,474,347.999L474,347.999z"/>
<path fill="none" stroke="#000000" stroke-linecap="square" stroke-miterlimit="10" d="M473.25,347.999  C473.25,348.999,473.25,348.999,473.25,347.999L473.25,347.999z"/>
<path fill="none" stroke="#000000" stroke-linecap="square" stroke-miterlimit="10" d="M474,347.999  C473.097,347.84,471.881,347.626,474,347.999L474,347.999z"/>
<path fill="none" stroke="#000000" stroke-linecap="square" stroke-miterlimit="10" d="M474,347.999  C472.353,347.999,472.353,347.999,474,347.999L474,347.999z"/>
<path fill="none" stroke="#000000" stroke-linecap="square" stroke-miterlimit="10" d="M474,347.999  C472.353,347.999,472.353,347.999,474,347.999L474,347.999z"/>
<path fill="none" stroke="#000000" stroke-linecap="square" stroke-miterlimit="10" d="M474,347.999  C472.356,348.885,473.358,348.345,474,347.999L474,347.999z"/>
<path fill="none" stroke="#000000" stroke-linecap="square" stroke-miterlimit="10" d="M474,347.999  C472.356,348.885,473.358,348.345,474,347.999L474,347.999z"/>
<path fill="none" stroke="#000000" stroke-linecap="square" stroke-miterlimit="10" d="M474,347.999  C472.356,348.885,473.358,348.345,474,347.999L474,347.999z"/>
<path fill="none" stroke="#000000" stroke-linecap="square" stroke-miterlimit="10" d="M474,347.999  C472.356,348.885,473.358,348.345,474,347.999L474,347.999z"/>
<path fill="none" stroke="#000000" stroke-linecap="square" stroke-miterlimit="10" d="M474,347.999  C472.356,348.885,473.358,348.345,474,347.999L474,347.999z"/>
<path fill="none" stroke="#000000" stroke-linecap="square" stroke-miterlimit="10" d="M474.75,347.999  C472.496,347.787,471.782,347.72,474.75,347.999L474.75,347.999z"/>
<path fill="none" stroke="#000000" stroke-linecap="square" stroke-miterlimit="10" d="M474,347.999  C473.097,347.84,471.881,347.626,474,347.999L474,347.999z"/>
<path fill="none" stroke="#000000" stroke-linecap="square" stroke-miterlimit="10" d="M473.25,347.999  C473.854,348.602,473.854,348.602,473.25,347.999L473.25,347.999z"/>
<path fill="none" stroke="#000000" stroke-linecap="square" stroke-miterlimit="10" d="M474,347.999  C472.353,347.999,472.353,347.999,474,347.999L474,347.999z"/>
<path fill="none" stroke="#000000" stroke-linecap="square" stroke-miterlimit="10" d="M474,347.999  C472.353,347.999,472.353,347.999,474,347.999L474,347.999z"/>
<path fill="none" stroke="#000000" stroke-linecap="square" stroke-miterlimit="10" d="M474,347.999  C472.88,347.999,472.88,347.999,474,347.999L474,347.999z"/>
<path fill="none" stroke="#000000" stroke-linecap="square" stroke-miterlimit="10" d="M474,347.999  C472.356,348.885,473.358,348.345,474,347.999L474,347.999z"/>
<path fill="none" stroke="#000000" stroke-linecap="square" stroke-miterlimit="10" d="M474,347.999  C472.356,348.885,473.358,348.345,474,347.999L474,347.999z"/>
<path fill="none" stroke="#000000" stroke-linecap="square" stroke-miterlimit="10" d="M474,347.999  C472.356,348.885,473.358,348.345,474,347.999L474,347.999z"/>
<path fill="none" stroke="#000000" stroke-linecap="square" stroke-miterlimit="10" d="M474,347.999  C472.356,348.885,473.358,348.345,474,347.999L474,347.999z"/>
<path fill="none" stroke="#000000" stroke-linecap="square" stroke-miterlimit="10" d="M474,347.999  C473.396,348.602,473.396,348.602,474,347.999L474,347.999z"/>
<path fill="none" stroke="#000000" stroke-linecap="square" stroke-miterlimit="10" d="M474,347.999  C472.353,347.999,472.353,347.999,474,347.999L474,347.999z"/>
<path fill="none" stroke="#000000" stroke-linecap="square" stroke-miterlimit="10" d="M474,347.999  C472.353,347.999,472.353,347.999,474,347.999L474,347.999z"/>
<path fill="none" stroke="#000000" stroke-linecap="square" stroke-miterlimit="10" d="M473.25,347.999  C473.854,348.602,473.854,348.602,473.25,347.999L473.25,347.999z"/>
<path fill="none" stroke="#000000" stroke-linecap="square" stroke-miterlimit="10" d="M474,347.999  C472.88,347.999,472.88,347.999,474,347.999L474,347.999z"/>
<path fill="none" stroke="#000000" stroke-linecap="square" stroke-miterlimit="10" d="M474,347.999  C472.356,348.885,473.358,348.345,474,347.999L474,347.999z"/>
<path fill="none" stroke="#000000" stroke-linecap="square" stroke-miterlimit="10" d="M474,347.999  C472.356,348.885,473.358,348.345,474,347.999L474,347.999z"/>
<path fill="none" stroke="#000000" stroke-linecap="square" stroke-miterlimit="10" d="M474,347.999  C472.356,348.885,473.358,348.345,474,347.999L474,347.999z"/>
<path fill="none" stroke="#000000" stroke-linecap="square" stroke-miterlimit="10" d="M474,347.999  C472.356,348.885,473.358,348.345,474,347.999L474,347.999z"/>
<path fill="none" stroke="#000000" stroke-linecap="square" stroke-miterlimit="10" d="M474,347.999  C472.356,348.885,473.358,348.345,474,347.999L474,347.999z"/>
<path fill="none" stroke="#000000" stroke-linecap="square" stroke-miterlimit="10" d="M474,347.999  C473.396,348.602,473.396,348.602,474,347.999L474,347.999z"/>
<path fill="none" stroke="#000000" stroke-linecap="square" stroke-miterlimit="10" d="M474,347.999  C473,347.999,473,347.999,474,347.999L474,347.999z"/>
<path fill="none" stroke="#000000" stroke-linecap="square" stroke-miterlimit="10" d="M474,347.999  C473.396,348.602,473.396,348.602,474,347.999L474,347.999z"/>
<path fill="none" stroke="#000000" stroke-linecap="square" stroke-miterlimit="10" d="M474,347.999  C473.396,348.602,473.396,348.602,474,347.999L474,347.999z"/>
<path fill="none" stroke="#000000" stroke-linecap="square" stroke-miterlimit="10" d="M473.25,347.999  C474.25,347.999,474.25,347.999,473.25,347.999L473.25,347.999z"/>
<path fill="none" stroke="#000000" stroke-linecap="square" stroke-miterlimit="10" d="M474,347.999  C473.396,348.602,473.396,348.602,474,347.999L474,347.999z"/>
<path fill="none" stroke="#000000" stroke-linecap="square" stroke-miterlimit="10" d="M474,347.999  C473.396,348.602,473.396,348.602,474,347.999L474,347.999z"/>
<path fill="none" stroke="#000000" stroke-linecap="square" stroke-miterlimit="10" d="M474,347.999  C473.396,348.602,473.396,348.602,474,347.999L474,347.999z"/>
<path fill="none" stroke="#000000" stroke-linecap="square" stroke-miterlimit="10" d="M474,347.999  C473.396,348.602,473.396,348.602,474,347.999L474,347.999z"/>
<path fill="none" stroke="#000000" stroke-linecap="square" stroke-miterlimit="10" d="M474,347.999  C473.396,348.602,473.396,348.602,474,347.999L474,347.999z"/>
<path fill="none" stroke="#000000" stroke-linecap="square" stroke-miterlimit="10" d="M474,347.999  C473.396,348.602,473.396,348.602,474,347.999L474,347.999z"/>
<path fill="none" stroke="#000000" stroke-linecap="square" stroke-miterlimit="10" d="M487.5,348.749  C486.896,348.145,486.896,348.145,487.5,348.749L487.5,348.749z"/>
<path fill="none" stroke="#000000" stroke-linecap="square" stroke-miterlimit="10" d="M487.5,348.749L487.5,348.749z"/>
<path fill="none" stroke="#000000" stroke-linecap="square" stroke-miterlimit="10" d="M489,347.999  C485.539,348.618,486.159,348.507,489,347.999L489,347.999z"/>
<path fill="none" stroke="#000000" stroke-linecap="square" stroke-miterlimit="10" d="M488.25,347.999  C486.853,348.579,485.297,349.224,488.25,347.999L488.25,347.999z"/>
<path fill="none" stroke="#000000" stroke-linecap="square" stroke-miterlimit="10" d="M486.75,348.749  C487.75,348.749,487.75,348.749,486.75,348.749L486.75,348.749z"/>
<path fill="none" stroke="#000000" stroke-linecap="square" stroke-miterlimit="10" d="M488.25,347.999  C486.394,348.972,486.821,348.749,488.25,347.999L488.25,347.999z"/>
<path fill="none" stroke="#000000" stroke-linecap="square" stroke-miterlimit="10" d="M488.25,348.749  C486.393,348.299,486.807,348.4,488.25,348.749L488.25,348.749z"/>
<path fill="none" stroke="#000000" stroke-linecap="square" stroke-miterlimit="10" d="M488.25,348.749  C486.393,348.299,486.807,348.4,488.25,348.749L488.25,348.749z"/>
<path fill="none" stroke="#000000" stroke-linecap="square" stroke-miterlimit="10" d="M488.25,348.749  C486.393,348.299,486.807,348.4,488.25,348.749L488.25,348.749z"/>
<path fill="none" stroke="#000000" stroke-linecap="square" stroke-miterlimit="10" d="M488.25,348.749  C486.393,348.299,486.807,348.4,488.25,348.749L488.25,348.749z"/>
<path fill="none" stroke="#000000" stroke-linecap="square" stroke-miterlimit="10" d="M487.5,348.749  C486.896,348.145,486.896,348.145,487.5,348.749L487.5,348.749z"/>
<path fill="none" stroke="#000000" stroke-linecap="square" stroke-miterlimit="10" d="M487.5,348.749  C487.5,347.749,487.5,347.749,487.5,348.749L487.5,348.749z"/>
<path fill="none" stroke="#000000" stroke-linecap="square" stroke-miterlimit="10" d="M487.5,348.749L487.5,348.749z"/>
<path fill="none" stroke="#000000" stroke-linecap="square" stroke-miterlimit="10" d="M489,347.999  C485.996,348.73,485.706,348.801,489,347.999L489,347.999z"/>
<path fill="none" stroke="#000000" stroke-linecap="square" stroke-miterlimit="10" d="M488.25,347.999  C486.394,348.972,486.821,348.749,488.25,347.999L488.25,347.999z"/>
<path fill="none" stroke="#000000" stroke-linecap="square" stroke-miterlimit="10" d="M487.5,348.749L487.5,348.749z"/>
<path fill="none" stroke="#000000" stroke-linecap="square" stroke-miterlimit="10" d="M488.25,347.999  C486.394,348.972,486.821,348.749,488.25,347.999L488.25,347.999z"/>
<path fill="none" stroke="#000000" stroke-linecap="square" stroke-miterlimit="10" d="M488.25,348.749  C486.393,348.299,486.807,348.4,488.25,348.749L488.25,348.749z"/>
<path fill="none" stroke="#000000" stroke-linecap="square" stroke-miterlimit="10" d="M488.25,348.749  C486.393,348.299,486.807,348.4,488.25,348.749L488.25,348.749z"/>
<path fill="none" stroke="#000000" stroke-linecap="square" stroke-miterlimit="10" d="M488.25,348.749  C486.393,348.299,486.807,348.4,488.25,348.749L488.25,348.749z"/>
<path fill="none" stroke="#000000" stroke-linecap="square" stroke-miterlimit="10" d="M488.25,348.749  C486.393,348.299,486.807,348.4,488.25,348.749L488.25,348.749z"/>
<path fill="none" stroke="#000000" stroke-linecap="square" stroke-miterlimit="10" d="M487.5,348.749  C487.5,347.749,487.5,347.749,487.5,348.749L487.5,348.749z"/>
<path fill="none" stroke="#000000" stroke-linecap="square" stroke-miterlimit="10" d="M487.5,348.749L487.5,348.749z"/>
<path fill="none" stroke="#000000" stroke-linecap="square" stroke-miterlimit="10" d="M487.5,348.749L487.5,348.749z"/>
<path fill="none" stroke="#000000" stroke-linecap="square" stroke-miterlimit="10" d="M488.25,347.999  C486.394,348.972,486.821,348.749,488.25,347.999L488.25,347.999z"/>
<path fill="none" stroke="#000000" stroke-linecap="square" stroke-miterlimit="10" d="M488.25,347.999  C486.394,348.972,486.821,348.749,488.25,347.999L488.25,347.999z"/>
<path fill="none" stroke="#000000" stroke-linecap="square" stroke-miterlimit="10" d="M487.5,348.749L487.5,348.749z"/>
<path fill="none" stroke="#000000" stroke-linecap="square" stroke-miterlimit="10" d="M488.25,348.749  C486.393,348.299,486.807,348.4,488.25,348.749L488.25,348.749z"/>
<path fill="none" stroke="#000000" stroke-linecap="square" stroke-miterlimit="10" d="M488.25,348.749  C486.393,348.299,486.807,348.4,488.25,348.749L488.25,348.749z"/>
<path fill="none" stroke="#000000" stroke-linecap="square" stroke-miterlimit="10" d="M488.25,348.749  C486.393,348.299,486.807,348.4,488.25,348.749L488.25,348.749z"/>
<path fill="none" stroke="#000000" stroke-linecap="square" stroke-miterlimit="10" d="M488.25,348.749  C487.608,348.402,486.606,347.862,488.25,348.749L488.25,348.749z"/>
<path fill="none" stroke="#000000" stroke-linecap="square" stroke-miterlimit="10" d="M488.25,348.749  C487.608,348.402,486.606,347.862,488.25,348.749L488.25,348.749z"/>
<path fill="none" stroke="#000000" stroke-linecap="square" stroke-miterlimit="10" d="M487.5,348.749L487.5,348.749z"/>
<path fill="none" stroke="#000000" stroke-linecap="square" stroke-miterlimit="10" d="M487.5,348.749L487.5,348.749z"/>
<path fill="none" stroke="#000000" stroke-linecap="square" stroke-miterlimit="10" d="M487.5,348.749L487.5,348.749z"/>
<path fill="none" stroke="#000000" stroke-linecap="square" stroke-miterlimit="10" d="M488.25,348.749  C487.608,348.402,486.606,347.862,488.25,348.749L488.25,348.749z"/>
<path fill="none" stroke="#000000" stroke-linecap="square" stroke-miterlimit="10" d="M488.25,348.749  C487.608,348.402,486.606,347.862,488.25,348.749L488.25,348.749z"/>
<path fill="none" stroke="#000000" stroke-linecap="square" stroke-miterlimit="10" d="M487.5,348.749L487.5,348.749z"/>
<path fill="none" stroke="#000000" stroke-linecap="square" stroke-miterlimit="10" d="M488.25,348.749  C487.608,348.402,486.606,347.862,488.25,348.749L488.25,348.749z"/>
<path fill="none" stroke="#000000" stroke-linecap="square" stroke-miterlimit="10" d="M488.25,348.749  C487.608,348.402,486.606,347.862,488.25,348.749L488.25,348.749z"/>
<path fill="none" stroke="#000000" stroke-linecap="square" stroke-miterlimit="10" d="M488.25,348.749  C487.608,348.402,486.606,347.862,488.25,348.749L488.25,348.749z"/>
<path fill="none" stroke="#000000" stroke-linecap="square" stroke-miterlimit="10" d="M488.25,348.749  C487.608,348.402,486.606,347.862,488.25,348.749L488.25,348.749z"/>
<path fill="none" stroke="#000000" stroke-linecap="square" stroke-miterlimit="10" d="M488.25,348.749  C487.25,348.749,487.25,348.749,488.25,348.749L488.25,348.749z"/>
<path fill="none" stroke="#000000" stroke-linecap="square" stroke-miterlimit="10" d="M487.5,348.749L487.5,348.749z"/>
<path fill="none" stroke="#000000" stroke-linecap="square" stroke-miterlimit="10" d="M469.5,353.249  c0.943,2.169,3.371,2.863,6,2.25"/>
<path fill="none" stroke="#000000" stroke-linecap="square" stroke-miterlimit="10" d="M480,353.249  c2.778,3.126,6.543,3.874,10.5,2.25"/>
<path fill-rule="evenodd" clip-rule="evenodd" stroke="#000000" stroke-linecap="square" stroke-miterlimit="10" d="M466.5,420.749  c2.387,4.717,2.236,7.938,8.25,9c0.773-4.809,0.678-13.548,0-18.75C468.483,412.471,468.848,416.014,466.5,420.749z"/>
<path fill-rule="evenodd" clip-rule="evenodd" stroke="#000000" stroke-linecap="square" stroke-miterlimit="10" d="M470.25,395.999  c-2.104-4.164-1.2-6.694-6.75-8.25c-1.289,5.162-2.08,11.182-2.25,16.5C468.536,404.008,467.396,400.309,470.25,395.999z"/>
<path fill-rule="evenodd" clip-rule="evenodd" stroke="#000000" stroke-linecap="square" stroke-miterlimit="10" d="M468.75,372.749  c1.675,4.356,1.166,7.157,6,9.75c1.003-5.705,1.36-12.908,0.75-18.75C470.066,365.269,471.127,368.385,468.75,372.749z"/>
<path fill-rule="evenodd" clip-rule="evenodd" stroke="#000000" stroke-linecap="square" stroke-miterlimit="10" d="M456,436.499  C436.128,471.626,494.078,424.489,456,436.499L456,436.499z"/>
<path fill-rule="evenodd" clip-rule="evenodd" stroke="#000000" stroke-linecap="square" stroke-miterlimit="10" d="M453,432.749  c7.419-5.98,11.692-10.621,6-21c-3.856,3.917-9.538,12.994-12,18C448.761,431.537,451.416,431.395,453,432.749z"/>
<path fill-rule="evenodd" clip-rule="evenodd" stroke="#000000" stroke-linecap="square" stroke-miterlimit="10" d="M433.5,467.999  c2.942,3.192,0.186,6.22,6,7.5c0.39-4.928,0.083-9.229-0.75-14.25C434.655,462.414,435.758,467.059,433.5,467.999z"/>
<path fill-rule="evenodd" clip-rule="evenodd" stroke="#000000" stroke-linecap="square" stroke-miterlimit="10" d="M436.5,445.499  c5.18-4.59,11.125-3.777,6-13.5c-4.495,1.687-9.81,5.213-13.5,8.25C430.872,444.365,434.198,443.459,436.5,445.499z"/>
<path fill-rule="evenodd" clip-rule="evenodd" stroke="#000000" stroke-linecap="square" stroke-miterlimit="10" d="M447.75,451.499  c-4.152,2.668-7.373,1.337-8.25,7.5c5.284,0.372,10.556-0.026,15.75-0.75C454.611,452.146,451.356,453.787,447.75,451.499z"/>
<path fill="none" stroke="#000000" stroke-linecap="square" stroke-miterlimit="10" d="M471.75,345.749  c1.359-0.247,2.612-0.002,3.75,0.75"/>
</svg>