<svg xmlns="http://www.w3.org/2000/svg" xmlns:xlink="http://www.w3.org/1999/xlink" version="1.1" id="Layer_1" x="0px" y="0px" enable-background="new 0 0 822.05 841.89" xml:space="preserve" viewBox="301.91 342.28 214.97 159.49">
<path fill-rule="evenodd" clip-rule="evenodd" stroke="#000000" stroke-width="0.75" stroke-linecap="square" stroke-miterlimit="10" d="  M486.5,369.265c14.217,10.012,27.66,26.944,29.625,44.625c1.432,12.889-0.568,39.078-16.5,32.25  c-39.165-16.785,15.875-55.001-19.875-69.375C482,374.265,484.25,371.765,486.5,369.265z"/>
<path fill-rule="evenodd" clip-rule="evenodd" fill="#EED5B6" stroke="#000000" stroke-width="0.75" stroke-linecap="square" stroke-miterlimit="10" d="  M485,434.515c-10.604-8.083-15.438-16.559-28.875-16.125c-13.983,0.451-14.652,9.458-28.125,13.5  c-12.688,3.807-23.713,31.125-4.145,31.125C462.79,463.015,475.758,473.536,485,434.515z"/>
<path fill-rule="evenodd" clip-rule="evenodd" fill="#EED5B6" stroke="#000000" stroke-width="0.75" stroke-linecap="square" stroke-miterlimit="10" d="  M421.25,371.515c-8.624,62.677,72.265,75.653,64.5-1.5C467.329,379.682,440.328,379.229,421.25,371.515z"/>
<path fill-rule="evenodd" clip-rule="evenodd" fill="#631D1B" d="M444.5,405.265c11.408,5.864,24.037,3.792,32.25-6  c-0.25,0.75,0,1,0.75,0.75C465.715,414.635,452.541,426.313,444.5,405.265z"/>
<path fill="none" stroke="#000000" stroke-width="0.75" stroke-linecap="square" stroke-miterlimit="10" d="M444.5,405.265  c11.408,5.864,24.037,3.792,32.25-6c-0.25,0.75,0,1,0.75,0.75c-11.956,14.832-20.529,25.818-34.5,6.75"/>
<path fill-rule="evenodd" clip-rule="evenodd" fill="#631D1B" stroke="#000000" stroke-width="0.75" stroke-linecap="square" stroke-miterlimit="10" d="  M446,403.015c-1.778,2.332-1.472,3.685-4.5,3.75C445.097,406.929,445.069,404.235,446,403.015z"/>
<path fill-rule="evenodd" clip-rule="evenodd" fill="#631D1B" stroke="#000000" stroke-linecap="square" stroke-miterlimit="10" d="  M476,397.015C480.248,402.239,479.187,400.934,476,397.015L476,397.015z"/>
<path fill-rule="evenodd" clip-rule="evenodd" d="M450.5,387.265c-1.764,0.571-0.075,5.129-4.5,3  C444.853,382.46,448.39,387.949,450.5,387.265z"/>
<path fill-rule="evenodd" clip-rule="evenodd" d="M454.25,385.765c-6.037,0.417-9.872-2.659-12,3.75  C447.513,384.346,449.739,386.553,454.25,385.765z"/>
<path fill-rule="evenodd" clip-rule="evenodd" d="M470,387.265C465.416,386.496,464.806,386.393,470,387.265L470,387.265z"/>
<path fill-rule="evenodd" clip-rule="evenodd" d="M473.75,387.265c-5.457-0.333-7.243-5.5-12.75,0.75  C465.792,384.512,469.7,387.189,473.75,387.265z"/>
<path fill="none" stroke="#000000" stroke-linecap="square" stroke-miterlimit="10" d="M455.75,394.765  c2.506,2.242,4.95,2.057,6.75-0.75"/>
<path fill-rule="evenodd" clip-rule="evenodd" stroke="#000000" stroke-width="0.75" stroke-linecap="square" stroke-miterlimit="10" d="  M425,361.765c-6.953,12.768-9.9,28.407,0.75,39.75c-13.409-30.533,83.3-48.834,56.25,7.5  C507.071,363.783,456.86,314.736,425,361.765z"/>
<path fill-rule="evenodd" clip-rule="evenodd" stroke="#000000" stroke-linecap="square" stroke-miterlimit="10" d="M422.75,369.265  c-23.97,14.043-34.931,83.604-9.375,69c25.216-14.409-14.786-53.687,15.375-59.25C426.75,375.765,424.75,372.515,422.75,369.265z"/>
<path fill-rule="evenodd" clip-rule="evenodd" fill="#D11E27" stroke="#000000" stroke-width="0.75" stroke-linecap="square" stroke-miterlimit="10" d="  M424.25,379.765C417.83,409.765,410.658,353.296,424.25,379.765L424.25,379.765z"/>
<path fill-rule="evenodd" clip-rule="evenodd" fill="#D11E27" stroke="#000000" stroke-width="0.75" stroke-linecap="square" stroke-miterlimit="10" d="  M496.25,382.015c-2.31,2.967-1.292,6.171-5.25,8.25c-2.448-9.83-1.897-13.07,5.25-19.5  C497.349,374.895,496.142,378.01,496.25,382.015z"/>
<path fill-rule="evenodd" clip-rule="evenodd" fill="#FF9900" stroke="#000000" stroke-width="0.75" stroke-linecap="square" stroke-miterlimit="10" d="  M500.75,433.765c-5.08-3.011-13.108-4.078-18.75-5.25c-4.359,20.586-23.353,22.961-40.5,16.5c-14.403-5.427-5.148-22.323-26.25-15  c-13.996,4.857-17.641,24.013-19.5,36.75c39.75,0,79.5,0,119.25,0C511.366,455.025,508.263,443.086,500.75,433.765z"/>
<path fill-rule="evenodd" clip-rule="evenodd" fill="#804000" stroke="#000000" stroke-linecap="square" stroke-miterlimit="10" d="  M405.5,405.265c15.738,10.845,31.434,26.514,33,46.5c1.017,12.975-3.482,35.258-18.375,28.875  C379.9,463.401,435.946,424.496,398,412.765C400.5,410.265,403,407.765,405.5,405.265z"/>
<path fill-rule="evenodd" clip-rule="evenodd" fill="#EED5B6" stroke="#000000" stroke-linecap="square" stroke-miterlimit="10" d="  M404,469.765c-29.28-17.142-34.398-12.284-64.5-2.25c-12.053,4.018-25.973,30.75-6.168,30.75  C373.984,498.265,393.247,510.626,404,469.765z"/>
<path fill-rule="evenodd" clip-rule="evenodd" fill="#EED5B6" stroke="#000000" stroke-linecap="square" stroke-miterlimit="10" d="  M332.75,408.265c-8.138,62.663,80.132,76.826,72-1.5C381.76,416.543,356.376,414.172,332.75,408.265z"/>
<path fill-rule="evenodd" clip-rule="evenodd" fill="#631D1B" d="M359.75,439.015c12.292,4.825,25.711,4.106,36-4.5  c-0.25,0.75,0,1,0.75,0.75C384.242,448.341,368.293,454.323,359.75,439.015z"/>
<path fill="none" stroke="#000000" stroke-width="0.75" stroke-linecap="square" stroke-miterlimit="10" d="M359.75,439.765  c12.214,4.321,25.928,3.462,36-5.25c-0.25,0.75,0,1,0.75,0.75c-12.551,13.468-23.93,19.928-38.25,5.25"/>
<path fill-rule="evenodd" clip-rule="evenodd" fill="#631D1B" stroke="#000000" stroke-linecap="square" stroke-miterlimit="10" d="  M359.75,439.015c-1.34,1.456-4.046,4.054-3.75,3.75C358.211,441.903,359.68,439.091,359.75,439.015z"/>
<path fill-rule="evenodd" clip-rule="evenodd" fill="#631D1B" stroke="#000000" stroke-linecap="square" stroke-miterlimit="10" d="  M393.5,433.015C399.031,437.069,397.625,436.039,393.5,433.015L393.5,433.015z"/>
<path fill-rule="evenodd" clip-rule="evenodd" d="M365,423.265c-2.183,0.365-2.027,5.454-5.25,0.75  C361.864,418.01,362.837,423.626,365,423.265z"/>
<path fill-rule="evenodd" clip-rule="evenodd" d="M369.5,421.765c-6.017,0.696-9.098-2.447-14.25,3  C358.911,422.817,366.15,422.509,369.5,421.765z"/>
<path fill-rule="evenodd" clip-rule="evenodd" d="M386.75,423.265c-2.01,0.295-1.044,5.304-5.25,1.5c0-0.75,0-1.5,0-2.25  C384.665,419.256,385.486,423.451,386.75,423.265z"/>
<path fill-rule="evenodd" clip-rule="evenodd" d="M391.25,422.515c-6.433,0.117-8.308-4.634-14.25,1.5  C380.931,422.526,389.358,422.731,391.25,422.515z"/>
<path fill="none" stroke="#000000" stroke-linecap="square" stroke-miterlimit="10" d="M371,433.015  c2.611,2.254,5.266,1.956,7.5-0.75"/>
<path fill-rule="evenodd" clip-rule="evenodd" fill="#804000" stroke="#000000" stroke-linecap="square" stroke-miterlimit="10" d="  M336.5,399.265c-8.191,12.15-10.599,27.635,0.75,38.25c-13.524-30.467,95.162-48.508,63.75,7.5  C432.046,396.018,367.733,354.309,336.5,399.265z"/>
<path fill-rule="evenodd" clip-rule="evenodd" fill="#804000" stroke="#000000" stroke-linecap="square" stroke-miterlimit="10" d="  M333.5,409.765c-19.623,10.447-51.119,73.085-13.5,69c38.926-4.228-16.436-53.113,20.25-60  C338,415.765,335.75,412.765,333.5,409.765z"/>
<path fill-rule="evenodd" clip-rule="evenodd" fill="#FFFF00" stroke="#000000" stroke-linecap="square" stroke-miterlimit="10" d="  M339.5,414.265C332.056,443.923,326.202,384.677,339.5,414.265L339.5,414.265z"/>
<path fill-rule="evenodd" clip-rule="evenodd" fill="#FFFF00" stroke="#000000" stroke-linecap="square" stroke-miterlimit="10" d="  M416.75,418.015C399.856,443.01,413.847,387.217,416.75,418.015L416.75,418.015z"/>
<path fill-rule="evenodd" clip-rule="evenodd" fill="#FF9900" stroke="#000000" stroke-linecap="square" stroke-miterlimit="10" d="  M421.25,467.515c-23.771-13.288-30.195,23.935-59.25,14.25c-14.001-4.667-15-18.895-28.5-18.75  c-20.575,0.22-25.721,22.261-29.25,38.25c44.5,0,89,0,133.5,0C434.091,488.755,430.448,476.612,421.25,467.515z"/>
</svg>