<svg xmlns="http://www.w3.org/2000/svg" xmlns:xlink="http://www.w3.org/1999/xlink" version="1.1" id="Layer_1" x="0px" y="0px" enable-background="new 0 0 822.05 841.89" xml:space="preserve" viewBox="311.94 346.26 198.15 154.39">
<path fill-rule="evenodd" clip-rule="evenodd" fill="#D2D1D2" stroke="#000000" stroke-width="1.25" stroke-linecap="square" stroke-miterlimit="10" d="  M391.625,397.276C386.969,417.689,372.781,388.253,391.625,397.276L391.625,397.276z"/>
<path fill-rule="evenodd" clip-rule="evenodd" fill="#D2D1D2" stroke="#000000" stroke-width="1.25" stroke-linecap="square" stroke-miterlimit="10" d="  M444.875,398.026C428.234,409.974,436.869,378.743,444.875,398.026L444.875,398.026z"/>
<path fill-rule="evenodd" clip-rule="evenodd" fill="#D2D1D2" stroke="#000000" stroke-width="1.25" stroke-linecap="square" stroke-miterlimit="10" d="  M440.375,429.526c-15.925-15.708-31.169-15.323-48-3C343.381,462.396,441.059,469.533,440.375,429.526z"/>
<path fill-rule="evenodd" clip-rule="evenodd" fill="#D2D1D2" stroke="#000000" stroke-width="1.25" stroke-linecap="square" stroke-miterlimit="10" d="  M386.375,380.026c-8.102,51.09,62.687,61.479,54,1.5C435.425,347.348,388.217,341.734,386.375,380.026z"/>
<path fill-rule="evenodd" clip-rule="evenodd" fill="#D2D1D2" stroke="#000000" stroke-width="1.25" stroke-linecap="square" stroke-miterlimit="10" d="  M509.375,450.526c-4.741-16.498-10.228-32.77-16.5-48.75c-7.915,4.961-12.634,5.974-21.75,9c2.943,7.793,2.238,16.985,5.25,24.75  c-24.349-8.351-29.584-11.749-45.75,0.375c-10.977,8.232-18.924,4.204-30,1.125c-12.184-3.387-11.479-21.203-29.25-7.875  c-14.723,11.042-2.779,54.525-4.5,70.875c29.75,0,59.5,0,89.25,0c-0.625-14.237-0.925-28.499-0.75-42.75  C469.54,462.292,511.652,478.75,509.375,450.526z"/>
<path fill-rule="evenodd" clip-rule="evenodd" fill="#FFFFFF" d="M476.375,435.526c2.043,7.422,3.683,14.804,6.75,21.75  C480.876,450.029,478.734,442.738,476.375,435.526z"/>
<path fill="none" stroke="#000000" stroke-width="1.25" stroke-linecap="square" stroke-miterlimit="10" d="M476.375,435.526  c1.422,7.444,3.746,14.948,6.75,21.75"/>
<path fill-rule="evenodd" clip-rule="evenodd" fill="#D2D1D2" d="M369.875,467.776c-37.942,49.783-57.003,22.602-50.25-30  c16.7,1.474,32.852-6.176,27,19.5c7.617-8.993,14.535-18.318,23.25-26.25C369.875,443.276,369.875,455.526,369.875,467.776z"/>
<path fill="none" stroke="#000000" stroke-width="1.25" stroke-linecap="square" stroke-miterlimit="10" d="M369.875,467.776  c-37.942,49.783-57.003,22.602-50.25-30c16.7,1.474,32.852-6.176,27,19.5c7.617-8.993,14.535-18.318,23.25-26.25"/>
<line fill="none" stroke="#000000" stroke-width="1.25" stroke-linecap="square" stroke-miterlimit="10" x1="346.625" y1="457.276" x2="345.125" y2="470.026"/>
<path fill-rule="evenodd" clip-rule="evenodd" fill="#F8130D" stroke="#000000" stroke-width="1.25" stroke-linecap="square" stroke-miterlimit="10" d="  M345.125,407.026c5.404-3.389,13.22-5.521,18.75-6c-11.755,31.984-34.013,56.96-48,15  C298.712,364.537,354.256,352.988,345.125,407.026z"/>
<path fill-rule="evenodd" clip-rule="evenodd" fill="#F8130D" stroke="#000000" stroke-width="1.25" stroke-linecap="square" stroke-miterlimit="10" d="  M465.875,383.776c-6.171-2.484-14.075-3.307-20.25-3c1.477,2.492,24.381,33.158,24,33c24.077,10.009,22.361-8.729,25.5-23.25  C507.269,334.349,446.923,332.742,465.875,383.776z"/>
</svg>