<svg xmlns="http://www.w3.org/2000/svg" xmlns:xlink="http://www.w3.org/1999/xlink" version="1.1" id="Layer_1" x="0px" y="0px" enable-background="new 0 0 822.05 841.89" xml:space="preserve" viewBox="216.39 268.21 391.47 303.51">
<path fill-rule="evenodd" clip-rule="evenodd" fill="#ECEFF4" stroke="#000000" stroke-width="2" stroke-linecap="square" stroke-miterlimit="10" d="  M235.6,403.404c-12.892,34.86,50.042,13.803,63.273,11.725c38.596-6.061,77.192-12.123,115.788-18.184  c9.813-1.541,57.527-1.948,63.942-10.042c27.787-35.056-59.381-13.432-65.778-12.389C353.75,384.145,294.675,393.774,235.6,403.404z  "/>
<path fill-rule="evenodd" clip-rule="evenodd" fill="#ECEFF4" stroke="#000000" stroke-width="2" stroke-linecap="square" stroke-miterlimit="10" d="  M251.35,442.402c-12.73,35.497,49.984,14.453,63.447,12.303c38.72-6.186,77.439-12.37,116.159-18.556  c9.818-1.568,57.763-2.12,64.147-10.247c27.394-34.868-60.542-13.27-65.974-12.388C369.87,423.144,310.61,432.773,251.35,442.402z"/>
<path fill-rule="evenodd" clip-rule="evenodd" fill="#ECEFF4" stroke="#000000" stroke-width="2" stroke-linecap="square" stroke-miterlimit="10" d="  M219.1,470.902c-12.83,35.359,50.371,14.392,63.447,12.303c38.72-6.186,77.439-12.37,116.159-18.556  c9.857-1.574,57.717-2.103,64.147-10.247c27.459-34.78-60.506-13.277-65.973-12.389C337.62,451.643,278.36,461.272,219.1,470.902z"/>
<path fill-rule="evenodd" clip-rule="evenodd" fill="#ECEFF4" stroke="#000000" stroke-width="2" stroke-linecap="square" stroke-miterlimit="10" d="  M245.35,488.902c-12.527,35.407,49.929,14.441,63.273,12.303c38.596-6.186,77.192-12.37,115.788-18.556  c10.24-1.641,57.054-1.949,63.942-10.247c28.728-34.602-59.544-13.312-65.224-12.389C363.87,469.643,304.61,479.272,245.35,488.902z  "/>
<path fill-rule="evenodd" clip-rule="evenodd" fill="#ECEFF4" stroke="#000000" stroke-width="2" stroke-linecap="square" stroke-miterlimit="10" d="  M237.85,513.652c-12.83,35.359,50.371,14.392,63.447,12.303c38.72-6.186,77.439-12.37,116.159-18.556  c9.786-1.563,57.799-2.134,64.147-10.247c27.133-34.675-60.361-13.301-65.974-12.389C356.37,494.393,297.11,504.022,237.85,513.652z  "/>
<path fill-rule="evenodd" clip-rule="evenodd" fill="#ECEFF4" stroke="#000000" stroke-width="2" stroke-linecap="square" stroke-miterlimit="10" d="  M237.1,536.152c-12.536,35.436,50.104,14.434,63.447,12.303c38.72-6.186,77.439-12.37,116.159-18.556  c9.859-1.575,57.714-2.102,64.147-10.247c27.45-34.756-60.495-13.279-65.974-12.389C355.62,516.893,296.36,526.522,237.1,536.152z"/>
<path fill-rule="evenodd" clip-rule="evenodd" fill="#6D6F71" stroke="#000000" stroke-width="2" stroke-linecap="square" stroke-miterlimit="10" d="  M592.604,293.154c-82.381-6.815-164.762-13.63-247.143-20.444c-29.621-2.451-54.269-7.068-82.627,1.272  c-35.601,10.471,18.363,78.68,39.179,79.996c31.456,1.988,147.091-13.392,154.009,32.901c7.557,50.573,46.307,131.456-8.169,162.773  c30.95,25.533,33.743,23.952,73.216,15.54c10.774-2.296,23.967-5.33,30.284-15.54c21.676-35.032-9.105-102.22-1.125-142.123  c5.146-25.727,25.981-18.765,38.625-37.875c8.342-12.608,15.872-28.602,17.625-40.875  C609.258,309.323,595.919,311.245,592.604,293.154z"/>
<path fill-rule="evenodd" clip-rule="evenodd" fill="#CCCED0" stroke="#000000" stroke-width="2" stroke-linecap="square" stroke-miterlimit="10" d="  M256.6,281.154c-46.879,12.336-52.263,13.556-4.5,30.75C253.6,301.654,255.1,291.404,256.6,281.154z"/>
<path fill-rule="evenodd" clip-rule="evenodd" fill="#B7523B" stroke="#000000" stroke-width="2" stroke-linecap="square" stroke-miterlimit="10" d="  M413.352,364.404c9.562,6.823,18.633,18.034,20.627,30c4.947,29.685-9.832,23.668,29.625,38.248  C459.014,404.697,456.843,350.329,413.352,364.404z"/>
<path fill-rule="evenodd" clip-rule="evenodd" fill="#BCBEC0" stroke="#000000" stroke-width="2" stroke-linecap="square" stroke-miterlimit="10" d="  M255.1,316.404c37.628,3.058,348.219,35.558,349.129,21c0.844-13.497-160.043-21.591-178.792-23.414  c-42.539-4.134-85.078-8.269-127.616-12.403C279.936,299.849,249.367,287.111,255.1,316.404z"/>
</svg>