<svg xmlns="http://www.w3.org/2000/svg" xmlns:xlink="http://www.w3.org/1999/xlink" version="1.1" id="Layer_1" x="0px" y="0px" enable-background="new 0 0 822.05 841.89" xml:space="preserve" viewBox="197.58 260.05 421.42 321.88">
<path fill-rule="evenodd" clip-rule="evenodd" fill="#EFF9FC" stroke="#000000" stroke-width="2" stroke-linecap="square" stroke-miterlimit="10" d="  M411.003,371.679c-13.229,6.92-42.792,31.518-54.75,20.25c-7.913-7.456,0-65.557,0-76.664c0-6.829-6.877-54.026,9.792-52.251  c27.155,2.891,54.309,5.782,81.463,8.673c32.402,3.45,64.805,6.899,97.207,10.349c24.021,2.557,24.138,12.276,37.324,33.837  c5.166,8.447,39.814,53.03,34.408,61.14c-17.089,25.633-30.38,36.531-56.194,53.917c4.838-44.509-3.022-35.596-45.944-42.539  C479.873,382.82,445.438,377.25,411.003,371.679z"/>
<path fill="none" stroke="#000000" stroke-width="2" stroke-linecap="square" stroke-miterlimit="10" d="M362.253,397.179  c-17.784-14.542-5.25-92.275-5.25-117.352c0-31.837,66.426-10.947,86.359-9.068c24.467,2.306,104.412-5.469,121.766,17.67  c8.577,11.436,0.353,45.698-0.134,58.618c-1.08,28.71-2.161,57.421-3.241,86.132c4.895-3.729,49.259-30.035,25.875-33.375  c-30.081-4.297-60.076-9.294-90.103-13.956C434.679,376.091,417.417,369.597,362.253,397.179z"/>
<path fill-rule="evenodd" clip-rule="evenodd" fill="#EFF9FC" stroke="#000000" stroke-width="2" stroke-linecap="square" stroke-miterlimit="10" d="  M359.253,270.429c13.249,25.922,26.498,51.845,39.748,77.767c19.123,37.415,17.052,10.514,53.252,6.233  c50.405-5.959,115.144,15.109,165.75,21.75c-16.591,23.702-30.053,36.737-53.25,54c0.441-26.804,22.494-145.767-14.305-149.328  C519.53,277.859,373.299,245.483,359.253,270.429z"/>
<path fill-rule="evenodd" clip-rule="evenodd" fill="#798388" stroke="#000000" stroke-width="2" stroke-linecap="square" stroke-miterlimit="10" d="  M366.753,393.429c-0.428-22.526-15.425-102.382-2.25-118.5c11.979-14.655,91.865,6.035,109.046,7.959  c12.275,1.375,85.706,0.555,85.019,16.626c-1.938,45.305-3.876,90.61-5.814,135.915c17.686-2.115,10.411-38.039,11.009-53.831  c0.771-20.388,11.872-66.976,3.241-85.669c-13.94-30.192-86.087-21.705-116.805-24.705c-39.021-3.811-93.945-29.44-93.945,21.816  C356.253,312.117,347,406.415,366.753,393.429z"/>
<path fill-rule="evenodd" clip-rule="evenodd" fill="#EFF9FC" stroke="#000000" stroke-width="2" stroke-linecap="square" stroke-miterlimit="10" d="  M341.253,448.929c-13.229,6.92-42.792,31.518-54.75,20.25c-7.913-7.456,0-65.557,0-76.664c0-6.838-6.881-54.021,9.795-52.251  c27.257,2.891,54.515,5.782,81.773,8.673c32.525,3.45,65.051,6.899,97.577,10.349c24.077,2.553,24.04,12.145,37.128,33.837  c5.126,8.497,39.352,52.995,33.922,61.139c-17.089,25.633-30.38,36.531-56.194,53.917c4.8-45.116-2.458-36.224-45.945-43.045  C410.123,459.732,375.688,454.331,341.253,448.929z"/>
<path fill="none" stroke="#000000" stroke-width="2" stroke-linecap="square" stroke-miterlimit="10" d="M292.503,474.429  c-17.167-14.038-5.25-87.765-5.25-111.729c0-37.997,47.634-18.341,75.666-15.699c25.037,2.36,117.121-5.712,133.584,19.428  c7.165,10.942-0.806,45.078-1.259,57.117c-1.08,28.711-2.161,57.422-3.241,86.133c13.412-10.219,37.978-19.084,28.5-32.25  c-7.339-10.196-70.301-10.85-82.022-12.669c-26.981-4.188-61.838-16.079-88.978-14.331  C329.215,451.736,310.768,465.296,292.503,474.429z"/>
<path fill-rule="evenodd" clip-rule="evenodd" fill="#EFF9FC" stroke="#000000" stroke-width="2" stroke-linecap="square" stroke-miterlimit="10" d="  M289.503,347.679c13.249,25.922,26.498,51.845,39.748,77.767c19.123,37.415,17.052,10.514,53.252,6.233  c50.405-5.96,115.144,15.109,165.75,21.75c-16.591,23.702-30.053,36.737-53.25,54c0.64-39.015,22.877-129.593-13.5-149.25  c-26.433-14.283-84.62-8.189-114.292-11.061C350.236,345.476,299.409,330.087,289.503,347.679z"/>
<path fill-rule="evenodd" clip-rule="evenodd" fill="#798388" stroke="#000000" stroke-width="2" stroke-linecap="square" stroke-miterlimit="10" d="  M297.003,470.679c-0.441-23.21-15.523-101.427-2.25-118.5c12.002-15.438,91.223,5.56,109.046,7.627  c12.289,1.425,85.707,0.875,85.019,16.958c-1.938,45.305-3.876,90.61-5.814,135.915c17.686-2.115,10.411-38.039,11.009-53.831  c0.792-20.946,11.691-66.283,3.241-85.669c-13.074-29.993-74.746-21.14-105.375-24c-39.255-3.666-105.375-31.996-105.375,21.056  C286.503,389.197,277.509,483.332,297.003,470.679z"/>
<path fill-rule="evenodd" clip-rule="evenodd" fill="#EFF9FC" stroke="#000000" stroke-width="2" stroke-linecap="square" stroke-miterlimit="10" d="  M257.253,517.929c-13.899,7.271-42.7,31.709-54.75,19.5c-9.083-9.202,0.453-72.919,0.536-86.243c0.056-8.97-6-43.541,11.562-41.678  c30.135,3.196,60.27,6.392,90.404,9.588c30.916,3.279,61.832,6.558,92.748,9.837c20.782,2.204,26.241,24.941,36.729,42.09  c9.331,15.259,36.037,41.631,25.076,58.073c-15.429,23.144-29.617,32.614-53.056,48.083c4.8-45.116-2.458-36.224-45.945-43.045  C326.123,528.732,291.688,523.331,257.253,517.929z"/>
<path fill="none" stroke="#000000" stroke-width="2" stroke-linecap="square" stroke-miterlimit="10" d="M208.503,543.429  c-17.623-14.424-5.25-92.692-5.25-118.069c0-30.053,58.117-11.083,76.416-9.359c25.813,2.434,115.619-5.86,132.834,19.428  c7.798,11.455-0.247,44.372-0.795,57.117c-1.235,28.711-2.47,57.422-3.705,86.133c13.495-10.282,38.211-18.967,28.5-32.25  c-7.508-10.271-70.153-10.826-82.022-12.669c-26.953-4.185-61.868-16.113-88.978-14.331  C245.729,520.729,226.742,534.476,208.503,543.429z"/>
<path fill-rule="evenodd" clip-rule="evenodd" fill="#EFF9FC" stroke="#000000" stroke-width="2" stroke-linecap="square" stroke-miterlimit="10" d="  M205.503,416.679c13.249,25.922,26.498,51.845,39.748,77.767c19.123,37.415,17.052,10.514,53.252,6.233  c50.405-5.96,115.144,15.109,165.75,21.75c-16.468,24.396-29.43,36.677-53.25,54c0.845-38.659,23.58-129.261-12.75-149.25  c-26.191-14.411-85.234-8.215-114.753-11.061C266.397,414.47,215.886,398.948,205.503,416.679z"/>
<path fill-rule="evenodd" clip-rule="evenodd" fill="#798388" stroke="#000000" stroke-width="2" stroke-linecap="square" stroke-miterlimit="10" d="  M213.003,539.679c-0.426-22.574-15.494-103.164-2.25-119.25c12.041-14.625,91.848,6.383,109.046,8.377  c11.877,1.378,86.448,1.137,85.769,16.935c-1.938,45.062-3.876,90.126-5.814,135.188c17.752-0.72,10.422-37.799,11.008-53.367  c0.761-20.213,12.005-67.695,3.242-86.133c-14.676-30.876-86.497-21.417-117.223-24.287c-38.286-3.575-94.277-29.141-94.277,22.092  c0,27.546,0,55.093,0,82.639C202.503,535.569,199.156,548.385,213.003,539.679z"/>
</svg>