<svg xmlns="http://www.w3.org/2000/svg" xmlns:xlink="http://www.w3.org/1999/xlink" version="1.1" id="Layer_1" x="0px" y="0px" enable-background="new 0 0 822.05 841.89" xml:space="preserve" viewBox="310.64 338.12 198.25 166.77">
<path fill-rule="evenodd" clip-rule="evenodd" fill="#878787" stroke="#000000" stroke-linecap="square" stroke-miterlimit="10" d="  M313.389,391.14c10.254-0.303,16.54,2.632,15.75,12.75C325.839,398.395,318.131,395.64,313.389,391.14z"/>
<path fill-rule="evenodd" clip-rule="evenodd" fill="#878787" stroke="#000000" stroke-linecap="square" stroke-miterlimit="10" d="  M334.389,398.64c3.417-3.91,2.105-8.98,8.25-5.25C337.023,401.331,335.019,398.675,334.389,398.64z"/>
<path fill-rule="evenodd" clip-rule="evenodd" fill="#FFFFFF" stroke="#000000" stroke-linecap="square" stroke-miterlimit="10" d="  M413.889,440.64c-24.563-22.974-94.809-0.629-61.5-42c-10.728,4.671-30.835,5.721-41.25-1.5c13.102,16.362,13.887,43.748,21,63.75  c4.13,11.615,13.029,26.893,0,41.25c17.321,2.766,12.314-22.943,14.25-36c1.986,12.81,3.975,26.114-0.75,38.25  c14.872-1.708,8.25-10.248,8.25-24c0-20.104,1.414-9.493,13.5-12c21.941-4.552,40.673,7.086,29.25,31.5  c5.207-4.633,5.481-1.653,9.75-10.5c0.493,30.765,1.701-10.996,1.5-22.5C407.622,451.604,405.98,443.012,413.889,440.64z"/>
<path fill-rule="evenodd" clip-rule="evenodd" fill="#FFFFFF" stroke="#000000" stroke-linecap="square" stroke-miterlimit="10" d="  M347.139,476.64L347.139,476.64z"/>
<path fill="none" stroke="#000000" stroke-linecap="square" stroke-miterlimit="10" d="M336.639,461.64c2.365,2.406,4.294,2.843,9,3  "/>
<path fill="none" stroke="#000000" stroke-linecap="square" stroke-miterlimit="10" d="M329.889,419.64  c2.616,4.22,6.732,4.939,11.25,2.25"/>
<path fill-rule="evenodd" clip-rule="evenodd" fill="#878787" stroke="#000000" stroke-linecap="square" stroke-miterlimit="10" d="  M341.139,415.14c-2.446-0.016-2.28,4.432-6,0.75c0-0.5,0-1,0-1.5C338.954,410.963,339.041,415.126,341.139,415.14z"/>
<path fill="none" stroke="#000000" stroke-linecap="square" stroke-miterlimit="10" d="M329.139,409.14  C327.495,410.027,328.497,409.486,329.139,409.14L329.139,409.14z"/>
<path fill="none" stroke="#000000" stroke-linecap="square" stroke-miterlimit="10" d="M329.139,409.14  C327.495,410.027,328.497,409.486,329.139,409.14L329.139,409.14z"/>
<path fill="none" stroke="#000000" stroke-linecap="square" stroke-miterlimit="10" d="M329.889,409.89  C327.931,409.493,327.402,409.385,329.889,409.89L329.889,409.89z"/>
<path fill="none" stroke="#000000" stroke-linecap="square" stroke-miterlimit="10" d="M329.889,408.39  C326.973,408.622,328.263,408.52,329.889,408.39L329.889,408.39z"/>
<path fill="none" stroke="#000000" stroke-linecap="square" stroke-miterlimit="10" d="M328.389,409.14  C328.389,410.14,328.389,410.14,328.389,409.14L328.389,409.14z"/>
<path fill="none" stroke="#000000" stroke-linecap="square" stroke-miterlimit="10" d="M329.139,409.14  C327.439,409.14,327.439,409.14,329.139,409.14L329.139,409.14z"/>
<path fill="none" stroke="#000000" stroke-linecap="square" stroke-miterlimit="10" d="M329.139,409.14  C327.439,409.14,327.439,409.14,329.139,409.14L329.139,409.14z"/>
<path fill="none" stroke="#000000" stroke-linecap="square" stroke-miterlimit="10" d="M329.139,409.14  C327.439,409.14,327.439,409.14,329.139,409.14L329.139,409.14z"/>
<path fill="none" stroke="#000000" stroke-linecap="square" stroke-miterlimit="10" d="M329.139,409.14  C327.492,409.14,327.492,409.14,329.139,409.14L329.139,409.14z"/>
<path fill="none" stroke="#000000" stroke-linecap="square" stroke-miterlimit="10" d="M329.139,409.14  C327.492,409.14,327.492,409.14,329.139,409.14L329.139,409.14z"/>
<path fill="none" stroke="#000000" stroke-linecap="square" stroke-miterlimit="10" d="M329.139,409.14  C327.696,409.489,327.281,409.589,329.139,409.14L329.139,409.14z"/>
<path fill="none" stroke="#000000" stroke-linecap="square" stroke-miterlimit="10" d="M329.139,409.14  C327.495,410.027,328.497,409.486,329.139,409.14L329.139,409.14z"/>
<path fill="none" stroke="#000000" stroke-linecap="square" stroke-miterlimit="10" d="M329.139,409.14  C327.495,410.027,328.497,409.486,329.139,409.14L329.139,409.14z"/>
<path fill="none" stroke="#000000" stroke-linecap="square" stroke-miterlimit="10" d="M329.889,408.39  C326.973,408.622,328.263,408.52,329.889,408.39L329.889,408.39z"/>
<path fill="none" stroke="#000000" stroke-linecap="square" stroke-miterlimit="10" d="M329.139,408.39  C327.622,408.855,327.351,408.939,329.139,408.39L329.139,408.39z"/>
<path fill="none" stroke="#000000" stroke-linecap="square" stroke-miterlimit="10" d="M328.389,409.14  C328.389,410.14,328.389,410.14,328.389,409.14L328.389,409.14z"/>
<path fill="none" stroke="#000000" stroke-linecap="square" stroke-miterlimit="10" d="M329.139,409.14  C327.439,409.14,327.439,409.14,329.139,409.14L329.139,409.14z"/>
<path fill="none" stroke="#000000" stroke-linecap="square" stroke-miterlimit="10" d="M329.139,409.14  C327.439,409.14,327.439,409.14,329.139,409.14L329.139,409.14z"/>
<path fill="none" stroke="#000000" stroke-linecap="square" stroke-miterlimit="10" d="M329.139,409.14  C327.492,409.14,327.492,409.14,329.139,409.14L329.139,409.14z"/>
<path fill="none" stroke="#000000" stroke-linecap="square" stroke-miterlimit="10" d="M329.139,409.14  C327.492,409.14,327.492,409.14,329.139,409.14L329.139,409.14z"/>
<path fill="none" stroke="#000000" stroke-linecap="square" stroke-miterlimit="10" d="M329.139,409.14  C327.492,409.14,327.492,409.14,329.139,409.14L329.139,409.14z"/>
<path fill="none" stroke="#000000" stroke-linecap="square" stroke-miterlimit="10" d="M329.139,409.14  C327.495,410.027,328.497,409.486,329.139,409.14L329.139,409.14z"/>
<path fill="none" stroke="#000000" stroke-linecap="square" stroke-miterlimit="10" d="M329.139,409.14  C327.495,410.027,328.497,409.486,329.139,409.14L329.139,409.14z"/>
<path fill="none" stroke="#000000" stroke-linecap="square" stroke-miterlimit="10" d="M329.139,409.14  C327.495,410.027,328.497,409.486,329.139,409.14L329.139,409.14z"/>
<path fill="none" stroke="#000000" stroke-linecap="square" stroke-miterlimit="10" d="M329.139,409.14  C327.167,409.14,327.167,409.14,329.139,409.14L329.139,409.14z"/>
<path fill="none" stroke="#000000" stroke-linecap="square" stroke-miterlimit="10" d="M329.139,409.14  C327.439,409.14,327.439,409.14,329.139,409.14L329.139,409.14z"/>
<path fill="none" stroke="#000000" stroke-linecap="square" stroke-miterlimit="10" d="M328.389,409.14  C328.389,410.14,328.389,410.14,328.389,409.14L328.389,409.14z"/>
<path fill="none" stroke="#000000" stroke-linecap="square" stroke-miterlimit="10" d="M329.139,409.14  C327.492,409.14,327.492,409.14,329.139,409.14L329.139,409.14z"/>
<path fill="none" stroke="#000000" stroke-linecap="square" stroke-miterlimit="10" d="M329.139,409.14  C327.492,409.14,327.492,409.14,329.139,409.14L329.139,409.14z"/>
<path fill="none" stroke="#000000" stroke-linecap="square" stroke-miterlimit="10" d="M329.139,409.14  C327.492,409.14,327.492,409.14,329.139,409.14L329.139,409.14z"/>
<path fill="none" stroke="#000000" stroke-linecap="square" stroke-miterlimit="10" d="M329.139,409.14  C328.019,409.14,328.019,409.14,329.139,409.14L329.139,409.14z"/>
<path fill="none" stroke="#000000" stroke-linecap="square" stroke-miterlimit="10" d="M329.139,409.14  C327.495,410.027,328.497,409.486,329.139,409.14L329.139,409.14z"/>
<path fill="none" stroke="#000000" stroke-linecap="square" stroke-miterlimit="10" d="M329.139,409.14  C327.495,410.027,328.497,409.486,329.139,409.14L329.139,409.14z"/>
<path fill="none" stroke="#000000" stroke-linecap="square" stroke-miterlimit="10" d="M329.139,409.14  C328.139,409.14,328.139,409.14,329.139,409.14L329.139,409.14z"/>
<path fill="none" stroke="#000000" stroke-linecap="square" stroke-miterlimit="10" d="M329.139,409.14  C328.139,409.14,328.139,409.14,329.139,409.14L329.139,409.14z"/>
<path fill="none" stroke="#000000" stroke-linecap="square" stroke-miterlimit="10" d="M329.139,409.14  C328.019,409.14,328.019,409.14,329.139,409.14L329.139,409.14z"/>
<path fill="none" stroke="#000000" stroke-linecap="square" stroke-miterlimit="10" d="M329.139,409.14  C328.019,409.14,328.019,409.14,329.139,409.14L329.139,409.14z"/>
<path fill="none" stroke="#000000" stroke-linecap="square" stroke-miterlimit="10" d="M328.389,409.14L328.389,409.14z"/>
<path fill="none" stroke="#000000" stroke-linecap="square" stroke-miterlimit="10" d="M329.139,409.14  C327.495,410.027,328.497,409.486,329.139,409.14L329.139,409.14z"/>
<path fill="none" stroke="#000000" stroke-linecap="square" stroke-miterlimit="10" d="M329.139,409.14  C327.495,410.027,328.497,409.486,329.139,409.14L329.139,409.14z"/>
<path fill="none" stroke="#000000" stroke-linecap="square" stroke-miterlimit="10" d="M329.139,409.14  C327.495,410.027,328.497,409.486,329.139,409.14L329.139,409.14z"/>
<path fill="none" stroke="#000000" stroke-linecap="square" stroke-miterlimit="10" d="M329.139,409.14  C328.139,409.14,328.139,409.14,329.139,409.14L329.139,409.14z"/>
<path fill="none" stroke="#000000" stroke-linecap="square" stroke-miterlimit="10" d="M329.139,409.14  C328.139,409.14,328.139,409.14,329.139,409.14L329.139,409.14z"/>
<path fill="none" stroke="#000000" stroke-linecap="square" stroke-miterlimit="10" d="M329.139,409.14  C328.139,409.14,328.139,409.14,329.139,409.14L329.139,409.14z"/>
<path fill="none" stroke="#000000" stroke-linecap="square" stroke-miterlimit="10" d="M339.639,409.14  C339.035,408.537,339.035,408.537,339.639,409.14L339.639,409.14z"/>
<path fill="none" stroke="#000000" stroke-linecap="square" stroke-miterlimit="10" d="M339.639,409.14  C339.639,408.14,339.639,408.14,339.639,409.14L339.639,409.14z"/>
<path fill="none" stroke="#000000" stroke-linecap="square" stroke-miterlimit="10" d="M341.139,409.14  C338.822,408.795,338.474,408.743,341.139,409.14L341.139,409.14z"/>
<path fill="none" stroke="#000000" stroke-linecap="square" stroke-miterlimit="10" d="M339.639,408.39  C338.316,408.048,337.794,407.914,339.639,408.39L339.639,408.39z"/>
<path fill="none" stroke="#000000" stroke-linecap="square" stroke-miterlimit="10" d="M338.889,409.14  C340.533,408.253,339.53,408.794,338.889,409.14L338.889,409.14z"/>
<path fill="none" stroke="#000000" stroke-linecap="square" stroke-miterlimit="10" d="M339.639,408.39  C338.071,408.151,338.464,408.211,339.639,408.39L339.639,408.39z"/>
<path fill="none" stroke="#000000" stroke-linecap="square" stroke-miterlimit="10" d="M339.639,408.39  C337.884,408.177,338.706,408.276,339.639,408.39L339.639,408.39z"/>
<path fill="none" stroke="#000000" stroke-linecap="square" stroke-miterlimit="10" d="M340.389,408.39  C338.872,408.855,338.601,408.939,340.389,408.39L340.389,408.39z"/>
<path fill="none" stroke="#000000" stroke-linecap="square" stroke-miterlimit="10" d="M340.389,408.39  C338.946,408.739,338.531,408.839,340.389,408.39L340.389,408.39z"/>
<path fill="none" stroke="#000000" stroke-linecap="square" stroke-miterlimit="10" d="M340.389,408.39  C338.533,409.364,338.959,409.14,340.389,408.39L340.389,408.39z"/>
<path fill="none" stroke="#000000" stroke-linecap="square" stroke-miterlimit="10" d="M339.639,409.14  C339.035,408.537,339.035,408.537,339.639,409.14L339.639,409.14z"/>
<path fill="none" stroke="#000000" stroke-linecap="square" stroke-miterlimit="10" d="M339.639,409.14  C339.035,408.537,339.035,408.537,339.639,409.14L339.639,409.14z"/>
<path fill="none" stroke="#000000" stroke-linecap="square" stroke-miterlimit="10" d="M339.639,409.14  C339.639,408.14,339.639,408.14,339.639,409.14L339.639,409.14z"/>
<path fill="none" stroke="#000000" stroke-linecap="square" stroke-miterlimit="10" d="M339.639,408.39  C338.071,408.151,338.464,408.211,339.639,408.39L339.639,408.39z"/>
<path fill="none" stroke="#000000" stroke-linecap="square" stroke-miterlimit="10" d="M339.639,408.39  C338.366,408.39,338.366,408.39,339.639,408.39L339.639,408.39z"/>
<path fill="none" stroke="#000000" stroke-linecap="square" stroke-miterlimit="10" d="M338.889,409.14  C340.533,408.253,339.53,408.794,338.889,409.14L338.889,409.14z"/>
<path fill="none" stroke="#000000" stroke-linecap="square" stroke-miterlimit="10" d="M340.389,408.39  C338.742,408.39,338.742,408.39,340.389,408.39L340.389,408.39z"/>
<path fill="none" stroke="#000000" stroke-linecap="square" stroke-miterlimit="10" d="M340.389,408.39  C338.742,408.39,338.742,408.39,340.389,408.39L340.389,408.39z"/>
<path fill="none" stroke="#000000" stroke-linecap="square" stroke-miterlimit="10" d="M340.389,408.39  C338.742,408.39,338.742,408.39,340.389,408.39L340.389,408.39z"/>
<path fill="none" stroke="#000000" stroke-linecap="square" stroke-miterlimit="10" d="M340.389,408.39  C338.946,408.739,338.531,408.839,340.389,408.39L340.389,408.39z"/>
<path fill="none" stroke="#000000" stroke-linecap="square" stroke-miterlimit="10" d="M340.389,408.39  C338.533,409.364,338.959,409.14,340.389,408.39L340.389,408.39z"/>
<path fill="none" stroke="#000000" stroke-linecap="square" stroke-miterlimit="10" d="M339.639,409.14  C339.035,408.537,339.035,408.537,339.639,409.14L339.639,409.14z"/>
<path fill="none" stroke="#000000" stroke-linecap="square" stroke-miterlimit="10" d="M339.639,409.14  C339.639,408.14,339.639,408.14,339.639,409.14L339.639,409.14z"/>
<path fill="none" stroke="#000000" stroke-linecap="square" stroke-miterlimit="10" d="M339.639,409.14  C339.639,408.14,339.639,408.14,339.639,409.14L339.639,409.14z"/>
<path fill="none" stroke="#000000" stroke-linecap="square" stroke-miterlimit="10" d="M340.389,408.39  C338.445,408.003,339.47,408.207,340.389,408.39L340.389,408.39z"/>
<path fill="none" stroke="#000000" stroke-linecap="square" stroke-miterlimit="10" d="M340.389,408.39  C338.27,408.762,339.485,408.549,340.389,408.39L340.389,408.39z"/>
<path fill="none" stroke="#000000" stroke-linecap="square" stroke-miterlimit="10" d="M339.639,409.14  C339.639,408.14,339.639,408.14,339.639,409.14L339.639,409.14z"/>
<path fill="none" stroke="#000000" stroke-linecap="square" stroke-miterlimit="10" d="M340.389,408.39  C338.742,408.39,338.742,408.39,340.389,408.39L340.389,408.39z"/>
<path fill="none" stroke="#000000" stroke-linecap="square" stroke-miterlimit="10" d="M340.389,408.39  C338.533,409.364,338.959,409.14,340.389,408.39L340.389,408.39z"/>
<path fill="none" stroke="#000000" stroke-linecap="square" stroke-miterlimit="10" d="M340.389,408.39  C338.533,409.364,338.959,409.14,340.389,408.39L340.389,408.39z"/>
<path fill="none" stroke="#000000" stroke-linecap="square" stroke-miterlimit="10" d="M340.389,408.39  C338.533,409.364,338.959,409.14,340.389,408.39L340.389,408.39z"/>
<path fill="none" stroke="#000000" stroke-linecap="square" stroke-miterlimit="10" d="M340.389,409.14  C338.531,408.691,338.946,408.792,340.389,409.14L340.389,409.14z"/>
<path fill="none" stroke="#000000" stroke-linecap="square" stroke-miterlimit="10" d="M339.639,409.14  C339.639,408.14,339.639,408.14,339.639,409.14L339.639,409.14z"/>
<path fill="none" stroke="#000000" stroke-linecap="square" stroke-miterlimit="10" d="M339.639,409.14  C339.639,408.14,339.639,408.14,339.639,409.14L339.639,409.14z"/>
<path fill="none" stroke="#000000" stroke-linecap="square" stroke-miterlimit="10" d="M339.639,409.14L339.639,409.14z"/>
<path fill="none" stroke="#000000" stroke-linecap="square" stroke-miterlimit="10" d="M340.389,408.39  C338.533,409.364,338.959,409.14,340.389,408.39L340.389,408.39z"/>
<path fill="none" stroke="#000000" stroke-linecap="square" stroke-miterlimit="10" d="M340.389,408.39  C338.946,408.739,338.531,408.839,340.389,408.39L340.389,408.39z"/>
<path fill="none" stroke="#000000" stroke-linecap="square" stroke-miterlimit="10" d="M339.639,409.14L339.639,409.14z"/>
<path fill="none" stroke="#000000" stroke-linecap="square" stroke-miterlimit="10" d="M340.389,408.39  C338.745,409.277,339.747,408.736,340.389,408.39L340.389,408.39z"/>
<path fill="none" stroke="#000000" stroke-linecap="square" stroke-miterlimit="10" d="M340.389,409.14  C339.747,408.794,338.745,408.253,340.389,409.14L340.389,409.14z"/>
<path fill="none" stroke="#000000" stroke-linecap="square" stroke-miterlimit="10" d="M340.389,409.14  C339.747,408.794,338.745,408.253,340.389,409.14L340.389,409.14z"/>
<path fill="none" stroke="#000000" stroke-linecap="square" stroke-miterlimit="10" d="M340.389,409.14  C339.747,408.794,338.745,408.253,340.389,409.14L340.389,409.14z"/>
<path fill="none" stroke="#000000" stroke-linecap="square" stroke-miterlimit="10" d="M339.639,409.14  C339.639,408.14,339.639,408.14,339.639,409.14L339.639,409.14z"/>
<path fill="none" stroke="#000000" stroke-linecap="square" stroke-miterlimit="10" d="M339.639,409.14  C339.639,408.14,339.639,408.14,339.639,409.14L339.639,409.14z"/>
<path fill="none" stroke="#000000" stroke-linecap="square" stroke-miterlimit="10" d="M341.139,421.89  c-9.67,6.973-15.307,2.927-16.5-9"/>
<path fill="none" stroke="#000000" stroke-linecap="square" stroke-miterlimit="10" d="M329.139,409.14  C327.495,410.027,328.497,409.486,329.139,409.14L329.139,409.14z"/>
<path fill="none" stroke="#000000" stroke-linecap="square" stroke-miterlimit="10" d="M329.139,409.14  C327.495,410.027,328.497,409.486,329.139,409.14L329.139,409.14z"/>
<path fill="none" stroke="#000000" stroke-linecap="square" stroke-miterlimit="10" d="M329.889,409.89  C327.931,409.493,327.402,409.385,329.889,409.89L329.889,409.89z"/>
<path fill="none" stroke="#000000" stroke-linecap="square" stroke-miterlimit="10" d="M329.889,408.39  C326.973,408.622,328.263,408.52,329.889,408.39L329.889,408.39z"/>
<path fill="none" stroke="#000000" stroke-linecap="square" stroke-miterlimit="10" d="M328.389,409.14  C328.389,410.14,328.389,410.14,328.389,409.14L328.389,409.14z"/>
<path fill="none" stroke="#000000" stroke-linecap="square" stroke-miterlimit="10" d="M329.139,409.14  C327.439,409.14,327.439,409.14,329.139,409.14L329.139,409.14z"/>
<path fill="none" stroke="#000000" stroke-linecap="square" stroke-miterlimit="10" d="M329.139,409.14  C327.439,409.14,327.439,409.14,329.139,409.14L329.139,409.14z"/>
<path fill="none" stroke="#000000" stroke-linecap="square" stroke-miterlimit="10" d="M329.139,409.14  C327.439,409.14,327.439,409.14,329.139,409.14L329.139,409.14z"/>
<path fill="none" stroke="#000000" stroke-linecap="square" stroke-miterlimit="10" d="M329.139,409.14  C327.492,409.14,327.492,409.14,329.139,409.14L329.139,409.14z"/>
<path fill="none" stroke="#000000" stroke-linecap="square" stroke-miterlimit="10" d="M329.139,409.14  C327.492,409.14,327.492,409.14,329.139,409.14L329.139,409.14z"/>
<path fill="none" stroke="#000000" stroke-linecap="square" stroke-miterlimit="10" d="M329.139,409.14  C327.696,409.489,327.281,409.589,329.139,409.14L329.139,409.14z"/>
<path fill="none" stroke="#000000" stroke-linecap="square" stroke-miterlimit="10" d="M329.139,409.14  C327.495,410.027,328.497,409.486,329.139,409.14L329.139,409.14z"/>
<path fill="none" stroke="#000000" stroke-linecap="square" stroke-miterlimit="10" d="M329.139,409.14  C327.495,410.027,328.497,409.486,329.139,409.14L329.139,409.14z"/>
<path fill="none" stroke="#000000" stroke-linecap="square" stroke-miterlimit="10" d="M329.889,408.39  C326.973,408.622,328.263,408.52,329.889,408.39L329.889,408.39z"/>
<path fill="none" stroke="#000000" stroke-linecap="square" stroke-miterlimit="10" d="M329.139,408.39  C327.622,408.855,327.351,408.939,329.139,408.39L329.139,408.39z"/>
<path fill="none" stroke="#000000" stroke-linecap="square" stroke-miterlimit="10" d="M328.389,409.14  C328.389,410.14,328.389,410.14,328.389,409.14L328.389,409.14z"/>
<path fill="none" stroke="#000000" stroke-linecap="square" stroke-miterlimit="10" d="M329.139,409.14  C327.439,409.14,327.439,409.14,329.139,409.14L329.139,409.14z"/>
<path fill="none" stroke="#000000" stroke-linecap="square" stroke-miterlimit="10" d="M329.139,409.14  C327.439,409.14,327.439,409.14,329.139,409.14L329.139,409.14z"/>
<path fill="none" stroke="#000000" stroke-linecap="square" stroke-miterlimit="10" d="M329.139,409.14  C327.492,409.14,327.492,409.14,329.139,409.14L329.139,409.14z"/>
<path fill="none" stroke="#000000" stroke-linecap="square" stroke-miterlimit="10" d="M329.139,409.14  C327.492,409.14,327.492,409.14,329.139,409.14L329.139,409.14z"/>
<path fill="none" stroke="#000000" stroke-linecap="square" stroke-miterlimit="10" d="M329.139,409.14  C327.492,409.14,327.492,409.14,329.139,409.14L329.139,409.14z"/>
<path fill="none" stroke="#000000" stroke-linecap="square" stroke-miterlimit="10" d="M329.139,409.14  C327.495,410.027,328.497,409.486,329.139,409.14L329.139,409.14z"/>
<path fill="none" stroke="#000000" stroke-linecap="square" stroke-miterlimit="10" d="M329.139,409.14  C327.495,410.027,328.497,409.486,329.139,409.14L329.139,409.14z"/>
<path fill="none" stroke="#000000" stroke-linecap="square" stroke-miterlimit="10" d="M329.139,409.14  C327.495,410.027,328.497,409.486,329.139,409.14L329.139,409.14z"/>
<path fill="none" stroke="#000000" stroke-linecap="square" stroke-miterlimit="10" d="M329.139,409.14  C327.167,409.14,327.167,409.14,329.139,409.14L329.139,409.14z"/>
<path fill="none" stroke="#000000" stroke-linecap="square" stroke-miterlimit="10" d="M329.139,409.14  C327.439,409.14,327.439,409.14,329.139,409.14L329.139,409.14z"/>
<path fill="none" stroke="#000000" stroke-linecap="square" stroke-miterlimit="10" d="M328.389,409.14  C328.389,410.14,328.389,410.14,328.389,409.14L328.389,409.14z"/>
<path fill="none" stroke="#000000" stroke-linecap="square" stroke-miterlimit="10" d="M329.139,409.14  C327.492,409.14,327.492,409.14,329.139,409.14L329.139,409.14z"/>
<path fill="none" stroke="#000000" stroke-linecap="square" stroke-miterlimit="10" d="M329.139,409.14  C327.492,409.14,327.492,409.14,329.139,409.14L329.139,409.14z"/>
<path fill="none" stroke="#000000" stroke-linecap="square" stroke-miterlimit="10" d="M329.139,409.14  C327.492,409.14,327.492,409.14,329.139,409.14L329.139,409.14z"/>
<path fill="none" stroke="#000000" stroke-linecap="square" stroke-miterlimit="10" d="M329.139,409.14  C328.019,409.14,328.019,409.14,329.139,409.14L329.139,409.14z"/>
<path fill="none" stroke="#000000" stroke-linecap="square" stroke-miterlimit="10" d="M329.139,409.14  C327.495,410.027,328.497,409.486,329.139,409.14L329.139,409.14z"/>
<path fill="none" stroke="#000000" stroke-linecap="square" stroke-miterlimit="10" d="M329.139,409.14  C327.495,410.027,328.497,409.486,329.139,409.14L329.139,409.14z"/>
<path fill="none" stroke="#000000" stroke-linecap="square" stroke-miterlimit="10" d="M329.139,409.14  C328.139,409.14,328.139,409.14,329.139,409.14L329.139,409.14z"/>
<path fill="none" stroke="#000000" stroke-linecap="square" stroke-miterlimit="10" d="M329.139,409.14  C328.139,409.14,328.139,409.14,329.139,409.14L329.139,409.14z"/>
<path fill="none" stroke="#000000" stroke-linecap="square" stroke-miterlimit="10" d="M329.139,409.14  C328.019,409.14,328.019,409.14,329.139,409.14L329.139,409.14z"/>
<path fill="none" stroke="#000000" stroke-linecap="square" stroke-miterlimit="10" d="M329.139,409.14  C328.019,409.14,328.019,409.14,329.139,409.14L329.139,409.14z"/>
<path fill="none" stroke="#000000" stroke-linecap="square" stroke-miterlimit="10" d="M328.389,409.14L328.389,409.14z"/>
<path fill="none" stroke="#000000" stroke-linecap="square" stroke-miterlimit="10" d="M329.139,409.14  C327.495,410.027,328.497,409.486,329.139,409.14L329.139,409.14z"/>
<path fill="none" stroke="#000000" stroke-linecap="square" stroke-miterlimit="10" d="M329.139,409.14  C327.495,410.027,328.497,409.486,329.139,409.14L329.139,409.14z"/>
<path fill="none" stroke="#000000" stroke-linecap="square" stroke-miterlimit="10" d="M329.139,409.14  C327.495,410.027,328.497,409.486,329.139,409.14L329.139,409.14z"/>
<path fill="none" stroke="#000000" stroke-linecap="square" stroke-miterlimit="10" d="M329.139,409.14  C328.139,409.14,328.139,409.14,329.139,409.14L329.139,409.14z"/>
<path fill="none" stroke="#000000" stroke-linecap="square" stroke-miterlimit="10" d="M329.139,409.14  C328.139,409.14,328.139,409.14,329.139,409.14L329.139,409.14z"/>
<path fill="none" stroke="#000000" stroke-linecap="square" stroke-miterlimit="10" d="M329.139,409.14  C328.139,409.14,328.139,409.14,329.139,409.14L329.139,409.14z"/>
<path fill="none" stroke="#000000" stroke-linecap="square" stroke-miterlimit="10" d="M339.639,409.14  C339.035,408.537,339.035,408.537,339.639,409.14L339.639,409.14z"/>
<path fill="none" stroke="#000000" stroke-linecap="square" stroke-miterlimit="10" d="M339.639,409.14  C339.639,408.14,339.639,408.14,339.639,409.14L339.639,409.14z"/>
<path fill="none" stroke="#000000" stroke-linecap="square" stroke-miterlimit="10" d="M341.139,409.14  C338.822,408.795,338.474,408.743,341.139,409.14L341.139,409.14z"/>
<path fill="none" stroke="#000000" stroke-linecap="square" stroke-miterlimit="10" d="M339.639,408.39  C338.316,408.048,337.794,407.914,339.639,408.39L339.639,408.39z"/>
<path fill="none" stroke="#000000" stroke-linecap="square" stroke-miterlimit="10" d="M338.889,409.14  C340.533,408.253,339.53,408.794,338.889,409.14L338.889,409.14z"/>
<path fill="none" stroke="#000000" stroke-linecap="square" stroke-miterlimit="10" d="M339.639,408.39  C338.071,408.151,338.464,408.211,339.639,408.39L339.639,408.39z"/>
<path fill="none" stroke="#000000" stroke-linecap="square" stroke-miterlimit="10" d="M339.639,408.39  C337.884,408.177,338.706,408.276,339.639,408.39L339.639,408.39z"/>
<path fill="none" stroke="#000000" stroke-linecap="square" stroke-miterlimit="10" d="M340.389,408.39  C338.872,408.855,338.601,408.939,340.389,408.39L340.389,408.39z"/>
<path fill="none" stroke="#000000" stroke-linecap="square" stroke-miterlimit="10" d="M340.389,408.39  C338.946,408.739,338.531,408.839,340.389,408.39L340.389,408.39z"/>
<path fill="none" stroke="#000000" stroke-linecap="square" stroke-miterlimit="10" d="M340.389,408.39  C338.533,409.364,338.959,409.14,340.389,408.39L340.389,408.39z"/>
<path fill="none" stroke="#000000" stroke-linecap="square" stroke-miterlimit="10" d="M339.639,409.14  C339.035,408.537,339.035,408.537,339.639,409.14L339.639,409.14z"/>
<path fill="none" stroke="#000000" stroke-linecap="square" stroke-miterlimit="10" d="M339.639,409.14  C339.035,408.537,339.035,408.537,339.639,409.14L339.639,409.14z"/>
<path fill="none" stroke="#000000" stroke-linecap="square" stroke-miterlimit="10" d="M339.639,409.14  C339.639,408.14,339.639,408.14,339.639,409.14L339.639,409.14z"/>
<path fill="none" stroke="#000000" stroke-linecap="square" stroke-miterlimit="10" d="M339.639,408.39  C338.071,408.151,338.464,408.211,339.639,408.39L339.639,408.39z"/>
<path fill="none" stroke="#000000" stroke-linecap="square" stroke-miterlimit="10" d="M339.639,408.39  C338.366,408.39,338.366,408.39,339.639,408.39L339.639,408.39z"/>
<path fill="none" stroke="#000000" stroke-linecap="square" stroke-miterlimit="10" d="M338.889,409.14  C340.533,408.253,339.53,408.794,338.889,409.14L338.889,409.14z"/>
<path fill="none" stroke="#000000" stroke-linecap="square" stroke-miterlimit="10" d="M340.389,408.39  C338.742,408.39,338.742,408.39,340.389,408.39L340.389,408.39z"/>
<path fill="none" stroke="#000000" stroke-linecap="square" stroke-miterlimit="10" d="M340.389,408.39  C338.742,408.39,338.742,408.39,340.389,408.39L340.389,408.39z"/>
<path fill="none" stroke="#000000" stroke-linecap="square" stroke-miterlimit="10" d="M340.389,408.39  C338.742,408.39,338.742,408.39,340.389,408.39L340.389,408.39z"/>
<path fill="none" stroke="#000000" stroke-linecap="square" stroke-miterlimit="10" d="M340.389,408.39  C338.946,408.739,338.531,408.839,340.389,408.39L340.389,408.39z"/>
<path fill="none" stroke="#000000" stroke-linecap="square" stroke-miterlimit="10" d="M340.389,408.39  C338.533,409.364,338.959,409.14,340.389,408.39L340.389,408.39z"/>
<path fill="none" stroke="#000000" stroke-linecap="square" stroke-miterlimit="10" d="M339.639,409.14  C339.035,408.537,339.035,408.537,339.639,409.14L339.639,409.14z"/>
<path fill="none" stroke="#000000" stroke-linecap="square" stroke-miterlimit="10" d="M339.639,409.14  C339.639,408.14,339.639,408.14,339.639,409.14L339.639,409.14z"/>
<path fill="none" stroke="#000000" stroke-linecap="square" stroke-miterlimit="10" d="M339.639,409.14  C339.639,408.14,339.639,408.14,339.639,409.14L339.639,409.14z"/>
<path fill="none" stroke="#000000" stroke-linecap="square" stroke-miterlimit="10" d="M340.389,408.39  C338.445,408.003,339.47,408.207,340.389,408.39L340.389,408.39z"/>
<path fill="none" stroke="#000000" stroke-linecap="square" stroke-miterlimit="10" d="M340.389,408.39  C338.27,408.762,339.485,408.549,340.389,408.39L340.389,408.39z"/>
<path fill="none" stroke="#000000" stroke-linecap="square" stroke-miterlimit="10" d="M339.639,409.14  C339.639,408.14,339.639,408.14,339.639,409.14L339.639,409.14z"/>
<path fill="none" stroke="#000000" stroke-linecap="square" stroke-miterlimit="10" d="M340.389,408.39  C338.742,408.39,338.742,408.39,340.389,408.39L340.389,408.39z"/>
<path fill="none" stroke="#000000" stroke-linecap="square" stroke-miterlimit="10" d="M340.389,408.39  C338.533,409.364,338.959,409.14,340.389,408.39L340.389,408.39z"/>
<path fill="none" stroke="#000000" stroke-linecap="square" stroke-miterlimit="10" d="M340.389,408.39  C338.533,409.364,338.959,409.14,340.389,408.39L340.389,408.39z"/>
<path fill="none" stroke="#000000" stroke-linecap="square" stroke-miterlimit="10" d="M340.389,408.39  C338.533,409.364,338.959,409.14,340.389,408.39L340.389,408.39z"/>
<path fill="none" stroke="#000000" stroke-linecap="square" stroke-miterlimit="10" d="M340.389,409.14  C338.531,408.691,338.946,408.792,340.389,409.14L340.389,409.14z"/>
<path fill="none" stroke="#000000" stroke-linecap="square" stroke-miterlimit="10" d="M339.639,409.14  C339.639,408.14,339.639,408.14,339.639,409.14L339.639,409.14z"/>
<path fill="none" stroke="#000000" stroke-linecap="square" stroke-miterlimit="10" d="M339.639,409.14  C339.639,408.14,339.639,408.14,339.639,409.14L339.639,409.14z"/>
<path fill="none" stroke="#000000" stroke-linecap="square" stroke-miterlimit="10" d="M339.639,409.14L339.639,409.14z"/>
<path fill="none" stroke="#000000" stroke-linecap="square" stroke-miterlimit="10" d="M340.389,408.39  C338.533,409.364,338.959,409.14,340.389,408.39L340.389,408.39z"/>
<path fill="none" stroke="#000000" stroke-linecap="square" stroke-miterlimit="10" d="M340.389,408.39  C338.946,408.739,338.531,408.839,340.389,408.39L340.389,408.39z"/>
<path fill="none" stroke="#000000" stroke-linecap="square" stroke-miterlimit="10" d="M339.639,409.14L339.639,409.14z"/>
<path fill="none" stroke="#000000" stroke-linecap="square" stroke-miterlimit="10" d="M340.389,408.39  C338.745,409.277,339.747,408.736,340.389,408.39L340.389,408.39z"/>
<path fill="none" stroke="#000000" stroke-linecap="square" stroke-miterlimit="10" d="M340.389,409.14  C339.747,408.794,338.745,408.253,340.389,409.14L340.389,409.14z"/>
<path fill="none" stroke="#000000" stroke-linecap="square" stroke-miterlimit="10" d="M340.389,409.14  C339.747,408.794,338.745,408.253,340.389,409.14L340.389,409.14z"/>
<path fill="none" stroke="#000000" stroke-linecap="square" stroke-miterlimit="10" d="M340.389,409.14  C339.747,408.794,338.745,408.253,340.389,409.14L340.389,409.14z"/>
<path fill="none" stroke="#000000" stroke-linecap="square" stroke-miterlimit="10" d="M339.639,409.14  C339.639,408.14,339.639,408.14,339.639,409.14L339.639,409.14z"/>
<path fill="none" stroke="#000000" stroke-linecap="square" stroke-miterlimit="10" d="M339.639,409.14  C339.639,408.14,339.639,408.14,339.639,409.14L339.639,409.14z"/>
<path fill="none" stroke="#000000" stroke-linecap="square" stroke-miterlimit="10" d="M385.389,466.89  c2.952-1.598,5.678-1.872,7.5-4.5c8.278,6.027,14.223,15.12,13.5,26.25"/>
<path fill="none" stroke="#000000" stroke-linecap="square" stroke-miterlimit="10" d="M405.639,435.39  c1.175,2.685,1.505,5.651,0.75,8.25"/>
<path fill="none" stroke="#000000" stroke-linecap="square" stroke-miterlimit="10" d="M340.389,403.14  c1.315,2.137,1.987,4.211,2.25,6.75"/>
<path fill-rule="evenodd" clip-rule="evenodd" fill="#878787" stroke="#000000" stroke-linecap="square" stroke-miterlimit="10" d="  M407.889,338.64c10.255-0.303,16.542,2.632,15.752,12.75C420.341,345.894,412.632,343.141,407.889,338.64z"/>
<path fill-rule="evenodd" clip-rule="evenodd" fill="#878787" stroke="#000000" stroke-linecap="square" stroke-miterlimit="10" d="  M428.891,346.14c3.417-3.91,2.105-8.98,8.25-5.25C431.525,348.831,429.521,346.175,428.891,346.14z"/>
<path fill-rule="evenodd" clip-rule="evenodd" fill="#FFFFFF" stroke="#000000" stroke-linecap="square" stroke-miterlimit="10" d="  M508.391,388.14c-24.563-22.974-94.809-0.629-61.5-42c-10.728,4.671-30.836,5.721-41.252-1.5  c13.104,16.362,13.889,43.747,21.002,63.75c4.13,11.615,13.029,26.893,0,41.25c17.321,2.766,12.314-22.943,14.25-36  c1.986,12.81,3.975,26.114-0.75,38.25c14.872-1.708,8.25-10.248,8.25-24c0-20.105,1.414-9.493,13.5-12  c21.94-4.551,40.673,7.086,29.25,31.5c5.207-4.633,5.481-1.653,9.75-10.5c0.492,30.765,1.701-10.996,1.5-22.5  C502.123,399.105,500.479,390.515,508.391,388.14z"/>
<path fill-rule="evenodd" clip-rule="evenodd" fill="#FFFFFF" stroke="#000000" stroke-linecap="square" stroke-miterlimit="10" d="  M441.641,424.14L441.641,424.14z"/>
<path fill="none" stroke="#000000" stroke-linecap="square" stroke-miterlimit="10" d="M431.141,409.14c2.365,2.407,4.294,2.843,9,3  "/>
<path fill="none" stroke="#000000" stroke-linecap="square" stroke-miterlimit="10" d="M424.391,367.14  c2.616,4.219,6.732,4.94,11.25,2.25"/>
<path fill-rule="evenodd" clip-rule="evenodd" fill="#878787" stroke="#000000" stroke-linecap="square" stroke-miterlimit="10" d="  M435.641,362.64c-2.446-0.016-2.28,4.432-6,0.75c0-0.5,0-1,0-1.5C433.456,358.463,433.543,362.626,435.641,362.64z"/>
<path fill="none" stroke="#000000" stroke-linecap="square" stroke-miterlimit="10" d="M423.641,356.64  C421.997,357.527,422.999,356.986,423.641,356.64L423.641,356.64z"/>
<path fill="none" stroke="#000000" stroke-linecap="square" stroke-miterlimit="10" d="M423.641,356.64  C421.997,357.527,422.999,356.986,423.641,356.64L423.641,356.64z"/>
<path fill="none" stroke="#000000" stroke-linecap="square" stroke-miterlimit="10" d="M424.391,357.39  C422.434,356.993,421.904,356.885,424.391,357.39L424.391,357.39z"/>
<path fill="none" stroke="#000000" stroke-linecap="square" stroke-miterlimit="10" d="M424.391,355.89  C421.475,356.122,422.765,356.02,424.391,355.89L424.391,355.89z"/>
<path fill="none" stroke="#000000" stroke-linecap="square" stroke-miterlimit="10" d="M422.891,356.64  C422.891,357.64,422.891,357.64,422.891,356.64L422.891,356.64z"/>
<path fill="none" stroke="#000000" stroke-linecap="square" stroke-miterlimit="10" d="M423.641,356.64  C421.941,356.64,421.941,356.64,423.641,356.64L423.641,356.64z"/>
<path fill="none" stroke="#000000" stroke-linecap="square" stroke-miterlimit="10" d="M423.641,356.64  C421.941,356.64,421.941,356.64,423.641,356.64L423.641,356.64z"/>
<path fill="none" stroke="#000000" stroke-linecap="square" stroke-miterlimit="10" d="M423.641,356.64  C421.941,356.64,421.941,356.64,423.641,356.64L423.641,356.64z"/>
<path fill="none" stroke="#000000" stroke-linecap="square" stroke-miterlimit="10" d="M423.641,356.64  C421.993,356.64,421.993,356.64,423.641,356.64L423.641,356.64z"/>
<path fill="none" stroke="#000000" stroke-linecap="square" stroke-miterlimit="10" d="M423.641,356.64  C421.993,356.64,421.993,356.64,423.641,356.64L423.641,356.64z"/>
<path fill="none" stroke="#000000" stroke-linecap="square" stroke-miterlimit="10" d="M423.641,356.64  C422.197,356.989,421.783,357.089,423.641,356.64L423.641,356.64z"/>
<path fill="none" stroke="#000000" stroke-linecap="square" stroke-miterlimit="10" d="M423.641,356.64  C421.997,357.527,422.999,356.986,423.641,356.64L423.641,356.64z"/>
<path fill="none" stroke="#000000" stroke-linecap="square" stroke-miterlimit="10" d="M423.641,356.64  C421.997,357.527,422.999,356.986,423.641,356.64L423.641,356.64z"/>
<path fill="none" stroke="#000000" stroke-linecap="square" stroke-miterlimit="10" d="M424.391,355.89  C421.475,356.122,422.765,356.02,424.391,355.89L424.391,355.89z"/>
<path fill="none" stroke="#000000" stroke-linecap="square" stroke-miterlimit="10" d="M423.641,355.89  C422.124,356.355,421.854,356.439,423.641,355.89L423.641,355.89z"/>
<path fill="none" stroke="#000000" stroke-linecap="square" stroke-miterlimit="10" d="M422.891,356.64  C422.891,357.64,422.891,357.64,422.891,356.64L422.891,356.64z"/>
<path fill="none" stroke="#000000" stroke-linecap="square" stroke-miterlimit="10" d="M423.641,356.64  C421.941,356.64,421.941,356.64,423.641,356.64L423.641,356.64z"/>
<path fill="none" stroke="#000000" stroke-linecap="square" stroke-miterlimit="10" d="M423.641,356.64  C421.941,356.64,421.941,356.64,423.641,356.64L423.641,356.64z"/>
<path fill="none" stroke="#000000" stroke-linecap="square" stroke-miterlimit="10" d="M423.641,356.64  C421.993,356.64,421.993,356.64,423.641,356.64L423.641,356.64z"/>
<path fill="none" stroke="#000000" stroke-linecap="square" stroke-miterlimit="10" d="M423.641,356.64  C421.993,356.64,421.993,356.64,423.641,356.64L423.641,356.64z"/>
<path fill="none" stroke="#000000" stroke-linecap="square" stroke-miterlimit="10" d="M423.641,356.64  C421.993,356.64,421.993,356.64,423.641,356.64L423.641,356.64z"/>
<path fill="none" stroke="#000000" stroke-linecap="square" stroke-miterlimit="10" d="M423.641,356.64  C421.997,357.527,422.999,356.986,423.641,356.64L423.641,356.64z"/>
<path fill="none" stroke="#000000" stroke-linecap="square" stroke-miterlimit="10" d="M423.641,356.64  C421.997,357.527,422.999,356.986,423.641,356.64L423.641,356.64z"/>
<path fill="none" stroke="#000000" stroke-linecap="square" stroke-miterlimit="10" d="M423.641,356.64  C421.997,357.527,422.999,356.986,423.641,356.64L423.641,356.64z"/>
<path fill="none" stroke="#000000" stroke-linecap="square" stroke-miterlimit="10" d="M423.641,356.64  C421.668,356.64,421.668,356.64,423.641,356.64L423.641,356.64z"/>
<path fill="none" stroke="#000000" stroke-linecap="square" stroke-miterlimit="10" d="M423.641,356.64  C421.941,356.64,421.941,356.64,423.641,356.64L423.641,356.64z"/>
<path fill="none" stroke="#000000" stroke-linecap="square" stroke-miterlimit="10" d="M422.891,356.64  C422.891,357.64,422.891,357.64,422.891,356.64L422.891,356.64z"/>
<path fill="none" stroke="#000000" stroke-linecap="square" stroke-miterlimit="10" d="M423.641,356.64  C421.993,356.64,421.993,356.64,423.641,356.64L423.641,356.64z"/>
<path fill="none" stroke="#000000" stroke-linecap="square" stroke-miterlimit="10" d="M423.641,356.64  C421.993,356.64,421.993,356.64,423.641,356.64L423.641,356.64z"/>
<path fill="none" stroke="#000000" stroke-linecap="square" stroke-miterlimit="10" d="M423.641,356.64  C421.993,356.64,421.993,356.64,423.641,356.64L423.641,356.64z"/>
<path fill="none" stroke="#000000" stroke-linecap="square" stroke-miterlimit="10" d="M423.641,356.64  C422.521,356.64,422.521,356.64,423.641,356.64L423.641,356.64z"/>
<path fill="none" stroke="#000000" stroke-linecap="square" stroke-miterlimit="10" d="M423.641,356.64  C421.997,357.527,422.999,356.986,423.641,356.64L423.641,356.64z"/>
<path fill="none" stroke="#000000" stroke-linecap="square" stroke-miterlimit="10" d="M423.641,356.64  C421.997,357.527,422.999,356.986,423.641,356.64L423.641,356.64z"/>
<path fill="none" stroke="#000000" stroke-linecap="square" stroke-miterlimit="10" d="M423.641,356.64  C422.641,356.64,422.641,356.64,423.641,356.64L423.641,356.64z"/>
<path fill="none" stroke="#000000" stroke-linecap="square" stroke-miterlimit="10" d="M423.641,356.64  C422.641,356.64,422.641,356.64,423.641,356.64L423.641,356.64z"/>
<path fill="none" stroke="#000000" stroke-linecap="square" stroke-miterlimit="10" d="M423.641,356.64  C422.521,356.64,422.521,356.64,423.641,356.64L423.641,356.64z"/>
<path fill="none" stroke="#000000" stroke-linecap="square" stroke-miterlimit="10" d="M423.641,356.64  C422.521,356.64,422.521,356.64,423.641,356.64L423.641,356.64z"/>
<path fill="none" stroke="#000000" stroke-linecap="square" stroke-miterlimit="10" d="M422.891,356.64L422.891,356.64z"/>
<path fill="none" stroke="#000000" stroke-linecap="square" stroke-miterlimit="10" d="M423.641,356.64  C421.997,357.527,422.999,356.986,423.641,356.64L423.641,356.64z"/>
<path fill="none" stroke="#000000" stroke-linecap="square" stroke-miterlimit="10" d="M423.641,356.64  C421.997,357.527,422.999,356.986,423.641,356.64L423.641,356.64z"/>
<path fill="none" stroke="#000000" stroke-linecap="square" stroke-miterlimit="10" d="M423.641,356.64  C421.997,357.527,422.999,356.986,423.641,356.64L423.641,356.64z"/>
<path fill="none" stroke="#000000" stroke-linecap="square" stroke-miterlimit="10" d="M423.641,356.64  C422.641,356.64,422.641,356.64,423.641,356.64L423.641,356.64z"/>
<path fill="none" stroke="#000000" stroke-linecap="square" stroke-miterlimit="10" d="M423.641,356.64  C422.641,356.64,422.641,356.64,423.641,356.64L423.641,356.64z"/>
<path fill="none" stroke="#000000" stroke-linecap="square" stroke-miterlimit="10" d="M423.641,356.64  C422.641,356.64,422.641,356.64,423.641,356.64L423.641,356.64z"/>
<path fill="none" stroke="#000000" stroke-linecap="square" stroke-miterlimit="10" d="M434.141,356.64  C433.537,356.037,433.537,356.037,434.141,356.64L434.141,356.64z"/>
<path fill="none" stroke="#000000" stroke-linecap="square" stroke-miterlimit="10" d="M434.141,356.64  C434.141,355.64,434.141,355.64,434.141,356.64L434.141,356.64z"/>
<path fill="none" stroke="#000000" stroke-linecap="square" stroke-miterlimit="10" d="M435.641,356.64  C433.323,356.295,432.977,356.243,435.641,356.64L435.641,356.64z"/>
<path fill="none" stroke="#000000" stroke-linecap="square" stroke-miterlimit="10" d="M434.141,355.89  C432.818,355.548,432.296,355.414,434.141,355.89L434.141,355.89z"/>
<path fill="none" stroke="#000000" stroke-linecap="square" stroke-miterlimit="10" d="M433.391,356.64  C435.034,355.753,434.032,356.294,433.391,356.64L433.391,356.64z"/>
<path fill="none" stroke="#000000" stroke-linecap="square" stroke-miterlimit="10" d="M434.141,355.89  C432.573,355.651,432.966,355.711,434.141,355.89L434.141,355.89z"/>
<path fill="none" stroke="#000000" stroke-linecap="square" stroke-miterlimit="10" d="M434.141,355.89  C432.386,355.677,433.208,355.776,434.141,355.89L434.141,355.89z"/>
<path fill="none" stroke="#000000" stroke-linecap="square" stroke-miterlimit="10" d="M434.891,355.89  C433.374,356.355,433.104,356.439,434.891,355.89L434.891,355.89z"/>
<path fill="none" stroke="#000000" stroke-linecap="square" stroke-miterlimit="10" d="M434.891,355.89  C433.447,356.239,433.033,356.339,434.891,355.89L434.891,355.89z"/>
<path fill="none" stroke="#000000" stroke-linecap="square" stroke-miterlimit="10" d="M434.891,355.89  C433.034,356.864,433.462,356.64,434.891,355.89L434.891,355.89z"/>
<path fill="none" stroke="#000000" stroke-linecap="square" stroke-miterlimit="10" d="M434.141,356.64  C433.537,356.037,433.537,356.037,434.141,356.64L434.141,356.64z"/>
<path fill="none" stroke="#000000" stroke-linecap="square" stroke-miterlimit="10" d="M434.141,356.64  C433.537,356.037,433.537,356.037,434.141,356.64L434.141,356.64z"/>
<path fill="none" stroke="#000000" stroke-linecap="square" stroke-miterlimit="10" d="M434.141,356.64  C434.141,355.64,434.141,355.64,434.141,356.64L434.141,356.64z"/>
<path fill="none" stroke="#000000" stroke-linecap="square" stroke-miterlimit="10" d="M434.141,355.89  C432.573,355.651,432.966,355.711,434.141,355.89L434.141,355.89z"/>
<path fill="none" stroke="#000000" stroke-linecap="square" stroke-miterlimit="10" d="M434.141,355.89  C432.867,355.89,432.867,355.89,434.141,355.89L434.141,355.89z"/>
<path fill="none" stroke="#000000" stroke-linecap="square" stroke-miterlimit="10" d="M433.391,356.64  C435.034,355.753,434.032,356.294,433.391,356.64L433.391,356.64z"/>
<path fill="none" stroke="#000000" stroke-linecap="square" stroke-miterlimit="10" d="M434.891,355.89  C433.243,355.89,433.243,355.89,434.891,355.89L434.891,355.89z"/>
<path fill="none" stroke="#000000" stroke-linecap="square" stroke-miterlimit="10" d="M434.891,355.89  C433.243,355.89,433.243,355.89,434.891,355.89L434.891,355.89z"/>
<path fill="none" stroke="#000000" stroke-linecap="square" stroke-miterlimit="10" d="M434.891,355.89  C433.243,355.89,433.243,355.89,434.891,355.89L434.891,355.89z"/>
<path fill="none" stroke="#000000" stroke-linecap="square" stroke-miterlimit="10" d="M434.891,355.89  C433.447,356.239,433.033,356.339,434.891,355.89L434.891,355.89z"/>
<path fill="none" stroke="#000000" stroke-linecap="square" stroke-miterlimit="10" d="M434.891,355.89  C433.034,356.864,433.462,356.64,434.891,355.89L434.891,355.89z"/>
<path fill="none" stroke="#000000" stroke-linecap="square" stroke-miterlimit="10" d="M434.141,356.64  C433.537,356.037,433.537,356.037,434.141,356.64L434.141,356.64z"/>
<path fill="none" stroke="#000000" stroke-linecap="square" stroke-miterlimit="10" d="M434.141,356.64  C434.141,355.64,434.141,355.64,434.141,356.64L434.141,356.64z"/>
<path fill="none" stroke="#000000" stroke-linecap="square" stroke-miterlimit="10" d="M434.141,356.64  C434.141,355.64,434.141,355.64,434.141,356.64L434.141,356.64z"/>
<path fill="none" stroke="#000000" stroke-linecap="square" stroke-miterlimit="10" d="M434.891,355.89  C432.947,355.503,433.972,355.707,434.891,355.89L434.891,355.89z"/>
<path fill="none" stroke="#000000" stroke-linecap="square" stroke-miterlimit="10" d="M434.891,355.89  C432.771,356.262,433.987,356.049,434.891,355.89L434.891,355.89z"/>
<path fill="none" stroke="#000000" stroke-linecap="square" stroke-miterlimit="10" d="M434.141,356.64  C434.141,355.64,434.141,355.64,434.141,356.64L434.141,356.64z"/>
<path fill="none" stroke="#000000" stroke-linecap="square" stroke-miterlimit="10" d="M434.891,355.89  C433.243,355.89,433.243,355.89,434.891,355.89L434.891,355.89z"/>
<path fill="none" stroke="#000000" stroke-linecap="square" stroke-miterlimit="10" d="M434.891,355.89  C433.034,356.864,433.462,356.64,434.891,355.89L434.891,355.89z"/>
<path fill="none" stroke="#000000" stroke-linecap="square" stroke-miterlimit="10" d="M434.891,355.89  C433.034,356.864,433.462,356.64,434.891,355.89L434.891,355.89z"/>
<path fill="none" stroke="#000000" stroke-linecap="square" stroke-miterlimit="10" d="M434.891,355.89  C433.034,356.864,433.462,356.64,434.891,355.89L434.891,355.89z"/>
<path fill="none" stroke="#000000" stroke-linecap="square" stroke-miterlimit="10" d="M434.891,356.64  C433.033,356.191,433.447,356.292,434.891,356.64L434.891,356.64z"/>
<path fill="none" stroke="#000000" stroke-linecap="square" stroke-miterlimit="10" d="M434.141,356.64  C434.141,355.64,434.141,355.64,434.141,356.64L434.141,356.64z"/>
<path fill="none" stroke="#000000" stroke-linecap="square" stroke-miterlimit="10" d="M434.141,356.64  C434.141,355.64,434.141,355.64,434.141,356.64L434.141,356.64z"/>
<path fill="none" stroke="#000000" stroke-linecap="square" stroke-miterlimit="10" d="M434.141,356.64L434.141,356.64z"/>
<path fill="none" stroke="#000000" stroke-linecap="square" stroke-miterlimit="10" d="M434.891,355.89  C433.034,356.864,433.462,356.64,434.891,355.89L434.891,355.89z"/>
<path fill="none" stroke="#000000" stroke-linecap="square" stroke-miterlimit="10" d="M434.891,355.89  C433.447,356.239,433.033,356.339,434.891,355.89L434.891,355.89z"/>
<path fill="none" stroke="#000000" stroke-linecap="square" stroke-miterlimit="10" d="M434.141,356.64L434.141,356.64z"/>
<path fill="none" stroke="#000000" stroke-linecap="square" stroke-miterlimit="10" d="M434.891,355.89  C433.247,356.777,434.249,356.236,434.891,355.89L434.891,355.89z"/>
<path fill="none" stroke="#000000" stroke-linecap="square" stroke-miterlimit="10" d="M434.891,356.64  C434.249,356.294,433.247,355.753,434.891,356.64L434.891,356.64z"/>
<path fill="none" stroke="#000000" stroke-linecap="square" stroke-miterlimit="10" d="M434.891,356.64  C434.249,356.294,433.247,355.753,434.891,356.64L434.891,356.64z"/>
<path fill="none" stroke="#000000" stroke-linecap="square" stroke-miterlimit="10" d="M434.891,356.64  C434.249,356.294,433.247,355.753,434.891,356.64L434.891,356.64z"/>
<path fill="none" stroke="#000000" stroke-linecap="square" stroke-miterlimit="10" d="M434.141,356.64  C434.141,355.64,434.141,355.64,434.141,356.64L434.141,356.64z"/>
<path fill="none" stroke="#000000" stroke-linecap="square" stroke-miterlimit="10" d="M434.141,356.64  C434.141,355.64,434.141,355.64,434.141,356.64L434.141,356.64z"/>
<path fill="none" stroke="#000000" stroke-linecap="square" stroke-miterlimit="10" d="M435.641,369.39  c-9.67,6.973-15.307,2.927-16.5-9"/>
<path fill="none" stroke="#000000" stroke-linecap="square" stroke-miterlimit="10" d="M423.641,356.64  C421.997,357.527,422.999,356.986,423.641,356.64L423.641,356.64z"/>
<path fill="none" stroke="#000000" stroke-linecap="square" stroke-miterlimit="10" d="M423.641,356.64  C421.997,357.527,422.999,356.986,423.641,356.64L423.641,356.64z"/>
<path fill="none" stroke="#000000" stroke-linecap="square" stroke-miterlimit="10" d="M424.391,357.39  C422.434,356.993,421.904,356.885,424.391,357.39L424.391,357.39z"/>
<path fill="none" stroke="#000000" stroke-linecap="square" stroke-miterlimit="10" d="M424.391,355.89  C421.475,356.122,422.765,356.02,424.391,355.89L424.391,355.89z"/>
<path fill="none" stroke="#000000" stroke-linecap="square" stroke-miterlimit="10" d="M422.891,356.64  C422.891,357.64,422.891,357.64,422.891,356.64L422.891,356.64z"/>
<path fill="none" stroke="#000000" stroke-linecap="square" stroke-miterlimit="10" d="M423.641,356.64  C421.941,356.64,421.941,356.64,423.641,356.64L423.641,356.64z"/>
<path fill="none" stroke="#000000" stroke-linecap="square" stroke-miterlimit="10" d="M423.641,356.64  C421.941,356.64,421.941,356.64,423.641,356.64L423.641,356.64z"/>
<path fill="none" stroke="#000000" stroke-linecap="square" stroke-miterlimit="10" d="M423.641,356.64  C421.941,356.64,421.941,356.64,423.641,356.64L423.641,356.64z"/>
<path fill="none" stroke="#000000" stroke-linecap="square" stroke-miterlimit="10" d="M423.641,356.64  C421.993,356.64,421.993,356.64,423.641,356.64L423.641,356.64z"/>
<path fill="none" stroke="#000000" stroke-linecap="square" stroke-miterlimit="10" d="M423.641,356.64  C421.993,356.64,421.993,356.64,423.641,356.64L423.641,356.64z"/>
<path fill="none" stroke="#000000" stroke-linecap="square" stroke-miterlimit="10" d="M423.641,356.64  C422.197,356.989,421.783,357.089,423.641,356.64L423.641,356.64z"/>
<path fill="none" stroke="#000000" stroke-linecap="square" stroke-miterlimit="10" d="M423.641,356.64  C421.997,357.527,422.999,356.986,423.641,356.64L423.641,356.64z"/>
<path fill="none" stroke="#000000" stroke-linecap="square" stroke-miterlimit="10" d="M423.641,356.64  C421.997,357.527,422.999,356.986,423.641,356.64L423.641,356.64z"/>
<path fill="none" stroke="#000000" stroke-linecap="square" stroke-miterlimit="10" d="M424.391,355.89  C421.475,356.122,422.765,356.02,424.391,355.89L424.391,355.89z"/>
<path fill="none" stroke="#000000" stroke-linecap="square" stroke-miterlimit="10" d="M423.641,355.89  C422.124,356.355,421.854,356.439,423.641,355.89L423.641,355.89z"/>
<path fill="none" stroke="#000000" stroke-linecap="square" stroke-miterlimit="10" d="M422.891,356.64  C422.891,357.64,422.891,357.64,422.891,356.64L422.891,356.64z"/>
<path fill="none" stroke="#000000" stroke-linecap="square" stroke-miterlimit="10" d="M423.641,356.64  C421.941,356.64,421.941,356.64,423.641,356.64L423.641,356.64z"/>
<path fill="none" stroke="#000000" stroke-linecap="square" stroke-miterlimit="10" d="M423.641,356.64  C421.941,356.64,421.941,356.64,423.641,356.64L423.641,356.64z"/>
<path fill="none" stroke="#000000" stroke-linecap="square" stroke-miterlimit="10" d="M423.641,356.64  C421.993,356.64,421.993,356.64,423.641,356.64L423.641,356.64z"/>
<path fill="none" stroke="#000000" stroke-linecap="square" stroke-miterlimit="10" d="M423.641,356.64  C421.993,356.64,421.993,356.64,423.641,356.64L423.641,356.64z"/>
<path fill="none" stroke="#000000" stroke-linecap="square" stroke-miterlimit="10" d="M423.641,356.64  C421.993,356.64,421.993,356.64,423.641,356.64L423.641,356.64z"/>
<path fill="none" stroke="#000000" stroke-linecap="square" stroke-miterlimit="10" d="M423.641,356.64  C421.997,357.527,422.999,356.986,423.641,356.64L423.641,356.64z"/>
<path fill="none" stroke="#000000" stroke-linecap="square" stroke-miterlimit="10" d="M423.641,356.64  C421.997,357.527,422.999,356.986,423.641,356.64L423.641,356.64z"/>
<path fill="none" stroke="#000000" stroke-linecap="square" stroke-miterlimit="10" d="M423.641,356.64  C421.997,357.527,422.999,356.986,423.641,356.64L423.641,356.64z"/>
<path fill="none" stroke="#000000" stroke-linecap="square" stroke-miterlimit="10" d="M423.641,356.64  C421.668,356.64,421.668,356.64,423.641,356.64L423.641,356.64z"/>
<path fill="none" stroke="#000000" stroke-linecap="square" stroke-miterlimit="10" d="M423.641,356.64  C421.941,356.64,421.941,356.64,423.641,356.64L423.641,356.64z"/>
<path fill="none" stroke="#000000" stroke-linecap="square" stroke-miterlimit="10" d="M422.891,356.64  C422.891,357.64,422.891,357.64,422.891,356.64L422.891,356.64z"/>
<path fill="none" stroke="#000000" stroke-linecap="square" stroke-miterlimit="10" d="M423.641,356.64  C421.993,356.64,421.993,356.64,423.641,356.64L423.641,356.64z"/>
<path fill="none" stroke="#000000" stroke-linecap="square" stroke-miterlimit="10" d="M423.641,356.64  C421.993,356.64,421.993,356.64,423.641,356.64L423.641,356.64z"/>
<path fill="none" stroke="#000000" stroke-linecap="square" stroke-miterlimit="10" d="M423.641,356.64  C421.993,356.64,421.993,356.64,423.641,356.64L423.641,356.64z"/>
<path fill="none" stroke="#000000" stroke-linecap="square" stroke-miterlimit="10" d="M423.641,356.64  C422.521,356.64,422.521,356.64,423.641,356.64L423.641,356.64z"/>
<path fill="none" stroke="#000000" stroke-linecap="square" stroke-miterlimit="10" d="M423.641,356.64  C421.997,357.527,422.999,356.986,423.641,356.64L423.641,356.64z"/>
<path fill="none" stroke="#000000" stroke-linecap="square" stroke-miterlimit="10" d="M423.641,356.64  C421.997,357.527,422.999,356.986,423.641,356.64L423.641,356.64z"/>
<path fill="none" stroke="#000000" stroke-linecap="square" stroke-miterlimit="10" d="M423.641,356.64  C422.641,356.64,422.641,356.64,423.641,356.64L423.641,356.64z"/>
<path fill="none" stroke="#000000" stroke-linecap="square" stroke-miterlimit="10" d="M423.641,356.64  C422.641,356.64,422.641,356.64,423.641,356.64L423.641,356.64z"/>
<path fill="none" stroke="#000000" stroke-linecap="square" stroke-miterlimit="10" d="M423.641,356.64  C422.521,356.64,422.521,356.64,423.641,356.64L423.641,356.64z"/>
<path fill="none" stroke="#000000" stroke-linecap="square" stroke-miterlimit="10" d="M423.641,356.64  C422.521,356.64,422.521,356.64,423.641,356.64L423.641,356.64z"/>
<path fill="none" stroke="#000000" stroke-linecap="square" stroke-miterlimit="10" d="M422.891,356.64L422.891,356.64z"/>
<path fill="none" stroke="#000000" stroke-linecap="square" stroke-miterlimit="10" d="M423.641,356.64  C421.997,357.527,422.999,356.986,423.641,356.64L423.641,356.64z"/>
<path fill="none" stroke="#000000" stroke-linecap="square" stroke-miterlimit="10" d="M423.641,356.64  C421.997,357.527,422.999,356.986,423.641,356.64L423.641,356.64z"/>
<path fill="none" stroke="#000000" stroke-linecap="square" stroke-miterlimit="10" d="M423.641,356.64  C421.997,357.527,422.999,356.986,423.641,356.64L423.641,356.64z"/>
<path fill="none" stroke="#000000" stroke-linecap="square" stroke-miterlimit="10" d="M423.641,356.64  C422.641,356.64,422.641,356.64,423.641,356.64L423.641,356.64z"/>
<path fill="none" stroke="#000000" stroke-linecap="square" stroke-miterlimit="10" d="M423.641,356.64  C422.641,356.64,422.641,356.64,423.641,356.64L423.641,356.64z"/>
<path fill="none" stroke="#000000" stroke-linecap="square" stroke-miterlimit="10" d="M423.641,356.64  C422.641,356.64,422.641,356.64,423.641,356.64L423.641,356.64z"/>
<path fill="none" stroke="#000000" stroke-linecap="square" stroke-miterlimit="10" d="M434.141,356.64  C433.537,356.037,433.537,356.037,434.141,356.64L434.141,356.64z"/>
<path fill="none" stroke="#000000" stroke-linecap="square" stroke-miterlimit="10" d="M434.141,356.64  C434.141,355.64,434.141,355.64,434.141,356.64L434.141,356.64z"/>
<path fill="none" stroke="#000000" stroke-linecap="square" stroke-miterlimit="10" d="M435.641,356.64  C433.323,356.295,432.977,356.243,435.641,356.64L435.641,356.64z"/>
<path fill="none" stroke="#000000" stroke-linecap="square" stroke-miterlimit="10" d="M434.141,355.89  C432.818,355.548,432.296,355.414,434.141,355.89L434.141,355.89z"/>
<path fill="none" stroke="#000000" stroke-linecap="square" stroke-miterlimit="10" d="M433.391,356.64  C435.034,355.753,434.032,356.294,433.391,356.64L433.391,356.64z"/>
<path fill="none" stroke="#000000" stroke-linecap="square" stroke-miterlimit="10" d="M434.141,355.89  C432.573,355.651,432.966,355.711,434.141,355.89L434.141,355.89z"/>
<path fill="none" stroke="#000000" stroke-linecap="square" stroke-miterlimit="10" d="M434.141,355.89  C432.386,355.677,433.208,355.776,434.141,355.89L434.141,355.89z"/>
<path fill="none" stroke="#000000" stroke-linecap="square" stroke-miterlimit="10" d="M434.891,355.89  C433.374,356.355,433.104,356.439,434.891,355.89L434.891,355.89z"/>
<path fill="none" stroke="#000000" stroke-linecap="square" stroke-miterlimit="10" d="M434.891,355.89  C433.447,356.239,433.033,356.339,434.891,355.89L434.891,355.89z"/>
<path fill="none" stroke="#000000" stroke-linecap="square" stroke-miterlimit="10" d="M434.891,355.89  C433.034,356.864,433.462,356.64,434.891,355.89L434.891,355.89z"/>
<path fill="none" stroke="#000000" stroke-linecap="square" stroke-miterlimit="10" d="M434.141,356.64  C433.537,356.037,433.537,356.037,434.141,356.64L434.141,356.64z"/>
<path fill="none" stroke="#000000" stroke-linecap="square" stroke-miterlimit="10" d="M434.141,356.64  C433.537,356.037,433.537,356.037,434.141,356.64L434.141,356.64z"/>
<path fill="none" stroke="#000000" stroke-linecap="square" stroke-miterlimit="10" d="M434.141,356.64  C434.141,355.64,434.141,355.64,434.141,356.64L434.141,356.64z"/>
<path fill="none" stroke="#000000" stroke-linecap="square" stroke-miterlimit="10" d="M434.141,355.89  C432.573,355.651,432.966,355.711,434.141,355.89L434.141,355.89z"/>
<path fill="none" stroke="#000000" stroke-linecap="square" stroke-miterlimit="10" d="M434.141,355.89  C432.867,355.89,432.867,355.89,434.141,355.89L434.141,355.89z"/>
<path fill="none" stroke="#000000" stroke-linecap="square" stroke-miterlimit="10" d="M433.391,356.64  C435.034,355.753,434.032,356.294,433.391,356.64L433.391,356.64z"/>
<path fill="none" stroke="#000000" stroke-linecap="square" stroke-miterlimit="10" d="M434.891,355.89  C433.243,355.89,433.243,355.89,434.891,355.89L434.891,355.89z"/>
<path fill="none" stroke="#000000" stroke-linecap="square" stroke-miterlimit="10" d="M434.891,355.89  C433.243,355.89,433.243,355.89,434.891,355.89L434.891,355.89z"/>
<path fill="none" stroke="#000000" stroke-linecap="square" stroke-miterlimit="10" d="M434.891,355.89  C433.243,355.89,433.243,355.89,434.891,355.89L434.891,355.89z"/>
<path fill="none" stroke="#000000" stroke-linecap="square" stroke-miterlimit="10" d="M434.891,355.89  C433.447,356.239,433.033,356.339,434.891,355.89L434.891,355.89z"/>
<path fill="none" stroke="#000000" stroke-linecap="square" stroke-miterlimit="10" d="M434.891,355.89  C433.034,356.864,433.462,356.64,434.891,355.89L434.891,355.89z"/>
<path fill="none" stroke="#000000" stroke-linecap="square" stroke-miterlimit="10" d="M434.141,356.64  C433.537,356.037,433.537,356.037,434.141,356.64L434.141,356.64z"/>
<path fill="none" stroke="#000000" stroke-linecap="square" stroke-miterlimit="10" d="M434.141,356.64  C434.141,355.64,434.141,355.64,434.141,356.64L434.141,356.64z"/>
<path fill="none" stroke="#000000" stroke-linecap="square" stroke-miterlimit="10" d="M434.141,356.64  C434.141,355.64,434.141,355.64,434.141,356.64L434.141,356.64z"/>
<path fill="none" stroke="#000000" stroke-linecap="square" stroke-miterlimit="10" d="M434.891,355.89  C432.947,355.503,433.972,355.707,434.891,355.89L434.891,355.89z"/>
<path fill="none" stroke="#000000" stroke-linecap="square" stroke-miterlimit="10" d="M434.891,355.89  C432.771,356.262,433.987,356.049,434.891,355.89L434.891,355.89z"/>
<path fill="none" stroke="#000000" stroke-linecap="square" stroke-miterlimit="10" d="M434.141,356.64  C434.141,355.64,434.141,355.64,434.141,356.64L434.141,356.64z"/>
<path fill="none" stroke="#000000" stroke-linecap="square" stroke-miterlimit="10" d="M434.891,355.89  C433.243,355.89,433.243,355.89,434.891,355.89L434.891,355.89z"/>
<path fill="none" stroke="#000000" stroke-linecap="square" stroke-miterlimit="10" d="M434.891,355.89  C433.034,356.864,433.462,356.64,434.891,355.89L434.891,355.89z"/>
<path fill="none" stroke="#000000" stroke-linecap="square" stroke-miterlimit="10" d="M434.891,355.89  C433.034,356.864,433.462,356.64,434.891,355.89L434.891,355.89z"/>
<path fill="none" stroke="#000000" stroke-linecap="square" stroke-miterlimit="10" d="M434.891,355.89  C433.034,356.864,433.462,356.64,434.891,355.89L434.891,355.89z"/>
<path fill="none" stroke="#000000" stroke-linecap="square" stroke-miterlimit="10" d="M434.891,356.64  C433.033,356.191,433.447,356.292,434.891,356.64L434.891,356.64z"/>
<path fill="none" stroke="#000000" stroke-linecap="square" stroke-miterlimit="10" d="M434.141,356.64  C434.141,355.64,434.141,355.64,434.141,356.64L434.141,356.64z"/>
<path fill="none" stroke="#000000" stroke-linecap="square" stroke-miterlimit="10" d="M434.141,356.64  C434.141,355.64,434.141,355.64,434.141,356.64L434.141,356.64z"/>
<path fill="none" stroke="#000000" stroke-linecap="square" stroke-miterlimit="10" d="M434.141,356.64L434.141,356.64z"/>
<path fill="none" stroke="#000000" stroke-linecap="square" stroke-miterlimit="10" d="M434.891,355.89  C433.034,356.864,433.462,356.64,434.891,355.89L434.891,355.89z"/>
<path fill="none" stroke="#000000" stroke-linecap="square" stroke-miterlimit="10" d="M434.891,355.89  C433.447,356.239,433.033,356.339,434.891,355.89L434.891,355.89z"/>
<path fill="none" stroke="#000000" stroke-linecap="square" stroke-miterlimit="10" d="M434.141,356.64L434.141,356.64z"/>
<path fill="none" stroke="#000000" stroke-linecap="square" stroke-miterlimit="10" d="M434.891,355.89  C433.247,356.777,434.249,356.236,434.891,355.89L434.891,355.89z"/>
<path fill="none" stroke="#000000" stroke-linecap="square" stroke-miterlimit="10" d="M434.891,356.64  C434.249,356.294,433.247,355.753,434.891,356.64L434.891,356.64z"/>
<path fill="none" stroke="#000000" stroke-linecap="square" stroke-miterlimit="10" d="M434.891,356.64  C434.249,356.294,433.247,355.753,434.891,356.64L434.891,356.64z"/>
<path fill="none" stroke="#000000" stroke-linecap="square" stroke-miterlimit="10" d="M434.891,356.64  C434.249,356.294,433.247,355.753,434.891,356.64L434.891,356.64z"/>
<path fill="none" stroke="#000000" stroke-linecap="square" stroke-miterlimit="10" d="M434.141,356.64  C434.141,355.64,434.141,355.64,434.141,356.64L434.141,356.64z"/>
<path fill="none" stroke="#000000" stroke-linecap="square" stroke-miterlimit="10" d="M434.141,356.64  C434.141,355.64,434.141,355.64,434.141,356.64L434.141,356.64z"/>
<path fill="none" stroke="#000000" stroke-linecap="square" stroke-miterlimit="10" d="M479.891,414.39  c2.952-1.597,5.678-1.872,7.5-4.5c8.278,6.027,14.223,15.12,13.5,26.25"/>
<path fill="none" stroke="#000000" stroke-linecap="square" stroke-miterlimit="10" d="M500.141,382.89  c1.176,2.685,1.505,5.652,0.75,8.25"/>
<path fill="none" stroke="#000000" stroke-linecap="square" stroke-miterlimit="10" d="M434.891,350.64  c1.315,2.137,1.987,4.211,2.25,6.75"/>
</svg>