<svg xmlns="http://www.w3.org/2000/svg" xmlns:xlink="http://www.w3.org/1999/xlink" version="1.1" id="Layer_1" x="0px" y="0px" enable-background="new 0 0 822.05 841.89" xml:space="preserve" viewBox="249.54 251.7 321.5 344.97">
<path fill-rule="evenodd" clip-rule="evenodd" fill="#16793D" stroke="#010101" stroke-width="2" stroke-linecap="square" stroke-miterlimit="10" d="  M339.787,478.145c32.645,0,65.289,0,97.934,0c4.957,0,25.818,3.265,25.818-2.866c0-8.584,5.4-43.023,0-48.884  c-9.288-10.078-83.378,0-97.934,0C327.785,426.395,339.787,441.742,339.787,478.145z"/>
<path fill-rule="evenodd" clip-rule="evenodd" fill="#EED5B6" stroke="#010101" stroke-width="2" stroke-linecap="square" stroke-miterlimit="10" d="  M497.289,460.895c-24.725-8.365-63.405-14.503-66.75-46.5c2.203,3.33,3.034,6.656,4.5,10.5c-21.218-0.512-48.84-6.238-66.752,3  c-16.438,8.478-19.941,29.017-42,31.5c9.459,34.828,18.919,69.657,28.379,104.485c8.245,30.358,46.112,19.258,74.865,20.812  c27.548,1.489,52.559-33.255,72.538-50.408C526.348,513.438,506.533,489.694,497.289,460.895z"/>
<path fill-rule="evenodd" clip-rule="evenodd" fill="#F8981D" stroke="#010101" stroke-width="2" stroke-linecap="square" stroke-miterlimit="10" d="  M299.287,553.145c0,17.396-9.214,39.75,11.039,39.75c33.656,0,67.312,0,100.968,0c31.542,0,63.085,0,94.627,0  c13.713,0,6.367-32.211,6.367-44.25c0.153,8.841-3.85,39.255,1.5,44.25c6.696,6.253,46.155,0,56.25,0  c-5.193-39.321-5.575-102.325-35.25-132c-48.732-48.732-80.22,21.446-123.001,30c-17.622,3.523-35.619-11.822-48.188-21.773  c-23.468-18.579-43.365-28.847-74.062-12.727c-43.157,22.662-37.453,95.509-39,136.5  C296.838,592.895,299.287,600.075,299.287,553.145z"/>
<path fill="none" stroke="#010101" stroke-width="2" stroke-linecap="square" stroke-miterlimit="10" d="M512.289,592.895  c2.041-9.894,0.474-27.191,0-39.75C512.289,566.395,512.289,579.645,512.289,592.895z"/>
<path fill-rule="evenodd" clip-rule="evenodd" fill="#FFFFFF" stroke="#010101" stroke-width="2" stroke-linecap="square" stroke-miterlimit="10" d="  M299.287,553.145c0,13.25,0,26.5,0,39.75C299.287,579.645,299.287,566.395,299.287,553.145z"/>
<path fill-rule="evenodd" clip-rule="evenodd" fill="#FFFFFF" stroke="#010101" stroke-width="2" stroke-linecap="square" stroke-miterlimit="10" d="  M512.289,553.145C512.289,548.204,512.289,548.204,512.289,553.145L512.289,553.145z"/>
<path fill-rule="evenodd" clip-rule="evenodd" fill="#FFFFFF" stroke="#010101" stroke-width="2" stroke-linecap="square" stroke-miterlimit="10" d="  M424.539,565.895c-1.678-16.244-2.004-32.82-10.502-47.25c-10.688,6.711-8.641,5.796-19.5,0  c-13.23,21.721-10.706,49.721-12.75,74.25c14.75,0,29.501,0,44.252,0C425.539,583.895,425.039,574.895,424.539,565.895z"/>
<path fill-rule="evenodd" clip-rule="evenodd" fill="#FFFFFF" stroke="#010101" stroke-width="2" stroke-linecap="square" stroke-miterlimit="10" d="  M417.039,512.645c-1.013,23.736-23.141,23.242-24.002,0C392.094,487.211,416.579,487.353,417.039,512.645z"/>
<path fill-rule="evenodd" clip-rule="evenodd" fill="#F8981D" stroke="#010101" stroke-width="2" stroke-linecap="square" stroke-miterlimit="10" d="  M479.289,444.395c-2.386-6.729-8.822-13.493-12.75-19.5c-16.864,20.107-33.729,40.214-50.594,60.321  c-14.757,17.595,6.216,42.382,14.594,61.929C446.789,512.895,463.039,478.645,479.289,444.395z"/>
<path fill-rule="evenodd" clip-rule="evenodd" fill="#F8981D" stroke="#010101" stroke-width="2" stroke-linecap="square" stroke-miterlimit="10" d="  M335.287,447.395c0.477-6.914,4.086-14.301,6-21c17.361,20.139,34.722,40.277,52.083,60.417  c10.544,12.231-9.942,49.979-14.583,64.833C364.287,516.895,349.787,482.145,335.287,447.395z"/>
<path fill-rule="evenodd" clip-rule="evenodd" fill="#010101" stroke="#010101" stroke-width="2" stroke-linecap="square" stroke-miterlimit="10" d="  M327.787,329.645c1.168,103.036,154.967,102.62,154.502,0C481.823,226.916,331.768,227.198,327.787,329.645z"/>
<path fill-rule="evenodd" clip-rule="evenodd" fill="#EED5B6" stroke="#010101" stroke-width="2" stroke-linecap="square" stroke-miterlimit="10" d="  M488.289,355.145c0.422,23.605-21.75,23.468-21.75,0S488.711,331.54,488.289,355.145z"/>
<path fill-rule="evenodd" clip-rule="evenodd" fill="#EED5B6" stroke="#010101" stroke-width="2" stroke-linecap="square" stroke-miterlimit="10" d="  M344.287,355.145c0.441,23.559-21,23.251-21,0S344.729,331.586,344.287,355.145z"/>
<path fill-rule="evenodd" clip-rule="evenodd" fill="#EED5B6" stroke="#010101" stroke-width="2" stroke-linecap="square" stroke-miterlimit="10" d="  M354.787,287.645c12.73-0.602,22,19.852,36.75,22.5c24.376,4.376,27.713-18.987,47.252-25.5  c36.71-12.236,36.564,80.94,34.473,92.972c-9.928,57.082-72.752,80.379-116.975,43.528  C326.358,396.204,316.154,309.422,354.787,287.645z"/>
<path fill-rule="evenodd" clip-rule="evenodd" fill="#0F0F0F" d="M441.039,349.145C429.014,355.733,427.884,348.488,441.039,349.145  L441.039,349.145z"/>
<path fill="none" stroke="#0F0F0F" stroke-width="2" stroke-linecap="square" stroke-miterlimit="10" d="M448.539,349.145  c-7.973-4.23-17.037-4.39-24,0"/>
<path fill="none" stroke="#0F0F0F" stroke-width="2" stroke-linecap="square" stroke-miterlimit="10" d="M420.039,371.645  c-6.415,6.83-13.788,7.42-21.002,1.5"/>
<path fill-rule="evenodd" clip-rule="evenodd" fill="#0F0F0F" d="M372.787,355.145C384.652,361.481,385.793,353.351,372.787,355.145  L372.787,355.145z"/>
<path fill="none" stroke="#0F0F0F" stroke-width="2" stroke-linecap="square" stroke-miterlimit="10" d="M365.287,356.645  c6.694-5.53,15.23-7.246,23.25-4.5"/>
<path fill="none" stroke="#010101" stroke-width="2" stroke-linecap="square" stroke-miterlimit="10" d="M384.037,403.895  c15.648,5.675,33.641,10.635,46.502-3"/>
<path fill-rule="evenodd" clip-rule="evenodd" fill="#8D8B8B" stroke="#000000" stroke-width="2" stroke-linecap="square" stroke-miterlimit="10" d="  M380.287,428.645c6.484,27.969,28.994,65.908,47.252,20.25C442.064,412.57,403.009,409.917,380.287,428.645z"/>
<path fill="none" stroke="#000000" stroke-width="2" stroke-linecap="square" stroke-miterlimit="10" d="M390.787,422.645  c1.604,16.276,4.595,34.36,15,47.25c9.616-15.021,16.857-30.754,18.002-48.75"/>
<line fill="none" stroke="#000000" stroke-width="2" stroke-linecap="square" stroke-miterlimit="10" x1="407.287" y1="419.645" x2="405.787" y2="469.895"/>
<path fill-rule="evenodd" clip-rule="evenodd" fill="#8D8B8B" stroke="#000000" stroke-width="2" stroke-linecap="square" stroke-miterlimit="10" d="  M393.787,392.645c-6.03,1.214-7.884,8.105-16.5,0c10.441,12.215,44.517,12.642,54.002,1.5  C417.422,393.37,406.392,383.062,393.787,392.645z"/>
</svg>