<svg xmlns="http://www.w3.org/2000/svg" xmlns:xlink="http://www.w3.org/1999/xlink" version="1.1" id="Layer_1" x="0px" y="0px" enable-background="new 0 0 822.05 841.89" xml:space="preserve" viewBox="299.71 329.83 219.04 182.97">
<path fill-rule="evenodd" clip-rule="evenodd" fill="#D11E27" stroke="#000000" stroke-width="1.25" stroke-linecap="square" stroke-miterlimit="10" d="  M302.875,441.765c0,20.16,0,40.32,0,60.48c0,14.519,35.504,7.02,48,7.02C327.43,492.805,310.266,469.582,302.875,441.765z"/>
<path fill-rule="evenodd" clip-rule="evenodd" fill="#D11E27" stroke="#000000" stroke-width="1.25" stroke-linecap="square" stroke-miterlimit="10" d="  M518.125,396.015c0-18.568,0-37.137,0-55.705c0-15.561-25.931-8.045-39-8.045C498.326,349.248,513.37,370.429,518.125,396.015z"/>
<path fill-rule="evenodd" clip-rule="evenodd" fill="#D11E27" stroke="#000000" stroke-width="1.25" stroke-linecap="square" stroke-miterlimit="10" d="  M341.125,332.265c-5.869,0-38.25-2.391-38.25,2.083c0,19.555,0,39.111,0,58.667C310.166,368.763,322.102,349.062,341.125,332.265z"/>
<path fill-rule="evenodd" clip-rule="evenodd" fill="#D11E27" stroke="#000000" stroke-width="1.25" stroke-linecap="square" stroke-miterlimit="10" d="  M518.125,438.765c-7.335,29.567-23.432,53.391-48.75,70.5c6.724,0,48.75,2.224,48.75-1.974  C518.125,484.449,518.125,461.607,518.125,438.765z"/>
<path fill-rule="evenodd" clip-rule="evenodd" fill="#FFA300" stroke="#000000" stroke-width="1.25" stroke-linecap="square" stroke-miterlimit="10" d="  M518.125,438.765c0-54.844-8.199-106.5-71.021-106.5c-67.283,0-118.517-16.389-142.729,56.25  c-14.887,44.662,12.355,120.75,65.016,120.75c32.593,0,80.941,9.849,108.984-6.75C499.883,489.785,512.398,461.848,518.125,438.765z  "/>
<path fill-rule="evenodd" clip-rule="evenodd" fill="#F6E505" stroke="#000000" stroke-width="1.25" stroke-linecap="square" stroke-miterlimit="10" d="  M484.375,417.015c-3.119,94.322-147.758,95.035-147.75,0C336.633,322.349,480.393,323.204,484.375,417.015z"/>
<path fill-rule="evenodd" clip-rule="evenodd" fill="#F6E505" stroke="#000000" stroke-width="1.25" stroke-linecap="square" stroke-miterlimit="10" d="  M443.125,417.015c-0.214,42.66-66.208,42.549-66,0C377.33,375.058,442.752,374.899,443.125,417.015z"/>
<path fill-rule="evenodd" clip-rule="evenodd" fill="#F2DCC4" stroke="#000000" stroke-width="1.25" stroke-linecap="square" stroke-miterlimit="10" d="  M470.125,390.015C454.261,398.534,450.615,383.7,470.125,390.015L470.125,390.015z"/>
<path fill-rule="evenodd" clip-rule="evenodd" fill="#F2DCC4" stroke="#000000" stroke-width="1.25" stroke-linecap="square" stroke-miterlimit="10" d="  M344.875,386.265C364.299,396.595,365.29,376.393,344.875,386.265L344.875,386.265z"/>
<path fill-rule="evenodd" clip-rule="evenodd" fill="#FFFFFA" stroke="#000000" stroke-width="1.25" stroke-linecap="square" stroke-miterlimit="10" d="  M356.875,379.515c31.806-1.161,69.62,1.617,103.5,3c-10.787,28.002-13.245,75.75-43.188,75.75c-31.09,0-29.116,1.115-40.674-27.777  C369.752,413.583,363.062,396.64,356.875,379.515z"/>
<path fill-rule="evenodd" clip-rule="evenodd" fill="#F2DCC4" stroke="#000000" stroke-width="1.25" stroke-linecap="square" stroke-miterlimit="10" d="  M420.625,366.015c-1.255,18.733-19.068,20.908-22.875,1.875C393.938,348.828,418.597,345.03,420.625,366.015z"/>
<path fill="none" stroke="#000000" stroke-width="1.25" stroke-linecap="square" stroke-miterlimit="10" d="M388.375,402.015  c5.875,17.46,5.653,36.108,1.5,54"/>
<path fill="none" stroke="#000000" stroke-width="1.25" stroke-linecap="square" stroke-miterlimit="10" d="M434.875,400.515  c-6.131,18.169-11.103,40.82,0,57.75"/>
<path fill-rule="evenodd" clip-rule="evenodd" fill="#90BBE1" stroke="#000000" stroke-linecap="square" stroke-miterlimit="10" d="  M410.125,442.515c-42.27,2.089-96.365,19.927-105.75,67.5c70.5,0,141,0,211.5,0C503.502,462.618,454.43,444.705,410.125,442.515z"/>
<path fill-rule="evenodd" clip-rule="evenodd" fill="#BFDC7D" stroke="#000000" stroke-linecap="square" stroke-miterlimit="10" d="  M434.125,502.515c17.36-1.161,63.566,25.073,58.5-9.75c1.489,0.771,4.105,6.108,5.25,7.5c1.442-1.847,1.521-5.811,5.25-6.75  c0.201,5.613,2.558,10.322,3,15.75c19.87-16.717-22.898-46.795-37.5-54c-29.699-14.656-66.896-15.784-98.25-6.75  c3.76,8.711,1.321,0.587,0,9c2.201,0.475,5.327,0.702,7.5,1.5c-7.2,6.436-13.726,16.696-12.75,27.75  c9.675-1.843,19.695-1.319,29.25,0.75c-20.682-27.141,20.965-1.628,21.75,22.5C420.83,508.074,429.536,505.997,434.125,502.515z"/>
<path fill-rule="evenodd" clip-rule="evenodd" fill="#BFDC7D" stroke="#000000" stroke-linecap="square" stroke-miterlimit="10" d="  M341.125,510.015c6.463-12.739,21.071-10.011,30.75-18c-26.74-2.174,5.499-28.046-14.25-31.5c0.834-2.542,2.78-6.379,3-9  c-31.461,13.514-43.35,27.258-46.5,58.5C323.125,510.015,332.125,510.015,341.125,510.015z"/>
</svg>