<svg xmlns="http://www.w3.org/2000/svg" xmlns:xlink="http://www.w3.org/1999/xlink" version="1.1" id="Layer_1" x="0px" y="0px" enable-background="new 0 0 822.05 841.89" xml:space="preserve" viewBox="210.97 294.62 392.97 257.6">
<path fill-rule="evenodd" clip-rule="evenodd" fill="#90A7D6" stroke="#000000" stroke-width="2" stroke-linecap="square" stroke-miterlimit="10" d="  M211.972,512.14c36.206-9.49,52.86-61.12,93.375-74.625c38.747-12.916,60.732,19.875,94.125,19.875  c39.491,0,36.631-56.573,60.002-79.5c23.256-22.814,54.688-26.615,85.125-17.25c11.557,3.556,65.112-1.734,43.875,25.875  c-12.737,16.558-13.691,39.247-28.5,55.875c-21.491,24.132-55.047,34.662-86.625,27.375c-31.956-7.375-55.977-9.296-75.377,19.125  c-17.866,26.173-27.192,56.938-64.875,61.125c-19.844,2.205-37.74,1.535-57.375-3.375  C249.361,540.048,214.603,542.394,211.972,512.14z"/>
<path fill-rule="evenodd" clip-rule="evenodd" fill="#E1F3FC" stroke="#000000" stroke-width="2" stroke-linecap="square" stroke-miterlimit="10" d="  M282.472,473.14c-38.594,57.471,42.907,81.785,78.375,41.25C406.751,461.928,315.747,435.053,282.472,473.14z"/>
<path fill-rule="evenodd" clip-rule="evenodd" fill="#E1F3FC" stroke="#000000" stroke-width="2" stroke-linecap="square" stroke-miterlimit="10" d="  M488.724,379.39c64.152-29.19,97.503,34.374,37.5,69.375C466.757,483.455,424.148,405.266,488.724,379.39z"/>
<line fill="none" stroke="#000000" stroke-width="2" stroke-linecap="square" stroke-miterlimit="10" x1="229.972" y1="503.14" x2="240.472" y2="534.64"/>
<line fill="none" stroke="#000000" stroke-width="2" stroke-linecap="square" stroke-miterlimit="10" x1="562.974" y1="365.14" x2="584.724" y2="391.39"/>
<path fill-rule="evenodd" clip-rule="evenodd" fill="#90A7D6" stroke="#000000" stroke-width="2" stroke-linecap="square" stroke-miterlimit="10" d="  M247.972,473.89c-1.451-26.115-7.804-78.297,18.75-96c38.381-25.587,82.583-45.394,125.602-61.711  c81.522-30.922,130.94-30.578,193.9,26.086c30.399,27.359,12.815,55.277-1.594,21.656c-11.108-25.919-19.661-22.43-45.328-20.695  c-25.843,1.746-51.778,3.078-77.578,5.414c-38.993,3.531-76.312,7.177-111.002,27c-22.292,12.738-43.145,25.924-60.75,45  C274.567,437.333,265.688,459.582,247.972,473.89z"/>
<path fill-rule="evenodd" clip-rule="evenodd" fill="#FFFFFF" stroke="#000000" stroke-width="2" stroke-linecap="square" stroke-miterlimit="10" d="  M259.972,433.39c-7.981-37.943,39.954-60.003,69-69C305.787,387.009,281.105,408.799,259.972,433.39z"/>
<path fill-rule="evenodd" clip-rule="evenodd" fill="#FFFFFF" stroke="#000000" stroke-width="2" stroke-linecap="square" stroke-miterlimit="10" d="  M388.222,338.89c24.949-11.261,129.178-64.596,138.002-10.5C480.223,331.89,434.223,335.39,388.222,338.89z"/>
</svg>