<svg xmlns="http://www.w3.org/2000/svg" xmlns:xlink="http://www.w3.org/1999/xlink" version="1.1" id="Layer_1" x="0px" y="0px" enable-background="new 0 0 822.05 841.89" xml:space="preserve" viewBox="308.25 259.16 202.11 326.22">
<path fill-rule="evenodd" clip-rule="evenodd" fill="#BCBEC0" stroke="#000000" stroke-width="2" stroke-linecap="square" stroke-miterlimit="10" d="  M448.75,518.14c11.029-1.462,13.889,6.865,8.25,18.75c38.502-19.431,79.068,13.387,29.25,24  C431.026,572.655,460.429,537.147,448.75,518.14z"/>
<path fill="none" stroke="#000000" stroke-width="2" stroke-linecap="square" stroke-miterlimit="10" d="M451,542.89  c14.37-1.693,55.771-10.318,53.25,11.25"/>
<line fill="none" stroke="#000000" stroke-width="2" stroke-linecap="square" stroke-miterlimit="10" x1="508.75" y1="533.14" x2="499.75" y2="542.14"/>
<path fill-rule="evenodd" clip-rule="evenodd" fill="#BCBEC0" stroke="#000000" stroke-width="2" stroke-linecap="square" stroke-miterlimit="10" d="  M452.5,510.64c-1.341,5.814-2.362,12.754-7.881,2.373c-12.079-22.724-24.157-45.447-36.236-68.17  c-18.175-34.191-36.35-68.382-54.524-102.574c-6.09-11.456-28.572-39.496-28.109-52.879c0.232-6.71,2.92-10.93,7.881-1.63  c12.079,22.648,24.158,45.295,36.236,67.943C397.412,407.349,424.956,458.995,452.5,510.64z"/>
<path fill-rule="evenodd" clip-rule="evenodd" fill="#6D6F71" stroke="#000000" stroke-width="2" stroke-linecap="square" stroke-miterlimit="10" d="  M309.25,267.64c18.193-31.451,49.879,45.869,32.25,55.5C330.75,304.64,320,286.14,309.25,267.64z"/>
<path fill-rule="evenodd" clip-rule="evenodd" fill="#FFFFFF" stroke="#000000" stroke-width="2" stroke-linecap="square" stroke-miterlimit="10" d="  M440.5,560.89c2.731,17.38-21.048,26.074-26.25,8.25C408.956,551,432.632,545.793,440.5,560.89z"/>
<path fill-rule="evenodd" clip-rule="evenodd" fill="#007647" stroke="#000000" stroke-width="2" stroke-linecap="square" stroke-miterlimit="10" d="  M405.25,575.89c-8.407,6.363-85.277,15.042-85.5,0.75C319.519,561.795,396.532,569.291,405.25,575.89z"/>
</svg>