<svg xmlns="http://www.w3.org/2000/svg" xmlns:xlink="http://www.w3.org/1999/xlink" version="1.1" id="Layer_1" x="0px" y="0px" enable-background="new 0 0 822.05 841.89" xml:space="preserve" viewBox="308.81 344.12 202.98 158.52">
<path fill-rule="evenodd" clip-rule="evenodd" fill="#EED5B6" stroke="#000000" stroke-width="1.25" stroke-linecap="square" stroke-miterlimit="10" d="  M424.188,440.519c-9.356-2.829-19.008-18.856-26.37-18.672c-26.293,0.657-26.423,10.077-48.63,16.422  c-18.119,5.177-30.784,36.75-3.609,36.75c21.166,0,42.332,0,63.498,0C421.568,475.019,421.406,451.182,424.188,440.519z"/>
<path fill-rule="evenodd" clip-rule="evenodd" fill="#EED5B6" stroke="#000000" stroke-width="1.25" stroke-linecap="square" stroke-miterlimit="10" d="  M351.438,403.017C347.851,437.179,327.461,379.066,351.438,403.017L351.438,403.017z"/>
<path fill-rule="evenodd" clip-rule="evenodd" fill="#EED5B6" stroke="#000000" stroke-width="1.25" stroke-linecap="square" stroke-miterlimit="10" d="  M428.688,405.267C415.707,438.318,415.726,372.454,428.688,405.267L428.688,405.267z"/>
<path fill-rule="evenodd" clip-rule="evenodd" fill="#EED5B6" stroke="#000000" stroke-width="1.25" stroke-linecap="square" stroke-miterlimit="10" d="  M344.688,383.517c-2.787,40.413,44.337,87.271,71.25,40.502C456.25,353.967,350.837,308.232,344.688,383.517z"/>
<path fill-rule="evenodd" clip-rule="evenodd" d="M380.688,399.267C373.856,400.577,374.231,400.505,380.688,399.267  L380.688,399.267z"/>
<path fill-rule="evenodd" clip-rule="evenodd" d="M402.438,400.767c-2.389-0.111-1.508,5.435-6,1.5  C398.015,394.281,399.755,400.642,402.438,400.767z"/>
<path fill="none" stroke="#000000" stroke-linecap="square" stroke-miterlimit="10" d="M383.688,412.017  c2.242,3.052,5.187,2.865,8.25,0"/>
<path fill="none" stroke="#000000" stroke-linecap="square" stroke-miterlimit="10" d="M397.188,431.519  c-7.427-1.238-11.096-5.491-18.75-0.75C386.349,426.702,389.411,430.606,397.188,431.519z"/>
<path fill-rule="evenodd" clip-rule="evenodd" fill="#EED5B6" stroke="#000000" stroke-width="0.75" stroke-linecap="square" stroke-miterlimit="10" d="  M401.688,406.767c0.657,6.7,8.025,8.654-1.5,13.5C398.949,415.292,401.509,411.889,401.688,406.767z"/>
<path fill="none" stroke="#000000" stroke-width="0.75" stroke-linecap="square" stroke-miterlimit="10" d="M370.188,400.767  c4.228-4.225,9.253-4.766,14.25-1.5"/>
<path fill="none" stroke="#000000" stroke-width="0.75" stroke-linecap="square" stroke-miterlimit="10" d="M406.938,399.267  c-5.132-3.406-10.151-3.019-14.25,1.5"/>
<path fill-rule="evenodd" clip-rule="evenodd" fill="#EED5B6" stroke="#000000" stroke-linecap="square" stroke-miterlimit="10" d="  M482.688,357.267c-1.439,7.055-3.503,14.014-5.25,21c7.889-26.25-9.315-33.991-9.75,3c0.015-35.878-12.41-31.579-7.5,3  c-6.244-38.483-16.389-18.927-4.5,9.75c-30.026-24.67-1.875,18.087,10.5,27.376C494.382,442.557,495.7,361.192,482.688,357.267z"/>
<path fill="none" stroke="#000000" stroke-linecap="square" stroke-miterlimit="10" d="M455.688,394.017  c5.629-5.268,12.38-5.808,18.75-1.5"/>
<path fill-rule="evenodd" clip-rule="evenodd" fill="#137827" stroke="#000000" stroke-width="1.25" stroke-linecap="square" stroke-miterlimit="10" d="  M510.438,469.019c-6.811-21.317-13.588-42.634-21-63.752c-6.901,8.738-17.892,11.458-29.25,12c2.25,10.751,4.5,21.501,6.75,32.252  c-15.257-4.416-30.802-10.134-46.5-12.75c-7.062-1.177-7.332,8.865-13.125,13.5c-10.049,8.039-25.777,9.049-37.125,3.375  c-16.193-8.097-20.424-30.694-44.25-13.875c-18.286,12.908-14.468,41.86-16.5,62.25c43.5,0,87,0,130.5,0c-2.193-7.606,0.811-17,0-24  C452.916,483.692,518.8,506.782,510.438,469.019z"/>
<path fill="none" stroke="#000000" stroke-width="0.75" stroke-linecap="square" stroke-miterlimit="10" d="M441.438,348.267  c-5.443,8.868-5.897,18.854-1.5,28.5"/>
<path fill="none" stroke="#000000" stroke-width="0.75" stroke-linecap="square" stroke-miterlimit="10" d="M496.938,352.017  c1.033,5.211,1.033,10.539,0,15.75"/>
<path fill-rule="evenodd" clip-rule="evenodd" fill="#FFFFFF" d="M430.188,349.017c-3.224,8.68-5.57,14.172,0,22.5  C430.188,364.149,431.008,356.331,430.188,349.017z"/>
<path fill="none" stroke="#000000" stroke-width="0.75" stroke-linecap="square" stroke-miterlimit="10" d="M430.188,349.017  c-4.682,7.427-4.78,15.353,0,22.5"/>
<path fill="none" stroke="#000000" stroke-width="0.75" stroke-linecap="square" stroke-miterlimit="10" d="M503.688,349.017  c3.745,7.121,4.227,15.366,1.5,23.25"/>
<path fill-rule="evenodd" clip-rule="evenodd" fill="#137827" d="M338.688,473.519l-1.5,27.75L338.688,473.519z"/>
<line fill="none" stroke="#000000" stroke-width="1.25" stroke-linecap="square" stroke-miterlimit="10" x1="338.688" y1="473.519" x2="337.188" y2="501.269"/>
<path fill-rule="evenodd" clip-rule="evenodd" fill="#137827" d="M338.688,473.519l-1.5,27.75L338.688,473.519z"/>
<line fill="none" stroke="#000000" stroke-width="1.25" stroke-linecap="square" stroke-miterlimit="10" x1="338.688" y1="473.519" x2="337.188" y2="501.269"/>
</svg>