<svg xmlns="http://www.w3.org/2000/svg" xmlns:xlink="http://www.w3.org/1999/xlink" version="1.1" id="Layer_1" x="0px" y="0px" enable-background="new 0 0 822.05 841.89" xml:space="preserve" viewBox="337.97 339.53 145.15 162.49">
<path fill-rule="evenodd" clip-rule="evenodd" fill="#EDCBA6" stroke="#000000" stroke-width="1.25" stroke-linecap="square" stroke-miterlimit="10" d="  M377.5,428.64C379.535,463.155,353.759,403.932,377.5,428.64L377.5,428.64z"/>
<path fill-rule="evenodd" clip-rule="evenodd" fill="#EDCBA6" stroke="#000000" stroke-width="1.25" stroke-linecap="square" stroke-miterlimit="10" d="  M452.5,411.39C441.238,446.066,441.059,378.452,452.5,411.39L452.5,411.39z"/>
<path fill-rule="evenodd" clip-rule="evenodd" fill="#EDCBA6" stroke="#000000" stroke-width="1.25" stroke-linecap="square" stroke-miterlimit="10" d="  M448,467.64c-9.143-2.565-13.898-14.423-21-16.5c-17.035-4.983-28.659,3.817-41.25,12.75c-9.057,6.425-38.501,34.5-11.184,34.5  c19.206,0,38.412,0,57.618,0C446.023,498.39,444.777,479.652,448,467.64z"/>
<path fill-rule="evenodd" clip-rule="evenodd" fill="#EDCBA6" stroke="#000000" stroke-width="1.25" stroke-linecap="square" stroke-miterlimit="10" d="  M436.75,378.39c-31.683-12.555-59.855-7.738-64.5,29.25c-2.86,22.773,10.229,49.039,37.5,53.25  C459.995,468.648,445.937,406.323,436.75,378.39z"/>
<path fill-rule="evenodd" clip-rule="evenodd" fill="#F7F619" stroke="#000000" stroke-width="1.25" stroke-linecap="square" stroke-miterlimit="10" d="  M466,466.89c-25-13.748-32.665,24.111-62.25,14.25c-14.858-4.953-15.83-18.746-29.25-18.75c-22.222-0.007-26.69,21.423-30.75,39  c46.25,0,92.5,0,138.75,0C478.738,488.879,474.734,476.639,466,466.89z"/>
<path fill-rule="evenodd" clip-rule="evenodd" fill="#FBF11E" stroke="#000000" stroke-linecap="square" stroke-miterlimit="10" d="  M364.75,400.89c0.666,11.316,3.935,22.514,8.25,33c1.497-9.791,3.912-18.605,8.25-27.75c0.375,3.415,0.938,7.043,1.5,10.5  c1.728-14.375,8.265-20.975,16.5-6.75c-0.564-4.156,0.345-8.623-0.75-12.75c2.081,4.565,6.398,9.733,8.25,13.5  c-1.07-6.598-0.161-13.554-1.5-20.25c5.652,7.308,9.709,15.696,12,24.75c-0.357-6.637,1.171-13.491,0.75-20.25  c2.561,5.729,7.178,10.817,9.75,16.5c-0.982-6.657-0.2-13.496-1.5-20.25c1.804,5.203,6.756,13.325,8.25,18.75  c-0.151-7.198,1.611-14.502,1.5-21.75c2.495,7.524,6.425,13.819,8.25,21.75C472.723,358.78,361.741,328.433,364.75,400.89z"/>
<path fill-rule="evenodd" clip-rule="evenodd" fill="#FBCC30" stroke="#000000" stroke-linecap="square" stroke-miterlimit="10" d="  M390.25,345.39c-6.193,1.337-53.084,9.316-51.75,21.75c1.126,10.49,53.085-0.073,56.25-0.75c6-1.284,52.898-9.887,51.75-21.75  C445.488,334.185,393.522,344.663,390.25,345.39z M393.25,361.89c-14.132,2.944-29.502,6.583-43.5,2.25  c17.978-14.315,62.718-24.454,84-17.25C422.797,355.612,407.147,359.036,393.25,361.89z"/>
<path fill-rule="evenodd" clip-rule="evenodd" fill="#5A0A07" stroke="#000000" stroke-linecap="square" stroke-miterlimit="10" d="  M439,431.64c-10.493,16.415-17.941,26.692-35.25,12C416.35,442.441,428.13,438.166,439,431.64z"/>
<path fill-rule="evenodd" clip-rule="evenodd" d="M407.5,424.89c-1.815,0.451-0.968,5.426-5.25,1.5  C403.58,420.768,405.093,425.488,407.5,424.89z"/>
<path fill-rule="evenodd" clip-rule="evenodd" d="M428.5,419.64c-1.804,0.765-0.327,6.573-4.5,1.5  C425.077,416.047,427.468,420.078,428.5,419.64z"/>
<path fill="none" stroke="#000000" stroke-linecap="square" stroke-miterlimit="10" d="M415,430.89c2.812,2.257,5.436,1.541,7.5-1.5  "/>
<path fill="none" stroke="#000000" stroke-width="0.75" stroke-linecap="square" stroke-miterlimit="10" d="M398.5,427.89  c2.851-4.812,7.215-6.292,12-3.75"/>
<path fill="none" stroke="#000000" stroke-width="0.75" stroke-linecap="square" stroke-miterlimit="10" d="M433,418.89  c-5.118-1.823-9.516-0.611-12.75,3.75"/>
</svg>