<svg xmlns="http://www.w3.org/2000/svg" xmlns:xlink="http://www.w3.org/1999/xlink" version="1.1" id="Layer_1" x="0px" y="0px" enable-background="new 0 0 822.05 841.89" xml:space="preserve" viewBox="233.38 251.52 352.22 343.07">
<path fill-rule="evenodd" clip-rule="evenodd" fill="#6D6F71" stroke="#000000" stroke-width="2" stroke-linecap="square" stroke-miterlimit="10" d="  M530.635,263.99C529.618,290.262,652.575,228.125,530.635,263.99L530.635,263.99z"/>
<path fill-rule="evenodd" clip-rule="evenodd" fill="#BCBEC0" stroke="#000000" stroke-width="2" stroke-linecap="square" stroke-miterlimit="10" d="  M527.635,265.49c-25.166,9.673-42.142,29.276-59.007,49.354c-41.957,49.948-83.913,99.896-125.87,149.845  c-13.688,16.295-33.923,48.17-48.375,57.304c-24.388,15.413-40.934,16.046-60,43.5c18.789,3.873,37.188-29.842,60-34.5  c-3.875,14.485-13.142,25.622-24.375,35.25c-3.559,3.05-36.263,33.437-16.5,26.25c14.851-5.4,29.841-16.538,39.375-29.25  c4.688-6.251,8.349-12.997,11.25-20.25c6.417-16.042,15.637-5.4,23.25-15.75c12.179-16.556,12.502-36.708,27.146-54.641  c25.195-30.855,50.39-61.71,75.585-92.564c20.822-25.5,61.3-96.753,92.271-92.797c-2.25-2-4.5-4-6.75-6  C530.025,279.968,526.511,275.142,527.635,265.49z"/>
<path fill-rule="evenodd" clip-rule="evenodd" fill="#6D6F71" stroke="#000000" stroke-width="2" stroke-linecap="square" stroke-miterlimit="10" d="  M519.385,294.74C529.24,275.719,591.669,331.763,519.385,294.74L519.385,294.74z"/>
<path fill-rule="evenodd" clip-rule="evenodd" fill="#FFFFFF" stroke="#000000" stroke-width="2" stroke-linecap="square" stroke-miterlimit="10" d="  M311.633,521.242c6-7.5,12-15,18-22.5C329.508,511.487,324.88,522.224,311.633,521.242z"/>
<path fill="none" stroke="#000000" stroke-width="2" stroke-linecap="square" stroke-miterlimit="10" d="M249.383,582.742  c16.214,3.481,60.823-43.506,47.25-52.5"/>
</svg>