<svg xmlns="http://www.w3.org/2000/svg" xmlns:xlink="http://www.w3.org/1999/xlink" version="1.1" id="Layer_1" x="0px" y="0px" enable-background="new 0 0 822.05 841.89" xml:space="preserve" viewBox="277.81 253.02 264.5 338">
<path fill="none" stroke="#000000" stroke-width="2" stroke-linecap="square" stroke-miterlimit="10" d="M282.557,586.267  c62.276-70.179,149.967-158.687,244.504-180.75"/>
<path fill-rule="evenodd" clip-rule="evenodd" fill="#EAB649" stroke="#000000" stroke-width="2" stroke-linecap="square" stroke-miterlimit="10" d="  M380.809,489.517c-6.743-11.118-3.601-23.958,6.75-31.5C390.963,469.261,388.971,481.075,380.809,489.517z"/>
<path fill-rule="evenodd" clip-rule="evenodd" fill="#EAB649" stroke="#000000" stroke-width="2" stroke-linecap="square" stroke-miterlimit="10" d="  M392.059,481.267c-5.691-11.48-2.83-24.406,7.5-32.25C402.383,460.497,400.841,472.886,392.059,481.267z"/>
<path fill-rule="evenodd" clip-rule="evenodd" fill="#EAB649" stroke="#000000" stroke-width="2" stroke-linecap="square" stroke-miterlimit="10" d="  M404.059,473.017c-6.867-11.327-3.567-24.582,7.5-31.5C414.122,452.907,412.549,464.898,404.059,473.017z"/>
<path fill-rule="evenodd" clip-rule="evenodd" fill="#EAB649" stroke="#000000" stroke-width="2" stroke-linecap="square" stroke-miterlimit="10" d="  M415.309,463.267c-5.691-11.481-2.829-24.406,7.502-32.25C425.985,442.656,423.902,454.675,415.309,463.267z"/>
<path fill-rule="evenodd" clip-rule="evenodd" fill="#EAB649" stroke="#000000" stroke-width="2" stroke-linecap="square" stroke-miterlimit="10" d="  M424.311,457.267c-6.823-11.482-3.694-24.89,7.5-32.25C434.49,436.417,432.655,448.752,424.311,457.267z"/>
<path fill-rule="evenodd" clip-rule="evenodd" fill="#EAB649" stroke="#000000" stroke-width="2" stroke-linecap="square" stroke-miterlimit="10" d="  M436.311,450.517c-6.703-10.918-3.963-24.097,6.75-31.5C446.327,430.195,444.115,441.863,436.311,450.517z"/>
<path fill-rule="evenodd" clip-rule="evenodd" fill="#EAB649" stroke="#000000" stroke-width="2" stroke-linecap="square" stroke-miterlimit="10" d="  M449.061,443.017c-6.156-11.478-2.829-24.214,7.5-32.25C459.385,422.247,457.844,434.636,449.061,443.017z"/>
<path fill-rule="evenodd" clip-rule="evenodd" fill="#EAB649" stroke="#000000" stroke-width="2" stroke-linecap="square" stroke-miterlimit="10" d="  M461.061,437.767c-6.751-11.36-3.617-24.262,6.75-32.25C471.384,416.922,469.52,429.137,461.061,437.767z"/>
<path fill-rule="evenodd" clip-rule="evenodd" fill="#EAB649" stroke="#000000" stroke-width="2" stroke-linecap="square" stroke-miterlimit="10" d="  M473.061,428.767c-5.663-11.36-3.075-24.192,7.5-31.5C483.829,408.68,481.632,420.442,473.061,428.767z"/>
<path fill-rule="evenodd" clip-rule="evenodd" fill="#EAB649" stroke="#000000" stroke-width="2" stroke-linecap="square" stroke-miterlimit="10" d="  M484.311,422.767c-5.636-10.868-3.207-22.6,6.75-30C493.874,403.6,491.742,414.505,484.311,422.767z"/>
<path fill-rule="evenodd" clip-rule="evenodd" fill="#EAB649" stroke="#000000" stroke-width="2" stroke-linecap="square" stroke-miterlimit="10" d="  M496.311,414.517c-6.562-10.331-3.707-22,6-29.25C505.469,395.872,503.708,406.595,496.311,414.517z"/>
<path fill-rule="evenodd" clip-rule="evenodd" fill="#EAB649" stroke="#000000" stroke-width="2" stroke-linecap="square" stroke-miterlimit="10" d="  M507.561,410.767c-5.333-9.711-2.522-19.771,6-27C516.812,393.858,514.808,403.465,507.561,410.767z"/>
<path fill-rule="evenodd" clip-rule="evenodd" fill="#EAB649" stroke="#000000" stroke-width="2" stroke-linecap="square" stroke-miterlimit="10" d="  M516.561,405.517c-3.682-10.419,0.158-19.956,9.75-25.5C527.785,390.267,524.426,399.445,516.561,405.517z"/>
<path fill-rule="evenodd" clip-rule="evenodd" fill="#EAB649" stroke="#000000" stroke-width="2" stroke-linecap="square" stroke-miterlimit="10" d="  M383.809,486.517c8.138,10.339,21.308,12.635,32.252,5.25C406.726,484.612,394.678,481.229,383.809,486.517z"/>
<path fill-rule="evenodd" clip-rule="evenodd" fill="#EAB649" stroke="#000000" stroke-width="2" stroke-linecap="square" stroke-miterlimit="10" d="  M395.809,479.017c8.417,9.787,21.378,12.871,32.252,5.25C418.788,476.749,406.752,473.888,395.809,479.017z"/>
<path fill-rule="evenodd" clip-rule="evenodd" fill="#EAB649" stroke="#000000" stroke-width="2" stroke-linecap="square" stroke-miterlimit="10" d="  M407.809,470.767c7.711,10.787,20.873,12.488,32.252,6C430.881,469.39,418.963,466.713,407.809,470.767z"/>
<path fill-rule="evenodd" clip-rule="evenodd" fill="#EAB649" stroke="#000000" stroke-width="2" stroke-linecap="square" stroke-miterlimit="10" d="  M417.561,464.017c8.075,9.991,20.979,12.331,32.25,6C440.556,462.437,428.775,459.764,417.561,464.017z"/>
<path fill-rule="evenodd" clip-rule="evenodd" fill="#EAB649" stroke="#000000" stroke-width="2" stroke-linecap="square" stroke-miterlimit="10" d="  M428.811,456.517c8.652,9.789,21.935,12.09,33,5.25C452.331,454.507,439.891,451.325,428.811,456.517z"/>
<path fill-rule="evenodd" clip-rule="evenodd" fill="#EAB649" stroke="#000000" stroke-width="2" stroke-linecap="square" stroke-miterlimit="10" d="  M440.811,446.767c7.757,10.51,21.029,12.595,32.25,6C463.917,445.359,451.965,442.758,440.811,446.767z"/>
<path fill-rule="evenodd" clip-rule="evenodd" fill="#EAB649" stroke="#000000" stroke-width="2" stroke-linecap="square" stroke-miterlimit="10" d="  M452.061,440.017c7.503,10.375,20.949,12.217,32.25,6C474.837,438.752,463.13,435.806,452.061,440.017z"/>
<path fill-rule="evenodd" clip-rule="evenodd" fill="#EAB649" stroke="#000000" stroke-width="2" stroke-linecap="square" stroke-miterlimit="10" d="  M462.561,432.517c8.463,9.574,21.376,12.242,32.25,5.25C485.591,430.208,473.491,427.394,462.561,432.517z"/>
<path fill-rule="evenodd" clip-rule="evenodd" fill="#EAB649" stroke="#000000" stroke-width="2" stroke-linecap="square" stroke-miterlimit="10" d="  M475.311,424.267c8.463,9.574,21.376,12.242,32.25,5.25C498.341,421.958,486.241,419.145,475.311,424.267z"/>
<path fill-rule="evenodd" clip-rule="evenodd" fill="#EAB649" stroke="#000000" stroke-width="2" stroke-linecap="square" stroke-miterlimit="10" d="  M485.811,416.017c6.813,9.91,18.533,11.653,29.25,6C506.789,414.522,496.232,412.241,485.811,416.017z"/>
<path fill-rule="evenodd" clip-rule="evenodd" fill="#EAB649" stroke="#000000" stroke-width="2" stroke-linecap="square" stroke-miterlimit="10" d="  M497.061,408.517c7.827,9.273,19.416,11.304,30,5.25C518.186,407.064,507.258,404.444,497.061,408.517z"/>
<path fill-rule="evenodd" clip-rule="evenodd" fill="#EAB649" stroke="#000000" stroke-width="2" stroke-linecap="square" stroke-miterlimit="10" d="  M505.311,399.517c7.19,8.595,17.398,10.223,27,4.5C524.237,397.51,514.573,395.788,505.311,399.517z"/>
<path fill-rule="evenodd" clip-rule="evenodd" fill="#EAB649" stroke="#000000" stroke-width="2" stroke-linecap="square" stroke-miterlimit="10" d="  M513.561,392.767c8.052,7.49,18.559,7.751,27.75,1.5C532.342,388.776,522.593,388.119,513.561,392.767z"/>
<path fill-rule="evenodd" clip-rule="evenodd" fill="#EAB649" stroke="#000000" stroke-width="2" stroke-linecap="square" stroke-miterlimit="10" d="  M521.061,394.267c11.2-0.451,18.818-7.6,20.25-18.75C531.581,378.273,524.37,384.854,521.061,394.267z"/>
<path fill="none" stroke="#000000" stroke-width="2" stroke-linecap="square" stroke-miterlimit="10" d="M278.807,590.017  c36.402-87.954,92.577-195.767,174.754-249"/>
<path fill-rule="evenodd" clip-rule="evenodd" fill="#EAB649" stroke="#000000" stroke-width="2" stroke-linecap="square" stroke-miterlimit="10" d="  M341.057,467.017c-9.594-8.677-10.797-21.918-3-32.25C344.978,444.409,346.421,456.431,341.057,467.017z"/>
<path fill-rule="evenodd" clip-rule="evenodd" fill="#EAB649" stroke="#000000" stroke-width="2" stroke-linecap="square" stroke-miterlimit="10" d="  M349.307,455.017c-9.334-8.862-10.33-21.693-3-32.25C352.967,432.614,354.924,444.458,349.307,455.017z"/>
<path fill-rule="evenodd" clip-rule="evenodd" fill="#EAB649" stroke="#000000" stroke-width="2" stroke-linecap="square" stroke-miterlimit="10" d="  M358.307,444.517c-9.669-9.034-10.969-22.355-3-33C361.267,421.628,363.282,433.739,358.307,444.517z"/>
<path fill-rule="evenodd" clip-rule="evenodd" fill="#EAB649" stroke="#000000" stroke-width="2" stroke-linecap="square" stroke-miterlimit="10" d="  M366.557,431.017c-9.907-8.438-11.237-22.186-3.75-33C369.667,407.958,371.585,420.099,366.557,431.017z"/>
<path fill-rule="evenodd" clip-rule="evenodd" fill="#EAB649" stroke="#000000" stroke-width="2" stroke-linecap="square" stroke-miterlimit="10" d="  M372.557,422.017c-9.779-8.67-10.905-21.803-3-32.25C375.502,399.766,377.478,411.476,372.557,422.017z"/>
<path fill-rule="evenodd" clip-rule="evenodd" fill="#EAB649" stroke="#000000" stroke-width="2" stroke-linecap="square" stroke-miterlimit="10" d="  M381.559,413.017c-9.672-9.034-10.972-22.356-3-33C385.018,389.966,387.116,402.335,381.559,413.017z"/>
<path fill-rule="evenodd" clip-rule="evenodd" fill="#EAB649" stroke="#000000" stroke-width="2" stroke-linecap="square" stroke-miterlimit="10" d="  M392.059,401.017c-9.81-8.355-11.259-21.682-3.75-32.25C395.36,378.288,397.109,390.326,392.059,401.017z"/>
<path fill-rule="evenodd" clip-rule="evenodd" fill="#EAB649" stroke="#000000" stroke-width="2" stroke-linecap="square" stroke-miterlimit="10" d="  M401.059,392.017c-9.776-8.659-10.581-21.722-3-32.25C404.412,369.479,406.737,381.712,401.059,392.017z"/>
<path fill-rule="evenodd" clip-rule="evenodd" fill="#EAB649" stroke="#000000" stroke-width="2" stroke-linecap="square" stroke-miterlimit="10" d="  M410.059,380.017c-9.657-8.772-10.574-21.706-3-32.25C413.803,357.555,415.73,369.469,410.059,380.017z"/>
<path fill-rule="evenodd" clip-rule="evenodd" fill="#EAB649" stroke="#000000" stroke-width="2" stroke-linecap="square" stroke-miterlimit="10" d="  M419.061,371.017c-9.208-8.079-10.698-19.619-3.752-30C422.128,349.904,423.474,360.766,419.061,371.017z"/>
<path fill-rule="evenodd" clip-rule="evenodd" fill="#EAB649" stroke="#000000" stroke-width="2" stroke-linecap="square" stroke-miterlimit="10" d="  M427.311,359.767c-8.688-8.348-9.981-20.015-3-30C430.58,338.906,432.094,349.854,427.311,359.767z"/>
<path fill-rule="evenodd" clip-rule="evenodd" fill="#EAB649" stroke="#000000" stroke-width="2" stroke-linecap="square" stroke-miterlimit="10" d="  M437.061,352.267c-7.797-8.021-8.884-17.834-2.25-27C440.496,333.744,441.403,343.282,437.061,352.267z"/>
<path fill-rule="evenodd" clip-rule="evenodd" fill="#EAB649" stroke="#000000" stroke-width="2" stroke-linecap="square" stroke-miterlimit="10" d="  M444.561,344.767c-7.165-8.705-6.71-19.206,0.75-27.75C449.572,326.272,449.374,335.937,444.561,344.767z"/>
<path fill-rule="evenodd" clip-rule="evenodd" fill="#EAB649" stroke="#000000" stroke-width="2" stroke-linecap="square" stroke-miterlimit="10" d="  M343.307,463.267c11.014,6.895,23.955,4.66,32.25-5.25C364.333,454.14,352.207,455.167,343.307,463.267z"/>
<path fill-rule="evenodd" clip-rule="evenodd" fill="#EAB649" stroke="#000000" stroke-width="2" stroke-linecap="square" stroke-miterlimit="10" d="  M352.307,452.017c11.291,7.332,24.629,5.35,33.002-5.25C373.879,443.534,361.612,444.578,352.307,452.017z"/>
<path fill-rule="evenodd" clip-rule="evenodd" fill="#EAB649" stroke="#000000" stroke-width="2" stroke-linecap="square" stroke-miterlimit="10" d="  M361.307,440.767c10.645,7.217,23.664,5.183,32.252-4.5C382.462,432.016,370.457,433.109,361.307,440.767z"/>
<path fill-rule="evenodd" clip-rule="evenodd" fill="#EAB649" stroke="#000000" stroke-width="2" stroke-linecap="square" stroke-miterlimit="10" d="  M368.807,431.017c10.295,7.226,23.671,5.23,32.252-4.5C389.962,422.266,377.957,423.36,368.807,431.017z"/>
<path fill-rule="evenodd" clip-rule="evenodd" fill="#EAB649" stroke="#000000" stroke-width="2" stroke-linecap="square" stroke-miterlimit="10" d="  M377.057,419.767c10.61,7.895,23.84,5.55,32.252-4.5C398.308,411.467,386.367,412.538,377.057,419.767z"/>
<path fill-rule="evenodd" clip-rule="evenodd" fill="#EAB649" stroke="#000000" stroke-width="2" stroke-linecap="square" stroke-miterlimit="10" d="  M385.309,407.767c11.047,7.305,24.1,5.212,32.252-5.25C406.253,399.318,394.37,400.183,385.309,407.767z"/>
<path fill-rule="evenodd" clip-rule="evenodd" fill="#EAB649" stroke="#000000" stroke-width="2" stroke-linecap="square" stroke-miterlimit="10" d="  M393.559,398.017c10.913,6.905,23.965,4.65,32.252-5.25C414.587,388.89,402.46,389.917,393.559,398.017z"/>
<path fill-rule="evenodd" clip-rule="evenodd" fill="#EAB649" stroke="#000000" stroke-width="2" stroke-linecap="square" stroke-miterlimit="10" d="  M401.059,386.767c11.059,7.181,24.26,5.361,33.002-4.5C422.846,377.971,410.449,379.259,401.059,386.767z"/>
<path fill-rule="evenodd" clip-rule="evenodd" fill="#EAB649" stroke="#000000" stroke-width="2" stroke-linecap="square" stroke-miterlimit="10" d="  M410.809,374.767c10.68,7.552,23.584,5.127,32.252-4.5C431.952,366.426,419.726,366.877,410.809,374.767z"/>
<path fill-rule="evenodd" clip-rule="evenodd" fill="#EAB649" stroke="#000000" stroke-width="2" stroke-linecap="square" stroke-miterlimit="10" d="  M417.561,364.267c10.037,7.027,21.633,5.221,30-3.75C437.286,356.368,426.52,357.783,417.561,364.267z"/>
<path fill-rule="evenodd" clip-rule="evenodd" fill="#EAB649" stroke="#000000" stroke-width="2" stroke-linecap="square" stroke-miterlimit="10" d="  M426.561,353.767c10.257,6.26,21.783,4.395,30-4.5C445.975,345.071,434.918,346.262,426.561,353.767z"/>
<path fill-rule="evenodd" clip-rule="evenodd" fill="#EAB649" stroke="#000000" stroke-width="2" stroke-linecap="square" stroke-miterlimit="10" d="  M431.061,341.767c9.48,6.442,19.934,4.703,27.75-3.75C449.063,334.852,439.188,336.088,431.061,341.767z"/>
<path fill-rule="evenodd" clip-rule="evenodd" fill="#EAB649" stroke="#000000" stroke-width="2" stroke-linecap="square" stroke-miterlimit="10" d="  M437.061,333.517c10.307,4.619,20.225,2.005,26.25-7.5C453.386,323.631,444.048,326.239,437.061,333.517z"/>
<path fill-rule="evenodd" clip-rule="evenodd" fill="#EAB649" stroke="#000000" stroke-width="2" stroke-linecap="square" stroke-miterlimit="10" d="  M445.311,332.767c10.238-4.544,15.133-13.793,12.75-24.75C449.435,314.029,444.768,322.761,445.311,332.767z"/>
<path fill="none" stroke="#000000" stroke-width="2" stroke-linecap="square" stroke-miterlimit="10" d="M278.807,576.517  c16.316-97.182,27.279-210.689,93-289.5"/>
<path fill-rule="evenodd" clip-rule="evenodd" fill="#EAB649" stroke="#000000" stroke-width="2" stroke-linecap="square" stroke-miterlimit="10" d="  M302.057,440.767c-12.252-5.007-17.154-17.899-12.75-30C298.382,418.242,303.963,429.078,302.057,440.767z"/>
<path fill-rule="evenodd" clip-rule="evenodd" fill="#EAB649" stroke="#000000" stroke-width="2" stroke-linecap="square" stroke-miterlimit="10" d="  M306.557,427.267c-11.781-5.492-17.344-17.853-12.75-30C302.946,404.732,308.566,415.549,306.557,427.267z"/>
<path fill-rule="evenodd" clip-rule="evenodd" fill="#EAB649" stroke="#000000" stroke-width="2" stroke-linecap="square" stroke-miterlimit="10" d="  M311.057,413.767c-11.714-5.534-16.559-17.687-12.75-30C307.618,390.906,313.289,402.023,311.057,413.767z"/>
<path fill-rule="evenodd" clip-rule="evenodd" fill="#EAB649" stroke="#000000" stroke-width="2" stroke-linecap="square" stroke-miterlimit="10" d="  M314.807,398.767c-11.764-5.579-16.753-17.639-12.75-30C311.13,376.071,316.708,387.11,314.807,398.767z"/>
<path fill-rule="evenodd" clip-rule="evenodd" fill="#EAB649" stroke="#000000" stroke-width="2" stroke-linecap="square" stroke-miterlimit="10" d="  M318.557,389.017c-12.351-5.453-17.35-18.211-12.75-30.75C314.331,366.508,320.043,377.104,318.557,389.017z"/>
<path fill-rule="evenodd" clip-rule="evenodd" fill="#EAB649" stroke="#000000" stroke-width="2" stroke-linecap="square" stroke-miterlimit="10" d="  M323.807,377.017c-11.492-5.725-16.551-17.726-12.75-30C320.41,354.133,326.132,365.254,323.807,377.017z"/>
<path fill-rule="evenodd" clip-rule="evenodd" fill="#EAB649" stroke="#000000" stroke-width="2" stroke-linecap="square" stroke-miterlimit="10" d="  M330.557,362.767c-11.781-5.492-17.344-17.853-12.75-30C326.677,340.48,332.226,351.066,330.557,362.767z"/>
<path fill-rule="evenodd" clip-rule="evenodd" fill="#EAB649" stroke="#000000" stroke-width="2" stroke-linecap="square" stroke-miterlimit="10" d="  M336.557,351.517c-11.764-5.579-16.753-17.639-12.75-30C332.88,328.821,338.458,339.86,336.557,351.517z"/>
<path fill-rule="evenodd" clip-rule="evenodd" fill="#EAB649" stroke="#000000" stroke-width="2" stroke-linecap="square" stroke-miterlimit="10" d="  M341.807,337.267c-11.643-5.521-17.063-17.904-12.75-30C338.132,314.742,343.713,325.578,341.807,337.267z"/>
<path fill-rule="evenodd" clip-rule="evenodd" fill="#EAB649" stroke="#000000" stroke-width="2" stroke-linecap="square" stroke-miterlimit="10" d="  M347.057,326.017c-10.964-5.29-15.625-16.056-12-27.75C343.801,305.175,348.616,315.128,347.057,326.017z"/>
<path fill-rule="evenodd" clip-rule="evenodd" fill="#EAB649" stroke="#000000" stroke-width="2" stroke-linecap="square" stroke-miterlimit="10" d="  M351.557,312.517c-10.821-5.256-15.08-16.231-12-27.75C348.53,291.499,353.157,301.514,351.557,312.517z"/>
<path fill-rule="evenodd" clip-rule="evenodd" fill="#EAB649" stroke="#000000" stroke-width="2" stroke-linecap="square" stroke-miterlimit="10" d="  M359.057,302.767c-10.24-4.995-14.183-14.702-10.5-25.5C356.616,283.792,360.405,292.677,359.057,302.767z"/>
<path fill-rule="evenodd" clip-rule="evenodd" fill="#EAB649" stroke="#000000" stroke-width="2" stroke-linecap="square" stroke-miterlimit="10" d="  M363.557,293.017c-9.532-6.074-12.235-16.017-7.5-26.25C363.257,273.993,365.992,283.38,363.557,293.017z"/>
<path fill-rule="evenodd" clip-rule="evenodd" fill="#EAB649" stroke="#000000" stroke-width="2" stroke-linecap="square" stroke-miterlimit="10" d="  M302.807,436.267c12.598,3.971,24.233-2.137,29.25-14.25C320.286,421.622,309.223,426.224,302.807,436.267z"/>
<path fill-rule="evenodd" clip-rule="evenodd" fill="#EAB649" stroke="#000000" stroke-width="2" stroke-linecap="square" stroke-miterlimit="10" d="  M308.057,422.767c12.589,4.421,24.608-2.292,30-14.25C326.281,408.049,314.65,412.811,308.057,422.767z"/>
<path fill-rule="evenodd" clip-rule="evenodd" fill="#EAB649" stroke="#000000" stroke-width="2" stroke-linecap="square" stroke-miterlimit="10" d="  M313.307,410.017c12.363,3.303,24.589-2.099,29.25-14.25C330.636,395.12,319.349,399.568,313.307,410.017z"/>
<path fill-rule="evenodd" clip-rule="evenodd" fill="#EAB649" stroke="#000000" stroke-width="2" stroke-linecap="square" stroke-miterlimit="10" d="  M317.057,398.767c12.635,3.051,24.863-2.5,29.25-15C334.531,383.799,323.216,388.533,317.057,398.767z"/>
<path fill-rule="evenodd" clip-rule="evenodd" fill="#EAB649" stroke="#000000" stroke-width="2" stroke-linecap="square" stroke-miterlimit="10" d="  M321.557,385.267c12.794,4.189,24.482-2.316,30-14.25C339.788,370.622,328.355,375.478,321.557,385.267z"/>
<path fill-rule="evenodd" clip-rule="evenodd" fill="#EAB649" stroke="#000000" stroke-width="2" stroke-linecap="square" stroke-miterlimit="10" d="  M326.057,371.017c12.337,3.637,24.498-2.166,29.25-14.25C343.59,356.576,331.875,360.571,326.057,371.017z"/>
<path fill-rule="evenodd" clip-rule="evenodd" fill="#EAB649" stroke="#000000" stroke-width="2" stroke-linecap="square" stroke-miterlimit="10" d="  M330.557,359.017c12.73,4.073,24.433-2.407,30-14.25C348.781,344.299,337.15,349.061,330.557,359.017z"/>
<path fill-rule="evenodd" clip-rule="evenodd" fill="#EAB649" stroke="#000000" stroke-width="2" stroke-linecap="square" stroke-miterlimit="10" d="  M335.057,346.267c12.337,3.637,24.498-2.166,29.25-14.25C352.435,331.646,341.257,336.122,335.057,346.267z"/>
<path fill-rule="evenodd" clip-rule="evenodd" fill="#EAB649" stroke="#000000" stroke-width="2" stroke-linecap="square" stroke-miterlimit="10" d="  M340.307,332.017c12.653,3.755,24.566-2.291,30-14.25C358.485,317.585,346.94,322.002,340.307,332.017z"/>
<path fill-rule="evenodd" clip-rule="evenodd" fill="#EAB649" stroke="#000000" stroke-width="2" stroke-linecap="square" stroke-miterlimit="10" d="  M344.057,320.017c11.722,3.4,22.389-1.673,27.75-12.75C360.582,306.378,350.333,310.789,344.057,320.017z"/>
<path fill-rule="evenodd" clip-rule="evenodd" fill="#EAB649" stroke="#000000" stroke-width="2" stroke-linecap="square" stroke-miterlimit="10" d="  M349.307,306.517c11.457,3.652,22.165-1.43,27-12.75C365.342,293.358,355.424,297.643,349.307,306.517z"/>
<path fill-rule="evenodd" clip-rule="evenodd" fill="#EAB649" stroke="#000000" stroke-width="2" stroke-linecap="square" stroke-miterlimit="10" d="  M350.057,294.517c10.965,2.97,20.425-1.451,24.75-12C364.83,282.502,356.099,286.693,350.057,294.517z"/>
<path fill-rule="evenodd" clip-rule="evenodd" fill="#EAB649" stroke="#000000" stroke-width="2" stroke-linecap="square" stroke-miterlimit="10" d="  M353.057,284.767c10.951,0.834,19.496-4.429,23.25-15C365.744,269.991,357.451,275.329,353.057,284.767z"/>
<path fill-rule="evenodd" clip-rule="evenodd" fill="#EAB649" stroke="#000000" stroke-width="2" stroke-linecap="square" stroke-miterlimit="10" d="  M360.557,281.017c8.381-7.113,10.235-16.808,5.25-27C359.13,261.83,356.987,271.515,360.557,281.017z"/>
</svg>