<svg xmlns="http://www.w3.org/2000/svg" xmlns:xlink="http://www.w3.org/1999/xlink" version="1.1" id="Layer_1" x="0px" y="0px" enable-background="new 0 0 822.05 841.89" xml:space="preserve" viewBox="331.02 337.93 160.25 172.28">
<path fill-rule="evenodd" clip-rule="evenodd" fill="#EED5B6" stroke="#000000" stroke-width="1.25" stroke-linecap="square" stroke-miterlimit="10" d="  M453.902,441.769c-13.762-2.155-29.846-8.418-32.25-23.252c-0.113,0.931,1.493,4.75,2.25,5.252  c-20.636-0.491-28.952-3.214-42.752,11.25c-14.452,15.147-9.557,15.524-2.381,41.292c5.206,18.692,25.859,45.596,50.169,25.255  C458.543,476.794,465.549,478.5,453.902,441.769z"/>
<path fill-rule="evenodd" clip-rule="evenodd" fill="#FF9900" stroke="#000000" stroke-width="1.25" stroke-linecap="square" stroke-miterlimit="10" d="  M355.65,488.269c-8.497,31.536,39.793,18.75,58.905,18.75c22.374,0,56.401,11.254,47.597-21.75  c-6.617,25.875,9.248,21.75,28.5,21.75c-3.455-21.002-1.921-54.646-21.75-67.5c-28.59-18.534-36.812,18.799-62.252,17.25  c-23.474-1.43-30.31-35.055-57.75-15c-18.567,13.57-16.74,44.669-17.25,65.25C348.676,510.985,361.465,508.033,355.65,488.269z"/>
<path fill-rule="evenodd" clip-rule="evenodd" fill="#FFFFFF" stroke="#000000" stroke-width="1.25" stroke-linecap="square" stroke-miterlimit="10" d="  M355.65,488.269c0.099,6.154-0.104,13.928,0.75,18.75C356.15,500.771,355.8,494.52,355.65,488.269z"/>
<path fill-rule="evenodd" clip-rule="evenodd" fill="#E8E8E6" stroke="#000000" stroke-width="1.25" stroke-linecap="square" stroke-miterlimit="10" d="  M370.65,377.267c1.892,50.695,75.561,50.68,75.752,0C446.597,325.79,371.559,325.499,370.65,377.267z"/>
<path fill-rule="evenodd" clip-rule="evenodd" fill="#EED5B6" stroke="#000000" stroke-width="1.25" stroke-linecap="square" stroke-miterlimit="10" d="  M450.152,390.767C438.584,424.241,438.584,357.293,450.152,390.767L450.152,390.767z"/>
<path fill-rule="evenodd" clip-rule="evenodd" fill="#EED5B6" stroke="#000000" stroke-width="1.25" stroke-linecap="square" stroke-miterlimit="10" d="  M378.15,391.517C367.374,431.034,367.403,351.499,378.15,391.517L378.15,391.517z"/>
<path fill-rule="evenodd" clip-rule="evenodd" fill="#EED5B6" stroke="#000000" stroke-width="1.25" stroke-linecap="square" stroke-miterlimit="10" d="  M383.4,353.267c5.25,2.306,16.478,8.867,23.25,9c10.981,0.215,14.97-13.519,26.252-8.25c18.992,8.869,11.455,52.644,1.5,64.5  C396.011,464.243,346.064,383.304,383.4,353.267z"/>
<path fill-rule="evenodd" clip-rule="evenodd" fill="#0D0D0D" d="M426.152,386.267c-1.507,0.51,0.354,5.079-4.5,3  C420.102,382.682,423.819,387.057,426.152,386.267z"/>
<path fill="none" stroke="#0D0D0D" stroke-width="0.75" stroke-linecap="square" stroke-miterlimit="10" d="M429.902,386.267  c-4.144-2.324-8.486-2.131-12,0.75"/>
<path fill="none" stroke="#0D0D0D" stroke-linecap="square" stroke-miterlimit="10" d="M415.652,398.267  c-3.164,2.897-6.934,3.154-10.502,0.75"/>
<path fill-rule="evenodd" clip-rule="evenodd" fill="#0D0D0D" d="M392.4,389.267c2.075,0.315,2.118,5.504,5.25,0.75  C395.666,384.194,394.537,389.592,392.4,389.267z"/>
<path fill="none" stroke="#0D0D0D" stroke-width="0.75" stroke-linecap="square" stroke-miterlimit="10" d="M388.65,390.017  c3.542-2.794,7.756-3.622,12-2.25"/>
<path fill="none" stroke="#000000" stroke-width="0.75" stroke-linecap="square" stroke-miterlimit="10" d="M405.9,387.767  c-3.691,9.357-22.67,16.245-21,0C386.485,372.348,401.789,378.704,405.9,387.767z"/>
<path fill="none" stroke="#000000" stroke-width="0.75" stroke-linecap="square" stroke-miterlimit="10" d="M433.652,387.017  c-3.335,8.403-17.111,15.663-19.876,1.875C410.718,373.641,429.217,375.412,433.652,387.017z"/>
<path fill="none" stroke="#000000" stroke-width="0.75" stroke-linecap="square" stroke-miterlimit="10" d="M405.9,387.767  c1.965-1.1,4.105-1.126,6,0"/>
<line fill="none" stroke="#000000" stroke-width="0.75" stroke-linecap="square" stroke-miterlimit="10" x1="433.652" y1="387.017" x2="444.152" y2="378.767"/>
<line fill="none" stroke="#000000" stroke-width="0.75" stroke-linecap="square" stroke-miterlimit="10" x1="384.9" y1="387.017" x2="367.65" y2="381.017"/>
<path fill-rule="evenodd" clip-rule="evenodd" fill="#E8E8E6" stroke="#000000" stroke-width="1.25" stroke-linecap="square" stroke-miterlimit="10" d="  M433.652,407.267c-12.6,14.936-50.526,15.059-59.252-3.75c2.362,18.482,19.918,48.526,39.752,47.252  c13.196-0.848,30.782-34.226,26.25-51.002C438.238,401.809,435.824,404.627,433.652,407.267z"/>
<path fill-rule="evenodd" clip-rule="evenodd" fill="#63221C" stroke="#000000" stroke-width="0.75" stroke-linecap="square" stroke-miterlimit="10" d="  M397.65,411.767c8.048,7.511,16.735,7.004,24.752-0.75C414.243,411.264,405.751,410.803,397.65,411.767z"/>
<path fill-rule="evenodd" clip-rule="evenodd" fill="#E8E8E6" stroke="#000000" stroke-width="0.75" stroke-linecap="square" stroke-miterlimit="10" d="  M409.65,412.517c4.874-0.363,9.496-0.667,14.252-2.25c-9.273-5.749-19.191-5.566-27.752,1.5  C400.663,412.433,405.1,412.546,409.65,412.517z"/>
</svg>