<svg xmlns="http://www.w3.org/2000/svg" xmlns:xlink="http://www.w3.org/1999/xlink" version="1.1" id="Layer_1" x="0px" y="0px" enable-background="new 0 0 822.05 841.89" xml:space="preserve" viewBox="274.73 261.76 269.26 319.25">
<path fill-rule="evenodd" clip-rule="evenodd" fill="#0DB14B" stroke="#000000" stroke-width="2" stroke-linecap="square" stroke-miterlimit="10" d="  M383.986,471.255c-1.381-21.737-44.973-34.744-59.25-51.75c-26.107-31.097-34.979-75.816-48-113.25c21.75,34,43.5,68,65.25,102  c-10.75-41-21.5-82-32.25-123c22.5,45.5,45,91,67.5,136.5c-5.96-46.971-24.753-111.838-12-158.25  c11.582,46.327,21.719,91.973,27,139.5c3.76-39.101,3.677-107.943,28.502-140.25c-2.771,51.888-5.722,103.042-13.502,154.5  c32.738-37.426,29.247-96.39,63.002-129.75c-9.437,43.406-15.314,105.069-48,138.75c28.373-30.793,41.146-87.491,79.5-106.5  c-19.008,34.463-32.969,81.719-61.125,109.875c-13.597,13.597-45.022,20.775-42.377,43.875  C393.486,472.755,388.736,472.005,383.986,471.255z"/>
<path fill-rule="evenodd" clip-rule="evenodd" fill="#AF8977" stroke="#000000" stroke-width="2" stroke-linecap="square" stroke-miterlimit="10" d="  M384.736,474.255c17.687-2.648,44.737,7.91,63.779,11.223c17.698,3.077,64.421,4.931,65.973,25.527  c-13.276-9.633-29.157-8.096-43.5-15c0.75,2.75,1.5,5.5,2.25,8.25c-10.844-11.252-26.904-9.316-42-15  c27.752,25.311,85.373,5.635,99,46.5c-10.692-7.223-21.728-13.973-33-20.25c8.929,17.508,28.514,48.731,45.75,58.5  c-34.125-3.462-35.054-45.701-61.5-58.5c3.808,9.454,8.058,18.705,12.75,27.75c-15.352-6.736-13.418-29.777-32.25-28.5  c3.896,6.386,5.033,12.816,10.5,18c-24.231-13.075-44.884-31.169-70.502-44.25c35.813,24.225,71.025,47.411,99.752,77.25  c-5.013-2.9-10.252-5.69-15-9c0.5,1.75,1,3.5,1.5,5.25c-7.342-10.448-16.25-19.282-27.75-13.5c-2.815-7.09-10.572-11.91-13.5-18.75  c-17.311,11.559,8.364,18.883,15,30.75c-0.677-0.177-1.177,0.073-1.5,0.75c-22.75-13.516-26.701-37.711-43.502-56.25  c-9.74,27.64,32.323,44.454,32.252,67.5c-23.158-26.088-35.397-42.589-50.252-77.25c3.151,31.293,11.082,65.619-18.75,84.75  c3.75-15.346,13.18-27.312,14.25-43.5c-4.135,5.254-9.641,9.549-13.5,15c5.711-11.167,10.302-24.008,11.25-36  c-12.506,11.496-21.528,26.359-30.75,36.75c-6.433,7.248-1.606,13.807-15,15c3.412-8.484,4.716-19.95,9-27.75  c6.487-11.812,20.254-16.696,24-33.75c-23.483,10.035-39.01,21.244-46.639,45.223c-6.071,19.078-36.197,11.188-50.861,11.027  c11.243-8.321,21.485-1.947,34.5-6.75c-2-2.75-4-5.5-6-8.25c14.709,8.754,22.94-9.106,2.25-12.75  c12.889,1.979,25.037-4.815,32.25-15c-22.422-1.562-39.322,1.361-45.75,24.75c0.924-5.505-1.221-12.837,0-19.5  c-10.428,8.444-25.691,7.157-23.25-9c12.391,15.202,63.823-6.328,81-9c-17.941-1.38-62.136,3.142-72.75-9  c16.146,2.601,34.741,5.484,48-6c-2.5-1.5-5-3-7.5-4.5c23.9-2.765,35.444,22.52,62.25,1.5c-31.216-4.943-58.492-8.258-90-1.5  c14.874-16.012,36.25-8.464,55.5-6.75c-0.313-3.002-1.467-4.015-2.25-6.75C360.971,479.276,373.764,479.896,384.736,474.255z"/>
</svg>