<svg xmlns="http://www.w3.org/2000/svg" xmlns:xlink="http://www.w3.org/1999/xlink" version="1.1" id="Layer_1" x="0px" y="0px" enable-background="new 0 0 822.05 841.89" xml:space="preserve" viewBox="212.43 288.85 397.57 263.75">
<path fill-rule="evenodd" clip-rule="evenodd" fill="#B4D670" stroke="#000000" stroke-width="2" stroke-linecap="square" stroke-miterlimit="10" d="  M418.5,381.353c-57.571,31.984-125.071,53.396-177,94.5c-11.205,8.869-37.268,27.344-24.75,41.25  c12.02,13.353,69.489,0.48,83.778-3.417c31.913-8.703,55.721-17.797,89.056-20.972c21.698-2.066,54.447-4.423,73.167-17.611  C513.475,439.368,434.538,414.468,418.5,381.353z"/>
<path fill-rule="evenodd" clip-rule="evenodd" fill="#B4D670" stroke="#000000" stroke-width="2" stroke-linecap="square" stroke-miterlimit="10" d="  M431.25,373.103c-12.576,7.657-9.74,17.37-0.093,26.01c14.539,13.02,29.078,26.04,43.617,39.061  c10.91,9.771,33.79-9.853,45.607-15.865c9.442-4.805-4.153-55.324-9.257-63.83C501.29,342.087,446.557,368.685,431.25,373.103z"/>
<path fill-rule="evenodd" clip-rule="evenodd" fill="#B4D670" stroke="#000000" stroke-width="2" stroke-linecap="square" stroke-miterlimit="10" d="  M506.25,350.603c31.076-28.565,54.144,28.866,45.75,54c-5.551,16.622-16.693,32.025-29.25,16.5  C509.517,404.741,527.989,369.466,506.25,350.603z"/>
<path fill-rule="evenodd" clip-rule="evenodd" fill="#6D6F71" stroke="#000000" stroke-width="2" stroke-linecap="square" stroke-miterlimit="10" d="  M531.75,356.603c13.26,6.904,18.701,21.813,12,35.25C531.409,384.235,526.854,370.028,531.75,356.603z"/>
<path fill="none" stroke="#000000" stroke-width="2" stroke-linecap="square" stroke-miterlimit="10" d="M422.25,379.853  c-13.697,11.99-56.578,40.441-42,63.75c18.23,29.147,56.265-12.6,68.25-24C436.941,409.239,421.099,396.28,422.25,379.853z"/>
<path fill-rule="evenodd" clip-rule="evenodd" fill="#B4D670" stroke="#000000" stroke-width="2" stroke-linecap="square" stroke-miterlimit="10" d="  M369,406.103c-18.288,0.343-131.25-10.168-131.25,13.125c0,55.703,89.581,70.455,127.5,85.125  c-15.078,7.699-34.692,12.166-40.5,29.25c9.069-4.388,83.127-25.124,58.125-40.125c-27.986-16.792-89.833-27.713-100.875-61.875  C309.72,440.628,354.943,438.522,369,406.103z"/>
<path fill="none" stroke="#000000" stroke-width="2" stroke-linecap="square" stroke-miterlimit="10" d="M237.75,478.103  c14.022,9.462,20.335,26.841,12,42"/>
<line fill="none" stroke="#000000" stroke-width="2" stroke-linecap="square" stroke-miterlimit="10" x1="259.5" y1="461.603" x2="291" y2="517.853"/>
<line fill="none" stroke="#000000" stroke-width="2" stroke-linecap="square" stroke-miterlimit="10" x1="296.25" y1="475.103" x2="312" y2="509.603"/>
<path fill="none" stroke="#000000" stroke-width="2" stroke-linecap="square" stroke-miterlimit="10" d="M346.5,426.353  c7.983,27.838,25.812,54.697,52.5,67.5"/>
<path fill="none" stroke="#000000" stroke-width="2" stroke-linecap="square" stroke-miterlimit="10" d="M319.5,440.603  c1.491,10.743,6.052,20.324,15,26.25"/>
<path fill-rule="evenodd" clip-rule="evenodd" fill="#B4D670" stroke="#000000" stroke-width="2" stroke-linecap="square" stroke-miterlimit="10" d="  M412.502,490.853c13.435,25.652,15.84,31.33,8.998,60.75c28.923-18.383,11.542-44.562-2.25-65.25  C417.001,487.853,414.751,489.353,412.502,490.853z"/>
<path fill-rule="evenodd" clip-rule="evenodd" fill="#B4D670" stroke="#000000" stroke-width="2" stroke-linecap="square" stroke-miterlimit="10" d="  M487.5,442.103c11.668,13.041,30.208,27.319,38.25,42.75c14.736,28.273,2.987,32.241,32.25,51.75  C544.943,520.587,513.634,417.895,487.5,442.103z"/>
<path fill="none" stroke="#000000" stroke-width="2" stroke-linecap="square" stroke-miterlimit="10" d="M453.75,367.103  c11.796,16.53,23.076,32.804,26.25,53.25"/>
<path fill="none" stroke="#000000" stroke-width="2" stroke-linecap="square" stroke-miterlimit="10" d="M469.5,363.353  c16.802,13.546,35.427,34.969,26.25,57.75c0.325-2.92,1.698-5.372,2.25-8.25"/>
<path fill="none" stroke="#000000" stroke-width="2" stroke-linecap="square" stroke-miterlimit="10" d="M545.25,355.853  c6.021-17.657,19.568-52.555,3-66"/>
<path fill="none" stroke="#000000" stroke-width="2" stroke-linecap="square" stroke-miterlimit="10" d="M549,363.353  c14.227-16.882,38.13-27.413,60-21.75"/>
<path fill-rule="evenodd" clip-rule="evenodd" fill="#B4D670" stroke="#000000" stroke-width="2" stroke-linecap="square" stroke-miterlimit="10" d="  M522,428.603c2.053,5.239,3.018,11.063,4.5,16.5C513.919,438.275,508.603,424.699,522,428.603z"/>
<path fill-rule="evenodd" clip-rule="evenodd" fill="#B4D670" stroke="#000000" stroke-width="2" stroke-linecap="square" stroke-miterlimit="10" d="  M530.25,432.353c4.942,5.891,11.06,11.06,16.5,16.5c-0.473-7.4-4.155-17.024-6.75-24C536.75,427.353,533.5,429.853,530.25,432.353z"/>
<path fill-rule="evenodd" clip-rule="evenodd" fill="#B4D670" stroke="#000000" stroke-width="2" stroke-linecap="square" stroke-miterlimit="10" d="  M394.5,451.853c6,13,12.001,26,18.002,39C424.7,482.988,409.264,448.459,394.5,451.853z"/>
</svg>