<svg xmlns="http://www.w3.org/2000/svg" xmlns:xlink="http://www.w3.org/1999/xlink" version="1.1" id="Layer_1" x="0px" y="0px" enable-background="new 0 0 822.05 841.89" xml:space="preserve" viewBox="238.85 248.13 338.43 344.77">
<path fill-rule="evenodd" clip-rule="evenodd" fill="#C4C6C8" stroke="#000000" stroke-width="2" stroke-linecap="square" stroke-miterlimit="10" d="  M432.429,312.897c-4.875,23.448-9.751,46.896-14.626,70.343c-2.478,11.917-23.641,71.054-16.874,81.157  c6.934,10.353,64.502,15.177,76.5,18c25.5,6,51,12,76.5,18c-7.053-50.649-14.104-101.299-21.157-151.949  c-3.293-23.65,0.976-25.34-22.773-27.734C484.142,318.108,458.285,315.502,432.429,312.897z"/>
<path fill-rule="evenodd" clip-rule="evenodd" fill="#939598" stroke="#000000" stroke-width="2" stroke-linecap="square" stroke-miterlimit="10" d="  M549.429,307.647c-30.831,17.839-13.938,52.972-10.004,82.798c4.834,36.65,9.669,73.302,14.504,109.952  c17.771-34.018,27.446-44.704,19.608-81.03C565.501,382.127,557.465,344.887,549.429,307.647z"/>
<path fill-rule="evenodd" clip-rule="evenodd" fill="#CCCED0" stroke="#000000" stroke-width="2" stroke-linecap="square" stroke-miterlimit="10" d="  M435.429,312.147c-2.003-33.865,27.657-68.651,62.25-62.25c26.335,4.873,71.711,54.574,33.75,72.75  c0.396-25.221-6.352-62.877-36.75-68.25C456.322,247.617,452.615,292.887,435.429,312.147z"/>
<path fill-rule="evenodd" clip-rule="evenodd" fill="#808285" stroke="#000000" stroke-width="2" stroke-linecap="square" stroke-miterlimit="10" d="  M462.429,264.897c-5.899,18.854,1.222,38.069-21.75,45.75C445.607,294.007,448.434,276.474,462.429,264.897z"/>
<path fill-rule="evenodd" clip-rule="evenodd" fill="#939598" stroke="#000000" stroke-width="2" stroke-linecap="square" stroke-miterlimit="10" d="  M529.179,306.147c-37.835-4.428-62.086-14.421-93,8.25C454.729,316.056,539.99,339.411,529.179,306.147z"/>
<path fill-rule="evenodd" clip-rule="evenodd" fill="#6D6F71" stroke="#000000" stroke-linecap="square" stroke-miterlimit="10" d="  M455.679,350.397C444.104,359.983,443.903,340.385,455.679,350.397L455.679,350.397z"/>
<path fill-rule="evenodd" clip-rule="evenodd" fill="#6D6F71" stroke="#000000" stroke-linecap="square" stroke-miterlimit="10" d="  M475.179,351.897C462.81,362.582,462.71,341.397,475.179,351.897L475.179,351.897z"/>
<path fill-rule="evenodd" clip-rule="evenodd" fill="#6D6F71" stroke="#000000" stroke-linecap="square" stroke-miterlimit="10" d="  M493.929,353.397C481.517,363.866,481.517,342.928,493.929,353.397L493.929,353.397z"/>
<path fill-rule="evenodd" clip-rule="evenodd" fill="#6D6F71" stroke="#000000" stroke-linecap="square" stroke-miterlimit="10" d="  M512.679,354.897C500.195,365.343,500.416,344.849,512.679,354.897L512.679,354.897z"/>
<path fill-rule="evenodd" clip-rule="evenodd" fill="#6D6F71" stroke="#000000" stroke-linecap="square" stroke-miterlimit="10" d="  M520.929,379.647C509.354,389.233,509.153,369.635,520.929,379.647L520.929,379.647z"/>
<path fill-rule="evenodd" clip-rule="evenodd" fill="#6D6F71" stroke="#000000" stroke-linecap="square" stroke-miterlimit="10" d="  M501.429,377.397C489.674,387.827,489.728,367.843,501.429,377.397L501.429,377.397z"/>
<path fill-rule="evenodd" clip-rule="evenodd" fill="#6D6F71" stroke="#000000" stroke-linecap="square" stroke-miterlimit="10" d="  M482.679,375.897C470.548,382.854,470.729,368.274,482.679,375.897L482.679,375.897z"/>
<path fill-rule="evenodd" clip-rule="evenodd" fill="#6D6F71" stroke="#000000" stroke-linecap="square" stroke-miterlimit="10" d="  M463.929,372.897C452.153,382.909,452.354,363.311,463.929,372.897L463.929,372.897z"/>
<path fill-rule="evenodd" clip-rule="evenodd" fill="#6D6F71" stroke="#000000" stroke-linecap="square" stroke-miterlimit="10" d="  M447.429,371.397C435.462,380.767,435.41,361.161,447.429,371.397L447.429,371.397z"/>
<path fill-rule="evenodd" clip-rule="evenodd" fill="#6D6F71" stroke="#000000" stroke-linecap="square" stroke-miterlimit="10" d="  M455.679,391.647C443.408,402.399,443.534,380.678,455.679,391.647L455.679,391.647z"/>
<path fill-rule="evenodd" clip-rule="evenodd" fill="#6D6F71" stroke="#000000" stroke-linecap="square" stroke-miterlimit="10" d="  M472.929,393.897C460.979,401.52,460.798,386.939,472.929,393.897L472.929,393.897z"/>
<path fill-rule="evenodd" clip-rule="evenodd" fill="#6D6F71" stroke="#000000" stroke-linecap="square" stroke-miterlimit="10" d="  M490.929,396.147C479.183,406.16,479.183,386.134,490.929,396.147L490.929,396.147z"/>
<path fill-rule="evenodd" clip-rule="evenodd" fill="#6D6F71" stroke="#000000" stroke-linecap="square" stroke-miterlimit="10" d="  M508.929,398.397C497.183,408.41,497.183,388.384,508.929,398.397L508.929,398.397z"/>
<path fill-rule="evenodd" clip-rule="evenodd" fill="#6D6F71" stroke="#000000" stroke-linecap="square" stroke-miterlimit="10" d="  M517.929,423.897C506.228,433.451,506.174,413.467,517.929,423.897L517.929,423.897z"/>
<path fill-rule="evenodd" clip-rule="evenodd" fill="#6D6F71" stroke="#000000" stroke-linecap="square" stroke-miterlimit="10" d="  M499.929,420.897C488.265,431.021,488.265,410.773,499.929,420.897L499.929,420.897z"/>
<path fill-rule="evenodd" clip-rule="evenodd" fill="#6D6F71" stroke="#000000" stroke-linecap="square" stroke-miterlimit="10" d="  M480.429,417.897C467.688,428.103,467.793,407.506,480.429,417.897L480.429,417.897z"/>
<path fill-rule="evenodd" clip-rule="evenodd" fill="#6D6F71" stroke="#000000" stroke-linecap="square" stroke-miterlimit="10" d="  M463.929,414.897C453.219,424.732,450.489,407.278,463.929,414.897L463.929,414.897z"/>
<path fill-rule="evenodd" clip-rule="evenodd" fill="#6D6F71" stroke="#000000" stroke-linecap="square" stroke-miterlimit="10" d="  M446.679,411.897C434.168,421.664,433.903,401.781,446.679,411.897L446.679,411.897z"/>
<path fill-rule="evenodd" clip-rule="evenodd" fill="#6D6F71" stroke="#000000" stroke-linecap="square" stroke-miterlimit="10" d="  M437.679,429.897C425.924,440.327,425.978,420.343,437.679,429.897L437.679,429.897z"/>
<path fill-rule="evenodd" clip-rule="evenodd" fill="#6D6F71" stroke="#000000" stroke-linecap="square" stroke-miterlimit="10" d="  M454.929,433.647C443.271,444.221,443.314,423.991,454.929,433.647L454.929,433.647z"/>
<path fill-rule="evenodd" clip-rule="evenodd" fill="#6D6F71" stroke="#000000" stroke-linecap="square" stroke-miterlimit="10" d="  M471.429,437.397C459.674,447.827,459.728,427.843,471.429,437.397L471.429,437.397z"/>
<path fill-rule="evenodd" clip-rule="evenodd" fill="#6D6F71" stroke="#000000" stroke-linecap="square" stroke-miterlimit="10" d="  M488.679,439.647C477.188,450.346,477.064,430.476,488.679,439.647L488.679,439.647z"/>
<path fill-rule="evenodd" clip-rule="evenodd" fill="#6D6F71" stroke="#000000" stroke-linecap="square" stroke-miterlimit="10" d="  M508.929,444.147C496.979,451.77,496.798,437.189,508.929,444.147L508.929,444.147z"/>
<path fill-rule="evenodd" clip-rule="evenodd" fill="#6D6F71" stroke="#000000" stroke-linecap="square" stroke-miterlimit="10" d="  M525.429,446.397C513.479,454.02,513.298,439.439,525.429,446.397L525.429,446.397z"/>
<path fill-rule="evenodd" clip-rule="evenodd" fill="#6D6F71" stroke="#000000" stroke-linecap="square" stroke-miterlimit="10" d="  M534.429,470.397C522.479,478.02,522.298,463.439,534.429,470.397L534.429,470.397z"/>
<path fill-rule="evenodd" clip-rule="evenodd" fill="#6D6F71" stroke="#000000" stroke-linecap="square" stroke-miterlimit="10" d="  M516.429,466.647C504.158,477.399,504.284,455.678,516.429,466.647L516.429,466.647z"/>
<path fill-rule="evenodd" clip-rule="evenodd" fill="#6D6F71" stroke="#000000" stroke-linecap="square" stroke-miterlimit="10" d="  M496.929,462.147C486.353,471.78,484.37,454.976,496.929,462.147L496.929,462.147z"/>
<path fill-rule="evenodd" clip-rule="evenodd" fill="#6D6F71" stroke="#000000" stroke-linecap="square" stroke-miterlimit="10" d="  M479.679,458.397C468.969,468.232,466.239,450.778,479.679,458.397L479.679,458.397z"/>
<path fill-rule="evenodd" clip-rule="evenodd" fill="#6D6F71" stroke="#000000" stroke-linecap="square" stroke-miterlimit="10" d="  M463.929,456.897C452.153,466.91,452.354,447.311,463.929,456.897L463.929,456.897z"/>
<path fill-rule="evenodd" clip-rule="evenodd" fill="#6D6F71" stroke="#000000" stroke-linecap="square" stroke-miterlimit="10" d="  M447.429,453.147C434.945,463.593,435.166,443.099,447.429,453.147L447.429,453.147z"/>
<path fill-rule="evenodd" clip-rule="evenodd" fill="#6D6F71" stroke="#000000" stroke-linecap="square" stroke-miterlimit="10" d="  M430.929,450.897C419.305,461.088,419.305,440.706,430.929,450.897L430.929,450.897z"/>
<path fill-rule="evenodd" clip-rule="evenodd" fill="#6D6F71" stroke="#000000" stroke-linecap="square" stroke-miterlimit="10" d="  M544.179,347.397C540.313,348.346,541.551,348.042,544.179,347.397L544.179,347.397z"/>
<path fill-rule="evenodd" clip-rule="evenodd" fill="#6D6F71" stroke="#000000" stroke-linecap="square" stroke-miterlimit="10" d="  M550.929,342.897C549.317,343.238,548.408,343.43,550.929,342.897L550.929,342.897z"/>
<path fill-rule="evenodd" clip-rule="evenodd" fill="#6D6F71" stroke="#000000" stroke-linecap="square" stroke-miterlimit="10" d="  M553.179,351.897C549.77,352.746,550.504,352.563,553.179,351.897L553.179,351.897z"/>
<path fill-rule="evenodd" clip-rule="evenodd" fill="#6D6F71" stroke="#000000" stroke-linecap="square" stroke-miterlimit="10" d="  M547.179,357.147C546.055,357.106,541.851,356.956,547.179,357.147L547.179,357.147z"/>
<path fill-rule="evenodd" clip-rule="evenodd" fill="#6D6F71" stroke="#000000" stroke-linecap="square" stroke-miterlimit="10" d="  M549.429,367.647C548.305,367.606,544.101,367.456,549.429,367.647L549.429,367.647z"/>
<path fill-rule="evenodd" clip-rule="evenodd" fill="#6D6F71" stroke="#000000" stroke-linecap="square" stroke-miterlimit="10" d="  M555.429,362.397C550.687,364.686,555.371,362.425,555.429,362.397L555.429,362.397z"/>
<path fill-rule="evenodd" clip-rule="evenodd" fill="#6D6F71" stroke="#000000" stroke-linecap="square" stroke-miterlimit="10" d="  M556.929,372.147C554.483,372.473,554.12,372.522,556.929,372.147L556.929,372.147z"/>
<path fill-rule="evenodd" clip-rule="evenodd" fill="#6D6F71" stroke="#000000" stroke-linecap="square" stroke-miterlimit="10" d="  M551.679,376.647C550.944,376.624,545.844,376.461,551.679,376.647L551.679,376.647z"/>
<path fill-rule="evenodd" clip-rule="evenodd" fill="#6D6F71" stroke="#000000" stroke-linecap="square" stroke-miterlimit="10" d="  M553.179,386.397C549.793,387.207,549.885,387.185,553.179,386.397L553.179,386.397z"/>
<path fill-rule="evenodd" clip-rule="evenodd" fill="#6D6F71" stroke="#000000" stroke-linecap="square" stroke-miterlimit="10" d="  M558.429,382.647C556.817,382.988,555.908,383.18,558.429,382.647L558.429,382.647z"/>
<path fill-rule="evenodd" clip-rule="evenodd" fill="#6D6F71" stroke="#000000" stroke-linecap="square" stroke-miterlimit="10" d="  M560.679,393.147C559.944,393.124,554.844,392.961,560.679,393.147L560.679,393.147z"/>
<path fill-rule="evenodd" clip-rule="evenodd" fill="#6D6F71" stroke="#000000" stroke-linecap="square" stroke-miterlimit="10" d="  M554.679,396.147C550.75,397.869,552.52,397.094,554.679,396.147L554.679,396.147z"/>
<path fill-rule="evenodd" clip-rule="evenodd" fill="#6D6F71" stroke="#000000" stroke-linecap="square" stroke-miterlimit="10" d="  M556.179,407.397C555.32,407.382,552.303,407.329,556.179,407.397L556.179,407.397z"/>
<path fill-rule="evenodd" clip-rule="evenodd" fill="#6D6F71" stroke="#000000" stroke-linecap="square" stroke-miterlimit="10" d="  M562.179,402.147C558.457,403.846,561.677,402.376,562.179,402.147L562.179,402.147z"/>
<path fill-rule="evenodd" clip-rule="evenodd" fill="#6D6F71" stroke="#000000" stroke-linecap="square" stroke-miterlimit="10" d="  M564.429,411.897C560.569,413.444,561.584,413.037,564.429,411.897L564.429,411.897z"/>
<path fill-rule="evenodd" clip-rule="evenodd" fill="#6D6F71" stroke="#000000" stroke-linecap="square" stroke-miterlimit="10" d="  M558.429,417.897C555.079,418.653,557.026,418.213,558.429,417.897L558.429,417.897z"/>
<path fill-rule="evenodd" clip-rule="evenodd" fill="#6D6F71" stroke="#000000" stroke-linecap="square" stroke-miterlimit="10" d="  M560.679,428.397C556.813,429.346,558.051,429.042,560.679,428.397L560.679,428.397z"/>
<path fill-rule="evenodd" clip-rule="evenodd" fill="#6D6F71" stroke="#000000" stroke-linecap="square" stroke-miterlimit="10" d="  M565.929,423.147C564.317,423.488,563.408,423.68,565.929,423.147L565.929,423.147z"/>
<path fill-rule="evenodd" clip-rule="evenodd" fill="#6D6F71" stroke="#000000" stroke-linecap="square" stroke-miterlimit="10" d="  M568.929,434.397C568.39,434.369,563.347,434.105,568.929,434.397L568.929,434.397z"/>
<path fill-rule="evenodd" clip-rule="evenodd" fill="#6D6F71" stroke="#000000" stroke-linecap="square" stroke-miterlimit="10" d="  M563.679,438.897C561.114,439.135,559.782,439.259,563.679,438.897L563.679,438.897z"/>
<path fill-rule="evenodd" clip-rule="evenodd" fill="#C4C6C8" stroke="#000000" stroke-width="2" stroke-linecap="square" stroke-miterlimit="10" d="  M376.929,345.897c-4.759,23.448-9.519,46.896-14.278,70.343c-2.534,12.485-23.321,70.356-16.472,81.157  c5.915,9.328,60.087,14.208,70.691,16.715c27.187,6.429,54.372,12.856,81.559,19.285c-7.053-50.649-14.104-101.3-21.157-151.949  c-3.293-23.65,0.976-25.34-22.773-27.734C428.642,351.108,402.785,348.502,376.929,345.897z"/>
<path fill-rule="evenodd" clip-rule="evenodd" fill="#939598" stroke="#000000" stroke-width="2" stroke-linecap="square" stroke-miterlimit="10" d="  M493.929,340.647c-30.831,17.839-13.938,52.972-10.004,82.798c4.834,36.65,9.669,73.302,14.504,109.952  c17.771-34.018,27.446-44.704,19.608-81.03C510.001,415.127,501.965,377.887,493.929,340.647z"/>
<path fill-rule="evenodd" clip-rule="evenodd" fill="#CCCED0" stroke="#000000" stroke-width="2" stroke-linecap="square" stroke-miterlimit="10" d="  M379.929,345.147c-2.124-33.973,27.601-68.516,62.25-62.25c26.573,4.806,71.925,54.472,33.75,72.75  c0.402-25.584-6.03-62.945-36.75-68.25C400.832,280.775,397.243,325.744,379.929,345.147z"/>
<path fill-rule="evenodd" clip-rule="evenodd" fill="#808285" stroke="#000000" stroke-width="2" stroke-linecap="square" stroke-miterlimit="10" d="  M406.929,297.897c-5.9,18.854,1.222,38.069-21.75,45.75C388.854,327.302,394.235,309.406,406.929,297.897z"/>
<path fill-rule="evenodd" clip-rule="evenodd" fill="#939598" stroke="#000000" stroke-width="2" stroke-linecap="square" stroke-miterlimit="10" d="  M473.679,339.147c-37.835-4.428-62.085-14.421-93,8.25C399.228,349.056,484.49,372.411,473.679,339.147z"/>
<path fill-rule="evenodd" clip-rule="evenodd" fill="#6D6F71" stroke="#000000" stroke-linecap="square" stroke-miterlimit="10" d="  M400.179,382.647C389.603,392.279,387.621,375.476,400.179,382.647L400.179,382.647z"/>
<path fill-rule="evenodd" clip-rule="evenodd" fill="#6D6F71" stroke="#000000" stroke-linecap="square" stroke-miterlimit="10" d="  M419.679,384.897C407.632,392.106,407.632,377.688,419.679,384.897L419.679,384.897z"/>
<path fill-rule="evenodd" clip-rule="evenodd" fill="#6D6F71" stroke="#000000" stroke-linecap="square" stroke-miterlimit="10" d="  M438.429,386.397C426.382,393.606,426.382,379.188,438.429,386.397L438.429,386.397z"/>
<path fill-rule="evenodd" clip-rule="evenodd" fill="#6D6F71" stroke="#000000" stroke-linecap="square" stroke-miterlimit="10" d="  M457.179,387.897C445.229,395.52,445.048,380.939,457.179,387.897L457.179,387.897z"/>
<path fill-rule="evenodd" clip-rule="evenodd" fill="#6D6F71" stroke="#000000" stroke-linecap="square" stroke-miterlimit="10" d="  M465.429,412.647C453.728,422.201,453.674,402.217,465.429,412.647L465.429,412.647z"/>
<path fill-rule="evenodd" clip-rule="evenodd" fill="#6D6F71" stroke="#000000" stroke-linecap="square" stroke-miterlimit="10" d="  M446.679,410.397C433.903,420.513,434.168,400.63,446.679,410.397L446.679,410.397z"/>
<path fill-rule="evenodd" clip-rule="evenodd" fill="#6D6F71" stroke="#000000" stroke-linecap="square" stroke-miterlimit="10" d="  M427.179,408.897C415.478,418.451,415.424,398.467,427.179,408.897L427.179,408.897z"/>
<path fill-rule="evenodd" clip-rule="evenodd" fill="#6D6F71" stroke="#000000" stroke-linecap="square" stroke-miterlimit="10" d="  M409.179,405.897C396.493,416.073,396.493,395.721,409.179,405.897L409.179,405.897z"/>
<path fill-rule="evenodd" clip-rule="evenodd" fill="#6D6F71" stroke="#000000" stroke-linecap="square" stroke-miterlimit="10" d="  M391.929,403.647C380.174,414.077,380.227,394.093,391.929,403.647L391.929,403.647z"/>
<path fill-rule="evenodd" clip-rule="evenodd" fill="#6D6F71" stroke="#000000" stroke-linecap="square" stroke-miterlimit="10" d="  M400.179,424.647C388.048,431.605,388.229,417.024,400.179,424.647L400.179,424.647z"/>
<path fill-rule="evenodd" clip-rule="evenodd" fill="#6D6F71" stroke="#000000" stroke-linecap="square" stroke-miterlimit="10" d="  M417.429,426.897C405.385,436.726,405.558,417.52,417.429,426.897L417.429,426.897z"/>
<path fill-rule="evenodd" clip-rule="evenodd" fill="#6D6F71" stroke="#000000" stroke-linecap="square" stroke-miterlimit="10" d="  M435.429,429.147C423.631,439.19,423.783,418.868,435.429,429.147L435.429,429.147z"/>
<path fill-rule="evenodd" clip-rule="evenodd" fill="#6D6F71" stroke="#000000" stroke-linecap="square" stroke-miterlimit="10" d="  M454.179,431.397C441.493,441.574,441.493,421.221,454.179,431.397L454.179,431.397z"/>
<path fill-rule="evenodd" clip-rule="evenodd" fill="#6D6F71" stroke="#000000" stroke-linecap="square" stroke-miterlimit="10" d="  M462.429,456.147C450.771,466.721,450.814,446.491,462.429,456.147L462.429,456.147z"/>
<path fill-rule="evenodd" clip-rule="evenodd" fill="#6D6F71" stroke="#000000" stroke-linecap="square" stroke-miterlimit="10" d="  M445.179,453.897C432.64,464.157,432.64,443.637,445.179,453.897L445.179,453.897z"/>
<path fill-rule="evenodd" clip-rule="evenodd" fill="#6D6F71" stroke="#000000" stroke-linecap="square" stroke-miterlimit="10" d="  M424.929,450.897C412.666,460.945,412.445,440.451,424.929,450.897L424.929,450.897z"/>
<path fill-rule="evenodd" clip-rule="evenodd" fill="#6D6F71" stroke="#000000" stroke-linecap="square" stroke-miterlimit="10" d="  M408.429,447.897C396.653,457.91,396.854,438.311,408.429,447.897L408.429,447.897z"/>
<path fill-rule="evenodd" clip-rule="evenodd" fill="#6D6F71" stroke="#000000" stroke-linecap="square" stroke-miterlimit="10" d="  M391.179,444.897C378.917,454.945,378.695,434.451,391.179,444.897L391.179,444.897z"/>
<path fill-rule="evenodd" clip-rule="evenodd" fill="#6D6F71" stroke="#000000" stroke-linecap="square" stroke-miterlimit="10" d="  M382.179,462.897C370.449,472.983,370.684,453.204,382.179,462.897L382.179,462.897z"/>
<path fill-rule="evenodd" clip-rule="evenodd" fill="#6D6F71" stroke="#000000" stroke-linecap="square" stroke-miterlimit="10" d="  M400.179,466.647C387.403,476.763,387.668,456.88,400.179,466.647L400.179,466.647z"/>
<path fill-rule="evenodd" clip-rule="evenodd" fill="#6D6F71" stroke="#000000" stroke-linecap="square" stroke-miterlimit="10" d="  M416.679,470.397C403.903,480.513,404.168,460.63,416.679,470.397L416.679,470.397z"/>
<path fill-rule="evenodd" clip-rule="evenodd" fill="#6D6F71" stroke="#000000" stroke-linecap="square" stroke-miterlimit="10" d="  M433.929,472.647C421.293,482.845,421.562,462.806,433.929,472.647L433.929,472.647z"/>
<path fill-rule="evenodd" clip-rule="evenodd" fill="#6D6F71" stroke="#000000" stroke-linecap="square" stroke-miterlimit="10" d="  M453.429,477.147C441.683,487.16,441.683,467.134,453.429,477.147L453.429,477.147z"/>
<path fill-rule="evenodd" clip-rule="evenodd" fill="#6D6F71" stroke="#000000" stroke-linecap="square" stroke-miterlimit="10" d="  M469.929,479.397C457.885,489.226,458.058,470.019,469.929,479.397L469.929,479.397z"/>
<path fill-rule="evenodd" clip-rule="evenodd" fill="#6D6F71" stroke="#000000" stroke-linecap="square" stroke-miterlimit="10" d="  M478.929,503.397C466.882,510.606,466.882,496.188,478.929,503.397L478.929,503.397z"/>
<path fill-rule="evenodd" clip-rule="evenodd" fill="#6D6F71" stroke="#000000" stroke-linecap="square" stroke-miterlimit="10" d="  M460.929,499.647C449.354,509.233,449.153,489.634,460.929,499.647L460.929,499.647z"/>
<path fill-rule="evenodd" clip-rule="evenodd" fill="#6D6F71" stroke="#000000" stroke-linecap="square" stroke-miterlimit="10" d="  M441.429,495.147C429.653,505.16,429.854,485.561,441.429,495.147L441.429,495.147z"/>
<path fill-rule="evenodd" clip-rule="evenodd" fill="#6D6F71" stroke="#000000" stroke-linecap="square" stroke-miterlimit="10" d="  M424.179,491.397C412.229,499.02,412.048,484.439,424.179,491.397L424.179,491.397z"/>
<path fill-rule="evenodd" clip-rule="evenodd" fill="#6D6F71" stroke="#000000" stroke-linecap="square" stroke-miterlimit="10" d="  M409.179,489.897C396.493,500.074,396.493,479.72,409.179,489.897L409.179,489.897z"/>
<path fill-rule="evenodd" clip-rule="evenodd" fill="#6D6F71" stroke="#000000" stroke-linecap="square" stroke-miterlimit="10" d="  M391.929,486.147C379.882,493.356,379.882,478.938,391.929,486.147L391.929,486.147z"/>
<path fill-rule="evenodd" clip-rule="evenodd" fill="#6D6F71" stroke="#000000" stroke-linecap="square" stroke-miterlimit="10" d="  M376.179,483.897C363.766,494.366,363.766,473.428,376.179,483.897L376.179,483.897z"/>
<path fill-rule="evenodd" clip-rule="evenodd" fill="#6D6F71" stroke="#000000" stroke-linecap="square" stroke-miterlimit="10" d="  M488.679,380.397C485.446,380.889,485.354,380.903,488.679,380.397L488.679,380.397z"/>
<path fill-rule="evenodd" clip-rule="evenodd" fill="#6D6F71" stroke="#000000" stroke-linecap="square" stroke-miterlimit="10" d="  M496.179,375.897C495.444,375.874,490.344,375.711,496.179,375.897L496.179,375.897z"/>
<path fill-rule="evenodd" clip-rule="evenodd" fill="#6D6F71" stroke="#000000" stroke-linecap="square" stroke-miterlimit="10" d="  M497.679,384.897C494.545,385.517,495.506,385.327,497.679,384.897L497.679,384.897z"/>
<path fill-rule="evenodd" clip-rule="evenodd" fill="#6D6F71" stroke="#000000" stroke-linecap="square" stroke-miterlimit="10" d="  M491.679,390.147C490.555,390.106,486.351,389.956,491.679,390.147L491.679,390.147z"/>
<path fill-rule="evenodd" clip-rule="evenodd" fill="#6D6F71" stroke="#000000" stroke-linecap="square" stroke-miterlimit="10" d="  M493.929,399.897C489.68,401.675,491.621,400.863,493.929,399.897L493.929,399.897z"/>
<path fill-rule="evenodd" clip-rule="evenodd" fill="#6D6F71" stroke="#000000" stroke-linecap="square" stroke-miterlimit="10" d="  M500.679,395.397C497.293,396.207,497.385,396.185,500.679,395.397L500.679,395.397z"/>
<path fill-rule="evenodd" clip-rule="evenodd" fill="#6D6F71" stroke="#000000" stroke-linecap="square" stroke-miterlimit="10" d="  M501.429,405.147C499.141,405.667,499.351,405.619,501.429,405.147L501.429,405.147z"/>
<path fill-rule="evenodd" clip-rule="evenodd" fill="#6D6F71" stroke="#000000" stroke-linecap="square" stroke-miterlimit="10" d="  M496.179,409.647C495.055,409.606,490.851,409.456,496.179,409.647L496.179,409.647z"/>
<path fill-rule="evenodd" clip-rule="evenodd" fill="#6D6F71" stroke="#000000" stroke-linecap="square" stroke-miterlimit="10" d="  M497.679,419.397C495.114,419.635,493.782,419.759,497.679,419.397L497.679,419.397z"/>
<path fill-rule="evenodd" clip-rule="evenodd" fill="#6D6F71" stroke="#000000" stroke-linecap="square" stroke-miterlimit="10" d="  M503.679,415.647C501.595,415.835,499.124,416.058,503.679,415.647L503.679,415.647z"/>
<path fill-rule="evenodd" clip-rule="evenodd" fill="#6D6F71" stroke="#000000" stroke-linecap="square" stroke-miterlimit="10" d="  M505.179,425.397C500.93,427.175,502.871,426.363,505.179,425.397L505.179,425.397z"/>
<path fill-rule="evenodd" clip-rule="evenodd" fill="#6D6F71" stroke="#000000" stroke-linecap="square" stroke-miterlimit="10" d="  M499.179,429.147C495.435,430.39,496.921,429.897,499.179,429.147L499.179,429.147z"/>
<path fill-rule="evenodd" clip-rule="evenodd" fill="#6D6F71" stroke="#000000" stroke-linecap="square" stroke-miterlimit="10" d="  M501.429,439.647C497.569,441.194,498.584,440.788,501.429,439.647L501.429,439.647z"/>
<path fill-rule="evenodd" clip-rule="evenodd" fill="#6D6F71" stroke="#000000" stroke-linecap="square" stroke-miterlimit="10" d="  M507.429,435.147C505.345,435.334,502.874,435.558,507.429,435.147L507.429,435.147z"/>
<path fill-rule="evenodd" clip-rule="evenodd" fill="#6D6F71" stroke="#000000" stroke-linecap="square" stroke-miterlimit="10" d="  M508.929,444.897C505.063,445.846,506.301,445.542,508.929,444.897L508.929,444.897z"/>
<path fill-rule="evenodd" clip-rule="evenodd" fill="#6D6F71" stroke="#000000" stroke-linecap="square" stroke-miterlimit="10" d="  M502.929,450.897C501.317,451.238,500.408,451.43,502.929,450.897L502.929,450.897z"/>
<path fill-rule="evenodd" clip-rule="evenodd" fill="#6D6F71" stroke="#000000" stroke-linecap="square" stroke-miterlimit="10" d="  M505.179,461.397C501.946,461.888,501.854,461.903,505.179,461.397L505.179,461.397z"/>
<path fill-rule="evenodd" clip-rule="evenodd" fill="#6D6F71" stroke="#000000" stroke-linecap="square" stroke-miterlimit="10" d="  M511.179,456.147C510.444,456.124,505.344,455.961,511.179,456.147L511.179,456.147z"/>
<path fill-rule="evenodd" clip-rule="evenodd" fill="#6D6F71" stroke="#000000" stroke-linecap="square" stroke-miterlimit="10" d="  M513.429,466.647C508.867,469.131,512.746,467.019,513.429,466.647L513.429,466.647z"/>
<path fill-rule="evenodd" clip-rule="evenodd" fill="#6D6F71" stroke="#000000" stroke-linecap="square" stroke-miterlimit="10" d="  M508.179,471.897C507.055,471.857,502.851,471.706,508.179,471.897L508.179,471.897z"/>
<path fill-rule="evenodd" clip-rule="evenodd" fill="#C4C6C8" stroke="#000000" stroke-width="2" stroke-linecap="square" stroke-miterlimit="10" d="  M319.929,369.147c-4.759,23.448-9.519,46.896-14.278,70.344c-2.534,12.484-23.321,70.355-16.472,81.156  c5.915,9.328,60.087,14.208,70.691,16.715c27.187,6.429,54.372,12.856,81.559,19.285c-6.839-50.649-13.678-101.3-20.517-151.949  c-3.208-23.763,1.062-25.346-22.813-27.734C372.042,374.358,345.985,371.752,319.929,369.147z"/>
<path fill-rule="evenodd" clip-rule="evenodd" fill="#939598" stroke="#000000" stroke-width="2" stroke-linecap="square" stroke-miterlimit="10" d="  M437.679,363.897c-30.785,17.831-14.097,52.951-10.286,82.798c4.679,36.65,9.357,73.302,14.036,109.952  c18.282-34.025,28.246-44.477,20.358-81.03C453.751,438.377,445.715,401.137,437.679,363.897z"/>
<path fill-rule="evenodd" clip-rule="evenodd" fill="#CCCED0" stroke="#000000" stroke-width="2" stroke-linecap="square" stroke-miterlimit="10" d="  M322.929,367.647c1.574-33.556,26.517-68.595,63-61.5c27.105,5.271,71.454,54.071,33,72.75c1.416-26.058-5.84-62.977-36.75-68.25  C342.572,303.89,342.652,352.121,322.929,367.647z"/>
<path fill-rule="evenodd" clip-rule="evenodd" fill="#808285" stroke="#000000" stroke-width="2" stroke-linecap="square" stroke-miterlimit="10" d="  M350.679,321.147c-6.861,18.809,1.117,38.159-21.75,45.75C331.097,350.453,337.401,331.845,350.679,321.147z"/>
<path fill-rule="evenodd" clip-rule="evenodd" fill="#939598" stroke="#000000" stroke-width="2" stroke-linecap="square" stroke-miterlimit="10" d="  M417.429,362.397c-37.835-4.428-62.085-14.421-93,8.25C343.253,372.331,427.515,395.806,417.429,362.397z"/>
<path fill-rule="evenodd" clip-rule="evenodd" fill="#6D6F71" stroke="#000000" stroke-linecap="square" stroke-miterlimit="10" d="  M343.929,405.897C333.219,415.732,330.489,398.278,343.929,405.897L343.929,405.897z"/>
<path fill-rule="evenodd" clip-rule="evenodd" fill="#6D6F71" stroke="#000000" stroke-linecap="square" stroke-miterlimit="10" d="  M362.679,408.147C350.933,418.16,350.933,398.134,362.679,408.147L362.679,408.147z"/>
<path fill-rule="evenodd" clip-rule="evenodd" fill="#6D6F71" stroke="#000000" stroke-linecap="square" stroke-miterlimit="10" d="  M381.429,409.647C369.683,419.66,369.683,399.634,381.429,409.647L381.429,409.647z"/>
<path fill-rule="evenodd" clip-rule="evenodd" fill="#6D6F71" stroke="#000000" stroke-linecap="square" stroke-miterlimit="10" d="  M400.179,411.147C388.403,421.159,388.604,401.561,400.179,411.147L400.179,411.147z"/>
<path fill-rule="evenodd" clip-rule="evenodd" fill="#6D6F71" stroke="#000000" stroke-linecap="square" stroke-miterlimit="10" d="  M409.179,435.897C397.278,442.22,397.123,428.162,409.179,435.897L409.179,435.897z"/>
<path fill-rule="evenodd" clip-rule="evenodd" fill="#6D6F71" stroke="#000000" stroke-linecap="square" stroke-miterlimit="10" d="  M389.679,433.647C377.903,443.66,378.104,424.061,389.679,433.647L389.679,433.647z"/>
<path fill-rule="evenodd" clip-rule="evenodd" fill="#6D6F71" stroke="#000000" stroke-linecap="square" stroke-miterlimit="10" d="  M370.929,432.147C359.028,438.47,358.873,424.412,370.929,432.147L370.929,432.147z"/>
<path fill-rule="evenodd" clip-rule="evenodd" fill="#6D6F71" stroke="#000000" stroke-linecap="square" stroke-miterlimit="10" d="  M352.179,429.147C340.433,439.16,340.433,419.134,352.179,429.147L352.179,429.147z"/>
<path fill-rule="evenodd" clip-rule="evenodd" fill="#6D6F71" stroke="#000000" stroke-linecap="square" stroke-miterlimit="10" d="  M335.679,426.897C323.729,434.52,323.548,419.939,335.679,426.897L335.679,426.897z"/>
<path fill-rule="evenodd" clip-rule="evenodd" fill="#6D6F71" stroke="#000000" stroke-linecap="square" stroke-miterlimit="10" d="  M343.929,447.897C331.418,457.664,331.153,437.781,343.929,447.897L343.929,447.897z"/>
<path fill-rule="evenodd" clip-rule="evenodd" fill="#6D6F71" stroke="#000000" stroke-linecap="square" stroke-miterlimit="10" d="  M361.179,450.147C348.766,460.616,348.766,439.678,361.179,450.147L361.179,450.147z"/>
<path fill-rule="evenodd" clip-rule="evenodd" fill="#6D6F71" stroke="#000000" stroke-linecap="square" stroke-miterlimit="10" d="  M379.179,452.397C367.048,459.355,367.229,444.774,379.179,452.397L379.179,452.397z"/>
<path fill-rule="evenodd" clip-rule="evenodd" fill="#6D6F71" stroke="#000000" stroke-linecap="square" stroke-miterlimit="10" d="  M397.179,454.647C385.433,464.66,385.433,444.634,397.179,454.647L397.179,454.647z"/>
<path fill-rule="evenodd" clip-rule="evenodd" fill="#6D6F71" stroke="#000000" stroke-linecap="square" stroke-miterlimit="10" d="  M406.179,479.397C395.59,488.915,392.9,471.653,406.179,479.397L406.179,479.397z"/>
<path fill-rule="evenodd" clip-rule="evenodd" fill="#6D6F71" stroke="#000000" stroke-linecap="square" stroke-miterlimit="10" d="  M388.179,477.147C376.433,487.16,376.433,467.134,388.179,477.147L388.179,477.147z"/>
<path fill-rule="evenodd" clip-rule="evenodd" fill="#6D6F71" stroke="#000000" stroke-linecap="square" stroke-miterlimit="10" d="  M367.929,474.147C356.354,483.733,356.153,464.134,367.929,474.147L367.929,474.147z"/>
<path fill-rule="evenodd" clip-rule="evenodd" fill="#6D6F71" stroke="#000000" stroke-linecap="square" stroke-miterlimit="10" d="  M352.179,471.147C340.229,478.77,340.048,464.189,352.179,471.147L352.179,471.147z"/>
<path fill-rule="evenodd" clip-rule="evenodd" fill="#6D6F71" stroke="#000000" stroke-linecap="square" stroke-miterlimit="10" d="  M334.179,468.147C322.477,477.701,322.424,457.717,334.179,468.147L334.179,468.147z"/>
<path fill-rule="evenodd" clip-rule="evenodd" fill="#6D6F71" stroke="#000000" stroke-linecap="square" stroke-miterlimit="10" d="  M325.929,486.147C314.153,496.16,314.354,476.561,325.929,486.147L325.929,486.147z"/>
<path fill-rule="evenodd" clip-rule="evenodd" fill="#6D6F71" stroke="#000000" stroke-linecap="square" stroke-miterlimit="10" d="  M343.179,489.897C331.403,499.91,331.604,480.311,343.179,489.897L343.179,489.897z"/>
<path fill-rule="evenodd" clip-rule="evenodd" fill="#6D6F71" stroke="#000000" stroke-linecap="square" stroke-miterlimit="10" d="  M359.679,493.647C347.903,503.66,348.104,484.061,359.679,493.647L359.679,493.647z"/>
<path fill-rule="evenodd" clip-rule="evenodd" fill="#6D6F71" stroke="#000000" stroke-linecap="square" stroke-miterlimit="10" d="  M376.929,495.897C365.153,505.91,365.354,486.311,376.929,495.897L376.929,495.897z"/>
<path fill-rule="evenodd" clip-rule="evenodd" fill="#6D6F71" stroke="#000000" stroke-linecap="square" stroke-miterlimit="10" d="  M397.179,500.397C385.132,507.606,385.132,493.188,397.179,500.397L397.179,500.397z"/>
<path fill-rule="evenodd" clip-rule="evenodd" fill="#6D6F71" stroke="#000000" stroke-linecap="square" stroke-miterlimit="10" d="  M413.679,502.647C401.309,513.332,401.21,492.147,413.679,502.647L413.679,502.647z"/>
<path fill-rule="evenodd" clip-rule="evenodd" fill="#6D6F71" stroke="#000000" stroke-linecap="square" stroke-miterlimit="10" d="  M422.679,526.647C410.14,536.907,410.14,516.387,422.679,526.647L422.679,526.647z"/>
<path fill-rule="evenodd" clip-rule="evenodd" fill="#6D6F71" stroke="#000000" stroke-linecap="square" stroke-miterlimit="10" d="  M404.679,522.897C392.548,529.855,392.729,515.274,404.679,522.897L404.679,522.897z"/>
<path fill-rule="evenodd" clip-rule="evenodd" fill="#6D6F71" stroke="#000000" stroke-linecap="square" stroke-miterlimit="10" d="  M385.179,518.397C373.229,526.02,373.048,511.439,385.179,518.397L385.179,518.397z"/>
<path fill-rule="evenodd" clip-rule="evenodd" fill="#6D6F71" stroke="#000000" stroke-linecap="square" stroke-miterlimit="10" d="  M367.179,514.647C355.449,524.733,355.684,504.954,367.179,514.647L367.179,514.647z"/>
<path fill-rule="evenodd" clip-rule="evenodd" fill="#6D6F71" stroke="#000000" stroke-linecap="square" stroke-miterlimit="10" d="  M352.179,513.147C340.433,523.16,340.433,503.134,352.179,513.147L352.179,513.147z"/>
<path fill-rule="evenodd" clip-rule="evenodd" fill="#6D6F71" stroke="#000000" stroke-linecap="square" stroke-miterlimit="10" d="  M334.929,509.397C323.183,519.41,323.183,499.384,334.929,509.397L334.929,509.397z"/>
<path fill-rule="evenodd" clip-rule="evenodd" fill="#6D6F71" stroke="#000000" stroke-linecap="square" stroke-miterlimit="10" d="  M319.179,507.147C307.433,517.16,307.433,497.134,319.179,507.147L319.179,507.147z"/>
<path fill-rule="evenodd" clip-rule="evenodd" fill="#6D6F71" stroke="#000000" stroke-linecap="square" stroke-miterlimit="10" d="  M432.429,403.647C430.345,403.835,427.874,404.058,432.429,403.647L432.429,403.647z"/>
<path fill-rule="evenodd" clip-rule="evenodd" fill="#6D6F71" stroke="#000000" stroke-linecap="square" stroke-miterlimit="10" d="  M439.179,399.147C438.64,399.119,433.597,398.855,439.179,399.147L439.179,399.147z"/>
<path fill-rule="evenodd" clip-rule="evenodd" fill="#6D6F71" stroke="#000000" stroke-linecap="square" stroke-miterlimit="10" d="  M441.429,408.147C438.196,408.639,438.104,408.653,441.429,408.147L441.429,408.147z"/>
<path fill-rule="evenodd" clip-rule="evenodd" fill="#6D6F71" stroke="#000000" stroke-linecap="square" stroke-miterlimit="10" d="  M434.679,412.647C430.085,415.907,434.703,412.63,434.679,412.647L434.679,412.647z"/>
<path fill-rule="evenodd" clip-rule="evenodd" fill="#6D6F71" stroke="#000000" stroke-linecap="square" stroke-miterlimit="10" d="  M437.679,423.147C433.819,424.694,434.834,424.288,437.679,423.147L437.679,423.147z"/>
<path fill-rule="evenodd" clip-rule="evenodd" fill="#6D6F71" stroke="#000000" stroke-linecap="square" stroke-miterlimit="10" d="  M443.679,418.647C440.27,419.496,441.004,419.313,443.679,418.647L443.679,418.647z"/>
<path fill-rule="evenodd" clip-rule="evenodd" fill="#6D6F71" stroke="#000000" stroke-linecap="square" stroke-miterlimit="10" d="  M445.179,428.397C442.614,428.635,441.282,428.759,445.179,428.397L445.179,428.397z"/>
<path fill-rule="evenodd" clip-rule="evenodd" fill="#6D6F71" stroke="#000000" stroke-linecap="square" stroke-miterlimit="10" d="  M439.179,432.147C434.262,435.193,439.252,432.102,439.179,432.147L439.179,432.147z"/>
<path fill-rule="evenodd" clip-rule="evenodd" fill="#6D6F71" stroke="#000000" stroke-linecap="square" stroke-miterlimit="10" d="  M440.679,442.647C438.086,443.044,438.586,442.968,440.679,442.647L440.679,442.647z"/>
<path fill-rule="evenodd" clip-rule="evenodd" fill="#6D6F71" stroke="#000000" stroke-linecap="square" stroke-miterlimit="10" d="  M446.679,438.897C444.605,439.077,442.605,439.25,446.679,438.897L446.679,438.897z"/>
<path fill-rule="evenodd" clip-rule="evenodd" fill="#6D6F71" stroke="#000000" stroke-linecap="square" stroke-miterlimit="10" d="  M448.179,448.647C443.262,451.693,448.252,448.602,448.179,448.647L448.179,448.647z"/>
<path fill-rule="evenodd" clip-rule="evenodd" fill="#6D6F71" stroke="#000000" stroke-linecap="square" stroke-miterlimit="10" d="  M442.929,452.397C438.788,453.728,440.625,453.137,442.929,452.397L442.929,452.397z"/>
<path fill-rule="evenodd" clip-rule="evenodd" fill="#6D6F71" stroke="#000000" stroke-linecap="square" stroke-miterlimit="10" d="  M444.429,462.897C440.5,464.62,442.27,463.844,444.429,462.897L444.429,462.897z"/>
<path fill-rule="evenodd" clip-rule="evenodd" fill="#6D6F71" stroke="#000000" stroke-linecap="square" stroke-miterlimit="10" d="  M450.429,458.397C448.355,458.577,446.355,458.75,450.429,458.397L450.429,458.397z"/>
<path fill-rule="evenodd" clip-rule="evenodd" fill="#6D6F71" stroke="#000000" stroke-linecap="square" stroke-miterlimit="10" d="  M451.929,468.147C447.533,469.754,451.567,468.279,451.929,468.147L451.929,468.147z"/>
<path fill-rule="evenodd" clip-rule="evenodd" fill="#6D6F71" stroke="#000000" stroke-linecap="square" stroke-miterlimit="10" d="  M446.679,474.147C444.605,474.327,442.605,474.5,446.679,474.147L446.679,474.147z"/>
<path fill-rule="evenodd" clip-rule="evenodd" fill="#6D6F71" stroke="#000000" stroke-linecap="square" stroke-miterlimit="10" d="  M448.929,484.647C446.156,485.057,444.949,485.236,448.929,484.647L448.929,484.647z"/>
<path fill-rule="evenodd" clip-rule="evenodd" fill="#6D6F71" stroke="#000000" stroke-linecap="square" stroke-miterlimit="10" d="  M454.179,479.397C453.64,479.369,448.597,479.105,454.179,479.397L454.179,479.397z"/>
<path fill-rule="evenodd" clip-rule="evenodd" fill="#6D6F71" stroke="#000000" stroke-linecap="square" stroke-miterlimit="10" d="  M457.179,489.897C452.93,491.675,454.871,490.863,457.179,489.897L457.179,489.897z"/>
<path fill-rule="evenodd" clip-rule="evenodd" fill="#6D6F71" stroke="#000000" stroke-linecap="square" stroke-miterlimit="10" d="  M451.929,495.147C451.194,495.124,446.094,494.961,451.929,495.147L451.929,495.147z"/>
<path fill-rule="evenodd" clip-rule="evenodd" fill="#C4C6C8" stroke="#000000" stroke-width="2" stroke-linecap="square" stroke-miterlimit="10" d="  M272.679,405.147c-4.875,23.448-9.75,46.896-14.626,70.344c-2.467,11.864-23.636,71.121-16.874,81.156  c6.934,10.29,64.537,14.869,76.5,17.625c25.5,5.875,51,11.75,76.5,17.625c-7.053-50.649-14.105-101.3-21.158-151.949  c-3.293-23.653,1.004-25.373-22.773-27.585C324.392,409.958,298.535,407.552,272.679,405.147z"/>
<path fill-rule="evenodd" clip-rule="evenodd" fill="#939598" stroke="#000000" stroke-width="2" stroke-linecap="square" stroke-miterlimit="10" d="  M389.679,399.897c-31.082,16.857-13.866,52.774-10.004,82.048c4.835,36.65,9.669,73.302,14.504,109.952  c17.933-33.815,27.426-44.052,19.608-80.28C405.75,474.377,397.715,437.137,389.679,399.897z"/>
<path fill-rule="evenodd" clip-rule="evenodd" fill="#CCCED0" stroke="#000000" stroke-width="2" stroke-linecap="square" stroke-miterlimit="10" d="  M274.929,403.647c2.169-33.706,26.409-68.557,63-61.5c26.366,5.085,72.305,54.347,33,72c2.618-24.603-6.736-62.717-36-68.25  C296.415,338.615,293.205,386.858,274.929,403.647z"/>
<path fill-rule="evenodd" clip-rule="evenodd" fill="#808285" stroke="#000000" stroke-width="2" stroke-linecap="square" stroke-miterlimit="10" d="  M302.679,356.397c-7.059,18.9,1.805,37.92-21.75,45.75C284.149,385.082,290.057,368.708,302.679,356.397z"/>
<path fill-rule="evenodd" clip-rule="evenodd" fill="#939598" stroke="#000000" stroke-width="2" stroke-linecap="square" stroke-miterlimit="10" d="  M369.429,398.397c-38.38-4.899-62.065-15.467-93,8.25C295.224,408.328,379.573,430.97,369.429,398.397z"/>
<path fill-rule="evenodd" clip-rule="evenodd" fill="#6D6F71" stroke="#000000" stroke-linecap="square" stroke-miterlimit="10" d="  M295.929,441.897C284.153,451.91,284.354,432.311,295.929,441.897L295.929,441.897z"/>
<path fill-rule="evenodd" clip-rule="evenodd" fill="#6D6F71" stroke="#000000" stroke-linecap="square" stroke-miterlimit="10" d="  M314.679,444.147C303.184,453.84,302.949,434.061,314.679,444.147L314.679,444.147z"/>
<path fill-rule="evenodd" clip-rule="evenodd" fill="#6D6F71" stroke="#000000" stroke-linecap="square" stroke-miterlimit="10" d="  M333.429,445.647C321.814,455.303,321.771,435.073,333.429,445.647L333.429,445.647z"/>
<path fill-rule="evenodd" clip-rule="evenodd" fill="#6D6F71" stroke="#000000" stroke-linecap="square" stroke-miterlimit="10" d="  M352.179,447.147C340.514,457.271,340.514,437.023,352.179,447.147L352.179,447.147z"/>
<path fill-rule="evenodd" clip-rule="evenodd" fill="#6D6F71" stroke="#000000" stroke-linecap="square" stroke-miterlimit="10" d="  M361.179,471.147C350.59,480.665,347.9,463.403,361.179,471.147L361.179,471.147z"/>
<path fill-rule="evenodd" clip-rule="evenodd" fill="#6D6F71" stroke="#000000" stroke-linecap="square" stroke-miterlimit="10" d="  M341.679,469.647C329.933,479.66,329.933,459.634,341.679,469.647L341.679,469.647z"/>
<path fill-rule="evenodd" clip-rule="evenodd" fill="#6D6F71" stroke="#000000" stroke-linecap="square" stroke-miterlimit="10" d="  M322.929,467.397C310.979,475.02,310.798,460.439,322.929,467.397L322.929,467.397z"/>
<path fill-rule="evenodd" clip-rule="evenodd" fill="#6D6F71" stroke="#000000" stroke-linecap="square" stroke-miterlimit="10" d="  M304.179,465.147C292.604,474.733,292.403,455.134,304.179,465.147L304.179,465.147z"/>
<path fill-rule="evenodd" clip-rule="evenodd" fill="#6D6F71" stroke="#000000" stroke-linecap="square" stroke-miterlimit="10" d="  M287.679,462.897C275.632,470.106,275.632,455.688,287.679,462.897L287.679,462.897z"/>
<path fill-rule="evenodd" clip-rule="evenodd" fill="#6D6F71" stroke="#000000" stroke-linecap="square" stroke-miterlimit="10" d="  M295.929,483.147C283.979,490.77,283.798,476.189,295.929,483.147L295.929,483.147z"/>
<path fill-rule="evenodd" clip-rule="evenodd" fill="#6D6F71" stroke="#000000" stroke-linecap="square" stroke-miterlimit="10" d="  M313.179,486.147C301.048,493.105,301.229,478.524,313.179,486.147L313.179,486.147z"/>
<path fill-rule="evenodd" clip-rule="evenodd" fill="#6D6F71" stroke="#000000" stroke-linecap="square" stroke-miterlimit="10" d="  M331.179,488.397C319.103,498.787,319.131,477.117,331.179,488.397L331.179,488.397z"/>
<path fill-rule="evenodd" clip-rule="evenodd" fill="#6D6F71" stroke="#000000" stroke-linecap="square" stroke-miterlimit="10" d="  M349.179,490.647C337.477,500.201,337.424,480.217,349.179,490.647L349.179,490.647z"/>
<path fill-rule="evenodd" clip-rule="evenodd" fill="#6D6F71" stroke="#000000" stroke-linecap="square" stroke-miterlimit="10" d="  M358.179,515.397C346.433,525.41,346.433,505.384,358.179,515.397L358.179,515.397z"/>
<path fill-rule="evenodd" clip-rule="evenodd" fill="#6D6F71" stroke="#000000" stroke-linecap="square" stroke-miterlimit="10" d="  M340.179,513.147C328.477,522.701,328.424,502.717,340.179,513.147L340.179,513.147z"/>
<path fill-rule="evenodd" clip-rule="evenodd" fill="#6D6F71" stroke="#000000" stroke-linecap="square" stroke-miterlimit="10" d="  M319.929,509.397C308.153,519.41,308.354,499.811,319.929,509.397L319.929,509.397z"/>
<path fill-rule="evenodd" clip-rule="evenodd" fill="#6D6F71" stroke="#000000" stroke-linecap="square" stroke-miterlimit="10" d="  M304.179,507.147C292.132,514.356,292.132,499.938,304.179,507.147L304.179,507.147z"/>
<path fill-rule="evenodd" clip-rule="evenodd" fill="#6D6F71" stroke="#000000" stroke-linecap="square" stroke-miterlimit="10" d="  M286.179,503.397C274.403,513.41,274.604,493.811,286.179,503.397L286.179,503.397z"/>
<path fill-rule="evenodd" clip-rule="evenodd" fill="#6D6F71" stroke="#000000" stroke-linecap="square" stroke-miterlimit="10" d="  M277.929,522.147C266.183,532.16,266.183,512.134,277.929,522.147L277.929,522.147z"/>
<path fill-rule="evenodd" clip-rule="evenodd" fill="#6D6F71" stroke="#000000" stroke-linecap="square" stroke-miterlimit="10" d="  M295.179,525.897C283.433,535.91,283.433,515.884,295.179,525.897L295.179,525.897z"/>
<path fill-rule="evenodd" clip-rule="evenodd" fill="#6D6F71" stroke="#000000" stroke-linecap="square" stroke-miterlimit="10" d="  M311.679,529.647C299.933,539.66,299.933,519.634,311.679,529.647L311.679,529.647z"/>
<path fill-rule="evenodd" clip-rule="evenodd" fill="#6D6F71" stroke="#000000" stroke-linecap="square" stroke-miterlimit="10" d="  M328.929,531.897C317.183,541.91,317.183,521.884,328.929,531.897L328.929,531.897z"/>
<path fill-rule="evenodd" clip-rule="evenodd" fill="#6D6F71" stroke="#000000" stroke-linecap="square" stroke-miterlimit="10" d="  M349.179,536.397C337.048,543.355,337.229,528.774,349.179,536.397L349.179,536.397z"/>
<path fill-rule="evenodd" clip-rule="evenodd" fill="#6D6F71" stroke="#000000" stroke-linecap="square" stroke-miterlimit="10" d="  M365.679,538.647C353.548,545.605,353.729,531.024,365.679,538.647L365.679,538.647z"/>
<path fill-rule="evenodd" clip-rule="evenodd" fill="#6D6F71" stroke="#000000" stroke-linecap="square" stroke-miterlimit="10" d="  M374.679,562.647C362.548,569.605,362.729,555.024,374.679,562.647L374.679,562.647z"/>
<path fill-rule="evenodd" clip-rule="evenodd" fill="#6D6F71" stroke="#000000" stroke-linecap="square" stroke-miterlimit="10" d="  M356.679,558.147C345.969,567.982,343.239,550.528,356.679,558.147L356.679,558.147z"/>
<path fill-rule="evenodd" clip-rule="evenodd" fill="#6D6F71" stroke="#000000" stroke-linecap="square" stroke-miterlimit="10" d="  M337.179,554.397C325.433,564.41,325.433,544.384,337.179,554.397L337.179,554.397z"/>
<path fill-rule="evenodd" clip-rule="evenodd" fill="#6D6F71" stroke="#000000" stroke-linecap="square" stroke-miterlimit="10" d="  M319.929,550.647C307.516,561.116,307.516,540.178,319.929,550.647L319.929,550.647z"/>
<path fill-rule="evenodd" clip-rule="evenodd" fill="#6D6F71" stroke="#000000" stroke-linecap="square" stroke-miterlimit="10" d="  M304.179,549.147C292.604,558.733,292.403,539.134,304.179,549.147L304.179,549.147z"/>
<path fill-rule="evenodd" clip-rule="evenodd" fill="#6D6F71" stroke="#000000" stroke-linecap="square" stroke-miterlimit="10" d="  M287.679,545.397C275.168,555.164,274.903,535.281,287.679,545.397L287.679,545.397z"/>
<path fill-rule="evenodd" clip-rule="evenodd" fill="#6D6F71" stroke="#000000" stroke-linecap="square" stroke-miterlimit="10" d="  M271.179,543.147C259.477,552.701,259.424,532.717,271.179,543.147L271.179,543.147z"/>
<path fill-rule="evenodd" clip-rule="evenodd" fill="#6D6F71" stroke="#000000" stroke-linecap="square" stroke-miterlimit="10" d="  M384.429,439.647C383.305,439.607,379.101,439.456,384.429,439.647L384.429,439.647z"/>
<path fill-rule="evenodd" clip-rule="evenodd" fill="#6D6F71" stroke="#000000" stroke-linecap="square" stroke-miterlimit="10" d="  M391.179,434.397C386.262,437.443,391.252,434.352,391.179,434.397L391.179,434.397z"/>
<path fill-rule="evenodd" clip-rule="evenodd" fill="#6D6F71" stroke="#000000" stroke-linecap="square" stroke-miterlimit="10" d="  M393.429,444.147C392.305,444.107,388.101,443.956,393.429,444.147L393.429,444.147z"/>
<path fill-rule="evenodd" clip-rule="evenodd" fill="#6D6F71" stroke="#000000" stroke-linecap="square" stroke-miterlimit="10" d="  M387.429,448.647C383.777,449.812,384.463,449.593,387.429,448.647L387.429,448.647z"/>
<path fill-rule="evenodd" clip-rule="evenodd" fill="#6D6F71" stroke="#000000" stroke-linecap="square" stroke-miterlimit="10" d="  M389.679,459.147C386.292,459.957,386.384,459.935,389.679,459.147L389.679,459.147z"/>
<path fill-rule="evenodd" clip-rule="evenodd" fill="#6D6F71" stroke="#000000" stroke-linecap="square" stroke-miterlimit="10" d="  M395.679,454.647C393.233,454.973,392.871,455.022,395.679,454.647L395.679,454.647z"/>
<path fill-rule="evenodd" clip-rule="evenodd" fill="#6D6F71" stroke="#000000" stroke-linecap="square" stroke-miterlimit="10" d="  M397.179,463.647C393.25,465.37,395.019,464.594,397.179,463.647L397.179,463.647z"/>
<path fill-rule="evenodd" clip-rule="evenodd" fill="#6D6F71" stroke="#000000" stroke-linecap="square" stroke-miterlimit="10" d="  M391.929,468.147C388.277,469.312,388.963,469.093,391.929,468.147L391.929,468.147z"/>
<path fill-rule="evenodd" clip-rule="evenodd" fill="#6D6F71" stroke="#000000" stroke-linecap="square" stroke-miterlimit="10" d="  M393.429,478.647C392.694,478.624,387.594,478.461,393.429,478.647L393.429,478.647z"/>
<path fill-rule="evenodd" clip-rule="evenodd" fill="#6D6F71" stroke="#000000" stroke-linecap="square" stroke-miterlimit="10" d="  M398.679,474.147C393.762,477.193,398.752,474.102,398.679,474.147L398.679,474.147z"/>
<path fill-rule="evenodd" clip-rule="evenodd" fill="#6D6F71" stroke="#000000" stroke-linecap="square" stroke-miterlimit="10" d="  M400.929,484.647C397.542,485.457,397.634,485.435,400.929,484.647L400.929,484.647z"/>
<path fill-rule="evenodd" clip-rule="evenodd" fill="#6D6F71" stroke="#000000" stroke-linecap="square" stroke-miterlimit="10" d="  M394.929,488.397C392.364,488.635,391.033,488.759,394.929,488.397L394.929,488.397z"/>
<path fill-rule="evenodd" clip-rule="evenodd" fill="#6D6F71" stroke="#000000" stroke-linecap="square" stroke-miterlimit="10" d="  M396.429,498.897C392.378,500.217,395.255,499.28,396.429,498.897L396.429,498.897z"/>
<path fill-rule="evenodd" clip-rule="evenodd" fill="#6D6F71" stroke="#000000" stroke-linecap="square" stroke-miterlimit="10" d="  M402.429,494.397C401.57,494.382,398.553,494.329,402.429,494.397L402.429,494.397z"/>
<path fill-rule="evenodd" clip-rule="evenodd" fill="#6D6F71" stroke="#000000" stroke-linecap="square" stroke-miterlimit="10" d="  M404.679,504.147C402.595,504.334,400.124,504.558,404.679,504.147L404.679,504.147z"/>
<path fill-rule="evenodd" clip-rule="evenodd" fill="#6D6F71" stroke="#000000" stroke-linecap="square" stroke-miterlimit="10" d="  M398.679,510.147C398.139,510.119,393.097,509.855,398.679,510.147L398.679,510.147z"/>
<path fill-rule="evenodd" clip-rule="evenodd" fill="#6D6F71" stroke="#000000" stroke-linecap="square" stroke-miterlimit="10" d="  M400.929,520.647C399.805,520.607,395.601,520.456,400.929,520.647L400.929,520.647z"/>
<path fill-rule="evenodd" clip-rule="evenodd" fill="#6D6F71" stroke="#000000" stroke-linecap="square" stroke-miterlimit="10" d="  M406.179,514.647C401.262,517.693,406.252,514.602,406.179,514.647L406.179,514.647z"/>
<path fill-rule="evenodd" clip-rule="evenodd" fill="#6D6F71" stroke="#000000" stroke-linecap="square" stroke-miterlimit="10" d="  M409.179,525.897C405.77,526.747,406.504,526.563,409.179,525.897L409.179,525.897z"/>
<path fill-rule="evenodd" clip-rule="evenodd" fill="#6D6F71" stroke="#000000" stroke-linecap="square" stroke-miterlimit="10" d="  M403.929,530.397C400.069,531.944,401.084,531.538,403.929,530.397L403.929,530.397z"/>
</svg>