<svg xmlns="http://www.w3.org/2000/svg" xmlns:xlink="http://www.w3.org/1999/xlink" version="1.1" id="Layer_1" x="0px" y="0px" enable-background="new 0 0 822.05 841.89" xml:space="preserve" viewBox="221.44 276.39 383.33 290.24">
<path fill-rule="evenodd" clip-rule="evenodd" fill="#BCBEC0" stroke="#000000" stroke-width="2" stroke-linecap="square" stroke-miterlimit="10" d="  M437.691,332.147c10.699-30.728,39.152-25.869,50.25,1.875c19.437,48.591-68.639,57.58-93.75,63.375  c26.239-17.45,64.552-14.183,82.875-43.5c6.029-9.646,1.59-28.528-10.875-32.25c-14.899-4.449-24.901,14.828-36,22.5  C432.691,340.147,435.191,336.147,437.691,332.147z"/>
<path fill-rule="evenodd" clip-rule="evenodd" fill="#A7A9AC" stroke="#000000" stroke-width="2" stroke-linecap="square" stroke-miterlimit="10" d="  M343.941,398.897c-16.408-1.763-36.797,10.763-36,29.25c1.253,29.061,47.857,32.116,68.25,29.25  c21.233-2.984,52.754-13.674,38.25-39.75C401.834,394.981,364.375,397.327,343.941,398.897z"/>
<path fill-rule="evenodd" clip-rule="evenodd" fill="#BCBEC0" stroke="#000000" stroke-width="2" stroke-linecap="square" stroke-miterlimit="10" d="  M232.191,283.397c61.872,35.637,52.47,150.359,155.25,116.25c14.426-4.788,71.562-62.444,44.107-68.957  C365.096,314.925,298.644,299.161,232.191,283.397z"/>
<path fill-rule="evenodd" clip-rule="evenodd" fill="#84888E" stroke="#000000" stroke-width="2" stroke-linecap="square" stroke-miterlimit="10" d="  M437.691,332.147c-38.479-15.426-81.419-13.61-118.125-33.375c-27.527-14.822-52.567-28.844-84.375-16.875  c35.777,19.918,44.776,64.447,82.5,80.25C352.628,376.782,414.71,364.423,437.691,332.147z"/>
<path fill-rule="evenodd" clip-rule="evenodd" fill="#EAB649" stroke="#000000" stroke-width="2" stroke-linecap="square" stroke-miterlimit="10" d="  M285.441,326.147c40.821-10.61,95.125-10.82,129.75,16.5C376.576,370.238,311.898,371.088,285.441,326.147z"/>
<line fill="none" stroke="#000000" stroke-width="2" stroke-linecap="square" stroke-miterlimit="10" x1="349.941" y1="401.897" x2="333.441" y2="424.397"/>
<line fill="none" stroke="#000000" stroke-width="2" stroke-linecap="square" stroke-miterlimit="10" x1="384.441" y1="399.647" x2="397.941" y2="419.147"/>
<path fill-rule="evenodd" clip-rule="evenodd" fill="#BCBEC0" stroke="#000000" stroke-width="2" stroke-linecap="square" stroke-miterlimit="10" d="  M551.691,392.147c8.99-31.452,44.279-26.271,51,3.75c10.974,49.017-64.768,54.639-94.5,61.5  c26.467-16.658,64.726-15.211,82.875-44.25c5.77-9.231,1.641-28.758-10.875-32.25c-14.079-3.928-26.295,15.43-36,22.5  C546.691,399.647,549.191,395.897,551.691,392.147z"/>
<path fill-rule="evenodd" clip-rule="evenodd" fill="#A7A9AC" stroke="#000000" stroke-width="2" stroke-linecap="square" stroke-miterlimit="10" d="  M457.941,458.147c-15.927-1.208-36.327,11.215-36,29.25c0.535,29.456,47.823,32.961,68.25,30c21.38-3.1,52.434-14.226,38.25-39.75  C515.391,454.161,478.805,458.011,457.941,458.147z"/>
<path fill-rule="evenodd" clip-rule="evenodd" fill="#BCBEC0" stroke="#000000" stroke-width="2" stroke-linecap="square" stroke-miterlimit="10" d="  M346.191,342.647c60.035,38.309,53.635,149.234,155.25,117c14.827-4.704,71.097-62.479,44.107-68.979  C479.097,374.661,412.644,358.654,346.191,342.647z"/>
<path fill-rule="evenodd" clip-rule="evenodd" fill="#84888E" stroke="#000000" stroke-width="2" stroke-linecap="square" stroke-miterlimit="10" d="  M551.691,392.147c-38.73-15.541-81.168-14.225-118.125-34.125c-27.312-14.707-53.262-28.324-84.375-16.125  c37.717,17.408,44.566,63.024,82.5,79.5C466.248,436.406,528.779,424.327,551.691,392.147z"/>
<path fill-rule="evenodd" clip-rule="evenodd" fill="#EAB649" stroke="#000000" stroke-width="2" stroke-linecap="square" stroke-miterlimit="10" d="  M399.441,386.147c42.84-10.469,92.271-10.095,129.75,15.75C492.603,430.453,424.319,430.58,399.441,386.147z"/>
<line fill="none" stroke="#000000" stroke-width="2" stroke-linecap="square" stroke-miterlimit="10" x1="463.941" y1="461.897" x2="447.441" y2="483.647"/>
<line fill="none" stroke="#000000" stroke-width="2" stroke-linecap="square" stroke-miterlimit="10" x1="498.441" y1="459.647" x2="511.941" y2="478.397"/>
<path fill-rule="evenodd" clip-rule="evenodd" fill="#BCBEC0" stroke="#000000" stroke-width="2" stroke-linecap="square" stroke-miterlimit="10" d="  M427.941,437.897c8.935-31.231,43.779-25.183,51,3.75c12.294,49.263-66.567,54.953-95.25,61.5  c26.492-15.721,65.515-14.523,83.625-43.5c6.77-10.832,0.093-30.636-13.875-33c-12.126-2.052-24.562,17.104-33,23.25  C422.941,445.897,425.441,441.897,427.941,437.897z"/>
<path fill-rule="evenodd" clip-rule="evenodd" fill="#A7A9AC" stroke="#000000" stroke-width="2" stroke-linecap="square" stroke-miterlimit="10" d="  M333.441,504.647c-55.165-4.859-34.578,72.016,27.375,59.625C444.694,547.497,391.155,500.794,333.441,504.647z"/>
<path fill-rule="evenodd" clip-rule="evenodd" fill="#BCBEC0" stroke="#000000" stroke-width="2" stroke-linecap="square" stroke-miterlimit="10" d="  M222.441,389.147c58.211,37.921,55.507,150.963,155.25,117c15.046-5.123,70.433-63.462,44.107-69.707  C355.346,420.675,288.894,404.911,222.441,389.147z"/>
<path fill-rule="evenodd" clip-rule="evenodd" fill="#84888E" stroke="#000000" stroke-width="2" stroke-linecap="square" stroke-miterlimit="10" d="  M427.941,437.897c-38.991-11.706-82.837-13.97-118.875-33.375c-26.938-14.505-52.32-29.161-83.625-16.875  c33.897,21.464,45.55,64.795,82.5,80.25C342.25,482.247,406.008,470.863,427.941,437.897z"/>
<path fill-rule="evenodd" clip-rule="evenodd" fill="#EAB649" stroke="#000000" stroke-width="2" stroke-linecap="square" stroke-miterlimit="10" d="  M275.691,431.897c43.176-7.313,92.563-11.954,129.75,16.5C367.683,473.102,299.603,480.057,275.691,431.897z"/>
<line fill="none" stroke="#000000" stroke-width="2" stroke-linecap="square" stroke-miterlimit="10" x1="340.191" y1="507.647" x2="322.941" y2="530.147"/>
<line fill="none" stroke="#000000" stroke-width="2" stroke-linecap="square" stroke-miterlimit="10" x1="373.941" y1="506.147" x2="387.441" y2="524.897"/>
</svg>