<svg xmlns="http://www.w3.org/2000/svg" xmlns:xlink="http://www.w3.org/1999/xlink" version="1.1" id="Layer_1" x="0px" y="0px" enable-background="new 0 0 822.05 841.89" xml:space="preserve" viewBox="217.1 266.89 384.38 309.5">
<path fill-rule="evenodd" clip-rule="evenodd" fill="#DEF2FD" stroke="#000000" stroke-width="2" stroke-linecap="square" stroke-miterlimit="10" d="  M321.6,295.644c-34.5,30.75-69,61.5-103.5,92.25c28.459,3.044,126.293,29.788,145.258,9.694  c40.331-42.731,80.661-85.463,120.992-128.194C430.1,278.144,375.85,286.894,321.6,295.644z"/>
<path fill-rule="evenodd" clip-rule="evenodd" fill="#DEF2FD" stroke="#000000" stroke-width="2" stroke-linecap="square" stroke-miterlimit="10" d="  M233.85,392.394c0.681,34.039,1.361,68.077,2.042,102.116c0.469,23.469,52.198,38.149,70.918,48.147  c20.656,11.032,47.506,34.463,71.749,31.422c43.007-5.395,86.015-10.789,129.023-16.184c9.202-1.154,75.591-3.968,75.88-13.014  c1.325-41.452,2.649-82.905,3.975-124.357c1.184-37.031-0.294-37.921-26.06-65.159c-25.926-27.407-51.852-54.815-77.777-82.222  c-38.886,40.283-77.771,80.565-116.657,120.848C343.693,418.078,266.176,395.121,233.85,392.394z"/>
<line fill="none" stroke="#000000" stroke-width="2" stroke-linecap="square" stroke-miterlimit="10" x1="360.6" y1="291.144" x2="255.6" y2="391.644"/>
<line fill="none" stroke="#000000" stroke-width="2" stroke-linecap="square" stroke-miterlimit="10" x1="392.85" y1="287.394" x2="278.1" y2="394.644"/>
<line fill="none" stroke="#000000" stroke-width="2" stroke-linecap="square" stroke-miterlimit="10" x1="439.35" y1="279.144" x2="310.35" y2="399.144"/>
<path fill="none" stroke="#000000" stroke-width="2" stroke-linecap="square" stroke-miterlimit="10" d="M488.1,267.894  c20.013,21.582,121.235,106.502,111.75,131.25C582.547,373.317,476.532,285.602,488.1,267.894z"/>
<path fill-rule="evenodd" clip-rule="evenodd" fill="#CDDAE3" stroke="#000000" stroke-width="2" stroke-linecap="square" stroke-miterlimit="10" d="  M440.1,567.892c-1-52.749-2-105.499-3-158.248c25.15,0,50.301,0,75.451,0c3.945,0,2.479,66.718,2.549,73.499  c0.126,12.359,8.779,63.852,0.75,73.499C507.581,566.577,454.063,565.818,440.1,567.892z"/>
<path fill-rule="evenodd" clip-rule="evenodd" fill="#BCBEC0" d="M358.35,402.894c3.25,57.499,6.5,114.999,9.75,172.498  c-1.499-19.859,5.542-76.528-15.278-81.889c-38.657-9.954-77.315-19.907-115.972-29.861c-0.762,41.932-2.513,40.309,33.472,59.527  c32.593,17.408,65.185,34.815,97.778,52.223C364.85,517.893,361.6,460.393,358.35,402.894z"/>
<path fill="none" stroke="#000000" stroke-width="2" stroke-linecap="square" stroke-miterlimit="10" d="M358.35,402.894  c3.25,57.499,6.5,114.999,9.75,172.498c-1.499-19.859,5.542-76.528-15.278-81.889c-38.657-9.954-77.315-19.907-115.972-29.861  c-0.762,41.932-2.513,40.309,33.472,59.527c32.593,17.408,65.185,34.815,97.778,52.223"/>
<path fill-rule="evenodd" clip-rule="evenodd" fill="#0DB14B" stroke="#000000" stroke-width="2" stroke-linecap="square" stroke-miterlimit="10" d="  M236.85,463.642c1.577-31.957,50.847-28.337,52.5-1.5c10.685-34.721,41.267,2.021,55.5,8.25c18.36-32.12,16.196,7.588,17.25,25.5  C320.35,485.142,278.6,474.392,236.85,463.642z"/>
<path fill-rule="evenodd" clip-rule="evenodd" fill="#0DB14B" stroke="#000000" stroke-width="2" stroke-linecap="square" stroke-miterlimit="10" d="  M359.85,457.642c10.648,3.257,16.859,12.058,17.25,23.25c15.346-34.125,68.674-14.423,59.25,23.25  c-21.728-1.568-43.456-3.136-65.184-4.704C356.184,498.357,361.036,470.691,359.85,457.642z"/>
<path fill-rule="evenodd" clip-rule="evenodd" fill="#BCBEC0" stroke="#000000" stroke-width="2" stroke-linecap="square" stroke-miterlimit="10" d="  M368.1,575.392c18.816-1.96,37.632-3.92,56.448-5.88c23.283-2.426,15.182-12.73,14.427-35.37  c-0.689-20.679,6.611-33.29-14.955-34.571c-20.64-1.227-41.28-2.452-61.92-3.679C364.1,522.392,366.1,548.892,368.1,575.392z"/>
<path fill-rule="evenodd" clip-rule="evenodd" fill="#0DB14B" stroke="#000000" stroke-width="2" stroke-linecap="square" stroke-miterlimit="10" d="  M517.35,498.892c4.706-30.332,56.061-42.659,65.25-9.75C560.85,492.392,539.1,495.642,517.35,498.892z"/>
<path fill-rule="evenodd" clip-rule="evenodd" fill="#BCBEC0" stroke="#000000" stroke-width="2" stroke-linecap="square" stroke-miterlimit="10" d="  M515.85,502.642c0,18,0,36,0,54c21.87-2.673,43.74-5.346,65.61-8.019c4.804-0.588,1.238-51.693,1.14-59.481  C560.35,493.642,538.1,498.142,515.85,502.642z"/>
</svg>