<svg xmlns="http://www.w3.org/2000/svg" xmlns:xlink="http://www.w3.org/1999/xlink" version="1.1" id="Layer_1" x="0px" y="0px" enable-background="new 0 0 822.05 841.89" xml:space="preserve" viewBox="321.75 332.7 176.88 178.44">
<path fill-rule="evenodd" clip-rule="evenodd" fill="#D2D1D2" d="M351.25,415.89c37.264-25.619,37.224-22.15,18-63  c-4.32,7.12-74.969,99.756-35.625,107.625c15.455,3.091,32.631-18.13,42.178-26.367c16.653-14.367,33.306-28.734,49.959-43.102  c9.06-7.816-13.69-28.867-19.763-37.406c-8.067,12.1-108.475,129.124-67.5,146.25c17.773,7.429,43.458-27.623,51.701-35.549  c20.342-19.56,40.683-39.118,61.025-58.678c12.726-12.236-6.214-33.219-12.976-47.523  c-10.709,15.189-114.911,128.753-77.625,151.125c17.484,10.49,44.156-26.087,52.826-34.424  c20.341-19.56,40.683-39.118,61.024-58.678c12.687-12.199-5.677-33.116-12.226-47.523c-14.646,20-97.641,101.265-81,132.75  c20.278,38.366,89.038-56.998,100.5-69c-10-9-20-18-30-27c-8.316,15.472-50.99,69.372-38.25,91.5  c14.452,25.102,39.776-7.211,50.832-17.91c9.991-9.668,35.068-45.529,11.793-54.84c-9.658-3.863-14.787,1.129-22.875,5.25  c-35.025,17.846-15.24,33.422,1.5,56.25c5.998-11.158,63.696-90.993,27-101.25c-14.358-4.014-31.543,20.451-39.312,28.4  c-15.276,15.631-30.552,31.263-45.828,46.894c-8.843,9.049,14.812,30.363,21.39,39.456c8.196-11.314,113.083-126.54,70.5-142.5  c-19.328-7.245-48.731,33.202-58.3,42.328c-19.062,18.183-38.125,36.365-57.187,54.548c-7.37,7.029,12.294,35.256,16.486,44.124  c10.65-15.105,113.023-126.273,79.5-150c-16.762-11.863-38.502,17.723-47.778,26.643c-21.109,20.297-42.218,40.594-63.327,60.892  c-17.862,17.176-0.695,25.41,12.855,44.466c11.25-17.058,99.848-114.682,73.5-141c-12.449-12.436-26.595,1.264-36.783,9.955  c-19.478,16.614-38.957,33.227-58.435,49.841c-15.95,13.604,4.236,26.364,14.967,41.455c15.52-25.579,47.25-59.381,47.25-91.125  c0-15.853-15.78-20.229-27.417-11.986c-21.325,15.105-49.039,28.683-55.833,55.861C324.057,408.413,334.357,426.112,351.25,415.89z"/>
</svg>