<svg xmlns="http://www.w3.org/2000/svg" xmlns:xlink="http://www.w3.org/1999/xlink" version="1.1" id="Layer_1" x="0px" y="0px" enable-background="new 0 0 822.05 841.89" xml:space="preserve" viewBox="312.65 336.24 196.35 172.28">
<path fill-rule="evenodd" clip-rule="evenodd" fill="#EDCBA6" stroke="#000000" stroke-width="1.25" stroke-linecap="square" stroke-miterlimit="10" d="  M352.271,440.39C340.835,463.924,336.458,420.648,352.271,440.39L352.271,440.39z"/>
<path fill-rule="evenodd" clip-rule="evenodd" fill="#EDCBA6" stroke="#000000" stroke-width="1.25" stroke-linecap="square" stroke-miterlimit="10" d="  M415.273,452.39C396.713,468.426,406.98,429.941,415.273,452.39L415.273,452.39z"/>
<path fill-rule="evenodd" clip-rule="evenodd" fill="#EDCBA6" stroke="#000000" stroke-width="1.25" stroke-linecap="square" stroke-miterlimit="10" d="  M410.771,474.89c-22.795-12.078-34.959-21.398-58.5-3.75c-8.027,6.018-34.607,31.5-10.23,31.5  C381.632,502.64,399.103,514.138,410.771,474.89z"/>
<path fill-rule="evenodd" clip-rule="evenodd" fill="#EDCBA6" stroke="#000000" stroke-width="1.25" stroke-linecap="square" stroke-miterlimit="10" d="  M350.021,417.14c-16.02,42.854,37.64,85.925,58.875,36.375C432.853,397.619,364.558,361.391,350.021,417.14z"/>
<path fill-rule="evenodd" clip-rule="evenodd" d="M375.521,441.14c-2.263,0.221-2.048,5.684-5.25,0.75  C371.33,435.581,372.901,441.396,375.521,441.14z"/>
<path fill-rule="evenodd" clip-rule="evenodd" d="M394.271,444.89c-2.048-0.782-4.627,4.241-4.5-2.25  C394.295,440.04,392.724,444.299,394.271,444.89z"/>
<path fill="none" stroke="#000000" stroke-linecap="square" stroke-miterlimit="10" d="M377.771,451.64  c1.301,3.363,3.654,4.251,6.75,2.25"/>
<line fill="none" stroke="#000000" stroke-width="0.75" stroke-linecap="square" stroke-miterlimit="10" x1="392.021" y1="440.39" x2="392.021" y2="440.39"/>
<path fill="none" stroke="#000000" stroke-width="0.75" stroke-linecap="square" stroke-miterlimit="10" d="M389.021,438.14  c2.442,3.101,5.817,4.916,9.75,5.25"/>
<path fill="none" stroke="#000000" stroke-width="0.75" stroke-linecap="square" stroke-miterlimit="10" d="M365.771,439.64  c3.88-0.516,7.646-1.518,11.25-3"/>
<path fill-rule="evenodd" clip-rule="evenodd" fill="#590C08" stroke="#000000" stroke-linecap="square" stroke-miterlimit="10" d="  M387.521,465.89c-6.122,1.103-9.853,5.439-15.75-1.5C378.856,459.879,381.45,464.441,387.521,465.89z"/>
<path fill-rule="evenodd" clip-rule="evenodd" fill="#186522" stroke="#000000" stroke-width="1.25" stroke-linecap="square" stroke-miterlimit="10" d="  M432.523,470.39c-17.82-24.776-33.085,22.736-59.252,18.375c-15.968-2.661-17.505-24.32-30.75-25.875  c-20.81-2.443-26.591,28.777-29.25,45c44,0,88.001,0,132.002,0C441.494,494.913,438.709,482.342,432.523,470.39z"/>
<path fill-rule="evenodd" clip-rule="evenodd" fill="#FFFFFF" stroke="#000000" stroke-linecap="square" stroke-miterlimit="10" d="  M503.773,372.14c13.797-45.573-65.923-41.44-81.75-19.5c-19.598,27.167,25.573,81.592,48.75,53.25  C491.749,432.333,519.747,395.949,503.773,372.14z"/>
<path fill-rule="evenodd" clip-rule="evenodd" fill="#FFFFFF" stroke="#000000" stroke-linecap="square" stroke-miterlimit="10" d="  M418.273,414.14C409.817,414.14,409.817,414.14,418.273,414.14L418.273,414.14z"/>
<path fill-rule="evenodd" clip-rule="evenodd" fill="#FFFFFF" stroke="#000000" stroke-linecap="square" stroke-miterlimit="10" d="  M431.773,405.89C418.322,411.746,418.322,400.035,431.773,405.89L431.773,405.89z"/>
<path fill-rule="evenodd" clip-rule="evenodd" fill="#99330C" d="M459.523,359.39L459.523,359.39L459.523,359.39z"/>
<line fill="none" stroke="#000000" stroke-width="1.25" stroke-linecap="square" stroke-miterlimit="10" x1="459.523" y1="359.39" x2="459.523" y2="359.39"/>
<path fill-rule="evenodd" clip-rule="evenodd" fill="#8ED4E5" stroke="#000000" stroke-width="0.75" stroke-linecap="square" stroke-miterlimit="10" d="  M491.773,399.89c-16.987,0-33.975,0-50.962,0c-2.371,0-5.988-42.122-2.288-46.5c4.325-5.118,43.281,0,50.962,0  C494.363,353.39,491.773,393.029,491.773,399.89z"/>
<path fill-rule="evenodd" clip-rule="evenodd" fill="#FFFFFF" stroke="#000000" stroke-width="0.75" stroke-linecap="square" stroke-miterlimit="10" d="  M461.773,372.89c-4.75,1-9.5,2-14.25,3c2.75,1,5.5,2,8.25,3c-1.25,2.75-2.5,5.5-3.75,8.25c3.5-1.25,7-2.5,10.5-3.75  c0.25,2,0.5,4,0.75,6c6.891-3.024,1.559-3.098,11.25-3.75c1.115-7.516,0.483-5.759,3-13.5c-8.999-5.617-4.626-3.873-12-12  C464.273,364.39,463.023,368.64,461.773,372.89z"/>
<path fill-rule="evenodd" clip-rule="evenodd" fill="#8ED4E5" d="M479.023,371.39c3.212-1.339,2.318-3.491,7.5-2.25  C484.023,369.89,481.523,370.64,479.023,371.39z"/>
<path fill="none" stroke="#000000" stroke-width="0.75" stroke-linecap="square" stroke-miterlimit="10" d="M479.023,371.39  c1.773-4.223,3.737-3.151,7.5-2.25"/>
<path fill-rule="evenodd" clip-rule="evenodd" fill="#8ED4E5" d="M474.523,385.64c7.344,3.283,6.572,2.427,13.5,6.75  C483.559,390.158,479.163,387.468,474.523,385.64z"/>
<path fill="none" stroke="#000000" stroke-width="0.75" stroke-linecap="square" stroke-miterlimit="10" d="M474.523,385.64  c7.226,2.809,6.818,2.581,13.5,6.75"/>
<path fill-rule="evenodd" clip-rule="evenodd" fill="#8ED4E5" d="M452.023,387.14c-3.097,3.582-7.354,2.18-4.5,7.5  C449.023,392.14,450.523,389.64,452.023,387.14z"/>
<path fill="none" stroke="#000000" stroke-width="0.75" stroke-linecap="square" stroke-miterlimit="10" d="M452.023,387.14  c-4.083,1.488-6.52,3.737-4.5,7.5"/>
<path fill-rule="evenodd" clip-rule="evenodd" fill="#8ED4E5" d="M445.273,375.89c-2.061-5.566-0.52-6.452-5.25-12  C441.773,367.89,443.523,371.89,445.273,375.89z"/>
<path fill="none" stroke="#000000" stroke-width="0.75" stroke-linecap="square" stroke-miterlimit="10" d="M445.273,375.89  c-0.263-5.461-1.197-7.248-5.25-12"/>
</svg>