<svg xmlns="http://www.w3.org/2000/svg" xmlns:xlink="http://www.w3.org/1999/xlink" version="1.1" id="Layer_1" x="0px" y="0px" enable-background="new 0 0 822.05 841.89" xml:space="preserve" viewBox="312.62 345.87 197.88 153.52">
<path fill-rule="evenodd" clip-rule="evenodd" fill="#5E1F0A" d="M484.5,348.016l16.5,21.75L484.5,348.016z"/>
<line fill="none" stroke="#000000" stroke-linecap="square" stroke-miterlimit="10" x1="484.5" y1="348.016" x2="501" y2="369.766"/>
<path fill-rule="evenodd" clip-rule="evenodd" fill="#5E1F0A" d="M476.25,353.266l16.5,22.5L476.25,353.266z"/>
<line fill="none" stroke="#000000" stroke-linecap="square" stroke-miterlimit="10" x1="476.25" y1="353.266" x2="492.75" y2="375.766"/>
<path fill-rule="evenodd" clip-rule="evenodd" fill="#F7DE58" stroke="#000000" stroke-linecap="square" stroke-miterlimit="10" d="  M416.25,416.266c23.36,33.574-20.055,39.359-31.875,63c-16.14,32.28-47.647,20.61-62.625-5.25c-23.475-40.531,5.377-41.183,33.75-54  C377.939,409.879,395.439,380.683,416.25,416.266z"/>
<path fill-rule="evenodd" clip-rule="evenodd" fill="#FFFFFF" stroke="#000000" stroke-linecap="square" stroke-miterlimit="10" d="  M397.5,446.266c-17.481,9.193-37.362-13.041-20.25-25.875C395.764,406.505,413.767,430.957,397.5,446.266z"/>
<path fill-rule="evenodd" clip-rule="evenodd" fill="#131211" stroke="#000000" stroke-linecap="square" stroke-miterlimit="10" d="  M393.75,441.016c-10.222,2.416-23.343-6.245-12-16.5C393.08,414.272,399.013,432.438,393.75,441.016z"/>
<line fill="none" stroke="#000000" stroke-linecap="square" stroke-miterlimit="10" x1="487.5" y1="360.766" x2="487.5" y2="360.766"/>
<path fill-rule="evenodd" clip-rule="evenodd" fill="#99330C" stroke="#000000" stroke-linecap="square" stroke-miterlimit="10" d="  M392.25,437.266c-2.75-3.75-5.5-7.5-8.25-11.25c-1,0.75-2,1.5-3,2.25C383.771,437.132,390.038,435.778,392.25,437.266z M396,434.266  c13.023-7.529,92.846-52.48,77.25-69c-29.601,20.429-56.688,40.638-85.5,58.5C389.216,426.555,395.042,433.582,396,434.266z   M395.25,435.016c-2.5-3.75-5-7.5-7.5-11.25c-1,0.75-2,1.5-3,2.25C387.255,433.567,394.113,434.16,395.25,435.016z"/>
<path fill-rule="evenodd" clip-rule="evenodd" fill="#282828" stroke="#000000" stroke-linecap="square" stroke-miterlimit="10" d="  M393,441.766C344.412,451.368,422.098,401.682,393,441.766L393,441.766z"/>
<path fill-rule="evenodd" clip-rule="evenodd" fill="#5E1F0A" d="M476.25,367.516L348,456.766L476.25,367.516z"/>
<line fill="none" stroke="#000000" stroke-linecap="square" stroke-miterlimit="10" x1="476.25" y1="367.516" x2="348" y2="456.766"/>
<path fill-rule="evenodd" clip-rule="evenodd" fill="#5E1F0A" d="M477.75,372.766l-129,89.25L477.75,372.766z"/>
<line fill="none" stroke="#000000" stroke-linecap="square" stroke-miterlimit="10" x1="477.75" y1="372.766" x2="348.75" y2="462.016"/>
<path fill-rule="evenodd" clip-rule="evenodd" fill="#5E1F0A" d="M475.5,363.766l-129,89.25L475.5,363.766z"/>
<line fill="none" stroke="#000000" stroke-linecap="square" stroke-miterlimit="10" x1="475.5" y1="363.766" x2="346.5" y2="453.016"/>
<path fill-rule="evenodd" clip-rule="evenodd" fill="#5E1F0A" d="M480.75,377.266l-128.25,89.25L480.75,377.266z"/>
<line fill="none" stroke="#000000" stroke-linecap="square" stroke-miterlimit="10" x1="480.75" y1="377.266" x2="352.5" y2="466.516"/>
<path fill-rule="evenodd" clip-rule="evenodd" fill="#5E1F0A" stroke="#000000" stroke-linecap="square" stroke-miterlimit="10" d="  M342,440.266c-6.581,11.044,9.23,24.303,18,36.75c1.75-1.25,3.5-2.5,5.25-3.75C357.5,462.266,349.75,451.266,342,440.266z"/>
<path fill-rule="evenodd" clip-rule="evenodd" fill="#5E1F0A" stroke="#000000" stroke-linecap="square" stroke-miterlimit="10" d="  M510,357.766c-4.922-28.011-48.169,2.312-29.25,19.5C490.5,370.766,500.25,364.266,510,357.766z M480,366.766  c-1.993-4.745,5.557-12.569,15.75-15.75C496.124,358.125,488.374,362.858,480,366.766z M484.5,372.766  C481.188,361.316,521.188,350.769,484.5,372.766L484.5,372.766z"/>
<path fill-rule="evenodd" clip-rule="evenodd" d="M480,354.016C472.6,353.463,472.527,353.458,480,354.016L480,354.016z"/>
<path fill-rule="evenodd" clip-rule="evenodd" d="M496.5,376.516C488.688,376.958,488.743,376.956,496.5,376.516L496.5,376.516z"/>
<path fill-rule="evenodd" clip-rule="evenodd" d="M504.75,371.266C497.269,371.266,497.269,371.266,504.75,371.266L504.75,371.266z"/>
<path fill-rule="evenodd" clip-rule="evenodd" d="M488.25,347.266C480.446,347.266,480.446,347.266,488.25,347.266L488.25,347.266z"/>
</svg>