<svg xmlns="http://www.w3.org/2000/svg" xmlns:xlink="http://www.w3.org/1999/xlink" version="1.1" id="Layer_1" x="0px" y="0px" enable-background="new 0 0 822.05 841.89" xml:space="preserve" viewBox="225 267.43 371.02 308.24">
<path fill-rule="evenodd" clip-rule="evenodd" fill="#EAB649" stroke="#000000" stroke-width="2" stroke-linecap="square" stroke-miterlimit="10" d="  M378.25,317.4c-3.446,64.378-100.975,65.203-101.25,0C276.724,251.951,375.488,252.26,378.25,317.4z"/>
<path fill-rule="evenodd" clip-rule="evenodd" fill="#904098" stroke="#000000" stroke-width="2" stroke-linecap="square" stroke-miterlimit="10" d="  M343.75,363.15c0.293,65.122-100.484,65.108-100.5,0C243.234,298.055,344.473,298.043,343.75,363.15z"/>
<path fill-rule="evenodd" clip-rule="evenodd" fill="#CB97C4" stroke="#000000" stroke-width="2" stroke-linecap="square" stroke-miterlimit="10" d="  M453.25,318.9c-2.897,64.906-101.485,65.531-101.25,0C352.234,253.696,450.494,254.186,453.25,318.9z"/>
<path fill-rule="evenodd" clip-rule="evenodd" fill="#EC008C" stroke="#000000" stroke-width="2" stroke-linecap="square" stroke-miterlimit="10" d="  M427,384.15c1.208,64.97-101.25,64.974-101.25,0C325.75,319.114,428.629,319.167,427,384.15z"/>
<path fill-rule="evenodd" clip-rule="evenodd" fill="#ED1C24" stroke="#000000" stroke-width="2" stroke-linecap="square" stroke-miterlimit="10" d="  M361,441.15c0.293,65.073-101.25,64.947-101.25,0C259.75,376.185,361.723,376.016,361,441.15z"/>
<path fill-rule="evenodd" clip-rule="evenodd" fill="#7BD3F7" stroke="#000000" stroke-width="2" stroke-linecap="square" stroke-miterlimit="10" d="  M327.25,507.15c-3.321,64.576-101.022,65.218-101.25,0C225.771,441.803,323.873,442.591,327.25,507.15z"/>
<path fill-rule="evenodd" clip-rule="evenodd" fill="#FFF200" stroke="#000000" stroke-width="2" stroke-linecap="square" stroke-miterlimit="10" d="  M448,447.15c1.208,64.97-101.25,64.974-101.25,0C346.75,382.114,449.629,382.167,448,447.15z"/>
<path fill-rule="evenodd" clip-rule="evenodd" fill="#0DB14B" stroke="#000000" stroke-width="2" stroke-linecap="square" stroke-miterlimit="10" d="  M501.25,356.4c-2.879,64.552-100.762,65.118-101.25,0C399.509,290.831,498.664,291.317,501.25,356.4z"/>
<path fill-rule="evenodd" clip-rule="evenodd" fill="#7BD3F7" stroke="#000000" stroke-width="2" stroke-linecap="square" stroke-miterlimit="10" d="  M529,435.15c1.208,64.953-101.25,64.979-101.25,0C427.75,370.109,530.629,370.183,529,435.15z"/>
<path fill-rule="evenodd" clip-rule="evenodd" fill="#904098" stroke="#000000" stroke-width="2" stroke-linecap="square" stroke-miterlimit="10" d="  M495.25,507.9c-2.889,64.717-101.484,65.4-101.25,0C394.233,442.697,492.496,443.23,495.25,507.9z"/>
<path fill-rule="evenodd" clip-rule="evenodd" fill="#0DB14B" stroke="#000000" stroke-width="2" stroke-linecap="square" stroke-miterlimit="10" d="  M402.25,525.9c-3.381,64.638-101.479,65.424-101.25,0C301.228,460.682,398.929,461.324,402.25,525.9z"/>
<path fill-rule="evenodd" clip-rule="evenodd" fill="#ED1C24" stroke="#000000" stroke-width="2" stroke-linecap="square" stroke-miterlimit="10" d="  M595,486.15c1.207,64.93-101.25,65.037-101.25,0C493.75,421.05,596.628,421.207,595,486.15z"/>
<path fill-rule="evenodd" clip-rule="evenodd" fill="#FFF200" stroke="#000000" stroke-width="2" stroke-linecap="square" stroke-miterlimit="10" d="  M583,339.15c1.209,65.032-101.25,65.001-101.25,0C481.75,274.109,584.629,274.183,583,339.15z"/>
<path fill-rule="evenodd" clip-rule="evenodd" fill="#F7931E" stroke="#000000" stroke-width="2" stroke-linecap="square" stroke-miterlimit="10" d="  M583.75,399.9c0.725,65.295-100.734,65.325-100.5,0C483.483,334.861,584.657,334.874,583.75,399.9z"/>
<path fill-rule="evenodd" clip-rule="evenodd" fill="#CB97C4" stroke="#000000" stroke-width="2" stroke-linecap="square" stroke-miterlimit="10" d="  M562.75,524.4c0.733,64.591-100.017,64.575-100.5,0C461.759,458.861,563.73,458.902,562.75,524.4z"/>
</svg>