<svg xmlns="http://www.w3.org/2000/svg" xmlns:xlink="http://www.w3.org/1999/xlink" version="1.1" id="Layer_1" x="0px" y="0px" enable-background="new 0 0 822.05 841.89" xml:space="preserve" viewBox="193.29 249.98 424.48 343.55">
<path fill-rule="evenodd" clip-rule="evenodd" fill="#BCBEC0" stroke="#000000" stroke-width="2" stroke-linecap="square" stroke-miterlimit="10" d="  M374.511,253.982c-42.865,37.625,31.293,44.643,52.802,46.959c13.427,1.446,4.835,30.598,9.825,38.916  c9.622,16.037,43.983,14.131,57.75,8.625c33.842-13.537,22.125,31.958,22.125,53.25c20.263-2.785,16.679,31.138,12.75,43.502  c35.472-6.588,104.789-3.638,82.093-49.662c-9.956-20.188-54.011-82.625-4.093-88.34c-13.46-15.704-36.422-34.28-39-56.25  c-16.041,14.707-66.312,4.511-88.032,4.254C445.324,254.818,409.917,254.4,374.511,253.982z"/>
<line fill="none" stroke="#000000" stroke-width="2" stroke-linecap="square" stroke-miterlimit="10" x1="364.761" y1="265.982" x2="571.763" y2="265.982"/>
<line fill="none" stroke="#000000" stroke-width="2" stroke-linecap="square" stroke-miterlimit="10" x1="376.011" y1="291.482" x2="598.763" y2="294.482"/>
<path fill="none" stroke="#000000" stroke-width="2" stroke-linecap="square" stroke-miterlimit="10" d="M430.013,301.232  c18.185,0,54.37-8.956,66.75,9.75c7.054,10.658,3.459,27.299-6.75,33"/>
<path fill-rule="evenodd" clip-rule="evenodd" fill="#FFFFFF" stroke="#000000" stroke-width="2" stroke-linecap="square" stroke-miterlimit="10" d="  M499.013,337.232c-18.642,19.007-81.188,8.325-53.625-24.75C465.268,288.625,514.866,303.453,499.013,337.232z"/>
<path fill-rule="evenodd" clip-rule="evenodd" fill="#6D6F71" stroke="#000000" stroke-width="2" stroke-linecap="square" stroke-miterlimit="10" d="  M470.513,301.982c38.786-10.969,19.789,39.819-10.5,37.5C478.39,334.632,480.816,316.005,470.513,301.982z"/>
<path fill-rule="evenodd" clip-rule="evenodd" fill="#6D6F71" stroke="#000000" stroke-width="2" stroke-linecap="square" stroke-miterlimit="10" d="  M509.513,292.982c26.5,1,53,2,79.5,3c-13.642,40.464,11.121,71.516,27.75,108.75c-18.124,3.485-75.541,25.656-80.167,5.611  C527.568,371.223,518.54,332.102,509.513,292.982z"/>
<path fill-rule="evenodd" clip-rule="evenodd" fill="#6D6F71" stroke="#000000" stroke-width="2" stroke-linecap="square" stroke-miterlimit="10" d="  M575.513,266.732c6,8,12,16,18,24c2.267-5.955,3.264-16.866,3-23.25C590.044,267.251,581.724,265.162,575.513,266.732z"/>
<path fill-rule="evenodd" clip-rule="evenodd" fill="#6D6F71" d="M528.263,400.982l-12-53.25L528.263,400.982z"/>
<line fill="none" stroke="#000000" stroke-width="2" stroke-linecap="square" stroke-miterlimit="10" x1="528.263" y1="400.982" x2="516.263" y2="347.732"/>
<path fill-rule="evenodd" clip-rule="evenodd" fill="#BCBEC0" stroke="#000000" stroke-width="2" stroke-linecap="square" stroke-miterlimit="10" d="  M209.511,326.732c-52.445,44.315,46.74,38.039,55.5,46.5c10.926,10.554-0.373,28.129,6.375,39.375  c11.949,19.914,44.169,5.046,60.375,7.875c6.791,1.186,10.081-5.816,17.25-0.75c9.464,6.688,3,43.449,3,54.752  c17.761-2.044,19.543,29.562,10.5,41.25c35.241,3.715,104.873-3.765,83.595-47.504c-8.782-18.054-54.011-85.359-3.343-88.248  c-13.298-16.068-36.484-34.245-39.002-56.25c-19.417,13.451-64.972,4.022-88.449,3.836  C280.044,327.29,244.777,327.011,209.511,326.732z"/>
<line fill="none" stroke="#000000" stroke-width="2" stroke-linecap="square" stroke-miterlimit="10" x1="199.761" y1="337.982" x2="406.761" y2="337.982"/>
<line fill="none" stroke="#000000" stroke-width="2" stroke-linecap="square" stroke-miterlimit="10" x1="210.261" y1="363.482" x2="433.763" y2="366.482"/>
<path fill="none" stroke="#000000" stroke-width="2" stroke-linecap="square" stroke-miterlimit="10" d="M265.011,373.232  c17.871,0,52.021-8.423,65.25,8.25c8.343,10.515,5.664,29.186-5.25,34.5"/>
<path fill-rule="evenodd" clip-rule="evenodd" fill="#FFFFFF" stroke="#000000" stroke-width="2" stroke-linecap="square" stroke-miterlimit="10" d="  M333.261,409.232c-16.375,19.589-75.9,12.203-54.75-22.5C295.297,359.189,352.22,376.653,333.261,409.232z"/>
<path fill-rule="evenodd" clip-rule="evenodd" fill="#6D6F71" stroke="#000000" stroke-width="2" stroke-linecap="square" stroke-miterlimit="10" d="  M305.511,374.732c38.447-10.682,19.622,40.548-10.5,36.75C313.178,406.948,315.925,388.556,305.511,374.732z"/>
<path fill-rule="evenodd" clip-rule="evenodd" fill="#6D6F71" stroke="#000000" stroke-width="2" stroke-linecap="square" stroke-miterlimit="10" d="  M344.511,365.732c26.5,0.75,53.001,1.5,79.502,2.25c-13.297,40.829,10.367,71.051,27,108.752  c-17.989,3.493-74.796,25.58-79.418,5.667C362.566,443.511,353.539,404.622,344.511,365.732z"/>
<path fill-rule="evenodd" clip-rule="evenodd" fill="#6D6F71" stroke="#000000" stroke-width="2" stroke-linecap="square" stroke-miterlimit="10" d="  M410.511,339.482c6.001,8,12.001,16,18.002,24c2.078-6.039,2.678-16.858,2.25-23.25  C424.532,340.001,416.491,337.964,410.511,339.482z"/>
<path fill-rule="evenodd" clip-rule="evenodd" fill="#6D6F71" d="M362.511,473.734l-11.25-53.252L362.511,473.734z"/>
<line fill="none" stroke="#000000" stroke-width="2" stroke-linecap="square" stroke-miterlimit="10" x1="362.511" y1="473.734" x2="351.261" y2="420.482"/>
<path fill-rule="evenodd" clip-rule="evenodd" fill="#BCBEC0" stroke="#000000" stroke-width="2" stroke-linecap="square" stroke-miterlimit="10" d="  M342.261,402.482c-52.515,44.375,46.687,38.093,55.5,46.502c10.256,9.785,2.059,27.646,6.75,39.375  c6.732,16.831,47.144,13.019,58.127,8.625c33.863-13.546,22.125,31.51,22.125,53.25c17.761-2.044,19.543,29.562,10.5,41.25  c24.957,4.386,105.915-4.169,86.798-42.403c-9.077-18.154-58.8-89.347-6.548-93.347c-13.54-15.797-36.075-34.314-39-56.252  c-17.44,14.69-65.937,4.521-88.45,4.254C412.795,403.318,377.528,402.9,342.261,402.482z"/>
<line fill="none" stroke="#000000" stroke-width="2" stroke-linecap="square" stroke-miterlimit="10" x1="332.511" y1="413.732" x2="539.513" y2="413.732"/>
<line fill="none" stroke="#000000" stroke-width="2" stroke-linecap="square" stroke-miterlimit="10" x1="343.011" y1="439.984" x2="566.513" y2="442.234"/>
<path fill="none" stroke="#000000" stroke-width="2" stroke-linecap="square" stroke-miterlimit="10" d="M397.761,448.984  c17.47,0,52.094-8.198,65.252,8.25c8.493,10.616,5.622,28.934-5.25,35.25"/>
<path fill-rule="evenodd" clip-rule="evenodd" fill="#FFFFFF" stroke="#000000" stroke-width="2" stroke-linecap="square" stroke-miterlimit="10" d="  M466.013,485.734c-18.308,19.274-80.321,8.184-52.877-24.75C432.63,437.591,485.175,452.843,466.013,485.734z"/>
<path fill-rule="evenodd" clip-rule="evenodd" fill="#6D6F71" stroke="#000000" stroke-width="2" stroke-linecap="square" stroke-miterlimit="10" d="  M438.263,450.484c38.681-10.747,19.544,40.986-10.5,36.75C446.532,483.346,448.354,464.218,438.263,450.484z"/>
<path fill-rule="evenodd" clip-rule="evenodd" fill="#6D6F71" stroke="#000000" stroke-width="2" stroke-linecap="square" stroke-miterlimit="10" d="  M477.263,441.484c26.5,0.75,53,1.5,79.5,2.25c-13.297,40.829,10.367,71.049,27,108.75c-17.989,3.493-74.794,25.58-79.417,5.667  C495.318,519.261,486.29,480.373,477.263,441.484z"/>
<path fill-rule="evenodd" clip-rule="evenodd" fill="#6D6F71" stroke="#000000" stroke-width="2" stroke-linecap="square" stroke-miterlimit="10" d="  M543.263,415.232c6,8.001,12,16.001,18,24.002c2.078-6.04,2.678-16.859,2.25-23.252  C557.283,415.751,549.243,413.715,543.263,415.232z"/>
<path fill-rule="evenodd" clip-rule="evenodd" fill="#6D6F71" d="M495.263,549.484l-11.25-53.25L495.263,549.484z"/>
<line fill="none" stroke="#000000" stroke-width="2" stroke-linecap="square" stroke-miterlimit="10" x1="495.263" y1="549.484" x2="484.013" y2="496.234"/>
</svg>