<svg xmlns="http://www.w3.org/2000/svg" xmlns:xlink="http://www.w3.org/1999/xlink" version="1.1" id="Layer_1" x="0px" y="0px" enable-background="new 0 0 822.05 841.89" xml:space="preserve" viewBox="217.6 405.93 387.37 33.84">
<path fill-rule="evenodd" clip-rule="evenodd" fill="#282827" stroke="#000000" stroke-width="0.5" stroke-linecap="square" stroke-miterlimit="10" d="  M286.268,426.89c-12.897-5.424-44.646-2.367-52.5-12.75c-10.492-13.87,19.954-5.547,22.406-4.805  c42.983,13.008,75.082,11.264,117.844,11.555c43.271,0.294,85.93-1.624,129-2.25c14.303-0.208,95.812-14.417,101.25,3  c8.444,27.047-104.182,15.39-112.71,15.349c-64.948-0.318-129.896-0.62-194.845-0.919c-6.691-0.031-98.747,2.091-74.945-13.68  C232.037,415.586,274.28,426.214,286.268,426.89z"/>
<path fill-rule="evenodd" clip-rule="evenodd" fill="#FFFFFF" stroke="#000000" stroke-width="0.5" stroke-linecap="square" stroke-miterlimit="10" d="  M483.518,427.64c27.342-2.443,81.773-13.242,108-4.5c16.9,5.634-26.303,6.683-29.223,6.556  C544.458,428.92,483.602,427.565,483.518,427.64z"/>
</svg>