<svg xmlns="http://www.w3.org/2000/svg" xmlns:xlink="http://www.w3.org/1999/xlink" version="1.1" id="Layer_1" x="0px" y="0px" enable-background="new 0 0 822.05 841.89" xml:space="preserve" viewBox="245.51 270.6 329.17 302.3">
<path fill-rule="evenodd" clip-rule="evenodd" fill="#C8CBCD" stroke="#000000" stroke-width="2" stroke-linecap="square" stroke-miterlimit="10" d="  M418.5,337.89c-42.932,49.856-85.864,99.713-128.795,149.569c-11.79,13.69-55.314,50-39.955,73.931  c22.277,34.707,83.923-26.713,100.671-38.112c53.693-36.546,107.386-73.092,161.079-109.638c-26-30.75-52-61.5-78-92.25  C428.804,326.556,421.736,331.767,418.5,337.89z"/>
<path fill-rule="evenodd" clip-rule="evenodd" fill="#FFFFFF" stroke="#000000" stroke-width="2" stroke-linecap="square" stroke-miterlimit="10" d="  M318.75,500.64c21.92-25.612,45.507-51.773,71.556-73.223c12.958-10.669,27.572-21.629,25.194,1.223  c-2.046,19.656-45.402,48.623-59.25,60C348.534,494.98,306.637,531.963,318.75,500.64z"/>
<path fill="none" stroke="#000000" stroke-width="2" stroke-linecap="square" stroke-miterlimit="10" d="M427.5,364.14  c-35.318,35.321-120.568,99.551-120.75,155.25c60.462-24.631,113.954-61.166,162.75-104.25  C453.785,402.279,429.438,385.844,427.5,364.14z"/>
<line fill="none" stroke="#000000" stroke-width="2" stroke-linecap="square" stroke-miterlimit="10" x1="261" y1="520.14" x2="306.75" y2="519.39"/>
<path fill-rule="evenodd" clip-rule="evenodd" fill="#FFFFFF" stroke="#000000" stroke-width="2" stroke-linecap="square" stroke-miterlimit="10" d="  M288,535.14c2.74,12.824-16.086,29.717-24.75,15C254.672,535.569,277.877,527.059,288,535.14z"/>
<path fill-rule="evenodd" clip-rule="evenodd" fill="#EC008C" stroke="#000000" stroke-width="2" stroke-linecap="square" stroke-miterlimit="10" d="  M561.75,306.39c50.951,81.496-74.779,158.607-125.25,77.25C385.797,301.908,510.562,224.688,561.75,306.39z"/>
<path fill-rule="evenodd" clip-rule="evenodd" fill="#B4D670" stroke="#000000" stroke-width="2" stroke-linecap="square" stroke-miterlimit="10" d="  M535.5,321.39c22.857,39.472-36.383,76.062-60,36.75C451.996,319.015,513.571,282.271,535.5,321.39z"/>
<path fill-rule="evenodd" clip-rule="evenodd" fill="#FFF200" stroke="#000000" stroke-width="2" stroke-linecap="square" stroke-miterlimit="10" d="  M519,331.89c2.572,10.455-9.721,23.799-18.75,11.25C491.305,330.708,510.904,324.402,519,331.89z"/>
</svg>