<svg xmlns="http://www.w3.org/2000/svg" xmlns:xlink="http://www.w3.org/1999/xlink" version="1.1" id="Layer_1" x="0px" y="0px" enable-background="new 0 0 822.05 841.89" xml:space="preserve" viewBox="254.25 252.56 308.25 338.33">
<path fill-rule="evenodd" clip-rule="evenodd" fill="#89AACA" stroke="#000000" stroke-width="2" stroke-linecap="square" stroke-miterlimit="10" d="  M288.252,283.89c63.264,1.145,233.459-80.931,258.754,20.25c12.781,51.125-52.469,57.153-35.694,105.888  c14.3,41.548,28.601,83.096,42.901,124.645c15.955,46.357,7.1,42.809-40.207,55.217c6.152-42.675-25.657-90.943-40.917-129.194  c-9.727-24.383-16.568-53.195-40.833-67.306c-25.886-15.054-69.106-10.861-97.379-13.253c-19.601-1.659-37.633,5.115-39.49-15.819  C293.008,337.509,290.63,310.699,288.252,283.89z"/>
<path fill-rule="evenodd" clip-rule="evenodd" fill="#6D6F71" stroke="#000000" stroke-width="2" stroke-linecap="square" stroke-miterlimit="10" d="  M317.502,330.39c-2.684,57.843-62.25,58.834-62.25,0S314.818,272.547,317.502,330.39z"/>
<path fill-rule="evenodd" clip-rule="evenodd" fill="#FFDB78" stroke="#000000" stroke-width="2" stroke-linecap="square" stroke-miterlimit="10" d="  M504.256,479.64C492.697,518.093,468.932,393.854,504.256,479.64L504.256,479.64z"/>
<path fill-rule="evenodd" clip-rule="evenodd" fill="#FFDB78" stroke="#000000" stroke-width="2" stroke-linecap="square" stroke-miterlimit="10" d="  M527.506,533.64C510.811,569.864,495.514,449.969,527.506,533.64L527.506,533.64z"/>
</svg>