<svg xmlns="http://www.w3.org/2000/svg" xmlns:xlink="http://www.w3.org/1999/xlink" version="1.1" id="Layer_1" x="0px" y="0px" enable-background="new 0 0 822.05 841.89" xml:space="preserve" viewBox="245.96 256.03 328.32 328.65">
<path fill-rule="evenodd" clip-rule="evenodd" fill="#91796D" stroke="#000000" stroke-width="2" stroke-linecap="square" stroke-miterlimit="10" d="  M275.734,311.64c3.505,40.085,68.84,49.718,99.75,49.5c15.12-0.106,26.053-8.04,39.75,3.375c25.226,21.021,48.446,38.23,79.5,49.875  c41.695,15.636,121.041,17.14,50.25-29.25c-26.408-17.306-57.674-30.964-88.5-38.25c-19.908-4.705-37.414,0.19-39-24.75  C400.267,373.782,301.093,338.411,275.734,311.64z"/>
<path fill-rule="evenodd" clip-rule="evenodd" fill="#E4BE9D" stroke="#000000" stroke-width="2" stroke-linecap="square" stroke-miterlimit="10" d="  M276.484,312.39c-31.445-21.267,13.584-46.23,32.25-49.5c30.413-5.327,89.168,0.736,109.5,27.75  c15.626,20.762,6.865,46.789-18.375,54C358.225,356.536,311.205,332.964,276.484,312.39z"/>
<path fill-rule="evenodd" clip-rule="evenodd" fill="#E4BE9D" d="M267.484,299.64c-6.417-13.103,4.437-32.137,20.25-30.75  c9.81-19.196,59.477-9.949,79.528-7.333c24.254,3.164,42.059,15.2,58.097,36.583c16.195,21.594-8.274,32.311-26.625,36  C362.927,341.339,291.812,324.996,267.484,299.64z"/>
<path fill="none" stroke="#000000" stroke-width="2" stroke-linecap="square" stroke-miterlimit="10" d="M267.484,299.64  c-6.417-13.103,4.437-32.137,20.25-30.75c9.81-19.196,59.477-9.949,79.528-7.333c19.265,2.513,47.313,13.013,56.972,35.083  c31.789,72.638-131.47,18.114-156.75,6"/>
<line fill="none" stroke="#000000" stroke-width="2" stroke-linecap="square" stroke-miterlimit="10" x1="275.734" y1="293.64" x2="278.734" y2="301.14"/>
<line fill="none" stroke="#000000" stroke-width="2" stroke-linecap="square" stroke-miterlimit="10" x1="285.484" y1="299.64" x2="288.484" y2="307.14"/>
<line fill="none" stroke="#000000" stroke-width="2" stroke-linecap="square" stroke-miterlimit="10" x1="293.734" y1="301.89" x2="296.734" y2="309.39"/>
<line fill="none" stroke="#000000" stroke-width="2" stroke-linecap="square" stroke-miterlimit="10" x1="307.234" y1="305.64" x2="310.234" y2="313.14"/>
<line fill="none" stroke="#000000" stroke-width="2" stroke-linecap="square" stroke-miterlimit="10" x1="317.734" y1="311.64" x2="320.734" y2="319.14"/>
<line fill="none" stroke="#000000" stroke-width="2" stroke-linecap="square" stroke-miterlimit="10" x1="329.734" y1="315.39" x2="332.734" y2="322.89"/>
<line fill="none" stroke="#000000" stroke-width="2" stroke-linecap="square" stroke-miterlimit="10" x1="286.234" y1="286.14" x2="289.234" y2="293.64"/>
<line fill="none" stroke="#000000" stroke-width="2" stroke-linecap="square" stroke-miterlimit="10" x1="295.984" y1="292.14" x2="298.984" y2="299.64"/>
<line fill="none" stroke="#000000" stroke-width="2" stroke-linecap="square" stroke-miterlimit="10" x1="304.234" y1="294.39" x2="307.234" y2="301.89"/>
<line fill="none" stroke="#000000" stroke-width="2" stroke-linecap="square" stroke-miterlimit="10" x1="317.734" y1="298.14" x2="320.734" y2="305.64"/>
<line fill="none" stroke="#000000" stroke-width="2" stroke-linecap="square" stroke-miterlimit="10" x1="328.234" y1="304.14" x2="331.234" y2="311.64"/>
<line fill="none" stroke="#000000" stroke-width="2" stroke-linecap="square" stroke-miterlimit="10" x1="340.234" y1="307.14" x2="343.234" y2="314.64"/>
<line fill="none" stroke="#000000" stroke-width="2" stroke-linecap="square" stroke-miterlimit="10" x1="289.984" y1="274.89" x2="292.984" y2="282.39"/>
<line fill="none" stroke="#000000" stroke-width="2" stroke-linecap="square" stroke-miterlimit="10" x1="299.734" y1="280.89" x2="302.734" y2="288.39"/>
<line fill="none" stroke="#000000" stroke-width="2" stroke-linecap="square" stroke-miterlimit="10" x1="307.984" y1="283.14" x2="310.984" y2="290.64"/>
<line fill="none" stroke="#000000" stroke-width="2" stroke-linecap="square" stroke-miterlimit="10" x1="320.734" y1="286.89" x2="323.734" y2="294.39"/>
<line fill="none" stroke="#000000" stroke-width="2" stroke-linecap="square" stroke-miterlimit="10" x1="331.984" y1="292.89" x2="334.984" y2="300.39"/>
<line fill="none" stroke="#000000" stroke-width="2" stroke-linecap="square" stroke-miterlimit="10" x1="343.984" y1="295.89" x2="346.984" y2="303.39"/>
<line fill="none" stroke="#000000" stroke-width="2" stroke-linecap="square" stroke-miterlimit="10" x1="302.734" y1="267.39" x2="305.734" y2="274.89"/>
<line fill="none" stroke="#000000" stroke-width="2" stroke-linecap="square" stroke-miterlimit="10" x1="311.734" y1="272.64" x2="314.734" y2="280.89"/>
<line fill="none" stroke="#000000" stroke-width="2" stroke-linecap="square" stroke-miterlimit="10" x1="320.734" y1="274.89" x2="323.734" y2="283.14"/>
<line fill="none" stroke="#000000" stroke-width="2" stroke-linecap="square" stroke-miterlimit="10" x1="333.484" y1="278.64" x2="336.484" y2="286.14"/>
<line fill="none" stroke="#000000" stroke-width="2" stroke-linecap="square" stroke-miterlimit="10" x1="344.734" y1="284.64" x2="347.734" y2="292.89"/>
<line fill="none" stroke="#000000" stroke-width="2" stroke-linecap="square" stroke-miterlimit="10" x1="355.984" y1="288.39" x2="359.734" y2="295.89"/>
<line fill="none" stroke="#000000" stroke-width="2" stroke-linecap="square" stroke-miterlimit="10" x1="316.234" y1="259.89" x2="319.234" y2="267.39"/>
<line fill="none" stroke="#000000" stroke-width="2" stroke-linecap="square" stroke-miterlimit="10" x1="325.984" y1="265.89" x2="328.984" y2="273.39"/>
<line fill="none" stroke="#000000" stroke-width="2" stroke-linecap="square" stroke-miterlimit="10" x1="334.234" y1="268.14" x2="337.234" y2="275.64"/>
<line fill="none" stroke="#000000" stroke-width="2" stroke-linecap="square" stroke-miterlimit="10" x1="346.984" y1="271.89" x2="349.984" y2="279.39"/>
<line fill="none" stroke="#000000" stroke-width="2" stroke-linecap="square" stroke-miterlimit="10" x1="358.234" y1="277.89" x2="361.234" y2="285.39"/>
<line fill="none" stroke="#000000" stroke-width="2" stroke-linecap="square" stroke-miterlimit="10" x1="370.234" y1="280.89" x2="373.234" y2="289.14"/>
<line fill="none" stroke="#000000" stroke-width="2" stroke-linecap="square" stroke-miterlimit="10" x1="356.734" y1="265.14" x2="359.734" y2="272.64"/>
<line fill="none" stroke="#000000" stroke-width="2" stroke-linecap="square" stroke-miterlimit="10" x1="365.734" y1="271.14" x2="368.734" y2="278.64"/>
<line fill="none" stroke="#000000" stroke-width="2" stroke-linecap="square" stroke-miterlimit="10" x1="374.734" y1="273.39" x2="377.734" y2="280.89"/>
<line fill="none" stroke="#000000" stroke-width="2" stroke-linecap="square" stroke-miterlimit="10" x1="387.484" y1="276.39" x2="390.484" y2="283.89"/>
<line fill="none" stroke="#000000" stroke-width="2" stroke-linecap="square" stroke-miterlimit="10" x1="398.734" y1="283.14" x2="401.734" y2="290.64"/>
<line fill="none" stroke="#000000" stroke-width="2" stroke-linecap="square" stroke-miterlimit="10" x1="409.984" y1="286.14" x2="412.984" y2="293.64"/>
<line fill="none" stroke="#000000" stroke-width="2" stroke-linecap="square" stroke-miterlimit="10" x1="378.484" y1="284.64" x2="381.484" y2="292.14"/>
<line fill="none" stroke="#000000" stroke-width="2" stroke-linecap="square" stroke-miterlimit="10" x1="391.234" y1="288.39" x2="394.234" y2="295.89"/>
<line fill="none" stroke="#000000" stroke-width="2" stroke-linecap="square" stroke-miterlimit="10" x1="402.484" y1="294.39" x2="405.484" y2="301.89"/>
<line fill="none" stroke="#000000" stroke-width="2" stroke-linecap="square" stroke-miterlimit="10" x1="414.484" y1="298.14" x2="417.484" y2="305.64"/>
<line fill="none" stroke="#000000" stroke-width="2" stroke-linecap="square" stroke-miterlimit="10" x1="364.984" y1="289.89" x2="367.984" y2="297.39"/>
<line fill="none" stroke="#000000" stroke-width="2" stroke-linecap="square" stroke-miterlimit="10" x1="373.984" y1="295.89" x2="376.984" y2="303.39"/>
<line fill="none" stroke="#000000" stroke-width="2" stroke-linecap="square" stroke-miterlimit="10" x1="382.984" y1="298.14" x2="385.984" y2="305.64"/>
<line fill="none" stroke="#000000" stroke-width="2" stroke-linecap="square" stroke-miterlimit="10" x1="395.734" y1="301.89" x2="398.734" y2="309.39"/>
<line fill="none" stroke="#000000" stroke-width="2" stroke-linecap="square" stroke-miterlimit="10" x1="406.984" y1="307.89" x2="409.984" y2="315.39"/>
<line fill="none" stroke="#000000" stroke-width="2" stroke-linecap="square" stroke-miterlimit="10" x1="418.234" y1="310.89" x2="421.234" y2="318.39"/>
<line fill="none" stroke="#000000" stroke-width="2" stroke-linecap="square" stroke-miterlimit="10" x1="357.484" y1="296.64" x2="360.484" y2="304.14"/>
<line fill="none" stroke="#000000" stroke-width="2" stroke-linecap="square" stroke-miterlimit="10" x1="366.484" y1="302.64" x2="369.484" y2="310.14"/>
<line fill="none" stroke="#000000" stroke-width="2" stroke-linecap="square" stroke-miterlimit="10" x1="374.734" y1="304.89" x2="377.734" y2="312.39"/>
<line fill="none" stroke="#000000" stroke-width="2" stroke-linecap="square" stroke-miterlimit="10" x1="388.234" y1="308.64" x2="391.234" y2="316.14"/>
<line fill="none" stroke="#000000" stroke-width="2" stroke-linecap="square" stroke-miterlimit="10" x1="398.734" y1="314.64" x2="401.734" y2="322.14"/>
<line fill="none" stroke="#000000" stroke-width="2" stroke-linecap="square" stroke-miterlimit="10" x1="410.734" y1="317.64" x2="413.734" y2="325.14"/>
<line fill="none" stroke="#000000" stroke-width="2" stroke-linecap="square" stroke-miterlimit="10" x1="349.984" y1="301.89" x2="352.984" y2="310.14"/>
<line fill="none" stroke="#000000" stroke-width="2" stroke-linecap="square" stroke-miterlimit="10" x1="358.984" y1="307.89" x2="361.984" y2="316.14"/>
<line fill="none" stroke="#000000" stroke-width="2" stroke-linecap="square" stroke-miterlimit="10" x1="367.234" y1="310.14" x2="370.984" y2="317.64"/>
<line fill="none" stroke="#000000" stroke-width="2" stroke-linecap="square" stroke-miterlimit="10" x1="380.734" y1="313.89" x2="383.734" y2="321.39"/>
<line fill="none" stroke="#000000" stroke-width="2" stroke-linecap="square" stroke-miterlimit="10" x1="391.984" y1="319.89" x2="394.984" y2="327.39"/>
<line fill="none" stroke="#000000" stroke-width="2" stroke-linecap="square" stroke-miterlimit="10" x1="403.234" y1="323.64" x2="406.234" y2="331.14"/>
<line fill="none" stroke="#000000" stroke-width="2" stroke-linecap="square" stroke-miterlimit="10" x1="358.234" y1="322.89" x2="361.234" y2="330.39"/>
<line fill="none" stroke="#000000" stroke-width="2" stroke-linecap="square" stroke-miterlimit="10" x1="342.484" y1="319.14" x2="345.484" y2="326.64"/>
<line fill="none" stroke="#000000" stroke-width="2" stroke-linecap="square" stroke-miterlimit="10" x1="351.484" y1="315.39" x2="354.484" y2="322.89"/>
<line fill="none" stroke="#000000" stroke-width="2" stroke-linecap="square" stroke-miterlimit="10" x1="364.984" y1="318.39" x2="367.984" y2="326.64"/>
<line fill="none" stroke="#000000" stroke-width="2" stroke-linecap="square" stroke-miterlimit="10" x1="375.484" y1="325.14" x2="378.484" y2="332.64"/>
<line fill="none" stroke="#000000" stroke-width="2" stroke-linecap="square" stroke-miterlimit="10" x1="387.484" y1="328.14" x2="390.484" y2="335.64"/>
<path fill-rule="evenodd" clip-rule="evenodd" fill="#91796D" stroke="#000000" stroke-width="2" stroke-linecap="square" stroke-miterlimit="10" d="  M257.734,385.89c-0.37,39.464,67.649,50.25,96.375,50.25c15.276,0,29.112-8.689,42.75,3c24.885,21.33,48.024,38.587,79.125,50.25  c45.208,16.953,120.908,14.232,47.203-31.125c-26.204-16.126-55.333-29.273-85.453-36.375c-19.809-4.67-36.99-0.315-39-24.75  C381.21,446.946,281.072,415.28,257.734,385.89z"/>
<path fill-rule="evenodd" clip-rule="evenodd" fill="#E4BE9D" stroke="#000000" stroke-width="2" stroke-linecap="square" stroke-miterlimit="10" d="  M258.484,387.39c-32.925-21.413,13.22-46.367,32.25-49.5c30.021-4.942,88.426,0.49,108.75,27c15.528,20.255,7.381,43.716-15,54  C346.738,436.235,289.427,406.859,258.484,387.39z"/>
<path fill-rule="evenodd" clip-rule="evenodd" fill="#E4BE9D" d="M248.734,374.64c-5.722-12.914,3.401-32.404,20.25-30.75  c9.254-16.08,85.206-18.217,96.75,2.25c21.5-9.729,62.645,36.079,38.25,54.375C367.346,427.994,277.442,401.143,248.734,374.64z"/>
<path fill="none" stroke="#000000" stroke-width="2" stroke-linecap="square" stroke-miterlimit="10" d="M248.734,374.64  c-5.722-12.914,3.401-32.404,20.25-30.75c9.254-16.08,85.206-18.217,96.75,2.25c21.5-9.729,62.645,36.079,38.25,54.375  c-40.436,30.326-117.55-3.61-155.25-23.625"/>
<line fill="none" stroke="#000000" stroke-width="2" stroke-linecap="square" stroke-miterlimit="10" x1="257.734" y1="368.64" x2="260.734" y2="376.14"/>
<line fill="none" stroke="#000000" stroke-width="2" stroke-linecap="square" stroke-miterlimit="10" x1="266.734" y1="374.64" x2="269.734" y2="382.14"/>
<line fill="none" stroke="#000000" stroke-width="2" stroke-linecap="square" stroke-miterlimit="10" x1="274.984" y1="376.89" x2="277.984" y2="384.39"/>
<line fill="none" stroke="#000000" stroke-width="2" stroke-linecap="square" stroke-miterlimit="10" x1="288.484" y1="380.64" x2="291.484" y2="388.14"/>
<line fill="none" stroke="#000000" stroke-width="2" stroke-linecap="square" stroke-miterlimit="10" x1="298.984" y1="386.64" x2="301.984" y2="394.14"/>
<line fill="none" stroke="#000000" stroke-width="2" stroke-linecap="square" stroke-miterlimit="10" x1="310.984" y1="389.64" x2="313.984" y2="397.14"/>
<line fill="none" stroke="#000000" stroke-width="2" stroke-linecap="square" stroke-miterlimit="10" x1="268.234" y1="361.14" x2="271.234" y2="368.64"/>
<line fill="none" stroke="#000000" stroke-width="2" stroke-linecap="square" stroke-miterlimit="10" x1="277.234" y1="367.14" x2="280.234" y2="374.64"/>
<line fill="none" stroke="#000000" stroke-width="2" stroke-linecap="square" stroke-miterlimit="10" x1="285.484" y1="368.64" x2="288.484" y2="376.89"/>
<line fill="none" stroke="#000000" stroke-width="2" stroke-linecap="square" stroke-miterlimit="10" x1="298.984" y1="372.39" x2="301.984" y2="379.89"/>
<line fill="none" stroke="#000000" stroke-width="2" stroke-linecap="square" stroke-miterlimit="10" x1="309.484" y1="378.39" x2="312.484" y2="386.64"/>
<line fill="none" stroke="#000000" stroke-width="2" stroke-linecap="square" stroke-miterlimit="10" x1="321.484" y1="382.14" x2="324.484" y2="389.64"/>
<line fill="none" stroke="#000000" stroke-width="2" stroke-linecap="square" stroke-miterlimit="10" x1="271.234" y1="349.89" x2="274.234" y2="357.39"/>
<line fill="none" stroke="#000000" stroke-width="2" stroke-linecap="square" stroke-miterlimit="10" x1="280.984" y1="355.89" x2="283.984" y2="363.39"/>
<line fill="none" stroke="#000000" stroke-width="2" stroke-linecap="square" stroke-miterlimit="10" x1="289.234" y1="358.14" x2="292.234" y2="365.64"/>
<line fill="none" stroke="#000000" stroke-width="2" stroke-linecap="square" stroke-miterlimit="10" x1="302.734" y1="361.14" x2="305.734" y2="369.39"/>
<line fill="none" stroke="#000000" stroke-width="2" stroke-linecap="square" stroke-miterlimit="10" x1="313.234" y1="367.89" x2="316.234" y2="375.39"/>
<line fill="none" stroke="#000000" stroke-width="2" stroke-linecap="square" stroke-miterlimit="10" x1="325.234" y1="370.89" x2="328.234" y2="378.39"/>
<line fill="none" stroke="#000000" stroke-width="2" stroke-linecap="square" stroke-miterlimit="10" x1="283.984" y1="341.64" x2="286.984" y2="349.14"/>
<line fill="none" stroke="#000000" stroke-width="2" stroke-linecap="square" stroke-miterlimit="10" x1="293.734" y1="347.64" x2="296.734" y2="355.14"/>
<line fill="none" stroke="#000000" stroke-width="2" stroke-linecap="square" stroke-miterlimit="10" x1="301.984" y1="349.89" x2="304.984" y2="357.39"/>
<line fill="none" stroke="#000000" stroke-width="2" stroke-linecap="square" stroke-miterlimit="10" x1="314.734" y1="353.64" x2="317.734" y2="361.14"/>
<line fill="none" stroke="#000000" stroke-width="2" stroke-linecap="square" stroke-miterlimit="10" x1="325.984" y1="359.64" x2="328.984" y2="367.14"/>
<line fill="none" stroke="#000000" stroke-width="2" stroke-linecap="square" stroke-miterlimit="10" x1="337.984" y1="363.39" x2="340.984" y2="370.89"/>
<line fill="none" stroke="#000000" stroke-width="2" stroke-linecap="square" stroke-miterlimit="10" x1="297.484" y1="334.89" x2="300.484" y2="342.39"/>
<line fill="none" stroke="#000000" stroke-width="2" stroke-linecap="square" stroke-miterlimit="10" x1="307.234" y1="340.89" x2="310.234" y2="348.39"/>
<line fill="none" stroke="#000000" stroke-width="2" stroke-linecap="square" stroke-miterlimit="10" x1="315.484" y1="343.14" x2="318.484" y2="350.64"/>
<line fill="none" stroke="#000000" stroke-width="2" stroke-linecap="square" stroke-miterlimit="10" x1="328.984" y1="346.89" x2="331.984" y2="354.39"/>
<line fill="none" stroke="#000000" stroke-width="2" stroke-linecap="square" stroke-miterlimit="10" x1="339.484" y1="352.89" x2="342.484" y2="360.39"/>
<line fill="none" stroke="#000000" stroke-width="2" stroke-linecap="square" stroke-miterlimit="10" x1="351.484" y1="355.89" x2="354.484" y2="363.39"/>
<line fill="none" stroke="#000000" stroke-width="2" stroke-linecap="square" stroke-miterlimit="10" x1="337.984" y1="339.39" x2="340.984" y2="346.89"/>
<line fill="none" stroke="#000000" stroke-width="2" stroke-linecap="square" stroke-miterlimit="10" x1="346.984" y1="345.39" x2="349.984" y2="352.89"/>
<line fill="none" stroke="#000000" stroke-width="2" stroke-linecap="square" stroke-miterlimit="10" x1="355.984" y1="347.64" x2="358.984" y2="355.14"/>
<line fill="none" stroke="#000000" stroke-width="2" stroke-linecap="square" stroke-miterlimit="10" x1="368.734" y1="351.39" x2="371.734" y2="358.89"/>
<line fill="none" stroke="#000000" stroke-width="2" stroke-linecap="square" stroke-miterlimit="10" x1="379.984" y1="357.39" x2="382.984" y2="364.89"/>
<line fill="none" stroke="#000000" stroke-width="2" stroke-linecap="square" stroke-miterlimit="10" x1="391.984" y1="361.14" x2="394.984" y2="368.64"/>
<line fill="none" stroke="#000000" stroke-width="2" stroke-linecap="square" stroke-miterlimit="10" x1="359.734" y1="359.64" x2="362.734" y2="367.14"/>
<line fill="none" stroke="#000000" stroke-width="2" stroke-linecap="square" stroke-miterlimit="10" x1="372.484" y1="363.39" x2="375.484" y2="370.89"/>
<line fill="none" stroke="#000000" stroke-width="2" stroke-linecap="square" stroke-miterlimit="10" x1="383.734" y1="369.39" x2="386.734" y2="376.89"/>
<line fill="none" stroke="#000000" stroke-width="2" stroke-linecap="square" stroke-miterlimit="10" x1="395.734" y1="372.39" x2="398.734" y2="380.64"/>
<line fill="none" stroke="#000000" stroke-width="2" stroke-linecap="square" stroke-miterlimit="10" x1="346.234" y1="364.89" x2="349.234" y2="372.39"/>
<line fill="none" stroke="#000000" stroke-width="2" stroke-linecap="square" stroke-miterlimit="10" x1="355.234" y1="370.14" x2="358.984" y2="378.39"/>
<line fill="none" stroke="#000000" stroke-width="2" stroke-linecap="square" stroke-miterlimit="10" x1="364.234" y1="372.39" x2="367.234" y2="380.64"/>
<line fill="none" stroke="#000000" stroke-width="2" stroke-linecap="square" stroke-miterlimit="10" x1="376.984" y1="376.14" x2="379.984" y2="383.64"/>
<line fill="none" stroke="#000000" stroke-width="2" stroke-linecap="square" stroke-miterlimit="10" x1="388.234" y1="382.14" x2="391.234" y2="390.39"/>
<line fill="none" stroke="#000000" stroke-width="2" stroke-linecap="square" stroke-miterlimit="10" x1="400.234" y1="385.89" x2="403.234" y2="393.39"/>
<line fill="none" stroke="#000000" stroke-width="2" stroke-linecap="square" stroke-miterlimit="10" x1="338.734" y1="370.89" x2="341.734" y2="379.14"/>
<line fill="none" stroke="#000000" stroke-width="2" stroke-linecap="square" stroke-miterlimit="10" x1="347.734" y1="376.89" x2="350.734" y2="385.14"/>
<line fill="none" stroke="#000000" stroke-width="2" stroke-linecap="square" stroke-miterlimit="10" x1="355.984" y1="379.14" x2="359.734" y2="387.39"/>
<line fill="none" stroke="#000000" stroke-width="2" stroke-linecap="square" stroke-miterlimit="10" x1="369.484" y1="382.89" x2="372.484" y2="390.39"/>
<line fill="none" stroke="#000000" stroke-width="2" stroke-linecap="square" stroke-miterlimit="10" x1="380.734" y1="388.89" x2="383.734" y2="397.14"/>
<line fill="none" stroke="#000000" stroke-width="2" stroke-linecap="square" stroke-miterlimit="10" x1="391.984" y1="392.64" x2="394.984" y2="400.14"/>
<line fill="none" stroke="#000000" stroke-width="2" stroke-linecap="square" stroke-miterlimit="10" x1="331.234" y1="376.89" x2="334.234" y2="384.39"/>
<line fill="none" stroke="#000000" stroke-width="2" stroke-linecap="square" stroke-miterlimit="10" x1="340.234" y1="382.89" x2="343.234" y2="390.39"/>
<line fill="none" stroke="#000000" stroke-width="2" stroke-linecap="square" stroke-miterlimit="10" x1="349.234" y1="385.14" x2="352.234" y2="392.64"/>
<line fill="none" stroke="#000000" stroke-width="2" stroke-linecap="square" stroke-miterlimit="10" x1="361.984" y1="388.89" x2="364.984" y2="396.39"/>
<line fill="none" stroke="#000000" stroke-width="2" stroke-linecap="square" stroke-miterlimit="10" x1="373.234" y1="394.89" x2="376.234" y2="402.39"/>
<line fill="none" stroke="#000000" stroke-width="2" stroke-linecap="square" stroke-miterlimit="10" x1="384.484" y1="398.64" x2="387.484" y2="406.14"/>
<line fill="none" stroke="#000000" stroke-width="2" stroke-linecap="square" stroke-miterlimit="10" x1="339.484" y1="397.14" x2="342.484" y2="404.64"/>
<line fill="none" stroke="#000000" stroke-width="2" stroke-linecap="square" stroke-miterlimit="10" x1="323.734" y1="394.14" x2="326.734" y2="401.64"/>
<line fill="none" stroke="#000000" stroke-width="2" stroke-linecap="square" stroke-miterlimit="10" x1="333.484" y1="389.64" x2="336.484" y2="397.89"/>
<line fill="none" stroke="#000000" stroke-width="2" stroke-linecap="square" stroke-miterlimit="10" x1="346.234" y1="393.39" x2="349.234" y2="400.89"/>
<line fill="none" stroke="#000000" stroke-width="2" stroke-linecap="square" stroke-miterlimit="10" x1="357.484" y1="399.39" x2="360.484" y2="407.64"/>
<line fill="none" stroke="#000000" stroke-width="2" stroke-linecap="square" stroke-miterlimit="10" x1="368.734" y1="403.14" x2="371.734" y2="410.64"/>
<path fill-rule="evenodd" clip-rule="evenodd" fill="#91796D" stroke="#000000" stroke-width="2" stroke-linecap="square" stroke-miterlimit="10" d="  M265.234,471.39c0.87,39.23,66.996,50.25,96.375,50.25c15.833,0,25.193-6.038,40.875,0.75c26.424,11.438,46.351,39.129,75.75,50.25  c40.041,15.146,130.519,21.547,55.5-27c-26.665-17.256-56.654-30.881-87.75-38.25c-20.177-4.782-37.427,0.157-39-24.75  C386.422,531.925,290.838,501.231,265.234,471.39z"/>
<path fill-rule="evenodd" clip-rule="evenodd" fill="#E4BE9D" stroke="#000000" stroke-width="2" stroke-linecap="square" stroke-miterlimit="10" d="  M265.984,472.89c-32.044-21.825,13.427-46.275,32.25-49.5c30.36-5.202,89.364,0.544,109.5,27.75  c15.341,20.728,6.515,43.325-15.75,53.25C353.057,521.742,298.341,491.74,265.984,472.89z"/>
<path fill-rule="evenodd" clip-rule="evenodd" fill="#E4BE9D" d="M256.234,460.14c-22.333-55.757,120.403-45.347,147.375-18.375  c18.703,18.703,22.838,42.171-6.75,50.625C357.113,503.747,285.565,487.219,256.234,460.14z"/>
<path fill="none" stroke="#000000" stroke-width="2" stroke-linecap="square" stroke-miterlimit="10" d="M256.234,460.14  c-23.011-57.451,117.97-41.497,144.75-21c22.211,17,24.412,41.225-1.5,52.5c-42.062,18.302-106.257-9.61-143.25-29.25"/>
<line fill="none" stroke="#000000" stroke-width="2" stroke-linecap="square" stroke-miterlimit="10" x1="265.234" y1="454.14" x2="268.234" y2="461.64"/>
<line fill="none" stroke="#000000" stroke-width="2" stroke-linecap="square" stroke-miterlimit="10" x1="274.234" y1="460.14" x2="277.234" y2="467.64"/>
<line fill="none" stroke="#000000" stroke-width="2" stroke-linecap="square" stroke-miterlimit="10" x1="283.234" y1="462.39" x2="286.234" y2="469.89"/>
<line fill="none" stroke="#000000" stroke-width="2" stroke-linecap="square" stroke-miterlimit="10" x1="295.984" y1="466.14" x2="298.984" y2="473.64"/>
<line fill="none" stroke="#000000" stroke-width="2" stroke-linecap="square" stroke-miterlimit="10" x1="307.234" y1="472.14" x2="310.234" y2="479.64"/>
<line fill="none" stroke="#000000" stroke-width="2" stroke-linecap="square" stroke-miterlimit="10" x1="319.234" y1="475.14" x2="322.234" y2="483.39"/>
<line fill="none" stroke="#000000" stroke-width="2" stroke-linecap="square" stroke-miterlimit="10" x1="275.734" y1="446.64" x2="278.734" y2="454.14"/>
<line fill="none" stroke="#000000" stroke-width="2" stroke-linecap="square" stroke-miterlimit="10" x1="284.734" y1="452.64" x2="287.734" y2="460.14"/>
<line fill="none" stroke="#000000" stroke-width="2" stroke-linecap="square" stroke-miterlimit="10" x1="293.734" y1="454.89" x2="296.734" y2="462.39"/>
<line fill="none" stroke="#000000" stroke-width="2" stroke-linecap="square" stroke-miterlimit="10" x1="306.484" y1="457.89" x2="309.484" y2="466.14"/>
<line fill="none" stroke="#000000" stroke-width="2" stroke-linecap="square" stroke-miterlimit="10" x1="317.734" y1="464.64" x2="320.734" y2="472.14"/>
<line fill="none" stroke="#000000" stroke-width="2" stroke-linecap="square" stroke-miterlimit="10" x1="329.734" y1="467.64" x2="332.734" y2="475.14"/>
<line fill="none" stroke="#000000" stroke-width="2" stroke-linecap="square" stroke-miterlimit="10" x1="279.484" y1="435.39" x2="282.484" y2="442.89"/>
<line fill="none" stroke="#000000" stroke-width="2" stroke-linecap="square" stroke-miterlimit="10" x1="288.484" y1="441.39" x2="291.484" y2="448.89"/>
<line fill="none" stroke="#000000" stroke-width="2" stroke-linecap="square" stroke-miterlimit="10" x1="297.484" y1="443.64" x2="300.484" y2="451.14"/>
<line fill="none" stroke="#000000" stroke-width="2" stroke-linecap="square" stroke-miterlimit="10" x1="310.234" y1="447.39" x2="313.234" y2="454.89"/>
<line fill="none" stroke="#000000" stroke-width="2" stroke-linecap="square" stroke-miterlimit="10" x1="321.484" y1="453.39" x2="324.484" y2="460.89"/>
<line fill="none" stroke="#000000" stroke-width="2" stroke-linecap="square" stroke-miterlimit="10" x1="332.734" y1="456.39" x2="335.734" y2="463.89"/>
<line fill="none" stroke="#000000" stroke-width="2" stroke-linecap="square" stroke-miterlimit="10" x1="292.234" y1="427.14" x2="295.234" y2="435.39"/>
<line fill="none" stroke="#000000" stroke-width="2" stroke-linecap="square" stroke-miterlimit="10" x1="301.234" y1="433.14" x2="304.234" y2="440.64"/>
<line fill="none" stroke="#000000" stroke-width="2" stroke-linecap="square" stroke-miterlimit="10" x1="309.484" y1="435.39" x2="312.484" y2="442.89"/>
<line fill="none" stroke="#000000" stroke-width="2" stroke-linecap="square" stroke-miterlimit="10" x1="322.984" y1="439.14" x2="325.984" y2="446.64"/>
<line fill="none" stroke="#000000" stroke-width="2" stroke-linecap="square" stroke-miterlimit="10" x1="333.484" y1="445.14" x2="336.484" y2="452.64"/>
<line fill="none" stroke="#000000" stroke-width="2" stroke-linecap="square" stroke-miterlimit="10" x1="345.484" y1="448.89" x2="348.484" y2="456.39"/>
<line fill="none" stroke="#000000" stroke-width="2" stroke-linecap="square" stroke-miterlimit="10" x1="305.734" y1="420.39" x2="308.734" y2="427.89"/>
<line fill="none" stroke="#000000" stroke-width="2" stroke-linecap="square" stroke-miterlimit="10" x1="314.734" y1="426.39" x2="317.734" y2="433.89"/>
<line fill="none" stroke="#000000" stroke-width="2" stroke-linecap="square" stroke-miterlimit="10" x1="323.734" y1="428.64" x2="326.734" y2="436.14"/>
<line fill="none" stroke="#000000" stroke-width="2" stroke-linecap="square" stroke-miterlimit="10" x1="336.484" y1="432.39" x2="339.484" y2="439.89"/>
<line fill="none" stroke="#000000" stroke-width="2" stroke-linecap="square" stroke-miterlimit="10" x1="347.734" y1="438.39" x2="350.734" y2="445.89"/>
<line fill="none" stroke="#000000" stroke-width="2" stroke-linecap="square" stroke-miterlimit="10" x1="358.984" y1="441.39" x2="361.984" y2="448.89"/>
<line fill="none" stroke="#000000" stroke-width="2" stroke-linecap="square" stroke-miterlimit="10" x1="346.234" y1="424.89" x2="349.234" y2="433.14"/>
<line fill="none" stroke="#000000" stroke-width="2" stroke-linecap="square" stroke-miterlimit="10" x1="355.234" y1="430.89" x2="358.234" y2="439.14"/>
<line fill="none" stroke="#000000" stroke-width="2" stroke-linecap="square" stroke-miterlimit="10" x1="363.484" y1="433.14" x2="366.484" y2="441.39"/>
<line fill="none" stroke="#000000" stroke-width="2" stroke-linecap="square" stroke-miterlimit="10" x1="376.984" y1="436.89" x2="379.984" y2="444.39"/>
<line fill="none" stroke="#000000" stroke-width="2" stroke-linecap="square" stroke-miterlimit="10" x1="387.484" y1="442.89" x2="390.484" y2="451.14"/>
<line fill="none" stroke="#000000" stroke-width="2" stroke-linecap="square" stroke-miterlimit="10" x1="399.484" y1="446.64" x2="402.484" y2="454.14"/>
<line fill="none" stroke="#000000" stroke-width="2" stroke-linecap="square" stroke-miterlimit="10" x1="367.234" y1="445.14" x2="370.984" y2="452.64"/>
<line fill="none" stroke="#000000" stroke-width="2" stroke-linecap="square" stroke-miterlimit="10" x1="380.734" y1="448.89" x2="383.734" y2="456.39"/>
<line fill="none" stroke="#000000" stroke-width="2" stroke-linecap="square" stroke-miterlimit="10" x1="391.234" y1="454.89" x2="394.984" y2="462.39"/>
<line fill="none" stroke="#000000" stroke-width="2" stroke-linecap="square" stroke-miterlimit="10" x1="403.234" y1="457.89" x2="406.234" y2="466.14"/>
<line fill="none" stroke="#000000" stroke-width="2" stroke-linecap="square" stroke-miterlimit="10" x1="354.484" y1="450.39" x2="357.484" y2="457.89"/>
<line fill="none" stroke="#000000" stroke-width="2" stroke-linecap="square" stroke-miterlimit="10" x1="363.484" y1="456.39" x2="366.484" y2="463.89"/>
<line fill="none" stroke="#000000" stroke-width="2" stroke-linecap="square" stroke-miterlimit="10" x1="371.734" y1="458.64" x2="374.734" y2="466.14"/>
<line fill="none" stroke="#000000" stroke-width="2" stroke-linecap="square" stroke-miterlimit="10" x1="385.234" y1="461.64" x2="388.234" y2="469.89"/>
<line fill="none" stroke="#000000" stroke-width="2" stroke-linecap="square" stroke-miterlimit="10" x1="395.734" y1="468.39" x2="398.734" y2="475.89"/>
<line fill="none" stroke="#000000" stroke-width="2" stroke-linecap="square" stroke-miterlimit="10" x1="407.734" y1="471.39" x2="410.734" y2="478.89"/>
<line fill="none" stroke="#000000" stroke-width="2" stroke-linecap="square" stroke-miterlimit="10" x1="346.234" y1="457.14" x2="349.234" y2="464.64"/>
<line fill="none" stroke="#000000" stroke-width="2" stroke-linecap="square" stroke-miterlimit="10" x1="355.984" y1="463.14" x2="358.984" y2="470.64"/>
<line fill="none" stroke="#000000" stroke-width="2" stroke-linecap="square" stroke-miterlimit="10" x1="364.234" y1="465.39" x2="367.234" y2="472.89"/>
<line fill="none" stroke="#000000" stroke-width="2" stroke-linecap="square" stroke-miterlimit="10" x1="376.984" y1="468.39" x2="380.734" y2="475.89"/>
<line fill="none" stroke="#000000" stroke-width="2" stroke-linecap="square" stroke-miterlimit="10" x1="388.234" y1="475.14" x2="391.234" y2="482.64"/>
<line fill="none" stroke="#000000" stroke-width="2" stroke-linecap="square" stroke-miterlimit="10" x1="400.234" y1="478.14" x2="403.234" y2="485.64"/>
<line fill="none" stroke="#000000" stroke-width="2" stroke-linecap="square" stroke-miterlimit="10" x1="338.734" y1="462.39" x2="342.484" y2="469.89"/>
<line fill="none" stroke="#000000" stroke-width="2" stroke-linecap="square" stroke-miterlimit="10" x1="348.484" y1="468.39" x2="351.484" y2="475.89"/>
<line fill="none" stroke="#000000" stroke-width="2" stroke-linecap="square" stroke-miterlimit="10" x1="356.734" y1="470.64" x2="359.734" y2="478.14"/>
<line fill="none" stroke="#000000" stroke-width="2" stroke-linecap="square" stroke-miterlimit="10" x1="370.234" y1="474.39" x2="373.234" y2="481.89"/>
<line fill="none" stroke="#000000" stroke-width="2" stroke-linecap="square" stroke-miterlimit="10" x1="380.734" y1="480.39" x2="383.734" y2="487.89"/>
<line fill="none" stroke="#000000" stroke-width="2" stroke-linecap="square" stroke-miterlimit="10" x1="392.734" y1="484.14" x2="395.734" y2="491.64"/>
<line fill="none" stroke="#000000" stroke-width="2" stroke-linecap="square" stroke-miterlimit="10" x1="347.734" y1="482.64" x2="350.734" y2="490.89"/>
<line fill="none" stroke="#000000" stroke-width="2" stroke-linecap="square" stroke-miterlimit="10" x1="331.234" y1="479.64" x2="334.234" y2="487.14"/>
<line fill="none" stroke="#000000" stroke-width="2" stroke-linecap="square" stroke-miterlimit="10" x1="340.984" y1="475.89" x2="343.984" y2="483.39"/>
<line fill="none" stroke="#000000" stroke-width="2" stroke-linecap="square" stroke-miterlimit="10" x1="354.484" y1="478.89" x2="357.484" y2="486.39"/>
<line fill="none" stroke="#000000" stroke-width="2" stroke-linecap="square" stroke-miterlimit="10" x1="364.984" y1="484.89" x2="367.984" y2="493.14"/>
<line fill="none" stroke="#000000" stroke-width="2" stroke-linecap="square" stroke-miterlimit="10" x1="376.984" y1="488.64" x2="379.984" y2="496.14"/>
</svg>