<svg xmlns="http://www.w3.org/2000/svg" xmlns:xlink="http://www.w3.org/1999/xlink" version="1.1" id="Layer_1" x="0px" y="0px" enable-background="new 0 0 822.05 841.89" xml:space="preserve" viewBox="252.04 258.79 319.74 322.86">
<path fill-rule="evenodd" clip-rule="evenodd" fill="#91796D" stroke="#000000" stroke-width="2" stroke-linecap="square" stroke-miterlimit="10" d="  M259.826,309.068c-22.356,50.681,67.929,96.39,103.5,109.5c52.722,19.432,60.367,73.908,102.75,113.252  c19,17.637,140.351,90.71,94.389,15.5c-23.687-38.76-53.47-69.871-88.361-98.694c-28.292-23.372-51.754-22.083-48.027-59.308  C377.709,438.347,274.948,356.808,259.826,309.068z"/>
<path fill-rule="evenodd" clip-rule="evenodd" fill="#E4BE9D" stroke="#000000" stroke-width="2" stroke-linecap="square" stroke-miterlimit="10" d="  M259.826,310.568c-26.873-36.872,33.193-49.51,56.625-45.375c43.783,7.727,104.17,41.813,122.25,84  c14.105,32.912-13.803,61.472-46.499,58.5C337.559,402.727,290.523,351.613,259.826,310.568z"/>
<path fill-rule="evenodd" clip-rule="evenodd" fill="#E4BE9D" d="M254.576,291.068c-0.09-8.872-0.673-14.028,7.5-18.75  c3.027-3.914,20.152-17.14,32.25-9c17.647-14.793,111.835,19.943,114.002,49.5c35.948-3.797,57.913,77.394,10.498,84  C369.101,403.747,268.95,335.283,254.576,291.068z"/>
<path fill="none" stroke="#000000" stroke-width="2" stroke-linecap="square" stroke-miterlimit="10" d="M254.576,291.068  c-0.09-8.872-0.673-14.028,7.5-18.75c3.027-3.914,20.152-17.14,32.25-9c17.647-14.793,111.835,19.943,114.002,49.5  c35.948-3.797,57.913,77.394,10.498,84c-60.136,8.379-130.783-61.898-165-102.75"/>
<line fill="none" stroke="#000000" stroke-width="2" stroke-linecap="square" stroke-miterlimit="10" x1="268.076" y1="288.068" x2="268.076" y2="298.568"/>
<line fill="none" stroke="#000000" stroke-width="2" stroke-linecap="square" stroke-miterlimit="10" x1="276.326" y1="299.318" x2="276.326" y2="309.818"/>
<line fill="none" stroke="#000000" stroke-width="2" stroke-linecap="square" stroke-miterlimit="10" x1="285.326" y1="306.068" x2="285.326" y2="316.568"/>
<line fill="none" stroke="#000000" stroke-width="2" stroke-linecap="square" stroke-miterlimit="10" x1="299.576" y1="316.568" x2="299.576" y2="327.068"/>
<line fill="none" stroke="#000000" stroke-width="2" stroke-linecap="square" stroke-miterlimit="10" x1="309.326" y1="329.318" x2="309.326" y2="339.818"/>
<line fill="none" stroke="#000000" stroke-width="2" stroke-linecap="square" stroke-miterlimit="10" x1="322.076" y1="339.068" x2="322.076" y2="349.568"/>
<line fill="none" stroke="#000000" stroke-width="2" stroke-linecap="square" stroke-miterlimit="10" x1="284.576" y1="283.568" x2="284.576" y2="294.068"/>
<line fill="none" stroke="#000000" stroke-width="2" stroke-linecap="square" stroke-miterlimit="10" x1="292.826" y1="294.818" x2="292.826" y2="305.318"/>
<line fill="none" stroke="#000000" stroke-width="2" stroke-linecap="square" stroke-miterlimit="10" x1="301.826" y1="301.568" x2="301.826" y2="312.068"/>
<line fill="none" stroke="#000000" stroke-width="2" stroke-linecap="square" stroke-miterlimit="10" x1="316.076" y1="312.068" x2="316.076" y2="323.318"/>
<line fill="none" stroke="#000000" stroke-width="2" stroke-linecap="square" stroke-miterlimit="10" x1="325.826" y1="324.818" x2="325.826" y2="335.318"/>
<line fill="none" stroke="#000000" stroke-width="2" stroke-linecap="square" stroke-miterlimit="10" x1="338.576" y1="334.568" x2="338.576" y2="345.068"/>
<line fill="none" stroke="#000000" stroke-width="2" stroke-linecap="square" stroke-miterlimit="10" x1="294.326" y1="271.568" x2="294.326" y2="282.818"/>
<line fill="none" stroke="#000000" stroke-width="2" stroke-linecap="square" stroke-miterlimit="10" x1="302.576" y1="283.568" x2="302.576" y2="294.068"/>
<line fill="none" stroke="#000000" stroke-width="2" stroke-linecap="square" stroke-miterlimit="10" x1="311.576" y1="290.318" x2="311.576" y2="300.818"/>
<line fill="none" stroke="#000000" stroke-width="2" stroke-linecap="square" stroke-miterlimit="10" x1="325.826" y1="300.818" x2="325.826" y2="311.318"/>
<line fill="none" stroke="#000000" stroke-width="2" stroke-linecap="square" stroke-miterlimit="10" x1="335.576" y1="313.568" x2="335.576" y2="324.068"/>
<line fill="none" stroke="#000000" stroke-width="2" stroke-linecap="square" stroke-miterlimit="10" x1="348.326" y1="323.318" x2="348.326" y2="333.818"/>
<line fill="none" stroke="#000000" stroke-width="2" stroke-linecap="square" stroke-miterlimit="10" x1="313.076" y1="268.568" x2="313.076" y2="279.068"/>
<line fill="none" stroke="#000000" stroke-width="2" stroke-linecap="square" stroke-miterlimit="10" x1="321.326" y1="279.818" x2="321.326" y2="290.318"/>
<line fill="none" stroke="#000000" stroke-width="2" stroke-linecap="square" stroke-miterlimit="10" x1="330.326" y1="286.568" x2="330.326" y2="297.068"/>
<line fill="none" stroke="#000000" stroke-width="2" stroke-linecap="square" stroke-miterlimit="10" x1="344.576" y1="297.818" x2="344.576" y2="308.318"/>
<line fill="none" stroke="#000000" stroke-width="2" stroke-linecap="square" stroke-miterlimit="10" x1="354.326" y1="309.818" x2="354.326" y2="320.318"/>
<line fill="none" stroke="#000000" stroke-width="2" stroke-linecap="square" stroke-miterlimit="10" x1="367.076" y1="319.568" x2="367.076" y2="330.068"/>
<line fill="none" stroke="#000000" stroke-width="2" stroke-linecap="square" stroke-miterlimit="10" x1="332.576" y1="266.318" x2="332.576" y2="276.818"/>
<line fill="none" stroke="#000000" stroke-width="2" stroke-linecap="square" stroke-miterlimit="10" x1="340.826" y1="278.318" x2="340.826" y2="288.818"/>
<line fill="none" stroke="#000000" stroke-width="2" stroke-linecap="square" stroke-miterlimit="10" x1="349.826" y1="285.068" x2="349.826" y2="295.568"/>
<line fill="none" stroke="#000000" stroke-width="2" stroke-linecap="square" stroke-miterlimit="10" x1="364.076" y1="295.568" x2="364.076" y2="306.068"/>
<line fill="none" stroke="#000000" stroke-width="2" stroke-linecap="square" stroke-miterlimit="10" x1="373.826" y1="308.318" x2="373.826" y2="318.818"/>
<line fill="none" stroke="#000000" stroke-width="2" stroke-linecap="square" stroke-miterlimit="10" x1="386.576" y1="318.068" x2="386.576" y2="328.568"/>
<line fill="none" stroke="#000000" stroke-width="2" stroke-linecap="square" stroke-miterlimit="10" x1="378.326" y1="291.818" x2="378.326" y2="302.318"/>
<line fill="none" stroke="#000000" stroke-width="2" stroke-linecap="square" stroke-miterlimit="10" x1="386.576" y1="303.068" x2="386.576" y2="313.568"/>
<line fill="none" stroke="#000000" stroke-width="2" stroke-linecap="square" stroke-miterlimit="10" x1="395.578" y1="309.818" x2="395.578" y2="320.318"/>
<line fill="none" stroke="#000000" stroke-width="2" stroke-linecap="square" stroke-miterlimit="10" x1="409.826" y1="320.318" x2="409.826" y2="330.818"/>
<line fill="none" stroke="#000000" stroke-width="2" stroke-linecap="square" stroke-miterlimit="10" x1="420.326" y1="333.068" x2="420.326" y2="343.568"/>
<line fill="none" stroke="#000000" stroke-width="2" stroke-linecap="square" stroke-miterlimit="10" x1="432.326" y1="342.818" x2="432.326" y2="353.318"/>
<line fill="none" stroke="#000000" stroke-width="2" stroke-linecap="square" stroke-miterlimit="10" x1="394.828" y1="325.568" x2="394.828" y2="336.818"/>
<line fill="none" stroke="#000000" stroke-width="2" stroke-linecap="square" stroke-miterlimit="10" x1="409.076" y1="336.818" x2="409.076" y2="347.318"/>
<line fill="none" stroke="#000000" stroke-width="2" stroke-linecap="square" stroke-miterlimit="10" x1="418.826" y1="348.818" x2="418.826" y2="359.318"/>
<line fill="none" stroke="#000000" stroke-width="2" stroke-linecap="square" stroke-miterlimit="10" x1="431.576" y1="358.568" x2="431.576" y2="369.068"/>
<line fill="none" stroke="#000000" stroke-width="2" stroke-linecap="square" stroke-miterlimit="10" x1="376.826" y1="325.568" x2="376.826" y2="336.068"/>
<line fill="none" stroke="#000000" stroke-width="2" stroke-linecap="square" stroke-miterlimit="10" x1="385.076" y1="336.818" x2="385.076" y2="347.318"/>
<line fill="none" stroke="#000000" stroke-width="2" stroke-linecap="square" stroke-miterlimit="10" x1="394.078" y1="343.568" x2="394.078" y2="354.068"/>
<line fill="none" stroke="#000000" stroke-width="2" stroke-linecap="square" stroke-miterlimit="10" x1="407.578" y1="354.068" x2="407.578" y2="364.568"/>
<line fill="none" stroke="#000000" stroke-width="2" stroke-linecap="square" stroke-miterlimit="10" x1="418.076" y1="366.818" x2="418.076" y2="377.318"/>
<line fill="none" stroke="#000000" stroke-width="2" stroke-linecap="square" stroke-miterlimit="10" x1="430.826" y1="376.568" x2="430.826" y2="387.068"/>
<line fill="none" stroke="#000000" stroke-width="2" stroke-linecap="square" stroke-miterlimit="10" x1="364.076" y1="330.068" x2="364.076" y2="340.568"/>
<line fill="none" stroke="#000000" stroke-width="2" stroke-linecap="square" stroke-miterlimit="10" x1="372.326" y1="341.318" x2="372.326" y2="351.818"/>
<line fill="none" stroke="#000000" stroke-width="2" stroke-linecap="square" stroke-miterlimit="10" x1="381.326" y1="348.068" x2="381.326" y2="358.568"/>
<line fill="none" stroke="#000000" stroke-width="2" stroke-linecap="square" stroke-miterlimit="10" x1="395.578" y1="358.568" x2="395.578" y2="369.068"/>
<line fill="none" stroke="#000000" stroke-width="2" stroke-linecap="square" stroke-miterlimit="10" x1="405.328" y1="371.318" x2="405.328" y2="381.818"/>
<line fill="none" stroke="#000000" stroke-width="2" stroke-linecap="square" stroke-miterlimit="10" x1="418.076" y1="381.068" x2="418.076" y2="391.568"/>
<line fill="none" stroke="#000000" stroke-width="2" stroke-linecap="square" stroke-miterlimit="10" x1="352.826" y1="333.068" x2="352.826" y2="343.568"/>
<line fill="none" stroke="#000000" stroke-width="2" stroke-linecap="square" stroke-miterlimit="10" x1="360.326" y1="345.068" x2="360.326" y2="355.568"/>
<line fill="none" stroke="#000000" stroke-width="2" stroke-linecap="square" stroke-miterlimit="10" x1="370.076" y1="351.818" x2="370.076" y2="362.318"/>
<line fill="none" stroke="#000000" stroke-width="2" stroke-linecap="square" stroke-miterlimit="10" x1="383.576" y1="362.318" x2="383.576" y2="372.818"/>
<line fill="none" stroke="#000000" stroke-width="2" stroke-linecap="square" stroke-miterlimit="10" x1="394.078" y1="374.318" x2="394.078" y2="384.818"/>
<line fill="none" stroke="#000000" stroke-width="2" stroke-linecap="square" stroke-miterlimit="10" x1="406.828" y1="384.068" x2="406.828" y2="394.568"/>
<line fill="none" stroke="#000000" stroke-width="2" stroke-linecap="square" stroke-miterlimit="10" x1="352.826" y1="361.568" x2="352.826" y2="372.068"/>
<line fill="none" stroke="#000000" stroke-width="2" stroke-linecap="square" stroke-miterlimit="10" x1="334.826" y1="350.318" x2="334.826" y2="360.818"/>
<line fill="none" stroke="#000000" stroke-width="2" stroke-linecap="square" stroke-miterlimit="10" x1="348.326" y1="349.568" x2="348.326" y2="360.068"/>
<line fill="none" stroke="#000000" stroke-width="2" stroke-linecap="square" stroke-miterlimit="10" x1="362.576" y1="360.068" x2="362.576" y2="370.568"/>
<line fill="none" stroke="#000000" stroke-width="2" stroke-linecap="square" stroke-miterlimit="10" x1="373.076" y1="372.818" x2="373.076" y2="383.318"/>
<line fill="none" stroke="#000000" stroke-width="2" stroke-linecap="square" stroke-miterlimit="10" x1="385.076" y1="382.568" x2="385.076" y2="393.068"/>
</svg>