<svg xmlns="http://www.w3.org/2000/svg" xmlns:xlink="http://www.w3.org/1999/xlink" version="1.1" id="Layer_1" x="0px" y="0px" enable-background="new 0 0 822.05 841.89" xml:space="preserve" viewBox="315 350.01 195.35 141.11">
<path fill-rule="evenodd" clip-rule="evenodd" fill="#CD998A" d="M387,462.39c-14.062,5.284-54.948,0.148-64.5-11.25  c-12.589-15.022,10.574-37.865,22.5-54.75c9.654-13.669,20.382-25.993,28.5-40.875c7.008-12.848,17.995,4.215,27,4.875  c9.985,0.731,12.777-8.518,21-6.75c9.782,2.104,17.813,12.228,27,16.5c3.604-9.25,6.404-12.072,15-5.625  c8.885,6.664,25.32,11.256,32.25,17.625c22.378,20.568,4.319,62.827,0.468,91.068C490.796,512.972,409.462,466.534,387,462.39z"/>
<path fill-rule="evenodd" clip-rule="evenodd" d="M387,462.39c-22.912,3.148-51.56-9.668-72-15.75c1.307-2.596,1.529-1.993,1.5-4.5  c1,1,1,1,0,0c6.555-5.924,19.707-24.608,19.5-34.5c14.425-11.722,35.854-37.862,39.75-56.25c9.404,2.879,21.659,10.97,33.75,12.75  c-0.803-3.456-2.785-0.266-2.25-0.75c0.016-0.028,7.303-6.275,8.25-9c11.473,2.544,21.08,12.529,33,17.25c0-1,0-2,0-3  c0.126,1.47,0.961,0.816,0,1.5c0-2,0-2,0,0c1.171-1.224,1.171-1.724,0-1.5c-0.149,0.966,1.354,1.621,0,1.5  c-0.414-1.889,3.322-0.815,0,0c-0.087-0.97,1.269-0.392,1.5,0c0.224-1.171-0.276-1.171-1.5,0c-0.192,0.886,1.388-1.291,0.75,0  c0.228-0.833,3.078-8.53,3-8.25c18.648,3.169,20.938,20.676,43.5,20.25c24.059,19.276-5.618,70.593,0,94.5  c-4.241,5.604-15.312,11.466-21.75,13.5c-22.242-11.068-62.106-27.503-88.5-29.25c4.661,2.355,11.563,4.958,15.75,5.25  c5.41,6.715,14.898,10.525,21,8.25c0.634,0.115,6.727,2.462,11.25,2.25c22.166,15.897,53.084,25.945,65.25-9.75  c16.48-48.353,21.003-77.937-24.75-93c0.048,0.156,0.63,0.86,0,0.75c-6.103-14.763-28.645-21.729-24.75-3  c-9.69-9.884-33.191-31.506-41.25-9.75c-1-1-1-1,0,0c-1.25-1.25-1-1,0.75,0.75c-0.053-1.224-0.553-1.724-1.5-1.5  c3.604,0.021-0.989,2.58,1.5-0.75c-1.053,0.579-1.053,1.329,0,2.25c0-3,0-3,0,0c1.053-0.921,1.053-1.671,0-2.25  c1.83,1.421-0.785,3.179,0.75,0.75c-1.283,1.447-1.033,1.947,0.75,1.5c-1.339-0.528-12.576-4.717-16.5-5.25  c-17.275-27.401-42.927,29.718-49.5,37.5c-11.428,10.969-24.868,33.883-27.75,46.5c-5.676,9.286,11.808,15.905,24.75,15.75  C351.151,464.97,384.027,470.406,387,462.39z"/>
<path fill-rule="evenodd" clip-rule="evenodd" fill="#CCADA6" d="M378,358.89c6.385,0.935,12.637,3.292,15,12  C382.196,370.989,378.925,366.506,378,358.89z"/>
<path fill-rule="evenodd" clip-rule="evenodd" fill="#E4D3D0" d="M471.75,412.89c-1.102-2.44-4.086-4.797-6-6.75  C476.268,407.145,482.301,409.164,471.75,412.89z"/>
<path fill-rule="evenodd" clip-rule="evenodd" fill="#E4D3D0" d="M459,411.39C468.41,418.143,474.069,418.788,459,411.39L459,411.39  z"/>
<path fill-rule="evenodd" clip-rule="evenodd" fill="#CCADA6" d="M392.25,447.39c7.899-1.545,15.818-5.378,21.75-9.75  C404.273,437.681,374.599,436.675,392.25,447.39z"/>
<path fill-rule="evenodd" clip-rule="evenodd" fill="#E4D3D0" d="M396.75,408.39C424.586,395.723,399.742,383.456,396.75,408.39  L396.75,408.39z"/>
<path fill-rule="evenodd" clip-rule="evenodd" fill="#CDA59B" d="M479.25,442.14c2.596-6.021,5.953-11.369,15.75-11.25  C492.253,441.111,487.017,443.099,479.25,442.14z"/>
<path fill-rule="evenodd" clip-rule="evenodd" fill="#E4D3D0" d="M442.5,455.64C424.483,457.812,442.099,442.69,442.5,455.64  L442.5,455.64z"/>
<path fill-rule="evenodd" clip-rule="evenodd" fill="#CCADA6" d="M432,433.14c2.252-2.31,7.974-0.721,9-8.25  C433.186,423.261,435.871,428.767,432,433.14z"/>
<path fill-rule="evenodd" clip-rule="evenodd" fill="#E4D3D0" d="M422.25,474.39l6-2.25L422.25,474.39z"/>
<path fill-rule="evenodd" clip-rule="evenodd" d="M423,475.89c3.076-2.921,7.104,0.593,5.25-5.25  C422.353,471.029,424.522,474.444,423,475.89z"/>
<path fill-rule="evenodd" clip-rule="evenodd" fill="#E4D3D0" d="M475.5,437.64c0.929,6.751,0.991,12.977-6.75,18  C465.2,444.494,469.907,442.115,475.5,437.64z"/>
<path fill-rule="evenodd" clip-rule="evenodd" fill="#E4D3D0" d="M469.5,462.39C482.375,449.454,477.97,471.977,469.5,462.39  L469.5,462.39z"/>
<path fill-rule="evenodd" clip-rule="evenodd" fill="#CDA59B" d="M488.25,444.39C485.49,455.144,487.352,460.743,488.25,444.39  L488.25,444.39z"/>
<path fill-rule="evenodd" clip-rule="evenodd" fill="#E4D3D0" d="M429,377.64c-4.707-3.203-6.859-7.12-12.75-6.75  C421.285,378.995,427.195,377.373,429,377.64z"/>
<path fill-rule="evenodd" clip-rule="evenodd" fill="#D6AFA2" d="M429.75,362.64c3.858,5.316,6.082,11.367,13.5,15  C438.19,373.463,434.631,367.828,429.75,362.64z"/>
<path fill-rule="evenodd" clip-rule="evenodd" fill="#D2ACA3" d="M438,411.39c4.371,8.499,9.24,14.641,16.5,16.5  C450.67,418.816,440.007,391.287,438,411.39z"/>
<path fill-rule="evenodd" clip-rule="evenodd" fill="#CDA59B" d="M399.75,391.14C428.301,377.124,407.326,419.181,399.75,391.14  L399.75,391.14z"/>
<path fill-rule="evenodd" clip-rule="evenodd" fill="#E4D3D0" d="M356.25,392.64C378.998,412.382,364.437,374.037,356.25,392.64  L356.25,392.64z"/>
<path fill-rule="evenodd" clip-rule="evenodd" fill="#CCADA6" d="M373.5,430.89c1.833,0.346,9.388,1.821,13.5,2.25  C384.226,421.299,380.964,429.488,373.5,430.89z"/>
<path fill-rule="evenodd" clip-rule="evenodd" fill="#CCADA6" d="M381,372.39C382.65,377.741,383.434,380.283,381,372.39L381,372.39  z"/>
<path fill-rule="evenodd" clip-rule="evenodd" fill="#CDA59B" d="M471,385.14c3.72,4.268,12.945,8.595,20.25,9  C486.942,384.766,479.543,382.701,471,385.14z"/>
<path fill-rule="evenodd" clip-rule="evenodd" fill="#CCADA6" d="M408,415.14c-0.438,2.817,0.319,8.574-3.75,12.75  C400.349,420.142,406.014,418.426,408,415.14z"/>
<path fill-rule="evenodd" clip-rule="evenodd" fill="#CCADA6" d="M403.5,432.39c0.654-0.021,3.282-4.635,4.5-5.25  C409.307,440.341,405.398,432.328,403.5,432.39z"/>
<path fill-rule="evenodd" clip-rule="evenodd" fill="#CCADA6" d="M342,438.39c3.946,5.522,6.976,9.668,12,12  C350.709,441.072,346.553,428.029,342,438.39z"/>
<path fill-rule="evenodd" clip-rule="evenodd" fill="#CDA59B" d="M444,462.39C466.878,464.362,454.521,483.956,444,462.39  L444,462.39z"/>
<path fill-rule="evenodd" clip-rule="evenodd" fill="#E4D3D0" d="M449.25,451.14C439.916,435.384,461.163,444.279,449.25,451.14  L449.25,451.14z"/>
<path fill-rule="evenodd" clip-rule="evenodd" fill="#E4D3D0" d="M438.75,436.14C447.862,442.491,453.77,443.181,438.75,436.14  L438.75,436.14z"/>
<path fill-rule="evenodd" clip-rule="evenodd" fill="#E4D3D0" d="M477.75,400.89c1.498,0.669,7.062,0.006,10.5,4.5c0,0.5,0,1,0,1.5  C480.535,408.412,480.601,403.251,477.75,400.89z"/>
<path fill-rule="evenodd" clip-rule="evenodd" fill="#D2ACA3" d="M478.5,414.39C478.855,402.62,478.544,412.923,478.5,414.39  L478.5,414.39z"/>
<path fill-rule="evenodd" clip-rule="evenodd" fill="#D2ACA3" d="M485.25,403.14c2.293,0.89,2.578,4.304,6.75,3.75  c0.611-0.665,0.861-1.415,0.75-2.25C490.055,402.725,487.952,404.188,485.25,403.14z"/>
<path fill-rule="evenodd" clip-rule="evenodd" fill="#D2ACA3" d="M456,421.14c4.875-2.301,9.862-5.535,13.5-8.25  C460.254,413.708,446.516,414.557,456,421.14z"/>
<path fill-rule="evenodd" clip-rule="evenodd" fill="#CDA59B" d="M444,396.39c2.793-3.367,6.601-6.943,9-11.25  C443.953,385.308,446.358,391.426,444,396.39z"/>
<path fill-rule="evenodd" clip-rule="evenodd" fill="#D2ACA3" d="M489,423.39c1.518-1.613,3.786-6.778,8.25-8.25  c0.5,0.5,1,1,1.5,1.5C496.404,424.145,491.226,421.96,489,423.39z"/>
<path fill-rule="evenodd" clip-rule="evenodd" fill="#D2ACA3" d="M482.25,418.89C472.87,414.561,482.027,418.788,482.25,418.89  L482.25,418.89z"/>
<path fill-rule="evenodd" clip-rule="evenodd" fill="#E4D3D0" d="M471.75,423.39c0.119-0.132,4.552-1.456,5.25-5.25  c0.374,0.13-2.537-1.035-2.25-0.75C473.303,418.875,472.714,422.317,471.75,423.39z"/>
<path fill-rule="evenodd" clip-rule="evenodd" fill="#CCADA6" d="M369,395.64c1.458,6.319,1.967,12.353-6,18  C358.804,402.672,363.531,400.271,369,395.64z"/>
<path fill-rule="evenodd" clip-rule="evenodd" fill="#CCADA6" d="M363.75,420.39C376.246,407.053,371.469,430.768,363.75,420.39  L363.75,420.39z"/>
<path fill-rule="evenodd" clip-rule="evenodd" fill="#CCADA6" d="M393.75,367.89C390.567,380.588,392.673,383.511,393.75,367.89  L393.75,367.89z"/>
<path fill-rule="evenodd" clip-rule="evenodd" fill="#CCADA6" d="M338.25,420.39c5.911,0.596,11.536,1.649,16.5,9.75  C344.201,433.33,341.616,428.026,338.25,420.39z"/>
<path fill-rule="evenodd" clip-rule="evenodd" fill="#CCADA6" d="M348.75,410.64C358.872,417.394,364.088,417.306,348.75,410.64  L348.75,410.64z"/>
<path fill-rule="evenodd" clip-rule="evenodd" fill="#BA8371" d="M387.75,370.14C388.075,370.405,390.523,372.402,387.75,370.14  L387.75,370.14z M380.25,356.64c-1.576,1.529-4.382,2.082-5.25,5.25C376.758,360.607,380.239,356.65,380.25,356.64z"/>
<path fill-rule="evenodd" clip-rule="evenodd" fill="#B98A7C" d="M381,356.64c-1.694,5.121,0.35,8.205,8.25,14.25  c0.484-1.133,1.544-3.062,3-3C387.67,364.647,384.646,360.903,381,356.64z"/>
<path fill-rule="evenodd" clip-rule="evenodd" fill="#AF7764" d="M470.25,412.89C463.449,396.625,482.558,408.813,470.25,412.89  L470.25,412.89z"/>
<path fill-rule="evenodd" clip-rule="evenodd" fill="#AF7764" d="M457.5,411.39C467.101,418.424,472.501,418.408,457.5,411.39  L457.5,411.39z"/>
<path fill-rule="evenodd" clip-rule="evenodd" fill="#C18B7A" d="M399.75,442.89c-6.529,2.013-7.093,5.456-14.25,3  c6.584,2.404,9.021,1.461,18,0C408.861,441.712,402.32,444.416,399.75,442.89z M414,439.14c-2.041,2.428-3.27,4.064-6.75,4.5  C414.387,445.935,412.04,441.472,414,439.14z"/>
<path fill-rule="evenodd" clip-rule="evenodd" fill="#C0978B" d="M413.25,439.14c-10.803,0.715-20.206,0.509-27.75,6.75  C395.11,445.503,406.483,442.889,413.25,439.14z"/>
<path fill-rule="evenodd" clip-rule="evenodd" fill="#C18B7A" d="M396.75,400.89c-0.699,3.691-3.843,4.449-0.75,8.25  C396.104,406.903,396.231,403.631,396.75,400.89z"/>
<path fill-rule="evenodd" clip-rule="evenodd" fill="#CFADA1" d="M396.75,403.14c2.103,2.667-0.395,7.967,6,1.5  C400.075,405.974,398.393,405.224,396.75,403.14z"/>
<path fill-rule="evenodd" clip-rule="evenodd" fill="#C19284" d="M405.75,398.64C405.496,401.778,405.697,399.293,405.75,398.64  L405.75,398.64z"/>
<path fill-rule="evenodd" clip-rule="evenodd" fill="#BF8877" d="M478.5,441.39C480.271,443.356,483.513,446.952,478.5,441.39  L478.5,441.39z M491.25,429.39c-4.956,2.77-11.557,6.649-15,9C479.105,437.246,488.597,431.1,491.25,429.39z"/>
<path fill-rule="evenodd" clip-rule="evenodd" fill="#BF8F80" d="M481.5,439.14C480.613,437.497,481.154,438.499,481.5,439.14  L481.5,439.14z M489,432.39C489,433.39,489,433.39,489,432.39L489,432.39z M492,429.39c-9.508,3.717-17.036,7.113-9.75,15  C487.229,439.59,491.028,434.572,492,429.39z"/>
<path fill-rule="evenodd" clip-rule="evenodd" fill="#CAA698" d="M476.25,438.39C478.691,442.334,478.579,442.152,476.25,438.39  L476.25,438.39z"/>
<path fill-rule="evenodd" clip-rule="evenodd" fill="#AF7764" d="M441,455.64C422.983,457.812,440.599,442.69,441,455.64L441,455.64  z"/>
<path fill-rule="evenodd" clip-rule="evenodd" fill="#AF7764" d="M430.5,433.14c2.252-2.31,7.974-0.721,9-8.25  C431.686,423.261,434.371,428.767,430.5,433.14z"/>
<path fill-rule="evenodd" clip-rule="evenodd" fill="#C18B78" d="M384.75,461.64c-25.373,5.404-45.685-15.139-69-17.25  C328.044,457.353,373.135,470.176,384.75,461.64z"/>
<path fill-rule="evenodd" clip-rule="evenodd" d="M316.5,442.89c15.614,4.055,45.46,25.027,67.5,18.75  c-0.098,0.719-2.27-2.296-2.25-2.25c-1.211,0.737-0.961,1.237,0.75,1.5c-1.596-0.313-0.449-1.317-0.75-1.5  C366.167,460.707,320.278,436.053,316.5,442.89z"/>
<path fill-rule="evenodd" clip-rule="evenodd" fill="#A57667" d="M399.75,464.64c-12.812-3.966-31.226-5.926-36.75-16.5  C377.102,448.114,391.041,453.325,399.75,464.64z"/>
<path fill-rule="evenodd" clip-rule="evenodd" d="M407.25,361.89c-15.63,26.723-31.591,53.292-46.417,80.473  c-9.602,17.604,17.878,19.175,26.917,18.527C324.652,441.765,415.031,398.63,407.25,361.89z"/>
<path fill-rule="evenodd" clip-rule="evenodd" d="M447,369.39c-14.174,29.616-28.608,60.324-39,91.5  c-3.767,11.3,15.954,13.413,24,15.75c-3.72-6.376-7.968-6.438-14.25-7.5c1.882-0.306-4.363-1.632-5.25-1.5  c0.959,0.738,0.275,1.122,0.75,0.75c0-1,0-1,0,0C403.306,441.462,452.111,395.764,447,369.39z"/>
<path fill-rule="evenodd" clip-rule="evenodd" d="M360.75,448.89c27.956-4.399,40.431,30.801,65.25,24  c-5.301-1.812-20.773-8.362-21.75-9C394.947,452.747,367.426,436.43,360.75,448.89z"/>
<path fill-rule="evenodd" clip-rule="evenodd" d="M493.5,383.64c13.371,10.696,8.817,89.95-8.25,100.5  c-24.182,14.948-51.801-31.505-77.25-21c12.262,1.013,87.784,47.005,83.25,13.5c12.218-14.08,15.44-68.123,10.5-84  C503.682,385.549,499.786,383.534,493.5,383.64z"/>
<path fill-rule="evenodd" clip-rule="evenodd" fill="#C18B78" d="M473.25,490.14c-19.642-6.252-41.463-27.96-62.25-24.75  c0,0.5,0,1,0,1.5C432.644,469.351,452.825,482.359,473.25,490.14z"/>
<path fill-rule="evenodd" clip-rule="evenodd" fill="#AD6D5E" d="M471.75,436.89c-3.266,7.32-8.67,11.495-2.25,18.75  C466.736,447.873,470.78,441.826,471.75,436.89z"/>
<path fill-rule="evenodd" clip-rule="evenodd" fill="#B58172" d="M473.25,442.89C473.199,440.832,473.132,438.045,473.25,442.89  L473.25,442.89z M472.5,436.89c-2.91,6.604-6.663,10.964-3,18.75C476.344,448.257,474.469,443.212,472.5,436.89z"/>
<path fill-rule="evenodd" clip-rule="evenodd" fill="#AC7363" d="M476.25,439.14C478.335,443.713,476.716,440.162,476.25,439.14  L476.25,439.14z"/>
<path fill-rule="evenodd" clip-rule="evenodd" fill="#B37565" d="M469.5,467.64C470.167,467.64,472.833,467.64,469.5,467.64  L469.5,467.64z M473.25,454.89c-1.031,1.687-4.325,5.297-4.5,8.25C470.11,461.104,473.045,455.226,473.25,454.89z"/>
<path fill-rule="evenodd" clip-rule="evenodd" fill="#BC8E81" d="M474,454.89c-1.859,5.426-5.684,6.627-4.5,12.75  c0.75,0,1.5,0,2.25,0C471.844,463.815,473.031,458.283,474,454.89z"/>
<path fill-rule="evenodd" clip-rule="evenodd" fill="#A96859" d="M485.25,455.64C485.25,456.76,485.25,456.76,485.25,455.64  L485.25,455.64z M484.5,445.89C483.71,451.775,483.929,450.151,484.5,445.89L484.5,445.89z"/>
<path fill-rule="evenodd" clip-rule="evenodd" fill="#A96C5D" d="M485.25,446.64c0.727,3.187-0.651,6.504,0.75,9.75  C491.938,449.76,485.853,449.284,485.25,446.64z"/>
<path fill-rule="evenodd" clip-rule="evenodd" fill="#B97D6D" d="M428.25,362.64c1.363,7.588,4.307,14.736,12.75,18.75  C434.178,375.921,431.744,369.071,428.25,362.64z"/>
<path fill-rule="evenodd" clip-rule="evenodd" fill="#BE897B" d="M429,363.39c1.56,6.81,5.845,13.347,12,18  c0.75-1.25,1.5-2.5,2.25-3.75C436.096,374.009,434.551,368.962,429,363.39z"/>
<path fill-rule="evenodd" clip-rule="evenodd" fill="#493E39" d="M443.25,377.64C441.505,383.376,442.064,381.535,443.25,377.64  L443.25,377.64z"/>
<path fill-rule="evenodd" clip-rule="evenodd" fill="#AB6B5C" d="M436.5,404.64c2.216,9.905,6.649,18.315,15,24.75  C445.64,421.182,440.491,413.791,436.5,404.64z M437.25,403.14C436.762,405.476,437.429,402.286,437.25,403.14L437.25,403.14z"/>
<path fill-rule="evenodd" clip-rule="evenodd" fill="#AD7163" d="M438,403.14c0.933,9.277,7.026,17.183,13.5,26.25  c-0.354-1-0.104-1.75,0.75-2.25C448.517,417.253,445.238,409.689,438,403.14z"/>
<path fill-rule="evenodd" clip-rule="evenodd" fill="#B97D6D" d="M406.5,384.39c-4.243,2.156-7.483,2.194-7.5,7.5  c9.412-1.484,7.105-1.439,17.25,0.75C415.56,387.283,411.618,387.008,406.5,384.39z"/>
<path fill-rule="evenodd" clip-rule="evenodd" fill="#B88477" d="M406.5,387.39c-3.048,1.651-5.496,0.255-7.5,4.5  c3.427,0.035,6.993,1.038,12,0c-0.022,4.932-2.488,3.645-4.5,7.5c4.223-1.646,6.612-2.473,9.75-6.75  C413.516,388.575,409.708,389.562,406.5,387.39z"/>
<path fill-rule="evenodd" clip-rule="evenodd" fill="#B27A6B" d="M409.5,391.14c0.022-0.04-5.267,2.256-6,3  c1.561,1.69,1.586,3.567,3,5.25C413.555,395.873,408.335,393.231,409.5,391.14z"/>
<path fill-rule="evenodd" clip-rule="evenodd" fill="#BA8371" d="M359.25,384.39c-0.934,1.914-3.179,3.958-3.75,6.75  C357.059,389.828,358.778,385.357,359.25,384.39z"/>
<path fill-rule="evenodd" clip-rule="evenodd" fill="#C29888" d="M360,384.39c1.82,4.968-4.602,10.193,7.5,10.5  C359.749,392.719,362.848,389.089,360,384.39z"/>
<path fill-rule="evenodd" clip-rule="evenodd" fill="#B98A7C" d="M366.75,394.89L366.75,394.89z"/>
<path fill-rule="evenodd" clip-rule="evenodd" fill="#C18B7A" d="M381,431.64C382.415,432.157,388.5,434.376,381,431.64L381,431.64z   M381,426.39c-3.766,2.287-7.033,1.975-9,6C373.645,431.183,380.26,426.839,381,426.39z"/>
<path fill-rule="evenodd" clip-rule="evenodd" fill="#C0978B" d="M381.75,426.39c-2.779,2.686-6.495,2.535-8.25,6  c3.49,0.37,8.595,0.617,12,0.75C385.639,431.564,382.112,424.981,381.75,426.39z"/>
<path fill-rule="evenodd" clip-rule="evenodd" fill="#C58C7C" d="M474,382.89c-5.752,6.703,4.168,9.789,14.25,12  C478.119,392.423,468.764,388.455,474,382.89z"/>
<path fill-rule="evenodd" clip-rule="evenodd" fill="#C4968B" d="M474.75,382.89c-6.455,6.851,4.664,9.9,14.25,12  C487.647,386.235,482.407,386.206,474.75,382.89z"/>
<path fill-rule="evenodd" clip-rule="evenodd" fill="#B97D6D" d="M402.75,418.89c-0.203,2.277-2.881,5.704,0.75,9  C402.596,425.042,402.474,421.991,402.75,418.89z M405.75,414.39L405.75,414.39z"/>
<path fill-rule="evenodd" clip-rule="evenodd" fill="#B8887C" d="M405.75,414.39c-1.614,5.218-4.465,7.382-2.25,13.5  C407.956,422.324,405.576,417.113,405.75,414.39z"/>
<path fill-rule="evenodd" clip-rule="evenodd" fill="#AE6E5F" d="M342,437.64c1.561,3.01,4.884,9.971,9.75,13.5  C348.396,446.666,345.051,442.218,342,437.64z"/>
<path fill-rule="evenodd" clip-rule="evenodd" fill="#AD7567" d="M342.75,433.14c2.302,6.448,2.769,12.359,9,18  C349.808,445.22,346.15,438.394,342.75,433.14z"/>
<path fill-rule="evenodd" clip-rule="evenodd" fill="#AF7060" d="M441.75,463.89c2.47,3.157,2.495,7.124,8.25,8.25  C445.416,470.154,444.227,467.055,441.75,463.89z"/>
<path fill-rule="evenodd" clip-rule="evenodd" fill="#AF7466" d="M450,462.39c-2.284,2.913-0.045,6.591-5.25,6  c4.715,1.796,9.849,4.493,14.25,4.5C457.256,469.507,453.725,465.12,450,462.39z"/>
<path fill-rule="evenodd" clip-rule="evenodd" fill="#BE8373" d="M442.5,442.89c0.754,1.413,0.261,4.014,3,6  C445.173,446.25,443.055,443.929,442.5,442.89z"/>
<path fill-rule="evenodd" clip-rule="evenodd" fill="#CBA89D" d="M448.5,442.89c-2.457,1.4-5.215-2.036-4.5,2.25  C447.896,450.43,445.844,444.404,448.5,442.89z"/>
<path fill-rule="evenodd" clip-rule="evenodd" fill="#CBA89D" d="M447.75,441.39C447.624,445.263,447.756,441.196,447.75,441.39  L447.75,441.39z"/>
<path fill-rule="evenodd" clip-rule="evenodd" fill="#AB6A5A" d="M443.25,442.14C442.608,442.486,441.606,443.027,443.25,442.14  L443.25,442.14z M438,436.14C437.377,437.161,434.795,441.39,438,436.14L438,436.14z"/>
<path fill-rule="evenodd" clip-rule="evenodd" fill="#B07A6B" d="M446.25,437.64c-0.061,1.646-5.695,5.321-1.5,3.75  C450.975,441.93,446.162,440.039,446.25,437.64z"/>
<path fill-rule="evenodd" clip-rule="evenodd" fill="#A66455" d="M443.25,442.14C443.25,443.347,443.25,443.347,443.25,442.14  L443.25,442.14z"/>
<path fill-rule="evenodd" clip-rule="evenodd" fill="#AA6E60" d="M444,442.89C444.75,442.89,449.25,442.89,444,442.89L444,442.89z"/>
<path fill-rule="evenodd" clip-rule="evenodd" fill="#AA6E60" d="M447,441.39C440.508,444.872,447.109,441.332,447,441.39  L447,441.39z"/>
<path fill-rule="evenodd" clip-rule="evenodd" fill="#AF7764" d="M476.25,400.89c2.171,0.799,7.528,0.373,11.25,5.25  C479.599,409.063,479.462,403.517,476.25,400.89z"/>
<path fill-rule="evenodd" clip-rule="evenodd" fill="#AF7764" d="M477,414.39C477.355,402.62,477.044,412.923,477,414.39L477,414.39  z"/>
<path fill-rule="evenodd" clip-rule="evenodd" fill="#AF7764" d="M483.75,403.14c2.293,0.89,2.578,4.304,6.75,3.75  c0.611-0.665,0.861-1.415,0.75-2.25C488.555,402.725,486.452,404.188,483.75,403.14z"/>
<path fill-rule="evenodd" clip-rule="evenodd" fill="#AF7764" d="M454.5,421.14c5.106-2.357,9.771-5.134,13.5-8.25  C458.711,413.691,445.081,414.496,454.5,421.14z"/>
<path fill-rule="evenodd" clip-rule="evenodd" fill="#AF7764" d="M442.5,396.39c2.599-3.063,6.745-6.584,9-11.25  C442.487,385.308,444.807,391.364,442.5,396.39z"/>
<path fill-rule="evenodd" clip-rule="evenodd" fill="#AF7764" d="M487.5,423.39c2.486-2.566,4.161-7.511,9.75-7.5  C495.306,424.041,490.078,421.769,487.5,423.39z"/>
<path fill-rule="evenodd" clip-rule="evenodd" fill="#AF7764" d="M480.75,418.89C471.37,414.561,480.527,418.788,480.75,418.89  L480.75,418.89z"/>
<path fill-rule="evenodd" clip-rule="evenodd" fill="#AF7764" d="M470.25,423.39c1.49-1.505,5.752-0.314,4.5-6  C471.312,418.2,472.086,421.536,470.25,423.39z"/>
<path fill-rule="evenodd" clip-rule="evenodd" fill="#BA8371" d="M362.25,400.89c-0.229,4.238-4.464,8.384,1.5,12.75  C360.775,409.73,362.34,405.677,362.25,400.89z"/>
<path fill-rule="evenodd" clip-rule="evenodd" fill="#B98A7C" d="M363,399.39c-0.378,5.402-2.702,9.495,0.75,14.25  C362.452,409.338,363.068,403.579,363,399.39z"/>
<path fill-rule="evenodd" clip-rule="evenodd" fill="#B58371" d="M366,394.89C361.013,398.957,365.965,394.919,366,394.89  L366,394.89z"/>
<path fill-rule="evenodd" clip-rule="evenodd" fill="#B27F6D" d="M366.75,394.89C362.959,399.683,361.74,401.225,366.75,394.89  L366.75,394.89z"/>
<path fill-rule="evenodd" clip-rule="evenodd" fill="#AE6E5F" d="M366,413.64c-1.939,6.317-8.816,9.626-0.75,12  C360.76,422.274,364.648,419.164,366,413.64z"/>
<path fill-rule="evenodd" clip-rule="evenodd" fill="#AD7567" d="M366.75,414.39c-0.918,3.642-3.588,6.875-4.5,10.5  C374.589,424.215,367.037,419.51,366.75,414.39z"/>
<path fill-rule="evenodd" clip-rule="evenodd" fill="#AE6E5F" d="M390.75,370.89c-0.549,3.196-4.993,5.75,0.75,9  C387.732,376.954,390.039,375.029,390.75,370.89z"/>
<path fill-rule="evenodd" clip-rule="evenodd" fill="#AD7567" d="M390.75,370.89L390.75,370.89z M392.25,367.89L392.25,367.89z"/>
<path fill-rule="evenodd" clip-rule="evenodd" fill="#AD7567" d="M392.25,367.89c-0.216,5.277-4.665,6.616-0.75,12  C396.811,375.327,392.026,373.346,392.25,367.89z"/>
<path fill-rule="evenodd" clip-rule="evenodd" fill="#A66757" d="M389.25,370.89C389.917,370.89,392.583,370.89,389.25,370.89  L389.25,370.89z"/>
<path fill-rule="evenodd" clip-rule="evenodd" fill="#A6695B" d="M391.5,367.89C388.669,373.719,390.728,369.48,391.5,367.89  L391.5,367.89z"/>
<path fill-rule="evenodd" clip-rule="evenodd" fill="#A6695B" d="M392.25,367.89C390.334,374.193,391.692,369.725,392.25,367.89  L392.25,367.89z"/>
<path fill-rule="evenodd" clip-rule="evenodd" fill="#AE6E5F" d="M342,429.39c3.032,1.165,5.432,2.839,9,3  C348.195,431.223,344.746,430.446,342,429.39z M340.5,417.39c-1.919,2.98-4.994,2.838-4.5,7.5  C336.778,423.822,339.796,418.483,340.5,417.39z"/>
<path fill-rule="evenodd" clip-rule="evenodd" fill="#AD7567" d="M341.25,418.14c-5.073,9.841,1.45,13.059,12,12  C349.365,425.998,345.743,421.664,341.25,418.14z"/>
<path fill-rule="evenodd" clip-rule="evenodd" fill="#AE6E5F" d="M348,410.64C346.807,411.63,345.866,412.411,348,410.64L348,410.64  z"/>
<path fill-rule="evenodd" clip-rule="evenodd" fill="#D2A293" d="M477.75,469.14c-2.495,2.382-2.375,5.901-6,2.25  C474.114,486.298,476.109,481.353,477.75,469.14z"/>
<path fill-rule="evenodd" clip-rule="evenodd" fill="#CE9C8D" d="M449.25,472.14c0.929,0.521,5.1,6.473,9.75,7.5  c0.591-2.638-0.307-3.688,0-6C455.861,474.688,452.631,473.519,449.25,472.14z"/>
<path fill-rule="evenodd" clip-rule="evenodd" fill="#CEA79E" d="M459,472.89C456.651,476.43,458.401,473.792,459,472.89L459,472.89  z"/>
<path fill-rule="evenodd" clip-rule="evenodd" fill="#0D0D0D" d="M448.5,480.39c2.624,1.618,2.902,3.785,6.75,3  C453,482.39,450.75,481.39,448.5,480.39z"/>
<path fill-rule="evenodd" clip-rule="evenodd" fill="#CE9C8D" d="M453,481.14C456,482.14,456,482.14,453,481.14L453,481.14z"/>
<path fill-rule="evenodd" clip-rule="evenodd" fill="#0D0D0D" d="M448.5,474.39c1.386,1.237,1.625,6.791,7.5,8.25c1-1,2-2,3-3  C455.511,478.3,451.403,476.744,448.5,474.39z"/>
<path fill-rule="evenodd" clip-rule="evenodd" fill="#C38E7B" d="M447.75,478.14c2.719,1.733,3.984,5.209,8.25,4.5  C453.35,481.231,450.386,479.821,447.75,478.14z"/>
<path fill-rule="evenodd" clip-rule="evenodd" fill="#B17464" d="M450,472.14c-0.589-0.198,5.708,1.959,7.5,2.25  C455,473.64,452.5,472.89,450,472.14z"/>
<path fill-rule="evenodd" clip-rule="evenodd" fill="#B2796A" d="M454.5,469.89c0.151,0.81-8.432,2.076,3,4.5  C461.113,469.714,454.872,471.88,454.5,469.89z"/>
<path fill-rule="evenodd" clip-rule="evenodd" fill="#D3A596" d="M477,465.39c-3.206,3.734-4.968,0.366-5.25,6  C477.675,469.281,475.254,467.424,477,465.39z"/>
<path fill-rule="evenodd" clip-rule="evenodd" fill="#E7D8D4" d="M477,465.39C470.464,469.384,472.848,467.928,477,465.39  L477,465.39z"/>
<path fill-rule="evenodd" clip-rule="evenodd" fill="#C49B8D" d="M473.25,465.39C473.813,469.295,473.476,466.954,473.25,465.39  L473.25,465.39z"/>
<path fill-rule="evenodd" clip-rule="evenodd" fill="#D7AD9F" d="M475.5,468.39c-0.512,2.26-6.675,2.815-1.5,4.5  C479.381,471.079,475.369,468.968,475.5,468.39z"/>
<path fill-rule="evenodd" clip-rule="evenodd" fill="#B37969" d="M473.25,439.89C472.79,444.432,473.042,441.943,473.25,439.89  L473.25,439.89z"/>
<path fill-rule="evenodd" clip-rule="evenodd" fill="#C88D7D" d="M472.5,415.14C472.679,415.184,475.048,415.769,472.5,415.14  L472.5,415.14z"/>
<path fill-rule="evenodd" clip-rule="evenodd" fill="#AD705D" d="M474,412.89C472.827,415.598,472.854,415.537,474,412.89  L474,412.89z"/>
<path fill-rule="evenodd" clip-rule="evenodd" fill="#C88D7D" d="M487.5,395.64C488.495,399.104,488.572,399.373,487.5,395.64  L487.5,395.64z"/>
<path fill-rule="evenodd" clip-rule="evenodd" fill="#C88D7D" d="M444.75,424.89C445.051,426.264,445.37,427.717,444.75,424.89  L444.75,424.89z"/>
<path fill-rule="evenodd" clip-rule="evenodd" fill="#AA6657" d="M445.5,424.89C445.456,425.069,444.872,427.438,445.5,424.89  L445.5,424.89z"/>
<path fill-rule="evenodd" clip-rule="evenodd" fill="#C88D7D" d="M462,425.64C461.651,427.083,461.551,427.498,462,425.64  L462,425.64z"/>
<path fill-rule="evenodd" clip-rule="evenodd" fill="#AD705D" d="M469.5,406.89C470.396,409.388,469.834,407.821,469.5,406.89  L469.5,406.89z"/>
<path fill-rule="evenodd" clip-rule="evenodd" fill="#C88D7D" d="M474.75,403.89C473.863,405.534,474.404,404.532,474.75,403.89  L474.75,403.89z"/>
<path fill-rule="evenodd" clip-rule="evenodd" fill="#DBBEB5" d="M474,404.64C475,404.64,475,404.64,474,404.64L474,404.64z"/>
<path fill-rule="evenodd" clip-rule="evenodd" fill="#AD705D" d="M491.25,421.89C490.427,422.713,490.427,422.713,491.25,421.89  L491.25,421.89z"/>
<path fill-rule="evenodd" clip-rule="evenodd" fill="#BC8475" d="M489,432.39C489,433.39,489,433.39,489,432.39L489,432.39z"/>
<path fill-rule="evenodd" clip-rule="evenodd" fill="#BC8475" d="M481.5,438.39C480.896,438.994,480.896,438.994,481.5,438.39  L481.5,438.39z"/>
<path fill-rule="evenodd" clip-rule="evenodd" fill="#D3A596" d="M465,392.64C465.823,391.816,465.823,391.816,465,392.64  L465,392.64z M464.25,385.14c-12.614,5.057-15.67,16.394-3.75,23.25C467.039,405.271,481.295,393.676,464.25,385.14z"/>
<path fill-rule="evenodd" clip-rule="evenodd" fill="#E7D9D5" d="M470.25,403.89L470.25,403.89z"/>
<path fill-rule="evenodd" clip-rule="evenodd" fill="#B88673" d="M469.5,403.89C464.777,407.806,466.949,406.005,469.5,403.89  L469.5,403.89z"/>
<path fill-rule="evenodd" clip-rule="evenodd" fill="#CC9A8A" d="M469.5,386.64C470.302,387.55,474.15,391.914,469.5,386.64  L469.5,386.64z"/>
<path fill-rule="evenodd" clip-rule="evenodd" fill="#CF9B8B" d="M465.75,391.89C464.927,392.714,464.927,392.714,465.75,391.89  L465.75,391.89z"/>
<path fill-rule="evenodd" clip-rule="evenodd" fill="#D3A596" d="M457.5,367.14c-8.857,3.475-13.259,7.817-10.5,18.75  c-1.955-1.841,6.004-0.749,6-0.75c-0.579,1.553-1.579,2.803-3,3.75C464.108,390.772,471.849,374.873,457.5,367.14z"/>
<path fill-rule="evenodd" clip-rule="evenodd" fill="#202020" d="M450.75,369.39C449.75,370.39,449.75,370.39,450.75,369.39  L450.75,369.39z"/>
<path fill-rule="evenodd" clip-rule="evenodd" fill="#D3B0A6" d="M451.5,384.39C450.191,390.025,450.601,388.261,451.5,384.39  L451.5,384.39z"/>
<path fill-rule="evenodd" clip-rule="evenodd" fill="#202020" d="M449.25,370.89c-1.618,3.662-3.669,5.49-3.75,9.75  C445.464,380.705,450.093,368.983,449.25,370.89z"/>
<path fill-rule="evenodd" clip-rule="evenodd" fill="#B88673" d="M450,384.39C447.969,389.685,448.959,387.104,450,384.39  L450,384.39z"/>
<path fill-rule="evenodd" clip-rule="evenodd" fill="#D9B0A1" d="M463.5,385.14c-3.418,2.029-5.883,1.446-8.25,5.25  C458.668,389.28,460.581,386.873,463.5,385.14z"/>
<path fill-rule="evenodd" clip-rule="evenodd" fill="#D3A596" d="M457.5,430.14C457.286,427.864,457.556,430.733,457.5,430.14  L457.5,430.14z M456.75,424.89C447.043,436.566,468.496,438.643,456.75,424.89L456.75,424.89z"/>
<path fill-rule="evenodd" clip-rule="evenodd" fill="#D8B6AE" d="M453,425.64C452.584,430.32,452.606,430.065,453,425.64L453,425.64  z"/>
<path fill-rule="evenodd" clip-rule="evenodd" fill="#B57C6C" d="M451.5,429.39L451.5,429.39z"/>
<path fill-rule="evenodd" clip-rule="evenodd" fill="#B78273" d="M452.25,427.14C451.739,430.259,451.98,428.784,452.25,427.14  L452.25,427.14z"/>
<path fill-rule="evenodd" clip-rule="evenodd" fill="#CF9B8B" d="M461.25,426.39C462.25,427.39,462.25,427.39,461.25,426.39  L461.25,426.39z"/>
<path fill-rule="evenodd" clip-rule="evenodd" fill="#CF9B8B" d="M457.5,429.39C457.444,428.797,457.714,431.667,457.5,429.39  L457.5,429.39z"/>
<path fill-rule="evenodd" clip-rule="evenodd" fill="#D3A596" d="M453.75,437.64c0.319,3.073-6.733,4.393,3,7.5  C459.535,439.267,454.049,440.509,453.75,437.64z"/>
<path fill-rule="evenodd" clip-rule="evenodd" fill="#E7D9D5" d="M449.25,441.39C452.149,443.144,455.524,445.185,449.25,441.39  L449.25,441.39z"/>
<path fill-rule="evenodd" clip-rule="evenodd" fill="#E7D9D5" d="M450,440.64C448.88,442.181,448.88,442.181,450,440.64L450,440.64z  "/>
<path fill-rule="evenodd" clip-rule="evenodd" fill="#D2B3A9" d="M449.25,442.14C450.345,445.624,449.887,444.164,449.25,442.14  L449.25,442.14z"/>
<path fill-rule="evenodd" clip-rule="evenodd" fill="#D2B3A9" d="M449.25,441.39C448.276,443.247,448.5,442.819,449.25,441.39  L449.25,441.39z"/>
<path fill-rule="evenodd" clip-rule="evenodd" fill="#D3A596" d="M484.5,398.64c0.007,1.015-4.748,0.284,0,4.5  C489.669,402.192,484.511,400.233,484.5,398.64z"/>
<path fill-rule="evenodd" clip-rule="evenodd" fill="#E7D9D5" d="M481.5,399.39C483.251,402.053,485.42,405.352,481.5,399.39  L481.5,399.39z"/>
<path fill-rule="evenodd" clip-rule="evenodd" fill="#D3A596" d="M477.75,405.39c0.131,0.114,3.038,4.826,4.5,6  c1.245-1.049,2.245-2.299,3-3.75C482.674,407.716,479.716,407.094,477.75,405.39z"/>
<path fill-rule="evenodd" clip-rule="evenodd" fill="#E7D9D5" d="M477,406.89C477.346,407.532,477.887,408.534,477,406.89  L477,406.89z"/>
<path fill-rule="evenodd" clip-rule="evenodd" fill="#D8B6AE" d="M477.75,407.64c-0.273-0.281,2.224,3.097,3,5.25  C483.934,408.983,480,409.954,477.75,407.64z"/>
<path fill-rule="evenodd" clip-rule="evenodd" fill="#B88673" d="M480.75,400.14c1.266,4.057-6.543,7.567,4.5,7.5  C484.945,404.21,481.903,403.837,480.75,400.14z"/>
<path fill-rule="evenodd" clip-rule="evenodd" fill="#B88673" d="M477,408.39c1.756,2.459-0.813,4.961,3.75,4.5  C481.136,409.084,478.293,410.2,477,408.39z"/>
<path fill-rule="evenodd" clip-rule="evenodd" fill="#B88673" d="M486,403.14C482.311,406.09,485.301,403.699,486,403.14L486,403.14  z"/>
<path fill-rule="evenodd" clip-rule="evenodd" fill="#D3A596" d="M460.5,409.14c-1.215-0.752,1.049,2.991,6.75,3.75  C465.112,407.115,464.046,411.335,460.5,409.14z"/>
<path fill-rule="evenodd" clip-rule="evenodd" fill="#E7D9D5" d="M462,411.39C468.22,413.101,467.65,412.945,462,411.39L462,411.39z  "/>
<path fill-rule="evenodd" clip-rule="evenodd" fill="#B88673" d="M467.25,415.14C461.848,418.96,462.383,418.582,467.25,415.14  L467.25,415.14z M462,411.39C465.393,413.422,467.337,414.586,462,411.39L462,411.39z"/>
<path fill-rule="evenodd" clip-rule="evenodd" fill="#B88673" d="M465,415.89C464.691,415.208,464.062,413.812,465,415.89  L465,415.89z M467.25,412.89c-2.059,2.034-4.508,0.066-4.5,4.5C468.195,417.358,465.19,414.925,467.25,412.89z"/>
<path fill-rule="evenodd" clip-rule="evenodd" fill="#B6806C" d="M465,414.39C464.361,416.281,464.382,416.22,465,414.39L465,414.39  z"/>
<path fill-rule="evenodd" clip-rule="evenodd" fill="#D3A596" d="M476.25,421.89C460.783,438.614,484.795,440.773,476.25,421.89  L476.25,421.89z"/>
<path fill-rule="evenodd" clip-rule="evenodd" fill="#E7D9D5" d="M473.25,436.89C473.25,437.427,473.25,437.427,473.25,436.89  L473.25,436.89z"/>
<path fill-rule="evenodd" clip-rule="evenodd" fill="#E7D9D5" d="M475.5,421.89C471.472,424.67,471.413,424.71,475.5,421.89  L475.5,421.89z"/>
<path fill-rule="evenodd" clip-rule="evenodd" fill="#B77E6E" d="M471.75,436.89C472.75,436.89,472.75,436.89,471.75,436.89  L471.75,436.89z"/>
<path fill-rule="evenodd" clip-rule="evenodd" fill="#BD8F80" d="M472.5,436.89C473.5,437.89,473.5,437.89,472.5,436.89  L472.5,436.89z"/>
<path fill-rule="evenodd" clip-rule="evenodd" fill="#D3A596" d="M456.75,412.14C456.766,415.419,456.765,415.233,456.75,412.14  L456.75,412.14z M458.25,411.39C457.25,411.39,457.25,411.39,458.25,411.39L458.25,411.39z"/>
<path fill-rule="evenodd" clip-rule="evenodd" fill="#D8B6AE" d="M457.5,414.39C456.334,413.224,459.415,416.305,457.5,414.39  L457.5,414.39z"/>
<path fill-rule="evenodd" clip-rule="evenodd" fill="#B88673" d="M458.25,411.39C457.328,413.342,456.5,415.096,458.25,411.39  L458.25,411.39z"/>
<path fill-rule="evenodd" clip-rule="evenodd" fill="#D3A596" d="M460.5,417.39c-0.939,1.303-4.138,2.775-5.25,3.75  C462.185,422.211,460.093,417.956,460.5,417.39z"/>
<path fill-rule="evenodd" clip-rule="evenodd" fill="#D8B6AE" d="M459.75,417.39c-2.07,1.617-4.77,1.51-3.75,3.75  C456.962,420.046,460.381,416.897,459.75,417.39z"/>
<path fill-rule="evenodd" clip-rule="evenodd" fill="#B88673" d="M462.75,418.14L462.75,418.14z"/>
<path fill-rule="evenodd" clip-rule="evenodd" fill="#B88673" d="M456,414.39c-0.493-0.881-1.246,4.885-0.75,6  c1.059-0.416,4.262-2.459,5.25-3C461.05,418.442,456.221,414.784,456,414.39z"/>
<path fill-rule="evenodd" clip-rule="evenodd" fill="#D9B0A1" d="M458.25,414.39L458.25,414.39z M459.75,410.64  C457.775,408.797,463.797,414.418,459.75,410.64L459.75,410.64z"/>
<path fill-rule="evenodd" clip-rule="evenodd" fill="#EADEDA" d="M461.25,411.39C458.583,411.39,463.917,411.39,461.25,411.39  L461.25,411.39z"/>
<path fill-rule="evenodd" clip-rule="evenodd" fill="#DDC0B7" d="M458.25,414.39C458.596,415.032,459.137,416.034,458.25,414.39  L458.25,414.39z"/>
<path fill-rule="evenodd" clip-rule="evenodd" fill="#C19481" d="M459.75,411.39c0.35,0.923-4.52,3.344,1.5,3  C466.438,411.71,460.333,412.928,459.75,411.39z"/>
<path fill-rule="evenodd" clip-rule="evenodd" fill="#D9B0A1" d="M461.25,417.39C464.227,419.321,461.919,417.824,461.25,417.39  L461.25,417.39z"/>
<path fill-rule="evenodd" clip-rule="evenodd" fill="#C19481" d="M462.75,417.39C461.863,419.034,462.404,418.032,462.75,417.39  L462.75,417.39z"/>
<path fill-rule="evenodd" clip-rule="evenodd" fill="#C19481" d="M463.5,413.64c-2.288,2.185-5.673-0.386-4.5,3  C464.305,420.042,461.321,415.721,463.5,413.64z"/>
<path fill-rule="evenodd" clip-rule="evenodd" fill="#D3A596" d="M483,421.14c-0.387,1.581-3.329,2.188-1.5,5.25  C484.861,424.333,482.842,421.784,483,421.14z"/>
<path fill-rule="evenodd" clip-rule="evenodd" fill="#D3A596" d="M495.75,385.14C480.871,396.065,505.027,405.101,495.75,385.14  L495.75,385.14z"/>
<path fill-rule="evenodd" clip-rule="evenodd" fill="#D3B0A6" d="M489,388.89c0.719,2.672,1.688,3.857,0,6  C493.495,393.211,489.84,392.013,489,388.89z"/>
<path fill-rule="evenodd" clip-rule="evenodd" fill="#202020" d="M496.5,385.14c2.025,3.497,4.477,5.202,3.75,9.75  C502.751,388.457,498.431,388.474,496.5,385.14z"/>
<path fill-rule="evenodd" clip-rule="evenodd" fill="#CBA397" d="M489,390.39C489.749,395.507,489.712,395.256,489,390.39  L489,390.39z"/>
<path fill-rule="evenodd" clip-rule="evenodd" fill="#D3A596" d="M465.75,407.64C457.99,409.951,461.773,408.824,465.75,407.64  L465.75,407.64z"/>
<path fill-rule="evenodd" clip-rule="evenodd" fill="#B88673" d="M466.5,407.64C465.858,407.986,464.856,408.527,466.5,407.64  L466.5,407.64z"/>
<path fill-rule="evenodd" clip-rule="evenodd" fill="#D9B0A1" d="M464.25,401.64c-0.506,2.352-5.353,2.055-3.75,6.75  c1.892-0.142,3.418-0.504,5.25-0.75C465.918,406.183,464.233,401.715,464.25,401.64z"/>
<path fill-rule="evenodd" clip-rule="evenodd" fill="#C19481" d="M466.5,403.89C465.278,407.675,464.938,408.731,466.5,403.89  L466.5,403.89z"/>
<path fill-rule="evenodd" clip-rule="evenodd" fill="#D9B0A1" d="M462.75,409.14C457.163,412.562,466.24,407.002,462.75,409.14  L462.75,409.14z"/>
<path fill-rule="evenodd" clip-rule="evenodd" fill="#D3A596" d="M456.75,445.14c-5.23,3.116-2.446,12.646-11.25,3.75  C453.36,457.8,457.804,457.461,456.75,445.14z"/>
<path fill-rule="evenodd" clip-rule="evenodd" fill="#E7D9D5" d="M456,447.39c-1.299,1.839-3.296,3.109-4.5,5.25  C455.241,452.064,454.354,449.72,456,447.39z"/>
<path fill-rule="evenodd" clip-rule="evenodd" fill="#C59182" d="M446.25,447.39c1.308,1.807,0.889,5.081,5.25,5.25  C449.211,451.249,447.809,449.543,446.25,447.39z"/>
<path fill-rule="evenodd" clip-rule="evenodd" fill="#D2B3A9" d="M447.75,445.14c1.781,2.888-0.723,9.698,6,3.75  C449.198,451.641,449.767,448.409,447.75,445.14z"/>
<path fill-rule="evenodd" clip-rule="evenodd" fill="#D9B0A1" d="M453.75,443.64C458.158,447.689,456.7,446.35,453.75,443.64  L453.75,443.64z"/>
<path fill-rule="evenodd" clip-rule="evenodd" fill="#EADEDA" d="M452.25,443.64c0.372,0.564,1.848,2.924,1.5,5.25  C458.175,445.542,453.767,445.94,452.25,443.64z"/>
<path fill-rule="evenodd" clip-rule="evenodd" fill="#D7BCB2" d="M451.5,443.64C451.372,449.393,451.306,452.346,451.5,443.64  L451.5,443.64z"/>
<path fill-rule="evenodd" clip-rule="evenodd" fill="#D3A596" d="M443.25,385.89c-7.28,16.986-14.669,33.931-21.75,51  C434.346,431.917,440.704,399.796,443.25,385.89z"/>
<path fill-rule="evenodd" clip-rule="evenodd" fill="#B88673" d="M435,424.14c-1.487,2.945-3.821,4.641-4.5,8.25  C434.404,429.906,433.386,427.338,435,424.14z"/>
<path fill-rule="evenodd" clip-rule="evenodd" fill="#202020" d="M442.5,382.14c-6.5,17-13,34-19.5,51  C430.008,416.789,440.27,399.199,442.5,382.14z"/>
<path fill-rule="evenodd" clip-rule="evenodd" fill="#B57C6C" d="M437.25,403.14C433.762,407.865,434.754,406.521,437.25,403.14  L437.25,403.14z"/>
<path fill-rule="evenodd" clip-rule="evenodd" fill="#B78273" d="M436.5,403.89C436.5,404.89,436.5,404.89,436.5,403.89  L436.5,403.89z"/>
<path fill-rule="evenodd" clip-rule="evenodd" fill="#B88673" d="M443.25,389.64C440.941,395.857,440.739,396.4,443.25,389.64  L443.25,389.64z"/>
<path fill-rule="evenodd" clip-rule="evenodd" fill="#D3A596" d="M444.75,450.39c0.08,2.418,1.623,3.616-2.25,5.25  c0.677-0.177,1.177,0.073,1.5,0.75C449.478,453.585,444.831,452.838,444.75,450.39z"/>
<path fill-rule="evenodd" clip-rule="evenodd" fill="#E7D9D5" d="M444,450.39c-0.079,1.048-1.024,4.512-1.5,5.25  C447.397,452.955,443.872,452.083,444,450.39z"/>
<path fill-rule="evenodd" clip-rule="evenodd" fill="#B88673" d="M443.25,450.39C441.658,455.322,441.776,454.956,443.25,450.39  L443.25,450.39z"/>
<path fill-rule="evenodd" clip-rule="evenodd" fill="#D9B0A1" d="M446.25,451.14C448.335,455.713,446.716,452.162,446.25,451.14  L446.25,451.14z"/>
<path fill-rule="evenodd" clip-rule="evenodd" fill="#D3A596" d="M441.75,433.89C441.284,432.374,441.201,432.103,441.75,433.89  L441.75,433.89z M444,429.39c-0.489,1.398-5.307,3.228-6,6.75c2.652,0.273,5.741,0.654,8.25,0.75  C447.477,434.178,444.504,427.952,444,429.39z"/>
<path fill-rule="evenodd" clip-rule="evenodd" fill="#E7D9D5" d="M441,436.14C442.88,436.436,450.667,437.664,441,436.14L441,436.14  z"/>
<path fill-rule="evenodd" clip-rule="evenodd" fill="#D3A596" d="M437.25,439.14C441.509,443.364,442.542,444.389,437.25,439.14  L437.25,439.14z"/>
<path fill-rule="evenodd" clip-rule="evenodd" fill="#B57B6A" d="M439.5,436.14c0.357,1.722-3.495,4.064,3.75,6  C438.039,438.79,439.602,436.629,439.5,436.14z"/>
<path fill-rule="evenodd" clip-rule="evenodd" fill="#B98979" d="M440.25,436.14c-0.735-1.059-1.823,3.664,3,6  C449.475,435.341,442.23,438.993,440.25,436.14z"/>
<path fill-rule="evenodd" clip-rule="evenodd" fill="#CF9B8B" d="M441,432.39C442.23,434.262,441.971,433.867,441,432.39L441,432.39  z"/>
<path fill-rule="evenodd" clip-rule="evenodd" fill="#D3A596" d="M465,460.89C456.098,475.59,471.339,475.14,465,460.89L465,460.89z  "/>
<path fill-rule="evenodd" clip-rule="evenodd" fill="#D3B0A6" d="M459.75,469.89C461.681,472.867,460.185,470.559,459.75,469.89  L459.75,469.89z"/>
<path fill-rule="evenodd" clip-rule="evenodd" fill="#BB8474" d="M468,462.39C468.633,469.47,468.509,468.075,468,462.39L468,462.39  z"/>
<path fill-rule="evenodd" clip-rule="evenodd" fill="#C49B8E" d="M468.75,463.14C469.224,467.896,469.276,468.421,468.75,463.14  L468.75,463.14z"/>
<path fill-rule="evenodd" clip-rule="evenodd" fill="#D3A596" d="M429,439.89C405.684,456.392,449.566,459.343,429,439.89  L429,439.89z"/>
<path fill-rule="evenodd" clip-rule="evenodd" fill="#B88673" d="M435.75,448.89c-1.557,2.557-3.56,3.688-4.5,6.75  C434.78,453.837,434.044,451.693,435.75,448.89z"/>
<path fill-rule="evenodd" clip-rule="evenodd" fill="#D3A596" d="M476.25,454.89c0.396,0.965,2.039,5.217,2.25,8.25  C479.862,458.359,477.284,457.407,476.25,454.89z"/>
<path fill-rule="evenodd" clip-rule="evenodd" fill="#E7D9D5" d="M475.5,454.89c0.654,2.356,1.562,7.21,1.5,10.5  C480.282,460.482,476.704,459.224,475.5,454.89z"/>
<path fill-rule="evenodd" clip-rule="evenodd" fill="#C49B8E" d="M474.75,455.64c-0.049,3.986-5.217,4.592-1.5,9.75  C479.9,462.721,474.696,460.099,474.75,455.64z"/>
<path fill-rule="evenodd" clip-rule="evenodd" fill="#EADDD9" d="M476.25,464.64C475.995,467.778,476.197,465.293,476.25,464.64  L476.25,464.64z"/>
<path fill-rule="evenodd" clip-rule="evenodd" fill="#CBA799" d="M475.5,464.64C472.479,467.667,475.284,464.857,475.5,464.64  L475.5,464.64z"/>
<path fill-rule="evenodd" clip-rule="evenodd" fill="#D3A596" d="M446.25,459.39c-1.443,1.493-3.884,1.459-4.5,4.5  C444.899,461.569,448.501,457.061,446.25,459.39z"/>
<path fill-rule="evenodd" clip-rule="evenodd" fill="#D3B0A6" d="M447.75,459.39C448.852,461.151,450.514,463.808,447.75,459.39  L447.75,459.39z"/>
<path fill-rule="evenodd" clip-rule="evenodd" fill="#B87F6F" d="M446.25,459.39c-1.984,4.195-6.862,4.854-1.5,9  C442.593,463.555,444.815,462.423,446.25,459.39z"/>
<path fill-rule="evenodd" clip-rule="evenodd" fill="#B98475" d="M447,460.14c-0.446,3.915-6.694,3.516-1.5,9  C453.068,465.459,446.602,463.631,447,460.14z"/>
<path fill-rule="evenodd" clip-rule="evenodd" fill="#D3A596" d="M483,449.64c-0.715,3.978-5.885,6.986,1.5,6.75  C482.251,454.273,482.502,452.413,483,449.64z"/>
<path fill-rule="evenodd" clip-rule="evenodd" fill="#B37969" d="M483,449.64c0.59,2.906-1.252,4.16,1.5,6.75  C484.703,454.224,483.228,450.76,483,449.64z"/>
<path fill-rule="evenodd" clip-rule="evenodd" fill="#B37D6D" d="M484.5,450.39C484.867,455.043,485.01,456.858,484.5,450.39  L484.5,450.39z"/>
<path fill-rule="evenodd" clip-rule="evenodd" fill="#D3A596" d="M490.5,439.14c-2.752,3.947-5.195,3.034-6,6.75  c2.702-0.124,1.643-0.405,5.25,0C491.312,443.922,490.013,439.839,490.5,439.14z"/>
<path fill-rule="evenodd" clip-rule="evenodd" fill="#D3B0A6" d="M489.75,437.64c-1.835,2.59-2.946,4.483-6,6  C488.817,442.869,488.315,439.665,489.75,437.64z"/>
<path fill-rule="evenodd" clip-rule="evenodd" fill="#D3B0A6" d="M487.5,443.64C488.603,445.857,489.765,448.191,487.5,443.64  L487.5,443.64z"/>
<path fill-rule="evenodd" clip-rule="evenodd" fill="#C69C8D" d="M488.25,436.89c-1.546,2.378-4.814,1.984-4.5,6.75  C487.619,441.758,488.147,437.048,488.25,436.89z"/>
<path fill-rule="evenodd" clip-rule="evenodd" fill="#B37969" d="M486,443.64C484.448,447.855,485.167,445.905,486,443.64  L486,443.64z"/>
<path fill-rule="evenodd" clip-rule="evenodd" fill="#B37D6D" d="M486.75,444.39C486.75,448.103,486.75,448.103,486.75,444.39  L486.75,444.39z"/>
<path fill-rule="evenodd" clip-rule="evenodd" fill="#D3A596" d="M429.75,375.39c-2.29,2.94-7.145,9.596-12,16.5  C432.918,406.804,447.865,382.854,429.75,375.39z"/>
<path fill-rule="evenodd" clip-rule="evenodd" fill="#E7D9D5" d="M427.5,376.14C428.482,379.672,429.497,383.319,427.5,376.14  L427.5,376.14z"/>
<path fill-rule="evenodd" clip-rule="evenodd" fill="#202020" d="M438.75,386.64c-1.25,3-2.5,6-3.75,9  C437.025,392.727,437.535,389.888,438.75,386.64z"/>
<path fill-rule="evenodd" clip-rule="evenodd" fill="#B77E6E" d="M426,379.89C424.17,378.975,429.6,381.69,426,379.89L426,379.89z"/>
<path fill-rule="evenodd" clip-rule="evenodd" fill="#BD8F80" d="M426.75,376.14C427.238,381.186,427.285,381.67,426.75,376.14  L426.75,376.14z"/>
<path fill-rule="evenodd" clip-rule="evenodd" fill="#C28D7C" d="M435.75,378.39C436.95,379.59,440.55,383.19,435.75,378.39  L435.75,378.39z"/>
<path fill-rule="evenodd" clip-rule="evenodd" fill="#D3A596" d="M418.5,364.14c-20.647,6.076-8.041,35.167,4.5,14.25  c-3.124-2.418-5.517-5.748-8.25-8.25c4.297,1.268,7.797,2.35,12,4.5C427.317,366.969,423.229,367.557,418.5,364.14z"/>
<path fill-rule="evenodd" clip-rule="evenodd" fill="#E7D9D5" d="M417,370.14c1.177,0.577,6.957,3.637,9.75,6  C424.605,372.296,421.105,372.153,417,370.14z"/>
<path fill-rule="evenodd" clip-rule="evenodd" fill="#B77E6E" d="M415.5,370.14c1.36,2.05,2.307,6.532,7.5,8.25  C420.025,376.329,417.164,372.646,415.5,370.14z"/>
<path fill-rule="evenodd" clip-rule="evenodd" fill="#BD8F80" d="M416.25,370.14c4.687,3.88,2.404,10.141,10.5,6  C423.548,372.808,419.512,372.84,416.25,370.14z"/>
<path fill-rule="evenodd" clip-rule="evenodd" fill="#C28D7C" d="M409.5,385.14C414.076,387.675,413.406,387.304,409.5,385.14  L409.5,385.14z"/>
<path fill-rule="evenodd" clip-rule="evenodd" fill="#EADEDA" d="M426.75,376.14L426.75,376.14z"/>
<path fill-rule="evenodd" clip-rule="evenodd" fill="#D9B0A1" d="M423,378.39c-1.099,3.05-4.046,4.347-4.5,8.25  C424.797,383.897,422.298,380.339,423,378.39z"/>
<path fill-rule="evenodd" clip-rule="evenodd" fill="#C08D7C" d="M423,378.39C424.035,378.98,429.645,382.175,423,378.39L423,378.39  z"/>
<path fill-rule="evenodd" clip-rule="evenodd" fill="#C59C8D" d="M426.75,376.14C423.354,380.525,423.85,379.884,426.75,376.14  L426.75,376.14z"/>
<path fill-rule="evenodd" clip-rule="evenodd" fill="#D3A596" d="M400.5,408.39C388.955,419.041,407.917,421.655,400.5,408.39  L400.5,408.39z"/>
<path fill-rule="evenodd" clip-rule="evenodd" fill="#E7D9D5" d="M399.75,407.64C396.427,412.312,399.775,407.604,399.75,407.64  L399.75,407.64z"/>
<path fill-rule="evenodd" clip-rule="evenodd" fill="#C89888" d="M396.75,408.39C396.75,409.51,396.75,409.51,396.75,408.39  L396.75,408.39z"/>
<path fill-rule="evenodd" clip-rule="evenodd" fill="#D4B7AC" d="M399,407.64C393.222,411.522,400.929,406.344,399,407.64  L399,407.64z"/>
<path fill-rule="evenodd" clip-rule="evenodd" fill="#C28D7C" d="M405,414.39C400.208,420.32,401.992,418.113,405,414.39L405,414.39  z"/>
<path fill-rule="evenodd" clip-rule="evenodd" fill="#C0968A" d="M405.75,414.39C402.096,419.818,402.824,418.736,405.75,414.39  L405.75,414.39z"/>
<path fill-rule="evenodd" clip-rule="evenodd" fill="#D3A596" d="M396,421.14c-0.477,1.3-5.353,2.879-6,6.75  c2.497,0.017,6.083-0.107,9,0C401.08,423.168,395.946,422.298,396,421.14z"/>
<path fill-rule="evenodd" clip-rule="evenodd" fill="#D3A596" d="M414.75,406.89C408.272,427.702,431.564,415.162,414.75,406.89  L414.75,406.89z"/>
<path fill-rule="evenodd" clip-rule="evenodd" fill="#D3A596" d="M399,394.89C396.852,404.007,398.128,398.592,399,394.89  L399,394.89z"/>
<path fill-rule="evenodd" clip-rule="evenodd" fill="#E7D9D5" d="M405,400.89C402.24,405.069,402.522,404.641,405,400.89L405,400.89  z"/>
<path fill-rule="evenodd" clip-rule="evenodd" fill="#D3B0A6" d="M405,400.14C405,401.14,405,401.14,405,400.14L405,400.14z   M400.5,394.14C400.295,395.538,400.003,397.53,400.5,394.14L400.5,394.14z"/>
<path fill-rule="evenodd" clip-rule="evenodd" fill="#C89888" d="M400.5,396.39c-1.754,2.839-3.649,3.255-3.75,6.75  C397.969,401.542,400.149,396.958,400.5,396.39z"/>
<path fill-rule="evenodd" clip-rule="evenodd" fill="#D4B7AC" d="M401.25,397.14C399.26,409.206,400.152,403.796,401.25,397.14  L401.25,397.14z"/>
<path fill-rule="evenodd" clip-rule="evenodd" fill="#C89F92" d="M401.25,395.64c0.235,0.281,1.755,3.99,3.75,5.25  C406.322,397.031,403.46,398.287,401.25,395.64z"/>
<path fill-rule="evenodd" clip-rule="evenodd" fill="#C19385" d="M402,394.14C400.326,397.488,402.766,392.608,402,394.14  L402,394.14z"/>
<path fill-rule="evenodd" clip-rule="evenodd" fill="#BB8979" d="M403.5,394.14C403.911,396.346,404.81,401.165,403.5,394.14  L403.5,394.14z"/>
<path fill-rule="evenodd" clip-rule="evenodd" fill="#D3A596" d="M399,427.89c-0.392,3.597-2.467,7.126-4.5,9.75  C404.997,438.04,398.418,433.406,399,427.89z M390,427.89c0.05,4.646-3.975,6.575,1.5,10.5  C390.73,435.321,390.042,431.716,390,427.89z"/>
<path fill-rule="evenodd" clip-rule="evenodd" fill="#D2B7B0" d="M394.5,437.64C389.84,443.68,397.659,433.545,394.5,437.64  L394.5,437.64z"/>
<path fill-rule="evenodd" clip-rule="evenodd" fill="#C28D7C" d="M396.75,431.64C389.484,438.784,390.161,438.119,396.75,431.64  L396.75,431.64z"/>
<path fill-rule="evenodd" clip-rule="evenodd" fill="#C0968A" d="M393.75,437.64C388.855,441.595,395.175,436.489,393.75,437.64  L393.75,437.64z"/>
<path fill-rule="evenodd" clip-rule="evenodd" fill="#D9B0A1" d="M394.5,426.39c0.022,0.729-6.56,0.229-3,6  c6.278-1.874-0.087-1.375,5.25-0.75C402.729,425.905,394.586,429.201,394.5,426.39z"/>
<path fill-rule="evenodd" clip-rule="evenodd" fill="#C99A8A" d="M394.5,428.64c-0.486,2.539-5.408,3.628-0.75,4.5  C399.005,431.416,394.183,430.293,394.5,428.64z"/>
<path fill-rule="evenodd" clip-rule="evenodd" fill="#D3A596" d="M386.25,412.14C376.74,428.295,386.566,427.173,386.25,412.14  L386.25,412.14z"/>
<path fill-rule="evenodd" clip-rule="evenodd" fill="#D3A596" d="M410.25,445.14C398.017,454.802,407.078,460.212,410.25,445.14  L410.25,445.14z"/>
<path fill-rule="evenodd" clip-rule="evenodd" fill="#C89888" d="M407.25,443.64c-0.116,0.946-8.424,1.897-0.75,2.25  C413.204,445.78,407.13,444.614,407.25,443.64z"/>
<path fill-rule="evenodd" clip-rule="evenodd" fill="#C7A497" d="M407.25,443.64C405.25,443.64,405.25,443.64,407.25,443.64  L407.25,443.64z"/>
<path fill-rule="evenodd" clip-rule="evenodd" fill="#202020" d="M411.75,451.14C410.75,455.14,410.75,455.14,411.75,451.14  L411.75,451.14z"/>
<path fill-rule="evenodd" clip-rule="evenodd" fill="#D3A596" d="M417.75,391.89C402.175,410.079,438.748,409.349,417.75,391.89  L417.75,391.89z"/>
<path fill-rule="evenodd" clip-rule="evenodd" fill="#D3B0A6" d="M416.25,392.64c-1.808,3.582-4.018,4.021-4.5,8.25  C414.972,398.314,415.106,394.906,416.25,392.64z"/>
<path fill-rule="evenodd" clip-rule="evenodd" fill="#C28D7C" d="M417,391.89C416,392.89,416,392.89,417,391.89L417,391.89z"/>
<path fill-rule="evenodd" clip-rule="evenodd" fill="#C19385" d="M416.25,392.64c-2.081,2.274-3.34,1.74-4.5,5.25  C413.757,396.324,414.671,394.366,416.25,392.64z"/>
<path fill-rule="evenodd" clip-rule="evenodd" fill="#D9B0A1" d="M420,391.14c0.929,1.519-1.089,6.57,6.75,8.25  C426.966,392.49,422.402,395.068,420,391.14z"/>
<path fill-rule="evenodd" clip-rule="evenodd" fill="#D9B0A1" d="M418.5,405.39C418.5,408.059,418.5,408.059,418.5,405.39  L418.5,405.39z"/>
<path fill-rule="evenodd" clip-rule="evenodd" fill="#D3A596" d="M370.5,392.64C367.195,395.947,368.735,394.406,370.5,392.64  L370.5,392.64z"/>
<path fill-rule="evenodd" clip-rule="evenodd" fill="#E7D9D5" d="M368.25,394.14C368.449,394.836,368.986,396.711,368.25,394.14  L368.25,394.14z"/>
<path fill-rule="evenodd" clip-rule="evenodd" fill="#D2B7B0" d="M367.5,394.89C369.113,396.175,369.774,396.701,367.5,394.89  L367.5,394.89z"/>
<path fill-rule="evenodd" clip-rule="evenodd" fill="#D3A596" d="M381,395.64c-7.349,5.683-11.312,10.115-15.75,18  C376.427,417.251,384.023,408.392,381,395.64z"/>
<path fill-rule="evenodd" clip-rule="evenodd" fill="#D2B7B0" d="M369.75,401.64c-1.869,4.151-4.115,7.941-4.5,12  C367.308,410.674,369.143,403.233,369.75,401.64z"/>
<path fill-rule="evenodd" clip-rule="evenodd" fill="#D2B7B0" d="M368.25,412.89C369.332,413.953,374.466,418.993,368.25,412.89  L368.25,412.89z"/>
<path fill-rule="evenodd" clip-rule="evenodd" fill="#202020" d="M383.25,403.14c-2.25,3.5-4.5,7-6.75,10.5  C380.78,410.719,380.987,407.401,383.25,403.14z"/>
<path fill-rule="evenodd" clip-rule="evenodd" fill="#C9A494" d="M367.5,394.89C366.5,394.89,366.5,394.89,367.5,394.89  L367.5,394.89z"/>
<path fill-rule="evenodd" clip-rule="evenodd" fill="#C19889" d="M367.5,394.89C367.444,394.297,367.714,397.167,367.5,394.89  L367.5,394.89z"/>
<path fill-rule="evenodd" clip-rule="evenodd" fill="#C19889" d="M369,398.64c-4.294,5.238-10.25,4.47-4.5,14.25  C367.942,408.082,367.807,403.358,369,398.64z M368.25,395.64C370.181,398.616,368.684,396.309,368.25,395.64L368.25,395.64z"/>
<path fill-rule="evenodd" clip-rule="evenodd" fill="#BC8D7B" d="M366.75,394.89c-0.262,3.034-6.174,4.93-0.75,5.25  C371.85,397.764,366.559,397.097,366.75,394.89z"/>
<path fill-rule="evenodd" clip-rule="evenodd" fill="#B87F6E" d="M366.75,412.89C366.587,415.577,366.743,413.006,366.75,412.89  L366.75,412.89z"/>
<path fill-rule="evenodd" clip-rule="evenodd" fill="#B68476" d="M367.5,412.89C368.828,415.245,370.379,417.995,367.5,412.89  L367.5,412.89z"/>
<path fill-rule="evenodd" clip-rule="evenodd" fill="#D3A596" d="M383.25,372.39C381.016,376.904,377.139,381.725,383.25,372.39  L383.25,372.39z M375,361.89C342.75,389.5,415.397,383.151,375,361.89L375,361.89z"/>
<path fill-rule="evenodd" clip-rule="evenodd" fill="#D2B7B0" d="M384,372.39c0.003,0.338-0.129,4.14-2.25,6.75  C388.081,376.941,384.023,374.638,384,372.39z"/>
<path fill-rule="evenodd" clip-rule="evenodd" fill="#C2917F" d="M376.5,361.14c2.56,2.809,2.536,8.108,11.25,9.75  C381.889,369.449,380.24,364.623,376.5,361.14z"/>
<path fill-rule="evenodd" clip-rule="evenodd" fill="#C19889" d="M379.5,361.14c0.387,0.903-1.605,6.226,8.25,9  C387.407,362.891,383.345,364.804,379.5,361.14z"/>
<path fill-rule="evenodd" clip-rule="evenodd" fill="#B87F6E" d="M382.5,372.39c-3.257,3.297-9.966,2.117-0.75,6.75  C375.02,372.648,380.436,374.595,382.5,372.39z"/>
<path fill-rule="evenodd" clip-rule="evenodd" fill="#B68476" d="M383.25,372.39c-2.325,3.034-9.457,0.395-1.5,6.75  C384.001,377.438,383.959,371.464,383.25,372.39z"/>
<path fill-rule="evenodd" clip-rule="evenodd" fill="#D3A596" d="M355.5,391.14c-0.481,6.61-6.466,12.282,6,8.25  C356.128,397.44,356.775,394.566,355.5,391.14z"/>
<path fill-rule="evenodd" clip-rule="evenodd" fill="#C2917F" d="M357,391.14c0.483,1.743-2.484,5.014,4.5,8.25  C358.069,397.093,357.834,394.149,357,391.14z"/>
<path fill-rule="evenodd" clip-rule="evenodd" fill="#C9A494" d="M357,391.14c1.459,1.792,0.155,5.389,4.5,7.5c0.75-1,1.5-2,2.25-3  C361.981,392.059,358.811,393.365,357,391.14z"/>
<path fill-rule="evenodd" clip-rule="evenodd" fill="#C2917F" d="M361.5,399.39C360.703,404.955,361.479,399.534,361.5,399.39  L361.5,399.39z"/>
<path fill-rule="evenodd" clip-rule="evenodd" fill="#C19889" d="M362.25,399.39C363.296,402.586,362.196,399.227,362.25,399.39  L362.25,399.39z"/>
<path fill-rule="evenodd" clip-rule="evenodd" fill="#BB8A78" d="M361.5,398.64C361.781,398.886,364.145,400.956,361.5,398.64  L361.5,398.64z"/>
<path fill-rule="evenodd" clip-rule="evenodd" fill="#BE9180" d="M363.75,395.64C361.846,400.013,361.914,399.857,363.75,395.64  L363.75,395.64z"/>
<path fill-rule="evenodd" clip-rule="evenodd" fill="#BC8D7B" d="M363.75,397.14C362.351,400.258,362.351,400.258,363.75,397.14  L363.75,397.14z"/>
<path fill-rule="evenodd" clip-rule="evenodd" fill="#D3A596" d="M354,403.89c-0.974,2.332-4.987,3.177-6,6.75  c2.484,0.178,7.081,0.701,9,0.75C359.516,406.085,353.8,405.698,354,403.89z"/>
<path fill-rule="evenodd" clip-rule="evenodd" fill="#B87F6E" d="M348.75,410.64C347.75,410.64,347.75,410.64,348.75,410.64  L348.75,410.64z"/>
<path fill-rule="evenodd" clip-rule="evenodd" fill="#D3A596" d="M376.5,388.14c0.047-0.292-5.398,3.378-6,4.5  c3.686,0.718,7.318,2.071,10.5,3C381.989,390.376,376.839,390.071,376.5,388.14z"/>
<path fill-rule="evenodd" clip-rule="evenodd" fill="#D9B0A1" d="M374.25,391.89c-2.59,3.941-5.991,4.004-2.25,11.25  C385.144,398.556,376.925,397.327,374.25,391.89z"/>
<path fill-rule="evenodd" clip-rule="evenodd" fill="#EADEDA" d="M369,394.89C369.346,395.532,369.887,396.534,369,394.89  L369,394.89z"/>
<path fill-rule="evenodd" clip-rule="evenodd" fill="#D8BFB9" d="M369,395.64c1.494,2.622,2.562,4.491,2.25,6.75  C374.542,397.422,370.642,398.521,369,395.64z"/>
<path fill-rule="evenodd" clip-rule="evenodd" fill="#C9A396" d="M369,396.39C371.184,401.799,370.868,401.018,369,396.39  L369,396.39z"/>
<path fill-rule="evenodd" clip-rule="evenodd" fill="#C39A89" d="M369,397.14C369,400.474,369,397.807,369,397.14L369,397.14z"/>
<path fill-rule="evenodd" clip-rule="evenodd" fill="#D3A596" d="M365.25,381.39c0.278,2.212-5.54,3.879,1.5,9.75  C371.779,384.608,365.647,384.547,365.25,381.39z"/>
<path fill-rule="evenodd" clip-rule="evenodd" fill="#E7D9D5" d="M360.75,384.39c1.896,2.326,3.168,5.209,5.25,7.5  C366.013,388.653,362.793,386.896,360.75,384.39z"/>
<path fill-rule="evenodd" clip-rule="evenodd" fill="#C9A494" d="M360.75,384.39c1.295,4.663-3.076,9.129,5.25,7.5  C364.187,389.896,361.486,387.041,360.75,384.39z"/>
<path fill-rule="evenodd" clip-rule="evenodd" fill="#D3A596" d="M347.25,412.14c3.021,8.266,3.77,13.985,12,4.5  C352.653,418.923,352.133,414.175,347.25,412.14z M357,411.39C358,412.39,358,412.39,357,411.39L357,411.39z"/>
<path fill-rule="evenodd" clip-rule="evenodd" fill="#D2B7B0" d="M357,411.39c0.608,2.875,3.071,3.81-0.75,6  C361.844,416.81,357.707,414.73,357,411.39z"/>
<path fill-rule="evenodd" clip-rule="evenodd" fill="#B87F6E" d="M352.5,415.89C352.549,415.92,359.348,420.052,352.5,415.89  L352.5,415.89z M348,410.64C348.07,412.152,348.288,416.812,348,410.64L348,410.64z"/>
<path fill-rule="evenodd" clip-rule="evenodd" fill="#B68476" d="M357,412.14c-0.981,3.467-7.428,2.277-2.25,5.25  C360.742,416.632,356.346,414.452,357,412.14z"/>
<path fill-rule="evenodd" clip-rule="evenodd" fill="#D9B0A1" d="M352.5,409.14C352.258,412.108,352.368,410.76,352.5,409.14  L352.5,409.14z"/>
<path fill-rule="evenodd" clip-rule="evenodd" fill="#D8BFB9" d="M351.75,410.64C353.788,410.981,361.333,412.245,351.75,410.64  L351.75,410.64z"/>
<path fill-rule="evenodd" clip-rule="evenodd" fill="#D9B0A1" d="M348.75,413.64C351.359,416.318,351.889,416.862,348.75,413.64  L348.75,413.64z"/>
<path fill-rule="evenodd" clip-rule="evenodd" fill="#C08D7C" d="M350.25,410.64c-0.121,1.054-3.084,2.727,2.25,5.25  C346.325,411.168,350.125,411.732,350.25,410.64z"/>
<path fill-rule="evenodd" clip-rule="evenodd" fill="#BF9284" d="M351,410.64c-0.039-0.105-5.175,1.116,1.5,5.25  C361.474,410.341,351.903,413.076,351,410.64z"/>
<path fill-rule="evenodd" clip-rule="evenodd" fill="#D3A596" d="M344.25,402.39C334.341,417.864,344.775,417.756,344.25,402.39  L344.25,402.39z"/>
<path fill-rule="evenodd" clip-rule="evenodd" fill="#D3A596" d="M352.5,434.64C349.91,448.588,358.153,448.471,352.5,434.64  L352.5,434.64z"/>
<path fill-rule="evenodd" clip-rule="evenodd" fill="#D2B7B0" d="M348.75,436.89c0.781,4.53-2.231,7.701,3.75,10.5  C349.637,443.921,349.485,441.156,348.75,436.89z"/>
<path fill-rule="evenodd" clip-rule="evenodd" fill="#B68476" d="M347.25,439.14c1.138,4.082-0.85,6.443,3.75,8.25  C348.601,444.734,348.163,442.417,347.25,439.14z"/>
<path fill-rule="evenodd" clip-rule="evenodd" fill="#D3A596" d="M336,424.89C310.569,441.932,358.13,443.029,336,424.89L336,424.89  z"/>
<path fill-rule="evenodd" clip-rule="evenodd" fill="#D2B7B0" d="M342.75,433.14L342.75,433.14z"/>
<path fill-rule="evenodd" clip-rule="evenodd" fill="#B87F6E" d="M342,433.14c-0.897,2.054-3.849,1.422-1.5,5.25  C340.917,437.263,342.052,433.022,342,433.14z"/>
<path fill-rule="evenodd" clip-rule="evenodd" fill="#B68476" d="M342.75,433.14C341.528,436.222,340.435,438.978,342.75,433.14  L342.75,433.14z"/>
<path fill-rule="evenodd" clip-rule="evenodd" fill="#B87F6E" d="M336,424.89c2.588,2.142,3.017,4.359,6.75,5.25  C340.781,428.008,337.746,426.334,336,424.89z"/>
<path fill-rule="evenodd" clip-rule="evenodd" fill="#B68476" d="M337.5,424.89C342.152,429.368,342.747,429.94,337.5,424.89  L337.5,424.89z"/>
</svg>