<svg xmlns="http://www.w3.org/2000/svg" xmlns:xlink="http://www.w3.org/1999/xlink" version="1.1" id="Layer_1" x="0px" y="0px" enable-background="new 0 0 822.05 841.89" xml:space="preserve" viewBox="226.26 252.44 367.78 336.83">
<path fill-rule="evenodd" clip-rule="evenodd" fill="#FFDB78" stroke="#000000" stroke-width="2" stroke-linecap="square" stroke-miterlimit="10" d="  M533.788,253.495c-92.72,21.101-191.494,72.993-258.75,140.25c-13.99,13.99-34.308,34.191-41.25,53.25  c-13.585,37.297-6.268,52.143,24.633,67.125c45.251,21.939,92.522,38.318,140.403,53.439  c39.509,12.477,83.126,18.928,124.464,20.436c19.054,0.695,37.868,0.038,56.861-1.861c10.264-1.026,11.919-51.664,12.333-62.444  C594.093,481.83,596.368,249.292,533.788,253.495z"/>
<path fill-rule="evenodd" clip-rule="evenodd" fill="#ED1C24" stroke="#000000" stroke-width="2" stroke-linecap="square" stroke-miterlimit="10" d="  M481.288,305.245c-40.824,36.451-105.011,107.04-161.25,116.25c62.704,6.287,180.623,11.657,213.75,77.25  C514.435,446.639,467.854,362.402,481.288,305.245z"/>
<path fill="none" stroke="#000000" stroke-width="2" stroke-linecap="square" stroke-miterlimit="10" d="M584.038,585.745  c-13.024-29.229-24.675-65.996-50.25-87"/>
<path fill="none" stroke="#000000" stroke-width="2" stroke-linecap="square" stroke-miterlimit="10" d="M320.038,421.495  c-31.582,16.884-79.085,40.969-91.5,77.25"/>
<path fill="none" stroke="#000000" stroke-width="2" stroke-linecap="square" stroke-miterlimit="10" d="M542.788,253.495  c-22.368,11.915-52.711,26.321-61.5,51.75"/>
</svg>