<svg xmlns="http://www.w3.org/2000/svg" xmlns:xlink="http://www.w3.org/1999/xlink" version="1.1" id="Layer_1" x="0px" y="0px" enable-background="new 0 0 822.05 841.89" xml:space="preserve" viewBox="207.5 252.5 404.27 337.25">
<path fill-rule="evenodd" clip-rule="evenodd" fill="#FFDB78" stroke="#000000" stroke-width="2" stroke-linecap="square" stroke-miterlimit="10" d="  M404.799,253.504c-48.325,13.797-101.859,35.859-138.111,72.111c-7.836,7.836-51,54.583-29.139,65.514  c24.203,12.102,48.558,22.32,74.111,31.264c23.948,8.382,49.094,13.803,74.361,16c32.353,2.813,47.626,7.252,50.641-27.417  C439.064,383.347,441.603,256.009,404.799,253.504z"/>
<path fill-rule="evenodd" clip-rule="evenodd" fill="#ED1C24" stroke="#000000" stroke-width="2" stroke-linecap="square" stroke-miterlimit="10" d="  M375.549,282.004c-23.113,22.754-58.074,56.409-90,65.25c34.673,2.626,101.371,6.395,119.25,42.75  C391.986,359.995,370.891,315.505,375.549,282.004z"/>
<path fill="none" stroke="#000000" stroke-width="2" stroke-linecap="square" stroke-miterlimit="10" d="M432.551,438.004  c-7.039-16.627-14.34-35.634-27.752-48"/>
<path fill="none" stroke="#000000" stroke-width="2" stroke-linecap="square" stroke-miterlimit="10" d="M285.549,347.254  c-18.344,8.852-43.235,22.585-50.25,42.75"/>
<path fill="none" stroke="#000000" stroke-width="2" stroke-linecap="square" stroke-miterlimit="10" d="M410.049,253.504  c-13.624,6.494-27.649,15.165-34.5,28.5"/>
<path fill-rule="evenodd" clip-rule="evenodd" fill="#FFDB78" stroke="#000000" stroke-width="2" stroke-linecap="square" stroke-miterlimit="10" d="  M380.799,375.004c-47.991,12.94-97.332,36.147-134.25,69.75c-13.34,12.142-48.079,44.421-35.25,66.75  c9.14,15.908,60.068,27.377,76.556,32.583c23.571,7.444,49.346,15.282,74.167,16.361c33.831,1.471,46.628,7.018,51.196-27.972  C416.816,504.902,416.897,376.726,380.799,375.004z"/>
<path fill-rule="evenodd" clip-rule="evenodd" fill="#ED1C24" stroke="#000000" stroke-width="2" stroke-linecap="square" stroke-miterlimit="10" d="  M352.299,404.254c-27.043,21.758-56.102,54.069-90,64.5c35.074,2.876,99.498,6.97,118.5,42.75  C370.44,481.724,344.458,436.292,352.299,404.254z"/>
<path fill="none" stroke="#000000" stroke-width="2" stroke-linecap="square" stroke-miterlimit="10" d="M409.299,559.504  c-7.115-16.808-14.351-35.934-28.5-48"/>
<path fill="none" stroke="#000000" stroke-width="2" stroke-linecap="square" stroke-miterlimit="10" d="M262.299,468.754  c-18.841,9.092-42.69,22.596-51,42.75"/>
<path fill="none" stroke="#000000" stroke-width="2" stroke-linecap="square" stroke-miterlimit="10" d="M386.049,375.004  c-13.423,7.323-27.736,15.241-33.75,29.25"/>
<path fill-rule="evenodd" clip-rule="evenodd" fill="#FFDB78" stroke="#000000" stroke-width="2" stroke-linecap="square" stroke-miterlimit="10" d="  M577.301,278.254c-47.837,15.677-97.083,35.39-135,69.75c-13.865,12.565-46.998,45.133-34.502,67.5  c8.291,14.841,61.263,27.104,76.363,32.389c23.63,8.271,49.442,13.833,74.361,16c33.967,2.954,45.75,6.812,50.444-27.611  C612.841,407.877,613.699,283.055,577.301,278.254z"/>
<path fill-rule="evenodd" clip-rule="evenodd" fill="#ED1C24" stroke="#000000" stroke-width="2" stroke-linecap="square" stroke-miterlimit="10" d="  M548.051,307.504c-23.566,21.298-58.031,57.871-90,64.5c35.637,2.119,99.686,8.145,119.25,43.5  C564.438,385.378,543.558,341.108,548.051,307.504z"/>
<path fill="none" stroke="#000000" stroke-width="2" stroke-linecap="square" stroke-miterlimit="10" d="M605.051,463.504  c-6.96-16.44-14.009-36.138-27.75-48"/>
<path fill="none" stroke="#000000" stroke-width="2" stroke-linecap="square" stroke-miterlimit="10" d="M458.051,372.004  c-18.368,10.601-42.958,22.373-50.252,43.5"/>
<path fill="none" stroke="#000000" stroke-width="2" stroke-linecap="square" stroke-miterlimit="10" d="M582.551,278.254  c-13.648,7.26-27.801,15.042-34.5,29.25"/>
<path fill-rule="evenodd" clip-rule="evenodd" fill="#FFDB78" stroke="#000000" stroke-width="2" stroke-linecap="square" stroke-miterlimit="10" d="  M450.551,385.504c-36.856,36.521-66.703,82.352-83.113,131.583c-3.855,11.565-18.045,71.667,6.986,71.667  c25.92,0,54.717-4.022,79.738-10.277c24.973-6.244,48.769-12.813,72.472-22.973c31.098-13.327,43.316-17.65,29.917-48.917  C545.641,481.13,483.553,369.233,450.551,385.504z"/>
<path fill-rule="evenodd" clip-rule="evenodd" fill="#ED1C24" stroke="#000000" stroke-width="2" stroke-linecap="square" stroke-miterlimit="10" d="  M440.051,425.254c-11.174,30.9-21.775,77.045-45.752,100.5c31.825-15.208,90.352-43.299,124.502-21.75  C494.106,484.625,450.234,456.354,440.051,425.254z"/>
<path fill="none" stroke="#000000" stroke-width="2" stroke-linecap="square" stroke-miterlimit="10" d="M566.801,531.754  c-13.646-11.397-30.736-23.607-48-27.75"/>
<path fill="none" stroke="#000000" stroke-width="2" stroke-linecap="square" stroke-miterlimit="10" d="M394.299,525.754  c-11.463,17.538-25.836,41.273-22.5,63"/>
<path fill="none" stroke="#000000" stroke-width="2" stroke-linecap="square" stroke-miterlimit="10" d="M455.051,383.254  c-8.011,13.052-16.348,26.483-15,42"/>
</svg>