<svg xmlns="http://www.w3.org/2000/svg" xmlns:xlink="http://www.w3.org/1999/xlink" version="1.1" id="Layer_1" x="0px" y="0px" enable-background="new 0 0 822.05 841.89" xml:space="preserve" viewBox="315.41 351.41 191.11 140.77">
<path fill-rule="evenodd" clip-rule="evenodd" fill="#EDCBA6" stroke="#000000" stroke-width="1.25" stroke-linecap="square" stroke-miterlimit="10" d="  M501.141,367.054c-5.395,11.177-11.153,22.19-17.25,33c18.036-56.513-0.392-45.609-17.25,0.75c1.333-8.885,15.51-49.754-1.5-48.75  c-10.782,0.636-10.857,41.644-12,48.75c-0.309-5.649-4.538-64.386-14.25-35.25c-4.807,14.419,2.388,35.306,3.75,50.25  c-9.753-15.587-33.299-30.538-22.125,0.75c3.932,11.008,21.712,46.575,30.375,52.498  C497.118,500.657,515.449,371.302,501.141,367.054z"/>
<path fill="none" stroke="#000000" stroke-width="1.25" stroke-linecap="square" stroke-miterlimit="10" d="M442.641,415.804  c10.717-6.955,23.264-4.395,31.5,5.25"/>
<path fill-rule="evenodd" clip-rule="evenodd" fill="#EDCBA6" stroke="#000000" stroke-width="1.25" stroke-linecap="square" stroke-miterlimit="10" d="  M320.391,369.304c6,11,12,22,18,33c-17.956-56.26,0.202-46.427,16.5,0.75c-0.756-5.668-12.744-52.984,1.5-48.75  c12.48,3.71,10.469,38.03,12,48.75c0.378-5.197,2.388-61.212,14.25-37.5c6.862,13.717-1.67,37.914-3,52.5  c13.24-21.815,32.978-26.507,19.5,5.998c-3.861,9.312-20.398,42.262-27.75,47.25C324.697,502.985,306.978,373.816,320.391,369.304z"/>
<path fill="none" stroke="#000000" stroke-width="1.25" stroke-linecap="square" stroke-miterlimit="10" d="M379.641,418.054  c-10.523-7.37-23.305-4.538-31.5,5.248"/>
<path fill-rule="evenodd" clip-rule="evenodd" fill="#D2D1D2" stroke="#000000" stroke-width="1.25" stroke-linecap="square" stroke-miterlimit="10" d="  M486.141,463.802c-11.771,5.844-25.312,9.415-37.5,3.75c-1.938,6.153-3.117,17.564-2.25,24c14.5,0,29,0,43.5,0  C488.641,482.302,487.391,473.052,486.141,463.802z"/>
<path fill-rule="evenodd" clip-rule="evenodd" fill="#D2D1D2" stroke="#000000" stroke-width="1.25" stroke-linecap="square" stroke-miterlimit="10" d="  M372.891,469.802c-12.029,5.201-25,1.718-36.75-3.75c-2.167,7.387-2.999,17.791-3,25.5c14,0,28,0,42,0  C374.449,484.863,375.416,475.959,372.891,469.802z"/>
</svg>