<svg xmlns="http://www.w3.org/2000/svg" xmlns:xlink="http://www.w3.org/1999/xlink" version="1.1" id="Layer_1" x="0px" y="0px" enable-background="new 0 0 822.05 841.89" xml:space="preserve" viewBox="198.68 264.57 420.4 315.78">
<path fill-rule="evenodd" clip-rule="evenodd" fill="#BCBEC0" stroke="#000000" stroke-width="2" stroke-linecap="square" stroke-miterlimit="10" d="  M212.25,409.14c20.647-58.135,102.071-70.772,148.5-39.75c25.594,17.101,43.5,42.345,43.5,73.875  c0,37.79,50.279,51.134,13.641,90.703c-8.594,9.281-17.188,18.562-25.781,27.844c-7.081,7.647-15.016,2.875-20.582,9.634  c-17.334,21.049-33.1-5.775-52.778-13.056c-24.78-9.167-51.885-4.226-75.75-22.125C209.561,511.186,183.024,446.238,212.25,409.14z"/>
<path fill-rule="evenodd" clip-rule="evenodd" fill="#FFFFFF" stroke="#000000" stroke-width="2" stroke-linecap="square" stroke-miterlimit="10" d="  M377.25,452.64c0.363,95.151-147.02,95.229-147,0C230.27,358.047,376.822,358.328,377.25,452.64z"/>
<path fill-rule="evenodd" clip-rule="evenodd" fill="#BCBEC0" d="M618,360.39c-5.379-164.171-262.998-93.552-186,48  c-11.277,5.017-5.25,38.686-5.25,53.083c0,9.716,26.656,27.936,38.083,31.473c12.905,3.994,25.812,7.989,38.717,11.983  c12.522,3.876,5.666-5.438,15.423-3.316c23.295,5.063,31.35-30.082,42.027-48.973c-1.5-0.25-3-0.5-4.5-0.75  C592.424,439.421,619.767,398.267,618,360.39z"/>
<path fill="none" stroke="#000000" stroke-width="2" stroke-linecap="square" stroke-miterlimit="10" d="M618,360.39  c-5.379-164.171-262.998-93.552-186,48c-11.277,5.017-5.25,38.686-5.25,53.083c0,9.716,26.656,27.936,38.083,31.473  c12.905,3.994,25.812,7.989,38.717,11.983c12.522,3.876,5.666-5.438,15.423-3.316c23.295,5.063,31.35-30.082,42.027-48.973  c-1.5-0.25-3-0.5-4.5-0.75C592.424,439.421,619.767,398.267,618,360.39z"/>
<path fill="none" stroke="#000000" stroke-width="2" stroke-linecap="square" stroke-miterlimit="10" d="M315,555.39  c1.962-17.347,19.614-29.731,31.5-42.75"/>
<path fill="none" stroke="#000000" stroke-width="2" stroke-linecap="square" stroke-miterlimit="10" d="M212.25,409.14  c1.461,12.789,11.288,17.568,23.25,13.5"/>
<path fill="none" stroke="#000000" stroke-width="2" stroke-linecap="square" stroke-miterlimit="10" d="M433.5,409.14  c41.662,15.623,80.961,32.111,123.75,45"/>
<path fill-rule="evenodd" clip-rule="evenodd" fill="#BCBEC0" stroke="#000000" stroke-width="2" stroke-linecap="square" stroke-miterlimit="10" d="  M408,544.89c32.071,6.167,57.948-18.032,57.75-50.25c27.989,1.087-0.456,51.919-15,60.75c-15.729,9.551-34.07,6.371-50.25-0.75  C403,551.39,405.5,548.14,408,544.89z"/>
<path fill="none" stroke="#000000" stroke-width="2" stroke-linecap="square" stroke-miterlimit="10" d="M392.25,519.39  C374.809,533.831,379.055,502.957,392.25,519.39L392.25,519.39z"/>
<path fill="none" stroke="#000000" stroke-width="2" stroke-linecap="square" stroke-miterlimit="10" d="M501.75,469.89  C484.363,495.432,482.655,444.268,501.75,469.89L501.75,469.89z"/>
<path fill-rule="evenodd" clip-rule="evenodd" fill="#FFFFFF" stroke="#000000" stroke-width="2" stroke-linecap="square" stroke-miterlimit="10" d="  M591.75,364.14c-0.429,94.536-146.53,94.366-147,0C444.275,268.875,591.812,268.632,591.75,364.14z"/>
</svg>