<svg xmlns="http://www.w3.org/2000/svg" xmlns:xlink="http://www.w3.org/1999/xlink" version="1.1" id="Layer_1" x="0px" y="0px" enable-background="new 0 0 822.05 841.89" xml:space="preserve" viewBox="333.75 337.6 154.03 170.73">
<path fill-rule="evenodd" clip-rule="evenodd" fill="#F7F619" stroke="#000000" stroke-width="1.25" stroke-linecap="square" stroke-miterlimit="10" d="  M440.875,441.523c1.511-5.7-0.521-13.54-0.75-19.5c-18.25,0.75-36.5,1.5-54.75,2.25c-1.4-8.072-6.092-51.071-19.5-45.752  c-9.784,3.881,8.29,56.857,8.25,68.252C392.742,442.974,419.594,442.991,440.875,441.523z"/>
<path fill-rule="evenodd" clip-rule="evenodd" fill="#F8130D" stroke="#000000" stroke-width="1.25" stroke-linecap="square" stroke-miterlimit="10" d="  M410.125,375.521c-12.867,10.612-32.085,28.538-27,46.502c15.787-6.998,33.14-0.723,40.5-18.002  C428.845,391.767,423.59,378.466,410.125,375.521z"/>
<path fill-rule="evenodd" clip-rule="evenodd" stroke="#000000" stroke-width="1.25" stroke-linecap="square" stroke-miterlimit="10" d="  M419.875,422.023c12.107,1.666,23.977,3.922,36,3C447.104,431.635,424.513,425.211,419.875,422.023z"/>
<path fill-rule="evenodd" clip-rule="evenodd" d="M452.875,426.523c0,15.25,0,30.5,0,45.75  C455.017,463.75,455.589,429.586,452.875,426.523z"/>
<path fill="none" stroke="#000000" stroke-width="1.25" stroke-linecap="square" stroke-miterlimit="10" d="M452.875,426.523  c0,15.25,0,30.5,0,45.75C455.017,463.75,455.589,429.586,452.875,426.523"/>
<path fill-rule="evenodd" clip-rule="evenodd" fill="#1B1076" stroke="#000000" stroke-width="1.25" stroke-linecap="square" stroke-miterlimit="10" d="  M450.625,470.773c3.283-0.791,37.933,0.366,27,10.5C468.211,489.999,445.947,481.144,450.625,470.773z"/>
<path fill-rule="evenodd" clip-rule="evenodd" fill="#1B1076" stroke="#000000" stroke-width="1.25" stroke-linecap="square" stroke-miterlimit="10" d="  M415.375,416.021c13.485-1.776,29.067-2.852,39.75,5.25c-9.493,15.947-33.937,14.453-48.75,3.752  C409.375,422.022,412.375,419.021,415.375,416.021z"/>
<path fill-rule="evenodd" clip-rule="evenodd" fill="#EDCBA6" stroke="#000000" stroke-width="1.25" stroke-linecap="square" stroke-miterlimit="10" d="  M431.875,348.521c11.785,23.661-20.901,34.97-29.25,9C412.927,356.297,422.858,353.426,431.875,348.521z"/>
<path fill-rule="evenodd" clip-rule="evenodd" fill="#1B1076" stroke="#000000" stroke-width="1.25" stroke-linecap="square" stroke-miterlimit="10" d="  M401.125,355.271c15.141-2.068,30.539-6.273,42.75-15.75C430.126,343.443,402.906,326.89,401.125,355.271z"/>
<path fill-rule="evenodd" clip-rule="evenodd" stroke="#000000" stroke-width="1.25" stroke-linecap="square" stroke-miterlimit="10" d="  M410.125,424.273c12.057,1.697,24.023,3.886,36,3C438.671,433.871,416.359,427.794,410.125,424.273z"/>
<path fill-rule="evenodd" clip-rule="evenodd" d="M443.875,430.273c5.25,14.25,10.5,28.5,15.75,42.75  C456.545,462.835,448.641,432.323,443.875,430.273z"/>
<path fill="none" stroke="#000000" stroke-width="1.25" stroke-linecap="square" stroke-miterlimit="10" d="M443.875,430.273  c5.25,14.25,10.5,28.5,15.75,42.75C456.545,462.835,448.641,432.323,443.875,430.273"/>
<path fill-rule="evenodd" clip-rule="evenodd" fill="#1B1076" stroke="#000000" stroke-width="1.25" stroke-linecap="square" stroke-miterlimit="10" d="  M456.625,473.773c3.173-2.275,35.189-14.038,28.5-0.75C479.738,483.724,455.516,486.636,456.625,473.773z"/>
<path fill-rule="evenodd" clip-rule="evenodd" fill="#1B1076" stroke="#000000" stroke-width="1.25" stroke-linecap="square" stroke-miterlimit="10" d="  M402.625,417.521c13.613-1.111,29.322-2.99,39.75,6.002c-9.797,18.021-42.709,15.569-56.25-0.75  C391.408,421.091,397.14,418.115,402.625,417.521z"/>
<line fill="none" stroke="#000000" stroke-width="1.25" stroke-linecap="square" stroke-miterlimit="10" x1="456.625" y1="485.773" x2="452.875" y2="490.273"/>
<line fill="none" stroke="#000000" stroke-width="1.25" stroke-linecap="square" stroke-miterlimit="10" x1="461.125" y1="492.523" x2="452.875" y2="492.523"/>
<line fill="none" stroke="#000000" stroke-width="1.25" stroke-linecap="square" stroke-miterlimit="10" x1="460.375" y1="498.523" x2="452.875" y2="494.023"/>
<line fill="none" stroke="#000000" stroke-width="1.25" stroke-linecap="square" stroke-miterlimit="10" x1="454.375" y1="500.773" x2="452.875" y2="494.773"/>
<line fill="none" stroke="#000000" stroke-width="1.25" stroke-linecap="square" stroke-miterlimit="10" x1="447.625" y1="498.523" x2="450.625" y2="494.023"/>
<line fill="none" stroke="#000000" stroke-width="1.25" stroke-linecap="square" stroke-miterlimit="10" x1="443.875" y1="493.273" x2="449.125" y2="492.523"/>
<line fill="none" stroke="#000000" stroke-width="1.25" stroke-linecap="square" stroke-miterlimit="10" x1="449.875" y1="484.273" x2="451.375" y2="491.773"/>
<line fill="none" stroke="#000000" stroke-width="1.25" stroke-linecap="square" stroke-miterlimit="10" x1="444.625" y1="487.273" x2="449.125" y2="491.773"/>
<path fill-rule="evenodd" clip-rule="evenodd" fill="#E3E2E2" stroke="#000000" stroke-width="1.25" stroke-linecap="square" stroke-miterlimit="10" d="  M458.875,480.523c-17.37-8.056-28.527,13.92-12,23.25C464.577,513.766,473.054,491.346,458.875,480.523z M461.125,497.773  C429.855,514.273,458.65,459.856,461.125,497.773L461.125,497.773z"/>
<path fill-rule="evenodd" clip-rule="evenodd" fill="#BFBFBF" stroke="#000000" stroke-width="1.25" stroke-linecap="square" stroke-miterlimit="10" d="  M454.375,494.773c-1.729-1.455-4.978,1.819-4.5-3.75C455.253,489.04,452.356,493.074,454.375,494.773z"/>
<path fill-rule="evenodd" clip-rule="evenodd" fill="#BFBFBF" stroke="#000000" stroke-width="1.25" stroke-linecap="square" stroke-miterlimit="10" d="  M451.375,477.523c-2.453-0.102-6.127,3.32-9.75,3c8.646,3.104,6.383,5.229,12,13.5c-7.404-2.491-7.8-5.099-12.75-13.5  C444.265,479.07,447.74,478.176,451.375,477.523z"/>
<path fill-rule="evenodd" clip-rule="evenodd" fill="#BFBFBF" stroke="#000000" stroke-width="1.25" stroke-linecap="square" stroke-miterlimit="10" d="  M482.875,474.523c-18.469,10.887-39.879-25.677-40.889-38.806c-3.111-40.448-30.873-37.006-68.611-25.696  c-2.719-13.798-5.573-38.837-21-27.75c23.91-2.992,15.515,35.836,24.75,46.502c-2.142-5.028-2.166-11.146-3-16.502  c42.525-2.577,62.21-16.509,65.25,28.502c-21.828,1.27-44.584,1.121-66,4.5c18.424,4.303,46.171-1.067,66.75-2.25  c-1.577,20.893,2.042,23.266-15.75,35.25c-18.069,12.171-50.093,2.968-65.25,13.5c21.417-0.834,43.709-0.701,63.75-5.25  c9.973-2.264,8.877-18.994,22.5-6.75c0.586-7.861-1.294-14.789-2.25-25.5c13.023,4.354,17.531,17.091,25.206,28.77  C470.478,486.309,497.404,480.835,482.875,474.523z"/>
<path fill-rule="evenodd" clip-rule="evenodd" fill="#BFBFBF" stroke="#000000" stroke-width="1.25" stroke-linecap="square" stroke-miterlimit="10" d="  M380.875,425.023c-57.549-2.822-64.394,77.86-5.25,82.5C433.428,512.058,439.59,430.498,380.875,425.023z M380.125,434.023  c16.331,1.712,30.624,11.232,36,27c-10.071,1.259-21.242,2.993-30.75,3c6.5-6.5,13-13,19.5-19.5  c-8.343,0.441-16.066,10.025-24.75,15.75C381.742,452.373,381.075,437.823,380.125,434.023z M380.125,461.773  C392.665,482.858,362.143,473.65,380.125,461.773L380.125,461.773z M377.875,434.023c0.617,8.314-1.497,18.475-3,26.25  c-6-7-12-14-18-21C363.193,436.176,370.721,433.904,377.875,434.023z M353.125,441.523c6,7.5,12,15,18,22.5  c-9.75-2.5-19.5-5-29.25-7.5C344.207,450.802,348.067,445.269,353.125,441.523z M339.625,464.773  c7.042-2.693,20.032,1.339,30.75,3.75c-7.869,4.397-18.075,8.783-27,12.75C340.722,476.215,339.261,470.478,339.625,464.773z   M345.625,484.273C396.126,460.507,362.374,510.324,345.625,484.273L345.625,484.273z M376.375,500.773  c-3.574-0.132-6.387-0.022-9.75-1.5c5.451-29.157,17.458-25.424,21,1.5C383.722,501.633,380.292,501.311,376.375,500.773z   M392.125,499.273c-3.676-7.377-5.566-16.193-8.25-24c9.312,4.656,19.393,11.536,27.75,10.5  C406.29,492.94,399.955,495.687,392.125,499.273z M416.875,470.773c-0.205,4.954-1.901,9.908-4.5,14.25  c-8.48-4.988-17.982-10.417-25.5-15.75C398.306,468.416,411.176,465.566,416.875,470.773z M377.125,472.273  c0.458-2.486,6.494-1.496,1.5-6.75C371.469,467.605,377.658,469.381,377.125,472.273z"/>
<path fill-rule="evenodd" clip-rule="evenodd" fill="#9596B5" stroke="#000000" stroke-width="1.25" stroke-linecap="square" stroke-miterlimit="10" d="  M386.125,413.021c8.546-10.719,26.214-7.382,41.25-8.25C420.297,416.854,401.616,412.437,386.125,413.021z"/>
<path fill-rule="evenodd" clip-rule="evenodd" fill="#9596B5" stroke="#000000" stroke-width="1.25" stroke-linecap="square" stroke-miterlimit="10" d="  M340.375,380.021c4.625-0.421,9.03-0.946,13.5-2.25c-0.723,1.271,0.361,3.404,0.75,4.5  C344.434,386.824,341.329,380.285,340.375,380.021z"/>
<path fill-rule="evenodd" clip-rule="evenodd" stroke="#000000" stroke-width="1.25" stroke-linecap="square" stroke-miterlimit="10" d="  M417.625,386.771c-7.293,11.156-15.097,22.492-25.5,30.75C401.298,414.623,414.205,397.731,417.625,386.771z"/>
<path fill-rule="evenodd" clip-rule="evenodd" stroke="#000000" stroke-width="1.25" stroke-linecap="square" stroke-miterlimit="10" d="  M392.125,418.271c8.594,7.126,16.841,14.816,23.25,24.002C411.294,433.517,401.01,422.393,392.125,418.271z"/>
<path fill-rule="evenodd" clip-rule="evenodd" stroke="#000000" stroke-width="1.25" stroke-linecap="square" stroke-miterlimit="10" d="  M394.375,419.771C390.865,416.944,389.797,416.083,394.375,419.771L394.375,419.771z"/>
<path fill-rule="evenodd" clip-rule="evenodd" fill="#F8130D" stroke="#000000" stroke-width="1.25" stroke-linecap="square" stroke-miterlimit="10" d="  M414.625,410.771c12.918-30.04-5.703-32.28-16.5-3.75C404.488,406.431,409.194,410.372,414.625,410.771z"/>
<path fill-rule="evenodd" clip-rule="evenodd" fill="#FFFFFF" stroke="#000000" stroke-width="1.25" stroke-linecap="square" stroke-miterlimit="10" d="  M413.875,437.773c4.592,5.285,8.819,9.799,5.25,18C413.396,449.715,414.235,444.098,413.875,437.773z"/>
</svg>