<svg xmlns="http://www.w3.org/2000/svg" xmlns:xlink="http://www.w3.org/1999/xlink" version="1.1" id="Layer_1" x="0px" y="0px" enable-background="new 0 0 822.05 841.89" xml:space="preserve" viewBox="204.56 254.48 413 334.11">
<path fill-rule="evenodd" clip-rule="evenodd" fill="#90A7D6" stroke="#000000" stroke-width="2" stroke-linecap="square" stroke-miterlimit="10" d="  M208.564,383.4c46.265-36.315,92.529-72.63,138.793-108.945c8.347-6.552,125.198,81.329,140.958,91.695  c-44.82,48.056-89.64,96.112-134.46,144.169C352.184,512.112,222.827,395.962,208.564,383.4z"/>
<path fill-rule="evenodd" clip-rule="evenodd" fill="#C6E9F7" stroke="#000000" stroke-width="2" stroke-linecap="square" stroke-miterlimit="10" d="  M219.064,354.15c47.757-32.833,95.514-65.666,143.271-98.499c7.152-4.917,113.133,95.843,126.731,107.499  c-47.501,45.25-95.001,90.5-142.502,135.75C304.064,450.65,261.564,402.4,219.064,354.15z"/>
<path fill="none" stroke="#000000" stroke-width="2" stroke-linecap="square" stroke-miterlimit="10" d="M219.064,354.15  c47.757-32.833,95.514-65.666,143.271-98.499c7.152-4.917,113.133,95.843,126.731,107.499c-47.501,45.25-95.001,90.5-142.502,135.75  C304.064,450.65,261.564,402.4,219.064,354.15z"/>
<path fill-rule="evenodd" clip-rule="evenodd" fill="#FFFFFF" stroke="#000000" stroke-width="2" stroke-linecap="square" stroke-miterlimit="10" d="  M243.814,337.65c31.5,38.75,63,77.5,94.5,116.25c19.857-16.528,118.785-115.004,135.002-103.5  c-44.501,38.25-89.001,76.5-133.502,114.75C325.11,447.203,233.808,344.421,243.814,337.65z"/>
<path fill-rule="evenodd" clip-rule="evenodd" fill="#EAB649" stroke="#000000" stroke-width="2" stroke-linecap="square" stroke-miterlimit="10" d="  M336.064,388.65c46.265-36.315,92.53-72.63,138.796-108.945c8.414-6.605,125.152,80.635,140.956,90.945  c-44.819,48.056-89.639,96.112-134.458,144.169C479.627,516.675,350.332,401.143,336.064,388.65z"/>
<path fill-rule="evenodd" clip-rule="evenodd" fill="#FFDB78" stroke="#000000" stroke-width="2" stroke-linecap="square" stroke-miterlimit="10" d="  M346.564,358.65c47.758-32.833,95.516-65.666,143.272-98.499c7.092-4.875,113.16,96.537,126.729,108.249  c-47.5,45.25-95,90.5-142.5,135.75C431.565,455.65,389.065,407.15,346.564,358.65z"/>
<path fill="none" stroke="#000000" stroke-width="2" stroke-linecap="square" stroke-miterlimit="10" d="M346.564,358.65  c47.758-32.833,95.516-65.666,143.272-98.499c7.092-4.875,113.16,96.537,126.729,108.249c-47.5,45.25-95,90.5-142.5,135.75  C431.565,455.65,389.065,407.15,346.564,358.65z"/>
<path fill-rule="evenodd" clip-rule="evenodd" fill="#FFFFFF" stroke="#000000" stroke-width="2" stroke-linecap="square" stroke-miterlimit="10" d="  M371.314,342.15c31.5,39,63.001,78,94.502,117c19.831-16.621,118.783-115.716,135-104.25c-44.75,38.5-89.5,77-134.25,115.5  c-34.001-41.5-68.001-83-102.002-124.5C366.814,344.65,369.064,343.4,371.314,342.15z"/>
<path fill-rule="evenodd" clip-rule="evenodd" fill="#B6DFCB" stroke="#000000" stroke-width="2" stroke-linecap="square" stroke-miterlimit="10" d="  M205.564,460.65c46.265-36.315,92.529-72.63,138.793-108.945c8.415-6.605,125.155,80.635,140.958,90.945  c-44.82,48.306-89.64,96.61-134.46,144.916C349.239,589.309,219.825,473.211,205.564,460.65z"/>
<path fill-rule="evenodd" clip-rule="evenodd" fill="#8ECEAB" stroke="#000000" stroke-width="2" stroke-linecap="square" stroke-miterlimit="10" d="  M216.064,431.4c47.757-32.833,95.514-65.666,143.271-98.499c7.152-4.917,113.133,95.843,126.731,107.499  c-47.501,45.25-95.001,90.5-142.502,135.75C301.064,527.9,258.564,479.65,216.064,431.4z"/>
<path fill="none" stroke="#000000" stroke-width="2" stroke-linecap="square" stroke-miterlimit="10" d="M216.064,431.4  c47.757-32.833,95.514-65.666,143.271-98.499c7.152-4.917,113.133,95.843,126.731,107.499c-47.501,45.25-95.001,90.5-142.502,135.75  C301.064,527.9,258.564,479.65,216.064,431.4z"/>
<path fill-rule="evenodd" clip-rule="evenodd" fill="#FFFFFF" stroke="#000000" stroke-width="2" stroke-linecap="square" stroke-miterlimit="10" d="  M240.814,414.9c31.5,38.75,63,77.5,94.5,116.25c19.857-16.528,118.785-115.004,135.002-103.5  c-44.751,38.25-89.501,76.5-134.252,114.75c-34-41.5-68-83-102-124.5C236.314,416.9,238.564,415.9,240.814,414.9z"/>
</svg>