<svg xmlns="http://www.w3.org/2000/svg" xmlns:xlink="http://www.w3.org/1999/xlink" version="1.1" id="Layer_1" x="0px" y="0px" enable-background="new 0 0 822.05 841.89" xml:space="preserve" viewBox="317.86 340.47 185.91 167.42">
<path fill-rule="evenodd" clip-rule="evenodd" fill="#EDCBA6" stroke="#000000" stroke-width="1.25" stroke-linecap="square" stroke-miterlimit="10" d="  M499.125,409.015c-17.139,4.85-34.006,10.447-51,15.75c10.673-5.76,58.884-20.433,47.25-39c-8.994-14.354-54.073,16.1-66,21.75  c11.243-8.352,64.372-34.066,48-50.25c-10.414-10.294-52.57,30.167-62.25,37.5c7.901-8.926,62.043-58.761,24.75-53.25  c-20.066,2.965-37.982,44.584-51,57c8.798-33.461-7.119-60.203-24-18c-6.643,16.608-24.777,68.248-21,84.75  c11.746,51.324,62.862,11.834,84.996-1.692C441.803,455.67,521.795,429.984,499.125,409.015z"/>
<path fill="none" stroke="#000000" stroke-width="1.25" stroke-linecap="square" stroke-miterlimit="10" d="M389.625,398.515  c18.417,3.167,28.015,19.672,26.25,37.5"/>
<path fill-rule="evenodd" clip-rule="evenodd" fill="#D2D1D2" stroke="#000000" stroke-width="1.25" stroke-linecap="square" stroke-miterlimit="10" d="  M343.125,458.515c-70.6,56.48,31.964,58.662,42,33C368.311,485.219,348.853,476.721,343.125,458.515z"/>
</svg>