<svg xmlns="http://www.w3.org/2000/svg" xmlns:xlink="http://www.w3.org/1999/xlink" version="1.1" id="Layer_1" x="0px" y="0px" enable-background="new 0 0 822.05 841.89" xml:space="preserve" viewBox="211.16 253.07 400.81 338.82">
<path fill-rule="evenodd" clip-rule="evenodd" fill="#BCBEC0" stroke="#000000" stroke-width="2" stroke-linecap="square" stroke-miterlimit="10" d="  M228.309,279.64c15.668-8.383,29.495-41.12,33.167-16.639c3.692,24.612,42.674-8.189,32.833,21.139  c16.853,1.229,36.336,3.439,50.25,13.875c13.844,10.383,45.678-15.851,62.25-21.375c61.696-20.565,134.165-10.907,198.002-11.25  c-3.538,40.173-100.048,19.822-129,24c-30.122,4.347-69.149,13.416-90.002,37.5c37.007,32.714,74.416,38.754,121.127,44.25  c26.187,3.081,117.402,14.926,102.375,59.25c-59.111-23.107-119.066-22.526-178.5-39.75c-22.022-6.382-45.964-29.127-67.085-31.139  c-24.468-2.331-47.33,17.861-74.174,17.521c-10.148-0.128-49.096,5.194-50.742-5.508c-1.419-9.228,19.5-20.363,19.5-12.75  c0,4.068,52.244-15.287,52.875-24.75c1.778-26.668-48.831-24.521-50.986,6.736c-1.615,23.42-18.138-16.444-18.389-16.486  c-11.837-1.973-14.162-10.253-27,3.375c-2.52-12.746,8.467-12.65,9-27c0.438-11.8-4.815-16.62-6-26.25  C221.309,276.14,224.809,277.89,228.309,279.64z"/>
<path fill-rule="evenodd" clip-rule="evenodd" fill="#FFFFFF" stroke="#000000" stroke-width="2" stroke-linecap="square" stroke-miterlimit="10" d="  M263.559,288.64c-2.396,9.484-10.045,14.291-20.25,12.75C246.313,292.046,253.793,287.305,263.559,288.64z"/>
<path fill-rule="evenodd" clip-rule="evenodd" fill="#FFFFFF" stroke="#000000" stroke-width="2" stroke-linecap="square" stroke-miterlimit="10" d="  M346.809,328.39C330.027,339.086,329.942,317.298,346.809,328.39L346.809,328.39z"/>
<path fill="none" stroke="#000000" stroke-width="2" stroke-linecap="square" stroke-miterlimit="10" d="M311.559,328.39  c9.331-11.689,21.783-23.741,36.75-26.25"/>
<path fill="none" stroke="#000000" stroke-width="2" stroke-linecap="square" stroke-miterlimit="10" d="M310.809,339.64  c9.413,9.27,19.773,17.867,32.25,22.5"/>
<line fill="none" stroke="#000000" stroke-width="2" stroke-linecap="square" stroke-miterlimit="10" x1="364.809" y1="358.39" x2="391.059" y2="331.39"/>
<line fill="none" stroke="#000000" stroke-width="2" stroke-linecap="square" stroke-miterlimit="10" x1="358.809" y1="299.14" x2="388.809" y2="322.39"/>
<path fill-rule="evenodd" clip-rule="evenodd" fill="#BCBEC0" stroke="#000000" stroke-width="2" stroke-linecap="square" stroke-miterlimit="10" d="  M228.309,361.39c7.643-4.089,27.862-27.75,27-27.75c1.897,0,16.066,20.893,24.75,24.75c12.773-10.374,18.962-6.543,14.25,7.5  c17.475,0.554,32.555,9.713,48.75,12c21.935,3.097,38.78-11.177,63.75-19.5c61.713-20.571,134.147-10.907,198.002-11.25  c-3.598,40.853-99.95,19.054-129,23.25c-29.701,4.29-69.54,14.617-90.002,38.25c35.959,31.786,74.659,41.142,121.127,43.875  c26.697,1.57,117.04,16.369,102.375,59.625c-63.521-24.831-133.158-21.34-195-45.75c-35.417-13.979-43.917-27.836-80.252-16.5  c-19.303,6.022-96.141,23.311-96-1.5c0.069-12.127,22.646-6.858,20.25-6c14.11-5.059,25.621-10.804,40.125-17.25  c33.242-14.774-13.383-36.763-34.125-20.25c0.188-0.149-13.688,43.186-16.333,17.611c-1.682-16.259-4.345-15.407-15.917-22.861  c-4.99-3.215-13.935,14.304-19.125,6c-4.489-7.182,12.01-9.626,11.25-18.75c-1.157-13.882-4.848-20.299-6.375-30.75  C221.309,357.89,224.809,359.64,228.309,361.39z"/>
<path fill-rule="evenodd" clip-rule="evenodd" fill="#FFFFFF" stroke="#000000" stroke-width="2" stroke-linecap="square" stroke-miterlimit="10" d="  M263.559,370.39c-2.283,9.37-9.904,14.073-20.25,12.75C246.097,373.604,253.612,368.988,263.559,370.39z"/>
<path fill-rule="evenodd" clip-rule="evenodd" fill="#FFFFFF" stroke="#000000" stroke-width="2" stroke-linecap="square" stroke-miterlimit="10" d="  M346.809,410.14C330.027,420.836,329.942,399.048,346.809,410.14L346.809,410.14z"/>
<path fill="none" stroke="#000000" stroke-width="2" stroke-linecap="square" stroke-miterlimit="10" d="M311.559,410.14  c9.525-11.933,21.798-23.065,36.75-27"/>
<path fill="none" stroke="#000000" stroke-width="2" stroke-linecap="square" stroke-miterlimit="10" d="M310.809,421.39  c9.866,8.77,19.868,17.633,32.25,22.5"/>
<line fill="none" stroke="#000000" stroke-width="2" stroke-linecap="square" stroke-miterlimit="10" x1="364.809" y1="440.14" x2="391.059" y2="413.14"/>
<line fill="none" stroke="#000000" stroke-width="2" stroke-linecap="square" stroke-miterlimit="10" x1="358.809" y1="380.89" x2="388.809" y2="403.39"/>
<path fill-rule="evenodd" clip-rule="evenodd" fill="#BCBEC0" stroke="#000000" stroke-width="2" stroke-linecap="square" stroke-miterlimit="10" d="  M228.309,440.14c7.643-4.09,27.862-27.75,27-27.75c1.897,0,16.066,20.893,24.75,24.75c12.773-10.374,18.962-6.543,14.25,7.5  c17.475,0.554,32.555,9.713,48.75,12c21.935,3.098,38.78-11.177,63.75-19.5c61.713-20.571,134.147-10.906,198.002-11.25  c-3.598,40.853-99.95,19.055-129,23.25c-29.701,4.29-69.54,14.617-90.002,38.25c35.959,31.786,74.659,41.142,121.127,43.875  c26.697,1.57,117.04,16.369,102.375,59.625c-63.521-24.831-133.158-21.34-195-45.75c-35.417-13.979-43.917-27.836-80.252-16.5  c-19.303,6.022-96.141,23.311-96-1.5c0.069-12.127,22.646-6.858,20.25-6c14.11-5.059,25.621-10.804,40.125-17.25  c33.242-14.774-13.383-36.764-34.125-20.25c0.188-0.149-13.688,43.186-16.333,17.611c-1.682-16.26-4.345-15.407-15.917-22.861  c-4.99-3.215-13.935,14.304-19.125,6c-4.489-7.183,12.01-9.626,11.25-18.75c-1.157-13.883-4.848-20.3-6.375-30.75  C221.309,436.64,224.809,438.39,228.309,440.14z"/>
<path fill-rule="evenodd" clip-rule="evenodd" fill="#FFFFFF" stroke="#000000" stroke-width="2" stroke-linecap="square" stroke-miterlimit="10" d="  M263.559,449.14c-2.283,9.37-9.904,14.073-20.25,12.75C246.097,452.354,253.612,447.738,263.559,449.14z"/>
<path fill-rule="evenodd" clip-rule="evenodd" fill="#FFFFFF" stroke="#000000" stroke-width="2" stroke-linecap="square" stroke-miterlimit="10" d="  M346.809,488.89C330.027,499.586,329.942,477.798,346.809,488.89L346.809,488.89z"/>
<path fill="none" stroke="#000000" stroke-width="2" stroke-linecap="square" stroke-miterlimit="10" d="M311.559,488.89  c9.525-11.933,21.798-23.065,36.75-27"/>
<path fill="none" stroke="#000000" stroke-width="2" stroke-linecap="square" stroke-miterlimit="10" d="M310.809,500.14  c9.866,8.77,19.868,17.633,32.25,22.5"/>
<line fill="none" stroke="#000000" stroke-width="2" stroke-linecap="square" stroke-miterlimit="10" x1="364.809" y1="518.89" x2="391.059" y2="491.89"/>
<line fill="none" stroke="#000000" stroke-width="2" stroke-linecap="square" stroke-miterlimit="10" x1="358.809" y1="459.64" x2="388.809" y2="482.14"/>
</svg>