<svg xmlns="http://www.w3.org/2000/svg" xmlns:xlink="http://www.w3.org/1999/xlink" version="1.1" id="Layer_1" x="0px" y="0px" enable-background="new 0 0 822.05 841.89" xml:space="preserve" viewBox="204.66 252.79 411.91 340.42">
<path fill-rule="evenodd" clip-rule="evenodd" fill="#BCBEC0" stroke="#000000" stroke-width="2" stroke-linecap="square" stroke-miterlimit="10" d="  M242.074,265.953c17.854-7.223,46.356-22.748,40.167-1.083c-6.984,24.445,46.796,15.266,22.083,36.333  c14.672,7.85,35.524,20.185,42,36.375c6.396,15.989,52.805,6.847,70.501,9.375c70.349,10.052,135.528,52.279,198.749,82.5  c-19.116,37.354-108.86-29.913-136.5-38.25c-32.068-9.673-73.643-18.898-105.75-5.25c21.532,48.181,53.011,73.801,97.125,99.75  c25.232,14.843,106.948,70.688,72.375,106.5c-48.047-48.874-106.109-78.331-156-123c-18.305-16.389-30.936-49.912-50.389-61.583  c-22.978-13.786-53.5-4.117-79.149-17.108c-9.732-4.93-52.643-19.888-48.587-30.434c4.001-10.404,29.446-9.577,25.5-3  c-2.195,3.659,55.062,9.759,59.625,5.625c23.32-21.129-23.189-43.076-40.5-37.5c-1.965,0.633-32.161,39.302-19.125,3.75  c3.54-9.654,0.022-17.355-6.375-24.75c-6.207,2.314-21.488,4.383-22.125-2.625c-0.917-10.085,16.562-3.187,19.875-13.125  c4.374-13.122,2.661-25.036,9-33C237.074,258.953,239.574,262.453,242.074,265.953z"/>
<path fill-rule="evenodd" clip-rule="evenodd" fill="#FFFFFF" stroke="#000000" stroke-width="2" stroke-linecap="square" stroke-miterlimit="10" d="  M272.074,291.453C247.475,320.216,242.878,267.951,272.074,291.453L272.074,291.453z"/>
<path fill-rule="evenodd" clip-rule="evenodd" fill="#FFFFFF" stroke="#000000" stroke-width="2" stroke-linecap="square" stroke-miterlimit="10" d="  M335.074,368.703C314.439,374.765,320.539,348.388,335.074,368.703L335.074,368.703z"/>
<path fill="none" stroke="#000000" stroke-width="2" stroke-linecap="square" stroke-miterlimit="10" d="M299.824,352.203  c15.31-5.776,31.976-12.736,48-8.25"/>
<path fill="none" stroke="#000000" stroke-width="2" stroke-linecap="square" stroke-miterlimit="10" d="M293.824,362.703  c5.587,13.228,11.369,26.771,21,37.5"/>
<line fill="none" stroke="#000000" stroke-width="2" stroke-linecap="square" stroke-miterlimit="10" x1="338.074" y1="406.203" x2="376.324" y2="392.703"/>
<line fill="none" stroke="#000000" stroke-width="2" stroke-linecap="square" stroke-miterlimit="10" x1="359.824" y1="346.203" x2="377.824" y2="382.203"/>
</svg>