<svg xmlns="http://www.w3.org/2000/svg" xmlns:xlink="http://www.w3.org/1999/xlink" version="1.1" id="Layer_1" x="0px" y="0px" enable-background="new 0 0 822.05 841.89" xml:space="preserve" viewBox="200.12 332.75 422.52 174.14">
<path fill-rule="evenodd" clip-rule="evenodd" fill="#977659" stroke="#000000" stroke-width="2" stroke-linecap="square" stroke-miterlimit="10" d="  M201.25,461.64c-3.1-26.194,49.992-36.578,67.25-48.083c16.495-10.997,34.066-42.612,55.75-40.417  c20.637,2.089,39.111,36.846,57,47.25c16.446,9.565,59.846,14.031,54,41.25c-19-11-38-22-57-33c-12.5-7.237-42.298-32.996-57-33  c-14.485-0.004-42.817,23.549-55.268,30.397C244.405,437.905,222.828,449.773,201.25,461.64z"/>
<path fill="none" stroke="#000000" stroke-width="2" stroke-linecap="square" stroke-miterlimit="10" d="M304,342.39  c40.384-33.227,18,39.142,18,53.25"/>
<path fill-rule="evenodd" clip-rule="evenodd" fill="#977659" stroke="#000000" stroke-width="2" stroke-linecap="square" stroke-miterlimit="10" d="  M238,470.64c-4.056-25.597,47.092-35.175,63.75-45.75c17.307-10.988,35.064-43.5,56.625-43.5c20.585,0,42.38,37.569,59.625,47.25  c16.649,9.347,59.126,14.532,53.25,41.25c-18.875-11-37.75-22-56.625-33c-12.376-7.213-42.043-32.99-56.625-33  c-14.423-0.01-42.906,23.866-55.268,30.742C281.155,446.635,259.578,458.637,238,470.64z"/>
<path fill="none" stroke="#000000" stroke-width="2" stroke-linecap="square" stroke-miterlimit="10" d="M340.75,351.39  c36.914-36.905,18,40.548,18,52.5"/>
<path fill-rule="evenodd" clip-rule="evenodd" fill="#977659" stroke="#000000" stroke-width="2" stroke-linecap="square" stroke-miterlimit="10" d="  M275.5,481.14c-3.533-25.982,50.035-36.606,67.25-48.083c17.268-11.512,32.983-43.163,55.75-40.417  c20.841,2.514,38.88,35.992,57,46.5c16.969,9.84,58.565,14.229,54,41.25c-19-11-38-22-57-33c-12.467-7.218-42.336-33.024-57-33  c-14.469,0.024-42.866,23.844-55.268,30.742C318.655,457.135,297.078,469.137,275.5,481.14z"/>
<path fill="none" stroke="#000000" stroke-width="2" stroke-linecap="square" stroke-miterlimit="10" d="M378.25,361.89  c39.001-36.339,18,40.456,18,52.5"/>
<path fill-rule="evenodd" clip-rule="evenodd" fill="#977659" stroke="#000000" stroke-width="2" stroke-linecap="square" stroke-miterlimit="10" d="  M313,490.14c-4.374-25.306,47.222-35.26,63.75-45.75c17.357-11.017,35.004-43.5,56.625-43.5c20.585,0,42.38,37.569,59.625,47.25  c16.649,9.347,59.126,14.532,53.25,41.25c-18.875-11-37.75-22-56.625-33c-12.376-7.213-42.044-32.989-56.625-33  c-14.423-0.01-42.906,23.866-55.268,30.742C356.155,466.135,334.578,478.137,313,490.14z"/>
<path fill="none" stroke="#000000" stroke-width="2" stroke-linecap="square" stroke-miterlimit="10" d="M415.75,370.89  c36.703-37.042,18,40.808,18,52.5"/>
<path fill-rule="evenodd" clip-rule="evenodd" fill="#977659" stroke="#000000" stroke-width="2" stroke-linecap="square" stroke-miterlimit="10" d="  M349.75,500.64c-2.428-26.617,55.708-39.544,73.944-52.417c15.857-11.193,27.147-38.482,49.056-36.083  c20.262,2.219,43.89,38.184,61.5,48.75c15.928,9.557,54.708,12.443,49.5,39c-19-11-38-22-57-33c-12.467-7.218-42.337-33.024-57-33  c-14.469,0.024-42.865,23.844-55.268,30.742C392.905,476.635,371.328,488.637,349.75,500.64z"/>
<path fill="none" stroke="#000000" stroke-width="2" stroke-linecap="square" stroke-miterlimit="10" d="M452.5,381.39  c39.717-35.281,18,39.403,18,52.5"/>
<path fill-rule="evenodd" clip-rule="evenodd" fill="#977659" stroke="#000000" stroke-width="2" stroke-linecap="square" stroke-miterlimit="10" d="  M387.25,505.89c-3.533-25.982,50.035-36.606,67.25-48.083c16.616-11.077,33.723-42.847,55.75-40.417  c20.739,2.288,39.026,36.714,57,47.25c17.435,10.221,58.812,13.454,54,41.25c-19-11-38-22-57-33c-12.5-7.237-42.298-32.996-57-33  c-14.485-0.004-42.817,23.549-55.268,30.397C430.405,482.155,408.828,494.023,387.25,505.89z"/>
<path fill="none" stroke="#000000" stroke-width="2" stroke-linecap="square" stroke-miterlimit="10" d="M490,386.64  c39.868-34.671,18,40.115,18,53.25"/>
</svg>