<svg xmlns="http://www.w3.org/2000/svg" xmlns:xlink="http://www.w3.org/1999/xlink" version="1.1" id="Layer_1" x="0px" y="0px" enable-background="new 0 0 822.05 841.89" xml:space="preserve" viewBox="205.09 306.2 409.85 234.55">
<path fill-rule="evenodd" clip-rule="evenodd" fill="#DCDDDE" stroke="#000000" stroke-width="2" stroke-linecap="square" stroke-miterlimit="10" d="  M217.334,364.576c10.792-12.538,41.186-62.984,57.271-56.864c35.107,13.355,70.215,26.711,105.322,40.067  c77.803,29.598,155.606,59.197,233.409,88.795c-9.198,12.725-35.902,65.729-51.139,59.902  c-37.821-14.466-75.643-28.931-113.463-43.396C371.601,423.579,294.467,394.077,217.334,364.576z"/>
<path fill-rule="evenodd" clip-rule="evenodd" fill="#939598" d="M217.334,366.826c-32.899,27.934,31.887,38.615,49.216,45.128  c58.905,22.137,117.81,44.273,176.715,66.41c36.899,13.866,73.799,27.733,110.698,41.601c23.301,8.756,63.106-61.809,59.372-81.141  c-9.371,12.494-35.898,63.481-51.139,57.652c-37.821-14.466-75.643-28.931-113.463-43.396  c-52.724-20.165-105.447-40.331-158.171-60.496C272.402,385.638,232.773,363.955,217.334,366.826z"/>
<path fill="none" stroke="#000000" stroke-width="2" stroke-linecap="square" stroke-miterlimit="10" d="M217.334,366.826  c-32.899,27.934,31.887,38.615,49.216,45.128c58.905,22.137,117.81,44.273,176.715,66.41  c36.899,13.866,73.799,27.733,110.698,41.601c23.301,8.756,63.106-61.809,59.372-81.141c-9.371,12.494-35.898,63.481-51.139,57.652  c-37.821-14.466-75.643-28.931-113.463-43.396c-77.134-29.501-154.267-59.002-231.4-88.504"/>
<path fill-rule="evenodd" clip-rule="evenodd" fill="#616367" stroke="#000000" stroke-width="2" stroke-linecap="square" stroke-miterlimit="10" d="  M208.334,390.076c-14.38,29.93,44.383,37.013,63.46,44.177c58.764,22.068,117.527,44.136,176.291,66.204  c33.698,12.654,67.396,25.31,101.095,37.965c31.4,11.792,70.103-58.29,64.156-83.098c-8.803,12.716-37.274,72.945-59.372,64.641  c-33.662-12.65-67.324-25.301-100.986-37.951C371.43,451.368,289.882,420.722,208.334,390.076z"/>
<line fill="none" stroke="#000000" stroke-width="2" stroke-linecap="square" stroke-miterlimit="10" x1="242.084" y1="403.576" x2="240.584" y2="420.076"/>
<line fill="none" stroke="#000000" stroke-width="2" stroke-linecap="square" stroke-miterlimit="10" x1="262.334" y1="411.076" x2="260.084" y2="428.324"/>
<line fill="none" stroke="#000000" stroke-width="2" stroke-linecap="square" stroke-miterlimit="10" x1="285.584" y1="420.076" x2="284.084" y2="436.574"/>
<line fill="none" stroke="#000000" stroke-width="2" stroke-linecap="square" stroke-miterlimit="10" x1="305.084" y1="427.574" x2="303.584" y2="444.074"/>
<line fill="none" stroke="#000000" stroke-width="2" stroke-linecap="square" stroke-miterlimit="10" x1="329.834" y1="436.574" x2="328.334" y2="453.824"/>
<line fill="none" stroke="#000000" stroke-width="2" stroke-linecap="square" stroke-miterlimit="10" x1="352.334" y1="445.574" x2="350.834" y2="462.824"/>
<line fill="none" stroke="#000000" stroke-width="2" stroke-linecap="square" stroke-miterlimit="10" x1="375.584" y1="454.574" x2="374.084" y2="471.824"/>
<line fill="none" stroke="#000000" stroke-width="2" stroke-linecap="square" stroke-miterlimit="10" x1="399.584" y1="462.824" x2="398.084" y2="479.324"/>
<line fill="none" stroke="#000000" stroke-width="2" stroke-linecap="square" stroke-miterlimit="10" x1="424.336" y1="473.324" x2="422.836" y2="489.824"/>
<line fill="none" stroke="#000000" stroke-width="2" stroke-linecap="square" stroke-miterlimit="10" x1="446.836" y1="482.324" x2="445.336" y2="498.824"/>
<line fill="none" stroke="#000000" stroke-width="2" stroke-linecap="square" stroke-miterlimit="10" x1="471.586" y1="489.824" x2="470.086" y2="507.074"/>
<line fill="none" stroke="#000000" stroke-width="2" stroke-linecap="square" stroke-miterlimit="10" x1="493.336" y1="498.824" x2="491.086" y2="516.074"/>
<line fill="none" stroke="#000000" stroke-width="2" stroke-linecap="square" stroke-miterlimit="10" x1="515.086" y1="507.824" x2="513.586" y2="524.324"/>
<line fill="none" stroke="#000000" stroke-width="2" stroke-linecap="square" stroke-miterlimit="10" x1="536.836" y1="515.324" x2="535.336" y2="532.574"/>
<line fill="none" stroke="#000000" stroke-width="2" stroke-linecap="square" stroke-miterlimit="10" x1="555.586" y1="519.824" x2="554.086" y2="536.324"/>
</svg>