<svg xmlns="http://www.w3.org/2000/svg" xmlns:xlink="http://www.w3.org/1999/xlink" version="1.1" id="Layer_1" x="0px" y="0px" enable-background="new 0 0 822.05 841.89" xml:space="preserve" viewBox="230.55 251.47 361.96 342.64">
<path fill-rule="evenodd" clip-rule="evenodd" fill="#9E4132" stroke="#000000" stroke-width="2" stroke-linecap="square" stroke-miterlimit="10" d="  M231.554,305.64c7.895,53.008,14.905,106.277,18.75,159.75c2.092,29.092,11.43,74.07-10.5,96  c-30.322,30.322,41.373,39.101,59.25,25.5c17.4-13.238,28.116-80.856,34.66-101.647c5.037-16.007,42.319-92.187,32.84-111.353  c-14.775-29.875-26.546,8.988-39,7.5c-15.672-1.873-23.65-47.034-33.375-60C282.846,306.279,245.729,284.827,231.554,305.64z"/>
<path fill-rule="evenodd" clip-rule="evenodd" fill="#FFFFFF" stroke="#000000" stroke-width="2" stroke-linecap="square" stroke-miterlimit="10" d="  M257.804,347.64c1.194,33.148,2.389,66.297,3.583,99.445c0.926,25.693-4.45,60.192,9.167,83.555  c23.71-42.894,75.293-105.018,81-151.5C290.179,442.581,299.266,319.605,257.804,347.64z"/>
<path fill="none" stroke="#000000" stroke-width="2" stroke-linecap="square" stroke-miterlimit="10" d="M245.804,557.64  c17.663,35.81,37.007-12.543,43.207-26.82c21.848-50.311,43.695-100.62,65.543-150.93"/>
<line fill="none" stroke="#000000" stroke-width="2" stroke-linecap="square" stroke-miterlimit="10" x1="266.054" y1="345.39" x2="267.554" y2="520.89"/>
<line fill="none" stroke="#000000" stroke-width="2" stroke-linecap="square" stroke-miterlimit="10" x1="274.304" y1="346.89" x2="269.804" y2="526.14"/>
<line fill="none" stroke="#000000" stroke-width="2" stroke-linecap="square" stroke-miterlimit="10" x1="282.554" y1="352.14" x2="274.304" y2="523.14"/>
<line fill="none" stroke="#000000" stroke-width="2" stroke-linecap="square" stroke-miterlimit="10" x1="288.554" y1="361.14" x2="280.304" y2="514.89"/>
<line fill="none" stroke="#000000" stroke-width="2" stroke-linecap="square" stroke-miterlimit="10" x1="287.804" y1="501.39" x2="295.304" y2="374.64"/>
<line fill="none" stroke="#000000" stroke-width="2" stroke-linecap="square" stroke-miterlimit="10" x1="302.054" y1="388.14" x2="293.804" y2="487.14"/>
<line fill="none" stroke="#000000" stroke-width="2" stroke-linecap="square" stroke-miterlimit="10" x1="310.304" y1="400.14" x2="302.054" y2="472.14"/>
<line fill="none" stroke="#000000" stroke-width="2" stroke-linecap="square" stroke-miterlimit="10" x1="317.054" y1="404.64" x2="308.054" y2="459.39"/>
<line fill="none" stroke="#000000" stroke-width="2" stroke-linecap="square" stroke-miterlimit="10" x1="325.304" y1="402.39" x2="317.804" y2="444.39"/>
<line fill="none" stroke="#000000" stroke-width="2" stroke-linecap="square" stroke-miterlimit="10" x1="334.304" y1="397.89" x2="331.304" y2="419.64"/>
<path fill-rule="evenodd" clip-rule="evenodd" fill="#9E4132" stroke="#000000" stroke-width="2" stroke-linecap="square" stroke-miterlimit="10" d="  M343.304,272.64c7.91,53.111,15.664,106.155,19.5,159.75c1.583,22.11,13.292,81.875-10.875,96.375  c-32.408,19.444,39.803,41.533,59.627,25.875c17.341-13.696,27.956-82.524,34.312-102.397  c5.354-16.743,41.731-90.557,32.438-110.603c-10.468-22.581-24.013-3.928-36.75,5.625c-10.387,7.791-29.132-50.856-35.251-58.5  C394.11,273.532,358.053,251.894,343.304,272.64z"/>
<path fill-rule="evenodd" clip-rule="evenodd" fill="#FFFFFF" stroke="#000000" stroke-width="2" stroke-linecap="square" stroke-miterlimit="10" d="  M369.554,314.64c2.179,53.746-11.242,134.631,12.75,183.75c27.507-50.013,57.632-99.548,82.502-150.75  c-12.717,5.704-28.337,36.346-46.125,15C407.579,349.318,396.856,296.76,369.554,314.64z"/>
<path fill="none" stroke="#000000" stroke-width="2" stroke-linecap="square" stroke-miterlimit="10" d="M357.554,524.64  c18.512,35.823,36.854-11.984,43.356-26.82c22.048-50.311,44.097-100.62,66.146-150.93"/>
<line fill="none" stroke="#000000" stroke-width="2" stroke-linecap="square" stroke-miterlimit="10" x1="377.804" y1="312.39" x2="380.054" y2="488.64"/>
<line fill="none" stroke="#000000" stroke-width="2" stroke-linecap="square" stroke-miterlimit="10" x1="386.804" y1="313.89" x2="382.304" y2="493.89"/>
<line fill="none" stroke="#000000" stroke-width="2" stroke-linecap="square" stroke-miterlimit="10" x1="394.304" y1="319.89" x2="386.054" y2="490.14"/>
<line fill="none" stroke="#000000" stroke-width="2" stroke-linecap="square" stroke-miterlimit="10" x1="400.304" y1="328.89" x2="392.804" y2="481.89"/>
<line fill="none" stroke="#000000" stroke-width="2" stroke-linecap="square" stroke-miterlimit="10" x1="399.554" y1="469.14" x2="407.806" y2="341.64"/>
<line fill="none" stroke="#000000" stroke-width="2" stroke-linecap="square" stroke-miterlimit="10" x1="413.806" y1="355.14" x2="406.304" y2="454.14"/>
<line fill="none" stroke="#000000" stroke-width="2" stroke-linecap="square" stroke-miterlimit="10" x1="422.806" y1="367.14" x2="414.556" y2="439.89"/>
<line fill="none" stroke="#000000" stroke-width="2" stroke-linecap="square" stroke-miterlimit="10" x1="428.806" y1="371.64" x2="420.556" y2="427.14"/>
<line fill="none" stroke="#000000" stroke-width="2" stroke-linecap="square" stroke-miterlimit="10" x1="437.056" y1="369.39" x2="430.306" y2="411.39"/>
<line fill="none" stroke="#000000" stroke-width="2" stroke-linecap="square" stroke-miterlimit="10" x1="446.056" y1="365.64" x2="443.806" y2="386.64"/>
<path fill-rule="evenodd" clip-rule="evenodd" fill="#9E4132" stroke="#000000" stroke-width="2" stroke-linecap="square" stroke-miterlimit="10" d="  M455.056,260.64c7.895,53.005,14.922,106.278,18.75,159.75c1.777,24.823,13.03,78.728-10.5,96.375  c-33.356,25.017,40.918,39.665,59.25,25.875c16.978-12.771,28.323-82.266,34.659-102.397c5.132-16.307,41.993-91.095,32.841-110.603  c-14.304-30.489-26.035,8.19-39,6.75c-14.628-1.625-25.56-46.599-33.375-59.625C507.909,260.479,468.723,241.202,455.056,260.64z"/>
<path fill-rule="evenodd" clip-rule="evenodd" fill="#FFFFFF" stroke="#000000" stroke-width="2" stroke-linecap="square" stroke-miterlimit="10" d="  M481.306,302.64c1.194,33.148,2.389,66.297,3.584,99.446c0.942,26.148-4.201,60.369,9.166,84.304c27.5-50,55-100,82.5-150  c-12.129,2.794-29.147,36.316-46.5,14.625C519.629,337.982,507.656,284.859,481.306,302.64z"/>
<path fill="none" stroke="#000000" stroke-width="2" stroke-linecap="square" stroke-miterlimit="10" d="M469.306,512.64  c16.96,36.471,37.077-12.706,43.207-26.82c21.848-50.311,43.695-100.62,65.543-150.93"/>
<line fill="none" stroke="#000000" stroke-width="2" stroke-linecap="square" stroke-miterlimit="10" x1="489.556" y1="300.39" x2="491.056" y2="476.64"/>
<line fill="none" stroke="#000000" stroke-width="2" stroke-linecap="square" stroke-miterlimit="10" x1="497.806" y1="301.89" x2="493.306" y2="481.89"/>
<line fill="none" stroke="#000000" stroke-width="2" stroke-linecap="square" stroke-miterlimit="10" x1="505.306" y1="307.89" x2="497.806" y2="478.14"/>
<line fill="none" stroke="#000000" stroke-width="2" stroke-linecap="square" stroke-miterlimit="10" x1="512.056" y1="316.89" x2="503.806" y2="469.89"/>
<line fill="none" stroke="#000000" stroke-width="2" stroke-linecap="square" stroke-miterlimit="10" x1="511.306" y1="457.14" x2="518.806" y2="329.64"/>
<line fill="none" stroke="#000000" stroke-width="2" stroke-linecap="square" stroke-miterlimit="10" x1="525.556" y1="343.14" x2="517.306" y2="442.14"/>
<line fill="none" stroke="#000000" stroke-width="2" stroke-linecap="square" stroke-miterlimit="10" x1="533.806" y1="355.89" x2="525.556" y2="427.89"/>
<line fill="none" stroke="#000000" stroke-width="2" stroke-linecap="square" stroke-miterlimit="10" x1="539.806" y1="359.64" x2="531.556" y2="415.14"/>
<line fill="none" stroke="#000000" stroke-width="2" stroke-linecap="square" stroke-miterlimit="10" x1="548.806" y1="357.39" x2="541.306" y2="399.39"/>
<line fill="none" stroke="#000000" stroke-width="2" stroke-linecap="square" stroke-miterlimit="10" x1="557.806" y1="353.64" x2="554.806" y2="374.64"/>
</svg>