<svg xmlns="http://www.w3.org/2000/svg" xmlns:xlink="http://www.w3.org/1999/xlink" version="1.1" id="Layer_1" x="0px" y="0px" enable-background="new 0 0 822.05 841.89" xml:space="preserve" viewBox="200.86 275.29 420.12 294.76">
<path fill-rule="evenodd" clip-rule="evenodd" fill="#967A66" stroke="#010101" stroke-width="2" stroke-linecap="square" stroke-miterlimit="10" d="  M494.263,563.39c-35.521,0.59-71.044,1.179-106.565,1.769c-20.042,0.333-73.73,13.544-74.629-10.724  c-0.943-25.477-14.239-76.83,3.308-96.838c24.545-27.985,49.09-55.971,73.635-83.957c31.448,33.937,62.897,67.873,94.346,101.81  c21.575,23.282,76.306,1.872,105.906-2.06c0.736,13.109,11.018,65.056-1.775,68.038C557.079,548.749,525.671,556.07,494.263,563.39z  "/>
<line fill="none" stroke="#010101" stroke-width="2" stroke-linecap="square" stroke-miterlimit="10" x1="494.263" y1="563.39" x2="494.263" y2="486.14"/>
<path fill-rule="evenodd" clip-rule="evenodd" fill="#6E91A3" stroke="#010101" stroke-width="2" stroke-linecap="square" stroke-miterlimit="10" d="  M530.263,531.14c-7.468,3.019-16.849,3.574-24.75,5.25c0-24.911-5.434-37.798,24.75-37.5  C530.263,509.64,530.263,520.39,530.263,531.14z"/>
<path fill-rule="evenodd" clip-rule="evenodd" fill="#6E91A3" stroke="#010101" stroke-width="2" stroke-linecap="square" stroke-miterlimit="10" d="  M576.763,523.64c-7.199,3.005-16.357,3.578-24,5.25c0-24.414-6.037-38.745,24-37.5C576.763,502.14,576.763,512.89,576.763,523.64z"/>
<path fill-rule="evenodd" clip-rule="evenodd" fill="#6E91A3" stroke="#010101" stroke-width="2" stroke-linecap="square" stroke-miterlimit="10" d="  M436.513,518.39c-14.17,0-28.339,0-42.509,0c-3.019,0-6.002-36.418-2.493-39.75c4.903-4.655,35.188,0,42.509,0  C439.368,478.64,436.513,511.925,436.513,518.39z"/>
<line fill="none" stroke="#010101" stroke-width="2" stroke-linecap="square" stroke-miterlimit="10" x1="415.513" y1="477.14" x2="415.513" y2="518.39"/>
<line fill="none" stroke="#010101" stroke-width="2" stroke-linecap="square" stroke-miterlimit="10" x1="390.011" y1="498.89" x2="435.013" y2="499.64"/>
<path fill-rule="evenodd" clip-rule="evenodd" fill="#6C5635" stroke="#010101" stroke-width="2" stroke-linecap="square" stroke-miterlimit="10" d="  M371.261,508.64c-0.225-22.731-39.614-30.948-43.125-6.375c-1.76,12.322-2.87,62.625,2.847,62.625  c15.797,0,40.278,8.474,40.278-10.11C371.261,539.4,371.261,524.02,371.261,508.64z"/>
<path fill-rule="evenodd" clip-rule="evenodd" fill="#6E91A3" stroke="#010101" stroke-width="2" stroke-linecap="square" stroke-miterlimit="10" d="  M405.011,447.14c-5.149,0-25.119,3.198-28.5,0c-1.215-1.149-1.215-25.101,0-26.25C397.244,401.275,408.23,432.082,405.011,447.14z"/>
<path fill-rule="evenodd" clip-rule="evenodd" fill="#6D6F71" stroke="#010101" stroke-width="2" stroke-linecap="square" stroke-miterlimit="10" d="  M297.761,473.39c33.934-35.291,70.104-100.884,121.268-105.398c30.858-2.723,61.604-5.602,92.623-5.602  c31.898,0,44.697,29.293,61.711,53.471c6.951,9.878,51.68,58.218,46.15,70.279c-6.311,13.767-74.665,17.374-89.417,19.444  c-31.915,4.479-38.876-1.044-58.727-25.974c-23.48-29.487-46.802-59.095-70.108-88.721c-25.111,27.394-51.083,54.193-75.667,82.056  C314.192,485.868,278.44,497.836,297.761,473.39z"/>
<path fill-rule="evenodd" clip-rule="evenodd" fill="#6D6F71" stroke="#010101" stroke-width="2" stroke-linecap="square" stroke-miterlimit="10" d="  M498.763,375.14c-19.029,30.527-31.468-5.529-33.281-21.398c-1.175-10.276,12.697-15.886,22.031-13.102  C501.86,344.92,497.718,362.598,498.763,375.14z"/>
<path fill-rule="evenodd" clip-rule="evenodd" fill="#FFFFFD" stroke="#010101" stroke-width="2" stroke-linecap="square" stroke-miterlimit="10" d="  M309.761,287.39c12.343,18.776-5.016,54.297,19.5,61.5c3.784-26.977,10.511-37.658,33-43.5c52.668-13.682,28.945,18.918,5.25,42.75  c-36.235,36.444-37.062,59.215-30.583,106.723c1.147,8.412,33.537,77.754,2.833,62.402c-15.848-7.924-12.203-46.67-33.375-51.375  c-3.863-0.858-20.341-11.077-23.625-14.25c-13.522-13.066-17.216-28.688-27.75-42.75c-4.366-5.828-11.9-9.733-15-15.75  c-1.453-2.821-7.34,3.075-9.75-3c-1.582-3.986,6.718-12.444,6.75-17.25c0.208-30.877,5.158-51.637-25.125-63.75  c-21.295-8.518-5.087-37.365,15.375-32.25c25.435,6.359,25.77,27.646,32.25,46.5c4.553,13.247,21.187,42.933,17.625,10.875  C274.356,309.251,279.174,276.812,309.761,287.39z"/>
<path fill-rule="evenodd" clip-rule="evenodd" fill="#1E1E1D" d="M297.761,325.64c8.048,9.798,10.107,29.76,6.75,42  c-12.2-9.698-1.357-4.939-14.25-5.25C288.905,350.226,284.309,324.344,297.761,325.64z"/>
<path fill-rule="evenodd" clip-rule="evenodd" fill="#1E1E1D" d="M290.261,304.64c-1.218,5.16,1.664,8.507-2.25,11.25  C286.668,310.393,290.258,304.653,290.261,304.64z"/>
<path fill-rule="evenodd" clip-rule="evenodd" fill="#1E1E1D" d="M299.261,303.14c-1.313,5.309,1.056,9.036-3.75,12  C294.03,306.77,298.822,303.905,299.261,303.14z"/>
</svg>