<svg xmlns="http://www.w3.org/2000/svg" xmlns:xlink="http://www.w3.org/1999/xlink" version="1.1" id="Layer_1" x="0px" y="0px" enable-background="new 0 0 822.05 841.89" xml:space="preserve" viewBox="205.75 264.53 410.77 315.24">
<path fill-rule="evenodd" clip-rule="evenodd" fill="#EAB649" stroke="#000000" stroke-width="2" stroke-linecap="square" stroke-miterlimit="10" d="  M311,281.159c76.385-5.152,152.77-10.304,229.153-15.456c51.466-3.471,71.054,47.173,74.974,94.206  c2.028,24.337-4.067,48.265-11.25,71.25c-8.245,26.385-30.817,29.388-55.29,40.79c-71.695,33.403-143.391,66.807-215.087,100.21  C326,475.159,318.5,378.159,311,281.159z"/>
<path fill-rule="evenodd" clip-rule="evenodd" fill="#A7823D" stroke="#000000" stroke-width="2" stroke-linecap="square" stroke-miterlimit="10" d="  M398.75,431.159c-1.861,55.44-22.948,142.131-91.125,147.375c-72.607,5.585-97.894-87.748-100.681-143.486  c-2.776-55.524,23.79-146.849,90.931-152.014C371.871,277.342,397.196,374.949,398.75,431.159z"/>
<path fill-rule="evenodd" clip-rule="evenodd" fill="#A7823D" stroke="#000000" stroke-width="2" stroke-linecap="square" stroke-miterlimit="10" d="  M383.75,431.159c-1.099,46.415-21.805,124.5-81,124.5c-58.301,0-80.904-78.153-81-124.5c-0.095-46.043,22.59-125.25,81-125.25  C362.2,305.909,382.631,385.031,383.75,431.159z"/>
<path fill-rule="evenodd" clip-rule="evenodd" fill="#A7823D" stroke="#000000" stroke-width="2" stroke-linecap="square" stroke-miterlimit="10" d="  M368,431.159c2.153,37.369-18.874,101.25-65.25,101.25c-47.76,0-65.248-63.871-65.25-101.25  c-0.002-38.002,17.346-101.25,65.25-101.25C349.073,329.909,370.449,393.181,368,431.159z"/>
<path fill-rule="evenodd" clip-rule="evenodd" fill="#A7823D" stroke="#000000" stroke-width="2" stroke-linecap="square" stroke-miterlimit="10" d="  M356.75,431.159c0.818,31.154-15.208,83.25-54,83.25c-39.273,0-53.949-52.127-54-83.25c-0.05-30.723,14.517-84,54-84  C341.761,347.159,357.687,400.432,356.75,431.159z"/>
<path fill-rule="evenodd" clip-rule="evenodd" fill="#A7823D" stroke="#000000" stroke-width="2" stroke-linecap="square" stroke-miterlimit="10" d="  M346.25,431.159c1.295,82.963-87,82.843-87,0C259.25,347.694,347.555,347.576,346.25,431.159z"/>
<path fill-rule="evenodd" clip-rule="evenodd" fill="#A7823D" stroke="#000000" stroke-width="2" stroke-linecap="square" stroke-miterlimit="10" d="  M338,431.159c-1.656,62.141-65.404,71.341-70.125,5.25C262.957,367.554,335.925,359.126,338,431.159z"/>
<path fill-rule="evenodd" clip-rule="evenodd" fill="#A7823D" stroke="#000000" stroke-width="2" stroke-linecap="square" stroke-miterlimit="10" d="  M326.75,431.159c-1.093,44.244-46.919,44.45-47.25,0C279.163,385.878,325.407,386.347,326.75,431.159z"/>
</svg>