<svg xmlns="http://www.w3.org/2000/svg" xmlns:xlink="http://www.w3.org/1999/xlink" version="1.1" id="Layer_1" x="0px" y="0px" enable-background="new 0 0 822.05 841.89" xml:space="preserve" viewBox="204.99 328.72 407.98 185.75">
<path fill-rule="evenodd" clip-rule="evenodd" fill="#BCBEC0" stroke="#010101" stroke-width="2" stroke-linecap="square" stroke-miterlimit="10" d="  M567.492,422.722c-10.279,1.523-34.144-45.477-52.5-54.002c-29.025-13.48-65.466-14.25-97.031-14.25  c-28.132,0-60.391,4.076-84.469,19.125c-6.553,4.095-13.51,13.924-15,21.375c-3.588,17.939,24.415,12.472,36.75,13.5  c-4.5,0.5-9,1-13.5,1.5c-0.549,16.588-33.995,9.626-43.5,24.002c-2.727,4.124,1.784,58.549,5.25,61.5  c16.496,14.048,104.595-2.446,128.25-3c-1-2.75-2-5.5-3-8.25c17.75-0.5,35.5-1,53.25-1.5c-0.5,2.5-1,5-1.5,7.5  c33.537-0.476,67.074-0.951,100.611-1.427C613.631,488.333,573.383,430.085,567.492,422.722z M450.492,375.47  c22.353,0.658,43.565,12.312,50.25,34.5c-37.168-3.54-76.008-7.901-113.25-3C383.895,364.994,414.7,375.47,450.492,375.47z   M339.492,378.47c33.314-15.025,33.75,9.331,33.75,36C359.307,400.225,305.256,407.213,339.492,378.47z M481.992,481.222  c-0.57-11.983,1.521-23.811,8.25-33.75C487.492,458.722,484.742,469.972,481.992,481.222z M514.992,425.722  c9.364,3.094-7.949,8-15.75,11.25C504.284,432.896,509.574,429.278,514.992,425.722z"/>
<path fill-rule="evenodd" clip-rule="evenodd" fill="#BCBEC0" d="M393.492,397.22L393.492,397.22z"/>
<path fill-rule="evenodd" clip-rule="evenodd" fill="#BCBEC0" d="M393.492,397.22L393.492,397.22L393.492,397.22z"/>
<line fill="none" stroke="#010101" stroke-width="2" stroke-linecap="square" stroke-miterlimit="10" x1="393.492" y1="397.22" x2="393.492" y2="397.22"/>
<path fill-rule="evenodd" clip-rule="evenodd" fill="#BCBEC0" d="M491.742,401.72L491.742,401.72z"/>
<path fill-rule="evenodd" clip-rule="evenodd" fill="#BCBEC0" d="M491.742,401.72L491.742,401.72L491.742,401.72z"/>
<line fill="none" stroke="#010101" stroke-width="2" stroke-linecap="square" stroke-miterlimit="10" x1="491.742" y1="401.72" x2="491.742" y2="401.72"/>
<path fill-rule="evenodd" clip-rule="evenodd" fill="#BCBEC0" stroke="#010101" stroke-width="2" stroke-linecap="square" stroke-miterlimit="10" d="  M605.742,442.972c-0.071,18.235-15.23,20.193-20.25,2.625C581.176,430.49,600.511,431.058,605.742,442.972z"/>
<path fill-rule="evenodd" clip-rule="evenodd" fill="#BCBEC0" stroke="#010101" stroke-width="2" stroke-linecap="square" stroke-miterlimit="10" d="  M478.992,479.722c-3.888-43.948,32.375-72.13,74.25-63.752c37.855,7.574,78.117,91.343,28.5,72.752  c8.051-38.61-33.243-76.998-69.75-53.25c-20.886,13.586-8.646,43.279-20.25,54.75c-11.404,11.273-79.168,3.068-96.75,3.75  C402.33,471,458.935,480.501,478.992,479.722z"/>
<path fill-rule="evenodd" clip-rule="evenodd" fill="#BCBEC0" stroke="#010101" stroke-width="2" stroke-linecap="square" stroke-miterlimit="10" d="  M313.242,495.472c-8.316-106.047,115.725-47.017,80.25-3c22.558-10.123,4.865-45.855-7.5-58.5  c-25.726-26.307-71.614-30.903-103.5-14.252c-15.566,8.129-46.207,35.82-40.5,57.002  C248.821,502.068,292.558,495.852,313.242,495.472z"/>
<path fill-rule="evenodd" clip-rule="evenodd" fill="#BCBEC0" stroke="#010101" stroke-width="2" stroke-linecap="square" stroke-miterlimit="10" d="  M393.492,476.722c-1.768,48.785-76.07,49.011-75.75,0C318.059,428.225,393.123,427.822,393.492,476.722z"/>
<path fill-rule="evenodd" clip-rule="evenodd" fill="#BCBEC0" stroke="#010101" stroke-width="2" stroke-linecap="square" stroke-miterlimit="10" d="  M379.242,476.722c-2.245,30.942-38.018,27.695-46.5,2.25C323.966,452.644,377.72,442.32,379.242,476.722z"/>
<path fill-rule="evenodd" clip-rule="evenodd" fill="#BCBEC0" stroke="#010101" stroke-width="2" stroke-linecap="square" stroke-miterlimit="10" d="  M361.992,476.722C350.051,484.22,347.176,470.544,361.992,476.722L361.992,476.722z"/>
<path fill-rule="evenodd" clip-rule="evenodd" fill="#BCBEC0" stroke="#010101" stroke-width="2" stroke-linecap="square" stroke-miterlimit="10" d="  M575.742,476.722c-1.949,48.606-75.376,49.38-75,0C501.116,427.603,574.557,428.286,575.742,476.722z"/>
<path fill-rule="evenodd" clip-rule="evenodd" fill="#BCBEC0" stroke="#010101" stroke-width="2" stroke-linecap="square" stroke-miterlimit="10" d="  M561.492,476.722c-3.024,27.396-46.5,31.652-46.5,2.25C514.992,448.178,559.078,444.964,561.492,476.722z"/>
<path fill-rule="evenodd" clip-rule="evenodd" fill="#BCBEC0" stroke="#010101" stroke-width="2" stroke-linecap="square" stroke-miterlimit="10" d="  M543.492,476.722C530.811,486.393,528.999,467.991,543.492,476.722L543.492,476.722z"/>
<path fill-rule="evenodd" clip-rule="evenodd" fill="#BCBEC0" stroke="#010101" stroke-width="2" stroke-linecap="square" stroke-miterlimit="10" d="  M589.992,475.972C618.842,509.838,619.76,442.5,589.992,475.972L589.992,475.972z"/>
<path fill-rule="evenodd" clip-rule="evenodd" fill="#BCBEC0" stroke="#010101" stroke-width="2" stroke-linecap="square" stroke-miterlimit="10" d="  M240.492,461.722c14.258,2.544,76.246,13.244,69,21C296.597,496.526,221.112,486.977,240.492,461.722z"/>
<path fill-rule="evenodd" clip-rule="evenodd" fill="#BCBEC0" stroke="#010101" stroke-width="2" stroke-linecap="square" stroke-miterlimit="10" d="  M374.742,424.222c9.25-28.656-131.973-30.917-111,45.75C301.447,452.883,324.781,404.804,374.742,424.222z"/>
<path fill-rule="evenodd" clip-rule="evenodd" fill="#F2EA31" stroke="#010101" stroke-width="2" stroke-linecap="square" stroke-miterlimit="10" d="  M307.992,455.722c-5.387,16.281-28.237,13.961-23.25-4.5C289.619,433.17,307.292,440.471,307.992,455.722z"/>
<path fill-rule="evenodd" clip-rule="evenodd" fill="#F2EA31" stroke="#010101" stroke-width="2" stroke-linecap="square" stroke-miterlimit="10" d="  M268.242,445.972c-5.615,15.504-27.51,13.269-23.25-4.5C249.144,424.155,268.893,429.121,268.242,445.972z"/>
<path fill-rule="evenodd" clip-rule="evenodd" fill="#ED1C24" stroke="#000000" stroke-width="2" stroke-linecap="square" stroke-miterlimit="10" d="  M213.492,338.72c7.219-4.02,16.249-6.093,24-9c4.852,19.73,2.902,57.548,31.5,41.25c-3.75,16.5-7.5,33-11.25,49.5  c-17.25-10-34.5-20-51.75-30C240.443,381.784,223.465,365.314,213.492,338.72z"/>
</svg>