<svg xmlns="http://www.w3.org/2000/svg" xmlns:xlink="http://www.w3.org/1999/xlink" version="1.1" id="Layer_1" x="0px" y="0px" enable-background="new 0 0 822.05 841.89" xml:space="preserve" viewBox="303.06 248.39 217.11 351.85">
<path fill-rule="evenodd" clip-rule="evenodd" fill="#FFEBB9" stroke="#000000" stroke-width="2" stroke-linecap="square" stroke-miterlimit="10" d="  M312,265.14c32.694-9.964,67.343-15.75,101.583-15.75c10.999,0,94.879,5.306,94.919,20.077  c0.249,94.058,0.499,188.115,0.748,282.173c-66.25,0-132.5,0-198.75,0C311,456.14,311.5,360.64,312,265.14z"/>
<path fill-rule="evenodd" clip-rule="evenodd" fill="#FFEBB9" stroke="#000000" stroke-width="2" stroke-linecap="square" stroke-miterlimit="10" d="  M306,560.64c-10.039,39.577,20.699,32.25,50.435,32.25c27.192,0,139.189,17.313,156.565-5.25  c29.569-38.397-55.979-32.839-69.21-32.688C399.738,555.459,348.783,549.376,306,560.64z"/>
<path fill-rule="evenodd" clip-rule="evenodd" fill="#F7931E" stroke="#000000" stroke-width="2" stroke-linecap="square" stroke-miterlimit="10" d="  M493.5,489.39c-21.619,0-153,7.565-153-6.668c0-36.244,0-72.488,0-108.732c0-13.166-9.63-83.939,0-93.1  c12.804-12.18,153,0.738,153,6.667C493.5,354.835,493.5,422.113,493.5,489.39z"/>
<path fill-rule="evenodd" clip-rule="evenodd" fill="#86837B" stroke="#000000" stroke-width="2" stroke-linecap="square" stroke-miterlimit="10" d="  M493.5,300.39c-30.927,0-61.854,0-92.781,0c-5.575,0-85.313,7.592-60.219-19.5c8.809-9.51,79.562,0,92.781,0  C452.631,280.89,503.978,267.643,493.5,300.39z"/>
<line fill="none" stroke="#000000" stroke-width="2" stroke-linecap="square" stroke-miterlimit="10" x1="342" y1="316.14" x2="495" y2="316.14"/>
<line fill="none" stroke="#000000" stroke-width="2" stroke-linecap="square" stroke-miterlimit="10" x1="342" y1="334.89" x2="495" y2="334.89"/>
<line fill="none" stroke="#000000" stroke-width="2" stroke-linecap="square" stroke-miterlimit="10" x1="342" y1="347.64" x2="495" y2="347.64"/>
<line fill="none" stroke="#000000" stroke-width="2" stroke-linecap="square" stroke-miterlimit="10" x1="342" y1="360.39" x2="495" y2="360.39"/>
<line fill="none" stroke="#000000" stroke-width="2" stroke-linecap="square" stroke-miterlimit="10" x1="339.75" y1="374.64" x2="492" y2="374.64"/>
<line fill="none" stroke="#000000" stroke-width="2" stroke-linecap="square" stroke-miterlimit="10" x1="339.75" y1="388.14" x2="492" y2="388.14"/>
<line fill="none" stroke="#000000" stroke-width="2" stroke-linecap="square" stroke-miterlimit="10" x1="339.75" y1="403.89" x2="492" y2="403.89"/>
<line fill="none" stroke="#000000" stroke-width="2" stroke-linecap="square" stroke-miterlimit="10" x1="339.75" y1="417.39" x2="492" y2="417.39"/>
<line fill="none" stroke="#000000" stroke-width="2" stroke-linecap="square" stroke-miterlimit="10" x1="340.5" y1="433.14" x2="493.5" y2="433.14"/>
<line fill="none" stroke="#000000" stroke-width="2" stroke-linecap="square" stroke-miterlimit="10" x1="341.25" y1="446.64" x2="494.25" y2="446.64"/>
<line fill="none" stroke="#000000" stroke-width="2" stroke-linecap="square" stroke-miterlimit="10" x1="341.25" y1="459.39" x2="494.25" y2="459.39"/>
<line fill="none" stroke="#000000" stroke-width="2" stroke-linecap="square" stroke-miterlimit="10" x1="341.25" y1="472.14" x2="494.25" y2="472.14"/>
<path fill-rule="evenodd" clip-rule="evenodd" fill="#FFEBB9" stroke="#000000" stroke-width="2" stroke-linecap="square" stroke-miterlimit="10" d="  M489,520.14c-3.668,14.389-24.815,17.426-25.5,0C462.8,502.31,485.495,505.351,489,520.14z"/>
</svg>