<svg xmlns="http://www.w3.org/2000/svg" xmlns:xlink="http://www.w3.org/1999/xlink" version="1.1" id="Layer_1" x="0px" y="0px" enable-background="new 0 0 822.05 841.89" xml:space="preserve" viewBox="210.33 257.63 402.24 326.1">
<path fill-rule="evenodd" clip-rule="evenodd" fill="#5EBB47" stroke="#000000" stroke-width="2" stroke-linecap="square" stroke-miterlimit="10" d="  M211.326,289.15c0.172,59.22,0.344,118.439,0.517,177.659c0.075,25.97,0.151,51.938,0.227,77.908  c0.021,7.183,42.263,36.193,50.257,37.681c12.122,2.255,34.387-7.534,46.151-10.111c35.055-7.68,70.109-15.36,105.164-23.04  c63.518-13.916,127.034-27.832,190.552-41.748c12.623-2.766,5.165-132.89,5.32-148.932c0.263-27.021,0.525-54.042,0.787-81.064  c0.07-7.269-62.677-14.636-72.495-16.521c-44.944-8.626-107.8,8.977-153.041,12.947C326.952,279.002,269.139,284.076,211.326,289.15  z"/>
<path fill="none" stroke="#000000" stroke-width="2" stroke-linecap="square" stroke-miterlimit="10" d="M211.326,289.15  c20.591,9.461,43.259,26.917,66.335,24.246c37.395-4.327,74.79-8.655,112.185-12.982c73.493-8.505,146.986-17.009,220.479-25.514"/>
<line fill="none" stroke="#000000" stroke-width="2" stroke-linecap="square" stroke-miterlimit="10" x1="266.826" y1="314.65" x2="260.076" y2="580.148"/>
<path fill="none" stroke="#007647" stroke-width="2" stroke-linecap="square" stroke-miterlimit="10" d="M296.826,408.4  c11.328,19.631,63.753-2.053,57-27c13.94,3.409,24.819-5.904,22.5-20.25"/>
<path fill="none" stroke="#007647" stroke-width="2" stroke-linecap="square" stroke-miterlimit="10" d="M472.326,427.148  c10.742,19.743,64-2.014,57-26.998c13.939,3.409,24.819-5.904,22.5-20.25"/>
<path fill="none" stroke="#007647" stroke-width="2" stroke-linecap="square" stroke-miterlimit="10" d="M494.826,484.898  c10.696,19.658,63.747-2.075,57-27c13.985,3.326,24.605-5.966,21.75-20.25"/>
<path fill="none" stroke="#007647" stroke-width="2" stroke-linecap="square" stroke-miterlimit="10" d="M329.826,465.398  c-13.685,18.347,27.295,58.119,47.25,41.25c1.964,14.292,14.248,20.722,27,13.5"/>
<path fill="none" stroke="#007647" stroke-width="2" stroke-linecap="square" stroke-miterlimit="10" d="M366.576,423.398  c4.741,15.999,20.466,25.162,35.625,16.5c13.224-7.557,36.955,10.516,42.375-12"/>
<path fill="none" stroke="#007647" stroke-width="2" stroke-linecap="square" stroke-miterlimit="10" d="M458.076,340.15  c6.927,19.823,16.844,10.345,30,11.25c10.035,0.69,25.073,5.915,30.75-7.5"/>
</svg>