<svg xmlns="http://www.w3.org/2000/svg" xmlns:xlink="http://www.w3.org/1999/xlink" version="1.1" id="Layer_1" x="0px" y="0px" enable-background="new 0 0 822.05 841.89" xml:space="preserve" viewBox="308.31 341.48 204.02 162.16">
<path fill-rule="evenodd" clip-rule="evenodd" fill="#EED5B6" stroke="#000000" stroke-width="1.25" stroke-linecap="square" stroke-miterlimit="10" d="  M348.689,410.765C362.542,447.979,314.495,389.338,348.689,410.765L348.689,410.765z"/>
<path fill-rule="evenodd" clip-rule="evenodd" fill="#EED5B6" stroke="#000000" stroke-width="1.25" stroke-linecap="square" stroke-miterlimit="10" d="  M420.693,392.015C404.004,425.086,407.106,357.257,420.693,392.015L420.693,392.015z"/>
<path fill-rule="evenodd" clip-rule="evenodd" fill="#EED5B6" stroke="#000000" stroke-width="1.25" stroke-linecap="square" stroke-miterlimit="10" d="  M415.439,443.765c-9.25-3.492-17.688-17.25-26.086-17.25c-24.03,0-23.36,6.165-43.664,14.625  c-17.57,7.321-27.607,34.125-1.033,34.125c18.622,0,37.244,0,55.866,0C413.367,475.265,412.552,454.792,415.439,443.765z"/>
<path fill-rule="evenodd" clip-rule="evenodd" fill="#EED5B6" stroke="#000000" stroke-width="1.25" stroke-linecap="square" stroke-miterlimit="10" d="  M333.689,386.765c4.404,42.346,65.393,74.876,80.25,22.875C435.724,333.396,322.221,316.124,333.689,386.765z"/>
<path fill-rule="evenodd" clip-rule="evenodd" fill="#631D1B" stroke="#000000" stroke-linecap="square" stroke-miterlimit="10" d="  M406.439,401.765c-12.9,19.314-16.537,32.192-39,15C381.454,415.675,395.239,410.373,406.439,401.765z"/>
<path fill-rule="evenodd" clip-rule="evenodd" d="M370.439,395.765c-2.21,0.696-0.507,6.265-6,2.25  C365.673,390.958,368.054,396.516,370.439,395.765z"/>
<path fill-rule="evenodd" clip-rule="evenodd" d="M394.439,389.015c-2.114,0.809-0.9,6.065-6,2.25  C389.695,384.765,392.04,389.933,394.439,389.015z"/>
<path fill="none" stroke="#000000" stroke-linecap="square" stroke-miterlimit="10" d="M379.439,402.515  c3.265,2.245,6.047,1.323,8.25-2.25"/>
<path fill="none" stroke="#000000" stroke-width="0.75" stroke-linecap="square" stroke-miterlimit="10" d="M359.939,399.515  c3.292-5.199,8.258-7.072,14.25-5.25"/>
<path fill="none" stroke="#000000" stroke-width="0.75" stroke-linecap="square" stroke-miterlimit="10" d="M398.939,388.265  c-5.273-2.4-10.149-1.024-13.5,3.75"/>
<path fill-rule="evenodd" clip-rule="evenodd" fill="#EED5B6" stroke="#000000" stroke-width="1.25" stroke-linecap="square" stroke-miterlimit="10" d="  M482.193,359.015c-1.407,7.548-3.505,15.021-5.25,22.5c8.173-27.366-7.325-35.098-10.5,3c-4.091-37.841-12.058-32.244-7.5,2.25  c-6.796-39.573-17.434-18.734-4.5,10.5c-33.266-27.42,3.206,18.275,10.875,28.5C483.155,449.548,503.382,365.683,482.193,359.015z"/>
<path fill="none" stroke="#000000" stroke-width="1.25" stroke-linecap="square" stroke-miterlimit="10" d="M454.443,397.265  c5.781-5.409,12.825-5.906,19.5-1.5"/>
<path fill-rule="evenodd" clip-rule="evenodd" fill="#137827" stroke="#000000" stroke-width="1.25" stroke-linecap="square" stroke-miterlimit="10" d="  M510.693,475.265c-6.801-22.186-13.576-44.271-21.75-66c-6.678,9.016-17.646,12.499-29.25,12c1.555,11.323,3.65,22.562,6,33.75  c-10.259-2.894-32.704-13.925-43.5-12c-12.792,2.281-5.714,7.171-16.504,11.25c-13.435,5.079-21.868,12.872-37.5,6  c-17.473-7.682-19.52-30.68-42.75-15c-17.522,11.827-14.543,38.837-16.5,57.75c43.001,0,86.002,0,129.004,0  c-1.578-5.656,1.146-13.981,0-18.75C450.373,489.52,520.961,514.526,510.693,475.265z"/>
<path fill="none" stroke="#000000" stroke-width="0.75" stroke-linecap="square" stroke-miterlimit="10" d="M439.443,350.015  c-5.608,8.943-5.819,19.541-1.5,29.25"/>
<path fill="none" stroke="#000000" stroke-width="0.75" stroke-linecap="square" stroke-miterlimit="10" d="M497.193,353.765  c1.026,5.459,1.025,11.033,0,16.5"/>
<path fill-rule="evenodd" clip-rule="evenodd" fill="#FFFFFF" d="M465.693,455.015c1.743,10.296,4.729,20.185,9.75,29.25  C472.193,474.515,468.943,464.765,465.693,455.015z"/>
<path fill="none" stroke="#000000" stroke-width="1.25" stroke-linecap="square" stroke-miterlimit="10" d="M465.693,455.015  c1.743,10.296,4.729,20.185,9.75,29.25"/>
<path fill-rule="evenodd" clip-rule="evenodd" fill="#FFFFFF" d="M434.943,476.765l2.25,11.25L434.943,476.765z"/>
<line fill="none" stroke="#000000" stroke-width="1.25" stroke-linecap="square" stroke-miterlimit="10" x1="434.943" y1="476.765" x2="437.193" y2="488.015"/>
<path fill-rule="evenodd" clip-rule="evenodd" fill="#FFFFFF" d="M428.193,350.765c-3.494,8.92-5.994,14.886,0,23.25  C428.193,366.444,429.158,358.264,428.193,350.765z"/>
<path fill="none" stroke="#000000" stroke-width="0.75" stroke-linecap="square" stroke-miterlimit="10" d="M428.193,350.765  c-5.074,7.661-5.18,16.023,0,23.25"/>
<path fill="none" stroke="#000000" stroke-width="0.75" stroke-linecap="square" stroke-miterlimit="10" d="M503.943,350.765  c4.458,7.643,4.89,16.281,1.5,24.75"/>
<path fill-rule="evenodd" clip-rule="evenodd" fill="#137827" d="M335.939,474.515l-1.5,27.75L335.939,474.515z"/>
<line fill="none" stroke="#000000" stroke-width="1.25" stroke-linecap="square" stroke-miterlimit="10" x1="335.939" y1="474.515" x2="334.439" y2="502.265"/>
</svg>