<svg xmlns="http://www.w3.org/2000/svg" xmlns:xlink="http://www.w3.org/1999/xlink" version="1.1" id="Layer_1" x="0px" y="0px" enable-background="new 0 0 822.05 841.89" xml:space="preserve" viewBox="319.01 337.08 182.99 171.06">
<path fill-rule="evenodd" clip-rule="evenodd" fill="#EBCBA7" stroke="#000000" stroke-width="1.25" stroke-linecap="square" stroke-miterlimit="10" d="  M430.636,421.265c-28.118-18.399-31.136-9.44-58.875-1.875c-12.206,3.329-23.866,28.875-4.235,28.875  C405.54,448.265,421.127,459.301,430.636,421.265z"/>
<path fill-rule="evenodd" clip-rule="evenodd" fill="#82B9D2" stroke="#000000" stroke-width="1.25" stroke-linecap="square" stroke-miterlimit="10" d="  M498.136,457.265c-2.218-1.596-66.528-53.165-71.25-39c-4.229,12.687-18.271,18.205-30.75,16.125  c-19.138-3.189-15.974-22.424-36.75-16.875c-22.983,6.139-31.635,71.384-37.5,90c32.842-0.198,65.684-0.396,98.525-0.594  c34.015-0.205,27.985-11.758,25.225-44.406C453.607,466.393,516.141,492.418,498.136,457.265z"/>
<path fill-rule="evenodd" clip-rule="evenodd" fill="#82B9D2" stroke="#000000" stroke-width="1.25" stroke-linecap="square" stroke-miterlimit="10" d="  M369.136,475.265c-15.039,32.334-13.931,32.25-49.5,32.25c7.75-12.25,15.5-24.5,23.25-36.75  C350.062,479.706,360.147,482.148,369.136,475.265z"/>
<path fill-rule="evenodd" clip-rule="evenodd" fill="#EBCBA7" stroke="#000000" stroke-width="1.25" stroke-linecap="square" stroke-miterlimit="10" d="  M371.386,395.765C373.534,421.342,347.2,387.922,371.386,395.765L371.386,395.765z"/>
<path fill-rule="evenodd" clip-rule="evenodd" fill="#EBCBA7" stroke="#000000" stroke-width="1.25" stroke-linecap="square" stroke-miterlimit="10" d="  M431.386,380.015C418.072,402.102,417.857,357.451,431.386,380.015L431.386,380.015z"/>
<path fill-rule="evenodd" clip-rule="evenodd" fill="#EBCBA7" stroke="#000000" stroke-width="1.25" stroke-linecap="square" stroke-miterlimit="10" d="  M358.636,375.515c2.521,46.307,68.831,59.485,68.25,6C426.249,322.926,347.91,325.314,358.636,375.515z"/>
<path fill-rule="evenodd" clip-rule="evenodd" fill="#EBCBA7" stroke="#000000" stroke-width="1.25" stroke-linecap="square" stroke-miterlimit="10" d="  M371.386,470.015c7.245,5.93,10.41,9.56,2.25,18.75C372.38,483.26,371.103,476.042,371.386,470.015z"/>
<path fill-rule="evenodd" clip-rule="evenodd" fill="#EBCBA7" stroke="#000000" stroke-width="1.25" stroke-linecap="square" stroke-miterlimit="10" d="  M366.136,467.015c12.986,7.757,15.505,24.49,11.25,37.5c-1.386-4.37-5.377-10.013-6.75-15.75  C348.771,507.117,334.994,449.293,366.136,467.015z"/>
<path fill-rule="evenodd" clip-rule="evenodd" fill="#EBCBA7" d="M352.636,476.015c-0.103,1.858-0.911,6.523,0,9.75  C352.636,482.515,352.636,479.265,352.636,476.015z"/>
<path fill="none" stroke="#000000" stroke-width="1.25" stroke-linecap="square" stroke-miterlimit="10" d="M352.636,476.015  c-0.883,2.055-0.907,6.54,0,9.75"/>
<path fill-rule="evenodd" clip-rule="evenodd" fill="#EBCBA7" stroke="#000000" stroke-width="1.25" stroke-linecap="square" stroke-miterlimit="10" d="  M425.386,453.515c-14.735,8.421-19.112,29.772-17.25,45.75c2.265-6.89,7.284-14.127,8.998-21.75  C436.152,509.465,458.761,441.541,425.386,453.515z"/>
<path fill="none" stroke="#000000" stroke-width="1.25" stroke-linecap="square" stroke-miterlimit="10" d="M434.386,481.265  c-5.65,1.246-9.322-1.999-10.5-8.25"/>
<path fill-rule="evenodd" clip-rule="evenodd" fill="#EBCBA7" d="M441.136,467.765c-2.926,1.718-6.069,4.942-8.25,7.5  C429.885,466.324,436.103,470.721,441.136,467.765z"/>
<path fill="none" stroke="#000000" stroke-width="1.25" stroke-linecap="square" stroke-miterlimit="10" d="M441.136,467.765  c-2.853,1.847-6.042,4.911-8.25,7.5c-3.28-8.102,2.537-4.488,6.75-7.5"/>
<path fill-rule="evenodd" clip-rule="evenodd" fill="#82B9D2" d="M474.886,450.515c-11.5,1.25-23,2.5-34.5,3.75  c5.606,7.656,5.649,17.103,0.75,26.25c17.5-1.5,35-3,52.5-4.5C487.386,467.515,481.136,459.015,474.886,450.515z"/>
<path fill="none" stroke="#000000" stroke-width="1.25" stroke-linecap="square" stroke-miterlimit="10" d="M474.886,450.515  c-11.5,1.25-23,2.5-34.5,3.75c5.606,7.656,5.649,17.103,0.75,26.25c17.5-1.5,35-3,52.5-4.5"/>
</svg>