<svg xmlns="http://www.w3.org/2000/svg" xmlns:xlink="http://www.w3.org/1999/xlink" version="1.1" id="Layer_1" x="0px" y="0px" enable-background="new 0 0 822.05 841.89" xml:space="preserve" viewBox="309.14 250.53 201.66 337.86">
<path fill-rule="evenodd" clip-rule="evenodd" fill="#967A66" stroke="#000000" stroke-width="2" stroke-linecap="square" stroke-miterlimit="10" d="  M405.26,354.89c1.012,35.081-0.663,69.347-1.534,103.314c-0.845,32.936,18.894,130.172-32.966,124.686  c8.206-0.631,16.523-0.473,24.75-0.75c-4.753,1.445-9.435,3.287-14.25,4.5c9.599-1.778,14.865-0.429,19.5,0  c26.443-24.469-1.554-93.604,10.875-126.75C420.616,435.939,419.561,371.506,405.26,354.89z"/>
<path fill-rule="evenodd" clip-rule="evenodd" fill="#967A66" stroke="#000000" stroke-width="2" stroke-linecap="square" stroke-miterlimit="10" d="  M439.76,361.64c1.055,29.882,1.724,62.261,2.25,90c0.481,25.375,21.194,118.147-9,129c2.75-0.75,5.5-1.5,8.25-2.25  c-2.75,3-5.5,6-8.25,9c13.367-6.059,8.654-4.815,21-3.75c-13.565-38.528-1.763-88.688-3.75-129  C449.217,433.484,449.514,365.074,439.76,361.64z"/>
<path fill-rule="evenodd" clip-rule="evenodd" fill="#BCBEC0" stroke="#000000" stroke-width="2" stroke-linecap="square" stroke-miterlimit="10" d="  M316.01,353.39c-3.464-24.195,11.244-67.333,40.5-38.25c10.171,10.111,3.734,35.633,15,42.75  c14.728,9.304,23.924-9.266,20.25-22.125c-9.754-34.139-32.855-60.688,15-79.125c60.682-23.378,62.808,39.559,94.5,65.25  c-3,0-6,0-9,0c5.658,10.068,21.776,29.543,16.5,43.5c-16.153-20.314-21.505-23.31-45.75-16.5c-8.633,2.425-8.582-9.086-15,3.75  c-9.931,19.861-8.72-2.942-12-2.25c-1.702,0.359-7.558-9.261-12.75-8.25c-3.743,0.729-13.474,23.829-18.75,27.75  c-12.127,9.012-23.793,12.672-37.5,3.75c-6.292-4.096-32.921-84.475-40.875-36.75c-2.385,14.31,7.158,25.71,9.375,39.75  c3.11,19.701,0.727,50.013-3,69.75C325.178,424.029,298.455,376.554,316.01,353.39z"/>
<path fill-rule="evenodd" clip-rule="evenodd" stroke="#000000" stroke-width="2" stroke-linecap="square" stroke-miterlimit="10" d="  M322.01,390.14c0.992,5.009-4.472,6.711,2.25,10.5C327.406,395.337,322.94,394.838,322.01,390.14z"/>
<path fill="none" stroke="#000000" stroke-width="2" stroke-linecap="square" stroke-miterlimit="10" d="M413.51,301.64  c2.959,12.729,14.268,18.979,27,18.75c-0.75-3-1.5-6-2.25-9c7.557,5.308,16.273,8.381,25.5,9c-2-2.25-4-4.5-6-6.75  c7.645,4.594,16.302,7.494,24,12c-4.173-6.137-7.916-13.13-12.75-18.75"/>
</svg>