<svg xmlns="http://www.w3.org/2000/svg" xmlns:xlink="http://www.w3.org/1999/xlink" version="1.1" id="Layer_1" x="0px" y="0px" enable-background="new 0 0 822.05 841.89" xml:space="preserve" viewBox="303.25 343.52 213.5 155.85">
<path fill-rule="evenodd" clip-rule="evenodd" fill="#EBCBA7" stroke="#000000" stroke-width="1.25" stroke-linecap="square" stroke-miterlimit="10" d="  M399.875,416.988C398.821,440.868,381.702,402.366,399.875,416.988L399.875,416.988z"/>
<path fill-rule="evenodd" clip-rule="evenodd" fill="#EBCBA7" stroke="#000000" stroke-width="1.25" stroke-linecap="square" stroke-miterlimit="10" d="  M461.375,403.488C450.426,423.376,450.836,381.823,461.375,403.488L461.375,403.488z"/>
<path fill-rule="evenodd" clip-rule="evenodd" fill="#EBCBA7" stroke="#000000" stroke-width="1.25" stroke-linecap="square" stroke-miterlimit="10" d="  M457.625,448.49c-22.644-15.241-30.959-11.017-54.75-1.5c-12.711,5.084-21.951,26.25-1.992,26.25  C430.957,473.24,453.533,483.776,457.625,448.49z"/>
<path fill-rule="evenodd" clip-rule="evenodd" fill="#EBCBA7" stroke="#000000" stroke-width="1.25" stroke-linecap="square" stroke-miterlimit="10" d="  M448.625,376.488c-14.726-5.767-42.342-9.678-47.25,7.5c-6.247,21.865-11.065,42.469,15,55.502  C463.456,463.031,457.784,400.48,448.625,376.488z"/>
<path fill-rule="evenodd" clip-rule="evenodd" fill="#1D529A" stroke="#000000" stroke-width="1.25" stroke-linecap="square" stroke-miterlimit="10" d="  M471.875,447.74c-19.705-10.837-28.446,20.877-54.374,10.5c-13.233-5.296-7.883-18.862-25.876-12.75  c-17.911,6.084-16.047,37.608-18.75,53.25c44.25,0,88.5,0,132.75,0C497.267,480.574,486.123,461.818,471.875,447.74z"/>
<path fill="none" stroke="#000000" stroke-linecap="square" stroke-miterlimit="10" d="M429.125,416.988  c2.959,1.487,5.201,0.734,6.75-2.25"/>
<path fill-rule="evenodd" clip-rule="evenodd" fill="#724211" stroke="#000000" stroke-linecap="square" stroke-miterlimit="10" d="  M389.375,394.488c1.488,9.072,3.967,17.743,7.5,26.25c0.44-8.249,4.027-14.578,6.75-21.75c0.01,2.5,0.295,5.757,0.75,8.25  c2.227-11,6.153-16.998,13.5-5.25c0.071-3.967,0.213-6.421-0.75-10.5c1.432,2.984,5.384,8.415,6.75,11.25  c-0.664-5.417-0.015-11.037-0.75-16.5c3.045,6.708,7.387,12.246,9.75,19.5c-0.228-5.393,1.092-10.977,0.75-16.5  c1.87,4.527,5.872,9.688,7.5,13.5c-0.604-5.447,0.038-11.016-0.75-16.5c1.461,4.913,4.518,10.384,6,15.75  c-0.075-5.951,1.594-11.986,1.5-18c1.642,6.145,5.125,11.745,6.75,18C475.212,358.956,392.263,337.046,389.375,394.488z"/>
<path fill="none" stroke="#000000" stroke-linecap="square" stroke-miterlimit="10" d="M421.625,428.24  c9.883,3.579,19.224,0.802,26.25-7.502"/>
<path fill-rule="evenodd" clip-rule="evenodd" fill="#EBCBA7" stroke="#000000" stroke-width="1.25" stroke-linecap="square" stroke-miterlimit="10" d="  M485.375,401.988c-4.768-1.809-10.007-2.915-15-3.75c16.123,15.064,27.752,46.673,37.5,7.5  C518.089,364.691,472.03,367.861,485.375,401.988z"/>
<path fill-rule="evenodd" clip-rule="evenodd" fill="#F8130D" stroke="#000000" stroke-width="1.25" stroke-linecap="square" stroke-miterlimit="10" d="  M473.375,410.988c14.25-9,28.5-18,42.75-27c-4.708-7.129-18.712-37.942-26.25-39.75c-7.496-1.798-35.398,21.736-42.75,26.25  C455.875,383.988,464.625,397.488,473.375,410.988z"/>
<path fill-rule="evenodd" clip-rule="evenodd" fill="#EBCBA7" d="M484.625,413.988c-6.161-4.34-11.468-9.42-14.25-15.75  c6.913,0.338,15.083,3.333,21,6.75C489.125,407.988,486.875,410.988,484.625,413.988z"/>
<path fill="none" stroke="#000000" stroke-width="1.25" stroke-linecap="square" stroke-miterlimit="10" d="M484.625,413.988  c-6.161-4.34-11.468-9.42-14.25-15.75c7.168,0.989,14.706,3.116,21,6.75"/>
<path fill-rule="evenodd" clip-rule="evenodd" fill="#1D529A" stroke="#000000" stroke-width="1.25" stroke-linecap="square" stroke-miterlimit="10" d="  M507.875,414.738c-7.964-1.091-16.71,0-24.75,0c0.791,28.091,1.35,55.256-0.75,83.252c9.25,0,18.5,0,27.75,0  C509.375,470.239,508.625,442.489,507.875,414.738z"/>
<path fill-rule="evenodd" clip-rule="evenodd" fill="#EBCBA7" stroke="#000000" stroke-width="1.25" stroke-linecap="square" stroke-miterlimit="10" d="  M357.125,466.49C346.253,495.311,333.573,447.524,357.125,466.49L357.125,466.49z"/>
<path fill-rule="evenodd" clip-rule="evenodd" fill="#EBCBA7" d="M342.875,464.99c2.429,4.38,8.823,2.396,6.75,11.25  C356.97,465.577,354.13,464,342.875,464.99z"/>
<path fill="none" stroke="#000000" stroke-width="1.25" stroke-linecap="square" stroke-miterlimit="10" d="M342.875,464.99  c2.429,4.38,8.823,2.396,6.75,11.25c8.895-7.776,1.16-8.568-1.5-14.25"/>
<path fill-rule="evenodd" clip-rule="evenodd" fill="#EBCBA7" d="M344.375,454.49c12.198,1.55,16.231,11.422,14.25,22.5  C373.059,464.522,364.77,439.294,344.375,454.49z"/>
<path fill="none" stroke="#000000" stroke-width="1.25" stroke-linecap="square" stroke-miterlimit="10" d="M344.375,454.49  c12.198,1.55,16.231,11.422,14.25,22.5c10.51-9.078,11.604-23.377-3-27.75"/>
<path fill-rule="evenodd" clip-rule="evenodd" fill="#EBCBA7" d="M342.875,459.74c7.296,5.257,13.316,4.675,10.5,17.25  c0.5,0,1,0,1.5,0C364.763,464.765,359.162,451.003,342.875,459.74z"/>
<path fill="none" stroke="#000000" stroke-width="1.25" stroke-linecap="square" stroke-miterlimit="10" d="M342.875,459.74  c7.296,5.257,13.316,4.675,10.5,17.25c0.5,0,1,0,1.5,0c7.602-9.398,7.536-17.207-3.75-21"/>
<path fill-rule="evenodd" clip-rule="evenodd" fill="#EBCBA7" stroke="#000000" stroke-width="1.25" stroke-linecap="square" stroke-miterlimit="10" d="  M377.375,428.24c-27.378,12.688-73.5,29.583-73.5,64.5c0,15.56,51.822-10.229,61.875-14.25c10.083-4.033-2.174-9.367-9.75-6  c-10.787,4.794-12.487-2.347-9.375-12C352.346,442.744,386.836,447.327,377.375,428.24z"/>
<path fill-rule="evenodd" clip-rule="evenodd" d="M423.125,412.488C418.86,414.255,417.598,414.779,423.125,412.488L423.125,412.488  z"/>
<path fill-rule="evenodd" clip-rule="evenodd" d="M440.375,407.988C435.284,409.846,437.312,409.105,440.375,407.988  L440.375,407.988z"/>
<path fill="none" stroke="#000000" stroke-width="0.75" stroke-linecap="square" stroke-miterlimit="10" d="M415.627,415.488  c2.078-3.875,5.61-5.251,9.748-3.75"/>
<path fill="none" stroke="#000000" stroke-width="0.75" stroke-linecap="square" stroke-miterlimit="10" d="M444.125,407.238  c-4.207-1.796-8.014-0.778-10.5,3"/>
</svg>