<svg xmlns="http://www.w3.org/2000/svg" xmlns:xlink="http://www.w3.org/1999/xlink" version="1.1" id="Layer_1" x="0px" y="0px" enable-background="new 0 0 822.05 841.89" xml:space="preserve" viewBox="242.57 245.59 338 351.5">
<path fill-rule="evenodd" clip-rule="evenodd" fill="#ED1C24" stroke="#000000" stroke-width="2" stroke-linecap="square" stroke-miterlimit="10" d="  M355.322,326.089c-2.695,22.734-36.771,23.792-36.75,0C318.593,302.197,352.9,303.373,355.322,326.089z"/>
<path fill-rule="evenodd" clip-rule="evenodd" fill="#0DB14B" stroke="#000000" stroke-width="2" stroke-linecap="square" stroke-miterlimit="10" d="  M246.572,254.089c16.859,7.585,17.578,26.85,6,39.75c22.011,0.518,20.511,27.75,16.5,43.5c13.213-11.894,31.943-14.71,48.75-9.75  c-1.905-14.676,2.448-29.77,12-41.25c-22.91,0.203-36.057-18.175-36.75-39.75C281.053,259.761,261.948,263.392,246.572,254.089z"/>
<path fill-rule="evenodd" clip-rule="evenodd" fill="#0DB14B" d="M253.322,257.839c22.097,18.195,53.428,42.537,64.5,69.75  C296.322,304.339,274.822,281.089,253.322,257.839z"/>
<path fill="none" stroke="#000000" stroke-width="2" stroke-linecap="square" stroke-miterlimit="10" d="M253.322,257.839  c22.097,18.195,53.428,42.537,64.5,69.75"/>
<path fill-rule="evenodd" clip-rule="evenodd" fill="#0DB14B" stroke="#000000" stroke-width="2" stroke-linecap="square" stroke-miterlimit="10" d="  M440.826,275.839c-11.608,14.854-29.848,10.694-40.504-3c-4.767,21.914-31.716,13.594-45.75,6c8.379,15.627,8.494,35.314-1.5,50.25  c14.674,2.061,28.872,8.603,38.25,20.25c4.997-22.134,25.396-30.745,46.504-27C428.178,307.381,427.899,288.586,440.826,275.839z"/>
<path fill-rule="evenodd" clip-rule="evenodd" fill="#0DB14B" d="M435.576,281.089c-24.736,17.036-51.627,43.43-82.504,48  C380.574,313.089,408.075,297.089,435.576,281.089z"/>
<path fill="none" stroke="#000000" stroke-width="2" stroke-linecap="square" stroke-miterlimit="10" d="M435.576,281.089  c-24.736,17.036-51.627,43.43-82.504,48"/>
<path fill-rule="evenodd" clip-rule="evenodd" fill="#0DB14B" stroke="#000000" stroke-width="2" stroke-linecap="square" stroke-miterlimit="10" d="  M334.322,350.839c-4.534,18.235-22.841,21.84-38.25,14.25c5.509,21.469-23.354,25.151-39,25.5  c15.508,9.183,21.853,28.34,20.25,45.75c14.075-5.335,29.995-4.476,43.5,2.25c-5.889-22.333,9.931-39.209,30.75-44.25  C336.061,385.358,328.151,367.996,334.322,350.839z"/>
<path fill-rule="evenodd" clip-rule="evenodd" fill="#0DB14B" d="M332.072,357.589c-15.194,26.607-29.534,59.925-54.75,78.75  C295.572,410.089,313.822,383.839,332.072,357.589z"/>
<path fill="none" stroke="#000000" stroke-width="2" stroke-linecap="square" stroke-miterlimit="10" d="M332.072,357.589  c-15.194,26.607-29.534,59.925-54.75,78.75"/>
<path fill-rule="evenodd" clip-rule="evenodd" fill="#ED1C24" stroke="#000000" stroke-width="2" stroke-linecap="square" stroke-miterlimit="10" d="  M332.822,347.089c-1.782,23.274-36.094,23.491-36,0C296.917,323.494,330.581,324.08,332.822,347.089z"/>
<path fill-rule="evenodd" clip-rule="evenodd" fill="#ED1C24" stroke="#000000" stroke-width="2" stroke-linecap="square" stroke-miterlimit="10" d="  M369.572,350.839c-2.4,21.211-36,25.73-36,1.875C333.572,328.413,366.82,326.808,369.572,350.839z"/>
<path fill-rule="evenodd" clip-rule="evenodd" fill="#ED1C24" stroke="#000000" stroke-width="2" stroke-linecap="square" stroke-miterlimit="10" d="  M352.322,454.339c-2.561,22.463-31.925,24.125-36.375,1.875C311.202,432.487,348.692,430.684,352.322,454.339z"/>
<path fill-rule="evenodd" clip-rule="evenodd" fill="#0DB14B" stroke="#000000" stroke-width="2" stroke-linecap="square" stroke-miterlimit="10" d="  M243.572,382.339c17.198,8.025,17.073,27.01,6,40.5c22.306-1.371,18.805,28.448,15.75,43.5c13.232-12.988,32.306-15.258,49.5-9.75  c-2.206-14.818,2.999-29.644,11.25-42c-22.703-0.015-35.679-18.119-36-39.75C278.034,387.565,258.563,392.493,243.572,382.339z"/>
<path fill-rule="evenodd" clip-rule="evenodd" fill="#0DB14B" d="M249.572,386.089c22.567,18.88,53.771,42.525,65.25,70.5  C293.072,433.089,271.322,409.589,249.572,386.089z"/>
<path fill="none" stroke="#000000" stroke-width="2" stroke-linecap="square" stroke-miterlimit="10" d="M249.572,386.089  c22.567,18.88,53.771,42.525,65.25,70.5"/>
<path fill-rule="evenodd" clip-rule="evenodd" fill="#0DB14B" stroke="#000000" stroke-width="2" stroke-linecap="square" stroke-miterlimit="10" d="  M437.826,404.089c-11.088,14.938-30.475,11.17-40.504-3c-4.441,22.554-31.895,12.78-46.5,6.75  c10.078,15.219,8.062,34.964-0.75,50.25c15.133,0.472,28.474,8.943,38.25,20.25c4.235-22.009,25.766-32.155,46.504-27  C425.464,435.93,424.037,417.178,437.826,404.089z"/>
<path fill-rule="evenodd" clip-rule="evenodd" fill="#0DB14B" d="M432.576,409.339c-23.752,18.461-52.5,42.065-82.504,48.75  C377.574,441.839,405.075,425.589,432.576,409.339z"/>
<path fill="none" stroke="#000000" stroke-width="2" stroke-linecap="square" stroke-miterlimit="10" d="M432.576,409.339  c-23.752,18.461-52.5,42.065-82.504,48.75"/>
<path fill-rule="evenodd" clip-rule="evenodd" fill="#0DB14B" stroke="#000000" stroke-width="2" stroke-linecap="square" stroke-miterlimit="10" d="  M330.572,479.089c-2.964,18.87-22.456,22.586-37.5,14.25c5.384,22.048-22.982,25.328-39,25.5c14.991,9.94,21.693,28.099,20.25,45.75  c14.206-4.971,29.744-3.845,43.5,2.25c-6.267-21.67,9.974-39.553,30.75-43.5C333.222,513.488,325.435,496.879,330.572,479.089z"/>
<path fill-rule="evenodd" clip-rule="evenodd" fill="#0DB14B" d="M328.322,485.839c-13.276,26.852-29.387,60.375-54,78.75  C292.322,538.339,310.322,512.089,328.322,485.839z"/>
<path fill="none" stroke="#000000" stroke-width="2" stroke-linecap="square" stroke-miterlimit="10" d="M328.322,485.839  c-13.276,26.852-29.387,60.375-54,78.75"/>
<path fill-rule="evenodd" clip-rule="evenodd" fill="#ED1C24" stroke="#000000" stroke-width="2" stroke-linecap="square" stroke-miterlimit="10" d="  M329.822,475.339c-1.046,22.232-36,25.056-36,1.875C293.822,452.903,327.408,451.413,329.822,475.339z"/>
<path fill-rule="evenodd" clip-rule="evenodd" fill="#ED1C24" stroke="#000000" stroke-width="2" stroke-linecap="square" stroke-miterlimit="10" d="  M366.572,479.839c-2.608,22.48-36.841,23.462-36.75,0C329.914,456.215,364.196,456.897,366.572,479.839z"/>
<path fill-rule="evenodd" clip-rule="evenodd" fill="#ED1C24" stroke="#000000" stroke-width="2" stroke-linecap="square" stroke-miterlimit="10" d="  M484.326,362.089c-2.058,22.701-36.095,23.842-36,0C448.421,338.186,481.995,339.507,484.326,362.089z"/>
<path fill-rule="evenodd" clip-rule="evenodd" fill="#0DB14B" stroke="#000000" stroke-width="2" stroke-linecap="square" stroke-miterlimit="10" d="  M376.322,290.089c16.781,7.796,16.574,26.984,5.25,39.75c22.485-0.1,20.292,28.676,16.5,44.25  c12.617-13.325,32.584-15.044,49.504-10.5c-2.384-14.559,2.367-29.534,11.25-41.25c-22.369,0.157-36.64-18.241-36-39.75  C410.563,295.086,391.579,299.814,376.322,290.089z"/>
<path fill-rule="evenodd" clip-rule="evenodd" fill="#0DB14B" d="M382.322,293.839c23.816,19.688,50.333,42.195,65.254,69.75  C425.825,340.339,404.074,317.089,382.322,293.839z"/>
<path fill="none" stroke="#000000" stroke-width="2" stroke-linecap="square" stroke-miterlimit="10" d="M382.322,293.839  c23.816,19.688,50.333,42.195,65.254,69.75"/>
<path fill-rule="evenodd" clip-rule="evenodd" fill="#0DB14B" stroke="#000000" stroke-width="2" stroke-linecap="square" stroke-miterlimit="10" d="  M569.826,311.839c-11.411,14.634-29.687,10.955-39.75-3c-5.64,21.668-31.364,13.224-46.5,6.75c10.101,14.9,7.456,34.22-0.75,49.5  c14.692,2.091,28.274,9.25,38.25,20.25c4.6-21.748,25.723-31.935,46.5-26.25C557.447,344.487,557.411,325.086,569.826,311.839z"/>
<path fill-rule="evenodd" clip-rule="evenodd" fill="#0DB14B" d="M565.326,317.089c-24.709,17.071-51.961,42.601-82.5,48  C510.326,349.089,537.826,333.089,565.326,317.089z"/>
<path fill="none" stroke="#000000" stroke-width="2" stroke-linecap="square" stroke-miterlimit="10" d="M565.326,317.089  c-24.709,17.071-51.961,42.601-82.5,48"/>
<path fill-rule="evenodd" clip-rule="evenodd" fill="#0DB14B" stroke="#000000" stroke-width="2" stroke-linecap="square" stroke-miterlimit="10" d="  M463.326,386.839c-3.82,18.37-22.488,22.239-37.5,14.25c4.306,21.965-22.872,24.999-39.004,25.5  c15.114,10.53,20.675,27.899,20.252,45.75c13.678-5.389,29.651-4.645,42.752,2.25c-4.943-22.219,9.955-38.906,30.75-44.25  C466.04,421.316,457.009,403.572,463.326,386.839z"/>
<path fill-rule="evenodd" clip-rule="evenodd" fill="#0DB14B" d="M461.076,393.589c-15.506,27.019-29.304,58.571-54.002,78.75  C425.075,446.089,443.075,419.839,461.076,393.589z"/>
<path fill="none" stroke="#000000" stroke-width="2" stroke-linecap="square" stroke-miterlimit="10" d="M461.076,393.589  c-15.506,27.019-29.304,58.571-54.002,78.75"/>
<path fill-rule="evenodd" clip-rule="evenodd" fill="#ED1C24" stroke="#000000" stroke-width="2" stroke-linecap="square" stroke-miterlimit="10" d="  M462.576,383.089c-2.372,22.898-36.721,23.644-36.75,0C425.798,359.846,459.96,360.54,462.576,383.089z"/>
<path fill-rule="evenodd" clip-rule="evenodd" fill="#ED1C24" stroke="#000000" stroke-width="2" stroke-linecap="square" stroke-miterlimit="10" d="  M498.576,386.839c-1.158,21.073-31.161,25.607-35.25,3.75C458.688,365.791,496.07,361.367,498.576,386.839z"/>
<path fill-rule="evenodd" clip-rule="evenodd" fill="#ED1C24" stroke="#000000" stroke-width="2" stroke-linecap="square" stroke-miterlimit="10" d="  M494.076,483.589c-2.68,22.61-36.657,23.991-36.75,0C457.233,459.679,491.651,460.848,494.076,483.589z"/>
<path fill-rule="evenodd" clip-rule="evenodd" fill="#0DB14B" stroke="#000000" stroke-width="2" stroke-linecap="square" stroke-miterlimit="10" d="  M385.322,411.589c16.859,7.585,17.578,26.85,6,39.75c22.447,0.528,19.711,27.718,16.502,43.5  c13.215-11.893,31.944-14.71,48.752-9.75c-1.905-14.677,2.448-29.77,12-41.25c-22.807,0.058-36.651-17.784-36.75-39.75  C419.807,417.262,400.699,420.893,385.322,411.589z"/>
<path fill-rule="evenodd" clip-rule="evenodd" fill="#0DB14B" d="M391.322,415.339c22.969,17.261,53.623,42.683,65.254,69.75  C434.825,461.839,413.073,438.589,391.322,415.339z"/>
<path fill="none" stroke="#000000" stroke-width="2" stroke-linecap="square" stroke-miterlimit="10" d="M391.322,415.339  c22.969,17.261,53.623,42.683,65.254,69.75"/>
<path fill-rule="evenodd" clip-rule="evenodd" fill="#0DB14B" stroke="#000000" stroke-width="2" stroke-linecap="square" stroke-miterlimit="10" d="  M579.576,433.339c-11.608,14.853-29.846,10.695-40.5-3c-4.768,21.913-31.716,13.594-45.75,6c8.453,15.766,8.001,35.102-1.5,50.25  c14.674,2.061,28.872,8.603,38.25,20.25c4.997-22.133,25.393-30.746,46.5-27C566.337,465.185,566.896,445.984,579.576,433.339z"/>
<path fill-rule="evenodd" clip-rule="evenodd" fill="#0DB14B" d="M574.326,438.589c-24.736,17.035-51.622,43.43-82.5,48  C519.326,470.589,546.826,454.589,574.326,438.589z"/>
<path fill="none" stroke="#000000" stroke-width="2" stroke-linecap="square" stroke-miterlimit="10" d="M574.326,438.589  c-24.736,17.035-51.622,43.43-82.5,48"/>
<path fill-rule="evenodd" clip-rule="evenodd" fill="#0DB14B" stroke="#000000" stroke-width="2" stroke-linecap="square" stroke-miterlimit="10" d="  M473.076,508.339c-4.501,18.101-22.909,22.38-38.25,14.25c5.51,21.471-23.357,25.15-39.004,25.5  c15.418,9.006,21.72,28.603,20.254,45.75c14.075-5.335,29.995-4.476,43.5,2.25c-5.889-22.334,9.931-39.21,30.75-44.25  C474.814,542.858,466.905,525.496,473.076,508.339z"/>
<path fill-rule="evenodd" clip-rule="evenodd" fill="#0DB14B" d="M470.826,515.089c-15.194,26.607-29.533,59.925-54.75,78.75  C434.326,567.589,452.576,541.339,470.826,515.089z"/>
<path fill="none" stroke="#000000" stroke-width="2" stroke-linecap="square" stroke-miterlimit="10" d="M470.826,515.089  c-15.194,26.607-29.533,59.925-54.75,78.75"/>
<path fill-rule="evenodd" clip-rule="evenodd" fill="#ED1C24" stroke="#000000" stroke-width="2" stroke-linecap="square" stroke-miterlimit="10" d="  M471.576,504.589c-1.781,23.271-36.245,23.484-36,0C435.82,481.256,469.416,481.917,471.576,504.589z"/>
<path fill-rule="evenodd" clip-rule="evenodd" fill="#ED1C24" stroke="#000000" stroke-width="2" stroke-linecap="square" stroke-miterlimit="10" d="  M508.326,508.339c-1.972,20.847-31.71,25.675-36,3.75C467.528,487.568,505.401,482.803,508.326,508.339z"/>
</svg>