<svg xmlns="http://www.w3.org/2000/svg" xmlns:xlink="http://www.w3.org/1999/xlink" version="1.1" id="Layer_1" x="0px" y="0px" enable-background="new 0 0 822.05 841.89" xml:space="preserve" viewBox="236.23 250.68 344.75 342.5">
<path fill-rule="evenodd" clip-rule="evenodd" fill="#ED1C24" stroke="#000000" stroke-width="2" stroke-linecap="square" stroke-miterlimit="10" d="  M429.229,392.677c-2.093,40.758-64.5,41.458-64.5,0C364.729,351.221,427.137,351.921,429.229,392.677z"/>
<path fill-rule="evenodd" clip-rule="evenodd" fill="#0DB14B" stroke="#000000" stroke-width="2" stroke-linecap="square" stroke-miterlimit="10" d="  M237.229,265.177c31.867,13.548,27.771,46.809,9.75,70.5c40.37-4.199,34.048,53.178,28.5,77.25  c25.962-21.613,55.376-25.202,87.75-17.25c-5.017-25.479,4.91-53.267,20.25-73.5c-39.617,0.305-64.547-32.163-63.75-70.5  C298.217,273.992,264.502,282.531,237.229,265.177z"/>
<path fill-rule="evenodd" clip-rule="evenodd" fill="#0DB14B" d="M247.729,271.927c41.497,32.665,93.091,74.729,115.5,123.75  C324.729,354.427,286.229,313.177,247.729,271.927z"/>
<path fill="none" stroke="#000000" stroke-width="2" stroke-linecap="square" stroke-miterlimit="10" d="M247.729,271.927  c41.497,32.665,93.091,74.729,115.5,123.75"/>
<path fill-rule="evenodd" clip-rule="evenodd" fill="#0DB14B" stroke="#000000" stroke-width="2" stroke-linecap="square" stroke-miterlimit="10" d="  M579.979,303.427c-19.457,27.347-51.99,18.641-70.5-5.25c-5.188,40.621-58.983,21.228-81.75,11.25  c15.986,28.601,13.563,61.014-2.25,89.25c26.287,0.285,51.68,16.328,68.25,36.002c6.747-40.515,44.827-54.012,81.75-48.002  C558.316,361.001,558.211,326.437,579.979,303.427z"/>
<path fill-rule="evenodd" clip-rule="evenodd" fill="#0DB14B" d="M571.729,312.427c-43.591,32.015-91.805,75.504-146.25,86.25  C474.229,369.927,522.979,341.177,571.729,312.427z"/>
<path fill="none" stroke="#000000" stroke-width="2" stroke-linecap="square" stroke-miterlimit="10" d="M571.729,312.427  c-43.591,32.015-91.805,75.504-146.25,86.25"/>
<path fill-rule="evenodd" clip-rule="evenodd" fill="#0DB14B" stroke="#000000" stroke-width="2" stroke-linecap="square" stroke-miterlimit="10" d="  M391.729,436.179c-6.519,33.758-39.194,38.604-66.75,25.5c12.65,38.646-45.195,44.461-69.75,45c27.081,15.752,39.437,50.822,36,81  c24.164-9.196,53.567-7.334,76.5,4.5c-7.406-39.158,15.838-69.642,54.75-78C396.613,496.272,380.02,467.906,391.729,436.179z"/>
<path fill-rule="evenodd" clip-rule="evenodd" fill="#0DB14B" d="M387.229,448.179c-23.803,47.135-51.744,108.503-96,139.5  C323.229,541.179,355.229,494.679,387.229,448.179z"/>
<path fill="none" stroke="#000000" stroke-width="2" stroke-linecap="square" stroke-miterlimit="10" d="M387.229,448.179  c-23.803,47.135-51.744,108.503-96,139.5"/>
<path fill-rule="evenodd" clip-rule="evenodd" fill="#ED1C24" stroke="#000000" stroke-width="2" stroke-linecap="square" stroke-miterlimit="10" d="  M389.479,430.179c1.208,41.019-63.589,41.256-63.75,0C325.568,388.737,390.25,388.972,389.479,430.179z"/>
<path fill-rule="evenodd" clip-rule="evenodd" fill="#ED1C24" stroke="#000000" stroke-width="2" stroke-linecap="square" stroke-miterlimit="10" d="  M454.729,436.929c-2.786,41.027-64.966,42.11-64.5,0C390.69,395.275,451.663,396.356,454.729,436.929z"/>
</svg>