<svg xmlns="http://www.w3.org/2000/svg" xmlns:xlink="http://www.w3.org/1999/xlink" version="1.1" id="Layer_1" x="0px" y="0px" enable-background="new 0 0 822.05 841.89" xml:space="preserve" viewBox="331.64 341.74 159.26 156.39">
<path fill-rule="evenodd" clip-rule="evenodd" fill="#FFFFFF" stroke="#000000" stroke-width="1.25" stroke-linecap="square" stroke-miterlimit="10" d="  M406.176,344.833c-30.396,8.428,27.393,61.335,22.502,78c-4.525,15.419-51.224,21.671-63.004,40.5  c8.534-2.391,66.915-24.182,71.254-31.5C443.505,420.738,412.156,360.822,406.176,344.833z"/>
<path fill="none" stroke="#000000" stroke-width="1.25" stroke-linecap="square" stroke-miterlimit="10" d="M367.924,461.833  c21.203-12.441,46.053-28.355,70.504-32.25c-12.894-27.489-23.887-55.861-35.254-84c-2.25,1-4.5,2-6.75,3"/>
<path fill="none" stroke="#000000" stroke-width="1.25" stroke-linecap="square" stroke-miterlimit="10" d="M400.924,347.083  c10.381,24.368,28.157,53.015,33.379,79.125c0.211,1.055-60.451,29.96-67.879,36.375"/>
<path fill-rule="evenodd" clip-rule="evenodd" fill="#1D0E82" stroke="#000000" stroke-width="1.25" stroke-linecap="square" stroke-miterlimit="10" d="  M394.924,344.833c-12.49,4.479-57.738,19.347-62.25,32.25c-4.402,12.588,27.874,72.295,33,86.25  c11.945-18.846,54.458-22.044,61.504-36.75C432.983,414.465,402.284,359.123,394.924,344.833z"/>
<path fill="none" stroke="#000000" stroke-width="1.25" stroke-linecap="square" stroke-miterlimit="10" d="M366.424,462.583  c15.936-18.217,43.469-30.651,66.754-36c-11.192-26.649-22.594-53.162-34.504-79.5"/>
<path fill-rule="evenodd" clip-rule="evenodd" fill="#FFFFFF" stroke="#000000" stroke-width="1.25" stroke-linecap="square" stroke-miterlimit="10" d="  M352.924,383.083c10.5-5.5,21-11,31.5-16.5c20.097,26.774-1.278,27.621-21,40.5C359.988,399.229,355.441,391.266,352.924,383.083z"/>
<path fill-rule="evenodd" clip-rule="evenodd" fill="#FFFFFF" stroke="#000000" stroke-width="1.25" stroke-linecap="square" stroke-miterlimit="10" d="  M488.678,393.583c-25.885-8.806-14.255,53.871-27.75,63.75c-10.399,7.612-46.778-11.387-64.504-7.5  c18.115,8.572,41.596,9.318,61.129,18C466.955,472.011,484.438,406.374,488.678,393.583z"/>
<path fill="none" stroke="#000000" stroke-width="1.25" stroke-linecap="square" stroke-miterlimit="10" d="M397.924,450.583  c21.656,2.628,45.943,7.479,65.254,17.25c3.952-16.112,28.449-70.102,17.25-77.25"/>
<path fill="none" stroke="#000000" stroke-width="1.25" stroke-linecap="square" stroke-miterlimit="10" d="M484.178,392.083  c-2.89,10.112-12.846,68.188-22.5,72.75c-8.087,3.821-52.023-14.234-64.504-15"/>
<path fill-rule="evenodd" clip-rule="evenodd" fill="#F7F619" stroke="#000000" stroke-width="1.25" stroke-linecap="square" stroke-miterlimit="10" d="  M481.178,387.583c-10.224-4.15-49.492-17.905-58.5-13.5c-9.86,4.822-22.225,64.952-26.254,76.5c17.69-5.819,48.515,14.843,60.754,9  C469.928,453.496,476.781,402.697,481.178,387.583z"/>
<path fill-rule="evenodd" clip-rule="evenodd" fill="#FFFFFF" stroke="#000000" stroke-width="1.25" stroke-linecap="square" stroke-miterlimit="10" d="  M431.678,389.833c10,2.25,20,4.5,30,6.75c0.253,5.411-2.473,16.351-5.25,21c-10.04-2.903-20.355-4.904-30.75-6  C427.521,404.901,428.301,395.842,431.678,389.833z"/>
<path fill="none" stroke="#000000" stroke-width="1.25" stroke-linecap="square" stroke-miterlimit="10" d="M397.174,449.833  c21.334-1.542,44.77,3.855,63.754,13.5c7.444-23.927,15.243-47.795,21.75-72"/>
<path fill-rule="evenodd" clip-rule="evenodd" fill="#1D0D81" stroke="#000000" stroke-width="1.25" stroke-linecap="square" stroke-miterlimit="10" d="  M477.428,483.583c-31.01-33.964-41.625-58.429-89.254-47.25c7.25,9.75,14.501,19.5,21.752,29.25  c-21.326-27.721-25.496-31.228-59.627-28.125c-27.277,2.479,14.392,46.347,21.692,57.773  C378.392,505.25,462.233,478.636,477.428,483.583z"/>
<path fill-rule="evenodd" clip-rule="evenodd" fill="#FFFFFF" stroke="#000000" stroke-width="1.25" stroke-linecap="square" stroke-miterlimit="10" d="  M388.924,439.333c-36.147-4.065-53.271-4.827-30.375,29.25c14.029,20.881,12.862,25.116,36.597,19.723  c11.324-2.574,23.069-3.96,33.532-0.223C415.427,471.833,402.175,455.583,388.924,439.333z"/>
<path fill-rule="evenodd" clip-rule="evenodd" fill="#FFFFFF" stroke="#000000" stroke-width="1.25" stroke-linecap="square" stroke-miterlimit="10" d="  M429.428,434.833c-13.316,1.082-26.737,1.575-39.754,3.75c5.798,8.101,32.762,50.81,41.254,47.625  c13.109-4.916,30.483-9.78,43.5-4.875C459.428,465.833,444.428,450.333,429.428,434.833z"/>
<path fill-rule="evenodd" clip-rule="evenodd" fill="#FFFFFF" stroke="#000000" stroke-width="1.25" stroke-linecap="square" stroke-miterlimit="10" d="  M388.174,437.083c-23.261-0.819-56.628-8.392-36.809,20.438c10.69,15.55,15.057,34.574,34.531,30.34  c13.451-2.924,26.872-4.914,40.532-3.527C417.764,475.59,399.608,451.375,388.174,437.083z"/>
<path fill-rule="evenodd" clip-rule="evenodd" fill="#FFFFFF" stroke="#000000" stroke-width="1.25" stroke-linecap="square" stroke-miterlimit="10" d="  M427.928,433.333c-13.18,0.134-27.239,0.95-39.754,3.75c6.494,7.992,33.524,50.055,42.004,46.875  c12.645-4.742,30.866-9.565,43.5-4.875C458.428,463.833,443.178,448.583,427.928,433.333z"/>
<path fill-rule="evenodd" clip-rule="evenodd" stroke="#000000" stroke-width="1.25" stroke-linecap="square" stroke-miterlimit="10" d="  M357.424,444.583c-0.04-5.472,1.756-0.625,1.5,0.75c0-0.75,0-1.5,0-2.25c-2.771,0.175-1.73,1.401-3.75,2.25  C356.063,441.28,357.401,441.468,357.424,444.583z"/>
<path fill-rule="evenodd" clip-rule="evenodd" stroke="#000000" stroke-width="1.25" stroke-linecap="square" stroke-miterlimit="10" d="  M359.674,443.083c0.073,0.234,0.717,0.994,2.25-0.75c-0.672,1.843-2.455,4.813-2.25,4.5  C359.435,449.063,360.087,444.41,359.674,443.083z"/>
<path fill-rule="evenodd" clip-rule="evenodd" stroke="#000000" stroke-width="1.25" stroke-linecap="square" stroke-miterlimit="10" d="  M364.174,441.583c0.711,0.928,0.899,0.975,2.25,1.5c1.068-0.793-0.908,0.798-1.5,1.5  C362.656,443.852,365.459,443.259,364.174,441.583z"/>
<path fill-rule="evenodd" clip-rule="evenodd" stroke="#000000" stroke-width="1.25" stroke-linecap="square" stroke-miterlimit="10" d="  M367.924,441.583C367.675,443.088,367.196,445.99,367.924,441.583L367.924,441.583z M367.174,441.583  C367.009,445.333,367.1,443.278,367.174,441.583L367.174,441.583z"/>
<path fill-rule="evenodd" clip-rule="evenodd" stroke="#000000" stroke-width="1.25" stroke-linecap="square" stroke-miterlimit="10" d="  M370.924,441.583c0.986,2.769,1.732-2.78,1.5,1.5c0.323-0.677,0.823-0.927,1.5-0.75c-3.113,1.109-2.722,1.132-4.5,1.5  C368.024,441.17,371.306,442.656,370.924,441.583z"/>
<path fill-rule="evenodd" clip-rule="evenodd" stroke="#000000" stroke-width="1.25" stroke-linecap="square" stroke-miterlimit="10" d="  M373.174,443.083C376.359,441.224,373.932,442.64,373.174,443.083L373.174,443.083z M373.924,442.333  C374.924,441.333,374.924,441.333,373.924,442.333L373.924,442.333z"/>
<path fill-rule="evenodd" clip-rule="evenodd" stroke="#000000" stroke-width="1.25" stroke-linecap="square" stroke-miterlimit="10" d="  M376.924,443.833C378.433,440.627,378.457,440.578,376.924,443.833L376.924,443.833z M377.674,439.333  C378.561,440.976,378.02,439.974,377.674,439.333L377.674,439.333z"/>
<path fill-rule="evenodd" clip-rule="evenodd" stroke="#000000" stroke-width="1.25" stroke-linecap="square" stroke-miterlimit="10" d="  M379.924,440.833C377.625,445.074,378.792,442.921,379.924,440.833L379.924,440.833z"/>
<path fill-rule="evenodd" clip-rule="evenodd" stroke="#000000" stroke-width="1.25" stroke-linecap="square" stroke-miterlimit="10" d="  M361.174,449.833c-2.701,2.002-0.521-1.896-2.25,2.25c0.708,1.338,0.225-0.389,0,0.75  C357.866,447.294,359.762,450.878,361.174,449.833z"/>
<path fill-rule="evenodd" clip-rule="evenodd" stroke="#000000" stroke-width="1.25" stroke-linecap="square" stroke-miterlimit="10" d="  M362.674,449.833C362.327,451.312,361.68,454.069,362.674,449.833L362.674,449.833z M361.924,449.833  C361.759,453.583,361.85,451.528,361.924,449.833L361.924,449.833z"/>
<path fill-rule="evenodd" clip-rule="evenodd" stroke="#000000" stroke-width="1.25" stroke-linecap="square" stroke-miterlimit="10" d="  M365.674,451.333c0.645,0.442,0.523-0.451-2.25,0c0.203-0.465,1.006-1.703,0.75-2.25C365.48,451.695,363.72,449.993,365.674,451.333  z"/>
<path fill-rule="evenodd" clip-rule="evenodd" stroke="#000000" stroke-width="1.25" stroke-linecap="square" stroke-miterlimit="10" d="  M366.424,451.333C371.052,443.303,365.502,452.931,366.424,451.333L366.424,451.333z"/>
<path fill-rule="evenodd" clip-rule="evenodd" stroke="#000000" stroke-width="1.25" stroke-linecap="square" stroke-miterlimit="10" d="  M370.924,447.583C370.4,450.287,369.831,453.231,370.924,447.583L370.924,447.583z"/>
<path fill-rule="evenodd" clip-rule="evenodd" stroke="#000000" stroke-width="1.25" stroke-linecap="square" stroke-miterlimit="10" d="  M373.924,448.333C374.036,448.897,374.859,453.046,373.924,448.333L373.924,448.333z"/>
<path fill-rule="evenodd" clip-rule="evenodd" stroke="#000000" stroke-width="1.25" stroke-linecap="square" stroke-miterlimit="10" d="  M375.424,450.583C376.623,447.811,376.444,448.224,375.424,450.583L375.424,450.583z M375.424,450.583  C376.725,448.437,377.075,447.86,375.424,450.583L375.424,450.583z"/>
<path fill-rule="evenodd" clip-rule="evenodd" stroke="#000000" stroke-width="1.25" stroke-linecap="square" stroke-miterlimit="10" d="  M379.174,447.583c0.392,1.45,1.306,1.417,3,1.5c-4.128,1.198-2.256,1.159-5.25,0.75C378.4,446.945,379.169,450.512,379.174,447.583z  "/>
<path fill-rule="evenodd" clip-rule="evenodd" stroke="#000000" stroke-width="1.25" stroke-linecap="square" stroke-miterlimit="10" d="  M381.424,449.833C383.476,448.792,384.479,448.283,381.424,449.833L381.424,449.833z M382.174,449.083  C383.174,448.083,383.174,448.083,382.174,449.083L382.174,449.083z"/>
<path fill-rule="evenodd" clip-rule="evenodd" stroke="#000000" stroke-width="1.25" stroke-linecap="square" stroke-miterlimit="10" d="  M364.924,454.333c0.44,2.149-1.135,2.251,0,3c0.097-0.219,1.524-1.521,1.5-1.5c-0.25,0.75,0,1,0.75,0.75  c-1.002,0.894-1.282,0.56-2.25,2.25c0-0.75,0-1.5,0-2.25c-0.323,0.677-0.823,0.927-1.5,0.75c-0.568,1.59,0.392,3.027-0.75,4.5  C362.097,457.19,364.211,457.1,364.924,454.333z"/>
<path fill-rule="evenodd" clip-rule="evenodd" stroke="#000000" stroke-width="1.25" stroke-linecap="square" stroke-miterlimit="10" d="  M367.174,458.083C368.373,455.311,368.194,455.724,367.174,458.083L367.174,458.083z M367.174,458.083  C367.649,457.126,368.96,454.49,367.174,458.083L367.174,458.083z"/>
<path fill-rule="evenodd" clip-rule="evenodd" stroke="#000000" stroke-width="1.25" stroke-linecap="square" stroke-miterlimit="10" d="  M370.924,455.083c1.195,1.128,0.874,2.033,3,0.75c-1.831,0.827-1.937,1.787-3,2.25c-2.155-1.176,1.171-1.38,0-2.25  c-1.915,1.05-0.519,1.55-2.25,1.5C369.66,454.896,371.44,456.949,370.924,455.083z"/>
<path fill-rule="evenodd" clip-rule="evenodd" stroke="#000000" stroke-width="1.25" stroke-linecap="square" stroke-miterlimit="10" d="  M375.424,457.333c-0.005-0.086-0.792-0.669,0-3.75C376.708,456.544,375.244,454.024,375.424,457.333z"/>
<path fill-rule="evenodd" clip-rule="evenodd" stroke="#000000" stroke-width="1.25" stroke-linecap="square" stroke-miterlimit="10" d="  M378.424,454.333c-2.229,3.597,5.062-0.477,0,3c-3.305-2.523,0.915-0.494-2.25,0C377.188,448.657,376.553,457.351,378.424,454.333z"/>
<path fill-rule="evenodd" clip-rule="evenodd" stroke="#000000" stroke-width="1.25" stroke-linecap="square" stroke-miterlimit="10" d="  M379.174,456.583C380.663,455.646,383.295,453.991,379.174,456.583L379.174,456.583z M379.924,455.833  C380.358,455.164,381.855,452.857,379.924,455.833L379.924,455.833z"/>
<path fill-rule="evenodd" clip-rule="evenodd" stroke="#000000" stroke-width="1.25" stroke-linecap="square" stroke-miterlimit="10" d="  M385.924,452.833c-1.782,2.925,1.607,4.616-3,3.75c0.295-0.923,1.481-3.11,1.5-3.75  C383.376,457.375,384.344,455.426,385.924,452.833z"/>
<path fill-rule="evenodd" clip-rule="evenodd" stroke="#000000" stroke-width="1.25" stroke-linecap="square" stroke-miterlimit="10" d="  M388.924,453.583c-2.982,3.402,1.568-0.421-0.75,3c-1.604-2.296-0.278-0.224-1.5,0C387.641,448.31,386.792,456.014,388.924,453.583z  "/>
<text transform="matrix(0.9833 0.1822 -0.1822 0.9833 418.1484 365.8267)" font-family="'MyriadPro-Regular'" font-size="27">1+2=?</text>
</svg>