<svg xmlns="http://www.w3.org/2000/svg" xmlns:xlink="http://www.w3.org/1999/xlink" version="1.1" id="Layer_1" x="0px" y="0px" enable-background="new 0 0 822.05 841.89" xml:space="preserve" viewBox="275.59 243.48 271.98 360.32">
<path fill-rule="evenodd" clip-rule="evenodd" fill="#ECF8FE" stroke="#000000" stroke-width="2" stroke-linecap="square" stroke-miterlimit="10" d="  M339.078,349.664c4.585,13.052,6.773,28.219-1.875,39.75c-9.436,12.581-22.875,8.913-22.875,27c0,19.694,1.22,38.965,3.281,58.547  c3.233,30.717,7.485,67.599,27.469,92.578c15.432,19.289,56.355,18.776,79.502,19.875c26.255,1.247,67.775,1.67,87.75-18  c20.841-20.522,29.418-70.385,32.25-97.5c3.104-29.709,5.358-56.142-15.75-77.25c-11.924-11.924-16.173-29.082-9.75-45  C459.079,349.664,399.079,349.664,339.078,349.664z"/>
<path fill-rule="evenodd" clip-rule="evenodd" fill="#FFDB78" d="M318.078,405.164c36.925,48.814,179.175,36.058,223.502,3  c7.167,47.388,2.767,89.519-15.727,133.617c-18.622,44.405-54.518,47.591-100.523,45.633c-55.278-2.353-85.524-12.074-102.377-68.25  C316.593,497.963,302.16,417.536,318.078,405.164z"/>
<path fill="none" stroke="#000000" stroke-width="2" stroke-linecap="square" stroke-miterlimit="10" d="M318.078,405.164  c36.925,48.814,179.175,36.058,223.502,3c7.167,47.388,2.767,89.519-15.727,133.617c-18.622,44.405-54.518,47.591-100.523,45.633  c-55.278-2.353-85.524-12.074-102.377-68.25C316.593,497.963,302.16,417.536,318.078,405.164z"/>
<path fill-rule="evenodd" clip-rule="evenodd" fill="#BEE7FB" stroke="#000000" stroke-width="2" stroke-linecap="square" stroke-miterlimit="10" d="  M521.33,345.164c-17.489,16.337-183.165,30.987-184.502,0C335.581,316.255,504.44,326.274,521.33,345.164z"/>
<path fill-rule="evenodd" clip-rule="evenodd" fill="#AF8977" stroke="#000000" stroke-width="2" stroke-linecap="square" stroke-miterlimit="10" d="  M377.328,291.914c20.95,8.865,33.82-27.157,22.125-42.75C383.341,227.681,376.555,286.714,377.328,291.914z"/>
<path fill-rule="evenodd" clip-rule="evenodd" fill="#AF8977" stroke="#000000" stroke-width="2" stroke-linecap="square" stroke-miterlimit="10" d="  M312.828,529.664c21.75-80,43.5-160,65.25-240c21.975,3.977-14.319,94.29-19.25,112.424c-11.833,43.525-23.667,87.051-35.5,130.576  C319.828,531.664,316.328,530.664,312.828,529.664z"/>
<path fill-rule="evenodd" clip-rule="evenodd" fill="#AF8977" stroke="#000000" stroke-width="2" stroke-linecap="square" stroke-miterlimit="10" d="  M336.078,539.414c-7.022,3.053-43.45-5.057-39.75-15C300.203,514,332.785,531.975,336.078,539.414z"/>
<path fill-rule="evenodd" clip-rule="evenodd" fill="#AF8977" stroke="#000000" stroke-width="2" stroke-linecap="square" stroke-miterlimit="10" d="  M336.828,551.414c-8.056,3.286-53.513-10.188-49.5-18.75C291.951,522.801,333.046,542.781,336.828,551.414z"/>
<path fill-rule="evenodd" clip-rule="evenodd" fill="#AF8977" stroke="#000000" stroke-width="2" stroke-linecap="square" stroke-miterlimit="10" d="  M336.828,563.414c-9.3,4.051-61.925-11.195-58.5-21.75C281.646,531.438,332.771,554.268,336.828,563.414z"/>
<path fill-rule="evenodd" clip-rule="evenodd" fill="#AF8977" stroke="#000000" stroke-width="2" stroke-linecap="square" stroke-miterlimit="10" d="  M327.828,573.914c-8.413,4.402-54.326-7.083-51-18.75C279.972,544.136,324.001,565.356,327.828,573.914z"/>
<path fill-rule="evenodd" clip-rule="evenodd" fill="#AF8977" stroke="#000000" stroke-width="2" stroke-linecap="square" stroke-miterlimit="10" d="  M317.328,585.164c-7.21,3.996-44.055-4.019-40.5-15C280.669,558.296,314.791,577.25,317.328,585.164z"/>
<path fill-rule="evenodd" clip-rule="evenodd" fill="#AF8977" stroke="#000000" stroke-width="2" stroke-linecap="square" stroke-miterlimit="10" d="  M305.328,594.164C260.651,630.318,294.164,537.585,305.328,594.164L305.328,594.164z"/>
</svg>