<svg xmlns="http://www.w3.org/2000/svg" xmlns:xlink="http://www.w3.org/1999/xlink" version="1.1" id="Layer_1" x="0px" y="0px" enable-background="new 0 0 822.05 841.89" xml:space="preserve" viewBox="306.89 247.03 208.05 344.63">
<path fill="none" stroke="#000000" stroke-width="2" stroke-linecap="square" stroke-miterlimit="10" d="M477.25,305.64  c-35.326,0-70.653,0-105.979,0c-4.527,0-32.771,2.72-32.771-2.256c0-8.089-5.291-45.276,0-50.244c12.239-11.492,88.638,0,105.979,0  C488.324,253.14,477.25,262.445,477.25,305.64z"/>
<path fill="none" stroke="#000000" stroke-width="2" stroke-linecap="square" stroke-miterlimit="10" d="M474.25,539.64  c-38.327,0-76.654,0-114.981,0c-11.668,0-23.769,5.438-23.769-7.572c0-8.202-5.5-47.171,0-52.428c13.016-12.438,96.081,0,114.981,0  C488.438,479.64,474.25,504.891,474.25,539.64z"/>
<path fill="none" stroke="#000000" stroke-width="2" stroke-linecap="square" stroke-miterlimit="10" d="M439.75,363.39  c-19.797,0-39.594,0-59.391,0c-1.591,0-6.272-50.565-2.109-55.5c5.035-5.968,50.402,0,59.391,0  C442.099,307.89,439.75,355.888,439.75,363.39z"/>
<path fill="none" stroke="#000000" stroke-width="2" stroke-linecap="square" stroke-miterlimit="10" d="M511,426.39  c-49.63,0-99.259,0-148.889,0c-7.776,0-46.217,5.576-52.111,0c-2.809-2.657-2.809-59.592,0-62.25c5.894-5.576,44.335,0,52.111,0  c32.259,0,64.519,0,96.777,0c7.776,0,46.218-5.576,52.111,0C517.633,370.416,511,416.034,511,426.39z"/>
<path fill="none" stroke="#000000" stroke-width="2" stroke-linecap="square" stroke-miterlimit="10" d="M439.75,478.89  c-20.521,0-41.042,0-61.564,0c-1.936,0-6.164-46.499-2.186-51c5.59-6.325,51.975,0,61.563,0  C442.218,427.89,439.75,471.722,439.75,478.89z"/>
<path fill="none" stroke="#000000" stroke-width="2" stroke-linecap="square" stroke-miterlimit="10" d="M440.5,588.39  c-21.245,0-42.491,0-63.737,0c-2.099,0-6.269-44.938-2.263-48.75c7.35-6.996,52.665,0,63.736,0  C443.06,539.64,440.5,581.347,440.5,588.39z"/>
<text transform="matrix(1 0 0 1 395.5195 578.6616)" font-family="'Arial-Black'" font-size="42">1</text>
<text transform="matrix(1 0 0 1 360.2695 520.1616)" font-family="'Arial-Black'" font-size="42">2</text>
<text transform="matrix(1 0 0 1 418.793 517.9116)" font-family="'Arial-Black'" font-size="42">3</text>
<text transform="matrix(1 0 0 1 391.043 471.4116)" font-family="'Arial-Black'" font-size="42">4</text>
<text transform="matrix(1 0 0 1 331.0195 410.6382)" font-family="'Arial-Black'" font-size="42">5</text>
<text transform="matrix(1 0 0 1 393.293 410.6382)" font-family="'Arial-Black'" font-size="42">6</text>
<text transform="matrix(1 0 0 1 461.5195 410.6382)" font-family="'Arial-Black'" font-size="42">7</text>
<text transform="matrix(1 0 0 1 395.5195 349.9116)" font-family="'Arial-Black'" font-size="42">8</text>
<text transform="matrix(1 0 0 1 355.793 295.1616)" font-family="'Arial-Black'" font-size="42">9</text>
<text transform="matrix(1 0 0 1 415.043 293.6382)"><tspan x="0" y="0" font-family="'Arial-Black'" font-size="42" letter-spacing="-22">1</tspan><tspan x="6.006" y="0" font-family="'Arial-Black'" font-size="42">0</tspan></text>
<line fill="none" stroke="#000000" stroke-width="2" stroke-linecap="square" stroke-miterlimit="10" x1="406.75" y1="254.64" x2="406.75" y2="306.39"/>
<line fill="none" stroke="#000000" stroke-width="2" stroke-linecap="square" stroke-miterlimit="10" x1="378.25" y1="363.39" x2="378.25" y2="427.89"/>
<line fill="none" stroke="#000000" stroke-width="2" stroke-linecap="square" stroke-miterlimit="10" x1="407.5" y1="478.14" x2="407.5" y2="542.64"/>
<line fill="none" stroke="#000000" stroke-width="2" stroke-linecap="square" stroke-miterlimit="10" x1="438.25" y1="361.89" x2="438.25" y2="426.39"/>
</svg>