<svg xmlns="http://www.w3.org/2000/svg" xmlns:xlink="http://www.w3.org/1999/xlink" version="1.1" id="Layer_1" x="0px" y="0px" enable-background="new 0 0 822.05 841.89" xml:space="preserve" viewBox="227.91 249.16 367.77 346.07">
<path fill-rule="evenodd" clip-rule="evenodd" fill="#D4D5D7" stroke="#000000" stroke-width="2" stroke-linecap="square" stroke-miterlimit="10" d="  M433.25,250.158c8.153,83.549-79.167,134.156-147,77.25c-10.185,23.888-20.37,47.777-30.556,71.665  c-10.295,24.146-15.076,26.526,12.181,32.583c35.588,7.908,82.416-2.043,114.375-18.748  C427.04,389.495,497.562,290.709,433.25,250.158z"/>
<path fill-rule="evenodd" clip-rule="evenodd" fill="#6D6F71" stroke="#000000" stroke-width="2" stroke-linecap="square" stroke-miterlimit="10" d="  M289.25,382.908c-19.21,56.163-74.375,47.314-57-13.5C250.477,305.614,310.71,315.712,289.25,382.908z"/>
<path fill-rule="evenodd" clip-rule="evenodd" fill="#D4D5D7" stroke="#000000" stroke-width="2" stroke-linecap="square" stroke-miterlimit="10" d="  M488.75,336.408c12.478,84.456-80.528,132.477-146.25,78c-10.37,23.703-20.741,47.406-31.111,71.109  c-10.423,23.823-14.924,26.932,12.361,32.389c36.595,7.319,81.176-1.572,114-18.75C482.103,475.945,554.487,376.372,488.75,336.408z  "/>
<path fill-rule="evenodd" clip-rule="evenodd" fill="#6D6F71" stroke="#000000" stroke-width="2" stroke-linecap="square" stroke-miterlimit="10" d="  M345.5,469.156c-24.491,59.014-76.984,44.135-55.5-18.75C311.144,388.518,367.041,407.7,345.5,469.156z"/>
<path fill-rule="evenodd" clip-rule="evenodd" fill="#D4D5D7" stroke="#000000" stroke-width="2" stroke-linecap="square" stroke-miterlimit="10" d="  M569,409.908c8.159,83.604-79.118,134.195-147,77.248c-10.185,23.889-20.37,47.777-30.556,71.667  c-10.431,24.465-15.034,26.535,12.181,32.583c35.997,7.999,82.035-1.845,114.375-18.75C563.231,549.011,632.76,451.213,569,409.908z  "/>
<path fill-rule="evenodd" clip-rule="evenodd" fill="#6D6F71" stroke="#000000" stroke-width="2" stroke-linecap="square" stroke-miterlimit="10" d="  M425,542.656c-19.23,56.222-74.43,47.505-57-13.5C386.242,465.31,446.42,475.512,425,542.656z"/>
</svg>