<svg xmlns="http://www.w3.org/2000/svg" xmlns:xlink="http://www.w3.org/1999/xlink" version="1.1" id="Layer_1" x="0px" y="0px" enable-background="new 0 0 822.05 841.89" xml:space="preserve" viewBox="314.3 339.86 192.5 163.29">
<path fill-rule="evenodd" clip-rule="evenodd" fill="#EDCBA6" stroke="#000000" stroke-width="1.25" stroke-linecap="square" stroke-miterlimit="10" d="  M457.428,460.518c-10.264-3.603-20.822-21.123-29.683-20.922c-18.254,0.415-45.645,5.742-60.321,20.172  c-30.183,29.675-13.187,38.25,18.196,38.25c19.922,0,39.845,0,59.767,0C450.01,498.018,455.866,466.095,457.428,460.518z"/>
<path fill-rule="evenodd" clip-rule="evenodd" fill="#FFFFFF" stroke="#000000" stroke-width="1.25" stroke-linecap="square" stroke-miterlimit="10" d="  M479.928,458.268c-25.494-6.926-21.619-1.484-38.25,12.375c-10.806,9.005-26.586,11.688-39.754,6.75  c-20.436-7.663-18.903-28.493-41.625-23.25c-24.564,5.669-28.256,25.864-33.375,48.375c58.001,0,116.003,0,174.004,0  C495.999,486.822,491.408,470.296,479.928,458.268z"/>
<path fill-rule="evenodd" clip-rule="evenodd" fill="#EDCBA6" stroke="#000000" stroke-width="1.25" stroke-linecap="square" stroke-miterlimit="10" d="  M374.924,426.768C401.926,464.578,331.407,410.379,374.924,426.768L374.924,426.768z"/>
<path fill-rule="evenodd" clip-rule="evenodd" fill="#EDCBA6" stroke="#000000" stroke-width="1.25" stroke-linecap="square" stroke-miterlimit="10" d="  M449.928,394.518C443.821,440.015,431.513,351.601,449.928,394.518L449.928,394.518z"/>
<path fill-rule="evenodd" clip-rule="evenodd" fill="#EDCBA6" stroke="#000000" stroke-width="1.25" stroke-linecap="square" stroke-miterlimit="10" d="  M350.924,401.268c10.724,42.528,94.504,80.515,94.504,14.625c0-26.741-9.94-64.781-39.004-73.5  C370.579,331.64,343.011,368.263,350.924,401.268z"/>
<path fill="none" stroke="#000000" stroke-linecap="square" stroke-miterlimit="10" d="M408.674,405.018  c-4.676-1.379-7.898,0.368-9,5.25"/>
<path fill-rule="evenodd" clip-rule="evenodd" d="M435.678,420.768c-4.963-22.832-36.608,9.821-47.254,18.75  C404.265,436.386,424.407,432.813,435.678,420.768z"/>
<path fill="none" stroke="#000000" stroke-linecap="square" stroke-miterlimit="10" d="M380.924,405.768  c3.134-1.331,4.853-3.088,8.25-1.5c-6.257-0.002-6.865,3.241-11.25,6"/>
<path fill="none" stroke="#000000" stroke-linecap="square" stroke-miterlimit="10" d="M416.174,390.018  c-3.316,1.304-5.546,1.506-6.75,5.25c4.814-5.463,7.934-2.314,12.754-3"/>
<path fill="none" stroke="#000000" stroke-linecap="square" stroke-miterlimit="10" d="M372.674,397.518  c7.552-2.91,15.024-1.972,21,3"/>
<path fill="none" stroke="#000000" stroke-linecap="square" stroke-miterlimit="10" d="M402.674,393.768  c0.705-6.769,4.581-11.399,11.25-12.75"/>
<path fill-rule="evenodd" clip-rule="evenodd" fill="#F8130D" stroke="#000000" stroke-linecap="square" stroke-miterlimit="10" d="  M404.924,432.768c11.754,3.161,22.441,0.143,18.754-14.25C417.427,422.336,409.674,427.019,404.924,432.768z"/>
<path fill-rule="evenodd" clip-rule="evenodd" fill="#FFFFFF" d="M457.428,415.518l48.75,2.25L457.428,415.518z"/>
<line fill="none" stroke="#000000" stroke-width="1.25" stroke-linecap="square" stroke-miterlimit="10" x1="457.428" y1="415.518" x2="506.178" y2="417.768"/>
<path fill-rule="evenodd" clip-rule="evenodd" fill="#FFFFFF" d="M452.928,429.768l36.75,11.25L452.928,429.768z"/>
<line fill="none" stroke="#000000" stroke-width="1.25" stroke-linecap="square" stroke-miterlimit="10" x1="452.928" y1="429.768" x2="489.678" y2="441.018"/>
<path fill-rule="evenodd" clip-rule="evenodd" fill="#FFFFFF" d="M350.924,437.268l-32.25,13.5L350.924,437.268z"/>
<line fill="none" stroke="#000000" stroke-width="1.25" stroke-linecap="square" stroke-miterlimit="10" x1="350.924" y1="437.268" x2="318.674" y2="450.768"/>
<path fill-rule="evenodd" clip-rule="evenodd" fill="#FFFFFF" d="M350.924,426.018l-36-3L350.924,426.018z"/>
<line fill="none" stroke="#000000" stroke-width="1.25" stroke-linecap="square" stroke-miterlimit="10" x1="350.924" y1="426.018" x2="314.924" y2="423.018"/>
</svg>