<svg xmlns="http://www.w3.org/2000/svg" xmlns:xlink="http://www.w3.org/1999/xlink" version="1.1" id="Layer_1" x="0px" y="0px" enable-background="new 0 0 822.05 841.89" xml:space="preserve" viewBox="258.66 251.99 303.99 339">
<path fill-rule="evenodd" clip-rule="evenodd" fill="#BCBEC0" stroke="#000000" stroke-width="2" stroke-linecap="square" stroke-miterlimit="10" d="  M285.908,459.398c-26.84-11.826-22.974,17.434-26.25,36c24.25,4.25,48.5,8.5,72.75,12.75c-6.985-77.43,23.763-262.7,145.129-196.5  c33.312,18.17,45.902,56.381,32.625,92.25c-15.732,42.501-64.567,116.386-102.754,141c13.108,13.98,26.216,27.962,39.324,41.942  c11.022,11.756,25.729-12.488,35.68-21.692c-7.75-7.5-15.5-15-23.25-22.5c66.083-65.321,170.819-203.715,39.75-269.25  C355.469,201.676,288.802,332.301,285.908,459.398z"/>
<path fill-rule="evenodd" clip-rule="evenodd" fill="#FFFFFF" stroke="#000000" stroke-width="2" stroke-linecap="square" stroke-miterlimit="10" d="  M300.908,481.148C290.295,487.233,288.823,476.605,300.908,481.148L300.908,481.148z"/>
<path fill-rule="evenodd" clip-rule="evenodd" fill="#FFFFFF" stroke="#000000" stroke-width="2" stroke-linecap="square" stroke-miterlimit="10" d="  M318.908,406.148C305.413,415.409,305.413,396.887,318.908,406.148L318.908,406.148z"/>
<path fill-rule="evenodd" clip-rule="evenodd" fill="#FFFFFF" stroke="#000000" stroke-width="2" stroke-linecap="square" stroke-miterlimit="10" d="  M445.662,553.898C431.734,562.588,432.035,544.81,445.662,553.898L445.662,553.898z"/>
<path fill-rule="evenodd" clip-rule="evenodd" fill="#FFFFFF" stroke="#000000" stroke-width="2" stroke-linecap="square" stroke-miterlimit="10" d="  M501.912,474.398C488.113,483.756,487.582,466.059,501.912,474.398L501.912,474.398z"/>
<path fill-rule="evenodd" clip-rule="evenodd" fill="#FFFFFF" stroke="#000000" stroke-width="2" stroke-linecap="square" stroke-miterlimit="10" d="  M542.412,371.648C529.029,380.882,528.805,362.798,542.412,371.648L542.412,371.648z"/>
<path fill-rule="evenodd" clip-rule="evenodd" fill="#FFFFFF" stroke="#000000" stroke-width="2" stroke-linecap="square" stroke-miterlimit="10" d="  M481.662,286.148C468.243,294.537,468.243,277.759,481.662,286.148L481.662,286.148z"/>
<path fill-rule="evenodd" clip-rule="evenodd" fill="#FFFFFF" stroke="#000000" stroke-width="2" stroke-linecap="square" stroke-miterlimit="10" d="  M373.658,296.648C360.001,305.81,360.001,287.486,373.658,296.648L373.658,296.648z"/>
</svg>