<svg xmlns="http://www.w3.org/2000/svg" xmlns:xlink="http://www.w3.org/1999/xlink" version="1.1" id="Layer_1" x="0px" y="0px" enable-background="new 0 0 822.05 841.89" xml:space="preserve" viewBox="311.02 336.98 201.14 170">
<path fill-rule="evenodd" clip-rule="evenodd" fill="#724211" stroke="#000000" stroke-width="1.25" stroke-linecap="square" stroke-miterlimit="10" d="  M446.875,461.351c4.329,13.011,8.291,26.71,15.75,38.25C443.915,501.457,442.825,477.28,446.875,461.351z"/>
<path fill-rule="evenodd" clip-rule="evenodd" fill="#5E1F0A" stroke="#000000" stroke-width="1.25" stroke-linecap="square" stroke-miterlimit="10" d="  M347.125,390.101c-53.487-17.137-30.864,47.66-30,72c1.75-3,3.5-6,5.25-9c-0.164,4.607-0.282,8.949-0.75,13.5  C334.254,439.25,303.731,397.226,347.125,390.101z"/>
<path fill-rule="evenodd" clip-rule="evenodd" fill="#724211" stroke="#000000" stroke-width="1.25" stroke-linecap="square" stroke-miterlimit="10" d="  M341.125,420.101c3.005,17.666-11.325,29.28-13.5,42.75c-1.949,12.067-1.205,38.964,8.25,43.5  c3.055-8.292,3.628-17.601,2.625-26.625c-2.02-18.178,1.781-11.986,5.625-24.375C348.754,440.432,363.218,433.947,341.125,420.101z"/>
<path fill-rule="evenodd" clip-rule="evenodd" fill="#724211" stroke="#000000" stroke-width="1.25" stroke-linecap="square" stroke-miterlimit="10" d="  M377.125,385.601c-55.783-13.542-39.104,26.636-29.25,61.125c6.011,21.037-7.985,63.69,27,58.875c-35.071-19.922-10.707-54.097-3-81  c17.604,12.65,42.727,19.245,60.75,4.5c3.103,11.403,11.25,27.207,11.25,39.375c0,11.555-7.905,21.543-8.25,34.125  c20.351-5.766,12.642-57.748,19.875-74.625c4.708-10.985,6.603-38.189,17.625-43.875c6.691-3.451,21.654,10.393,26.25,9.75  c30.391-4.251-3.705-45.759-20.625-42.375c-14.516,2.903-35.036,22.742-43.125,34.875  C429.833,395.039,387.679,388.383,377.125,385.601z"/>
<path fill="none" stroke="#000000" stroke-width="1.25" stroke-linecap="square" stroke-miterlimit="10" d="M371.875,411.851  c0.64,4.281,0.635,8.46,0,12.75"/>
<path fill="none" stroke="#000000" stroke-width="1.25" stroke-linecap="square" stroke-miterlimit="10" d="M447.625,420.851  c1.049,5.957,1.056,12.09,0,18"/>
<path fill-rule="evenodd" clip-rule="evenodd" fill="#FB0F0C" stroke="#000000" stroke-width="1.25" stroke-linecap="square" stroke-miterlimit="10" d="  M383.875,387.851c4.889,23.596,22.415,35.028,45.375,27.375c14.84-4.947,11.647-18.331,6-29.625  C433.896,382.893,392.643,388.762,383.875,387.851z"/>
<path fill-rule="evenodd" clip-rule="evenodd" fill="#FB0F0C" stroke="#000000" stroke-width="1.25" stroke-linecap="square" stroke-miterlimit="10" d="  M508.375,376.601c-3.897,4.995-9.099,9.002-12,14.25c-1.25-0.25-2.5-0.5-3.75-0.75C496.236,380.159,501.793,377.073,508.375,376.601  z"/>
<path fill-rule="evenodd" clip-rule="evenodd" fill="#FB0F0C" stroke="#000000" stroke-width="1.25" stroke-linecap="square" stroke-miterlimit="10" d="  M494.125,354.851c-3.643,5.229-8.635,3.985-6.75,10.5C493.108,362.478,492.806,356.744,494.125,354.851z"/>
<path fill-rule="evenodd" clip-rule="evenodd" fill="#FB0F0C" stroke="#000000" stroke-width="1.25" stroke-linecap="square" stroke-miterlimit="10" d="  M480.625,351.101c7.104,12.551,12.917,25.771,16.5,39.75C489.142,382.798,478.596,358.34,480.625,351.101z"/>
<path fill-rule="evenodd" clip-rule="evenodd" fill="#FB0F0C" stroke="#000000" stroke-width="1.25" stroke-linecap="square" stroke-miterlimit="10" d="  M485.875,361.601c-2.301,8.151-2.036,17.816-3,26.25C487.03,382.784,488.476,370.765,485.875,361.601z"/>
<path fill-rule="evenodd" clip-rule="evenodd" fill="#5E1F0A" stroke="#000000" stroke-width="1.25" stroke-linecap="square" stroke-miterlimit="10" d="  M431.875,375.851c1.003,5.289,2.585,9.723,6.75,13.5c13.558-14.621,33.182-38.716,55.5-32.25  C486.229,323.499,441.452,364.248,431.875,375.851z"/>
<path fill-rule="evenodd" clip-rule="evenodd" fill="#5E1F0A" stroke="#000000" stroke-width="1.25" stroke-linecap="square" stroke-miterlimit="10" d="  M473.875,337.601c-4.007,9.797-8.808,15.495,0.75,21C474.382,351.793,475.235,344.253,473.875,337.601z"/>
<path fill-rule="evenodd" clip-rule="evenodd" stroke="#000000" stroke-width="1.25" stroke-linecap="square" stroke-miterlimit="10" d="  M491.125,365.351C494.242,367.511,494.396,367.618,491.125,365.351L491.125,365.351z"/>
</svg>