<svg xmlns="http://www.w3.org/2000/svg" xmlns:xlink="http://www.w3.org/1999/xlink" version="1.1" id="Layer_1" x="0px" y="0px" enable-background="new 0 0 822.05 841.89" xml:space="preserve" viewBox="200.41 273.69 421.1 295.71">
<path fill-rule="evenodd" clip-rule="evenodd" fill="#BCBEC0" stroke="#000000" stroke-width="2" stroke-linecap="square" stroke-miterlimit="10" d="  M223.913,452.15c-22.895-10.218-19.562,14.591-22.5,30.75c20.75,3.75,41.5,7.5,62.25,11.25  c-7.539-59.776,18.227-221.514,117-172.127c87.775,43.888,0.148,165.182-52.5,203.627c10.758,11.391,21.516,22.781,32.273,34.172  c11.002,11.649,21.383-7.719,31.477-16.922c-6.75-6.5-13.5-13-20.25-19.5c64.252-58.555,144.019-181.016,26.625-234.377  C276.042,233.457,228.347,350.468,223.913,452.15z"/>
<path fill-rule="evenodd" clip-rule="evenodd" fill="#FFFFFF" stroke="#000000" stroke-width="2" stroke-linecap="square" stroke-miterlimit="10" d="  M236.663,470.9C227.792,470.9,227.792,470.9,236.663,470.9L236.663,470.9z"/>
<path fill-rule="evenodd" clip-rule="evenodd" fill="#FFFFFF" stroke="#000000" stroke-width="2" stroke-linecap="square" stroke-miterlimit="10" d="  M252.413,406.398C240.495,409.924,240.464,403.14,252.413,406.398L252.413,406.398z"/>
<path fill-rule="evenodd" clip-rule="evenodd" fill="#FFFFFF" stroke="#000000" stroke-width="2" stroke-linecap="square" stroke-miterlimit="10" d="  M360.413,533.15C349.174,536.842,349.174,529.458,360.413,533.15L360.413,533.15z"/>
<path fill-rule="evenodd" clip-rule="evenodd" fill="#FFFFFF" stroke="#000000" stroke-width="2" stroke-linecap="square" stroke-miterlimit="10" d="  M408.413,465.65C397.099,468.376,397.28,461.905,408.413,465.65L408.413,465.65z"/>
<path fill-rule="evenodd" clip-rule="evenodd" fill="#FFFFFF" stroke="#000000" stroke-width="2" stroke-linecap="square" stroke-miterlimit="10" d="  M443.663,377.148C431.834,380.659,431.834,373.637,443.663,377.148L443.663,377.148z"/>
<path fill-rule="evenodd" clip-rule="evenodd" fill="#FFFFFF" stroke="#000000" stroke-width="2" stroke-linecap="square" stroke-miterlimit="10" d="  M391.913,303.648C379.995,307.174,379.964,300.39,391.913,303.648L391.913,303.648z"/>
<path fill-rule="evenodd" clip-rule="evenodd" fill="#FFFFFF" stroke="#000000" stroke-width="2" stroke-linecap="square" stroke-miterlimit="10" d="  M298.913,312.648C287.777,316.805,287.428,309.679,298.913,312.648L298.913,312.648z"/>
<path fill-rule="evenodd" clip-rule="evenodd" fill="#BCBEC0" stroke="#000000" stroke-width="2" stroke-linecap="square" stroke-miterlimit="10" d="  M448.163,532.4c-15.996,10.672-3.766,35.607,13.5,36c8.676,0.197,35.949-39.103,42.75-46.5  c-57.422-27.916-172.898-130.737-82.125-191.252c82.75-55.167,139.267,93.077,143.625,153.752  c15.398-2.953,30.797-5.906,46.195-8.859c15.816-3.033,4.903-22.638,2.555-36.141c-9,2.25-18,4.5-27,6.75  c-14.548-87.097-75.186-216.975-183.375-148.127C293.633,368.439,362.063,477.75,448.163,532.4z"/>
<path fill-rule="evenodd" clip-rule="evenodd" fill="#FFFFFF" stroke="#000000" stroke-width="2" stroke-linecap="square" stroke-miterlimit="10" d="  M470.663,532.4C465.979,539.242,465.622,539.764,470.663,532.4L470.663,532.4z"/>
<path fill-rule="evenodd" clip-rule="evenodd" fill="#FFFFFF" stroke="#000000" stroke-width="2" stroke-linecap="square" stroke-miterlimit="10" d="  M424.913,484.4C421.456,495.677,416.091,492.174,424.913,484.4L424.913,484.4z"/>
<path fill-rule="evenodd" clip-rule="evenodd" fill="#FFFFFF" stroke="#000000" stroke-width="2" stroke-linecap="square" stroke-miterlimit="10" d="  M589.913,461.15C586.257,472.085,580.631,468.797,589.913,461.15L589.913,461.15z"/>
<path fill-rule="evenodd" clip-rule="evenodd" fill="#FFFFFF" stroke="#000000" stroke-width="2" stroke-linecap="square" stroke-miterlimit="10" d="  M558.413,383.898C555.029,396.611,549.793,391.907,558.413,383.898L558.413,383.898z"/>
<path fill-rule="evenodd" clip-rule="evenodd" fill="#FFFFFF" stroke="#000000" stroke-width="2" stroke-linecap="square" stroke-miterlimit="10" d="  M502.913,307.398C499.672,318.627,494.182,315.133,502.913,307.398L502.913,307.398z"/>
<path fill-rule="evenodd" clip-rule="evenodd" fill="#FFFFFF" stroke="#000000" stroke-width="2" stroke-linecap="square" stroke-miterlimit="10" d="  M413.663,311.148C410,323.37,403.72,320.17,413.663,311.148L413.663,311.148z"/>
<path fill-rule="evenodd" clip-rule="evenodd" fill="#FFFFFF" stroke="#000000" stroke-width="2" stroke-linecap="square" stroke-miterlimit="10" d="  M370.913,394.398C367.61,405.712,362.177,402.346,370.913,394.398L370.913,394.398z"/>
</svg>