<svg xmlns="http://www.w3.org/2000/svg" xmlns:xlink="http://www.w3.org/1999/xlink" version="1.1" id="Layer_1" x="0px" y="0px" enable-background="new 0 0 822.05 841.89" xml:space="preserve" viewBox="207.38 250.05 408.12 343.54">
<path fill-rule="evenodd" clip-rule="evenodd" fill="#BCBEC0" stroke="#000000" stroke-width="2" stroke-linecap="square" stroke-miterlimit="10" d="  M595.75,420.39c-26.099-60.546-82.771-125.33-155.25-113.25c-78.483,13.081-119.551,103.881-81.375,171.75  c31.209,55.483,112.619,76.516,160.875,30.75c58.451-55.435,29.84-128.496-14.25-180.75c12.211,9.34,24.679,18.873,34.5,30.75  c-0.75-1-1.5-2-2.25-3C548.886,372.243,577.096,429.466,595.75,420.39z"/>
<path fill="none" stroke="#000000" stroke-width="2" stroke-linecap="square" stroke-miterlimit="10" d="M596.5,424.89  c-15.511,7.608-65.251-83.911-89.25-96.75c-35.036-18.745-70.559-14.587-102,5.625c-62.36,40.088-61.142,143.034,7.5,175.125  c90.085,42.116,165.49-62.048,106.125-138.375c-53.293-68.52-162.108-7.658-140.625,73.875c19.121,72.569,136.248,79.202,143.25-3  c8.316-97.629-135.664-115.494-132.75-14.25c2.483,86.28,146.087,67.167,109.5-10.5c-9.188-19.503-23.557-23.99-10.875-2.25  c6.473,11.096,9.905,26.257,4.125,38.25c-12.518,25.973-53.455,29.795-72.75,10.5c-31.392-31.392-18.669-84.741,27-93.75  c38.33-7.561,74.962,38.273,60,74.25"/>
<path fill-rule="evenodd" clip-rule="evenodd" fill="#FFFFFF" d="M506.5,433.14c-4.102-13.491-9.055-27.202-18-38.25  c-20.189,12.795,26.437,52.407-15.75,73.5c-33.705,16.853-61.695-7.412-68.625-39.75C388.739,356.84,506.473,353.523,506.5,433.14z"/>
<path fill-rule="evenodd" clip-rule="evenodd" fill="#6D6F71" stroke="#000000" stroke-width="2" stroke-linecap="square" stroke-miterlimit="10" d="  M598,457.14c5.458-0.764,11.43-5.195,16.5-7.5C596.802,413.383,579.337,414.324,598,457.14z"/>
<path fill-rule="evenodd" clip-rule="evenodd" fill="#BCBEC0" stroke="#000000" stroke-width="2" stroke-linecap="square" stroke-miterlimit="10" d="  M471.25,555.39c11.783-66.223-4.673-148.033-70.875-178.125c-72.597-32.999-156.29,25.848-160.5,101.625  c-3.421,61.572,51.57,123.093,115.125,112.5c81.446-13.574,99.562-90.038,89.25-160.5c5.69,14.344,9.903,29.09,12.75,44.25  c-0.25-1.25-0.5-2.5-0.75-3.75C457.27,489.054,450.813,555.936,471.25,555.39z"/>
<path fill="none" stroke="#000000" stroke-width="2" stroke-linecap="square" stroke-miterlimit="10" d="M469.75,559.89  c-16.035-1.118-11.603-108.338-26.25-132.75c-19.814-33.023-55.856-50.016-93-45.75c-73.293,8.417-122.697,91.934-78.375,155.25  c57.879,82.685,177.644,24.729,160.125-71.625c-15.743-86.586-143.263-77.685-159.75,4.125  c-10.297,51.095,41.977,107.451,94.5,89.25c52.165-18.077,69.991-116.42,10.875-136.125c-55.813-18.604-126.199,46.886-79.875,99  c16.713,18.803,47.119,29.9,70.5,16.875c15.725-8.761,39.818-59.838,14.25-60c14.741,88.164-127.195,50.168-75.75-27  c45.417-68.125,141.779,29.819,75.75,76.5"/>
<path fill-rule="evenodd" clip-rule="evenodd" fill="#FFFFFF" d="M389.5,519.39c2.316-13.898,6.233-27.936,4.5-42  c-24.887,0.112-4.481,60.58-52.125,53.25c-34.837-5.359-52.139-37.594-37.125-70.125C336.645,391.409,425.785,452.763,389.5,519.39z  "/>
<path fill-rule="evenodd" clip-rule="evenodd" fill="#6D6F71" stroke="#000000" stroke-width="2" stroke-linecap="square" stroke-miterlimit="10" d="  M454,588.39C485.919,602.628,465.715,506.385,454,588.39L454,588.39z"/>
<path fill-rule="evenodd" clip-rule="evenodd" fill="#BCBEC0" stroke="#000000" stroke-width="2" stroke-linecap="square" stroke-miterlimit="10" d="  M452.5,325.89c-43.427-49.672-109.973-94.372-177-66c-72.467,30.675-88.278,128.633-37.5,184.5  c42.387,46.635,130.448,50.087,165-7.5c42.256-70.426-1.579-134.364-62.25-172.5c14.632,4.769,28.624,11.184,42,18.75  c-1.25-0.75-2.5-1.5-3.75-2.25C393.76,292.487,438.174,338.975,452.5,325.89z"/>
<path fill="none" stroke="#000000" stroke-width="2" stroke-linecap="square" stroke-miterlimit="10" d="M454.75,329.64  c-11.482,11.792-86.594-61.368-113.25-66.75c-36.944-7.459-73.419,4.77-96,34.125c-44.454,57.791-20.277,154.343,57,166.125  c99.625,15.19,143.2-113.278,59.25-165.75c-73.299-45.814-156.323,47.432-107.625,117c30.227,43.182,104.648,45.704,129.75-4.5  c26.205-52.409-34.551-127.43-90.375-103.5c-57.165,24.504-49.73,118.58,14.25,126.75c26.279,3.355,58.76-14.342,64.5-42  c3.697-17.815-18.815-67.661-36-50.25c72.828,56.307-46.539,123.239-70.5,39.375c-21.766-76.18,111.763-89.412,108-6.375"/>
<path fill-rule="evenodd" clip-rule="evenodd" fill="#FFFFFF" d="M371.5,363.39c-4.688-6.319-40.619-46.406-32.25-18.75  c4.644,15.348,25.689,19.039,23.25,39.75c-4.291,36.435-54.477,44.542-78,23.25C219.104,348.447,337.951,270.433,371.5,363.39z"/>
<path fill-rule="evenodd" clip-rule="evenodd" fill="#6D6F71" stroke="#000000" stroke-width="2" stroke-linecap="square" stroke-miterlimit="10" d="  M466,360.39c4.746-2.334,8.854-8.333,12.75-12C451.949,317.645,435.618,325.667,466,360.39z"/>
</svg>