<svg xmlns="http://www.w3.org/2000/svg" xmlns:xlink="http://www.w3.org/1999/xlink" version="1.1" id="Layer_1" x="0px" y="0px" enable-background="new 0 0 822.05 841.89" xml:space="preserve" viewBox="235.57 254.24 352.56 334.55">
<path fill-rule="evenodd" clip-rule="evenodd" fill="#BCBEC0" stroke="#000000" stroke-width="2" stroke-linecap="square" stroke-miterlimit="10" d="  M581.25,532.89c16.705-85.487-0.294-195.806-75.75-248.625c-74.271-51.99-183.896-31.675-237.375,41.25  c-53.942,73.558-36.485,178.956,35.25,234.75c72.324,56.252,186.515,21.369,223.569-60.152  c23.557-51.824,21.968-97.9,13.806-153.223c7.921,20.578,18.009,43.723,18.75,66c0-2,0-4,0-6  c1.186,23.126,2.562,46.247,3.389,69.389C563.574,495.472,554.024,534.456,581.25,532.89z"/>
<path fill="none" stroke="#000000" stroke-width="2" stroke-linecap="square" stroke-miterlimit="10" d="M578.25,539.64  c-25.959,0.34-14.25-38.627-14.25-56.448c0-25.874-0.379-51.437-4.5-77.052c-8.252-51.289-29.035-84.534-72-114.75  c-71.291-50.137-171.824-1.909-211.875,66.75c-45.631,78.225,5.577,192.064,96.375,207.75  c89.745,15.504,162.841-72.02,152.25-156.75c-11.177-89.417-107.07-131.508-183.75-85.5c-67.531,40.519-79.664,153.072-7.875,197.25  c74.562,45.885,154.275,1.65,163.875-84.75c9.483-85.347-73.859-135.685-146.25-92.25c-60.483,36.29-64.549,129.396,2.25,162  c28.081,13.706,68.698,13.401,90.75-10.5c13.362-14.483,37.229-86.349,6-78c18.742,125.695-169.669,85.13-120-26.625  c21.013-47.279,76.136-56.744,118.875-33c43.475,24.153,40.094,106.939,1.125,133.875"/>
<path fill-rule="evenodd" clip-rule="evenodd" fill="#FFFFFF" d="M459,478.89c2.292-12.643,11.287-34.575,7.5-47.25  c-1.033-3.459,2.628-9.45,0-12.75c-2.37-2.977-18-2.09-18,3c0,25.162-1.714,47.464-20.25,66c-32.193,32.193-92.794-8.091-102-42.75  c-11.924-44.893,23.477-103.194,73.125-99.375C474.335,351.531,491.789,421.065,459,478.89z"/>
<path fill-rule="evenodd" clip-rule="evenodd" fill="#6D6F71" stroke="#000000" stroke-width="2" stroke-linecap="square" stroke-miterlimit="10" d="  M555,582.39c7.956,2.502,17.937,2.05,26.25,3c1.363-11.343,8.933-44.646-3-52.5C555.314,517.795,556.906,570.381,555,582.39z"/>
</svg>