<svg xmlns="http://www.w3.org/2000/svg" xmlns:xlink="http://www.w3.org/1999/xlink" version="1.1" id="Layer_1" x="0px" y="0px" enable-background="new 0 0 822.05 841.89" xml:space="preserve" viewBox="378.85 337.06 64.77 168.48">
<path fill-rule="evenodd" clip-rule="evenodd" fill="#AA6C2F" stroke="#000000" stroke-linecap="square" stroke-miterlimit="10" d="  M407.459,422.89c0.527-17.102,8.817-57.743-6.002-64.5c-6.233,30.739,1.167,61.824-1.875,92.25c-1.007,10.067,1.545,51.888,9.377,24  C413.028,460.148,407.198,438.219,407.459,422.89z"/>
<path fill-rule="evenodd" clip-rule="evenodd" fill="#AA6C2F" d="M399.957,421.39c3.051,0.127,4.405,0.756,7.502,0  C404.958,421.39,402.458,421.39,399.957,421.39z"/>
<path fill="none" stroke="#000000" stroke-linecap="square" stroke-miterlimit="10" d="M399.957,421.39  c2.618,0.614,4.891,0.637,7.502,0"/>
<path fill-rule="evenodd" clip-rule="evenodd" fill="#AA6C2F" d="M399.957,422.89c2.833,0.188,4.56,1.384,7.502,0  C404.958,422.89,402.458,422.89,399.957,422.89z"/>
<path fill="none" stroke="#000000" stroke-linecap="square" stroke-miterlimit="10" d="M399.957,422.89  c2.423,1.141,5.078,1.141,7.502,0"/>
<path fill-rule="evenodd" clip-rule="evenodd" fill="#AA6C2F" d="M400.707,404.14C406.516,404.436,407.863,404.504,400.707,404.14  L400.707,404.14z"/>
<path fill="none" stroke="#000000" stroke-linecap="square" stroke-miterlimit="10" d="M400.707,404.14c2.187,0.571,3.898,0.597,6,0  "/>
<path fill-rule="evenodd" clip-rule="evenodd" fill="#AA6C2F" d="M400.707,439.39C406.475,439.891,407.825,440.008,400.707,439.39  L400.707,439.39z"/>
<path fill="none" stroke="#000000" stroke-linecap="square" stroke-miterlimit="10" d="M400.707,439.39c1.971,1.046,4.029,1.046,6,0  "/>
<path fill-rule="evenodd" clip-rule="evenodd" fill="#AA6C2F" stroke="#000000" stroke-linecap="square" stroke-miterlimit="10" d="  M379.707,484.39c-6.158,27.021,69.614,28.303,63-0.75C421.707,483.89,400.707,484.14,379.707,484.39z"/>
<path fill-rule="evenodd" clip-rule="evenodd" fill="#AA6C2F" stroke="#000000" stroke-linecap="square" stroke-miterlimit="10" d="  M442.707,483.64c-18.449-7.117-44.67-7.364-63,0C398.037,491.004,424.258,490.757,442.707,483.64z"/>
<path fill-rule="evenodd" clip-rule="evenodd" fill="#AA6C2F" stroke="#000000" stroke-linecap="square" stroke-miterlimit="10" d="  M381.207,356.89c-3.842-25.18,66.698-26.861,60,1.5C421.207,357.89,401.207,357.39,381.207,356.89z"/>
<path fill-rule="evenodd" clip-rule="evenodd" fill="#AA6C2F" stroke="#000000" stroke-linecap="square" stroke-miterlimit="10" d="  M441.207,358.39c-17.897,6.461-42.104,6.545-60,0C396.352,350.599,426.067,350.647,441.207,358.39z"/>
<path fill-rule="evenodd" clip-rule="evenodd" fill="#D3E4E3" stroke="#000000" stroke-linecap="square" stroke-miterlimit="10" d="  M420.207,407.89c0,1.305,4.97-43.613-0.75-48.75c-17-15.267-18.75,12.127-18.75,19.642c0,22.879,9.966,41.766,0,58.358  c0-2.214-4.897,42.971,3,47.25c17.104,9.268,16.5-10.897,16.5-21.143C420.207,445.079,409.396,420.766,420.207,407.89z"/>
<path fill-rule="evenodd" clip-rule="evenodd" fill="#AA6C2F" stroke="#000000" stroke-linecap="square" stroke-miterlimit="10" d="  M392.457,422.14c-0.968-9.771,7.835-57.211-0.75-63.75c-8.87-6.755-7.558,53.187-7.5,62.25c0.056,8.803-6.574,56.445,1.5,63.75  C393.484,491.426,391.274,430.878,392.457,422.14z"/>
<path fill-rule="evenodd" clip-rule="evenodd" fill="#AA6C2F" d="M384.207,420.64c3.124,0.215,4.418,1.374,7.5,0  C389.207,420.64,386.707,420.64,384.207,420.64z"/>
<path fill="none" stroke="#000000" stroke-linecap="square" stroke-miterlimit="10" d="M384.207,420.64  c2.469,1.072,5.074,1.082,7.5,0"/>
<path fill-rule="evenodd" clip-rule="evenodd" fill="#AA6C2F" d="M384.957,422.14c3.035,0.204,4.248,1.411,7.5,0  C389.957,422.14,387.457,422.14,384.957,422.14z"/>
<path fill="none" stroke="#000000" stroke-linecap="square" stroke-miterlimit="10" d="M384.957,422.14  c2.426,1.082,5.031,1.071,7.5,0"/>
<path fill-rule="evenodd" clip-rule="evenodd" fill="#AA6C2F" d="M385.707,403.39C391.25,403.727,391.751,403.758,385.707,403.39  L385.707,403.39z"/>
<path fill="none" stroke="#000000" stroke-linecap="square" stroke-miterlimit="10" d="M385.707,403.39  c1.817,0.609,3.527,0.675,5.25,0"/>
<path fill-rule="evenodd" clip-rule="evenodd" fill="#AA6C2F" d="M385.707,438.64C390.986,439.142,391.904,439.229,385.707,438.64  L385.707,438.64z"/>
<path fill="none" stroke="#000000" stroke-linecap="square" stroke-miterlimit="10" d="M385.707,438.64  c1.677,1.143,3.573,1.143,5.25,0"/>
<path fill-rule="evenodd" clip-rule="evenodd" fill="#AA6C2F" stroke="#000000" stroke-linecap="square" stroke-miterlimit="10" d="  M434.457,422.14c-0.524-18.063,8.71-58.604-6-66c-6.189,31.533,1.243,63.315-1.875,94.5c-0.802,8.02,6.534,49.088,8.25,28.5  C436.424,460.034,433.228,441.028,434.457,422.14z"/>
<path fill-rule="evenodd" clip-rule="evenodd" fill="#AA6C2F" d="M426.957,420.64c2.5,0,5,0,7.5,0  C431.957,420.64,429.457,420.64,426.957,420.64z"/>
<path fill="none" stroke="#000000" stroke-linecap="square" stroke-miterlimit="10" d="M426.957,420.64c2.5,0,5,0,7.5,0"/>
<path fill-rule="evenodd" clip-rule="evenodd" fill="#AA6C2F" d="M426.957,422.14c2.832,0.188,4.559,1.385,7.5,0  C431.957,422.14,429.457,422.14,426.957,422.14z"/>
<path fill="none" stroke="#000000" stroke-linecap="square" stroke-miterlimit="10" d="M426.957,422.14  c2.423,1.141,5.077,1.141,7.5,0"/>
<path fill-rule="evenodd" clip-rule="evenodd" fill="#AA6C2F" d="M427.707,402.64C433.044,403.168,433.783,403.241,427.707,402.64  L427.707,402.64z"/>
<path fill="none" stroke="#000000" stroke-linecap="square" stroke-miterlimit="10" d="M427.707,402.64  c1.755,1.056,3.585,1.077,5.25,0"/>
<path fill-rule="evenodd" clip-rule="evenodd" fill="#AA6C2F" d="M427.707,439.39C433.145,439.39,433.667,439.39,427.707,439.39  L427.707,439.39z"/>
<path fill="none" stroke="#000000" stroke-linecap="square" stroke-miterlimit="10" d="M427.707,439.39c1.75,0,3.5,0,5.25,0"/>
<path fill-rule="evenodd" clip-rule="evenodd" fill="#FFFFFF" stroke="#000000" stroke-linecap="square" stroke-miterlimit="10" d="  M400.707,437.14C400.707,433.14,400.707,433.14,400.707,437.14L400.707,437.14z"/>
<path fill-rule="evenodd" clip-rule="evenodd" fill="#F7F7F7" d="M411.959,417.64c9.632-11.417,4.174-14.918-10.502-12.75  C401.178,413.85,405.584,414.773,411.959,417.64z"/>
<path fill-rule="evenodd" clip-rule="evenodd" fill="#F3F3F3" d="M418.707,480.64C411.837,451.62,390.967,497.876,418.707,480.64  L418.707,480.64z"/>
<path fill-rule="evenodd" clip-rule="evenodd" fill="#F7F7F7" d="M418.707,472.39c-6.798-7.841-9.394-12.435-15.75,0  C408.324,471.824,413.447,472.99,418.707,472.39z"/>
<path fill-rule="evenodd" clip-rule="evenodd" fill="#F7F7F7" d="M409.709,419.89c0.609,13.495,1.084,26.997,1.5,40.5  C411.209,448.295,412.807,428.105,409.709,419.89z"/>
</svg>