<svg xmlns="http://www.w3.org/2000/svg" xmlns:xlink="http://www.w3.org/1999/xlink" version="1.1" id="Layer_1" x="0px" y="0px" enable-background="new 0 0 822.05 841.89" xml:space="preserve" viewBox="303.93 335.89 209.35 171.23">
<path fill-rule="evenodd" clip-rule="evenodd" fill="#F7F619" stroke="#000000" stroke-linecap="square" stroke-miterlimit="10" d="  M464.25,433.9c-10.868,0.104-77.87,4.511-78.111-2.473c-1.462-42.398,5.271-47.95,33.111-80.027  c13.107,14.199,26.214,28.398,39.321,42.598c10.931,11.842,32.593,2.788,47.679,0.902C508.181,431.582,499.203,425.462,464.25,433.9  z"/>
<line fill="none" stroke="#000000" stroke-linecap="square" stroke-miterlimit="10" x1="465" y1="433.9" x2="465" y2="400.15"/>
<path fill-rule="evenodd" clip-rule="evenodd" fill="#8ED4E5" stroke="#000000" stroke-linecap="square" stroke-miterlimit="10" d="  M480,419.65c-3.5,0.75-7,1.5-10.5,2.25c0.665-13.699-1.86-12.379,10.5-16.5C480,410.15,480,414.9,480,419.65z"/>
<path fill-rule="evenodd" clip-rule="evenodd" fill="#8ED4E5" stroke="#000000" stroke-linecap="square" stroke-miterlimit="10" d="  M500.25,415.9c-3.5,0.75-7,1.5-10.5,2.25c0.197-14.468-2.092-12.695,10.5-16.5C500.25,406.4,500.25,411.15,500.25,415.9z"/>
<path fill-rule="evenodd" clip-rule="evenodd" fill="#8ED4E5" stroke="#000000" stroke-linecap="square" stroke-miterlimit="10" d="  M439.5,414.4c-9.32,2.711-32.581-3.19-19.5-17.25C432.193,384.044,442.404,403.707,439.5,414.4z"/>
<line fill="none" stroke="#000000" stroke-linecap="square" stroke-miterlimit="10" x1="430.5" y1="395.65" x2="430.5" y2="413.65"/>
<line fill="none" stroke="#000000" stroke-linecap="square" stroke-miterlimit="10" x1="420" y1="405.4" x2="439.5" y2="406.15"/>
<path fill-rule="evenodd" clip-rule="evenodd" fill="#724211" stroke="#000000" stroke-linecap="square" stroke-miterlimit="10" d="  M411.75,409.9c-4.472-9.207-10.21-11.789-18-3.75C374.507,426.006,422.225,457.714,411.75,409.9z"/>
<path fill-rule="evenodd" clip-rule="evenodd" fill="#8ED4E5" stroke="#000000" stroke-linecap="square" stroke-miterlimit="10" d="  M426,382.9C399.678,381.222,423.84,359.57,426,382.9L426,382.9z"/>
<path fill-rule="evenodd" clip-rule="evenodd" fill="#F8130D" stroke="#000000" stroke-linecap="square" stroke-miterlimit="10" d="  M379.5,394.9c18.459-19.88,30.641-44.631,58.861-46.889c36.764-2.941,41.957-4.717,63.389,25.139  c18.979,26.438,15.46,44.262-26.25,36c-23.003-4.556-36.082-31.155-51-50.25C417.855,366.153,377.519,416.334,379.5,394.9z"/>
<path fill-rule="evenodd" clip-rule="evenodd" fill="#F8130D" stroke="#000000" stroke-linecap="square" stroke-miterlimit="10" d="  M466.5,352.15C431.545,375.989,473.784,306.879,466.5,352.15L466.5,352.15z"/>
<path fill-rule="evenodd" clip-rule="evenodd" fill="#F7F619" stroke="#000000" stroke-linecap="square" stroke-miterlimit="10" d="  M389.25,505.15c-10.868,0.104-77.87,4.511-78.111-2.473c-1.462-42.398,5.271-47.95,33.111-80.027  c13.107,14.199,26.214,28.398,39.321,42.598c10.931,11.842,32.593,2.788,47.679,0.902  C433.181,502.832,424.203,496.712,389.25,505.15z"/>
<line fill="none" stroke="#000000" stroke-linecap="square" stroke-miterlimit="10" x1="390" y1="505.15" x2="390" y2="471.4"/>
<path fill-rule="evenodd" clip-rule="evenodd" fill="#8ED4E5" stroke="#000000" stroke-linecap="square" stroke-miterlimit="10" d="  M405,490.9c-3.5,0.75-7,1.5-10.5,2.25c0.665-13.699-1.86-12.379,10.5-16.5C405,481.4,405,486.15,405,490.9z"/>
<path fill-rule="evenodd" clip-rule="evenodd" fill="#8ED4E5" stroke="#000000" stroke-linecap="square" stroke-miterlimit="10" d="  M425.25,487.15c-3.5,0.75-7,1.5-10.5,2.25c0.197-14.468-2.092-12.695,10.5-16.5C425.25,477.65,425.25,482.4,425.25,487.15z"/>
<path fill-rule="evenodd" clip-rule="evenodd" fill="#8ED4E5" stroke="#000000" stroke-linecap="square" stroke-miterlimit="10" d="  M364.5,485.65c-9.32,2.711-32.581-3.19-19.5-17.25C357.193,455.294,367.404,474.958,364.5,485.65z"/>
<line fill="none" stroke="#000000" stroke-linecap="square" stroke-miterlimit="10" x1="355.5" y1="466.9" x2="355.5" y2="484.9"/>
<line fill="none" stroke="#000000" stroke-linecap="square" stroke-miterlimit="10" x1="345" y1="476.65" x2="364.5" y2="477.4"/>
<path fill-rule="evenodd" clip-rule="evenodd" fill="#724211" stroke="#000000" stroke-linecap="square" stroke-miterlimit="10" d="  M336.75,481.15c-4.472-9.206-10.21-11.789-18-3.75C299.507,497.256,347.225,528.964,336.75,481.15z"/>
<path fill-rule="evenodd" clip-rule="evenodd" fill="#8ED4E5" stroke="#000000" stroke-linecap="square" stroke-miterlimit="10" d="  M351,454.15C324.678,452.472,348.84,430.821,351,454.15L351,454.15z"/>
<path fill-rule="evenodd" clip-rule="evenodd" fill="#F8130D" stroke="#000000" stroke-linecap="square" stroke-miterlimit="10" d="  M304.5,466.15c18.459-19.88,30.641-44.631,58.861-46.889c36.764-2.941,41.957-4.717,63.389,25.139  c18.979,26.438,15.46,44.262-26.25,36c-23.003-4.557-36.082-31.154-51-50.25C342.855,437.403,302.519,487.584,304.5,466.15z"/>
<path fill-rule="evenodd" clip-rule="evenodd" fill="#F8130D" stroke="#000000" stroke-linecap="square" stroke-miterlimit="10" d="  M391.5,423.4C356.545,447.239,398.784,378.129,391.5,423.4L391.5,423.4z"/>
</svg>