<svg xmlns="http://www.w3.org/2000/svg" xmlns:xlink="http://www.w3.org/1999/xlink" version="1.1" id="Layer_1" x="0px" y="0px" enable-background="new 0 0 822.05 841.89" xml:space="preserve" viewBox="203.85 284.6 416.48 274.79">
<path fill-rule="evenodd" clip-rule="evenodd" fill="#6D6F71" stroke="#000000" stroke-width="2" stroke-linecap="square" stroke-miterlimit="10" d="  M211.779,367.508c-32.024,15.325,55.948,69.717,79.875,72.375c15.121,1.68,30.467-8.107,43.702-14.021  c42.866-19.153,85.733-38.306,128.599-57.459c7.94-3.548,36.77-12.347,26.826-27.146c-6.299-9.374-87.914,22.118-99.477,25.421  c-28.585,8.167-57.028,16.829-85.613,24.997C272.385,401.192,243.274,380.363,211.779,367.508z"/>
<path fill-rule="evenodd" clip-rule="evenodd" fill="#FFF200" stroke="#000000" stroke-width="2" stroke-linecap="square" stroke-miterlimit="10" d="  M212.529,366.008c19.912,33.763,82.068,50.653,117.961,36.196c51.68-20.815,103.36-41.631,155.041-62.446  c-41.121-9.791-72.423-29.057-117.333-19.657C312.064,331.85,264.171,341.707,212.529,366.008z"/>
<path fill-rule="evenodd" clip-rule="evenodd" fill="#6C5635" stroke="#000000" stroke-width="2" stroke-linecap="square" stroke-miterlimit="10" d="  M241.779,354.758c8.409,4.354,12.096,9.185,18.75,1.5C252.396,347.79,249.413,351.255,241.779,354.758z"/>
<path fill-rule="evenodd" clip-rule="evenodd" fill="#6C5635" stroke="#000000" stroke-width="2" stroke-linecap="square" stroke-miterlimit="10" d="  M287.529,364.508c-2.5,2.25-5,4.5-7.5,6.75c12.373,6.766,34.803,16.187,39.75-0.75C308.543,373.836,297.131,371.236,287.529,364.508  z"/>
<path fill-rule="evenodd" clip-rule="evenodd" fill="#FFF200" stroke="#000000" stroke-width="2" stroke-linecap="square" stroke-miterlimit="10" d="  M364.029,314.258C406.49,290.61,380.334,426.354,364.029,314.258L364.029,314.258z"/>
<path fill-rule="evenodd" clip-rule="evenodd" fill="#FFF200" stroke="#000000" stroke-width="2" stroke-linecap="square" stroke-miterlimit="10" d="  M280.029,298.508C310.844,287.978,291.14,370.729,280.029,298.508L280.029,298.508z"/>
<path fill-rule="evenodd" clip-rule="evenodd" fill="#FFF200" stroke="#000000" stroke-width="2" stroke-linecap="square" stroke-miterlimit="10" d="  M381.279,287.258C415.689,279.665,376.689,342.477,381.279,287.258L381.279,287.258z"/>
<path fill-rule="evenodd" clip-rule="evenodd" fill="#FFF200" stroke="#000000" stroke-width="2" stroke-linecap="square" stroke-miterlimit="10" d="  M464.531,296.258C497.604,285.575,475.582,371.774,464.531,296.258L464.531,296.258z"/>
<path fill-rule="evenodd" clip-rule="evenodd" fill="#6C5635" stroke="#000000" stroke-width="2" stroke-linecap="square" stroke-miterlimit="10" d="  M397.029,342.758c13.283-3.453,35.442-16.816,41.252-1.5c-21.251,7-42.501,14-63.752,21  C370.221,347.912,382.628,343.912,397.029,342.758z"/>
<path fill-rule="evenodd" clip-rule="evenodd" fill="#FFF200" stroke="#000000" stroke-width="2" stroke-linecap="square" stroke-miterlimit="10" d="  M295.029,311.258c-1.285,16.231-21.179,20.857-22.5,2.25C271.216,295.015,290.249,295.49,295.029,311.258z"/>
<path fill-rule="evenodd" clip-rule="evenodd" fill="#FFF200" stroke="#000000" stroke-width="2" stroke-linecap="square" stroke-miterlimit="10" d="  M393.279,297.008C380.943,342.418,371.919,255.96,393.279,297.008L393.279,297.008z"/>
<path fill="none" stroke="#000000" stroke-width="2" stroke-linecap="square" stroke-miterlimit="10" d="M382.029,298.508  c-2.115,5.011-6.754,10.145-3,20.25C379.672,314.441,381.814,302.099,382.029,298.508z"/>
<path fill-rule="evenodd" clip-rule="evenodd" fill="#FFF200" stroke="#000000" stroke-width="2" stroke-linecap="square" stroke-miterlimit="10" d="  M283.779,312.008c-13.146,5.546-5.724,22.091-4.5,35.25C285.562,340.553,280.53,319.587,283.779,312.008z"/>
<path fill-rule="evenodd" clip-rule="evenodd" fill="#FFF200" stroke="#000000" stroke-width="2" stroke-linecap="square" stroke-miterlimit="10" d="  M480.281,309.758c-0.428,17.914-22.33,21.295-24,2.25C454.603,292.854,476.376,292.399,480.281,309.758z"/>
<path fill="none" stroke="#000000" stroke-width="2" stroke-linecap="square" stroke-miterlimit="10" d="M467.531,308.258  c-8.08,3.574-7.759,12.767-3.75,22.5C464.508,325.975,466.681,312.892,467.531,308.258z"/>
<path fill-rule="evenodd" clip-rule="evenodd" fill="#FFF200" stroke="#000000" stroke-width="2" stroke-linecap="square" stroke-miterlimit="10" d="  M385.029,332.258c1.822,22.306-26.485,28.827-31.125,5.625C348.938,313.052,381.453,306.439,385.029,332.258z"/>
<path fill-rule="evenodd" clip-rule="evenodd" fill="#FFF200" stroke="#000000" stroke-width="2" stroke-linecap="square" stroke-miterlimit="10" d="  M368.529,330.008c-18.838,3.136-8.781,21.932-6.75,37.5c1.75-0.25,3.5-0.5,5.25-0.75  C365.525,351.342,364.201,337.141,368.529,330.008z"/>
<path fill-rule="evenodd" clip-rule="evenodd" fill="#6D6F71" stroke="#000000" stroke-width="2" stroke-linecap="square" stroke-miterlimit="10" d="  M226.779,439.508c-32.291,16.609,52.668,66.792,73.5,72c15.468,3.867,29.688-3.786,43.297-9.867  c42.586-19.027,85.171-38.055,127.756-57.082c9.062-4.048,47.647-15.181,32.948-32.051c-7.326-8.408-85.973,23.36-97.977,26.88  c-28.5,8.356-56.882,17.249-85.613,24.774C287.329,472.9,258.172,452.322,226.779,439.508z"/>
<path fill-rule="evenodd" clip-rule="evenodd" fill="#FFF200" stroke="#000000" stroke-width="2" stroke-linecap="square" stroke-miterlimit="10" d="  M227.529,438.008c20.512,34.698,81.354,50.94,117.961,36.196c51.68-20.815,103.36-41.631,155.041-62.446  c-40.848-10.352-73.167-28.901-117.333-19.657C327.064,403.85,279.171,413.707,227.529,438.008z"/>
<path fill-rule="evenodd" clip-rule="evenodd" fill="#6C5635" stroke="#000000" stroke-width="2" stroke-linecap="square" stroke-miterlimit="10" d="  M256.779,427.508c8.415,3.777,12.23,8.441,18.75,0.75C266.937,419.346,264.43,423.41,256.779,427.508z"/>
<path fill-rule="evenodd" clip-rule="evenodd" fill="#6C5635" stroke="#000000" stroke-width="2" stroke-linecap="square" stroke-miterlimit="10" d="  M303.279,436.508c-2.75,2.25-5.5,4.5-8.25,6.75c12.497,6.522,34.622,17.241,39.75,0C323.832,446.14,312.207,443.739,303.279,436.508  z"/>
<path fill-rule="evenodd" clip-rule="evenodd" fill="#FFF200" stroke="#000000" stroke-width="2" stroke-linecap="square" stroke-miterlimit="10" d="  M379.029,387.008C420.627,362.29,395.487,498.096,379.029,387.008L379.029,387.008z"/>
<path fill-rule="evenodd" clip-rule="evenodd" fill="#FFF200" stroke="#000000" stroke-width="2" stroke-linecap="square" stroke-miterlimit="10" d="  M295.029,371.258C325.708,358.677,306.415,443.37,295.029,371.258L295.029,371.258z"/>
<path fill-rule="evenodd" clip-rule="evenodd" fill="#FFF200" stroke="#000000" stroke-width="2" stroke-linecap="square" stroke-miterlimit="10" d="  M396.279,359.258C430.831,354.248,391.583,413.276,396.279,359.258L396.279,359.258z"/>
<path fill-rule="evenodd" clip-rule="evenodd" fill="#FFF200" stroke="#000000" stroke-width="2" stroke-linecap="square" stroke-miterlimit="10" d="  M479.531,368.258C512.464,357.954,490.538,443.472,479.531,368.258L479.531,368.258z"/>
<path fill-rule="evenodd" clip-rule="evenodd" fill="#6C5635" stroke="#000000" stroke-width="2" stroke-linecap="square" stroke-miterlimit="10" d="  M412.029,414.758c13.034-3.128,34.859-15.53,41.252-1.5c-21.251,7-42.501,14-63.752,21  C385.565,420.414,398.06,416.359,412.029,414.758z"/>
<path fill-rule="evenodd" clip-rule="evenodd" fill="#FFF200" stroke="#000000" stroke-width="2" stroke-linecap="square" stroke-miterlimit="10" d="  M310.029,383.258c-0.466,16.488-20.726,21.106-22.5,3C285.75,368.104,305.16,367.408,310.029,383.258z"/>
<path fill-rule="evenodd" clip-rule="evenodd" fill="#FFF200" stroke="#000000" stroke-width="2" stroke-linecap="square" stroke-miterlimit="10" d="  M408.279,369.758C395.656,414.506,388.828,327.585,408.279,369.758L408.279,369.758z"/>
<path fill="none" stroke="#000000" stroke-width="2" stroke-linecap="square" stroke-miterlimit="10" d="M397.029,370.508  c-2.187,5.035-6.754,10.146-3,20.25C394.51,387.913,396.803,374.534,397.029,370.508z"/>
<path fill-rule="evenodd" clip-rule="evenodd" fill="#FFF200" stroke="#000000" stroke-width="2" stroke-linecap="square" stroke-miterlimit="10" d="  M298.779,384.758c-13.146,5.546-5.724,22.091-4.5,35.25C300.579,413.442,296.335,392.67,298.779,384.758z"/>
<path fill-rule="evenodd" clip-rule="evenodd" fill="#FFF200" stroke="#000000" stroke-width="2" stroke-linecap="square" stroke-miterlimit="10" d="  M495.281,381.758c-0.575,17.444-21.55,22.055-24,3C468.859,365.925,490.836,364.629,495.281,381.758z"/>
<path fill="none" stroke="#000000" stroke-width="2" stroke-linecap="square" stroke-miterlimit="10" d="M482.531,380.258  c-8,6.047-6.939,15.819-0.75,22.5C479.27,392.298,481.519,386.043,482.531,380.258z"/>
<path fill-rule="evenodd" clip-rule="evenodd" fill="#FFF200" stroke="#000000" stroke-width="2" stroke-linecap="square" stroke-miterlimit="10" d="  M400.029,404.258c2.155,24.438-28.993,28.709-31.5,3.75C366.146,384.292,396.488,380.458,400.029,404.258z"/>
<path fill-rule="evenodd" clip-rule="evenodd" fill="#FFF200" stroke="#000000" stroke-width="2" stroke-linecap="square" stroke-miterlimit="10" d="  M383.529,402.008c-18.562,4.022-8.827,21.92-6.75,37.5c2-0.25,4-0.5,6-0.75C380.871,423.488,379.156,409.825,383.529,402.008z"/>
<path fill-rule="evenodd" clip-rule="evenodd" fill="#6D6F71" stroke="#000000" stroke-width="2" stroke-linecap="square" stroke-miterlimit="10" d="  M338.529,486.008c-30.561,14.397,53.416,68.646,76.502,72c16.763,2.436,32.542-7.151,47.076-13.646  c42.866-19.153,85.731-38.306,128.598-57.459c9.18-4.102,38.363-13.706,25.326-28.646c-7.343-8.414-85.961,23.356-97.975,26.88  c-28.531,8.366-57.025,16.87-85.614,25.038C399.136,519.692,370.025,498.864,338.529,486.008z"/>
<path fill-rule="evenodd" clip-rule="evenodd" fill="#FFF200" stroke="#000000" stroke-width="2" stroke-linecap="square" stroke-miterlimit="10" d="  M339.279,483.758c13.912,35.748,85.316,50.214,117.963,36.914c51.68-21.055,103.359-42.109,155.039-63.164  c-41.187-7.505-72.455-28.3-117.332-18.907C439.206,450.268,390.871,460.239,339.279,483.758z"/>
<path fill-rule="evenodd" clip-rule="evenodd" fill="#6C5635" stroke="#000000" stroke-width="2" stroke-linecap="square" stroke-miterlimit="10" d="  M368.529,473.258c8.152,3.688,11.885,8.081,18.75,1.5C379.128,466.272,376.173,469.788,368.529,473.258z"/>
<path fill-rule="evenodd" clip-rule="evenodd" fill="#6C5635" stroke="#000000" stroke-width="2" stroke-linecap="square" stroke-miterlimit="10" d="  M415.031,483.008c-2.751,2.25-5.501,4.5-8.252,6.75c12.77,5.931,34.651,16.529,39.752-0.75  C435.5,491.96,424.438,489.494,415.031,483.008z"/>
<path fill-rule="evenodd" clip-rule="evenodd" fill="#FFF200" stroke="#000000" stroke-width="2" stroke-linecap="square" stroke-miterlimit="10" d="  M490.781,432.758C532.349,407.92,507.382,544.814,490.781,432.758L490.781,432.758z"/>
<path fill-rule="evenodd" clip-rule="evenodd" fill="#FFF200" stroke="#000000" stroke-width="2" stroke-linecap="square" stroke-miterlimit="10" d="  M406.779,417.008C437.229,404.765,418.209,489.396,406.779,417.008L406.779,417.008z"/>
<path fill-rule="evenodd" clip-rule="evenodd" fill="#FFF200" stroke="#000000" stroke-width="2" stroke-linecap="square" stroke-miterlimit="10" d="  M508.031,405.758C542.49,398.581,503.401,459.59,508.031,405.758L508.031,405.758z"/>
<path fill-rule="evenodd" clip-rule="evenodd" fill="#FFF200" stroke="#000000" stroke-width="2" stroke-linecap="square" stroke-miterlimit="10" d="  M591.281,414.758C623.256,401.84,602.603,490.235,591.281,414.758L591.281,414.758z"/>
<path fill-rule="evenodd" clip-rule="evenodd" fill="#6C5635" stroke="#000000" stroke-width="2" stroke-linecap="square" stroke-miterlimit="10" d="  M523.781,460.508c13.345-3.203,35.485-16.021,41.25-0.75c-21.25,6.75-42.5,13.5-63.75,20.25  C497.317,466.164,509.812,462.109,523.781,460.508z"/>
<path fill-rule="evenodd" clip-rule="evenodd" fill="#FFF200" stroke="#000000" stroke-width="2" stroke-linecap="square" stroke-miterlimit="10" d="  M421.781,429.008c-0.586,16.67-20.627,21.434-22.502,3C397.45,414.024,417.015,413.522,421.781,429.008z"/>
<path fill-rule="evenodd" clip-rule="evenodd" fill="#FFF200" stroke="#000000" stroke-width="2" stroke-linecap="square" stroke-miterlimit="10" d="  M520.031,415.508C506.678,459.686,500.064,374.248,520.031,415.508L520.031,415.508z"/>
<path fill="none" stroke="#000000" stroke-width="2" stroke-linecap="square" stroke-miterlimit="10" d="M508.781,416.258  c-2.32,5.77-6.786,10.909-3,21C506.527,432.452,508.541,420.593,508.781,416.258z"/>
<path fill-rule="evenodd" clip-rule="evenodd" fill="#FFF200" stroke="#000000" stroke-width="2" stroke-linecap="square" stroke-miterlimit="10" d="  M410.529,430.508c-13.146,5.546-5.724,22.092-4.5,35.25C412.329,459.192,408.085,438.42,410.529,430.508z"/>
<path fill-rule="evenodd" clip-rule="evenodd" fill="#FFF200" stroke="#000000" stroke-width="2" stroke-linecap="square" stroke-miterlimit="10" d="  M607.031,427.508c-0.489,17.808-22.363,22.367-24,3C581.457,411.889,602.637,410.505,607.031,427.508z"/>
<path fill="none" stroke="#000000" stroke-width="2" stroke-linecap="square" stroke-miterlimit="10" d="M594.281,426.758  c-8.08,3.574-7.759,12.768-3.75,22.5C591.181,444.88,593.397,431.506,594.281,426.758z"/>
<path fill-rule="evenodd" clip-rule="evenodd" fill="#FFF200" stroke="#000000" stroke-width="2" stroke-linecap="square" stroke-miterlimit="10" d="  M511.781,450.758c1.769,23.704-28.147,27.626-31.5,3.75C476.852,430.084,508.592,426.061,511.781,450.758z"/>
<path fill-rule="evenodd" clip-rule="evenodd" fill="#FFF200" stroke="#000000" stroke-width="2" stroke-linecap="square" stroke-miterlimit="10" d="  M495.281,448.508c-18.838,3.136-8.78,21.933-6.75,37.5c1.75-0.5,3.5-1,5.25-1.5C492.31,469.787,490.806,455.449,495.281,448.508z"/>
</svg>