<svg xmlns="http://www.w3.org/2000/svg" xmlns:xlink="http://www.w3.org/1999/xlink" version="1.1" id="Layer_1" x="0px" y="0px" enable-background="new 0 0 822.05 841.89" xml:space="preserve" viewBox="328.64 249.54 169.12 343.6">
<path fill-rule="evenodd" clip-rule="evenodd" fill="#EFDAC8" stroke="#000000" stroke-width="2" stroke-linecap="square" stroke-miterlimit="10" d="  M376.889,365.64c5.621,16.777,11.88,38.248,3,54.75c13.484,1.835,26.988,2.861,40.502,0.75c-2.984-21.593-6.551-45.346-4.875-67.125  c1.124-14.613-7.502-12.49-21.658-17.602C385.203,333.289,380.061,357.989,376.889,365.64z"/>
<path fill-rule="evenodd" clip-rule="evenodd" fill="#EFDAC8" stroke="#000000" stroke-width="2" stroke-linecap="square" stroke-miterlimit="10" d="  M416.641,344.64c11.596-2.625,29.596-3.025,39.75-9c8.107-4.77,14.852-22.967,19.5-25.5c8.222-4.48,14.077-12.808,20.25,2.625  C504.746,334.28,419.997,369.646,416.641,344.64z"/>
<path fill-rule="evenodd" clip-rule="evenodd" fill="#0DB14B" stroke="#000000" stroke-width="2" stroke-linecap="square" stroke-miterlimit="10" d="  M374.639,421.14c-15.19,12.889-19.298,55.571-45,49.5c27.957,18.353,92.265,44.444,103.127-2.625c2.961-12.832,2.913-29.43-6-40.125  C416.004,414.976,390.897,424.467,374.639,421.14z"/>
<path fill-rule="evenodd" clip-rule="evenodd" fill="#EFDAC8" stroke="#000000" stroke-width="2" stroke-linecap="square" stroke-miterlimit="10" d="  M384.389,493.89c3.565,22.93,12.208,35.263,24.927,54.482c20.123,30.405-3.372,17.693,0.575,43.768  c10.75-7.75,21.5-15.5,32.25-23.25c-16.132-21.21-47.441-46.199-40.502-75.75C396.32,493.372,389.383,492.208,384.389,493.89z"/>
<path fill-rule="evenodd" clip-rule="evenodd" fill="#EFDAC8" stroke="#000000" stroke-width="2" stroke-linecap="square" stroke-miterlimit="10" d="  M415.141,493.89c-3.986,34.162,6.185,115.289-48.752,94.5c10.406-24.233,24.964,1.609,28.583-32.473  C396.917,537.598,390.464,488.833,415.141,493.89z"/>
<path fill-rule="evenodd" clip-rule="evenodd" fill="#EFDAC8" stroke="#000000" stroke-width="2" stroke-linecap="square" stroke-miterlimit="10" d="  M366.389,343.14c10.283-6.607,11.68-0.435,21.75,1.5c22.775,4.376,37.832,14.147,63.752,10.125c6.647-1.031,19.782-6.582,22.5-7.125  c1.463-0.292,2.78-10.131,5.25-9.75c5.223,0.805,14.577-0.812,15.75,9.75C498.269,373.566,366.068,385.402,366.389,343.14z"/>
<path fill-rule="evenodd" clip-rule="evenodd" fill="#EFDAC8" stroke="#000000" stroke-width="2" stroke-linecap="square" stroke-miterlimit="10" d="  M410.641,308.64c-0.681,44.239-33.908,44.307-34.502,0C375.54,263.992,409.858,264.302,410.641,308.64z"/>
<path fill-rule="evenodd" clip-rule="evenodd" fill="#967A66" stroke="#000000" stroke-width="2" stroke-linecap="square" stroke-miterlimit="10" d="  M400.889,275.64c-11.843,46.734-23.538,70.022-68.25,45.75c29.929-14.349,32.704-65.076,63-70.125  c52.312-8.719,44.766,64.052,15.752,85.125C411.402,317.026,413.349,291.691,400.889,275.64z"/>
<path fill-rule="evenodd" clip-rule="evenodd" fill="#EFDAC8" stroke="#000000" stroke-width="2" stroke-linecap="square" stroke-miterlimit="10" d="  M400.139,408.39c0.807,0.167-1.253,4.761-3.75,4.5c-0.5-4.203-0.62-5.627,0-9.75C400.651,403.108,398.293,408.007,400.139,408.39z"/>
<path fill="none" stroke="#000000" stroke-width="2" stroke-linecap="square" stroke-miterlimit="10" d="M377.639,425.64  c-6.814,18.714-14.41,43.451-33,53.25"/>
<path fill="none" stroke="#000000" stroke-width="2" stroke-linecap="square" stroke-miterlimit="10" d="M390.389,425.64  c-6.2,20.197-11.421,50.351-30,62.25"/>
<path fill="none" stroke="#000000" stroke-width="2" stroke-linecap="square" stroke-miterlimit="10" d="M399.389,425.64  c-5.027,21.494-6.655,46.071-18,65.25"/>
<path fill="none" stroke="#000000" stroke-width="2" stroke-linecap="square" stroke-miterlimit="10" d="M408.389,422.64  c-2.006,23.072-1.874,48.708-9.75,70.5"/>
<path fill="none" stroke="#000000" stroke-width="2" stroke-linecap="square" stroke-miterlimit="10" d="M416.641,421.89  c1.616,21.165,6.974,51.525-4.5,69.75"/>
</svg>