<svg xmlns="http://www.w3.org/2000/svg" xmlns:xlink="http://www.w3.org/1999/xlink" version="1.1" id="Layer_1" x="0px" y="0px" enable-background="new 0 0 822.05 841.89" xml:space="preserve" viewBox="315.16 350.68 189.72 142.46">
<path fill-rule="evenodd" clip-rule="evenodd" fill="#EED5B6" stroke="#000000" stroke-linecap="square" stroke-miterlimit="10" d="  M318.25,388.274c2.803,4.613,6.005,9.008,9,13.5c-9.981-21.644-0.66-21.272,7.5-0.75c-2.639-5.803-3.268-12.673-5.25-18.75  c6.79,3.359,8.279,3.788,11.25,18c-0.888-5.69-0.741-11.54-1.5-17.25c7.852,2.653,8.814,13.383,6.75,23.25  c2.26-3.161,5.506-6.787,7.5-9.75C366.668,444.367,302.167,428.311,318.25,388.274z"/>
<path fill="none" stroke="#000000" stroke-linecap="square" stroke-miterlimit="10" d="M346,406.274  c-5.474-2.751-10.272-1.409-13.5,3.75"/>
<path fill-rule="evenodd" clip-rule="evenodd" fill="#EED5B6" stroke="#000000" stroke-width="1.25" stroke-linecap="square" stroke-miterlimit="10" d="  M394.75,392.024C388.97,407.666,378.679,386.603,394.75,392.024L394.75,392.024z"/>
<path fill-rule="evenodd" clip-rule="evenodd" fill="#EED5B6" stroke="#000000" stroke-width="1.25" stroke-linecap="square" stroke-miterlimit="10" d="  M444.25,392.774C429.503,400.383,435.724,377.767,444.25,392.774L444.25,392.774z"/>
<path fill-rule="evenodd" clip-rule="evenodd" fill="#EED5B6" stroke="#000000" stroke-width="1.25" stroke-linecap="square" stroke-miterlimit="10" d="  M439.75,422.024c-14.141-14.79-28.826-14.396-44.25-3C350.162,452.522,440.918,457.653,439.75,422.024z"/>
<path fill-rule="evenodd" clip-rule="evenodd" fill="#EED5B6" stroke="#000000" stroke-width="1.25" stroke-linecap="square" stroke-miterlimit="10" d="  M389.5,375.524c-4.988,48.689,58.588,56.093,50.25,2.25C434.9,346.46,394.44,339.575,389.5,375.524z"/>
<path fill-rule="evenodd" clip-rule="evenodd" d="M407.5,385.274C401.557,386.331,403.735,385.943,407.5,385.274L407.5,385.274z"/>
<path fill-rule="evenodd" clip-rule="evenodd" d="M424.75,385.274C419.799,386.145,419.924,386.123,424.75,385.274L424.75,385.274z"/>
<path fill="none" stroke="#000000" stroke-linecap="square" stroke-miterlimit="10" d="M412,393.524c1.583,1.914,3.629,2.094,6,0"/>
<path fill="none" stroke="#000000" stroke-width="0.75" stroke-linecap="square" stroke-miterlimit="10" d="M400,386.024  c3.026-2.873,6.612-3.198,9.75-0.75"/>
<path fill="none" stroke="#000000" stroke-width="0.75" stroke-linecap="square" stroke-miterlimit="10" d="M427.75,386.024  c-3.283-3.018-6.747-3.095-9.75,0"/>
<path fill-rule="evenodd" clip-rule="evenodd" fill="#63221C" stroke="#000000" stroke-linecap="square" stroke-miterlimit="10" d="  M406,398.774c7.312-0.324,12.21,3.35,20.25,0C420.358,414.052,411.986,413.465,406,398.774z"/>
<path fill-rule="evenodd" clip-rule="evenodd" fill="#EED5B6" stroke="#000000" stroke-linecap="square" stroke-miterlimit="10" d="  M484,362.024c-0.782,5.028-2.002,10.009-3,15c1.145-24.312-7.418-19.07-7.5,2.25c-2.678-25.633-9.972-21.99-5.25,1.5  c-2.037-7.45-7.241-13.319-9-16.5c1.447,7.354,1.539,16.816,6,24c-4.237-2.74-9.968-3.57-12-4.5  C484.323,440.53,501.415,370.458,484,362.024z"/>
<path fill="none" stroke="#000000" stroke-linecap="square" stroke-miterlimit="10" d="M465.25,388.274  c3.915-4.288,8.669-4.79,13.5-1.5"/>
<path fill-rule="evenodd" clip-rule="evenodd" fill="#137827" stroke="#000000" stroke-width="1.25" stroke-linecap="square" stroke-miterlimit="10" d="  M504.25,441.524c-5.197-15.192-10.548-30.317-15-45.75c-5.859,1.873-12.811,6.345-20.25,8.25c2.881,7.116,1.234,16.32,4.5,23.25  c-3.807-1.235-34.861-12.596-36.75-7.875c-2.759,6.896-8.789,12.442-16.5,13.125c-13.688,1.212-22.977-16.114-29.625-15.375  c-26.673,2.964-19.456,27.939-18.75,49.125c0.354,10.617-4.583,26.25,7.5,26.25c24.875,0,49.75,0,74.625,0  c-0.593-15.002-1.358-30.053,0-45C468.231,452.972,504.217,466.789,504.25,441.524z"/>
<path fill="none" stroke="#000000" stroke-width="0.75" stroke-linecap="square" stroke-miterlimit="10" d="M455.5,356.024  c-3.99,5.974-4.229,13.054-0.75,19.5"/>
<path fill="none" stroke="#000000" stroke-width="0.75" stroke-linecap="square" stroke-miterlimit="10" d="M447.25,356.774  c-2.345,4.533-2.11,9.36,0.75,13.5"/>
<path fill-rule="evenodd" clip-rule="evenodd" fill="#FFFFFF" d="M473.5,427.274c1.836,7.136,2.558,13.66,6,20.25  C477.502,440.779,475.684,433.96,473.5,427.274z"/>
<path fill="none" stroke="#000000" stroke-width="1.25" stroke-linecap="square" stroke-miterlimit="10" d="M473.5,427.274  c0.696,7.136,2.723,13.977,6,20.25"/>
<path fill-rule="evenodd" clip-rule="evenodd" fill="#137827" d="M375.25,457.274c-37.526,44.307-51.858,22.265-47.25-27.75  c8.422-0.555,12.979-0.882,21.75-3c0.705,7.784,4.903,12.313,3,21c7.562-7.975,14.481-16.553,21.75-24.75  C374.75,434.274,375,445.774,375.25,457.274z"/>
<path fill="none" stroke="#000000" stroke-width="1.25" stroke-linecap="square" stroke-miterlimit="10" d="M375.25,457.274  c-37.526,44.307-51.858,22.265-47.25-27.75c8.422-0.555,12.979-0.882,21.75-3c0.705,7.784,4.903,12.313,3,21  c7.562-7.975,14.481-16.553,21.75-24.75"/>
<path fill="none" stroke="#000000" stroke-width="0.75" stroke-linecap="square" stroke-miterlimit="10" d="M341.5,372.524  c6.564,2.619,11.052,7.952,12.75,15"/>
<path fill="none" stroke="#000000" stroke-width="0.75" stroke-linecap="square" stroke-miterlimit="10" d="M351.25,369.524  c3.881,2.417,6.477,6.035,7.5,10.5"/>
<path fill="none" stroke="#000000" stroke-width="0.75" stroke-linecap="square" stroke-miterlimit="10" d="M493,356.024  c3.925,4.182,5.432,9.314,4.5,15"/>
<path fill="none" stroke="#000000" stroke-width="0.75" stroke-linecap="square" stroke-miterlimit="10" d="M499,354.524  c1.827,3.06,2.625,6.821,2.25,10.5"/>
<line fill="none" stroke="#000000" stroke-width="1.25" stroke-linecap="square" stroke-miterlimit="10" x1="352.75" y1="447.524" x2="352" y2="459.524"/>
</svg>