<svg xmlns="http://www.w3.org/2000/svg" xmlns:xlink="http://www.w3.org/1999/xlink" version="1.1" id="Layer_1" x="0px" y="0px" enable-background="new 0 0 822.05 841.89" xml:space="preserve" viewBox="193.96 243.14 431.86 349.25">
<path fill-rule="evenodd" clip-rule="evenodd" fill="#C6E9F7" stroke="#000000" stroke-width="2" stroke-linecap="square" stroke-miterlimit="10" d="  M194.959,244.14c6.12,31.822,7.156,72.755,21.75,101.25c0.486-5.632,1.184-54.107,10.5-57c12.018-3.731,16.967,49.27,15,59.25  c19.111,7.265,16.768,60.345,19.5,80.25c11.35-40.242,9.108-80.5,21-120.75c2.023,13.824,14.617,93.328,22.5,88.5  c8.764-5.368-15.703-107.924,23.25-77.25c15.81,12.45,14.657,108.849,15.614,130.223c2.165,48.348,7.185,95.072,15.136,142.777  c3.988-96.385,13.198-181.382,22.5-277.5c9.941,31.58,17.933,60.033,21,93c8.623-33.408,11.232-53.547,7.5-87.75  c5.501,15.25,11.001,30.5,16.502,45.75c1.004-24.596-1.896-33.693,16.08-49.872c15.909-14.318,26.171-9.793,35.67,9.372  c11.465,23.131,9.324,84.806,11.25,111c12.91-47.669,17.399-97.161,36-142.5c19.378,21.366,17.523,71.463,15.792,98.592  c-2.04,31.967-1.986,72.986,11.208,102.408c22.973-71.981,5.443-145.983,35.25-214.5c12.838,25.031,6.738,58.951,6,86.25  c11.963-19.989,8.061-40.49,13.5-62.25c5.475-21.899,18.65-35.371,17.25-59.25C481.46,244.14,338.209,244.14,194.959,244.14z"/>
</svg>