<svg xmlns="http://www.w3.org/2000/svg" xmlns:xlink="http://www.w3.org/1999/xlink" version="1.1" id="Layer_1" x="0px" y="0px" enable-background="new 0 0 822.05 841.89" xml:space="preserve" viewBox="212.47 306.9 395.75 226.99">
<path fill-rule="evenodd" clip-rule="evenodd" fill="#0DB14B" stroke="#000000" stroke-width="2" stroke-linecap="square" stroke-miterlimit="10" d="  M213.471,310.14c23.914-7.884,44.045,6.106,56.625,25.875c13.398,21.055,11.337,28.295,34.16,41.041  c29.918,16.708,59.836,33.415,89.754,50.123c30.973,17.297,84.675,15.866,120.046,27.656c35.037,11.679,70.944,29.608,93.167,60.056  c-28.182-14.093-221.15-93.837-222.752-39c9.473,2.415,36.275,3.999,39.541,13.5c6.152,17.898,9.307,25.244,29.461,30  c-5.68-1.272-12.176,0.531-18,0c2.887,4.139,4.216,9.693,7.5,13.5c-4.295-3.243-9.359-5.568-13.5-9c-1.75,2.75-3.5,5.5-5.25,8.25  c-11.282-32.229-13.108-30.608-46.581-38.418c-19.045-4.444-10.949-34.968-25.421-43.332c-25.473-14.722-50.322-5.464-74.25-32.25  c-4.583,29.531-5.039,41.72-25.5,63c0.75-4.75,1.5-9.5,2.25-14.25c-7.802,0.988-17.273-0.815-24.75,1.5  c6.755-1.625,12.895-6.041,19.5-8.25c-4.25-1.75-8.5-3.5-12.75-5.25c30.893,1.839,14.229-51.84,18.75-69.75  C219.309,366.995,214.779,340.627,213.471,310.14z"/>
<path fill="none" stroke="#000000" stroke-width="2" stroke-linecap="square" stroke-miterlimit="10" d="M232.221,325.89  c10.062,1.942,15.209,5.083,12.75,16.5C236.688,339.234,234.263,333.807,232.221,325.89z"/>
<path fill-rule="evenodd" clip-rule="evenodd" fill="#0DB14B" stroke="#000000" stroke-width="2" stroke-linecap="square" stroke-miterlimit="10" d="  M298.221,439.89c-6.88,12.951-9.604,27.755-27,26.25c2.5-13.75,5-27.5,7.5-41.25C285.026,429.741,292.7,434.183,298.221,439.89z"/>
<path fill-rule="evenodd" clip-rule="evenodd" fill="#0DB14B" stroke="#000000" stroke-width="2" stroke-linecap="square" stroke-miterlimit="10" d="  M403.971,459.39c22.982,9.849,35.067,15.005,48.002,36.75c5.007-13.935-2.823-8.844,11.25-12.75c-3.25-2.25-6.5-4.5-9.75-6.75  c4.75-1,9.5-2,14.25-3C445.584,470.244,426.875,458.059,403.971,459.39z"/>
<path fill-rule="evenodd" clip-rule="evenodd" fill="#0DB14B" stroke="#000000" stroke-width="2" stroke-linecap="square" stroke-miterlimit="10" d="  M255.471,409.14c-25.828-9.663-44.031-35.196-41.25-63C229.673,369.611,260.355,381.736,255.471,409.14z"/>
</svg>