<svg xmlns="http://www.w3.org/2000/svg" xmlns:xlink="http://www.w3.org/1999/xlink" version="1.1" id="Layer_1" x="0px" y="0px" enable-background="new 0 0 822.05 841.89" xml:space="preserve" viewBox="314.42 342.83 192.25 157.87">
<path fill-rule="evenodd" clip-rule="evenodd" fill="#EDCBA6" stroke="#000000" stroke-width="1.25" stroke-linecap="square" stroke-miterlimit="10" d="  M371.17,416.828C376.132,462.533,342.374,380.996,371.17,416.828L371.17,416.828z"/>
<path fill-rule="evenodd" clip-rule="evenodd" fill="#EDCBA6" stroke="#000000" stroke-width="1.25" stroke-linecap="square" stroke-miterlimit="10" d="  M464.174,419.828C449.064,462.716,450.466,376.5,464.174,419.828L464.174,419.828z"/>
<path fill-rule="evenodd" clip-rule="evenodd" fill="#EDCBA6" stroke="#000000" stroke-width="1.25" stroke-linecap="square" stroke-miterlimit="10" d="  M456.674,461.826c-10.622-3.264-21.766-21.1-29.761-20.922c-18.35,0.407-47.2,5.793-61.743,20.172  c-30.64,30.295-13.027,39,18.691,39c20.249,0,40.498,0,60.747,0C449.283,500.076,455.117,467.498,456.674,461.826z"/>
<path fill-rule="evenodd" clip-rule="evenodd" fill="#FFFFFF" stroke="#000000" stroke-width="1.25" stroke-linecap="square" stroke-miterlimit="10" d="  M483.674,452.826c-8.84-0.677-17.737-1.191-26.625-1.875c-9.418-0.725-6.311,10.892-13.875,15.375  c-12.831,7.605-24.006,14.003-39.754,9.75c-22.856-6.172-21.281-27.498-44.611-25.889c-27.279,1.881-29.69,26.474-34.889,49.889  c59.001,0,118.003,0,177.004,0C495.216,484.165,493.584,466.544,483.674,452.826z"/>
<path fill-rule="evenodd" clip-rule="evenodd" fill="#EBD8C3" stroke="#000000" stroke-width="1.25" stroke-linecap="square" stroke-miterlimit="10" d="  M363.67,393.578c-3.832,53.5,64.956,108.143,88.129,38.623c8.932-26.794,10.186-65.315-17.625-81.373  C401.722,332.09,365.758,359.337,363.67,393.578z"/>
<path fill-rule="evenodd" clip-rule="evenodd" d="M405.67,410.828c-1.853,0.647-0.598,5.35-4.5,1.5  C402.882,406.893,404.213,411.337,405.67,410.828z"/>
<path fill-rule="evenodd" clip-rule="evenodd" d="M432.674,413.078C428.844,412.029,427.027,411.532,432.674,413.078  L432.674,413.078z"/>
<path fill="none" stroke="#000000" stroke-linecap="square" stroke-miterlimit="10" d="M409.422,427.326  c3.024,3.823,6.69,3.979,10.502,0.75"/>
<path fill="none" stroke="#000000" stroke-width="0.75" stroke-linecap="square" stroke-miterlimit="10" d="M392.92,415.328  c4.457-5.56,10.254-7.022,16.502-3.75"/>
<path fill="none" stroke="#000000" stroke-width="0.75" stroke-linecap="square" stroke-miterlimit="10" d="M438.674,415.328  c-4.878-5.188-10.791-6.213-16.5-2.25"/>
<path fill="none" stroke="#000000" stroke-linecap="square" stroke-miterlimit="10" d="M398.92,443.826  c10.418-2.996,20.661-2.83,31.504,0"/>
<path fill-rule="evenodd" clip-rule="evenodd" fill="#FFFFFF" stroke="#000000" stroke-linecap="square" stroke-miterlimit="10" d="  M418.424,443.826C481.153,503.165,431.915,434.638,418.424,443.826L418.424,443.826z"/>
<line fill="none" stroke="#FF0000" stroke-linecap="square" stroke-miterlimit="10" x1="429.674" y1="449.076" x2="449.174" y2="467.826"/>
<path fill-rule="evenodd" clip-rule="evenodd" fill="#FFFFFF" d="M461.924,374.078c-1.811-5.565-2.733-11.416-3-17.25  c4.47,6.501,10.543,9.341,15.75,15c-2.373-4.21-2.234-12.407-4.5-17.25c11.406,3.152,24.776-5.08,36-11.25  C491.424,353.578,476.674,363.828,461.924,374.078z"/>
<path fill="none" stroke="#000000" stroke-linecap="square" stroke-miterlimit="10" d="M461.924,374.078  c-1.811-5.565-2.733-11.416-3-17.25c4.47,6.501,10.543,9.341,15.75,15c-2.373-4.21-2.234-12.407-4.5-17.25  c11.406,3.152,24.776-5.08,36-11.25"/>
<path fill-rule="evenodd" clip-rule="evenodd" fill="#FFFFFF" d="M358.42,352.328c-2.094,5.163-5.012,10.025-7.5,15  c1.05-5.233-0.403-10.085,0-15c-3.035,2.59-6.763,4.595-9.75,7.5c-4.919-9.906-16.147-7.837-26.25-10.5  C329.42,350.328,343.92,351.328,358.42,352.328z"/>
<path fill="none" stroke="#000000" stroke-linecap="square" stroke-miterlimit="10" d="M358.42,352.328  c-2.094,5.163-5.012,10.025-7.5,15c1.05-5.233-0.403-10.085,0-15c-3.035,2.59-6.763,4.595-9.75,7.5  c-4.919-9.906-16.147-7.837-26.25-10.5"/>
<path fill="none" stroke="#000000" stroke-linecap="square" stroke-miterlimit="10" d="M352.42,388.328  c1.159,5.416,1.261,10.999,2.25,16.5c-2.319-5.182-6.295-7.763-9-12c-0.5,4.061-2.364,7.957-3,12  c-10.094-5.429-18.176,2.983-27.75,6.75"/>
<path fill-rule="evenodd" clip-rule="evenodd" fill="#EBD8C3" stroke="#000000" stroke-width="0.5" stroke-linecap="square" stroke-miterlimit="10" d="  M443.924,386.078c2.187,5.205,8.167,4.561,3,11.25C444.196,393.618,445.594,390.052,443.924,386.078z"/>
<path fill-rule="evenodd" clip-rule="evenodd" fill="#EBD8C3" stroke="#000000" stroke-width="0.5" stroke-linecap="square" stroke-miterlimit="10" d="  M440.174,370.328c3.636,4.183,9.219,1.325,6,9C442.649,377.163,443.063,373.652,440.174,370.328z"/>
</svg>