<svg xmlns="http://www.w3.org/2000/svg" xmlns:xlink="http://www.w3.org/1999/xlink" version="1.1" id="Layer_1" x="0px" y="0px" enable-background="new 0 0 822.05 841.89" xml:space="preserve" viewBox="302.21 346.81 214.44 146.33">
<path fill-rule="evenodd" clip-rule="evenodd" fill="#FF7F00" d="M515,351.39c-45.255,0-90.51,0-135.765,0  c-22.493,0-44.985,0-67.479,0c-4.176,0-6.946,42.185-3.006,46.5c12.644,13.851,116.399,0,135.765,0c22.493,0,44.986,0,67.479,0  C518.719,397.89,515,359.055,515,351.39z"/>
<path fill-rule="evenodd" clip-rule="evenodd" fill="#FFFFFF" d="M515,397.89c-45.255,0-90.51,0-135.765,0  c-22.493,0-44.985,0-67.479,0c-4.14,0-6.997,42.925-3.006,47.25c12.839,13.915,116.244,0,135.765,0c22.493,0,44.986,0,67.479,0  C518.721,445.14,515,405.624,515,397.89z"/>
<path fill-rule="evenodd" clip-rule="evenodd" fill="#26AE2C" d="M308.75,445.14c0,5.13-0.825,45.75,0.771,45.75  c19.787,0,39.574,0,59.361,0c31.963,0,63.927,0,95.89,0c6.546,0,45.664,5.055,50.229,0c3.116-3.45-1.376-45.75-0.771-45.75  c-19.787,0-39.574,0-59.36,0C406.163,445.14,357.456,445.14,308.75,445.14z"/>
<path fill="none" stroke="#000000" stroke-linecap="square" stroke-miterlimit="10" d="M514.25,490.89c-63.185,0-126.37,0-189.555,0  c-27.818,0-17.445-16.577-17.445-43.083c0-14.753-10.226-87.111,0-97.167c7.621-7.494,60.357,0,70.741,0  c39.604,0,79.209,0,118.813,0c27.818,0,17.445,16.577,17.445,43.083C514.25,426.112,514.25,458.501,514.25,490.89z"/>
<path fill-rule="evenodd" clip-rule="evenodd" fill="#5250AC" d="M411.5,401.64c-26.519,0.834-26.083,40.195,0,39.75  C437.077,440.954,436.917,402.571,411.5,401.64z M426.5,412.89c-2.011,1.923-0.002,6.698-9.75,6  C420,416.89,423.25,414.89,426.5,412.89z M422.75,409.89c2.521-2.521-4.057,5.53-6.75,6.75  C417.22,413.947,425.271,407.37,422.75,409.89z M416,421.14C405.393,422.953,405.035,419.72,416,421.14L416,421.14z M416,404.64  c0.026,2.808,4.835,4.625-2.25,11.25C414.5,412.14,415.25,408.39,416,404.64z M411.5,404.64c0.14-3.482,0.325,9.338,0,10.5  C410.139,411.69,411.593,402.323,411.5,404.64z M404.75,406.14c-1.181-2.589,4.248,7.061,4.5,9.75  C407.374,413.939,403.338,403.044,404.75,406.14z M399.5,409.89c-2.419-2.158,6.071,3.973,7.5,6.75  C404.607,415.634,396.448,407.168,399.5,409.89z M395.75,412.89c3.25,2,6.5,4,9.75,6C395.751,419.588,397.761,414.813,395.75,412.89  z M393.5,419.64c3.75,0.5,7.5,1,11.25,1.5C395.708,425.295,396.104,420.539,393.5,419.64z M395.75,430.14  c2.072-2.144,0.095-6.868,9.75-6.75C402.25,425.64,399,427.89,395.75,430.14z M399.5,433.14c-2.654,2.654,4.991-6.299,7.5-7.5  C405.798,428.149,396.846,435.794,399.5,433.14z M406.25,438.39c-0.026-2.808-4.834-4.625,2.25-11.25  C407.75,430.89,407,434.64,406.25,438.39z M411.5,437.64c0.197,4.306-1.158-6.525,0-9.75  C411.664,428.544,411.772,443.593,411.5,437.64z M417.5,436.89c1.154,3.081-3.659-7.303-3.75-9.75  C415.761,429.424,418.505,439.572,417.5,436.89z M422.75,433.14c2.723,3.052-5.744-5.107-6.75-7.5  C418.777,427.069,424.908,435.56,422.75,433.14z M426.5,430.14c-3.25-2-6.5-4-9.75-6C426.498,423.443,424.489,428.217,426.5,430.14z   M417.5,421.14c3.75-0.5,7.5-1,11.25-1.5c-1.03,1.177-1.03,2.427,0,3.75C425,422.64,421.25,421.89,417.5,421.14z"/>
<path fill-rule="evenodd" clip-rule="evenodd" fill="#5250AC" d="M413.75,421.14c-2.235,0.272-2.239,6.352-5.25,0  C411.355,416.571,412.021,421.351,413.75,421.14z"/>
</svg>