<svg xmlns="http://www.w3.org/2000/svg" xmlns:xlink="http://www.w3.org/1999/xlink" version="1.1" id="Layer_1" x="0px" y="0px" enable-background="new 0 0 822.05 841.89" xml:space="preserve" viewBox="211.49 250.92 400.28 339.9">
<path fill-rule="evenodd" clip-rule="evenodd" fill="#BCBEC0" stroke="#000000" stroke-width="2" stroke-linecap="square" stroke-miterlimit="10" d="  M265.764,310.89c-8.177,37.296-1.258,103.726-24,133.5c46.652,4.734,75.912,15.574,77.25,63.75  c27.635-23.271,29.122-27.501,35.306-62.306c6.424-36.157,12.848-72.314,19.271-108.471  C379.041,306.688,283.516,306.002,265.764,310.89z"/>
<path fill="none" stroke="#000000" stroke-width="2" stroke-linecap="square" stroke-miterlimit="10" d="M265.764,310.89  c29.267,15.878,75.27,48.705,106.5,22.5"/>
<path fill="none" stroke="#000000" stroke-width="2" stroke-linecap="square" stroke-miterlimit="10" d="M347.514,344.64  c-4.84,35.42,1.249,112.397-29.25,136.5"/>
<path fill="none" stroke="#000000" stroke-width="2" stroke-linecap="square" stroke-miterlimit="10" d="M247.764,436.89  c45.227,6.509,80.448,14.141,84,61.5"/>
<path fill-rule="evenodd" clip-rule="evenodd" fill="#7BD3F7" stroke="#000000" stroke-width="2" stroke-linecap="square" stroke-miterlimit="10" d="  M236.514,447.39c-24.616,29.231-39.304,60.436,1.5,81.75c17.916,9.358,45.112,20.566,60.639,4.223  C349.9,479.417,287.886,451.543,236.514,447.39z"/>
<path fill="none" stroke="#000000" stroke-width="2" stroke-linecap="square" stroke-miterlimit="10" d="M212.514,475.89  c48.511-12.732,77.721,19.977,78.75,65.25"/>
<line fill="none" stroke="#000000" stroke-width="2" stroke-linecap="square" stroke-miterlimit="10" x1="290.514" y1="508.14" x2="314.514" y2="484.14"/>
<path fill-rule="evenodd" clip-rule="evenodd" fill="#438CB2" stroke="#000000" stroke-width="2" stroke-linecap="square" stroke-miterlimit="10" d="  M285.264,316.89c1.5-16,3-32,4.5-48c20.741,3.519,41.481,7.037,62.222,10.556c25.779,4.373,21.778,3.695,18.403,29.944  C363.354,364.099,321.74,333.05,285.264,316.89z"/>
<line fill="none" stroke="#000000" stroke-width="2" stroke-linecap="square" stroke-miterlimit="10" x1="343.014" y1="280.14" x2="337.014" y2="338.64"/>
<path fill-rule="evenodd" clip-rule="evenodd" fill="#6E91A3" stroke="#000000" stroke-width="2" stroke-linecap="square" stroke-miterlimit="10" d="  M375.264,280.89c-13.32,19.028-89.532,13.498-84.75-15C295.306,237.333,370.24,257.752,375.264,280.89z"/>
<path fill-rule="evenodd" clip-rule="evenodd" fill="#BCBEC0" stroke="#000000" stroke-width="2" stroke-linecap="square" stroke-miterlimit="10" d="  M384.264,331.89c-7.799,35.677-0.762,106.892-24,133.5c46.553,5.296,76.633,14.451,78.002,63.75  c27.477-24.506,28.748-30.337,35.146-66.167c6.222-34.839,12.443-69.678,18.664-104.517  C497.575,327.659,402.541,325.501,384.264,331.89z"/>
<path fill="none" stroke="#000000" stroke-width="2" stroke-linecap="square" stroke-miterlimit="10" d="M384.264,331.89  c30.696,16.779,73.639,46.662,106.502,22.5"/>
<path fill="none" stroke="#000000" stroke-width="2" stroke-linecap="square" stroke-miterlimit="10" d="M466.016,365.64  c-4.897,35.841,1.1,111.154-28.5,136.5"/>
<path fill="none" stroke="#000000" stroke-width="2" stroke-linecap="square" stroke-miterlimit="10" d="M367.014,457.89  c44.625,7.05,79.592,13.173,83.252,60.75"/>
<path fill-rule="evenodd" clip-rule="evenodd" fill="#7BD3F7" stroke="#000000" stroke-width="2" stroke-linecap="square" stroke-miterlimit="10" d="  M355.014,468.39c-24.947,29.624-38.97,59.627,1.5,81c17.804,9.402,45.033,21.178,60.834,4.973  C470.001,500.363,405.94,472.507,355.014,468.39z"/>
<path fill="none" stroke="#000000" stroke-width="2" stroke-linecap="square" stroke-miterlimit="10" d="M331.014,496.89  c48.162-16.178,77.782,22.653,78.75,65.25"/>
<line fill="none" stroke="#000000" stroke-width="2" stroke-linecap="square" stroke-miterlimit="10" x1="409.014" y1="529.14" x2="433.766" y2="504.39"/>
<path fill-rule="evenodd" clip-rule="evenodd" fill="#438CB2" stroke="#000000" stroke-width="2" stroke-linecap="square" stroke-miterlimit="10" d="  M403.764,337.89c1.5-16,3-32,4.5-48c20.741,3.519,41.482,7.037,62.224,10.556c25.779,4.373,21.778,3.694,18.403,29.944  C481.856,385.099,440.24,354.05,403.764,337.89z"/>
<line fill="none" stroke="#000000" stroke-width="2" stroke-linecap="square" stroke-miterlimit="10" x1="461.516" y1="301.14" x2="455.516" y2="359.64"/>
<path fill-rule="evenodd" clip-rule="evenodd" fill="#6E91A3" stroke="#000000" stroke-width="2" stroke-linecap="square" stroke-miterlimit="10" d="  M493.766,301.14c-12.192,20.458-88.737,13.834-84.752-14.25C413.001,258.793,488.422,278.378,493.766,301.14z"/>
<path fill-rule="evenodd" clip-rule="evenodd" fill="#BCBEC0" stroke="#000000" stroke-width="2" stroke-linecap="square" stroke-miterlimit="10" d="  M502.016,359.64c-8.075,35.715-1.148,106.469-24.75,133.5c46.726,2.188,76.727,16.651,78,63.75  c26.635-23.755,28.441-28.643,34.556-63.056c6.259-35.227,12.517-70.453,18.775-105.679  C614.452,355.197,520.867,352.099,502.016,359.64z"/>
<path fill="none" stroke="#000000" stroke-width="2" stroke-linecap="square" stroke-miterlimit="10" d="M502.016,359.64  c29.812,14.906,74.436,48.026,105.75,21.75"/>
<path fill="none" stroke="#000000" stroke-width="2" stroke-linecap="square" stroke-miterlimit="10" d="M583.016,392.64  c-4.604,35.293,1.964,112.519-28.5,136.5"/>
<path fill="none" stroke="#000000" stroke-width="2" stroke-linecap="square" stroke-miterlimit="10" d="M484.016,485.64  c45.136,5.762,80.465,13.616,84,60.75"/>
<path fill-rule="evenodd" clip-rule="evenodd" fill="#7BD3F7" stroke="#000000" stroke-width="2" stroke-linecap="square" stroke-miterlimit="10" d="  M472.016,496.14c-24.94,28.838-39.206,60.174,1.5,81c18.317,9.372,44.481,20.769,60.833,4.417  C589.118,526.788,521.338,501.119,472.016,496.14z"/>
<path fill="none" stroke="#000000" stroke-width="2" stroke-linecap="square" stroke-miterlimit="10" d="M448.016,523.89  c48.91-10.288,77.648,17.873,78.75,65.25"/>
<line fill="none" stroke="#000000" stroke-width="2" stroke-linecap="square" stroke-miterlimit="10" x1="526.016" y1="556.89" x2="550.766" y2="532.14"/>
<path fill-rule="evenodd" clip-rule="evenodd" fill="#438CB2" stroke="#000000" stroke-width="2" stroke-linecap="square" stroke-miterlimit="10" d="  M520.766,365.64c1.5-16.25,3-32.5,4.5-48.75c20.74,3.519,41.481,7.037,62.223,10.556c25.778,4.373,21.777,3.695,18.402,29.944  C598.896,411.796,557.43,381.419,520.766,365.64z"/>
<line fill="none" stroke="#000000" stroke-width="2" stroke-linecap="square" stroke-miterlimit="10" x1="578.516" y1="328.14" x2="573.266" y2="386.64"/>
<path fill-rule="evenodd" clip-rule="evenodd" fill="#6E91A3" stroke="#000000" stroke-width="2" stroke-linecap="square" stroke-miterlimit="10" d="  M610.766,328.89c-13.507,21.733-78.969,13.908-84.375-13.125C522.061,294.117,604.896,300.011,610.766,328.89z"/>
</svg>