<svg xmlns="http://www.w3.org/2000/svg" xmlns:xlink="http://www.w3.org/1999/xlink" version="1.1" id="Layer_1" x="0px" y="0px" enable-background="new 0 0 822.05 841.89" xml:space="preserve" viewBox="301.5 333.68 218.75 172.46">
<path fill-rule="evenodd" clip-rule="evenodd" fill="#FFFFFF" d="M302.125,471.89h217.5H302.125z"/>
<line fill="none" stroke="#000000" stroke-width="1.25" stroke-linecap="square" stroke-miterlimit="10" x1="302.125" y1="471.89" x2="519.625" y2="471.89"/>
<path fill-rule="evenodd" clip-rule="evenodd" fill="#F5150D" stroke="#000000" stroke-width="1.25" stroke-linecap="square" stroke-miterlimit="10" d="  M500.125,471.89c-1.233,28.257-44.672,28.664-45,0C454.789,442.551,499.519,442.673,500.125,471.89z"/>
<path fill-rule="evenodd" clip-rule="evenodd" fill="#D5D3D4" d="M374.875,426.89c-18.471,0.562-47.942-0.223-59.25-16.5  c0,26.5,0,53,0,79.5c16.649-25.296,98.733-25.25,114.75,0c0-25.25,0-50.5,0-75.75C415.871,425.598,392.931,427.512,374.875,426.89z"/>
<path fill-rule="evenodd" clip-rule="evenodd" fill="#EAE8E8" d="M315.625,408.14c0,26.458-11.469,71.151,9.75,88.5  c16.002,13.084,70.53,11.234,87.75,2.25c28.879-15.068,16.5-49.423,16.5-80.398C429.625,404.1,333.649,408.733,315.625,408.14z"/>
<path fill="none" stroke="#000000" stroke-width="4" stroke-linecap="square" stroke-miterlimit="10" d="M315.625,408.14  c0,61.769-14.18,96,57,96c69.743,0,57-31.551,57-92.25"/>
<path fill="none" stroke="#000000" stroke-width="1.25" stroke-linecap="square" stroke-miterlimit="10" d="M429.625,489.14  c-0.338-3.075-2.425-5.634-5.25-6.75"/>
<path fill="none" stroke="#000000" stroke-width="1.25" stroke-linecap="square" stroke-miterlimit="10" d="M419.125,479.39  c-2.558-1.37-5.407-2.16-8.25-2.25"/>
<path fill="none" stroke="#000000" stroke-width="1.25" stroke-linecap="square" stroke-miterlimit="10" d="M404.875,475.64  c-3-0.5-6-1-9-1.5"/>
<path fill="none" stroke="#000000" stroke-width="1.25" stroke-linecap="square" stroke-miterlimit="10" d="M389.875,473.39  c-2.974-0.528-5.985-0.779-9-0.75"/>
<path fill="none" stroke="#000000" stroke-width="1.25" stroke-linecap="square" stroke-miterlimit="10" d="M374.875,472.64  c-3,0-6,0-9,0"/>
<line fill="none" stroke="#000000" stroke-width="1.25" stroke-linecap="square" stroke-miterlimit="10" x1="359.875" y1="473.39" x2="350.875" y2="474.14"/>
<path fill="none" stroke="#000000" stroke-width="1.25" stroke-linecap="square" stroke-miterlimit="10" d="M344.875,474.89  c-2.763,0.428-5.513,0.928-8.25,1.5"/>
<path fill="none" stroke="#000000" stroke-width="1.25" stroke-linecap="square" stroke-miterlimit="10" d="M330.625,477.89  c-2.808,1.123-5.559,2.373-8.25,3.75"/>
<path fill="none" stroke="#000000" stroke-width="1.25" stroke-linecap="square" stroke-miterlimit="10" d="M317.125,484.64  c-0.991,1.336-1.521,2.879-1.5,4.5"/>
<path fill-rule="evenodd" clip-rule="evenodd" fill="#EE5C5D" stroke="#000000" stroke-width="1.25" stroke-linecap="square" stroke-miterlimit="10" d="  M398.125,467.39c-2.248,28.523-44.72,28.849-45,0C352.84,438.022,395.659,438.428,398.125,467.39z"/>
<path fill-rule="evenodd" clip-rule="evenodd" fill="#D5D3D4" stroke="#000000" stroke-width="1.25" stroke-linecap="square" stroke-miterlimit="10" d="  M429.625,409.64c-12.291,18.017-112.873,28.194-114,0C314.542,382.559,418.13,389.396,429.625,409.64z"/>
<path fill-rule="evenodd" clip-rule="evenodd" fill="#F8130D" stroke="#000000" stroke-width="1.5" stroke-linecap="square" stroke-miterlimit="10" d="  M380.875,376.64c0-3.647,2.112-56.939-13.5-38.25c-9.617,11.512,14.017,41.143-10.5,38.25c6,12.75,12,25.5,18,38.25  c5.5-12.75,11-25.5,16.5-38.25C387.875,376.64,384.375,376.64,380.875,376.64z"/>
</svg>