<svg xmlns="http://www.w3.org/2000/svg" xmlns:xlink="http://www.w3.org/1999/xlink" version="1.1" id="Layer_1" x="0px" y="0px" enable-background="new 0 0 822.05 841.89" xml:space="preserve" viewBox="305.84 337.64 208.51 167.22">
<path fill-rule="evenodd" clip-rule="evenodd" fill="#828282" stroke="#000000" stroke-width="0.5" stroke-linecap="square" stroke-miterlimit="10" d="  M427.104,376.89c-2.501,20.642-32.001,21.58-32.25,0C394.599,354.791,425.046,355.814,427.104,376.89z"/>
<path fill-rule="evenodd" clip-rule="evenodd" fill="#684E28" stroke="#000000" stroke-width="0.5" stroke-linecap="square" stroke-miterlimit="10" d="  M512.604,503.642C477.668,511.582,522.155,466.773,512.604,503.642L512.604,503.642z"/>
<path fill-rule="evenodd" clip-rule="evenodd" fill="#684E28" stroke="#000000" stroke-width="0.5" stroke-linecap="square" stroke-miterlimit="10" d="  M319.854,503.642C284.33,511.421,329.996,465.443,319.854,503.642L319.854,503.642z"/>
<path fill-rule="evenodd" clip-rule="evenodd" fill="#684E28" stroke="#000000" stroke-width="0.5" stroke-linecap="square" stroke-miterlimit="10" d="  M306.354,483.392c11.282-11.282,26.793-35.08,41.25-41.25c14.782-6.309,46.047,0,61.874,0c26.518,0,53.034,0,79.552,0  c10.725,0,20.359,31.988,25.074,41.25C444.854,483.392,375.604,483.392,306.354,483.392z"/>
<path fill-rule="evenodd" clip-rule="evenodd" fill="#684E28" stroke="#000000" stroke-width="0.5" stroke-linecap="square" stroke-miterlimit="10" d="  M514.104,483.392c-41.843,0-83.686,0-125.528,0c-23.335,0-46.67,0-70.006,0c-17.539,0-14.039,9.75,2.978,9.75  c31.676,0,63.65-3.75,95.487-3.75C435.937,489.392,514.342,500.803,514.104,483.392z"/>
<path fill-rule="evenodd" clip-rule="evenodd" fill="#20465B" stroke="#000000" stroke-width="0.5" stroke-linecap="square" stroke-miterlimit="10" d="  M381.354,444.392c-5,9.75-10,19.5-15,29.25c29-0.5,58-1,87-1.5C431.96,437.727,421.904,444.392,381.354,444.392z"/>
<path fill-rule="evenodd" clip-rule="evenodd" fill="#FFFFFF" stroke="#000000" stroke-width="0.5" stroke-linecap="square" stroke-miterlimit="10" d="  M331.104,447.392c20.789-1.642,32.378-6.016,41.25,16.5C353.538,465.068,330.447,474.373,331.104,447.392z"/>
<path fill-rule="evenodd" clip-rule="evenodd" fill="#B2B2B2" stroke="#000000" stroke-width="0.5" stroke-linecap="square" stroke-miterlimit="10" d="  M329.604,445.142c20.789-1.642,32.378-6.016,41.25,16.5C352.015,462.844,329.864,471.794,329.604,445.142z"/>
<path fill-rule="evenodd" clip-rule="evenodd" fill="#FFFFFF" stroke="#000000" stroke-width="0.5" stroke-linecap="square" stroke-miterlimit="10" d="  M331.854,443.642c18.958-1.497,33.633-6.642,41.25,15.75C354.32,460.958,331.211,470.818,331.854,443.642z"/>
<path fill-rule="evenodd" clip-rule="evenodd" fill="#FFFFFF" stroke="#000000" stroke-width="0.5" stroke-linecap="square" stroke-miterlimit="10" d="  M333.354,440.642c18.958-1.497,33.633-6.642,41.25,15.75C355.82,457.958,332.711,467.818,333.354,440.642z"/>
<path fill-rule="evenodd" clip-rule="evenodd" fill="#B2B2B2" stroke="#000000" stroke-width="0.5" stroke-linecap="square" stroke-miterlimit="10" d="  M333.354,439.142c18.958-1.497,33.633-6.642,41.25,15.75C355.794,456.493,333.629,465.995,333.354,439.142z"/>
<path fill-rule="evenodd" clip-rule="evenodd" fill="#D0F1FC" stroke="#000000" stroke-width="0.5" stroke-linecap="square" stroke-miterlimit="10" d="  M324.354,447.392c24.621,0,37.43-5.402,34.5,24.75c-12.25,0-24.5,0-36.75,0C322.814,464.324,322.144,454.898,324.354,447.392z"/>
<path fill-rule="evenodd" clip-rule="evenodd" fill="#D0F1FC" stroke="#000000" stroke-width="0.5" stroke-linecap="square" stroke-miterlimit="10" d="  M324.354,445.892c24.505,0,36.413-5.016,34.5,24.75c-12,0-24,0-36,0C323.328,462.822,322.378,453.446,324.354,445.892z"/>
<path fill-rule="evenodd" clip-rule="evenodd" fill="#D0F1FC" stroke="#000000" stroke-width="0.5" stroke-linecap="square" stroke-miterlimit="10" d="  M326.604,448.892C325.798,446.636,324.454,442.867,326.604,448.892L326.604,448.892z"/>
<path fill-rule="evenodd" clip-rule="evenodd" fill="#D0F1FC" stroke="#000000" stroke-width="0.5" stroke-linecap="square" stroke-miterlimit="10" d="  M331.104,448.892C329.456,446.077,328.037,443.654,331.104,448.892L331.104,448.892z"/>
<path fill-rule="evenodd" clip-rule="evenodd" fill="#D0F1FC" stroke="#000000" stroke-width="0.5" stroke-linecap="square" stroke-miterlimit="10" d="  M334.854,448.892C334.048,446.636,332.704,442.867,334.854,448.892L334.854,448.892z"/>
<path fill-rule="evenodd" clip-rule="evenodd" fill="#D0F1FC" stroke="#000000" stroke-width="0.5" stroke-linecap="square" stroke-miterlimit="10" d="  M355.854,448.892C355.048,446.636,353.704,442.867,355.854,448.892L355.854,448.892z"/>
<path fill-rule="evenodd" clip-rule="evenodd" fill="#D0F1FC" stroke="#000000" stroke-width="0.5" stroke-linecap="square" stroke-miterlimit="10" d="  M352.104,448.892C350.456,446.077,349.037,443.654,352.104,448.892L352.104,448.892z"/>
<path fill-rule="evenodd" clip-rule="evenodd" fill="#D0F1FC" stroke="#000000" stroke-width="0.5" stroke-linecap="square" stroke-miterlimit="10" d="  M347.604,448.892C345.956,446.077,344.537,443.654,347.604,448.892L347.604,448.892z"/>
<path fill-rule="evenodd" clip-rule="evenodd" fill="#D0F1FC" stroke="#000000" stroke-width="0.5" stroke-linecap="square" stroke-miterlimit="10" d="  M343.854,448.892C342.206,446.077,340.787,443.654,343.854,448.892L343.854,448.892z"/>
<path fill-rule="evenodd" clip-rule="evenodd" fill="#D0F1FC" stroke="#000000" stroke-width="0.5" stroke-linecap="square" stroke-miterlimit="10" d="  M339.354,448.892C337.706,446.077,336.287,443.654,339.354,448.892L339.354,448.892z"/>
<path fill-rule="evenodd" clip-rule="evenodd" fill="#684E28" stroke="#000000" stroke-width="0.5" stroke-linecap="square" stroke-miterlimit="10" d="  M445.854,427.142c-11.685,0-103.15,10.065-72.75-26.252c4.681-5.592,49.17,0,57.036,0  C449.869,400.89,448.449,406.25,445.854,427.142z"/>
<path fill-rule="evenodd" clip-rule="evenodd" fill="#FFFFFF" stroke="#000000" stroke-width="0.5" stroke-linecap="square" stroke-miterlimit="10" d="  M424.854,407.64C366.206,421.634,427.89,372.128,424.854,407.64L424.854,407.64z"/>
<path fill-rule="evenodd" clip-rule="evenodd" stroke="#000000" stroke-width="0.5" stroke-linecap="square" stroke-miterlimit="10" d="  M422.604,403.14c9.552,10.352,19.879,26.328,25.5,35.252C442.795,425.25,434.513,408.381,422.604,403.14z"/>
<path fill-rule="evenodd" clip-rule="evenodd" fill="#E8C8A6" stroke="#000000" stroke-width="0.5" stroke-linecap="square" stroke-miterlimit="10" d="  M391.854,403.89c6.179-4.021,11.243-1.397,13.5-9.75c0.112,0.835-0.138,1.585-0.75,2.25c17.336-2.081,23.058,5.457,19.125,19.876  C416.4,443.139,380.142,424.577,391.854,403.89z"/>
<path fill-rule="evenodd" clip-rule="evenodd" fill="#FFFFFF" stroke="#000000" stroke-width="0.5" stroke-linecap="square" stroke-miterlimit="10" d="  M433.104,440.642c-0.935-5.49,0-11.664,0-17.252c0.75,3.001,1.5,6.001,2.25,9.002c39.528-14.572-8.207-25.271-15-27.002  c-8.076-2.058-8.191,8.435-19.875-1.125c-9.582-7.84-26.161,4.528-34.125,10.875c4.847,12.605,12.764,18.204,22.5,7.5  c-2.783,5.468-1.567,12.981-3.75,18.752C401.104,441.142,417.104,440.892,433.104,440.642z"/>
<path fill-rule="evenodd" clip-rule="evenodd" fill="#FFFFFF" stroke="#000000" stroke-width="0.5" stroke-linecap="square" stroke-miterlimit="10" d="  M395.604,400.89c8.228-2.787,18.169,8.55,9.75,21C402.233,415.17,397.537,408.023,395.604,400.89z"/>
<path fill-rule="evenodd" clip-rule="evenodd" fill="#FFFFFF" stroke="#000000" stroke-width="0.5" stroke-linecap="square" stroke-miterlimit="10" d="  M425.604,401.64c-7.567-3.46-15.211,8.82-9,21C419.521,415.833,423.672,408.776,425.604,401.64z"/>
<path fill-rule="evenodd" clip-rule="evenodd" fill="#060949" stroke="#000000" stroke-width="0.5" stroke-linecap="square" stroke-miterlimit="10" d="  M415.854,430.142c-0.777-5.515-1.15-10.011-3.75-15.002c-0.5,0-1,0-1.5,0C402.963,430.482,412.865,453.694,415.854,430.142z"/>
<path fill-rule="evenodd" clip-rule="evenodd" fill="#060949" stroke="#000000" stroke-width="0.5" stroke-linecap="square" stroke-miterlimit="10" d="  M413.604,414.39C407.997,414.58,408.517,414.562,413.604,414.39L413.604,414.39z"/>
<path fill-rule="evenodd" clip-rule="evenodd" fill="#E8C8A6" stroke="#000000" stroke-width="0.5" stroke-linecap="square" stroke-miterlimit="10" d="  M394.104,382.14C397.404,382.14,397.404,382.14,394.104,382.14L394.104,382.14z"/>
<path fill-rule="evenodd" clip-rule="evenodd" fill="#E8C8A6" stroke="#000000" stroke-width="0.5" stroke-linecap="square" stroke-miterlimit="10" d="  M423.354,382.14C427.903,382.14,427.903,382.14,423.354,382.14L423.354,382.14z"/>
<path fill-rule="evenodd" clip-rule="evenodd" fill="#E8C8A6" stroke="#000000" stroke-width="0.5" stroke-linecap="square" stroke-miterlimit="10" d="  M421.854,367.89c-12.437,3.598-29.808-3.541-25.125,19.875C401.809,413.168,438.395,391.686,421.854,367.89z"/>
<path fill-rule="evenodd" clip-rule="evenodd" fill="#FFFFFF" stroke="#000000" stroke-width="0.5" stroke-linecap="square" stroke-miterlimit="10" d="  M383.604,451.892c6.581,6.591,25.263,3.969,36-2.25C407.604,450.392,395.604,451.142,383.604,451.892z"/>
<path fill-rule="evenodd" clip-rule="evenodd" fill="#FFFFFF" stroke="#000000" stroke-width="0.5" stroke-linecap="square" stroke-miterlimit="10" d="  M394.854,428.642c10,0,20,0,30,0c0.093,31.434-10.113,27.534-39,26.25C395.67,450.118,398.556,439.659,394.854,428.642z"/>
<path fill-rule="evenodd" clip-rule="evenodd" fill="#101177" stroke="#000000" stroke-width="0.5" stroke-linecap="square" stroke-miterlimit="10" d="  M366.354,451.142c-0.43-0.523-7.765-6.916-9.75-12C360.23,440.861,363.18,446.382,366.354,451.142z"/>
<path fill-rule="evenodd" clip-rule="evenodd" fill="#101177" stroke="#000000" stroke-width="0.5" stroke-linecap="square" stroke-miterlimit="10" d="  M430.104,466.142c-4.045-2.525-17.541-4.849-24-3.75C414.079,463.638,422.08,465.267,430.104,466.142z"/>
<path fill-rule="evenodd" clip-rule="evenodd" fill="#E8C8A6" stroke="#000000" stroke-width="0.5" stroke-linecap="square" stroke-miterlimit="10" d="  M445.854,439.142c-6.051,7.416-13.213,14.076-21,19.5C435.063,456.548,445.756,448.001,445.854,439.142z"/>
<path fill-rule="evenodd" clip-rule="evenodd" stroke="#000000" stroke-width="0.5" stroke-linecap="square" stroke-miterlimit="10" d="  M444.354,442.892c1.043-1.607-1.364-4.08,3-4.5C448.887,442.212,445.443,441.212,444.354,442.892z"/>
<path fill-rule="evenodd" clip-rule="evenodd" fill="#E8C8A6" stroke="#000000" stroke-width="0.5" stroke-linecap="square" stroke-miterlimit="10" d="  M413.604,466.892c4.527-4.664,5.798-10.949,15-6.75C424.77,467.322,420.104,465.89,413.604,466.892z"/>
<path fill-rule="evenodd" clip-rule="evenodd" fill="#E8C8A6" stroke="#000000" stroke-width="0.5" stroke-linecap="square" stroke-miterlimit="10" d="  M448.854,455.642c-3.138,4.649-0.327,8.098-6.75,11.25c8.414,0.729,17.827,0.644,26.25,0  C466.071,455.727,460.04,451.324,448.854,455.642z"/>
<path fill-rule="evenodd" clip-rule="evenodd" stroke="#000000" stroke-width="0.5" stroke-linecap="square" stroke-miterlimit="10" d="  M470.604,452.642c7.219-15.498-1.604-46.588-23.25-33.002C425.227,433.528,447.966,474.662,470.604,452.642z"/>
<path fill-rule="evenodd" clip-rule="evenodd" fill="#8CA6F9" stroke="#000000" stroke-width="0.5" stroke-linecap="square" stroke-miterlimit="10" d="  M478.104,483.392c2.846,7.689,3.053,12.087,12.75,12.75c10.646-45.979-77.292-46.414-70.5,0c8.971-4.198,11.362-2.776,15.75-14.25  c-2.535,4.87-2.803,11.248-4.5,16.5c16,0,32,0,48,0C479.125,493.605,479.555,487.953,478.104,483.392z"/>
<path fill-rule="evenodd" clip-rule="evenodd" fill="#684E28" stroke="#000000" stroke-width="0.5" stroke-linecap="square" stroke-miterlimit="10" d="  M491.604,503.642c-8.477,0-95.606,6.847-71.25-18.75C430.735,473.982,499.6,475.132,491.604,503.642z"/>
<path fill-rule="evenodd" clip-rule="evenodd" fill="#8CA6F9" stroke="#000000" stroke-width="0.5" stroke-linecap="square" stroke-miterlimit="10" d="  M442.104,462.392c6.262,0.538,17.582-0.491,26.25-3.75c1,1.5,2,3,3,4.5C461.967,469.719,450.931,469.605,442.104,462.392z"/>
<path fill-rule="evenodd" clip-rule="evenodd" fill="#D0F1FC" stroke="#000000" stroke-width="0.5" stroke-linecap="square" stroke-miterlimit="10" d="  M471.354,337.89c-23.673,1.045-52.368,28.225-18.75,42.75c-6.606,2.805-8.949,6.269-17.25,6.75c17.627,4.06,48.118-1.329,63-11.25  C524.44,358.749,488.098,338.553,471.354,337.89z"/>
<text transform="matrix(1 0 0 1 463.8955 378.4155)" font-family="'ArialMT'" font-size="42">?</text>
<path fill-rule="evenodd" clip-rule="evenodd" fill="#E8C8A6" stroke="#000000" stroke-width="0.5" stroke-linecap="square" stroke-miterlimit="10" d="  M367.104,434.642c3.762-5.338,8.854-5.81,5.25-12.002c-23.399,18.791,10.664,19.363,24,15.752  C386.519,438.331,376.684,437.066,367.104,434.642z"/>
<path fill-rule="evenodd" clip-rule="evenodd" fill="#E8C8A6" stroke="#000000" stroke-width="0.5" stroke-linecap="square" stroke-miterlimit="10" d="  M408.354,442.142c-5.79-3.474-10.359-6.778-18.75-3C395.75,446.397,400.616,444.037,408.354,442.142z"/>
</svg>