<svg xmlns="http://www.w3.org/2000/svg" xmlns:xlink="http://www.w3.org/1999/xlink" version="1.1" id="Layer_1" x="0px" y="0px" enable-background="new 0 0 822.05 841.89" xml:space="preserve" viewBox="297.29 332.55 223.24 178.97">
<path fill-rule="evenodd" clip-rule="evenodd" fill="#EED5B6" stroke="#000000" stroke-width="0.75" stroke-linecap="square" stroke-miterlimit="10" d="  M379.25,410.015c20.005-18.521,30.594-8.222,51.75-1.875c22.505,6.751,14.32,25.125-6.548,25.125  C401.795,433.265,378.722,440.944,379.25,410.015z"/>
<path fill-rule="evenodd" clip-rule="evenodd" fill="#137827" stroke="#000000" stroke-width="0.75" stroke-linecap="square" stroke-miterlimit="10" d="  M323.75,419.015c17.954-4.938,36.277-11.611,54.75-14.25c7.47-1.067,9.952,10.131,18.375,13.5c13.757,5.503,25.871-1.243,33-13.125  c16.771-27.951,31.852,45.075,31.875,45.375c2.068,26.479,7.689,36.648-19.472,37.047c-27.26,0.401-54.519,0.803-81.778,1.203  c5.354-39.84-22.69-19.268-46.5-37.125C300.002,441.142,310.559,424.696,323.75,419.015z"/>
<path fill-rule="evenodd" clip-rule="evenodd" fill="#EED5B6" stroke="#000000" stroke-width="0.75" stroke-linecap="square" stroke-miterlimit="10" d="  M431,371.765C440.701,390.71,446.114,359.189,431,371.765L431,371.765z"/>
<path fill-rule="evenodd" clip-rule="evenodd" fill="#EED5B6" stroke="#000000" stroke-width="0.75" stroke-linecap="square" stroke-miterlimit="10" d="  M371.75,388.265C390.706,395.364,373.644,367.592,371.75,388.265L371.75,388.265z"/>
<path fill-rule="evenodd" clip-rule="evenodd" fill="#EED5B6" stroke="#000000" stroke-width="0.75" stroke-linecap="square" stroke-miterlimit="10" d="  M429.5,353.015c18.559,44.553-35.116,76.378-54,22.875C361.545,336.351,413.782,314.57,429.5,353.015z"/>
<path fill-rule="evenodd" clip-rule="evenodd" fill="#FFFFFF" d="M307.25,446.765L307.25,446.765L307.25,446.765z"/>
<line fill="none" stroke="#000000" stroke-linecap="square" stroke-miterlimit="10" x1="307.25" y1="446.765" x2="307.25" y2="446.765"/>
<path fill-rule="evenodd" clip-rule="evenodd" fill="#FFFFFF" stroke="#000000" stroke-width="0.5" stroke-linecap="square" stroke-miterlimit="10" d="  M518.75,511.265c-43.308,0-86.614,0-129.921,0c-25.432,0-50.864,0-76.296,0c-13.073,0-20.167-20.561-10.532-30.75  c12.708-13.439,111.122,0,129.922,0c25.432,0,50.863,0,76.296,0C526.195,480.515,518.75,494.988,518.75,511.265z"/>
<path fill-rule="evenodd" clip-rule="evenodd" fill="#FB0F0C" stroke="#000000" stroke-width="0.75" stroke-linecap="square" stroke-miterlimit="10" d="  M317.75,480.515c-2.726,7.059-2.577,16.494-3.75,24c51-1,102-2,153-3c-1.75,2.75-3.5,5.5-5.25,8.25  c16.963-0.737,34.202,4.774,40.5-13.5c-12.312-0.552-20.012-5.668-11.25-15.75C433.25,480.515,375.5,480.515,317.75,480.515z"/>
<path fill-rule="evenodd" clip-rule="evenodd" fill="#C7C9C8" stroke="#000000" stroke-width="0.5" stroke-linecap="square" stroke-miterlimit="10" d="  M418.25,486.515c-9.569,11.374-41.001,14.927-53.25,6C382.75,490.515,400.5,488.515,418.25,486.515z"/>
<path fill-rule="evenodd" clip-rule="evenodd" fill="#FFFFFF" stroke="#000000" stroke-width="0.5" stroke-linecap="square" stroke-miterlimit="10" d="  M361.25,458.015c-13.604-1.874-18.139,26.19-4.875,31.875c19.289,8.267,43.381,4.654,62.625-2.625  C401.665,474.315,350.947,499.893,361.25,458.015z"/>
<path fill-rule="evenodd" clip-rule="evenodd" fill="#FFFFFF" stroke="#000000" stroke-width="0.5" stroke-linecap="square" stroke-miterlimit="10" d="  M416.75,482.015c-4.585-8.997-26.121-36.124-20.25-12C364.972,462.996,387.437,496.706,416.75,482.015z"/>
<path fill="none" stroke="#000000" stroke-width="0.5" stroke-linecap="square" stroke-miterlimit="10" d="M371.75,465.515  c-2.894,8.249-9.181,9.441-17.25,5.25"/>
<path fill="none" stroke="#000000" stroke-width="0.5" stroke-linecap="square" stroke-miterlimit="10" d="M401.75,463.265  c0.212,1.338-0.331,2.312-1.5,3"/>
<path fill-rule="evenodd" clip-rule="evenodd" fill="#1B1076" stroke="#000000" stroke-width="0.5" stroke-linecap="square" stroke-miterlimit="10" d="  M416.75,485.015c-13.807,4.092-86.54,12.446-59.25-22.5c10.1-12.934,42.918-7.883,41.25,9.75c-6.048-5.71-17.146-8.884-27.75-7.5  c3.86,0.61,10.001,3.634,15,4.5C372.903,488.557,412.537,481.261,416.75,485.015z"/>
<path fill-rule="evenodd" clip-rule="evenodd" fill="#EED5B6" stroke="#000000" stroke-width="0.5" stroke-linecap="square" stroke-miterlimit="10" d="  M386.75,445.265c3.949,6.265,12.362,4.732,5.25,16.5c-0.5,0-1,0-1.5,0C388.965,456.625,387.258,450.688,386.75,445.265z"/>
<path fill-rule="evenodd" clip-rule="evenodd" fill="#EED5B6" stroke="#000000" stroke-width="0.5" stroke-linecap="square" stroke-miterlimit="10" d="  M381.5,442.265c12.687,5.607,18.283,34.593,6.75,20.25C369.945,479.965,349.486,430.535,381.5,442.265z"/>
<path fill-rule="evenodd" clip-rule="evenodd" fill="#137827" d="M325.25,455.015c13.75,1.75,27.5,3.5,41.25,5.25  c-0.375-11.109-1.89-12.325,3-21.75c-13.478-2.855-26.984-5.581-40.5-8.25C327.812,438.107,324.937,447.116,325.25,455.015z"/>
<path fill="none" stroke="#000000" stroke-width="0.75" stroke-linecap="square" stroke-miterlimit="10" d="M325.25,455.015  c13.75,1.75,27.5,3.5,41.25,5.25c-0.375-11.109-1.89-12.325,3-21.75c-13.478-2.855-26.984-5.581-40.5-8.25"/>
<path fill-rule="evenodd" clip-rule="evenodd" fill="#EED5B6" d="M369.5,451.265c0.308,3.233-0.318,6.306,1.5,9.75  C370.5,457.765,370,454.515,369.5,451.265z"/>
<path fill="none" stroke="#000000" stroke-width="0.5" stroke-linecap="square" stroke-miterlimit="10" d="M369.5,451.265  c-0.713,3.192-0.149,6.627,1.5,9.75"/>
</svg>