<svg xmlns="http://www.w3.org/2000/svg" xmlns:xlink="http://www.w3.org/1999/xlink" version="1.1" id="Layer_1" x="0px" y="0px" enable-background="new 0 0 822.05 841.89" xml:space="preserve" viewBox="195.76 256.33 428.75 332.74">
<path fill-rule="evenodd" clip-rule="evenodd" fill="#C6E9F7" stroke="#000000" stroke-width="2" stroke-linecap="square" stroke-miterlimit="10" d="  M196.758,421.89c109.652,0,219.305,0,328.957,0c9.793,0,97.795-4.213,97.795,3.526c0,53.521,0,107.043,0,160.565  c0,1.842-299.808,0.908-324.813,0.908c-9.972,0-100.399,4.313-100.471-3.526C197.736,529.54,197.247,475.714,196.758,421.89z"/>
<path fill-rule="evenodd" clip-rule="evenodd" fill="#F6F4D7" stroke="#000000" stroke-width="2" stroke-linecap="square" stroke-miterlimit="10" d="  M326.508,467.64c55.629-39.753,140.604-47.569,187.502,10.5c-64.803,16.609-140.323,16.169-205.502,2.25  C314.364,476.242,320.1,470.827,326.508,467.64z"/>
<path fill-rule="evenodd" clip-rule="evenodd" fill="#F9DF58" stroke="#010101" stroke-width="2" stroke-linecap="square" stroke-miterlimit="10" d="  M413.508,445.89c0.503-30.633-0.864-64.188-9-93.75c-5.049-18.346-22.842-38.517-20.25-57c22.398,5.983,31.17,59.283,36.335,78.222  C425.331,390.735,454.869,465.976,413.508,445.89z"/>
<path fill-rule="evenodd" clip-rule="evenodd" fill="#76BC43" stroke="#010101" stroke-width="2" stroke-linecap="square" stroke-miterlimit="10" d="  M388.008,295.14c-28.227,0.668-75.183,12.373-92.25,37.5c4.5-1.75,9-3.5,13.5-5.25c-1.5,2.25-3,4.5-4.5,6.75  c4.766-3.135,9.812-6.173,14.25-9.75c-0.25,2-0.5,4-0.75,6c3-3,6-6,9-9c-0.25,2.5-0.5,5-0.75,7.5c2.5-3,5-6,7.5-9c0,1.5,0,3,0,4.5  c1.75-2.25,3.5-4.5,5.25-6.75c1,2.75,2,5.5,3,8.25c0.75-3,1.5-6,2.25-9c6.632,2.087,2.678,2.487,10.5-3.75c0,1.25,0,2.5,0,3.75  c2.5-2.75,5-5.5,7.5-8.25c0.25,2.5,0.5,5,0.75,7.5c8.552-8.641,7.738-4.173,14.25-14.25c0.25,1.75,0.5,3.5,0.75,5.25  C381.469,303.188,384.391,298.714,388.008,295.14z"/>
<path fill-rule="evenodd" clip-rule="evenodd" fill="#76BC43" stroke="#010101" stroke-width="2" stroke-linecap="square" stroke-miterlimit="10" d="  M379.008,290.64c-17.824-17.961-33.418-20.608-55.5-26.25c0.5,1.75,1,3.5,1.5,5.25c-5.054-1.628-10.525-2.789-15.75-3.75  c1.75,1.25,3.5,2.5,5.25,3.75c-2.75,0-5.5,0-8.25,0c3.45,8.136,4.85,2.91-0.75,9c8.707,6.119,4.154-2.023,6,6.75  c20.81-1.726,46.138,10.911,80.25,12C387.508,295.14,383.258,292.89,379.008,290.64z"/>
<path fill-rule="evenodd" clip-rule="evenodd" fill="#76BC43" stroke="#010101" stroke-width="2" stroke-linecap="square" stroke-miterlimit="10" d="  M390.258,294.39c16.278,5.345,92.764,31.726,64.502,54c-2-3.75-4-7.5-6-11.25c-0.5,2-1,4-1.5,6c-1-2-2-4-3-6  c-1.25,1.5-2.5,3-3.75,4.5c-1.5-2.75-3-5.5-4.5-8.25c-1,1.75-2,3.5-3,5.25c-1.5-2.75-3-5.5-4.5-8.25c-1,2-2,4-3,6  c-9.044-6.745-2.203-5.201-12.002-3.75c-9.492-7.22,0.679-5.836-9.75-5.25c-2.784-6.602-5.471-10.27-7.5-17.25  c-1.078,0.47-4.725,3.268-6,3C390.258,307.192,389.231,300.21,390.258,294.39z"/>
<path fill-rule="evenodd" clip-rule="evenodd" fill="#76BC43" stroke="#010101" stroke-width="2" stroke-linecap="square" stroke-miterlimit="10" d="  M385.008,294.39c17.133-17.234,55.992-25.256,65.252,4.5c-2.5-1-5-2-7.5-3c0,1.75,0,3.5,0,5.25c-9.331-3.141-8.317,0.088-17.25-5.25  c0,1.5,0,3,0,4.5C412.655,296.075,401.495,299.169,385.008,294.39z"/>
<path fill-rule="evenodd" clip-rule="evenodd" fill="#76BC43" stroke="#010101" stroke-width="2" stroke-linecap="square" stroke-miterlimit="10" d="  M380.508,290.64c-20.763-32.747,32.945-45.729,32.25-18.75c-12.03,2.84-24.84,7.915-27,26.25  C384.008,295.64,382.258,293.14,380.508,290.64z"/>
<path fill-rule="evenodd" clip-rule="evenodd" fill="#76BC43" stroke="#010101" stroke-width="2" stroke-linecap="square" stroke-miterlimit="10" d="  M382.008,292.89c-7.5,7.25-15,14.5-22.5,21.75c1.25,0.5,2.5,1,3.75,1.5c-4.209,4.667-5.327,6.806-6.75,12.75c1.25-1,2.5-2,3.75-3  c-0.25,2.5-0.5,5-0.75,7.5c1.25-0.5,2.5-1,3.75-1.5c-1,2.75-2,5.5-3,8.25c1.5-1,3-2,4.5-3c-0.75,2.75-1.5,5.5-2.25,8.25  c1.25-0.75,2.5-1.5,3.75-2.25c0,2.25,0,4.5,0,6.75c5.687-1.445,4.185-0.685,8.25-0.75c4.458-8.628,5.175-10.593,12.75-12.75  C391.65,321.503,393.339,307.516,382.008,292.89z"/>
<path fill="none" stroke="#010101" stroke-width="2" stroke-linecap="square" stroke-miterlimit="10" d="M314.508,272.64  c23.662,5.982,50,7.851,69.75,23.25"/>
<path fill="none" stroke="#010101" stroke-width="2" stroke-linecap="square" stroke-miterlimit="10" d="M448.01,298.14  c-10.519-22.311-42.733-9.683-60.752-5.25"/>
<path fill="none" stroke="#010101" stroke-width="2" stroke-linecap="square" stroke-miterlimit="10" d="M387.258,295.89  c-7.334,16.463-12.022,34.462-12.75,52.5"/>
<path fill="none" stroke="#010101" stroke-width="2" stroke-linecap="square" stroke-miterlimit="10" d="M407.508,259.89  c-21.084-2.938-25.381,17.87-22.5,34.5"/>
<path fill-rule="evenodd" clip-rule="evenodd" fill="#E5B989" stroke="#010101" stroke-linecap="square" stroke-miterlimit="10" d="  M359.508,445.89c11.494-3.095,39.271-15.982,33.75,1.5c6.026,1.765,8.198,3.503,12,6.75c-5.656-0.939-12.218,2.198-18,2.25  c1.627,6.397-1.116,10.861-0.75,15.75c-6.926-8.738-17.115-12.408-27.75-11.25c3.633-1.817,8.019-6.84,12.75-9  C363.751,452.995,361.435,446.733,359.508,445.89z"/>
<line fill="none" stroke="#010101" stroke-linecap="square" stroke-miterlimit="10" x1="397.758" y1="452.64" x2="397.758" y2="452.64"/>
<path fill="none" stroke="#010101" stroke-linecap="square" stroke-miterlimit="10" d="M366.258,446.64  c5.021,0.079,9.858,1.348,14.25,3.75"/>
<path fill="none" stroke="#010101" stroke-linecap="square" stroke-miterlimit="10" d="M384.258,465.39  c-2.746-3.392-3.75-7.574-3-12"/>
<path fill="none" stroke="#010101" stroke-linecap="square" stroke-miterlimit="10" d="M397.758,452.64  c-4.782-1.837-9.877-2.6-15-2.25"/>
<path fill="none" stroke="#010101" stroke-linecap="square" stroke-miterlimit="10" d="M389.508,443.64  c-3.028,0.209-6.054,1.64-7.5,3.75"/>
<path fill="none" stroke="#010101" stroke-linecap="square" stroke-miterlimit="10" d="M376.758,453.39c-3.25,1.5-6.5,3-9.75,4.5"/>
</svg>