<svg xmlns="http://www.w3.org/2000/svg" xmlns:xlink="http://www.w3.org/1999/xlink" version="1.1" id="Layer_1" x="0px" y="0px" enable-background="new 0 0 822.05 841.89" xml:space="preserve" viewBox="302.47 348.03 214.4 146.54">
<path fill-rule="evenodd" clip-rule="evenodd" fill="#339900" d="M307.5,351.39c0,38.741,0,77.482,0,116.224  c0,11.256-5.43,24.026,7.254,24.026c9.938,0,56.13,6.599,62.496,0c12.535-12.992,0-97.246,0-116.224  c0-11.255,5.43-24.026-7.254-24.026C349.164,351.39,328.332,351.39,307.5,351.39z"/>
<path fill-rule="evenodd" clip-rule="evenodd" fill="#FFFFFF" d="M377.25,351.39c0,38.741,0,77.482,0,116.224  c0,11.042-5.4,24.026,7.098,24.026c9.823,0,54.791,6.494,61.152,0c12.471-12.732,0-97.446,0-116.224  c0-11.042,5.399-24.026-7.098-24.026C418.018,351.39,397.634,351.39,377.25,351.39z"/>
<path fill-rule="evenodd" clip-rule="evenodd" fill="#DE2110" d="M514.5,351.39c-25.495,0-69-14.273-69,16.031  c0,20.555-13.416,110.417,0,124.219c5.514,5.672,45.8,0,54.096,0c17.236,0,14.904,0.829,14.904-16.031  C514.5,434.203,514.5,392.796,514.5,351.39z"/>
<path fill="none" stroke="#000000" stroke-linecap="square" stroke-miterlimit="10" d="M514.5,491.64c-63.185,0-126.37,0-189.555,0  c-27.762,0-17.445-16.375-17.445-42.853c0-14.716-10.186-86.594,0-96.647c7.582-7.484,60.389,0,70.741,0  c39.604,0,79.209,0,118.813,0c27.763,0,17.445,16.375,17.445,42.853C514.5,427.208,514.5,459.424,514.5,491.64z"/>
</svg>