<svg xmlns="http://www.w3.org/2000/svg" xmlns:xlink="http://www.w3.org/1999/xlink" version="1.1" id="Layer_1" x="0px" y="0px" enable-background="new 0 0 822.05 841.89" xml:space="preserve" viewBox="207.38 247.61 405.67 348.42">
<path fill-rule="evenodd" clip-rule="evenodd" fill="#90A7D6" stroke="#000000" stroke-width="2" stroke-linecap="square" stroke-miterlimit="10" d="  M308.304,281.171c-27.615,12.855-77.25,36.506-77.25,74.417c0,19.293-10.382,32.467-15,50.833  c-5.804,23.082-5.145,49.73-7.594,73.406c-1.749,16.903,25.608,30.24,29.035,14.578c5.3-24.229,12.102-110.657,41.559-115.734  c2.004,18.04,3.554,131.688,26.832,129.954c26.731-1.991,53.489-3.48,80.084-6.843c43.558-5.508,47.361,1.113,53.195-42.223  c1.944-14.441-33.285-102.664-0.917-90.305c37.235,14.217,35.886,26.838,49.218,64.782c11.847,33.718-1.226,38.164,37.588,39.135  c-4.287-53.048-7.157-86.707-39.984-129.9c-14.555-19.151-25.183-40.375-47.285-50.256c-19.159-8.565-53.264-13.981-55.98-38.844  c-13.808,6.904-23.842,14.843-39.194,12.889C325.452,264.876,305.955,255.673,308.304,281.171z"/>
<line fill="none" stroke="#000000" stroke-width="2" stroke-linecap="square" stroke-miterlimit="10" x1="353.304" y1="268.421" x2="370.554" y2="500.921"/>
<path fill="none" stroke="#000000" stroke-width="2" stroke-linecap="square" stroke-miterlimit="10" d="M264.804,301.421  c7.592,22.295,21.875,54.021,14.25,77.25"/>
<line fill="none" stroke="#000000" stroke-width="2" stroke-linecap="square" stroke-miterlimit="10" x1="419.304" y1="286.421" x2="427.554" y2="365.171"/>
<path fill-rule="evenodd" clip-rule="evenodd" fill="#003663" stroke="#000000" stroke-width="2" stroke-linecap="square" stroke-miterlimit="10" d="  M311.304,258.671c16.318-18.278,48.998-6.455,70.5-4.5C363.67,262.002,325.099,280.033,311.304,258.671z"/>
<path fill-rule="evenodd" clip-rule="evenodd" fill="#BCBEC0" stroke="#000000" stroke-width="2" stroke-linecap="square" stroke-miterlimit="10" d="  M372.054,490.421c5.704,0.592,11.798,4.104,17.25,6c-3,3.75-6,7.5-9,11.25C377.682,502.189,373.417,496.307,372.054,490.421z"/>
<path fill-rule="evenodd" clip-rule="evenodd" fill="#FFDB78" stroke="#000000" stroke-width="2" stroke-linecap="square" stroke-miterlimit="10" d="  M412.554,342.671C381.862,363.569,379.013,322.613,412.554,342.671L412.554,342.671z"/>
<path fill-rule="evenodd" clip-rule="evenodd" fill="#90A7D6" stroke="#000000" stroke-width="2" stroke-linecap="square" stroke-miterlimit="10" d="  M395.304,323.921c-27.361,13.208-77.25,37.504-77.25,75.167c0,19.293-10.382,32.467-15,50.833  c-5.757,22.894-5.144,49.293-7.594,72.773c-1.732,16.602,25.406,30.896,29.035,14.481c5.379-24.335,12.388-110.616,41.559-115.755  c3.898,35.33,1.604,78.602,13.172,112.148c11.327,32.847,62.118,14.961,93.745,10.963c16.974-2.146,47.133,2.808,49.694-16.223  c2.892-21.485,2.589-34.65-2.486-55.514c-4.956-20.375-12.703-44.421-5.625-64.875c41.612,16.645,42.746,20.546,58.336,62.695  c12.581,34.014-1.525,44.287,39.164,45.305c-4.287-53.048-7.157-86.707-39.984-129.9c-14.555-19.151-25.183-40.375-47.286-50.256  c-19.158-8.565-53.263-13.981-55.979-38.844c-13.744,7.058-23.291,14.807-38.639,12.889  C412.912,307.654,392.956,298.263,395.304,323.921z"/>
<line fill="none" stroke="#000000" stroke-width="2" stroke-linecap="square" stroke-miterlimit="10" x1="441.054" y1="311.171" x2="457.554" y2="543.671"/>
<path fill="none" stroke="#000000" stroke-width="2" stroke-linecap="square" stroke-miterlimit="10" d="M351.804,344.921  c7.981,21.82,21.771,53.591,14.25,76.5"/>
<line fill="none" stroke="#000000" stroke-width="2" stroke-linecap="square" stroke-miterlimit="10" x1="506.304" y1="329.171" x2="514.554" y2="407.921"/>
<path fill-rule="evenodd" clip-rule="evenodd" fill="#003663" stroke="#000000" stroke-width="2" stroke-linecap="square" stroke-miterlimit="10" d="  M398.304,302.171c15.739-19.371,48.886-7.215,70.5-5.25C449.368,305.314,414.9,321.676,398.304,302.171z"/>
<path fill-rule="evenodd" clip-rule="evenodd" fill="#BCBEC0" stroke="#000000" stroke-width="2" stroke-linecap="square" stroke-miterlimit="10" d="  M459.054,533.171c5.703,0.592,11.798,4.104,17.25,6c-3,3.75-6,7.5-9,11.25C464.682,544.939,460.416,539.057,459.054,533.171z"/>
<path fill-rule="evenodd" clip-rule="evenodd" fill="#FFDB78" stroke="#000000" stroke-width="2" stroke-linecap="square" stroke-miterlimit="10" d="  M499.554,386.171C464.348,406.792,470.532,363.845,499.554,386.171L499.554,386.171z"/>
<path fill-rule="evenodd" clip-rule="evenodd" fill="#90A7D6" stroke="#000000" stroke-width="2" stroke-linecap="square" stroke-miterlimit="10" d="  M315.054,365.921c-33.967,16.686-61.574,32.418-76.5,70.5c-14.297,36.477-18.083,79.894-21.861,119.389  c-1.31,13.69-6.258,21.766,6.861,27.611c5.266,2.347,19.909,2.933,21.42-4.245c5.148-24.452,11.314-110.556,40.83-115.755  c3.898,35.33,1.604,78.602,13.172,112.148c11.357,32.936,62.76,14.975,94.495,10.963c16.974-2.146,47.133,2.808,49.695-16.223  c2.94-21.841,1.712-34.361-2.861-55.514c-4.483-20.733-12.202-43.945-6-64.875c41.612,16.645,42.746,20.546,58.336,62.695  c12.581,34.014-1.525,44.287,39.164,45.305c-4.287-53.048-7.157-86.707-39.984-129.9c-14.555-19.151-25.183-40.374-47.285-50.256  c-19.159-8.565-53.264-13.981-55.98-38.844c-13.621,6.994-23.227,14.826-38.444,12.889  C332.833,349.611,313.656,340.521,315.054,365.921z"/>
<line fill="none" stroke="#000000" stroke-width="2" stroke-linecap="square" stroke-miterlimit="10" x1="360.804" y1="353.171" x2="377.304" y2="585.671"/>
<path fill="none" stroke="#000000" stroke-width="2" stroke-linecap="square" stroke-miterlimit="10" d="M272.304,386.921  c6.432,22.72,22.088,53.097,13.5,76.5"/>
<line fill="none" stroke="#000000" stroke-width="2" stroke-linecap="square" stroke-miterlimit="10" x1="426.054" y1="371.171" x2="434.304" y2="449.921"/>
<path fill-rule="evenodd" clip-rule="evenodd" fill="#003663" stroke="#000000" stroke-width="2" stroke-linecap="square" stroke-miterlimit="10" d="  M318.804,344.171c15.597-19.284,48.303-7.226,69.75-5.25C369.249,347.452,335.346,363.611,318.804,344.171z"/>
<path fill-rule="evenodd" clip-rule="evenodd" fill="#BCBEC0" stroke="#000000" stroke-width="2" stroke-linecap="square" stroke-miterlimit="10" d="  M378.804,575.171c5.686,0.547,11.817,4.11,17.25,6c-2.75,3.75-5.5,7.5-8.25,11.25C384.945,586.943,380.388,581.107,378.804,575.171z  "/>
<path fill-rule="evenodd" clip-rule="evenodd" fill="#FFDB78" stroke="#000000" stroke-width="2" stroke-linecap="square" stroke-miterlimit="10" d="  M419.304,428.171c-8.679,5.231-19.875,5.261-29.25,0C398.912,421.828,411.35,421.855,419.304,428.171z"/>
</svg>