<svg xmlns="http://www.w3.org/2000/svg" xmlns:xlink="http://www.w3.org/1999/xlink" version="1.1" id="Layer_1" x="0px" y="0px" enable-background="new 0 0 822.05 841.89" xml:space="preserve" viewBox="205.51 251.76 410.55 337.21">
<path fill-rule="evenodd" clip-rule="evenodd" fill="#90A7D6" stroke="#000000" stroke-width="2" stroke-linecap="square" stroke-miterlimit="10" d="  M335.303,294.425c-40.773,19.571-97.651,48.94-99.375,102.375c-0.754,23.379-17.311,42.359-19.608,65.179  c-3.243,32.212-6.485,64.424-9.729,96.636c-2.078,20.641,34.409,26.831,38.502,8.184c5.775-26.308,17.075-144.88,52.709-146.373  c4.803,44.666,1.51,100.068,16.014,142.466c11.097,32.437,15.061,25.069,49.217,22.55c21.409-1.579,42.842-2.741,64.144-5.404  c10.875-1.359,69.888-2.526,71.463-12.609c3.519-22.517,6.131-40.111,2.414-62.25c-5.262-31.338-24.894-70.415-12-102.002  c14.245,5.618,42.557,10.41,53.25,21.002c10.848,10.745,15.635,43.226,20.845,57.629c5.923,16.376,8.221,32.967,11.27,50.152  c2.971,16.745,25.508,9.678,40.636,9.969c-5.517-63.689-7.05-109.08-47.253-161.235c-16.976-22.022-33.253-55.503-59.049-67.336  c-24.431-11.207-74.899-20.682-78.198-52.681c-20.01,9.8-31.753,18.704-53.601,15.627  C354.999,273.21,333.069,262.472,335.303,294.425z"/>
<line fill="none" stroke="#000000" stroke-width="2" stroke-linecap="square" stroke-miterlimit="10" x1="393.803" y1="278.675" x2="415.555" y2="578.677"/>
<path fill="none" stroke="#000000" stroke-width="2" stroke-linecap="square" stroke-miterlimit="10" d="M279.053,321.425  c10.55,27.301,28.9,70.068,18.75,99"/>
<line fill="none" stroke="#000000" stroke-width="2" stroke-linecap="square" stroke-miterlimit="10" x1="478.555" y1="301.925" x2="489.055" y2="403.175"/>
<path fill-rule="evenodd" clip-rule="evenodd" fill="#003663" stroke="#000000" stroke-width="2" stroke-linecap="square" stroke-miterlimit="10" d="  M339.803,266.675c18.111-25.539,64.842-8.617,90.752-6C405.424,271.256,361.194,291.806,339.803,266.675z"/>
<path fill-rule="evenodd" clip-rule="evenodd" fill="#BCBEC0" stroke="#000000" stroke-width="2" stroke-linecap="square" stroke-miterlimit="10" d="  M417.055,564.427c7.437,1.127,15.413,5.651,22.5,8.25c-2.109,4.489-7.316,11.24-11.25,14.25  C424.729,579.775,419.259,572.089,417.055,564.427z"/>
<path fill-rule="evenodd" clip-rule="evenodd" fill="#FFDB78" stroke="#000000" stroke-width="2" stroke-linecap="square" stroke-miterlimit="10" d="  M469.555,374.675c-4.568,3.37-36.831,11.445-37.5,0C431.396,363.403,465.451,371.361,469.555,374.675z"/>
</svg>