<svg xmlns="http://www.w3.org/2000/svg" xmlns:xlink="http://www.w3.org/1999/xlink" version="1.1" id="Layer_1" x="0px" y="0px" enable-background="new 0 0 822.05 841.89" xml:space="preserve" viewBox="339.67 340.63 140.29 158.23">
<path fill-rule="evenodd" clip-rule="evenodd" fill="#F8130D" stroke="#000000" stroke-width="2" stroke-linecap="square" stroke-miterlimit="10" d="  M477.777,411.39c-1.228-8.32-10.098-42.521-21.054-42.788c-22.793-0.556-75.68-12.132-93.696,0.788  c-63.979,45.882,55.918,48.317,78,47.25c0.442,37.6,14.718,67.183-29.25,66.75c-23.994-0.236-47.137-7.237-69-16.5  c-9.6,33.845,70.855,32.12,88.875,30C489.156,490.125,478.381,462.671,477.777,411.39z"/>
<path fill-rule="evenodd" clip-rule="evenodd" fill="#FFFFFF" stroke="#000000" stroke-width="2" stroke-linecap="square" stroke-miterlimit="10" d="  M460.527,350.64c-20.902-6.208-141.369-4.521-88.5,21.75C387.689,380.172,497.089,374.251,460.527,350.64z"/>
<path fill-rule="evenodd" clip-rule="evenodd" fill="#FFFFFF" stroke="#000000" stroke-width="2" stroke-linecap="square" stroke-miterlimit="10" d="  M468.027,354.39c-13.041,10.796-113.146,18.542-111-1.5C359.172,332.864,457.085,343.511,468.027,354.39z"/>
<path fill-rule="evenodd" clip-rule="evenodd" fill="#FFFFFF" stroke="#000000" stroke-width="2" stroke-linecap="square" stroke-miterlimit="10" d="  M441.027,482.64c-0.25-22.75-0.5-45.5-0.75-68.25c-31.34,1.836-67.374,2.783-96-12c-3.872,24.017-10.286,64.646,16.125,74.25  C386.819,486.247,413.194,488.015,441.027,482.64z"/>
<path fill-rule="evenodd" clip-rule="evenodd" fill="#279A30" stroke="#000000" stroke-linecap="square" stroke-miterlimit="10" d="  M411.777,428.64c-8.363-4.973-13.814-7.375-21.75,1.5c-0.53-1.323-0.28-2.323,0.75-3c-2.548,6.428-7.29,17.031-15,22.5  c2.5,0.5,5,1,7.5,1.5c-0.459-5.699,4.062-10.178,6.75-18.75c4.773,8.555,9.18,11.156,8.25,21.75c0.61-8.729,0.667-11.333-5.25-21  C402.7,437.42,403.676,431.367,411.777,428.64z"/>
<path fill-rule="evenodd" clip-rule="evenodd" fill="#FFFFFF" d="M384.777,451.14c-1.274-2.813-7.886-2.693,0-5.25  C386.846,448.318,383.279,447.832,384.777,451.14z"/>
<path fill-rule="evenodd" clip-rule="evenodd" fill="#F8130D" stroke="#000000" stroke-linecap="square" stroke-miterlimit="10" d="  M399.777,452.64c-15.119-2.747-51.78-3.073-25.5,19.5C390.627,486.184,428.991,454.442,399.777,452.64z"/>
<path fill-rule="evenodd" clip-rule="evenodd" fill="#E43A11" d="M389.277,452.64c-0.036,6.623,2.646,10.931-2.25,17.25  C387.776,464.147,388.33,458.353,389.277,452.64z"/>
<path fill="none" stroke="#000000" stroke-linecap="square" stroke-miterlimit="10" d="M389.277,452.64  c2.51,5.916,1.684,12.172-2.25,17.25"/>
</svg>