<svg xmlns="http://www.w3.org/2000/svg" xmlns:xlink="http://www.w3.org/1999/xlink" version="1.1" id="Layer_1" x="0px" y="0px" enable-background="new 0 0 822.05 841.89" xml:space="preserve" viewBox="305.31 339.22 210.38 164.67">
<path fill-rule="evenodd" clip-rule="evenodd" fill="#FFFFFF" stroke="#000000" stroke-width="1.25" stroke-linecap="square" stroke-miterlimit="10" d="  M515.063,495.89c-62.71-0.494-127.987-5.507-190.502,0C350.489,456.776,484.131,461.546,515.063,495.89z"/>
<path fill-rule="evenodd" clip-rule="evenodd" fill="#FFFFFF" d="M404.062,476.39c14.555-17.557,38.767-8.611,54.752,2.25  C440.562,477.89,422.312,477.14,404.062,476.39z"/>
<path fill="none" stroke="#000000" stroke-width="1.25" stroke-linecap="square" stroke-miterlimit="10" d="M404.062,476.39  c14.555-17.557,38.767-8.611,54.752,2.25"/>
<path fill-rule="evenodd" clip-rule="evenodd" fill="#FFFFFF" d="M403.312,492.89c27.65-8.836,56.738-11.968,84.002,0  C459.312,492.89,431.312,492.89,403.312,492.89z"/>
<path fill="none" stroke="#000000" stroke-width="1.25" stroke-linecap="square" stroke-miterlimit="10" d="M403.312,492.89  c27.65-8.836,56.738-11.968,84.002,0"/>
<path fill-rule="evenodd" clip-rule="evenodd" fill="#FFFFFF" stroke="#000000" stroke-linecap="square" stroke-miterlimit="10" d="  M489.563,426.89C487.026,414.914,492.884,415.983,489.563,426.89L489.563,426.89z"/>
<path fill-rule="evenodd" clip-rule="evenodd" fill="#FFFFFF" stroke="#000000" stroke-linecap="square" stroke-miterlimit="10" d="  M365.062,394.64C363.275,382.608,369.315,382.495,365.062,394.64L365.062,394.64z"/>
<path fill-rule="evenodd" clip-rule="evenodd" fill="#5A5957" d="M461.813,412.64c-0.212,20.546,5.137,57.263-3,72.75  C458.813,466.419,452.354,424.821,461.813,412.64z"/>
<path fill="none" stroke="#000000" stroke-linecap="square" stroke-miterlimit="10" d="M461.813,412.64  c-0.212,20.546,5.137,57.263-3,72.75c0-24.25,0-48.5,0-72.75"/>
<path fill-rule="evenodd" clip-rule="evenodd" fill="#FFFFFF" stroke="#000000" stroke-linecap="square" stroke-miterlimit="10" d="  M443.813,420.14c14.403,2.592,24.554-2.248,18-13.5c-2.006-3.444-27.478-8.624-34.5-15c47.822-33.931-64.84-32.691-17.252-0.75  c-6.984,6.638-43.504,13.421-44.25,18c-1.749,10.729,14.659,6.3,18.75,9.75c4.812,4.058,14.237,8.393,20.25,17.25  c-31.24,12.943-20.234,55.261,12.752,55.5c31.734,0.23,46.452-44.062,13.5-54.75C438.394,432.224,438.923,425.727,443.813,420.14z"/>
<path fill-rule="evenodd" clip-rule="evenodd" stroke="#000000" stroke-linecap="square" stroke-miterlimit="10" d="M431.813,359.39  c8.127-38.567-43.711,3.875-32.627,8.625C412.575,373.753,467.407,365.586,431.813,359.39z"/>
<path fill-rule="evenodd" clip-rule="evenodd" stroke="#000000" stroke-linecap="square" stroke-miterlimit="10" d="M432.563,343.64  c-7.382,5.229-16.62,5.229-24.002,0C415.943,338.411,425.182,338.411,432.563,343.64z"/>
<path fill-rule="evenodd" clip-rule="evenodd" fill="#FFFFFF" d="M398.812,397.64c-1.368,5.446-3.739,8.464-2.25,14.25  C397.312,407.14,398.062,402.39,398.812,397.64z"/>
<path fill="none" stroke="#000000" stroke-linecap="square" stroke-miterlimit="10" d="M398.812,397.64  c-2.663,4.379-3.494,9.417-2.25,14.25"/>
<path fill-rule="evenodd" clip-rule="evenodd" fill="#FFFFFF" d="M442.313,405.14c1.303,6.034,4.047,8.57,1.5,15  C443.314,415.154,443.073,410.091,442.313,405.14z"/>
<path fill="none" stroke="#000000" stroke-linecap="square" stroke-miterlimit="10" d="M442.313,405.14  c2.962,4.713,3.519,9.906,1.5,15"/>
<path fill-rule="evenodd" clip-rule="evenodd" fill="#FFFFFF" d="M405.562,435.89c8.921,1.105,17.386,2.157,26.252,0.75  C423.083,436.391,414.294,435.793,405.562,435.89z"/>
<path fill="none" stroke="#000000" stroke-linecap="square" stroke-miterlimit="10" d="M405.562,435.89  c8.603,1.848,17.642,2.117,26.252,0.75"/>
<path fill-rule="evenodd" clip-rule="evenodd" d="M409.312,360.14c7.593,0.791,14.053,1.764,21.752,0  C423.822,360.14,416.548,359.888,409.312,360.14z"/>
<path fill="none" stroke="#000000" stroke-linecap="square" stroke-miterlimit="10" d="M409.312,360.14  c7.206,1.653,14.524,1.656,21.752,0"/>
<path fill-rule="evenodd" clip-rule="evenodd" stroke="#000000" stroke-linecap="square" stroke-miterlimit="10" d="M415.31,375.14  C410.448,375.14,410.448,375.14,415.31,375.14L415.31,375.14z"/>
<path fill-rule="evenodd" clip-rule="evenodd" stroke="#000000" stroke-linecap="square" stroke-miterlimit="10" d="M430.313,375.89  C425.449,375.89,425.449,375.89,430.313,375.89L430.313,375.89z"/>
<line fill="none" stroke="#000000" stroke-linecap="square" stroke-miterlimit="10" x1="415.31" y1="387.14" x2="427.313" y2="386.39"/>
<path fill-rule="evenodd" clip-rule="evenodd" fill="#FFFFFF" d="M410.062,390.89c6.454,0.864,11.048,3.276,18.002,0.75  C422.068,391.39,416.061,390.953,410.062,390.89z"/>
<path fill="none" stroke="#000000" stroke-linecap="square" stroke-miterlimit="10" d="M410.062,390.89  c5.694,2.74,11.945,2.95,18.002,0.75"/>
<path fill-rule="evenodd" clip-rule="evenodd" fill="#F88020" stroke="#000000" stroke-linecap="square" stroke-miterlimit="10" d="  M418.313,379.64c0.296,5.501,1.505,11.037,2.25,16.5C425.857,383.188,422.693,382.033,418.313,379.64z"/>
<path fill-rule="evenodd" clip-rule="evenodd" stroke="#000000" stroke-linecap="square" stroke-miterlimit="10" d="M421.313,405.89  C416.434,405.411,416.553,405.422,421.313,405.89L421.313,405.89z"/>
<path fill-rule="evenodd" clip-rule="evenodd" stroke="#000000" stroke-linecap="square" stroke-miterlimit="10" d="M421.313,414.89  C416.434,414.411,416.553,414.422,421.313,414.89L421.313,414.89z"/>
<path fill-rule="evenodd" clip-rule="evenodd" stroke="#000000" stroke-linecap="square" stroke-miterlimit="10" d="M420.563,420.89  C415.697,420.89,415.697,420.89,420.563,420.89L420.563,420.89z"/>
<path fill-rule="evenodd" clip-rule="evenodd" fill="#5A5957" d="M458.813,411.89c0.255-9.417,0.376-21.937,3-27.75  C461.559,393.557,461.438,406.077,458.813,411.89z"/>
<path fill="none" stroke="#000000" stroke-linecap="square" stroke-miterlimit="10" d="M458.813,411.89  c0.255-9.417,0.376-21.937,3-27.75c-0.25,9.25-0.5,18.5-0.75,27.75"/>
<path fill="none" stroke="#000000" stroke-linecap="square" stroke-miterlimit="10" d="M455.063,408.14  c1.068,4.075,4.076,5.362,8.25,3.75"/>
<path fill-rule="evenodd" clip-rule="evenodd" fill="#FFFFFF" stroke="#000000" stroke-linecap="square" stroke-miterlimit="10" d="  M477.563,396.14C469.686,382.188,485.717,382.576,477.563,396.14L477.563,396.14z"/>
<path fill-rule="evenodd" clip-rule="evenodd" fill="#FFFFFF" stroke="#000000" stroke-linecap="square" stroke-miterlimit="10" d="  M494.063,468.14C486.787,454.391,503.004,455.242,494.063,468.14L494.063,468.14z"/>
<line fill="none" stroke="#000000" stroke-linecap="square" stroke-miterlimit="10" x1="459.563" y1="384.89" x2="450.563" y2="364.64"/>
<path fill="none" stroke="#000000" stroke-linecap="square" stroke-miterlimit="10" d="M458.813,389.39c2-10.25,4-20.5,6-30.75  c-0.75,10.25-1.5,20.5-2.25,30.75c4-9.75,8-19.5,12-29.25C469.313,369.89,464.063,379.64,458.813,389.39z"/>
<path fill="none" stroke="#000000" stroke-linecap="square" stroke-miterlimit="10" d="M458.063,386.39c-1.25-9.5-2.5-19-3.75-28.5  c1.5,10.5,3,21,4.5,31.5c-3.034-5.677-6.476-11.333-9-17.25C452.563,376.89,455.357,381.615,458.063,386.39z"/>
<path fill="none" stroke="#000000" stroke-linecap="square" stroke-miterlimit="10" d="M446.813,377.39  c3.282,4.436,8.088,8.088,12,12c1.195-12.205,1.208-24.469,1.5-36.75"/>
<path fill-rule="evenodd" clip-rule="evenodd" fill="#FFFFFF" stroke="#000000" stroke-linecap="square" stroke-miterlimit="10" d="  M491.063,395.39C488.72,382.538,494.946,383.599,491.063,395.39L491.063,395.39z"/>
<path fill-rule="evenodd" clip-rule="evenodd" fill="#FFFFFF" stroke="#000000" stroke-linecap="square" stroke-miterlimit="10" d="  M503.813,453.89C501.385,441.619,507.417,442.116,503.813,453.89L503.813,453.89z"/>
<path fill-rule="evenodd" clip-rule="evenodd" fill="#FFFFFF" stroke="#000000" stroke-linecap="square" stroke-miterlimit="10" d="  M392.062,499.64c-23.506,0-47.012,0-70.518,0c-10.36,0-13.146-49.858-6.732-57c6.503-7.24,59.741,0,70.518,0  C399.592,442.64,392.062,486.732,392.062,499.64z"/>
<path fill-rule="evenodd" clip-rule="evenodd" fill="#FFFFFF" stroke="#000000" stroke-linecap="square" stroke-miterlimit="10" d="  M383.062,503.39c-25.75,0-51.5,0-77.25,0c0.883-7.459,3.886-57,8.549-57c25.15,0,50.3,0,75.451,0  C387.562,465.39,385.312,484.39,383.062,503.39z"/>
<path fill-rule="evenodd" clip-rule="evenodd" d="M359.812,454.64C359.237,450.152,359.134,449.345,359.812,454.64L359.812,454.64z"/>
<path fill-rule="evenodd" clip-rule="evenodd" d="M341.062,454.64C340.487,450.152,340.384,449.345,341.062,454.64L341.062,454.64z"/>
<path fill-rule="evenodd" clip-rule="evenodd" d="M378.562,454.64C377.987,450.152,377.884,449.345,378.562,454.64L378.562,454.64z"/>
<path fill-rule="evenodd" clip-rule="evenodd" d="M322.312,454.64C321.737,450.152,321.634,449.345,322.312,454.64L322.312,454.64z"/>
<path fill-rule="evenodd" clip-rule="evenodd" d="M322.312,438.89c-0.176,4.92-5.846,8.505,0.75,14.25  C321.666,446.655,322.559,440.974,322.312,438.89z"/>
<path fill-rule="evenodd" clip-rule="evenodd" d="M340.312,438.14c-0.128,5.998-6.202,9.229,0.75,15  c-0.85-3.941,1.018-12.07,0.75-10.5C345.751,440.889,340.21,440.292,340.312,438.14z"/>
<path fill-rule="evenodd" clip-rule="evenodd" d="M359.812,438.14c-0.188,5.674-6.066,9.424,0.75,15  C358.855,446.123,359.883,441.437,359.812,438.14z"/>
<path fill-rule="evenodd" clip-rule="evenodd" d="M377.812,438.14c-0.066,6.313-5.343,10.26,1.5,15  C377.258,445.504,377.73,441.322,377.812,438.14z"/>
<path fill="none" stroke="#000000" stroke-width="0.5" stroke-linecap="square" stroke-miterlimit="10" d="M379.312,497.39  c1.25-9.5,2.5-19,3.75-28.5c-18.032,0-36.064,0-54.096,0c-21.126,0-15.93,7.796-18.654,28.5  C333.312,497.39,356.312,497.39,379.312,497.39z"/>
<path fill-rule="evenodd" clip-rule="evenodd" d="M373.312,468.89l-3.75,28.5L373.312,468.89z"/>
<line fill="none" stroke="#000000" stroke-width="0.5" stroke-linecap="square" stroke-miterlimit="10" x1="373.312" y1="468.89" x2="369.562" y2="497.39"/>
<path fill-rule="evenodd" clip-rule="evenodd" d="M363.562,468.89l-3.75,28.5L363.562,468.89z"/>
<line fill="none" stroke="#000000" stroke-width="0.5" stroke-linecap="square" stroke-miterlimit="10" x1="363.562" y1="468.89" x2="359.812" y2="497.39"/>
<path fill-rule="evenodd" clip-rule="evenodd" d="M353.812,468.89l-3.75,28.5L353.812,468.89z"/>
<line fill="none" stroke="#000000" stroke-width="0.5" stroke-linecap="square" stroke-miterlimit="10" x1="353.812" y1="468.89" x2="350.062" y2="497.39"/>
<path fill-rule="evenodd" clip-rule="evenodd" d="M344.062,468.89l-4.5,28.5L344.062,468.89z"/>
<line fill="none" stroke="#000000" stroke-width="0.5" stroke-linecap="square" stroke-miterlimit="10" x1="344.062" y1="468.89" x2="339.562" y2="497.39"/>
<path fill-rule="evenodd" clip-rule="evenodd" d="M334.312,468.89l-4.5,28.5L334.312,468.89z"/>
<line fill="none" stroke="#000000" stroke-width="0.5" stroke-linecap="square" stroke-miterlimit="10" x1="334.312" y1="468.89" x2="329.812" y2="497.39"/>
<path fill-rule="evenodd" clip-rule="evenodd" d="M324.562,468.89l-4.5,28.5L324.562,468.89z"/>
<line fill="none" stroke="#000000" stroke-width="0.5" stroke-linecap="square" stroke-miterlimit="10" x1="324.562" y1="468.89" x2="320.062" y2="497.39"/>
<line fill="none" stroke="#000000" stroke-width="0.5" stroke-linecap="square" stroke-miterlimit="10" x1="313.312" y1="476.39" x2="382.312" y2="476.39"/>
<line fill="none" stroke="#000000" stroke-width="0.5" stroke-linecap="square" stroke-miterlimit="10" x1="312.562" y1="483.14" x2="381.562" y2="483.14"/>
<line fill="none" stroke="#000000" stroke-width="0.5" stroke-linecap="square" stroke-miterlimit="10" x1="311.812" y1="489.89" x2="380.812" y2="489.89"/>
<text transform="matrix(1 0 0 1 314.8301 466.6401)" font-family="'MyriadPro-Regular'" font-size="9">S  M  T  W  Th  F  S</text>
</svg>