<svg xmlns="http://www.w3.org/2000/svg" xmlns:xlink="http://www.w3.org/1999/xlink" version="1.1" id="Layer_1" x="0px" y="0px" enable-background="new 0 0 822.05 841.89" xml:space="preserve" viewBox="252.5 254.59 322.26 336.87">
<path fill-rule="evenodd" clip-rule="evenodd" fill="#BEE7FB" d="M341.75,330.14c-24.006,8.778-14.25,46.585-14.25,66.167  c0,49.176,0,98.353,0,147.53c0,46.568,82.783,40.554,115.473,40.554c47.592,0,124.527,5.16,124.527-55.64  c0-50.869,0-101.738,0-152.608c0-18.214,3.375-40.46-20.25-43.752c4.287-6.454,0.667-3.249-0.75-7.5  c3.347-1.97,7.083-5.046,9.75-6.75c-31.985-9.672-75.081-2.489-108.455-2.605c-33.144-0.116-85.106-10.081-115.795,1.855  c3.562,1.729,6.947,3.128,11.25,4.5c-1.722,0.434-7.655,1.397-8.25,3.75C336.177,329.031,340.714,327.922,341.75,330.14z"/>
<path fill-rule="evenodd" clip-rule="evenodd" d="M341.75,330.14c-34.467-7.31-25.633,248.651,0,241.5  c33.708,28.595,180.027,25.079,211.5-3c28.166,5.285,17.25-108.776,17.25-123c0-24.793,9.593-72.07,0-95.25  c-4.424-10.69-16.065-27.442-21.75-15.75c0.379-7.988,0.053-6.094-1.5-12.75c-1.018,1.789-1.018,3.539,0,5.25  c14.846-5.488,12.046-7.876,2.25-14.25c-15.917-10.356-72.43-0.252-90.984-0.317c-39.277-0.137-78.554-0.274-117.832-0.411  c-16.304-0.057-11.553,9.602,1.816,12.728c1-2,1-4,0-6c-12.036,6.766-12.565,6.201-1.5,14.25c-1.593-8.18-0.191-1.68,1.5-6  c-0.719-0.046-4.73-1.118-5.25-1.5c0.043-0.935,1.633,1.176-0.75,0.75c0.185,0.11,4.076-0.711,0,0c2,0,2,0,0,0  c4.698-0.408-0.626,0.808,0,0c0.765-0.471,5.647-1.312,7.5-1.5c-4.56-5.32-3.309-4.639-9.75-7.5c0.75,0.25,1,0,0.75-0.75  c-1.814,1.294,1.98,0.97-1.5,1.5c1.619,0.927,2.642-2.038,0,0c2,0,2,0,0,0c2,0,2,0,0,0c1.75,0,2,0,0.75,0c1,0,1,0,0,0  c0.863-0.247,1.316-0.744,2.25-0.75c3.491,5.306,82.058,1.042,100.205,1.105c29.738,0.104,94.9-4.862,112.045,0.395  c1.849,0.209,4.592-0.19,6,0c-2,1-2,1,0,0c-2.75,2.403,1.512-1.177-1.5,0.75c1.732-1.375,1.139,0.226,1.5-0.75  c-4.347-2.542,0.161,1.348,0,0c-1.254,0.144-1.838-1.364-0.75-0.75c-5.776,1.691-12.273,4.419-18,6.75c4.062,0.483,8.089,2.405,12,3  c-1,0-1,0,0,0c-0.713,0.391-3.317,1.457-2.25,3c1.613-0.61-4.075,2.208-6,3c11.892,0.186,21.586,6.018,24.75,17.25c1-1,1-1,0,0  c1.314,0.805-1.773-2.788,3-0.75c-11.851,15.541-3,72.877-3,95.25s-8.851,79.709,3,95.25c-1.921,5.526-8.967,21.378-14.25,26.25  c-1-2-1-2,0,0c-57.941,2.371-195.503,46.791-225.75-22.5c11.837-15.076,3-72.646,3-94.565c0-23.979,10.092-89.009-3-105.685  c5.273-4.976,14.394-11.41,22.5-15.75C344.387,325.708,343.935,329.457,341.75,330.14z"/>
<path fill-rule="evenodd" clip-rule="evenodd" fill="#BEE7FB" d="M335,312.14c-10.344-13.507,73.624-27.976,89.25-28.5  c-1.492-4.228-0.746-3.305-0.75-6.75c-43.172-4.995,2.581-18.75,21-18.75c25.983,0,58.838,20.893,13.5,18  c1.537,1.331,7.905,4.321,9.75,5.25c-2.194,0.752-7.768,2.493-9.75,3.75c38.679,0.419,67.931,16.913,103.5,24.75  c-14.453,15.558-72.176,4.329-92.982,4.048C424.012,313.339,379.506,312.74,335,312.14z"/>
<path fill-rule="evenodd" clip-rule="evenodd" d="M335,312.14c-0.789-0.534,2.048-5.229-3.75-3.75c-0.451,1.806,4.538-3.152,0,0  c2,0,2,0,0,0c4.28,0.654-0.06,0.121,0,0c32.129-3.322,65.777-19.048,100.5-22.5c-7.131-3-3.986-3.807-7.5-6c1,0,1,0,0,0c1,0,1,0,0,0  c1,0,1,0,0,0c1.734-0.854,6.277-3.27,8.25-3.75c-9.611-1.305-19.147-4.595-27.75-9c1,0,1,0,0,0c1.099,0.85-1.198-0.091,0.75,0.75  c0.25-0.75,0-1-0.75-0.75c0.903-0.26,0.703,0.721,0.75,0.75c0-1,0-1,0,0c22.755-10.238,55.258-9.133,76.5,1.5  c-1.923,0.913,0.038,0.02,0,0c-1.264,0.118,0.276-1.208-0.75-0.75c-0.25,0.75,0,1,0.75,0.75c-0.998,0.236-0.635-0.663-0.75-0.75  c0,1,0,1,0,0c-9.958,2.224-20.058,2.405-24,10.5c1.49,0.008,7.554,1.274,8.25,1.5c-2.208,0.446,0.258,0.062,0,0c-1,0-1,0,0,0  c0.632-0.2-2.376,0.136,0,0c-23.687,9.42,20.689,9.14,31.5,11.25c20.935,4.085,42.693,18.594,62.25,18.75c-1,1-1,1,0,0  c-1.212,1.053-0.962,1.053,0.75,0c-1.25-0.5-1.75-0.25-1.5,0.75c2.4,0.285,0.292-1.257,0-1.5c-0.25,0.75,0,1,0.75,0.75  c-0.148,1.659-5.821,3.291-1.5,1.5c-74.25-1-148.5-2-222.75-3c-0.447,4.013,0.053,4.013,1.5,0c-1.447,1.776-1.947,3.776-1.5,6  c61.432,0.825,122.864,1.649,184.297,2.474c12.245,0.165,33.828,5.534,43.703-3.224c10.578-9.381-11.715-7.321-12.75-6.75  c-13.472-20.715-65.562-25.218-92.25-25.5c-0.242,2.061,0.008,4.061,0.75,6c13.875-4.266,14.126-10.563,0-15  c-0.742,1.939-0.992,3.939-0.75,6c22.84-0.287,39.069-19.19,14.25-17.25c-6.932-8.986-39.167-9.609-48.75-2.25  c-19.896-9.698-34.736,18.383,0,20.25c0.316-1.842,0.066-3.592-0.75-5.25c-0.594-3.339-1.276,13.768-0.75,11.25  c2.207-1.146,2.957-2.896,2.25-5.25c-29.147,1.074-61.236,5.81-86.25,21.75C335.365,302.133,320.686,311.01,335,312.14z"/>
<path fill-rule="evenodd" clip-rule="evenodd" d="M340.25,324.14c68.742,0.028,137.53,2.188,206.25,3.75c0-2,0-4,0-6  C518.449,321.014,344.679,306.841,340.25,324.14z"/>
<path fill-rule="evenodd" clip-rule="evenodd" d="M547.25,329.39c-68-1-136-2-204-3c0,2,0,4,0,6  C373.077,332.829,541.345,348.614,547.25,329.39z"/>
<path fill-rule="evenodd" clip-rule="evenodd" d="M328.25,344.39c77.712,10.758,158.49,11.988,236.25,1.5c-0.25-2-0.5-4-0.75-6  c-40.693,5.452-80.901,6.75-121.898,6.75C418.656,346.64,337.353,330.26,328.25,344.39z"/>
<path fill-rule="evenodd" clip-rule="evenodd" fill="#83A4B5" d="M336.5,555.89c71.705-24.356,146.401-18.811,218.25,0.75  C488.581,586.13,402.924,581.218,336.5,555.89z"/>
<path fill-rule="evenodd" clip-rule="evenodd" d="M336.5,555.89c19.854,6.037,74.811-12.382,101.611-13.306  c38.635-1.332,78.506,4.692,115.139,17.056c2.023-1.876,2.023-3.626,0-5.25c-73.581,24.768-142.425,20.927-216-0.75  c-1.018,1.711-1.018,3.461,0,5.25c-0.5-4-1-4-1.5,0c71.836,28.099,155.985,27.22,227.25-2.25  c-76.214-24.725-158.641-28.398-234.75-0.75C333.596,559.925,334.661,556.221,336.5,555.89z"/>
<path fill-rule="evenodd" clip-rule="evenodd" fill="#BCBEC0" d="M364.25,552.14c-29.397,24.656,64.217,29.476,77.25,9  C463.574,526.462,379.525,542.128,364.25,552.14z"/>
<path fill-rule="evenodd" clip-rule="evenodd" d="M364.25,552.14c-29.983,3.956,5.622,22.948,20.25,24  c13.762,0.989,55.856-0.299,63-16.5c17.283-39.201-71.492-18.428-86.25-9.75c12.142,6.479,64.962-10.723,76.5-5.25  c16.341,17.925-18.503,20.837-26.25,27c-12.1-6.236-43.857,5.688-53.25-10.5c1.111,0.428,1.27,1.076,1.5,0.75  c0.496-0.557-6.048-1.915,0,0.75c2.25-3,4.5-6,6.75-9C364.631,553.729,363.989,554.174,364.25,552.14z"/>
<path fill-rule="evenodd" clip-rule="evenodd" fill="#BCBEC0" d="M490.25,541.64c63.777,14.335,17.217,37.661-23.25,26.25  c-9.289-2.619-39.905-10.676-33.75-24.75C438.267,531.668,481.486,538.058,490.25,541.64z"/>
<path fill-rule="evenodd" clip-rule="evenodd" d="M490.25,541.64c6.159,5.999,24.875,10.704,33,20.25c-1,0-1,0,0,0  c-11.229,14.456-60.364,7.688-75.75-3.75c-31.562-23.464,27.688-20.223,42-13.5c0.028-2.3,1.028-4.05,3-5.25  c-12.671-6.723-35.546-6.648-44.25-0.75c-19.625-11.766-24.876,22.502-2.25,21.75c2.997,8.434,25.425,14.426,33.75,8.25  c7.183,9.718,44.499,14.035,48.75-7.5c-4.001,0.742-4.001,0.992,0,0.75c-4.685-15.16-22.842-18.777-36.75-23.25  C492.045,547.207,492.531,534.298,490.25,541.64z"/>
<path fill-rule="evenodd" clip-rule="evenodd" fill="#BCBDC0" d="M359.75,561.89L359.75,561.89z M412.25,540.89  c-14.437,0.626-63.213,9.554-46.5,27c11.722,12.236,60.536-0.836,73.5-8.25C432.174,548.787,426.24,538.62,412.25,540.89z"/>
<path fill-rule="evenodd" clip-rule="evenodd" fill="#444446" d="M359.75,561.89L359.75,561.89z M358.25,561.14L358.25,561.14  L358.25,561.14z M410.75,534.89c-10.729,0.28-78.012,26.095-51.375,36.75c22.398,8.959,61.547,3.775,80.625-11.25  c-12.173,4.993-67.016,21.172-77.25,6.75c-15.085-21.256,54.853-26.46,66-24.75c-0.416-1.777,0.084-3.277,1.5-4.5  C423.879,536.186,417.363,535.067,410.75,534.89z"/>
<path fill-rule="evenodd" clip-rule="evenodd" fill="#444446" d="M428.75,544.64c3.645,5.788,4.324,11.901,12,15.75  C434.754,555.868,433.03,550.32,428.75,544.64z"/>
<path fill-rule="evenodd" clip-rule="evenodd" fill="#ACCADA" d="M398.75,575.39c-7.888,0.042-15.37,0.853-23.25,0  c13.313,2.477,26.333,4.592,39.75,2.25C409.765,576.892,404.265,575.852,398.75,575.39z M348.5,563.39  c3.491,5.604,0.5,10.604,13.5,9.75C356.974,569.223,353.358,566.374,348.5,563.39z M410.75,528.89  c-18.35,0.418-35.972,6.81-51,17.25c22.375-3.645,56.907-5.346,76.5-12.75C427.999,530.718,419.443,529.147,410.75,528.89z"/>
<path fill-rule="evenodd" clip-rule="evenodd" d="M349.25,570.14c11.586,14.347,37.132,11.829,54,9  C385.305,577.616,366.436,575.729,349.25,570.14z"/>
<path fill-rule="evenodd" clip-rule="evenodd" fill="#8199A6" d="M444.5,563.39c-7.361,3.227-13.781,6.927-21.75,9  C432.875,572.917,438.803,568.175,444.5,563.39z M359.75,552.14c-3.833,2.764-6.742,1.119-9,6  C356.763,559.587,355.399,555.277,359.75,552.14z"/>
<path fill-rule="evenodd" clip-rule="evenodd" d="M422.75,572.39c-8.138,1.227-15.645,3.018-24,3c10.753,3.383,22.45,2.575,32.25-3  C428.25,572.39,425.5,572.39,422.75,572.39z M350.75,558.14c0.912,3.103-5.644,5.684,3,6.75  C355.408,559.662,351.295,559.996,350.75,558.14z M374.75,543.14c-10.264,1.293-16.89,2.041-21.75,11.25  C360.167,550.874,367.551,547.642,374.75,543.14z M431,536.39C427.804,537.436,431.163,536.336,431,536.39L431,536.39z"/>
<path fill-rule="evenodd" clip-rule="evenodd" d="M412.25,534.89c-8.885-0.409-75.862,14.888-56.25,34.5  c18.36,18.36,69.215,5.397,88.5-6c-12.371-1.514-77.466,29.188-88.5,6c-14.398-30.258,60.171-34.922,75-32.25  C424.898,535.832,418.551,535.655,412.25,534.89z"/>
<path fill-rule="evenodd" clip-rule="evenodd" d="M440.75,560.39C438.453,558.773,445.04,563.411,440.75,560.39L440.75,560.39z"/>
<path fill-rule="evenodd" clip-rule="evenodd" fill="#BEDFF0" d="M483.5,535.64c3.004,0.972,6.04,2.113,9,3  C489.521,536.949,486.622,536.651,483.5,535.64z"/>
<path fill-rule="evenodd" clip-rule="evenodd" fill="#BEDFF0" d="M527,568.64c-2.706,1.979-5.13,3.799-8.25,5.25  C522.589,573.141,524.364,570.568,527,568.64z"/>
<path fill-rule="evenodd" clip-rule="evenodd" fill="#8EA8B6" d="M528.5,561.14C528.5,561.807,528.5,564.473,528.5,561.14  L528.5,561.14z"/>
<path fill-rule="evenodd" clip-rule="evenodd" fill="#444446" d="M528.5,562.64c-0.788,2.344-1.753,4.605-3,6.75  C528.888,567.588,527.548,565.473,528.5,562.64z"/>
<path fill-rule="evenodd" clip-rule="evenodd" fill="#BCBDC0" d="M469.25,540.89c-11.678-0.336-23.335-0.042-33.75,4.5  c10.836,17.865,39.919,24.418,60,24c49.492-1.031,8.143-14.705-5.25-27.75C487.497,542.505,477.136,541.137,469.25,540.89z"/>
<path fill-rule="evenodd" clip-rule="evenodd" fill="#444446" d="M492.5,539.39L492.5,539.39z M471.5,534.89  c-13.259,0.486-31.828-1.164-36,10.5c15.183-6.621,39.546-7.539,54-0.75c0.028-2.3,1.028-4.05,3-5.25  c-3.912,13.968,20.315,4.329,26.25,17.25c3.943,8.586,1.372,13.5-10.5,13.5c-18.197,0-47.924-3.561-63-13.5  c10.819,9.217,65.502,28.303,78,15C543.2,550.406,486.704,535.597,471.5,534.89z"/>
<path fill-rule="evenodd" clip-rule="evenodd" fill="#ACCADA" d="M495.5,575.39c-3,0.5-6,1-9,1.5  c7.962,0.455,14.198,0.687,22.5-0.75C504.483,576.078,500.011,575.502,495.5,575.39z M533.75,567.14  c-5.46,2.059-9.848,3.528-15,6.75C526.666,574.477,529.79,569.812,533.75,567.14z M496.25,534.89L496.25,534.89z M471.5,528.89  c-13.765-0.061-28.426,0.838-40.5,7.5c20.402-0.077,44.072-6.236,63,3c-0.058-1.957,0.692-3.457,2.25-4.5  c0.008,7.699,10.719,9.288,22.5,9C504.193,536.062,488.321,528.771,471.5,528.89z"/>
<path fill-rule="evenodd" clip-rule="evenodd" d="M532.25,570.89c-12.667,3.58-25.735,6.214-39,7.5  C506.952,582.327,523.846,583.663,532.25,570.89z"/>
<path fill-rule="evenodd" clip-rule="evenodd" fill="#8199A6" d="M444.5,562.64c7.552,8.374,19.354,11.138,30.75,9  C464.213,571.498,453.721,568.738,444.5,562.64z M521,550.64c3.249,4.505,7.206,5.345,7.5,12c2-0.75,4-1.5,6-2.25  C531.905,552.068,527.644,554.207,521,550.64z"/>
<path fill-rule="evenodd" clip-rule="evenodd" d="M475.25,571.64c-4.25,0.25-8.5,0.5-12.75,0.75c11.017,3.229,21.787,4.186,33,3  C488.879,573.585,482.012,572.265,475.25,571.64z M534.5,560.39c-3.534,4.359-7.049,0.679-7.5,8.25  C536.732,568.763,531.26,564.387,534.5,560.39z M497,540.14c10.974,4.504,21.683,9.447,33,12.75  C521.525,543.43,509.604,540.472,497,540.14z M443.75,536.39c-4.25,0-8.5,0-12.75,0C434.753,537.607,441.439,536.586,443.75,536.39z  "/>
<path fill-rule="evenodd" clip-rule="evenodd" fill="#A4A6A9" d="M428.75,542.39C429.659,547.919,428.666,541.88,428.75,542.39  L428.75,542.39z"/>
<path fill-rule="evenodd" clip-rule="evenodd" d="M442.25,561.14C447.195,565.275,443.655,562.315,442.25,561.14L442.25,561.14z   M431,537.14c0.211,2.202-3.818,2.808-1.5,5.25C437.879,537.57,431.152,538.727,431,537.14z"/>
<path fill-rule="evenodd" clip-rule="evenodd" d="M494,539.39c9.927,3.973,27.019,10.301,34.5,21.75  C522.434,547.527,507.803,543.571,494,539.39z M492.5,538.64C492.781,538.886,495.145,540.957,492.5,538.64L492.5,538.64z   M469.25,534.89c-23.588,0.084-56.666,3.976-24.75,27.75c15.869,11.82,56.524,17.068,74.25,11.25  c-18.883,2.946-55.411-2.953-70.5-15c-31.174-24.889,11.55-25.938,35.25-23.25C478.717,534.792,474.106,534.944,469.25,534.89z"/>
<path fill-rule="evenodd" clip-rule="evenodd" fill="#A4A6A9" d="M435.5,545.39c1.371,1.869,4.852,8.498,9.75,11.25  C441.46,553.262,438.681,549.185,435.5,545.39z"/>
<path fill-rule="evenodd" clip-rule="evenodd" fill="#BCBEC0" d="M388.25,556.64c-5.344,1.55-7.352,5.753-13.5,3  C379.09,554.701,382.962,557.379,388.25,556.64z"/>
<path fill-rule="evenodd" clip-rule="evenodd" d="M388.25,556.64c-0.364-0.924-1.924,1.263-3,0c-0.237,1.369,0.513,1.369,2.25,0  c-1.933-0.984-2.117,1.269-2.25-0.75c-0.25,1,0.25,1.25,1.5,0.75c-1.711-1.054-1.961-1.054-0.75,0c-1-1-1-1,0,0  c-2.58,0.367-8.001,1.749-9.75,2.25c2.45-1.923-0.002,0.001,0,0c0.444,0.128-0.442-0.417,0.75-0.75  c-0.854,2.377-1.286,1.008,0.75,0.75c-2.061,0.672-2.208,1.546,0,0.75c-3.173-0.804-0.713,1.9-1.5,0c2.76-0.375,8.41-1.63,10.5-2.25  c-1.711,0.263-1.961,0.763-0.75,1.5c4.124-1.664-4.291,0.795,0.75-2.25c-1.224,0.053-1.724,0.553-1.5,1.5  c2.028-1.712,2.028-1.962,0-0.75c2-0.5,4-1,6-1.5C355.527,535,391.185,583.725,388.25,556.64z"/>
<path fill-rule="evenodd" clip-rule="evenodd" fill="#BCBEC0" d="M410.75,564.14c-4.125,0.293-7.669,3.673-13.5,0  C402.271,557.452,405.343,562.975,410.75,564.14z"/>
<path fill-rule="evenodd" clip-rule="evenodd" d="M410.75,564.14c-3.232-0.578-2.916-0.231-1.5,0c-2.609-0.535-8.38-1.318-9.75-1.5  c0.574-1.07,1.498,0.167,0,0c1.25,0,1,0-0.75,0c2,0,2,0,0,0c2,0,2,0,0,0c1.224,1.171,1.724,1.171,1.5,0  c-0.524,0.268-2.173,0.335-0.75,1.5c1.211-0.737,0.961-1.237-0.75-1.5c1.264,0.36,0.734,1.406,0.75,1.5c0-1,0-1,0,0  c3.365,0.169,5.609,0.317,9,0.75c0.308,0.406-2.103-0.702,0.75-0.75c-1.25-0.5-1.75-0.25-1.5,0.75c4.724,0.342-3.092-0.57,1.5-0.75  c-3.754,0.509,2.156,0.941-1.5,0c2.061-0.242,4.061,0.008,6,0.75c-8.591-12.346-11.38-1.479-19.5-2.25  C401.882,563.364,407.972,575.717,410.75,564.14z"/>
<path fill-rule="evenodd" clip-rule="evenodd" fill="#BCBEC0" d="M411.5,553.64c-7.353,1.504-11.425,4.078-18-2.25  C400.826,546.369,404.853,550.131,411.5,553.64z"/>
<path fill-rule="evenodd" clip-rule="evenodd" d="M411.5,553.64c-3.309-0.945-2.926-1.162-1.5-0.75  c-4.062-0.436-10.963-1.224-15-1.5c2.593,0.023,1.49,0.067,0,0c2,0,2,0,0,0c2,0,2,0,0,0c2,0,2,0,0,0c0.773,0.098,2.774,0.829,0,0  c4.399,0.518,10.804,1.173,15,1.5c0.614,0.587-4.706-0.272,0,0c-2,0-2,0,0,0c-4.541,0.353,3.009,0.62-1.5,0  c1.939,0.742,3.939,0.992,6,0.75c-3.124-4.621-26.917-13.854-24-2.25C393.995,565.29,411.338,556.909,411.5,553.64z"/>
<path fill-rule="evenodd" clip-rule="evenodd" fill="#BCBEC0" d="M498.5,552.89C477.822,557.834,479.453,543.066,498.5,552.89  L498.5,552.89z"/>
<path fill-rule="evenodd" clip-rule="evenodd" d="M498.5,552.89c-2.373-0.457-9.707-1.205-16.5-2.25c1.955-0.03,0.019,0.003,0,0  c1.25,0,1,0-0.75,0c0.951,1.511,3.085-0.182,0,0c1.712,1.054,1.962,1.054,0.75,0c3.229,0.769-0.145-0.017,0,0  c2.602,0.537,10.662,1.911,14.25,2.25c-0.816-0.24-1.098-0.138,0,0c-1.25,0-1,0,0.75,0c-3.211,0.233,1.166-1.647-1.5,0  c2.061-0.242,4.061,0.008,6,0.75c-3.244-5.304-20.925-15.176-24-3.75C475.047,559.005,497.735,560.705,498.5,552.89z"/>
<path fill-rule="evenodd" clip-rule="evenodd" fill="#BCBEC0" d="M508.25,561.14c-4.613,0.837-7.966,4.312-14.25,1.5  c0-0.5,0-1,0-1.5C499.721,557.36,502.835,560.892,508.25,561.14z"/>
<path fill-rule="evenodd" clip-rule="evenodd" d="M508.25,561.14c-3.48,0.356-2.895,0-1.5,0c-0.643-0.569-1.621,0.735-1.5-0.75  c-0.25,1,0.25,1.25,1.5,0.75c-1.712-1.054-1.962-1.054-0.75,0c-1-1-1-1,0,0c-2.899-0.085-7.623-0.136-10.5,0  c0.75,0.25,1,0,0.75-0.75c-0.031-0.315-2.553,4.225,0.75,1.5c-1.775,0.448-2.416-0.214,0,0c-4.628,1.28,2.419,1.146-2.25,0  c1.055-1.201,4.27,2.672,0,0c1.456,0.625,1.678-0.389,1.5,1.5c0.177-0.677-0.073-1.177-0.75-1.5c1.093,0.145,0.747,1.568,0.75,1.5  c0-1,0-1,0,0c3.36-0.608,6.801-1.188,9.75-1.5c0.762,0.114-2.865,0.141,0.75-0.75c-1.5-0.5-2,0-1.5,1.5  c2.061-1.354,2.061-1.854,0-1.5c2,0,4,0,6,0c-10.285-9.286-12.223,0.331-20.25,0.75C496.979,561.578,508.872,573.81,508.25,561.14z"/>
<path fill-rule="evenodd" clip-rule="evenodd" fill="#BCBEC0" d="M456.5,546.89c-5.249,0.854-8.365,5.268-14.25,0.75  C447.976,543.263,451.091,546.79,456.5,546.89z"/>
<path fill-rule="evenodd" clip-rule="evenodd" d="M456.5,546.89c-3.888,0.532-1.36,1.925-3,0c-0.237,1.369,0.513,1.369,2.25,0  c-1.736,0.695-2.201,0-2.25-0.75c-0.25,1,0.25,1.25,1.5,0.75c-2-1-2-1,0,0c-2-1-2-1,0,0c-1.782-0.611-2.032-0.861-0.75-0.75  c-1,0-1,0,0,0c-3.117,0.248-9.49,1.33-10.5,1.5c0.677-0.323,0.927-0.823,0.75-1.5c0.171,1.52-0.15,1.283-1.5,1.5  c5.442-0.986,0.202-0.429,0,0c5.536-1.522-3.485-0.607,2.25,0c-2.516,0.471-1.614-1.025,0,0.75c-0.177-2.23-1.678,0.118-1.5,0  c1.369-0.025,1.844-0.629,0,0c2.288-0.011,8.681-0.55,10.5-0.75c-1.03,0.677-1.03,0.927,0,0.75c1.222-0.188-3.953,0.024,0.75-1.5  c-1.224,0.053-1.724,0.553-1.5,1.5c2.027-1.712,2.027-1.962,0-0.75c1.939-0.742,3.939-0.992,6-0.75  C430.79,521.032,453.171,574.783,456.5,546.89z"/>
<path fill-rule="evenodd" clip-rule="evenodd" fill="#BCBEC0" d="M487.25,561.14c-4.624-0.523-8.71,3.036-13.5-3  C480.143,555.3,482.52,559.693,487.25,561.14z"/>
<path fill-rule="evenodd" clip-rule="evenodd" d="M487.25,561.14c-2.963-0.591-2.746,0.993-2.25-1.5  c-0.175-0.009,1.024,0.711,0.75,0.75c-1-1-1-1,0,0c-2.984-0.754-8.203-1.81-10.5-2.25c3.358-0.84,0.215,0.027,0,0  c0.605-0.226,0.077-0.83,1.5,0c-1.727-0.06-2.303,0.457-0.75,1.5c-0.923-0.256-0.731-0.748-0.75-0.75c1,1,1,1,0,0  c3.192,0.948,7.785,1.84,10.5,2.25c-1.707-0.354-1.957-0.104-0.75,0.75c2.457,0.566-4.56-1.374,1.5-0.75  c-6.729-0.723,4.162,2.05-2.25,0c2.061-0.242,4.061,0.008,6,0.75C467.668,528.024,478.81,587.635,487.25,561.14z"/>
<path fill-rule="evenodd" clip-rule="evenodd" fill="#F15929" d="M254,303.14c3.515-6.476,10.267-12.32,15-18  c13.484,12.294,24.949,32.752,41.25,12.75c3.75,14,7.5,28,11.25,42c-15.75,1.25-31.5,2.5-47.25,3.75  C290.938,324.578,267.72,315.006,254,303.14z"/>
<path fill-rule="evenodd" clip-rule="evenodd" d="M254,303.14c1.734-1.315,11.293-6.774,15-14.25  c12.433,11.679,23.699,32.535,39,13.5c3.25,11.5,6.5,23,9.75,34.5c-12.75,1.25-25.5,2.5-38.25,3.75  c13.33-18.872-9.785-28.011-23.25-39.75c-2.935,2.492-2.662,2.091-3.75,5.25c14.807,12.629,34.64,20.873,17.25,41.25  c18.5-1.75,37-3.5,55.5-5.25c-4.5-16.5-9-33-13.5-49.5c-17.178,22.12-28.444,1.464-42.75-12  C261.33,290.151,248.089,301.594,254,303.14z"/>
</svg>