<svg xmlns="http://www.w3.org/2000/svg" xmlns:xlink="http://www.w3.org/1999/xlink" version="1.1" id="Layer_1" x="0px" y="0px" enable-background="new 0 0 822.05 841.89" xml:space="preserve" viewBox="230.16 263.3 365.26 319.06">
<path fill-rule="evenodd" clip-rule="evenodd" fill="#BEE7FB" d="M301,322.64c-18.406,9.749-11.25,34.165-11.25,51.694  c0,38.176,0,76.353,0,114.528c0,40.011,81.153,32.796,107.625,31.402c34.452-1.813,79.875,0.078,79.875-42.396  c0-28.609,20.981-143.738-15.75-153.729c3.127-3.55,1.378-3.054-0.75-6c2.145-1.359,5.299-2.53,7.5-3.75  c-17.189-9.644-52.4-3.211-72.606-3.302c-30.348-0.136-74.12-7.934-102.144,1.802c3.391,2.119,5.084,1.756,9,3  c-0.807,0.229-6.862,2.763-6.75,3C296.601,322.12,299.684,320.254,301,322.64z"/>
<path fill-rule="evenodd" clip-rule="evenodd" d="M301,322.64c-27.333-2.301-14.25,96.713-14.25,116.337  c0,18.971-9.695,65.048,14.25,74.913c29.882,6.697,133.31,25.576,165-5.25c22.89,1.589,14.25-70.023,14.25-84.899  c0-22.674,16.632-95.999-18.75-102.601c-0.555,2.069-0.055,3.819,1.5,5.25c-0.182-1.04-1.311-9.881-1.5-11.25c-1,2-1,4,0,6  c33.761-17.48-69.112-13.065-77.025-13.101c-29.517-0.132-59.033-0.264-88.549-0.396c-13.796-0.062,2.783,10.108,5.825,11.246  c1-2,1-4,0-6c-9.363,9.973-9.729,2.809-1.5,12.75c1.232-2.163,0.982-4.163-0.75-6c1.19,4.007,1.94,4.007,2.25,0  c0.739,0.096-4.576-1.764-3.75-0.75c0.75,0.25,1,0,0.75-0.75c-0.344,0.681,0.085,1.594-1.5,1.5c0.25,1.167,3.999-2.246,0,0  c2,0,2,0,0,0c3.628,1.158,0.665-0.357,0,0c1.348-0.288,1.285,1.002,1.5,1.5c0.25-0.75,0-1-0.75-0.75  c3.284-7.272,5.603-1.475-2.25-7.5c3.471-0.873-1.945-0.897,0,0c1.211-1.053,0.961-1.053-0.75,0c1.25,0.5,1.75,0.25,1.5-0.75  c-1.643,0.616-1.167,0.107-1.5,0.75c3.877-0.621,0.19,1.395,0,0c0.665,0.612,1.415,0.862,2.25,0.75c-1-1-1-1,0,0  c-0.559-0.167-0.748,0.375-1.5-3c14.29,9.569,57.866,3.259,78.175,3.351c22.509,0.101,72.919,8.073,89.075-2.601  c2.864,3.486-1.662,2.16,3.75,3c-4.01,3.572,2.67-2.517-1.5,0.75c5.883-4.375-0.977,0.318,0,0c2.787-3.014,1.431-0.668,1.5-1.5  c-2.251,0.208-1.862-1.127,0,0c-4.875,0.878-10.95,2.931-16.5,5.25c3.252,0.178,9.021,2.03,11.25,2.25c-1.26-0.104-0.846-0.028,0,0  c-1,0-1,0,0,0c-1,0-1,0,0,0c-1,0-1,0,0,0c0.444-0.144-2.07,0.404,0,0c-1.256,0.555-4.846,3.929-7.5,5.25  c11.769,2.163,20.548,9.747,20.25,12c0,39.237-13.846,117.998,3,148.5c-1.899,3.73-8.309,15.556-11.25,20.25c-1-2-1-2,0,0  c-40.639,2.119-156.926,35.977-176.25-17.25c12.073-20.74,12.073-135.259,0-156c6.035-3.104,12.405-8.586,19.5-12  C303.724,318.369,303.149,322.015,301,322.64z"/>
<path fill-rule="evenodd" clip-rule="evenodd" fill="#BEE7FB" d="M295.75,309.14c-5.512-13.173,56.118-22.421,69.75-22.5  c-2.627-1.995-1.326-3.371-0.75-5.25c-33.105-7.759,1.669-12.771,16.5-14.625c19.708-2.463,46.257,15.735,10.5,13.875  c0.157,0.465,6.646,2.708,7.5,3c0.136-0.068-7.833,4.265-7.5,3.75c29.009-0.019,53.875,12.291,80.25,19.5  c-15.881,10.899-57.624,3.272-78.4,3.094C360.983,309.703,328.367,309.421,295.75,309.14z"/>
<path fill-rule="evenodd" clip-rule="evenodd" d="M295.75,309.14c-1.045-4.637,2.221-1.472,1.5-3  c-1.779,0.095-1.851-0.866-3.75-0.75c-0.084,0.163,4.268-1.301,0,0c0.258,0.504,1.728-0.757,0.75,1.5  c1.283-1.447,1.033-1.947-0.75-1.5c22.496-0.065,52.88-14.95,79.5-16.5c-2.114-1.2-6.696-5.212-6.75-5.25c0.75,0.25,1,0,0.75-0.75  c-1.03,0.677-1.03,0.927,0,0.75c-1.223-0.776-1.322-0.34,0,0c-3.467,0.113,0.505-0.318-1.5,0c1,1,1,1,0,0  c0.548-0.159,6.842-2.757,8.25-3c-7.532-2-16.548-5.674-23.25-6.75c2.766-1.209,0.66,0.108,0,0c1.917-1.103,0.399-0.092,0.75,0.75  c-0.252-1.555,0.403,0.015-0.75-0.75c1,1,1,1,0,0c18.742-4.272,41.585-6.855,59.25,1.5c-0.75-0.25-1,0-0.75,0.75  c0.665-0.34,2.054-0.879,0-1.5c-0.25,1,0.25,1.25,1.5,0.75c-1.711-1.053-1.961-1.053-0.75,0c-1-1-1-1,0,0  c-9.139,0.015-14.251,2.403-18.75,8.25c1.767,0.371,4.519,0.575,6,1.5c-1,0-1,0,0,0c-1.283,0.112-1.033-0.138,0.75-0.75  c-1.25-0.5-1.75-0.25-1.5,0.75c0.365-1.25-0.533-1.118,0-2.25c-0.5,1.5,0,2,1.5,1.5c0.113-0.021-3.062-1.975-0.75-0.75  c-16.279,9.349,14.629,7.762,24.75,9.75c16.656,3.271,33.055,14.723,48.75,14.25c0.199,0.346-1.88,1.004,0.75,0  c-2.384-0.53-2.884-0.28-1.5,0.75c1.758-0.76,0.198-0.903-0.75-1.5c-0.25,1,0.25,1.25,1.5,0.75c-1.346-1.008-1.629-1.002-0.75-0.75  c0.385,2.065,1.88,3.634,0,0.75c-58-0.5-116-1-174-1.5c-0.447,4.013,0.053,4.013,1.5,0c-1.447,1.776-1.947,3.776-1.5,6  c49.148,0.422,98.297,0.844,147.445,1.266c8.776,0.075,24.045,3.925,31.055-2.766c10.614-10.129-15.82-4.091-10.5-5.25  c-8.244-16.8-51.483-20.867-72-21c-0.243,2.061,0.007,4.061,0.75,6c10.99-6.968,11.189-6.013,0-12.75  c-0.743,1.939-0.993,3.939-0.75,6c18.317,2.575,31.744-14.751,11.25-14.25c-7.644-7.468-29.797-8.176-38.25-1.5  c-15.795-8.552-27.735,14.926,0,16.5c0.316-1.842,0.066-3.592-0.75-5.25c-0.845-4.418-2.524,14.205-0.75,9.75  c2.207-1.146,2.957-2.896,2.25-5.25c-6.616,0.012-71.497,12.171-67.125,18C296.337,298.923,287.096,305.852,295.75,309.14z"/>
<path fill-rule="evenodd" clip-rule="evenodd" d="M300.25,318.89c53.509,0.14,107.003,1.211,160.5,2.25c0-2,0-4,0-6  C441.007,314.816,304.692,303.988,300.25,318.89z"/>
<path fill-rule="evenodd" clip-rule="evenodd" d="M461.5,321.14c-53-0.5-106-1-159-1.5c0,2,0,4,0,6  C326.117,325.863,458.448,336.876,461.5,321.14z"/>
<path fill-rule="evenodd" clip-rule="evenodd" d="M290.5,334.64c60.578,5.007,124.229,12.403,184.5,0.75c-0.25-2-0.5-4-0.75-6  C442.729,335.466,300.63,318.527,290.5,334.64z"/>
<path fill-rule="evenodd" clip-rule="evenodd" fill="#83A4B5" d="M297.25,498.89c52.838-20.121,116.435-17.093,169.5,0.75  C413.799,518.592,349.826,521.199,297.25,498.89z"/>
<path fill-rule="evenodd" clip-rule="evenodd" d="M297.25,498.89c15.145,5.448,57.165-9.366,78.778-10.306  c30.514-1.326,60.756,5.156,89.972,13.306c1.018-1.711,1.018-3.461,0-5.25c-53.014,21.073-114.892,18.991-168-0.75c-1,2-1,4,0,6  c-0.31-4.007-1.06-4.007-2.25,0c56.091,19.41,124.582,23.899,179.25-3c-57.394-19.271-129.291-26.023-186,0  C294.092,503.23,294.904,499.036,297.25,498.89z"/>
<path fill-rule="evenodd" clip-rule="evenodd" fill="#BCBEC0" d="M318.25,495.14c-21.006,25.33,56.862,21.431,63,6  C392.085,473.9,328.955,489.278,318.25,495.14z"/>
<path fill-rule="evenodd" clip-rule="evenodd" d="M318.25,495.14c-31.295,15.201,49.783,32.679,63.75,9  c19.28-32.686-52.97-19.256-66-10.5c4.967,2.867,51.143-3.577,61.5-5.25c5.909,14.37-13.928,16.307-21.75,22.5  c-10.613-3.996-32.947,1.236-41.25-8.25c3.462,0.876-1.283,2.401-1.5-0.75c3.1-0.852,2.521-1.631,7.5-4.5  C318.399,497.11,317.668,497.748,318.25,495.14z"/>
<path fill-rule="evenodd" clip-rule="evenodd" fill="#BCBEC0" d="M417.25,487.64c8.457,1.528,31.548,7.798,25.5,20.25  c-5.753,11.844-40.489,0.502-50.25-1.125C352.615,500.118,387.788,476.437,417.25,487.64z"/>
<path fill-rule="evenodd" clip-rule="evenodd" d="M417.25,487.64c4.349,3.101,19.281,9.949,25.5,15.75c-2,0-2,0,0,0  c-14.556,12.77-56.707,2.735-68.25-12.75c14.78-4.154,36.022,3.366,44.25-6c-11.247-3.72-27.458-5.645-34.5,0.75  c-18.613-7.709-18.057,17.301-2.25,16.5c3.559,7.738,19.338,12.458,26.25,6.75c8.14,9.662,33.765,10.828,39-6  c-4.001,0.742-4.001,0.992,0,0.75c-5.122-11.309-17.165-16.234-29.25-18.75C420.404,491.932,417.884,479.696,417.25,487.64z"/>
<path fill-rule="evenodd" clip-rule="evenodd" fill="#BCBDC0" d="M355.75,487.64c-15.005,0.601-32.19,4.449-40.5,17.25  c17.775,7.561,43.394,5.217,60.75-3.75C371.733,491.629,365.981,487.03,355.75,487.64z"/>
<path fill-rule="evenodd" clip-rule="evenodd" fill="#444446" d="M314.5,502.64L314.5,502.64L314.5,502.64z M355,483.14  c-13.738,0.631-53.402,11.119-38.25,27.75c9.977,10.951,49.721-1.874,60-9c-17.585,6.798-43.007,10.865-61.5,3  c10.407-16.033,35.121-18.868,53.25-16.5c0.25-1.25,0.5-2.5,0.75-3.75C364.509,484.098,359.73,483.757,355,483.14z"/>
<path fill-rule="evenodd" clip-rule="evenodd" fill="#444446" d="M368.5,489.89c2.742,4.604,2.527,8.774,8.25,12  C372.482,498.429,371.141,494.18,368.5,489.89z"/>
<path fill-rule="evenodd" clip-rule="evenodd" fill="#ACCADA" d="M345.25,514.64c-2.5,0-5,0-7.5,0c7.175,0.957,14.002,1.417,21,1.5  C354.25,515.64,349.75,515.14,345.25,514.64z M305.5,504.89c2.32,2.248,0.261,5.849,6.75,5.25  C310.512,506.248,307.996,507.309,305.5,504.89z M355,477.14c-14.508,0.617-28.709,4.881-40.5,13.5  c20.156-5.768,41.926-6.08,60-10.5C367.908,477.785,361.827,477.507,355,477.14z"/>
<path fill-rule="evenodd" clip-rule="evenodd" d="M305.5,508.64c10.573,14.134,33.553,10.604,49.5,8.25  C338.002,513.785,321.522,515.462,305.5,508.64z"/>
<path fill-rule="evenodd" clip-rule="evenodd" fill="#8199A6" d="M381.25,504.89c-4.253,2.4-8.023,4.622-12.75,6  C375.833,511.364,377.806,507.13,381.25,504.89z M313.75,496.64c-2.589,1.489-4.275,0.396-6,3  C312.649,501.745,310.552,498.479,313.75,496.64z"/>
<path fill-rule="evenodd" clip-rule="evenodd" d="M368.5,510.89c-8.045,1.457-14.933,3.578-23.25,3.75  c10.098,2.574,17.452,0.669,26.625-3C377.02,509.583,369.454,511.567,368.5,510.89z M307.75,499.64  c0.358,3.504-5.535,5.089,2.25,6.75C311.137,502.36,307.831,500.433,307.75,499.64z M326.5,487.64  c-8.896,2.222-13.976,2.417-18,10.5C314.452,495.134,320.783,491.881,326.5,487.64z M370.75,483.14  C367.417,483.14,370.083,483.14,370.75,483.14L370.75,483.14z"/>
<path fill-rule="evenodd" clip-rule="evenodd" d="M310.75,504.14L310.75,504.14L310.75,504.14z M355.75,481.64  c-12.484,0.132-56.155,8.924-43.5,28.5c9.754,15.088,57.127,1.97,69-5.25c-10.822-1.695-57.535,20.421-67.5,4.5  c-13.591-21.715,47.757-26.195,56.25-26.25C365.149,481.789,360.667,482.202,355.75,481.64z"/>
<path fill-rule="evenodd" clip-rule="evenodd" d="M376.75,501.89C381.792,504.799,377.828,502.512,376.75,501.89L376.75,501.89z"/>
<path fill-rule="evenodd" clip-rule="evenodd" fill="#BCBDC0" d="M398.5,487.64c-7.758-0.769-16.533,0.843-24,3  c6.057,7.843,14.041,12.731,24,14.25C398.5,499.454,399.771,492.887,398.5,487.64z"/>
<path fill-rule="evenodd" clip-rule="evenodd" fill="#444446" d="M382,498.14c5.603,3.249,9.628,7.14,16.5,9  C395.366,504.958,386.907,500.258,382,498.14z M398.5,483.14c-10.042-1.731-19.577,0.747-24,7.5  C384.031,489.956,394.414,486.591,398.5,483.14z"/>
<path fill-rule="evenodd" clip-rule="evenodd" fill="#ACCADA" d="M398.5,477.14c-9.834-1.006-19.762,1.051-27.75,6  C382.087,482.097,393.057,483.062,398.5,477.14z"/>
<path fill-rule="evenodd" clip-rule="evenodd" fill="#8199A6" d="M381.25,504.89c6.331,3.064,8.673,6.729,16.5,6  C391.4,510.083,386.939,507.103,381.25,504.89z"/>
<path fill-rule="evenodd" clip-rule="evenodd" d="M397.75,510.89c-2.25,0-4.5,0-6.75,0  C397.323,514.13,397.783,510.878,397.75,510.89z M380.5,482.39c-3.439,0.417-7.046,0.554-10.5,0.75  C373.589,483.771,379.599,482.5,380.5,482.39z"/>
<path fill-rule="evenodd" clip-rule="evenodd" fill="#A4A6A9" d="M368.5,488.39C368.5,491.723,368.5,489.057,368.5,488.39  L368.5,488.39z"/>
<path fill-rule="evenodd" clip-rule="evenodd" d="M379,503.39C384.237,506.565,379.897,503.934,379,503.39L379,503.39z M370,483.14  C371.605,493.049,370.009,483.198,370,483.14L370,483.14z"/>
<path fill-rule="evenodd" clip-rule="evenodd" d="M398.5,481.64c-39.61-3.881-30.401,25.462,0,29.25c0-1.25,0-2.5,0-3.75  C373.067,498.427,367.724,482.423,398.5,481.64z"/>
<path fill-rule="evenodd" clip-rule="evenodd" fill="#A4A6A9" d="M374.5,490.64c2.19,2.474,4.036,5.567,7.5,7.5  C379.021,495.941,376.928,493.382,374.5,490.64z"/>
<path fill-rule="evenodd" clip-rule="evenodd" fill="#BCBEC0" d="M337,499.64c-2.812,0.459-6.1,3.438-10.5,2.25  C330.094,497.476,333.44,500.222,337,499.64z"/>
<path fill-rule="evenodd" clip-rule="evenodd" d="M337,499.64c-0.574-1.254-2.042,0-3,0c3.457-1.117-0.088,1.713,0.75-1.5  c0.239-0.078-1.028,3.043,0,0c1.607-0.489-0.867,1.221,0.75,0.75c-1.668,0.297-5.329,0.917-7.5,1.5c1-1,1-1,0,0  c-0.123,1.205,0.266-0.585,0.75-0.75c-1.372,2.362-1.112,1.486,0.75,1.5c-2.28,0.771-1.882-1.568,0,1.5  c-1.742,0.603,0.207-1.13-1.5-0.75c1.783,0.611,2.033,0.861,0.75,0.75c1,0,1,0,0,0c1.882-0.63,5.663-1.885,6.75-2.25  c-0.351-0.135,0.199,0.422-0.75,0.75c2.807-0.949,0.635-0.564,0,0c2.237-1.53,1.987-2.03-0.75-1.5c2.061,0.242,4.061-0.008,6-0.75  C311.801,491.274,335.349,513.908,337,499.64z"/>
<path fill-rule="evenodd" clip-rule="evenodd" fill="#BCBEC0" d="M355,505.64c-3.495-0.682-6.021,2.481-10.5-0.75c0-0.5,0-1,0-1.5  C349.73,501.412,352.343,505.123,355,505.64z"/>
<path fill-rule="evenodd" clip-rule="evenodd" d="M355,505.64c-3.196-1.195-2.95-1.169-1.5-0.75c-0.677-1.03-0.927-1.03-0.75,0  c0.363,0.101-4.413-0.815-6.75-0.75c1.707,0.354,1.957,0.104,0.75-0.75c-2.83,2.164,4.866-0.151-1.5,0.75c3,0,3,0,0,0  c0.611,1.201-0.599,0.076,1.5,1.5c0.652-0.08-1.112-2.146-0.75-0.75c1,1,1,1,0,0c2.26,0.091,5.39,0.117,7.5,0  c0.353,0.313-4.866,0.679,0,0c-2,0-2,0,0,0c-2.028,0.358-0.391-1.447-1.5,0c1.939,0.742,3.939,0.992,6,0.75  C335.747,485.595,346.534,522.169,355,505.64z"/>
<path fill-rule="evenodd" clip-rule="evenodd" fill="#BCBEC0" d="M355.75,496.64c-5.42-0.241-8.807,3.392-14.25-1.5  C347.458,490.375,349.928,495.064,355.75,496.64z"/>
<path fill-rule="evenodd" clip-rule="evenodd" d="M355.75,496.64c0.069-0.469-3.62,0.648-3-1.5c0.677,1.03,0.927,1.03,0.75,0  c-1.03-0.177-1.03,0.073,0,0.75c-1.492-0.28-8.464-1.361-9.75-1.5c0.75,0.25,1,0,0.75-0.75c-1.077,1.126,1.081,1.183-1.5,1.5  c3.494-0.67-0.549-0.277-0.75,0c3,0,3,0,0,0c6.08,3.854-2.912-2.769,1.5,1.5c1.283-1.447,1.033-1.947-0.75-1.5  c1.489,0.418,0.589,1.281,0.75,1.5c0-1,0-1,0,0c2.657,0.089,7.275-0.129,9.75,0c-1,1-1,1,0,0c-1.211,1.054-0.961,1.054,0.75,0  c-1.25-0.5-1.75-0.25-1.5,0.75c1.199,0.076,1.101-0.305,1.5-0.75c-4.329,0.728,2.878,0.384-1.5,0c2.061-0.242,4.061,0.008,6,0.75  C331.344,463.897,350.943,524.396,355.75,496.64z"/>
<path fill-rule="evenodd" clip-rule="evenodd" fill="#BCBEC0" d="M423.25,496.64c-4.817-0.038-8.703,2.507-14.25-0.75  C414.037,490.109,417.426,494.971,423.25,496.64z"/>
<path fill-rule="evenodd" clip-rule="evenodd" d="M423.25,496.64c-2.006-1.153-4.35-1.445-1.5-0.75  c-1.782-0.611-2.032-0.861-0.75-0.75c-1,0-1,0,0,0c-3.114-0.353-8.307-0.684-9.75-0.75c-0.006-1.207,1.703-0.025-0.75,0  c1.25,0.5,1.75,0.25,1.5-0.75c-1.968,0.448-1.688,0.481,0,0.75c-1.337,1.819-0.415,0.499-1.5,0c1.008,0.363,2.223,2.559,0,0  c2.524,0.732,7.844,1.944,10.5,2.25c-1,1-1,1,0,0c-1.212,1.054-0.962,1.054,0.75,0c-1.25-0.5-1.75-0.25-1.5,0.75  c2.72,0.019-0.355-0.891,0-0.75c2.006,0.224,2.006-0.026,0-0.75c1.939,0.742,3.939,0.992,6,0.75  C400.738,466,415.133,522.444,423.25,496.64z"/>
<path fill-rule="evenodd" clip-rule="evenodd" fill="#BCBEC0" d="M430.75,502.64c-4.17,0.281-6.484,3.909-11.25,0.75  C423.854,499.836,426.998,502.893,430.75,502.64z"/>
<path fill-rule="evenodd" clip-rule="evenodd" d="M430.75,502.64c-9.146-1.222,4.379,0-3,0c3-0.712,0.966,1.262,0-0.75  c3.353-0.573-0.422,2.049,0.75-0.75c-1.212,0.737-0.962,1.237,0.75,1.5c-1.249-0.277-0.71-1.416-0.75-1.5c0,1,0,1,0,0  c-2.298,0.356-5.463,1.22-7.5,1.5c0.365,0.064,1.781,0.674,1.5-0.75c-2.725,2.304-1.645,1.256,0,1.5  c-1.554,0.368-2.734-0.292,0,0.75c-1.261,0.069-2.313-1.029-0.75,0.75c1.212-0.737,0.962-1.237-0.75-1.5  c1.277,0.304,0.701,1.397,0.75,1.5c0-1,0-1,0,0c3.675-0.638,3.376-0.771,7.5-1.5c-0.083-0.115-1.485,0.76-1.5,0.75  c3.025-1.416,3.025-1.916,0-1.5c2,0,4,0,6,0C406.8,489.653,426.93,518.44,430.75,502.64z"/>
<path fill-rule="evenodd" clip-rule="evenodd" fill="#BCBEC0" d="M390.25,492.14c-3.625,0-6.252,3.551-11.25,0  C383.998,488.589,386.625,492.14,390.25,492.14z"/>
<path fill-rule="evenodd" clip-rule="evenodd" d="M390.25,492.14c-9.337-0.995,4.521,0-3,0c3.471-0.952-0.058,1.599,0.75-1.5  c0.765-0.06-1.066,3.156,0,0c1,1,1,1,0,0c2.12-0.162-1.309,1.127,0.75,0.75c-1-1-1-1,0,0c-1.762-0.019-6.506-0.087-7.5,0  c1.03,0.177,1.03-0.073,0-0.75c0.182,0.981,1.877,1.033-0.75,1.5c2.728,0.144,0.639-0.803-0.75,0c3,0,3,0,0,0  c2.85-1.758,0.366,0.211,2.25,1.5c1.778-0.02-4.58-4.354,0,0c-2-1-2-1,0,0c-3.894,0.415,1.329-1.515-0.75-0.75c1,1,1,1,0,0  c2.541,0.108,5.719-0.381,7.5-0.75c2.313,1.191-5.334,0.85,0,0c-1.211,1.054-0.961,1.054,0.75,0c-2.384-0.53-2.884-0.28-1.5,0.75  c2.23-0.835,1.98-1.085-0.75-0.75c2.061,0.242,4.061-0.008,6-0.75C363.434,474.833,389.824,510.625,390.25,492.14z"/>
<path fill-rule="evenodd" clip-rule="evenodd" fill="#BCBEC0" d="M415,502.64c-3.739-0.713-7.434,1.781-11.25-2.25  C408.781,498.313,410.769,501.833,415,502.64z"/>
<path fill-rule="evenodd" clip-rule="evenodd" d="M415,502.64c-0.986-1.265-2.86-0.538-3,0c1.782,0.447,2.032-0.053,0.75-1.5  c2.484,0.537-1.74,0.745,0.75,0.75c-2.192-0.56-5.762-1.229-7.5-1.5c-0.396-1.264,2.448,0.232-1.5,0c1.75,0.75,2.5,0.5,2.25-0.75  c-2.399,0.768-1.912,0.527,0,1.5c-2.404-0.101-1.078-1.773-0.75,0.75c-0.205-0.001-1.559-2.323,0,0.75  c0.177-0.677-0.073-1.177-0.75-1.5c1.053,1.712,1.053,1.962,0,0.75c1,1,1,1,0,0c2.199,0.525,6.628,1.358,7.5,1.5  c-0.75-0.25-1,0-0.75,0.75c2.775,0.054-2.972-1.17,1.5-1.5c-0.258-0.16-4.011,0.812,0,0c-2,0-2,0,0,0  c-2.983,0.439,1.232,1.173-1.5,0c0.747-0.583,5.253,0.127,6,0C394.5,485.521,405.257,516.007,415,502.64z"/>
<path fill-rule="evenodd" clip-rule="evenodd" fill="#F15929" d="M232.75,301.64c2.346-5.2,8.29-9.844,12-14.25  c7.809,12.396,20.39,22.936,31.5,9.75c3,11,6,22,9,33c-12.25,1-24.5,2-36.75,3C261.126,317.947,243.942,311.289,232.75,301.64z"/>
<path fill-rule="evenodd" clip-rule="evenodd" d="M232.75,301.64c-0.747,0.979,9.606-4.828,12-9.75  c8.085,12.644,18.115,20.153,30,10.5c3.122,6.364,6.496,18.425,6.75,25.5c-9.25,0.75-18.5,1.5-27.75,2.25  c8.843-15.074-7.628-21.063-18.75-30.75c-3.022,2.583-2.569,1.973-3.75,5.25c14.149,7.45,24.658,17.904,12.75,32.25  c15-1.25,30-2.5,45-3.75c-3.5-13.5-7-27-10.5-40.5c-14.515,16.284-22.597,1.271-34.5-9.75  C237.818,288.446,224.573,303.178,232.75,301.64z"/>
<path fill-rule="evenodd" clip-rule="evenodd" fill="#BEE7FB" d="M412.75,378.89c-31.344,15.397-11.25,134.636-11.25,166.218  c0,39.751,81.833,32.765,107.625,31.407C550.973,574.313,589,574.3,589,527.024c0-27.008,20.739-137.854-15.75-146.634  c4.289-4.854,1.274-2.784-0.75-6c2.346-1.528,6.004-4.235,7.5-5.25c-26.51-5.079-56.355-1.729-83.425-1.851  c-24.256-0.109-70.771-8.385-90.575,2.601c2.624,1.046,5.764,1.168,8.25,2.25C405.286,374.619,409.217,375.106,412.75,378.89z"/>
<path fill-rule="evenodd" clip-rule="evenodd" d="M412.75,378.89c-28.296-2.47-22.662,192.552,0.75,187.5  c20.021,20.196,149.665,23.146,164.25-2.25c23.74,3.655,14.25-81.411,14.25-95.25c0-19.43,8.164-59.311-0.75-77.25  c-5.082-10.229-12.564-16.791-16.5-9c-0.197-3.2-1.027-8.291-1.5-11.25c-1,2-1,4,0,6c33.926-18.011-59.379-13.022-66.158-13.052  c-33.139-0.148-66.278-0.296-99.417-0.444c-13.882-0.062,3.571,10.198,6.575,11.246c0.242-2.061-0.008-4.061-0.75-6  c-8.932,9.407-9.274,3.172-1.5,12.75c1-2,1-4,0-6c5.314,1.786-1.528,0.549-2.25-0.75c0.75,0.25,1,0,0.75-0.75  c-0.096,0.207-2.908,3.411,0.75,1.5c-0.641-1.125-2.054-0.284-2.25,0c4.581-0.973-0.196,1.728,0,0c-0.389,0.408,5.353-0.566,6-0.75  c-4.108-5.325-4.973-4.308-7.5-6c1.649,0.223-0.269-0.041,0,0c1.211-1.053,0.961-1.053-0.75,0c2.399-0.073,1.712-1.233,0,0  c1.121-1.047,1.31,0.26,1.5,0.75c0.25-0.75,0-1-0.75-0.75c0.323,0.677,0.823,0.927,1.5,0.75  c28.625-9.233,132.418,19.771,165.75-2.25c2.633,2.164-0.745,2.302,3.75,3c-0.75-0.25-1,0-0.75,0.75  c2.337-2.088-2.606,0.436,1.5-1.5c-3.044,5.374-1.087-3.404,0,0c-6.574-0.858,1.532,1.315-1.5-0.75  c-1.207,0.854-0.957,1.104,0.75,0.75c-4.601,0.573-10.342,2.704-15.75,4.5c3.317,0.296,7.211,2.293,10.5,3  c0.277,0.187-2.094-0.615,0.75-0.75c-1.7,0.278-2.533,0.621,0,0c-1.75,0-2,0-0.75,0c-1,0-1,0,0,0c-2.215,1.25-4.486,3.846-7.5,5.25  c9.963,1.648,18.394,6.429,23.25,12.75c-11.551,20.769-11.551,126.98,0,147.75c-2.138,4.135-8.779,16.542-11.25,21c-1-3-1-3,0,0  c-39.887-0.627-155.372,36.545-176.25-17.25c12.123-20.967,12.123-135.783,0-156.75c6.171-3.025,13.124-8.389,20.25-12  C416.001,374.537,415.018,378.154,412.75,378.89z"/>
<path fill-rule="evenodd" clip-rule="evenodd" fill="#BEE7FB" d="M408.25,364.64c-7.026-12.29,55.921-21.585,69-22.5  c-3.045-1.96-1-2.657,0-4.5c-32.67-7.775-0.749-15,16.125-15c18.979,0,46.944,14.729,10.125,14.25c0.632,0.88,6.375,2.557,7.5,3  c0.514-0.246-7.443,3.679-7.5,3.75c29.02-1.171,54.436,11.186,81,19.5c-17.839,10.906-57.179,3.046-78.822,2.765  C473.202,365.484,440.726,365.062,408.25,364.64z"/>
<path fill-rule="evenodd" clip-rule="evenodd" d="M408.25,364.64c-0.672-1.729,3.002-3.581-3-3c-0.314,0.447,4.441-1.757,0,0  c0.064-0.289,1.479-0.36,1.5,1.5c0.5-1.5,0-2-1.5-1.5c2.595,1.217,0.713,1.801,0.75,0.75c20.582-2.437,50.882-17.632,79.5-17.25  c-2.48-1.378-5.345-4.473-7.5-6c1.32,1.261-0.777-1.051,0.75,0c-0.712-1.002,1.032,0.616-1.5,0c2.035,0.157,1.321,1.112,0.75,1.5  c1.03-0.677,1.03-0.927,0-0.75c-0.547,0.2,6.229-2.803,7.5-3c-7.692-2.294-15.803-5.643-23.25-7.5c2,0,2,0,0,0  c0.702-1.056,0.234,0.009,1.5,0.75c0.25-1-0.25-1.25-1.5-0.75c1.383-0.119,1.737,1.388,0.75,0.75  c19.273-5.066,42.309-6.162,59.25,1.5c-1.25-0.5-1.75-0.25-1.5,0.75c1.531-1.204,0.031-1.682,1.5-0.75c-1.611-0.511-1.529-0.962,0,0  c-5.376-0.38-12.851,1.071-18.75,2.25c0,2,0,4,0,6c-0.918,0.061,6.759,1.104,6,0.75c-0.961-0.616-1.714-0.3,0,0  c-2.118-0.054-0.23-1.724-0.75-1.5c-1.282,1.447-1.032,1.947,0.75,1.5c2.584-1.08-7.418-0.3-6,0c0.25,2,0.5,4,0.75,6  c27.245,0.152,54.159,17.066,78,17.25c-1.03,0.677-1.03,0.927,0,0.75c0.177-1.03-0.073-1.03-0.75,0c2.061-1.354,2.061-1.854,0-1.5  c0.185,0.072,2.34,1.75,0,0c0.994,1.239-0.514-1.031,0.75,0c-1.03-0.177-1.78,0.323-2.25,1.5c1.555,3.233,2.055,2.983,1.5-0.75  c-28.875-0.375-57.75-0.75-86.625-1.125C473.473,362.487,423.326,354.179,408.25,364.64c-0.297-6.584-0.034,2.826,0,3  c51.497,0.666,102.993,1.332,154.49,1.998c30.23,0.391,20.941-13.018,14.26-10.998c-22.898-11.84-47.715-18.039-73.5-18  c-0.242,2.061,0.008,4.061,0.75,6c11.552-7.358,11.954-6.481,0-12.75c-1,2-1,4,0,6c19.505,2.159,29.493-15.823,10.5-14.25  c-5.406-7.557-30.302-8.268-37.5-1.5c-18.013-8.455-26.578,13.962-0.75,16.5c1.232-2.163,0.982-4.163-0.75-6  c-0.842-4.083-1.707,14.675,0,9.75c1.555-1.431,2.055-3.181,1.5-5.25c-23.056,1.699-47.223,5.569-67.5,17.25  C406.101,355.913,399.482,361.893,408.25,364.64z"/>
<path fill-rule="evenodd" clip-rule="evenodd" d="M412,374.39c53.486,0.214,107.022,1.961,160.5,3c0-2,0-4,0-6  C552.585,371.061,416.368,360.196,412,374.39z"/>
<path fill-rule="evenodd" clip-rule="evenodd" d="M573.25,377.39c-53-0.75-106-1.5-159-2.25c0,2,0,4,0,6  C437.833,381.474,570.214,393.031,573.25,377.39z"/>
<path fill-rule="evenodd" clip-rule="evenodd" d="M402.25,390.89c61.772,5.106,122.765,9.196,184.5,0.75c-0.25-2-0.5-4-0.75-6  c-34.138,4.67-68.878,6.38-103.306,5.056C463.724,389.966,410.763,378.147,402.25,390.89z"/>
<path fill-rule="evenodd" clip-rule="evenodd" fill="#83A4B5" d="M409,555.14c54.102-20.136,115.009-16.054,169.5,0  C525.49,578.902,462.646,572.156,409,555.14z"/>
<path fill-rule="evenodd" clip-rule="evenodd" d="M409,555.14c20.675,3.029,55.101-9.243,79.527-10.306  c29.789-1.295,61.055,3.772,89.223,13.306c1.018-1.789,1.018-3.539,0-5.25c-54.671,18.491-112.871,19.165-167.25-0.75  c-2.023,1.876-2.023,3.626,0,5.25c-1.153-3.013-1.903-3.013-2.25,0c54.651,23.052,125.1,21.538,179.25-2.25  c-58.876-18.772-128.492-25.584-186.75,0C404.866,557.707,407.802,555.185,409,555.14z"/>
<path fill-rule="evenodd" clip-rule="evenodd" fill="#BCBEC0" d="M430.75,551.39c-22.511,24.76,55.757,21.462,62.25,5.25  C503.406,530.66,441.7,544.325,430.75,551.39z"/>
<path fill-rule="evenodd" clip-rule="evenodd" d="M430.75,551.39c-32.386,13.315,46.062,31.884,61.5,10.5  c24.005-33.249-49.829-21.753-64.5-12c4.058,2.363,53.625-3.909,61.5-6c6.267,15.236-19.367,21.07-21.75,19.5  c-13.625,2.09-31.306,4.326-41.25-4.5c2.93-0.111-0.261,2.14-1.5-0.75c4.021-0.763,3.003-2.287,8.25-4.5  C430.309,553.281,430.847,554.673,430.75,551.39z"/>
<path fill-rule="evenodd" clip-rule="evenodd" fill="#BCBEC0" d="M529,543.14c50.471,13.761,9.463,32.632-22.5,20.25  C464.834,547.25,499.975,534.591,529,543.14z"/>
<path fill-rule="evenodd" clip-rule="evenodd" d="M529,543.14c4.135,3.975,20.483,11.65,25.5,15.75c-2,1-2,1,0,0  c-13.825,13.433-57.017,2.726-68.25-12c12.411-4.594,29.993-4.702,42-0.75c0.028-2.3,1.028-4.05,3-5.25  c-11.418-3.688-28.017-5.607-35.25,0.75c-17.061-7.61-19.483,15.938-1.5,16.5c1.898,7.439,19.434,11.642,26.25,6.75  c6.403,8.371,33.06,11.022,38.25-6c-4.001-0.242-4.001,0.008,0,0.75c-4.589-12.27-16.873-15.557-29.25-19.5  C532.458,544.932,529.991,538.606,529,543.14z"/>
<path fill-rule="evenodd" clip-rule="evenodd" fill="#BCBDC0" d="M468.25,543.89c-10.802-0.633-58.452,16.008-30.75,20.625  c15.85,2.642,35.858,0.048,50.25-7.125C483.871,547.991,478.191,543.267,468.25,543.89z"/>
<path fill-rule="evenodd" clip-rule="evenodd" fill="#444446" d="M426.25,558.89L426.25,558.89L426.25,558.89z M466.75,539.39  c-10.912-0.497-51.147,10.729-40.5,26.25c9.082,13.239,51.836-0.542,62.25-7.5c-9.921,3.652-43.301,13.916-53.25,6  c-19.535-15.545,30.633-21.646,45-19.5c0.25-1.25,0.5-2.5,0.75-3.75C476.07,539.349,471.773,539.9,466.75,539.39z"/>
<path fill-rule="evenodd" clip-rule="evenodd" fill="#444446" d="M480.25,546.14c3.041,4.726,3.171,9.258,9,12  C485.047,554.646,483.195,550.342,480.25,546.14z"/>
<path fill-rule="evenodd" clip-rule="evenodd" fill="#ACCADA" d="M457,570.89c-2.5,0-5,0-7.5,0c7.119,0.945,14.088,1.372,21,1.5  C466,571.89,461.5,571.39,457,570.89z M417.25,561.14c2.729,2.337,1.469,5.797,7.5,5.25  C422.486,563.164,419.937,563.44,417.25,561.14z M466.75,533.39c-14.271-0.848-27.979,5.004-39.75,12.75  c19.55-3.819,40.856-5.648,59.25-9.75C479.685,534.044,473.567,533.686,466.75,533.39z"/>
<path fill-rule="evenodd" clip-rule="evenodd" d="M418,564.89c10.03,13.75,33.923,10.731,49.5,8.25  C450.475,570.144,433.831,571.96,418,564.89z"/>
<path fill-rule="evenodd" clip-rule="evenodd" fill="#8199A6" d="M493,561.14c-4.059,2.124-8.414,4.234-12.75,6  C486.896,567.347,489.921,562.983,493,561.14z M425.5,552.89C418.195,556.755,419.981,555.811,425.5,552.89L425.5,552.89z"/>
<path fill-rule="evenodd" clip-rule="evenodd" d="M480.25,567.14c-7.797,1.062-15.424,2.782-23.25,3.75  c10.098,2.574,17.452,0.669,26.625-3C488.77,565.833,481.203,567.817,480.25,567.14z M419.5,555.14  c0.631,4.339-5.421,6.267,2.25,7.5C423.31,557.721,419.84,557.476,419.5,555.14z M438.25,543.89c-9.087,1.998-14.133,1.941-18,10.5  C426.159,551.406,432.634,548.163,438.25,543.89z M482.5,538.64C481.896,539.244,481.896,539.244,482.5,538.64L482.5,538.64z"/>
<path fill-rule="evenodd" clip-rule="evenodd" d="M468.25,537.89c-15.56-0.59-58.583,10.113-41.25,30  c10.786,12.376,53.989,0.353,66-6.75c-11.473-1.4-56.117,20.001-66.75,4.5c-13.881-20.235,43.638-27.474,54.75-24.75  c-0.224-0.947,0.276-1.447,1.5-1.5C477.874,537.784,473.27,538.343,468.25,537.89z"/>
<path fill-rule="evenodd" clip-rule="evenodd" d="M489.25,558.14C487.762,556.164,493.048,563.184,489.25,558.14L489.25,558.14z"/>
<path fill-rule="evenodd" clip-rule="evenodd" fill="#BCBDC0" d="M529,543.14c-7.844,2.539-28.926-0.175-42,3  c7.669,12.743,30.418,19.246,45.75,18C569.012,561.193,541.262,554.926,529,543.14z"/>
<path fill-rule="evenodd" clip-rule="evenodd" fill="#444446" d="M532,540.89c-1.908,2.61-2.277,0.259-3.75,5.25  c56.279,14.329-11.109,23.533-33.75,8.25C515.978,575.948,588.343,575.9,532,540.89z M514,539.39  c-11.479-0.691-22.098,0.229-27,6.75c12.915-3.137,29.225-3.958,41.25,0c-0.058-1.957,0.692-3.457,2.25-4.5  C524.858,539.272,520.049,539.884,514,539.39z"/>
<path fill-rule="evenodd" clip-rule="evenodd" fill="#ACCADA" d="M532.75,570.14c-2.25,0.5-4.5,1-6.75,1.5  C531.113,571.617,538.583,567.518,532.75,570.14z M563.5,564.14c-3.25,1.141-5.586,0.762-8.25,3  C558.599,567.207,561.418,564.871,563.5,564.14z M534.25,537.89L534.25,537.89z M514,533.39c-11.123-0.789-21.652,0.401-31.5,5.25  c12.997-0.195,49.483,0.763,49.5,0.75c4.284,1.676,12.544,3.546,18.75,5.25C539.045,538.166,527.541,532.613,514,533.39z"/>
<path fill-rule="evenodd" clip-rule="evenodd" d="M562.75,565.64c-10.33,4.618-23.62,6.973-35.25,6  C540.342,576.235,554.702,577.208,562.75,565.64z"/>
<path fill-rule="evenodd" clip-rule="evenodd" fill="#8199A6" d="M493,561.14c6.2,2.839,8.935,6.569,16.5,6  C503.37,566.134,498.594,563.305,493,561.14z M555.25,552.14c2.387,1.702,3.715,3.507,3.75,6.75c1.5-0.5,3-1,4.5-1.5  C561.869,551.346,559.453,555.136,555.25,552.14z"/>
<path fill-rule="evenodd" clip-rule="evenodd" d="M509.5,567.14c-12.308,3.491,16.592,3.92,23.25,3  C525.075,568.638,517.307,567.515,509.5,567.14z M563.5,557.39c-2.413,3.669-5.914,1.39-6.75,8.25  C567.024,565.609,560.932,561.294,563.5,557.39z M534.25,541.64c9.466,3.831,18.257,8.755,27.75,12  C555.382,545.367,544.918,541.566,534.25,541.64z M493,538.64c-3.5,0-7,0-10.5,0C485.761,540.805,488.632,539.018,493,538.64z"/>
<path fill-rule="evenodd" clip-rule="evenodd" fill="#A4A6A9" d="M480.25,544.64C481.296,547.836,480.196,544.477,480.25,544.64  L480.25,544.64z"/>
<path fill-rule="evenodd" clip-rule="evenodd" d="M490.75,559.64C495.986,562.815,491.647,560.184,490.75,559.64L490.75,559.64z   M482.5,539.39c-0.068,1.53-2.895,2.91-1.5,5.25C487.197,540.138,482.456,540.375,482.5,539.39z"/>
<path fill-rule="evenodd" clip-rule="evenodd" d="M531.25,540.89L531.25,540.89z M512.5,537.89c-46.837-3.22-27.881,30,4.875,30  c8.601,0,33.225,9.478,39.375-2.25c7.934-15.128-15.83-23.186-25.5-23.25c56.715,18.93-1.316,34.61-29.625,17.625  c-36.073-21.644,9.979-22.471,29.625-19.125c-0.47-0.258-0.935,1.029,0,1.5C527.614,538.702,519.901,538.875,512.5,537.89z"/>
<path fill-rule="evenodd" clip-rule="evenodd" fill="#A4A6A9" d="M487,546.14c1.372,1.965,2.898,6.286,7.5,8.25  C490.924,552.28,488.97,548.961,487,546.14z"/>
<path fill-rule="evenodd" clip-rule="evenodd" fill="#BCBEC0" d="M449.5,555.14c-3.646,0.739-5.766,3.8-10.5,3  C441.753,552.984,445.19,556.014,449.5,555.14z"/>
<path fill-rule="evenodd" clip-rule="evenodd" d="M449.5,555.14c-3.888,0.532-1.36,1.925-3,0c-0.237,1.369,0.513,1.369,2.25,0  c-0.124-1.151-2.115,1.305-2.25-0.75c-0.25,1,0.25,1.25,1.5,0.75c-2-1-2-1,0,0c-2-1-2-1,0,0c-1.782-0.611-2.032-0.861-0.75-0.75  c-1,0-1,0,0,0c-2.718,0.583-5.935,1.946-6.75,2.25c1-0.5,1-1,0-1.5c0.05,0.101,0.992,4.475,1.5,1.5c-0.75-1.25-1.5-1-2.25,0.75  c3.245-1.018,2.995-1.018-0.75,0c2.25,1,3.25,0.75,3-0.75c-3.104,1.75-1.917,0.337-0.75,1.5c1.384-1.03,0.884-1.28-1.5-0.75  c1.478,0.185,1.517-0.071,1.5,1.5c0.177-0.677-0.073-1.177-0.75-1.5c0.891,0.028,0.823,1.595,0.75,1.5c0-1,0-1,0,0  c2.307-0.801,4.663-1.672,6.75-2.25c-0.234-0.051,0.233-2.297-1.5-0.75c0.661-0.254,3.691,1.648,0,0  c-0.021,0.073,4.876-1.638,5.25-2.25C423.166,548.775,447.619,569.867,449.5,555.14z"/>
<path fill-rule="evenodd" clip-rule="evenodd" fill="#BCBEC0" d="M466.75,561.14c-3.465-0.386-6.522,3.123-10.5-1.5  C461.075,556.346,463.085,560.733,466.75,561.14z"/>
<path fill-rule="evenodd" clip-rule="evenodd" d="M466.75,561.14c-1.151-2.543-3.069,2.622-2.25-1.5  c-2.616,1.104,2.85,0.454,0.75,0.75c-1-1-1-1,0,0c-2.516-0.317-5.142-0.186-7.5,0c1.5,0.5,2,0,1.5-1.5  c-6.673,1.924,5.525,1.002-2.25,1.5c3,0,3,0,0,0c2.244,0.476,2.146,0.379,0.75,0c0.677,1.03,0.927,1.03,0.75,0  c-0.593-0.113,4.61,0.789,6.75,0.75c-1.707-0.354-1.957-0.104-0.75,0.75c1.786,0.426-3.67-0.635,1.5-0.75  c-7.022,0.398,4.729,0.839-2.25,0c2.061-0.242,4.061,0.008,6,0.75C447.404,538.763,460.688,581.577,466.75,561.14z"/>
<path fill-rule="evenodd" clip-rule="evenodd" fill="#BCBEC0" d="M467.5,552.89c-5.478-0.114-9.307,2.904-14.25-2.25  C459.651,547.164,462.623,551.417,467.5,552.89z"/>
<path fill-rule="evenodd" clip-rule="evenodd" d="M467.5,552.89c-2.781-0.909-3.469-1.186-1.5,0c-2.545-0.739-7.796-2.001-10.5-2.25  c1-1,1-1,0,0c1.212-1.054,0.962-1.054-0.75,0c1.25,0.5,1.75,0.25,1.5-0.75c-3.761,1.261,1.238-1.109-1.5,0.75  c1.641-0.737,2.341,1.635,0,0c2,1,2,1,0,0c2.861,1.074,1.893,0.727,0,0c1.884,1.177,2.134,1.677,0.75,1.5c1,0,1,0,0,0  c3.065,0.348,8.328,0.631,9.75,0.75c-1.321,0.799-0.503-0.002,0.75,0c-1.25-0.5-1.75-0.25-1.5,0.75  c-0.003-0.001,1.927-0.402,2.25-0.75c-1.737-1.369-2.487-1.369-2.25,0c3.002,0.237,3.002-0.013,0-0.75  c1.939,0.742,3.939,0.992,6,0.75C443.945,522.629,461.669,578.002,467.5,552.89z"/>
<path fill-rule="evenodd" clip-rule="evenodd" fill="#BCBEC0" d="M535,552.14c-5.094,0.229-8.529,3.813-14.25-1.5  C527.118,546.551,529.516,551.151,535,552.14z"/>
<path fill-rule="evenodd" clip-rule="evenodd" d="M535,552.14c-0.983-0.896-4.563-1.038-1.5,0c-1.246-0.328-0.695-1.564-0.75-1.5  c0,1,0,1,0,0c-2.966-0.15-6.317-0.276-9.75-0.75c1,0,1,0,0,0c1.282-0.111,1.032,0.139-0.75,0.75c1.25,0.5,1.75,0.25,1.5-0.75  c-4.999,1.682,2.952-0.866-1.5,0.75c2,0,2,0,0,0c1.443-1.445-0.475,0.301,1.5,1.5c2.261,0.311-5.467-4.155,0,0  c-0.677-1.03-0.927-1.03-0.75,0c1.03,0.177,1.03-0.073,0-0.75c1.493,0.28,8.458,1.381,9.75,1.5c-0.75-0.25-1,0-0.75,0.75  c2.738-0.037-2.88-0.962,1.5-1.5c-1.644-1.761-1.025,2.449,0.75,0c-6.662-0.651,4.08,2.057-2.25,0c2.061-0.242,4.061,0.008,6,0.75  C509.901,520.861,530.039,579.002,535,552.14z"/>
<path fill-rule="evenodd" clip-rule="evenodd" fill="#BCBEC0" d="M542.5,558.89c-3.305,0.158-6.583,3.094-11.25,0.75  C535.307,556.324,539.181,559.048,542.5,558.89z"/>
<path fill-rule="evenodd" clip-rule="evenodd" d="M542.5,558.89c-7.781,2.111,3.356,0-3,0c6.838-1.276-4.721,0,2.25,0  c0.173-0.8-5.955-0.303,0,0c-1.712-1.054-1.962-1.054-0.75,0c-2.401-0.71-0.662-0.155,0,0c-1.589-0.324,0.157-2.468,0-0.75  c-1.774-0.031-7.49,0.748-7.5,0.75c1-0.5,1-1,0-1.5c-0.499,2.386,2.674,0.23-0.75,2.25c1.191-0.087,3.203-3.253,0,0  c2.237-1.03,1.987-1.03-0.75,0c1.75,0.75,2.5,0.5,2.25-0.75c-3.065,0.925-1.001,0.683,0,1.5c0.25-1-0.25-1.25-1.5-0.75c2,1,2,1,0,0  c2,1,2,1,0,0c1.782,0.611,2.032,0.861,0.75,0.75c1,0,1,0,0,0c2.528-0.213,5.351-0.472,7.5-0.75c-1,1-1,1,0,0  c0.742,0.041-1.414,0.754-0.75,0.75c2.237-1.53,1.987-2.03-0.75-1.5c2,0,4,0,6,0C521.428,539.383,538.645,579.207,542.5,558.89z"/>
<path fill-rule="evenodd" clip-rule="evenodd" fill="#BCBEC0" d="M502.75,547.64c-3.705,0.243-6.566,3.304-11.25,1.5  C494.998,544.353,498.152,547.943,502.75,547.64z"/>
<path fill-rule="evenodd" clip-rule="evenodd" d="M502.75,547.64c-9.188-1.177,4.41,0-3,0c3.191,0.059,0.705,0.718,0-0.75  c-0.25,1.25,0.5,1.5,2.25,0.75c0.211-1.158-1.905,0.89-2.25-1.5c-0.224,0.947,0.276,1.447,1.5,1.5  c-3.797-1.021,0.255-1.102-0.75-0.75c-1-1-1-1,0,0c-1-1-1-1,0,0c-1.634,0.113-5.283,0.342-7.5,0.75c1-1,1-1,0,0  c0.837,0.518-0.377-0.448,0.75-0.75c-1.361,2.471-1.126,1.355,0.75,1.5c-6.861,1.28,4.336-2.221-2.25,0c-0.141,0.51,5.891,0.659,0,0  c1.712,1.054,1.962,1.054,0.75,0c2.915,1.308-0.326,1.747,0,0c1.594,0.351-0.155,2.449,0,0.75c1.387-0.07,6.321-0.569,7.5-0.75  c-1.03,0.677-1.03,0.927,0,0.75c1.271-0.246-3.988,0.207,0.75-1.5c-1.5-0.5-2,0-1.5,1.5c2.061-1.354,2.061-1.854,0-1.5c2,0,4,0,6,0  C479.1,530.447,498.542,566.776,502.75,547.64z"/>
<path fill-rule="evenodd" clip-rule="evenodd" fill="#BCBEC0" d="M526.75,558.89c-3.901-0.846-7.159,1.59-11.25-2.25  C520.748,554.168,522.621,557.995,526.75,558.89z"/>
<path fill-rule="evenodd" clip-rule="evenodd" d="M526.75,558.89c-2.159,2.122-2.211-1.623-2.25-1.5c2.396,0.616-0.693,1.751,0-0.75  c-0.177,0.677,0.073,1.177,0.75,1.5c-1.305-0.474-6.372-2.008-7.5-2.25c0.75,0.25,1,0,0.75-0.75c-0.263,0.809,0.072,1.327-1.5,1.5  c1.743-0.255,2.502-0.517,0,0c2.184,0.275-1.629-1.077,1.5,0c-1.849,0.656-0.424,1.957-1.5,0c2.033,0.954-0.004,0.749,0,0.75  c2.227,0.67,5.03,1.605,7.5,2.25c-0.137-0.036-1.534-0.886,0.75-0.75c-1.25-0.5-1.75-0.25-1.5,0.75  c3.151,0.743-2.55-0.467,2.25-0.75c-1.737-1.369-2.487-1.369-2.25,0c3.002,0.237,3.002-0.013,0-0.75c2,0.5,4,1,6,1.5  C507.591,539.461,517.604,573.689,526.75,558.89z"/>
<path fill-rule="evenodd" clip-rule="evenodd" fill="#F15929" d="M345.25,357.89c2.154-5.142,7.763-9.833,11.25-14.25  c8.836,12.224,20.163,23.43,32.25,9.75c3,11,6,22,9,33c-12.5,1-25,2-37.5,3C372.761,374.42,356.186,367.654,345.25,357.89z"/>
<path fill-rule="evenodd" clip-rule="evenodd" d="M345.25,357.89c-0.872,1.221,9.089-4.835,11.25-9.75  c8.457,12.582,18.622,20.388,30,9.75c3.159,6.405,6.419,18.371,6.75,25.5c-9.25,1-18.5,2-27.75,3  c8.843-15.074-7.628-21.063-18.75-30.75c-2.226,1.745-1.976,3.245,0.75,4.5c-1.5-3-3-3-4.5,0c14.012,7.825,24.668,18.591,12.75,33  c15.25-1.5,30.5-3,45.75-4.5c-3.75-13.25-7.5-26.5-11.25-39.75c-13.959,16.33-22.11,1.027-33.75-9.75  C350.239,344.797,336.167,358.283,345.25,357.89z"/>
</svg>