<svg xmlns="http://www.w3.org/2000/svg" xmlns:xlink="http://www.w3.org/1999/xlink" version="1.1" id="Layer_1" x="0px" y="0px" enable-background="new 0 0 822.05 841.89" xml:space="preserve" viewBox="209.57 253.64 401.45 334.11">
<path fill-rule="evenodd" clip-rule="evenodd" fill="#EAB649" stroke="#000000" stroke-width="2" stroke-linecap="square" stroke-miterlimit="10" d="  M279.266,511.89c0-30.75,0-61.5,0-92.25c-39.004,5.277-101.112-39.614-48.375-69.75c9.893-5.653,20.365-5.627,30.375-9.75  c3.824-1.575,20.25,2.808,20.25-1.682c0-13.689,0-27.378,0-41.068c0-20.078-9.727-42.75,12.978-42.75c27.674,0,55.348,0,83.022,0  c-36.819,76.713,86.516,100.244,64.502,6c28.185,0,56.368,0,84.553,0c3.506,0,1.697,72.238,1.697,81.75  c28.85-6.001,81.75-5.652,81.75,34.875c0,56.801-45.077,70.823-96.75,59.625c1,29.75,2,59.5,3,89.25c-23,0.5-46,1-69,1.5  c17.637,71.746-96.226,85.575-88.502,0C336.738,528.709,273.064,546.844,279.266,511.89z"/>
</svg>