<svg xmlns="http://www.w3.org/2000/svg" xmlns:xlink="http://www.w3.org/1999/xlink" version="1.1" id="Layer_1" x="0px" y="0px" enable-background="new 0 0 822.05 841.89" xml:space="preserve" viewBox="249.26 252.48 321.53 338.91">
<path fill-rule="evenodd" clip-rule="evenodd" fill="#6D6F71" stroke="#000000" stroke-width="2" stroke-linecap="square" stroke-miterlimit="10" d="  M422.76,333.644c41.16,32.652,82.32,65.305,123.48,97.957c13.595,10.784,28.4,22.401,22.02,41.543  c-15.827,47.481-60.43,63.436-100.618,88.711c-19.392,12.196-45.324,36.352-70.382,26.039  c-30.803-12.677-65.076-60.846-89.29-83.207c-21.589-19.938-58.142-41.702-57.71-75.793c0.305-24.099,19.959-46.634,41.647-54.338  C332.829,360.018,378.538,334.822,422.76,333.644z"/>
<path fill="none" stroke="#000000" stroke-width="2" stroke-linecap="square" stroke-miterlimit="10" d="M273.51,385.394  c49.01,42.491,98.019,84.982,147.029,127.474c17.404,15.09,119.791-46.532,143.221-56.974"/>
<line fill="none" stroke="#000000" stroke-width="2" stroke-linecap="square" stroke-miterlimit="10" x1="408.51" y1="587.894" x2="425.76" y2="517.394"/>
<path fill-rule="evenodd" clip-rule="evenodd" fill="#BCBEC0" stroke="#000000" stroke-width="2" stroke-linecap="square" stroke-miterlimit="10" d="  M347.76,380.144c21.019-6.794,64.162-32.433,82.164-17.385c29.361,24.545,58.724,49.09,88.086,73.635  c-24.482,13.89-66.011,54.241-89.83,34.392C410.753,456.264,318.555,399.838,347.76,380.144z"/>
<path fill-rule="evenodd" clip-rule="evenodd" fill="#BCBEC0" stroke="#000000" stroke-width="2" stroke-linecap="square" stroke-miterlimit="10" d="  M453.51,317.894c-7.242,18.874-41.492,68.074-9.75,78c21.396,6.691,21.303-15.169,27-31.5  C482.339,331.199,485.092,333.685,453.51,317.894z"/>
<path fill-rule="evenodd" clip-rule="evenodd" fill="#ED1C24" stroke="#000000" stroke-width="2" stroke-linecap="square" stroke-miterlimit="10" d="  M521.76,294.644c1.185,55.868-86.759,55.771-86.25,0C436.01,239.827,522.115,239.688,521.76,294.644z"/>
<path fill-rule="evenodd" clip-rule="evenodd" fill="#6D6F71" stroke="#000000" stroke-width="2" stroke-linecap="square" stroke-miterlimit="10" d="  M430.26,369.644c-47.568,23.004,52.777,63.674,32.25,16.5c5.75,12.25,11.5,24.5,17.25,36.75  c-22.118,10.828-49.447,11.797-68.625-5.25c-8.29-7.369-19.295-22.358-16.125-34.5C399.55,365.753,411.478,370.955,430.26,369.644z"/>
<path fill-rule="evenodd" clip-rule="evenodd" fill="#ED1C24" stroke="#000000" stroke-width="2" stroke-linecap="square" stroke-miterlimit="10" d="  M357.51,392.144c-5.457,20.907-53.875,24.95-54,0C303.383,366.813,351.891,371.197,357.51,392.144z"/>
<path fill-rule="evenodd" clip-rule="evenodd" fill="#ED1C24" stroke="#000000" stroke-width="2" stroke-linecap="square" stroke-miterlimit="10" d="  M457.26,473.894c-5.384,24.18-54.248,27-54,0C403.504,447.273,451.807,450.139,457.26,473.894z"/>
</svg>