<svg xmlns="http://www.w3.org/2000/svg" xmlns:xlink="http://www.w3.org/1999/xlink" version="1.1" id="Layer_1" x="0px" y="0px" enable-background="new 0 0 822.05 841.89" xml:space="preserve" viewBox="204.56 247.64 412.82 347">
<path fill-rule="evenodd" clip-rule="evenodd" fill="#6D6F71" stroke="#000000" stroke-width="2" stroke-linecap="square" stroke-miterlimit="10" d="  M519.762,319.89c14.232,11.312,113.481,68.691,94.125,94.5c-21.134,28.179-75.775,85.723-115.125,68.25  c-27.416-12.173-55.858-52.478-77.817-73.052c-10.626-9.956-16.269-22.604-12.183-37.198  C418.6,337.251,489.256,321.253,519.762,319.89z"/>
<path fill="none" stroke="#000000" stroke-width="2" stroke-linecap="square" stroke-miterlimit="10" d="M422.262,353.64  c32.109,27.764,64.22,55.528,96.329,83.292c11.426,9.88,78.074-30.014,93.421-36.792"/>
<line fill="none" stroke="#000000" stroke-width="2" stroke-linecap="square" stroke-miterlimit="10" x1="510.762" y1="486.39" x2="522.012" y2="439.89"/>
<path fill-rule="evenodd" clip-rule="evenodd" fill="#BCBEC0" stroke="#000000" stroke-width="2" stroke-linecap="square" stroke-miterlimit="10" d="  M471.012,350.64c14.142-4.64,41.251-21.229,53.556-11.24c19.398,15.747,38.796,31.493,58.194,47.24  c-12.323,7.068-44.403,34.687-56.056,25.083c-21.064-17.361-42.13-34.722-63.194-52.083  C466.012,356.64,468.512,353.64,471.012,350.64z"/>
<path fill-rule="evenodd" clip-rule="evenodd" fill="#BCBEC0" stroke="#000000" stroke-width="2" stroke-linecap="square" stroke-miterlimit="10" d="  M540.012,309.39c-4.861,12.964-26.811,44.146-6,51C552.056,366.333,571.172,314.917,540.012,309.39z"/>
<path fill-rule="evenodd" clip-rule="evenodd" fill="#ED1C24" stroke="#000000" stroke-width="2" stroke-linecap="square" stroke-miterlimit="10" d="  M585.012,294.39c-1.482,36.373-56.365,36.447-56.25,0C528.876,258.283,582.55,258.57,585.012,294.39z"/>
<path fill-rule="evenodd" clip-rule="evenodd" fill="#6D6F71" stroke="#000000" stroke-width="2" stroke-linecap="square" stroke-miterlimit="10" d="  M525.012,343.14c-25.49,17.686,27.684,41.093,21,11.25c4.765,6.847,7.947,16.317,11.25,24  C511.759,400.69,485.32,334.706,525.012,343.14z"/>
<path fill-rule="evenodd" clip-rule="evenodd" fill="#ED1C24" stroke="#000000" stroke-width="2" stroke-linecap="square" stroke-miterlimit="10" d="  M477.012,358.14c-4.749,10.988-35.25,18.687-35.25,0S472.263,347.152,477.012,358.14z"/>
<path fill-rule="evenodd" clip-rule="evenodd" fill="#ED1C24" stroke="#000000" stroke-width="2" stroke-linecap="square" stroke-miterlimit="10" d="  M542.262,412.14c-4.657,12.876-34.441,19.029-35.25,0C506.188,392.767,538.044,397.866,542.262,412.14z"/>
<path fill-rule="evenodd" clip-rule="evenodd" fill="#6D6F71" stroke="#000000" stroke-width="2" stroke-linecap="square" stroke-miterlimit="10" d="  M317.262,301.14c26.633,21.17,102.224,56.466,93.75,96c-6.903,32.209-83.213,81.209-114.75,66.75  c-26.941-12.353-55.731-52.607-77.748-73.052c-11.242-10.439-15.452-21.545-11.502-36.448  C216.558,318.377,285.708,302.722,317.262,301.14z"/>
<path fill="none" stroke="#000000" stroke-width="2" stroke-linecap="square" stroke-miterlimit="10" d="M219.762,334.89  c32.11,27.764,64.22,55.528,96.329,83.292c11.499,9.943,78.702-30.016,94.171-36.792"/>
<line fill="none" stroke="#000000" stroke-width="2" stroke-linecap="square" stroke-miterlimit="10" x1="308.262" y1="467.64" x2="319.512" y2="421.14"/>
<path fill-rule="evenodd" clip-rule="evenodd" fill="#BCBEC0" stroke="#000000" stroke-width="2" stroke-linecap="square" stroke-miterlimit="10" d="  M268.512,331.89c13.029-4.275,41.519-21.088,52.722-11.861c19.676,16.204,39.352,32.408,59.028,48.611  c-19.98,11.459-42.345,36.479-61.664,20.344C304.559,377.259,252.239,348.236,268.512,331.89z"/>
<path fill-rule="evenodd" clip-rule="evenodd" fill="#BCBEC0" stroke="#000000" stroke-width="2" stroke-linecap="square" stroke-miterlimit="10" d="  M337.512,290.64c-4.861,12.964-26.81,44.146-6,51C349.556,347.583,368.672,296.167,337.512,290.64z"/>
<path fill-rule="evenodd" clip-rule="evenodd" fill="#ED1C24" stroke="#000000" stroke-width="2" stroke-linecap="square" stroke-miterlimit="10" d="  M382.512,275.64c-0.617,36.546-56.334,36.342-56.25,0C326.345,239.665,380.945,239.625,382.512,275.64z"/>
<path fill-rule="evenodd" clip-rule="evenodd" fill="#6D6F71" stroke="#000000" stroke-width="2" stroke-linecap="square" stroke-miterlimit="10" d="  M322.512,325.14c-25.639,16.642,28.077,41.111,21,10.5c4.765,6.847,7.947,16.317,11.25,24  C308.269,382.949,284.738,314.82,322.512,325.14z"/>
<path fill-rule="evenodd" clip-rule="evenodd" fill="#ED1C24" stroke="#000000" stroke-width="2" stroke-linecap="square" stroke-miterlimit="10" d="  M274.512,339.39c-4.803,10.658-35.25,18.987-35.25,0S269.709,328.732,274.512,339.39z"/>
<path fill-rule="evenodd" clip-rule="evenodd" fill="#ED1C24" stroke="#000000" stroke-width="2" stroke-linecap="square" stroke-miterlimit="10" d="  M339.762,393.39c-4.242,12.25-30.253,19.433-34.5,2.25C300.563,376.629,334.823,376.673,339.762,393.39z"/>
<path fill-rule="evenodd" clip-rule="evenodd" fill="#6D6F71" stroke="#000000" stroke-width="2" stroke-linecap="square" stroke-miterlimit="10" d="  M508.512,427.14c26.618,21.385,101.493,56.6,93,96c-6.873,31.887-82.76,82.102-114.75,67.5  c-26.185-11.952-55.947-53.072-77.748-73.121c-11.028-10.142-15.603-22.497-11.502-37.129  C407.745,443.883,476.402,430.048,508.512,427.14z"/>
<path fill="none" stroke="#000000" stroke-width="2" stroke-linecap="square" stroke-miterlimit="10" d="M410.262,461.64  c32.109,27.764,64.22,55.528,96.329,83.292c11.44,9.892,78.78-30.674,94.171-37.542"/>
<line fill="none" stroke="#000000" stroke-width="2" stroke-linecap="square" stroke-miterlimit="10" x1="498.762" y1="593.64" x2="510.012" y2="547.89"/>
<path fill-rule="evenodd" clip-rule="evenodd" fill="#BCBEC0" stroke="#000000" stroke-width="2" stroke-linecap="square" stroke-miterlimit="10" d="  M459.012,457.89c14.213-4.592,42.016-21.361,54.24-11.175c19.17,15.976,38.34,31.95,57.51,47.925  c-19.917,11.423-42.315,36.408-61.664,20.461C494.668,503.208,442.459,475.222,459.012,457.89z"/>
<path fill-rule="evenodd" clip-rule="evenodd" fill="#BCBEC0" stroke="#000000" stroke-width="2" stroke-linecap="square" stroke-miterlimit="10" d="  M528.762,417.39c-4.777,12.161-27.719,44.453-6.75,51C539.48,473.844,559.41,422.403,528.762,417.39z"/>
<path fill-rule="evenodd" clip-rule="evenodd" fill="#ED1C24" stroke="#000000" stroke-width="2" stroke-linecap="square" stroke-miterlimit="10" d="  M573.012,402.39c-2.03,35.812-56.132,36.203-56.25,0C516.643,365.943,572.024,365.903,573.012,402.39z"/>
<path fill-rule="evenodd" clip-rule="evenodd" fill="#6D6F71" stroke="#000000" stroke-width="2" stroke-linecap="square" stroke-miterlimit="10" d="  M513.012,451.14c-25.414,17.46,28.873,40.886,21,10.5c19.051,26.863-3.382,38.452-27,25.5  C488.16,476.802,479.189,443.207,513.012,451.14z"/>
<path fill-rule="evenodd" clip-rule="evenodd" fill="#ED1C24" stroke="#000000" stroke-width="2" stroke-linecap="square" stroke-miterlimit="10" d="  M465.762,465.39c-4.886,11.434-35.572,18.795-36,0C429.336,446.708,460.759,456.43,465.762,465.39z"/>
<path fill-rule="evenodd" clip-rule="evenodd" fill="#ED1C24" stroke="#000000" stroke-width="2" stroke-linecap="square" stroke-miterlimit="10" d="  M531.012,519.39c-4.638,12.882-36.359,19.963-36,0C495.371,499.434,526.119,506.732,531.012,519.39z"/>
</svg>