<svg xmlns="http://www.w3.org/2000/svg" xmlns:xlink="http://www.w3.org/1999/xlink" version="1.1" id="Layer_1" x="0px" y="0px" enable-background="new 0 0 822.05 841.89" xml:space="preserve" viewBox="363.01 344.86 98.76 155.31">
<path fill-rule="evenodd" clip-rule="evenodd" fill="#F0CBA6" stroke="#000000" stroke-width="1.25" stroke-linecap="square" stroke-miterlimit="10" d="  M449.895,414.791c0.5-0.432-12.707,5.775-16.5,9.75c-1.397-6.958-5.148-15.813-6-21.75c0.445,7.785,2.429,17.751,5.25,26.25  C437.81,423.928,445.087,420.019,449.895,414.791z"/>
<path fill-rule="evenodd" clip-rule="evenodd" fill="#F0CBA6" stroke="#000000" stroke-width="1.25" stroke-linecap="square" stroke-miterlimit="10" d="  M395.145,428.291c-7.003,0.524-13.125-0.113-18.75,3c15.499,2.014,27.226-4.443,23.25-20.25  C398.044,416.764,396.752,422.573,395.145,428.291z"/>
<path fill-rule="evenodd" clip-rule="evenodd" fill="#F8130D" stroke="#000000" stroke-width="1.25" stroke-linecap="square" stroke-miterlimit="10" d="  M401.145,401.291c15.806-7.047,33.358-3.586,35.25,16.5c-7.584-4.25-4.373,2.314-11.25-7.5c3.515,5.888,4.004,15.142,6,21.75  c-10.5,0.75-21,1.5-31.5,2.25c1.803-7.704,2.297-16.68,5.25-24c-1.25,4.25-2.5,8.5-3.75,12.75  C390.677,418.426,393.596,409.56,401.145,401.291z"/>
<path fill-rule="evenodd" clip-rule="evenodd" fill="#F0CBA6" stroke="#000000" stroke-width="1.25" stroke-linecap="square" stroke-miterlimit="10" d="  M430.395,464.291c-4.775-6.578-11.708-15.467-15.75-20.25c4.999,6.956,8.519,15.57,14.25,20.25  c-4.685,7.272-4.436,19.885-5.25,30.75C425.611,487.402,426.748,473.56,430.395,464.291z"/>
<path fill-rule="evenodd" clip-rule="evenodd" fill="#200F75" stroke="#000000" stroke-width="1.25" stroke-linecap="square" stroke-miterlimit="10" d="  M421.395,492.791c8.339-1.183,13.268-3.157,18,3.75C428.051,500.08,422.586,499.128,421.395,492.791z"/>
<path fill-rule="evenodd" clip-rule="evenodd" fill="#F0CBA6" stroke="#000000" stroke-width="1.25" stroke-linecap="square" stroke-miterlimit="10" d="  M407.895,468.041c4.041-6.799,6.924-15.015,9.75-22.5c-12.553,22.428-11.502,26.385-6.75,51.75  C410.412,487.882,409.876,474.917,407.895,468.041z"/>
<path fill-rule="evenodd" clip-rule="evenodd" fill="#200F75" stroke="#000000" stroke-width="1.25" stroke-linecap="square" stroke-miterlimit="10" d="  M412.395,495.041c-7.757-0.681-13.033-2.005-18.75,3C403.963,501.603,409.609,498.13,412.395,495.041z"/>
<path fill-rule="evenodd" clip-rule="evenodd" fill="#200F75" stroke="#000000" stroke-width="1.25" stroke-linecap="square" stroke-miterlimit="10" d="  M403.395,435.791c-1.464,6.32-12.976,30.255-4.875,31.875c15.04,3.008,23.518-0.75,17.625-18.375  c-1.226,9.237,12.339,30.479,19.5,15.75C446.531,442.648,419.902,430.825,403.395,435.791z"/>
<path fill-rule="evenodd" clip-rule="evenodd" fill="#F0CBA6" stroke="#000000" stroke-width="1.25" stroke-linecap="square" stroke-miterlimit="10" d="  M415.395,376.541c13.786,11.088,5.263,26.096-11.25,16.5C409.702,388.292,411.073,381.162,415.395,376.541z"/>
<path fill-rule="evenodd" clip-rule="evenodd" fill="#200F75" stroke="#000000" stroke-width="1.25" stroke-linecap="square" stroke-miterlimit="10" d="  M402.645,392.291c7.127-7.173,12.223-16.081,15.75-25.5C409.178,370.841,395.712,377.59,402.645,392.291z"/>
<path fill-rule="evenodd" clip-rule="evenodd" fill="#F0CBA6" stroke="#000000" stroke-width="1.25" stroke-linecap="square" stroke-miterlimit="10" d="  M365.895,429.791c5.545,0.647,8.882,4.1,14.25,0C374.282,425.89,370.715,429.25,365.895,429.791z"/>
<path fill-rule="evenodd" clip-rule="evenodd" fill="#F0CBA6" stroke="#000000" stroke-width="1.25" stroke-linecap="square" stroke-miterlimit="10" d="  M460.395,412.541c-4.083,0.904-7.518,4.603-13.5,2.25C450.884,409.064,454.76,412.898,460.395,412.541z"/>
<path fill-rule="evenodd" clip-rule="evenodd" fill="#F8130D" stroke="#000000" stroke-width="1.25" stroke-linecap="square" stroke-miterlimit="10" d="  M375.645,414.791C359.684,434.12,359.573,395.758,375.645,414.791L375.645,414.791z"/>
<path fill-rule="evenodd" clip-rule="evenodd" fill="#F8130D" stroke="#000000" stroke-width="1.25" stroke-linecap="square" stroke-miterlimit="10" d="  M387.645,357.041C370.399,375.662,370.512,338.124,387.645,357.041L387.645,357.041z"/>
<path fill-rule="evenodd" clip-rule="evenodd" fill="#F8130D" stroke="#000000" stroke-width="1.25" stroke-linecap="square" stroke-miterlimit="10" d="  M439.395,351.041C423.31,370.283,423.31,331.798,439.395,351.041L439.395,351.041z"/>
<path fill-rule="evenodd" clip-rule="evenodd" fill="#F8130D" stroke="#000000" stroke-width="1.25" stroke-linecap="square" stroke-miterlimit="10" d="  M461.145,398.291C443.926,417.302,443.926,379.279,461.145,398.291L461.145,398.291z"/>
</svg>