<svg xmlns="http://www.w3.org/2000/svg" xmlns:xlink="http://www.w3.org/1999/xlink" version="1.1" id="Layer_1" x="0px" y="0px" enable-background="new 0 0 822.05 841.89" xml:space="preserve" viewBox="201.05 258.14 418.46 324.08">
<path fill-rule="evenodd" clip-rule="evenodd" fill="#D3EFFC" stroke="#000000" stroke-width="2" stroke-linecap="square" stroke-miterlimit="10" d="  M410.25,317.14c34.555,15.348,11.138,97.317,31.5,126.752c14.72,21.277,41.516,22.262,64.5,20.25  c88.578-7.753,70.693-102.205,81-173.252C542.758,289.181,441.761,276.598,410.25,317.14z"/>
<path fill-rule="evenodd" clip-rule="evenodd" fill="#B5E4FA" stroke="#000000" stroke-width="2" stroke-linecap="square" stroke-miterlimit="10" d="  M587.25,290.89c26.661-13.264,32.289,6.749,31.125,29.25c-1.611,31.155-20.575,65.547-46.875,84  c3.355-29.641,8.191-36.892,21-60.375c5.952-10.912,7.789-22.891,3.75-34.875c-4,2.5-8,5-12,7.5  C585.209,308.242,584.908,298.73,587.25,290.89z"/>
<line fill="none" stroke="#000000" stroke-width="2" stroke-linecap="square" stroke-miterlimit="10" x1="504.75" y1="337.39" x2="504.75" y2="440.892"/>
<line fill="none" stroke="#000000" stroke-width="2" stroke-linecap="square" stroke-miterlimit="10" x1="495.75" y1="350.89" x2="513.75" y2="350.89"/>
<line fill="none" stroke="#000000" stroke-width="2" stroke-linecap="square" stroke-miterlimit="10" x1="495.75" y1="364.39" x2="513.75" y2="364.39"/>
<line fill="none" stroke="#000000" stroke-width="2" stroke-linecap="square" stroke-miterlimit="10" x1="495.75" y1="377.89" x2="513.75" y2="377.89"/>
<line fill="none" stroke="#000000" stroke-width="2" stroke-linecap="square" stroke-miterlimit="10" x1="495.75" y1="390.64" x2="513.75" y2="390.64"/>
<line fill="none" stroke="#000000" stroke-width="2" stroke-linecap="square" stroke-miterlimit="10" x1="495.75" y1="403.39" x2="513.75" y2="403.39"/>
<line fill="none" stroke="#000000" stroke-width="2" stroke-linecap="square" stroke-miterlimit="10" x1="495.75" y1="416.89" x2="513.75" y2="416.89"/>
<path fill-rule="evenodd" clip-rule="evenodd" fill="#E1F3FC" stroke="#000000" stroke-width="2" stroke-linecap="square" stroke-miterlimit="10" d="  M424.5,279.64c24.873-17.493,150.218-37.999,160.5,5.25c6.41,26.965-49.629,34.778-66.027,36.917  c-30.777,4.015-91.782-22.556-112.473-3.917C403.601,302.626,412.298,288.298,424.5,279.64z"/>
<path fill-rule="evenodd" clip-rule="evenodd" fill="#D3EFFC" stroke="#000000" stroke-width="2" stroke-linecap="square" stroke-miterlimit="10" d="  M207,349.39c34.482,15.278,10.522,97.37,30.75,126.752c14.772,21.457,41.503,22.423,64.5,20.25  c88.609-8.37,70.566-101.333,81-173.252C341.407,321.533,234.646,308.542,207,349.39z"/>
<path fill-rule="evenodd" clip-rule="evenodd" fill="#B5E4FA" stroke="#000000" stroke-width="2" stroke-linecap="square" stroke-miterlimit="10" d="  M383.25,323.14c26.91-12.268,32.316,6.209,31.126,29.25c-1.584,30.652-19.504,67.154-46.876,84.002  c3.371-29.215,8.216-36.939,21-60.377c5.832-10.691,7.838-22.405,3.75-34.125c-4,2.25-8,4.5-12,6.75  C381.206,340.517,380.867,330.939,383.25,323.14z"/>
<line fill="none" stroke="#000000" stroke-width="2" stroke-linecap="square" stroke-miterlimit="10" x1="301.5" y1="369.64" x2="301.5" y2="473.142"/>
<line fill="none" stroke="#000000" stroke-width="2" stroke-linecap="square" stroke-miterlimit="10" x1="291.75" y1="383.14" x2="309.75" y2="383.14"/>
<line fill="none" stroke="#000000" stroke-width="2" stroke-linecap="square" stroke-miterlimit="10" x1="291.75" y1="396.64" x2="309.75" y2="396.64"/>
<line fill="none" stroke="#000000" stroke-width="2" stroke-linecap="square" stroke-miterlimit="10" x1="291.75" y1="410.14" x2="309.75" y2="410.14"/>
<line fill="none" stroke="#000000" stroke-width="2" stroke-linecap="square" stroke-miterlimit="10" x1="291.75" y1="422.892" x2="309.75" y2="422.892"/>
<line fill="none" stroke="#000000" stroke-width="2" stroke-linecap="square" stroke-miterlimit="10" x1="291.75" y1="435.642" x2="309.75" y2="435.642"/>
<line fill="none" stroke="#000000" stroke-width="2" stroke-linecap="square" stroke-miterlimit="10" x1="291.75" y1="449.142" x2="309.75" y2="449.142"/>
<path fill-rule="evenodd" clip-rule="evenodd" fill="#E1F3FC" stroke="#000000" stroke-width="2" stroke-linecap="square" stroke-miterlimit="10" d="  M220.5,311.89c25.707-16.394,148.78-38.662,160.5,5.25c7.376,27.637-49.819,34.803-66.028,36.917  c-31.315,4.085-90.129-22.287-112.472-3.917C199.975,335.037,208.426,320.756,220.5,311.89z"/>
<path fill-rule="evenodd" clip-rule="evenodd" fill="#D3EFFC" stroke="#000000" stroke-width="2" stroke-linecap="square" stroke-miterlimit="10" d="  M338.25,433.392c34.494,15.341,10.373,97.578,30.75,126.75c15.121,21.646,41.971,22.45,65.25,20.25  c88.047-8.32,69.869-101.694,80.25-173.252C470.589,405.46,369.204,393.517,338.25,433.392z"/>
<path fill-rule="evenodd" clip-rule="evenodd" fill="#B5E4FA" stroke="#000000" stroke-width="2" stroke-linecap="square" stroke-miterlimit="10" d="  M514.5,407.14c27.484-11.596,33.116,6.038,31.875,29.626c-1.635,31.054-21.159,66.304-47.625,84.376  c3.325-29.377,8.246-36.993,21-60.375c5.963-10.931,8.114-22.833,4.5-34.875c-4,2.25-8,4.5-12,6.75  C512.965,424.538,512.319,414.953,514.5,407.14z"/>
<line fill="none" stroke="#000000" stroke-width="2" stroke-linecap="square" stroke-miterlimit="10" x1="432.75" y1="454.392" x2="432.75" y2="557.142"/>
<line fill="none" stroke="#000000" stroke-width="2" stroke-linecap="square" stroke-miterlimit="10" x1="423.75" y1="467.142" x2="441" y2="467.142"/>
<line fill="none" stroke="#000000" stroke-width="2" stroke-linecap="square" stroke-miterlimit="10" x1="423.75" y1="480.642" x2="441" y2="480.642"/>
<line fill="none" stroke="#000000" stroke-width="2" stroke-linecap="square" stroke-miterlimit="10" x1="423.75" y1="494.142" x2="441" y2="494.142"/>
<line fill="none" stroke="#000000" stroke-width="2" stroke-linecap="square" stroke-miterlimit="10" x1="423.75" y1="506.892" x2="441" y2="506.892"/>
<line fill="none" stroke="#000000" stroke-width="2" stroke-linecap="square" stroke-miterlimit="10" x1="423.75" y1="519.642" x2="441" y2="519.642"/>
<line fill="none" stroke="#000000" stroke-width="2" stroke-linecap="square" stroke-miterlimit="10" x1="423.75" y1="533.142" x2="441" y2="533.142"/>
<path fill-rule="evenodd" clip-rule="evenodd" fill="#E1F3FC" stroke="#000000" stroke-width="2" stroke-linecap="square" stroke-miterlimit="10" d="  M352.5,395.89c30.066-19.863,142.948-36.754,160.5,7.125c9.706,24.264-54.626,33.462-66.223,35.044  c-30.477,4.155-91.468-22.16-112.277-3.917C331.954,418.963,339.651,404.227,352.5,395.89z"/>
</svg>