<svg xmlns="http://www.w3.org/2000/svg" xmlns:xlink="http://www.w3.org/1999/xlink" version="1.1" id="Layer_1" x="0px" y="0px" enable-background="new 0 0 822.05 841.89" xml:space="preserve" viewBox="301.56 334.22 215.63 170.98">
<path fill-rule="evenodd" clip-rule="evenodd" fill="#FFFFFF" stroke="#000000" stroke-width="1.25" stroke-linecap="square" stroke-miterlimit="10" d="  M423.563,337.333c-31.404,6.474,29.381,64.458,23.25,80.25c-6.819,17.566-52.402,19.72-64.502,41.25  c9.312-3.257,68.928-24.618,73.502-32.25C462.365,415.653,430.534,352.503,423.563,337.333z"/>
<path fill="none" stroke="#000000" stroke-width="1.25" stroke-linecap="square" stroke-miterlimit="10" d="M384.562,457.333  c21.166-14.349,47.528-27.004,72.002-33.75c-13.049-28.199-23.992-57.302-35.25-86.25c-2.5,1-5,2-7.5,3"/>
<path fill="none" stroke="#000000" stroke-width="1.25" stroke-linecap="square" stroke-miterlimit="10" d="M418.313,338.833  c5.552,12.954,37.519,65.659,33.75,79.5c-3.47,12.744-53.517,26.273-68.252,39"/>
<path fill-rule="evenodd" clip-rule="evenodd" fill="#1D0E82" stroke="#000000" stroke-width="1.25" stroke-linecap="square" stroke-miterlimit="10" d="  M412.312,336.583c-12.328,4.145-59.62,21.443-63.75,33.75c-4.55,13.557,28.254,72.928,33.75,88.5  c12.287-20.06,55.298-22.097,63.002-37.5C452.004,407.956,419.943,351.85,412.312,336.583z"/>
<path fill="none" stroke="#000000" stroke-width="1.25" stroke-linecap="square" stroke-miterlimit="10" d="M383.812,457.333  c16.75-18.959,43.414-29.896,67.502-36c-11.502-27.188-21.962-55.023-34.5-81.75"/>
<path fill-rule="evenodd" clip-rule="evenodd" fill="#FFFFFF" stroke="#000000" stroke-width="1.25" stroke-linecap="square" stroke-miterlimit="10" d="  M369.562,376.333c10.75-5.5,21.5-11,32.25-16.5c20.284,27.023-1.929,27.935-21.75,41.25  C376.562,392.833,373.062,384.583,369.562,376.333z"/>
<path fill-rule="evenodd" clip-rule="evenodd" fill="#FFFFFF" stroke="#000000" stroke-width="1.25" stroke-linecap="square" stroke-miterlimit="10" d="  M508.313,387.583c-22.606-13.328-17.287,55.917-28.5,64.5c-12.022,9.202-46.743-12.674-66-6.75c9.846,3.434,56.327,21.488,66,18.75  C491.263,460.841,502.804,402.833,508.313,387.583z"/>
<path fill="none" stroke="#000000" stroke-width="1.25" stroke-linecap="square" stroke-miterlimit="10" d="M416.063,445.333  c22.171,2.964,46.468,8.632,66.75,18c4.17-18.364,28.644-69.563,17.25-79.5"/>
<path fill="none" stroke="#000000" stroke-width="1.25" stroke-linecap="square" stroke-miterlimit="10" d="M503.813,385.333  c-3.122,10.615-12.738,70.052-23.25,75c-8.736,4.113-52.059-15.315-66-15"/>
<path fill-rule="evenodd" clip-rule="evenodd" fill="#F7F619" stroke="#000000" stroke-width="1.25" stroke-linecap="square" stroke-miterlimit="10" d="  M500.813,380.833c-11.612-4.68-51.019-18.346-60.75-12.75c-10.312,5.93-21.773,64.939-26.25,77.25  c19.183-5.626,47.896,15.328,62.25,9.75C487.385,450.682,497.817,393.75,500.813,380.833z"/>
<path fill-rule="evenodd" clip-rule="evenodd" fill="#FFFFFF" stroke="#000000" stroke-width="1.25" stroke-linecap="square" stroke-miterlimit="10" d="  M450.563,383.083c10.25,2.25,20.5,4.5,30.75,6.75c0.577,29.805-17.932,17.555-37.5,15.75  C445.883,398.684,446.898,389.236,450.563,383.083z"/>
<path fill="none" stroke="#000000" stroke-width="1.25" stroke-linecap="square" stroke-miterlimit="10" d="M414.563,445.333  c22.712-2.756,45.214,4.033,66,12.75c7.427-24.403,15.593-48.736,21.75-73.5"/>
<path fill-rule="evenodd" clip-rule="evenodd" fill="#1D0D81" stroke="#000000" stroke-width="1.25" stroke-linecap="square" stroke-miterlimit="10" d="  M497.063,479.083c-31.614-34.046-43.358-59.168-91.502-48.75c6.681,10.276,14.418,20.636,21.752,30.75  c-19.379-25.836-26.651-35.382-60.377-29.25c-28.16,5.12,12.902,45.798,21.666,59.597  C395.408,502.144,481.875,474.985,497.063,479.083z"/>
<path fill-rule="evenodd" clip-rule="evenodd" fill="#FFFFFF" stroke="#000000" stroke-width="1.25" stroke-linecap="square" stroke-miterlimit="10" d="  M406.312,434.083c-31.789-3.46-55.996-6.477-33.926,25.892c16.1,23.613,13.96,28.811,40.511,24.386  c11.729-1.954,22.446-4.128,33.917-0.777C433.312,467.083,419.812,450.583,406.312,434.083z"/>
<path fill-rule="evenodd" clip-rule="evenodd" fill="#FFFFFF" stroke="#000000" stroke-width="1.25" stroke-linecap="square" stroke-miterlimit="10" d="  M447.563,429.583c-13.564,0.14-27.364,0.787-40.502,3.75c6.491,9.019,31.945,51.068,42.377,48.75  c14.723-3.271,30.363-9.688,44.625-5.25C478.563,461.083,463.063,445.333,447.563,429.583z"/>
<path fill-rule="evenodd" clip-rule="evenodd" fill="#FFFFFF" stroke="#000000" stroke-width="1.25" stroke-linecap="square" stroke-miterlimit="10" d="  M404.812,431.833c-32.162-3.659-55.012-6.134-33.176,25.892c15.829,23.217,13.862,28.924,39.955,24.386  c11.867-2.063,22.855-4.118,34.473-0.777C432.312,464.833,418.562,448.333,404.812,431.833z"/>
<path fill-rule="evenodd" clip-rule="evenodd" fill="#FFFFFF" stroke="#000000" stroke-width="1.25" stroke-linecap="square" stroke-miterlimit="10" d="  M446.813,427.333c-13.809,1.14-28.24,1.167-41.252,4.5c13.022,16.216,28.193,44.311,45.752,47.25c13.929,2.332,26.872-9.011,42-4.5  C477.813,458.833,462.313,443.083,446.813,427.333z"/>
<path fill-rule="evenodd" clip-rule="evenodd" stroke="#000000" stroke-width="1.25" stroke-linecap="square" stroke-miterlimit="10" d="  M374.062,439.333c1.051-5.847,1.66-0.351,1.5,0.75c0-0.75,0-1.5,0-2.25c-1.878,0.066-2.979,1.896-3.75,2.25  C372.67,435.68,374.502,436.879,374.062,439.333z"/>
<path fill-rule="evenodd" clip-rule="evenodd" stroke="#000000" stroke-width="1.25" stroke-linecap="square" stroke-miterlimit="10" d="  M376.312,437.833c0.133,0.311,0.728,0.982,2.25-0.75c-0.653,1.721-1.203,2.75-2.25,4.5  C375.658,443.846,376.897,439.201,376.312,437.833z"/>
<path fill-rule="evenodd" clip-rule="evenodd" stroke="#000000" stroke-width="1.25" stroke-linecap="square" stroke-miterlimit="10" d="  M380.812,436.333c1.317,1.954,0.772-1.349,1.5,2.25c2.023-2.147,0.354-0.817,0,0.75  C379.204,438.708,382.036,438.149,380.812,436.333z"/>
<path fill-rule="evenodd" clip-rule="evenodd" stroke="#000000" stroke-width="1.25" stroke-linecap="square" stroke-miterlimit="10" d="  M384.562,436.333c-0.321,2.551,3.373,1.907,0,2.25C382.061,439.216,384.282,438.554,384.562,436.333z M383.812,436.333  C383.647,440.083,383.737,438.028,383.812,436.333L383.812,436.333z"/>
<path fill-rule="evenodd" clip-rule="evenodd" stroke="#000000" stroke-width="1.25" stroke-linecap="square" stroke-miterlimit="10" d="  M387.562,435.583c0.287,1.446,1.381,1.42,3,1.5c-3.43,1.455-1.968,1.301-5.25,1.5C386.266,436.41,387.926,437.422,387.562,435.583z"/>
<path fill-rule="evenodd" clip-rule="evenodd" stroke="#000000" stroke-width="1.25" stroke-linecap="square" stroke-miterlimit="10" d="  M389.812,437.833C392.444,436.489,392.204,436.612,389.812,437.833L389.812,437.833z M390.562,437.083  C391.562,436.083,391.562,436.083,390.562,437.083L390.562,437.083z"/>
<path fill-rule="evenodd" clip-rule="evenodd" stroke="#000000" stroke-width="1.25" stroke-linecap="square" stroke-miterlimit="10" d="  M394.312,438.583C395.194,434.597,394.911,435.875,394.312,438.583L394.312,438.583z M395.062,434.083  C395.062,435.083,395.062,435.083,395.062,434.083L395.062,434.083z"/>
<path fill-rule="evenodd" clip-rule="evenodd" stroke="#000000" stroke-width="1.25" stroke-linecap="square" stroke-miterlimit="10" d="  M396.562,435.583C395.973,437.572,395.387,439.555,396.562,435.583L396.562,435.583z"/>
<path fill-rule="evenodd" clip-rule="evenodd" stroke="#000000" stroke-width="1.25" stroke-linecap="square" stroke-miterlimit="10" d="  M377.812,444.583c-2.333,2.017-0.776-1.848-2.25,3c0.302,0.39,0.022-0.201,0,0C374.01,442.471,376.313,445.877,377.812,444.583z"/>
<path fill-rule="evenodd" clip-rule="evenodd" stroke="#000000" stroke-width="1.25" stroke-linecap="square" stroke-miterlimit="10" d="  M378.562,444.583c0.77,2.402,4.132,0.6,0.75,3C376.812,447.467,379.27,446.793,378.562,444.583z M378.562,445.333  C377.942,448.16,378.26,446.707,378.562,445.333L378.562,445.333z"/>
<path fill-rule="evenodd" clip-rule="evenodd" stroke="#000000" stroke-width="1.25" stroke-linecap="square" stroke-miterlimit="10" d="  M382.312,446.083c0.756,0.224,0.393-0.537-2.25,0.75c-0.112-0.835,0.138-1.585,0.75-2.25  C381.889,445.043,381.464,445.832,382.312,446.083z"/>
<path fill-rule="evenodd" clip-rule="evenodd" stroke="#000000" stroke-width="1.25" stroke-linecap="square" stroke-miterlimit="10" d="  M383.812,446.083C386.243,440.974,383.615,446.496,383.812,446.083L383.812,446.083z"/>
<path fill-rule="evenodd" clip-rule="evenodd" stroke="#000000" stroke-width="1.25" stroke-linecap="square" stroke-miterlimit="10" d="  M387.562,442.333C387.535,447.782,387.544,445.956,387.562,442.333L387.562,442.333z"/>
<path fill-rule="evenodd" clip-rule="evenodd" stroke="#000000" stroke-width="1.25" stroke-linecap="square" stroke-miterlimit="10" d="  M391.312,443.083C390.835,444.855,389.977,448.052,391.312,443.083L391.312,443.083z"/>
<path fill-rule="evenodd" clip-rule="evenodd" stroke="#000000" stroke-width="1.25" stroke-linecap="square" stroke-miterlimit="10" d="  M392.062,445.333C394.859,441.837,392.636,444.615,392.062,445.333L392.062,445.333z M392.812,445.333  C393.461,442.78,393.229,443.692,392.812,445.333L392.812,445.333z"/>
<path fill-rule="evenodd" clip-rule="evenodd" stroke="#000000" stroke-width="1.25" stroke-linecap="square" stroke-miterlimit="10" d="  M396.562,443.083c-0.104,2.091-0.361-0.458,1.5,2.25c-0.095-0.017-1.159-0.235-3.75,0  C393.111,440.122,396.356,447.185,396.562,443.083z"/>
<path fill-rule="evenodd" clip-rule="evenodd" stroke="#000000" stroke-width="1.25" stroke-linecap="square" stroke-miterlimit="10" d="  M398.812,444.583C401.722,442.158,398.741,444.641,398.812,444.583L398.812,444.583z M399.562,443.833  C400.448,442.189,399.908,443.191,399.562,443.833L399.562,443.833z"/>
<path fill-rule="evenodd" clip-rule="evenodd" stroke="#000000" stroke-width="1.25" stroke-linecap="square" stroke-miterlimit="10" d="  M380.812,449.083c1.043,1.721-0.179,1.825,0.75,3.75c0.798-1.806,0.951-0.81,2.25-1.5c-0.677,1.03-0.927,1.03-0.75,0  c-0.724,1.044-1.553,1.894-2.25,2.25c1.283-1.447,1.033-1.947-0.75-1.5c-0.273,1.141-0.042,4.352-0.75,5.25  C379.031,454.71,380.088,452.123,380.812,449.083z"/>
<path fill-rule="evenodd" clip-rule="evenodd" stroke="#000000" stroke-width="1.25" stroke-linecap="square" stroke-miterlimit="10" d="  M383.062,452.833C386.223,449.693,384.012,451.888,383.062,452.833L383.062,452.833z M383.812,452.833  C384.077,452.507,386.073,450.06,383.812,452.833L383.812,452.833z"/>
<path fill-rule="evenodd" clip-rule="evenodd" stroke="#000000" stroke-width="1.25" stroke-linecap="square" stroke-miterlimit="10" d="  M387.562,450.583c0.163,1.39,1.429,1.828,3,0.75c-3.727,1.407-1.796,1.398-4.5,2.25C384.15,448.925,387.853,453.066,387.562,450.583  z"/>
<path fill-rule="evenodd" clip-rule="evenodd" stroke="#000000" stroke-width="1.25" stroke-linecap="square" stroke-miterlimit="10" d="  M392.062,452.083C392.004,453.87,392.278,445.393,392.062,452.083L392.062,452.083z"/>
<path fill-rule="evenodd" clip-rule="evenodd" stroke="#000000" stroke-width="1.25" stroke-linecap="square" stroke-miterlimit="10" d="  M395.062,449.833c-1.301,1.181,2.471,2.082-2.25,2.25C395.03,443.781,392.726,451.951,395.062,449.833z"/>
<path fill-rule="evenodd" clip-rule="evenodd" stroke="#000000" stroke-width="1.25" stroke-linecap="square" stroke-miterlimit="10" d="  M396.562,451.333C399,449.372,396.776,451.16,396.562,451.333L396.562,451.333z M396.562,450.583  C397.562,449.583,397.562,449.583,396.562,450.583L396.562,450.583z"/>
<path fill-rule="evenodd" clip-rule="evenodd" stroke="#000000" stroke-width="1.25" stroke-linecap="square" stroke-miterlimit="10" d="  M403.312,448.333c-1.572,1.727-1.632,5.397-2.25,0C400.033,453.538,402.007,449.765,403.312,448.333z"/>
<path fill-rule="evenodd" clip-rule="evenodd" stroke="#000000" stroke-width="1.25" stroke-linecap="square" stroke-miterlimit="10" d="  M405.562,449.083c-0.554,0.985,0.892,1.532,0.75,1.5c-1.014-0.309-2.099,0.609-3,0.75c1.03-0.677,1.28-1.677,0.75-3  C407.711,444.332,403.369,452.983,405.562,449.083z"/>
<text transform="matrix(0.9833 0.1822 -0.1822 0.9833 437.0283 358.313)" font-family="'MyriadPro-Regular'" font-size="27">1+2=?</text>
<path fill-rule="evenodd" clip-rule="evenodd" fill="#F8130D" stroke="#000000" stroke-width="1.25" stroke-linecap="square" stroke-miterlimit="10" d="  M516.563,377.083c-22.189,4.204-43.062,11.613-63.417,21.306c-22.291,10.615-13.569,10.723-31.833,0.444  c-10.428-5.869-19.837-19.468-29.391-27.111c-9.388-7.51-31.575-15.418-27.986,6.111c2.729,16.375,37.75,33.873,49.127,45.75  c-12.141,9.451-59.103,39.408-44.252,57c16.353,19.371,51.029-32.441,60.752-41.25c18.524,20.924,35.919,42.195,51.75,65.25  c-4.845-27.221-18.888-51.207-34.027-73.917C440.575,420.6,505.662,383.776,516.563,377.083z"/>
<path fill-rule="evenodd" clip-rule="evenodd" fill="#FFFFFF" stroke="#000000" stroke-linecap="square" stroke-miterlimit="10" d="  M388.312,488.083c-23.506,0-47.012,0-70.518,0c-10.36,0-13.146-49.858-6.732-57c6.503-7.24,59.741,0,70.518,0  C395.842,431.083,388.312,475.174,388.312,488.083z"/>
<path fill-rule="evenodd" clip-rule="evenodd" fill="#FFFFFF" stroke="#000000" stroke-linecap="square" stroke-miterlimit="10" d="  M379.312,491.833c-25.75,0-51.5,0-77.25,0c0.883-7.459,3.886-57,8.549-57c25.15,0,50.3,0,75.451,0  C383.812,453.833,381.562,472.833,379.312,491.833z"/>
<path fill-rule="evenodd" clip-rule="evenodd" d="M356.062,443.083C355.487,438.594,355.384,437.788,356.062,443.083  L356.062,443.083z"/>
<path fill-rule="evenodd" clip-rule="evenodd" d="M337.312,443.083C336.737,438.594,336.634,437.788,337.312,443.083  L337.312,443.083z"/>
<path fill-rule="evenodd" clip-rule="evenodd" d="M374.812,443.083C374.237,438.594,374.134,437.788,374.812,443.083  L374.812,443.083z"/>
<path fill-rule="evenodd" clip-rule="evenodd" d="M318.562,443.083C317.987,438.594,317.884,437.788,318.562,443.083  L318.562,443.083z"/>
<path fill-rule="evenodd" clip-rule="evenodd" d="M318.562,427.333c-0.176,4.919-5.846,8.505,0.75,14.25  C317.916,435.097,318.809,429.417,318.562,427.333z"/>
<path fill-rule="evenodd" clip-rule="evenodd" d="M336.562,426.583c-0.128,5.998-6.202,9.229,0.75,15  c-0.85-3.941,1.018-12.07,0.75-10.5C342.001,429.332,336.46,428.734,336.562,426.583z"/>
<path fill-rule="evenodd" clip-rule="evenodd" d="M356.062,426.583c-0.188,5.674-6.066,9.424,0.75,15  C355.105,434.565,356.133,429.879,356.062,426.583z"/>
<path fill-rule="evenodd" clip-rule="evenodd" d="M374.062,426.583c-0.066,6.313-5.343,10.26,1.5,15  C373.508,433.947,373.98,429.764,374.062,426.583z"/>
<path fill="none" stroke="#000000" stroke-width="0.5" stroke-linecap="square" stroke-miterlimit="10" d="M375.562,485.833  c1.25-9.5,2.5-19,3.75-28.5c-18.032,0-36.064,0-54.096,0c-21.126,0-15.93,7.796-18.654,28.5  C329.562,485.833,352.562,485.833,375.562,485.833z"/>
<path fill-rule="evenodd" clip-rule="evenodd" d="M369.562,457.333l-3.75,28.5L369.562,457.333z"/>
<line fill="none" stroke="#000000" stroke-width="0.5" stroke-linecap="square" stroke-miterlimit="10" x1="369.562" y1="457.333" x2="365.812" y2="485.833"/>
<path fill-rule="evenodd" clip-rule="evenodd" d="M359.812,457.333l-3.75,28.5L359.812,457.333z"/>
<line fill="none" stroke="#000000" stroke-width="0.5" stroke-linecap="square" stroke-miterlimit="10" x1="359.812" y1="457.333" x2="356.062" y2="485.833"/>
<path fill-rule="evenodd" clip-rule="evenodd" d="M350.062,457.333l-3.75,28.5L350.062,457.333z"/>
<line fill="none" stroke="#000000" stroke-width="0.5" stroke-linecap="square" stroke-miterlimit="10" x1="350.062" y1="457.333" x2="346.312" y2="485.833"/>
<path fill-rule="evenodd" clip-rule="evenodd" d="M340.312,457.333l-4.5,28.5L340.312,457.333z"/>
<line fill="none" stroke="#000000" stroke-width="0.5" stroke-linecap="square" stroke-miterlimit="10" x1="340.312" y1="457.333" x2="335.812" y2="485.833"/>
<path fill-rule="evenodd" clip-rule="evenodd" d="M330.562,457.333l-4.5,28.5L330.562,457.333z"/>
<line fill="none" stroke="#000000" stroke-width="0.5" stroke-linecap="square" stroke-miterlimit="10" x1="330.562" y1="457.333" x2="326.062" y2="485.833"/>
<path fill-rule="evenodd" clip-rule="evenodd" d="M320.812,457.333l-4.5,28.5L320.812,457.333z"/>
<line fill="none" stroke="#000000" stroke-width="0.5" stroke-linecap="square" stroke-miterlimit="10" x1="320.812" y1="457.333" x2="316.312" y2="485.833"/>
<line fill="none" stroke="#000000" stroke-width="0.5" stroke-linecap="square" stroke-miterlimit="10" x1="309.562" y1="464.833" x2="378.562" y2="464.833"/>
<line fill="none" stroke="#000000" stroke-width="0.5" stroke-linecap="square" stroke-miterlimit="10" x1="308.812" y1="471.583" x2="377.812" y2="471.583"/>
<line fill="none" stroke="#000000" stroke-width="0.5" stroke-linecap="square" stroke-miterlimit="10" x1="308.062" y1="478.333" x2="377.062" y2="478.333"/>
<text transform="matrix(1 0 0 1 311.0801 455.8081)" font-family="'MyriadPro-Regular'" font-size="9">S  M  T  W  Th  F  S</text>
</svg>