<svg xmlns="http://www.w3.org/2000/svg" xmlns:xlink="http://www.w3.org/1999/xlink" version="1.1" id="Layer_1" x="0px" y="0px" enable-background="new 0 0 822.05 841.89" xml:space="preserve" viewBox="199.11 312.02 416.42 218">
<path fill-rule="evenodd" clip-rule="evenodd" fill="#0071BC" stroke="#000000" stroke-width="2" stroke-linecap="square" stroke-miterlimit="10" d="  M201.276,361.773c-4.088,18.336,2.401,29.56,22.5,25.5C225.828,371.934,219.994,353.677,201.276,361.773z"/>
<path fill-rule="evenodd" clip-rule="evenodd" fill="#90A7D6" stroke="#000000" stroke-width="2" stroke-linecap="square" stroke-miterlimit="10" d="  M216.276,355.773c10.599,19.189,3.86,32.606,22.5,41.25c18.358,8.513,51.562-2.192,68.25-10.5  c-2.456,35.609-16.221,80.271,25.861,83.637c38.218,3.058,88.175,7.069,117.391,34.861c15.094-28.455,32.712-59.144,33-92.248  c19.435,9.827,65.77,29.183,88.5,20.248c22.579-8.875,3.584-35.022,24.75-42.748c-36.896-20.83-73.454-39.454-114-52.125  c-10.759-3.362-43.126-21.075-48.375-16.875c-6.929,5.543-12.975,10.263-22.125,10.5c-12.053,0.312-16.001-8.727-25.502-12  c-16.411-5.654-32.46-3.687-53.25-0.75C298.666,323.912,240.145,326.396,216.276,355.773z"/>
<path fill-rule="evenodd" clip-rule="evenodd" fill="#0071BC" stroke="#000000" stroke-width="2" stroke-linecap="square" stroke-miterlimit="10" d="  M381.276,313.023c-3,0.75-6,1.5-9,2.25c15.919,33.925,50.999,31.604,78.002,12C432.346,307.095,402.02,348.56,381.276,313.023z"/>
<path fill-rule="evenodd" clip-rule="evenodd" fill="#0071BC" d="M309.276,470.521c0.5,9,1,18,1.5,27  c44.805-6.178,96.95-2.352,130.502,31.5C476.994,482.468,334.104,463.029,309.276,470.521z"/>
<path fill="none" stroke="#000000" stroke-width="2" stroke-linecap="square" stroke-miterlimit="10" d="M309.276,470.521  c0.5,9,1,18,1.5,27c44.805-6.178,96.95-2.352,130.502,31.5c37.437-48.796-105.351-59.397-130.502-60.75"/>
<path fill-rule="evenodd" clip-rule="evenodd" fill="#0071BC" stroke="#000000" stroke-width="2" stroke-linecap="square" stroke-miterlimit="10" d="  M594.278,389.523c-5.937,8.83-12.464,24.346-8.25,34.874c10.757,26.877,24.201-20.325,28.5-25.874  C608.265,395.739,600.998,390.49,594.278,389.523z"/>
</svg>