<svg xmlns="http://www.w3.org/2000/svg" xmlns:xlink="http://www.w3.org/1999/xlink" version="1.1" id="Layer_1" x="0px" y="0px" enable-background="new 0 0 822.05 841.89" xml:space="preserve" viewBox="309.75 348.64 200.75 148.61">
<path fill-rule="evenodd" clip-rule="evenodd" fill="#392170" stroke="#000000" stroke-width="1.25" stroke-linecap="square" stroke-miterlimit="10" d="  M477.627,429.044c-0.888,6.325-2.6,15.153-3.75,20.25C473.741,443.381,476.896,432.308,477.627,429.044z"/>
<path fill-rule="evenodd" clip-rule="evenodd" fill="#392170" d="M473.127,448.544c-5.33,6.685-10.501,13.501-15.75,20.25  C461.656,463.049,472.577,450.359,473.127,448.544z"/>
<path fill="none" stroke="#000000" stroke-width="1.25" stroke-linecap="square" stroke-miterlimit="10" d="M473.127,448.544  c-5.33,6.685-10.501,13.501-15.75,20.25C461.656,463.049,472.577,450.359,473.127,448.544"/>
<path fill-rule="evenodd" clip-rule="evenodd" fill="#392170" stroke="#000000" stroke-width="1.25" stroke-linecap="square" stroke-miterlimit="10" d="  M458.127,465.044c8.015,4.68,13.737,6.631,14.25,15.75C462.427,477.766,455.188,472.151,458.127,465.044z"/>
<path fill-rule="evenodd" clip-rule="evenodd" fill="#392170" stroke="#000000" stroke-width="1.25" stroke-linecap="square" stroke-miterlimit="10" d="  M469.377,432.044c-5.646,1.6-11.139,2.923-16.5,5.25C456.525,434.351,465.338,433.05,469.377,432.044z"/>
<path fill-rule="evenodd" clip-rule="evenodd" fill="#392170" d="M452.127,435.794c-10.25-1.25-20.5-2.5-30.75-3.75  C429.07,433.718,449.169,436.492,452.127,435.794z"/>
<path fill="none" stroke="#000000" stroke-width="1.25" stroke-linecap="square" stroke-miterlimit="10" d="M452.127,435.794  c-10.25-1.25-20.5-2.5-30.75-3.75C429.07,433.718,449.169,436.492,452.127,435.794"/>
<path fill-rule="evenodd" clip-rule="evenodd" fill="#392170" stroke="#000000" stroke-width="1.25" stroke-linecap="square" stroke-miterlimit="10" d="  M424.377,432.044C432.587,460.663,411.189,434.777,424.377,432.044L424.377,432.044z"/>
<path fill-rule="evenodd" clip-rule="evenodd" fill="#392170" stroke="#000000" stroke-width="1.25" stroke-linecap="square" stroke-miterlimit="10" d="  M458.877,411.046c42.946,22.348,20.215,28.626-14.25,3C449.377,413.046,454.127,412.046,458.877,411.046z"/>
<path fill-rule="evenodd" clip-rule="evenodd" fill="#392170" stroke="#000000" stroke-width="1.25" stroke-linecap="square" stroke-miterlimit="10" d="  M467.877,384.796c5.651,6.606,11.997,13.511,16.5,20.25C480.697,397.079,474.509,389.45,467.877,384.796z"/>
<path fill-rule="evenodd" clip-rule="evenodd" fill="#392170" stroke="#000000" stroke-width="1.25" stroke-linecap="square" stroke-miterlimit="10" d="  M484.377,405.796c5.302-1.603,12.076-4.021,16.5-5.25C495.003,401.544,489.927,403.989,484.377,405.796z"/>
<path fill-rule="evenodd" clip-rule="evenodd" fill="#392170" stroke="#000000" stroke-width="1.25" stroke-linecap="square" stroke-miterlimit="10" d="  M486.627,405.046C482.874,406.157,482.183,406.361,486.627,405.046L486.627,405.046z"/>
<path fill-rule="evenodd" clip-rule="evenodd" fill="#392170" stroke="#000000" stroke-width="1.25" stroke-linecap="square" stroke-miterlimit="10" d="  M509.877,403.546c-2.808-0.91-6.479,0.551-9.75-3C504.303,399.103,506.175,402.346,509.877,403.546z"/>
<path fill-rule="evenodd" clip-rule="evenodd" fill="#392170" stroke="#000000" stroke-width="1.25" stroke-linecap="square" stroke-miterlimit="10" d="  M450.627,373.546c-7.561-1.843-15.145-2.807-22.5-5.25C435.591,372.816,443.761,373.125,450.627,373.546z"/>
<path fill-rule="evenodd" clip-rule="evenodd" fill="#392170" stroke="#000000" stroke-width="1.25" stroke-linecap="square" stroke-miterlimit="10" d="  M429.627,369.046c-2.299,6.489-4.337,13.05-6.75,19.5C426.269,383.066,427.793,375.846,429.627,369.046z"/>
<path fill-rule="evenodd" clip-rule="evenodd" fill="#392170" stroke="#000000" stroke-width="1.25" stroke-linecap="square" stroke-miterlimit="10" d="  M417.627,390.796c0.687-0.348,3.244-4.035,7.5-3.75C423.456,390.457,420.511,389.334,417.627,390.796z"/>
<path fill-rule="evenodd" clip-rule="evenodd" fill="#392170" stroke="#000000" stroke-width="1.25" stroke-linecap="square" stroke-miterlimit="10" d="  M429.627,369.046C427.232,367.573,426.912,367.375,429.627,369.046L429.627,369.046z"/>
<path fill-rule="evenodd" clip-rule="evenodd" fill="#EED5B6" stroke="#000000" stroke-width="1.25" stroke-linecap="square" stroke-miterlimit="10" d="  M482.127,360.796c-1.091,19.202-19.596,15.163-22.5-2.25C467.548,361.187,474.488,359.767,482.127,360.796z"/>
<path fill-rule="evenodd" clip-rule="evenodd" fill="#392170" stroke="#000000" stroke-width="1.25" stroke-linecap="square" stroke-miterlimit="10" d="  M460.377,356.296c10.557,2.437,21.971,3.118,32.25,0.75C480.973,352.777,468.986,342.309,460.377,356.296z"/>
<path fill-rule="evenodd" clip-rule="evenodd" fill="#137827" stroke="#000000" stroke-width="1.25" stroke-linecap="square" stroke-miterlimit="10" d="  M470.877,378.046c-8.727-6.889-19.666-9.934-30.75-9.75c6.086,5.803,2.248,7.652,11.25,12.75c-5.715,2.834-9.357,9.753-15,12.75  c10.25,5.5,20.5,11,30.75,16.5c6.139-11.771,1.574-10.233,15-15C478.595,389.88,475.584,382.409,470.877,378.046z"/>
<path fill-rule="evenodd" clip-rule="evenodd" fill="#392170" stroke="#000000" stroke-width="1.25" stroke-linecap="square" stroke-miterlimit="10" d="  M471.627,433.544c-11.882,3.744-33.874-11.546-32.25-25.498C441.841,386.877,468.762,423.72,471.627,433.544z"/>
<path fill-rule="evenodd" clip-rule="evenodd" fill="#392170" d="M470.877,385.546c-0.136,4.37,0.07,8.441-0.75,12.75  C470.377,394.046,470.627,389.796,470.877,385.546z"/>
<path fill="none" stroke="#000000" stroke-width="1.25" stroke-linecap="square" stroke-miterlimit="10" d="M470.877,385.546  c0.297,4.279,0.048,8.562-0.75,12.75"/>
<path fill-rule="evenodd" clip-rule="evenodd" fill="#392170" d="M413.879,434.294c-0.896-3.295-3.744-3.305-0.75-6.75  C413.379,429.794,413.629,432.044,413.879,434.294z"/>
<path fill="none" stroke="#000000" stroke-width="1.25" stroke-linecap="square" stroke-miterlimit="10" d="M413.879,434.294  c-2.301-2.108-2.755-4.442-0.75-6.75"/>
<path fill-rule="evenodd" clip-rule="evenodd" fill="#392170" d="M407.877,434.294c0.647-4.411-1.69-6.736,3.002-9.75  C409.878,427.794,408.877,431.044,407.877,434.294z"/>
<path fill="none" stroke="#000000" stroke-width="1.25" stroke-linecap="square" stroke-miterlimit="10" d="M407.877,434.294  c-1.431-3.96-0.528-7.483,3.002-9.75"/>
<path fill-rule="evenodd" clip-rule="evenodd" fill="#392170" d="M479.877,446.294c-0.321,2.842,1.311,4.061-1.5,6.75  C478.877,450.794,479.377,448.544,479.877,446.294z"/>
<path fill="none" stroke="#000000" stroke-width="1.25" stroke-linecap="square" stroke-miterlimit="10" d="M479.877,446.294  c1.109,2.464,0.512,4.825-1.5,6.75"/>
<path fill-rule="evenodd" clip-rule="evenodd" fill="#392170" d="M485.127,448.544c-1.993,3.795-0.715,6.948-6,8.25  C481.127,454.044,483.127,451.294,485.127,448.544z"/>
<path fill="none" stroke="#000000" stroke-width="1.25" stroke-linecap="square" stroke-miterlimit="10" d="M485.127,448.544  c0.109,4.208-1.958,7.254-6,8.25"/>
<path fill-rule="evenodd" clip-rule="evenodd" d="M374.127,426.794c0.35,5.183,3.065,10.729,4.5,15.75  c4.486-2.852,10.548-8.342,13.5-12.75C386.338,428.83,379.968,426.655,374.127,426.794z"/>
<path fill="none" stroke="#000000" stroke-width="1.25" stroke-linecap="square" stroke-miterlimit="10" d="M310.377,478.544  c16.945-23.646,42.508-41.386,72-43.5"/>
<path fill-rule="evenodd" clip-rule="evenodd" fill="#D12327" stroke="#000000" stroke-width="1.25" stroke-linecap="square" stroke-miterlimit="10" d="  M419.127,477.044c-3.382,25.718-64.5,26.494-64.5,0S415.745,451.327,419.127,477.044z"/>
</svg>