<svg xmlns="http://www.w3.org/2000/svg" xmlns:xlink="http://www.w3.org/1999/xlink" version="1.1" id="Layer_1" x="0px" y="0px" enable-background="new 0 0 822.05 841.89" xml:space="preserve" viewBox="301.06 345.9 217.13 164.92">
<path fill-rule="evenodd" clip-rule="evenodd" fill="#AFA782" stroke="#000000" stroke-width="1.25" stroke-linecap="square" stroke-miterlimit="10" d="  M422.313,403.015c13.157-10.061,12.599,13.168-3.75,4.5C417.075,401.943,422.184,403.924,422.313,403.015z"/>
<path fill-rule="evenodd" clip-rule="evenodd" fill="#279A30" stroke="#000000" stroke-width="1.25" stroke-linecap="square" stroke-miterlimit="10" d="  M344.312,382.765c3.966-13.269,13.673-53.646,28.5-27.75c-1,0.75-2,1.5-3,2.25C356.913,339.291,354.53,375.173,344.312,382.765z"/>
<path fill-rule="evenodd" clip-rule="evenodd" fill="#279A30" stroke="#000000" stroke-width="1.25" stroke-linecap="square" stroke-miterlimit="10" d="  M392.312,389.515c4.455,4.792,9,9.5,13.5,14.25C398.425,401.819,394.75,393.867,392.312,389.515z"/>
<path fill-rule="evenodd" clip-rule="evenodd" fill="#279A30" stroke="#000000" stroke-width="1.25" stroke-linecap="square" stroke-miterlimit="10" d="  M378.062,404.515c13.677,1.625,28.189-0.36,42.002-1.5c0,1.5,0,3,0,4.5c-16.75,2-33.501,4-50.252,6  C372.083,410.206,375.345,406.884,378.062,404.515z"/>
<path fill-rule="evenodd" clip-rule="evenodd" fill="#279A30" stroke="#000000" stroke-width="1.25" stroke-linecap="square" stroke-miterlimit="10" d="  M375.062,355.015c-5.871,3.7-39.517,27.174-39,37.5c0.408,8.154,21.318,27.916,30,27c7.12-0.751,35.655-33.521,34.5-42  C399.101,366.796,383.728,357.979,375.062,355.015z"/>
<path fill="none" stroke="#000000" stroke-width="1.25" stroke-linecap="square" stroke-miterlimit="10" d="M362.312,366.265  c6.566,11.155,16.734,19.848,27,27.75"/>
<line fill="none" stroke="#000000" stroke-width="1.25" stroke-linecap="square" stroke-miterlimit="10" x1="370.562" y1="333.265" x2="370.562" y2="333.265"/>
<path fill="none" stroke="#000000" stroke-width="1.25" stroke-linecap="square" stroke-miterlimit="10" d="M338.312,388.015  c4.053,12.073,17.323,24.037,29.25,29.25"/>
<path fill="none" stroke="#000000" stroke-width="1.25" stroke-linecap="square" stroke-miterlimit="10" d="M425.313,397.765  c7.125,3.497,7.976,8.7,1.5,13.5"/>
<path fill="none" stroke="#000000" stroke-width="1.25" stroke-linecap="square" stroke-miterlimit="10" d="M372.812,355.015  c9.403,9.112,18.509,18.53,27,28.5"/>
<path fill="none" stroke="#000000" stroke-width="1.25" stroke-linecap="square" stroke-miterlimit="10" d="M373.562,355.015  c9.314,8.522,18.467,17.062,26.25,27"/>
<path fill-rule="evenodd" clip-rule="evenodd" fill="#279A30" stroke="#000000" stroke-width="1.25" stroke-linecap="square" stroke-miterlimit="10" d="  M408.062,352.765c-7.175-6.176-17.596-1.261-25.5,7.5c5.189-3.048,15.901-5.494,22.5-7.5c-3.464,6.002-8.102,19.101-9.75,21.75  C402.297,368.937,406.863,361.234,408.062,352.765z"/>
<path fill-rule="evenodd" clip-rule="evenodd" fill="#279A30" stroke="#000000" stroke-width="1.25" stroke-linecap="square" stroke-miterlimit="10" d="  M456.813,498.265c-0.181-16.44-11.887-28.174-28.5-26.25C432.897,482.416,447.642,511.214,456.813,498.265z"/>
<path fill="none" stroke="#000000" stroke-width="1.25" stroke-linecap="square" stroke-miterlimit="10" d="M454.563,498.265  c-3.108-8.51-9.192-15.046-17.25-18"/>
<path fill-rule="evenodd" clip-rule="evenodd" fill="#279A30" stroke="#000000" stroke-width="1.25" stroke-linecap="square" stroke-miterlimit="10" d="  M458.313,485.515c1.069-14.018,14.481-20.053,27.75-18.75C479.245,477.411,468.1,490.856,458.313,485.515z"/>
<path fill-rule="evenodd" clip-rule="evenodd" fill="#279A30" stroke="#000000" stroke-width="1.25" stroke-linecap="square" stroke-miterlimit="10" d="  M453.813,499.765c1.887,2.176-3.404,5.796,3,4.5c6.812-22.524,4.84-49.335-0.75-72C449.425,451.153,461.215,477.627,453.813,499.765  z"/>
<path fill-rule="evenodd" clip-rule="evenodd" fill="#FB0F0C" stroke="#000000" stroke-width="1.25" stroke-linecap="square" stroke-miterlimit="10" d="  M451.563,420.265C458.777,383.636,483.156,439.988,451.563,420.265L451.563,420.265z"/>
<path fill-rule="evenodd" clip-rule="evenodd" fill="#FB0F0C" stroke="#000000" stroke-width="1.25" stroke-linecap="square" stroke-miterlimit="10" d="  M449.313,423.265C414.509,407.756,476.604,401.11,449.313,423.265L449.313,423.265z"/>
<path fill-rule="evenodd" clip-rule="evenodd" fill="#FB0F0C" stroke="#000000" stroke-width="1.25" stroke-linecap="square" stroke-miterlimit="10" d="  M452.313,425.515C425.974,459.427,436.612,391.686,452.313,425.515L452.313,425.515z"/>
<path fill-rule="evenodd" clip-rule="evenodd" fill="#FB0F0C" stroke="#000000" stroke-width="1.25" stroke-linecap="square" stroke-miterlimit="10" d="  M455.313,422.515C492.09,411.719,452.023,453.759,455.313,422.515L455.313,422.515z"/>
<path fill="none" stroke="#000000" stroke-width="1.25" stroke-linecap="square" stroke-miterlimit="10" d="M460.563,484.765  c3.811-6.543,9.786-10.745,17.25-12"/>
<path fill-rule="evenodd" clip-rule="evenodd" fill="#FB0F0C" stroke="#000000" stroke-width="1.25" stroke-linecap="square" stroke-miterlimit="10" d="  M455.313,424.015C480.462,453.953,417.783,434.737,455.313,424.015L455.313,424.015z"/>
<path fill-rule="evenodd" clip-rule="evenodd" fill="#F7F619" stroke="#000000" stroke-width="1.25" stroke-linecap="square" stroke-miterlimit="10" d="  M458.313,422.515C445.676,424.014,445.126,421.789,458.313,422.515L458.313,422.515z"/>
<path fill-rule="evenodd" clip-rule="evenodd" fill="#279A30" stroke="#000000" stroke-width="1.25" stroke-linecap="square" stroke-miterlimit="10" d="  M517.563,498.265c-3.423,2.799-7.671,4.843-11.25,7.5c0.059-2.387,2.141-8.973,3-11.25c-4.109,2.507-8.562,4.041-12.75,6.75  c1.25-3.25,2.5-6.5,3.75-9.75c-9.006,3.958-13.36,6.66-18.75,15c2.417-4.79,3.752-11.133,6.75-16.5  c-9.533,4.179-14.579,6.573-19.5,15.75c2.236-6.4,2.22-10.316,6.75-17.25c-7.347,5.541-15.019,11.423-22.5,17.25  c0.002-2.253,1.76-9.26,2.25-11.25c-4.202,2.541-7.92,3.872-12,6.75c1.25-3.5,2.5-7,3.75-10.5c-8.815,4.332-13.846,7.654-19.5,15.75  c2.714-4.712,4.438-11.337,7.5-16.5c-10.054,3.957-14.79,5.959-19.5,15.75c1.95-7.628,1.459-9.574,6.75-17.25  c-8.873,4.265-12.929,10.256-17.252,18.75C424.894,507.265,516.364,518.031,517.563,498.265z"/>
<path fill-rule="evenodd" clip-rule="evenodd" fill="#FFFFFF" stroke="#000000" stroke-linecap="square" stroke-miterlimit="10" d="  M387.812,504.265c-23.506,0-47.012,0-70.518,0c-10.36,0-13.146-49.858-6.732-57c6.503-7.24,59.741,0,70.518,0  C395.342,447.265,387.812,491.357,387.812,504.265z"/>
<path fill-rule="evenodd" clip-rule="evenodd" fill="#FFFFFF" stroke="#000000" stroke-linecap="square" stroke-miterlimit="10" d="  M378.812,508.015c-25.75,0-51.5,0-77.25,0c0.883-7.459,3.886-57,8.549-57c25.15,0,50.3,0,75.451,0  C383.312,470.015,381.062,489.015,378.812,508.015z"/>
<path fill-rule="evenodd" clip-rule="evenodd" d="M355.562,459.265C354.987,454.777,354.884,453.97,355.562,459.265L355.562,459.265  z"/>
<path fill-rule="evenodd" clip-rule="evenodd" d="M336.812,459.265C336.237,454.777,336.134,453.97,336.812,459.265L336.812,459.265  z"/>
<path fill-rule="evenodd" clip-rule="evenodd" d="M374.312,459.265C373.737,454.777,373.634,453.97,374.312,459.265L374.312,459.265  z"/>
<path fill-rule="evenodd" clip-rule="evenodd" d="M318.062,459.265C317.487,454.777,317.384,453.97,318.062,459.265L318.062,459.265  z"/>
<path fill-rule="evenodd" clip-rule="evenodd" d="M318.062,443.515c-0.176,4.92-5.846,8.505,0.75,14.25  C317.416,451.28,318.309,445.599,318.062,443.515z"/>
<path fill-rule="evenodd" clip-rule="evenodd" d="M336.062,442.765c-0.128,5.998-6.202,9.229,0.75,15  c-0.85-3.941,1.018-12.07,0.75-10.5C341.501,445.514,335.96,444.917,336.062,442.765z"/>
<path fill-rule="evenodd" clip-rule="evenodd" d="M355.562,442.765c-0.188,5.674-6.066,9.424,0.75,15  C354.605,450.748,355.633,446.062,355.562,442.765z"/>
<path fill-rule="evenodd" clip-rule="evenodd" d="M373.562,442.765c-0.066,6.313-5.343,10.26,1.5,15  C373.008,450.129,373.48,445.947,373.562,442.765z"/>
<path fill="none" stroke="#000000" stroke-width="0.5" stroke-linecap="square" stroke-miterlimit="10" d="M375.062,502.015  c1.25-9.5,2.5-19,3.75-28.5c-18.032,0-36.064,0-54.096,0c-21.126,0-15.93,7.796-18.654,28.5  C329.062,502.015,352.062,502.015,375.062,502.015z"/>
<path fill-rule="evenodd" clip-rule="evenodd" d="M369.062,473.515l-3.75,28.5L369.062,473.515z"/>
<line fill="none" stroke="#000000" stroke-width="0.5" stroke-linecap="square" stroke-miterlimit="10" x1="369.062" y1="473.515" x2="365.312" y2="502.015"/>
<path fill-rule="evenodd" clip-rule="evenodd" d="M359.312,473.515l-3.75,28.5L359.312,473.515z"/>
<line fill="none" stroke="#000000" stroke-width="0.5" stroke-linecap="square" stroke-miterlimit="10" x1="359.312" y1="473.515" x2="355.562" y2="502.015"/>
<path fill-rule="evenodd" clip-rule="evenodd" d="M349.562,473.515l-3.75,28.5L349.562,473.515z"/>
<line fill="none" stroke="#000000" stroke-width="0.5" stroke-linecap="square" stroke-miterlimit="10" x1="349.562" y1="473.515" x2="345.812" y2="502.015"/>
<path fill-rule="evenodd" clip-rule="evenodd" d="M339.812,473.515l-4.5,28.5L339.812,473.515z"/>
<line fill="none" stroke="#000000" stroke-width="0.5" stroke-linecap="square" stroke-miterlimit="10" x1="339.812" y1="473.515" x2="335.312" y2="502.015"/>
<path fill-rule="evenodd" clip-rule="evenodd" d="M330.062,473.515l-4.5,28.5L330.062,473.515z"/>
<line fill="none" stroke="#000000" stroke-width="0.5" stroke-linecap="square" stroke-miterlimit="10" x1="330.062" y1="473.515" x2="325.562" y2="502.015"/>
<path fill-rule="evenodd" clip-rule="evenodd" d="M320.312,473.515l-4.5,28.5L320.312,473.515z"/>
<line fill="none" stroke="#000000" stroke-width="0.5" stroke-linecap="square" stroke-miterlimit="10" x1="320.312" y1="473.515" x2="315.812" y2="502.015"/>
<line fill="none" stroke="#000000" stroke-width="0.5" stroke-linecap="square" stroke-miterlimit="10" x1="309.062" y1="481.015" x2="378.062" y2="481.015"/>
<line fill="none" stroke="#000000" stroke-width="0.5" stroke-linecap="square" stroke-miterlimit="10" x1="308.312" y1="487.765" x2="377.312" y2="487.765"/>
<line fill="none" stroke="#000000" stroke-width="0.5" stroke-linecap="square" stroke-miterlimit="10" x1="307.562" y1="494.515" x2="376.562" y2="494.515"/>
<text transform="matrix(1 0 0 1 309.8057 471.9907)" font-family="'MyriadPro-Regular'" font-size="9">S  M  T  W  Th  F  S</text>
</svg>