<svg xmlns="http://www.w3.org/2000/svg" xmlns:xlink="http://www.w3.org/1999/xlink" version="1.1" id="Layer_1" x="0px" y="0px" enable-background="new 0 0 822.05 841.89" xml:space="preserve" viewBox="308.27 339.47 204.73 166.11">
<path fill-rule="evenodd" clip-rule="evenodd" fill="#99330C" d="M358,486.218c0,2.5,0,5,0,7.5c-8.222-0.794-14.812,1.703-21,2.25  c13.499,3.479,31.713,9.115,29.25-10.5C367.078,485.551,353.803,485.927,358,486.218z"/>
<path fill="none" stroke="#000000" stroke-linecap="square" stroke-miterlimit="10" d="M358,486.218c0,2.5,0,5,0,7.5  c-8.222-0.794-14.812,1.703-21,2.25c13.499,3.479,31.713,9.115,29.25-10.5c-3,0-6,0-9,0"/>
<path fill-rule="evenodd" clip-rule="evenodd" fill="#99330C" d="M356.5,484.718c17.081,21.43-8.167,12.416-19.5,18.75  c14.404,1.253,41.56,7.011,30.75-15c2.492-0.31,6.271-0.993,7.5-2.25c11.504,25.229,57.038,16.255,78.75,15.75  c-37.908-10.135-58.283,3.759-69.75-36.375c-8.286-29-68.11-24.033-54-55.877c-11.861,5.458-6.436,9.392-17.25,0  c3.669,11.507-14.742,28.713,5.25,24.002c3.097,13.771,17.327,42.529,29.25,38.25c0.492,0.286-5.688-3.821-4.5,0  c-0.271-0.682-1.859-8.156-3-9.75C347.278,468.475,353.792,478.219,356.5,484.718z"/>
<path fill="none" stroke="#000000" stroke-linecap="square" stroke-miterlimit="10" d="M356.5,484.718  c17.081,21.43-8.167,12.416-19.5,18.75c14.404,1.253,41.56,7.011,30.75-15c2.492-0.31,6.271-0.993,7.5-2.25  c11.504,25.229,57.038,16.255,78.75,15.75c-37.908-10.135-58.283,3.759-69.75-36.375c-8.286-29-68.11-24.033-54-55.877  c-11.861,5.458-6.436,9.392-17.25,0c3.669,11.507-14.742,28.713,5.25,24.002c3.097,13.771,17.327,42.529,29.25,38.25  c0.492,0.286-5.688-3.821-4.5,0c-0.271-0.682-1.859-8.156-3-9.75c7.782,6.69,12.775,14.161,17.25,22.5"/>
<path fill-rule="evenodd" clip-rule="evenodd" fill="#99330C" d="M372.25,454.718c-12.496-3.528-24.169,1.344-22.5,15  C357.25,464.718,364.75,459.718,372.25,454.718z"/>
<path fill="none" stroke="#000000" stroke-linecap="square" stroke-miterlimit="10" d="M372.25,454.718  c-12.496-3.528-24.169,1.344-22.5,15"/>
<path fill-rule="evenodd" clip-rule="evenodd" fill="#99330C" d="M335.5,459.218c1.005,5.464-0.089,8.789,3.75,13.5  C338,468.218,336.75,463.718,335.5,459.218z"/>
<path fill="none" stroke="#000000" stroke-linecap="square" stroke-miterlimit="10" d="M335.5,459.218  c-0.667,5.005,0.6,9.635,3.75,13.5"/>
<path fill-rule="evenodd" clip-rule="evenodd" fill="#99330C" d="M336.25,447.968c2.562,5.343,7.491,6.404,3.75,14.25  C338.75,457.468,337.5,452.718,336.25,447.968z"/>
<path fill="none" stroke="#000000" stroke-linecap="square" stroke-miterlimit="10" d="M336.25,447.968  c5.259,3.309,6.49,8.502,3.75,14.25"/>
<path fill-rule="evenodd" clip-rule="evenodd" fill="#99330C" stroke="#000000" stroke-linecap="square" stroke-miterlimit="10" d="  M319,426.968C317.285,426.788,315.475,426.598,319,426.968L319,426.968z"/>
<path fill-rule="evenodd" clip-rule="evenodd" fill="#99330C" d="M316.75,418.716C322.112,417.957,322.809,417.858,316.75,418.716  L316.75,418.716z"/>
<path fill="none" stroke="#000000" stroke-linecap="square" stroke-miterlimit="10" d="M316.75,418.716  c1.91-0.146,3.43-0.365,5.25-0.75"/>
<path fill-rule="evenodd" clip-rule="evenodd" fill="#99330C" d="M319,433.718c3.806-2.931,7.092-1.527,7.5-8.25  C324,428.218,321.5,430.968,319,433.718z"/>
<path fill="none" stroke="#000000" stroke-linecap="square" stroke-miterlimit="10" d="M319,433.718  c4.633-0.552,7.211-3.489,7.5-8.25"/>
<path fill-rule="evenodd" clip-rule="evenodd" fill="#99330C" d="M416.5,416.466c0,2.5,0,5.001,0,7.502  c-8.221-0.794-14.813,1.704-21,2.25c13.5,3.479,31.715,9.115,29.25-10.502C425.577,415.8,412.309,416.174,416.5,416.466z"/>
<path fill="none" stroke="#000000" stroke-linecap="square" stroke-miterlimit="10" d="M416.5,416.466c0,2.5,0,5.001,0,7.502  c-8.221-0.794-14.813,1.704-21,2.25c13.5,3.479,31.715,9.115,29.25-10.502c-2.999,0-5.999,0-8.998,0"/>
<path fill-rule="evenodd" clip-rule="evenodd" fill="#99330C" d="M415.002,414.966c17.077,21.433-8.168,12.418-19.502,18.752  c14.405,1.253,41.561,7.011,30.75-15.002c2.492-0.31,6.271-0.994,7.5-2.25c11.501,25.231,57.038,16.257,78.75,15.752  c-37.91-10.135-58.282,3.759-69.75-36.377c-8.285-28.999-68.109-24.034-54-55.875c-11.861,5.458-6.436,9.392-17.25,0  c3.669,11.507-14.742,28.711,5.25,24c3.098,13.773,17.326,42.531,29.252,38.25c0.493,0.287-5.691-3.821-4.502,0  c-0.271-0.681-1.859-8.156-3-9.75C405.779,398.723,412.294,408.466,415.002,414.966z"/>
<path fill="none" stroke="#000000" stroke-linecap="square" stroke-miterlimit="10" d="M415.002,414.966  c17.077,21.433-8.168,12.418-19.502,18.752c14.405,1.253,41.561,7.011,30.75-15.002c2.492-0.31,6.271-0.994,7.5-2.25  c11.501,25.231,57.038,16.257,78.75,15.752c-37.91-10.135-58.282,3.759-69.75-36.377c-8.285-28.999-68.109-24.034-54-55.875  c-11.861,5.458-6.436,9.392-17.25,0c3.669,11.507-14.742,28.711,5.25,24c3.098,13.773,17.326,42.531,29.252,38.25  c0.493,0.287-5.691-3.821-4.502,0c-0.271-0.681-1.859-8.156-3-9.75c7.784,6.69,12.777,14.16,17.252,22.5"/>
<path fill-rule="evenodd" clip-rule="evenodd" fill="#99330C" d="M430.75,384.966c-12.495-3.529-24.167,1.344-22.498,15  C415.751,394.966,423.251,389.966,430.75,384.966z"/>
<path fill="none" stroke="#000000" stroke-linecap="square" stroke-miterlimit="10" d="M430.75,384.966  c-12.495-3.529-24.167,1.344-22.498,15"/>
<path fill-rule="evenodd" clip-rule="evenodd" fill="#99330C" d="M394,389.466c1.005,5.463-0.089,8.789,3.75,13.5  C396.5,398.466,395.25,393.966,394,389.466z"/>
<path fill="none" stroke="#000000" stroke-linecap="square" stroke-miterlimit="10" d="M394,389.466  c-0.667,5.005,0.6,9.635,3.75,13.5"/>
<path fill-rule="evenodd" clip-rule="evenodd" fill="#99330C" d="M394.75,378.216c2.562,5.343,7.491,6.404,3.75,14.25  C397.25,387.716,396,382.966,394.75,378.216z"/>
<path fill="none" stroke="#000000" stroke-linecap="square" stroke-miterlimit="10" d="M394.75,378.216  c5.259,3.309,6.49,8.502,3.75,14.25"/>
<path fill-rule="evenodd" clip-rule="evenodd" fill="#99330C" stroke="#000000" stroke-linecap="square" stroke-miterlimit="10" d="  M377.5,357.216C375.785,357.036,373.975,356.846,377.5,357.216L377.5,357.216z"/>
<path fill-rule="evenodd" clip-rule="evenodd" fill="#99330C" d="M375.25,348.966C380.612,348.207,381.309,348.108,375.25,348.966  L375.25,348.966z"/>
<path fill="none" stroke="#000000" stroke-linecap="square" stroke-miterlimit="10" d="M375.25,348.966  c1.91-0.146,3.43-0.365,5.25-0.75"/>
<path fill-rule="evenodd" clip-rule="evenodd" fill="#99330C" d="M377.5,363.966c3.806-2.931,7.092-1.528,7.5-8.25  C382.5,358.466,380,361.216,377.5,363.966z"/>
<path fill="none" stroke="#000000" stroke-linecap="square" stroke-miterlimit="10" d="M377.5,363.966  c4.633-0.552,7.211-3.489,7.5-8.25"/>
</svg>