<svg xmlns="http://www.w3.org/2000/svg" xmlns:xlink="http://www.w3.org/1999/xlink" version="1.1" id="Layer_1" x="0px" y="0px" enable-background="new 0 0 822.05 841.89" xml:space="preserve" viewBox="310.72 356.38 199.03 131.04">
<path fill-rule="evenodd" clip-rule="evenodd" fill="#99330C" d="M377.875,461.248c0,3.25,0,6.5,0,9.75  c-9.869-2.058-20.02-1.697-28.5,3c16.648,2.945,44.025,14.079,39.75-13.5C387.649,460.38,376.324,461.741,377.875,461.248z"/>
<path fill="none" stroke="#000000" stroke-width="1.25" stroke-linecap="square" stroke-miterlimit="10" d="M377.875,461.248  c0,3.25,0,6.5,0,9.75c-9.869-2.058-20.02-1.697-28.5,3c16.648,2.945,44.025,14.079,39.75-13.5c-4,0-8,0-12,0"/>
<path fill-rule="evenodd" clip-rule="evenodd" fill="#99330C" d="M376.375,458.998c24.758,28.729-11.887,16.643-26.25,25.5  c16.263,1.735,59.485,9.838,41.25-20.25c1.838-0.785,9.319-2.813,10.5-3c11.312,35.337,82.078,22.177,107.25,21.75  c-22.003-7.004-59.245,1.539-78-11.25c-15.078-10.282-11.731-23.201-16.873-38.625c-12.532-37.596-93.655-33.409-73.877-76.123  c-3.012,3.794-8.914,6.467-12,10.5c-3.302-3.376-8.673-5.791-11.25-10.5c6.706,12.755-21.278,44.069,7.5,33  c3.01,15.339,24.852,61.494,39.75,51.748c0.868,0.243-8.936-1.778-6,0c-2.335-3.704-3.128-6.988-4.5-13.5  C366.31,434.39,370.114,451.258,376.375,458.998z"/>
<path fill="none" stroke="#000000" stroke-width="1.25" stroke-linecap="square" stroke-miterlimit="10" d="M376.375,458.998  c24.758,28.729-11.887,16.643-26.25,25.5c16.263,1.735,59.485,9.838,41.25-20.25c1.838-0.785,9.319-2.813,10.5-3  c11.312,35.337,82.078,22.177,107.25,21.75c-22.003-7.004-59.245,1.539-78-11.25c-15.078-10.282-11.731-23.201-16.873-38.625  c-12.532-37.596-93.655-33.409-73.877-76.123c-3.012,3.794-8.914,6.467-12,10.5c-3.302-3.376-8.673-5.791-11.25-10.5  c6.706,12.755-21.278,44.069,7.5,33c3.01,15.339,24.852,61.494,39.75,51.748c0.868,0.243-8.936-1.778-6,0  c-2.335-3.704-3.128-6.988-4.5-13.5c13.553,6.695,14.352,21.151,23.25,30.75"/>
<path fill-rule="evenodd" clip-rule="evenodd" fill="#99330C" d="M397.375,418.5c-15.199-4.847-35.006,1.52-30.75,20.248  C376.875,431.999,387.125,425.249,397.375,418.5z"/>
<path fill="none" stroke="#000000" stroke-width="1.25" stroke-linecap="square" stroke-miterlimit="10" d="M397.375,418.5  c-15.199-4.847-35.006,1.52-30.75,20.248"/>
<path fill-rule="evenodd" clip-rule="evenodd" fill="#99330C" d="M347.875,425.248c1.372,6.84,0.468,12.01,5.25,18  C351.376,437.25,349.75,431.207,347.875,425.248z"/>
<path fill="none" stroke="#000000" stroke-width="1.25" stroke-linecap="square" stroke-miterlimit="10" d="M347.875,425.248  c-0.668,6.566,1.155,12.869,5.25,18"/>
<path fill-rule="evenodd" clip-rule="evenodd" fill="#99330C" d="M348.625,408.75c5.035,6.743,9.26,9.815,5.25,19.498  C352.142,421.81,349.728,415.317,348.625,408.75z"/>
<path fill="none" stroke="#000000" stroke-width="1.25" stroke-linecap="square" stroke-miterlimit="10" d="M348.625,408.75  c6.778,4.715,8.499,11.652,5.25,19.498"/>
<path fill-rule="evenodd" clip-rule="evenodd" fill="#99330C" stroke="#000000" stroke-width="1.25" stroke-linecap="square" stroke-miterlimit="10" d="  M324.625,380.25C321.127,380.445,320.85,380.46,324.625,380.25L324.625,380.25z"/>
<path fill-rule="evenodd" clip-rule="evenodd" fill="#99330C" d="M321.625,369c2.689-0.618,4.766-1.413,7.5-1.5  C326.625,368,324.125,368.5,321.625,369z"/>
<path fill="none" stroke="#000000" stroke-width="1.25" stroke-linecap="square" stroke-miterlimit="10" d="M321.625,369  c2.424-0.908,4.954-1.419,7.5-1.5"/>
<path fill-rule="evenodd" clip-rule="evenodd" fill="#99330C" d="M324.625,390c5.255-3.813,10.138-2.145,10.5-11.25  C331.626,382.498,328.202,386.327,324.625,390z"/>
<path fill="none" stroke="#000000" stroke-width="1.25" stroke-linecap="square" stroke-miterlimit="10" d="M324.625,390  c6.577-0.511,10.235-4.587,10.5-11.25"/>
</svg>