<svg xmlns="http://www.w3.org/2000/svg" xmlns:xlink="http://www.w3.org/1999/xlink" version="1.1" id="Layer_1" x="0px" y="0px" enable-background="new 0 0 822.05 841.89" xml:space="preserve" viewBox="210.49 264.67 400.75 313.25">
<path fill-rule="evenodd" clip-rule="evenodd" fill="#B9B8B9" stroke="#010101" stroke-width="2" stroke-linecap="square" stroke-miterlimit="10" d="  M600.748,372.918c20.593,17.395,1.778,69.582-1.5,93C574.647,447.835,596.46,397.696,600.748,372.918z"/>
<path fill-rule="evenodd" clip-rule="evenodd" fill="#F4F4F4" stroke="#010101" stroke-linecap="square" stroke-miterlimit="10" d="  M561.748,399.168C575.067,397.277,571.858,389.695,561.748,399.168L561.748,399.168z"/>
<path fill-rule="evenodd" clip-rule="evenodd" fill="#F4F4F4" stroke="#010101" stroke-linecap="square" stroke-miterlimit="10" d="  M561.748,407.418c3.32-0.333,7.352,6.106,8.25-5.25C561.532,399.927,564.594,405.174,561.748,407.418z"/>
<path fill-rule="evenodd" clip-rule="evenodd" fill="#F4F4F4" stroke="#010101" stroke-linecap="square" stroke-miterlimit="10" d="  M559.498,417.918c3.945-1.221,8.412,4.819,9-5.25C558.594,409.892,562.683,416.089,559.498,417.918z"/>
<path fill-rule="evenodd" clip-rule="evenodd" fill="#F4F4F4" stroke="#010101" stroke-linecap="square" stroke-miterlimit="10" d="  M575.248,399.168c4.382-1.112,7.309,3.921,10.5-3.75C576.865,387.345,579.546,396.146,575.248,399.168z"/>
<path fill-rule="evenodd" clip-rule="evenodd" fill="#F4F4F4" stroke="#010101" stroke-linecap="square" stroke-miterlimit="10" d="  M581.998,402.168c-7.768,2.173-10.964,6.803-10.5,17.25C583.173,419.309,584.944,409.895,581.998,402.168z"/>
<path fill-rule="evenodd" clip-rule="evenodd" fill="#F4F4F4" stroke="#010101" stroke-linecap="square" stroke-miterlimit="10" d="  M578.998,423.168c-8.727,1.446-11.83,6.677-10.5,17.25C579.973,440.097,581.858,430.726,578.998,423.168z"/>
<path fill-rule="evenodd" clip-rule="evenodd" fill="#B9B8B9" stroke="#010101" stroke-width="2" stroke-linecap="square" stroke-miterlimit="10" d="  M237.744,265.668c-24.285,11.977-21.906,63.855-26.25,87.75c4.5,0.75,9,1.5,13.5,2.25  C229.244,325.668,233.494,295.668,237.744,265.668z"/>
<path fill-rule="evenodd" clip-rule="evenodd" fill="#B9B8B9" stroke="#010101" stroke-width="2" stroke-linecap="square" stroke-miterlimit="10" d="  M551.248,265.668c20.609,16.756,1.75,69.783-1.5,93C525.147,340.586,546.96,290.446,551.248,265.668z"/>
<path fill-rule="evenodd" clip-rule="evenodd" fill="#B9B8B9" stroke="#010101" stroke-width="2" stroke-linecap="square" stroke-miterlimit="10" d="  M536.248,343.668c-104.251,0-208.502,0-312.754,0c1.813-9.922,9.994-78,16.295-78c29.493,0,58.987,0,88.48,0  c73.326,0,146.652,0,219.978,0C544.248,291.668,540.248,317.668,536.248,343.668z"/>
<path fill-rule="evenodd" clip-rule="evenodd" fill="#F4F4F4" stroke="#010101" stroke-linecap="square" stroke-miterlimit="10" d="  M245.994,321.168c4.005-0.972,8.083,4.813,9-5.25C246.389,313.644,248.926,319.725,245.994,321.168z"/>
<path fill-rule="evenodd" clip-rule="evenodd" fill="#F4F4F4" stroke="#010101" stroke-linecap="square" stroke-miterlimit="10" d="  M272.244,321.168c5.33-1.269,9.779,5.407,9.75-5.25C272.972,313.302,276.499,319.007,272.244,321.168z"/>
<path fill-rule="evenodd" clip-rule="evenodd" fill="#F4F4F4" stroke="#010101" stroke-linecap="square" stroke-miterlimit="10" d="  M257.994,321.168c5.875-0.885,10.542,5.054,10.5-5.25C260.054,313.604,262.144,318.594,257.994,321.168z"/>
<path fill-rule="evenodd" clip-rule="evenodd" fill="#F4F4F4" stroke="#010101" stroke-linecap="square" stroke-miterlimit="10" d="  M285.744,321.168c5.004-0.546,9.358,4.837,10.5-5.25C287.515,313.468,289.918,319.131,285.744,321.168z"/>
<path fill-rule="evenodd" clip-rule="evenodd" fill="#F4F4F4" stroke="#010101" stroke-linecap="square" stroke-miterlimit="10" d="  M313.494,321.168c4.27-0.46,7.189,4.236,10.5-3.75C315.492,312.711,317.083,319.13,313.494,321.168z"/>
<path fill-rule="evenodd" clip-rule="evenodd" fill="#F4F4F4" stroke="#010101" stroke-linecap="square" stroke-miterlimit="10" d="  M299.244,321.168c5.176-0.58,8.938,4.823,10.5-5.25C301.155,313.708,302.494,319.472,299.244,321.168z"/>
<path fill-rule="evenodd" clip-rule="evenodd" fill="#F4F4F4" stroke="#010101" stroke-linecap="square" stroke-miterlimit="10" d="  M326.994,321.168c4.005-0.972,8.083,4.813,9-5.25C327.389,313.644,329.926,319.725,326.994,321.168z"/>
<path fill-rule="evenodd" clip-rule="evenodd" fill="#F4F4F4" stroke="#010101" stroke-linecap="square" stroke-miterlimit="10" d="  M353.244,321.168c5.848-0.635,10.065,4.958,10.5-5.25C354.584,313.235,357.542,318.747,353.244,321.168z"/>
<path fill-rule="evenodd" clip-rule="evenodd" fill="#F4F4F4" stroke="#010101" stroke-linecap="square" stroke-miterlimit="10" d="  M338.994,321.168c5.744-1.382,10.639,5.408,10.5-5.25C340.707,313.485,343.783,318.777,338.994,321.168z"/>
<path fill-rule="evenodd" clip-rule="evenodd" fill="#F4F4F4" stroke="#010101" stroke-linecap="square" stroke-miterlimit="10" d="  M366.744,321.168c5.04-0.548,9.56,4.979,10.5-5.25C368.288,313.344,370.943,319.184,366.744,321.168z"/>
<path fill-rule="evenodd" clip-rule="evenodd" fill="#F4F4F4" stroke="#010101" stroke-linecap="square" stroke-miterlimit="10" d="  M380.994,321.168C391.818,318.437,390.445,315.691,380.994,321.168L380.994,321.168z"/>
<path fill-rule="evenodd" clip-rule="evenodd" fill="#F4F4F4" stroke="#010101" stroke-linecap="square" stroke-miterlimit="10" d="  M254.994,310.668C265.818,307.937,264.445,305.191,254.994,310.668L254.994,310.668z"/>
<path fill-rule="evenodd" clip-rule="evenodd" fill="#F4F4F4" stroke="#010101" stroke-linecap="square" stroke-miterlimit="10" d="  M281.994,310.668c4.042-1.188,8.636,4.922,9-5.25C283.41,303.623,284.838,309.173,281.994,310.668z"/>
<path fill-rule="evenodd" clip-rule="evenodd" fill="#F4F4F4" stroke="#010101" stroke-linecap="square" stroke-miterlimit="10" d="  M268.494,310.668c3.423-1.36,7.781,5.102,8.25-5.25C268.463,303.295,271.102,309.632,268.494,310.668z"/>
<path fill-rule="evenodd" clip-rule="evenodd" fill="#F4F4F4" stroke="#010101" stroke-linecap="square" stroke-miterlimit="10" d="  M293.994,310.668c5.914-1.271,10.485,5.618,10.5-5.25C296.606,303.383,298.447,308.569,293.994,310.668z"/>
<path fill-rule="evenodd" clip-rule="evenodd" fill="#F4F4F4" stroke="#010101" stroke-linecap="square" stroke-miterlimit="10" d="  M321.744,310.668c5.19-0.479,9.536,4.982,10.5-5.25C323.45,302.983,326.537,308.292,321.744,310.668z"/>
<path fill-rule="evenodd" clip-rule="evenodd" fill="#F4F4F4" stroke="#010101" stroke-linecap="square" stroke-miterlimit="10" d="  M308.244,310.668c5.848-0.635,10.065,4.958,10.5-5.25C309.584,302.735,312.542,308.247,308.244,310.668z"/>
<path fill-rule="evenodd" clip-rule="evenodd" fill="#F4F4F4" stroke="#010101" stroke-linecap="square" stroke-miterlimit="10" d="  M335.994,310.668C346.268,307.915,345.69,304.791,335.994,310.668L335.994,310.668z"/>
<path fill-rule="evenodd" clip-rule="evenodd" fill="#F4F4F4" stroke="#010101" stroke-linecap="square" stroke-miterlimit="10" d="  M363.744,310.668c2.999-1.462,7.993,4.84,8.25-5.25C364.156,303.477,366.562,309.294,363.744,310.668z"/>
<path fill-rule="evenodd" clip-rule="evenodd" fill="#F4F4F4" stroke="#010101" stroke-linecap="square" stroke-miterlimit="10" d="  M349.494,310.668c4.005-0.972,8.083,4.813,9-5.25C349.889,303.144,352.426,309.225,349.494,310.668z"/>
<path fill-rule="evenodd" clip-rule="evenodd" fill="#F4F4F4" stroke="#010101" stroke-linecap="square" stroke-miterlimit="10" d="  M375.744,310.668c5.33-1.269,9.779,5.407,9.75-5.25C376.472,302.802,379.999,308.507,375.744,310.668z"/>
<path fill-rule="evenodd" clip-rule="evenodd" fill="#F4F4F4" stroke="#010101" stroke-linecap="square" stroke-miterlimit="10" d="  M389.244,310.668c5.926-0.771,10.542,4.977,10.5-5.25C390.89,302.874,393.447,308.205,389.244,310.668z"/>
<path fill-rule="evenodd" clip-rule="evenodd" fill="#F4F4F4" stroke="#010101" stroke-linecap="square" stroke-miterlimit="10" d="  M402.744,310.668C414.774,310.028,413.289,304.392,402.744,310.668L402.744,310.668z"/>
<path fill-rule="evenodd" clip-rule="evenodd" fill="#F4F4F4" stroke="#010101" stroke-linecap="square" stroke-miterlimit="10" d="  M252.744,300.168c5.744-1.382,10.639,5.408,10.5-5.25C254.457,292.485,257.533,297.777,252.744,300.168z"/>
<path fill-rule="evenodd" clip-rule="evenodd" fill="#F4F4F4" stroke="#010101" stroke-linecap="square" stroke-miterlimit="10" d="  M280.494,300.168C293.051,299.171,290.72,295.164,280.494,300.168L280.494,300.168z"/>
<path fill-rule="evenodd" clip-rule="evenodd" fill="#F4F4F4" stroke="#010101" stroke-linecap="square" stroke-miterlimit="10" d="  M266.994,300.168c4.511-1.073,9.061,5.219,9.75-5.25C267.732,292.305,271.247,297.97,266.994,300.168z"/>
<path fill-rule="evenodd" clip-rule="evenodd" fill="#F4F4F4" stroke="#010101" stroke-linecap="square" stroke-miterlimit="10" d="  M293.994,300.168C306.353,298.931,304.382,294.495,293.994,300.168L293.994,300.168z"/>
<path fill-rule="evenodd" clip-rule="evenodd" fill="#F4F4F4" stroke="#010101" stroke-linecap="square" stroke-miterlimit="10" d="  M321.744,300.168c4.075-1.073,8.418,4.72,9-5.25C322.531,292.875,324.709,298.68,321.744,300.168z"/>
<path fill-rule="evenodd" clip-rule="evenodd" fill="#F4F4F4" stroke="#010101" stroke-linecap="square" stroke-miterlimit="10" d="  M308.244,300.168C317.771,297.512,317.849,294.956,308.244,300.168L308.244,300.168z"/>
<path fill-rule="evenodd" clip-rule="evenodd" fill="#F4F4F4" stroke="#010101" stroke-linecap="square" stroke-miterlimit="10" d="  M333.744,300.168c5.924-1.247,10.485,5.6,10.5-5.25C335.42,292.475,338.553,297.871,333.744,300.168z"/>
<path fill-rule="evenodd" clip-rule="evenodd" fill="#F4F4F4" stroke="#010101" stroke-linecap="square" stroke-miterlimit="10" d="  M361.494,300.168C373.877,299.224,371.909,294.734,361.494,300.168L361.494,300.168z"/>
<path fill-rule="evenodd" clip-rule="evenodd" fill="#F4F4F4" stroke="#010101" stroke-linecap="square" stroke-miterlimit="10" d="  M347.994,300.168c4.815-0.593,8.268,4.356,10.5-5.25C349.4,292.437,351.326,298.386,347.994,300.168z"/>
<path fill-rule="evenodd" clip-rule="evenodd" fill="#F4F4F4" stroke="#010101" stroke-linecap="square" stroke-miterlimit="10" d="  M375.744,300.168C386.568,297.437,385.195,294.691,375.744,300.168L375.744,300.168z"/>
<path fill-rule="evenodd" clip-rule="evenodd" fill="#F4F4F4" stroke="#010101" stroke-linecap="square" stroke-miterlimit="10" d="  M389.244,300.168c4.005-0.972,8.083,4.813,9-5.25C389.639,292.644,392.176,298.725,389.244,300.168z"/>
<path fill-rule="evenodd" clip-rule="evenodd" fill="#F4F4F4" stroke="#010101" stroke-linecap="square" stroke-miterlimit="10" d="  M401.244,300.168c5.456,0.99,8.942,6.747,10.5-5.25C403.007,292.407,405.388,297.382,401.244,300.168z"/>
<path fill-rule="evenodd" clip-rule="evenodd" fill="#F4F4F4" stroke="#010101" stroke-linecap="square" stroke-miterlimit="10" d="  M252.744,289.668c4.604,0.311,7.8,6.499,9-5.25C252.242,281.804,256.018,286.969,252.744,289.668z"/>
<path fill-rule="evenodd" clip-rule="evenodd" fill="#F4F4F4" stroke="#010101" stroke-linecap="square" stroke-miterlimit="10" d="  M278.994,289.668c6.053,0.743,9.299,7.299,10.5-5.25C280.824,281.962,283.13,286.429,278.994,289.668z"/>
<path fill-rule="evenodd" clip-rule="evenodd" fill="#F4F4F4" stroke="#010101" stroke-linecap="square" stroke-miterlimit="10" d="  M264.744,289.668c6.48,0.919,9.895,7.402,10.5-5.25C266.768,282.226,269.413,286.736,264.744,289.668z"/>
<path fill-rule="evenodd" clip-rule="evenodd" fill="#F4F4F4" stroke="#010101" stroke-linecap="square" stroke-miterlimit="10" d="  M292.494,289.668c5.101,0.592,8.182,7.215,10.5-5.25C294.474,282.061,296.671,286.667,292.494,289.668z"/>
<path fill-rule="evenodd" clip-rule="evenodd" fill="#F4F4F4" stroke="#010101" stroke-linecap="square" stroke-miterlimit="10" d="  M320.244,289.668c4.529,0.808,6.36,6.706,10.5-3C322.899,280.659,323.999,287.692,320.244,289.668z"/>
<path fill-rule="evenodd" clip-rule="evenodd" fill="#F4F4F4" stroke="#010101" stroke-linecap="square" stroke-miterlimit="10" d="  M306.744,289.668C316.68,289.345,317.093,283.158,306.744,289.668L306.744,289.668z"/>
<path fill-rule="evenodd" clip-rule="evenodd" fill="#F4F4F4" stroke="#010101" stroke-linecap="square" stroke-miterlimit="10" d="  M333.744,289.668c4.513,0.139,8.035,6.674,9-5.25C333.964,282.124,336.876,287.062,333.744,289.668z"/>
<path fill-rule="evenodd" clip-rule="evenodd" fill="#F4F4F4" stroke="#010101" stroke-linecap="square" stroke-miterlimit="10" d="  M359.994,289.668c5.588,1.309,8.6,6.932,10.5-5.25C362.14,282.165,364.161,286.698,359.994,289.668z"/>
<path fill-rule="evenodd" clip-rule="evenodd" fill="#F4F4F4" stroke="#010101" stroke-linecap="square" stroke-miterlimit="10" d="  M345.744,289.668c6.48,0.919,9.895,7.402,10.5-5.25C347.768,282.226,350.413,286.736,345.744,289.668z"/>
<path fill-rule="evenodd" clip-rule="evenodd" fill="#F4F4F4" stroke="#010101" stroke-linecap="square" stroke-miterlimit="10" d="  M373.494,289.668c5.637,0.845,8.654,7.251,10.5-5.25C375.688,282.256,377.136,287.609,373.494,289.668z"/>
<path fill-rule="evenodd" clip-rule="evenodd" fill="#F4F4F4" stroke="#010101" stroke-linecap="square" stroke-miterlimit="10" d="  M387.744,289.668c4.5,0.752,6.35,6.73,10.5-3C390.322,280.66,391.727,287.376,387.744,289.668z"/>
<path fill-rule="evenodd" clip-rule="evenodd" fill="#F4F4F4" stroke="#010101" stroke-linecap="square" stroke-miterlimit="10" d="  M401.244,291.168C411.797,288.761,410.613,284.089,401.244,291.168L401.244,291.168z"/>
<path fill-rule="evenodd" clip-rule="evenodd" fill="#F4F4F4" stroke="#010101" stroke-linecap="square" stroke-miterlimit="10" d="  M239.244,289.668c3.824-0.541,6.817,3.954,10.5-3C241.751,280.606,243.235,287.562,239.244,289.668z"/>
<path fill-rule="evenodd" clip-rule="evenodd" fill="#F4F4F4" stroke="#010101" stroke-linecap="square" stroke-miterlimit="10" d="  M342.744,324.168C227.575,324.168,345.711,341.964,342.744,324.168L342.744,324.168z"/>
<path fill-rule="evenodd" clip-rule="evenodd" fill="#F4F4F4" stroke="#010101" stroke-linecap="square" stroke-miterlimit="10" d="  M406.494,321.168c3.878-1.119,8.073,4.917,9-5.25C405.615,313.149,409.738,319.016,406.494,321.168z"/>
<path fill-rule="evenodd" clip-rule="evenodd" fill="#F4F4F4" stroke="#010101" stroke-linecap="square" stroke-miterlimit="10" d="  M425.248,315.918c-14.094,0-27.999-5.359-32.254,6.75C406.569,322.668,425.68,328.224,425.248,315.918z"/>
<path fill-rule="evenodd" clip-rule="evenodd" fill="#F4F4F4" stroke="#010101" stroke-linecap="square" stroke-miterlimit="10" d="  M428.998,284.418C395.53,284.874,433.928,304.435,428.998,284.418L428.998,284.418z"/>
<path fill-rule="evenodd" clip-rule="evenodd" fill="#F4F4F4" stroke="#010101" stroke-linecap="square" stroke-miterlimit="10" d="  M428.998,294.918C390.959,289.846,437.686,333.109,428.998,294.918L428.998,294.918z"/>
<path fill-rule="evenodd" clip-rule="evenodd" fill="#F4F4F4" stroke="#010101" stroke-linecap="square" stroke-miterlimit="10" d="  M361.494,325.668c-7.333-0.692-12.102-3.226-13.5,7.5C360.958,334.946,363.695,333.408,361.494,325.668z"/>
<path fill-rule="evenodd" clip-rule="evenodd" fill="#F4F4F4" stroke="#010101" stroke-linecap="square" stroke-miterlimit="10" d="  M383.994,325.668c-9.264-0.257-14.951-2.487-15.75,7.5C380.282,335.976,381.718,332.804,383.994,325.668z"/>
<path fill-rule="evenodd" clip-rule="evenodd" fill="#F4F4F4" stroke="#010101" stroke-linecap="square" stroke-miterlimit="10" d="  M402.744,325.668C371.712,320.017,405.843,345.431,402.744,325.668L402.744,325.668z"/>
<path fill-rule="evenodd" clip-rule="evenodd" fill="#F4F4F4" stroke="#010101" stroke-linecap="square" stroke-miterlimit="10" d="  M423.748,325.668c-8.214-2.237-13.818-2.565-15.754,7.5C419.673,335.381,423.221,333.042,423.748,325.668z"/>
<path fill-rule="evenodd" clip-rule="evenodd" fill="#F4F4F4" stroke="#010101" stroke-linecap="square" stroke-miterlimit="10" d="  M251.244,305.418c-9.068,0.377-14.789-2.927-15.75,6.75C247.23,314.341,250.015,311.754,251.244,305.418z"/>
<path fill-rule="evenodd" clip-rule="evenodd" fill="#F4F4F4" stroke="#010101" stroke-linecap="square" stroke-miterlimit="10" d="  M247.494,324.168C215.986,325.724,250.775,343.1,247.494,324.168L247.494,324.168z"/>
<path fill-rule="evenodd" clip-rule="evenodd" fill="#F4F4F4" stroke="#010101" stroke-linecap="square" stroke-miterlimit="10" d="  M266.994,324.168C239.59,324.636,265.202,343.362,266.994,324.168L266.994,324.168z"/>
<path fill-rule="evenodd" clip-rule="evenodd" fill="#F4F4F4" stroke="#010101" stroke-linecap="square" stroke-miterlimit="10" d="  M285.744,324.168C260.906,326.856,284.072,341.857,285.744,324.168L285.744,324.168z"/>
<path fill-rule="evenodd" clip-rule="evenodd" fill="#F4F4F4" stroke="#010101" stroke-linecap="square" stroke-miterlimit="10" d="  M249.744,294.918c-7.475,1.226-12.519-2.718-12,6.75C249.477,303.479,247.951,299.298,249.744,294.918z"/>
<path fill-rule="evenodd" clip-rule="evenodd" fill="#F4F4F4" stroke="#010101" stroke-linecap="square" stroke-miterlimit="10" d="  M233.994,321.168c4.312-0.371,7.208,4.193,10.5-3.75C236.01,312.693,237.303,319.452,233.994,321.168z"/>
<path fill-rule="evenodd" clip-rule="evenodd" fill="#F4F4F4" stroke="#010101" stroke-linecap="square" stroke-miterlimit="10" d="  M268.494,279.168C276.954,278.101,279.599,271.805,268.494,279.168L268.494,279.168z"/>
<path fill-rule="evenodd" clip-rule="evenodd" fill="#F4F4F4" stroke="#010101" stroke-linecap="square" stroke-miterlimit="10" d="  M293.994,279.168C306.872,279.234,306.644,270.757,293.994,279.168L293.994,279.168z"/>
<path fill-rule="evenodd" clip-rule="evenodd" fill="#F4F4F4" stroke="#010101" stroke-linecap="square" stroke-miterlimit="10" d="  M281.994,279.168C290.683,277.205,293.342,270.378,281.994,279.168L281.994,279.168z"/>
<path fill-rule="evenodd" clip-rule="evenodd" fill="#F4F4F4" stroke="#010101" stroke-linecap="square" stroke-miterlimit="10" d="  M308.244,279.168C321.494,279.139,319.263,269.68,308.244,279.168L308.244,279.168z"/>
<path fill-rule="evenodd" clip-rule="evenodd" fill="#F4F4F4" stroke="#010101" stroke-linecap="square" stroke-miterlimit="10" d="  M383.994,279.168C395.603,280.096,395.177,270.623,383.994,279.168L383.994,279.168z"/>
<path fill-rule="evenodd" clip-rule="evenodd" fill="#F4F4F4" stroke="#010101" stroke-linecap="square" stroke-miterlimit="10" d="  M411.744,279.168C419.397,278.083,423.302,272.326,411.744,279.168L411.744,279.168z"/>
<path fill-rule="evenodd" clip-rule="evenodd" fill="#F4F4F4" stroke="#010101" stroke-linecap="square" stroke-miterlimit="10" d="  M398.244,279.168C406.837,277.717,408.996,271.5,398.244,279.168L398.244,279.168z"/>
<path fill-rule="evenodd" clip-rule="evenodd" fill="#F4F4F4" stroke="#010101" stroke-linecap="square" stroke-miterlimit="10" d="  M425.248,279.168C435.354,278.389,435.401,270.104,425.248,279.168L425.248,279.168z"/>
<path fill-rule="evenodd" clip-rule="evenodd" fill="#F4F4F4" stroke="#010101" stroke-linecap="square" stroke-miterlimit="10" d="  M326.994,279.168C336.698,279.178,337.378,270.949,326.994,279.168L326.994,279.168z"/>
<path fill-rule="evenodd" clip-rule="evenodd" fill="#F4F4F4" stroke="#010101" stroke-linecap="square" stroke-miterlimit="10" d="  M353.244,279.168C366.494,279.139,364.263,269.68,353.244,279.168L353.244,279.168z"/>
<path fill-rule="evenodd" clip-rule="evenodd" fill="#F4F4F4" stroke="#010101" stroke-linecap="square" stroke-miterlimit="10" d="  M338.994,279.168C352.241,278.859,351.081,270.658,338.994,279.168L338.994,279.168z"/>
<path fill-rule="evenodd" clip-rule="evenodd" fill="#F4F4F4" stroke="#010101" stroke-linecap="square" stroke-miterlimit="10" d="  M366.744,279.168C380.023,278.69,378.546,270.441,366.744,279.168L366.744,279.168z"/>
<path fill-rule="evenodd" clip-rule="evenodd" fill="#F4F4F4" stroke="#010101" stroke-linecap="square" stroke-miterlimit="10" d="  M240.744,279.168c4.979,0.32,8.382,6.019,10.5-5.25C242.638,271.537,244.988,276.355,240.744,279.168z"/>
<path fill-rule="evenodd" clip-rule="evenodd" fill="#F4F4F4" stroke="#010101" stroke-linecap="square" stroke-miterlimit="10" d="  M439.498,291.168C451.806,289.539,449.454,282.363,439.498,291.168L439.498,291.168z"/>
<path fill-rule="evenodd" clip-rule="evenodd" fill="#F4F4F4" stroke="#010101" stroke-linecap="square" stroke-miterlimit="10" d="  M467.248,291.168C474.587,287.063,478.113,285.09,467.248,291.168L467.248,291.168z"/>
<path fill-rule="evenodd" clip-rule="evenodd" fill="#F4F4F4" stroke="#010101" stroke-linecap="square" stroke-miterlimit="10" d="  M452.998,291.168C464.345,288.967,463.608,284.361,452.998,291.168L452.998,291.168z"/>
<path fill-rule="evenodd" clip-rule="evenodd" fill="#F4F4F4" stroke="#010101" stroke-linecap="square" stroke-miterlimit="10" d="  M442.498,279.168c3.775-0.739,7.943,6.499,9-5.25C442.682,271.614,445.64,276.728,442.498,279.168z"/>
<path fill-rule="evenodd" clip-rule="evenodd" fill="#F4F4F4" stroke="#010101" stroke-linecap="square" stroke-miterlimit="10" d="  M468.748,279.168c5.971,0.229,9.848,5.99,10.5-5.25C470.397,271.411,473.033,276.251,468.748,279.168z"/>
<path fill-rule="evenodd" clip-rule="evenodd" fill="#F4F4F4" stroke="#010101" stroke-linecap="square" stroke-miterlimit="10" d="  M454.498,279.168c6.053-0.475,10.171,7.019,10.5-5.25C456.441,271.705,459.236,276.373,454.498,279.168z"/>
<path fill-rule="evenodd" clip-rule="evenodd" fill="#F4F4F4" stroke="#010101" stroke-linecap="square" stroke-miterlimit="10" d="  M437.248,300.168c5.583,0.662,9.344,7.04,10.5-5.25C439.014,292.5,442.004,297.653,437.248,300.168z"/>
<path fill-rule="evenodd" clip-rule="evenodd" fill="#F4F4F4" stroke="#010101" stroke-linecap="square" stroke-miterlimit="10" d="  M464.998,300.168C476.905,300.416,475.8,293.932,464.998,300.168L464.998,300.168z"/>
<path fill-rule="evenodd" clip-rule="evenodd" fill="#F4F4F4" stroke="#010101" stroke-linecap="square" stroke-miterlimit="10" d="  M451.498,300.168c4.746,0.844,6.763,6.73,10.5-3.75C452.925,291.419,455.09,298.096,451.498,300.168z"/>
<path fill-rule="evenodd" clip-rule="evenodd" fill="#F4F4F4" stroke="#010101" stroke-linecap="square" stroke-miterlimit="10" d="  M432.748,330.918C444.623,330.923,444.293,322.535,432.748,330.918L432.748,330.918z"/>
<path fill-rule="evenodd" clip-rule="evenodd" fill="#F4F4F4" stroke="#010101" stroke-linecap="square" stroke-miterlimit="10" d="  M459.748,330.918C470.526,331.636,472.051,322.984,459.748,330.918L459.748,330.918z"/>
<path fill-rule="evenodd" clip-rule="evenodd" fill="#F4F4F4" stroke="#010101" stroke-linecap="square" stroke-miterlimit="10" d="  M446.248,330.918C457.502,330.924,458.309,321.737,446.248,330.918L446.248,330.918z"/>
<path fill-rule="evenodd" clip-rule="evenodd" fill="#F4F4F4" stroke="#010101" stroke-linecap="square" stroke-miterlimit="10" d="  M447.748,321.168c5.744-1.382,10.639,5.408,10.5-5.25C449.46,313.485,452.537,318.777,447.748,321.168z"/>
<path fill-rule="evenodd" clip-rule="evenodd" fill="#F4F4F4" stroke="#010101" stroke-linecap="square" stroke-miterlimit="10" d="  M485.998,291.168C493.213,287.484,497.205,285.446,485.998,291.168L485.998,291.168z"/>
<path fill-rule="evenodd" clip-rule="evenodd" fill="#F4F4F4" stroke="#010101" stroke-linecap="square" stroke-miterlimit="10" d="  M511.498,291.168C524.504,290.316,523.467,283.151,511.498,291.168L511.498,291.168z"/>
<path fill-rule="evenodd" clip-rule="evenodd" fill="#F4F4F4" stroke="#010101" stroke-linecap="square" stroke-miterlimit="10" d="  M499.498,291.168C510.59,287.62,508.428,283.405,499.498,291.168L499.498,291.168z"/>
<path fill-rule="evenodd" clip-rule="evenodd" fill="#F4F4F4" stroke="#010101" stroke-linecap="square" stroke-miterlimit="10" d="  M484.498,300.168C494.929,299.986,494.625,293.588,484.498,300.168L484.498,300.168z"/>
<path fill-rule="evenodd" clip-rule="evenodd" fill="#F4F4F4" stroke="#010101" stroke-linecap="square" stroke-miterlimit="10" d="  M511.498,300.168c4.411,0.053,8.199,6.147,9-5.25C511.489,292.509,514.589,297.684,511.498,300.168z"/>
<path fill-rule="evenodd" clip-rule="evenodd" fill="#F4F4F4" stroke="#010101" stroke-linecap="square" stroke-miterlimit="10" d="  M497.998,300.168c4.071,0.018,7.437,6.798,9-5.25C498.367,292.637,501.106,298.186,497.998,300.168z"/>
<path fill-rule="evenodd" clip-rule="evenodd" fill="#F4F4F4" stroke="#010101" stroke-linecap="square" stroke-miterlimit="10" d="  M482.248,310.668C494.631,309.724,492.663,305.234,482.248,310.668L482.248,310.668z"/>
<path fill-rule="evenodd" clip-rule="evenodd" fill="#F4F4F4" stroke="#010101" stroke-linecap="square" stroke-miterlimit="10" d="  M509.998,310.668c3.878-1.119,8.073,4.917,9-5.25C509.119,302.649,513.242,308.516,509.998,310.668z"/>
<path fill-rule="evenodd" clip-rule="evenodd" fill="#F4F4F4" stroke="#010101" stroke-linecap="square" stroke-miterlimit="10" d="  M496.498,310.668c3.273-1.468,7.777,5.179,8.25-5.25C496.945,303.486,499.229,309.444,496.498,310.668z"/>
<path fill-rule="evenodd" clip-rule="evenodd" fill="#F4F4F4" stroke="#010101" stroke-linecap="square" stroke-miterlimit="10" d="  M480.748,321.168c3.423-1.36,7.781,5.102,8.25-5.25C480.717,313.795,483.355,320.132,480.748,321.168z"/>
<path fill-rule="evenodd" clip-rule="evenodd" fill="#F4F4F4" stroke="#010101" stroke-linecap="square" stroke-miterlimit="10" d="  M506.998,321.168c5.33-1.269,9.778,5.407,9.75-5.25C507.726,313.302,511.253,319.007,506.998,321.168z"/>
<path fill-rule="evenodd" clip-rule="evenodd" fill="#F4F4F4" stroke="#010101" stroke-linecap="square" stroke-miterlimit="10" d="  M494.248,321.168c3.914-1.32,8.633,5.009,9-5.25C494.182,313.493,497.228,319.407,494.248,321.168z"/>
<path fill-rule="evenodd" clip-rule="evenodd" fill="#F4F4F4" stroke="#010101" stroke-linecap="square" stroke-miterlimit="10" d="  M506.998,330.918C513.987,326.736,518.139,324.251,506.998,330.918L506.998,330.918z"/>
<path fill-rule="evenodd" clip-rule="evenodd" fill="#F4F4F4" stroke="#010101" stroke-linecap="square" stroke-miterlimit="10" d="  M525.748,291.168c3.688-0.87,6.579,4.883,10.5-3C528.087,279.916,530.287,288.066,525.748,291.168z"/>
<path fill-rule="evenodd" clip-rule="evenodd" fill="#F4F4F4" stroke="#010101" stroke-linecap="square" stroke-miterlimit="10" d="  M532.498,294.918c-7.768,2.173-10.964,6.803-10.5,17.25C533.578,311.984,535.433,302.638,532.498,294.918z"/>
<path fill-rule="evenodd" clip-rule="evenodd" fill="#F4F4F4" stroke="#010101" stroke-linecap="square" stroke-miterlimit="10" d="  M528.748,315.918c-7.496,2.69-11.1,6.132-9.75,17.25C530.652,332.37,531.896,322.285,528.748,315.918z"/>
<path fill-rule="evenodd" clip-rule="evenodd" fill="#F4F4F4" stroke="#010101" stroke-linecap="square" stroke-miterlimit="10" d="  M499.498,324.168c-10.923-3.301-19.318-1.553-20.25,9C491,335.688,504.168,335.864,499.498,324.168z"/>
<path fill-rule="evenodd" clip-rule="evenodd" fill="#B9B8B9" stroke="#010101" stroke-width="2" stroke-linecap="square" stroke-miterlimit="10" d="  M223.494,343.668c-6.503,3.965-10.801,5.441-12,13.5c112.251,0.5,224.503,1,336.754,1.5c-13.144-35.416-127.754-15-158.516-15  C334.32,343.668,278.907,343.668,223.494,343.668z"/>
<path fill-rule="evenodd" clip-rule="evenodd" fill="#B9B8B9" stroke="#010101" stroke-width="2" stroke-linecap="square" stroke-miterlimit="10" d="  M287.244,372.918c-24.285,11.977-21.906,63.855-26.25,87.75c4.5,0.75,9,1.5,13.5,2.25  C278.744,432.918,282.994,402.918,287.244,372.918z"/>
<path fill-rule="evenodd" clip-rule="evenodd" fill="#B9B8B9" stroke="#010101" stroke-width="2" stroke-linecap="square" stroke-miterlimit="10" d="  M585.748,450.918c-104.251,0-208.502,0-312.754,0c1.812-9.923,9.994-78,16.295-78c29.493,0,58.987,0,88.48,0  c73.326,0,146.652,0,219.978,0C593.748,398.918,589.748,424.918,585.748,450.918z"/>
<path fill-rule="evenodd" clip-rule="evenodd" fill="#F4F4F4" stroke="#010101" stroke-linecap="square" stroke-miterlimit="10" d="  M295.494,428.418c4.005-0.972,8.083,4.813,9-5.25C295.889,420.894,298.426,426.975,295.494,428.418z"/>
<path fill-rule="evenodd" clip-rule="evenodd" fill="#F4F4F4" stroke="#010101" stroke-linecap="square" stroke-miterlimit="10" d="  M321.744,428.418c5.33-1.269,9.779,5.407,9.75-5.25C322.472,420.552,325.999,426.257,321.744,428.418z"/>
<path fill-rule="evenodd" clip-rule="evenodd" fill="#F4F4F4" stroke="#010101" stroke-linecap="square" stroke-miterlimit="10" d="  M307.494,428.418c5.733-1.4,10.639,5.42,10.5-5.25C310.123,421.137,311.946,426.227,307.494,428.418z"/>
<path fill-rule="evenodd" clip-rule="evenodd" fill="#F4F4F4" stroke="#010101" stroke-linecap="square" stroke-miterlimit="10" d="  M335.244,428.418c5.04-0.548,9.56,4.979,10.5-5.25C336.788,420.594,339.443,426.434,335.244,428.418z"/>
<path fill-rule="evenodd" clip-rule="evenodd" fill="#F4F4F4" stroke="#010101" stroke-linecap="square" stroke-miterlimit="10" d="  M362.994,428.418c4.27-0.46,7.189,4.236,10.5-3.75C364.992,419.961,366.583,426.38,362.994,428.418z"/>
<path fill-rule="evenodd" clip-rule="evenodd" fill="#F4F4F4" stroke="#010101" stroke-linecap="square" stroke-miterlimit="10" d="  M348.744,428.418c5.176-0.58,8.938,4.823,10.5-5.25C350.655,420.958,351.994,426.722,348.744,428.418z"/>
<path fill-rule="evenodd" clip-rule="evenodd" fill="#F4F4F4" stroke="#010101" stroke-linecap="square" stroke-miterlimit="10" d="  M376.494,428.418c4.075-1.073,8.418,4.72,9-5.25C377.281,421.125,379.459,426.93,376.494,428.418z"/>
<path fill-rule="evenodd" clip-rule="evenodd" fill="#F4F4F4" stroke="#010101" stroke-linecap="square" stroke-miterlimit="10" d="  M402.744,428.418c5.848-0.635,10.065,4.958,10.5-5.25C404.084,420.485,407.042,425.997,402.744,428.418z"/>
<path fill-rule="evenodd" clip-rule="evenodd" fill="#F4F4F4" stroke="#010101" stroke-linecap="square" stroke-miterlimit="10" d="  M388.494,428.418c5.924-1.247,10.485,5.601,10.5-5.25C390.17,420.725,393.303,426.121,388.494,428.418z"/>
<path fill-rule="evenodd" clip-rule="evenodd" fill="#F4F4F4" stroke="#010101" stroke-linecap="square" stroke-miterlimit="10" d="  M416.248,428.418c5.04-0.548,9.56,4.979,10.5-5.25C417.792,420.594,420.446,426.434,416.248,428.418z"/>
<path fill-rule="evenodd" clip-rule="evenodd" fill="#F4F4F4" stroke="#010101" stroke-linecap="square" stroke-miterlimit="10" d="  M430.498,428.418C441.322,425.687,439.949,422.942,430.498,428.418L430.498,428.418z"/>
<path fill-rule="evenodd" clip-rule="evenodd" fill="#F4F4F4" stroke="#010101" stroke-linecap="square" stroke-miterlimit="10" d="  M304.494,417.918C315.318,415.187,313.945,412.441,304.494,417.918L304.494,417.918z"/>
<path fill-rule="evenodd" clip-rule="evenodd" fill="#F4F4F4" stroke="#010101" stroke-linecap="square" stroke-miterlimit="10" d="  M331.494,417.918c4.042-1.188,8.636,4.922,9-5.25C332.91,410.873,334.338,416.423,331.494,417.918z"/>
<path fill-rule="evenodd" clip-rule="evenodd" fill="#F4F4F4" stroke="#010101" stroke-linecap="square" stroke-miterlimit="10" d="  M317.994,417.918c4.005-0.972,8.083,4.813,9-5.25C318.389,410.394,320.926,416.475,317.994,417.918z"/>
<path fill-rule="evenodd" clip-rule="evenodd" fill="#F4F4F4" stroke="#010101" stroke-linecap="square" stroke-miterlimit="10" d="  M344.244,417.918c5.318-1.29,9.779,5.424,9.75-5.25C346.006,410.505,348.126,415.974,344.244,417.918z"/>
<path fill-rule="evenodd" clip-rule="evenodd" fill="#F4F4F4" stroke="#010101" stroke-linecap="square" stroke-miterlimit="10" d="  M371.244,417.918c5.293-0.463,9.691,5.017,10.5-5.25C372.934,410.229,376.046,415.585,371.244,417.918z"/>
<path fill-rule="evenodd" clip-rule="evenodd" fill="#F4F4F4" stroke="#010101" stroke-linecap="square" stroke-miterlimit="10" d="  M357.744,417.918c5.865-0.772,10.332,4.861,10.5-5.25C359.625,410.249,361.91,415.38,357.744,417.918z"/>
<path fill-rule="evenodd" clip-rule="evenodd" fill="#F4F4F4" stroke="#010101" stroke-linecap="square" stroke-miterlimit="10" d="  M385.494,417.918c4-0.477,6.91,4.128,10.5-3.75C387.518,409.476,389.091,415.785,385.494,417.918z"/>
<path fill-rule="evenodd" clip-rule="evenodd" fill="#F4F4F4" stroke="#010101" stroke-linecap="square" stroke-miterlimit="10" d="  M413.244,417.918c3.001-1.462,7.997,4.841,8.254-5.25C413.66,410.727,416.062,416.546,413.244,417.918z"/>
<path fill-rule="evenodd" clip-rule="evenodd" fill="#F4F4F4" stroke="#010101" stroke-linecap="square" stroke-miterlimit="10" d="  M398.994,417.918c4.005-0.972,8.083,4.813,9-5.25C399.389,410.394,401.926,416.475,398.994,417.918z"/>
<path fill-rule="evenodd" clip-rule="evenodd" fill="#F4F4F4" stroke="#010101" stroke-linecap="square" stroke-miterlimit="10" d="  M425.248,417.918c5.848-0.634,10.065,4.958,10.5-5.25C426.588,409.985,429.547,415.497,425.248,417.918z"/>
<path fill-rule="evenodd" clip-rule="evenodd" fill="#F4F4F4" stroke="#010101" stroke-linecap="square" stroke-miterlimit="10" d="  M438.748,417.918c5.926-0.771,10.541,4.977,10.5-5.25C440.394,410.124,442.951,415.455,438.748,417.918z"/>
<path fill-rule="evenodd" clip-rule="evenodd" fill="#F4F4F4" stroke="#010101" stroke-linecap="square" stroke-miterlimit="10" d="  M452.998,417.918C463.713,417.337,462.972,411.627,452.998,417.918L452.998,417.918z"/>
<path fill-rule="evenodd" clip-rule="evenodd" fill="#F4F4F4" stroke="#010101" stroke-linecap="square" stroke-miterlimit="10" d="  M302.244,407.418c5.924-1.247,10.485,5.6,10.5-5.25C303.92,399.725,307.053,405.121,302.244,407.418z"/>
<path fill-rule="evenodd" clip-rule="evenodd" fill="#F4F4F4" stroke="#010101" stroke-linecap="square" stroke-miterlimit="10" d="  M329.994,407.418C342.551,406.421,340.22,402.414,329.994,407.418L329.994,407.418z"/>
<path fill-rule="evenodd" clip-rule="evenodd" fill="#F4F4F4" stroke="#010101" stroke-linecap="square" stroke-miterlimit="10" d="  M316.494,407.418c5.014-0.524,9.36,4.822,10.5-5.25C317.754,399.462,320.804,405.303,316.494,407.418z"/>
<path fill-rule="evenodd" clip-rule="evenodd" fill="#F4F4F4" stroke="#010101" stroke-linecap="square" stroke-miterlimit="10" d="  M344.244,407.418C355.068,404.687,353.695,401.941,344.244,407.418L344.244,407.418z"/>
<path fill-rule="evenodd" clip-rule="evenodd" fill="#F4F4F4" stroke="#010101" stroke-linecap="square" stroke-miterlimit="10" d="  M371.244,407.418c4.042-1.188,8.636,4.922,9-5.25C372.66,400.373,374.088,405.923,371.244,407.418z"/>
<path fill-rule="evenodd" clip-rule="evenodd" fill="#F4F4F4" stroke="#010101" stroke-linecap="square" stroke-miterlimit="10" d="  M357.744,407.418C367.596,405.054,367.44,402.621,357.744,407.418L357.744,407.418z"/>
<path fill-rule="evenodd" clip-rule="evenodd" fill="#F4F4F4" stroke="#010101" stroke-linecap="square" stroke-miterlimit="10" d="  M383.244,407.418c5.924-1.247,10.485,5.6,10.5-5.25C384.92,399.725,388.053,405.121,383.244,407.418z"/>
<path fill-rule="evenodd" clip-rule="evenodd" fill="#F4F4F4" stroke="#010101" stroke-linecap="square" stroke-miterlimit="10" d="  M410.994,407.418C423.384,406.474,421.411,401.986,410.994,407.418L410.994,407.418z"/>
<path fill-rule="evenodd" clip-rule="evenodd" fill="#F4F4F4" stroke="#010101" stroke-linecap="square" stroke-miterlimit="10" d="  M397.494,407.418c4.815-0.593,8.268,4.356,10.5-5.25C398.9,399.687,400.826,405.636,397.494,407.418z"/>
<path fill-rule="evenodd" clip-rule="evenodd" fill="#F4F4F4" stroke="#010101" stroke-linecap="square" stroke-miterlimit="10" d="  M425.248,407.418c4.27-0.46,7.189,4.236,10.5-3.75C427.245,398.961,428.838,405.38,425.248,407.418z"/>
<path fill-rule="evenodd" clip-rule="evenodd" fill="#F4F4F4" stroke="#010101" stroke-linecap="square" stroke-miterlimit="10" d="  M438.748,407.418c4.006-0.972,8.083,4.813,9-5.25C439.143,399.894,441.681,405.975,438.748,407.418z"/>
<path fill-rule="evenodd" clip-rule="evenodd" fill="#F4F4F4" stroke="#010101" stroke-linecap="square" stroke-miterlimit="10" d="  M450.748,407.418c5.596,0.68,9.075,7.042,10.5-5.25C452.835,399.838,455.255,404.336,450.748,407.418z"/>
<path fill-rule="evenodd" clip-rule="evenodd" fill="#F4F4F4" stroke="#010101" stroke-linecap="square" stroke-miterlimit="10" d="  M302.244,396.918c4.389,0.254,7.801,7.266,9-5.25C302.459,389.373,305.378,394.333,302.244,396.918z"/>
<path fill-rule="evenodd" clip-rule="evenodd" fill="#F4F4F4" stroke="#010101" stroke-linecap="square" stroke-miterlimit="10" d="  M328.494,396.918c6.015,0.841,9.247,7.733,10.5-5.25C330.326,389.212,332.629,393.676,328.494,396.918z"/>
<path fill-rule="evenodd" clip-rule="evenodd" fill="#F4F4F4" stroke="#010101" stroke-linecap="square" stroke-miterlimit="10" d="  M314.244,396.918c6.504,1.019,9.952,7.778,10.5-5.25C316.26,389.474,318.92,394,314.244,396.918z"/>
<path fill-rule="evenodd" clip-rule="evenodd" fill="#F4F4F4" stroke="#010101" stroke-linecap="square" stroke-miterlimit="10" d="  M341.994,396.918c5.389,0.926,8.258,7.598,10.5-5.25C344.236,389.532,346.461,393.667,341.994,396.918z"/>
<path fill-rule="evenodd" clip-rule="evenodd" fill="#F4F4F4" stroke="#010101" stroke-linecap="square" stroke-miterlimit="10" d="  M369.744,396.918C380.653,399.323,381.705,390.644,369.744,396.918L369.744,396.918z"/>
<path fill-rule="evenodd" clip-rule="evenodd" fill="#F4F4F4" stroke="#010101" stroke-linecap="square" stroke-miterlimit="10" d="  M356.244,396.918C366.028,396.828,366.745,390.398,356.244,396.918L356.244,396.918z"/>
<path fill-rule="evenodd" clip-rule="evenodd" fill="#F4F4F4" stroke="#010101" stroke-linecap="square" stroke-miterlimit="10" d="  M383.244,396.918c4.389,0.254,7.801,7.266,9-5.25C383.459,389.373,386.378,394.333,383.244,396.918z"/>
<path fill-rule="evenodd" clip-rule="evenodd" fill="#F4F4F4" stroke="#010101" stroke-linecap="square" stroke-miterlimit="10" d="  M409.494,396.918c5.426,0.783,8.607,7.757,10.504-5.25C411.641,389.414,413.662,393.951,409.494,396.918z"/>
<path fill-rule="evenodd" clip-rule="evenodd" fill="#F4F4F4" stroke="#010101" stroke-linecap="square" stroke-miterlimit="10" d="  M395.994,396.918c5.911,0.911,9.081,7.672,9.75-5.25C397.084,389.23,400.237,394.111,395.994,396.918z"/>
<path fill-rule="evenodd" clip-rule="evenodd" fill="#F4F4F4" stroke="#010101" stroke-linecap="square" stroke-miterlimit="10" d="  M422.998,396.918c5.674,1.412,8.54,7.347,10.5-5.25C425.335,389.543,426.61,394.196,422.998,396.918z"/>
<path fill-rule="evenodd" clip-rule="evenodd" fill="#F4F4F4" stroke="#010101" stroke-linecap="square" stroke-miterlimit="10" d="  M437.248,396.918c4.454,0.849,6.272,7.073,10.5-3C439.814,387.902,441.233,394.655,437.248,396.918z"/>
<path fill-rule="evenodd" clip-rule="evenodd" fill="#F4F4F4" stroke="#010101" stroke-linecap="square" stroke-miterlimit="10" d="  M450.748,399.168C463.167,395.454,459.193,391.855,450.748,399.168L450.748,399.168z"/>
<path fill-rule="evenodd" clip-rule="evenodd" fill="#F4F4F4" stroke="#010101" stroke-linecap="square" stroke-miterlimit="10" d="  M288.744,396.918c3.734-0.207,6.445,5.351,10.5-3C291.351,387.871,292.472,395.117,288.744,396.918z"/>
<path fill-rule="evenodd" clip-rule="evenodd" fill="#F4F4F4" stroke="#010101" stroke-linecap="square" stroke-miterlimit="10" d="  M392.244,431.418C279.824,431.418,391.739,451.177,392.244,431.418L392.244,431.418z"/>
<path fill-rule="evenodd" clip-rule="evenodd" fill="#F4F4F4" stroke="#010101" stroke-linecap="square" stroke-miterlimit="10" d="  M455.998,428.418c3.878-1.119,8.073,4.918,9-5.25C455.119,420.399,459.242,426.266,455.998,428.418z"/>
<path fill-rule="evenodd" clip-rule="evenodd" fill="#F4F4F4" stroke="#010101" stroke-linecap="square" stroke-miterlimit="10" d="  M474.748,423.168c-14.094,0-27.995-5.359-32.25,6.75C456.071,429.918,475.181,435.473,474.748,423.168z"/>
<path fill-rule="evenodd" clip-rule="evenodd" fill="#F4F4F4" stroke="#010101" stroke-linecap="square" stroke-miterlimit="10" d="  M478.498,391.668C443.146,391.709,484.654,412.21,478.498,391.668L478.498,391.668z"/>
<path fill-rule="evenodd" clip-rule="evenodd" fill="#F4F4F4" stroke="#010101" stroke-linecap="square" stroke-miterlimit="10" d="  M478.498,402.168C440.167,397.021,487.506,440.557,478.498,402.168L478.498,402.168z"/>
<path fill-rule="evenodd" clip-rule="evenodd" fill="#F4F4F4" stroke="#010101" stroke-linecap="square" stroke-miterlimit="10" d="  M410.994,433.668c-6.709-1.016-11.354-3.802-13.5,6.75C410.183,442.036,412.968,440.741,410.994,433.668z"/>
<path fill-rule="evenodd" clip-rule="evenodd" fill="#F4F4F4" stroke="#010101" stroke-linecap="square" stroke-miterlimit="10" d="  M433.498,433.668c-9.116,0.299-14.664-2.956-15.75,6.75C430.097,442.708,431.71,439.604,433.498,433.668z"/>
<path fill-rule="evenodd" clip-rule="evenodd" fill="#F4F4F4" stroke="#010101" stroke-linecap="square" stroke-miterlimit="10" d="  M452.998,433.668C428.293,424.811,445.781,452.985,452.998,433.668L452.998,433.668z"/>
<path fill-rule="evenodd" clip-rule="evenodd" fill="#F4F4F4" stroke="#010101" stroke-linecap="square" stroke-miterlimit="10" d="  M473.248,433.668c-7.732-2.617-13.212-3.184-15.75,6.75C469.647,442.659,471.331,439.469,473.248,433.668z"/>
<path fill-rule="evenodd" clip-rule="evenodd" fill="#F4F4F4" stroke="#010101" stroke-linecap="square" stroke-miterlimit="10" d="  M300.744,412.668c-9.068,0.377-14.789-2.927-15.75,6.75C296.73,421.591,299.515,419.004,300.744,412.668z"/>
<path fill-rule="evenodd" clip-rule="evenodd" fill="#F4F4F4" stroke="#010101" stroke-linecap="square" stroke-miterlimit="10" d="  M296.994,431.418C265.319,433.589,300.227,449.828,296.994,431.418L296.994,431.418z"/>
<path fill-rule="evenodd" clip-rule="evenodd" fill="#F4F4F4" stroke="#010101" stroke-linecap="square" stroke-miterlimit="10" d="  M316.494,431.418C289.202,432.149,314.645,450.483,316.494,431.418L316.494,431.418z"/>
<path fill-rule="evenodd" clip-rule="evenodd" fill="#F4F4F4" stroke="#010101" stroke-linecap="square" stroke-miterlimit="10" d="  M335.244,431.418C310.051,434.31,333.949,448.978,335.244,431.418L335.244,431.418z"/>
<path fill-rule="evenodd" clip-rule="evenodd" fill="#F4F4F4" stroke="#010101" stroke-linecap="square" stroke-miterlimit="10" d="  M299.244,402.168c-7.484,1.174-12.517-2.686-12,6.75C299.554,410.864,297.468,406.607,299.244,402.168z"/>
<path fill-rule="evenodd" clip-rule="evenodd" fill="#F4F4F4" stroke="#010101" stroke-linecap="square" stroke-miterlimit="10" d="  M283.494,428.418C296.02,427.403,293.805,423.394,283.494,428.418L283.494,428.418z"/>
<path fill-rule="evenodd" clip-rule="evenodd" fill="#F4F4F4" stroke="#010101" stroke-linecap="square" stroke-miterlimit="10" d="  M317.994,386.418C328.278,387.262,329.688,380.394,317.994,386.418L317.994,386.418z"/>
<path fill-rule="evenodd" clip-rule="evenodd" fill="#F4F4F4" stroke="#010101" stroke-linecap="square" stroke-miterlimit="10" d="  M344.244,386.418C355.406,384.495,355.376,378.322,344.244,386.418L344.244,386.418z"/>
<path fill-rule="evenodd" clip-rule="evenodd" fill="#F4F4F4" stroke="#010101" stroke-linecap="square" stroke-miterlimit="10" d="  M331.494,386.418C340.448,384.548,342.689,378.057,331.494,386.418L331.494,386.418z"/>
<path fill-rule="evenodd" clip-rule="evenodd" fill="#F4F4F4" stroke="#010101" stroke-linecap="square" stroke-miterlimit="10" d="  M357.744,386.418C370.588,385.545,369.355,378.181,357.744,386.418L357.744,386.418z"/>
<path fill-rule="evenodd" clip-rule="evenodd" fill="#F4F4F4" stroke="#010101" stroke-linecap="square" stroke-miterlimit="10" d="  M433.498,386.418C444.516,387.143,445.419,379.641,433.498,386.418L433.498,386.418z"/>
<path fill-rule="evenodd" clip-rule="evenodd" fill="#F4F4F4" stroke="#010101" stroke-linecap="square" stroke-miterlimit="10" d="  M461.248,386.418C470.049,385.433,472.64,379.149,461.248,386.418L461.248,386.418z"/>
<path fill-rule="evenodd" clip-rule="evenodd" fill="#F4F4F4" stroke="#010101" stroke-linecap="square" stroke-miterlimit="10" d="  M447.748,386.418C455.943,385.054,458.577,378.633,447.748,386.418L447.748,386.418z"/>
<path fill-rule="evenodd" clip-rule="evenodd" fill="#F4F4F4" stroke="#010101" stroke-linecap="square" stroke-miterlimit="10" d="  M474.748,386.418C484.785,385.286,484.895,377.872,474.748,386.418L474.748,386.418z"/>
<path fill-rule="evenodd" clip-rule="evenodd" fill="#F4F4F4" stroke="#010101" stroke-linecap="square" stroke-miterlimit="10" d="  M376.494,386.418C386.763,385.794,386.293,378.412,376.494,386.418L376.494,386.418z"/>
<path fill-rule="evenodd" clip-rule="evenodd" fill="#F4F4F4" stroke="#010101" stroke-linecap="square" stroke-miterlimit="10" d="  M402.744,386.418C415.907,385.911,413.63,377.445,402.744,386.418L402.744,386.418z"/>
<path fill-rule="evenodd" clip-rule="evenodd" fill="#F4F4F4" stroke="#010101" stroke-linecap="square" stroke-miterlimit="10" d="  M388.494,386.418C401.695,386.102,400.533,378.557,388.494,386.418L388.494,386.418z"/>
<path fill-rule="evenodd" clip-rule="evenodd" fill="#F4F4F4" stroke="#010101" stroke-linecap="square" stroke-miterlimit="10" d="  M416.248,386.418C429.469,385.5,427.973,378.149,416.248,386.418L416.248,386.418z"/>
<path fill-rule="evenodd" clip-rule="evenodd" fill="#F4F4F4" stroke="#010101" stroke-linecap="square" stroke-miterlimit="10" d="  M290.244,386.418c4.734-0.073,7.833,6.38,10.5-4.5C292.785,379.745,294.751,384.333,290.244,386.418z"/>
<path fill-rule="evenodd" clip-rule="evenodd" fill="#F4F4F4" stroke="#010101" stroke-linecap="square" stroke-miterlimit="10" d="  M488.998,399.168C501.566,395.199,498.142,389.843,488.998,399.168L488.998,399.168z"/>
<path fill-rule="evenodd" clip-rule="evenodd" fill="#F4F4F4" stroke="#010101" stroke-linecap="square" stroke-miterlimit="10" d="  M516.748,399.168C525.812,394.47,526.08,390.744,516.748,399.168L516.748,399.168z"/>
<path fill-rule="evenodd" clip-rule="evenodd" fill="#F4F4F4" stroke="#010101" stroke-linecap="square" stroke-miterlimit="10" d="  M502.498,399.168C515.642,395.963,512.205,392.19,502.498,399.168L502.498,399.168z"/>
<path fill-rule="evenodd" clip-rule="evenodd" fill="#F4F4F4" stroke="#010101" stroke-linecap="square" stroke-miterlimit="10" d="  M491.998,386.418c3.75-0.435,7.454,6.387,9-4.5C492.947,379.776,494.605,385.037,491.998,386.418z"/>
<path fill-rule="evenodd" clip-rule="evenodd" fill="#F4F4F4" stroke="#010101" stroke-linecap="square" stroke-miterlimit="10" d="  M518.248,386.418c5.508-0.358,9.273,6.576,10.5-4.5C520.937,379.745,522.18,384.697,518.248,386.418z"/>
<path fill-rule="evenodd" clip-rule="evenodd" fill="#F4F4F4" stroke="#010101" stroke-linecap="square" stroke-miterlimit="10" d="  M504.748,386.418c4.803-1.169,8.753,7.54,9.75-4.5C506.392,379.541,508.748,384.624,504.748,386.418z"/>
<path fill-rule="evenodd" clip-rule="evenodd" fill="#F4F4F4" stroke="#010101" stroke-linecap="square" stroke-miterlimit="10" d="  M487.498,407.418c4.989,0.574,8.514,6.865,9.75-5.25C488.294,399.572,491.73,405.038,487.498,407.418z"/>
<path fill-rule="evenodd" clip-rule="evenodd" fill="#F4F4F4" stroke="#010101" stroke-linecap="square" stroke-miterlimit="10" d="  M514.498,407.418C526.184,409.318,526.072,400.567,514.498,407.418L514.498,407.418z"/>
<path fill-rule="evenodd" clip-rule="evenodd" fill="#F4F4F4" stroke="#010101" stroke-linecap="square" stroke-miterlimit="10" d="  M500.998,407.418c4.728,0.804,6.755,6.75,10.5-3.75C502.873,398.918,504.482,405.423,500.998,407.418z"/>
<path fill-rule="evenodd" clip-rule="evenodd" fill="#F4F4F4" stroke="#010101" stroke-linecap="square" stroke-miterlimit="10" d="  M482.248,438.168C494.106,437.703,493.646,430.272,482.248,438.168L482.248,438.168z"/>
<path fill-rule="evenodd" clip-rule="evenodd" fill="#F4F4F4" stroke="#010101" stroke-linecap="square" stroke-miterlimit="10" d="  M509.248,438.168C520.181,438.355,521.231,430.729,509.248,438.168L509.248,438.168z"/>
<path fill-rule="evenodd" clip-rule="evenodd" fill="#F4F4F4" stroke="#010101" stroke-linecap="square" stroke-miterlimit="10" d="  M495.748,438.168C506.998,437.748,508.118,429.146,495.748,438.168L495.748,438.168z"/>
<path fill-rule="evenodd" clip-rule="evenodd" fill="#F4F4F4" stroke="#010101" stroke-linecap="square" stroke-miterlimit="10" d="  M497.248,428.418c5.925-1.247,10.485,5.601,10.5-5.25C498.924,420.725,502.057,426.121,497.248,428.418z"/>
<path fill-rule="evenodd" clip-rule="evenodd" fill="#F4F4F4" stroke="#010101" stroke-linecap="square" stroke-miterlimit="10" d="  M535.498,399.168C545.635,395.214,544.877,392.175,535.498,399.168L535.498,399.168z"/>
<path fill-rule="evenodd" clip-rule="evenodd" fill="#F4F4F4" stroke="#010101" stroke-linecap="square" stroke-miterlimit="10" d="  M548.998,399.168C561.114,394.939,557.708,391.265,548.998,399.168L548.998,399.168z"/>
<path fill-rule="evenodd" clip-rule="evenodd" fill="#F4F4F4" stroke="#010101" stroke-linecap="square" stroke-miterlimit="10" d="  M533.998,407.418C544.323,407.731,544.248,401.035,533.998,407.418L533.998,407.418z"/>
<path fill-rule="evenodd" clip-rule="evenodd" fill="#F4F4F4" stroke="#010101" stroke-linecap="square" stroke-miterlimit="10" d="  M547.498,407.418c4.071,0.018,7.437,6.798,9-5.25C547.867,399.887,550.606,405.436,547.498,407.418z"/>
<path fill-rule="evenodd" clip-rule="evenodd" fill="#F4F4F4" stroke="#010101" stroke-linecap="square" stroke-miterlimit="10" d="  M531.748,417.918C544.106,416.681,542.137,412.245,531.748,417.918L531.748,417.918z"/>
<path fill-rule="evenodd" clip-rule="evenodd" fill="#F4F4F4" stroke="#010101" stroke-linecap="square" stroke-miterlimit="10" d="  M545.998,417.918c3.273-1.468,7.777,5.179,8.25-5.25C546.445,410.736,548.729,416.694,545.998,417.918z"/>
<path fill-rule="evenodd" clip-rule="evenodd" fill="#F4F4F4" stroke="#010101" stroke-linecap="square" stroke-miterlimit="10" d="  M530.248,428.418c4.006-0.972,8.083,4.813,9-5.25C530.643,420.894,533.18,426.975,530.248,428.418z"/>
<path fill-rule="evenodd" clip-rule="evenodd" fill="#F4F4F4" stroke="#010101" stroke-linecap="square" stroke-miterlimit="10" d="  M556.498,428.418c5.33-1.269,9.778,5.407,9.75-5.25C557.226,420.552,560.753,426.257,556.498,428.418z"/>
<path fill-rule="evenodd" clip-rule="evenodd" fill="#F4F4F4" stroke="#010101" stroke-linecap="square" stroke-miterlimit="10" d="  M543.748,428.418c3.914-1.32,8.633,5.009,9-5.25C543.682,420.743,546.728,426.657,543.748,428.418z"/>
<path fill-rule="evenodd" clip-rule="evenodd" fill="#F4F4F4" stroke="#010101" stroke-linecap="square" stroke-miterlimit="10" d="  M556.498,438.168C563.713,434.484,567.705,432.446,556.498,438.168L556.498,438.168z"/>
<path fill-rule="evenodd" clip-rule="evenodd" fill="#F4F4F4" stroke="#010101" stroke-linecap="square" stroke-miterlimit="10" d="  M548.998,431.418c-10.879-3.202-19.22-1.358-20.25,9C540.31,442.897,553.568,443.307,548.998,431.418z"/>
<path fill-rule="evenodd" clip-rule="evenodd" fill="#B9B8B9" stroke="#010101" stroke-width="2" stroke-linecap="square" stroke-miterlimit="10" d="  M272.994,450.918c-6.503,3.966-10.801,5.441-12,13.5c112.251,0.5,224.503,1,336.754,1.5c-13.144-35.415-127.751-15-158.512-15  C383.822,450.918,328.408,450.918,272.994,450.918z"/>
<path fill-rule="evenodd" clip-rule="evenodd" fill="#B9B8B9" stroke="#010101" stroke-width="2" stroke-linecap="square" stroke-miterlimit="10" d="  M245.994,483.918c-23.576,11.767-21.26,64.432-25.5,87.75C245.769,578.955,243.268,504.199,245.994,483.918z"/>
<path fill-rule="evenodd" clip-rule="evenodd" fill="#B9B8B9" stroke="#010101" stroke-width="2" stroke-linecap="square" stroke-miterlimit="10" d="  M560.248,483.918c18.956,17.635,1.266,69.495-1.5,93C533.075,558.91,555.643,508.887,560.248,483.918z"/>
<path fill-rule="evenodd" clip-rule="evenodd" fill="#B9B8B9" stroke="#010101" stroke-width="2" stroke-linecap="square" stroke-miterlimit="10" d="  M544.498,561.168c-104.001,0-208.002,0-312.004,0c1.717-9.824,9.353-77.25,15.545-77.25c29.493,0,58.987,0,88.48,0  c73.326,0,146.652,0,219.978,0C552.498,509.668,548.498,535.418,544.498,561.168z"/>
<path fill-rule="evenodd" clip-rule="evenodd" fill="#F4F4F4" stroke="#010101" stroke-linecap="square" stroke-miterlimit="10" d="  M254.994,538.668c2.455-1.068,7.252,6.479,8.25-5.25C255.665,531.514,258.2,536.693,254.994,538.668z"/>
<path fill-rule="evenodd" clip-rule="evenodd" fill="#F4F4F4" stroke="#010101" stroke-linecap="square" stroke-miterlimit="10" d="  M280.494,538.668c5.995,0.162,10.104,6.166,10.5-5.25C282.321,531.018,284.784,536.027,280.494,538.668z"/>
<path fill-rule="evenodd" clip-rule="evenodd" fill="#F4F4F4" stroke="#010101" stroke-linecap="square" stroke-miterlimit="10" d="  M266.994,538.668c5.396-0.525,9.321,6.892,9.75-5.25C268.06,531.029,271.344,535.941,266.994,538.668z"/>
<path fill-rule="evenodd" clip-rule="evenodd" fill="#F4F4F4" stroke="#010101" stroke-linecap="square" stroke-miterlimit="10" d="  M293.994,538.668c5.26,0.507,9.102,6.158,10.5-5.25C295.777,531.164,298.858,536.197,293.994,538.668z"/>
<path fill-rule="evenodd" clip-rule="evenodd" fill="#F4F4F4" stroke="#010101" stroke-linecap="square" stroke-miterlimit="10" d="  M321.744,538.668C332.596,538.225,333.108,532.683,321.744,538.668L321.744,538.668z"/>
<path fill-rule="evenodd" clip-rule="evenodd" fill="#F4F4F4" stroke="#010101" stroke-linecap="square" stroke-miterlimit="10" d="  M308.244,538.668c4.852,0.308,8.138,5.035,10.5-5.25C309.988,531.014,311.891,536.183,308.244,538.668z"/>
<path fill-rule="evenodd" clip-rule="evenodd" fill="#F4F4F4" stroke="#010101" stroke-linecap="square" stroke-miterlimit="10" d="  M335.994,538.668c2.93-1.114,7.055,6.993,8.25-5.25C336.655,531.512,339.183,536.818,335.994,538.668z"/>
<path fill-rule="evenodd" clip-rule="evenodd" fill="#F4F4F4" stroke="#010101" stroke-linecap="square" stroke-miterlimit="10" d="  M361.494,538.668c5.837-0.69,10.288,6.836,10.5-5.25C363.479,531.215,366.198,535.802,361.494,538.668z"/>
<path fill-rule="evenodd" clip-rule="evenodd" fill="#F4F4F4" stroke="#010101" stroke-linecap="square" stroke-miterlimit="10" d="  M347.994,538.668c5.905,0.372,9.545,6.123,10.5-5.25C349.505,530.872,352.376,536.063,347.994,538.668z"/>
<path fill-rule="evenodd" clip-rule="evenodd" fill="#F4F4F4" stroke="#010101" stroke-linecap="square" stroke-miterlimit="10" d="  M375.744,538.668c4.415-0.402,8.379,6.652,9.75-5.25C376.637,530.924,380.122,536.324,375.744,538.668z"/>
<path fill-rule="evenodd" clip-rule="evenodd" fill="#F4F4F4" stroke="#010101" stroke-linecap="square" stroke-miterlimit="10" d="  M389.244,538.668C400.071,540.106,401.198,532.792,389.244,538.668L389.244,538.668z"/>
<path fill-rule="evenodd" clip-rule="evenodd" fill="#F4F4F4" stroke="#010101" stroke-linecap="square" stroke-miterlimit="10" d="  M263.244,528.168C274.158,528.203,274.49,523.388,263.244,528.168L263.244,528.168z"/>
<path fill-rule="evenodd" clip-rule="evenodd" fill="#F4F4F4" stroke="#010101" stroke-linecap="square" stroke-miterlimit="10" d="  M290.994,528.168c2.976-0.916,6.562,6.927,8.25-4.5C292.452,521.918,293.278,527.465,290.994,528.168z"/>
<path fill-rule="evenodd" clip-rule="evenodd" fill="#F4F4F4" stroke="#010101" stroke-linecap="square" stroke-miterlimit="10" d="  M276.744,528.168c3.13-0.989,7.404,6.737,9-4.5C278.971,522.031,279.537,526.867,276.744,528.168z"/>
<path fill-rule="evenodd" clip-rule="evenodd" fill="#F4F4F4" stroke="#010101" stroke-linecap="square" stroke-miterlimit="10" d="  M302.994,528.168c5.458-0.336,9.264,6.54,10.5-4.5C305.147,521.272,307.154,526.323,302.994,528.168z"/>
<path fill-rule="evenodd" clip-rule="evenodd" fill="#F4F4F4" stroke="#010101" stroke-linecap="square" stroke-miterlimit="10" d="  M330.744,528.168c4.663,0.373,8.107,6.007,10.5-4.5C332.977,521.25,334.784,526.391,330.744,528.168z"/>
<path fill-rule="evenodd" clip-rule="evenodd" fill="#F4F4F4" stroke="#010101" stroke-linecap="square" stroke-miterlimit="10" d="  M316.494,528.168c5.946-0.109,9.653,6.813,10.5-4.5C318.986,521.482,321.022,526.228,316.494,528.168z"/>
<path fill-rule="evenodd" clip-rule="evenodd" fill="#F4F4F4" stroke="#010101" stroke-linecap="square" stroke-miterlimit="10" d="  M344.244,528.168C354.975,528.542,355.59,523.593,344.244,528.168L344.244,528.168z"/>
<path fill-rule="evenodd" clip-rule="evenodd" fill="#F4F4F4" stroke="#010101" stroke-linecap="square" stroke-miterlimit="10" d="  M371.994,528.168c3.278-0.8,6.697,6.737,9-4.5C373.412,521.596,374.734,526.985,371.994,528.168z"/>
<path fill-rule="evenodd" clip-rule="evenodd" fill="#F4F4F4" stroke="#010101" stroke-linecap="square" stroke-miterlimit="10" d="  M358.494,528.168c2.976-0.916,6.562,6.927,8.25-4.5C359.952,521.918,360.778,527.465,358.494,528.168z"/>
<path fill-rule="evenodd" clip-rule="evenodd" fill="#F4F4F4" stroke="#010101" stroke-linecap="square" stroke-miterlimit="10" d="  M383.994,528.168c5.508-0.369,9.56,6.698,10.5-4.5C386.505,521.383,387.932,526.501,383.994,528.168z"/>
<path fill-rule="evenodd" clip-rule="evenodd" fill="#F4F4F4" stroke="#010101" stroke-linecap="square" stroke-miterlimit="10" d="  M398.244,528.168c4.803-1.169,8.753,7.54,9.75-4.5C399.888,521.291,402.245,526.374,398.244,528.168z"/>
<path fill-rule="evenodd" clip-rule="evenodd" fill="#F4F4F4" stroke="#010101" stroke-linecap="square" stroke-miterlimit="10" d="  M411.744,528.168c4.199,0.797,5.836,6.979,10.504-3C414.729,520.786,415.018,526.569,411.744,528.168z"/>
<path fill-rule="evenodd" clip-rule="evenodd" fill="#F4F4F4" stroke="#010101" stroke-linecap="square" stroke-miterlimit="10" d="  M261.744,518.418c5.848-0.635,10.065,4.958,10.5-5.25C263.084,510.485,266.042,515.997,261.744,518.418z"/>
<path fill-rule="evenodd" clip-rule="evenodd" fill="#F4F4F4" stroke="#010101" stroke-linecap="square" stroke-miterlimit="10" d="  M289.494,518.418C300.79,516.023,298.701,513.444,289.494,518.418L289.494,518.418z"/>
<path fill-rule="evenodd" clip-rule="evenodd" fill="#F4F4F4" stroke="#010101" stroke-linecap="square" stroke-miterlimit="10" d="  M275.244,518.418c5.04-0.548,9.56,4.979,10.5-5.25C276.788,510.594,279.443,516.434,275.244,518.418z"/>
<path fill-rule="evenodd" clip-rule="evenodd" fill="#F4F4F4" stroke="#010101" stroke-linecap="square" stroke-miterlimit="10" d="  M302.994,518.418c4.312-0.37,7.208,4.193,10.5-3.75C305.01,509.943,306.303,516.702,302.994,518.418z"/>
<path fill-rule="evenodd" clip-rule="evenodd" fill="#F4F4F4" stroke="#010101" stroke-linecap="square" stroke-miterlimit="10" d="  M330.744,518.418c3.273-1.468,7.777,5.179,8.25-5.25C331.192,511.236,333.475,517.194,330.744,518.418z"/>
<path fill-rule="evenodd" clip-rule="evenodd" fill="#F4F4F4" stroke="#010101" stroke-linecap="square" stroke-miterlimit="10" d="  M316.494,518.418C327.834,515.766,326.495,513.858,316.494,518.418L316.494,518.418z"/>
<path fill-rule="evenodd" clip-rule="evenodd" fill="#F4F4F4" stroke="#010101" stroke-linecap="square" stroke-miterlimit="10" d="  M342.744,518.418c5.848-0.635,10.065,4.958,10.5-5.25C344.084,510.485,347.042,515.997,342.744,518.418z"/>
<path fill-rule="evenodd" clip-rule="evenodd" fill="#F4F4F4" stroke="#010101" stroke-linecap="square" stroke-miterlimit="10" d="  M370.494,518.418c4.27-0.46,7.189,4.236,10.5-3.75C372.492,509.961,374.083,516.38,370.494,518.418z"/>
<path fill-rule="evenodd" clip-rule="evenodd" fill="#F4F4F4" stroke="#010101" stroke-linecap="square" stroke-miterlimit="10" d="  M356.244,518.418c5.176-0.58,8.938,4.823,10.5-5.25C358.155,510.958,359.494,516.722,356.244,518.418z"/>
<path fill-rule="evenodd" clip-rule="evenodd" fill="#F4F4F4" stroke="#010101" stroke-linecap="square" stroke-miterlimit="10" d="  M383.994,518.418C396.52,517.403,394.305,513.394,383.994,518.418L383.994,518.418z"/>
<path fill-rule="evenodd" clip-rule="evenodd" fill="#F4F4F4" stroke="#010101" stroke-linecap="square" stroke-miterlimit="10" d="  M398.244,518.418c2.999-1.462,7.993,4.84,8.25-5.25C398.656,511.227,401.062,517.044,398.244,518.418z"/>
<path fill-rule="evenodd" clip-rule="evenodd" fill="#F4F4F4" stroke="#010101" stroke-linecap="square" stroke-miterlimit="10" d="  M410.244,518.418c4.869-0.2,8.853,6.366,9.754-5.25C411.025,510.566,414.484,516.084,410.244,518.418z"/>
<path fill-rule="evenodd" clip-rule="evenodd" fill="#F4F4F4" stroke="#010101" stroke-linecap="square" stroke-miterlimit="10" d="  M261.744,507.918c3.25-0.786,7.444,6.31,8.25-5.25C261.577,500.44,264.273,506.599,261.744,507.918z"/>
<path fill-rule="evenodd" clip-rule="evenodd" fill="#F4F4F4" stroke="#010101" stroke-linecap="square" stroke-miterlimit="10" d="  M287.244,507.918c5.885-0.435,10.314,6.067,10.5-5.25C289.192,500.3,291.866,505.054,287.244,507.918z"/>
<path fill-rule="evenodd" clip-rule="evenodd" fill="#F4F4F4" stroke="#010101" stroke-linecap="square" stroke-miterlimit="10" d="  M273.744,507.918c5.963,0.306,9.737,5.973,10.5-5.25C275.137,500,278.02,505.345,273.744,507.918z"/>
<path fill-rule="evenodd" clip-rule="evenodd" fill="#F4F4F4" stroke="#010101" stroke-linecap="square" stroke-miterlimit="10" d="  M301.494,507.918c4.547-0.215,8.036,6.042,9.75-5.25C302.308,500.077,305.719,505.49,301.494,507.918z"/>
<path fill-rule="evenodd" clip-rule="evenodd" fill="#F4F4F4" stroke="#010101" stroke-linecap="square" stroke-miterlimit="10" d="  M328.494,507.918C340.564,507.41,339.142,501.734,328.494,507.918L328.494,507.918z"/>
<path fill-rule="evenodd" clip-rule="evenodd" fill="#F4F4F4" stroke="#010101" stroke-linecap="square" stroke-miterlimit="10" d="  M314.994,507.918C326.917,507.684,325.773,502.26,314.994,507.918L314.994,507.918z"/>
<path fill-rule="evenodd" clip-rule="evenodd" fill="#F4F4F4" stroke="#010101" stroke-linecap="square" stroke-miterlimit="10" d="  M342.744,507.918c3.25-0.786,7.444,6.31,8.25-5.25C342.577,500.44,345.273,506.599,342.744,507.918z"/>
<path fill-rule="evenodd" clip-rule="evenodd" fill="#F4F4F4" stroke="#010101" stroke-linecap="square" stroke-miterlimit="10" d="  M368.244,507.918c5.812,0.467,9.636,6.193,10.5-5.25C369.99,500.244,373.013,505.448,368.244,507.918z"/>
<path fill-rule="evenodd" clip-rule="evenodd" fill="#F4F4F4" stroke="#010101" stroke-linecap="square" stroke-miterlimit="10" d="  M354.744,507.918c6.075,0.05,10.316,5.714,10.5-5.25C356.45,500.14,358.921,505.278,354.744,507.918z"/>
<path fill-rule="evenodd" clip-rule="evenodd" fill="#F4F4F4" stroke="#010101" stroke-linecap="square" stroke-miterlimit="10" d="  M382.494,507.918c4.958,0.278,8.04,5.499,10.5-5.25C384,500.214,385.928,505.292,382.494,507.918z"/>
<path fill-rule="evenodd" clip-rule="evenodd" fill="#F4F4F4" stroke="#010101" stroke-linecap="square" stroke-miterlimit="10" d="  M395.994,507.918C408.1,507.717,406.625,501.934,395.994,507.918L395.994,507.918z"/>
<path fill-rule="evenodd" clip-rule="evenodd" fill="#F4F4F4" stroke="#010101" stroke-linecap="square" stroke-miterlimit="10" d="  M410.244,509.418C418.344,504.561,419.489,501.653,410.244,509.418L410.244,509.418z"/>
<path fill-rule="evenodd" clip-rule="evenodd" fill="#F4F4F4" stroke="#010101" stroke-linecap="square" stroke-miterlimit="10" d="  M247.494,507.918C259.853,506.681,257.882,502.245,247.494,507.918L247.494,507.918z"/>
<path fill-rule="evenodd" clip-rule="evenodd" fill="#F4F4F4" stroke="#010101" stroke-linecap="square" stroke-miterlimit="10" d="  M350.994,542.418c-8.091,0-64.346,0.377-49.5,8.25C312.091,556.288,354.431,556.241,350.994,542.418z"/>
<path fill-rule="evenodd" clip-rule="evenodd" fill="#F4F4F4" stroke="#010101" stroke-linecap="square" stroke-miterlimit="10" d="  M415.494,538.668c3.316-0.631,7.28,6.195,8.254-5.25C415.555,531.302,418.254,536.906,415.494,538.668z"/>
<path fill-rule="evenodd" clip-rule="evenodd" fill="#F4F4F4" stroke="#010101" stroke-linecap="square" stroke-miterlimit="10" d="  M434.248,533.418c-14.906,0-28.729-5.568-33.004,7.5C415.006,540.918,433.781,547.316,434.248,533.418z"/>
<path fill-rule="evenodd" clip-rule="evenodd" fill="#F4F4F4" stroke="#010101" stroke-linecap="square" stroke-miterlimit="10" d="  M437.248,502.668C404.39,503.796,442.274,520.932,437.248,502.668L437.248,502.668z"/>
<path fill-rule="evenodd" clip-rule="evenodd" fill="#F4F4F4" stroke="#010101" stroke-linecap="square" stroke-miterlimit="10" d="  M437.248,513.168C399.485,507.511,447.374,551.193,437.248,513.168L437.248,513.168z"/>
<path fill-rule="evenodd" clip-rule="evenodd" fill="#F4F4F4" stroke="#010101" stroke-linecap="square" stroke-miterlimit="10" d="  M370.494,543.918c-7.308-0.755-11.972-3.14-14.25,6.75C369.133,552.774,369.867,550.308,370.494,543.918z"/>
<path fill-rule="evenodd" clip-rule="evenodd" fill="#F4F4F4" stroke="#010101" stroke-linecap="square" stroke-miterlimit="10" d="  M392.994,543.918c-9.045,0.412-14.528-3.075-15.75,6.75C388.64,553.26,390.709,550.41,392.994,543.918z"/>
<path fill-rule="evenodd" clip-rule="evenodd" fill="#F4F4F4" stroke="#010101" stroke-linecap="square" stroke-miterlimit="10" d="  M411.744,543.918c-7.476-0.705-11.772-3.184-15.75,5.25C407.301,553.08,410.813,550.999,411.744,543.918z"/>
<path fill-rule="evenodd" clip-rule="evenodd" fill="#F4F4F4" stroke="#010101" stroke-linecap="square" stroke-miterlimit="10" d="  M432.748,543.918c-8.074-1.797-13.559-3.085-15.75,6.75C429.109,552.91,430.915,549.793,432.748,543.918z"/>
<path fill-rule="evenodd" clip-rule="evenodd" fill="#F4F4F4" stroke="#010101" stroke-linecap="square" stroke-miterlimit="10" d="  M259.494,523.668c-8.843,0.394-14.401-3.124-15,6.75C256.4,532.078,259.628,529.796,259.494,523.668z"/>
<path fill-rule="evenodd" clip-rule="evenodd" fill="#F4F4F4" stroke="#010101" stroke-linecap="square" stroke-miterlimit="10" d="  M256.494,542.418C227.227,543.884,254.529,559.681,256.494,542.418L256.494,542.418z"/>
<path fill-rule="evenodd" clip-rule="evenodd" fill="#F4F4F4" stroke="#010101" stroke-linecap="square" stroke-miterlimit="10" d="  M275.244,542.418C250.039,544.263,272.4,558.852,275.244,542.418L275.244,542.418z"/>
<path fill-rule="evenodd" clip-rule="evenodd" fill="#F4F4F4" stroke="#010101" stroke-linecap="square" stroke-miterlimit="10" d="  M293.994,542.418C268.719,545.691,293.94,558.402,293.994,542.418L293.994,542.418z"/>
<path fill-rule="evenodd" clip-rule="evenodd" fill="#F4F4F4" stroke="#010101" stroke-linecap="square" stroke-miterlimit="10" d="  M257.994,513.168c-7.39,1.29-12.438-2.698-12,6.75C257.982,521.857,256.253,517.818,257.994,513.168z"/>
<path fill-rule="evenodd" clip-rule="evenodd" fill="#F4F4F4" stroke="#010101" stroke-linecap="square" stroke-miterlimit="10" d="  M242.244,538.668C253.044,537.837,253.579,532.386,242.244,538.668L242.244,538.668z"/>
<path fill-rule="evenodd" clip-rule="evenodd" fill="#F4F4F4" stroke="#010101" stroke-linecap="square" stroke-miterlimit="10" d="  M276.744,497.418C288.018,495.542,287.288,490.557,276.744,497.418L276.744,497.418z"/>
<path fill-rule="evenodd" clip-rule="evenodd" fill="#F4F4F4" stroke="#010101" stroke-linecap="square" stroke-miterlimit="10" d="  M302.994,497.418C317.093,494.962,313.554,490.174,302.994,497.418L302.994,497.418z"/>
<path fill-rule="evenodd" clip-rule="evenodd" fill="#F4F4F4" stroke="#010101" stroke-linecap="square" stroke-miterlimit="10" d="  M290.994,497.418C299.358,494.317,301.356,490.673,290.994,497.418L290.994,497.418z"/>
<path fill-rule="evenodd" clip-rule="evenodd" fill="#F4F4F4" stroke="#010101" stroke-linecap="square" stroke-miterlimit="10" d="  M316.494,497.418C330.297,495.342,327.927,490.097,316.494,497.418L316.494,497.418z"/>
<path fill-rule="evenodd" clip-rule="evenodd" fill="#F4F4F4" stroke="#010101" stroke-linecap="square" stroke-miterlimit="10" d="  M392.994,497.418C403.779,495.508,403.25,490.619,392.994,497.418L392.994,497.418z"/>
<path fill-rule="evenodd" clip-rule="evenodd" fill="#F4F4F4" stroke="#010101" stroke-linecap="square" stroke-miterlimit="10" d="  M419.998,497.418C430.649,495.014,430.375,489.748,419.998,497.418L419.998,497.418z"/>
<path fill-rule="evenodd" clip-rule="evenodd" fill="#F4F4F4" stroke="#010101" stroke-linecap="square" stroke-miterlimit="10" d="  M406.494,497.418C417.857,496.25,417.038,491.708,406.494,497.418L406.494,497.418z"/>
<path fill-rule="evenodd" clip-rule="evenodd" fill="#F4F4F4" stroke="#010101" stroke-linecap="square" stroke-miterlimit="10" d="  M434.248,497.418C443.044,494.06,443.697,489.966,434.248,497.418L434.248,497.418z"/>
<path fill-rule="evenodd" clip-rule="evenodd" fill="#F4F4F4" stroke="#010101" stroke-linecap="square" stroke-miterlimit="10" d="  M335.994,497.418C344.791,494.06,345.444,489.966,335.994,497.418L335.994,497.418z"/>
<path fill-rule="evenodd" clip-rule="evenodd" fill="#F4F4F4" stroke="#010101" stroke-linecap="square" stroke-miterlimit="10" d="  M361.494,497.418C375.47,494.895,372.75,490.023,361.494,497.418L361.494,497.418z"/>
<path fill-rule="evenodd" clip-rule="evenodd" fill="#F4F4F4" stroke="#010101" stroke-linecap="square" stroke-miterlimit="10" d="  M347.994,497.418C362.029,496.424,358.739,488.833,347.994,497.418L347.994,497.418z"/>
<path fill-rule="evenodd" clip-rule="evenodd" fill="#F4F4F4" stroke="#010101" stroke-linecap="square" stroke-miterlimit="10" d="  M375.744,497.418C388.662,494.893,386.394,491.126,375.744,497.418L375.744,497.418z"/>
<path fill-rule="evenodd" clip-rule="evenodd" fill="#F4F4F4" stroke="#010101" stroke-linecap="square" stroke-miterlimit="10" d="  M249.744,497.418c4.403-1.091,8.273,4.92,9.75-5.25C250.509,489.563,253.989,495.13,249.744,497.418z"/>
<path fill-rule="evenodd" clip-rule="evenodd" fill="#F4F4F4" stroke="#010101" stroke-linecap="square" stroke-miterlimit="10" d="  M447.748,509.418C459.647,505.6,458.394,501.546,447.748,509.418L447.748,509.418z"/>
<path fill-rule="evenodd" clip-rule="evenodd" fill="#F4F4F4" stroke="#010101" stroke-linecap="square" stroke-miterlimit="10" d="  M475.498,509.418C485.131,504.964,485.636,502.647,475.498,509.418L475.498,509.418z"/>
<path fill-rule="evenodd" clip-rule="evenodd" fill="#F4F4F4" stroke="#010101" stroke-linecap="square" stroke-miterlimit="10" d="  M461.998,509.418C470.346,504.437,471.988,501.441,461.998,509.418L461.998,509.418z"/>
<path fill-rule="evenodd" clip-rule="evenodd" fill="#F4F4F4" stroke="#010101" stroke-linecap="square" stroke-miterlimit="10" d="  M451.498,497.418c3.674-1.135,7.788,4.938,8.25-5.25C451.285,489.927,454.158,495.863,451.498,497.418z"/>
<path fill-rule="evenodd" clip-rule="evenodd" fill="#F4F4F4" stroke="#010101" stroke-linecap="square" stroke-miterlimit="10" d="  M476.998,497.418c5.95-1.37,10.741,5.46,10.5-5.25C478.688,489.729,481.8,495.085,476.998,497.418z"/>
<path fill-rule="evenodd" clip-rule="evenodd" fill="#F4F4F4" stroke="#010101" stroke-linecap="square" stroke-miterlimit="10" d="  M463.498,497.418c5.865-0.771,10.332,4.861,10.5-5.25C465.379,489.749,467.664,494.879,463.498,497.418z"/>
<path fill-rule="evenodd" clip-rule="evenodd" fill="#F4F4F4" stroke="#010101" stroke-linecap="square" stroke-miterlimit="10" d="  M446.248,518.418c5.09,0.277,9.049,5.96,10.5-5.25C448.217,510.774,450.364,515.63,446.248,518.418z"/>
<path fill-rule="evenodd" clip-rule="evenodd" fill="#F4F4F4" stroke="#010101" stroke-linecap="square" stroke-miterlimit="10" d="  M473.998,518.418c4.16-0.178,6.896,6.029,10.5-3.75C476.032,509.982,477.598,516.248,473.998,518.418z"/>
<path fill-rule="evenodd" clip-rule="evenodd" fill="#F4F4F4" stroke="#010101" stroke-linecap="square" stroke-miterlimit="10" d="  M459.748,518.418C472.149,518.311,470.232,512.685,459.748,518.418L459.748,518.418z"/>
<path fill-rule="evenodd" clip-rule="evenodd" fill="#F4F4F4" stroke="#010101" stroke-linecap="square" stroke-miterlimit="10" d="  M440.998,549.168C454.688,547.932,452.543,541.074,440.998,549.168L440.998,549.168z"/>
<path fill-rule="evenodd" clip-rule="evenodd" fill="#F4F4F4" stroke="#010101" stroke-linecap="square" stroke-miterlimit="10" d="  M468.748,549.168C479.719,546.9,479.442,542.645,468.748,549.168L468.748,549.168z"/>
<path fill-rule="evenodd" clip-rule="evenodd" fill="#F4F4F4" stroke="#010101" stroke-linecap="square" stroke-miterlimit="10" d="  M454.498,549.168C466.073,548.69,467.409,541.422,454.498,549.168L454.498,549.168z"/>
<path fill-rule="evenodd" clip-rule="evenodd" fill="#F4F4F4" stroke="#010101" stroke-linecap="square" stroke-miterlimit="10" d="  M456.748,538.668c5.904,0.372,9.545,6.123,10.5-5.25C458.259,530.872,461.13,536.063,456.748,538.668z"/>
<path fill-rule="evenodd" clip-rule="evenodd" fill="#F4F4F4" stroke="#010101" stroke-linecap="square" stroke-miterlimit="10" d="  M494.248,509.418C503.956,504.016,504.89,503.497,494.248,509.418L494.248,509.418z"/>
<path fill-rule="evenodd" clip-rule="evenodd" fill="#F4F4F4" stroke="#010101" stroke-linecap="square" stroke-miterlimit="10" d="  M520.498,509.418C533.936,505.687,530.983,501.646,520.498,509.418L520.498,509.418z"/>
<path fill-rule="evenodd" clip-rule="evenodd" fill="#F4F4F4" stroke="#010101" stroke-linecap="square" stroke-miterlimit="10" d="  M508.498,509.418C516.59,504.564,517.741,501.65,508.498,509.418L508.498,509.418z"/>
<path fill-rule="evenodd" clip-rule="evenodd" fill="#F4F4F4" stroke="#010101" stroke-linecap="square" stroke-miterlimit="10" d="  M492.748,518.418C504.846,518.499,503.015,511.791,492.748,518.418L492.748,518.418z"/>
<path fill-rule="evenodd" clip-rule="evenodd" fill="#F4F4F4" stroke="#010101" stroke-linecap="square" stroke-miterlimit="10" d="  M520.498,518.418c3.273-0.772,7.445,6.301,8.25-5.25C519.101,510.492,523.584,516.783,520.498,518.418z"/>
<path fill-rule="evenodd" clip-rule="evenodd" fill="#F4F4F4" stroke="#010101" stroke-linecap="square" stroke-miterlimit="10" d="  M506.998,518.418c2.924-0.822,7.636,5.585,8.25-5.25C507.379,511.219,509.921,516.803,506.998,518.418z"/>
<path fill-rule="evenodd" clip-rule="evenodd" fill="#F4F4F4" stroke="#010101" stroke-linecap="square" stroke-miterlimit="10" d="  M491.248,528.168c3.804-0.114,6.461,5.317,10.5-3C494.062,520.746,494.768,526.533,491.248,528.168z"/>
<path fill-rule="evenodd" clip-rule="evenodd" fill="#F4F4F4" stroke="#010101" stroke-linecap="square" stroke-miterlimit="10" d="  M518.998,528.168c2.945-0.936,6.56,6.939,8.25-4.5C520.236,521.803,520.453,527.707,518.998,528.168z"/>
<path fill-rule="evenodd" clip-rule="evenodd" fill="#F4F4F4" stroke="#010101" stroke-linecap="square" stroke-miterlimit="10" d="  M504.748,528.168c3.213-0.896,7.108,6.534,9-4.5C506.416,521.783,507.657,526.876,504.748,528.168z"/>
<path fill-rule="evenodd" clip-rule="evenodd" fill="#F4F4F4" stroke="#010101" stroke-linecap="square" stroke-miterlimit="10" d="  M489.748,538.668c2.455-1.068,7.252,6.479,8.25-5.25C490.419,531.514,492.953,536.693,489.748,538.668z"/>
<path fill-rule="evenodd" clip-rule="evenodd" fill="#F4F4F4" stroke="#010101" stroke-linecap="square" stroke-miterlimit="10" d="  M515.248,538.668c5.995,0.162,10.104,6.166,10.5-5.25C517.075,531.018,519.537,536.027,515.248,538.668z"/>
<path fill-rule="evenodd" clip-rule="evenodd" fill="#F4F4F4" stroke="#010101" stroke-linecap="square" stroke-miterlimit="10" d="  M503.248,538.668c3.694-0.482,7.102,6.514,8.25-5.25C502.115,530.855,506.479,536.676,503.248,538.668z"/>
<path fill-rule="evenodd" clip-rule="evenodd" fill="#F4F4F4" stroke="#010101" stroke-linecap="square" stroke-miterlimit="10" d="  M515.248,549.168C524.625,544.705,525.548,542.174,515.248,549.168L515.248,549.168z"/>
<path fill-rule="evenodd" clip-rule="evenodd" fill="#F4F4F4" stroke="#010101" stroke-linecap="square" stroke-miterlimit="10" d="  M533.998,509.418C545.762,505.812,544.166,501.86,533.998,509.418L533.998,509.418z"/>
<path fill-rule="evenodd" clip-rule="evenodd" fill="#F4F4F4" stroke="#010101" stroke-linecap="square" stroke-miterlimit="10" d="  M541.498,513.168c-8.82,1.191-11.778,6.413-10.5,17.25C542.048,529.829,544.238,520.771,541.498,513.168z"/>
<path fill-rule="evenodd" clip-rule="evenodd" fill="#F4F4F4" stroke="#010101" stroke-linecap="square" stroke-miterlimit="10" d="  M537.748,533.418c-7.74,2.667-11.604,5.957-10.5,17.25C539.341,550.844,540.755,541.189,537.748,533.418z"/>
<path fill-rule="evenodd" clip-rule="evenodd" fill="#F4F4F4" stroke="#010101" stroke-linecap="square" stroke-miterlimit="10" d="  M508.498,542.418c-10.555-3.119-19.016-1.37-21,8.25C499.438,553.068,510.317,553.372,508.498,542.418z"/>
<path fill-rule="evenodd" clip-rule="evenodd" fill="#B9B8B9" stroke="#010101" stroke-width="2" stroke-linecap="square" stroke-miterlimit="10" d="  M232.494,561.168c-6.798,3.951-10.917,6.259-12,14.25c112.001,0.5,224.003,1,336.004,1.5  c-12.436-36.324-127.703-15.75-158.516-15.75C342.82,561.168,287.657,561.168,232.494,561.168z"/>
</svg>