<svg xmlns="http://www.w3.org/2000/svg" xmlns:xlink="http://www.w3.org/1999/xlink" version="1.1" id="Layer_1" x="0px" y="0px" enable-background="new 0 0 822.05 841.89" xml:space="preserve" viewBox="199.14 261.88 422 321.52">
<path fill-rule="evenodd" clip-rule="evenodd" fill="#BCBEC0" stroke="#000000" stroke-width="2" stroke-linecap="square" stroke-miterlimit="10" d="  M323.885,319.149c1.689,74.53-115.488,74.589-115.5,0C208.373,244.061,326.092,244.184,323.885,319.149z"/>
<path fill-rule="evenodd" clip-rule="evenodd" fill="#FFFFFF" stroke="#000000" stroke-width="2" stroke-linecap="square" stroke-miterlimit="10" d="  M313.385,319.149c-1.401,61.224-94.001,61.367-94.5,0C218.382,257.22,312.361,257.321,313.385,319.149z"/>
<path fill="none" stroke="#000000" stroke-width="2" stroke-linecap="square" stroke-miterlimit="10" d="M284.885,377.649  c-1.364,24.368-34.5,22.428-34.5-1.875C250.385,352.792,284.492,355.346,284.885,377.649z"/>
<path fill="none" stroke="#000000" stroke-width="2" stroke-linecap="square" stroke-miterlimit="10" d="M276.635,404.649  c-1.064,20.217-20.918,20.526-21,0C255.552,383.736,276.107,383.819,276.635,404.649z"/>
<path fill="none" stroke="#000000" stroke-width="2" stroke-linecap="square" stroke-miterlimit="10" d="M271.385,431.649  c-0.088,22.451-13.055,22.37-12.75,0C258.936,409.603,271.447,409.487,271.385,431.649z"/>
<path fill="none" stroke="#000000" stroke-width="2" stroke-linecap="square" stroke-miterlimit="10" d="M270.635,456.399  C261.39,507.745,262.187,403.403,270.635,456.399L270.635,456.399z"/>
<path fill-rule="evenodd" clip-rule="evenodd" fill="#FFF200" stroke="#000000" stroke-width="2" stroke-linecap="square" stroke-miterlimit="10" d="  M264.635,459.399c19.69,39.381,20.504,40.539,64.5,47.25c-31.704,30.966-32.153,32.074-24.75,75.75  c-39.215-20.718-40.285-20.718-79.5,0c7.403-43.676,6.954-44.784-24.75-75.75C244.131,499.938,244.944,498.78,264.635,459.399z"/>
<path fill-rule="evenodd" clip-rule="evenodd" fill="#BCBEC0" stroke="#000000" stroke-width="2" stroke-linecap="square" stroke-miterlimit="10" d="  M470.887,319.149c-5.232,73.659-116.239,75.258-116.252,0C354.622,243.567,466.169,244.812,470.887,319.149z"/>
<path fill-rule="evenodd" clip-rule="evenodd" fill="#FFFFFF" stroke="#000000" stroke-width="2" stroke-linecap="square" stroke-miterlimit="10" d="  M460.387,319.149c-1.358,61.036-94.8,61.421-95.252,0C364.678,257.123,459.317,257.539,460.387,319.149z"/>
<path fill="none" stroke="#000000" stroke-width="2" stroke-linecap="square" stroke-miterlimit="10" d="M431.887,377.649  c-2.666,25.012-39.478,21.13-34.877-1.875C401.405,353.799,430.154,354.499,431.887,377.649z"/>
<path fill="none" stroke="#000000" stroke-width="2" stroke-linecap="square" stroke-miterlimit="10" d="M423.637,404.649  c-2.03,19.652-21.545,20.667-21.752,0C401.674,383.617,421.981,384.31,423.637,404.649z"/>
<path fill="none" stroke="#000000" stroke-width="2" stroke-linecap="square" stroke-miterlimit="10" d="M418.387,431.649  c-0.462,22.294-12.804,22.46-12.752,0C405.687,409.45,417.932,409.569,418.387,431.649z"/>
<path fill="none" stroke="#000000" stroke-width="2" stroke-linecap="square" stroke-miterlimit="10" d="M416.887,456.399  c-1.873,16.746-10.394,18.009-11.252,0C404.736,437.542,415.246,438.842,416.887,456.399z"/>
<path fill-rule="evenodd" clip-rule="evenodd" fill="#EC008C" stroke="#000000" stroke-width="2" stroke-linecap="square" stroke-miterlimit="10" d="  M410.885,459.399c19.691,39.38,20.506,40.539,64.502,47.25c-31.858,31.117-32.161,31.978-24,75.75  c-39.624-20.545-40.842-20.82-80.252,0c7.403-43.676,6.954-44.784-24.75-75.75C390.543,500.025,391.536,499.584,410.885,459.399z"/>
<path fill-rule="evenodd" clip-rule="evenodd" fill="#BCBEC0" stroke="#000000" stroke-width="2" stroke-linecap="square" stroke-miterlimit="10" d="  M615.637,319.149c-4.591,73.917-116.238,74.949-116.25,0C499.374,243.829,611.614,244.642,615.637,319.149z"/>
<path fill-rule="evenodd" clip-rule="evenodd" fill="#FFFFFF" stroke="#000000" stroke-width="2" stroke-linecap="square" stroke-miterlimit="10" d="  M604.387,319.149c2.219,61.304-94.002,61.283-94.5,0C509.384,257.281,606.805,257.218,604.387,319.149z"/>
<path fill="none" stroke="#000000" stroke-width="2" stroke-linecap="square" stroke-miterlimit="10" d="M576.637,377.649  c-2.882,24.454-39.576,21.63-34.875-1.875C546.205,353.556,574.766,354.772,576.637,377.649z"/>
<path fill="none" stroke="#000000" stroke-width="2" stroke-linecap="square" stroke-miterlimit="10" d="M567.637,404.649  c-1.064,20.217-20.918,20.526-21,0C546.554,383.736,567.108,383.819,567.637,404.649z"/>
<path fill="none" stroke="#000000" stroke-width="2" stroke-linecap="square" stroke-miterlimit="10" d="M562.387,431.649  c0.571,22.528-12.803,22.241-12.75,0C549.688,409.639,562.979,409.363,562.387,431.649z"/>
<path fill="none" stroke="#000000" stroke-width="2" stroke-linecap="square" stroke-miterlimit="10" d="M561.637,456.399  c-2.02,16.483-11.203,18.231-12,0C548.814,437.593,559.811,438.889,561.637,456.399z"/>
<path fill-rule="evenodd" clip-rule="evenodd" fill="#0071BC" stroke="#000000" stroke-width="2" stroke-linecap="square" stroke-miterlimit="10" d="  M555.637,459.399c19.69,39.381,20.504,40.539,64.5,47.25c-31.703,30.966-32.152,32.074-24.75,75.75  c-39.215-20.718-40.285-20.718-79.5,0c7.402-43.676,6.953-44.784-24.75-75.75C535.296,500.025,536.288,499.584,555.637,459.399z"/>
</svg>