<svg xmlns="http://www.w3.org/2000/svg" xmlns:xlink="http://www.w3.org/1999/xlink" version="1.1" id="Layer_1" x="0px" y="0px" enable-background="new 0 0 822.05 841.89" xml:space="preserve" viewBox="260.26 250.81 301.33 345.59">
<path fill-rule="evenodd" clip-rule="evenodd" fill="#F1CBA6" stroke="#010101" stroke-width="2" stroke-linecap="square" stroke-miterlimit="10" d="  M365.506,379.14c-1.34-22.184,12.916-45.809,12.75-63.75c-11.229,18.822-14.889,39.275-16.861,60.972  c-1.707,18.781-20.604,34.347-26.639,47.778C349.567,413.68,359.992,393.958,365.506,379.14z"/>
<path fill-rule="evenodd" clip-rule="evenodd" fill="#F1CBA6" stroke="#010101" stroke-width="2" stroke-linecap="square" stroke-miterlimit="10" d="  M496.756,351.39c-16.092-11.952-37.936-26.352-60-27.75c25.713,19.84,69.203,36.122,102.75,45.75c0-1.25,0-2.5,0-3.75  C524.21,364.728,509.801,359.26,496.756,351.39z"/>
<path fill-rule="evenodd" clip-rule="evenodd" fill="#F1CBA6" stroke="#010101" stroke-width="2" stroke-linecap="square" stroke-miterlimit="10" d="  M341.506,415.89C343.732,458.724,296.382,424.809,341.506,415.89L341.506,415.89z"/>
<path fill-rule="evenodd" clip-rule="evenodd" fill="#108140" stroke="#010101" stroke-width="2" stroke-linecap="square" stroke-miterlimit="10" d="  M479.506,334.89c-7.616-6.639-58.936-50.739-65.25-33.375c-8.918,24.524-28.709,23.942-45.75,5.625  c-10.025,12.227-18.422,22.143-17.25,39c2.062,29.646,7.063,6.365,17.25,21c11.98,17.211,6.085,32.042,27.917,26.583  c17.707-4.427,36.261-7.833,53.833-1.833c-3.621-13.916-6.631-27.965-9.75-42C468.665,365.846,462.089,344.648,479.506,334.89z"/>
<path fill-rule="evenodd" clip-rule="evenodd" fill="#F1CBA6" stroke="#010101" stroke-width="2" stroke-linecap="square" stroke-miterlimit="10" d="  M382.006,310.89c-2.455,12.783,3.849,12.878,14.444,17.361c9.781,4.138,17.199-13.547,23.056-21.111  C406.134,289.072,396.22,301.414,382.006,310.89z"/>
<path fill-rule="evenodd" clip-rule="evenodd" fill="#010101" stroke="#010101" stroke-width="2" stroke-linecap="square" stroke-miterlimit="10" d="  M484.006,520.14c-2.543,17.842-5.912,40.622,11.25,51.75C504.229,559.275,512.666,502.229,484.006,520.14z"/>
<path fill-rule="evenodd" clip-rule="evenodd" fill="#F1CBA6" stroke="#010101" stroke-width="2" stroke-linecap="square" stroke-miterlimit="10" d="  M487.006,526.89c-29.249-6.391-58.498-12.781-87.747-19.172c-3.172-0.692,13.103-69.371,14.997-78.328  c-12.806-0.294-19.281,69.663-24,82.5C408.717,513.678,485.09,535.994,487.006,526.89z"/>
<path fill-rule="evenodd" clip-rule="evenodd" fill="#2A286F" stroke="#010101" stroke-width="2" stroke-linecap="square" stroke-miterlimit="10" d="  M393.256,401.64c-1.966,14.976-17.338,73.052-2.625,75.375c28.522,4.504,39.238,7.656,45.402-24.708  c1.743-9.151,14.865-58.305,4.848-61.167C426.335,386.984,404.821,392.626,393.256,401.64z"/>
<path fill-rule="evenodd" clip-rule="evenodd" fill="#010101" stroke="#010101" stroke-width="2" stroke-linecap="square" stroke-miterlimit="10" d="  M424.006,570.39c-9.466,1.014-59.827,8.248-42,22.5C390.709,599.848,453.305,592.338,424.006,570.39z"/>
<path fill-rule="evenodd" clip-rule="evenodd" fill="#F1CBA6" stroke="#010101" stroke-width="2" stroke-linecap="square" stroke-miterlimit="10" d="  M400.006,484.14c14-22.75,28-45.5,42-68.25c-8.187-2.677-48.657,55.858-50.25,69.75c-2.997,26.133,19.97,70.291,25.5,96  C426.556,559.336,405.754,510.008,400.006,484.14z"/>
<path fill-rule="evenodd" clip-rule="evenodd" fill="#2A286F" d="M442.006,391.89c8.418,17.704,24.329,68.962-6.75,78  c-14.374,4.181-43.457-19.61-39.012-30.852C406.122,414.052,419.827,407.416,442.006,391.89z"/>
<path fill="none" stroke="#010101" stroke-width="2" stroke-linecap="square" stroke-miterlimit="10" d="M442.006,391.89  c10.028,21.091,20.344,50.906,0.75,70.5c-9.51,9.51-19.791,3.569-31.5-3.75c-23.667-14.795-18.092-11.812-6.75-40.5"/>
<path fill="none" stroke="#010101" stroke-width="2" stroke-linecap="square" stroke-miterlimit="10" d="M367.006,330.39  c0.805,12.424,3.093,24.845,6.75,36.75"/>
<path fill-rule="evenodd" clip-rule="evenodd" fill="#F1CBA6" stroke="#010101" stroke-width="2" stroke-linecap="square" stroke-miterlimit="10" d="  M531.256,367.14c6.924,3.653,27.938,1.729,29.25-9.75C562.244,342.175,534.602,359.761,531.256,367.14z"/>
<path fill-rule="evenodd" clip-rule="evenodd" fill="#F1CBA6" stroke="#010101" stroke-width="2" stroke-linecap="square" stroke-miterlimit="10" d="  M352.756,291.39c10.572,43.526,69.474,24.83,51.75-24.75C387.733,277.123,372.408,287.287,352.756,291.39z"/>
<path fill-rule="evenodd" clip-rule="evenodd" fill="#2A286F" stroke="#010101" stroke-width="2" stroke-linecap="square" stroke-miterlimit="10" d="  M404.506,260.64c-19.276,19.151-51.943,26.858-78,30.75c5.937-7.454,14.797-12.235,24.75-15  C342.403,248.923,388.444,245.698,404.506,260.64z"/>
<path fill-rule="evenodd" clip-rule="evenodd" fill="#F7931E" stroke="#010101" stroke-width="2" stroke-linecap="square" stroke-miterlimit="10" d="  M329.506,524.64c-2.459,43.148-67.953,43.947-68.25,0C260.956,480.25,328.726,480.713,329.506,524.64z"/>
<path fill-rule="evenodd" clip-rule="evenodd" fill="#ED1C24" stroke="#010101" stroke-width="2" stroke-linecap="square" stroke-miterlimit="10" d="  M445.006,559.89c19.514,36.043-50.537,38.629-66.75,9c-3.421,4.303-9.757,6.672-12.75,11.25c0.851-38.297,1.283-33.771,39-35.25  c-6.319,2.995-10.538,10.516-16.5,14.25C404.545,577.844,427.876,577.592,445.006,559.89z"/>
</svg>