<svg xmlns="http://www.w3.org/2000/svg" xmlns:xlink="http://www.w3.org/1999/xlink" version="1.1" id="Layer_1" x="0px" y="0px" enable-background="new 0 0 822.05 841.89" xml:space="preserve" viewBox="187.74 289.77 443.3 263.75">
<path fill-rule="evenodd" clip-rule="evenodd" fill="#CEEDFC" stroke="#000000" stroke-width="2" stroke-linecap="square" stroke-miterlimit="10" d="  M215.25,297.524c0.75,83,1.5,166,2.25,249c20.058-6.018,85.713-13.414,97.5-29.25c12.183-16.367-0.306-88.318-0.375-108.375  c-0.124-35.89-0.249-71.779-0.373-107.668C314.246,299.291,225.333,297.83,215.25,297.524z"/>
<path fill-rule="evenodd" clip-rule="evenodd" fill="#CEEDFC" stroke="#000000" stroke-width="2" stroke-linecap="square" stroke-miterlimit="10" d="  M215.25,297.524c-41.673,4.161-21.75,97.506-21.75,126.375c0,31.903,0,63.808,0,95.711c0,20.947-1.335,25.983,24,26.914  C216.75,463.524,216,380.524,215.25,297.524z"/>
<path fill-rule="evenodd" clip-rule="evenodd" fill="#DCB496" stroke="#000000" stroke-width="2" stroke-linecap="square" stroke-miterlimit="10" d="  M314.25,425.774c41.015-8.555,98.021-34.406,138.241-19.622c57.92,21.291,115.839,42.581,173.759,63.872  c0.232-21.361,13.177-67.141-11.39-70.816c-48.123-7.2-96.247-14.399-144.37-21.599c-31.763-4.752-57.319-3.081-89.728-0.298  c-20.611,1.771-41.223,3.541-61.834,5.311C308.522,383.516,314.25,416.288,314.25,425.774z"/>
<path fill-rule="evenodd" clip-rule="evenodd" fill="#FED9BE" stroke="#000000" stroke-width="2" stroke-linecap="square" stroke-miterlimit="10" d="  M315,517.274c46.189-16.877,96.85-53.28,142.172-29.595c57.951,30.286,104.362,64.845,169.828,64.845  c-0.269-29.546,13.889-77.119-16.741-88.378c-52.589-19.331-105.179-38.663-157.768-57.994  c-34.415-12.65-77.827,7.02-112.736,14.302c-24.493,5.109-25.54,1.104-25.335,25.978C314.613,470.045,314.807,493.66,315,517.274z"/>
<path fill-rule="evenodd" clip-rule="evenodd" fill="#A6B8C2" stroke="#000000" stroke-width="2" stroke-linecap="square" stroke-miterlimit="10" d="  M474.75,412.274c14.47-9.095,41.361-35.298,58.521-31.757c29.493,6.086,58.985,12.171,88.479,18.257  c-12.686,12.307-50.064,36.394-50.333,54.275c-0.473,31.408-0.944,62.816-1.417,94.225c-30.683-16.412-61.366-32.823-92.049-49.235  C464.109,490.634,474.457,428.515,474.75,412.274z"/>
<path fill="none" stroke="#000000" stroke-width="2" stroke-linecap="square" stroke-miterlimit="10" d="M436.5,369.524  c0,34.764-0.791,69.493-1.5,104.25"/>
<line fill="none" stroke="#000000" stroke-width="2" stroke-linecap="square" stroke-miterlimit="10" x1="360" y1="419.024" x2="360.75" y2="498.524"/>
<path fill-rule="evenodd" clip-rule="evenodd" fill="#63696E" stroke="#000000" stroke-width="2" stroke-linecap="square" stroke-miterlimit="10" d="  M528,415.274C497.693,443.999,500.805,385.479,528,415.274L528,415.274z"/>
<path fill-rule="evenodd" clip-rule="evenodd" fill="#63696E" stroke="#000000" stroke-width="2" stroke-linecap="square" stroke-miterlimit="10" d="  M572.25,428.774C546.023,460.155,548.626,396.53,572.25,428.774L572.25,428.774z"/>
<path fill-rule="evenodd" clip-rule="evenodd" fill="#63696E" stroke="#000000" stroke-width="2" stroke-linecap="square" stroke-miterlimit="10" d="  M591.75,405.524C565.132,426.843,563.137,384.867,591.75,405.524L591.75,405.524z"/>
<path fill-rule="evenodd" clip-rule="evenodd" fill="#63696E" stroke="#000000" stroke-width="2" stroke-linecap="square" stroke-miterlimit="10" d="  M550.5,398.024C525.213,421.248,522.804,375.602,550.5,398.024L550.5,398.024z"/>
<path fill-rule="evenodd" clip-rule="evenodd" fill="#FEE0CA" stroke="#000000" stroke-width="2" stroke-linecap="square" stroke-miterlimit="10" d="  M314.25,370.274c41.417-6.127,92.505-23.381,134.023-17.766c58.575,7.922,117.151,15.844,175.727,23.766c0-28.5,0-57,0-85.5  c-57.28,7.218-114.562,14.437-171.842,21.655c-44.387,5.593-93.573-7.126-137.908-11.905  C314.25,323.774,314.25,347.024,314.25,370.274z"/>
<line fill="none" stroke="#000000" stroke-width="2" stroke-linecap="square" stroke-miterlimit="10" x1="357.75" y1="306.524" x2="357.75" y2="363.524"/>
<line fill="none" stroke="#000000" stroke-width="2" stroke-linecap="square" stroke-miterlimit="10" x1="394.5" y1="310.274" x2="394.5" y2="357.524"/>
<line fill="none" stroke="#000000" stroke-width="2" stroke-linecap="square" stroke-miterlimit="10" x1="439.5" y1="314.024" x2="441" y2="351.524"/>
<line fill="none" stroke="#000000" stroke-width="2" stroke-linecap="square" stroke-miterlimit="10" x1="495.75" y1="307.274" x2="494.25" y2="358.274"/>
<line fill="none" stroke="#000000" stroke-width="2" stroke-linecap="square" stroke-miterlimit="10" x1="565.5" y1="297.524" x2="565.5" y2="369.524"/>
<path fill-rule="evenodd" clip-rule="evenodd" fill="#909DA5" stroke="#000000" stroke-width="2" stroke-linecap="square" stroke-miterlimit="10" d="  M345,335.024C337.729,335.59,339.143,335.48,345,335.024L345,335.024z"/>
<path fill-rule="evenodd" clip-rule="evenodd" fill="#909DA5" stroke="#000000" stroke-width="2" stroke-linecap="square" stroke-miterlimit="10" d="  M375.75,452.024C367.675,458.009,367.299,449.894,375.75,452.024L375.75,452.024z"/>
<path fill-rule="evenodd" clip-rule="evenodd" fill="#909DA5" stroke="#000000" stroke-width="2" stroke-linecap="square" stroke-miterlimit="10" d="  M555,335.024C542.521,344.533,542.146,326.531,555,335.024L555,335.024z"/>
<path fill-rule="evenodd" clip-rule="evenodd" fill="#909DA5" stroke="#000000" stroke-width="2" stroke-linecap="square" stroke-miterlimit="10" d="  M578.25,334.274C568.908,336.481,568.908,332.067,578.25,334.274L578.25,334.274z"/>
<path fill-rule="evenodd" clip-rule="evenodd" fill="#909DA5" stroke="#000000" stroke-width="2" stroke-linecap="square" stroke-miterlimit="10" d="  M451.5,332.774C447.41,332.774,447.41,332.774,451.5,332.774L451.5,332.774z"/>
<path fill-rule="evenodd" clip-rule="evenodd" fill="#909DA5" stroke="#000000" stroke-width="2" stroke-linecap="square" stroke-miterlimit="10" d="  M369.75,335.774C365.13,335.774,365.13,335.774,369.75,335.774L369.75,335.774z"/>
<path fill-rule="evenodd" clip-rule="evenodd" fill="#909DA5" stroke="#000000" stroke-width="2" stroke-linecap="square" stroke-miterlimit="10" d="  M408.75,334.274C400.266,334.274,400.266,334.274,408.75,334.274L408.75,334.274z"/>
<path fill-rule="evenodd" clip-rule="evenodd" fill="#909DA5" stroke="#000000" stroke-width="2" stroke-linecap="square" stroke-miterlimit="10" d="  M446.25,445.274C447.688,445.805,440.279,443.068,446.25,445.274L446.25,445.274z"/>
<path fill-rule="evenodd" clip-rule="evenodd" fill="#909DA5" stroke="#000000" stroke-width="2" stroke-linecap="square" stroke-miterlimit="10" d="  M597,504.524C584.521,514.033,584.146,496.031,597,504.524L597,504.524z"/>
<path fill-rule="evenodd" clip-rule="evenodd" fill="#F0F9FE" stroke="#000000" stroke-width="2" stroke-linecap="square" stroke-miterlimit="10" d="  M484.5,434.774c-0.222,13.497-7.794,42.69,5.721,48.561c22.594,9.813,45.187,19.626,67.779,29.439  c0.795-13.714,10.652-49.124-3.667-54.038C531.056,450.749,507.777,442.761,484.5,434.774z"/>
<line fill="none" stroke="#000000" stroke-width="2" stroke-linecap="square" stroke-miterlimit="10" x1="217.5" y1="391.274" x2="314.25" y2="377.774"/>
<path fill-rule="evenodd" clip-rule="evenodd" fill="#7E96A3" stroke="#000000" stroke-width="2" stroke-linecap="square" stroke-miterlimit="10" d="  M233.25,375.524c-6.03-3.419-6.854-13.392-4.5-23.25c1.5,0,3,0,4.5,0C233.25,359.454,234.91,368.576,233.25,375.524z"/>
<path fill-rule="evenodd" clip-rule="evenodd" fill="#7E96A3" stroke="#000000" stroke-width="2" stroke-linecap="square" stroke-miterlimit="10" d="  M237,425.024C209.936,424.632,248.228,372.017,237,425.024L237,425.024z"/>
</svg>