<svg xmlns="http://www.w3.org/2000/svg" xmlns:xlink="http://www.w3.org/1999/xlink" version="1.1" id="Layer_1" x="0px" y="0px" enable-background="new 0 0 822.05 841.89" xml:space="preserve" viewBox="201.25 252.51 418.25 336.81">
<path fill-rule="evenodd" clip-rule="evenodd" fill="#967A66" stroke="#000000" stroke-width="2" stroke-linecap="square" stroke-miterlimit="10" d="  M481.253,358.39c-5.088,139.659-278.349,139.785-279,0C201.601,218.326,474.923,218.765,481.253,358.39z"/>
<path fill-rule="evenodd" clip-rule="evenodd" fill="#967A66" stroke="#000000" stroke-width="2" stroke-linecap="square" stroke-miterlimit="10" d="  M618.503,465.642c-3.299,163.429-276.537,163.713-276,0C343.038,302.298,615.398,302.534,618.503,465.642z"/>
<path fill-rule="evenodd" clip-rule="evenodd" fill="#B4D670" stroke="#000000" stroke-width="2" stroke-linecap="square" stroke-miterlimit="10" d="  M606.503,465.642c-4.14,147.021-249,147.451-249,0C357.503,318.277,602.364,318.663,606.503,465.642z"/>
<path fill-rule="evenodd" clip-rule="evenodd" fill="#D7E8B5" d="M452.753,423.642c-1.145,11.98-7.1,23.086-18,28.5  c18.268,4.943,43.913,14.152,46.5,35.25c11.376-7.998,26.221-16.141,39-8.25c-11.222-16.805-30.817-43.125-21.75-63.752  C481.471,428.074,459.943,424.899,452.753,423.642z"/>
<path fill="none" stroke="#000000" stroke-width="2" stroke-linecap="square" stroke-miterlimit="10" d="M452.753,423.642  c-1.145,11.98-7.1,23.086-18,28.5c18.268,4.943,43.913,14.152,46.5,35.25c11.376-7.998,26.221-16.141,39-8.25  c-11.222-16.805-30.817-43.125-21.75-63.752c-12.692,9.452-34.028,18.798-44.25,3"/>
<path fill="none" stroke="#000000" stroke-width="2" stroke-linecap="square" stroke-miterlimit="10" d="M511.253,442.392  c10-7.251,20-14.501,30-21.752C533.419,430.933,524.11,440.117,511.253,442.392z"/>
<path fill="none" stroke="#000000" stroke-width="2" stroke-linecap="square" stroke-miterlimit="10" d="M425.753,491.892  c9.75-7.25,19.5-14.5,29.25-21.75C447.492,480.006,437.741,488.442,425.753,491.892z"/>
<path fill="none" stroke="#000000" stroke-width="2" stroke-linecap="square" stroke-miterlimit="10" d="M501.503,423.642  c10-7.25,20-14.501,30-21.752C523.916,411.931,513.922,421.376,501.503,423.642z"/>
<path fill="none" stroke="#000000" stroke-width="2" stroke-linecap="square" stroke-miterlimit="10" d="M404.003,483.642  c9.75-7.25,19.5-14.5,29.25-21.75C425.742,471.756,415.991,480.192,404.003,483.642z"/>
<path fill="none" stroke="#000000" stroke-width="2" stroke-linecap="square" stroke-miterlimit="10" d="M524.753,460.392  c11-5.5,22-11,33-16.5C547.938,452.039,537.668,459.787,524.753,460.392z"/>
<path fill="none" stroke="#000000" stroke-width="2" stroke-linecap="square" stroke-miterlimit="10" d="M439.253,506.142  c8.75-8.75,17.5-17.5,26.25-26.25C459.74,491.218,451.001,501.348,439.253,506.142z"/>
<path fill="none" stroke="#000000" stroke-width="2" stroke-linecap="square" stroke-miterlimit="10" d="M522.503,476.892  c12.25,0.75,24.5,1.5,36.75,2.25C547.145,482.474,533.734,482.572,522.503,476.892z"/>
<path fill="none" stroke="#000000" stroke-width="2" stroke-linecap="square" stroke-miterlimit="10" d="M508.253,487.392  c11,5.5,22,11,33,16.5C528.702,501.944,516.278,497.475,508.253,487.392z"/>
<path fill="none" stroke="#000000" stroke-width="2" stroke-linecap="square" stroke-miterlimit="10" d="M421.253,406.39  c11,6,22,12.001,33,18.002C441.611,421.286,428.874,417.357,421.253,406.39z"/>
<path fill="none" stroke="#000000" stroke-width="2" stroke-linecap="square" stroke-miterlimit="10" d="M407.753,425.892  c11,5.75,22,11.5,33,17.25C428.197,439.57,415.572,436.769,407.753,425.892z"/>
<path fill="none" stroke="#000000" stroke-width="2" stroke-linecap="square" stroke-miterlimit="10" d="M496.253,488.142  c4.5,11.5,9,23,13.5,34.5C502.194,512.513,495.485,500.72,496.253,488.142z"/>
<path fill="none" stroke="#000000" stroke-width="2" stroke-linecap="square" stroke-miterlimit="10" d="M449.753,389.89  c4.5,11.5,9,23.001,13.5,34.502C455.648,414.307,449.336,402.701,449.753,389.89z"/>
<path fill="none" stroke="#000000" stroke-width="2" stroke-linecap="square" stroke-miterlimit="10" d="M482.753,497.892  c2.5,12,5,24,7.5,36C484.115,522.958,479.982,510.165,482.753,497.892z"/>
<path fill="none" stroke="#000000" stroke-width="2" stroke-linecap="square" stroke-miterlimit="10" d="M428.753,449.142  c-10.5,6.5-21,13-31.5,19.5C406.308,459.399,415.727,450.826,428.753,449.142z"/>
<path fill="none" stroke="#000000" stroke-width="2" stroke-linecap="square" stroke-miterlimit="10" d="M472.253,499.392  c-2.5,9.75-5,19.5-7.5,29.25C464.304,517.92,465.772,507.677,472.253,499.392z"/>
<path fill="none" stroke="#000000" stroke-width="2" stroke-linecap="square" stroke-miterlimit="10" d="M499.253,388.39  c-2.5,9.75-5,19.5-7.5,29.25C491.213,406.921,492.683,396.629,499.253,388.39z"/>
<path fill="none" stroke="#000000" stroke-width="2" stroke-linecap="square" stroke-miterlimit="10" d="M472.253,386.14  c2.5,12.25,5,24.501,7.5,36.752C473.681,411.391,468.954,398.729,472.253,386.14z"/>
</svg>