<svg xmlns="http://www.w3.org/2000/svg" xmlns:xlink="http://www.w3.org/1999/xlink" version="1.1" id="Layer_1" x="0px" y="0px" enable-background="new 0 0 822.05 841.89" xml:space="preserve" viewBox="203 288.94 416 263.81">
<path fill-rule="evenodd" clip-rule="evenodd" fill="#967A66" stroke="#000000" stroke-width="2" stroke-linecap="square" stroke-miterlimit="10" d="  M618.005,370.892c-2.717,108.035-215.252,108.255-215.252,0C402.753,262.879,615.293,263.045,618.005,370.892z"/>
<path fill-rule="evenodd" clip-rule="evenodd" fill="#967A66" stroke="#000000" stroke-width="2" stroke-linecap="square" stroke-miterlimit="10" d="  M458.255,373.892c-2.727,108.412-215.265,108.449-215.252,0C243.016,266.055,454.222,266.255,458.255,373.892z"/>
<path fill-rule="evenodd" clip-rule="evenodd" fill="#967A66" stroke="#000000" stroke-width="2" stroke-linecap="square" stroke-miterlimit="10" d="  M419.255,454.142c-2.707,107.816-215.252,107.685-215.252,0C204.003,345.886,416.534,345.773,419.255,454.142z"/>
<path fill-rule="evenodd" clip-rule="evenodd" fill="#967A66" stroke="#000000" stroke-width="2" stroke-linecap="square" stroke-miterlimit="10" d="  M564.755,457.142c-1.87,126.109-213.752,126.18-213.752,0C351.003,331.14,562.888,331.204,564.755,457.142z"/>
<path fill-rule="evenodd" clip-rule="evenodd" fill="#B4D670" stroke="#000000" stroke-width="2" stroke-linecap="square" stroke-miterlimit="10" d="  M555.005,457.142c-4.836,113.395-192.002,113.899-192.002,0S550.169,343.748,555.005,457.142z"/>
<path fill-rule="evenodd" clip-rule="evenodd" fill="#D7E8B5" d="M436.505,424.892c-1.306,9.513-6.209,17.227-14.25,21.75  c15.068,3.547,32.647,10.68,36,27c9.123-7.379,20.296-11.007,30.75-6c-9.258-13.633-23.583-33.011-17.25-49.5  C459.096,427.651,440.555,425.768,436.505,424.892z"/>
<path fill="none" stroke="#000000" stroke-width="2" stroke-linecap="square" stroke-miterlimit="10" d="M436.505,424.892  c-1.306,9.513-6.209,17.227-14.25,21.75c15.068,3.547,32.647,10.68,36,27c9.123-7.379,20.296-11.007,30.75-6  c-9.258-13.633-23.583-33.011-17.25-49.5c-10.725,8.056-25.426,13.594-34.5,2.25"/>
<path fill="none" stroke="#000000" stroke-width="2" stroke-linecap="square" stroke-miterlimit="10" d="M481.505,439.142  c7.75-5.5,15.5-11,23.25-16.5C499.017,431,491.12,436.82,481.505,439.142z"/>
<path fill="none" stroke="#000000" stroke-width="2" stroke-linecap="square" stroke-miterlimit="10" d="M415.505,477.392  c7.5-5.75,15-11.5,22.5-17.25C432.725,468.519,424.983,474.652,415.505,477.392z"/>
<path fill="none" stroke="#000000" stroke-width="2" stroke-linecap="square" stroke-miterlimit="10" d="M474.005,424.892  c7.75-5.75,15.5-11.5,23.25-17.25C491.454,415.816,483.452,422.081,474.005,424.892z"/>
<path fill="none" stroke="#000000" stroke-width="2" stroke-linecap="square" stroke-miterlimit="10" d="M398.253,470.642  c7.75-5.5,15.501-11,23.252-16.5C415.725,462.511,407.889,468.392,398.253,470.642z"/>
<path fill="none" stroke="#000000" stroke-width="2" stroke-linecap="square" stroke-miterlimit="10" d="M492.005,453.392  c8.5-4.5,17-9,25.5-13.5C510.649,447.095,501.77,452.045,492.005,453.392z"/>
<path fill="none" stroke="#000000" stroke-width="2" stroke-linecap="square" stroke-miterlimit="10" d="M426.005,488.642  c6.75-6.75,13.5-13.5,20.25-20.25C441.716,477.329,434.887,484.374,426.005,488.642z"/>
<path fill="none" stroke="#000000" stroke-width="2" stroke-linecap="square" stroke-miterlimit="10" d="M490.505,465.392  c9.5,0.75,19,1.5,28.5,2.25C509.267,470.456,499.065,470.155,490.505,465.392z"/>
<path fill="none" stroke="#000000" stroke-width="2" stroke-linecap="square" stroke-miterlimit="10" d="M479.255,473.642  c8.5,4.25,17,8.5,25.5,12.75C494.64,485.793,485.388,481.417,479.255,473.642z"/>
<path fill="none" stroke="#000000" stroke-width="2" stroke-linecap="square" stroke-miterlimit="10" d="M411.753,411.392  c8.501,4.5,17.001,9,25.502,13.5C427.237,423.372,418.344,418.863,411.753,411.392z"/>
<path fill="none" stroke="#000000" stroke-width="2" stroke-linecap="square" stroke-miterlimit="10" d="M401.253,426.392  c8.5,4.25,17.001,8.5,25.502,12.75C416.938,437.991,407.853,433.664,401.253,426.392z"/>
<path fill="none" stroke="#000000" stroke-width="2" stroke-linecap="square" stroke-miterlimit="10" d="M469.505,474.392  c3.5,8.75,7,17.5,10.5,26.25C473.492,493.167,469.773,484.16,469.505,474.392z"/>
<path fill="none" stroke="#000000" stroke-width="2" stroke-linecap="square" stroke-miterlimit="10" d="M434.255,398.642  c3.5,8.75,7,17.5,10.5,26.25C438.249,417.415,434.251,408.225,434.255,398.642z"/>
<path fill="none" stroke="#000000" stroke-width="2" stroke-linecap="square" stroke-miterlimit="10" d="M459.755,481.892  c2,9.25,4,18.5,6,27.75C460.104,501.171,457.744,491.504,459.755,481.892z"/>
<path fill="none" stroke="#000000" stroke-width="2" stroke-linecap="square" stroke-miterlimit="10" d="M417.755,444.392  c-8,5-16.001,10-24.002,15C400.236,451.762,408.353,446.288,417.755,444.392z"/>
<path fill="none" stroke="#000000" stroke-width="2" stroke-linecap="square" stroke-miterlimit="10" d="M451.505,483.392  c-1.7,7.555-4.005,15.017-6,22.5C444.612,496.802,447.575,490.737,451.505,483.392z"/>
<path fill="none" stroke="#000000" stroke-width="2" stroke-linecap="square" stroke-miterlimit="10" d="M471.755,397.142  c-1.384,7.549-3.506,15.024-5.25,22.5C465.271,410.625,468.052,404.698,471.755,397.142z"/>
<path fill="none" stroke="#000000" stroke-width="2" stroke-linecap="square" stroke-miterlimit="10" d="M450.755,395.642  c2,9.5,4,19,6,28.5C451.421,415.404,449.237,405.603,450.755,395.642z"/>
</svg>