<svg xmlns="http://www.w3.org/2000/svg" xmlns:xlink="http://www.w3.org/1999/xlink" version="1.1" id="Layer_1" x="0px" y="0px" enable-background="new 0 0 822.05 841.89" xml:space="preserve" viewBox="306.2 336.98 208.41 168.66">
<path fill-rule="evenodd" clip-rule="evenodd" fill="#D2D1D2" stroke="#000000" stroke-width="1.25" stroke-linecap="square" stroke-miterlimit="10" d="  M410.03,459.265c-24.874,9.718-1.064,30.586,12.75,36.75c-9.156-32.286-3.788-30.578,20.694-56.5  c9.574-10.138,25.365-33.072,1.806-25.25C433.399,418.209,416.934,449.773,410.03,459.265z"/>
<path fill-rule="evenodd" clip-rule="evenodd" fill="#D2D1D2" stroke="#000000" stroke-width="1.25" stroke-linecap="square" stroke-miterlimit="10" d="  M456.53,399.265c-5.481-12.582-24.425-61.5-42.038-61.5c-45.541,0-56.749-5.181-54.712,42.75c1.105,26,4.594,51.075,5.25,77.25  c0.986,39.37-5.033,23.076-24.75,47.25c11.245-0.762,22.524-1.972,33.75-3.375c14.243-1.78,3.437-12.931,4.125-23.25  c2.523-37.853,7.768-75.295,16.875-112.125c16.127,18.477,36.784,33.645,54.75,49.5c4-2.75,8-5.5,12-8.25  C459.474,404.998,458.089,402.265,456.53,399.265z"/>
<path fill-rule="evenodd" clip-rule="evenodd" fill="#FB0F0C" stroke="#000000" stroke-width="1.5" stroke-linecap="square" stroke-miterlimit="10" d="  M465.53,413.515C439.879,450.61,451.865,371.999,465.53,413.515L465.53,413.515z"/>
<path fill-rule="evenodd" clip-rule="evenodd" fill="#FB0F0C" stroke="#000000" stroke-width="1.5" stroke-linecap="square" stroke-miterlimit="10" d="  M496.28,383.515c10.93-10.929,25.832-16.419,12-28.5c-6.75,7-13.5,14-20.25,21c-2-2.25-4-4.5-6-6.75c-4,11.25-8,22.5-12,33.75  c10.75-4.25,21.5-8.5,32.25-12.75C500.28,388.015,498.28,385.765,496.28,383.515z"/>
<path fill-rule="evenodd" clip-rule="evenodd" fill="#FB0F0C" stroke="#000000" stroke-width="1.5" stroke-linecap="square" stroke-miterlimit="10" d="  M382.28,420.265C357.732,457.393,368.379,379.37,382.28,420.265L382.28,420.265z"/>
<path fill-rule="evenodd" clip-rule="evenodd" fill="#FB0F0C" stroke="#000000" stroke-width="1.5" stroke-linecap="square" stroke-miterlimit="10" d="  M334.28,387.265c-7.75-6-15.5-12-23.25-18c-11.574,14.457,3.891,17.645,16.5,27c-1.75,2.25-3.5,4.5-5.25,6.75  c11.5,2.25,23,4.5,34.5,6.75c-5.75-10-11.5-20-17.25-30C337.78,382.265,336.03,384.765,334.28,387.265z"/>
</svg>