<svg xmlns="http://www.w3.org/2000/svg" xmlns:xlink="http://www.w3.org/1999/xlink" version="1.1" id="Layer_1" x="0px" y="0px" enable-background="new 0 0 822.05 841.89" xml:space="preserve" viewBox="306.45 341.56 209.69 161.3">
<path fill-rule="evenodd" clip-rule="evenodd" fill="#BFBEB2" stroke="#000000" stroke-width="0.5" stroke-linecap="square" stroke-miterlimit="10" d="  M394.707,417.162c1.989,4.455,7.919,10.361,14.25,13.498c1.25-2,2.5-4,3.75-6C406.741,422.174,400.838,419.19,394.707,417.162z"/>
<path fill-rule="evenodd" clip-rule="evenodd" fill="#BFBEB2" stroke="#000000" stroke-linecap="square" stroke-miterlimit="10" d="  M420.957,417.162c-8.715,18.264-20.258,9.493-30-3.75C401.377,404,412.629,405.914,420.957,417.162z"/>
<path fill-rule="evenodd" clip-rule="evenodd" fill="#07721B" stroke="#000000" stroke-linecap="square" stroke-miterlimit="10" d="  M408.957,430.66c4.352-25.593,20.768-8.848,34.583,1.168c12.346,8.95,75.938,40.309,71.917,61.082  C508.082,531.01,422.383,442.406,408.957,430.66z"/>
<path fill-rule="evenodd" clip-rule="evenodd" fill="#BFBEB2" stroke="#000000" stroke-linecap="square" stroke-miterlimit="10" d="  M395.457,415.662c19.333,16.738,96.046,99.67,119.25,79.498c-18.504,22.729-63.224-30.514-78.667-43.75  c-27.662-23.711-56.655-36.326-81.833-58.248c-6.606-5.751-14.261-11.275-21-18c-5.803-5.791-14.057-14.509-18-20.25  c-0.391-0.57-8.54-10.183-8.25-10.5c13.904-15.214,80.384,47.922,99.75,62.25C402.362,408.726,398.892,413.746,395.457,415.662z"/>
<path fill-rule="evenodd" clip-rule="evenodd" fill="#BFBEB2" stroke="#000000" stroke-width="0.5" stroke-linecap="square" stroke-miterlimit="10" d="  M432.207,426.16C423.956,426.048,423.52,426.042,432.207,426.16L432.207,426.16z"/>
<path fill-rule="evenodd" clip-rule="evenodd" fill="#BFBEB2" stroke="#000000" stroke-width="0.5" stroke-linecap="square" stroke-miterlimit="10" d="  M499.707,477.16C490.042,476.994,490.749,477.006,499.707,477.16L499.707,477.16z"/>
</svg>