<svg xmlns="http://www.w3.org/2000/svg" xmlns:xlink="http://www.w3.org/1999/xlink" version="1.1" id="Layer_1" x="0px" y="0px" enable-background="new 0 0 822.05 841.89" xml:space="preserve" viewBox="215.32 254.86 387.47 332.53">
<path fill-rule="evenodd" clip-rule="evenodd" fill="#D1D1D2" stroke="#000000" stroke-width="2" stroke-linecap="square" stroke-miterlimit="10" d="  M301.069,335.14c6.935,30.3,43.581,4.109,62.149-3.58c31.534-13.057,63.068-26.114,94.603-39.17  c-14.321-40.093-46.922-7.283-77.697,6.492C353.664,310.727,327.4,323.01,301.069,335.14z"/>
<path fill-rule="evenodd" clip-rule="evenodd" stroke="#000000" stroke-width="2" stroke-linecap="square" stroke-miterlimit="10" d="  M439.821,257.14c11.328,12.593,36.253,53.439,35.25,72.75C534.365,313.551,486.71,245.74,439.821,257.14z"/>
<path fill-rule="evenodd" clip-rule="evenodd" fill="#ED2224" stroke="#000000" stroke-width="2" stroke-linecap="square" stroke-miterlimit="10" d="  M453.321,289.39c-61.808,28.202-116.223,54.489-192.752,83.25c23.927,33.715,108.844-30.716,137.25-39  c25.225-7.356,47.589-8.771,76.502-3C473.752,316.524,466.068,294.738,453.321,289.39z"/>
<path fill-rule="evenodd" clip-rule="evenodd" fill="#ED2224" stroke="#000000" stroke-width="2" stroke-linecap="square" stroke-miterlimit="10" d="  M439.821,257.14c4.463,5.621,7.016,11.089,6,18c-8.273-0.132-6.583,2.41-15,0c-0.5,2.25-1,4.5-1.5,6.75  c-8.572,1.312-52.486,12.718-57.377,22.5c-3.43,6.861-58.736,26.42-66.375,25.875c-18.469-1.319-26.517,12.396-39,19.125  c-16.254,8.761-49.194,7.301-22.423-6.562C307.363,310.091,374.238,284.77,439.821,257.14z"/>
<path fill-rule="evenodd" clip-rule="evenodd" fill="#FFFFFF" stroke="#000000" stroke-width="2" stroke-linecap="square" stroke-miterlimit="10" d="  M446.571,305.14c-5.131,1.557-10.163,4.399-15,6.75c0,0.5,0,1,0,1.5C461.194,322.118,467.674,294.883,446.571,305.14z"/>
<path fill-rule="evenodd" clip-rule="evenodd" fill="#D1D1D2" stroke="#000000" stroke-width="2" stroke-linecap="square" stroke-miterlimit="10" d="  M232.819,356.14c-16.099,5.707-13.702,29.609-16.5,45c17-7.5,34-15,51-22.5c-2.25-2-4.5-4-6.75-6c4.258-0.903,9.897-4.26,13.5-6.75  c-3.96-6.282-4.863-7.978-7.5-15C254.892,358.607,243.033,362.466,232.819,356.14z"/>
<path fill-rule="evenodd" clip-rule="evenodd" fill="#282827" stroke="#000000" stroke-width="2" stroke-linecap="square" stroke-miterlimit="10" d="  M274.069,339.64c-14.681,10.955-11.029,23.434,5.25,27C316.067,374.69,333.898,319.172,274.069,339.64z"/>
<path fill-rule="evenodd" clip-rule="evenodd" fill="#D1D1D2" stroke="#000000" stroke-width="2" stroke-linecap="square" stroke-miterlimit="10" d="  M330.319,397.39c6.935,30.3,43.581,4.109,62.149-3.58c31.534-13.057,63.068-26.114,94.603-39.17  c-14.321-40.093-46.922-7.283-77.697,6.492C382.914,372.977,356.65,385.26,330.319,397.39z"/>
<path fill-rule="evenodd" clip-rule="evenodd" stroke="#000000" stroke-width="2" stroke-linecap="square" stroke-miterlimit="10" d="  M469.071,319.39c10.883,12.717,36.28,52.916,35.25,72.75C563.325,374.37,515.954,307.992,469.071,319.39z"/>
<path fill-rule="evenodd" clip-rule="evenodd" fill="#ED2224" stroke="#000000" stroke-width="2" stroke-linecap="square" stroke-miterlimit="10" d="  M481.821,351.64c-57.157,34.506-119.857,49.607-192.002,83.25c23.37,32.931,104.636-28.128,131.627-37.125  c27.746-9.249,51.2-11.645,82.125-4.875C502.993,378.559,495.295,356.237,481.821,351.64z"/>
<path fill-rule="evenodd" clip-rule="evenodd" fill="#ED2224" stroke="#000000" stroke-width="2" stroke-linecap="square" stroke-miterlimit="10" d="  M469.071,319.39c4.463,5.621,7.016,11.089,6,18c-8.355-0.145-6.872,2.543-15.75,0c-0.25,2.25-0.5,4.5-0.75,6.75  c-39.072,5.98-82.83,35.398-118.502,48.75c-15.156,5.673-28.883,8.158-43.5,16.5c-7.575,4.323-17.913,16.002-28.125,11.625  c-12.121-5.195-1.721-12.481,4.952-15.937C336.613,372.341,403.488,347.02,469.071,319.39z"/>
<path fill-rule="evenodd" clip-rule="evenodd" fill="#FFFFFF" stroke="#000000" stroke-width="2" stroke-linecap="square" stroke-miterlimit="10" d="  M475.821,367.39c-5.131,1.557-10.163,4.399-15,6.75c0,0.5,0,1,0,1.5C490.444,384.368,496.924,357.133,475.821,367.39z"/>
<path fill-rule="evenodd" clip-rule="evenodd" fill="#D1D1D2" stroke="#000000" stroke-width="2" stroke-linecap="square" stroke-miterlimit="10" d="  M262.069,418.39c-17.029,5.046-13.93,29.295-16.5,45c17-7.5,34-15,51-22.5c-2.25-2-4.5-4-6.75-6c4.265-0.919,9.89-4.255,13.5-6.75  c-4.398-6.967-5.044-7.731-7.5-15C284.208,420.94,272.074,424.719,262.069,418.39z"/>
<path fill-rule="evenodd" clip-rule="evenodd" fill="#282827" stroke="#000000" stroke-width="2" stroke-linecap="square" stroke-miterlimit="10" d="  M303.319,401.89c-14.681,10.955-11.029,23.434,5.25,27C345.772,437.04,362.546,380.07,303.319,401.89z"/>
<path fill-rule="evenodd" clip-rule="evenodd" fill="#D1D1D2" stroke="#000000" stroke-width="2" stroke-linecap="square" stroke-miterlimit="10" d="  M361.069,458.89c6.935,30.3,43.583,4.109,62.151-3.579c31.533-13.058,63.067-26.114,94.601-39.171  c-15.442-39.734-46.662-7.585-77.812,6.492C413.622,434.557,387.369,446.775,361.069,458.89z"/>
<path fill-rule="evenodd" clip-rule="evenodd" stroke="#000000" stroke-width="2" stroke-linecap="square" stroke-miterlimit="10" d="  M499.821,380.14c11.528,19.08,33.714,48.669,35.25,72.75C595.35,440.38,545.503,372.96,499.821,380.14z"/>
<path fill-rule="evenodd" clip-rule="evenodd" fill="#ED2224" stroke="#000000" stroke-width="2" stroke-linecap="square" stroke-miterlimit="10" d="  M512.571,413.14c-60.117,25.836-117.637,54.387-192.002,82.5c22.541,34.847,115.637-32.541,144.752-40.5  c12.656-3.46,25.475-5.075,39.75-4.5c3.285,0.132,26.308,5.263,27.75,3.75C541.145,445.663,521.528,416.196,512.571,413.14z"/>
<path fill-rule="evenodd" clip-rule="evenodd" fill="#ED2224" stroke="#000000" stroke-width="2" stroke-linecap="square" stroke-miterlimit="10" d="  M499.821,380.14c10.974,14.765,3.341,22.482-9.75,18.75c-0.5,2.25-1,4.5-1.5,6.75c-11.77,2.049-117.752,41.138-117.752,46.875  c0-6.049-37.113,13.979-43.5,17.625c-6.842,3.906-18.272,17.488-28.5,12.375c-11.217-5.608-2.207-12.424,4.577-15.937  C366.904,433.69,433.998,408.046,499.821,380.14z"/>
<path fill-rule="evenodd" clip-rule="evenodd" fill="#FFFFFF" stroke="#000000" stroke-width="2" stroke-linecap="square" stroke-miterlimit="10" d="  M506.571,428.14c-5.673,1.768-11.598,4.552-15.75,8.25C518.13,446.96,530.151,419.575,506.571,428.14z"/>
<path fill-rule="evenodd" clip-rule="evenodd" fill="#D1D1D2" stroke="#000000" stroke-width="2" stroke-linecap="square" stroke-miterlimit="10" d="  M292.069,479.89c-16.1,5.679-13.234,29.627-15.75,45c17-7.5,34-15,51-22.5c-2.25-2.25-4.5-4.5-6.75-6.75c4.5-2,9-4,13.5-6  c-6.601-10.105-6.279-3.166-7.5-15.75C314.426,481.768,303.224,486.029,292.069,479.89z"/>
<path fill-rule="evenodd" clip-rule="evenodd" fill="#282827" stroke="#000000" stroke-width="2" stroke-linecap="square" stroke-miterlimit="10" d="  M334.069,463.39c-12.824,9.526-11.557,33.387,8.028,25.944c8.698-3.306,42.004-8.351,33.333-21.75  C362.587,447.736,354.774,455.762,334.069,463.39z"/>
<path fill-rule="evenodd" clip-rule="evenodd" fill="#D1D1D2" stroke="#000000" stroke-width="2" stroke-linecap="square" stroke-miterlimit="10" d="  M400.821,520.39c6.935,30.3,43.581,4.109,62.149-3.579c31.533-13.058,63.067-26.114,94.601-39.171  c-15.442-39.734-46.662-7.585-77.812,6.492C453.373,496.057,427.12,508.275,400.821,520.39z"/>
<path fill-rule="evenodd" clip-rule="evenodd" stroke="#000000" stroke-width="2" stroke-linecap="square" stroke-miterlimit="10" d="  M539.571,442.39c11.59,14.574,34.392,51.476,35.25,72.75C632.857,496.599,585.966,431.133,539.571,442.39z"/>
<path fill-rule="evenodd" clip-rule="evenodd" fill="#ED2224" stroke="#000000" stroke-width="2" stroke-linecap="square" stroke-miterlimit="10" d="  M552.321,474.64c-61,28.418-116.953,55.045-192.002,83.25c11.527,17.568,41.121,11.414,51.752-1.875  c16.793-20.992,67.125-30.966,93-38.625c13.321-3.943,25.433-5.814,39.75-5.25c2.681,0.105,26.159,5.471,27.75,3.75  C580.787,507.002,561.374,477.729,552.321,474.64z"/>
<path fill-rule="evenodd" clip-rule="evenodd" fill="#ED2224" stroke="#000000" stroke-width="2" stroke-linecap="square" stroke-miterlimit="10" d="  M539.571,442.39c4.115,5.58,6.262,11.332,5.25,18c-7.671-0.047-6.872,2.372-15,0c-0.5,2.25-1,4.5-1.5,6.75  c-38.337,6.051-82.702,35.125-118.5,48.75c-14.777,5.625-28.437,8.446-42.752,16.5c-6.793,3.821-18.356,16.696-28.5,11.625  c-11.163-5.582-2.497-12.273,4.577-15.937C406.564,495.237,473.734,469.999,539.571,442.39z"/>
<path fill-rule="evenodd" clip-rule="evenodd" fill="#FFFFFF" stroke="#000000" stroke-width="2" stroke-linecap="square" stroke-miterlimit="10" d="  M545.571,490.39c-5.29,1.631-10.619,4.274-15,7.5C558.792,508.971,569.563,480.47,545.571,490.39z"/>
<path fill-rule="evenodd" clip-rule="evenodd" fill="#D1D1D2" stroke="#000000" stroke-width="2" stroke-linecap="square" stroke-miterlimit="10" d="  M331.819,541.39c-16.099,5.707-13.702,29.609-16.5,45c17.25-7.5,34.5-15,51.75-22.5c-2.25-2-4.5-4-6.75-6  c4.23-0.874,9.939-4.257,13.5-6.75c-4.975-7.446-4.66-5.935-7.5-15C354.299,543.781,342.109,547.881,331.819,541.39z"/>
<path fill-rule="evenodd" clip-rule="evenodd" fill="#282827" stroke="#000000" stroke-width="2" stroke-linecap="square" stroke-miterlimit="10" d="  M373.069,524.89c-13.456,11.552-10.94,23.116,5.25,27C414.273,560.514,434.262,504.494,373.069,524.89z"/>
</svg>