<svg xmlns="http://www.w3.org/2000/svg" xmlns:xlink="http://www.w3.org/1999/xlink" version="1.1" id="Layer_1" x="0px" y="0px" enable-background="new 0 0 822.05 841.89" xml:space="preserve" viewBox="339.3 337.35 139.62 169">
<path fill-rule="evenodd" clip-rule="evenodd" fill="#EEF3F3" stroke="#000000" stroke-linecap="square" stroke-miterlimit="10" d="  M473.611,468.89c-5.25-11.114-7.159-23.992-4.5-36c-27.093-4.754-17.352,17.931-27.75,35.25  C451.865,470.935,462.999,471.189,473.611,468.89z"/>
<path fill-rule="evenodd" clip-rule="evenodd" fill="#EEF3F3" stroke="#000000" stroke-linecap="square" stroke-miterlimit="10" d="  M472.111,432.89C446.014,456.689,443.417,409.907,472.111,432.89L472.111,432.89z"/>
<path fill-rule="evenodd" clip-rule="evenodd" fill="#F77711" stroke="#000000" stroke-linecap="square" stroke-miterlimit="10" d="  M447.361,492.14c19.128,0.407,45.251-6.856,21.75-22.5C449.995,456.916,418.321,488.327,447.361,492.14z"/>
<path fill-rule="evenodd" clip-rule="evenodd" fill="#FBCA11" d="M471.361,467.39c-9.127,2.845-19.373,2.845-28.5,0  C451.988,464.545,462.234,464.545,471.361,467.39z"/>
<line fill="none" stroke="#000000" stroke-linecap="square" stroke-miterlimit="10" x1="378.357" y1="360.89" x2="378.357" y2="360.89"/>
<path fill-rule="evenodd" clip-rule="evenodd" fill="#EEF3F3" stroke="#000000" stroke-linecap="square" stroke-miterlimit="10" d="  M411.359,354.14c0-3.25,0-6.5,0-9.75C367.866,345.378,375.354,357.166,411.359,354.14z"/>
<path fill-rule="evenodd" clip-rule="evenodd" fill="#BF3899" stroke="#000000" stroke-linecap="square" stroke-miterlimit="10" d="  M412.109,479.39c-0.25-41.75-0.5-83.5-0.75-125.25c-39.291,3.301-33.016,3.052-33.279,45.586  c-0.137,22.216-0.274,44.433-0.411,66.648C377.56,484.174,396.43,478.027,412.109,479.39z"/>
<path fill-rule="evenodd" clip-rule="evenodd" fill="#EEF3F3" stroke="#000000" stroke-linecap="square" stroke-miterlimit="10" d="  M373.857,480.14c7.034,2.533,56.131,4.167,38.252-6.75C403.439,468.096,375.024,474.465,373.857,480.14z"/>
<path fill-rule="evenodd" clip-rule="evenodd" fill="#EEF3F3" stroke="#000000" stroke-linecap="square" stroke-miterlimit="10" d="  M418.111,342.89c-13.107,5.966-31.407,5.597-45.004,0.75c0-0.5,0-1,0-1.5C386.238,336.453,405.446,336.149,418.111,342.89z"/>
<path fill-rule="evenodd" clip-rule="evenodd" fill="#ECB1D7" d="M409.859,352.64c-9.74,2.141-20.482,2.293-30.002,0  C389.386,349.726,400.107,349.798,409.859,352.64z"/>
<path fill-rule="evenodd" clip-rule="evenodd" fill="#EEF3F3" stroke="#000000" stroke-linecap="square" stroke-miterlimit="10" d="  M445.111,471.89c-3.591-6.571-12.03-13.59-14.25-20.25c-5.214-15.642,8.716-35.391-15.752-34.5  c0.629,27.229-3.781,35.416-16.502,55.5C414.043,474.131,429.952,475.734,445.111,471.89z"/>
<path fill-rule="evenodd" clip-rule="evenodd" fill="#9BD36C" stroke="#000000" stroke-linecap="square" stroke-miterlimit="10" d="  M421.861,502.64c16.058-1.285,26.343-14.942,23.25-30.75c-16.129,4.089-48.625-7.55-47.254,12  C398.652,495.222,411.986,502.124,421.861,502.64z"/>
<path fill-rule="evenodd" clip-rule="evenodd" fill="#C8E7AB" d="M444.361,471.89c-13.574,4.701-31.43,4.701-45.004,0  C412.692,467.016,431.026,467.015,444.361,471.89z"/>
<path fill-rule="evenodd" clip-rule="evenodd" fill="#EEF3F3" stroke="#000000" stroke-linecap="square" stroke-miterlimit="10" d="  M433.111,417.89C411.24,430.395,411.24,405.385,433.111,417.89L433.111,417.89z"/>
<path fill-rule="evenodd" clip-rule="evenodd" fill="#F5F21F" stroke="#000000" stroke-linecap="square" stroke-miterlimit="10" d="  M346.107,494.39c33.113,28.192,51.412-0.76,51.75-31.5c-12.913,10.535-42.11,11.917-52.5-1.5  C345.357,472.431,344.962,483.447,346.107,494.39z"/>
<path fill-rule="evenodd" clip-rule="evenodd" fill="#EFF1F2" stroke="#000000" stroke-linecap="square" stroke-miterlimit="10" d="  M397.857,462.89c0-9.75,0-19.5,0-29.25c-13.854,0.803-81.645,0.499-49.5,32.25C358.885,476.29,388.154,470.807,397.857,462.89z"/>
<path fill-rule="evenodd" clip-rule="evenodd" fill="#EFF2A5" d="M396.357,462.89c-5.51,4.954-48.639,14.721-48.75,0  C347.497,448.17,390.923,457.854,396.357,462.89z"/>
<path fill-rule="evenodd" clip-rule="evenodd" fill="#EFF1F2" stroke="#000000" stroke-linecap="square" stroke-miterlimit="10" d="  M401.607,434.39c-16.071,8.617-42.649,8.402-59.25,0C357.723,425.549,387.26,425.452,401.607,434.39z"/>
</svg>