<svg xmlns="http://www.w3.org/2000/svg" xmlns:xlink="http://www.w3.org/1999/xlink" version="1.1" id="Layer_1" x="0px" y="0px" enable-background="new 0 0 822.05 841.89" xml:space="preserve" viewBox="211.02 248.13 398.47 347.78">
<path fill-rule="evenodd" clip-rule="evenodd" fill="#BCBEC0" stroke="#000000" stroke-width="2" stroke-linecap="square" stroke-miterlimit="10" d="  M215,444.14c-19.67,54.041,63.556,83.766,90.75,36C275.5,468.14,245.25,456.14,215,444.14z"/>
<path fill-rule="evenodd" clip-rule="evenodd" fill="#BCBEC0" stroke="#000000" stroke-width="2" stroke-linecap="square" stroke-miterlimit="10" d="  M306.5,467.39c32.398-64.309,58.516-146.581,102.75-203.25c19.431-24.893,59.344-19.116,48,19.5c-1.5-0.25-3-0.5-4.5-0.75  c12.536-40.968-31.5-18.182-42.595,2.513c-34.802,64.912-69.603,129.825-104.405,194.737C306,475.89,306.25,471.64,306.5,467.39z"/>
<path fill-rule="evenodd" clip-rule="evenodd" fill="#6D6F71" stroke="#000000" stroke-width="2" stroke-linecap="square" stroke-miterlimit="10" d="  M305,471.89c-18.546,29.388-99.775,0.025-87-33.75C230.767,404.389,308.442,439.615,305,471.89z"/>
<path fill-rule="evenodd" clip-rule="evenodd" fill="#BCBEC0" stroke="#000000" stroke-width="2" stroke-linecap="square" stroke-miterlimit="10" d="  M283.25,486.89c-19.684,55.414,62.092,83.115,90.75,36.75C343.75,511.39,313.5,499.14,283.25,486.89z"/>
<path fill-rule="evenodd" clip-rule="evenodd" fill="#BCBEC0" stroke="#000000" stroke-width="2" stroke-linecap="square" stroke-miterlimit="10" d="  M374,510.14c32.432-63.896,58.691-147.513,103.5-203.25c20.055-24.946,59.086-17.698,48,20.25c-1.75-0.25-3.5-0.5-5.25-0.75  c14.736-40.165-31.081-19.103-42.588,2.513C443.108,393.815,408.554,458.728,374,523.64C374,519.14,374,514.64,374,510.14z"/>
<path fill-rule="evenodd" clip-rule="evenodd" fill="#6D6F71" stroke="#000000" stroke-width="2" stroke-linecap="square" stroke-miterlimit="10" d="  M372.5,515.39c-17.226,29.7-99.818-1.02-87-33.75C298.544,448.334,379.036,481.706,372.5,515.39z"/>
<path fill-rule="evenodd" clip-rule="evenodd" fill="#BCBEC0" stroke="#000000" stroke-width="2" stroke-linecap="square" stroke-miterlimit="10" d="  M364.25,534.89c-19.587,55.143,62.252,82.857,90.75,36.75C424.75,559.39,394.5,547.14,364.25,534.89z"/>
<path fill-rule="evenodd" clip-rule="evenodd" fill="#BCBEC0" stroke="#000000" stroke-width="2" stroke-linecap="square" stroke-miterlimit="10" d="  M455.75,558.14c32.199-63.913,58.173-147.437,102.75-203.25c19.925-24.947,59.285-17.935,48,20.25c-1.5-0.25-3-0.5-4.5-0.75  c12.364-41.861-31.183-18.778-42.598,2.513C524.602,441.816,489.801,506.728,455,571.64C455.25,567.14,455.5,562.64,455.75,558.14z"/>
<path fill-rule="evenodd" clip-rule="evenodd" fill="#6D6F71" stroke="#000000" stroke-width="2" stroke-linecap="square" stroke-miterlimit="10" d="  M453.5,563.39c-17.209,29.672-99.399-1.102-87-33.75C379.163,496.297,461.392,529.481,453.5,563.39z"/>
</svg>