<svg xmlns="http://www.w3.org/2000/svg" xmlns:xlink="http://www.w3.org/1999/xlink" version="1.1" id="Layer_1" x="0px" y="0px" enable-background="new 0 0 822.05 841.89" xml:space="preserve" viewBox="329.84 333.42 161 178.9">
<path fill-rule="evenodd" clip-rule="evenodd" stroke="#000000" stroke-width="1.25" stroke-linecap="square" stroke-miterlimit="10" d="  M361.211,356.265c-3.616-11.229,22.186-29.086,36.75-15c13.084-20.203,60.031,6.251,62.625,27c3.364,26.915-3.47,47.758-28.875,55.5  c-19.742,6.017-57.867,5.568-70.5-6.75C340.912,397.221,359.085,375.695,361.211,356.265z"/>
<path fill-rule="evenodd" clip-rule="evenodd" fill="#EED5B6" stroke="#000000" stroke-width="1.25" stroke-linecap="square" stroke-miterlimit="10" d="  M449.711,441.765c-12.881-2.971-25.611-7.432-28.5-21c-0.063,0.501,1.185,4.534,1.5,4.5c-35.356-0.982-48.963,9.349-40.125,42.375  c6.079,22.716,13.614,39.272,43.875,28.875C457.481,485.857,457.777,465.963,449.711,441.765z"/>
<path fill-rule="evenodd" clip-rule="evenodd" fill="#EED5B6" stroke="#000000" stroke-width="1.25" stroke-linecap="square" stroke-miterlimit="10" d="  M431.711,375.765c-14.837,10.243-48.034,15.886-66,9.75c6.472,19.655,18.646,50.237,44.25,48.75  C435.643,432.773,462.719,373.173,431.711,375.765z"/>
<path fill-rule="evenodd" clip-rule="evenodd" fill="#FF9900" stroke="#000000" stroke-width="1.25" stroke-linecap="square" stroke-miterlimit="10" d="  M358.961,483.015c-0.5,9-1,18-1.5,27c35.75,0,71.5,0,107.25,0c-1-9.75-2-19.5-3-29.25c2.396,23.358,0.014,35.643,28.5,29.25  c-2.58-15.86-1.955-50.854-14.25-63c-22.347-22.076-31.31-2.85-41.25,15.375c-19.726,36.163-55.456,5.686-57-24.375  c-41.038,2.587-43.538,36.848-47.25,72C359.138,510.015,357.37,511.65,358.961,483.015z"/>
<path fill-rule="evenodd" clip-rule="evenodd" fill="#0D0D0D" d="M419.711,398.265C415.025,399.462,416.087,399.191,419.711,398.265  L419.711,398.265z"/>
<path fill="none" stroke="#0D0D0D" stroke-width="0.75" stroke-linecap="square" stroke-miterlimit="10" d="M423.461,398.265  c-3.45-2.023-7.132-2.052-10.498,0"/>
<path fill="none" stroke="#0D0D0D" stroke-linecap="square" stroke-miterlimit="10" d="M412.213,408.015  c-2.842,2.551-6.09,2.819-9.002,0"/>
<path fill-rule="evenodd" clip-rule="evenodd" fill="#0D0D0D" d="M392.711,400.515C398.654,401.572,396.476,401.184,392.711,400.515  L392.711,400.515z"/>
<path fill="none" stroke="#0D0D0D" stroke-width="0.75" stroke-linecap="square" stroke-miterlimit="10" d="M389.711,401.265  c2.835-2.957,6.219-3.505,9.75-1.5"/>
<path fill="none" stroke="#000000" stroke-linecap="square" stroke-miterlimit="10" d="M397.961,420.015  c6.788,3.694,13.868,3.481,20.25-0.75"/>
<path fill="none" stroke="#000000" stroke-width="1.25" stroke-linecap="square" stroke-miterlimit="10" d="M382.211,440.265  c13.585,26.264,41.087,23.814,54-2.25"/>
<path fill-rule="evenodd" clip-rule="evenodd" fill="#E8D41A" stroke="#000000" stroke-width="1.25" stroke-linecap="square" stroke-miterlimit="10" d="  M415.213,467.265C400.632,479.701,400.632,454.83,415.213,467.265L415.213,467.265z"/>
</svg>