<svg xmlns="http://www.w3.org/2000/svg" xmlns:xlink="http://www.w3.org/1999/xlink" version="1.1" id="Layer_1" x="0px" y="0px" enable-background="new 0 0 822.05 841.89" xml:space="preserve" viewBox="329.14 349.23 163.25 144.44">
<path fill-rule="evenodd" clip-rule="evenodd" stroke="#000000" stroke-width="1.25" stroke-linecap="square" stroke-miterlimit="10" d="  M368.761,387.291c-16.487,3.996-19.633,24.697-39,18.75c0.25,1.25,0.5,2.5,0.75,3.75c16.725,3.905,22.134-16.927,36.75-13.5  C367.546,394.017,367.75,389.388,368.761,387.291z"/>
<path fill-rule="evenodd" clip-rule="evenodd" stroke="#000000" stroke-width="1.25" stroke-linecap="square" stroke-miterlimit="10" d="  M363.511,436.041c-20.041,18.595,12.747,43.015-13.5,53.25c0.75,1.25,1.5,2.5,2.25,3.75c9.831-4.849,16.595-13.639,12-25.125  C358.806,454.279,372.833,451.567,363.511,436.041z"/>
<path fill-rule="evenodd" clip-rule="evenodd" stroke="#000000" stroke-width="1.25" stroke-linecap="square" stroke-miterlimit="10" d="  M385.261,371.541c-12.847-2.332-11.424-14.035-24-21c-0.75,1.25-1.5,2.5-2.25,3.75C371.72,358.344,373.845,384.261,385.261,371.541z  "/>
<path fill-rule="evenodd" clip-rule="evenodd" stroke="#000000" stroke-width="1.25" stroke-linecap="square" stroke-miterlimit="10" d="  M452.763,387.291c16.487,3.996,19.633,24.697,39,18.75c-0.25,1.25-0.5,2.5-0.75,3.75c-16.725,3.905-22.134-16.927-36.75-13.5  C453.977,394.017,453.773,389.388,452.763,387.291z"/>
<path fill-rule="evenodd" clip-rule="evenodd" stroke="#000000" stroke-width="1.25" stroke-linecap="square" stroke-miterlimit="10" d="  M458.013,436.041c20.041,18.595-12.747,43.015,13.5,53.25c-0.75,1.25-1.5,2.5-2.25,3.75c-9.831-4.849-16.595-13.639-12-25.125  C462.718,454.279,448.69,451.567,458.013,436.041z"/>
<path fill-rule="evenodd" clip-rule="evenodd" stroke="#000000" stroke-width="1.25" stroke-linecap="square" stroke-miterlimit="10" d="  M436.263,371.541c12.721-2.075,11.847-13.964,24-21c0.75,1.25,1.5,2.5,2.25,3.75C449.804,358.344,447.678,384.261,436.263,371.541z"/>
<path fill-rule="evenodd" clip-rule="evenodd" stroke="#000000" stroke-width="1.25" stroke-linecap="square" stroke-miterlimit="10" d="  M412.261,480.291c-17.398,2.34,2.202-31.878,3.748-45.75C415.892,449.726,415.492,465.448,412.261,480.291z"/>
<path fill-rule="evenodd" clip-rule="evenodd" stroke="#000000" stroke-width="1.25" stroke-linecap="square" stroke-miterlimit="10" d="  M440.763,379.791c-2.443-19.069-24.328-29.471-42.002-22.5c-10.234,4.037-18.95,9.297-16.875,21.75  C385.666,401.72,433.369,385.559,440.763,379.791z"/>
<path fill-rule="evenodd" clip-rule="evenodd" fill="#FB0F0C" stroke="#000000" stroke-width="1.25" stroke-linecap="square" stroke-miterlimit="10" d="  M411.511,484.041c43.027-12.303,59.492-55.275,43.502-95.25c-6.084-15.21-38.704-20.405-38.137,0.586  C417.713,420.342,419.589,453.816,411.511,484.041z"/>
<path fill-rule="evenodd" clip-rule="evenodd" fill="#FB0F0C" stroke="#000000" stroke-width="1.25" stroke-linecap="square" stroke-miterlimit="10" d="  M365.761,388.041c-8.721,21.614-10.112,42.704-0.375,64.125c12.839,28.246,37.689,38.244,47.25,6.375  c5.248-17.493,13.718-67.693-1.125-80.25C399.376,368.025,372.643,375.088,365.761,388.041z"/>
<path fill="none" stroke="#000000" stroke-width="1.25" stroke-linecap="square" stroke-miterlimit="10" d="M417.509,429.291  c-0.75,5.25-1.5,10.5-2.25,15.75C416.009,439.791,416.759,434.541,417.509,429.291z"/>
<path fill-rule="evenodd" clip-rule="evenodd" stroke="#000000" stroke-width="1.25" stroke-linecap="square" stroke-miterlimit="10" d="  M383.011,415.791c11.11-10.084,29.583,1.018,20.25,15C393.744,445.047,375.995,429.662,383.011,415.791z"/>
<path fill-rule="evenodd" clip-rule="evenodd" stroke="#000000" stroke-width="1.25" stroke-linecap="square" stroke-miterlimit="10" d="  M424.263,419.541c11.889-10.206,30.824,1.252,20.25,15.75C434.253,449.358,418.555,432.528,424.263,419.541z"/>
<path fill-rule="evenodd" clip-rule="evenodd" stroke="#000000" stroke-width="1.25" stroke-linecap="square" stroke-miterlimit="10" d="  M384.511,462.291c3.691-9.479-5.894-29.885-18-19.5C356.729,451.182,372.22,469.867,384.511,462.291z"/>
<path fill-rule="evenodd" clip-rule="evenodd" stroke="#000000" stroke-width="1.25" stroke-linecap="square" stroke-miterlimit="10" d="  M379.261,404.541c3.512-10.251-4.261-24.126-13.5-15.75C351.788,401.458,366.657,412.714,379.261,404.541z"/>
<path fill-rule="evenodd" clip-rule="evenodd" stroke="#000000" stroke-width="1.25" stroke-linecap="square" stroke-miterlimit="10" d="  M440.013,388.791c-5.645,10.994,0.168,22.097,13.5,19.875C463.002,407.084,457.281,374.931,440.013,388.791z"/>
<path fill-rule="evenodd" clip-rule="evenodd" stroke="#000000" stroke-width="1.25" stroke-linecap="square" stroke-miterlimit="10" d="  M430.263,455.541C412.432,504.254,476.159,424.58,430.263,455.541L430.263,455.541z"/>
<path fill-rule="evenodd" clip-rule="evenodd" stroke="#000000" stroke-width="1.25" stroke-linecap="square" stroke-miterlimit="10" d="  M402.511,356.541c6.789-10.361,13.25-8.156,18.752,3C415.21,358.572,408.271,358.563,402.511,356.541z"/>
<path fill-rule="evenodd" clip-rule="evenodd" stroke="#000000" stroke-width="1.25" stroke-linecap="square" stroke-miterlimit="10" d="  M416.009,352.791c6.513-0.544,9.83-5.883,17.254,3C424.738,351.088,418.503,352.267,416.009,352.791z"/>
<path fill-rule="evenodd" clip-rule="evenodd" stroke="#000000" stroke-width="1.25" stroke-linecap="square" stroke-miterlimit="10" d="  M406.261,352.041c-6.51-0.345-9.725-6.004-16.5,3C398.169,350.158,403.275,352.133,406.261,352.041z"/>
</svg>