<svg xmlns="http://www.w3.org/2000/svg" xmlns:xlink="http://www.w3.org/1999/xlink" version="1.1" id="Layer_1" x="0px" y="0px" enable-background="new 0 0 822.05 841.89" xml:space="preserve" viewBox="312.74 247.34 195.5 350.95">
<path fill-rule="evenodd" clip-rule="evenodd" fill="#BCBEC0" stroke="#000000" stroke-width="2" stroke-linecap="square" stroke-miterlimit="10" d="  M405.24,265.64c-1.658-5.024-0.518-11.914-0.75-17.25c19.31-2.871,14.854,114.41,15.502,131.763  c1.386,37.102-14.017,131.559,14.5,160.737c-10.251-0.5-20.501-1-30.752-1.5c19.312-29.252,4.603-93.806,4.039-126.513  C406.933,363.798,406.086,314.719,405.24,265.64z"/>
<path fill-rule="evenodd" clip-rule="evenodd" fill="#FFDB78" stroke="#000000" stroke-width="2" stroke-linecap="square" stroke-miterlimit="10" d="  M339.24,279.89c36.161-9.525,71.772-10.623,108.752-6c50.789,6.349,47.967,71.004,59.25,114c-65.175,5.629-128.12,6.343-193.502,1.5  C322.24,352.89,330.74,316.39,339.24,279.89z"/>
<path fill="none" stroke="#000000" stroke-width="2" stroke-linecap="square" stroke-miterlimit="10" d="M318.24,375.14  c59.711,14.336,125.179,10.699,185.252,0.75"/>
<path fill="none" stroke="#000000" stroke-width="2" stroke-linecap="square" stroke-miterlimit="10" d="M337.74,290.39  c45.873-10.501,99.318-16.549,143.252,4.5"/>
<path fill-rule="evenodd" clip-rule="evenodd" fill="#6D6F71" stroke="#000000" stroke-width="2" stroke-linecap="square" stroke-miterlimit="10" d="  M395.49,540.14c1.651,24.767-3.364,32.49,18.75,38.25c30.89,8.046,27.435-17.037,29.252-39.75  C427.491,539.14,411.491,539.64,395.49,540.14z"/>
<path fill-rule="evenodd" clip-rule="evenodd" fill="#FFDB78" stroke="#000000" stroke-width="2" stroke-linecap="square" stroke-miterlimit="10" d="  M432.242,556.64C414.356,582.942,412.781,530.259,432.242,556.64L432.242,556.64z"/>
<path fill-rule="evenodd" clip-rule="evenodd" fill="#6D6F71" stroke="#000000" stroke-width="2" stroke-linecap="square" stroke-miterlimit="10" d="  M394.74,576.14c-11.27-0.734-12.319,7.548-9,18.75c21.823-0.248,76.801,13.383,66.002-21.75  C433.355,579.143,413.683,579.569,394.74,576.14z"/>
</svg>