<svg xmlns="http://www.w3.org/2000/svg" xmlns:xlink="http://www.w3.org/1999/xlink" version="1.1" id="Layer_1" x="0px" y="0px" enable-background="new 0 0 822.05 841.89" xml:space="preserve" viewBox="195.74 247.34 429.5 350.99">
<path fill-rule="evenodd" clip-rule="evenodd" fill="#BCBEC0" stroke="#000000" stroke-width="2" stroke-linecap="square" stroke-miterlimit="10" d="  M288.24,265.64c-1.658-5.023-0.518-11.914-0.75-17.25c19.306-2.869,14.852,114.411,15.5,131.763  c1.386,37.102-14.017,131.559,14.5,160.737c-10.25-0.5-20.5-1-30.75-1.5c19.313-29.252,4.603-93.806,4.039-126.513  C289.933,363.798,289.086,314.719,288.24,265.64z"/>
<path fill-rule="evenodd" clip-rule="evenodd" fill="#FFDB78" stroke="#000000" stroke-width="2" stroke-linecap="square" stroke-miterlimit="10" d="  M222.24,279.89c36.161-9.525,71.771-10.623,108.75-6c50.789,6.349,47.967,71.004,59.25,114c-65.154,5.787-128.147,6.341-193.5,1.5  C205.24,352.89,213.74,316.39,222.24,279.89z"/>
<path fill="none" stroke="#000000" stroke-width="2" stroke-linecap="square" stroke-miterlimit="10" d="M201.24,375.14  c59.71,14.336,125.177,10.698,185.25,0.75"/>
<path fill="none" stroke="#000000" stroke-width="2" stroke-linecap="square" stroke-miterlimit="10" d="M220.74,290.39  c45.873-10.5,99.317-16.549,143.25,4.5"/>
<path fill-rule="evenodd" clip-rule="evenodd" fill="#6D6F71" stroke="#000000" stroke-width="2" stroke-linecap="square" stroke-miterlimit="10" d="  M278.49,540.14c1.651,24.767-3.365,32.49,18.75,38.25c30.889,8.045,27.433-17.037,29.25-39.75  C310.49,539.14,294.49,539.64,278.49,540.14z"/>
<path fill-rule="evenodd" clip-rule="evenodd" fill="#FFDB78" stroke="#000000" stroke-width="2" stroke-linecap="square" stroke-miterlimit="10" d="  M315.24,556.64C297.355,582.943,295.78,530.258,315.24,556.64L315.24,556.64z"/>
<path fill-rule="evenodd" clip-rule="evenodd" fill="#6D6F71" stroke="#000000" stroke-width="2" stroke-linecap="square" stroke-miterlimit="10" d="  M277.74,576.14c-11.27-0.734-12.319,7.548-9,18.75c21.823-0.248,76.799,13.383,66-21.75  C316.354,579.143,296.682,579.569,277.74,576.14z"/>
<path fill-rule="evenodd" clip-rule="evenodd" fill="#BCBEC0" stroke="#000000" stroke-width="2" stroke-linecap="square" stroke-miterlimit="10" d="  M407.49,265.64c-1.658-5.024-0.518-11.914-0.75-17.25c19.31-2.871,14.854,114.41,15.502,131.763  c1.386,37.102-14.017,131.559,14.5,160.737c-10.251-0.5-20.501-1-30.752-1.5c19.312-29.252,4.603-93.806,4.039-126.513  C409.183,363.798,408.336,314.719,407.49,265.64z"/>
<path fill-rule="evenodd" clip-rule="evenodd" fill="#FFDB78" stroke="#000000" stroke-width="2" stroke-linecap="square" stroke-miterlimit="10" d="  M341.49,279.89c36.161-9.525,71.772-10.623,108.752-6c50.789,6.349,47.967,71.004,59.25,114c-65.175,5.629-128.12,6.343-193.502,1.5  C324.49,352.89,332.99,316.39,341.49,279.89z"/>
<path fill="none" stroke="#000000" stroke-width="2" stroke-linecap="square" stroke-miterlimit="10" d="M320.49,375.14  c59.711,14.336,125.179,10.699,185.252,0.75"/>
<path fill="none" stroke="#000000" stroke-width="2" stroke-linecap="square" stroke-miterlimit="10" d="M339.99,290.39  c45.873-10.501,99.318-16.549,143.252,4.5"/>
<path fill-rule="evenodd" clip-rule="evenodd" fill="#6D6F71" stroke="#000000" stroke-width="2" stroke-linecap="square" stroke-miterlimit="10" d="  M397.74,540.14c1.651,24.769-3.364,32.491,18.752,38.25c30.89,8.043,27.433-17.036,29.25-39.75  C429.741,539.14,413.741,539.64,397.74,540.14z"/>
<path fill-rule="evenodd" clip-rule="evenodd" fill="#FFDB78" stroke="#000000" stroke-width="2" stroke-linecap="square" stroke-miterlimit="10" d="  M434.492,556.64C416.607,582.943,415.032,530.258,434.492,556.64L434.492,556.64z"/>
<path fill-rule="evenodd" clip-rule="evenodd" fill="#6D6F71" stroke="#000000" stroke-width="2" stroke-linecap="square" stroke-miterlimit="10" d="  M396.99,576.14c-11.27-0.734-12.319,7.548-9,18.75c21.823-0.248,76.801,13.383,66.002-21.75  C435.605,579.143,415.933,579.569,396.99,576.14z"/>
<path fill-rule="evenodd" clip-rule="evenodd" fill="#BCBEC0" stroke="#000000" stroke-width="2" stroke-linecap="square" stroke-miterlimit="10" d="  M522.242,265.64c-1.657-5.023-0.518-11.914-0.75-17.25c19.307-2.869,14.852,114.411,15.5,131.763  c1.432,38.333-13.715,129.479,13.75,160.737c-10-0.5-20-1-30-1.5c17.816-31.305,4.105-92.41,3.615-126.513  C523.652,363.798,522.947,314.719,522.242,265.64z"/>
<path fill-rule="evenodd" clip-rule="evenodd" fill="#FFDB78" stroke="#000000" stroke-width="2" stroke-linecap="square" stroke-miterlimit="10" d="  M455.492,279.89c36.7-8.906,78.084-13.95,115.5-5.25c43.382,10.088,42.705,74.123,53.25,113.25  c-65.454,5.814-128.632,6.042-194.25,1.5C438.492,352.89,446.992,316.39,455.492,279.89z"/>
<path fill="none" stroke="#000000" stroke-width="2" stroke-linecap="square" stroke-miterlimit="10" d="M435.242,375.14  c59.223,14.219,124.931,11.122,184.5,0.75"/>
<path fill="none" stroke="#000000" stroke-width="2" stroke-linecap="square" stroke-miterlimit="10" d="M453.992,290.39  c45.542-9.739,99.906-17.594,143.25,4.5"/>
<path fill-rule="evenodd" clip-rule="evenodd" fill="#6D6F71" stroke="#000000" stroke-width="2" stroke-linecap="square" stroke-miterlimit="10" d="  M512.492,540.14c1.651,24.767-3.364,32.49,18.75,38.25c30.889,8.045,27.433-17.037,29.25-39.75  C544.492,539.14,528.492,539.64,512.492,540.14z"/>
<path fill-rule="evenodd" clip-rule="evenodd" fill="#FFDB78" stroke="#000000" stroke-width="2" stroke-linecap="square" stroke-miterlimit="10" d="  M548.492,556.64C531.405,583.459,530.466,530.032,548.492,556.64L548.492,556.64z"/>
<path fill-rule="evenodd" clip-rule="evenodd" fill="#6D6F71" stroke="#000000" stroke-width="2" stroke-linecap="square" stroke-miterlimit="10" d="  M511.742,576.14c-11.829-1.102-13.188,7.094-9.75,18.75c21.868-0.246,77.587,13.49,66.75-21.75  C550.449,579.113,530.582,579.729,511.742,576.14z"/>
</svg>