<svg xmlns="http://www.w3.org/2000/svg" xmlns:xlink="http://www.w3.org/1999/xlink" version="1.1" id="Layer_1" x="0px" y="0px" enable-background="new 0 0 822.05 841.89" xml:space="preserve" viewBox="312.04 350.45 197.01 138.41">
<path fill-rule="evenodd" clip-rule="evenodd" fill="#B8B8B8" stroke="#000000" stroke-width="1.25" stroke-linecap="square" stroke-miterlimit="10" d="  M351.663,459.328c16.91,33.522,79.934,33.576,109.5,21.75c7.425-2.97,46.804-21.644,47.25-30.75  c0.694-14.186-60.732-14.629-71.25-23.25c-11.705-9.595-19.416-38.434-27.75-53.25c-16.216-28.829-21.031-24.441-54.75-18  c-32.294,6.169-48.868,2.335-33.25,35.306C331.741,412.937,346.849,436.131,351.663,459.328z"/>
<path fill-rule="evenodd" clip-rule="evenodd" fill="#EFEFEF" stroke="#000000" stroke-width="1.25" stroke-linecap="square" stroke-miterlimit="10" d="  M317.913,370.828c25.395-4.884,50.789-9.767,76.183-14.65c6.627-1.274,30.417,54.902,34.817,63.4  c-13.141,4.911-62.604,32.74-74.25,27.75C341.259,441.583,324.781,385.125,317.913,370.828z"/>
<path fill="none" stroke="#000000" stroke-width="1.25" stroke-linecap="square" stroke-miterlimit="10" d="M312.663,365.578  c12.595,27.288,34.121,61.437,39,88.5c2.716,0.062,11.891,1.494,9,1.5c18.764-7.541,66.549-20.141,72.75-31.5"/>
<path fill="none" stroke="#000000" stroke-width="1.25" stroke-linecap="square" stroke-miterlimit="10" d="M351.663,454.078  c10.851,17.249,54.186,25.194,75.223,33.083c18.834,7.063,63.941-30.083,81.527-39.833"/>
<path fill-rule="evenodd" clip-rule="evenodd" fill="#636263" stroke="#000000" stroke-width="1.25" stroke-linecap="square" stroke-miterlimit="10" d="  M440.913,460.828c8.398-6.744,17.158-7.624,26.25-2.25C458.882,466.224,450.139,467.08,440.913,460.828z"/>
<path fill="none" stroke="#000000" stroke-width="1.25" stroke-linecap="square" stroke-miterlimit="10" d="M405.663,475.828  c23.433-11.282,70.478-46.683,95.25-28.5C470.695,466.084,440.486,492.67,405.663,475.828z"/>
<path fill="none" stroke="#000000" stroke-width="1.25" stroke-linecap="square" stroke-miterlimit="10" d="M370.413,451.078  c2.386-1.909,2.84-7.716,11.25-8.25C382.567,449.411,376.472,448.229,370.413,451.078z"/>
<path fill-rule="evenodd" clip-rule="evenodd" fill="#636263" stroke="#000000" stroke-width="1.25" stroke-linecap="square" stroke-miterlimit="10" d="  M374.163,463.078c41.028-17.584,63.979-33.827,107.25-23.25c-17.298,9.104-35.938,16.831-54.366,25.704  C402.975,477.123,399.622,473.382,374.163,463.078z"/>
<line fill="none" stroke="#000000" stroke-width="1.25" stroke-linecap="square" stroke-miterlimit="10" x1="343.413" y1="456.328" x2="343.413" y2="456.328"/>
<path fill-rule="evenodd" clip-rule="evenodd" fill="#7F7F7F" d="M346.413,439.078L346.413,439.078L346.413,439.078z"/>
<line fill="none" stroke="#000000" stroke-width="1.25" stroke-linecap="square" stroke-miterlimit="10" x1="346.413" y1="439.078" x2="346.413" y2="439.078"/>
</svg>