<svg xmlns="http://www.w3.org/2000/svg" xmlns:xlink="http://www.w3.org/1999/xlink" version="1.1" id="Layer_1" x="0px" y="0px" enable-background="new 0 0 822.05 841.89" xml:space="preserve" viewBox="202.54 248.78 416.75 344.75">
<path fill-rule="evenodd" clip-rule="evenodd" fill="#967A66" stroke="#000000" stroke-width="2" stroke-linecap="square" stroke-miterlimit="10" d="  M207.647,353.284c31.012-24.882,62.024-49.764,93.037-74.646c30.083-24.137,30.526-30.021,66.448-22.316  c83.089,17.821,166.179,35.641,249.268,53.462c-31.14,31.529-62.28,63.059-93.42,94.588c-27.762,28.108-24.911,27.363-62.213,17.287  C376.394,398.867,292.021,376.075,207.647,353.284z"/>
<path fill-rule="evenodd" clip-rule="evenodd" fill="#967A66" stroke="#000000" stroke-width="2" stroke-linecap="square" stroke-miterlimit="10" d="  M207.647,353.284c-6.022,24.869,224.403,74.19,256.314,83.005c41.681,11.513,38.072,8.026,69.224-24.505  c18.39-19.204,92.249-73.528,83.214-102c-31.14,31.529-62.28,63.059-93.42,94.588c-27.762,28.108-24.911,27.363-62.213,17.287  C376.394,398.867,292.021,376.075,207.647,353.284z"/>
<path fill-rule="evenodd" clip-rule="evenodd" fill="#967A66" d="M496.399,431.284l3.75,15L496.399,431.284z"/>
<line fill="none" stroke="#000000" stroke-width="2" stroke-linecap="square" stroke-miterlimit="10" x1="496.399" y1="431.284" x2="500.149" y2="446.284"/>
<path fill-rule="evenodd" clip-rule="evenodd" fill="#967A66" d="M224.147,358.534c29.988-24.696,59.976-49.392,89.964-74.088  c25.571-21.059,24.718-20.427,56.475-13.39c77.438,17.159,154.875,34.319,232.313,51.478  C476.648,334.534,350.398,346.534,224.147,358.534z"/>
<path fill="none" stroke="#000000" stroke-width="2" stroke-linecap="square" stroke-miterlimit="10" d="M224.147,358.534  c29.988-24.696,59.976-49.392,89.964-74.088c25.571-21.059,24.718-20.427,56.475-13.39c77.438,17.159,154.875,34.319,232.313,51.478  "/>
<path fill-rule="evenodd" clip-rule="evenodd" fill="#967A66" d="M336.647,249.784l2.25,14.25L336.647,249.784z"/>
<line fill="none" stroke="#000000" stroke-width="2" stroke-linecap="square" stroke-miterlimit="10" x1="336.647" y1="249.784" x2="338.897" y2="264.034"/>
<path fill-rule="evenodd" clip-rule="evenodd" fill="#967A66" stroke="#000000" stroke-width="2" stroke-linecap="square" stroke-miterlimit="10" d="  M533.899,392.284c8.452-6.353,14.884-5.008,24.75-6.75c6.312-1.115,17.951,8.093,21.829,3.297  c8.974-11.099,17.947-22.198,26.921-33.297C575.207,335.837,555.193,371.384,533.899,392.284z"/>
<path fill-rule="evenodd" clip-rule="evenodd" fill="#FFFFFF" stroke="#000000" stroke-width="2" stroke-linecap="square" stroke-miterlimit="10" d="  M561.649,376.534c15.25,6.791,24.699-3.649,30.75-17.25C577.65,352.736,568.29,363.923,561.649,376.534z"/>
<path fill-rule="evenodd" clip-rule="evenodd" fill="#967A66" stroke="#000000" stroke-width="2" stroke-linecap="square" stroke-miterlimit="10" d="  M287.147,288.034c-10.411-33.344-42.686-5.698-58.5,5.25c12.633-2.022,24.916,3.247,26.25,16.5  C265.647,302.534,276.397,295.284,287.147,288.034z"/>
<path fill-rule="evenodd" clip-rule="evenodd" fill="#FFFFFF" stroke="#000000" stroke-width="2" stroke-linecap="square" stroke-miterlimit="10" d="  M253.397,288.034c7.408-4.364,9.566-9.081,17.25-2.25C262.991,295.389,260.301,292.751,253.397,288.034z"/>
<path fill-rule="evenodd" clip-rule="evenodd" fill="#967A66" stroke="#000000" stroke-width="2" stroke-linecap="square" stroke-miterlimit="10" d="  M209.147,416.284c30.832-24.882,61.664-49.764,92.496-74.646c29.985-24.199,30.341-30.016,66.239-22.316  c83.089,17.821,166.179,35.641,249.268,53.462c-28.849,29.39-57.697,58.779-86.546,88.168  c-28.319,28.852-26.308,36.036-63.406,25.892C381.181,463.324,295.164,439.803,209.147,416.284z"/>
<path fill-rule="evenodd" clip-rule="evenodd" fill="#967A66" stroke="#000000" stroke-width="2" stroke-linecap="square" stroke-miterlimit="10" d="  M209.147,416.284c-7.73,24.181,69.975,32.31,87.534,37.114c56.01,15.328,112.02,30.655,168.031,45.982  c41.603,11.385,38.061,7.959,69.224-24.388c16.896-17.537,94.604-75.563,83.214-102.209c-28.849,29.39-57.697,58.779-86.546,88.168  c-28.319,28.852-26.308,36.036-63.406,25.892C381.181,463.324,295.164,439.803,209.147,416.284z"/>
<path fill-rule="evenodd" clip-rule="evenodd" fill="#967A66" d="M497.149,495.034l3.75,14.25L497.149,495.034z"/>
<line fill="none" stroke="#000000" stroke-width="2" stroke-linecap="square" stroke-miterlimit="10" x1="497.149" y1="495.034" x2="500.899" y2="509.284"/>
<path fill-rule="evenodd" clip-rule="evenodd" fill="#967A66" d="M224.897,421.534c29.988-24.5,59.976-49,89.964-73.5  c25.582-20.9,24.79-20.249,56.475-13.228c77.438,17.159,154.875,34.319,232.313,51.478  C477.398,398.034,351.148,409.784,224.897,421.534z"/>
<path fill="none" stroke="#000000" stroke-width="2" stroke-linecap="square" stroke-miterlimit="10" d="M224.897,421.534  c29.988-24.5,59.976-49,89.964-73.5c25.582-20.9,24.79-20.249,56.475-13.228c77.438,17.159,154.875,34.319,232.313,51.478"/>
<path fill-rule="evenodd" clip-rule="evenodd" fill="#967A66" d="M337.397,312.784l2.25,15L337.397,312.784z"/>
<line fill="none" stroke="#000000" stroke-width="2" stroke-linecap="square" stroke-miterlimit="10" x1="337.397" y1="312.784" x2="339.647" y2="327.784"/>
<path fill-rule="evenodd" clip-rule="evenodd" fill="#967A66" stroke="#000000" stroke-width="2" stroke-linecap="square" stroke-miterlimit="10" d="  M534.649,455.284c8.724-6.385,18.796-8.238,29.25-5.625c24.364,6.091,28.517-10.915,44.25-30.375  C576.961,397.361,555.148,435.164,534.649,455.284z"/>
<path fill-rule="evenodd" clip-rule="evenodd" fill="#FFFFFF" stroke="#000000" stroke-width="2" stroke-linecap="square" stroke-miterlimit="10" d="  M562.399,439.534c15.25,6.791,24.699-3.649,30.75-17.25C578.628,416.751,569.168,427.365,562.399,439.534z"/>
<path fill-rule="evenodd" clip-rule="evenodd" fill="#967A66" stroke="#000000" stroke-width="2" stroke-linecap="square" stroke-miterlimit="10" d="  M287.897,351.784c-8.883-34.126-43.042-5.805-58.5,4.5c12.54-1.838,24.771,3.383,26.25,16.5  C266.397,365.784,277.147,358.784,287.897,351.784z"/>
<path fill-rule="evenodd" clip-rule="evenodd" fill="#FFFFFF" stroke="#000000" stroke-width="2" stroke-linecap="square" stroke-miterlimit="10" d="  M254.147,351.784c7.175-4.404,9.411-8.789,17.25-3C263.732,359.077,261.598,354.217,254.147,351.784z"/>
<path fill-rule="evenodd" clip-rule="evenodd" fill="#967A66" stroke="#000000" stroke-width="2" stroke-linecap="square" stroke-miterlimit="10" d="  M203.897,499.534c30.832-24.882,61.664-49.764,92.496-74.646c29.985-24.199,30.341-30.016,66.239-22.316  c83.089,17.821,166.179,35.642,249.268,53.462c-28.849,29.39-57.697,58.779-86.546,88.168  c-28.319,28.852-26.308,36.036-63.406,25.892C375.931,546.574,289.914,523.053,203.897,499.534z"/>
<path fill-rule="evenodd" clip-rule="evenodd" fill="#967A66" stroke="#000000" stroke-width="2" stroke-linecap="square" stroke-miterlimit="10" d="  M203.897,499.534c-6.246,24.469,70.49,32.245,88.284,37.114c56.01,15.328,112.02,30.655,168.031,45.982  c41.603,11.385,38.061,7.959,69.224-24.388c16.485-17.111,95.342-76.538,82.464-102.209c-28.849,29.39-57.697,58.779-86.546,88.168  c-28.319,28.852-26.308,36.036-63.406,25.892C375.931,546.574,289.914,523.053,203.897,499.534z"/>
<path fill-rule="evenodd" clip-rule="evenodd" fill="#967A66" d="M491.899,578.284l4.5,14.25L491.899,578.284z"/>
<line fill="none" stroke="#000000" stroke-width="2" stroke-linecap="square" stroke-miterlimit="10" x1="491.899" y1="578.284" x2="496.399" y2="592.534"/>
<path fill-rule="evenodd" clip-rule="evenodd" fill="#967A66" d="M220.397,504.784c29.792-24.5,59.584-49,89.376-73.5  c25.498-20.968,24.703-20.232,56.403-13.228c77.658,17.16,155.316,34.319,232.973,51.478  C472.898,481.284,346.648,493.034,220.397,504.784z"/>
<path fill="none" stroke="#000000" stroke-width="2" stroke-linecap="square" stroke-miterlimit="10" d="M220.397,504.784  c29.792-24.5,59.584-49,89.376-73.5c25.498-20.968,24.703-20.232,56.403-13.228c77.658,17.16,155.316,34.319,232.973,51.478"/>
<path fill-rule="evenodd" clip-rule="evenodd" fill="#967A66" d="M332.147,396.034l2.25,15L332.147,396.034z"/>
<line fill="none" stroke="#000000" stroke-width="2" stroke-linecap="square" stroke-miterlimit="10" x1="332.147" y1="396.034" x2="334.397" y2="411.034"/>
<path fill-rule="evenodd" clip-rule="evenodd" fill="#967A66" stroke="#000000" stroke-width="2" stroke-linecap="square" stroke-miterlimit="10" d="  M529.399,538.534c9.174-6.539,18.635-7.69,29.625-6c25.271,3.888,26.781-8.286,43.875-30  C572.689,479.748,548.913,519.381,529.399,538.534z"/>
<path fill-rule="evenodd" clip-rule="evenodd" fill="#FFFFFF" stroke="#000000" stroke-width="2" stroke-linecap="square" stroke-miterlimit="10" d="  M557.899,522.784c15.206,6.827,24.367-3.52,30-17.25C573.914,501.731,564.173,509.667,557.899,522.784z"/>
<path fill-rule="evenodd" clip-rule="evenodd" fill="#967A66" stroke="#000000" stroke-width="2" stroke-linecap="square" stroke-miterlimit="10" d="  M282.647,435.034c-7.198-34.287-43.901-4.989-58.5,4.5c12.517-1.825,24.771,3.38,26.25,16.5  C261.147,449.034,271.897,442.034,282.647,435.034z"/>
<path fill-rule="evenodd" clip-rule="evenodd" fill="#FFFFFF" stroke="#000000" stroke-width="2" stroke-linecap="square" stroke-miterlimit="10" d="  M248.897,435.034c7.175-4.403,9.411-8.789,17.25-3C258.482,442.327,256.348,437.466,248.897,435.034z"/>
</svg>