<svg xmlns="http://www.w3.org/2000/svg" xmlns:xlink="http://www.w3.org/1999/xlink" version="1.1" id="Layer_1" x="0px" y="0px" enable-background="new 0 0 822.05 841.89" xml:space="preserve" viewBox="315.89 334.26 190.25 174.92">
<path fill-rule="evenodd" clip-rule="evenodd" stroke="#000000" stroke-width="1.25" stroke-linecap="square" stroke-miterlimit="10" d="  M382.51,502.39c-8.021-0.096-11.801-3.337-17.25,3.75C376.495,509.316,381.547,507.988,382.51,502.39z"/>
<path fill-rule="evenodd" clip-rule="evenodd" stroke="#000000" stroke-width="1.25" stroke-linecap="square" stroke-miterlimit="10" d="  M377.26,470.14c0.903,10.1,1.166,24.656,4.5,33C381.223,491.873,382.133,477.134,377.26,470.14z"/>
<path fill-rule="evenodd" clip-rule="evenodd" stroke="#000000" stroke-width="1.25" stroke-linecap="square" stroke-miterlimit="10" d="  M375.01,502.39c-8.293,0.079-12.757-2.943-17.25,4.5C369.504,510.191,372.478,506.593,375.01,502.39z"/>
<path fill-rule="evenodd" clip-rule="evenodd" stroke="#000000" stroke-width="1.25" stroke-linecap="square" stroke-miterlimit="10" d="  M369.01,470.89c1.07,10.715,1.833,21.481,2.25,32.25c5.722-9.924-2.396-28.478,8.25-41.25  C374.236,463.083,372.791,466.462,369.01,470.89z"/>
<path fill-rule="evenodd" clip-rule="evenodd" fill="#D2D1D2" stroke="#000000" stroke-width="1.25" stroke-linecap="square" stroke-miterlimit="10" d="  M384.01,444.64C387.557,363.719,336.866,460.719,384.01,444.64L384.01,444.64z M362.26,470.89c5.326,1.646,12.383,0.516,18,0.75  c-0.25-4.75-0.5-9.5-0.75-14.25c0.25,4.75,0.5,9.5,0.75,14.25c1.5,0,3,0,4.5,0c1.463-7.269,0.45-18.908-0.75-26.25  c-5.125-1.456-17.174-0.984-22.5,0.75C361.652,454.145,360.64,463.098,362.26,470.89z"/>
<path fill-rule="evenodd" clip-rule="evenodd" fill="#D2D1D2" stroke="#000000" stroke-width="1.25" stroke-linecap="square" stroke-miterlimit="10" d="  M365.26,395.14c-0.159,17.308,16.396,16.797,21,0.75C379.009,396.856,372.188,394.529,365.26,395.14z"/>
<path fill-rule="evenodd" clip-rule="evenodd" fill="#D2D1D2" stroke="#000000" stroke-width="1.25" stroke-linecap="square" stroke-miterlimit="10" d="  M387.01,394.39c-10.334,1.405-21.279,0.301-30.75-3.75C367.558,387.514,379.808,380.155,387.01,394.39z"/>
<path fill-rule="evenodd" clip-rule="evenodd" fill="#D2D1D2" d="M384.01,449.89c-2.893,5.004-1.153,8.953-9,10.5  C378.01,456.89,381.01,453.39,384.01,449.89z"/>
<path fill="none" stroke="#000000" stroke-width="1.25" stroke-linecap="square" stroke-miterlimit="10" d="M384.01,449.89  c-0.059,5.67-3.318,9.38-9,10.5"/>
<path fill="none" stroke="#000000" stroke-width="1.25" stroke-linecap="square" stroke-miterlimit="10" d="M375.01,449.89  c-4.298,1.514-8.473,0.827-11.25-2.25"/>
<path fill-rule="evenodd" clip-rule="evenodd" stroke="#000000" stroke-width="1.25" stroke-linecap="square" stroke-miterlimit="10" d="  M377.26,440.14c-2.11-7.966-4.347-14.681-2.25-21.75c4.524,12.482,7.343,25.833-7.5,30.75  C370.568,445.867,373.968,443.14,377.26,440.14z"/>
<path fill-rule="evenodd" clip-rule="evenodd" fill="#D2D1D2" stroke="#000000" stroke-width="1.25" stroke-linecap="square" stroke-miterlimit="10" d="  M372.01,431.14C358.935,392.607,398.303,427.016,372.01,431.14L372.01,431.14z"/>
<path fill-rule="evenodd" clip-rule="evenodd" stroke="#000000" stroke-width="1.25" stroke-linecap="square" stroke-miterlimit="10" d="  M422.26,502.39c-7.974-0.117-12.075-3.188-17.25,3.75C416.862,509.973,419.715,505.845,422.26,502.39z"/>
<path fill-rule="evenodd" clip-rule="evenodd" stroke="#000000" stroke-width="1.25" stroke-linecap="square" stroke-miterlimit="10" d="  M416.26,470.14c1.13,11.306,0.826,25.15,5.25,33C420.938,491.125,422.657,476.715,416.26,470.14z"/>
<path fill-rule="evenodd" clip-rule="evenodd" stroke="#000000" stroke-width="1.25" stroke-linecap="square" stroke-miterlimit="10" d="  M414.76,502.39c-8.277-0.402-12.946-2.599-18,4.5C408.116,510.405,411.622,506.626,414.76,502.39z"/>
<path fill-rule="evenodd" clip-rule="evenodd" stroke="#000000" stroke-width="1.25" stroke-linecap="square" stroke-miterlimit="10" d="  M408.76,470.89c0.874,9.771,2.075,21.714,2.25,32.25c4.287-11.5-3.485-28.869,8.25-41.25  C412.826,462.332,412.698,466.094,408.76,470.89z"/>
<path fill-rule="evenodd" clip-rule="evenodd" fill="#D2D1D2" stroke="#000000" stroke-width="1.25" stroke-linecap="square" stroke-miterlimit="10" d="  M423.762,444.64C427.236,365.373,375.201,458.764,423.762,444.64L423.762,444.64z M402.01,470.89  c5.098,1.591,11.87,0.516,17.25,0.75c0-4.75,0-9.5,0-14.25c0,4.75,0,9.5,0,14.25c1.501,0,3.001,0,4.502,0  c1.68-7.2,0.992-18.896,0-26.25c-5.181-1.511-17.188-0.985-22.502,0.75C401.394,453.683,399.559,463.922,402.01,470.89z"/>
<path fill-rule="evenodd" clip-rule="evenodd" fill="#D2D1D2" stroke="#000000" stroke-width="1.25" stroke-linecap="square" stroke-miterlimit="10" d="  M405.01,395.14c-0.558,17.618,16.262,16.521,21.002,0.75C418.71,396.876,411.967,394.56,405.01,395.14z"/>
<path fill-rule="evenodd" clip-rule="evenodd" fill="#D2D1D2" stroke="#000000" stroke-width="1.25" stroke-linecap="square" stroke-miterlimit="10" d="  M426.012,394.39c-10.115,1.337-21.423,0.024-30.002-3.75C406.625,386.721,419.575,380.85,426.012,394.39z"/>
<path fill-rule="evenodd" clip-rule="evenodd" fill="#D2D1D2" d="M423.762,449.89c-3.408,5.159-1.892,8.918-9.752,10.5  C417.261,456.89,420.511,453.39,423.762,449.89z"/>
<path fill="none" stroke="#000000" stroke-width="1.25" stroke-linecap="square" stroke-miterlimit="10" d="M423.762,449.89  c-0.711,5.69-4.015,9.346-9.752,10.5"/>
<path fill="none" stroke="#000000" stroke-width="1.25" stroke-linecap="square" stroke-miterlimit="10" d="M414.01,449.89  c-4.138,1.582-8.065,0.979-10.5-2.25"/>
<path fill-rule="evenodd" clip-rule="evenodd" stroke="#000000" stroke-width="1.25" stroke-linecap="square" stroke-miterlimit="10" d="  M417.01,440.14c-2.09-7.487-4.135-15.039-3-21.75c5.896,12.715,7.579,26.238-7.5,30.75  C409.953,446.07,413.533,443.167,417.01,440.14z"/>
<path fill-rule="evenodd" clip-rule="evenodd" fill="#D2D1D2" stroke="#000000" stroke-width="1.25" stroke-linecap="square" stroke-miterlimit="10" d="  M411.01,431.14C399.094,392.973,437.731,426.272,411.01,431.14L411.01,431.14z"/>
<path fill-rule="evenodd" clip-rule="evenodd" stroke="#000000" stroke-width="1.25" stroke-linecap="square" stroke-miterlimit="10" d="  M462.012,502.39c-8.57-0.173-13.19-3.711-17.25,4.5C456.692,509.867,459.484,506.147,462.012,502.39z"/>
<path fill-rule="evenodd" clip-rule="evenodd" stroke="#000000" stroke-width="1.25" stroke-linecap="square" stroke-miterlimit="10" d="  M456.012,470.14c1.13,11.306,0.826,25.15,5.25,33C460.698,491.313,462.153,477.347,456.012,470.14z"/>
<path fill-rule="evenodd" clip-rule="evenodd" stroke="#000000" stroke-width="1.25" stroke-linecap="square" stroke-miterlimit="10" d="  M453.762,502.39c-8.065,0.298-12.568-2.713-17.25,4.5C447.555,509.917,452.455,508.424,453.762,502.39z"/>
<path fill-rule="evenodd" clip-rule="evenodd" stroke="#000000" stroke-width="1.25" stroke-linecap="square" stroke-miterlimit="10" d="  M447.762,470.89c1.07,10.715,1.833,21.481,2.25,32.25c5.722-9.924-2.396-28.478,8.25-41.25  C452.988,463.083,451.543,466.462,447.762,470.89z"/>
<path fill-rule="evenodd" clip-rule="evenodd" fill="#D2D1D2" stroke="#000000" stroke-width="1.25" stroke-linecap="square" stroke-miterlimit="10" d="  M462.762,444.64C472.002,362.791,411.568,462.1,462.762,444.64L462.762,444.64z M441.012,470.89c5.305,1.666,12.396,0.517,18,0.75  c0-4.75,0-9.5,0-14.25c0,4.75,0,9.5,0,14.25c1.5,0,3,0,4.5,0c1.463-7.269,0.45-18.908-0.75-26.25  C441.71,439.217,434.162,451.322,441.012,470.89z"/>
<path fill-rule="evenodd" clip-rule="evenodd" fill="#D2D1D2" stroke="#000000" stroke-width="1.25" stroke-linecap="square" stroke-miterlimit="10" d="  M444.762,395.14c-0.833,17.065,16.168,17.021,20.25,0.75C458.145,396.83,451.24,394.306,444.762,395.14z"/>
<path fill-rule="evenodd" clip-rule="evenodd" fill="#D2D1D2" stroke="#000000" stroke-width="1.25" stroke-linecap="square" stroke-miterlimit="10" d="  M465.762,394.39c-10.319,1.412-21.278,0.197-30.75-3.75C446.22,387.381,458.816,380.285,465.762,394.39z"/>
<path fill-rule="evenodd" clip-rule="evenodd" fill="#D2D1D2" d="M462.762,449.89c-2.893,5.004-1.152,8.953-9,10.5  C456.762,456.89,459.762,453.39,462.762,449.89z"/>
<path fill="none" stroke="#000000" stroke-width="1.25" stroke-linecap="square" stroke-miterlimit="10" d="M462.762,449.89  c-0.059,5.67-3.318,9.38-9,10.5"/>
<path fill="none" stroke="#000000" stroke-width="1.25" stroke-linecap="square" stroke-miterlimit="10" d="M453.762,449.89  c-4.383,1.495-8.485,0.856-10.5-2.25"/>
<path fill-rule="evenodd" clip-rule="evenodd" stroke="#000000" stroke-width="1.25" stroke-linecap="square" stroke-miterlimit="10" d="  M456.762,440.14c-2.212-7.518-4.505-14.806-3-21.75c1.907,5.886,4.635,18.625,5.25,22.5c-3.988,2.764-8.411,6.998-12.75,8.25  C449.455,445.552,453.113,443.141,456.762,440.14z"/>
<path fill-rule="evenodd" clip-rule="evenodd" fill="#D2D1D2" stroke="#000000" stroke-width="1.25" stroke-linecap="square" stroke-miterlimit="10" d="  M450.762,431.14C437.745,392.771,477.429,426.708,450.762,431.14L450.762,431.14z"/>
<path fill-rule="evenodd" clip-rule="evenodd" fill="#F7F619" stroke="#000000" stroke-width="1.25" stroke-linecap="square" stroke-miterlimit="10" d="  M501.012,502.39c-8.09-0.073-12.133-3.272-17.25,3.75C496.604,509.789,498.926,505.687,501.012,502.39z"/>
<path fill-rule="evenodd" clip-rule="evenodd" fill="#F7F619" stroke="#000000" stroke-width="1.25" stroke-linecap="square" stroke-miterlimit="10" d="  M495.762,470.14c0.903,10.1,1.166,24.656,4.5,33C499.726,491.873,500.636,477.134,495.762,470.14z"/>
<path fill-rule="evenodd" clip-rule="evenodd" fill="#F7F619" stroke="#000000" stroke-width="1.25" stroke-linecap="square" stroke-miterlimit="10" d="  M493.512,502.39c-8.59-0.455-13.775-2.891-17.25,5.25C487.604,509.941,491.83,507.85,493.512,502.39z"/>
<path fill-rule="evenodd" clip-rule="evenodd" fill="#F7F619" stroke="#000000" stroke-width="1.25" stroke-linecap="square" stroke-miterlimit="10" d="  M487.512,470.89c1.07,10.715,1.833,21.481,2.25,32.25c5.722-9.924-2.396-28.478,8.25-41.25  C492.346,462.687,491.082,466.342,487.512,470.89z"/>
<path fill-rule="evenodd" clip-rule="evenodd" fill="#F7F619" stroke="#000000" stroke-width="1.25" stroke-linecap="square" stroke-miterlimit="10" d="  M502.512,444.64c1.93-44.021-24.291-40.189-22.5,0.75C486.915,445.16,495.906,446.525,502.512,444.64z M480.762,470.89  c5.326,1.646,12.384,0.516,18,0.75c-0.25-4.75-0.5-9.5-0.75-14.25c0.25,4.75,0.5,9.5,0.75,14.25c1.5,0,3,0,4.5,0  c1.463-7.269,0.45-18.908-0.75-26.25c-5.125-1.456-17.174-0.984-22.5,0.75C480.154,454.145,479.142,463.098,480.762,470.89z"/>
<path fill-rule="evenodd" clip-rule="evenodd" fill="#F7F619" stroke="#000000" stroke-width="1.25" stroke-linecap="square" stroke-miterlimit="10" d="  M483.762,395.14c-0.268,17.339,16.351,16.668,21,0.75C497.46,396.875,490.719,394.56,483.762,395.14z"/>
<path fill-rule="evenodd" clip-rule="evenodd" fill="#F7F619" stroke="#000000" stroke-width="1.25" stroke-linecap="square" stroke-miterlimit="10" d="  M505.512,394.39c-10.335,1.405-21.279,0.301-30.75-3.75C485.622,386.92,498.25,380.885,505.512,394.39z"/>
<path fill-rule="evenodd" clip-rule="evenodd" fill="#F7F619" d="M502.512,449.14c-3.513,4.899-1.988,9.081-9.75,9.75  C496.012,455.64,499.262,452.39,502.512,449.14z"/>
<path fill="none" stroke="#000000" stroke-width="1.25" stroke-linecap="square" stroke-miterlimit="10" d="M502.512,449.14  c-0.625,5.771-4.01,9.255-9.75,9.75"/>
<path fill-rule="evenodd" clip-rule="evenodd" fill="#F7F619" d="M493.512,449.89c-4.896-0.376-7.71,1.824-11.25-2.25  C486.012,448.39,489.762,449.14,493.512,449.89z"/>
<path fill="none" stroke="#000000" stroke-width="1.25" stroke-linecap="square" stroke-miterlimit="10" d="M493.512,449.89  c-4.278,1.546-8.505,0.909-11.25-2.25"/>
<path fill-rule="evenodd" clip-rule="evenodd" fill="#F7F619" stroke="#000000" stroke-width="1.25" stroke-linecap="square" stroke-miterlimit="10" d="  M495.762,440.14c-2.168-7.963-4.488-15.404-2.25-21.75c4.93,13.157,6.739,26.266-8.25,30.75  C488.705,446.07,492.285,443.167,495.762,440.14z"/>
<path fill-rule="evenodd" clip-rule="evenodd" fill="#F7F619" stroke="#000000" stroke-width="1.25" stroke-linecap="square" stroke-miterlimit="10" d="  M490.512,431.14C476.839,393.584,516.426,425.244,490.512,431.14L490.512,431.14z"/>
<path fill-rule="evenodd" clip-rule="evenodd" fill="#FB0F0C" stroke="#000000" stroke-width="1.5" stroke-linecap="square" stroke-miterlimit="10" d="  M497.262,357.64c2.81-9.828,3.624-24.117-8.25-22.5c-1.515,0.207,3.209,20.018-6,22.5c2.236,6.904,6.421,15.75,10.5,21.75  C500.276,370.215,505.913,360.496,497.262,357.64z"/>
<path fill-rule="evenodd" clip-rule="evenodd" stroke="#000000" stroke-width="1.25" stroke-linecap="square" stroke-miterlimit="10" d="  M343.51,502.39c-8.504-0.242-13.001-3.666-17.25,4.5C338.191,509.867,340.982,506.147,343.51,502.39z"/>
<path fill-rule="evenodd" clip-rule="evenodd" stroke="#000000" stroke-width="1.25" stroke-linecap="square" stroke-miterlimit="10" d="  M337.51,470.14c1.129,11.306,0.826,25.15,5.25,33C342.188,491.144,343.802,476.989,337.51,470.14z"/>
<path fill-rule="evenodd" clip-rule="evenodd" stroke="#000000" stroke-width="1.25" stroke-linecap="square" stroke-miterlimit="10" d="  M335.26,502.39c-8.066,0.298-12.568-2.713-17.25,4.5C329.297,509.86,334.169,508.448,335.26,502.39z"/>
<path fill-rule="evenodd" clip-rule="evenodd" stroke="#000000" stroke-width="1.25" stroke-linecap="square" stroke-miterlimit="10" d="  M330.01,470.89c0.627,9.913,1.905,21.688,1.5,32.25c5.722-9.924-2.396-28.478,8.25-41.25  C334.244,462.746,333.384,466.274,330.01,470.89z"/>
<path fill-rule="evenodd" clip-rule="evenodd" fill="#D2D1D2" stroke="#000000" stroke-width="1.25" stroke-linecap="square" stroke-miterlimit="10" d="  M344.26,444.64C350.035,363.274,296.137,461.053,344.26,444.64L344.26,444.64z M322.51,470.89c5.305,1.666,12.396,0.517,18,0.75  c0-4.75,0-9.5,0-14.25c0,4.75,0,9.5,0,14.25c1.5,0,3,0,4.5,0c1.463-7.269,0.45-18.908-0.75-26.25  C323.208,439.217,315.661,451.322,322.51,470.89z"/>
<path fill-rule="evenodd" clip-rule="evenodd" fill="#D2D1D2" stroke="#000000" stroke-width="1.25" stroke-linecap="square" stroke-miterlimit="10" d="  M326.26,395.14c-0.61,17.673,16.133,16.394,21,0.75C339.958,396.875,333.216,394.56,326.26,395.14z"/>
<path fill-rule="evenodd" clip-rule="evenodd" fill="#D2D1D2" stroke="#000000" stroke-width="1.25" stroke-linecap="square" stroke-miterlimit="10" d="  M347.26,394.39c-10.319,1.412-21.278,0.197-30.75-3.75C327.779,387.415,340.353,380.291,347.26,394.39z"/>
<path fill-rule="evenodd" clip-rule="evenodd" fill="#D2D1D2" d="M344.26,449.89c-2.893,5.004-1.153,8.953-9,10.5  C338.26,456.89,341.26,453.39,344.26,449.89z"/>
<path fill="none" stroke="#000000" stroke-width="1.25" stroke-linecap="square" stroke-miterlimit="10" d="M344.26,449.89  c-0.059,5.67-3.318,9.38-9,10.5"/>
<path fill="none" stroke="#000000" stroke-width="1.25" stroke-linecap="square" stroke-miterlimit="10" d="M335.26,449.89  c-4.383,1.495-8.486,0.856-10.5-2.25"/>
<path fill-rule="evenodd" clip-rule="evenodd" stroke="#000000" stroke-width="1.25" stroke-linecap="square" stroke-miterlimit="10" d="  M338.26,440.14c-2.212-7.518-4.505-14.806-3-21.75c5.336,12.869,7.651,25.941-7.5,30.75  C330.953,445.552,334.611,443.141,338.26,440.14z"/>
<path fill-rule="evenodd" clip-rule="evenodd" fill="#D2D1D2" stroke="#000000" stroke-width="1.25" stroke-linecap="square" stroke-miterlimit="10" d="  M332.26,431.14C318.952,393.279,359.408,425.997,332.26,431.14L332.26,431.14z"/>
<path fill-rule="evenodd" clip-rule="evenodd" stroke="#000000" stroke-width="1.25" stroke-linecap="square" stroke-miterlimit="10" d="  M382.51,502.39c-8.021-0.096-11.801-3.337-17.25,3.75C376.495,509.316,381.547,507.988,382.51,502.39z"/>
<path fill-rule="evenodd" clip-rule="evenodd" stroke="#000000" stroke-width="1.25" stroke-linecap="square" stroke-miterlimit="10" d="  M377.26,470.14c0.903,10.1,1.166,24.656,4.5,33C381.223,491.873,382.133,477.134,377.26,470.14z"/>
<path fill-rule="evenodd" clip-rule="evenodd" stroke="#000000" stroke-width="1.25" stroke-linecap="square" stroke-miterlimit="10" d="  M375.01,502.39c-8.293,0.079-12.757-2.943-17.25,4.5C369.504,510.191,372.478,506.593,375.01,502.39z"/>
<path fill-rule="evenodd" clip-rule="evenodd" stroke="#000000" stroke-width="1.25" stroke-linecap="square" stroke-miterlimit="10" d="  M369.01,470.89c1.07,10.715,1.833,21.481,2.25,32.25c5.722-9.924-2.396-28.478,8.25-41.25  C374.236,463.083,372.791,466.462,369.01,470.89z"/>
<path fill-rule="evenodd" clip-rule="evenodd" fill="#D2D1D2" stroke="#000000" stroke-width="1.25" stroke-linecap="square" stroke-miterlimit="10" d="  M384.01,444.64C387.557,363.719,336.866,460.719,384.01,444.64L384.01,444.64z M362.26,470.89c5.326,1.646,12.383,0.516,18,0.75  c-0.25-4.75-0.5-9.5-0.75-14.25c0.25,4.75,0.5,9.5,0.75,14.25c1.5,0,3,0,4.5,0c1.463-7.269,0.45-18.908-0.75-26.25  c-5.125-1.456-17.174-0.984-22.5,0.75C361.652,454.145,360.64,463.098,362.26,470.89z"/>
<path fill-rule="evenodd" clip-rule="evenodd" fill="#D2D1D2" stroke="#000000" stroke-width="1.25" stroke-linecap="square" stroke-miterlimit="10" d="  M365.26,395.14c-0.159,17.308,16.396,16.797,21,0.75C379.009,396.856,372.188,394.529,365.26,395.14z"/>
<path fill-rule="evenodd" clip-rule="evenodd" fill="#D2D1D2" stroke="#000000" stroke-width="1.25" stroke-linecap="square" stroke-miterlimit="10" d="  M387.01,394.39c-10.334,1.405-21.279,0.301-30.75-3.75C367.558,387.514,379.808,380.155,387.01,394.39z"/>
<path fill-rule="evenodd" clip-rule="evenodd" fill="#D2D1D2" d="M384.01,449.89c-2.893,5.004-1.153,8.953-9,10.5  C378.01,456.89,381.01,453.39,384.01,449.89z"/>
<path fill="none" stroke="#000000" stroke-width="1.25" stroke-linecap="square" stroke-miterlimit="10" d="M384.01,449.89  c-0.059,5.67-3.318,9.38-9,10.5"/>
<path fill="none" stroke="#000000" stroke-width="1.25" stroke-linecap="square" stroke-miterlimit="10" d="M375.01,449.89  c-4.298,1.514-8.473,0.827-11.25-2.25"/>
<path fill-rule="evenodd" clip-rule="evenodd" stroke="#000000" stroke-width="1.25" stroke-linecap="square" stroke-miterlimit="10" d="  M377.26,440.14c-2.11-7.966-4.347-14.681-2.25-21.75c4.524,12.482,7.343,25.833-7.5,30.75  C370.568,445.867,373.968,443.14,377.26,440.14z"/>
<path fill-rule="evenodd" clip-rule="evenodd" fill="#D2D1D2" stroke="#000000" stroke-width="1.25" stroke-linecap="square" stroke-miterlimit="10" d="  M372.01,431.14C358.935,392.607,398.303,427.016,372.01,431.14L372.01,431.14z"/>
<path fill-rule="evenodd" clip-rule="evenodd" stroke="#000000" stroke-width="1.25" stroke-linecap="square" stroke-miterlimit="10" d="  M422.26,502.39c-7.974-0.117-12.075-3.188-17.25,3.75C416.862,509.973,419.715,505.845,422.26,502.39z"/>
<path fill-rule="evenodd" clip-rule="evenodd" stroke="#000000" stroke-width="1.25" stroke-linecap="square" stroke-miterlimit="10" d="  M416.26,470.14c1.13,11.306,0.826,25.15,5.25,33C420.938,491.125,422.657,476.715,416.26,470.14z"/>
<path fill-rule="evenodd" clip-rule="evenodd" stroke="#000000" stroke-width="1.25" stroke-linecap="square" stroke-miterlimit="10" d="  M414.76,502.39c-8.277-0.402-12.946-2.599-18,4.5C408.116,510.405,411.622,506.626,414.76,502.39z"/>
<path fill-rule="evenodd" clip-rule="evenodd" stroke="#000000" stroke-width="1.25" stroke-linecap="square" stroke-miterlimit="10" d="  M408.76,470.89c0.874,9.771,2.075,21.714,2.25,32.25c4.287-11.5-3.485-28.869,8.25-41.25  C412.826,462.332,412.698,466.094,408.76,470.89z"/>
<path fill-rule="evenodd" clip-rule="evenodd" fill="#D2D1D2" stroke="#000000" stroke-width="1.25" stroke-linecap="square" stroke-miterlimit="10" d="  M423.762,444.64C427.236,365.373,375.201,458.764,423.762,444.64L423.762,444.64z M402.01,470.89  c5.098,1.591,11.87,0.516,17.25,0.75c0-4.75,0-9.5,0-14.25c0,4.75,0,9.5,0,14.25c1.501,0,3.001,0,4.502,0  c1.68-7.2,0.992-18.896,0-26.25c-5.181-1.511-17.188-0.985-22.502,0.75C401.394,453.683,399.559,463.922,402.01,470.89z"/>
<path fill-rule="evenodd" clip-rule="evenodd" fill="#D2D1D2" stroke="#000000" stroke-width="1.25" stroke-linecap="square" stroke-miterlimit="10" d="  M405.01,395.14c-0.558,17.618,16.262,16.521,21.002,0.75C418.71,396.876,411.967,394.56,405.01,395.14z"/>
<path fill-rule="evenodd" clip-rule="evenodd" fill="#D2D1D2" stroke="#000000" stroke-width="1.25" stroke-linecap="square" stroke-miterlimit="10" d="  M426.012,394.39c-10.115,1.337-21.423,0.024-30.002-3.75C406.625,386.721,419.575,380.85,426.012,394.39z"/>
<path fill-rule="evenodd" clip-rule="evenodd" fill="#D2D1D2" d="M423.762,449.89c-3.408,5.159-1.892,8.918-9.752,10.5  C417.261,456.89,420.511,453.39,423.762,449.89z"/>
<path fill="none" stroke="#000000" stroke-width="1.25" stroke-linecap="square" stroke-miterlimit="10" d="M423.762,449.89  c-0.711,5.69-4.015,9.346-9.752,10.5"/>
<path fill="none" stroke="#000000" stroke-width="1.25" stroke-linecap="square" stroke-miterlimit="10" d="M414.01,449.89  c-4.138,1.582-8.065,0.979-10.5-2.25"/>
<path fill-rule="evenodd" clip-rule="evenodd" stroke="#000000" stroke-width="1.25" stroke-linecap="square" stroke-miterlimit="10" d="  M417.01,440.14c-2.09-7.487-4.135-15.039-3-21.75c5.896,12.715,7.579,26.238-7.5,30.75  C409.953,446.07,413.533,443.167,417.01,440.14z"/>
<path fill-rule="evenodd" clip-rule="evenodd" fill="#D2D1D2" stroke="#000000" stroke-width="1.25" stroke-linecap="square" stroke-miterlimit="10" d="  M411.01,431.14C399.094,392.973,437.731,426.272,411.01,431.14L411.01,431.14z"/>
<path fill-rule="evenodd" clip-rule="evenodd" stroke="#000000" stroke-width="1.25" stroke-linecap="square" stroke-miterlimit="10" d="  M462.012,502.39c-8.57-0.173-13.19-3.711-17.25,4.5C456.692,509.867,459.484,506.147,462.012,502.39z"/>
<path fill-rule="evenodd" clip-rule="evenodd" stroke="#000000" stroke-width="1.25" stroke-linecap="square" stroke-miterlimit="10" d="  M456.012,470.14c1.13,11.306,0.826,25.15,5.25,33C460.698,491.313,462.153,477.347,456.012,470.14z"/>
<path fill-rule="evenodd" clip-rule="evenodd" stroke="#000000" stroke-width="1.25" stroke-linecap="square" stroke-miterlimit="10" d="  M453.762,502.39c-8.065,0.298-12.568-2.713-17.25,4.5C447.555,509.917,452.455,508.424,453.762,502.39z"/>
<path fill-rule="evenodd" clip-rule="evenodd" stroke="#000000" stroke-width="1.25" stroke-linecap="square" stroke-miterlimit="10" d="  M447.762,470.89c1.07,10.715,1.833,21.481,2.25,32.25c5.722-9.924-2.396-28.478,8.25-41.25  C452.988,463.083,451.543,466.462,447.762,470.89z"/>
<path fill-rule="evenodd" clip-rule="evenodd" fill="#D2D1D2" stroke="#000000" stroke-width="1.25" stroke-linecap="square" stroke-miterlimit="10" d="  M462.762,444.64C472.002,362.791,411.568,462.1,462.762,444.64L462.762,444.64z M441.012,470.89c5.305,1.666,12.396,0.517,18,0.75  c0-4.75,0-9.5,0-14.25c0,4.75,0,9.5,0,14.25c1.5,0,3,0,4.5,0c1.463-7.269,0.45-18.908-0.75-26.25  C441.71,439.217,434.162,451.322,441.012,470.89z"/>
<path fill-rule="evenodd" clip-rule="evenodd" fill="#D2D1D2" stroke="#000000" stroke-width="1.25" stroke-linecap="square" stroke-miterlimit="10" d="  M444.762,395.14c-0.833,17.065,16.168,17.021,20.25,0.75C458.145,396.83,451.24,394.306,444.762,395.14z"/>
<path fill-rule="evenodd" clip-rule="evenodd" fill="#D2D1D2" stroke="#000000" stroke-width="1.25" stroke-linecap="square" stroke-miterlimit="10" d="  M465.762,394.39c-10.319,1.412-21.278,0.197-30.75-3.75C446.22,387.381,458.816,380.285,465.762,394.39z"/>
<path fill-rule="evenodd" clip-rule="evenodd" fill="#D2D1D2" d="M462.762,449.89c-2.893,5.004-1.152,8.953-9,10.5  C456.762,456.89,459.762,453.39,462.762,449.89z"/>
<path fill="none" stroke="#000000" stroke-width="1.25" stroke-linecap="square" stroke-miterlimit="10" d="M462.762,449.89  c-0.059,5.67-3.318,9.38-9,10.5"/>
<path fill="none" stroke="#000000" stroke-width="1.25" stroke-linecap="square" stroke-miterlimit="10" d="M453.762,449.89  c-4.383,1.495-8.485,0.856-10.5-2.25"/>
<path fill-rule="evenodd" clip-rule="evenodd" stroke="#000000" stroke-width="1.25" stroke-linecap="square" stroke-miterlimit="10" d="  M456.762,440.14c-2.212-7.518-4.505-14.806-3-21.75c1.907,5.886,4.635,18.625,5.25,22.5c-3.988,2.764-8.411,6.998-12.75,8.25  C449.455,445.552,453.113,443.141,456.762,440.14z"/>
<path fill-rule="evenodd" clip-rule="evenodd" fill="#D2D1D2" stroke="#000000" stroke-width="1.25" stroke-linecap="square" stroke-miterlimit="10" d="  M450.762,431.14C437.745,392.771,477.429,426.708,450.762,431.14L450.762,431.14z"/>
<path fill-rule="evenodd" clip-rule="evenodd" fill="#F7F619" stroke="#000000" stroke-width="1.25" stroke-linecap="square" stroke-miterlimit="10" d="  M501.012,502.39c-8.09-0.073-12.133-3.272-17.25,3.75C496.604,509.789,498.926,505.687,501.012,502.39z"/>
<path fill-rule="evenodd" clip-rule="evenodd" fill="#F7F619" stroke="#000000" stroke-width="1.25" stroke-linecap="square" stroke-miterlimit="10" d="  M495.762,470.14c0.903,10.1,1.166,24.656,4.5,33C499.726,491.873,500.636,477.134,495.762,470.14z"/>
<path fill-rule="evenodd" clip-rule="evenodd" fill="#F7F619" stroke="#000000" stroke-width="1.25" stroke-linecap="square" stroke-miterlimit="10" d="  M493.512,502.39c-8.59-0.455-13.775-2.891-17.25,5.25C487.604,509.941,491.83,507.85,493.512,502.39z"/>
<path fill-rule="evenodd" clip-rule="evenodd" fill="#F7F619" stroke="#000000" stroke-width="1.25" stroke-linecap="square" stroke-miterlimit="10" d="  M487.512,470.89c1.07,10.715,1.833,21.481,2.25,32.25c5.722-9.924-2.396-28.478,8.25-41.25  C492.346,462.687,491.082,466.342,487.512,470.89z"/>
<path fill-rule="evenodd" clip-rule="evenodd" fill="#F7F619" stroke="#000000" stroke-width="1.25" stroke-linecap="square" stroke-miterlimit="10" d="  M502.512,444.64c1.93-44.021-24.291-40.189-22.5,0.75C486.915,445.16,495.906,446.525,502.512,444.64z M480.762,470.89  c5.326,1.646,12.384,0.516,18,0.75c-0.25-4.75-0.5-9.5-0.75-14.25c0.25,4.75,0.5,9.5,0.75,14.25c1.5,0,3,0,4.5,0  c1.463-7.269,0.45-18.908-0.75-26.25c-5.125-1.456-17.174-0.984-22.5,0.75C480.154,454.145,479.142,463.098,480.762,470.89z"/>
<path fill-rule="evenodd" clip-rule="evenodd" fill="#F7F619" stroke="#000000" stroke-width="1.25" stroke-linecap="square" stroke-miterlimit="10" d="  M483.762,395.14c-0.268,17.339,16.351,16.668,21,0.75C497.46,396.875,490.719,394.56,483.762,395.14z"/>
<path fill-rule="evenodd" clip-rule="evenodd" fill="#F7F619" stroke="#000000" stroke-width="1.25" stroke-linecap="square" stroke-miterlimit="10" d="  M505.512,394.39c-10.335,1.405-21.279,0.301-30.75-3.75C485.622,386.92,498.25,380.885,505.512,394.39z"/>
<path fill-rule="evenodd" clip-rule="evenodd" fill="#F7F619" d="M502.512,449.14c-3.513,4.899-1.988,9.081-9.75,9.75  C496.012,455.64,499.262,452.39,502.512,449.14z"/>
<path fill="none" stroke="#000000" stroke-width="1.25" stroke-linecap="square" stroke-miterlimit="10" d="M502.512,449.14  c-0.625,5.771-4.01,9.255-9.75,9.75"/>
<path fill-rule="evenodd" clip-rule="evenodd" fill="#F7F619" d="M493.512,449.89c-4.896-0.376-7.71,1.824-11.25-2.25  C486.012,448.39,489.762,449.14,493.512,449.89z"/>
<path fill="none" stroke="#000000" stroke-width="1.25" stroke-linecap="square" stroke-miterlimit="10" d="M493.512,449.89  c-4.278,1.546-8.505,0.909-11.25-2.25"/>
<path fill-rule="evenodd" clip-rule="evenodd" fill="#F7F619" stroke="#000000" stroke-width="1.25" stroke-linecap="square" stroke-miterlimit="10" d="  M495.762,440.14c-2.168-7.963-4.488-15.404-2.25-21.75c4.93,13.157,6.739,26.266-8.25,30.75  C488.705,446.07,492.285,443.167,495.762,440.14z"/>
<path fill-rule="evenodd" clip-rule="evenodd" fill="#F7F619" stroke="#000000" stroke-width="1.25" stroke-linecap="square" stroke-miterlimit="10" d="  M490.512,431.14C476.839,393.584,516.426,425.244,490.512,431.14L490.512,431.14z"/>
<path fill-rule="evenodd" clip-rule="evenodd" fill="#FB0F0C" stroke="#000000" stroke-width="1.5" stroke-linecap="square" stroke-miterlimit="10" d="  M497.262,357.64c2.81-9.828,3.624-24.117-8.25-22.5c-1.515,0.207,3.209,20.018-6,22.5c2.236,6.904,6.421,15.75,10.5,21.75  C500.276,370.215,505.913,360.496,497.262,357.64z"/>
<path fill-rule="evenodd" clip-rule="evenodd" stroke="#000000" stroke-width="1.25" stroke-linecap="square" stroke-miterlimit="10" d="  M343.51,502.39c-8.504-0.242-13.001-3.666-17.25,4.5C338.191,509.867,340.982,506.147,343.51,502.39z"/>
<path fill-rule="evenodd" clip-rule="evenodd" stroke="#000000" stroke-width="1.25" stroke-linecap="square" stroke-miterlimit="10" d="  M337.51,470.14c1.129,11.306,0.826,25.15,5.25,33C342.188,491.144,343.802,476.989,337.51,470.14z"/>
<path fill-rule="evenodd" clip-rule="evenodd" stroke="#000000" stroke-width="1.25" stroke-linecap="square" stroke-miterlimit="10" d="  M335.26,502.39c-8.066,0.298-12.568-2.713-17.25,4.5C329.297,509.86,334.169,508.448,335.26,502.39z"/>
<path fill-rule="evenodd" clip-rule="evenodd" stroke="#000000" stroke-width="1.25" stroke-linecap="square" stroke-miterlimit="10" d="  M330.01,470.89c0.627,9.913,1.905,21.688,1.5,32.25c5.722-9.924-2.396-28.478,8.25-41.25  C334.244,462.746,333.384,466.274,330.01,470.89z"/>
<path fill-rule="evenodd" clip-rule="evenodd" fill="#D2D1D2" stroke="#000000" stroke-width="1.25" stroke-linecap="square" stroke-miterlimit="10" d="  M344.26,444.64C350.035,363.274,296.137,461.053,344.26,444.64L344.26,444.64z M322.51,470.89c5.305,1.666,12.396,0.517,18,0.75  c0-4.75,0-9.5,0-14.25c0,4.75,0,9.5,0,14.25c1.5,0,3,0,4.5,0c1.463-7.269,0.45-18.908-0.75-26.25  C323.208,439.217,315.661,451.322,322.51,470.89z"/>
<path fill-rule="evenodd" clip-rule="evenodd" fill="#D2D1D2" stroke="#000000" stroke-width="1.25" stroke-linecap="square" stroke-miterlimit="10" d="  M326.26,395.14c-0.61,17.673,16.133,16.394,21,0.75C339.958,396.875,333.216,394.56,326.26,395.14z"/>
<path fill-rule="evenodd" clip-rule="evenodd" fill="#D2D1D2" stroke="#000000" stroke-width="1.25" stroke-linecap="square" stroke-miterlimit="10" d="  M347.26,394.39c-10.319,1.412-21.278,0.197-30.75-3.75C327.779,387.415,340.353,380.291,347.26,394.39z"/>
<path fill-rule="evenodd" clip-rule="evenodd" fill="#D2D1D2" d="M344.26,449.89c-2.893,5.004-1.153,8.953-9,10.5  C338.26,456.89,341.26,453.39,344.26,449.89z"/>
<path fill="none" stroke="#000000" stroke-width="1.25" stroke-linecap="square" stroke-miterlimit="10" d="M344.26,449.89  c-0.059,5.67-3.318,9.38-9,10.5"/>
<path fill="none" stroke="#000000" stroke-width="1.25" stroke-linecap="square" stroke-miterlimit="10" d="M335.26,449.89  c-4.383,1.495-8.486,0.856-10.5-2.25"/>
<path fill-rule="evenodd" clip-rule="evenodd" stroke="#000000" stroke-width="1.25" stroke-linecap="square" stroke-miterlimit="10" d="  M338.26,440.14c-2.212-7.518-4.505-14.806-3-21.75c5.336,12.869,7.651,25.941-7.5,30.75  C330.953,445.552,334.611,443.141,338.26,440.14z"/>
<path fill-rule="evenodd" clip-rule="evenodd" fill="#D2D1D2" stroke="#000000" stroke-width="1.25" stroke-linecap="square" stroke-miterlimit="10" d="  M332.26,431.14C318.952,393.279,359.408,425.997,332.26,431.14L332.26,431.14z"/>
</svg>