<svg xmlns="http://www.w3.org/2000/svg" xmlns:xlink="http://www.w3.org/1999/xlink" version="1.1" id="Layer_1" x="0px" y="0px" enable-background="new 0 0 822.05 841.89" xml:space="preserve" viewBox="307.69 355 206.75 136.14">
<path fill-rule="evenodd" clip-rule="evenodd" fill="#EED5B6" stroke="#000000" stroke-width="1.25" stroke-linecap="square" stroke-miterlimit="10" d="  M413.314,456.765c-9.117-2.889-17.328-16.604-25.102-16.383c-21.254,0.607-24.175,6.915-42.398,14.508  c-19.953,8.313-24.838,32.625,1.626,32.625C389.976,487.515,402.178,498.273,413.314,456.765z"/>
<path fill-rule="evenodd" clip-rule="evenodd" fill="#137827" stroke="#000000" stroke-width="1.25" stroke-linecap="square" stroke-miterlimit="10" d="  M431.316,456.015c-23.87-13.51-33.188,22.661-62.627,14.25c-15.835-4.524-14.371-18.783-29.625-18.75  c-21.672,0.047-26.548,22.021-30.75,39c46.75,0,93.501,0,140.252,0C444.486,478.107,439.946,465.61,431.316,456.015z"/>
<path fill-rule="evenodd" clip-rule="evenodd" fill="#EED5B6" stroke="#000000" stroke-width="1.25" stroke-linecap="square" stroke-miterlimit="10" d="  M339.814,429.765C362.015,465.458,301.888,412.948,339.814,429.765L339.814,429.765z"/>
<path fill-rule="evenodd" clip-rule="evenodd" fill="#EED5B6" stroke="#000000" stroke-width="1.25" stroke-linecap="square" stroke-miterlimit="10" d="  M410.314,397.515C402.248,435.936,388.496,364.57,410.314,397.515L410.314,397.515z"/>
<path fill-rule="evenodd" clip-rule="evenodd" fill="#EED5B6" stroke="#000000" stroke-width="1.25" stroke-linecap="square" stroke-miterlimit="10" d="  M320.314,407.265c11.774,39.647,78.804,67.693,86.25,12.75C418.028,335.423,296.251,337.328,320.314,407.265z"/>
<path fill="none" stroke="#000000" stroke-linecap="square" stroke-miterlimit="10" d="M380.314,411.765  c-3.875-1.711-6.333-0.486-6.75,3.75"/>
<path fill-rule="evenodd" clip-rule="evenodd" fill="#63221C" stroke="#000000" stroke-linecap="square" stroke-miterlimit="10" d="  M392.314,409.515c-5.421,10.632-15.758,17.086-27.75,17.25C382.746,451.666,398.319,435.241,392.314,409.515z"/>
<path fill="none" stroke="#000000" stroke-linecap="square" stroke-miterlimit="10" d="M377.314,404.265  c2.333-6.323,7.039-9.134,13.5-7.5"/>
<path fill="none" stroke="#000000" stroke-linecap="square" stroke-miterlimit="10" d="M353.314,419.265  c2.374-5.465,6.875-8.466,12.75-8.25"/>
<line fill="none" stroke="#000000" stroke-width="1.25" stroke-linecap="square" stroke-miterlimit="10" x1="420.816" y1="414.765" x2="513.816" y2="397.515"/>
<line fill="none" stroke="#000000" stroke-width="1.25" stroke-linecap="square" stroke-miterlimit="10" x1="423.066" y1="423.015" x2="478.566" y2="423.015"/>
<line fill="none" stroke="#000000" stroke-width="1.25" stroke-linecap="square" stroke-miterlimit="10" x1="419.316" y1="434.265" x2="502.566" y2="453.015"/>
</svg>