<svg xmlns="http://www.w3.org/2000/svg" xmlns:xlink="http://www.w3.org/1999/xlink" version="1.1" id="Layer_1" x="0px" y="0px" enable-background="new 0 0 822.05 841.89" xml:space="preserve" viewBox="276.34 246.97 266.16 348.71">
<path fill-rule="evenodd" clip-rule="evenodd" fill="#6D6F71" stroke="#000000" stroke-width="2" stroke-linecap="square" stroke-miterlimit="10" d="  M309.514,515.443c-15.339-3.387-34.804,8.675-31.875,26.25C286.023,592,331.583,530.953,309.514,515.443z"/>
<path fill-rule="evenodd" clip-rule="evenodd" fill="#90A7D6" stroke="#000000" stroke-width="2" stroke-linecap="square" stroke-miterlimit="10" d="  M407.014,430.693c10.141-14.603,21.547-41.546,41.605-41.062c36.028,0.868,80.872-0.726,80.645,46.312  c-0.157,32.569-21.043,45.908-47.539,51.208C438.323,495.831,430.841,464.307,407.014,430.693z"/>
<path fill-rule="evenodd" clip-rule="evenodd" fill="#ED1C24" stroke="#000000" stroke-width="2" stroke-linecap="square" stroke-miterlimit="10" d="  M344.014,483.943c-19.292,14.723-69.775,65.197-33.582,80.244c54.568,22.686,59.814,18.656,114.625-4.051  c6.688-2.771,42.782-12.664,42.665-20.477c-0.15-10.115,5.405-46.867-5.639-47.95C427.041,488.274,377.689,473.389,344.014,483.943z  "/>
<path fill-rule="evenodd" clip-rule="evenodd" fill="#FFDB78" stroke="#000000" stroke-width="2" stroke-linecap="square" stroke-miterlimit="10" d="  M352.264,468.193c-8.448,18.732-20.962,30.468-9,45.75c6.237,7.968,26.492,13.581,36,13.5c17.077-0.146,38.596-15.23,53.602-22.992  c22.936-11.863,15.596-23.79,13.148-48.258C414.764,460.193,383.514,464.193,352.264,468.193z"/>
<line fill="none" stroke="#000000" stroke-width="2" stroke-linecap="square" stroke-miterlimit="10" x1="384.514" y1="526.693" x2="407.764" y2="481.693"/>
<path fill="none" stroke="#000000" stroke-width="2" stroke-linecap="square" stroke-miterlimit="10" d="M464.764,493.693  c-26.469,12.009-52.938,24.018-79.406,36.027c-12.338,5.598-56.316-19.122-69.844-24.027"/>
<line fill="none" stroke="#000000" stroke-width="2" stroke-linecap="square" stroke-miterlimit="10" x1="383.764" y1="530.443" x2="362.764" y2="585.943"/>
<path fill-rule="evenodd" clip-rule="evenodd" fill="#6D6F71" stroke="#000000" stroke-width="2" stroke-linecap="square" stroke-miterlimit="10" d="  M437.014,567.943c-1.464,35.393-46.996,35.915-47.25,0C389.507,531.727,435.196,532.554,437.014,567.943z"/>
<path fill-rule="evenodd" clip-rule="evenodd" fill="#6D6F71" stroke="#000000" stroke-width="2" stroke-linecap="square" stroke-miterlimit="10" d="  M507.514,522.193c-1.364,35.858-47.658,36.438-47.25,0C460.667,486.168,505.094,487.078,507.514,522.193z"/>
<path fill-rule="evenodd" clip-rule="evenodd" fill="#BCBEC0" stroke="#000000" stroke-width="2" stroke-linecap="square" stroke-miterlimit="10" d="  M425.764,567.943c-1.523,18.913-25.29,19.802-25.5,0C400.054,548.226,424.503,548.69,425.764,567.943z"/>
<path fill-rule="evenodd" clip-rule="evenodd" fill="#BCBEC0" stroke="#000000" stroke-width="2" stroke-linecap="square" stroke-miterlimit="10" d="  M497.014,520.693c-2.586,17.398-23.93,18.919-24,0C472.943,501.878,494.477,503.214,497.014,520.693z"/>
<path fill-rule="evenodd" clip-rule="evenodd" fill="#BCBEC0" stroke="#000000" stroke-width="2" stroke-linecap="square" stroke-miterlimit="10" d="  M382.264,441.943c4.543-43.918,9.96-87.746,32.25-126.752c12.899-22.574,29.502-43.917,43.816-65.7  c2.647-4.027,76.701,0.663,80.684,5.7c14.934,18.889-41.974,99.866-50.25,122.625c-12.756,35.079-28.748,78.056-27.75,115.877  c-20.515-6.168,9.855-105.302,16.5-124.127c8.203-23.241,17.445-43.781,29.862-65.067c2.201-3.775,30.83-39.815,18.228-41.315  c-30.898-3.678-54.396-16.805-72.465,10.007c-11.96,17.748-26.811,36.184-35.25,55.875  C406.773,355.001,405.331,428.323,382.264,441.943z"/>
<path fill="none" stroke="#000000" stroke-width="2" stroke-linecap="square" stroke-miterlimit="10" d="M503.764,395.441  c-16.293,31.828-31.467,57.78-36.75,93.002"/>
<path fill-rule="evenodd" clip-rule="evenodd" fill="#FFDB78" stroke="#000000" stroke-width="2" stroke-linecap="square" stroke-miterlimit="10" d="  M352.264,465.193c26.241-20.992,68.967-58.566,92.25-12C453.567,471.299,345.468,508.472,352.264,465.193z"/>
</svg>