<svg xmlns="http://www.w3.org/2000/svg" xmlns:xlink="http://www.w3.org/1999/xlink" version="1.1" id="Layer_1" x="0px" y="0px" enable-background="new 0 0 822.05 841.89" xml:space="preserve" viewBox="213.41 246.83 393.59 352.81">
<path fill-rule="evenodd" clip-rule="evenodd" fill="#6D6F71" stroke="#000000" stroke-width="2" stroke-linecap="square" stroke-miterlimit="10" d="  M263.076,324.89c6.812,28.242-31.695,7.083-33.677,29.355c-2.727,30.644-5.454,61.288-8.18,91.932  c-2.271,25.522-4.542,51.044-6.813,76.566c-0.138,1.554,59.684,15.615,66.9,14.012c12.069-2.682,66.695-6.67,72.521-16.115  c6.1-9.89-7.011-53.981-8.463-65.169c-4.124-31.749-8.247-63.499-12.37-95.248c-3.171-24.416-30.113-6.83-32.417-32.333  C288.569,337.887,272.538,337.939,263.076,324.89z"/>
<path fill="none" stroke="#000000" stroke-width="2" stroke-linecap="square" stroke-miterlimit="10" d="M263.076,339.14  c11.867,61.688,2.25,131.604,2.25,194.25"/>
<path fill="none" stroke="#000000" stroke-width="2" stroke-linecap="square" stroke-miterlimit="10" d="M305.826,342.14  c-24.155,50.748,1.789,133.427,6.75,187.5"/>
<path fill-rule="evenodd" clip-rule="evenodd" fill="#E4BE9D" stroke="#000000" stroke-width="2" stroke-linecap="square" stroke-miterlimit="10" d="  M305.826,302.39c1.606,42.207-43.925,41.987-44.25,0C261.244,259.432,307.569,259.324,305.826,302.39z"/>
<path fill-rule="evenodd" clip-rule="evenodd" fill="#FDF8C1" stroke="#000000" stroke-width="2" stroke-linecap="square" stroke-miterlimit="10" d="  M268.326,278.39c5.993,2.489,32.759,0.849,33.375,1.875c6.521,10.87,8.595,24.677,3.375,36.375  c35.005-18.675,10.481-65.402-21.75-68.625c-36.973-3.697-56.617,52.898-21.75,70.125  C259.371,304.22,259.765,290.033,268.326,278.39z"/>
<path fill-rule="evenodd" clip-rule="evenodd" fill="#FFFFFF" stroke="#000000" stroke-width="2" stroke-linecap="square" stroke-miterlimit="10" d="  M272.076,334.64c10.175,0.632,15.58,4.087,24.75-2.25c-10.197,22.755,22.939,51.313-11.25,51.75  C254.049,384.543,278.477,356.863,272.076,334.64z"/>
<line fill="none" stroke="#000000" stroke-width="2" stroke-linecap="square" stroke-miterlimit="10" x1="267.576" y1="330.14" x2="267.576" y2="330.14"/>
<path fill-rule="evenodd" clip-rule="evenodd" fill="#90A7D6" stroke="#000000" stroke-width="2" stroke-linecap="square" stroke-miterlimit="10" d="  M254.076,531.89c2.061,8.4,5.676,54.306,24.75,39.75c3.633-2.772,3.384-25.38,4.032-30.24  C283.855,533.923,260.856,533.281,254.076,531.89z"/>
<path fill-rule="evenodd" clip-rule="evenodd" fill="#90A7D6" stroke="#000000" stroke-width="2" stroke-linecap="square" stroke-miterlimit="10" d="  M290.826,535.64c7.752-3.421,17.291-4.577,25.5-6.75c-0.31,8.833,3.347,42.288-5.583,43.139  C291.076,573.902,294.634,552.947,290.826,535.64z"/>
<path fill="none" stroke="#000000" stroke-width="2" stroke-linecap="square" stroke-miterlimit="10" d="M284.076,336.89  c-6.563,12.273-8.16,31.89-12,47.25C290.988,384.66,285.442,352.66,284.076,336.89z"/>
<path fill="none" stroke="#000000" stroke-width="2" stroke-linecap="square" stroke-miterlimit="10" d="M290.826,337.64  c-4.469,15.664,0.954,28.464,5.25,43.5"/>
<path fill="none" stroke="#000000" stroke-width="2" stroke-linecap="square" stroke-miterlimit="10" d="M225.576,406.64  c11.659,7.719,23.864,14.778,36.75,20.25c3.244-4.642,7.05-14.614,7.5-20.25c-18.76-2.451-27.92-13.67-40.5-26.25"/>
<path fill="none" stroke="#000000" stroke-width="2" stroke-linecap="square" stroke-miterlimit="10" d="M335.826,382.64  c-18.376,8.238-51.963,12.469-43.5,39c16.25-3,32.5-6,48.75-9"/>
<path fill-rule="evenodd" clip-rule="evenodd" fill="#E4BE9D" stroke="#000000" stroke-width="2" stroke-linecap="square" stroke-miterlimit="10" d="  M267.576,413.39c12.057-10.161,16.74,9.365,12,19.5C273.558,445.756,257.809,427.406,267.576,413.39z"/>
<path fill-rule="evenodd" clip-rule="evenodd" fill="#E4BE9D" stroke="#000000" stroke-width="2" stroke-linecap="square" stroke-miterlimit="10" d="  M292.326,402.14c-13.205,2.246-18.233,11.388-9,24C293.48,422.091,295.747,413.387,292.326,402.14z"/>
<path fill-rule="evenodd" clip-rule="evenodd" fill="#ED1C24" stroke="#000000" stroke-width="2" stroke-linecap="square" stroke-miterlimit="10" d="  M269.826,406.64c-5-8-10-16-15-24c30.133-11.63,38.591-25.599,52.875,5.648c2.883,6.307-23.915,17.729-29.625,24.352  C275.326,410.64,272.576,408.64,269.826,406.64z"/>
<path fill-rule="evenodd" clip-rule="evenodd" fill="#ED1C24" stroke="#000000" stroke-width="2" stroke-linecap="square" stroke-miterlimit="10" d="  M292.326,421.64c11.879-5.267,22.992-6.242,27.75,6c-4.842,1.878-33.615,16.608-36.75,14.25  C273.963,434.846,285.808,423.792,292.326,421.64z"/>
<path fill-rule="evenodd" clip-rule="evenodd" fill="#6D6F71" stroke="#000000" stroke-width="2" stroke-linecap="square" stroke-miterlimit="10" d="  M263.826,571.64c-11.51-1.421-40.504,11.139-21,24.75C260.578,608.779,301.737,563.915,263.826,571.64z"/>
<path fill-rule="evenodd" clip-rule="evenodd" fill="#6D6F71" stroke="#000000" stroke-width="2" stroke-linecap="square" stroke-miterlimit="10" d="  M299.076,573.14c-6.274,19.557,30.999,29.23,39,8.25C326.182,574.618,312.737,569.397,299.076,573.14z"/>
<path fill-rule="evenodd" clip-rule="evenodd" fill="#6D6F71" stroke="#000000" stroke-width="2" stroke-linecap="square" stroke-miterlimit="10" d="  M391.326,324.89c6.806,28.216-31.635,7.107-33.709,29.355c-2.856,30.644-5.713,61.288-8.57,91.932  c-2.379,25.522-4.758,51.044-7.138,76.566c-0.17,1.823,58.822,14.482,65.917,14.396c22.928-0.277,49.348-11.078,71.79-16.115  c4.473-1.004-5.703-59.448-6.47-65.554c-3.985-31.749-7.972-63.499-11.957-95.248c-3.072-24.469-30.055-6.795-32.361-32.333  C416.876,337.841,400.621,338.037,391.326,324.89z"/>
<path fill="none" stroke="#000000" stroke-width="2" stroke-linecap="square" stroke-miterlimit="10" d="M391.326,339.14  c11.867,61.688,2.25,131.604,2.25,194.25"/>
<path fill="none" stroke="#000000" stroke-width="2" stroke-linecap="square" stroke-miterlimit="10" d="M434.078,342.14  c-24.155,50.748,1.789,133.427,6.75,187.5"/>
<path fill-rule="evenodd" clip-rule="evenodd" fill="#E4BE9D" stroke="#000000" stroke-width="2" stroke-linecap="square" stroke-miterlimit="10" d="  M434.078,302.39c1.601,42.046-43.926,42.144-44.252,0C389.492,259.265,435.814,259.493,434.078,302.39z"/>
<path fill-rule="evenodd" clip-rule="evenodd" fill="#FDF8C1" stroke="#000000" stroke-width="2" stroke-linecap="square" stroke-miterlimit="10" d="  M396.576,278.39c5.994,2.489,32.761,0.849,33.377,1.875c6.439,10.731,8.107,24.869,3.375,36.375  c34.622-18.921,10.424-65.408-21.751-68.625c-36.86-3.685-57.229,53.45-21.751,70.125  C387.625,304.245,387.89,289.707,396.576,278.39z"/>
<path fill-rule="evenodd" clip-rule="evenodd" fill="#FFFFFF" stroke="#000000" stroke-width="2" stroke-linecap="square" stroke-miterlimit="10" d="  M400.326,334.64c10.175,0.632,15.582,4.087,24.752-2.25c-10.196,22.755,22.94,51.315-11.252,51.75  C382.298,384.541,406.728,356.864,400.326,334.64z"/>
<line fill="none" stroke="#000000" stroke-width="2" stroke-linecap="square" stroke-miterlimit="10" x1="395.826" y1="330.14" x2="395.826" y2="330.14"/>
<path fill-rule="evenodd" clip-rule="evenodd" fill="#90A7D6" stroke="#000000" stroke-width="2" stroke-linecap="square" stroke-miterlimit="10" d="  M382.326,531.89c2.061,8.4,5.676,54.306,24.75,39.75c3.633-2.772,3.384-25.38,4.032-30.24  C412.105,533.923,389.106,533.281,382.326,531.89z"/>
<path fill-rule="evenodd" clip-rule="evenodd" fill="#90A7D6" stroke="#000000" stroke-width="2" stroke-linecap="square" stroke-miterlimit="10" d="  M419.078,535.64c7.752-3.421,17.291-4.577,25.5-6.75c-0.31,8.833,3.347,42.288-5.583,43.139  C419.328,573.902,422.886,552.947,419.078,535.64z"/>
<path fill="none" stroke="#000000" stroke-width="2" stroke-linecap="square" stroke-miterlimit="10" d="M411.576,336.89  c-5.449,13.304-7.377,31.76-11.25,47.25C419.376,384.664,413.801,352.497,411.576,336.89z"/>
<path fill="none" stroke="#000000" stroke-width="2" stroke-linecap="square" stroke-miterlimit="10" d="M419.078,337.64  c-4.469,15.664,0.954,28.464,5.25,43.5"/>
<path fill="none" stroke="#000000" stroke-width="2" stroke-linecap="square" stroke-miterlimit="10" d="M353.826,406.64  c11.659,7.719,23.864,14.778,36.75,20.25c3.244-4.642,7.05-14.614,7.5-20.25c-18.761-2.451-27.92-13.67-40.5-26.25"/>
<path fill="none" stroke="#000000" stroke-width="2" stroke-linecap="square" stroke-miterlimit="10" d="M464.078,382.64  c-18.377,8.238-51.963,12.469-43.5,39c16.25-3,32.5-6,48.75-9"/>
<path fill-rule="evenodd" clip-rule="evenodd" fill="#E4BE9D" stroke="#000000" stroke-width="2" stroke-linecap="square" stroke-miterlimit="10" d="  M395.826,413.39c12.057-10.161,16.74,9.365,12,19.5C401.808,445.756,386.059,427.406,395.826,413.39z"/>
<path fill-rule="evenodd" clip-rule="evenodd" fill="#E4BE9D" stroke="#000000" stroke-width="2" stroke-linecap="square" stroke-miterlimit="10" d="  M420.578,402.14c-13.206,2.245-18.236,11.387-9.002,24C421.732,422.092,423.999,413.388,420.578,402.14z"/>
<path fill-rule="evenodd" clip-rule="evenodd" fill="#ED1C24" stroke="#000000" stroke-width="2" stroke-linecap="square" stroke-miterlimit="10" d="  M398.076,406.64c-5-8-10-16-15-24c30.134-11.63,38.593-25.599,52.877,5.648c2.883,6.307-23.917,17.73-29.627,24.352  C403.576,410.64,400.826,408.64,398.076,406.64z"/>
<path fill-rule="evenodd" clip-rule="evenodd" fill="#ED1C24" stroke="#000000" stroke-width="2" stroke-linecap="square" stroke-miterlimit="10" d="  M420.578,421.64c11.804-5.204,22.906-6.465,27,6c-4.812,1.905-32.785,16.569-36.002,14.25  C402.043,435.018,414.221,423.738,420.578,421.64z"/>
<path fill-rule="evenodd" clip-rule="evenodd" fill="#6D6F71" stroke="#000000" stroke-width="2" stroke-linecap="square" stroke-miterlimit="10" d="  M392.076,571.64c-11.51-1.421-40.504,11.139-21,24.75C389.222,609.053,429.267,563.788,392.076,571.64z"/>
<path fill-rule="evenodd" clip-rule="evenodd" fill="#6D6F71" stroke="#000000" stroke-width="2" stroke-linecap="square" stroke-miterlimit="10" d="  M427.328,573.14c-6.274,19.557,30.999,29.23,39,8.25C454.434,574.618,440.989,569.397,427.328,573.14z"/>
<path fill-rule="evenodd" clip-rule="evenodd" fill="#6D6F71" stroke="#000000" stroke-width="2" stroke-linecap="square" stroke-miterlimit="10" d="  M516.578,324.89c6.807,28.216-31.635,7.107-33.709,29.355c-2.856,30.644-5.713,61.288-8.57,91.932  c-2.379,25.522-4.758,51.044-7.137,76.566c-0.17,1.823,58.822,14.482,65.916,14.396c22.927-0.277,49.347-11.078,71.788-16.115  c4.472-1.005-5.703-59.448-6.47-65.554c-3.985-31.749-7.972-63.499-11.957-95.248c-3.072-24.469-30.055-6.795-32.361-32.333  C542.059,337.638,525.86,338.214,516.578,324.89z"/>
<path fill="none" stroke="#000000" stroke-width="2" stroke-linecap="square" stroke-miterlimit="10" d="M516.578,339.14  c8.101,63.345,1.5,130.468,1.5,194.25"/>
<path fill="none" stroke="#000000" stroke-width="2" stroke-linecap="square" stroke-miterlimit="10" d="M559.328,342.14  c-24.136,50.854,1.274,133.282,6,187.5"/>
<path fill-rule="evenodd" clip-rule="evenodd" fill="#E4BE9D" stroke="#000000" stroke-width="2" stroke-linecap="square" stroke-miterlimit="10" d="  M559.328,302.39c0.498,42.166-44.652,42.023-45,0C513.974,259.476,559.929,259.298,559.328,302.39z"/>
<path fill-rule="evenodd" clip-rule="evenodd" fill="#FDF8C1" stroke="#000000" stroke-width="2" stroke-linecap="square" stroke-miterlimit="10" d="  M521.828,278.39c5.559,2.383,32.989,1.847,33,1.875c4.906,12.264,9.15,23.451,3.75,36.375c33.67-19.367,10.447-65.405-21.75-68.625  c-37.363-3.736-56.505,51.632-22.5,70.125C512.585,304.26,513.096,289.608,521.828,278.39z"/>
<path fill-rule="evenodd" clip-rule="evenodd" fill="#FFFFFF" stroke="#000000" stroke-width="2" stroke-linecap="square" stroke-miterlimit="10" d="  M525.578,334.64c10.175,0.632,15.58,4.087,24.75-2.25c-9.656,21.885,21.215,52.227-12,51.75  C508.936,383.719,529.349,356.672,525.578,334.64z"/>
<line fill="none" stroke="#000000" stroke-width="2" stroke-linecap="square" stroke-miterlimit="10" x1="521.078" y1="330.14" x2="521.078" y2="330.14"/>
<path fill-rule="evenodd" clip-rule="evenodd" fill="#90A7D6" stroke="#000000" stroke-width="2" stroke-linecap="square" stroke-miterlimit="10" d="  M507.578,531.89c2.218,9.042,5.279,52.933,24,39.75c3.642-2.564,3.965-25.488,4.704-30.24  C537.44,533.951,514.337,533.277,507.578,531.89z"/>
<path fill-rule="evenodd" clip-rule="evenodd" fill="#90A7D6" stroke="#000000" stroke-width="2" stroke-linecap="square" stroke-miterlimit="10" d="  M543.578,535.64c7.744-3.429,17.295-4.578,25.5-6.75c-0.158,9.015,4.194,42.301-5.027,43.139  C543.765,573.874,547.526,553.586,543.578,535.64z"/>
<path fill="none" stroke="#000000" stroke-width="2" stroke-linecap="square" stroke-miterlimit="10" d="M536.828,336.89  c-5.449,13.304-7.378,31.76-11.25,47.25C543.685,384.046,539.159,352.165,536.828,336.89z"/>
<path fill="none" stroke="#000000" stroke-width="2" stroke-linecap="square" stroke-miterlimit="10" d="M543.578,337.64  c-3.51,15.636,1.739,28.588,6,43.5"/>
<path fill="none" stroke="#000000" stroke-width="2" stroke-linecap="square" stroke-miterlimit="10" d="M479.078,406.64  c11.449,8.105,23.7,15.068,36.75,20.25c3.07-4.685,6.465-14.662,6.75-20.25c-18.749-2.318-27.503-13.513-39.75-26.25"/>
<path fill="none" stroke="#000000" stroke-width="2" stroke-linecap="square" stroke-miterlimit="10" d="M589.328,382.64  c-18.377,8.238-51.963,12.469-43.5,39c16.25-3,32.5-6,48.75-9"/>
<path fill-rule="evenodd" clip-rule="evenodd" fill="#E4BE9D" stroke="#000000" stroke-width="2" stroke-linecap="square" stroke-miterlimit="10" d="  M521.078,413.39c11.231-10.18,20.481,13.139,10.5,20.625C518.054,444.158,514.163,423.149,521.078,413.39z"/>
<path fill-rule="evenodd" clip-rule="evenodd" fill="#E4BE9D" stroke="#000000" stroke-width="2" stroke-linecap="square" stroke-miterlimit="10" d="  M545.828,402.14c-14.311,1.143-18.568,11.974-9,24C546.982,422.091,549.249,413.387,545.828,402.14z"/>
<path fill-rule="evenodd" clip-rule="evenodd" fill="#ED1C24" stroke="#000000" stroke-width="2" stroke-linecap="square" stroke-miterlimit="10" d="  M522.578,406.64c-4.75-8-9.5-16-14.25-24c30.133-11.63,38.591-25.599,52.875,5.648c2.986,6.532-24.073,17.718-30.375,24.352  C528.078,410.64,525.328,408.64,522.578,406.64z"/>
<path fill-rule="evenodd" clip-rule="evenodd" fill="#ED1C24" stroke="#000000" stroke-width="2" stroke-linecap="square" stroke-miterlimit="10" d="  M545.828,421.64c11.804-5.204,22.906-6.465,27,6c-4.812,1.905-32.783,16.569-36,14.25  C527.297,435.018,539.471,423.739,545.828,421.64z"/>
<path fill-rule="evenodd" clip-rule="evenodd" fill="#6D6F71" stroke="#000000" stroke-width="2" stroke-linecap="square" stroke-miterlimit="10" d="  M517.328,571.64c-11.79-1.373-30.581,4.39-24,18.375C505.475,615.827,557.099,565.054,517.328,571.64z"/>
<path fill-rule="evenodd" clip-rule="evenodd" fill="#6D6F71" stroke="#000000" stroke-width="2" stroke-linecap="square" stroke-miterlimit="10" d="  M551.828,573.14c-4.752,19.27,31.652,29.675,39,8.25C579.003,574.352,565.534,569.341,551.828,573.14z"/>
</svg>