<svg xmlns="http://www.w3.org/2000/svg" xmlns:xlink="http://www.w3.org/1999/xlink" version="1.1" id="Layer_1" x="0px" y="0px" enable-background="new 0 0 822.05 841.89" xml:space="preserve" viewBox="201 252.73 419 340.73">
<path fill-rule="evenodd" clip-rule="evenodd" fill="#010101" stroke="#010101" stroke-width="2" stroke-linecap="square" stroke-miterlimit="10" d="  M258.25,576.226c-6.239-0.971-46.859-5.208-35.25,9.75C228.665,593.275,266.413,592.713,258.25,576.226z"/>
<path fill-rule="evenodd" clip-rule="evenodd" fill="#010101" stroke="#010101" stroke-width="2" stroke-linecap="square" stroke-miterlimit="10" d="  M245.5,507.226c1.749,17.023-2.463,64.594,11.25,70.5C255.774,560.154,262.339,512.339,245.5,507.226z"/>
<path fill-rule="evenodd" clip-rule="evenodd" fill="#010101" stroke="#010101" stroke-width="2" stroke-linecap="square" stroke-miterlimit="10" d="  M240.25,577.726c-5.821-1.662-47.145-5.604-35.25,9.75C209.087,592.751,256.361,592.876,240.25,577.726z"/>
<path fill-rule="evenodd" clip-rule="evenodd" fill="#010101" stroke="#010101" stroke-width="2" stroke-linecap="square" stroke-miterlimit="10" d="  M229,508.726c0.648,21.28,3.595,46.38,5.25,69c1.5,0.5,3,1,4.5,1.5c-1.432-32.935-10.295-63.195,11.25-90  C239.184,489.453,234.089,499.016,229,508.726z"/>
<path fill-rule="evenodd" clip-rule="evenodd" fill="#ED2224" stroke="#010101" stroke-width="2" stroke-linecap="square" stroke-miterlimit="10" d="  M259.75,452.476c1.28-17.834,11.525-78-20.25-78c-27.714,0-28.686,61.849-26.25,79.5C228.75,453.476,244.25,452.976,259.75,452.476z   M213.25,510.226c34.524,0,38.25,6.598,38.25-29.25c0,14.618-6.499,29.015,9.75,29.25c-0.5-18.75-1-37.5-1.5-56.25  C204.472,455.882,211.548,454.919,213.25,510.226z"/>
<path fill-rule="evenodd" clip-rule="evenodd" fill="#EECBA7" stroke="#010101" stroke-width="2" stroke-linecap="square" stroke-miterlimit="10" d="  M220.75,345.976c-12.208,34.496,36.019,36.849,45.75,1.5C251.066,349.529,236.029,348.626,220.75,345.976z"/>
<path fill-rule="evenodd" clip-rule="evenodd" fill="#2A286F" stroke="#010101" stroke-width="2" stroke-linecap="square" stroke-miterlimit="10" d="  M266.5,344.476c-20.623,2.433-47.542,2.28-64.5-8.25C219.962,340.592,257.957,305.781,266.5,344.476z"/>
<path fill="none" stroke="#010101" stroke-width="2" stroke-linecap="square" stroke-miterlimit="10" d="M259.75,461.476  c0.463,12.464-7.131,21.027-19.5,23.25"/>
<path fill="none" stroke="#010101" stroke-width="2" stroke-linecap="square" stroke-miterlimit="10" d="M240.25,463.726  c-9.118,3.427-17.496,2.049-22.5-5.25"/>
<path fill-rule="evenodd" clip-rule="evenodd" fill="#010101" stroke="#010101" stroke-width="2" stroke-linecap="square" stroke-miterlimit="10" d="  M247,442.726c-4.182-14.765-12.57-33.371-6.75-47.25c10.72,31.189,15.724,51.472-15.75,66  C230.99,454.003,238.491,447.75,247,442.726z"/>
<path fill-rule="evenodd" clip-rule="evenodd" fill="#ED2224" stroke="#010101" stroke-width="2" stroke-linecap="square" stroke-miterlimit="10" d="  M234.25,423.226c-3.082-7.969-12.463-49.459,9.75-43.5C258.604,383.644,259.808,427.865,234.25,423.226z"/>
<path fill-rule="evenodd" clip-rule="evenodd" fill="#BCBEC0" stroke="#010101" stroke-width="2" stroke-linecap="square" stroke-miterlimit="10" d="  M346.75,577.726c-6.146-0.957-49.054-4.843-33.75,11.25C319.355,595.659,355.114,593.134,346.75,577.726z"/>
<path fill-rule="evenodd" clip-rule="evenodd" fill="#BCBEC0" stroke="#010101" stroke-width="2" stroke-linecap="square" stroke-miterlimit="10" d="  M334,508.726c1.749,17.023-2.463,64.594,11.25,70.5C344.474,561.752,352.369,512.647,334,508.726z"/>
<path fill-rule="evenodd" clip-rule="evenodd" fill="#BCBEC0" stroke="#010101" stroke-width="2" stroke-linecap="square" stroke-miterlimit="10" d="  M328.75,579.226c-5.852-1.67-46.639-5.714-35.25,9.75C297.229,594.04,345.021,594.527,328.75,579.226z"/>
<path fill-rule="evenodd" clip-rule="evenodd" fill="#BCBEC0" stroke="#010101" stroke-width="2" stroke-linecap="square" stroke-miterlimit="10" d="  M317.5,510.226c0.336,21.242,4.145,46.345,5.25,69c1.5,0.5,3,1,4.5,1.5c-1.432-32.935-10.295-63.195,11.25-90  C328.223,491.49,322.646,500.75,317.5,510.226z"/>
<path fill-rule="evenodd" clip-rule="evenodd" fill="#BCBEC0" stroke="#010101" stroke-width="2" stroke-linecap="square" stroke-miterlimit="10" d="  M348.25,453.976c1.338-18.633,10.222-92.792-29.25-74.25c-13.846,6.504-17.218,41.636-18.361,54.777  C297.854,466.535,322.879,454.794,348.25,453.976z M301.75,511.726c34.524,0,38.25,6.598,38.25-29.25  c0,14.618-6.499,29.015,9.75,29.25c-0.5-18.75-1-37.5-1.5-56.25C293.128,457.376,300.031,456.731,301.75,511.726z"/>
<path fill-rule="evenodd" clip-rule="evenodd" fill="#BCBEC0" stroke="#010101" stroke-width="2" stroke-linecap="square" stroke-miterlimit="10" d="  M310,347.476c-13.855,31.886,35.444,39.897,45,1.5C340.078,350.975,324.753,350.566,310,347.476z"/>
<path fill-rule="evenodd" clip-rule="evenodd" fill="#BCBEC0" stroke="#010101" stroke-width="2" stroke-linecap="square" stroke-miterlimit="10" d="  M355,345.976c-19.909,2.349-48.658,3.411-64.5-8.25C309.011,342.324,346.452,307.26,355,345.976z"/>
<path fill-rule="evenodd" clip-rule="evenodd" fill="#BCBEC0" d="M348.25,463.726c0.167,12.275-7.345,20.721-19.5,22.5  C335.25,478.726,341.75,471.226,348.25,463.726z"/>
<path fill="none" stroke="#010101" stroke-width="2" stroke-linecap="square" stroke-miterlimit="10" d="M348.25,463.726  c0.167,12.275-7.345,20.721-19.5,22.5"/>
<path fill-rule="evenodd" clip-rule="evenodd" fill="#BCBEC0" d="M328.75,465.226c-10.018,1.219-16.793,3.149-22.5-5.25  C313.471,461.661,321.916,462.394,328.75,465.226z"/>
<path fill="none" stroke="#010101" stroke-width="2" stroke-linecap="square" stroke-miterlimit="10" d="M328.75,465.226  c-9.071,3.363-17.601,1.961-22.5-5.25"/>
<path fill-rule="evenodd" clip-rule="evenodd" fill="#BCBEC0" stroke="#010101" stroke-width="2" stroke-linecap="square" stroke-miterlimit="10" d="  M335.5,444.226c-4.143-14.432-12.603-33.233-6.75-46.5c12.536,30.181,13.991,51.214-15.75,66  C319.685,456.281,327.185,449.779,335.5,444.226z"/>
<path fill-rule="evenodd" clip-rule="evenodd" fill="#BCBEC0" stroke="#010101" stroke-width="2" stroke-linecap="square" stroke-miterlimit="10" d="  M322.75,424.726c-2.973-9.48-12.879-45.29,8.25-43.5C344.656,382.383,350.687,429.796,322.75,424.726z"/>
<path fill-rule="evenodd" clip-rule="evenodd" fill="#BCBEC0" stroke="#010101" stroke-width="2" stroke-linecap="square" stroke-miterlimit="10" d="  M435.25,577.726c-6.183-0.977-48.965-4.801-33.75,11.25C407.827,595.651,443.62,593.145,435.25,577.726z"/>
<path fill-rule="evenodd" clip-rule="evenodd" fill="#BCBEC0" stroke="#010101" stroke-width="2" stroke-linecap="square" stroke-miterlimit="10" d="  M422.5,508.726c1.749,17.023-2.463,64.594,11.25,70.5C432.974,561.752,440.869,512.647,422.5,508.726z"/>
<path fill-rule="evenodd" clip-rule="evenodd" fill="#BCBEC0" stroke="#010101" stroke-width="2" stroke-linecap="square" stroke-miterlimit="10" d="  M418,579.226c-7.263-2.04-44.926-6.733-36,9.75C383.948,592.574,432.12,596.082,418,579.226z"/>
<path fill-rule="evenodd" clip-rule="evenodd" fill="#BCBEC0" stroke="#010101" stroke-width="2" stroke-linecap="square" stroke-miterlimit="10" d="  M406.75,510.226c-0.412,19.611,3.416,46.779,4.5,69c1.5,0.5,3,1,4.5,1.5c-1.432-32.935-10.295-63.195,11.25-90  C416.825,492.496,411.498,499.852,406.75,510.226z"/>
<path fill-rule="evenodd" clip-rule="evenodd" fill="#BCBEC0" stroke="#010101" stroke-width="2" stroke-linecap="square" stroke-miterlimit="10" d="  M436.75,453.976c1.38-19.221,10.498-91.11-28.5-74.25c-14.581,6.304-17.931,41.204-19.111,54.777  C386.354,466.535,411.379,454.794,436.75,453.976z M390.25,511.726c34.802,0,39,6.887,39-29.25c0,14.212-6.304,28.442,9,29.25  c-0.5-18.75-1-37.5-1.5-56.25C381.628,457.376,388.531,456.731,390.25,511.726z"/>
<path fill-rule="evenodd" clip-rule="evenodd" fill="#BCBEC0" stroke="#010101" stroke-width="2" stroke-linecap="square" stroke-miterlimit="10" d="  M398.5,347.476c-12.228,34.418,36.973,38.868,45,1.5C428.578,350.975,413.253,350.566,398.5,347.476z"/>
<path fill-rule="evenodd" clip-rule="evenodd" fill="#BCBEC0" stroke="#010101" stroke-width="2" stroke-linecap="square" stroke-miterlimit="10" d="  M443.5,345.976c-19.899,2.373-48.673,3.31-64.5-8.25C396.563,341.95,436.831,307.516,443.5,345.976z"/>
<path fill-rule="evenodd" clip-rule="evenodd" fill="#BCBEC0" d="M436.75,463.726c0.313,12.128-6.829,20.362-18.75,22.5  C424.25,478.726,430.5,471.226,436.75,463.726z"/>
<path fill="none" stroke="#010101" stroke-width="2" stroke-linecap="square" stroke-miterlimit="10" d="M436.75,463.726  c0.313,12.128-6.829,20.362-18.75,22.5"/>
<path fill-rule="evenodd" clip-rule="evenodd" fill="#BCBEC0" d="M418,465.226c-10.182,1.205-16.96,3.155-23.25-5.25  C402.275,461.675,410.811,462.468,418,465.226z"/>
<path fill="none" stroke="#010101" stroke-width="2" stroke-linecap="square" stroke-miterlimit="10" d="M418,465.226  c-9.162,3.42-17.831,1.991-23.25-5.25"/>
<path fill-rule="evenodd" clip-rule="evenodd" fill="#BCBEC0" stroke="#010101" stroke-width="2" stroke-linecap="square" stroke-miterlimit="10" d="  M424,444.226c-3.906-14.258-12.707-34.537-6-46.5c3.284,10.359,6.735,24.091,6,35.25c-1.18,17.907-0.767,19.444-22.5,30.75  C408.185,456.281,415.686,449.779,424,444.226z"/>
<path fill-rule="evenodd" clip-rule="evenodd" fill="#BCBEC0" stroke="#010101" stroke-width="2" stroke-linecap="square" stroke-miterlimit="10" d="  M411.25,424.726c-2.543-8.816-11.75-45.633,8.25-43.5C434.453,382.821,439.693,429.897,411.25,424.726z"/>
<path fill-rule="evenodd" clip-rule="evenodd" fill="#BCBEC0" stroke="#010101" stroke-width="2" stroke-linecap="square" stroke-miterlimit="10" d="  M527.5,574.726c-6.067-0.944-45.782-5.868-36,9.75C495.62,591.054,536.095,592.084,527.5,574.726z"/>
<path fill-rule="evenodd" clip-rule="evenodd" fill="#BCBEC0" stroke="#010101" stroke-width="2" stroke-linecap="square" stroke-miterlimit="10" d="  M514,504.976c2.616,17.082-1.631,64.291,11.25,71.25C524.459,558.434,532.44,509.726,514,504.976z"/>
<path fill-rule="evenodd" clip-rule="evenodd" fill="#BCBEC0" stroke="#010101" stroke-width="2" stroke-linecap="square" stroke-miterlimit="10" d="  M509.5,576.226c-5.382-1.529-43.22-7.241-36.75,8.25C474.898,589.622,524.564,592.953,509.5,576.226z"/>
<path fill-rule="evenodd" clip-rule="evenodd" fill="#BCBEC0" stroke="#010101" stroke-width="2" stroke-linecap="square" stroke-miterlimit="10" d="  M498.25,507.226c0.481,15.807-1.187,61.474,9.75,70.5c-1.432-32.935-10.295-63.195,11.25-90  C508.471,487.918,502.738,497.139,498.25,507.226z"/>
<path fill-rule="evenodd" clip-rule="evenodd" fill="#BCBEC0" stroke="#010101" stroke-width="2" stroke-linecap="square" stroke-miterlimit="10" d="  M529,450.226c1.325-17.851,11.369-77.25-20.25-77.25c-27.597,0-29.397,61.899-27,79.5C497.5,451.726,513.25,450.976,529,450.226z   M481.75,508.726c34.802,0,39,6.887,39-29.25c0,14.618-6.499,29.015,9.75,29.25c-0.5-18.75-1-37.5-1.5-56.25  C473.53,454.389,480.04,453.155,481.75,508.726z"/>
<path fill-rule="evenodd" clip-rule="evenodd" fill="#BCBEC0" stroke="#010101" stroke-width="2" stroke-linecap="square" stroke-miterlimit="10" d="  M490,344.476c-11.892,33.638,37.637,38.224,45,1.5C520.078,347.975,504.753,347.566,490,344.476z"/>
<path fill-rule="evenodd" clip-rule="evenodd" fill="#BCBEC0" stroke="#010101" stroke-width="2" stroke-linecap="square" stroke-miterlimit="10" d="  M535,342.226c-19.516,3.668-48.407,2.459-64.5-7.5C489.302,339.259,525.676,304.551,535,342.226z"/>
<path fill-rule="evenodd" clip-rule="evenodd" fill="#BCBEC0" d="M529,459.976c0.247,12.362-7.251,20.834-19.5,22.5  C516,474.976,522.5,467.476,529,459.976z"/>
<path fill="none" stroke="#010101" stroke-width="2" stroke-linecap="square" stroke-miterlimit="10" d="M529,459.976  c0.247,12.362-7.251,20.834-19.5,22.5"/>
<path fill-rule="evenodd" clip-rule="evenodd" fill="#BCBEC0" d="M509.5,461.476c-9.782,1.72-16.295,3.792-22.5-4.5  C494.275,458.431,502.528,458.979,509.5,461.476z"/>
<path fill="none" stroke="#010101" stroke-width="2" stroke-linecap="square" stroke-miterlimit="10" d="M509.5,461.476  c-8.785,3.824-17.167,2.627-22.5-4.5"/>
<path fill-rule="evenodd" clip-rule="evenodd" fill="#BCBEC0" stroke="#010101" stroke-width="2" stroke-linecap="square" stroke-miterlimit="10" d="  M516.25,441.226c-4.831-14.252-12.396-33.738-6.75-47.25c9.63,32.727,16.053,49.979-15.75,66  C500.239,452.503,507.741,446.25,516.25,441.226z"/>
<path fill-rule="evenodd" clip-rule="evenodd" fill="#BCBEC0" stroke="#010101" stroke-width="2" stroke-linecap="square" stroke-miterlimit="10" d="  M502.75,421.726c-2.607-8.934-11.985-47.667,9.75-43.5C527.283,381.06,529.986,426.901,502.75,421.726z"/>
<path fill-rule="evenodd" clip-rule="evenodd" fill="#BCBEC0" stroke="#010101" stroke-width="2" stroke-linecap="square" stroke-miterlimit="10" d="  M610.75,576.226c-6.205-0.982-45.396-5.867-35.25,9.75C579.51,592.148,620.945,593.525,610.75,576.226z"/>
<path fill-rule="evenodd" clip-rule="evenodd" fill="#BCBEC0" stroke="#010101" stroke-width="2" stroke-linecap="square" stroke-miterlimit="10" d="  M598,507.226c1.768,17.199-2.232,63.261,11.25,70.5C608.463,560.02,615.994,511.38,598,507.226z"/>
<path fill-rule="evenodd" clip-rule="evenodd" fill="#BCBEC0" stroke="#010101" stroke-width="2" stroke-linecap="square" stroke-miterlimit="10" d="  M593.5,577.726c-7.145-2.007-45.615-6.636-36,9.75C559.909,591.582,607.36,594.272,593.5,577.726z"/>
<path fill-rule="evenodd" clip-rule="evenodd" fill="#BCBEC0" stroke="#010101" stroke-width="2" stroke-linecap="square" stroke-miterlimit="10" d="  M582.25,508.726c0.481,15.807-1.187,61.474,9.75,70.5c-1.812-33.34-11.361-63.334,11.25-90  C592.471,489.418,586.738,498.639,582.25,508.726z"/>
<path fill-rule="evenodd" clip-rule="evenodd" fill="#BCBEC0" stroke="#010101" stroke-width="2" stroke-linecap="square" stroke-miterlimit="10" d="  M612.25,452.476c1.924-17.859,12.188-78-19.875-78c-27.628,0-29.091,61.634-26.625,79.5  C581.25,453.476,596.75,452.976,612.25,452.476z M565.75,510.226c34.802,0,39,6.887,39-29.25c0,14.618-6.499,29.015,9.75,29.25  c-0.633-15.82-1.266-31.641-1.898-47.461c-0.637-15.905-18.868-8.15-32.574-7.678C552.547,456.035,565.038,487.083,565.75,510.226z"/>
<path fill-rule="evenodd" clip-rule="evenodd" fill="#BCBEC0" stroke="#010101" stroke-width="2" stroke-linecap="square" stroke-miterlimit="10" d="  M574,345.976c-12.096,34.331,36.29,37.611,45,1.5C604.078,349.475,588.753,349.066,574,345.976z"/>
<path fill-rule="evenodd" clip-rule="evenodd" fill="#BCBEC0" stroke="#010101" stroke-width="2" stroke-linecap="square" stroke-miterlimit="10" d="  M619,344.476c-20.498,2.542-47.664,2.165-64.5-8.25C571.594,340.208,612.342,306.076,619,344.476z"/>
<path fill-rule="evenodd" clip-rule="evenodd" fill="#BCBEC0" d="M612.25,461.476c0.574,12.292-6.639,20.748-18.75,23.25  C599.75,476.976,606,469.226,612.25,461.476z"/>
<path fill="none" stroke="#010101" stroke-width="2" stroke-linecap="square" stroke-miterlimit="10" d="M612.25,461.476  c0.574,12.292-6.639,20.748-18.75,23.25"/>
<path fill-rule="evenodd" clip-rule="evenodd" fill="#BCBEC0" d="M593.5,463.726c-10.07,1.414-16.682,3.236-22.5-5.25  C578.229,460.163,586.65,460.908,593.5,463.726z"/>
<path fill="none" stroke="#010101" stroke-width="2" stroke-linecap="square" stroke-miterlimit="10" d="M593.5,463.726  c-9.118,3.427-17.496,2.049-22.5-5.25"/>
<path fill-rule="evenodd" clip-rule="evenodd" fill="#BCBEC0" stroke="#010101" stroke-width="2" stroke-linecap="square" stroke-miterlimit="10" d="  M599.5,442.726c-3.984-14.72-12.553-34.514-6-47.25c9.394,31.281,16.035,52.559-16.5,66  C583.489,454.003,590.991,447.75,599.5,442.726z"/>
<path fill-rule="evenodd" clip-rule="evenodd" fill="#BCBEC0" stroke="#010101" stroke-width="2" stroke-linecap="square" stroke-miterlimit="10" d="  M586.75,423.226c-2.655-9.098-11.784-45.148,8.25-43.5C610.225,380.979,615.131,428.385,586.75,423.226z"/>
<path fill-rule="evenodd" clip-rule="evenodd" fill="#ED1C24" stroke="#010101" stroke-width="2" stroke-linecap="square" stroke-miterlimit="10" d="  M229.75,255.226c5.649-2.046,13.454-1.035,19.5-1.5c-1,12-2,24-3,36c5.521-0.762,11.854,2.024,17.25,0.75c-7.75,8-15.5,16-23.25,24  c-7-7.75-14-15.5-21-23.25c6.055,0.738,12.635-3.332,18.75-3C235.25,277.226,232.5,266.226,229.75,255.226z"/>
</svg>