<svg xmlns="http://www.w3.org/2000/svg" xmlns:xlink="http://www.w3.org/1999/xlink" version="1.1" id="Layer_1" x="0px" y="0px" enable-background="new 0 0 822.05 841.89" xml:space="preserve" viewBox="313.83 351.79 195.46 138.15">
<path fill-rule="evenodd" clip-rule="evenodd" fill="#F7F619" stroke="#000000" stroke-width="1.25" stroke-linecap="square" stroke-miterlimit="10" d="  M380.625,400.515c12.403-32.482,43.194-54.335,79.5-46.5c18.792,4.056,60.276,39.513,45.375,60.375  c-21.06,29.483-22.4,56.31-70.875,50.25C404.205,460.837,371.589,435.227,380.625,400.515z"/>
<path fill-rule="evenodd" clip-rule="evenodd" fill="#EAD82E" d="M451.125,372.765C449.24,373.677,450.259,373.184,451.125,372.765  L451.125,372.765z"/>
<path fill-rule="evenodd" clip-rule="evenodd" fill="#EAD82E" d="M445.875,416.265C444.088,415.716,444.358,415.8,445.875,416.265  L445.875,416.265z"/>
<path fill-rule="evenodd" clip-rule="evenodd" fill="#EAD82E" d="M446.625,392.265C444.838,391.716,445.108,391.8,446.625,392.265  L446.625,392.265z"/>
<path fill-rule="evenodd" clip-rule="evenodd" fill="#EAD82E" d="M469.125,407.265C467.768,406.608,467.129,406.299,469.125,407.265  L469.125,407.265z"/>
<path fill-rule="evenodd" clip-rule="evenodd" fill="#EAD82E" d="M424.125,390.015C422.426,390.015,422.426,390.015,424.125,390.015  L424.125,390.015z"/>
<path fill-rule="evenodd" clip-rule="evenodd" fill="#EAD82E" d="M446.625,423.765C445.352,423.765,445.352,423.765,446.625,423.765  L446.625,423.765z"/>
<path fill-rule="evenodd" clip-rule="evenodd" fill="#EAD82E" d="M441.375,405.015C440.018,404.358,439.379,404.049,441.375,405.015  L441.375,405.015z"/>
<path fill-rule="evenodd" clip-rule="evenodd" fill="#EAD82E" d="M420.375,429.765C419.171,429.611,417.964,429.458,420.375,429.765  L420.375,429.765z"/>
<path fill-rule="evenodd" clip-rule="evenodd" fill="#EAD82E" d="M421.125,405.765C419.921,405.611,418.714,405.457,421.125,405.765  L421.125,405.765z"/>
<path fill-rule="evenodd" clip-rule="evenodd" fill="#EAD82E" d="M442.875,420.015C440.99,420.927,442.009,420.434,442.875,420.015  L442.875,420.015z"/>
<path fill-rule="evenodd" clip-rule="evenodd" fill="#EAD82E" d="M397.875,403.515C396.602,403.515,396.602,403.515,397.875,403.515  L397.875,403.515z"/>
<path fill-rule="evenodd" clip-rule="evenodd" fill="#EAD82E" d="M421.125,437.265C419.338,436.716,419.608,436.799,421.125,437.265  L421.125,437.265z"/>
<path fill-rule="evenodd" clip-rule="evenodd" fill="#EAD82E" d="M425.625,453.015C423.999,452.885,422.709,452.783,425.625,453.015  L425.625,453.015z"/>
<path fill-rule="evenodd" clip-rule="evenodd" fill="#EAD82E" d="M456.375,444.015C455.171,443.861,453.964,443.708,456.375,444.015  L456.375,444.015z"/>
<path fill-rule="evenodd" clip-rule="evenodd" fill="#EAD82E" d="M453.375,417.765C450.994,417.765,450.994,417.765,453.375,417.765  L453.375,417.765z"/>
<path fill-rule="evenodd" clip-rule="evenodd" fill="#EAD82E" d="M475.125,432.765C473.426,432.765,473.426,432.765,475.125,432.765  L475.125,432.765z"/>
<path fill-rule="evenodd" clip-rule="evenodd" fill="#EAD82E" d="M430.125,415.515C428.95,415.694,428.558,415.754,430.125,415.515  L430.125,415.515z"/>
<path fill-rule="evenodd" clip-rule="evenodd" fill="#EAD82E" d="M449.625,458.265C447.926,458.265,447.926,458.265,449.625,458.265  L449.625,458.265z"/>
<path fill-rule="evenodd" clip-rule="evenodd" fill="#EAD82E" d="M448.125,430.515C446.152,430.515,446.152,430.515,448.125,430.515  L448.125,430.515z"/>
<path fill-rule="evenodd" clip-rule="evenodd" fill="#EAD82E" d="M455.625,397.515C453.244,397.515,453.244,397.515,455.625,397.515  L455.625,397.515z"/>
<path fill-rule="evenodd" clip-rule="evenodd" fill="#EAD82E" d="M455.625,373.515C454.352,373.515,454.352,373.515,455.625,373.515  L455.625,373.515z"/>
<path fill-rule="evenodd" clip-rule="evenodd" fill="#EAD82E" d="M478.125,388.515C476.426,388.515,476.426,388.515,478.125,388.515  L478.125,388.515z"/>
<path fill-rule="evenodd" clip-rule="evenodd" fill="#EAD82E" d="M433.125,372.015C431.768,371.358,431.129,371.049,433.125,372.015  L433.125,372.015z"/>
<path fill-rule="evenodd" clip-rule="evenodd" fill="#EAD82E" d="M456.375,405.015C453.964,405.323,455.171,405.169,456.375,405.015  L456.375,405.015z"/>
<path fill-rule="evenodd" clip-rule="evenodd" fill="#EAD82E" d="M451.125,386.265C448.744,386.265,448.744,386.265,451.125,386.265  L451.125,386.265z"/>
<path fill-rule="evenodd" clip-rule="evenodd" fill="#EAD82E" d="M463.125,387.765C461.608,388.23,461.338,388.314,463.125,387.765  L463.125,387.765z"/>
<path fill-rule="evenodd" clip-rule="evenodd" fill="#EAD82E" d="M463.875,363.765C461.879,364.731,462.518,364.422,463.875,363.765  L463.875,363.765z"/>
<path fill-rule="evenodd" clip-rule="evenodd" fill="#EAD82E" d="M486.375,378.765C484.676,378.765,484.676,378.765,486.375,378.765  L486.375,378.765z"/>
<path fill-rule="evenodd" clip-rule="evenodd" fill="#EAD82E" d="M441.375,362.265C439.588,361.716,439.858,361.8,441.375,362.265  L441.375,362.265z"/>
<path fill-rule="evenodd" clip-rule="evenodd" fill="#EAD82E" d="M463.875,395.265C461.99,396.177,463.009,395.684,463.875,395.265  L463.875,395.265z"/>
<path fill-rule="evenodd" clip-rule="evenodd" fill="#EAD82E" d="M458.625,376.515C457.108,376.98,456.838,377.064,458.625,376.515  L458.625,376.515z"/>
<path fill-rule="evenodd" clip-rule="evenodd" fill="#EAD82E" d="M469.875,437.265C468.671,437.111,467.464,436.958,469.875,437.265  L469.875,437.265z"/>
<path fill-rule="evenodd" clip-rule="evenodd" fill="#EAD82E" d="M470.625,413.265C469.421,413.111,468.214,412.957,470.625,413.265  L470.625,413.265z"/>
<path fill-rule="evenodd" clip-rule="evenodd" fill="#EAD82E" d="M492.375,428.265C491.509,427.846,490.49,427.353,492.375,428.265  L492.375,428.265z"/>
<path fill-rule="evenodd" clip-rule="evenodd" fill="#EAD82E" d="M448.125,411.015C445.744,411.015,445.744,411.015,448.125,411.015  L448.125,411.015z"/>
<path fill-rule="evenodd" clip-rule="evenodd" fill="#EAD82E" d="M472.125,447.765C470.426,447.765,470.426,447.765,472.125,447.765  L472.125,447.765z"/>
<path fill-rule="evenodd" clip-rule="evenodd" fill="#EAD82E" d="M465.375,426.015C464.288,425.599,462.915,425.073,465.375,426.015  L465.375,426.015z"/>
<path fill-rule="evenodd" clip-rule="evenodd" fill="#EAD82E" d="M412.875,436.515C411.701,436.695,411.307,436.754,412.875,436.515  L412.875,436.515z"/>
<path fill-rule="evenodd" clip-rule="evenodd" fill="#EAD82E" d="M413.625,412.515C412.108,412.98,411.837,413.064,413.625,412.515  L413.625,412.515z"/>
<path fill-rule="evenodd" clip-rule="evenodd" fill="#EAD82E" d="M436.125,427.515C434.426,427.515,434.426,427.515,436.125,427.515  L436.125,427.515z"/>
<path fill-rule="evenodd" clip-rule="evenodd" fill="#EAD82E" d="M391.125,411.015C389.337,410.466,389.608,410.55,391.125,411.015  L391.125,411.015z"/>
<path fill-rule="evenodd" clip-rule="evenodd" fill="#EAD82E" d="M414.375,444.015C411.882,444.168,412.02,444.16,414.375,444.015  L414.375,444.015z"/>
<path fill-rule="evenodd" clip-rule="evenodd" fill="#EAD82E" d="M408.375,425.265C406.675,425.265,406.675,425.265,408.375,425.265  L408.375,425.265z"/>
<path fill-rule="evenodd" clip-rule="evenodd" fill="#EAD82E" d="M439.125,409.515C437.921,409.361,436.714,409.207,439.125,409.515  L439.125,409.515z"/>
<path fill-rule="evenodd" clip-rule="evenodd" fill="#EAD82E" d="M433.875,452.265C431.494,452.265,431.494,452.265,433.875,452.265  L433.875,452.265z"/>
<path fill-rule="evenodd" clip-rule="evenodd" fill="#EAD82E" d="M418.875,448.515C416.494,448.515,416.494,448.515,418.875,448.515  L418.875,448.515z"/>
<path fill-rule="evenodd" clip-rule="evenodd" fill="#EAD82E" d="M454.125,450.015C451.744,450.015,451.744,450.015,454.125,450.015  L454.125,450.015z"/>
<path fill-rule="evenodd" clip-rule="evenodd" fill="#EAD82E" d="M434.625,459.765C432.652,459.765,432.652,459.765,434.625,459.765  L434.625,459.765z"/>
<path fill-rule="evenodd" clip-rule="evenodd" fill="#EAD82E" d="M429.375,441.015C427.02,440.871,426.882,440.862,429.375,441.015  L429.375,441.015z"/>
<path fill-rule="evenodd" clip-rule="evenodd" fill="#EAD82E" d="M430.875,456.765C429.671,456.611,428.464,456.458,430.875,456.765  L430.875,456.765z"/>
<path fill-rule="evenodd" clip-rule="evenodd" fill="#EAD82E" d="M440.625,453.765C438.926,453.765,438.926,453.765,440.625,453.765  L440.625,453.765z"/>
<path fill-rule="evenodd" clip-rule="evenodd" fill="#EAD82E" d="M442.875,433.515C441.358,433.981,441.088,434.064,442.875,433.515  L442.875,433.515z"/>
<path fill-rule="evenodd" clip-rule="evenodd" fill="#EAD82E" d="M443.625,409.515C442.108,409.98,441.838,410.064,443.625,409.515  L443.625,409.515z"/>
<path fill-rule="evenodd" clip-rule="evenodd" fill="#EAD82E" d="M463.125,430.515C461.338,429.966,461.608,430.049,463.125,430.515  L463.125,430.515z"/>
<path fill-rule="evenodd" clip-rule="evenodd" fill="#EAD82E" d="M443.625,441.015C441.629,441.981,442.268,441.672,443.625,441.015  L443.625,441.015z"/>
<path fill-rule="evenodd" clip-rule="evenodd" fill="#EAD82E" d="M438.375,422.265C436.676,422.265,436.676,422.265,438.375,422.265  L438.375,422.265z"/>
<path fill-rule="evenodd" clip-rule="evenodd" fill="#EAD82E" d="M451.125,424.515C448.77,424.371,448.632,424.362,451.125,424.515  L451.125,424.515z"/>
<path fill-rule="evenodd" clip-rule="evenodd" fill="#EAD82E" d="M451.125,400.515C449.558,400.276,449.95,400.336,451.125,400.515  L451.125,400.515z"/>
<path fill-rule="evenodd" clip-rule="evenodd" fill="#EAD82E" d="M473.625,414.765C472.108,415.23,471.838,415.314,473.625,414.765  L473.625,414.765z"/>
<path fill-rule="evenodd" clip-rule="evenodd" fill="#EAD82E" d="M428.625,398.265C426.926,398.265,426.926,398.265,428.625,398.265  L428.625,398.265z"/>
<path fill-rule="evenodd" clip-rule="evenodd" fill="#EAD82E" d="M451.875,432.015C450.671,431.861,449.464,431.708,451.875,432.015  L451.875,432.015z"/>
<path fill-rule="evenodd" clip-rule="evenodd" fill="#EAD82E" d="M446.625,412.515C443.947,413.104,444.381,413.009,446.625,412.515  L446.625,412.515z"/>
<path fill-rule="evenodd" clip-rule="evenodd" fill="#EAD82E" d="M464.625,457.515C462.838,456.966,463.108,457.049,464.625,457.515  L464.625,457.515z"/>
<path fill-rule="evenodd" clip-rule="evenodd" fill="#EAD82E" d="M435.375,447.015C433.676,447.015,433.676,447.015,435.375,447.015  L435.375,447.015z"/>
<path fill-rule="evenodd" clip-rule="evenodd" fill="#EAD82E" d="M430.875,361.515C429.176,361.515,429.176,361.515,430.875,361.515  L430.875,361.515z"/>
<path fill-rule="evenodd" clip-rule="evenodd" fill="#EAD82E" d="M401.625,405.015C399.653,405.015,399.653,405.015,401.625,405.015  L401.625,405.015z"/>
<path fill-rule="evenodd" clip-rule="evenodd" fill="#EAD82E" d="M402.375,381.015C399.994,381.015,399.994,381.015,402.375,381.015  L402.375,381.015z"/>
<path fill-rule="evenodd" clip-rule="evenodd" fill="#EAD82E" d="M424.125,396.015C422.338,395.466,422.608,395.55,424.125,396.015  L424.125,396.015z"/>
<path fill-rule="evenodd" clip-rule="evenodd" fill="#EAD82E" d="M402.375,412.515C400.675,412.515,400.675,412.515,402.375,412.515  L402.375,412.515z"/>
<path fill-rule="evenodd" clip-rule="evenodd" fill="#EAD82E" d="M397.125,393.765C395.921,393.611,394.713,393.457,397.125,393.765  L397.125,393.765z"/>
<path fill-rule="evenodd" clip-rule="evenodd" fill="#EAD82E" d="M398.625,409.515C396.837,408.966,397.108,409.05,398.625,409.515  L398.625,409.515z"/>
<path fill-rule="evenodd" clip-rule="evenodd" fill="#EAD82E" d="M408.375,406.515C406.675,406.515,406.675,406.515,408.375,406.515  L408.375,406.515z"/>
<path fill-rule="evenodd" clip-rule="evenodd" fill="#EAD82E" d="M410.625,386.265C409.108,386.73,408.837,386.814,410.625,386.265  L410.625,386.265z"/>
<path fill-rule="evenodd" clip-rule="evenodd" fill="#EAD82E" d="M443.625,358.515C442.108,358.98,441.838,359.064,443.625,358.515  L443.625,358.515z"/>
<path fill-rule="evenodd" clip-rule="evenodd" fill="#EAD82E" d="M433.875,377.265C431.902,377.265,431.902,377.265,433.875,377.265  L433.875,377.265z"/>
<path fill-rule="evenodd" clip-rule="evenodd" fill="#EAD82E" d="M411.375,393.765C409.858,394.23,409.587,394.314,411.375,393.765  L411.375,393.765z"/>
<path fill-rule="evenodd" clip-rule="evenodd" fill="#EAD82E" d="M406.125,375.015C404.425,375.015,404.425,375.015,406.125,375.015  L406.125,375.015z"/>
<path fill-rule="evenodd" clip-rule="evenodd" fill="#EAD82E" d="M418.875,377.265C417.788,376.849,416.415,376.323,418.875,377.265  L418.875,377.265z"/>
<path fill-rule="evenodd" clip-rule="evenodd" fill="#EAD82E" d="M454.125,362.265C452.499,362.136,451.209,362.033,454.125,362.265  L454.125,362.265z"/>
<path fill-rule="evenodd" clip-rule="evenodd" fill="#EAD82E" d="M441.375,367.515C439.858,367.98,439.588,368.064,441.375,367.515  L441.375,367.515z"/>
<path fill-rule="evenodd" clip-rule="evenodd" fill="#EAD82E" d="M451.125,357.015C449.921,356.861,448.714,356.707,451.125,357.015  L451.125,357.015z"/>
<path fill-rule="evenodd" clip-rule="evenodd" fill="#EAD82E" d="M419.625,384.765C417.838,384.216,418.108,384.3,419.625,384.765  L419.625,384.765z"/>
<path fill-rule="evenodd" clip-rule="evenodd" fill="#EAD82E" d="M421.875,366.015C420.358,366.48,420.088,366.564,421.875,366.015  L421.875,366.015z"/>
<path fill-rule="evenodd" clip-rule="evenodd" fill="#EAD82E" d="M425.625,402.015C423.926,402.015,423.926,402.015,425.625,402.015  L425.625,402.015z"/>
<path fill-rule="evenodd" clip-rule="evenodd" fill="#EAD82E" d="M403.125,399.765C401.425,399.765,401.425,399.765,403.125,399.765  L403.125,399.765z"/>
<path fill-rule="evenodd" clip-rule="evenodd" fill="#EAD82E" d="M493.125,400.515C491.426,400.515,491.426,400.515,493.125,400.515  L493.125,400.515z"/>
<path fill-rule="evenodd" clip-rule="evenodd" fill="#EAD82E" d="M490.125,416.265C488.426,416.265,488.426,416.265,490.125,416.265  L490.125,416.265z"/>
<path fill-rule="evenodd" clip-rule="evenodd" fill="#EAD82E" d="M467.625,414.015C465.652,414.015,465.652,414.015,467.625,414.015  L467.625,414.015z"/>
<path fill-rule="evenodd" clip-rule="evenodd" fill="#EAD82E" d="M484.875,429.015C483.088,428.466,483.358,428.549,484.875,429.015  L484.875,429.015z"/>
<path fill-rule="evenodd" clip-rule="evenodd" fill="#EAD82E" d="M482.625,423.765C481.058,423.526,481.45,423.585,482.625,423.765  L482.625,423.765z"/>
<path fill-rule="evenodd" clip-rule="evenodd" fill="#EAD82E" d="M460.125,421.515C458.426,421.515,458.426,421.515,460.125,421.515  L460.125,421.515z"/>
<path fill-rule="evenodd" clip-rule="evenodd" fill="#EAD82E" d="M470.625,415.515C468.926,415.515,468.926,415.515,470.625,415.515  L470.625,415.515z"/>
<path fill-rule="evenodd" clip-rule="evenodd" fill="#EAD82E" d="M471.375,391.515C469.676,391.515,469.676,391.515,471.375,391.515  L471.375,391.515z"/>
<path fill-rule="evenodd" clip-rule="evenodd" fill="#EAD82E" d="M493.875,406.515C491.494,406.515,491.494,406.515,493.875,406.515  L493.875,406.515z"/>
<path fill-rule="evenodd" clip-rule="evenodd" fill="#EAD82E" d="M471.375,423.015C469.676,423.015,469.676,423.015,471.375,423.015  L471.375,423.015z"/>
<path fill-rule="evenodd" clip-rule="evenodd" fill="#EAD82E" d="M466.125,404.265C464.426,404.265,464.426,404.265,466.125,404.265  L466.125,404.265z"/>
<path fill-rule="evenodd" clip-rule="evenodd" fill="#EAD82E" d="M467.625,420.015C465.926,420.015,465.926,420.015,467.625,420.015  L467.625,420.015z"/>
<path fill-rule="evenodd" clip-rule="evenodd" fill="#EAD82E" d="M477.375,417.015C475.858,417.48,475.588,417.564,477.375,417.015  L477.375,417.015z"/>
<path fill-rule="evenodd" clip-rule="evenodd" fill="#EAD82E" d="M479.625,397.515C478.268,396.858,477.629,396.549,479.625,397.515  L479.625,397.515z"/>
<path fill-rule="evenodd" clip-rule="evenodd" fill="#EAD82E" d="M480.375,405.015C478.808,404.776,479.2,404.836,480.375,405.015  L480.375,405.015z"/>
<path fill-rule="evenodd" clip-rule="evenodd" fill="#EAD82E" d="M487.875,387.765C486.176,387.765,486.176,387.765,487.875,387.765  L487.875,387.765z"/>
<path fill-rule="evenodd" clip-rule="evenodd" fill="#EAD82E" d="M488.625,395.265C486.926,395.265,486.926,395.265,488.625,395.265  L488.625,395.265z"/>
<path fill-rule="evenodd" clip-rule="evenodd" fill="#EAD82E" d="M494.625,412.515C493.352,412.515,493.352,412.515,494.625,412.515  L494.625,412.515z"/>
<path fill-rule="evenodd" clip-rule="evenodd" fill="#EAD82E" d="M472.125,410.265C470.608,410.73,470.338,410.814,472.125,410.265  L472.125,410.265z"/>
<path fill-rule="evenodd" clip-rule="evenodd" fill="#EAD82E" d="M409.875,429.765C408.517,429.108,407.878,428.799,409.875,429.765  L409.875,429.765z"/>
<path fill-rule="evenodd" clip-rule="evenodd" fill="#EAD82E" d="M387.375,404.265C385.858,404.73,385.587,404.814,387.375,404.265  L387.375,404.265z"/>
<path fill-rule="evenodd" clip-rule="evenodd" fill="#EAD82E" d="M472.125,372.765C470.426,372.765,470.426,372.765,472.125,372.765  L472.125,372.765z"/>
<path fill-rule="evenodd" clip-rule="evenodd" fill="#EAD82E" d="M493.875,390.015C492.358,390.48,492.088,390.564,493.875,390.015  L493.875,390.015z"/>
<path fill-rule="evenodd" clip-rule="evenodd" fill="#EAD82E" d="M487.875,382.515C486.671,382.361,485.464,382.207,487.875,382.515  L487.875,382.515z"/>
<path fill-rule="evenodd" clip-rule="evenodd" fill="#EAD82E" d="M465.375,380.265C462.994,380.265,462.994,380.265,465.375,380.265  L465.375,380.265z"/>
<path fill-rule="evenodd" clip-rule="evenodd" fill="#EAD82E" d="M475.125,374.265C473.426,374.265,473.426,374.265,475.125,374.265  L475.125,374.265z"/>
<path fill-rule="evenodd" clip-rule="evenodd" fill="#EAD82E" d="M388.125,420.015C385.209,420.247,386.499,420.145,388.125,420.015  L388.125,420.015z"/>
<path fill-rule="evenodd" clip-rule="evenodd" fill="#EAD82E" d="M391.125,394.515C389.608,394.98,389.337,395.064,391.125,394.515  L391.125,394.515z"/>
<path fill-rule="evenodd" clip-rule="evenodd" fill="#EAD82E" d="M475.875,381.765C474.176,381.765,474.176,381.765,475.875,381.765  L475.875,381.765z"/>
<path fill-rule="evenodd" clip-rule="evenodd" fill="#EAD82E" d="M470.625,363.015C468.926,363.015,468.926,363.015,470.625,363.015  L470.625,363.015z"/>
<path fill-rule="evenodd" clip-rule="evenodd" fill="#EAD82E" d="M472.125,378.765C470.426,378.765,470.426,378.765,472.125,378.765  L472.125,378.765z"/>
<path fill-rule="evenodd" clip-rule="evenodd" fill="#EAD82E" d="M482.625,375.765C479.947,376.354,480.381,376.259,482.625,375.765  L482.625,375.765z"/>
<path fill-rule="evenodd" clip-rule="evenodd" fill="#EAD82E" d="M396.375,426.015C394.675,426.015,394.675,426.015,396.375,426.015  L396.375,426.015z"/>
<path fill-rule="evenodd" clip-rule="evenodd" fill="#EAD82E" d="M397.125,433.515C395.425,433.515,395.425,433.515,397.125,433.515  L397.125,433.515z"/>
<path fill-rule="evenodd" clip-rule="evenodd" fill="#EAD82E" d="M404.625,416.265C402.653,416.265,402.653,416.265,404.625,416.265  L404.625,416.265z"/>
<path fill-rule="evenodd" clip-rule="evenodd" fill="#EAD82E" d="M405.375,423.765C403.675,423.765,403.675,423.765,405.375,423.765  L405.375,423.765z"/>
<path fill-rule="evenodd" clip-rule="evenodd" fill="#EAD82E" d="M392.625,401.265C390.722,400.779,390.152,400.633,392.625,401.265  L392.625,401.265z"/>
<path fill-rule="evenodd" clip-rule="evenodd" fill="#EAD82E" d="M476.625,369.015C474.74,369.927,475.759,369.434,476.625,369.015  L476.625,369.015z"/>
<path fill-rule="evenodd" clip-rule="evenodd" fill="#EAD82E" d="M429.375,420.015C427.676,420.015,427.676,420.015,429.375,420.015  L429.375,420.015z"/>
<path fill-rule="evenodd" clip-rule="evenodd" fill="#EAD82E" d="M426.375,435.765C424.02,435.621,423.882,435.612,426.375,435.765  L426.375,435.765z"/>
<path fill-rule="evenodd" clip-rule="evenodd" fill="#EAD82E" d="M403.125,433.515C401.852,433.515,401.852,433.515,403.125,433.515  L403.125,433.515z"/>
<path fill-rule="evenodd" clip-rule="evenodd" fill="#EAD82E" d="M420.375,456.015C418.676,456.015,418.676,456.015,420.375,456.015  L420.375,456.015z"/>
<path fill-rule="evenodd" clip-rule="evenodd" fill="#EAD82E" d="M418.875,442.515C417.358,442.981,417.088,443.064,418.875,442.515  L418.875,442.515z"/>
<path fill-rule="evenodd" clip-rule="evenodd" fill="#EAD82E" d="M396.375,441.015C394.587,440.466,394.858,440.549,396.375,441.015  L396.375,441.015z"/>
<path fill-rule="evenodd" clip-rule="evenodd" fill="#EAD82E" d="M406.875,435.015C404.494,435.015,404.494,435.015,406.875,435.015  L406.875,435.015z"/>
<path fill-rule="evenodd" clip-rule="evenodd" fill="#EAD82E" d="M407.625,411.015C405.244,411.015,405.244,411.015,407.625,411.015  L407.625,411.015z"/>
<path fill-rule="evenodd" clip-rule="evenodd" fill="#EAD82E" d="M429.375,426.015C427.588,425.466,427.858,425.549,429.375,426.015  L429.375,426.015z"/>
<path fill-rule="evenodd" clip-rule="evenodd" fill="#EAD82E" d="M407.625,442.515C405.653,442.515,405.653,442.515,407.625,442.515  L407.625,442.515z"/>
<path fill-rule="evenodd" clip-rule="evenodd" fill="#EAD82E" d="M402.375,423.765C400.749,423.635,399.459,423.533,402.375,423.765  L402.375,423.765z"/>
<path fill-rule="evenodd" clip-rule="evenodd" fill="#EAD82E" d="M403.875,439.515C402.671,439.361,401.463,439.208,403.875,439.515  L403.875,439.515z"/>
<path fill-rule="evenodd" clip-rule="evenodd" fill="#EAD82E" d="M413.625,436.515C411.925,436.515,411.925,436.515,413.625,436.515  L413.625,436.515z"/>
<path fill-rule="evenodd" clip-rule="evenodd" fill="#EAD82E" d="M415.875,416.265C414.358,416.73,414.088,416.814,415.875,416.265  L415.875,416.265z"/>
<path fill-rule="evenodd" clip-rule="evenodd" fill="#EAD82E" d="M416.625,423.765C414.629,424.731,415.268,424.422,416.625,423.765  L416.625,423.765z"/>
<path fill-rule="evenodd" clip-rule="evenodd" fill="#EAD82E" d="M424.125,407.265C422.222,406.779,421.652,406.633,424.125,407.265  L424.125,407.265z"/>
<path fill-rule="evenodd" clip-rule="evenodd" fill="#EAD82E" d="M424.875,414.765C423.671,414.611,422.464,414.457,424.875,414.765  L424.875,414.765z"/>
<path fill-rule="evenodd" clip-rule="evenodd" fill="#EAD82E" d="M430.875,432.015C429.176,432.015,429.176,432.015,430.875,432.015  L430.875,432.015z"/>
<path fill-rule="evenodd" clip-rule="evenodd" fill="#EAD82E" d="M409.875,450.765C408.602,450.765,408.602,450.765,409.875,450.765  L409.875,450.765z"/>
<path fill-rule="evenodd" clip-rule="evenodd" fill="#EAD82E" d="M476.625,436.515C475.421,436.361,474.214,436.208,476.625,436.515  L476.625,436.515z"/>
<path fill-rule="evenodd" clip-rule="evenodd" fill="#EAD82E" d="M478.125,442.515C475.744,442.515,475.744,442.515,478.125,442.515  L478.125,442.515z"/>
<path fill-rule="evenodd" clip-rule="evenodd" fill="#EAD82E" d="M472.875,455.265C471.249,455.135,469.959,455.033,472.875,455.265  L472.875,455.265z"/>
<path fill-rule="evenodd" clip-rule="evenodd" fill="#EAD82E" d="M481.125,444.765C479.338,444.216,479.608,444.299,481.125,444.765  L481.125,444.765z"/>
<path fill-rule="evenodd" clip-rule="evenodd" fill="#EAD82E" d="M471.375,458.265C469.676,458.265,469.676,458.265,471.375,458.265  L471.375,458.265z"/>
<path fill-rule="evenodd" clip-rule="evenodd" fill="#EAD82E" d="M475.125,443.265C472.209,443.498,473.499,443.395,475.125,443.265  L475.125,443.265z"/>
<path fill-rule="evenodd" clip-rule="evenodd" fill="#EAD82E" d="M457.875,459.765C456.602,459.765,456.602,459.765,457.875,459.765  L457.875,459.765z"/>
<path fill-rule="evenodd" clip-rule="evenodd" fill="#EAD82E" d="M467.625,450.765C465.926,450.765,465.926,450.765,467.625,450.765  L467.625,450.765z"/>
<path fill-rule="evenodd" clip-rule="evenodd" fill="#EAD82E" d="M478.125,444.765C476.426,444.765,476.426,444.765,478.125,444.765  L478.125,444.765z"/>
<path fill-rule="evenodd" clip-rule="evenodd" fill="#EAD82E" d="M445.875,459.765C443.197,460.354,443.631,460.258,445.875,459.765  L445.875,459.765z"/>
<path fill-rule="evenodd" clip-rule="evenodd" fill="#EAD82E" d="M478.875,452.265C477.358,452.731,477.088,452.814,478.875,452.265  L478.875,452.265z"/>
<path fill-rule="evenodd" clip-rule="evenodd" fill="#EAD82E" d="M475.125,449.265C473.426,449.265,473.426,449.265,475.125,449.265  L475.125,449.265z"/>
<path fill-rule="evenodd" clip-rule="evenodd" fill="#EAD82E" d="M484.875,447.015C483.518,446.358,482.879,446.049,484.875,447.015  L484.875,447.015z"/>
<path fill-rule="evenodd" clip-rule="evenodd" fill="#EAD82E" d="M490.875,435.015C489.788,434.599,488.415,434.073,490.875,435.015  L490.875,435.015z"/>
<path fill-rule="evenodd" clip-rule="evenodd" fill="#EAD82E" d="M479.625,440.265C478.268,439.608,477.629,439.299,479.625,440.265  L479.625,440.265z"/>
<path fill-rule="evenodd" clip-rule="evenodd" fill="#F3E733" stroke="#000000" stroke-width="1.25" stroke-linecap="square" stroke-miterlimit="10" d="  M321.375,402.015c-20.585,41.26,6.748,91.653,55.5,87C358.375,460.015,339.875,431.015,321.375,402.015z"/>
<path fill-rule="evenodd" clip-rule="evenodd" fill="#F4EFA2" stroke="#000000" stroke-width="1.25" stroke-linecap="square" stroke-miterlimit="10" d="  M367.125,379.515C283.53,373.029,319.924,507.999,387,485.64C444.163,466.585,418.84,386.383,367.125,379.515z"/>
<path fill-rule="evenodd" clip-rule="evenodd" fill="#F3E733" stroke="#000000" stroke-width="0.75" stroke-linecap="square" stroke-miterlimit="10" d="  M368.625,436.515c-2.14,6.378-26.227,63.985,9.75,45C393.562,473.5,376.664,438.254,368.625,436.515z"/>
<path fill-rule="evenodd" clip-rule="evenodd" fill="#F3E733" stroke="#000000" stroke-width="0.75" stroke-linecap="square" stroke-miterlimit="10" d="  M374.625,434.265c12.439,7.527,44.115,21.558,25.125,36.75C383.076,484.354,375.065,438.548,374.625,434.265z"/>
<path fill-rule="evenodd" clip-rule="evenodd" fill="#F3E733" stroke="#000000" stroke-width="0.75" stroke-linecap="square" stroke-miterlimit="10" d="  M377.625,429.015C380.433,391.559,444.544,418.49,377.625,429.015L377.625,429.015z"/>
<path fill-rule="evenodd" clip-rule="evenodd" fill="#F3E733" stroke="#000000" stroke-width="0.75" stroke-linecap="square" stroke-miterlimit="10" d="  M377.625,430.515C436.086,420.611,413.367,475.668,377.625,430.515L377.625,430.515z"/>
<path fill-rule="evenodd" clip-rule="evenodd" fill="#F3E733" stroke="#000000" stroke-width="0.75" stroke-linecap="square" stroke-miterlimit="10" d="  M364.125,433.515c2.055,9.149-5.207,38.904-21.75,34.5C312.557,460.078,358.571,437.377,364.125,433.515z"/>
<path fill-rule="evenodd" clip-rule="evenodd" fill="#F3E733" stroke="#000000" stroke-width="0.75" stroke-linecap="square" stroke-miterlimit="10" d="  M371.625,421.515C378.814,349.982,407.181,423.701,371.625,421.515L371.625,421.515z"/>
<path fill-rule="evenodd" clip-rule="evenodd" fill="#F3E733" stroke="#000000" stroke-width="0.75" stroke-linecap="square" stroke-miterlimit="10" d="  M367.125,423.015c-6.145-10.251-33.266-39.75-6-39.75C381.2,383.265,371.58,414.521,367.125,423.015z"/>
<path fill-rule="evenodd" clip-rule="evenodd" fill="#F3E733" stroke="#000000" stroke-width="0.75" stroke-linecap="square" stroke-miterlimit="10" d="  M362.625,426.015C291.851,392.438,365.346,380.363,362.625,426.015L362.625,426.015z"/>
<path fill-rule="evenodd" clip-rule="evenodd" fill="#F3E733" stroke="#000000" stroke-width="0.75" stroke-linecap="square" stroke-miterlimit="10" d="  M329.625,423.765c10.353,2.164,20.923,3.576,31.5,3.75C352.771,422.469,310.209,401.36,329.625,423.765z"/>
<path fill-rule="evenodd" clip-rule="evenodd" fill="#F3E733" stroke="#000000" stroke-width="0.75" stroke-linecap="square" stroke-miterlimit="10" d="  M361.875,432.015c-2.367-1.475-38.25-15.338-38.25,4.875C323.625,463.035,352.346,437.561,361.875,432.015z"/>
</svg>