<svg xmlns="http://www.w3.org/2000/svg" xmlns:xlink="http://www.w3.org/1999/xlink" version="1.1" id="Layer_1" x="0px" y="0px" enable-background="new 0 0 822.05 841.89" xml:space="preserve" viewBox="310.28 341.54 198.54 162.22">
<path fill-rule="evenodd" clip-rule="evenodd" fill="#F7F619" stroke="#000000" stroke-linecap="square" stroke-miterlimit="10" d="  M312.25,448.39c23.48-57.949,121.288-47.902,105,17.25C402.416,524.978,297.189,510.264,312.25,448.39z"/>
<path fill-rule="evenodd" clip-rule="evenodd" fill="#EAD82E" d="M373,424.39C371.115,425.302,372.134,424.809,373,424.39  L373,424.39z"/>
<path fill-rule="evenodd" clip-rule="evenodd" fill="#EAD82E" d="M368.5,461.89C366.712,461.341,366.983,461.424,368.5,461.89  L368.5,461.89z"/>
<path fill-rule="evenodd" clip-rule="evenodd" fill="#EAD82E" d="M369.25,441.64C367.462,441.091,367.733,441.174,369.25,441.64  L369.25,441.64z"/>
<path fill-rule="evenodd" clip-rule="evenodd" fill="#EAD82E" d="M388,454.39C386.642,453.733,386.003,453.424,388,454.39  L388,454.39z"/>
<path fill-rule="evenodd" clip-rule="evenodd" fill="#EAD82E" d="M349.75,439.39C348.05,439.39,348.05,439.39,349.75,439.39  L349.75,439.39z"/>
<path fill-rule="evenodd" clip-rule="evenodd" fill="#EAD82E" d="M369.25,468.64C367.977,468.64,367.977,468.64,369.25,468.64  L369.25,468.64z"/>
<path fill-rule="evenodd" clip-rule="evenodd" fill="#EAD82E" d="M364.75,452.14C363.392,451.483,362.753,451.174,364.75,452.14  L364.75,452.14z"/>
<path fill-rule="evenodd" clip-rule="evenodd" fill="#EAD82E" d="M346,473.89C344.796,473.736,343.588,473.583,346,473.89  L346,473.89z"/>
<path fill-rule="evenodd" clip-rule="evenodd" fill="#EAD82E" d="M346.75,452.89C345.546,452.736,344.338,452.583,346.75,452.89  L346.75,452.89z"/>
<path fill-rule="evenodd" clip-rule="evenodd" fill="#EAD82E" d="M365.5,464.89C363.615,465.802,364.634,465.309,365.5,464.89  L365.5,464.89z"/>
<path fill-rule="evenodd" clip-rule="evenodd" fill="#EAD82E" d="M327.25,451.39C325.977,451.39,325.977,451.39,327.25,451.39  L327.25,451.39z"/>
<path fill-rule="evenodd" clip-rule="evenodd" fill="#EAD82E" d="M346.75,479.89C344.962,479.341,345.233,479.424,346.75,479.89  L346.75,479.89z"/>
<path fill-rule="evenodd" clip-rule="evenodd" fill="#EAD82E" d="M351.25,493.39C349.624,493.26,348.334,493.158,351.25,493.39  L351.25,493.39z"/>
<path fill-rule="evenodd" clip-rule="evenodd" fill="#EAD82E" d="M377.5,485.89C376.296,485.736,375.088,485.583,377.5,485.89  L377.5,485.89z"/>
<path fill-rule="evenodd" clip-rule="evenodd" fill="#EAD82E" d="M374.5,463.39C372.119,463.39,372.119,463.39,374.5,463.39  L374.5,463.39z"/>
<path fill-rule="evenodd" clip-rule="evenodd" fill="#EAD82E" d="M393.25,476.14C391.55,476.14,391.55,476.14,393.25,476.14  L393.25,476.14z"/>
<path fill-rule="evenodd" clip-rule="evenodd" fill="#EAD82E" d="M355,461.14C353.826,461.32,353.432,461.379,355,461.14L355,461.14  z"/>
<path fill-rule="evenodd" clip-rule="evenodd" fill="#EAD82E" d="M371.5,497.89C369.8,497.89,369.8,497.89,371.5,497.89  L371.5,497.89z"/>
<path fill-rule="evenodd" clip-rule="evenodd" fill="#EAD82E" d="M370,473.89C368.028,473.89,368.028,473.89,370,473.89L370,473.89z  "/>
<path fill-rule="evenodd" clip-rule="evenodd" fill="#EAD82E" d="M376.75,446.14C374.369,446.14,374.369,446.14,376.75,446.14  L376.75,446.14z"/>
<path fill-rule="evenodd" clip-rule="evenodd" fill="#EAD82E" d="M376.75,425.14C375.477,425.14,375.477,425.14,376.75,425.14  L376.75,425.14z"/>
<path fill-rule="evenodd" clip-rule="evenodd" fill="#EAD82E" d="M396.25,437.89C394.55,437.89,394.55,437.89,396.25,437.89  L396.25,437.89z"/>
<path fill-rule="evenodd" clip-rule="evenodd" fill="#EAD82E" d="M357.25,424.39C355.892,423.733,355.253,423.424,357.25,424.39  L357.25,424.39z"/>
<path fill-rule="evenodd" clip-rule="evenodd" fill="#EAD82E" d="M377.5,452.14C375.088,452.448,376.296,452.294,377.5,452.14  L377.5,452.14z"/>
<path fill-rule="evenodd" clip-rule="evenodd" fill="#EAD82E" d="M373,436.39C370.619,436.39,370.619,436.39,373,436.39L373,436.39z  "/>
<path fill-rule="evenodd" clip-rule="evenodd" fill="#EAD82E" d="M383.5,437.89C381.983,438.356,381.712,438.439,383.5,437.89  L383.5,437.89z"/>
<path fill-rule="evenodd" clip-rule="evenodd" fill="#EAD82E" d="M383.5,416.89C381.503,417.856,382.142,417.547,383.5,416.89  L383.5,416.89z"/>
<path fill-rule="evenodd" clip-rule="evenodd" fill="#EAD82E" d="M403,429.64C401.3,429.64,401.3,429.64,403,429.64L403,429.64z"/>
<path fill-rule="evenodd" clip-rule="evenodd" fill="#EAD82E" d="M364.75,415.39C362.962,414.841,363.233,414.925,364.75,415.39  L364.75,415.39z"/>
<path fill-rule="evenodd" clip-rule="evenodd" fill="#EAD82E" d="M383.5,443.89C381.615,444.802,382.634,444.309,383.5,443.89  L383.5,443.89z"/>
<path fill-rule="evenodd" clip-rule="evenodd" fill="#EAD82E" d="M379,428.14C377.483,428.606,377.212,428.689,379,428.14  L379,428.14z"/>
<path fill-rule="evenodd" clip-rule="evenodd" fill="#EAD82E" d="M388.75,479.89C387.546,479.736,386.338,479.583,388.75,479.89  L388.75,479.89z"/>
<path fill-rule="evenodd" clip-rule="evenodd" fill="#EAD82E" d="M389.5,459.64C388.296,459.486,387.088,459.333,389.5,459.64  L389.5,459.64z"/>
<path fill-rule="evenodd" clip-rule="evenodd" fill="#EAD82E" d="M408.25,472.39C407.384,471.971,406.365,471.478,408.25,472.39  L408.25,472.39z"/>
<path fill-rule="evenodd" clip-rule="evenodd" fill="#EAD82E" d="M370,457.39C367.619,457.39,367.619,457.39,370,457.39L370,457.39z  "/>
<path fill-rule="evenodd" clip-rule="evenodd" fill="#EAD82E" d="M391,488.89C389.3,488.89,389.3,488.89,391,488.89L391,488.89z"/>
<path fill-rule="evenodd" clip-rule="evenodd" fill="#EAD82E" d="M385,470.14C383.913,469.724,382.541,469.198,385,470.14  L385,470.14z"/>
<path fill-rule="evenodd" clip-rule="evenodd" fill="#EAD82E" d="M340,479.14C338.826,479.32,338.432,479.379,340,479.14L340,479.14  z"/>
<path fill-rule="evenodd" clip-rule="evenodd" fill="#EAD82E" d="M340.75,458.89C339.233,459.356,338.962,459.439,340.75,458.89  L340.75,458.89z"/>
<path fill-rule="evenodd" clip-rule="evenodd" fill="#EAD82E" d="M360.25,471.64C358.55,471.64,358.55,471.64,360.25,471.64  L360.25,471.64z"/>
<path fill-rule="evenodd" clip-rule="evenodd" fill="#EAD82E" d="M321.25,457.39C319.462,456.841,319.733,456.924,321.25,457.39  L321.25,457.39z"/>
<path fill-rule="evenodd" clip-rule="evenodd" fill="#EAD82E" d="M341.5,485.89C339.007,486.043,339.145,486.035,341.5,485.89  L341.5,485.89z"/>
<path fill-rule="evenodd" clip-rule="evenodd" fill="#EAD82E" d="M336.25,469.39C334.55,469.39,334.55,469.39,336.25,469.39  L336.25,469.39z"/>
<path fill-rule="evenodd" clip-rule="evenodd" fill="#EAD82E" d="M362.5,455.89C361.296,455.736,360.088,455.583,362.5,455.89  L362.5,455.89z"/>
<path fill-rule="evenodd" clip-rule="evenodd" fill="#EAD82E" d="M358,492.64C355.619,492.64,355.619,492.64,358,492.64L358,492.64z  "/>
<path fill-rule="evenodd" clip-rule="evenodd" fill="#EAD82E" d="M345.25,489.64C342.869,489.64,342.869,489.64,345.25,489.64  L345.25,489.64z"/>
<path fill-rule="evenodd" clip-rule="evenodd" fill="#EAD82E" d="M375.25,491.14C372.869,491.14,372.869,491.14,375.25,491.14  L375.25,491.14z"/>
<path fill-rule="evenodd" clip-rule="evenodd" fill="#EAD82E" d="M358.75,499.39C356.778,499.39,356.778,499.39,358.75,499.39  L358.75,499.39z"/>
<path fill-rule="evenodd" clip-rule="evenodd" fill="#EAD82E" d="M354.25,483.64C351.895,483.496,351.757,483.487,354.25,483.64  L354.25,483.64z"/>
<path fill-rule="evenodd" clip-rule="evenodd" fill="#EAD82E" d="M355.75,497.14C354.546,496.986,353.338,496.833,355.75,497.14  L355.75,497.14z"/>
<path fill-rule="evenodd" clip-rule="evenodd" fill="#EAD82E" d="M364,494.14C362.3,494.14,362.3,494.14,364,494.14L364,494.14z"/>
<path fill-rule="evenodd" clip-rule="evenodd" fill="#EAD82E" d="M365.5,476.89C363.983,477.356,363.712,477.439,365.5,476.89  L365.5,476.89z"/>
<path fill-rule="evenodd" clip-rule="evenodd" fill="#EAD82E" d="M366.25,455.89C364.733,456.356,364.462,456.439,366.25,455.89  L366.25,455.89z"/>
<path fill-rule="evenodd" clip-rule="evenodd" fill="#EAD82E" d="M383.5,473.89C381.712,473.341,381.983,473.424,383.5,473.89  L383.5,473.89z"/>
<path fill-rule="evenodd" clip-rule="evenodd" fill="#EAD82E" d="M366.25,483.64C364.253,484.606,364.892,484.297,366.25,483.64  L366.25,483.64z"/>
<path fill-rule="evenodd" clip-rule="evenodd" fill="#EAD82E" d="M361.75,467.14C360.05,467.14,360.05,467.14,361.75,467.14  L361.75,467.14z"/>
<path fill-rule="evenodd" clip-rule="evenodd" fill="#EAD82E" d="M373,469.39C370.645,469.246,370.507,469.237,373,469.39  L373,469.39z"/>
<path fill-rule="evenodd" clip-rule="evenodd" fill="#EAD82E" d="M373,448.39C371.432,448.151,371.826,448.21,373,448.39L373,448.39  z"/>
<path fill-rule="evenodd" clip-rule="evenodd" fill="#EAD82E" d="M392.5,460.39C390.983,460.856,390.712,460.939,392.5,460.39  L392.5,460.39z"/>
<path fill-rule="evenodd" clip-rule="evenodd" fill="#EAD82E" d="M353.5,446.89C351.8,446.89,351.8,446.89,353.5,446.89  L353.5,446.89z"/>
<path fill-rule="evenodd" clip-rule="evenodd" fill="#EAD82E" d="M373.75,475.39C372.546,475.236,371.338,475.083,373.75,475.39  L373.75,475.39z"/>
<path fill-rule="evenodd" clip-rule="evenodd" fill="#EAD82E" d="M369.25,458.89C366.572,459.479,367.006,459.383,369.25,458.89  L369.25,458.89z"/>
<path fill-rule="evenodd" clip-rule="evenodd" fill="#EAD82E" d="M384.25,497.14C382.462,496.591,382.733,496.674,384.25,497.14  L384.25,497.14z"/>
<path fill-rule="evenodd" clip-rule="evenodd" fill="#EAD82E" d="M359.5,488.14C357.8,488.14,357.8,488.14,359.5,488.14  L359.5,488.14z"/>
<path fill-rule="evenodd" clip-rule="evenodd" fill="#EAD82E" d="M355.75,414.64C354.05,414.64,354.05,414.64,355.75,414.64  L355.75,414.64z"/>
<path fill-rule="evenodd" clip-rule="evenodd" fill="#EAD82E" d="M330.25,452.14C328.278,452.14,328.278,452.14,330.25,452.14  L330.25,452.14z"/>
<path fill-rule="evenodd" clip-rule="evenodd" fill="#EAD82E" d="M331,431.89C328.619,431.89,328.619,431.89,331,431.89L331,431.89z  "/>
<path fill-rule="evenodd" clip-rule="evenodd" fill="#EAD82E" d="M349.75,444.64C347.962,444.091,348.233,444.174,349.75,444.64  L349.75,444.64z"/>
<path fill-rule="evenodd" clip-rule="evenodd" fill="#EAD82E" d="M331,458.89C329.3,458.89,329.3,458.89,331,458.89L331,458.89z"/>
<path fill-rule="evenodd" clip-rule="evenodd" fill="#EAD82E" d="M326.5,442.39C325.296,442.236,324.088,442.083,326.5,442.39  L326.5,442.39z"/>
<path fill-rule="evenodd" clip-rule="evenodd" fill="#EAD82E" d="M328,455.89C326.212,455.341,326.483,455.424,328,455.89  L328,455.89z"/>
<path fill-rule="evenodd" clip-rule="evenodd" fill="#EAD82E" d="M336.25,453.64C334.55,453.64,334.55,453.64,336.25,453.64  L336.25,453.64z"/>
<path fill-rule="evenodd" clip-rule="evenodd" fill="#EAD82E" d="M337.75,436.39C336.233,436.856,335.962,436.939,337.75,436.39  L337.75,436.39z"/>
<path fill-rule="evenodd" clip-rule="evenodd" fill="#EAD82E" d="M366.25,412.39C364.733,412.855,364.462,412.939,366.25,412.39  L366.25,412.39z"/>
<path fill-rule="evenodd" clip-rule="evenodd" fill="#EAD82E" d="M358,428.14C356.028,428.14,356.028,428.14,358,428.14L358,428.14z  "/>
<path fill-rule="evenodd" clip-rule="evenodd" fill="#EAD82E" d="M338.5,442.39C336.983,442.856,336.712,442.939,338.5,442.39  L338.5,442.39z"/>
<path fill-rule="evenodd" clip-rule="evenodd" fill="#EAD82E" d="M334,426.64C332.3,426.64,332.3,426.64,334,426.64L334,426.64z"/>
<path fill-rule="evenodd" clip-rule="evenodd" fill="#EAD82E" d="M345.25,428.89C344.163,428.474,342.791,427.948,345.25,428.89  L345.25,428.89z"/>
<path fill-rule="evenodd" clip-rule="evenodd" fill="#EAD82E" d="M375.25,415.39C373.624,415.261,372.334,415.158,375.25,415.39  L375.25,415.39z"/>
<path fill-rule="evenodd" clip-rule="evenodd" fill="#EAD82E" d="M364.75,419.89C363.233,420.355,362.962,420.439,364.75,419.89  L364.75,419.89z"/>
<path fill-rule="evenodd" clip-rule="evenodd" fill="#EAD82E" d="M373,410.89C371.796,410.736,370.588,410.582,373,410.89  L373,410.89z"/>
<path fill-rule="evenodd" clip-rule="evenodd" fill="#EAD82E" d="M346,434.89C344.212,434.341,344.483,434.424,346,434.89  L346,434.89z"/>
<path fill-rule="evenodd" clip-rule="evenodd" fill="#EAD82E" d="M347.5,419.14C345.983,419.605,345.712,419.689,347.5,419.14  L347.5,419.14z"/>
<path fill-rule="evenodd" clip-rule="evenodd" fill="#EAD82E" d="M350.5,449.89C348.8,449.89,348.8,449.89,350.5,449.89  L350.5,449.89z"/>
<path fill-rule="evenodd" clip-rule="evenodd" fill="#EAD82E" d="M331.75,447.64C330.05,447.64,330.05,447.64,331.75,447.64  L331.75,447.64z"/>
<path fill-rule="evenodd" clip-rule="evenodd" fill="#EAD82E" d="M409,448.39C407.3,448.39,407.3,448.39,409,448.39L409,448.39z"/>
<path fill-rule="evenodd" clip-rule="evenodd" fill="#EAD82E" d="M406,461.89C404.3,461.89,404.3,461.89,406,461.89L406,461.89z"/>
<path fill-rule="evenodd" clip-rule="evenodd" fill="#EAD82E" d="M387.25,460.39C385.278,460.39,385.278,460.39,387.25,460.39  L387.25,460.39z"/>
<path fill-rule="evenodd" clip-rule="evenodd" fill="#EAD82E" d="M401.5,473.14C399.712,472.591,399.983,472.674,401.5,473.14  L401.5,473.14z"/>
<path fill-rule="evenodd" clip-rule="evenodd" fill="#EAD82E" d="M400,468.64C398.432,468.401,398.826,468.46,400,468.64L400,468.64  z"/>
<path fill-rule="evenodd" clip-rule="evenodd" fill="#EAD82E" d="M380.5,466.39C378.8,466.39,378.8,466.39,380.5,466.39  L380.5,466.39z"/>
<path fill-rule="evenodd" clip-rule="evenodd" fill="#EAD82E" d="M389.5,461.14C387.8,461.14,387.8,461.14,389.5,461.14  L389.5,461.14z"/>
<path fill-rule="evenodd" clip-rule="evenodd" fill="#EAD82E" d="M390.25,440.89C388.55,440.89,388.55,440.89,390.25,440.89  L390.25,440.89z"/>
<path fill-rule="evenodd" clip-rule="evenodd" fill="#EAD82E" d="M409.75,453.64C407.369,453.64,407.369,453.64,409.75,453.64  L409.75,453.64z"/>
<path fill-rule="evenodd" clip-rule="evenodd" fill="#EAD82E" d="M390.25,467.89C388.55,467.89,388.55,467.89,390.25,467.89  L390.25,467.89z"/>
<path fill-rule="evenodd" clip-rule="evenodd" fill="#EAD82E" d="M385.75,451.39C384.05,451.39,384.05,451.39,385.75,451.39  L385.75,451.39z"/>
<path fill-rule="evenodd" clip-rule="evenodd" fill="#EAD82E" d="M387.25,464.89C385.55,464.89,385.55,464.89,387.25,464.89  L387.25,464.89z"/>
<path fill-rule="evenodd" clip-rule="evenodd" fill="#EAD82E" d="M395.5,462.64C393.983,463.106,393.712,463.189,395.5,462.64  L395.5,462.64z"/>
<path fill-rule="evenodd" clip-rule="evenodd" fill="#EAD82E" d="M397,446.14C395.642,445.483,395.003,445.174,397,446.14  L397,446.14z"/>
<path fill-rule="evenodd" clip-rule="evenodd" fill="#EAD82E" d="M397.75,452.14C396.182,451.901,396.576,451.96,397.75,452.14  L397.75,452.14z"/>
<path fill-rule="evenodd" clip-rule="evenodd" fill="#EAD82E" d="M404.5,437.89C402.8,437.89,402.8,437.89,404.5,437.89  L404.5,437.89z"/>
<path fill-rule="evenodd" clip-rule="evenodd" fill="#EAD82E" d="M405.25,443.89C403.55,443.89,403.55,443.89,405.25,443.89  L405.25,443.89z"/>
<path fill-rule="evenodd" clip-rule="evenodd" fill="#EAD82E" d="M410.5,458.89C409.227,458.89,409.227,458.89,410.5,458.89  L410.5,458.89z"/>
<path fill-rule="evenodd" clip-rule="evenodd" fill="#EAD82E" d="M391,456.64C389.483,457.106,389.212,457.189,391,456.64  L391,456.64z"/>
<path fill-rule="evenodd" clip-rule="evenodd" fill="#EAD82E" d="M337,473.89C335.642,473.233,335.003,472.924,337,473.89  L337,473.89z"/>
<path fill-rule="evenodd" clip-rule="evenodd" fill="#EAD82E" d="M318.25,451.39C316.733,451.856,316.462,451.939,318.25,451.39  L318.25,451.39z"/>
<path fill-rule="evenodd" clip-rule="evenodd" fill="#EAD82E" d="M391,424.39C389.3,424.39,389.3,424.39,391,424.39L391,424.39z"/>
<path fill-rule="evenodd" clip-rule="evenodd" fill="#EAD82E" d="M409.75,439.39C408.233,439.856,407.962,439.939,409.75,439.39  L409.75,439.39z"/>
<path fill-rule="evenodd" clip-rule="evenodd" fill="#EAD82E" d="M404.5,433.39C403.296,433.236,402.088,433.083,404.5,433.39  L404.5,433.39z"/>
<path fill-rule="evenodd" clip-rule="evenodd" fill="#EAD82E" d="M385,431.14C382.619,431.14,382.619,431.14,385,431.14L385,431.14z  "/>
<path fill-rule="evenodd" clip-rule="evenodd" fill="#EAD82E" d="M393.25,425.89C391.55,425.89,391.55,425.89,393.25,425.89  L393.25,425.89z"/>
<path fill-rule="evenodd" clip-rule="evenodd" fill="#EAD82E" d="M319,464.89C316.084,465.123,317.374,465.02,319,464.89L319,464.89  z"/>
<path fill-rule="evenodd" clip-rule="evenodd" fill="#EAD82E" d="M321.25,443.14C319.733,443.606,319.462,443.689,321.25,443.14  L321.25,443.14z"/>
<path fill-rule="evenodd" clip-rule="evenodd" fill="#EAD82E" d="M394,432.64C392.3,432.64,392.3,432.64,394,432.64L394,432.64z"/>
<path fill-rule="evenodd" clip-rule="evenodd" fill="#EAD82E" d="M389.5,416.14C387.8,416.14,387.8,416.14,389.5,416.14  L389.5,416.14z"/>
<path fill-rule="evenodd" clip-rule="evenodd" fill="#EAD82E" d="M391,429.64C389.3,429.64,389.3,429.64,391,429.64L391,429.64z"/>
<path fill-rule="evenodd" clip-rule="evenodd" fill="#EAD82E" d="M400,427.39C397.322,427.979,397.756,427.883,400,427.39  L400,427.39z"/>
<path fill-rule="evenodd" clip-rule="evenodd" fill="#EAD82E" d="M325.75,470.14C324.05,470.14,324.05,470.14,325.75,470.14  L325.75,470.14z"/>
<path fill-rule="evenodd" clip-rule="evenodd" fill="#EAD82E" d="M326.5,476.89C324.8,476.89,324.8,476.89,326.5,476.89  L326.5,476.89z"/>
<path fill-rule="evenodd" clip-rule="evenodd" fill="#EAD82E" d="M332.5,461.89C330.528,461.89,330.528,461.89,332.5,461.89  L332.5,461.89z"/>
<path fill-rule="evenodd" clip-rule="evenodd" fill="#EAD82E" d="M333.25,468.64C331.55,468.64,331.55,468.64,333.25,468.64  L333.25,468.64z"/>
<path fill-rule="evenodd" clip-rule="evenodd" fill="#EAD82E" d="M322.75,449.14C320.847,448.654,320.277,448.508,322.75,449.14  L322.75,449.14z"/>
<path fill-rule="evenodd" clip-rule="evenodd" fill="#EAD82E" d="M394.75,421.39C392.865,422.302,393.884,421.809,394.75,421.39  L394.75,421.39z"/>
<path fill-rule="evenodd" clip-rule="evenodd" fill="#EAD82E" d="M354.25,464.89C352.55,464.89,352.55,464.89,354.25,464.89  L354.25,464.89z"/>
<path fill-rule="evenodd" clip-rule="evenodd" fill="#EAD82E" d="M351.25,478.39C348.895,478.246,348.757,478.237,351.25,478.39  L351.25,478.39z"/>
<path fill-rule="evenodd" clip-rule="evenodd" fill="#EAD82E" d="M331.75,476.89C330.477,476.89,330.477,476.89,331.75,476.89  L331.75,476.89z"/>
<path fill-rule="evenodd" clip-rule="evenodd" fill="#EAD82E" d="M346,496.39C344.3,496.39,344.3,496.39,346,496.39L346,496.39z"/>
<path fill-rule="evenodd" clip-rule="evenodd" fill="#EAD82E" d="M345.25,484.39C343.733,484.856,343.462,484.939,345.25,484.39  L345.25,484.39z"/>
<path fill-rule="evenodd" clip-rule="evenodd" fill="#EAD82E" d="M325.75,483.64C323.962,483.091,324.233,483.174,325.75,483.64  L325.75,483.64z"/>
<path fill-rule="evenodd" clip-rule="evenodd" fill="#EAD82E" d="M334.75,478.39C332.369,478.39,332.369,478.39,334.75,478.39  L334.75,478.39z"/>
<path fill-rule="evenodd" clip-rule="evenodd" fill="#EAD82E" d="M335.5,457.39C333.119,457.39,333.119,457.39,335.5,457.39  L335.5,457.39z"/>
<path fill-rule="evenodd" clip-rule="evenodd" fill="#EAD82E" d="M354.25,470.14C352.462,469.591,352.733,469.674,354.25,470.14  L354.25,470.14z"/>
<path fill-rule="evenodd" clip-rule="evenodd" fill="#EAD82E" d="M335.5,484.39C333.528,484.39,333.528,484.39,335.5,484.39  L335.5,484.39z"/>
<path fill-rule="evenodd" clip-rule="evenodd" fill="#EAD82E" d="M331,468.64C329.374,468.51,328.084,468.408,331,468.64L331,468.64  z"/>
<path fill-rule="evenodd" clip-rule="evenodd" fill="#EAD82E" d="M332.5,482.14C331.296,481.986,330.088,481.833,332.5,482.14  L332.5,482.14z"/>
<path fill-rule="evenodd" clip-rule="evenodd" fill="#EAD82E" d="M340.75,479.14C339.05,479.14,339.05,479.14,340.75,479.14  L340.75,479.14z"/>
<path fill-rule="evenodd" clip-rule="evenodd" fill="#EAD82E" d="M342.25,461.89C340.733,462.356,340.462,462.439,342.25,461.89  L342.25,461.89z"/>
<path fill-rule="evenodd" clip-rule="evenodd" fill="#EAD82E" d="M343,468.64C341.003,469.606,341.642,469.297,343,468.64  L343,468.64z"/>
<path fill-rule="evenodd" clip-rule="evenodd" fill="#EAD82E" d="M349.75,454.39C347.847,453.904,347.277,453.758,349.75,454.39  L349.75,454.39z"/>
<path fill-rule="evenodd" clip-rule="evenodd" fill="#EAD82E" d="M350.5,460.39C349.296,460.236,348.088,460.083,350.5,460.39  L350.5,460.39z"/>
<path fill-rule="evenodd" clip-rule="evenodd" fill="#EAD82E" d="M355.75,475.39C354.05,475.39,354.05,475.39,355.75,475.39  L355.75,475.39z"/>
<path fill-rule="evenodd" clip-rule="evenodd" fill="#EAD82E" d="M337,491.89C335.727,491.89,335.727,491.89,337,491.89L337,491.89z  "/>
<path fill-rule="evenodd" clip-rule="evenodd" fill="#EAD82E" d="M394.75,479.14C393.546,478.986,392.338,478.833,394.75,479.14  L394.75,479.14z"/>
<path fill-rule="evenodd" clip-rule="evenodd" fill="#EAD82E" d="M396.25,484.39C393.869,484.39,393.869,484.39,396.25,484.39  L396.25,484.39z"/>
<path fill-rule="evenodd" clip-rule="evenodd" fill="#EAD82E" d="M391.75,495.64C390.124,495.51,388.834,495.408,391.75,495.64  L391.75,495.64z"/>
<path fill-rule="evenodd" clip-rule="evenodd" fill="#EAD82E" d="M398.5,486.64C396.712,486.091,396.983,486.174,398.5,486.64  L398.5,486.64z"/>
<path fill-rule="evenodd" clip-rule="evenodd" fill="#EAD82E" d="M390.25,497.89C388.55,497.89,388.55,497.89,390.25,497.89  L390.25,497.89z"/>
<path fill-rule="evenodd" clip-rule="evenodd" fill="#EAD82E" d="M393.25,485.14C390.334,485.373,391.624,485.27,393.25,485.14  L393.25,485.14z"/>
<path fill-rule="evenodd" clip-rule="evenodd" fill="#EAD82E" d="M378.25,499.39C376.977,499.39,376.977,499.39,378.25,499.39  L378.25,499.39z"/>
<path fill-rule="evenodd" clip-rule="evenodd" fill="#EAD82E" d="M387.25,491.89C385.55,491.89,385.55,491.89,387.25,491.89  L387.25,491.89z"/>
<path fill-rule="evenodd" clip-rule="evenodd" fill="#EAD82E" d="M396.25,486.64C394.55,486.64,394.55,486.64,396.25,486.64  L396.25,486.64z"/>
<path fill-rule="evenodd" clip-rule="evenodd" fill="#EAD82E" d="M368.5,499.39C365.822,499.979,366.256,499.883,368.5,499.39  L368.5,499.39z"/>
<path fill-rule="evenodd" clip-rule="evenodd" fill="#EAD82E" d="M397,492.64C395.483,493.106,395.212,493.189,397,492.64  L397,492.64z"/>
<path fill-rule="evenodd" clip-rule="evenodd" fill="#EAD82E" d="M393.25,490.39C391.55,490.39,391.55,490.39,393.25,490.39  L393.25,490.39z"/>
<path fill-rule="evenodd" clip-rule="evenodd" fill="#EAD82E" d="M401.5,488.89C400.142,488.233,399.503,487.924,401.5,488.89  L401.5,488.89z"/>
<path fill-rule="evenodd" clip-rule="evenodd" fill="#EAD82E" d="M406.75,478.39C405.663,477.974,404.291,477.448,406.75,478.39  L406.75,478.39z"/>
<path fill-rule="evenodd" clip-rule="evenodd" fill="#EAD82E" d="M397,482.89C395.642,482.233,395.003,481.924,397,482.89  L397,482.89z"/>
<path fill-rule="evenodd" clip-rule="evenodd" fill="#F7F619" stroke="#000000" stroke-linecap="square" stroke-miterlimit="10" d="  M401.5,380.14c23.48-57.95,121.288-47.901,105,17.25C491.665,456.728,386.439,442.014,401.5,380.14z"/>
<path fill-rule="evenodd" clip-rule="evenodd" fill="#EAD82E" d="M462.25,356.14C460.365,357.052,461.384,356.559,462.25,356.14  L462.25,356.14z"/>
<path fill-rule="evenodd" clip-rule="evenodd" fill="#EAD82E" d="M457.75,393.64C455.963,393.091,456.233,393.175,457.75,393.64  L457.75,393.64z"/>
<path fill-rule="evenodd" clip-rule="evenodd" fill="#EAD82E" d="M458.5,373.39C456.713,372.841,456.983,372.925,458.5,373.39  L458.5,373.39z"/>
<path fill-rule="evenodd" clip-rule="evenodd" fill="#EAD82E" d="M477.25,386.14C475.893,385.483,475.254,385.174,477.25,386.14  L477.25,386.14z"/>
<path fill-rule="evenodd" clip-rule="evenodd" fill="#EAD82E" d="M439,371.14C437.301,371.14,437.301,371.14,439,371.14L439,371.14z  "/>
<path fill-rule="evenodd" clip-rule="evenodd" fill="#EAD82E" d="M458.5,400.39C457.227,400.39,457.227,400.39,458.5,400.39  L458.5,400.39z"/>
<path fill-rule="evenodd" clip-rule="evenodd" fill="#EAD82E" d="M454,383.89C452.643,383.233,452.004,382.924,454,383.89  L454,383.89z"/>
<path fill-rule="evenodd" clip-rule="evenodd" fill="#EAD82E" d="M435.25,405.64C434.046,405.486,432.839,405.332,435.25,405.64  L435.25,405.64z"/>
<path fill-rule="evenodd" clip-rule="evenodd" fill="#EAD82E" d="M436,384.64C434.796,384.486,433.589,384.332,436,384.64  L436,384.64z"/>
<path fill-rule="evenodd" clip-rule="evenodd" fill="#EAD82E" d="M454.75,396.64C452.865,397.552,453.884,397.059,454.75,396.64  L454.75,396.64z"/>
<path fill-rule="evenodd" clip-rule="evenodd" fill="#EAD82E" d="M416.5,383.14C415.227,383.14,415.227,383.14,416.5,383.14  L416.5,383.14z"/>
<path fill-rule="evenodd" clip-rule="evenodd" fill="#EAD82E" d="M436,411.64C434.213,411.091,434.483,411.175,436,411.64  L436,411.64z"/>
<path fill-rule="evenodd" clip-rule="evenodd" fill="#EAD82E" d="M440.5,425.14C438.874,425.01,437.584,424.908,440.5,425.14  L440.5,425.14z"/>
<path fill-rule="evenodd" clip-rule="evenodd" fill="#EAD82E" d="M466.75,417.64C465.546,417.486,464.339,417.332,466.75,417.64  L466.75,417.64z"/>
<path fill-rule="evenodd" clip-rule="evenodd" fill="#EAD82E" d="M463.75,395.14C461.369,395.14,461.369,395.14,463.75,395.14  L463.75,395.14z"/>
<path fill-rule="evenodd" clip-rule="evenodd" fill="#EAD82E" d="M482.5,407.89C480.801,407.89,480.801,407.89,482.5,407.89  L482.5,407.89z"/>
<path fill-rule="evenodd" clip-rule="evenodd" fill="#EAD82E" d="M444.25,392.89C443.075,393.069,442.683,393.129,444.25,392.89  L444.25,392.89z"/>
<path fill-rule="evenodd" clip-rule="evenodd" fill="#EAD82E" d="M460.75,429.64C459.051,429.64,459.051,429.64,460.75,429.64  L460.75,429.64z"/>
<path fill-rule="evenodd" clip-rule="evenodd" fill="#EAD82E" d="M459.25,405.64C457.277,405.64,457.277,405.64,459.25,405.64  L459.25,405.64z"/>
<path fill-rule="evenodd" clip-rule="evenodd" fill="#EAD82E" d="M466,377.89C463.619,377.89,463.619,377.89,466,377.89L466,377.89z  "/>
<path fill-rule="evenodd" clip-rule="evenodd" fill="#EAD82E" d="M466,356.89C464.727,356.89,464.727,356.89,466,356.89L466,356.89z  "/>
<path fill-rule="evenodd" clip-rule="evenodd" fill="#EAD82E" d="M485.5,369.64C483.801,369.64,483.801,369.64,485.5,369.64  L485.5,369.64z"/>
<path fill-rule="evenodd" clip-rule="evenodd" fill="#EAD82E" d="M446.5,356.14C445.143,355.483,444.504,355.174,446.5,356.14  L446.5,356.14z"/>
<path fill-rule="evenodd" clip-rule="evenodd" fill="#EAD82E" d="M466.75,383.89C464.339,384.198,465.546,384.044,466.75,383.89  L466.75,383.89z"/>
<path fill-rule="evenodd" clip-rule="evenodd" fill="#EAD82E" d="M462.25,368.14C459.869,368.14,459.869,368.14,462.25,368.14  L462.25,368.14z"/>
<path fill-rule="evenodd" clip-rule="evenodd" fill="#EAD82E" d="M472.75,369.64C471.233,370.105,470.963,370.189,472.75,369.64  L472.75,369.64z"/>
<path fill-rule="evenodd" clip-rule="evenodd" fill="#EAD82E" d="M472.75,348.64C470.754,349.606,471.393,349.297,472.75,348.64  L472.75,348.64z"/>
<path fill-rule="evenodd" clip-rule="evenodd" fill="#EAD82E" d="M492.25,361.39C490.551,361.39,490.551,361.39,492.25,361.39  L492.25,361.39z"/>
<path fill-rule="evenodd" clip-rule="evenodd" fill="#EAD82E" d="M454,347.14C452.213,346.591,452.483,346.675,454,347.14  L454,347.14z"/>
<path fill-rule="evenodd" clip-rule="evenodd" fill="#EAD82E" d="M472.75,375.64C470.865,376.552,471.884,376.059,472.75,375.64  L472.75,375.64z"/>
<path fill-rule="evenodd" clip-rule="evenodd" fill="#EAD82E" d="M468.25,359.89C466.733,360.355,466.463,360.439,468.25,359.89  L468.25,359.89z"/>
<path fill-rule="evenodd" clip-rule="evenodd" fill="#EAD82E" d="M478,411.64C476.796,411.486,475.589,411.332,478,411.64  L478,411.64z"/>
<path fill-rule="evenodd" clip-rule="evenodd" fill="#EAD82E" d="M478.75,391.39C477.546,391.236,476.339,391.082,478.75,391.39  L478.75,391.39z"/>
<path fill-rule="evenodd" clip-rule="evenodd" fill="#EAD82E" d="M497.5,404.14C496.634,403.721,495.615,403.228,497.5,404.14  L497.5,404.14z"/>
<path fill-rule="evenodd" clip-rule="evenodd" fill="#EAD82E" d="M459.25,389.14C456.869,389.14,456.869,389.14,459.25,389.14  L459.25,389.14z"/>
<path fill-rule="evenodd" clip-rule="evenodd" fill="#EAD82E" d="M480.25,420.64C478.551,420.64,478.551,420.64,480.25,420.64  L480.25,420.64z"/>
<path fill-rule="evenodd" clip-rule="evenodd" fill="#EAD82E" d="M474.25,401.89C473.163,401.474,471.79,400.948,474.25,401.89  L474.25,401.89z"/>
<path fill-rule="evenodd" clip-rule="evenodd" fill="#EAD82E" d="M429.25,410.89C428.075,411.069,427.683,411.129,429.25,410.89  L429.25,410.89z"/>
<path fill-rule="evenodd" clip-rule="evenodd" fill="#EAD82E" d="M430,390.64C428.483,391.105,428.213,391.189,430,390.64  L430,390.64z"/>
<path fill-rule="evenodd" clip-rule="evenodd" fill="#EAD82E" d="M449.5,403.39C447.801,403.39,447.801,403.39,449.5,403.39  L449.5,403.39z"/>
<path fill-rule="evenodd" clip-rule="evenodd" fill="#EAD82E" d="M410.5,389.14C408.712,388.591,408.983,388.675,410.5,389.14  L410.5,389.14z"/>
<path fill-rule="evenodd" clip-rule="evenodd" fill="#EAD82E" d="M430.75,417.64C428.257,417.793,428.395,417.785,430.75,417.64  L430.75,417.64z"/>
<path fill-rule="evenodd" clip-rule="evenodd" fill="#EAD82E" d="M425.5,401.14C423.801,401.14,423.801,401.14,425.5,401.14  L425.5,401.14z"/>
<path fill-rule="evenodd" clip-rule="evenodd" fill="#EAD82E" d="M451.75,387.64C450.546,387.486,449.339,387.332,451.75,387.64  L451.75,387.64z"/>
<path fill-rule="evenodd" clip-rule="evenodd" fill="#EAD82E" d="M447.25,424.39C444.869,424.39,444.869,424.39,447.25,424.39  L447.25,424.39z"/>
<path fill-rule="evenodd" clip-rule="evenodd" fill="#EAD82E" d="M434.5,421.39C432.119,421.39,432.119,421.39,434.5,421.39  L434.5,421.39z"/>
<path fill-rule="evenodd" clip-rule="evenodd" fill="#EAD82E" d="M464.5,422.89C462.119,422.89,462.119,422.89,464.5,422.89  L464.5,422.89z"/>
<path fill-rule="evenodd" clip-rule="evenodd" fill="#EAD82E" d="M448,431.14C446.027,431.14,446.027,431.14,448,431.14L448,431.14z  "/>
<path fill-rule="evenodd" clip-rule="evenodd" fill="#EAD82E" d="M443.5,415.39C441.145,415.245,441.007,415.237,443.5,415.39  L443.5,415.39z"/>
<path fill-rule="evenodd" clip-rule="evenodd" fill="#EAD82E" d="M445,428.89C443.796,428.736,442.589,428.583,445,428.89  L445,428.89z"/>
<path fill-rule="evenodd" clip-rule="evenodd" fill="#EAD82E" d="M453.25,425.89C451.551,425.89,451.551,425.89,453.25,425.89  L453.25,425.89z"/>
<path fill-rule="evenodd" clip-rule="evenodd" fill="#EAD82E" d="M454.75,408.64C453.233,409.105,452.963,409.189,454.75,408.64  L454.75,408.64z"/>
<path fill-rule="evenodd" clip-rule="evenodd" fill="#EAD82E" d="M455.5,387.64C453.983,388.105,453.713,388.189,455.5,387.64  L455.5,387.64z"/>
<path fill-rule="evenodd" clip-rule="evenodd" fill="#EAD82E" d="M472.75,405.64C470.963,405.091,471.233,405.175,472.75,405.64  L472.75,405.64z"/>
<path fill-rule="evenodd" clip-rule="evenodd" fill="#EAD82E" d="M455.5,415.39C453.504,416.356,454.143,416.047,455.5,415.39  L455.5,415.39z"/>
<path fill-rule="evenodd" clip-rule="evenodd" fill="#EAD82E" d="M451,398.89C449.301,398.89,449.301,398.89,451,398.89L451,398.89z  "/>
<path fill-rule="evenodd" clip-rule="evenodd" fill="#EAD82E" d="M462.25,401.14C459.895,400.995,459.757,400.987,462.25,401.14  L462.25,401.14z"/>
<path fill-rule="evenodd" clip-rule="evenodd" fill="#EAD82E" d="M462.25,380.14C460.683,379.901,461.075,379.961,462.25,380.14  L462.25,380.14z"/>
<path fill-rule="evenodd" clip-rule="evenodd" fill="#EAD82E" d="M481.75,392.14C480.233,392.605,479.963,392.689,481.75,392.14  L481.75,392.14z"/>
<path fill-rule="evenodd" clip-rule="evenodd" fill="#EAD82E" d="M442.75,378.64C441.051,378.64,441.051,378.64,442.75,378.64  L442.75,378.64z"/>
<path fill-rule="evenodd" clip-rule="evenodd" fill="#EAD82E" d="M463,407.14C461.796,406.986,460.589,406.832,463,407.14  L463,407.14z"/>
<path fill-rule="evenodd" clip-rule="evenodd" fill="#EAD82E" d="M458.5,390.64C455.822,391.229,456.256,391.134,458.5,390.64  L458.5,390.64z"/>
<path fill-rule="evenodd" clip-rule="evenodd" fill="#EAD82E" d="M473.5,428.89C471.713,428.341,471.983,428.424,473.5,428.89  L473.5,428.89z"/>
<path fill-rule="evenodd" clip-rule="evenodd" fill="#EAD82E" d="M448.75,419.89C447.051,419.89,447.051,419.89,448.75,419.89  L448.75,419.89z"/>
<path fill-rule="evenodd" clip-rule="evenodd" fill="#EAD82E" d="M445,346.39C443.301,346.39,443.301,346.39,445,346.39L445,346.39z  "/>
<path fill-rule="evenodd" clip-rule="evenodd" fill="#EAD82E" d="M419.5,383.89C417.527,383.89,417.527,383.89,419.5,383.89  L419.5,383.89z"/>
<path fill-rule="evenodd" clip-rule="evenodd" fill="#EAD82E" d="M420.25,363.64C417.869,363.64,417.869,363.64,420.25,363.64  L420.25,363.64z"/>
<path fill-rule="evenodd" clip-rule="evenodd" fill="#EAD82E" d="M439,376.39C437.213,375.841,437.483,375.925,439,376.39  L439,376.39z"/>
<path fill-rule="evenodd" clip-rule="evenodd" fill="#EAD82E" d="M420.25,390.64C418.551,390.64,418.551,390.64,420.25,390.64  L420.25,390.64z"/>
<path fill-rule="evenodd" clip-rule="evenodd" fill="#EAD82E" d="M415.75,374.14C414.546,373.986,413.339,373.832,415.75,374.14  L415.75,374.14z"/>
<path fill-rule="evenodd" clip-rule="evenodd" fill="#EAD82E" d="M417.25,387.64C415.463,387.091,415.733,387.175,417.25,387.64  L417.25,387.64z"/>
<path fill-rule="evenodd" clip-rule="evenodd" fill="#EAD82E" d="M425.5,385.39C423.801,385.39,423.801,385.39,425.5,385.39  L425.5,385.39z"/>
<path fill-rule="evenodd" clip-rule="evenodd" fill="#EAD82E" d="M427,368.14C425.483,368.605,425.213,368.689,427,368.14  L427,368.14z"/>
<path fill-rule="evenodd" clip-rule="evenodd" fill="#EAD82E" d="M455.5,344.14C453.983,344.605,453.713,344.689,455.5,344.14  L455.5,344.14z"/>
<path fill-rule="evenodd" clip-rule="evenodd" fill="#EAD82E" d="M447.25,359.89C445.277,359.89,445.277,359.89,447.25,359.89  L447.25,359.89z"/>
<path fill-rule="evenodd" clip-rule="evenodd" fill="#EAD82E" d="M427.75,374.14C426.233,374.605,425.963,374.689,427.75,374.14  L427.75,374.14z"/>
<path fill-rule="evenodd" clip-rule="evenodd" fill="#EAD82E" d="M423.25,358.39C421.551,358.39,421.551,358.39,423.25,358.39  L423.25,358.39z"/>
<path fill-rule="evenodd" clip-rule="evenodd" fill="#EAD82E" d="M434.5,360.64C433.413,360.224,432.04,359.698,434.5,360.64  L434.5,360.64z"/>
<path fill-rule="evenodd" clip-rule="evenodd" fill="#EAD82E" d="M464.5,347.14C462.874,347.011,461.584,346.908,464.5,347.14  L464.5,347.14z"/>
<path fill-rule="evenodd" clip-rule="evenodd" fill="#EAD82E" d="M454,351.64C452.483,352.105,452.213,352.189,454,351.64  L454,351.64z"/>
<path fill-rule="evenodd" clip-rule="evenodd" fill="#EAD82E" d="M462.25,342.64C461.046,342.486,459.839,342.332,462.25,342.64  L462.25,342.64z"/>
<path fill-rule="evenodd" clip-rule="evenodd" fill="#EAD82E" d="M435.25,366.64C433.463,366.091,433.733,366.175,435.25,366.64  L435.25,366.64z"/>
<path fill-rule="evenodd" clip-rule="evenodd" fill="#EAD82E" d="M436.75,350.89C435.233,351.355,434.963,351.439,436.75,350.89  L436.75,350.89z"/>
<path fill-rule="evenodd" clip-rule="evenodd" fill="#EAD82E" d="M439.75,381.64C438.051,381.64,438.051,381.64,439.75,381.64  L439.75,381.64z"/>
<path fill-rule="evenodd" clip-rule="evenodd" fill="#EAD82E" d="M421,379.39C419.301,379.39,419.301,379.39,421,379.39L421,379.39z  "/>
<path fill-rule="evenodd" clip-rule="evenodd" fill="#EAD82E" d="M498.25,380.14C496.551,380.14,496.551,380.14,498.25,380.14  L498.25,380.14z"/>
<path fill-rule="evenodd" clip-rule="evenodd" fill="#EAD82E" d="M495.25,393.64C493.551,393.64,493.551,393.64,495.25,393.64  L495.25,393.64z"/>
<path fill-rule="evenodd" clip-rule="evenodd" fill="#EAD82E" d="M476.5,392.14C474.527,392.14,474.527,392.14,476.5,392.14  L476.5,392.14z"/>
<path fill-rule="evenodd" clip-rule="evenodd" fill="#EAD82E" d="M490.75,404.89C488.963,404.341,489.233,404.425,490.75,404.89  L490.75,404.89z"/>
<path fill-rule="evenodd" clip-rule="evenodd" fill="#EAD82E" d="M489.25,400.39C487.683,400.151,488.075,400.211,489.25,400.39  L489.25,400.39z"/>
<path fill-rule="evenodd" clip-rule="evenodd" fill="#EAD82E" d="M469.75,398.14C468.051,398.14,468.051,398.14,469.75,398.14  L469.75,398.14z"/>
<path fill-rule="evenodd" clip-rule="evenodd" fill="#EAD82E" d="M478.75,392.89C477.051,392.89,477.051,392.89,478.75,392.89  L478.75,392.89z"/>
<path fill-rule="evenodd" clip-rule="evenodd" fill="#EAD82E" d="M479.5,372.64C477.801,372.64,477.801,372.64,479.5,372.64  L479.5,372.64z"/>
<path fill-rule="evenodd" clip-rule="evenodd" fill="#EAD82E" d="M499,385.39C496.619,385.39,496.619,385.39,499,385.39L499,385.39z  "/>
<path fill-rule="evenodd" clip-rule="evenodd" fill="#EAD82E" d="M479.5,399.64C477.801,399.64,477.801,399.64,479.5,399.64  L479.5,399.64z"/>
<path fill-rule="evenodd" clip-rule="evenodd" fill="#EAD82E" d="M475,383.14C473.301,383.14,473.301,383.14,475,383.14L475,383.14z  "/>
<path fill-rule="evenodd" clip-rule="evenodd" fill="#EAD82E" d="M476.5,396.64C474.801,396.64,474.801,396.64,476.5,396.64  L476.5,396.64z"/>
<path fill-rule="evenodd" clip-rule="evenodd" fill="#EAD82E" d="M484.75,394.39C483.233,394.855,482.963,394.939,484.75,394.39  L484.75,394.39z"/>
<path fill-rule="evenodd" clip-rule="evenodd" fill="#EAD82E" d="M486.25,377.89C484.893,377.233,484.254,376.924,486.25,377.89  L486.25,377.89z"/>
<path fill-rule="evenodd" clip-rule="evenodd" fill="#EAD82E" d="M487,383.89C485.433,383.651,485.825,383.711,487,383.89  L487,383.89z"/>
<path fill-rule="evenodd" clip-rule="evenodd" fill="#EAD82E" d="M493.75,369.64C492.051,369.64,492.051,369.64,493.75,369.64  L493.75,369.64z"/>
<path fill-rule="evenodd" clip-rule="evenodd" fill="#EAD82E" d="M494.5,375.64C492.801,375.64,492.801,375.64,494.5,375.64  L494.5,375.64z"/>
<path fill-rule="evenodd" clip-rule="evenodd" fill="#EAD82E" d="M499.75,390.64C498.477,390.64,498.477,390.64,499.75,390.64  L499.75,390.64z"/>
<path fill-rule="evenodd" clip-rule="evenodd" fill="#EAD82E" d="M480.25,388.39C478.733,388.855,478.463,388.939,480.25,388.39  L480.25,388.39z"/>
<path fill-rule="evenodd" clip-rule="evenodd" fill="#EAD82E" d="M426.25,405.64C424.893,404.983,424.254,404.674,426.25,405.64  L426.25,405.64z"/>
<path fill-rule="evenodd" clip-rule="evenodd" fill="#EAD82E" d="M407.5,383.14C405.983,383.605,405.712,383.689,407.5,383.14  L407.5,383.14z"/>
<path fill-rule="evenodd" clip-rule="evenodd" fill="#EAD82E" d="M480.25,356.14C478.551,356.14,478.551,356.14,480.25,356.14  L480.25,356.14z"/>
<path fill-rule="evenodd" clip-rule="evenodd" fill="#EAD82E" d="M499,371.14C497.483,371.605,497.213,371.689,499,371.14  L499,371.14z"/>
<path fill-rule="evenodd" clip-rule="evenodd" fill="#EAD82E" d="M493.75,365.14C492.546,364.986,491.339,364.832,493.75,365.14  L493.75,365.14z"/>
<path fill-rule="evenodd" clip-rule="evenodd" fill="#EAD82E" d="M474.25,362.89C471.869,362.89,471.869,362.89,474.25,362.89  L474.25,362.89z"/>
<path fill-rule="evenodd" clip-rule="evenodd" fill="#EAD82E" d="M482.5,357.64C480.801,357.64,480.801,357.64,482.5,357.64  L482.5,357.64z"/>
<path fill-rule="evenodd" clip-rule="evenodd" fill="#EAD82E" d="M408.25,396.64C405.334,396.872,406.624,396.77,408.25,396.64  L408.25,396.64z"/>
<path fill-rule="evenodd" clip-rule="evenodd" fill="#EAD82E" d="M410.5,374.89C408.983,375.355,408.712,375.439,410.5,374.89  L410.5,374.89z"/>
<path fill-rule="evenodd" clip-rule="evenodd" fill="#EAD82E" d="M483.25,364.39C481.551,364.39,481.551,364.39,483.25,364.39  L483.25,364.39z"/>
<path fill-rule="evenodd" clip-rule="evenodd" fill="#EAD82E" d="M478.75,347.89C477.051,347.89,477.051,347.89,478.75,347.89  L478.75,347.89z"/>
<path fill-rule="evenodd" clip-rule="evenodd" fill="#EAD82E" d="M480.25,361.39C478.551,361.39,478.551,361.39,480.25,361.39  L480.25,361.39z"/>
<path fill-rule="evenodd" clip-rule="evenodd" fill="#EAD82E" d="M489.25,359.14C486.572,359.729,487.006,359.634,489.25,359.14  L489.25,359.14z"/>
<path fill-rule="evenodd" clip-rule="evenodd" fill="#EAD82E" d="M415,401.89C413.303,401.89,413.303,401.89,415,401.89L415,401.89z  "/>
<path fill-rule="evenodd" clip-rule="evenodd" fill="#EAD82E" d="M415.75,408.64C414.051,408.64,414.051,408.64,415.75,408.64  L415.75,408.64z"/>
<path fill-rule="evenodd" clip-rule="evenodd" fill="#EAD82E" d="M421.75,393.64C419.777,393.64,419.777,393.64,421.75,393.64  L421.75,393.64z"/>
<path fill-rule="evenodd" clip-rule="evenodd" fill="#EAD82E" d="M422.5,400.39C420.801,400.39,420.801,400.39,422.5,400.39  L422.5,400.39z"/>
<path fill-rule="evenodd" clip-rule="evenodd" fill="#EAD82E" d="M412,380.89C410.097,380.404,409.527,380.258,412,380.89  L412,380.89z"/>
<path fill-rule="evenodd" clip-rule="evenodd" fill="#EAD82E" d="M484,353.14C482.115,354.052,483.134,353.559,484,353.14  L484,353.14z"/>
<path fill-rule="evenodd" clip-rule="evenodd" fill="#EAD82E" d="M443.5,396.64C441.801,396.64,441.801,396.64,443.5,396.64  L443.5,396.64z"/>
<path fill-rule="evenodd" clip-rule="evenodd" fill="#EAD82E" d="M440.5,410.14C438.145,409.995,438.007,409.987,440.5,410.14  L440.5,410.14z"/>
<path fill-rule="evenodd" clip-rule="evenodd" fill="#EAD82E" d="M421,408.64C419.727,408.64,419.727,408.64,421,408.64L421,408.64z  "/>
<path fill-rule="evenodd" clip-rule="evenodd" fill="#EAD82E" d="M435.25,428.14C433.551,428.14,433.551,428.14,435.25,428.14  L435.25,428.14z"/>
<path fill-rule="evenodd" clip-rule="evenodd" fill="#EAD82E" d="M434.5,416.14C432.983,416.605,432.713,416.689,434.5,416.14  L434.5,416.14z"/>
<path fill-rule="evenodd" clip-rule="evenodd" fill="#EAD82E" d="M415,415.39C413.216,414.842,413.484,414.924,415,415.39  L415,415.39z"/>
<path fill-rule="evenodd" clip-rule="evenodd" fill="#EAD82E" d="M424,410.14C421.619,410.14,421.619,410.14,424,410.14L424,410.14z  "/>
<path fill-rule="evenodd" clip-rule="evenodd" fill="#EAD82E" d="M424.75,389.14C422.369,389.14,422.369,389.14,424.75,389.14  L424.75,389.14z"/>
<path fill-rule="evenodd" clip-rule="evenodd" fill="#EAD82E" d="M443.5,401.89C441.713,401.341,441.983,401.425,443.5,401.89  L443.5,401.89z"/>
<path fill-rule="evenodd" clip-rule="evenodd" fill="#EAD82E" d="M424.75,416.14C422.777,416.14,422.777,416.14,424.75,416.14  L424.75,416.14z"/>
<path fill-rule="evenodd" clip-rule="evenodd" fill="#EAD82E" d="M420.25,400.39C418.624,400.261,417.334,400.158,420.25,400.39  L420.25,400.39z"/>
<path fill-rule="evenodd" clip-rule="evenodd" fill="#EAD82E" d="M421.75,413.89C420.546,413.736,419.339,413.582,421.75,413.89  L421.75,413.89z"/>
<path fill-rule="evenodd" clip-rule="evenodd" fill="#EAD82E" d="M430,410.89C428.301,410.89,428.301,410.89,430,410.89L430,410.89z  "/>
<path fill-rule="evenodd" clip-rule="evenodd" fill="#EAD82E" d="M431.5,393.64C429.983,394.105,429.713,394.189,431.5,393.64  L431.5,393.64z"/>
<path fill-rule="evenodd" clip-rule="evenodd" fill="#EAD82E" d="M432.25,400.39C430.254,401.356,430.893,401.047,432.25,400.39  L432.25,400.39z"/>
<path fill-rule="evenodd" clip-rule="evenodd" fill="#EAD82E" d="M439,386.14C437.097,385.654,436.527,385.508,439,386.14  L439,386.14z"/>
<path fill-rule="evenodd" clip-rule="evenodd" fill="#EAD82E" d="M439.75,392.14C438.546,391.986,437.339,391.832,439.75,392.14  L439.75,392.14z"/>
<path fill-rule="evenodd" clip-rule="evenodd" fill="#EAD82E" d="M445,407.14C443.301,407.14,443.301,407.14,445,407.14L445,407.14z  "/>
<path fill-rule="evenodd" clip-rule="evenodd" fill="#EAD82E" d="M426.25,423.64C424.977,423.64,424.977,423.64,426.25,423.64  L426.25,423.64z"/>
<path fill-rule="evenodd" clip-rule="evenodd" fill="#EAD82E" d="M484,410.89C482.796,410.736,481.589,410.582,484,410.89  L484,410.89z"/>
<path fill-rule="evenodd" clip-rule="evenodd" fill="#EAD82E" d="M485.5,416.14C483.119,416.14,483.119,416.14,485.5,416.14  L485.5,416.14z"/>
<path fill-rule="evenodd" clip-rule="evenodd" fill="#EAD82E" d="M481,427.39C479.374,427.26,478.084,427.158,481,427.39L481,427.39  z"/>
<path fill-rule="evenodd" clip-rule="evenodd" fill="#EAD82E" d="M487.75,418.39C485.963,417.841,486.233,417.925,487.75,418.39  L487.75,418.39z"/>
<path fill-rule="evenodd" clip-rule="evenodd" fill="#EAD82E" d="M479.5,429.64C477.801,429.64,477.801,429.64,479.5,429.64  L479.5,429.64z"/>
<path fill-rule="evenodd" clip-rule="evenodd" fill="#EAD82E" d="M482.5,416.89C479.584,417.122,480.874,417.02,482.5,416.89  L482.5,416.89z"/>
<path fill-rule="evenodd" clip-rule="evenodd" fill="#EAD82E" d="M467.5,431.14C466.227,431.14,466.227,431.14,467.5,431.14  L467.5,431.14z"/>
<path fill-rule="evenodd" clip-rule="evenodd" fill="#EAD82E" d="M476.5,423.64C474.801,423.64,474.801,423.64,476.5,423.64  L476.5,423.64z"/>
<path fill-rule="evenodd" clip-rule="evenodd" fill="#EAD82E" d="M485.5,418.39C483.801,418.39,483.801,418.39,485.5,418.39  L485.5,418.39z"/>
<path fill-rule="evenodd" clip-rule="evenodd" fill="#EAD82E" d="M457.75,431.14C455.072,431.729,455.506,431.633,457.75,431.14  L457.75,431.14z"/>
<path fill-rule="evenodd" clip-rule="evenodd" fill="#EAD82E" d="M486.25,424.39C484.733,424.856,484.463,424.939,486.25,424.39  L486.25,424.39z"/>
<path fill-rule="evenodd" clip-rule="evenodd" fill="#EAD82E" d="M482.5,422.14C480.801,422.14,480.801,422.14,482.5,422.14  L482.5,422.14z"/>
<path fill-rule="evenodd" clip-rule="evenodd" fill="#EAD82E" d="M490.75,420.64C489.393,419.983,488.754,419.674,490.75,420.64  L490.75,420.64z"/>
<path fill-rule="evenodd" clip-rule="evenodd" fill="#EAD82E" d="M496,410.14C494.913,409.724,493.54,409.198,496,410.14L496,410.14  z"/>
<path fill-rule="evenodd" clip-rule="evenodd" fill="#EAD82E" d="M486.25,414.64C484.893,413.983,484.254,413.674,486.25,414.64  L486.25,414.64z"/>
</svg>