<svg xmlns="http://www.w3.org/2000/svg" xmlns:xlink="http://www.w3.org/1999/xlink" version="1.1" id="Layer_1" x="0px" y="0px" enable-background="new 0 0 822.05 841.89" xml:space="preserve" viewBox="315.26 336.99 190.24 170.58">
<path fill-rule="evenodd" clip-rule="evenodd" fill="#E8C8A6" stroke="#000000" stroke-width="0.5" stroke-linecap="square" stroke-miterlimit="10" d="  M464.75,411.898c1.759-8.495,3.438-16.906,0.75-23.25c1.099,8.535-1.589,15.498-3,24c-10.066-10.153-24.472-22.852-37.5-23.25  C437.153,395.292,461.339,418.598,464.75,411.898z"/>
<path fill-rule="evenodd" clip-rule="evenodd" fill="#E8C8A6" stroke="#000000" stroke-width="0.5" stroke-linecap="square" stroke-miterlimit="10" d="  M470,369.148C445.923,382.593,483.958,397.757,470,369.148L470,369.148z"/>
<path fill-rule="evenodd" clip-rule="evenodd" fill="#E8C8A6" stroke="#000000" stroke-width="0.5" stroke-linecap="square" stroke-miterlimit="10" d="  M384.5,387.898c-7.279,9.659-6.108,26.25-3.75,39.748C384.166,418.785,382.513,400.681,384.5,387.898z"/>
<path fill-rule="evenodd" clip-rule="evenodd" fill="#FFFFFF" stroke="#000000" stroke-width="0.5" stroke-linecap="square" stroke-miterlimit="10" d="  M425.75,386.398C364.647,386.398,427.367,361.804,425.75,386.398L425.75,386.398z"/>
<path fill-rule="evenodd" clip-rule="evenodd" fill="#E8C8A6" stroke="#000000" stroke-width="0.5" stroke-linecap="square" stroke-miterlimit="10" d="  M391.25,382.648c5.93-4.408,10.724-2.451,14.25-9.75c3.375,0.023,24.039,3.766,21.445,13.852  c-4.495,17.482-1.578,21.819-19.584,23.26C392.772,411.176,383.786,394.675,391.25,382.648z"/>
<path fill-rule="evenodd" clip-rule="evenodd" fill="#FFFFFF" stroke="#000000" stroke-width="0.5" stroke-linecap="square" stroke-miterlimit="10" d="  M434.75,402.898c15.832,16.051,25.156-6.215,4.5-19.125c-13.5-8.438-15.114,5.511-25.5,4.875  c-12.013-0.735-16.435-13.075-29.25-6.75c-9.358,4.618-11.038,22.582-13.5,31.5c4.145,1.346,12.23,1.647,16.5,0.75c0-4,0-8,0-12  C381.169,439.958,438.418,440.051,434.75,402.898z"/>
<path fill-rule="evenodd" clip-rule="evenodd" stroke="#000000" stroke-width="0.5" stroke-linecap="square" stroke-miterlimit="10" d="  M428,354.148c-2.479,21.775-33.691,23.036-33.75,0C394.191,330.893,425.352,332.32,428,354.148z"/>
<path fill-rule="evenodd" clip-rule="evenodd" fill="#FFFFFF" stroke="#000000" stroke-width="0.5" stroke-linecap="square" stroke-miterlimit="10" d="  M395,378.898c8.728-2.619,20.16,9.856,10.5,22.5C402.132,394.182,397.13,386.551,395,378.898z"/>
<path fill-rule="evenodd" clip-rule="evenodd" fill="#FFFFFF" stroke="#000000" stroke-width="0.5" stroke-linecap="square" stroke-miterlimit="10" d="  M426.5,379.648c-7.262-2.89-17.071,9.655-9.75,22.5C419.914,394.847,424.372,387.301,426.5,379.648z"/>
<path fill-rule="evenodd" clip-rule="evenodd" fill="#E8C8A6" stroke="#000000" stroke-width="0.5" stroke-linecap="square" stroke-miterlimit="10" d="  M392.75,359.398C398.524,360.075,396.145,359.796,392.75,359.398L392.75,359.398z"/>
<path fill-rule="evenodd" clip-rule="evenodd" fill="#E8C8A6" stroke="#000000" stroke-width="0.5" stroke-linecap="square" stroke-miterlimit="10" d="  M424.25,359.398c3.081,0.115-1.131,5.613,3.75,3.75C428.994,349.858,426.607,359.486,424.25,359.398z"/>
<path fill-rule="evenodd" clip-rule="evenodd" fill="#E8C8A6" stroke="#000000" stroke-width="0.5" stroke-linecap="square" stroke-miterlimit="10" d="  M422,344.398c-9.917,5.53-33.757-4.858-26.25,19.5C405.143,394.374,440.109,366.851,422,344.398z"/>
<path fill-rule="evenodd" clip-rule="evenodd" stroke="#000000" stroke-width="0.5" stroke-linecap="square" stroke-miterlimit="10" d="  M383,424.646c-0.266,1.298-3.398,2.786-1.5,6.75C384.954,429.531,382.446,427.354,383,424.646z"/>
<path fill-rule="evenodd" clip-rule="evenodd" fill="#03074F" stroke="#000000" stroke-width="0.5" stroke-linecap="square" stroke-miterlimit="10" d="  M416,410.398c-0.315-4.899-0.802-9.574-2.25-14.25c-4.795,1.955-0.502,0.466-4.5,0C403.885,419.7,418.724,440.212,416,410.398z"/>
<path fill-rule="evenodd" clip-rule="evenodd" fill="#03074F" d="M411.5,389.398c-0.155,3.108-5.23,4.891,0,9  C415.96,394.397,411.325,392.917,411.5,389.398z"/>
<path fill="none" stroke="#000000" stroke-width="0.5" stroke-linecap="square" stroke-miterlimit="10" d="M411.5,389.398  c-0.155,3.108-5.23,4.891,0,9C415.96,394.397,411.325,392.917,411.5,389.398z"/>
<path fill-rule="evenodd" clip-rule="evenodd" fill="#FFFFFF" stroke="#000000" stroke-width="0.5" stroke-linecap="square" stroke-miterlimit="10" d="  M387.5,402.148c0,4,0,8,0,12C387.5,410.148,387.5,406.148,387.5,402.148z"/>
<path fill-rule="evenodd" clip-rule="evenodd" fill="#8BACCC" stroke="#000000" stroke-width="0.5" stroke-linecap="square" stroke-miterlimit="10" d="  M482.75,372.898c-4.063,7.184-22.604,14.172-24,0C457.366,358.862,479.245,367.441,482.75,372.898z"/>
<path fill-rule="evenodd" clip-rule="evenodd" fill="#8BACCC" stroke="#000000" stroke-width="0.5" stroke-linecap="square" stroke-miterlimit="10" d="  M505.25,395.398C485.275,410.919,485.275,379.877,505.25,395.398L505.25,395.398z"/>
<path fill-rule="evenodd" clip-rule="evenodd" fill="#8BACCC" stroke="#000000" stroke-width="0.5" stroke-linecap="square" stroke-miterlimit="10" d="  M500.75,349.648C481.096,365.483,481.096,333.813,500.75,349.648L500.75,349.648z"/>
<path fill-rule="evenodd" clip-rule="evenodd" fill="#8BACCC" stroke="#000000" stroke-width="0.5" stroke-linecap="square" stroke-miterlimit="10" d="  M459.5,352.648C439.406,367.818,440.322,336.316,459.5,352.648L459.5,352.648z"/>
<path fill-rule="evenodd" clip-rule="evenodd" fill="#8BACCC" stroke="#000000" stroke-width="0.5" stroke-linecap="square" stroke-miterlimit="10" d="  M457.25,339.148C446.305,339.796,445.254,339.858,457.25,339.148L457.25,339.148z"/>
<path fill-rule="evenodd" clip-rule="evenodd" fill="#8BACCC" stroke="#000000" stroke-width="0.5" stroke-linecap="square" stroke-miterlimit="10" d="  M442.25,343.648C431.519,343.345,431.526,343.346,442.25,343.648L442.25,343.648z"/>
<path fill-rule="evenodd" clip-rule="evenodd" fill="#8BACCC" d="M443.75,348.148l-3-2.25L443.75,348.148z"/>
<line fill="none" stroke="#000000" stroke-width="0.5" stroke-linecap="square" stroke-miterlimit="10" x1="443.75" y1="348.148" x2="440.75" y2="345.898"/>
<path fill-rule="evenodd" clip-rule="evenodd" fill="#8BACCC" d="M452,342.898v3V342.898z"/>
<line fill="none" stroke="#000000" stroke-width="0.5" stroke-linecap="square" stroke-miterlimit="10" x1="452" y1="342.898" x2="452" y2="345.898"/>
<path fill-rule="evenodd" clip-rule="evenodd" fill="#8BACCC" d="M486.5,354.898l-8.25,11.25L486.5,354.898z"/>
<line fill="none" stroke="#000000" stroke-width="0.5" stroke-linecap="square" stroke-miterlimit="10" x1="486.5" y1="354.898" x2="478.25" y2="366.148"/>
<path fill-rule="evenodd" clip-rule="evenodd" fill="#8BACCC" d="M478.25,379.648l10.5,12L478.25,379.648z"/>
<line fill="none" stroke="#000000" stroke-width="0.5" stroke-linecap="square" stroke-miterlimit="10" x1="478.25" y1="379.648" x2="488.75" y2="391.648"/>
<path fill-rule="evenodd" clip-rule="evenodd" fill="#8BACCC" d="M455.75,357.148l7.5,9L455.75,357.148z"/>
<line fill="none" stroke="#000000" stroke-width="0.5" stroke-linecap="square" stroke-miterlimit="10" x1="455.75" y1="357.148" x2="463.25" y2="366.148"/>
<path fill-rule="evenodd" clip-rule="evenodd" fill="#8BACCC" stroke="#000000" stroke-width="0.5" stroke-linecap="square" stroke-miterlimit="10" d="  M476,390.148C455.714,374.953,457.073,406.69,476,390.148L476,390.148z"/>
<path fill-rule="evenodd" clip-rule="evenodd" fill="#8BACCC" stroke="#000000" stroke-width="0.5" stroke-linecap="square" stroke-miterlimit="10" d="  M477.5,404.398C466.555,403.75,465.504,403.688,477.5,404.398L477.5,404.398z"/>
<path fill-rule="evenodd" clip-rule="evenodd" fill="#8BACCC" stroke="#000000" stroke-width="0.5" stroke-linecap="square" stroke-miterlimit="10" d="  M462.5,401.398c-3.531-0.01-4.668-5.623-10.5-1.5C455.365,408.531,458.133,401.385,462.5,401.398z"/>
<path fill-rule="evenodd" clip-rule="evenodd" fill="#8BACCC" d="M470,381.898l-1.5,2.25L470,381.898z"/>
<line fill="none" stroke="#000000" stroke-width="0.5" stroke-linecap="square" stroke-miterlimit="10" x1="470" y1="381.898" x2="468.5" y2="384.148"/>
<path fill-rule="evenodd" clip-rule="evenodd" fill="#8BACCC" d="M461.75,396.148l-1.5,2.25L461.75,396.148z"/>
<line fill="none" stroke="#000000" stroke-width="0.5" stroke-linecap="square" stroke-miterlimit="10" x1="461.75" y1="396.148" x2="460.25" y2="398.398"/>
<path fill-rule="evenodd" clip-rule="evenodd" fill="#8BACCC" d="M470,396.148l0.75,4.5L470,396.148z"/>
<line fill="none" stroke="#000000" stroke-width="0.5" stroke-linecap="square" stroke-miterlimit="10" x1="470" y1="396.148" x2="470.75" y2="400.648"/>
<path fill-rule="evenodd" clip-rule="evenodd" fill="#E8C8A6" stroke="#000000" stroke-width="0.5" stroke-linecap="square" stroke-miterlimit="10" d="  M380.75,426.146c14.22-2.907,29.181-8.074,40.5-17.248C415.348,421.201,390.851,431.183,380.75,426.146z"/>
<path fill-rule="evenodd" clip-rule="evenodd" fill="#101177" stroke="#000000" stroke-width="0.5" stroke-linecap="square" stroke-miterlimit="10" d="  M423.5,405.898c15.75-10,31.5-20,47.25-30c-17,12.5-34,25-51,37.5C421,410.898,422.25,408.398,423.5,405.898z"/>
<path fill-rule="evenodd" clip-rule="evenodd" fill="#E8C8A6" stroke="#000000" stroke-width="0.5" stroke-linecap="square" stroke-miterlimit="10" d="  M438.5,402.148C410.216,389.279,421.458,436.153,438.5,402.148L438.5,402.148z"/>
<path fill-rule="evenodd" clip-rule="evenodd" fill="#915E30" stroke="#000000" stroke-width="0.5" stroke-linecap="square" stroke-miterlimit="10" d="  M479,500.396c-40.078,0-80.156,0-120.234,0c-11.766,0-22.266,5.189-22.266-7.722c0-9.938-6.748-60.603,0-66.528  c15.181-13.333,99.19,0,120.234,0c11.766,0,22.266-5.189,22.266,7.722C479,456.044,479,478.22,479,500.396z"/>
<path fill-rule="evenodd" clip-rule="evenodd" fill="#E8C8A6" stroke="#000000" stroke-width="0.5" stroke-linecap="square" stroke-miterlimit="10" d="  M344.75,468.896c-2.173,3.349-1.105,6.455-5.25,8.25c5.824,1.411,15.111,1.833,21,0.75  C358.494,466.368,354.104,468.003,344.75,468.896z"/>
<path fill-rule="evenodd" clip-rule="evenodd" fill="#FFE600" stroke="#000000" stroke-width="0.5" stroke-linecap="square" stroke-miterlimit="10" d="  M362.75,466.646c5.804-14.913-6.573-41.494-22.5-23.25C326.796,458.807,346.294,478.203,362.75,466.646z"/>
<path fill-rule="evenodd" clip-rule="evenodd" fill="#FFFFFF" stroke="#000000" stroke-width="0.5" stroke-linecap="square" stroke-miterlimit="10" d="  M368,490.646c3.181,5.836,2.062,9.591,10.5,10.5c9.942-36.942-63.702-37.98-56.25,0c5.849-5.116,7.297-2.273,12-11.25  c-1,4.25-2,8.5-3,12.75c12.75,0,25.5,0,38.25,0C369,498.646,368.5,494.646,368,490.646z"/>
<path fill-rule="evenodd" clip-rule="evenodd" fill="#915E30" stroke="#000000" stroke-width="0.5" stroke-linecap="square" stroke-miterlimit="10" d="  M378.5,507.146c-4.984,0-77.665,2.907-56.25-15C333.449,482.781,383.575,484.858,378.5,507.146z"/>
<path fill-rule="evenodd" clip-rule="evenodd" fill="#FFFFFF" stroke="#000000" stroke-width="0.5" stroke-linecap="square" stroke-miterlimit="10" d="  M339.5,473.396c6.549-1.033,13.437,0.048,21-2.25c0.75,1,1.5,2,2.25,3C354.598,480.167,347.277,479.08,339.5,473.396z"/>
<path fill-rule="evenodd" clip-rule="evenodd" fill="#E8C8A6" stroke="#000000" stroke-width="0.5" stroke-linecap="square" stroke-miterlimit="10" d="  M408.5,468.896c-1.746,3.06-0.204,6.211-4.5,8.25c5.365,1.568,14.738,1.747,20.25,0.75  C422.656,466.218,417.995,467.892,408.5,468.896z"/>
<path fill-rule="evenodd" clip-rule="evenodd" fill="#FFFFFF" stroke="#000000" stroke-width="0.5" stroke-linecap="square" stroke-miterlimit="10" d="  M431.75,490.646c3.32,5.581,2.875,9.186,10.5,10.5c10.7-37.39-63.542-37.961-55.5,0c5.184-4.638,7.469-3.359,12-11.25  c-1.25,4.25-2.5,8.5-3.75,12.75c12.75,0,25.5,0,38.25,0C432.75,498.646,432.25,494.646,431.75,490.646z"/>
<path fill-rule="evenodd" clip-rule="evenodd" fill="#915E30" stroke="#000000" stroke-width="0.5" stroke-linecap="square" stroke-miterlimit="10" d="  M443,507.146c-4.984,0-77.665,2.907-56.25-15C397.949,482.781,448.075,484.858,443,507.146z"/>
<path fill-rule="evenodd" clip-rule="evenodd" fill="#FFFFFF" stroke="#000000" stroke-width="0.5" stroke-linecap="square" stroke-miterlimit="10" d="  M403.25,473.396c6.75-0.939,13.441,0.337,21-2.25c0.75,1,1.5,2,2.25,3C418.385,480.112,411.088,478.996,403.25,473.396z"/>
<path fill-rule="evenodd" clip-rule="evenodd" fill="#E8C8A6" stroke="#000000" stroke-width="0.5" stroke-linecap="square" stroke-miterlimit="10" d="  M470,468.896c-2.173,3.349-1.105,6.455-5.25,8.25c5.824,1.411,15.111,1.833,21,0.75C484.044,466.34,479.53,467.982,470,468.896z"/>
<path fill-rule="evenodd" clip-rule="evenodd" fill="#FFFFFF" stroke="#000000" stroke-width="0.5" stroke-linecap="square" stroke-miterlimit="10" d="  M493.25,490.646c3.288,5.785,1.982,9.582,10.5,10.5c10.406-36.788-63.71-38.053-56.25,0c5.85-5.116,7.297-2.273,12-11.25  c-1,4.25-2,8.5-3,12.75c12.75,0,25.5,0,38.25,0C494.25,498.646,493.75,494.646,493.25,490.646z"/>
<path fill-rule="evenodd" clip-rule="evenodd" fill="#915E30" stroke="#000000" stroke-width="0.5" stroke-linecap="square" stroke-miterlimit="10" d="  M503.75,507.146c-4.984,0-77.665,2.907-56.25-15C458.699,482.781,508.825,484.858,503.75,507.146z"/>
<path fill-rule="evenodd" clip-rule="evenodd" fill="#FFFFFF" stroke="#000000" stroke-width="0.5" stroke-linecap="square" stroke-miterlimit="10" d="  M464.75,473.396c6.549-1.033,13.438,0.048,21-2.25c0.75,1,1.5,2,2.25,3C479.887,480.134,472.613,479.045,464.75,473.396z"/>
<path fill-rule="evenodd" clip-rule="evenodd" fill="#915E30" stroke="#000000" stroke-width="0.5" stroke-linecap="square" stroke-miterlimit="10" d="  M499.25,434.396c-32.329,0-64.658,0-96.987,0c-9.348,0-95.589,5.468-86.013-9.75c5.014-7.967,86.75,0,96.987,0  C429.288,424.646,501.02,414.54,499.25,434.396z"/>
<path fill-rule="evenodd" clip-rule="evenodd" fill="#FFE600" stroke="#000000" stroke-width="0.5" stroke-linecap="square" stroke-miterlimit="10" d="  M452.75,465.146c-6.163-18.645,15.941-35.285,34.125-24.375c6.322,3.793,25.344,31.769,2.625,30.375  c1.423-7.934,0.917-15.27,1.5-22.5c-0.168,35.242-26.259,21.992-35.25,1.5c2.005,6.353,2.311,13.951,5.25,21  C449.814,474.905,454.29,470.191,452.75,465.146z"/>
<path fill-rule="evenodd" clip-rule="evenodd" fill="#FFE600" d="M470.75,440.396c3.236,9.476,5.244,19.264,6,29.25  C474.75,459.896,472.75,450.146,470.75,440.396z"/>
<path fill="none" stroke="#000000" stroke-width="0.5" stroke-linecap="square" stroke-miterlimit="10" d="M470.75,440.396  c3.236,9.476,5.244,19.264,6,29.25"/>
<path fill-rule="evenodd" clip-rule="evenodd" fill="#FFE600" stroke="#000000" stroke-width="0.5" stroke-linecap="square" stroke-miterlimit="10" d="  M458,445.646C455.894,452.998,457.23,448.331,458,445.646L458,445.646z"/>
<path fill-rule="evenodd" clip-rule="evenodd" fill="#FFE600" d="M491,444.146C491.06,454.022,491.011,445.866,491,444.146  L491,444.146z"/>
<path fill="none" stroke="#000000" stroke-width="0.5" stroke-linecap="square" stroke-miterlimit="10" d="M491,444.146  c0.116,7.811,0.081,5.106,0-0.75"/>
<path fill-rule="evenodd" clip-rule="evenodd" stroke="#000000" stroke-width="0.5" stroke-linecap="square" stroke-miterlimit="10" d="  M428.75,480.896c4.126-13.997,1.086-56.063-22.5-39.75C387.905,453.834,404.99,506.335,428.75,480.896z"/>
</svg>