<svg xmlns="http://www.w3.org/2000/svg" xmlns:xlink="http://www.w3.org/1999/xlink" version="1.1" id="Layer_1" x="0px" y="0px" enable-background="new 0 0 822.05 841.89" xml:space="preserve" viewBox="321.69 332.41 177.11 177.69">
<path fill-rule="evenodd" clip-rule="evenodd" fill="#ABD74C" d="M351.25,415.89c37.04-26.237,37.285-22.771,18-63.75  c-4.521,7.453-75.072,99.735-35.625,107.625c15.386,3.077,32.418-17.824,42.178-26.148c16.653-14.204,33.306-28.408,49.959-42.612  c9.065-7.732-13.718-28.864-19.763-37.364c-5.416,8.066-110.511,136.897-65.625,145.875c18.61,3.722,39.759-26.244,49.826-35.924  c20.342-19.56,40.683-39.118,61.025-58.678c12.726-12.236-6.214-33.219-12.976-47.523c-7.272,10.39-115.433,136.377-77.625,151.5  c19.475,7.79,42.082-24.32,52.826-34.568c20.341-19.402,40.683-38.806,61.024-58.208c12.706-12.12-5.698-33.114-12.226-47.474  c-14.68,19.889-98.064,101.02-81,132.75c19.887,36.979,88.896-57.125,100.5-69c-10-9.25-20-18.5-30-27.75  c-8.406,15.639-50.879,69.199-38.248,91.5c14.31,25.264,39.387-6.836,50.83-17.91c9.641-9.33,35.166-45.49,11.793-54.84  c-9.245-3.698-15.207,2.007-22.875,6c-34.626,18.031-15.574,32.217,1.5,55.5c5.896-11.229,63.199-90.923,27-101.25  c-13.929-3.974-31.753,20.666-39.312,28.4c-15.276,15.631-30.552,31.263-45.828,46.894c-8.832,9.037,14.191,30.271,20.64,39.456  c8.162-11.059,114.479-125.839,71.25-142.5c-19.265-7.425-48.913,33.589-58.3,42.615c-19.062,18.329-38.125,36.658-57.187,54.987  c-7.32,7.038,12.259,34.617,16.486,43.397c10.256-14.547,113.277-126.69,79.5-150c-16.551-11.422-39.139,18.335-47.778,26.643  c-21.109,20.297-42.218,40.594-63.327,60.892c-17.862,17.176-0.695,25.41,12.855,44.466c11.232-16.909,100.246-114.371,73.5-141  c-12.24-12.187-26.782,1.425-36.783,9.955c-19.478,16.614-38.957,33.227-58.435,49.841c-15.95,13.604,4.236,26.364,14.967,41.455  c15.52-25.579,47.25-59.381,47.25-91.125c0-16.609-15.844-19.248-27.417-11.292c-21.652,14.886-49.017,27.902-55.833,55.167  C323.996,407.905,333.633,424.742,351.25,415.89z"/>
</svg>