<svg xmlns="http://www.w3.org/2000/svg" xmlns:xlink="http://www.w3.org/1999/xlink" version="1.1" id="Layer_1" x="0px" y="0px" enable-background="new 0 0 822.05 841.89" xml:space="preserve" viewBox="233.41 247.76 354.34 346.63">
<path fill-rule="evenodd" clip-rule="evenodd" fill="#5DA144" stroke="#000000" stroke-width="2" stroke-linecap="square" stroke-miterlimit="10" d="  M456.5,268.39c9.2-33.214,20.44-15.701,37.5-9c27.842,10.936,50.86,12.674,70.5,39c18.743,25.125,23.798,59.715,18.75,90  c-5.557,33.339-30.529,44.883-46.125,70.875c-24.247,40.412-103.854-32.693-114.375-53.625  C397.333,355.076,404.816,298.167,456.5,268.39z"/>
<path fill-rule="evenodd" clip-rule="evenodd" fill="#5DA144" stroke="#000000" stroke-width="2" stroke-linecap="square" stroke-miterlimit="10" d="  M248.75,409.39c-17.941-11.688-20.134-28.718-0.375-37.5c23.761-10.56,32.54-45.402,63.375-55.5  c30.703-10.055,63.511-3.12,91.5,10.875c29.968,14.984,34.868,42.366,52.875,66.375c29.229,38.971-64.551,89.218-91.125,91.875  C309.565,491.058,260.493,468.066,248.75,409.39z"/>
<path fill-rule="evenodd" clip-rule="evenodd" fill="#5DA144" stroke="#000000" stroke-width="2" stroke-linecap="square" stroke-miterlimit="10" d="  M375.5,433.39c-17.941-11.688-20.134-28.718-0.375-37.5c23.531-10.458,32.014-45.447,62.625-55.5  c70.363-23.108,113.062,24.688,144.375,76.875C620.887,481.868,404.201,571.55,375.5,433.39z"/>
<path fill-rule="evenodd" clip-rule="evenodd" fill="#5DA144" stroke="#000000" stroke-width="2" stroke-linecap="square" stroke-miterlimit="10" d="  M549.5,494.89c7.637,130.752-203.492,131.901-204,0C344.989,362.185,557.237,363.39,549.5,494.89z"/>
<path fill-rule="evenodd" clip-rule="evenodd" fill="#D7E9B8" stroke="#000000" stroke-width="2" stroke-linecap="square" stroke-miterlimit="10" d="  M542.75,494.89c-5.246,121.312-189.3,122.137-189.75,0C352.547,371.969,537.728,372.817,542.75,494.89z"/>
<path fill-rule="evenodd" clip-rule="evenodd" fill="#C6DF92" stroke="#000000" stroke-width="2" stroke-linecap="square" stroke-miterlimit="10" d="  M442.25,482.14c-3.993-17.169-30.842-95.477,19.5-69C481.593,423.576,460.266,474.114,442.25,482.14z"/>
<path fill-rule="evenodd" clip-rule="evenodd" fill="#C6DF92" stroke="#000000" stroke-width="2" stroke-linecap="square" stroke-miterlimit="10" d="  M459.5,485.14c9.549-16.126,42.243-89.538,61.5-36.75C528.658,469.382,479.147,492.708,459.5,485.14z"/>
<path fill-rule="evenodd" clip-rule="evenodd" fill="#C6DF92" stroke="#000000" stroke-width="2" stroke-linecap="square" stroke-miterlimit="10" d="  M433.25,498.64c-17.783,2.627-100.756,6.242-57,43.5C393.333,556.686,431.239,520.076,433.25,498.64z"/>
<path fill-rule="evenodd" clip-rule="evenodd" fill="#C6DF92" stroke="#000000" stroke-width="2" stroke-linecap="square" stroke-miterlimit="10" d="  M461,499.39c17.397-6.214,91.291-41.994,70.5,11.25C523.349,531.515,471.991,517.593,461,499.39z"/>
<path fill-rule="evenodd" clip-rule="evenodd" fill="#C6DF92" stroke="#000000" stroke-width="2" stroke-linecap="square" stroke-miterlimit="10" d="  M460.25,511.39c23.426,9.898,75.944,20.479,38.25,48.75C480.479,573.656,458.602,526.858,460.25,511.39z"/>
<path fill-rule="evenodd" clip-rule="evenodd" fill="#C6DF92" stroke="#000000" stroke-width="2" stroke-linecap="square" stroke-miterlimit="10" d="  M437,485.89c-14-17.5-28-35-42-52.5c-9.125,7.438-29.376,30.655-24,44.25C376.105,490.549,425.004,497.084,437,485.89z"/>
<path fill-rule="evenodd" clip-rule="evenodd" fill="#C6DF92" stroke="#000000" stroke-width="2" stroke-linecap="square" stroke-miterlimit="10" d="  M448.25,506.89c3.985,17.138,30.921,95.513-19.5,69C408.736,565.367,429.498,514.644,448.25,506.89z"/>
</svg>