<svg xmlns="http://www.w3.org/2000/svg" xmlns:xlink="http://www.w3.org/1999/xlink" version="1.1" id="Layer_1" x="0px" y="0px" enable-background="new 0 0 822.05 841.89" xml:space="preserve" viewBox="203.48 276.91 411.5 286.89">
<path fill-rule="evenodd" clip-rule="evenodd" fill="#CEEDFC" stroke="#000000" stroke-width="2" stroke-linecap="square" stroke-miterlimit="10" d="  M204.479,358.813c70.371,64.583,140.742,129.167,211.113,193.75c26.997,24.777,35.321-0.35,62.151-23.421  c36.662-31.526,73.325-63.053,109.987-94.579c-68.329-49.736-136.658-99.471-204.987-149.207c-24.297-17.686-37-0.105-63.605,13.75  C280.918,319.008,242.698,338.911,204.479,358.813z"/>
<path fill-rule="evenodd" clip-rule="evenodd" fill="#904098" stroke="#000000" stroke-width="2" stroke-linecap="square" stroke-miterlimit="10" d="  M601.98,315.313c29.077,18.216-27.312,49.223-41.628,61.958c-14.691,13.07-59.505,73.205-74.622,41.542  C524.48,384.313,563.23,349.813,601.98,315.313z"/>
<path fill-rule="evenodd" clip-rule="evenodd" fill="#CB97C4" stroke="#000000" stroke-width="2" stroke-linecap="square" stroke-miterlimit="10" d="  M496.98,433.063c-6.573,3.627-14.176,6.51-22.5,11.25c0.533-7.685,5.618-17.938,10.5-24  C488.836,424.41,493.989,428.329,496.98,433.063z"/>
<path fill-rule="evenodd" clip-rule="evenodd" fill="#CB97C4" stroke="#000000" stroke-width="2" stroke-linecap="square" stroke-miterlimit="10" d="  M613.98,326.563c-1.403-3.36-0.388-8.828-7.5-12.75c-1,0.75-2,1.5-3,2.25C606.98,319.563,610.48,323.063,613.98,326.563z"/>
<line fill="none" stroke="#000000" stroke-width="2" stroke-linecap="square" stroke-miterlimit="10" x1="491.73" y1="434.563" x2="482.73" y2="424.813"/>
<path fill-rule="evenodd" clip-rule="evenodd" fill="#CB97C4" stroke="#000000" stroke-width="2" stroke-linecap="square" stroke-miterlimit="10" d="  M532.98,400.813c-4.271-21.825,27.49-53.17,50.25-44.25C566.48,371.313,549.73,386.063,532.98,400.813z"/>
<line fill="none" stroke="#CB97C4" stroke-width="2" stroke-linecap="square" stroke-miterlimit="10" x1="334.979" y1="350.563" x2="457.23" y2="452.563"/>
</svg>