<svg xmlns="http://www.w3.org/2000/svg" xmlns:xlink="http://www.w3.org/1999/xlink" version="1.1" id="Layer_1" x="0px" y="0px" enable-background="new 0 0 822.05 841.89" xml:space="preserve" viewBox="303.34 337.34 214.91 169.63">
<path fill-rule="evenodd" clip-rule="evenodd" fill="#F7DE58" stroke="#000000" stroke-width="0.75" stroke-linecap="square" stroke-miterlimit="10" d="  M379.875,477.214c8.173,11.238-11.662,22.512-2.25,24.75c17.719,4.213,19.804-23.104,21.75-33  C390.04,465.091,382.516,468.789,379.875,477.214z"/>
<path fill-rule="evenodd" clip-rule="evenodd" fill="#F7DE58" stroke="#000000" stroke-width="0.75" stroke-linecap="square" stroke-miterlimit="10" d="  M338.625,465.964c3.814,7.034,4.78,39.097,3,37.5C360.889,520.744,371.057,460.69,338.625,465.964z"/>
<path fill-rule="evenodd" clip-rule="evenodd" fill="#F7DE58" stroke="#000000" stroke-width="0.75" stroke-linecap="square" stroke-miterlimit="10" d="  M331.875,436.714c5.951-14.293,49.867-16.2,63.75-12c27.604,8.35,13.385,30.967,30,46.5c-0.584-0.105-3.314,0.013-3,1.5  c-7.799-7.852-10.051-20.027-11.25-30c-6.181,20.659,10.353,39.803-2.25,57.75c-12.637,17.996-9.125-20.861-15.75-25.5  c-8.915,6.613-24.344,6.05-26.25,14.625c-2.71,12.195-5.577,18.84-18.75,13.875C365.261,487.224,329.349,459.172,331.875,436.714z"/>
<path fill-rule="evenodd" clip-rule="evenodd" fill="#F87F11" stroke="#000000" stroke-width="0.75" stroke-linecap="square" stroke-miterlimit="10" d="  M425.625,470.464c3.883,1.17,7.312,3.245,9.75,6c-1.75-0.5-3.5-1-5.25-1.5c1.519,1.866,5.049,5.429,4.5,8.25  c0.554-0.33-4.754-4.954-5.25-5.25c1.504,3.184,3.132,6.845,2.25,10.5c-2.2-1.896-3.459-7.199-4.5-9.75  c-1.061,1.545-0.656,6.743-3,7.5C422.171,479.365,424.292,474.54,425.625,470.464z"/>
<path fill="none" stroke="#000000" stroke-width="0.75" stroke-linecap="square" stroke-miterlimit="10" d="M403.125,484.714  c1,0.25,2,0.5,3,0.75"/>
<path fill="none" stroke="#000000" stroke-width="0.75" stroke-linecap="square" stroke-miterlimit="10" d="M394.125,474.964  c1.75-0.75,3-2,3.75-3.75"/>
<path fill="none" stroke="#000000" stroke-width="0.75" stroke-linecap="square" stroke-miterlimit="10" d="M368.625,482.464  c-1.697-0.347-3.197-1.097-4.5-2.25"/>
<path fill-rule="evenodd" clip-rule="evenodd" fill="#F87F11" stroke="#000000" stroke-width="0.75" stroke-linecap="square" stroke-miterlimit="10" d="  M360.375,417.214c1.427,1.095-0.265-4.366-9-3c0.63-1.188,3.606-2.822,3.75-3.75c-4.108,0.224-3.994,0.167-8.25,2.25  c1.153-1.303,1.903-2.803,2.25-4.5c-3.405-0.616-5.828,0.941-9,1.5c-0.274-2.289,3.281-2.464,3.75-4.5  c-3.768,2.662-4.771,2.035-7.5,5.25c-0.634-1.711-1.134-3.461-1.5-5.25c-1.993,1.281,0.306,3.944-0.75,5.25  c-2.182-1.688-5.698-4.268-7.5-6c-0.788,2.043,2.098,4.286,1.5,6c-1.725-0.751-8.401-3.366-10.5-3c-0.219,0.404,3.178,2.555,3,3  c-4.001,0.275-8.329,0.181-12,2.25c-0.091,0.189,3.753,2.226,3.75,2.25c-2.133,0.839-5.367,0.662-7.5,1.5  c-0.92,10.975-3.141,21.118,3,24.75c-0.612,9.394,2.003,11.723,6,20.25c0.5-1,1-2,1.5-3c3.669,6.055,1.985,4.045,5.25,3.75  c-0.192,4.278,0.328,7.022-0.75,12c6.055-1.593,7-3.203,10.5-6.75c1.434,1.878,3.432,7.107,5.25,8.25  c0.393-0.592,1.292-6.223,0.75-6c1.988,1.567,3.02,4.943,4.5,6.75c2.292-1.214-0.143-6.234,0-7.5c2.864,1.488,4.951,5.48,7.5,7.5  c0.49-3.102-0.756-7.75,0-10.5c2.004,1.058,1.908,5.688,3,6.75c1.225-4.154,0.953-9.346,2.25-13.5c0.279-0.128,4.911,5.056,4.5,5.25  c1.088-3.92,0.4-8.032,0.75-12c1.778,0.9,4.523,5.758,5.25,6c-0.055-4.013-1.251-8.146-2.25-12c-0.096,0.127,5.606,4.115,6,3.75  c-0.723-4.881-2.537-8.654-3.75-12.75c1.602,0.166,5.377,3.381,6.75,3c-1.579-5.273-3.946-8.283-6.75-12.75  c1.454-0.621,2.954-0.871,4.5-0.75C365.16,423.78,358.174,415.224,360.375,417.214z"/>
<path fill-rule="evenodd" clip-rule="evenodd" fill="#F7DE58" stroke="#000000" stroke-width="0.75" stroke-linecap="square" stroke-miterlimit="10" d="  M355.125,421.714c-19.053-2.599-54.762-2.577-36.75,24C339.024,476.181,354.661,442.485,355.125,421.714z"/>
<path fill="none" stroke="#000000" stroke-width="0.75" stroke-linecap="square" stroke-miterlimit="10" d="M329.625,434.464  C328.625,434.464,328.625,434.464,329.625,434.464L329.625,434.464z"/>
<path fill="none" stroke="#000000" stroke-width="0.75" stroke-linecap="square" stroke-miterlimit="10" d="M330.375,435.214  C329.771,435.818,329.771,435.818,330.375,435.214L330.375,435.214z"/>
<path fill="none" stroke="#000000" stroke-width="0.75" stroke-linecap="square" stroke-miterlimit="10" d="M330.375,435.214  C328.731,436.101,329.733,435.56,330.375,435.214L330.375,435.214z"/>
<path fill="none" stroke="#000000" stroke-width="0.75" stroke-linecap="square" stroke-miterlimit="10" d="M331.125,434.464  C328.453,434.76,329.138,434.684,331.125,434.464L331.125,434.464z"/>
<path fill="none" stroke="#000000" stroke-width="0.75" stroke-linecap="square" stroke-miterlimit="10" d="M329.625,434.464  C327.514,434.143,328.973,434.365,329.625,434.464L329.625,434.464z"/>
<path fill="none" stroke="#000000" stroke-width="0.75" stroke-linecap="square" stroke-miterlimit="10" d="M329.625,435.214  C329.625,436.214,329.625,436.214,329.625,435.214L329.625,435.214z"/>
<path fill="none" stroke="#000000" stroke-width="0.75" stroke-linecap="square" stroke-miterlimit="10" d="M330.375,435.964  C329.551,435.141,329.551,435.141,330.375,435.964L330.375,435.964z"/>
<path fill="none" stroke="#000000" stroke-width="0.75" stroke-linecap="square" stroke-miterlimit="10" d="M330.375,435.964  C329.551,435.141,329.551,435.141,330.375,435.964L330.375,435.964z"/>
<path fill="none" stroke="#000000" stroke-width="0.75" stroke-linecap="square" stroke-miterlimit="10" d="M330.375,435.964  C329.551,435.141,329.551,435.141,330.375,435.964L330.375,435.964z"/>
<path fill="none" stroke="#000000" stroke-width="0.75" stroke-linecap="square" stroke-miterlimit="10" d="M330.375,435.964  C329.771,435.361,329.771,435.361,330.375,435.964L330.375,435.964z"/>
<path fill="none" stroke="#000000" stroke-width="0.75" stroke-linecap="square" stroke-miterlimit="10" d="M330.375,435.964  C329.771,435.361,329.771,435.361,330.375,435.964L330.375,435.964z"/>
<path fill="none" stroke="#000000" stroke-width="0.75" stroke-linecap="square" stroke-miterlimit="10" d="M330.375,435.214  C329.771,435.818,329.771,435.818,330.375,435.214L330.375,435.214z"/>
<path fill="none" stroke="#000000" stroke-width="0.75" stroke-linecap="square" stroke-miterlimit="10" d="M330.375,435.214  C328.731,436.101,329.733,435.56,330.375,435.214L330.375,435.214z"/>
<path fill="none" stroke="#000000" stroke-width="0.75" stroke-linecap="square" stroke-miterlimit="10" d="M330.375,435.214  C329.375,435.214,329.375,435.214,330.375,435.214L330.375,435.214z"/>
<path fill="none" stroke="#000000" stroke-width="0.75" stroke-linecap="square" stroke-miterlimit="10" d="M331.125,434.464  C328.209,434.697,329.499,434.594,331.125,434.464L331.125,434.464z"/>
<path fill="none" stroke="#000000" stroke-width="0.75" stroke-linecap="square" stroke-miterlimit="10" d="M330.375,434.464  C328.512,435.369,330.854,434.232,330.375,434.464L330.375,434.464z"/>
<path fill="none" stroke="#000000" stroke-width="0.75" stroke-linecap="square" stroke-miterlimit="10" d="M329.625,435.214  L329.625,435.214z"/>
<path fill="none" stroke="#000000" stroke-width="0.75" stroke-linecap="square" stroke-miterlimit="10" d="M330.375,435.964  C329.551,435.141,329.551,435.141,330.375,435.964L330.375,435.964z"/>
<path fill="none" stroke="#000000" stroke-width="0.75" stroke-linecap="square" stroke-miterlimit="10" d="M330.375,435.964  C329.551,435.141,329.551,435.141,330.375,435.964L330.375,435.964z"/>
<path fill="none" stroke="#000000" stroke-width="0.75" stroke-linecap="square" stroke-miterlimit="10" d="M330.375,435.964  C329.771,435.361,329.771,435.361,330.375,435.964L330.375,435.964z"/>
<path fill="none" stroke="#000000" stroke-width="0.75" stroke-linecap="square" stroke-miterlimit="10" d="M330.375,435.964  C329.771,435.361,329.771,435.361,330.375,435.964L330.375,435.964z"/>
<path fill="none" stroke="#000000" stroke-width="0.75" stroke-linecap="square" stroke-miterlimit="10" d="M330.375,435.964  C329.771,435.361,329.771,435.361,330.375,435.964L330.375,435.964z"/>
<path fill="none" stroke="#000000" stroke-width="0.75" stroke-linecap="square" stroke-miterlimit="10" d="M330.375,435.214  C328.731,436.101,329.733,435.56,330.375,435.214L330.375,435.214z"/>
<path fill="none" stroke="#000000" stroke-width="0.75" stroke-linecap="square" stroke-miterlimit="10" d="M330.375,435.214  C329.375,435.214,329.375,435.214,330.375,435.214L330.375,435.214z"/>
<path fill="none" stroke="#000000" stroke-width="0.75" stroke-linecap="square" stroke-miterlimit="10" d="M330.375,435.214  C329.375,435.214,329.375,435.214,330.375,435.214L330.375,435.214z"/>
<path fill="none" stroke="#000000" stroke-width="0.75" stroke-linecap="square" stroke-miterlimit="10" d="M330.375,435.964  C329.551,435.141,329.551,435.141,330.375,435.964L330.375,435.964z"/>
<path fill="none" stroke="#000000" stroke-width="0.75" stroke-linecap="square" stroke-miterlimit="10" d="M330.375,435.964  C329.551,435.141,329.551,435.141,330.375,435.964L330.375,435.964z"/>
<path fill="none" stroke="#000000" stroke-width="0.75" stroke-linecap="square" stroke-miterlimit="10" d="M329.625,435.214  L329.625,435.214z"/>
<path fill="none" stroke="#000000" stroke-width="0.75" stroke-linecap="square" stroke-miterlimit="10" d="M330.375,435.964  C329.771,435.361,329.771,435.361,330.375,435.964L330.375,435.964z"/>
<path fill="none" stroke="#000000" stroke-width="0.75" stroke-linecap="square" stroke-miterlimit="10" d="M330.375,435.964  C329.771,435.361,329.771,435.361,330.375,435.964L330.375,435.964z"/>
<path fill="none" stroke="#000000" stroke-width="0.75" stroke-linecap="square" stroke-miterlimit="10" d="M330.375,435.964  C329.771,435.361,329.771,435.361,330.375,435.964L330.375,435.964z"/>
<path fill="none" stroke="#000000" stroke-width="0.75" stroke-linecap="square" stroke-miterlimit="10" d="M330.375,435.214  C329.733,434.869,328.731,434.328,330.375,435.214L330.375,435.214z"/>
<path fill="none" stroke="#000000" stroke-width="0.75" stroke-linecap="square" stroke-miterlimit="10" d="M330.375,435.214  C329.375,435.214,329.375,435.214,330.375,435.214L330.375,435.214z"/>
<path fill="none" stroke="#000000" stroke-width="0.75" stroke-linecap="square" stroke-miterlimit="10" d="M330.375,435.214  C329.375,435.214,329.375,435.214,330.375,435.214L330.375,435.214z"/>
<path fill="none" stroke="#000000" stroke-width="0.75" stroke-linecap="square" stroke-miterlimit="10" d="M330.375,435.214  C329.375,435.214,329.375,435.214,330.375,435.214L330.375,435.214z"/>
<path fill="none" stroke="#000000" stroke-width="0.75" stroke-linecap="square" stroke-miterlimit="10" d="M330.375,435.214  C329.375,435.214,329.375,435.214,330.375,435.214L330.375,435.214z"/>
<path fill="none" stroke="#000000" stroke-width="0.75" stroke-linecap="square" stroke-miterlimit="10" d="M330.375,435.964  C329.733,435.619,328.731,435.078,330.375,435.964L330.375,435.964z"/>
<path fill="none" stroke="#000000" stroke-width="0.75" stroke-linecap="square" stroke-miterlimit="10" d="M330.375,435.214  C329.733,434.869,328.731,434.328,330.375,435.214L330.375,435.214z"/>
<path fill="none" stroke="#000000" stroke-width="0.75" stroke-linecap="square" stroke-miterlimit="10" d="M329.625,435.214  L329.625,435.214z"/>
<path fill="none" stroke="#000000" stroke-width="0.75" stroke-linecap="square" stroke-miterlimit="10" d="M330.375,435.214  C329.733,434.869,328.731,434.328,330.375,435.214L330.375,435.214z"/>
<path fill="none" stroke="#000000" stroke-width="0.75" stroke-linecap="square" stroke-miterlimit="10" d="M330.375,435.214  C329.375,435.214,329.375,435.214,330.375,435.214L330.375,435.214z"/>
<path fill="none" stroke="#000000" stroke-width="0.75" stroke-linecap="square" stroke-miterlimit="10" d="M330.375,435.214  C329.375,435.214,329.375,435.214,330.375,435.214L330.375,435.214z"/>
<path fill="none" stroke="#000000" stroke-width="0.75" stroke-linecap="square" stroke-miterlimit="10" d="M330.375,435.214  C329.375,435.214,329.375,435.214,330.375,435.214L330.375,435.214z"/>
<path fill="none" stroke="#000000" stroke-width="0.75" stroke-linecap="square" stroke-miterlimit="10" d="M330.375,435.214  C329.375,435.214,329.375,435.214,330.375,435.214L330.375,435.214z"/>
<path fill="none" stroke="#000000" stroke-width="0.75" stroke-linecap="square" stroke-miterlimit="10" d="M330.375,435.214  C329.375,435.214,329.375,435.214,330.375,435.214L330.375,435.214z"/>
<path fill="none" stroke="#000000" stroke-width="0.75" stroke-linecap="square" stroke-miterlimit="10" d="M329.625,434.464  L329.625,434.464z"/>
<path fill="none" stroke="#000000" stroke-width="0.75" stroke-linecap="square" stroke-miterlimit="10" d="M329.625,434.464  L329.625,434.464z"/>
<path fill="none" stroke="#000000" stroke-width="0.75" stroke-linecap="square" stroke-miterlimit="10" d="M330.375,435.214  C329.771,434.611,329.771,434.611,330.375,435.214L330.375,435.214z"/>
<path fill="none" stroke="#000000" stroke-width="0.75" stroke-linecap="square" stroke-miterlimit="10" d="M329.625,435.214  C329.021,434.611,329.021,434.611,329.625,435.214L329.625,435.214z"/>
<path fill="none" stroke="#000000" stroke-width="0.75" stroke-linecap="square" stroke-miterlimit="10" d="M329.625,434.464  L329.625,434.464z"/>
<path fill="none" stroke="#000000" stroke-width="0.75" stroke-linecap="square" stroke-miterlimit="10" d="M329.625,435.214  C329.021,434.611,329.021,434.611,329.625,435.214L329.625,435.214z"/>
<path fill="none" stroke="#000000" stroke-width="0.75" stroke-linecap="square" stroke-miterlimit="10" d="M329.625,434.464  C329.021,435.068,329.021,435.068,329.625,434.464L329.625,434.464z"/>
<path fill="none" stroke="#000000" stroke-width="0.75" stroke-linecap="square" stroke-miterlimit="10" d="M329.625,434.464  C329.021,435.068,329.021,435.068,329.625,434.464L329.625,434.464z"/>
<path fill="none" stroke="#000000" stroke-width="0.75" stroke-linecap="square" stroke-miterlimit="10" d="M329.625,434.464  C328.625,434.464,328.625,434.464,329.625,434.464L329.625,434.464z"/>
<path fill="none" stroke="#000000" stroke-width="0.75" stroke-linecap="square" stroke-miterlimit="10" d="M329.625,434.464  C328.625,434.464,328.625,434.464,329.625,434.464L329.625,434.464z"/>
<path fill="none" stroke="#000000" stroke-width="0.75" stroke-linecap="square" stroke-miterlimit="10" d="M329.625,434.464  L329.625,434.464z"/>
<path fill="none" stroke="#000000" stroke-width="0.75" stroke-linecap="square" stroke-miterlimit="10" d="M329.625,434.464  L329.625,434.464z"/>
<path fill="none" stroke="#000000" stroke-width="0.75" stroke-linecap="square" stroke-miterlimit="10" d="M329.625,434.464  L329.625,434.464z"/>
<path fill="none" stroke="#000000" stroke-width="0.75" stroke-linecap="square" stroke-miterlimit="10" d="M330.375,435.214  C329.771,434.611,329.771,434.611,330.375,435.214L330.375,435.214z"/>
<path fill="none" stroke="#000000" stroke-width="0.75" stroke-linecap="square" stroke-miterlimit="10" d="M329.625,435.214  C329.021,434.611,329.021,434.611,329.625,435.214L329.625,435.214z"/>
<path fill="none" stroke="#000000" stroke-width="0.75" stroke-linecap="square" stroke-miterlimit="10" d="M329.625,434.464  L329.625,434.464z"/>
<path fill="none" stroke="#000000" stroke-width="0.75" stroke-linecap="square" stroke-miterlimit="10" d="M329.625,434.464  C329.021,435.068,329.021,435.068,329.625,434.464L329.625,434.464z"/>
<path fill="none" stroke="#000000" stroke-width="0.75" stroke-linecap="square" stroke-miterlimit="10" d="M329.625,434.464  C329.021,435.068,329.021,435.068,329.625,434.464L329.625,434.464z"/>
<path fill="none" stroke="#000000" stroke-width="0.75" stroke-linecap="square" stroke-miterlimit="10" d="M329.625,434.464  C329.021,435.068,329.021,435.068,329.625,434.464L329.625,434.464z"/>
<path fill="none" stroke="#000000" stroke-width="0.75" stroke-linecap="square" stroke-miterlimit="10" d="M329.625,434.464  C328.625,434.464,328.625,434.464,329.625,434.464L329.625,434.464z"/>
<path fill="none" stroke="#000000" stroke-width="0.75" stroke-linecap="square" stroke-miterlimit="10" d="M329.625,434.464  C328.625,434.464,328.625,434.464,329.625,434.464L329.625,434.464z"/>
<path fill="none" stroke="#000000" stroke-width="0.75" stroke-linecap="square" stroke-miterlimit="10" d="M329.625,434.464  L329.625,434.464z"/>
<path fill="none" stroke="#000000" stroke-width="0.75" stroke-linecap="square" stroke-miterlimit="10" d="M329.625,434.464  L329.625,434.464z"/>
<path fill="none" stroke="#000000" stroke-width="0.75" stroke-linecap="square" stroke-miterlimit="10" d="M329.625,434.464  L329.625,434.464z"/>
<path fill="none" stroke="#000000" stroke-width="0.75" stroke-linecap="square" stroke-miterlimit="10" d="M329.625,435.214  C329.021,434.611,329.021,434.611,329.625,435.214L329.625,435.214z"/>
<path fill="none" stroke="#000000" stroke-width="0.75" stroke-linecap="square" stroke-miterlimit="10" d="M329.625,434.464  C329.021,435.068,329.021,435.068,329.625,434.464L329.625,434.464z"/>
<path fill="none" stroke="#000000" stroke-width="0.75" stroke-linecap="square" stroke-miterlimit="10" d="M329.625,434.464  L329.625,434.464z"/>
<path fill="none" stroke="#000000" stroke-width="0.75" stroke-linecap="square" stroke-miterlimit="10" d="M329.625,434.464  C329.021,435.068,329.021,435.068,329.625,434.464L329.625,434.464z"/>
<path fill="none" stroke="#000000" stroke-width="0.75" stroke-linecap="square" stroke-miterlimit="10" d="M329.625,434.464  C329.021,435.068,329.021,435.068,329.625,434.464L329.625,434.464z"/>
<path fill="none" stroke="#000000" stroke-width="0.75" stroke-linecap="square" stroke-miterlimit="10" d="M329.625,434.464  C328.625,434.464,328.625,434.464,329.625,434.464L329.625,434.464z"/>
<path fill="none" stroke="#000000" stroke-width="0.75" stroke-linecap="square" stroke-miterlimit="10" d="M329.625,434.464  L329.625,434.464z"/>
<path fill="none" stroke="#000000" stroke-width="0.75" stroke-linecap="square" stroke-miterlimit="10" d="M329.625,434.464  L329.625,434.464z"/>
<path fill="none" stroke="#000000" stroke-width="0.75" stroke-linecap="square" stroke-miterlimit="10" d="M329.625,434.464  L329.625,434.464z"/>
<path fill="none" stroke="#000000" stroke-width="0.75" stroke-linecap="square" stroke-miterlimit="10" d="M329.625,434.464  L329.625,434.464z"/>
<path fill="none" stroke="#000000" stroke-width="0.75" stroke-linecap="square" stroke-miterlimit="10" d="M329.625,434.464  L329.625,434.464z"/>
<path fill="none" stroke="#000000" stroke-width="0.75" stroke-linecap="square" stroke-miterlimit="10" d="M329.625,434.464  L329.625,434.464z"/>
<path fill="none" stroke="#000000" stroke-width="0.75" stroke-linecap="square" stroke-miterlimit="10" d="M329.625,434.464  L329.625,434.464z"/>
<path fill="none" stroke="#000000" stroke-width="0.75" stroke-linecap="square" stroke-miterlimit="10" d="M329.625,434.464  L329.625,434.464z"/>
<path fill="none" stroke="#000000" stroke-width="0.75" stroke-linecap="square" stroke-miterlimit="10" d="M329.625,434.464  L329.625,434.464z"/>
<path fill="none" stroke="#000000" stroke-width="0.75" stroke-linecap="square" stroke-miterlimit="10" d="M329.625,434.464  L329.625,434.464z"/>
<path fill="none" stroke="#000000" stroke-width="0.75" stroke-linecap="square" stroke-miterlimit="10" d="M329.625,434.464  L329.625,434.464z"/>
<path fill="none" stroke="#000000" stroke-width="0.75" stroke-linecap="square" stroke-miterlimit="10" d="M329.625,434.464  L329.625,434.464z"/>
<path fill="none" stroke="#000000" stroke-width="0.75" stroke-linecap="square" stroke-miterlimit="10" d="M329.625,434.464  L329.625,434.464z"/>
<path fill="none" stroke="#000000" stroke-width="0.75" stroke-linecap="square" stroke-miterlimit="10" d="M329.625,434.464  L329.625,434.464z"/>
<path fill="none" stroke="#000000" stroke-width="0.75" stroke-linecap="square" stroke-miterlimit="10" d="M327.375,434.464  c0.999-0.882,2.355-1.097,3.75-0.75"/>
<path fill-rule="evenodd" clip-rule="evenodd" fill="#F3DCB0" stroke="#000000" stroke-width="0.75" stroke-linecap="square" stroke-miterlimit="10" d="  M349.125,444.214c-21.241-10.302-31.259,16.441-12,1.5C345.38,454.834,345.111,448.475,349.125,444.214z"/>
<path fill-rule="evenodd" clip-rule="evenodd" fill="#F5CB99" stroke="#000000" stroke-width="0.75" stroke-linecap="square" stroke-miterlimit="10" d="  M335.625,438.214c0.2,1.436,6.434-0.335,0.75,4.5C330.603,440.139,335.807,439.516,335.625,438.214z"/>
<path fill="none" stroke="#000000" stroke-width="0.75" stroke-linecap="square" stroke-miterlimit="10" d="M344.625,444.214  C344.625,445.214,344.625,445.214,344.625,444.214L344.625,444.214z"/>
<path fill="none" stroke="#000000" stroke-width="0.75" stroke-linecap="square" stroke-miterlimit="10" d="M342.375,446.464  C341.771,445.861,341.771,445.861,342.375,446.464L342.375,446.464z"/>
<path fill="none" stroke="#000000" stroke-width="0.75" stroke-linecap="square" stroke-miterlimit="10" d="M334.125,447.214  C333.521,447.818,333.521,447.818,334.125,447.214L334.125,447.214z"/>
<path fill="none" stroke="#000000" stroke-width="0.75" stroke-linecap="square" stroke-miterlimit="10" d="M331.125,447.964  C330.521,448.568,330.521,448.568,331.125,447.964L331.125,447.964z"/>
<path fill="none" stroke="#000000" stroke-width="0.75" stroke-linecap="square" stroke-miterlimit="10" d="M329.625,447.214  L329.625,447.214z"/>
<path fill="none" stroke="#000000" stroke-width="0.75" stroke-linecap="square" stroke-miterlimit="10" d="M332.625,446.464  C331.983,446.119,330.981,445.578,332.625,446.464L332.625,446.464z"/>
<path fill="none" stroke="#000000" stroke-width="0.75" stroke-linecap="square" stroke-miterlimit="10" d="M343.875,446.464  L343.875,446.464z"/>
<path fill="none" stroke="#000000" stroke-width="0.75" stroke-linecap="square" stroke-miterlimit="10" d="M346.125,446.464  C344.481,447.351,345.483,446.81,346.125,446.464L346.125,446.464z"/>
<path fill="none" stroke="#000000" stroke-width="0.75" stroke-linecap="square" stroke-miterlimit="10" d="M318.375,430.714  c-1.863-1.562-3.511-2.168-4.5-1.5"/>
<path fill="none" stroke="#000000" stroke-width="0.75" stroke-linecap="square" stroke-miterlimit="10" d="M350.625,426.214  c1.001-1.87,2.295-2.703,3.75-1.5"/>
<path fill="none" stroke="#000000" stroke-width="0.75" stroke-linecap="square" stroke-miterlimit="10" d="M332.625,450.214  c2.149,1.791,5.082,1.541,7.5-0.75"/>
<path fill="none" stroke="#000000" stroke-width="0.75" stroke-linecap="square" stroke-miterlimit="10" d="M340.875,432.964  C342.519,433.851,341.517,433.31,340.875,432.964L340.875,432.964z"/>
<path fill="none" stroke="#000000" stroke-width="0.75" stroke-linecap="square" stroke-miterlimit="10" d="M340.875,434.464  C341.479,433.861,341.479,433.861,340.875,434.464L340.875,434.464z"/>
<path fill="none" stroke="#000000" stroke-width="0.75" stroke-linecap="square" stroke-miterlimit="10" d="M340.875,434.464  C341.479,433.861,341.479,433.861,340.875,434.464L340.875,434.464z"/>
<path fill="none" stroke="#000000" stroke-width="0.75" stroke-linecap="square" stroke-miterlimit="10" d="M340.125,433.714  C341.398,433.714,341.398,433.714,340.125,433.714L340.125,433.714z"/>
<path fill="none" stroke="#000000" stroke-width="0.75" stroke-linecap="square" stroke-miterlimit="10" d="M340.125,433.714  C342.069,433.327,341.044,433.531,340.125,433.714L340.125,433.714z"/>
<path fill="none" stroke="#000000" stroke-width="0.75" stroke-linecap="square" stroke-miterlimit="10" d="M341.625,433.714  C340.625,433.714,340.625,433.714,341.625,433.714L341.625,433.714z"/>
<path fill="none" stroke="#000000" stroke-width="0.75" stroke-linecap="square" stroke-miterlimit="10" d="M340.125,433.714  C341.348,433.757,341.925,433.777,340.125,433.714L340.125,433.714z"/>
<path fill="none" stroke="#000000" stroke-width="0.75" stroke-linecap="square" stroke-miterlimit="10" d="M340.125,433.714  C341.598,433.758,341.57,433.757,340.125,433.714L340.125,433.714z"/>
<path fill="none" stroke="#000000" stroke-width="0.75" stroke-linecap="square" stroke-miterlimit="10" d="M340.875,434.464  C341.699,433.641,341.699,433.641,340.875,434.464L340.875,434.464z"/>
<path fill="none" stroke="#000000" stroke-width="0.75" stroke-linecap="square" stroke-miterlimit="10" d="M340.875,434.464  C341.762,432.821,341.221,433.823,340.875,434.464L340.875,434.464z"/>
<path fill="none" stroke="#000000" stroke-width="0.75" stroke-linecap="square" stroke-miterlimit="10" d="M340.875,434.464  C341.479,433.861,341.479,433.861,340.875,434.464L340.875,434.464z"/>
<path fill="none" stroke="#000000" stroke-width="0.75" stroke-linecap="square" stroke-miterlimit="10" d="M340.875,434.464  C341.479,433.861,341.479,433.861,340.875,434.464L340.875,434.464z"/>
<path fill="none" stroke="#000000" stroke-width="0.75" stroke-linecap="square" stroke-miterlimit="10" d="M340.875,434.464  C341.479,433.861,341.479,433.861,340.875,434.464L340.875,434.464z"/>
<path fill="none" stroke="#000000" stroke-width="0.75" stroke-linecap="square" stroke-miterlimit="10" d="M340.875,434.464  C341.479,433.861,341.479,433.861,340.875,434.464L340.875,434.464z"/>
<path fill="none" stroke="#000000" stroke-width="0.75" stroke-linecap="square" stroke-miterlimit="10" d="M340.125,433.714  C340.777,433.814,342.236,434.036,340.125,433.714L340.125,433.714z"/>
<path fill="none" stroke="#000000" stroke-width="0.75" stroke-linecap="square" stroke-miterlimit="10" d="M340.125,434.464  C341.983,434.015,341.568,434.116,340.125,434.464L340.125,434.464z"/>
<path fill="none" stroke="#000000" stroke-width="0.75" stroke-linecap="square" stroke-miterlimit="10" d="M341.625,433.714  C340.625,433.714,340.625,433.714,341.625,433.714L341.625,433.714z"/>
<path fill="none" stroke="#000000" stroke-width="0.75" stroke-linecap="square" stroke-miterlimit="10" d="M340.875,433.714  C342.33,433.785,341.757,433.757,340.875,433.714L340.875,433.714z"/>
<path fill="none" stroke="#000000" stroke-width="0.75" stroke-linecap="square" stroke-miterlimit="10" d="M340.875,434.464  C341.699,433.641,341.699,433.641,340.875,434.464L340.875,434.464z"/>
<path fill="none" stroke="#000000" stroke-width="0.75" stroke-linecap="square" stroke-miterlimit="10" d="M340.875,434.464  C341.517,434.119,342.519,433.578,340.875,434.464L340.875,434.464z"/>
<path fill="none" stroke="#000000" stroke-width="0.75" stroke-linecap="square" stroke-miterlimit="10" d="M340.875,434.464  C341.762,432.821,341.221,433.823,340.875,434.464L340.875,434.464z"/>
<path fill="none" stroke="#000000" stroke-width="0.75" stroke-linecap="square" stroke-miterlimit="10" d="M340.875,434.464  C341.479,433.861,341.479,433.861,340.875,434.464L340.875,434.464z"/>
<path fill="none" stroke="#000000" stroke-width="0.75" stroke-linecap="square" stroke-miterlimit="10" d="M340.875,434.464  C341.479,433.861,341.479,433.861,340.875,434.464L340.875,434.464z"/>
<path fill="none" stroke="#000000" stroke-width="0.75" stroke-linecap="square" stroke-miterlimit="10" d="M340.875,434.464  C341.479,433.861,341.479,433.861,340.875,434.464L340.875,434.464z"/>
<path fill="none" stroke="#000000" stroke-width="0.75" stroke-linecap="square" stroke-miterlimit="10" d="M340.875,433.714  L340.875,433.714z"/>
<path fill="none" stroke="#000000" stroke-width="0.75" stroke-linecap="square" stroke-miterlimit="10" d="M340.875,433.714  C341.995,433.714,341.995,433.714,340.875,433.714L340.875,433.714z"/>
<path fill="none" stroke="#000000" stroke-width="0.75" stroke-linecap="square" stroke-miterlimit="10" d="M340.875,434.464  C341.517,434.119,342.519,433.578,340.875,434.464L340.875,434.464z"/>
<path fill="none" stroke="#000000" stroke-width="0.75" stroke-linecap="square" stroke-miterlimit="10" d="M341.625,433.714  C340.625,433.714,340.625,433.714,341.625,433.714L341.625,433.714z"/>
<path fill="none" stroke="#000000" stroke-width="0.75" stroke-linecap="square" stroke-miterlimit="10" d="M340.875,434.464  C341.517,434.119,342.519,433.578,340.875,434.464L340.875,434.464z"/>
<path fill="none" stroke="#000000" stroke-width="0.75" stroke-linecap="square" stroke-miterlimit="10" d="M340.875,434.464  C341.517,434.119,342.519,433.578,340.875,434.464L340.875,434.464z"/>
<path fill="none" stroke="#000000" stroke-width="0.75" stroke-linecap="square" stroke-miterlimit="10" d="M340.875,434.464  C341.517,434.119,342.519,433.578,340.875,434.464L340.875,434.464z"/>
<path fill="none" stroke="#000000" stroke-width="0.75" stroke-linecap="square" stroke-miterlimit="10" d="M340.875,434.464  C341.479,433.861,341.479,433.861,340.875,434.464L340.875,434.464z"/>
<path fill="none" stroke="#000000" stroke-width="0.75" stroke-linecap="square" stroke-miterlimit="10" d="M340.875,434.464  C341.479,433.861,341.479,433.861,340.875,434.464L340.875,434.464z"/>
<path fill="none" stroke="#000000" stroke-width="0.75" stroke-linecap="square" stroke-miterlimit="10" d="M340.875,434.464  C341.479,433.861,341.479,433.861,340.875,434.464L340.875,434.464z"/>
<path fill="none" stroke="#000000" stroke-width="0.75" stroke-linecap="square" stroke-miterlimit="10" d="M340.875,433.714  L340.875,433.714z"/>
<path fill="none" stroke="#000000" stroke-width="0.75" stroke-linecap="square" stroke-miterlimit="10" d="M340.875,433.714  L340.875,433.714z"/>
<path fill="none" stroke="#000000" stroke-width="0.75" stroke-linecap="square" stroke-miterlimit="10" d="M340.875,434.464  C341.517,434.119,342.519,433.578,340.875,434.464L340.875,434.464z"/>
<path fill="none" stroke="#000000" stroke-width="0.75" stroke-linecap="square" stroke-miterlimit="10" d="M340.875,434.464  C341.517,434.119,342.519,433.578,340.875,434.464L340.875,434.464z"/>
<path fill="none" stroke="#000000" stroke-width="0.75" stroke-linecap="square" stroke-miterlimit="10" d="M340.875,433.714  L340.875,433.714z"/>
<path fill="none" stroke="#000000" stroke-width="0.75" stroke-linecap="square" stroke-miterlimit="10" d="M340.875,434.464  C341.517,434.119,342.519,433.578,340.875,434.464L340.875,434.464z"/>
<path fill="none" stroke="#000000" stroke-width="0.75" stroke-linecap="square" stroke-miterlimit="10" d="M340.875,434.464  C341.479,433.861,341.479,433.861,340.875,434.464L340.875,434.464z"/>
<path fill="none" stroke="#000000" stroke-width="0.75" stroke-linecap="square" stroke-miterlimit="10" d="M340.875,434.464  C340.875,433.464,340.875,433.464,340.875,434.464L340.875,434.464z"/>
<path fill="none" stroke="#000000" stroke-width="0.75" stroke-linecap="square" stroke-miterlimit="10" d="M340.875,434.464  C340.875,433.464,340.875,433.464,340.875,434.464L340.875,434.464z"/>
<path fill="none" stroke="#000000" stroke-width="0.75" stroke-linecap="square" stroke-miterlimit="10" d="M340.875,434.464  C340.875,433.464,340.875,433.464,340.875,434.464L340.875,434.464z"/>
<path fill="none" stroke="#000000" stroke-width="0.75" stroke-linecap="square" stroke-miterlimit="10" d="M340.875,433.714  L340.875,433.714z"/>
<path fill="none" stroke="#000000" stroke-width="0.75" stroke-linecap="square" stroke-miterlimit="10" d="M340.875,433.714  C341.875,433.714,341.875,433.714,340.875,433.714L340.875,433.714z"/>
<path fill="none" stroke="#000000" stroke-width="0.75" stroke-linecap="square" stroke-miterlimit="10" d="M340.875,433.714  L340.875,433.714z"/>
<path fill="none" stroke="#000000" stroke-width="0.75" stroke-linecap="square" stroke-miterlimit="10" d="M340.875,433.714  C341.517,433.369,342.519,432.828,340.875,433.714L340.875,433.714z"/>
<path fill="none" stroke="#000000" stroke-width="0.75" stroke-linecap="square" stroke-miterlimit="10" d="M340.875,433.714  C341.762,432.071,341.221,433.073,340.875,433.714L340.875,433.714z"/>
<path fill="none" stroke="#000000" stroke-width="0.75" stroke-linecap="square" stroke-miterlimit="10" d="M341.625,433.714  C340.625,433.714,340.625,433.714,341.625,433.714L341.625,433.714z"/>
<path fill="none" stroke="#000000" stroke-width="0.75" stroke-linecap="square" stroke-miterlimit="10" d="M340.875,433.714  C341.479,433.111,341.479,433.111,340.875,433.714L340.875,433.714z"/>
<path fill="none" stroke="#000000" stroke-width="0.75" stroke-linecap="square" stroke-miterlimit="10" d="M340.875,433.714  C341.479,433.111,341.479,433.111,340.875,433.714L340.875,433.714z"/>
<path fill="none" stroke="#000000" stroke-width="0.75" stroke-linecap="square" stroke-miterlimit="10" d="M340.875,433.714  C341.479,433.111,341.479,433.111,340.875,433.714L340.875,433.714z"/>
<path fill="none" stroke="#000000" stroke-width="0.75" stroke-linecap="square" stroke-miterlimit="10" d="M340.875,433.714  C341.479,433.111,341.479,433.111,340.875,433.714L340.875,433.714z"/>
<path fill="none" stroke="#000000" stroke-width="0.75" stroke-linecap="square" stroke-miterlimit="10" d="M340.875,433.714  C341.479,433.111,341.479,433.111,340.875,433.714L340.875,433.714z"/>
<path fill="none" stroke="#000000" stroke-width="0.75" stroke-linecap="square" stroke-miterlimit="10" d="M340.875,433.714  C341.875,433.714,341.875,433.714,340.875,433.714L340.875,433.714z"/>
<path fill="none" stroke="#000000" stroke-width="0.75" stroke-linecap="square" stroke-miterlimit="10" d="M340.875,433.714  C341.875,433.714,341.875,433.714,340.875,433.714L340.875,433.714z"/>
<path fill="none" stroke="#000000" stroke-width="0.75" stroke-linecap="square" stroke-miterlimit="10" d="M340.875,433.714  L340.875,433.714z"/>
<path fill="none" stroke="#000000" stroke-width="0.75" stroke-linecap="square" stroke-miterlimit="10" d="M340.875,433.714  C341.479,433.111,341.479,433.111,340.875,433.714L340.875,433.714z"/>
<path fill="none" stroke="#000000" stroke-width="0.75" stroke-linecap="square" stroke-miterlimit="10" d="M340.875,433.714  C341.479,433.111,341.479,433.111,340.875,433.714L340.875,433.714z"/>
<path fill="none" stroke="#000000" stroke-width="0.75" stroke-linecap="square" stroke-miterlimit="10" d="M340.875,433.714  L340.875,433.714z"/>
<path fill="none" stroke="#000000" stroke-width="0.75" stroke-linecap="square" stroke-miterlimit="10" d="M340.875,433.714  C341.479,433.111,341.479,433.111,340.875,433.714L340.875,433.714z"/>
<path fill="none" stroke="#000000" stroke-width="0.75" stroke-linecap="square" stroke-miterlimit="10" d="M340.875,433.714  C341.479,433.111,341.479,433.111,340.875,433.714L340.875,433.714z"/>
<path fill="none" stroke="#000000" stroke-width="0.75" stroke-linecap="square" stroke-miterlimit="10" d="M340.875,433.714  C341.479,433.111,341.479,433.111,340.875,433.714L340.875,433.714z"/>
<path fill="none" stroke="#000000" stroke-width="0.75" stroke-linecap="square" stroke-miterlimit="10" d="M340.875,433.714  C341.479,433.111,341.479,433.111,340.875,433.714L340.875,433.714z"/>
<path fill="none" stroke="#000000" stroke-width="0.75" stroke-linecap="square" stroke-miterlimit="10" d="M340.875,433.714  C341.875,433.714,341.875,433.714,340.875,433.714L340.875,433.714z"/>
<path fill="none" stroke="#000000" stroke-width="0.75" stroke-linecap="square" stroke-miterlimit="10" d="M340.875,433.714  C341.875,433.714,341.875,433.714,340.875,433.714L340.875,433.714z"/>
<path fill="none" stroke="#000000" stroke-width="0.75" stroke-linecap="square" stroke-miterlimit="10" d="M340.875,433.714  L340.875,433.714z"/>
<path fill="none" stroke="#000000" stroke-width="0.75" stroke-linecap="square" stroke-miterlimit="10" d="M340.875,433.714  L340.875,433.714z"/>
<path fill="none" stroke="#000000" stroke-width="0.75" stroke-linecap="square" stroke-miterlimit="10" d="M340.875,433.714  C341.479,433.111,341.479,433.111,340.875,433.714L340.875,433.714z"/>
<path fill="none" stroke="#000000" stroke-width="0.75" stroke-linecap="square" stroke-miterlimit="10" d="M340.875,433.714  C341.479,433.111,341.479,433.111,340.875,433.714L340.875,433.714z"/>
<path fill="none" stroke="#000000" stroke-width="0.75" stroke-linecap="square" stroke-miterlimit="10" d="M340.875,433.714  L340.875,433.714z"/>
<path fill="none" stroke="#000000" stroke-width="0.75" stroke-linecap="square" stroke-miterlimit="10" d="M340.875,433.714  C341.479,433.111,341.479,433.111,340.875,433.714L340.875,433.714z"/>
<path fill="none" stroke="#000000" stroke-width="0.75" stroke-linecap="square" stroke-miterlimit="10" d="M340.875,433.714  C341.479,433.111,341.479,433.111,340.875,433.714L340.875,433.714z"/>
<path fill="none" stroke="#000000" stroke-width="0.75" stroke-linecap="square" stroke-miterlimit="10" d="M340.875,433.714  C341.479,433.111,341.479,433.111,340.875,433.714L340.875,433.714z"/>
<path fill="none" stroke="#000000" stroke-width="0.75" stroke-linecap="square" stroke-miterlimit="10" d="M340.875,433.714  C341.875,433.714,341.875,433.714,340.875,433.714L340.875,433.714z"/>
<path fill="none" stroke="#000000" stroke-width="0.75" stroke-linecap="square" stroke-miterlimit="10" d="M340.875,433.714  L340.875,433.714z"/>
<path fill="none" stroke="#000000" stroke-width="0.75" stroke-linecap="square" stroke-miterlimit="10" d="M340.875,433.714  L340.875,433.714z"/>
<path fill="none" stroke="#000000" stroke-width="0.75" stroke-linecap="square" stroke-miterlimit="10" d="M340.875,433.714  L340.875,433.714z"/>
<path fill="none" stroke="#000000" stroke-width="0.75" stroke-linecap="square" stroke-miterlimit="10" d="M340.875,433.714  L340.875,433.714z"/>
<path fill="none" stroke="#000000" stroke-width="0.75" stroke-linecap="square" stroke-miterlimit="10" d="M340.875,433.714  C341.479,433.111,341.479,433.111,340.875,433.714L340.875,433.714z"/>
<path fill="none" stroke="#000000" stroke-width="0.75" stroke-linecap="square" stroke-miterlimit="10" d="M340.875,433.714  C340.875,432.714,340.875,432.714,340.875,433.714L340.875,433.714z"/>
<path fill="none" stroke="#000000" stroke-width="0.75" stroke-linecap="square" stroke-miterlimit="10" d="M340.875,433.714  L340.875,433.714z"/>
<path fill="none" stroke="#000000" stroke-width="0.75" stroke-linecap="square" stroke-miterlimit="10" d="M340.875,433.714  L340.875,433.714z"/>
<path fill="none" stroke="#000000" stroke-width="0.75" stroke-linecap="square" stroke-miterlimit="10" d="M340.875,433.714  L340.875,433.714z"/>
<path fill="none" stroke="#000000" stroke-width="0.75" stroke-linecap="square" stroke-miterlimit="10" d="M340.875,433.714  L340.875,433.714z"/>
<path fill="none" stroke="#000000" stroke-width="0.75" stroke-linecap="square" stroke-miterlimit="10" d="M340.875,433.714  L340.875,433.714z"/>
<path fill="none" stroke="#000000" stroke-width="0.75" stroke-linecap="square" stroke-miterlimit="10" d="M340.875,433.714  L340.875,433.714z"/>
<path fill="none" stroke="#000000" stroke-width="0.75" stroke-linecap="square" stroke-miterlimit="10" d="M340.875,433.714  L340.875,433.714z"/>
<path fill="none" stroke="#000000" stroke-width="0.75" stroke-linecap="square" stroke-miterlimit="10" d="M342.375,432.964  c-1.156-0.324-2.216-0.139-3,0.75"/>
<path fill="none" stroke="#000000" stroke-width="0.75" stroke-linecap="square" stroke-miterlimit="10" d="M337.125,442.714  c-1.053,0.579-1.053,1.329,0,2.25"/>
<path fill="none" stroke="#000000" stroke-width="0.75" stroke-linecap="square" stroke-miterlimit="10" d="M320.625,426.964  c0.112,0.835-0.138,1.585-0.75,2.25"/>
<path fill-rule="evenodd" clip-rule="evenodd" fill="#F7DE58" stroke="#000000" stroke-width="0.75" stroke-linecap="square" stroke-miterlimit="10" d="  M462.375,410.464c8.173,11.238-11.662,22.512-2.25,24.75c17.719,4.213,19.804-23.104,21.75-33  C472.54,398.341,465.016,402.039,462.375,410.464z"/>
<path fill-rule="evenodd" clip-rule="evenodd" fill="#F7DE58" stroke="#000000" stroke-width="0.75" stroke-linecap="square" stroke-miterlimit="10" d="  M421.125,399.214c3.814,7.034,4.78,39.097,3,37.5C443.39,453.994,453.557,393.94,421.125,399.214z"/>
<path fill-rule="evenodd" clip-rule="evenodd" fill="#F7DE58" stroke="#000000" stroke-width="0.75" stroke-linecap="square" stroke-miterlimit="10" d="  M414.377,369.964c5.948-14.293,49.866-16.199,63.748-12c27.603,8.35,13.386,30.967,30,46.5c-0.584-0.105-3.314,0.012-3,1.5  c-7.8-7.851-10.054-20.027-11.25-30c-6.181,20.657,10.351,39.804-2.25,57.75c-12.636,17.996-9.126-20.862-15.75-25.5  c-8.914,6.613-24.345,6.05-26.25,14.625c-2.71,12.195-5.576,18.84-18.75,13.875C447.76,420.475,411.851,392.422,414.377,369.964z"/>
<path fill-rule="evenodd" clip-rule="evenodd" fill="#F87F11" stroke="#000000" stroke-width="0.75" stroke-linecap="square" stroke-miterlimit="10" d="  M508.125,403.714c3.883,1.17,7.312,3.245,9.75,6c-1.75-0.5-3.5-1-5.25-1.5c1.519,1.866,5.049,5.429,4.5,8.25  c0.554-0.33-4.754-4.954-5.25-5.25c1.504,3.183,3.132,6.845,2.25,10.5c-2.2-1.897-3.459-7.199-4.5-9.75  c-1.061,1.545-0.656,6.743-3,7.5C504.671,412.615,506.792,407.789,508.125,403.714z"/>
<path fill="none" stroke="#000000" stroke-width="0.75" stroke-linecap="square" stroke-miterlimit="10" d="M485.625,417.964  c1,0.25,2,0.5,3,0.75"/>
<path fill="none" stroke="#000000" stroke-width="0.75" stroke-linecap="square" stroke-miterlimit="10" d="M476.625,408.214  c1.75-0.75,3-2,3.75-3.75"/>
<path fill="none" stroke="#000000" stroke-width="0.75" stroke-linecap="square" stroke-miterlimit="10" d="M451.125,415.714  c-1.697-0.347-3.197-1.097-4.5-2.25"/>
<path fill-rule="evenodd" clip-rule="evenodd" fill="#F87F11" stroke="#000000" stroke-width="0.75" stroke-linecap="square" stroke-miterlimit="10" d="  M442.875,350.464c1.428,1.095-0.265-4.366-9-3c0.63-1.188,3.606-2.822,3.75-3.75c-4.108,0.224-3.994,0.167-8.25,2.25  c1.153-1.303,1.903-2.803,2.25-4.5c-3.405-0.616-5.828,0.941-9,1.5c-0.273-2.289,3.281-2.464,3.75-4.5  c-3.768,2.662-4.771,2.035-7.5,5.25c-0.634-1.711-1.134-3.461-1.5-5.25c-1.993,1.281,0.306,3.944-0.75,5.25  c-2.182-1.688-5.698-4.268-7.5-6c-0.788,2.043,2.098,4.286,1.5,6c-1.725-0.751-8.401-3.366-10.5-3c-0.219,0.404,3.178,2.555,3,3  c-4.001,0.275-8.329,0.181-12,2.25c-0.091,0.189,3.753,2.226,3.75,2.25c-2.133,0.839-5.367,0.662-7.5,1.5  c-0.92,10.975-3.141,21.119,3,24.75c-0.612,9.394,2.003,11.723,6,20.25c0.5-1,1-2,1.5-3c3.669,6.054,1.985,4.045,5.25,3.75  c-0.192,4.278,0.328,7.022-0.75,12c6.055-1.592,7-3.203,10.5-6.75c1.433,1.877,3.432,7.107,5.25,8.25  c0.393-0.592,1.291-6.223,0.75-6c1.988,1.568,3.02,4.943,4.5,6.75c2.292-1.214-0.143-6.235,0-7.5c2.864,1.488,4.951,5.48,7.5,7.5  c0.489-3.102-0.756-7.75,0-10.5c2.004,1.058,1.908,5.688,3,6.75c1.225-4.154,0.953-9.346,2.25-13.5  c0.279-0.128,4.911,5.056,4.5,5.25c1.088-3.919,0.4-8.032,0.75-12c1.777,0.9,4.523,5.758,5.25,6c-0.055-4.013-1.251-8.147-2.25-12  c-0.097,0.127,5.606,4.115,6,3.75c-0.724-4.881-2.537-8.654-3.75-12.75c1.603,0.166,5.377,3.38,6.75,3  c-1.578-5.273-3.945-8.283-6.75-12.75c1.454-0.621,2.954-0.871,4.5-0.75C447.659,357.03,440.674,348.474,442.875,350.464z"/>
<path fill-rule="evenodd" clip-rule="evenodd" fill="#F7DE58" stroke="#000000" stroke-width="0.75" stroke-linecap="square" stroke-miterlimit="10" d="  M437.625,354.964c-19.053-2.599-54.762-2.577-36.75,24C421.524,409.432,437.161,375.734,437.625,354.964z"/>
<path fill="none" stroke="#000000" stroke-width="0.75" stroke-linecap="square" stroke-miterlimit="10" d="M412.125,367.714  C411.125,367.714,411.125,367.714,412.125,367.714L412.125,367.714z"/>
<path fill="none" stroke="#000000" stroke-width="0.75" stroke-linecap="square" stroke-miterlimit="10" d="M412.875,368.464  C412.271,369.068,412.271,369.068,412.875,368.464L412.875,368.464z"/>
<path fill="none" stroke="#000000" stroke-width="0.75" stroke-linecap="square" stroke-miterlimit="10" d="M412.875,368.464  C411.231,369.351,412.233,368.811,412.875,368.464L412.875,368.464z"/>
<path fill="none" stroke="#000000" stroke-width="0.75" stroke-linecap="square" stroke-miterlimit="10" d="M413.627,367.714  C410.953,368.01,411.637,367.935,413.627,367.714L413.627,367.714z"/>
<path fill="none" stroke="#000000" stroke-width="0.75" stroke-linecap="square" stroke-miterlimit="10" d="M412.125,367.714  C410.014,367.393,411.473,367.615,412.125,367.714L412.125,367.714z"/>
<path fill="none" stroke="#000000" stroke-width="0.75" stroke-linecap="square" stroke-miterlimit="10" d="M412.125,368.464  C412.125,369.464,412.125,369.464,412.125,368.464L412.125,368.464z"/>
<path fill="none" stroke="#000000" stroke-width="0.75" stroke-linecap="square" stroke-miterlimit="10" d="M412.875,369.214  C412.052,368.391,412.052,368.391,412.875,369.214L412.875,369.214z"/>
<path fill="none" stroke="#000000" stroke-width="0.75" stroke-linecap="square" stroke-miterlimit="10" d="M412.875,369.214  C412.052,368.391,412.052,368.391,412.875,369.214L412.875,369.214z"/>
<path fill="none" stroke="#000000" stroke-width="0.75" stroke-linecap="square" stroke-miterlimit="10" d="M412.875,369.214  C412.052,368.391,412.052,368.391,412.875,369.214L412.875,369.214z"/>
<path fill="none" stroke="#000000" stroke-width="0.75" stroke-linecap="square" stroke-miterlimit="10" d="M412.875,369.214  C412.271,368.611,412.271,368.611,412.875,369.214L412.875,369.214z"/>
<path fill="none" stroke="#000000" stroke-width="0.75" stroke-linecap="square" stroke-miterlimit="10" d="M412.875,369.214  C412.271,368.611,412.271,368.611,412.875,369.214L412.875,369.214z"/>
<path fill="none" stroke="#000000" stroke-width="0.75" stroke-linecap="square" stroke-miterlimit="10" d="M412.875,368.464  C412.271,369.068,412.271,369.068,412.875,368.464L412.875,368.464z"/>
<path fill="none" stroke="#000000" stroke-width="0.75" stroke-linecap="square" stroke-miterlimit="10" d="M412.875,368.464  C411.231,369.351,412.233,368.811,412.875,368.464L412.875,368.464z"/>
<path fill="none" stroke="#000000" stroke-width="0.75" stroke-linecap="square" stroke-miterlimit="10" d="M412.875,368.464  C411.875,368.464,411.875,368.464,412.875,368.464L412.875,368.464z"/>
<path fill="none" stroke="#000000" stroke-width="0.75" stroke-linecap="square" stroke-miterlimit="10" d="M413.627,367.714  C410.708,367.946,411.999,367.844,413.627,367.714L413.627,367.714z"/>
<path fill="none" stroke="#000000" stroke-width="0.75" stroke-linecap="square" stroke-miterlimit="10" d="M412.875,367.714  C411.012,368.618,413.354,367.482,412.875,367.714L412.875,367.714z"/>
<path fill="none" stroke="#000000" stroke-width="0.75" stroke-linecap="square" stroke-miterlimit="10" d="M412.125,368.464  L412.125,368.464z"/>
<path fill="none" stroke="#000000" stroke-width="0.75" stroke-linecap="square" stroke-miterlimit="10" d="M412.875,369.214  C412.052,368.391,412.052,368.391,412.875,369.214L412.875,369.214z"/>
<path fill="none" stroke="#000000" stroke-width="0.75" stroke-linecap="square" stroke-miterlimit="10" d="M412.875,369.214  C412.052,368.391,412.052,368.391,412.875,369.214L412.875,369.214z"/>
<path fill="none" stroke="#000000" stroke-width="0.75" stroke-linecap="square" stroke-miterlimit="10" d="M412.875,369.214  C412.271,368.611,412.271,368.611,412.875,369.214L412.875,369.214z"/>
<path fill="none" stroke="#000000" stroke-width="0.75" stroke-linecap="square" stroke-miterlimit="10" d="M412.875,369.214  C412.271,368.611,412.271,368.611,412.875,369.214L412.875,369.214z"/>
<path fill="none" stroke="#000000" stroke-width="0.75" stroke-linecap="square" stroke-miterlimit="10" d="M412.875,369.214  C412.271,368.611,412.271,368.611,412.875,369.214L412.875,369.214z"/>
<path fill="none" stroke="#000000" stroke-width="0.75" stroke-linecap="square" stroke-miterlimit="10" d="M412.875,368.464  C411.231,369.351,412.233,368.811,412.875,368.464L412.875,368.464z"/>
<path fill="none" stroke="#000000" stroke-width="0.75" stroke-linecap="square" stroke-miterlimit="10" d="M412.875,368.464  C411.875,368.464,411.875,368.464,412.875,368.464L412.875,368.464z"/>
<path fill="none" stroke="#000000" stroke-width="0.75" stroke-linecap="square" stroke-miterlimit="10" d="M412.875,368.464  C411.875,368.464,411.875,368.464,412.875,368.464L412.875,368.464z"/>
<path fill="none" stroke="#000000" stroke-width="0.75" stroke-linecap="square" stroke-miterlimit="10" d="M412.875,369.214  C412.052,368.391,412.052,368.391,412.875,369.214L412.875,369.214z"/>
<path fill="none" stroke="#000000" stroke-width="0.75" stroke-linecap="square" stroke-miterlimit="10" d="M412.875,369.214  C412.052,368.391,412.052,368.391,412.875,369.214L412.875,369.214z"/>
<path fill="none" stroke="#000000" stroke-width="0.75" stroke-linecap="square" stroke-miterlimit="10" d="M412.125,368.464  L412.125,368.464z"/>
<path fill="none" stroke="#000000" stroke-width="0.75" stroke-linecap="square" stroke-miterlimit="10" d="M412.875,369.214  C412.271,368.611,412.271,368.611,412.875,369.214L412.875,369.214z"/>
<path fill="none" stroke="#000000" stroke-width="0.75" stroke-linecap="square" stroke-miterlimit="10" d="M412.875,369.214  C412.271,368.611,412.271,368.611,412.875,369.214L412.875,369.214z"/>
<path fill="none" stroke="#000000" stroke-width="0.75" stroke-linecap="square" stroke-miterlimit="10" d="M412.875,369.214  C412.271,368.611,412.271,368.611,412.875,369.214L412.875,369.214z"/>
<path fill="none" stroke="#000000" stroke-width="0.75" stroke-linecap="square" stroke-miterlimit="10" d="M412.875,368.464  C412.233,368.118,411.231,367.578,412.875,368.464L412.875,368.464z"/>
<path fill="none" stroke="#000000" stroke-width="0.75" stroke-linecap="square" stroke-miterlimit="10" d="M412.875,368.464  C411.875,368.464,411.875,368.464,412.875,368.464L412.875,368.464z"/>
<path fill="none" stroke="#000000" stroke-width="0.75" stroke-linecap="square" stroke-miterlimit="10" d="M412.875,368.464  C411.875,368.464,411.875,368.464,412.875,368.464L412.875,368.464z"/>
<path fill="none" stroke="#000000" stroke-width="0.75" stroke-linecap="square" stroke-miterlimit="10" d="M412.875,368.464  C411.875,368.464,411.875,368.464,412.875,368.464L412.875,368.464z"/>
<path fill="none" stroke="#000000" stroke-width="0.75" stroke-linecap="square" stroke-miterlimit="10" d="M412.875,368.464  C411.875,368.464,411.875,368.464,412.875,368.464L412.875,368.464z"/>
<path fill="none" stroke="#000000" stroke-width="0.75" stroke-linecap="square" stroke-miterlimit="10" d="M412.875,369.214  C412.233,368.868,411.231,368.328,412.875,369.214L412.875,369.214z"/>
<path fill="none" stroke="#000000" stroke-width="0.75" stroke-linecap="square" stroke-miterlimit="10" d="M412.875,368.464  C412.233,368.118,411.231,367.578,412.875,368.464L412.875,368.464z"/>
<path fill="none" stroke="#000000" stroke-width="0.75" stroke-linecap="square" stroke-miterlimit="10" d="M412.125,368.464  L412.125,368.464z"/>
<path fill="none" stroke="#000000" stroke-width="0.75" stroke-linecap="square" stroke-miterlimit="10" d="M412.875,368.464  C412.233,368.118,411.231,367.578,412.875,368.464L412.875,368.464z"/>
<path fill="none" stroke="#000000" stroke-width="0.75" stroke-linecap="square" stroke-miterlimit="10" d="M412.875,368.464  C411.875,368.464,411.875,368.464,412.875,368.464L412.875,368.464z"/>
<path fill="none" stroke="#000000" stroke-width="0.75" stroke-linecap="square" stroke-miterlimit="10" d="M412.875,368.464  C411.875,368.464,411.875,368.464,412.875,368.464L412.875,368.464z"/>
<path fill="none" stroke="#000000" stroke-width="0.75" stroke-linecap="square" stroke-miterlimit="10" d="M412.875,368.464  C411.875,368.464,411.875,368.464,412.875,368.464L412.875,368.464z"/>
<path fill="none" stroke="#000000" stroke-width="0.75" stroke-linecap="square" stroke-miterlimit="10" d="M412.875,368.464  C411.875,368.464,411.875,368.464,412.875,368.464L412.875,368.464z"/>
<path fill="none" stroke="#000000" stroke-width="0.75" stroke-linecap="square" stroke-miterlimit="10" d="M412.875,368.464  C411.875,368.464,411.875,368.464,412.875,368.464L412.875,368.464z"/>
<path fill="none" stroke="#000000" stroke-width="0.75" stroke-linecap="square" stroke-miterlimit="10" d="M412.125,367.714  L412.125,367.714z"/>
<path fill="none" stroke="#000000" stroke-width="0.75" stroke-linecap="square" stroke-miterlimit="10" d="M412.125,367.714  L412.125,367.714z"/>
<path fill="none" stroke="#000000" stroke-width="0.75" stroke-linecap="square" stroke-miterlimit="10" d="M412.875,368.464  C412.271,367.861,412.271,367.861,412.875,368.464L412.875,368.464z"/>
<path fill="none" stroke="#000000" stroke-width="0.75" stroke-linecap="square" stroke-miterlimit="10" d="M412.125,368.464  C411.521,367.861,411.521,367.861,412.125,368.464L412.125,368.464z"/>
<path fill="none" stroke="#000000" stroke-width="0.75" stroke-linecap="square" stroke-miterlimit="10" d="M412.125,367.714  L412.125,367.714z"/>
<path fill="none" stroke="#000000" stroke-width="0.75" stroke-linecap="square" stroke-miterlimit="10" d="M412.125,368.464  C411.521,367.861,411.521,367.861,412.125,368.464L412.125,368.464z"/>
<path fill="none" stroke="#000000" stroke-width="0.75" stroke-linecap="square" stroke-miterlimit="10" d="M412.125,367.714  C411.521,368.318,411.521,368.318,412.125,367.714L412.125,367.714z"/>
<path fill="none" stroke="#000000" stroke-width="0.75" stroke-linecap="square" stroke-miterlimit="10" d="M412.125,367.714  C411.521,368.318,411.521,368.318,412.125,367.714L412.125,367.714z"/>
<path fill="none" stroke="#000000" stroke-width="0.75" stroke-linecap="square" stroke-miterlimit="10" d="M412.125,367.714  C411.125,367.714,411.125,367.714,412.125,367.714L412.125,367.714z"/>
<path fill="none" stroke="#000000" stroke-width="0.75" stroke-linecap="square" stroke-miterlimit="10" d="M412.125,367.714  C411.125,367.714,411.125,367.714,412.125,367.714L412.125,367.714z"/>
<path fill="none" stroke="#000000" stroke-width="0.75" stroke-linecap="square" stroke-miterlimit="10" d="M412.125,367.714  L412.125,367.714z"/>
<path fill="none" stroke="#000000" stroke-width="0.75" stroke-linecap="square" stroke-miterlimit="10" d="M412.125,367.714  L412.125,367.714z"/>
<path fill="none" stroke="#000000" stroke-width="0.75" stroke-linecap="square" stroke-miterlimit="10" d="M412.125,367.714  L412.125,367.714z"/>
<path fill="none" stroke="#000000" stroke-width="0.75" stroke-linecap="square" stroke-miterlimit="10" d="M412.875,368.464  C412.271,367.861,412.271,367.861,412.875,368.464L412.875,368.464z"/>
<path fill="none" stroke="#000000" stroke-width="0.75" stroke-linecap="square" stroke-miterlimit="10" d="M412.125,368.464  C411.521,367.861,411.521,367.861,412.125,368.464L412.125,368.464z"/>
<path fill="none" stroke="#000000" stroke-width="0.75" stroke-linecap="square" stroke-miterlimit="10" d="M412.125,367.714  L412.125,367.714z"/>
<path fill="none" stroke="#000000" stroke-width="0.75" stroke-linecap="square" stroke-miterlimit="10" d="M412.125,367.714  C411.521,368.318,411.521,368.318,412.125,367.714L412.125,367.714z"/>
<path fill="none" stroke="#000000" stroke-width="0.75" stroke-linecap="square" stroke-miterlimit="10" d="M412.125,367.714  C411.521,368.318,411.521,368.318,412.125,367.714L412.125,367.714z"/>
<path fill="none" stroke="#000000" stroke-width="0.75" stroke-linecap="square" stroke-miterlimit="10" d="M412.125,367.714  C411.521,368.318,411.521,368.318,412.125,367.714L412.125,367.714z"/>
<path fill="none" stroke="#000000" stroke-width="0.75" stroke-linecap="square" stroke-miterlimit="10" d="M412.125,367.714  C411.125,367.714,411.125,367.714,412.125,367.714L412.125,367.714z"/>
<path fill="none" stroke="#000000" stroke-width="0.75" stroke-linecap="square" stroke-miterlimit="10" d="M412.125,367.714  C411.125,367.714,411.125,367.714,412.125,367.714L412.125,367.714z"/>
<path fill="none" stroke="#000000" stroke-width="0.75" stroke-linecap="square" stroke-miterlimit="10" d="M412.125,367.714  L412.125,367.714z"/>
<path fill="none" stroke="#000000" stroke-width="0.75" stroke-linecap="square" stroke-miterlimit="10" d="M412.125,367.714  L412.125,367.714z"/>
<path fill="none" stroke="#000000" stroke-width="0.75" stroke-linecap="square" stroke-miterlimit="10" d="M412.125,367.714  L412.125,367.714z"/>
<path fill="none" stroke="#000000" stroke-width="0.75" stroke-linecap="square" stroke-miterlimit="10" d="M412.125,368.464  C411.521,367.861,411.521,367.861,412.125,368.464L412.125,368.464z"/>
<path fill="none" stroke="#000000" stroke-width="0.75" stroke-linecap="square" stroke-miterlimit="10" d="M412.125,367.714  C411.521,368.318,411.521,368.318,412.125,367.714L412.125,367.714z"/>
<path fill="none" stroke="#000000" stroke-width="0.75" stroke-linecap="square" stroke-miterlimit="10" d="M412.125,367.714  L412.125,367.714z"/>
<path fill="none" stroke="#000000" stroke-width="0.75" stroke-linecap="square" stroke-miterlimit="10" d="M412.125,367.714  C411.521,368.318,411.521,368.318,412.125,367.714L412.125,367.714z"/>
<path fill="none" stroke="#000000" stroke-width="0.75" stroke-linecap="square" stroke-miterlimit="10" d="M412.125,367.714  C411.521,368.318,411.521,368.318,412.125,367.714L412.125,367.714z"/>
<path fill="none" stroke="#000000" stroke-width="0.75" stroke-linecap="square" stroke-miterlimit="10" d="M412.125,367.714  C411.125,367.714,411.125,367.714,412.125,367.714L412.125,367.714z"/>
<path fill="none" stroke="#000000" stroke-width="0.75" stroke-linecap="square" stroke-miterlimit="10" d="M412.125,367.714  L412.125,367.714z"/>
<path fill="none" stroke="#000000" stroke-width="0.75" stroke-linecap="square" stroke-miterlimit="10" d="M412.125,367.714  L412.125,367.714z"/>
<path fill="none" stroke="#000000" stroke-width="0.75" stroke-linecap="square" stroke-miterlimit="10" d="M412.125,367.714  L412.125,367.714z"/>
<path fill="none" stroke="#000000" stroke-width="0.75" stroke-linecap="square" stroke-miterlimit="10" d="M412.125,367.714  L412.125,367.714z"/>
<path fill="none" stroke="#000000" stroke-width="0.75" stroke-linecap="square" stroke-miterlimit="10" d="M412.125,367.714  L412.125,367.714z"/>
<path fill="none" stroke="#000000" stroke-width="0.75" stroke-linecap="square" stroke-miterlimit="10" d="M412.125,367.714  L412.125,367.714z"/>
<path fill="none" stroke="#000000" stroke-width="0.75" stroke-linecap="square" stroke-miterlimit="10" d="M412.125,367.714  L412.125,367.714z"/>
<path fill="none" stroke="#000000" stroke-width="0.75" stroke-linecap="square" stroke-miterlimit="10" d="M412.125,367.714  L412.125,367.714z"/>
<path fill="none" stroke="#000000" stroke-width="0.75" stroke-linecap="square" stroke-miterlimit="10" d="M412.125,367.714  L412.125,367.714z"/>
<path fill="none" stroke="#000000" stroke-width="0.75" stroke-linecap="square" stroke-miterlimit="10" d="M412.125,367.714  L412.125,367.714z"/>
<path fill="none" stroke="#000000" stroke-width="0.75" stroke-linecap="square" stroke-miterlimit="10" d="M412.125,367.714  L412.125,367.714z"/>
<path fill="none" stroke="#000000" stroke-width="0.75" stroke-linecap="square" stroke-miterlimit="10" d="M412.125,367.714  L412.125,367.714z"/>
<path fill="none" stroke="#000000" stroke-width="0.75" stroke-linecap="square" stroke-miterlimit="10" d="M412.125,367.714  L412.125,367.714z"/>
<path fill="none" stroke="#000000" stroke-width="0.75" stroke-linecap="square" stroke-miterlimit="10" d="M412.125,367.714  L412.125,367.714z"/>
<path fill="none" stroke="#000000" stroke-width="0.75" stroke-linecap="square" stroke-miterlimit="10" d="M409.875,367.714  c1-0.881,2.356-1.097,3.752-0.75"/>
<path fill-rule="evenodd" clip-rule="evenodd" fill="#F3DCB0" stroke="#000000" stroke-width="0.75" stroke-linecap="square" stroke-miterlimit="10" d="  M431.625,377.464c-21.241-10.302-31.259,16.442-12,1.5C427.88,388.084,427.611,381.725,431.625,377.464z"/>
<path fill-rule="evenodd" clip-rule="evenodd" fill="#F5CB99" stroke="#000000" stroke-width="0.75" stroke-linecap="square" stroke-miterlimit="10" d="  M418.125,371.464c0.2,1.436,6.434-0.335,0.75,4.5C413.104,373.39,418.307,372.766,418.125,371.464z"/>
<path fill="none" stroke="#000000" stroke-width="0.75" stroke-linecap="square" stroke-miterlimit="10" d="M427.125,377.464  C427.125,378.464,427.125,378.464,427.125,377.464L427.125,377.464z"/>
<path fill="none" stroke="#000000" stroke-width="0.75" stroke-linecap="square" stroke-miterlimit="10" d="M424.875,379.714  C424.271,379.111,424.271,379.111,424.875,379.714L424.875,379.714z"/>
<path fill="none" stroke="#000000" stroke-width="0.75" stroke-linecap="square" stroke-miterlimit="10" d="M416.625,380.464  C416.021,381.068,416.021,381.068,416.625,380.464L416.625,380.464z"/>
<path fill="none" stroke="#000000" stroke-width="0.75" stroke-linecap="square" stroke-miterlimit="10" d="M413.627,381.214  C413.025,381.813,413.018,381.821,413.627,381.214L413.627,381.214z"/>
<path fill="none" stroke="#000000" stroke-width="0.75" stroke-linecap="square" stroke-miterlimit="10" d="M412.125,380.464  L412.125,380.464z"/>
<path fill="none" stroke="#000000" stroke-width="0.75" stroke-linecap="square" stroke-miterlimit="10" d="M415.127,379.714  C414.485,379.368,413.483,378.828,415.127,379.714L415.127,379.714z"/>
<path fill="none" stroke="#000000" stroke-width="0.75" stroke-linecap="square" stroke-miterlimit="10" d="M426.375,379.714  L426.375,379.714z"/>
<path fill="none" stroke="#000000" stroke-width="0.75" stroke-linecap="square" stroke-miterlimit="10" d="M428.625,379.714  C426.981,380.601,427.983,380.061,428.625,379.714L428.625,379.714z"/>
<path fill="none" stroke="#000000" stroke-width="0.75" stroke-linecap="square" stroke-miterlimit="10" d="M400.875,363.964  c-1.863-1.562-3.511-2.168-4.5-1.5"/>
<path fill="none" stroke="#000000" stroke-width="0.75" stroke-linecap="square" stroke-miterlimit="10" d="M433.125,359.464  c1.001-1.871,2.296-2.703,3.75-1.5"/>
<path fill="none" stroke="#000000" stroke-width="0.75" stroke-linecap="square" stroke-miterlimit="10" d="M415.127,383.464  c2.148,1.791,5.08,1.541,7.498-0.75"/>
<path fill="none" stroke="#000000" stroke-width="0.75" stroke-linecap="square" stroke-miterlimit="10" d="M423.375,366.214  C425.019,367.101,424.017,366.561,423.375,366.214L423.375,366.214z"/>
<path fill="none" stroke="#000000" stroke-width="0.75" stroke-linecap="square" stroke-miterlimit="10" d="M423.375,367.714  C423.979,367.111,423.979,367.111,423.375,367.714L423.375,367.714z"/>
<path fill="none" stroke="#000000" stroke-width="0.75" stroke-linecap="square" stroke-miterlimit="10" d="M423.375,367.714  C423.979,367.111,423.979,367.111,423.375,367.714L423.375,367.714z"/>
<path fill="none" stroke="#000000" stroke-width="0.75" stroke-linecap="square" stroke-miterlimit="10" d="M422.625,366.964  C423.898,366.964,423.898,366.964,422.625,366.964L422.625,366.964z"/>
<path fill="none" stroke="#000000" stroke-width="0.75" stroke-linecap="square" stroke-miterlimit="10" d="M422.625,366.964  C424.568,366.577,423.544,366.781,422.625,366.964L422.625,366.964z"/>
<path fill="none" stroke="#000000" stroke-width="0.75" stroke-linecap="square" stroke-miterlimit="10" d="M424.125,366.964  C423.125,366.964,423.125,366.964,424.125,366.964L424.125,366.964z"/>
<path fill="none" stroke="#000000" stroke-width="0.75" stroke-linecap="square" stroke-miterlimit="10" d="M422.625,366.964  C423.848,367.007,424.426,367.027,422.625,366.964L422.625,366.964z"/>
<path fill="none" stroke="#000000" stroke-width="0.75" stroke-linecap="square" stroke-miterlimit="10" d="M422.625,366.964  C424.098,367.008,424.07,367.007,422.625,366.964L422.625,366.964z"/>
<path fill="none" stroke="#000000" stroke-width="0.75" stroke-linecap="square" stroke-miterlimit="10" d="M423.375,367.714  C424.198,366.891,424.198,366.891,423.375,367.714L423.375,367.714z"/>
<path fill="none" stroke="#000000" stroke-width="0.75" stroke-linecap="square" stroke-miterlimit="10" d="M423.375,367.714  C424.262,366.07,423.721,367.073,423.375,367.714L423.375,367.714z"/>
<path fill="none" stroke="#000000" stroke-width="0.75" stroke-linecap="square" stroke-miterlimit="10" d="M423.375,367.714  C423.979,367.111,423.979,367.111,423.375,367.714L423.375,367.714z"/>
<path fill="none" stroke="#000000" stroke-width="0.75" stroke-linecap="square" stroke-miterlimit="10" d="M423.375,367.714  C423.979,367.111,423.979,367.111,423.375,367.714L423.375,367.714z"/>
<path fill="none" stroke="#000000" stroke-width="0.75" stroke-linecap="square" stroke-miterlimit="10" d="M423.375,367.714  C423.979,367.111,423.979,367.111,423.375,367.714L423.375,367.714z"/>
<path fill="none" stroke="#000000" stroke-width="0.75" stroke-linecap="square" stroke-miterlimit="10" d="M423.375,367.714  C423.979,367.111,423.979,367.111,423.375,367.714L423.375,367.714z"/>
<path fill="none" stroke="#000000" stroke-width="0.75" stroke-linecap="square" stroke-miterlimit="10" d="M422.625,366.964  C423.277,367.063,424.735,367.286,422.625,366.964L422.625,366.964z"/>
<path fill="none" stroke="#000000" stroke-width="0.75" stroke-linecap="square" stroke-miterlimit="10" d="M422.625,367.714  C424.482,367.265,424.068,367.366,422.625,367.714L422.625,367.714z"/>
<path fill="none" stroke="#000000" stroke-width="0.75" stroke-linecap="square" stroke-miterlimit="10" d="M424.125,366.964  C423.125,366.964,423.125,366.964,424.125,366.964L424.125,366.964z"/>
<path fill="none" stroke="#000000" stroke-width="0.75" stroke-linecap="square" stroke-miterlimit="10" d="M423.375,366.964  C424.83,367.035,424.257,367.007,423.375,366.964L423.375,366.964z"/>
<path fill="none" stroke="#000000" stroke-width="0.75" stroke-linecap="square" stroke-miterlimit="10" d="M423.375,367.714  C424.198,366.891,424.198,366.891,423.375,367.714L423.375,367.714z"/>
<path fill="none" stroke="#000000" stroke-width="0.75" stroke-linecap="square" stroke-miterlimit="10" d="M423.375,367.714  C424.017,367.368,425.019,366.828,423.375,367.714L423.375,367.714z"/>
<path fill="none" stroke="#000000" stroke-width="0.75" stroke-linecap="square" stroke-miterlimit="10" d="M423.375,367.714  C424.262,366.07,423.721,367.073,423.375,367.714L423.375,367.714z"/>
<path fill="none" stroke="#000000" stroke-width="0.75" stroke-linecap="square" stroke-miterlimit="10" d="M423.375,367.714  C423.979,367.111,423.979,367.111,423.375,367.714L423.375,367.714z"/>
<path fill="none" stroke="#000000" stroke-width="0.75" stroke-linecap="square" stroke-miterlimit="10" d="M423.375,367.714  C423.979,367.111,423.979,367.111,423.375,367.714L423.375,367.714z"/>
<path fill="none" stroke="#000000" stroke-width="0.75" stroke-linecap="square" stroke-miterlimit="10" d="M423.375,367.714  C423.979,367.111,423.979,367.111,423.375,367.714L423.375,367.714z"/>
<path fill="none" stroke="#000000" stroke-width="0.75" stroke-linecap="square" stroke-miterlimit="10" d="M423.375,366.964  L423.375,366.964z"/>
<path fill="none" stroke="#000000" stroke-width="0.75" stroke-linecap="square" stroke-miterlimit="10" d="M423.375,366.964  C424.495,366.964,424.495,366.964,423.375,366.964L423.375,366.964z"/>
<path fill="none" stroke="#000000" stroke-width="0.75" stroke-linecap="square" stroke-miterlimit="10" d="M423.375,367.714  C424.017,367.368,425.019,366.828,423.375,367.714L423.375,367.714z"/>
<path fill="none" stroke="#000000" stroke-width="0.75" stroke-linecap="square" stroke-miterlimit="10" d="M424.125,366.964  C423.125,366.964,423.125,366.964,424.125,366.964L424.125,366.964z"/>
<path fill="none" stroke="#000000" stroke-width="0.75" stroke-linecap="square" stroke-miterlimit="10" d="M423.375,367.714  C424.017,367.368,425.019,366.828,423.375,367.714L423.375,367.714z"/>
<path fill="none" stroke="#000000" stroke-width="0.75" stroke-linecap="square" stroke-miterlimit="10" d="M423.375,367.714  C424.017,367.368,425.019,366.828,423.375,367.714L423.375,367.714z"/>
<path fill="none" stroke="#000000" stroke-width="0.75" stroke-linecap="square" stroke-miterlimit="10" d="M423.375,367.714  C424.017,367.368,425.019,366.828,423.375,367.714L423.375,367.714z"/>
<path fill="none" stroke="#000000" stroke-width="0.75" stroke-linecap="square" stroke-miterlimit="10" d="M423.375,367.714  C423.979,367.111,423.979,367.111,423.375,367.714L423.375,367.714z"/>
<path fill="none" stroke="#000000" stroke-width="0.75" stroke-linecap="square" stroke-miterlimit="10" d="M423.375,367.714  C423.979,367.111,423.979,367.111,423.375,367.714L423.375,367.714z"/>
<path fill="none" stroke="#000000" stroke-width="0.75" stroke-linecap="square" stroke-miterlimit="10" d="M423.375,367.714  C423.979,367.111,423.979,367.111,423.375,367.714L423.375,367.714z"/>
<path fill="none" stroke="#000000" stroke-width="0.75" stroke-linecap="square" stroke-miterlimit="10" d="M423.375,366.964  L423.375,366.964z"/>
<path fill="none" stroke="#000000" stroke-width="0.75" stroke-linecap="square" stroke-miterlimit="10" d="M423.375,366.964  L423.375,366.964z"/>
<path fill="none" stroke="#000000" stroke-width="0.75" stroke-linecap="square" stroke-miterlimit="10" d="M423.375,367.714  C424.017,367.368,425.019,366.828,423.375,367.714L423.375,367.714z"/>
<path fill="none" stroke="#000000" stroke-width="0.75" stroke-linecap="square" stroke-miterlimit="10" d="M423.375,367.714  C424.017,367.368,425.019,366.828,423.375,367.714L423.375,367.714z"/>
<path fill="none" stroke="#000000" stroke-width="0.75" stroke-linecap="square" stroke-miterlimit="10" d="M423.375,366.964  L423.375,366.964z"/>
<path fill="none" stroke="#000000" stroke-width="0.75" stroke-linecap="square" stroke-miterlimit="10" d="M423.375,367.714  C424.017,367.368,425.019,366.828,423.375,367.714L423.375,367.714z"/>
<path fill="none" stroke="#000000" stroke-width="0.75" stroke-linecap="square" stroke-miterlimit="10" d="M423.375,367.714  C423.979,367.111,423.979,367.111,423.375,367.714L423.375,367.714z"/>
<path fill="none" stroke="#000000" stroke-width="0.75" stroke-linecap="square" stroke-miterlimit="10" d="M423.375,367.714  C423.375,366.714,423.375,366.714,423.375,367.714L423.375,367.714z"/>
<path fill="none" stroke="#000000" stroke-width="0.75" stroke-linecap="square" stroke-miterlimit="10" d="M423.375,367.714  C423.375,366.714,423.375,366.714,423.375,367.714L423.375,367.714z"/>
<path fill="none" stroke="#000000" stroke-width="0.75" stroke-linecap="square" stroke-miterlimit="10" d="M423.375,367.714  C423.375,366.714,423.375,366.714,423.375,367.714L423.375,367.714z"/>
<path fill="none" stroke="#000000" stroke-width="0.75" stroke-linecap="square" stroke-miterlimit="10" d="M423.375,366.964  L423.375,366.964z"/>
<path fill="none" stroke="#000000" stroke-width="0.75" stroke-linecap="square" stroke-miterlimit="10" d="M423.375,366.964  C424.375,366.964,424.375,366.964,423.375,366.964L423.375,366.964z"/>
<path fill="none" stroke="#000000" stroke-width="0.75" stroke-linecap="square" stroke-miterlimit="10" d="M423.375,366.964  L423.375,366.964z"/>
<path fill="none" stroke="#000000" stroke-width="0.75" stroke-linecap="square" stroke-miterlimit="10" d="M423.375,366.964  C424.017,366.618,425.019,366.078,423.375,366.964L423.375,366.964z"/>
<path fill="none" stroke="#000000" stroke-width="0.75" stroke-linecap="square" stroke-miterlimit="10" d="M423.375,366.964  C424.262,365.32,423.721,366.323,423.375,366.964L423.375,366.964z"/>
<path fill="none" stroke="#000000" stroke-width="0.75" stroke-linecap="square" stroke-miterlimit="10" d="M424.125,366.964  C423.125,366.964,423.125,366.964,424.125,366.964L424.125,366.964z"/>
<path fill="none" stroke="#000000" stroke-width="0.75" stroke-linecap="square" stroke-miterlimit="10" d="M423.375,366.964  C423.979,366.361,423.979,366.361,423.375,366.964L423.375,366.964z"/>
<path fill="none" stroke="#000000" stroke-width="0.75" stroke-linecap="square" stroke-miterlimit="10" d="M423.375,366.964  C423.979,366.361,423.979,366.361,423.375,366.964L423.375,366.964z"/>
<path fill="none" stroke="#000000" stroke-width="0.75" stroke-linecap="square" stroke-miterlimit="10" d="M423.375,366.964  C423.979,366.361,423.979,366.361,423.375,366.964L423.375,366.964z"/>
<path fill="none" stroke="#000000" stroke-width="0.75" stroke-linecap="square" stroke-miterlimit="10" d="M423.375,366.964  C423.979,366.361,423.979,366.361,423.375,366.964L423.375,366.964z"/>
<path fill="none" stroke="#000000" stroke-width="0.75" stroke-linecap="square" stroke-miterlimit="10" d="M423.375,366.964  C423.979,366.361,423.979,366.361,423.375,366.964L423.375,366.964z"/>
<path fill="none" stroke="#000000" stroke-width="0.75" stroke-linecap="square" stroke-miterlimit="10" d="M423.375,366.964  C424.375,366.964,424.375,366.964,423.375,366.964L423.375,366.964z"/>
<path fill="none" stroke="#000000" stroke-width="0.75" stroke-linecap="square" stroke-miterlimit="10" d="M423.375,366.964  C424.375,366.964,424.375,366.964,423.375,366.964L423.375,366.964z"/>
<path fill="none" stroke="#000000" stroke-width="0.75" stroke-linecap="square" stroke-miterlimit="10" d="M423.375,366.964  L423.375,366.964z"/>
<path fill="none" stroke="#000000" stroke-width="0.75" stroke-linecap="square" stroke-miterlimit="10" d="M423.375,366.964  C423.979,366.361,423.979,366.361,423.375,366.964L423.375,366.964z"/>
<path fill="none" stroke="#000000" stroke-width="0.75" stroke-linecap="square" stroke-miterlimit="10" d="M423.375,366.964  C423.979,366.361,423.979,366.361,423.375,366.964L423.375,366.964z"/>
<path fill="none" stroke="#000000" stroke-width="0.75" stroke-linecap="square" stroke-miterlimit="10" d="M423.375,366.964  L423.375,366.964z"/>
<path fill="none" stroke="#000000" stroke-width="0.75" stroke-linecap="square" stroke-miterlimit="10" d="M423.375,366.964  C423.979,366.361,423.979,366.361,423.375,366.964L423.375,366.964z"/>
<path fill="none" stroke="#000000" stroke-width="0.75" stroke-linecap="square" stroke-miterlimit="10" d="M423.375,366.964  C423.979,366.361,423.979,366.361,423.375,366.964L423.375,366.964z"/>
<path fill="none" stroke="#000000" stroke-width="0.75" stroke-linecap="square" stroke-miterlimit="10" d="M423.375,366.964  C423.979,366.361,423.979,366.361,423.375,366.964L423.375,366.964z"/>
<path fill="none" stroke="#000000" stroke-width="0.75" stroke-linecap="square" stroke-miterlimit="10" d="M423.375,366.964  C423.979,366.361,423.979,366.361,423.375,366.964L423.375,366.964z"/>
<path fill="none" stroke="#000000" stroke-width="0.75" stroke-linecap="square" stroke-miterlimit="10" d="M423.375,366.964  C424.375,366.964,424.375,366.964,423.375,366.964L423.375,366.964z"/>
<path fill="none" stroke="#000000" stroke-width="0.75" stroke-linecap="square" stroke-miterlimit="10" d="M423.375,366.964  C424.375,366.964,424.375,366.964,423.375,366.964L423.375,366.964z"/>
<path fill="none" stroke="#000000" stroke-width="0.75" stroke-linecap="square" stroke-miterlimit="10" d="M423.375,366.964  L423.375,366.964z"/>
<path fill="none" stroke="#000000" stroke-width="0.75" stroke-linecap="square" stroke-miterlimit="10" d="M423.375,366.964  L423.375,366.964z"/>
<path fill="none" stroke="#000000" stroke-width="0.75" stroke-linecap="square" stroke-miterlimit="10" d="M423.375,366.964  C423.979,366.361,423.979,366.361,423.375,366.964L423.375,366.964z"/>
<path fill="none" stroke="#000000" stroke-width="0.75" stroke-linecap="square" stroke-miterlimit="10" d="M423.375,366.964  C423.979,366.361,423.979,366.361,423.375,366.964L423.375,366.964z"/>
<path fill="none" stroke="#000000" stroke-width="0.75" stroke-linecap="square" stroke-miterlimit="10" d="M423.375,366.964  L423.375,366.964z"/>
<path fill="none" stroke="#000000" stroke-width="0.75" stroke-linecap="square" stroke-miterlimit="10" d="M423.375,366.964  C423.979,366.361,423.979,366.361,423.375,366.964L423.375,366.964z"/>
<path fill="none" stroke="#000000" stroke-width="0.75" stroke-linecap="square" stroke-miterlimit="10" d="M423.375,366.964  C423.979,366.361,423.979,366.361,423.375,366.964L423.375,366.964z"/>
<path fill="none" stroke="#000000" stroke-width="0.75" stroke-linecap="square" stroke-miterlimit="10" d="M423.375,366.964  C423.979,366.361,423.979,366.361,423.375,366.964L423.375,366.964z"/>
<path fill="none" stroke="#000000" stroke-width="0.75" stroke-linecap="square" stroke-miterlimit="10" d="M423.375,366.964  C424.375,366.964,424.375,366.964,423.375,366.964L423.375,366.964z"/>
<path fill="none" stroke="#000000" stroke-width="0.75" stroke-linecap="square" stroke-miterlimit="10" d="M423.375,366.964  L423.375,366.964z"/>
<path fill="none" stroke="#000000" stroke-width="0.75" stroke-linecap="square" stroke-miterlimit="10" d="M423.375,366.964  L423.375,366.964z"/>
<path fill="none" stroke="#000000" stroke-width="0.75" stroke-linecap="square" stroke-miterlimit="10" d="M423.375,366.964  L423.375,366.964z"/>
<path fill="none" stroke="#000000" stroke-width="0.75" stroke-linecap="square" stroke-miterlimit="10" d="M423.375,366.964  L423.375,366.964z"/>
<path fill="none" stroke="#000000" stroke-width="0.75" stroke-linecap="square" stroke-miterlimit="10" d="M423.375,366.964  C423.979,366.361,423.979,366.361,423.375,366.964L423.375,366.964z"/>
<path fill="none" stroke="#000000" stroke-width="0.75" stroke-linecap="square" stroke-miterlimit="10" d="M423.375,366.964  C423.375,365.964,423.375,365.964,423.375,366.964L423.375,366.964z"/>
<path fill="none" stroke="#000000" stroke-width="0.75" stroke-linecap="square" stroke-miterlimit="10" d="M423.375,366.964  L423.375,366.964z"/>
<path fill="none" stroke="#000000" stroke-width="0.75" stroke-linecap="square" stroke-miterlimit="10" d="M423.375,366.964  L423.375,366.964z"/>
<path fill="none" stroke="#000000" stroke-width="0.75" stroke-linecap="square" stroke-miterlimit="10" d="M423.375,366.964  L423.375,366.964z"/>
<path fill="none" stroke="#000000" stroke-width="0.75" stroke-linecap="square" stroke-miterlimit="10" d="M423.375,366.964  L423.375,366.964z"/>
<path fill="none" stroke="#000000" stroke-width="0.75" stroke-linecap="square" stroke-miterlimit="10" d="M423.375,366.964  L423.375,366.964z"/>
<path fill="none" stroke="#000000" stroke-width="0.75" stroke-linecap="square" stroke-miterlimit="10" d="M423.375,366.964  L423.375,366.964z"/>
<path fill="none" stroke="#000000" stroke-width="0.75" stroke-linecap="square" stroke-miterlimit="10" d="M423.375,366.964  L423.375,366.964z"/>
<path fill="none" stroke="#000000" stroke-width="0.75" stroke-linecap="square" stroke-miterlimit="10" d="M424.875,366.214  c-1.156-0.325-2.216-0.138-3,0.75"/>
<path fill="none" stroke="#000000" stroke-width="0.75" stroke-linecap="square" stroke-miterlimit="10" d="M419.625,375.964  c-1.054,0.579-1.054,1.329,0,2.25"/>
<path fill="none" stroke="#000000" stroke-width="0.75" stroke-linecap="square" stroke-miterlimit="10" d="M403.125,360.214  c0.112,0.835-0.138,1.585-0.75,2.25"/>
</svg>