<svg xmlns="http://www.w3.org/2000/svg" xmlns:xlink="http://www.w3.org/1999/xlink" version="1.1" id="Layer_1" x="0px" y="0px" enable-background="new 0 0 822.05 841.89" xml:space="preserve" viewBox="308.54 343.89 203.75 158.17">
<path fill-rule="evenodd" clip-rule="evenodd" fill="#F7DE58" stroke="#000000" stroke-width="1.25" stroke-linecap="square" stroke-miterlimit="10" d="  M426.163,457.019c17.97,16.24-8.31,19.029-7.502,27.75c1.018,10.996,13.9,16.652,23.111,2.836  c7.748-11.622,15.719-25.975,9.891-38.836c-2.1-4.634,11.359-5.986-3.75-7.875C436.994,439.529,426.412,447.982,426.163,457.019z"/>
<path fill-rule="evenodd" clip-rule="evenodd" fill="#F7DE58" stroke="#000000" stroke-width="1.25" stroke-linecap="square" stroke-miterlimit="10" d="  M363.913,436.769c6.217,11.211,11.138,25.391,12,38.25c0.517,7.7-10.54,15.654-7.5,19.5  C393.603,526.384,416.62,419.233,363.913,436.769z"/>
<path fill-rule="evenodd" clip-rule="evenodd" fill="#F7DE58" stroke="#000000" stroke-width="1.25" stroke-linecap="square" stroke-miterlimit="10" d="  M353.413,393.269c7.661-28.109,71.454-18,94.5-18c44.596,0,25.279,51.053,48.75,70.5c-2.465,0.416-3.735,0.621-4.5,3  c-13.411-14.216-11.275-29.996-17.25-46.5c-3.177,26.631,13.454,65.562-2.625,87c-8.551,11.401-19.538,7.886-22.875-3  c-2.869-9.361,19.197-16.87-1.5-34.5c-6.425,5.463-13.148,8.681-21,11.625c-20.264,7.599-6.354,1.376-20.25,16.125  c-4.871,5.17-12.699,33.623-27.75,16.5c4.899,5.573,3.715-32.631,0-39.75C367.862,435.095,349.555,420.388,353.413,393.269z"/>
<path fill-rule="evenodd" clip-rule="evenodd" fill="#F87F11" stroke="#000000" stroke-width="1.25" stroke-linecap="square" stroke-miterlimit="10" d="  M496.663,445.769c5.684,2.455,10.7,4.833,15,9c-2.5-0.75-5-1.5-7.5-2.25c3.097,4.474,4.914,7.369,6.75,12.75  c-2.508-3.218-5.326-5.48-8.25-8.25c1.722,5.568,2.152,11.026,3.75,16.5c-1.53-5.102-5.436-10.065-7.5-15  c-1.165,3.877-3.404,7.581-4.5,11.25C491.769,460.544,492.238,451.056,496.663,445.769z"/>
<path fill="none" stroke="#000000" stroke-width="1.25" stroke-linecap="square" stroke-miterlimit="10" d="M462.163,466.769  c1.5,0.25,3,0.5,4.5,0.75"/>
<path fill="none" stroke="#000000" stroke-width="1.25" stroke-linecap="square" stroke-miterlimit="10" d="M447.913,451.769  c2-2,4-4,6-6"/>
<path fill="none" stroke="#000000" stroke-width="1.25" stroke-linecap="square" stroke-miterlimit="10" d="M410.413,463.769  c-2.331-1.104-4.581-2.354-6.75-3.75"/>
<path fill-rule="evenodd" clip-rule="evenodd" fill="#F87F11" stroke="#000000" stroke-width="1.25" stroke-linecap="square" stroke-miterlimit="10" d="  M396.913,364.019c1.725-1.748,3.411-2.692,6-2.25c-7.585-0.713-11.562-3.374-19.5-2.25c0.826-1.832,4.42-4.721,6-6  c-4.008,1.139-7.604,1.24-12.75,3.75c-0.526-1.695,4.536-4.854,3.75-6.75c-4.85,0.288-9.407,1.076-14.25,1.5  c1.78-2.392,4.435-3.558,6-6c-7.029,3.295-6.673,2.838-11.25,8.25c-0.621-1.705-1.747-7.226-3-8.25  c-1.294,0.971-1.092,6.071-0.75,7.5c-3.553-3.857-6.841-6.388-11.25-9c0.566,3.23,1.72,6.519,2.25,9.75  c-4.835-2.343-10.865-3.012-15.75-5.25c-0.625,1.889,4.138,3.269,3.75,5.25c-6.492-0.051-11.905,2.341-18,3  c-0.146,0.625,5.859,2.891,6,3c-3.813,0.534-8.342,1.747-12,3c3.016,10.101,0.407,17.467-3,27.75c1.579,0.237,3.079-0.013,4.5-0.75  c-0.704,3.642-3.181,7.265-3.75,10.5c2.29,0.841,4.915-0.69,6.75,0c-2.35,14.044,4.21,20.078,9.75,31.5  c1.353-1.483,2.103-3.233,2.25-5.25c3.21,2.512,2.765,7.383,4.5,9.75c1.466,0.656,3.355-3.677,3.75-3.75  c-1.165,5.865,0.969,11.181-1.5,18c8.564-4.455,10.376-2.648,15.75-10.5c2.246,4.054,6.817,8.123,8.25,12.75  c1.679-3.592,0.221-5.595,0.75-9c2.485,3.333,4.958,7.259,7.5,10.5c-0.315-4.032,0.501-7.736,0-12c3.128,4.531,8.198,7.528,11.25,12  c-0.32-5.496,1.152-10.738,0-16.5c1.36,4.061,3.737,7.216,5.25,11.25c-0.489-7.351,2.347-13.908,3-21  c2.426,2.623,4.71,4.978,6.75,7.5c-0.56-6.163,1.719-11.834,0.75-18c2.8,3.241,5.784,5.299,8.25,9  c-1.937-6.03-1.684-12.645-3.75-18.75c3.001,2.54,6.806,4.177,9.75,6.75c-2.477-6.791-1.953-13.609-5.25-20.25  c3.328,1.833,6.669,2.885,9.75,5.25c-3.616-7.656-4.095-13.322-9.75-20.25c1.931-1.038,4.92,0.053,6.75-0.75  C401.976,371.914,396.542,366.867,396.913,364.019z"/>
<path fill-rule="evenodd" clip-rule="evenodd" fill="#F7DE58" stroke="#000000" stroke-width="1.25" stroke-linecap="square" stroke-miterlimit="10" d="  M389.413,370.769c-33.664,1.472-83.996-5.947-54.75,39.75c5.198,8.122,30.33,28.801,37.5,10.875  c3.886-9.714,13.396-10.252,15.375-22.125C389.549,387.203,385.567,381.036,389.413,370.769z"/>
<path fill="none" stroke="#000000" stroke-width="1.25" stroke-linecap="square" stroke-miterlimit="10" d="M350.413,390.269  C349.413,390.269,349.413,390.269,350.413,390.269L350.413,390.269z"/>
<path fill="none" stroke="#000000" stroke-width="1.25" stroke-linecap="square" stroke-miterlimit="10" d="M351.163,391.019  C349.72,391.368,349.305,391.468,351.163,391.019L351.163,391.019z"/>
<path fill="none" stroke="#000000" stroke-width="1.25" stroke-linecap="square" stroke-miterlimit="10" d="M351.163,391.019  C349.519,391.906,350.521,391.365,351.163,391.019L351.163,391.019z"/>
<path fill="none" stroke="#000000" stroke-width="1.25" stroke-linecap="square" stroke-miterlimit="10" d="M351.913,390.269  C348.34,391.5,349.438,391.122,351.913,390.269L351.913,390.269z"/>
<path fill="none" stroke="#000000" stroke-width="1.25" stroke-linecap="square" stroke-miterlimit="10" d="M351.163,390.269  C347.829,391.787,350.424,390.605,351.163,390.269L351.163,390.269z"/>
<path fill="none" stroke="#000000" stroke-width="1.25" stroke-linecap="square" stroke-miterlimit="10" d="M350.413,391.019  C350.413,392.019,350.413,392.019,350.413,391.019L350.413,391.019z"/>
<path fill="none" stroke="#000000" stroke-width="1.25" stroke-linecap="square" stroke-miterlimit="10" d="M351.163,391.019  C349.463,391.019,349.463,391.019,351.163,391.019L351.163,391.019z"/>
<path fill="none" stroke="#000000" stroke-width="1.25" stroke-linecap="square" stroke-miterlimit="10" d="M351.163,391.019  C349.463,391.019,349.463,391.019,351.163,391.019L351.163,391.019z"/>
<path fill="none" stroke="#000000" stroke-width="1.25" stroke-linecap="square" stroke-miterlimit="10" d="M351.163,391.019  C349.463,391.019,349.463,391.019,351.163,391.019L351.163,391.019z"/>
<path fill="none" stroke="#000000" stroke-width="1.25" stroke-linecap="square" stroke-miterlimit="10" d="M351.163,391.019  C349.516,391.019,349.516,391.019,351.163,391.019L351.163,391.019z"/>
<path fill="none" stroke="#000000" stroke-width="1.25" stroke-linecap="square" stroke-miterlimit="10" d="M351.163,391.019  C349.516,391.019,349.516,391.019,351.163,391.019L351.163,391.019z"/>
<path fill="none" stroke="#000000" stroke-width="1.25" stroke-linecap="square" stroke-miterlimit="10" d="M351.163,391.019  C349.72,391.368,349.305,391.468,351.163,391.019L351.163,391.019z"/>
<path fill="none" stroke="#000000" stroke-width="1.25" stroke-linecap="square" stroke-miterlimit="10" d="M351.163,391.019  C349.519,391.906,350.521,391.365,351.163,391.019L351.163,391.019z"/>
<path fill="none" stroke="#000000" stroke-width="1.25" stroke-linecap="square" stroke-miterlimit="10" d="M351.163,391.019  C350.163,391.019,350.163,391.019,351.163,391.019L351.163,391.019z"/>
<path fill="none" stroke="#000000" stroke-width="1.25" stroke-linecap="square" stroke-miterlimit="10" d="M351.913,391.019  C348.652,390.788,348.857,390.802,351.913,391.019L351.913,391.019z"/>
<path fill="none" stroke="#000000" stroke-width="1.25" stroke-linecap="square" stroke-miterlimit="10" d="M351.163,390.269  C348.59,391.875,350.13,390.914,351.163,390.269L351.163,390.269z"/>
<path fill="none" stroke="#000000" stroke-width="1.25" stroke-linecap="square" stroke-miterlimit="10" d="M350.413,391.019  L350.413,391.019z"/>
<path fill="none" stroke="#000000" stroke-width="1.25" stroke-linecap="square" stroke-miterlimit="10" d="M351.163,391.019  C349.463,391.019,349.463,391.019,351.163,391.019L351.163,391.019z"/>
<path fill="none" stroke="#000000" stroke-width="1.25" stroke-linecap="square" stroke-miterlimit="10" d="M351.163,391.019  C349.463,391.019,349.463,391.019,351.163,391.019L351.163,391.019z"/>
<path fill="none" stroke="#000000" stroke-width="1.25" stroke-linecap="square" stroke-miterlimit="10" d="M351.163,391.019  C349.516,391.019,349.516,391.019,351.163,391.019L351.163,391.019z"/>
<path fill="none" stroke="#000000" stroke-width="1.25" stroke-linecap="square" stroke-miterlimit="10" d="M351.163,391.019  C349.516,391.019,349.516,391.019,351.163,391.019L351.163,391.019z"/>
<path fill="none" stroke="#000000" stroke-width="1.25" stroke-linecap="square" stroke-miterlimit="10" d="M351.163,391.019  C349.516,391.019,349.516,391.019,351.163,391.019L351.163,391.019z"/>
<path fill="none" stroke="#000000" stroke-width="1.25" stroke-linecap="square" stroke-miterlimit="10" d="M351.163,391.019  C349.519,391.906,350.521,391.365,351.163,391.019L351.163,391.019z"/>
<path fill="none" stroke="#000000" stroke-width="1.25" stroke-linecap="square" stroke-miterlimit="10" d="M351.163,391.019  C350.163,391.019,350.163,391.019,351.163,391.019L351.163,391.019z"/>
<path fill="none" stroke="#000000" stroke-width="1.25" stroke-linecap="square" stroke-miterlimit="10" d="M351.163,391.019  C350.163,391.019,350.163,391.019,351.163,391.019L351.163,391.019z"/>
<path fill="none" stroke="#000000" stroke-width="1.25" stroke-linecap="square" stroke-miterlimit="10" d="M351.163,391.019  C349.463,391.019,349.463,391.019,351.163,391.019L351.163,391.019z"/>
<path fill="none" stroke="#000000" stroke-width="1.25" stroke-linecap="square" stroke-miterlimit="10" d="M351.163,391.019  C348.722,390.77,349.969,390.897,351.163,391.019L351.163,391.019z"/>
<path fill="none" stroke="#000000" stroke-width="1.25" stroke-linecap="square" stroke-miterlimit="10" d="M350.413,391.019  L350.413,391.019z"/>
<path fill="none" stroke="#000000" stroke-width="1.25" stroke-linecap="square" stroke-miterlimit="10" d="M351.163,391.019  C349.516,391.019,349.516,391.019,351.163,391.019L351.163,391.019z"/>
<path fill="none" stroke="#000000" stroke-width="1.25" stroke-linecap="square" stroke-miterlimit="10" d="M351.163,391.019  C349.516,391.019,349.516,391.019,351.163,391.019L351.163,391.019z"/>
<path fill="none" stroke="#000000" stroke-width="1.25" stroke-linecap="square" stroke-miterlimit="10" d="M351.163,391.019  C349.516,391.019,349.516,391.019,351.163,391.019L351.163,391.019z"/>
<path fill="none" stroke="#000000" stroke-width="1.25" stroke-linecap="square" stroke-miterlimit="10" d="M351.163,391.019  C350.521,390.673,349.519,390.132,351.163,391.019L351.163,391.019z"/>
<path fill="none" stroke="#000000" stroke-width="1.25" stroke-linecap="square" stroke-miterlimit="10" d="M351.163,391.019  C350.163,391.019,350.163,391.019,351.163,391.019L351.163,391.019z"/>
<path fill="none" stroke="#000000" stroke-width="1.25" stroke-linecap="square" stroke-miterlimit="10" d="M351.163,391.019  C350.163,391.019,350.163,391.019,351.163,391.019L351.163,391.019z"/>
<path fill="none" stroke="#000000" stroke-width="1.25" stroke-linecap="square" stroke-miterlimit="10" d="M351.163,391.019  C350.163,391.019,350.163,391.019,351.163,391.019L351.163,391.019z"/>
<path fill="none" stroke="#000000" stroke-width="1.25" stroke-linecap="square" stroke-miterlimit="10" d="M351.163,391.019  C350.163,391.019,350.163,391.019,351.163,391.019L351.163,391.019z"/>
<path fill="none" stroke="#000000" stroke-width="1.25" stroke-linecap="square" stroke-miterlimit="10" d="M351.163,391.019  C350.043,391.019,350.043,391.019,351.163,391.019L351.163,391.019z"/>
<path fill="none" stroke="#000000" stroke-width="1.25" stroke-linecap="square" stroke-miterlimit="10" d="M351.163,391.019  C350.521,390.673,349.519,390.132,351.163,391.019L351.163,391.019z"/>
<path fill="none" stroke="#000000" stroke-width="1.25" stroke-linecap="square" stroke-miterlimit="10" d="M350.413,391.019  L350.413,391.019z"/>
<path fill="none" stroke="#000000" stroke-width="1.25" stroke-linecap="square" stroke-miterlimit="10" d="M351.163,391.019  C350.521,390.673,349.519,390.132,351.163,391.019L351.163,391.019z"/>
<path fill="none" stroke="#000000" stroke-width="1.25" stroke-linecap="square" stroke-miterlimit="10" d="M351.163,391.019  C350.163,391.019,350.163,391.019,351.163,391.019L351.163,391.019z"/>
<path fill="none" stroke="#000000" stroke-width="1.25" stroke-linecap="square" stroke-miterlimit="10" d="M351.163,391.019  C350.163,391.019,350.163,391.019,351.163,391.019L351.163,391.019z"/>
<path fill="none" stroke="#000000" stroke-width="1.25" stroke-linecap="square" stroke-miterlimit="10" d="M351.163,391.019  C350.163,391.019,350.163,391.019,351.163,391.019L351.163,391.019z"/>
<path fill="none" stroke="#000000" stroke-width="1.25" stroke-linecap="square" stroke-miterlimit="10" d="M351.163,391.019  C350.163,391.019,350.163,391.019,351.163,391.019L351.163,391.019z"/>
<path fill="none" stroke="#000000" stroke-width="1.25" stroke-linecap="square" stroke-miterlimit="10" d="M351.163,391.019  C350.163,391.019,350.163,391.019,351.163,391.019L351.163,391.019z"/>
<path fill="none" stroke="#000000" stroke-width="1.25" stroke-linecap="square" stroke-miterlimit="10" d="M350.413,390.269  L350.413,390.269z"/>
<path fill="none" stroke="#000000" stroke-width="1.25" stroke-linecap="square" stroke-miterlimit="10" d="M350.413,390.269  L350.413,390.269z"/>
<path fill="none" stroke="#000000" stroke-width="1.25" stroke-linecap="square" stroke-miterlimit="10" d="M351.163,390.269  C349.516,390.269,349.516,390.269,351.163,390.269L351.163,390.269z"/>
<path fill="none" stroke="#000000" stroke-width="1.25" stroke-linecap="square" stroke-miterlimit="10" d="M350.413,390.269  C349.876,390.269,349.876,390.269,350.413,390.269L350.413,390.269z"/>
<path fill="none" stroke="#000000" stroke-width="1.25" stroke-linecap="square" stroke-miterlimit="10" d="M350.413,390.269  L350.413,390.269z"/>
<path fill="none" stroke="#000000" stroke-width="1.25" stroke-linecap="square" stroke-miterlimit="10" d="M350.413,390.269  C349.876,390.269,349.876,390.269,350.413,390.269L350.413,390.269z"/>
<path fill="none" stroke="#000000" stroke-width="1.25" stroke-linecap="square" stroke-miterlimit="10" d="M350.413,390.269  C349.81,390.873,349.81,390.873,350.413,390.269L350.413,390.269z"/>
<path fill="none" stroke="#000000" stroke-width="1.25" stroke-linecap="square" stroke-miterlimit="10" d="M350.413,390.269  C349.81,390.873,349.81,390.873,350.413,390.269L350.413,390.269z"/>
<path fill="none" stroke="#000000" stroke-width="1.25" stroke-linecap="square" stroke-miterlimit="10" d="M350.413,390.269  C349.413,390.269,349.413,390.269,350.413,390.269L350.413,390.269z"/>
<path fill="none" stroke="#000000" stroke-width="1.25" stroke-linecap="square" stroke-miterlimit="10" d="M350.413,390.269  C349.413,390.269,349.413,390.269,350.413,390.269L350.413,390.269z"/>
<path fill="none" stroke="#000000" stroke-width="1.25" stroke-linecap="square" stroke-miterlimit="10" d="M350.413,390.269  L350.413,390.269z"/>
<path fill="none" stroke="#000000" stroke-width="1.25" stroke-linecap="square" stroke-miterlimit="10" d="M350.413,390.269  L350.413,390.269z"/>
<path fill="none" stroke="#000000" stroke-width="1.25" stroke-linecap="square" stroke-miterlimit="10" d="M350.413,390.269  L350.413,390.269z"/>
<path fill="none" stroke="#000000" stroke-width="1.25" stroke-linecap="square" stroke-miterlimit="10" d="M351.163,390.269  C349.516,390.269,349.516,390.269,351.163,390.269L351.163,390.269z"/>
<path fill="none" stroke="#000000" stroke-width="1.25" stroke-linecap="square" stroke-miterlimit="10" d="M350.413,390.269  C349.876,390.269,349.876,390.269,350.413,390.269L350.413,390.269z"/>
<path fill="none" stroke="#000000" stroke-width="1.25" stroke-linecap="square" stroke-miterlimit="10" d="M350.413,390.269  L350.413,390.269z"/>
<path fill="none" stroke="#000000" stroke-width="1.25" stroke-linecap="square" stroke-miterlimit="10" d="M350.413,390.269  C349.81,390.873,349.81,390.873,350.413,390.269L350.413,390.269z"/>
<path fill="none" stroke="#000000" stroke-width="1.25" stroke-linecap="square" stroke-miterlimit="10" d="M350.413,390.269  C349.81,390.873,349.81,390.873,350.413,390.269L350.413,390.269z"/>
<path fill="none" stroke="#000000" stroke-width="1.25" stroke-linecap="square" stroke-miterlimit="10" d="M350.413,390.269  C349.81,390.873,349.81,390.873,350.413,390.269L350.413,390.269z"/>
<path fill="none" stroke="#000000" stroke-width="1.25" stroke-linecap="square" stroke-miterlimit="10" d="M350.413,390.269  C349.413,390.269,349.413,390.269,350.413,390.269L350.413,390.269z"/>
<path fill="none" stroke="#000000" stroke-width="1.25" stroke-linecap="square" stroke-miterlimit="10" d="M350.413,390.269  C349.413,390.269,349.413,390.269,350.413,390.269L350.413,390.269z"/>
<path fill="none" stroke="#000000" stroke-width="1.25" stroke-linecap="square" stroke-miterlimit="10" d="M350.413,390.269  L350.413,390.269z"/>
<path fill="none" stroke="#000000" stroke-width="1.25" stroke-linecap="square" stroke-miterlimit="10" d="M350.413,390.269  L350.413,390.269z"/>
<path fill="none" stroke="#000000" stroke-width="1.25" stroke-linecap="square" stroke-miterlimit="10" d="M350.413,390.269  L350.413,390.269z"/>
<path fill="none" stroke="#000000" stroke-width="1.25" stroke-linecap="square" stroke-miterlimit="10" d="M350.413,390.269  C349.876,390.269,349.876,390.269,350.413,390.269L350.413,390.269z"/>
<path fill="none" stroke="#000000" stroke-width="1.25" stroke-linecap="square" stroke-miterlimit="10" d="M350.413,390.269  C349.81,390.873,349.81,390.873,350.413,390.269L350.413,390.269z"/>
<path fill="none" stroke="#000000" stroke-width="1.25" stroke-linecap="square" stroke-miterlimit="10" d="M350.413,390.269  L350.413,390.269z"/>
<path fill="none" stroke="#000000" stroke-width="1.25" stroke-linecap="square" stroke-miterlimit="10" d="M350.413,390.269  C349.81,390.873,349.81,390.873,350.413,390.269L350.413,390.269z"/>
<path fill="none" stroke="#000000" stroke-width="1.25" stroke-linecap="square" stroke-miterlimit="10" d="M350.413,390.269  C349.81,390.873,349.81,390.873,350.413,390.269L350.413,390.269z"/>
<path fill="none" stroke="#000000" stroke-width="1.25" stroke-linecap="square" stroke-miterlimit="10" d="M350.413,390.269  C349.413,390.269,349.413,390.269,350.413,390.269L350.413,390.269z"/>
<path fill="none" stroke="#000000" stroke-width="1.25" stroke-linecap="square" stroke-miterlimit="10" d="M350.413,390.269  L350.413,390.269z"/>
<path fill="none" stroke="#000000" stroke-width="1.25" stroke-linecap="square" stroke-miterlimit="10" d="M350.413,390.269  L350.413,390.269z"/>
<path fill="none" stroke="#000000" stroke-width="1.25" stroke-linecap="square" stroke-miterlimit="10" d="M350.413,390.269  L350.413,390.269z"/>
<path fill="none" stroke="#000000" stroke-width="1.25" stroke-linecap="square" stroke-miterlimit="10" d="M350.413,390.269  L350.413,390.269z"/>
<path fill="none" stroke="#000000" stroke-width="1.25" stroke-linecap="square" stroke-miterlimit="10" d="M350.413,390.269  L350.413,390.269z"/>
<path fill="none" stroke="#000000" stroke-width="1.25" stroke-linecap="square" stroke-miterlimit="10" d="M350.413,390.269  L350.413,390.269z"/>
<path fill="none" stroke="#000000" stroke-width="1.25" stroke-linecap="square" stroke-miterlimit="10" d="M350.413,390.269  L350.413,390.269z"/>
<path fill="none" stroke="#000000" stroke-width="1.25" stroke-linecap="square" stroke-miterlimit="10" d="M350.413,390.269  L350.413,390.269z"/>
<path fill="none" stroke="#000000" stroke-width="1.25" stroke-linecap="square" stroke-miterlimit="10" d="M350.413,390.269  L350.413,390.269z"/>
<path fill="none" stroke="#000000" stroke-width="1.25" stroke-linecap="square" stroke-miterlimit="10" d="M350.413,390.269  L350.413,390.269z"/>
<path fill="none" stroke="#000000" stroke-width="1.25" stroke-linecap="square" stroke-miterlimit="10" d="M350.413,390.269  L350.413,390.269z"/>
<path fill="none" stroke="#000000" stroke-width="1.25" stroke-linecap="square" stroke-miterlimit="10" d="M350.413,390.269  L350.413,390.269z"/>
<path fill="none" stroke="#000000" stroke-width="1.25" stroke-linecap="square" stroke-miterlimit="10" d="M350.413,390.269  L350.413,390.269z"/>
<path fill="none" stroke="#000000" stroke-width="1.25" stroke-linecap="square" stroke-miterlimit="10" d="M350.413,390.269  L350.413,390.269z"/>
<path fill="none" stroke="#000000" stroke-width="1.25" stroke-linecap="square" stroke-miterlimit="10" d="M347.413,390.269  c1.601-0.839,3.412-1.084,5.25-0.75"/>
<path fill-rule="evenodd" clip-rule="evenodd" fill="#F3DCB0" stroke="#000000" stroke-width="1.25" stroke-linecap="square" stroke-miterlimit="10" d="  M379.663,404.519c-5.318-2.763-29.25-7.735-35.25-2.25c-12.691,11.602,7.458,20.098,16.5,4.5  C368.991,417.146,378.41,418.243,379.663,404.519z"/>
<path fill-rule="evenodd" clip-rule="evenodd" fill="#F5CB99" stroke="#000000" stroke-width="1.25" stroke-linecap="square" stroke-miterlimit="10" d="  M359.413,397.019C360.378,403.607,360.329,403.268,359.413,397.019L359.413,397.019z"/>
<path fill="none" stroke="#000000" stroke-width="1.25" stroke-linecap="square" stroke-miterlimit="10" d="M373.663,405.269  C373.663,406.269,373.663,406.269,373.663,405.269L373.663,405.269z"/>
<path fill="none" stroke="#000000" stroke-width="1.25" stroke-linecap="square" stroke-miterlimit="10" d="M369.163,408.269  C368.56,407.666,368.56,407.666,369.163,408.269L369.163,408.269z"/>
<path fill="none" stroke="#000000" stroke-width="1.25" stroke-linecap="square" stroke-miterlimit="10" d="M356.413,409.769  C355.81,410.373,355.81,410.373,356.413,409.769L356.413,409.769z"/>
<path fill="none" stroke="#000000" stroke-width="1.25" stroke-linecap="square" stroke-miterlimit="10" d="M352.663,411.269  C352.06,411.873,352.06,411.873,352.663,411.269L352.663,411.269z"/>
<path fill="none" stroke="#000000" stroke-width="1.25" stroke-linecap="square" stroke-miterlimit="10" d="M350.413,409.769  L350.413,409.769z"/>
<path fill="none" stroke="#000000" stroke-width="1.25" stroke-linecap="square" stroke-miterlimit="10" d="M354.163,408.269  C353.521,407.923,352.519,407.382,354.163,408.269L354.163,408.269z"/>
<path fill="none" stroke="#000000" stroke-width="1.25" stroke-linecap="square" stroke-miterlimit="10" d="M372.163,408.269  L372.163,408.269z"/>
<path fill="none" stroke="#000000" stroke-width="1.25" stroke-linecap="square" stroke-miterlimit="10" d="M375.163,409.019  C373.519,409.906,374.521,409.365,375.163,409.019L375.163,409.019z"/>
<path fill="none" stroke="#000000" stroke-width="1.25" stroke-linecap="square" stroke-miterlimit="10" d="M333.163,385.019  c-1.996-2.01-4.845-3.306-6.75-3"/>
<path fill="none" stroke="#000000" stroke-width="1.25" stroke-linecap="square" stroke-miterlimit="10" d="M381.913,376.769  c1.557-2.574,3.715-3.593,6-2.25"/>
<path fill="none" stroke="#000000" stroke-width="1.25" stroke-linecap="square" stroke-miterlimit="10" d="M354.913,414.269  c3.637,2.957,7.904,2.338,11.25-1.5"/>
<path fill="none" stroke="#000000" stroke-width="1.25" stroke-linecap="square" stroke-miterlimit="10" d="M367.663,388.019  C369.307,388.906,368.305,388.365,367.663,388.019L367.663,388.019z"/>
<path fill="none" stroke="#000000" stroke-width="1.25" stroke-linecap="square" stroke-miterlimit="10" d="M367.663,389.519  C368.267,388.916,368.267,388.916,367.663,389.519L367.663,389.519z"/>
<path fill="none" stroke="#000000" stroke-width="1.25" stroke-linecap="square" stroke-miterlimit="10" d="M367.663,389.519  C368.267,388.916,368.267,388.916,367.663,389.519L367.663,389.519z"/>
<path fill="none" stroke="#000000" stroke-width="1.25" stroke-linecap="square" stroke-miterlimit="10" d="M366.913,389.519  C368.771,388.69,369.484,388.373,366.913,389.519L366.913,389.519z"/>
<path fill="none" stroke="#000000" stroke-width="1.25" stroke-linecap="square" stroke-miterlimit="10" d="M366.913,388.769  C370.221,389.188,368.619,388.985,366.913,388.769L366.913,388.769z"/>
<path fill="none" stroke="#000000" stroke-width="1.25" stroke-linecap="square" stroke-miterlimit="10" d="M368.413,389.519  C367.413,389.519,367.413,389.519,368.413,389.519L368.413,389.519z"/>
<path fill="none" stroke="#000000" stroke-width="1.25" stroke-linecap="square" stroke-miterlimit="10" d="M366.913,389.519  C368.292,388.858,369.804,388.134,366.913,389.519L366.913,389.519z"/>
<path fill="none" stroke="#000000" stroke-width="1.25" stroke-linecap="square" stroke-miterlimit="10" d="M366.913,389.519  C368.687,388.859,369.381,388.6,366.913,389.519L366.913,389.519z"/>
<path fill="none" stroke="#000000" stroke-width="1.25" stroke-linecap="square" stroke-miterlimit="10" d="M366.913,389.519  C368.578,389.119,368.564,389.123,366.913,389.519L366.913,389.519z"/>
<path fill="none" stroke="#000000" stroke-width="1.25" stroke-linecap="square" stroke-miterlimit="10" d="M367.663,389.519  C368.55,387.875,368.009,388.877,367.663,389.519L367.663,389.519z"/>
<path fill="none" stroke="#000000" stroke-width="1.25" stroke-linecap="square" stroke-miterlimit="10" d="M367.663,389.519  C368.267,388.916,368.267,388.916,367.663,389.519L367.663,389.519z"/>
<path fill="none" stroke="#000000" stroke-width="1.25" stroke-linecap="square" stroke-miterlimit="10" d="M367.663,389.519  C368.267,388.916,368.267,388.916,367.663,389.519L367.663,389.519z"/>
<path fill="none" stroke="#000000" stroke-width="1.25" stroke-linecap="square" stroke-miterlimit="10" d="M367.663,389.519  C368.267,388.916,368.267,388.916,367.663,389.519L367.663,389.519z"/>
<path fill="none" stroke="#000000" stroke-width="1.25" stroke-linecap="square" stroke-miterlimit="10" d="M367.663,389.519  C368.267,388.916,368.267,388.916,367.663,389.519L367.663,389.519z"/>
<path fill="none" stroke="#000000" stroke-width="1.25" stroke-linecap="square" stroke-miterlimit="10" d="M366.913,389.519  C367.652,389.183,370.248,388.001,366.913,389.519L366.913,389.519z"/>
<path fill="none" stroke="#000000" stroke-width="1.25" stroke-linecap="square" stroke-miterlimit="10" d="M366.913,388.769  C369.294,388.769,369.294,388.769,366.913,388.769L366.913,388.769z"/>
<path fill="none" stroke="#000000" stroke-width="1.25" stroke-linecap="square" stroke-miterlimit="10" d="M368.413,389.519  C367.413,389.519,367.413,389.519,368.413,389.519L368.413,389.519z"/>
<path fill="none" stroke="#000000" stroke-width="1.25" stroke-linecap="square" stroke-miterlimit="10" d="M366.913,389.519  C368.269,388.982,368.936,388.719,366.913,389.519L366.913,389.519z"/>
<path fill="none" stroke="#000000" stroke-width="1.25" stroke-linecap="square" stroke-miterlimit="10" d="M366.913,389.519  C368.578,389.119,368.564,389.123,366.913,389.519L366.913,389.519z"/>
<path fill="none" stroke="#000000" stroke-width="1.25" stroke-linecap="square" stroke-miterlimit="10" d="M366.913,389.519  C368.342,388.769,368.769,388.545,366.913,389.519L366.913,389.519z"/>
<path fill="none" stroke="#000000" stroke-width="1.25" stroke-linecap="square" stroke-miterlimit="10" d="M367.663,389.519  C368.55,387.875,368.009,388.877,367.663,389.519L367.663,389.519z"/>
<path fill="none" stroke="#000000" stroke-width="1.25" stroke-linecap="square" stroke-miterlimit="10" d="M367.663,389.519  C368.267,388.916,368.267,388.916,367.663,389.519L367.663,389.519z"/>
<path fill="none" stroke="#000000" stroke-width="1.25" stroke-linecap="square" stroke-miterlimit="10" d="M367.663,389.519  C368.267,388.916,368.267,388.916,367.663,389.519L367.663,389.519z"/>
<path fill="none" stroke="#000000" stroke-width="1.25" stroke-linecap="square" stroke-miterlimit="10" d="M367.663,389.519  C368.267,388.916,368.267,388.916,367.663,389.519L367.663,389.519z"/>
<path fill="none" stroke="#000000" stroke-width="1.25" stroke-linecap="square" stroke-miterlimit="10" d="M367.663,389.519  L367.663,389.519z"/>
<path fill="none" stroke="#000000" stroke-width="1.25" stroke-linecap="square" stroke-miterlimit="10" d="M366.913,389.519  C368.271,388.862,368.91,388.553,366.913,389.519L366.913,389.519z"/>
<path fill="none" stroke="#000000" stroke-width="1.25" stroke-linecap="square" stroke-miterlimit="10" d="M366.913,389.519  C368.785,388.289,368.39,388.548,366.913,389.519L366.913,389.519z"/>
<path fill="none" stroke="#000000" stroke-width="1.25" stroke-linecap="square" stroke-miterlimit="10" d="M368.413,389.519  C367.413,389.519,367.413,389.519,368.413,389.519L368.413,389.519z"/>
<path fill="none" stroke="#000000" stroke-width="1.25" stroke-linecap="square" stroke-miterlimit="10" d="M366.913,389.519  C368.342,388.769,368.769,388.545,366.913,389.519L366.913,389.519z"/>
<path fill="none" stroke="#000000" stroke-width="1.25" stroke-linecap="square" stroke-miterlimit="10" d="M366.913,389.519  C368.342,388.769,368.769,388.545,366.913,389.519L366.913,389.519z"/>
<path fill="none" stroke="#000000" stroke-width="1.25" stroke-linecap="square" stroke-miterlimit="10" d="M366.913,389.519  C368.342,388.769,368.769,388.545,366.913,389.519L366.913,389.519z"/>
<path fill="none" stroke="#000000" stroke-width="1.25" stroke-linecap="square" stroke-miterlimit="10" d="M367.663,389.519  C368.267,388.916,368.267,388.916,367.663,389.519L367.663,389.519z"/>
<path fill="none" stroke="#000000" stroke-width="1.25" stroke-linecap="square" stroke-miterlimit="10" d="M367.663,389.519  C368.267,388.916,368.267,388.916,367.663,389.519L367.663,389.519z"/>
<path fill="none" stroke="#000000" stroke-width="1.25" stroke-linecap="square" stroke-miterlimit="10" d="M367.663,389.519  C368.267,388.916,368.267,388.916,367.663,389.519L367.663,389.519z"/>
<path fill="none" stroke="#000000" stroke-width="1.25" stroke-linecap="square" stroke-miterlimit="10" d="M367.663,389.519  L367.663,389.519z"/>
<path fill="none" stroke="#000000" stroke-width="1.25" stroke-linecap="square" stroke-miterlimit="10" d="M367.663,389.519  L367.663,389.519z"/>
<path fill="none" stroke="#000000" stroke-width="1.25" stroke-linecap="square" stroke-miterlimit="10" d="M366.913,389.519  C368.771,389.07,368.356,389.17,366.913,389.519L366.913,389.519z"/>
<path fill="none" stroke="#000000" stroke-width="1.25" stroke-linecap="square" stroke-miterlimit="10" d="M366.913,389.519  C368.342,388.769,368.769,388.545,366.913,389.519L366.913,389.519z"/>
<path fill="none" stroke="#000000" stroke-width="1.25" stroke-linecap="square" stroke-miterlimit="10" d="M367.663,389.519  L367.663,389.519z"/>
<path fill="none" stroke="#000000" stroke-width="1.25" stroke-linecap="square" stroke-miterlimit="10" d="M366.913,389.519  C368.771,389.07,368.356,389.17,366.913,389.519L366.913,389.519z"/>
<path fill="none" stroke="#000000" stroke-width="1.25" stroke-linecap="square" stroke-miterlimit="10" d="M367.663,389.519  C368.267,388.916,368.267,388.916,367.663,389.519L367.663,389.519z"/>
<path fill="none" stroke="#000000" stroke-width="1.25" stroke-linecap="square" stroke-miterlimit="10" d="M367.663,389.519  C367.663,388.519,367.663,388.519,367.663,389.519L367.663,389.519z"/>
<path fill="none" stroke="#000000" stroke-width="1.25" stroke-linecap="square" stroke-miterlimit="10" d="M367.663,389.519  C367.663,388.519,367.663,388.519,367.663,389.519L367.663,389.519z"/>
<path fill="none" stroke="#000000" stroke-width="1.25" stroke-linecap="square" stroke-miterlimit="10" d="M367.663,389.519  C367.663,388.519,367.663,388.519,367.663,389.519L367.663,389.519z"/>
<path fill="none" stroke="#000000" stroke-width="1.25" stroke-linecap="square" stroke-miterlimit="10" d="M367.663,389.519  L367.663,389.519z"/>
<path fill="none" stroke="#000000" stroke-width="1.25" stroke-linecap="square" stroke-miterlimit="10" d="M367.663,388.769  C368.663,388.769,368.663,388.769,367.663,388.769L367.663,388.769z"/>
<path fill="none" stroke="#000000" stroke-width="1.25" stroke-linecap="square" stroke-miterlimit="10" d="M367.663,388.769  L367.663,388.769z"/>
<path fill="none" stroke="#000000" stroke-width="1.25" stroke-linecap="square" stroke-miterlimit="10" d="M366.913,388.769  C368.771,388.32,368.356,388.42,366.913,388.769L366.913,388.769z"/>
<path fill="none" stroke="#000000" stroke-width="1.25" stroke-linecap="square" stroke-miterlimit="10" d="M367.663,388.769  C368.55,387.125,368.009,388.127,367.663,388.769L367.663,388.769z"/>
<path fill="none" stroke="#000000" stroke-width="1.25" stroke-linecap="square" stroke-miterlimit="10" d="M368.413,388.769  C367.413,388.769,367.413,388.769,368.413,388.769L368.413,388.769z"/>
<path fill="none" stroke="#000000" stroke-width="1.25" stroke-linecap="square" stroke-miterlimit="10" d="M367.663,388.769  C368.267,388.166,368.267,388.166,367.663,388.769L367.663,388.769z"/>
<path fill="none" stroke="#000000" stroke-width="1.25" stroke-linecap="square" stroke-miterlimit="10" d="M367.663,388.769  C368.267,388.166,368.267,388.166,367.663,388.769L367.663,388.769z"/>
<path fill="none" stroke="#000000" stroke-width="1.25" stroke-linecap="square" stroke-miterlimit="10" d="M367.663,388.769  C368.267,388.166,368.267,388.166,367.663,388.769L367.663,388.769z"/>
<path fill="none" stroke="#000000" stroke-width="1.25" stroke-linecap="square" stroke-miterlimit="10" d="M367.663,388.769  C368.267,388.166,368.267,388.166,367.663,388.769L367.663,388.769z"/>
<path fill="none" stroke="#000000" stroke-width="1.25" stroke-linecap="square" stroke-miterlimit="10" d="M367.663,388.769  C368.267,388.166,368.267,388.166,367.663,388.769L367.663,388.769z"/>
<path fill="none" stroke="#000000" stroke-width="1.25" stroke-linecap="square" stroke-miterlimit="10" d="M367.663,388.769  C368.663,388.769,368.663,388.769,367.663,388.769L367.663,388.769z"/>
<path fill="none" stroke="#000000" stroke-width="1.25" stroke-linecap="square" stroke-miterlimit="10" d="M367.663,388.769  C368.663,388.769,368.663,388.769,367.663,388.769L367.663,388.769z"/>
<path fill="none" stroke="#000000" stroke-width="1.25" stroke-linecap="square" stroke-miterlimit="10" d="M367.663,388.769  L367.663,388.769z"/>
<path fill="none" stroke="#000000" stroke-width="1.25" stroke-linecap="square" stroke-miterlimit="10" d="M367.663,388.769  C368.267,388.166,368.267,388.166,367.663,388.769L367.663,388.769z"/>
<path fill="none" stroke="#000000" stroke-width="1.25" stroke-linecap="square" stroke-miterlimit="10" d="M367.663,388.769  C368.267,388.166,368.267,388.166,367.663,388.769L367.663,388.769z"/>
<path fill="none" stroke="#000000" stroke-width="1.25" stroke-linecap="square" stroke-miterlimit="10" d="M367.663,388.769  L367.663,388.769z"/>
<path fill="none" stroke="#000000" stroke-width="1.25" stroke-linecap="square" stroke-miterlimit="10" d="M367.663,388.769  C368.267,388.166,368.267,388.166,367.663,388.769L367.663,388.769z"/>
<path fill="none" stroke="#000000" stroke-width="1.25" stroke-linecap="square" stroke-miterlimit="10" d="M367.663,388.769  C368.267,388.166,368.267,388.166,367.663,388.769L367.663,388.769z"/>
<path fill="none" stroke="#000000" stroke-width="1.25" stroke-linecap="square" stroke-miterlimit="10" d="M367.663,388.769  C368.267,388.166,368.267,388.166,367.663,388.769L367.663,388.769z"/>
<path fill="none" stroke="#000000" stroke-width="1.25" stroke-linecap="square" stroke-miterlimit="10" d="M367.663,388.769  C368.267,388.166,368.267,388.166,367.663,388.769L367.663,388.769z"/>
<path fill="none" stroke="#000000" stroke-width="1.25" stroke-linecap="square" stroke-miterlimit="10" d="M367.663,388.769  C368.663,388.769,368.663,388.769,367.663,388.769L367.663,388.769z"/>
<path fill="none" stroke="#000000" stroke-width="1.25" stroke-linecap="square" stroke-miterlimit="10" d="M367.663,388.769  C368.663,388.769,368.663,388.769,367.663,388.769L367.663,388.769z"/>
<path fill="none" stroke="#000000" stroke-width="1.25" stroke-linecap="square" stroke-miterlimit="10" d="M367.663,388.769  L367.663,388.769z"/>
<path fill="none" stroke="#000000" stroke-width="1.25" stroke-linecap="square" stroke-miterlimit="10" d="M367.663,388.769  L367.663,388.769z"/>
<path fill="none" stroke="#000000" stroke-width="1.25" stroke-linecap="square" stroke-miterlimit="10" d="M367.663,388.769  C368.267,388.166,368.267,388.166,367.663,388.769L367.663,388.769z"/>
<path fill="none" stroke="#000000" stroke-width="1.25" stroke-linecap="square" stroke-miterlimit="10" d="M367.663,388.769  C368.267,388.166,368.267,388.166,367.663,388.769L367.663,388.769z"/>
<path fill="none" stroke="#000000" stroke-width="1.25" stroke-linecap="square" stroke-miterlimit="10" d="M367.663,388.769  L367.663,388.769z"/>
<path fill="none" stroke="#000000" stroke-width="1.25" stroke-linecap="square" stroke-miterlimit="10" d="M367.663,388.769  C368.267,388.166,368.267,388.166,367.663,388.769L367.663,388.769z"/>
<path fill="none" stroke="#000000" stroke-width="1.25" stroke-linecap="square" stroke-miterlimit="10" d="M367.663,388.769  C368.267,388.166,368.267,388.166,367.663,388.769L367.663,388.769z"/>
<path fill="none" stroke="#000000" stroke-width="1.25" stroke-linecap="square" stroke-miterlimit="10" d="M367.663,388.769  C368.267,388.166,368.267,388.166,367.663,388.769L367.663,388.769z"/>
<path fill="none" stroke="#000000" stroke-width="1.25" stroke-linecap="square" stroke-miterlimit="10" d="M367.663,388.769  C368.663,388.769,368.663,388.769,367.663,388.769L367.663,388.769z"/>
<path fill="none" stroke="#000000" stroke-width="1.25" stroke-linecap="square" stroke-miterlimit="10" d="M367.663,388.769  L367.663,388.769z"/>
<path fill="none" stroke="#000000" stroke-width="1.25" stroke-linecap="square" stroke-miterlimit="10" d="M367.663,388.769  L367.663,388.769z"/>
<path fill="none" stroke="#000000" stroke-width="1.25" stroke-linecap="square" stroke-miterlimit="10" d="M367.663,388.769  L367.663,388.769z"/>
<path fill="none" stroke="#000000" stroke-width="1.25" stroke-linecap="square" stroke-miterlimit="10" d="M367.663,388.769  L367.663,388.769z"/>
<path fill="none" stroke="#000000" stroke-width="1.25" stroke-linecap="square" stroke-miterlimit="10" d="M367.663,388.769  C368.267,388.166,368.267,388.166,367.663,388.769L367.663,388.769z"/>
<path fill="none" stroke="#000000" stroke-width="1.25" stroke-linecap="square" stroke-miterlimit="10" d="M367.663,388.769  C367.663,387.769,367.663,387.769,367.663,388.769L367.663,388.769z"/>
<path fill="none" stroke="#000000" stroke-width="1.25" stroke-linecap="square" stroke-miterlimit="10" d="M367.663,388.769  L367.663,388.769z"/>
<path fill="none" stroke="#000000" stroke-width="1.25" stroke-linecap="square" stroke-miterlimit="10" d="M367.663,388.769  L367.663,388.769z"/>
<path fill="none" stroke="#000000" stroke-width="1.25" stroke-linecap="square" stroke-miterlimit="10" d="M367.663,388.769  L367.663,388.769z"/>
<path fill="none" stroke="#000000" stroke-width="1.25" stroke-linecap="square" stroke-miterlimit="10" d="M367.663,388.769  L367.663,388.769z"/>
<path fill="none" stroke="#000000" stroke-width="1.25" stroke-linecap="square" stroke-miterlimit="10" d="M367.663,388.769  L367.663,388.769z"/>
<path fill="none" stroke="#000000" stroke-width="1.25" stroke-linecap="square" stroke-miterlimit="10" d="M367.663,388.769  L367.663,388.769z"/>
<path fill="none" stroke="#000000" stroke-width="1.25" stroke-linecap="square" stroke-miterlimit="10" d="M367.663,388.769  L367.663,388.769z"/>
<path fill="none" stroke="#000000" stroke-width="1.25" stroke-linecap="square" stroke-miterlimit="10" d="M369.913,388.019  c-1.596-0.286-3.121-0.045-4.5,0.75"/>
<path fill="none" stroke="#000000" stroke-width="1.25" stroke-linecap="square" stroke-miterlimit="10" d="M360.913,403.019  c-1.03,1.177-1.03,2.427,0,3.75"/>
<path fill="none" stroke="#000000" stroke-width="1.25" stroke-linecap="square" stroke-miterlimit="10" d="M336.163,379.019  c-0.677,1.177-1.177,2.427-1.5,3.75"/>
</svg>