<svg xmlns="http://www.w3.org/2000/svg" xmlns:xlink="http://www.w3.org/1999/xlink" version="1.1" id="Layer_1" x="0px" y="0px" enable-background="new 0 0 822.05 841.89" xml:space="preserve" viewBox="305.15 341.47 211.25 162.28">
<path fill-rule="evenodd" clip-rule="evenodd" fill="#EED5B6" stroke="#000000" stroke-width="1.25" stroke-linecap="square" stroke-miterlimit="10" d="  M404.771,423.515c12.242-1.476,23.013-7.943,25.5-18c8.124,18.037,48.227-3.794,36.687,36.597  c-6.14,21.488-11.458,41.33-41.187,30.903C401.606,464.54,394.522,444.01,404.771,423.515z"/>
<path fill-rule="evenodd" clip-rule="evenodd" fill="#EED5B6" stroke="#000000" stroke-width="1.25" stroke-linecap="square" stroke-miterlimit="10" d="  M412.271,374.765c0.207,45.117,59.682,59.879,60.75,8.25C473.992,336.128,413.836,324.535,412.271,374.765z"/>
<path fill="none" stroke="#000000" stroke-width="1.25" stroke-linecap="square" stroke-miterlimit="10" d="M487.271,502.265  c0.161-12.216-1.789-28.435-3-42C485.271,474.265,486.271,488.265,487.271,502.265z"/>
<path fill-rule="evenodd" clip-rule="evenodd" fill="#392170" stroke="#000000" stroke-width="1.25" stroke-linecap="square" stroke-miterlimit="10" d="  M400.271,458.765c-2,14.5-4,29-6,43.5C396.271,487.765,398.271,473.265,400.271,458.765z"/>
<path fill-rule="evenodd" clip-rule="evenodd" fill="#137827" stroke="#000000" stroke-width="1.25" stroke-linecap="square" stroke-miterlimit="10" d="  M400.271,458.765c-2,14.5-4,29-6,43.5c31,0,62,0,93,0c-1-14-2-28-3-42c3.084,34.543-4.24,42,31.5,42  c-4.7-20.302-9.959-77.051-35.25-81.75c-16.046-2.981-19.372,16.5-39.375,16.5c-20.326,0-21.856-25.075-41.625-17.25  c-24.662,9.762-9.158,60.882-11.25,82.5c2,0,4,0,6,0C396.271,487.765,398.271,473.265,400.271,458.765z"/>
<path fill-rule="evenodd" clip-rule="evenodd" fill="#F6EB23" stroke="#000000" stroke-width="1.25" stroke-linecap="square" stroke-miterlimit="10" d="  M386.771,410.765C422.879,396.334,402.767,438.453,386.771,410.765L386.771,410.765z"/>
<path fill-rule="evenodd" clip-rule="evenodd" fill="#EED5B6" stroke="#000000" stroke-width="1.25" stroke-linecap="square" stroke-miterlimit="10" d="  M407.771,398.015c3.527-1.616,6.893-3.201,10.5-4.5c-10.18,21.205-18.564,44.767-28.5,9.75  C378.941,365.095,417.187,362.239,407.771,398.015z"/>
<path fill-rule="evenodd" clip-rule="evenodd" fill="#EED5B6" d="M420.521,388.265C394.695,354.283,415.994,438.917,420.521,388.265  L420.521,388.265z"/>
<path fill="none" stroke="#000000" stroke-width="1.25" stroke-linecap="square" stroke-miterlimit="10" d="M420.521,388.265  c-21.313-28.043-16.278,31.569,1.5,9.75"/>
<path fill-rule="evenodd" clip-rule="evenodd" fill="#137827" stroke="#000000" stroke-width="1.25" stroke-linecap="square" stroke-miterlimit="10" d="  M386.771,412.265c7.055,7.637,15.903,8.681,24.75,3c-3.804,17.281,1.741,91.033-27,87.75  C355.443,499.694,384.923,429.777,386.771,412.265z"/>
<line fill="none" stroke="#000000" stroke-width="1.25" stroke-linecap="square" stroke-miterlimit="10" x1="308.021" y1="368.765" x2="387.521" y2="342.515"/>
<line fill="none" stroke="#000000" stroke-width="1.25" stroke-linecap="square" stroke-miterlimit="10" x1="311.771" y1="383.765" x2="359.021" y2="374.765"/>
<line fill="none" stroke="#000000" stroke-width="1.25" stroke-linecap="square" stroke-miterlimit="10" x1="309.521" y1="396.515" x2="382.271" y2="400.265"/>
<line fill="none" stroke="#000000" stroke-width="1.25" stroke-linecap="square" stroke-miterlimit="10" x1="305.771" y1="410.765" x2="374.771" y2="430.265"/>
</svg>