<svg xmlns="http://www.w3.org/2000/svg" xmlns:xlink="http://www.w3.org/1999/xlink" version="1.1" id="Layer_1" x="0px" y="0px" enable-background="new 0 0 822.05 841.89" xml:space="preserve" viewBox="302.23 248.39 215.28 345.59">
<path fill-rule="evenodd" clip-rule="evenodd" fill="#8E9093" stroke="#000000" stroke-width="2" stroke-linecap="square" stroke-miterlimit="10" d="  M334.512,426.393c28.955-4.606,33.101,0.76,32.611-28.389c-0.387-23.029-1.111-46.079-1.111-69.111  c0-21.983,14.45-31.766,33.75-36.75c71.812-18.544,55.38,82.952,57.752,125.25c27.166-17.126,34.747-15.759,33.444-47.358  c-0.887-21.484,1.215-46.483-5.694-67.392c-10.144-30.695-39.512-52.97-72-53.25C314.004,248.539,331.449,360.243,334.512,426.393z"/>
<path fill-rule="evenodd" clip-rule="evenodd" fill="#BCBEC0" stroke="#000000" stroke-width="2" stroke-linecap="square" stroke-miterlimit="10" d="  M304.512,391.893c70.5-0.5,141.001-1,211.502-1.5c0,86.24,13.443,190.73-100.5,202.125c-36.018,3.602-67.58-14.373-88.502-43.125  C294.033,504.073,305.194,445.132,304.512,391.893z"/>
<path fill-rule="evenodd" clip-rule="evenodd" fill="#6D6F71" d="M434.264,457.893c-1.708-20.163-25.643-33.009-41.252-17.25  c-9.774,9.868-4.991,17.686-3.75,29.25c0.901,8.398,9.279,5.771,8.337,16.667c-1.529,17.694-3.058,35.389-4.587,53.083  c12.75,0,25.501,0,38.252,0C426.438,506.664,419.45,485.706,434.264,457.893z"/>
<path fill="none" stroke="#000000" stroke-width="2" stroke-linecap="square" stroke-miterlimit="10" d="M434.264,457.893  c-1.708-20.163-25.643-33.009-41.252-17.25c-9.774,9.868-4.991,17.686-3.75,29.25c0.901,8.398,9.279,5.771,8.337,16.667  c-1.529,17.694-3.058,35.389-4.587,53.083c12.75,0,25.501,0,38.252,0C426.438,506.664,419.45,485.706,434.264,457.893z"/>
</svg>