<svg xmlns="http://www.w3.org/2000/svg" xmlns:xlink="http://www.w3.org/1999/xlink" version="1.1" id="Layer_1" x="0px" y="0px" enable-background="new 0 0 822.05 841.89" xml:space="preserve" viewBox="237.83 248.48 342.17 344.97">
<path fill-rule="evenodd" clip-rule="evenodd" fill="#BCBEC0" stroke="#000000" stroke-width="2" stroke-linecap="square" stroke-miterlimit="10" d="  M579,484.89c-31.752,0-63.504,0-95.256,0c-25.23,0-51.744,12.084-51.744-16.09c0-42.37,0-84.741,0-127.111  c0-13.219-9.385-78.035,0-87.799c9.539-9.924,81.176,0,95.256,0c25.23,0,51.744-12.084,51.744,16.09  C579,341.617,579,413.253,579,484.89z"/>
<path fill-rule="evenodd" clip-rule="evenodd" fill="#DBDDE6" stroke="#000000" stroke-width="2" stroke-linecap="square" stroke-miterlimit="10" d="  M497.25,358.14c-12.129,0-57,6.955-57-6.07c0-14.15-9.343-80.447,0-89.18c6.475-6.052,57-3.232,57,6.07  C497.25,298.687,497.25,328.414,497.25,358.14z"/>
<line fill="none" stroke="#000000" stroke-width="2" stroke-linecap="square" stroke-miterlimit="10" x1="453" y1="274.14" x2="484.5" y2="274.14"/>
<line fill="none" stroke="#000000" stroke-width="2" stroke-linecap="square" stroke-miterlimit="10" x1="453" y1="281.64" x2="484.5" y2="281.64"/>
<line fill="none" stroke="#000000" stroke-width="2" stroke-linecap="square" stroke-miterlimit="10" x1="453" y1="287.64" x2="484.5" y2="287.64"/>
<path fill="none" stroke="#000000" stroke-width="2" stroke-linecap="square" stroke-miterlimit="10" d="M489,320.64  C467.533,337.984,483.792,288.37,489,320.64L489,320.64z"/>
<path fill-rule="evenodd" clip-rule="evenodd" fill="#DBDDE6" stroke="#000000" stroke-width="2" stroke-linecap="square" stroke-miterlimit="10" d="  M567.75,358.14c-12.129,0-57,6.955-57-6.07c0-14.15-9.343-80.447,0-89.18c6.475-6.052,57-3.232,57,6.07  C567.75,298.687,567.75,328.414,567.75,358.14z"/>
<line fill="none" stroke="#000000" stroke-width="2" stroke-linecap="square" stroke-miterlimit="10" x1="523.5" y1="274.14" x2="555" y2="274.14"/>
<line fill="none" stroke="#000000" stroke-width="2" stroke-linecap="square" stroke-miterlimit="10" x1="523.5" y1="281.64" x2="555" y2="281.64"/>
<line fill="none" stroke="#000000" stroke-width="2" stroke-linecap="square" stroke-miterlimit="10" x1="523.5" y1="287.64" x2="555" y2="287.64"/>
<path fill="none" stroke="#000000" stroke-width="2" stroke-linecap="square" stroke-miterlimit="10" d="M559.5,320.64  C538.242,338.449,553.545,287.979,559.5,320.64L559.5,320.64z"/>
<path fill-rule="evenodd" clip-rule="evenodd" fill="#DBDDE6" stroke="#000000" stroke-width="2" stroke-linecap="square" stroke-miterlimit="10" d="  M498.75,467.64c-12.073,0-57,6.911-57-6.021c0-14.088-9.29-79.748,0-88.479c6.414-6.028,57-3.2,57,6.022  C498.75,408.655,498.75,438.147,498.75,467.64z"/>
<line fill="none" stroke="#000000" stroke-width="2" stroke-linecap="square" stroke-miterlimit="10" x1="454.5" y1="384.39" x2="486" y2="384.39"/>
<line fill="none" stroke="#000000" stroke-width="2" stroke-linecap="square" stroke-miterlimit="10" x1="454.5" y1="391.14" x2="486" y2="391.14"/>
<line fill="none" stroke="#000000" stroke-width="2" stroke-linecap="square" stroke-miterlimit="10" x1="454.5" y1="397.14" x2="486" y2="397.14"/>
<path fill="none" stroke="#000000" stroke-width="2" stroke-linecap="square" stroke-miterlimit="10" d="M490.5,430.14  C470.565,452.204,484.852,395.891,490.5,430.14L490.5,430.14z"/>
<path fill-rule="evenodd" clip-rule="evenodd" fill="#DBDDE6" stroke="#000000" stroke-width="2" stroke-linecap="square" stroke-miterlimit="10" d="  M568.5,467.64c-12.073,0-57,6.911-57-6.021c0-14.088-9.29-79.748,0-88.479c6.414-6.028,57-3.2,57,6.022  C568.5,408.655,568.5,438.147,568.5,467.64z"/>
<line fill="none" stroke="#000000" stroke-width="2" stroke-linecap="square" stroke-miterlimit="10" x1="524.25" y1="384.39" x2="555.75" y2="384.39"/>
<line fill="none" stroke="#000000" stroke-width="2" stroke-linecap="square" stroke-miterlimit="10" x1="524.25" y1="391.89" x2="555.75" y2="391.89"/>
<line fill="none" stroke="#000000" stroke-width="2" stroke-linecap="square" stroke-miterlimit="10" x1="524.25" y1="397.14" x2="555.75" y2="397.14"/>
<path fill="none" stroke="#000000" stroke-width="2" stroke-linecap="square" stroke-miterlimit="10" d="M560.25,430.14  C540.067,451.797,553.964,396.36,560.25,430.14L560.25,430.14z"/>
<path fill-rule="evenodd" clip-rule="evenodd" fill="#BCBEC0" stroke="#000000" stroke-width="2" stroke-linecap="square" stroke-miterlimit="10" d="  M390,484.89c-31.752,0-63.504,0-95.256,0c-25.23,0-51.744,12.084-51.744-16.09c0-42.37,0-84.741,0-127.111  c0-13.219-9.385-78.035,0-87.799c9.539-9.924,81.176,0,95.256,0c25.23,0,51.744-12.084,51.744,16.09  C390,341.617,390,413.253,390,484.89z"/>
<path fill-rule="evenodd" clip-rule="evenodd" fill="#DBDDE6" stroke="#000000" stroke-width="2" stroke-linecap="square" stroke-miterlimit="10" d="  M308.25,358.14c-12.129,0-57,6.955-57-6.07c0-14.15-9.343-80.447,0-89.18c6.475-6.052,57-3.232,57,6.07  C308.25,298.687,308.25,328.414,308.25,358.14z"/>
<line fill="none" stroke="#000000" stroke-width="2" stroke-linecap="square" stroke-miterlimit="10" x1="264" y1="274.14" x2="295.5" y2="274.14"/>
<line fill="none" stroke="#000000" stroke-width="2" stroke-linecap="square" stroke-miterlimit="10" x1="264" y1="281.64" x2="295.5" y2="281.64"/>
<line fill="none" stroke="#000000" stroke-width="2" stroke-linecap="square" stroke-miterlimit="10" x1="264" y1="287.64" x2="295.5" y2="287.64"/>
<path fill="none" stroke="#000000" stroke-width="2" stroke-linecap="square" stroke-miterlimit="10" d="M300,320.64  C278.534,337.984,294.792,288.37,300,320.64L300,320.64z"/>
<path fill-rule="evenodd" clip-rule="evenodd" fill="#DBDDE6" stroke="#000000" stroke-width="2" stroke-linecap="square" stroke-miterlimit="10" d="  M378.75,358.14c-12.129,0-57,6.955-57-6.07c0-14.15-9.343-80.447,0-89.18c6.475-6.052,57-3.232,57,6.07  C378.75,298.687,378.75,328.414,378.75,358.14z"/>
<line fill="none" stroke="#000000" stroke-width="2" stroke-linecap="square" stroke-miterlimit="10" x1="334.5" y1="274.14" x2="366" y2="274.14"/>
<line fill="none" stroke="#000000" stroke-width="2" stroke-linecap="square" stroke-miterlimit="10" x1="334.5" y1="281.64" x2="366" y2="281.64"/>
<line fill="none" stroke="#000000" stroke-width="2" stroke-linecap="square" stroke-miterlimit="10" x1="334.5" y1="287.64" x2="366" y2="287.64"/>
<path fill="none" stroke="#000000" stroke-width="2" stroke-linecap="square" stroke-miterlimit="10" d="M370.5,320.64  C349.242,338.449,364.545,287.979,370.5,320.64L370.5,320.64z"/>
<path fill-rule="evenodd" clip-rule="evenodd" fill="#DBDDE6" stroke="#000000" stroke-width="2" stroke-linecap="square" stroke-miterlimit="10" d="  M309.75,467.64c-12.073,0-57,6.911-57-6.021c0-14.088-9.29-79.748,0-88.479c6.414-6.028,57-3.2,57,6.022  C309.75,408.655,309.75,438.147,309.75,467.64z"/>
<line fill="none" stroke="#000000" stroke-width="2" stroke-linecap="square" stroke-miterlimit="10" x1="265.5" y1="384.39" x2="297" y2="384.39"/>
<line fill="none" stroke="#000000" stroke-width="2" stroke-linecap="square" stroke-miterlimit="10" x1="265.5" y1="391.14" x2="297" y2="391.14"/>
<line fill="none" stroke="#000000" stroke-width="2" stroke-linecap="square" stroke-miterlimit="10" x1="265.5" y1="397.14" x2="297" y2="397.14"/>
<path fill="none" stroke="#000000" stroke-width="2" stroke-linecap="square" stroke-miterlimit="10" d="M301.5,430.14  C281.553,451.768,295.432,396.351,301.5,430.14L301.5,430.14z"/>
<path fill-rule="evenodd" clip-rule="evenodd" fill="#DBDDE6" stroke="#000000" stroke-width="2" stroke-linecap="square" stroke-miterlimit="10" d="  M379.5,467.64c-12.073,0-57,6.911-57-6.021c0-14.088-9.29-79.748,0-88.479c6.414-6.028,57-3.2,57,6.022  C379.5,408.655,379.5,438.147,379.5,467.64z"/>
<line fill="none" stroke="#000000" stroke-width="2" stroke-linecap="square" stroke-miterlimit="10" x1="335.25" y1="384.39" x2="366.75" y2="384.39"/>
<line fill="none" stroke="#000000" stroke-width="2" stroke-linecap="square" stroke-miterlimit="10" x1="335.25" y1="391.89" x2="366.75" y2="391.89"/>
<line fill="none" stroke="#000000" stroke-width="2" stroke-linecap="square" stroke-miterlimit="10" x1="335.25" y1="397.14" x2="366.75" y2="397.14"/>
<path fill="none" stroke="#000000" stroke-width="2" stroke-linecap="square" stroke-miterlimit="10" d="M371.25,430.14  C351.068,451.797,364.964,396.36,371.25,430.14L371.25,430.14z"/>
<path fill-rule="evenodd" clip-rule="evenodd" fill="#BCBEC0" stroke="#000000" stroke-width="2" stroke-linecap="square" stroke-miterlimit="10" d="  M482.25,589.89c-31.59,0-63.18,0-94.77,0c-25.214,0-51.48,12.032-51.48-16.09c0-42.37,0-84.741,0-127.111  c0-13.181-9.374-78.082,0-87.799c9.538-9.887,80.724,0,94.77,0c25.215,0,51.48-12.033,51.48,16.09  C482.25,446.617,482.25,518.253,482.25,589.89z"/>
<path fill-rule="evenodd" clip-rule="evenodd" fill="#DBDDE6" stroke="#000000" stroke-width="2" stroke-linecap="square" stroke-miterlimit="10" d="  M400.5,463.14c-12.062,0-56.25,6.936-56.25-6.069c0-14.068-9.308-80.558,0-89.181c6.491-6.013,56.25-3.242,56.25,6.07  C400.5,403.687,400.5,433.414,400.5,463.14z"/>
<line fill="none" stroke="#000000" stroke-width="2" stroke-linecap="square" stroke-miterlimit="10" x1="356.25" y1="379.14" x2="387.75" y2="379.14"/>
<line fill="none" stroke="#000000" stroke-width="2" stroke-linecap="square" stroke-miterlimit="10" x1="356.25" y1="386.64" x2="387.75" y2="386.64"/>
<line fill="none" stroke="#000000" stroke-width="2" stroke-linecap="square" stroke-miterlimit="10" x1="356.25" y1="392.64" x2="387.75" y2="392.64"/>
<path fill="none" stroke="#000000" stroke-width="2" stroke-linecap="square" stroke-miterlimit="10" d="M392.25,425.64  C372.242,446.682,386.663,391.364,392.25,425.64L392.25,425.64z"/>
<path fill-rule="evenodd" clip-rule="evenodd" fill="#DBDDE6" stroke="#000000" stroke-width="2" stroke-linecap="square" stroke-miterlimit="10" d="  M471,463.14c-12.129,0-57,6.955-57-6.069c0-14.15-9.343-80.447,0-89.181c6.475-6.052,57-3.232,57,6.07  C471,403.687,471,433.414,471,463.14z"/>
<line fill="none" stroke="#000000" stroke-width="2" stroke-linecap="square" stroke-miterlimit="10" x1="426.75" y1="379.14" x2="458.25" y2="379.14"/>
<line fill="none" stroke="#000000" stroke-width="2" stroke-linecap="square" stroke-miterlimit="10" x1="426.75" y1="386.64" x2="458.25" y2="386.64"/>
<line fill="none" stroke="#000000" stroke-width="2" stroke-linecap="square" stroke-miterlimit="10" x1="426.75" y1="392.64" x2="458.25" y2="392.64"/>
<path fill="none" stroke="#000000" stroke-width="2" stroke-linecap="square" stroke-miterlimit="10" d="M462.75,425.64  C442.55,446.274,456.452,391.757,462.75,425.64L462.75,425.64z"/>
<path fill-rule="evenodd" clip-rule="evenodd" fill="#DBDDE6" stroke="#000000" stroke-width="2" stroke-linecap="square" stroke-miterlimit="10" d="  M402,572.64c-12.007,0-56.25,6.893-56.25-6.021c0-14.006-9.255-79.858,0-88.479c6.43-5.988,56.25-3.211,56.25,6.021  C402,513.655,402,543.147,402,572.64z"/>
<line fill="none" stroke="#000000" stroke-width="2" stroke-linecap="square" stroke-miterlimit="10" x1="357.75" y1="489.39" x2="389.25" y2="489.39"/>
<line fill="none" stroke="#000000" stroke-width="2" stroke-linecap="square" stroke-miterlimit="10" x1="357.75" y1="496.89" x2="389.25" y2="496.89"/>
<line fill="none" stroke="#000000" stroke-width="2" stroke-linecap="square" stroke-miterlimit="10" x1="357.75" y1="502.89" x2="389.25" y2="502.89"/>
<path fill="none" stroke="#000000" stroke-width="2" stroke-linecap="square" stroke-miterlimit="10" d="M393.75,535.89  C373.406,555.756,388.171,501.421,393.75,535.89L393.75,535.89z"/>
<path fill-rule="evenodd" clip-rule="evenodd" fill="#DBDDE6" stroke="#000000" stroke-width="2" stroke-linecap="square" stroke-miterlimit="10" d="  M471.75,572.64c-12.073,0-57,6.911-57-6.021c0-14.088-9.29-79.748,0-88.479c6.414-6.028,57-3.2,57,6.021  C471.75,513.655,471.75,543.147,471.75,572.64z"/>
<line fill="none" stroke="#000000" stroke-width="2" stroke-linecap="square" stroke-miterlimit="10" x1="427.5" y1="489.39" x2="459" y2="489.39"/>
<line fill="none" stroke="#000000" stroke-width="2" stroke-linecap="square" stroke-miterlimit="10" x1="427.5" y1="496.89" x2="459" y2="496.89"/>
<line fill="none" stroke="#000000" stroke-width="2" stroke-linecap="square" stroke-miterlimit="10" x1="427.5" y1="502.89" x2="459" y2="502.89"/>
<path fill="none" stroke="#000000" stroke-width="2" stroke-linecap="square" stroke-miterlimit="10" d="M463.5,535.89  C442.925,555.256,457.29,501.884,463.5,535.89L463.5,535.89z"/>
</svg>