<svg xmlns="http://www.w3.org/2000/svg" xmlns:xlink="http://www.w3.org/1999/xlink" version="1.1" id="Layer_1" x="0px" y="0px" enable-background="new 0 0 822.05 841.89" xml:space="preserve" viewBox="293.31 243.9 228.69 355.97">
<path fill-rule="evenodd" clip-rule="evenodd" fill="#BCBEC0" stroke="#000000" stroke-width="2" stroke-linecap="square" stroke-miterlimit="10" d="  M521,595.89c-51.102,0-102.203,0-153.305,0c-40.905,0-67.195,16.191-67.195-26.814c0-61.924,0-123.847,0-185.771  c0-18.772-13.922-122.376,0-135.415c5.458-5.111,40.5,0,47.628,0c35.226,0,70.451,0,105.677,0c40.905,0,67.195-16.191,67.195,26.815  C521,381.767,521,488.829,521,595.89z"/>
<path fill-rule="evenodd" clip-rule="evenodd" fill="#DBDDE6" stroke="#000000" stroke-width="2" stroke-linecap="square" stroke-miterlimit="10" d="  M398,404.64c-25.234,0-85.5,15.146-85.5-14.898c0-21.301-13.869-114.103,0-128.352c6.46-6.638,53.71,0,63.333,0  c19.943,0,22.167-4.563,22.167,14.898C398,319.072,398,361.856,398,404.64z"/>
<line fill="none" stroke="#000000" stroke-width="2" stroke-linecap="square" stroke-miterlimit="10" x1="332" y1="278.64" x2="379.25" y2="278.64"/>
<line fill="none" stroke="#000000" stroke-width="2" stroke-linecap="square" stroke-miterlimit="10" x1="332" y1="289.89" x2="379.25" y2="289.89"/>
<line fill="none" stroke="#000000" stroke-width="2" stroke-linecap="square" stroke-miterlimit="10" x1="332" y1="298.89" x2="379.25" y2="298.89"/>
<path fill="none" stroke="#000000" stroke-width="2" stroke-linecap="square" stroke-miterlimit="10" d="M386,348.39  c-6.52,11.695-18,10.85-18-4.5C368,323.899,388.502,329.55,386,348.39z"/>
<path fill-rule="evenodd" clip-rule="evenodd" fill="#DBDDE6" stroke="#000000" stroke-width="2" stroke-linecap="square" stroke-miterlimit="10" d="  M504.5,404.64c-25.293,0-86.25,15.207-86.25-14.898c0-21.388-13.897-113.986,0-128.352c6.462-6.68,54.225,0,63.889,0  c20.018,0,22.361-4.633,22.361,14.898C504.5,319.072,504.5,361.856,504.5,404.64z"/>
<line fill="none" stroke="#000000" stroke-width="2" stroke-linecap="square" stroke-miterlimit="10" x1="437.75" y1="278.64" x2="485" y2="278.64"/>
<line fill="none" stroke="#000000" stroke-width="2" stroke-linecap="square" stroke-miterlimit="10" x1="437.75" y1="289.89" x2="485" y2="289.89"/>
<line fill="none" stroke="#000000" stroke-width="2" stroke-linecap="square" stroke-miterlimit="10" x1="437.75" y1="298.89" x2="485" y2="298.89"/>
<path fill="none" stroke="#000000" stroke-width="2" stroke-linecap="square" stroke-miterlimit="10" d="M491.75,348.39  c-7.969,14.504-21.335,7.494-18-9C477.315,321.756,494.499,333.559,491.75,348.39z"/>
<path fill-rule="evenodd" clip-rule="evenodd" fill="#DBDDE6" stroke="#000000" stroke-width="2" stroke-linecap="square" stroke-miterlimit="10" d="  M400.25,570.39c-25.234,0-85.5,15.146-85.5-14.898c0-21.301-13.869-114.103,0-128.352c6.46-6.638,53.71,0,63.333,0  c19.943,0,22.167-4.563,22.167,14.898C400.25,484.822,400.25,527.606,400.25,570.39z"/>
<line fill="none" stroke="#000000" stroke-width="2" stroke-linecap="square" stroke-miterlimit="10" x1="334.25" y1="444.39" x2="381.5" y2="444.39"/>
<line fill="none" stroke="#000000" stroke-width="2" stroke-linecap="square" stroke-miterlimit="10" x1="334.25" y1="455.64" x2="381.5" y2="455.64"/>
<line fill="none" stroke="#000000" stroke-width="2" stroke-linecap="square" stroke-miterlimit="10" x1="334.25" y1="464.64" x2="381.5" y2="464.64"/>
<path fill="none" stroke="#000000" stroke-width="2" stroke-linecap="square" stroke-miterlimit="10" d="M388.25,514.14  c-7.612,13.899-22.215,7.813-18-9C374.721,487.302,390.149,499.841,388.25,514.14z"/>
<path fill-rule="evenodd" clip-rule="evenodd" fill="#DBDDE6" stroke="#000000" stroke-width="2" stroke-linecap="square" stroke-miterlimit="10" d="  M505.25,570.39c-25.234,0-85.5,15.146-85.5-14.898c0-21.301-13.869-114.103,0-128.352c6.461-6.638,53.71,0,63.333,0  c19.943,0,22.167-4.563,22.167,14.898C505.25,484.822,505.25,527.606,505.25,570.39z"/>
<line fill="none" stroke="#000000" stroke-width="2" stroke-linecap="square" stroke-miterlimit="10" x1="438.5" y1="444.39" x2="485.75" y2="444.39"/>
<line fill="none" stroke="#000000" stroke-width="2" stroke-linecap="square" stroke-miterlimit="10" x1="438.5" y1="455.64" x2="485.75" y2="455.64"/>
<line fill="none" stroke="#000000" stroke-width="2" stroke-linecap="square" stroke-miterlimit="10" x1="438.5" y1="464.64" x2="485.75" y2="464.64"/>
<path fill="none" stroke="#000000" stroke-width="2" stroke-linecap="square" stroke-miterlimit="10" d="M492.5,514.14  c-6.742,14.199-21.46,7.465-18-9C478.132,487.858,495.079,498.867,492.5,514.14z"/>
</svg>