<svg xmlns="http://www.w3.org/2000/svg" xmlns:xlink="http://www.w3.org/1999/xlink" version="1.1" id="Layer_1" x="0px" y="0px" enable-background="new 0 0 822.05 841.89" xml:space="preserve" viewBox="210.15 250.33 399.97 343.26">
<path fill-rule="evenodd" clip-rule="evenodd" fill="#AF8977" stroke="#000000" stroke-width="2" stroke-linecap="square" stroke-miterlimit="10" d="  M288.75,584.14c-9.311,15.865-24.75,7.289-24.75-8.393c0-27.826,0-55.652,0-83.479c0-10.81-6.706-50.752,0-59.628  c6.585-8.717,24.75-12.916,24.75,3.86C288.75,485.714,288.75,534.927,288.75,584.14z"/>
<path fill-rule="evenodd" clip-rule="evenodd" fill="#B1D575" stroke="#000000" stroke-width="2" stroke-linecap="square" stroke-miterlimit="10" d="  M217.5,471.64c25.425,21.702,117,40.154,117-9.684c0-49.999,20.36-143.481-12.75-187.566c-26.016-34.64-78.306-28.638-97.5,9.75  C199.427,333.786,217.5,418.047,217.5,471.64z"/>
<path fill-rule="evenodd" clip-rule="evenodd" fill="#AF8977" stroke="#000000" stroke-width="2" stroke-linecap="square" stroke-miterlimit="10" d="  M423,584.14c-8.224,14.575-24.75,8.217-24.75-8.393c0-27.826,0-55.652,0-83.479c0-10.651-6.69-50.944,0-59.628  c7.226-9.379,24.75-12.439,24.75,3.86C423,485.714,423,534.927,423,584.14z"/>
<path fill-rule="evenodd" clip-rule="evenodd" fill="#FFF200" stroke="#000000" stroke-width="2" stroke-linecap="square" stroke-miterlimit="10" d="  M352.5,471.64c25.075,22.828,117,39.1,117-9.684c0-50.063,20.062-143.189-12.75-187.566c-27.754-37.536-75.769-25.621-97.875,9.75  c-10.898,17.438-6.375,46.248-6.375,65.407C352.5,390.245,352.5,430.942,352.5,471.64z"/>
<path fill-rule="evenodd" clip-rule="evenodd" fill="#AF8977" stroke="#000000" stroke-width="2" stroke-linecap="square" stroke-miterlimit="10" d="  M556.5,584.14c-9.311,15.865-24.75,7.289-24.75-8.393c0-27.826,0-55.652,0-83.479c0-10.81-6.706-50.752,0-59.628  c6.586-8.717,24.75-12.916,24.75,3.86C556.5,485.714,556.5,534.927,556.5,584.14z"/>
<path fill-rule="evenodd" clip-rule="evenodd" fill="#F9CBDF" stroke="#000000" stroke-width="2" stroke-linecap="square" stroke-miterlimit="10" d="  M485.25,471.64C510.721,493.381,603,511.629,603,461.957c0-49.894,20.169-143.151-12.75-187.566c-26-35.08-79.206-28.337-98.25,9.75  C467.178,333.786,485.25,418.047,485.25,471.64z"/>
</svg>