<svg xmlns="http://www.w3.org/2000/svg" xmlns:xlink="http://www.w3.org/1999/xlink" version="1.1" id="Layer_1" x="0px" y="0px" enable-background="new 0 0 822.05 841.89" xml:space="preserve" viewBox="350.07 250.33 126 342.94">
<path fill-rule="evenodd" clip-rule="evenodd" fill="#AF8977" stroke="#000000" stroke-width="2" stroke-linecap="square" stroke-miterlimit="10" d="  M422.5,584.14c-8.224,14.575-24.75,8.217-24.75-8.393c0-27.826,0-55.652,0-83.479c0-10.651-6.69-50.944,0-59.628  c7.226-9.379,24.75-12.439,24.75,3.86C422.5,485.714,422.5,534.927,422.5,584.14z"/>
<path fill-rule="evenodd" clip-rule="evenodd" fill="#FFF200" stroke="#000000" stroke-width="2" stroke-linecap="square" stroke-miterlimit="10" d="  M352,471.64c25.075,22.828,117,39.1,117-9.684c0-50.063,20.062-143.189-12.75-187.566c-27.754-37.536-75.769-25.621-97.875,9.75  C347.477,301.578,352,330.388,352,349.547C352,390.245,352,430.942,352,471.64z"/>
</svg>