<svg xmlns="http://www.w3.org/2000/svg" xmlns:xlink="http://www.w3.org/1999/xlink" version="1.1" id="Layer_1" x="0px" y="0px" enable-background="new 0 0 822.05 841.89" xml:space="preserve" viewBox="306.79 341.17 209.48 159.97">
<path fill-rule="evenodd" clip-rule="evenodd" fill="#8ED4E5" stroke="#000000" stroke-width="1.25" stroke-linecap="square" stroke-miterlimit="10" d="  M316.625,500.515c-31.32-4.812,26.506-35.281,36.026-41.927c46.054-32.144,92.108-64.288,138.162-96.432  c10.042-7.008,10.579,4.717,8.812,10.108c-3.39,10.342-38.874,27.244-47.444,33.25C406.995,437.182,361.81,468.848,316.625,500.515z  "/>
<path fill-rule="evenodd" clip-rule="evenodd" fill="#F7F619" stroke="#000000" stroke-width="1.25" stroke-linecap="square" stroke-miterlimit="10" d="  M408.875,415.765c36.492,38.863,116.513-1.987,74.625-43.875c-17.348-17.348-59.775-6.674-55.875,21.375  c3.415,24.56,44.25,27.83,44.25,1.125c0-16.085-13.142-10.42-18.75-7.875c4.826-2.19,10.957,27.531-5.25,15.375  c-23.12-17.34,11.514-35.802,29.25-22.5c27.106,20.33-17.374,53.381-41.25,40.875c-28.993-15.186-19.041-50.104,5.25-62.25  c65.352-32.676,91.461,71.411,10.5,87c45.88,7.267,83.939-45.892,52.5-84C466.64,315.578,377.926,357.545,408.875,415.765z"/>
<path fill-rule="evenodd" clip-rule="evenodd" fill="#19519D" stroke="#000000" stroke-width="1.25" stroke-linecap="square" stroke-miterlimit="10" d="  M506.375,389.515c-8.077-75.106-130.196-16.633-75.75,27c21.387,17.14,68.31-3.439,49.5-33c-13.096-20.582-43.633-8.463-36,15  c6.319,19.426,20.859-10.547,12-7.5c-6.821,2.346,10.3-22.217,15-1.5c6.006,26.473-33.785,32.196-42,8.25  c-18.32-53.404,107.945-33,53.25,22.5c-21.896,22.219-53.42,16.885-73.5-4.5C432.677,462.709,511.158,442.239,506.375,389.515z"/>
</svg>