<svg xmlns="http://www.w3.org/2000/svg" xmlns:xlink="http://www.w3.org/1999/xlink" version="1.1" id="Layer_1" x="0px" y="0px" enable-background="new 0 0 822.05 841.89" xml:space="preserve" viewBox="305 336.14 211.8 170.12">
<path fill-rule="evenodd" clip-rule="evenodd" fill="#EED5B6" stroke="#000000" stroke-width="1.5" stroke-linecap="square" stroke-miterlimit="10" d="  M448.875,474.89c-28.787-7.396-33.325-33.781-70.5-21.75c-24.186,7.827-44.949,28.218-54,51.75c26.318,0,52.637,0,78.955,0  C438.801,504.89,438.596,509.156,448.875,474.89z"/>
<path fill-rule="evenodd" clip-rule="evenodd" fill="#137827" stroke="#000000" stroke-width="1.25" stroke-linecap="square" stroke-miterlimit="10" d="  M444.375,468.14c-9.674,29.823-46.149,40.44-72,24c-18.484-11.756-12.806-26.559-35.25-21c-13.926,3.448-28.888,21.34-31.5,34.5  c60,0,120,0,180,0C480.849,486.017,464.348,470.966,444.375,468.14z"/>
<path fill-rule="evenodd" clip-rule="evenodd" fill="#7D5E23" stroke="#000000" stroke-width="1.5" stroke-linecap="square" stroke-miterlimit="10" d="  M449.625,393.14c11.959,30.051,8.661,71.157-33.75,61.5C422.526,434.131,424.138,396.894,449.625,393.14z"/>
<path fill-rule="evenodd" clip-rule="evenodd" fill="#EED5B6" stroke="#000000" stroke-width="1.5" stroke-linecap="square" stroke-miterlimit="10" d="  M332.625,387.14c-4.51,33.875,23.874,74.256,58.5,79.5c52.097,7.891,60.872-53.83,57.75-92.25  C411.011,391.136,373.034,393.879,332.625,387.14z"/>
<path fill-rule="evenodd" clip-rule="evenodd" fill="#7D5E23" stroke="#000000" stroke-width="1.5" stroke-linecap="square" stroke-miterlimit="10" d="  M449.625,370.64c28.062,35.183-47.61,29.661-62.111,31.111c-23.701,2.37-28.84,4.138-27.514,28.889  c1.191,22.236-4.788,27.419-25.875,16.875C277.945,419.425,384.688,271.557,449.625,370.64z"/>
<path fill-rule="evenodd" clip-rule="evenodd" fill="#EED5B6" d="M362.625,414.14c-16.954,1.559-16.906,23.858,1.5,24  C363.654,430.611,364.633,421.382,362.625,414.14z"/>
<path fill="none" stroke="#000000" stroke-width="1.5" stroke-linecap="square" stroke-miterlimit="10" d="M362.625,414.14  c-16.954,1.559-16.906,23.858,1.5,24"/>
<path fill-rule="evenodd" clip-rule="evenodd" d="M385.875,426.14C397.596,431.027,399.009,423.175,385.875,426.14L385.875,426.14z"/>
<path fill="none" stroke="#000000" stroke-width="0.5" stroke-linecap="square" stroke-miterlimit="10" d="M378.375,428.39  c6.445-6.543,14.756-8.785,23.25-6"/>
<path fill-rule="evenodd" clip-rule="evenodd" d="M419.625,420.89C432.013,424.936,431.749,417.161,419.625,420.89L419.625,420.89z"/>
<path fill="none" stroke="#000000" stroke-width="0.5" stroke-linecap="square" stroke-miterlimit="10" d="M412.125,421.64  c7.069-6.338,15.266-7.568,23.25-3"/>
<path fill-rule="evenodd" clip-rule="evenodd" fill="#137827" stroke="#000000" stroke-width="1.25" stroke-linecap="square" stroke-miterlimit="10" d="  M499.125,419.39c-7.006-2.667-65.442-1.693-51.375,12.375C465.713,449.728,487.639,439.838,499.125,419.39z"/>
<path fill-rule="evenodd" clip-rule="evenodd" fill="#EED5B6" stroke="#000000" stroke-width="1.25" stroke-linecap="square" stroke-miterlimit="10" d="  M474.375,392.39c9.378,7.411,23.972,30.636,12,42.75c-20.372,20.614-35.805-26.084-51.75-33  C447.875,398.89,461.125,395.64,474.375,392.39z"/>
<path fill-rule="evenodd" clip-rule="evenodd" fill="#EED5B6" stroke="#000000" stroke-width="1.25" stroke-linecap="square" stroke-miterlimit="10" d="  M403.875,399.14c9.911,6.325,65.753,9.396,69.75-5.25C476.727,382.525,413.066,391.775,403.875,399.14z"/>
<path fill-rule="evenodd" clip-rule="evenodd" fill="#137827" stroke="#000000" stroke-width="1.25" stroke-linecap="square" stroke-miterlimit="10" d="  M499.125,420.89c-14.34,14.746-34.699,18.37-53.25,9.75c5.337,15.36,9.88,30.843,14.25,46.5c9.29,33.288,11.494,27.75,45.984,27.75  C532.057,504.89,499.694,438.602,499.125,420.89z"/>
</svg>