<svg xmlns="http://www.w3.org/2000/svg" xmlns:xlink="http://www.w3.org/1999/xlink" version="1.1" id="Layer_1" x="0px" y="0px" enable-background="new 0 0 822.05 841.89" xml:space="preserve" viewBox="237.22 243.12 346.23 353.77">
<path fill-rule="evenodd" clip-rule="evenodd" fill="#FFEFC9" stroke="#000000" stroke-width="2" stroke-linecap="square" stroke-miterlimit="10" d="  M368.75,325.14c0,68.425,0,136.85,0,205.275c0,43.914-6.437,66.341,49.5,63.225c44.576-2.483,34.5-19.969,34.5-56.304  c0-70.732,0-141.464,0-212.196C425.804,333.869,395.749,333.721,368.75,325.14z"/>
<path fill-rule="evenodd" clip-rule="evenodd" fill="#FFDB78" stroke="#000000" stroke-width="2" stroke-linecap="square" stroke-miterlimit="10" d="  M368.75,325.14c0-12.93-9.546-78.75,10.436-78.75c26.054,0,75.471-12.787,74.74,22.302c-0.694,33.356,10.045,56.477-25.176,63.198  C409.108,335.639,387.273,332.28,368.75,325.14z"/>
<path fill="none" stroke="#000000" stroke-width="2" stroke-linecap="square" stroke-miterlimit="10" d="M419,430.14  c-21.871,18.077-24.42-27.05,1.5-13.5c21.555,11.268,6.433,34.284-12.75,33c-50.059-3.351-0.547-79.216,27-31.5"/>
<line fill="none" stroke="#000000" stroke-width="2" stroke-linecap="square" stroke-miterlimit="10" x1="404" y1="376.14" x2="404" y2="390.39"/>
<line fill="none" stroke="#000000" stroke-width="2" stroke-linecap="square" stroke-miterlimit="10" x1="380.75" y1="393.39" x2="388.25" y2="397.89"/>
<line fill="none" stroke="#000000" stroke-width="2" stroke-linecap="square" stroke-miterlimit="10" x1="430.25" y1="386.64" x2="425.75" y2="397.14"/>
<line fill="none" stroke="#000000" stroke-width="2" stroke-linecap="square" stroke-miterlimit="10" x1="402.5" y1="459.39" x2="401" y2="471.39"/>
<line fill="none" stroke="#000000" stroke-width="2" stroke-linecap="square" stroke-miterlimit="10" x1="425.75" y1="455.64" x2="431.75" y2="462.39"/>
<line fill="none" stroke="#000000" stroke-width="2" stroke-linecap="square" stroke-miterlimit="10" x1="383" y1="450.39" x2="377" y2="460.14"/>
<line fill="none" stroke="#000000" stroke-width="2" stroke-linecap="square" stroke-miterlimit="10" x1="440.75" y1="431.64" x2="448.25" y2="431.64"/>
<line fill="none" stroke="#000000" stroke-width="2" stroke-linecap="square" stroke-miterlimit="10" x1="380" y1="426.39" x2="374" y2="426.39"/>
<path fill-rule="evenodd" clip-rule="evenodd" fill="#FFEFC9" stroke="#000000" stroke-width="2" stroke-linecap="square" stroke-miterlimit="10" d="  M240.5,325.14c0,68.425,0,136.85,0,205.275c0,44.116-7.536,66.598,49.5,63.225c44.966-2.659,33.75-19.953,33.75-56.304  c0-70.732,0-141.464,0-212.196C297.482,333.967,266.85,334.046,240.5,325.14z"/>
<path fill-rule="evenodd" clip-rule="evenodd" fill="#FFDB78" stroke="#000000" stroke-width="2" stroke-linecap="square" stroke-miterlimit="10" d="  M240.5,325.14c0-12.9-9.528-78.75,10.411-78.75c25.774,0,75.693-12.564,74.604,22.302c-1.068,34.185,9.175,54.931-25.014,63.198  C281.648,336.449,258.172,332.16,240.5,325.14z"/>
<path fill="none" stroke="#000000" stroke-width="2" stroke-linecap="square" stroke-miterlimit="10" d="M290,430.14  c-17.912,15.552-26.297-18.107-3.75-15.75c22.935,2.397,19.345,37.69-3.375,35.625c-55.947-5.086-3.629-77.338,23.625-31.875"/>
<line fill="none" stroke="#000000" stroke-width="2" stroke-linecap="square" stroke-miterlimit="10" x1="275.75" y1="376.14" x2="275.75" y2="390.39"/>
<line fill="none" stroke="#000000" stroke-width="2" stroke-linecap="square" stroke-miterlimit="10" x1="251.75" y1="393.39" x2="260" y2="397.89"/>
<line fill="none" stroke="#000000" stroke-width="2" stroke-linecap="square" stroke-miterlimit="10" x1="302" y1="386.64" x2="296.75" y2="397.14"/>
<line fill="none" stroke="#000000" stroke-width="2" stroke-linecap="square" stroke-miterlimit="10" x1="274.25" y1="459.39" x2="272" y2="471.39"/>
<line fill="none" stroke="#000000" stroke-width="2" stroke-linecap="square" stroke-miterlimit="10" x1="296.75" y1="455.64" x2="302.75" y2="462.39"/>
<line fill="none" stroke="#000000" stroke-width="2" stroke-linecap="square" stroke-miterlimit="10" x1="254.75" y1="450.39" x2="248.75" y2="460.14"/>
<line fill="none" stroke="#000000" stroke-width="2" stroke-linecap="square" stroke-miterlimit="10" x1="311.75" y1="431.64" x2="320" y2="431.64"/>
<line fill="none" stroke="#000000" stroke-width="2" stroke-linecap="square" stroke-miterlimit="10" x1="251" y1="426.39" x2="245" y2="426.39"/>
<path fill-rule="evenodd" clip-rule="evenodd" fill="#FFEFC9" stroke="#000000" stroke-width="2" stroke-linecap="square" stroke-miterlimit="10" d="  M496.25,327.39c0,68.425,0,136.85,0,205.275c0,43.301-7.567,63.225,46.125,63.225c44.933,0,37.875-16.46,37.875-51.011  c0-72.496,0-144.993,0-217.489C553.188,336.591,523.513,334.584,496.25,327.39z"/>
<path fill-rule="evenodd" clip-rule="evenodd" fill="#FFDB78" stroke="#000000" stroke-width="2" stroke-linecap="square" stroke-miterlimit="10" d="  M496.25,327.39c0-12.93-9.546-78.75,10.437-78.75c26.053,0,75.471-12.787,74.739,22.302c-0.685,32.89,10.07,56.567-25.176,63.198  C536.906,337.779,514.38,334.379,496.25,327.39z"/>
<path fill="none" stroke="#000000" stroke-width="2" stroke-linecap="square" stroke-miterlimit="10" d="M546.5,432.39  c-24.14,15.801-22.451-26.419,1.5-13.5c21.664,11.686,6.07,33.757-12.75,32.25c-50.334-4.029,0.22-78.659,27-30.75"/>
<line fill="none" stroke="#000000" stroke-width="2" stroke-linecap="square" stroke-miterlimit="10" x1="532.25" y1="378.39" x2="532.25" y2="392.64"/>
<line fill="none" stroke="#000000" stroke-width="2" stroke-linecap="square" stroke-miterlimit="10" x1="508.25" y1="394.89" x2="515.75" y2="400.14"/>
<line fill="none" stroke="#000000" stroke-width="2" stroke-linecap="square" stroke-miterlimit="10" x1="558.5" y1="388.14" x2="553.25" y2="399.39"/>
<line fill="none" stroke="#000000" stroke-width="2" stroke-linecap="square" stroke-miterlimit="10" x1="530" y1="460.89" x2="528.5" y2="473.64"/>
<line fill="none" stroke="#000000" stroke-width="2" stroke-linecap="square" stroke-miterlimit="10" x1="553.25" y1="457.89" x2="559.25" y2="464.64"/>
<line fill="none" stroke="#000000" stroke-width="2" stroke-linecap="square" stroke-miterlimit="10" x1="510.5" y1="452.64" x2="504.5" y2="461.64"/>
<line fill="none" stroke="#000000" stroke-width="2" stroke-linecap="square" stroke-miterlimit="10" x1="568.25" y1="433.89" x2="575.75" y2="433.89"/>
<line fill="none" stroke="#000000" stroke-width="2" stroke-linecap="square" stroke-miterlimit="10" x1="507.5" y1="427.89" x2="501.5" y2="427.89"/>
</svg>