<svg xmlns="http://www.w3.org/2000/svg" xmlns:xlink="http://www.w3.org/1999/xlink" version="1.1" id="Layer_1" x="0px" y="0px" enable-background="new 0 0 822.05 841.89" xml:space="preserve" viewBox="309.78 339.08 202.49 168.06">
<path fill-rule="evenodd" clip-rule="evenodd" fill="#EED5B6" stroke="#000000" stroke-width="1.25" stroke-linecap="square" stroke-miterlimit="10" d="  M430.875,426.265c-26.669-17.097-31.182-12.32-58.875-2.25c-11.83,4.302-24.203,29.25-4.235,29.25  C405.779,453.265,421.366,464.301,430.875,426.265z"/>
<path fill-rule="evenodd" clip-rule="evenodd" fill="#137827" stroke="#000000" stroke-width="1.25" stroke-linecap="square" stroke-miterlimit="10" d="  M427.875,421.015c-11.812,42.088-51.995-1.526-68.25,1.5c-12.216,2.274-54.085,48.938-48.75,61.5  c8.932,21.03,50.467-13.649,42.75,22.5c37.5-0.25,75-0.5,112.5-0.75C462.572,481.93,458.763,426.489,427.875,421.015z"/>
<path fill-rule="evenodd" clip-rule="evenodd" fill="#EED5B6" stroke="#000000" stroke-width="1.25" stroke-linecap="square" stroke-miterlimit="10" d="  M376.875,401.515C379.367,427.349,353.182,394.255,376.875,401.515L376.875,401.515z"/>
<path fill-rule="evenodd" clip-rule="evenodd" fill="#EED5B6" stroke="#000000" stroke-width="1.25" stroke-linecap="square" stroke-miterlimit="10" d="  M436.125,383.515C422.427,404.355,422.928,360.983,436.125,383.515L436.125,383.515z"/>
<path fill-rule="evenodd" clip-rule="evenodd" fill="#EED5B6" stroke="#000000" stroke-width="1.25" stroke-linecap="square" stroke-miterlimit="10" d="  M361.875,377.515c3.95,43.711,68.25,62.436,68.25,9.375C430.125,328.658,354.269,322.913,361.875,377.515z"/>
<path fill-rule="evenodd" clip-rule="evenodd" fill="#FFFFFF" d="M355.875,451.765l-1.5,13.5L355.875,451.765z"/>
<line fill="none" stroke="#000000" stroke-width="1.25" stroke-linecap="square" stroke-miterlimit="10" x1="355.875" y1="451.765" x2="354.375" y2="465.265"/>
<path fill-rule="evenodd" clip-rule="evenodd" fill="#EED5B6" stroke="#000000" stroke-width="1.25" stroke-linecap="square" stroke-miterlimit="10" d="  M424.125,463.765c0.291-13.58-15.135-14.95-27.75-7.5c1.752-5.022,1.34-11.124,3-15.75c-8.068,10.655-38.429,23.256-19.5,39  C390.901,488.686,426.456,479.99,424.125,463.765z"/>
<path fill-rule="evenodd" clip-rule="evenodd" fill="#137827" d="M421.125,457.015l-18,3L421.125,457.015z"/>
<line fill="none" stroke="#000000" stroke-width="1.25" stroke-linecap="square" stroke-miterlimit="10" x1="421.125" y1="457.015" x2="403.125" y2="460.015"/>
<path fill-rule="evenodd" clip-rule="evenodd" fill="#137827" d="M424.125,463.765l-19.5,1.5L424.125,463.765z"/>
<line fill="none" stroke="#000000" stroke-width="1.25" stroke-linecap="square" stroke-miterlimit="10" x1="424.125" y1="463.765" x2="404.625" y2="465.265"/>
<path fill-rule="evenodd" clip-rule="evenodd" fill="#137827" d="M423.375,471.265l-17.25,0.75L423.375,471.265z"/>
<line fill="none" stroke="#000000" stroke-width="1.25" stroke-linecap="square" stroke-miterlimit="10" x1="423.375" y1="471.265" x2="406.125" y2="472.015"/>
<path fill-rule="evenodd" clip-rule="evenodd" fill="#137827" stroke="#000000" stroke-width="1.25" stroke-linecap="square" stroke-miterlimit="10" d="  M375.375,457.015c-14.127,1.152-56.457-0.525-63,18c-12.882,36.469,51.513,12.192,65.25,8.25  C372.425,475.149,371.61,465.779,375.375,457.015z"/>
<path fill-rule="evenodd" clip-rule="evenodd" fill="#631D1B" stroke="#000000" stroke-linecap="square" stroke-miterlimit="10" d="  M421.125,392.515c-7.354,15.347-16.339,25.05-31.5,12C400.824,403.383,411.914,399.197,421.125,392.515z"/>
<path fill-rule="evenodd" clip-rule="evenodd" d="M391.875,387.265c-1.848,0.628-0.593,5.355-4.5,1.5  C388.455,383.66,390.655,387.68,391.875,387.265z"/>
<path fill-rule="evenodd" clip-rule="evenodd" d="M411.375,382.015c-1.633,0.6-0.515,5.602-4.5,1.5  C407.756,378.01,409.618,382.66,411.375,382.015z"/>
<path fill="none" stroke="#000000" stroke-linecap="square" stroke-miterlimit="10" d="M399.375,392.515  c2.475,1.532,4.939,0.988,6.75-1.5"/>
<path fill="none" stroke="#000000" stroke-width="0.75" stroke-linecap="square" stroke-miterlimit="10" d="M384.375,390.265  c2.143-4.792,5.842-6.079,10.5-3.75"/>
<path fill="none" stroke="#000000" stroke-width="0.75" stroke-linecap="square" stroke-miterlimit="10" d="M415.125,381.265  c-4.358-1.794-8.35-0.732-11.25,3"/>
<path fill-rule="evenodd" clip-rule="evenodd" fill="#D01424" stroke="#000000" stroke-width="1.25" stroke-linecap="square" stroke-miterlimit="10" d="  M483.375,388.015c-4.601-12.572-18.969-18.316-27-5.25c-7.244,11.786,19.746,36.344,24.75,43.5  c6.755-7.675,37.052-26.922,29.25-41.25C503.678,372.715,488.023,377.241,483.375,388.015z"/>
</svg>