<svg xmlns="http://www.w3.org/2000/svg" xmlns:xlink="http://www.w3.org/1999/xlink" version="1.1" id="Layer_1" x="0px" y="0px" enable-background="new 0 0 822.05 841.89" xml:space="preserve" viewBox="238.3 247.91 346.21 348.39">
<path fill-rule="evenodd" clip-rule="evenodd" fill="#F1F1F2" stroke="#000000" stroke-width="2" stroke-linecap="square" stroke-miterlimit="10" d="  M239.305,304.441c10.128,32.578,20.256,65.156,30.384,97.733c8.927,28.714,6.326,55.476,43.24,46.81  c21.464-5.039,183.173-32.252,181.792-48.825c-3.602-43.213,13.747-162.929-53.049-150.33  c-42.051,7.931-84.103,15.862-126.154,23.793C293.601,277.756,242.932,274.698,239.305,304.441z"/>
<path fill-rule="evenodd" clip-rule="evenodd" fill="#F1F1F2" stroke="#000000" stroke-width="2" stroke-linecap="square" stroke-miterlimit="10" d="  M304.555,460.439c0,21.738-10.971,67.898,9.206,79.579c23.714,13.729,63.553,49.326,90.544,52.421  c17.06,1.956,173.826-45.121,174.061-51.977c0.576-16.834,12.4-80.513-1.836-88.807c-14.736-8.585-66.713-50.948-82.283-47.273  C462.808,411.801,307.16,429.559,304.555,460.439z"/>
<line fill="none" stroke="#000000" stroke-width="2" stroke-linecap="square" stroke-miterlimit="10" x1="400.555" y1="509.189" x2="400.555" y2="592.439"/>
<path fill="none" stroke="#000000" stroke-width="2" stroke-linecap="square" stroke-miterlimit="10" d="M474.057,258.691  c-66.847,13.274-133.694,26.549-200.541,39.823c-31.281,6.212,25.72,125.775,34.039,149.925"/>
<path fill="none" stroke="#000000" stroke-width="2" stroke-linecap="square" stroke-miterlimit="10" d="M458.307,263.191  c3.273,27.434-1.544,141.668,36,135"/>
<line fill="none" stroke="#000000" stroke-width="2" stroke-linecap="square" stroke-miterlimit="10" x1="474.057" y1="395.191" x2="304.555" y2="435.689"/>
<line fill="none" stroke="#000000" stroke-width="2" stroke-linecap="square" stroke-miterlimit="10" x1="262.555" y1="300.691" x2="247.555" y2="286.441"/>
<line fill="none" stroke="#000000" stroke-width="2" stroke-linecap="square" stroke-miterlimit="10" x1="261.055" y1="313.441" x2="239.305" y2="304.441"/>
<path fill-rule="evenodd" clip-rule="evenodd" fill="#ED2224" stroke="#010101" stroke-width="2" stroke-linecap="square" stroke-miterlimit="10" d="  M353.305,410.191c-57.163,13.027-18.065,96.705,34.5,76.498C443.765,465.176,408.525,393.901,353.305,410.191z"/>
<path fill-rule="evenodd" clip-rule="evenodd" fill="#539943" stroke="#010101" stroke-width="2" stroke-linecap="square" stroke-miterlimit="10" d="  M374.305,415.441c-5.006-21.098,16.869-33.177,35.252-33.75C405.798,399.666,392.882,413.493,374.305,415.441z"/>
<path fill="none" stroke="#010101" stroke-width="2" stroke-linecap="square" stroke-miterlimit="10" d="M396.805,391.441  c-10.822,4.739-20.479,12.983-24,24"/>
<path fill-rule="evenodd" clip-rule="evenodd" fill="#539943" stroke="#010101" stroke-width="2" stroke-linecap="square" stroke-miterlimit="10" d="  M367.555,401.191c-6.976-11.807-23.452-16.81-33-4.875C329.038,403.212,359.379,409.478,367.555,401.191z"/>
<path fill="none" stroke="#010101" stroke-width="2" stroke-linecap="square" stroke-miterlimit="10" d="M339.055,396.691  c9.637-2.863,19.354-1.242,27.75,4.5"/>
<path fill-rule="evenodd" clip-rule="evenodd" fill="#9D7347" stroke="#010101" stroke-width="2" stroke-linecap="square" stroke-miterlimit="10" d="  M369.805,417.691c-0.396-13.401-11.949-24.682-9-36C367.589,392.664,380.804,417.231,369.805,417.691z"/>
<path fill="none" stroke="#010101" stroke-width="2" stroke-linecap="square" stroke-miterlimit="10" d="M345.805,416.941  c7.269-3.417,46.204-1.298,54,3.75"/>
<path fill-rule="evenodd" clip-rule="evenodd" fill="#ED2224" stroke="#010101" stroke-width="2" stroke-linecap="square" stroke-miterlimit="10" d="  M398.305,435.689c-59.459,13.133-16.021,98.439,37.502,74.25C488.292,486.219,450.416,418.92,398.305,435.689z"/>
<path fill-rule="evenodd" clip-rule="evenodd" fill="#539943" stroke="#010101" stroke-width="2" stroke-linecap="square" stroke-miterlimit="10" d="  M418.557,440.939c-3.652-21.663,15.711-33.417,35.25-33.748C450.018,424.759,436.675,438.454,418.557,440.939z"/>
<path fill="none" stroke="#010101" stroke-width="2" stroke-linecap="square" stroke-miterlimit="10" d="M441.057,416.191  c-10.28,6.031-20.275,13.18-24,24.748"/>
<path fill-rule="evenodd" clip-rule="evenodd" fill="#539943" stroke="#010101" stroke-width="2" stroke-linecap="square" stroke-miterlimit="10" d="  M411.807,426.689c-7.404-14.487-24.725-16.176-34.502-3C387.344,432.312,401.763,436.772,411.807,426.689z"/>
<path fill="none" stroke="#010101" stroke-width="2" stroke-linecap="square" stroke-miterlimit="10" d="M384.055,422.191  c9.173-3.092,18.84-1.45,27.002,4.498"/>
<path fill-rule="evenodd" clip-rule="evenodd" fill="#9D7347" stroke="#010101" stroke-width="2" stroke-linecap="square" stroke-miterlimit="10" d="  M414.057,442.439c0.035-12.98-10.421-23.575-9.002-35.248C410.377,415.089,427.554,446.643,414.057,442.439z"/>
<path fill="none" stroke="#010101" stroke-width="2" stroke-linecap="square" stroke-miterlimit="10" d="M390.805,442.439  c6.001-3.218,46.063-0.887,53.252,3.75"/>
<path fill="none" stroke="#000000" stroke-width="2" stroke-linecap="square" stroke-miterlimit="10" d="M304.555,460.439  c32.985,16.75,76.579,54.633,113.482,43.454c54.424-16.484,108.847-32.97,163.27-49.454"/>
<path fill-rule="evenodd" clip-rule="evenodd" fill="#86603B" stroke="#000000" stroke-width="2" stroke-linecap="square" stroke-miterlimit="10" d="  M540.057,325.441c-3.725,20.684,14.589,28.507,20.25,46.5c5.594,17.779,0.799,45.248,1.125,63.749  c0.368,20.871,0.736,41.741,1.104,62.612c0.078,4.42-45.19,14.241-51.729,16.137c0-41.554,0-83.108,0-124.663  C510.807,359.944,540.622,347.899,540.057,325.441z"/>
<path fill-rule="evenodd" clip-rule="evenodd" fill="#E4E5EA" d="M536.307,323.191c-13.307,3.648-35.231,5.046-46.5,12.75  c-2.943,2.012,1.963,10.486-2.73,14.106c-7.84,6.048-15.68,12.096-23.52,18.144C486.427,367.453,552.378,365.332,536.307,323.191z"/>
<path fill="none" stroke="#000000" stroke-width="2" stroke-linecap="square" stroke-miterlimit="10" d="M536.307,323.191  c-13.307,3.648-35.231,5.046-46.5,12.75c-2.943,2.012,1.963,10.486-2.73,14.106c-7.84,6.048-15.68,12.096-23.52,18.144  c24.545-0.792,85.796-1.996,72.75-44.25"/>
<path fill-rule="evenodd" clip-rule="evenodd" fill="#86603B" stroke="#000000" stroke-width="2" stroke-linecap="square" stroke-miterlimit="10" d="  M459.807,370.441c-0.396,33.435-0.791,66.87-1.188,100.305c-0.439,37.13,15.719,31.865,50.688,43.693  c0.25-48.749,0.5-97.499,0.75-146.248C493.307,368.941,476.557,369.691,459.807,370.441z"/>
<path fill-rule="evenodd" clip-rule="evenodd" fill="#FFFFFF" stroke="#000000" stroke-width="2" stroke-linecap="square" stroke-miterlimit="10" d="  M490.557,414.691c31.787,34.073-48.697,31.605-13.5-0.75c-13.141-2.61-11.614-5.312-6-15c-3.848,14.49,28.146,15.412,24,0  C504.857,407.826,500.483,410.381,490.557,414.691z"/>
<path fill-rule="evenodd" clip-rule="evenodd" fill="#C6B7A8" stroke="#000000" stroke-width="2" stroke-linecap="square" stroke-miterlimit="10" d="  M556.557,371.191c-15.25-1.5-30.5-3-45.75-4.5C528.673,342.147,536.886,356.305,556.557,371.191z"/>
<line fill="none" stroke="#000000" stroke-width="2" stroke-linecap="square" stroke-miterlimit="10" x1="537.057" y1="339.691" x2="489.807" y2="347.941"/>
<path fill-rule="evenodd" clip-rule="evenodd" fill="#E8DFD7" stroke="#000000" stroke-width="2" stroke-linecap="square" stroke-miterlimit="10" d="  M555.057,381.691c-12.25-0.5-24.5-1-36.75-1.5c0.25,41,0.5,81.999,0.75,122.998c34.336-8.24,37.5-3.114,37.5-37.972  C556.557,439.78,561.108,404.1,555.057,381.691z"/>
<path fill-rule="evenodd" clip-rule="evenodd" fill="#F1F1F2" d="M400.555,507.689c58.751-17.5,117.501-35,176.252-52.5  c-0.211,24.469-0.422,48.938-0.633,73.406c-0.164,19.043-6.933,15.541-25.265,20.778c-49.368,14.105-98.736,28.21-148.104,42.315  C402.041,563.69,401.173,535.691,400.555,507.689z"/>
<path fill="none" stroke="#000000" stroke-width="2" stroke-linecap="square" stroke-miterlimit="10" d="M400.555,507.689  c58.751-17.5,117.501-35,176.252-52.5c-0.211,24.469-0.422,48.938-0.633,73.406c-0.164,19.043-6.933,15.541-25.265,20.778  c-49.368,14.105-98.736,28.21-148.104,42.315c-0.75-27.5-1.5-55-2.25-82.5"/>
<path fill-rule="evenodd" clip-rule="evenodd" fill="#6D6F71" stroke="#000000" stroke-width="2" stroke-linecap="square" stroke-miterlimit="10" d="  M469.557,541.439c24.281,40.758,24.495,34.175,69.75,20.25c-8.103-16.854-14.696-35.301-27-44.25c11-4,22-8,33-12  c-3.867,19,15.812,38.333,12.75,57c-3.395,20.695-48.354,25.889-67.11,32.349c-18.577,6.399-26.157-50.349-42.39-50.349  C428.176,544.439,492.354,507.08,469.557,541.439z"/>
</svg>