<svg xmlns="http://www.w3.org/2000/svg" xmlns:xlink="http://www.w3.org/1999/xlink" version="1.1" id="Layer_1" x="0px" y="0px" enable-background="new 0 0 822.05 841.89" xml:space="preserve" viewBox="310.26 337.49 198.88 167.39">
<path fill-rule="evenodd" clip-rule="evenodd" fill="#EED5B6" stroke="#000000" stroke-width="1.25" stroke-linecap="square" stroke-miterlimit="10" d="  M367.639,439.742c17.524-16.287,24.4-5.9,42-1.5c11.956,2.989,16.307,20.25-0.07,20.25  C390.869,458.492,366.621,466.442,367.639,439.742z"/>
<path fill-rule="evenodd" clip-rule="evenodd" fill="#134A1C" stroke="#000000" stroke-width="1.25" stroke-linecap="square" stroke-miterlimit="10" d="  M323.389,458.492c20.078-16.134,34.423-18.49,51-18c4.795,0.142,10.378,8.078,18,7.125c5.82-0.728,12.344-9.897,15.75-10.125  c25.451-1.698,55.507,34.65,56.254,66c-24.139,0-48.277,0-72.417,0c-29.818,0-43.415,7.772-38.587-26.25  C331.904,488.964,289.908,484.84,323.389,458.492z"/>
<path fill-rule="evenodd" clip-rule="evenodd" fill="#EED5B6" stroke="#000000" stroke-width="1.25" stroke-linecap="square" stroke-miterlimit="10" d="  M409.639,408.992C418.494,415.742,420.659,405.658,409.639,408.992L409.639,408.992z"/>
<path fill-rule="evenodd" clip-rule="evenodd" fill="#EED5B6" stroke="#000000" stroke-width="1.25" stroke-linecap="square" stroke-miterlimit="10" d="  M361.639,421.742C372.533,421.449,368.286,413.04,361.639,421.742L361.639,421.742z"/>
<path fill-rule="evenodd" clip-rule="evenodd" fill="#EED5B6" stroke="#000000" stroke-width="1.25" stroke-linecap="square" stroke-miterlimit="10" d="  M408.139,393.242c17.536,41.272-40.429,62.711-45,13.5C360.465,377.956,396.456,363.301,408.139,393.242z"/>
<path fill-rule="evenodd" clip-rule="evenodd" fill="#98521F" stroke="#000000" stroke-width="1.5" stroke-linecap="square" stroke-miterlimit="10" d="  M411.139,462.992c-13.25,4.75-26.5,9.5-39.75,14.25c-0.75-2-1.5-4-2.25-6C381.082,466.96,404.931,451.515,411.139,462.992z"/>
<path fill-rule="evenodd" clip-rule="evenodd" fill="#D9D8DB" stroke="#000000" stroke-width="1.5" stroke-linecap="square" stroke-miterlimit="10" d="  M406.639,451.742c-3.25-1.75-6.5-3.5-9.75-5.25c3,9,6,18,9,27c2.75-1,5.5-2,8.25-3C411.832,464.723,410.438,456.576,406.639,451.742  z"/>
<path fill-rule="evenodd" clip-rule="evenodd" fill="#EED5B6" stroke="#000000" stroke-width="1.25" stroke-linecap="square" stroke-miterlimit="10" d="  M372.889,463.742c4.341,3.613,11.417,1.027,6.75,11.25C377.6,471.5,375.317,467.25,372.889,463.742z"/>
<path fill-rule="evenodd" clip-rule="evenodd" fill="#EED5B6" stroke="#000000" stroke-width="1.25" stroke-linecap="square" stroke-miterlimit="10" d="  M367.639,462.992c10.289,1,16.114,7.318,15.75,17.25c-3.063-0.38-3.155-3.248-5.25-3.75  C368.193,491.431,341.124,465.02,367.639,462.992z"/>
<path fill-rule="evenodd" clip-rule="evenodd" fill="#134A1C" d="M328.639,487.742c10.75-2.5,21.5-5,32.25-7.5  c-0.368-3.319-2.455-14.811-3-17.25c-11.265,1.65-22.515,3.405-33.75,5.25C325.532,474.28,325.695,482.354,328.639,487.742z"/>
<path fill="none" stroke="#000000" stroke-width="1.25" stroke-linecap="square" stroke-miterlimit="10" d="M328.639,487.742  c10.75-2.5,21.5-5,32.25-7.5c-0.368-3.319-2.455-14.811-3-17.25c-11.265,1.65-22.515,3.405-33.75,5.25"/>
<path fill-rule="evenodd" clip-rule="evenodd" fill="#EED5B6" d="M361.639,472.742c0.497,1.53,1.098,5.169,3,7.5  C363.639,477.742,362.639,475.242,361.639,472.742z"/>
<path fill="none" stroke="#000000" stroke-width="1.25" stroke-linecap="square" stroke-miterlimit="10" d="M361.639,472.742  c-0.176,1.947,1.147,5.23,3,7.5"/>
<path fill-rule="evenodd" clip-rule="evenodd" d="M410.389,501.992c-4.094-5.277-4.094-16.473,0-21.75  C410.389,487.475,410.734,494.769,410.389,501.992z"/>
<path fill-rule="evenodd" clip-rule="evenodd" d="M414.889,481.742c-3.75,0-7.5,0-11.25,0c0-2,0-4,0-6  C415.174,472.319,411.294,479.005,414.889,481.742z"/>
<path fill-rule="evenodd" clip-rule="evenodd" fill="#98521F" stroke="#000000" stroke-width="1.5" stroke-linecap="square" stroke-miterlimit="10" d="  M468.143,501.992c-10.071,0-94.04,1.974-81.754-10.5C396.241,481.489,468.471,487.041,468.143,501.992z"/>
<path fill-rule="evenodd" clip-rule="evenodd" fill="#EED5B6" stroke="#000000" stroke-width="1.25" stroke-linecap="square" stroke-miterlimit="10" d="  M423.893,485.492c-2.963,4.885-10.832,3.21-4.504,12.75C420.814,494.436,422.237,489.549,423.893,485.492z"/>
<path fill-rule="evenodd" clip-rule="evenodd" fill="#EED5B6" stroke="#000000" stroke-width="1.25" stroke-linecap="square" stroke-miterlimit="10" d="  M428.393,483.992c-9.484,3.591-13.913,11.3-11.254,20.25c2.249-1.207,2.319-4.086,4.5-5.25  C433.562,511.078,454.755,481.2,428.393,483.992z"/>
<path fill-rule="evenodd" clip-rule="evenodd" fill="#134A1C" stroke="#000000" stroke-width="1.25" stroke-linecap="square" stroke-miterlimit="10" d="  M438.143,499.742c-0.022-7.402,5.36-10.082,0-18C461.137,462.869,477.073,507.057,438.143,499.742z"/>
<path fill-rule="evenodd" clip-rule="evenodd" fill="#FFFFFF" stroke="#000000" stroke-linecap="square" stroke-miterlimit="10" d="  M441.893,389.492c0.377,42.649,66.267,42.39,66.75,0C509.134,346.395,441.69,346.129,441.893,389.492z"/>
<path fill-rule="evenodd" clip-rule="evenodd" fill="#FFFFFF" d="M474.893,412.742v6.75V412.742z"/>
<line fill="none" stroke="#000000" stroke-linecap="square" stroke-miterlimit="10" x1="474.893" y1="412.742" x2="474.893" y2="419.492"/>
<path fill-rule="evenodd" clip-rule="evenodd" fill="#FFFFFF" d="M450.893,389.492h-6H450.893z"/>
<line fill="none" stroke="#000000" stroke-linecap="square" stroke-miterlimit="10" x1="450.893" y1="389.492" x2="444.893" y2="389.492"/>
<path fill-rule="evenodd" clip-rule="evenodd" fill="#FFFFFF" d="M505.643,389.492h-6.75H505.643z"/>
<line fill="none" stroke="#000000" stroke-linecap="square" stroke-miterlimit="10" x1="505.643" y1="389.492" x2="498.893" y2="389.492"/>
<path fill-rule="evenodd" clip-rule="evenodd" fill="#FFFFFF" d="M458.393,405.992l-4.5,4.5L458.393,405.992z"/>
<line fill="none" stroke="#000000" stroke-linecap="square" stroke-miterlimit="10" x1="458.393" y1="405.992" x2="453.893" y2="410.492"/>
<path fill-rule="evenodd" clip-rule="evenodd" fill="#FFFFFF" d="M496.643,367.742l-4.5,4.5L496.643,367.742z"/>
<line fill="none" stroke="#000000" stroke-linecap="square" stroke-miterlimit="10" x1="496.643" y1="367.742" x2="492.143" y2="372.242"/>
<path fill-rule="evenodd" clip-rule="evenodd" fill="#FFFFFF" d="M496.643,410.492l-4.5-4.5L496.643,410.492z"/>
<line fill="none" stroke="#000000" stroke-linecap="square" stroke-miterlimit="10" x1="496.643" y1="410.492" x2="492.143" y2="405.992"/>
<path fill-rule="evenodd" clip-rule="evenodd" stroke="#000000" stroke-linecap="square" stroke-miterlimit="10" d="  M471.893,361.742C479.421,362.459,479.604,362.477,471.893,361.742L471.893,361.742z"/>
<path fill-rule="evenodd" clip-rule="evenodd" stroke="#000000" stroke-linecap="square" stroke-miterlimit="10" d="  M475.643,369.242c2.28,6.456,1.541,14.893,2.25,21.75c-2-0.5-4-1-6-1.5C473.143,382.743,474.314,375.976,475.643,369.242z"/>
<path fill-rule="evenodd" clip-rule="evenodd" stroke="#000000" stroke-linecap="square" stroke-miterlimit="10" d="  M471.143,389.492C479.686,388.772,479.571,388.782,471.143,389.492L471.143,389.492z"/>
<path fill-rule="evenodd" clip-rule="evenodd" fill="#D12327" stroke="#000000" stroke-width="0.5" stroke-linecap="square" stroke-miterlimit="10" d="  M453.893,369.992C461.522,370.425,461.468,370.422,453.893,369.992L453.893,369.992z"/>
<path fill-rule="evenodd" clip-rule="evenodd" fill="#D12327" stroke="#000000" stroke-width="0.5" stroke-linecap="square" stroke-miterlimit="10" d="  M453.143,346.742c3.75-3,7.5-6,11.25-9c1,1.25,2,2.5,3,3.75c-1.842,3.038-8.256,12.009-8.25,12  c-4.553,1.986-10.805,3.186-15.75,3.75C446.494,346.443,452.2,347.174,453.143,346.742z"/>
</svg>