<svg xmlns="http://www.w3.org/2000/svg" xmlns:xlink="http://www.w3.org/1999/xlink" version="1.1" id="Layer_1" x="0px" y="0px" enable-background="new 0 0 822.05 841.89" xml:space="preserve" viewBox="199.4 262 421.25 316.14">
<path fill-rule="evenodd" clip-rule="evenodd" fill="#DFF3FD" stroke="#000000" stroke-width="2" stroke-linecap="square" stroke-miterlimit="10" d="  M316.651,314.39c34.466-24.326,102.092-64.376,146.25-47.25c21.856,8.477,40.72,37.903,56.791,54.753  c24.319,25.499,48.64,50.998,72.959,76.497c-51.771,14.841-112.064,31.688-153,68.252  C398.651,415.892,357.651,365.141,316.651,314.39z"/>
<path fill-rule="evenodd" clip-rule="evenodd" fill="#00AEEF" d="M313.651,315.89c9.898,25.576,37.495,49.812,54.836,71.196  c11.469,14.143,50.121,80.79,68.164,84.056c18.916,3.424,66.703-29.412,84.768-37.224c23.02-9.954,48.41-23.277,73.482-25.778  c-0.75-3.25-1.5-6.5-2.25-9.75c-43.526,13.443-121.432,29.752-150.75,67.502c-22.034-26.652-44.068-53.305-66.103-79.958  C361.677,368.853,333.43,320.426,313.651,315.89z"/>
<path fill="none" stroke="#000000" stroke-width="2" stroke-linecap="square" stroke-miterlimit="10" d="M313.651,315.89  c9.898,25.576,37.495,49.812,54.836,71.196c11.469,14.143,50.121,80.79,68.164,84.056c18.916,3.424,66.703-29.412,84.768-37.224  c23.02-9.954,48.41-23.277,73.482-25.778c-0.75-3.25-1.5-6.5-2.25-9.75c-43.526,13.443-121.432,29.752-150.75,67.502  c-41.75-50.5-83.5-101.001-125.25-151.502"/>
<path fill-rule="evenodd" clip-rule="evenodd" fill="#FFF200" stroke="#000000" stroke-width="2" stroke-linecap="square" stroke-miterlimit="10" d="  M429.901,358.64c-8.117,6.963-15.027,3.822-14.25,18c-11.533-7.306-7.606-5.673-21-8.25c2.3-12.443,2.323-10.009,0.75-22.5  c14.162-0.969,9.246,0.592,21.75-6C415.582,353.705,422.548,351.175,429.901,358.64z"/>
<path fill-rule="evenodd" clip-rule="evenodd" fill="#FFF200" stroke="#000000" stroke-width="2" stroke-linecap="square" stroke-miterlimit="10" d="  M557.401,380.39c-10.727,1.681-15.734,7.924-15,18.75c-5.325-9.415-13.057-12.473-23.25-9c7.27-8.012,7.491-16.263,0.75-24.75  c9.963,5.485,17.994,3.588,24-6C542.784,369.953,547.32,376.932,557.401,380.39z"/>
<path fill-rule="evenodd" clip-rule="evenodd" fill="#BCBEC0" stroke="#000000" stroke-width="2" stroke-linecap="square" stroke-miterlimit="10" d="  M338.401,319.64c10.845,13.014,16.182,31.088,31.944,20.889c12.892-8.342,26.7-15.593,40.806-21.639  c23.697-10.156,53.626-18.829,78.75-9c-23.45-27.47-30.504-35.458-66.75-30C391.594,284.642,362.649,299.048,338.401,319.64z"/>
<path fill-rule="evenodd" clip-rule="evenodd" fill="#EAB649" stroke="#000000" stroke-width="2" stroke-linecap="square" stroke-miterlimit="10" d="  M464.401,365.39c-22.375,10.309-7.465,49.5-33.75,65.252c3.25,3.5,6.5,7,9.75,10.5c3.638-1.146,9.112-3.273,10.5-3.75  c-2.749-14.822,9.099-33.247,10.5-51.752c7.896,15.792,15.791,31.583,23.687,47.375c2.439,4.878,35.255-11.805,41.563-14.375  c-11.622-15.179-44.35-40.907-28.417-55.778c8.156-7.612-13.104-46.923-22.583-48.472c-0.25,2.75-0.5,5.5-0.75,8.25  c-1.75-0.75-3.5-1.5-5.25-2.25C485.701,338.317,492.856,355.874,464.401,365.39z"/>
<path fill-rule="evenodd" clip-rule="evenodd" fill="#EAB649" stroke="#000000" stroke-width="2" stroke-linecap="square" stroke-miterlimit="10" d="  M471.901,363.14c-14.879,3.253-42.255-22.166-24-35.25C465.639,315.177,481.183,350.06,471.901,363.14z"/>
<path fill-rule="evenodd" clip-rule="evenodd" fill="#DFF3FD" stroke="#000000" stroke-width="2" stroke-linecap="square" stroke-miterlimit="10" d="  M202.651,404.39c40.852-27.999,93.187-53.977,144-47.625c21.345,2.668,41.541,36.202,55.268,50.682  c25.577,26.982,51.155,53.963,76.732,80.945c-49.322,14.271-114.737,31.208-152.25,68.25  C285.151,505.891,243.901,455.141,202.651,404.39z"/>
<path fill-rule="evenodd" clip-rule="evenodd" fill="#00AEEF" d="M200.401,405.89c9.898,25.575,37.495,49.812,54.836,71.196  c11.259,13.884,50.436,81.066,68.164,84.056c18.968,3.198,65.951-29.506,84.282-37.224c23.254-9.791,48.752-23.261,73.968-25.776  c-1-3.25-2-6.5-3-9.75c-40.403,15.158-126.045,28.984-150,68.25c-22.166-26.784-44.332-53.568-66.499-80.354  C247.325,458.371,220.371,412.313,200.401,405.89z"/>
<path fill="none" stroke="#000000" stroke-width="2" stroke-linecap="square" stroke-miterlimit="10" d="M200.401,405.89  c9.898,25.575,37.495,49.812,54.836,71.196c11.259,13.884,50.436,81.066,68.164,84.056c18.968,3.198,65.951-29.506,84.282-37.224  c23.254-9.791,48.752-23.261,73.968-25.776c-1-3.25-2-6.5-3-9.75c-40.403,15.158-126.045,28.984-150,68.25  c-42-50.751-84-101.501-126-152.252"/>
<path fill-rule="evenodd" clip-rule="evenodd" fill="#FFF200" stroke="#000000" stroke-width="2" stroke-linecap="square" stroke-miterlimit="10" d="  M316.651,449.392c-8.209,6.613-15.155,2.844-14.25,17.25c-11.676-7.045-8.552-5.734-21.75-8.25c3.319-13.011,3.075-8.92,1.5-22.5  c14.133-0.968,9.264,0.318,21.75-6C302.48,443.601,309.458,441.522,316.651,449.392z"/>
<path fill-rule="evenodd" clip-rule="evenodd" fill="#FFF200" stroke="#000000" stroke-width="2" stroke-linecap="square" stroke-miterlimit="10" d="  M444.151,470.392c-10.618,1.736-15.865,7.988-15.75,18.75c-5.158-9.888-12.932-12.578-23.25-8.25  c7.907-7.807,8.413-16.056,1.5-24.75c9.911,4.699,17.9,2.405,24-6.75C429.243,460.242,433.703,467.27,444.151,470.392z"/>
<path fill-rule="evenodd" clip-rule="evenodd" fill="#BCBEC0" stroke="#000000" stroke-width="2" stroke-linecap="square" stroke-miterlimit="10" d="  M225.151,409.64c10.845,13.015,16.182,31.09,31.944,20.891c12.84-8.309,26.559-15.238,40.431-21.641  c23.994-11.074,53.451-17.366,79.125-9c-23.218-27.198-30.704-35.428-66.75-30C278.344,374.642,249.399,389.048,225.151,409.64z"/>
<path fill-rule="evenodd" clip-rule="evenodd" fill="#EAB649" stroke="#000000" stroke-width="2" stroke-linecap="square" stroke-miterlimit="10" d="  M351.151,455.392c-21.273,9.801-9.451,48.755-33.75,65.25c3.25,3.5,6.5,7,9.75,10.5c3.18-1.083,9.444-3.632,9.75-3.75  c-1.292-14.467,9.788-32.389,10.5-51c7.896,15.791,15.791,31.582,23.687,47.373c2.425,4.851,35.958-12.466,42.313-15.123  c-12.014-15.378-45.516-40.986-28.611-55.777c8.096-7.085-13.524-46.792-23.139-47.725c0,2.5,0,5,0,7.5c-1.75-0.5-3.5-1-5.25-1.5  C372.661,429.762,379.314,446.242,351.151,455.392z"/>
<path fill-rule="evenodd" clip-rule="evenodd" fill="#EAB649" stroke="#000000" stroke-width="2" stroke-linecap="square" stroke-miterlimit="10" d="  M357.901,453.142c-14.704,3.344-41.799-23.115-23.25-35.252C352.939,405.924,367.978,440.422,357.901,453.142z"/>
<path fill-rule="evenodd" clip-rule="evenodd" fill="#DFF3FD" stroke="#000000" stroke-width="2" stroke-linecap="square" stroke-miterlimit="10" d="  M341.401,419.39c36.889-22.252,100.598-64.206,146.25-46.5c21.856,8.477,40.72,37.903,56.791,54.754  c24.319,25.5,48.64,50.999,72.959,76.498c-50.298,14.184-114.582,30.892-153,68.25C423.401,521.391,382.401,470.391,341.401,419.39z  "/>
<path fill-rule="evenodd" clip-rule="evenodd" fill="#00AEEF" d="M339.151,421.64c6.92,24.784,37.723,51.019,54.086,71.197  c11.469,14.143,50.121,80.788,68.164,84.055c18.916,3.424,66.703-29.412,84.768-37.224c23.164-10.018,48.336-22.82,73.482-25.776  c-0.75-3.25-1.5-6.5-2.25-9.75c-40.941,12.645-124.712,29.848-150,67.5c-22.166-26.784-44.332-53.568-66.499-80.354  C387.999,475.697,356.113,423.685,339.151,421.64z"/>
<path fill="none" stroke="#000000" stroke-width="2" stroke-linecap="square" stroke-miterlimit="10" d="M339.151,421.64  c6.92,24.784,37.723,51.019,54.086,71.197c11.469,14.143,50.121,80.788,68.164,84.055c18.916,3.424,66.703-29.412,84.768-37.224  c23.164-10.018,48.336-22.82,73.482-25.776c-0.75-3.25-1.5-6.5-2.25-9.75c-40.941,12.645-124.712,29.848-150,67.5  c-42-50.751-84-101.501-126-152.252"/>
<path fill-rule="evenodd" clip-rule="evenodd" fill="#FFF200" stroke="#000000" stroke-width="2" stroke-linecap="square" stroke-miterlimit="10" d="  M454.651,464.392c-8.117,6.964-15.027,3.822-14.25,18c-11.533-7.306-7.606-5.673-21-8.25c2.3-12.443,2.323-10.01,0.75-22.5  c14.161-0.969,9.246,0.592,21.75-6C440.332,459.457,447.298,456.927,454.651,464.392z"/>
<path fill-rule="evenodd" clip-rule="evenodd" fill="#FFF200" stroke="#000000" stroke-width="2" stroke-linecap="square" stroke-miterlimit="10" d="  M582.151,485.392c-10.617,2.22-15.646,8.698-15,19.5c-5.325-9.415-13.057-12.473-23.25-9c7.27-8.012,7.491-16.263,0.75-24.75  c9.777,4.707,17.812,2.813,24-6C567.436,475.685,571.948,482.426,582.151,485.392z"/>
<path fill-rule="evenodd" clip-rule="evenodd" fill="#BCBEC0" stroke="#000000" stroke-width="2" stroke-linecap="square" stroke-miterlimit="10" d="  M363.151,425.392c10.845,13.015,16.182,31.088,31.944,20.889c13.19-8.535,26.347-15.44,40.806-21.64  c24-10.291,53.276-18.967,78.75-9.001c-23.667-27.725-29.758-35.366-66-30C416.514,390.398,387.917,404.354,363.151,425.392z"/>
<path fill-rule="evenodd" clip-rule="evenodd" fill="#EAB649" stroke="#000000" stroke-width="2" stroke-linecap="square" stroke-miterlimit="10" d="  M489.151,471.142c-22.429,10.333-6.988,48.998-33,64.5c3,3.75,6,7.5,9,11.25c3.668-1.205,9.195-3.285,10.5-3.75  c-1.884-15.36,9.061-33.46,10.5-51.75c7.896,15.791,15.791,31.582,23.687,47.373c2.439,4.878,35.255-11.803,41.563-14.373  c-11.622-15.18-44.35-40.907-28.417-55.777c8.156-7.612-13.105-46.924-22.583-48.475c-3.199,2.897-3.637,4.088-6,6.002  C510.451,444.069,517.606,461.626,489.151,471.142z"/>
<path fill-rule="evenodd" clip-rule="evenodd" fill="#EAB649" stroke="#000000" stroke-width="2" stroke-linecap="square" stroke-miterlimit="10" d="  M496.651,468.142c-16.195,5.443-41.048-23.009-23.25-34.5C490.657,422.501,507.135,455.353,496.651,468.142z"/>
</svg>