<svg xmlns="http://www.w3.org/2000/svg" xmlns:xlink="http://www.w3.org/1999/xlink" version="1.1" id="Layer_1" x="0px" y="0px" enable-background="new 0 0 822.05 841.89" xml:space="preserve" viewBox="202.35 268.51 415.25 304.79">
<path fill-rule="evenodd" clip-rule="evenodd" fill="#DFF3FD" stroke="#000000" stroke-width="2" stroke-linecap="square" stroke-miterlimit="10" d="  M207.104,341.39c59.055-38.962,137.98-82.003,211.5-69.75c33.381,5.563,66.541,59.68,88.438,82.753  c35.271,37.166,70.542,74.331,105.812,111.497c-67.961,20.911-177.567,42.116-224.25,100.5  C328.104,491.39,267.604,416.39,207.104,341.39z"/>
<path fill-rule="evenodd" clip-rule="evenodd" fill="#00AEEF" d="M203.354,344.39c7.652,35.441,57.854,76.94,80.386,104.636  c33.338,40.979,66.677,81.957,100.015,122.936c5.501,6.761,204.792-88.839,232.849-92.571c-1.25-4.5-2.5-9-3.75-13.5  c-42.69,13.874-84.795,29.224-126.583,45.611c-30.046,11.782-75.934,24.32-93.917,53.389  c-32.062-38.683-64.125-77.365-96.187-116.047C281.973,431.717,222.508,340.837,203.354,344.39z"/>
<path fill="none" stroke="#000000" stroke-width="2" stroke-linecap="square" stroke-miterlimit="10" d="M203.354,344.39  c7.652,35.441,57.854,76.94,80.386,104.636c33.338,40.979,66.677,81.957,100.015,122.936c5.501,6.761,204.792-88.839,232.849-92.571  c-1.25-4.5-2.5-9-3.75-13.5c-42.69,13.874-84.795,29.224-126.583,45.611c-30.046,11.782-75.934,24.32-93.917,53.389  c-61.75-74.5-123.5-149-185.25-223.5"/>
<path fill-rule="evenodd" clip-rule="evenodd" fill="#FFF200" stroke="#000000" stroke-width="2" stroke-linecap="square" stroke-miterlimit="10" d="  M373.604,407.39c-14.236,2.033-22.059,11.911-21,26.25c-5.957-13.038-17.511-17.49-30.75-12c10.426-9.925,11.141-22.301,1.5-33  c12.713,6.435,24.828,3.166,32.25-9C352.85,393.747,359.599,404.158,373.604,407.39z"/>
<path fill-rule="evenodd" clip-rule="evenodd" fill="#FFF200" stroke="#000000" stroke-width="2" stroke-linecap="square" stroke-miterlimit="10" d="  M561.854,438.89c-15.923,1.448-24.702,11.823-23.25,27.75c-6.873-13.681-19.53-18.423-33.75-12.75  c11.268-10.864,11.979-24.365,1.5-36c13.919,7.428,27.14,3.782,35.25-9.75C539.236,423.443,546.892,434.91,561.854,438.89z"/>
<path fill-rule="evenodd" clip-rule="evenodd" fill="#BCBEC0" stroke="#000000" stroke-width="2" stroke-linecap="square" stroke-miterlimit="10" d="  M239.354,349.64c10.391,12.516,20.781,25.032,31.172,37.548c3.604,4.341,15.836-7.97,20.578-9.798  c21.477-8.278,40.371-23.899,62.25-32.25c33.723-12.872,73.646-22.88,108.75-9.75c-36.998-42.69-47.882-52.52-104.25-43.125  C313.062,299.73,274.51,321.821,239.354,349.64z"/>
<path fill-rule="evenodd" clip-rule="evenodd" fill="#EAB649" stroke="#000000" stroke-width="2" stroke-linecap="square" stroke-miterlimit="10" d="  M424.604,417.14c-32.946,9.115-10.35,75.699-49.5,95.25c2.507,5.103,9.494,13.407,14.25,16.5c3-3.75,6-7.5,9-11.25  c2,1.75,4,3.5,6,5.25c-1.462-20.664,11.429-49.561,15-75.75c11.965,23.686,23.93,47.37,35.895,71.056  c2.085,4.129,53.227-19.909,60.855-23.056c-13.17-16.959-63.789-62.64-46.125-78c14.38-12.504-10.96-75.045-29.625-74.25  c0,3.5,0,7,0,10.5c-2.75-0.75-5.5-1.5-8.25-2.25c9.86,10.589,15.649,22.827,21.806,39.028  C460.163,406.624,438.222,409.943,424.604,417.14z"/>
<path fill-rule="evenodd" clip-rule="evenodd" fill="#EAB649" stroke="#000000" stroke-width="2" stroke-linecap="square" stroke-miterlimit="10" d="  M435.104,413.39c-24.933,10.27-58.818-35.793-34.5-51.75C424.657,345.857,454.161,394.306,435.104,413.39z"/>
</svg>