<svg xmlns="http://www.w3.org/2000/svg" xmlns:xlink="http://www.w3.org/1999/xlink" version="1.1" id="Layer_1" x="0px" y="0px" enable-background="new 0 0 822.05 841.89" xml:space="preserve" viewBox="197.82 249.39 425.37 349.37">
<path fill-rule="evenodd" clip-rule="evenodd" fill="#ED1C24" stroke="#000000" stroke-width="2" stroke-linecap="square" stroke-miterlimit="10" d="  M318.5,332.841c-19.25,29.5-38.5,59-57.75,88.5c49.74,21.867,106.347,30.828,156.75,5.627c20.159-10.08-15.651-49.995-26.917-65.016  C366.795,330.235,358.65,331.457,318.5,332.841z"/>
<path fill-rule="evenodd" clip-rule="evenodd" fill="#6D6F71" stroke="#000000" stroke-width="2" stroke-linecap="square" stroke-miterlimit="10" d="  M342.5,313.341c38.079,8.693,53.312,5.242,85.5-15.75c2.5,4,5,8,7.5,12c-22.275,11.34-37.33,20.909-62.148,21.486  c-18.804,0.438-22.055,36.329-16.826,53.366c8.014,26.111,12.553,55.557,30.224,70.65c6.942,5.929,17.689-10.606,22.5,12.75  c-20.125,0-38.779,8.187-45-12.422c-6.75-22.36-13.5-44.72-20.25-67.08c-6.335,21.458-12.67,42.916-19.005,64.374  c-6.374,21.589-16.554,12.736-37.995,9.878c3.733-11.509,16.239-14.073,25.5-6.75c9.219-44.421,16.494-79.576,12.75-124.502  c-20.558,2.418-69.388,6.908-57-30.75C290.214,325.693,310.059,331.266,342.5,313.341z"/>
<path fill-rule="evenodd" clip-rule="evenodd" fill="#FFFFFF" stroke="#000000" stroke-width="2" stroke-linecap="square" stroke-miterlimit="10" d="  M332,318.591c-1.506,9.724-3.577,42.643,12.75,42C357.6,360.085,366.157,293.995,332,318.591z"/>
<path fill="none" stroke="#000000" stroke-width="2" stroke-linecap="square" stroke-miterlimit="10" d="M346.25,327.591  C341.386,327.591,341.386,327.591,346.25,327.591L346.25,327.591z"/>
<path fill="none" stroke="#000000" stroke-width="2" stroke-linecap="square" stroke-miterlimit="10" d="M344.75,344.091  C340.731,343.413,340.888,343.439,344.75,344.091L344.75,344.091z"/>
<path fill-rule="evenodd" clip-rule="evenodd" fill="#E4BE9D" stroke="#000000" stroke-width="2" stroke-linecap="square" stroke-miterlimit="10" d="  M428,297.591c5.211-7.175,11.855-3.854,12.75-15c3.25,1.5,6.5,3,9.75,4.5c-1.75,3.25-3.5,6.5-5.25,9.75  c10.975-2.528,14.729,0.052,24-6.75C479.119,314.746,437.334,318.979,428,297.591z"/>
<path fill-rule="evenodd" clip-rule="evenodd" fill="#6D6F71" d="M248,314.091c-13.618,1.523-32.948,4.448-43.125,14.625  c-13.758,13.758-1.773,16.369,13.125,9.375c0,19.522-7.721,38.562,10.5,44.25c6.996,2.184,25.128-2.038,30-8.25  c13.29-16.946-12.716-23.751-15-42.75C242.849,325.928,272.221,307.147,248,314.091z"/>
<path fill="none" stroke="#000000" stroke-width="2" stroke-linecap="square" stroke-miterlimit="10" d="M248,314.091  c-13.618,1.523-32.948,4.448-43.125,14.625c-13.758,13.758-1.773,16.369,13.125,9.375c0,19.522-7.721,38.562,10.5,44.25  c6.996,2.184,25.128-2.038,30-8.25c13.29-16.946-12.716-23.751-15-42.75c-0.896-7.451,29.991-18.762,3.75-19.5"/>
<path fill-rule="evenodd" clip-rule="evenodd" fill="#E4BE9D" stroke="#000000" stroke-width="2" stroke-linecap="square" stroke-miterlimit="10" d="  M356,288.591c0.361,33.788-28.57,33.401-28.5,0C327.57,255.516,356.268,255.431,356,288.591z"/>
<path fill-rule="evenodd" clip-rule="evenodd" fill="#E4BE9D" stroke="#000000" stroke-width="2" stroke-linecap="square" stroke-miterlimit="10" d="  M327.5,288.591c-0.99,1.417-5.818,2.104-7.5,3.75c2.328,2.958,4.002,4.374,7.5,6C327.5,295.091,327.5,291.841,327.5,288.591z"/>
<path fill-rule="evenodd" clip-rule="evenodd" fill="#E4BE9D" stroke="#000000" stroke-width="2" stroke-linecap="square" stroke-miterlimit="10" d="  M356,288.591c0,3,0,6,0,9C368.887,293.057,359.83,293.56,356,288.591z"/>
<path fill-rule="evenodd" clip-rule="evenodd" fill="#6C5635" stroke="#000000" stroke-width="2" stroke-linecap="square" stroke-miterlimit="10" d="  M343.25,271.341c-7.563,11.863-17.448,25.61-26.25,9.75c-2.25,2.25-4.5,4.5-6.75,6.75c3.377-14.685,3.028-10.159-2.25-19.5  c26.17-10.233,27.307-23.184,57.75-15.75c-5.171,11.37-2.023,23.774-0.75,37.5C356.537,286.243,348.76,279.409,343.25,271.341z"/>
<path fill-rule="evenodd" clip-rule="evenodd" fill="#E4BE9D" stroke="#000000" stroke-width="2" stroke-linecap="square" stroke-miterlimit="10" d="  M267.5,304.341c-10.014-5.32-18.838-4.61-25.5,3.75c4.638-0.004,10.91,3.907,15.75,3.75c-9.388,5.801-5.2,9.556-16.5,9  C253.468,338.223,269.74,321.786,267.5,304.341z"/>
<path fill-rule="evenodd" clip-rule="evenodd" fill="#ED1C24" stroke="#000000" stroke-width="2" stroke-linecap="square" stroke-miterlimit="10" d="  M470.75,342.591c-19.25,29.25-38.5,58.501-57.75,87.752c53.659,26.578,114.512,29.3,167.25,0  c-14.526-23.221-27.771-48.93-45.75-69.752C513.884,336.713,502.563,340.917,470.75,342.591z"/>
<path fill-rule="evenodd" clip-rule="evenodd" fill="#6D6F71" stroke="#000000" stroke-width="2" stroke-linecap="square" stroke-miterlimit="10" d="  M494.75,323.091c38.235,9.324,53.358,4.7,85.5-16.5c2.25,4.25,4.5,8.5,6.75,12.75c-22.527,11.681-36.695,21-61.884,21  c-19.265,0-21.596,35.873-16.34,53.167c3.917,12.889,12.68,68.411,25.724,70.584c11.793,1.966,21.689-8.367,27,12.75  c-19.994,0-38.761,8.168-45-12.305c-6.75-22.149-13.5-44.298-20.25-66.447c-6.335,21.254-12.67,42.508-19.005,63.761  c-6.364,21.351-16.65,12.863-37.995,10.491c3.259-11.977,15.495-14.223,24.75-6.75c9.219-44.421,16.494-79.576,12.75-124.502  c-20.995,2.52-69.462,6.296-57-31.5C442.896,335.132,460.889,338.869,494.75,323.091z"/>
<path fill-rule="evenodd" clip-rule="evenodd" fill="#FFFFFF" stroke="#000000" stroke-width="2" stroke-linecap="square" stroke-miterlimit="10" d="  M484.25,327.591c-1.845,9.488-3.662,43.515,12.75,42.75C508.308,369.814,518.635,305.174,484.25,327.591z"/>
<path fill="none" stroke="#000000" stroke-width="2" stroke-linecap="square" stroke-miterlimit="10" d="M497.75,337.341  C493.537,336.699,493.747,336.731,497.75,337.341L497.75,337.341z"/>
<path fill="none" stroke="#000000" stroke-width="2" stroke-linecap="square" stroke-miterlimit="10" d="M497,353.091  C492.066,353.299,492.218,353.293,497,353.091L497,353.091z"/>
<path fill-rule="evenodd" clip-rule="evenodd" fill="#E4BE9D" stroke="#000000" stroke-width="2" stroke-linecap="square" stroke-miterlimit="10" d="  M580.25,306.591c4.699-6.543,10.784-4.729,12.75-14.25c3.25,1.25,6.5,2.5,9.75,3.75c-1.75,3.5-3.5,7-5.25,10.5  c10.977-2.55,14.25,0.172,23.25-6.75C630.466,324.114,588.321,329.571,580.25,306.591z"/>
<path fill-rule="evenodd" clip-rule="evenodd" fill="#6D6F71" d="M400.25,323.841c-13.437,0.766-33.031,3.781-43.125,13.875  c-13.448,13.448-2.691,16.378,12.375,10.125c0,20.378-7.969,38.758,11.25,44.25c9.708,2.774,24.699-3.699,31.5-10.5  c14.864-14.864-28.442-33.556-11.25-45.375C414.992,326.596,408.917,321.205,400.25,323.841z"/>
<path fill="none" stroke="#000000" stroke-width="2" stroke-linecap="square" stroke-miterlimit="10" d="M400.25,323.841  c-13.437,0.766-33.031,3.781-43.125,13.875c-13.448,13.448-2.691,16.378,12.375,10.125c0,20.378-7.969,38.758,11.25,44.25  c7.503,2.144,25.054-2.449,30-9c13.339-17.666-14.314-23.481-15.75-42.75c-0.494-6.63,30.217-18.187,4.5-18.75"/>
<path fill-rule="evenodd" clip-rule="evenodd" fill="#E4BE9D" stroke="#000000" stroke-width="2" stroke-linecap="square" stroke-miterlimit="10" d="  M507.5,298.341c2.377,33.125-27.75,33.278-27.75,0S509.877,265.216,507.5,298.341z"/>
<path fill-rule="evenodd" clip-rule="evenodd" fill="#E4BE9D" stroke="#000000" stroke-width="2" stroke-linecap="square" stroke-miterlimit="10" d="  M479.75,298.341c-3.968,4.898-13.275,3.366,0,9.75C479.75,304.841,479.75,301.591,479.75,298.341z"/>
<path fill-rule="evenodd" clip-rule="evenodd" fill="#E4BE9D" stroke="#000000" stroke-width="2" stroke-linecap="square" stroke-miterlimit="10" d="  M507.5,298.341c0,2.75,0,5.5,0,8.25c3.363-0.932,5.602-1.564,8.25-3.75C513.516,299.54,509.588,300.703,507.5,298.341z"/>
<path fill-rule="evenodd" clip-rule="evenodd" fill="#6C5635" stroke="#000000" stroke-width="2" stroke-linecap="square" stroke-miterlimit="10" d="  M494.75,281.091c-7.729,12.158-17.35,26.049-25.5,9c-2.5,2.25-5,4.5-7.5,6.75c4.672-15.337,3.796-9.379-2.25-19.5  c27.234-8.958,27.073-21.932,58.5-15c-6.494,11.239-1.234,22.132-1.5,36.75C507.973,296.112,500.028,289.313,494.75,281.091z"/>
<path fill-rule="evenodd" clip-rule="evenodd" fill="#E4BE9D" stroke="#000000" stroke-width="2" stroke-linecap="square" stroke-miterlimit="10" d="  M419.75,313.341c-9.789-4.595-18.608-3.75-25.5,3.75c4.85,0.14,10.073,4.466,15,4.5c-9.756,5.966-6.049,6.741-15.75,8.25  C405.54,347.928,421.629,329.752,419.75,313.341z"/>
<path fill-rule="evenodd" clip-rule="evenodd" fill="#ED1C24" stroke="#000000" stroke-width="2" stroke-linecap="square" stroke-miterlimit="10" d="  M373.25,461.093c-19.25,29.5-38.5,59-57.75,88.5c51.568,24.865,117.403,31.668,167.25-0.75c-14.498-23.306-28.355-49.015-46.5-69.75  C415.803,455.727,405.092,459.976,373.25,461.093z"/>
<path fill-rule="evenodd" clip-rule="evenodd" fill="#6D6F71" stroke="#000000" stroke-width="2" stroke-linecap="square" stroke-miterlimit="10" d="  M397.25,441.593c37.841,9.228,53.382,4.751,85.5-15.75c2.25,4,4.5,8,6.75,12c-22.349,11.588-36.897,20.918-61.884,21.486  c-19.164,0.436-21.65,36.064-16.34,53.365c7.736,25.205,12.272,55.758,29.474,70.648c7.358,6.37,18.077-10.902,23.25,12.75  c-20.165,0-39.553,8.37-45.633-12.422c-6.539-22.359-13.078-44.719-19.617-67.078c-5.421,18.361-10.842,36.723-16.263,55.084  c-7.078,23.973-3.747,24.098-28.857,20.75c-26.318-3.509,1.561-17.521,12.87-8.334c9.147-44.073,16.534-79.1,12.75-123.75  c-20.582,2.059-69.03,5.409-57-31.5C344.743,453.663,364.628,459.618,397.25,441.593z"/>
<path fill-rule="evenodd" clip-rule="evenodd" fill="#FFFFFF" stroke="#000000" stroke-width="2" stroke-linecap="square" stroke-miterlimit="10" d="  M386.75,446.843c-1.901,9.757-3.572,41.787,12,42C410.934,489.01,420.41,422.255,386.75,446.843z"/>
<path fill="none" stroke="#000000" stroke-width="2" stroke-linecap="square" stroke-miterlimit="10" d="M400.25,455.843  C396.16,455.843,396.16,455.843,400.25,455.843L400.25,455.843z"/>
<path fill="none" stroke="#000000" stroke-width="2" stroke-linecap="square" stroke-miterlimit="10" d="M398.75,472.343  C395.229,472.145,394.868,472.125,398.75,472.343L398.75,472.343z"/>
<path fill-rule="evenodd" clip-rule="evenodd" fill="#E4BE9D" stroke="#000000" stroke-width="2" stroke-linecap="square" stroke-miterlimit="10" d="  M482.75,425.843c4.735-6.884,11.11-4.777,12.75-15.002c3.25,1.5,6.5,3,9.75,4.5c-1.75,3.25-3.5,6.501-5.25,9.752  c10.979-2.551,14.248,0.17,23.25-6.752C532.974,442.633,491.419,447.679,482.75,425.843z"/>
<path fill-rule="evenodd" clip-rule="evenodd" fill="#6D6F71" d="M302.75,442.343c-13.557,1.216-33.767,4.517-43.875,14.625  c-13.649,13.649-0.942,15.947,13.125,9.375c0,20.39-7.964,38.745,11.25,44.25c9.139,2.618,24.895-3.145,31.5-9.75  c14.402-14.402-27.863-32.76-11.625-45.75C316.214,444.622,312.25,439.389,302.75,442.343z"/>
<path fill="none" stroke="#000000" stroke-width="2" stroke-linecap="square" stroke-miterlimit="10" d="M302.75,442.343  c-13.557,1.216-33.767,4.517-43.875,14.625c-13.649,13.649-0.942,15.947,13.125,9.375c0,20.39-7.964,38.745,11.25,44.25  c6.891,1.975,25.396-2.001,30-8.25c12.53-17.008-14.538-24.578-15.75-42.75c-0.501-7.51,30.047-19.099,4.5-19.5"/>
<path fill-rule="evenodd" clip-rule="evenodd" fill="#E4BE9D" stroke="#000000" stroke-width="2" stroke-linecap="square" stroke-miterlimit="10" d="  M410,416.841c2.859,33.627-28.06,34.167-27.75,0C382.551,383.686,412.42,383.944,410,416.841z"/>
<path fill-rule="evenodd" clip-rule="evenodd" fill="#E4BE9D" stroke="#000000" stroke-width="2" stroke-linecap="square" stroke-miterlimit="10" d="  M382.25,416.841c-3.908,5.026-13.417,3.968,0,9.752C382.25,423.342,382.25,420.092,382.25,416.841z"/>
<path fill-rule="evenodd" clip-rule="evenodd" fill="#E4BE9D" stroke="#000000" stroke-width="2" stroke-linecap="square" stroke-miterlimit="10" d="  M410,416.841c0,3,0,6.001,0,9.002c3.421-1.032,5.629-2.048,8.25-4.502C416.204,419.603,411.466,418.667,410,416.841z"/>
<path fill-rule="evenodd" clip-rule="evenodd" fill="#6C5635" stroke="#000000" stroke-width="2" stroke-linecap="square" stroke-miterlimit="10" d="  M397.25,399.591c-7.132,12.009-17.189,25.69-25.5,9.75c-2.5,2.25-5,4.5-7.5,6.75c4.609-15.629,3.844-9.849-2.25-19.5  c25.765-10.643,27.89-23.228,57.75-15.75c-5.629,11.784-1.081,23.017-0.75,37.5C410.537,414.493,402.76,407.659,397.25,399.591z"/>
<path fill-rule="evenodd" clip-rule="evenodd" fill="#E4BE9D" stroke="#000000" stroke-width="2" stroke-linecap="square" stroke-miterlimit="10" d="  M321.5,432.593c-9.766-5.284-18.298-4.548-24.75,3.75c4.668,0.049,10.169,3.859,15,3.75c-8.992,5.537-6.51,7.159-15.75,9  C307.979,466.625,323.651,449.533,321.5,432.593z"/>
</svg>