<svg xmlns="http://www.w3.org/2000/svg" xmlns:xlink="http://www.w3.org/1999/xlink" version="1.1" id="Layer_1" x="0px" y="0px" enable-background="new 0 0 822.05 841.89" xml:space="preserve" viewBox="325.6 344.67 168.6 153.19">
<path fill-rule="evenodd" clip-rule="evenodd" fill="#F0F2F2" d="M393.006,353.64c-55.317-21.302-90.588,61.876-35.25,84.75  C412.845,461.161,446.888,378.508,393.006,353.64z"/>
<path fill-rule="evenodd" clip-rule="evenodd" fill="#D3E3E4" d="M378.006,367.89C379.938,418.155,408.063,326.356,378.006,367.89  L378.006,367.89z"/>
<path fill-rule="evenodd" clip-rule="evenodd" fill="#D3E3E4" d="M409.506,408.39C387.012,430.162,400.5,379.4,409.506,408.39  L409.506,408.39z"/>
<path fill-rule="evenodd" clip-rule="evenodd" fill="#F81D0D" stroke="#000000" stroke-linecap="square" stroke-miterlimit="10" d="  M420.756,444.39c14.062-26.925,81.683,34.597,72,49.5C480.899,512.14,429.649,452.728,420.756,444.39z"/>
<path fill-rule="evenodd" clip-rule="evenodd" fill="#BFBFBF" stroke="#000000" stroke-linecap="square" stroke-miterlimit="10" d="  M432.006,432.39C401.792,392.406,415.897,471.146,432.006,432.39L432.006,432.39z"/>
<path fill-rule="evenodd" clip-rule="evenodd" fill="#BFBFBF" stroke="#000000" stroke-linecap="square" stroke-miterlimit="10" d="  M395.256,349.14c-60.244-24.03-99.313,67.717-39,93C416.539,467.411,453.979,376.847,395.256,349.14z M357.756,438.39  c-54.649-23.999-19.727-107.431,35.25-84.75C448.154,376.392,411.61,463.271,357.756,438.39z"/>
</svg>