<svg xmlns="http://www.w3.org/2000/svg" xmlns:xlink="http://www.w3.org/1999/xlink" version="1.1" id="Layer_1" x="0px" y="0px" enable-background="new 0 0 822.05 841.89" xml:space="preserve" viewBox="229.95 248.96 362.72 345.13">
<path fill-rule="evenodd" clip-rule="evenodd" fill="#DFF3FD" stroke="#000000" stroke-width="2" stroke-linecap="square" stroke-miterlimit="10" d="  M500.5,374.46c-18.257,1.374-68.887,16.274-70.554-5.013c-2.982-38.079-5.964-76.158-8.946-114.237c23.5-1.75,47-3.5,70.5-5.25  C494.5,291.46,497.5,332.96,500.5,374.46z"/>
<path fill-rule="evenodd" clip-rule="evenodd" fill="#DFF3FD" stroke="#000000" stroke-width="2" stroke-linecap="square" stroke-miterlimit="10" d="  M426.25,419.46c-18.304,0-70.5,11.066-70.5-10.263c0-18.7-12.227-102.088,0-114.237c9.188-9.128,70.5-5.728,70.5,10.263  C426.25,343.302,426.25,381.381,426.25,419.46z"/>
<path fill-rule="evenodd" clip-rule="evenodd" fill="#DFF3FD" stroke="#000000" stroke-width="2" stroke-linecap="square" stroke-miterlimit="10" d="  M520.75,399.21c-15.867,9.207-55.166,44.825-65.943,26.349c-19.269-33.033-38.538-66.065-57.807-99.099  c15.867-9.207,55.166-44.823,65.943-26.347C482.212,333.146,501.481,366.178,520.75,399.21z"/>
<path fill-rule="evenodd" clip-rule="evenodd" fill="#DFF3FD" stroke="#000000" stroke-width="2" stroke-linecap="square" stroke-miterlimit="10" d="  M418,387.96c-20,11.75-40,23.5-60,35.25c-18.059-30.744-36.119-61.487-54.178-92.231c-16.309-27.764,27.712-36.94,51.178-51.019  C376,315.96,397,351.96,418,387.96z"/>
<path fill-rule="evenodd" clip-rule="evenodd" fill="#DFF3FD" stroke="#000000" stroke-width="2" stroke-linecap="square" stroke-miterlimit="10" d="  M556.75,410.46c-23.5,0.25-47,0.5-70.5,0.75c-0.25-41.75-0.5-83.5-0.75-125.25c18.329,0,70.434-11.07,70.562,10.263  C556.291,334.302,556.521,372.381,556.75,410.46z"/>
<path fill-rule="evenodd" clip-rule="evenodd" fill="#967A66" stroke="#000000" stroke-width="2" stroke-linecap="square" stroke-miterlimit="10" d="  M310,363.96c-5.86,42.193-12.508,84.676-14.444,127.279c-2.316,50.961-6.118,65.934,37.618,93.269  c30.675,19.172,103.995,0.483,138.824-1.235c29.646-1.462,87.764,8.679,111.003-14.561c19.785-19.785,3.263-182.893-24.75-197.252  c-9.587-4.914-48.598,5.914-60.588,7.056c-22.717,2.164-45.417,3.444-68.245,3.444C388.374,381.96,349.943,371.949,310,363.96z"/>
<path fill="none" stroke="#000000" stroke-width="2" stroke-linecap="square" stroke-miterlimit="10" d="M339.25,371.46  c-3.524,39.643-6.193,79.253-6.944,119.058c-0.494,26.177-9.461,79.277,9.194,99.194"/>
<path fill-rule="evenodd" clip-rule="evenodd" fill="#967A66" stroke="#000000" stroke-width="2" stroke-linecap="square" stroke-miterlimit="10" d="  M301,408.21c-3.001,25.724-5.618,40.356-16.5,62.252c-9.608,19.331-24,38.941-24,61.5c0,24.591,19.572,27,40.125,27  c77.87,0,53.038-146.979,43.125-188.252c37.335,8.842,32.829,24.885,37.333,60.919c3.713,29.709,5.327,61.786-0.583,91.333  c-9.529,47.638-33.134,64.376-79.875,68.625c-37.645,3.422-66.579-10.326-69.375-49.875C227.36,486.681,262.345,441.687,301,408.21z  "/>
<path fill-rule="evenodd" clip-rule="evenodd" fill="#967A66" stroke="#000000" stroke-width="2" stroke-linecap="square" stroke-miterlimit="10" d="  M534.25,373.71c20.573,28.091,44.874,61.756,51,96.752c13.315-40.653,0.347-80.165-27.75-111.002  C560.479,374.484,548.378,375.929,534.25,373.71z"/>
</svg>