<svg xmlns="http://www.w3.org/2000/svg" xmlns:xlink="http://www.w3.org/1999/xlink" version="1.1" id="Layer_1" x="0px" y="0px" enable-background="new 0 0 822.05 841.89" xml:space="preserve" viewBox="201.39 258.47 419.32 324.38">
<path fill-rule="evenodd" clip-rule="evenodd" fill="#DFF3FD" stroke="#000000" stroke-width="2" stroke-linecap="square" stroke-miterlimit="10" d="  M562,338.97c-41.453,2.811-43.683,10.453-46.842-31.021c-3.635-47.704-7.281-44.401,40.842-48.479C558,285.97,560,312.47,562,338.97  z"/>
<path fill-rule="evenodd" clip-rule="evenodd" fill="#DFF3FD" stroke="#000000" stroke-width="2" stroke-linecap="square" stroke-miterlimit="10" d="  M514.75,367.47c-12.138,0-45,7.265-45-6.929c0-10.76-7.292-66.32,0-72.571c7.03-6.027,45-3.729,45,6.929  C514.75,319.089,514.75,343.28,514.75,367.47z"/>
<path fill-rule="evenodd" clip-rule="evenodd" fill="#DFF3FD" stroke="#000000" stroke-width="2" stroke-linecap="square" stroke-miterlimit="10" d="  M574.75,353.97c-10.433,6.137-34.482,28.849-41.779,16.552c-12.324-20.767-24.647-41.535-36.971-62.302  c10.433-6.137,34.482-28.849,41.779-16.552C550.104,312.436,562.427,333.203,574.75,353.97z"/>
<path fill-rule="evenodd" clip-rule="evenodd" fill="#DFF3FD" stroke="#000000" stroke-width="2" stroke-linecap="square" stroke-miterlimit="10" d="  M509.5,347.22c-10.433,6.137-34.482,28.849-41.779,16.552c-12.324-20.767-24.647-41.535-36.971-62.302  c10.478-6.044,35.357-28.754,42.464-16.552C485.31,305.686,497.404,326.453,509.5,347.22z"/>
<path fill-rule="evenodd" clip-rule="evenodd" fill="#DFF3FD" stroke="#000000" stroke-width="2" stroke-linecap="square" stroke-miterlimit="10" d="  M597.25,361.47c-14.75,0.25-29.5,0.5-44.25,0.75c-0.25-26.5-0.5-53-0.75-79.5c12.058,0,45-7.222,45,6.863  C597.25,313.546,597.25,337.508,597.25,361.47z"/>
<path fill-rule="evenodd" clip-rule="evenodd" fill="#967A66" stroke="#000000" stroke-width="2" stroke-linecap="square" stroke-miterlimit="10" d="  M441.25,332.22c-7.857,39.415-29.166,113.512,9.996,137.444c23.61,14.428,66.036,3.171,92.699,1.928  c18.165-0.847,55.235,5.699,69.43-8.495c13.325-13.325,4.313-116.24-14.625-126.377c-12.686-6.79-61.324,7.143-77.133,6.633  C493.632,342.45,468.673,335.418,441.25,332.22z"/>
<path fill="none" stroke="#000000" stroke-width="2" stroke-linecap="square" stroke-miterlimit="10" d="M459.25,336.72  c-2.342,33.962-19.454,110.599,1.5,138.752"/>
<path fill-rule="evenodd" clip-rule="evenodd" fill="#967A66" stroke="#000000" stroke-width="2" stroke-linecap="square" stroke-miterlimit="10" d="  M435.25,360.72c-3.16,23.382-54.282,101.85,1.5,94.877c48.131-6.017,30.938-89.955,25.5-119.627  c39.101-2.221,44.063,142.158-30,141.002C358.243,475.816,399.796,387.804,435.25,360.72z"/>
<path fill-rule="evenodd" clip-rule="evenodd" fill="#967A66" stroke="#000000" stroke-width="2" stroke-linecap="square" stroke-miterlimit="10" d="  M583,338.22c14.076,17.993,27.672,39.049,33,61.5c7.51-25.75,0.41-51.192-18-70.5c0.25,2.5,0.5,5,0.75,7.5  C593.512,337.219,588.208,337.476,583,338.22z"/>
<path fill-rule="evenodd" clip-rule="evenodd" fill="#DFF3FD" stroke="#000000" stroke-width="2" stroke-linecap="square" stroke-miterlimit="10" d="  M373.75,366.72c-41.308,2.754-44.396,10.933-47.592-31.021c-3.69-48.43-6.542-44.468,41.592-48.479  C369.75,313.72,371.75,340.22,373.75,366.72z"/>
<path fill-rule="evenodd" clip-rule="evenodd" fill="#DFF3FD" stroke="#000000" stroke-width="2" stroke-linecap="square" stroke-miterlimit="10" d="  M325.75,395.22c-12.097,0-44.25,7.382-44.25-6.929c0-11.655-7.688-65.125,0-72.571c6.227-6.031,44.25-3.916,44.25,6.929  C325.75,346.839,325.75,371.03,325.75,395.22z"/>
<path fill-rule="evenodd" clip-rule="evenodd" fill="#DFF3FD" stroke="#000000" stroke-width="2" stroke-linecap="square" stroke-miterlimit="10" d="  M385.75,381.72c-12.75,7.5-25.5,15-38.25,22.5c-10.831-18.597-21.662-37.193-32.493-55.79c-12.412-21.31,12.238-23.928,30.993-34.96  C359.25,336.22,372.5,358.97,385.75,381.72z"/>
<path fill-rule="evenodd" clip-rule="evenodd" fill="#DFF3FD" stroke="#000000" stroke-width="2" stroke-linecap="square" stroke-miterlimit="10" d="  M321.25,374.97c-5.398,3.114-37.946,24.31-39.926,20.91c-12.633-21.69-25.266-43.38-37.898-65.07  c0.032,0.055,32.728-31.836,40.854-18.142C296.603,333.436,308.927,354.203,321.25,374.97z"/>
<path fill-rule="evenodd" clip-rule="evenodd" fill="#DFF3FD" stroke="#000000" stroke-width="2" stroke-linecap="square" stroke-miterlimit="10" d="  M409,389.22c-12.043,0-44.18,7.34-44.315-6.863c-0.228-23.962-0.457-47.924-0.685-71.887c12.043,0,44.18-7.34,44.315,6.863  C408.543,341.296,408.772,365.258,409,389.22z"/>
<path fill-rule="evenodd" clip-rule="evenodd" fill="#967A66" stroke="#000000" stroke-width="2" stroke-linecap="square" stroke-miterlimit="10" d="  M252.25,359.97c-5.883,40.243-29.09,113.1,10.746,137.444c23.61,14.428,66.037,3.171,92.699,1.928  c18.165-0.847,57.558,6.579,70.555-10.37c10.899-14.213-1.19-126.582-19.833-123.918C351.306,372.927,306.092,365.214,252.25,359.97  z"/>
<path fill="none" stroke="#000000" stroke-width="2" stroke-linecap="square" stroke-miterlimit="10" d="M271,364.47  c-2.437,35.328-19.622,108.817,1.5,138.752"/>
<path fill-rule="evenodd" clip-rule="evenodd" fill="#967A66" stroke="#000000" stroke-width="2" stroke-linecap="square" stroke-miterlimit="10" d="  M247,387.72c-3.086,23.458-54.653,101.824,1.125,95.627c48.173-5.353,31.253-90.274,25.875-119.627  c39.111-2.236,43.576,142.157-30.75,141.002C169.294,503.573,211.502,414.359,247,387.72z"/>
<path fill-rule="evenodd" clip-rule="evenodd" fill="#967A66" stroke="#000000" stroke-width="2" stroke-linecap="square" stroke-miterlimit="10" d="  M394.75,365.97c12.573,18.853,27.893,38.911,32.25,61.502c8.818-24.674,0.764-52.152-17.25-70.502c0.25,2.5,0.5,5,0.75,7.5  C405.262,364.969,399.958,365.226,394.75,365.97z"/>
<path fill-rule="evenodd" clip-rule="evenodd" fill="#DFF3FD" stroke="#000000" stroke-width="2" stroke-linecap="square" stroke-miterlimit="10" d="  M508,443.222c-15,1.25-30,2.5-45,3.75c-2-26.5-4-53.001-6-79.502c12.09-0.806,44.45-10.222,45.522,3.863  C504.349,395.296,506.174,419.259,508,443.222z"/>
<path fill-rule="evenodd" clip-rule="evenodd" fill="#DFF3FD" stroke="#000000" stroke-width="2" stroke-linecap="square" stroke-miterlimit="10" d="  M460,471.722c-12.017,0-44.25,7.341-44.25-6.863c0-11.596-7.635-64.446,0-71.889c6.139-5.984,44.25-3.899,44.25,6.863  C460,423.796,460,447.759,460,471.722z"/>
<path fill-rule="evenodd" clip-rule="evenodd" fill="#DFF3FD" stroke="#000000" stroke-width="2" stroke-linecap="square" stroke-miterlimit="10" d="  M520,458.972c-12.75,7.5-25.5,15-38.25,22.5c-10.831-18.597-21.662-37.194-32.493-55.791  c-12.411-21.311,12.238-23.929,30.993-34.961C493.5,413.471,506.75,436.221,520,458.972z"/>
<path fill-rule="evenodd" clip-rule="evenodd" fill="#DFF3FD" stroke="#000000" stroke-width="2" stroke-linecap="square" stroke-miterlimit="10" d="  M455.5,451.472c-5.397,3.114-37.946,24.31-39.926,20.91c-12.633-21.69-25.266-43.382-37.898-65.072  c0.032,0.055,32.728-31.836,40.854-18.142C430.854,409.937,443.177,430.705,455.5,451.472z"/>
<path fill-rule="evenodd" clip-rule="evenodd" fill="#DFF3FD" stroke="#000000" stroke-width="2" stroke-linecap="square" stroke-miterlimit="10" d="  M543.25,466.472c-6.239,0-45,2.087-45-1.852c0-25.267,0-50.533,0-75.799c0,0.048,44.165-10.83,44.315,5.077  C542.794,418.09,543.021,442.281,543.25,466.472z"/>
<path fill-rule="evenodd" clip-rule="evenodd" fill="#967A66" stroke="#000000" stroke-width="2" stroke-linecap="square" stroke-miterlimit="10" d="  M386.5,436.472c-5.625,41.087-29.186,112.416,10.746,137.928c23.239,14.848,66.196,3.135,92.699,1.762  c19.14-0.992,56.725,6.006,70.555-10.689c11.281-13.617-1.576-125.774-19.833-123.167  C486.893,449.988,439.233,446.987,386.5,436.472z"/>
<path fill="none" stroke="#000000" stroke-width="2" stroke-linecap="square" stroke-miterlimit="10" d="M405.25,441.722  c-4.677,33.573-18.841,110.216,1.5,138.75"/>
<path fill-rule="evenodd" clip-rule="evenodd" fill="#967A66" stroke="#000000" stroke-width="2" stroke-linecap="square" stroke-miterlimit="10" d="  M381.25,464.972c-3.014,22.902-54.634,101.798,0.75,94.875c48.084-6.011,32.429-88.414,25.5-118.875  c38.958-4.197,43.361,134.606-25.125,139.875C304.586,586.831,342.463,491.778,381.25,464.972z"/>
<path fill-rule="evenodd" clip-rule="evenodd" fill="#967A66" stroke="#000000" stroke-width="2" stroke-linecap="square" stroke-miterlimit="10" d="  M529,443.222c13.599,18.213,27.571,38.953,32.25,61.5c8.759-25.659,0.486-51.704-17.25-71.25  C546.245,445.415,539.069,441.863,529,443.222z"/>
</svg>