<svg xmlns="http://www.w3.org/2000/svg" xmlns:xlink="http://www.w3.org/1999/xlink" version="1.1" id="Layer_1" x="0px" y="0px" enable-background="new 0 0 822.05 841.89" xml:space="preserve" viewBox="241.47 250.26 338.18 344">
<path fill-rule="evenodd" clip-rule="evenodd" fill="#F9CBDF" stroke="#000000" stroke-width="2" stroke-linecap="square" stroke-miterlimit="10" d="  M256.722,433.505c-4.69,25.345,32.656,51.015,47.604,67.501c27.198,29.994,54.395,59.989,81.592,89.984  c8.279,9.131,165.444-96.938,185.762-109.272c23.361-14.184-18.66-39.104-28.032-47.031c-34.788-29.42-69.575-58.841-104.363-88.262  C424.349,333.793,280.632,421.65,256.722,433.505z"/>
<path fill="none" stroke="#000000" stroke-width="2" stroke-linecap="square" stroke-miterlimit="10" d="M256.722,433.505  c15.552,16.171,123.253,142.214,134.408,135.884c62.197-35.295,124.395-70.589,186.592-105.884"/>
<line fill="none" stroke="#000000" stroke-width="2" stroke-linecap="square" stroke-miterlimit="10" x1="388.722" y1="570.755" x2="387.972" y2="593.255"/>
<path fill-rule="evenodd" clip-rule="evenodd" fill="#CB97C4" stroke="#000000" stroke-width="2" stroke-linecap="square" stroke-miterlimit="10" d="  M284.472,434.255c11.298,12.404,101.843,120.887,107.993,117.319c52.752-30.606,105.505-61.213,158.257-91.819  c-13.489-11.98-104.591-105.93-114.839-100.831C385.413,384.035,334.942,409.145,284.472,434.255z"/>
<path fill-rule="evenodd" clip-rule="evenodd" fill="#7BD3F7" stroke="#000000" stroke-width="2" stroke-linecap="square" stroke-miterlimit="10" d="  M298.722,438.005c8.91,8.698,25.054,34.192,37.252,27.678c20.083-10.726,40.166-21.452,60.248-32.178  c-8.95-8.502-23.635-31.609-35.883-25.622C339.8,417.924,319.261,427.964,298.722,438.005z"/>
<path fill-rule="evenodd" clip-rule="evenodd" fill="#EC008C" stroke="#000000" stroke-width="2" stroke-linecap="square" stroke-miterlimit="10" d="  M333.222,475.505c8.91,8.698,25.054,34.192,37.252,27.678c20.083-10.726,40.166-21.452,60.248-32.178  c-8.589-8.82-21.475-31.469-33.829-25.624C375.669,455.422,354.445,465.464,333.222,475.505z"/>
<path fill-rule="evenodd" clip-rule="evenodd" fill="#FFDB78" stroke="#000000" stroke-width="2" stroke-linecap="square" stroke-miterlimit="10" d="  M408.972,437.255c8.91,8.698,25.054,34.192,37.252,27.678c20.083-10.726,40.165-21.452,60.248-32.178  c-10.476-9.047-26.156-32-39.708-25.066C447.5,417.544,428.235,427.4,408.972,437.255z"/>
<path fill-rule="evenodd" clip-rule="evenodd" fill="#B4D670" stroke="#000000" stroke-width="2" stroke-linecap="square" stroke-miterlimit="10" d="  M372.972,399.007c9.455,9.454,24.785,35.183,37.896,27.988c18.368-10.08,36.736-20.159,55.104-30.238  c-9.754-8.753-22.804-29.132-35.88-23.286C411.052,381.983,392.012,390.495,372.972,399.007z"/>
<path fill-rule="evenodd" clip-rule="evenodd" fill="#F8E7CA" stroke="#000000" stroke-width="2" stroke-linecap="square" stroke-miterlimit="10" d="  M407.472,502.505c-16.614,6.948-29.464,37.321-3,28.5C420.979,525.503,428.763,508.224,407.472,502.505z"/>
<path fill-rule="evenodd" clip-rule="evenodd" fill="#ECEDED" stroke="#000000" stroke-width="2" stroke-linecap="square" stroke-miterlimit="10" d="  M414.972,504.005c16.967-13.408,68.011-59.359,88.5-36.75c-26.436,9.268-66.031,22.812-83.25,46.5  C418.472,510.505,416.722,507.255,414.972,504.005z"/>
<path fill-rule="evenodd" clip-rule="evenodd" fill="#F8E7CA" stroke="#000000" stroke-width="2" stroke-linecap="square" stroke-miterlimit="10" d="  M493.722,453.755C513.596,503.016,549.652,418.758,493.722,453.755L493.722,453.755z"/>
<path fill-rule="evenodd" clip-rule="evenodd" fill="#F9CBDF" stroke="#000000" stroke-width="2" stroke-linecap="square" stroke-miterlimit="10" d="  M242.472,410.257c1.37,6.359,6.722,12.925,9.75,18.748c19.429-18.535,84.988-56.193,50.25-80.248  C282.472,369.257,262.472,389.757,242.472,410.257z"/>
<path fill-rule="evenodd" clip-rule="evenodd" fill="#F9CBDF" stroke="#000000" stroke-width="2" stroke-linecap="square" stroke-miterlimit="10" d="  M304.722,348.007c71.75-32.25,143.5-64.5,215.25-96.75c35.042,46.9-235.505,164.543-262.5,177.748  C273.92,411.324,335.207,369.404,304.722,348.007z"/>
<line fill="none" stroke="#000000" stroke-width="2" stroke-linecap="square" stroke-miterlimit="10" x1="318.972" y1="365.257" x2="525.972" y2="269.257"/>
</svg>