<svg xmlns="http://www.w3.org/2000/svg" xmlns:xlink="http://www.w3.org/1999/xlink" version="1.1" id="Layer_1" x="0px" y="0px" enable-background="new 0 0 822.05 841.89" xml:space="preserve" viewBox="308.19 334.92 205.25 173">
<path fill-rule="evenodd" clip-rule="evenodd" fill="#EBCBA7" stroke="#000000" stroke-width="1.25" stroke-linecap="square" stroke-miterlimit="10" d="  M343.314,433.042C345.886,468.097,318.746,408.839,343.314,433.042L343.314,433.042z"/>
<path fill-rule="evenodd" clip-rule="evenodd" fill="#EBCBA7" stroke="#000000" stroke-width="1.25" stroke-linecap="square" stroke-miterlimit="10" d="  M420.566,415.794C408.924,449.808,408.243,383.417,420.566,415.794L420.566,415.794z"/>
<path fill-rule="evenodd" clip-rule="evenodd" fill="#EBCBA7" stroke="#000000" stroke-width="1.25" stroke-linecap="square" stroke-miterlimit="10" d="  M415.314,473.542c-8.688-3.182-18.192-17.328-25.219-17.133c-22.754,0.632-23.635,8.417-43.031,14.883  c-21.023,7.008-25.56,33,1.788,33C391.536,504.292,404.137,515.205,415.314,473.542z"/>
<path fill-rule="evenodd" clip-rule="evenodd" fill="#EBCBA7" stroke="#000000" stroke-width="1.25" stroke-linecap="square" stroke-miterlimit="10" d="  M404.064,382.044c-37.931-14.847-55.082-3.503-66.75,31.5c-6.248,18.744,12.593,43.246,30.75,50.248  C425.672,486.007,413.117,412.068,404.064,382.044z"/>
<path fill-rule="evenodd" clip-rule="evenodd" fill="#F7F619" stroke="#000000" stroke-width="1.25" stroke-linecap="square" stroke-miterlimit="10" d="  M433.316,472.042c-25.871-13.31-32.253,25.25-63.002,15c-15.072-5.024-15.617-19.51-30-19.5c-22.479,0.016-27.166,21.94-31.5,39.75  c47.25,0,94.501,0,141.752,0C447.603,494.346,442.6,481.419,433.316,472.042z"/>
<path fill-rule="evenodd" clip-rule="evenodd" d="M371.064,426.292c-2.001,0.859-0.403,6.099-5.25,2.25  C366.349,422.409,369.059,427.154,371.064,426.292z"/>
<path fill-rule="evenodd" clip-rule="evenodd" d="M376.314,424.792c-6.703,1.788-11.794-2.376-13.5,6  C367.116,423.676,370.381,426.79,376.314,424.792z"/>
<path fill-rule="evenodd" clip-rule="evenodd" d="M394.314,421.794C387.91,423.783,388.012,423.751,394.314,421.794L394.314,421.794  z"/>
<path fill-rule="evenodd" clip-rule="evenodd" d="M398.814,420.294c-6.219,1.36-9.792-2.664-14.25,4.498  C388.129,422.043,394.758,421.581,398.814,420.294z"/>
<path fill="none" stroke="#000000" stroke-linecap="square" stroke-miterlimit="10" d="M380.064,433.042  c3.325,2.329,6.228,1.406,8.25-2.25"/>
<path fill-rule="evenodd" clip-rule="evenodd" fill="#724211" stroke="#000000" stroke-width="1.25" stroke-linecap="square" stroke-miterlimit="10" d="  M330.564,404.544c0.637,11.643,4.233,22.846,8.25,33.748c1.39-9.992,3.929-18.245,8.25-28.498c0.456,3.674,1.144,7.43,1.5,11.25  c0.354-3.383,4.479-11.676,5.25-16.5c4.55,4.085,7.963,2.994,12,9.75c-0.565-4.401,0.373-9.138-0.75-13.5  c2.019,4.827,6.385,10.3,8.25,14.25c-0.861-6.637,0.283-13.573-0.75-20.25c5.503,7.144,9.707,17.037,12,24.75  c-0.376-6.876,1.06-14.018,0.75-21c2.706,5.987,6.721,11.055,9,17.25c-0.725-6.374,0.228-14.206-0.75-21  c2.139,6.186,6.501,12.76,8.25,19.5c-0.152-7.201,1.653-14.498,1.5-21.75c2.449,7.523,6.427,13.828,8.25,21.75  C439.963,360.474,327.933,332.538,330.564,404.544z"/>
<path fill="none" stroke="#000000" stroke-linecap="square" stroke-miterlimit="10" d="M370.314,447.292  c11.775,5.757,24.56,0.946,33-9"/>
<path fill-rule="evenodd" clip-rule="evenodd" fill="#F8130D" stroke="#000000" stroke-width="1.25" stroke-linecap="square" stroke-miterlimit="10" d="  M500.066,365.544c4.25-10,8.5-20,12.75-30c-10.25,2.5-20.5,5-30.75,7.5c23.212,25.193-32.05,14.914-40.125,18.375  c-16.505,7.073-22.753,25.713-13.875,41.25c8.146,14.255,28.754,17.078,41.25,7.125c21.519-17.139-3.542-39.176,24.75-51.75  C496.066,360.544,498.066,363.044,500.066,365.544z M453.566,406.794c-24.639,0.389-27.771-36.245-3-38.25  C475.527,366.524,477.337,402.813,453.566,406.794z"/>
</svg>