<svg xmlns="http://www.w3.org/2000/svg" xmlns:xlink="http://www.w3.org/1999/xlink" version="1.1" id="Layer_1" x="0px" y="0px" enable-background="new 0 0 822.05 841.89" xml:space="preserve" viewBox="229.82 247.06 358.3 351.19">
<path fill-rule="evenodd" clip-rule="evenodd" fill="#E4BE9D" stroke="#000000" stroke-width="2" stroke-linecap="square" stroke-miterlimit="10" d="  M553.32,378.246c-55.649,58.069-123.929,155.557-199.502,189.752c8.25,9.75,16.5,19.5,24.75,29.25  c56.497-74.035,135.34-129.092,206.252-188.252C575.428,397.53,567.095,383.812,553.32,378.246z"/>
<path fill-rule="evenodd" clip-rule="evenodd" fill="#AF8977" stroke="#000000" stroke-width="2" stroke-linecap="square" stroke-miterlimit="10" d="  M471.57,423.998c-0.082-16.402,12.79-24.713,23.611-36.736c15.9-17.667,13.229-20.206,32.264-7.516  c19.428,12.952,39.04,31.023,52.5,50.252c22.381,31.973-12.47,41.279-38.03,58.582C535.343,493.029,480.398,432.535,471.57,423.998z  "/>
<path fill-rule="evenodd" clip-rule="evenodd" fill="#E4BE9D" stroke="#000000" stroke-width="2" stroke-linecap="square" stroke-miterlimit="10" d="  M431.07,374.496c-54.236,56.595-124.546,158.065-199.502,189.752c8.25,9.75,16.5,19.5,24.75,29.25  c56.51-74.053,135.286-129.048,206.252-188.252C453.177,393.779,444.695,380.477,431.07,374.496z"/>
<path fill-rule="evenodd" clip-rule="evenodd" fill="#AF8977" stroke="#000000" stroke-width="2" stroke-linecap="square" stroke-miterlimit="10" d="  M349.318,420.246c-0.119-16.307,12.529-24.685,23.174-36.734c15.259-17.274,13.574-20.91,32.326-7.516  c19.302,13.787,39.18,30.679,52.877,50.251c22.319,31.894-13.018,41.651-38.03,58.583  C413.093,489.279,358.146,428.783,349.318,420.246z"/>
<path fill-rule="evenodd" clip-rule="evenodd" fill="#E4BE9D" stroke="#000000" stroke-width="2" stroke-linecap="square" stroke-miterlimit="10" d="  M429.57,254.496c-57.518,60.456-122.562,150.771-198.752,189.752c8,9.75,16,19.5,24,29.25  c37.917-44.394,77.438-80.193,122.032-117.602c27.845-23.359,55.69-46.718,83.536-70.077  C464.63,282.26,435.778,256.863,429.57,254.496z"/>
<path fill-rule="evenodd" clip-rule="evenodd" fill="#AF8977" stroke="#000000" stroke-width="2" stroke-linecap="square" stroke-miterlimit="10" d="  M347.818,300.246c-0.081-16.4,12.791-24.712,23.611-36.734c15.9-17.667,13.228-20.206,32.264-7.516  c19.75,13.167,38.854,30.753,52.502,50.25c22.398,31.998-12.351,41.199-38.03,58.582  C411.592,369.277,356.646,308.782,347.818,300.246z"/>
</svg>