<svg xmlns="http://www.w3.org/2000/svg" xmlns:xlink="http://www.w3.org/1999/xlink" version="1.1" id="Layer_1" x="0px" y="0px" enable-background="new 0 0 822.05 841.89" xml:space="preserve" viewBox="330.27 336.77 159.5 172.43">
<path fill-rule="evenodd" clip-rule="evenodd" fill="#0C7823" stroke="#000000" stroke-width="1.25" stroke-linecap="square" stroke-miterlimit="10" d="  M375.15,449.019c11.051,0,89.962,8.732,61.502-25.502c-3.676-4.421-39.441,0-45.557,0  C371.573,423.517,372.417,428.152,375.15,449.019z"/>
<path fill-rule="evenodd" clip-rule="evenodd" fill="#EED5B6" stroke="#000000" stroke-width="1.25" stroke-linecap="square" stroke-miterlimit="10" d="  M453.152,440.769c-13.887-3.106-29.435-8.328-33.002-23.252c0.003-0.043,2.244,5.246,2.25,5.25  c-19.27-0.47-24.816-2.102-38.25,8.252c-5.437,4.19-9.112,7.321-15.75,9c11.006,40.023,4.455,59.343,47.057,61.667  c17.476,0.953,27.131-13.505,40.159-24.672C467.617,466.728,457.758,454.941,453.152,440.769z"/>
<path fill-rule="evenodd" clip-rule="evenodd" fill="#FF9900" stroke="#000000" stroke-width="1.25" stroke-linecap="square" stroke-miterlimit="10" d="  M354.9,486.519c-10.106,32.465,38.581,19.5,58.155,19.5c22.374,0,56.401,11.254,47.597-21.75c-6.617,25.875,9.248,21.75,28.5,21.75  c-1.741-20.309-2.334-54.891-21-67.5c-27.584-18.634-37.552,17.838-62.252,16.5c-22.333-1.209-32.596-34.089-58.5-15  c-18.171,13.391-16.011,46.269-16.5,66C348.405,510.167,360.841,506.572,354.9,486.519z"/>
<path fill="none" stroke="#000000" stroke-width="1.25" stroke-linecap="square" stroke-miterlimit="10" d="M460.652,506.019  c0.064-4.886,0.657-13.195,0-19.5C460.652,493.019,460.598,499.52,460.652,506.019z"/>
<path fill-rule="evenodd" clip-rule="evenodd" fill="#FFFFFF" stroke="#000000" stroke-width="1.25" stroke-linecap="square" stroke-miterlimit="10" d="  M354.9,486.519c0,6.5,0,13,0,19.5C354.9,499.519,354.9,493.019,354.9,486.519z"/>
<path fill-rule="evenodd" clip-rule="evenodd" fill="#FFFFFF" stroke="#000000" stroke-width="1.25" stroke-linecap="square" stroke-miterlimit="10" d="  M460.652,486.519C460.652,483.519,460.652,483.519,460.652,486.519L460.652,486.519z"/>
<path fill-rule="evenodd" clip-rule="evenodd" fill="#FFFFFF" stroke="#000000" stroke-width="1.25" stroke-linecap="square" stroke-miterlimit="10" d="  M417.15,492.519c0.283-7.948-1.868-16.189-5.25-23.25c-0.436-0.017-9.25-0.015-9.75,0c-5.594,11.406-6.181,24.045-6,36.75  c5.504,1.492,16.246,1.492,21.75,0C417.65,501.519,417.4,497.019,417.15,492.519z"/>
<path fill-rule="evenodd" clip-rule="evenodd" fill="#FFFFFF" stroke="#000000" stroke-width="1.25" stroke-linecap="square" stroke-miterlimit="10" d="  M413.4,466.269C398.415,496.061,400.292,434.911,413.4,466.269L413.4,466.269z"/>
<path fill-rule="evenodd" clip-rule="evenodd" fill="#FF9900" stroke="#000000" stroke-width="1.25" stroke-linecap="square" stroke-miterlimit="10" d="  M444.152,432.519c-2-3.251-4-6.501-6-9.752c-22.638,26.7-31.948,28.212-18.002,60.752  C428.151,466.519,436.151,449.519,444.152,432.519z"/>
<path fill-rule="evenodd" clip-rule="evenodd" fill="#FF9900" stroke="#000000" stroke-width="1.25" stroke-linecap="square" stroke-miterlimit="10" d="  M372.9,434.019c1-3.501,2-7.001,3-10.502c23.463,27.27,28.972,28.179,18.75,62.252C387.4,468.519,380.15,451.269,372.9,434.019z"/>
<path fill-rule="evenodd" clip-rule="evenodd" stroke="#000000" stroke-width="1.25" stroke-linecap="square" stroke-miterlimit="10" d="  M369.15,375.517c0.417,50.939,76.694,50.987,76.502,0C445.46,324.476,371.236,324.898,369.15,375.517z"/>
<path fill-rule="evenodd" clip-rule="evenodd" fill="#EED5B6" stroke="#000000" stroke-width="1.25" stroke-linecap="square" stroke-miterlimit="10" d="  M448.652,388.267C436.108,415.699,436.108,360.835,448.652,388.267L448.652,388.267z"/>
<path fill-rule="evenodd" clip-rule="evenodd" fill="#EED5B6" stroke="#000000" stroke-width="1.25" stroke-linecap="square" stroke-miterlimit="10" d="  M377.4,388.267C364.856,416.87,364.856,359.664,377.4,388.267L377.4,388.267z"/>
<path fill-rule="evenodd" clip-rule="evenodd" fill="#EED5B6" stroke="#000000" stroke-width="1.25" stroke-linecap="square" stroke-miterlimit="10" d="  M382.65,354.517c23.878,18.55,29.216-6.866,48.002,0c20.346,7.436,11.727,52.36,2.25,63  C393.208,462.084,345.068,380.335,382.65,354.517z"/>
<path fill-rule="evenodd" clip-rule="evenodd" fill="#0D0D0D" d="M425.402,385.267c-2.29,0.586-1.535,5.708-5.252,1.5  C420.797,380.879,422.985,385.886,425.402,385.267z"/>
<path fill="none" stroke="#0D0D0D" stroke-width="0.75" stroke-linecap="square" stroke-miterlimit="10" d="M429.152,385.267  c-4.017-2.108-8.49-2.165-12.002,0"/>
<path fill="none" stroke="#0D0D0D" stroke-linecap="square" stroke-miterlimit="10" d="M414.9,396.517  c-3.196,3.532-6.847,3.815-10.5,0.75"/>
<path fill-rule="evenodd" clip-rule="evenodd" fill="#0D0D0D" d="M391.65,388.267c2.123,0.31,1.633,5.792,5.25,0.75  C394.918,383.2,393.797,388.58,391.65,388.267z"/>
<path fill="none" stroke="#0D0D0D" stroke-width="0.75" stroke-linecap="square" stroke-miterlimit="10" d="M387.9,389.017  c3.249-2.74,7.35-3.596,11.25-2.25"/>
<path fill="none" stroke="#000000" stroke-linecap="square" stroke-miterlimit="10" d="M396.9,412.267  c8.143,4.224,16.311,3.89,23.25-1.5"/>
</svg>