<svg xmlns="http://www.w3.org/2000/svg" xmlns:xlink="http://www.w3.org/1999/xlink" version="1.1" id="Layer_1" x="0px" y="0px" enable-background="new 0 0 822.05 841.89" xml:space="preserve" viewBox="196.74 268.16 423.97 302.97">
<path fill-rule="evenodd" clip-rule="evenodd" fill="#AF8977" stroke="#000000" stroke-width="2" stroke-linecap="square" stroke-miterlimit="10" d="  M226.988,343.407c42.558-20.193,85.115-40.386,127.672-60.579c33.877-16.075,71.206,1.914,107.078,9.579  c-38.151,28.431-76.302,56.862-114.453,85.293C331.165,389.713,247.922,349.982,226.988,343.407z"/>
<path fill-rule="evenodd" clip-rule="evenodd" fill="#6C5635" stroke="#000000" stroke-width="2" stroke-linecap="square" stroke-miterlimit="10" d="  M232.988,337.407c-6.999-6.042-16.004-1.548-24,6.75c21.5,27.5,43,55,64.5,82.5c-7.91,3.374-14.364,11.284-21.75,15.75  c13.515,18.426,23.078-13.84,36.141,2.062c12.345,15.029,25.224,47.446,44.109,24.938c-10.5-13.5-21-27-31.5-40.5  c21.375-14.047,45.052-26.628,63.75-44.25c-18.278-33.19-56.175,41.332-76.5,37.5c-22.565-4.254-41.011-65.97-63.75-79.5  C226.988,340.907,229.988,339.157,232.988,337.407z"/>
<path fill-rule="evenodd" clip-rule="evenodd" fill="#AF8977" stroke="#000000" stroke-width="2" stroke-linecap="square" stroke-miterlimit="10" d="  M235.238,347.157c17.5,25,35,50,52.5,75c17.75-14.25,35.5-28.5,53.25-42.75C305.738,368.657,270.488,357.907,235.238,347.157z"/>
<path fill="none" stroke="#000000" stroke-width="2" stroke-linecap="square" stroke-miterlimit="10" d="M373.988,273.657  c8.25,17.25,16.5,34.5,24.75,51.75c19.5-10.75,39-21.5,58.5-32.25"/>
<line fill="none" stroke="#000000" stroke-width="2" stroke-linecap="square" stroke-miterlimit="10" x1="326.738" y1="377.157" x2="398.738" y2="325.407"/>
<path fill-rule="evenodd" clip-rule="evenodd" fill="#6C5635" stroke="#000000" stroke-width="2" stroke-linecap="square" stroke-miterlimit="10" d="  M358.988,269.157c0,3.5,0,7,0,10.5c3.5-2,7-4,10.5-6C365.988,272.157,362.488,270.657,358.988,269.157z"/>
<path fill-rule="evenodd" clip-rule="evenodd" fill="#6C5635" stroke="#000000" stroke-width="2" stroke-linecap="square" stroke-miterlimit="10" d="  M389.738,348.657c24.667-15.073,19.977,11.964,36,20.25c23.928,12.374-8.485-29.834-10.498-32.25  c15.739-10.493,63.423-29.686,53.998-48.75C440.904,304.809,415.718,328.36,389.738,348.657z"/>
<path fill-rule="evenodd" clip-rule="evenodd" fill="#AF8977" stroke="#000000" stroke-width="2" stroke-linecap="square" stroke-miterlimit="10" d="  M215.738,436.407c42.558-20.193,85.115-40.386,127.672-60.579c33.877-16.075,71.206,1.914,107.078,9.579  c-38.151,28.674-76.302,57.348-114.453,86.022C320.111,483.397,236.507,443.063,215.738,436.407z"/>
<path fill-rule="evenodd" clip-rule="evenodd" fill="#6C5635" stroke="#000000" stroke-width="2" stroke-linecap="square" stroke-miterlimit="10" d="  M221.738,431.157c-6.31-8.782-15.792-1.393-24,6c21.5,27.5,43,55,64.5,82.5c-7.91,3.374-14.364,11.284-21.75,15.75  c13.515,18.426,23.078-13.84,36.141,2.062c12.345,15.029,25.224,47.446,44.109,24.938c-10.5-13.5-21-27-31.5-40.5  c21.359-13.73,46.072-25.701,63.75-44.25c-13.389-24.016-61.135,26.777-76.5,38.25c-18.369-24.736-37.133-64.375-63.75-80.25  C215.738,434.157,218.738,432.657,221.738,431.157z"/>
<path fill-rule="evenodd" clip-rule="evenodd" fill="#AF8977" stroke="#000000" stroke-width="2" stroke-linecap="square" stroke-miterlimit="10" d="  M223.988,440.157c17.5,25.25,35,50.5,52.5,75.75c17.75-14.25,35.5-28.5,53.25-42.75  C294.488,462.157,259.238,451.157,223.988,440.157z"/>
<path fill="none" stroke="#000000" stroke-width="2" stroke-linecap="square" stroke-miterlimit="10" d="M362.738,366.657  c8.25,17.5,16.5,35,24.75,52.5c19.5-11,39-22,58.5-33"/>
<line fill="none" stroke="#000000" stroke-width="2" stroke-linecap="square" stroke-miterlimit="10" x1="315.488" y1="470.907" x2="387.488" y2="419.157"/>
<path fill-rule="evenodd" clip-rule="evenodd" fill="#6C5635" stroke="#000000" stroke-width="2" stroke-linecap="square" stroke-miterlimit="10" d="  M347.738,362.907c0,3.25,0,6.5,0,9.75c3.5-2,7-4,10.5-6C354.738,365.407,351.238,364.157,347.738,362.907z"/>
<path fill-rule="evenodd" clip-rule="evenodd" fill="#6C5635" stroke="#000000" stroke-width="2" stroke-linecap="square" stroke-miterlimit="10" d="  M378.488,441.657c25.836-15.788,18.925,13.929,36.002,20.25c25.838,9.564-7.39-28.412-10.502-32.25  c16.079-10.65,62.299-28.567,54-48.75C429.654,397.809,404.468,421.36,378.488,441.657z"/>
<path fill-rule="evenodd" clip-rule="evenodd" fill="#AF8977" stroke="#000000" stroke-width="2" stroke-linecap="square" stroke-miterlimit="10" d="  M376.238,435.657c42.558-20.193,85.115-40.386,127.673-60.579c34.034-16.149,71.784,1.943,107.827,9.579  c-38.151,28.431-76.302,56.862-114.453,85.293C481.065,482.038,397.312,442.234,376.238,435.657z"/>
<path fill-rule="evenodd" clip-rule="evenodd" fill="#6C5635" stroke="#000000" stroke-width="2" stroke-linecap="square" stroke-miterlimit="10" d="  M382.988,429.657c-7.573-6.319-15.671-0.981-24.75,6.75c21.75,27.5,43.5,55,65.25,82.5c-7.5,5.25-15,10.5-22.5,15.75  c14.183,18.279,23.061-13.662,36.258,2.062c12.252,14.599,25.82,47.406,43.992,24.938c-10.25-13.5-20.5-27-30.75-40.5  c21.067-13.845,45.293-26.063,63-44.25c-17.425-32.806-55.718,41.277-75.75,37.5c-23.478-4.427-40.013-66.677-64.5-79.5  C376.488,433.157,379.738,431.407,382.988,429.657z"/>
<path fill-rule="evenodd" clip-rule="evenodd" fill="#AF8977" stroke="#000000" stroke-width="2" stroke-linecap="square" stroke-miterlimit="10" d="  M385.238,439.407c17.5,25,35,50,52.5,75c17.75-14.25,35.5-28.5,53.25-42.75C455.738,460.907,420.488,450.157,385.238,439.407z"/>
<path fill="none" stroke="#000000" stroke-width="2" stroke-linecap="square" stroke-miterlimit="10" d="M523.238,365.907  c8.5,17.25,17,34.5,25.5,51.75c19.25-10.75,38.5-21.5,57.75-32.25"/>
<line fill="none" stroke="#000000" stroke-width="2" stroke-linecap="square" stroke-miterlimit="10" x1="476.738" y1="469.407" x2="548.738" y2="417.657"/>
<path fill-rule="evenodd" clip-rule="evenodd" fill="#6C5635" stroke="#000000" stroke-width="2" stroke-linecap="square" stroke-miterlimit="10" d="  M508.238,361.407c0,3.5,0,7,0,10.5c3.75-2,7.5-4,11.25-6C515.738,364.407,511.988,362.907,508.238,361.407z"/>
<path fill-rule="evenodd" clip-rule="evenodd" fill="#6C5635" stroke="#000000" stroke-width="2" stroke-linecap="square" stroke-miterlimit="10" d="  M538.988,440.907c26.782-16.069,19.126,14.069,36.75,20.25c26.072,9.143-8.404-28.945-11.25-32.25  c15.74-10.493,63.425-29.685,54-48.75C590.854,398.621,565.276,420.581,538.988,440.907z"/>
</svg>