<svg xmlns="http://www.w3.org/2000/svg" xmlns:xlink="http://www.w3.org/1999/xlink" version="1.1" id="Layer_1" x="0px" y="0px" enable-background="new 0 0 822.05 841.89" xml:space="preserve" viewBox="199.99 254.61 416.92 331.6">
<path fill-rule="evenodd" clip-rule="evenodd" fill="#AF8977" stroke="#000000" stroke-width="2" stroke-linecap="square" stroke-miterlimit="10" d="  M229.491,371.857c67.205-31.651,134.409-63.302,201.614-94.953c53.98-25.423,113.138,2.256,170.388,13.953  c-60.712,45.35-121.424,90.7-182.136,136.05c-14.379,10.741-66.156-15.985-81.867-20.946  C301.491,394.593,265.491,383.225,229.491,371.857z"/>
<path fill-rule="evenodd" clip-rule="evenodd" fill="#6C5635" stroke="#000000" stroke-width="2" stroke-linecap="square" stroke-miterlimit="10" d="  M239.241,362.857c-1.75-3-3.5-6-5.25-9c-11,6.5-22,13-33,19.5c34.25,43.5,68.5,86.999,102.75,130.498  c-11.75,8.25-23.5,16.5-35.25,24.75c14.025,33.633,37.365-20.475,57.305,3.562c12.547,15.125,25.094,30.25,37.641,45.375  c12.831,15.468,16.231,4.617,31.805-6.938c-16.25-21.25-32.5-42.5-48.75-63.75c33.311-21.803,71.749-41.015,99.752-69.75  c-16.445-27.524-28.43-9.067-47.025,4.958c-24.326,18.348-48.651,36.694-72.977,55.042c-26.053-34.81-60.302-109.096-101.25-125.998  C229.555,368.465,234.268,364.533,239.241,362.857z"/>
<path fill-rule="evenodd" clip-rule="evenodd" fill="#AF8977" stroke="#000000" stroke-width="2" stroke-linecap="square" stroke-miterlimit="10" d="  M242.991,377.857c27.75,39.75,55.5,79.499,83.25,119.248c28-22.5,56-45,84-67.5C354.491,412.355,298.741,395.106,242.991,377.857z"/>
<path fill="none" stroke="#000000" stroke-width="2" stroke-linecap="square" stroke-miterlimit="10" d="M461.993,262.357  c13,27.25,26,54.5,39,81.75c30.75-17.25,61.5-34.5,92.25-51.75"/>
<line fill="none" stroke="#000000" stroke-width="2" stroke-linecap="square" stroke-miterlimit="10" x1="387.741" y1="425.855" x2="500.993" y2="344.107"/>
<path fill-rule="evenodd" clip-rule="evenodd" fill="#6C5635" stroke="#000000" stroke-width="2" stroke-linecap="square" stroke-miterlimit="10" d="  M437.993,255.607c-1.018,4.905,0,10.715,0,15.75c5.351-1.663,13.003-5.368,17.25-9C449.669,260.176,443.841,256.777,437.993,255.607  z"/>
<path fill-rule="evenodd" clip-rule="evenodd" fill="#6C5635" stroke="#000000" stroke-width="2" stroke-linecap="square" stroke-miterlimit="10" d="  M486.743,380.107c6.323-1.459,26.968-9.958,30.787-4.59c5.735,8.061,17.308,33.279,26.213,36.84  c40.986,16.389-11.714-45.868-16.5-51.75c18.806-12.384,106.284-52.111,85.5-75.75C567.021,306.415,526.523,349.167,486.743,380.107  z"/>
</svg>