<svg xmlns="http://www.w3.org/2000/svg" xmlns:xlink="http://www.w3.org/1999/xlink" version="1.1" id="Layer_1" x="0px" y="0px" enable-background="new 0 0 822.05 841.89" xml:space="preserve" viewBox="318.99 339.71 184.17 163.78">
<path fill-rule="evenodd" clip-rule="evenodd" fill="#F7F619" stroke="#000000" stroke-width="1.25" stroke-linecap="square" stroke-miterlimit="10" d="  M445.913,356.265c-2.02,21.164-33.539,22.64-33.75,0C411.96,334.462,443.613,335.604,445.913,356.265z"/>
<path fill-rule="evenodd" clip-rule="evenodd" fill="#F7F619" stroke="#000000" stroke-width="1.25" stroke-linecap="square" stroke-miterlimit="10" d="  M406.163,360.015c-3.369,22.293-37.722,19.86-33.375-1.875C376.975,337.206,403.974,339.582,406.163,360.015z"/>
<path fill-rule="evenodd" clip-rule="evenodd" fill="#F7F619" stroke="#000000" stroke-width="1.25" stroke-linecap="square" stroke-miterlimit="10" d="  M388.913,375.015c-1.563,21.847-32.947,21.723-33,0C355.859,353.063,387.294,353.537,388.913,375.015z"/>
<path fill-rule="evenodd" clip-rule="evenodd" fill="#F7F619" stroke="#000000" stroke-width="1.25" stroke-linecap="square" stroke-miterlimit="10" d="  M466.163,369.015c-2.77,18.626-29.151,23.703-33,3C428.886,349.011,462.836,345.438,466.163,369.015z"/>
<path fill-rule="evenodd" clip-rule="evenodd" fill="#5DACC5" stroke="#000000" stroke-width="1.25" stroke-linecap="square" stroke-miterlimit="10" d="  M409.913,447.765c17.273-0.408,85.482-0.194,90-25.5c4.972-27.849-60.891-30.287-76.667-30.944  c-23.438-0.977-94.664-4.484-102.208,25.694C313.928,445.457,393.729,447.4,409.913,447.765z"/>
<path fill-rule="evenodd" clip-rule="evenodd" fill="#F7F619" stroke="#000000" stroke-width="1.25" stroke-linecap="square" stroke-miterlimit="10" d="  M371.663,396.765c-2.217,21.268-33.421,22.615-33.75,0C337.581,373.934,370.133,374.431,371.663,396.765z"/>
<path fill-rule="evenodd" clip-rule="evenodd" fill="#F7F619" stroke="#000000" stroke-width="1.25" stroke-linecap="square" stroke-miterlimit="10" d="  M433.163,367.515c-2.288,19.85-33.75,23.256-33.75,1.875C399.413,346.449,429.445,345.519,433.163,367.515z"/>
<path fill-rule="evenodd" clip-rule="evenodd" fill="#F7F619" stroke="#000000" stroke-width="1.25" stroke-linecap="square" stroke-miterlimit="10" d="  M410.663,379.515c-2.282,19.802-33.75,23.389-33.75,1.875C376.913,358.755,406.65,357.863,410.663,379.515z"/>
<path fill-rule="evenodd" clip-rule="evenodd" fill="#F7F619" stroke="#000000" stroke-width="1.25" stroke-linecap="square" stroke-miterlimit="10" d="  M479.663,385.515c-1.861,19.063-29.407,23.423-33,3C442.582,365.317,477.587,361.903,479.663,385.515z"/>
<path fill-rule="evenodd" clip-rule="evenodd" fill="#F7F619" stroke="#000000" stroke-width="1.25" stroke-linecap="square" stroke-miterlimit="10" d="  M354.413,415.515c-2.768,18.613-29.508,23.82-33.75,3C316.027,395.764,351.065,391.793,354.413,415.515z"/>
<path fill-rule="evenodd" clip-rule="evenodd" fill="#F7F619" stroke="#000000" stroke-width="1.25" stroke-linecap="square" stroke-miterlimit="10" d="  M455.663,384.765c-3.02,20.319-33.888,22.111-33.752,0C422.05,362.147,453.03,363.643,455.663,384.765z"/>
<path fill-rule="evenodd" clip-rule="evenodd" fill="#F7F619" stroke="#000000" stroke-width="1.25" stroke-linecap="square" stroke-miterlimit="10" d="  M390.413,399.015c-4.08,21.98-33.75,20.853-33.75-1.875C356.663,375.76,388.125,379.165,390.413,399.015z"/>
<path fill-rule="evenodd" clip-rule="evenodd" fill="#F7F619" stroke="#000000" stroke-width="1.25" stroke-linecap="square" stroke-miterlimit="10" d="  M427.913,386.265c-2.408,20.728-33.954,21.871-33.75,0C394.375,363.519,425.762,365.075,427.913,386.265z"/>
<path fill-rule="evenodd" clip-rule="evenodd" fill="#F7F619" stroke="#000000" stroke-width="1.25" stroke-linecap="square" stroke-miterlimit="10" d="  M475.163,408.765c-3.369,22.293-37.722,19.86-33.375-1.875C445.975,385.956,472.974,388.332,475.163,408.765z"/>
<path fill-rule="evenodd" clip-rule="evenodd" fill="#F7F619" stroke="#000000" stroke-width="1.25" stroke-linecap="square" stroke-miterlimit="10" d="  M422.663,400.515c-3.257,20.321-33.474,22.183-33.75,0C388.636,378.278,420.182,379.024,422.663,400.515z"/>
<path fill-rule="evenodd" clip-rule="evenodd" fill="#F7F619" stroke="#000000" stroke-width="1.25" stroke-linecap="square" stroke-miterlimit="10" d="  M499.913,409.515c-2.978,23.885-37.116,20.173-33-3C470.515,386.241,497.347,391.122,499.913,409.515z"/>
<path fill-rule="evenodd" clip-rule="evenodd" fill="#F7F619" stroke="#000000" stroke-width="1.25" stroke-linecap="square" stroke-miterlimit="10" d="  M387.413,413.265c-2.724,21.379-33.75,22.948-33.75,0C353.663,390.316,384.689,391.887,387.413,413.265z"/>
<path fill-rule="evenodd" clip-rule="evenodd" fill="#F7F619" stroke="#000000" stroke-width="1.25" stroke-linecap="square" stroke-miterlimit="10" d="  M445.913,401.265c-1.256,20.332-33,23.345-33,1.875C412.913,380.427,443.663,378.618,445.913,401.265z"/>
<path fill-rule="evenodd" clip-rule="evenodd" fill="#F7F619" stroke="#000000" stroke-width="1.25" stroke-linecap="square" stroke-miterlimit="10" d="  M410.663,414.015c-2.589,22.415-33,20.053-33-1.875C377.663,391.222,409.039,393.575,410.663,414.015z"/>
<path fill-rule="evenodd" clip-rule="evenodd" fill="#F7F619" stroke="#000000" stroke-width="1.25" stroke-linecap="square" stroke-miterlimit="10" d="  M499.913,426.015c-1.547,21.625-33.239,22.039-33,0C467.147,404.341,498.117,404.924,499.913,426.015z"/>
<path fill-rule="evenodd" clip-rule="evenodd" fill="#F7F619" stroke="#000000" stroke-width="1.25" stroke-linecap="square" stroke-miterlimit="10" d="  M367.163,423.015c-2.472,21.445-34.195,22.239-33.75,0C333.854,400.969,363.723,402.663,367.163,423.015z"/>
<path fill-rule="evenodd" clip-rule="evenodd" fill="#F7F619" stroke="#000000" stroke-width="1.25" stroke-linecap="square" stroke-miterlimit="10" d="  M458.663,418.515c-1.609,20.245-33,23.094-33,1.875C425.663,398.143,456.098,396.299,458.663,418.515z"/>
<path fill-rule="evenodd" clip-rule="evenodd" fill="#F7F619" stroke="#000000" stroke-width="1.25" stroke-linecap="square" stroke-miterlimit="10" d="  M388.163,432.765c-2.199,22.477-33,20.842-33-1.875C355.163,409.64,386.56,412.596,388.163,432.765z"/>
<path fill-rule="evenodd" clip-rule="evenodd" fill="#F7F619" stroke="#000000" stroke-width="1.25" stroke-linecap="square" stroke-miterlimit="10" d="  M431.663,414.765c-2.288,19.85-33.75,23.256-33.75,1.875C397.913,393.912,427.583,392.785,431.663,414.765z"/>
<path fill-rule="evenodd" clip-rule="evenodd" fill="#F7F619" stroke="#000000" stroke-width="1.25" stroke-linecap="square" stroke-miterlimit="10" d="  M445.913,437.265c-2.964,22.081-37.661,19.556-33.375-1.875C416.726,414.454,443.958,416.774,445.913,437.265z"/>
<path fill-rule="evenodd" clip-rule="evenodd" fill="#F7F619" stroke="#000000" stroke-width="1.25" stroke-linecap="square" stroke-miterlimit="10" d="  M418.161,438.765c-2.769,18.627-29.149,23.702-32.998,3C380.886,418.762,414.835,415.187,418.161,438.765z"/>
<path fill-rule="evenodd" clip-rule="evenodd" fill="#F7F619" stroke="#000000" stroke-width="1.25" stroke-linecap="square" stroke-miterlimit="10" d="  M475.913,430.515c-2.879,17.982-29.969,23.683-33.75,3C437.999,410.738,473.131,406.373,475.913,430.515z"/>
<path fill-rule="evenodd" clip-rule="evenodd" fill="#8ED4E5" stroke="#000000" stroke-width="1.25" stroke-linecap="square" stroke-miterlimit="10" d="  M409.913,447.765c-27.002-0.609-74.259-0.008-90-26.25c-9.311,111.597,199.666,106.035,181.5-2.25  C487.88,447.356,436.909,447.126,409.913,447.765z"/>
</svg>