<svg xmlns="http://www.w3.org/2000/svg" xmlns:xlink="http://www.w3.org/1999/xlink" version="1.1" id="Layer_1" x="0px" y="0px" enable-background="new 0 0 822.05 841.89" xml:space="preserve" viewBox="238.25 248.89 343.25 345.93">
<path fill-rule="evenodd" clip-rule="evenodd" fill="#E1F3FC" stroke="#000000" stroke-width="2" stroke-linecap="square" stroke-miterlimit="10" d="  M580.504,421.64c-1.504,219.639-340.701,219.694-341.252,0C238.699,201.223,579.67,201.239,580.504,421.64z"/>
<path fill-rule="evenodd" clip-rule="evenodd" fill="#FFDB78" stroke="#000000" stroke-width="2" stroke-linecap="square" stroke-miterlimit="10" d="  M386.252,249.89c-19.74,34.907-33.4,77.4-27,117.75c6.576,41.458,40.445,72.203,45.75,115.5c3.918,31.979-13.5,54.698-13.5,85.125  c0,30.869,53.295,31.539,69.752,13.875c6.167-6.619,8.584-33.96,14.25-43.875c6.081-10.642,16.594-18.787,24.375-28.125  c20.767-24.92,25.683-63.608,8.25-91.5c-17.77-28.431-150.917-129.286-77.625-168.75C415.753,249.89,401.002,249.89,386.252,249.89z  "/>
<path fill-rule="evenodd" clip-rule="evenodd" fill="#F7931E" stroke="#000000" stroke-width="2" stroke-linecap="square" stroke-miterlimit="10" d="  M379.502,256.64c-4.029,35.049-4.493,70.15,5.25,104.25c8.185,28.646,34.887,45.799,48.002,72c16.578,33.12,12.296,57.157-3.5,88.75  c-9.005,18.01-28.77,52.702-11.5,70.25c-29.48,7.814-25.046-33.895-21.752-50.25c6.672-33.133,10.625-56.021-1.5-90.375  C369.708,381.014,314.225,325.418,379.502,256.64z"/>
</svg>