<svg xmlns="http://www.w3.org/2000/svg" xmlns:xlink="http://www.w3.org/1999/xlink" version="1.1" id="Layer_1" x="0px" y="0px" enable-background="new 0 0 822.05 841.89" xml:space="preserve" viewBox="310.56 336.31 200.63 171.2">
<path fill-rule="evenodd" clip-rule="evenodd" fill="#EDCBA6" stroke="#000000" stroke-width="1.25" stroke-linecap="square" stroke-miterlimit="10" d="  M428.063,408.765C396.125,406.452,432.741,434.604,428.063,408.765L428.063,408.765z"/>
<path fill-rule="evenodd" clip-rule="evenodd" fill="#200F75" stroke="#000000" stroke-width="1.25" stroke-linecap="square" stroke-miterlimit="10" d="  M464.813,483.015c-4.752,6.119-5.823,12.706-15,15.75c11.104,2.988,22.996,2.839,34.5,0.75c-4.012-0.637-7.964-1.111-12-1.5  c1.5-4.25,3-8.5,4.5-12.75C472.813,484.515,468.813,483.765,464.813,483.015z"/>
<path fill-rule="evenodd" clip-rule="evenodd" fill="#200F75" stroke="#000000" stroke-width="1.25" stroke-linecap="square" stroke-miterlimit="10" d="  M488.813,478.515c7.017,22.303-13.394,27.271-28.5,18.75C477.604,494.335,474.141,482.166,488.813,478.515z"/>
<path fill-rule="evenodd" clip-rule="evenodd" fill="#F8130D" stroke="#000000" stroke-width="1.25" stroke-linecap="square" stroke-miterlimit="10" d="  M455.813,424.515c-6.88,23.142-26.407,51.929-0.75,63c15.769,6.805,41.597-4.51,55.5-11.25c-12.001-17.92-22.945-40.855-19.5-63  C478.079,414.923,457.91,411.567,455.813,424.515z"/>
<path fill-rule="evenodd" clip-rule="evenodd" fill="#EDCBA6" stroke="#000000" stroke-width="1.25" stroke-linecap="square" stroke-miterlimit="10" d="  M480.563,427.515c-11.158,20.082,21.949,16.734,3.75-9.75c-0.5,0-1,0-1.5,0C481.853,420.929,481.252,424.214,480.563,427.515z"/>
<path fill-rule="evenodd" clip-rule="evenodd" fill="#EDCBA6" stroke="#000000" stroke-width="1.25" stroke-linecap="square" stroke-miterlimit="10" d="  M436.313,372.765c-9.56,34.68,51.958,6.817,2.25-14.25C437.142,362.868,436.012,368.116,436.313,372.765z"/>
<path fill-rule="evenodd" clip-rule="evenodd" fill="#EDCBA6" stroke="#000000" stroke-width="1.25" stroke-linecap="square" stroke-miterlimit="10" d="  M449.813,359.265c-2.334,22.902-32.61,24.46-37.127,1.875C407.904,337.226,446.177,335.525,449.813,359.265z"/>
<path fill-rule="evenodd" clip-rule="evenodd" fill="#200F75" stroke="#000000" stroke-width="1.25" stroke-linecap="square" stroke-miterlimit="10" d="  M455.813,363.765c35.036,2.206,51.998,28.189,38.25,60.75c-15.201-6.314-31.565-2.791-46.5,3c3.865-3.839,5.819-11.839,9.75-16.5  c-1.794-0.938-12.715-4.251-14.25-4.5c-3.917,9.66-7.598,6.793-14.25,12.75c-1.751-2.819-4.714-10.298-5.25-13.5  c7.745-5.009,8.831-16.363,11.25-27C446.413,402.592,456.314,381.902,455.813,363.765z"/>
<path fill-rule="evenodd" clip-rule="evenodd" fill="#200F75" d="M473.063,381.015c10.02,13.268,11.254,31.958,1.5,45.75  C504.485,441.74,513.099,366.829,473.063,381.015z"/>
<path fill="none" stroke="#000000" stroke-width="1.25" stroke-linecap="square" stroke-miterlimit="10" d="M473.063,381.015  c10.02,13.268,11.254,31.958,1.5,45.75c27.025,13.524,29.508-30.368,18.75-46.5"/>
<path fill-rule="evenodd" clip-rule="evenodd" fill="#724211" stroke="#000000" stroke-width="1.25" stroke-linecap="square" stroke-miterlimit="10" d="  M406.312,363.765c-5.289-19.269,16.25-33.004,33.002-24c29.487,15.85,4.221,43.623-1.5,21c-9.512,1.889-7.762-1.606-12-2.25  C416.951,365.53,412.032,377.251,406.312,363.765z"/>
<path fill-rule="evenodd" clip-rule="evenodd" fill="#EDCBA6" d="M422.063,371.265c1.447,2.105,0.058,4.939,2.25,6.75  c2.598-1.243,2.679-1.563,4.5-3.75C426.563,373.265,424.313,372.265,422.063,371.265z"/>
<path fill="none" stroke="#000000" stroke-width="1.25" stroke-linecap="square" stroke-miterlimit="10" d="M422.063,371.265  c0.062,2.377,0.412,4.616,1.5,6.75c3.059-0.162,3.507-1.657,5.25-3.75"/>
<path fill-rule="evenodd" clip-rule="evenodd" stroke="#000000" stroke-width="1.25" stroke-linecap="square" stroke-miterlimit="10" d="  M425.813,369.015C423.354,368.267,423.991,368.46,425.813,369.015L425.813,369.015z"/>
<path fill="none" stroke="#000000" stroke-width="1.25" stroke-linecap="square" stroke-miterlimit="10" d="M431.063,377.265  c1.966-1.374,2.762-3.961,2.25-6.75"/>
<path fill="none" stroke="#000000" stroke-width="1.25" stroke-linecap="square" stroke-miterlimit="10" d="M457.313,411.015  c2.661,0.547,5.054-0.217,6.75-2.25"/>
<path fill-rule="evenodd" clip-rule="evenodd" fill="#568F23" stroke="#000000" stroke-width="1.25" stroke-linecap="square" stroke-miterlimit="10" d="  M414.56,465.765c1.174,1.841-3.491,4.045,2.25,3.75c8.282-18.339,8.812-38.673,8.254-58.5  C417.416,425.876,422.824,448.311,414.56,465.765z"/>
<path fill-rule="evenodd" clip-rule="evenodd" fill="#EDCBA6" stroke="#000000" stroke-width="1.25" stroke-linecap="square" stroke-miterlimit="10" d="  M398.812,432.015c7.631-1.908,25.005-4.852,29.252,3c4.646,8.589-26.551,6.17-30.002,7.5  C398.312,439.015,398.562,435.515,398.812,432.015z"/>
<path fill-rule="evenodd" clip-rule="evenodd" fill="#F8130D" stroke="#000000" stroke-width="1.25" stroke-linecap="square" stroke-miterlimit="10" d="  M377.062,361.515c-24.559-10.39-8.721,14.312,9.75,20.25C395.193,363.4,386.574,337.402,377.062,361.515z"/>
<path fill-rule="evenodd" clip-rule="evenodd" fill="#EDCBA6" stroke="#000000" stroke-width="1.25" stroke-linecap="square" stroke-miterlimit="10" d="  M407.812,399.765C431.489,429.294,369.125,402.857,407.812,399.765L407.812,399.765z"/>
<path fill-rule="evenodd" clip-rule="evenodd" fill="#EDCBA6" stroke="#000000" stroke-width="1.25" stroke-linecap="square" stroke-miterlimit="10" d="  M394.312,419.265c-1.294,4.91-2.004,10.019-3,15c11.01,1.057,14.881-6.275,14.25-18  C401.812,417.265,398.062,418.265,394.312,419.265z"/>
<path fill-rule="evenodd" clip-rule="evenodd" fill="#FB0F0C" stroke="#000000" stroke-width="1.25" stroke-linecap="square" stroke-miterlimit="10" d="  M391.312,490.515c-1.394,11.697,7.623,14.56,20.25,9.75C408.98,487.866,402.345,484.375,391.312,490.515z"/>
<path fill-rule="evenodd" clip-rule="evenodd" fill="#FB0F0C" stroke="#000000" stroke-width="1.25" stroke-linecap="square" stroke-miterlimit="10" d="  M402.562,492.765c3.657,15.366,29.328,4.034,9,0c0.25-2.25,0.5-4.5,0.75-6.75C409.062,488.265,405.812,490.515,402.562,492.765z"/>
<path fill-rule="evenodd" clip-rule="evenodd" fill="#200F75" stroke="#000000" stroke-width="1.25" stroke-linecap="square" stroke-miterlimit="10" d="  M416.81,493.515c-9.625,2.191-19.41,3.197-29.248,3c0.761-20.552-7.037-47.922,22.5-45  C412.311,465.515,414.561,479.515,416.81,493.515z"/>
<path fill-rule="evenodd" clip-rule="evenodd" fill="#FB0F0C" stroke="#000000" stroke-width="1.25" stroke-linecap="square" stroke-miterlimit="10" d="  M392.812,423.765c-6.531,5.357-11.911,16.06-9.75,25.5c3.947,17.238,13.045,12.985,30,12c-5.758-10.721-5.823-18.835,5.998-20.25  C418.354,425.129,404.589,427.412,392.812,423.765z"/>
<path fill-rule="evenodd" clip-rule="evenodd" fill="#FFFFFF" d="M399.562,470.265v25.5V470.265z"/>
<line fill="none" stroke="#000000" stroke-width="1.25" stroke-linecap="square" stroke-miterlimit="10" x1="399.562" y1="470.265" x2="399.562" y2="495.765"/>
<path fill="none" stroke="#000000" stroke-width="1.25" stroke-linecap="square" stroke-miterlimit="10" d="M399.562,441.015  c2.703,2.782,6.178,3.639,9.75,2.25"/>
<path fill-rule="evenodd" clip-rule="evenodd" fill="#724211" stroke="#000000" stroke-width="1.25" stroke-linecap="square" stroke-miterlimit="10" d="  M401.062,407.265c19.319-15.786-23.603-24.928-19.5,6.75C385.441,443.971,429.199,423.68,401.062,407.265z"/>
<path fill-rule="evenodd" clip-rule="evenodd" stroke="#000000" stroke-width="1.25" stroke-linecap="square" stroke-miterlimit="10" d="  M407.812,403.515C406.637,403.694,406.244,403.754,407.812,403.515L407.812,403.515z"/>
<path fill-rule="evenodd" clip-rule="evenodd" fill="#F7F619" stroke="#000000" stroke-width="1.25" stroke-linecap="square" stroke-miterlimit="10" d="  M426.563,396.015C437.844,366.019,450.812,413.974,426.563,396.015L426.563,396.015z"/>
<path fill-rule="evenodd" clip-rule="evenodd" fill="#F7F619" stroke="#000000" stroke-width="1.25" stroke-linecap="square" stroke-miterlimit="10" d="  M425.063,397.515C400.078,380.068,447.144,380.93,425.063,397.515L425.063,397.515z"/>
<path fill-rule="evenodd" clip-rule="evenodd" fill="#F7F619" stroke="#000000" stroke-width="1.25" stroke-linecap="square" stroke-miterlimit="10" d="  M426.563,400.515C402.73,422.731,411.787,373.354,426.563,400.515L426.563,400.515z"/>
<path fill-rule="evenodd" clip-rule="evenodd" fill="#F7F619" stroke="#000000" stroke-width="1.25" stroke-linecap="square" stroke-miterlimit="10" d="  M428.813,400.515C444.919,429.302,398.315,403.643,428.813,400.515L428.813,400.515z"/>
<path fill-rule="evenodd" clip-rule="evenodd" fill="#F7F619" stroke="#000000" stroke-width="1.25" stroke-linecap="square" stroke-miterlimit="10" d="  M429.563,398.265C459.129,395.643,425.749,426.551,429.563,398.265L429.563,398.265z"/>
<path fill-rule="evenodd" clip-rule="evenodd" fill="#724211" stroke="#000000" stroke-width="1.25" stroke-linecap="square" stroke-miterlimit="10" d="  M431.813,399.015C420.81,397.337,421.485,397.44,431.813,399.015L431.813,399.015z"/>
<path fill-rule="evenodd" clip-rule="evenodd" fill="#FFFFFF" stroke="#000000" stroke-linecap="square" stroke-miterlimit="10" d="  M397.312,503.265c-23.506,0-47.012,0-70.518,0c-10.36,0-13.146-49.858-6.732-57c6.503-7.24,59.741,0,70.518,0  C404.842,446.265,397.312,490.357,397.312,503.265z"/>
<path fill-rule="evenodd" clip-rule="evenodd" fill="#FFFFFF" stroke="#000000" stroke-linecap="square" stroke-miterlimit="10" d="  M388.312,507.015c-25.75,0-51.5,0-77.25,0c0.883-7.459,3.886-57,8.549-57c25.15,0,50.3,0,75.451,0  C392.812,469.015,390.562,488.015,388.312,507.015z"/>
<path fill-rule="evenodd" clip-rule="evenodd" d="M365.062,458.265C364.487,453.777,364.384,452.97,365.062,458.265L365.062,458.265  z"/>
<path fill-rule="evenodd" clip-rule="evenodd" d="M346.312,458.265C345.737,453.777,345.634,452.97,346.312,458.265L346.312,458.265  z"/>
<path fill-rule="evenodd" clip-rule="evenodd" d="M383.812,458.265C383.237,453.777,383.134,452.97,383.812,458.265L383.812,458.265  z"/>
<path fill-rule="evenodd" clip-rule="evenodd" d="M327.562,458.265C326.987,453.777,326.884,452.97,327.562,458.265L327.562,458.265  z"/>
<path fill-rule="evenodd" clip-rule="evenodd" d="M327.562,442.515c-0.176,4.92-5.846,8.505,0.75,14.25  C326.916,450.28,327.809,444.599,327.562,442.515z"/>
<path fill-rule="evenodd" clip-rule="evenodd" d="M345.562,441.765c-0.128,5.998-6.202,9.229,0.75,15  c-0.85-3.941,1.018-12.07,0.75-10.5C351.001,444.514,345.46,443.917,345.562,441.765z"/>
<path fill-rule="evenodd" clip-rule="evenodd" d="M365.062,441.765c-0.188,5.674-6.066,9.424,0.75,15  C364.105,449.748,365.133,445.062,365.062,441.765z"/>
<path fill-rule="evenodd" clip-rule="evenodd" d="M383.062,441.765c-0.066,6.313-5.343,10.26,1.5,15  C382.508,449.129,382.98,444.947,383.062,441.765z"/>
<path fill="none" stroke="#000000" stroke-width="0.5" stroke-linecap="square" stroke-miterlimit="10" d="M384.562,501.015  c1.25-9.5,2.5-19,3.75-28.5c-18.032,0-36.064,0-54.096,0c-21.126,0-15.93,7.796-18.654,28.5  C338.562,501.015,361.562,501.015,384.562,501.015z"/>
<path fill-rule="evenodd" clip-rule="evenodd" d="M378.562,472.515l-3.75,28.5L378.562,472.515z"/>
<line fill="none" stroke="#000000" stroke-width="0.5" stroke-linecap="square" stroke-miterlimit="10" x1="378.562" y1="472.515" x2="374.812" y2="501.015"/>
<path fill-rule="evenodd" clip-rule="evenodd" d="M368.812,472.515l-3.75,28.5L368.812,472.515z"/>
<line fill="none" stroke="#000000" stroke-width="0.5" stroke-linecap="square" stroke-miterlimit="10" x1="368.812" y1="472.515" x2="365.062" y2="501.015"/>
<path fill-rule="evenodd" clip-rule="evenodd" d="M359.062,472.515l-3.75,28.5L359.062,472.515z"/>
<line fill="none" stroke="#000000" stroke-width="0.5" stroke-linecap="square" stroke-miterlimit="10" x1="359.062" y1="472.515" x2="355.312" y2="501.015"/>
<path fill-rule="evenodd" clip-rule="evenodd" d="M349.312,472.515l-4.5,28.5L349.312,472.515z"/>
<line fill="none" stroke="#000000" stroke-width="0.5" stroke-linecap="square" stroke-miterlimit="10" x1="349.312" y1="472.515" x2="344.812" y2="501.015"/>
<path fill-rule="evenodd" clip-rule="evenodd" d="M339.562,472.515l-4.5,28.5L339.562,472.515z"/>
<line fill="none" stroke="#000000" stroke-width="0.5" stroke-linecap="square" stroke-miterlimit="10" x1="339.562" y1="472.515" x2="335.062" y2="501.015"/>
<path fill-rule="evenodd" clip-rule="evenodd" d="M329.812,472.515l-4.5,28.5L329.812,472.515z"/>
<line fill="none" stroke="#000000" stroke-width="0.5" stroke-linecap="square" stroke-miterlimit="10" x1="329.812" y1="472.515" x2="325.312" y2="501.015"/>
<line fill="none" stroke="#000000" stroke-width="0.5" stroke-linecap="square" stroke-miterlimit="10" x1="318.562" y1="480.015" x2="387.562" y2="480.015"/>
<line fill="none" stroke="#000000" stroke-width="0.5" stroke-linecap="square" stroke-miterlimit="10" x1="317.812" y1="486.765" x2="386.812" y2="486.765"/>
<line fill="none" stroke="#000000" stroke-width="0.5" stroke-linecap="square" stroke-miterlimit="10" x1="317.062" y1="493.515" x2="386.062" y2="493.515"/>
<text transform="matrix(1 0 0 1 320.0801 471.0142)" font-family="'MyriadPro-Regular'" font-size="9">S  M  T  W  Th  F  S</text>
</svg>