<svg xmlns="http://www.w3.org/2000/svg" xmlns:xlink="http://www.w3.org/1999/xlink" version="1.1" id="Layer_1" x="0px" y="0px" enable-background="new 0 0 822.05 841.89" xml:space="preserve" viewBox="242.99 255.23 335.99 331.77">
<path fill-rule="evenodd" clip-rule="evenodd" fill="#FFF4C0" stroke="#000000" stroke-width="2" stroke-linecap="square" stroke-miterlimit="10" d="  M279.75,369.89c12.86-35.613,18.788-109.503,62.625-112.875c51.246-3.942,97.606,7.289,144.375,27.75  c27.415,11.994,86.205,37.811,90.75,70.875c5.031,36.596-30.589,93.016-42.416,124.769c-18.001,48.329-18.866,92.55-73.834,102.856  c-44.736,8.388-90.536-3.261-130.125-24.375c-26.012-13.873-70.772-35.01-83.25-64.125  C232.317,458.464,267.735,403.635,279.75,369.89z"/>
<path fill="none" stroke="#000000" stroke-width="2" stroke-linecap="square" stroke-miterlimit="10" d="M318.75,261.89  c60.168,78.45,161.14,105.883,256.5,96"/>
</svg>