<svg xmlns="http://www.w3.org/2000/svg" xmlns:xlink="http://www.w3.org/1999/xlink" version="1.1" id="Layer_1" x="0px" y="0px" enable-background="new 0 0 822.05 841.89" xml:space="preserve" viewBox="218.06 249.01 385.44 342.36">
<path fill-rule="evenodd" clip-rule="evenodd" fill="#CB97C4" stroke="#000000" stroke-width="2" stroke-linecap="square" stroke-miterlimit="10" d="  M340.75,562.757c28.452-65.688,56.904-131.376,85.356-197.064c17.575-40.576,29.296-85.914,79.269-45.936  c22.065,17.652-44.936,136.764-54.067,159.043c-13.764,33.578-27.526,67.155-41.289,100.732  C402.808,597.125,356.188,568.546,340.75,562.757z"/>
<path fill-rule="evenodd" clip-rule="evenodd" fill="#904098" stroke="#000000" stroke-width="2" stroke-linecap="square" stroke-miterlimit="10" d="  M407.5,586.757c-11.646,8.38-74.695,2.314-69-19.5C344.264,545.178,402.771,573.443,407.5,586.757z"/>
<path fill-rule="evenodd" clip-rule="evenodd" fill="#F9CBDF" d="M457.75,301.757c16.651-25.246,20.278-42.589,51.75-30  c26.757,10.703,9.083,34.851,3,57.75C498.78,323.848,451.274,309.877,457.75,301.757z"/>
<path fill="none" stroke="#000000" stroke-width="2" stroke-linecap="square" stroke-miterlimit="10" d="M457.75,301.757  c16.651-25.246,20.278-42.589,51.75-30c26.757,10.703,9.083,34.851,3,57.75c-20-8.25-40-16.5-60-24.75"/>
<path fill-rule="evenodd" clip-rule="evenodd" fill="#F9CBDF" d="M475.75,277.757c15.213,1.82,30.521,5.011,43.5,13.5  C504.75,286.757,490.25,282.257,475.75,277.757z"/>
<path fill="none" stroke="#000000" stroke-width="2" stroke-linecap="square" stroke-miterlimit="10" d="M475.75,277.757  c15.213,1.82,30.521,5.011,43.5,13.5"/>
<path fill-rule="evenodd" clip-rule="evenodd" fill="#F9CBDF" d="M469.75,289.007c17.576,0.631,35.118,7.169,49.5,17.25  C502.75,300.507,486.25,294.757,469.75,289.007z"/>
<path fill="none" stroke="#000000" stroke-width="2" stroke-linecap="square" stroke-miterlimit="10" d="M469.75,289.007  c17.576,0.631,35.118,7.169,49.5,17.25"/>
<path fill-rule="evenodd" clip-rule="evenodd" fill="#CB97C4" stroke="#000000" stroke-width="2" stroke-linecap="square" stroke-miterlimit="10" d="  M239.5,250.007c-11.127,11.368-17.91,24.78-19.875,40.5c-3.319,26.553,8.244,26.819,31.167,34.266  c38.231,12.42,76.462,24.84,114.693,37.261c8.302,2.697,24.76-59.217,28.515-70.027C342.5,278.007,291,264.007,239.5,250.007z"/>
<path fill-rule="evenodd" clip-rule="evenodd" fill="#904098" stroke="#000000" stroke-width="2" stroke-linecap="square" stroke-miterlimit="10" d="  M391.75,332.507c-12.361,40.424-36.341,31.224-23.25-8.25C381.73,284.362,406.004,293.457,391.75,332.507z"/>
<path fill-rule="evenodd" clip-rule="evenodd" fill="#6D6F71" stroke="#000000" stroke-width="2" stroke-linecap="square" stroke-miterlimit="10" d="  M383.5,319.007c-17.004,10.456-2.647,14.625,10.594,19.066c33.575,11.262,67.149,22.525,100.724,33.787  c38.806,13.017,61.667,41.51,107.682,26.646c-9.774-26.753-41.804-33.907-66.75-39C484.031,348.95,434.315,334.252,383.5,319.007z"/>
</svg>