<svg xmlns="http://www.w3.org/2000/svg" xmlns:xlink="http://www.w3.org/1999/xlink" version="1.1" id="Layer_1" x="0px" y="0px" enable-background="new 0 0 822.05 841.89" xml:space="preserve" viewBox="199.2 280.66 422.53 286.32">
<path fill-rule="evenodd" clip-rule="evenodd" fill="#F9CBDF" stroke="#000000" stroke-width="2" stroke-linecap="square" stroke-miterlimit="10" d="  M201.311,416.289c29.32,40.922,58.641,81.844,87.961,122.766c12.449,17.375,26.205,35.504,49.719,22.496  c90.491-50.059,180.982-100.117,271.473-150.176c37.479-20.732-38.683-59.955-53.103-70.296  c-22.272-15.973-71.441-70.039-99.152-57.568c-54.453,24.504-108.906,49.007-163.358,73.511  C275.814,365.587,189.451,387.398,201.311,416.289z"/>
<path fill-rule="evenodd" clip-rule="evenodd" fill="#CB97C4" stroke="#000000" stroke-width="2" stroke-linecap="square" stroke-miterlimit="10" d="  M277.061,406.539c20.298,28.514,45.321,92.891,83.25,88.5c21.372-2.475,52.745-29.148,71.309-39.407  c31.275-17.284,62.552-34.568,93.827-51.852c22.059-12.19-75.009-85.268-92.134-77.569  C408.653,337.295,272.855,382.205,277.061,406.539z"/>
</svg>