<svg xmlns="http://www.w3.org/2000/svg" xmlns:xlink="http://www.w3.org/1999/xlink" version="1.1" id="Layer_1" x="0px" y="0px" enable-background="new 0 0 822.05 841.89" xml:space="preserve" viewBox="233.79 248.86 352.71 345.99">
<path fill-rule="evenodd" clip-rule="evenodd" d="M586.5,335.14c-31.177,0-62.354,0-93.529,0c-13.463,0-26.926,0-40.389,0  c-0.652,0-3.506-29.658-1.082-32.25c9.021-9.646,79.848,0,93.529,0C583.72,302.89,586.5,295.388,586.5,335.14z"/>
<path fill-rule="evenodd" clip-rule="evenodd" d="M566.25,485.89c-27,36-54,72-81,108c-31.959-24.654-24.929-22.012-1.368-53.426  c18.706-24.941,37.412-49.883,56.118-74.824C548.75,472.39,557.5,479.14,566.25,485.89z"/>
<path fill-rule="evenodd" clip-rule="evenodd" d="M551.25,587.89c-21.823-22.17-43.647-44.34-65.471-66.51  c-27.401-27.836-34.171-24.349-5.779-52.74c31.5,32.25,63,64.5,94.5,96.75C566.75,572.89,559,580.39,551.25,587.89z"/>
<path fill-rule="evenodd" clip-rule="evenodd" d="M373.5,542.89c-31.35,0-62.7,0-94.049,0c-13.538,0-27.075,0-40.612,0  c-0.624,0-3.569-30.379-1.088-33c9.224-9.748,80.172,0,94.049,0C371.083,509.89,373.5,502.497,373.5,542.89z"/>
<path fill-rule="evenodd" clip-rule="evenodd" d="M321.75,458.89c0,31.177,0,62.354,0,93.529c0,13.463,0,26.926,0,40.389  c0,0.652-29.658,3.506-32.25,1.082c-9.646-9.021,0-79.849,0-93.529C289.5,461.67,281.998,458.89,321.75,458.89z"/>
<path fill-rule="evenodd" clip-rule="evenodd" d="M370.5,334.39c-31.35,0-62.7,0-94.049,0c-13.538,0-27.075,0-40.612,0  c-0.667,0-3.512-29.649-1.088-32.25c9.024-9.685,80.33,0,94.049,0C367.584,302.14,370.5,294.549,370.5,334.39z"/>
<path fill-rule="evenodd" clip-rule="evenodd" d="M320.25,266.14c-3.082,25.083-39.709,20.094-34.5-3.75  C290.309,241.525,318.139,246.37,320.25,266.14z"/>
<path fill-rule="evenodd" clip-rule="evenodd" d="M321,368.14c-1.775,20.874-34.5,24.258-34.5,1.875  C286.5,346.86,318.702,344.948,321,368.14z"/>
</svg>