<svg xmlns="http://www.w3.org/2000/svg" xmlns:xlink="http://www.w3.org/1999/xlink" version="1.1" id="Layer_1" x="0px" y="0px" enable-background="new 0 0 822.05 841.89" xml:space="preserve" viewBox="207.67 256.56 403.55 329.99">
<path fill-rule="evenodd" clip-rule="evenodd" fill="#F9CBDF" stroke="#000000" stroke-width="2" stroke-linecap="square" stroke-miterlimit="10" d="  M304.796,342.287c20.976,29.225,48.206,98.187,87.75,93c21.35-2.8,51.689-28.668,70.256-38.965  c34.18-18.957,68.358-37.913,102.538-56.869c22.208-12.317-78.503-89.083-95.874-81.346  C443.867,269.509,299.754,317.124,304.796,342.287z"/>
<path fill-rule="evenodd" clip-rule="evenodd" fill="#CB97C4" stroke="#000000" stroke-width="2" stroke-linecap="square" stroke-miterlimit="10" d="  M352.796,337.037c12.29,17.07,28.63,57.493,51.75,57c29.055-0.619,80.275-44.755,106.091-59.175  c15.483-8.649-47.879-53.956-58.818-49.077C430.578,295.258,355.538,315.94,352.796,337.037z"/>
<path fill-rule="evenodd" clip-rule="evenodd" fill="#F9CBDF" stroke="#000000" stroke-width="2" stroke-linecap="square" stroke-miterlimit="10" d="  M208.796,442.787c19.773,27.55,47.931,96.533,85.5,94.5c17.549-0.949,48.241-27.007,63.252-35.333  c35.871-19.895,71.741-39.789,107.612-59.683c33.164-18.394-75.526-90.866-91.696-83.664  C347.865,370.009,203.754,417.624,208.796,442.787z"/>
<path fill-rule="evenodd" clip-rule="evenodd" fill="#CB97C4" stroke="#000000" stroke-width="2" stroke-linecap="square" stroke-miterlimit="10" d="  M256.796,437.537c12.282,17.059,28.664,57.49,51.75,57c29.052-0.617,80.278-44.756,106.091-59.176  c15.473-8.643-47.211-53.92-58.07-49.076C334.203,396.26,261.974,415.207,256.796,437.537z"/>
<path fill-rule="evenodd" clip-rule="evenodd" fill="#F9CBDF" stroke="#000000" stroke-width="2" stroke-linecap="square" stroke-miterlimit="10" d="  M346.796,492.287c20.711,29.184,47.873,98.061,87.002,93c21.423-2.771,51.906-28.668,70.55-38.965  c34.323-18.957,68.646-37.913,102.968-56.869c21.06-11.631-78.968-89.199-96.6-81.346  C485.747,419.228,340.228,468.778,346.796,492.287z"/>
<path fill-rule="evenodd" clip-rule="evenodd" fill="#CB97C4" stroke="#000000" stroke-width="2" stroke-linecap="square" stroke-miterlimit="10" d="  M394.796,486.287c11.929,16.567,28.962,58.192,51.752,57.75c27.758-0.539,80.231-45.24,105.367-59.204  c16.557-9.198-47.347-53.843-58.097-49.048C472.429,445.325,398.714,465.591,394.796,486.287z"/>
</svg>