<svg xmlns="http://www.w3.org/2000/svg" xmlns:xlink="http://www.w3.org/1999/xlink" version="1.1" id="Layer_1" x="0px" y="0px" enable-background="new 0 0 822.05 841.89" xml:space="preserve" viewBox="319.06 335.49 184.13 171.5">
<path fill-rule="evenodd" clip-rule="evenodd" fill="#F8130D" stroke="#000000" stroke-width="1.25" stroke-linecap="square" stroke-miterlimit="10" d="  M453.813,365.363c14.574-4.623,15.326-19.626,18.75-29.25C480.725,351.906,466.126,370.829,453.813,365.363z"/>
<path fill-rule="evenodd" clip-rule="evenodd" fill="#F8130D" stroke="#000000" stroke-width="1.25" stroke-linecap="square" stroke-miterlimit="10" d="  M444.063,377.363c41.638,21.302-36.101,51.358-23.254,69.748c7.992,11.44,38.954-4.75,51.379,4.125  c15.312,10.937,23.236,29.224,28.125,46.875c-2,1-4,2-6,3c-4.176-15.924-12.928-38.566-28.125-47.25  c-11.965-6.837-47.292,6.995-52.877-6.75c-5.604-13.792,26.988-26.365,31.502-37.498  C450.831,394.771,440.113,381.364,444.063,377.363z"/>
<path fill-rule="evenodd" clip-rule="evenodd" fill="#279A30" stroke="#000000" stroke-width="1.25" stroke-linecap="square" stroke-miterlimit="10" d="  M467.313,373.613C396.706,373.613,464.519,354.133,467.313,373.613L467.313,373.613z"/>
<path fill-rule="evenodd" clip-rule="evenodd" fill="#FFFFFF" stroke="#000000" stroke-width="1.25" stroke-linecap="square" stroke-miterlimit="10" d="  M453.813,384.863c-2.5-0.75-5-1.5-7.5-2.25c-1.12,12.707-1.697,13.602,7.5,18C453.813,395.392,454.197,390.066,453.813,384.863z"/>
<path fill-rule="evenodd" clip-rule="evenodd" fill="#FFFFFF" stroke="#000000" stroke-width="1.25" stroke-linecap="square" stroke-miterlimit="10" d="  M446.313,461.361c2.5,0.75,5,1.5,7.5,2.25c1.12-12.707,1.697-13.602-7.5-18C446.313,450.832,445.93,456.157,446.313,461.361z"/>
<path fill-rule="evenodd" clip-rule="evenodd" fill="#FFFFFF" stroke="#000000" stroke-width="1.25" stroke-linecap="square" stroke-miterlimit="10" d="  M453.813,361.613c-12.105,2.582-10.599,13.615,0,18.75C453.813,374.164,454.368,367.781,453.813,361.613z"/>
<path fill-rule="evenodd" clip-rule="evenodd" fill="#FFFFFF" stroke="#000000" stroke-width="1.25" stroke-linecap="square" stroke-miterlimit="10" d="  M446.313,440.361c2.5,0.75,5,1.5,7.5,2.25c0.997-12.227,1.488-13.176-7.5-18C446.313,429.829,445.909,435.163,446.313,440.361z"/>
<path fill-rule="evenodd" clip-rule="evenodd" fill="#FFFFFF" stroke="#000000" stroke-width="1.25" stroke-linecap="square" stroke-miterlimit="10" d="  M446.313,482.361c2.5,0.75,5,1.5,7.5,2.25c1.012-12.505,1.59-13.736-7.5-18.75C446.313,471.328,445.894,476.914,446.313,482.361z"/>
<path fill-rule="evenodd" clip-rule="evenodd" fill="#FFFFFF" stroke="#000000" stroke-width="1.25" stroke-linecap="square" stroke-miterlimit="10" d="  M446.313,403.613c-0.801,9.822-2.583,15.793,7.5,18C457.3,410.356,453.836,407.65,446.313,403.613z"/>
<path fill-rule="evenodd" clip-rule="evenodd" fill="#FFFFFF" stroke="#000000" stroke-width="1.25" stroke-linecap="square" stroke-miterlimit="10" d="  M446.313,506.361c12.148-2.778,10.672-14.168,0-19.5C446.313,492.955,444.787,500.513,446.313,506.361z"/>
<path fill-rule="evenodd" clip-rule="evenodd" fill="#F8130D" stroke="#000000" stroke-width="1.25" stroke-linecap="square" stroke-miterlimit="10" d="  M453.813,380.363c-2.5-0.75-5-1.5-7.5-2.25C449.593,388.072,451.552,380.886,453.813,380.363z"/>
<path fill-rule="evenodd" clip-rule="evenodd" fill="#F8130D" stroke="#000000" stroke-width="1.25" stroke-linecap="square" stroke-miterlimit="10" d="  M453.813,400.613c-2.5-0.5-5-1-7.5-1.5C450.137,409.71,451.072,401.685,453.813,400.613z"/>
<path fill-rule="evenodd" clip-rule="evenodd" fill="#F8130D" stroke="#000000" stroke-width="1.25" stroke-linecap="square" stroke-miterlimit="10" d="  M446.313,424.611c2.5,0.75,5,1.5,7.5,2.25C450.436,415.36,449.145,423.647,446.313,424.611z"/>
<path fill-rule="evenodd" clip-rule="evenodd" fill="#F8130D" stroke="#000000" stroke-width="1.25" stroke-linecap="square" stroke-miterlimit="10" d="  M446.313,445.611c2.5,0.5,5,1,7.5,1.5C449.99,436.513,449.055,444.539,446.313,445.611z"/>
<path fill-rule="evenodd" clip-rule="evenodd" fill="#F8130D" stroke="#000000" stroke-width="1.25" stroke-linecap="square" stroke-miterlimit="10" d="  M446.313,465.861c2.5,0.75,5,1.5,7.5,2.25C450.534,458.152,448.575,465.337,446.313,465.861z"/>
<path fill-rule="evenodd" clip-rule="evenodd" fill="#F8130D" stroke="#000000" stroke-width="1.25" stroke-linecap="square" stroke-miterlimit="10" d="  M446.313,486.861c2.5,0.75,5,1.5,7.5,2.25C450.534,479.152,448.575,486.337,446.313,486.861z"/>
<path fill-rule="evenodd" clip-rule="evenodd" fill="#F7F619" stroke="#000000" stroke-width="1.25" stroke-linecap="square" stroke-miterlimit="10" d="  M458.313,354.113C440.104,380.605,440.104,327.621,458.313,354.113L458.313,354.113z"/>
<path fill-rule="evenodd" clip-rule="evenodd" fill="#F8130D" stroke="#000000" stroke-width="1.25" stroke-linecap="square" stroke-miterlimit="10" d="  M442.563,358.613c-2.75,3-5.5,6-8.25,9c1.75,0.75,3.5,1.5,5.25,2.25C445.91,365.114,441.81,360.376,442.563,358.613z"/>
<path fill-rule="evenodd" clip-rule="evenodd" fill="#F8130D" stroke="#000000" stroke-width="1.25" stroke-linecap="square" stroke-miterlimit="10" d="  M455.313,360.863c1.855,0.731,7.42-2.922,12,6.75c-1.25,0.75-2.5,1.5-3.75,2.25C460.813,366.863,458.063,363.863,455.313,360.863z"/>
<path fill-rule="evenodd" clip-rule="evenodd" fill="#F8130D" stroke="#000000" stroke-width="1.25" stroke-linecap="square" stroke-miterlimit="10" d="  M448.563,362.363c0.497,1.423,6.016,1.981,4.5,9c-1.75,0-3.5,0-5.25,0C448.063,368.363,448.313,365.363,448.563,362.363z"/>
<path fill-rule="evenodd" clip-rule="evenodd" fill="#F8130D" stroke="#000000" stroke-width="1.25" stroke-linecap="square" stroke-miterlimit="10" d="  M436.563,372.113c-27.59,36.88,35.884,30.478,34.5,52.498c-0.81,12.875-30.591,14.208-37.5,20.25  c-15.415,13.481-17.957,40.182-18.754,59.25c1.75,0,3.5,0,5.25,0c0.827-19.774,3.537-45.654,19.504-59.25  c7.172-6.107,39.598-8.171,37.5-23.248c-1.594-11.453-29.075-12.268-35.625-21C431.67,387.587,443.567,376.144,436.563,372.113z"/>
<path fill-rule="evenodd" clip-rule="evenodd" fill="#F8130D" stroke="#000000" stroke-width="1.25" stroke-linecap="square" stroke-miterlimit="10" d="  M467.313,372.113c14.065,3.8,17.837-10.093,31.5-6.75c1.25-1.5,2.5-3,3.75-4.5C488.355,351.831,479.156,368.078,467.313,372.113z"/>
<path fill-rule="evenodd" clip-rule="evenodd" fill="#F8130D" stroke="#000000" stroke-width="1.25" stroke-linecap="square" stroke-miterlimit="10" d="  M432.063,366.863c-26.959-13.756-28.118,16.158-33.752,30c17.081-3.708,5.667-17.636,12.75-23.25  C417.479,368.526,433.162,366.783,432.063,366.863z"/>
<path fill-rule="evenodd" clip-rule="evenodd" fill="#279A30" stroke="#000000" stroke-width="1.25" stroke-linecap="square" stroke-miterlimit="10" d="  M467.313,367.613c-5.963,2.625-37.797,2.154-37.5,3.75C431.355,379.649,477.523,383.909,467.313,367.613z"/>
<path fill-rule="evenodd" clip-rule="evenodd" fill="#FFFFFF" stroke="#000000" stroke-linecap="square" stroke-miterlimit="10" d="  M405.812,498.861c-23.506,0-47.012,0-70.518,0c-10.36,0-13.146-49.858-6.732-57c6.503-7.24,59.741,0,70.518,0  C413.342,441.861,405.812,485.953,405.812,498.861z"/>
<path fill-rule="evenodd" clip-rule="evenodd" fill="#FFFFFF" stroke="#000000" stroke-linecap="square" stroke-miterlimit="10" d="  M396.812,502.611c-25.75,0-51.5,0-77.25,0c0.883-7.459,3.886-57,8.549-57c25.15,0,50.3,0,75.451,0  C401.312,464.611,399.062,483.611,396.812,502.611z"/>
<path fill-rule="evenodd" clip-rule="evenodd" d="M373.562,453.861C372.987,449.373,372.884,448.566,373.562,453.861  L373.562,453.861z"/>
<path fill-rule="evenodd" clip-rule="evenodd" d="M354.812,453.861C354.237,449.373,354.134,448.566,354.812,453.861  L354.812,453.861z"/>
<path fill-rule="evenodd" clip-rule="evenodd" d="M392.312,453.861C391.737,449.373,391.634,448.566,392.312,453.861  L392.312,453.861z"/>
<path fill-rule="evenodd" clip-rule="evenodd" d="M336.062,453.861C335.487,449.373,335.384,448.566,336.062,453.861  L336.062,453.861z"/>
<path fill-rule="evenodd" clip-rule="evenodd" d="M336.062,438.111c-0.176,4.92-5.846,8.505,0.75,14.25  C335.416,445.875,336.309,440.195,336.062,438.111z"/>
<path fill-rule="evenodd" clip-rule="evenodd" d="M354.062,437.361c-0.128,5.998-6.202,9.229,0.75,15  c-0.85-3.941,1.018-12.07,0.75-10.5C359.501,440.11,353.96,439.513,354.062,437.361z"/>
<path fill-rule="evenodd" clip-rule="evenodd" d="M373.562,437.361c-0.188,5.674-6.066,9.424,0.75,15  C372.605,445.343,373.633,440.658,373.562,437.361z"/>
<path fill-rule="evenodd" clip-rule="evenodd" d="M391.562,437.361c-0.066,6.313-5.343,10.26,1.5,15  C391.008,444.725,391.48,440.542,391.562,437.361z"/>
<path fill="none" stroke="#000000" stroke-width="0.5" stroke-linecap="square" stroke-miterlimit="10" d="M393.062,496.611  c1.25-9.5,2.5-19,3.75-28.5c-18.032,0-36.064,0-54.096,0c-21.126,0-15.93,7.796-18.654,28.5  C347.062,496.611,370.062,496.611,393.062,496.611z"/>
<path fill-rule="evenodd" clip-rule="evenodd" d="M387.062,468.111l-3.75,28.5L387.062,468.111z"/>
<line fill="none" stroke="#000000" stroke-width="0.5" stroke-linecap="square" stroke-miterlimit="10" x1="387.062" y1="468.111" x2="383.312" y2="496.611"/>
<path fill-rule="evenodd" clip-rule="evenodd" d="M377.312,468.111l-3.75,28.5L377.312,468.111z"/>
<line fill="none" stroke="#000000" stroke-width="0.5" stroke-linecap="square" stroke-miterlimit="10" x1="377.312" y1="468.111" x2="373.562" y2="496.611"/>
<path fill-rule="evenodd" clip-rule="evenodd" d="M367.562,468.111l-3.75,28.5L367.562,468.111z"/>
<line fill="none" stroke="#000000" stroke-width="0.5" stroke-linecap="square" stroke-miterlimit="10" x1="367.562" y1="468.111" x2="363.812" y2="496.611"/>
<path fill-rule="evenodd" clip-rule="evenodd" d="M357.812,468.111l-4.5,28.5L357.812,468.111z"/>
<line fill="none" stroke="#000000" stroke-width="0.5" stroke-linecap="square" stroke-miterlimit="10" x1="357.812" y1="468.111" x2="353.312" y2="496.611"/>
<path fill-rule="evenodd" clip-rule="evenodd" d="M348.062,468.111l-4.5,28.5L348.062,468.111z"/>
<line fill="none" stroke="#000000" stroke-width="0.5" stroke-linecap="square" stroke-miterlimit="10" x1="348.062" y1="468.111" x2="343.562" y2="496.611"/>
<path fill-rule="evenodd" clip-rule="evenodd" d="M338.312,468.111l-4.5,28.5L338.312,468.111z"/>
<line fill="none" stroke="#000000" stroke-width="0.5" stroke-linecap="square" stroke-miterlimit="10" x1="338.312" y1="468.111" x2="333.812" y2="496.611"/>
<line fill="none" stroke="#000000" stroke-width="0.5" stroke-linecap="square" stroke-miterlimit="10" x1="327.062" y1="475.611" x2="396.062" y2="475.611"/>
<line fill="none" stroke="#000000" stroke-width="0.5" stroke-linecap="square" stroke-miterlimit="10" x1="326.312" y1="482.361" x2="395.312" y2="482.361"/>
<line fill="none" stroke="#000000" stroke-width="0.5" stroke-linecap="square" stroke-miterlimit="10" x1="325.562" y1="489.111" x2="394.562" y2="489.111"/>
<text transform="matrix(1 0 0 1 327.0557 465.8843)" font-family="'MyriadPro-Regular'" font-size="9">S  M  T  W  Th  F  S</text>
</svg>