<svg xmlns="http://www.w3.org/2000/svg" xmlns:xlink="http://www.w3.org/1999/xlink" version="1.1" id="Layer_1" x="0px" y="0px" enable-background="new 0 0 822.05 841.89" xml:space="preserve" viewBox="314.74 340.09 191.11 165.18">
<path fill-rule="evenodd" clip-rule="evenodd" fill="#EBCBA7" stroke="#000000" stroke-width="1.25" stroke-linecap="square" stroke-miterlimit="10" d="  M424.867,424.277c-28.324-16.008-31.086-11.612-58.875-1.501c-12.176,4.431-24.323,28.501-4.33,28.501  C399.682,451.277,414.411,461.918,424.867,424.277z"/>
<path fill-rule="evenodd" clip-rule="evenodd" fill="#1D529A" stroke="#000000" stroke-width="1.25" stroke-linecap="square" stroke-miterlimit="10" d="  M483.367,470.027c-14.003-14.969-28.006-29.937-42.008-44.905c-10.77-11.512-17.168,0.472-23.242,2.155  c-12.191,3.379-16.601,15.41-32.625,9c-16.058-6.423-17.487-25.979-37.875-13.502c-18.361,11.236-26.16,63.48-32.25,81.752  c32.842,0,65.684,0,98.525,0c32.735,0,27.499-7.697,25.975-39C456.37,486.651,472.898,507.802,483.367,470.027z"/>
<path fill-rule="evenodd" clip-rule="evenodd" fill="#1D529A" d="M460.867,455.777c8.843-16.107,14.182-32.172,27-35.252  c5.597-1.345,9.913-0.133,15.75-2.25c-4.069,21.81-13.592,41.337-24,60.752C473.367,471.277,467.117,463.527,460.867,455.777z"/>
<path fill="none" stroke="#000000" stroke-width="1.25" stroke-linecap="square" stroke-miterlimit="10" d="M460.867,455.777  c8.843-16.107,14.182-32.172,27-35.252c5.597-1.345,9.913-0.133,15.75-2.25c-4.069,21.81-13.592,41.337-24,60.752"/>
<path fill-rule="evenodd" clip-rule="evenodd" fill="#EBCBA7" stroke="#000000" stroke-width="1.25" stroke-linecap="square" stroke-miterlimit="10" d="  M487.117,402.525c-9.023-2.106-13.655-1.963-15,10.5C477.16,410.373,482.917,406.71,487.117,402.525z"/>
<path fill-rule="evenodd" clip-rule="evenodd" fill="#EBCBA7" stroke="#000000" stroke-width="1.25" stroke-linecap="square" stroke-miterlimit="10" d="  M493.117,404.025c-13.878-5.22-31.201,6.087-33.75,18c4.083-2.456,10.402-4.069,15-6.75  C474.861,444.608,528.603,413.404,493.117,404.025z"/>
<path fill-rule="evenodd" clip-rule="evenodd" fill="#EBCBA7" d="M496.117,419.775c-2.457,2.422-4.106,5.111-7.5,6.752  C491.117,424.276,493.617,422.026,496.117,419.775z"/>
<path fill="none" stroke="#000000" stroke-width="1.25" stroke-linecap="square" stroke-miterlimit="10" d="M496.117,419.775  c-1.752,2.897-4.387,5.247-7.5,6.752"/>
<path fill-rule="evenodd" clip-rule="evenodd" fill="#EBCBA7" stroke="#000000" stroke-width="1.25" stroke-linecap="square" stroke-miterlimit="10" d="  M343.867,474.527C338.979,444.432,371.838,461.188,343.867,474.527L343.867,474.527z"/>
<path fill-rule="evenodd" clip-rule="evenodd" fill="#EBCBA7" stroke="#000000" stroke-width="1.25" stroke-linecap="square" stroke-miterlimit="10" d="  M345.367,481.277c-4.217-16.811,10.434-31.423,25.5-33.75c-2.267,2.063-6.127,9.362-10.5,12.75c9.285,1.171,1.471,0.91,6,4.5  C385.435,469.932,357.587,500.63,345.367,481.277z"/>
<line fill="none" stroke="#000000" stroke-width="1.25" stroke-linecap="square" stroke-miterlimit="10" x1="371.617" y1="477.527" x2="371.617" y2="477.527"/>
<line fill="none" stroke="#000000" stroke-width="1.25" stroke-linecap="square" stroke-miterlimit="10" x1="352.867" y1="489.527" x2="352.867" y2="489.527"/>
<path fill-rule="evenodd" clip-rule="evenodd" fill="#1D529A" stroke="#000000" stroke-width="1.25" stroke-linecap="square" stroke-miterlimit="10" d="  M367.117,483.527c-11.104,24.033-21.154,21-45,21c10.224-12.05,16.558-18.702,25.5-21  C355.028,481.623,357.928,489.452,367.117,483.527z"/>
<path fill-rule="evenodd" clip-rule="evenodd" fill="#EBCBA7" stroke="#000000" stroke-width="1.25" stroke-linecap="square" stroke-miterlimit="10" d="  M364.867,398.775C368.217,424.37,340.672,391.333,364.867,398.775L364.867,398.775z"/>
<path fill-rule="evenodd" clip-rule="evenodd" fill="#EBCBA7" stroke="#000000" stroke-width="1.25" stroke-linecap="square" stroke-miterlimit="10" d="  M425.617,383.025C412.012,408.862,412.012,357.188,425.617,383.025L425.617,383.025z"/>
<path fill-rule="evenodd" clip-rule="evenodd" fill="#EBCBA7" stroke="#000000" stroke-width="1.25" stroke-linecap="square" stroke-miterlimit="10" d="  M352.117,378.525c3.226,43.372,68.25,62.019,68.25,9C420.367,331.163,346.593,322.741,352.117,378.525z"/>
<path fill-rule="evenodd" clip-rule="evenodd" fill="#5A0C08" stroke="#000000" stroke-linecap="square" stroke-miterlimit="10" d="  M413.619,392.025c-8.288,16.208-17.024,26.969-33.002,12C392.388,403.134,403.687,398.416,413.619,392.025z"/>
<path fill="none" stroke="#000000" stroke-linecap="square" stroke-miterlimit="10" d="M391.117,392.025  c2.807,1.646,5.212,0.895,6.75-2.25"/>
<path fill-rule="evenodd" clip-rule="evenodd" d="M382.867,386.025c-1.982,1.282,0.591,6.577-4.5,2.25  C378.41,382.931,381.078,387.182,382.867,386.025z"/>
<path fill-rule="evenodd" clip-rule="evenodd" d="M403.117,380.775c-1.792,0.697-0.207,5.436-4.5,1.5  C399.696,377.174,402.006,381.207,403.117,380.775z"/>
<path fill="none" stroke="#000000" stroke-width="0.75" stroke-linecap="square" stroke-miterlimit="10" d="M374.617,389.775  c2.674-4.58,6.954-6.178,12-4.5"/>
<path fill="none" stroke="#000000" stroke-width="0.75" stroke-linecap="square" stroke-miterlimit="10" d="M407.617,380.025  c-4.864-1.951-9.161-0.656-12,3.75"/>
</svg>