<svg xmlns="http://www.w3.org/2000/svg" xmlns:xlink="http://www.w3.org/1999/xlink" version="1.1" id="Layer_1" x="0px" y="0px" enable-background="new 0 0 822.05 841.89" xml:space="preserve" viewBox="200.6 263.78 416.9 315.61">
<path fill-rule="evenodd" clip-rule="evenodd" fill="#F7931E" stroke="#000000" stroke-width="2" stroke-linecap="square" stroke-miterlimit="10" d="  M202.894,473.392c0-83.875-16.14-147.7,65.5-193.056c58.42-32.456,128.725-12.478,163.252,44.556  c21.466,35.458,14.154,55.614,12,91.5c-1.379,22.968,6.629,34.51,6.194,58.861c-0.266,14.854-16.536,52.153-29.444,58.889  c-12.188,6.359-43.076-4.945-54.685-7.461c-34.022-7.371-68.045-14.742-102.067-22.114  C243.268,500.153,205.479,501.271,202.894,473.392z"/>
<path fill-rule="evenodd" clip-rule="evenodd" fill="#BCBEC0" stroke="#000000" stroke-width="2" stroke-linecap="square" stroke-miterlimit="10" d="  M373.894,425.392c-21.802,84.469-171.075,50.052-151.5-35.25C241.905,305.117,390.703,339.667,373.894,425.392z"/>
<path fill="none" stroke="#000000" stroke-width="2" stroke-linecap="square" stroke-miterlimit="10" d="M202.894,357.142  c41.087-59.016,111.673-65.612,165-20.25c26.497,22.54,46.212,52.867,36,89.25c-2.261,8.055-26.874,40.744-9.611,43.333  c29.485,4.423-6.671,51.243,33.613,50.417"/>
<path fill-rule="evenodd" clip-rule="evenodd" fill="#6D6F71" stroke="#000000" stroke-width="2" stroke-linecap="square" stroke-miterlimit="10" d="  M380.644,331.642c24.532-14.152,52.488-33.885,59.252,9.75c2.679,17.283-2.805,16.761-19.02,30.66  C415.051,377.044,386.774,338.631,380.644,331.642z"/>
<path fill-rule="evenodd" clip-rule="evenodd" fill="#FFDB78" stroke="#000000" stroke-width="2" stroke-linecap="square" stroke-miterlimit="10" d="  M412.896,503.392c11.854-7.719,24.992-22.387,39.501-19.614c29.216,5.583,58.431,11.167,87.646,16.75  c20.78,3.972,92.618,1.095,67.103,35.864c-14.438,19.674-39.767,9.316-58.692,5.194C526.074,536.713,415.45,526.575,412.896,503.392  z"/>
<path fill-rule="evenodd" clip-rule="evenodd" fill="#BCBEC0" stroke="#000000" stroke-width="2" stroke-linecap="square" stroke-miterlimit="10" d="  M584.646,552.892c0.35,8.339,3.563,17.307,5.25,25.5c31.671-22.503,28.015-24.938,24-63.75  C612.993,532.715,602.421,548.301,584.646,552.892z"/>
<line fill="none" stroke="#000000" stroke-width="2" stroke-linecap="square" stroke-miterlimit="10" x1="453.396" y1="495.892" x2="601.146" y2="527.392"/>
<line fill="none" stroke="#000000" stroke-width="2" stroke-linecap="square" stroke-miterlimit="10" x1="584.646" y1="525.142" x2="566.646" y2="536.392"/>
<line fill="none" stroke="#000000" stroke-width="2" stroke-linecap="square" stroke-miterlimit="10" x1="568.146" y1="519.892" x2="550.146" y2="531.142"/>
<line fill="none" stroke="#000000" stroke-width="2" stroke-linecap="square" stroke-miterlimit="10" x1="550.896" y1="516.142" x2="532.146" y2="527.392"/>
<line fill="none" stroke="#000000" stroke-width="2" stroke-linecap="square" stroke-miterlimit="10" x1="532.146" y1="513.892" x2="513.396" y2="524.392"/>
<line fill="none" stroke="#000000" stroke-width="2" stroke-linecap="square" stroke-miterlimit="10" x1="517.146" y1="508.642" x2="498.396" y2="519.892"/>
<line fill="none" stroke="#000000" stroke-width="2" stroke-linecap="square" stroke-miterlimit="10" x1="499.896" y1="506.392" x2="481.146" y2="516.892"/>
<line fill="none" stroke="#000000" stroke-width="2" stroke-linecap="square" stroke-miterlimit="10" x1="485.646" y1="502.642" x2="466.896" y2="513.892"/>
<line fill="none" stroke="#000000" stroke-width="2" stroke-linecap="square" stroke-miterlimit="10" x1="470.646" y1="498.892" x2="451.896" y2="509.392"/>
</svg>