<svg xmlns="http://www.w3.org/2000/svg" xmlns:xlink="http://www.w3.org/1999/xlink" version="1.1" id="Layer_1" x="0px" y="0px" enable-background="new 0 0 822.05 841.89" xml:space="preserve" viewBox="318.05 252.58 186.23 332.72">
<path fill-rule="evenodd" clip-rule="evenodd" fill="#FFDB78" stroke="#000000" stroke-width="2" stroke-linecap="square" stroke-miterlimit="10" d="  M495,503.64c-4.649,107.048-167.257,108.04-167.25,0C327.757,395.576,488.69,397.316,495,503.64z"/>
<path fill-rule="evenodd" clip-rule="evenodd" fill="#FFF200" stroke="#000000" stroke-width="2" stroke-linecap="square" stroke-miterlimit="10" d="  M478.5,503.64c-3.237,86.315-134.264,86.946-134.25,0C344.264,417.127,474.519,418.041,478.5,503.64z"/>
<path fill="none" stroke="#000000" stroke-width="2" stroke-linecap="square" stroke-miterlimit="10" d="M404.25,415.89  c7.025-11.02,12.362-11.338,15,2.25C414.309,417.399,409.077,417.156,404.25,415.89z"/>
<path fill-rule="evenodd" clip-rule="evenodd" fill="#FFDB78" stroke="#000000" stroke-width="2" stroke-linecap="square" stroke-miterlimit="10" d="  M340.5,395.64c18.647,22.25,82.303,9,108.432,9c20.688,0,20.209-1.112,36.318-9.75c7.225-3.874,17.25,6.249,17.25-5.056  c0-5.24,3.212-14.444-3.34-14.444c-45.335,0-90.669,0-136.004,0c-14.516,0-29.032,0-43.547,0  C320.556,375.39,311.78,404.144,340.5,395.64z"/>
<line fill="none" stroke="#000000" stroke-width="2" stroke-linecap="square" stroke-miterlimit="10" x1="499.5" y1="386.64" x2="323.25" y2="386.64"/>
<path fill-rule="evenodd" clip-rule="evenodd" fill="#ED1C24" stroke="#000000" stroke-width="2" stroke-linecap="square" stroke-miterlimit="10" d="  M495.75,380.64c-53.391,0-106.781,0-160.171,0c-16.144,0-7.829-32.694-7.829-45.667c0-10.544-7.726-71.452,0-78.083  c8.686-7.456,56.507,0,67.658,0c30.838,0,61.675,0,92.513,0C504.826,256.89,495.75,360.445,495.75,380.64z"/>
<path fill-rule="evenodd" clip-rule="evenodd" fill="#FFFFFF" stroke="#000000" stroke-width="2" stroke-linecap="square" stroke-miterlimit="10" d="  M445.5,382.14c-27.013,0-66,14.383-66-17.33c0-15.279-10.571-97.478,0-106.42c6.394-5.409,40.396,0,48.889,0  c19.27,0,17.111-1.408,17.111,17.33C445.5,311.193,445.5,346.667,445.5,382.14z"/>
</svg>