<svg xmlns="http://www.w3.org/2000/svg" xmlns:xlink="http://www.w3.org/1999/xlink" version="1.1" id="Layer_1" x="0px" y="0px" enable-background="new 0 0 822.05 841.89" xml:space="preserve" viewBox="197.8 252.58 426.98 332.77">
<path fill-rule="evenodd" clip-rule="evenodd" fill="#FFDB78" stroke="#000000" stroke-width="2" stroke-linecap="square" stroke-miterlimit="10" d="  M374,503.64c0.505,107.653-166.519,107.569-166.5,0C207.519,396.282,372.999,396.354,374,503.64z"/>
<path fill-rule="evenodd" clip-rule="evenodd" fill="#FFF200" stroke="#000000" stroke-width="2" stroke-linecap="square" stroke-miterlimit="10" d="  M357.5,503.64c0.063,86.845-134.264,86.541-134.25,0C223.264,417.573,356.697,417.432,357.5,503.64z"/>
<path fill="none" stroke="#000000" stroke-width="2" stroke-linecap="square" stroke-miterlimit="10" d="M284,415.89  c6.725-11.033,11.795-11.276,14.25,2.25C293.5,417.39,288.75,416.64,284,415.89z"/>
<path fill-rule="evenodd" clip-rule="evenodd" fill="#FFDB78" stroke="#000000" stroke-width="2" stroke-linecap="square" stroke-miterlimit="10" d="  M220.25,395.64c18.647,22.25,82.303,9,108.432,9c20.574,0,20.333-0.849,36.318-9.75c7.104-3.956,16.5,6.225,16.5-5.056  c0-5.213,3.207-14.444-3.326-14.444c-45.15,0-90.3,0-135.449,0c-14.457,0-28.913,0-43.37,0  C200.311,375.39,191.528,404.144,220.25,395.64z"/>
<line fill="none" stroke="#000000" stroke-width="2" stroke-linecap="square" stroke-miterlimit="10" x1="378.5" y1="386.64" x2="203" y2="386.64"/>
<path fill-rule="evenodd" clip-rule="evenodd" fill="#ED1C24" stroke="#000000" stroke-width="2" stroke-linecap="square" stroke-miterlimit="10" d="  M374.75,380.64c-53.152,0-106.304,0-159.456,0c-16.089,0-7.794-32.744-7.794-45.667c0-10.521-7.714-71.481,0-78.083  c8.679-7.428,56.229,0,67.356,0c30.7,0,61.399,0,92.1,0C383.786,256.89,374.75,360.484,374.75,380.64z"/>
<path fill-rule="evenodd" clip-rule="evenodd" fill="#FFFFFF" stroke="#000000" stroke-width="2" stroke-linecap="square" stroke-miterlimit="10" d="  M324.5,382.14c-26.956,0-65.25,14.266-65.25-17.33c0-15.207-10.534-97.572,0-106.42c6.376-5.355,39.894,0,48.333,0  c19.143,0,16.917-1.306,16.917,17.33C324.5,311.193,324.5,346.667,324.5,382.14z"/>
<path fill-rule="evenodd" clip-rule="evenodd" fill="#FFDB78" stroke="#000000" stroke-width="2" stroke-linecap="square" stroke-miterlimit="10" d="  M488,503.64c-4.649,107.048-167.257,108.04-167.25,0C320.757,395.576,481.69,397.316,488,503.64z"/>
<path fill-rule="evenodd" clip-rule="evenodd" fill="#FFF200" stroke="#000000" stroke-width="2" stroke-linecap="square" stroke-miterlimit="10" d="  M471.5,503.64c-3.237,86.315-134.264,86.946-134.25,0C337.264,417.127,467.519,418.041,471.5,503.64z"/>
<path fill="none" stroke="#000000" stroke-width="2" stroke-linecap="square" stroke-miterlimit="10" d="M397.25,415.89  c7.025-11.02,12.362-11.338,15,2.25C407.309,417.399,402.077,417.156,397.25,415.89z"/>
<path fill-rule="evenodd" clip-rule="evenodd" fill="#FFDB78" stroke="#000000" stroke-width="2" stroke-linecap="square" stroke-miterlimit="10" d="  M333.5,395.64c18.647,22.25,82.303,9,108.432,9c20.688,0,20.209-1.112,36.318-9.75c7.225-3.874,17.25,6.249,17.25-5.056  c0-5.24,3.212-14.444-3.34-14.444c-45.335,0-90.669,0-136.004,0c-14.516,0-29.032,0-43.547,0  C313.556,375.39,304.78,404.144,333.5,395.64z"/>
<line fill="none" stroke="#000000" stroke-width="2" stroke-linecap="square" stroke-miterlimit="10" x1="492.5" y1="386.64" x2="316.25" y2="386.64"/>
<path fill-rule="evenodd" clip-rule="evenodd" fill="#ED1C24" stroke="#000000" stroke-width="2" stroke-linecap="square" stroke-miterlimit="10" d="  M488.75,380.64c-53.391,0-106.781,0-160.171,0c-16.144,0-7.829-32.694-7.829-45.667c0-10.544-7.726-71.452,0-78.083  c8.686-7.456,56.507,0,67.658,0c30.838,0,61.675,0,92.513,0C497.826,256.89,488.75,360.445,488.75,380.64z"/>
<path fill-rule="evenodd" clip-rule="evenodd" fill="#FFFFFF" stroke="#000000" stroke-width="2" stroke-linecap="square" stroke-miterlimit="10" d="  M438.5,382.14c-27.012,0-66,14.383-66-17.33c0-15.279-10.571-97.478,0-106.42c6.394-5.409,40.396,0,48.889,0  c19.27,0,17.111-1.408,17.111,17.33C438.5,311.193,438.5,346.667,438.5,382.14z"/>
<path fill-rule="evenodd" clip-rule="evenodd" fill="#FFDB78" stroke="#000000" stroke-width="2" stroke-linecap="square" stroke-miterlimit="10" d="  M614.75,503.64c3.411,107.47-166.518,107.674-166.5,0C448.268,396.356,616.587,396.319,614.75,503.64z"/>
<path fill-rule="evenodd" clip-rule="evenodd" fill="#FFF200" stroke="#000000" stroke-width="2" stroke-linecap="square" stroke-miterlimit="10" d="  M599,503.64c-3.234,86.23-134.265,87.076-134.25,0C464.765,417.042,595.02,418.065,599,503.64z"/>
<path fill="none" stroke="#000000" stroke-width="2" stroke-linecap="square" stroke-miterlimit="10" d="M524.75,415.89  c7.035-11.136,12.353-11.308,15,2.25C534.826,417.402,529.536,417.227,524.75,415.89z"/>
<path fill-rule="evenodd" clip-rule="evenodd" fill="#FFDB78" stroke="#000000" stroke-width="2" stroke-linecap="square" stroke-miterlimit="10" d="  M461,395.64c18.647,22.25,82.303,9,108.432,9c20.688,0,20.209-1.112,36.318-9.75c7.225-3.874,17.25,6.249,17.25-5.056  c0-5.24,3.212-14.444-3.34-14.444c-45.335,0-90.67,0-136.004,0c-14.517,0-29.032,0-43.548,0  C441.056,375.39,432.28,404.144,461,395.64z"/>
<line fill="none" stroke="#000000" stroke-width="2" stroke-linecap="square" stroke-miterlimit="10" x1="619.25" y1="386.64" x2="443.75" y2="386.64"/>
<path fill-rule="evenodd" clip-rule="evenodd" fill="#ED1C24" stroke="#000000" stroke-width="2" stroke-linecap="square" stroke-miterlimit="10" d="  M616.25,380.64c-53.391,0-106.78,0-160.171,0c-16.144,0-7.829-32.694-7.829-45.667c0-10.544-7.726-71.452,0-78.083  c8.687-7.456,56.507,0,67.658,0c30.838,0,61.675,0,92.513,0C625.326,256.89,616.25,360.445,616.25,380.64z"/>
<path fill-rule="evenodd" clip-rule="evenodd" fill="#FFFFFF" stroke="#000000" stroke-width="2" stroke-linecap="square" stroke-miterlimit="10" d="  M565.25,382.14c-26.956,0-65.25,14.266-65.25-17.33c0-15.207-10.534-97.572,0-106.42c6.376-5.355,39.894,0,48.333,0  c19.144,0,16.917-1.306,16.917,17.33C565.25,311.193,565.25,346.667,565.25,382.14z"/>
</svg>