<svg xmlns="http://www.w3.org/2000/svg" xmlns:xlink="http://www.w3.org/1999/xlink" version="1.1" id="Layer_1" x="0px" y="0px" enable-background="new 0 0 822.05 841.89" xml:space="preserve" viewBox="310.22 359.37 199.03 129.93">
<path fill-rule="evenodd" clip-rule="evenodd" fill="#FF9900" stroke="#000000" stroke-width="1.25" stroke-linecap="square" stroke-miterlimit="10" d="  M342.875,442.021c6.059,0,69.179,4.618,45.75-18.75C377.183,411.858,335.576,418.158,342.875,442.021z"/>
<path fill-rule="evenodd" clip-rule="evenodd" fill="#EED5B6" stroke="#000000" stroke-width="1.25" stroke-linecap="square" stroke-miterlimit="10" d="  M400.625,436.021c-11.2-1.409-20.601-6.786-24-17.252c-18.846,17.476-43.318-2.188-30.973,43.336  C356.498,502.101,420.391,472.838,400.625,436.021z"/>
<path fill-rule="evenodd" clip-rule="evenodd" fill="#FF9900" stroke="#000000" stroke-width="1.25" stroke-linecap="square" stroke-miterlimit="10" d="  M327.875,469.771c-4.859,23.686,85.731,27.202,78.002-1.5c-3.299,15.703,6.11,20.266,20.998,15.75  c-1.1-12.425-1.026-46.258-17.623-51c-21.318-6.091-26.561,12.946-46.127,12.75c-18.424-0.185-27.042-26.698-45.75-3.75  c-4.794,5.881-5.71,16.314-6.375,23.625C308.688,491.075,333.048,489.327,327.875,469.771z"/>
<path fill="none" stroke="#000000" stroke-width="1.25" stroke-linecap="square" stroke-miterlimit="10" d="M405.877,484.021  c0.046-3.364,0.648-10.202,0-15C405.877,474.02,405.827,479.022,405.877,484.021z"/>
<path fill-rule="evenodd" clip-rule="evenodd" fill="#FFFFFF" stroke="#000000" stroke-width="1.25" stroke-linecap="square" stroke-miterlimit="10" d="  M327.875,469.771c0.072,2.742,0.42,12.717,0.75,14.25C328.375,479.271,328.125,474.521,327.875,469.771z"/>
<path fill-rule="evenodd" clip-rule="evenodd" fill="#FFFFFF" stroke="#000000" stroke-width="1.25" stroke-linecap="square" stroke-miterlimit="10" d="  M405.877,469.021C405.877,468.021,405.877,468.021,405.877,469.021L405.877,469.021z"/>
<path fill-rule="evenodd" clip-rule="evenodd" fill="#FFFFFF" stroke="#000000" stroke-width="1.25" stroke-linecap="square" stroke-miterlimit="10" d="  M373.625,474.271c1.201-11.122-2.288-17.121-10.5-18c-3.499,8.787-5.002,18.187-4.5,27.75c3.953,1.113,11.778,1.062,15.75,0  C374.125,480.771,373.875,477.521,373.625,474.271z"/>
<path fill-rule="evenodd" clip-rule="evenodd" fill="#FFFFFF" stroke="#000000" stroke-width="1.25" stroke-linecap="square" stroke-miterlimit="10" d="  M371.375,454.771C359.516,466.884,359.516,442.658,371.375,454.771L371.375,454.771z"/>
<path fill-rule="evenodd" clip-rule="evenodd" fill="#FF9900" stroke="#000000" stroke-width="1.25" stroke-linecap="square" stroke-miterlimit="10" d="  M393.875,430.021c-1.5-2.501-3-5.001-4.5-7.502c-12.29,14.925-28.939,25.854-12.75,45.002  C382.375,455.021,388.125,442.521,393.875,430.021z"/>
<path fill-rule="evenodd" clip-rule="evenodd" fill="#FF9900" stroke="#000000" stroke-width="1.25" stroke-linecap="square" stroke-miterlimit="10" d="  M341.375,431.521c0.75-2.75,1.5-5.5,2.25-8.25c13.25,15.143,28.239,24.979,14.25,45.75  C352.375,456.521,346.875,444.021,341.375,431.521z"/>
<path fill-rule="evenodd" clip-rule="evenodd" stroke="#000000" stroke-width="1.25" stroke-linecap="square" stroke-miterlimit="10" d="  M339.125,388.019c0.565,37.326,55.824,37.727,55.5,0C394.303,350.524,338.935,350.789,339.125,388.019z"/>
<path fill-rule="evenodd" clip-rule="evenodd" fill="#EED5B6" stroke="#000000" stroke-width="1.25" stroke-linecap="square" stroke-miterlimit="10" d="  M396.875,397.019c-2.174,2.265,0.679,5.513-3.75,7.5c-2.212-7.218-1.949-7.188,0-14.25  C396.992,391.891,395.039,395.41,396.875,397.019z"/>
<path fill-rule="evenodd" clip-rule="evenodd" fill="#EED5B6" stroke="#000000" stroke-width="1.25" stroke-linecap="square" stroke-miterlimit="10" d="  M344.375,397.019c-2.174,2.265,0.679,5.513-3.75,7.5c-2.212-7.218-1.949-7.188,0-14.25  C344.492,391.891,342.539,395.41,344.375,397.019z"/>
<path fill-rule="evenodd" clip-rule="evenodd" fill="#EED5B6" stroke="#000000" stroke-width="1.25" stroke-linecap="square" stroke-miterlimit="10" d="  M348.125,372.269c16.757,16.991,25.482-6.399,38.25,1.5c13.338,8.252,6.237,42.752-5.625,49.876  C349.227,442.576,325.817,393.913,348.125,372.269z"/>
<path fill-rule="evenodd" clip-rule="evenodd" fill="#0D0D0D" d="M379.625,394.769C375.542,396.681,375.453,396.723,379.625,394.769  L379.625,394.769z"/>
<path fill="none" stroke="#0D0D0D" stroke-width="0.75" stroke-linecap="square" stroke-miterlimit="10" d="M382.625,394.769  c-3.202-1.472-6.542-1.31-9,0.75"/>
<path fill="none" stroke="#0D0D0D" stroke-linecap="square" stroke-miterlimit="10" d="M372.125,403.769  c-1.789,1.787-4.778,2.074-7.5,0.75"/>
<path fill-rule="evenodd" clip-rule="evenodd" fill="#0D0D0D" d="M354.875,397.769C360.434,397.297,359.284,397.395,354.875,397.769  L354.875,397.769z"/>
<path fill="none" stroke="#0D0D0D" stroke-width="0.75" stroke-linecap="square" stroke-miterlimit="10" d="M352.625,397.769  c2.489-2.056,5.461-2.692,8.25-1.5"/>
<path fill="none" stroke="#000000" stroke-linecap="square" stroke-miterlimit="10" d="M359.375,415.019  c5.756,3.224,11.775,2.962,17.25-0.75"/>
<path fill-rule="evenodd" clip-rule="evenodd" fill="#FF9900" stroke="#000000" stroke-width="1.25" stroke-linecap="square" stroke-miterlimit="10" d="  M424.625,442.771c5.997,0,70.212,4.312,45.75-19.5C458.076,411.299,417.215,418.582,424.625,442.771z"/>
<path fill-rule="evenodd" clip-rule="evenodd" fill="#EED5B6" stroke="#000000" stroke-width="1.25" stroke-linecap="square" stroke-miterlimit="10" d="  M482.375,436.771c-11.171-1.709-20.946-6.94-24-17.252c-2.977,8.309-17.237-1.963-25.125,7.502  c-13.338,16.005-12.75,10.384-5.848,35.834C438.756,504.723,504.882,469.737,482.375,436.771z"/>
<path fill-rule="evenodd" clip-rule="evenodd" fill="#FF9900" stroke="#000000" stroke-width="1.25" stroke-linecap="square" stroke-miterlimit="10" d="  M409.627,470.521c-4.366,22.534,85.635,26.079,77.998-2.25c-3.307,15.788,6.23,19.983,21,15.75c-1.2-14.052-1.662-41.242-15.75-49.5  c-21.039-12.332-26.888,13.646-45.75,12.75c-19.278-0.915-28.804-28.128-48-5.25c-4.827,5.753-5.663,16.877-6.375,24  C390.355,489.973,413.651,490.398,409.627,470.521z"/>
<path fill="none" stroke="#000000" stroke-width="1.25" stroke-linecap="square" stroke-miterlimit="10" d="M487.625,484.021  c0.004-0.271,0.211-12.546,0-14.25C487.625,474.521,487.625,479.271,487.625,484.021z"/>
<path fill-rule="evenodd" clip-rule="evenodd" fill="#FFFFFF" stroke="#000000" stroke-width="1.25" stroke-linecap="square" stroke-miterlimit="10" d="  M487.625,469.771C487.625,467.771,487.625,467.771,487.625,469.771L487.625,469.771z"/>
<path fill-rule="evenodd" clip-rule="evenodd" fill="#FF9900" stroke="#000000" stroke-width="1.25" stroke-linecap="square" stroke-miterlimit="10" d="  M475.625,430.021c-1.5-2.25-3-4.5-4.5-6.75c-12.29,14.924-28.938,25.853-12.75,45C464.125,455.521,469.875,442.771,475.625,430.021z  "/>
<path fill-rule="evenodd" clip-rule="evenodd" fill="#FF9900" stroke="#000000" stroke-width="1.25" stroke-linecap="square" stroke-miterlimit="10" d="  M423.125,431.521c0.75-2.5,1.5-5,2.25-7.5c12.52,14.838,27.529,24.907,13.5,45C433.625,456.521,428.375,444.021,423.125,431.521z"/>
<path fill-rule="evenodd" clip-rule="evenodd" fill="#301F0C" stroke="#000000" stroke-width="1.25" stroke-linecap="square" stroke-miterlimit="10" d="  M420.875,388.769c-1.59,37.331,55.178,37.482,55.5,0C476.698,351.154,419.921,351.204,420.875,388.769z"/>
<path fill-rule="evenodd" clip-rule="evenodd" fill="#EED5B6" stroke="#000000" stroke-width="1.25" stroke-linecap="square" stroke-miterlimit="10" d="  M478.625,397.769c-2.174,2.265,0.679,5.513-3.75,7.5c-2.212-7.218-1.949-7.188,0-14.25  C478.742,392.641,476.789,396.16,478.625,397.769z"/>
<path fill-rule="evenodd" clip-rule="evenodd" fill="#EED5B6" stroke="#000000" stroke-width="1.25" stroke-linecap="square" stroke-miterlimit="10" d="  M426.125,397.769C416.127,407.767,416.127,387.771,426.125,397.769L426.125,397.769z"/>
<path fill-rule="evenodd" clip-rule="evenodd" fill="#EED5B6" stroke="#000000" stroke-width="1.25" stroke-linecap="square" stroke-miterlimit="10" d="  M429.875,373.019c16.162,16.352,25.905-5.936,37.5,1.5c14.694,9.423,6.286,40.566-4.875,49.501  C433.21,447.467,407.546,393.327,429.875,373.019z"/>
<path fill-rule="evenodd" clip-rule="evenodd" fill="#0D0D0D" d="M461.375,395.519C457.454,397.124,457.024,397.3,461.375,395.519  L461.375,395.519z"/>
<path fill="none" stroke="#0D0D0D" stroke-width="0.75" stroke-linecap="square" stroke-miterlimit="10" d="M464.375,395.519  c-2.933-1.153-6.196-1.18-9,0"/>
<path fill="none" stroke="#0D0D0D" stroke-linecap="square" stroke-miterlimit="10" d="M453.875,404.519  c-2.387,2.011-5.109,2.189-7.5,0"/>
<path fill-rule="evenodd" clip-rule="evenodd" fill="#0D0D0D" d="M436.625,397.769C441.576,398.64,441.451,398.618,436.625,397.769  L436.625,397.769z"/>
<path fill="none" stroke="#0D0D0D" stroke-width="0.75" stroke-linecap="square" stroke-miterlimit="10" d="M434.375,398.519  c2.489-2.056,5.462-2.692,8.25-1.5"/>
<path fill="none" stroke="#000000" stroke-linecap="square" stroke-miterlimit="10" d="M441.125,415.769  c5.9,2.932,12.043,2.459,17.25-1.5"/>
<path fill="none" stroke="#000000" stroke-width="0.5" stroke-linecap="square" stroke-miterlimit="10" d="M447.875,395.519  C429.257,420.66,428.896,371.312,447.875,395.519L447.875,395.519z"/>
<path fill="none" stroke="#000000" stroke-width="0.5" stroke-linecap="square" stroke-miterlimit="10" d="M468.125,396.269  C450.292,420.177,450.292,372.361,468.125,396.269L468.125,396.269z"/>
<path fill="none" stroke="#000000" stroke-width="0.5" stroke-linecap="square" stroke-miterlimit="10" d="M447.875,395.519  c1.572-0.194,3.057,0.048,4.5,0.75"/>
<line fill="none" stroke="#000000" stroke-width="0.5" stroke-linecap="square" stroke-miterlimit="10" x1="466.625" y1="394.769" x2="474.875" y2="391.019"/>
<line fill="none" stroke="#000000" stroke-width="0.5" stroke-linecap="square" stroke-miterlimit="10" x1="429.125" y1="393.269" x2="418.625" y2="389.519"/>
</svg>