<svg xmlns="http://www.w3.org/2000/svg" xmlns:xlink="http://www.w3.org/1999/xlink" version="1.1" id="Layer_1" x="0px" y="0px" enable-background="new 0 0 822.05 841.89" xml:space="preserve" viewBox="306.35 333.75 211.85 175.65">
<path fill-rule="evenodd" clip-rule="evenodd" fill="#134A1C" stroke="#000000" stroke-width="1.25" stroke-linecap="square" stroke-miterlimit="10" d="  M430.691,408.996c-18.146,4.092-26.837-0.594-34.502-17.25C401.345,407.338,422.491,423.806,430.691,408.996z"/>
<path fill-rule="evenodd" clip-rule="evenodd" fill="#134A1C" stroke="#000000" stroke-width="1.25" stroke-linecap="square" stroke-miterlimit="10" d="  M395.439,387.246c1.576,3.512,0.37,7.911,5.25,11.25C401.957,392.445,397.5,391.488,395.439,387.246z"/>
<path fill-rule="evenodd" clip-rule="evenodd" fill="#137827" stroke="#000000" stroke-width="1.25" stroke-linecap="square" stroke-miterlimit="10" d="  M420.941,408.246C457.311,397.236,423.236,432.427,420.941,408.246L420.941,408.246z"/>
<path fill-rule="evenodd" clip-rule="evenodd" fill="#134A1C" stroke="#000000" stroke-width="1.25" stroke-linecap="square" stroke-miterlimit="10" d="  M348.189,406.746c17.033,5.101,26.506,0.403,34.5-15c-0.993,2.716-9.392,20.022-12,21  C361.994,416.006,347.311,409.649,348.189,406.746z"/>
<path fill-rule="evenodd" clip-rule="evenodd" fill="#134A1C" stroke="#000000" stroke-width="1.25" stroke-linecap="square" stroke-miterlimit="10" d="  M384.189,387.246c-2.016,3.567-0.868,8.304-6.75,10.5C377.516,391.728,381.748,390.896,384.189,387.246z"/>
<path fill-rule="evenodd" clip-rule="evenodd" fill="#392170" stroke="#000000" stroke-width="1.25" stroke-linecap="square" stroke-miterlimit="10" d="  M358.689,405.246C319.696,401.942,362.076,431.919,358.689,405.246L358.689,405.246z"/>
<path fill-rule="evenodd" clip-rule="evenodd" fill="#134A1C" stroke="#000000" stroke-width="1.25" stroke-linecap="square" stroke-miterlimit="10" d="  M350.439,499.748C377.528,499.251,357.624,509.777,350.439,499.748L350.439,499.748z"/>
<path fill-rule="evenodd" clip-rule="evenodd" fill="#134A1C" stroke="#000000" stroke-width="1.25" stroke-linecap="square" stroke-miterlimit="10" d="  M330.189,474.998c4.646-8.968,9.333-18.385,15-26.25c-3.223,23.719-14.205,32.12-36.75,36.75  C312.228,482.171,322.813,477.604,330.189,474.998z"/>
<path fill-rule="evenodd" clip-rule="evenodd" fill="#134A1C" stroke="#000000" stroke-width="1.25" stroke-linecap="square" stroke-miterlimit="10" d="  M309.189,483.998c3.036,7.587,7.583,11.213,2.25,17.25C304.707,492.134,307.012,487.962,309.189,483.998z"/>
<path fill-rule="evenodd" clip-rule="evenodd" fill="#134A1C" stroke="#000000" stroke-width="1.25" stroke-linecap="square" stroke-miterlimit="10" d="  M355.689,470.498c-1.116,9.273-3.084,23.233-6,30c1.519-14.812,5.583-25.874-3-38.25  C352.457,462.449,352.634,465.981,355.689,470.498z"/>
<path fill-rule="evenodd" clip-rule="evenodd" fill="#392170" stroke="#000000" stroke-width="1.25" stroke-linecap="square" stroke-miterlimit="10" d="  M352.689,443.498c0.791-7.421,2.237-37.137-9.75-38.252C329.292,403.976,319.548,450.118,352.689,443.498z M352.689,448.748  c-18.356-18.894-38.244,17.207-14.25,27.75c0.518-5.242,3.75-10.505,3.75-15.75c2,4.25,4,8.5,6,12.75  C359.304,467.472,360.326,459.101,352.689,448.748z"/>
<path fill-rule="evenodd" clip-rule="evenodd" fill="#EED5B6" stroke="#000000" stroke-width="1.25" stroke-linecap="square" stroke-miterlimit="10" d="  M350.439,386.496c2.37,17.9-14.749,23.066-21,4.5C336.695,390.674,343.685,387.03,350.439,386.496z"/>
<path fill-rule="evenodd" clip-rule="evenodd" fill="#134A1C" stroke="#000000" stroke-width="1.25" stroke-linecap="square" stroke-miterlimit="10" d="  M328.689,388.746c10.428,0.502,20.884-2.377,30-7.5C348.515,377.799,333.639,372.957,328.689,388.746z"/>
<path fill-rule="evenodd" clip-rule="evenodd" fill="#134A1C" stroke="#000000" stroke-width="1.25" stroke-linecap="square" stroke-miterlimit="10" d="  M338.439,411.246c-18.183,8.248-19.614,18.502-18.75,36.752c-0.619-3.104-4.453-21.934-3-24.75  C321.324,414.262,336.68,408.186,338.439,411.246z"/>
<path fill-rule="evenodd" clip-rule="evenodd" fill="#134A1C" stroke="#000000" stroke-width="1.25" stroke-linecap="square" stroke-miterlimit="10" d="  M321.189,456.998c-0.666-4.661-4.223-7.27-1.5-12.75C323.741,448.744,320.802,451.894,321.189,456.998z"/>
<path fill-rule="evenodd" clip-rule="evenodd" fill="#392170" stroke="#000000" stroke-width="1.25" stroke-linecap="square" stroke-miterlimit="10" d="  M329.439,421.746C365.626,405.229,316.836,398.713,329.439,421.746L329.439,421.746z"/>
<path fill-rule="evenodd" clip-rule="evenodd" fill="#392170" d="M332.439,449.498c3.329,5.327,1.773,9.952,9.75,11.25  C338.939,456.998,335.689,453.248,332.439,449.498z"/>
<path fill="none" stroke="#000000" stroke-width="1.25" stroke-linecap="square" stroke-miterlimit="10" d="M332.439,449.498  c0.291,6.158,3.754,10.274,9.75,11.25"/>
<path fill-rule="evenodd" clip-rule="evenodd" d="M374.439,437.498c-28.911-7.067-1.574,18.79,0,23.25  c14.086-10.613,14.292-23.352,0-33.75C374.439,430.498,374.439,433.998,374.439,437.498z"/>
<path fill-rule="evenodd" clip-rule="evenodd" stroke="#000000" stroke-width="1.25" stroke-linecap="square" stroke-miterlimit="10" d="  M445.691,502.748c-7.825,0.052-11.333-3.91-16.5,3.75C440.958,510.618,443.233,506.774,445.691,502.748z"/>
<path fill-rule="evenodd" clip-rule="evenodd" stroke="#000000" stroke-width="1.25" stroke-linecap="square" stroke-miterlimit="10" d="  M440.441,468.248c1.088,11.677,0.946,26.08,4.5,35.25C444.415,491.653,445.259,475.783,440.441,468.248z"/>
<path fill-rule="evenodd" clip-rule="evenodd" stroke="#000000" stroke-width="1.25" stroke-linecap="square" stroke-miterlimit="10" d="  M438.191,502.748c-7.61,0.192-11.871-2.722-16.5,4.5C433.771,511.021,435.715,507.124,438.191,502.748z"/>
<path fill-rule="evenodd" clip-rule="evenodd" stroke="#000000" stroke-width="1.25" stroke-linecap="square" stroke-miterlimit="10" d="  M432.941,468.998c1.056,11.329,1.117,26.687,4.5,34.5c-0.703-15.817-5.107-30.668,5.25-43.5c-1.25-0.25-2.5-0.5-3.75-0.75  C437.27,462.712,435.234,465.927,432.941,468.998z"/>
<path fill-rule="evenodd" clip-rule="evenodd" fill="#137827" stroke="#000000" stroke-width="1.25" stroke-linecap="square" stroke-miterlimit="10" d="  M426.941,442.748C427.941,442.748,427.941,442.748,426.941,442.748L426.941,442.748z"/>
<path fill-rule="evenodd" clip-rule="evenodd" fill="#137827" stroke="#000000" stroke-width="1.25" stroke-linecap="square" stroke-miterlimit="10" d="  M447.191,441.248C403.335,456.294,449.229,356.514,447.191,441.248L447.191,441.248z"/>
<path fill-rule="evenodd" clip-rule="evenodd" fill="#392170" stroke="#000000" stroke-width="1.25" stroke-linecap="square" stroke-miterlimit="10" d="  M426.941,442.748c5.867-1.907,14.032-0.494,20.25-0.75c0,9.25,0,18.5,0,27.75c-1.25,0-2.5,0-3.75,0  c-0.249-4.989-0.272-10.028-0.75-15c1.403,4.436,0.516,10.315,0.75,15C421.871,475.143,423.557,457.171,426.941,442.748z"/>
<path fill="none" stroke="#000000" stroke-width="1.25" stroke-linecap="square" stroke-miterlimit="10" d="M447.191,447.248  c-0.751,5.487-3.76,9.34-9,11.25"/>
<path fill="none" stroke="#000000" stroke-width="1.25" stroke-linecap="square" stroke-miterlimit="10" d="M438.191,446.498  c-4.101,1.464-7.986,0.904-9.75-2.25"/>
<path fill-rule="evenodd" clip-rule="evenodd" stroke="#000000" stroke-width="1.25" stroke-linecap="square" stroke-miterlimit="10" d="  M441.191,436.748c-2.04-7.92-4.429-16.711-3-23.252c4.845,12.526,7.385,26.706-6.75,32.252  C434.5,442.474,437.912,439.759,441.191,436.748z"/>
<path fill-rule="evenodd" clip-rule="evenodd" fill="#137827" stroke="#000000" stroke-width="1.25" stroke-linecap="square" stroke-miterlimit="10" d="  M435.191,426.248C424.781,385.676,459.689,423.469,435.191,426.248L435.191,426.248z"/>
<path fill-rule="evenodd" clip-rule="evenodd" fill="#EED5B6" stroke="#000000" stroke-width="1.25" stroke-linecap="square" stroke-miterlimit="10" d="  M429.941,383.496c-4.385,18.679,15.129,22.681,21,4.5C443.859,387.682,436.521,383.807,429.941,383.496z"/>
<path fill-rule="evenodd" clip-rule="evenodd" fill="#FF0013" stroke="#000000" stroke-width="1.25" stroke-linecap="square" stroke-miterlimit="10" d="  M451.691,385.746c-10.471,0.71-21.722-2.494-30-8.25C433.393,375.338,446.225,370.308,451.691,385.746z"/>
<path fill-rule="evenodd" clip-rule="evenodd" d="M405.939,435.998c30.271-7.625,1.496,19.132,0,24  c-13.723-11.004-16.297-23.597,0-33.75C405.939,429.498,405.939,432.748,405.939,435.998z"/>
<path fill-rule="evenodd" clip-rule="evenodd" fill="#FFFFFF" stroke="#000000" stroke-linecap="square" stroke-miterlimit="10" d="  M459.191,379.746c1.631,37.347,58.092,37.653,58.5,0C518.106,341.443,461.256,341.979,459.191,379.746z"/>
<path fill-rule="evenodd" clip-rule="evenodd" fill="#FFFFFF" d="M488.441,400.746v5.25V400.746z"/>
<line fill="none" stroke="#000000" stroke-linecap="square" stroke-miterlimit="10" x1="488.441" y1="400.746" x2="488.441" y2="405.996"/>
<path fill-rule="evenodd" clip-rule="evenodd" fill="#FFFFFF" d="M467.441,379.746h-6H467.441z"/>
<line fill="none" stroke="#000000" stroke-linecap="square" stroke-miterlimit="10" x1="467.441" y1="379.746" x2="461.441" y2="379.746"/>
<path fill-rule="evenodd" clip-rule="evenodd" fill="#FFFFFF" d="M515.441,379.746h-6H515.441z"/>
<line fill="none" stroke="#000000" stroke-linecap="square" stroke-miterlimit="10" x1="515.441" y1="379.746" x2="509.441" y2="379.746"/>
<path fill-rule="evenodd" clip-rule="evenodd" fill="#FFFFFF" d="M473.441,394.746l-3.75,3.75L473.441,394.746z"/>
<line fill="none" stroke="#000000" stroke-linecap="square" stroke-miterlimit="10" x1="473.441" y1="394.746" x2="469.691" y2="398.496"/>
<path fill-rule="evenodd" clip-rule="evenodd" fill="#FFFFFF" d="M507.191,360.996l-3.75,3.75L507.191,360.996z"/>
<line fill="none" stroke="#000000" stroke-linecap="square" stroke-miterlimit="10" x1="507.191" y1="360.996" x2="503.441" y2="364.746"/>
<path fill-rule="evenodd" clip-rule="evenodd" fill="#FFFFFF" d="M507.191,398.496l-3.75-3.75L507.191,398.496z"/>
<line fill="none" stroke="#000000" stroke-linecap="square" stroke-miterlimit="10" x1="507.191" y1="398.496" x2="503.441" y2="394.746"/>
<path fill-rule="evenodd" clip-rule="evenodd" stroke="#000000" stroke-linecap="square" stroke-miterlimit="10" d="  M485.441,355.746c2.261,0,2.832,5.997,6.75,0C488.273,349.749,487.702,355.746,485.441,355.746z"/>
<path fill-rule="evenodd" clip-rule="evenodd" stroke="#000000" stroke-linecap="square" stroke-miterlimit="10" d="  M489.191,361.746c0.615,6.488,1,13.002,1.5,19.5c-1.5-0.25-3-0.5-4.5-0.75C487.191,374.247,488.102,367.979,489.191,361.746z"/>
<path fill-rule="evenodd" clip-rule="evenodd" stroke="#000000" stroke-linecap="square" stroke-miterlimit="10" d="  M485.441,379.746C492.145,379.554,492.042,379.557,485.441,379.746L485.441,379.746z"/>
<path fill-rule="evenodd" clip-rule="evenodd" fill="#D12327" stroke="#000000" stroke-width="0.5" stroke-linecap="square" stroke-miterlimit="10" d="  M469.691,362.496C476.548,362.984,476.23,362.961,469.691,362.496L469.691,362.496z"/>
<path fill-rule="evenodd" clip-rule="evenodd" fill="#D12327" stroke="#000000" stroke-width="0.5" stroke-linecap="square" stroke-miterlimit="10" d="  M468.941,342.246c3.25-2.75,6.5-5.5,9.75-8.25c1,1.25,2,2.5,3,3.75c-2.253,3.328-7.291,10.184-7.5,10.5c-4.5,1-9,2-13.5,3  C463.136,344.17,469.448,341.952,468.941,342.246z"/>
</svg>