<svg xmlns="http://www.w3.org/2000/svg" xmlns:xlink="http://www.w3.org/1999/xlink" version="1.1" id="Layer_1" x="0px" y="0px" enable-background="new 0 0 822.05 841.89" xml:space="preserve" viewBox="304.88 349.8 209.64 142.45">
<path fill-rule="evenodd" clip-rule="evenodd" fill="#FFFFFF" stroke="#000000" stroke-linecap="square" stroke-miterlimit="10" d="  M312.006,362.39c56.956-11.763,119.718-15.312,177.752-9c32.584,3.544,23.161,14.579,22.5,48  c-0.432,21.837,3.784,64.593-15.75,81.75c-25.266,22.191-115.095-5.012-149.486-9.311c-24.627-3.078-33.522,0.718-35.25-25.777  C310.45,427.785,297.926,376.084,312.006,362.39z"/>
<path fill="none" stroke="#000000" stroke-linecap="square" stroke-miterlimit="10" d="M453.008,486.89  c-10.354-32.736-8.766-91.158,3.75-123c-48.25-0.5-96.501-1-144.752-1.5"/>
<path fill-rule="evenodd" clip-rule="evenodd" fill="#7F7F7F" stroke="#000000" stroke-width="0.5" stroke-linecap="square" stroke-miterlimit="10" d="  M437.258,381.89c-7.998,27.78-11.646,59.896-2.25,87.75c-32.48-3.808-64.961-7.616-97.442-11.424  c-24.104-2.826-15.877-30.865-17.226-51.774c-1.708-26.481-6.409-28.582,20.096-27.716  C372.71,379.781,404.984,380.835,437.258,381.89z"/>
<path fill="none" stroke="#000000" stroke-linecap="square" stroke-miterlimit="10" d="M513.008,354.14  c-15.312,15.387-36.642,10.12-56.25,9.75"/>
<path fill="none" stroke="#000000" stroke-linecap="square" stroke-miterlimit="10" d="M489.758,489.89  c-0.362-38.904-7.536-88.79,6.75-125.25"/>
<path fill-rule="evenodd" clip-rule="evenodd" fill="#FFFFFF" stroke="#000000" stroke-linecap="square" stroke-miterlimit="10" d="  M457.508,380.39c10.251,0.479,20.501,0.98,30.75,1.5c-5.248,32.169-5.604,65.056-3,97.5c-32.385-4.982-30.575-5.336-32.056-36.417  C452.249,422.958,452.694,399.652,457.508,380.39z"/>
<path fill-rule="evenodd" clip-rule="evenodd" fill="#32D32A" stroke="#000000" stroke-width="0.5" stroke-linecap="square" stroke-miterlimit="10" d="  M463.508,384.14C443.77,421.392,515.844,374.121,463.508,384.14L463.508,384.14z"/>
<path fill-rule="evenodd" clip-rule="evenodd" fill="#9596B5" stroke="#000000" stroke-width="0.5" stroke-linecap="square" stroke-miterlimit="10" d="  M467.258,408.89c-2.079-0.133-2.391,5.434-6,0C464.948,402.905,465.134,408.754,467.258,408.89z"/>
<path fill-rule="evenodd" clip-rule="evenodd" fill="#9596B5" stroke="#000000" stroke-width="0.5" stroke-linecap="square" stroke-miterlimit="10" d="  M466.508,420.14C459.617,419.524,459.973,419.556,466.508,420.14L466.508,420.14z"/>
<path fill-rule="evenodd" clip-rule="evenodd" fill="#9596B5" stroke="#000000" stroke-width="0.5" stroke-linecap="square" stroke-miterlimit="10" d="  M465.758,431.39c-2.124,0.136-2.31,5.985-6,0C463.367,425.957,463.679,431.523,465.758,431.39z"/>
<path fill-rule="evenodd" clip-rule="evenodd" fill="#9596B5" stroke="#000000" stroke-width="0.5" stroke-linecap="square" stroke-miterlimit="10" d="  M465.758,441.89c-2.197,0.227-2.325,5.96-6,0C463.246,436.998,463.832,442.089,465.758,441.89z"/>
<path fill-rule="evenodd" clip-rule="evenodd" fill="#9596B5" stroke="#000000" stroke-width="0.5" stroke-linecap="square" stroke-miterlimit="10" d="  M466.508,453.89C459.617,453.275,459.973,453.306,466.508,453.89L466.508,453.89z"/>
<path fill-rule="evenodd" clip-rule="evenodd" fill="#F40606" stroke="#000000" stroke-width="0.5" stroke-linecap="square" stroke-miterlimit="10" d="  M459.758,459.89c13.687-3.333,23.163,0.286,20.25,15C466.689,476.771,458.732,472.788,459.758,459.89z"/>
</svg>