<svg xmlns="http://www.w3.org/2000/svg" xmlns:xlink="http://www.w3.org/1999/xlink" version="1.1" id="Layer_1" x="0px" y="0px" enable-background="new 0 0 822.05 841.89" xml:space="preserve" viewBox="189.73 229.81 441.77 380.74">
<path fill-rule="evenodd" clip-rule="evenodd" fill="#FFFFFF" stroke="#FFFFFF" stroke-linecap="square" stroke-miterlimit="10" d="  M631,608.89c-137.548,0-275.095,0-412.643,0c-6.348,0-27.607,4.309-27.607-3.732c0-27.887,0-55.773,0-83.66  c0-83.111,0-166.223,0-249.334c0-3.783-1.867-37.523,1.483-37.523c23.139,0,46.277,0,69.416,0c87.262,0,174.524,0,261.787,0  c24.658,0,107.563-16.3,107.563,14.321c0,77.469,0,154.938,0,232.406C631,523.875,631,566.382,631,608.89z"/>
<path fill-rule="evenodd" clip-rule="evenodd" fill="#CEECF7" stroke="#000000" stroke-width="2" stroke-linecap="square" stroke-miterlimit="10" d="  M332.5,274.39c4.253,47.498,7.156,97.083,21.806,142.861c11.274,35.232,36.655,69.753,31.444,102.389  c-18.31-1.246-50.309,18.572-42.75,41.25c7.324,21.973,39.434,28.551,60,28.5c54.875-0.135,89.117-65.436,19.5-70.5  c-5.146-33.217,23.868-68.981,33.75-104.25c9.573-34.167,27.312-97.875,18.75-132.75C464.845,240.526,350.706,233.005,332.5,274.39z  "/>
<path fill-rule="evenodd" clip-rule="evenodd" fill="#FFFAC2" stroke="#000000" stroke-width="2" stroke-linecap="square" stroke-miterlimit="10" d="  M340,277.39c41.616,14.156,88.729,18.384,129.75,0c-2.562,33.942-13.04,215.082-66,214.5  C351.387,491.315,341.816,314.864,340,277.39z"/>
<path fill-rule="evenodd" clip-rule="evenodd" fill="#FFFFFF" stroke="#000000" stroke-width="2" stroke-linecap="square" stroke-miterlimit="10" d="  M466.75,270.64c-12.993,13.211-121.625,23.674-122.25,0C343.886,247.365,453.911,256.997,466.75,270.64z"/>
<path fill="none" stroke="#000000" stroke-width="2" stroke-linecap="square" stroke-miterlimit="10" d="M385,521.89  c6.577,18.731,35.987,18.738,37.5-3"/>
<line fill="none" stroke="#000000" stroke-width="2" stroke-linecap="square" stroke-miterlimit="10" x1="343" y1="557.14" x2="391" y2="532.39"/>
<line fill="none" stroke="#000000" stroke-width="2" stroke-linecap="square" stroke-miterlimit="10" x1="386.5" y1="587.89" x2="394.75" y2="535.39"/>
<path fill="none" stroke="#000000" stroke-width="2" stroke-linecap="square" stroke-miterlimit="10" d="M388,587.14  c12.036-23.097,39.061-53.597,23.25-80.25"/>
<line fill="none" stroke="#000000" stroke-width="2" stroke-linecap="square" stroke-miterlimit="10" x1="418" y1="533.14" x2="458.5" y2="562.39"/>
<path fill="none" stroke="#000000" stroke-width="2" stroke-linecap="square" stroke-miterlimit="10" d="M392.5,500.14  c6.283,10.04,14.74,10.415,23.25,2.25"/>
<path fill="none" stroke="#000000" stroke-width="2" stroke-linecap="square" stroke-miterlimit="10" d="M394,532.39  c-2.823-8.909-1.438-17.802,4.5-24"/>
<path fill-rule="evenodd" clip-rule="evenodd" fill="#FFFFFF" stroke="#000000" stroke-width="2" stroke-linecap="square" stroke-miterlimit="10" d="  M340,277.39c-7.815,47.583,141.372,48.758,129.75,0C427.868,295.638,382.31,291.078,340,277.39z"/>
</svg>