<svg xmlns="http://www.w3.org/2000/svg" xmlns:xlink="http://www.w3.org/1999/xlink" version="1.1" id="Layer_1" x="0px" y="0px" enable-background="new 0 0 822.05 841.89" xml:space="preserve" viewBox="215.88 281.29 392.95 278.68">
<path fill-rule="evenodd" clip-rule="evenodd" fill="#EF4833" stroke="#000000" stroke-width="2" stroke-linecap="square" stroke-miterlimit="10" d="  M242.5,360.208c-28.479,7.561-28.376,28.688-22.5,50.25c2.858,10.488,13.484,25.766,16.5,37.498c2.496,9.709,0.958,32.411,7.5,43.5  c15.041,25.497,54.517,23.224,76.875,36c12.601,7.2,20.964,20.42,34.875,27.375c9.801,4.9,31.995,2.175,42.75,2.625  c26.187,1.096,70.807,5.218,95.25-7.5c14.816-7.709,10.975-18.717,19.5-28.5c6.75-7.746,3.132-3.248,12-9.75  c8.031-5.888,20.077-6.105,28.5-13.125c17.547-14.622,44.869-21.716,52.5-45.375c5.045-15.642-3.362-34.522-6-49.498  c-1.245-7.072-2.503-23.499-6-33.75c-11.681-34.245-75.522-81.89-110.25-87c-21.363-3.144-45.918,5.587-65.25,9.75  c-6.671,1.437-18.692,7.024-24,7.5c-6.014,0.54-9.862-10.357-18.75-7.5c-7.252,2.332-4.704,14.765-8.25,16.5  c-4.562,2.232-13.705-3.583-18.75,0c-15.081,10.708-10.53,20.341-33,17.25c-21.366-2.939-19.01-15.84-44.25-6.375  C254.651,326.496,243.261,341.907,242.5,360.208z"/>
<path fill="none" stroke="#000000" stroke-width="2" stroke-linecap="square" stroke-miterlimit="10" d="M243.25,356.458  c32.864-7.859,90.191,27.57,94.5,61.5c5.866,46.189-66.995,46.687-98.25,46.498"/>
<path fill="none" stroke="#000000" stroke-width="2" stroke-linecap="square" stroke-miterlimit="10" d="M232,364.708  c27.758-6.719,89.474,21.008,93,51.75c3.827,33.365-75.692,51.43-82.5,37.498"/>
<path fill="none" stroke="#000000" stroke-width="2" stroke-linecap="square" stroke-miterlimit="10" d="M220.75,375.208  c23.262-10.71,87.728,13.154,90,41.25c2.339,28.918-57.463,44.807-77.25,28.498"/>
<path fill="none" stroke="#000000" stroke-width="2" stroke-linecap="square" stroke-miterlimit="10" d="M245.5,344.458  c38.191-9.57,99.316,37.248,104.25,75c7.058,54.001-72.371,58.718-110.25,56.248"/>
<path fill="none" stroke="#000000" stroke-width="2" stroke-linecap="square" stroke-miterlimit="10" d="M433.75,419.458  c52.712-63.077,110.816,40.816,84,92.998"/>
<path fill="none" stroke="#000000" stroke-width="2" stroke-linecap="square" stroke-miterlimit="10" d="M442.75,424.707  c54.568-52.562,76.761,48.138,70.5,86.25"/>
<path fill="none" stroke="#000000" stroke-width="2" stroke-linecap="square" stroke-miterlimit="10" d="M349.75,429.957  c29.049-21.279,94.91-30.164,98.25,20.25c2.748,41.486-70.649,66.527-58.5,105"/>
<path fill="none" stroke="#000000" stroke-width="2" stroke-linecap="square" stroke-miterlimit="10" d="M352,438.957  c19.643-13.136,78.929-34.926,85.875,6.75c7.174,43.041-59.032,65.548-61.875,108"/>
<path fill="none" stroke="#000000" stroke-width="2" stroke-linecap="square" stroke-miterlimit="10" d="M347.5,447.207  c19.139-14.469,81.139-32.749,80.25,9c-0.741,34.811-64.26,58.975-61.5,97.5"/>
<path fill="none" stroke="#000000" stroke-width="2" stroke-linecap="square" stroke-miterlimit="10" d="M332.5,461.457  c11.833-7.231,81.548-42.379,84-5.25c0.659,9.976-40.848,47.568-47.25,57.75c-7.679,12.212-16.533,24.177-14.25,39"/>
<path fill="none" stroke="#000000" stroke-width="2" stroke-linecap="square" stroke-miterlimit="10" d="M320.5,463.707  c9.092-2.27,72.619-21.292,67.5-3.375c-8.685,30.396-33.393,59.448-51,85.125"/>
<path fill="none" stroke="#000000" stroke-width="2" stroke-linecap="square" stroke-miterlimit="10" d="M291.25,476.457  c53.549-7.592,77.548,15.664,37.5,60"/>
<path fill="none" stroke="#000000" stroke-width="2" stroke-linecap="square" stroke-miterlimit="10" d="M268,477.207  c31.769-1.153,95.433,10.781,53.25,51"/>
<path fill="none" stroke="#000000" stroke-width="2" stroke-linecap="square" stroke-miterlimit="10" d="M241,484.707  c11.315,2.193,100.105,16.104,70.5,38.25"/>
<path fill="none" stroke="#000000" stroke-width="2" stroke-linecap="square" stroke-miterlimit="10" d="M445,430.707  c64.686-45.255,61.734,91.119,38.25,122.25"/>
<path fill="none" stroke="#000000" stroke-width="2" stroke-linecap="square" stroke-miterlimit="10" d="M449.5,436.707  c57.728-25.027,50.546,97.624,10.5,117.75"/>
<path fill="none" stroke="#000000" stroke-width="2" stroke-linecap="square" stroke-miterlimit="10" d="M448.75,447.207  c48.985-23.917,34.174,100.074-13.5,111.75"/>
<path fill="none" stroke="#000000" stroke-width="2" stroke-linecap="square" stroke-miterlimit="10" d="M448.75,455.457  c25.705-10.203,26.603,23.973,22.875,40.125c-6.982,30.257-31.167,56.827-61.875,62.625"/>
<path fill="none" stroke="#000000" stroke-width="2" stroke-linecap="square" stroke-miterlimit="10" d="M448,465.957  c53.496,34.377-31.373,74.758-57.75,85.5"/>
<path fill="none" stroke="#000000" stroke-width="2" stroke-linecap="square" stroke-miterlimit="10" d="M437.5,482.457  c9.999,30.169-12.641,49.575-41.25,54"/>
<path fill="none" stroke="#000000" stroke-width="2" stroke-linecap="square" stroke-miterlimit="10" d="M265,323.458  c31.999,19.301,97.222,53.436,108.75,91.5"/>
<path fill="none" stroke="#000000" stroke-width="2" stroke-linecap="square" stroke-miterlimit="10" d="M282.25,318.208  c30.83,21.869,91.439,54.229,102,93"/>
<path fill="none" stroke="#000000" stroke-width="2" stroke-linecap="square" stroke-miterlimit="10" d="M327.25,328.708  c24.435,20.252,61.751,49.589,71.25,81"/>
<path fill="none" stroke="#000000" stroke-width="2" stroke-linecap="square" stroke-miterlimit="10" d="M340.75,324.958  c26.33,30.624,58.683,73.936,101.25,73.5c52.042-0.532,77.399-46.271,93-90"/>
<path fill="none" stroke="#000000" stroke-width="2" stroke-linecap="square" stroke-miterlimit="10" d="M346.75,312.958  c20.19,31.453,63.553,76.558,105,73.5c34.092-2.515,73.768-51.351,71.25-86.25"/>
<path fill="none" stroke="#000000" stroke-width="2" stroke-linecap="square" stroke-miterlimit="10" d="M360.25,308.458  c21.218,29.616,58.044,70.003,99,60.75c31.484-7.113,55.014-42.466,54-73.5"/>
<path fill="none" stroke="#000000" stroke-width="2" stroke-linecap="square" stroke-miterlimit="10" d="M370.75,301.708  c19.452,27.057,50.629,58.174,87,52.5c30.489-4.756,48.095-33.282,46.5-63"/>
<path fill="none" stroke="#000000" stroke-width="2" stroke-linecap="square" stroke-miterlimit="10" d="M383.5,292.708  c30.576,46.977,111.554,77.758,111-6.75"/>
<path fill="none" stroke="#000000" stroke-width="2" stroke-linecap="square" stroke-miterlimit="10" d="M404.5,294.958  c28.629,30.304,62.7,31.004,78-11.25"/>
<path fill="none" stroke="#000000" stroke-width="2" stroke-linecap="square" stroke-miterlimit="10" d="M530.5,328.708  c58.393,57.308,83.204,132.39-6,171.748"/>
<path fill="none" stroke="#000000" stroke-width="2" stroke-linecap="square" stroke-miterlimit="10" d="M526.75,338.458  c43.099,42.121,81.763,119.142,1.5,145.498"/>
<path fill="none" stroke="#000000" stroke-width="2" stroke-linecap="square" stroke-miterlimit="10" d="M520.75,348.958  c36.541,32.958,71.773,101.975,5.25,122.998"/>
<path fill="none" stroke="#000000" stroke-width="2" stroke-linecap="square" stroke-miterlimit="10" d="M514,358.708  c21.853,23.841,67.915,88.604,9.75,100.498"/>
<path fill="none" stroke="#000000" stroke-width="2" stroke-linecap="square" stroke-miterlimit="10" d="M507.25,368.458  c19.241,17.668,52.407,59.646,13.5,75.748"/>
<path fill="none" stroke="#000000" stroke-width="2" stroke-linecap="square" stroke-miterlimit="10" d="M498.25,375.958  c13.808,11.708,46.313,45.584,18,59.998"/>
<path fill="none" stroke="#000000" stroke-width="2" stroke-linecap="square" stroke-miterlimit="10" d="M490.75,383.458  c13.346,6.216,27.946,20.976,17.25,35.25"/>
</svg>