<svg xmlns="http://www.w3.org/2000/svg" xmlns:xlink="http://www.w3.org/1999/xlink" version="1.1" id="Layer_1" x="0px" y="0px" enable-background="new 0 0 822.05 841.89" xml:space="preserve" viewBox="350.45 243.34 118.85 352.14">
<path fill-rule="evenodd" clip-rule="evenodd" fill="#6C5635" stroke="#000000" stroke-width="2" stroke-linecap="square" stroke-miterlimit="10" d="  M377.25,584.89c-4.788,13.755-23.377,12.89-21-3.75C358.626,564.505,376.646,570.275,377.25,584.89z"/>
<path fill-rule="evenodd" clip-rule="evenodd" fill="#6C5635" stroke="#000000" stroke-width="2" stroke-linecap="square" stroke-miterlimit="10" d="  M465,584.89c-4.925,13.515-23.412,13.133-21-3.75C446.396,564.364,464.25,570.487,465,584.89z"/>
<path fill-rule="evenodd" clip-rule="evenodd" fill="#AF8977" stroke="#000000" stroke-width="2" stroke-linecap="square" stroke-miterlimit="10" d="  M464.25,580.39c-18.591,0-97.092,11.784-108.75,0c-9.116-9.215,0-73.655,0-86.139c0-53.324,0-106.648,0-159.973  c0-12.483-9.116-76.924,0-86.139c5.016-5.07,103.733-5.07,108.75,0c9.116,9.215,0,73.655,0,86.139  C464.25,416.316,464.25,498.353,464.25,580.39z"/>
<path fill-rule="evenodd" clip-rule="evenodd" fill="#CEE4EE" stroke="#000000" stroke-width="2" stroke-linecap="square" stroke-miterlimit="10" d="  M450,563.89c-8.131,0-80.25,0.559-80.25-0.549c0-27.781,0-55.562,0-83.342c0-46.651,0-93.302,0-139.952  c0-11.317-7.997-65.248,0-73.907c5.029-5.446,80.25,3.331,80.25,0.549c0,27.781,0,55.562,0,83.342  C450,421.317,450,492.604,450,563.89z"/>
</svg>