<svg xmlns="http://www.w3.org/2000/svg" xmlns:xlink="http://www.w3.org/1999/xlink" version="1.1" id="Layer_1" x="0px" y="0px" enable-background="new 0 0 822.05 841.89" xml:space="preserve" viewBox="314.17 336.63 193.35 171.57">
<path fill-rule="evenodd" clip-rule="evenodd" fill="#EED5B6" stroke="#000000" stroke-width="1.25" stroke-linecap="square" stroke-miterlimit="10" d="  M350.049,441.899C344.848,466.794,329.268,427.717,350.049,441.899L350.049,441.899z"/>
<path fill-rule="evenodd" clip-rule="evenodd" fill="#EED5B6" stroke="#000000" stroke-width="1.25" stroke-linecap="square" stroke-miterlimit="10" d="  M419.801,444.149C407.363,467.818,404.938,420.507,419.801,444.149L419.801,444.149z"/>
<path fill-rule="evenodd" clip-rule="evenodd" fill="#EED5B6" stroke="#000000" stroke-width="1.25" stroke-linecap="square" stroke-miterlimit="10" d="  M414.551,475.649c-6.358-3.421-18.617-15.798-24.236-15.633c-21.051,0.619-22.181,7.354-40.266,13.383  c-19.677,6.559-23.413,31.5,1.566,31.5C392.106,504.899,403.457,514.973,414.551,475.649z"/>
<path fill-rule="evenodd" clip-rule="evenodd" fill="#137827" stroke="#000000" stroke-width="1.25" stroke-linecap="square" stroke-miterlimit="10" d="  M434.801,469.649c-28.291-9.727-31.337,27.055-58.502,18c-9.148-3.05-23.48-21.729-27.528-21.361  c-27.165,2.47-28.147,14.162-33.972,40.111c44.25,0,88.501,0,132.752,0C444.032,493.782,441.114,480.944,434.801,469.649z"/>
<path fill-rule="evenodd" clip-rule="evenodd" fill="#EED5B6" stroke="#000000" stroke-width="1.25" stroke-linecap="square" stroke-miterlimit="10" d="  M344.799,424.649c-6.691,47.231,54.107,76.819,67.5,23.25C427.834,385.76,346.945,365.892,344.799,424.649z"/>
<path fill-rule="evenodd" clip-rule="evenodd" d="M375.549,438.149c-1.49,0.229-0.941,4.349-4.5,0.75  C372.313,434.557,374.025,438.382,375.549,438.149z"/>
<path fill-rule="evenodd" clip-rule="evenodd" d="M395.799,438.899C390.254,438.958,393.048,438.928,395.799,438.899  L395.799,438.899z"/>
<path fill="none" stroke="#000000" stroke-linecap="square" stroke-miterlimit="10" d="M379.299,450.149  c2.025,2.784,4.699,2.69,7.5,0"/>
<path fill="none" stroke="#000000" stroke-width="0.75" stroke-linecap="square" stroke-miterlimit="10" d="M366.549,440.399  c3.391-3.935,7.64-4.83,12-2.25"/>
<path fill="none" stroke="#000000" stroke-width="0.75" stroke-linecap="square" stroke-miterlimit="10" d="M401.049,440.399  c-3.905-3.664-8.312-4.358-12.75-1.5"/>
<path fill="none" stroke="#000000" stroke-linecap="square" stroke-miterlimit="10" d="M371.049,462.149  c7.896-2.196,16.015-2.19,24,0"/>
<path fill-rule="evenodd" clip-rule="evenodd" fill="#EED5B6" stroke="#000000" stroke-width="1.25" stroke-linecap="square" stroke-miterlimit="10" d="  M382.299,490.649c1.358-7.832-33.853-43.271-36-42c-8.081,4.785,20.612,33.286,10.5,48  C368.389,503.98,379.514,505.197,382.299,490.649z"/>
<path fill-rule="evenodd" clip-rule="evenodd" fill="#137827" stroke="#000000" stroke-width="1.25" stroke-linecap="square" stroke-miterlimit="10" d="  M358.299,489.899c7.783,1.528,14.381,5.911,22.5,6.75c-7.872,17.139-38.857,9-55.5,9  C336.299,500.399,347.299,495.149,358.299,489.899z"/>
<path fill-rule="evenodd" clip-rule="evenodd" fill="#FFFFFF" stroke="#000000" stroke-linecap="square" stroke-miterlimit="10" d="  M500.051,377.399c4.709-13.989-0.638-26.417-12.75-33.75c-7.331-4.439-12.503,1.383-18.75,0c-4.134-0.916-11.471-5.389-18.375-6.375  c-17.633-2.519-57.872,28.801-45.002,50.25c6.754,11.257,15.299,12.495,21.752,23.25c10.864,18.107,20.324,5.714,34.125,6.375  c9.452,0.453,23.837,9.88,37.125-0.75C510.127,406.838,509.189,388.386,500.051,377.399z"/>
<path fill-rule="evenodd" clip-rule="evenodd" fill="#FFFFFF" stroke="#000000" stroke-linecap="square" stroke-miterlimit="10" d="  M407.799,421.649C398.491,421.759,398.521,421.759,407.799,421.649L407.799,421.649z"/>
<path fill-rule="evenodd" clip-rule="evenodd" fill="#FFFFFF" stroke="#000000" stroke-linecap="square" stroke-miterlimit="10" d="  M422.801,412.649C407.848,421.833,407.751,404.529,422.801,412.649L422.801,412.649z"/>
<path fill-rule="evenodd" clip-rule="evenodd" stroke="#000000" stroke-linecap="square" stroke-miterlimit="10" d="  M484.301,398.399c10.645-21.736,0.829-54.601-28.875-48c-13.079,2.907-18.384,11.283-22.125,23.25  C421.548,411.241,457.995,399.162,484.301,398.399z"/>
<path fill-rule="evenodd" clip-rule="evenodd" fill="#E7D1B6" stroke="#000000" stroke-linecap="square" stroke-miterlimit="10" d="  M441.551,369.149c-12.808,33.166,32.157,47.521,41.25,7.5C468.786,376.966,454.478,374.662,441.551,369.149z"/>
<path fill="none" stroke="#000000" stroke-width="0.75" stroke-linecap="square" stroke-miterlimit="10" d="M449.051,390.149  c4.921,4.408,10.96,5.357,17.25,3"/>
<path fill-rule="evenodd" clip-rule="evenodd" d="M456.551,381.149C451.687,381.149,451.687,381.149,456.551,381.149  L456.551,381.149z"/>
<path fill-rule="evenodd" clip-rule="evenodd" d="M465.551,382.649c-1.833,0-2.68,4.864-4.5,0  C462.871,377.785,463.718,382.649,465.551,382.649z"/>
</svg>