<svg xmlns="http://www.w3.org/2000/svg" xmlns:xlink="http://www.w3.org/1999/xlink" version="1.1" id="Layer_1" x="0px" y="0px" enable-background="new 0 0 822.05 841.89" xml:space="preserve" viewBox="317.25 335.54 186.25 173.32">
<path fill-rule="evenodd" clip-rule="evenodd" fill="#ED120A" stroke="#000000" stroke-linecap="square" stroke-miterlimit="10" d="  M373.25,359.64c9.75,16.25,19.5,32.5,29.25,48.75C390.147,402.735,369.035,369.617,373.25,359.64z"/>
<path fill-rule="evenodd" clip-rule="evenodd" fill="#ED120A" stroke="#000000" stroke-linecap="square" stroke-miterlimit="10" d="  M412.25,427.89c11.25,18.25,22.5,36.5,33.75,54.75c1-1,2-2,3-3c-7.776-12.474-15.552-24.948-23.328-37.422  C420.565,434.026,416.182,417.002,412.25,427.89z"/>
<path fill-rule="evenodd" clip-rule="evenodd" stroke="#000000" stroke-linecap="square" stroke-miterlimit="10" d="M414.5,421.14  c-1.161,22.492-35.25,25.356-35.25,1.875C379.25,398.638,412.119,396.706,414.5,421.14z"/>
<path fill-rule="evenodd" clip-rule="evenodd" fill="#ED120A" stroke="#000000" stroke-linecap="square" stroke-miterlimit="10" d="  M368.75,358.14c6.692,16.013,12.553,39.859,24,51C390.723,395.286,379.324,361.687,368.75,358.14z"/>
<path fill-rule="evenodd" clip-rule="evenodd" stroke="#000000" stroke-linecap="square" stroke-miterlimit="10" d="M380,350.64  c-2.674,17.83-28.226,19.755-28.5,0C351.218,330.259,377.548,332.11,380,350.64z"/>
<path fill-rule="evenodd" clip-rule="evenodd" fill="#FFFFFF" stroke="#000000" stroke-linecap="square" stroke-miterlimit="10" d="  M362.75,355.14C358.66,355.14,358.66,355.14,362.75,355.14L362.75,355.14z"/>
<path fill-rule="evenodd" clip-rule="evenodd" fill="#ED120A" stroke="#000000" stroke-linecap="square" stroke-miterlimit="10" d="  M408.5,418.14c14.427-10.358,57.514-31.441,56.25-47.25C451.472,380.547,404.142,406.181,408.5,418.14z"/>
<path fill-rule="evenodd" clip-rule="evenodd" fill="#ED120A" stroke="#000000" stroke-linecap="square" stroke-miterlimit="10" d="  M350,446.64c12.418-5.691,28.35-11.009,37.5-19.5C375.723,428.619,354.643,436.455,350,446.64z"/>
<path fill-rule="evenodd" clip-rule="evenodd" stroke="#000000" stroke-linecap="square" stroke-miterlimit="10" d="M472.25,491.64  c-2.207,19.585-32.25,24.121-32.25,1.875C440,470.887,469.181,469.391,472.25,491.64z"/>
<path fill-rule="evenodd" clip-rule="evenodd" fill="#ED120A" stroke="#000000" stroke-linecap="square" stroke-miterlimit="10" d="  M376.25,352.14c29.25,4,58.5,8,87.75,12C457.856,350.88,378.218,345.255,376.25,352.14z"/>
<path fill-rule="evenodd" clip-rule="evenodd" fill="#ED120A" stroke="#000000" stroke-linecap="square" stroke-miterlimit="10" d="  M364.25,362.64c-7.474,24.758-14.97,49.509-22.5,74.25C333.234,426.594,357.359,356.132,364.25,362.64z"/>
<path fill-rule="evenodd" clip-rule="evenodd" fill="#ED120A" stroke="#000000" stroke-linecap="square" stroke-miterlimit="10" d="  M349.25,451.89c26.581,9.628,79.486,18.872,96,38.25C427.076,485.812,352.759,464.229,349.25,451.89z"/>
<path fill-rule="evenodd" clip-rule="evenodd" fill="#ED120A" stroke="#000000" stroke-linecap="square" stroke-miterlimit="10" d="  M476,381.39c-6.191,30.958-20.336,69.236-18,99.75c0.75,0,1.5,0,2.25,0C465.43,460.734,485.057,397.242,476,381.39z"/>
<path fill-rule="evenodd" clip-rule="evenodd" fill="#ED120A" stroke="#000000" stroke-linecap="square" stroke-miterlimit="10" d="  M406.25,436.89c11.135,13.123,28.412,40.854,42.75,46.5C445.263,470.151,413.874,431.251,406.25,436.89z"/>
<path fill-rule="evenodd" clip-rule="evenodd" fill="#ED120A" stroke="#000000" stroke-linecap="square" stroke-miterlimit="10" d="  M347.75,445.89c39.75-24.5,79.5-49,119.25-73.5C454.625,364.44,348.094,430.358,347.75,445.89z"/>
<path fill-rule="evenodd" clip-rule="evenodd" stroke="#000000" stroke-linecap="square" stroke-miterlimit="10" d="M353,449.64  c-1.347,23.641-35.383,24.099-35.25,0C317.883,425.474,351.169,426.256,353,449.64z"/>
<path fill-rule="evenodd" clip-rule="evenodd" stroke="#000000" stroke-linecap="square" stroke-miterlimit="10" d="M503,362.64  c-1.826,27.862-42.077,28.295-42,0C461.076,334.649,501.343,334.99,503,362.64z"/>
<path fill-rule="evenodd" clip-rule="evenodd" fill="#FFFFFF" stroke="#000000" stroke-linecap="square" stroke-miterlimit="10" d="  M473,369.39C469.281,368.764,468.639,368.656,473,369.39L473,369.39z"/>
</svg>