<svg xmlns="http://www.w3.org/2000/svg" xmlns:xlink="http://www.w3.org/1999/xlink" version="1.1" id="Layer_1" x="0px" y="0px" enable-background="new 0 0 822.05 841.89" xml:space="preserve" viewBox="303.35 336.25 213.25 171.4">
<path fill-rule="evenodd" clip-rule="evenodd" fill="#7C3709" stroke="#000000" stroke-width="0.5" stroke-linecap="square" stroke-miterlimit="10" d="  M384.102,484.496c5.687,17.864-19.827,31.347-29.25,13.5C345.037,479.409,373.464,471.019,384.102,484.496z"/>
<path fill-rule="evenodd" clip-rule="evenodd" fill="#994D10" stroke="#000000" stroke-width="0.5" stroke-linecap="square" stroke-miterlimit="10" d="  M383.352,483.746c4.861,18.334-20.62,31.45-29.25,12.75C345.593,478.058,372.626,469.392,383.352,483.746z"/>
<path fill-rule="evenodd" clip-rule="evenodd" fill="#6D340D" d="M355.602,493.496C356.07,492.395,356.506,491.369,355.602,493.496  L355.602,493.496z"/>
<path fill-rule="evenodd" clip-rule="evenodd" fill="#6D340D" d="M354.852,491.996C356.72,490.653,356.961,490.479,354.852,491.996  L354.852,491.996z"/>
<path fill-rule="evenodd" clip-rule="evenodd" fill="#6D340D" d="M354.852,490.496C355.398,490.271,357.838,489.266,354.852,490.496  L354.852,490.496z"/>
<path fill-rule="evenodd" clip-rule="evenodd" fill="#6D340D" d="M354.852,488.246C355.938,488.966,357.173,489.787,354.852,488.246  L354.852,488.246z"/>
<path fill-rule="evenodd" clip-rule="evenodd" fill="#6D340D" d="M355.602,486.746C357.299,487.729,357.168,487.653,355.602,486.746  L355.602,486.746z M356.352,487.496C355.748,486.892,355.748,486.892,356.352,487.496L356.352,487.496z"/>
<path fill-rule="evenodd" clip-rule="evenodd" fill="#6D340D" d="M355.602,485.996C357.919,485.372,358.032,485.341,355.602,485.996  L355.602,485.996z M356.352,485.996C356.352,484.996,356.352,484.996,356.352,485.996L356.352,485.996z M356.352,485.996  C357.528,485.525,357.528,485.525,356.352,485.996L356.352,485.996z"/>
<path fill-rule="evenodd" clip-rule="evenodd" fill="#6D340D" d="M356.352,484.496C357.367,484.175,359.471,483.513,356.352,484.496  L356.352,484.496z"/>
<path fill-rule="evenodd" clip-rule="evenodd" fill="#6D340D" d="M357.852,482.996C359.578,483.067,359.379,483.059,357.852,482.996  L357.852,482.996z"/>
<path fill-rule="evenodd" clip-rule="evenodd" fill="#6D340D" d="M358.602,481.496C360.769,481.897,360.71,481.886,358.602,481.496  L358.602,481.496z"/>
<path fill-rule="evenodd" clip-rule="evenodd" fill="#6D340D" d="M360.852,479.996C361.021,480.102,363.656,481.76,360.852,479.996  L360.852,479.996z"/>
<path fill-rule="evenodd" clip-rule="evenodd" fill="#6D340D" d="M361.602,479.246C362.901,480.527,363.552,481.169,361.602,479.246  L361.602,479.246z"/>
<path fill-rule="evenodd" clip-rule="evenodd" fill="#6D340D" d="M381.102,487.496C380.035,489.775,380.64,488.482,381.102,487.496  L381.102,487.496z M381.102,488.246C380.102,488.246,380.102,488.246,381.102,488.246L381.102,488.246z"/>
<path fill-rule="evenodd" clip-rule="evenodd" fill="#6D340D" d="M381.102,488.996C380.278,489.819,380.278,489.819,381.102,488.996  L381.102,488.996z"/>
<path fill-rule="evenodd" clip-rule="evenodd" fill="#6D340D" d="M381.102,490.496C381.192,490.217,380.866,491.22,381.102,490.496  L381.102,490.496z"/>
<path fill-rule="evenodd" clip-rule="evenodd" fill="#6D340D" d="M380.352,491.246C380.352,492.246,380.352,492.246,380.352,491.246  L380.352,491.246z"/>
<path fill-rule="evenodd" clip-rule="evenodd" fill="#6D340D" d="M380.352,492.746C380.457,492.905,380.794,493.413,380.352,492.746  L380.352,492.746z"/>
<path fill-rule="evenodd" clip-rule="evenodd" fill="#6D340D" d="M380.352,494.996C380.016,495.05,377.439,495.467,380.352,494.996  L380.352,494.996z"/>
<path fill-rule="evenodd" clip-rule="evenodd" fill="#6D340D" d="M378.102,497.246C377.904,497.31,379.332,496.842,378.102,497.246  L378.102,497.246z"/>
<path fill-rule="evenodd" clip-rule="evenodd" fill="#6D340D" d="M376.602,499.496C374.313,496.883,376.596,499.489,376.602,499.496  L376.602,499.496z"/>
<path fill-rule="evenodd" clip-rule="evenodd" fill="#6D340D" d="M375.102,498.746C375.026,500.065,374.982,500.817,375.102,498.746  L375.102,498.746z M375.102,499.496C375.102,500.496,375.102,500.496,375.102,499.496L375.102,499.496z"/>
<path fill-rule="evenodd" clip-rule="evenodd" fill="#6D340D" d="M373.602,499.496C373.99,501.777,373.792,500.615,373.602,499.496  L373.602,499.496z M373.602,500.246C374.205,500.849,374.205,500.849,373.602,500.246L373.602,500.246z"/>
<path fill-rule="evenodd" clip-rule="evenodd" fill="#6D340D" d="M372.852,500.996C371.891,500.64,372.027,500.691,372.852,500.996  L372.852,500.996z"/>
<path fill="none" stroke="#6D340D" stroke-width="0.25" stroke-linecap="square" stroke-miterlimit="10" d="M382.602,484.496  c3,15.782-20.123,29.028-27.75,12C346.703,478.305,372.681,472.56,382.602,484.496z"/>
<path fill-rule="evenodd" clip-rule="evenodd" fill="#6D340D" d="M359.352,494.246c0.966-3.967,5.353-5.002,3.75-12.75  c2.472-0.946,9.601-1.901,12.75-1.5c2.961,10.885-3.674,17.192-11.25,21C362.659,499.076,361.234,496.69,359.352,494.246z"/>
<path fill-rule="evenodd" clip-rule="evenodd" fill="#A05A2B" d="M358.602,494.246c1.903-8.201,5.319-16.366,17.25-14.25  c1.951,10.076-4.156,16.974-11.25,20.25C363.399,498.885,360.258,496.019,358.602,494.246z"/>
<path fill-rule="evenodd" clip-rule="evenodd" fill="#7C3709" stroke="#000000" stroke-width="0.5" stroke-linecap="square" stroke-miterlimit="10" d="  M421.602,470.996c4.536,17.813-21.389,32.106-30,13.5C382.47,464.765,410.575,457.116,421.602,470.996z"/>
<path fill-rule="evenodd" clip-rule="evenodd" fill="#994D10" stroke="#000000" stroke-width="0.5" stroke-linecap="square" stroke-miterlimit="10" d="  M420.852,470.246c4.829,20.478-26.209,31.253-31.5,10.5C384.299,460.93,411.415,457.925,420.852,470.246z"/>
<path fill-rule="evenodd" clip-rule="evenodd" fill="#6D340D" d="M392.352,479.996C392.82,478.895,393.256,477.869,392.352,479.996  L392.352,479.996z"/>
<path fill-rule="evenodd" clip-rule="evenodd" fill="#6D340D" d="M391.602,478.496C393.375,477.154,393.76,476.864,391.602,478.496  L391.602,478.496z"/>
<path fill-rule="evenodd" clip-rule="evenodd" fill="#6D340D" d="M391.602,476.996C392.148,476.771,394.588,475.766,391.602,476.996  L391.602,476.996z"/>
<path fill-rule="evenodd" clip-rule="evenodd" fill="#6D340D" d="M391.602,474.746C392.688,475.466,393.923,476.287,391.602,474.746  L391.602,474.746z"/>
<path fill-rule="evenodd" clip-rule="evenodd" fill="#6D340D" d="M392.352,473.246C393.866,474.164,394.145,474.333,392.352,473.246  L392.352,473.246z M393.102,473.996C392.755,473.354,392.215,472.352,393.102,473.996L393.102,473.996z"/>
<path fill-rule="evenodd" clip-rule="evenodd" fill="#6D340D" d="M392.352,472.496C395,471.517,394.489,471.706,392.352,472.496  L392.352,472.496z M393.102,471.746L393.102,471.746z M393.852,472.496C393.852,471.496,393.852,471.496,393.852,472.496  L393.852,472.496z"/>
<path fill-rule="evenodd" clip-rule="evenodd" fill="#6D340D" d="M393.102,470.996c2.977-1.256,0.195-0.423,0.75-0.75  c0.75-0.25,1,0,0.75,0.75C395.109,470.795,395.32,470.06,393.102,470.996z"/>
<path fill-rule="evenodd" clip-rule="evenodd" fill="#6D340D" d="M394.602,469.496C396.728,468.416,395.077,469.254,394.602,469.496  L394.602,469.496z"/>
<path fill-rule="evenodd" clip-rule="evenodd" fill="#6D340D" d="M395.352,467.996C397.337,468.252,397.944,468.331,395.352,467.996  L395.352,467.996z"/>
<path fill-rule="evenodd" clip-rule="evenodd" fill="#6D340D" d="M397.602,466.496C398.414,466.689,399.821,467.023,397.602,466.496  L397.602,466.496z"/>
<path fill-rule="evenodd" clip-rule="evenodd" fill="#6D340D" d="M398.352,465.746C400.222,467.242,399.616,466.756,398.352,465.746  L398.352,465.746z"/>
<path fill-rule="evenodd" clip-rule="evenodd" fill="#6D340D" d="M418.602,473.996C417.206,475.391,417.206,475.391,418.602,473.996  L418.602,473.996z M418.602,474.746C416.954,474.746,416.954,474.746,418.602,474.746L418.602,474.746z"/>
<path fill-rule="evenodd" clip-rule="evenodd" fill="#6D340D" d="M417.852,475.496C417.852,476.496,417.852,476.496,417.852,475.496  L417.852,475.496z"/>
<path fill-rule="evenodd" clip-rule="evenodd" fill="#6D340D" d="M417.852,476.996C416.215,476.504,420.131,477.679,417.852,476.996  L417.852,476.996z"/>
<path fill-rule="evenodd" clip-rule="evenodd" fill="#6D340D" d="M417.852,477.746C417.852,478.746,417.852,478.746,417.852,477.746  L417.852,477.746z"/>
<path fill-rule="evenodd" clip-rule="evenodd" fill="#6D340D" d="M417.852,479.246C417.51,479.273,417.472,479.276,417.852,479.246  L417.852,479.246z"/>
<path fill-rule="evenodd" clip-rule="evenodd" fill="#6D340D" d="M417.852,481.496C416.646,481.803,414.876,482.254,417.852,481.496  L417.852,481.496z"/>
<path fill-rule="evenodd" clip-rule="evenodd" fill="#6D340D" d="M415.604,483.746C414.612,483.357,415.726,483.793,415.604,483.746  L415.604,483.746z"/>
<path fill-rule="evenodd" clip-rule="evenodd" fill="#6D340D" d="M413.354,485.996C412.708,483.057,413.466,486.506,413.354,485.996  L413.354,485.996z"/>
<path fill-rule="evenodd" clip-rule="evenodd" fill="#6D340D" d="M411.852,485.246C412.164,487.33,412.073,486.72,411.852,485.246  L411.852,485.246z M411.852,485.996C412.675,486.819,412.675,486.819,411.852,485.996L411.852,485.996z"/>
<path fill-rule="evenodd" clip-rule="evenodd" fill="#6D340D" d="M411.102,485.996C410.406,487.516,410.347,487.646,411.102,485.996  L411.102,485.996z M411.102,486.746C410.278,487.569,410.278,487.569,411.102,486.746L411.102,486.746z"/>
<path fill-rule="evenodd" clip-rule="evenodd" fill="#6D340D" d="M409.602,487.496C409.863,487.513,408.41,487.417,409.602,487.496  L409.602,487.496z"/>
<path fill="none" stroke="#6D340D" stroke-width="0.25" stroke-linecap="square" stroke-miterlimit="10" d="M419.352,470.996  c3.389,15.947-20.003,29.292-27.75,12C383.436,464.77,409.703,458.763,419.352,470.996z"/>
<path fill-rule="evenodd" clip-rule="evenodd" fill="#6D340D" d="M396.102,480.746c0.912-3.782,5.235-5.03,3.75-12.75  c20.23-8.899,12.546,14.538,0.75,19.5C399.487,484.726,398.009,483.132,396.102,480.746z"/>
<path fill-rule="evenodd" clip-rule="evenodd" fill="#A05A2B" d="M396.102,480.746c2.883-26.896,30.495-5.959,5.25,6  C400.045,485.416,397.818,482.683,396.102,480.746z"/>
<path fill-rule="evenodd" clip-rule="evenodd" fill="#7C3709" stroke="#000000" stroke-width="0.5" stroke-linecap="square" stroke-miterlimit="10" d="  M454.602,467.996c6.38,20.74-24.541,35.798-34.5,15C409.404,460.655,443.409,449.974,454.602,467.996z"/>
<path fill-rule="evenodd" clip-rule="evenodd" fill="#994D10" stroke="#000000" stroke-width="0.5" stroke-linecap="square" stroke-miterlimit="10" d="  M453.852,466.496c6.242,21.83-21.182,33.758-34.125,16.5C405.09,463.481,440.816,448.283,453.852,466.496z"/>
<path fill-rule="evenodd" clip-rule="evenodd" fill="#6D340D" d="M420.102,477.746C421.597,476.458,422.509,475.672,420.102,477.746  L420.102,477.746z"/>
<path fill-rule="evenodd" clip-rule="evenodd" fill="#6D340D" d="M420.102,476.246C421.005,475.008,422.257,473.293,420.102,476.246  L420.102,476.246z"/>
<path fill-rule="evenodd" clip-rule="evenodd" fill="#6D340D" d="M420.102,473.996C420.647,473.771,423.088,472.766,420.102,473.996  L420.102,473.996z"/>
<path fill-rule="evenodd" clip-rule="evenodd" fill="#6D340D" d="M420.102,471.746C421.321,472.578,422.391,473.307,420.102,471.746  L420.102,471.746z"/>
<path fill-rule="evenodd" clip-rule="evenodd" fill="#6D340D" d="M420.852,470.246C422.45,470.908,423.136,471.192,420.852,470.246  L420.852,470.246z M421.602,470.996C421.256,470.354,420.715,469.352,421.602,470.996L421.602,470.996z"/>
<path fill-rule="evenodd" clip-rule="evenodd" fill="#6D340D" d="M421.602,468.746C421.226,468.917,424.508,467.427,421.602,468.746  L421.602,468.746z M421.602,468.746C422.425,467.922,422.425,467.922,421.602,468.746L421.602,468.746z M422.352,468.746  C423.352,468.746,423.352,468.746,422.352,468.746L422.352,468.746z"/>
<path fill-rule="evenodd" clip-rule="evenodd" fill="#6D340D" d="M422.352,467.246C422.797,467.102,425.293,466.294,422.352,467.246  L422.352,467.246z"/>
<path fill-rule="evenodd" clip-rule="evenodd" fill="#6D340D" d="M423.102,464.996C424.914,465.542,425.848,465.824,423.102,464.996  L423.102,464.996z"/>
<path fill-rule="evenodd" clip-rule="evenodd" fill="#6D340D" d="M424.602,464.246c1.41-0.111,1.251-2.779,2.25,0.75  C425.439,463.973,426.717,464.079,424.602,464.246z"/>
<path fill-rule="evenodd" clip-rule="evenodd" fill="#6D340D" d="M426.852,461.996C427.553,462.5,429.961,464.232,426.852,461.996  L426.852,461.996z"/>
<path fill-rule="evenodd" clip-rule="evenodd" fill="#6D340D" d="M427.602,461.246C429.15,462.066,430.61,462.839,427.602,461.246  L427.602,461.246z"/>
<path fill-rule="evenodd" clip-rule="evenodd" fill="#6D340D" d="M450.852,470.996C450.249,471.848,449.487,472.926,450.852,470.996  L450.852,470.996z M450.852,470.996C449.965,472.639,450.506,471.637,450.852,470.996L450.852,470.996z"/>
<path fill-rule="evenodd" clip-rule="evenodd" fill="#6D340D" d="M450.852,472.496C450.028,473.319,450.028,473.319,450.852,472.496  L450.852,472.496z"/>
<path fill-rule="evenodd" clip-rule="evenodd" fill="#6D340D" d="M450.852,474.746C449.857,473.363,450.904,474.82,450.852,474.746  L450.852,474.746z"/>
<path fill-rule="evenodd" clip-rule="evenodd" fill="#6D340D" d="M450.102,475.496C450.102,476.496,450.102,476.496,450.102,475.496  L450.102,475.496z"/>
<path fill-rule="evenodd" clip-rule="evenodd" fill="#6D340D" d="M450.102,476.996C449.92,476.437,450.498,478.215,450.102,476.996  L450.102,476.996z"/>
<path fill-rule="evenodd" clip-rule="evenodd" fill="#6D340D" d="M450.102,479.246C448.111,480.004,447.661,480.176,450.102,479.246  L450.102,479.246z"/>
<path fill-rule="evenodd" clip-rule="evenodd" fill="#6D340D" d="M447.102,482.246C447.464,482.049,448.392,481.545,447.102,482.246  L447.102,482.246z"/>
<path fill-rule="evenodd" clip-rule="evenodd" fill="#6D340D" d="M444.852,485.246C444.936,481.65,444.875,484.225,444.852,485.246  L444.852,485.246z"/>
<path fill-rule="evenodd" clip-rule="evenodd" fill="#6D340D" d="M443.352,484.496C443.39,484.603,444.061,486.506,443.352,484.496  L443.352,484.496z M443.352,485.246C443.955,485.849,443.955,485.849,443.352,485.246L443.352,485.246z"/>
<path fill-rule="evenodd" clip-rule="evenodd" fill="#6D340D" d="M442.602,485.246C442.536,485.35,441.287,487.346,442.602,485.246  L442.602,485.246z M441.852,485.996C442.675,486.819,442.675,486.819,441.852,485.996L441.852,485.996z"/>
<path fill-rule="evenodd" clip-rule="evenodd" fill="#6D340D" d="M441.102,486.746C440.589,486.373,439.352,485.472,441.102,486.746  L441.102,486.746z"/>
<path fill="none" stroke="#6D340D" stroke-width="0.25" stroke-linecap="square" stroke-miterlimit="10" d="M452.352,467.246  c4.529,18.824-23.134,33.784-32.25,14.25C410.357,460.615,441.629,452.042,452.352,467.246z"/>
<path fill-rule="evenodd" clip-rule="evenodd" fill="#6D340D" d="M425.352,479.246c0.665-1.204,1.599-3.274,5.25-3.75  c-1.572-4.094,0.036-6.72-0.75-12c23.977-8.477,14.436,16.402,2.25,22.5c-0.267-0.132-1.97-0.108-2.25,0  C429.239,482.66,427.036,481.524,425.352,479.246z"/>
<path fill-rule="evenodd" clip-rule="evenodd" fill="#A05A2B" d="M424.602,478.496c16.289-29.129,28.853-5.493,5.25,7.5  C428.856,482.427,426.423,481.204,424.602,478.496z"/>
<path fill-rule="evenodd" clip-rule="evenodd" fill="#AFAFAF" stroke="#000000" stroke-width="0.5" stroke-linecap="square" stroke-miterlimit="10" d="  M344.352,491.996c0.484,10.706-14.366,23.275-21,9C316.383,486,336.634,484.53,344.352,491.996z"/>
<path fill-rule="evenodd" clip-rule="evenodd" fill="#858585" d="M324.102,498.746C324.93,497.252,325.034,497.066,324.102,498.746  L324.102,498.746z"/>
<path fill-rule="evenodd" clip-rule="evenodd" fill="#858585" d="M324.102,497.246C324.925,496.422,324.925,496.422,324.102,497.246  L324.102,497.246z"/>
<path fill-rule="evenodd" clip-rule="evenodd" fill="#858585" d="M324.102,496.496C324.97,495.592,324.97,495.592,324.102,496.496  L324.102,496.496z"/>
<path fill-rule="evenodd" clip-rule="evenodd" fill="#858585" d="M324.102,494.996C324.51,495.215,325.598,495.801,324.102,494.996  L324.102,494.996z"/>
<path fill-rule="evenodd" clip-rule="evenodd" fill="#858585" d="M324.102,494.246C325.848,494.113,325.888,494.109,324.102,494.246  L324.102,494.246z M324.852,494.246L324.852,494.246z"/>
<path fill-rule="evenodd" clip-rule="evenodd" fill="#858585" d="M324.852,493.496C326.169,490.973,325.013,493.186,324.852,493.496  L324.852,493.496z M324.852,492.746C325.852,492.746,325.852,492.746,324.852,492.746L324.852,492.746z M325.602,492.746  C325.602,493.746,325.602,493.746,325.602,492.746L325.602,492.746z"/>
<path fill-rule="evenodd" clip-rule="evenodd" fill="#858585" d="M324.852,491.996C326.181,491.906,327.435,491.821,324.852,491.996  L324.852,491.996z"/>
<path fill-rule="evenodd" clip-rule="evenodd" fill="#858585" d="M325.602,491.246C327.718,490.203,326.952,490.581,325.602,491.246  L325.602,491.246z"/>
<path fill-rule="evenodd" clip-rule="evenodd" fill="#858585" d="M326.352,489.746C328.279,490.256,328.832,490.402,326.352,489.746  L326.352,489.746z"/>
<path fill-rule="evenodd" clip-rule="evenodd" fill="#858585" d="M327.852,488.996C328.97,489.186,330.133,489.383,327.852,488.996  L327.852,488.996z"/>
<path fill-rule="evenodd" clip-rule="evenodd" fill="#858585" d="M328.602,488.246C330.649,490.336,328.948,488.599,328.602,488.246  L328.602,488.246z"/>
<path fill-rule="evenodd" clip-rule="evenodd" fill="#858585" d="M342.852,494.246C342.028,495.069,342.028,495.069,342.852,494.246  L342.852,494.246z M342.852,494.246C342.028,495.069,342.028,495.069,342.852,494.246L342.852,494.246z"/>
<path fill-rule="evenodd" clip-rule="evenodd" fill="#858585" d="M342.102,494.996C342.102,495.996,342.102,495.996,342.102,494.996  L342.102,494.996z"/>
<path fill-rule="evenodd" clip-rule="evenodd" fill="#858585" d="M342.102,496.496C342.192,496.435,343.153,495.787,342.102,496.496  L342.102,496.496z"/>
<path fill-rule="evenodd" clip-rule="evenodd" fill="#858585" d="M342.102,497.246L342.102,497.246z"/>
<path fill-rule="evenodd" clip-rule="evenodd" fill="#858585" d="M342.102,497.996C342.164,497.587,342.031,498.454,342.102,497.996  L342.102,497.996z"/>
<path fill-rule="evenodd" clip-rule="evenodd" fill="#858585" d="M342.102,499.496C341.686,499.572,340.072,499.867,342.102,499.496  L342.102,499.496z"/>
<path fill-rule="evenodd" clip-rule="evenodd" fill="#858585" d="M340.602,500.996C339.743,500.211,340.897,501.265,340.602,500.996  L340.602,500.996z"/>
<path fill-rule="evenodd" clip-rule="evenodd" fill="#858585" d="M339.102,502.496C337.934,501.496,338.339,501.843,339.102,502.496  L339.102,502.496z"/>
<path fill-rule="evenodd" clip-rule="evenodd" fill="#858585" d="M338.352,502.496C338.403,502.447,337.049,503.725,338.352,502.496  L338.352,502.496z M338.352,502.496C338.352,503.496,338.352,503.496,338.352,502.496L338.352,502.496z"/>
<path fill-rule="evenodd" clip-rule="evenodd" fill="#858585" d="M337.602,502.496C337.067,503.513,336.583,504.437,337.602,502.496  L337.602,502.496z M337.602,503.246C336.602,503.246,336.602,503.246,337.602,503.246L337.602,503.246z"/>
<path fill-rule="evenodd" clip-rule="evenodd" fill="#858585" d="M336.852,503.246C336.061,503.802,336.061,503.802,336.852,503.246  L336.852,503.246z"/>
<path fill="none" stroke="#858585" stroke-width="0.25" stroke-linecap="square" stroke-miterlimit="10" d="M343.602,491.996  C343.593,538.195,307.314,460.999,343.602,491.996L343.602,491.996z"/>
<path fill-rule="evenodd" clip-rule="evenodd" fill="#858585" d="M327.102,498.746c0.664-3.046,3.81-3.606,3-9  c0.379-0.071,7.151-0.845,9-0.75C339.501,499.238,334.521,503.448,327.102,498.746z"/>
<path fill-rule="evenodd" clip-rule="evenodd" fill="#BFBDBB" d="M327.102,498.746C331.063,470.465,346.328,511.91,327.102,498.746  L327.102,498.746z"/>
<path fill-rule="evenodd" clip-rule="evenodd" fill="#AFAFAF" stroke="#000000" stroke-width="0.5" stroke-linecap="square" stroke-miterlimit="10" d="  M420.852,483.746c2.979,14.471-15.814,25.632-23.25,10.5C389.798,478.367,412.187,474.392,420.852,483.746z"/>
<path fill-rule="evenodd" clip-rule="evenodd" fill="#858585" d="M398.352,491.996C399.372,490.613,399.456,490.5,398.352,491.996  L398.352,491.996z"/>
<path fill-rule="evenodd" clip-rule="evenodd" fill="#858585" d="M398.352,490.496C399.074,489.31,399.331,488.889,398.352,490.496  L398.352,490.496z"/>
<path fill-rule="evenodd" clip-rule="evenodd" fill="#858585" d="M398.352,488.996C399.352,488.996,399.352,488.996,398.352,488.996  L398.352,488.996z"/>
<path fill-rule="evenodd" clip-rule="evenodd" fill="#858585" d="M398.352,487.496C398.502,487.605,399.901,488.618,398.352,487.496  L398.352,487.496z"/>
<path fill-rule="evenodd" clip-rule="evenodd" fill="#858585" d="M398.352,486.746C400.725,486.485,399.641,486.604,398.352,486.746  L398.352,486.746z M399.102,486.746C398.102,486.746,398.102,486.746,399.102,486.746L399.102,486.746z"/>
<path fill-rule="evenodd" clip-rule="evenodd" fill="#858585" d="M399.102,485.996C399.251,485.322,399.498,484.208,399.102,485.996  L399.102,485.996z M399.102,485.246L399.102,485.246z M399.852,485.246C399.852,486.246,399.852,486.246,399.852,485.246  L399.852,485.246z"/>
<path fill-rule="evenodd" clip-rule="evenodd" fill="#858585" d="M399.102,484.496C400.45,484.207,401.531,483.974,399.102,484.496  L399.102,484.496z"/>
<path fill-rule="evenodd" clip-rule="evenodd" fill="#858585" d="M399.852,482.996C401.498,483.275,402.058,483.37,399.852,482.996  L399.852,482.996z"/>
<path fill-rule="evenodd" clip-rule="evenodd" fill="#858585" d="M401.352,482.246C402.516,482.022,402.724,481.982,401.352,482.246  L401.352,482.246z"/>
<path fill-rule="evenodd" clip-rule="evenodd" fill="#858585" d="M402.852,480.746C403.524,481.498,404.553,482.646,402.852,480.746  L402.852,480.746z"/>
<path fill-rule="evenodd" clip-rule="evenodd" fill="#858585" d="M403.602,480.746C403.5,480.736,405.484,480.927,403.602,480.746  L403.602,480.746z"/>
<path fill-rule="evenodd" clip-rule="evenodd" fill="#858585" d="M419.352,486.746C418.284,489.025,418.89,487.732,419.352,486.746  L419.352,486.746z M419.352,487.496C418.352,487.496,418.352,487.496,419.352,487.496L419.352,487.496z"/>
<path fill-rule="evenodd" clip-rule="evenodd" fill="#858585" d="M418.602,488.246C418.602,489.246,418.602,489.246,418.602,488.246  L418.602,488.246z"/>
<path fill-rule="evenodd" clip-rule="evenodd" fill="#858585" d="M418.602,489.746C419.471,488.842,419.471,488.842,418.602,489.746  L418.602,489.746z"/>
<path fill-rule="evenodd" clip-rule="evenodd" fill="#858585" d="M418.602,490.496L418.602,490.496z"/>
<path fill-rule="evenodd" clip-rule="evenodd" fill="#858585" d="M418.602,491.246C418.615,491.37,418.661,491.79,418.602,491.246  L418.602,491.246z"/>
<path fill-rule="evenodd" clip-rule="evenodd" fill="#858585" d="M418.602,492.746C418.052,492.914,416.229,493.468,418.602,492.746  L418.602,492.746z"/>
<path fill-rule="evenodd" clip-rule="evenodd" fill="#858585" d="M417.102,494.996C416.743,494.661,416.198,494.151,417.102,494.996  L417.102,494.996z"/>
<path fill-rule="evenodd" clip-rule="evenodd" fill="#858585" d="M415.604,496.496C414.062,495.375,414.062,495.375,415.604,496.496  L415.604,496.496z"/>
<path fill-rule="evenodd" clip-rule="evenodd" fill="#858585" d="M414.104,495.746C414.416,497.83,414.325,497.22,414.104,495.746  L414.104,495.746z M414.104,496.496C414.104,497.496,414.104,497.496,414.104,496.496L414.104,496.496z"/>
<path fill-rule="evenodd" clip-rule="evenodd" fill="#858585" d="M413.354,496.496C412.74,497.99,412.829,497.774,413.354,496.496  L413.354,496.496z M413.354,497.246L413.354,497.246z"/>
<path fill-rule="evenodd" clip-rule="evenodd" fill="#858585" d="M412.602,497.996C412.258,497.724,411.161,496.857,412.602,497.996  L412.602,497.996z"/>
<path fill="none" stroke="#858585" stroke-width="0.25" stroke-linecap="square" stroke-miterlimit="10" d="M420.102,484.496  c1.313,12.078-14.263,23.306-21.75,9.75C390.351,479.759,411.969,476.058,420.102,484.496z"/>
<path fill-rule="evenodd" clip-rule="evenodd" fill="#858585" d="M401.352,492.746c1.589-20.394,24.682-5.295,5.25,4.5  C404.833,496.078,403.615,494.134,401.352,492.746z"/>
<path fill-rule="evenodd" clip-rule="evenodd" fill="#BFBDBB" d="M401.352,491.996c0.263-2.814,4.147-4.207,3-10.5  c2.785-0.7,7.771-0.921,10.502-0.75c0.6,9.396-2.125,12.651-9.002,16.5C404.271,495.582,403.283,493.661,401.352,491.996z"/>
<path fill-rule="evenodd" clip-rule="evenodd" fill="#D8C5BD" d="M503.352,425.996c-54.75,13-109.5,26-164.25,39  c-4.839-23.033-9.678-46.067-14.517-69.101c-4.693-22.341-6.059-19.716,15.679-24.877c48.112-11.424,96.226-22.848,144.338-34.272  C490.852,366.496,497.102,396.246,503.352,425.996z"/>
<path fill="none" stroke="#000000" stroke-linecap="square" stroke-miterlimit="10" d="M503.352,425.996  c-54.75,13-109.5,26-164.25,39c-4.839-23.033-9.678-46.067-14.517-69.101c-4.693-22.341-6.059-19.716,15.679-24.877  c48.112-11.424,96.226-22.848,144.338-34.272C490.852,366.496,497.102,396.246,503.352,425.996z"/>
<path fill-rule="evenodd" clip-rule="evenodd" fill="#F9BBA0" d="M405.852,398.996c-13.383-50.999-97.743-16.489-63.75,34.5  C366.072,469.451,412.776,437.039,405.852,398.996z"/>
<path fill-rule="evenodd" clip-rule="evenodd" fill="#F7E2E2" d="M463.602,397.496c4.098,13.043,15.285,21.368,28.5,24  c-6.18,1.454-33.712,12.148-38.25,9C442.363,422.524,457.216,403.019,463.602,397.496z"/>
<path fill-rule="evenodd" clip-rule="evenodd" fill="#8C7F70" d="M465.852,347.246c14.946-4.513,19.692,9.612,5.808,12.888  c-19.936,4.704-39.872,9.408-59.808,14.112C408.059,351.69,449.824,352.22,465.852,347.246z"/>
<path fill-rule="evenodd" clip-rule="evenodd" fill="#F9CA92" d="M398.352,383.246c3.002,25.251-38.25,31.536-38.25,7.125  C360.102,368.262,391.115,361.712,398.352,383.246z"/>
<path fill-rule="evenodd" clip-rule="evenodd" fill="#F7E2E2" d="M492.852,401.246c0.349-4.506-0.941-0.299,0-6  c-10.329-8.34-20.223,1.19-16.5,9.75C480.092,413.594,494.944,413.712,492.852,401.246z"/>
<path fill-rule="evenodd" clip-rule="evenodd" fill="#B5A59D" d="M432.102,370.496c1.828-23.083,41.73-14.818,37.5,6.75  C458.112,370.765,443.042,369.582,432.102,370.496z"/>
<path fill-rule="evenodd" clip-rule="evenodd" fill="#5A4B4E" d="M434.352,396.746c-18.265-15.66,2.938-37.73,25.5-25.5  c11.919,6.461,16.722,13.265,12,26.25C465.441,415.125,439.078,357.023,434.352,396.746z"/>
<path fill-rule="evenodd" clip-rule="evenodd" fill="#D3B2B5" d="M489.852,400.496C478.911,416.197,472.512,391.168,489.852,400.496  L489.852,400.496z"/>
<path fill-rule="evenodd" clip-rule="evenodd" fill="#F7E2E2" d="M433.602,394.496c2.288,24.275,30.75,30.725,30.75,3.375  C464.352,364.193,421.413,377.936,433.602,394.496z"/>
<path fill-rule="evenodd" clip-rule="evenodd" fill="#988C84" d="M330.852,392.246c-5.505-8.725-8.08-12.473,5.25-15  c-1.75,0.25-3.5,0.5-5.25,0.75c26.077-5.412,58.371-7.871,81-15.75C414.087,384.534,350.063,388.197,330.852,392.246z"/>
<path fill-rule="evenodd" clip-rule="evenodd" fill="#5A4B4E" d="M342.102,452.996c8.061,4.078,15.354,2.153,21-4.5  c10.078,3.377,35.904,0.047,42-11.25C386,441.515,356.042,444.544,342.102,452.996z"/>
<path fill-rule="evenodd" clip-rule="evenodd" fill="#F9F9F9" d="M370.602,395.246C367.826,395.917,368.429,395.771,370.602,395.246  L370.602,395.246z"/>
<path fill-rule="evenodd" clip-rule="evenodd" fill="#F9F9F9" d="M375.852,398.996C372.183,399.353,372.267,399.345,375.852,398.996  L375.852,398.996z"/>
<path fill-rule="evenodd" clip-rule="evenodd" fill="#F9F9F9" d="M380.352,403.496C376.304,404.058,377.944,403.83,380.352,403.496  L380.352,403.496z"/>
<path fill-rule="evenodd" clip-rule="evenodd" fill="#F9F9F9" d="M381.102,410.246C378.971,410.497,379.123,410.479,381.102,410.246  L381.102,410.246z"/>
<path fill-rule="evenodd" clip-rule="evenodd" fill="#F9F9F9" d="M381.102,416.246C378.549,417.136,380.487,416.46,381.102,416.246  L381.102,416.246z"/>
<path fill-rule="evenodd" clip-rule="evenodd" fill="#F9F9F9" d="M379.602,422.996C376.84,423.898,377.367,423.726,379.602,422.996  L379.602,422.996z"/>
<path fill-rule="evenodd" clip-rule="evenodd" fill="#F9F9F9" d="M348.852,404.996C347.257,404.917,345.547,404.833,348.852,404.996  L348.852,404.996z"/>
<path fill-rule="evenodd" clip-rule="evenodd" fill="#F9F9F9" d="M346.602,412.496C345.082,412.291,344.653,412.233,346.602,412.496  L346.602,412.496z"/>
<path fill-rule="evenodd" clip-rule="evenodd" fill="#F9F9F9" d="M348.102,419.246C345.639,420.059,345.663,420.051,348.102,419.246  L348.102,419.246z"/>
<path fill-rule="evenodd" clip-rule="evenodd" fill="#F9F9F9" d="M356.352,428.996C354.382,429.478,353.485,429.697,356.352,428.996  L356.352,428.996z"/>
<path fill-rule="evenodd" clip-rule="evenodd" fill="#F9F9F9" d="M351.852,425.996C349.688,426.583,349.566,426.617,351.852,425.996  L351.852,425.996z"/>
<path fill-rule="evenodd" clip-rule="evenodd" fill="#F9F9F9" d="M372.102,393.746c-0.01-1.539,0.485,4.979,0,6.75  C370.656,397.579,372.12,396.497,372.102,393.746z"/>
<path fill-rule="evenodd" clip-rule="evenodd" fill="#F9F9F9" d="M376.602,398.246c-0.042,0.42-0.235,5.546-0.75,7.5  C375.58,403,376.337,400.903,376.602,398.246z"/>
<path fill-rule="evenodd" clip-rule="evenodd" fill="#F9F9F9" d="M381.852,404.996c0.365-0.405-3.171,4.148-4.5,5.25  C378.113,406.874,379.795,407.276,381.852,404.996z"/>
<path fill-rule="evenodd" clip-rule="evenodd" fill="#F9F9F9" d="M381.852,411.746c0.234-0.239-3.554,4.142-5.25,5.25  C378.053,414.239,379.834,413.806,381.852,411.746z"/>
<path fill-rule="evenodd" clip-rule="evenodd" fill="#F9F9F9" d="M381.852,418.496c-0.398,0.232-2.726,3.029-6,3  C377.816,419.478,379.559,419.832,381.852,418.496z"/>
<path fill-rule="evenodd" clip-rule="evenodd" fill="#FFFFFF" d="M376.602,409.496c3.656,19.472-21.486,27.293-26.25,6.75  C345.67,396.057,370.66,389.296,376.602,409.496z"/>
<path fill-rule="evenodd" clip-rule="evenodd" fill="#F9F9F9" d="M347.352,400.496c0.128,0.394,0.95,4.864,2.25,6.75  C349.551,403.622,348.4,403.726,347.352,400.496z"/>
<path fill-rule="evenodd" clip-rule="evenodd" fill="#F9F9F9" d="M345.102,407.246c-0.181-0.232,2.318,4.009,4.5,5.25  C348.39,409.648,346.781,409.409,345.102,407.246z"/>
<path fill-rule="evenodd" clip-rule="evenodd" fill="#F9F9F9" d="M345.102,414.746C346.765,415.816,352.939,419.787,345.102,414.746  L345.102,414.746z"/>
<path fill-rule="evenodd" clip-rule="evenodd" fill="#F9F9F9" d="M346.602,421.496C352.283,423.598,353.305,423.976,346.602,421.496  L346.602,421.496z"/>
<path fill-rule="evenodd" clip-rule="evenodd" fill="#F9F9F9" d="M350.352,428.246C354.044,427.016,356.851,426.082,350.352,428.246  L350.352,428.246z"/>
<path fill-rule="evenodd" clip-rule="evenodd" d="M335.352,383.246c-0.356-1.605-0.952,1.432-0.75,3c2.018-1.037,1.14-0.734,3-0.75  c1.014-0.234-4.83,2.77-5.25,3C331.809,383.354,334.51,383.964,335.352,383.246z M333.852,386.996  C332.021,387.613,331.96,387.634,333.852,386.996L333.852,386.996z"/>
<path fill-rule="evenodd" clip-rule="evenodd" d="M340.602,380.246c-0.253,2.897,0.866,5.156,2.25,6c-1.25,0.25-2.5,0.5-3.75,0.75  C337.558,382.991,340.508,381.322,340.602,380.246z"/>
<path fill-rule="evenodd" clip-rule="evenodd" d="M345.102,378.746C346.793,386.222,346.772,386.129,345.102,378.746  L345.102,378.746z M347.352,381.746C344.966,382.742,343.934,383.173,347.352,381.746L347.352,381.746z"/>
<path fill-rule="evenodd" clip-rule="evenodd" d="M366.852,373.496c0.141-0.127-0.864-1.7-3.75,0c0.807,5.046-0.314,3.712-1.5,8.25  c1.138-1.469-0.754-2.342,2.25-3c1.284,1.068-2.349,1.75-0.75-0.75c0.421-2.218-3.969,5.341-1.5,3.75c1.293-3.425,0.143-3.806,0-4.5  c1.328-0.6,1.566-2.505,1.5-3.75c-1.824,2.205-9.166,9.299-8.25,8.25c1.785-1.105-0.946,0.924,0,0c-0.099,0.104,5.013-6.353,6.75-9  c-0.349,0.434-6.532,6.602-6.75,6.75c0.579,0.737,1.329,1.237,2.25,1.5c0.066-0.286,3.537-4.239,3-4.5  c0.08-0.098-4.528-0.907-3.75,3c0.511,0.114,0.077-1.107,0-3c0.921-0.263,1.671-0.763,2.25-1.5c2.403-2.291-3.705,7.393-3,6  C355.98,371.153,361.48,375.049,366.852,373.496z"/>
<path fill-rule="evenodd" clip-rule="evenodd" d="M369.852,377.246c-3.768,2.192-0.576,2.218-3.75,3.75  c0.177-0.677-0.073-1.177-0.75-1.5c0.143-0.101,1.968-2.382,2.25-3c0.309,1.179,1.205,0.314,1.5,0  C367.609,382.79,368.354,378.117,369.852,377.246z M368.352,377.246C367.002,378.379,363.894,380.991,368.352,377.246  L368.352,377.246z"/>
<path fill-rule="evenodd" clip-rule="evenodd" d="M375.102,376.496c-1.997,0.684-3.566,4.924-2.25-0.75  c-1.398,0.561-2.222,3.05-3,3.75c0.039-0.574,0.845-4.67,0.75-3.75c-0.612,0.665-0.862,1.415-0.75,2.25  C373.346,375.094,371.751,376.929,375.102,376.496z"/>
<path fill-rule="evenodd" clip-rule="evenodd" d="M377.352,371.246c-0.909,2.127-2.313,6.035-3,7.5  C374.504,375.828,376.488,373.266,377.352,371.246z M378.852,375.746c-2.05,0.082-2.662,5.094-3,0  c-1.274,0.522,1.823-1.046,2.25-1.5c-0.477,0.485-2.038,1.726-0.75,0C375.027,379.335,377.052,375.818,378.852,375.746z"/>
<path fill-rule="evenodd" clip-rule="evenodd" d="M384.102,374.246c-1.966,0.909-2.277,5.398-3.75,0.75  C385.82,373.091,380.833,375.757,384.102,374.246z M383.352,373.496C381.714,376.068,380.742,377.594,383.352,373.496  L383.352,373.496z"/>
<path fill-rule="evenodd" clip-rule="evenodd" d="M387.852,368.246c-2.033,4.452-3.08,7.491-7.5,12  C383.125,376.042,385.545,372.333,387.852,368.246z M387.102,368.246C385.778,372.574,385.813,372.46,387.102,368.246  L387.102,368.246z"/>
<path fill-rule="evenodd" clip-rule="evenodd" d="M399.102,365.246c-3.881,2.81-6.871,3.164-5.25,9  c-2.272,0.946,3.047-4.814,3.75-5.25c-0.345,0.888-3.017,6.354-3,6c1,0.354,1.75,0.104,2.25-0.75c-2.175-4.598-1.976,2.052-1.5-6  c-3.25,1.805-0.642-2.731-0.75-2.25c-5.301,4.033-4.148,3.692-4.5,5.25c-0.177-1.03,0.073-1.03,0.75,0  C385.439,365.573,394.271,368.36,399.102,365.246z M398.352,369.746c-1.603,1.222-4.636-0.825-4.5,4.5  C396.922,373.423,396.211,371.376,398.352,369.746z M399.102,365.246C394.972,365.979,394.926,365.987,399.102,365.246  L399.102,365.246z"/>
<path fill-rule="evenodd" clip-rule="evenodd" d="M403.602,369.746c-1.92,0.885-3.076,4.062-1.5-0.75  c-1.745,0.708-2.292,2.693-3,3.75c-0.158-1.316,0.092-2.566,0.75-3.75c-0.687,1.471-0.362,2.696-1.5,1.5  c3.679-1.664,0.113,0.537,3-2.25C401.938,372.674,401.637,370.194,403.602,369.746z"/>
<path fill-rule="evenodd" clip-rule="evenodd" d="M408.102,368.996c-2.06,2.73-3.578,5.583-6,7.5c0.804-2.625,2.207-4.125,3.75-6.75  c1.226,0.879-2.814,3.256-2.25,1.5c0.257-0.387,2.107-3.459,2.25-3.75c0.132,0.982,1.11,0.517,1.5,0  C403.88,374.226,407.526,368.376,408.102,368.996z M405.102,371.996C401.604,377.465,401.835,377.103,405.102,371.996  L405.102,371.996z M405.852,368.246C405.76,368.378,401.75,374.158,405.852,368.246L405.852,368.246z"/>
<path fill-rule="evenodd" clip-rule="evenodd" d="M410.352,362.996c-0.85,2.613-1.964,4.789-2.25,7.5  C408.641,370.169,408.119,369.865,410.352,362.996z"/>
<path fill-rule="evenodd" clip-rule="evenodd" d="M414.104,367.496c-2.777,0.704-1.898,1.605-3.752,3  c0.393-1.359,0.386-2.372,1.5-4.5c0.677,1.03,0.927,1.03,0.75,0C412.151,370.405,412.095,368.005,414.104,367.496z M411.852,366.746  C411.553,367.304,408.365,373.26,411.852,366.746L411.852,366.746z"/>
<path fill-rule="evenodd" clip-rule="evenodd" d="M419.352,365.996c-2.258,0.931-3.626,5.036-2.25-0.75  c-1.466,0.733-2.005,2.981-2.998,3.75c0.223-1.583,0.729-2.642,0.75-3.75c0.047,0.227-0.177,2.261,0.75,2.25  C419.547,364.813,415.049,366.682,419.352,365.996z"/>
<path fill-rule="evenodd" clip-rule="evenodd" d="M423.852,359.996c-1.125,2.401-1.978,4.917-2.25,7.5  c5.985-2.354-3.43,0.803-2.25,0.75C419.707,364.414,421.909,363.543,423.852,359.996z M421.602,364.496  C420.898,365.473,417.316,370.454,421.602,364.496L421.602,364.496z"/>
<path fill-rule="evenodd" clip-rule="evenodd" d="M408.852,384.746c0.382-0.035-0.542-0.055-3.75,0  c1.888,3.604,0.136,1.824-1.5,3.75c3.44-1.754,1.023-0.741,1.5-3.75c-4.983,5.651-5.769,7.059-7.5,7.5c1.03,0.677,1.03,0.927,0,0.75  c0,1,0,1,0,0c0,0.5,0,1,0,1.5c0.871-1.43,5.628-7.669,7.5-9.75c-4.109,3.036-4.408,4.496-6.75,7.5  c-0.565,1.318,6.355-5.208,3.75-5.25c-0.78,1.801-3.267,0.109-3,3.75c1.03-0.177,1.03,0.073,0,0.75c0.25-0.75,0-1-0.75-0.75  c-1.99-0.047,4.402-5.423,3.75-3.75c1.851-0.913-5.517,6.861-4.5,5.25C397.979,382.549,403.323,387.323,408.852,384.746z"/>
<path fill-rule="evenodd" clip-rule="evenodd" d="M409.602,389.246C402.458,392.81,408.191,389.949,409.602,389.246L409.602,389.246  z M408.102,389.246C406.492,391.581,405.556,392.94,408.102,389.246L408.102,389.246z"/>
<path fill-rule="evenodd" clip-rule="evenodd" d="M413.354,388.496c-2.686,1.311-4.028,6.127-3.752-0.75  c-0.11-0.661,0.096,3.777,0,3.75c1.017-1.21,1.14-2.608,2.25-3.75C410.571,393.686,411.597,389.128,413.354,388.496z"/>
<path fill-rule="evenodd" clip-rule="evenodd" d="M417.852,387.746c-1.474,0.228-3.27,4.664-1.5-0.75  c-1.723,0.732-2.287,2.689-2.998,3.75c-0.158-1.316,0.092-2.566,0.75-3.75c-0.053,1.224-0.554,1.724-1.502,1.5  C417.102,387.461,414.002,388.461,417.852,387.746z"/>
<path fill-rule="evenodd" clip-rule="evenodd" d="M422.352,382.496c-1.123,2.2-2.021,4.343-2.25,6.75  c5.477-1.76-2.479,0.971-1.5,0.75c-0.5-0.5-1-1-1.5-1.5C419.581,386.076,420.8,385.248,422.352,382.496z M420.102,386.246  C419.548,386.931,415.931,391.411,420.102,386.246L420.102,386.246z"/>
<path fill-rule="evenodd" clip-rule="evenodd" d="M423.102,383.996C421.768,389.079,421.713,389.285,423.102,383.996  L423.102,383.996z M423.102,386.246C424.621,384.619,418.952,390.686,423.102,386.246L423.102,386.246z"/>
<path fill-rule="evenodd" clip-rule="evenodd" fill="#A55B2D" d="M379.602,386.246c-0.249,0.307-0.428,2.454,0.75,4.5  c-4.905-3.177-1.431,2.682-3.75-4.5c0.618,0.834-0.787,1.774-2.25-0.75C376.144,384.776,383.306,382.788,379.602,386.246z"/>
<path fill-rule="evenodd" clip-rule="evenodd" fill="#A55B2D" d="M381.852,390.746c0.322-2.603,1.022-4.556-1.5-6.75  c1.75-0.5,3.5-1,5.25-1.5c0.58,4.859-2.468-0.013-2.25,3.75c0.579-0.737,1.329-1.237,2.25-1.5c0.932,4.952-1.425,0.423-1.5,3.75  c0.381-0.036,1.725-1.734,2.25-0.75C387.356,391.292,384.33,389.017,381.852,390.746z"/>
<path fill-rule="evenodd" clip-rule="evenodd" fill="#A55B2D" d="M392.352,382.496c-0.431,3.436,3.904,4.529-0.75,6  c-0.755-1.451-1.755-2.701-3-3.75c-2.911,4.286,6.773,2.762-1.5,4.5c0.386-3.321-0.244-3.94-1.5-6.75c1.495,0.238,5.832,2.992,6,3  C389.879,379.664,391.997,382.451,392.352,382.496z"/>
<path fill-rule="evenodd" clip-rule="evenodd" d="M475.602,361.496c1.809,1.62,6.321,0.689,0.75,3.75  C478.506,362.997,476.836,362.602,475.602,361.496z"/>
<path fill-rule="evenodd" clip-rule="evenodd" d="M477.102,365.996c-0.469-0.448,6.876,5.199,2.25,0c-1.171,0.724-1.171,1.724,0,3  c-1.642-0.479-0.2-1.384-2.25-2.25C479.02,374.715,477.45,366.329,477.102,365.996z"/>
<path fill-rule="evenodd" clip-rule="evenodd" d="M480.102,369.746C478.289,373.749,479.117,371.92,480.102,369.746L480.102,369.746  z"/>
<path fill-rule="evenodd" clip-rule="evenodd" d="M480.102,374.996C480.397,376.076,480.404,376.102,480.102,374.996  L480.102,374.996z M479.352,374.246C480.028,377.044,479.948,376.71,479.352,374.246L479.352,374.246z M480.852,374.246  C481.47,376.076,481.49,376.137,480.852,374.246L480.852,374.246z"/>
<path fill-rule="evenodd" clip-rule="evenodd" d="M480.102,381.746C482.589,380.755,483.093,380.555,480.102,381.746  L480.102,381.746z M480.852,380.996C482.059,379.789,482.059,379.789,480.852,380.996L480.852,380.996z"/>
<path fill-rule="evenodd" clip-rule="evenodd" d="M482.352,383.996C482.424,385.256,482.481,386.269,482.352,383.996  L482.352,383.996z M481.602,383.996C481.619,384.392,481.733,386.889,481.602,383.996L481.602,383.996z M483.102,383.996  C482.948,384.443,482.352,386.189,483.102,383.996L483.102,383.996z"/>
<path fill-rule="evenodd" clip-rule="evenodd" d="M482.352,386.996c1.319,2.064,0.345,3.057,0.75-0.75c0.5,0.5,1,1,1.5,1.5  C481.848,392.002,483.238,388.383,482.352,386.996z M483.852,389.246C482.82,385.823,483.417,387.804,483.852,389.246  L483.852,389.246z"/>
<path fill-rule="evenodd" clip-rule="evenodd" d="M484.602,392.996c-1.018-1.328,0.43-3.16-1.5,0.75  c0.177-0.677-0.073-1.177-0.75-1.5C485.306,389.005,484.029,392.25,484.602,392.996z M483.102,391.496  C484.169,393.775,483.563,392.482,483.102,391.496L483.102,391.496z"/>
<path fill-rule="evenodd" clip-rule="evenodd" d="M485.352,393.746C483.539,397.749,484.367,395.92,485.352,393.746L485.352,393.746  z"/>
<path fill-rule="evenodd" clip-rule="evenodd" d="M464.352,353.246c-0.531-2.014-1.004,2.019-0.75,3  c1.65-0.528,1.041-1.241,2.25-1.5c0.633-0.234-3.285,3.316-3.75,3.75c-0.5-0.5-1-1-1.5-1.5  C460.918,352.898,463.662,353.812,464.352,353.246z M462.852,356.996C461.408,356.647,460.994,356.546,462.852,356.996  L462.852,356.996z"/>
<path fill-rule="evenodd" clip-rule="evenodd" d="M468.852,350.246c-0.046,2.971,0.768,5.096,2.25,6c-1.25,0.25-2.5,0.5-3.75,0.75  C467.114,354.611,468.842,350.841,468.852,350.246z"/>
<path fill-rule="evenodd" clip-rule="evenodd" d="M473.352,348.746c0.495,2.79,5.136,2.379,1.5,6.75  C469.122,353.211,473.831,351.443,473.352,348.746z M474.852,351.746C473.154,352.318,471.771,352.784,474.852,351.746  L474.852,351.746z"/>
<path fill-rule="evenodd" clip-rule="evenodd" fill="#5A4B4E" d="M495.852,422.246c-29.75,7-59.5,14-89.25,21  c-0.25-1.5-0.5-3-0.75-4.5C426.662,433.849,482.933,411.911,495.852,422.246z"/>
<path fill-rule="evenodd" clip-rule="evenodd" fill="#F7E2E2" d="M435.852,417.746c1.896-19.269-31.353-32.635-37.5-2.25  C391.765,448.053,445.283,444.79,435.852,417.746z"/>
<path fill-rule="evenodd" clip-rule="evenodd" fill="#DD7235" d="M377.352,437.996c5.171-10.388,12.419-12.146,21.75-5.25  C393.93,443.133,386.682,444.891,377.352,437.996z"/>
<path fill-rule="evenodd" clip-rule="evenodd" fill="#F9BBA0" d="M375.852,410.246c1.3,17.373-19.883,23.751-24.75,5.25  C346.449,397.812,370.407,392.915,375.852,410.246z"/>
<path fill-rule="evenodd" clip-rule="evenodd" fill="#D8C5BD" d="M494.352,485.996c-63.5-13.25-127-26.5-190.5-39.75  c6.27-27.242,12.54-54.483,18.81-81.725c4.657-20.233,15.663-10.07,34.715-6.02c52.908,11.248,105.817,22.497,158.726,33.745  C508.852,423.496,501.602,454.746,494.352,485.996z"/>
<path fill="none" stroke="#000000" stroke-linecap="square" stroke-miterlimit="10" d="M494.352,485.996  c-63.5-13.25-127-26.5-190.5-39.75c6.27-27.242,12.54-54.483,18.81-81.725c4.657-20.233,15.663-10.07,34.715-6.02  c52.908,11.248,105.817,22.497,158.726,33.745C508.852,423.496,501.602,454.746,494.352,485.996z"/>
<path fill-rule="evenodd" clip-rule="evenodd" fill="#F9BBA0" d="M404.352,414.746c9.282-55.012-92.301-63.354-82.875,2.625  C327.946,462.656,392.482,454.396,404.352,414.746z"/>
<path fill-rule="evenodd" clip-rule="evenodd" fill="#F7E2E2" d="M465.852,439.496c-2.556,15.499,7.047,27.412,18.75,36  C449.675,468.392,421.062,463.29,465.852,439.496z"/>
<path fill-rule="evenodd" clip-rule="evenodd" fill="#8C7F70" d="M491.352,392.996c17.113,1.005,16.659,18.231,1.583,15.127  c-23.277-4.792-46.556-9.585-69.833-14.377C429.275,370.06,473.394,391.369,491.352,392.996z"/>
<path fill-rule="evenodd" clip-rule="evenodd" fill="#F9CA92" d="M404.352,395.996c-8.878,21.979-50.081,16.638-45-9  C364.361,361.718,405.898,371.478,404.352,395.996z"/>
<path fill-rule="evenodd" clip-rule="evenodd" fill="#F7E2E2" d="M495.102,457.496c0.892-1.728,3.719-2.386-0.75-3.75  c5.849-10.56-18.613-15.469-21-1.5C471.372,463.83,492.023,468.048,495.102,457.496z"/>
<path fill-rule="evenodd" clip-rule="evenodd" fill="#B5A59D" d="M445.602,399.746c1.785-4.094,4.268-6.321,6.75-10.5  c12.559,1.825,43.713,15.438,29.25,34.5C471.946,411.876,456.822,403.783,445.602,399.746z"/>
<path fill-rule="evenodd" clip-rule="evenodd" fill="#5A4B4E" d="M435.102,425.996c-15.085-23.162,23.014-33.283,39-12.75  c8.733,11.218,12.448,21.054,0,30.75c-9.808,7.639-9.087,2.461-7.889-10.723C467.861,415.141,441.936,411.589,435.102,425.996z"/>
<path fill-rule="evenodd" clip-rule="evenodd" fill="#D3B2B5" d="M492.102,455.246C472.112,468.536,480.028,434.924,492.102,455.246  L492.102,455.246z"/>
<path fill-rule="evenodd" clip-rule="evenodd" fill="#F7E2E2" d="M435.852,422.996c-14.64,37.798,44.316,37.39,28.5-11.25  c-12.847-3.782-24.352-5.395-28.5,8.25c0.25-1.25,0.5-2.5,0.75-3.75C436.67,417.488,435.472,421.854,435.852,422.996z"/>
<path fill-rule="evenodd" clip-rule="evenodd" fill="#988C84" d="M329.352,372.746c-5.37-12.001-0.366-15.361,12-12  c-2-0.5-4-1-6-1.5c30.983,7.862,61.675,18.39,93,23.25C420.593,404.346,349.564,378.595,329.352,372.746z"/>
<path fill-rule="evenodd" clip-rule="evenodd" fill="#5A4B4E" d="M312.102,435.746c4.975,4.749,4.975,10.849,12.75,3.75  c7.496,4.684,2.752,4.658,11.25,1.5c8.855,9.731,37.523,16.32,50.25,9.75C364.342,445.632,330.307,433.25,312.102,435.746z"/>
<path fill-rule="evenodd" clip-rule="evenodd" fill="#F9F9F9" d="M369.852,394.496C366.57,393.369,366.417,393.316,369.852,394.496  L369.852,394.496z"/>
<path fill-rule="evenodd" clip-rule="evenodd" fill="#F9F9F9" d="M372.852,399.746C368.882,399.322,369.689,399.408,372.852,399.746  L372.852,399.746z"/>
<path fill-rule="evenodd" clip-rule="evenodd" fill="#F9F9F9" d="M375.102,406.496C372.879,405.581,372.385,405.377,375.102,406.496  L375.102,406.496z"/>
<path fill-rule="evenodd" clip-rule="evenodd" fill="#F9F9F9" d="M373.602,413.246C370.706,412.551,370.938,412.607,373.602,413.246  L373.602,413.246z"/>
<path fill-rule="evenodd" clip-rule="evenodd" fill="#F9F9F9" d="M370.602,419.246C368.163,418.44,368.139,418.433,370.602,419.246  L370.602,419.246z"/>
<path fill-rule="evenodd" clip-rule="evenodd" fill="#F9F9F9" d="M365.352,424.496C361.603,424.946,364.03,424.655,365.352,424.496  L365.352,424.496z"/>
<path fill-rule="evenodd" clip-rule="evenodd" fill="#F9F9F9" d="M342.102,392.996C338.402,392.541,338.985,392.612,342.102,392.996  L342.102,392.996z"/>
<path fill-rule="evenodd" clip-rule="evenodd" fill="#F9F9F9" d="M336.852,398.996C333.713,398.996,333.713,398.996,336.852,398.996  L336.852,398.996z"/>
<path fill-rule="evenodd" clip-rule="evenodd" fill="#F9F9F9" d="M333.852,406.496C331.679,405.97,331.076,405.824,333.852,406.496  L333.852,406.496z"/>
<path fill-rule="evenodd" clip-rule="evenodd" fill="#F9F9F9" d="M338.352,419.246C334.603,419.696,337.03,419.404,338.352,419.246  L338.352,419.246z"/>
<path fill-rule="evenodd" clip-rule="evenodd" fill="#F9F9F9" d="M335.352,414.746C333.426,414.175,331.646,413.648,335.352,414.746  L335.352,414.746z"/>
<path fill-rule="evenodd" clip-rule="evenodd" fill="#F9F9F9" d="M371.352,392.996c-0.02,0.052-0.327,4.484-3,6.75  C368.361,396.413,370.268,395.905,371.352,392.996z"/>
<path fill-rule="evenodd" clip-rule="evenodd" fill="#F9F9F9" d="M373.602,399.746c-0.05,0.099-1.859,5.026-3.75,6.75  C370.723,403.833,372.377,402.197,373.602,399.746z"/>
<path fill-rule="evenodd" clip-rule="evenodd" fill="#F9F9F9" d="M375.852,408.746c1.743-0.792-5.109,2.637-6.75,3  C371.286,409.513,373.551,409.791,375.852,408.746z"/>
<path fill-rule="evenodd" clip-rule="evenodd" fill="#F9F9F9" d="M372.852,414.746c-0.352,0.165-4.23,3.043-7.5,3  C367.847,416.088,370.215,415.98,372.852,414.746z"/>
<path fill-rule="evenodd" clip-rule="evenodd" fill="#F9F9F9" d="M369.852,421.496c1.288-0.051-4.923,0.805-7.5,0  C365.337,420.09,367.086,421.604,369.852,421.496z"/>
<path fill-rule="evenodd" clip-rule="evenodd" fill="#FFFFFF" d="M369.102,410.996c-6.945,19.336-36.324,15.653-31.5-6.75  C342.271,382.563,372.048,389.485,369.102,410.996z"/>
<path fill-rule="evenodd" clip-rule="evenodd" fill="#F9F9F9" d="M342.102,388.496c0.029-1.276-0.528,5.455,0,7.5  C343.557,392.643,342.033,391.54,342.102,388.496z"/>
<path fill-rule="evenodd" clip-rule="evenodd" fill="#F9F9F9" d="M336.852,393.746c0.105,0.498,0.536,5.463,1.5,7.5  C339.141,397.638,337.478,396.699,336.852,393.746z"/>
<path fill-rule="evenodd" clip-rule="evenodd" fill="#F9F9F9" d="M333.102,400.496c-0.227-0.351,2.226,4.615,3.75,6  C336.759,402.07,334.955,403.364,333.102,400.496z"/>
<path fill-rule="evenodd" clip-rule="evenodd" fill="#F9F9F9" d="M332.352,407.996C334.984,410.901,338.197,414.446,332.352,407.996  L332.352,407.996z"/>
<path fill-rule="evenodd" clip-rule="evenodd" fill="#F9F9F9" d="M332.352,416.246C333.967,416.458,342.246,417.543,332.352,416.246  L332.352,416.246z"/>
<path fill-rule="evenodd" clip-rule="evenodd" d="M337.602,366.746c-0.802-2.693-1.549,0.208-2.25,2.25  c-0.355,1.031,4.393,0.213,3.75,0c-1.171-0.129-4.587,0.54-7.5,0C334.814,364.306,335.593,366.281,337.602,366.746z   M334.602,368.996C332.771,369.613,332.71,369.634,334.602,368.996L334.602,368.996z"/>
<path fill-rule="evenodd" clip-rule="evenodd" d="M344.352,365.246c-1.304,3.297-1.408,5.624,0,7.5c-1.5-0.25-3-0.5-4.5-0.75  C340.492,369.711,343.849,366.359,344.352,365.246z"/>
<path fill-rule="evenodd" clip-rule="evenodd" d="M350.352,366.746C348.36,374.315,348.453,373.963,350.352,366.746L350.352,366.746  z M350.352,370.496C346.821,369.103,349.22,370.049,350.352,370.496L350.352,370.496z"/>
<path fill-rule="evenodd" clip-rule="evenodd" d="M375.852,371.996c0.054-0.021-1.108-1.268-4.5-2.25  c-2.375,5.947-1.513,3.572-6,7.5c-1.248,0.252,3.342-2.807,3.75-3c-0.052,0.149,0.054,2.248,0,2.25c-1.03,0.177-1.03-0.073,0-0.75  c0-0.5,0-1,0-1.5c0.15-0.092-4.688,2.129-3.75,2.25c3.784-2.594,2.128,0.462,3-3.75c2.573-0.005,2.478-1.216,3-3  c-3.921,1.491-13.681,4.047-12.75,3.75c1.417,0.054,0.759,0.492,0,0.75c2.537-0.541,7.468-2.479,12.75-4.5  c-4.316,1.334-7.633,1.793-11.25,3.75c-1.908,1.693,9.758-2.739,6.75-3c2.024-1.592-8.359,3.221-4.5,2.25  c-2.666-2.002,3.385-1.639,4.5-2.25c-5.44,0.682-1.415,3.394-7.5,0.75C367.106,365.901,370.279,369.797,375.852,371.996z"/>
<path fill-rule="evenodd" clip-rule="evenodd" d="M376.602,377.246c-2.139-0.413-3.591,0.898-5.25,1.5  c0.177-0.677-0.073-1.177-0.75-1.5c1.692-0.738,4.463-1.895,5.25-2.25c-0.25,0.75,0,1,0.75,0.75  C372.041,379.721,374.33,376.807,376.602,377.246z M375.102,375.746C373.325,376.554,368.907,378.566,375.102,375.746  L375.102,375.746z"/>
<path fill-rule="evenodd" clip-rule="evenodd" d="M382.602,377.996c-2.669,0.007-5.448,3.528-1.5-1.5  c-1.504-0.089-3.871,2.531-5.25,3c0.894-1.346,2.274-2.489,3-3.75c-0.471,0.988-0.357,2.247-0.75,2.25  c0.646-1.354,1.646-1.854,3-1.5C377.732,382.495,380.832,377.477,382.602,377.996z"/>
<path fill-rule="evenodd" clip-rule="evenodd" d="M387.102,374.246c-2.503,2.356-3.533,4.718-6.75,6  C382.315,377.983,385.209,376.027,387.102,374.246z M387.102,379.496c-2.517-0.761-4.316,3.284-3.75-1.5  c0.337,0.083,4.442,0.529,3,0.75c-1.03,0.177-1.03-0.073,0-0.75C382.63,380.097,384.373,378.671,387.102,379.496z"/>
<path fill-rule="evenodd" clip-rule="evenodd" d="M393.852,380.246c-2.376,0.208-3.106,2.372-5.25,0.75  c0.263-0.921,0.763-1.671,1.5-2.25C392.828,381.072,391.362,380.463,393.852,380.246z M392.352,379.496  C388.529,382.599,390.735,380.808,392.352,379.496L392.352,379.496z"/>
<path fill-rule="evenodd" clip-rule="evenodd" d="M399.852,376.496c-4.312,3.271-6.052,5.763-13.5,8.25  C392.51,380.8,394.084,380.025,399.852,376.496z M399.102,376.496C394.844,380.117,395.175,379.835,399.102,376.496L399.102,376.496  z"/>
<path fill-rule="evenodd" clip-rule="evenodd" d="M413.354,378.746c-2.391,0.729-7.972-1.105-4.502,1.5  c-2.847,1.474-4.361,0.898-6.75,3.75c2.048-0.042,4.907-1.044,8.25-0.75c-0.849,0.497-6.793,2.328-6.75,2.25  c-0.492,0.353,3.19,1.55,3,0.75c-0.228,2.599-4.768-3.495-5.25-3.75c1.36-1.709,5.473-1.528,6-2.25  c-3.629,0.234,1.29-2.848,0.75-2.25c-7.264,1.664-4.404-0.301-6.75,3c-1.03-0.677-1.03-0.927,0-0.75c1.03-0.177,1.03,0.073,0,0.75  C400.275,372.596,406.739,379.484,413.354,378.746z M409.602,383.246c-1.31,0.135-3.459-3.214-6,1.5  C406.63,386.558,407.314,383.482,409.602,383.246z M412.602,378.746C407.758,377.883,409.215,378.143,412.602,378.746  L412.602,378.746z"/>
<path fill-rule="evenodd" clip-rule="evenodd" d="M415.604,385.496c-2.363-0.297-4.494,2.517-1.5-2.25  c-1.758,0.303-3.225,2.292-4.502,3c2.836-3.619,0.946-1.708,0.75-2.25c3.407,0.203,1.052,0.181,4.502,0  C410.846,388.988,413.752,385.021,415.604,385.496z"/>
<path fill-rule="evenodd" clip-rule="evenodd" d="M420.852,386.246c-3.377,2.122-6.627,4.158-9.75,4.5  c1.9-1.999,4.724-2.996,6.75-4.5c1.425,1.417-4.63,2.372-2.998,0c0.703-0.228,3.172-1.742,3.748-2.25  c0.026,0.843,1.748,0.98,2.25,0.75C414.084,390.08,420.505,385.868,420.852,386.246z M416.352,388.496  C410.86,391.125,409.972,391.551,416.352,388.496L416.352,388.496z M419.352,384.746  C415.711,387.243,413.906,388.481,419.352,384.746L419.352,384.746z"/>
<path fill-rule="evenodd" clip-rule="evenodd" d="M425.352,382.496c-1.898,2.068-9.253,7.309-2.25,4.5  C415.301,388.995,422.983,385.076,425.352,382.496z"/>
<path fill-rule="evenodd" clip-rule="evenodd" d="M428.352,387.746c-4.315-0.085-2.721,2.727-6,0.75c0.554-0.373,2.918-2.287,3.75-3  c-0.215,0.991,0.763,1.04,1.5,0.75C423.537,390.683,426.144,387.702,428.352,387.746z M426.102,386.246  C421.955,389.242,421.807,389.349,426.102,386.246L426.102,386.246z"/>
<path fill-rule="evenodd" clip-rule="evenodd" d="M433.602,389.246c-2.788-0.116-4.337,1.895-1.5-2.25  c-1.727,0.198-3.813,2.275-5.25,3c1-1,2-2,3-3c-0.665,0.612-1.415,0.862-2.25,0.75c1.03,0.177,1.78-0.323,2.25-1.5  c1.555,2.854-0.381,0.942,3,1.5C428.622,391.919,431.771,388.708,433.602,389.246z"/>
<path fill-rule="evenodd" clip-rule="evenodd" d="M441.102,385.496c-2.169,2.149-4.599,4.496-4.5,6  c5.014,0.006-4.041-0.95-3.75-0.75C437.38,387.704,436.334,388.975,441.102,385.496z M437.352,388.496  C433.208,391.217,432.371,391.767,437.352,388.496L437.352,388.496z"/>
<path fill-rule="evenodd" clip-rule="evenodd" d="M414.104,402.746c0.225,0.141-0.67-1.751-3.752-2.25c1.31,4.309-1.102,1.721-3,3  c3.549,0.323,1.601-1.273,3-3c-6.034,2.56-11.236,3.75-11.25,3.75c0.25,0.75,0,1-0.75,0.75c0.553-0.129,7.469-2.905,12-4.5  c-3.063,0.708-8.063,1.333-11.25,2.25c0.5,0.5,1,1,1.5,1.5c-0.75,0.85,7.414-2.635,5.25-3c1.382-1.262-6.719,1.002-4.5,1.5  c0.25,0.75,0,1-0.75,0.75c-1.578,0.276,6.847-3.375,5.25-2.25c3.037-0.156-9.832,4.168-6.75,2.25  C404.931,396.118,408.216,401.46,414.104,402.746z"/>
<path fill-rule="evenodd" clip-rule="evenodd" d="M412.602,407.246c-2.794-0.237-2.937,1.919-5.25,0  C413.131,403.763,409.123,406.95,412.602,407.246z M411.852,405.746C408.565,407.542,407.363,408.199,411.852,405.746  L411.852,405.746z"/>
<path fill-rule="evenodd" clip-rule="evenodd" d="M417.102,407.996c-3.118-0.511-3.8,1.061-5.25,1.5  c0.177-0.677-0.073-1.177-0.75-1.5c0.692-0.254,2.721-1.958,3.002-2.25c-0.56,1.156-1.311,2.156-2.252,3  c1.294-0.646,3.044-1.844,4.5-2.25C412.081,410.618,415.221,407.449,417.102,407.996z"/>
<path fill-rule="evenodd" clip-rule="evenodd" d="M422.352,408.746c-3.07,0.599-4.859,3.104-1.5-1.5  c-1.736-0.116-3.479,2.472-5.248,3c0.874-1.367,2.283-2.455,2.998-3.75c-0.47,1.177-1.22,1.677-2.25,1.5  c1.03,0.177,1.78-0.323,2.25-1.5c0.225,2.959-1.839,1.209,2.25,0.75C417.487,413.414,421.096,408.046,422.352,408.746z"/>
<path fill-rule="evenodd" clip-rule="evenodd" d="M429.102,405.746c-1.983,1.903-8.494,7.581-2.25,4.5  c-2.311,0.4-3.483,2.026-5.25,0.75C424.131,408.004,425.757,408.494,429.102,405.746z M425.352,408.746  C424.037,409.411,418.512,412.206,425.352,408.746L425.352,408.746z"/>
<path fill-rule="evenodd" clip-rule="evenodd" d="M429.852,407.996c-2.259,2.324,0.163,2.623-3.75,4.5  C425.488,409.418,427.759,410.149,429.852,407.996z M428.352,410.246C429.812,409.674,422.744,412.439,428.352,410.246  L428.352,410.246z"/>
<path fill-rule="evenodd" clip-rule="evenodd" fill="#A55B2D" d="M382.602,389.996c-0.103,0.089-1.506,1.579-0.75,4.5  c-1.5-0.25-3-0.5-4.5-0.75c0.985-3.911,0.271-3.536,0-4.5C383.258,384.897,383.106,390.298,382.602,389.996z"/>
<path fill-rule="evenodd" clip-rule="evenodd" fill="#A55B2D" d="M383.352,395.246c1.384-2.258,2.364-4.457,1.5-7.5  c3.515,2.241,3.169,1.101,5.25,3.75c-0.61,1.342-1.675-4.383-3,0c2.225,1.888,1.745-2.751,2.25,2.25c0.47-1.043-2.454-0.331-3,0.75  c0.56,0.075,2.901-1.369,3,0C387.362,397.328,386.454,394.77,383.352,395.246z"/>
<path fill-rule="evenodd" clip-rule="evenodd" fill="#A55B2D" d="M398.352,392.246c-3.025,3.714-2.109,9.725-5.25,0.75  c-2.547,0.026,0.409,3.895,0,4.5c-1.25-0.25-2.5-0.5-3.75-0.75c0.919-2.602,1.213-4.542,1.5-7.5c1.106,0.638,5.858,5.346,5.25,5.25  C396.749,388.146,397.405,391.061,398.352,392.246z"/>
<path fill-rule="evenodd" clip-rule="evenodd" d="M495.852,410.996c0.503,1.804,2.857,1.132,2.25,4.5c-1.25,0-2.5,0-3.75,0  C497.317,413.98,496.364,412.837,495.852,410.996z"/>
<path fill-rule="evenodd" clip-rule="evenodd" d="M494.352,416.246c1.396,2.127,4.519,0.141,2.25,4.5  c-4.077-6.364,3.558-2.057-1.5-0.75C492.085,414.24,497.587,421.176,494.352,416.246z"/>
<path fill-rule="evenodd" clip-rule="evenodd" d="M495.852,421.496c-1.169,1.19,1.072,4.862-3,0.75  C495.437,423.236,494.596,422.774,495.852,421.496z"/>
<path fill-rule="evenodd" clip-rule="evenodd" d="M494.352,425.996C493.656,426.957,492.645,428.356,494.352,425.996  L494.352,425.996z M493.602,425.246C492.755,426.837,491.964,428.324,493.602,425.246L493.602,425.246z M494.352,425.996  C494.739,427.939,494.535,426.915,494.352,425.996L494.352,425.996z"/>
<path fill-rule="evenodd" clip-rule="evenodd" d="M490.602,432.746C493.761,433.045,493.256,432.998,490.602,432.746  L490.602,432.746z M492.102,432.746C493.309,431.539,493.309,431.539,492.102,432.746L492.102,432.746z"/>
<path fill-rule="evenodd" clip-rule="evenodd" d="M492.102,435.746C491.487,436.599,490.326,438.21,492.102,435.746L492.102,435.746  z M491.352,434.996C490.917,436.437,490.32,438.418,491.352,434.996L491.352,434.996z M492.852,435.746  C492.39,436.732,491.784,438.025,492.852,435.746L492.852,435.746z"/>
<path fill-rule="evenodd" clip-rule="evenodd" d="M489.852,438.746c0.892,1.825-0.446,2.33,2.25,1.5  C488.643,443.693,490.619,440.317,489.852,438.746z M490.602,440.996C492.048,439.085,491.924,439.25,490.602,440.996  L490.602,440.996z"/>
<path fill-rule="evenodd" clip-rule="evenodd" d="M489.852,445.496c-0.139-1.712,2.171-3.297-1.5,0c0-0.5,0-1,0-1.5  C492.452,441.494,489.754,444.286,489.852,445.496z M489.102,443.246C489.102,444.945,489.102,444.945,489.102,443.246  L489.102,443.246z"/>
<path fill-rule="evenodd" clip-rule="evenodd" d="M490.602,446.246C487.418,449.521,488.518,448.39,490.602,446.246L490.602,446.246  z"/>
<path fill-rule="evenodd" clip-rule="evenodd" d="M487.602,398.246c0.404-0.994-2.136-0.72-2.25,2.25c-0.125,0.085,3.174,0.056,3,0  c0.282,0.049-5.459,0.698-6.75,0.75C483.792,395.229,485.396,398.568,487.602,398.246z M483.852,400.496  C481.908,400.883,482.933,400.679,483.852,400.496L483.852,400.496z"/>
<path fill-rule="evenodd" clip-rule="evenodd" d="M493.602,397.496c-1.439,2.293-2.534,4.765,0,5.25c-0.651-0.15-3.022,0.676-4.5,0  C489.707,399.308,493.033,398.401,493.602,397.496z"/>
<path fill-rule="evenodd" clip-rule="evenodd" d="M498.852,398.246c-0.479,2.041,4.522,2.962,0,6.75  C491.38,401.85,498.2,401.023,498.852,398.246z M498.852,401.996C494.986,399.761,498.122,401.574,498.852,401.996L498.852,401.996z  "/>
<path fill-rule="evenodd" clip-rule="evenodd" fill="#5A4B4E" d="M488.352,478.496c-34.5-7.25-69-14.5-103.5-21.75  c0.25-1.5,0.5-3,0.75-4.5C407.198,456.627,482.472,461.586,488.352,478.496z"/>
<path fill-rule="evenodd" clip-rule="evenodd" fill="#F7E2E2" d="M427.602,445.496c8.82-17.713-20.345-44.866-39-18.75  C366.698,457.409,425.849,475.166,427.602,445.496z"/>
<path fill-rule="evenodd" clip-rule="evenodd" fill="#DD7235" d="M356.352,437.996c9.861-7.988,19.443-5.883,25.5,5.25  C371.819,451.188,362.16,449.431,356.352,437.996z"/>
<path fill-rule="evenodd" clip-rule="evenodd" fill="#F9BBA0" d="M368.352,410.996c-7.353,16.165-33.806,13.797-29.25-6  C343.707,384.984,369.247,391.62,368.352,410.996z"/>
<path fill-rule="evenodd" clip-rule="evenodd" fill="#7F5916" stroke="#000000" stroke-width="0.5" stroke-linecap="square" stroke-miterlimit="10" d="  M370.602,458.996c10.109,26.245-30.478,44.915-42.75,19.5C314.915,451.706,356.579,436.644,370.602,458.996z"/>
<path fill-rule="evenodd" clip-rule="evenodd" fill="#AF832C" stroke="#000000" stroke-width="0.5" stroke-linecap="square" stroke-miterlimit="10" d="  M370.602,456.746c9.385,26.322-31.379,45.019-43.5,19.5C314.345,449.388,356.246,434.691,370.602,456.746z"/>
<path fill-rule="evenodd" clip-rule="evenodd" fill="#7F5916" d="M329.352,470.996c0.539-0.979-0.702-2.03,1.5-0.75  C330.808,467.52,329.953,469.904,329.352,470.996z"/>
<path fill-rule="evenodd" clip-rule="evenodd" fill="#7F5916" d="M328.602,468.746C331.105,467.006,331.174,466.958,328.602,468.746  L328.602,468.746z"/>
<path fill-rule="evenodd" clip-rule="evenodd" fill="#7F5916" d="M328.602,466.496C329.962,466.144,332.378,465.519,328.602,466.496  L328.602,466.496z"/>
<path fill-rule="evenodd" clip-rule="evenodd" fill="#7F5916" d="M328.602,463.496C330.528,464.425,331.55,464.918,328.602,463.496  L328.602,463.496z"/>
<path fill-rule="evenodd" clip-rule="evenodd" fill="#7F5916" d="M329.352,461.996C331.474,462.274,332.665,462.43,329.352,461.996  L329.352,461.996z M330.102,461.996L330.102,461.996z"/>
<path fill-rule="evenodd" clip-rule="evenodd" fill="#7F5916" d="M330.102,460.496C332.786,458.228,331.662,459.177,330.102,460.496  L330.102,460.496z M330.852,459.746C330.248,459.142,330.248,459.142,330.852,459.746L330.852,459.746z M330.852,459.746  C332.028,459.275,332.028,459.275,330.852,459.746L330.852,459.746z"/>
<path fill-rule="evenodd" clip-rule="evenodd" fill="#7F5916" d="M330.852,457.496c1.246,0.036,1.389-1.587,2.25,0.75  c0-0.5,0-1,0-1.5C333.229,460.675,332.046,457.53,330.852,457.496z"/>
<path fill-rule="evenodd" clip-rule="evenodd" fill="#7F5916" d="M332.352,455.246c1.835,0.388,1.264-2.248,3,0.75  C333.639,457.413,334.45,455.689,332.352,455.246z"/>
<path fill-rule="evenodd" clip-rule="evenodd" fill="#7F5916" d="M333.852,453.746c2.661,0.062,0.537-1.711,3.75,0  C335.661,455.791,336.41,453.805,333.852,453.746z"/>
<path fill-rule="evenodd" clip-rule="evenodd" fill="#7F5916" d="M336.852,451.496C338.866,452.078,339.936,452.386,336.852,451.496  L336.852,451.496z"/>
<path fill-rule="evenodd" clip-rule="evenodd" fill="#7F5916" d="M338.352,450.746C339.895,451.754,341.505,452.807,338.352,450.746  L338.352,450.746z"/>
<path fill-rule="evenodd" clip-rule="evenodd" fill="#7F5916" d="M367.602,461.996C364.767,464.806,365.601,463.979,367.602,461.996  L367.602,461.996z M366.852,462.746C366.028,463.569,366.028,463.569,366.852,462.746L366.852,462.746z"/>
<path fill-rule="evenodd" clip-rule="evenodd" fill="#7F5916" d="M366.852,464.996C366.028,465.819,366.028,465.819,366.852,464.996  L366.852,464.996z"/>
<path fill-rule="evenodd" clip-rule="evenodd" fill="#7F5916" d="M366.852,467.246C365.692,465.702,367.191,467.697,366.852,467.246  L366.852,467.246z"/>
<path fill-rule="evenodd" clip-rule="evenodd" fill="#7F5916" d="M366.102,467.996C366.102,468.996,366.102,468.996,366.102,467.996  L366.102,467.996z"/>
<path fill-rule="evenodd" clip-rule="evenodd" fill="#7F5916" d="M366.102,470.246c-2.431,0.418-1.049,0.154,0.75,0  C367.083,470.215,365.14,470.411,366.102,470.246z"/>
<path fill-rule="evenodd" clip-rule="evenodd" fill="#7F5916" d="M366.102,473.246c-2.554,0.745-0.745,0.748-0.75,0.75  c-0.677,0.177-1.177-0.073-1.5-0.75C363.562,473.39,363.375,474.042,366.102,473.246z"/>
<path fill-rule="evenodd" clip-rule="evenodd" fill="#7F5916" d="M362.352,476.246C361.68,476.093,365.009,476.847,362.352,476.246  L362.352,476.246z"/>
<path fill-rule="evenodd" clip-rule="evenodd" fill="#7F5916" d="M360.102,479.996C357.972,476.716,359.383,478.889,360.102,479.996  L360.102,479.996z"/>
<path fill-rule="evenodd" clip-rule="evenodd" fill="#7F5916" d="M357.852,479.246C357.796,480.549,357.74,481.862,357.852,479.246  L357.852,479.246z M357.852,479.996C358.675,480.819,358.675,480.819,357.852,479.996L357.852,479.996z"/>
<path fill-rule="evenodd" clip-rule="evenodd" fill="#7F5916" d="M356.352,479.996C356.233,481.148,356.023,483.205,356.352,479.996  L356.352,479.996z M356.352,480.746C355.465,482.389,356.005,481.387,356.352,480.746L356.352,480.746z"/>
<path fill-rule="evenodd" clip-rule="evenodd" fill="#7F5916" d="M354.852,482.246C354.682,482.172,351.561,480.816,354.852,482.246  L354.852,482.246z"/>
<path fill="none" stroke="#54390E" stroke-width="0.25" stroke-linecap="square" stroke-miterlimit="10" d="M368.352,457.496  c9.025,23.68-23.868,39.177-38.625,19.5C313.702,455.629,354.531,434.887,368.352,457.496z"/>
<path fill-rule="evenodd" clip-rule="evenodd" fill="#54390E" d="M334.602,472.496c1.41-1.015,3.839-3.735,6.75-4.5  c-2.09-5.809,0.656-7.076-0.75-14.25c3.344-1.554,14.906-2.806,18-2.25c6.428,21.427-8.111,20.324-17.25,30  C340.27,477.125,336.328,475.538,334.602,472.496z"/>
<path fill-rule="evenodd" clip-rule="evenodd" fill="#7F5916" d="M334.602,471.746c2.983-2.505,8.312-33.998,22.5-19.5  c12.902,13.185-9.348,21.543-15,29.25C340.34,478.606,336.212,474.732,334.602,471.746z"/>
<path fill-rule="evenodd" clip-rule="evenodd" fill="#7F5916" stroke="#000000" stroke-width="0.5" stroke-linecap="square" stroke-miterlimit="10" d="  M399.102,468.746c5.875,20.596-24.112,34.859-33.75,15C354.733,461.866,387.297,452.818,399.102,468.746z"/>
<path fill-rule="evenodd" clip-rule="evenodd" fill="#AF832C" stroke="#000000" stroke-width="0.5" stroke-linecap="square" stroke-miterlimit="10" d="  M398.352,467.246c6.771,20.162-23.732,34.451-33,14.25C355.38,459.76,387.327,450.828,398.352,467.246z"/>
<path fill-rule="evenodd" clip-rule="evenodd" fill="#7F5916" d="M366.852,477.746C366.958,477.555,368.272,475.215,366.852,477.746  L366.852,477.746z"/>
<path fill-rule="evenodd" clip-rule="evenodd" fill="#7F5916" d="M366.102,476.246C368.186,474.595,368.048,474.705,366.102,476.246  L366.102,476.246z"/>
<path fill-rule="evenodd" clip-rule="evenodd" fill="#7F5916" d="M366.102,474.746C367.13,473.941,368.422,472.929,366.102,474.746  L366.102,474.746z"/>
<path fill-rule="evenodd" clip-rule="evenodd" fill="#7F5916" d="M366.102,471.746C368.386,473.569,368.251,473.461,366.102,471.746  L366.102,471.746z"/>
<path fill-rule="evenodd" clip-rule="evenodd" fill="#7F5916" d="M366.852,470.996C367.918,471.1,369.72,471.277,366.852,470.996  L366.852,470.996z M367.602,470.996C366.602,470.996,366.602,470.996,367.602,470.996L367.602,470.996z"/>
<path fill-rule="evenodd" clip-rule="evenodd" fill="#7F5916" d="M367.602,469.496C368.467,468.702,369.036,468.179,367.602,469.496  L367.602,469.496z M368.352,469.496C368.005,468.854,367.465,467.852,368.352,469.496L368.352,469.496z M368.352,469.496  C369.175,468.672,369.175,468.672,368.352,469.496L368.352,469.496z"/>
<path fill-rule="evenodd" clip-rule="evenodd" fill="#7F5916" d="M368.352,467.246c0.688,0.213,0.95,1.045,1.5-0.75  C369.231,470.234,368.86,467.403,368.352,467.246z"/>
<path fill-rule="evenodd" clip-rule="evenodd" fill="#7F5916" d="M369.102,465.746C370.729,466.125,372.498,466.539,369.102,465.746  L369.102,465.746z"/>
<path fill-rule="evenodd" clip-rule="evenodd" fill="#7F5916" d="M370.602,464.246C372.943,464.829,372.869,464.81,370.602,464.246  L370.602,464.246z"/>
<path fill-rule="evenodd" clip-rule="evenodd" fill="#7F5916" d="M372.852,462.746C373.579,463.146,375.147,464.009,372.852,462.746  L372.852,462.746z"/>
<path fill-rule="evenodd" clip-rule="evenodd" fill="#7F5916" d="M373.602,461.996C375.621,463.711,375.17,463.329,373.602,461.996  L373.602,461.996z"/>
<path fill-rule="evenodd" clip-rule="evenodd" fill="#7F5916" d="M396.102,470.996C394.474,472.432,394.242,472.637,396.102,470.996  L396.102,470.996z M396.102,471.746C395.278,472.569,395.278,472.569,396.102,471.746L396.102,471.746z"/>
<path fill-rule="evenodd" clip-rule="evenodd" fill="#7F5916" d="M395.352,473.246L395.352,473.246z"/>
<path fill-rule="evenodd" clip-rule="evenodd" fill="#7F5916" d="M395.352,474.746C394.159,475.938,397.16,472.937,395.352,474.746  L395.352,474.746z"/>
<path fill-rule="evenodd" clip-rule="evenodd" fill="#7F5916" d="M395.352,475.496C395.352,476.496,395.352,476.496,395.352,475.496  L395.352,475.496z"/>
<path fill-rule="evenodd" clip-rule="evenodd" fill="#7F5916" d="M395.352,477.746C394.879,476.319,395.299,477.587,395.352,477.746  L395.352,477.746z"/>
<path fill-rule="evenodd" clip-rule="evenodd" fill="#7F5916" d="M395.352,479.246C393.216,480.118,392.85,480.267,395.352,479.246  L395.352,479.246z"/>
<path fill-rule="evenodd" clip-rule="evenodd" fill="#7F5916" d="M392.352,482.246C392.773,481.527,392.82,481.446,392.352,482.246  L392.352,482.246z"/>
<path fill-rule="evenodd" clip-rule="evenodd" fill="#7F5916" d="M390.102,485.246C389.981,482.316,390.019,483.243,390.102,485.246  L390.102,485.246z"/>
<path fill-rule="evenodd" clip-rule="evenodd" fill="#7F5916" d="M388.602,483.746C388.754,484.422,389.352,487.069,388.602,483.746  L388.602,483.746z M388.602,485.246C389.602,485.246,389.602,485.246,388.602,485.246L388.602,485.246z"/>
<path fill-rule="evenodd" clip-rule="evenodd" fill="#7F5916" d="M387.852,484.496C387.418,485.581,386.655,487.49,387.852,484.496  L387.852,484.496z M387.852,485.996C386.852,485.996,386.852,485.996,387.852,485.996L387.852,485.996z"/>
<path fill-rule="evenodd" clip-rule="evenodd" fill="#7F5916" d="M386.352,485.996C385.69,486.61,386.351,485.996,386.352,485.996  L386.352,485.996z"/>
<path fill="none" stroke="#54390E" stroke-width="0.25" stroke-linecap="square" stroke-miterlimit="10" d="M396.852,467.996  c4.979,16.631-17.084,30.705-28.5,15.75C354.535,465.646,384.591,451.116,396.852,467.996z"/>
<path fill-rule="evenodd" clip-rule="evenodd" fill="#54390E" d="M371.352,479.246c12.757-31.254,29.024-2.883,4.5,6.75  C375.522,482.383,373.162,481.589,371.352,479.246z"/>
<path fill-rule="evenodd" clip-rule="evenodd" fill="#7F5916" d="M370.602,478.496c3.222-5.219,6.666-6.412,4.5-14.25  c21.035-10.53,14.533,14.698,1.5,21.75C375.1,483.618,372.444,481.008,370.602,478.496z"/>
</svg>