<svg xmlns="http://www.w3.org/2000/svg" xmlns:xlink="http://www.w3.org/1999/xlink" version="1.1" id="Layer_1" x="0px" y="0px" enable-background="new 0 0 822.05 841.89" xml:space="preserve" viewBox="201.2 250.22 419.06 345.73">
<path fill-rule="evenodd" clip-rule="evenodd" fill="#967A66" stroke="#000000" stroke-width="2" stroke-linecap="square" stroke-miterlimit="10" d="  M501.055,506.695c-13.29,27.126-39.5-65.254-44.064-77.157c-14.024-36.57-28.048-73.14-42.072-109.71  c-4.137-10.789-27.781-51.424-24.115-62.884c9.642-30.141,40.826,68.18,44.064,76.648  C456.93,391.292,478.992,448.994,501.055,506.695z"/>
<path fill-rule="evenodd" clip-rule="evenodd" fill="#BCBEC0" stroke="#000000" stroke-width="2" stroke-linecap="square" stroke-miterlimit="10" d="  M499.555,523.945c-74.618-0.272,24.479-76.994,19.5-19.5c25.973-8.73,71.527-21.131,91.875,6c12.621,16.827,9.591,39.556-0.375,52.5  C595.397,582.632,426.789,573.797,499.555,523.945z"/>
<path fill="none" stroke="#000000" stroke-width="2" stroke-linecap="square" stroke-miterlimit="10" d="M534.805,517.195  c24.365-6.136,71.29-9.875,80.25,21.75"/>
<path fill="none" stroke="#000000" stroke-width="2" stroke-linecap="square" stroke-miterlimit="10" d="M535.555,531.445  c26.925-5.649,63.839-6.371,79.5,21"/>
<path fill="none" stroke="#000000" stroke-width="2" stroke-linecap="square" stroke-miterlimit="10" d="M525.055,541.945  c21.612-1.805,73.895-6.062,81.75,21.75"/>
<path fill-rule="evenodd" clip-rule="evenodd" fill="#967A66" stroke="#000000" stroke-width="2" stroke-linecap="square" stroke-miterlimit="10" d="  M408.803,518.695c-13.007,28.654-39.609-64.998-44.063-76.647c-14.024-36.679-28.048-73.357-42.072-110.035  c-4.119-10.773-27.816-51.644-24.115-63.07c9.439-29.134,40.798,68.642,44.063,77.157  C364.679,403.631,386.741,461.164,408.803,518.695z"/>
<path fill-rule="evenodd" clip-rule="evenodd" fill="#BCBEC0" stroke="#000000" stroke-width="2" stroke-linecap="square" stroke-miterlimit="10" d="  M407.303,536.695c-74.616,1.269,26.168-78.557,19.502-19.5c25.717-10.21,74.293-21.073,93,7.5c9.891,15.107,11.322,44.598-5.25,51  C514.315,595.3,327.205,586.25,407.303,536.695z"/>
<path fill="none" stroke="#000000" stroke-width="2" stroke-linecap="square" stroke-miterlimit="10" d="M442.555,529.195  c25.874-4.514,69.527-9.626,81,21.75"/>
<path fill="none" stroke="#000000" stroke-width="2" stroke-linecap="square" stroke-miterlimit="10" d="M443.305,544.195  c28.322-6.668,62.22-6.026,80.25,20.25"/>
<path fill="none" stroke="#000000" stroke-width="2" stroke-linecap="square" stroke-miterlimit="10" d="M432.805,553.945  c21.38-0.333,74.079-5.949,81.75,21.75"/>
<path fill-rule="evenodd" clip-rule="evenodd" fill="#967A66" stroke="#000000" stroke-width="2" stroke-linecap="square" stroke-miterlimit="10" d="  M312.803,526.945c-14.062,28.134-39.585-64.937-44.063-76.647c-14.024-36.679-28.048-73.357-42.072-110.035  c-4.379-11.454-27.577-50.799-24.115-63.07c8.357-29.615,40.671,68.311,44.063,77.157  C268.679,411.881,290.741,469.414,312.803,526.945z"/>
<path fill-rule="evenodd" clip-rule="evenodd" fill="#BCBEC0" stroke="#000000" stroke-width="2" stroke-linecap="square" stroke-miterlimit="10" d="  M310.553,544.945c-72.636,0.108,24.965-78.17,20.25-19.5c47.869-20.527,126.315-0.22,93.752,57c-14.14,24.847-69.812,5.412-99.002,3  C291.98,582.67,273.324,570.156,310.553,544.945z"/>
<path fill="none" stroke="#000000" stroke-width="2" stroke-linecap="square" stroke-miterlimit="10" d="M345.803,537.445  c25.455-4.382,70.226-9.978,81.002,21.75"/>
<path fill="none" stroke="#000000" stroke-width="2" stroke-linecap="square" stroke-miterlimit="10" d="M347.303,552.445  c27.279-6.62,62.493-6.064,79.502,20.25"/>
<path fill="none" stroke="#000000" stroke-width="2" stroke-linecap="square" stroke-miterlimit="10" d="M336.803,562.195  c22.879-0.235,71.63-5.941,81.752,21.75"/>
</svg>