<svg xmlns="http://www.w3.org/2000/svg" xmlns:xlink="http://www.w3.org/1999/xlink" version="1.1" id="Layer_1" x="0px" y="0px" enable-background="new 0 0 822.05 841.89" xml:space="preserve" viewBox="300.34 324.63 220.19 185.67">
<path fill-rule="evenodd" clip-rule="evenodd" fill="#ABABAB" d="M455.75,427.38L455.75,427.38L455.75,427.38z"/>
<line fill="none" stroke="#000000" stroke-width="0.5" stroke-linecap="square" stroke-miterlimit="10" x1="455.75" y1="427.38" x2="455.75" y2="427.38"/>
<path fill-rule="evenodd" clip-rule="evenodd" fill="#F7F359" stroke="#000000" stroke-width="0.5" stroke-linecap="square" stroke-miterlimit="10" d="  M353.75,473.88c-1.224,6.992-0.505,14.64-0.75,21.75c3.684-6.829,10.318-12.053,14.25-18.75c0.455,7.238,3.826,14.517,3.75,21.75  c1.049-7.405,5.208-14.42,6.75-21.75c5.5,7.25,11,14.5,16.5,21.75c-2.25-9.25-4.5-18.5-6.75-27.75c10.75,2.5,21.5,5,32.25,7.5  c-6.75-7.75-13.5-15.5-20.25-23.25c22.75-0.5,45.5-1,68.25-1.5c-21.75-5.75-43.5-11.5-65.25-17.25c9.25-5.75,18.5-11.5,27.75-17.25  c-10.5,1.75-21,3.5-31.5,5.25c4.5-9,9-18,13.5-27c-8.5,5.5-17,11-25.5,16.5c-0.788-5.625-5.53-10.857-6-16.5  c-2.75,3.25-5.5,6.5-8.25,9.75c-6-9-12-18-18-27c-1,11.5-2,23-3,34.5c-6.793-5.647-15.427-9.598-21.75-15.75  c5.419,6.727,8.555,15.404,13.5,22.5c-7.231-1.345-15.428,0.457-22.5-1.5c6.398,3.23,11.046,9.877,17.25,13.5  c-9.75,2.25-19.5,4.5-29.25,6.75c10.25,3,20.5,6,30.75,9c-7.25,5.5-14.5,11-21.75,16.5c8.172-2.721,17.214-2.876,25.5-5.25  c-5.219,6.312-8.747,14.191-14.25,20.25c5.262-4.127,11.881-6.506,17.25-10.5c-6.172,12.065-12.309,24.15-17.25,36.75  C337.25,495.88,345.5,484.88,353.75,473.88z"/>
<path fill-rule="evenodd" clip-rule="evenodd" fill="#EAA22D" stroke="#000000" stroke-width="0.5" stroke-linecap="square" stroke-miterlimit="10" d="  M392,443.88c-1.182,28.876-45.971,29.195-46.5,0C344.955,413.8,391.642,414.009,392,443.88z"/>
<path fill-rule="evenodd" clip-rule="evenodd" fill="#42BF00" stroke="#000000" stroke-width="0.5" stroke-linecap="square" stroke-miterlimit="10" d="  M301.25,466.38c33.697-22.887,79.757-31.164,118.833-18.139C450.65,458.43,484.84,489.658,518,484.38  c6.066,29.357-3.877,25.5-27.188,25.5c-33.9,0-67.801,0-101.701,0c-18.731,0-37.463,0-56.195,0  C293.277,509.88,301.25,505.046,301.25,466.38z"/>
<path fill-rule="evenodd" clip-rule="evenodd" fill="#149F00" stroke="#000000" stroke-width="0.5" stroke-linecap="square" stroke-miterlimit="10" d="  M353,509.88c54.985-22.337,107.417-42.426,167.25-45.75c0,50.582,2.941,45.75-46.627,45.75  C433.415,509.88,393.208,509.88,353,509.88z"/>
<text transform="matrix(1 0 0 1 421.9951 378.6294)"><tspan x="0" y="0" font-family="'MyriadPro-Regular'" font-size="60" letter-spacing="-31">A</tspan><tspan x="5.28" y="0" font-family="'MyriadPro-Regular'" font-size="60">M</tspan></text>
<path fill-rule="evenodd" clip-rule="evenodd" fill="#020202" stroke="#000000" stroke-width="0.5" stroke-linecap="square" stroke-miterlimit="10" d="  M379.25,334.38c-4.761,7.071-7.625,16.265-11.25,24c5.644,1.33,16.856,1.33,22.5,0C386.875,350.646,384.011,341.452,379.25,334.38z"/>
<path fill-rule="evenodd" clip-rule="evenodd" fill="#020202" stroke="#000000" stroke-width="0.5" stroke-linecap="square" stroke-miterlimit="10" d="  M381.5,383.13c-8.806-4.474-4.5-24.099-4.5-36c1.5,0,3,0,4.5,0C381.5,359.13,381.5,371.13,381.5,383.13z"/>
</svg>