<svg xmlns="http://www.w3.org/2000/svg" xmlns:xlink="http://www.w3.org/1999/xlink" version="1.1" id="Layer_1" x="0px" y="0px" enable-background="new 0 0 822.05 841.89" xml:space="preserve" viewBox="309.33 355.49 201.92 133.12">
<path fill-rule="evenodd" clip-rule="evenodd" fill="#EDCBA6" stroke="#000000" stroke-width="1.25" stroke-linecap="square" stroke-miterlimit="10" d="  M337.375,446.765c2.877-2.284,6.323-5.157,9-6.75C342.724,441.483,340,444.681,337.375,446.765z"/>
<path fill-rule="evenodd" clip-rule="evenodd" fill="#EDCBA6" stroke="#000000" stroke-width="1.25" stroke-linecap="square" stroke-miterlimit="10" d="  M338.125,445.265C336.221,447.46,336.739,446.863,338.125,445.265L338.125,445.265z"/>
<path fill-rule="evenodd" clip-rule="evenodd" fill="#EDCBA6" stroke="#000000" stroke-width="1.25" stroke-linecap="square" stroke-miterlimit="10" d="  M353.125,438.515c-2.506,0.593-2.655,5.042-6.75,1.5C348.08,436.434,350.409,439.158,353.125,438.515z"/>
<path fill-rule="evenodd" clip-rule="evenodd" fill="#D2D1D2" stroke="#000000" stroke-width="1.25" stroke-linecap="square" stroke-miterlimit="10" d="  M442.375,383.015c1.403,8.993,5.056,19.433,7.5,27C445.35,401.736,442.25,391.12,442.375,383.015z"/>
<path fill-rule="evenodd" clip-rule="evenodd" fill="#D2D1D2" stroke="#000000" stroke-width="1.25" stroke-linecap="square" stroke-miterlimit="10" d="  M451.375,411.515c-1.457,6.858-3.802,12.388-3.75,19.5C446.288,424.644,449.58,417.533,451.375,411.515z"/>
<path fill-rule="evenodd" clip-rule="evenodd" fill="#D2D1D2" stroke="#000000" stroke-width="1.25" stroke-linecap="square" stroke-miterlimit="10" d="  M449.875,412.265C451.612,409.301,452.068,408.523,449.875,412.265L449.875,412.265z"/>
<path fill-rule="evenodd" clip-rule="evenodd" fill="#D2D1D2" stroke="#000000" stroke-width="1.25" stroke-linecap="square" stroke-miterlimit="10" d="  M443.875,440.765c0.964-3.687,6.084-5.146,3-11.25C441.096,432.906,444.96,436.615,443.875,440.765z"/>
<path fill-rule="evenodd" clip-rule="evenodd" fill="#D2D1D2" stroke="#000000" stroke-width="1.25" stroke-linecap="square" stroke-miterlimit="10" d="  M410.877,388.265c-1.595,9.699-5.827,21.187-9.002,29.25C407.001,408.48,410.79,398.019,410.877,388.265z"/>
<path fill-rule="evenodd" clip-rule="evenodd" stroke="#000000" stroke-width="1.25" stroke-linecap="square" stroke-miterlimit="10" d="  M401.125,416.765c-1.104,7.602-1.637,16.578-3,23.25C401.305,432.24,401.138,424.334,401.125,416.765z"/>
<path fill-rule="evenodd" clip-rule="evenodd" fill="#FFFFFF" stroke="#000000" stroke-width="1.25" stroke-linecap="square" stroke-miterlimit="10" d="  M397.375,443.015c0.781-2.404-2.036-6.121,3-9.75C403.287,438.989,398.475,439.631,397.375,443.015z"/>
<path fill-rule="evenodd" clip-rule="evenodd" stroke="#000000" stroke-width="1.25" stroke-linecap="square" stroke-miterlimit="10" d="  M401.875,416.015C400.798,420.264,400.762,420.409,401.875,416.015L401.875,416.015z"/>
<path fill-rule="evenodd" clip-rule="evenodd" fill="#D2D1D2" stroke="#000000" stroke-width="1.25" stroke-linecap="square" stroke-miterlimit="10" d="  M422.125,378.515c16.792-6.185,43.587,12.619,22.5,24c-0.75-4-1.5-8-2.25-12c0.75,9,1.5,18,2.25,27c-12.5,0.5-25,1-37.5,1.5  C415.521,404.189,391.458,381.438,422.125,378.515z"/>
<path fill-rule="evenodd" clip-rule="evenodd" fill="#D2D1D2" d="M410.877,401.765l2.25-7.5L410.877,401.765z"/>
<line fill="none" stroke="#000000" stroke-width="1.25" stroke-linecap="square" stroke-miterlimit="10" x1="410.877" y1="401.765" x2="413.127" y2="394.265"/>
<path fill-rule="evenodd" clip-rule="evenodd" fill="#D2D1D2" stroke="#000000" stroke-width="1.25" stroke-linecap="square" stroke-miterlimit="10" d="  M435.625,365.015c6.135,19.877-17.402,23.039-23.998,4.5C420.607,369.784,427.312,367.163,435.625,365.015z"/>
<path fill-rule="evenodd" clip-rule="evenodd" fill="#D2D1D2" stroke="#000000" stroke-width="1.25" stroke-linecap="square" stroke-miterlimit="10" d="  M411.627,367.265c12.249,0.596,25.237-2.324,35.248-8.25C434.374,358.429,417.675,349.136,411.627,367.265z"/>
<path fill-rule="evenodd" clip-rule="evenodd" fill="#D2D1D2" stroke="#000000" stroke-width="1.25" stroke-linecap="square" stroke-miterlimit="10" d="  M438.625,429.515c1.382,7.799,1.985,15.611,3.75,23.25C440.174,447.255,438.317,433.283,438.625,429.515z"/>
<path fill-rule="evenodd" clip-rule="evenodd" fill="#D2D1D2" d="M440.875,452.765c-1,10.25-2,20.5-3,30.75  C439.459,475.678,441.027,458.956,440.875,452.765z"/>
<path fill="none" stroke="#000000" stroke-width="1.25" stroke-linecap="square" stroke-miterlimit="10" d="M440.875,452.765  c-1,10.25-2,20.5-3,30.75C439.459,475.678,441.027,458.956,440.875,452.765"/>
<path fill-rule="evenodd" clip-rule="evenodd" fill="#D2D1D2" stroke="#000000" stroke-width="1.25" stroke-linecap="square" stroke-miterlimit="10" d="  M437.875,482.015c8.445-0.594,13.313-2.26,19.5,3.75C446.352,489.306,440.076,487.735,437.875,482.015z"/>
<path fill-rule="evenodd" clip-rule="evenodd" fill="#D2D1D2" stroke="#000000" stroke-width="1.25" stroke-linecap="square" stroke-miterlimit="10" d="  M417.625,430.265c-0.67,8.036-0.22,15.983-1.5,24C418.401,447.733,418.89,433.958,417.625,430.265z"/>
<path fill-rule="evenodd" clip-rule="evenodd" fill="#D2D1D2" d="M417.625,453.515c1.25,9.75,2.5,19.5,3.75,29.25  C420.404,473.99,417.712,459.458,417.625,453.515z"/>
<path fill="none" stroke="#000000" stroke-width="1.25" stroke-linecap="square" stroke-miterlimit="10" d="M417.625,453.515  c1.25,9.75,2.5,19.5,3.75,29.25C420.404,473.99,417.712,459.458,417.625,453.515"/>
<path fill-rule="evenodd" clip-rule="evenodd" fill="#D2D1D2" stroke="#000000" stroke-width="1.25" stroke-linecap="square" stroke-miterlimit="10" d="  M421.375,480.515c-8.644,0.251-13.711-1.123-18.75,6C414.16,488.669,419.604,485.771,421.375,480.515z"/>
<path fill-rule="evenodd" clip-rule="evenodd" fill="#D2D1D2" stroke="#000000" stroke-width="1.25" stroke-linecap="square" stroke-miterlimit="10" d="  M414.627,421.265c-1.26,7.902-9.88,26.756-6.002,31.5c10.037,12.278,19.51-8.944,18-17.25c-0.361,7.92,11.558,28.811,20.25,15  C458.15,432.599,428.34,417.036,414.627,421.265z"/>
<path fill-rule="evenodd" clip-rule="evenodd" stroke="#000000" stroke-width="1.25" stroke-linecap="square" stroke-miterlimit="10" d="  M386.125,391.265c6.129-11.066-0.329-28.571-15.75-24C344.949,374.802,364.864,394.484,386.125,391.265z"/>
<path fill-rule="evenodd" clip-rule="evenodd" stroke="#000000" stroke-width="1.25" stroke-linecap="square" stroke-miterlimit="10" d="  M380.125,394.265c5.013,7.127,10.519,12.981,13.5,21C392.264,406.976,386.441,400.27,380.125,394.265z"/>
<path fill-rule="evenodd" clip-rule="evenodd" fill="#EDCBA6" stroke="#000000" stroke-width="1.25" stroke-linecap="square" stroke-miterlimit="10" d="  M392.875,414.515c1.959,6.283,4.912,11.106,5.25,18C398.896,426.179,394.78,418.791,392.875,414.515z"/>
<path fill-rule="evenodd" clip-rule="evenodd" fill="#EDCBA6" stroke="#000000" stroke-width="1.25" stroke-linecap="square" stroke-miterlimit="10" d="  M394.375,416.015C392.702,412.154,393.052,412.961,394.375,416.015L394.375,416.015z"/>
<path fill-rule="evenodd" clip-rule="evenodd" fill="#EDCBA6" stroke="#000000" stroke-width="1.25" stroke-linecap="square" stroke-miterlimit="10" d="  M398.875,443.765c-0.247-3.596-4.959-6.089,0-12C403.007,436.715,398.745,439.054,398.875,443.765z"/>
<path fill-rule="evenodd" clip-rule="evenodd" stroke="#000000" stroke-width="1.25" stroke-linecap="square" stroke-miterlimit="10" d="  M364.375,395.015c-4.329,7.852-9.058,14.498-11.25,23.25C352.945,410.745,357.635,400.585,364.375,395.015z"/>
<path fill-rule="evenodd" clip-rule="evenodd" stroke="#000000" stroke-width="1.25" stroke-linecap="square" stroke-miterlimit="10" d="  M353.875,414.515c-1.479,7.355-3.929,13.343-3.75,21C348.827,428.667,352.077,421.059,353.875,414.515z"/>
<path fill-rule="evenodd" clip-rule="evenodd" stroke="#000000" stroke-width="1.25" stroke-linecap="square" stroke-miterlimit="10" d="  M352.375,417.515C353.351,412.613,353.351,412.616,352.375,417.515L352.375,417.515z"/>
<path fill-rule="evenodd" clip-rule="evenodd" fill="#EDCBA6" stroke="#000000" stroke-width="1.25" stroke-linecap="square" stroke-miterlimit="10" d="  M347.125,445.265c1.343-4.521,5.356-7.182,3-13.5C345.103,436.153,347.78,439.797,347.125,445.265z"/>
<path fill-rule="evenodd" clip-rule="evenodd" fill="#F8E616" stroke="#000000" stroke-width="1.25" stroke-linecap="square" stroke-miterlimit="10" d="  M357.625,396.515c13.892-5.666,52.594,4.131,32.25,18.75c-1-3-2-6-3-9c2.003,5.265,0.722,12.367,1.5,18c-10.75,0-21.5,0-32.25,0  c1.591-5.394,1.752-12.396,4.5-17.25c-7.524,10.147-3.251,2.69-11.25,6.75C350.947,408.034,353.549,400.972,357.625,396.515z"/>
<path fill-rule="evenodd" clip-rule="evenodd" fill="#EDCBA6" stroke="#000000" stroke-width="1.25" stroke-linecap="square" stroke-miterlimit="10" d="  M365.125,377.015c-3.689,18.577,15.831,21.438,21,3.75C378.731,380.675,372.139,377.333,365.125,377.015z"/>
<path fill-rule="evenodd" clip-rule="evenodd" stroke="#000000" stroke-width="1.25" stroke-linecap="square" stroke-miterlimit="10" d="  M381.625,437.765c0.815,6.14,1.532,15.46,1.5,20.25C381.282,452.089,381.629,439.355,381.625,437.765z"/>
<path fill-rule="evenodd" clip-rule="evenodd" d="M381.625,458.015c-1.298,8.05-2.841,18.845-3,25.5  C380.678,476.011,382.242,461.522,381.625,458.015z"/>
<path fill="none" stroke="#000000" stroke-width="1.25" stroke-linecap="square" stroke-miterlimit="10" d="M381.625,458.015  c-1.298,8.05-2.841,18.845-3,25.5C380.678,476.011,382.242,461.522,381.625,458.015"/>
<path fill-rule="evenodd" clip-rule="evenodd" fill="#FB0F0C" stroke="#000000" stroke-width="1.25" stroke-linecap="square" stroke-miterlimit="10" d="  M377.875,482.765c6.363,1.178,9.732-2.056,12.75,4.5C380.085,490.03,379.436,484.017,377.875,482.765z"/>
<path fill-rule="evenodd" clip-rule="evenodd" stroke="#000000" stroke-width="1.25" stroke-linecap="square" stroke-miterlimit="10" d="  M371.125,439.265c-1.192,6.842-1.83,13.847-3.75,20.25C370.084,454.337,370.451,444.456,371.125,439.265z"/>
<path fill-rule="evenodd" clip-rule="evenodd" d="M369.625,459.515c0.89,8.346,1.802,17.713,1.5,25.5  C370.425,477.223,368.862,462.297,369.625,459.515z"/>
<path fill="none" stroke="#000000" stroke-width="1.25" stroke-linecap="square" stroke-miterlimit="10" d="M369.625,459.515  c0.89,8.346,1.802,17.713,1.5,25.5C370.425,477.223,368.862,462.297,369.625,459.515"/>
<path fill-rule="evenodd" clip-rule="evenodd" fill="#FB0F0C" stroke="#000000" stroke-width="1.25" stroke-linecap="square" stroke-miterlimit="10" d="  M372.625,482.765c-7.13,0.773-11.562-1.744-15,4.5C366.875,488.933,370.711,484.076,372.625,482.765z"/>
<path fill-rule="evenodd" clip-rule="evenodd" fill="#FB0F0C" stroke="#000000" stroke-width="1.25" stroke-linecap="square" stroke-miterlimit="10" d="  M364.375,425.015c23.432-7.16,25.189,15.382,32.25,32.25c-14.793,5.008-31.375,4.922-46.5,0.75  C354.875,447.015,359.625,436.015,364.375,425.015z"/>
<path fill-rule="evenodd" clip-rule="evenodd" fill="#D2D1D2" stroke="#000000" stroke-width="1.25" stroke-linecap="square" stroke-miterlimit="10" d="  M331.375,431.015C330.465,393.715,296.745,446.863,331.375,431.015L331.375,431.015z"/>
<path fill-rule="evenodd" clip-rule="evenodd" fill="#D2D1D2" stroke="#000000" stroke-width="1.25" stroke-linecap="square" stroke-miterlimit="10" d="  M329.125,433.265c2.829,3.799,5.957,8.654,8.25,12C335.821,439.564,332.506,437.718,329.125,433.265z"/>
<path fill-rule="evenodd" clip-rule="evenodd" fill="#D2D1D2" stroke="#000000" stroke-width="1.25" stroke-linecap="square" stroke-miterlimit="10" d="  M320.125,434.015c-2.385,4.133-5.777,8.911-7.5,12.75C313.729,440.986,318.327,436.744,320.125,434.015z"/>
<path fill-rule="evenodd" clip-rule="evenodd" fill="#D2D1D2" stroke="#000000" stroke-width="1.25" stroke-linecap="square" stroke-miterlimit="10" d="  M313.375,445.265c-0.789,3.992-1.405,8.016-2.25,12C311.333,453.024,312.568,449.349,313.375,445.265z"/>
<path fill-rule="evenodd" clip-rule="evenodd" fill="#D2D1D2" stroke="#000000" stroke-width="1.25" stroke-linecap="square" stroke-miterlimit="10" d="  M312.625,446.765C313.053,445.748,314.068,443.334,312.625,446.765L312.625,446.765z"/>
<path fill-rule="evenodd" clip-rule="evenodd" fill="#D2D1D2" stroke="#000000" stroke-width="1.25" stroke-linecap="square" stroke-miterlimit="10" d="  M310.375,463.265c0.404-2.316,3.895-4.183,0.75-7.5C308.738,458.557,310.83,460.657,310.375,463.265z"/>
<path fill-rule="evenodd" clip-rule="evenodd" fill="#D2D1D2" stroke="#000000" stroke-width="1.25" stroke-linecap="square" stroke-miterlimit="10" d="  M316.375,434.765c10.047-4.516,18.387-1.539,22.5,9c-6.835,3.234-2.548-2.177-6-3c0.25,3.25,0.5,6.5,0.75,9.75  c-4.751,1.229-14.044,1.354-18.75,0c1-3.25,2-6.5,3-9.75c-4.335,3.927,0.112,5.323-6.75,3.75  C312.001,440.554,315.191,438.12,316.375,434.765z"/>
<path fill-rule="evenodd" clip-rule="evenodd" fill="#D2D1D2" stroke="#000000" stroke-width="1.25" stroke-linecap="square" stroke-miterlimit="10" d="  M317.875,427.265c8.126,5.015,11.758,8.838,11.25-5.25C325.645,424.427,321.866,426.041,317.875,427.265z"/>
<path fill-rule="evenodd" clip-rule="evenodd" fill="#D2D1D2" stroke="#000000" stroke-width="1.25" stroke-linecap="square" stroke-miterlimit="10" d="  M329.875,458.015c0.202,4.242,0.031,8.169,1.5,12C329.15,466.936,330.021,461.074,329.875,458.015z"/>
<path fill-rule="evenodd" clip-rule="evenodd" fill="#D2D1D2" d="M329.875,470.015c-0.77,4.997-1.5,10-2.25,15  C328.582,481.205,329.869,470.066,329.875,470.015z"/>
<path fill="none" stroke="#000000" stroke-width="1.25" stroke-linecap="square" stroke-miterlimit="10" d="M329.875,470.015  c-0.77,4.997-1.5,10-2.25,15C328.582,481.205,329.869,470.066,329.875,470.015"/>
<path fill-rule="evenodd" clip-rule="evenodd" fill="#D2D1D2" stroke="#000000" stroke-width="1.25" stroke-linecap="square" stroke-miterlimit="10" d="  M327.625,484.265c3.274,1.179,5.587-1.109,7.5,2.25C329.094,488.817,327.392,484.181,327.625,484.265z"/>
<path fill-rule="evenodd" clip-rule="evenodd" fill="#D2D1D2" stroke="#000000" stroke-width="1.25" stroke-linecap="square" stroke-miterlimit="10" d="  M323.875,458.765c-0.554,3.672-1.411,9.737-1.5,12C322.875,466.765,323.375,462.765,323.875,458.765z"/>
<path fill-rule="evenodd" clip-rule="evenodd" fill="#D2D1D2" d="M322.375,470.765c0.555,4.977,1.068,10.018,1.5,15  C323.335,481.244,322.687,473.883,322.375,470.765z"/>
<path fill="none" stroke="#000000" stroke-width="1.25" stroke-linecap="square" stroke-miterlimit="10" d="M322.375,470.765  c0.555,4.977,1.068,10.018,1.5,15C323.335,481.244,322.687,473.883,322.375,470.765"/>
<path fill-rule="evenodd" clip-rule="evenodd" fill="#D2D1D2" stroke="#000000" stroke-width="1.25" stroke-linecap="square" stroke-miterlimit="10" d="  M324.625,484.265c-3.876,0.937-6.395-0.737-9,2.25C319.755,487.414,325.645,484.019,324.625,484.265z"/>
<path fill-rule="evenodd" clip-rule="evenodd" fill="#D2D1D2" stroke="#000000" stroke-width="1.25" stroke-linecap="square" stroke-miterlimit="10" d="  M319.375,452.015c11.737-1.434,17.499,5.534,18.75,18c-7.986,2.512-18.197,2.537-26.25,0  C314.207,464.419,315.689,456.76,319.375,452.015z"/>
<path fill-rule="evenodd" clip-rule="evenodd" fill="#D2D1D2" stroke="#000000" stroke-width="1.25" stroke-linecap="square" stroke-miterlimit="10" d="  M478.375,426.515c-0.274,4.574-5.22,8.769,9,5.25C485.295,424.559,482.269,429.268,478.375,426.515z"/>
<path fill-rule="evenodd" clip-rule="evenodd" fill="#D2D1D2" stroke="#000000" stroke-width="1.25" stroke-linecap="square" stroke-miterlimit="10" d="  M506.875,454.265c-6.635-6.576-12.733-13.956-18-21.75C491.876,439.751,500.416,450.648,506.875,454.265z"/>
<path fill-rule="evenodd" clip-rule="evenodd" fill="#D2D1D2" stroke="#000000" stroke-width="1.25" stroke-linecap="square" stroke-miterlimit="10" d="  M476.125,482.015c-4.511,2.296-7.491-0.939-10.5,4.5C473.692,487.969,475.979,482.094,476.125,482.015z"/>
<path fill-rule="evenodd" clip-rule="evenodd" fill="#D2D1D2" stroke="#000000" stroke-width="1.25" stroke-linecap="square" stroke-miterlimit="10" d="  M466.375,464.015c3.755-3.966,8.015-7.514,12-11.25c-1-1-2-2-3-3c-12.525,9.969-11.62,22.837-0.75,33.75  C473.216,477.821,469.593,470.226,466.375,464.015z"/>
<path fill-rule="evenodd" clip-rule="evenodd" fill="#D2D1D2" stroke="#000000" stroke-width="1.25" stroke-linecap="square" stroke-miterlimit="10" d="  M483.625,482.015c3.441,2.854,6.93,0.351,9,5.25C483.306,488.734,484.728,482.93,483.625,482.015z"/>
<path fill-rule="evenodd" clip-rule="evenodd" fill="#D2D1D2" stroke="#000000" stroke-width="1.25" stroke-linecap="square" stroke-miterlimit="10" d="  M490.375,419.765c-5.479,12.172-10.754,12.015-15-0.75C480.336,419.663,485.487,419.069,490.375,419.765z"/>
<path fill-rule="evenodd" clip-rule="evenodd" fill="#D2D1D2" stroke="#000000" stroke-width="1.25" stroke-linecap="square" stroke-miterlimit="10" d="  M475.375,418.265c7.466,0.675,14.286,1.007,21.75-0.75C489.938,411.774,482.361,411.071,475.375,418.265z"/>
<path fill-rule="evenodd" clip-rule="evenodd" fill="#D2D1D2" stroke="#000000" stroke-width="1.25" stroke-linecap="square" stroke-miterlimit="10" d="  M477.625,429.515c-8.32-3.609-18.178-8.434-25.5-11.25C460.176,423.139,471.799,428.797,477.625,429.515z"/>
<path fill-rule="evenodd" clip-rule="evenodd" fill="#D2D1D2" stroke="#000000" stroke-width="1.25" stroke-linecap="square" stroke-miterlimit="10" d="  M470.125,424.265c0.405,1.353-2.258,4.982-3,6c4.877,9.36,5.707,2.354,3.75,16.5c4.069,1.753,13.693,3.424,18,3  c-0.25-3.75-0.5-7.5-0.75-11.25c5.832-0.941,2.711,1.656,9-2.25C487.095,433.133,478.769,431.074,470.125,424.265z"/>
<path fill-rule="evenodd" clip-rule="evenodd" fill="#D2D1D2" stroke="#000000" stroke-width="1.25" stroke-linecap="square" stroke-miterlimit="10" d="  M484.375,464.015c0.04-4.828,0.011-9.467,0.75-14.25c-2.823,8.028-2.312,22.826-0.75,33.75  C484.492,477.271,484.415,469.097,484.375,464.015z"/>
<path fill-rule="evenodd" clip-rule="evenodd" fill="#D2D1D2" stroke="#000000" stroke-width="1.25" stroke-linecap="square" stroke-miterlimit="10" d="  M471.625,449.765c-2,2.5-4,5-6,7.5c2.788,0.87,4.025,4.649,6,6c2.25-2,4.5-4,6.75-6c4.768,10.387,0.699,3.273,9.75,8.25  C490.913,451.736,483.481,445.892,471.625,449.765z"/>
<path fill-rule="evenodd" clip-rule="evenodd" fill="#D2D1D2" stroke="#000000" stroke-width="1.25" stroke-linecap="square" stroke-miterlimit="10" d="  M503.125,453.515c2.629,1.321,3.188,5.434,7.5,3.75c0-0.5,0-1,0-1.5C508.054,453.081,505.041,454.478,503.125,453.515z"/>
<path fill-rule="evenodd" clip-rule="evenodd" fill="#D2D1D2" stroke="#000000" stroke-width="1.25" stroke-linecap="square" stroke-miterlimit="10" d="  M453.625,419.765c-0.958-3.678-4.269-6.454-3-11.25C454.469,411.882,452.632,415.952,453.625,419.765z"/>
<path fill-rule="evenodd" clip-rule="evenodd" d="M338.875,386.015c-13.595,2.709-21.829,13.309-16.5,26.25c1.5-0.25,3-0.5,4.5-0.75  c-6.748-13.629,5.381-22.512,13.5-16.5c4.753-2.388,10.555-6.673,14.25-10.5C343.396,379.963,340.1,385.402,338.875,386.015z"/>
</svg>