<svg xmlns="http://www.w3.org/2000/svg" xmlns:xlink="http://www.w3.org/1999/xlink" version="1.1" id="Layer_1" x="0px" y="0px" enable-background="new 0 0 822.05 841.89" xml:space="preserve" viewBox="306.92 347.36 208.15 148.03">
<path fill-rule="evenodd" clip-rule="evenodd" fill="#ABABAB" d="M479.502,365.89L479.502,365.89L479.502,365.89z"/>
<line fill="none" stroke="#000000" stroke-linecap="square" stroke-miterlimit="10" x1="479.502" y1="365.89" x2="479.502" y2="365.89"/>
<path fill-rule="evenodd" clip-rule="evenodd" fill="#200F75" d="M428.502,449.89L428.502,449.89L428.502,449.89z"/>
<line fill="none" stroke="#000000" stroke-linecap="square" stroke-miterlimit="10" x1="428.502" y1="449.89" x2="428.502" y2="449.89"/>
<path fill="none" stroke="#000000" stroke-linecap="square" stroke-miterlimit="10" d="M410.5,468.64  C411.5,468.64,411.5,468.64,410.5,468.64L410.5,468.64z"/>
<path fill="none" stroke="#000000" stroke-linecap="square" stroke-miterlimit="10" d="M366.25,431.89  C365.25,431.89,365.25,431.89,366.25,431.89L366.25,431.89z"/>
<path fill-rule="evenodd" clip-rule="evenodd" d="M512.502,446.14c-2.947-44.751-59.67-40.18-57,3.75  C458.195,494.198,514.907,490.362,512.502,446.14z M487.752,472.39c-21.822-5.312-25.977-50.523,0-50.25  C513.42,422.41,509.373,467.126,487.752,472.39z"/>
<path fill="none" stroke="#000000" stroke-linecap="square" stroke-miterlimit="10" d="M512.502,446.14  c-2.947-44.751-59.67-40.18-57,3.75C458.195,494.198,514.907,490.362,512.502,446.14z M487.752,472.39  c-21.822-5.312-25.977-50.523,0-50.25C513.42,422.41,509.373,467.126,487.752,472.39z"/>
<path fill-rule="evenodd" clip-rule="evenodd" d="M377.5,405.64c-1.294,50.261,23.058,78.089,78.752,58.5c-1.75-0.5-3.5-1-5.25-1.5  c13.476-5.126,11.88-12.337,1.5-17.25c11.891-6.756,53.65-48,18.234-48c-35.354,0-41.419-9.965-72.986-19.5  c-5.65-1.707-1.252-11.044-15-6.75c-3.344,1.044-10.725,18.044-16.5,21C370.364,396.529,372.269,401.606,377.5,405.64z"/>
<path fill="none" stroke="#000000" stroke-linecap="square" stroke-miterlimit="10" d="M377.5,405.64  c-1.294,50.261,23.058,78.089,78.752,58.5c-1.75-0.5-3.5-1-5.25-1.5c13.476-5.126,11.88-12.337,1.5-17.25  c11.891-6.756,53.65-48,18.234-48c-35.354,0-41.419-9.965-72.986-19.5c-5.65-1.707-1.252-11.044-15-6.75  c-3.344,1.044-10.725,18.044-16.5,21C370.364,396.529,372.269,401.606,377.5,405.64z"/>
<path fill="none" stroke="#000000" stroke-linecap="square" stroke-miterlimit="10" d="M497.502,432.64  c-2.922,4.441-6.227,6.232-3,10.5c1.75-2.5,3.5-5,5.25-7.5c-0.953,13.496,2.645,7.401-3.75,15.75  c3.188,8.975,3.808,2.807-0.75,14.25c-1.757-6.31-3.33-5.708-6-9c-0.25,3.75-0.5,7.5-0.75,11.25c-1.5,0-3,0-4.5,0  c-7.221-10.565-1.378-1.799-10.5-7.5c2-2,4-4,6-6c-2.5,0-5,0-7.5,0C470.404,438.318,482.425,414.01,497.502,432.64z"/>
<path fill-rule="evenodd" clip-rule="evenodd" fill="#BEBEBF" stroke="#000000" stroke-linecap="square" stroke-miterlimit="10" d="  M493.752,447.64c-0.846,18.625-18.403,18.911-18,0C476.141,429.418,492.521,429.839,493.752,447.64z"/>
<path fill-rule="evenodd" clip-rule="evenodd" fill="#BEBEBF" stroke="#000000" stroke-linecap="square" stroke-miterlimit="10" d="  M498.252,449.89C483.767,492.846,485.479,406.327,498.252,449.89L498.252,449.89z"/>
<path fill="none" stroke="#000000" stroke-linecap="square" stroke-miterlimit="10" d="M487.002,428.14  c-13.405,4.652-20.705,38.475,0,39C508.062,467.674,501.906,432.626,487.002,428.14z"/>
<path fill-rule="evenodd" clip-rule="evenodd" fill="#BEBEBF" stroke="#000000" stroke-linecap="square" stroke-miterlimit="10" d="  M487.752,422.14c-21.94,5.324-25.867,50.546,0,50.25C513.341,472.097,509.462,427.434,487.752,422.14z M487.002,467.14  c-13.511-5.081-20.404-38.466,0-39C507.869,427.593,501.69,462.143,487.002,467.14z"/>
<path fill-rule="evenodd" clip-rule="evenodd" stroke="#000000" stroke-linecap="square" stroke-miterlimit="10" d="M355.75,375.64  c3.991,1.985,7.106,4.589,9.75,6.75c-1.875,1.066-6.709,2.941-9,3.75C353.018,381.925,356.577,380.275,355.75,375.64z"/>
<path fill-rule="evenodd" clip-rule="evenodd" fill="#BEBEBF" stroke="#000000" stroke-linecap="square" stroke-miterlimit="10" d="  M505.752,403.39c6.889,0.479,12.365-3.863,6,10.5C509.752,410.39,507.752,406.89,505.752,403.39z"/>
<path fill-rule="evenodd" clip-rule="evenodd" stroke="#000000" stroke-linecap="square" stroke-miterlimit="10" d="M493.752,396.64  c0.032-19.693-33.522-16.917-35.25-3.75C456.12,411.045,486.814,398.792,493.752,396.64z"/>
<path fill-rule="evenodd" clip-rule="evenodd" fill="#BEBEBF" stroke="#000000" stroke-linecap="square" stroke-miterlimit="10" d="  M377.5,350.89c0.351,5.735,6.023,6.087,0.75,11.25C370.985,356.04,377.79,355.627,377.5,350.89z"/>
<path fill-rule="evenodd" clip-rule="evenodd" fill="#BEBEBF" stroke="#000000" stroke-linecap="square" stroke-miterlimit="10" d="  M352.75,452.14c-1.816,21.975-29.25,22.673-29.25,0S350.934,430.166,352.75,452.14z"/>
<path fill="none" stroke="#000000" stroke-linecap="square" stroke-miterlimit="10" d="M328,427.39  c3.819,4.418,6.561,10.094,9.75,15c-4.942-2.578-10.852-3.345-15.75-6c0.129,7.801,3.614,11.459,12.75,17.25  c0.25-1.75,0.5-3.5,0.75-5.25c-10.76,2.9-14.531,4.26-17.25,12.75c6.417-1.118,17.405,0.565,21,0  c-6.266-0.41-13.228,2.916-19.5,3.75c2,4.5,4,9,6,13.5c2.858-6.372,10.954-10.311,14.25-16.5c4.962,5.617,13.113,9.538,17.25,15.75  c-2.748-4.84-4.711-14.239-8.25-20.25c5.608,0.264,11.746-1.717,17.25-0.75c-2.974-1.096-9.467-5.926-14.25-7.5  c4.495-1.694,5.888-5.828,14.25-6.75c-1.25-3-2.5-6-3.75-9c-5.098,4.726-13.777,5.525-18.75,10.5c0.741-7.573-3.802-15.686-3-23.25  C336.5,422.89,332.25,425.14,328,427.39z"/>
<path fill-rule="evenodd" clip-rule="evenodd" fill="#BEBEBF" stroke="#000000" stroke-linecap="square" stroke-miterlimit="10" d="  M364,389.14c-8.351,14.713-14.322,30.264-21,45.75c1.75,1.25,3.5,2.5,5.25,3.75C354.544,426.319,365.489,398.502,364,389.14z"/>
<path fill-rule="evenodd" clip-rule="evenodd" d="M340.75,411.64c-44.294,2.203-44.595,83.25,0,83.25S385.044,413.843,340.75,411.64  z M343,487.39c-34.559-4.567-36.583-68.402,0-69C380.165,417.783,378.888,483.799,343,487.39z"/>
<path fill="none" stroke="#000000" stroke-linecap="square" stroke-miterlimit="10" d="M340.75,411.64  c-44.294,2.203-44.595,83.25,0,83.25S385.044,413.843,340.75,411.64z M343,487.39c-34.559-4.567-36.583-68.402,0-69  C380.165,417.783,378.888,483.799,343,487.39z"/>
<path fill-rule="evenodd" clip-rule="evenodd" fill="#BEBEBF" stroke="#000000" stroke-linecap="square" stroke-miterlimit="10" d="  M343,418.39c-34.905,4.251-36.26,68.407,0,69C379.859,487.993,379.215,421.682,343,418.39z M342.25,484.39  c-28.973-4.567-30.844-61.7,0-61.5C373.041,423.089,370.812,479.743,342.25,484.39z"/>
<path fill-rule="evenodd" clip-rule="evenodd" fill="#F8130D" stroke="#000000" stroke-linecap="square" stroke-miterlimit="10" d="  M335.5,407.89c26.419-6.313,51.338,26.663,39,48.75c0.849-13.033,0.018-28.044-11.25-36c-1.75,2.75-3.5,5.5-5.25,8.25  C361.111,415.971,348.615,408.864,335.5,407.89z"/>
<path fill-rule="evenodd" clip-rule="evenodd" fill="#BEBEBF" stroke="#000000" stroke-linecap="square" stroke-miterlimit="10" d="  M349.75,452.89C333.232,493.59,335.557,412.5,349.75,452.89L349.75,452.89z"/>
<path fill-rule="evenodd" clip-rule="evenodd" fill="#BEBEBF" stroke="#000000" stroke-linecap="square" stroke-miterlimit="10" d="  M350.5,453.64C336.128,473.332,336.639,433.537,350.5,453.64L350.5,453.64z"/>
<path fill-rule="evenodd" clip-rule="evenodd" fill="#BEBEBF" stroke="#000000" stroke-linecap="square" stroke-miterlimit="10" d="  M379,386.89c-4.481,9.209-36.146,72.02-30,70.5C356.889,455.44,381.435,396.278,379,386.89z"/>
<path fill-rule="evenodd" clip-rule="evenodd" fill="#F7F619" stroke="#000000" stroke-linecap="square" stroke-miterlimit="10" d="  M359.5,380.89C351.556,381.173,351.944,381.159,359.5,380.89L359.5,380.89z"/>
<path fill-rule="evenodd" clip-rule="evenodd" fill="#FFFFFF" stroke="#000000" stroke-linecap="square" stroke-miterlimit="10" d="  M367.75,363.64c5.967-0.602,11.804,0.49,17.25,3C381.229,391.399,359.965,390.08,367.75,363.64z"/>
<path fill-rule="evenodd" clip-rule="evenodd" fill="#F8130D" stroke="#000000" stroke-linecap="square" stroke-miterlimit="10" d="  M380.5,356.89C401.239,366.57,372.372,378.079,380.5,356.89L380.5,356.89z"/>
<path fill-rule="evenodd" clip-rule="evenodd" fill="#BEBEBF" stroke="#000000" stroke-linecap="square" stroke-miterlimit="10" d="  M388.75,368.14c6.682-14.334,16.745-26.426,28.502-11.25C399.857,349.963,398.466,372.721,388.75,368.14z"/>
<path fill-rule="evenodd" clip-rule="evenodd" d="M377.5,350.89c-4.771,3.322-2.023,7.961-9.75,7.5c-0.25-1.5-0.5-3-0.75-4.5  C370.5,352.89,374,351.89,377.5,350.89z"/>
<path fill="none" stroke="#000000" stroke-linecap="square" stroke-miterlimit="10" d="M377.5,350.89  c-4.771,3.322-2.023,7.961-9.75,7.5c-0.25-1.5-0.5-3-0.75-4.5C370.5,352.89,374,351.89,377.5,350.89z"/>
<path fill-rule="evenodd" clip-rule="evenodd" fill="#BEBEBF" stroke="#000000" stroke-linecap="square" stroke-miterlimit="10" d="  M364,384.64c2.128,5.552,7.705,7.923,17.25,7.5c-1.736-7.469-0.548-14.243,5.25-20.25c-2.955-1.181,1.22,6.595,0.75,6c2-2,4-4,6-6  C375.019,359.614,383.403,387.63,364,384.64z"/>
<path fill-rule="evenodd" clip-rule="evenodd" fill="#F7F73D" stroke="#000000" stroke-linecap="square" stroke-miterlimit="10" d="  M373.75,374.89C359.443,409.554,362.8,339.274,373.75,374.89L373.75,374.89z"/>
<path fill-rule="evenodd" clip-rule="evenodd" fill="#F8130D" stroke="#000000" stroke-linecap="square" stroke-miterlimit="10" d="  M435.252,395.14c7.837,1.115,52.895-14.654,36.75,13.5C462.011,426.063,432.288,411.098,435.252,395.14z"/>
<path fill-rule="evenodd" clip-rule="evenodd" fill="#BEBEBF" stroke="#000000" stroke-linecap="square" stroke-miterlimit="10" d="  M442.002,416.14c9.021,1.611,16.889,2.901,25.5,0C468.626,442.035,436.244,441.117,442.002,416.14z"/>
<path fill-rule="evenodd" clip-rule="evenodd" fill="#F8130D" stroke="#000000" stroke-linecap="square" stroke-miterlimit="10" d="  M476.502,402.64c13.41-12.46,30.876-5.724,35.25,11.25C497.715,416.97,484.526,415.386,476.502,402.64z"/>
<path fill-rule="evenodd" clip-rule="evenodd" fill="#BEBEBF" stroke="#000000" stroke-linecap="square" stroke-miterlimit="10" d="  M395.5,391.39C368.019,415.704,439.694,395.718,395.5,391.39L395.5,391.39z"/>
<path fill-rule="evenodd" clip-rule="evenodd" fill="#BEBEBF" stroke="#000000" stroke-linecap="square" stroke-miterlimit="10" d="  M424.752,402.64c-9.268,11.29-10.987,24.204-14.252,33C434.3,448.697,453.04,402.734,424.752,402.64z"/>
<path fill-rule="evenodd" clip-rule="evenodd" fill="#BEBEBF" stroke="#000000" stroke-linecap="square" stroke-miterlimit="10" d="  M403,405.64c-6.086,8.645-14.457,11.765-23.25,7.5c-1.252,9.803,3.333,18.346,10.5,24.75c-25.548,8.38,9.264,29.033,24.752,29.25  c-37.948-9.195-12.866-23.814-29.252-40.5C397.578,423.989,407.238,416.586,403,405.64z"/>
<line fill="none" stroke="#000000" stroke-linecap="square" stroke-miterlimit="10" x1="407.5" y1="417.64" x2="407.5" y2="417.64"/>
<path fill-rule="evenodd" clip-rule="evenodd" fill="#BEBEBF" stroke="#000000" stroke-linecap="square" stroke-miterlimit="10" d="  M407.5,414.64c7.225,15.875,2.082,28.497-15,27.75c-0.852-2.488-3.179-12.153-3.75-15C395.88,424.098,401.057,418.423,407.5,414.64z  "/>
<path fill-rule="evenodd" clip-rule="evenodd" fill="#BEBEBF" stroke="#000000" stroke-linecap="square" stroke-miterlimit="10" d="  M377.5,402.64c2.198,3.267,6.965,2.037,6,9c-1.75,0-3.5,0-5.25,0C378,408.64,377.75,405.64,377.5,402.64z"/>
<path fill-rule="evenodd" clip-rule="evenodd" fill="#9596B5" stroke="#000000" stroke-linecap="square" stroke-miterlimit="10" d="  M385,375.64c1.48,4.715,10.683,5.107-0.75,10.5C383.752,383.011,385.794,378.667,385,375.64z"/>
<path fill-rule="evenodd" clip-rule="evenodd" fill="#F7F619" stroke="#000000" stroke-linecap="square" stroke-miterlimit="10" d="  M388,380.89C381.862,380.467,380.703,380.388,388,380.89L388,380.89z"/>
<path fill-rule="evenodd" clip-rule="evenodd" fill="#F8130D" stroke="#000000" stroke-linecap="square" stroke-miterlimit="10" d="  M437.502,396.64c-10.069,4.8-51.976-7.081-44.252-23.25C400.767,357.654,435.115,385.107,437.502,396.64z"/>
<path fill-rule="evenodd" clip-rule="evenodd" fill="#BEBEBF" stroke="#000000" stroke-linecap="square" stroke-miterlimit="10" d="  M436.752,457.39c11.548-11.04,6.881-12.553,0-18c-8.819-6.981-19.856,6.014-25.502,8.25c-13.152,5.211-17.317-4.381-8.25,6.75  c8.132,9.983,19.585,14.97,31.502,7.5c-12.968,4.56-25.688-3.668-34.502-12c10.347,2.854,7.212,2.838,9.75,6.75  c7.849,0.402,10.278,2.458,19.502-1.5c-1.5,0.75-3,1.5-4.5,2.25C428.752,457.39,432.752,457.39,436.752,457.39z M426.252,450.64  c-5.032-1.85-3.564-7.775-11.25-3C419.778,432.049,429.204,444.696,426.252,450.64z"/>
<path fill-rule="evenodd" clip-rule="evenodd" fill="#BEBEBF" stroke="#000000" stroke-linecap="square" stroke-miterlimit="10" d="  M499.002,449.89c-5.631-9.761-10.805-42.97-20.25-47.25c-10.012-4.536,8.752,38.521,9.75,41.25c-17.382,0-32.313-9.756-35.25,7.5  C470.028,446.27,489.44,462.446,499.002,449.89z"/>
<path fill-rule="evenodd" clip-rule="evenodd" stroke="#000000" stroke-linecap="square" stroke-miterlimit="10" d="M376.75,349.39  c-5.12,1.498-6.112,6.69-12.75,2.25C368.734,344.6,371.933,349.58,376.75,349.39z"/>
<path fill-rule="evenodd" clip-rule="evenodd" fill="#FFFFFF" stroke="#000000" stroke-linecap="square" stroke-miterlimit="10" d="  M422.502,362.89c1.653,2.421-5.412,9.111,8.25,0.75C429.482,363.595,423.12,363.796,422.502,362.89z"/>
<path fill-rule="evenodd" clip-rule="evenodd" d="M415.002,352.39c-5.535,8.417,0.318,13.717,10.5,17.25c-2-2.75-4-5.5-6-8.25  c4,2.75,8,5.5,12,8.25c0.75-1.5,1.5-3,2.25-4.5C426.086,359.853,421.636,355.697,415.002,352.39z"/>
<path fill="none" stroke="#000000" stroke-linecap="square" stroke-miterlimit="10" d="M415.002,352.39  c-5.535,8.417,0.318,13.717,10.5,17.25c-2-2.75-4-5.5-6-8.25c4,2.75,8,5.5,12,8.25c0.75-1.5,1.5-3,2.25-4.5  C426.086,359.853,421.636,355.697,415.002,352.39z"/>
</svg>