<svg xmlns="http://www.w3.org/2000/svg" xmlns:xlink="http://www.w3.org/1999/xlink" version="1.1" id="Layer_1" x="0px" y="0px" enable-background="new 0 0 822.05 841.89" xml:space="preserve" viewBox="300.51 349.65 218.93 153.86">
<path fill-rule="evenodd" clip-rule="evenodd" fill="#FFFFFF" stroke="#000000" stroke-width="1.25" stroke-linecap="square" stroke-miterlimit="10" d="  M439.125,413.765c5.446,2.856,10.765,2.3,18.75-1.5C449.971,400.064,435.002,403.139,439.125,413.765z"/>
<path fill-rule="evenodd" clip-rule="evenodd" fill="#CCCCCC" stroke="#000000" stroke-width="1.75" stroke-linecap="square" stroke-miterlimit="10" d="  M491.625,479.015c-23.299-47.127-38.385-75.705-77.248-106.5c0.755-0.13-2.716,6.354-3.002,6.75c-2.399-3.46-3.491-5.207-6.75-7.5  c-5.804,4.514-9.506,5.947-15,16.5c-1.012-4.642-7.153-12.949-8.25-16.5c-21.288,33.903-42.611,67.733-64.5,101.25  C375.125,475.015,433.375,477.015,491.625,479.015z"/>
<path fill-rule="evenodd" clip-rule="evenodd" fill="#FFFFFF" stroke="#000000" stroke-width="1.75" stroke-linecap="square" stroke-miterlimit="10" d="  M383.625,377.765c1.331,4.349,1.785,7.396,5.25,10.5c5.085-12.577,3.68-9.673,13.5-9c2.179-1.452-0.664-6.307,0.75-7.5  c2.887,2.246,4.805,4.329,7.5,7.5C417.698,338.356,371.649,344.089,383.625,377.765z"/>
<path fill-rule="evenodd" clip-rule="evenodd" fill="#2F9E32" stroke="#000000" stroke-width="1.25" stroke-linecap="square" stroke-miterlimit="10" d="  M316.875,471.515c34.706-10.82,76.312,14.735,113.25,3c-39.798-15.226-85.528-18.118-127.5-23.25  C298.462,464.882,302.926,473.453,316.875,471.515z"/>
<path fill-rule="evenodd" clip-rule="evenodd" fill="#2F9E32" stroke="#000000" stroke-width="1.25" stroke-linecap="square" stroke-miterlimit="10" d="  M382.125,475.265c46.296-0.463,89.133-11.917,136.5-6c0-12.25,0-24.5,0-36.75C471.3,434.721,420.925,446.958,382.125,475.265z"/>
<path fill-rule="evenodd" clip-rule="evenodd" fill="#138F34" stroke="#000000" stroke-width="1.25" stroke-linecap="square" stroke-miterlimit="10" d="  M518.625,469.265c-72.663-8.657-143.564,17.736-216,0.75c0,23.756-5.825,27.75,17.049,27.75c28.456,0,56.912,0,85.367,0  c29.891,0,59.781,0,89.672,0C522.479,497.765,518.625,498.661,518.625,469.265z"/>
<path fill-rule="evenodd" clip-rule="evenodd" fill="#ABABAB" d="M442.125,419.015L442.125,419.015L442.125,419.015z"/>
<path fill-rule="evenodd" clip-rule="evenodd" fill="#2F9E32" stroke="#000000" stroke-width="1.25" stroke-linecap="square" stroke-miterlimit="10" d="  M518.625,492.515c-2.037,1.562-2.287,4.695-4.5,1.5c0.474,0.464,1.423-2.789,1.5-3c-3.743,1.109-2.259,1.688-4.5,3.75  c-1.687-2.466-3.743-5.56-6-7.5c0.677,1.177,1.177,2.427,1.5,3.75c-13.878-3.711-29.537-1.036-41.25-9  c-5.791,5.398-13.177,9.431-25.5,3.75c-1.722,5.855-8.922,6.076-18.75,1.5c-4.266,2.839-14.815,2.468-17.25-2.25  c-10.333,5.618-17.646,6.01-18.75-1.5c-11.475,6.429-21.257,2.556-25.5-3.75c-11.795,7.706-27.884,6.718-41.25,9.75  c0.5-1.5,1-3,1.5-4.5c-2.07,1.731-5.244,7.215-6,9.75c-2.694-2.181-0.542-3.483-4.5-4.5c-0.315,0.357,0.97,4.212,0.75,5.25  c-1.451-0.755-2.701-1.755-3.75-3c0,1.75,0,3.5,0,5.25C336.95,497.765,511.772,512.238,518.625,492.515z"/>
</svg>