<svg xmlns="http://www.w3.org/2000/svg" xmlns:xlink="http://www.w3.org/1999/xlink" version="1.1" id="Layer_1" x="0px" y="0px" enable-background="new 0 0 822.05 841.89" xml:space="preserve" viewBox="315.23 361.67 190.14 117.97">
<path fill="none" stroke="#000000" stroke-width="1.25" stroke-linecap="square" stroke-miterlimit="10" d="M348.108,428.015  c-9.363-7.858-19.568-14.879-30.75-13.5"/>
<path fill="none" stroke="#000000" stroke-width="1.25" stroke-linecap="square" stroke-miterlimit="10" d="M348.108,425.765  c-11.058-2.33-22.104-2.373-32.25,2.25"/>
<path fill="none" stroke="#000000" stroke-width="1.25" stroke-linecap="square" stroke-miterlimit="10" d="M353.358,431.015  c-6.727-13.898-19.336-27.466-35.25-28.5"/>
<path fill-rule="evenodd" clip-rule="evenodd" fill="#878787" stroke="#000000" stroke-width="1.25" stroke-linecap="square" stroke-miterlimit="10" d="  M390.858,395.765c18.673-13.065,3.816-37.128-16.5-33C345.307,368.668,362.796,410.756,390.858,395.765z"/>
<path fill-rule="evenodd" clip-rule="evenodd" fill="#F5CCE4" stroke="#000000" stroke-width="1.25" stroke-linecap="square" stroke-miterlimit="10" d="  M376.608,395.765c-10.263-7.165-16.193-24.892,1.5-26.25C398.46,367.954,397.538,395.953,376.608,395.765z"/>
<path fill-rule="evenodd" clip-rule="evenodd" fill="#878787" stroke="#000000" stroke-width="1.25" stroke-linecap="square" stroke-miterlimit="10" d="  M465.858,434.765c17.101-11.778,52.011,9.297,33.75,28.5c-10.048,10.566-42.472,1.5-54.375,1.5c-16.88,0-34.439,6.353-49.125,14.25  c22.063-20.957,50.873-18.75,78.75-18.75C522.956,460.265,465.993,435.111,465.858,434.765z"/>
<path fill-rule="evenodd" clip-rule="evenodd" fill="#878787" stroke="#000000" stroke-width="1.25" stroke-linecap="square" stroke-miterlimit="10" d="  M384.108,421.265c-6.633,9.857-17.515,13.271-24.75,21.75c16.399,4.137,31.708-10.352,39.75-24  C394.208,419.75,388.846,419.853,384.108,421.265z"/>
<path fill-rule="evenodd" clip-rule="evenodd" fill="#878787" stroke="#000000" stroke-width="1.25" stroke-linecap="square" stroke-miterlimit="10" d="  M494.358,394.265c-13.289-17.805-102.039-44.53-92.25-3.75c-28.472-9.251-92.715,49.364-14.25,48.75  c-4.257,9.572-2.564,10.604,9,6.75c16.205-5.401,13.959-1.507,26.248-1.5c11.538,0.007,23.343,0.156,35.252,0  c9.049-0.118,30.854,8.515,21-3C498.273,432.928,507.636,412.499,494.358,394.265z"/>
<path fill="none" stroke="#000000" stroke-width="1.25" stroke-linecap="square" stroke-miterlimit="10" d="M352.608,426.515  C336.486,438.198,336.486,414.833,352.608,426.515L352.608,426.515z"/>
<path fill="none" stroke="#000000" stroke-width="1.25" stroke-linecap="square" stroke-miterlimit="10" d="M483.108,409.265  c-18.244-24.94-70.479-2.229-31.5,27c-10.831,1.042-25.422-2.668-30.752,5.25"/>
<path fill="none" stroke="#000000" stroke-width="1.25" stroke-linecap="square" stroke-miterlimit="10" d="M387.858,440.015  c9.719-1.461,17.274-6.898,21-15.75"/>
<path fill="none" stroke="#000000" stroke-width="1.25" stroke-linecap="square" stroke-miterlimit="10" d="M423.106,422.015  c-4.049,6.301-8.826,12.085-14.248,17.25"/>
<path fill="none" stroke="#000000" stroke-width="1.25" stroke-linecap="square" stroke-miterlimit="10" d="M441.858,377.015  c5.308,13.491-4.939,22.446-18.752,23.25"/>
<path fill="none" stroke="#000000" stroke-width="1.25" stroke-linecap="square" stroke-miterlimit="10" d="M405.108,397.265  c-1.462-2.125-2.715-4.382-3.75-6.75"/>
<path fill-rule="evenodd" clip-rule="evenodd" fill="#F5CCE4" stroke="#000000" stroke-width="1.25" stroke-linecap="square" stroke-miterlimit="10" d="  M409.608,392.765c-2.372-14.597,12.886-27.068,23.625-12.75C441.423,390.934,416.694,403.15,409.608,392.765z"/>
<path fill-rule="evenodd" clip-rule="evenodd" fill="#F5CCE4" stroke="#000000" stroke-width="1.25" stroke-linecap="square" stroke-miterlimit="10" d="  M352.608,426.515C336.001,442.818,334.808,411.618,352.608,426.515L352.608,426.515z"/>
<path fill="none" stroke="#000000" stroke-width="1.25" stroke-linecap="square" stroke-miterlimit="10" d="M357.108,424.265  c12.655-4.487,26.233-7.033,39-2.25"/>
<path fill="none" stroke="#000000" stroke-width="1.25" stroke-linecap="square" stroke-miterlimit="10" d="M356.358,432.515  c8.714-0.249,16.087,3.401,21,10.5"/>
<path fill="none" stroke="#000000" stroke-width="1.25" stroke-linecap="square" stroke-miterlimit="10" d="M357.108,427.265  c11.882,0.146,23.036,4.559,30,14.25"/>
<path fill="none" stroke="#000000" stroke-width="1.25" stroke-linecap="square" stroke-miterlimit="10" d="M347.358,433.265  c13.443,2.57,29.688,6.156,38.25-5.25"/>
<path fill="none" stroke="#000000" stroke-width="1.25" stroke-linecap="square" stroke-miterlimit="10" d="M382.608,410.765  c-2.647-0.25-3.059,4.746-6,0C379.439,404.357,379.695,410.49,382.608,410.765z"/>
<path fill="none" stroke="#000000" stroke-width="1.25" stroke-linecap="square" stroke-miterlimit="10" d="M380.358,411.515  C378.711,411.515,378.711,411.515,380.358,411.515L380.358,411.515z"/>
<path fill="none" stroke="#000000" stroke-width="1.25" stroke-linecap="square" stroke-miterlimit="10" d="M380.358,411.515  C378.5,411.066,378.916,411.167,380.358,411.515L380.358,411.515z"/>
<path fill="none" stroke="#000000" stroke-width="1.25" stroke-linecap="square" stroke-miterlimit="10" d="M381.858,410.765  c-1.731-0.21-2.395,4.57-5.25,0C379.618,404.413,379.622,410.493,381.858,410.765z"/>
<path fill="none" stroke="#000000" stroke-width="1.25" stroke-linecap="square" stroke-miterlimit="10" d="M381.858,410.765  c-1.805-0.062-2.59,3.533-5.25,0C379.427,406.252,379.839,410.696,381.858,410.765z"/>
<path fill="none" stroke="#000000" stroke-width="1.25" stroke-linecap="square" stroke-miterlimit="10" d="M378.858,411.515  C380.502,410.628,379.5,411.169,378.858,411.515L378.858,411.515z"/>
<path fill="none" stroke="#000000" stroke-width="1.25" stroke-linecap="square" stroke-miterlimit="10" d="M381.858,410.765  C376.994,410.765,376.994,410.765,381.858,410.765L381.858,410.765z"/>
<path fill="none" stroke="#000000" stroke-width="1.25" stroke-linecap="square" stroke-miterlimit="10" d="M381.108,410.765  C377.659,411.381,377.008,411.498,381.108,410.765L381.108,410.765z"/>
<path fill="none" stroke="#000000" stroke-width="1.25" stroke-linecap="square" stroke-miterlimit="10" d="M381.108,410.765  C377.54,411.194,377.444,411.205,381.108,410.765L381.108,410.765z"/>
<path fill="none" stroke="#000000" stroke-width="1.25" stroke-linecap="square" stroke-miterlimit="10" d="M380.358,410.765  C378.228,411.016,378.38,410.998,380.358,410.765L380.358,410.765z"/>
<path fill="none" stroke="#000000" stroke-width="1.25" stroke-linecap="square" stroke-miterlimit="10" d="M380.358,410.765  C378.228,411.016,378.38,410.998,380.358,410.765L380.358,410.765z"/>
<path fill="none" stroke="#000000" stroke-width="1.25" stroke-linecap="square" stroke-miterlimit="10" d="M380.358,411.515  C378.571,410.966,378.842,411.05,380.358,411.515L380.358,411.515z"/>
<path fill="none" stroke="#000000" stroke-width="1.25" stroke-linecap="square" stroke-miterlimit="10" d="M380.358,411.515  C378.711,411.515,378.711,411.515,380.358,411.515L380.358,411.515z"/>
<path fill="none" stroke="#000000" stroke-width="1.25" stroke-linecap="square" stroke-miterlimit="10" d="M380.358,411.515  C378.5,411.066,378.916,411.167,380.358,411.515L380.358,411.515z"/>
<path fill="none" stroke="#000000" stroke-width="1.25" stroke-linecap="square" stroke-miterlimit="10" d="M381.858,410.765  c-1.731-0.21-2.395,4.57-5.25,0C379.618,404.413,379.622,410.493,381.858,410.765z"/>
<path fill="none" stroke="#000000" stroke-width="1.25" stroke-linecap="square" stroke-miterlimit="10" d="M381.858,410.765  c-1.805-0.062-2.59,3.533-5.25,0C379.427,406.252,379.839,410.696,381.858,410.765z"/>
<path fill="none" stroke="#000000" stroke-width="1.25" stroke-linecap="square" stroke-miterlimit="10" d="M378.858,411.515  C380.502,410.628,379.5,411.169,378.858,411.515L378.858,411.515z"/>
<path fill="none" stroke="#000000" stroke-width="1.25" stroke-linecap="square" stroke-miterlimit="10" d="M381.858,410.765  C376.994,410.765,376.994,410.765,381.858,410.765L381.858,410.765z"/>
<path fill="none" stroke="#000000" stroke-width="1.25" stroke-linecap="square" stroke-miterlimit="10" d="M381.108,410.765  C377.659,411.381,377.008,411.498,381.108,410.765L381.108,410.765z"/>
<path fill="none" stroke="#000000" stroke-width="1.25" stroke-linecap="square" stroke-miterlimit="10" d="M381.108,410.765  C377.54,411.194,377.444,411.205,381.108,410.765L381.108,410.765z"/>
<path fill="none" stroke="#000000" stroke-width="1.25" stroke-linecap="square" stroke-miterlimit="10" d="M380.358,410.765  C378.228,411.016,378.38,410.998,380.358,410.765L380.358,410.765z"/>
<path fill="none" stroke="#000000" stroke-width="1.25" stroke-linecap="square" stroke-miterlimit="10" d="M380.358,410.765  C378.228,411.016,378.38,410.998,380.358,410.765L380.358,410.765z"/>
<path fill="none" stroke="#000000" stroke-width="1.25" stroke-linecap="square" stroke-miterlimit="10" d="M380.358,411.515  C378.571,410.966,378.842,411.05,380.358,411.515L380.358,411.515z"/>
<path fill="none" stroke="#000000" stroke-width="1.25" stroke-linecap="square" stroke-miterlimit="10" d="M380.358,411.515  C378.711,411.515,378.711,411.515,380.358,411.515L380.358,411.515z"/>
<path fill="none" stroke="#000000" stroke-width="1.25" stroke-linecap="square" stroke-miterlimit="10" d="M380.358,411.515  C378.5,411.066,378.916,411.167,380.358,411.515L380.358,411.515z"/>
<path fill="none" stroke="#000000" stroke-width="1.25" stroke-linecap="square" stroke-miterlimit="10" d="M381.858,410.765  C376.994,410.765,376.994,410.765,381.858,410.765L381.858,410.765z"/>
<path fill="none" stroke="#000000" stroke-width="1.25" stroke-linecap="square" stroke-miterlimit="10" d="M381.108,410.765  C377.008,410.033,377.659,410.149,381.108,410.765L381.108,410.765z"/>
<path fill="none" stroke="#000000" stroke-width="1.25" stroke-linecap="square" stroke-miterlimit="10" d="M378.858,411.515  C380.502,410.628,379.5,411.169,378.858,411.515L378.858,411.515z"/>
<path fill="none" stroke="#000000" stroke-width="1.25" stroke-linecap="square" stroke-miterlimit="10" d="M381.108,410.765  C378.074,411.162,377.235,411.271,381.108,410.765L381.108,410.765z"/>
<path fill="none" stroke="#000000" stroke-width="1.25" stroke-linecap="square" stroke-miterlimit="10" d="M381.108,410.765  C378.074,411.162,377.235,411.271,381.108,410.765L381.108,410.765z"/>
<path fill="none" stroke="#000000" stroke-width="1.25" stroke-linecap="square" stroke-miterlimit="10" d="M381.108,410.765  C377.859,411.208,378.106,411.175,381.108,410.765L381.108,410.765z"/>
<path fill="none" stroke="#000000" stroke-width="1.25" stroke-linecap="square" stroke-miterlimit="10" d="M380.358,410.765  C378.228,411.016,378.38,410.998,380.358,410.765L380.358,410.765z"/>
<path fill="none" stroke="#000000" stroke-width="1.25" stroke-linecap="square" stroke-miterlimit="10" d="M380.358,410.765  C378.362,411.731,379,411.422,380.358,410.765L380.358,410.765z"/>
<path fill="none" stroke="#000000" stroke-width="1.25" stroke-linecap="square" stroke-miterlimit="10" d="M380.358,411.515  C378.711,411.515,378.711,411.515,380.358,411.515L380.358,411.515z"/>
<path fill="none" stroke="#000000" stroke-width="1.25" stroke-linecap="square" stroke-miterlimit="10" d="M380.358,411.515  C378.5,411.066,378.916,411.167,380.358,411.515L380.358,411.515z"/>
<path fill="none" stroke="#000000" stroke-width="1.25" stroke-linecap="square" stroke-miterlimit="10" d="M380.358,411.515  C379.717,411.169,378.714,410.628,380.358,411.515L380.358,411.515z"/>
<path fill="none" stroke="#000000" stroke-width="1.25" stroke-linecap="square" stroke-miterlimit="10" d="M381.858,410.765  C377.307,410.765,377.307,410.765,381.858,410.765L381.858,410.765z"/>
<path fill="none" stroke="#000000" stroke-width="1.25" stroke-linecap="square" stroke-miterlimit="10" d="M381.108,410.765  C377.235,410.259,378.074,410.368,381.108,410.765L381.108,410.765z"/>
<path fill="none" stroke="#000000" stroke-width="1.25" stroke-linecap="square" stroke-miterlimit="10" d="M378.858,411.515  C380.502,410.628,379.5,411.169,378.858,411.515L378.858,411.515z"/>
<path fill="none" stroke="#000000" stroke-width="1.25" stroke-linecap="square" stroke-miterlimit="10" d="M381.108,410.765  C377.943,410.765,377.943,410.765,381.108,410.765L381.108,410.765z"/>
<path fill="none" stroke="#000000" stroke-width="1.25" stroke-linecap="square" stroke-miterlimit="10" d="M381.108,410.765  C377.996,411.426,377.977,411.43,381.108,410.765L381.108,410.765z"/>
<path fill="none" stroke="#000000" stroke-width="1.25" stroke-linecap="square" stroke-miterlimit="10" d="M381.108,410.765  C378.294,410.979,378.271,410.981,381.108,410.765L381.108,410.765z"/>
<path fill="none" stroke="#000000" stroke-width="1.25" stroke-linecap="square" stroke-miterlimit="10" d="M380.358,410.765  C378.842,411.23,378.571,411.314,380.358,410.765L380.358,410.765z"/>
<path fill="none" stroke="#000000" stroke-width="1.25" stroke-linecap="square" stroke-miterlimit="10" d="M380.358,410.765  C378.711,410.765,378.711,410.765,380.358,410.765L380.358,410.765z"/>
<path fill="none" stroke="#000000" stroke-width="1.25" stroke-linecap="square" stroke-miterlimit="10" d="M380.358,411.515  C378.5,411.066,378.916,411.167,380.358,411.515L380.358,411.515z"/>
<path fill="none" stroke="#000000" stroke-width="1.25" stroke-linecap="square" stroke-miterlimit="10" d="M380.358,411.515  C379.717,411.169,378.714,410.628,380.358,411.515L380.358,411.515z"/>
<path fill="none" stroke="#000000" stroke-width="1.25" stroke-linecap="square" stroke-miterlimit="10" d="M380.358,411.515  C379.755,410.912,379.755,410.912,380.358,411.515L380.358,411.515z"/>
<path fill="none" stroke="#000000" stroke-width="1.25" stroke-linecap="square" stroke-miterlimit="10" d="M381.108,410.765  C378.294,410.979,378.271,410.981,381.108,410.765L381.108,410.765z"/>
<path fill="none" stroke="#000000" stroke-width="1.25" stroke-linecap="square" stroke-miterlimit="10" d="M381.108,410.765  C378.319,410.765,378.319,410.765,381.108,410.765L381.108,410.765z"/>
<path fill="none" stroke="#000000" stroke-width="1.25" stroke-linecap="square" stroke-miterlimit="10" d="M379.608,411.515  C380.212,410.912,380.212,410.912,379.608,411.515L379.608,411.515z"/>
<path fill="none" stroke="#000000" stroke-width="1.25" stroke-linecap="square" stroke-miterlimit="10" d="M381.108,410.765  C378.615,410.918,378.753,410.91,381.108,410.765L381.108,410.765z"/>
<path fill="none" stroke="#000000" stroke-width="1.25" stroke-linecap="square" stroke-miterlimit="10" d="M381.108,410.765  C378.655,411.105,378.393,411.142,381.108,410.765L381.108,410.765z"/>
<path fill="none" stroke="#000000" stroke-width="1.25" stroke-linecap="square" stroke-miterlimit="10" d="M380.358,410.765  C378.714,411.652,379.717,411.111,380.358,410.765L380.358,410.765z"/>
<path fill="none" stroke="#000000" stroke-width="1.25" stroke-linecap="square" stroke-miterlimit="10" d="M380.358,410.765  C378.714,411.652,379.717,411.111,380.358,410.765L380.358,410.765z"/>
<path fill="none" stroke="#000000" stroke-width="1.25" stroke-linecap="square" stroke-miterlimit="10" d="M380.358,411.515  C379.717,411.169,378.714,410.628,380.358,411.515L380.358,411.515z"/>
<path fill="none" stroke="#000000" stroke-width="1.25" stroke-linecap="square" stroke-miterlimit="10" d="M380.358,411.515  C379.717,411.169,378.714,410.628,380.358,411.515L380.358,411.515z"/>
</svg>