<svg xmlns="http://www.w3.org/2000/svg" xmlns:xlink="http://www.w3.org/1999/xlink" version="1.1" id="Layer_1" x="0px" y="0px" enable-background="new 0 0 822.05 841.89" xml:space="preserve" viewBox="196.86 247.42 424.53 351.48">
<path fill-rule="evenodd" clip-rule="evenodd" fill="#FFFFFF" stroke="#000000" stroke-width="2" stroke-linecap="square" stroke-miterlimit="10" d="  M433.165,281.402c-0.239,43.981-46.491,43.989-46.502,0C386.652,237.467,433.4,237.386,433.165,281.402z"/>
<path fill-rule="evenodd" clip-rule="evenodd" fill="#FFFFFF" stroke="#000000" stroke-width="2" stroke-linecap="square" stroke-miterlimit="10" d="  M403.163,318.902c-5.569,14.25-28.709,12.672-28.458,28.95c0.384,24.98,4.826,40.903-10.682,60.288  c-5.346,6.682-45.929,43.192-47.109,49.512c-7.783,41.67,25.766,1.831,30.75,0.75c1,3.25,2,6.5,3,9.75c2-0.25,4-0.5,6-0.75  c-11.098-21.775,25.843-51.681,36-72c0.894,39.344-26.291,69.772-24.75,106.5c0.796,18.979,14.73,43.323,20.845,61.308  c6.149,18.085-4.414,17.856-6.595,34.692c16.659-0.877,35.574,3.458,30.68-19.617c-3.31-15.603-6.546-31.216-9.747-46.842  c-4.655-22.729-9.462-77.183,24.444-83.166c30.919-5.456,32.015,61.978,27.54,80.908c-2.911,12.314-15.095,39.026-12.165,51.467  c4.835,20.528,7.63,14.843,30.75,14.25c-22.504-35.218,14.126-60.417,11.25-102c-2.406-34.788-33.042-78.167-42-114  c12.816,10.894,28.013,19.165,33.111,35.417c6.17,19.667,2.723,35.932,7.389,53.083c4.25-2.25,8.5-4.5,12.75-6.75  c0.325,10.879,6.473,8.568,1.5,18c3.25,0.25,6.5,0.5,9.75,0.75c1.469-27.907-4.684-24.651-13.5-47.25  c-6.075-15.571-1.483-34.616-11.712-48.444C466.362,362.294,434.922,309.582,403.163,318.902z"/>
<path fill="none" stroke="#000000" stroke-width="2" stroke-linecap="square" stroke-miterlimit="10" d="M396.413,254.402  c11.871,0.966,25.056-1.926,30.002,9c-12.008,4.011-24.733,5.918-36.752,1.5c-5.08,22.001,28.847,18.631,43.502,13.5  c1.718,21.748-27.398,14.588-44.252,15.75c0.315,4.13,3.746,10.72,6,14.25c5.458-0.619,20.496-0.219,29.252,0"/>
<path fill="none" stroke="#000000" stroke-width="2" stroke-linecap="square" stroke-miterlimit="10" d="M399.413,327.902  c11.913-3.385,23.49-2.563,32.252,6c-20.19,2.183-62.745-5.401-56.252,24c21.466-3.578,74.837-25.579,87.002-0.75  c-20.65,3.771-87.936,3.732-87.002,27.75c21.005-2.173,42.01-4.346,63.015-6.519c17.449-1.805,28.591-25.451,38.237-0.231  c-7.843,1.569-14.671,8.099-22.5,9.75c7.71,11.176,19.013,8.978,29.25,0.75c1.25,4.5,2.5,9,3.75,13.5c-4.75,0.75-9.5,1.5-14.25,2.25  c0.585,13.141,7.364,16.445,19.5,11.25c1.503,4.04,2.285,12.265,1.5,16.5c-4.25,0.25-8.5,0.5-12.75,0.75  c2.473,10.323,10.023,13.516,21,11.25"/>
<path fill="none" stroke="#000000" stroke-width="2" stroke-linecap="square" stroke-miterlimit="10" d="M377.663,395.402  c29.671,18.242-13.688,10.401-21,20.25c6.19,1.494,11.101,8.047,17.25,9.75c-10.255,25.229-19.968-9.206-33,10.5  c24.081,7.283,11.56,34.525-13.5,15.75"/>
<path fill="none" stroke="#000000" stroke-width="2" stroke-linecap="square" stroke-miterlimit="10" d="M394.163,400.652  c19.688-3.995,57.62-23.763,57.752,8.25c-18.325,1.392-65.76-7.167-58.502,19.5c28.087-1.691,99.847-7.685,41.252,22.5  c5.221,19.387,20.104,7.178,33.75,2.25c10.109,15.128,3.471,24.506-14.25,26.25c6.846,20.996,22.589-3.573,29.625,10.5  c4.699,9.398-20.513,14.438-24.375,27.75c5.991-1.007,12.771,2.561,18.75,1.5c-4.806,19.015-22.697,2.68-26.25,23.25  c6.432-0.245,13.07,4.764,19.5,4.5c-2.858,12.726-43.392,25.097-12,30"/>
<path fill="none" stroke="#000000" stroke-width="2" stroke-linecap="square" stroke-miterlimit="10" d="M390.413,438.902  c11,4,22.001,8,33.002,12c-13.386,23.925-43.482-17.335-44.252,17.25c8.75,2,17.5,4,26.25,6c-3.25,21.933-17.699,11.872-33,7.5  c-2.235,4.428-4.124,13.806-3.75,18.75c16.009,1.334,31.23-2.316,33,18c-9.25,0.25-18.5,0.5-27.75,0.75  c3.182,28.375,26.25,1.455,30.75,30c-0.583-3.696-34.947,15.318-8.639,19.527c24.312,3.891,14.23,19.929-7.111,16.473"/>
<path fill-rule="evenodd" clip-rule="evenodd" fill="#FFFFFF" stroke="#000000" stroke-width="2" stroke-linecap="square" stroke-miterlimit="10" d="  M315.413,281.402c-1.684,43.697-47.239,44.246-47.25,0C268.152,237.27,314.331,237.593,315.413,281.402z"/>
<path fill-rule="evenodd" clip-rule="evenodd" fill="#FFFFFF" stroke="#000000" stroke-width="2" stroke-linecap="square" stroke-miterlimit="10" d="  M284.663,318.902c-5.667,14.502-27.965,12.247-27.708,28.95c0.384,24.98,4.826,40.903-10.682,60.288  c-5.527,6.909-45.789,42.878-47.109,49.512c-8.251,41.45,25.215,1.773,30.75,0.75c4.75,9.748,4.389,4.409,9,9  c-12.674-21.485,26.118-50.919,35.25-72c1.817,39.974-25.956,69.164-24.75,106.5c0.605,18.735,15.264,43.612,21.458,61.308  c6.345,18.129-4.245,17.783-6.458,34.692c17.333-0.912,34.853,3.592,29.93-19.617c-3.307-15.591-6.417-31.191-9.434-46.842  c-4.382-22.732-8.732-77.234,24.879-83.166c30.919-5.456,32.015,61.978,27.54,80.908c-2.911,12.314-15.095,39.026-12.165,51.467  c4.835,20.528,7.629,14.843,30.75,14.25c-23.021-35.538,13.292-59.307,10.5-102c-2.273-34.757-32.324-78.296-41.25-114  c12.595,10.98,27.216,19.399,32.556,35.417c6.667,20.002,3.247,35.551,7.944,53.083c4.25-2.25,8.5-4.5,12.75-6.75  c0.477,10.92,6.464,8.586,1.5,18c3,0.25,6,0.5,9,0.75c2.239-28.354-3.639-24.318-12.75-47.25  c-6.184-15.562-2.292-34.543-12.384-48.444C347.884,361.815,316.643,309.117,284.663,318.902z"/>
<path fill="none" stroke="#000000" stroke-width="2" stroke-linecap="square" stroke-miterlimit="10" d="M277.913,254.402  c12.022,0.979,25.756-1.883,30.75,9c-12.04,3.973-24.716,5.89-36.75,1.5c-6.067,21.956,28.721,18.613,43.5,13.5  c0.473,21.638-27.975,14.576-45,15.75c0.584,4.053,4.16,11.052,6.75,14.25c5.174-0.497,20-0.218,28.5,0"/>
<path fill="none" stroke="#000000" stroke-width="2" stroke-linecap="square" stroke-miterlimit="10" d="M280.913,327.902  c12.074-3.386,23.864-2.415,33,6c-20.189,2.183-62.743-5.401-56.25,24c21.466-3.578,74.835-25.578,87-0.75  c-20.65,3.771-87.935,3.732-87,27.75c21.004-2.173,42.008-4.346,63.012-6.519c17.45-1.805,28.591-25.451,38.238-0.231  c-7.844,1.546-14.674,8.1-22.5,9.75c7.439,11.437,18.889,8.782,29.25,0.75c1,4.5,2,9,3,13.5c-4.75,0.75-9.5,1.5-14.25,2.25  c0.585,13.141,7.364,16.445,19.5,11.25c1.666,4.018,2.866,12.202,2.25,16.5c-4.5,0.25-9,0.5-13.5,0.75  c2.919,9.979,10.303,13.321,21,11.25"/>
<path fill="none" stroke="#000000" stroke-width="2" stroke-linecap="square" stroke-miterlimit="10" d="M259.913,395.402  c28.351,19.016-13.749,10.022-21,20.25c6.188,1.494,11.093,8.092,17.25,9.75c-10.255,25.229-19.968-9.206-33,10.5  c5.792,1.789,9.993,8.573,15.75,10.5c-0.373,1.325-6.265,12.812-6.75,13.5c-7.301-1.193-16.336-3.767-22.5-8.25"/>
<path fill="none" stroke="#000000" stroke-width="2" stroke-linecap="square" stroke-miterlimit="10" d="M275.663,400.652  c19.494-3.899,58.734-23.979,57.75,8.25c-18.223,1.402-65.046-7.064-57.75,19.5c28.312-1.727,99.751-7.125,40.5,22.5  c5.319,19.486,20.665,7.111,34.5,2.25c9.237,14.88,2.885,24.362-14.25,26.25c6.658,20.911,21.917-3.417,28.875,10.5  c4.699,9.397-19.882,14.558-23.625,27.75c5.991-1.007,12.771,2.561,18.75,1.5c-4.805,19.015-22.697,2.68-26.25,23.25  c6.432-0.245,13.07,4.764,19.5,4.5c-2.858,12.726-43.392,25.097-12,30"/>
<path fill="none" stroke="#000000" stroke-width="2" stroke-linecap="square" stroke-miterlimit="10" d="M272.663,438.902  c11,4,22,8,33,12c-14.153,23.665-42.988-17.078-45,17.25c9,2,18,4,27,6c-3.25,21.933-17.699,11.872-33,7.5  c-2.402,4.396-4.706,13.75-4.5,18.75c16.08,1.304,32.028-2.714,33,18c-9.25,0.25-18.5,0.5-27.75,0.75  c3.31,28.51,27.232,1.548,30.917,26.111c1.819,12.125-19.157,0.175-14.792,15.889c4.311,15.518,22.18,1.166,21.375,21.75  c-6.873,0.688-15.712,3.287-22.5,2.25"/>
<path fill-rule="evenodd" clip-rule="evenodd" fill="#FFFFFF" stroke="#000000" stroke-width="2" stroke-linecap="square" stroke-miterlimit="10" d="  M546.415,281.402c-1.684,43.697-47.239,44.246-47.25,0C499.154,237.27,545.333,237.593,546.415,281.402z"/>
<path fill-rule="evenodd" clip-rule="evenodd" fill="#FFFFFF" stroke="#000000" stroke-width="2" stroke-linecap="square" stroke-miterlimit="10" d="  M515.665,318.902c-5.667,14.502-27.966,12.247-27.708,28.95c0.384,24.98,4.826,40.903-10.683,60.288  c-5.527,6.909-45.789,42.878-47.109,49.512c-8.251,41.45,25.215,1.773,30.75,0.75c4.751,9.748,4.389,4.409,9,9  c-12.675-21.485,26.118-50.919,35.25-72c1.817,39.974-25.956,69.164-24.75,106.5c0.605,18.735,15.265,43.612,21.458,61.308  c6.345,18.129-4.245,17.783-6.458,34.692c17.333-0.912,34.853,3.592,29.93-19.617c-3.308-15.591-6.417-31.191-9.434-46.842  c-4.383-22.732-8.731-77.234,24.879-83.166c30.919-5.456,32.015,61.978,27.54,80.908c-2.911,12.314-15.095,39.026-12.165,51.467  c4.835,20.528,7.63,14.843,30.75,14.25c-23.021-35.538,13.292-59.307,10.5-102c-2.272-34.757-32.324-78.296-41.25-114  c12.595,10.98,27.217,19.399,32.556,35.417c6.667,20.002,3.247,35.551,7.944,53.083c4.25-2.25,8.5-4.5,12.75-6.75  c0.477,10.92,6.464,8.586,1.5,18c3,0.25,6,0.5,9,0.75c2.238-28.354-3.639-24.318-12.75-47.25  c-6.184-15.562-2.292-34.543-12.384-48.444C578.887,361.815,547.645,309.117,515.665,318.902z"/>
<path fill="none" stroke="#000000" stroke-width="2" stroke-linecap="square" stroke-miterlimit="10" d="M508.915,254.402  c12.021,0.979,25.756-1.883,30.75,9c-12.04,3.973-24.716,5.89-36.75,1.5c-6.067,21.956,28.721,18.613,43.5,13.5  c0.473,21.638-27.975,14.576-45,15.75c0.584,4.053,4.16,11.052,6.75,14.25c5.174-0.497,20-0.218,28.5,0"/>
<path fill="none" stroke="#000000" stroke-width="2" stroke-linecap="square" stroke-miterlimit="10" d="M511.915,327.902  c12.073-3.386,23.864-2.415,33,6c-20.189,2.183-62.743-5.401-56.25,24c21.466-3.578,74.835-25.578,87-0.75  c-20.65,3.771-87.935,3.732-87,27.75c21.004-2.173,42.008-4.346,63.013-6.519c17.449-1.805,28.591-25.451,38.237-0.231  c-7.844,1.546-14.674,8.1-22.5,9.75c7.439,11.437,18.889,8.782,29.25,0.75c1,4.5,2,9,3,13.5c-4.75,0.75-9.5,1.5-14.25,2.25  c0.585,13.141,7.364,16.445,19.5,11.25c1.666,4.018,2.866,12.202,2.25,16.5c-4.5,0.25-9,0.5-13.5,0.75  c2.919,9.979,10.303,13.321,21,11.25"/>
<path fill="none" stroke="#000000" stroke-width="2" stroke-linecap="square" stroke-miterlimit="10" d="M490.915,395.402  c28.352,19.016-13.749,10.022-21,20.25c6.188,1.494,11.093,8.092,17.25,9.75c-10.256,25.229-19.969-9.206-33,10.5  c5.792,1.789,9.992,8.573,15.75,10.5c-0.373,1.325-6.265,12.812-6.75,13.5c-7.301-1.193-16.336-3.767-22.5-8.25"/>
<path fill="none" stroke="#000000" stroke-width="2" stroke-linecap="square" stroke-miterlimit="10" d="M506.665,400.652  c19.494-3.899,58.734-23.979,57.75,8.25c-18.223,1.402-65.046-7.064-57.75,19.5c28.312-1.727,99.751-7.125,40.5,22.5  c5.318,19.486,20.665,7.111,34.5,2.25c9.237,14.88,2.885,24.362-14.25,26.25c6.658,20.911,21.916-3.417,28.875,10.5  c4.698,9.397-19.882,14.558-23.625,27.75c5.991-1.007,12.771,2.561,18.75,1.5c-4.806,19.015-22.697,2.68-26.25,23.25  c6.432-0.245,13.07,4.764,19.5,4.5c-2.858,12.726-43.392,25.097-12,30"/>
<path fill="none" stroke="#000000" stroke-width="2" stroke-linecap="square" stroke-miterlimit="10" d="M503.665,438.902  c11,4,22,8,33,12c-14.153,23.665-42.988-17.078-45,17.25c9,2,18,4,27,6c-3.25,21.933-17.699,11.872-33,7.5  c-2.402,4.396-4.706,13.75-4.5,18.75c16.079,1.304,32.027-2.714,33,18c-9.25,0.25-18.5,0.5-27.75,0.75  c3.31,28.51,27.232,1.548,30.917,26.111c1.818,12.125-19.157,0.175-14.792,15.889c4.311,15.518,22.18,1.166,21.375,21.75  c-6.873,0.688-15.712,3.287-22.5,2.25"/>
</svg>