<svg xmlns="http://www.w3.org/2000/svg" xmlns:xlink="http://www.w3.org/1999/xlink" version="1.1" id="Layer_1" x="0px" y="0px" enable-background="new 0 0 822.05 841.89" xml:space="preserve" viewBox="341.71 354.46 136.74 137.97">
<path fill-rule="evenodd" clip-rule="evenodd" fill="#E7E4DE" d="M392.125,461.015c20.612-1.489,46.259-21.123,66-31.5  C443.346,410.08,380.808,437.641,392.125,461.015z"/>
<path fill="none" stroke="#000000" stroke-linecap="square" stroke-miterlimit="10" d="M392.125,461.015  c20.612-1.489,46.259-21.123,66-31.5c-14.568-19.158-75.742,7.348-66.75,30.75"/>
<path fill-rule="evenodd" clip-rule="evenodd" fill="#EFE7BD" stroke="#000000" stroke-width="1.25" stroke-linecap="square" stroke-miterlimit="10" d="  M456.625,429.515c66.2-59.341-39.316-100.76-89.25-54.75c-16.564,15.262-38.256,53.845-14.625,72.75  C383.852,472.397,424.309,441.421,456.625,429.515z"/>
<path fill-rule="evenodd" clip-rule="evenodd" fill="#FFFFFF" stroke="#000000" stroke-width="1.25" stroke-linecap="square" stroke-miterlimit="10" d="  M410.125,485.765c-3.29-13.734-10.732-27.065-20.25-37.5c20.5-10.25,41-20.5,61.5-30.75c4.498,13.933,11.119,27.294,22.5,36.75  C449.157,450.323,426.727,469.928,410.125,485.765z"/>
<path fill-rule="evenodd" clip-rule="evenodd" fill="#D6CBB9" stroke="#000000" stroke-width="1.25" stroke-linecap="square" stroke-miterlimit="10" d="  M411.625,491.765c-2.913-20.66,38.519-43.296,58.125-39.375C493.166,457.074,427.383,493.14,411.625,491.765z"/>
<path fill-rule="evenodd" clip-rule="evenodd" fill="#EEEADB" stroke="#000000" stroke-width="1.25" stroke-linecap="square" stroke-miterlimit="10" d="  M392.875,462.515c-6.231-22.621,48.446-39.971,66-35.25C455.167,390.224,359.978,438.217,392.875,462.515z"/>
<path fill="none" stroke="#000000" stroke-width="1.25" stroke-linecap="square" stroke-miterlimit="10" d="M368.125,456.515  c0.648-9.173-7.706-18.81,1.5-27c5.54-4.929,17.188,2.998,22.5,0c4.792-2.705,1.279-14.699,8.25-18.75  c7.586-4.409,14.948,1.599,21.75-0.75c2.182-0.753,5.92-9.718,11.625-12c5.978-2.391,32.438-0.07,38.625,8.25"/>
<path fill="none" stroke="#000000" stroke-width="0.5" stroke-linecap="square" stroke-miterlimit="10" d="M368.125,442.265  c3.172-8.127,10.3-12.312,19.5-12"/>
<path fill="none" stroke="#000000" stroke-width="0.5" stroke-linecap="square" stroke-miterlimit="10" d="M417.625,409.265  c-8.698,1.141-17.008,5.478-23.25,12"/>
<path fill="none" stroke="#000000" stroke-width="0.5" stroke-linecap="square" stroke-miterlimit="10" d="M425.125,404.765  c5.514-4.116,11.946-5.369,18-3"/>
<path fill="none" stroke="#000000" stroke-width="0.5" stroke-linecap="square" stroke-miterlimit="10" d="M448.375,401.765  c8.824-0.812,17.729,1.284,24.75,6"/>
<path fill-rule="evenodd" clip-rule="evenodd" fill="#44300C" d="M452.875,369.515C451.602,369.515,451.602,369.515,452.875,369.515  L452.875,369.515z"/>
<path fill-rule="evenodd" clip-rule="evenodd" fill="#44300C" d="M443.125,356.015C441.426,356.015,441.426,356.015,443.125,356.015  L443.125,356.015z"/>
<path fill-rule="evenodd" clip-rule="evenodd" fill="#44300C" d="M458.875,386.015C457.228,386.015,457.228,386.015,458.875,386.015  L458.875,386.015z"/>
<path fill-rule="evenodd" clip-rule="evenodd" fill="#44300C" d="M468.625,389.765C467.802,388.941,467.802,388.941,468.625,389.765  L468.625,389.765z"/>
<path fill-rule="evenodd" clip-rule="evenodd" fill="#44300C" d="M429.625,375.515C428.505,375.515,428.505,375.515,429.625,375.515  L429.625,375.515z"/>
<path fill-rule="evenodd" clip-rule="evenodd" fill="#44300C" d="M438.625,366.515C437.802,365.691,437.802,365.691,438.625,366.515  L438.625,366.515z"/>
<path fill-rule="evenodd" clip-rule="evenodd" fill="#DBD1A7" d="M426.625,371.765c11.301,1.694,23.846,4.318,30,15  c1.146-3.492,1.647-6.457,1.5-10.5c20.36,7.576,3.237-1.384-5.25-4.5C442.065,367.797,430.852,366.199,426.625,371.765z"/>
</svg>