<svg xmlns="http://www.w3.org/2000/svg" xmlns:xlink="http://www.w3.org/1999/xlink" version="1.1" id="Layer_1" x="0px" y="0px" enable-background="new 0 0 822.05 841.89" xml:space="preserve" viewBox="306.38 342.44 203.05 156.46">
<path fill-rule="evenodd" clip-rule="evenodd" fill="#E7E4DE" d="M428.125,384.265c3.55,14.91,19.138,35.222,30,46.5  C467.43,413.792,445.477,378.059,428.125,384.265z"/>
<path fill="none" stroke="#000000" stroke-linecap="square" stroke-miterlimit="10" d="M428.125,384.265  c3.55,14.91,19.138,35.222,30,46.5c9.225-16.827-11.799-51.493-30-47.25"/>
<path fill-rule="evenodd" clip-rule="evenodd" fill="#EFE7BD" stroke="#000000" stroke-width="1.25" stroke-linecap="square" stroke-miterlimit="10" d="  M456.625,429.265c48.452,45.628,70.692-37.853,32.25-71.25c-11.026-9.58-39.868-23.842-52.125-7.5  C417.296,376.454,443.647,404.848,456.625,429.265z"/>
<path fill-rule="evenodd" clip-rule="evenodd" fill="#FFFFFF" stroke="#000000" stroke-width="1.25" stroke-linecap="square" stroke-miterlimit="10" d="  M410.875,399.265c10.524-2.989,19.122-9.719,26.25-18c9.25,14.5,18.5,29,27.75,43.5c-10.161,3.932-19.354,10.763-24.75,20.25  C439.691,425.579,424.792,411.23,410.875,399.265z"/>
<path fill-rule="evenodd" clip-rule="evenodd" fill="#D6CBB9" stroke="#000000" stroke-width="1.25" stroke-linecap="square" stroke-miterlimit="10" d="  M407.125,400.765c12.166-0.028,40.974,27.487,33.75,42C432.226,460.141,407.651,409.251,407.125,400.765z"/>
<path fill-rule="evenodd" clip-rule="evenodd" fill="#EEEADB" stroke="#000000" stroke-width="1.25" stroke-linecap="square" stroke-miterlimit="10" d="  M426.625,385.015c17.163-4.062,33.063,29.676,31.5,46.5C482.519,422.536,445.517,360.603,426.625,385.015z"/>
<path fill="none" stroke="#000000" stroke-width="1.25" stroke-linecap="square" stroke-miterlimit="10" d="M429.625,366.265  c1.819-1.297,13.765-6.384,18-4.5c4.276,1.902,0.664,12.349,3,14.25c0.054,0.043,13.064,7.574,13.5,8.25  c10.483,16.278,17.369,36.937,11.25,55.5"/>
<path fill="none" stroke="#000000" stroke-width="0.5" stroke-linecap="square" stroke-miterlimit="10" d="M439.375,364.765  c6.762,1.247,10.392,6.231,10.5,13.5"/>
<path fill="none" stroke="#000000" stroke-width="0.5" stroke-linecap="square" stroke-miterlimit="10" d="M467.875,398.515  c-1.65-6.149-5.459-12.084-10.5-16.5"/>
<path fill="none" stroke="#000000" stroke-width="0.5" stroke-linecap="square" stroke-miterlimit="10" d="M471.625,403.765  c3.896,3.716,5.639,8.587,4.5,13.5"/>
<path fill="none" stroke="#000000" stroke-width="0.5" stroke-linecap="square" stroke-miterlimit="10" d="M476.125,421.765  c1.562,6.423,0.811,13.092-2.25,18.75"/>
<path fill-rule="evenodd" clip-rule="evenodd" fill="#44300C" d="M500.125,421.765C500.125,420.896,500.125,420.896,500.125,421.765  L500.125,421.765z"/>
<path fill-rule="evenodd" clip-rule="evenodd" fill="#44300C" d="M509.125,413.515C509.574,411.657,509.474,412.072,509.125,413.515  L509.125,413.515z"/>
<path fill-rule="evenodd" clip-rule="evenodd" fill="#44300C" d="M488.875,427.765C487.988,426.122,488.529,427.124,488.875,427.765  L488.875,427.765z"/>
<path fill-rule="evenodd" clip-rule="evenodd" fill="#44300C" d="M486.625,435.265C487.448,434.442,487.448,434.442,486.625,435.265  L486.625,435.265z"/>
<path fill-rule="evenodd" clip-rule="evenodd" fill="#44300C" d="M494.125,405.265C493.238,403.621,493.779,404.624,494.125,405.265  L494.125,405.265z"/>
<path fill-rule="evenodd" clip-rule="evenodd" fill="#44300C" d="M501.625,410.515C501.625,409.515,501.625,409.515,501.625,410.515  L501.625,410.515z"/>
<path fill-rule="evenodd" clip-rule="evenodd" fill="#DBD1A7" d="M496.375,402.265c0.27,8.791-2.248,17.552-8.25,24  c1.011,1.175,6.397,0.023,7.5,0c0.043,2.921-3.216,5.318-2.25,8.25C501.408,427.846,501.733,407.236,496.375,402.265z"/>
<path fill-rule="evenodd" clip-rule="evenodd" fill="#E7E4DE" d="M350.125,472.015c16.782-1.62,43.082-17.54,56.25-28.5  C391.07,432.104,341.401,452.204,350.125,472.015z"/>
<path fill="none" stroke="#000000" stroke-linecap="square" stroke-miterlimit="10" d="M350.125,472.015  c16.782-1.62,43.082-17.54,56.25-28.5c-15.16-11.303-63.435,7.545-57,28.5"/>
<path fill-rule="evenodd" clip-rule="evenodd" fill="#EFE7BD" stroke="#000000" stroke-width="1.25" stroke-linecap="square" stroke-miterlimit="10" d="  M405.625,445.015c52.263-52.068-29.794-83.114-72.75-48.75c-13.586,10.869-37.292,43.708-19.5,61.5  C340.121,484.511,376.435,455.236,405.625,445.015z"/>
<path fill-rule="evenodd" clip-rule="evenodd" fill="#FFFFFF" stroke="#000000" stroke-width="1.25" stroke-linecap="square" stroke-miterlimit="10" d="  M365.875,493.765c-2.975-11.992-9.336-22.861-17.25-32.25c17.5-8.75,35-17.5,52.5-26.25c2.983,12.118,9.472,23.134,18.75,31.5  C399.206,463.047,379.454,480.04,365.875,493.765z"/>
<path fill-rule="evenodd" clip-rule="evenodd" fill="#D6CBB9" stroke="#000000" stroke-width="1.25" stroke-linecap="square" stroke-miterlimit="10" d="  M366.625,498.265c0.32-14.689,31.89-39.967,48.002-33.75C440.344,474.438,378.268,498.859,366.625,498.265z"/>
<path fill-rule="evenodd" clip-rule="evenodd" fill="#EEEADB" stroke="#000000" stroke-width="1.25" stroke-linecap="square" stroke-miterlimit="10" d="  M350.875,473.515c-2.408-20.52,39.614-32.768,56.25-30C399.912,413.046,325.83,451.731,350.875,473.515z"/>
<path fill="none" stroke="#000000" stroke-width="1.25" stroke-linecap="square" stroke-miterlimit="10" d="M329.875,468.265  c-0.496-2.473-5.367-21.127-0.375-22.125c2.501-0.5,16.183,0.132,16.875-0.375c4.207-3.077,4.24-12.53,9-15  c14.144-7.339,51.059-19.334,63.75-5.25"/>
<path fill="none" stroke="#000000" stroke-width="0.5" stroke-linecap="square" stroke-miterlimit="10" d="M329.875,456.265  c2.562-6.881,8.66-10.539,16.5-10.5"/>
<path fill="none" stroke="#000000" stroke-width="0.5" stroke-linecap="square" stroke-miterlimit="10" d="M371.875,428.515  c-7.438,0.537-14.337,4.072-19.5,9.75"/>
<path fill="none" stroke="#000000" stroke-width="0.5" stroke-linecap="square" stroke-miterlimit="10" d="M378.625,424.765  c4.429-3.625,10.242-4.883,15-3"/>
<path fill="none" stroke="#000000" stroke-width="0.5" stroke-linecap="square" stroke-miterlimit="10" d="M398.875,421.765  c7.408-0.32,14.733,1.49,21,5.25"/>
<path fill-rule="evenodd" clip-rule="evenodd" fill="#44300C" d="M402.625,394.765C400.767,394.316,401.182,394.417,402.625,394.765  L402.625,394.765z"/>
<path fill-rule="evenodd" clip-rule="evenodd" fill="#44300C" d="M393.625,382.765C391.978,382.765,391.978,382.765,393.625,382.765  L393.625,382.765z"/>
<path fill-rule="evenodd" clip-rule="evenodd" fill="#44300C" d="M407.125,408.265C406.301,409.089,406.301,409.089,407.125,408.265  L407.125,408.265z"/>
<path fill-rule="evenodd" clip-rule="evenodd" fill="#44300C" d="M415.375,411.265L415.375,411.265z"/>
<path fill-rule="evenodd" clip-rule="evenodd" fill="#44300C" d="M382.375,399.265C380.731,400.152,381.733,399.611,382.375,399.265  L382.375,399.265z"/>
<path fill-rule="evenodd" clip-rule="evenodd" fill="#44300C" d="M389.875,391.765C389.051,390.941,389.051,390.941,389.875,391.765  L389.875,391.765z"/>
<path fill-rule="evenodd" clip-rule="evenodd" fill="#DBD1A7" d="M379.375,396.265c9.817,1.083,19.595,4.447,25.5,12.75  c2.485-2.381,1.679-5.973,1.5-9c3.301,0.747,5.317,4.407,9,3.75C410.144,392.706,384.251,391.791,379.375,396.265z"/>
</svg>