<svg xmlns="http://www.w3.org/2000/svg" xmlns:xlink="http://www.w3.org/1999/xlink" version="1.1" id="Layer_1" x="0px" y="0px" enable-background="new 0 0 822.05 841.89" xml:space="preserve" viewBox="321.78 341.89 177.22 158.88">
<path fill-rule="evenodd" clip-rule="evenodd" d="M396.25,435.64c-0.61-13.006-9.151-23.1-21.75-26.25  c-27.37-6.842-3.352-13.541,0.75-30.75c5.661-23.747-12.521-44.447-24.75-13.875c-2.189,5.474-3,11-3,16.875  c0,15.23-5.725,11.268-12,23.25c-7.191,13.731-18.832,22.717-11.25,40.5c5.278,12.379,72.104,29.369,36,42.75  c13.824-37.401-55.764,3.456-2.25,12.375c18.259,3.043,20.711-21.548,18-33.75C375.31,463.662,396.124,447.938,396.25,435.64z   M367.75,359.14c5.108,10.282-1.927,20.347-11.25,27.75C353.37,375.242,355.877,363.017,367.75,359.14z M342.25,450.64  c-17.87-13.662-5.065-36.164,10.5-45.75c-2.381,11.677-19.41,22.396-5.25,36c2.401-7.6,6.709-8.987,10.5-15  c2.25,9.75,4.5,19.5,6.75,29.25C357.261,455.064,348.808,453.914,342.25,450.64z M373,453.64c-2.25-10-4.5-20-6.75-30  C387.549,421.694,390.623,444.984,373,453.64z"/>
<path fill-rule="evenodd" clip-rule="evenodd" d="M442.75,416.89c-5.076,11.857-33.25,18.004-33.75,0  C408.479,398.179,437.848,404.124,442.75,416.89z"/>
<path fill-rule="evenodd" clip-rule="evenodd" d="M442.75,417.64c-5.658-15.598-5.658-60.152,0-75.75  C442.75,367.14,442.75,392.39,442.75,417.64z"/>
<path fill-rule="evenodd" clip-rule="evenodd" d="M442,341.89c4.405,8.75,11.381,15.496,20.25,19.5  C446.8,366.394,436.618,359.571,442,341.89z"/>
<path fill-rule="evenodd" clip-rule="evenodd" d="M480.25,482.14c-5.123,10.573-32.979,18.228-33.75,0  C445.717,463.623,475.476,470.625,480.25,482.14z"/>
<path fill-rule="evenodd" clip-rule="evenodd" d="M480.25,482.89c-7.106-9.433-7.106-64.817,0-74.25  C480.25,433.39,480.25,458.14,480.25,482.89z"/>
<path fill-rule="evenodd" clip-rule="evenodd" d="M479.5,408.64c4.164,8.646,10.927,15.445,19.5,19.5  C483.704,432.6,474.274,425.96,479.5,408.64z"/>
</svg>