<svg xmlns="http://www.w3.org/2000/svg" xmlns:xlink="http://www.w3.org/1999/xlink" version="1.1" id="Layer_1" x="0px" y="0px" enable-background="new 0 0 822.05 841.89" xml:space="preserve" viewBox="307.15 337.18 203.98 173.37">
<path fill-rule="evenodd" clip-rule="evenodd" fill="#EED5B6" stroke="#000000" stroke-width="1.25" stroke-linecap="square" stroke-miterlimit="10" d="  M483.375,455.552c-2.362-8.355,5.041-73.894-8.25-71.998C463.761,385.175,462.254,453.838,483.375,455.552z"/>
<path fill-rule="evenodd" clip-rule="evenodd" fill="#EED5B6" d="M472.875,390.304c1.83,8.839,2.103,18.21,0.75,27  C473.375,408.304,473.125,399.304,472.875,390.304z"/>
<path fill="none" stroke="#000000" stroke-width="1.25" stroke-linecap="square" stroke-miterlimit="10" d="M472.875,390.304  c1.83,8.839,2.103,18.21,0.75,27"/>
<path fill-rule="evenodd" clip-rule="evenodd" fill="#EED5B6" stroke="#000000" stroke-width="1.25" stroke-linecap="square" stroke-miterlimit="10" d="  M362.625,451.052c7.291-25.791-7.045-47.029,6-72.748C379.319,392.406,387.663,449.014,362.625,451.052z"/>
<path fill-rule="evenodd" clip-rule="evenodd" fill="#EED5B6" d="M373.125,385.054c-1.286,9.123-1.557,18.755-0.75,27.75  C372.625,403.554,372.875,394.304,373.125,385.054z"/>
<path fill="none" stroke="#000000" stroke-width="1.25" stroke-linecap="square" stroke-miterlimit="10" d="M373.125,385.054  c-1.286,9.123-1.557,18.755-0.75,27.75"/>
<path fill-rule="evenodd" clip-rule="evenodd" fill="#EED5B6" stroke="#000000" stroke-width="1.25" stroke-linecap="square" stroke-miterlimit="10" d="  M403.875,408.304C396.938,420.215,390.003,405.459,403.875,408.304L403.875,408.304z"/>
<path fill-rule="evenodd" clip-rule="evenodd" fill="#EED5B6" stroke="#000000" stroke-width="1.25" stroke-linecap="square" stroke-miterlimit="10" d="  M451.875,408.304C439.047,416.56,441.755,396.898,451.875,408.304L451.875,408.304z"/>
<path fill-rule="evenodd" clip-rule="evenodd" fill="#EED5B6" stroke="#000000" stroke-width="1.25" stroke-linecap="square" stroke-miterlimit="10" d="  M447.375,436.802c-17.188-17.258-27.551-7.316-46.125-1.125C359.266,449.672,450.609,486.006,447.375,436.802z"/>
<path fill-rule="evenodd" clip-rule="evenodd" fill="#EED5B6" stroke="#000000" stroke-width="1.25" stroke-linecap="square" stroke-miterlimit="10" d="  M398.625,392.554c-4.219,47.643,57.542,53.299,49.5,1.5C443.253,362.674,403.153,358.292,398.625,392.554z"/>
<path fill-rule="evenodd" clip-rule="evenodd" d="M420.375,403.054C416.372,403.665,416.162,403.696,420.375,403.054  L420.375,403.054z"/>
<path fill-rule="evenodd" clip-rule="evenodd" d="M433.875,403.804C429.934,403.594,429.671,403.58,433.875,403.804L433.875,403.804  z"/>
<path fill="none" stroke="#000000" stroke-width="0.75" stroke-linecap="square" stroke-miterlimit="10" d="M422.625,409.804  c1.212,1.844,2.777,2.055,4.5,0.75"/>
<path fill="none" stroke="#000000" stroke-width="0.75" stroke-linecap="square" stroke-miterlimit="10" d="M412.875,403.054  c3.463-2.266,6.933-2.094,9.75,0.75"/>
<path fill="none" stroke="#000000" stroke-width="0.75" stroke-linecap="square" stroke-miterlimit="10" d="M437.625,403.804  c-3.111-2.299-6.352-2.064-9,0.75"/>
<path fill-rule="evenodd" clip-rule="evenodd" fill="#63221C" d="M419.625,419.554c4.149-0.14,7.732-0.89,12,0  C427.625,419.554,423.625,419.554,419.625,419.554z"/>
<path fill="none" stroke="#000000" stroke-linecap="square" stroke-miterlimit="10" d="M419.625,419.554  c3.971-0.84,8.001-0.834,12,0"/>
<path fill-rule="evenodd" clip-rule="evenodd" fill="#137827" stroke="#000000" stroke-width="1.25" stroke-linecap="square" stroke-miterlimit="10" d="  M466.125,445.802c-13.263-27.957-21.286,1.292-37.5,1.5c-15.562,0.2-23.298-16.808-34.875-13.5  c-20.03,5.723-14.137,72.75-0.651,72.75c12.167,0,60.308,7.595,68.526,0C468.915,499.814,465.317,456.708,466.125,445.802z"/>
<path fill-rule="evenodd" clip-rule="evenodd" fill="#137827" stroke="#000000" stroke-width="1.25" stroke-linecap="square" stroke-miterlimit="10" d="  M358.125,433.052c0.481,14.848-7.898,71.692,16.5,70.5c20.8-1.017,11.25-61.494,11.25-73.5  C377.146,435.982,367.458,437.216,358.125,433.052z"/>
<path fill-rule="evenodd" clip-rule="evenodd" fill="#137827" stroke="#000000" stroke-width="1.25" stroke-linecap="square" stroke-miterlimit="10" d="  M488.625,433.052c0.256,13.298,8.475,73.755-16.5,71.25c-19.896-1.995-10.5-61.383-10.5-73.5  C470.112,437.04,479.62,437.953,488.625,433.052z"/>
<path fill-rule="evenodd" clip-rule="evenodd" fill="#137827" d="M386.625,489.302L386.625,489.302L386.625,489.302z"/>
<line fill="none" stroke="#000000" stroke-width="1.25" stroke-linecap="square" stroke-miterlimit="10" x1="386.625" y1="489.302" x2="386.625" y2="489.302"/>
<path fill-rule="evenodd" clip-rule="evenodd" fill="#137827" d="M383.625,497.552L383.625,497.552L383.625,497.552z"/>
<line fill="none" stroke="#000000" stroke-width="1.25" stroke-linecap="square" stroke-miterlimit="10" x1="383.625" y1="497.552" x2="383.625" y2="497.552"/>
<path fill-rule="evenodd" clip-rule="evenodd" fill="#137827" d="M390.375,469.802L390.375,469.802L390.375,469.802z"/>
<line fill="none" stroke="#000000" stroke-width="1.25" stroke-linecap="square" stroke-miterlimit="10" x1="390.375" y1="469.802" x2="390.375" y2="469.802"/>
<path fill-rule="evenodd" clip-rule="evenodd" d="M335.625,457.802c0.131,6.153,2.539,12.692,3.75,18.75  c4.136-3.4,8.821-10.206,11.25-15C345.855,460.36,340.511,457.937,335.625,457.802z"/>
<path fill-rule="evenodd" clip-rule="evenodd" d="M357.375,409.054c-4.5,18.499-9,36.999-13.5,55.498c-1.5-0.25-3-0.5-4.5-0.75  C343.214,448.021,345.642,414.811,357.375,409.054z"/>
<path fill-rule="evenodd" clip-rule="evenodd" d="M511.125,454.802c-0.096,6.14-2.541,12.704-3.75,18.75  c-4.077-3.176-8.806-9.675-11.25-14.25C500.881,457.875,506.201,455.135,511.125,454.802z"/>
<path fill-rule="evenodd" clip-rule="evenodd" d="M489.375,406.804c4.5,18.499,9,36.999,13.5,55.498c1.5-0.5,3-1,4.5-1.5  C503.534,445.224,501.063,412.377,489.375,406.804z"/>
<path fill-rule="evenodd" clip-rule="evenodd" fill="#FFFFFF" stroke="#000000" stroke-width="1.25" stroke-linecap="square" stroke-miterlimit="10" d="  M326.625,338.554c17.233-1.463,17.257,15.635,11.25,31.5c17.688-24.582,4.002,33.701-18.375,24.75  C302.251,387.905,303.541,335.082,326.625,338.554z"/>
<path fill-rule="evenodd" clip-rule="evenodd" fill="#FFFFFF" d="M334.875,340.054l-1.5,21.75L334.875,340.054z"/>
<line fill="none" stroke="#000000" stroke-width="1.25" stroke-linecap="square" stroke-miterlimit="10" x1="334.875" y1="340.054" x2="333.375" y2="361.804"/>
<path fill-rule="evenodd" clip-rule="evenodd" fill="#FFFFFF" d="M326.625,337.804l0.75,22.5L326.625,337.804z"/>
<line fill="none" stroke="#000000" stroke-width="1.25" stroke-linecap="square" stroke-miterlimit="10" x1="326.625" y1="337.804" x2="327.375" y2="360.304"/>
<path fill-rule="evenodd" clip-rule="evenodd" fill="#FFFFFF" d="M319.125,339.304v20.25V339.304z"/>
<line fill="none" stroke="#000000" stroke-width="1.25" stroke-linecap="square" stroke-miterlimit="10" x1="319.125" y1="339.304" x2="319.125" y2="359.554"/>
</svg>