<svg xmlns="http://www.w3.org/2000/svg" xmlns:xlink="http://www.w3.org/1999/xlink" version="1.1" id="Layer_1" x="0px" y="0px" enable-background="new 0 0 822.05 841.89" xml:space="preserve" viewBox="316.92 339.97 188.56 165.38">
<path fill-rule="evenodd" clip-rule="evenodd" fill="#EBCBA7" stroke="#000000" stroke-width="1.25" stroke-linecap="square" stroke-miterlimit="10" d="  M434.551,423.015c-11.312-6.391-16.885-14.25-30.376-14.25c-13.809,0-15.083,8.716-28.501,12.375  c-12.798,3.49-23.836,28.875-4.33,28.875C409.365,450.015,424.095,460.657,434.551,423.015z"/>
<path fill-rule="evenodd" clip-rule="evenodd" fill="#1D529A" stroke="#000000" stroke-width="1.25" stroke-linecap="square" stroke-miterlimit="10" d="  M493.051,468.765c-2.599-3.12-56.031-67.406-62.25-48.75c-4.12,12.361-18.91,18.568-31.127,16.125  c-19.824-3.965-17.171-24.076-39.375-15.75c-20.861,7.822-28.834,65.105-34.5,82.875c32.645-0.198,65.289-0.396,97.934-0.594  c31.484-0.19,28.594-7.444,25.818-38.406c5.701,7.069,33.98,48.231,49.5,39C511.544,495.834,501.187,475.67,493.051,468.765z"/>
<path fill-rule="evenodd" clip-rule="evenodd" fill="#F8130D" stroke="#000000" stroke-width="1.5" stroke-linecap="square" stroke-miterlimit="10" d="  M423.301,493.515c-9.92,0-53.192,6.339-59.252,0c-2.692-2.816-2.692-52.684,0-55.5c2.575-2.694,56.677-2.694,59.252,0  C429.428,444.424,423.301,483.697,423.301,493.515z"/>
<path fill-rule="evenodd" clip-rule="evenodd" fill="#EBCBA7" stroke="#000000" stroke-width="1.25" stroke-linecap="square" stroke-miterlimit="10" d="  M397.049,461.265c-6.549-13.594-20.83-7.153-31.5,3.75c-0.211-4.886-2.869-10.9-3-15c-5.599,13.045-30.613,35.846-5.25,43.5  C371.64,497.843,405.502,476.128,397.049,461.265z"/>
<path fill-rule="evenodd" clip-rule="evenodd" fill="#F8130D" d="M391.799,456.765l-18,9L391.799,456.765z"/>
<line fill="none" stroke="#000000" stroke-width="1.25" stroke-linecap="square" stroke-miterlimit="10" x1="391.799" y1="456.765" x2="373.799" y2="465.765"/>
<path fill-rule="evenodd" clip-rule="evenodd" fill="#F8130D" d="M397.049,461.265l-20.25,9L397.049,461.265z"/>
<line fill="none" stroke="#000000" stroke-width="1.25" stroke-linecap="square" stroke-miterlimit="10" x1="397.049" y1="461.265" x2="376.799" y2="470.265"/>
<path fill-rule="evenodd" clip-rule="evenodd" fill="#F8130D" d="M398.549,468.765l-17.25,7.5L398.549,468.765z"/>
<line fill="none" stroke="#000000" stroke-width="1.25" stroke-linecap="square" stroke-miterlimit="10" x1="398.549" y1="468.765" x2="381.299" y2="476.265"/>
<path fill-rule="evenodd" clip-rule="evenodd" fill="#1D529A" stroke="#000000" stroke-width="1.25" stroke-linecap="square" stroke-miterlimit="10" d="  M346.799,471.765c-12.921,7.648-25.891,16.921-29.25,32.25c15.441,0,34.155,4.762,43.5-10.5  C351.416,489.715,346.286,482.074,346.799,471.765z"/>
<path fill-rule="evenodd" clip-rule="evenodd" fill="#EBCBA7" stroke="#000000" stroke-width="1.25" stroke-linecap="square" stroke-miterlimit="10" d="  M471.301,456.015C466.32,419.647,434.372,450.906,471.301,456.015L471.301,456.015z"/>
<path fill-rule="evenodd" clip-rule="evenodd" fill="#EBCBA7" stroke="#000000" stroke-width="1.25" stroke-linecap="square" stroke-miterlimit="10" d="  M471.301,463.515c0.315-36.676-64-29.168-24.75-18c-9.703,3.642-1.286,1.171-4.5,6.75  C419.281,464.042,468.286,491.397,471.301,463.515z"/>
<line fill="none" stroke="#000000" stroke-width="1.25" stroke-linecap="square" stroke-miterlimit="10" x1="440.551" y1="468.765" x2="440.551" y2="468.765"/>
<line fill="none" stroke="#000000" stroke-width="1.25" stroke-linecap="square" stroke-miterlimit="10" x1="466.801" y1="475.515" x2="466.801" y2="475.515"/>
<path fill-rule="evenodd" clip-rule="evenodd" fill="#1D529A" d="M485.551,468.015c-4-2.25-8-4.5-12-6.75  c-3.216,12.461-13.578,18.35-25.5,12.75c9.5,7,19,14,28.5,21C479.551,486.015,482.551,477.015,485.551,468.015z"/>
<path fill="none" stroke="#000000" stroke-width="1.25" stroke-linecap="square" stroke-miterlimit="10" d="M485.551,468.015  c-4-2.25-8-4.5-12-6.75c-3.216,12.461-13.578,18.35-25.5,12.75c9.5,7,19,14,28.5,21"/>
<path fill-rule="evenodd" clip-rule="evenodd" fill="#EBCBA7" stroke="#000000" stroke-width="1.25" stroke-linecap="square" stroke-miterlimit="10" d="  M375.299,399.015C377.818,424.436,351.483,391.833,375.299,399.015L375.299,399.015z"/>
<path fill-rule="evenodd" clip-rule="evenodd" fill="#EBCBA7" stroke="#000000" stroke-width="1.25" stroke-linecap="square" stroke-miterlimit="10" d="  M436.051,383.265C421.509,402.555,421.923,362.269,436.051,383.265L436.051,383.265z"/>
<path fill-rule="evenodd" clip-rule="evenodd" fill="#EBCBA7" stroke="#000000" stroke-width="1.25" stroke-linecap="square" stroke-miterlimit="10" d="  M362.549,378.765c5.25,45.662,68.76,60.295,68.252,6C430.271,328.214,354.585,325.687,362.549,378.765z"/>
<path fill-rule="evenodd" clip-rule="evenodd" fill="#5A0C08" stroke="#000000" stroke-linecap="square" stroke-miterlimit="10" d="  M424.051,391.515c-7.934,16.372-16.746,26.547-33.002,12.75C403.008,403.359,414.409,398.716,424.051,391.515z"/>
<path fill-rule="evenodd" clip-rule="evenodd" d="M393.299,386.265c-1.792,0.697-0.207,5.436-4.5,1.5  C389.877,382.665,392.188,386.697,393.299,386.265z"/>
<path fill-rule="evenodd" clip-rule="evenodd" d="M413.549,381.015c-1.822,0.54-0.568,5.379-4.5,1.5  C409.759,376.86,411.872,381.511,413.549,381.015z"/>
<path fill="none" stroke="#000000" stroke-linecap="square" stroke-miterlimit="10" d="M401.549,392.265  c2.946,1.495,5.194,0.739,6.75-2.25"/>
<path fill="none" stroke="#000000" stroke-width="0.75" stroke-linecap="square" stroke-miterlimit="10" d="M385.049,389.265  c2.762-4.549,6.58-6.004,11.25-3.75"/>
<path fill="none" stroke="#000000" stroke-width="0.75" stroke-linecap="square" stroke-miterlimit="10" d="M418.051,380.265  c-4.679-2.235-9.049-1.162-12.002,3"/>
</svg>