<svg xmlns="http://www.w3.org/2000/svg" xmlns:xlink="http://www.w3.org/1999/xlink" version="1.1" id="Layer_1" x="0px" y="0px" enable-background="new 0 0 822.05 841.89" xml:space="preserve" viewBox="200.25 249.09 421.25 344.72">
<path fill-rule="evenodd" clip-rule="evenodd" fill="#EEF9FE" stroke="#000000" stroke-width="2" stroke-linecap="square" stroke-miterlimit="10" d="  M423.252,357.892c-5.256,142.31-221.563,143.294-222,0C200.813,213.776,418.921,214.539,423.252,357.892z"/>
<path fill-rule="evenodd" clip-rule="evenodd" fill="#EEF9FE" stroke="#000000" stroke-width="2" stroke-linecap="square" stroke-miterlimit="10" d="  M382.752,359.392c4.926,90.586-140.543,91.526-141,0C241.293,267.623,386.698,268.233,382.752,359.392z"/>
<path fill-rule="evenodd" clip-rule="evenodd" fill="#FFDB78" stroke="#000000" stroke-width="2" stroke-linecap="square" stroke-miterlimit="10" d="  M260.502,406.642c5.276-5.628,29.853-37.846,35.705-35.074c18.349,8.691,36.697,17.383,55.045,26.074  C321.002,400.642,290.752,403.642,260.502,406.642z"/>
<path fill-rule="evenodd" clip-rule="evenodd" fill="#FFDB78" stroke="#000000" stroke-width="2" stroke-linecap="square" stroke-miterlimit="10" d="  M323.502,336.142c-2.75,15.25-5.5,30.5-8.25,45.75c16.5,0,33,0,49.5,0C351.002,366.642,337.252,351.392,323.502,336.142z"/>
<path fill-rule="evenodd" clip-rule="evenodd" fill="#FFDB78" stroke="#000000" stroke-width="2" stroke-linecap="square" stroke-miterlimit="10" d="  M265.752,342.892c-2.75,15.25-5.5,30.5-8.25,45.75c16.5,0,33,0,49.5,0C293.252,373.392,279.502,358.142,265.752,342.892z"/>
<path fill-rule="evenodd" clip-rule="evenodd" fill="#FFDB78" stroke="#000000" stroke-width="2" stroke-linecap="square" stroke-miterlimit="10" d="  M241.752,334.642c-2.75,15.5-5.5,31-8.25,46.5c16.5,0,33,0,49.5,0C269.252,365.642,255.502,350.142,241.752,334.642z"/>
<path fill-rule="evenodd" clip-rule="evenodd" fill="#FFDB78" stroke="#000000" stroke-width="2" stroke-linecap="square" stroke-miterlimit="10" d="  M259.752,375.892c-2.75,15.25-5.5,30.5-8.25,45.75c16.5,0,33,0,49.5,0C287.252,406.392,273.502,391.142,259.752,375.892z"/>
<path fill-rule="evenodd" clip-rule="evenodd" fill="#FFDB78" stroke="#000000" stroke-width="2" stroke-linecap="square" stroke-miterlimit="10" d="  M343.002,280.642c-3,15.25-6,30.5-9,45.75c16.75,0,33.5,0,50.25,0C370.502,311.142,356.752,295.892,343.002,280.642z"/>
<path fill-rule="evenodd" clip-rule="evenodd" fill="#FFDB78" stroke="#000000" stroke-width="2" stroke-linecap="square" stroke-miterlimit="10" d="  M355.002,293.392c-2.75,15.25-5.5,30.5-8.25,45.75c16.5,0,33,0,49.5,0C382.502,323.892,368.752,308.642,355.002,293.392z"/>
<path fill-rule="evenodd" clip-rule="evenodd" fill="#FFDB78" stroke="#000000" stroke-width="2" stroke-linecap="square" stroke-miterlimit="10" d="  M276.252,303.142c5.75,17.5,11.5,35,17.25,52.5c13.5-16.25,27-32.5,40.5-48.75C314.752,305.642,295.502,304.392,276.252,303.142z"/>
<path fill-rule="evenodd" clip-rule="evenodd" fill="#FFDB78" stroke="#000000" stroke-width="2" stroke-linecap="square" stroke-miterlimit="10" d="  M290.502,283.642c5.75,17.5,11.5,35,17.25,52.5c13.25-16.25,26.5-32.5,39.75-48.75C328.502,286.142,309.502,284.892,290.502,283.642  z"/>
<path fill-rule="evenodd" clip-rule="evenodd" fill="#FFDB78" stroke="#000000" stroke-width="2" stroke-linecap="square" stroke-miterlimit="10" d="  M240.252,289.642c5.75,17.5,11.5,35,17.25,52.5c13.5-16.25,27-32.5,40.5-48.75C278.752,292.142,259.502,290.892,240.252,289.642z"/>
<path fill-rule="evenodd" clip-rule="evenodd" fill="#FFDB78" stroke="#000000" stroke-width="2" stroke-linecap="square" stroke-miterlimit="10" d="  M337.002,334.642c5.75,17.5,11.5,35,17.25,52.5c13.5-16.25,27-32.5,40.5-48.75C375.502,337.142,356.252,335.892,337.002,334.642z"/>
<path fill-rule="evenodd" clip-rule="evenodd" fill="#FFDB78" stroke="#000000" stroke-width="2" stroke-linecap="square" stroke-miterlimit="10" d="  M329.502,372.142c5.75,17.5,11.5,35,17.25,52.5c13.5-16.25,27-32.5,40.5-48.75C368.002,374.642,348.752,373.392,329.502,372.142z"/>
<path fill-rule="evenodd" clip-rule="evenodd" fill="#FFDB78" stroke="#000000" stroke-width="2" stroke-linecap="square" stroke-miterlimit="10" d="  M320.502,384.892c5.75,17.5,11.5,35,17.25,52.5c13.5-16.5,27-33,40.5-49.5C359.002,386.892,339.752,385.892,320.502,384.892z"/>
<path fill-rule="evenodd" clip-rule="evenodd" fill="#FFDB78" stroke="#000000" stroke-width="2" stroke-linecap="square" stroke-miterlimit="10" d="  M290.502,393.892c4.25,13.25,8.5,26.5,12.75,39.75c10.25-12.25,20.5-24.5,30.75-36.75  C319.502,395.892,305.002,394.892,290.502,393.892z"/>
<path fill-rule="evenodd" clip-rule="evenodd" fill="#FFDB78" stroke="#000000" stroke-width="2" stroke-linecap="square" stroke-miterlimit="10" d="  M283.002,337.642c4.25,13.25,8.5,26.5,12.75,39.75c10.25-12.5,20.5-25,30.75-37.5C312.002,339.142,297.502,338.392,283.002,337.642z  "/>
<path fill-rule="evenodd" clip-rule="evenodd" fill="#FFDB78" stroke="#000000" stroke-width="2" stroke-linecap="square" stroke-miterlimit="10" d="  M250.002,318.892c4.5,13.5,9,27,13.5,40.5c10.25-12.5,20.5-25,30.75-37.5C279.502,320.892,264.752,319.892,250.002,318.892z"/>
<path fill-rule="evenodd" clip-rule="evenodd" fill="#FFDB78" stroke="#000000" stroke-width="2" stroke-linecap="square" stroke-miterlimit="10" d="  M322.002,314.392c4.5,13.5,9,27,13.5,40.5c10.25-12.5,20.5-25,30.75-37.5C351.502,316.392,336.752,315.392,322.002,314.392z"/>
<path fill-rule="evenodd" clip-rule="evenodd" fill="#FFFBC8" stroke="#000000" stroke-width="2" stroke-linecap="square" stroke-miterlimit="10" d="  M275.502,382.642c13.341-4.533,5.991,2.964,12,6c3.577,1.807,9.858,7.605,16.5,10.5c-8.312-3.623,22.533-2.39,15.75-0.75  c6.707-1.622,9.078,0.724,17.25-3c-1.823,0.831,22.521-25.542,22.875-26.25c8.08-16.16-4.781-24.158-10.875-37.5  c-4.385-9.602-8.517-30.588-18.75-34.5c-18.898-7.225-17.098,11.507-28.5,19.5c-12.198,8.551-24.545,6.271-33,18.75  C262.216,345.039,266.844,375.079,275.502,382.642z"/>
<path fill-rule="evenodd" clip-rule="evenodd" fill="#ED1C24" stroke="#000000" stroke-width="2" stroke-linecap="square" stroke-miterlimit="10" d="  M286.002,372.142c9.756,0.975,25.824,20.971,42.75,14.25c-0.214,0.085,21.289-23.466,21-22.5c4.861-16.245-2.631-17.184-8.25-30  c-14.834-33.835-14.067-25.441-38.25-8.25c-11.509,8.182-15.808,0.501-22.5,14.25C276.385,348.865,278.293,365.626,286.002,372.142z  "/>
<path fill-rule="evenodd" clip-rule="evenodd" fill="#FFDB78" stroke="#000000" stroke-width="2" stroke-linecap="square" stroke-miterlimit="10" d="  M305.502,367.642c1.75-2.25,3.5-4.5,5.25-6.75C311.15,373.089,305.832,367.523,305.502,367.642z"/>
<path fill-rule="evenodd" clip-rule="evenodd" fill="#FFDB78" stroke="#000000" stroke-width="2" stroke-linecap="square" stroke-miterlimit="10" d="  M289.752,360.142c1.75-2.25,3.5-4.5,5.25-6.75C295.4,365.589,290.082,360.023,289.752,360.142z"/>
<path fill-rule="evenodd" clip-rule="evenodd" fill="#FFDB78" stroke="#000000" stroke-width="2" stroke-linecap="square" stroke-miterlimit="10" d="  M311.502,343.642c2.75-0.75,5.5-1.5,8.25-2.25C312.524,352.761,312.798,344.122,311.502,343.642z"/>
<path fill-rule="evenodd" clip-rule="evenodd" fill="#FFDB78" stroke="#000000" stroke-width="2" stroke-linecap="square" stroke-miterlimit="10" d="  M334.002,357.142c2.5,1.5,5,3,7.5,4.5C329.893,364.487,334.596,358.193,334.002,357.142z"/>
<path fill-rule="evenodd" clip-rule="evenodd" fill="#FFDB78" stroke="#000000" stroke-width="2" stroke-linecap="square" stroke-miterlimit="10" d="  M317.502,373.642c3-0.75,6-1.5,9-2.25C319.725,382.741,319.285,374.186,317.502,373.642z"/>
<path fill-rule="evenodd" clip-rule="evenodd" fill="#FFDB78" stroke="#000000" stroke-width="2" stroke-linecap="square" stroke-miterlimit="10" d="  M319.002,353.392c2.75-0.75,5.5-1.5,8.25-2.25C320.574,361.412,319.877,353.66,319.002,353.392z"/>
<path fill-rule="evenodd" clip-rule="evenodd" fill="#EEF9FE" stroke="#000000" stroke-width="2" stroke-linecap="square" stroke-miterlimit="10" d="  M620.502,360.142c-2.277,143.414-222,143.505-222,0C398.502,217.071,618.232,217.231,620.502,360.142z"/>
<path fill-rule="evenodd" clip-rule="evenodd" fill="#EEF9FE" stroke="#000000" stroke-width="2" stroke-linecap="square" stroke-miterlimit="10" d="  M580.002,361.642c-0.14,91.623-142.231,91.524-141.75,0C438.73,270.65,580.608,270.6,580.002,361.642z"/>
<path fill-rule="evenodd" clip-rule="evenodd" fill="#FFDB78" stroke="#000000" stroke-width="2" stroke-linecap="square" stroke-miterlimit="10" d="  M457.752,408.892c5.227-5.575,29.986-37.857,35.679-35.048c18.107,8.933,36.214,17.866,54.321,26.798  C517.752,403.392,487.752,406.142,457.752,408.892z"/>
<path fill-rule="evenodd" clip-rule="evenodd" fill="#FFDB78" stroke="#000000" stroke-width="2" stroke-linecap="square" stroke-miterlimit="10" d="  M520.752,339.142c-2.75,15.25-5.5,30.5-8.25,45.75c16.5,0,33,0,49.5,0C548.252,369.642,534.502,354.392,520.752,339.142z"/>
<path fill-rule="evenodd" clip-rule="evenodd" fill="#FFDB78" stroke="#000000" stroke-width="2" stroke-linecap="square" stroke-miterlimit="10" d="  M463.002,345.892c-2.75,15.25-5.5,30.5-8.25,45.75c16.5,0,33,0,49.5,0C490.502,376.392,476.752,361.142,463.002,345.892z"/>
<path fill-rule="evenodd" clip-rule="evenodd" fill="#FFDB78" stroke="#000000" stroke-width="2" stroke-linecap="square" stroke-miterlimit="10" d="  M439.002,337.642c-3,15.25-6,30.5-9,45.75c16.75,0,33.5,0,50.25,0C466.502,368.142,452.752,352.892,439.002,337.642z"/>
<path fill-rule="evenodd" clip-rule="evenodd" fill="#FFDB78" stroke="#000000" stroke-width="2" stroke-linecap="square" stroke-miterlimit="10" d="  M457.002,378.142c-2.75,15.25-5.5,30.5-8.25,45.75c16.5,0,33,0,49.5,0C484.502,408.642,470.752,393.392,457.002,378.142z"/>
<path fill-rule="evenodd" clip-rule="evenodd" fill="#FFDB78" stroke="#000000" stroke-width="2" stroke-linecap="square" stroke-miterlimit="10" d="  M539.502,282.892c-2.75,15.5-5.5,31-8.25,46.5c16.5,0,33,0,49.5,0C567.002,313.892,553.252,298.392,539.502,282.892z"/>
<path fill-rule="evenodd" clip-rule="evenodd" fill="#FFDB78" stroke="#000000" stroke-width="2" stroke-linecap="square" stroke-miterlimit="10" d="  M552.252,296.392c-2.75,15.25-5.5,30.5-8.25,45.75c16.5,0,33,0,49.5,0C579.752,326.892,566.002,311.642,552.252,296.392z"/>
<path fill-rule="evenodd" clip-rule="evenodd" fill="#FFDB78" stroke="#000000" stroke-width="2" stroke-linecap="square" stroke-miterlimit="10" d="  M473.502,306.142c5.75,17.5,11.5,35,17.25,52.5c13.5-16.25,27-32.5,40.5-48.75C512.002,308.642,492.752,307.392,473.502,306.142z"/>
<path fill-rule="evenodd" clip-rule="evenodd" fill="#FFDB78" stroke="#000000" stroke-width="2" stroke-linecap="square" stroke-miterlimit="10" d="  M487.002,286.642c5.75,17.5,11.5,35,17.25,52.5c13.5-16.5,27-33,40.5-49.5C525.502,288.642,506.252,287.642,487.002,286.642z"/>
<path fill-rule="evenodd" clip-rule="evenodd" fill="#FFDB78" stroke="#000000" stroke-width="2" stroke-linecap="square" stroke-miterlimit="10" d="  M437.502,292.642c5.75,17.5,11.5,35,17.25,52.5c13.5-16.5,27-33,40.5-49.5C476.002,294.642,456.752,293.642,437.502,292.642z"/>
<path fill-rule="evenodd" clip-rule="evenodd" fill="#FFDB78" stroke="#000000" stroke-width="2" stroke-linecap="square" stroke-miterlimit="10" d="  M533.502,337.642c5.75,17.5,11.5,35,17.25,52.5c13.5-16.25,27-32.5,40.5-48.75C572.002,340.142,552.752,338.892,533.502,337.642z"/>
<path fill-rule="evenodd" clip-rule="evenodd" fill="#FFDB78" stroke="#000000" stroke-width="2" stroke-linecap="square" stroke-miterlimit="10" d="  M526.752,375.142c5.5,17.5,11,35,16.5,52.5c13.5-16.5,27-33,40.5-49.5C564.752,377.142,545.752,376.142,526.752,375.142z"/>
<path fill-rule="evenodd" clip-rule="evenodd" fill="#FFDB78" stroke="#000000" stroke-width="2" stroke-linecap="square" stroke-miterlimit="10" d="  M517.752,387.142c5.5,17.5,11,35,16.5,52.5c13.5-16.25,27-32.5,40.5-48.75C555.752,389.642,536.752,388.392,517.752,387.142z"/>
<path fill-rule="evenodd" clip-rule="evenodd" fill="#FFDB78" stroke="#000000" stroke-width="2" stroke-linecap="square" stroke-miterlimit="10" d="  M487.002,396.892c4.5,13.25,9,26.5,13.5,39.75c10.25-12.5,20.5-25,30.75-37.5C516.502,398.392,501.752,397.642,487.002,396.892z"/>
<path fill-rule="evenodd" clip-rule="evenodd" fill="#FFDB78" stroke="#000000" stroke-width="2" stroke-linecap="square" stroke-miterlimit="10" d="  M480.252,340.642c4.25,13.25,8.5,26.5,12.75,39.75c10.25-12.5,20.5-25,30.75-37.5C509.252,342.142,494.752,341.392,480.252,340.642z  "/>
<path fill-rule="evenodd" clip-rule="evenodd" fill="#FFDB78" stroke="#000000" stroke-width="2" stroke-linecap="square" stroke-miterlimit="10" d="  M447.252,321.892c4.25,13.25,8.5,26.5,12.75,39.75c10.25-12.25,20.5-24.5,30.75-36.75  C476.252,323.892,461.752,322.892,447.252,321.892z"/>
<path fill-rule="evenodd" clip-rule="evenodd" fill="#FFDB78" stroke="#000000" stroke-width="2" stroke-linecap="square" stroke-miterlimit="10" d="  M519.252,317.392c4.5,13.25,9,26.5,13.5,39.75c10.25-12.5,20.5-25,30.75-37.5C548.752,318.892,534.002,318.142,519.252,317.392z"/>
<path fill-rule="evenodd" clip-rule="evenodd" fill="#FFFBC8" stroke="#000000" stroke-width="2" stroke-linecap="square" stroke-miterlimit="10" d="  M472.752,384.892c12.613-3.207,6.387,3.733,12,6.75c3.694,1.986,9.942,7.094,15.75,9.75c0.654,0.299,29.443,2.384,32.25-1.125  c19.838-24.797,30.16-30.579,15-63.375c-11.692-25.296-24.771-57.216-47.625-19.125c-7.239,12.065-31.118,4.839-33.75,18  C463.473,350.289,459.812,374.395,472.752,384.892z"/>
<path fill-rule="evenodd" clip-rule="evenodd" fill="#ED1C24" stroke="#000000" stroke-width="2" stroke-linecap="square" stroke-miterlimit="10" d="  M482.502,374.392c9.583,2.032,8.637,13.5,15.375,13.5c3.688,0,25.037,1.827,25.875,1.5c1.508-0.588,22.108-21.314,22.5-22.5  c5.35-16.197-1.251-16.881-7.5-30.75c-14.487-32.154-14.864-25.777-39-8.25c-11.278,8.19-15.72,1.127-22.5,15  C472.881,351.835,476.215,367.416,482.502,374.392z"/>
<path fill-rule="evenodd" clip-rule="evenodd" fill="#FFDB78" stroke="#000000" stroke-width="2" stroke-linecap="square" stroke-miterlimit="10" d="  M502.002,370.642c2-2.25,4-4.5,6-6.75C508.693,376.556,503.396,370.204,502.002,370.642z"/>
<path fill-rule="evenodd" clip-rule="evenodd" fill="#FFDB78" stroke="#000000" stroke-width="2" stroke-linecap="square" stroke-miterlimit="10" d="  M486.252,362.392c2-2.25,4-4.5,6-6.75C493.166,368.721,488.171,361.887,486.252,362.392z"/>
<path fill-rule="evenodd" clip-rule="evenodd" fill="#FFDB78" stroke="#000000" stroke-width="2" stroke-linecap="square" stroke-miterlimit="10" d="  M508.752,346.642c2.75-0.75,5.5-1.5,8.25-2.25C510.324,354.662,509.627,346.91,508.752,346.642z"/>
<path fill-rule="evenodd" clip-rule="evenodd" fill="#FFDB78" stroke="#000000" stroke-width="2" stroke-linecap="square" stroke-miterlimit="10" d="  M531.252,360.142c2.5,1.25,5,2.5,7.5,3.75C526.854,368.052,532.065,361.684,531.252,360.142z"/>
<path fill-rule="evenodd" clip-rule="evenodd" fill="#FFDB78" stroke="#000000" stroke-width="2" stroke-linecap="square" stroke-miterlimit="10" d="  M514.752,376.642c2.75-0.75,5.5-1.5,8.25-2.25C516.888,384.812,515.581,376.882,514.752,376.642z"/>
<path fill-rule="evenodd" clip-rule="evenodd" fill="#FFDB78" stroke="#000000" stroke-width="2" stroke-linecap="square" stroke-miterlimit="10" d="  M515.502,356.392c2.75-1,5.5-2,8.25-3C518.8,364.764,517.117,356.754,515.502,356.392z"/>
<path fill-rule="evenodd" clip-rule="evenodd" fill="#EEF9FE" stroke="#000000" stroke-width="2" stroke-linecap="square" stroke-miterlimit="10" d="  M523.002,485.392c5.281,142.979-222,143.475-222,0C301.002,342.165,528.274,342.658,523.002,485.392z"/>
<path fill-rule="evenodd" clip-rule="evenodd" fill="#EEF9FE" stroke="#000000" stroke-width="2" stroke-linecap="square" stroke-miterlimit="10" d="  M483.252,486.892c-3.656,90.979-142.209,91.845-141.75,0C341.959,395.442,480.381,396.049,483.252,486.892z"/>
<path fill-rule="evenodd" clip-rule="evenodd" fill="#FFDB78" stroke="#000000" stroke-width="2" stroke-linecap="square" stroke-miterlimit="10" d="  M360.252,534.142c5.352-5.585,30.648-37.9,36.429-35.049c18.107,8.934,36.213,17.866,54.321,26.799  C420.752,528.642,390.502,531.392,360.252,534.142z"/>
<path fill-rule="evenodd" clip-rule="evenodd" fill="#FFDB78" stroke="#000000" stroke-width="2" stroke-linecap="square" stroke-miterlimit="10" d="  M423.252,464.392c-2.75,15.25-5.5,30.5-8.25,45.75c16.5,0,33,0,49.5,0C450.752,494.892,437.002,479.642,423.252,464.392z"/>
<path fill-rule="evenodd" clip-rule="evenodd" fill="#FFDB78" stroke="#000000" stroke-width="2" stroke-linecap="square" stroke-miterlimit="10" d="  M366.252,470.392c-3,15.5-6,31-9,46.5c16.5,0,33,0,49.5,0C393.252,501.392,379.752,485.892,366.252,470.392z"/>
<path fill-rule="evenodd" clip-rule="evenodd" fill="#FFDB78" stroke="#000000" stroke-width="2" stroke-linecap="square" stroke-miterlimit="10" d="  M341.502,462.892c-2.75,15.25-5.5,30.5-8.25,45.75c16.5,0,33,0,49.5,0C369.002,493.392,355.252,478.142,341.502,462.892z"/>
<path fill-rule="evenodd" clip-rule="evenodd" fill="#FFDB78" stroke="#000000" stroke-width="2" stroke-linecap="square" stroke-miterlimit="10" d="  M360.252,503.392c-3,15.25-6,30.5-9,45.75c16.75,0,33.5,0,50.25,0C387.752,533.892,374.002,518.642,360.252,503.392z"/>
<path fill-rule="evenodd" clip-rule="evenodd" fill="#FFDB78" stroke="#000000" stroke-width="2" stroke-linecap="square" stroke-miterlimit="10" d="  M442.752,408.142c-2.75,15.5-5.5,31-8.25,46.5c16.5,0,33,0,49.5,0C470.252,439.142,456.502,423.642,442.752,408.142z"/>
<path fill-rule="evenodd" clip-rule="evenodd" fill="#FFDB78" stroke="#000000" stroke-width="2" stroke-linecap="square" stroke-miterlimit="10" d="  M454.752,421.642c-2.75,15.25-5.5,30.5-8.25,45.75c16.5,0,33,0,49.5,0C482.252,452.142,468.502,436.892,454.752,421.642z"/>
<path fill-rule="evenodd" clip-rule="evenodd" fill="#FFDB78" stroke="#000000" stroke-width="2" stroke-linecap="square" stroke-miterlimit="10" d="  M376.752,431.392c5.5,17.5,11,35,16.5,52.5c13.5-16.25,27-32.5,40.5-48.75C414.752,433.892,395.752,432.642,376.752,431.392z"/>
<path fill-rule="evenodd" clip-rule="evenodd" fill="#FFDB78" stroke="#000000" stroke-width="2" stroke-linecap="square" stroke-miterlimit="10" d="  M390.252,411.892c5.75,17.5,11.5,35,17.25,52.5c13.5-16.5,27-33,40.5-49.5C428.752,413.892,409.502,412.892,390.252,411.892z"/>
<path fill-rule="evenodd" clip-rule="evenodd" fill="#FFDB78" stroke="#000000" stroke-width="2" stroke-linecap="square" stroke-miterlimit="10" d="  M340.002,417.892c5.75,17.5,11.5,35,17.25,52.5c13.5-16.5,27-33,40.5-49.5C378.502,419.892,359.252,418.892,340.002,417.892z"/>
<path fill-rule="evenodd" clip-rule="evenodd" fill="#FFDB78" stroke="#000000" stroke-width="2" stroke-linecap="square" stroke-miterlimit="10" d="  M436.752,462.892c5.75,17.5,11.5,35,17.25,52.5c13.5-16.5,27-33,40.5-49.5C475.252,464.892,456.002,463.892,436.752,462.892z"/>
<path fill-rule="evenodd" clip-rule="evenodd" fill="#FFDB78" stroke="#000000" stroke-width="2" stroke-linecap="square" stroke-miterlimit="10" d="  M429.252,500.392c5.75,17.5,11.5,35,17.25,52.5c13.5-16.5,27-33,40.5-49.5C467.752,502.392,448.502,501.392,429.252,500.392z"/>
<path fill-rule="evenodd" clip-rule="evenodd" fill="#FFDB78" stroke="#000000" stroke-width="2" stroke-linecap="square" stroke-miterlimit="10" d="  M420.252,512.392c5.75,17.5,11.5,35,17.25,52.5c13.5-16.25,27-32.5,40.5-48.75C458.752,514.892,439.502,513.642,420.252,512.392z"/>
<path fill-rule="evenodd" clip-rule="evenodd" fill="#FFDB78" stroke="#000000" stroke-width="2" stroke-linecap="square" stroke-miterlimit="10" d="  M390.252,522.142c4.25,13.25,8.5,26.5,12.75,39.75c10.25-12.5,20.5-25,30.75-37.5C419.252,523.642,404.752,522.892,390.252,522.142z  "/>
<path fill-rule="evenodd" clip-rule="evenodd" fill="#FFDB78" stroke="#000000" stroke-width="2" stroke-linecap="square" stroke-miterlimit="10" d="  M382.752,465.142c4.5,13.5,9,27,13.5,40.5c10.25-12.5,20.5-25,30.75-37.5C412.252,467.142,397.502,466.142,382.752,465.142z"/>
<path fill-rule="evenodd" clip-rule="evenodd" fill="#FFDB78" stroke="#000000" stroke-width="2" stroke-linecap="square" stroke-miterlimit="10" d="  M349.752,447.142c4.5,13.25,9,26.5,13.5,39.75c10.25-12.5,20.5-25,30.75-37.5C379.252,448.642,364.502,447.892,349.752,447.142z"/>
<path fill-rule="evenodd" clip-rule="evenodd" fill="#FFDB78" stroke="#000000" stroke-width="2" stroke-linecap="square" stroke-miterlimit="10" d="  M422.502,442.642c4.25,13.25,8.5,26.5,12.75,39.75c10.25-12.5,20.5-25,30.75-37.5C451.502,444.142,437.002,443.392,422.502,442.642z  "/>
<path fill-rule="evenodd" clip-rule="evenodd" fill="#FFFBC8" stroke="#000000" stroke-width="2" stroke-linecap="square" stroke-miterlimit="10" d="  M376.002,510.142c19.961-4.752,4.447,21.679,24.375,17.25c12.57-2.793,22.869,4.232,34.125,0c-4.604,1.73,24.644-29.127,24-27.75  c8.706-18.632-1.008-21.708-8.25-37.5c-5.016-10.938-9.436-28.848-18.375-36c-16.478-13.182-21.564,12.519-30.375,18.75  c-11.547,8.167-25.012,5.658-33,18C361.944,473.023,366.247,503.133,376.002,510.142z"/>
<path fill-rule="evenodd" clip-rule="evenodd" fill="#ED1C24" stroke="#000000" stroke-width="2" stroke-linecap="square" stroke-miterlimit="10" d="  M385.752,499.642c4.298,0.422,37.9,25.332,46.125,11.625c12.357-20.596,29.715-26.367,8.25-52.125  c-21.13-25.355-8.418-27.53-38.625-4.875c-10.919,8.189-14.007-0.477-21,13.875C375.848,477.694,378.691,492.432,385.752,499.642z"/>
<path fill-rule="evenodd" clip-rule="evenodd" fill="#FFDB78" stroke="#000000" stroke-width="2" stroke-linecap="square" stroke-miterlimit="10" d="  M405.252,495.892c2-2.25,4-4.5,6-6.75C410.576,501.236,405.488,495.809,405.252,495.892z"/>
<path fill-rule="evenodd" clip-rule="evenodd" fill="#FFDB78" stroke="#000000" stroke-width="2" stroke-linecap="square" stroke-miterlimit="10" d="  M389.502,487.642c2-2.25,4-4.5,6-6.75C395.048,493.458,390.335,487.396,389.502,487.642z"/>
<path fill-rule="evenodd" clip-rule="evenodd" fill="#FFDB78" stroke="#000000" stroke-width="2" stroke-linecap="square" stroke-miterlimit="10" d="  M411.252,471.892c2.75-0.75,5.5-1.5,8.25-2.25C413.388,480.063,412.081,472.132,411.252,471.892z"/>
<path fill-rule="evenodd" clip-rule="evenodd" fill="#FFDB78" stroke="#000000" stroke-width="2" stroke-linecap="square" stroke-miterlimit="10" d="  M433.752,485.392c2.75,1.25,5.5,2.5,8.25,3.75C430.117,492.374,434.153,485.963,433.752,485.392z"/>
<path fill-rule="evenodd" clip-rule="evenodd" fill="#FFDB78" stroke="#000000" stroke-width="2" stroke-linecap="square" stroke-miterlimit="10" d="  M418.002,501.892c2.75-0.75,5.5-1.5,8.25-2.25C419.574,509.912,418.877,502.16,418.002,501.892z"/>
<path fill-rule="evenodd" clip-rule="evenodd" fill="#FFDB78" stroke="#000000" stroke-width="2" stroke-linecap="square" stroke-miterlimit="10" d="  M418.752,481.642c2.75-1,5.5-2,8.25-3C420.762,489.714,419.588,481.852,418.752,481.642z"/>
</svg>