<svg xmlns="http://www.w3.org/2000/svg" xmlns:xlink="http://www.w3.org/1999/xlink" version="1.1" id="Layer_1" x="0px" y="0px" enable-background="new 0 0 822.05 841.89" xml:space="preserve" viewBox="202.6 270.3 413.11 301.52">
<path fill-rule="evenodd" clip-rule="evenodd" fill="#DFF3FD" stroke="#000000" stroke-width="2" stroke-linecap="square" stroke-miterlimit="10" d="  M222.002,272.797c124.858,0,249.717,0,374.575,0c28.937,0,15.838,125.907,10.552,139.5c-14.045,36.115-64.615,35.944-83.625,72.75  c-5.577,10.799-4.822,20.919-6.75,32.25c-0.822,4.836,6.188,16.125,4.5,19.5c-3.436,6.867-23.833,12.718-30.75,15.75  c-39.689,17.396-85.53,24.843-127.502,11.25c-17.584-5.694-41.986-15.954-53.25-31.5c-10.98-15.155-11.828-36.391-25.5-51.75  c-16.155-18.148-44.164-18.06-58.5-31.5c-13.72-12.862-17.858-49.237-20.25-66.75C200.309,344.271,205.722,307.525,222.002,272.797z  "/>
<path fill="none" stroke="#000000" stroke-width="2" stroke-linecap="square" stroke-miterlimit="10" d="M225.752,449.047  c48.413-5.462,116.102-16.893,146.625-59.625c24.835-34.77,14.612-93.401-19.125-118.125"/>
<path fill="none" stroke="#000000" stroke-width="2" stroke-linecap="square" stroke-miterlimit="10" d="M469.504,275.047  c-24.176,24.898-53.01,66.337-28.875,100.125c30.515,42.72,110.917,46.087,156.375,57.375"/>
<path fill="none" stroke="#000000" stroke-width="2" stroke-linecap="square" stroke-miterlimit="10" d="M337.502,416.797  c21.508,38.813,36.52,111.645-27.75,115.5"/>
<path fill="none" stroke="#000000" stroke-width="2" stroke-linecap="square" stroke-miterlimit="10" d="M485.254,404.797  c-34.23,51.804-18.434,105.172,36,132"/>
</svg>