<svg xmlns="http://www.w3.org/2000/svg" xmlns:xlink="http://www.w3.org/1999/xlink" version="1.1" id="Layer_1" x="0px" y="0px" enable-background="new 0 0 822.05 841.89" xml:space="preserve" viewBox="323.51 341.22 177.24 166.78">
<path fill-rule="evenodd" clip-rule="evenodd" fill="#F0F0EF" d="M364.375,341.845c6.25,54.5,12.5,108.999,18.75,163.498  c19.017-19.418,38.034-38.837,57.051-58.255c8.492-8.672,50.625-40.646,49.117-53.277c-4.452-37.285,4.057-47.099-33.326-48.51  C425.437,344.149,394.906,342.998,364.375,341.845z"/>
<path fill="none" stroke="#000000" stroke-width="1.25" stroke-linecap="square" stroke-miterlimit="10" d="M364.375,341.845  c6.25,54.5,12.5,108.999,18.75,163.498c19.017-19.418,38.034-38.837,57.051-58.255c8.492-8.672,50.625-40.646,49.117-53.277  c-4.452-37.285,4.057-47.099-33.326-48.51C425.437,344.149,394.906,342.998,364.375,341.845"/>
<path fill-rule="evenodd" clip-rule="evenodd" fill="#F7F619" stroke="#000000" stroke-width="1.25" stroke-linecap="square" stroke-miterlimit="10" d="  M383.125,505.343c-11.576,3.4-24,3.686-24-8.329c0-10.166-6.401-50.383,0-57.671C387.71,406.796,383.125,498.963,383.125,505.343z"/>
<path fill-rule="evenodd" clip-rule="evenodd" fill="#F7F619" stroke="#000000" stroke-width="1.25" stroke-linecap="square" stroke-miterlimit="10" d="  M374.125,357.595c3.326,5.026,10.99,5.935,3,10.5c9.737,5.95,14.914,12.74,7.5,18.75c8.262,7.969,15.075,18.301,3,23.25  c12.057,5.513,17.071,11.239,3.75,15.748c14.154,1.11,30.517,15.917,10.5,18.75c12.002,7.117,15.154,18.293-1.5,17.25  c26.704,5.898,18.002,20.25-5.625,16.875c-7.896-1.128-12.119-4.364-19.125-4.125c-5.569,0.19-13.04,10.302-23.25,9  c4.095-3.616,7.024-7.51,12.75-10.5c-30.094,24.231-57.889-8.184-28.5-9.75c-26.685-1.851-0.297-13.054,10.5-19.5  c-29.202,6.312-13.384-13.964,0-22.5c-3.832-0.362-7.592-1.775-11.25-2.25c5.218-6.257,11.468-13.593,17.25-20.248  c-14.168-6.697-5.27-15.559,6.75-20.25c-1.67-1.131-4.545-0.708-6.75-2.25c5.029-9.174,10.73-19.565,11.25-34.5  C366.826,347.693,371.493,352.153,374.125,357.595z"/>
<path fill-rule="evenodd" clip-rule="evenodd" fill="#D2D1D2" stroke="#000000" stroke-width="1.25" stroke-linecap="square" stroke-miterlimit="10" d="  M489.625,396.595C462.99,395.386,502.208,353.767,489.625,396.595L489.625,396.595z"/>
<path fill-rule="evenodd" clip-rule="evenodd" fill="#D2D1D2" stroke="#000000" stroke-width="1.25" stroke-linecap="square" stroke-miterlimit="10" d="  M486.625,351.595c3.36,5.144,6.172,10.326,3.75,15.75c4.783,5.038,3.896,0.738,1.5,4.5c6.203,6.7,3.075,2.506,3,6  c4.835,5.857,2.459,1.753,0,5.25c2.155,2.049,3.797,1.882,5.25,4.5c-7.597,0.903-12.932,1.896-20.25,2.25  c-1.489,0.054,8.551-4.519,3-2.25c-14.191,2.166-7.589,0.619-7.5-3.75c-2.521-3.777-3.949-2.32,3.75-6  c-2.748-1.184-3.506,0.94-6-1.5c4.07-6.455,4.497-2.501,2.25-6c1.302-2.086,3.389-4.743,5.25-6.75c-0.091-4.253,0.703-7.614,3.75-15  C481.6,343.152,485.667,350.736,486.625,351.595z"/>
</svg>