<svg xmlns="http://www.w3.org/2000/svg" xmlns:xlink="http://www.w3.org/1999/xlink" version="1.1" id="Layer_1" x="0px" y="0px" enable-background="new 0 0 822.05 841.89" xml:space="preserve" viewBox="214.91 249.08 390.61 345.1">
<path fill-rule="evenodd" clip-rule="evenodd" fill="#FFDEA7" stroke="#000000" stroke-width="2" stroke-linecap="square" stroke-miterlimit="10" d="  M526.52,495.328c-2.907,15.141-26.042,18.096-26.25,0C500.061,477.206,523.314,480.685,526.52,495.328z"/>
<path fill-rule="evenodd" clip-rule="evenodd" fill="#FFDEA7" stroke="#000000" stroke-width="2" stroke-linecap="square" stroke-miterlimit="10" d="  M551.27,491.578c-3.333,13.979-23.916,16.911-24.75,0C525.656,474.083,548.396,476.486,551.27,491.578z"/>
<path fill-rule="evenodd" clip-rule="evenodd" fill="#FFDEA7" stroke="#000000" stroke-width="2" stroke-linecap="square" stroke-miterlimit="10" d="  M502.52,488.578c-4.064,12.624-25.841,17.689-25.5,0C477.363,470.738,499.143,473.818,502.52,488.578z"/>
<path fill-rule="evenodd" clip-rule="evenodd" fill="#FFDEA7" stroke="#000000" stroke-width="2" stroke-linecap="square" stroke-miterlimit="10" d="  M481.52,472.828c-3.56,12.661-24.844,17.307-24,0C458.34,456.005,478,460.458,481.52,472.828z"/>
<path fill-rule="evenodd" clip-rule="evenodd" fill="#FFDEA7" stroke="#000000" stroke-width="2" stroke-linecap="square" stroke-miterlimit="10" d="  M571.52,478.078c-3.509,12.21-23.072,16.673-24,0C546.566,460.949,568.349,464.707,571.52,478.078z"/>
<path fill-rule="evenodd" clip-rule="evenodd" fill="#FFDEA7" stroke="#000000" stroke-width="2" stroke-linecap="square" stroke-miterlimit="10" d="  M586.52,459.328c-3.335,13.568-24.127,16.976-23.25,0C564.114,442.978,583.226,445.997,586.52,459.328z"/>
<path fill-rule="evenodd" clip-rule="evenodd" fill="#FFDEA7" stroke="#000000" stroke-width="2" stroke-linecap="square" stroke-miterlimit="10" d="  M468.02,454.828c-3.618,11.136-24.327,16.507-24,0C444.35,438.137,464.595,442.732,468.02,454.828z"/>
<path fill-rule="evenodd" clip-rule="evenodd" fill="#FFDEA7" stroke="#000000" stroke-width="2" stroke-linecap="square" stroke-miterlimit="10" d="  M452.27,437.578c-3.827,10.96-20.523,15.643-21.75,0C429.243,421.301,448.797,425.81,452.27,437.578z"/>
<path fill-rule="evenodd" clip-rule="evenodd" fill="#FFDEA7" stroke="#000000" stroke-width="2" stroke-linecap="square" stroke-miterlimit="10" d="  M596.27,439.078c-3.682,11.302-20.343,15.329-21.75,0C573.046,423.02,592.652,427.653,596.27,439.078z"/>
<path fill-rule="evenodd" clip-rule="evenodd" fill="#FFDEA7" stroke="#000000" stroke-width="2" stroke-linecap="square" stroke-miterlimit="10" d="  M438.02,394.83C418.164,438.473,422.599,350.058,438.02,394.83L438.02,394.83z"/>
<path fill-rule="evenodd" clip-rule="evenodd" fill="#FFDEA7" stroke="#000000" stroke-width="2" stroke-linecap="square" stroke-miterlimit="10" d="  M604.52,397.83c-3.923,9.886-18.627,14.619-20.25,0C582.574,382.558,601.004,387.414,604.52,397.83z"/>
<path fill-rule="evenodd" clip-rule="evenodd" fill="#FFDEA7" stroke="#000000" stroke-width="2" stroke-linecap="square" stroke-miterlimit="10" d="  M439.52,373.08c-3.685,9.285-20.25,14.921-20.25,0S435.835,363.794,439.52,373.08z"/>
<path fill-rule="evenodd" clip-rule="evenodd" fill="#FFDEA7" stroke="#000000" stroke-width="2" stroke-linecap="square" stroke-miterlimit="10" d="  M603.02,376.83C583.633,418.922,586.493,333.35,603.02,376.83L603.02,376.83z"/>
<path fill-rule="evenodd" clip-rule="evenodd" fill="#FFDEA7" stroke="#000000" stroke-width="2" stroke-linecap="square" stroke-miterlimit="10" d="  M444.77,352.08c-3.467,10.406-21.931,15.156-20.25,0C426.136,337.509,440.92,342.266,444.77,352.08z"/>
<path fill-rule="evenodd" clip-rule="evenodd" fill="#FFDEA7" stroke="#000000" stroke-width="2" stroke-linecap="square" stroke-miterlimit="10" d="  M600.77,355.08c-3.467,10.406-21.931,15.156-20.25,0C582.136,340.509,596.92,345.266,600.77,355.08z"/>
<path fill-rule="evenodd" clip-rule="evenodd" fill="#FFDEA7" stroke="#000000" stroke-width="2" stroke-linecap="square" stroke-miterlimit="10" d="  M449.27,334.08C432.052,369.421,432.052,298.738,449.27,334.08L449.27,334.08z"/>
<path fill-rule="evenodd" clip-rule="evenodd" fill="#FFDEA7" stroke="#000000" stroke-width="2" stroke-linecap="square" stroke-miterlimit="10" d="  M594.77,336.33C575.966,370.057,576.454,302.889,594.77,336.33L594.77,336.33z"/>
<path fill-rule="evenodd" clip-rule="evenodd" fill="#FFDEA7" stroke="#000000" stroke-width="2" stroke-linecap="square" stroke-miterlimit="10" d="  M460.52,318.33C444.035,351.147,440.544,287.153,460.52,318.33L460.52,318.33z"/>
<path fill-rule="evenodd" clip-rule="evenodd" fill="#FFDEA7" stroke="#000000" stroke-width="2" stroke-linecap="square" stroke-miterlimit="10" d="  M585.02,319.08C567.262,354.243,566.521,284.336,585.02,319.08L585.02,319.08z"/>
<path fill-rule="evenodd" clip-rule="evenodd" fill="#FFDEA7" stroke="#000000" stroke-width="2" stroke-linecap="square" stroke-miterlimit="10" d="  M444.02,416.58c-3.64,11.461-20.975,15.722-21.75,0C421.471,400.387,440.42,405.038,444.02,416.58z"/>
<path fill-rule="evenodd" clip-rule="evenodd" fill="#FFDEA7" stroke="#000000" stroke-width="2" stroke-linecap="square" stroke-miterlimit="10" d="  M602.27,418.08c-3.497,11.669-23.028,16.327-21.75,0C581.746,402.418,598.412,407.183,602.27,418.08z"/>
<path fill-rule="evenodd" clip-rule="evenodd" fill="#E0E1E2" stroke="#000000" stroke-width="2" stroke-linecap="square" stroke-miterlimit="10" d="  M455.27,308.58c8.173-9.808,15.565-19.768,25.5-27.75c1.25,1,2.5,2,3.75,3c-7.533,10.387-15.819,20.115-24,30  C458.77,312.08,457.02,310.33,455.27,308.58z"/>
<path fill-rule="evenodd" clip-rule="evenodd" fill="#E0E1E2" stroke="#000000" stroke-width="2" stroke-linecap="square" stroke-miterlimit="10" d="  M569.27,313.08c-9.174-10.062-25.539-19.417-19.5-32.25C558.098,291.307,572.343,303.202,569.27,313.08z"/>
<path fill-rule="evenodd" clip-rule="evenodd" fill="#E0E1E2" stroke="#000000" stroke-width="2" stroke-linecap="square" stroke-miterlimit="10" d="  M546.77,283.08c-17.5-1-35-2-52.5-3C508.873,282.196,538.853,291.878,546.77,283.08z"/>
<path fill-rule="evenodd" clip-rule="evenodd" fill="#E0E1E2" stroke="#000000" stroke-width="2" stroke-linecap="square" stroke-miterlimit="10" d="  M484.52,283.83c12.365-2.334,27.251-13.054,21.75-25.5C500.022,268.656,483.401,279.524,484.52,283.83z"/>
<path fill-rule="evenodd" clip-rule="evenodd" fill="#FFDEA7" stroke="#000000" stroke-width="2" stroke-linecap="square" stroke-miterlimit="10" d="  M323.268,487.078c-3.694,14.812-25.987,17.921-26.25,0C296.756,469.215,319.861,471.533,323.268,487.078z"/>
<path fill-rule="evenodd" clip-rule="evenodd" fill="#FFDEA7" stroke="#000000" stroke-width="2" stroke-linecap="square" stroke-miterlimit="10" d="  M348.018,482.578c-2.881,14.834-25.571,17.302-24.75,0C324.07,465.662,344.687,468.607,348.018,482.578z"/>
<path fill-rule="evenodd" clip-rule="evenodd" fill="#FFDEA7" stroke="#000000" stroke-width="2" stroke-linecap="square" stroke-miterlimit="10" d="  M299.268,479.578c-3.377,14.76-25.156,17.84-25.5,0C273.426,461.888,295.204,466.954,299.268,479.578z"/>
<path fill-rule="evenodd" clip-rule="evenodd" fill="#FFDEA7" stroke="#000000" stroke-width="2" stroke-linecap="square" stroke-miterlimit="10" d="  M278.268,464.578c-3.52,12.369-23.179,16.822-24,0C253.423,447.271,274.708,451.917,278.268,464.578z"/>
<path fill-rule="evenodd" clip-rule="evenodd" fill="#FFDEA7" stroke="#000000" stroke-width="2" stroke-linecap="square" stroke-miterlimit="10" d="  M368.268,469.078c-3.672,12.889-24.837,17.129-24,0C345.077,452.521,364.615,456.422,368.268,469.078z"/>
<path fill-rule="evenodd" clip-rule="evenodd" fill="#FFDEA7" stroke="#000000" stroke-width="2" stroke-linecap="square" stroke-miterlimit="10" d="  M383.268,451.078c-3.281,13.244-22.135,16.135-23.25,0C358.849,434.164,379.92,437.537,383.268,451.078z"/>
<path fill-rule="evenodd" clip-rule="evenodd" fill="#FFDEA7" stroke="#000000" stroke-width="2" stroke-linecap="square" stroke-miterlimit="10" d="  M264.768,445.828c-3.539,12.316-22.746,16.614-24,0C239.573,430.011,261.042,435.014,264.768,445.828z"/>
<path fill-rule="evenodd" clip-rule="evenodd" fill="#FFDEA7" stroke="#000000" stroke-width="2" stroke-linecap="square" stroke-miterlimit="10" d="  M249.018,428.578c-3.598,11.536-23.221,15.991-21.75,0C228.676,413.269,245.367,417.223,249.018,428.578z"/>
<path fill-rule="evenodd" clip-rule="evenodd" fill="#FFDEA7" stroke="#000000" stroke-width="2" stroke-linecap="square" stroke-miterlimit="10" d="  M393.018,430.078c-3.497,11.673-23.035,16.326-21.75,0C372.5,414.42,389.16,419.181,393.018,430.078z"/>
<path fill-rule="evenodd" clip-rule="evenodd" fill="#FFDEA7" stroke="#000000" stroke-width="2" stroke-linecap="square" stroke-miterlimit="10" d="  M234.768,385.83C220.127,430.406,214.884,342.554,234.768,385.83L234.768,385.83z"/>
<path fill-rule="evenodd" clip-rule="evenodd" fill="#FFDEA7" stroke="#000000" stroke-width="2" stroke-linecap="square" stroke-miterlimit="10" d="  M401.268,388.83c-3.533,10.301-21.955,15.333-20.25,0C382.645,374.195,397.312,379.007,401.268,388.83z"/>
<path fill-rule="evenodd" clip-rule="evenodd" fill="#FFDEA7" stroke="#000000" stroke-width="2" stroke-linecap="square" stroke-miterlimit="10" d="  M236.268,364.83c-3.923,9.886-18.626,14.619-20.25,0C214.322,349.558,232.752,354.414,236.268,364.83z"/>
<path fill-rule="evenodd" clip-rule="evenodd" fill="#FFDEA7" stroke="#000000" stroke-width="2" stroke-linecap="square" stroke-miterlimit="10" d="  M399.768,367.83C385.023,411.502,380.243,325.438,399.768,367.83L399.768,367.83z"/>
<path fill-rule="evenodd" clip-rule="evenodd" fill="#FFDEA7" stroke="#000000" stroke-width="2" stroke-linecap="square" stroke-miterlimit="10" d="  M241.518,343.83c-3.685,9.285-20.25,14.921-20.25,0S237.833,334.544,241.518,343.83z"/>
<path fill-rule="evenodd" clip-rule="evenodd" fill="#FFDEA7" stroke="#000000" stroke-width="2" stroke-linecap="square" stroke-miterlimit="10" d="  M397.518,346.83c-3.255,8.298-17.12,15.649-19.875,1.875C374.592,333.453,393.135,336.077,397.518,346.83z"/>
<path fill-rule="evenodd" clip-rule="evenodd" fill="#FFDEA7" stroke="#000000" stroke-width="2" stroke-linecap="square" stroke-miterlimit="10" d="  M246.018,325.83C226.042,357.006,229.534,293.012,246.018,325.83L246.018,325.83z"/>
<path fill-rule="evenodd" clip-rule="evenodd" fill="#FFDEA7" stroke="#000000" stroke-width="2" stroke-linecap="square" stroke-miterlimit="10" d="  M390.768,328.08C374.074,363.222,374.433,292.223,390.768,328.08L390.768,328.08z"/>
<path fill-rule="evenodd" clip-rule="evenodd" fill="#FFDEA7" stroke="#000000" stroke-width="2" stroke-linecap="square" stroke-miterlimit="10" d="  M257.268,310.08C239.629,344.646,239.629,275.513,257.268,310.08L257.268,310.08z"/>
<path fill-rule="evenodd" clip-rule="evenodd" fill="#FFDEA7" stroke="#000000" stroke-width="2" stroke-linecap="square" stroke-miterlimit="10" d="  M381.768,310.83C363.661,345.286,363.641,276.073,381.768,310.83L381.768,310.83z"/>
<path fill-rule="evenodd" clip-rule="evenodd" fill="#FFDEA7" stroke="#000000" stroke-width="2" stroke-linecap="square" stroke-miterlimit="10" d="  M240.768,408.33c-3.827,10.96-20.523,15.643-21.75,0C217.741,392.053,237.295,396.562,240.768,408.33z"/>
<path fill-rule="evenodd" clip-rule="evenodd" fill="#FFDEA7" stroke="#000000" stroke-width="2" stroke-linecap="square" stroke-miterlimit="10" d="  M399.018,409.83c-3.895,11.199-20.136,15.438-21.75,0C375.56,393.49,395.259,398.759,399.018,409.83z"/>
<path fill-rule="evenodd" clip-rule="evenodd" fill="#E0E1E2" stroke="#000000" stroke-width="2" stroke-linecap="square" stroke-miterlimit="10" d="  M252.018,300.33c8.173-9.808,15.566-19.768,25.5-27.75c1.25,1,2.5,2,3.75,3c-7.533,10.387-15.819,20.115-24,30  C255.518,303.83,253.768,302.08,252.018,300.33z"/>
<path fill-rule="evenodd" clip-rule="evenodd" fill="#E0E1E2" stroke="#000000" stroke-width="2" stroke-linecap="square" stroke-miterlimit="10" d="  M366.018,304.83c-8.856-9.999-25.253-19.997-19.5-32.25C354.846,283.057,369.091,294.952,366.018,304.83z"/>
<path fill-rule="evenodd" clip-rule="evenodd" fill="#E0E1E2" stroke="#000000" stroke-width="2" stroke-linecap="square" stroke-miterlimit="10" d="  M343.518,274.83c-17.75-1-35.5-2-53.25-3C305.205,273.75,334.143,282.292,343.518,274.83z"/>
<path fill-rule="evenodd" clip-rule="evenodd" fill="#E0E1E2" stroke="#000000" stroke-width="2" stroke-linecap="square" stroke-miterlimit="10" d="  M281.268,275.58c12.365-2.334,27.25-13.054,21.75-25.5C296.822,260.34,279.914,270.42,281.268,275.58z"/>
<path fill-rule="evenodd" clip-rule="evenodd" fill="#FFDEA7" stroke="#000000" stroke-width="2" stroke-linecap="square" stroke-miterlimit="10" d="  M435.77,580.828c-3.032,15.088-26.252,17.793-26.252,0C409.518,563.009,432.68,565.742,435.77,580.828z"/>
<path fill-rule="evenodd" clip-rule="evenodd" fill="#FFDEA7" stroke="#000000" stroke-width="2" stroke-linecap="square" stroke-miterlimit="10" d="  M460.52,577.078c-3.331,13.994-23.954,16.891-24.75,0C434.945,559.58,457.649,561.982,460.52,577.078z"/>
<path fill-rule="evenodd" clip-rule="evenodd" fill="#FFDEA7" stroke="#000000" stroke-width="2" stroke-linecap="square" stroke-miterlimit="10" d="  M411.768,574.078c-3.333,13.979-23.916,16.911-24.75,0C386.155,556.583,408.895,558.986,411.768,574.078z"/>
<path fill-rule="evenodd" clip-rule="evenodd" fill="#FFDEA7" stroke="#000000" stroke-width="2" stroke-linecap="square" stroke-miterlimit="10" d="  M390.768,558.328c-3.335,13.568-24.127,16.976-23.25,0C368.362,541.978,387.473,544.997,390.768,558.328z"/>
<path fill-rule="evenodd" clip-rule="evenodd" fill="#FFDEA7" stroke="#000000" stroke-width="2" stroke-linecap="square" stroke-miterlimit="10" d="  M480.77,562.828c-3.126,13.526-24.242,17.142-23.25,0C458.469,546.419,477.201,550.227,480.77,562.828z"/>
<path fill-rule="evenodd" clip-rule="evenodd" fill="#FFDEA7" stroke="#000000" stroke-width="2" stroke-linecap="square" stroke-miterlimit="10" d="  M496.52,544.828c-4.026,12.854-24,16.933-24,0S492.493,531.973,496.52,544.828z"/>
<path fill-rule="evenodd" clip-rule="evenodd" fill="#FFDEA7" stroke="#000000" stroke-width="2" stroke-linecap="square" stroke-miterlimit="10" d="  M377.268,540.328c-3.563,11.92-22.599,15.716-23.25,0C353.345,524.091,374.081,527.464,377.268,540.328z"/>
<path fill-rule="evenodd" clip-rule="evenodd" fill="#FFDEA7" stroke="#000000" stroke-width="2" stroke-linecap="square" stroke-miterlimit="10" d="  M362.268,522.328c-3.884,11.341-23.715,16.453-22.5,0C340.938,506.476,358.067,511.764,362.268,522.328z"/>
<path fill-rule="evenodd" clip-rule="evenodd" fill="#FFDEA7" stroke="#000000" stroke-width="2" stroke-linecap="square" stroke-miterlimit="10" d="  M505.52,524.578c-3.827,10.96-20.523,15.643-21.75,0C482.493,508.301,502.047,512.81,505.52,524.578z"/>
<path fill-rule="evenodd" clip-rule="evenodd" fill="#FFDEA7" stroke="#000000" stroke-width="2" stroke-linecap="square" stroke-miterlimit="10" d="  M348.018,480.328c-3.955,9.822-18.623,14.634-20.25,0C326.062,464.994,344.484,470.027,348.018,480.328z"/>
<path fill-rule="evenodd" clip-rule="evenodd" fill="#FFDEA7" stroke="#000000" stroke-width="2" stroke-linecap="square" stroke-miterlimit="10" d="  M513.77,483.328c-3.85,9.813-18.634,14.57-20.25,0C491.839,468.172,510.303,472.921,513.77,483.328z"/>
<path fill-rule="evenodd" clip-rule="evenodd" fill="#FFDEA7" stroke="#000000" stroke-width="2" stroke-linecap="square" stroke-miterlimit="10" d="  M348.768,458.578C329.559,500.284,331.193,415.568,348.768,458.578L348.768,458.578z"/>
<path fill-rule="evenodd" clip-rule="evenodd" fill="#FFDEA7" stroke="#000000" stroke-width="2" stroke-linecap="square" stroke-miterlimit="10" d="  M513.02,462.328c-3.995,9.606-18.608,14.688-20.25,0C491.038,446.837,509.479,452.355,513.02,462.328z"/>
<path fill-rule="evenodd" clip-rule="evenodd" fill="#FFDEA7" stroke="#000000" stroke-width="2" stroke-linecap="square" stroke-miterlimit="10" d="  M354.018,437.578C339.377,482.154,334.134,394.302,354.018,437.578L354.018,437.578z"/>
<path fill-rule="evenodd" clip-rule="evenodd" fill="#FFDEA7" stroke="#000000" stroke-width="2" stroke-linecap="square" stroke-miterlimit="10" d="  M510.02,440.578C494.599,485.349,490.164,396.934,510.02,440.578L510.02,440.578z"/>
<path fill-rule="evenodd" clip-rule="evenodd" fill="#FFDEA7" stroke="#000000" stroke-width="2" stroke-linecap="square" stroke-miterlimit="10" d="  M359.268,419.58C341.156,453.556,341.144,385.309,359.268,419.58L359.268,419.58z"/>
<path fill-rule="evenodd" clip-rule="evenodd" fill="#FFDEA7" stroke="#000000" stroke-width="2" stroke-linecap="square" stroke-miterlimit="10" d="  M504.02,421.83C485.767,456.821,485.769,386.834,504.02,421.83L504.02,421.83z"/>
<path fill-rule="evenodd" clip-rule="evenodd" fill="#FFDEA7" stroke="#000000" stroke-width="2" stroke-linecap="square" stroke-miterlimit="10" d="  M370.518,403.83C352.429,438.059,351.881,370.542,370.518,403.83L370.518,403.83z"/>
<path fill-rule="evenodd" clip-rule="evenodd" fill="#FFDEA7" stroke="#000000" stroke-width="2" stroke-linecap="square" stroke-miterlimit="10" d="  M494.27,404.58C475.656,439.304,476.132,370.629,494.27,404.58L494.27,404.58z"/>
<path fill-rule="evenodd" clip-rule="evenodd" fill="#FFDEA7" stroke="#000000" stroke-width="2" stroke-linecap="square" stroke-miterlimit="10" d="  M354.018,502.078c-4.102,11.025-20.894,15.52-22.5,0C329.856,486.027,349.993,490.946,354.018,502.078z"/>
<path fill-rule="evenodd" clip-rule="evenodd" fill="#FFDEA7" stroke="#000000" stroke-width="2" stroke-linecap="square" stroke-miterlimit="10" d="  M511.52,503.578c-3.496,11.673-23.031,16.327-21.75,0C490.999,487.917,507.661,492.68,511.52,503.578z"/>
<path fill-rule="evenodd" clip-rule="evenodd" fill="#E0E1E2" stroke="#000000" stroke-width="2" stroke-linecap="square" stroke-miterlimit="10" d="  M365.268,394.08c7.896-9.87,14.914-19.852,24.75-27.75c1.25,1,2.5,2,3.75,3c-7.436,10.25-15.381,20.079-23.25,30  C368.768,397.58,367.018,395.83,365.268,394.08z"/>
<path fill-rule="evenodd" clip-rule="evenodd" fill="#E0E1E2" stroke="#000000" stroke-width="2" stroke-linecap="square" stroke-miterlimit="10" d="  M478.52,398.58c-9.259-10.154-26.322-19.68-18.75-32.25C467.277,376.09,483.175,389.24,478.52,398.58z"/>
<path fill-rule="evenodd" clip-rule="evenodd" fill="#E0E1E2" stroke="#000000" stroke-width="2" stroke-linecap="square" stroke-miterlimit="10" d="  M456.02,368.58c-17.501-1-35.001-2-52.502-3C418.122,367.696,448.103,377.378,456.02,368.58z"/>
<path fill-rule="evenodd" clip-rule="evenodd" fill="#E0E1E2" stroke="#000000" stroke-width="2" stroke-linecap="square" stroke-miterlimit="10" d="  M393.768,369.33c12.366-2.334,27.254-13.054,21.75-25.5C409.271,354.156,392.649,365.024,393.768,369.33z"/>
</svg>