<svg xmlns="http://www.w3.org/2000/svg" xmlns:xlink="http://www.w3.org/1999/xlink" version="1.1" id="Layer_1" x="0px" y="0px" enable-background="new 0 0 822.05 841.89" xml:space="preserve" viewBox="205.15 248.61 404.16 346.78">
<path fill-rule="evenodd" clip-rule="evenodd" fill="#BCBEC0" stroke="#000000" stroke-width="2" stroke-linecap="square" stroke-miterlimit="10" d="  M347.897,590.64c37.724-77.178,75.446-154.355,113.17-231.534c4.933-10.092,43.131-116.443,68.332-95.466  c20.001,16.647-43.663,97.468-50.377,108.648C435.314,445.073,391.606,517.856,347.897,590.64z"/>
<path fill-rule="evenodd" clip-rule="evenodd" fill="#FFFFFF" stroke="#000000" stroke-width="2" stroke-linecap="square" stroke-miterlimit="10" d="  M497.149,315.39c2.712-15,8.536-30.187,20.25-40.5C518.672,291.236,509.895,305.675,497.149,315.39z"/>
<path fill-rule="evenodd" clip-rule="evenodd" fill="#BCBEC0" stroke="#000000" stroke-width="2" stroke-linecap="square" stroke-miterlimit="10" d="  M427.399,594.39c16.858-34.754,147.608-345.06,177.75-329.25C634.688,280.633,448.003,559.932,427.399,594.39z"/>
<path fill-rule="evenodd" clip-rule="evenodd" fill="#FFFFFF" stroke="#000000" stroke-width="2" stroke-linecap="square" stroke-miterlimit="10" d="  M576.649,318.39c2.188-15.294,7.687-30.099,19.5-40.5C597.896,293.812,588.551,308.233,576.649,318.39z"/>
<path fill-rule="evenodd" clip-rule="evenodd" fill="#BCBEC0" stroke="#000000" stroke-width="2" stroke-linecap="square" stroke-miterlimit="10" d="  M274.397,585.39c37.724-77.178,75.447-154.355,113.17-231.534c4.939-10.104,43.342-116.647,68.332-95.466  c19.464,16.497-44.1,97.21-50.939,108.648C361.439,439.823,317.918,512.606,274.397,585.39z"/>
<path fill-rule="evenodd" clip-rule="evenodd" fill="#FFFFFF" stroke="#000000" stroke-width="2" stroke-linecap="square" stroke-miterlimit="10" d="  M423.649,309.39c2.31-15.129,9.155-29.871,20.25-40.5C445.3,285.125,437.139,300.517,423.649,309.39z"/>
<path fill-rule="evenodd" clip-rule="evenodd" fill="#BCBEC0" stroke="#000000" stroke-width="2" stroke-linecap="square" stroke-miterlimit="10" d="  M206.147,579.39c17.269-35.419,146.051-344.341,177.75-329.25C412.232,263.63,226.518,545.322,206.147,579.39z"/>
<path fill-rule="evenodd" clip-rule="evenodd" fill="#FFFFFF" stroke="#000000" stroke-width="2" stroke-linecap="square" stroke-miterlimit="10" d="  M355.397,303.39c2.315-15.347,8.059-30.513,20.25-40.5C376.522,279.229,368.207,293.547,355.397,303.39z"/>
</svg>