<svg xmlns="http://www.w3.org/2000/svg" xmlns:xlink="http://www.w3.org/1999/xlink" version="1.1" id="Layer_1" x="0px" y="0px" enable-background="new 0 0 822.05 841.89" xml:space="preserve" viewBox="200.19 263.69 421.01 313.63">
<path fill-rule="evenodd" clip-rule="evenodd" fill="#6C5635" stroke="#000000" stroke-width="2" stroke-linecap="square" stroke-miterlimit="10" d="  M341.5,343.441c-20.272,2.234-39.104-1.964-54.797,10.711c-18.495,14.938-39.899,24.708-58.453,38.039  c-32.323,23.224-34.716,56.006-12.375,88.502c26.483,38.521,22.23,63.643,73.347,77.583c52.9,14.428,99.681,21.306,154.305,16.556  c44.541-3.873,92.372-12.051,123.723-46.139c25.102-27.293,58.633-75.705,52.125-114.752c-4.436-26.611-52.426-50.6-75.375-57  c-19.252-5.369-36.914-2.753-55.444-10.556c-23.464-9.879-48.492-14.194-73.931-14.194  C389.499,332.191,365.66,336.717,341.5,343.441z"/>
<path fill-rule="evenodd" clip-rule="evenodd" fill="#261A00" stroke="#000000" stroke-width="2" stroke-linecap="square" stroke-miterlimit="10" d="  M313,407.941c-29.393,25.464-32.694,60.725,6.75,76.502c56.913,22.766,125.495,21.096,184.917,9.777  c14.331-2.729,41.756-9.978,47.583-26.277c9.945-27.82-27.171-37.396-46.5-45.752C446.297,396.489,375.156,383.854,313,407.941z"/>
<path fill="none" stroke="#000000" stroke-width="2" stroke-linecap="square" stroke-miterlimit="10" d="M249.25,481.443  c4.723,16.573,19.756,28.011,36,32.25"/>
<path fill="none" stroke="#000000" stroke-width="2" stroke-linecap="square" stroke-miterlimit="10" d="M303.25,527.193  c38.06,25.596,80.882,46.838,127.5,48.75c-31.546-9.738-71.943-19.872-94.5-45.75"/>
<path fill="none" stroke="#000000" stroke-width="2" stroke-linecap="square" stroke-miterlimit="10" d="M212.5,475.443  c-6.93-20.946,3.06-41.646,17.25-57.002"/>
<path fill="none" stroke="#000000" stroke-width="2" stroke-linecap="square" stroke-miterlimit="10" d="M259.75,466.443  c-6.438-12.185-3.817-26.074,3.75-37.5"/>
<path fill="none" stroke="#000000" stroke-width="2" stroke-linecap="square" stroke-miterlimit="10" d="M277,425.193  c7.844-19.069,21.714-36.378,39.75-46.502"/>
<path fill="none" stroke="#000000" stroke-width="2" stroke-linecap="square" stroke-miterlimit="10" d="M591.25,443.193  c1.146,26.316-1.816,56.797-18.75,78"/>
<path fill="none" stroke="#000000" stroke-width="2" stroke-linecap="square" stroke-miterlimit="10" d="M540.25,503.943  c-12.236,17.253-32.918,42.352-57,36.75"/>
<path fill="none" stroke="#000000" stroke-width="2" stroke-linecap="square" stroke-miterlimit="10" d="M400,544.443  c29.46,10.556,60.304,16.753,91.5,12.75"/>
<path fill-rule="evenodd" clip-rule="evenodd" fill="#BCBEC0" stroke="#000000" stroke-width="2" stroke-linecap="square" stroke-miterlimit="10" d="  M527.5,383.941c49.401,24.326,9.063,125.419-42,105.002C434.299,468.471,475.096,368.421,527.5,383.941z"/>
<path fill-rule="evenodd" clip-rule="evenodd" fill="#BCBEC0" stroke="#000000" stroke-width="2" stroke-linecap="square" stroke-miterlimit="10" d="  M325,380.191c52.797-15.12,83.486,93.721,30.75,108.752C303.031,503.969,272.141,394.509,325,380.191z"/>
<path fill-rule="evenodd" clip-rule="evenodd" fill="#BCBEC0" stroke="#000000" stroke-width="2" stroke-linecap="square" stroke-miterlimit="10" d="  M375.25,432.693c-22.105-49.572,76.772-98.3,101.25-49.502C501.189,432.412,400.207,481.585,375.25,432.693z"/>
<path fill-rule="evenodd" clip-rule="evenodd" fill="#BCBEC0" stroke="#000000" stroke-width="2" stroke-linecap="square" stroke-miterlimit="10" d="  M377.5,478.443c-21.236-50.774,78.324-98.418,102-48.75C502.98,478.95,402.396,527.65,377.5,478.443z"/>
<path fill-rule="evenodd" clip-rule="evenodd" fill="#ED1C24" stroke="#000000" stroke-width="2" stroke-linecap="square" stroke-miterlimit="10" d="  M573.25,264.691c-3.25,19.25-6.5,38.5-9.75,57.75c-10.25-2.5-20.5-5-30.75-7.5c6.25,19,12.5,38,18.75,57  c16.25-10.75,32.5-21.5,48.75-32.25c-9-4.25-18-8.5-27-12.75c11-17.25,22-34.5,33-51.75  C595.25,271.691,584.25,268.191,573.25,264.691z"/>
</svg>