<svg xmlns="http://www.w3.org/2000/svg" xmlns:xlink="http://www.w3.org/1999/xlink" version="1.1" id="Layer_1" x="0px" y="0px" enable-background="new 0 0 822.05 841.89" xml:space="preserve" viewBox="190.17 238.64 440.09 365.93">
<path fill-rule="evenodd" clip-rule="evenodd" fill="#FFFFFF" stroke="#FFFFFF" stroke-linecap="square" stroke-miterlimit="10" d="  M628.5,602.89c-136.376,0-272.752,0-409.128,0c-6.613,0-27.372,4.433-27.372-3.924c0-29.033,0-58.066,0-87.1  c0-82.269,0-164.537,0-246.805c0-9.305-5.458-25.922,5.747-25.922c27.362,0,54.725,0,82.087,0c86.944,0,173.888,0,260.832,0  c26.32,0,52.641,0,78.961,0c15.06,0,8.873,12.02,8.873,25.922c0,82.268,0,164.536,0,246.805  C628.5,542.208,628.5,572.549,628.5,602.89z"/>
<path fill-rule="evenodd" clip-rule="evenodd" fill="#DEF2FD" stroke="#000000" stroke-width="2" stroke-linecap="square" stroke-miterlimit="10" d="  M388.5,383.89c28.769,51.975,54.392,124.724,109.125,156c47.596,27.198,73.062-44.095,81.375-77.25  c10.678-42.587,17.862-86.336,26.76-129.336c4.088-19.761-10.188-25.151-28.26-28.164c-38.16-6.36-75.828,7.242-112.212,16.463  C434.413,329.428,365.68,341.119,388.5,383.89z"/>
<path fill-rule="evenodd" clip-rule="evenodd" fill="#AF8977" stroke="#000000" stroke-width="2" stroke-linecap="square" stroke-miterlimit="10" d="  M372.75,358.39c-50.301,12.209-100.601,24.418-150.901,36.626c-29.537,7.169-16.591,23.531,6.151,24.124  c44.312,1.154,102.949-29.912,145.386-42.366c9.669-2.837,27.751,6.109,38.364,7.116c22.242,2.111,45.945-1.413,67.875-4.875  c25.379-4.007,195-60.43,104.625-77.625C516.614,288.521,422.498,310.31,372.75,358.39z"/>
<path fill-rule="evenodd" clip-rule="evenodd" fill="#DEF2FD" stroke="#000000" stroke-width="2" stroke-linecap="square" stroke-miterlimit="10" d="  M594.75,320.14c-10.602,32.455-200.338,74.163-207.75,42C379.602,330.041,571.057,295.538,594.75,320.14z"/>
<path fill="none" stroke="#000000" stroke-width="2" stroke-linecap="square" stroke-miterlimit="10" d="M412.5,430.39  c66.988-1.604,129.862-18.383,184.5-57.75"/>
<path fill="none" stroke="#000000" stroke-width="2" stroke-linecap="square" stroke-miterlimit="10" d="M428.25,461.14  c53.684,11.877,117.412-10.586,159.75-43.5"/>
<path fill="none" stroke="#000000" stroke-width="2" stroke-linecap="square" stroke-miterlimit="10" d="M458.25,503.89  c39.611,4.091,95.854-7.185,120.75-41.25"/>
<path fill="none" stroke="#000000" stroke-width="2" stroke-linecap="square" stroke-miterlimit="10" d="M439.5,385.39  c12.19,43.715,35.63,142.947,85.5,159"/>
<path fill="none" stroke="#000000" stroke-width="2" stroke-linecap="square" stroke-miterlimit="10" d="M543.75,364.39  c3.113,46.375,18.143,135.061-11.625,174.75c-9.958,13.277-45.338-139.888-48.375-158.25"/>
</svg>