<svg xmlns="http://www.w3.org/2000/svg" xmlns:xlink="http://www.w3.org/1999/xlink" version="1.1" id="Layer_1" x="0px" y="0px" enable-background="new 0 0 822.05 841.89" xml:space="preserve" viewBox="302.43 336 214.69 177.54">
<path fill-rule="evenodd" clip-rule="evenodd" fill="#F8E30D" stroke="#000000" stroke-width="1.25" stroke-linecap="square" stroke-miterlimit="10" d="  M473.875,437.265c9.359,11.158,48.439,56.521,36,72c-5.62,6.993-41.25,3.556-41.25-7.176  C468.625,484.654,461.342,448.628,473.875,437.265z"/>
<path fill-rule="evenodd" clip-rule="evenodd" fill="#F2DDC4" stroke="#000000" stroke-width="1.25" stroke-linecap="square" stroke-miterlimit="10" d="  M449.125,433.515c-9.332-2.758-17.313-16.605-25.102-16.383c-22.065,0.63-22.742,7.83-41.648,14.133  c-20.332,6.777-24.417,32.25,1.464,32.25C425.575,463.515,437.947,474.162,449.125,433.515z"/>
<path fill-rule="evenodd" clip-rule="evenodd" fill="#F2DDC4" stroke="#000000" stroke-width="1.25" stroke-linecap="square" stroke-miterlimit="10" d="  M385.375,402.015C393.324,435.18,353.925,388.109,385.375,402.015L385.375,402.015z"/>
<path fill-rule="evenodd" clip-rule="evenodd" fill="#F2DDC4" stroke="#000000" stroke-width="1.25" stroke-linecap="square" stroke-miterlimit="10" d="  M458.125,390.015C443.907,421.646,443.907,358.385,458.125,390.015L458.125,390.015z"/>
<path fill-rule="evenodd" clip-rule="evenodd" fill="#F2DDC4" stroke="#000000" stroke-width="1.25" stroke-linecap="square" stroke-miterlimit="10" d="  M370.375,379.515c4.987,42.121,67.252,71.501,77.25,18.75C461.07,327.331,362.508,313.038,370.375,379.515z"/>
<path fill-rule="evenodd" clip-rule="evenodd" fill="#7A2A25" stroke="#000000" stroke-linecap="square" stroke-miterlimit="10" d="  M436.375,399.765c-7.352,14.383-17.604,21.645-30,9C416.873,408.1,427.061,404.818,436.375,399.765z"/>
<path fill-rule="evenodd" clip-rule="evenodd" d="M405.625,387.765c-2.077,0.891-0.174,6.431-5.25,2.25  C400.836,383.465,403.544,388.658,405.625,387.765z"/>
<path fill-rule="evenodd" clip-rule="evenodd" d="M428.875,381.765c-1.445,0.443,0.333,5.069-4.5,3  C422.495,377.539,426.266,382.565,428.875,381.765z"/>
<path fill="none" stroke="#000000" stroke-linecap="square" stroke-miterlimit="10" d="M414.627,394.515  c3.219,1.59,5.754,0.88,7.498-2.25"/>
<path fill="none" stroke="#000000" stroke-width="0.75" stroke-linecap="square" stroke-miterlimit="10" d="M395.875,391.515  c3.404-5.167,8.12-7.02,13.5-4.5"/>
<path fill="none" stroke="#000000" stroke-width="0.75" stroke-linecap="square" stroke-miterlimit="10" d="M433.375,381.015  c-5.273-2.4-10.148-1.024-13.5,3.75"/>
<path fill-rule="evenodd" clip-rule="evenodd" fill="#F8E30D" stroke="#000000" stroke-width="1.25" stroke-linecap="square" stroke-miterlimit="10" d="  M350.125,509.265c44.25,0,88.5,0,132.75,0c-5.752-17.92,1.628-68.648-19.875-77.25c-22.254-8.901-19.412,17.298-39.375,20.625  c-25.868,4.312-24.098-21.614-41.25-25.125c-23.163-4.74-60.968,41.191-75,52.5c20.775,24.484,17.917,27.217,43.5,6.75  C351.323,493.998,351.565,502.079,350.125,509.265z"/>
<path fill-rule="evenodd" clip-rule="evenodd" fill="#F2DDC4" stroke="#000000" stroke-width="1.25" stroke-linecap="square" stroke-miterlimit="10" d="  M426.625,474.765c0.63-16.949-16.879-14.901-32.25-9.75c1.913-4.758,2.276-13.015,3.75-16.5  C317.146,496.553,432.505,499.529,426.625,474.765z"/>
<path fill-rule="evenodd" clip-rule="evenodd" fill="#E12B32" d="M423.625,467.265l-21.75,2.25L423.625,467.265z"/>
<line fill="none" stroke="#000000" stroke-width="1.25" stroke-linecap="square" stroke-miterlimit="10" x1="423.625" y1="467.265" x2="401.875" y2="469.515"/>
<path fill-rule="evenodd" clip-rule="evenodd" fill="#E12B32" d="M426.625,474.765l-23.25,0.75L426.625,474.765z"/>
<line fill="none" stroke="#000000" stroke-width="1.25" stroke-linecap="square" stroke-miterlimit="10" x1="426.625" y1="474.765" x2="403.375" y2="475.515"/>
<path fill-rule="evenodd" clip-rule="evenodd" fill="#E12B32" d="M425.125,483.015l-20.25,0.75L425.125,483.015z"/>
<line fill="none" stroke="#000000" stroke-width="1.25" stroke-linecap="square" stroke-miterlimit="10" x1="425.125" y1="483.015" x2="404.875" y2="483.765"/>
<path fill-rule="evenodd" clip-rule="evenodd" fill="#F8E30D" stroke="#000000" stroke-width="1.25" stroke-linecap="square" stroke-miterlimit="10" d="  M380.875,463.515c-17.602,1.144-66.937-2.159-75.75,19.875c-15.802,39.506,63.735,12.753,77.25,10.125  C376.91,484.163,376.524,473.417,380.875,463.515z"/>
<path fill-rule="evenodd" clip-rule="evenodd" fill="#F2DDC4" stroke="#000000" stroke-width="1.25" stroke-linecap="square" stroke-miterlimit="10" d="  M481.375,444.765C484.938,485.21,453.225,415.305,481.375,444.765L481.375,444.765z"/>
<path fill-rule="evenodd" clip-rule="evenodd" fill="#00AD36" stroke="#000000" stroke-linecap="square" stroke-miterlimit="10" d="  M479.125,438.015c-4.014-23.647,16.361-36.689,37.5-38.25C509.895,414.036,494.994,449.529,479.125,438.015z"/>
<path fill="none" stroke="#000000" stroke-linecap="square" stroke-miterlimit="10" d="M482.875,436.515  c3.709-11.106,10.945-20.74,21.75-25.5"/>
<path fill-rule="evenodd" clip-rule="evenodd" fill="#00AD36" stroke="#000000" stroke-linecap="square" stroke-miterlimit="10" d="  M470.875,483.765c0.784,3.779-3.923,6.282,3,6c10.645-33.549,8.731-70.687,3-105C464.139,407.815,478.958,454.56,470.875,483.765z"/>
<path fill-rule="evenodd" clip-rule="evenodd" fill="#E12B32" stroke="#000000" stroke-linecap="square" stroke-miterlimit="10" d="  M471.625,367.515c-2.65-12.336,11.997-32.259,21-15.75C499.814,364.947,476.642,370.913,471.625,367.515z"/>
<path fill-rule="evenodd" clip-rule="evenodd" fill="#E12B32" stroke="#000000" stroke-linecap="square" stroke-miterlimit="10" d="  M470.125,372.015c-18.756,0.19-20.385-6.821-10.875-19.5C469.68,338.608,475.634,366.712,470.125,372.015z"/>
<path fill-rule="evenodd" clip-rule="evenodd" fill="#E12B32" stroke="#000000" stroke-linecap="square" stroke-miterlimit="10" d="  M474.625,373.515c-4.238,16.081-14.682,22.175-25.125,8.25C439.227,368.067,471.56,369.197,474.625,373.515z"/>
<path fill-rule="evenodd" clip-rule="evenodd" fill="#E12B32" stroke="#000000" stroke-linecap="square" stroke-miterlimit="10" d="  M476.875,369.015c7.564-6.5,27.426-13.529,23.25,4.5C496.014,391.269,477.379,376.019,476.875,369.015z"/>
<path fill-rule="evenodd" clip-rule="evenodd" fill="#E12B32" stroke="#000000" stroke-linecap="square" stroke-miterlimit="10" d="  M477.625,371.265c16.084,7.812,16.896,18.368,0,24C460.518,400.967,470.82,372.663,477.625,371.265z"/>
<path fill-rule="evenodd" clip-rule="evenodd" fill="#F6F036" stroke="#000000" stroke-linecap="square" stroke-miterlimit="10" d="  M480.625,368.265C466.621,380.039,462.862,367.48,480.625,368.265L480.625,368.265z"/>
<path fill-rule="evenodd" clip-rule="evenodd" fill="#F2DDC4" stroke="#000000" stroke-width="1.25" stroke-linecap="square" stroke-miterlimit="10" d="  M466.375,456.015c-2.03,18.768,17.003,23.263,21,4.5C491.407,441.587,471.974,438.17,466.375,456.015z"/>
</svg>