<svg xmlns="http://www.w3.org/2000/svg" xmlns:xlink="http://www.w3.org/1999/xlink" version="1.1" id="Layer_1" x="0px" y="0px" enable-background="new 0 0 822.05 841.89" xml:space="preserve" viewBox="303.5 341.65 212.88 162.99">
<path fill-rule="evenodd" clip-rule="evenodd" fill="#D2D1D2" stroke="#000000" stroke-width="1.25" stroke-linecap="square" stroke-miterlimit="10" d="  M444.375,474.015c-8.537-2.2-13.418-7.561-21-11.25c-17.661-8.594-21.355-10.276-45.861-9.806  c-22.427,0.432-48.046,31.704-55.389,50.306c25.806,0,51.611,0,77.417,0C434.237,503.265,434.09,507.443,444.375,474.015z"/>
<path fill-rule="evenodd" clip-rule="evenodd" fill="#D2D1D2" stroke="#000000" stroke-width="1.25" stroke-linecap="square" stroke-miterlimit="10" d="  M439.125,467.265c-6.153,63.899-119.642-50.562-135,36.75c58.5,0,117,0,175.5,0C474.27,484.298,459.471,470.163,439.125,467.265z"/>
<path fill-rule="evenodd" clip-rule="evenodd" fill="#D2D1D2" stroke="#000000" stroke-width="1.25" stroke-linecap="square" stroke-miterlimit="10" d="  M330.375,387.765c-3.849,34.097,22.082,72.206,57,78c50.462,8.373,60.092-52.78,56.25-90  C408.317,391.208,368.108,397.067,330.375,387.765z"/>
<path fill-rule="evenodd" clip-rule="evenodd" fill="#D2D1D2" stroke="#000000" stroke-width="1.25" stroke-linecap="square" stroke-miterlimit="10" d="  M445.125,372.015c11.042,15.268-0.044,20.962-12,28.5c-20.738,13.075-40.854-2.973-37.889,28.167  c3.931,41.279-27.274,64.632-64.111,31.833C268.604,404.848,381.469,287.304,445.125,372.015z"/>
<path fill-rule="evenodd" clip-rule="evenodd" fill="#EDCBA6" d="M439.875,413.265c20.211,13.083,17.092,34.191-9,25.5  C433.875,430.265,436.875,421.765,439.875,413.265z"/>
<path fill="none" stroke="#000000" stroke-width="1.25" stroke-linecap="square" stroke-miterlimit="10" d="M439.875,413.265  c20.211,13.083,17.092,34.191-9,25.5"/>
<path fill-rule="evenodd" clip-rule="evenodd" fill="#FB0F0C" stroke="#000000" stroke-width="1.5" stroke-linecap="square" stroke-miterlimit="10" d="  M487.875,396.015c9.25-7.75,18.5-15.5,27.75-23.25c-11.778-17.587-23.361,2.911-36,13.5c-2-2.75-4-5.5-6-8.25  c-5.75,12.25-11.5,24.5-17.25,36.75c12.75-3.75,25.5-7.5,38.25-11.25C492.375,401.015,490.125,398.515,487.875,396.015z"/>
</svg>