<svg xmlns="http://www.w3.org/2000/svg" xmlns:xlink="http://www.w3.org/1999/xlink" version="1.1" id="Layer_1" x="0px" y="0px" enable-background="new 0 0 822.05 841.89" xml:space="preserve" viewBox="331.75 361.64 156.75 120.76">
<path fill-rule="evenodd" clip-rule="evenodd" d="M364.75,471.14c-5.102,11.531-32.781,18.133-33,0  C331.53,452.919,359.845,459.34,364.75,471.14z"/>
<path fill-rule="evenodd" clip-rule="evenodd" d="M364.75,471.89c-7.071-9.244-7.071-64.255,0-73.5  C364.75,422.89,364.75,447.39,364.75,471.89z"/>
<path fill-rule="evenodd" clip-rule="evenodd" d="M364,398.39c4.275,8.448,11.1,15.088,19.5,18.75  C368.701,421.957,358.805,415.381,364,398.39z"/>
<path fill-rule="evenodd" clip-rule="evenodd" d="M420.25,436.64c-5.076,11.857-33.25,18.004-33.75,0  C385.979,417.929,415.348,423.874,420.25,436.64z"/>
<path fill-rule="evenodd" clip-rule="evenodd" d="M420.25,437.39c-5.658-15.598-5.658-60.152,0-75.75  C420.25,386.89,420.25,412.14,420.25,437.39z"/>
<path fill-rule="evenodd" clip-rule="evenodd" d="M419.5,361.64c4.405,8.75,11.381,15.496,20.25,19.5  C424.3,386.144,414.118,379.321,419.5,361.64z"/>
<path fill-rule="evenodd" clip-rule="evenodd" d="M469.75,468.89c-5.123,10.573-32.979,18.228-33.75,0  C435.217,450.373,464.976,457.375,469.75,468.89z"/>
<path fill-rule="evenodd" clip-rule="evenodd" d="M469.75,469.64c-7.106-9.433-7.106-64.817,0-74.25  C469.75,420.14,469.75,444.89,469.75,469.64z"/>
<path fill-rule="evenodd" clip-rule="evenodd" d="M469,395.39c4.164,8.646,10.927,15.445,19.5,19.5  C473.204,419.35,463.774,412.71,469,395.39z"/>
</svg>