<svg xmlns="http://www.w3.org/2000/svg" xmlns:xlink="http://www.w3.org/1999/xlink" version="1.1" id="Layer_1" x="0px" y="0px" enable-background="new 0 0 822.05 841.89" xml:space="preserve" viewBox="305.06 345.39 211.13 153.5">
<path fill-rule="evenodd" clip-rule="evenodd" fill="#724211" stroke="#000000" stroke-width="1.25" stroke-linecap="square" stroke-miterlimit="10" d="  M390.312,496.769c14.287-57.307-21.444-119.177,52.502-136.5c-16.946,10.329-44.28,15.735-42.752,40.5  c7.099-4.366,16.178-6.615,23.252-10.5c-18.545,7.79-25.969,20.321-20.252,39.75c12.915-18.41,29.058-36.9,50.252-45.75  c-10.759,6.56-20.695,14.602-27,25.5c9.393-1.88,18.932-2.896,28.5-3c-21.948,5.448-41.714,8.854-48.002,33.75  c24.021-1.309,55.292-33.721,78.752-44.25c-7.682,5.669-15.726,10.947-24,15.75c5.426-0.158,11.111,0.613,16.5,0  c-23.695,0.156-44.364,16.77-60,33c19.782,3.266,40.545-9.559,59.25-15.75c-12.357,5.252-24.61,10.762-36.75,16.5  c8.895,6.27,19.403,9.971,30,12.75c-15.389-3.535-29.525-8.344-45.375-7.125c-24.59,1.892-12.997,26.671-11.627,46.875  C406.632,497.682,396.95,498.86,390.312,496.769z"/>
<path fill-rule="evenodd" clip-rule="evenodd" fill="#724211" stroke="#000000" stroke-width="1.25" stroke-linecap="square" stroke-miterlimit="10" d="  M463.063,441.269c1.941,4.056,6.697,3.021,5.25,9.75C460.783,449.304,465.206,445.746,463.063,441.269z"/>
<path fill-rule="evenodd" clip-rule="evenodd" fill="#F8130D" stroke="#000000" stroke-width="1.25" stroke-linecap="square" stroke-miterlimit="10" d="  M473.563,421.769c3.806,4.282,9.139,0.788,7.5,8.25C471.843,430.583,477.014,425.652,473.563,421.769z"/>
<path fill-rule="evenodd" clip-rule="evenodd" fill="#F8130D" stroke="#000000" stroke-width="1.25" stroke-linecap="square" stroke-miterlimit="10" d="  M418.813,400.019c5.944,3.072,10.854,1.409,10.5,9.75C418.855,410.343,421.711,405.003,418.813,400.019z"/>
<path fill-rule="evenodd" clip-rule="evenodd" fill="#F8130D" stroke="#000000" stroke-width="1.25" stroke-linecap="square" stroke-miterlimit="10" d="  M508.063,472.019c2.486,1.518,5.54-1.578,7.5,3.75C509.48,479.644,511.787,474.292,508.063,472.019z"/>
<path fill-rule="evenodd" clip-rule="evenodd" fill="#F8130D" stroke="#000000" stroke-width="1.25" stroke-linecap="square" stroke-miterlimit="10" d="  M428.563,417.269c2,2.899,5.615,1.351,4.5,6C427.689,422.991,430.577,420.188,428.563,417.269z"/>
<path fill-rule="evenodd" clip-rule="evenodd" fill="#F8130D" stroke="#000000" stroke-width="1.25" stroke-linecap="square" stroke-miterlimit="10" d="  M475.063,439.019c4.87,2.08,8.582-3.195,10.5,5.25C476.883,448.608,479.893,442.17,475.063,439.019z"/>
<path fill-rule="evenodd" clip-rule="evenodd" fill="#F8130D" stroke="#000000" stroke-width="1.25" stroke-linecap="square" stroke-miterlimit="10" d="  M427.063,376.019c1.405,2.245,5.264,1.185,4.5,6C425.236,382.159,429.069,379.224,427.063,376.019z"/>
<path fill-rule="evenodd" clip-rule="evenodd" fill="#F8130D" stroke="#000000" stroke-width="1.25" stroke-linecap="square" stroke-miterlimit="10" d="  M437.563,380.519c3.97,1.466,5.284-3.496,7.5,2.25C440.002,387.586,441.336,381.912,437.563,380.519z"/>
<path fill-rule="evenodd" clip-rule="evenodd" fill="#724211" stroke="#000000" stroke-width="1.25" stroke-linecap="square" stroke-miterlimit="10" d="  M489.313,442.019c3.97,1.466,5.284-3.495,7.5,2.25C491.752,449.086,493.086,443.412,489.313,442.019z"/>
<path fill-rule="evenodd" clip-rule="evenodd" fill="#F8130D" stroke="#000000" stroke-width="1.25" stroke-linecap="square" stroke-miterlimit="10" d="  M488.563,454.769c3.555,0.872,4.713-4.263,7.5,1.5C491.416,461.427,492.461,455.724,488.563,454.769z"/>
<path fill-rule="evenodd" clip-rule="evenodd" fill="#F8130D" stroke="#000000" stroke-width="1.25" stroke-linecap="square" stroke-miterlimit="10" d="  M463.063,463.769c2.121,3.617,6.88,2.177,5.25,9C461.644,471.061,465.568,468.042,463.063,463.769z"/>
<path fill-rule="evenodd" clip-rule="evenodd" fill="#F8130D" stroke="#000000" stroke-width="1.25" stroke-linecap="square" stroke-miterlimit="10" d="  M430.813,444.269C441.777,451.068,439.845,449.87,430.813,444.269L430.813,444.269z"/>
<path fill-rule="evenodd" clip-rule="evenodd" fill="#F8130D" stroke="#000000" stroke-width="1.25" stroke-linecap="square" stroke-miterlimit="10" d="  M442.813,461.519c2.986,0.852,4.499-4.328,6.75,1.5C445.121,468.115,445.927,462.407,442.813,461.519z"/>
<path fill-rule="evenodd" clip-rule="evenodd" fill="#724211" stroke="#000000" stroke-width="1.25" stroke-linecap="square" stroke-miterlimit="10" d="  M460.813,415.769c2.189,3.98,6.938,2.819,6,9.75C458.773,424.199,463.473,420.604,460.813,415.769z"/>
<path fill-rule="evenodd" clip-rule="evenodd" fill="#724211" stroke="#000000" stroke-width="1.25" stroke-linecap="square" stroke-miterlimit="10" d="  M477.313,460.019c3.779,1.454,4.951-3.2,7.5,2.25C480.079,466.87,481.104,461.478,477.313,460.019z"/>
<path fill-rule="evenodd" clip-rule="evenodd" fill="#724211" stroke="#000000" stroke-width="1.25" stroke-linecap="square" stroke-miterlimit="10" d="  M440.563,424.769c1.707,2.439,5.496,1.418,4.5,6C439.677,430.49,442.594,427.672,440.563,424.769z"/>
<path fill-rule="evenodd" clip-rule="evenodd" fill="#724211" stroke="#000000" stroke-width="1.25" stroke-linecap="square" stroke-miterlimit="10" d="  M427.063,436.769c3.303,0.826,4.866-3.646,7.5,1.5C430.22,443.372,430.863,437.719,427.063,436.769z"/>
<path fill-rule="evenodd" clip-rule="evenodd" fill="#724211" stroke="#000000" stroke-width="1.25" stroke-linecap="square" stroke-miterlimit="10" d="  M451.063,445.769c3.43,3.647,7.807-0.113,7.5,7.5C450.933,454.494,454.592,449.522,451.063,445.769z"/>
<path fill-rule="evenodd" clip-rule="evenodd" fill="#724211" stroke="#000000" stroke-width="1.25" stroke-linecap="square" stroke-miterlimit="10" d="  M449.563,429.269c1.229,3.009,5.59,3.49,4.5,9C447.934,436.911,451.449,433.885,449.563,429.269z"/>
<path fill-rule="evenodd" clip-rule="evenodd" fill="#724211" stroke="#000000" stroke-width="1.25" stroke-linecap="square" stroke-miterlimit="10" d="  M504.313,457.019c3.555,0.872,4.713-4.263,7.5,1.5C506.898,463.874,508.164,457.963,504.313,457.019z"/>
<path fill="none" stroke="#000000" stroke-width="1.25" stroke-linecap="square" stroke-miterlimit="10" d="M397.062,346.019  c17.386,22.445,35.672,49.565,63.752,59.25"/>
<path fill="none" stroke="#000000" stroke-width="1.25" stroke-linecap="square" stroke-miterlimit="10" d="M380.562,380.519  c7.376,14.254,18.801,24.095,33,31.5"/>
<path fill="none" stroke="#000000" stroke-width="1.25" stroke-linecap="square" stroke-miterlimit="10" d="M372.312,347.519  c7.324,15.16,15.09,33.58,29.25,43.5"/>
<path fill="none" stroke="#000000" stroke-width="1.25" stroke-linecap="square" stroke-miterlimit="10" d="M383.562,443.519  c17.961,14.562,39.133,28.078,63.002,27.75"/>
<path fill="none" stroke="#000000" stroke-width="1.25" stroke-linecap="square" stroke-miterlimit="10" d="M442.063,475.019  c5.75,0.833,11.549,0.574,17.25-0.75"/>
<path fill="none" stroke="#000000" stroke-width="1.25" stroke-linecap="square" stroke-miterlimit="10" d="M395.562,424.769  c7.856,8.458,18.5,13.482,30.002,15"/>
<path fill-rule="evenodd" clip-rule="evenodd" fill="#FFFFFF" stroke="#000000" stroke-linecap="square" stroke-miterlimit="10" d="  M391.812,493.019c-23.506,0-47.012,0-70.518,0c-10.36,0-13.146-49.858-6.732-57c6.503-7.24,59.741,0,70.518,0  C399.342,436.019,391.812,480.111,391.812,493.019z"/>
<path fill-rule="evenodd" clip-rule="evenodd" fill="#FFFFFF" stroke="#000000" stroke-linecap="square" stroke-miterlimit="10" d="  M382.812,496.769c-25.75,0-51.5,0-77.25,0c0.883-7.459,3.886-57,8.549-57c25.15,0,50.3,0,75.451,0  C387.312,458.769,385.062,477.769,382.812,496.769z"/>
<path fill-rule="evenodd" clip-rule="evenodd" d="M359.562,448.019C358.987,443.531,358.884,442.724,359.562,448.019  L359.562,448.019z"/>
<path fill-rule="evenodd" clip-rule="evenodd" d="M340.812,448.019C340.237,443.531,340.134,442.724,340.812,448.019  L340.812,448.019z"/>
<path fill-rule="evenodd" clip-rule="evenodd" d="M378.312,448.019C377.737,443.531,377.634,442.724,378.312,448.019  L378.312,448.019z"/>
<path fill-rule="evenodd" clip-rule="evenodd" d="M322.062,448.019C321.487,443.531,321.384,442.724,322.062,448.019  L322.062,448.019z"/>
<path fill-rule="evenodd" clip-rule="evenodd" d="M322.062,432.269c-0.176,4.92-5.846,8.505,0.75,14.25  C321.416,440.034,322.309,434.353,322.062,432.269z"/>
<path fill-rule="evenodd" clip-rule="evenodd" d="M340.062,431.519c-0.128,5.998-6.202,9.229,0.75,15  c-0.85-3.941,1.018-12.07,0.75-10.5C345.501,434.268,339.96,433.671,340.062,431.519z"/>
<path fill-rule="evenodd" clip-rule="evenodd" d="M359.562,431.519c-0.188,5.674-6.066,9.424,0.75,15  C358.605,439.501,359.633,434.816,359.562,431.519z"/>
<path fill-rule="evenodd" clip-rule="evenodd" d="M377.562,431.519c-0.066,6.313-5.343,10.26,1.5,15  C377.008,438.883,377.48,434.701,377.562,431.519z"/>
<path fill="none" stroke="#000000" stroke-width="0.5" stroke-linecap="square" stroke-miterlimit="10" d="M379.062,490.769  c1.25-9.5,2.5-19,3.75-28.5c-18.032,0-36.064,0-54.096,0c-21.126,0-15.93,7.796-18.654,28.5  C333.062,490.769,356.062,490.769,379.062,490.769z"/>
<path fill-rule="evenodd" clip-rule="evenodd" d="M373.062,462.269l-3.75,28.5L373.062,462.269z"/>
<line fill="none" stroke="#000000" stroke-width="0.5" stroke-linecap="square" stroke-miterlimit="10" x1="373.062" y1="462.269" x2="369.312" y2="490.769"/>
<path fill-rule="evenodd" clip-rule="evenodd" d="M363.312,462.269l-3.75,28.5L363.312,462.269z"/>
<line fill="none" stroke="#000000" stroke-width="0.5" stroke-linecap="square" stroke-miterlimit="10" x1="363.312" y1="462.269" x2="359.562" y2="490.769"/>
<path fill-rule="evenodd" clip-rule="evenodd" d="M353.562,462.269l-3.75,28.5L353.562,462.269z"/>
<line fill="none" stroke="#000000" stroke-width="0.5" stroke-linecap="square" stroke-miterlimit="10" x1="353.562" y1="462.269" x2="349.812" y2="490.769"/>
<path fill-rule="evenodd" clip-rule="evenodd" d="M343.812,462.269l-4.5,28.5L343.812,462.269z"/>
<line fill="none" stroke="#000000" stroke-width="0.5" stroke-linecap="square" stroke-miterlimit="10" x1="343.812" y1="462.269" x2="339.312" y2="490.769"/>
<path fill-rule="evenodd" clip-rule="evenodd" d="M334.062,462.269l-4.5,28.5L334.062,462.269z"/>
<line fill="none" stroke="#000000" stroke-width="0.5" stroke-linecap="square" stroke-miterlimit="10" x1="334.062" y1="462.269" x2="329.562" y2="490.769"/>
<path fill-rule="evenodd" clip-rule="evenodd" d="M324.312,462.269l-4.5,28.5L324.312,462.269z"/>
<line fill="none" stroke="#000000" stroke-width="0.5" stroke-linecap="square" stroke-miterlimit="10" x1="324.312" y1="462.269" x2="319.812" y2="490.769"/>
<line fill="none" stroke="#000000" stroke-width="0.5" stroke-linecap="square" stroke-miterlimit="10" x1="313.062" y1="469.769" x2="382.062" y2="469.769"/>
<line fill="none" stroke="#000000" stroke-width="0.5" stroke-linecap="square" stroke-miterlimit="10" x1="312.312" y1="476.519" x2="381.312" y2="476.519"/>
<line fill="none" stroke="#000000" stroke-width="0.5" stroke-linecap="square" stroke-miterlimit="10" x1="311.562" y1="483.269" x2="380.562" y2="483.269"/>
<text transform="matrix(1 0 0 1 314.5791 460.769)" font-family="'MyriadPro-Regular'" font-size="9">S  M  T  W  Th  F  S</text>
</svg>