<svg xmlns="http://www.w3.org/2000/svg" xmlns:xlink="http://www.w3.org/1999/xlink" version="1.1" id="Layer_1" x="0px" y="0px" enable-background="new 0 0 822.05 841.89" xml:space="preserve" viewBox="201.8 274.93 416.53 296.54">
<path fill-rule="evenodd" clip-rule="evenodd" fill="#C59C68" stroke="#000000" stroke-width="2" stroke-linecap="square" stroke-miterlimit="10" d="  M321.25,435.416c15.124-18.71,45.285-45.288,72-43.5c23.502,1.573,37.547,20.206,29.25,42.75  C404.389,483.876,292.594,469.954,321.25,435.416z"/>
<path fill-rule="evenodd" clip-rule="evenodd" fill="#C59C68" stroke="#000000" stroke-width="2" stroke-linecap="square" stroke-miterlimit="10" d="  M218.5,526.916c15.906-18.293,44.936-45.169,72-43.5c23.684,1.461,37.962,19.898,29.25,42.75  C301.128,575.012,189.88,561.41,218.5,526.916z"/>
<path fill-rule="evenodd" clip-rule="evenodd" fill="#C59C68" stroke="#000000" stroke-width="2" stroke-linecap="square" stroke-miterlimit="10" d="  M350.5,315.416c21.113-27.818,126.201-72.103,101.25-1.5C433.642,365.156,321.782,347.174,350.5,315.416z"/>
<path fill-rule="evenodd" clip-rule="evenodd" fill="#C59C68" stroke="#000000" stroke-width="2" stroke-linecap="square" stroke-miterlimit="10" d="  M397,469.166c16.309-18.755,44.338-45.244,72-43.5c24.07,1.518,37.413,19.356,29.25,42C479.888,518.599,368.573,502.423,397,469.166  z"/>
<path fill-rule="evenodd" clip-rule="evenodd" fill="#C59C68" stroke="#000000" stroke-width="2" stroke-linecap="square" stroke-miterlimit="10" d="  M497.5,416.666c21.269-28.023,127.269-72.143,101.25-1.5C580.326,465.187,469.206,448.978,497.5,416.666z"/>
<path fill-rule="evenodd" clip-rule="evenodd" fill="#C59C68" stroke="#000000" stroke-width="2" stroke-linecap="square" stroke-miterlimit="10" d="  M280.75,355.166c16.754,21.604,46.61,49.667,76.5,48c15.295-0.853,43.283-14.043,35.25-34.125  c-10.404-26.009-50.994-37.537-75-41.625C300.013,324.438,240.839,327.488,280.75,355.166z"/>
<path fill-rule="evenodd" clip-rule="evenodd" fill="#C59C68" stroke="#000000" stroke-width="2" stroke-linecap="square" stroke-miterlimit="10" d="  M312.25,385.916c-26.316,14.199-58.767,34.871-63.375,67.125c-2.041,14.284,5.232,42.315,25.125,39  c27.811-4.635,47.979-40.348,57.75-63.375C339.367,410.715,349.648,355.489,312.25,385.916z"/>
<path fill-rule="evenodd" clip-rule="evenodd" fill="#C59C68" stroke="#000000" stroke-width="2" stroke-linecap="square" stroke-miterlimit="10" d="  M267.25,343.166c-25.885,14.304-59.519,34.879-64.125,67.125c-2.021,14.148,5.33,43.034,25.5,39  c27.616-5.523,48.408-39.638,58.125-63.375C294.113,367.928,304.017,313.673,267.25,343.166z"/>
<path fill-rule="evenodd" clip-rule="evenodd" fill="#C59C68" stroke="#000000" stroke-width="2" stroke-linecap="square" stroke-miterlimit="10" d="  M361,507.416c18.103,21.257,47.82,51.348,79.125,46.875c14.844-2.121,40.545-13.199,32.625-33  c-10.578-26.446-50.073-38.138-75-42.375C378.719,475.68,322.604,478.372,361,507.416z"/>
<path fill-rule="evenodd" clip-rule="evenodd" fill="#C59C68" stroke="#000000" stroke-width="2" stroke-linecap="square" stroke-miterlimit="10" d="  M398.5,375.416c18.32,21.059,48.384,52.124,79.875,47.625c11.868-1.695,42.822-16.129,32.25-33.75  c-15.093-25.155-46.949-37.663-74.625-42.375C416.453,343.587,361.481,345.556,398.5,375.416z"/>
<path fill-rule="evenodd" clip-rule="evenodd" fill="#C59C68" stroke="#000000" stroke-width="2" stroke-linecap="square" stroke-miterlimit="10" d="  M445.75,335.666c18.345,21.159,45.873,48.711,76.5,47.25c15.458-0.738,43.233-13.416,35.25-33.375  c-10.619-26.549-49.944-38.267-75-42.375C463.57,304.062,407.267,306.556,445.75,335.666z"/>
<path fill-rule="evenodd" clip-rule="evenodd" fill="#C59C68" stroke="#000000" stroke-width="2" stroke-linecap="square" stroke-miterlimit="10" d="  M472.75,523.166c18.353,21.169,45.884,48.716,76.5,47.25c16.974-0.812,39.136-11.861,36-32.25  c-4.104-26.689-55.722-40.081-75.75-43.5C490.771,491.469,433.104,494.429,472.75,523.166z"/>
<path fill-rule="evenodd" clip-rule="evenodd" fill="#C59C68" stroke="#000000" stroke-width="2" stroke-linecap="square" stroke-miterlimit="10" d="  M504.25,481.166c20.412,24.547,46.357,47.25,79.5,47.25c15.525,0,39.486-15.284,32.25-33.375  c-10.165-25.413-50.496-38.275-74.25-42.375C523.146,449.455,466.034,452.096,504.25,481.166z"/>
<path fill-rule="evenodd" clip-rule="evenodd" fill="#C59C68" stroke="#000000" stroke-width="2" stroke-linecap="square" stroke-miterlimit="10" d="  M301,469.166c-0.656,28.264,2.21,67.126,26.25,86.25c10.221,8.131,43.92,20.399,48.375-1.875  c5.817-29.084-10.208-58.637-28.125-80.625C335.845,458.612,291.509,421.95,301,469.166z"/>
</svg>