<svg xmlns="http://www.w3.org/2000/svg" xmlns:xlink="http://www.w3.org/1999/xlink" version="1.1" id="Layer_1" x="0px" y="0px" enable-background="new 0 0 822.05 841.89" xml:space="preserve" viewBox="304.56 339.18 207.38 168.24">
<path fill-rule="evenodd" clip-rule="evenodd" fill="#279A30" stroke="#000000" stroke-width="1.25" stroke-linecap="square" stroke-miterlimit="10" d="  M470.063,382.771c12.772-27.433-23.06-48.205-42.75-27c-20.078-42.302-63.037,10.469-68.252,31.5c-1.206,4.863,2.643,23.93,3,27.75  c1.135,12.14-4.378,20.184,6,30.752c14.449,14.714,36.662,8.839,44.25-9.75c9.411,8.903,47.451,7.889,58.502,2.25  C493.245,426.826,491.882,393.865,470.063,382.771z"/>
<path fill-rule="evenodd" clip-rule="evenodd" fill="#279A30" stroke="#000000" stroke-width="1.25" stroke-linecap="square" stroke-miterlimit="10" d="  M511.313,502.773c-7.491-2.267-14.009-4.812-20.25-3.75c-2.118-1.716-4.872-5.171-6.75-7.5c-1.394,1.27-1.262,3.437-3,4.5  c-0.102-5.595,0.989-3.554-2.25-1.5c0.25-1.75,0.5-3.5,0.75-5.25c-6.689,3.148-4.619,2.643-8.25-0.75  c-1.549,1.255-2.799,2.755-3.75,4.5c-1.236-0.469-11.653-4.485-17.25-6.75c0.06-0.787,1.071-3.972,0.75-4.5  c-1.549,1.255-2.799,2.755-3.75,4.5c-0.316-1.842-0.066-3.592,0.75-5.25c-3.84,3.308-8.78,5.679-12.75,9  c-5.727-2.923-9.805-4.082-10.5-12c-8.585,7.522-10.302,6.172-15.752,6.75c0-1.25,0-2.5,0-3.75c-0.846-0.296-3.808,3.762-3.75,3.75  c-6.567-8.88-1.995-5.79-11.25-7.5c-0.243-2.061,0.007-4.061,0.75-6c-11.042,11.864-34.851,14.054-49.5,17.25  c0.398-2.729,1.291-5.412,1.5-8.25c-1.644,5.702-5.484,11.545-7.5,17.25c-0.516-1.663-0.939-5.536-1.5-7.5  c-0.25,1.75-0.5,3.5-0.75,5.25c-1.187-0.385-2.511-5.708-3-6.75c0.127,2.952,1.085,6.748,1.5,9.75c-1.99-3.164-5.244-7.193-7.5-10.5  c-2.69,27.743,37.785,15.75,56.325,15.75C419.973,503.523,485.122,511.353,511.313,502.773z"/>
<path fill-rule="evenodd" clip-rule="evenodd" fill="#F8130D" stroke="#000000" stroke-width="1.25" stroke-linecap="square" stroke-miterlimit="10" d="  M423.563,402.271C418.135,420.38,439.182,411.698,423.563,402.271L423.563,402.271z"/>
<path fill-rule="evenodd" clip-rule="evenodd" fill="#F8130D" stroke="#000000" stroke-width="1.25" stroke-linecap="square" stroke-miterlimit="10" d="  M377.062,411.271C376.048,424.99,387.49,421.615,377.062,411.271L377.062,411.271z"/>
<path fill-rule="evenodd" clip-rule="evenodd" fill="#F8130D" stroke="#000000" stroke-width="1.25" stroke-linecap="square" stroke-miterlimit="10" d="  M391.312,427.773C386.79,445.988,407.227,436.8,391.312,427.773L391.312,427.773z"/>
<path fill-rule="evenodd" clip-rule="evenodd" fill="#F8130D" stroke="#000000" stroke-width="1.25" stroke-linecap="square" stroke-miterlimit="10" d="  M430.313,362.521C428.035,377.936,443.21,372.879,430.313,362.521L430.313,362.521z"/>
<path fill-rule="evenodd" clip-rule="evenodd" fill="#F8130D" stroke="#000000" stroke-width="1.25" stroke-linecap="square" stroke-miterlimit="10" d="  M458.063,421.771C449.756,442.437,479.153,429.974,458.063,421.771L458.063,421.771z"/>
<path fill-rule="evenodd" clip-rule="evenodd" fill="#F8130D" stroke="#000000" stroke-width="1.25" stroke-linecap="square" stroke-miterlimit="10" d="  M453.563,362.521C450.107,379.888,468.205,370.261,453.563,362.521L453.563,362.521z"/>
<path fill-rule="evenodd" clip-rule="evenodd" fill="#F8130D" stroke="#000000" stroke-width="1.25" stroke-linecap="square" stroke-miterlimit="10" d="  M376.312,379.771C372.827,397.209,390.108,387.527,376.312,379.771L376.312,379.771z"/>
<path fill-rule="evenodd" clip-rule="evenodd" fill="#F8130D" stroke="#000000" stroke-width="1.25" stroke-linecap="square" stroke-miterlimit="10" d="  M395.062,355.021C389.814,373.116,410.672,364.348,395.062,355.021L395.062,355.021z"/>
<path fill-rule="evenodd" clip-rule="evenodd" fill="#F8130D" stroke="#000000" stroke-width="1.25" stroke-linecap="square" stroke-miterlimit="10" d="  M467.063,394.021C464.419,411.522,481.935,401.741,467.063,394.021L467.063,394.021z"/>
<path fill-rule="evenodd" clip-rule="evenodd" fill="#F8130D" stroke="#000000" stroke-width="1.25" stroke-linecap="square" stroke-miterlimit="10" d="  M405.562,389.521C401.877,406.941,419.382,397.422,405.562,389.521L405.562,389.521z"/>
<path fill-rule="evenodd" clip-rule="evenodd" fill="#F8130D" stroke="#000000" stroke-width="1.25" stroke-linecap="square" stroke-miterlimit="10" d="  M448.313,403.771C444.035,422.082,464.15,412.754,448.313,403.771L448.313,403.771z"/>
<path fill-rule="evenodd" clip-rule="evenodd" fill="#F8130D" stroke="#000000" stroke-width="1.25" stroke-linecap="square" stroke-miterlimit="10" d="  M367.312,428.523C363.839,445.902,381.096,436.404,367.312,428.523L367.312,428.523z"/>
<path fill="none" stroke="#000000" stroke-width="1.25" stroke-linecap="square" stroke-miterlimit="10" d="M384.562,421.771  c5.223,1.105,10.601,0.838,15.75-0.75"/>
<path fill="none" stroke="#000000" stroke-width="1.25" stroke-linecap="square" stroke-miterlimit="10" d="M407.062,417.271  c3.824-2.177,6.824-5.177,9.002-9"/>
<path fill-rule="evenodd" clip-rule="evenodd" fill="#724211" stroke="#000000" stroke-width="1.25" stroke-linecap="square" stroke-miterlimit="10" d="  M428.813,427.023c-3.136-3.446-7.666-4.594-10.5-9.002c0.027,4.605-2.361,10.064-2.25,14.252c-14.598-40.609-7.509,14.56-9.752,19.5  c-9.34-7.657-2.873-2.148-15.75-4.5c18.135,11.485,14.142,30.088,8.25,48c11.104-7.155,24.477-2.562,35.252,4.5  c-12.468-28.009,9.962-42.538,0.75-68.25c-1.532,3.041-4.271,7.608-6,11.25c-0.323-0.677-0.823-0.927-1.5-0.75  C427.074,436.821,428.058,432.15,428.813,427.023z"/>
<path fill="none" stroke="#000000" stroke-width="1.25" stroke-linecap="square" stroke-miterlimit="10" d="M416.813,411.271  c0.409,2.271,0.909,4.52,1.5,6.75"/>
<path fill="none" stroke="#000000" stroke-width="1.25" stroke-linecap="square" stroke-miterlimit="10" d="M429.563,427.773  c4.339,0.865,8.495,0.628,12.75-0.75"/>
<path fill="none" stroke="#000000" stroke-width="1.25" stroke-linecap="square" stroke-miterlimit="10" d="M390.562,447.273  c-1.38-0.825-2.88-1.325-4.5-1.5"/>
<path fill="none" stroke="#000000" stroke-width="1.25" stroke-linecap="square" stroke-miterlimit="10" d="M401.812,445.023  c1.782-0.642,3.109-1.969,3.75-3.75"/>
<path fill-rule="evenodd" clip-rule="evenodd" fill="#F8130D" stroke="#000000" stroke-width="1.25" stroke-linecap="square" stroke-miterlimit="10" d="  M394.312,376.021C391.533,390.94,407.776,385.25,394.312,376.021L394.312,376.021z"/>
<path fill-rule="evenodd" clip-rule="evenodd" fill="#F8130D" stroke="#000000" stroke-width="1.25" stroke-linecap="square" stroke-miterlimit="10" d="  M448.313,379.021C444.947,396.353,462.125,386.974,448.313,379.021L448.313,379.021z"/>
<path fill-rule="evenodd" clip-rule="evenodd" fill="#F8130D" stroke="#000000" stroke-width="1.25" stroke-linecap="square" stroke-miterlimit="10" d="  M387.562,485.523C382.892,503.583,404.089,494.508,387.562,485.523L387.562,485.523z"/>
<path fill-rule="evenodd" clip-rule="evenodd" fill="#F8130D" stroke="#000000" stroke-width="1.25" stroke-linecap="square" stroke-miterlimit="10" d="  M370.312,487.023C364.89,505.109,385.638,496.504,370.312,487.023L370.312,487.023z"/>
<path fill-rule="evenodd" clip-rule="evenodd" fill="#F8130D" stroke="#000000" stroke-width="1.25" stroke-linecap="square" stroke-miterlimit="10" d="  M428.813,488.523C423.711,506.692,444.652,497.511,428.813,488.523L428.813,488.523z"/>
<path fill-rule="evenodd" clip-rule="evenodd" fill="#F8130D" stroke="#000000" stroke-width="1.25" stroke-linecap="square" stroke-miterlimit="10" d="  M451.313,484.023C447.849,501.435,466.107,491.683,451.313,484.023L451.313,484.023z"/>
<path fill-rule="evenodd" clip-rule="evenodd" fill="#F8130D" stroke="#000000" stroke-width="1.25" stroke-linecap="square" stroke-miterlimit="10" d="  M444.563,489.273C438.888,507.33,459.704,498.692,444.563,489.273L444.563,489.273z"/>
<path fill-rule="evenodd" clip-rule="evenodd" fill="#F8130D" stroke="#000000" stroke-width="1.25" stroke-linecap="square" stroke-miterlimit="10" d="  M460.313,488.523C457.666,506.047,475.144,496.208,460.313,488.523L460.313,488.523z"/>
<path fill-rule="evenodd" clip-rule="evenodd" fill="#FFFFFF" stroke="#000000" stroke-linecap="square" stroke-miterlimit="10" d="  M391.312,499.773c-23.506,0-47.012,0-70.518,0c-10.36,0-13.146-49.858-6.732-57c6.503-7.24,59.741,0,70.518,0  C398.842,442.773,391.312,486.865,391.312,499.773z"/>
<path fill-rule="evenodd" clip-rule="evenodd" fill="#FFFFFF" stroke="#000000" stroke-linecap="square" stroke-miterlimit="10" d="  M382.312,503.523c-25.75,0-51.5,0-77.25,0c0.883-7.459,3.886-57,8.549-57c25.15,0,50.3,0,75.451,0  C386.812,465.523,384.562,484.523,382.312,503.523z"/>
<path fill-rule="evenodd" clip-rule="evenodd" d="M359.062,454.773C358.487,450.285,358.384,449.478,359.062,454.773  L359.062,454.773z"/>
<path fill-rule="evenodd" clip-rule="evenodd" d="M340.312,454.773C339.737,450.285,339.634,449.478,340.312,454.773  L340.312,454.773z"/>
<path fill-rule="evenodd" clip-rule="evenodd" d="M377.812,454.773C377.237,450.285,377.134,449.478,377.812,454.773  L377.812,454.773z"/>
<path fill-rule="evenodd" clip-rule="evenodd" d="M321.562,454.773C320.987,450.285,320.884,449.478,321.562,454.773  L321.562,454.773z"/>
<path fill-rule="evenodd" clip-rule="evenodd" d="M321.562,439.023c-0.176,4.92-5.846,8.505,0.75,14.25  C320.916,446.788,321.809,441.107,321.562,439.023z"/>
<path fill-rule="evenodd" clip-rule="evenodd" d="M339.562,438.273c-0.128,5.998-6.202,9.229,0.75,15  c-0.85-3.941,1.018-12.07,0.75-10.5C345.001,441.022,339.46,440.425,339.562,438.273z"/>
<path fill-rule="evenodd" clip-rule="evenodd" d="M359.062,438.273c-0.188,5.674-6.066,9.424,0.75,15  C358.105,446.255,359.133,441.57,359.062,438.273z"/>
<path fill-rule="evenodd" clip-rule="evenodd" d="M377.062,438.273c-0.066,6.313-5.343,10.26,1.5,15  C376.508,445.637,376.98,441.455,377.062,438.273z"/>
<path fill="none" stroke="#000000" stroke-width="0.5" stroke-linecap="square" stroke-miterlimit="10" d="M378.562,497.523  c1.25-9.5,2.5-19,3.75-28.5c-18.032,0-36.064,0-54.096,0c-21.126,0-15.93,7.796-18.654,28.5  C332.562,497.523,355.562,497.523,378.562,497.523z"/>
<path fill-rule="evenodd" clip-rule="evenodd" d="M372.562,469.023l-3.75,28.5L372.562,469.023z"/>
<line fill="none" stroke="#000000" stroke-width="0.5" stroke-linecap="square" stroke-miterlimit="10" x1="372.562" y1="469.023" x2="368.812" y2="497.523"/>
<path fill-rule="evenodd" clip-rule="evenodd" d="M362.812,469.023l-3.75,28.5L362.812,469.023z"/>
<line fill="none" stroke="#000000" stroke-width="0.5" stroke-linecap="square" stroke-miterlimit="10" x1="362.812" y1="469.023" x2="359.062" y2="497.523"/>
<path fill-rule="evenodd" clip-rule="evenodd" d="M353.062,469.023l-3.75,28.5L353.062,469.023z"/>
<line fill="none" stroke="#000000" stroke-width="0.5" stroke-linecap="square" stroke-miterlimit="10" x1="353.062" y1="469.023" x2="349.312" y2="497.523"/>
<path fill-rule="evenodd" clip-rule="evenodd" d="M343.312,469.023l-4.5,28.5L343.312,469.023z"/>
<line fill="none" stroke="#000000" stroke-width="0.5" stroke-linecap="square" stroke-miterlimit="10" x1="343.312" y1="469.023" x2="338.812" y2="497.523"/>
<path fill-rule="evenodd" clip-rule="evenodd" d="M333.562,469.023l-4.5,28.5L333.562,469.023z"/>
<line fill="none" stroke="#000000" stroke-width="0.5" stroke-linecap="square" stroke-miterlimit="10" x1="333.562" y1="469.023" x2="329.062" y2="497.523"/>
<path fill-rule="evenodd" clip-rule="evenodd" d="M323.812,469.023l-4.5,28.5L323.812,469.023z"/>
<line fill="none" stroke="#000000" stroke-width="0.5" stroke-linecap="square" stroke-miterlimit="10" x1="323.812" y1="469.023" x2="319.312" y2="497.523"/>
<line fill="none" stroke="#000000" stroke-width="0.5" stroke-linecap="square" stroke-miterlimit="10" x1="312.562" y1="476.523" x2="381.562" y2="476.523"/>
<line fill="none" stroke="#000000" stroke-width="0.5" stroke-linecap="square" stroke-miterlimit="10" x1="311.812" y1="483.273" x2="380.812" y2="483.273"/>
<line fill="none" stroke="#000000" stroke-width="0.5" stroke-linecap="square" stroke-miterlimit="10" x1="311.062" y1="490.023" x2="380.062" y2="490.023"/>
<text transform="matrix(1 0 0 1 312.5566 469.022)" font-family="'MyriadPro-Regular'" font-size="9">S  M  T  W  Th  F  S</text>
</svg>