<svg xmlns="http://www.w3.org/2000/svg" xmlns:xlink="http://www.w3.org/1999/xlink" version="1.1" id="Layer_1" x="0px" y="0px" enable-background="new 0 0 822.05 841.89" xml:space="preserve" viewBox="308.81 338.82 202.38 165.09">
<path fill-rule="evenodd" clip-rule="evenodd" fill="#283F7B" stroke="#000000" stroke-width="0.5" stroke-linecap="square" stroke-miterlimit="10" d="  M447.25,399.89c-5.627,20.117,45.684,34.575,9.75,57.752c6.012-12.504,7.009-26.565-8.625-32.25  C431.851,419.383,424.091,396.901,447.25,399.89z"/>
<path fill-rule="evenodd" clip-rule="evenodd" fill="#283F7B" stroke="#000000" stroke-width="0.5" stroke-linecap="square" stroke-miterlimit="10" d="  M358,425.392c-7.513-0.184-12.899-0.999-18.75,3.75c5.032,1.982,14.721,3.616,20.25,4.5  C361.153,430.191,358.996,428.908,358,425.392z"/>
<path fill-rule="evenodd" clip-rule="evenodd" fill="#283F7B" stroke="#000000" stroke-width="0.5" stroke-linecap="square" stroke-miterlimit="10" d="  M378.25,399.14c-13.704,17.096-80.598,1.383-67.5,40.502c11.5-22.255,23.458-19.644,46.5-21.002  C366.595,418.089,408.173,408.869,378.25,399.14z"/>
<path fill-rule="evenodd" clip-rule="evenodd" fill="#283F7B" stroke="#000000" stroke-width="0.5" stroke-linecap="square" stroke-miterlimit="10" d="  M402.25,423.892c4.009,17.545-7.657,34.63-23.625,42c-10.033,4.631-20.591,2.687-30.75,6.75  c-3.852,1.541-11.431,20.119-10.875,20.25c-36.107-8.49,39.512-35.119,35.25-32.25C386.173,451.268,383.546,419.219,402.25,423.892z  "/>
<path fill-rule="evenodd" clip-rule="evenodd" fill="#283F7B" stroke="#000000" stroke-width="0.5" stroke-linecap="square" stroke-miterlimit="10" d="  M421.75,411.89c18.291,18.868,7.042,41.85,34.5,51.002c15.844,5.281,9.517,12.42,9.75,23.25c0.53,24.619-19.605-18.968-6-9  c-7.436-5.447-20.742-8.69-26.625-15.75c-8.392-10.07-10.104-22.574-19.875-32.25c-6.17-6.109-24.595-9.266-24-19.502  C390.543,391.706,418.295,401.069,421.75,411.89z"/>
<path fill-rule="evenodd" clip-rule="evenodd" fill="#283F7B" stroke="#000000" stroke-width="0.5" stroke-linecap="square" stroke-miterlimit="10" d="  M500.5,438.892c11.769,19.499-13.677,13.63-22.5,0c-9.347-14.438,1.337-34.208-18-43.877c-10.403-5.202-37.235,2.803-33.375-16.5  c4.284-21.421-9.357-37.873-30.375-39.375c-14.581-1.042-39.149,9.282-42,25.5c-3.596,20.46,23.708,26.708,20.25,46.5  c-2.312,13.232-34.947,17.53-19.5,37.502c14.377,18.587,40.466-8.159,15-18.75c5.012-3.877,13.846-7.494,19.5-9.002  c-1.344,18.737,34.611,47.236-4.875,52.877c-8.332,1.19-29.379-2.234-34.125,7.125c-8.664,17.087,8.8,19.108,18,16.5  c1.896-0.537-18.385-4.772-10.5-11.25c8.826-7.251,28.072,1.224,39-3.75c30.273-13.779,10.5-27.655,10.5-50.625  c0-15.211,36.59,4.444,23.625,30.375c-4.434,8.866-15.456,22.142-9.375,33c6.068,10.836,17.273,10.747,23.25,3  c-4.67,6.054-13.839-10.08-9.306-18.694c7.906-15.022,16.185-27.913,12.681-45.431c-1.333-6.667-16.154-15.93-13.125-21.377  c10.802-19.42,25.422,14.436,27.75,18.002c7.87,12.057,13.771,34.601,33.75,30C512.363,457.046,517.175,437.525,500.5,438.892z   M368.5,446.392c-3.405-3.756-8.408-2.496-5.25-11.25C372.724,438.866,367.838,441.996,368.5,446.392z"/>
<path fill-rule="evenodd" clip-rule="evenodd" fill="#283F7B" d="M370,429.892c-2.647,2.143-5.586,3.396-7.5,6.75  C365,434.392,367.5,432.142,370,429.892z"/>
<path fill="none" stroke="#000000" stroke-width="0.5" stroke-linecap="square" stroke-miterlimit="10" d="M370,429.892  c-3.134,1.295-5.756,3.694-7.5,6.75"/>
<path fill-rule="evenodd" clip-rule="evenodd" fill="#283F7B" stroke="#000000" stroke-width="0.5" stroke-linecap="square" stroke-miterlimit="10" d="  M363.25,435.142C366.58,448.963,371.959,447.66,363.25,435.142L363.25,435.142z"/>
<path fill-rule="evenodd" clip-rule="evenodd" fill="#283F7B" stroke="#000000" stroke-width="0.5" stroke-linecap="square" stroke-miterlimit="10" d="  M363.25,435.142C366.58,448.963,371.959,447.66,363.25,435.142L363.25,435.142z"/>
<path fill-rule="evenodd" clip-rule="evenodd" fill="#F9F9FB" stroke="#000000" stroke-width="0.5" stroke-linecap="square" stroke-miterlimit="10" d="  M363.25,435.142C366.58,448.963,371.959,447.66,363.25,435.142L363.25,435.142z"/>
<path fill-rule="evenodd" clip-rule="evenodd" fill="#FFFFFF" stroke="#000000" stroke-width="0.5" stroke-linecap="square" stroke-miterlimit="10" d="  M395.5,385.64C378.174,411.178,379.978,358.651,395.5,385.64L395.5,385.64z"/>
<path fill-rule="evenodd" clip-rule="evenodd" fill="#FFFFFF" stroke="#000000" stroke-width="0.5" stroke-linecap="square" stroke-miterlimit="10" d="  M418,379.64C399.698,405.209,400.221,355.29,418,379.64L418,379.64z"/>
<path fill="none" stroke="#000000" stroke-width="0.5" stroke-linecap="square" stroke-miterlimit="10" d="M414.25,381.89  c-1.811-0.173-3.028,3.891-6.75,0.75c0-0.75,0-1.5,0-2.25C412.027,376.922,412.38,381.711,414.25,381.89z"/>
<path fill="none" stroke="#000000" stroke-width="0.5" stroke-linecap="square" stroke-miterlimit="10" d="M412,382.64  C409.211,382.64,409.211,382.64,412,382.64L412,382.64z"/>
<path fill="none" stroke="#000000" stroke-width="0.5" stroke-linecap="square" stroke-miterlimit="10" d="M412,382.64  C409.613,382.64,409.613,382.64,412,382.64L412,382.64z"/>
<path fill="none" stroke="#000000" stroke-width="0.5" stroke-linecap="square" stroke-miterlimit="10" d="M414.25,381.89  c-2.248-0.204-3.789,4.208-7.5,0C410.764,376.052,411.705,381.659,414.25,381.89z"/>
<path fill="none" stroke="#000000" stroke-width="0.5" stroke-linecap="square" stroke-miterlimit="10" d="M413.5,381.89  c-1.058-0.104-2.693,3.468-6,0.75c0-0.75,0-1.5,0-2.25C411.908,377.204,412.235,381.767,413.5,381.89z"/>
<path fill="none" stroke="#000000" stroke-width="0.5" stroke-linecap="square" stroke-miterlimit="10" d="M409.75,382.64  C411.397,382.64,411.397,382.64,409.75,382.64L409.75,382.64z"/>
<path fill="none" stroke="#000000" stroke-width="0.5" stroke-linecap="square" stroke-miterlimit="10" d="M413.5,381.89  c-2.036,0-2.787,4.353-5.25,0C410.713,377.537,411.464,381.89,413.5,381.89z"/>
<path fill="none" stroke="#000000" stroke-width="0.5" stroke-linecap="square" stroke-miterlimit="10" d="M413.5,381.89  c-2.085,0.071-2.8,4.331-5.25,0C410.575,378.567,411.704,381.952,413.5,381.89z"/>
<path fill="none" stroke="#000000" stroke-width="0.5" stroke-linecap="square" stroke-miterlimit="10" d="M412.75,381.89  C408.262,382.464,407.456,382.568,412.75,381.89L412.75,381.89z"/>
<path fill="none" stroke="#000000" stroke-width="0.5" stroke-linecap="square" stroke-miterlimit="10" d="M412,381.89  C408.949,381.89,408.949,381.89,412,381.89L412,381.89z"/>
<path fill="none" stroke="#000000" stroke-width="0.5" stroke-linecap="square" stroke-miterlimit="10" d="M412,381.89  C408.953,382.106,408.97,382.104,412,381.89L412,381.89z"/>
<path fill="none" stroke="#000000" stroke-width="0.5" stroke-linecap="square" stroke-miterlimit="10" d="M412,382.64  C409.211,382.64,409.211,382.64,412,382.64L412,382.64z"/>
<path fill="none" stroke="#000000" stroke-width="0.5" stroke-linecap="square" stroke-miterlimit="10" d="M412,382.64  C409.211,382.64,409.211,382.64,412,382.64L412,382.64z"/>
<path fill="none" stroke="#000000" stroke-width="0.5" stroke-linecap="square" stroke-miterlimit="10" d="M412,382.64  C409.613,382.64,409.613,382.64,412,382.64L412,382.64z"/>
<path fill="none" stroke="#000000" stroke-width="0.5" stroke-linecap="square" stroke-miterlimit="10" d="M414.25,381.89  c-2.248-0.204-3.789,4.208-7.5,0C410.764,376.052,411.705,381.659,414.25,381.89z"/>
<path fill="none" stroke="#000000" stroke-width="0.5" stroke-linecap="square" stroke-miterlimit="10" d="M413.5,381.89  c-1.058-0.104-2.693,3.468-6,0.75c0-0.75,0-1.5,0-2.25C411.908,377.204,412.235,381.767,413.5,381.89z"/>
<path fill="none" stroke="#000000" stroke-width="0.5" stroke-linecap="square" stroke-miterlimit="10" d="M409.75,382.64  C411.397,382.64,411.397,382.64,409.75,382.64L409.75,382.64z"/>
<path fill="none" stroke="#000000" stroke-width="0.5" stroke-linecap="square" stroke-miterlimit="10" d="M413.5,381.89  c-2.036,0-2.787,4.353-5.25,0C410.713,377.537,411.464,381.89,413.5,381.89z"/>
<path fill="none" stroke="#000000" stroke-width="0.5" stroke-linecap="square" stroke-miterlimit="10" d="M413.5,381.89  c-2.085,0.071-2.8,4.331-5.25,0C410.575,378.567,411.704,381.952,413.5,381.89z"/>
<path fill="none" stroke="#000000" stroke-width="0.5" stroke-linecap="square" stroke-miterlimit="10" d="M412.75,381.89  C408.262,382.464,407.456,382.568,412.75,381.89L412.75,381.89z"/>
<path fill="none" stroke="#000000" stroke-width="0.5" stroke-linecap="square" stroke-miterlimit="10" d="M412,381.89  C408.949,381.89,408.949,381.89,412,381.89L412,381.89z"/>
<path fill="none" stroke="#000000" stroke-width="0.5" stroke-linecap="square" stroke-miterlimit="10" d="M412,381.89  C408.953,382.106,408.97,382.104,412,381.89L412,381.89z"/>
<path fill="none" stroke="#000000" stroke-width="0.5" stroke-linecap="square" stroke-miterlimit="10" d="M412,382.64  C409.211,382.64,409.211,382.64,412,382.64L412,382.64z"/>
<path fill="none" stroke="#000000" stroke-width="0.5" stroke-linecap="square" stroke-miterlimit="10" d="M412,382.64  C409.619,382.64,409.619,382.64,412,382.64L412,382.64z"/>
<path fill="none" stroke="#000000" stroke-width="0.5" stroke-linecap="square" stroke-miterlimit="10" d="M412,382.64  C410.353,382.64,410.353,382.64,412,382.64L412,382.64z"/>
<path fill="none" stroke="#000000" stroke-width="0.5" stroke-linecap="square" stroke-miterlimit="10" d="M414.25,381.89  c-2.229,0-2.396,3.277-6,1.5c0.177-0.677-0.073-1.177-0.75-1.5c0.677-0.323,0.927-0.823,0.75-1.5  C411.854,378.613,412.021,381.89,414.25,381.89z"/>
<path fill="none" stroke="#000000" stroke-width="0.5" stroke-linecap="square" stroke-miterlimit="10" d="M413.5,381.89  c-1.954-0.057-3.31,3.314-6,0C410.398,377.513,411.26,381.825,413.5,381.89z"/>
<path fill="none" stroke="#000000" stroke-width="0.5" stroke-linecap="square" stroke-miterlimit="10" d="M409.75,382.64  C411.193,382.292,411.608,382.191,409.75,382.64L409.75,382.64z"/>
<path fill="none" stroke="#000000" stroke-width="0.5" stroke-linecap="square" stroke-miterlimit="10" d="M413.5,381.89  c-2.085,0.071-2.8,4.331-5.25,0C410.575,378.567,411.704,381.952,413.5,381.89z"/>
<path fill="none" stroke="#000000" stroke-width="0.5" stroke-linecap="square" stroke-miterlimit="10" d="M412.75,381.89  C408.737,382.421,407.271,382.616,412.75,381.89L412.75,381.89z"/>
<path fill="none" stroke="#000000" stroke-width="0.5" stroke-linecap="square" stroke-miterlimit="10" d="M412.75,381.89  C408.943,382.269,408.403,382.323,412.75,381.89L412.75,381.89z"/>
<path fill="none" stroke="#000000" stroke-width="0.5" stroke-linecap="square" stroke-miterlimit="10" d="M412,381.89  C408.953,382.106,408.97,382.104,412,381.89L412,381.89z"/>
<path fill="none" stroke="#000000" stroke-width="0.5" stroke-linecap="square" stroke-miterlimit="10" d="M412,381.89  C409.827,382.477,408.851,382.741,412,381.89L412,381.89z"/>
<path fill="none" stroke="#000000" stroke-width="0.5" stroke-linecap="square" stroke-miterlimit="10" d="M412,382.64  C409.459,382.257,409.194,382.217,412,382.64L412,382.64z"/>
<path fill="none" stroke="#000000" stroke-width="0.5" stroke-linecap="square" stroke-miterlimit="10" d="M412,382.64  C410.353,382.64,410.353,382.64,412,382.64L412,382.64z"/>
<path fill="none" stroke="#000000" stroke-width="0.5" stroke-linecap="square" stroke-miterlimit="10" d="M412,382.64  C410.142,382.191,410.557,382.292,412,382.64L412,382.64z"/>
<path fill="none" stroke="#000000" stroke-width="0.5" stroke-linecap="square" stroke-miterlimit="10" d="M413.5,381.89  c-1.965,0-2.418,4.534-5.25,0C411.082,377.356,411.535,381.89,413.5,381.89z"/>
<path fill="none" stroke="#000000" stroke-width="0.5" stroke-linecap="square" stroke-miterlimit="10" d="M412.75,381.89  C407.082,381.388,408.947,381.553,412.75,381.89L412.75,381.89z"/>
<path fill="none" stroke="#000000" stroke-width="0.5" stroke-linecap="square" stroke-miterlimit="10" d="M410.5,382.64  C411.104,382.037,411.104,382.037,410.5,382.64L410.5,382.64z"/>
<path fill="none" stroke="#000000" stroke-width="0.5" stroke-linecap="square" stroke-miterlimit="10" d="M412.75,381.89  C408.983,382.312,408.635,382.351,412.75,381.89L412.75,381.89z"/>
<path fill="none" stroke="#000000" stroke-width="0.5" stroke-linecap="square" stroke-miterlimit="10" d="M412.75,381.89  C408.983,382.312,408.635,382.351,412.75,381.89L412.75,381.89z"/>
<path fill="none" stroke="#000000" stroke-width="0.5" stroke-linecap="square" stroke-miterlimit="10" d="M412.75,381.89  C409.193,382.481,408.411,382.611,412.75,381.89L412.75,381.89z"/>
<path fill="none" stroke="#000000" stroke-width="0.5" stroke-linecap="square" stroke-miterlimit="10" d="M412,381.89  C409.869,382.141,410.021,382.123,412,381.89L412,381.89z"/>
<path fill="none" stroke="#000000" stroke-width="0.5" stroke-linecap="square" stroke-miterlimit="10" d="M412,382.64  C409.541,381.892,410.178,382.085,412,382.64L412,382.64z"/>
<path fill="none" stroke="#000000" stroke-width="0.5" stroke-linecap="square" stroke-miterlimit="10" d="M412,382.64  C410.353,382.64,410.353,382.64,412,382.64L412,382.64z"/>
<path fill="none" stroke="#000000" stroke-width="0.5" stroke-linecap="square" stroke-miterlimit="10" d="M412,382.64  C410.142,382.191,410.557,382.292,412,382.64L412,382.64z"/>
<path fill="none" stroke="#000000" stroke-width="0.5" stroke-linecap="square" stroke-miterlimit="10" d="M412,382.64  C411.358,382.294,410.356,381.753,412,382.64L412,382.64z"/>
<path fill="none" stroke="#000000" stroke-width="0.5" stroke-linecap="square" stroke-miterlimit="10" d="M412.75,381.89  C409.694,382.107,409.489,382.122,412.75,381.89L412.75,381.89z"/>
<path fill="none" stroke="#000000" stroke-width="0.5" stroke-linecap="square" stroke-miterlimit="10" d="M412.75,381.89  C409.694,382.107,409.489,382.122,412.75,381.89L412.75,381.89z"/>
<path fill="none" stroke="#000000" stroke-width="0.5" stroke-linecap="square" stroke-miterlimit="10" d="M411.25,382.64  L411.25,382.64z"/>
<path fill="none" stroke="#000000" stroke-width="0.5" stroke-linecap="square" stroke-miterlimit="10" d="M412.75,381.89  C409.799,382.607,410.264,382.494,412.75,381.89L412.75,381.89z"/>
<path fill="none" stroke="#000000" stroke-width="0.5" stroke-linecap="square" stroke-miterlimit="10" d="M412.75,382.64  C410.264,382.036,409.799,381.923,412.75,382.64L412.75,382.64z"/>
<path fill="none" stroke="#000000" stroke-width="0.5" stroke-linecap="square" stroke-miterlimit="10" d="M412,382.64  C410.212,382.091,410.483,382.175,412,382.64L412,382.64z"/>
<path fill="none" stroke="#000000" stroke-width="0.5" stroke-linecap="square" stroke-miterlimit="10" d="M412,382.64  C410.142,382.191,410.557,382.292,412,382.64L412,382.64z"/>
<path fill="none" stroke="#000000" stroke-width="0.5" stroke-linecap="square" stroke-miterlimit="10" d="M412,382.64  C410.142,382.191,410.557,382.292,412,382.64L412,382.64z"/>
<path fill="none" stroke="#000000" stroke-width="0.5" stroke-linecap="square" stroke-miterlimit="10" d="M412,382.64  C410.142,382.191,410.557,382.292,412,382.64L412,382.64z"/>
<path fill="none" stroke="#000000" stroke-width="0.5" stroke-linecap="square" stroke-miterlimit="10" d="M392.5,387.89  c-2.929-0.256-3.807,4.524-7.5,0C388.757,381.761,389.33,387.613,392.5,387.89z"/>
<path fill="none" stroke="#000000" stroke-width="0.5" stroke-linecap="square" stroke-miterlimit="10" d="M389.5,388.64  C387.459,388.64,387.459,388.64,389.5,388.64L389.5,388.64z"/>
<path fill="none" stroke="#000000" stroke-width="0.5" stroke-linecap="square" stroke-miterlimit="10" d="M389.5,388.64  C387.853,388.64,387.853,388.64,389.5,388.64L389.5,388.64z"/>
<path fill="none" stroke="#000000" stroke-width="0.5" stroke-linecap="square" stroke-miterlimit="10" d="M392.5,387.89  C383.629,387.281,384.308,387.327,392.5,387.89L392.5,387.89z"/>
<path fill="none" stroke="#000000" stroke-width="0.5" stroke-linecap="square" stroke-miterlimit="10" d="M391.75,387.89  c-2.012-0.168-2.491,3.23-6,1.5c0.177-0.677-0.073-1.177-0.75-1.5c0.612-0.665,0.862-1.415,0.75-2.25  C390.192,383.563,389.588,387.709,391.75,387.89z"/>
<path fill="none" stroke="#000000" stroke-width="0.5" stroke-linecap="square" stroke-miterlimit="10" d="M388,388.64  C388.537,388.64,388.537,388.64,388,388.64L388,388.64z"/>
<path fill="none" stroke="#000000" stroke-width="0.5" stroke-linecap="square" stroke-miterlimit="10" d="M391,387.89  c-1.965,0-2.418,4.534-5.25,0C388.582,383.356,389.035,387.89,391,387.89z"/>
<path fill="none" stroke="#000000" stroke-width="0.5" stroke-linecap="square" stroke-miterlimit="10" d="M391,387.89  c-2.019,0.069-2.431,4.513-5.25,0C388.41,384.357,389.195,387.952,391,387.89z"/>
<path fill="none" stroke="#000000" stroke-width="0.5" stroke-linecap="square" stroke-miterlimit="10" d="M391,387.89  C386.512,388.464,385.706,388.568,391,387.89L391,387.89z"/>
<path fill="none" stroke="#000000" stroke-width="0.5" stroke-linecap="square" stroke-miterlimit="10" d="M390.25,387.89  C386.843,388.498,386.414,388.574,390.25,387.89L390.25,387.89z"/>
<path fill="none" stroke="#000000" stroke-width="0.5" stroke-linecap="square" stroke-miterlimit="10" d="M390.25,388.64  C386.414,387.957,386.843,388.033,390.25,388.64L390.25,388.64z"/>
<path fill="none" stroke="#000000" stroke-width="0.5" stroke-linecap="square" stroke-miterlimit="10" d="M389.5,388.64  C387.459,388.64,387.459,388.64,389.5,388.64L389.5,388.64z"/>
<path fill="none" stroke="#000000" stroke-width="0.5" stroke-linecap="square" stroke-miterlimit="10" d="M389.5,388.64  C387.459,388.64,387.459,388.64,389.5,388.64L389.5,388.64z"/>
<path fill="none" stroke="#000000" stroke-width="0.5" stroke-linecap="square" stroke-miterlimit="10" d="M389.5,388.64  C387.853,388.64,387.853,388.64,389.5,388.64L389.5,388.64z"/>
<path fill="none" stroke="#000000" stroke-width="0.5" stroke-linecap="square" stroke-miterlimit="10" d="M392.5,387.89  C383.629,387.281,384.308,387.327,392.5,387.89L392.5,387.89z"/>
<path fill="none" stroke="#000000" stroke-width="0.5" stroke-linecap="square" stroke-miterlimit="10" d="M391.75,387.89  c-2.012-0.168-2.491,3.23-6,1.5c0.177-0.677-0.073-1.177-0.75-1.5c0.612-0.665,0.862-1.415,0.75-2.25  C390.192,383.563,389.588,387.709,391.75,387.89z"/>
<path fill="none" stroke="#000000" stroke-width="0.5" stroke-linecap="square" stroke-miterlimit="10" d="M388,388.64  C388.537,388.64,388.537,388.64,388,388.64L388,388.64z"/>
<path fill="none" stroke="#000000" stroke-width="0.5" stroke-linecap="square" stroke-miterlimit="10" d="M391,387.89  c-1.965,0-2.418,4.534-5.25,0C388.582,383.356,389.035,387.89,391,387.89z"/>
<path fill="none" stroke="#000000" stroke-width="0.5" stroke-linecap="square" stroke-miterlimit="10" d="M391,387.89  c-2.019,0.069-2.431,4.513-5.25,0C388.41,384.357,389.195,387.952,391,387.89z"/>
<path fill="none" stroke="#000000" stroke-width="0.5" stroke-linecap="square" stroke-miterlimit="10" d="M391,387.89  C386.512,388.464,385.706,388.568,391,387.89L391,387.89z"/>
<path fill="none" stroke="#000000" stroke-width="0.5" stroke-linecap="square" stroke-miterlimit="10" d="M390.25,387.89  C386.843,388.498,386.414,388.574,390.25,387.89L390.25,387.89z"/>
<path fill="none" stroke="#000000" stroke-width="0.5" stroke-linecap="square" stroke-miterlimit="10" d="M390.25,388.64  C386.414,387.957,386.843,388.033,390.25,388.64L390.25,388.64z"/>
<path fill="none" stroke="#000000" stroke-width="0.5" stroke-linecap="square" stroke-miterlimit="10" d="M389.5,388.64  C387.459,388.64,387.459,388.64,389.5,388.64L389.5,388.64z"/>
<path fill="none" stroke="#000000" stroke-width="0.5" stroke-linecap="square" stroke-miterlimit="10" d="M389.5,388.64  C387.8,388.64,387.8,388.64,389.5,388.64L389.5,388.64z"/>
<path fill="none" stroke="#000000" stroke-width="0.5" stroke-linecap="square" stroke-miterlimit="10" d="M389.5,388.64  C387.853,388.64,387.853,388.64,389.5,388.64L389.5,388.64z"/>
<path fill="none" stroke="#000000" stroke-width="0.5" stroke-linecap="square" stroke-miterlimit="10" d="M391.75,387.89  c-1.364,0-2.593,3.55-6,0.75c0-0.5,0-1,0-1.5C389.157,384.34,390.386,387.89,391.75,387.89z"/>
<path fill="none" stroke="#000000" stroke-width="0.5" stroke-linecap="square" stroke-miterlimit="10" d="M391,387.89  c-1.965,0-2.418,4.534-5.25,0C388.582,383.356,389.035,387.89,391,387.89z"/>
<path fill="none" stroke="#000000" stroke-width="0.5" stroke-linecap="square" stroke-miterlimit="10" d="M388,388.64  C389.12,388.64,389.12,388.64,388,388.64L388,388.64z"/>
<path fill="none" stroke="#000000" stroke-width="0.5" stroke-linecap="square" stroke-miterlimit="10" d="M391,387.89  C386.066,388.098,386.218,388.092,391,387.89L391,387.89z"/>
<path fill="none" stroke="#000000" stroke-width="0.5" stroke-linecap="square" stroke-miterlimit="10" d="M391,387.89  C386.512,388.464,385.706,388.568,391,387.89L391,387.89z"/>
<path fill="none" stroke="#000000" stroke-width="0.5" stroke-linecap="square" stroke-miterlimit="10" d="M391,387.89  C386.637,388.263,385.6,388.352,391,387.89L391,387.89z"/>
<path fill="none" stroke="#000000" stroke-width="0.5" stroke-linecap="square" stroke-miterlimit="10" d="M390.25,387.89  C387.194,388.107,386.989,388.122,390.25,387.89L390.25,387.89z"/>
<path fill="none" stroke="#000000" stroke-width="0.5" stroke-linecap="square" stroke-miterlimit="10" d="M390.25,388.64  C386.989,388.409,387.194,388.423,390.25,388.64L390.25,388.64z"/>
<path fill="none" stroke="#000000" stroke-width="0.5" stroke-linecap="square" stroke-miterlimit="10" d="M389.5,388.64  C387.8,388.64,387.8,388.64,389.5,388.64L389.5,388.64z"/>
<path fill="none" stroke="#000000" stroke-width="0.5" stroke-linecap="square" stroke-miterlimit="10" d="M389.5,388.64  C387.853,388.64,387.853,388.64,389.5,388.64L389.5,388.64z"/>
<path fill="none" stroke="#000000" stroke-width="0.5" stroke-linecap="square" stroke-miterlimit="10" d="M389.5,388.64  C388.38,388.64,388.38,388.64,389.5,388.64L389.5,388.64z"/>
<path fill="none" stroke="#000000" stroke-width="0.5" stroke-linecap="square" stroke-miterlimit="10" d="M391.75,387.89  c-2.085,0.071-2.8,4.331-5.25,0C388.825,384.567,389.954,387.952,391.75,387.89z"/>
<path fill="none" stroke="#000000" stroke-width="0.5" stroke-linecap="square" stroke-miterlimit="10" d="M391,387.89  C386.154,387.89,386.154,387.89,391,387.89L391,387.89z"/>
<path fill="none" stroke="#000000" stroke-width="0.5" stroke-linecap="square" stroke-miterlimit="10" d="M388,388.64  C389.647,388.64,389.647,388.64,388,388.64L388,388.64z"/>
<path fill="none" stroke="#000000" stroke-width="0.5" stroke-linecap="square" stroke-miterlimit="10" d="M391,387.89  C386.855,388.264,386.017,388.339,391,387.89L391,387.89z"/>
<path fill="none" stroke="#000000" stroke-width="0.5" stroke-linecap="square" stroke-miterlimit="10" d="M391,387.89  C386.959,388.425,385.937,388.56,391,387.89L391,387.89z"/>
<path fill="none" stroke="#000000" stroke-width="0.5" stroke-linecap="square" stroke-miterlimit="10" d="M390.25,387.89  C387.506,388.508,387.109,388.597,390.25,387.89L390.25,387.89z"/>
<path fill="none" stroke="#000000" stroke-width="0.5" stroke-linecap="square" stroke-miterlimit="10" d="M390.25,387.89  C387.299,388.607,387.764,388.494,390.25,387.89L390.25,387.89z"/>
<path fill="none" stroke="#000000" stroke-width="0.5" stroke-linecap="square" stroke-miterlimit="10" d="M390.25,388.64  C387.709,388.257,387.444,388.217,390.25,388.64L390.25,388.64z"/>
<path fill="none" stroke="#000000" stroke-width="0.5" stroke-linecap="square" stroke-miterlimit="10" d="M389.5,388.64  C387.853,388.64,387.853,388.64,389.5,388.64L389.5,388.64z"/>
<path fill="none" stroke="#000000" stroke-width="0.5" stroke-linecap="square" stroke-miterlimit="10" d="M389.5,388.64  C388.896,388.037,388.896,388.037,389.5,388.64L389.5,388.64z"/>
<path fill="none" stroke="#000000" stroke-width="0.5" stroke-linecap="square" stroke-miterlimit="10" d="M389.5,388.64  C388.5,388.64,388.5,388.64,389.5,388.64L389.5,388.64z"/>
<path fill="none" stroke="#000000" stroke-width="0.5" stroke-linecap="square" stroke-miterlimit="10" d="M391,387.89  C387.593,388.498,387.164,388.574,391,387.89L391,387.89z"/>
<path fill="none" stroke="#000000" stroke-width="0.5" stroke-linecap="square" stroke-miterlimit="10" d="M390.25,387.89  C387.742,388.099,387.647,388.107,390.25,387.89L390.25,387.89z"/>
<path fill="none" stroke="#000000" stroke-width="0.5" stroke-linecap="square" stroke-miterlimit="10" d="M388.75,388.64  C389.75,388.64,389.75,388.64,388.75,388.64L388.75,388.64z"/>
<path fill="none" stroke="#000000" stroke-width="0.5" stroke-linecap="square" stroke-miterlimit="10" d="M390.25,388.64  C387.791,387.892,388.428,388.085,390.25,388.64L390.25,388.64z"/>
<path fill="none" stroke="#000000" stroke-width="0.5" stroke-linecap="square" stroke-miterlimit="10" d="M390.25,388.64  C387.615,388.136,388.569,388.319,390.25,388.64L390.25,388.64z"/>
<path fill="none" stroke="#000000" stroke-width="0.5" stroke-linecap="square" stroke-miterlimit="10" d="M390.25,388.64  C387.615,388.136,388.569,388.319,390.25,388.64L390.25,388.64z"/>
<path fill="none" stroke="#000000" stroke-width="0.5" stroke-linecap="square" stroke-miterlimit="10" d="M390.25,388.64  C388.392,388.191,388.807,388.292,390.25,388.64L390.25,388.64z"/>
<path fill="none" stroke="#000000" stroke-width="0.5" stroke-linecap="square" stroke-miterlimit="10" d="M389.5,388.64  C388.896,388.037,388.896,388.037,389.5,388.64L389.5,388.64z"/>
<path fill="none" stroke="#000000" stroke-width="0.5" stroke-linecap="square" stroke-miterlimit="10" d="M389.5,388.64  C388.896,388.037,388.896,388.037,389.5,388.64L389.5,388.64z"/>
</svg>