<svg xmlns="http://www.w3.org/2000/svg" xmlns:xlink="http://www.w3.org/1999/xlink" version="1.1" id="Layer_1" x="0px" y="0px" enable-background="new 0 0 822.05 841.89" xml:space="preserve" viewBox="321.95 341.75 175.65 160.39">
<path fill-rule="evenodd" clip-rule="evenodd" fill="#D2D1D2" stroke="#000000" stroke-width="1.25" stroke-linecap="square" stroke-miterlimit="10" d="  M374.205,393.39c-13.839,3.825-31.905-4.748-20.25-21.75C365.821,354.331,376.751,383.457,374.205,393.39z"/>
<path fill-rule="evenodd" clip-rule="evenodd" fill="#F7F619" stroke="#000000" stroke-width="1.25" stroke-linecap="square" stroke-miterlimit="10" d="  M374.955,403.14c1.489-6.709,0-14.837,0-21.75c-11.14,4.31-9.979,2.761-21.75,0c2.898,14.925-27.01,56.623,4.5,61.875  C381.87,447.292,397.757,418.259,374.955,403.14z"/>
<path fill-rule="evenodd" clip-rule="evenodd" fill="#D2D1D2" stroke="#000000" stroke-width="1.25" stroke-linecap="square" stroke-miterlimit="10" d="  M372.705,369.39C352.532,384.649,352.532,354.131,372.705,369.39L372.705,369.39z"/>
<path fill-rule="evenodd" clip-rule="evenodd" fill="#FFFFFF" stroke="#000000" stroke-linecap="square" stroke-miterlimit="10" d="  M366.705,368.64C350.108,366.6,366.705,310.286,366.705,368.64L366.705,368.64z"/>
<path fill-rule="evenodd" clip-rule="evenodd" fill="#FFFFFF" d="M339.705,442.89l-17.25,15.75L339.705,442.89z"/>
<line fill="none" stroke="#000000" stroke-linecap="square" stroke-miterlimit="10" x1="339.705" y1="442.89" x2="322.455" y2="458.64"/>
<path fill-rule="evenodd" clip-rule="evenodd" fill="#FFFFFF" d="M353.955,453.39l-14.25,38.25L353.955,453.39z"/>
<line fill="none" stroke="#000000" stroke-linecap="square" stroke-miterlimit="10" x1="353.955" y1="453.39" x2="339.705" y2="491.64"/>
<path fill-rule="evenodd" clip-rule="evenodd" fill="#FFFFFF" d="M371.205,451.89l1.5,21L371.205,451.89z"/>
<line fill="none" stroke="#000000" stroke-linecap="square" stroke-miterlimit="10" x1="371.205" y1="451.89" x2="372.705" y2="472.89"/>
<path fill-rule="evenodd" clip-rule="evenodd" fill="#FFFFFF" d="M383.955,447.39l11.25,15.75L383.955,447.39z"/>
<line fill="none" stroke="#000000" stroke-linecap="square" stroke-miterlimit="10" x1="383.955" y1="447.39" x2="395.205" y2="463.14"/>
<path fill-rule="evenodd" clip-rule="evenodd" fill="#FFFFFF" d="M391.455,430.14l8.25,3L391.455,430.14z"/>
<line fill="none" stroke="#000000" stroke-linecap="square" stroke-miterlimit="10" x1="391.455" y1="430.14" x2="399.705" y2="433.14"/>
<path fill-rule="evenodd" clip-rule="evenodd" fill="#FFFFFF" d="M333.705,424.14h-11.25H333.705z"/>
<line fill="none" stroke="#000000" stroke-linecap="square" stroke-miterlimit="10" x1="333.705" y1="424.14" x2="322.455" y2="424.14"/>
<path fill-rule="evenodd" clip-rule="evenodd" fill="#FFFFFF" d="M338.205,403.14l-9.75-9L338.205,403.14z"/>
<line fill="none" stroke="#000000" stroke-linecap="square" stroke-miterlimit="10" x1="338.205" y1="403.14" x2="328.455" y2="394.14"/>
<path fill-rule="evenodd" clip-rule="evenodd" fill="#FFFFFF" d="M388.455,405.39l9.75-9.75L388.455,405.39z"/>
<line fill="none" stroke="#000000" stroke-linecap="square" stroke-miterlimit="10" x1="388.455" y1="405.39" x2="398.205" y2="395.64"/>
<path fill="none" stroke="#000000" stroke-linecap="square" stroke-miterlimit="10" d="M362.955,384.39c-1.5,10.5-3,21-4.5,31.5  c3.75,0,7.5,0,11.25,0c-1-10.5-2-21-3-31.5"/>
<path fill-rule="evenodd" clip-rule="evenodd" fill="#D2D1D2" stroke="#000000" stroke-width="1.25" stroke-linecap="square" stroke-miterlimit="10" d="  M485.209,394.89c-13.839,3.825-31.904-4.748-20.25-21.75C476.824,355.831,487.755,384.957,485.209,394.89z"/>
<path fill-rule="evenodd" clip-rule="evenodd" fill="#D2D1D2" stroke="#000000" stroke-width="1.25" stroke-linecap="square" stroke-miterlimit="10" d="  M485.959,404.64c1.438-6.748,0-14.813,0-21.75c-11.24,4.437-10.06,2.749-21.75,0c1.653,14.849-26.488,56.71,4.5,61.875  C492.953,448.806,508.681,419.891,485.959,404.64z"/>
<path fill-rule="evenodd" clip-rule="evenodd" fill="#D2D1D2" stroke="#000000" stroke-width="1.25" stroke-linecap="square" stroke-miterlimit="10" d="  M483.709,370.89C463.563,387.559,463.563,354.222,483.709,370.89L483.709,370.89z"/>
<path fill-rule="evenodd" clip-rule="evenodd" fill="#FFFFFF" stroke="#000000" stroke-linecap="square" stroke-miterlimit="10" d="  M477.709,370.14C459.581,368.865,477.709,311.216,477.709,370.14L477.709,370.14z"/>
<path fill="none" stroke="#000000" stroke-linecap="square" stroke-miterlimit="10" d="M473.959,385.89c-1.5,10.5-3,21-4.5,31.5  c3.75,0,7.5,0,11.25,0c-1-10.5-2-21-3-31.5"/>
<path fill-rule="evenodd" clip-rule="evenodd" fill="#F8130D" stroke="#000000" stroke-width="1.5" stroke-linecap="square" stroke-miterlimit="10" d="  M426.709,475.89c-9.501,8.5-19.002,17-28.504,25.5c-26.143-20.728,33.423-23.898,12.75-43.5c13.751-3.75,27.503-7.5,41.254-11.25  c-6,12.5-12,25-18,37.5C431.709,481.39,429.209,478.64,426.709,475.89z"/>
</svg>