<svg xmlns="http://www.w3.org/2000/svg" xmlns:xlink="http://www.w3.org/1999/xlink" version="1.1" id="Layer_1" x="0px" y="0px" enable-background="new 0 0 822.05 841.89" xml:space="preserve" viewBox="260.34 244.41 293.15 354.46">
<path fill-rule="evenodd" clip-rule="evenodd" fill="#BCBEC0" stroke="#000000" stroke-width="2" stroke-linecap="square" stroke-miterlimit="10" d="  M487.25,594.89c-50.928,0-101.855,0-152.783,0c-40.736,0-66.967,16.137-66.967-26.699c0-61.656,0-123.312,0-184.969  c0-18.701-13.865-121.837,0-134.832c5.435-5.093,40.366,0,47.466,0c35.106,0,70.212,0,105.317,0  c40.735,0,66.967-16.136,66.967,26.699C487.25,381.689,487.25,488.29,487.25,594.89z"/>
<path fill-rule="evenodd" clip-rule="evenodd" fill="#DBDDE6" stroke="#000000" stroke-width="2" stroke-linecap="square" stroke-miterlimit="10" d="  M365,404.39c-25.078,0-84.75,15.042-84.75-14.82c0-21.154-13.785-113.553,0-127.68c6.426-6.586,53.221,0,62.778,0  c19.808,0,21.972-4.512,21.972,14.82C365,319.27,365,361.83,365,404.39z"/>
<line fill="none" stroke="#000000" stroke-width="2" stroke-linecap="square" stroke-miterlimit="10" x1="299" y1="278.39" x2="346.25" y2="278.39"/>
<line fill="none" stroke="#000000" stroke-width="2" stroke-linecap="square" stroke-miterlimit="10" x1="299" y1="289.64" x2="346.25" y2="289.64"/>
<line fill="none" stroke="#000000" stroke-width="2" stroke-linecap="square" stroke-miterlimit="10" x1="299" y1="298.64" x2="346.25" y2="298.64"/>
<path fill="none" stroke="#000000" stroke-width="2" stroke-linecap="square" stroke-miterlimit="10" d="M353,348.14  c-7.153,14.579-22.421,6.987-18-9C339.855,321.583,355.665,333.552,353,348.14z"/>
<path fill-rule="evenodd" clip-rule="evenodd" fill="#DBDDE6" stroke="#000000" stroke-width="2" stroke-linecap="square" stroke-miterlimit="10" d="  M470.75,404.39c-25.138,0-85.5,15.103-85.5-14.82c0-21.242-13.813-113.436,0-127.68c6.428-6.628,53.735,0,63.333,0  c19.884,0,22.167-4.581,22.167,14.82C470.75,319.27,470.75,361.83,470.75,404.39z"/>
<line fill="none" stroke="#000000" stroke-width="2" stroke-linecap="square" stroke-miterlimit="10" x1="404.752" y1="278.39" x2="452" y2="278.39"/>
<line fill="none" stroke="#000000" stroke-width="2" stroke-linecap="square" stroke-miterlimit="10" x1="404.752" y1="289.64" x2="452" y2="289.64"/>
<line fill="none" stroke="#000000" stroke-width="2" stroke-linecap="square" stroke-miterlimit="10" x1="404.752" y1="298.64" x2="452" y2="298.64"/>
<path fill="none" stroke="#000000" stroke-width="2" stroke-linecap="square" stroke-miterlimit="10" d="M458.75,348.14  c-7.669,13.756-22.771,7.568-18-9C445.727,321.858,460.668,333.878,458.75,348.14z"/>
<path fill-rule="evenodd" clip-rule="evenodd" fill="#DBDDE6" stroke="#000000" stroke-width="2" stroke-linecap="square" stroke-miterlimit="10" d="  M367.25,569.39c-25.078,0-84.75,15.042-84.75-14.82c0-21.153-13.785-113.552,0-127.68c6.426-6.586,53.221,0,62.778,0  c19.808,0,21.972-4.512,21.972,14.82C367.25,484.27,367.25,526.831,367.25,569.39z"/>
<line fill="none" stroke="#000000" stroke-width="2" stroke-linecap="square" stroke-miterlimit="10" x1="301.25" y1="443.39" x2="348.5" y2="443.39"/>
<line fill="none" stroke="#000000" stroke-width="2" stroke-linecap="square" stroke-miterlimit="10" x1="301.25" y1="454.64" x2="348.5" y2="454.64"/>
<line fill="none" stroke="#000000" stroke-width="2" stroke-linecap="square" stroke-miterlimit="10" x1="301.25" y1="463.64" x2="348.5" y2="463.64"/>
<path fill="none" stroke="#000000" stroke-width="2" stroke-linecap="square" stroke-miterlimit="10" d="M355.25,513.14  c-7.362,14.673-21.836,7.053-18-9C341.362,486.933,358.069,498.057,355.25,513.14z"/>
<path fill-rule="evenodd" clip-rule="evenodd" fill="#DBDDE6" stroke="#000000" stroke-width="2" stroke-linecap="square" stroke-miterlimit="10" d="  M472.25,569.39c-25.138,0-85.5,15.103-85.5-14.82c0-21.241-13.813-113.436,0-127.68c6.428-6.628,53.735,0,63.333,0  c19.884,0,22.167-4.581,22.167,14.82C472.25,484.27,472.25,526.831,472.25,569.39z"/>
<line fill="none" stroke="#000000" stroke-width="2" stroke-linecap="square" stroke-miterlimit="10" x1="405.502" y1="443.39" x2="452.75" y2="443.39"/>
<line fill="none" stroke="#000000" stroke-width="2" stroke-linecap="square" stroke-miterlimit="10" x1="405.502" y1="454.64" x2="452.75" y2="454.64"/>
<line fill="none" stroke="#000000" stroke-width="2" stroke-linecap="square" stroke-miterlimit="10" x1="405.502" y1="463.64" x2="452.75" y2="463.64"/>
<path fill="none" stroke="#000000" stroke-width="2" stroke-linecap="square" stroke-miterlimit="10" d="M459.5,513.14  c-7.362,14.673-21.837,7.053-18-9C445.612,486.933,462.319,498.057,459.5,513.14z"/>
<path fill-rule="evenodd" clip-rule="evenodd" fill="#ED1C24" stroke="#000000" stroke-width="2" stroke-linecap="square" stroke-miterlimit="10" d="  M538.25,351.89c17.422,23.906-13.791,38.637-33.75,44.625c-21.617,6.485-59.06-16.347-69,1.875c-4-8.75-8-17.5-12-26.25  c8.75-3.75,17.5-7.5,26.25-11.25C446.411,403.077,525.764,374.755,538.25,351.89z"/>
<path fill-rule="evenodd" clip-rule="evenodd" fill="#ED1C24" stroke="#000000" stroke-width="2" stroke-linecap="square" stroke-miterlimit="10" d="  M548,516.89c15.908,23.553-14.099,39.163-34.125,44.625c-21.39,5.834-58.957-15.848-68.625,1.875  c-12.63-27.628-13.974-25.321,13.5-38.25C450.5,568.853,535.145,536.076,548,516.89z"/>
<path fill-rule="evenodd" clip-rule="evenodd" fill="#ED1C24" stroke="#000000" stroke-width="2" stroke-linecap="square" stroke-miterlimit="10" d="  M411.502,348.89c16.378,25.262-13.209,38.462-33.752,44.625c-21.705,6.512-59.642-15.167-69,1.875c-4-8.75-8-17.5-12-26.25  c8.75-3.75,17.5-7.5,26.25-11.25C313.518,400.298,398.571,369.468,411.502,348.89z"/>
<path fill-rule="evenodd" clip-rule="evenodd" fill="#ED1C24" stroke="#000000" stroke-width="2" stroke-linecap="square" stroke-miterlimit="10" d="  M419,513.89c16.419,25.319-13.133,38.439-33.75,44.625c-21.705,6.512-59.642-15.168-69,1.875c-4-8.75-8-17.5-12-26.25  c8.75-3.75,17.5-7.5,26.25-11.25C326.729,567.474,406.24,534.514,419,513.89z"/>
</svg>