<svg xmlns="http://www.w3.org/2000/svg" xmlns:xlink="http://www.w3.org/1999/xlink" version="1.1" id="Layer_1" x="0px" y="0px" enable-background="new 0 0 822.05 841.89" xml:space="preserve" viewBox="198 303.51 422.87 229.58">
<path fill-rule="evenodd" clip-rule="evenodd" fill="#FFF200" stroke="#000000" stroke-width="2" stroke-linecap="square" stroke-miterlimit="10" d="  M437.25,350.642c-49.768-20.169-189.947-78.987-232.875-21.75c-39.099,52.132,146.85,137.453,176.344,150.094  c39.584,16.965,203.951,83.421,235.031,24.656C648.524,441.673,476.298,366.529,437.25,350.642z M600,492.392  c-47.642,80.711-418.801-89.94-381.75-160.5c25.964-49.447,180.137,13.917,213,27.75C469.374,375.689,615.794,434.093,600,492.392z"/>
<path fill-rule="evenodd" clip-rule="evenodd" fill="#BCBEC0" stroke="#000000" stroke-width="2" stroke-linecap="square" stroke-miterlimit="10" d="  M528,421.892c-1.418,146.981-228,146.877-228,0C300,274.936,526.581,274.852,528,421.892z"/>
<path fill-rule="evenodd" clip-rule="evenodd" fill="#BCBEC0" stroke="#000000" stroke-width="2" stroke-linecap="square" stroke-miterlimit="10" d="  M394.5,310.892c22.888-4.886,52.91-4.603,71.25,12C445.815,328.223,412.937,342.584,394.5,310.892z"/>
<path fill-rule="evenodd" clip-rule="evenodd" fill="#BCBEC0" stroke="#000000" stroke-width="2" stroke-linecap="square" stroke-miterlimit="10" d="  M358.5,361.142c-21.673,8.525-16.226,25.926-15.828,45.006c0.21,10.104,15.309-0.313,18.828,5.244c3.368,5.319,4.553,17.664,5.25,24  c1.527,13.885,10.484,6.533-2.139,19.944c-4.71,5.005-4.652,13.693-3.861,20.556c1.436,12.466,6.929,23.522,21.75,24  c20.667,0.666,32.501-26.963,40.973-37.389c3.431-4.223,41.682-9.351,20.902-23.736c-11.446-7.925-15.741-30.687-10.125-43.125  c-12.696-3.035-27.602-9.604-33-21.75C396.227,362.589,371.25,367.084,358.5,361.142z"/>
<path fill-rule="evenodd" clip-rule="evenodd" fill="#BCBEC0" stroke="#000000" stroke-width="2" stroke-linecap="square" stroke-miterlimit="10" d="  M382.5,344.642c-1.5,3.25-3,6.5-4.5,9.75c15.22,0,26.185-4.607,33.751,8.625c7.734,13.526,26.922,8.007,32.999,14.625  c9.716,10.579-6.082,60.24,25.5,54c-2.48-4.546-2.466-10.655-5.25-15c20.199,14.136,24.742,15.66,32.25,42  c7.454-7.678,16.29-12.595,24.75-5.25c6.978-21.527,7.003-45.277,0-66.75c-4.177-12.807-11.823-31.731-23.25-39.75  c-21.851-15.333-12.813,1.916-34.527-0.917c-9.212-1.202-7.991-0.392-14.598,8.417c-1.007,1.342-20.092-6.762-25.875-8.25  C414.755,343.828,391.252,340.598,382.5,344.642z"/>
<path fill-rule="evenodd" clip-rule="evenodd" fill="#BCBEC0" stroke="#000000" stroke-width="2" stroke-linecap="square" stroke-miterlimit="10" d="  M422.25,493.142c-2.999,1.75-5.999,3.5-8.998,5.25C436.549,532.287,444.75,465.938,422.25,493.142z"/>
<path fill-rule="evenodd" clip-rule="evenodd" fill="#FFF200" stroke="#000000" stroke-width="2" stroke-linecap="square" stroke-miterlimit="10" d="  M294,420.392c33.099,19.953,68.985,37.918,104.972,52c17.123,6.7,34.145,13.753,51.75,19.111  c15.873,4.831,51.354,3.579,45.777,24.139C462.373,509.901,284.624,460.23,294,420.392z"/>
<path fill-rule="evenodd" clip-rule="evenodd" fill="#ED1C24" stroke="#000000" stroke-width="2" stroke-linecap="square" stroke-miterlimit="10" d="  M204,475.892c16.589,18.801,16.693,30.52,36.501,13.397c20.643-17.844,28.03-35.613,47.499-8.897c1.75-16.75,3.5-33.5,5.25-50.25  c-19-1.5-38-3-57-4.5c5.75,7.25,11.5,14.5,17.25,21.75C237,456.892,220.5,466.392,204,475.892z"/>
</svg>