<svg xmlns="http://www.w3.org/2000/svg" xmlns:xlink="http://www.w3.org/1999/xlink" version="1.1" id="Layer_1" x="0px" y="0px" enable-background="new 0 0 822.05 841.89" xml:space="preserve" viewBox="349.2 342.6 124.25 159.07">
<path fill-rule="evenodd" clip-rule="evenodd" fill="#F5CB99" stroke="#000000" stroke-width="1.25" stroke-linecap="square" stroke-miterlimit="10" d="  M427.072,400.541c5.577-15.217-9.535-34.858,0.375-51.375c4.377-7.294,14.727-8.667,18.375,0.375  c5.675,14.064-12.263,6.74-13.5,16.5c-2.09,16.483,20.468,38.46,9.375,53.25C430.549,434.155,416.554,408.811,427.072,400.541z"/>
<path fill-rule="evenodd" clip-rule="evenodd" fill="#F5CB99" stroke="#000000" stroke-width="1.25" stroke-linecap="square" stroke-miterlimit="10" d="  M417.322,435.039c21.144,9.825,19.842,51.674,55.5,57c-3.55-0.897-8.39-1.229-12-1.5c3.125,1.428,8.895,4.314,11.25,5.25  c-3.119-0.94-8.695-2.306-12.75-3.75c3.689,2.482,8.046,6.165,11.25,8.25c-7.29-3.841-19.042-7.556-27.75-7.5  c7.416-7.158-29.402-38.202-36.75-51.75C412.727,441.476,412.27,436.847,417.322,435.039z"/>
<path fill-rule="evenodd" clip-rule="evenodd" fill="#F5CB99" stroke="#000000" stroke-width="1.25" stroke-linecap="square" stroke-miterlimit="10" d="  M402.322,435.789c4.653,0.962,8.394,4.574,13.5,5.25c-9.272,9.944-67.446,47.527-27,54.75c-3.672,1.204-6.229-1.566-9-2.25  c2.58,1.98,6.297,2.011,8.25,4.5c-4.472,0.301-6.292-1.336-11.25-3c3.037,2.68,4.229,2.631,3.75,6  c-8.517-2.559-10.934-4.162-19.5-5.25C376.49,475.205,381.503,451.086,402.322,435.789z"/>
<path fill-rule="evenodd" clip-rule="evenodd" fill="#FFFFFF" stroke="#000000" stroke-width="1.25" stroke-linecap="square" stroke-miterlimit="10" d="  M388.072,399.791c0.244,9.675-10.63,21.839-8.25,29.998c4.088-1.551-9.237,4.237-11.25,4.5c-0.447-1.665-0.197-3.165,0.75-4.5  c-1.958,0.787-5.482,2.981-7.5,3c0.028-2.3,1.028-4.05,3-5.25c-1.75,0.75-3.5,1.5-5.25,2.25c0.75-2.25,1.5-4.5,2.25-6.75  c-1.75,0.75-3.5,1.5-5.25,2.25c0.282-2.467,2.182-5.143,2.25-7.498c-1.711,0.634-3.461,1.134-5.25,1.5  c-0.291-3.336,3.146-5.721,4.5-8.25c-3.169,0.689-5.4,2.465-8.25,3.75c3.904-4.458,6.665-8.778,11.25-12.75  c-1.939,0.743-3.939,0.993-6,0.75c5.854-2.387,8.009-4.57,15-5.25c-1.331-1.804-5.132-3.404-6-5.25  c5.078-0.376,8.668,0.837,13.5,2.25c-0.75-1.5-1.5-3-2.25-4.5C382.541,391.034,384.375,394.625,388.072,399.791z"/>
<path fill-rule="evenodd" clip-rule="evenodd" stroke="#000000" stroke-width="1.25" stroke-linecap="square" stroke-miterlimit="10" d="  M425.572,405.041c2.654,1.291,6.891-0.757,2.25,3c3.354,0.549,4.159,0.079,7.5-0.75c-0.251,2.925-2.837,2.924-4.5,4.5  c2.834,1.023,6.642-1.866,9-3c1.37,2.645-1.84,5.285-1.5,7.5c2.18-2.858,5.327-5.56,6.75-9c7.293,34.946-43.562,48.651-55.5,30.748  c-2.166,0.077-4.536,1.621-6.75,1.5c0.276-1.947,1.276-3.447,3-4.5c-2.75,0.75-5.5,1.5-8.25,2.25c0.5-1.75,1-3.5,1.5-5.25  c-2.312,0.307-4.529,2.038-6.75,2.25c2.887-12.612-4.036-19.925,6-32.248c-1.25,0-2.5,0-3.75,0c3.513-3.444,8.383-5.215,12.75-6.75  c-1-0.5-2-1-3-1.5c11.33-2.553,19.845-1.841,30.75,0.75c-0.421-1.237-1.171-2.237-2.25-3  C425.006,392.23,424.626,397.103,425.572,405.041z"/>
<path fill-rule="evenodd" clip-rule="evenodd" fill="#878787" stroke="#000000" stroke-width="1.25" stroke-linecap="square" stroke-miterlimit="10" d="  M440.572,354.791c6.912-1.765,11.811-4.175,19.5-0.75C451.337,360.736,442.992,363.784,440.572,354.791z"/>
<path fill-rule="evenodd" clip-rule="evenodd" fill="#878787" stroke="#000000" stroke-width="1.25" stroke-linecap="square" stroke-miterlimit="10" d="  M444.322,346.541c5.699,1.906,15.473,7.197,20.25,8.25c-6.511,1.724-16.73,2.835-24,2.25  C439.905,352.694,441.964,350.276,444.322,346.541z"/>
<path fill="none" stroke="#000000" stroke-width="1.25" stroke-linecap="square" stroke-miterlimit="10" d="M448.072,352.541  C446.429,353.427,447.431,352.887,448.072,352.541L448.072,352.541z"/>
<path fill-rule="evenodd" clip-rule="evenodd" fill="#FFFFFF" stroke="#000000" stroke-width="1.25" stroke-linecap="square" stroke-miterlimit="10" d="  M403.072,406.541c-5.952,2.16-10.939,3.061-15,9c2,0,4,0,6,0c-2.303-0.139-3.803,0.861-4.5,3c2.762,1.989,3.857,0.521,6.75,0.75  c-1.245,1.049-2.245,2.298-3,3.748c0.436,0.228,5.558-0.939,6.75-0.75C407.638,428.169,424.498,412.517,403.072,406.541z"/>
<path fill="none" stroke="#000000" stroke-width="1.25" stroke-linecap="square" stroke-miterlimit="10" d="M437.572,350.291  C436.969,349.687,436.969,349.687,437.572,350.291L437.572,350.291z"/>
<path fill="none" stroke="#000000" stroke-width="1.25" stroke-linecap="square" stroke-miterlimit="10" d="M437.572,350.291  C436.969,349.687,436.969,349.687,437.572,350.291L437.572,350.291z"/>
<path fill="none" stroke="#000000" stroke-width="1.25" stroke-linecap="square" stroke-miterlimit="10" d="M439.072,349.541  C435.089,349.541,435.089,349.541,439.072,349.541L439.072,349.541z"/>
<path fill="none" stroke="#000000" stroke-width="1.25" stroke-linecap="square" stroke-miterlimit="10" d="M439.072,349.541  C435.438,349.541,435.438,349.541,439.072,349.541L439.072,349.541z"/>
<path fill="none" stroke="#000000" stroke-width="1.25" stroke-linecap="square" stroke-miterlimit="10" d="M436.822,350.291  C438.466,349.404,437.464,349.944,436.822,350.291L436.822,350.291z"/>
<path fill="none" stroke="#000000" stroke-width="1.25" stroke-linecap="square" stroke-miterlimit="10" d="M438.322,349.541  C435.762,349.541,435.762,349.541,438.322,349.541L438.322,349.541z"/>
<path fill="none" stroke="#000000" stroke-width="1.25" stroke-linecap="square" stroke-miterlimit="10" d="M438.322,349.541  C436.281,349.541,436.281,349.541,438.322,349.541L438.322,349.541z"/>
<path fill="none" stroke="#000000" stroke-width="1.25" stroke-linecap="square" stroke-miterlimit="10" d="M438.322,349.541  C436.641,349.862,435.688,350.044,438.322,349.541L438.322,349.541z"/>
<path fill="none" stroke="#000000" stroke-width="1.25" stroke-linecap="square" stroke-miterlimit="10" d="M438.322,349.541  C436.879,349.889,436.465,349.99,438.322,349.541L438.322,349.541z"/>
<path fill="none" stroke="#000000" stroke-width="1.25" stroke-linecap="square" stroke-miterlimit="10" d="M438.322,349.541  C436.879,349.889,436.465,349.99,438.322,349.541L438.322,349.541z"/>
<path fill="none" stroke="#000000" stroke-width="1.25" stroke-linecap="square" stroke-miterlimit="10" d="M437.572,350.291  C436.969,349.687,436.969,349.687,437.572,350.291L437.572,350.291z"/>
<path fill="none" stroke="#000000" stroke-width="1.25" stroke-linecap="square" stroke-miterlimit="10" d="M437.572,350.291  C436.969,349.687,436.969,349.687,437.572,350.291L437.572,350.291z"/>
<path fill="none" stroke="#000000" stroke-width="1.25" stroke-linecap="square" stroke-miterlimit="10" d="M437.572,350.291  C436.969,349.687,436.969,349.687,437.572,350.291L437.572,350.291z"/>
<path fill="none" stroke="#000000" stroke-width="1.25" stroke-linecap="square" stroke-miterlimit="10" d="M439.072,349.541  C435.574,349.736,435.297,349.751,439.072,349.541L439.072,349.541z"/>
<path fill="none" stroke="#000000" stroke-width="1.25" stroke-linecap="square" stroke-miterlimit="10" d="M438.322,349.541  C435.762,349.541,435.762,349.541,438.322,349.541L438.322,349.541z"/>
<path fill="none" stroke="#000000" stroke-width="1.25" stroke-linecap="square" stroke-miterlimit="10" d="M436.822,350.291  C438.466,349.404,437.464,349.944,436.822,350.291L436.822,350.291z"/>
<path fill="none" stroke="#000000" stroke-width="1.25" stroke-linecap="square" stroke-miterlimit="10" d="M438.322,349.541  C436.281,349.541,436.281,349.541,438.322,349.541L438.322,349.541z"/>
<path fill="none" stroke="#000000" stroke-width="1.25" stroke-linecap="square" stroke-miterlimit="10" d="M438.322,349.541  C436.641,349.862,435.688,350.044,438.322,349.541L438.322,349.541z"/>
<path fill="none" stroke="#000000" stroke-width="1.25" stroke-linecap="square" stroke-miterlimit="10" d="M438.322,349.541  C436.806,350.006,436.535,350.089,438.322,349.541L438.322,349.541z"/>
<path fill="none" stroke="#000000" stroke-width="1.25" stroke-linecap="square" stroke-miterlimit="10" d="M438.322,349.541  C436.879,349.889,436.465,349.99,438.322,349.541L438.322,349.541z"/>
<path fill="none" stroke="#000000" stroke-width="1.25" stroke-linecap="square" stroke-miterlimit="10" d="M438.322,349.541  C436.879,349.889,436.465,349.99,438.322,349.541L438.322,349.541z"/>
<path fill="none" stroke="#000000" stroke-width="1.25" stroke-linecap="square" stroke-miterlimit="10" d="M437.572,350.291  C436.969,349.687,436.969,349.687,437.572,350.291L437.572,350.291z"/>
<path fill="none" stroke="#000000" stroke-width="1.25" stroke-linecap="square" stroke-miterlimit="10" d="M437.572,350.291  C436.969,349.687,436.969,349.687,437.572,350.291L437.572,350.291z"/>
<path fill="none" stroke="#000000" stroke-width="1.25" stroke-linecap="square" stroke-miterlimit="10" d="M437.572,350.291  C437.572,349.291,437.572,349.291,437.572,350.291L437.572,350.291z"/>
<path fill="none" stroke="#000000" stroke-width="1.25" stroke-linecap="square" stroke-miterlimit="10" d="M439.072,349.541  C435.934,349.541,435.934,349.541,439.072,349.541L439.072,349.541z"/>
<path fill="none" stroke="#000000" stroke-width="1.25" stroke-linecap="square" stroke-miterlimit="10" d="M438.322,349.541  C436.281,349.541,436.281,349.541,438.322,349.541L438.322,349.541z"/>
<path fill="none" stroke="#000000" stroke-width="1.25" stroke-linecap="square" stroke-miterlimit="10" d="M436.822,350.291  C438.466,349.404,437.464,349.944,436.822,350.291L436.822,350.291z"/>
<path fill="none" stroke="#000000" stroke-width="1.25" stroke-linecap="square" stroke-miterlimit="10" d="M438.322,349.541  C436.806,350.006,436.535,350.089,438.322,349.541L438.322,349.541z"/>
<path fill="none" stroke="#000000" stroke-width="1.25" stroke-linecap="square" stroke-miterlimit="10" d="M438.322,349.541  C436.879,349.889,436.465,349.99,438.322,349.541L438.322,349.541z"/>
<path fill="none" stroke="#000000" stroke-width="1.25" stroke-linecap="square" stroke-miterlimit="10" d="M438.322,349.541  C436.879,349.889,436.465,349.99,438.322,349.541L438.322,349.541z"/>
<path fill="none" stroke="#000000" stroke-width="1.25" stroke-linecap="square" stroke-miterlimit="10" d="M438.322,349.541  C436.879,349.889,436.465,349.99,438.322,349.541L438.322,349.541z"/>
<path fill="none" stroke="#000000" stroke-width="1.25" stroke-linecap="square" stroke-miterlimit="10" d="M438.322,349.541  C436.879,349.889,436.465,349.99,438.322,349.541L438.322,349.541z"/>
<path fill="none" stroke="#000000" stroke-width="1.25" stroke-linecap="square" stroke-miterlimit="10" d="M437.572,350.291  C436.969,349.687,436.969,349.687,437.572,350.291L437.572,350.291z"/>
<path fill="none" stroke="#000000" stroke-width="1.25" stroke-linecap="square" stroke-miterlimit="10" d="M437.572,350.291  C437.572,349.291,437.572,349.291,437.572,350.291L437.572,350.291z"/>
<path fill="none" stroke="#000000" stroke-width="1.25" stroke-linecap="square" stroke-miterlimit="10" d="M437.572,350.291  C437.572,349.291,437.572,349.291,437.572,350.291L437.572,350.291z"/>
<path fill="none" stroke="#000000" stroke-width="1.25" stroke-linecap="square" stroke-miterlimit="10" d="M438.322,349.541  C436.879,349.889,436.465,349.99,438.322,349.541L438.322,349.541z"/>
<path fill="none" stroke="#000000" stroke-width="1.25" stroke-linecap="square" stroke-miterlimit="10" d="M438.322,349.541  C436.879,349.889,436.465,349.99,438.322,349.541L438.322,349.541z"/>
<path fill="none" stroke="#000000" stroke-width="1.25" stroke-linecap="square" stroke-miterlimit="10" d="M437.572,350.291  C437.572,349.291,437.572,349.291,437.572,350.291L437.572,350.291z"/>
<path fill="none" stroke="#000000" stroke-width="1.25" stroke-linecap="square" stroke-miterlimit="10" d="M438.322,349.541  C436.879,349.889,436.465,349.99,438.322,349.541L438.322,349.541z"/>
<path fill="none" stroke="#000000" stroke-width="1.25" stroke-linecap="square" stroke-miterlimit="10" d="M438.322,349.541  C436.879,349.889,436.465,349.99,438.322,349.541L438.322,349.541z"/>
<path fill="none" stroke="#000000" stroke-width="1.25" stroke-linecap="square" stroke-miterlimit="10" d="M438.322,349.541  C436.679,350.427,437.681,349.887,438.322,349.541L438.322,349.541z"/>
<path fill="none" stroke="#000000" stroke-width="1.25" stroke-linecap="square" stroke-miterlimit="10" d="M438.322,349.541  C436.679,350.427,437.681,349.887,438.322,349.541L438.322,349.541z"/>
<path fill="none" stroke="#000000" stroke-width="1.25" stroke-linecap="square" stroke-miterlimit="10" d="M438.322,349.541  C436.679,350.427,437.681,349.887,438.322,349.541L438.322,349.541z"/>
<path fill="none" stroke="#000000" stroke-width="1.25" stroke-linecap="square" stroke-miterlimit="10" d="M437.572,350.291  C437.572,349.291,437.572,349.291,437.572,350.291L437.572,350.291z"/>
<path fill="none" stroke="#000000" stroke-width="1.25" stroke-linecap="square" stroke-miterlimit="10" d="M437.572,349.541  C436.969,348.937,436.969,348.937,437.572,349.541L437.572,349.541z"/>
<path fill="none" stroke="#000000" stroke-width="1.25" stroke-linecap="square" stroke-miterlimit="10" d="M437.572,349.541  C436.969,348.937,436.969,348.937,437.572,349.541L437.572,349.541z"/>
<path fill="none" stroke="#000000" stroke-width="1.25" stroke-linecap="square" stroke-miterlimit="10" d="M438.322,348.791  C436.381,349.104,435.364,349.268,438.322,348.791L438.322,348.791z"/>
<path fill="none" stroke="#000000" stroke-width="1.25" stroke-linecap="square" stroke-miterlimit="10" d="M437.572,348.791  C436.129,349.139,435.715,349.24,437.572,348.791L437.572,348.791z"/>
<path fill="none" stroke="#000000" stroke-width="1.25" stroke-linecap="square" stroke-miterlimit="10" d="M436.822,349.541  C437.822,349.541,437.822,349.541,436.822,349.541L436.822,349.541z"/>
<path fill="none" stroke="#000000" stroke-width="1.25" stroke-linecap="square" stroke-miterlimit="10" d="M437.572,348.791  C436.969,349.394,436.969,349.394,437.572,348.791L437.572,348.791z"/>
<path fill="none" stroke="#000000" stroke-width="1.25" stroke-linecap="square" stroke-miterlimit="10" d="M437.572,348.791  C436.969,349.394,436.969,349.394,437.572,348.791L437.572,348.791z"/>
<path fill="none" stroke="#000000" stroke-width="1.25" stroke-linecap="square" stroke-miterlimit="10" d="M437.572,348.791  C436.969,349.394,436.969,349.394,437.572,348.791L437.572,348.791z"/>
<path fill="none" stroke="#000000" stroke-width="1.25" stroke-linecap="square" stroke-miterlimit="10" d="M437.572,348.791  C436.969,349.394,436.969,349.394,437.572,348.791L437.572,348.791z"/>
<path fill="none" stroke="#000000" stroke-width="1.25" stroke-linecap="square" stroke-miterlimit="10" d="M437.572,349.541  C436.969,348.937,436.969,348.937,437.572,349.541L437.572,349.541z"/>
<path fill="none" stroke="#000000" stroke-width="1.25" stroke-linecap="square" stroke-miterlimit="10" d="M437.572,349.541  C436.969,348.937,436.969,348.937,437.572,349.541L437.572,349.541z"/>
<path fill="none" stroke="#000000" stroke-width="1.25" stroke-linecap="square" stroke-miterlimit="10" d="M437.572,349.541  C436.969,348.937,436.969,348.937,437.572,349.541L437.572,349.541z"/>
<path fill="none" stroke="#000000" stroke-width="1.25" stroke-linecap="square" stroke-miterlimit="10" d="M437.572,349.541  C436.969,348.937,436.969,348.937,437.572,349.541L437.572,349.541z"/>
<path fill="none" stroke="#000000" stroke-width="1.25" stroke-linecap="square" stroke-miterlimit="10" d="M438.322,348.791  C436.879,349.139,436.465,349.24,438.322,348.791L438.322,348.791z"/>
<path fill="none" stroke="#000000" stroke-width="1.25" stroke-linecap="square" stroke-miterlimit="10" d="M437.572,348.791  C436.969,349.394,436.969,349.394,437.572,348.791L437.572,348.791z"/>
<path fill="none" stroke="#000000" stroke-width="1.25" stroke-linecap="square" stroke-miterlimit="10" d="M436.822,349.541  C437.822,349.541,437.822,349.541,436.822,349.541L436.822,349.541z"/>
<path fill="none" stroke="#000000" stroke-width="1.25" stroke-linecap="square" stroke-miterlimit="10" d="M437.572,348.791  C436.969,349.394,436.969,349.394,437.572,348.791L437.572,348.791z"/>
<path fill="none" stroke="#000000" stroke-width="1.25" stroke-linecap="square" stroke-miterlimit="10" d="M437.572,349.541  C436.969,348.937,436.969,348.937,437.572,349.541L437.572,349.541z"/>
<path fill="none" stroke="#000000" stroke-width="1.25" stroke-linecap="square" stroke-miterlimit="10" d="M437.572,349.541  C436.969,348.937,436.969,348.937,437.572,349.541L437.572,349.541z"/>
<path fill="none" stroke="#000000" stroke-width="1.25" stroke-linecap="square" stroke-miterlimit="10" d="M437.572,349.541  C436.969,348.937,436.969,348.937,437.572,349.541L437.572,349.541z"/>
<path fill="none" stroke="#000000" stroke-width="1.25" stroke-linecap="square" stroke-miterlimit="10" d="M437.572,349.541  C436.969,348.937,436.969,348.937,437.572,349.541L437.572,349.541z"/>
<path fill="none" stroke="#000000" stroke-width="1.25" stroke-linecap="square" stroke-miterlimit="10" d="M437.572,349.541  C436.969,348.937,436.969,348.937,437.572,349.541L437.572,349.541z"/>
<path fill="none" stroke="#000000" stroke-width="1.25" stroke-linecap="square" stroke-miterlimit="10" d="M437.572,349.541  C436.969,348.937,436.969,348.937,437.572,349.541L437.572,349.541z"/>
<path fill="none" stroke="#000000" stroke-width="1.25" stroke-linecap="square" stroke-miterlimit="10" d="M437.572,349.541  C437.572,348.541,437.572,348.541,437.572,349.541L437.572,349.541z"/>
<path fill="none" stroke="#000000" stroke-width="1.25" stroke-linecap="square" stroke-miterlimit="10" d="M437.572,348.791  C436.969,349.394,436.969,349.394,437.572,348.791L437.572,348.791z"/>
<path fill="none" stroke="#000000" stroke-width="1.25" stroke-linecap="square" stroke-miterlimit="10" d="M437.572,348.791  C436.969,349.394,436.969,349.394,437.572,348.791L437.572,348.791z"/>
<path fill="none" stroke="#000000" stroke-width="1.25" stroke-linecap="square" stroke-miterlimit="10" d="M436.822,349.541  C437.822,349.541,437.822,349.541,436.822,349.541L436.822,349.541z"/>
<path fill="none" stroke="#000000" stroke-width="1.25" stroke-linecap="square" stroke-miterlimit="10" d="M437.572,349.541  C436.969,348.937,436.969,348.937,437.572,349.541L437.572,349.541z"/>
<path fill="none" stroke="#000000" stroke-width="1.25" stroke-linecap="square" stroke-miterlimit="10" d="M437.572,349.541  C436.969,348.937,436.969,348.937,437.572,349.541L437.572,349.541z"/>
<path fill="none" stroke="#000000" stroke-width="1.25" stroke-linecap="square" stroke-miterlimit="10" d="M437.572,349.541  C436.969,348.937,436.969,348.937,437.572,349.541L437.572,349.541z"/>
<path fill="none" stroke="#000000" stroke-width="1.25" stroke-linecap="square" stroke-miterlimit="10" d="M437.572,349.541  C436.969,348.937,436.969,348.937,437.572,349.541L437.572,349.541z"/>
<path fill="none" stroke="#000000" stroke-width="1.25" stroke-linecap="square" stroke-miterlimit="10" d="M437.572,349.541  C436.969,348.937,436.969,348.937,437.572,349.541L437.572,349.541z"/>
<path fill="none" stroke="#000000" stroke-width="1.25" stroke-linecap="square" stroke-miterlimit="10" d="M437.572,349.541  C436.969,348.937,436.969,348.937,437.572,349.541L437.572,349.541z"/>
<path fill="none" stroke="#000000" stroke-width="1.25" stroke-linecap="square" stroke-miterlimit="10" d="M437.572,349.541  L437.572,349.541z"/>
<path fill="none" stroke="#000000" stroke-width="1.25" stroke-linecap="square" stroke-miterlimit="10" d="M437.572,349.541  L437.572,349.541z"/>
<path fill="none" stroke="#000000" stroke-width="1.25" stroke-linecap="square" stroke-miterlimit="10" d="M437.572,349.541  C436.969,348.937,436.969,348.937,437.572,349.541L437.572,349.541z"/>
<path fill="none" stroke="#000000" stroke-width="1.25" stroke-linecap="square" stroke-miterlimit="10" d="M437.572,349.541  C436.969,348.937,436.969,348.937,437.572,349.541L437.572,349.541z"/>
<path fill="none" stroke="#000000" stroke-width="1.25" stroke-linecap="square" stroke-miterlimit="10" d="M437.572,349.541  L437.572,349.541z"/>
<path fill="none" stroke="#000000" stroke-width="1.25" stroke-linecap="square" stroke-miterlimit="10" d="M437.572,349.541  C436.969,348.937,436.969,348.937,437.572,349.541L437.572,349.541z"/>
<path fill="none" stroke="#000000" stroke-width="1.25" stroke-linecap="square" stroke-miterlimit="10" d="M437.572,349.541  C436.969,348.937,436.969,348.937,437.572,349.541L437.572,349.541z"/>
<path fill="none" stroke="#000000" stroke-width="1.25" stroke-linecap="square" stroke-miterlimit="10" d="M437.572,349.541  C436.969,348.937,436.969,348.937,437.572,349.541L437.572,349.541z"/>
<path fill="none" stroke="#000000" stroke-width="1.25" stroke-linecap="square" stroke-miterlimit="10" d="M437.572,349.541  C437.572,348.541,437.572,348.541,437.572,349.541L437.572,349.541z"/>
<path fill="none" stroke="#000000" stroke-width="1.25" stroke-linecap="square" stroke-miterlimit="10" d="M437.572,349.541  C437.572,348.541,437.572,348.541,437.572,349.541L437.572,349.541z"/>
<path fill="none" stroke="#000000" stroke-width="1.25" stroke-linecap="square" stroke-miterlimit="10" d="M437.572,349.541  L437.572,349.541z"/>
</svg>