<svg xmlns="http://www.w3.org/2000/svg" xmlns:xlink="http://www.w3.org/1999/xlink" version="1.1" id="Layer_1" x="0px" y="0px" enable-background="new 0 0 822.05 841.89" xml:space="preserve" viewBox="203.46 272.41 415.63 300.74">
<path fill-rule="evenodd" clip-rule="evenodd" fill="#DFF3FD" stroke="#000000" stroke-width="2" stroke-linecap="square" stroke-miterlimit="10" d="  M535.51,390.39c-5.499,155.992-243.551,157.251-243.004,0C293.051,233.641,528.92,235.182,535.51,390.39z"/>
<path fill-rule="evenodd" clip-rule="evenodd" fill="#FFFFFF" stroke="#000000" stroke-width="2" stroke-linecap="square" stroke-miterlimit="10" d="  M282.006,393.39c39.207,14.044,105.19,75.97,99,121.5c-6.803,50.041-73.619,60.126-112.125,56.625  C170.635,562.583,192.601,402.623,282.006,393.39z"/>
<path fill-rule="evenodd" clip-rule="evenodd" fill="#FFFFFF" stroke="#000000" stroke-width="2" stroke-linecap="square" stroke-miterlimit="10" d="  M439.51,507.39c9.948-38.125,57.187-117,103.875-117c45.006,0,76.521,59.536,74.625,98.25  C613.16,587.712,467.127,600.271,439.51,507.39z"/>
<text transform="matrix(1 0 0 1 384.751 403.8892)" font-family="'ArialMT'" font-size="93">o</text>
<text transform="matrix(1 0 0 1 261.7275 514.0923)" font-family="'ArialMT'" font-size="75">H</text>
<text transform="matrix(1 0 0 1 513.7744 514.0923)" font-family="'ArialMT'" font-size="75">H</text>
</svg>