<svg xmlns="http://www.w3.org/2000/svg" xmlns:xlink="http://www.w3.org/1999/xlink" version="1.1" id="Layer_1" x="0px" y="0px" enable-background="new 0 0 822.05 841.89" xml:space="preserve" viewBox="240.11 248.55 341.59 347.91">
<path fill-rule="evenodd" clip-rule="evenodd" fill="#F1F1F2" stroke="#000000" stroke-width="2" stroke-linecap="square" stroke-miterlimit="10" d="  M275.25,420.398c-22.081-21.803,16.867-49.933,28.644-67.38c10.371-15.364,27.395-24.797,38.106-38.37  c4.114-5.213-0.825-15.629,3-20.25c5.331-6.439,19.145-10.701,26.25-15.75c47.22-33.552,133.925-41.203,185.25-6.375  c21.896,14.858,25.945,35.226,23.625,60.75c-2.47,27.168-31.861,78.304-50.458,89.154  C459.349,463.204,349.098,428.432,275.25,420.398z"/>
<path fill-rule="evenodd" clip-rule="evenodd" fill="#BCBEC0" stroke="#000000" stroke-width="2" stroke-linecap="square" stroke-miterlimit="10" d="  M325.5,413.648c-36.92-21.141,39.017-87.979,56.25-102.75c36.139-30.977,80.52-50.838,125.25-24  c37.93,22.758,33.063,77.607,1.875,103.125C465.961,425.134,378.158,415.547,325.5,413.648z"/>
<path fill-rule="evenodd" clip-rule="evenodd" fill="#D5D7D8" stroke="#000000" stroke-width="2" stroke-linecap="square" stroke-miterlimit="10" d="  M243,442.9c71.372-48.914,315.021-37.926,273.75,97.5c-18.413,60.419-114.25,65.576-162,42  C320.441,565.46,226.675,488.353,243,442.9z"/>
<path fill="none" stroke="#000000" stroke-width="2" stroke-linecap="square" stroke-miterlimit="10" d="M264,432.4  c69.093-7.639,48.814,76.344-15.75,41.25"/>
<path fill="none" stroke="#000000" stroke-width="2" stroke-linecap="square" stroke-miterlimit="10" d="M283.5,423.4  c86.377,4.188,63.461,107.6-24.75,68.25"/>
<path fill="none" stroke="#000000" stroke-width="2" stroke-linecap="square" stroke-miterlimit="10" d="M316.5,417.398  c94.437,26.662,68.531,118.774-21,117.002"/>
<path fill="none" stroke="#000000" stroke-width="2" stroke-linecap="square" stroke-miterlimit="10" d="M348,412.148  c37.872,18.522,88.963,49.372,72,100.502c-13.502,40.699-66.807,43.3-102.75,42.75"/>
<path fill="none" stroke="#000000" stroke-width="2" stroke-linecap="square" stroke-miterlimit="10" d="M381.75,415.898  c44.971,14.753,92.44,59.529,78.75,111.752c-14.01,53.438-83.956,46.635-126,39.75"/>
<path fill="none" stroke="#000000" stroke-width="2" stroke-linecap="square" stroke-miterlimit="10" d="M430.5,423.4  c35.023,21.03,81.388,60.091,64.5,105.75c-18.869,51.016-90.924,58.81-136.5,53.25"/>
</svg>