<svg xmlns="http://www.w3.org/2000/svg" xmlns:xlink="http://www.w3.org/1999/xlink" version="1.1" id="Layer_1" x="0px" y="0px" enable-background="new 0 0 822.05 841.89" xml:space="preserve" viewBox="316.25 339.22 185.29 162.66">
<path fill-rule="evenodd" clip-rule="evenodd" d="M316.25,426.14c0-18.62,0-37.24,0-55.86c0-16.698,15.818-24.735,18.75-7.89  c39.346-50.484,52.908,81.498,1.5,39C340.811,419.531,336.981,432.29,316.25,426.14z M335.75,380.39  c2.85,13.412,17.524,16.374,17.25,0C352.725,364.008,338.917,367.181,335.75,380.39z"/>
<path fill-rule="evenodd" clip-rule="evenodd" d="M448.25,414.14c0-18.62,0-37.24,0-55.86c0-16.386,15.335-24.733,18-7.89  c44.177-49.112,49.313,82.236,1.5,39C471.88,407.053,468.695,420.165,448.25,414.14z M467.75,369.14  c3.007,13.795,18.413,15.81,17.25-0.75C483.827,351.691,470.291,355.222,467.75,369.14z"/>
<path fill-rule="evenodd" clip-rule="evenodd" d="M365,476.39c0-18.424,0-36.848,0-55.272c0-16.674,15.87-24.437,18.75-7.728  c38.053-52.269,53.752,82.888,1.5,39C389.576,470.367,385.325,482.449,365,476.39z M385.25,431.39  c2.376,10.901,14.664,18.103,16.875,2.625C404.561,416.966,387.892,414.405,385.25,431.39z"/>
<path fill-rule="evenodd" clip-rule="evenodd" d="M437.75,500.39c0-18.62,0-37.24,0-55.86c0-16.385,15.335-24.732,18-7.89  c40.606-50.613,53.197,81.841,1.5,39C461.38,493.303,458.195,506.415,437.75,500.39z M457.25,454.64  c3.127,13.284,17.519,16.951,17.25,0C474.241,438.258,460.411,441.628,457.25,454.64z"/>
</svg>