<svg xmlns="http://www.w3.org/2000/svg" xmlns:xlink="http://www.w3.org/1999/xlink" version="1.1" id="Layer_1" x="0px" y="0px" enable-background="new 0 0 822.05 841.89" xml:space="preserve" viewBox="306.48 333.53 208.72 176.88">
<path fill-rule="evenodd" clip-rule="evenodd" fill="#EED5B6" stroke="#000000" stroke-width="0.75" stroke-linecap="square" stroke-miterlimit="10" d="  M399.928,448.537c-17.556-16.88-26.886-7.288-45.375-1.125c-12.657,4.219-16.883,22.125,0.29,22.125  C375.54,469.537,400.9,477.882,399.928,448.537z"/>
<path fill-rule="evenodd" clip-rule="evenodd" fill="#FFFFFF" stroke="#000000" stroke-width="0.75" stroke-linecap="square" stroke-miterlimit="10" d="  M397.678,444.787c-9.683,24.168-23.727,8.722-37.5,6c-18.786-3.712-21.685-5.571-38.528,17.75  c-16.934,23.447-19.197,30.569,11.528,28.375c11.855-0.847,2.239,13.125,20.977,13.125c24.258,0,48.517,0,72.775,0  C424.679,489.484,420.877,452.389,397.678,444.787z"/>
<path fill-rule="evenodd" clip-rule="evenodd" fill="#EED5B6" stroke="#000000" stroke-width="0.75" stroke-linecap="square" stroke-miterlimit="10" d="  M357.928,429.787C355.108,443.372,344.306,430.002,357.928,429.787L357.928,429.787z"/>
<path fill-rule="evenodd" clip-rule="evenodd" fill="#EED5B6" stroke="#000000" stroke-width="0.75" stroke-linecap="square" stroke-miterlimit="10" d="  M403.678,415.535C393.136,423.028,393.043,408.302,403.678,415.535L403.678,415.535z"/>
<path fill-rule="evenodd" clip-rule="evenodd" fill="#EED5B6" stroke="#000000" stroke-width="0.75" stroke-linecap="square" stroke-miterlimit="10" d="  M346.678,411.035c4.054,47.937,71.48,38.304,49.5-11.25C383.674,371.595,341.437,376.667,346.678,411.035z"/>
<path fill-rule="evenodd" clip-rule="evenodd" fill="#FFFFFF" d="M341.428,468.037l-0.75,10.5L341.428,468.037z"/>
<line fill="none" stroke="#000000" stroke-width="1.25" stroke-linecap="square" stroke-miterlimit="10" x1="341.428" y1="468.037" x2="340.678" y2="478.537"/>
<path fill-rule="evenodd" clip-rule="evenodd" fill="#631D1B" stroke="#000000" stroke-width="0.75" stroke-linecap="square" stroke-miterlimit="10" d="  M392.428,422.287c-4.659,13.73-13.772,18.597-24.75,9.75C376.823,430.395,384.249,426.506,392.428,422.287z"/>
<path fill-rule="evenodd" clip-rule="evenodd" d="M369.928,418.535C366.232,420.111,365.703,420.337,369.928,418.535  L369.928,418.535z"/>
<path fill-rule="evenodd" clip-rule="evenodd" d="M384.928,414.785C380.543,415.552,380.708,415.523,384.928,414.785  L384.928,414.785z"/>
<path fill="none" stroke="#000000" stroke-width="0.75" stroke-linecap="square" stroke-miterlimit="10" d="M375.178,423.037  c2.153,1.181,3.939,0.587,5.25-1.502"/>
<path fill="none" stroke="#000000" stroke-width="0.75" stroke-linecap="square" stroke-miterlimit="10" d="M363.178,420.785  c2.377-3.037,5.519-4.263,9-3"/>
<path fill="none" stroke="#000000" stroke-width="0.75" stroke-linecap="square" stroke-miterlimit="10" d="M387.178,414.035  c-3.289-1.32-6.392-0.63-8.25,2.25"/>
<path fill-rule="evenodd" clip-rule="evenodd" fill="#5E1F03" stroke="#000000" stroke-width="0.5" stroke-linecap="square" stroke-miterlimit="10" d="  M378.178,482.287c-2.25-0.75-4.5-1.5-6.75-2.25c19.75-48.751,39.501-97.501,59.252-146.252c2,0.75,4,1.5,6,2.25  C417.179,384.785,397.678,433.536,378.178,482.287z"/>
<path fill-rule="evenodd" clip-rule="evenodd" fill="#00851C" d="M492.93,427.537c-29.501-11.25-59.001-22.501-88.502-33.752  c6.772-17.476,13.545-34.952,20.317-52.428c5.756-14.852,29.484,2.639,41.757,7.359c5.596,2.152,49.85,16.36,48.156,20.876  C507.415,388.907,500.173,408.222,492.93,427.537z"/>
<path fill="none" stroke="#020202" stroke-linecap="square" stroke-miterlimit="10" d="M492.93,427.537  c-29.501-11.25-59.001-22.501-88.502-33.752c6.772-17.476,13.545-34.952,20.317-52.428c5.756-14.852,29.484,2.639,41.757,7.359  c5.596,2.152,49.85,16.36,48.156,20.876C507.415,388.907,500.173,408.222,492.93,427.537z"/>
<path fill-rule="evenodd" clip-rule="evenodd" fill="#FFFFFF" d="M456.18,397.535c-19.799-9.479-15.087-38.182,7.5-39.75  c-49.705-11.465-20.438,76.861,12.75,36.75C468.721,400.571,464.31,396.896,456.18,397.535z"/>
<path fill-rule="evenodd" clip-rule="evenodd" fill="#FFFFFF" d="M473.43,366.785c-2.743,3.694-0.752,6.908-7.5,6  c3.393,4.59,2.209,4.499,4.5,9c6.896-2.328,2.728-1.58,9.75-1.5c0.467-6.454-0.82-2.693,1.5-9  C474.825,374.017,476.859,369.961,473.43,366.785z"/>
<path fill-rule="evenodd" clip-rule="evenodd" fill="#00851C" d="M401.428,505.537c-14.169,0-28.338,0-42.507,0  c-3.486,0-5.391-27.072-2.493-30c4.513-4.56,35.474,0,42.507,0C404.286,475.537,401.428,499.96,401.428,505.537z"/>
<path fill="none" stroke="#020202" stroke-width="0.5" stroke-linecap="square" stroke-miterlimit="10" d="M401.428,505.537  c-14.169,0-28.338,0-42.507,0c-3.486,0-5.391-27.072-2.493-30c4.513-4.56,35.474,0,42.507,0  C404.286,475.537,401.428,499.96,401.428,505.537z"/>
<path fill-rule="evenodd" clip-rule="evenodd" fill="#FFFFFF" d="M380.428,498.787c-10.728-4.08-12.235-10.768-3.75-18.75  c-19.164,8.212-1.727,31.816,12,14.25C386.489,496.627,383.621,498.233,380.428,498.787z"/>
<path fill-rule="evenodd" clip-rule="evenodd" fill="#FFFFFF" d="M382.678,482.287c1.8,3.438-3.243,3.043,0.75,6.75  c0.653-2.332,2.153-3.082,4.5-2.25C386.703,481.475,384.848,486.432,382.678,482.287z"/>
<path fill-rule="evenodd" clip-rule="evenodd" fill="#FFFFFF" stroke="#000000" stroke-width="0.75" stroke-linecap="square" stroke-miterlimit="10" d="  M356.428,472.537c-11.915,0.484-43.994-0.169-48.75,15.75c-7.791,26.077,42.399,6.894,51,4.5  C353.401,484.844,357.94,480.291,356.428,472.537z"/>
<path fill-rule="evenodd" clip-rule="evenodd" fill="#E9CCA8" stroke="#000000" stroke-width="0.75" stroke-linecap="square" stroke-miterlimit="10" d="  M365.428,467.287c8.556-3.445,12.986-6.654,17.25,5.25C377.034,470.961,370.72,469.834,365.428,467.287z"/>
<path fill-rule="evenodd" clip-rule="evenodd" fill="#E9CCA8" stroke="#000000" stroke-width="0.75" stroke-linecap="square" stroke-miterlimit="10" d="  M360.928,471.037c10.179-8.786,41.009-0.616,21,3.75C388.374,499.663,333.912,492.388,360.928,471.037z"/>
</svg>