<svg xmlns="http://www.w3.org/2000/svg" xmlns:xlink="http://www.w3.org/1999/xlink" version="1.1" id="Layer_1" x="0px" y="0px" enable-background="new 0 0 822.05 841.89" xml:space="preserve" viewBox="296.82 334.01 222.6 178.72">
<path fill-rule="evenodd" clip-rule="evenodd" fill="#F6F4D7" d="M518.5,495.14c-41.716-37.279-124.718-7.248-173.625-10.125  c-8.791-0.518-29.227-8.776-37.125-3.375c-25.785,17.634,2.389,27.75,18.663,27.75c40.811,0,81.621,0,122.431,0  C466.123,509.39,524.425,521.671,518.5,495.14z"/>
<path fill="none" stroke="#000000" stroke-linecap="square" stroke-miterlimit="10" d="M518.5,495.14  c-41.716-37.279-124.718-7.248-173.625-10.125c-8.791-0.518-29.227-8.776-37.125-3.375c-25.785,17.634,2.389,27.75,18.663,27.75  c40.811,0,81.621,0,122.431,0C466.123,509.39,524.425,521.671,518.5,495.14z"/>
<path fill-rule="evenodd" clip-rule="evenodd" fill="#993817" stroke="#000000" stroke-linecap="square" stroke-miterlimit="10" d="  M423.25,498.89c0.429-27.428,0.796-59.848-7.125-86.25c-4.44-14.802-17.127-30.861-14.625-45.75  c15.302,7.073,23.073,44.866,26.277,60.889C431.449,446.137,457.771,511.45,423.25,498.89z"/>
<path fill-rule="evenodd" clip-rule="evenodd" fill="#75BC22" stroke="#000000" stroke-linecap="square" stroke-miterlimit="10" d="  M412,371.39c-29.486,3.658-63.589,13.996-82.5,38.25c4-1.75,8-3.5,12-5.25c-1.5,2.25-3,4.5-4.5,6.75  c4.5-3.188,9.281-6.205,13.5-9.75c-0.25,2-0.5,4-0.75,6c2.5-2.75,5-5.5,7.5-8.25c-0.25,2-0.5,4-0.75,6c2.5-3,5-6,7.5-9  c0,1.75,0,3.5,0,5.25c1.5-2.25,3-4.5,4.5-6.75c0.75,2.5,1.5,5,2.25,7.5c1-3,2-6,3-9c0.75,1.5,1.5,3,2.25,4.5c2-2.75,4-5.5,6-8.25  c0.25,1.25,0.5,2.5,0.75,3.75c2.25-2.5,4.5-5,6.75-7.5c0,2.25,0,4.5,0,6.75c5.285-6.072,4.664-5.58,7.5-5.25c1.75-3,3.5-6,5.25-9  c0.5,1.75,1,3.5,1.5,5.25C406.5,379.39,409.25,375.39,412,371.39z"/>
<path fill-rule="evenodd" clip-rule="evenodd" fill="#75BC22" stroke="#000000" stroke-linecap="square" stroke-miterlimit="10" d="  M403.75,366.89c-19.792-16.857-26.544-16.75-48.75-24c0.5,1.25,1,2.5,1.5,3.75c-4.5-1-9-2-13.5-3c1.25,1,2.5,2,3.75,3  c-2.25,0.25-4.5,0.5-6.75,0.75c1.211,7.07,0.47,2.699-0.75,8.25c7.142,7.329,1.81,0.383,4.5,7.5  c20.209-1.907,38.671,11.103,71.25,10.5C411.25,371.39,407.5,369.14,403.75,366.89z"/>
<path fill-rule="evenodd" clip-rule="evenodd" fill="#75BC22" stroke="#000000" stroke-linecap="square" stroke-miterlimit="10" d="  M414.252,369.89c17.976,6.497,79.01,29.509,56.998,53.25c-2-3.5-4-7-6-10.5c-0.5,1.75-1,3.5-1.5,5.25c-4.21-4.147-0.154-6.299-6-1.5  c-1-2.5-2-5-3-7.5c-1,1.5-2,3-3,4.5c-1.5-2.25-3-4.5-4.5-6.75c-1,1.75-2,3.5-3,5.25c-5.277-7.036-11.676-10.163-18.75-9  c-2.649-6.964-4.944-9.243-6.75-16.5c-1.29,0.496-3.119,3.272-4.498,3C413.445,383.08,413.058,376.17,414.252,369.89z"/>
<path fill-rule="evenodd" clip-rule="evenodd" fill="#75BC22" stroke="#000000" stroke-linecap="square" stroke-miterlimit="10" d="  M409.75,370.64c14.117-16.957,51.843-24.851,57,4.5c-6.955,0.192-2.104,0.305-6,1.5c-8.786-3.292-10.569-1.269-15.75-0.75  c-2-1.25-4-2.5-6-3.75C430.847,374.33,421.799,373.352,409.75,370.64z"/>
<path fill-rule="evenodd" clip-rule="evenodd" fill="#75BC22" stroke="#000000" stroke-linecap="square" stroke-miterlimit="10" d="  M405.25,366.14c-17.25-29.79,29.194-44.071,28.5-18c-11.253,2.48-22.184,10.009-23.25,26.25C408.75,371.64,407,368.89,405.25,366.14  z"/>
<path fill-rule="evenodd" clip-rule="evenodd" fill="#75BC22" stroke="#000000" stroke-linecap="square" stroke-miterlimit="10" d="  M411.25,369.89c-13.14,14.656-19.458,18.846-22.5,35.25c1.25-1,2.5-2,3.75-3c-0.75,2.25-1.5,4.5-2.25,6.75c1.25-0.5,2.5-1,3.75-1.5  c-0.75,3-1.5,6-2.25,9c1.25-1,2.5-2,3.75-3c-0.75,2.75-1.5,5.5-2.25,8.25c1.25-0.75,2.5-1.5,3.75-2.25c0,2.25,0,4.5,0,6.75  c5.712-1.63,1.956-0.838,6.75-0.75C412.049,406.878,427.015,395.578,411.25,369.89z"/>
<path fill="none" stroke="#000000" stroke-width="0.5" stroke-linecap="square" stroke-miterlimit="10" d="M346.75,347.39  c20.432,3.683,45.881,7.214,62.25,21"/>
<path fill="none" stroke="#000000" stroke-width="0.5" stroke-linecap="square" stroke-miterlimit="10" d="M465.25,373.64  c-8.236-20.397-38.503-10.934-54-3.75"/>
<path fill="none" stroke="#000000" stroke-width="0.5" stroke-linecap="square" stroke-miterlimit="10" d="M412,372.14  c-7.261,16.604-11.969,34.339-12,52.5"/>
<path fill="none" stroke="#000000" stroke-width="0.5" stroke-linecap="square" stroke-miterlimit="10" d="M430,336.14  c-19.303-1.898-23.323,19.182-20.25,34.5"/>
<path fill-rule="evenodd" clip-rule="evenodd" fill="#F6F4D7" d="M388,504.14c34.982-9.808,77.807-15.938,111.75,0.75  C462.5,504.64,425.25,504.39,388,504.14z"/>
<path fill="none" stroke="#000000" stroke-linecap="square" stroke-miterlimit="10" d="M388,504.14  c34.982-9.808,77.807-15.938,111.75,0.75"/>
</svg>