<svg xmlns="http://www.w3.org/2000/svg" xmlns:xlink="http://www.w3.org/1999/xlink" version="1.1" id="Layer_1" x="0px" y="0px" enable-background="new 0 0 822.05 841.89" xml:space="preserve" viewBox="199.5 342.33 420.5 157.77">
<path fill-rule="evenodd" clip-rule="evenodd" fill="#E4BE9D" stroke="#000000" stroke-width="2" stroke-linecap="square" stroke-miterlimit="10" d="  M619,427.279c-16.992,99.259-418.991,92.195-417.75,0C202.514,333.364,604.942,328.448,619,427.279z"/>
<path fill-rule="evenodd" clip-rule="evenodd" fill="#E4BE9D" stroke="#000000" stroke-width="2" stroke-linecap="square" stroke-miterlimit="10" d="  M617.5,415.277c-4.345,97.267-416.342,94.398-417,0C199.845,321.299,613.512,317.403,617.5,415.277z"/>
<path fill-rule="evenodd" clip-rule="evenodd" fill="#FFF200" stroke="#000000" stroke-width="2" stroke-linecap="square" stroke-miterlimit="10" d="  M337,378.527c-5.042,17.083,31.868,63.3,45.518,56.356c28.578-14.535,57.155-29.071,85.732-43.606  c-13.938-10.057-42.716-41.099-59.25-42.75C390.628,346.692,354.539,371.219,337,378.527z"/>
<path fill="none" stroke="#000000" stroke-width="2" stroke-linecap="square" stroke-miterlimit="10" d="M337,378.527  c11.031,8.988,32.161,35.625,46.5,31.111c25-7.871,50-15.741,75-23.611"/>
<line fill="none" stroke="#000000" stroke-width="2" stroke-linecap="square" stroke-miterlimit="10" x1="377.5" y1="411.527" x2="381.25" y2="435.529"/>
</svg>