<svg xmlns="http://www.w3.org/2000/svg" xmlns:xlink="http://www.w3.org/1999/xlink" version="1.1" id="Layer_1" x="0px" y="0px" enable-background="new 0 0 822.05 841.89" xml:space="preserve" viewBox="205.78 256.85 412.43 341.2">
<path fill-rule="evenodd" clip-rule="evenodd" fill="#FFFFFF" stroke="#000000" stroke-width="2" stroke-linecap="square" stroke-miterlimit="10" d="  M510.542,487.64c21.368,12.622,72.317-39.136,90.468-51.948c41.377-29.207-15.792-49.705-37.555-57.865  c-34.572-12.965-54.742-27.648-71.359,10.334c-5.52,12.616-18.573,28.731-11.794,41.688  C490.382,449.112,500.462,468.376,510.542,487.64z"/>
<path fill-rule="evenodd" clip-rule="evenodd" fill="#FFFFFF" stroke="#000000" stroke-width="2" stroke-linecap="square" stroke-miterlimit="10" d="  M480.542,298.64c-29.114,63.399,73.226,92.56,96,35.625C597.571,281.693,505.439,242.974,480.542,298.64z"/>
<path fill-rule="evenodd" clip-rule="evenodd" fill="#6B6C6F" stroke="#000000" stroke-width="2" stroke-linecap="square" stroke-miterlimit="10" d="  M485.042,298.64c22.688-13.613,4.088-38.864-10.5-30C462.412,276.01,478.072,294.594,485.042,298.64z"/>
<path fill-rule="evenodd" clip-rule="evenodd" fill="#6B6C6F" stroke="#000000" stroke-width="2" stroke-linecap="square" stroke-miterlimit="10" d="  M535.292,276.89c4.628,4.259,13.016,6.248,18.75,9C572.51,255.978,532.195,245.538,535.292,276.89z"/>
<path fill-rule="evenodd" clip-rule="evenodd" fill="#6B6C6F" stroke="#000000" stroke-width="2" stroke-linecap="square" stroke-miterlimit="10" d="  M482.042,351.14c-9.267,10.079-36.533,83.121,2.25,65.25c4.564-2.104,11.938-22.293,13.5-27.75c3.146-10.986,11.546-8.186,4.5-23.25  C499.943,360.368,490.077,354.055,482.042,351.14z"/>
<path fill-rule="evenodd" clip-rule="evenodd" fill="#6B6C6F" stroke="#000000" stroke-width="2" stroke-linecap="square" stroke-miterlimit="10" d="  M581.792,306.89c21.45,24.913,54.259,93.482,8.25,111c-5.15-52.881-53.274,36.232-75-3.75  c-11.22-20.648,10.853-44.823,26.625-49.125C569.519,357.419,581.109,334.846,581.792,306.89z"/>
<line fill="none" stroke="#007EBA" stroke-width="2" stroke-linecap="square" stroke-miterlimit="10" x1="579.542" y1="245.39" x2="579.542" y2="245.39"/>
<path fill-rule="evenodd" clip-rule="evenodd" fill="#6B6C6F" stroke="#000000" stroke-width="2" stroke-linecap="square" stroke-miterlimit="10" d="  M470.042,416.39c-9.38,5.186-14.333,14.234-12.75,24.75c-30.304-5.905-22.959,24.92-8.25,39c21.181,20.276,37.06,10.561,61.5,7.5  c-10.04-22.055-23.286-47.331-24-72C479.03,422.374,476.728,415.663,470.042,416.39z"/>
<path fill-rule="evenodd" clip-rule="evenodd" fill="#6B6C6F" stroke="#000000" stroke-width="2" stroke-linecap="square" stroke-miterlimit="10" d="  M594.542,417.89c22.138-0.155,26.076,29.663,20.25,46.5c-8.572,24.771-39.611,37.802-63.75,41.25  C485.332,515.027,560.736,421.178,594.542,417.89z"/>
<path fill="none" stroke="#000000" stroke-width="2" stroke-linecap="square" stroke-miterlimit="10" d="M457.292,441.14  c7.738,4.132,12.209,10.873,12.75,19.5"/>
<path fill="none" stroke="#000000" stroke-width="2" stroke-linecap="square" stroke-miterlimit="10" d="M540.542,459.14  c19.848-4.061,25.791,16.718,19.5,32.25"/>
<path fill-rule="evenodd" clip-rule="evenodd" fill="#6B6C6F" stroke="#000000" stroke-width="2" stroke-linecap="square" stroke-miterlimit="10" d="  M501.542,310.64c3.853,6.342-0.066,33.234-12.75,25.5C476.381,328.572,493.621,311.176,501.542,310.64z"/>
<path fill-rule="evenodd" clip-rule="evenodd" fill="#6B6C6F" stroke="#000000" stroke-width="2" stroke-linecap="square" stroke-miterlimit="10" d="  M552.542,326.39c-7.87,4.375-34.015-3.41-26.25-16.5C534.189,296.577,553.281,316.903,552.542,326.39z"/>
<path fill-rule="evenodd" clip-rule="evenodd" fill="#6B6C6F" stroke="#000000" stroke-width="2" stroke-linecap="square" stroke-miterlimit="10" d="  M503.792,339.14c5.937-2.776,13.814-3.07,20.25-4.5c-0.027,4.843-2.913,12.973-5.25,17.25  C508.976,350.297,505.517,345.553,503.792,339.14z"/>
<path fill="none" stroke="#000000" stroke-width="2" stroke-linecap="square" stroke-miterlimit="10" d="M518.792,351.89  c-2.387,4.297-6.871,7.545-12,9"/>
<path fill="none" stroke="#000000" stroke-width="2" stroke-linecap="square" stroke-miterlimit="10" d="M518.042,355.64  c12.635,5.465,25.534-1.534,33-12.75"/>
<path fill-rule="evenodd" clip-rule="evenodd" fill="#FFFFFF" stroke="#000000" stroke-width="2" stroke-linecap="square" stroke-miterlimit="10" d="  M281.042,487.64c21.368,12.622,72.317-39.136,90.468-51.948c41.377-29.207-15.792-49.705-37.554-57.865  c-34.573-12.965-54.743-27.648-71.36,10.334c-5.52,12.616-18.573,28.731-11.794,41.688  C260.882,449.112,270.962,468.376,281.042,487.64z"/>
<path fill-rule="evenodd" clip-rule="evenodd" fill="#FFFFFF" stroke="#000000" stroke-width="2" stroke-linecap="square" stroke-miterlimit="10" d="  M251.042,298.64c-29.103,63.375,73.234,92.54,96,35.625C368.123,281.563,275.914,243.032,251.042,298.64z"/>
<path fill-rule="evenodd" clip-rule="evenodd" fill="#6B6C6F" stroke="#000000" stroke-width="2" stroke-linecap="square" stroke-miterlimit="10" d="  M255.542,298.64C307.855,267.251,199.732,264.938,255.542,298.64L255.542,298.64z"/>
<path fill-rule="evenodd" clip-rule="evenodd" fill="#6B6C6F" stroke="#000000" stroke-width="2" stroke-linecap="square" stroke-miterlimit="10" d="  M305.792,276.89c4.628,4.259,13.016,6.248,18.75,9C343.01,255.978,302.696,245.538,305.792,276.89z"/>
<path fill-rule="evenodd" clip-rule="evenodd" fill="#6B6C6F" stroke="#000000" stroke-width="2" stroke-linecap="square" stroke-miterlimit="10" d="  M252.542,351.14c-9.266,10.079-36.534,83.121,2.25,65.25c4.564-2.104,11.938-22.293,13.5-27.75c3.146-10.986,11.545-8.186,4.5-23.25  C270.443,360.368,260.578,354.055,252.542,351.14z"/>
<path fill-rule="evenodd" clip-rule="evenodd" fill="#6B6C6F" stroke="#000000" stroke-width="2" stroke-linecap="square" stroke-miterlimit="10" d="  M352.292,306.89c22.804,24.113,53.248,93.867,8.25,111c-5.15-52.881-53.274,36.232-75-3.75  c-11.22-20.648,10.853-44.823,26.625-49.125C340.018,357.419,351.609,334.846,352.292,306.89z"/>
<line fill="none" stroke="#007EBA" stroke-width="2" stroke-linecap="square" stroke-miterlimit="10" x1="350.042" y1="245.39" x2="350.042" y2="245.39"/>
<path fill-rule="evenodd" clip-rule="evenodd" fill="#6B6C6F" stroke="#000000" stroke-width="2" stroke-linecap="square" stroke-miterlimit="10" d="  M240.542,416.39c-9.311,5.282-14.267,14.204-12.75,24.75c-30.276-5.9-23.001,24.929-8.25,39c21.224,20.246,37.056,10.561,61.5,7.5  c-10.04-22.055-23.286-47.331-24-72C249.53,422.374,247.227,415.663,240.542,416.39z"/>
<path fill-rule="evenodd" clip-rule="evenodd" fill="#6B6C6F" stroke="#000000" stroke-width="2" stroke-linecap="square" stroke-miterlimit="10" d="  M365.042,417.89c22.137-0.155,26.076,29.663,20.25,46.5c-8.578,24.789-39.593,37.799-63.75,41.25  C255.833,515.027,331.236,421.178,365.042,417.89z"/>
<path fill="none" stroke="#000000" stroke-width="2" stroke-linecap="square" stroke-miterlimit="10" d="M227.792,441.14  c7.739,4.132,12.208,10.873,12.75,19.5"/>
<path fill="none" stroke="#000000" stroke-width="2" stroke-linecap="square" stroke-miterlimit="10" d="M311.042,459.14  c19.848-4.061,25.792,16.718,19.5,32.25"/>
<path fill-rule="evenodd" clip-rule="evenodd" fill="#6B6C6F" stroke="#000000" stroke-width="2" stroke-linecap="square" stroke-miterlimit="10" d="  M272.042,310.64c4.206,6.469,0.089,32.908-12.75,25.5C246.726,328.89,264.25,311.167,272.042,310.64z"/>
<path fill-rule="evenodd" clip-rule="evenodd" fill="#6B6C6F" stroke="#000000" stroke-width="2" stroke-linecap="square" stroke-miterlimit="10" d="  M323.042,326.39c-7.87,4.375-34.015-3.41-26.25-16.5C304.689,296.577,323.781,316.903,323.042,326.39z"/>
<path fill-rule="evenodd" clip-rule="evenodd" fill="#6B6C6F" stroke="#000000" stroke-width="2" stroke-linecap="square" stroke-miterlimit="10" d="  M274.292,339.14c5.937-2.776,13.815-3.07,20.25-4.5c-0.027,4.843-2.914,12.973-5.25,17.25  C279.476,350.297,276.016,345.553,274.292,339.14z"/>
<path fill="none" stroke="#000000" stroke-width="2" stroke-linecap="square" stroke-miterlimit="10" d="M289.292,351.89  c-2.387,4.297-6.871,7.545-12,9"/>
<path fill="none" stroke="#000000" stroke-width="2" stroke-linecap="square" stroke-miterlimit="10" d="M288.542,355.64  c12.635,5.465,25.534-1.534,33-12.75"/>
<path fill-rule="evenodd" clip-rule="evenodd" fill="#FFFFFF" stroke="#000000" stroke-width="2" stroke-linecap="square" stroke-miterlimit="10" d="  M395.792,578.39c21.368,12.622,72.317-39.136,90.468-51.948c41.377-29.207-15.792-49.704-37.555-57.865  c-34.572-12.965-54.743-27.647-71.359,10.334c-5.52,12.616-18.573,28.731-11.794,41.688  C375.632,539.862,385.712,559.126,395.792,578.39z"/>
<path fill-rule="evenodd" clip-rule="evenodd" fill="#FFFFFF" stroke="#000000" stroke-width="2" stroke-linecap="square" stroke-miterlimit="10" d="  M365.792,389.39c-28.408,63.555,73.206,92.609,96,35.625C482.821,372.443,390.689,333.724,365.792,389.39z"/>
<path fill-rule="evenodd" clip-rule="evenodd" fill="#6B6C6F" stroke="#000000" stroke-width="2" stroke-linecap="square" stroke-miterlimit="10" d="  M370.292,389.39C422.658,357.97,314.26,355.812,370.292,389.39L370.292,389.39z"/>
<path fill-rule="evenodd" clip-rule="evenodd" fill="#6B6C6F" stroke="#000000" stroke-width="2" stroke-linecap="square" stroke-miterlimit="10" d="  M420.542,367.64c4.628,4.259,13.016,6.248,18.75,9C457.884,346.853,417.435,336.173,420.542,367.64z"/>
<path fill-rule="evenodd" clip-rule="evenodd" fill="#6B6C6F" stroke="#000000" stroke-width="2" stroke-linecap="square" stroke-miterlimit="10" d="  M367.292,441.89c-9.187,9.993-36.586,83.146,2.25,65.25c4.564-2.104,11.938-22.293,13.5-27.75c3.146-10.986,11.545-8.186,4.5-23.25  C385.193,451.118,375.328,444.805,367.292,441.89z"/>
<path fill-rule="evenodd" clip-rule="evenodd" fill="#6B6C6F" stroke="#000000" stroke-width="2" stroke-linecap="square" stroke-miterlimit="10" d="  M467.042,397.64c20.286,23.562,55.367,96.079,8.25,111c-5.166-53.04-53.354,36.482-75-3.75  c-11.072-20.578,10.927-44.844,26.625-49.125C454.652,448.201,466.555,425.558,467.042,397.64z"/>
<line fill="none" stroke="#007EBA" stroke-width="2" stroke-linecap="square" stroke-miterlimit="10" x1="464.792" y1="336.89" x2="464.792" y2="336.89"/>
<path fill-rule="evenodd" clip-rule="evenodd" fill="#6B6C6F" stroke="#000000" stroke-width="2" stroke-linecap="square" stroke-miterlimit="10" d="  M355.292,507.14c-9.311,5.282-14.267,14.204-12.75,24.75c-30.256-5.896-23.246,25.643-8.25,39.75  c20.623,19.4,38.172,10.442,61.5,6.75c-10.04-22.055-23.286-47.331-24-72C364.28,513.124,361.977,506.414,355.292,507.14z"/>
<path fill-rule="evenodd" clip-rule="evenodd" fill="#6B6C6F" stroke="#000000" stroke-width="2" stroke-linecap="square" stroke-miterlimit="10" d="  M479.792,508.64c22.233-0.102,25.837,29.616,20.25,46.5c-8.337,25.196-39.545,37.792-63.75,41.25  C370.637,605.769,446.07,511.919,479.792,508.64z"/>
<path fill="none" stroke="#000000" stroke-width="2" stroke-linecap="square" stroke-miterlimit="10" d="M342.542,531.89  c7.739,4.132,12.208,10.873,12.75,19.5"/>
<path fill="none" stroke="#000000" stroke-width="2" stroke-linecap="square" stroke-miterlimit="10" d="M425.792,549.89  c19.822-4.056,25.856,16.75,19.5,32.25"/>
<path fill-rule="evenodd" clip-rule="evenodd" fill="#6B6C6F" stroke="#000000" stroke-width="2" stroke-linecap="square" stroke-miterlimit="10" d="  M386.792,401.39c3.873,6.376,0.099,33.07-12.75,25.5C361.57,419.542,378.836,401.929,386.792,401.39z"/>
<path fill-rule="evenodd" clip-rule="evenodd" fill="#6B6C6F" stroke="#000000" stroke-width="2" stroke-linecap="square" stroke-miterlimit="10" d="  M437.792,417.14c-7.87,4.374-34.016-3.409-26.25-16.5C419.439,387.327,438.531,407.653,437.792,417.14z"/>
<path fill-rule="evenodd" clip-rule="evenodd" fill="#6B6C6F" stroke="#000000" stroke-width="2" stroke-linecap="square" stroke-miterlimit="10" d="  M389.042,429.89c5.937-2.776,13.815-3.07,20.25-4.5C408.959,448.077,392.479,443.35,389.042,429.89z"/>
<path fill="none" stroke="#000000" stroke-width="2" stroke-linecap="square" stroke-miterlimit="10" d="M404.042,442.64  c-2.387,4.297-6.871,7.545-12,9"/>
<path fill="none" stroke="#000000" stroke-width="2" stroke-linecap="square" stroke-miterlimit="10" d="M403.292,446.39  c12.793,5.996,25.213-1.652,33-12.75"/>
</svg>