<svg xmlns="http://www.w3.org/2000/svg" xmlns:xlink="http://www.w3.org/1999/xlink" version="1.1" id="Layer_1" x="0px" y="0px" enable-background="new 0 0 822.05 841.89" xml:space="preserve" viewBox="222.71 257.49 375.03 328.9">
<path fill="none" stroke="#000000" stroke-width="2" stroke-linecap="square" stroke-miterlimit="10" d="M297.281,438.39  c20.061-8.689,223.989-71.513,181.502-114c-21.104-21.104-80.737,14.183-99.412,21.743c-45.313,18.346-106.991,31.433-146.59,61.132  c-19.57,14.678-4.051,33.573,14.25,35.625c18.498,2.073,43.706-16.971,60.472-23.806c33.436-13.629,66.872-27.259,100.308-40.889  c11.629-4.741,43.814-24.919,16.597-35.806c-12.3-4.92-32.959,8.458-43.504,12.858c-29.874,12.464-59.749,24.928-89.623,37.392"/>
<path fill="none" stroke="#000000" stroke-width="2" stroke-linecap="square" stroke-miterlimit="10" d="M381.281,321.39  c21.207,4.096,222.876,66.606,215.252,9.75c-3.906-29.13-65.725-33.215-85.056-37.528c-39.946-8.911-79.892-17.822-119.837-26.732  c-11.619-2.592-31.767-10.723-44.109-7.74c-21.847,5.28-28.499,21.658-9.75,37.5c13.03,11.01,42.912,9.581,58.735,13.033  c36.271,7.914,72.544,15.827,108.815,23.741c13.236,2.888,51.029,6.272,35.326-19.899c-6.633-11.054-32.599-11.559-43.411-13.789  c-31.655-6.529-63.311-13.058-94.966-19.586"/>
<path fill="none" stroke="#000000" stroke-width="2" stroke-linecap="square" stroke-miterlimit="10" d="M402.281,487.14  c20.182-8.702,220.908-69.665,183.002-112.5c-19.526-22.065-73.036,9.588-91.528,17c-37.948,15.21-75.896,30.42-113.845,45.63  c-10.084,4.042-32.758,9.109-40.629,17.62c-11.823,12.785-15.33,36.75,9.375,36.75c20.823,0,40.848-14.521,59.631-22.058  c34.513-13.85,69.026-27.698,103.539-41.548c11.873-4.764,45.24-25.831,17.582-36.895c-12.3-4.92-32.959,8.458-43.503,12.858  c-29.875,12.464-59.749,24.928-89.624,37.392"/>
<path fill="none" stroke="#000000" stroke-width="2" stroke-linecap="square" stroke-miterlimit="10" d="M373.031,580.89  c23.608-10.227,213.68-64.82,184.502-110.25c-16.023-24.949-65.771,3.075-84.153,10.442  c-51.693,20.72-112.899,36.026-160.349,65.683c-16.97,10.606-18.467,38.625,6.375,38.625c20.655,0,41.107-15.339,59.602-22.808  c34.293-13.85,68.586-27.698,102.88-41.548c11.503-4.646,46.772-24.743,18.27-36.145c-12.448-4.979-32.577,8.299-43.503,12.857  c-29.875,12.465-59.75,24.929-89.624,37.393"/>
</svg>