<svg xmlns="http://www.w3.org/2000/svg" xmlns:xlink="http://www.w3.org/1999/xlink" version="1.1" id="Layer_1" x="0px" y="0px" enable-background="new 0 0 822.05 841.89" xml:space="preserve" viewBox="210.62 271.5 399.59 297.94">
<path fill="none" stroke="#000000" stroke-width="2" stroke-linecap="square" stroke-miterlimit="10" d="M338.25,538.39  c52.959-40.216,105.918-80.432,158.878-120.647c30.277-22.992,85.018-50.322,105.122-84.853c13.417-23.044,7.962-52.406-21-59.25  c-30.783-7.275-64.6,22.042-87.412,38.373c-66.931,47.913-133.862,95.825-200.792,143.737  c-21.931,15.699-68.195,38.029-78.545,65.391c-9.659,25.533,5.778,50.925,34.125,46.875c39.104-5.586,73.506-48.248,104.471-70.574  C371.729,484.006,571.957,374.088,522,333.64c-18.519-14.994-39.835,4.428-54.265,15.105  c-52.662,38.965-105.324,77.93-157.985,116.895"/>
</svg>