<svg xmlns="http://www.w3.org/2000/svg" xmlns:xlink="http://www.w3.org/1999/xlink" version="1.1" id="Layer_1" x="0px" y="0px" enable-background="new 0 0 822.05 841.89" xml:space="preserve" viewBox="212.79 264.25 397.47 308.03">
<path fill-rule="evenodd" clip-rule="evenodd" fill="#878787" stroke="#000000" stroke-width="2" stroke-linecap="square" stroke-miterlimit="10" d="  M489.049,474.39c-10.676,1.831-64.447-76.528-64.5-92.25C447.413,411.7,467.712,443.655,489.049,474.39z"/>
<path fill-rule="evenodd" clip-rule="evenodd" fill="#FFFFFF" stroke="#000000" stroke-width="2" stroke-linecap="square" stroke-miterlimit="10" d="  M363.795,305.64c-15.655,24.706-14.376,59.075-11.25,87c5.13,45.819,23.694,44.5,54.752,21.75  c28.186-20.646,71.408-32.528,42.752-69C431.862,322.243,392.991,304.365,363.795,305.64z"/>
<path fill-rule="evenodd" clip-rule="evenodd" fill="#ED2224" d="M364.545,304.14c32.118-18.922,179.458-49.814,152.254,15.75  c-2.809,6.768-36.59,46.415-42.75,46.5c-7.404,0.102-20.617-18.657-27.375-24.375C421.898,321.051,392.193,309.338,364.545,304.14z"/>
<path fill="none" stroke="#000000" stroke-width="2" stroke-linecap="square" stroke-miterlimit="10" d="M364.545,304.14  c32.118-18.922,179.458-49.814,152.254,15.75c-2.809,6.768-36.59,46.415-42.75,46.5c-7.404,0.102-20.617-18.657-27.375-24.375  c-22.646-19.163-52.138-37.327-82.879-36.375"/>
<path fill="none" stroke="#000000" stroke-width="2" stroke-linecap="square" stroke-miterlimit="10" d="M365.295,301.14  c26.745-16.919,129.607-62.787,145.504-14.25C460.35,272.645,413.051,280.799,365.295,301.14z"/>
<path fill-rule="evenodd" clip-rule="evenodd" fill="#ED2224" stroke="#000000" stroke-width="2" stroke-linecap="square" stroke-miterlimit="10" d="  M362.295,306.39c-26.102,22.824-44.147,51.914-56.625,84c-4.771,12.268-28.272,80.759,6.75,66.75  c35.793-14.317,48.017-10.766,41.25-53.625C348.833,372.879,348.034,334.774,362.295,306.39z"/>
<path fill="none" stroke="#000000" stroke-width="2" stroke-linecap="square" stroke-miterlimit="10" d="M360.795,305.64  c-36.474,22.235-61.665,67.373-64.5,109.5C311.596,377.732,327.39,330.896,360.795,305.64z"/>
<path fill-rule="evenodd" clip-rule="evenodd" fill="#878787" stroke="#000000" stroke-width="2" stroke-linecap="square" stroke-miterlimit="10" d="  M359.295,305.64c-4.083-5.591-7.335-10.087-7.5-16.5C363.219,292.288,372.385,300.198,359.295,305.64z"/>
<path fill="none" stroke="#000000" stroke-width="2" stroke-linecap="square" stroke-miterlimit="10" d="M291.045,445.89  c91.889-35.674,160.774-82.954,227.254-155.25"/>
<path fill-rule="evenodd" clip-rule="evenodd" fill="#878787" stroke="#000000" stroke-width="2" stroke-linecap="square" stroke-miterlimit="10" d="  M438.049,563.64c-4.741,3.358-75.445-86.542-72.754-104.25C392.794,490.218,414.451,529.364,438.049,563.64z"/>
<path fill-rule="evenodd" clip-rule="evenodd" fill="#FFFFFF" stroke="#000000" stroke-width="2" stroke-linecap="square" stroke-miterlimit="10" d="  M296.295,372.39c-17.913,26.632-16.186,63.889-13.139,94.361c5.384,53.841,24.963,56.892,62.639,28.639  c17.621-13.214,86.539-42.433,52.876-73.5C372.138,397.403,334.858,368.215,296.295,372.39z"/>
<path fill-rule="evenodd" clip-rule="evenodd" fill="#ED2224" d="M296.295,370.89c27.917-17.94,204.842-58.334,178.504,14.25  c-5.705,15.722-36.446,37.895-48.18,50.712c-11.774,12.861-19.966-8.14-30.574-17.712  C366.953,391.89,332.242,376.692,296.295,370.89z"/>
<path fill="none" stroke="#000000" stroke-width="2" stroke-linecap="square" stroke-miterlimit="10" d="M296.295,370.89  c31.3-20.114,69.487-30.01,106.502-29.25c18.438,0.378,94.015,6.812,73.127,41.625c-9.847,16.411-30.707,32.272-43.845,46.623  c-16.974,18.541-14.464,8.021-31.533-7.623c-27.05-24.79-65.647-51.959-104.251-49.875"/>
<path fill="none" stroke="#000000" stroke-width="2" stroke-linecap="square" stroke-miterlimit="10" d="M297.795,367.14  c26.778-20.033,151.309-69.924,165.004-15.75C405.936,332.96,351.674,344.568,297.795,367.14z"/>
<path fill-rule="evenodd" clip-rule="evenodd" fill="#ED2224" stroke="#000000" stroke-width="2" stroke-linecap="square" stroke-miterlimit="10" d="  M294.795,373.14c-25.164,21.767-122.729,163.675-59.25,172.5c40.305,5.604,51.605-24.851,50.25-54  C284.013,453.31,274.25,408.554,294.795,373.14z"/>
<path fill="none" stroke="#000000" stroke-width="2" stroke-linecap="square" stroke-miterlimit="10" d="M292.545,371.64  c-41.328,30.698-67.09,74.095-73.5,125.25C236.019,453.277,255.843,402.639,292.545,371.64z"/>
<path fill-rule="evenodd" clip-rule="evenodd" fill="#878787" stroke="#000000" stroke-width="2" stroke-linecap="square" stroke-miterlimit="10" d="  M291.045,372.39c-4.604-5.283-8.008-11.498-9.75-18C291.922,355.069,307.049,366.11,291.045,372.39z"/>
<path fill="none" stroke="#000000" stroke-width="2" stroke-linecap="square" stroke-miterlimit="10" d="M213.795,531.39  c53.743-21.054,96.225-43.397,144.991-74.345c45.554-28.908,76.04-62.089,113.013-101.905"/>
<path fill-rule="evenodd" clip-rule="evenodd" fill="#878787" stroke="#000000" stroke-width="2" stroke-linecap="square" stroke-miterlimit="10" d="  M571.549,571.14c-11.898,3.859-58.446-76.09-69.75-93.75C524.22,481.503,556.648,549.56,571.549,571.14z"/>
<path fill-rule="evenodd" clip-rule="evenodd" fill="#FFFFFF" stroke="#000000" stroke-width="2" stroke-linecap="square" stroke-miterlimit="10" d="  M441.049,395.64c-17.176,28.571-14.04,62.853-10.861,94.639c5.078,50.779,28.607,37.217,58.36,16.652  c29.23-20.203,78.409-39.022,36.876-74.166C502.223,413.133,472.874,393.599,441.049,395.64z"/>
<path fill-rule="evenodd" clip-rule="evenodd" fill="#ED2224" d="M441.799,394.14c33.294-19.54,69.399-27.618,107.861-25.694  c14.58,0.729,83.207,16.54,53.014,40.694c-11.833,9.466-33.133,48.681-46.875,50.25c-7.296,0.833-22.312-21.014-28.5-25.875  C500.003,412.068,471.055,401.423,441.799,394.14z"/>
<path fill="none" stroke="#000000" stroke-width="2" stroke-linecap="square" stroke-miterlimit="10" d="M441.799,394.14  c27.751-16.287,184.656-53.103,162.75,13.5c-5.234,15.916-35.545,37.444-47.207,50.078c-5.547,6.01-20.465-16.201-24.793-20.078  c-24.944-22.344-57.409-41.379-91.5-42"/>
<path fill="none" stroke="#000000" stroke-width="2" stroke-linecap="square" stroke-miterlimit="10" d="M442.549,391.14  c26.115-18.995,137.917-64.464,151.5-14.25C545.148,359.327,488.422,368.379,442.549,391.14z"/>
<path fill-rule="evenodd" clip-rule="evenodd" fill="#ED2224" stroke="#000000" stroke-width="2" stroke-linecap="square" stroke-miterlimit="10" d="  M439.549,396.39c-25.78,23.025-45.646,52.207-57.615,84.694c-4.625,12.553-31.945,87.778,5.486,72.806  c41.399-16.56,47.429-13.253,42.768-59.861C427.065,462.808,424.427,425.221,439.549,396.39z"/>
<path fill="none" stroke="#000000" stroke-width="2" stroke-linecap="square" stroke-miterlimit="10" d="M438.049,395.64  c-37.124,25.793-64.397,68.183-67.504,114C385.741,468.746,404.995,425.17,438.049,395.64z"/>
<path fill-rule="evenodd" clip-rule="evenodd" fill="#878787" stroke="#000000" stroke-width="2" stroke-linecap="square" stroke-miterlimit="10" d="  M435.799,396.39c-3.943-5.462-6.963-12.239-7.5-18C439.626,381.547,450.284,390.23,435.799,396.39z"/>
<path fill="none" stroke="#000000" stroke-width="2" stroke-linecap="square" stroke-miterlimit="10" d="M365.295,541.14  c95.418-36.449,166.909-86.143,236.254-160.5"/>
</svg>