<svg xmlns="http://www.w3.org/2000/svg" xmlns:xlink="http://www.w3.org/1999/xlink" version="1.1" id="Layer_1" x="0px" y="0px" enable-background="new 0 0 822.05 841.89" xml:space="preserve" viewBox="336.43 345.32 149.5 154.31">
<path fill-rule="evenodd" clip-rule="evenodd" fill="#FFFFFF" stroke="#000000" stroke-width="2" stroke-linecap="square" stroke-miterlimit="10" d="  M358.932,437.935c3.514,80.638,125.989,81.22,126.002,0C484.946,356.307,362.197,356.843,358.932,437.935z"/>
<path fill-rule="evenodd" clip-rule="evenodd" fill="#FFFFFF" d="M421.934,482.935v12V482.935z"/>
<line fill="none" stroke="#000000" stroke-width="2" stroke-linecap="square" stroke-miterlimit="10" x1="421.934" y1="482.935" x2="421.934" y2="494.935"/>
<path fill-rule="evenodd" clip-rule="evenodd" fill="#FFFFFF" d="M376.932,437.935h-12H376.932z"/>
<line fill="none" stroke="#000000" stroke-width="2" stroke-linecap="square" stroke-miterlimit="10" x1="376.932" y1="437.935" x2="364.932" y2="437.935"/>
<path fill-rule="evenodd" clip-rule="evenodd" fill="#FFFFFF" d="M479.684,437.935h-12.75H479.684z"/>
<line fill="none" stroke="#000000" stroke-width="2" stroke-linecap="square" stroke-miterlimit="10" x1="479.684" y1="437.935" x2="466.934" y2="437.935"/>
<path fill-rule="evenodd" clip-rule="evenodd" fill="#FFFFFF" d="M390.432,469.435l-9,9L390.432,469.435z"/>
<line fill="none" stroke="#000000" stroke-width="2" stroke-linecap="square" stroke-miterlimit="10" x1="390.432" y1="469.435" x2="381.432" y2="478.435"/>
<path fill-rule="evenodd" clip-rule="evenodd" fill="#FFFFFF" d="M462.434,397.435l-8.25,8.25L462.434,397.435z"/>
<line fill="none" stroke="#000000" stroke-width="2" stroke-linecap="square" stroke-miterlimit="10" x1="462.434" y1="397.435" x2="454.184" y2="405.685"/>
<path fill-rule="evenodd" clip-rule="evenodd" fill="#FFFFFF" d="M462.434,478.435l-8.25-9L462.434,478.435z"/>
<line fill="none" stroke="#000000" stroke-width="2" stroke-linecap="square" stroke-miterlimit="10" x1="462.434" y1="478.435" x2="454.184" y2="469.435"/>
<path fill-rule="evenodd" clip-rule="evenodd" stroke="#000000" stroke-width="1.25" stroke-linecap="square" stroke-miterlimit="10" d="  M415.934,386.935C433.569,401.062,429.43,370.497,415.934,386.935L415.934,386.935z"/>
<path fill-rule="evenodd" clip-rule="evenodd" stroke="#000000" stroke-width="1.25" stroke-linecap="square" stroke-miterlimit="10" d="  M423.434,399.685c1.5,13.75,3,27.5,4.5,41.25c-3.75-0.5-7.5-1-11.25-1.5C418.934,426.185,421.184,412.935,423.434,399.685z"/>
<path fill-rule="evenodd" clip-rule="evenodd" stroke="#000000" stroke-width="1.25" stroke-linecap="square" stroke-miterlimit="10" d="  M415.184,437.935C433.535,452.416,429.267,421.454,415.184,437.935L415.184,437.935z"/>
<path fill-rule="evenodd" clip-rule="evenodd" fill="#FB0F0C" stroke="#000000" stroke-width="1.25" stroke-linecap="square" stroke-miterlimit="10" d="  M382.182,401.935C397.685,414.797,397.431,388.861,382.182,401.935L382.182,401.935z"/>
<path fill-rule="evenodd" clip-rule="evenodd" fill="#FB0F0C" stroke="#000000" stroke-width="1.5" stroke-linecap="square" stroke-miterlimit="10" d="  M360.432,364.435c11.912-9.529,23.007-28.177,33.75-12c-8.75,7-17.5,14-26.25,21c2,2.5,4,5,6,7.5c-12.25,3-24.5,6-36.75,9  c5.75-11,11.5-22,17.25-33C356.432,359.435,358.432,361.935,360.432,364.435z"/>
</svg>