<svg xmlns="http://www.w3.org/2000/svg" xmlns:xlink="http://www.w3.org/1999/xlink" version="1.1" id="Layer_1" x="0px" y="0px" enable-background="new 0 0 822.05 841.89" xml:space="preserve" viewBox="194.38 239.27 431 361.31">
<path fill-rule="evenodd" clip-rule="evenodd" fill="#E0E1E2" stroke="#000000" stroke-width="2" stroke-linecap="square" stroke-miterlimit="10" d="  M195.381,495.937c0.5,34,1,68,1.5,102c67.25-117.001,134.5-234.001,201.75-351.002C330.881,329.936,263.131,412.937,195.381,495.937  z"/>
<line fill="none" stroke="#000000" stroke-width="2" stroke-linecap="square" stroke-miterlimit="10" x1="398.631" y1="246.935" x2="195.381" y2="562.687"/>
<path fill-rule="evenodd" clip-rule="evenodd" fill="#999B9E" stroke="#000000" stroke-width="2" stroke-linecap="square" stroke-miterlimit="10" d="  M196.881,597.937c119-0.25,238.001-0.5,357.002-0.75c-22.442-63.928-44.886-127.856-67.328-191.785  c-8.297-23.634-41.318-185.609-84.924-162.967c-10.786,5.601-23.085,40.083-28.909,50.194  c-23.558,40.903-47.116,81.806-70.674,122.709C266.992,476.205,231.937,537.071,196.881,597.937z"/>
<path fill-rule="evenodd" clip-rule="evenodd" fill="#E0E1E2" stroke="#000000" stroke-width="2" stroke-linecap="square" stroke-miterlimit="10" d="  M430.133,244.685c64.75,116.75,129.5,233.501,194.25,350.252c-19.691,0.629-66.444,13.803-73.835-7.25  c-12.944-36.871-25.888-73.742-38.832-110.613C484.521,399.611,457.327,322.148,430.133,244.685z"/>
<line fill="none" stroke="#000000" stroke-width="2" stroke-linecap="square" stroke-miterlimit="10" x1="569.633" y1="593.437" x2="430.133" y2="244.685"/>
<path fill-rule="evenodd" clip-rule="evenodd" fill="#ED1C24" stroke="#000000" stroke-width="2" stroke-linecap="square" stroke-miterlimit="10" d="  M223.881,314.435c7.25-6.5,14.5-13,21.75-19.5c9,14.75,18,29.5,27,44.25c8.25-5.25,16.5-10.5,24.75-15.75  c1.5,18.75,3,37.5,4.5,56.25c-17-2.75-34-5.5-51-8.25C276.832,347.844,241.262,330.814,223.881,314.435z"/>
</svg>