<svg xmlns="http://www.w3.org/2000/svg" xmlns:xlink="http://www.w3.org/1999/xlink" version="1.1" id="Layer_1" x="0px" y="0px" enable-background="new 0 0 822.05 841.89" xml:space="preserve" viewBox="275.62 241.43 271.29 357.96">
<path fill-rule="evenodd" clip-rule="evenodd" fill="#0071BC" stroke="#000000" stroke-width="2" stroke-linecap="square" stroke-miterlimit="10" d="  M386.117,525.642c-88.305,8.08-108-62.859-108-133.877c0-83.783,49.414-153.116,138.14-148.681  c101.328,5.066,135.462,84.662,128.862,177.556c-2.363,33.26-11.895,78.793-41.25,99.002  C472.073,541.531,421.341,527.48,386.117,525.642z"/>
<path fill="none" stroke="#000000" stroke-width="2" stroke-linecap="square" stroke-miterlimit="10" d="M481.369,527.892  c-10.25-25.25-20.5-50.5-30.75-75.75c18.25,22,36.5,44,54.75,66c6.5-7.75,13-15.5,19.5-23.25c-24.5-15.5-49-31-73.5-46.5  c28.5,5.5,57,11,85.5,16.5c2.25-11.75,4.5-23.5,6.75-35.25c-30.25,5.25-60.5,10.5-90.75,15.75  c33.965-22.273,94.99-41.531,91.5-86.252c-30.75,27.25-61.5,54.501-92.25,81.752c26.146-38.363,101.698-103.138,68.25-150.752  c-24.75,48.5-49.5,97.001-74.25,145.502c10.596-38.624,21.191-77.247,31.787-115.871c11.43-41.662,24.656-51.792-17.537-68.631  c-6.5,59.25-13,118.501-19.5,177.752c-2.948-36.554-5.896-73.107-8.844-109.661c-2.361-29.289,9.451-79.132-26.783-76.716  c-24.953,1.664-3.037,48.371,0.562,66.292c7.938,39.529,15.877,79.057,23.815,118.585c-15.075-39.363-30.151-78.727-45.227-118.09  c-7.038-18.377-12.009-69.732-39.525-53.662c-26.405,15.421,65.539,145.721,81.002,173.252  c-37.5-47.75-75.001-95.501-112.502-143.252c-25.84,26.155-14.188,30.651,9.411,53.248c32.114,30.751,64.227,61.503,96.341,92.254  c-45-28.75-90.001-57.501-135.002-86.252c-7.777,35.204-10.75,35.953,22.572,48.84c35.476,13.721,70.952,27.441,106.428,41.162  c-45.5-6.501-91-13.001-136.5-19.502c3.427,35.129,2.396,30.772,37.028,29.585c32.407-1.11,64.815-2.222,97.222-3.333  c-41.25,11.5-82.5,23-123.75,34.5c14.424,25.633,15.444,26.072,40.375,13.171c28.292-14.641,56.583-29.28,84.875-43.921  c-28.25,23.5-56.5,47-84.75,70.5c12.576,3.122,24.755,6.975,37.5,9c-5.213-9.024,32.806-54.792,43.5-70.5c-9,24.25-18,48.5-27,72.75  "/>
<path fill-rule="evenodd" clip-rule="evenodd" fill="#904098" stroke="#000000" stroke-width="2" stroke-linecap="square" stroke-miterlimit="10" d="  M384.617,530.142c10.68,14.353,43.427,11.802,58.502,9c42.826-7.96,13.337-24.556,9.622-54.271  c-1.456-11.651-7.148-28.315-2.497-39.479c1.021-2.448,12.391-10.75,11.625-13.5c-2.118-7.606-13.419-18.959-18.75-5.626  c-7.727,19.326-4.798,37.723-15.083,58.293c-4.013,8.025-7.543,16.923-13.417,23.833  C406.017,518.513,393.215,516.108,384.617,530.142z"/>
<path fill-rule="evenodd" clip-rule="evenodd" fill="#E4BE9D" stroke="#000000" stroke-width="2" stroke-linecap="square" stroke-miterlimit="10" d="  M453.619,438.642c4.115,0.273,8.008-5.181,15.75,4.5C464.148,441.651,458.712,440.515,453.619,438.642z"/>
<path fill-rule="evenodd" clip-rule="evenodd" fill="#FFF200" stroke="#000000" stroke-width="2" stroke-linecap="square" stroke-miterlimit="10" d="  M414.619,508.392c-5.731-17.713-17.254-68.586,7.5-80.25C464.315,408.259,419.006,499.749,414.619,508.392z"/>
<path fill-rule="evenodd" clip-rule="evenodd" fill="#AF8977" stroke="#000000" stroke-width="2" stroke-linecap="square" stroke-miterlimit="10" d="  M413.117,540.642c2.501-0.75,5.001-1.5,7.502-2.25c-0.258,15.471-6.161,38.607,5.25,47.25c-6.223,2.246-15.266,4.547-21.752,6  c1.5-2.25,3-4.5,4.5-6.75c-3.25,0-6.5,0-9.75,0C418.867,579.744,412.447,557.73,413.117,540.642z"/>
<path fill-rule="evenodd" clip-rule="evenodd" fill="#AF8977" stroke="#000000" stroke-width="2" stroke-linecap="square" stroke-miterlimit="10" d="  M431.119,538.392c10.243,7.647,3.67,25.736,2.25,40.5c4,0,8,0,12,0c-3,2-6,4-9,6c2.5,1.5,5,3,7.5,4.5c-4.25,0-8.5,0-12.75,0  c1,3,2,6,3,9C418.237,583.947,428.637,557.542,431.119,538.392z"/>
</svg>