<svg xmlns="http://www.w3.org/2000/svg" xmlns:xlink="http://www.w3.org/1999/xlink" version="1.1" id="Layer_1" x="0px" y="0px" enable-background="new 0 0 822.05 841.89" xml:space="preserve" viewBox="322.92 340.5 175.02 162.83">
<path fill-rule="evenodd" clip-rule="evenodd" stroke="#000000" stroke-width="1.25" stroke-linecap="square" stroke-miterlimit="10" d="  M402.064,409.519c-11.916-17.419-2.631-42.827,14.25-51.75c-24.191-4.309-19.771,29.74-31.875,40.5  c-18.733,16.652-37.669,41.06-36.375,67.502c4.429-4.906,10.407-8.896,14.25-14.25c-5.131,8.634-31.561,48.969-15,50.625  c9.129,0.913,29.035,1.368,34.5-4.125c5.206-5.233,3.396-21.834,5.25-29.25c1.718-6.873,21.695-14.829,27.75-19.875  c12.835-10.695,19.826-26.389,16.502-43.127C423.03,414.017,412.17,415.35,402.064,409.519z"/>
<path fill-rule="evenodd" clip-rule="evenodd" stroke="#000000" stroke-width="1.25" stroke-linecap="square" stroke-miterlimit="10" d="  M477.066,351.769c8.729,2.431,14.496,0.458,20.25,9C494.479,348.696,473.743,331.615,477.066,351.769z"/>
<path fill-rule="evenodd" clip-rule="evenodd" fill="#F87F11" stroke="#000000" stroke-width="1.25" stroke-linecap="square" stroke-miterlimit="10" d="  M426.066,372.019c15.509-9.475,32.494-19.279,51-20.25c0.098-1.471,0.087-8.779,0-10.5c-16.015-1.545-83.149,8.893-52.5,33  c17.332,13.632,48.788-16.007,72-10.5C475.465,349.785,445.316,358.612,426.066,372.019z"/>
<path fill-rule="evenodd" clip-rule="evenodd" fill="#FB0F0C" stroke="#000000" stroke-width="1.25" stroke-linecap="square" stroke-miterlimit="10" d="  M363.814,451.521c-10.267,30.73,17.212,22.521,30,4.5C383.717,456.372,372.846,455.167,363.814,451.521z"/>
<path fill-rule="evenodd" clip-rule="evenodd" stroke="#000000" stroke-width="1.25" stroke-linecap="square" stroke-miterlimit="10" d="  M436.566,378.769c-12.423-3.044-14.83-13.441-18.752-25.5c-0.054-0.64-3.063,2.226-3,2.25  C419.835,368.41,421.402,384.674,436.566,378.769z"/>
<path fill="none" stroke="#000000" stroke-width="1.25" stroke-linecap="square" stroke-miterlimit="10" d="M362.314,451.521  c14.799-12.329,31.597-23.999,39.75-42.002"/>
<path fill-rule="evenodd" clip-rule="evenodd" fill="#F7DE58" stroke="#000000" stroke-width="1.25" stroke-linecap="square" stroke-miterlimit="10" d="  M420.814,366.769C408.486,346.641,401.062,380.618,420.814,366.769L420.814,366.769z"/>
<path fill-rule="evenodd" clip-rule="evenodd" fill="#FFFFFF" stroke="#000000" stroke-width="1.25" stroke-linecap="square" stroke-miterlimit="10" d="  M432.816,381.769c-7.438-5.827-13.811-1.929-12.002-15c-19.554,6.926-28.73,12.811-19.5,40.5  c3.524,10.573,21.855,5.289,27.752,0.375C431.749,405.408,431.098,387.577,432.816,381.769z"/>
<path fill-rule="evenodd" clip-rule="evenodd" fill="#4D589D" stroke="#000000" stroke-width="1.25" stroke-linecap="square" stroke-miterlimit="10" d="  M418.564,365.269C408.926,365.269,408.926,365.269,418.564,365.269L418.564,365.269z"/>
<path fill-rule="evenodd" clip-rule="evenodd" stroke="#000000" stroke-width="1.25" stroke-linecap="square" stroke-miterlimit="10" d="  M415.564,365.269C412.382,365.077,411.918,365.049,415.564,365.269L415.564,365.269z"/>
<path fill-rule="evenodd" clip-rule="evenodd" fill="#5E1F0A" stroke="#000000" stroke-width="1.25" stroke-linecap="square" stroke-miterlimit="10" d="  M324.064,430.521c25.769,13.79,54.928,19.124,83.625,22.5c16.562,1.948,49.551-8.257,55.877,10.5  C442.132,463.083,314.412,459.31,324.064,430.521z"/>
<path fill-rule="evenodd" clip-rule="evenodd" fill="#4D4D4D" stroke="#000000" stroke-width="1.25" stroke-linecap="square" stroke-miterlimit="10" d="  M407.314,452.271c14.01-1.697,8.023,16.834-5.25,9C410.443,462.78,404.651,456.847,407.314,452.271z"/>
<path fill="none" stroke="#000000" stroke-width="1.25" stroke-linecap="square" stroke-miterlimit="10" d="M411.814,451.521  c1.515,6.022-0.139,10.459-6,12"/>
<path fill-rule="evenodd" clip-rule="evenodd" fill="#4D4D4D" stroke="#000000" stroke-width="1.25" stroke-linecap="square" stroke-miterlimit="10" d="  M374.314,447.021C376.819,476.667,392.191,443.905,374.314,447.021L374.314,447.021z"/>
<path fill="none" stroke="#000000" stroke-width="1.25" stroke-linecap="square" stroke-miterlimit="10" d="M377.314,445.521  c5.014,4.758,4.992,10.151,0,15"/>
</svg>