<svg xmlns="http://www.w3.org/2000/svg" xmlns:xlink="http://www.w3.org/1999/xlink" version="1.1" id="Layer_1" x="0px" y="0px" enable-background="new 0 0 822.05 841.89" xml:space="preserve" viewBox="323.05 338.63 175.98 163.76">
<path fill-rule="evenodd" clip-rule="evenodd" fill="#E1E4E2" stroke="#000000" stroke-width="1.25" stroke-linecap="square" stroke-miterlimit="10" d="  M330.424,492.765c16.213,0.749,29.209-16.671,33-31.5C350.007,468.085,340.724,481.5,330.424,492.765z"/>
<path fill-rule="evenodd" clip-rule="evenodd" fill="#E1E4E2" stroke="#000000" stroke-width="1.25" stroke-linecap="square" stroke-miterlimit="10" d="  M349.924,468.015c-13.754,11.361-19.729,19.778-26.25,33.75c12.508-6.798,24.519-13.744,33-27.75  C354.424,472.015,352.174,470.015,349.924,468.015z"/>
<path fill-rule="evenodd" clip-rule="evenodd" fill="#E1E4E2" stroke="#000000" stroke-width="1.25" stroke-linecap="square" stroke-miterlimit="10" d="  M346.174,479.265C343.64,476.91,344.258,477.484,346.174,479.265L346.174,479.265z"/>
<path fill-rule="evenodd" clip-rule="evenodd" fill="#191887" stroke="#000000" stroke-width="1.25" stroke-linecap="square" stroke-miterlimit="10" d="  M345.424,470.265c7.413-17.423,21.815-31.952,35.414-45.047c11.464-11.039,23.032-21.595,35.07-32.005  c14.246-12.319,17.646-2.673,32.27,8.052c-29.281,28.043-55.213,60.957-92.254,79.5  C354.606,472.426,349.259,474.969,345.424,470.265z"/>
<path fill-rule="evenodd" clip-rule="evenodd" fill="#F7F619" stroke="#000000" stroke-width="1.25" stroke-linecap="square" stroke-miterlimit="10" d="  M493.178,352.515c-0.856,6.763-3.656,17.044-14.625,23.625c-10.487,6.292-25.119,18.378-31.875,28.875  c-1.769,2.748-5.331,16.612,3,11.25c5.493-3.536,13.938-22.014,22.5-29.25C482.97,377.896,509.62,370.046,493.178,352.515z"/>
<path fill-rule="evenodd" clip-rule="evenodd" fill="#F7F619" stroke="#000000" stroke-width="1.25" stroke-linecap="square" stroke-miterlimit="10" d="  M427.178,381.765c-2.501,2.5-5.003,5-7.504,7.5c11.317,1.583,19.925,8.396,21.754,19.5  C457.072,397.692,441.271,384.173,427.178,381.765z"/>
<path fill-rule="evenodd" clip-rule="evenodd" fill="#FB0F0C" stroke="#000000" stroke-width="1.25" stroke-linecap="square" stroke-miterlimit="10" d="  M466.928,348.015c-14.309,9.96-26.994,21.917-39.75,33.75c11.04,1.886,19.437,8.871,22.5,19.5  C461.406,391.388,508.467,352.815,466.928,348.015z"/>
<path fill-rule="evenodd" clip-rule="evenodd" fill="#F7F619" stroke="#000000" stroke-width="1.25" stroke-linecap="square" stroke-miterlimit="10" d="  M478.178,342.015c-3.852,1.211-7.786,3.944-11.25,6c10.6,1.225,17.09,7.594,18,18C496.485,353.749,501.783,331.465,478.178,342.015z  "/>
</svg>