<svg xmlns="http://www.w3.org/2000/svg" xmlns:xlink="http://www.w3.org/1999/xlink" version="1.1" id="Layer_1" x="0px" y="0px" enable-background="new 0 0 822.05 841.89" xml:space="preserve" viewBox="311.25 338.35 197.8 167.25">
<path fill-rule="evenodd" clip-rule="evenodd" fill="#FFFFFF" stroke="#000000" stroke-linecap="square" stroke-miterlimit="10" d="  M476.25,500.14C446.709,457.939,443.04,501.66,476.25,500.14L476.25,500.14z"/>
<path fill-rule="evenodd" clip-rule="evenodd" stroke="#000000" stroke-linecap="square" stroke-miterlimit="10" d="M477,500.14  c0.931,3.607-6.731,1.319,0.75,4.125C484.723,506.879,477.664,502.714,477,500.14z"/>
<path fill-rule="evenodd" clip-rule="evenodd" fill="#F90F1E" stroke="#000000" stroke-linecap="square" stroke-miterlimit="10" d="  M460.5,477.64c-37.239-30.025-74.684-59.75-111.75-90c-2.061,18.415,91.469,89.265,113.25,96.75  C463.149,481.423,461.046,480.939,460.5,477.64z"/>
<path fill-rule="evenodd" clip-rule="evenodd" fill="#F90F1E" stroke="#000000" stroke-linecap="square" stroke-miterlimit="10" d="  M457.5,482.89c-30.873-25.587-94.035-60.057-109.5-95.25c-2.25,2.25-4.5,4.5-6.75,6.75c26.755,22.086,53.51,44.172,80.265,66.259  C428.797,466.66,457.48,497.323,457.5,482.89z"/>
<path fill-rule="evenodd" clip-rule="evenodd" fill="#F90F1E" stroke="#000000" stroke-linecap="square" stroke-miterlimit="10" d="  M450,491.14c10.351-4.511-26.875-28.281-35.586-35.472c-13.003-10.734-64.737-64.969-76.914-54.528  C375,431.14,412.5,461.14,450,491.14z"/>
<path fill-rule="evenodd" clip-rule="evenodd" fill="#FBD348" stroke="#000000" stroke-linecap="square" stroke-miterlimit="10" d="  M351.75,385.39c-8.388-6.204-36.4-21.092-30.75,5.25C323.603,402.776,355.53,408.574,351.75,385.39z"/>
<path fill-rule="evenodd" clip-rule="evenodd" fill="#FBD348" stroke="#000000" stroke-linecap="square" stroke-miterlimit="10" d="  M338.25,373.39C344.811,417.469,297.144,360.367,338.25,373.39L338.25,373.39z"/>
<path fill-rule="evenodd" clip-rule="evenodd" fill="#FFFFFF" stroke="#000000" stroke-linecap="square" stroke-miterlimit="10" d="  M335.25,374.14c-7.424-12.648-28.267-8.214-22.5,6.75C318.495,395.796,335.137,383.553,335.25,374.14z"/>
<path fill="none" stroke="#000000" stroke-linecap="square" stroke-miterlimit="10" d="M333,395.89  c9.846,5.194,19.949-1.687,11.25-12"/>
<path fill-rule="evenodd" clip-rule="evenodd" fill="#FFFFFF" stroke="#000000" stroke-linecap="square" stroke-miterlimit="10" d="  M504.75,477.64C474.107,433.069,470.585,478.298,504.75,477.64L504.75,477.64z"/>
<path fill-rule="evenodd" clip-rule="evenodd" stroke="#000000" stroke-linecap="square" stroke-miterlimit="10" d="M504.75,476.89  c0.931,3.607-6.731,1.319,0.75,4.125C512.473,483.629,505.414,479.464,504.75,476.89z"/>
<path fill-rule="evenodd" clip-rule="evenodd" fill="#F90F1E" stroke="#000000" stroke-linecap="square" stroke-miterlimit="10" d="  M489,453.64c-38.701-31.255-77.076-62.907-115.5-94.5c-1.741,19.522,94.302,93.142,117,101.25  C491.655,457.409,489.512,456.952,489,453.64z"/>
<path fill-rule="evenodd" clip-rule="evenodd" fill="#F90F1E" stroke="#000000" stroke-linecap="square" stroke-miterlimit="10" d="  M486,459.64c-28.582-24.039-103.034-65.475-113.25-99.75c-2.25,2.25-4.5,4.5-6.75,6.75c28.519,23.889,57.037,47.778,85.556,71.667  C461.005,446.222,483.53,472.552,486,459.64z"/>
<path fill-rule="evenodd" clip-rule="evenodd" fill="#F90F1E" stroke="#000000" stroke-linecap="square" stroke-miterlimit="10" d="  M478.5,467.89c10.603-4.19-25.455-27.464-33.765-34.425c-13.054-10.935-70.708-70.786-82.485-60.075  C401,404.89,439.75,436.39,478.5,467.89z"/>
<path fill-rule="evenodd" clip-rule="evenodd" fill="#FBD348" stroke="#000000" stroke-linecap="square" stroke-miterlimit="10" d="  M375.75,356.89c-8.329-5.233-37.879-23.538-31.5,5.25C347.14,375.182,379.993,381.197,375.75,356.89z"/>
<path fill-rule="evenodd" clip-rule="evenodd" fill="#FBD348" stroke="#000000" stroke-linecap="square" stroke-miterlimit="10" d="  M362.25,345.64c1.358,7.247-9.67,26.462-18,16.5C335.211,351.329,355.648,343.333,362.25,345.64z"/>
<path fill-rule="evenodd" clip-rule="evenodd" fill="#FFFFFF" stroke="#000000" stroke-linecap="square" stroke-miterlimit="10" d="  M359.25,346.39c-6.932-11.568-28.297-10.037-24,6C339.561,368.478,359.322,358.142,359.25,346.39z"/>
<path fill="none" stroke="#000000" stroke-linecap="square" stroke-miterlimit="10" d="M357,367.39  c9.815,4.756,22.196-2.137,12-12.75"/>
</svg>