<svg xmlns="http://www.w3.org/2000/svg" xmlns:xlink="http://www.w3.org/1999/xlink" version="1.1" id="Layer_1" x="0px" y="0px" enable-background="new 0 0 822.05 841.89" xml:space="preserve" viewBox="311.26 340.08 197.49 162.56">
<path fill-rule="evenodd" clip-rule="evenodd" fill="#FFFFFF" stroke="#000000" stroke-width="1.25" stroke-linecap="square" stroke-miterlimit="10" d="  M503.625,496.015c-3.127-4.56-33.122-44.453-31.125-16.5C473.328,491.111,496.658,497.338,503.625,496.015z"/>
<path fill-rule="evenodd" clip-rule="evenodd" stroke="#000000" stroke-width="1.25" stroke-linecap="square" stroke-miterlimit="10" d="  M503.625,496.015c0.857,2.482-3.51,4.77,4.5,6C506.625,500.015,505.125,498.015,503.625,496.015z"/>
<path fill-rule="evenodd" clip-rule="evenodd" fill="#F90F1E" stroke="#000000" stroke-width="1.25" stroke-linecap="square" stroke-miterlimit="10" d="  M485.625,469.765c-39.45-32.828-86.504-83.241-131.25-104.25c7.485,22.967,49.254,45.863,68.305,61.571  c19.331,15.94,41.627,42.104,65.195,50.179C489.211,473.775,486.559,473.213,485.625,469.765z"/>
<path fill-rule="evenodd" clip-rule="evenodd" fill="#F90F1E" stroke="#000000" stroke-width="1.25" stroke-linecap="square" stroke-miterlimit="10" d="  M482.625,476.515c-22.769-18.773-45.536-37.548-68.305-56.321c-17.287-14.254-53.173-33.9-59.945-54.679c-2.5,2.75-5,5.5-7.5,8.25  c31.373,25.783,62.746,51.566,94.118,77.35C448.61,457.375,483.02,493.219,482.625,476.515z"/>
<path fill-rule="evenodd" clip-rule="evenodd" fill="#F90F1E" stroke="#000000" stroke-width="1.25" stroke-linecap="square" stroke-miterlimit="10" d="  M472.875,484.765c13.376-4.12-31.045-32.962-39.808-40.164c-13.714-11.271-79.665-77.696-91.442-64.836  C385.375,414.765,429.125,449.765,472.875,484.765z"/>
<path fill-rule="evenodd" clip-rule="evenodd" fill="#FBD348" stroke="#000000" stroke-width="1.25" stroke-linecap="square" stroke-miterlimit="10" d="  M358.125,361.765c-9.05-3.063-42.623-28.576-36,6C324.624,380.81,364.179,389.868,358.125,361.765z"/>
<path fill-rule="evenodd" clip-rule="evenodd" fill="#FBD348" stroke="#000000" stroke-width="1.25" stroke-linecap="square" stroke-miterlimit="10" d="  M343.125,349.015c1.765,8.617-11.36,29.536-21,18.75C311.959,356.392,335.251,346.178,343.125,349.015z"/>
<path fill-rule="evenodd" clip-rule="evenodd" fill="#FFFFFF" stroke="#000000" stroke-width="1.25" stroke-linecap="square" stroke-miterlimit="10" d="  M339.375,349.765c-7.136-13.994-31.207-11.603-27,6C316.533,373.164,339.838,363.906,339.375,349.765z"/>
<path fill="none" stroke="#000000" stroke-width="1.25" stroke-linecap="square" stroke-miterlimit="10" d="M336.375,374.515  c11.093,8.575,24.544-3.639,13.5-14.25"/>
</svg>