<svg xmlns="http://www.w3.org/2000/svg" xmlns:xlink="http://www.w3.org/1999/xlink" version="1.1" id="Layer_1" x="0px" y="0px" enable-background="new 0 0 822.05 841.89" xml:space="preserve" viewBox="356.43 340.16 106.42 162.33">
<path fill-rule="evenodd" clip-rule="evenodd" stroke="#000000" stroke-width="1.25" stroke-linecap="square" stroke-miterlimit="10" d="  M357.057,499.833c15.581-10.669,33.608-11.085,51.75-8.25C393.842,497.443,371.764,505.748,357.057,499.833z"/>
<path fill-rule="evenodd" clip-rule="evenodd" stroke="#000000" stroke-width="1.25" stroke-linecap="square" stroke-miterlimit="10" d="  M444.809,474.333c-2.602-33.828-24.542-64.14-30.002-93c-3.096-16.367,7.112-41.802-23.25-40.5c7.098,2.599,16.223,9.767,16.5,18  c0.356,10.588-10.264,14.191-10.5,16.5c-0.986,9.653,14.011,31.982,5.25,41.25c15.729,17.748,2.646,47.155,17.252,66.75  c-6.987,3.469-11.674,9.648-18.002,13.5C418.357,497.407,496.458,482.456,444.809,474.333z"/>
<path fill-rule="evenodd" clip-rule="evenodd" stroke="#000000" stroke-width="1.25" stroke-linecap="square" stroke-miterlimit="10" d="  M396.057,366.333c14.453,3.142,6.874-30.938-18-8.25C382.644,362.814,387.825,365.127,396.057,366.333z"/>
<path fill-rule="evenodd" clip-rule="evenodd" fill="#FFFFFF" stroke="#000000" stroke-width="1.25" stroke-linecap="square" stroke-miterlimit="10" d="  M402.807,416.583c7.585-8.024-1.765-16.452-1.5-28.5c0.078-3.566-6.576-6.533-6-11.25c0.525-4.3,12.092-0.199,12-5.25  c-0.686-37.838-15.018-21.454-38.25-19.5c11.049,6.263,22.176,3.62,27.75-4.5c30.761,19.492-16.051,15.542-22.5,24  c28.38,10.207,13.534,45.226,36,60C409.906,424.721,406.539,421.473,402.807,416.583z"/>
<path fill="none" stroke="#000000" stroke-width="1.25" stroke-linecap="square" stroke-miterlimit="10" d="M420.809,483.333  c20.62,11.818,8.406-17.866,7.694-32.111c-0.921-18.426-0.621-32.697-17.446-44.389"/>
<path fill-rule="evenodd" clip-rule="evenodd" stroke="#000000" stroke-width="1.25" stroke-linecap="square" stroke-miterlimit="10" d="  M392.307,425.583c2.214,11.625,8.423,21.322,18.75,27c3.497-14.884-30.093-97.672-41.25-72  C386.688,387.615,391.359,408.778,392.307,425.583z"/>
<path fill-rule="evenodd" clip-rule="evenodd" fill="#FFFFFF" stroke="#000000" stroke-width="1.25" stroke-linecap="square" stroke-miterlimit="10" d="  M411.057,452.583c-28.274-15.543-11.2-59.482-41.25-72c-10.666,28.455,3.488,148.827,50.252,102.75  C413.287,474.7,410.915,463.637,411.057,452.583z"/>
<path fill-rule="evenodd" clip-rule="evenodd" stroke="#000000" stroke-width="1.25" stroke-linecap="square" stroke-miterlimit="10" d="  M384.807,343.833c-6.903-2.498-16.708-2.641-24.75,0C367.423,354.033,379.689,355.195,384.807,343.833z"/>
<path fill-rule="evenodd" clip-rule="evenodd" stroke="#000000" stroke-width="1.25" stroke-linecap="square" stroke-miterlimit="10" d="  M395.307,349.083C390.524,348.881,390.373,348.875,395.307,349.083L395.307,349.083z"/>
<path fill-rule="evenodd" clip-rule="evenodd" stroke="#000000" stroke-width="1.25" stroke-linecap="square" stroke-miterlimit="10" d="  M420.059,495.333c-12.964,7.217-28.071,5.484-42.752,4.5C390.433,493.996,410.885,484.573,420.059,495.333z"/>
</svg>