<svg xmlns="http://www.w3.org/2000/svg" xmlns:xlink="http://www.w3.org/1999/xlink" version="1.1" id="Layer_1" x="0px" y="0px" enable-background="new 0 0 822.05 841.89" xml:space="preserve" viewBox="265.29 257.13 291.75 329">
<path fill-rule="evenodd" clip-rule="evenodd" fill="#ED2224" stroke="#000000" stroke-width="2" stroke-linecap="square" stroke-miterlimit="10" d="  M316,276.019c-77.056,45.583-44.744,132.364-32.25,203.25c9.513,53.973,61.806,104.192,118.5,105.75  c20.62,0.566,51.924-0.791,70.5-9.75c38.956-18.788,40.898-57.661,52.5-94.5c13.094-41.579,26.844-75.669,30.361-119.639  c3.428-42.844-13.876-41.626-39.361-67.111c-15.939-15.939-37.974-21.675-58.875-27.375c-17.793-4.853-27.492,6.04-43.123,5.625  C379.609,271.349,350.396,252.199,316,276.019z"/>
<path fill-rule="evenodd" clip-rule="evenodd" fill="#34A048" stroke="#000000" stroke-width="2" stroke-linecap="square" stroke-miterlimit="10" d="  M420.25,306.769c-19.548,1.564-61.863,0.761-33.306,27.639c21.591,20.321,63.326,6.298,88.056,7.611  c-7.86-11.632-10.946-23.134-24.75-24c9.982-10.002,24.497-18.99,33-30c3.583-4.64,24.217-36.897,1.125-28.5  C458.642,268.877,434.577,282.683,420.25,306.769z"/>
<line fill="none" stroke="#000000" stroke-width="2" stroke-linecap="square" stroke-miterlimit="10" x1="397" y1="327.019" x2="420.25" y2="306.769"/>
<path fill="none" stroke="#000000" stroke-width="2" stroke-linecap="square" stroke-miterlimit="10" d="M379,326.269  c-119.159-40.801-78.665,155.633-66.75,209.25"/>
<path fill="none" stroke="#000000" stroke-width="2" stroke-linecap="square" stroke-miterlimit="10" d="M479.5,343.519  c26.775-10.896,68.306-15.701,76.5,21"/>
<path fill="none" stroke="#000000" stroke-width="2" stroke-linecap="square" stroke-miterlimit="10" d="M294.25,293.269  c30.339-14.246,62.688-6.739,86.25,16.5"/>
<path fill="none" stroke="#000000" stroke-width="2" stroke-linecap="square" stroke-miterlimit="10" d="M412.002,273.769  c6.62,8.437,8.277,18.949,5.248,29.25"/>
<path fill="none" stroke="#000000" stroke-width="2" stroke-linecap="square" stroke-miterlimit="10" d="M515.5,296.269  c-16.803,7.308-40.798,16.159-49.5,33"/>
<path fill="none" stroke="#000000" stroke-width="2" stroke-linecap="square" stroke-miterlimit="10" d="M445,350.269  c18.97,15.746,17.45,36.493,13.341,58.608C447.894,465.091,437.447,521.305,427,577.519"/>
</svg>