<svg xmlns="http://www.w3.org/2000/svg" xmlns:xlink="http://www.w3.org/1999/xlink" version="1.1" id="Layer_1" x="0px" y="0px" enable-background="new 0 0 822.05 841.89" xml:space="preserve" viewBox="233.5 255.98 354.58 330.34">
<path fill-rule="evenodd" clip-rule="evenodd" fill="#C72F27" stroke="#000000" stroke-width="2" stroke-linecap="square" stroke-miterlimit="10" d="  M587,421.141c5.448,218.839-352.923,218.962-352.5,0C234.923,202.135,593.298,202.388,587,421.141z"/>
<path fill-rule="evenodd" clip-rule="evenodd" fill="#F3897C" d="M323,353.641c0,13.5,0,27,0,40.5  c17.012-3.19,36.55,1.137,35.208-18.102C356.282,348.433,349.982,354.84,323,353.641z"/>
<path fill-rule="evenodd" clip-rule="evenodd" fill="#F3897C" d="M491.75,472.891c0,13.5,0,27,0,40.5  c16.666-3.472,36.75,0.378,34.944-18.588C524.136,467.946,518.129,474.09,491.75,472.891z"/>
<path fill-rule="evenodd" clip-rule="evenodd" fill="#F3897C" d="M518.75,378.391c0,13.5,0,27,0,40.5  c16.631-3.394,37.501,0.388,35.694-18.588C551.864,373.212,545.346,379.573,518.75,378.391z"/>
<path fill-rule="evenodd" clip-rule="evenodd" fill="#F3897C" d="M420.5,325.891c0,13.5,0,27,0,40.5  c17.003-3.188,36.738,1.188,34.944-18.102C452.908,321.027,447.271,327.108,420.5,325.891z"/>
<path fill-rule="evenodd" clip-rule="evenodd" fill="#F3897C" d="M433.25,405.391c14.5,13.75,29,27.5,43.5,41.25  C491.175,423.194,449.817,379.623,433.25,405.391z"/>
<path fill-rule="evenodd" clip-rule="evenodd" fill="#F3897C" d="M320,459.391c14.5,13.75,29,27.5,43.5,41.25  c15.103-23.575,40.534-40.368,15.991-59.513C348.351,416.839,347.429,432.522,320,459.391z"/>
</svg>