<svg xmlns="http://www.w3.org/2000/svg" xmlns:xlink="http://www.w3.org/1999/xlink" version="1.1" id="Layer_1" x="0px" y="0px" enable-background="new 0 0 822.05 841.89" xml:space="preserve" viewBox="292.66 246.42 237.98 349.66">
<path fill-rule="evenodd" clip-rule="evenodd" fill="#BCBEC0" stroke="#000000" stroke-width="2" stroke-linecap="square" stroke-miterlimit="10" d="  M429.006,300.39c-22.207,0.705-21.132,20.942-21.75,38.25c-1.057,29.601,19.19,31.5,46.5,31.5c30.236,0,48.574-27.175,33-57  C475.994,292.531,449.433,298.998,429.006,300.39z"/>
<path fill="none" stroke="#000000" stroke-width="2" stroke-linecap="square" stroke-miterlimit="10" d="M408.006,317.64  c25.581,11.015,54.43,8.909,78.75-4.5"/>
<path fill-rule="evenodd" clip-rule="evenodd" fill="#DCF2FD" stroke="#000000" stroke-width="2" stroke-linecap="square" stroke-miterlimit="10" d="  M406.506,359.64c-72.472,47.794-39.408,131.937-2.25,189c-39.522,16.903,4.856,41.619,27,45.75  c26.469,4.938,106.817-17.342,54.75-45c33.262-40.502,58.353-98.915,33.75-150c-4.469-9.279-14.558-27.549-24-32.25  c-15.02-7.478-9.055-3.676-25.875,1.5C447.514,375.522,426.722,371.087,406.506,359.64z"/>
<path fill="none" stroke="#000000" stroke-width="2" stroke-linecap="square" stroke-miterlimit="10" d="M408.006,347.64  c24.987,13.908,54.791,18.898,78.75,0"/>
<path fill="none" stroke="#000000" stroke-width="2" stroke-linecap="square" stroke-miterlimit="10" d="M404.256,548.64  c23.957,16.605,58.121,19.969,81.75,0.75"/>
<path fill-rule="evenodd" clip-rule="evenodd" fill="#FFDB78" stroke="#000000" stroke-width="2" stroke-linecap="square" stroke-miterlimit="10" d="  M430.506,286.14c-5.882,17.585,10.682,30.941,26.625,21.375c30.816-18.49-6.48-34.688-22.875-34.875  c-8.231-0.094-16.539,5.767-26.25,2.25c-5.214-1.889-9.934-13.812-15.75-17.25c-19.884-11.754-45.102-13.53-66.75-4.5  c-45.154,18.834-41.846,70.118,7.125,81c18.59,4.131,40.708-0.156,55.875-12C406.636,307.982,403.785,280.625,430.506,286.14z"/>
</svg>