<svg xmlns="http://www.w3.org/2000/svg" xmlns:xlink="http://www.w3.org/1999/xlink" version="1.1" id="Layer_1" x="0px" y="0px" enable-background="new 0 0 822.05 841.89" xml:space="preserve" viewBox="343.1 334.35 136.25 174.3">
<path fill-rule="evenodd" clip-rule="evenodd" fill="#F1DDC4" stroke="#000000" stroke-width="1.25" stroke-linecap="square" stroke-miterlimit="10" d="  M444.977,427.77c-5.864-3.05-18.933-15.767-23.367-15.633c-20.142,0.61-21.962,7.093-39.26,13.383  c-11.79,4.287-25.34,30.75-6.027,30.75C416.585,456.27,434.342,468.181,444.977,427.77z"/>
<path fill-rule="evenodd" clip-rule="evenodd" fill="#3576B5" stroke="#000000" stroke-width="1.25" stroke-linecap="square" stroke-miterlimit="10" d="  M461.477,426.27c-21.906-11.352-34.361,23.104-64.502,11.25c-15.794-6.212-12.535-23.979-35.625-10.125  c-14.283,8.569-15.448,64.888-17.625,80.625c45,0,90.001,0,135.002,0C474.392,482.167,477.293,448.285,461.477,426.27z"/>
<path fill-rule="evenodd" clip-rule="evenodd" fill="#F1DDC4" stroke="#000000" stroke-width="1.25" stroke-linecap="square" stroke-miterlimit="10" d="  M385.725,391.77C383.452,421.91,361.658,371.506,385.725,391.77L385.725,391.77z"/>
<path fill-rule="evenodd" clip-rule="evenodd" fill="#F1DDC4" stroke="#000000" stroke-width="1.25" stroke-linecap="square" stroke-miterlimit="10" d="  M451.727,391.77C430.878,415.273,446.83,361.529,451.727,391.77L451.727,391.77z"/>
<path fill-rule="evenodd" clip-rule="evenodd" fill="#F1DDC4" stroke="#000000" stroke-width="1.25" stroke-linecap="square" stroke-miterlimit="10" d="  M378.225,367.02c-7.26,43.47,47.596,82.078,66.752,31.5C468.518,336.363,383.384,308.74,378.225,367.02z"/>
<path fill-rule="evenodd" clip-rule="evenodd" fill="#F1DDC4" d="M374.475,464.52v42V464.52z"/>
<line fill="none" stroke="#000000" stroke-width="1.25" stroke-linecap="square" stroke-miterlimit="10" x1="374.475" y1="464.52" x2="374.475" y2="506.52"/>
<path fill-rule="evenodd" clip-rule="evenodd" fill="#F1DDC4" d="M444.977,463.77v43.5V463.77z"/>
<line fill="none" stroke="#000000" stroke-width="1.25" stroke-linecap="square" stroke-miterlimit="10" x1="444.977" y1="463.77" x2="444.977" y2="507.27"/>
</svg>