<svg xmlns="http://www.w3.org/2000/svg" xmlns:xlink="http://www.w3.org/1999/xlink" version="1.1" id="Layer_1" x="0px" y="0px" enable-background="new 0 0 822.05 841.89" xml:space="preserve" viewBox="269.18 244.5 281.75 354.55">
<path fill-rule="evenodd" clip-rule="evenodd" fill="#BCBEC0" stroke="#010101" stroke-width="2" stroke-linecap="square" stroke-miterlimit="10" d="  M438.184,577.89c4.223-65.633-43.458-101.329-105.002-99c16.376,31.574,34.177,64.592,58.5,90.75  C399.191,577.715,445.901,615.818,438.184,577.89z"/>
<path fill-rule="evenodd" clip-rule="evenodd" fill="#BCBEC0" d="M430.684,576.39c-12.103-27.697-33.005-62.889-65.252-69  C387.182,530.39,408.933,553.39,430.684,576.39z"/>
<path fill="none" stroke="#010101" stroke-width="2" stroke-linecap="square" stroke-miterlimit="10" d="M430.684,576.39  c-12.103-27.697-33.005-62.889-65.252-69"/>
<path fill-rule="evenodd" clip-rule="evenodd" fill="#BCBEC0" stroke="#010101" stroke-width="2" stroke-linecap="square" stroke-miterlimit="10" d="  M446.434,473.64c-4.394-56.009,60.424-69.88,103.5-68.25C542.384,415.105,443.246,520.206,446.434,473.64z"/>
<path fill-rule="evenodd" clip-rule="evenodd" fill="#BCBEC0" stroke="#010101" stroke-width="2" stroke-linecap="square" stroke-miterlimit="10" d="  M427.684,585.39c-1,4-2,8-3,12c51.449,14.274,18.391-206.122,12-234.75c-21.357,8.286,1.437,90.933,3.93,113.37  C444.51,511.075,443.878,553.083,427.684,585.39z"/>
<path fill-rule="evenodd" clip-rule="evenodd" fill="#F7931E" stroke="#010101" stroke-width="2" stroke-linecap="square" stroke-miterlimit="10" d="  M433.684,301.89c2.159-13.408,11.06-46.715,27.75-50.25c12.669-2.683,41.975,20.881,44.25,32.25  c7.193,35.937-51.686,24.961-73.5,28.5C431.979,308.723,432.624,305.403,433.684,301.89z"/>
<path fill-rule="evenodd" clip-rule="evenodd" fill="#F7931E" stroke="#010101" stroke-width="2" stroke-linecap="square" stroke-miterlimit="10" d="  M424.684,312.39c-13.41-6.588-46.812-21.54-44.252-39c1.688-11.512,36.162-29.643,47.252-27.75c36.572,6.241,8.55,46.254,7.5,69.75  C431.846,314.207,427.852,313.836,424.684,312.39z"/>
<path fill-rule="evenodd" clip-rule="evenodd" fill="#F7931E" stroke="#010101" stroke-width="2" stroke-linecap="square" stroke-miterlimit="10" d="  M435.184,322.14c-13.972,11.144-31.219,33-51.002,33c-13.347,0-29.602-34.192-26.25-45.75c11.034-38.042,60.712-1.352,84.002,1.5  C440.876,315.16,438.36,318.856,435.184,322.14z"/>
<path fill-rule="evenodd" clip-rule="evenodd" fill="#F7931E" stroke="#010101" stroke-width="2" stroke-linecap="square" stroke-miterlimit="10" d="  M446.434,310.89c12.652-3.799,49.439-14.142,60.75-1.5c8.246,9.216,0.101,40.199-9,47.25c-30.258,23.442-44.692-27.856-63-41.25  C438.369,312.854,442.269,311.422,446.434,310.89z"/>
<path fill-rule="evenodd" clip-rule="evenodd" fill="#BCBEC0" d="M453.934,473.64c16.309-23.193,34.332-41.783,63.75-46.5  C496.434,442.64,475.184,458.14,453.934,473.64z"/>
<path fill="none" stroke="#010101" stroke-width="2" stroke-linecap="square" stroke-miterlimit="10" d="M453.934,473.64  c16.309-23.193,34.332-41.783,63.75-46.5"/>
<path fill-rule="evenodd" clip-rule="evenodd" fill="#F7931E" stroke="#010101" stroke-width="2" stroke-linecap="square" stroke-miterlimit="10" d="  M446.434,316.89c6.7,10.745,30.414,40.26,22.5,54.75c-5.682,10.403-47.712,16.166-57.75,9.75  C379.688,361.26,435.819,301.772,446.434,316.89z"/>
<path fill-rule="evenodd" clip-rule="evenodd" fill="#BCBEC0" stroke="#010101" stroke-width="2" stroke-linecap="square" stroke-miterlimit="10" d="  M456.934,310.89c-4.743,18.819-43.317,22.158-42.75,0C414.706,290.492,451.079,296.464,456.934,310.89z"/>
<path fill-rule="evenodd" clip-rule="evenodd" fill="#ED1C24" stroke="#010101" stroke-width="2" stroke-linecap="square" stroke-miterlimit="10" d="  M270.182,400.14c6.5,8.25,13,16.5,19.5,24.75c15.327-15.327,30.654-30.654,45.98-45.98c16.59-16.59,23.869,1.29,40.27,15.23  c0.793-10.835,10.76-53.963,4.5-61.5c-6.258-7.534-50.694-5.564-61.5-6.75c9.601,18.241,20.815,24.327,3.361,36.853  C304.922,375.208,287.552,387.674,270.182,400.14z"/>
</svg>