<svg xmlns="http://www.w3.org/2000/svg" xmlns:xlink="http://www.w3.org/1999/xlink" version="1.1" id="Layer_1" x="0px" y="0px" enable-background="new 0 0 822.05 841.89" xml:space="preserve" viewBox="252.54 242.17 320.62 354.95">
<path fill-rule="evenodd" clip-rule="evenodd" fill="#E4BE9D" stroke="#000000" stroke-width="2" stroke-linecap="square" stroke-miterlimit="10" d="  M356.908,244.647c16.444,0.115,106.79-6.177,107.627,6.375c2.216,33.24,23.411,74.733,33.935,106.305  c21.557,64.668,38.249,140.854,73.69,199.32c-12.229,5.706-12.559,3.31-14.25,15.75c-16.811-8.847-17.2,5.477-29.37,5.172  c-23.923-0.598-26.637-0.906-43.966,15.781c-8.984,8.651-58.576-5.971-73.665-2.953c-24.438,4.887-50.561,2.945-75.001-1.5  c-7.106-1.293,4.358-10.801-8.444-8.973c-6.463,0.924-12.896,2.805-19.306,1.402c-6.466-1.414-14.055-2.067-20.25-4.43  c-1.5-4.25-3-8.5-4.5-12.75c-4.25,0.75-8.5,1.5-12.75,2.25c-27.878-22.885-15.854-36.953-4.747-67.378  c11.333-31.04,22.704-62.067,33.997-93.122c10.678-29.361,21.397-58.657,32.58-87.829  C340.582,296.955,360.721,267.849,356.908,244.647z"/>
<path fill-rule="evenodd" clip-rule="evenodd" fill="#E4BE9D" d="M356.908,260.397l108.002,1.5L356.908,260.397z"/>
<line fill="none" stroke="#000000" stroke-width="2" stroke-linecap="square" stroke-miterlimit="10" x1="356.908" y1="260.397" x2="464.91" y2="261.897"/>
</svg>