<svg xmlns="http://www.w3.org/2000/svg" xmlns:xlink="http://www.w3.org/1999/xlink" version="1.1" id="Layer_1" x="0px" y="0px" enable-background="new 0 0 822.05 841.89" xml:space="preserve" viewBox="201.89 306.03 419 230">
<path fill-rule="evenodd" clip-rule="evenodd" fill="#DCF2FD" stroke="#000000" stroke-width="2" stroke-linecap="square" stroke-miterlimit="10" d="  M332.64,307.031c-43.25,40.75-86.5,81.5-129.75,122.25c86.273,29.742,172.547,59.484,258.82,89.227  c36.902,12.722,41.614,23.999,66.523-5.485c30.552-36.164,61.104-72.327,91.656-108.491  C524.14,372.031,428.39,339.531,332.64,307.031z"/>
<path fill-rule="evenodd" clip-rule="evenodd" fill="#E4BE9D" stroke="#000000" stroke-width="2" stroke-linecap="square" stroke-miterlimit="10" d="  M454.14,408.281c-5.186,29.482-63.985,31.77-64.5,0C389.116,375.94,449.17,378.058,454.14,408.281z"/>
<path fill-rule="evenodd" clip-rule="evenodd" fill="#E4BE9D" stroke="#000000" stroke-width="2" stroke-linecap="square" stroke-miterlimit="10" d="  M537.39,420.281c-4.116,29.74-63.844,31.43-64.5,0C472.226,388.449,533.785,389.384,537.39,420.281z"/>
<path fill-rule="evenodd" clip-rule="evenodd" fill="#90A7D6" stroke="#000000" stroke-width="2" stroke-linecap="square" stroke-miterlimit="10" d="  M235.14,439.781c41.59-46.811,76.683-67.015,138-53.25c-5.522,16.808-18.461,73.041-35.25,82.5  C319.988,479.117,257.697,447.188,235.14,439.781z"/>
<line fill="none" stroke="#000000" stroke-width="2" stroke-linecap="square" stroke-miterlimit="10" x1="373.14" y1="386.531" x2="373.14" y2="386.531"/>
<path fill-rule="evenodd" clip-rule="evenodd" fill="#FFDB78" stroke="#000000" stroke-width="2" stroke-linecap="square" stroke-miterlimit="10" d="  M478.89,434.531c-27.664,6.125-66.729,17.667-82.875,43.5c-10.908,17.453,93.96,49.109,113.625,57  c4.164-18.642,17.386-60.104,8.25-78.75C510.095,440.373,493.271,445.619,478.89,434.531z"/>
<path fill-rule="evenodd" clip-rule="evenodd" fill="#EC008C" stroke="#000000" stroke-width="2" stroke-linecap="square" stroke-miterlimit="10" d="  M391.89,417.281c-23.071,9.812-45.171,20.265-65.625,34.875c-25.732,18.38,27.822,26.583,40.124,31.125  c34.366,12.689,48.839,28.144,66.001-9c6.692-14.484,11.674-29.68,5.25-45C420.484,436.74,402.574,433.249,391.89,417.281z"/>
<path fill-rule="evenodd" clip-rule="evenodd" fill="#E4BE9D" stroke="#000000" stroke-width="2" stroke-linecap="square" stroke-miterlimit="10" d="  M394.14,365.531c-3.84,29.996-63.094,30.893-63.75,0C329.719,333.982,391.242,334.267,394.14,365.531z"/>
</svg>