<svg xmlns="http://www.w3.org/2000/svg" xmlns:xlink="http://www.w3.org/1999/xlink" version="1.1" id="Layer_1" x="0px" y="0px" enable-background="new 0 0 822.05 841.89" xml:space="preserve" viewBox="203.38 282.44 414.5 276.5">
<path fill-rule="evenodd" clip-rule="evenodd" fill="#DCF2FD" stroke="#000000" stroke-width="2" stroke-linecap="square" stroke-miterlimit="10" d="  M386.628,283.443c-25,38-50,76-75,114c70.732,7.095,141.465,14.189,212.197,21.284c30.477,3.057,31.906,8.729,45.589-18.46  c15.822-31.441,31.644-62.882,47.466-94.324C540.129,298.443,463.379,290.943,386.628,283.443z"/>
<path fill-rule="evenodd" clip-rule="evenodd" fill="#E4BE9D" stroke="#000000" stroke-width="2" stroke-linecap="square" stroke-miterlimit="10" d="  M493.88,337.443c1.741,22.328-42.354,35.731-46.875,13.125C442.01,325.591,484.001,315.827,493.88,337.443z"/>
<path fill-rule="evenodd" clip-rule="evenodd" fill="#E4BE9D" stroke="#000000" stroke-width="2" stroke-linecap="square" stroke-miterlimit="10" d="  M558.38,332.193c-0.694,21.499-42.048,35.822-48,11.25C504.379,318.669,548.829,311.853,558.38,332.193z"/>
<path fill-rule="evenodd" clip-rule="evenodd" fill="#90A7D6" stroke="#000000" stroke-width="2" stroke-linecap="square" stroke-miterlimit="10" d="  M337.128,399.693c22.016-43.064,45.641-63.75,93.002-63.75c-1.812,21.862-3.013,46.906-11.25,67.5  C414.742,413.787,350.104,400.906,337.128,399.693z"/>
<line fill="none" stroke="#000000" stroke-width="2" stroke-linecap="square" stroke-miterlimit="10" x1="430.13" y1="335.943" x2="430.13" y2="335.943"/>
<path fill-rule="evenodd" clip-rule="evenodd" fill="#FFDB78" stroke="#000000" stroke-width="2" stroke-linecap="square" stroke-miterlimit="10" d="  M517.13,353.193c-13.781,7.274-51.27,24.911-52.5,44.25c-1.445,22.712,70.382,21.281,93.75,24.75  c-1.689-18.54,0.512-45.397-9.375-61.875C544.196,352.303,527.038,357.166,517.13,353.193z"/>
<path fill-rule="evenodd" clip-rule="evenodd" fill="#EC008C" stroke="#000000" stroke-width="2" stroke-linecap="square" stroke-miterlimit="10" d="  M449.63,355.443c-8.283,6.631-52.899,34.246-46.502,48.75c2.064,4.681,49.203,6.092,55.085,6.82  c22.575,2.795,19.441,5.434,28.917-11.32c8.092-14.308,6.166-35.445-4.5-41.25C475.022,354.303,461.417,367.136,449.63,355.443z"/>
<path fill-rule="evenodd" clip-rule="evenodd" fill="#E4BE9D" stroke="#000000" stroke-width="2" stroke-linecap="square" stroke-miterlimit="10" d="  M442.13,316.443c1.13,22.466-41.211,34.936-47.252,11.25C388.677,303.382,433.6,295.042,442.13,316.443z"/>
<path fill-rule="evenodd" clip-rule="evenodd" fill="#DCF2FD" stroke="#000000" stroke-width="2" stroke-linecap="square" stroke-miterlimit="10" d="  M297.378,321.693c-31,29.5-62,59-93,88.5c62.227,21.517,124.454,43.032,186.681,64.549c23.493,8.123,29.798,17.626,45.704-1.28  c22.789-27.09,45.578-54.179,68.367-81.269C435.879,368.693,366.628,345.193,297.378,321.693z"/>
<path fill-rule="evenodd" clip-rule="evenodd" fill="#E4BE9D" stroke="#000000" stroke-width="2" stroke-linecap="square" stroke-miterlimit="10" d="  M385.128,395.193c-4.947,22.097-50.762,21.312-46.125-1.875C343.44,371.132,381.827,374.55,385.128,395.193z"/>
<path fill-rule="evenodd" clip-rule="evenodd" fill="#E4BE9D" stroke="#000000" stroke-width="2" stroke-linecap="square" stroke-miterlimit="10" d="  M445.88,403.443c-4.712,19.369-46.502,24.827-46.502,1.875C399.378,380.039,439.074,382.74,445.88,403.443z"/>
<path fill-rule="evenodd" clip-rule="evenodd" fill="#90A7D6" stroke="#000000" stroke-width="2" stroke-linecap="square" stroke-miterlimit="10" d="  M227.628,417.693c29.796-34.577,55.392-48.218,99-38.25c-5.171,19.099-12.76,43.266-24.75,59.252  C295.44,447.278,239.394,421.615,227.628,417.693z"/>
<line fill="none" stroke="#000000" stroke-width="2" stroke-linecap="square" stroke-miterlimit="10" x1="326.628" y1="379.443" x2="326.628" y2="379.443"/>
<path fill-rule="evenodd" clip-rule="evenodd" fill="#FFDB78" stroke="#000000" stroke-width="2" stroke-linecap="square" stroke-miterlimit="10" d="  M403.128,413.943c-13.255,3.06-53.476,12.99-58.5,29.252c-6.533,21.144,61.034,35.548,81.002,43.5  c3.729-18.876,8.725-39.627,4.875-58.875C428.856,419.576,410.667,419.514,403.128,413.943z"/>
<path fill-rule="evenodd" clip-rule="evenodd" fill="#EC008C" stroke="#000000" stroke-width="2" stroke-linecap="square" stroke-miterlimit="10" d="  M340.878,401.943c-18.023,7.443-45.079,15.86-54,34.502c23.112,8.359,95.113,48.184,88.5-10.5  C372.599,401.281,354.777,422.813,340.878,401.943z"/>
<path fill-rule="evenodd" clip-rule="evenodd" fill="#E4BE9D" stroke="#000000" stroke-width="2" stroke-linecap="square" stroke-miterlimit="10" d="  M342.378,364.443c-5.861,21.325-50.823,21.617-46.125-1.875C300.663,340.518,338.455,343.49,342.378,364.443z"/>
<path fill-rule="evenodd" clip-rule="evenodd" fill="#DCF2FD" stroke="#000000" stroke-width="2" stroke-linecap="square" stroke-miterlimit="10" d="  M358.128,392.943c-31,29.251-62,58.501-93,87.752c62.227,21.727,124.454,43.453,186.682,65.18  c23.479,8.198,29.785,17.759,45.703-1.163c22.789-27.089,45.578-54.178,68.367-81.267  C496.629,439.944,427.379,416.443,358.128,392.943z"/>
<path fill-rule="evenodd" clip-rule="evenodd" fill="#E4BE9D" stroke="#000000" stroke-width="2" stroke-linecap="square" stroke-miterlimit="10" d="  M445.88,465.695c-3.519,20.487-41.628,24.369-46.127,1.875C395.109,444.351,440.645,444.069,445.88,465.695z"/>
<path fill-rule="evenodd" clip-rule="evenodd" fill="#E4BE9D" stroke="#000000" stroke-width="2" stroke-linecap="square" stroke-miterlimit="10" d="  M505.88,474.695c-5.189,23.177-51.168,20.919-45.75-3.75C464.853,449.443,502.832,455.633,505.88,474.695z"/>
<path fill-rule="evenodd" clip-rule="evenodd" fill="#90A7D6" stroke="#000000" stroke-width="2" stroke-linecap="square" stroke-miterlimit="10" d="  M288.378,488.945c30.799-34.775,54.517-48.418,99-38.25c-7.901,19.76-13.765,41.074-25.125,59.25  C357.204,518.023,299.486,492.648,288.378,488.945z"/>
<line fill="none" stroke="#000000" stroke-width="2" stroke-linecap="square" stroke-miterlimit="10" x1="387.378" y1="450.695" x2="387.378" y2="450.695"/>
<path fill-rule="evenodd" clip-rule="evenodd" fill="#FFDB78" stroke="#000000" stroke-width="2" stroke-linecap="square" stroke-miterlimit="10" d="  M463.88,485.195c-22.76,5.743-53.713,13.701-63.002,38.25c28.501,11.5,57.001,23,85.502,34.5c3.662-19.424,8.172-39.467,4.875-59.25  C489.916,490.661,471.552,490.528,463.88,485.195z"/>
<path fill-rule="evenodd" clip-rule="evenodd" fill="#EC008C" stroke="#000000" stroke-width="2" stroke-linecap="square" stroke-miterlimit="10" d="  M401.628,473.195c-10.437,3.409-45.327,14.196-49.5,26.25c-5.943,17.164,27.454,19.808,44.814,26.087  c22.785,8.241,24.949,6.287,35.062-15.962c4.417-9.719,6.002-18.296,1.875-28.125C422.28,486.901,409.11,483.788,401.628,473.195z"/>
<path fill-rule="evenodd" clip-rule="evenodd" fill="#E4BE9D" stroke="#000000" stroke-width="2" stroke-linecap="square" stroke-miterlimit="10" d="  M403.128,434.945c-4.361,20.585-41.71,23.948-46.125,1.875C352.347,413.539,397.615,412.928,403.128,434.945z"/>
</svg>