<svg xmlns="http://www.w3.org/2000/svg" xmlns:xlink="http://www.w3.org/1999/xlink" version="1.1" id="Layer_1" x="0px" y="0px" enable-background="new 0 0 822.05 841.89" xml:space="preserve" viewBox="339.67 337.81 140.33 168.33">
<path fill-rule="evenodd" clip-rule="evenodd" fill="#5A3D1B" stroke="#000000" stroke-linecap="square" stroke-miterlimit="10" d="  M344.5,450.89C357.873,452.636,344.5,363.83,344.5,450.89L344.5,450.89z"/>
<path fill-rule="evenodd" clip-rule="evenodd" fill="#5A3D1B" stroke="#000000" stroke-linecap="square" stroke-miterlimit="10" d="  M341.5,413.39c22.29-0.782,35.891,18.963,39.75,39c-1.87-36.454-3.901-55.358-39.75-70.5C341.5,392.39,341.5,402.89,341.5,413.39z"/>
<path fill-rule="evenodd" clip-rule="evenodd" fill="#432C14" stroke="#000000" stroke-linecap="square" stroke-miterlimit="10" d="  M464.5,396.89c-28.313,22.179-52.958,49.15-84,22.5c-12.679-10.886-12.853-24.545-31.875-33  c-20.635-9.171,1.425-17.681,13.875-16.125C396.818,374.555,431.221,387.896,464.5,396.89z"/>
<path fill-rule="evenodd" clip-rule="evenodd" fill="#5A3D1B" stroke="#000000" stroke-linecap="square" stroke-miterlimit="10" d="  M385.75,505.64c12.497-1.421,6-31.166,6-43.5c-2,0-4,0-6,0C385.75,476.64,385.75,491.14,385.75,505.64z"/>
<path fill-rule="evenodd" clip-rule="evenodd" fill="#5A3D1B" stroke="#000000" stroke-linecap="square" stroke-miterlimit="10" d="  M441.25,480.14C466.265,483.083,427.779,433.417,441.25,480.14L441.25,480.14z"/>
<path fill-rule="evenodd" clip-rule="evenodd" d="M454,429.14c4.25,1.5,8.5,3,12.75,4.5C457.217,437.336,454.891,429.97,454,429.14z  "/>
<path fill-rule="evenodd" clip-rule="evenodd" fill="#FFFFFF" stroke="#000000" stroke-linecap="square" stroke-miterlimit="10" d="  M466.75,418.64c4.25,1,8.5,2,12.75,3C473.025,423.826,465.996,418.329,466.75,418.64z"/>
<path fill-rule="evenodd" clip-rule="evenodd" d="M460.75,423.89c4,1.5,8,3,12,4.5C465.249,430.682,461.216,424.18,460.75,423.89z"/>
<path fill-rule="evenodd" clip-rule="evenodd" d="M448,435.14c4.25,1.5,8.5,3,12.75,4.5C451.253,442.465,448.328,435.425,448,435.14  z"/>
<path fill-rule="evenodd" clip-rule="evenodd" d="M440.5,441.14c4.25,1.5,8.5,3,12.75,4.5  C442.395,449.269,441.032,441.711,440.5,441.14z"/>
<path fill-rule="evenodd" clip-rule="evenodd" d="M433.75,447.89c4.25,1.5,8.5,3,12.75,4.5  C438.043,453.679,432.966,447.251,433.75,447.89z"/>
<path fill-rule="evenodd" clip-rule="evenodd" d="M423.25,456.89c4.494-0.012,9.622-3.487,16.5,0.75  C433.977,462.11,430.474,458.384,423.25,456.89z"/>
<path fill-rule="evenodd" clip-rule="evenodd" stroke="#000000" stroke-linecap="square" stroke-miterlimit="10" d="M349.75,386.39  c23.511,4.985,46.938,10.93,70.355,16.472c3.354,0.793,26.872,3.473,28.645,6.778c5.984,11.159-19.997,25.49-27,27  C379.036,445.848,379.642,403.323,349.75,386.39z"/>
<path fill-rule="evenodd" clip-rule="evenodd" fill="#5A3D1B" stroke="#000000" stroke-linecap="square" stroke-miterlimit="10" d="  M466.75,419.39c-30.77,27.351-83.625,72.95-87,3.75c44.778,10.139,49.295,1.765,86.25-26.25  C466.235,403.963,467.952,412.444,466.75,419.39z"/>
<path fill-rule="evenodd" clip-rule="evenodd" fill="#FFFFFF" d="M419.5,432.14l0.75,28.5L419.5,432.14z"/>
<line fill="none" stroke="#000000" stroke-linecap="square" stroke-miterlimit="10" x1="419.5" y1="432.14" x2="420.25" y2="460.64"/>
<path fill-rule="evenodd" clip-rule="evenodd" fill="#5A3D1B" stroke="#000000" stroke-linecap="square" stroke-miterlimit="10" d="  M476.5,424.64c-10.86,10.099-28.88,35.557-42.75,39.75c-11.457,3.464-39.708-9.783-51.75-12.75  c-4.787,17.956,44.934,31.976,53.293,24.034C447.533,464.045,488.256,432.688,476.5,424.64z"/>
<path fill-rule="evenodd" clip-rule="evenodd" fill="#FFFFFF" d="M433.75,463.64v13.5V463.64z"/>
<line fill="none" stroke="#000000" stroke-linecap="square" stroke-miterlimit="10" x1="433.75" y1="463.64" x2="433.75" y2="477.14"/>
<path fill-rule="evenodd" clip-rule="evenodd" fill="#5A3D1B" stroke="#000000" stroke-linecap="square" stroke-miterlimit="10" d="  M466,396.89c-3.676-26.13-24.288-57.388-53.998-58.5c-22.967-0.86-18.923,5.198-37.502,9c-9.778,2.001-52.33-2.171-18.375,13.5  C390.846,376.916,429.581,385.546,466,396.89z"/>
<path fill-rule="evenodd" clip-rule="evenodd" fill="#5A3D1B" stroke="#000000" stroke-linecap="square" stroke-miterlimit="10" d="  M466,397.64c-18.676-33.314-22.418-51.161-60.375-57c-21.739-3.345-14.147,12.593-37.5,9c-25.371-3.903-29.543,0.339-9.375,15  C386.487,384.803,433.676,388.516,466,397.64z"/>
<path fill-rule="evenodd" clip-rule="evenodd" fill="#5A3D1B" d="M438.25,348.14l0.75-3L438.25,348.14z"/>
<line fill="none" stroke="#000000" stroke-linecap="square" stroke-miterlimit="10" x1="438.25" y1="348.14" x2="439" y2="345.14"/>
<path fill-rule="evenodd" clip-rule="evenodd" fill="#5A3D1B" stroke="#000000" stroke-linecap="square" stroke-miterlimit="10" d="  M427,353.39c-11.309,3.807-20.261,58.083-24.75,75c2,0.5,4,1,6,1.5C414.5,404.39,420.75,378.89,427,353.39z"/>
</svg>