<svg xmlns="http://www.w3.org/2000/svg" xmlns:xlink="http://www.w3.org/1999/xlink" version="1.1" id="Layer_1" x="0px" y="0px" enable-background="new 0 0 822.05 841.89" xml:space="preserve" viewBox="322.63 364.24 181.12 112.9">
<path fill-rule="evenodd" clip-rule="evenodd" fill="#E6B98A" stroke="#000000" stroke-width="1.25" stroke-linecap="square" stroke-miterlimit="10" d="  M332.882,464.769c-1.267,2.443,2.198,5.756-1.5,4.5c-1.597-43.705-32.633-100.395,38.25-104.252  c60.98-3.318,91.481,47.082,133.5,78.002c-6.394,0.948-8.406,4.142-15.75,5.25c19.11,6.305-7.568,14.25-18,14.25  c-10.635,0-25.522-7.727-35.25-10.5c4.653,13.353,8.148,34.843-6.75,18.75c-0.182,0.429,0.665,5.417-1.5,4.5  c-0.055-13.697-10.66-45.341-27.75-32.25c-16.9-6.949-65.493-5.385-37.5,26.25c-7.764,1.448-5.74-0.851-10.5-4.5  c-0.052,0.032-0.103,3.71,0,3.75c-3.983-8.425-6.263-18.281-9-27C334.638,453.212,347.608,484.235,332.882,464.769z"/>
<path fill="none" stroke="#000000" stroke-width="1.25" stroke-linecap="square" stroke-miterlimit="10" d="M350.882,424.269  c-1.833,6.504-5.137,12.364-9.75,17.25"/>
<path fill="none" stroke="#000000" stroke-width="1.25" stroke-linecap="square" stroke-miterlimit="10" d="M425.882,429.519  c6.231,7.642,11.998,15.664,17.25,24"/>
<path fill="none" stroke="#000000" stroke-width="1.25" stroke-linecap="square" stroke-miterlimit="10" d="M427.382,438.519  c4.396,9.973,6.215,23.584,10.5,34.5"/>
<path fill="none" stroke="#000000" stroke-width="1.25" stroke-linecap="square" stroke-miterlimit="10" d="M471.632,452.769  c5.141,0.972,8.767,3.693,11.25,8.25"/>
<path fill="none" stroke="#000000" stroke-width="1.25" stroke-linecap="square" stroke-miterlimit="10" d="M458.882,437.769  c7.787,7.06,17.972,10.488,28.5,10.5"/>
<path fill="none" stroke="#000000" stroke-width="1.25" stroke-linecap="square" stroke-miterlimit="10" d="M475.382,423.519  c9.167,4.123,17.168,10.66,21.75,19.5"/>
<path fill="none" stroke="#000000" stroke-width="1.25" stroke-linecap="square" stroke-miterlimit="10" d="M487.382,458.019  c-0.528-4.794,1.954-8.162,6.75-9.75"/>
<path fill-rule="evenodd" clip-rule="evenodd" stroke="#000000" stroke-width="1.25" stroke-linecap="square" stroke-miterlimit="10" d="  M491.882,454.269C489.141,454.523,496.388,453.852,491.882,454.269L491.882,454.269z"/>
<path fill-rule="evenodd" clip-rule="evenodd" stroke="#000000" stroke-width="1.25" stroke-linecap="square" stroke-miterlimit="10" d="  M489.632,453.519C491.338,454.866,490.25,454.007,489.632,453.519L489.632,453.519z"/>
<line fill="none" stroke="#000000" stroke-width="1.25" stroke-linecap="square" stroke-miterlimit="10" x1="434.132" y1="452.019" x2="431.882" y2="452.019"/>
</svg>