<svg xmlns="http://www.w3.org/2000/svg" xmlns:xlink="http://www.w3.org/1999/xlink" version="1.1" id="Layer_1" x="0px" y="0px" enable-background="new 0 0 822.05 841.89" xml:space="preserve" viewBox="245.67 246.3 328.96 349.46">
<path fill-rule="evenodd" clip-rule="evenodd" fill="#F9CBDF" stroke="#000000" stroke-width="2" stroke-linecap="square" stroke-miterlimit="10" d="  M281.25,402.147c-5.233,15.261-9.75,32.521-9.75,48.75c0,23.446-23.207,23.848-24.75,43.5c-2.177,27.721,40.752,41.31,59.625,45.75  c10.165,2.392,23.454,1.116,32.625,3.75c7.13,2.048,6.944,14.526,17.25,14.25c7.094-0.19,9.348-14.127,20.028-15.583  c13.918-1.898,28.643-3.072,38.472-12.917c5.742,16.884,12.286,56.761,33,63.75c27.864,9.402,33.94-31.854,41.227-52.031  c3.442-9.532,8.568-46.643,24.023-43.969c8.226,1.423,5.865,31.86,22.5,30c21.287-2.38,31.68-62.666,34.5-77.25  c12.24-63.296-5.573-120.897-67.125-148.875c-58.339-26.518-149.283-1.723-175.125,61.875c-10.088-8.563-47.087-43.655-62.25-31.5  C254.139,340.754,273.586,391.738,281.25,402.147z"/>
<path fill="none" stroke="#000000" stroke-width="2" stroke-linecap="square" stroke-miterlimit="10" d="M265.5,331.647  c15.983,10.15,44.869,23.691,48,43.5c4.812-2.291,11.869-3.937,15.75-7.5"/>
<path fill="none" stroke="#000000" stroke-width="2" stroke-linecap="square" stroke-miterlimit="10" d="M259.5,474.897  c23.891,6.314,109.806,38.267,56.25,67.5"/>
<path fill="none" stroke="#000000" stroke-width="2" stroke-linecap="square" stroke-miterlimit="10" d="M364.5,400.647  c54.784-54.349,69.905-16.22,57,45C402.5,430.647,383.5,415.647,364.5,400.647z"/>
<path fill="none" stroke="#000000" stroke-width="2" stroke-linecap="square" stroke-miterlimit="10" d="M424.5,379.647  c15.095,23.198,17.894,47.708-2.25,69"/>
<path fill-rule="evenodd" clip-rule="evenodd" fill="#EC008C" stroke="#000000" stroke-width="2" stroke-linecap="square" stroke-miterlimit="10" d="  M393.75,324.897c22.242,13.099,49.287-25.21,75.75-25.5C445.021,291.51,407.423,301.966,393.75,324.897z"/>
<path fill-rule="evenodd" clip-rule="evenodd" fill="#5B3A17" stroke="#000000" stroke-width="2" stroke-linecap="square" stroke-miterlimit="10" d="  M293.25,453.147C278.299,456.209,278.667,449.8,293.25,453.147L293.25,453.147z"/>
<path fill-rule="evenodd" clip-rule="evenodd" fill="#5B3A17" stroke="#000000" stroke-width="2" stroke-linecap="square" stroke-miterlimit="10" d="  M347.25,462.147C325.976,491.137,326.401,432.801,347.25,462.147L347.25,462.147z"/>
<path fill-rule="evenodd" clip-rule="evenodd" fill="#EC008C" stroke="#000000" stroke-width="2" stroke-linecap="square" stroke-miterlimit="10" d="  M269.25,504.147C258.067,525.847,257.866,482.316,269.25,504.147L269.25,504.147z"/>
<path fill-rule="evenodd" clip-rule="evenodd" fill="#EC008C" stroke="#000000" stroke-width="2" stroke-linecap="square" stroke-miterlimit="10" d="  M300.75,513.147C289.982,547.684,289.982,478.61,300.75,513.147L300.75,513.147z"/>
<path fill-rule="evenodd" clip-rule="evenodd" fill="#BCBEC0" stroke="#000000" stroke-width="2" stroke-linecap="square" stroke-miterlimit="10" d="  M459.75,277.647c-3.001,39.482-62.581,40.562-63,0C396.324,236.449,456.43,237.939,459.75,277.647z"/>
<path fill="none" stroke="#000000" stroke-width="2" stroke-linecap="square" stroke-miterlimit="10" d="M339,543.897  c12.374,2.418,25.057,1.614,37.5-0.75"/>
</svg>