<svg xmlns="http://www.w3.org/2000/svg" xmlns:xlink="http://www.w3.org/1999/xlink" version="1.1" id="Layer_1" x="0px" y="0px" enable-background="new 0 0 822.05 841.89" xml:space="preserve" viewBox="302.12 334.38 216.89 171.62">
<path fill-rule="evenodd" clip-rule="evenodd" fill="#E6B98A" stroke="#000000" stroke-linecap="square" stroke-miterlimit="10" d="  M314.507,496.394c-4.855,7.832-0.529-6.087-3-13.5c-3.178-9.533-10.348-23.411-8.625-33.75c3.024-18.143,16.1-26.812,32.625-30.748  c46.605-11.104,86.002,32.758,115.502,60.748c-4.923,0.461-6.739,3.727-12.75,4.5c21.139,12.363-34.912,4.685-42.752,3  c6.38,12.142,6.82,23.897-5.25,15c-0.397,0.677,0.74,4.533-1.5,3.75c0.696-25.857-13.215-25.058-27-27.75  c-17.846-3.485-44.858,1.085-24.75,22.5c-6.299,0.86-4.735-0.497-9-3.75c0,1,0,2,0,3c-1.327-6.725-5.193-14.326-6.75-21  c-1.35,8.552-3.294,14.31,0.75,24C314.803,504.143,317.462,500.236,314.507,496.394z"/>
<path fill="none" stroke="#000000" stroke-linecap="square" stroke-miterlimit="10" d="M328.757,464.144  c-1.068,5.276-3.612,9.898-7.5,13.5"/>
<path fill="none" stroke="#000000" stroke-linecap="square" stroke-miterlimit="10" d="M388.757,468.644  c4.704,6.358,9.204,12.858,13.5,19.5"/>
<path fill="none" stroke="#000000" stroke-linecap="square" stroke-miterlimit="10" d="M391.007,476.144  c3.146,7.741,5.052,19.309,8.25,27.75"/>
<path fill="none" stroke="#000000" stroke-linecap="square" stroke-miterlimit="10" d="M425.509,487.394  c4.246,0.696,7.11,2.946,9,6.75"/>
<path fill="none" stroke="#000000" stroke-linecap="square" stroke-miterlimit="10" d="M415.759,475.394  c6.191,5.597,14.033,8.434,22.5,8.25"/>
<path fill="none" stroke="#000000" stroke-linecap="square" stroke-miterlimit="10" d="M429.259,464.144  c7.369,3.454,13.33,8.857,17.25,15.75"/>
<path fill="none" stroke="#000000" stroke-linecap="square" stroke-miterlimit="10" d="M438.259,491.144  c-0.312-3.619,1.601-6.083,5.25-7.5"/>
<path fill-rule="evenodd" clip-rule="evenodd" stroke="#000000" stroke-linecap="square" stroke-miterlimit="10" d="  M442.009,488.894C440.983,492.131,443.455,484.33,442.009,488.894L442.009,488.894z"/>
<path fill-rule="evenodd" clip-rule="evenodd" stroke="#000000" stroke-linecap="square" stroke-miterlimit="10" d="  M440.509,487.394C439.889,487.299,442.08,487.633,440.509,487.394L440.509,487.394z"/>
<line fill="none" stroke="#000000" stroke-linecap="square" stroke-miterlimit="10" x1="395.507" y1="486.644" x2="394.007" y2="486.644"/>
<path fill-rule="evenodd" clip-rule="evenodd" fill="#E6B98A" stroke="#000000" stroke-linecap="square" stroke-miterlimit="10" d="  M382.007,414.646c-4.855,7.832-0.529-6.087-3-13.5c-3.178-9.534-10.348-23.412-8.625-33.75c3.023-18.142,16.101-26.812,32.625-30.75  c46.605-11.105,86.003,32.76,115.502,60.75c-4.923,0.461-6.739,3.726-12.75,4.5c21.139,12.363-34.91,4.684-42.75,3  c6.38,12.141,6.82,23.895-5.25,15c-0.397,0.676,0.74,4.531-1.5,3.748c0.694-25.857-13.216-25.056-27-27.748  c-17.846-3.486-44.86,1.084-24.752,22.5c-6.299,0.861-4.735-0.497-9-3.75c0,1,0,2,0,3c-1.327-6.725-5.193-14.326-6.75-21  c-1.35,8.552-3.294,14.31,0.75,24C382.303,422.395,384.962,418.487,382.007,414.646z"/>
<path fill="none" stroke="#000000" stroke-linecap="square" stroke-miterlimit="10" d="M396.257,382.396  c-1.068,5.276-3.612,9.898-7.5,13.5"/>
<path fill="none" stroke="#000000" stroke-linecap="square" stroke-miterlimit="10" d="M456.259,386.896  c4.704,6.358,9.204,12.858,13.5,19.5"/>
<path fill="none" stroke="#000000" stroke-linecap="square" stroke-miterlimit="10" d="M458.509,394.396  c3.146,7.741,5.053,19.309,8.25,27.75"/>
<path fill="none" stroke="#000000" stroke-linecap="square" stroke-miterlimit="10" d="M493.009,405.646  c4.246,0.696,7.11,2.946,9,6.75"/>
<path fill="none" stroke="#000000" stroke-linecap="square" stroke-miterlimit="10" d="M483.259,393.646  c6.191,5.597,14.033,8.434,22.5,8.25"/>
<path fill="none" stroke="#000000" stroke-linecap="square" stroke-miterlimit="10" d="M496.759,382.396  c7.369,3.455,13.33,8.857,17.25,15.75"/>
<path fill="none" stroke="#000000" stroke-linecap="square" stroke-miterlimit="10" d="M505.759,409.396  c-0.312-3.619,1.601-6.083,5.25-7.5"/>
<path fill-rule="evenodd" clip-rule="evenodd" stroke="#000000" stroke-linecap="square" stroke-miterlimit="10" d="  M509.509,407.146C508.483,410.383,510.955,402.582,509.509,407.146L509.509,407.146z"/>
<path fill-rule="evenodd" clip-rule="evenodd" stroke="#000000" stroke-linecap="square" stroke-miterlimit="10" d="  M508.009,405.646C507.389,405.552,509.58,405.885,508.009,405.646L508.009,405.646z"/>
<line fill="none" stroke="#000000" stroke-linecap="square" stroke-miterlimit="10" x1="463.009" y1="404.896" x2="461.509" y2="404.896"/>
</svg>