<svg xmlns="http://www.w3.org/2000/svg" xmlns:xlink="http://www.w3.org/1999/xlink" version="1.1" id="Layer_1" x="0px" y="0px" enable-background="new 0 0 822.05 841.89" xml:space="preserve" viewBox="201.59 297.3 418.25 247.42">
<path fill-rule="evenodd" clip-rule="evenodd" fill="#BCBEC0" stroke="#010101" stroke-width="2" stroke-linecap="square" stroke-miterlimit="10" d="  M280.592,518.798c-0.197,3.474,0,7.019,0,10.5c-9.598-13.076-5.034-37.912-10.172-54.867c-7.734-25.522-22.841-52.182-18.328-79.383  c9.646-58.146,70.168-75.196,120.75-72.75c54.081,2.615,117.131,27.495,152.25,69c16.948,20.029,35.026,30.208,54.75,45  c15.295,11.472,21.372,28.752,39,39c-12.643,0.527-17.416,7.933-31.5,10.5c20.837-4.02,15.456,9.006,7.5,18  c-8.528,9.641-35.799,12.201-48,10.5c-20.707-2.888-45.188-23.977-65.25-21c2.477,12.29,10.643,33.265,7.5,40.5  c-3.492,8.039-17.358,18.917-21-3c-0.528,2.415-2.914,8.568-3,9c-3.034-18.809-24.199-100.417-55.5-64.5  c-11.82-11.395-39.585,1.87-58.969-2.438c-42.579-9.462-37.702,28.166-15.281,54.938c-11.233,1.035-15.681,2.531-21-9  c-0.285,1.827-0.526,5.681,0,7.5c-11.819-15.998-6.947-38.123-18-54c-8.098,12.021-8.022,26.413-4.5,40.5  C298.62,539.913,282.893,539.615,280.592,518.798z"/>
<path fill-rule="evenodd" clip-rule="evenodd" fill="#BCBEC0" d="M315.842,438.548c-3.49,12.689-9.889,24.761-19.5,33.75  C302.842,461.048,309.342,449.798,315.842,438.548z"/>
<path fill="none" stroke="#010101" stroke-width="2" stroke-linecap="square" stroke-miterlimit="10" d="M315.842,438.548  c-3.49,12.689-9.889,24.761-19.5,33.75"/>
<path fill-rule="evenodd" clip-rule="evenodd" fill="#BCBEC0" d="M465.092,449.048c12.397,15.041,24.525,30.472,34.5,47.25  C488.092,480.548,476.592,464.798,465.092,449.048z"/>
<path fill="none" stroke="#010101" stroke-width="2" stroke-linecap="square" stroke-miterlimit="10" d="M465.092,449.048  c12.397,15.041,24.525,30.472,34.5,47.25"/>
<path fill-rule="evenodd" clip-rule="evenodd" fill="#BCBEC0" d="M468.092,466.298c10.805,19.524,9.488,48.177,21,69  C482.092,512.298,475.092,489.298,468.092,466.298z"/>
<path fill="none" stroke="#010101" stroke-width="2" stroke-linecap="square" stroke-miterlimit="10" d="M468.092,466.298  c10.805,19.524,9.488,48.177,21,69"/>
<path fill-rule="evenodd" clip-rule="evenodd" fill="#BCBEC0" d="M555.842,494.798c10.161,1.597,17.545,7.749,22.5,16.5  C570.842,505.798,563.342,500.298,555.842,494.798z"/>
<path fill="none" stroke="#010101" stroke-width="2" stroke-linecap="square" stroke-miterlimit="10" d="M555.842,494.798  c10.161,1.597,17.545,7.749,22.5,16.5"/>
<path fill-rule="evenodd" clip-rule="evenodd" fill="#BCBEC0" d="M530.342,464.798c15.476,14.603,36.056,20.327,57,21  C568.342,478.798,549.342,471.798,530.342,464.798z"/>
<path fill="none" stroke="#010101" stroke-width="2" stroke-linecap="square" stroke-miterlimit="10" d="M530.342,464.798  c15.476,14.603,36.056,20.327,57,21"/>
<path fill-rule="evenodd" clip-rule="evenodd" fill="#BCBEC0" d="M563.342,437.048c16.062,11.366,35.553,18.862,43.5,38.25  C592.342,462.548,577.842,449.798,563.342,437.048z"/>
<path fill="none" stroke="#010101" stroke-width="2" stroke-linecap="square" stroke-miterlimit="10" d="M563.342,437.048  c16.062,11.366,35.553,18.862,43.5,38.25"/>
<path fill-rule="evenodd" clip-rule="evenodd" fill="#BCBEC0" d="M587.342,505.298c1.493-9.599,2.343-15.627,13.5-19.5  C596.382,492.241,592.294,499.232,587.342,505.298z"/>
<path fill="none" stroke="#010101" stroke-width="2" stroke-linecap="square" stroke-miterlimit="10" d="M587.342,505.298  c-0.833-9.51,4.073-16.228,13.5-19.5"/>
<path fill-rule="evenodd" clip-rule="evenodd" fill="#BCBEC0" stroke="#010101" stroke-width="2" stroke-linecap="square" stroke-miterlimit="10" d="  M596.342,497.798C590.859,498.305,605.354,496.964,596.342,497.798L596.342,497.798z"/>
<path fill-rule="evenodd" clip-rule="evenodd" fill="#BCBEC0" stroke="#010101" stroke-width="2" stroke-linecap="square" stroke-miterlimit="10" d="  M591.842,496.298C595.254,498.992,593.078,497.275,591.842,496.298L591.842,496.298z"/>
<path fill-rule="evenodd" clip-rule="evenodd" fill="#BCBEC0" d="M481.592,493.298h-4.5H481.592z"/>
<line fill="none" stroke="#010101" stroke-width="2" stroke-linecap="square" stroke-miterlimit="10" x1="481.592" y1="493.298" x2="477.092" y2="493.298"/>
<path fill="none" stroke="#F7931E" stroke-width="2" stroke-linecap="square" stroke-miterlimit="10" d="M258.842,378.548  c-13.339,31.886-50.084,26.523-27.75-0.75c4.06-4.958,7.91,13.146,0.75,19.5c-8.754,7.77-19.844,7.494-29.25,0.75"/>
<path fill-rule="evenodd" clip-rule="evenodd" fill="#ED1C24" stroke="#010101" stroke-width="2" stroke-linecap="square" stroke-miterlimit="10" d="  M291.092,298.298c9.75,4.75,19.5,9.5,29.25,14.25c-10.25,14.25-20.5,28.5-30.75,42.75c5.633,2.076,10.026,8,15.75,9.75  c-12.75,5-25.5,10-38.25,15c-3-13.75-6-27.5-9-41.25c4.852,3.939,12.827,3.94,18,7.5  C281.092,330.298,286.092,314.298,291.092,298.298z"/>
</svg>