<svg xmlns="http://www.w3.org/2000/svg" xmlns:xlink="http://www.w3.org/1999/xlink" version="1.1" id="Layer_1" x="0px" y="0px" enable-background="new 0 0 822.05 841.89" xml:space="preserve" viewBox="203.66 253.67 417.84 336.72">
<path fill-rule="evenodd" clip-rule="evenodd" fill="#F9CBDF" stroke="#000000" stroke-width="2" stroke-linecap="square" stroke-miterlimit="10" d="  M384.25,256.39c2.153,38.966,4.162,84.747-8.25,122.25c-11.963,36.147-9.435,24.348,23.25,18c68.48-13.299,140.083,7.475,207.75,9  c-10.451-28.076-18.152-54.25-18.75-86.25c-0.334-17.869,20.732-68.245-2.625-61.875c-43.417,11.841-90.411,11.373-135.656,8.859  C434.971,265.542,391.356,249.498,384.25,256.39z"/>
<path fill-rule="evenodd" clip-rule="evenodd" fill="#F9CBDF" stroke="#000000" stroke-width="2" stroke-linecap="square" stroke-miterlimit="10" d="  M220,346.39c2.108,38.155,4.212,84.758-8.25,121.5c-12.301,36.268-10.824,24.62,22.5,18.75c68.696-12.102,139.826,6.781,207.75,9  c-10.459-28.159-18.246-54.851-18.75-87c-0.267-16.995,20.586-69.112-2.25-61.5c-42.473,14.158-91.336,10.359-136.031,9.117  C270.178,355.847,225.544,339.262,220,346.39z"/>
<path fill-rule="evenodd" clip-rule="evenodd" fill="#F9CBDF" stroke="#000000" stroke-width="2" stroke-linecap="square" stroke-miterlimit="10" d="  M397.75,440.14c2.121,38.371,3.997,84.507-8.25,121.5c-12.151,36.704-10.946,25.061,22.502,18.75  c68.875-12.994,140.473,7.4,208.498,9c-12.221-27.794-19.434-55.522-19.5-87c-0.039-18.483,21.352-67.025-2.25-61.125  c-43.813,10.953-89.755,11.389-135.281,8.859C448.894,449.315,403.617,433.56,397.75,440.14z"/>
</svg>