<svg xmlns="http://www.w3.org/2000/svg" xmlns:xlink="http://www.w3.org/1999/xlink" version="1.1" id="Layer_1" x="0px" y="0px" enable-background="new 0 0 822.05 841.89" xml:space="preserve" viewBox="228.86 289.79 361.25 263">
<path fill-rule="evenodd" clip-rule="evenodd" fill="#DCDDDE" stroke="#000000" stroke-width="2" stroke-linecap="square" stroke-miterlimit="10" d="  M229.861,290.785c54.026,41.827,111.294,92.563,173.252,122.25c20.143-26.934-57.342-55.707-76.777-67.506  C294.858,326.417,262.953,307.022,229.861,290.785z"/>
<path fill-rule="evenodd" clip-rule="evenodd" fill="#EF4269" stroke="#000000" stroke-width="2" stroke-linecap="square" stroke-miterlimit="10" d="  M433.115,329.785c-27.751,46.75-55.502,93.5-83.254,140.25c29.987,8.485,46.49-14.307,71.254-13.5  c19.318,0.63,54.083,30.708,70.955,40.288c23.959,13.604,20.167,27.443,24.295,54.962c35.318-24.723,59.454-59.7,72.75-100.5  c-11.647,1.276-46.883,11.575-56.051,5.078c-23.676-16.78-47.352-33.56-71.026-50.339  C446.662,395.126,448.703,349.015,433.115,329.785z"/>
</svg>