<svg xmlns="http://www.w3.org/2000/svg" xmlns:xlink="http://www.w3.org/1999/xlink" version="1.1" id="Layer_1" x="0px" y="0px" enable-background="new 0 0 822.05 841.89" xml:space="preserve" viewBox="198.58 249.58 422.83 344.78">
<path fill-rule="evenodd" clip-rule="evenodd" fill="#8A5C31" stroke="#000000" stroke-width="2" stroke-linecap="square" stroke-miterlimit="10" d="  M434,433.64c12.654,12.245,59.635,48.479,82.5,21c13.725,21.348,40.434,1.255,56.25-4.5c10.67-3.883,59.132-16.403,34.5-39.75  c26.394-8.718,7.656-29.426-9-31.5c10.794-12.896,28.114-52.663-6-33.75c-2.189-14.411,6-23.297,6-37.125  c0-14.522-18.15-5.305-27.75-7.125c24.873-20.228-0.604-27.024-18.375-31.125c-12.68-2.926-10.7-32.132-33.75-12.375  c-11.246,9.639-68.582,2.526-62.625,37.5c-22.232,0.415-31.93,57.242-14.25,66.75c-8.525-1.189-24.488,1.761-13.5,12.75  c8.993,8.993-8.561,18.865,10.5,25.5c-16.035,12.35-5.564,24.407,12,21.75C445.14,425.539,439.894,430.652,434,433.64z"/>
<path fill-rule="evenodd" clip-rule="evenodd" fill="#5B3A17" stroke="#000000" stroke-width="2" stroke-linecap="square" stroke-miterlimit="10" d="  M493.25,360.89c12-0.25,24-0.5,36-0.75C522.214,381.179,502.146,379.589,493.25,360.89z"/>
<path fill-rule="evenodd" clip-rule="evenodd" fill="#5B3A17" stroke="#000000" stroke-width="2" stroke-linecap="square" stroke-miterlimit="10" d="  M482,333.89c10.25-0.75,20.5-1.5,30.75-2.25C506.881,350.496,486.857,356.674,482,333.89z"/>
<path fill-rule="evenodd" clip-rule="evenodd" fill="#5B3A17" stroke="#000000" stroke-width="2" stroke-linecap="square" stroke-miterlimit="10" d="  M521.75,384.89c13.5-4,27-8,40.5-12C560.853,398.116,537.38,401.056,521.75,384.89z"/>
<path fill-rule="evenodd" clip-rule="evenodd" fill="#5B3A17" stroke="#000000" stroke-width="2" stroke-linecap="square" stroke-miterlimit="10" d="  M482.75,396.14c14.25,1.25,28.5,2.5,42.75,3.75C513.118,421.423,488.341,423.968,482.75,396.14z"/>
<path fill-rule="evenodd" clip-rule="evenodd" fill="#5B3A17" d="M470,349.64L470,349.64L470,349.64z"/>
<line fill="none" stroke="#000000" stroke-width="2" stroke-linecap="square" stroke-miterlimit="10" x1="470" y1="349.64" x2="470" y2="349.64"/>
<path fill-rule="evenodd" clip-rule="evenodd" fill="#5B3A17" stroke="#000000" stroke-width="2" stroke-linecap="square" stroke-miterlimit="10" d="  M529.25,416.39c11.25-2,22.5-4,33.75-6C556.981,427.179,539.871,431.762,529.25,416.39z"/>
<path fill-rule="evenodd" clip-rule="evenodd" fill="#5B3A17" stroke="#000000" stroke-width="2" stroke-linecap="square" stroke-miterlimit="10" d="  M486.5,430.64c11.75,0.75,23.5,1.5,35.25,2.25C512.042,448.895,493.138,448.967,486.5,430.64z"/>
<path fill-rule="evenodd" clip-rule="evenodd" fill="#5B3A17" stroke="#000000" stroke-width="2" stroke-linecap="square" stroke-miterlimit="10" d="  M449.75,369.89c12,2.5,24,5,36,7.5C472.74,392.84,451.352,393.685,449.75,369.89z"/>
<path fill-rule="evenodd" clip-rule="evenodd" fill="#5B3A17" stroke="#000000" stroke-width="2" stroke-linecap="square" stroke-miterlimit="10" d="  M540.5,354.14c10.75-7,21.5-14,32.25-21C580.113,355.624,557.701,362.489,540.5,354.14z"/>
<path fill-rule="evenodd" clip-rule="evenodd" fill="#5B3A17" stroke="#000000" stroke-width="2" stroke-linecap="square" stroke-miterlimit="10" d="  M566.75,396.89c7.374-4.546,16.147-7.569,24-11.25C593.107,403.417,579.05,409.028,566.75,396.89z"/>
<path fill-rule="evenodd" clip-rule="evenodd" fill="#5B3A17" stroke="#000000" stroke-width="2" stroke-linecap="square" stroke-miterlimit="10" d="  M566.75,428.39c8.25-5.5,16.5-11,24.75-16.5C596.249,429.402,581.274,437.375,566.75,428.39z"/>
<path fill-rule="evenodd" clip-rule="evenodd" fill="#5B3A17" stroke="#000000" stroke-width="2" stroke-linecap="square" stroke-miterlimit="10" d="  M572.75,366.89c8.25-5.25,16.5-10.5,24.75-15.75C602.088,368.716,586.978,375.552,572.75,366.89z"/>
<path fill-rule="evenodd" clip-rule="evenodd" fill="#5B3A17" stroke="#000000" stroke-width="2" stroke-linecap="square" stroke-miterlimit="10" d="  M450.5,337.64c6.21,1.721,12.298,6.662,18,9.75C456.781,357.882,447.958,352.546,450.5,337.64z"/>
<path fill-rule="evenodd" clip-rule="evenodd" fill="#5B3A17" stroke="#000000" stroke-width="2" stroke-linecap="square" stroke-miterlimit="10" d="  M455.75,404.39c7.377,0.609,15.328,4.087,22.5,6C468.775,421.98,457.767,419.423,455.75,404.39z"/>
<path fill-rule="evenodd" clip-rule="evenodd" fill="#5B3A17" stroke="#000000" stroke-width="2" stroke-linecap="square" stroke-miterlimit="10" d="  M476,305.39c11.25-0.25,22.5-0.5,33.75-0.75C502.467,322.535,482.51,325.177,476,305.39z"/>
<path fill-rule="evenodd" clip-rule="evenodd" fill="#5B3A17" stroke="#000000" stroke-width="2" stroke-linecap="square" stroke-miterlimit="10" d="  M524.75,326.39c9.5-5.25,19-10.5,28.5-15.75C552.424,326.792,538.429,339.708,524.75,326.39z"/>
<path fill-rule="evenodd" clip-rule="evenodd" fill="#5B3A17" stroke="#000000" stroke-width="2" stroke-linecap="square" stroke-miterlimit="10" d="  M454.25,311.39c6.094,2.313,11.76,7.669,17.25,11.25C458.849,331.406,448.691,327.018,454.25,311.39z"/>
<path fill-rule="evenodd" clip-rule="evenodd" fill="#5B3A17" d="M461.75,282.14C457.633,281.316,457.633,281.316,461.75,282.14  L461.75,282.14z"/>
<path fill="none" stroke="#000000" stroke-width="2" stroke-linecap="square" stroke-miterlimit="10" d="M461.75,282.14  c-1.25-0.25-2.5-0.5-3.75-0.75"/>
<path fill-rule="evenodd" clip-rule="evenodd" fill="#5B3A17" stroke="#000000" stroke-width="2" stroke-linecap="square" stroke-miterlimit="10" d="  M486.5,279.89c5.606,14.641,34.341,14.775,34.5-3C521.181,256.688,489.955,261.917,486.5,279.89z"/>
<path fill-rule="evenodd" clip-rule="evenodd" fill="#5B3A17" d="M488,282.89c8.703-5.406,17.477-3.956,24.75,3.75  C504.588,285.403,496.02,284.826,488,282.89z"/>
<path fill="none" stroke="#000000" stroke-width="2" stroke-linecap="square" stroke-miterlimit="10" d="M488,282.89  c8.703-5.406,17.477-3.956,24.75,3.75"/>
<path fill-rule="evenodd" clip-rule="evenodd" fill="#5B3A17" d="M503.75,281.39c0.711-8.507-1.34-13.986,9-16.5  C509.763,270.367,507.083,276.12,503.75,281.39z"/>
<path fill="none" stroke="#000000" stroke-width="2" stroke-linecap="square" stroke-miterlimit="10" d="M503.75,281.39  c-2.298-8.397,0.771-14.5,9-16.5"/>
<path fill-rule="evenodd" clip-rule="evenodd" fill="#5B3A17" stroke="#000000" stroke-width="2" stroke-linecap="square" stroke-miterlimit="10" d="  M523.25,297.14c4.257-6.71,10.631-12.656,15.75-18.75C548.603,293.141,539.998,304.497,523.25,297.14z"/>
<path fill-rule="evenodd" clip-rule="evenodd" fill="#8A5C31" stroke="#000000" stroke-width="2" stroke-linecap="square" stroke-miterlimit="10" d="  M208.25,454.64c13.954,11.565,56.02,49.601,82.5,21.75c9.172,14.479,51.743,9.022,57-6.75c2.03-6.091,63.947-10.798,33-37.5  c27.309-8.605,8.083-29.134-8.25-31.5c10.454-13.215,27.737-52.384-6-33.75c-2.6-11.896,8.665-26.038,5.25-35.25  c-6.101-16.458-9.418-5.792-27-9c25.834-21.037-2.535-23.126-13.5-30.75c-17.757-12.345-13.07-15.099-36-15  c-16.067,0.069-70.479,12.772-65.25,39.75c-18.96,0.004-22.329,30.486-18,42c-14.313,5.871-7.791,18.47,3.75,24.75  c-16.385-2.24-22.365,7.491-8.25,18c-8.314,8.653-6.651,15.73,4.5,20.25c-15.099,12.358-5.204,23.957,12,21  C218.864,446.553,213.89,451.53,208.25,454.64z"/>
<path fill-rule="evenodd" clip-rule="evenodd" fill="#5B3A17" stroke="#000000" stroke-width="2" stroke-linecap="square" stroke-miterlimit="10" d="  M267.5,382.64c12-0.25,24-0.5,36-0.75C296.563,402.415,275.75,401.988,267.5,382.64z"/>
<path fill-rule="evenodd" clip-rule="evenodd" fill="#5B3A17" stroke="#000000" stroke-width="2" stroke-linecap="square" stroke-miterlimit="10" d="  M255.5,355.64c10.5-0.75,21-1.5,31.5-2.25C280.68,372.172,261.462,377.918,255.5,355.64z"/>
<path fill-rule="evenodd" clip-rule="evenodd" fill="#5B3A17" stroke="#000000" stroke-width="2" stroke-linecap="square" stroke-miterlimit="10" d="  M295.25,405.89c13.75-4,27.5-8,41.25-12C334.261,419.671,311.713,422.614,295.25,405.89z"/>
<path fill-rule="evenodd" clip-rule="evenodd" fill="#5B3A17" stroke="#000000" stroke-width="2" stroke-linecap="square" stroke-miterlimit="10" d="  M257,417.89c14.25,1.25,28.5,2.5,42.75,3.75C286.885,442.76,262.961,445.871,257,417.89z"/>
<path fill-rule="evenodd" clip-rule="evenodd" fill="#5B3A17" d="M244.25,371.39L244.25,371.39L244.25,371.39z"/>
<line fill="none" stroke="#000000" stroke-width="2" stroke-linecap="square" stroke-miterlimit="10" x1="244.25" y1="371.39" x2="244.25" y2="371.39"/>
<path fill-rule="evenodd" clip-rule="evenodd" fill="#5B3A17" stroke="#000000" stroke-width="2" stroke-linecap="square" stroke-miterlimit="10" d="  M303.5,438.14c11-2,22-4,33-6C331.352,449.406,314.265,452.702,303.5,438.14z"/>
<path fill-rule="evenodd" clip-rule="evenodd" fill="#5B3A17" stroke="#000000" stroke-width="2" stroke-linecap="square" stroke-miterlimit="10" d="  M260.75,452.39c11.5,0.75,23,1.5,34.5,2.25C285.559,470.624,267.622,470.309,260.75,452.39z"/>
<path fill-rule="evenodd" clip-rule="evenodd" fill="#5B3A17" stroke="#000000" stroke-width="2" stroke-linecap="square" stroke-miterlimit="10" d="  M224,391.64c11.75,2.5,23.5,5,35.25,7.5C247.108,415.123,224.841,414.807,224,391.64z"/>
<path fill-rule="evenodd" clip-rule="evenodd" fill="#5B3A17" stroke="#000000" stroke-width="2" stroke-linecap="square" stroke-miterlimit="10" d="  M314,375.89c11-7.25,22-14.5,33-21.75C354.028,377.348,332.099,384.47,314,375.89z"/>
<path fill-rule="evenodd" clip-rule="evenodd" fill="#5B3A17" stroke="#000000" stroke-width="2" stroke-linecap="square" stroke-miterlimit="10" d="  M341,418.64c7.04-4.588,15.676-7.585,23.25-11.25C367.166,424.771,353.495,431.064,341,418.64z"/>
<path fill-rule="evenodd" clip-rule="evenodd" fill="#5B3A17" stroke="#000000" stroke-width="2" stroke-linecap="square" stroke-miterlimit="10" d="  M341,450.14c8.25-5.5,16.5-11,24.75-16.5C369.713,450.83,355.537,458.682,341,450.14z"/>
<path fill-rule="evenodd" clip-rule="evenodd" fill="#5B3A17" stroke="#000000" stroke-width="2" stroke-linecap="square" stroke-miterlimit="10" d="  M347,388.64c8.25-5.25,16.5-10.5,24.75-15.75C375.82,390.042,361.125,397.462,347,388.64z"/>
<path fill-rule="evenodd" clip-rule="evenodd" fill="#5B3A17" stroke="#000000" stroke-width="2" stroke-linecap="square" stroke-miterlimit="10" d="  M224,359.39c6.199,1.667,12.317,6.672,18,9.75C230.464,378.739,221.739,374.8,224,359.39z"/>
<path fill-rule="evenodd" clip-rule="evenodd" fill="#5B3A17" stroke="#000000" stroke-width="2" stroke-linecap="square" stroke-miterlimit="10" d="  M230,426.14c7.376,0.609,15.328,4.088,22.5,6C242.957,443.48,231.948,441.101,230,426.14z"/>
<path fill-rule="evenodd" clip-rule="evenodd" fill="#5B3A17" stroke="#000000" stroke-width="2" stroke-linecap="square" stroke-miterlimit="10" d="  M250.25,327.14c11.25-0.25,22.5-0.5,33.75-0.75C276.565,343.533,255.782,347.856,250.25,327.14z"/>
<path fill-rule="evenodd" clip-rule="evenodd" fill="#5B3A17" stroke="#000000" stroke-width="2" stroke-linecap="square" stroke-miterlimit="10" d="  M298.25,347.39c9.75-5,19.5-10,29.25-15C326.16,348.992,311.876,361.767,298.25,347.39z"/>
<path fill-rule="evenodd" clip-rule="evenodd" fill="#5B3A17" stroke="#000000" stroke-width="2" stroke-linecap="square" stroke-miterlimit="10" d="  M228.5,333.14c5.856,2.296,11.27,7.684,16.5,11.25C232.336,353.404,222.89,348.488,228.5,333.14z"/>
<path fill-rule="evenodd" clip-rule="evenodd" fill="#5B3A17" d="M236,303.89C231.882,303.066,231.882,303.066,236,303.89  L236,303.89z"/>
<path fill="none" stroke="#000000" stroke-width="2" stroke-linecap="square" stroke-miterlimit="10" d="M236,303.89  c-1.25-0.25-2.5-0.5-3.75-0.75"/>
<path fill-rule="evenodd" clip-rule="evenodd" fill="#5B3A17" stroke="#000000" stroke-width="2" stroke-linecap="square" stroke-miterlimit="10" d="  M260.75,301.64c4.889,14.01,31.683,14.684,33.75-1.5C297.028,280.353,263.645,280.751,260.75,301.64z"/>
<path fill-rule="evenodd" clip-rule="evenodd" fill="#5B3A17" d="M262.25,304.64c8.628-5.544,17.451-4.02,24.75,3.75  C278.838,307.153,270.27,306.576,262.25,304.64z"/>
<path fill="none" stroke="#000000" stroke-width="2" stroke-linecap="square" stroke-miterlimit="10" d="M262.25,304.64  c8.628-5.544,17.451-4.02,24.75,3.75"/>
<path fill-rule="evenodd" clip-rule="evenodd" fill="#5B3A17" d="M277.25,302.39c2.588-8.031-1.866-13.291,9-15.75  C283.261,291.872,280.543,297.347,277.25,302.39z"/>
<path fill="none" stroke="#000000" stroke-width="2" stroke-linecap="square" stroke-miterlimit="10" d="M277.25,302.39  c-1.655-8.137,1.108-13.964,9-15.75"/>
<path fill-rule="evenodd" clip-rule="evenodd" fill="#5B3A17" stroke="#000000" stroke-width="2" stroke-linecap="square" stroke-miterlimit="10" d="  M296.75,318.89c4.256-6.71,10.631-12.656,15.75-18.75C323.69,315.271,313.333,326.114,296.75,318.89z"/>
<path fill-rule="evenodd" clip-rule="evenodd" fill="#8A5C31" stroke="#000000" stroke-width="2" stroke-linecap="square" stroke-miterlimit="10" d="  M332.75,561.89c10.639,12.746,58.723,48.564,81.75,21.75c14.61,20.121,40.416,1.43,56.25-4.5c10.892-4.079,59.832-16.835,34.5-39.75  c26.71-9.035,7.87-28.91-8.25-31.5c9.625-13.19,27.673-52.613-6-33.75c-7.977-32.872,21.738-44.312-21.75-44.25  c8.484-7.563,13.971-20.459,3.75-28.125c-4.902-3.677-27.75,0.134-27.75-6.75c0-4.474-2.435-13.252-7.5-14.625  c-11.212-3.04-55.647,6.196-63.375,16.5c-11.821,15.762-28.064,23.144-37.125,42.75c-5.538,11.981-15.951,41.113,3,51  c-9.801-1.475-23.638,0.64-14.25,12.375c7.625,9.531-7.416,19.155,10.5,25.875c-15.894,11.943-5.223,23.933,12,21  C343.382,553.79,338.403,558.859,332.75,561.89z"/>
<path fill-rule="evenodd" clip-rule="evenodd" fill="#5B3A17" stroke="#000000" stroke-width="2" stroke-linecap="square" stroke-miterlimit="10" d="  M392,489.89c11.75-0.25,23.5-0.5,35.25-0.75C421.177,510.111,400.053,508.745,392,489.89z"/>
<path fill-rule="evenodd" clip-rule="evenodd" fill="#5B3A17" stroke="#000000" stroke-width="2" stroke-linecap="square" stroke-miterlimit="10" d="  M380,462.14c10.25-0.5,20.5-1,30.75-1.5C404.784,479.667,384.833,484.564,380,462.14z"/>
<path fill-rule="evenodd" clip-rule="evenodd" fill="#5B3A17" stroke="#000000" stroke-width="2" stroke-linecap="square" stroke-miterlimit="10" d="  M419.75,513.14c13.5-4,27-8,40.5-12C459.964,527.527,435.446,528.816,419.75,513.14z"/>
<path fill-rule="evenodd" clip-rule="evenodd" fill="#5B3A17" stroke="#000000" stroke-width="2" stroke-linecap="square" stroke-miterlimit="10" d="  M381.5,525.14c14,1.25,28,2.5,42,3.75C411.417,549.189,385.796,554.056,381.5,525.14z"/>
<path fill-rule="evenodd" clip-rule="evenodd" fill="#5B3A17" d="M368.75,477.89L368.75,477.89L368.75,477.89z"/>
<line fill="none" stroke="#000000" stroke-width="2" stroke-linecap="square" stroke-miterlimit="10" x1="368.75" y1="477.89" x2="368.75" y2="477.89"/>
<path fill-rule="evenodd" clip-rule="evenodd" fill="#5B3A17" stroke="#000000" stroke-width="2" stroke-linecap="square" stroke-miterlimit="10" d="  M428,544.64c11-2,22-4,33-6C455.638,555.854,438.221,560.679,428,544.64z"/>
<path fill-rule="evenodd" clip-rule="evenodd" fill="#5B3A17" stroke="#000000" stroke-width="2" stroke-linecap="square" stroke-miterlimit="10" d="  M384.5,559.64c11.75,0.75,23.5,1.5,35.25,2.25C410.066,577.938,391.768,577.101,384.5,559.64z"/>
<path fill-rule="evenodd" clip-rule="evenodd" fill="#5B3A17" stroke="#000000" stroke-width="2" stroke-linecap="square" stroke-miterlimit="10" d="  M347.75,498.89c12,2.5,24,5,36,7.5C371.108,522.412,349.682,521.934,347.75,498.89z"/>
<path fill-rule="evenodd" clip-rule="evenodd" fill="#5B3A17" stroke="#000000" stroke-width="2" stroke-linecap="square" stroke-miterlimit="10" d="  M438.5,483.14c10.75-7.25,21.5-14.5,32.25-21.75C479.274,484.901,456.134,490.726,438.5,483.14z"/>
<path fill-rule="evenodd" clip-rule="evenodd" fill="#5B3A17" stroke="#000000" stroke-width="2" stroke-linecap="square" stroke-miterlimit="10" d="  M464.75,525.89c7.374-4.546,16.147-7.569,24-11.25C491.667,532.683,477.312,537.079,464.75,525.89z"/>
<path fill-rule="evenodd" clip-rule="evenodd" fill="#5B3A17" stroke="#000000" stroke-width="2" stroke-linecap="square" stroke-miterlimit="10" d="  M464.75,557.39c8.25-5.5,16.5-11,24.75-16.5C494.697,558.663,479.045,565.437,464.75,557.39z"/>
<path fill-rule="evenodd" clip-rule="evenodd" fill="#5B3A17" stroke="#000000" stroke-width="2" stroke-linecap="square" stroke-miterlimit="10" d="  M470.75,495.89c8.25-5.5,16.5-11,24.75-16.5C500.543,497.447,485.428,504.205,470.75,495.89z"/>
<path fill-rule="evenodd" clip-rule="evenodd" fill="#5B3A17" stroke="#000000" stroke-width="2" stroke-linecap="square" stroke-miterlimit="10" d="  M348.5,465.89c6.246,1.855,12.332,7.193,18,10.5C354.733,485.85,345.382,481.32,348.5,465.89z"/>
<path fill-rule="evenodd" clip-rule="evenodd" fill="#5B3A17" stroke="#000000" stroke-width="2" stroke-linecap="square" stroke-miterlimit="10" d="  M353.75,532.64c7.654,0.803,15.839,4.599,23.25,6.75C366.93,550.331,355.91,548.388,353.75,532.64z"/>
<path fill-rule="evenodd" clip-rule="evenodd" fill="#5B3A17" stroke="#000000" stroke-width="2" stroke-linecap="square" stroke-miterlimit="10" d="  M374,434.39c11.5-0.25,23-0.5,34.5-0.75C400.22,450.681,380.77,454.562,374,434.39z"/>
<path fill-rule="evenodd" clip-rule="evenodd" fill="#5B3A17" stroke="#000000" stroke-width="2" stroke-linecap="square" stroke-miterlimit="10" d="  M422.75,454.64c9.5-5,19-10,28.5-15C450.602,456.454,436.408,468.378,422.75,454.64z"/>
<path fill-rule="evenodd" clip-rule="evenodd" fill="#5B3A17" stroke="#000000" stroke-width="2" stroke-linecap="square" stroke-miterlimit="10" d="  M352.25,439.64c6.14,2.475,11.782,8.196,17.25,12C356.469,460.631,347.451,455.293,352.25,439.64z"/>
<path fill-rule="evenodd" clip-rule="evenodd" fill="#5B3A17" d="M359.75,411.14C355.75,410.14,355.75,410.14,359.75,411.14  L359.75,411.14z"/>
<path fill="none" stroke="#000000" stroke-width="2" stroke-linecap="square" stroke-miterlimit="10" d="M359.75,411.14  c-1-0.25-2-0.5-3-0.75"/>
<path fill-rule="evenodd" clip-rule="evenodd" fill="#5B3A17" stroke="#000000" stroke-width="2" stroke-linecap="square" stroke-miterlimit="10" d="  M384.5,408.89c6.34,14.13,35.137,13.582,34.5-3.75C418.265,385.104,387.536,390.514,384.5,408.89z"/>
<path fill-rule="evenodd" clip-rule="evenodd" fill="#5B3A17" d="M386,411.89c8.732-5.701,17.797-4.094,25.5,3.75  C403.077,414.401,394.293,413.794,386,411.89z"/>
<path fill="none" stroke="#000000" stroke-width="2" stroke-linecap="square" stroke-miterlimit="10" d="M386,411.89  c8.732-5.701,17.797-4.094,25.5,3.75"/>
<path fill-rule="evenodd" clip-rule="evenodd" fill="#5B3A17" d="M401.75,409.64c2.588-8.031-1.866-13.291,9-15.75  C407.761,399.122,405.043,404.597,401.75,409.64z"/>
<path fill="none" stroke="#000000" stroke-width="2" stroke-linecap="square" stroke-miterlimit="10" d="M401.75,409.64  c-1.655-8.137,1.108-13.964,9-15.75"/>
<path fill-rule="evenodd" clip-rule="evenodd" fill="#5B3A17" stroke="#000000" stroke-width="2" stroke-linecap="square" stroke-miterlimit="10" d="  M421.25,426.14c4.257-6.71,10.631-12.656,15.75-18.75C447.096,422.188,437.428,433.244,421.25,426.14z"/>
</svg>