<svg xmlns="http://www.w3.org/2000/svg" xmlns:xlink="http://www.w3.org/1999/xlink" version="1.1" id="Layer_1" x="0px" y="0px" enable-background="new 0 0 822.05 841.89" xml:space="preserve" viewBox="322.61 331.42 177.19 178.04">
<path fill-rule="evenodd" clip-rule="evenodd" fill="#F4C0D7" d="M352.5,414.89c37.04-26.237,37.285-22.771,18-63.75  c-6.938,11.436-72.942,93.064-37.5,107.25c14.843,5.94,34.567-18.322,43.303-25.773c16.653-14.204,33.306-28.408,49.959-42.612  c9.065-7.732-13.718-28.864-19.763-37.364c-8.098,12.19-108.351,129.271-66.75,145.5c17.643,6.883,42.397-27.324,50.951-35.549  c20.342-19.56,40.683-39.118,61.025-58.678c12.687-12.199-5.677-33.116-12.226-47.523c-10.593,14.98-115.199,129.03-78.375,151.125  c17.852,10.711,44.674-25.864,53.576-34.424c20.341-19.56,40.683-39.118,61.024-58.678c12.659-12.172-6.15-32.598-12.976-46.773  c-15.305,20.96-96.177,99.504-80.25,132c18.976,38.717,88.247-56.342,99.75-68.25c-10-9.25-20-18.5-30-27.75  c-10.59,19.702-46.886,63.342-38.25,89.25c10.243,30.729,41.266-6.016,50.91-15.66c9.054-9.054,35.972-45.438,12.465-54.84  c-9.653-3.861-15.012,1.898-22.875,6c-34.309,17.897-15.938,32.032,0.75,55.5c6.213-11.559,63.361-89.82,27.75-101.25  c-14.576-4.678-32.161,20.396-39.893,28.4c-15.099,15.631-30.196,31.263-45.295,46.894c-8.747,9.056,14.253,30.291,20.688,39.456  c10.135-13.991,110.117-119.18,73.125-141.375c-17.483-10.49-44.156,26.087-52.826,34.424  c-20.341,19.559-40.683,39.118-61.024,58.678c-12.736,12.246,5.579,32.417,12.226,46.773c10.511-14.758,113.771-126.121,80.25-150  c-17.031-12.133-39.559,18.018-48.528,26.643c-21.109,20.297-42.218,40.594-63.327,60.892  c-17.976,17.284-0.246,25.578,13.605,44.466c11.585-17.44,100.065-113.859,72.75-141c-12.383-12.304-25.674,1.119-36.033,9.955  c-19.478,16.614-38.957,33.227-58.435,49.841c-15.95,13.604,4.236,26.364,14.967,41.455c15.397-25.377,47.25-59.514,47.25-91.125  c0-16.931-16.154-19.035-27.417-11.292c-21.162,14.548-49.77,27.91-56.583,55.167C324.436,407.148,335.375,423.618,352.5,414.89z"/>
</svg>