<svg xmlns="http://www.w3.org/2000/svg" xmlns:xlink="http://www.w3.org/1999/xlink" version="1.1" id="Layer_1" x="0px" y="0px" enable-background="new 0 0 822.05 841.89" xml:space="preserve" viewBox="221.4 255.23 378.5 338">
<path fill-rule="evenodd" clip-rule="evenodd" fill="#DCDDDE" stroke="#000000" stroke-width="2" stroke-linecap="square" stroke-miterlimit="10" d="  M368.65,274.976c33.204,24.634,66.508,54.041,103.502,72.75C481.386,330.34,389.219,284.362,368.65,274.976z"/>
<path fill-rule="evenodd" clip-rule="evenodd" fill="#EC008C" stroke="#000000" stroke-width="2" stroke-linecap="square" stroke-miterlimit="10" d="  M490.152,298.226c-16.75,28-33.5,56-50.25,84c13.475,3.216,26.735,0.132,39-6c10.797-5.398,33.599,14.378,43.389,19.972  c16.881,9.646,14.605,14.938,17.361,34.778c20.679-13.713,36.632-36.284,43.5-60c-37.287,4.335-45.726-5.813-76.752-27.832  C500.147,338.707,497.188,307.779,490.152,298.226z"/>
<path fill-rule="evenodd" clip-rule="evenodd" fill="#DCDDDE" stroke="#000000" stroke-width="2" stroke-linecap="square" stroke-miterlimit="10" d="  M380.65,385.226c33.422,25.151,67.713,56.559,105.752,74.25C494.849,440.293,401.374,395.451,380.65,385.226z"/>
<path fill-rule="evenodd" clip-rule="evenodd" fill="#7BD3F7" stroke="#000000" stroke-width="2" stroke-linecap="square" stroke-miterlimit="10" d="  M504.402,409.226c-17,28.25-34,56.5-51,84.75c13.652,3.95,27.017,1.029,39.375-5.625c11.175-6.018,34.102,14.252,44.319,20.152  c17.184,9.923,14.817,15.462,17.556,35.723c21.072-14.671,37.435-36.689,44.25-61.5c-37.854,4.302-46.572-5.729-78.22-27.832  C514.232,450.389,511.688,419.022,504.402,409.226z"/>
<path fill-rule="evenodd" clip-rule="evenodd" fill="#DCDDDE" stroke="#000000" stroke-width="2" stroke-linecap="square" stroke-miterlimit="10" d="  M448.902,335.726c-20.796,40.281-46.233,85.576-57.002,129.75C412.274,472.102,442.628,359.152,448.902,335.726z"/>
<path fill-rule="evenodd" clip-rule="evenodd" fill="#B4D670" stroke="#000000" stroke-width="2" stroke-linecap="square" stroke-miterlimit="10" d="  M450.402,473.726c-34.501-12-69.001-24-103.502-36c-0.796,19.401,16.637,29.937,18.75,45c4.985,35.541-22.226,64.939-50.25,75  c20.113,19.562,47.513,30.615,75,34.5c-8.688-29.165-11.866-68.734,15-93C417.749,488.073,437.387,488.168,450.402,473.726z"/>
<path fill-rule="evenodd" clip-rule="evenodd" fill="#DCDDDE" stroke="#000000" stroke-width="2" stroke-linecap="square" stroke-miterlimit="10" d="  M389.65,256.226c-26.73,36.628-59.365,76.711-77.25,118.5C331.359,385.143,380.595,278.76,389.65,256.226z"/>
<path fill-rule="evenodd" clip-rule="evenodd" fill="#FFF200" stroke="#000000" stroke-width="2" stroke-linecap="square" stroke-miterlimit="10" d="  M368.65,392.726c-31.75-17.5-63.5-35-95.25-52.5c-4.633,19.105,10.972,32.368,10.5,48c-1.068,35.404-32.423,60.161-61.5,65.25  c17.973,23.033,41.5,37.61,69,46.5c-4.351-30.456-1.523-70.005,29.25-90C333.709,401.491,354.043,404.22,368.65,392.726z"/>
</svg>