<svg xmlns="http://www.w3.org/2000/svg" xmlns:xlink="http://www.w3.org/1999/xlink" version="1.1" id="Layer_1" x="0px" y="0px" enable-background="new 0 0 822.05 841.89" xml:space="preserve" viewBox="196.14 297.14 430.46 246.34">
<path fill-rule="evenodd" clip-rule="evenodd" fill="#DEF2FD" stroke="#000000" stroke-width="2" stroke-linecap="square" stroke-miterlimit="10" d="  M492.637,309.642c4.312,57.036,8.624,114.072,12.936,171.108c2.875,38.017,0.013,57.114,42.939,61.017  c17.116,1.556,34.116,0.659,50.625-4.5c26.022-8.132,19.09-18.945,19.803-45.315c1.648-61.02,3.298-122.04,4.947-183.06  C580.137,309.142,536.387,309.392,492.637,309.642z"/>
<path fill-rule="evenodd" clip-rule="evenodd" fill="#DEF2FD" stroke="#000000" stroke-width="2" stroke-linecap="square" stroke-miterlimit="10" d="  M623.137,309.642c-31.581,14.672-98.919,14.672-130.5,0C523.149,294.309,592.624,294.309,623.137,309.642z"/>
<path fill-rule="evenodd" clip-rule="evenodd" fill="#FFDB78" stroke="#000000" stroke-width="2" stroke-linecap="square" stroke-miterlimit="10" d="  M497.137,353.892c38.675,12.238,87.411,12.461,125.25-3c-1.138,45.5-2.275,91-3.412,136.5c-1.061,42.386-3.274,53.663-49.838,54  c-15.664,0.113-29.746-2.915-44.625-7.875c-19.855-6.618-15.835-12.295-17.25-32.812  C503.887,451.767,500.512,402.83,497.137,353.892z"/>
<path fill-rule="evenodd" clip-rule="evenodd" fill="#FFFCD9" stroke="#000000" stroke-width="2" stroke-linecap="square" stroke-miterlimit="10" d="  M492.637,308.892c25.272-7.934,53.208-9.764,79.5-8.25c15.231,0.877,29.389,3.447,44.25,6.75c9.153,2.034,12.108,35.806,6,43.5  c-10.582,13.328-51.659,12.656-67.125,11.625c-12.843-0.856-32.33,0.707-43.875-5.625  C490.902,345.659,495.29,334.984,492.637,308.892z"/>
<path fill="none" stroke="#000000" stroke-width="2" stroke-linecap="square" stroke-miterlimit="10" d="M492.637,308.892  c40.181,23.81,88.969,15.116,130.5,0"/>
<path fill-rule="evenodd" clip-rule="evenodd" fill="#DEF2FD" stroke="#000000" stroke-width="2" stroke-linecap="square" stroke-miterlimit="10" d="  M345.637,309.642c4.312,57.036,8.624,114.072,12.936,171.108c2.874,38.017,0.012,57.114,42.939,61.017  c17.116,1.556,34.116,0.659,50.625-4.5c26.022-8.132,19.09-18.945,19.803-45.315c1.648-61.02,3.298-122.04,4.947-183.06  C433.137,309.142,389.387,309.392,345.637,309.642z"/>
<path fill-rule="evenodd" clip-rule="evenodd" fill="#DEF2FD" stroke="#000000" stroke-width="2" stroke-linecap="square" stroke-miterlimit="10" d="  M476.137,309.642c-31.581,14.672-98.919,14.672-130.5,0C376.149,294.309,445.624,294.309,476.137,309.642z"/>
<path fill-rule="evenodd" clip-rule="evenodd" fill="#FFDB78" stroke="#000000" stroke-width="2" stroke-linecap="square" stroke-miterlimit="10" d="  M350.137,353.892c38.257,12.452,87.074,12.43,124.5-3c-0.948,45.5-1.896,91-2.844,136.5c-0.885,42.462-3.064,53.598-49.656,54  c-15.596,0.135-30.268-2.613-45-7.875c-19.444-6.944-15.465-12.367-16.875-32.812C356.887,451.767,353.512,402.83,350.137,353.892z"/>
<path fill-rule="evenodd" clip-rule="evenodd" fill="#FFFCD9" stroke="#000000" stroke-width="2" stroke-linecap="square" stroke-miterlimit="10" d="  M345.637,308.892c25.272-7.934,53.208-9.764,79.5-8.25c15.231,0.877,29.389,3.447,44.25,6.75c9.225,2.05,11.453,35.812,5.25,43.5  c-10.633,13.179-50.8,12.663-66.375,11.625c-12.842-0.856-32.33,0.707-43.875-5.625C343.903,345.659,348.29,334.984,345.637,308.892  z"/>
<path fill="none" stroke="#000000" stroke-width="2" stroke-linecap="square" stroke-miterlimit="10" d="M345.637,308.892  c40.18,23.81,88.969,15.116,130.5,0"/>
<path fill-rule="evenodd" clip-rule="evenodd" fill="#DEF2FD" stroke="#000000" stroke-width="2" stroke-linecap="square" stroke-miterlimit="10" d="  M197.137,309.642c4.312,57.036,8.624,114.072,12.936,171.108c2.903,38.399-0.416,56.719,42.564,61.017  c17.139,1.714,34.051,0.375,50.625-4.5c26.481-7.789,19.42-18.861,20.046-45.315c1.443-61.02,2.886-122.04,4.329-183.06  C284.137,309.142,240.637,309.392,197.137,309.642z"/>
<path fill-rule="evenodd" clip-rule="evenodd" fill="#DEF2FD" stroke="#000000" stroke-width="2" stroke-linecap="square" stroke-miterlimit="10" d="  M326.887,309.642c-31.658,15.276-96.277,13.108-129.75,0.75c0-0.5,0-1,0-1.5C229.436,295.746,296.408,293.738,326.887,309.642z"/>
<path fill-rule="evenodd" clip-rule="evenodd" fill="#FFDB78" stroke="#000000" stroke-width="2" stroke-linecap="square" stroke-miterlimit="10" d="  M201.637,353.892c38.338,12.414,86.962,12.338,124.5-3c-0.948,45.5-1.896,91-2.844,136.5c-0.885,42.497-3.044,53.428-49.656,54  c-36.338,0.446-59.364-4.276-61.875-40.688C208.387,451.767,205.012,402.83,201.637,353.892z"/>
<path fill-rule="evenodd" clip-rule="evenodd" fill="#FFFCD9" stroke="#000000" stroke-width="2" stroke-linecap="square" stroke-miterlimit="10" d="  M197.137,308.892c25.289-8.076,53.147-9.631,79.5-8.25c15.046,0.789,29.225,3.303,43.875,6.75c8.753,2.06,11.472,36.139,5.625,43.5  c-10.52,13.244-50.974,12.652-66.375,11.625c-12.842-0.856-32.33,0.707-43.875-5.625  C195.403,345.659,199.79,334.984,197.137,308.892z"/>
<path fill="none" stroke="#000000" stroke-width="2" stroke-linecap="square" stroke-miterlimit="10" d="M197.137,308.892  c39.155,24.491,89.128,14.785,129.75,0"/>
</svg>