<svg xmlns="http://www.w3.org/2000/svg" xmlns:xlink="http://www.w3.org/1999/xlink" version="1.1" id="Layer_1" x="0px" y="0px" enable-background="new 0 0 822.05 841.89" xml:space="preserve" viewBox="316.09 245.85 189.17 349.8">
<path fill-rule="evenodd" clip-rule="evenodd" fill="#DEF2FD" stroke="#000000" stroke-width="2" stroke-linecap="square" stroke-miterlimit="10" d="  M317.092,260.39c5.82,78.293,11.641,156.587,17.461,234.88c1.294,17.408-4.007,62.813,5.789,77.87  c9.57,14.709,47.256,19.73,62.25,21c26.898,2.278,54.597-3.154,79.861-12.25c25.444-9.16,14.946-49.722,15.53-74.458  c1.953-82.597,3.905-165.194,5.858-247.792C441.592,259.89,379.342,260.14,317.092,260.39z"/>
<path fill-rule="evenodd" clip-rule="evenodd" fill="#DEF2FD" stroke="#000000" stroke-width="2" stroke-linecap="square" stroke-miterlimit="10" d="  M503.092,260.39c-16.313,11.005-186,21.094-186,0S486.778,249.385,503.092,260.39z"/>
<path fill-rule="evenodd" clip-rule="evenodd" fill="#FFDB78" stroke="#000000" stroke-width="2" stroke-linecap="square" stroke-miterlimit="10" d="  M323.092,324.14c59.02,15.462,120.56,16.791,178.5-4.5c-1.34,65.664-2.68,131.328-4.021,196.992  c-0.205,10.067,5.309,57.505-4.924,61.813c-25.189,10.605-52.104,16.235-79.556,14.194c-21.169-1.574-44.833-6.846-64.125-15.75  c-15.847-7.314-10.473-30.431-11.611-46.854C332.601,461.404,327.846,392.772,323.092,324.14z"/>
<path fill-rule="evenodd" clip-rule="evenodd" fill="#FFFCD9" stroke="#000000" stroke-width="2" stroke-linecap="square" stroke-miterlimit="10" d="  M317.092,259.64c33.428-12.87,74.377-13.801,109.723-12.194c17.275,0.785,41.395,0.558,57.527,6.944  c28.885,11.435,18.09,31.66,17.302,63.192c-0.481,19.263-91.441,19.189-103.552,18.558c-20.373-1.063-40.287-4.5-60-9.611  C311.884,319.734,319.461,284.521,317.092,259.64z"/>
<path fill="none" stroke="#000000" stroke-width="2" stroke-linecap="square" stroke-miterlimit="10" d="M317.092,259.64  c56.15,34.712,127.862,20.999,186,0"/>
</svg>