<svg xmlns="http://www.w3.org/2000/svg" xmlns:xlink="http://www.w3.org/1999/xlink" version="1.1" id="Layer_1" x="0px" y="0px" enable-background="new 0 0 822.05 841.89" xml:space="preserve" viewBox="195.76 274.45 427.74 296.56">
<path fill-rule="evenodd" clip-rule="evenodd" fill="#E5BD87" stroke="#000000" stroke-width="2" stroke-linecap="square" stroke-miterlimit="10" d="  M222.5,344.455c99.648,28.161,204.005,50.961,307.875,53.625c26.948,0.691,67.289-8.376,85.875,18.375  c20.741,29.854-15.098,71.637-35.25,92.25c-61.941,63.358-187.034,75.264-267.75,46.5c-38.145-13.593-70.638-39.205-92.25-73.5  c-13.202-20.949-44.26-94.438-5.25-106.5C203.637,362.897,195.762,337.376,222.5,344.455z"/>
<path fill-rule="evenodd" clip-rule="evenodd" fill="#AF8977" stroke="#000000" stroke-width="2" stroke-linecap="square" stroke-miterlimit="10" d="  M232.25,391.705c40.387,62.33,180.735,49.864,243.389,41.223c21.284-2.937,175.101-57.404,130.486,22.902  C565.73,528.54,453.049,550.827,377,544.705c-47.047-3.787-93.264-19.66-126-55.125C230.716,467.605,210.053,418.897,232.25,391.705  z"/>
<path fill-rule="evenodd" clip-rule="evenodd" fill="#BCBEC0" stroke="#000000" stroke-width="2" stroke-linecap="square" stroke-miterlimit="10" d="  M257.75,457.705c-7.992,3.107-15.623,8.063-23.25,12c54.76,9.326,152.945,17.902,187.5,69c19.5-14.5,39-29,58.5-43.5  C411.695,473.197,330.854,447.607,257.75,457.705z"/>
<path fill-rule="evenodd" clip-rule="evenodd" fill="#BCBEC0" stroke="#000000" stroke-width="2" stroke-linecap="square" stroke-miterlimit="10" d="  M245,471.955c-24.17,17.585,47.033,13.68,15,33c15.877,18.618,20.811,4.768,38.25,9c15.657,3.8,22.275,13.771,39,20.25  c20.117,7.794,42.048,3.31,63,7.5c12.18,2.436,19.847,0.625,30.75-3.75c6.304-2.529-2.475-13.811,4.5-15  c10.154-1.732,17.687,12.545,25.5,13.5c10.153,1.241,20.622-4.23,30-8.25c18.923-8.109,29.701-18.78,48.889-16.861  c32.232,3.224,29.555-4.088,44.861-28.889c15.031-24.354,26.189-32.42-1.5-58.5c-6.961,9.398-13.457,18.924-21,27.75  c16.795-14.852,8.559-23.358-8.25-20.25c-18.43,3.408-31.256,30.839-49.5,35.25c-4.215,3.325-15.093,15.232-18.75,24.375  c-3.474,8.684-24.021,3.985-24.75,4.125c-35.536,6.798-47.416,19.749-83.108,10.269c-22.052-5.858-42.502-11.189-65.392-11.769  C341.654,479.49,250.03,475.286,245,471.955z"/>
<line fill="none" stroke="#000000" stroke-width="2" stroke-linecap="square" stroke-miterlimit="10" x1="215.75" y1="375.205" x2="232.25" y2="391.705"/>
<path fill-rule="evenodd" clip-rule="evenodd" fill="#BCBEC0" stroke="#000000" stroke-width="2" stroke-linecap="square" stroke-miterlimit="10" d="  M245,407.455c-15.244,12.416-10.92,41.192,9,46.5c10.505,2.799,19.991-0.6,25.5-10.5C292.078,420.852,262.508,416.545,245,407.455z"/>
<path fill-rule="evenodd" clip-rule="evenodd" fill="#BCBEC0" stroke="#000000" stroke-width="2" stroke-linecap="square" stroke-miterlimit="10" d="  M289.25,428.455c-10.032,22.827-17.126,25.399,13.125,37.5c17.041,6.816,31.171,12.841,51.375,16.5  c26.413,4.784,83.14-9.927,82.5-45.75C389.803,437.036,334.146,442.252,289.25,428.455z"/>
<path fill-rule="evenodd" clip-rule="evenodd" fill="#BCBEC0" stroke="#000000" stroke-width="2" stroke-linecap="square" stroke-miterlimit="10" d="  M456.5,471.955c-2.208,28.609-45.683,29.181-45.75,0C410.683,442.464,454.097,443.144,456.5,471.955z"/>
<path fill-rule="evenodd" clip-rule="evenodd" fill="#BCBEC0" stroke="#000000" stroke-width="2" stroke-linecap="square" stroke-miterlimit="10" d="  M432.5,437.455c10.7,10.867,51.932,40.184,17.25,53.25c36.602,31.149,42.159-44.903,66.75-15.75c3.543-17.382,18.13-24.64,34.5-24  c10.968,0.429,23.617-0.438,12.75,9.75c3.664,5.106,7.045,6.561,9,10.5c-0.5,0-1,0-1.5,0c3.021-11.844,6.727-24.27,15.75-32.25  c-14.513-0.632-30.098,3.443-44.25-0.75c5.431-5.101,6.113-11.97,9.75-16.5C515.651,430.08,470.398,444.221,432.5,437.455z"/>
<path fill-rule="evenodd" clip-rule="evenodd" fill="#B0947B" d="M264.5,374.455c12.479-0.713,25.316,1.708,36.75,6.75  C295.499,403.42,264.44,393.762,264.5,374.455z"/>
<path fill-rule="evenodd" clip-rule="evenodd" fill="#B0947B" d="M358.25,395.455c9.575,29.967,37.728,10.612,55.502,3.75  C395.342,396.824,371.933,379.767,358.25,395.455z"/>
<path fill-rule="evenodd" clip-rule="evenodd" fill="#B0947B" d="M428.75,397.705c-4.801,3.938-8.113,10.292-13.5,14.25  c11.896,2.246,23.556-1.513,33.75-8.25C442.422,401.755,435.534,398.58,428.75,397.705z"/>
<path fill-rule="evenodd" clip-rule="evenodd" fill="#ED1C24" stroke="#000000" stroke-width="2" stroke-linecap="square" stroke-miterlimit="10" d="  M317,278.455c17.25-1,34.5-2,51.75-3c-1.372,18.424-2.744,36.848-4.116,55.272c-1.667,22.381,9.126,16.938,30.366,20.478  c-15,14.75-30,29.5-45,44.25c-12.5-13.75-25-27.5-37.5-41.25c9.75-2.75,19.5-5.5,29.25-8.25  C333.5,323.455,325.25,300.955,317,278.455z"/>
</svg>