<svg xmlns="http://www.w3.org/2000/svg" xmlns:xlink="http://www.w3.org/1999/xlink" version="1.1" id="Layer_1" x="0px" y="0px" enable-background="new 0 0 822.05 841.89" xml:space="preserve" viewBox="204.25 250.6 412.25 341.44">
<path fill-rule="evenodd" clip-rule="evenodd" fill="#C69B3E" stroke="#000000" stroke-width="2" stroke-linecap="square" stroke-miterlimit="10" d="  M615.5,336.392c-4.779,112.062-175.292,112.979-175.5,0C439.791,222.958,611.21,223.711,615.5,336.392z"/>
<path fill-rule="evenodd" clip-rule="evenodd" fill="#FFDB78" stroke="#000000" stroke-width="2" stroke-linecap="square" stroke-miterlimit="10" d="  M605.75,336.392c-2.381,100.128-155.745,100.483-156,0C449.494,235.682,603.222,235.929,605.75,336.392z"/>
<line fill="none" stroke="#000000" stroke-width="2" stroke-linecap="square" stroke-miterlimit="10" x1="534.5" y1="258.392" x2="518.75" y2="413.642"/>
<line fill="none" stroke="#000000" stroke-width="2" stroke-linecap="square" stroke-miterlimit="10" x1="477.5" y1="276.392" x2="577.25" y2="396.392"/>
<line fill="none" stroke="#000000" stroke-width="2" stroke-linecap="square" stroke-miterlimit="10" x1="449.75" y1="328.142" x2="605.75" y2="342.392"/>
<line fill="none" stroke="#000000" stroke-width="2" stroke-linecap="square" stroke-miterlimit="10" x1="467" y1="385.142" x2="587" y2="286.892"/>
<path fill-rule="evenodd" clip-rule="evenodd" fill="#942923" stroke="#000000" stroke-width="2" stroke-linecap="square" stroke-miterlimit="10" d="  M509,345.392C491.923,364.267,492.037,326.22,509,345.392L509,345.392z"/>
<path fill-rule="evenodd" clip-rule="evenodd" fill="#942923" stroke="#000000" stroke-width="2" stroke-linecap="square" stroke-miterlimit="10" d="  M496.25,320.642C479.173,339.517,479.287,301.47,496.25,320.642L496.25,320.642z"/>
<path fill-rule="evenodd" clip-rule="evenodd" fill="#942923" stroke="#000000" stroke-width="2" stroke-linecap="square" stroke-miterlimit="10" d="  M479.75,349.142C465.484,365.791,461.202,334.79,479.75,349.142L479.75,349.142z"/>
<path fill-rule="evenodd" clip-rule="evenodd" fill="#942923" stroke="#000000" stroke-width="2" stroke-linecap="square" stroke-miterlimit="10" d="  M522.5,372.392C505.281,391.404,505.281,353.38,522.5,372.392L522.5,372.392z"/>
<path fill-rule="evenodd" clip-rule="evenodd" fill="#942923" stroke="#000000" stroke-width="2" stroke-linecap="square" stroke-miterlimit="10" d="  M551.75,360.392C535.489,378.986,535.382,342.105,551.75,360.392L551.75,360.392z"/>
<path fill-rule="evenodd" clip-rule="evenodd" fill="#942923" stroke="#000000" stroke-width="2" stroke-linecap="square" stroke-miterlimit="10" d="  M533,316.142C516.398,333.343,517.443,297.437,533,316.142L533,316.142z"/>
<path fill-rule="evenodd" clip-rule="evenodd" fill="#942923" stroke="#000000" stroke-width="2" stroke-linecap="square" stroke-miterlimit="10" d="  M560.75,313.142C543.531,332.154,543.531,294.13,560.75,313.142L560.75,313.142z"/>
<path fill-rule="evenodd" clip-rule="evenodd" fill="#942923" stroke="#000000" stroke-width="2" stroke-linecap="square" stroke-miterlimit="10" d="  M560.75,283.142C544.382,301.429,544.489,264.548,560.75,283.142L560.75,283.142z"/>
<path fill-rule="evenodd" clip-rule="evenodd" fill="#942923" stroke="#000000" stroke-width="2" stroke-linecap="square" stroke-miterlimit="10" d="  M530,282.392C512.682,300.861,512.893,263.511,530,282.392L530,282.392z"/>
<path fill-rule="evenodd" clip-rule="evenodd" fill="#942923" stroke="#000000" stroke-width="2" stroke-linecap="square" stroke-miterlimit="10" d="  M586.25,308.642C570.116,327.635,570.116,289.649,586.25,308.642L586.25,308.642z"/>
<path fill-rule="evenodd" clip-rule="evenodd" fill="#942923" stroke="#000000" stroke-width="2" stroke-linecap="square" stroke-miterlimit="10" d="  M493.25,290.642C476.2,309.912,476.2,271.372,493.25,290.642L493.25,290.642z"/>
<path fill-rule="evenodd" clip-rule="evenodd" fill="#942923" stroke="#000000" stroke-width="2" stroke-linecap="square" stroke-miterlimit="10" d="  M591.5,334.892C574.281,353.904,574.281,315.88,591.5,334.892L591.5,334.892z"/>
<path fill-rule="evenodd" clip-rule="evenodd" fill="#942923" stroke="#000000" stroke-width="2" stroke-linecap="square" stroke-miterlimit="10" d="  M494.75,379.142C477.618,398.059,477.505,360.521,494.75,379.142L494.75,379.142z"/>
<path fill-rule="evenodd" clip-rule="evenodd" fill="#942923" stroke="#000000" stroke-width="2" stroke-linecap="square" stroke-miterlimit="10" d="  M580.25,364.142C562.932,382.611,563.143,345.261,580.25,364.142L580.25,364.142z"/>
<path fill-rule="evenodd" clip-rule="evenodd" fill="#942923" stroke="#000000" stroke-width="2" stroke-linecap="square" stroke-miterlimit="10" d="  M548,387.392C531.579,405.986,531.579,368.798,548,387.392L548,387.392z"/>
<path fill-rule="evenodd" clip-rule="evenodd" fill="#C69B3E" stroke="#000000" stroke-width="2" stroke-linecap="square" stroke-miterlimit="10" d="  M391.25,371.642c-4.995,119.054-185.538,119.797-186,0C204.784,250.92,386.068,251.827,391.25,371.642z"/>
<path fill-rule="evenodd" clip-rule="evenodd" fill="#FFDB78" stroke="#000000" stroke-width="2" stroke-linecap="square" stroke-miterlimit="10" d="  M380.75,371.642c3.513,106.212-165.484,106.418-165.75,0C214.731,264.085,385.885,264.757,380.75,371.642z"/>
<line fill="none" stroke="#000000" stroke-width="2" stroke-linecap="square" stroke-miterlimit="10" x1="305" y1="289.142" x2="288.5" y2="453.394"/>
<line fill="none" stroke="#000000" stroke-width="2" stroke-linecap="square" stroke-miterlimit="10" x1="244.25" y1="307.142" x2="350.75" y2="435.394"/>
<line fill="none" stroke="#000000" stroke-width="2" stroke-linecap="square" stroke-miterlimit="10" x1="215" y1="362.642" x2="380.75" y2="377.642"/>
<line fill="none" stroke="#000000" stroke-width="2" stroke-linecap="square" stroke-miterlimit="10" x1="233" y1="423.394" x2="361.25" y2="319.142"/>
<path fill-rule="evenodd" clip-rule="evenodd" fill="#942923" stroke="#000000" stroke-width="2" stroke-linecap="square" stroke-miterlimit="10" d="  M278,380.642C263.403,402.871,258.017,359.917,278,380.642L278,380.642z"/>
<path fill-rule="evenodd" clip-rule="evenodd" fill="#942923" stroke="#000000" stroke-width="2" stroke-linecap="square" stroke-miterlimit="10" d="  M264.5,354.392C249.674,376.33,244.375,333.968,264.5,354.392L264.5,354.392z"/>
<path fill-rule="evenodd" clip-rule="evenodd" fill="#942923" stroke="#000000" stroke-width="2" stroke-linecap="square" stroke-miterlimit="10" d="  M247.25,385.142C232.653,407.371,227.267,364.417,247.25,385.142L247.25,385.142z"/>
<path fill-rule="evenodd" clip-rule="evenodd" fill="#942923" stroke="#000000" stroke-width="2" stroke-linecap="square" stroke-miterlimit="10" d="  M292.25,409.892C275.081,433.692,274.671,385.163,292.25,409.892L292.25,409.892z"/>
<path fill-rule="evenodd" clip-rule="evenodd" fill="#942923" stroke="#000000" stroke-width="2" stroke-linecap="square" stroke-miterlimit="10" d="  M323.75,397.142C303.767,417.867,309.153,374.914,323.75,397.142L323.75,397.142z"/>
<path fill-rule="evenodd" clip-rule="evenodd" fill="#942923" stroke="#000000" stroke-width="2" stroke-linecap="square" stroke-miterlimit="10" d="  M304.25,349.892C286.283,373.896,287.041,324.508,304.25,349.892L304.25,349.892z"/>
<path fill-rule="evenodd" clip-rule="evenodd" fill="#942923" stroke="#000000" stroke-width="2" stroke-linecap="square" stroke-miterlimit="10" d="  M332.75,346.892C312.767,367.617,318.153,324.664,332.75,346.892L332.75,346.892z"/>
<path fill-rule="evenodd" clip-rule="evenodd" fill="#942923" stroke="#000000" stroke-width="2" stroke-linecap="square" stroke-miterlimit="10" d="  M333.5,314.642C316.908,339.211,315.504,290.6,333.5,314.642L333.5,314.642z"/>
<path fill-rule="evenodd" clip-rule="evenodd" fill="#942923" stroke="#000000" stroke-width="2" stroke-linecap="square" stroke-miterlimit="10" d="  M300.5,313.892C282.504,337.935,283.908,289.323,300.5,313.892L300.5,313.892z"/>
<path fill-rule="evenodd" clip-rule="evenodd" fill="#942923" stroke="#000000" stroke-width="2" stroke-linecap="square" stroke-miterlimit="10" d="  M360.5,341.642C343.673,367.468,342.856,317.184,360.5,341.642L360.5,341.642z"/>
<path fill-rule="evenodd" clip-rule="evenodd" fill="#942923" stroke="#000000" stroke-width="2" stroke-linecap="square" stroke-miterlimit="10" d="  M261.5,322.892C244.331,346.692,243.921,298.164,261.5,322.892L261.5,322.892z"/>
<path fill-rule="evenodd" clip-rule="evenodd" fill="#942923" stroke="#000000" stroke-width="2" stroke-linecap="square" stroke-miterlimit="10" d="  M365.75,370.142C347.783,394.146,348.541,344.758,365.75,370.142L365.75,370.142z"/>
<path fill-rule="evenodd" clip-rule="evenodd" fill="#942923" stroke="#000000" stroke-width="2" stroke-linecap="square" stroke-miterlimit="10" d="  M263,416.642C245.792,442.031,245.032,392.637,263,416.642L263,416.642z"/>
<path fill-rule="evenodd" clip-rule="evenodd" fill="#942923" stroke="#000000" stroke-width="2" stroke-linecap="square" stroke-miterlimit="10" d="  M353.75,400.892C336.106,425.35,336.923,375.066,353.75,400.892L353.75,400.892z"/>
<path fill-rule="evenodd" clip-rule="evenodd" fill="#942923" stroke="#000000" stroke-width="2" stroke-linecap="square" stroke-miterlimit="10" d="  M320,425.644C302.003,449.688,303.41,401.07,320,425.644L320,425.644z"/>
<path fill-rule="evenodd" clip-rule="evenodd" fill="#C69B3E" stroke="#000000" stroke-width="2" stroke-linecap="square" stroke-miterlimit="10" d="  M533,504.394c4.286,115.333-179.465,115.722-180,0C352.463,388.084,536.612,388.342,533,504.394z"/>
<path fill-rule="evenodd" clip-rule="evenodd" fill="#FFDB78" stroke="#000000" stroke-width="2" stroke-linecap="square" stroke-miterlimit="10" d="  M523.25,504.394c2.103,102.971-159.535,103.005-159.75,0C363.284,400.833,525.704,401.087,523.25,504.394z"/>
<line fill="none" stroke="#000000" stroke-width="2" stroke-linecap="square" stroke-miterlimit="10" x1="450.5" y1="424.894" x2="434" y2="583.144"/>
<line fill="none" stroke="#000000" stroke-width="2" stroke-linecap="square" stroke-miterlimit="10" x1="392" y1="442.894" x2="494.75" y2="566.644"/>
<line fill="none" stroke="#000000" stroke-width="2" stroke-linecap="square" stroke-miterlimit="10" x1="363.5" y1="496.144" x2="523.25" y2="510.394"/>
<line fill="none" stroke="#000000" stroke-width="2" stroke-linecap="square" stroke-miterlimit="10" x1="380.75" y1="554.644" x2="504.5" y2="454.144"/>
<path fill-rule="evenodd" clip-rule="evenodd" fill="#942923" stroke="#000000" stroke-width="2" stroke-linecap="square" stroke-miterlimit="10" d="  M424.25,513.394C407.032,532.406,407.032,494.382,424.25,513.394L424.25,513.394z"/>
<path fill-rule="evenodd" clip-rule="evenodd" fill="#942923" stroke="#000000" stroke-width="2" stroke-linecap="square" stroke-miterlimit="10" d="  M410.75,487.894C393.531,506.906,393.531,468.882,410.75,487.894L410.75,487.894z"/>
<path fill-rule="evenodd" clip-rule="evenodd" fill="#942923" stroke="#000000" stroke-width="2" stroke-linecap="square" stroke-miterlimit="10" d="  M394.25,517.894C377.031,536.906,377.031,498.882,394.25,517.894L394.25,517.894z"/>
<path fill-rule="evenodd" clip-rule="evenodd" fill="#942923" stroke="#000000" stroke-width="2" stroke-linecap="square" stroke-miterlimit="10" d="  M437.75,541.144C420.626,561.016,420.299,522.101,437.75,541.144L437.75,541.144z"/>
<path fill-rule="evenodd" clip-rule="evenodd" fill="#942923" stroke="#000000" stroke-width="2" stroke-linecap="square" stroke-miterlimit="10" d="  M468.5,529.144C451.281,548.156,451.281,510.132,468.5,529.144L468.5,529.144z"/>
<path fill-rule="evenodd" clip-rule="evenodd" fill="#942923" stroke="#000000" stroke-width="2" stroke-linecap="square" stroke-miterlimit="10" d="  M449,483.394C431.781,502.406,431.781,464.382,449,483.394L449,483.394z"/>
<path fill-rule="evenodd" clip-rule="evenodd" fill="#942923" stroke="#000000" stroke-width="2" stroke-linecap="square" stroke-miterlimit="10" d="  M476.75,480.394C459.531,499.406,459.531,461.382,476.75,480.394L476.75,480.394z"/>
<path fill-rule="evenodd" clip-rule="evenodd" fill="#942923" stroke="#000000" stroke-width="2" stroke-linecap="square" stroke-miterlimit="10" d="  M477.5,449.644C460.281,468.656,460.281,430.632,477.5,449.644L477.5,449.644z"/>
<path fill-rule="evenodd" clip-rule="evenodd" fill="#942923" stroke="#000000" stroke-width="2" stroke-linecap="square" stroke-miterlimit="10" d="  M445.25,448.894C428.031,467.906,428.031,429.882,445.25,448.894L445.25,448.894z"/>
<path fill-rule="evenodd" clip-rule="evenodd" fill="#942923" stroke="#000000" stroke-width="2" stroke-linecap="square" stroke-miterlimit="10" d="  M503.75,475.894C486.531,494.906,486.531,456.882,503.75,475.894L503.75,475.894z"/>
<path fill-rule="evenodd" clip-rule="evenodd" fill="#942923" stroke="#000000" stroke-width="2" stroke-linecap="square" stroke-miterlimit="10" d="  M407.75,457.144C390.716,476.911,390.268,438.5,407.75,457.144L407.75,457.144z"/>
<path fill-rule="evenodd" clip-rule="evenodd" fill="#942923" stroke="#000000" stroke-width="2" stroke-linecap="square" stroke-miterlimit="10" d="  M508.25,502.894C491.031,521.906,491.031,483.882,508.25,502.894L508.25,502.894z"/>
<path fill-rule="evenodd" clip-rule="evenodd" fill="#942923" stroke="#000000" stroke-width="2" stroke-linecap="square" stroke-miterlimit="10" d="  M409.25,548.644C392.031,567.656,392.031,529.632,409.25,548.644L409.25,548.644z"/>
<path fill-rule="evenodd" clip-rule="evenodd" fill="#942923" stroke="#000000" stroke-width="2" stroke-linecap="square" stroke-miterlimit="10" d="  M497,532.894C479.781,551.906,479.781,513.882,497,532.894L497,532.894z"/>
<path fill-rule="evenodd" clip-rule="evenodd" fill="#942923" stroke="#000000" stroke-width="2" stroke-linecap="square" stroke-miterlimit="10" d="  M464,556.894C447.136,576.219,447.136,537.569,464,556.894L464,556.894z"/>
</svg>