<svg xmlns="http://www.w3.org/2000/svg" xmlns:xlink="http://www.w3.org/1999/xlink" version="1.1" id="Layer_1" x="0px" y="0px" enable-background="new 0 0 822.05 841.89" xml:space="preserve" viewBox="275.72 246.28 271.25 351.54">
<path fill-rule="evenodd" clip-rule="evenodd" fill="#967A66" stroke="#000000" stroke-width="2" stroke-linecap="square" stroke-miterlimit="10" d="  M368.969,492.14c40.5-0.75,81.001-1.5,121.502-2.25c-11.935,42.578-9.849,113.134-68.25,106.5  C377.348,591.292,378.653,527.745,368.969,492.14z"/>
<path fill-rule="evenodd" clip-rule="evenodd" fill="#8A5C31" stroke="#000000" stroke-width="2" stroke-linecap="square" stroke-miterlimit="10" d="  M492.721,492.89c-12.662,19.655-125.682,27.896-125.252,0C367.9,464.902,480.192,473.684,492.721,492.89z"/>
<path fill-rule="evenodd" clip-rule="evenodd" fill="#0DB14B" stroke="#000000" stroke-width="2" stroke-linecap="square" stroke-miterlimit="10" d="  M414.721,497.39c-9.918-29.75-11.514-44.383-37.02-61.637c-33.999-22.999-30.01-19.79-56.732,11.387  c7.736-30.946,6.191-27.15-24-35.25c20.475-1.38,57.559-12.582,73.547,1.477c26.514,23.314,37.435,34.142,50.205,66.773  c-6.253-24.271-18.729-77.044-45.518-84.188c-20.818-5.552-20.027-15.331-41.196-12.156c-24.611,3.692-36.301-10.339-57.289-7.907  c36.667-23.048,59.717-20.834,98.605-3.884c37.407,16.306,39.756,54.685,50.647,92.384c-8.54-66.043-17.009-109.154-52.502-165.75  c3-1,6-2,9-3c-13.25-10.75-26.5-21.5-39.75-32.25c3-2.5,6-5,9-7.5c-6.29-1.318-12.381-5.357-18.75-6  c46.945-19.023,71.748,71.396,83.252,99.75c8.241-26.732,24.482-56.5,55.5-59.25c0.229,13.173-13.195,38.365-24.75,28.5  c3.156,14.17-2.234,27.831-9.75,39.75c28.807-30.778,95.616-32.153,108.75,16.5c-36.807,3.201-43.418-10.152-72-26.25  c3.593,21.15-33.982,17.891-40.5,39c21.272-4.512,53.419-11.258,72,3c-21.058,5.149-43.819,8.088-65.25,3.75  c-0.602,7.365,0.383,18.35,2.25,25.5c35.444-6.444,38.615-10.316,63,15.75c-6.466-1.869-14.343,1.22-21,0  c0.25,3.25,0.5,6.5,0.75,9.75c-15.523-15.125-47.481-11.396-48,14.25c10.277-5.291,21.262-8.31,32.25-5.25  c-6.359,3.356-23.311,8.359-27,14.25c-3.752,5.992,4.953,25.234,0,30C436.158,504.963,420.964,501.049,414.721,497.39z"/>
</svg>