<svg xmlns="http://www.w3.org/2000/svg" xmlns:xlink="http://www.w3.org/1999/xlink" version="1.1" id="Layer_1" x="0px" y="0px" enable-background="new 0 0 822.05 841.89" xml:space="preserve" viewBox="330.61 334.05 160.14 176.37">
<path fill-rule="evenodd" clip-rule="evenodd" fill="#82B9D7" stroke="#000000" stroke-linecap="square" stroke-miterlimit="10" d="  M380.75,445.421c3.744-0.342,9.164-1.938,14.25-1.5C388.209,453.084,384.522,446.755,380.75,445.421z"/>
<path fill-rule="evenodd" clip-rule="evenodd" fill="#82B9D7" stroke="#000000" stroke-linecap="square" stroke-miterlimit="10" d="  M388.25,444.671c1.967,12.725,6.263,9.702,10.5-1.5C395.878,445.13,392.378,444.399,388.25,444.671z"/>
<path fill-rule="evenodd" clip-rule="evenodd" fill="#82B9D7" stroke="#000000" stroke-linecap="square" stroke-miterlimit="10" d="  M415.25,433.421c-0.468-4.971-3.204-14.559,0-23.248c-13.252,5.58-16.341,27.67-23.25,40.498c6.358,0.293,16.474-0.962,22.5-3  c-4.798-5.504-0.009-4.029,0-6.75C408.25,436.328,413.886,436.37,415.25,433.421z"/>
<path fill-rule="evenodd" clip-rule="evenodd" fill="#82B9D7" stroke="#000000" stroke-linecap="square" stroke-miterlimit="10" d="  M475.25,446.921c-34.023-6.124-78.115-1.703-111.75,5.25c-7.071,1.462-50.705,18-23.625,18  C370.842,470.171,455.743,478.875,475.25,446.921z"/>
<path fill-rule="evenodd" clip-rule="evenodd" fill="#82B9D7" stroke="#000000" stroke-linecap="square" stroke-miterlimit="10" d="  M466.25,437.921c1.878-2.87,3.005-6.643,4.5-9.75c0.5,0,1,0,1.5,0C474.041,434.839,469.372,433.149,466.25,437.921z"/>
<path fill-rule="evenodd" clip-rule="evenodd" fill="#82B9D7" d="M403.25,482.171c2.218-3.099,7.935-2.46,2.25-6  C401.312,478.681,405.196,479.453,403.25,482.171z"/>
<path fill="none" stroke="#000000" stroke-linecap="square" stroke-miterlimit="10" d="M403.25,482.171  c1.405-1.796,7.583-2,3.75-4.875c-4.293-3.22-2.589,2.763-3.75,4.125"/>
<path fill-rule="evenodd" clip-rule="evenodd" fill="#82B9D7" stroke="#000000" stroke-linecap="square" stroke-miterlimit="10" d="  M389,476.171C417.711,465.05,393.565,499.25,389,476.171L389,476.171z"/>
<path fill-rule="evenodd" clip-rule="evenodd" fill="#82B9D7" stroke="#000000" stroke-linecap="square" stroke-miterlimit="10" d="  M391.25,479.921C395.298,482.367,382.645,474.724,391.25,479.921L391.25,479.921z"/>
<path fill-rule="evenodd" clip-rule="evenodd" fill="#82B9D7" stroke="#000000" stroke-linecap="square" stroke-miterlimit="10" d="  M452,509.921c-17.549-20.056-30.849-54.412-60.75-42C410.005,479.481,429.882,507.619,452,509.921z"/>
<path fill-rule="evenodd" clip-rule="evenodd" fill="#82B9D7" stroke="#000000" stroke-linecap="square" stroke-miterlimit="10" d="  M406.25,477.671c-3.617-0.661-3.966-4.021-9-3.75c-0.104,3.104-0.82,8.229-0.75,11.25  C403.533,484.537,403.114,481.313,406.25,477.671z"/>
<path fill-rule="evenodd" clip-rule="evenodd" fill="#82B9D7" stroke="#000000" stroke-linecap="square" stroke-miterlimit="10" d="  M489.5,419.923c-13.525,7.327-25.405,22.611-41.25,26.248C468.756,449.098,488.005,440.492,489.5,419.923z"/>
<path fill-rule="evenodd" clip-rule="evenodd" fill="#82B9D7" stroke="#000000" stroke-linecap="square" stroke-miterlimit="10" d="  M474.5,448.421c5.618,4.673,10.578,10.578,15.75,15.75c-8.237-2.046-18.481-8.091-24.75-13.5  C468.423,449.831,471.471,449.041,474.5,448.421z"/>
<path fill-rule="evenodd" clip-rule="evenodd" fill="#82B9D7" stroke="#000000" stroke-linecap="square" stroke-miterlimit="10" d="  M341.75,463.421c0.979-1.793,3.319-6.383,11.25-8.25C353.943,467.409,349.107,462.452,341.75,463.421z"/>
<path fill-rule="evenodd" clip-rule="evenodd" fill="#82B9D7" stroke="#000000" stroke-width="0.75" stroke-linecap="square" stroke-miterlimit="10" d="  M401,365.173c2.916-0.16,7.148-1.743,11.25-1.5C406.582,371.427,403.409,365.592,401,365.173z"/>
<path fill-rule="evenodd" clip-rule="evenodd" fill="#82B9D7" stroke="#000000" stroke-width="0.75" stroke-linecap="square" stroke-miterlimit="10" d="  M406.25,364.423c3.99,4.557,2.756,12.888,8.25-1.5C412.884,364.403,409.118,365.453,406.25,364.423z"/>
<path fill-rule="evenodd" clip-rule="evenodd" fill="#82B9D7" stroke="#000000" stroke-width="0.75" stroke-linecap="square" stroke-miterlimit="10" d="  M427.25,354.673c0.448-3.676-2.296-13.593,0-20.25c-9.915,7.103-12.008,23.548-18,35.25c4.974,0.284,12.595-0.511,17.25-2.25  C422.136,360.359,427.497,359.06,427.25,354.673z"/>
<path fill-rule="evenodd" clip-rule="evenodd" fill="#82B9D7" stroke="#000000" stroke-width="0.75" stroke-linecap="square" stroke-miterlimit="10" d="  M474.5,365.923c-25.999-5.343-62.306-2.151-87.75,4.5c-11.215,2.932-39.759,11.874-14.25,16.125  C396.714,390.584,460.502,388.233,474.5,365.923z"/>
<path fill-rule="evenodd" clip-rule="evenodd" fill="#82B9D7" stroke="#000000" stroke-width="0.75" stroke-linecap="square" stroke-miterlimit="10" d="  M467.75,357.673c1.729-2.972,2.461-6.837,4.5-9C474.197,354.582,470.238,353.399,467.75,357.673z"/>
<path fill-rule="evenodd" clip-rule="evenodd" fill="#82B9D7" d="M417.5,396.673C421.491,390.268,420.931,391.167,417.5,396.673  L417.5,396.673z"/>
<path fill="none" stroke="#000000" stroke-width="0.75" stroke-linecap="square" stroke-miterlimit="10" d="M417.5,396.673  c4.075-5.864,3.773-5.701,0-0.75"/>
<path fill-rule="evenodd" clip-rule="evenodd" fill="#82B9D7" stroke="#000000" stroke-width="0.75" stroke-linecap="square" stroke-miterlimit="10" d="  M407.75,390.673c5.149-0.481,8.432-3.57,12,1.5C413.777,400.866,411.433,399.737,407.75,390.673z"/>
<path fill-rule="evenodd" clip-rule="evenodd" fill="#82B9D7" stroke="#000000" stroke-width="0.75" stroke-linecap="square" stroke-miterlimit="10" d="  M409.25,394.423C413.749,399.664,402.24,386.258,409.25,394.423L409.25,394.423z"/>
<path fill-rule="evenodd" clip-rule="evenodd" fill="#82B9D7" stroke="#000000" stroke-width="0.75" stroke-linecap="square" stroke-miterlimit="10" d="  M456.5,420.673c-15.284-16.968-22.569-46.462-48-37.5C423.451,394.849,438.714,416.142,456.5,420.673z"/>
<path fill-rule="evenodd" clip-rule="evenodd" fill="#82B9D7" stroke="#000000" stroke-width="0.75" stroke-linecap="square" stroke-miterlimit="10" d="  M420.5,392.923c-0.734,0.159-3.922-3.803-6.75-3.75c-0.105,2.911-0.667,6.814-0.75,9.75  C418.316,397.396,417.788,394.398,420.5,392.923z"/>
<path fill-rule="evenodd" clip-rule="evenodd" fill="#82B9D7" stroke="#000000" stroke-width="0.75" stroke-linecap="square" stroke-miterlimit="10" d="  M485.75,342.673c-10.378,6.792-20.013,19.444-32.25,22.5C470.862,370.305,484.684,356.55,485.75,342.673z"/>
<path fill-rule="evenodd" clip-rule="evenodd" fill="#82B9D7" stroke="#000000" stroke-width="0.75" stroke-linecap="square" stroke-miterlimit="10" d="  M473.75,366.673c4.518,4.425,8.557,9.515,12.75,14.25c-6.882-1.699-14.816-8.037-19.5-12.75  C469.365,368.005,471.48,367.314,473.75,366.673z"/>
<path fill-rule="evenodd" clip-rule="evenodd" fill="#82B9D7" stroke="#000000" stroke-width="0.75" stroke-linecap="square" stroke-miterlimit="10" d="  M370.25,380.173c-0.314,0.312,2.959-5.671,8.25-7.5C379.429,383.972,375.055,378.344,370.25,380.173z"/>
</svg>