<svg xmlns="http://www.w3.org/2000/svg" xmlns:xlink="http://www.w3.org/1999/xlink" version="1.1" id="Layer_1" x="0px" y="0px" enable-background="new 0 0 822.05 841.89" xml:space="preserve" viewBox="313.88 353.24 194.87 138.5">
<path fill-rule="evenodd" clip-rule="evenodd" fill="#82B9D7" stroke="#000000" stroke-width="1.25" stroke-linecap="square" stroke-miterlimit="10" d="  M373.125,402.619c5.313-1.169,11.276-1.895,17.25-1.5c-5.426,7.368-6.531,6.588-17.25,8.25  C373.973,407.175,373.948,404.878,373.125,402.619z"/>
<path fill-rule="evenodd" clip-rule="evenodd" fill="#82B9D7" stroke="#000000" stroke-width="1.25" stroke-linecap="square" stroke-miterlimit="10" d="  M381.375,401.119c0.128,17.456,8.607,12.94,12.75-1.5C390.127,402.212,386.281,400.345,381.375,401.119z"/>
<path fill-rule="evenodd" clip-rule="evenodd" fill="#82B9D7" stroke="#000000" stroke-width="1.25" stroke-linecap="square" stroke-miterlimit="10" d="  M415.127,385.369c-4.977-7.613-1.484-19.624,0-31.5c-17.009,6.857-19.876,38.797-28.502,55.5c9.25-1.25,18.501-2.5,27.752-3.75  c-2.773-5.435,0.051-8.719,0-9.75C407.509,390.274,412.805,389.056,415.127,385.369z"/>
<path fill-rule="evenodd" clip-rule="evenodd" fill="#82B9D7" stroke="#000000" stroke-width="1.25" stroke-linecap="square" stroke-miterlimit="10" d="  M490.125,404.119c-40.199-11.17-91.324,3.416-132.556,6.361c-14.253,1.018-57.068,10.944-38.444,25.141  c13.709,10.451,77.755,2.935,96.752-0.75C435.397,431.084,481.728,423.283,490.125,404.119z"/>
<path fill-rule="evenodd" clip-rule="evenodd" fill="#82B9D7" stroke="#000000" stroke-width="1.25" stroke-linecap="square" stroke-miterlimit="10" d="  M478.875,392.119c1.985-4.632,3.328-9.593,5.25-14.25c0.75,0,1.5,0,2.25,0C488.524,386.742,482.929,385.577,478.875,392.119z"/>
<path fill-rule="evenodd" clip-rule="evenodd" fill="#82B9D7" d="M400.875,452.871c1.305-2.007,5.136-2.335,6.75-5.25  c-1.25-1-2.5-2-3.75-3C399.824,447.51,402.842,449.845,400.875,452.871z"/>
<path fill="none" stroke="#000000" stroke-width="1.25" stroke-linecap="square" stroke-miterlimit="10" d="M400.875,452.871  c1.47-2.094,5.075-2.224,6.75-5.25c-1.25-1-2.5-2-3.75-3c-3.807,2.538-1.122,4.987-3,7.5"/>
<path fill-rule="evenodd" clip-rule="evenodd" fill="#82B9D7" stroke="#000000" stroke-width="1.25" stroke-linecap="square" stroke-miterlimit="10" d="  M383.625,443.871C425.794,423.077,376.349,480.922,383.625,443.871L383.625,443.871z"/>
<path fill-rule="evenodd" clip-rule="evenodd" fill="#82B9D7" stroke="#000000" stroke-width="1.25" stroke-linecap="square" stroke-miterlimit="10" d="  M385.875,448.371c0.156-0.062-0.445,6.031-0.75,6.75c-0.5,0-1,0-1.5,0c-0.457-4.568-0.365-7.459,0-12  C385.54,442.862,387.731,447.639,385.875,448.371z"/>
<path fill-rule="evenodd" clip-rule="evenodd" fill="#82B9D7" stroke="#000000" stroke-width="1.25" stroke-linecap="square" stroke-miterlimit="10" d="  M460.875,491.121c-12.458-16.018-28.645-34.673-31.5-44.25c-11.642-9.863-19.802-24.739-43.5-14.25  C409.552,447.962,433.031,487.72,460.875,491.121z"/>
<path fill-rule="evenodd" clip-rule="evenodd" fill="#82B9D7" stroke="#000000" stroke-width="1.25" stroke-linecap="square" stroke-miterlimit="10" d="  M403.875,446.871c-3.609-4.102-4.696-6.717-11.25-6c-0.429,3.328-0.798,12.374-0.75,15.75  C399.724,455.133,401.04,451.29,403.875,446.871z"/>
<path fill-rule="evenodd" clip-rule="evenodd" fill="#82B9D7" stroke="#000000" stroke-width="1.25" stroke-linecap="square" stroke-miterlimit="10" d="  M505.875,368.119c-17.5,9.199-28.312,32.139-50.25,35.25C480.06,410.051,508.536,393.515,505.875,368.119z"/>
<path fill-rule="evenodd" clip-rule="evenodd" fill="#82B9D7" stroke="#000000" stroke-width="1.25" stroke-linecap="square" stroke-miterlimit="10" d="  M488.625,406.369c6.501,7.5,13.001,15.001,19.5,22.502c-10.667-2.827-23.919-11.252-30.75-19.502  C480.989,408.015,484.784,407.084,488.625,406.369z"/>
<path fill-rule="evenodd" clip-rule="evenodd" fill="#82B9D7" stroke="#000000" stroke-width="1.25" stroke-linecap="square" stroke-miterlimit="10" d="  M324.375,427.371c1.708-4.782,4.24-9.854,14.25-12.002C340.189,428.529,335.107,429.865,324.375,427.371z"/>
</svg>