<svg xmlns="http://www.w3.org/2000/svg" xmlns:xlink="http://www.w3.org/1999/xlink" version="1.1" id="Layer_1" x="0px" y="0px" enable-background="new 0 0 822.05 841.89" xml:space="preserve" viewBox="305.56 345.95 209.44 149.87">
<path fill-rule="evenodd" clip-rule="evenodd" fill="#FFFFFF" stroke="#000000" stroke-linecap="square" stroke-miterlimit="10" d="  M474,437.453c0.635,65.363-149.482,73.134-153,8.25C317.457,380.366,467.084,372.093,474,437.453z"/>
<path fill-rule="evenodd" clip-rule="evenodd" fill="#1B1076" d="M468.75,437.453c-4.143,60.128-139.682,68.418-143.25,7.5  C321.966,384.626,460.811,377.316,468.75,437.453z"/>
<path fill-rule="evenodd" clip-rule="evenodd" fill="#FFFFFF" stroke="#000000" stroke-linecap="square" stroke-miterlimit="10" d="  M450,438.953c-1.882,42.996-98.233,51.835-105,9C337.639,401.358,443.027,392.788,450,438.953z"/>
<path fill-rule="evenodd" clip-rule="evenodd" fill="#BFBEB2" stroke="#000000" stroke-linecap="square" stroke-miterlimit="10" d="  M514.5,402.203c0.039-15.079-18.129-27.103-22.125-7.125c-3.039,15.198,5.979,26.352,5.625,41.625  C505.492,428.65,512.56,415.215,514.5,402.203z"/>
<path fill-rule="evenodd" clip-rule="evenodd" fill="#BFBEB2" stroke="#000000" stroke-linecap="square" stroke-miterlimit="10" d="  M504,432.953c-0.389,0.393-6.601-1.46-6.75-1.5c2.205,8.954-1.226,5.016,6.75,8.25C504,438.696,503.53,433.427,504,432.953z"/>
<path fill-rule="evenodd" clip-rule="evenodd" fill="#BFBEB2" stroke="#000000" stroke-linecap="square" stroke-miterlimit="10" d="  M504.75,492.953c-14.901,9.137-11.119-22.259-9-33.75C505.306,407.388,504.499,475.155,504.75,492.953z"/>
<path fill-rule="evenodd" clip-rule="evenodd" fill="#BFBEB2" stroke="#000000" stroke-linecap="square" stroke-miterlimit="10" d="  M484.5,433.703c0.5-18,1-36,1.5-54C472.272,389.29,470.678,427.788,484.5,433.703z"/>
<path fill-rule="evenodd" clip-rule="evenodd" fill="#BFBEB2" stroke="#000000" stroke-linecap="square" stroke-miterlimit="10" d="  M484.5,432.953c-0.867,0.827-5.601-0.425-6.75-0.75c2.751,8.703-1.007,5.285,7.5,8.25  C484.885,439.087,483.523,434.193,484.5,432.953z"/>
<path fill-rule="evenodd" clip-rule="evenodd" fill="#BFBEB2" stroke="#000000" stroke-linecap="square" stroke-miterlimit="10" d="  M486,492.953c-16.025,11.447-11.078-21.696-9-33C486.364,409.007,485.471,474.416,486,492.953z"/>
<path fill-rule="evenodd" clip-rule="evenodd" fill="#BFBEB2" stroke="#000000" stroke-linecap="square" stroke-miterlimit="10" d="  M318.75,409.703c4.762-9.861,5.962-20.441,5.25-31.5c-1.398,6.383-4.438,12.401-6,18.75c-0.301-6.265-2.08-12.482-2.25-18.75  c-0.722,6.064-2.929,11.946-3.75,18c-0.679-6.312-3.059-12.439-3.75-18.75c-4.028,14.767-3.148,45.692,8.25,51  C315.111,421.151,318.246,416.541,318.75,409.703z"/>
<path fill-rule="evenodd" clip-rule="evenodd" fill="#BFBEB2" stroke="#000000" stroke-linecap="square" stroke-miterlimit="10" d="  M316.5,428.453c-0.849,0.875-6.174-0.561-6.75-0.75c-0.25,2.25-0.5,4.5-0.75,6.75c2.075,0.736,5.333,0.104,7.5,0.75  C316.5,434.185,316.025,428.942,316.5,428.453z"/>
<path fill-rule="evenodd" clip-rule="evenodd" fill="#BFBEB2" stroke="#000000" stroke-linecap="square" stroke-miterlimit="10" d="  M317.25,486.953c-16.182,9.688-9.61-24.314-8.611-37.306C312.023,405.652,317.087,475.886,317.25,486.953z"/>
<path fill-rule="evenodd" clip-rule="evenodd" fill="#CE0021" stroke="#000000" stroke-width="1.5" stroke-linecap="square" stroke-miterlimit="10" d="  M441,396.953c13.46-14.338,49.424-35.723,20.25-50.25c-12.44,13.251-30.168,48.493-45.75,26.25c-6.25,19.25-12.5,38.5-18.75,57.75  c18.5-7.75,37-15.5,55.5-23.25C448.656,404.099,445.183,399.487,441,396.953z"/>
</svg>