<svg xmlns="http://www.w3.org/2000/svg" xmlns:xlink="http://www.w3.org/1999/xlink" version="1.1" id="Layer_1" x="0px" y="0px" enable-background="new 0 0 822.05 841.89" xml:space="preserve" viewBox="330.18 338.32 161.85 168.24">
<path fill-rule="evenodd" clip-rule="evenodd" fill="#EED5B6" stroke="#000000" stroke-width="1.25" stroke-linecap="square" stroke-miterlimit="10" d="  M426.814,385.285c-2,3-4,6-6,9C441.688,406.549,446.703,380.773,426.814,385.285z"/>
<path fill-rule="evenodd" clip-rule="evenodd" stroke="#000000" stroke-width="1.25" stroke-linecap="square" stroke-miterlimit="10" d="  M408.814,470.785c6.731,6.206,13.117,14.433,17.25,21.75C424.366,484.35,413.353,472.64,408.814,470.785z"/>
<path fill-rule="evenodd" clip-rule="evenodd" d="M425.314,488.035c10.223-5.706,24.428-14.09,33-16.5  C446.48,477.373,431.515,488.558,425.314,488.035z"/>
<path fill="none" stroke="#000000" stroke-width="1.25" stroke-linecap="square" stroke-miterlimit="10" d="M425.314,488.035  c10.223-5.706,24.428-14.09,33-16.5C446.48,477.373,431.515,488.558,425.314,488.035"/>
<path fill-rule="evenodd" clip-rule="evenodd" stroke="#000000" stroke-width="1.25" stroke-linecap="square" stroke-miterlimit="10" d="  M453.814,472.285c0.888,4.749,14.328,33.767,21,21.75C480.155,484.416,461.201,465.399,453.814,472.285z"/>
<path fill-rule="evenodd" clip-rule="evenodd" fill="#392170" stroke="#000000" stroke-width="1.25" stroke-linecap="square" stroke-miterlimit="10" d="  M419.314,498.535c23.273-0.839,30.136-8.141,20.25-30C419.412,467.085,415.673,481.114,419.314,498.535z"/>
<path fill-rule="evenodd" clip-rule="evenodd" stroke="#000000" stroke-width="1.25" stroke-linecap="square" stroke-miterlimit="10" d="  M423.064,473.785c6.951,6.113,13.466,13.239,18,21C440.948,487.541,428.49,476.855,423.064,473.785z"/>
<path fill-rule="evenodd" clip-rule="evenodd" d="M440.314,491.035c10.116-6.116,24.239-15.788,33-18  C462.703,478.874,446.812,490.13,440.314,491.035z"/>
<path fill="none" stroke="#000000" stroke-width="1.25" stroke-linecap="square" stroke-miterlimit="10" d="M440.314,491.035  c10.116-6.116,24.239-15.788,33-18C462.703,478.874,446.812,490.13,440.314,491.035"/>
<path fill-rule="evenodd" clip-rule="evenodd" stroke="#000000" stroke-width="1.25" stroke-linecap="square" stroke-miterlimit="10" d="  M468.064,473.785c1.269,4.573,16.1,32.664,22.5,21C495.745,485.343,475.349,467.334,468.064,473.785z"/>
<path fill-rule="evenodd" clip-rule="evenodd" stroke="#000000" stroke-width="1.25" stroke-linecap="square" stroke-miterlimit="10" d="  M414.064,393.535c-13.28,10.043-26.349,20.183-42,26.25C385.324,418.478,405.001,405.487,414.064,393.535z"/>
<path fill-rule="evenodd" clip-rule="evenodd" fill="#137827" stroke="#000000" stroke-width="1.25" stroke-linecap="square" stroke-miterlimit="10" d="  M414.064,389.035c30.96,8.159,32.233-4.473,60.75,28.5c-3.332,3.369-11.164,7.794-15.75,9c-1.921-5.242-6.519-10.296-7.5-15.75  c0.25,12,0.5,24,0.75,36c-16.25,0.25-32.5,0.5-48.75,0.75c0.75-11.75,1.5-23.5,2.25-35.25c-5.057,6.431-13.302,10.379-18.75,16.5  C373.542,406.468,398.461,399.437,414.064,389.035z"/>
<path fill-rule="evenodd" clip-rule="evenodd" fill="#392170" stroke="#000000" stroke-width="1.25" stroke-linecap="square" stroke-miterlimit="10" d="  M470.314,481.285c-1.039-6.547-5.107-13.28-7.5-19.5c-3,3.75-6,7.5-9,11.25c0.789-40.429-62.534-32.187-48,7.5  c7.651,20.893,25.312,21.468,24-4.5C427.503,507.937,455.858,490.611,470.314,481.285z"/>
<path fill-rule="evenodd" clip-rule="evenodd" fill="#A5A5C2" stroke="#000000" stroke-width="1.25" stroke-linecap="square" stroke-miterlimit="10" d="  M424.564,492.535C408.914,501.964,404.512,485.107,424.564,492.535L424.564,492.535z"/>
<path fill-rule="evenodd" clip-rule="evenodd" fill="#392170" d="M456.064,483.535c-0.75-3.5-1.5-7-2.25-10.5  C454.564,476.535,455.314,480.035,456.064,483.535z"/>
<path fill="none" stroke="#000000" stroke-width="1.25" stroke-linecap="square" stroke-miterlimit="10" d="M456.064,483.535  c-0.75-3.5-1.5-7-2.25-10.5"/>
<path fill-rule="evenodd" clip-rule="evenodd" fill="#381D73" stroke="#000000" stroke-width="1.25" stroke-linecap="square" stroke-miterlimit="10" d="  M332.314,475.285c0,51.33,13.109,11.806,42,18c7.62,1.634,19.5,29.668,19.5-3.375C393.814,463.306,355.126,475.285,332.314,475.285z  "/>
<path fill-rule="evenodd" clip-rule="evenodd" fill="#371870" stroke="#000000" stroke-width="1.25" stroke-linecap="square" stroke-miterlimit="10" d="  M393.814,504.535c13.127-8.929,9-20.015,9-35.25C389.376,477.754,393.814,489.222,393.814,504.535z"/>
<path fill-rule="evenodd" clip-rule="evenodd" fill="#371870" stroke="#000000" stroke-width="1.25" stroke-linecap="square" stroke-miterlimit="10" d="  M332.314,475.285c21.939,0,51.92,6.589,70.5-6C380.875,469.285,350.894,462.696,332.314,475.285z"/>
<path fill-rule="evenodd" clip-rule="evenodd" fill="#371870" stroke="#000000" stroke-width="1.25" stroke-linecap="square" stroke-miterlimit="10" d="  M348.064,497.785c0.453,1.499-0.771,5.04-0.75,6.75c7.017-6.334,8.214-7.469,11.25-15.75  C353.739,490.919,351.67,494.309,348.064,497.785z"/>
<path fill-rule="evenodd" clip-rule="evenodd" fill="#137827" stroke="#000000" stroke-width="1.25" stroke-linecap="square" stroke-miterlimit="10" d="  M361.564,442.285c0,12.199,1.363,22.298-4.5,30.75C357.064,461.375,354.221,450.32,361.564,442.285z"/>
<path fill-rule="evenodd" clip-rule="evenodd" fill="#137827" stroke="#000000" stroke-width="1.25" stroke-linecap="square" stroke-miterlimit="10" d="  M361.564,442.285c-7.438,0.378-12.476-1.038-18.75,3C350.503,446.961,355.314,443.514,361.564,442.285z"/>
<path fill-rule="evenodd" clip-rule="evenodd" fill="#D12327" stroke="#000000" stroke-width="1.25" stroke-linecap="square" stroke-miterlimit="10" d="  M343.564,445.285C343.564,507.133,371.845,438.372,343.564,445.285L343.564,445.285z"/>
<path fill-rule="evenodd" clip-rule="evenodd" fill="#137827" stroke="#000000" stroke-width="1.25" stroke-linecap="square" stroke-miterlimit="10" d="  M391.564,442.285c0,11.567,0.96,22.092-3.75,30.75C387.814,461.814,385.481,450.779,391.564,442.285z"/>
<path fill-rule="evenodd" clip-rule="evenodd" fill="#137827" stroke="#000000" stroke-width="1.25" stroke-linecap="square" stroke-miterlimit="10" d="  M391.564,442.285c-7.281,0.377-12.104-1.219-18,3C381.025,447.043,385.788,443.458,391.564,442.285z"/>
<path fill-rule="evenodd" clip-rule="evenodd" fill="#D12327" stroke="#000000" stroke-width="1.25" stroke-linecap="square" stroke-miterlimit="10" d="  M373.564,445.285C373.564,507.712,403.525,437.739,373.564,445.285L373.564,445.285z"/>
<path fill-rule="evenodd" clip-rule="evenodd" fill="#F2EB25" stroke="#000000" stroke-width="1.25" stroke-linecap="square" stroke-miterlimit="10" d="  M393.814,446.035c-7.259,0-73.801,2.932-61.5-9.75C341.264,427.058,393.366,432.702,393.814,446.035z"/>
<path fill-rule="evenodd" clip-rule="evenodd" fill="#EDDD08" stroke="#000000" stroke-width="1.25" stroke-linecap="square" stroke-miterlimit="10" d="  M393.814,446.035c6.067-6.156,11.084-6.319,9-16.5C393.078,433.638,395.346,437.827,393.814,446.035z"/>
<path fill-rule="evenodd" clip-rule="evenodd" fill="#EDDD08" stroke="#000000" stroke-width="1.25" stroke-linecap="square" stroke-miterlimit="10" d="  M332.314,436.285c19.841,0,55.264,8.197,70.5-6.75C382.974,429.535,347.551,421.338,332.314,436.285z"/>
<path fill-rule="evenodd" clip-rule="evenodd" fill="#381D73" stroke="#000000" stroke-width="1.25" stroke-linecap="square" stroke-miterlimit="10" d="  M387.814,434.035C350.418,443.454,396.427,397.605,387.814,434.035L387.814,434.035z"/>
<path fill-rule="evenodd" clip-rule="evenodd" fill="#371870" stroke="#000000" stroke-width="1.25" stroke-linecap="square" stroke-miterlimit="10" d="  M392.314,417.535c-0.63,8.051,2.308,12.469-4.5,17.25C385.141,425.72,390.554,422.915,392.314,417.535z"/>
<path fill-rule="evenodd" clip-rule="evenodd" fill="#381D73" stroke="#000000" stroke-width="1.25" stroke-linecap="square" stroke-miterlimit="10" d="  M392.314,417.535c-7.438,0.378-12.476-1.039-18.75,3C381.253,422.211,386.064,418.764,392.314,417.535z"/>
<path fill-rule="evenodd" clip-rule="evenodd" fill="#381D73" stroke="#000000" stroke-width="1.25" stroke-linecap="square" stroke-miterlimit="10" d="  M357.814,434.035C319.9,443.302,367.083,396.12,357.814,434.035L357.814,434.035z"/>
<path fill-rule="evenodd" clip-rule="evenodd" fill="#371870" stroke="#000000" stroke-width="1.25" stroke-linecap="square" stroke-miterlimit="10" d="  M361.564,416.785c-0.5,7.616,1.882,12.079-3.75,17.25C355.565,425.953,360.163,422.025,361.564,416.785z"/>
<path fill-rule="evenodd" clip-rule="evenodd" fill="#381D73" stroke="#000000" stroke-width="1.25" stroke-linecap="square" stroke-miterlimit="10" d="  M361.564,416.785c-7.281,0.377-12.104-1.219-18,3C351.025,421.543,355.788,417.958,361.564,416.785z"/>
<path fill-rule="evenodd" clip-rule="evenodd" fill="#381D73" stroke="#000000" stroke-width="1.25" stroke-linecap="square" stroke-miterlimit="10" d="  M410.314,491.035c-0.879,18.026,7.156,11.715,18.75,8.25c2.439-0.729,9,16.046,9-1.5  C438.064,485.42,420.883,491.035,410.314,491.035z"/>
<path fill-rule="evenodd" clip-rule="evenodd" fill="#371870" stroke="#000000" stroke-width="1.25" stroke-linecap="square" stroke-miterlimit="10" d="  M438.064,504.535c1.442-5.125,5.981-8.562,3.75-16.5C436.219,492.96,438.571,497.174,438.064,504.535z"/>
<path fill-rule="evenodd" clip-rule="evenodd" fill="#371870" stroke="#000000" stroke-width="1.25" stroke-linecap="square" stroke-miterlimit="10" d="  M410.314,491.035c11.1,0,21.984,1.769,31.5-3C430.715,488.035,419.83,486.266,410.314,491.035z"/>
<path fill-rule="evenodd" clip-rule="evenodd" fill="#371870" stroke="#000000" stroke-width="1.25" stroke-linecap="square" stroke-miterlimit="10" d="  M417.064,501.535c-0.27,0.105,2.79,2.286,5.25-4.5C419.292,498.034,419.27,500.674,417.064,501.535z"/>
<path fill-rule="evenodd" clip-rule="evenodd" fill="#EDDD08" stroke="#000000" stroke-width="1.25" stroke-linecap="square" stroke-miterlimit="10" d="  M435.064,460.285c0,11.567,0.96,22.092-3.75,30.75C431.314,479.825,428.908,468.244,435.064,460.285z"/>
<path fill-rule="evenodd" clip-rule="evenodd" fill="#F2EB25" stroke="#000000" stroke-width="1.25" stroke-linecap="square" stroke-miterlimit="10" d="  M435.064,460.285c-6.812,0.266-11.999-0.818-18,2.25C423.878,463.864,429.268,461.155,435.064,460.285z"/>
<path fill-rule="evenodd" clip-rule="evenodd" fill="#F2EB25" stroke="#000000" stroke-width="1.25" stroke-linecap="square" stroke-miterlimit="10" d="  M417.064,462.535C417.064,527.972,447.26,455.154,417.064,462.535L417.064,462.535z"/>
<path fill-rule="evenodd" clip-rule="evenodd" fill="#D12327" stroke="#000000" stroke-width="1.25" stroke-linecap="square" stroke-miterlimit="10" d="  M426.064,446.035c-4.793,3.984-8.199,10.761-12,15.75c7.227,2.062,16.698,2.133,24,0  C434.259,456.79,430.853,450.038,426.064,446.035z"/>
<path fill-rule="evenodd" clip-rule="evenodd" fill="#D12327" stroke="#000000" stroke-width="1.25" stroke-linecap="square" stroke-miterlimit="10" d="  M334.564,420.535c20.5,0,41,0,61.5,0C365.267,401.287,365.869,401.901,334.564,420.535z"/>
<path fill-rule="evenodd" clip-rule="evenodd" fill="#D12327" stroke="#000000" stroke-width="1.25" stroke-linecap="square" stroke-miterlimit="10" d="  M399.814,418.285c-10.48-6.718-22.23-18.877-33.75-16.5C376.544,408.502,388.294,420.662,399.814,418.285z"/>
<path fill-rule="evenodd" clip-rule="evenodd" fill="#EED5B6" stroke="#000000" stroke-width="1.25" stroke-linecap="square" stroke-miterlimit="10" d="  M347.314,415.285C346.192,388.796,377.292,410.85,347.314,415.285L347.314,415.285z"/>
<path fill-rule="evenodd" clip-rule="evenodd" stroke="#000000" stroke-width="1.25" stroke-linecap="square" stroke-miterlimit="10" d="  M489.064,434.035c-4.89-3.432-12.795-6.978-18-13.5c-1.25,0.5-2.5,1-3.75,1.5c5.51,2.64,10.782,8.979,15.75,12.75  c-7.292,7.341-13.799,15.369-19.5,24C469.844,454.81,482.238,441.349,489.064,434.035z"/>
<path fill-rule="evenodd" clip-rule="evenodd" fill="#EED5B6" stroke="#000000" stroke-width="1.25" stroke-linecap="square" stroke-miterlimit="10" d="  M456.064,475.285C477.11,465.797,456.581,447.865,456.064,475.285L456.064,475.285z"/>
<path fill-rule="evenodd" clip-rule="evenodd" fill="#EED5B6" stroke="#000000" stroke-width="1.25" stroke-linecap="square" stroke-miterlimit="10" d="  M419.314,350.785c-10.887,21.721,11.453,50.566,29.625,25.125C467.39,350.079,436.588,322.703,419.314,350.785z"/>
</svg>