<svg xmlns="http://www.w3.org/2000/svg" xmlns:xlink="http://www.w3.org/1999/xlink" version="1.1" id="Layer_1" x="0px" y="0px" enable-background="new 0 0 822.05 841.89" xml:space="preserve" viewBox="325.75 361.6 169.75 116.98">
<path fill-rule="evenodd" clip-rule="evenodd" fill="#82218A" stroke="#000000" stroke-linecap="square" stroke-miterlimit="10" d="  M399.75,434.097c-0.191,56.754-73.5,59.726-73.5,2.25C326.25,376.219,400.246,372.843,399.75,434.097z"/>
<path fill-rule="evenodd" clip-rule="evenodd" fill="#3E1108" stroke="#000000" stroke-linecap="square" stroke-miterlimit="10" d="  M357,372.597c0.5,4.75,1,9.5,1.5,14.25c1.75,0,3.5,0,5.25,0c0.107-6.668-0.48-17.346-2.25-23.25  C359.487,366.343,358.32,369.453,357,372.597z"/>
<path fill-rule="evenodd" clip-rule="evenodd" fill="#82218A" stroke="#000000" stroke-linecap="square" stroke-miterlimit="10" d="  M495,432.597c-0.191,56.754-73.5,59.726-73.5,2.25C421.5,374.719,495.495,371.343,495,432.597z"/>
<path fill-rule="evenodd" clip-rule="evenodd" fill="#3E1108" stroke="#000000" stroke-linecap="square" stroke-miterlimit="10" d="  M452.25,371.097c0.5,4.75,1,9.5,1.5,14.25c1.75,0,3.5,0,5.25,0c0.107-6.668-0.48-17.346-2.25-23.25  C454.737,364.843,453.57,367.953,452.25,371.097z"/>
</svg>