<svg xmlns="http://www.w3.org/2000/svg" xmlns:xlink="http://www.w3.org/1999/xlink" version="1.1" id="Layer_1" x="0px" y="0px" enable-background="new 0 0 822.05 841.89" xml:space="preserve" viewBox="208.67 267.48 407.76 307.9">
<path fill-rule="evenodd" clip-rule="evenodd" fill="#6D6F71" stroke="#000000" stroke-width="2" stroke-linecap="square" stroke-miterlimit="10" d="  M238.309,436.89c-45.524-65.783-5.019-150.698,72.75-165.75c83.83-16.225,215.83,44.606,273.002,104.25  c25.3,26.394,43.883,66.926,21,101.25c-11.446,17.17-17.417,7.047-20.361,32.073c-1.356,11.525,2.589,30.512-10.658,31.395  c-19.53,1.302-39.061,2.604-58.591,3.906c-10.743,0.716-29.091,19.834-41.64,24.126c-20.531,7.021-40.975,7.312-62.485,4.781  c-52.786-6.21-110.402-12.959-163.267-5.531c-23.223,3.263-42.86,13.999-37.5-15.75c2.68-14.877,26.716-28.445,31.5-43.5  C248.012,489.408,239.355,456.775,238.309,436.89z"/>
<path fill-rule="evenodd" clip-rule="evenodd" fill="#BCBEC0" d="M237.559,441.39c1.5,18.75,3,37.5,4.5,56.25  c92.352-53.807,248.653,10.942,339.002,42c2.655-19.797,5.312-39.594,7.967-59.391c0.807-6.014-34.378-13.663-40.384-15.665  c-34.73-11.577-70.695-20.64-106.614-27.624C397.962,428.392,269.969,402.955,237.559,441.39z"/>
<path fill="none" stroke="#000000" stroke-width="2" stroke-linecap="square" stroke-miterlimit="10" d="M237.559,441.39  c1.5,18.75,3,37.5,4.5,56.25c92.352-53.807,248.653,10.942,339.002,42c2.403-17.913,4.806-35.826,7.209-53.738  c1.944-14.494-22.925-15.98-34.959-19.762c-33.521-10.532-67.468-20.66-102-27.375c-69.487-13.512-143.998-22.317-213.002-1.875"/>
<path fill-rule="evenodd" clip-rule="evenodd" fill="#E0E1E2" stroke="#000000" stroke-width="2" stroke-linecap="square" stroke-miterlimit="10" d="  M329.809,277.89c-30.191,28.304-35.919,32.417-38.405,73.437c-0.813,13.418,42.494,65.194,48.75,60.863  c37.724-26.117,47.403-24.356,43.157-69.465C379.882,306.295,359.091,299.852,329.809,277.89z"/>
</svg>