<svg xmlns="http://www.w3.org/2000/svg" xmlns:xlink="http://www.w3.org/1999/xlink" version="1.1" id="Layer_1" x="0px" y="0px" enable-background="new 0 0 822.05 841.89" xml:space="preserve" viewBox="199.76 336.45 426.78 178.14">
<path fill-rule="evenodd" clip-rule="evenodd" fill="#007647" stroke="#000000" stroke-width="2" stroke-linecap="square" stroke-miterlimit="10" d="  M238.5,365.392c-27.571-62.907,209.024-0.759,233.766,5.062c20.616,4.851,196.894,51.028,143.109,104.812  c-59.129,59.129-195.436,35.146-268.125,23.789c-41.72-6.519-102.381-11.854-134.25-42.914c-22.684-22.108-10.409-30.315,9-51.75  C232.478,392.82,247.289,382.213,238.5,365.392z"/>
<path fill-rule="evenodd" clip-rule="evenodd" fill="#00A194" stroke="#000000" stroke-width="2" stroke-linecap="square" stroke-miterlimit="10" d="  M257.25,375.892c-23.276-50.073,185.747-0.934,208.734,4.43c26.002,6.067,183.939,43.009,118.266,93.07  c-64.599,49.241-212.346,18.479-283.5,2.667c-18.94-4.209-79.38-16.337-78.75-43.917C222.556,407.809,270.109,404.08,257.25,375.892  z"/>
</svg>