<svg xmlns="http://www.w3.org/2000/svg" xmlns:xlink="http://www.w3.org/1999/xlink" version="1.1" id="Layer_1" x="0px" y="0px" enable-background="new 0 0 822.05 841.89" xml:space="preserve" viewBox="356.99 246.67 109.25 347.62">
<path fill-rule="evenodd" clip-rule="evenodd" fill="#F6C49D" stroke="#000000" stroke-width="2" stroke-linecap="square" stroke-miterlimit="10" d="  M419.816,318.92c-1.104,21.117-27,21.385-27,0C392.816,297.411,418.694,297.804,419.816,318.92z"/>
<path fill-rule="evenodd" clip-rule="evenodd" fill="#FFFCE1" stroke="#000000" stroke-width="2" stroke-linecap="square" stroke-miterlimit="10" d="  M393.566,308.42c24.438,5.672,26.066-0.986,32.79-21.606c6.038-18.517-7.467-25-20.04-39.144  C383.685,274.683,382.925,274.977,393.566,308.42z"/>
<path fill-rule="evenodd" clip-rule="evenodd" fill="#FFFCE1" stroke="#000000" stroke-width="2" stroke-linecap="square" stroke-miterlimit="10" d="  M395.066,333.92c-52.919,27.929-34.679,69.889-31.361,122.973c1.364,21.819,6.611,34.78,6.611,57.875  c0,28.489-8.285,46.13,15.75,59.152c19.287,10.45,71.553,9.97,70.984-15.794c-1.21-54.856,2.076-103.688-0.484-157.456  c2.75,0.75,5.5,1.5,8.25,2.25c2.842-36.002-8.659-42.84-36.611-64.25C416.447,329.665,410.171,339.62,395.066,333.92z"/>
<path fill="none" stroke="#000000" stroke-width="2" stroke-linecap="square" stroke-miterlimit="10" d="M361.316,461.42  c5.499,3.441,13.972,4.14,20.25,6c1.186-19.567,19.589-105.297-21.75-96.75"/>
<path fill-rule="evenodd" clip-rule="evenodd" fill="#F6C49D" stroke="#000000" stroke-width="2" stroke-linecap="square" stroke-miterlimit="10" d="  M377.816,375.17c-2.679-8.373-3.943-14.61,0.75-21.75c1.75,2.5,3.5,5,5.25,7.5c1-2.5,2-5,3-7.5c1.904,12.156,1.434,24.503,0,36.75  C383.866,385.253,380.108,380.415,377.816,375.17z"/>
<path fill="none" stroke="#000000" stroke-width="2" stroke-linecap="square" stroke-miterlimit="10" d="M437.816,372.92  c25.785-3.827,20.164,55.553,21,72C451.816,420.92,444.816,396.92,437.816,372.92z"/>
<path fill-rule="evenodd" clip-rule="evenodd" fill="#F6C49D" stroke="#000000" stroke-width="2" stroke-linecap="square" stroke-miterlimit="10" d="  M437.816,372.92c20.931,7.026,18.75-28.099,12-40.5c-4.617,9.005-6.719,2.072-6.75,16.5c-2.25-2.25-4.5-4.5-6.75-6.75  C431.305,351.524,433.901,362.584,437.816,372.92z"/>
<path fill-rule="evenodd" clip-rule="evenodd" fill="#6D6F71" stroke="#000000" stroke-width="2" stroke-linecap="square" stroke-miterlimit="10" d="  M388.316,576.92c4.815-0.135,10.247,2.05,15,3C397.319,594.455,389.63,595.287,388.316,576.92z"/>
<path fill-rule="evenodd" clip-rule="evenodd" fill="#6D6F71" stroke="#000000" stroke-width="2" stroke-linecap="square" stroke-miterlimit="10" d="  M419.816,582.92c4.416-2.147,10.211-2.553,15-3.75C435.455,595.068,428.879,599.2,419.816,582.92z"/>
<line fill="none" stroke="#000000" stroke-width="2" stroke-linecap="square" stroke-miterlimit="10" x1="386.816" y1="543.17" x2="386.816" y2="543.17"/>
<path fill-rule="evenodd" clip-rule="evenodd" fill="#FFF200" d="M415.316,274.67c-1.751-2.977-8.241,0.339-5.25-9.75  c-1.5,0-3,0-4.5,0c-2.97,4.962-4.271,8.792-6,12c7.329,3.4,8.428,6.864,6,18.75c1.5,0,3,0,4.5,0  C407.711,283.718,410.777,279.301,415.316,274.67z"/>
<path fill="none" stroke="#000000" stroke-width="2" stroke-linecap="square" stroke-miterlimit="10" d="M415.316,274.67  c-1.751-2.977-8.241,0.339-5.25-9.75c-1.5,0-3,0-4.5,0c-2.97,4.962-4.271,8.792-6,12c7.329,3.4,8.428,6.864,6,18.75c1.5,0,3,0,4.5,0  C407.711,283.718,410.777,279.301,415.316,274.67z"/>
<path fill-rule="evenodd" clip-rule="evenodd" fill="#FFF200" d="M430.316,401.42c-14.12,3.885-15-0.606-15-12.375  c0-11.633-12-18.476-12-8.508c0,15.735,4.682,20.883-11.667,20.883c-18.054,0,12.544,13.504,11.667,6.75  c1.708,13.149,0,27.635,0,40.89c0,10.942,12,14.318,12,7.285C415.316,426.887,411.887,410.826,430.316,401.42z"/>
<path fill="none" stroke="#000000" stroke-width="2" stroke-linecap="square" stroke-miterlimit="10" d="M430.316,401.42  c-14.12,3.885-15-0.606-15-12.375c0-11.633-12-18.476-12-8.508c0,15.735,4.682,20.883-11.667,20.883  c-18.054,0,12.544,13.504,11.667,6.75c1.708,13.149,0,27.635,0,40.89c0,10.942,12,14.318,12,7.285  C415.316,426.887,411.887,410.826,430.316,401.42z"/>
</svg>