<svg xmlns="http://www.w3.org/2000/svg" xmlns:xlink="http://www.w3.org/1999/xlink" version="1.1" id="Layer_1" x="0px" y="0px" enable-background="new 0 0 822.05 841.89" xml:space="preserve" viewBox="210.57 245.3 398.44 354.03">
<path fill-rule="evenodd" clip-rule="evenodd" fill="#0071BC" stroke="#000000" stroke-width="2" stroke-linecap="square" stroke-miterlimit="10" d="  M432.537,287.546c-27.242,35.317-24.352,63.061-26.768,107.574c-0.967,17.83-8.627,31.528,10.785,34.764  c12.457,2.076,45.137,12.045,56.482,6.164c18.245-9.457,10.642-49.982,6.375-65.627  C469.534,334.202,458.045,314.649,432.537,287.546z"/>
<path fill-rule="evenodd" clip-rule="evenodd" fill="#6D6F71" stroke="#000000" stroke-width="2" stroke-linecap="square" stroke-miterlimit="10" d="  M415.289,429.298c13.534,4.702,28.474,9.803,42.748,9c-3.853,30.18-27.94,97.816-3.75,122.25  c-0.21-0.006-44.113,32.445-43.372,8.718C412.373,522.611,413.831,475.955,415.289,429.298z"/>
<line fill="none" stroke="#000000" stroke-width="2" stroke-linecap="square" stroke-miterlimit="10" x1="441.537" y1="562.048" x2="449.037" y2="516.298"/>
<path fill-rule="evenodd" clip-rule="evenodd" fill="#BCBEC0" stroke="#000000" stroke-width="2" stroke-linecap="square" stroke-miterlimit="10" d="  M409.287,576.298c3.746,14.399,38.773,24.081,49.5,12.75C443.182,572.848,428.042,581.746,409.287,576.298z"/>
<path fill-rule="evenodd" clip-rule="evenodd" fill="#BCBEC0" stroke="#000000" stroke-width="2" stroke-linecap="square" stroke-miterlimit="10" d="  M441.537,564.298c-0.5,2.5-1,5-1.5,7.5c9.226,0.779,18.486,1.029,27.75,0.75C466.177,559.59,454.249,560.217,441.537,564.298z"/>
<path fill-rule="evenodd" clip-rule="evenodd" fill="#F6C49D" stroke="#000000" stroke-width="2" stroke-linecap="square" stroke-miterlimit="10" d="  M435.537,286.046c0.25-2.75,0.5-5.5,0.75-8.25c3.75,1,7.5,2,11.25,3c6.948-8.511,17.389-4.139,31.5-5.25  C471.35,298.665,444.756,324.774,435.537,286.046z"/>
<path fill-rule="evenodd" clip-rule="evenodd" fill="#0071BC" stroke="#000000" stroke-width="2" stroke-linecap="square" stroke-miterlimit="10" d="  M436.287,277.796c-4.59-30.931,13.103-25.139,45.75-30.75c-1.476,10.176-3.946,17.679,5.25,26.25  C475.593,276.43,452.98,275.619,436.287,277.796z"/>
<path fill-rule="evenodd" clip-rule="evenodd" fill="#EAB649" stroke="#000000" stroke-width="2" stroke-linecap="square" stroke-miterlimit="10" d="  M476.037,439.048c-17.822,40.631-19.778,81.581-13.125,121.5c3.239,19.438,14.595,27.389,34.125,26.25  c36.545-2.13,7.171-33.668-7.5-30.75c24.465-21.091,69.699-100.469,35.25-131.25c5.055-4.861,21.807-15.421,17.391-21.799  c-8.321-12.02-11.272-19.684-27.213-17.407c-17.127,2.447-33.053-2.659-32.733,16.177  C482.466,415.585,487.622,430.797,476.037,439.048z"/>
<path fill="none" stroke="#000000" stroke-width="2" stroke-linecap="square" stroke-miterlimit="10" d="M496.287,388.796  c16.676,2.911,28.892,11.595,36,27"/>
<path fill-rule="evenodd" clip-rule="evenodd" fill="#ED1C24" stroke="#000000" stroke-width="2" stroke-linecap="square" stroke-miterlimit="10" d="  M532.287,358.796c-0.257-19.51-14.093-68.508,17.625-65.625c14.152,1.287,58.628-7.075,58.092,16.84  c-0.52,23.245-1.04,46.49-1.561,69.735c-0.612,27.339,4.561,29.01-23.438,30.566C540.719,412.661,530.245,401.673,532.287,358.796z"/>
<line fill="none" stroke="#000000" stroke-width="2" stroke-linecap="square" stroke-miterlimit="10" x1="565.287" y1="295.046" x2="565.287" y2="409.796"/>
<path fill-rule="evenodd" clip-rule="evenodd" fill="#6D6F71" stroke="#000000" stroke-width="2" stroke-linecap="square" stroke-miterlimit="10" d="  M568.287,575.548c-16.821,14.449-10.5-26.042-10.5-37.877c0-28.484,0-56.968,0-85.452c0-10.064-5.336-38.745,0-47.673  c12.906-21.597,10.5,34.475,10.5,37.877C568.287,486.798,568.287,531.173,568.287,575.548z"/>
<path fill-rule="evenodd" clip-rule="evenodd" fill="#FFFFFF" stroke="#000000" stroke-width="2" stroke-linecap="square" stroke-miterlimit="10" d="  M538.287,316.796c7.484-0.165,11.262-5.168,19.5,0C554.834,302.62,542.208,305.725,538.287,316.796z"/>
<path fill="none" stroke="#000000" stroke-width="2" stroke-linecap="square" stroke-miterlimit="10" d="M481.287,394.046  c-27.529,8.815-32.81-29.833-41.25-48.75"/>
<path fill-rule="evenodd" clip-rule="evenodd" fill="#DCF2FD" stroke="#000000" stroke-width="2" stroke-linecap="square" stroke-miterlimit="10" d="  M502.287,353.546c10.325-16.044,21.151,1.439,33,10.5C508.558,397.012,505.044,395.821,502.287,353.546z"/>
<path fill-rule="evenodd" clip-rule="evenodd" fill="#F6C49D" stroke="#000000" stroke-width="2" stroke-linecap="square" stroke-miterlimit="10" d="  M483.537,374.546C524.077,367.02,486.812,411.291,483.537,374.546L483.537,374.546z"/>
<path fill-rule="evenodd" clip-rule="evenodd" fill="#F6C49D" stroke="#000000" stroke-width="2" stroke-linecap="square" stroke-miterlimit="10" d="  M478.287,363.296c0.75,3.75,1.5,7.5,2.25,11.25c15.357,2.921,34.361-3.686,21.75-21  C494.488,356.715,485.583,359.123,478.287,363.296z"/>
<path fill-rule="evenodd" clip-rule="evenodd" fill="#0071BC" stroke="#000000" stroke-width="2" stroke-linecap="square" stroke-miterlimit="10" d="  M324.537,286.796c-27.605,35.785-24.918,62.49-27.015,107.574c-0.948,20.39-8.239,31.462,13.154,35.15  c17.715,3.054,38.989,7.974,56.986,5.402c16.835-2.405,5.672-57.8,2.625-69.377C361.223,331.104,348.542,312.301,324.537,286.796z"/>
<path fill-rule="evenodd" clip-rule="evenodd" fill="#6D6F71" stroke="#000000" stroke-width="2" stroke-linecap="square" stroke-miterlimit="10" d="  M306.537,428.548c13.736,4.881,28.956,9.752,43.5,9c-3.853,30.18-27.94,97.816-3.75,122.25c0.327,0.01-44.863,32.357-44.124,8.718  C303.621,521.861,305.079,475.205,306.537,428.548z"/>
<line fill="none" stroke="#000000" stroke-width="2" stroke-linecap="square" stroke-miterlimit="10" x1="332.787" y1="561.298" x2="340.287" y2="515.548"/>
<path fill-rule="evenodd" clip-rule="evenodd" fill="#BCBEC0" stroke="#000000" stroke-width="2" stroke-linecap="square" stroke-miterlimit="10" d="  M300.537,575.548c1.579,7.459,37.429,26.38,45.75,18.75C363.52,578.497,307.577,577.489,300.537,575.548z"/>
<path fill-rule="evenodd" clip-rule="evenodd" fill="#BCBEC0" stroke="#000000" stroke-width="2" stroke-linecap="square" stroke-miterlimit="10" d="  M332.787,563.548c-0.5,2.5-1,5-1.5,7.5c9.229,0.757,18.486,1.007,27.75,0.75C357.427,558.84,345.5,559.467,332.787,563.548z"/>
<path fill-rule="evenodd" clip-rule="evenodd" fill="#F6C49D" stroke="#000000" stroke-width="2" stroke-linecap="square" stroke-miterlimit="10" d="  M326.787,285.296c0.5-2.75,1-5.5,1.5-8.25c3.5,1,7,2,10.5,3c7.776-8.458,17.586-4.101,31.5-5.25  C363.746,299.849,336.557,322.331,326.787,285.296z"/>
<path fill-rule="evenodd" clip-rule="evenodd" fill="#0071BC" stroke="#000000" stroke-width="2" stroke-linecap="square" stroke-miterlimit="10" d="  M328.287,277.046c-3.972-31.032,11.029-24.911,45-30.75c-0.176,10.706-3.968,17.736,6,26.25  C367.593,275.68,344.98,274.869,328.287,277.046z"/>
<path fill-rule="evenodd" clip-rule="evenodd" fill="#EAB649" stroke="#000000" stroke-width="2" stroke-linecap="square" stroke-miterlimit="10" d="  M367.287,438.298c-15.627,38.08-21.482,82.421-12.75,119.25c4.841,20.416,9.68,26.018,30.75,28.125  c41.294,4.13,11.724-33.854-4.5-30.375c24.187-20.851,70.578-100.507,36-131.25c5.084-4.889,21.904-15.462,17.273-21.799  c-8.396-11.489-11.623-19.617-27.094-17.407c-17.128,2.447-33.055-2.66-32.735,16.177C374.472,415.188,380,430.625,367.287,438.298z  "/>
<path fill="none" stroke="#000000" stroke-width="2" stroke-linecap="square" stroke-miterlimit="10" d="M388.287,388.046  c17.249,2.925,27.847,11.921,36,27"/>
<path fill="none" stroke="#000000" stroke-width="2" stroke-linecap="square" stroke-miterlimit="10" d="M373.287,393.296  c-27.476,8.784-33.293-29.886-42-48.75"/>
<path fill-rule="evenodd" clip-rule="evenodd" fill="#DCF2FD" stroke="#000000" stroke-width="2" stroke-linecap="square" stroke-miterlimit="10" d="  M393.537,352.796c10.438-16.024,21.638,1.502,33.75,10.5C399.937,395.94,397.224,395.191,393.537,352.796z"/>
<path fill-rule="evenodd" clip-rule="evenodd" fill="#F6C49D" stroke="#000000" stroke-width="2" stroke-linecap="square" stroke-miterlimit="10" d="  M374.787,373.796C416.555,366.615,378.181,410.377,374.787,373.796L374.787,373.796z"/>
<path fill-rule="evenodd" clip-rule="evenodd" fill="#F6C49D" stroke="#000000" stroke-width="2" stroke-linecap="square" stroke-miterlimit="10" d="  M369.537,362.546c1,3.75,2,7.5,3,11.25c4.473,0.865,12.456,2.281,17.25,3c8.937-8.225,9.483-16.129,3.75-24  C385.738,355.965,376.833,358.373,369.537,362.546z"/>
<path fill-rule="evenodd" clip-rule="evenodd" fill="#0071BC" stroke="#000000" stroke-width="2" stroke-linecap="square" stroke-miterlimit="10" d="  M240.537,289.046c-27.605,35.785-24.918,62.49-27.015,107.574c-0.948,20.39-8.239,31.462,13.154,35.15  c17.715,3.054,38.989,7.974,56.986,5.402c15.413-2.202,5.353-58.758,2.625-69.377C277.421,333.287,264.051,314.835,240.537,289.046z  "/>
<path fill-rule="evenodd" clip-rule="evenodd" fill="#6D6F71" stroke="#000000" stroke-width="2" stroke-linecap="square" stroke-miterlimit="10" d="  M222.537,430.798c13.736,4.881,28.956,9.752,43.5,9c-3.853,30.18-27.94,97.816-3.75,122.25c0.327,0.01-44.863,32.357-44.124,8.718  C219.621,524.111,221.079,477.455,222.537,430.798z"/>
<line fill="none" stroke="#000000" stroke-width="2" stroke-linecap="square" stroke-miterlimit="10" x1="248.787" y1="563.548" x2="256.287" y2="517.798"/>
<path fill-rule="evenodd" clip-rule="evenodd" fill="#BCBEC0" stroke="#000000" stroke-width="2" stroke-linecap="square" stroke-miterlimit="10" d="  M216.537,577.798c1.579,7.459,37.429,26.38,45.75,18.75C279.519,580.748,223.551,579.761,216.537,577.798z"/>
<path fill-rule="evenodd" clip-rule="evenodd" fill="#BCBEC0" stroke="#000000" stroke-width="2" stroke-linecap="square" stroke-miterlimit="10" d="  M248.787,565.798c-0.5,2.5-1,5-1.5,7.5c9.229,0.757,18.486,1.007,27.75,0.75C273.427,561.09,261.5,561.717,248.787,565.798z"/>
<path fill-rule="evenodd" clip-rule="evenodd" fill="#F6C49D" stroke="#000000" stroke-width="2" stroke-linecap="square" stroke-miterlimit="10" d="  M242.787,287.546c0.5-2.75,1-5.5,1.5-8.25c3.5,1,7,2,10.5,3c7.776-8.458,17.586-4.101,31.5-5.25  C279.656,302.033,252.586,324.693,242.787,287.546z"/>
<path fill-rule="evenodd" clip-rule="evenodd" fill="#0071BC" stroke="#000000" stroke-width="2" stroke-linecap="square" stroke-miterlimit="10" d="  M244.287,279.296c-3.968-31.066,10.96-24.681,45-30c-2.644,9.264-3.272,18.193,6,25.5  C283.648,278.734,260.637,277.519,244.287,279.296z"/>
<path fill-rule="evenodd" clip-rule="evenodd" fill="#EAB649" stroke="#000000" stroke-width="2" stroke-linecap="square" stroke-miterlimit="10" d="  M283.287,440.548c-15.733,38.338-21.556,82.27-12.75,119.25c4.867,20.44,9.664,26.017,30.75,28.125  c41.294,4.13,11.724-33.854-4.5-30.375c25.401-21.021,69.394-99.323,36-131.25c5.084-4.889,21.904-15.462,17.273-21.799  c-8.396-11.489-11.624-19.617-27.095-17.407c-17.144,2.449-32.928-2.613-32.928,16.177  C290.037,417.093,294.864,432.31,283.287,440.548z"/>
<path fill="none" stroke="#000000" stroke-width="2" stroke-linecap="square" stroke-miterlimit="10" d="M304.287,390.296  c16.737,2.839,28.421,11.47,35.25,27"/>
<path fill="none" stroke="#000000" stroke-width="2" stroke-linecap="square" stroke-miterlimit="10" d="M288.537,395.546  c-26.771,8.558-32.788-30.416-41.25-48.75"/>
<path fill-rule="evenodd" clip-rule="evenodd" fill="#DCF2FD" stroke="#000000" stroke-width="2" stroke-linecap="square" stroke-miterlimit="10" d="  M309.537,355.046c10.325-16.044,21.152,1.439,33,10.5C315.808,398.512,312.294,397.321,309.537,355.046z"/>
<path fill-rule="evenodd" clip-rule="evenodd" fill="#F6C49D" stroke="#000000" stroke-width="2" stroke-linecap="square" stroke-miterlimit="10" d="  M290.787,376.046C331.056,368.252,294.107,413.288,290.787,376.046L290.787,376.046z"/>
<path fill-rule="evenodd" clip-rule="evenodd" fill="#F6C49D" stroke="#000000" stroke-width="2" stroke-linecap="square" stroke-miterlimit="10" d="  M285.537,364.796c1,3.75,2,7.5,3,11.25c4.473,0.865,12.456,2.281,17.25,3c8.937-8.225,9.483-16.129,3.75-24  C301.738,358.215,292.833,360.623,285.537,364.796z"/>
</svg>