<svg xmlns="http://www.w3.org/2000/svg" xmlns:xlink="http://www.w3.org/1999/xlink" version="1.1" id="Layer_1" x="0px" y="0px" enable-background="new 0 0 822.05 841.89" xml:space="preserve" viewBox="307.7 246.31 206.32 348.17">
<path fill-rule="evenodd" clip-rule="evenodd" fill="#0071BC" stroke="#000000" stroke-width="2" stroke-linecap="square" stroke-miterlimit="10" d="  M338.296,287.812c-27.898,35.131-25.095,62.926-27.518,107.572c-1.2,22.113-8.405,30.595,13.656,34.399  c19.095,3.292,37.211,5.777,56.611,5.777c15.772,0,5.547-59.657,2.25-69.748C371.902,330.936,362.868,314.762,338.296,287.812z"/>
<path fill-rule="evenodd" clip-rule="evenodd" fill="#6D6F71" stroke="#000000" stroke-width="2" stroke-linecap="square" stroke-miterlimit="10" d="  M320.296,429.56c13.886,4.156,28.277,7.976,42.75,9c-3.569,29.599-27.264,98.044-3,121.5c0.041,0.005-44.901,33.47-44.124,8.739  C317.38,522.386,318.838,475.973,320.296,429.56z"/>
<line fill="none" stroke="#000000" stroke-width="2" stroke-linecap="square" stroke-miterlimit="10" x1="346.546" y1="561.56" x2="354.046" y2="515.81"/>
<path fill-rule="evenodd" clip-rule="evenodd" fill="#BCBEC0" stroke="#000000" stroke-width="2" stroke-linecap="square" stroke-miterlimit="10" d="  M314.296,575.81c1.91,15.568,38.656,22.891,49.5,13.5C348.038,573.007,333.047,581.726,314.296,575.81z"/>
<path fill-rule="evenodd" clip-rule="evenodd" fill="#BCBEC0" stroke="#000000" stroke-width="2" stroke-linecap="square" stroke-miterlimit="10" d="  M346.546,564.56c-0.5,2.25-1,4.5-1.5,6.75c9.221,1.048,18.479,1.548,27.75,1.5C371.186,559.852,359.258,560.479,346.546,564.56z"/>
<path fill-rule="evenodd" clip-rule="evenodd" fill="#F6C49D" stroke="#000000" stroke-width="2" stroke-linecap="square" stroke-miterlimit="10" d="  M340.546,286.312c0.25-2.75,0.5-5.5,0.75-8.25c13.329-1.703,25.005-0.312,42.75-3C377.04,299.627,351.227,323.979,340.546,286.312z"/>
<path fill-rule="evenodd" clip-rule="evenodd" fill="#0071BC" stroke="#000000" stroke-width="2" stroke-linecap="square" stroke-miterlimit="10" d="  M341.296,278.062c-2.465-30.611,10.502-24.692,45.75-30.75c-2.384,9.303-3.269,18.689,5.25,25.5  C382.042,277.215,357.659,275.973,341.296,278.062z"/>
<path fill-rule="evenodd" clip-rule="evenodd" fill="#EAB649" stroke="#000000" stroke-width="2" stroke-linecap="square" stroke-miterlimit="10" d="  M381.046,439.31c-15.032,34.519-24.43,86.46-12.75,121.5c6.074,18.224,12.361,27.413,33.75,26.25  c36.663-1.993,7.935-33.858-7.5-30.75c24.884-21.449,69.611-99.653,36.002-131.25c4.804-4.996,21.094-16.243,16.641-22.428  c-7.699-10.694-11.703-19.856-26.463-17.446c-17.12,2.795-32.93-1.906-32.93,16.848C387.796,415.856,392.623,431.073,381.046,439.31  z"/>
<path fill="none" stroke="#000000" stroke-width="2" stroke-linecap="square" stroke-miterlimit="10" d="M401.296,389.062  c16.633,2.903,28.165,11.407,36.002,26.25"/>
<path fill-rule="evenodd" clip-rule="evenodd" fill="#ED1C24" stroke="#000000" stroke-width="2" stroke-linecap="square" stroke-miterlimit="10" d="  M437.298,359.062c-0.264-20.32-14.289-68.526,17.625-65.625c14.896,1.354,58.641-7.656,58.092,16.84  c-0.521,23.245-1.04,46.49-1.561,69.735c-0.603,26.917,4.706,28.994-22.805,30.566C446.073,413.011,435.238,402.307,437.298,359.062  z"/>
<line fill="none" stroke="#000000" stroke-width="2" stroke-linecap="square" stroke-miterlimit="10" x1="471.048" y1="295.312" x2="471.048" y2="410.062"/>
<path fill-rule="evenodd" clip-rule="evenodd" fill="#6D6F71" stroke="#000000" stroke-width="2" stroke-linecap="square" stroke-miterlimit="10" d="  M474.048,575.81c-17.519,13.565-10.5-25.829-10.5-37.876c0-28.483,0-56.967,0-85.45c0-10.392-5.296-38.353,0-47.672  c12.416-21.848,10.5,33.999,10.5,37.876C474.048,487.062,474.048,531.436,474.048,575.81z"/>
<path fill-rule="evenodd" clip-rule="evenodd" fill="#FFFFFF" stroke="#000000" stroke-width="2" stroke-linecap="square" stroke-miterlimit="10" d="  M443.298,317.062c7.949-0.426,10.94-6.122,19.5,0C460.199,301.861,447.162,306.138,443.298,317.062z"/>
<path fill="none" stroke="#000000" stroke-width="2" stroke-linecap="square" stroke-miterlimit="10" d="M386.296,393.562  c-27.362,8.753-32.724-29.184-41.25-48"/>
<path fill-rule="evenodd" clip-rule="evenodd" fill="#DCF2FD" stroke="#000000" stroke-width="2" stroke-linecap="square" stroke-miterlimit="10" d="  M407.296,353.812c2.5-3.25,5.001-6.5,7.502-9.75c8.5,6.75,17,13.5,25.5,20.25C413.568,397.278,410.053,396.087,407.296,353.812z"/>
<path fill-rule="evenodd" clip-rule="evenodd" fill="#F6C49D" stroke="#000000" stroke-width="2" stroke-linecap="square" stroke-miterlimit="10" d="  M388.546,374.812C429.086,367.285,391.821,411.556,388.546,374.812L388.546,374.812z"/>
<path fill-rule="evenodd" clip-rule="evenodd" fill="#F6C49D" stroke="#000000" stroke-width="2" stroke-linecap="square" stroke-miterlimit="10" d="  M383.296,363.562c1,3.75,2,7.5,3,11.25c5.363,0.96,10.992,1.615,17.25,3c2.586-2.38,8.532-10.777,9.752-14.25  c-1.137-2.106-4.851-8.17-6.002-9.75C399.497,356.98,390.591,359.388,383.296,363.562z"/>
</svg>