<svg xmlns="http://www.w3.org/2000/svg" xmlns:xlink="http://www.w3.org/1999/xlink" version="1.1" id="Layer_1" x="0px" y="0px" enable-background="new 0 0 822.05 841.89" xml:space="preserve" viewBox="312.84 353.58 194.99 138.3">
<path fill-rule="evenodd" clip-rule="evenodd" fill="#DDB55E" stroke="#000000" stroke-width="1.25" stroke-linecap="square" stroke-miterlimit="10" d="  M389.627,356.769c41.703-5.516,101.228-6.452,115.502,43.5c12.834,44.911-36.257,86.349-76.5,90.373  c-38.785,3.879-105.601-10.185-114.002-54.375C305.8,389.837,349.049,363.232,389.627,356.769z"/>
<path fill-rule="evenodd" clip-rule="evenodd" fill="#AC792F" d="M448.879,375.519c-0.526-0.089-1.665,4.532-3.75,0  C447.402,369.052,447.544,375.292,448.879,375.519z"/>
<path fill-rule="evenodd" clip-rule="evenodd" fill="#AC792F" d="M370.877,425.017C375.955,426.113,377.413,426.427,370.877,425.017  L370.877,425.017z"/>
<path fill-rule="evenodd" clip-rule="evenodd" fill="#AC792F" d="M373.127,412.269C375.932,412.485,375.76,412.472,373.127,412.269  L373.127,412.269z"/>
<path fill-rule="evenodd" clip-rule="evenodd" fill="#AC792F" d="M359.627,416.019c1.834-0.207,2.76,4.401,5.25,0  C362.285,409.889,361.906,415.762,359.627,416.019z"/>
<path fill-rule="evenodd" clip-rule="evenodd" fill="#AC792F" d="M363.377,435.517C363.132,437.381,362.889,439.231,363.377,435.517  L363.377,435.517z"/>
<path fill-rule="evenodd" clip-rule="evenodd" fill="#AC792F" d="M350.627,422.019C350.35,421.672,354.065,426.331,350.627,422.019  L350.627,422.019z"/>
<path fill-rule="evenodd" clip-rule="evenodd" fill="#AC792F" d="M347.627,428.017C347.973,428.659,348.514,429.661,347.627,428.017  L347.627,428.017z"/>
<path fill-rule="evenodd" clip-rule="evenodd" fill="#AC792F" d="M352.127,435.517C351.787,437.97,351.75,438.233,352.127,435.517  L352.127,435.517z"/>
<path fill-rule="evenodd" clip-rule="evenodd" fill="#AC792F" d="M355.877,428.767C355.877,429.887,355.877,429.887,355.877,428.767  L355.877,428.767z"/>
<path fill-rule="evenodd" clip-rule="evenodd" fill="#AC792F" d="M388.877,395.769C386.21,395.769,391.543,395.769,388.877,395.769  L388.877,395.769z"/>
<path fill-rule="evenodd" clip-rule="evenodd" fill="#AC792F" d="M372.377,378.519C372.377,381.137,372.377,381.137,372.377,378.519  L372.377,378.519z"/>
<path fill-rule="evenodd" clip-rule="evenodd" fill="#AC792F" d="M382.877,379.269C382.273,379.873,382.273,379.873,382.877,379.269  L382.877,379.269z"/>
<path fill-rule="evenodd" clip-rule="evenodd" fill="#AC792F" d="M385.877,383.019C385.528,384.462,385.428,384.877,385.877,383.019  L385.877,383.019z"/>
<path fill-rule="evenodd" clip-rule="evenodd" fill="#AC792F" d="M389.627,380.019C389.627,381.139,389.627,381.139,389.627,380.019  L389.627,380.019z"/>
<path fill-rule="evenodd" clip-rule="evenodd" fill="#AC792F" d="M366.377,381.519C366.377,383.166,366.377,383.166,366.377,381.519  L366.377,381.519z"/>
<path fill-rule="evenodd" clip-rule="evenodd" fill="#AC792F" d="M358.877,384.519C358.877,387.308,358.877,387.308,358.877,384.519  L358.877,384.519z"/>
<path fill-rule="evenodd" clip-rule="evenodd" fill="#AC792F" d="M357.377,389.769C357.377,392.311,357.377,392.311,357.377,389.769  L357.377,389.769z"/>
<path fill-rule="evenodd" clip-rule="evenodd" fill="#AC792F" d="M361.127,394.269C361.127,394.806,361.127,394.806,361.127,394.269  L361.127,394.269z"/>
<path fill-rule="evenodd" clip-rule="evenodd" fill="#AC792F" d="M373.877,416.769C373.675,420.805,373.668,420.938,373.877,416.769  L373.877,416.769z"/>
<path fill-rule="evenodd" clip-rule="evenodd" fill="#AC792F" d="M368.627,413.769C368.278,415.212,368.178,415.627,368.627,413.769  L368.627,413.769z"/>
<path fill-rule="evenodd" clip-rule="evenodd" fill="#AC792F" d="M385.127,443.017C385.343,445.854,385.341,445.832,385.127,443.017  L385.127,443.017z"/>
<path fill-rule="evenodd" clip-rule="evenodd" fill="#AC792F" d="M379.127,422.019C377.314,426.133,379.112,422.052,379.127,422.019  L379.127,422.019z"/>
<path fill-rule="evenodd" clip-rule="evenodd" fill="#AC792F" d="M375.377,425.017C374.773,425.621,374.773,425.621,375.377,425.017  L375.377,425.017z"/>
<path fill-rule="evenodd" clip-rule="evenodd" fill="#AC792F" d="M380.627,425.767C382.271,426.654,381.269,426.113,380.627,425.767  L380.627,425.767z"/>
<path fill-rule="evenodd" clip-rule="evenodd" fill="#AC792F" d="M374.627,431.767C374.627,433.415,374.627,433.415,374.627,431.767  L374.627,431.767z"/>
<path fill-rule="evenodd" clip-rule="evenodd" fill="#AC792F" d="M379.127,431.767C378.523,432.371,378.523,432.371,379.127,431.767  L379.127,431.767z"/>
<path fill-rule="evenodd" clip-rule="evenodd" fill="#AC792F" d="M368.627,410.769C368.125,412.851,368.205,412.519,368.627,410.769  L368.627,410.769z"/>
<path fill-rule="evenodd" clip-rule="evenodd" fill="#AC792F" d="M418.129,377.769C416.028,376.802,422.208,379.647,418.129,377.769  L418.129,377.769z"/>
<path fill-rule="evenodd" clip-rule="evenodd" fill="#AC792F" d="M411.377,371.019C411.582,372.539,411.639,372.967,411.377,371.019  L411.377,371.019z"/>
<path fill-rule="evenodd" clip-rule="evenodd" fill="#AC792F" d="M406.877,372.519C406.877,373.639,406.877,373.639,406.877,372.519  L406.877,372.519z"/>
<path fill-rule="evenodd" clip-rule="evenodd" fill="#AC792F" d="M394.877,366.519C394.877,368.166,394.877,368.166,394.877,366.519  L394.877,366.519z"/>
<path fill-rule="evenodd" clip-rule="evenodd" fill="#AC792F" d="M387.377,371.769C386.142,370.794,390.196,373.995,387.377,371.769  L387.377,371.769z"/>
<path fill-rule="evenodd" clip-rule="evenodd" fill="#AC792F" d="M337.877,454.267C338.627,455.696,338.851,456.124,337.877,454.267  L337.877,454.267z"/>
<path fill-rule="evenodd" clip-rule="evenodd" fill="#AC792F" d="M334.127,453.517c1.653,2.022-0.483,4.664,3.75,4.5  C338.57,452.244,335.739,455.49,334.127,453.517z"/>
<path fill-rule="evenodd" clip-rule="evenodd" fill="#AC792F" d="M335.627,459.517C335.627,460.517,335.627,460.517,335.627,459.517  L335.627,459.517z"/>
<path fill-rule="evenodd" clip-rule="evenodd" fill="#AC792F" d="M328.127,449.017C330.247,451.276,330.663,451.719,328.127,449.017  L328.127,449.017z"/>
<path fill-rule="evenodd" clip-rule="evenodd" fill="#AC792F" d="M328.877,455.017C330.437,457.816,330.296,457.564,328.877,455.017  L328.877,455.017z"/>
<path fill-rule="evenodd" clip-rule="evenodd" fill="#AC792F" d="M330.377,462.517C331.201,463.34,331.201,463.34,330.377,462.517  L330.377,462.517z"/>
<path fill-rule="evenodd" clip-rule="evenodd" fill="#AC792F" d="M335.627,464.017C336.803,464.488,336.803,464.488,335.627,464.017  L335.627,464.017z"/>
<path fill-rule="evenodd" clip-rule="evenodd" fill="#AC792F" d="M338.627,460.267C340.77,462.891,340.303,462.32,338.627,460.267  L338.627,460.267z"/>
<path fill-rule="evenodd" clip-rule="evenodd" fill="#AC792F" d="M339.377,455.767C341.233,456.741,340.806,456.517,339.377,455.767  L339.377,455.767z"/>
<path fill-rule="evenodd" clip-rule="evenodd" fill="#AC792F" d="M333.377,449.767C332.553,448.944,332.553,448.944,333.377,449.767  L333.377,449.767z"/>
<path fill-rule="evenodd" clip-rule="evenodd" fill="#AC792F" d="M334.127,456.517C334.618,459.537,334.27,457.394,334.127,456.517  L334.127,456.517z"/>
<path fill-rule="evenodd" clip-rule="evenodd" fill="#AC792F" d="M330.377,458.017C333.47,460.734,332.623,459.99,330.377,458.017  L330.377,458.017z"/>
<path fill-rule="evenodd" clip-rule="evenodd" fill="#AC792F" d="M331.877,454.267C334.83,457.097,334.057,456.357,331.877,454.267  L331.877,454.267z"/>
<path fill-rule="evenodd" clip-rule="evenodd" fill="#AC792F" d="M336.377,455.017C339.48,458.595,338.688,457.682,336.377,455.017  L336.377,455.017z"/>
<path fill-rule="evenodd" clip-rule="evenodd" fill="#AC792F" d="M338.627,460.267C340.141,462.885,340.141,462.885,338.627,460.267  L338.627,460.267z"/>
<path fill-rule="evenodd" clip-rule="evenodd" fill="#AC792F" d="M334.877,464.767C337.917,467.574,338.312,467.938,334.877,464.767  L334.877,464.767z"/>
<path fill-rule="evenodd" clip-rule="evenodd" fill="#AC792F" d="M328.877,457.267C332.837,462.529,332.643,462.27,328.877,457.267  L328.877,457.267z"/>
<path fill-rule="evenodd" clip-rule="evenodd" fill="#AC792F" d="M323.627,452.767C323.884,453.341,324.177,453.997,323.627,452.767  L323.627,452.767z"/>
<path fill-rule="evenodd" clip-rule="evenodd" fill="#AC792F" d="M325.877,458.017C327.077,460.326,327.36,460.87,325.877,458.017  L325.877,458.017z"/>
<path fill-rule="evenodd" clip-rule="evenodd" fill="#AC792F" d="M350.627,452.017C351.249,453.403,352.331,455.818,350.627,452.017  L350.627,452.017z"/>
<path fill-rule="evenodd" clip-rule="evenodd" fill="#AC792F" d="M325.127,452.767C327.685,456.915,327.881,457.233,325.127,452.767  L325.127,452.767z"/>
<path fill-rule="evenodd" clip-rule="evenodd" fill="#AC792F" d="M325.127,446.017C325.875,447.174,325.91,447.229,325.127,446.017  L325.127,446.017z"/>
<path fill-rule="evenodd" clip-rule="evenodd" fill="#AC792F" d="M323.627,440.017c1.356,1.911-2.125,4.777,3,4.5  C329.406,439.123,325.037,442.004,323.627,440.017z"/>
<path fill-rule="evenodd" clip-rule="evenodd" fill="#AC792F" d="M334.127,448.267C334.642,451.17,334.185,448.593,334.127,448.267  L334.127,448.267z"/>
<path fill-rule="evenodd" clip-rule="evenodd" fill="#AC792F" d="M337.877,443.767c1.161,1.393-1.701,4.087,3,3.75  C342.502,442.693,338.679,444.729,337.877,443.767z"/>
<path fill-rule="evenodd" clip-rule="evenodd" fill="#AC792F" d="M330.377,442.267C331.523,444.914,331.549,444.974,330.377,442.267  L330.377,442.267z"/>
<path fill-rule="evenodd" clip-rule="evenodd" fill="#AC792F" d="M322.127,434.767C326.181,439.31,325.666,438.734,322.127,434.767  L322.127,434.767z"/>
<path fill-rule="evenodd" clip-rule="evenodd" fill="#AC792F" d="M322.877,430.267C324.256,432.17,323.844,431.601,322.877,430.267  L322.877,430.267z"/>
<path fill-rule="evenodd" clip-rule="evenodd" fill="#AC792F" d="M323.627,429.517C327.271,433.714,327.092,433.507,323.627,429.517  L323.627,429.517z"/>
<path fill-rule="evenodd" clip-rule="evenodd" fill="#AC792F" d="M324.377,435.517C326.692,438.294,326.571,438.149,324.377,435.517  L324.377,435.517z"/>
<path fill-rule="evenodd" clip-rule="evenodd" fill="#AC792F" d="M320.627,441.517C317.96,444.184,323.293,438.85,320.627,441.517  L320.627,441.517z"/>
<path fill-rule="evenodd" clip-rule="evenodd" fill="#AC792F" d="M373.127,447.517C369.832,452.559,373.363,447.156,373.127,447.517  L373.127,447.517z"/>
<path fill-rule="evenodd" clip-rule="evenodd" fill="#AC792F" d="M392.627,450.517C392.627,451.054,392.627,451.054,392.627,450.517  L392.627,450.517z"/>
<path fill-rule="evenodd" clip-rule="evenodd" fill="#AC792F" d="M391.127,439.267C397.402,438.093,395.84,438.386,391.127,439.267  L391.127,439.267z"/>
<path fill-rule="evenodd" clip-rule="evenodd" fill="#AC792F" d="M382.877,479.767C379.479,480.994,378.447,481.366,382.877,479.767  L382.877,479.767z"/>
<path fill-rule="evenodd" clip-rule="evenodd" fill="#AC792F" d="M388.127,473.767C386.48,473.767,386.48,473.767,388.127,473.767  L388.127,473.767z"/>
<path fill-rule="evenodd" clip-rule="evenodd" fill="#AC792F" d="M382.127,469.267C382.127,466.6,382.127,471.934,382.127,469.267  L382.127,469.267z"/>
<path fill-rule="evenodd" clip-rule="evenodd" fill="#AC792F" d="M430.129,371.769C431.129,371.769,431.129,371.769,430.129,371.769  L430.129,371.769z"/>
<path fill-rule="evenodd" clip-rule="evenodd" fill="#AC792F" d="M424.879,375.519C425.416,375.519,425.416,375.519,424.879,375.519  L424.879,375.519z"/>
<path fill-rule="evenodd" clip-rule="evenodd" fill="#AC792F" d="M416.629,373.269C418.276,373.269,418.276,373.269,416.629,373.269  L416.629,373.269z"/>
<path fill-rule="evenodd" clip-rule="evenodd" fill="#AC792F" d="M426.379,363.519C429.193,363.733,429.216,363.735,426.379,363.519  L426.379,363.519z"/>
<path fill-rule="evenodd" clip-rule="evenodd" fill="#AC792F" d="M442.879,378.519C442.879,379.792,442.879,379.792,442.879,378.519  L442.879,378.519z"/>
<path fill-rule="evenodd" clip-rule="evenodd" fill="#AC792F" d="M382.877,407.019C382.877,408.719,382.877,408.719,382.877,407.019  L382.877,407.019z"/>
<path fill-rule="evenodd" clip-rule="evenodd" fill="#AC792F" d="M433.879,374.019C429.246,377.685,436.812,371.698,433.879,374.019  L433.879,374.019z"/>
<path fill-rule="evenodd" clip-rule="evenodd" fill="#AC792F" d="M358.877,438.517C359.025,438.75,359.819,440,358.877,438.517  L358.877,438.517z"/>
<path fill-rule="evenodd" clip-rule="evenodd" fill="#AC792F" d="M376.877,409.269C376.877,410.916,376.877,410.916,376.877,409.269  L376.877,409.269z"/>
<path fill-rule="evenodd" clip-rule="evenodd" fill="#AC792F" d="M348.377,384.519C340.782,384.519,353.809,384.519,348.377,384.519  L348.377,384.519z"/>
<path fill-rule="evenodd" clip-rule="evenodd" fill="#AC792F" d="M346.127,396.519C346.473,395.877,347.014,394.875,346.127,396.519  L346.127,396.519z"/>
<path fill-rule="evenodd" clip-rule="evenodd" fill="#AC792F" d="M347.627,403.269C348.022,402.03,348.324,401.082,347.627,403.269  L347.627,403.269z"/>
<path fill-rule="evenodd" clip-rule="evenodd" fill="#AC792F" d="M352.127,416.019C352.199,414.312,352.267,412.716,352.127,416.019  L352.127,416.019z"/>
<path fill-rule="evenodd" clip-rule="evenodd" fill="#AC792F" d="M351.377,395.769C351.377,394.122,351.377,394.122,351.377,395.769  L351.377,395.769z"/>
<path fill-rule="evenodd" clip-rule="evenodd" fill="#AC792F" d="M364.127,425.767c2.446,0.488,2.597,6.284,6,0  C367.214,422.98,365.88,426.118,364.127,425.767z"/>
<path fill-rule="evenodd" clip-rule="evenodd" fill="#AC792F" d="M438.379,395.019C439.6,397.843,440.668,400.315,438.379,395.019  L438.379,395.019z"/>
<path fill-rule="evenodd" clip-rule="evenodd" fill="#AC792F" d="M352.127,433.267C351.814,435.208,351.65,436.225,352.127,433.267  L352.127,433.267z"/>
<path fill-rule="evenodd" clip-rule="evenodd" fill="#AC792F" d="M352.127,426.517C352.127,427.637,352.127,427.637,352.127,426.517  L352.127,426.517z"/>
<path fill-rule="evenodd" clip-rule="evenodd" fill="#AC792F" d="M355.877,430.267C356.326,432.125,356.226,431.71,355.877,430.267  L355.877,430.267z"/>
<path fill-rule="evenodd" clip-rule="evenodd" fill="#AC792F" d="M358.877,428.017C358.877,428.554,358.877,428.554,358.877,428.017  L358.877,428.017z"/>
<path fill-rule="evenodd" clip-rule="evenodd" fill="#AC792F" d="M345.377,436.267C345.98,436.871,345.98,436.871,345.377,436.267  L345.377,436.267z"/>
<path fill-rule="evenodd" clip-rule="evenodd" fill="#AC792F" d="M391.127,416.019C391.127,417.666,391.127,417.666,391.127,416.019  L391.127,416.019z"/>
<path fill-rule="evenodd" clip-rule="evenodd" fill="#AC792F" d="M373.877,427.267C372.987,429.819,373.663,427.881,373.877,427.267  L373.877,427.267z"/>
<path fill-rule="evenodd" clip-rule="evenodd" fill="#AC792F" d="M388.877,425.017C388.877,426.137,388.877,426.137,388.877,425.017  L388.877,425.017z"/>
<path fill-rule="evenodd" clip-rule="evenodd" fill="#AC792F" d="M382.127,417.519C382.343,420.356,382.341,420.333,382.127,417.519  L382.127,417.519z"/>
<path fill-rule="evenodd" clip-rule="evenodd" fill="#AC792F" d="M376.877,420.519C376.877,421.056,376.877,421.056,376.877,420.519  L376.877,420.519z"/>
<path fill-rule="evenodd" clip-rule="evenodd" fill="#AC792F" d="M364.877,414.519C364.18,416.707,364.482,415.758,364.877,414.519  L364.877,414.519z"/>
<path fill-rule="evenodd" clip-rule="evenodd" fill="#AC792F" d="M357.377,418.269C357.377,419.389,357.377,419.389,357.377,418.269  L357.377,418.269z"/>
<path fill-rule="evenodd" clip-rule="evenodd" fill="#AC792F" d="M346.877,422.019C342.234,425.682,349.818,419.698,346.877,422.019  L346.877,422.019z"/>
<path fill-rule="evenodd" clip-rule="evenodd" fill="#AC792F" d="M364.877,476.017C362.424,475.677,362.161,475.64,364.877,476.017  L364.877,476.017z"/>
<path fill-rule="evenodd" clip-rule="evenodd" fill="#AC792F" d="M367.127,473.767C360.326,473.767,360.326,473.767,367.127,473.767  L367.127,473.767z"/>
<path fill-rule="evenodd" clip-rule="evenodd" fill="#AC792F" d="M362.627,471.517C362.023,472.121,362.023,472.121,362.627,471.517  L362.627,471.517z"/>
<path fill-rule="evenodd" clip-rule="evenodd" fill="#AC792F" d="M374.627,473.017C372.067,473.017,372.067,473.017,374.627,473.017  L374.627,473.017z"/>
<path fill-rule="evenodd" clip-rule="evenodd" fill="#AC792F" d="M370.877,470.017C366.467,470.41,367.042,470.359,370.877,470.017  L370.877,470.017z"/>
<path fill-rule="evenodd" clip-rule="evenodd" fill="#AC792F" d="M363.377,468.517C361.519,468.966,361.934,468.866,363.377,468.517  L363.377,468.517z"/>
<path fill-rule="evenodd" clip-rule="evenodd" fill="#AC792F" d="M358.877,470.767C357.23,470.767,357.23,470.767,358.877,470.767  L358.877,470.767z"/>
<path fill-rule="evenodd" clip-rule="evenodd" fill="#AC792F" d="M359.627,473.767C357.174,473.427,356.911,473.39,359.627,473.767  L359.627,473.767z"/>
<path fill-rule="evenodd" clip-rule="evenodd" fill="#AC792F" d="M362.627,476.017C360.98,476.017,360.98,476.017,362.627,476.017  L362.627,476.017z"/>
<path fill-rule="evenodd" clip-rule="evenodd" fill="#AC792F" d="M371.627,475.267C372.164,475.267,372.164,475.267,371.627,475.267  L371.627,475.267z"/>
<path fill-rule="evenodd" clip-rule="evenodd" fill="#AC792F" d="M365.627,473.017C363.98,473.017,363.98,473.017,365.627,473.017  L365.627,473.017z"/>
<path fill-rule="evenodd" clip-rule="evenodd" fill="#AC792F" d="M367.127,470.767C363.292,470.425,362.717,470.375,367.127,470.767  L367.127,470.767z"/>
<path fill-rule="evenodd" clip-rule="evenodd" fill="#AC792F" d="M369.377,473.017C364.967,473.41,365.542,473.359,369.377,473.017  L369.377,473.017z"/>
<path fill-rule="evenodd" clip-rule="evenodd" fill="#AC792F" d="M365.627,474.517C361.698,474.721,361.815,474.715,365.627,474.517  L365.627,474.517z"/>
<path fill-rule="evenodd" clip-rule="evenodd" fill="#AC792F" d="M359.627,473.767C357.086,473.767,357.086,473.767,359.627,473.767  L359.627,473.767z"/>
<path fill-rule="evenodd" clip-rule="evenodd" fill="#AC792F" d="M358.877,470.017C354.169,469.922,353.612,469.912,358.877,470.017  L358.877,470.017z"/>
<path fill-rule="evenodd" clip-rule="evenodd" fill="#AC792F" d="M367.877,469.267C361.537,469.267,361.537,469.267,367.877,469.267  L367.877,469.267z"/>
<path fill-rule="evenodd" clip-rule="evenodd" fill="#AC792F" d="M375.377,468.517C373.519,468.966,373.934,468.866,375.377,468.517  L375.377,468.517z"/>
<path fill-rule="evenodd" clip-rule="evenodd" fill="#AC792F" d="M370.127,467.767C364.917,468.251,367.386,468.022,370.127,467.767  L370.127,467.767z"/>
<path fill-rule="evenodd" clip-rule="evenodd" fill="#AC792F" d="M365.627,466.267C363.24,466.267,363.24,466.267,365.627,466.267  L365.627,466.267z"/>
<path fill-rule="evenodd" clip-rule="evenodd" fill="#AC792F" d="M374.627,469.267C368.967,469.915,371.71,469.601,374.627,469.267  L374.627,469.267z"/>
<path fill-rule="evenodd" clip-rule="evenodd" fill="#AC792F" d="M379.877,473.017C378.757,473.017,378.757,473.017,379.877,473.017  L379.877,473.017z"/>
<path fill-rule="evenodd" clip-rule="evenodd" fill="#AC792F" d="M385.127,474.517C380.285,474.005,378.488,473.815,385.127,474.517  L385.127,474.517z"/>
<path fill-rule="evenodd" clip-rule="evenodd" fill="#AC792F" d="M372.377,476.017C371.257,476.017,371.257,476.017,372.377,476.017  L372.377,476.017z"/>
<path fill-rule="evenodd" clip-rule="evenodd" fill="#AC792F" d="M370.877,476.017C366.104,476.017,366.104,476.017,370.877,476.017  L370.877,476.017z"/>
<path fill-rule="evenodd" clip-rule="evenodd" fill="#AC792F" d="M379.877,476.017C375.713,476.936,375.795,476.917,379.877,476.017  L379.877,476.017z"/>
<path fill-rule="evenodd" clip-rule="evenodd" fill="#AC792F" d="M390.377,475.267C384.976,475.655,385.725,475.601,390.377,475.267  L390.377,475.267z"/>
<path fill-rule="evenodd" clip-rule="evenodd" fill="#AC792F" d="M393.377,477.517C391.934,477.168,391.519,477.068,393.377,477.517  L393.377,477.517z"/>
<path fill-rule="evenodd" clip-rule="evenodd" fill="#AC792F" d="M393.377,479.017C390.46,478.683,387.717,478.37,393.377,479.017  L393.377,479.017z"/>
<path fill-rule="evenodd" clip-rule="evenodd" fill="#AC792F" d="M388.877,476.017C386.265,476.618,385.842,476.715,388.877,476.017  L388.877,476.017z"/>
<path fill-rule="evenodd" clip-rule="evenodd" fill="#AC792F" d="M385.877,471.517C385.34,471.517,385.34,471.517,385.877,471.517  L385.877,471.517z"/>
<path fill-rule="evenodd" clip-rule="evenodd" fill="#AC792F" d="M361.877,485.767C361.877,484.767,361.877,484.767,361.877,485.767  L361.877,485.767z"/>
<path fill-rule="evenodd" clip-rule="evenodd" fill="#AC792F" d="M387.377,421.269C389.235,420.82,388.82,420.92,387.377,421.269  L387.377,421.269z"/>
<path fill-rule="evenodd" clip-rule="evenodd" fill="#AC792F" d="M373.127,404.019C368.293,404.019,375.844,404.019,373.127,404.019  L373.127,404.019z"/>
<path fill-rule="evenodd" clip-rule="evenodd" fill="#AC792F" d="M380.627,422.019C380.023,421.416,380.023,421.416,380.627,422.019  L380.627,422.019z"/>
<path fill-rule="evenodd" clip-rule="evenodd" fill="#AC792F" d="M382.127,428.767C382.148,428.719,383.293,426.167,382.127,428.767  L382.127,428.767z"/>
<path fill-rule="evenodd" clip-rule="evenodd" fill="#AC792F" d="M376.877,434.017C376.877,432.37,376.877,432.37,376.877,434.017  L376.877,434.017z"/>
<path fill-rule="evenodd" clip-rule="evenodd" fill="#AC792F" d="M385.127,421.269C385.127,420.269,385.127,420.269,385.127,421.269  L385.127,421.269z"/>
<path fill-rule="evenodd" clip-rule="evenodd" fill="#AC792F" d="M348.377,431.017C342.543,432.758,341.795,432.981,348.377,431.017  L348.377,431.017z"/>
<path fill-rule="evenodd" clip-rule="evenodd" fill="#AC792F" d="M353.627,416.769C352.902,412.679,353.022,413.355,353.627,416.769  L353.627,416.769z"/>
<path fill-rule="evenodd" clip-rule="evenodd" fill="#AC792F" d="M345.377,434.017c-0.723-1.727,3.595-3.969-1.5-4.5  C339.801,433.477,344.677,432.346,345.377,434.017z"/>
<path fill-rule="evenodd" clip-rule="evenodd" fill="#AC792F" d="M397.127,387.519C396.65,384.561,396.814,385.578,397.127,387.519  L397.127,387.519z"/>
<path fill-rule="evenodd" clip-rule="evenodd" fill="#AC792F" d="M353.627,425.017C353.362,423.115,352.788,418.985,353.627,425.017  L353.627,425.017z"/>
<path fill-rule="evenodd" clip-rule="evenodd" fill="#AC792F" d="M396.377,403.269c-0.962-2.585,2.679-4.671-2.25-6  C391.254,402.121,395.465,400.819,396.377,403.269z"/>
<path fill-rule="evenodd" clip-rule="evenodd" fill="#AC792F" d="M473.629,379.269C473.629,377.622,473.629,377.622,473.629,379.269  L473.629,379.269z"/>
<path fill-rule="evenodd" clip-rule="evenodd" fill="#AC792F" d="M407.627,396.519C406.478,391.724,406.972,393.789,407.627,396.519  L407.627,396.519z"/>
<path fill-rule="evenodd" clip-rule="evenodd" fill="#AC792F" d="M475.129,379.269C474.195,375.031,474.213,375.114,475.129,379.269  L475.129,379.269z"/>
<path fill-rule="evenodd" clip-rule="evenodd" fill="#AC792F" d="M412.127,400.269C411.309,394.831,411.37,395.236,412.127,400.269  L412.127,400.269z"/>
<path fill-rule="evenodd" clip-rule="evenodd" fill="#AC792F" d="M409.127,404.019c-0.487-1.785,3.82-3.793-1.5-5.25  C403.027,402.966,408.522,401.804,409.127,404.019z"/>
<path fill-rule="evenodd" clip-rule="evenodd" fill="#AC792F" d="M386.627,398.019C384.43,392.487,384.799,393.417,386.627,398.019  L386.627,398.019z"/>
<path fill-rule="evenodd" clip-rule="evenodd" fill="#AC792F" d="M370.877,430.267C370.265,425.082,370.662,428.445,370.877,430.267  L370.877,430.267z"/>
<path fill-rule="evenodd" clip-rule="evenodd" fill="#AC792F" d="M365.627,429.517C365.066,427.627,364.792,426.705,365.627,429.517  L365.627,429.517z"/>
<path fill-rule="evenodd" clip-rule="evenodd" fill="#AC792F" d="M373.877,428.767C373.537,426.297,373.751,427.856,373.877,428.767  L373.877,428.767z"/>
<path fill-rule="evenodd" clip-rule="evenodd" fill="#AC792F" d="M367.877,431.767C368.779,432.839,363.24,426.258,367.877,431.767  L367.877,431.767z"/>
<path fill-rule="evenodd" clip-rule="evenodd" fill="#AC792F" d="M373.127,440.767c-0.82-1.845,4.198-4.136-1.5-3.75  C367.676,440.425,372.435,439.211,373.127,440.767z"/>
<path fill-rule="evenodd" clip-rule="evenodd" fill="#AC792F" d="M367.877,441.517c-0.534-1.365,4.194-3.545-1.5-3.75  C361.988,441.804,367.283,439.998,367.877,441.517z"/>
<path fill-rule="evenodd" clip-rule="evenodd" fill="#AC792F" d="M364.127,438.517C363.87,437.943,363.577,437.288,364.127,438.517  L364.127,438.517z"/>
<path fill-rule="evenodd" clip-rule="evenodd" fill="#AC792F" d="M358.877,437.767C358.532,436.942,357.874,435.369,358.877,437.767  L358.877,437.767z"/>
<path fill-rule="evenodd" clip-rule="evenodd" fill="#AC792F" d="M361.877,433.267C361.877,432.73,361.877,432.73,361.877,433.267  L361.877,433.267z"/>
<path fill-rule="evenodd" clip-rule="evenodd" fill="#AC792F" d="M362.627,426.517C362.627,425.397,362.627,425.397,362.627,426.517  L362.627,426.517z"/>
<path fill-rule="evenodd" clip-rule="evenodd" fill="#AC792F" d="M368.627,422.767C368.627,421.123,368.627,421.123,368.627,422.767  L368.627,422.767z"/>
<path fill-rule="evenodd" clip-rule="evenodd" fill="#AC792F" d="M355.127,440.017C350.6,439.52,349.207,439.367,355.127,440.017  L355.127,440.017z"/>
<path fill-rule="evenodd" clip-rule="evenodd" fill="#AC792F" d="M382.127,419.019C382.772,419.647,376.663,413.697,382.127,419.019  L382.127,419.019z"/>
<path fill-rule="evenodd" clip-rule="evenodd" fill="#AC792F" d="M348.377,440.767C346.868,435.52,347.437,437.498,348.377,440.767  L348.377,440.767z"/>
<path fill-rule="evenodd" clip-rule="evenodd" fill="#AC792F" d="M349.877,424.267C349.877,423.267,349.877,423.267,349.877,424.267  L349.877,424.267z"/>
<path fill-rule="evenodd" clip-rule="evenodd" fill="#AC792F" d="M353.627,413.019C348.424,405.836,356.162,416.519,353.627,413.019  L353.627,413.019z"/>
<path fill-rule="evenodd" clip-rule="evenodd" fill="#AC792F" d="M362.627,383.769C361.401,386.331,360.326,388.577,362.627,383.769  L362.627,383.769z"/>
<path fill-rule="evenodd" clip-rule="evenodd" fill="#AC792F" d="M360.377,383.019C358.244,385.509,357.908,385.902,360.377,383.019  L360.377,383.019z"/>
<path fill-rule="evenodd" clip-rule="evenodd" fill="#AC792F" d="M364.127,379.269C361.96,380.842,363.196,379.945,364.127,379.269  L364.127,379.269z"/>
<path fill-rule="evenodd" clip-rule="evenodd" fill="#AC792F" d="M366.377,382.269C363.968,384.984,364,384.949,366.377,382.269  L366.377,382.269z"/>
<path fill-rule="evenodd" clip-rule="evenodd" fill="#AC792F" d="M371.627,384.519C368.163,389.223,368.548,388.7,371.627,384.519  L371.627,384.519z"/>
<path fill-rule="evenodd" clip-rule="evenodd" fill="#AC792F" d="M352.877,392.769C351.651,395.331,350.576,397.577,352.877,392.769  L352.877,392.769z"/>
<path fill-rule="evenodd" clip-rule="evenodd" fill="#AC792F" d="M350.627,383.769C349.803,384.593,349.803,384.593,350.627,383.769  L350.627,383.769z"/>
<path fill-rule="evenodd" clip-rule="evenodd" fill="#AC792F" d="M343.127,385.269C342.127,385.269,342.127,385.269,343.127,385.269  L343.127,385.269z"/>
<path fill-rule="evenodd" clip-rule="evenodd" fill="#AC792F" d="M368.627,387.519C366.168,389.978,366.168,389.978,368.627,387.519  L368.627,387.519z"/>
<path fill-rule="evenodd" clip-rule="evenodd" fill="#AC792F" d="M336.377,401.769C335.403,403.625,335.627,403.198,336.377,401.769  L336.377,401.769z"/>
<path fill-rule="evenodd" clip-rule="evenodd" fill="#AC792F" d="M337.127,398.019c-1.748,1.695-4.479,0.373-4.5,4.5  C335.939,402.252,335.292,399.798,337.127,398.019z"/>
<path fill-rule="evenodd" clip-rule="evenodd" fill="#AC792F" d="M331.877,401.019C332.223,401.661,332.764,402.663,331.877,401.019  L331.877,401.019z"/>
<path fill-rule="evenodd" clip-rule="evenodd" fill="#AC792F" d="M341.627,392.769C339.168,395.228,339.168,395.228,341.627,392.769  L341.627,392.769z"/>
<path fill-rule="evenodd" clip-rule="evenodd" fill="#AC792F" d="M336.377,395.019C334.103,396.83,334.764,396.304,336.377,395.019  L336.377,395.019z"/>
<path fill-rule="evenodd" clip-rule="evenodd" fill="#AC792F" d="M331.127,398.769C328.873,399.629,329.556,399.369,331.127,398.769  L331.127,398.769z"/>
<path fill-rule="evenodd" clip-rule="evenodd" fill="#AC792F" d="M329.627,402.519C328.085,403.639,328.085,403.639,329.627,402.519  L329.627,402.519z"/>
<path fill-rule="evenodd" clip-rule="evenodd" fill="#AC792F" d="M331.127,404.769C329.496,406.4,329.496,406.4,331.127,404.769  L331.127,404.769z"/>
<path fill-rule="evenodd" clip-rule="evenodd" fill="#AC792F" d="M335.627,404.019C334.653,405.875,334.877,405.448,335.627,404.019  L335.627,404.019z"/>
<path fill-rule="evenodd" clip-rule="evenodd" fill="#AC792F" d="M340.877,397.269C341.223,396.627,341.764,395.625,340.877,397.269  L340.877,397.269z"/>
<path fill-rule="evenodd" clip-rule="evenodd" fill="#AC792F" d="M335.627,399.519C333.228,400.835,335.153,399.779,335.627,399.519  L335.627,399.519z"/>
<path fill-rule="evenodd" clip-rule="evenodd" fill="#AC792F" d="M334.127,397.269C331.586,399.81,331.586,399.81,334.127,397.269  L334.127,397.269z"/>
<path fill-rule="evenodd" clip-rule="evenodd" fill="#AC792F" d="M337.127,398.019C334.496,400.254,334.352,400.376,337.127,398.019  L337.127,398.019z"/>
<path fill-rule="evenodd" clip-rule="evenodd" fill="#AC792F" d="M336.377,401.019C333.941,403.455,333.941,403.455,336.377,401.019  L336.377,401.019z"/>
<path fill-rule="evenodd" clip-rule="evenodd" fill="#AC792F" d="M331.127,404.769C329.48,406.416,329.48,406.416,331.127,404.769  L331.127,404.769z"/>
<path fill-rule="evenodd" clip-rule="evenodd" fill="#AC792F" d="M328.127,402.519C326.257,405.833,325.109,407.869,328.127,402.519  L328.127,402.519z"/>
<path fill-rule="evenodd" clip-rule="evenodd" fill="#AC792F" d="M334.127,394.269C329.186,399.21,329.186,399.21,334.127,394.269  L334.127,394.269z"/>
<path fill-rule="evenodd" clip-rule="evenodd" fill="#AC792F" d="M338.627,389.019C337.507,390.561,337.507,390.561,338.627,389.019  L338.627,389.019z"/>
<path fill-rule="evenodd" clip-rule="evenodd" fill="#AC792F" d="M333.377,393.519C331.905,395.746,331.627,396.166,333.377,393.519  L333.377,393.519z"/>
<path fill-rule="evenodd" clip-rule="evenodd" fill="#AC792F" d="M333.377,413.769C331.922,416.64,332.132,416.225,333.377,413.769  L333.377,413.769z"/>
<path fill-rule="evenodd" clip-rule="evenodd" fill="#AC792F" d="M337.877,391.269C335.901,395.083,335.267,396.31,337.877,391.269  L337.877,391.269z"/>
<path fill-rule="evenodd" clip-rule="evenodd" fill="#AC792F" d="M344.627,389.019C344.571,388.426,344.841,391.295,344.627,389.019  L344.627,389.019z"/>
<path fill-rule="evenodd" clip-rule="evenodd" fill="#AC792F" d="M349.127,386.019c-1.341,1.811-4.354,0.248-3.75,4.5  C349.962,390.968,347.374,388.385,349.127,386.019z"/>
<path fill-rule="evenodd" clip-rule="evenodd" fill="#AC792F" d="M341.627,396.519C340.803,397.343,340.803,397.343,341.627,396.519  L341.627,396.519z"/>
<path fill-rule="evenodd" clip-rule="evenodd" fill="#AC792F" d="M342.377,407.019C337.106,409.8,338.119,409.266,342.377,407.019  L342.377,407.019z"/>
<path fill-rule="evenodd" clip-rule="evenodd" fill="#AC792F" d="M346.877,392.769C345.201,394.821,344.734,395.393,346.877,392.769  L346.877,392.769z"/>
<path fill-rule="evenodd" clip-rule="evenodd" fill="#AC792F" d="M353.627,383.019C351.466,387.325,351.324,387.609,353.627,383.019  L353.627,383.019z"/>
<path fill-rule="evenodd" clip-rule="evenodd" fill="#AC792F" d="M357.377,383.019C356.553,383.843,356.553,383.843,357.377,383.019  L357.377,383.019z"/>
<path fill-rule="evenodd" clip-rule="evenodd" fill="#AC792F" d="M358.127,383.019C356.257,386.333,355.109,388.369,358.127,383.019  L358.127,383.019z"/>
<path fill-rule="evenodd" clip-rule="evenodd" fill="#AC792F" d="M352.877,385.269C352.349,386.137,351.724,387.166,352.877,385.269  L352.877,385.269z"/>
<path fill-rule="evenodd" clip-rule="evenodd" fill="#AC792F" d="M348.377,383.769C347.553,384.593,347.553,384.593,348.377,383.769  L348.377,383.769z"/>
<path fill-rule="evenodd" clip-rule="evenodd" fill="#AC792F" d="M351.377,417.519C351.024,417.872,351.024,417.872,351.377,417.519  L351.377,417.519z"/>
<path fill-rule="evenodd" clip-rule="evenodd" fill="#AC792F" d="M473.629,398.019c1.93,1.838-0.468,5.702,4.5,3.75  C478.147,397.207,475.464,399.767,473.629,398.019z"/>
<path fill-rule="evenodd" clip-rule="evenodd" fill="#AC792F" d="M485.629,392.019C488.562,395.915,486.754,393.514,485.629,392.019  L485.629,392.019z"/>
<path fill-rule="evenodd" clip-rule="evenodd" fill="#AC792F" d="M473.629,382.269c1.887,1.887-0.39,4.978,4.5,4.5  C478.606,381.88,475.516,384.156,473.629,382.269z"/>
<path fill-rule="evenodd" clip-rule="evenodd" fill="#AC792F" d="M462.379,399.519C460.694,402.036,460.497,402.331,462.379,399.519  L462.379,399.519z"/>
<path fill-rule="evenodd" clip-rule="evenodd" fill="#AC792F" d="M465.379,382.269C462.586,385.543,462.527,385.612,465.379,382.269  L465.379,382.269z"/>
<path fill-rule="evenodd" clip-rule="evenodd" fill="#AC792F" d="M457.879,384.519C457.056,385.343,457.056,385.343,457.879,384.519  L457.879,384.519z"/>
<path fill-rule="evenodd" clip-rule="evenodd" fill="#AC792F" d="M454.879,392.769C452.625,393.629,453.309,393.369,454.879,392.769  L454.879,392.769z"/>
<path fill-rule="evenodd" clip-rule="evenodd" fill="#AC792F" d="M461.629,389.769C461.404,390.315,460.399,392.756,461.629,389.769  L461.629,389.769z"/>
<path fill-rule="evenodd" clip-rule="evenodd" fill="#AC792F" d="M482.629,395.019C482.135,395.996,480.458,399.313,482.629,395.019  L482.629,395.019z"/>
<path fill-rule="evenodd" clip-rule="evenodd" fill="#AC792F" d="M481.879,388.269C480.905,390.125,481.129,389.698,481.879,388.269  L481.879,388.269z"/>
<path fill-rule="evenodd" clip-rule="evenodd" fill="#AC792F" d="M484.129,387.519C483.296,388.352,483.296,388.352,484.129,387.519  L484.129,387.519z"/>
<path fill-rule="evenodd" clip-rule="evenodd" fill="#AC792F" d="M431.629,395.769C431.629,397.416,431.629,397.416,431.629,395.769  L431.629,395.769z"/>
<path fill-rule="evenodd" clip-rule="evenodd" fill="#AC792F" d="M429.379,392.769C427.975,397.649,427.34,399.854,429.379,392.769  L429.379,392.769z"/>
<path fill-rule="evenodd" clip-rule="evenodd" fill="#AC792F" d="M424.129,389.769C423.564,392.208,423.414,392.856,424.129,389.769  L424.129,389.769z"/>
<path fill-rule="evenodd" clip-rule="evenodd" fill="#AC792F" d="M431.629,398.019C431.629,399.666,431.629,399.666,431.629,398.019  L431.629,398.019z"/>
<path fill-rule="evenodd" clip-rule="evenodd" fill="#AC792F" d="M431.629,389.019C431.629,388.482,431.629,388.482,431.629,389.019  L431.629,389.019z"/>
<path fill-rule="evenodd" clip-rule="evenodd" fill="#AC792F" d="M427.879,392.019C427.656,393.366,427.254,395.799,427.879,392.019  L427.879,392.019z"/>
<path fill-rule="evenodd" clip-rule="evenodd" fill="#AC792F" d="M430.879,395.019C430.472,398.669,430.412,399.201,430.879,395.019  L430.879,395.019z"/>
<path fill-rule="evenodd" clip-rule="evenodd" fill="#AC792F" d="M421.879,383.769C421.879,385.416,421.879,385.416,421.879,383.769  L421.879,383.769z"/>
<path fill-rule="evenodd" clip-rule="evenodd" fill="#AC792F" d="M423.379,386.019C422.476,390.729,422.537,390.406,423.379,386.019  L423.379,386.019z"/>
<path fill-rule="evenodd" clip-rule="evenodd" fill="#AC792F" d="M431.629,376.269c-0.516,1.992-4.843,1.583-1.5,5.25  C435.443,379.718,431.158,378.085,431.629,376.269z"/>
<path fill-rule="evenodd" clip-rule="evenodd" fill="#AC792F" d="M432.379,389.019C431.145,388.044,435.198,391.245,432.379,389.019  L432.379,389.019z"/>
<path fill-rule="evenodd" clip-rule="evenodd" fill="#AC792F" d="M433.129,388.269C432.887,392.645,432.812,393.99,433.129,388.269  L433.129,388.269z"/>
<path fill-rule="evenodd" clip-rule="evenodd" fill="#AC792F" d="M437.629,367.269C437.566,369.204,437.543,369.947,437.629,367.269  L437.629,367.269z"/>
<path fill-rule="evenodd" clip-rule="evenodd" fill="#AC792F" d="M439.129,368.019C438.374,373.249,438.558,371.975,439.129,368.019  L439.129,368.019z"/>
<path fill-rule="evenodd" clip-rule="evenodd" fill="#AC792F" d="M428.629,374.019C425.962,374.019,431.296,374.019,428.629,374.019  L428.629,374.019z"/>
<path fill-rule="evenodd" clip-rule="evenodd" fill="#AC792F" d="M457.879,399.519C457.821,399.845,457.364,402.422,457.879,399.519  L457.879,399.519z"/>
<path fill-rule="evenodd" clip-rule="evenodd" fill="#AC792F" d="M469.129,378.519C470.761,376.888,470.761,376.888,469.129,378.519  L469.129,378.519z"/>
<path fill-rule="evenodd" clip-rule="evenodd" fill="#AC792F" d="M455.629,390.519C453.997,392.15,453.997,392.15,455.629,390.519  L455.629,390.519z"/>
<path fill-rule="evenodd" clip-rule="evenodd" fill="#AC792F" d="M460.879,386.019C460.056,386.843,460.056,386.843,460.879,386.019  L460.879,386.019z"/>
<path fill-rule="evenodd" clip-rule="evenodd" fill="#AC792F" d="M460.879,391.269C460.056,392.093,460.056,392.093,460.879,391.269  L460.879,391.269z"/>
<path fill-rule="evenodd" clip-rule="evenodd" fill="#AC792F" d="M465.379,392.769C464.556,393.593,464.556,393.593,465.379,392.769  L465.379,392.769z"/>
<path fill-rule="evenodd" clip-rule="evenodd" fill="#AC792F" d="M449.629,388.269C448.806,389.093,448.806,389.093,449.629,388.269  L449.629,388.269z"/>
<path fill-rule="evenodd" clip-rule="evenodd" fill="#AC792F" d="M483.379,399.519C483.323,398.926,483.593,401.795,483.379,399.519  L483.379,399.519z"/>
<path fill-rule="evenodd" clip-rule="evenodd" fill="#AC792F" d="M479.629,386.769C477.981,388.416,477.981,388.416,479.629,386.769  L479.629,386.769z"/>
<path fill-rule="evenodd" clip-rule="evenodd" fill="#AC792F" d="M470.629,384.519C470.055,384.776,469.399,385.069,470.629,384.519  L470.629,384.519z"/>
<path fill-rule="evenodd" clip-rule="evenodd" fill="#AC792F" d="M460.129,378.519C460.129,375.963,460.129,381.526,460.129,378.519  L460.129,378.519z"/>
<path fill-rule="evenodd" clip-rule="evenodd" fill="#AC792F" d="M456.379,386.769C451.06,383.09,451.096,383.115,456.379,386.769  L456.379,386.769z"/>
<path fill-rule="evenodd" clip-rule="evenodd" fill="#AC792F" d="M469.879,379.269C473.415,375.746,471.032,378.12,469.879,379.269  L469.879,379.269z"/>
<path fill-rule="evenodd" clip-rule="evenodd" fill="#AC792F" d="M450.379,386.769c0.897-1.168,4.579,1.142,3-3.75  C447.546,381.506,451.553,385.241,450.379,386.769z"/>
<path fill-rule="evenodd" clip-rule="evenodd" fill="#AC792F" d="M463.879,386.019C465.125,383.889,465.562,383.143,463.879,386.019  L463.879,386.019z"/>
<path fill-rule="evenodd" clip-rule="evenodd" fill="#AC792F" d="M457.879,398.769C459.137,396.833,458.522,397.778,457.879,398.769  L457.879,398.769z"/>
<path fill-rule="evenodd" clip-rule="evenodd" fill="#AC792F" d="M463.129,398.019C463.666,397.482,463.666,397.482,463.129,398.019  L463.129,398.019z"/>
<path fill-rule="evenodd" clip-rule="evenodd" fill="#AC792F" d="M469.129,393.519C469.679,392.29,469.386,392.944,469.129,393.519  L469.129,393.519z"/>
<path fill-rule="evenodd" clip-rule="evenodd" fill="#AC792F" d="M475.879,395.019C476.429,393.79,476.136,394.444,475.879,395.019  L475.879,395.019z"/>
<path fill-rule="evenodd" clip-rule="evenodd" fill="#AC792F" d="M454.129,398.019C450.855,394.725,449.912,393.775,454.129,398.019  L454.129,398.019z"/>
<path fill-rule="evenodd" clip-rule="evenodd" fill="#AC792F" d="M486.379,401.769c1.508-1.517,6.87,3.321,2.25-3  C482.226,397.408,486.864,401.281,486.379,401.769z"/>
<path fill-rule="evenodd" clip-rule="evenodd" fill="#AC792F" d="M448.879,393.519C450.09,389.809,450.472,388.639,448.879,393.519  L448.879,393.519z"/>
<path fill-rule="evenodd" clip-rule="evenodd" fill="#AC792F" d="M460.879,383.019C462.056,382.548,462.056,382.548,460.879,383.019  L460.879,383.019z"/>
<path fill-rule="evenodd" clip-rule="evenodd" fill="#AC792F" d="M472.129,378.519C471.712,378.293,471.018,377.917,472.129,378.519  L472.129,378.519z"/>
<path fill-rule="evenodd" clip-rule="evenodd" fill="#AC792F" d="M467.629,379.269C467.629,378.269,467.629,378.269,467.629,379.269  L467.629,379.269z"/>
<path fill-rule="evenodd" clip-rule="evenodd" fill="#AC792F" d="M456.379,407.769c-0.526-0.089-1.665,4.532-3.75,0  C454.902,401.302,455.044,407.542,456.379,407.769z"/>
<path fill-rule="evenodd" clip-rule="evenodd" fill="#AC792F" d="M381.377,444.517C384.182,444.733,384.01,444.72,381.377,444.517  L381.377,444.517z"/>
<path fill-rule="evenodd" clip-rule="evenodd" fill="#AC792F" d="M396.377,428.017C393.71,428.017,399.043,428.017,396.377,428.017  L396.377,428.017z"/>
<path fill-rule="evenodd" clip-rule="evenodd" fill="#AC792F" d="M379.877,410.769C379.877,413.387,379.877,413.387,379.877,410.769  L379.877,410.769z"/>
<path fill-rule="evenodd" clip-rule="evenodd" fill="#AC792F" d="M390.377,411.519C389.773,412.123,389.773,412.123,390.377,411.519  L390.377,411.519z"/>
<path fill-rule="evenodd" clip-rule="evenodd" fill="#AC792F" d="M394.127,415.269C393.778,416.712,393.678,417.127,394.127,415.269  L394.127,415.269z"/>
<path fill-rule="evenodd" clip-rule="evenodd" fill="#AC792F" d="M397.877,412.269C397.877,413.389,397.877,413.389,397.877,412.269  L397.877,412.269z"/>
<path fill-rule="evenodd" clip-rule="evenodd" fill="#AC792F" d="M373.877,413.769C373.877,415.416,373.877,415.416,373.877,413.769  L373.877,413.769z"/>
<path fill-rule="evenodd" clip-rule="evenodd" fill="#AC792F" d="M367.127,416.769C367.127,419.558,367.127,419.558,367.127,416.769  L367.127,416.769z"/>
<path fill-rule="evenodd" clip-rule="evenodd" fill="#AC792F" d="M364.877,422.019C364.877,424.559,364.877,424.559,364.877,422.019  L364.877,422.019z"/>
<path fill-rule="evenodd" clip-rule="evenodd" fill="#AC792F" d="M368.627,426.517C368.627,427.054,368.627,427.054,368.627,426.517  L368.627,426.517z"/>
<path fill-rule="evenodd" clip-rule="evenodd" fill="#AC792F" d="M376.127,446.017C375.778,447.46,375.678,447.875,376.127,446.017  L376.127,446.017z"/>
<path fill-rule="evenodd" clip-rule="evenodd" fill="#AC792F" d="M376.127,443.017C375.625,445.099,375.705,444.767,376.127,443.017  L376.127,443.017z"/>
<path fill-rule="evenodd" clip-rule="evenodd" fill="#AC792F" d="M426.379,410.019C424.278,409.052,430.458,411.897,426.379,410.019  L426.379,410.019z"/>
<path fill-rule="evenodd" clip-rule="evenodd" fill="#AC792F" d="M419.629,403.269C419.833,404.789,419.891,405.217,419.629,403.269  L419.629,403.269z"/>
<path fill-rule="evenodd" clip-rule="evenodd" fill="#AC792F" d="M415.129,404.769C415.128,405.891,415.128,405.887,415.129,404.769  L415.129,404.769z"/>
<path fill-rule="evenodd" clip-rule="evenodd" fill="#AC792F" d="M403.127,398.769C403.127,400.416,403.127,400.416,403.127,398.769  L403.127,398.769z"/>
<path fill-rule="evenodd" clip-rule="evenodd" fill="#AC792F" d="M394.877,404.019C393.642,403.044,397.696,406.245,394.877,404.019  L394.877,404.019z"/>
<path fill-rule="evenodd" clip-rule="evenodd" fill="#AC792F" d="M437.629,404.019C438.629,404.019,438.629,404.019,437.629,404.019  L437.629,404.019z"/>
<path fill-rule="evenodd" clip-rule="evenodd" fill="#AC792F" d="M432.379,407.769C432.916,407.769,432.916,407.769,432.379,407.769  L432.379,407.769z"/>
<path fill-rule="evenodd" clip-rule="evenodd" fill="#AC792F" d="M424.879,405.519C426.526,405.519,426.526,405.519,424.879,405.519  L424.879,405.519z"/>
<path fill-rule="evenodd" clip-rule="evenodd" fill="#AC792F" d="M434.629,395.769C437.443,395.983,437.466,395.985,434.629,395.769  L434.629,395.769z"/>
<path fill-rule="evenodd" clip-rule="evenodd" fill="#AC792F" d="M451.129,410.769C451.129,412.042,451.129,412.042,451.129,410.769  L451.129,410.769z"/>
<path fill-rule="evenodd" clip-rule="evenodd" fill="#AC792F" d="M390.377,440.017C390.377,441.716,390.377,441.716,390.377,440.017  L390.377,440.017z"/>
<path fill-rule="evenodd" clip-rule="evenodd" fill="#AC792F" d="M442.129,406.269C437.496,409.935,445.062,403.948,442.129,406.269  L442.129,406.269z"/>
<path fill-rule="evenodd" clip-rule="evenodd" fill="#AC792F" d="M384.377,441.517C384.377,443.165,384.377,443.165,384.377,441.517  L384.377,441.517z"/>
<path fill-rule="evenodd" clip-rule="evenodd" fill="#AC792F" d="M446.629,427.267C447.85,430.091,448.918,432.564,446.629,427.267  L446.629,427.267z"/>
<path fill-rule="evenodd" clip-rule="evenodd" fill="#AC792F" d="M380.627,436.267C375.793,436.267,383.344,436.267,380.627,436.267  L380.627,436.267z"/>
<path fill-rule="evenodd" clip-rule="evenodd" fill="#AC792F" d="M405.377,419.769C404.9,416.811,405.064,417.828,405.377,419.769  L405.377,419.769z"/>
<path fill-rule="evenodd" clip-rule="evenodd" fill="#AC792F" d="M404.627,435.517c-0.962-2.586,2.679-4.671-2.25-6  C399.504,434.369,403.715,433.068,404.627,435.517z"/>
<path fill-rule="evenodd" clip-rule="evenodd" fill="#AC792F" d="M481.129,411.519C481.129,409.872,481.129,409.872,481.129,411.519  L481.129,411.519z"/>
<path fill-rule="evenodd" clip-rule="evenodd" fill="#AC792F" d="M415.879,428.767C414.727,423.973,415.223,426.038,415.879,428.767  L415.879,428.767z"/>
<path fill-rule="evenodd" clip-rule="evenodd" fill="#AC792F" d="M482.629,411.519C481.695,407.281,481.713,407.364,482.629,411.519  L482.629,411.519z"/>
<path fill-rule="evenodd" clip-rule="evenodd" fill="#AC792F" d="M420.379,432.517C419.561,427.079,419.622,427.484,420.379,432.517  L420.379,432.517z"/>
<path fill-rule="evenodd" clip-rule="evenodd" fill="#AC792F" d="M416.629,436.267c-0.487-1.784,3.82-3.793-1.5-5.25  C410.524,435.214,416.023,434.051,416.629,436.267z"/>
<path fill-rule="evenodd" clip-rule="evenodd" fill="#AC792F" d="M394.877,430.267C392.68,424.735,393.049,425.666,394.877,430.267  L394.877,430.267z"/>
<path fill-rule="evenodd" clip-rule="evenodd" fill="#AC792F" d="M370.127,416.019C368.901,418.581,367.826,420.827,370.127,416.019  L370.127,416.019z"/>
<path fill-rule="evenodd" clip-rule="evenodd" fill="#AC792F" d="M368.627,415.269C366.494,417.759,366.158,418.152,368.627,415.269  L368.627,415.269z"/>
<path fill-rule="evenodd" clip-rule="evenodd" fill="#AC792F" d="M372.377,411.519C370.21,413.092,371.446,412.195,372.377,411.519  L372.377,411.519z"/>
<path fill-rule="evenodd" clip-rule="evenodd" fill="#AC792F" d="M374.627,414.519C372.218,417.234,372.25,417.199,374.627,414.519  L374.627,414.519z"/>
<path fill-rule="evenodd" clip-rule="evenodd" fill="#AC792F" d="M379.877,416.769C376.413,421.473,376.798,420.95,379.877,416.769  L379.877,416.769z"/>
<path fill-rule="evenodd" clip-rule="evenodd" fill="#AC792F" d="M376.127,419.769C373.668,422.228,373.668,422.228,376.127,419.769  L376.127,419.769z"/>
<path fill-rule="evenodd" clip-rule="evenodd" fill="#AC792F" d="M364.877,415.269C364.053,416.093,364.053,416.093,364.877,415.269  L364.877,415.269z"/>
<path fill-rule="evenodd" clip-rule="evenodd" fill="#AC792F" d="M365.627,415.269C363.757,418.583,362.609,420.619,365.627,415.269  L365.627,415.269z"/>
<path fill-rule="evenodd" clip-rule="evenodd" fill="#AC792F" d="M481.879,430.267c1.93,1.839-0.468,5.702,4.5,3.75  C486.397,429.455,483.714,432.015,481.879,430.267z"/>
<path fill-rule="evenodd" clip-rule="evenodd" fill="#AC792F" d="M493.879,424.267C496.812,428.164,495.004,425.761,493.879,424.267  L493.879,424.267z"/>
<path fill-rule="evenodd" clip-rule="evenodd" fill="#AC792F" d="M481.879,414.519c1.887,1.887-0.39,4.978,4.5,4.5  C486.856,414.13,483.766,416.406,481.879,414.519z"/>
<path fill-rule="evenodd" clip-rule="evenodd" fill="#AC792F" d="M470.629,431.767C468.944,434.284,468.747,434.579,470.629,431.767  L470.629,431.767z"/>
<path fill-rule="evenodd" clip-rule="evenodd" fill="#AC792F" d="M472.879,414.519C470.086,417.793,470.027,417.862,472.879,414.519  L472.879,414.519z"/>
<path fill-rule="evenodd" clip-rule="evenodd" fill="#AC792F" d="M465.379,416.769C464.556,417.593,464.556,417.593,465.379,416.769  L465.379,416.769z"/>
<path fill-rule="evenodd" clip-rule="evenodd" fill="#AC792F" d="M463.129,425.017C460.875,425.877,461.559,425.617,463.129,425.017  L463.129,425.017z"/>
<path fill-rule="evenodd" clip-rule="evenodd" fill="#AC792F" d="M469.879,422.019C469.653,422.566,468.649,425,469.879,422.019  L469.879,422.019z"/>
<path fill-rule="evenodd" clip-rule="evenodd" fill="#AC792F" d="M490.879,427.267C490.385,428.244,488.708,431.561,490.879,427.267  L490.879,427.267z"/>
<path fill-rule="evenodd" clip-rule="evenodd" fill="#AC792F" d="M490.129,420.519C489.155,422.375,489.379,421.948,490.129,420.519  L490.129,420.519z"/>
<path fill-rule="evenodd" clip-rule="evenodd" fill="#AC792F" d="M491.629,419.769C490.796,420.602,490.796,420.602,491.629,419.769  L491.629,419.769z"/>
<path fill-rule="evenodd" clip-rule="evenodd" fill="#AC792F" d="M439.129,428.017C439.129,429.665,439.129,429.665,439.129,428.017  L439.129,428.017z"/>
<path fill-rule="evenodd" clip-rule="evenodd" fill="#AC792F" d="M437.629,425.017C436.225,429.897,435.59,432.101,437.629,425.017  L437.629,425.017z"/>
<path fill-rule="evenodd" clip-rule="evenodd" fill="#AC792F" d="M432.379,422.019C431.814,424.455,431.663,425.105,432.379,422.019  L432.379,422.019z"/>
<path fill-rule="evenodd" clip-rule="evenodd" fill="#AC792F" d="M439.129,430.267C439.129,431.915,439.129,431.915,439.129,430.267  L439.129,430.267z"/>
<path fill-rule="evenodd" clip-rule="evenodd" fill="#AC792F" d="M439.129,421.269C439.129,420.732,439.129,420.732,439.129,421.269  L439.129,421.269z"/>
<path fill-rule="evenodd" clip-rule="evenodd" fill="#AC792F" d="M436.129,424.267C435.906,425.614,435.504,428.046,436.129,424.267  L436.129,424.267z"/>
<path fill-rule="evenodd" clip-rule="evenodd" fill="#AC792F" d="M438.379,427.267C437.972,430.917,437.912,431.449,438.379,427.267  L438.379,427.267z"/>
<path fill-rule="evenodd" clip-rule="evenodd" fill="#AC792F" d="M430.129,416.019C430.129,417.666,430.129,417.666,430.129,416.019  L430.129,416.019z"/>
<path fill-rule="evenodd" clip-rule="evenodd" fill="#AC792F" d="M431.629,418.269C430.726,422.979,430.787,422.657,431.629,418.269  L431.629,418.269z"/>
<path fill-rule="evenodd" clip-rule="evenodd" fill="#AC792F" d="M439.129,408.519c-0.516,1.992-4.843,1.583-1.5,5.25  C442.943,411.968,438.658,410.335,439.129,408.519z"/>
<path fill-rule="evenodd" clip-rule="evenodd" fill="#AC792F" d="M440.629,421.269C439.395,420.294,443.448,423.495,440.629,421.269  L440.629,421.269z"/>
<path fill-rule="evenodd" clip-rule="evenodd" fill="#AC792F" d="M441.379,420.519C441.137,424.894,441.062,426.237,441.379,420.519  L441.379,420.519z"/>
<path fill-rule="evenodd" clip-rule="evenodd" fill="#AC792F" d="M445.879,399.519C445.816,401.454,445.793,402.197,445.879,399.519  L445.879,399.519z"/>
<path fill-rule="evenodd" clip-rule="evenodd" fill="#AC792F" d="M447.379,400.269C446.624,405.499,446.808,404.225,447.379,400.269  L447.379,400.269z"/>
<path fill-rule="evenodd" clip-rule="evenodd" fill="#AC792F" d="M436.879,406.269C434.212,406.269,439.546,406.269,436.879,406.269  L436.879,406.269z"/>
<path fill-rule="evenodd" clip-rule="evenodd" fill="#AC792F" d="M465.379,431.767C465.321,432.093,464.864,434.67,465.379,431.767  L465.379,431.767z"/>
<path fill-rule="evenodd" clip-rule="evenodd" fill="#AC792F" d="M477.379,410.769C479.011,409.138,479.011,409.138,477.379,410.769  L477.379,410.769z"/>
<path fill-rule="evenodd" clip-rule="evenodd" fill="#AC792F" d="M463.879,422.767C462.247,424.399,462.247,424.399,463.879,422.767  L463.879,422.767z"/>
<path fill-rule="evenodd" clip-rule="evenodd" fill="#AC792F" d="M469.129,418.269C468.306,419.093,468.306,419.093,469.129,418.269  L469.129,418.269z"/>
<path fill-rule="evenodd" clip-rule="evenodd" fill="#AC792F" d="M469.129,423.517C468.306,424.34,468.306,424.34,469.129,423.517  L469.129,423.517z"/>
<path fill-rule="evenodd" clip-rule="evenodd" fill="#AC792F" d="M473.629,425.017C472.806,425.84,472.806,425.84,473.629,425.017  L473.629,425.017z"/>
<path fill-rule="evenodd" clip-rule="evenodd" fill="#AC792F" d="M457.879,420.519C457.056,421.343,457.056,421.343,457.879,420.519  L457.879,420.519z"/>
<path fill-rule="evenodd" clip-rule="evenodd" fill="#AC792F" d="M490.879,431.767C490.823,431.174,491.093,434.043,490.879,431.767  L490.879,431.767z"/>
<path fill-rule="evenodd" clip-rule="evenodd" fill="#AC792F" d="M487.129,419.019C485.481,420.666,485.481,420.666,487.129,419.019  L487.129,419.019z"/>
<path fill-rule="evenodd" clip-rule="evenodd" fill="#AC792F" d="M478.879,416.769C478.305,417.026,477.649,417.319,478.879,416.769  L478.879,416.769z"/>
<path fill-rule="evenodd" clip-rule="evenodd" fill="#AC792F" d="M468.379,410.769C468.379,408.213,468.379,413.776,468.379,410.769  L468.379,410.769z"/>
<path fill-rule="evenodd" clip-rule="evenodd" fill="#AC792F" d="M463.879,419.019C458.56,415.34,458.596,415.365,463.879,419.019  L463.879,419.019z"/>
<path fill-rule="evenodd" clip-rule="evenodd" fill="#AC792F" d="M478.129,411.519C481.665,407.996,479.282,410.37,478.129,411.519  L478.129,411.519z"/>
<path fill-rule="evenodd" clip-rule="evenodd" fill="#AC792F" d="M457.879,419.019c0.897-1.168,4.579,1.142,3-3.75  C455.046,413.756,459.053,417.491,457.879,419.019z"/>
<path fill-rule="evenodd" clip-rule="evenodd" fill="#AC792F" d="M472.129,418.269C473.375,416.139,473.812,415.393,472.129,418.269  L472.129,418.269z"/>
<path fill-rule="evenodd" clip-rule="evenodd" fill="#AC792F" d="M465.379,431.017C466.637,429.081,466.022,430.026,465.379,431.017  L465.379,431.017z"/>
<path fill-rule="evenodd" clip-rule="evenodd" fill="#AC792F" d="M470.629,430.267C471.166,429.73,471.166,429.73,470.629,430.267  L470.629,430.267z"/>
<path fill-rule="evenodd" clip-rule="evenodd" fill="#AC792F" d="M476.629,425.767C477.179,424.538,476.886,425.193,476.629,425.767  L476.629,425.767z"/>
<path fill-rule="evenodd" clip-rule="evenodd" fill="#AC792F" d="M484.129,427.267C484.679,426.038,484.386,426.693,484.129,427.267  L484.129,427.267z"/>
<path fill-rule="evenodd" clip-rule="evenodd" fill="#AC792F" d="M461.629,430.267C458.355,426.973,457.412,426.024,461.629,430.267  L461.629,430.267z"/>
<path fill-rule="evenodd" clip-rule="evenodd" fill="#AC792F" d="M494.629,434.017c1.508-1.518,6.87,3.32,2.25-3  C490.476,429.656,495.114,433.529,494.629,434.017z"/>
<path fill-rule="evenodd" clip-rule="evenodd" fill="#AC792F" d="M457.129,425.767C458.34,422.058,458.722,420.89,457.129,425.767  L457.129,425.767z"/>
<path fill-rule="evenodd" clip-rule="evenodd" fill="#AC792F" d="M469.129,415.269C470.306,414.798,470.306,414.798,469.129,415.269  L469.129,415.269z"/>
<path fill-rule="evenodd" clip-rule="evenodd" fill="#AC792F" d="M480.379,410.769C479.962,410.543,479.268,410.167,480.379,410.769  L480.379,410.769z"/>
<path fill-rule="evenodd" clip-rule="evenodd" fill="#AC792F" d="M475.129,411.519C475.129,410.519,475.129,410.519,475.129,411.519  L475.129,411.519z"/>
<path fill-rule="evenodd" clip-rule="evenodd" fill="#AC792F" d="M437.629,470.767C434.23,471.994,433.199,472.366,437.629,470.767  L437.629,470.767z"/>
<path fill-rule="evenodd" clip-rule="evenodd" fill="#AC792F" d="M442.129,464.767C440.481,464.767,440.481,464.767,442.129,464.767  L442.129,464.767z"/>
<path fill-rule="evenodd" clip-rule="evenodd" fill="#AC792F" d="M436.129,460.267C436.129,457.6,436.129,462.934,436.129,460.267  L436.129,460.267z"/>
<path fill-rule="evenodd" clip-rule="evenodd" fill="#AC792F" d="M418.879,467.017C416.426,466.677,416.163,466.64,418.879,467.017  L418.879,467.017z"/>
<path fill-rule="evenodd" clip-rule="evenodd" fill="#AC792F" d="M421.129,464.767C414.327,464.767,414.327,464.767,421.129,464.767  L421.129,464.767z"/>
<path fill-rule="evenodd" clip-rule="evenodd" fill="#AC792F" d="M416.629,463.267C416.025,463.871,416.025,463.871,416.629,463.267  L416.629,463.267z"/>
<path fill-rule="evenodd" clip-rule="evenodd" fill="#AC792F" d="M428.629,464.017C426.068,464.017,426.068,464.017,428.629,464.017  L428.629,464.017z"/>
<path fill-rule="evenodd" clip-rule="evenodd" fill="#AC792F" d="M424.879,461.017C420.469,461.41,421.044,461.359,424.879,461.017  L424.879,461.017z"/>
<path fill-rule="evenodd" clip-rule="evenodd" fill="#AC792F" d="M417.379,459.517C415.521,459.966,415.936,459.866,417.379,459.517  L417.379,459.517z"/>
<path fill-rule="evenodd" clip-rule="evenodd" fill="#AC792F" d="M412.877,462.517C411.23,462.517,411.23,462.517,412.877,462.517  L412.877,462.517z"/>
<path fill-rule="evenodd" clip-rule="evenodd" fill="#AC792F" d="M413.627,464.767C411.174,464.427,410.911,464.39,413.627,464.767  L413.627,464.767z"/>
<path fill-rule="evenodd" clip-rule="evenodd" fill="#AC792F" d="M416.629,467.767C414.981,467.767,414.981,467.767,416.629,467.767  L416.629,467.767z"/>
<path fill-rule="evenodd" clip-rule="evenodd" fill="#AC792F" d="M425.629,466.267C426.166,466.267,426.166,466.267,425.629,466.267  L425.629,466.267z"/>
<path fill-rule="evenodd" clip-rule="evenodd" fill="#AC792F" d="M420.379,464.017C418.731,464.017,418.731,464.017,420.379,464.017  L420.379,464.017z"/>
<path fill-rule="evenodd" clip-rule="evenodd" fill="#AC792F" d="M421.879,461.767C418.044,461.425,417.469,461.375,421.879,461.767  L421.879,461.767z"/>
<path fill-rule="evenodd" clip-rule="evenodd" fill="#AC792F" d="M423.379,464.017C418.969,464.41,419.544,464.359,423.379,464.017  L423.379,464.017z"/>
<path fill-rule="evenodd" clip-rule="evenodd" fill="#AC792F" d="M419.629,465.517C415.7,465.721,415.817,465.715,419.629,465.517  L419.629,465.517z"/>
<path fill-rule="evenodd" clip-rule="evenodd" fill="#AC792F" d="M413.627,464.767C411.086,464.767,411.086,464.767,413.627,464.767  L413.627,464.767z"/>
<path fill-rule="evenodd" clip-rule="evenodd" fill="#AC792F" d="M412.877,461.017C408.169,460.922,407.612,460.912,412.877,461.017  L412.877,461.017z"/>
<path fill-rule="evenodd" clip-rule="evenodd" fill="#AC792F" d="M422.629,460.267C416.289,460.267,416.289,460.267,422.629,460.267  L422.629,460.267z"/>
<path fill-rule="evenodd" clip-rule="evenodd" fill="#AC792F" d="M429.379,459.517C427.521,459.966,427.936,459.866,429.379,459.517  L429.379,459.517z"/>
<path fill-rule="evenodd" clip-rule="evenodd" fill="#AC792F" d="M424.129,458.767C418.919,459.251,421.388,459.022,424.129,458.767  L424.129,458.767z"/>
<path fill-rule="evenodd" clip-rule="evenodd" fill="#AC792F" d="M419.629,458.017C417.242,458.017,417.242,458.017,419.629,458.017  L419.629,458.017z"/>
<path fill-rule="evenodd" clip-rule="evenodd" fill="#AC792F" d="M428.629,460.267C422.97,460.915,425.713,460.601,428.629,460.267  L428.629,460.267z"/>
<path fill-rule="evenodd" clip-rule="evenodd" fill="#AC792F" d="M433.879,464.017C432.759,464.017,432.759,464.017,433.879,464.017  L433.879,464.017z"/>
<path fill-rule="evenodd" clip-rule="evenodd" fill="#AC792F" d="M439.129,465.517C434.287,465.005,432.49,464.815,439.129,465.517  L439.129,465.517z"/>
<path fill-rule="evenodd" clip-rule="evenodd" fill="#AC792F" d="M426.379,467.767C425.259,467.767,425.259,467.767,426.379,467.767  L426.379,467.767z"/>
<path fill-rule="evenodd" clip-rule="evenodd" fill="#AC792F" d="M424.879,467.767C420.106,467.767,420.106,467.767,424.879,467.767  L424.879,467.767z"/>
<path fill-rule="evenodd" clip-rule="evenodd" fill="#AC792F" d="M433.879,467.767C429.715,468.686,429.797,468.667,433.879,467.767  L433.879,467.767z"/>
<path fill-rule="evenodd" clip-rule="evenodd" fill="#AC792F" d="M444.379,466.267C438.978,466.655,439.727,466.601,444.379,466.267  L444.379,466.267z"/>
<path fill-rule="evenodd" clip-rule="evenodd" fill="#AC792F" d="M447.379,469.267C445.936,468.918,445.521,468.818,447.379,469.267  L447.379,469.267z"/>
<path fill-rule="evenodd" clip-rule="evenodd" fill="#AC792F" d="M448.129,470.017C445.213,469.683,442.47,469.37,448.129,470.017  L448.129,470.017z"/>
<path fill-rule="evenodd" clip-rule="evenodd" fill="#AC792F" d="M442.879,467.767C440.268,468.368,439.844,468.465,442.879,467.767  L442.879,467.767z"/>
<path fill-rule="evenodd" clip-rule="evenodd" fill="#AC792F" d="M439.879,463.267C439.342,463.267,439.342,463.267,439.879,463.267  L439.879,463.267z"/>
<path fill-rule="evenodd" clip-rule="evenodd" fill="#AC792F" d="M415.879,476.767C415.879,475.767,415.879,475.767,415.879,476.767  L415.879,476.767z"/>
</svg>