<svg xmlns="http://www.w3.org/2000/svg" xmlns:xlink="http://www.w3.org/1999/xlink" version="1.1" id="Layer_1" x="0px" y="0px" enable-background="new 0 0 822.05 841.89" xml:space="preserve" viewBox="244.45 246.15 333.05 350.63">
<path fill-rule="evenodd" clip-rule="evenodd" fill="#BCBEC0" stroke="#000000" stroke-width="2" stroke-linecap="square" stroke-miterlimit="10" d="  M487.25,487.906c0.676,34.811-47.935,34.587-48,0C439.185,453.158,488.562,452.969,487.25,487.906z"/>
<path fill-rule="evenodd" clip-rule="evenodd" fill="#BCBEC0" stroke="#000000" stroke-width="2" stroke-linecap="square" stroke-miterlimit="10" d="  M480.5,488.656c0.28,23.689-34.5,26.616-34.5,2.25C446,465.044,480.604,461.598,480.5,488.656z"/>
<path fill="none" stroke="#000000" stroke-width="2" stroke-linecap="square" stroke-miterlimit="10" d="M469.25,487.156  C458.69,490.763,458.398,486.012,469.25,487.156L469.25,487.156z"/>
<path fill-rule="evenodd" clip-rule="evenodd" fill="#BCBEC0" stroke="#000000" stroke-width="2" stroke-linecap="square" stroke-miterlimit="10" d="  M363.5,505.156c-1.163,43.438-68.013,43.856-67.5,0C296.508,461.726,361.238,462.384,363.5,505.156z"/>
<path fill-rule="evenodd" clip-rule="evenodd" fill="#BCBEC0" stroke="#000000" stroke-width="2" stroke-linecap="square" stroke-miterlimit="10" d="  M353.75,505.156c-2.328,31.869-50.031,32.609-49.5,0C304.772,473.092,350.616,474.32,353.75,505.156z"/>
<path fill-rule="evenodd" clip-rule="evenodd" fill="#F9CBDF" stroke="#000000" stroke-width="2" stroke-linecap="square" stroke-miterlimit="10" d="  M402.5,352.154c21.716-20.881,16.064-15.451,7.5-39.75c-4.524-12.836-9.75-24.042-9.75-37.875c0-19.383,14.194-27.375,31.5-27.375  c21.386,0,87.113,18.591,100.5,31.5c14.199,13.692,31.998,74.182,28.5,96.75c-8.139,52.514-100.897,48.752-140.056,48.752  c-35.135,0-75.475,40.994-98.069-13.877c-6.123-14.869,17.602-41.123,25.368-54.466C352.599,347.9,392.687,352.43,402.5,352.154z"/>
<path fill="none" stroke="#000000" stroke-width="2" stroke-linecap="square" stroke-miterlimit="10" d="M416,247.904  c42.322,14.324,36.064,49.429,51.75,81.75c8.47,17.453,23.231,13.551,15.806,33.972c-3.373,9.277-26.158,7.144-34.928,8.166  c-47.684,5.555-44.103,5.897-57.378,52.364"/>
<path fill="none" stroke="#000000" stroke-width="2" stroke-linecap="square" stroke-miterlimit="10" d="M531.5,281.654  c-14.5,23.25-29,46.5-43.5,69.75c23.25-0.75,46.5-1.5,69.75-2.25"/>
<line fill="none" stroke="#000000" stroke-width="2" stroke-linecap="square" stroke-miterlimit="10" x1="482" y1="367.904" x2="527.75" y2="407.654"/>
<path fill-rule="evenodd" clip-rule="evenodd" fill="#B3B3B3" stroke="#000000" stroke-width="2" stroke-linecap="square" stroke-miterlimit="10" d="  M377.75,366.404c-24.679-33.282-57.632-72.903-96.75-90c-23.408-10.23-50.997-2.997-25.125,22.875  C333.392,376.795,411.848,457.769,521,487.156C473.25,446.905,425.5,406.654,377.75,366.404z M459.5,463.156  c-38.809-30.764-96.432-61.446-125.722-101.196c-19.297-26.188-60.512-48.674-73.028-77.306  c34.367,10.758,65.482,39.99,90.09,65.418c43.047,44.481,91.573,82.016,139.41,121.334C480,468.656,469.75,465.906,459.5,463.156z"/>
<path fill="none" stroke="#000000" stroke-width="2" stroke-linecap="square" stroke-miterlimit="10" d="M406.25,430.906  c-21.027,20.408-42.054,40.817-63.082,61.226c-19.366,18.797-4.088,37.362,20.481,30.028  c54.896-16.387,89.643-62.117,131.101-101.004"/>
<path fill-rule="evenodd" clip-rule="evenodd" fill="#BCBEC0" stroke="#000000" stroke-width="2" stroke-linecap="square" stroke-miterlimit="10" d="  M428.75,553.156c1.579,56.899-87.75,56.788-87.75,0C341,496.62,430.322,496.508,428.75,553.156z"/>
<path fill-rule="evenodd" clip-rule="evenodd" fill="#BCBEC0" stroke="#000000" stroke-width="2" stroke-linecap="square" stroke-miterlimit="10" d="  M416.75,553.156c-0.196,41.341-64.676,41.197-64.5,0C352.425,512.146,416.983,511.982,416.75,553.156z"/>
<path fill-rule="evenodd" clip-rule="evenodd" fill="#BCBEC0" stroke="#000000" stroke-width="2" stroke-linecap="square" stroke-miterlimit="10" d="  M576.5,526.156c-1.076,53.219-73.693,53.216-73.5,0C503.192,473.339,575.906,473.172,576.5,526.156z"/>
<path fill-rule="evenodd" clip-rule="evenodd" fill="#BCBEC0" stroke="#000000" stroke-width="2" stroke-linecap="square" stroke-miterlimit="10" d="  M566,527.656c1.081,38.987-53.25,38.851-53.25,0C512.75,489.028,567.075,488.891,566,527.656z"/>
<path fill="none" stroke="#000000" stroke-width="2" stroke-linecap="square" stroke-miterlimit="10" d="M548,525.406  C532.931,545.88,532.094,506.41,548,525.406L548,525.406z"/>
<path fill="none" stroke="#000000" stroke-width="2" stroke-linecap="square" stroke-miterlimit="10" d="M392,554.656  C374.893,573.537,374.682,536.187,392,554.656L392,554.656z"/>
<path fill="none" stroke="#000000" stroke-width="2" stroke-linecap="square" stroke-miterlimit="10" d="M335,506.656  C321.514,512.668,321.439,500.965,335,506.656L335,506.656z"/>
<line fill="none" stroke="#000000" stroke-width="2" stroke-linecap="square" stroke-miterlimit="10" x1="428.75" y1="538.156" x2="503" y2="523.906"/>
<path fill="none" stroke="#000000" stroke-width="2" stroke-linecap="square" stroke-miterlimit="10" d="M503,526.156  c-23.162-23.616-29.116-40.312-61.505-35.659c-37.499,5.386-74.997,10.772-112.495,16.159c7.25,7.25,14.5,14.5,21.75,21.75"/>
<path fill-rule="evenodd" clip-rule="evenodd" fill="#F9CBDF" stroke="#000000" stroke-width="2" stroke-linecap="square" stroke-miterlimit="10" d="  M349.25,353.654c-8.658,13.854-32.626,38.546-28.125,54.75c3.615,13.014,31.808,34.975,45.375,34.127  c13.817-0.863,32.669-28.772,29.25-43.127C392.633,386.318,358.53,362.418,349.25,353.654z"/>
</svg>