<svg xmlns="http://www.w3.org/2000/svg" xmlns:xlink="http://www.w3.org/1999/xlink" version="1.1" id="Layer_1" x="0px" y="0px" enable-background="new 0 0 822.05 841.89" xml:space="preserve" viewBox="320.11 356.84 178.91 130.55">
<path fill-rule="evenodd" clip-rule="evenodd" fill="#FB0F0C" stroke="#000000" stroke-width="1.5" stroke-linecap="square" stroke-miterlimit="10" d="  M379.775,409.39c15.516-5.707,55.111-26.254,65.25-21c-31.981-28.782-81.379-12.966-119.25-3  C342.098,394.409,361.958,401.719,379.775,409.39z"/>
<path fill-rule="evenodd" clip-rule="evenodd" fill="#FB0F0C" stroke="#000000" stroke-width="1.5" stroke-linecap="square" stroke-miterlimit="10" d="  M448.775,448.39c-1.615-21.001-2.289-42-3.75-63c-10.848,3.99-65.016,17.106-65.361,27.278c-0.821,24.219-1.974,48.346,0.111,72.472  C402.664,472.656,425.783,460.674,448.775,448.39z"/>
<path fill-rule="evenodd" clip-rule="evenodd" fill="#FB0F0C" stroke="#000000" stroke-width="1.5" stroke-linecap="square" stroke-miterlimit="10" d="  M379.775,409.39c-18-8-36-16-54-24c-0.636,11.575-10.099,64.899-0.942,69.732c18.441,9.732,37.183,19.068,54.942,30.018  C377.596,459.932,378.917,434.692,379.775,409.39z"/>
<path fill-rule="evenodd" clip-rule="evenodd" fill="#F7F619" stroke="#000000" stroke-width="1.5" stroke-linecap="square" stroke-miterlimit="10" d="  M420.275,394.39c-8.098-1.803-16.219-6.082-24-9c6.257-2.408,12.267-6.624,18.75-8.25c-10.008-2.662-15.125,6.298-24.75,6  c-12.724-0.394-18.88-10.984-32.25-7.5c8.293,2.547,15.711,7.938,24,10.5c-19.389,7.566-30.332,5.731-31.722,26.58  c-1.081,16.208-10.512,47.157,3.222,56.67c2.644-40.543-7.408-64.237,31.38-79.752c38.71-15.484,28.817,60.542,29.37,77.502  C430.787,456.199,420.699,413.654,420.275,394.39z"/>
<path fill-rule="evenodd" clip-rule="evenodd" fill="#F7F619" stroke="#000000" stroke-width="1.5" stroke-linecap="square" stroke-miterlimit="10" d="  M409.025,358.39c-14.654-4.697-19.717,12.366-23.25,24c0.727-49.976-53.969,3.765-13.5,6.75c-14.636,6.493-22.146,30.375-2.25,32.25  c-15.604-18.567,7.365-31.11,18-39.75c0.399,0.424-0.745,5.056-0.75,5.25c41.077-4.767-14.862,44.616,12.75,43.5  c-2.988-12.595,22.613-34.307-2.25-45C414.533,384.162,422.678,370.128,409.025,358.39z M367.025,368.14  c11.861-0.685,17.018,18.198,9.375,16.5C365.028,382.113,359.616,379.088,367.025,368.14z M381.275,385.39  C381.275,384.39,381.275,384.39,381.275,385.39L381.275,385.39z M389.525,383.14C392.626,345.463,431.641,384.613,389.525,383.14  L389.525,383.14z"/>
<path fill-rule="evenodd" clip-rule="evenodd" fill="#F7F619" stroke="#000000" stroke-width="1.5" stroke-linecap="square" stroke-miterlimit="10" d="  M394.775,384.64C376.014,401.272,375.483,368.908,394.775,384.64L394.775,384.64z"/>
<line fill="none" stroke="#000000" stroke-width="1.5" stroke-linecap="square" stroke-miterlimit="10" x1="352.775" y1="398.14" x2="358.775" y2="400.39"/>
<path fill-rule="evenodd" clip-rule="evenodd" fill="#FFFFFF" d="M412.025,398.14l8.25-3.75L412.025,398.14z"/>
<line fill="none" stroke="#000000" stroke-width="1.5" stroke-linecap="square" stroke-miterlimit="10" x1="412.025" y1="398.14" x2="420.275" y2="394.39"/>
<path fill-rule="evenodd" clip-rule="evenodd" fill="#1D0E82" stroke="#000000" stroke-width="1.5" stroke-linecap="square" stroke-miterlimit="10" d="  M457.025,431.14c13-5.75,26-11.5,39-17.25c-26.342-8.599-40.078-10.52-71.25,0C435.525,419.64,446.275,425.39,457.025,431.14z"/>
<path fill-rule="evenodd" clip-rule="evenodd" fill="#1D0E82" stroke="#000000" stroke-width="1.5" stroke-linecap="square" stroke-miterlimit="10" d="  M498.275,459.64c-1.188-15.215-2.281-30.483-2.25-45.75c-16.651,7.365-38.812,9.184-39.264,28.602  c-0.344,14.759-0.923,29.43,0.264,44.148C470.738,477.584,484.791,469.026,498.275,459.64z"/>
<path fill-rule="evenodd" clip-rule="evenodd" fill="#1D0E82" stroke="#000000" stroke-width="1.5" stroke-linecap="square" stroke-miterlimit="10" d="  M457.025,431.14c-10.75-5.75-21.5-11.5-32.25-17.25c-1.318,43.5-2.89,48.718,32.25,72.75  C455.537,468.188,456.596,449.634,457.025,431.14z"/>
<path fill-rule="evenodd" clip-rule="evenodd" fill="#F7F619" stroke="#000000" stroke-width="1.5" stroke-linecap="square" stroke-miterlimit="10" d="  M481.025,420.64c-4.935-1.522-9.661-5.085-14.25-7.5c3.75-1.75,7.5-3.5,11.25-5.25c-9.289,3.261-23.261,1.206-33.75-1.5  c4.898,1.555,9.749,4.979,14.25,7.5c-26.196,3.744-26.435,44.356-17.25,61.5c0.994-16.894-6.6-59.5,20.25-60  c24.771-0.461,15.532,43.136,15.75,57.75C486.146,460.488,481.279,437.422,481.025,420.64z"/>
<path fill-rule="evenodd" clip-rule="evenodd" fill="#F7F619" stroke="#000000" stroke-width="1.5" stroke-linecap="square" stroke-miterlimit="10" d="  M474.275,398.89c-5.566,4.199-12.339,3.956-13.5,15c-4.492-24.684-28.146-5.339-8.25,3.75c-9.696,7.405-11.399,14.626-0.75,19.5  c-6.931-10.878,1.028-19.613,10.5-24c11.648,4.626,4.834,18.366,2.25,30.75c1.5-0.5,3-1,4.5-1.5c3.416-6.876,8.226-19.469-1.5-27  C479.871,412.898,479.323,408.031,474.275,398.89z M449.525,404.89c3.909,2.647,8.897,1.527,7.5,10.5  C445.111,414.683,450.654,410.643,449.525,404.89z M457.775,415.39L457.775,415.39z M463.025,413.89  C471.799,397.416,481.345,407.456,463.025,413.89L463.025,413.89z"/>
<path fill-rule="evenodd" clip-rule="evenodd" fill="#F7F619" stroke="#000000" stroke-width="1.5" stroke-linecap="square" stroke-miterlimit="10" d="  M466.025,413.14C454.351,415.958,454.066,410.847,466.025,413.14L466.025,413.14z"/>
<line fill="none" stroke="#000000" stroke-width="1.5" stroke-linecap="square" stroke-miterlimit="10" x1="441.275" y1="422.89" x2="445.025" y2="424.39"/>
</svg>