<svg xmlns="http://www.w3.org/2000/svg" xmlns:xlink="http://www.w3.org/1999/xlink" version="1.1" id="Layer_1" x="0px" y="0px" enable-background="new 0 0 822.05 841.89" xml:space="preserve" viewBox="324.9 331.16 173.6 181.75">
<path fill-rule="evenodd" clip-rule="evenodd" fill="#B6D9FF" stroke="#000000" stroke-linecap="square" stroke-miterlimit="10" d="  M498,441.14c-9.929,0-89.998,1.428-89.998-1.366c0-18.577-11.655-93.681,0-105.884c6.078-6.364,89.998,3.081,89.998,1.366  C498,370.551,498,405.846,498,441.14z"/>
<path fill-rule="evenodd" clip-rule="evenodd" fill="#FFFFFF" stroke="#000000" stroke-linecap="square" stroke-miterlimit="10" d="  M467.25,387.14c-4.075,10.771-25.5,15.97-25.5,0S463.175,376.37,467.25,387.14z"/>
<path fill-rule="evenodd" clip-rule="evenodd" fill="#FFFFFF" stroke="#000000" stroke-linecap="square" stroke-miterlimit="10" d="  M489.75,416.39C473.378,444.713,467.646,389.594,489.75,416.39L489.75,416.39z"/>
<path fill-rule="evenodd" clip-rule="evenodd" fill="#FFFFFF" stroke="#000000" stroke-linecap="square" stroke-miterlimit="10" d="  M485.25,355.64C469.291,384.308,463.874,328.499,485.25,355.64L485.25,355.64z"/>
<path fill-rule="evenodd" clip-rule="evenodd" fill="#FFFFFF" stroke="#000000" stroke-linecap="square" stroke-miterlimit="10" d="  M443.25,359.39C423.536,384.624,423.536,334.156,443.25,359.39L443.25,359.39z"/>
<path fill-rule="evenodd" clip-rule="evenodd" fill="#FFFFFF" stroke="#000000" stroke-linecap="square" stroke-miterlimit="10" d="  M440.25,342.14C428.876,345.53,428.438,339.368,440.25,342.14L440.25,342.14z"/>
<path fill-rule="evenodd" clip-rule="evenodd" fill="#FFFFFF" stroke="#000000" stroke-linecap="square" stroke-miterlimit="10" d="  M426,348.14C413.679,350.349,413.979,344.469,426,348.14L426,348.14z"/>
<path fill-rule="evenodd" clip-rule="evenodd" fill="#FFFFFF" d="M426.75,353.39l-2.25-2.25L426.75,353.39z"/>
<line fill="none" stroke="#000000" stroke-linecap="square" stroke-miterlimit="10" x1="426.75" y1="353.39" x2="424.5" y2="351.14"/>
<path fill-rule="evenodd" clip-rule="evenodd" fill="#FFFFFF" d="M435,346.64v3.75V346.64z"/>
<line fill="none" stroke="#000000" stroke-linecap="square" stroke-miterlimit="10" x1="435" y1="346.64" x2="435" y2="350.39"/>
<path fill-rule="evenodd" clip-rule="evenodd" fill="#FFFFFF" d="M471,362.39l-9,15.75L471,362.39z"/>
<line fill="none" stroke="#000000" stroke-linecap="square" stroke-miterlimit="10" x1="471" y1="362.39" x2="462" y2="378.14"/>
<path fill-rule="evenodd" clip-rule="evenodd" fill="#FFFFFF" d="M462.75,396.14l10.5,15L462.75,396.14z"/>
<line fill="none" stroke="#000000" stroke-linecap="square" stroke-miterlimit="10" x1="462.75" y1="396.14" x2="473.25" y2="411.14"/>
<path fill-rule="evenodd" clip-rule="evenodd" fill="#FFFFFF" d="M439.5,365.39l7.5,12.75L439.5,365.39z"/>
<line fill="none" stroke="#000000" stroke-linecap="square" stroke-miterlimit="10" x1="439.5" y1="365.39" x2="447" y2="378.14"/>
<path fill-rule="evenodd" clip-rule="evenodd" fill="#FFFFFF" stroke="#000000" stroke-linecap="square" stroke-miterlimit="10" d="  M459.75,410.39C443.503,380.695,438.642,438.274,459.75,410.39L459.75,410.39z"/>
<path fill-rule="evenodd" clip-rule="evenodd" fill="#FFFFFF" stroke="#000000" stroke-linecap="square" stroke-miterlimit="10" d="  M461.25,428.39C449.854,424.845,449.408,431.013,461.25,428.39L461.25,428.39z"/>
<path fill-rule="evenodd" clip-rule="evenodd" fill="#FFFFFF" stroke="#000000" stroke-linecap="square" stroke-miterlimit="10" d="  M446.25,424.64C434.477,421.838,433.864,426.178,446.25,424.64L446.25,424.64z"/>
<path fill-rule="evenodd" clip-rule="evenodd" fill="#FFFFFF" d="M453.75,398.39l-1.5,3L453.75,398.39z"/>
<line fill="none" stroke="#000000" stroke-linecap="square" stroke-miterlimit="10" x1="453.75" y1="398.39" x2="452.25" y2="401.39"/>
<path fill-rule="evenodd" clip-rule="evenodd" fill="#FFFFFF" d="M445.5,417.14l-2.25,3.75L445.5,417.14z"/>
<line fill="none" stroke="#000000" stroke-linecap="square" stroke-miterlimit="10" x1="445.5" y1="417.14" x2="443.25" y2="420.89"/>
<path fill-rule="evenodd" clip-rule="evenodd" fill="#FFFFFF" d="M453.75,417.14l0.75,6L453.75,417.14z"/>
<line fill="none" stroke="#000000" stroke-linecap="square" stroke-miterlimit="10" x1="453.75" y1="417.14" x2="454.5" y2="423.14"/>
<path fill-rule="evenodd" clip-rule="evenodd" fill="#E8C8A6" d="M369,474.89c-0.5,11-1,22-1.5,33  c3.559-8.644,5.127-27.889,8.25-35.25C373.543,473.375,371.127,473.952,369,474.89z"/>
<path fill="none" stroke="#000000" stroke-linecap="square" stroke-miterlimit="10" d="M369,474.89c-0.5,11-1,22-1.5,33  c3.559-8.644,5.127-27.889,8.25-35.25C373.543,473.375,371.127,473.952,369,474.89"/>
<path fill-rule="evenodd" clip-rule="evenodd" fill="#101177" stroke="#000000" stroke-linecap="square" stroke-miterlimit="10" d="  M366.75,502.64C409.997,485.466,367.24,531.519,366.75,502.64L366.75,502.64z"/>
<path fill-rule="evenodd" clip-rule="evenodd" fill="#E8C8A6" d="M345.75,474.14c0.5,11,1,22,1.5,33  c-3.523-9.283-4.625-25.281-9-35.25C340.752,472.426,343.311,473.228,345.75,474.14z"/>
<path fill="none" stroke="#000000" stroke-linecap="square" stroke-miterlimit="10" d="M345.75,474.14c0.5,11,1,22,1.5,33  c-3.523-9.283-4.625-25.281-9-35.25C340.752,472.426,343.311,473.228,345.75,474.14"/>
<path fill-rule="evenodd" clip-rule="evenodd" fill="#101177" stroke="#000000" stroke-linecap="square" stroke-miterlimit="10" d="  M348,501.89C301,484.121,348.482,531.785,348,501.89L348,501.89z"/>
<path fill-rule="evenodd" clip-rule="evenodd" stroke="#000000" stroke-linecap="square" stroke-miterlimit="10" d="M405.002,364.64  c9.499-7.5,18.999-15,28.498-22.5c-11.749,9.5-23.499,19-35.248,28.5C400.502,368.64,402.752,366.64,405.002,364.64z"/>
<path fill-rule="evenodd" clip-rule="evenodd" fill="#E8C8A6" stroke="#000000" stroke-linecap="square" stroke-miterlimit="10" d="  M398.252,366.14c-5.245,8.729-4.653,18.482-11.252,27.75c-3.701,5.197-17.602,11.649-24,19.5  C378.512,398.355,397.206,390.162,398.252,366.14z"/>
<path fill-rule="evenodd" clip-rule="evenodd" fill="#E8C8A6" stroke="#000000" stroke-linecap="square" stroke-miterlimit="10" d="  M340.5,413.39c-5.575,16.271-10.886,33.318-15,51.75C330.874,450.054,337.353,429.985,340.5,413.39z"/>
<path fill-rule="evenodd" clip-rule="evenodd" stroke="#000000" stroke-linecap="square" stroke-miterlimit="10" d="M369,451.64  c4.264,7.248,6.61,15.478,11.25,22.5C373.99,469.322,368.625,456.464,369,451.64z"/>
<path fill-rule="evenodd" clip-rule="evenodd" fill="#E8C8A6" stroke="#000000" stroke-linecap="square" stroke-miterlimit="10" d="  M365.25,378.89c7.551,20.149-16.824,25.147-24.75,6.75C349.743,384.965,356.859,381.639,365.25,378.89z"/>
<path fill-rule="evenodd" clip-rule="evenodd" fill="#101177" stroke="#000000" stroke-linecap="square" stroke-miterlimit="10" d="  M340.5,381.89c12.486-0.166,26.265-4.63,35.25-11.25C362.184,371.74,345.372,362.678,340.5,381.89z"/>
<path fill-rule="evenodd" clip-rule="evenodd" fill="#BF0606" stroke="#000000" stroke-linecap="square" stroke-miterlimit="10" d="  M351,402.14c11.236,0.882,22.385-2.946,30.75-10.5c4.186,8.671,4.646,15.726-3.375,19.5c-11.05,5.2-5.063,18.742-4.125,30  c-13,0.75-26,1.5-39,2.25c6.001-10.379,5.104-20.434-5.25-27C336.443,412.018,343.73,404.807,351,402.14z"/>
<path fill-rule="evenodd" clip-rule="evenodd" fill="#FFE600" d="M339.75,426.89l6.75-5.25L339.75,426.89z"/>
<line fill="none" stroke="#000000" stroke-linecap="square" stroke-miterlimit="10" x1="339.75" y1="426.89" x2="346.5" y2="421.64"/>
<path fill-rule="evenodd" clip-rule="evenodd" fill="#101177" stroke="#000000" stroke-linecap="square" stroke-miterlimit="10" d="  M342,444.89c-21.514,44.294,12.273,36.433,15.75,13.5c1.312,7.498,13.528,26.074,23.25,15c3.224-3.672-5.812-19.498-7.5-24  C369.361,438.353,352.718,444.34,342,444.89z"/>
<path fill-rule="evenodd" clip-rule="evenodd" fill="#E8C8A6" stroke="#000000" stroke-linecap="square" stroke-miterlimit="10" d="  M325.5,468.89c1.063-3.654-2.573-7.375,3.75-9.75C330.727,464.155,326.447,465.635,325.5,468.89z"/>
</svg>