<svg xmlns="http://www.w3.org/2000/svg" xmlns:xlink="http://www.w3.org/1999/xlink" version="1.1" id="Layer_1" x="0px" y="0px" enable-background="new 0 0 822.05 841.89" xml:space="preserve" viewBox="235.26 247.11 193.53 353.09">
<path fill-rule="evenodd" clip-rule="evenodd" fill="#7BD3F7" d="M579.5,431.14L579.5,431.14L579.5,431.14z"/>
<line fill="none" stroke="#000000" stroke-linecap="square" stroke-miterlimit="10" x1="579.5" y1="431.14" x2="579.5" y2="431.14"/>
<path fill-rule="evenodd" clip-rule="evenodd" fill="#6D6F71" stroke="#000000" stroke-width="2" stroke-linecap="square" stroke-miterlimit="10" d="  M323.75,301.39c-33.569,11.414-36.751,8.833-43.413,43.677c-3.024,15.818,0.14,19.44-15.454,21.921  c-11.294,1.796-19.39-0.845-21.384,9.402c38.431,0,50.411,10.442,55.5-29.25c4.106,29.563,2.561,27,32.251,27  c30.435,0,28.161,1.438,35.251-28.5c3.991,37.911,13.674,28.5,50.248,28.5c-3.153-19.437-23.98-7.358-34.498-19.5  c-7.746-8.942,0.95-33.803-10.464-39.81C352.443,304.649,340.061,309.027,323.75,301.39z"/>
<path fill-rule="evenodd" clip-rule="evenodd" fill="#FFFFFF" stroke="#000000" stroke-width="2" stroke-linecap="square" stroke-miterlimit="10" d="  M316.25,305.89c2.43,22.113,4.86,44.226,7.29,66.339c0.407,3.708,17.939,4.385,18.504,0.792c2.17-13.795,4.34-27.59,6.51-41.385  C352.572,306.094,343.128,289.048,316.25,305.89z"/>
<path fill-rule="evenodd" clip-rule="evenodd" fill="#942923" stroke="#000000" stroke-width="2" stroke-linecap="square" stroke-miterlimit="10" d="  M330.5,302.14c-6.885,21.165-0.645,43.153,2.25,64.5C335.758,352.353,352.146,305.335,330.5,302.14z"/>
<path fill-rule="evenodd" clip-rule="evenodd" fill="#F6C49D" stroke="#000000" stroke-width="2" stroke-linecap="square" stroke-miterlimit="10" d="  M350.75,278.14c0.058,30.446-32.25,30.338-32.25,0S350.808,247.694,350.75,278.14z"/>
<path fill-rule="evenodd" clip-rule="evenodd" fill="#967A66" stroke="#000000" stroke-width="2" stroke-linecap="square" stroke-miterlimit="10" d="  M341,252.64c-5.548,17.217-22.732,18.59-21,36c-38.953-49.558,69.066-58.064,30.75-0.75C349.189,275.316,347.661,262.733,341,252.64  z"/>
<path fill-rule="evenodd" clip-rule="evenodd" fill="#8A5C31" stroke="#000000" stroke-width="2" stroke-linecap="square" stroke-miterlimit="10" d="  M426.5,394.39c-36.406,0-72.812,0-109.217,0c-5.144,0-104.052,7.12-76.033-20.25c11.915-11.638,92.459,0,109.217,0  C371.057,374.14,437.869,358.847,426.5,394.39z"/>
<path fill-rule="evenodd" clip-rule="evenodd" fill="#957966" stroke="#000000" stroke-width="2" stroke-linecap="square" stroke-miterlimit="10" d="  M399.502,585.64c-25.785,0-131.252,14.026-131.252-12.14c0-34.973,0-69.945,0-104.918c0-10.705-7.738-65.698,0-73.442  c9.208-9.215,73.841,0,87.141,0c19.228,0,44.111-9.97,44.111,12.139C399.502,466.733,399.502,526.187,399.502,585.64z"/>
<path fill-rule="evenodd" clip-rule="evenodd" fill="#8A5C31" stroke="#000000" stroke-width="2" stroke-linecap="square" stroke-miterlimit="10" d="  M414.502,598.39c-30.53,0-61.06,0-91.59,0c-5.802,0-87.333,5.788-69.662-13.5c8.553-9.336,78.75,0,91.59,0  C360.855,584.89,420.818,573.137,414.502,598.39z"/>
</svg>