<svg xmlns="http://www.w3.org/2000/svg" xmlns:xlink="http://www.w3.org/1999/xlink" version="1.1" id="Layer_1" x="0px" y="0px" enable-background="new 0 0 822.05 841.89" xml:space="preserve" viewBox="177.66 257.6 430.46 327.5">
<path fill-rule="evenodd" clip-rule="evenodd" fill="#7BD3F7" d="M642.914,425.103L642.914,425.103L642.914,425.103z"/>
<line fill="none" stroke="#000000" stroke-linecap="square" stroke-miterlimit="10" x1="642.914" y1="425.103" x2="642.914" y2="425.103"/>
<path fill-rule="evenodd" clip-rule="evenodd" fill="#FFDB78" stroke="#000000" stroke-width="2" stroke-linecap="square" stroke-miterlimit="10" d="  M280.664,378.603c-3.987,33.229-3.971,38.336,13.583,66.083c17.222,27.223,34.444,54.444,51.667,81.667  c22.221-14.65,44.441-29.301,66.662-43.952c3.612-2.381-29.178-50.748-32.536-56.173c-8.372-13.522-22.227-50.144-37.48-56.529  C310.885,356.44,309.589,360.196,280.664,378.603z"/>
<line fill="none" stroke="#000000" stroke-width="2" stroke-linecap="square" stroke-miterlimit="10" x1="344.414" y1="373.353" x2="278.414" y2="414.603"/>
<path fill="none" stroke="#000000" stroke-width="2" stroke-linecap="square" stroke-miterlimit="10" d="M309.164,382.353  C297.178,387.426,297.078,376.816,309.164,382.353L309.164,382.353z"/>
<path fill-rule="evenodd" clip-rule="evenodd" stroke="#000000" stroke-width="2" stroke-linecap="square" stroke-miterlimit="10" d="  M333.164,439.353c-6.97-19.6,14.005-16.729,23.25-15.75c-19.258-24.825-47.457,10.779-20.25,30c-6.334,7.696-0.584,1.771-1.5,9.75  c15.724-7.562,12.337,18.008,19.5,27c6.247-14.04,39.058-15.357,24.75-29.25c-6.974,7.175-15.948,11.3-24.75,16.5  c-2.297-8.895-2.613-14.35-6.75-22.5c3.25-2,6.5-4,9.75-6C347.757,446.594,341.615,450.947,333.164,439.353z"/>
<path fill="none" stroke="#000000" stroke-width="2" stroke-linecap="square" stroke-miterlimit="10" d="M233.414,314.103  c-10.288,37.732,2.344,73.185,45,77.25"/>
<path fill="none" stroke="#000000" stroke-width="2" stroke-linecap="square" stroke-miterlimit="10" d="M178.664,338.853  c20.812,20.046,49.661,21.126,76.5,15.375c17.907-3.837,75.457-1.582,46.5,30.375"/>
<path fill-rule="evenodd" clip-rule="evenodd" fill="#FFDB78" stroke="#000000" stroke-width="2" stroke-linecap="square" stroke-miterlimit="10" d="  M474.914,323.853c-5.93,58.115,35.421,99.087,66,147.75c21.976-14.895,43.952-29.79,65.928-44.685  c3.657-2.479-29.188-50.755-32.553-56.19c-8.206-13.255-22.38-50.481-37.479-56.451  C505.181,301.772,503.596,305.601,474.914,323.853z"/>
<line fill="none" stroke="#000000" stroke-width="2" stroke-linecap="square" stroke-miterlimit="10" x1="538.664" y1="317.853" x2="473.414" y2="359.853"/>
<path fill="none" stroke="#000000" stroke-width="2" stroke-linecap="square" stroke-miterlimit="10" d="M504.164,326.853  C492.67,332.331,491.034,323.674,504.164,326.853L504.164,326.853z"/>
<path fill-rule="evenodd" clip-rule="evenodd" stroke="#000000" stroke-width="2" stroke-linecap="square" stroke-miterlimit="10" d="  M527.414,383.853c-6.219-20.647,14.888-14.483,23.25-15.75c-20.604-24.504-45.292,10.797-20.25,30.75  c1.818-2.044,10.412,27.198,18.75,36c6.138-13.669,38.583-13.602,24.75-29.25c-6.4,7.687-15.979,11.569-24.75,16.5  c-2.56-9.029-2.6-14.056-7.5-22.5c3.25-2,6.5-4,9.75-6c-1.25-2-2.5-4-3.75-6C539.239,395.775,532.478,394.087,527.414,383.853z"/>
<path fill="none" stroke="#000000" stroke-width="2" stroke-linecap="square" stroke-miterlimit="10" d="M427.664,258.603  c-9.135,35.419,2.085,77.69,45.75,77.25"/>
<path fill="none" stroke="#000000" stroke-width="2" stroke-linecap="square" stroke-miterlimit="10" d="M372.914,283.353  c19.732,20.717,51.022,21.745,77.25,16.125c16.962-3.635,75.804-1.992,46.5,29.625"/>
<path fill-rule="evenodd" clip-rule="evenodd" fill="#FFDB78" stroke="#000000" stroke-width="2" stroke-linecap="square" stroke-miterlimit="10" d="  M435.164,436.353c-4.072,33.259-3.758,37.932,13.583,65.527c17.223,27.408,34.444,54.815,51.667,82.223  c21.976-14.895,43.952-29.79,65.928-44.685c3.657-2.479-29.188-50.755-32.553-56.19c-8.23-13.295-22.321-50.348-37.401-56.451  C465.19,414.149,463.589,418.264,435.164,436.353z"/>
<line fill="none" stroke="#000000" stroke-width="2" stroke-linecap="square" stroke-miterlimit="10" x1="498.164" y1="430.353" x2="432.914" y2="472.353"/>
<path fill="none" stroke="#000000" stroke-width="2" stroke-linecap="square" stroke-miterlimit="10" d="M463.664,439.353  C451.403,442.761,451.403,435.945,463.664,439.353L463.664,439.353z"/>
<path fill-rule="evenodd" clip-rule="evenodd" stroke="#000000" stroke-width="2" stroke-linecap="square" stroke-miterlimit="10" d="  M486.914,496.353c-5.884-21.103,14.739-14.281,23.25-15.75c-20.905-24.655-45.255,11.28-20.25,30.75  c1.604-1.803,10.301,25.967,18.75,36c6.075-14.518,38.513-13.684,24.75-29.25c-6.406,7.651-15.843,11.612-24.75,16.5  c-2.344-8.238-3.135-14.458-6.75-22.5c8.742-8.378,2.569-6.271,5.25-12C497.655,509.411,493.658,505.159,486.914,496.353z"/>
<path fill="none" stroke="#000000" stroke-width="2" stroke-linecap="square" stroke-miterlimit="10" d="M387.914,371.103  c-10.059,37.491,1.371,74.402,45,77.25"/>
<path fill="none" stroke="#000000" stroke-width="2" stroke-linecap="square" stroke-miterlimit="10" d="M332.414,395.853  c20.269,19.659,50.936,21.764,77.25,16.125c17.121-3.669,75.845-2.342,46.5,29.625"/>
</svg>