<svg xmlns="http://www.w3.org/2000/svg" xmlns:xlink="http://www.w3.org/1999/xlink" version="1.1" id="Layer_1" x="0px" y="0px" enable-background="new 0 0 822.05 841.89" xml:space="preserve" viewBox="253.66 243.27 145.89 356.22">
<path fill-rule="evenodd" clip-rule="evenodd" fill="#7BD3F7" d="M569.551,430.427L569.551,430.427L569.551,430.427z"/>
<line fill="none" stroke="#000000" stroke-linecap="square" stroke-miterlimit="10" x1="569.551" y1="430.427" x2="569.551" y2="430.427"/>
<path fill-rule="evenodd" clip-rule="evenodd" fill="#6D6F71" d="M288.299,423.677c15.551,0.269,41.221-7.019,46.079,9.539  c5.846,19.927,13.754,39.317,14.188,60.133c0.188,9.061,5.144,22.686-5.154,24.105c-14.745,2.034-15.22,5.1-19.487-8.652  c-4.408-14.205-8.368-34.889-16.875-42.375c-2.393,16.748-4.785,33.496-7.178,50.244c-0.491,3.435-19.727,3.403-22.072,0.756  c-2.352-2.654,0.29-23.778,0.375-27C278.769,467.81,279.717,444.28,288.299,423.677z"/>
<path fill="none" stroke="#000000" stroke-width="2" stroke-linecap="square" stroke-miterlimit="10" d="M288.299,423.677  c15.551,0.269,41.221-7.019,46.079,9.539c5.846,19.927,13.754,39.317,14.188,60.133c0.188,9.061,5.144,22.686-5.154,24.105  c-14.745,2.034-15.22,5.1-19.487-8.652c-4.408-14.205-8.368-34.889-16.875-42.375c-2.393,16.748-4.785,33.496-7.178,50.244  c-0.655,4.588-13.746,1.33-16.434,1.145c-9.444-0.651-5.733-9.53-5.521-17.592c0.58-22.049-2.234-51.082,9.633-70.547"/>
<path fill-rule="evenodd" clip-rule="evenodd" fill="#8A5C31" stroke="#000000" stroke-width="2" stroke-linecap="square" stroke-miterlimit="10" d="  M277.799,519.677c6.275-2.096,15.067-0.52,21.75-0.75c-1.055,16.242-2.109,32.484-3.164,48.727  c-0.844,12.996,18.304,17.604,15.539,25.898c-2.966,8.899-23.457,3.182-30.375,2.625  C280.299,570.677,279.049,545.177,277.799,519.677z"/>
<path fill-rule="evenodd" clip-rule="evenodd" fill="#8A5C31" stroke="#000000" stroke-width="2" stroke-linecap="square" stroke-miterlimit="10" d="  M327.299,519.677c5.499-3.069,14.038-3.119,20.252-4.5c1.521,10.475,0.528,43.273,9.914,48.141  c18.902,9.802,22.91,17.859-1.289,17.859C330.154,581.177,332.27,539.562,327.299,519.677z"/>
<path fill-rule="evenodd" clip-rule="evenodd" fill="#F6C38E" stroke="#000000" stroke-width="2" stroke-linecap="square" stroke-miterlimit="10" d="  M272.549,428.927c16.538-2.413,18.83,8.479,13.5,22.5C276.313,447.082,271.321,439.166,272.549,428.927z"/>
<line fill="none" stroke="#000000" stroke-width="2" stroke-linecap="square" stroke-miterlimit="10" x1="277.049" y1="415.425" x2="277.049" y2="415.425"/>
<path fill-rule="evenodd" clip-rule="evenodd" fill="#F6C38E" stroke="#000000" stroke-width="2" stroke-linecap="square" stroke-miterlimit="10" d="  M373.051,398.925C433.703,407.713,334.843,431.8,373.051,398.925L373.051,398.925z"/>
<path fill-rule="evenodd" clip-rule="evenodd" fill="#6D6F71" d="M379.051,416.925c3.892,10.141,2.868,19.241-5.25,24.752  c9.521,3.085,15.465,3.092,24.75-0.75C384.021,433.471,397.362,414.561,379.051,416.925z"/>
<path fill="none" stroke="#000000" stroke-width="2" stroke-linecap="square" stroke-miterlimit="10" d="M379.051,416.925  c3.892,10.141,2.868,19.241-5.25,24.752c9.521,3.085,15.465,3.092,24.75-0.75C384.021,433.471,397.362,414.561,379.051,416.925"/>
<path fill-rule="evenodd" clip-rule="evenodd" fill="#DEDFE0" stroke="#000000" stroke-width="2" stroke-linecap="square" stroke-miterlimit="10" d="  M379.801,444.677c4.574-1.539,10.883-0.519,15.75-0.75c0,40.005,7.726,86.853-6,125.25  C365.832,537.435,379.261,481.684,379.801,444.677z"/>
<path fill-rule="evenodd" clip-rule="evenodd" fill="#FFDB78" stroke="#000000" stroke-width="2" stroke-linecap="square" stroke-miterlimit="10" d="  M302.549,307.425c-8.45,9.905-21.841,5.73-30.75,13.5c-7.563,6.597-11.238,33.282-14.444,42.778  c-7.212,21.358-0.97,76.688,30.944,59.974c-12.948-32.064-17.089-36.395-1.5-66.752c-1.052,22.798-6.095,47.453,3.75,69.002  c35.716,5.099,39.919,1.634,38.25-36.752c10.5,8.75,21.001,17.5,31.502,26.25c12.001-9.211,13.149-15.984,1.746-23.586  c-23.678-15.786-16.303-25.981-13.954-54.171C348.615,331.401,315.611,302.986,302.549,307.425z"/>
<path fill="none" stroke="#000000" stroke-width="2" stroke-linecap="square" stroke-miterlimit="10" d="M319.049,316.425  c-0.463,38.864,0.384,76.042,3.75,114.752"/>
<path fill-rule="evenodd" clip-rule="evenodd" fill="#F6C38E" stroke="#000000" stroke-width="2" stroke-linecap="square" stroke-miterlimit="10" d="  M339.299,283.425c1.618,37.964-38.7,37.896-39,0C299.995,245.087,340.497,245.093,339.299,283.425z"/>
<path fill-rule="evenodd" clip-rule="evenodd" fill="#AF8977" stroke="#000000" stroke-width="2" stroke-linecap="square" stroke-miterlimit="10" d="  M327.299,255.675c0.652,10.477-4.314,17.551-14.25,19.5c0.25-1.25,0.5-2.5,0.75-3.75c-6.795,7.753-9.239,11.448-10.5,21  c-21.145-4.455-8.472-42.032,9.75-47.25c23.369-6.692,48.097,25.421,27,43.5C341.444,276.08,338.805,262.299,327.299,255.675z"/>
<line fill="none" stroke="#000000" stroke-width="2" stroke-linecap="square" stroke-miterlimit="10" x1="312.299" y1="252.675" x2="312.299" y2="252.675"/>
</svg>