<svg xmlns="http://www.w3.org/2000/svg" xmlns:xlink="http://www.w3.org/1999/xlink" version="1.1" id="Layer_1" x="0px" y="0px" enable-background="new 0 0 822.05 841.89" xml:space="preserve" viewBox="310 350.24 200.97 141.6">
<path fill-rule="evenodd" clip-rule="evenodd" stroke="#000000" stroke-width="1.25" stroke-linecap="square" stroke-miterlimit="10" d="  M372.25,391.14c9.009,7.319,17.583,15.424,27.75,20.25C391.407,404.271,380.079,394.135,372.25,391.14z"/>
<path fill-rule="evenodd" clip-rule="evenodd" stroke="#000000" stroke-width="1.25" stroke-linecap="square" stroke-miterlimit="10" d="  M344.5,481.89c-8.681-2.604-15.757-2.443-21.75,3.75C331.697,489.917,345.462,490.982,344.5,481.89z"/>
<path fill-rule="evenodd" clip-rule="evenodd" stroke="#000000" stroke-width="1.25" stroke-linecap="square" stroke-miterlimit="10" d="  M370.75,454.14c-5.381-10.907-11.51-22.175-19.5-30.75c-3.921,25.268,28.988,42.259,48.75,40.5  C390.25,460.64,380.5,457.39,370.75,454.14z"/>
<path fill-rule="evenodd" clip-rule="evenodd" stroke="#000000" stroke-width="1.25" stroke-linecap="square" stroke-miterlimit="10" d="  M398.5,463.89C378.88,495.609,410.516,473.542,398.5,463.89L398.5,463.89z"/>
<path fill-rule="evenodd" clip-rule="evenodd" stroke="#000000" stroke-width="1.25" stroke-linecap="square" stroke-miterlimit="10" d="  M337,448.14c2.637,12.027,3.311,27.793,9,34.5c-2.24-16.428-8.426-30.745,3-44.25C342.732,439.394,341.332,443.182,337,448.14z"/>
<path fill-rule="evenodd" clip-rule="evenodd" fill="#392170" stroke="#000000" stroke-width="1.25" stroke-linecap="square" stroke-miterlimit="10" d="  M341.5,420.39c6.459-1.175,26.263-6.687,27.624,0.12c3.055,15.274,11.667,30.394-8.874,35.13c-0.711-6.032-5.098-11.956-5.25-18  c-1.183,5.057-5.812,9.312-7.5,14.25C331.004,445.169,334.553,433.455,341.5,420.39z"/>
<path fill-rule="evenodd" clip-rule="evenodd" fill="#137827" stroke="#000000" stroke-width="1.25" stroke-linecap="square" stroke-miterlimit="10" d="  M370,397.14c-7.146-1.301-27.15-9.683-21.75-20.25C353.111,367.378,383.386,380.706,370,397.14z"/>
<path fill-rule="evenodd" clip-rule="evenodd" fill="#137827" stroke="#000000" stroke-width="1.25" stroke-linecap="square" stroke-miterlimit="10" d="  M354.25,418.89c-20.286,10.313-25.18-36.128-8.625-42.75C370.288,366.275,384.156,421.323,354.25,418.89z"/>
<path fill="none" stroke="#000000" stroke-width="1.25" stroke-linecap="square" stroke-miterlimit="10" d="M369.25,421.89  c-0.323,7.748-4.958,12.372-12.75,13.5"/>
<path fill-rule="evenodd" clip-rule="evenodd" fill="#EED5B6" stroke="#000000" stroke-width="1.25" stroke-linecap="square" stroke-miterlimit="10" d="  M322,370.89c11.393,20.588,33.023,2.241,21-16.5C337.022,361.118,329.875,366.75,322,370.89z"/>
<path fill-rule="evenodd" clip-rule="evenodd" fill="#392170" stroke="#000000" stroke-width="1.5" stroke-linecap="square" stroke-miterlimit="10" d="  M342.25,353.64c-8.645,9.795-19.525,17.336-31.5,22.5C317.337,366.207,322.379,343.21,342.25,353.64z"/>
<path fill-rule="evenodd" clip-rule="evenodd" fill="#D9D8DB" stroke="#000000" stroke-width="1.25" stroke-linecap="square" stroke-miterlimit="10" d="  M481,472.14c18.49-0.156,30.553-14.117,29.25-32.25c-13.25,3-26.5,6-39.75,9C473.874,456.36,476.481,465.325,481,472.14z"/>
<path fill-rule="evenodd" clip-rule="evenodd" fill="#D9D8DB" stroke="#000000" stroke-width="1.25" stroke-linecap="square" stroke-miterlimit="10" d="  M423.25,436.14C413.053,506.383,603.641,432.797,423.25,436.14L423.25,436.14z"/>
<path fill-rule="evenodd" clip-rule="evenodd" fill="#D9D8DB" stroke="#000000" stroke-width="1.25" stroke-linecap="square" stroke-miterlimit="10" d="  M423.25,434.64c24.789-14.575,60.991,0.626,87,5.25C499.213,461.233,442.803,438.365,423.25,434.64z"/>
<path fill="none" stroke="#000000" stroke-width="1.25" stroke-linecap="square" stroke-miterlimit="10" d="M425.5,434.64  c-13.5-3.75-27-7.5-40.5-11.25c19.309-17.982,38.644-3.425,59.25,4.5"/>
<path fill-rule="evenodd" clip-rule="evenodd" fill="#D9D8DB" stroke="#000000" stroke-width="1.25" stroke-linecap="square" stroke-miterlimit="10" d="  M481,475.14c-3.041,21.381-33,21.835-33-1.125C448,452.61,478.423,456.153,481,475.14z"/>
<path fill-rule="evenodd" clip-rule="evenodd" fill="#D9D8DB" stroke="#000000" stroke-width="1.25" stroke-linecap="square" stroke-miterlimit="10" d="  M471.25,475.14C455.596,487.713,455.618,463.04,471.25,475.14L471.25,475.14z"/>
<path fill-rule="evenodd" clip-rule="evenodd" stroke="#000000" stroke-width="1.25" stroke-linecap="square" stroke-miterlimit="10" d="  M437.5,391.14c16.25-0.25,32.5-0.5,48.75-0.75c3.392,28.515-49.631-6.343-48.75,18.75c-9.5-4.5-19-9-28.5-13.5  c9.5-4.25,19-8.5,28.5-12.75C437.5,385.64,437.5,388.39,437.5,391.14z"/>
<path fill-rule="evenodd" clip-rule="evenodd" stroke="#000000" stroke-width="1.25" stroke-linecap="square" stroke-miterlimit="10" d="  M361,396.39c8.926,7.303,18.086,16.181,27.75,19.5C379.981,409.126,369.75,400.536,361,396.39z"/>
<path fill-rule="evenodd" clip-rule="evenodd" fill="#137827" stroke="#000000" stroke-width="1.25" stroke-linecap="square" stroke-miterlimit="10" d="  M359.5,400.89c-28.532-12.659-10.27-38.617,9.75-6.75C365.71,395.94,362.985,399.232,359.5,400.89z"/>
<path fill-rule="evenodd" clip-rule="evenodd" stroke="#000000" stroke-linecap="square" stroke-miterlimit="10" d="M403.75,412.14  c-0.19,0.516,3.117,4.942,3,6.75c-6.067-3.026-5.992-3.437-9-9C398.873,409.711,404.454,411.694,403.75,412.14z"/>
<path fill-rule="evenodd" clip-rule="evenodd" stroke="#000000" stroke-linecap="square" stroke-miterlimit="10" d="M391.75,417.39  c1.431-0.947,2.389,5.128,2.25,6c-5.224-2.998-6.141-3.497-9-9C386.844,414.137,391.942,417.33,391.75,417.39z"/>
</svg>