<svg xmlns="http://www.w3.org/2000/svg" xmlns:xlink="http://www.w3.org/1999/xlink" version="1.1" id="Layer_1" x="0px" y="0px" enable-background="new 0 0 822.05 841.89" xml:space="preserve" viewBox="214.13 249.29 396.97 343.3">
<path fill-rule="evenodd" clip-rule="evenodd" fill="#F7931E" stroke="#000000" stroke-width="2" stroke-linecap="square" stroke-miterlimit="10" d="  M466.75,287.89c-64.094-36.587-72.531,81.367-51,116.25c12.353,20.012,30.552,30.747,52.5,34.5c22.806,3.899,55.007,6.51,78.75-0.75  c54.519-16.668,90.588-102.601,36-142.5C558.819,277.716,489.093,259.876,466.75,287.89z"/>
<path fill="none" stroke="#000000" stroke-width="2" stroke-linecap="square" stroke-miterlimit="10" d="M498.25,304.39  c-19.581,30.494-15.767,96.056-10.5,130.5"/>
<path fill="none" stroke="#000000" stroke-width="2" stroke-linecap="square" stroke-miterlimit="10" d="M525.25,297.64  c62.447-2.413,70.478,99.125,34.5,133.5"/>
<path fill="none" stroke="#000000" stroke-width="2" stroke-linecap="square" stroke-miterlimit="10" d="M485.5,295.39  c-56.182-15.875-56.914,93.46-56.25,123.75"/>
<path fill-rule="evenodd" clip-rule="evenodd" fill="#30AA49" stroke="#000000" stroke-width="2" stroke-linecap="square" stroke-miterlimit="10" d="  M484,257.14c7.705,10.388,18.849,41.632,0,36.75c8.715,18.62,28.175,6.746,43.5,3C523.315,283.75,501.815,231.841,484,257.14z"/>
<path fill-rule="evenodd" clip-rule="evenodd" fill="#30AA49" d="M484.75,260.89c5.966-2.939,9.894-2.25,13.5-9  C493.752,254.889,489.307,257.981,484.75,260.89z"/>
<path fill="none" stroke="#000000" stroke-width="2" stroke-linecap="square" stroke-miterlimit="10" d="M484.75,260.89  c5.969-0.703,10.682-3.725,13.5-9"/>
<line fill="none" stroke="#000000" stroke-width="2" stroke-linecap="square" stroke-miterlimit="10" x1="466.75" y1="287.89" x2="474.25" y2="294.64"/>
<path fill="none" stroke="#000000" stroke-width="2" stroke-linecap="square" stroke-miterlimit="10" d="M555.25,286.39  c-10.077,1.75-19.525,4.723-27.75,10.5"/>
<path fill-rule="evenodd" clip-rule="evenodd" fill="#F7931E" stroke="#000000" stroke-width="2" stroke-linecap="square" stroke-miterlimit="10" d="  M277,339.64c-59.713-40.493-72.904,77.95-53.625,111c11.276,19.331,29.375,36.531,52.125,39.375  c21.924,2.74,56.583,8.014,78.375,0.75c53.597-17.865,97.938-101.57,39.375-144.375C369.215,328.823,298.178,310.63,277,339.64z"/>
<path fill="none" stroke="#000000" stroke-width="2" stroke-linecap="square" stroke-miterlimit="10" d="M308.5,355.39  c-20.477,32.761-13.483,94.319-11.25,131.25"/>
<path fill="none" stroke="#000000" stroke-width="2" stroke-linecap="square" stroke-miterlimit="10" d="M335.5,348.64  c61.25-3.651,72.451,102.746,33.75,133.5"/>
<path fill="none" stroke="#000000" stroke-width="2" stroke-linecap="square" stroke-miterlimit="10" d="M295.75,346.39  c-56.565-13.876-56.942,92.207-56.25,123.75"/>
<path fill-rule="evenodd" clip-rule="evenodd" fill="#30AA49" stroke="#000000" stroke-width="2" stroke-linecap="square" stroke-miterlimit="10" d="  M294.25,308.89c7.492,9.979,18.761,41.693,0,36c10.768,17.623,25.664,7.271,42.75,3C333.989,335.337,309.449,281.365,294.25,308.89z  "/>
<path fill-rule="evenodd" clip-rule="evenodd" fill="#30AA49" d="M295,311.89c5.755-2.729,10.145-1.853,13.5-9  C304,305.89,299.496,308.883,295,311.89z"/>
<path fill="none" stroke="#000000" stroke-width="2" stroke-linecap="square" stroke-miterlimit="10" d="M295,311.89  c6.053-0.207,10.904-3.471,13.5-9"/>
<line fill="none" stroke="#000000" stroke-width="2" stroke-linecap="square" stroke-miterlimit="10" x1="277" y1="339.64" x2="284.5" y2="345.64"/>
<path fill="none" stroke="#000000" stroke-width="2" stroke-linecap="square" stroke-miterlimit="10" d="M365.5,337.39  c-10.176,1.562-19.871,4.983-28.5,10.5"/>
<path fill-rule="evenodd" clip-rule="evenodd" fill="#F7931E" stroke="#000000" stroke-width="2" stroke-linecap="square" stroke-miterlimit="10" d="  M440.5,437.14c-64.41-36.713-73.11,80.963-51.75,116.25c11.828,19.539,30.775,31.567,52.5,34.5  c24.144,3.259,54.535,6.682,78.75-0.75c54.856-16.836,93.373-107.111,33.75-144.375C529.38,427.534,461.401,408.875,440.5,437.14z"/>
<path fill="none" stroke="#000000" stroke-width="2" stroke-linecap="square" stroke-miterlimit="10" d="M471.25,453.64  c-17.717,36.419-13.894,91.943-10.5,131.25"/>
<path fill="none" stroke="#000000" stroke-width="2" stroke-linecap="square" stroke-miterlimit="10" d="M498.25,446.89  c61.176-3.036,73.744,102.08,34.5,133.5"/>
<path fill="none" stroke="#000000" stroke-width="2" stroke-linecap="square" stroke-miterlimit="10" d="M459.25,444.64  c-57.394-15.569-56.141,92.828-57,123.75"/>
<path fill-rule="evenodd" clip-rule="evenodd" fill="#30AA49" stroke="#000000" stroke-width="2" stroke-linecap="square" stroke-miterlimit="10" d="  M457.75,407.14c7.688,10.714,18.146,40.765-0.75,36c9.437,18.432,27.903,6.899,43.5,3  C497.401,434.897,471.807,378.089,457.75,407.14z"/>
<path fill-rule="evenodd" clip-rule="evenodd" fill="#30AA49" d="M458.5,410.14c5.366-2.894,9.786-3.194,13.5-9  C467.501,404.139,463.047,407.214,458.5,410.14z"/>
<path fill="none" stroke="#000000" stroke-width="2" stroke-linecap="square" stroke-miterlimit="10" d="M458.5,410.14  c5.662-0.986,10.377-4.118,13.5-9"/>
<line fill="none" stroke="#000000" stroke-width="2" stroke-linecap="square" stroke-miterlimit="10" x1="440.5" y1="437.14" x2="448" y2="443.89"/>
<path fill="none" stroke="#000000" stroke-width="2" stroke-linecap="square" stroke-miterlimit="10" d="M529,435.64  c-10.216,1.977-20.026,4.85-28.5,10.5"/>
</svg>