<svg xmlns="http://www.w3.org/2000/svg" xmlns:xlink="http://www.w3.org/1999/xlink" version="1.1" id="Layer_1" x="0px" y="0px" enable-background="new 0 0 822.05 841.89" xml:space="preserve" viewBox="346.08 247.67 138.42 348.97">
<path fill-rule="evenodd" clip-rule="evenodd" fill="#EC008C" stroke="#000000" stroke-width="2" stroke-linecap="square" stroke-miterlimit="10" d="  M439.25,487.171c2.719-6.002,9.292-11.357,13.5-16.5c18.485,12.899,6.437,40.28-16.5,38.25  C437.202,502.017,436.82,493.659,439.25,487.171z"/>
<path fill-rule="evenodd" clip-rule="evenodd" fill="#8A5C31" stroke="#000000" stroke-width="2" stroke-linecap="square" stroke-miterlimit="10" d="  M381.5,257.669c9.387-17.497,25.215-0.302,38.75,6.917c8.693,4.637,35.253-12.119,44.5-15.917c11.024,16.756-6.814,19.864-19.5,27  c7.18,1.892,13.171,8.216,20.25,10.5c-13.113,30.727-23.479-1.896-42-1.5c-17.915,0.382-31.265,35.175-45,6.75  c9.25-6.25,18.5-12.5,27.75-18.75C398,267.669,389.75,262.669,381.5,257.669z"/>
<path fill-rule="evenodd" clip-rule="evenodd" fill="#EAB649" stroke="#000000" stroke-width="2" stroke-linecap="square" stroke-miterlimit="10" d="  M437,492.421c-1.177,41.055-58.975,41.122-59.25,0C377.471,450.609,436.479,450.499,437,492.421z"/>
<path fill-rule="evenodd" clip-rule="evenodd" fill="#EC008C" stroke="#000000" stroke-width="2" stroke-linecap="square" stroke-miterlimit="10" d="  M392,522.421c29.082,12.954,36.043-19.512,65.25-9.75c-20.297,16.115,4.785,32.634-12,43.125c-9.49,5.932-18.595,10.125-30,10.125  C383.574,565.921,371.502,548.428,392,522.421z"/>
<path fill-rule="evenodd" clip-rule="evenodd" fill="#EAB649" stroke="#000000" stroke-width="2" stroke-linecap="square" stroke-miterlimit="10" d="  M443,505.171c7.749-17.503,35.594-19.188,24.75,3.75c2.5,0,5,0,7.5,0C464.608,517.413,447.586,513.121,443,505.171z"/>
<path fill-rule="evenodd" clip-rule="evenodd" fill="#00AEEF" stroke="#000000" stroke-width="2" stroke-linecap="square" stroke-miterlimit="10" d="  M380.75,556.921c-26.386,8.257-12.82,19.894-2.25,36c23.956-15.971,30.933-29.769,56.25-15c32.586,19.008,41.965-23.454,19.5-28.5  c-4.545-1.021-27.229,15.028-36,16.125C405.113,567.189,391.989,563.856,380.75,556.921z"/>
<line fill="none" stroke="#000000" stroke-width="2" stroke-linecap="square" stroke-miterlimit="10" x1="337.25" y1="527.671" x2="337.25" y2="527.671"/>
<path fill-rule="evenodd" clip-rule="evenodd" fill="#6D6F71" stroke="#000000" stroke-width="2" stroke-linecap="square" stroke-miterlimit="10" d="  M360.5,569.671c-28.779-16.169-5.584,31.159,16.5,25.5C371.5,586.671,366,578.171,360.5,569.671z"/>
<path fill-rule="evenodd" clip-rule="evenodd" fill="#6D6F71" stroke="#000000" stroke-width="2" stroke-linecap="square" stroke-miterlimit="10" d="  M454.25,587.671c7.514-10.985,15.969-24.756,29.25-24C480.562,578.155,470.259,591.774,454.25,587.671z"/>
<path fill-rule="evenodd" clip-rule="evenodd" fill="#EAB649" stroke="#000000" stroke-width="2" stroke-linecap="square" stroke-miterlimit="10" d="  M456.5,472.171c-1.42-7.551,0.583-24.306,12-17.25C480.215,462.162,470.574,484.94,456.5,472.171z"/>
<line fill="none" stroke="#000000" stroke-width="2" stroke-linecap="square" stroke-miterlimit="10" x1="384.5" y1="299.669" x2="362.75" y2="568.921"/>
<line fill="none" stroke="#000000" stroke-width="2" stroke-linecap="square" stroke-miterlimit="10" x1="396.5" y1="301.919" x2="396.5" y2="459.421"/>
<line fill="none" stroke="#000000" stroke-width="2" stroke-linecap="square" stroke-miterlimit="10" x1="447.5" y1="299.669" x2="446.75" y2="497.671"/>
<line fill="none" stroke="#000000" stroke-width="2" stroke-linecap="square" stroke-miterlimit="10" x1="465.5" y1="286.169" x2="472.25" y2="565.171"/>
<line fill="none" stroke="#000000" stroke-width="2" stroke-linecap="square" stroke-miterlimit="10" x1="456.5" y1="298.169" x2="460.25" y2="454.171"/>
</svg>