<svg xmlns="http://www.w3.org/2000/svg" xmlns:xlink="http://www.w3.org/1999/xlink" version="1.1" id="Layer_1" x="0px" y="0px" enable-background="new 0 0 822.05 841.89" xml:space="preserve" viewBox="311.79 344.04 201.26 154.86">
<path fill-rule="evenodd" clip-rule="evenodd" stroke="#000000" stroke-width="1.25" stroke-linecap="square" stroke-miterlimit="10" d="  M374.193,489.64C419.205,479.078,370.045,513.55,374.193,489.64L374.193,489.64z"/>
<path fill-rule="evenodd" clip-rule="evenodd" stroke="#000000" stroke-width="1.25" stroke-linecap="square" stroke-miterlimit="10" d="  M345.693,460.39c6.104-11.268,12.192-22.509,19.5-33c13.132,25.428-34.08,44.679-51,43.5  C324.693,467.39,335.193,463.89,345.693,460.39z"/>
<path fill-rule="evenodd" clip-rule="evenodd" stroke="#000000" stroke-width="1.25" stroke-linecap="square" stroke-miterlimit="10" d="  M316.443,471.64C337.933,507.488,300.627,475.553,316.443,471.64L316.443,471.64z"/>
<path fill-rule="evenodd" clip-rule="evenodd" stroke="#000000" stroke-width="1.25" stroke-linecap="square" stroke-miterlimit="10" d="  M381.693,454.39c-2.552,12.77-3.661,29.374-9.75,36.75c2.164-17.312,8.608-32.936-3-47.25  C376.318,444.487,377.064,448.778,381.693,454.39z"/>
<path fill-rule="evenodd" clip-rule="evenodd" fill="#392170" stroke="#000000" stroke-width="1.25" stroke-linecap="square" stroke-miterlimit="10" d="  M376.443,424.39c-4.683-0.835-24.165-6.127-28.5-3c-13.915,10.037-7.102,37.502,9,40.5c0.665-6.27,5.172-12.476,5.25-18.75  c1.349,5.353,6.373,9.78,8.25,15C387.964,450.805,384.057,438.286,376.443,424.39z"/>
<path fill-rule="evenodd" clip-rule="evenodd" stroke="#000000" stroke-width="1.25" stroke-linecap="square" stroke-miterlimit="10" d="  M371.943,384.64c6.113,12.738,7.738,22.574,15.75,29.25c3.941,3.284,16.708,3.189,22.5,6c-4.752-0.911-26.756-0.558-30.75-3.75  C375.732,413.174,359.75,378.132,371.943,384.64z"/>
<path fill-rule="evenodd" clip-rule="evenodd" stroke="#000000" stroke-width="1.25" stroke-linecap="square" stroke-miterlimit="10" d="  M415.443,419.14c-5.843-0.179-10.617,3.119-15-3.75C407.658,412.908,410.138,416.967,415.443,419.14z"/>
<path fill-rule="evenodd" clip-rule="evenodd" fill="#137827" stroke="#000000" stroke-width="1.25" stroke-linecap="square" stroke-miterlimit="10" d="  M382.443,392.89C370.55,335.699,350.81,420.807,382.443,392.89L382.443,392.89z"/>
<path fill-rule="evenodd" clip-rule="evenodd" fill="#137827" stroke="#000000" stroke-width="1.25" stroke-linecap="square" stroke-miterlimit="10" d="  M362.943,422.89c22.96,11.58,26.897-40.034,9.75-45.75C350.487,369.738,334.251,418.974,362.943,422.89z"/>
<path fill-rule="evenodd" clip-rule="evenodd" stroke="#000000" stroke-width="1.25" stroke-linecap="square" stroke-miterlimit="10" d="  M362.943,386.14c2.132,13.358,2.396,23.894,9,32.25c3.711,4.696,16.66,6.549,20.25,11.25c-8.486-4.929-28.255-7.067-28.875-15.75  C362.543,403.037,351.784,383.129,362.943,386.14z"/>
<path fill-rule="evenodd" clip-rule="evenodd" stroke="#000000" stroke-width="1.25" stroke-linecap="square" stroke-miterlimit="10" d="  M403.443,431.89c-5.217-1.28-10.105,0.395-15-5.25C395.536,423.175,397.658,428.207,403.443,431.89z"/>
<path fill-rule="evenodd" clip-rule="evenodd" fill="#137827" stroke="#000000" stroke-width="1.25" stroke-linecap="square" stroke-miterlimit="10" d="  M368.943,402.64C382.747,347.012,329.037,412.4,368.943,402.64L368.943,402.64z"/>
<path fill="none" stroke="#000000" stroke-width="1.25" stroke-linecap="square" stroke-miterlimit="10" d="M348.693,428.14  c0.441,7.949,5.452,13.254,13.5,15"/>
<path fill-rule="evenodd" clip-rule="evenodd" fill="#137827" stroke="#000000" stroke-width="1.25" stroke-linecap="square" stroke-miterlimit="10" d="  M347.943,419.89c5.742,0.359,11.502,0.5,17.25,0.75C359.743,419.167,350.463,419.91,347.943,419.89z"/>
<path fill-rule="evenodd" clip-rule="evenodd" fill="#EED5B6" stroke="#000000" stroke-width="1.25" stroke-linecap="square" stroke-miterlimit="10" d="  M386.943,363.64c-6.999,24.665-34.525,9.572-24.75-12.75C369.384,357.053,377.884,361.463,386.943,363.64z"/>
<path fill-rule="evenodd" clip-rule="evenodd" fill="#392170" stroke="#000000" stroke-width="1.5" stroke-linecap="square" stroke-miterlimit="10" d="  M362.943,350.14c10.495,9.025,24.955,14.733,38.25,15.75C389.458,358.949,381.275,333.961,362.943,350.14z"/>
<path fill-rule="evenodd" clip-rule="evenodd" fill="#D9D8DB" stroke="#000000" stroke-width="1.25" stroke-linecap="square" stroke-miterlimit="10" d="  M483.695,467.89c19.726-1.403,32.428-18.133,27.75-37.5c-13.75,4.5-27.5,9-41.25,13.5C474.695,451.89,479.195,459.89,483.695,467.89  z"/>
<path fill-rule="evenodd" clip-rule="evenodd" fill="#D9D8DB" stroke="#000000" stroke-width="1.25" stroke-linecap="square" stroke-miterlimit="10" d="  M418.443,436.39c0.131,29.232,46.859,38.446,68.252,27.75C542.146,436.415,432.99,432.375,418.443,436.39z"/>
<path fill-rule="evenodd" clip-rule="evenodd" fill="#D9D8DB" stroke="#000000" stroke-width="1.25" stroke-linecap="square" stroke-miterlimit="10" d="  M418.443,434.14c25.169-17.603,64.693-5.793,93.002-3.75C503.829,455.261,439.051,436.128,418.443,434.14z"/>
<path fill="none" stroke="#000000" stroke-width="1.25" stroke-linecap="square" stroke-miterlimit="10" d="M420.693,434.14  c-12.75-3.25-25.5-6.5-38.25-9.75c21.431-13.504,34.295-6.161,57.002,0.75"/>
<path fill-rule="evenodd" clip-rule="evenodd" fill="#D9D8DB" stroke="#000000" stroke-width="1.25" stroke-linecap="square" stroke-miterlimit="10" d="  M484.445,470.89c0.182,21.17-30.373,28.887-34.875,6.375C444.879,453.806,478.175,448.514,484.445,470.89z"/>
<path fill-rule="evenodd" clip-rule="evenodd" fill="#D9D8DB" stroke="#000000" stroke-width="1.25" stroke-linecap="square" stroke-miterlimit="10" d="  M473.195,472.39C457.899,488.814,457.22,459.046,473.195,472.39L473.195,472.39z"/>
<path fill-rule="evenodd" clip-rule="evenodd" stroke="#000000" stroke-width="1.25" stroke-linecap="square" stroke-miterlimit="10" d="  M441.695,394.39c-14.29-0.454-48.547-10.169-48.002,8.25c16.058,0.51,43.407-5.521,47.252,9c9.5-4.25,19-8.5,28.5-12.75  c-9.25-4.25-18.5-8.5-27.75-12.75C441.695,388.89,441.695,391.64,441.695,394.39z"/>
</svg>