<svg xmlns="http://www.w3.org/2000/svg" xmlns:xlink="http://www.w3.org/1999/xlink" version="1.1" id="Layer_1" x="0px" y="0px" enable-background="new 0 0 822.05 841.89" xml:space="preserve" viewBox="317.75 334.93 188.43 172.24">
<path fill-rule="evenodd" clip-rule="evenodd" fill="#D1D1D1" d="M325.125,448.798L325.125,448.798L325.125,448.798z"/>
<line fill="none" stroke="#000000" stroke-width="1.25" stroke-linecap="square" stroke-miterlimit="10" x1="325.125" y1="448.798" x2="325.125" y2="448.798"/>
<path fill-rule="evenodd" clip-rule="evenodd" fill="#D1D1D1" stroke="#000000" stroke-width="1.25" stroke-linecap="square" stroke-miterlimit="10" d="  M496.875,458.548c-33.711,6.444-73.354,1.5-108.026,1.5c-6.819,0-83.799,10.298-64.474-18c7.56-11.071,84.944-1.5,97.793-1.5  C440.28,440.548,506.897,425.267,496.875,458.548z"/>
<path fill-rule="evenodd" clip-rule="evenodd" fill="#D1D1D1" stroke="#000000" stroke-width="1.25" stroke-linecap="square" stroke-miterlimit="10" d="  M496.875,469.048c-32.335,0-64.671,0-97.006,0c-5.461,0-102.185,7.228-75.494-19.5c10.226-10.24,82.477,0,97.006,0  C441.296,449.548,507.907,434.607,496.875,469.048z"/>
<path fill-rule="evenodd" clip-rule="evenodd" fill="#D1D1D1" stroke="#000000" stroke-width="1.25" stroke-linecap="square" stroke-miterlimit="10" d="  M325.875,415.8c-3.669,19.891,34.35,43.729,43.5,24.748C378.625,421.361,338.354,406.31,325.875,415.8z"/>
<path fill-rule="evenodd" clip-rule="evenodd" fill="#D1D1D1" stroke="#000000" stroke-width="1.25" stroke-linecap="square" stroke-miterlimit="10" d="  M363.375,426.298c31.792-5.965,67.172-14.613,99.75-11.248c17.414,1.799,47.331,11.331,23.25,29.998  c-15.886,12.314-78.782,3.541-99,2.25C374.171,446.456,339.526,443.479,363.375,426.298z"/>
<path fill-rule="evenodd" clip-rule="evenodd" fill="#D1D1D1" stroke="#000000" stroke-width="1.25" stroke-linecap="square" stroke-miterlimit="10" d="  M318.375,506.548c16.691-6.296,6-103.713,6-126.748c-2,0-4,0-6,0C318.375,422.049,318.375,464.299,318.375,506.548z"/>
<path fill-rule="evenodd" clip-rule="evenodd" fill="#D1D1D1" stroke="#000000" stroke-width="1.25" stroke-linecap="square" stroke-miterlimit="10" d="  M496.875,505.798c15.756-8.279,5.25-93.576,5.25-116.248c-1.75,0-3.5,0-5.25,0C496.875,428.299,496.875,467.049,496.875,505.798z"/>
<path fill-rule="evenodd" clip-rule="evenodd" fill="#D1D1D1" stroke="#000000" stroke-width="1.25" stroke-linecap="square" stroke-miterlimit="10" d="  M449.625,370.05c-1.934-6.245-6.28,9.415-11.25,17.25c-0.962-5.058-5.3-16.07-10.125-18c-17.09-6.836,1.302-10.321-5.625-18.75  c-4.294-5.226-3.83-21.688-15.75-12c-7.505,6.1-3.361,19.629,1.5,25.5c-20.833,4.854-20.614,40.93-41.25,54  c0.004,0.274,4.081-0.365,4.5,0c-7.222,22.348,22.99-15.656,27-27c5.976,17.56-1.738,43.679-0.75,62.998  c0.908,17.751,8.688,43.343-11.25,51c30.999,5.657,22.268-51.559,26.25-75.75c1.461,23.539-4.98,83.126,26.25,75.75  c-20.725-7.262-14.931-38.646-11.625-57.375c3.645-20.653-10.404-46.989-0.375-64.123c13.252,31.03,24.563-8.766,35.25-20.25  C455.972,363.412,454.352,366.719,449.625,370.05z"/>
<path fill-rule="evenodd" clip-rule="evenodd" fill="#FB0F0C" stroke="#000000" stroke-linecap="square" stroke-miterlimit="10" d="  M390.375,386.55c-0.138-11.582,6.408-20.711,18-22.5c5.052,6.731,36.477,0.821,22.5,24.75c-1.5-1.5-3-3-4.5-4.5  c1.646,7.604-0.897,16.25,0,24c-9.25-0.75-18.5-1.5-27.75-2.25c1.412-6.792,0.205-15.471,3-21.75c-1.75,3.5-3.5,7-5.25,10.5  C394.375,392.05,392.375,389.3,390.375,386.55z"/>
<path fill-rule="evenodd" clip-rule="evenodd" fill="#FB0F0C" stroke="#000000" stroke-linecap="square" stroke-miterlimit="10" d="  M398.625,406.05c-2.848,18.268-19.357,85.919,11.25,81.748c1-19.5,2-39,3-58.5c1.864,20.502,11.553,90.626,16.875,35.625  C433.352,427.706,438.071,409.249,398.625,406.05z"/>
</svg>