<svg xmlns="http://www.w3.org/2000/svg" xmlns:xlink="http://www.w3.org/1999/xlink" version="1.1" id="Layer_1" x="0px" y="0px" enable-background="new 0 0 822.05 841.89" xml:space="preserve" viewBox="305.89 340.14 209.95 163.72">
<path fill-rule="evenodd" clip-rule="evenodd" fill="#EED5B6" stroke="#000000" stroke-width="1.25" stroke-linecap="square" stroke-miterlimit="10" d="  M341.018,436.767c13.045-1.598,22.899-11.498,24.75-16.125c1.412-3.53,23.449,3.762,29.25,8.625  c16.608,13.922,8.39,20.966,2.379,44.633C390.343,501.674,320.021,477.515,341.018,436.767z"/>
<path fill-rule="evenodd" clip-rule="evenodd" fill="#FF9900" stroke="#000000" stroke-width="1.25" stroke-linecap="square" stroke-miterlimit="10" d="  M336.518,471.267c-1.75,10.25-3.5,20.5-5.25,30.75c30.251,0,60.502,0,90.754,0c-0.75-9.75-1.5-19.5-2.25-29.25  c3.084,30.064,0.594,29.25,30.75,29.25c-4.812-20.815-13.559-76.692-46.504-70.5c-9.297,1.747-10.922,20.285-29.25,18  c-19.873-2.478-18.173-21.881-38.25-16.5c-24.356,6.527-25.958,49.104-30,69C334.656,507.403,331.974,494.552,336.518,471.267z"/>
<path fill-rule="evenodd" clip-rule="evenodd" fill="#EED5B6" stroke="#000000" stroke-width="1.25" stroke-linecap="square" stroke-miterlimit="10" d="  M349.268,406.017C351.269,434.026,323.89,394.14,349.268,406.017L349.268,406.017z"/>
<path fill-rule="evenodd" clip-rule="evenodd" fill="#EED5B6" stroke="#000000" stroke-width="1.25" stroke-linecap="square" stroke-miterlimit="10" d="  M416.021,386.517C401.708,413.042,401.708,359.992,416.021,386.517L416.021,386.517z"/>
<path fill-rule="evenodd" clip-rule="evenodd" fill="#EED5B6" stroke="#000000" stroke-width="1.25" stroke-linecap="square" stroke-miterlimit="10" d="  M338.018,387.267c5.072,45.518,71.25,64.642,71.25,9C409.268,334.955,329.545,330.194,338.018,387.267z"/>
<path fill-rule="evenodd" clip-rule="evenodd" fill="#FFFFFF" stroke="#000000" stroke-width="1.25" stroke-linecap="square" stroke-miterlimit="10" d="  M464.771,340.767c-35.696,0.177-74.456,43.163-27,60.75c-6.758,6.682-15.364,9.834-24.754,9c23.68,6.779,70.671-1.25,90.004-15.75  C537.54,368.878,490.424,340.895,464.771,340.767z"/>
<path fill-rule="evenodd" clip-rule="evenodd" fill="#392170" stroke="#000000" stroke-width="1.25" stroke-linecap="square" stroke-miterlimit="10" d="  M336.518,471.267c-2,10.25-4,20.5-6,30.75C333.016,493.266,334.808,481.279,336.518,471.267z"/>
<path fill-rule="evenodd" clip-rule="evenodd" fill="#63211C" stroke="#000000" stroke-linecap="square" stroke-miterlimit="10" d="  M400.268,401.517c-7.368,6.219-16.362,8.113-25.5,5.25C381.528,428.31,399.114,422.079,400.268,401.517z"/>
<path fill-rule="evenodd" clip-rule="evenodd" d="M460.271,385.767c2.32-11.25,23.619-38.392-6.75-26.25c-0.75-1.5-1.5-3-2.25-4.5  C488.656,341.322,482.387,377.686,460.271,385.767z M464.021,399.267C459.462,389.436,468.581,389.436,464.021,399.267  L464.021,399.267z"/>
</svg>