<svg xmlns="http://www.w3.org/2000/svg" xmlns:xlink="http://www.w3.org/1999/xlink" version="1.1" id="Layer_1" x="0px" y="0px" enable-background="new 0 0 822.05 841.89" xml:space="preserve" viewBox="199.42 265.17 421.56 312.21">
<path fill-rule="evenodd" clip-rule="evenodd" fill="#DEDFE0" stroke="#000000" stroke-width="2" stroke-linecap="square" stroke-miterlimit="10" d="  M350.416,328.89c18.8,10.626,21.12,41.057,2.25,52.5c18.523,12.034,21.954-11.314,33-22.5c-1.113,11.698-4.867,23.409-12.75,32.25  c22.789,9.467,30.43-21.84,39.916-37.734c14.048-23.539,39.856,12.928,54.586,21.234c-6.514,2.715-10.833,10.524-17.25,13.5  c15.936,8.841,41.564,26.678,50.25-5.25c3.174-11.667-13.13-15.945-2.723-29.556c7.824-10.231,16.356-20.497,18.473-32.694  c5.226,1.714,109.029,73.823,92.25,31.875c-14.661-36.653-60.396-38.633-86.25-54.375c-9.083-5.531-14.323-22.059-28.5-27.375  c-22.537-8.452-44.9-3.832-67.5,2.625c-29.405,8.401-41.847,5.206-73.502,3c-20.788-1.449-38.421,6.351-58.5,2.25  c4.526,12.439,7.906,50.236,22.5,56.25C324.063,337.938,335.31,320.842,350.416,328.89z"/>
<path fill="none" stroke="#000000" stroke-width="2" stroke-linecap="square" stroke-miterlimit="10" d="M301.666,300.39  c4.928-7.853,11.345-14.81,18.75-20.25"/>
<path fill="none" stroke="#000000" stroke-width="2" stroke-linecap="square" stroke-miterlimit="10" d="M339.166,291.39  c5.386-2.739,12.834-3.08,18.75-4.5c0.113,4.543-1.219,11.57-3,15.75C349.944,299.089,343.153,295.966,339.166,291.39z"/>
<path fill="none" stroke="#000000" stroke-width="2" stroke-linecap="square" stroke-miterlimit="10" d="M364.666,318.39  c4.528,14.283,10.058,28.664,21,39"/>
<line fill="none" stroke="#000000" stroke-width="2" stroke-linecap="square" stroke-miterlimit="10" x1="430.668" y1="324.39" x2="417.168" y2="346.14"/>
<line fill="none" stroke="#000000" stroke-width="2" stroke-linecap="square" stroke-miterlimit="10" x1="434.418" y1="346.89" x2="446.418" y2="345.39"/>
<path fill="none" stroke="#000000" stroke-width="2" stroke-linecap="square" stroke-miterlimit="10" d="M458.418,319.14  c-29.29,27.966,6.178,46.327,27.75,62.25c-6.028,4.823-12.046,11.206-18.75,15"/>
<line fill="none" stroke="#000000" stroke-width="2" stroke-linecap="square" stroke-miterlimit="10" x1="360.916" y1="339.39" x2="373.666" y2="343.14"/>
<path fill-rule="evenodd" clip-rule="evenodd" fill="#6D6F71" stroke="#000000" stroke-width="2" stroke-linecap="square" stroke-miterlimit="10" d="  M337.666,323.64c-7.935-4.301-23.349-24.993-4.125-19.5C347.606,308.159,361.18,328.722,337.666,323.64z"/>
<path fill-rule="evenodd" clip-rule="evenodd" fill="#6D6F71" stroke="#000000" stroke-width="2" stroke-linecap="square" stroke-miterlimit="10" d="  M303.916,307.14c16.567-6.587,16.625,7.465,3.75,15.75C306.462,317.834,304.123,312.31,303.916,307.14z"/>
<path fill="none" stroke="#000000" stroke-width="2" stroke-linecap="square" stroke-miterlimit="10" d="M329.416,308.64  c4.675,2.498,9.405-3.228,9,6.75C333.404,314.691,333.45,310.796,329.416,308.64z"/>
<path fill="none" stroke="#000000" stroke-width="2" stroke-linecap="square" stroke-miterlimit="10" d="M309.166,310.89  C313.307,306.818,314.052,306.085,309.166,310.89L309.166,310.89z"/>
<path fill-rule="evenodd" clip-rule="evenodd" fill="#967A66" stroke="#000000" stroke-width="2" stroke-linecap="square" stroke-miterlimit="10" d="  M314.416,330.39c4.858-0.577,3.921-6.693,9.75-1.5c-1.75,2.25-3.5,4.5-5.25,6.75C317.416,333.89,315.916,332.14,314.416,330.39z"/>
<path fill-rule="evenodd" clip-rule="evenodd" fill="#6D6F71" stroke="#000000" stroke-width="2" stroke-linecap="square" stroke-miterlimit="10" d="  M541.668,301.89c0.665,10.665-3.785,19.961-13.5,24C543.436,337.13,562.312,311.566,541.668,301.89z"/>
<path fill-rule="evenodd" clip-rule="evenodd" fill="#6D6F71" stroke="#000000" stroke-width="2" stroke-linecap="square" stroke-miterlimit="10" d="  M563.418,315.39c-0.66,11.642-6.705,21.246-18,23.25C560.48,355.443,582.426,324.373,563.418,315.39z"/>
<path fill-rule="evenodd" clip-rule="evenodd" fill="#6D6F71" stroke="#000000" stroke-width="2" stroke-linecap="square" stroke-miterlimit="10" d="  M585.168,328.89c0.413,12.527-5.959,23.702-18.75,25.5C583.884,368.835,604.773,341.26,585.168,328.89z"/>
<path fill-rule="evenodd" clip-rule="evenodd" fill="#6D6F71" stroke="#000000" stroke-width="2" stroke-linecap="square" stroke-miterlimit="10" d="  M606.168,351.39c-5.183,5.96-3.233,11.7-12,14.25c4.241,1.396,11.311,2.013,15.75,1.5  C609.923,361.794,608.729,355.961,606.168,351.39z"/>
<path fill-rule="evenodd" clip-rule="evenodd" fill="#DEDFE0" stroke="#000000" stroke-width="2" stroke-linecap="square" stroke-miterlimit="10" d="  M256.666,416.64c19.258,10.117,20.802,41.001,2.25,52.5c19.18,12.244,22.389-11.38,33-22.5c-1.499,11.816-4.541,23.543-12.75,32.25  c22.782,9.369,30.365-21.732,39.914-37.734c13.77-23.074,40.396,12.228,54.586,21.234c-6.514,2.715-10.833,10.523-17.25,13.5  c15.844,8.463,41.046,26.96,50.25-5.25c3.218-11.264-13.468-16.253-2.722-30.306c7.738-10.119,16.427-19.828,18.474-31.944  c5.745,1.884,108.879,73.447,92.25,31.875c-14.667-36.668-59.809-38.715-86.25-55.125c-7.531-4.674-14.906-21.527-28.502-26.625  c-22.709-8.516-44.63-3.909-67.5,2.625c-29.358,8.388-41.821,5.578-73.5,3c-21.071-1.715-37.988,6.439-58.5,2.25  c4.368,12.006,8.037,50.556,22.5,56.25C231.332,425.954,240.875,407.693,256.666,416.64z"/>
<path fill="none" stroke="#000000" stroke-width="2" stroke-linecap="square" stroke-miterlimit="10" d="M207.916,388.14  c4.928-7.853,11.345-14.81,18.75-20.25"/>
<path fill="none" stroke="#000000" stroke-width="2" stroke-linecap="square" stroke-miterlimit="10" d="M245.416,379.14  c5.345-2.768,12.854-3.085,18.75-4.5c0.292,4.504-0.652,11.533-2.25,15.75C256.701,386.834,249.65,383.765,245.416,379.14z"/>
<path fill="none" stroke="#000000" stroke-width="2" stroke-linecap="square" stroke-miterlimit="10" d="M270.916,405.39  c4.094,14.324,9.885,28.995,21,39"/>
<line fill="none" stroke="#000000" stroke-width="2" stroke-linecap="square" stroke-miterlimit="10" x1="336.916" y1="411.39" x2="323.416" y2="433.89"/>
<line fill="none" stroke="#000000" stroke-width="2" stroke-linecap="square" stroke-miterlimit="10" x1="340.666" y1="434.64" x2="352.666" y2="432.39"/>
<path fill="none" stroke="#000000" stroke-width="2" stroke-linecap="square" stroke-miterlimit="10" d="M364.666,406.89  c-28.932,27.891,6.393,46.486,27.75,62.25c-5.701,4.333-12.173,11.533-18.75,14.25"/>
<line fill="none" stroke="#000000" stroke-width="2" stroke-linecap="square" stroke-miterlimit="10" x1="267.166" y1="427.14" x2="279.916" y2="430.89"/>
<path fill-rule="evenodd" clip-rule="evenodd" fill="#6D6F71" stroke="#000000" stroke-width="2" stroke-linecap="square" stroke-miterlimit="10" d="  M243.916,411.39c-7.935-4.3-23.349-24.993-4.125-19.5C254.083,395.974,267.57,416.254,243.916,411.39z"/>
<path fill-rule="evenodd" clip-rule="evenodd" fill="#6D6F71" stroke="#000000" stroke-width="2" stroke-linecap="square" stroke-miterlimit="10" d="  M210.916,394.89c17.08-6.705,15.354,7.788,3,15.75C212.95,405.568,210.931,400.032,210.916,394.89z"/>
<path fill="none" stroke="#000000" stroke-width="2" stroke-linecap="square" stroke-miterlimit="10" d="M235.666,396.39  c4.773,2.501,9.509-3.249,9,6.75C239.656,402.441,239.703,398.506,235.666,396.39z"/>
<path fill="none" stroke="#000000" stroke-width="2" stroke-linecap="square" stroke-miterlimit="10" d="M215.416,398.64  C219.557,394.568,220.302,393.835,215.416,398.64L215.416,398.64z"/>
<path fill-rule="evenodd" clip-rule="evenodd" fill="#967A66" stroke="#000000" stroke-width="2" stroke-linecap="square" stroke-miterlimit="10" d="  M220.666,418.14c4.406-0.56,3.978-6.699,9.75-1.5c-1.75,2.25-3.5,4.5-5.25,6.75C223.666,421.64,222.166,419.89,220.666,418.14z"/>
<path fill-rule="evenodd" clip-rule="evenodd" fill="#6D6F71" stroke="#000000" stroke-width="2" stroke-linecap="square" stroke-miterlimit="10" d="  M447.918,389.64c0.671,11.052-3.812,19.544-13.5,23.25C449.471,425.403,468.591,399.014,447.918,389.64z"/>
<path fill-rule="evenodd" clip-rule="evenodd" fill="#6D6F71" stroke="#000000" stroke-width="2" stroke-linecap="square" stroke-miterlimit="10" d="  M469.668,403.14c-0.015,11.603-6.264,21.621-18,23.25C466.949,443.326,489.17,411.882,469.668,403.14z"/>
<path fill-rule="evenodd" clip-rule="evenodd" fill="#6D6F71" stroke="#000000" stroke-width="2" stroke-linecap="square" stroke-miterlimit="10" d="  M491.418,416.64c0.687,12.63-5.808,23.653-18.75,25.5C490.356,456.785,510.86,428.763,491.418,416.64z"/>
<path fill-rule="evenodd" clip-rule="evenodd" fill="#6D6F71" stroke="#000000" stroke-width="2" stroke-linecap="square" stroke-miterlimit="10" d="  M512.418,439.14c-4.777,5.448-3.311,10.882-11.25,14.25c4.021,1.318,10.803,2.025,15,1.5  C516.173,449.552,514.988,443.701,512.418,439.14z"/>
<path fill-rule="evenodd" clip-rule="evenodd" fill="#DEDFE0" stroke="#000000" stroke-width="2" stroke-linecap="square" stroke-miterlimit="10" d="  M360.166,504.39c19.258,10.117,20.802,41.001,2.25,52.5c19.446,11.573,22.316-11.192,33-23.25  c-1.235,11.871-4.157,23.993-12.75,32.25c22.505,11.161,30.552-21.294,39.916-36.984c13.771-23.074,40.396,12.227,54.586,21.234  c-6.488,2.847-10.815,10.516-17.25,13.5c15.761,8.667,41.465,26.179,50.25-5.25c3.444-12.322-13.505-16.205-2.723-30.306  c7.95-10.396,16.729-20.045,18.473-32.694c5.461,2.049,108.876,74.189,92.25,32.625c-14.695-36.738-59.736-38.669-86.25-55.125  c-7.531-4.674-14.904-21.526-28.5-26.625c-23.624-8.859-43.509-2.891-67.5,2.25c-8.594,1.842-19.371,9.996-27.002,10.875  c-14.979,1.725-31.651-7.262-46.5-8.25c-21.292-1.417-37.904,7.206-58.5,3c4.336,11.917,8.209,50.513,22.5,56.25  C334.919,513.803,343.843,494.598,360.166,504.39z"/>
<path fill="none" stroke="#000000" stroke-width="2" stroke-linecap="square" stroke-miterlimit="10" d="M311.416,475.89  c4.928-7.853,11.345-14.81,18.75-20.25"/>
<path fill="none" stroke="#000000" stroke-width="2" stroke-linecap="square" stroke-miterlimit="10" d="M348.916,466.89  c5.345-2.768,12.854-3.085,18.75-4.5c0.292,4.504-0.652,11.533-2.25,15.75C360.201,474.584,353.15,471.515,348.916,466.89z"/>
<path fill="none" stroke="#000000" stroke-width="2" stroke-linecap="square" stroke-miterlimit="10" d="M374.416,493.14  c4.094,14.324,9.885,28.995,21,39"/>
<line fill="none" stroke="#000000" stroke-width="2" stroke-linecap="square" stroke-miterlimit="10" x1="440.418" y1="499.14" x2="426.918" y2="521.64"/>
<line fill="none" stroke="#000000" stroke-width="2" stroke-linecap="square" stroke-miterlimit="10" x1="444.168" y1="522.39" x2="456.168" y2="520.14"/>
<path fill="none" stroke="#000000" stroke-width="2" stroke-linecap="square" stroke-miterlimit="10" d="M468.168,494.64  c-29.874,27.054,7.249,47.118,27.75,62.25c-5.701,4.333-12.173,11.533-18.75,14.25"/>
<line fill="none" stroke="#000000" stroke-width="2" stroke-linecap="square" stroke-miterlimit="10" x1="370.666" y1="514.14" x2="383.416" y2="518.64"/>
<path fill-rule="evenodd" clip-rule="evenodd" fill="#6D6F71" stroke="#000000" stroke-width="2" stroke-linecap="square" stroke-miterlimit="10" d="  M347.416,499.14c-8.487-4.719-21.759-19.35-6.75-20.25C356.756,477.924,372.259,504.249,347.416,499.14z"/>
<path fill-rule="evenodd" clip-rule="evenodd" fill="#6D6F71" stroke="#000000" stroke-width="2" stroke-linecap="square" stroke-miterlimit="10" d="  M314.416,481.89c17.192-5.388,15.066,8.67,3,16.5C316.451,493.081,314.375,487.263,314.416,481.89z"/>
<path fill="none" stroke="#000000" stroke-width="2" stroke-linecap="square" stroke-miterlimit="10" d="M339.166,483.39  c4.888,3.125,9.678-2.098,9,7.5C342.717,490.126,343.326,486.05,339.166,483.39z"/>
<path fill="none" stroke="#000000" stroke-width="2" stroke-linecap="square" stroke-miterlimit="10" d="M318.916,486.39  c2.431-2.555-0.65-4.327,4.5-4.5C322.837,485.716,320.883,484.324,318.916,486.39z"/>
<path fill-rule="evenodd" clip-rule="evenodd" fill="#967A66" stroke="#000000" stroke-width="2" stroke-linecap="square" stroke-miterlimit="10" d="  M324.166,505.89c4.406-0.56,3.978-6.699,9.75-1.5c-1.75,2.25-3.5,4.5-5.25,6.75C327.166,509.39,325.666,507.64,324.166,505.89z"/>
<path fill-rule="evenodd" clip-rule="evenodd" fill="#6D6F71" stroke="#000000" stroke-width="2" stroke-linecap="square" stroke-miterlimit="10" d="  M551.418,476.64c0.797,10.988-3.677,20.172-13.5,24C552.834,512.999,571.902,487.125,551.418,476.64z"/>
<path fill-rule="evenodd" clip-rule="evenodd" fill="#6D6F71" stroke="#000000" stroke-width="2" stroke-linecap="square" stroke-miterlimit="10" d="  M573.168,490.89c-0.175,11.615-6.36,21.591-18,23.25C570.96,529.745,592.615,498.833,573.168,490.89z"/>
<path fill-rule="evenodd" clip-rule="evenodd" fill="#6D6F71" stroke="#000000" stroke-width="2" stroke-linecap="square" stroke-miterlimit="10" d="  M594.918,504.39c0.555,12.565-5.822,23.631-18.75,25.5C594.784,543.169,614.266,516.455,594.918,504.39z"/>
<path fill-rule="evenodd" clip-rule="evenodd" fill="#6D6F71" stroke="#000000" stroke-width="2" stroke-linecap="square" stroke-miterlimit="10" d="  M615.918,526.89c-4.777,5.448-3.311,10.882-11.25,14.25c4.021,1.318,10.803,2.025,15,1.5  C619.673,537.302,618.488,531.451,615.918,526.89z"/>
</svg>