<svg xmlns="http://www.w3.org/2000/svg" xmlns:xlink="http://www.w3.org/1999/xlink" version="1.1" id="Layer_1" x="0px" y="0px" enable-background="new 0 0 822.05 841.89" xml:space="preserve" viewBox="304.88 348.53 210.36 149.38">
<path fill-rule="evenodd" clip-rule="evenodd" fill="#B7B7B0" stroke="#000000" stroke-width="0.5" stroke-linecap="square" stroke-miterlimit="10" d="  M439.75,420.748c-36.5-23.5-73-47-109.5-70.5c19.04,7.723,39.433,23.274,57.75,34.875  C398.871,392.007,444.068,417.808,439.75,420.748z"/>
<path fill-rule="evenodd" clip-rule="evenodd" fill="#B7B7B0" stroke="#000000" stroke-width="0.5" stroke-linecap="square" stroke-miterlimit="10" d="  M327.25,349.498C330.21,348.912,333.71,348.22,327.25,349.498L327.25,349.498z"/>
<path fill-rule="evenodd" clip-rule="evenodd" fill="#333333" stroke="#000000" stroke-linecap="square" stroke-miterlimit="10" d="  M313,439.5c14.525-18.98,31.732-16.619,53.472-17.085c37.976-0.814,75.906-1.667,113.889-1.667  c26.984,0,45.423,42.619,26.889,63.002c-21.973,24.164-110.266,9.081-138.75,8.25C336.822,491.076,286.052,488.327,313,439.5z"/>
<path fill-rule="evenodd" clip-rule="evenodd" fill="#595757" stroke="#000000" stroke-width="0.5" stroke-linecap="square" stroke-miterlimit="10" d="  M382,433.5c0.092-0.012,6.123-1.552,7.5-1.5C387.912,434.683,385.641,433.053,382,433.5z"/>
<path fill-rule="evenodd" clip-rule="evenodd" fill="#595757" stroke="#000000" stroke-width="0.5" stroke-linecap="square" stroke-miterlimit="10" d="  M391.75,431.25c-1.298-0.311,3.312,2.045,6,1.5C395.916,430.044,394.72,431.96,391.75,431.25z"/>
<path fill-rule="evenodd" clip-rule="evenodd" fill="#595757" stroke="#000000" stroke-width="0.5" stroke-linecap="square" stroke-miterlimit="10" d="  M399.25,431.25c2.25-0.75,4.5-1.5,6.75-2.25C404.329,435.48,401.029,431.253,399.25,431.25z"/>
<path fill-rule="evenodd" clip-rule="evenodd" fill="#595757" stroke="#000000" stroke-width="0.5" stroke-linecap="square" stroke-miterlimit="10" d="  M407.5,431.25c-1.945-0.289,4.556,1.927,6.75,1.5C412.653,428.46,411.203,431.8,407.5,431.25z"/>
<path fill-rule="evenodd" clip-rule="evenodd" fill="#595757" stroke="#000000" stroke-width="0.5" stroke-linecap="square" stroke-miterlimit="10" d="  M416.5,430.5c-0.376-0.124,2.269,3.321,6.75,2.25C421.663,428.419,420.128,431.693,416.5,430.5z"/>
<path fill-rule="evenodd" clip-rule="evenodd" fill="#595757" stroke="#000000" stroke-width="0.5" stroke-linecap="square" stroke-miterlimit="10" d="  M425.5,429.75c-0.479-0.272,0.52,3.644,6,3C430.2,428.479,428.624,431.526,425.5,429.75z"/>
<path fill-rule="evenodd" clip-rule="evenodd" fill="#777676" stroke="#000000" stroke-width="0.5" stroke-linecap="square" stroke-miterlimit="10" d="  M367,441c-15.194,23.845,66.576,22.446,77.25,15C476.727,433.341,373.784,440.868,367,441z"/>
<path fill-rule="evenodd" clip-rule="evenodd" fill="#595757" stroke="#000000" stroke-linecap="square" stroke-miterlimit="10" d="  M307.75,458.25c9.381-33.457,52.893-13.787,58.125,12.375C373.13,506.899,305.242,496.227,307.75,458.25z"/>
<path fill-rule="evenodd" clip-rule="evenodd" fill="#595757" stroke="#000000" stroke-linecap="square" stroke-miterlimit="10" d="  M454.75,455.25c14.66-23.849,62.786-21.822,57.75,12.75C507.566,501.868,430.247,506.101,454.75,455.25z"/>
<path fill-rule="evenodd" clip-rule="evenodd" fill="#1E1D1D" stroke="#000000" stroke-width="0.5" stroke-linecap="square" stroke-miterlimit="10" d="  M382,470.25c-13.524,20.795,39.016,22.705,51,14.25C456.77,467.731,388.295,470.25,382,470.25z"/>
<path fill-rule="evenodd" clip-rule="evenodd" fill="#605E5E" stroke="#000000" stroke-width="0.5" stroke-linecap="square" stroke-miterlimit="10" d="  M383.5,429.75c3.604,1.049,6.443-3.86,6,2.25C385.203,433.051,382.957,429.591,383.5,429.75z"/>
<path fill-rule="evenodd" clip-rule="evenodd" fill="#605E5E" stroke="#000000" stroke-width="0.5" stroke-linecap="square" stroke-miterlimit="10" d="  M391.75,429.75c3.428,0.753,5.695-3.23,6,1.5C393.495,432.73,390.968,429.578,391.75,429.75z"/>
<path fill-rule="evenodd" clip-rule="evenodd" fill="#605E5E" stroke="#000000" stroke-width="0.5" stroke-linecap="square" stroke-miterlimit="10" d="  M400,429c3.396,1.192,5.72-2.409,6,2.25C401.465,432.36,399.783,428.923,400,429z"/>
<path fill-rule="evenodd" clip-rule="evenodd" fill="#605E5E" stroke="#000000" stroke-width="0.5" stroke-linecap="square" stroke-miterlimit="10" d="  M407.5,429c3.752,1.075,6.146-2.365,6.75,2.25C410.016,432.424,408.226,429.208,407.5,429z"/>
<path fill-rule="evenodd" clip-rule="evenodd" fill="#605E5E" stroke="#000000" stroke-width="0.5" stroke-linecap="square" stroke-miterlimit="10" d="  M416.5,429c3.396,1.192,5.72-2.409,6,2.25C417.966,432.36,416.283,428.923,416.5,429z"/>
<path fill-rule="evenodd" clip-rule="evenodd" fill="#605E5E" stroke="#000000" stroke-width="0.5" stroke-linecap="square" stroke-miterlimit="10" d="  M424.75,429c3.922,1.009,5.807-3.63,6.75,2.25C427.354,432.4,425.345,429.153,424.75,429z"/>
<path fill-rule="evenodd" clip-rule="evenodd" fill="#333333" stroke="#000000" stroke-width="0.5" stroke-linecap="square" stroke-miterlimit="10" d="  M367.75,428.25c-3.62-34.317,87.686-39.04,81.75,0C444.467,403.632,375.911,407.667,367.75,428.25z"/>
<path fill="none" stroke="#000000" stroke-linecap="square" stroke-miterlimit="10" d="M317.5,435.75  c16.927-7.437,38.528-1.187,53.25-8.25"/>
<path fill="none" stroke="#000000" stroke-linecap="square" stroke-miterlimit="10" d="M446.5,427.5  c17.645,3.812,44.815-4.175,61.5,10.5"/>
<path fill="none" stroke="#000000" stroke-width="0.5" stroke-linecap="square" stroke-miterlimit="10" d="M374.5,422.248  c-16.456,25.39,61.182,18.819,72,6.752"/>
<path fill-rule="evenodd" clip-rule="evenodd" fill="#303030" stroke="#000000" stroke-width="0.5" stroke-linecap="square" stroke-miterlimit="10" d="  M366.25,460.5c27-0.25,54-0.5,81-0.75c-9.271,21.034,8.924,33.877-18.228,33.588c-11.467-0.122-48.461,6.18-57.522-1.338  C370.569,491.227,368.375,464.338,366.25,460.5z"/>
<path fill-rule="evenodd" clip-rule="evenodd" stroke="#000000" stroke-width="0.5" stroke-linecap="square" stroke-miterlimit="10" d="  M453.25,422.998c4.409-0.693,7.639,2.24,7.5-3c2.872,1.123,4.264,1.603,9,3C465.879,423.621,458.46,423.863,453.25,422.998z"/>
<path fill-rule="evenodd" clip-rule="evenodd" fill="#CECCCC" stroke="#000000" stroke-width="0.5" stroke-linecap="square" stroke-miterlimit="10" d="  M383.5,480.75c16.25,0,32.5,0,48.75,0C419.843,486.68,392.397,486.547,383.5,480.75z"/>
</svg>