<svg xmlns="http://www.w3.org/2000/svg" xmlns:xlink="http://www.w3.org/1999/xlink" version="1.1" id="Layer_1" x="0px" y="0px" enable-background="new 0 0 822.05 841.89" xml:space="preserve" viewBox="302 354.64 219.22 133.75">
<path fill-rule="evenodd" clip-rule="evenodd" fill="#FB0F0C" stroke="#000000" stroke-linecap="square" stroke-miterlimit="10" d="  M418,364.89c-59.606-4.922-99.163,39.735-103.5,97.5c-1.75,0-3.5,0-5.25,0c-2.315-56.269,38.288-107.25,95.625-107.25  c62.646,0,97.217,49.853,109.125,107.25c-13.904-4.785-21.437-44.017-32.625-60C466.867,381.665,443.689,366.366,418,364.89z"/>
<path fill-rule="evenodd" clip-rule="evenodd" fill="#F7F619" stroke="#000000" stroke-linecap="square" stroke-miterlimit="10" d="  M415.75,382.89c-23.109-3.023-47.813,4.715-63.375,22.5c-11.486,13.127-21.703,55.192-32.625,57  c17.984-116.459,155.156-109.671,179.25,0c-16.059,0.2-24.525-41.489-37.5-55.5C449.322,393.74,434.047,384.127,415.75,382.89z"/>
<path fill-rule="evenodd" clip-rule="evenodd" fill="#19519D" stroke="#000000" stroke-linecap="square" stroke-miterlimit="10" d="  M412.75,409.89c-45.563-6.646-42.787,47.485-69.75,52.5c15.121-85.043,104.604-72.325,128.25,0  C451.304,462.188,442.681,414.75,412.75,409.89z"/>
<path fill-rule="evenodd" clip-rule="evenodd" fill="#2F982F" stroke="#000000" stroke-linecap="square" stroke-miterlimit="10" d="  M415,391.14c-19.413-1.129-41.548,3.723-54.75,19.125c-11.182,13.046-21.438,51.573-33.75,52.125  c8.738-42.281,35.366-83.092,83.625-79.875c45.669,3.044,66.729,40.023,79.875,79.875C471.664,463.279,452.268,396.118,415,391.14z"/>
<path fill-rule="evenodd" clip-rule="evenodd" fill="#199DBF" stroke="#000000" stroke-linecap="square" stroke-miterlimit="10" d="  M415,391.14c35.018,4.677,56.699,39.787,65.25,71.25c-26.249-2.729-30.559-62.495-74.25-62.25  c-41.17,0.23-51.584,61.999-71.25,62.25C345.239,421.66,369.158,388.475,415,391.14z"/>
<path fill-rule="evenodd" clip-rule="evenodd" fill="#F87F11" stroke="#000000" stroke-linecap="square" stroke-miterlimit="10" d="  M417.25,373.89c-55.992-3.704-89.475,36.528-97.5,88.5c-1.75,0-3.5,0-5.25,0c3.519-46.869,30.818-90.274,79.5-96.75  c62.928-8.371,99.935,40.82,113.25,96.75c-14.695-2.805-21.972-42.253-34.875-57C457.663,388.577,440.057,376.165,417.25,373.89z"/>
<path fill-rule="evenodd" clip-rule="evenodd" fill="#801582" stroke="#000000" stroke-linecap="square" stroke-miterlimit="10" d="  M411.25,417.39c-37.922-4.706-37.792,37.164-60.75,45c14.638-71.946,90.288-61.986,111.75,0  C443.479,460.51,437.899,422.8,411.25,417.39z"/>
<path fill-rule="evenodd" clip-rule="evenodd" fill="#2F9E32" stroke="#000000" stroke-linecap="square" stroke-miterlimit="10" d="  M476.5,487.14c-30.609-20.518-63.226-33.619-98.861-42.527c-16.155-4.039-39.808-9.355-56.389-6.223  c-13.442,2.54-18.75-6.021-18.75,9.813c0,13.229,0,26.458,0,39.687C360.5,487.64,418.5,487.39,476.5,487.14z"/>
<path fill-rule="evenodd" clip-rule="evenodd" fill="#186522" stroke="#000000" stroke-linecap="square" stroke-miterlimit="10" d="  M377.5,487.14c22.97-21.112,53.01-36.197,83.25-43.5c15.155-3.66,30.495-5.25,46.083-5.25c21.442,0,11.667,31.208,11.667,49.5  C471.5,487.64,424.5,487.39,377.5,487.14z"/>
</svg>