<svg xmlns="http://www.w3.org/2000/svg" xmlns:xlink="http://www.w3.org/1999/xlink" version="1.1" id="Layer_1" x="0px" y="0px" enable-background="new 0 0 822.05 841.89" xml:space="preserve" viewBox="205.17 255.39 411.76 337.29">
<path fill-rule="evenodd" clip-rule="evenodd" fill="#00AEEF" stroke="#000000" stroke-width="2" stroke-linecap="square" stroke-miterlimit="10" d="  M431.508,316.64c-30.484,11.258-60.968,22.517-91.453,33.774c-43.1,15.917-41.91,10.895-27.049,55.476c29.25-12,58.5-24,87.75-36  c-1.323,10.849-15.753,122.679-8.632,122.001c51.218-4.878,100.417-7.712,151.884-6.501c-5.5-35.75-11-71.5-16.5-107.25  c26.75,11,53.5,22,80.25,33c13.071-42.482,14.29-37.978-25.402-55.694c-31.782-14.185-63.565-28.371-95.348-42.556  c100.33-40.743-56.377-79.724-38.25-39.75C448.197,274.025,435.917,305.25,431.508,316.64z"/>
<path fill="none" stroke="#000000" stroke-width="2" stroke-linecap="square" stroke-miterlimit="10" d="M523.008,276.14  c-35.062-5.005-29.899,27.369-49.125,42.75c-26.763,21.41,2.932,130.562,6.375,165"/>
<path fill-rule="evenodd" clip-rule="evenodd" fill="#00AEEF" stroke="#000000" stroke-width="2" stroke-linecap="square" stroke-miterlimit="10" d="  M382.756,369.89c-30.484,11.258-60.967,22.517-91.451,33.774c-43.099,15.917-41.909,10.895-27.049,55.476c29.25-12,58.5-24,87.75-36  c-1.334,10.94-16.024,122.633-9.383,122.001c51.219-4.878,100.418-7.712,151.885-6.501c-5.25-35.75-10.5-71.5-15.75-107.25  c26.5,11,53,22,79.5,33c13.874-42.438,15.198-37.907-24.652-55.694c-31.782-14.185-63.565-28.371-95.348-42.556  c10.098-4.5,29.273-15.867,31.5-27.75c2.914-15.557-13.25-21.529-30.75-27.75c-16.707-5.938-56.167,2.277-39.002,12.75  C394.256,338.89,388.506,354.39,382.756,369.89z"/>
<path fill="none" stroke="#000000" stroke-width="2" stroke-linecap="square" stroke-miterlimit="10" d="M474.258,329.39  c-35.562-5.501-29.987,27.44-49.126,42.75c-26.835,21.466,2.337,130.469,5.626,165"/>
<path fill-rule="evenodd" clip-rule="evenodd" fill="#00AEEF" stroke="#000000" stroke-width="2" stroke-linecap="square" stroke-miterlimit="10" d="  M334.006,417.14c-30.484,11.258-60.967,22.517-91.451,33.774c-43.099,15.918-41.909,10.895-27.049,55.476c29.5-12,59-24,88.5-36  c-1.385,11.217-16.299,121.841-9.383,121.292c51.151-4.06,100.546-7,151.885-5.792c-5.5-36-11-72-16.5-108  c26.75,11.25,53.5,22.5,80.25,33.75c13.874-42.438,15.198-37.907-24.653-55.693c-31.782-14.186-63.565-28.371-95.349-42.557  c96.971-43.142-54.419-79.435-39-39.75C350.695,374.525,338.415,405.75,334.006,417.14z"/>
<path fill="none" stroke="#000000" stroke-width="2" stroke-linecap="square" stroke-miterlimit="10" d="M425.508,376.64  c-34.96-6.084-30.128,28.151-48.377,42.75c-26.834,21.468,2.336,130.469,5.625,165"/>
</svg>