<svg xmlns="http://www.w3.org/2000/svg" xmlns:xlink="http://www.w3.org/1999/xlink" version="1.1" id="Layer_1" x="0px" y="0px" enable-background="new 0 0 822.05 841.89" xml:space="preserve" viewBox="241.79 248.51 336.5 347">
<path fill-rule="evenodd" clip-rule="evenodd" fill="#BCBEC0" stroke="#000000" stroke-width="2" stroke-linecap="square" stroke-miterlimit="10" d="  M242.789,508.258c23.656-32.345,71.857,5.996,103.5-13.5c-22.682,29.821,36.651,34.458,40.5,55.5  c4.624,25.275-18.675,16.111-30.727,10.523C318.305,543.274,280.547,525.766,242.789,508.258z"/>
<line fill="none" stroke="#000000" stroke-width="2" stroke-linecap="square" stroke-miterlimit="10" x1="245.039" y1="509.758" x2="254.039" y2="535.258"/>
<line fill="none" stroke="#000000" stroke-width="2" stroke-linecap="square" stroke-miterlimit="10" x1="254.789" y1="514.258" x2="264.539" y2="539.758"/>
<line fill="none" stroke="#000000" stroke-width="2" stroke-linecap="square" stroke-miterlimit="10" x1="268.289" y1="520.258" x2="278.039" y2="545.758"/>
<line fill="none" stroke="#000000" stroke-width="2" stroke-linecap="square" stroke-miterlimit="10" x1="281.039" y1="524.758" x2="290.789" y2="550.258"/>
<line fill="none" stroke="#000000" stroke-width="2" stroke-linecap="square" stroke-miterlimit="10" x1="294.539" y1="533.758" x2="304.289" y2="559.258"/>
<line fill="none" stroke="#000000" stroke-width="2" stroke-linecap="square" stroke-miterlimit="10" x1="305.039" y1="538.258" x2="314.789" y2="563.758"/>
<line fill="none" stroke="#000000" stroke-width="2" stroke-linecap="square" stroke-miterlimit="10" x1="317.039" y1="544.258" x2="326.789" y2="569.758"/>
<line fill="none" stroke="#000000" stroke-width="2" stroke-linecap="square" stroke-miterlimit="10" x1="330.539" y1="548.758" x2="339.539" y2="574.258"/>
<line fill="none" stroke="#000000" stroke-width="2" stroke-linecap="square" stroke-miterlimit="10" x1="341.789" y1="553.258" x2="350.789" y2="578.758"/>
<line fill="none" stroke="#000000" stroke-width="2" stroke-linecap="square" stroke-miterlimit="10" x1="356.789" y1="562.258" x2="366.539" y2="587.758"/>
<line fill="none" stroke="#000000" stroke-width="2" stroke-linecap="square" stroke-miterlimit="10" x1="371.039" y1="569.008" x2="380.789" y2="594.508"/>
<path fill-rule="evenodd" clip-rule="evenodd" fill="#AF8977" stroke="#000000" stroke-width="2" stroke-linecap="square" stroke-miterlimit="10" d="  M577.291,249.508c-12.216,45.186-85.167,97.042-116.251,129.75c-31.232,32.863-78.982,108.526-124.501,123  c13.545-47.037,84.444-96.764,116.626-130.5c29.54-30.967,59.08-61.934,88.619-92.901  C552.142,267.999,563.346,253.31,577.291,249.508z"/>
</svg>