<svg xmlns="http://www.w3.org/2000/svg" xmlns:xlink="http://www.w3.org/1999/xlink" version="1.1" id="Layer_1" x="0px" y="0px" enable-background="new 0 0 822.05 841.89" xml:space="preserve" viewBox="204.31 260.97 413.75 321.5">
<path fill-rule="evenodd" clip-rule="evenodd" fill="#BCBEC0" stroke="#000000" stroke-width="2" stroke-linecap="square" stroke-miterlimit="10" d="  M210.559,358.718c26.726-15.387,49.864,24.333,78.75,18.75c-23.07,17.445,14.25,31.9,14.25,49.127  C303.559,465.363,219.694,368.025,210.559,358.718z"/>
<line fill="none" stroke="#000000" stroke-width="2" stroke-linecap="square" stroke-miterlimit="10" x1="211.309" y1="360.218" x2="211.309" y2="381.968"/>
<line fill="none" stroke="#000000" stroke-width="2" stroke-linecap="square" stroke-miterlimit="10" x1="218.059" y1="366.218" x2="218.059" y2="387.218"/>
<line fill="none" stroke="#000000" stroke-width="2" stroke-linecap="square" stroke-miterlimit="10" x1="225.559" y1="374.468" x2="225.559" y2="395.468"/>
<line fill="none" stroke="#000000" stroke-width="2" stroke-linecap="square" stroke-miterlimit="10" x1="233.809" y1="381.968" x2="233.809" y2="402.968"/>
<line fill="none" stroke="#000000" stroke-width="2" stroke-linecap="square" stroke-miterlimit="10" x1="241.309" y1="391.718" x2="241.309" y2="412.718"/>
<line fill="none" stroke="#000000" stroke-width="2" stroke-linecap="square" stroke-miterlimit="10" x1="248.059" y1="397.718" x2="248.059" y2="418.718"/>
<line fill="none" stroke="#000000" stroke-width="2" stroke-linecap="square" stroke-miterlimit="10" x1="254.809" y1="405.218" x2="254.809" y2="426.22"/>
<line fill="none" stroke="#000000" stroke-width="2" stroke-linecap="square" stroke-miterlimit="10" x1="263.059" y1="411.968" x2="263.059" y2="432.97"/>
<line fill="none" stroke="#000000" stroke-width="2" stroke-linecap="square" stroke-miterlimit="10" x1="269.809" y1="417.968" x2="269.809" y2="438.97"/>
<line fill="none" stroke="#000000" stroke-width="2" stroke-linecap="square" stroke-miterlimit="10" x1="278.059" y1="429.22" x2="278.059" y2="450.22"/>
<line fill="none" stroke="#000000" stroke-width="2" stroke-linecap="square" stroke-miterlimit="10" x1="287.059" y1="438.22" x2="287.059" y2="459.22"/>
<path fill-rule="evenodd" clip-rule="evenodd" fill="#AF8977" stroke="#000000" stroke-width="2" stroke-linecap="square" stroke-miterlimit="10" d="  M522.561,261.968c-20.792,29.223-83.027,45.539-113.96,60.605c-38.304,18.657-84.832,52.923-128.292,57.895  c21.94-28.985,83.087-45.203,114.71-60.605C432.175,301.765,480.73,265.841,522.561,261.968z"/>
<path fill-rule="evenodd" clip-rule="evenodd" fill="#BCBEC0" stroke="#000000" stroke-width="2" stroke-linecap="square" stroke-miterlimit="10" d="  M205.309,444.97c27.725-14.887,49.262,24.448,78.75,18.75c-24.854,17.262,17.293,33.294,14.25,51  C292.338,549.462,215.721,455.577,205.309,444.97z"/>
<line fill="none" stroke="#000000" stroke-width="2" stroke-linecap="square" stroke-miterlimit="10" x1="206.059" y1="446.47" x2="206.059" y2="467.47"/>
<line fill="none" stroke="#000000" stroke-width="2" stroke-linecap="square" stroke-miterlimit="10" x1="212.809" y1="452.47" x2="212.809" y2="473.47"/>
<line fill="none" stroke="#000000" stroke-width="2" stroke-linecap="square" stroke-miterlimit="10" x1="220.309" y1="460.72" x2="220.309" y2="481.72"/>
<line fill="none" stroke="#000000" stroke-width="2" stroke-linecap="square" stroke-miterlimit="10" x1="228.559" y1="467.47" x2="228.559" y2="488.47"/>
<line fill="none" stroke="#000000" stroke-width="2" stroke-linecap="square" stroke-miterlimit="10" x1="235.309" y1="477.97" x2="235.309" y2="498.97"/>
<line fill="none" stroke="#000000" stroke-width="2" stroke-linecap="square" stroke-miterlimit="10" x1="242.059" y1="483.97" x2="242.059" y2="504.97"/>
<line fill="none" stroke="#000000" stroke-width="2" stroke-linecap="square" stroke-miterlimit="10" x1="248.809" y1="491.47" x2="248.809" y2="512.47"/>
<line fill="none" stroke="#000000" stroke-width="2" stroke-linecap="square" stroke-miterlimit="10" x1="257.059" y1="498.22" x2="257.059" y2="519.22"/>
<line fill="none" stroke="#000000" stroke-width="2" stroke-linecap="square" stroke-miterlimit="10" x1="264.559" y1="504.22" x2="264.559" y2="525.22"/>
<line fill="none" stroke="#000000" stroke-width="2" stroke-linecap="square" stroke-miterlimit="10" x1="272.809" y1="515.47" x2="272.809" y2="536.47"/>
<line fill="none" stroke="#000000" stroke-width="2" stroke-linecap="square" stroke-miterlimit="10" x1="281.809" y1="524.47" x2="281.809" y2="545.47"/>
<path fill-rule="evenodd" clip-rule="evenodd" fill="#AF8977" stroke="#000000" stroke-width="2" stroke-linecap="square" stroke-miterlimit="10" d="  M517.311,348.218c-21.94,28.985-83.087,45.203-114.71,60.606c-34.871,16.985-87.572,56.965-127.542,57.146  c24.759-28.32,81.308-43.7,114.354-59.856C424.522,388.948,476.991,349.025,517.311,348.218z"/>
<path fill-rule="evenodd" clip-rule="evenodd" fill="#BCBEC0" stroke="#000000" stroke-width="2" stroke-linecap="square" stroke-miterlimit="10" d="  M305.059,481.72c26.441-17.648,49.712,26.287,78.75,18c-24.307,18.829,17.824,33.245,14.25,51.75  C391.504,585.409,315.99,492.856,305.059,481.72z"/>
<line fill="none" stroke="#000000" stroke-width="2" stroke-linecap="square" stroke-miterlimit="10" x1="305.809" y1="483.22" x2="305.809" y2="504.22"/>
<line fill="none" stroke="#000000" stroke-width="2" stroke-linecap="square" stroke-miterlimit="10" x1="312.559" y1="489.22" x2="312.559" y2="510.22"/>
<line fill="none" stroke="#000000" stroke-width="2" stroke-linecap="square" stroke-miterlimit="10" x1="320.059" y1="497.47" x2="320.059" y2="518.47"/>
<line fill="none" stroke="#000000" stroke-width="2" stroke-linecap="square" stroke-miterlimit="10" x1="328.309" y1="504.22" x2="328.309" y2="525.22"/>
<line fill="none" stroke="#000000" stroke-width="2" stroke-linecap="square" stroke-miterlimit="10" x1="335.059" y1="513.97" x2="335.059" y2="534.97"/>
<line fill="none" stroke="#000000" stroke-width="2" stroke-linecap="square" stroke-miterlimit="10" x1="341.809" y1="519.97" x2="341.809" y2="540.97"/>
<line fill="none" stroke="#000000" stroke-width="2" stroke-linecap="square" stroke-miterlimit="10" x1="348.559" y1="527.47" x2="348.559" y2="548.47"/>
<line fill="none" stroke="#000000" stroke-width="2" stroke-linecap="square" stroke-miterlimit="10" x1="357.559" y1="534.97" x2="357.559" y2="555.97"/>
<line fill="none" stroke="#000000" stroke-width="2" stroke-linecap="square" stroke-miterlimit="10" x1="364.309" y1="540.97" x2="364.309" y2="561.97"/>
<line fill="none" stroke="#000000" stroke-width="2" stroke-linecap="square" stroke-miterlimit="10" x1="372.559" y1="552.22" x2="372.559" y2="573.22"/>
<line fill="none" stroke="#000000" stroke-width="2" stroke-linecap="square" stroke-miterlimit="10" x1="381.559" y1="560.47" x2="381.559" y2="581.47"/>
<path fill-rule="evenodd" clip-rule="evenodd" fill="#AF8977" stroke="#000000" stroke-width="2" stroke-linecap="square" stroke-miterlimit="10" d="  M617.061,384.968c-24.069,29.015-81.457,44.289-114.354,60.25c-34.936,16.95-88.03,56.945-127.898,57.502  c25.218-28.946,81.011-43.959,114.71-60.25C524.082,425.763,577.701,385.396,617.061,384.968z"/>
</svg>