<svg xmlns="http://www.w3.org/2000/svg" xmlns:xlink="http://www.w3.org/1999/xlink" version="1.1" id="Layer_1" x="0px" y="0px" enable-background="new 0 0 822.05 841.89" xml:space="preserve" viewBox="314.37 335.08 192.75 170.18">
<path fill-rule="evenodd" clip-rule="evenodd" fill="#EDCBA6" stroke="#000000" stroke-width="1.25" stroke-linecap="square" stroke-miterlimit="10" d="  M388.875,459.333c-9.457-4.528-19.132-13.775-26.25-15c7.826,3.792,13.882,11.301,21.75,15c-8.807,5.787-19.396,12.123-26.25,18.75  C368.167,472.435,379.655,465.231,388.875,459.333z M355.875,445.083c-10.929,16.89-28.178,32.549-37.5,48.75  C331.471,480.932,355.894,461.364,355.875,445.083z"/>
<path fill-rule="evenodd" clip-rule="evenodd" stroke="#000000" stroke-width="1.25" stroke-linecap="square" stroke-miterlimit="10" d="  M351.375,396.332c-3.845,2.397-11.924,8.984-18,12.75c14.127-5.896,22.782-15.185,42-11.25  C367.201,395.252,359.74,395.759,351.375,396.332z"/>
<path fill-rule="evenodd" clip-rule="evenodd" fill="#004000" stroke="#000000" stroke-linecap="square" stroke-miterlimit="10" d="  M359.625,394.082c-4.165,17.71,8.687,10.921,17.25-1.5C371.13,392.303,365.225,392.701,359.625,394.082z"/>
<path fill-rule="evenodd" clip-rule="evenodd" fill="#200F75" stroke="#000000" stroke-width="1.25" stroke-linecap="square" stroke-miterlimit="10" d="  M358.875,473.583c2.466,7.433,5.279,11.754,2.25,18.75C353.614,484.597,349.212,476.524,358.875,473.583z"/>
<path fill="none" stroke="#000000" stroke-width="1.25" stroke-linecap="square" stroke-miterlimit="10" d="M360.375,479.583  c-3.485-0.052-4.442-2.02-3-5.25"/>
<path fill-rule="evenodd" clip-rule="evenodd" fill="#200F75" stroke="#000000" stroke-width="1.25" stroke-linecap="square" stroke-miterlimit="10" d="  M377.625,442.083c-5.87,5.33-13.364,9.651-20.25,10.5C359.591,437.938,367.641,432.02,377.625,442.083z"/>
<path fill-rule="evenodd" clip-rule="evenodd" fill="#200F75" stroke="#000000" stroke-width="1.25" stroke-linecap="square" stroke-miterlimit="10" d="  M320.625,490.083C347.466,519.563,299.279,496.136,320.625,490.083L320.625,490.083z"/>
<path fill="none" stroke="#000000" stroke-width="1.25" stroke-linecap="square" stroke-miterlimit="10" d="M319.875,495.333  c-2.575-0.358-3.553-1.955-3-4.5"/>
<path fill-rule="evenodd" clip-rule="evenodd" fill="#200F75" stroke="#000000" stroke-width="1.25" stroke-linecap="square" stroke-miterlimit="10" d="  M351.375,426.333c-24.374,26.075,3.02,51.104,17.25,9C361.745,434.031,356.755,428.014,351.375,426.333z"/>
<path fill-rule="evenodd" clip-rule="evenodd" fill="#EDCBA6" stroke="#000000" stroke-width="1.25" stroke-linecap="square" stroke-miterlimit="10" d="  M336.375,408.332c-3.255,3.125-1.811,9.518-9.75,6.75C329.033,409.379,333.645,410.474,336.375,408.332z"/>
<path fill-rule="evenodd" clip-rule="evenodd" fill="#FFFFFF" d="M377.625,467.583L377.625,467.583L377.625,467.583z"/>
<line fill="none" stroke="#000000" stroke-linecap="square" stroke-miterlimit="10" x1="377.625" y1="467.583" x2="377.625" y2="467.583"/>
<path fill-rule="evenodd" clip-rule="evenodd" stroke="#000000" stroke-width="1.25" stroke-linecap="square" stroke-miterlimit="10" d="  M417.375,424.833c-21.924,0.488-27.177-2.528-37.5-27.002C383.731,422.706,394.049,433.305,417.375,424.833z"/>
<path fill-rule="evenodd" clip-rule="evenodd" fill="#004000" stroke="#000000" stroke-linecap="square" stroke-miterlimit="10" d="  M388.125,400.832c-10.208-13.595-23.86-6.115-30.75,6.75c-13.983,26.11,16.024,35.504,24,8.25  C391.149,418.964,396.609,413.707,388.125,400.832z"/>
<path fill-rule="evenodd" clip-rule="evenodd" fill="#EDCBA6" stroke="#000000" stroke-width="1.25" stroke-linecap="square" stroke-miterlimit="10" d="  M413.625,424.083c4.349-1.308,5.952-5.281,12-3.752c0.611,0.665,0.861,1.415,0.75,2.25  C421.082,427.458,417.669,423.788,413.625,424.083z"/>
<path fill-rule="evenodd" clip-rule="evenodd" fill="#FFFFFF" stroke="#000000" stroke-linecap="square" stroke-miterlimit="10" d="  M439.875,391.082c2.287,42.289,66.501,43.017,66.75,0C506.877,347.569,441.827,348.266,439.875,391.082z"/>
<path fill-rule="evenodd" clip-rule="evenodd" fill="#FFFFFF" d="M473.625,415.082v6V415.082z"/>
<line fill="none" stroke="#000000" stroke-linecap="square" stroke-miterlimit="10" x1="473.625" y1="415.082" x2="473.625" y2="421.082"/>
<path fill-rule="evenodd" clip-rule="evenodd" fill="#FFFFFF" d="M449.625,391.082h-6.75H449.625z"/>
<line fill="none" stroke="#000000" stroke-linecap="square" stroke-miterlimit="10" x1="449.625" y1="391.082" x2="442.875" y2="391.082"/>
<path fill-rule="evenodd" clip-rule="evenodd" fill="#FFFFFF" d="M503.625,391.082h-6H503.625z"/>
<line fill="none" stroke="#000000" stroke-linecap="square" stroke-miterlimit="10" x1="503.625" y1="391.082" x2="497.625" y2="391.082"/>
<path fill-rule="evenodd" clip-rule="evenodd" fill="#FFFFFF" d="M456.375,407.582l-4.5,4.5L456.375,407.582z"/>
<line fill="none" stroke="#000000" stroke-linecap="square" stroke-miterlimit="10" x1="456.375" y1="407.582" x2="451.875" y2="412.082"/>
<path fill-rule="evenodd" clip-rule="evenodd" fill="#FFFFFF" d="M495.375,369.332l-5.25,4.5L495.375,369.332z"/>
<line fill="none" stroke="#000000" stroke-linecap="square" stroke-miterlimit="10" x1="495.375" y1="369.332" x2="490.125" y2="373.832"/>
<path fill-rule="evenodd" clip-rule="evenodd" fill="#FFFFFF" d="M495.375,412.082l-5.25-4.5L495.375,412.082z"/>
<line fill="none" stroke="#000000" stroke-linecap="square" stroke-miterlimit="10" x1="495.375" y1="412.082" x2="490.125" y2="407.582"/>
<path fill-rule="evenodd" clip-rule="evenodd" stroke="#000000" stroke-linecap="square" stroke-miterlimit="10" d="  M469.875,364.082C478.418,363.362,478.304,363.372,469.875,364.082L469.875,364.082z"/>
<path fill-rule="evenodd" clip-rule="evenodd" stroke="#000000" stroke-linecap="square" stroke-miterlimit="10" d="  M474.375,370.832c2.354,6.374,1.545,14.938,2.25,21.75c-2-0.25-4-0.5-6-0.75C471.788,385.317,471.543,376.745,474.375,370.832z"/>
<path fill-rule="evenodd" clip-rule="evenodd" stroke="#000000" stroke-linecap="square" stroke-miterlimit="10" d="  M469.875,391.082C477.651,390.646,477.646,390.647,469.875,391.082L469.875,391.082z"/>
<path fill-rule="evenodd" clip-rule="evenodd" fill="#B10C0E" stroke="#000000" stroke-linecap="square" stroke-miterlimit="10" d="  M452.625,371.582C459.933,372.336,460.019,372.345,452.625,371.582L452.625,371.582z"/>
<path fill-rule="evenodd" clip-rule="evenodd" fill="#B10C0E" stroke="#000000" stroke-linecap="square" stroke-miterlimit="10" d="  M452.625,353.582c4.061-4.439,7.521-9.525,11.25-14.25c-1.75-1.25-3.5-2.5-5.25-3.75c-8.176,10.616-9.708,8.411-15,10.5  c-2.327,5.394-4.318,13.633-4.5,19.5C451.332,362.32,451.913,357.452,452.625,353.582z"/>
<path fill-rule="evenodd" clip-rule="evenodd" fill="#EDCBA6" stroke="#000000" stroke-width="1.25" stroke-linecap="square" stroke-miterlimit="10" d="  M396.375,385.832c-6.637,20.737-29.382,9.085-21.75-10.5C381.602,380.309,388.962,382.422,396.375,385.832z"/>
<path fill-rule="evenodd" clip-rule="evenodd" fill="#004000" stroke="#000000" stroke-linecap="square" stroke-miterlimit="10" d="  M375.375,374.582c9.975,7.108,22.086,12.403,33.75,13.5C398.532,379.872,391.473,361.195,375.375,374.582z"/>
</svg>