<svg xmlns="http://www.w3.org/2000/svg" xmlns:xlink="http://www.w3.org/1999/xlink" version="1.1" id="Layer_1" x="0px" y="0px" enable-background="new 0 0 822.05 841.89" xml:space="preserve" viewBox="206.62 273.64 409.19 298.05">
<path fill-rule="evenodd" clip-rule="evenodd" fill="#FFFFFF" stroke="#000000" stroke-width="2" stroke-linecap="square" stroke-miterlimit="10" d="  M211.309,432.14c18.098,93.306,94.229,72.822,165.75,47.25c33.583-12.008,66.126-4.791,101.252-13.5  c33.482-8.302,72.484-10.174,105.75-22.5c39.35-14.58,27.806-56.831-6.75-78c-29.71-18.2-81.667,15.927-113.994,19.968  c-50.144,6.268-93.469-5.112-139.924,18.116C295.831,417.254,206.292,382.617,211.309,432.14z"/>
<path fill-rule="evenodd" clip-rule="evenodd" fill="#ED2224" stroke="#000000" stroke-width="2" stroke-linecap="square" stroke-miterlimit="10" d="  M341.059,396.14c45.829-4.036,97.347,26.854,138.752,5.25C457.085,383.28,367.067,374.748,341.059,396.14z"/>
<path fill-rule="evenodd" clip-rule="evenodd" fill="#ED2224" stroke="#000000" stroke-width="2" stroke-linecap="square" stroke-miterlimit="10" d="  M276.559,409.64c27.717,47.936,116.18-9.894,151.502,15c-20.59,11.15-53.701,12.261-77.216,19.686  c-28.799,9.095-61.064,27.658-90.786,31.314c-12.984,1.597-34.515,3.272-39.342-12.588c-6.208-20.396-12.754-33.903-1.908-53.787  C224.467,398.891,264.752,408.683,276.559,409.64z"/>
<path fill-rule="evenodd" clip-rule="evenodd" fill="#ED2224" stroke="#000000" stroke-width="2" stroke-linecap="square" stroke-miterlimit="10" d="  M586.311,378.89c-61.057,26.604-116.394,48.574-180.889,64.56c-42.255,10.474-87.522,42.047-128.863,59.94  c54.321-6.6,93.736-29.662,144.002-44.25c43.535-12.634,102.917-6.508,142.5-29.25c-15.008-8.582-32.542-2.38-48.75-6  c19.971-16.246,56.008-23.015,80.25-32.25C591.911,387.546,589.681,382.384,586.311,378.89z"/>
<path fill-rule="evenodd" clip-rule="evenodd" fill="#FFFFFF" stroke="#000000" stroke-width="2" stroke-linecap="square" stroke-miterlimit="10" d="  M228.559,464.39c4.653-8.493,50.014,0.022,65.25-2.25c48.604-7.25,92.53,10.539,138.649,25.554  c45.596,14.845,204.394-51.061,177.853,35.196c-25.454,82.723-181.188,35.188-242.252,24.75c-20.929-3.578-41.46-3.676-62.514-2.057  c-16.334,1.257-57.098,13.295-73.236,6.557c-20.652-8.622-16.574-15.379-12.126-37.62c3.173-15.864-3.996-19.813,0.126-33.63  C222.305,474.2,227.592,472.031,228.559,464.39z"/>
<path fill-rule="evenodd" clip-rule="evenodd" fill="#ED2224" stroke="#000000" stroke-width="2" stroke-linecap="square" stroke-miterlimit="10" d="  M229.309,551.39c-7.566-12.452-3.938-20.896-3-33.75c0.118-1.609,2.49-26.215,3-27c19.426-29.907,46.151,11.839,69.75,15  c-4.328-9.707-13.828-17.527-22.5-23.25c25.6,4.038,70.197,39.884,84.75,63C317.868,545.135,272.158,543.455,229.309,551.39z"/>
<path fill-rule="evenodd" clip-rule="evenodd" fill="#ED2224" stroke="#000000" stroke-width="2" stroke-linecap="square" stroke-miterlimit="10" d="  M433.311,564.89c39.163-1.522,62.935-16.99,95.25-33c17.757-8.797,52.201,0.147,64.125-15.75  c29.088-38.784,24.678,17.403,4.875,34.5C565.524,578.298,472.154,569.373,433.311,564.89z"/>
<path fill-rule="evenodd" clip-rule="evenodd" fill="#ED2224" stroke="#000000" stroke-width="2" stroke-linecap="square" stroke-miterlimit="10" d="  M305.059,458.39c42.743,38.188,85.475,38.592,136.877,46.5c26.037,4.006,56.678,8.418,82.125-1.125  c21.816-8.181,75.077-37.352,90.75-9.375c-32.243,3.076-62.072,14.425-93,21c-27.636,5.875-54.501-4.85-80.625,0.375  c-59.463,11.893-105.107-22.606-158.627-48.375C289.77,464.505,297.487,460.035,305.059,458.39z"/>
<path fill-rule="evenodd" clip-rule="evenodd" fill="#FFFFFF" stroke="#000000" stroke-width="2" stroke-linecap="square" stroke-miterlimit="10" d="  M219.559,280.64c4.466-8.39,50.015,0.02,65.25-2.25c48.486-7.225,92.568,10.552,138.649,25.554  c45.147,14.698,204.325-50.581,177.853,35.196c-13.845,44.857-60.321,40.924-102.75,43.5c-52.163,3.167-89.628-10.213-139.502-18.75  c-20.927-3.582-41.462-3.676-62.514-2.057c-16.571,1.275-56.859,13.338-73.236,6.557c-20.528-8.5-16.551-14.747-12.126-36.87  c2.98-14.903-5.397-20.02-2.124-32.88C210.697,292.201,218.515,288.896,219.559,280.64z"/>
<path fill-rule="evenodd" clip-rule="evenodd" fill="#ED2224" stroke="#000000" stroke-width="2" stroke-linecap="square" stroke-miterlimit="10" d="  M220.309,367.64c-7.566-12.452-3.938-20.896-3-33.75c0.118-1.609,2.49-26.215,3-27c19.426-29.907,46.151,11.839,69.75,15  c-4.316-9.683-14.102-17.698-22.5-23.25c25.6,4.038,70.197,39.884,84.75,63C309.061,361.387,262.938,359.745,220.309,367.64z"/>
<path fill-rule="evenodd" clip-rule="evenodd" fill="#ED2224" stroke="#000000" stroke-width="2" stroke-linecap="square" stroke-miterlimit="10" d="  M424.311,381.14c39.142-1.522,62.961-16.938,95.25-33c17.82-8.864,52.169,0.192,64.125-15.75  c29.039-38.719,24.648,17.429,4.875,34.5C556.524,394.548,463.154,385.622,424.311,381.14z"/>
<path fill-rule="evenodd" clip-rule="evenodd" fill="#ED2224" stroke="#000000" stroke-width="2" stroke-linecap="square" stroke-miterlimit="10" d="  M296.059,274.64c42.302,37.793,85.509,39.215,136.502,46.5c27.834,3.976,55.041,6.115,82.5-0.75  c23.248-5.812,73.997-39.655,90.75-9.75c-32.05,2.8-62.173,14.459-93,21c-27.731,5.884-53.144,0.75-80.625,0.75  c-20.235,0-41.997,9.565-64.127-1.5c-31.598-15.799-63.216-31.968-95.25-47.25C280.272,280.751,288.243,276.276,296.059,274.64z"/>
</svg>