<svg xmlns="http://www.w3.org/2000/svg" xmlns:xlink="http://www.w3.org/1999/xlink" version="1.1" id="Layer_1" x="0px" y="0px" enable-background="new 0 0 822.05 841.89" xml:space="preserve" viewBox="318.8 345.82 186.5 152">
<path fill-rule="evenodd" clip-rule="evenodd" fill="#108F43" stroke="#000000" stroke-width="1.25" stroke-linecap="square" stroke-miterlimit="10" d="  M334.425,410.943c-5.785-0.903-9.283-2.624-15,0.75c7.099,3.756,13.484,7.218,19.5,11.252  C337.425,418.944,335.925,414.943,334.425,410.943z"/>
<path fill-rule="evenodd" clip-rule="evenodd" fill="#108F43" stroke="#000000" stroke-width="1.25" stroke-linecap="square" stroke-miterlimit="10" d="  M374.925,419.193c6.125,1.059,11.77,2.271,17.25,5.252C382.943,430.764,377.663,428.305,374.925,419.193z"/>
<path fill-rule="evenodd" clip-rule="evenodd" fill="#108F43" stroke="#000000" stroke-width="1.25" stroke-linecap="square" stroke-miterlimit="10" d="  M367.425,408.693C412.775,395.423,363.129,449.3,367.425,408.693L367.425,408.693z"/>
<path fill-rule="evenodd" clip-rule="evenodd" fill="#108F43" stroke="#000000" stroke-width="1.25" stroke-linecap="square" stroke-miterlimit="10" d="  M350.925,407.943C373.3,376.643,379.773,426.481,350.925,407.943L350.925,407.943z"/>
<path fill-rule="evenodd" clip-rule="evenodd" fill="#108F43" stroke="#000000" stroke-width="1.25" stroke-linecap="square" stroke-miterlimit="10" d="  M337.425,416.193C298.722,389.669,371.516,402.89,337.425,416.193L337.425,416.193z"/>
<path fill-rule="evenodd" clip-rule="evenodd" fill="#108F43" stroke="#000000" stroke-width="1.25" stroke-linecap="square" stroke-miterlimit="10" d="  M356.175,408.693c-2.146-13.547-18.272-23.112-14.625-4.875C343.908,415.611,356.037,427.688,356.175,408.693z"/>
<path fill-rule="evenodd" clip-rule="evenodd" fill="#E31A5C" stroke="#000000" stroke-width="1.25" stroke-linecap="square" stroke-miterlimit="10" d="  M342.675,416.193C325.124,415.773,337.042,398.451,342.675,416.193L342.675,416.193z"/>
<path fill-rule="evenodd" clip-rule="evenodd" fill="#E31A5C" stroke="#000000" stroke-width="1.25" stroke-linecap="square" stroke-miterlimit="10" d="  M357.675,417.693C328.542,418.926,361.106,391.145,357.675,417.693L357.675,417.693z"/>
<path fill-rule="evenodd" clip-rule="evenodd" fill="#E31A5C" stroke="#000000" stroke-width="1.25" stroke-linecap="square" stroke-miterlimit="10" d="  M377.175,420.693C347.605,422.244,380.937,393.5,377.175,420.693L377.175,420.693z"/>
<path fill-rule="evenodd" clip-rule="evenodd" fill="#E31A5C" stroke="#000000" stroke-width="1.25" stroke-linecap="square" stroke-miterlimit="10" d="  M338.175,425.195C308.303,430.936,340.858,394.903,338.175,425.195L338.175,425.195z"/>
<path fill-rule="evenodd" clip-rule="evenodd" fill="#E31A5C" stroke="#000000" stroke-width="1.25" stroke-linecap="square" stroke-miterlimit="10" d="  M350.175,427.445C313.62,438.084,361.178,391.636,350.175,427.445L350.175,427.445z"/>
<path fill-rule="evenodd" clip-rule="evenodd" fill="#E31A5C" stroke="#000000" stroke-width="1.25" stroke-linecap="square" stroke-miterlimit="10" d="  M366.675,425.945C326.218,440.464,379.349,386.05,366.675,425.945L366.675,425.945z"/>
<path fill-rule="evenodd" clip-rule="evenodd" fill="#E31A5C" stroke="#000000" stroke-width="1.25" stroke-linecap="square" stroke-miterlimit="10" d="  M383.925,430.445C345.208,444.883,394.541,389.936,383.925,430.445L383.925,430.445z"/>
<path fill-rule="evenodd" clip-rule="evenodd" fill="#E31A5C" stroke="#000000" stroke-width="1.25" stroke-linecap="square" stroke-miterlimit="10" d="  M332.175,437.195C302.035,445.117,335.272,405.945,332.175,437.195L332.175,437.195z"/>
<path fill-rule="evenodd" clip-rule="evenodd" fill="#E31A5C" stroke="#000000" stroke-width="1.25" stroke-linecap="square" stroke-miterlimit="10" d="  M341.925,438.695C313.582,441.489,346.241,412.262,341.925,438.695L341.925,438.695z"/>
<path fill-rule="evenodd" clip-rule="evenodd" fill="#E31A5C" stroke="#000000" stroke-width="1.25" stroke-linecap="square" stroke-miterlimit="10" d="  M357.675,439.445C320.508,452.517,366.778,401.85,357.675,439.445L357.675,439.445z"/>
<path fill-rule="evenodd" clip-rule="evenodd" fill="#E31A5C" stroke="#000000" stroke-width="1.25" stroke-linecap="square" stroke-miterlimit="10" d="  M370.425,436.445C338.491,443.941,374.396,405.434,370.425,436.445L370.425,436.445z"/>
<path fill-rule="evenodd" clip-rule="evenodd" fill="#E31A5C" stroke="#000000" stroke-width="1.25" stroke-linecap="square" stroke-miterlimit="10" d="  M380.925,440.945C358.525,440.39,381.246,420.22,380.925,440.945L380.925,440.945z"/>
<path fill-rule="evenodd" clip-rule="evenodd" fill="#E31A5C" stroke="#000000" stroke-width="1.25" stroke-linecap="square" stroke-miterlimit="10" d="  M336.675,452.945C302.194,461.547,345.528,418.773,336.675,452.945L336.675,452.945z"/>
<path fill-rule="evenodd" clip-rule="evenodd" fill="#E31A5C" stroke="#000000" stroke-width="1.25" stroke-linecap="square" stroke-miterlimit="10" d="  M348.675,449.945C317.892,458.416,352.903,419.025,348.675,449.945L348.675,449.945z"/>
<path fill-rule="evenodd" clip-rule="evenodd" fill="#E31A5C" stroke="#000000" stroke-width="1.25" stroke-linecap="square" stroke-miterlimit="10" d="  M362.925,449.195C337.425,453.633,364.096,423.298,362.925,449.195L362.925,449.195z"/>
<path fill-rule="evenodd" clip-rule="evenodd" fill="#E31A5C" stroke="#000000" stroke-width="1.25" stroke-linecap="square" stroke-miterlimit="10" d="  M374.175,448.445C354.522,447.912,371.112,429.702,374.175,448.445L374.175,448.445z"/>
<path fill-rule="evenodd" clip-rule="evenodd" fill="#E31A5C" stroke="#000000" stroke-width="1.25" stroke-linecap="square" stroke-miterlimit="10" d="  M340.425,460.445C318.476,459.482,340.892,439.75,340.425,460.445L340.425,460.445z"/>
<path fill-rule="evenodd" clip-rule="evenodd" fill="#E31A5C" stroke="#000000" stroke-width="1.25" stroke-linecap="square" stroke-miterlimit="10" d="  M353.925,458.195C328.955,461.847,354.564,432.596,353.925,458.195L353.925,458.195z"/>
<path fill-rule="evenodd" clip-rule="evenodd" fill="#E31A5C" stroke="#000000" stroke-width="1.25" stroke-linecap="square" stroke-miterlimit="10" d="  M365.925,457.445C346.595,456.839,362.399,438.033,365.925,457.445L365.925,457.445z"/>
<path fill-rule="evenodd" clip-rule="evenodd" fill="#E31A5C" stroke="#000000" stroke-width="1.25" stroke-linecap="square" stroke-miterlimit="10" d="  M347.925,467.195C330.452,466.64,342.522,449.261,347.925,467.195L347.925,467.195z"/>
<path fill-rule="evenodd" clip-rule="evenodd" fill="#E31A5C" stroke="#000000" stroke-width="1.25" stroke-linecap="square" stroke-miterlimit="10" d="  M359.175,466.445C334.075,468.576,359.721,441.633,359.175,466.445L359.175,466.445z"/>
<path fill-rule="evenodd" clip-rule="evenodd" fill="#108F43" stroke="#000000" stroke-width="1.25" stroke-linecap="square" stroke-miterlimit="10" d="  M391.425,362.943c-4.84-0.72-7.212-2.829-12,0.75c4.378,2.72,12.122,6.906,16.5,9C394.425,369.443,392.925,366.193,391.425,362.943z  "/>
<path fill-rule="evenodd" clip-rule="evenodd" fill="#108F43" stroke="#000000" stroke-width="1.25" stroke-linecap="square" stroke-miterlimit="10" d="  M425.175,369.693c5.42,1.014,10.247,1.768,15,4.5C430.951,380.773,429.894,374.651,425.175,369.693z"/>
<path fill-rule="evenodd" clip-rule="evenodd" fill="#108F43" stroke="#000000" stroke-width="1.25" stroke-linecap="square" stroke-miterlimit="10" d="  M419.925,361.443C454.876,354.521,418.917,391.121,419.925,361.443L419.925,361.443z"/>
<path fill-rule="evenodd" clip-rule="evenodd" fill="#108F43" stroke="#000000" stroke-width="1.25" stroke-linecap="square" stroke-miterlimit="10" d="  M405.675,360.693c4.289-5.468,8.772-9.193,15.75-10.5C424.237,363.154,418.664,366.901,405.675,360.693z"/>
<path fill-rule="evenodd" clip-rule="evenodd" fill="#108F43" stroke="#000000" stroke-width="1.25" stroke-linecap="square" stroke-miterlimit="10" d="  M394.425,367.443c-4.597-3.795-8.094-7.647-9.75-13.5C397.448,352.276,407.449,358.557,394.425,367.443z"/>
<path fill-rule="evenodd" clip-rule="evenodd" fill="#108F43" stroke="#000000" stroke-width="1.25" stroke-linecap="square" stroke-miterlimit="10" d="  M409.425,360.693c-1.24-5.929-2.149-10.432-7.5-14.25C393.499,358.005,408.378,380.742,409.425,360.693z"/>
<path fill-rule="evenodd" clip-rule="evenodd" fill="#E31A5C" stroke="#000000" stroke-width="1.25" stroke-linecap="square" stroke-miterlimit="10" d="  M398.925,367.443C387.153,363.495,391.466,356.665,398.925,367.443L398.925,367.443z"/>
<path fill-rule="evenodd" clip-rule="evenodd" fill="#E31A5C" stroke="#000000" stroke-width="1.25" stroke-linecap="square" stroke-miterlimit="10" d="  M411.675,368.943C391.241,366.833,408.348,349.339,411.675,368.943L411.675,368.943z"/>
<path fill-rule="evenodd" clip-rule="evenodd" fill="#E31A5C" stroke="#000000" stroke-width="1.25" stroke-linecap="square" stroke-miterlimit="10" d="  M427.425,371.193C407.956,369.173,424.064,351.539,427.425,371.193L427.425,371.193z"/>
<path fill-rule="evenodd" clip-rule="evenodd" fill="#E31A5C" stroke="#000000" stroke-width="1.25" stroke-linecap="square" stroke-miterlimit="10" d="  M395.175,374.943C374.398,373.808,391.173,353.793,395.175,374.943L395.175,374.943z"/>
<path fill-rule="evenodd" clip-rule="evenodd" fill="#E31A5C" stroke="#000000" stroke-width="1.25" stroke-linecap="square" stroke-miterlimit="10" d="  M404.925,376.443C379.653,377.141,405.954,351.874,404.925,376.443L404.925,376.443z"/>
<path fill-rule="evenodd" clip-rule="evenodd" fill="#E31A5C" stroke="#000000" stroke-width="1.25" stroke-linecap="square" stroke-miterlimit="10" d="  M419.175,375.693C389.062,382.343,421.952,344.964,419.175,375.693L419.175,375.693z"/>
<path fill-rule="evenodd" clip-rule="evenodd" fill="#E31A5C" stroke="#000000" stroke-width="1.25" stroke-linecap="square" stroke-miterlimit="10" d="  M432.675,378.693C407.368,385.437,433.248,349.93,432.675,378.693L432.675,378.693z"/>
<path fill-rule="evenodd" clip-rule="evenodd" fill="#E31A5C" stroke="#000000" stroke-width="1.25" stroke-linecap="square" stroke-miterlimit="10" d="  M389.925,384.693C369.167,383.775,386.273,365.009,389.925,384.693L389.925,384.693z"/>
<path fill-rule="evenodd" clip-rule="evenodd" fill="#E31A5C" stroke="#000000" stroke-width="1.25" stroke-linecap="square" stroke-miterlimit="10" d="  M398.175,386.193C378.856,385.037,396.114,366.606,398.175,386.193L398.175,386.193z"/>
<path fill-rule="evenodd" clip-rule="evenodd" fill="#E31A5C" stroke="#000000" stroke-width="1.25" stroke-linecap="square" stroke-miterlimit="10" d="  M410.925,386.943C385.646,388.135,410.963,361.392,410.925,386.943L410.925,386.943z"/>
<path fill-rule="evenodd" clip-rule="evenodd" fill="#E31A5C" stroke="#000000" stroke-width="1.25" stroke-linecap="square" stroke-miterlimit="10" d="  M421.425,384.693C397.897,386.236,422.191,360.599,421.425,384.693L421.425,384.693z"/>
<path fill-rule="evenodd" clip-rule="evenodd" fill="#E31A5C" stroke="#000000" stroke-width="1.25" stroke-linecap="square" stroke-miterlimit="10" d="  M430.425,388.443C415.953,383.294,427.35,374.024,430.425,388.443L430.425,388.443z"/>
<path fill-rule="evenodd" clip-rule="evenodd" fill="#E31A5C" stroke="#000000" stroke-width="1.25" stroke-linecap="square" stroke-miterlimit="10" d="  M393.675,398.193C369.832,399.587,393.842,372.485,393.675,398.193L393.675,398.193z"/>
<path fill-rule="evenodd" clip-rule="evenodd" fill="#E31A5C" stroke="#000000" stroke-width="1.25" stroke-linecap="square" stroke-miterlimit="10" d="  M404.175,395.943C383.3,395.932,401.196,374.939,404.175,395.943L404.175,395.943z"/>
<path fill-rule="evenodd" clip-rule="evenodd" fill="#E31A5C" stroke="#000000" stroke-width="1.25" stroke-linecap="square" stroke-miterlimit="10" d="  M415.425,394.443C397.989,395.799,412.109,376.393,415.425,394.443L415.425,394.443z"/>
<path fill-rule="evenodd" clip-rule="evenodd" fill="#E31A5C" stroke="#000000" stroke-width="1.25" stroke-linecap="square" stroke-miterlimit="10" d="  M425.175,394.443C412.104,390.145,419.069,381.712,425.175,394.443L425.175,394.443z"/>
<path fill-rule="evenodd" clip-rule="evenodd" fill="#E31A5C" stroke="#000000" stroke-width="1.25" stroke-linecap="square" stroke-miterlimit="10" d="  M397.425,404.193C383.674,400.139,391.192,391.323,397.425,404.193L397.425,404.193z"/>
<path fill-rule="evenodd" clip-rule="evenodd" fill="#E31A5C" stroke="#000000" stroke-width="1.25" stroke-linecap="square" stroke-miterlimit="10" d="  M407.925,402.693C389.652,399.485,406.311,385.344,407.925,402.693L407.925,402.693z"/>
<path fill-rule="evenodd" clip-rule="evenodd" fill="#E31A5C" stroke="#000000" stroke-width="1.25" stroke-linecap="square" stroke-miterlimit="10" d="  M418.425,401.943C405.214,397.018,412.399,389.101,418.425,401.943L418.425,401.943z"/>
<path fill-rule="evenodd" clip-rule="evenodd" fill="#E31A5C" stroke="#000000" stroke-width="1.25" stroke-linecap="square" stroke-miterlimit="10" d="  M402.675,409.443C390.349,406.009,397.866,398.135,402.675,409.443L402.675,409.443z"/>
<path fill-rule="evenodd" clip-rule="evenodd" fill="#E31A5C" stroke="#000000" stroke-width="1.25" stroke-linecap="square" stroke-miterlimit="10" d="  M412.425,408.693C396.115,406.651,408,393.332,412.425,408.693L412.425,408.693z"/>
<path fill-rule="evenodd" clip-rule="evenodd" fill="#108F43" stroke="#000000" stroke-width="1.25" stroke-linecap="square" stroke-miterlimit="10" d="  M412.425,441.695c-2.547-4.812-3.395-8.744-9-11.25c0.736,7.375,1.522,15.658,2.25,22.5  C407.925,449.195,410.175,445.445,412.425,441.695z"/>
<path fill-rule="evenodd" clip-rule="evenodd" fill="#108F43" stroke="#000000" stroke-width="1.25" stroke-linecap="square" stroke-miterlimit="10" d="  M429.675,479.195c2.697,5.517,4.813,11.233,6,17.25C425.531,493.371,422.516,487.1,429.675,479.195z"/>
<path fill-rule="evenodd" clip-rule="evenodd" fill="#108F43" stroke="#000000" stroke-width="1.25" stroke-linecap="square" stroke-miterlimit="10" d="  M433.425,467.945C474.134,493.729,396.213,488.617,433.425,467.945L433.425,467.945z"/>
<path fill-rule="evenodd" clip-rule="evenodd" fill="#108F43" stroke="#000000" stroke-width="1.25" stroke-linecap="square" stroke-miterlimit="10" d="  M424.425,453.695C463.242,452.48,426.531,487.5,424.425,453.695L424.425,453.695z"/>
<path fill-rule="evenodd" clip-rule="evenodd" fill="#108F43" stroke="#000000" stroke-width="1.25" stroke-linecap="square" stroke-miterlimit="10" d="  M410.175,447.695C408.347,403.941,441.629,462.643,410.175,447.695L410.175,447.695z"/>
<path fill-rule="evenodd" clip-rule="evenodd" fill="#108F43" stroke="#000000" stroke-width="1.25" stroke-linecap="square" stroke-miterlimit="10" d="  M427.425,457.445c7.477-7.878,9.365-27.956-3.75-15C415.004,451.01,410.763,469.314,427.425,457.445z"/>
<path fill-rule="evenodd" clip-rule="evenodd" fill="#E31A5C" stroke="#000000" stroke-width="1.25" stroke-linecap="square" stroke-miterlimit="10" d="  M413.175,451.445C401.959,435.519,426.323,438.839,413.175,451.445L413.175,451.445z"/>
<path fill-rule="evenodd" clip-rule="evenodd" fill="#E31A5C" stroke="#000000" stroke-width="1.25" stroke-linecap="square" stroke-miterlimit="10" d="  M420.675,464.945C398.797,443.75,446.628,451.017,420.675,464.945L420.675,464.945z"/>
<path fill-rule="evenodd" clip-rule="evenodd" fill="#E31A5C" stroke="#000000" stroke-width="1.25" stroke-linecap="square" stroke-miterlimit="10" d="  M429.675,482.195C408.731,461.455,455.844,468.261,429.675,482.195L429.675,482.195z"/>
<path fill-rule="evenodd" clip-rule="evenodd" fill="#E31A5C" stroke="#000000" stroke-width="1.25" stroke-linecap="square" stroke-miterlimit="10" d="  M403.425,452.945C380.198,432.97,429.94,438.147,403.425,452.945L403.425,452.945z"/>
<path fill-rule="evenodd" clip-rule="evenodd" fill="#E31A5C" stroke="#000000" stroke-width="1.25" stroke-linecap="square" stroke-miterlimit="10" d="  M408.675,464.195C377.801,442.426,443.562,450.258,408.675,464.195L408.675,464.195z"/>
<path fill-rule="evenodd" clip-rule="evenodd" fill="#E31A5C" stroke="#000000" stroke-width="1.25" stroke-linecap="square" stroke-miterlimit="10" d="  M419.175,476.945C383.353,452.772,460.638,463.259,419.175,476.945L419.175,476.945z"/>
<path fill-rule="evenodd" clip-rule="evenodd" fill="#E31A5C" stroke="#000000" stroke-width="1.25" stroke-linecap="square" stroke-miterlimit="10" d="  M425.925,493.445C393.948,470.035,462.353,478.522,425.925,493.445L425.925,493.445z"/>
<path fill-rule="evenodd" clip-rule="evenodd" fill="#E31A5C" stroke="#000000" stroke-width="1.25" stroke-linecap="square" stroke-miterlimit="10" d="  M389.925,455.945C367.295,435.193,415.846,439.197,389.925,455.945L389.925,455.945z"/>
<path fill-rule="evenodd" clip-rule="evenodd" fill="#E31A5C" stroke="#000000" stroke-width="1.25" stroke-linecap="square" stroke-miterlimit="10" d="  M394.425,464.945C377.886,444.181,415.456,449.3,394.425,464.945L394.425,464.945z"/>
<path fill-rule="evenodd" clip-rule="evenodd" fill="#E31A5C" stroke="#000000" stroke-width="1.25" stroke-linecap="square" stroke-miterlimit="10" d="  M402.675,477.695C370.651,454.554,439.441,462.907,402.675,477.695L402.675,477.695z"/>
<path fill-rule="evenodd" clip-rule="evenodd" fill="#E31A5C" stroke="#000000" stroke-width="1.25" stroke-linecap="square" stroke-miterlimit="10" d="  M412.425,485.945C388.287,463.508,441.091,472.668,412.425,485.945L412.425,485.945z"/>
<path fill-rule="evenodd" clip-rule="evenodd" fill="#E31A5C" stroke="#000000" stroke-width="1.25" stroke-linecap="square" stroke-miterlimit="10" d="  M415.425,497.195C403.222,480.076,431.085,483.824,415.425,497.195L415.425,497.195z"/>
<path fill-rule="evenodd" clip-rule="evenodd" fill="#E31A5C" stroke="#000000" stroke-width="1.25" stroke-linecap="square" stroke-miterlimit="10" d="  M380.175,468.695C351.814,446.489,412.675,453.294,380.175,468.695L380.175,468.695z"/>
<path fill-rule="evenodd" clip-rule="evenodd" fill="#E31A5C" stroke="#000000" stroke-width="1.25" stroke-linecap="square" stroke-miterlimit="10" d="  M389.175,476.945C364.141,456.816,417.534,461.226,389.175,476.945L389.175,476.945z"/>
<path fill-rule="evenodd" clip-rule="evenodd" fill="#E31A5C" stroke="#000000" stroke-width="1.25" stroke-linecap="square" stroke-miterlimit="10" d="  M398.175,487.445C377.497,470.203,421.776,472.545,398.175,487.445L398.175,487.445z"/>
<path fill-rule="evenodd" clip-rule="evenodd" fill="#E31A5C" stroke="#000000" stroke-width="1.25" stroke-linecap="square" stroke-miterlimit="10" d="  M404.925,496.445C395.015,479.227,419.242,482.8,404.925,496.445L404.925,496.445z"/>
<path fill-rule="evenodd" clip-rule="evenodd" fill="#E31A5C" stroke="#000000" stroke-width="1.25" stroke-linecap="square" stroke-miterlimit="10" d="  M376.425,476.195C361.304,460.904,392.697,460.661,376.425,476.195L376.425,476.195z"/>
<path fill-rule="evenodd" clip-rule="evenodd" fill="#E31A5C" stroke="#000000" stroke-width="1.25" stroke-linecap="square" stroke-miterlimit="10" d="  M385.425,485.195C367.411,466.651,407.089,471.609,385.425,485.195L385.425,485.195z"/>
<path fill-rule="evenodd" clip-rule="evenodd" fill="#E31A5C" stroke="#000000" stroke-width="1.25" stroke-linecap="square" stroke-miterlimit="10" d="  M392.925,494.945C382.911,478.019,407.352,481.709,392.925,494.945L392.925,494.945z"/>
<path fill-rule="evenodd" clip-rule="evenodd" fill="#E31A5C" stroke="#000000" stroke-width="1.25" stroke-linecap="square" stroke-miterlimit="10" d="  M374.925,485.945C363.781,472.43,386.802,470.508,374.925,485.945L374.925,485.945z"/>
<path fill-rule="evenodd" clip-rule="evenodd" fill="#E31A5C" stroke="#000000" stroke-width="1.25" stroke-linecap="square" stroke-miterlimit="10" d="  M382.425,494.195C364.89,476.981,402.3,480.079,382.425,494.195L382.425,494.195z"/>
<path fill-rule="evenodd" clip-rule="evenodd" fill="#108F43" stroke="#000000" stroke-width="1.25" stroke-linecap="square" stroke-miterlimit="10" d="  M449.175,393.693c-5.742-1.523-9.079-3.693-15-0.75c6.02,4.409,12.822,9.235,18.75,13.5  C451.675,402.193,450.425,397.943,449.175,393.693z"/>
<path fill-rule="evenodd" clip-rule="evenodd" fill="#108F43" stroke="#000000" stroke-width="1.25" stroke-linecap="square" stroke-miterlimit="10" d="  M488.175,406.443c5.952,1.748,11.412,3.954,16.5,7.5C495.365,418.945,488.777,416.954,488.175,406.443z"/>
<path fill-rule="evenodd" clip-rule="evenodd" fill="#108F43" stroke="#000000" stroke-width="1.25" stroke-linecap="square" stroke-miterlimit="10" d="  M482.175,395.943C527.938,385.76,474.581,436.181,482.175,395.943L482.175,395.943z"/>
<path fill-rule="evenodd" clip-rule="evenodd" fill="#108F43" stroke="#000000" stroke-width="1.25" stroke-linecap="square" stroke-miterlimit="10" d="  M465.675,392.943C491.784,364.753,491.946,413.878,465.675,392.943L465.675,392.943z"/>
<path fill-rule="evenodd" clip-rule="evenodd" fill="#108F43" stroke="#000000" stroke-width="1.25" stroke-linecap="square" stroke-miterlimit="10" d="  M451.425,399.693C416.233,368.09,487.962,391.576,451.425,399.693L451.425,399.693z"/>
<path fill-rule="evenodd" clip-rule="evenodd" fill="#108F43" stroke="#000000" stroke-width="1.25" stroke-linecap="square" stroke-miterlimit="10" d="  M470.925,393.693c-0.885-12.783-10.541-26.002-13.875-6C455.215,398.703,468.024,413.15,470.925,393.693z"/>
<path fill-rule="evenodd" clip-rule="evenodd" fill="#E31A5C" stroke="#000000" stroke-width="1.25" stroke-linecap="square" stroke-miterlimit="10" d="  M456.675,400.443C437.863,397.137,456.145,380.894,456.675,400.443L456.675,400.443z"/>
<path fill-rule="evenodd" clip-rule="evenodd" fill="#E31A5C" stroke="#000000" stroke-width="1.25" stroke-linecap="square" stroke-miterlimit="10" d="  M471.675,403.443C441.656,406.558,478.792,374.038,471.675,403.443L471.675,403.443z"/>
<path fill-rule="evenodd" clip-rule="evenodd" fill="#E31A5C" stroke="#000000" stroke-width="1.25" stroke-linecap="square" stroke-miterlimit="10" d="  M490.425,408.693C460.255,411.139,498.729,378.242,490.425,408.693L490.425,408.693z"/>
<path fill-rule="evenodd" clip-rule="evenodd" fill="#E31A5C" stroke="#000000" stroke-width="1.25" stroke-linecap="square" stroke-miterlimit="10" d="  M451.425,408.693C420.411,410.399,457.599,378.315,451.425,408.693L451.425,408.693z"/>
<path fill-rule="evenodd" clip-rule="evenodd" fill="#E31A5C" stroke="#000000" stroke-width="1.25" stroke-linecap="square" stroke-miterlimit="10" d="  M463.425,411.693C429.539,419.009,470.713,376.546,463.425,411.693L463.425,411.693z"/>
<path fill-rule="evenodd" clip-rule="evenodd" fill="#E31A5C" stroke="#000000" stroke-width="1.25" stroke-linecap="square" stroke-miterlimit="10" d="  M479.925,412.443C438.134,425.746,496.482,371.291,479.925,412.443L479.925,412.443z"/>
<path fill-rule="evenodd" clip-rule="evenodd" fill="#E31A5C" stroke="#000000" stroke-width="1.25" stroke-linecap="square" stroke-miterlimit="10" d="  M495.675,418.443C457.077,428.415,512.013,381.879,495.675,418.443L495.675,418.443z"/>
<path fill-rule="evenodd" clip-rule="evenodd" fill="#E31A5C" stroke="#000000" stroke-width="1.25" stroke-linecap="square" stroke-miterlimit="10" d="  M443.925,419.943C412.145,422.038,451.444,390.312,443.925,419.943L443.925,419.943z"/>
<path fill-rule="evenodd" clip-rule="evenodd" fill="#E31A5C" stroke="#000000" stroke-width="1.25" stroke-linecap="square" stroke-miterlimit="10" d="  M453.675,422.195C427.563,422.561,456.602,395.681,453.675,422.195L453.675,422.195z"/>
<path fill-rule="evenodd" clip-rule="evenodd" fill="#E31A5C" stroke="#000000" stroke-width="1.25" stroke-linecap="square" stroke-miterlimit="10" d="  M468.675,425.195C430.257,433.23,482.913,388.67,468.675,425.195L468.675,425.195z"/>
<path fill-rule="evenodd" clip-rule="evenodd" fill="#E31A5C" stroke="#000000" stroke-width="1.25" stroke-linecap="square" stroke-miterlimit="10" d="  M481.425,423.695C449.43,427.333,490.292,391.938,481.425,423.695L481.425,423.695z"/>
<path fill-rule="evenodd" clip-rule="evenodd" fill="#E31A5C" stroke="#000000" stroke-width="1.25" stroke-linecap="square" stroke-miterlimit="10" d="  M491.925,429.695C470.466,428.499,491.924,406.752,491.925,429.695L491.925,429.695z"/>
<path fill-rule="evenodd" clip-rule="evenodd" fill="#E31A5C" stroke="#000000" stroke-width="1.25" stroke-linecap="square" stroke-miterlimit="10" d="  M446.925,435.695C414.833,439.497,453.389,403.447,446.925,435.695L446.925,435.695z"/>
<path fill-rule="evenodd" clip-rule="evenodd" fill="#E31A5C" stroke="#000000" stroke-width="1.25" stroke-linecap="square" stroke-miterlimit="10" d="  M458.925,434.945C427.208,439.208,467.051,403.096,458.925,434.945L458.925,434.945z"/>
<path fill-rule="evenodd" clip-rule="evenodd" fill="#E31A5C" stroke="#000000" stroke-width="1.25" stroke-linecap="square" stroke-miterlimit="10" d="  M472.425,434.945C446.774,435.801,477.724,409.754,472.425,434.945L472.425,434.945z"/>
<path fill-rule="evenodd" clip-rule="evenodd" fill="#E31A5C" stroke="#000000" stroke-width="1.25" stroke-linecap="square" stroke-miterlimit="10" d="  M484.425,435.695C464.758,433.032,482.859,416.194,484.425,435.695L484.425,435.695z"/>
<path fill-rule="evenodd" clip-rule="evenodd" fill="#E31A5C" stroke="#000000" stroke-width="1.25" stroke-linecap="square" stroke-miterlimit="10" d="  M449.925,443.945C428.896,441.087,449.983,422.956,449.925,443.945L449.925,443.945z"/>
<path fill-rule="evenodd" clip-rule="evenodd" fill="#E31A5C" stroke="#000000" stroke-width="1.25" stroke-linecap="square" stroke-miterlimit="10" d="  M462.675,443.195C436.875,444.139,467.075,417.727,462.675,443.195L462.675,443.195z"/>
<path fill-rule="evenodd" clip-rule="evenodd" fill="#E31A5C" stroke="#000000" stroke-width="1.25" stroke-linecap="square" stroke-miterlimit="10" d="  M474.675,443.945C456.207,440.655,474.183,424.213,474.675,443.945L474.675,443.945z"/>
<path fill-rule="evenodd" clip-rule="evenodd" fill="#E31A5C" stroke="#000000" stroke-width="1.25" stroke-linecap="square" stroke-miterlimit="10" d="  M455.925,451.445C436.38,449.01,455.689,431.913,455.925,451.445L455.925,451.445z"/>
<path fill-rule="evenodd" clip-rule="evenodd" fill="#E31A5C" stroke="#000000" stroke-width="1.25" stroke-linecap="square" stroke-miterlimit="10" d="  M467.175,451.445C442.915,451.404,469.714,427.731,467.175,451.445L467.175,451.445z"/>
</svg>