<svg xmlns="http://www.w3.org/2000/svg" xmlns:xlink="http://www.w3.org/1999/xlink" version="1.1" id="Layer_1" x="0px" y="0px" enable-background="new 0 0 822.05 841.89" xml:space="preserve" viewBox="222.26 248.89 376.26 346.11">
<path fill-rule="evenodd" clip-rule="evenodd" fill="#CB97C4" stroke="#000000" stroke-width="2" stroke-linecap="square" stroke-miterlimit="10" d="  M326.768,342.89c4.048,14.285-66.648,122.992-73.5,119.25C248.134,459.337,311.508,346.087,326.768,342.89z"/>
<path fill-rule="evenodd" clip-rule="evenodd" fill="#F9CBDF" stroke="#000000" stroke-width="2" stroke-linecap="square" stroke-miterlimit="10" d="  M401.768,300.14c-2.625,66.084-103.29,66.55-103.5,0C298.055,232.812,399.188,233.481,401.768,300.14z"/>
<path fill-rule="evenodd" clip-rule="evenodd" fill="#CB97C4" stroke="#000000" stroke-width="2" stroke-linecap="square" stroke-miterlimit="10" d="  M266.768,474.89c-2.182,26.778-42.965,27.697-43.5,0C222.719,446.472,265.345,446.97,266.768,474.89z"/>
<path fill-rule="evenodd" clip-rule="evenodd" fill="#FFFFFF" stroke="#000000" stroke-width="2" stroke-linecap="square" stroke-miterlimit="10" d="  M260.768,474.89c-3.799,19.991-30.75,18.854-30.75-1.875C230.018,453.335,258.188,457.376,260.768,474.89z"/>
<path fill-rule="evenodd" clip-rule="evenodd" fill="#EC008C" stroke="#000000" stroke-width="2" stroke-linecap="square" stroke-miterlimit="10" d="  M352.268,267.89C333.644,308.425,333.644,227.355,352.268,267.89L352.268,267.89z"/>
<path fill-rule="evenodd" clip-rule="evenodd" fill="#EC008C" stroke="#000000" stroke-width="2" stroke-linecap="square" stroke-miterlimit="10" d="  M359.018,304.64c-2.438,16.496-27,18.449-27,0S356.58,288.145,359.018,304.64z"/>
<path fill-rule="evenodd" clip-rule="evenodd" fill="#EC008C" stroke="#000000" stroke-width="2" stroke-linecap="square" stroke-miterlimit="10" d="  M392.768,291.14C372.884,334.416,378.127,246.564,392.768,291.14L392.768,291.14z"/>
<path fill-rule="evenodd" clip-rule="evenodd" fill="#EC008C" stroke="#000000" stroke-width="2" stroke-linecap="square" stroke-miterlimit="10" d="  M301.268,282.14c15.333,9.412,15.098,28.155-0.75,36.75C298.646,306.754,298.008,294.13,301.268,282.14z"/>
<path fill-rule="evenodd" clip-rule="evenodd" fill="#EC008C" stroke="#000000" stroke-width="2" stroke-linecap="square" stroke-miterlimit="10" d="  M344.018,350.39c4.286-19.125,23.229-22.665,34.5-6.75C367.515,348.511,355.928,351.391,344.018,350.39z"/>
<path fill-rule="evenodd" clip-rule="evenodd" fill="#CB97C4" stroke="#000000" stroke-width="2" stroke-linecap="square" stroke-miterlimit="10" d="  M399.518,441.89c3.838,13.649-65.229,123.172-73.5,119.25C322.072,559.269,382.762,444.64,399.518,441.89z"/>
<path fill-rule="evenodd" clip-rule="evenodd" fill="#F9CBDF" stroke="#000000" stroke-width="2" stroke-linecap="square" stroke-miterlimit="10" d="  M474.52,399.14c-5.315,65.254-104.013,67.088-104.252,0C370.027,331.536,469.858,333.01,474.52,399.14z"/>
<path fill-rule="evenodd" clip-rule="evenodd" fill="#CB97C4" stroke="#000000" stroke-width="2" stroke-linecap="square" stroke-miterlimit="10" d="  M339.518,573.14c-2.761,30.145-48.693,25.967-43.125-1.875C301.527,545.594,336.686,546.768,339.518,573.14z"/>
<path fill-rule="evenodd" clip-rule="evenodd" fill="#FFFFFF" stroke="#000000" stroke-width="2" stroke-linecap="square" stroke-miterlimit="10" d="  M332.768,573.14c-1.619,17.871-30,21.193-30,1.875C302.768,554.132,329.2,553.5,332.768,573.14z"/>
<path fill-rule="evenodd" clip-rule="evenodd" fill="#EC008C" stroke="#000000" stroke-width="2" stroke-linecap="square" stroke-miterlimit="10" d="  M424.27,366.89C405.977,407.183,406.96,326.028,424.27,366.89L424.27,366.89z"/>
<path fill-rule="evenodd" clip-rule="evenodd" fill="#EC008C" stroke="#000000" stroke-width="2" stroke-linecap="square" stroke-miterlimit="10" d="  M431.77,403.64c-2.481,16.797-27.002,18.23-27.002,0S429.288,386.843,431.77,403.64z"/>
<path fill-rule="evenodd" clip-rule="evenodd" fill="#EC008C" stroke="#000000" stroke-width="2" stroke-linecap="square" stroke-miterlimit="10" d="  M465.52,389.39C450.775,433.063,445.995,346.998,465.52,389.39L465.52,389.39z"/>
<path fill-rule="evenodd" clip-rule="evenodd" fill="#EC008C" stroke="#000000" stroke-width="2" stroke-linecap="square" stroke-miterlimit="10" d="  M374.018,381.14c15.45,9.483,14.946,27.952-0.75,36.75C371.097,405.697,370.928,393.165,374.018,381.14z"/>
<path fill-rule="evenodd" clip-rule="evenodd" fill="#EC008C" stroke="#000000" stroke-width="2" stroke-linecap="square" stroke-miterlimit="10" d="  M416.77,449.39c3.835-18.833,23.138-23.214,33.75-6.75C439.836,447.66,428.433,450.291,416.77,449.39z"/>
<path fill-rule="evenodd" clip-rule="evenodd" fill="#CB97C4" stroke="#000000" stroke-width="2" stroke-linecap="square" stroke-miterlimit="10" d="  M522.52,402.14c4.07,13.838-66.056,123.623-73.5,119.25C443.216,517.981,508.117,404.675,522.52,402.14z"/>
<path fill-rule="evenodd" clip-rule="evenodd" fill="#F9CBDF" stroke="#000000" stroke-width="2" stroke-linecap="square" stroke-miterlimit="10" d="  M597.52,358.64c-2.584,66.779-103.713,67.283-103.5,0C494.23,292.088,594.888,292.391,597.52,358.64z"/>
<path fill-rule="evenodd" clip-rule="evenodd" fill="#CB97C4" stroke="#000000" stroke-width="2" stroke-linecap="square" stroke-miterlimit="10" d="  M462.52,533.39c-2.24,27.345-42.918,28.201-42.75,0C419.936,505.5,460.539,506.154,462.52,533.39z"/>
<path fill-rule="evenodd" clip-rule="evenodd" fill="#FFFFFF" stroke="#000000" stroke-width="2" stroke-linecap="square" stroke-miterlimit="10" d="  M456.52,533.39c-2.868,19.128-31.065,20.601-30.75,0C426.081,513.054,453.435,514.545,456.52,533.39z"/>
<path fill-rule="evenodd" clip-rule="evenodd" fill="#EC008C" stroke="#000000" stroke-width="2" stroke-linecap="square" stroke-miterlimit="10" d="  M548.02,327.14C527.246,363.778,530.509,289.028,548.02,327.14L548.02,327.14z"/>
<path fill-rule="evenodd" clip-rule="evenodd" fill="#EC008C" stroke="#000000" stroke-width="2" stroke-linecap="square" stroke-miterlimit="10" d="  M554.77,363.89c-3.226,15.42-26.626,18.284-27,0C527.394,345.491,552.332,347.399,554.77,363.89z"/>
<path fill-rule="evenodd" clip-rule="evenodd" fill="#EC008C" stroke="#000000" stroke-width="2" stroke-linecap="square" stroke-miterlimit="10" d="  M588.52,349.64C569.896,390.175,569.896,309.105,588.52,349.64L588.52,349.64z"/>
<path fill-rule="evenodd" clip-rule="evenodd" fill="#EC008C" stroke="#000000" stroke-width="2" stroke-linecap="square" stroke-miterlimit="10" d="  M497.77,341.39c14.571,9.777,13.585,27.379-0.75,36.75C494.038,365.951,493.421,353.208,497.77,341.39z"/>
<path fill-rule="evenodd" clip-rule="evenodd" fill="#EC008C" stroke="#000000" stroke-width="2" stroke-linecap="square" stroke-miterlimit="10" d="  M539.77,408.89c5.201-18.42,23.674-22.4,34.5-6C563.335,408.003,551.708,410.647,539.77,408.89z"/>
</svg>