<svg xmlns="http://www.w3.org/2000/svg" xmlns:xlink="http://www.w3.org/1999/xlink" version="1.1" id="Layer_1" x="0px" y="0px" enable-background="new 0 0 822.05 841.89" xml:space="preserve" viewBox="321.77 339.61 176.35 161.91">
<path fill-rule="evenodd" clip-rule="evenodd" fill="#EFD9BC" stroke="#000000" stroke-linecap="square" stroke-miterlimit="10" d="  M394.125,407.273c10.976-4.031,18.321-9.436,18-11.25c33.453-10.629,31.622,17.948,25.973,37.723  C430.357,460.833,374.214,436.091,394.125,407.273z"/>
<path fill-rule="evenodd" clip-rule="evenodd" fill="#137827" stroke="#000000" stroke-width="1.25" stroke-linecap="square" stroke-miterlimit="10" d="  M462.375,409.523c-19.909-11.679-23.058,16.508-45,13.5c-9.741-1.335-13.192-11.667-20.25-13.5  c-13.897-3.608-18.948-0.681-34.5,8.25c-13.851,7.954-31.972,20.444-39.375,35.25c-6.37,12.739,24.706,19.676,32.109,23.625  c28.441,15.168,76.678,8.465,116.766,7.875c-0.571-5.285,2.923-9.845,2.25-15.75C518.754,492.304,468.512,416.222,462.375,409.523z"/>
<path fill-rule="evenodd" clip-rule="evenodd" fill="#EED5B6" stroke="#000000" stroke-width="1.25" stroke-linecap="square" stroke-miterlimit="10" d="  M397.875,382.523C390.047,397.402,383.881,375.15,397.875,382.523L397.875,382.523z"/>
<path fill-rule="evenodd" clip-rule="evenodd" fill="#EED5B6" stroke="#000000" stroke-width="1.25" stroke-linecap="square" stroke-miterlimit="10" d="  M451.125,389.273C433.717,394.749,446.515,371.999,451.125,389.273L451.125,389.273z"/>
<path fill-rule="evenodd" clip-rule="evenodd" fill="#EED5B6" stroke="#000000" stroke-width="1.25" stroke-linecap="square" stroke-miterlimit="10" d="  M395.625,361.523c-13.376,49.505,53.612,66.297,53.25,9.75C448.665,338.475,405.8,326.294,395.625,361.523z"/>
<path fill-rule="evenodd" clip-rule="evenodd" fill="#FFFFFF" stroke="#000000" stroke-linecap="square" stroke-miterlimit="10" d="  M368.625,462.023c23.283-5.321,44.816,0.28,66.75-3.375c33.875-5.646,40.968,15.539,62.25,40.875c-17.26-4.02-35.163-6-52.875-6  c-8.902,0-21.888,7.579-28.875,5.25c-23.121-7.707-52.751-14.781-73.5,2.25C351.125,488.023,359.875,475.023,368.625,462.023z"/>
<path fill-rule="evenodd" clip-rule="evenodd" fill="#FFFFFF" d="M422.625,459.773l-2.25,40.5L422.625,459.773z"/>
<line fill="none" stroke="#000000" stroke-linecap="square" stroke-miterlimit="10" x1="422.625" y1="459.773" x2="420.375" y2="500.273"/>
<path fill-rule="evenodd" clip-rule="evenodd" fill="#FFFFFF" d="M355.125,487.523c19.5-6.977,40.466-2.106,60,3  C395.125,489.523,375.125,488.523,355.125,487.523z"/>
<path fill="none" stroke="#000000" stroke-width="0.75" stroke-linecap="square" stroke-miterlimit="10" d="M355.125,487.523  c19.5-6.977,40.466-2.106,60,3"/>
<path fill-rule="evenodd" clip-rule="evenodd" fill="#FFFFFF" d="M358.875,481.523c16.649-6.505,38.091-2.221,54.75,3  C395.375,483.523,377.125,482.523,358.875,481.523z"/>
<path fill="none" stroke="#000000" stroke-width="0.75" stroke-linecap="square" stroke-miterlimit="10" d="M358.875,481.523  c16.649-6.505,38.091-2.221,54.75,3"/>
<path fill-rule="evenodd" clip-rule="evenodd" fill="#FFFFFF" d="M362.625,474.773c16.672-3.938,35.955-1.92,51.75,4.5  C397.125,477.773,379.875,476.273,362.625,474.773z"/>
<path fill="none" stroke="#000000" stroke-width="0.75" stroke-linecap="square" stroke-miterlimit="10" d="M362.625,474.773  c16.672-3.938,35.955-1.92,51.75,4.5"/>
<path fill-rule="evenodd" clip-rule="evenodd" fill="#FFFFFF" d="M427.875,465.773c10.977-2.248,22.221-4.077,33-1.5  C449.875,464.773,438.875,465.273,427.875,465.773z"/>
<path fill="none" stroke="#000000" stroke-width="0.75" stroke-linecap="square" stroke-miterlimit="10" d="M427.875,465.773  c10.977-2.248,22.221-4.077,33-1.5"/>
<path fill-rule="evenodd" clip-rule="evenodd" fill="#FFFFFF" d="M428.625,469.523c11.987-3.591,23.996-5.327,35.25-0.75  C452.125,469.023,440.375,469.273,428.625,469.523z"/>
<path fill="none" stroke="#000000" stroke-width="0.75" stroke-linecap="square" stroke-miterlimit="10" d="M428.625,469.523  c11.987-3.591,23.996-5.327,35.25-0.75"/>
<path fill-rule="evenodd" clip-rule="evenodd" fill="#FFFFFF" d="M428.625,474.773c12.908-4.415,26.311-6.688,39-0.75  C454.625,474.273,441.625,474.523,428.625,474.773z"/>
<path fill="none" stroke="#000000" stroke-width="0.75" stroke-linecap="square" stroke-miterlimit="10" d="M428.625,474.773  c12.908-4.415,26.311-6.688,39-0.75"/>
<path fill-rule="evenodd" clip-rule="evenodd" fill="#FFFFFF" d="M429.375,479.273c14.006-4.899,29.905-6.315,43.5,0  C458.375,479.273,443.875,479.273,429.375,479.273z"/>
<path fill="none" stroke="#000000" stroke-width="0.75" stroke-linecap="square" stroke-miterlimit="10" d="M429.375,479.273  c14.006-4.899,29.905-6.315,43.5,0"/>
<path fill-rule="evenodd" clip-rule="evenodd" fill="#D9E7EF" d="M439.875,480.023c14.448-1.417,29.662-2.942,38.25,9.75  c-13.2-1.192-26.621-2.707-39.75,0C438.875,486.523,439.375,483.273,439.875,480.023z"/>
<path fill="none" stroke="#000000" stroke-width="0.75" stroke-linecap="square" stroke-miterlimit="10" d="M439.875,480.023  c14.448-1.417,29.662-2.942,38.25,9.75c-13.2-1.192-26.621-2.707-39.75,0C438.875,486.523,439.375,483.273,439.875,480.023"/>
<path fill-rule="evenodd" clip-rule="evenodd" fill="#D9E7EF" stroke="#000000" stroke-width="0.75" stroke-linecap="square" stroke-miterlimit="10" d="  M413.625,464.273c-9.862-5.045-19.3-4.557-25.5,3c7.039,2.104,16.869,3.531,23.25,5.25  C412.125,469.773,412.875,467.023,413.625,464.273z"/>
<path fill-rule="evenodd" clip-rule="evenodd" fill="#EFD9BC" stroke="#000000" stroke-linecap="square" stroke-miterlimit="10" d="  M478.875,464.273c-4.617,5.98-34.509,14.915-33.75,0C445.914,448.772,473.867,456.589,478.875,464.273z"/>
<path fill-rule="evenodd" clip-rule="evenodd" fill="#EFD9BC" stroke="#000000" stroke-linecap="square" stroke-miterlimit="10" d="  M397.875,486.773c-8.163,4.219-35.789-4.26-28.5-17.25C376.903,456.106,397.239,478.563,397.875,486.773z"/>
<path fill-rule="evenodd" clip-rule="evenodd" fill="#137827" d="M355.125,446.273c10,5.25,20,10.5,30,15.75  c-11.389,2.662-20.902,8.993-22.5,20.25C341.998,476.233,351.177,462.063,355.125,446.273z"/>
<path fill="none" stroke="#000000" stroke-width="1.25" stroke-linecap="square" stroke-miterlimit="10" d="M355.125,446.273  c10,5.25,20,10.5,30,15.75c-11.389,2.662-20.902,8.993-22.5,20.25c-4.388-2.771-10.849-5.15-14.25-9"/>
</svg>