<svg xmlns="http://www.w3.org/2000/svg" xmlns:xlink="http://www.w3.org/1999/xlink" version="1.1" id="Layer_1" x="0px" y="0px" enable-background="new 0 0 822.05 841.89" xml:space="preserve" viewBox="304.18 346.03 212.5 153.36">
<path fill-rule="evenodd" clip-rule="evenodd" fill="#FFFFFF" stroke="#000000" stroke-linecap="square" stroke-miterlimit="10" d="  M509.429,498.89c-38.478,0-76.955,0-115.432,0c-23.606,0-47.212,0-70.818,0c-13.177,0-22.969-17.071-11.75-29.25  c10.875-11.804,99.117,0,115.432,0c23.606,0,47.213,0,70.819,0C516.577,469.64,509.429,480.865,509.429,498.89z"/>
<path fill-rule="evenodd" clip-rule="evenodd" fill="#E8C8A6" stroke="#000000" stroke-linecap="square" stroke-miterlimit="10" d="  M414.929,387.14c4.828-3.598,9.143-1.602,11.25-8.25c5.235-0.148,19.082,3.766,16.639,13.889  C435.748,422.068,404.904,405.727,414.929,387.14z"/>
<path fill-rule="evenodd" clip-rule="evenodd" fill="#FFFFFF" stroke="#000000" stroke-linecap="square" stroke-miterlimit="10" d="  M304.679,463.64c11.282-11.679,27.975-38.278,42.75-44.25c15.462-6.25,46.388,0,62.831,0c26.927,0,53.855,0,80.783,0  c10.933,0,20.566,34.62,25.137,44.25C445.679,463.64,375.179,463.64,304.679,463.64z"/>
<path fill-rule="evenodd" clip-rule="evenodd" fill="#FFFFFF" stroke="#000000" stroke-linecap="square" stroke-miterlimit="10" d="  M516.179,463.64c-40.556,0-81.112,0-121.668,0c-24.149,0-48.298,0-72.448,0c-18.565,0-24.522,9.75-2.19,9.75  c34.521,0,69.384-3.583,104.056-3.75C442.731,469.549,516.415,480.917,516.179,463.64z"/>
<path fill-rule="evenodd" clip-rule="evenodd" fill="#6AB0D3" stroke="#000000" stroke-linecap="square" stroke-miterlimit="10" d="  M396.929,421.64c-5.25,10.25-10.5,20.5-15.75,30.75c31-0.5,62-1,93-1.5C450.952,414.657,440.03,421.64,396.929,421.64z"/>
<path fill-rule="evenodd" clip-rule="evenodd" fill="#AAAAAD" stroke="#000000" stroke-linecap="square" stroke-miterlimit="10" d="  M381.179,424.64C377.974,425.03,376.85,425.167,381.179,424.64L381.179,424.64z"/>
<path fill-rule="evenodd" clip-rule="evenodd" fill="#AAAAAD" stroke="#000000" stroke-linecap="square" stroke-miterlimit="10" d="  M329.429,453.14c0.53-15.449,18.396-9.431,31.5-9.75c-13.827-24.663,24.297-24.35,17.784-13.692  C362.485,456.252,360.807,453.822,329.429,453.14z"/>
<path fill-rule="evenodd" clip-rule="evenodd" fill="#AAAAAD" stroke="#000000" stroke-linecap="square" stroke-miterlimit="10" d="  M348.179,417.89c-10.181,4.154-15.996,14.218-18,25.5c35.096,0.836,25.343-2.693,45-24  C366.814,415.824,357.208,415.342,348.179,417.89z"/>
<path fill-rule="evenodd" clip-rule="evenodd" fill="#AAAAAD" d="M361.679,444.14l2.25,9.75L361.679,444.14z"/>
<line fill="none" stroke="#000000" stroke-linecap="square" stroke-miterlimit="10" x1="361.679" y1="444.14" x2="363.929" y2="453.89"/>
<path fill-rule="evenodd" clip-rule="evenodd" fill="#AAAAAD" stroke="#000000" stroke-linecap="square" stroke-miterlimit="10" d="  M349.679,415.64c-5.436,3.952-9.357,6.588-9.75,14.25c11.861,4.158,20.054-1.347,24-12  C360.436,415.964,354.586,414.966,349.679,415.64z"/>
<path fill-rule="evenodd" clip-rule="evenodd" fill="#AAAAAD" d="M340.679,426.14c5.792,0.18,11.469,0.102,17.25,0.75  C352.179,426.64,346.429,426.377,340.679,426.14z"/>
<path fill="none" stroke="#000000" stroke-linecap="square" stroke-miterlimit="10" d="M340.679,426.14  c5.767-0.144,11.517,0.106,17.25,0.75"/>
<path fill-rule="evenodd" clip-rule="evenodd" fill="#AAAAAD" d="M342.929,421.64c5.87,0.11,11.472-0.15,17.25,0.75  C354.43,422.14,348.68,421.804,342.929,421.64z"/>
<path fill="none" stroke="#000000" stroke-linecap="square" stroke-miterlimit="10" d="M342.929,421.64  c5.76-0.383,11.588-0.132,17.25,0.75"/>
<path fill-rule="evenodd" clip-rule="evenodd" fill="#AAAAAD" d="M345.179,417.89L345.179,417.89L345.179,417.89z"/>
<line fill="none" stroke="#000000" stroke-linecap="square" stroke-miterlimit="10" x1="345.179" y1="417.89" x2="345.179" y2="417.89"/>
<path fill-rule="evenodd" clip-rule="evenodd" fill="#AAAAAD" d="M345.179,417.89c6.202,0.233,11.405-0.362,17.25,1.5  C356.684,418.891,350.935,418.219,345.179,417.89z"/>
<path fill="none" stroke="#000000" stroke-linecap="square" stroke-miterlimit="10" d="M345.179,417.89  c5.828-0.734,11.804-0.235,17.25,1.5"/>
<path fill-rule="evenodd" clip-rule="evenodd" fill="#AAAAAD" d="M352.679,415.64c-3.509,5.309-7.258,8.296-8.25,15  C347.179,425.64,349.953,420.653,352.679,415.64z"/>
<path fill="none" stroke="#000000" stroke-linecap="square" stroke-miterlimit="10" d="M352.679,415.64  c-4.501,3.912-7.38,9.126-8.25,15"/>
<path fill-rule="evenodd" clip-rule="evenodd" fill="#AAAAAD" d="M357.179,415.64c-2.424,5.225-5.119,9.057-6,15  C353.179,425.64,355.141,420.625,357.179,415.64z"/>
<path fill="none" stroke="#000000" stroke-linecap="square" stroke-miterlimit="10" d="M357.179,415.64  c-3.171,4.506-5.194,9.56-6,15"/>
<path fill-rule="evenodd" clip-rule="evenodd" fill="#AAAAAD" stroke="#000000" stroke-linecap="square" stroke-miterlimit="10" d="  M368.429,439.64c-5.343-9.876-47.305-15.072-40.5,2.25C325.831,436.549,368.994,439.384,368.429,439.64z"/>
<path fill-rule="evenodd" clip-rule="evenodd" fill="#AAAAAD" d="M327.179,438.89c5.023,0.031,8.189,2.09,13.5-1.5  C336.179,437.89,331.679,438.39,327.179,438.89z"/>
<path fill="none" stroke="#000000" stroke-linecap="square" stroke-miterlimit="10" d="M327.179,438.89  c4.366,1.978,9.254,1.37,13.5-1.5"/>
<path fill-rule="evenodd" clip-rule="evenodd" fill="#AAAAAD" d="M352.679,439.64c6.435-0.189,9.894,2.694,15.75-3  C363.179,437.64,357.929,438.639,352.679,439.64z"/>
<path fill="none" stroke="#000000" stroke-linecap="square" stroke-miterlimit="10" d="M352.679,439.64  c5.645,2.38,11.331,1.297,15.75-3"/>
<path fill-rule="evenodd" clip-rule="evenodd" fill="#AAAAAD" stroke="#000000" stroke-linecap="square" stroke-miterlimit="10" d="  M357.179,427.64C360.3,427.167,359.977,427.216,357.179,427.64L357.179,427.64z"/>
<path fill-rule="evenodd" clip-rule="evenodd" fill="#AAAAAD" stroke="#000000" stroke-linecap="square" stroke-miterlimit="10" d="  M388.679,432.14c-1.843-2.861-0.359-7.078-8.25-6.75c12.407,8.844-0.439,14.422-12.75,12  C375.298,441.978,385.183,439.865,388.679,432.14z"/>
<path fill-rule="evenodd" clip-rule="evenodd" stroke="#000000" stroke-linecap="square" stroke-miterlimit="10" d="M448.679,380.39  c20.687-34.869-42.848-54.99-37.5,1.5C423.679,381.39,436.179,380.89,448.679,380.39z"/>
<path fill-rule="evenodd" clip-rule="evenodd" fill="#E8C8A6" stroke="#000000" stroke-linecap="square" stroke-miterlimit="10" d="  M468.179,416.39c-5.808-9.558-13.883-19.755-23.25-27c8.857,26.498,25.118,26.438-0.75,50.25  C455.118,435.698,464.726,425.724,468.179,416.39z"/>
<path fill-rule="evenodd" clip-rule="evenodd" fill="#E8C8A6" stroke="#000000" stroke-width="0.5" stroke-linecap="square" stroke-miterlimit="10" d="  M433.679,447.14c4.626-5.466,5.221-10.701,15-8.25C445.922,447.941,440.844,445.466,433.679,447.14z"/>
<path fill-rule="evenodd" clip-rule="evenodd" fill="#E8C8A6" stroke="#000000" stroke-linecap="square" stroke-miterlimit="10" d="  M399.929,417.14c6.189-10.857,14.75-19.639,14.25-31.5c-17.012,18.58-27.994,46.323,3.75,54  C410.608,433.335,404.689,425.652,399.929,417.14z"/>
<path fill-rule="evenodd" clip-rule="evenodd" fill="#E8C8A6" stroke="#000000" stroke-width="0.5" stroke-linecap="square" stroke-miterlimit="10" d="  M426.929,450.89c-2.941-6.842-4.339-12.515-13.5-14.25C414.229,445.493,419.712,447.39,426.929,450.89z"/>
<path fill-rule="evenodd" clip-rule="evenodd" fill="#E8C8A6" stroke="#000000" stroke-linecap="square" stroke-miterlimit="10" d="  M417.929,357.89c-8.701,25.875,25.558,35.586,30,6C437.574,364.728,426.91,362.994,417.929,357.89z"/>
<path fill-rule="evenodd" clip-rule="evenodd" fill="#0C085B" stroke="#000000" stroke-linecap="square" stroke-miterlimit="10" d="  M449.429,404.39c1,3,2,6,3,9c24.235-13.234-4.605-38.004-12.375-19.875c-7.457,17.399-20.855,4.298-21.375-9.375  c-11.695,2.143-19.688,10.215-26.25,20.25c2.764,3.602,9.323,8.726,13.5,10.5c2-3.75,4-7.5,6-11.25  c-2.075,4.583-2.274,10.172-3.75,15c14.25,0,28.5,0,42.75,0C450.429,413.89,449.929,409.14,449.429,404.39z"/>
<path fill-rule="evenodd" clip-rule="evenodd" fill="#6AB0D3" stroke="#000000" stroke-width="0.5" stroke-linecap="square" stroke-miterlimit="10" d="  M453.179,443.39c18.482,0,52.6-10.125,54,14.25c-19,0-38,0-57,0C451.179,452.89,452.179,448.14,453.179,443.39z"/>
<path fill-rule="evenodd" clip-rule="evenodd" d="M458.429,446.39c0.212,2.3-0.186,4.715,0.75,6  C459.405,451.024,458.43,446.406,458.429,446.39z"/>
<path fill-rule="evenodd" clip-rule="evenodd" d="M460.679,452.39c2.023-2.496,2.114-5.515,3.75,0  C461.728,445.04,462.615,450.001,460.679,452.39z"/>
<path fill-rule="evenodd" clip-rule="evenodd" d="M465.929,452.39c0.157-4.215-0.695-4.192,1.5-6  C463.006,448.168,466.044,449.302,465.929,452.39z"/>
<path fill-rule="evenodd" clip-rule="evenodd" d="M469.679,453.14C469.227,446.888,469.332,448.34,469.679,453.14L469.679,453.14z   M469.679,452.39C469.088,448.833,468.958,448.05,469.679,452.39L469.679,452.39z"/>
<path fill-rule="evenodd" clip-rule="evenodd" d="M471.929,452.39C473.438,448.131,473.85,446.967,471.929,452.39L471.929,452.39z"/>
<path fill-rule="evenodd" clip-rule="evenodd" d="M474.929,452.39c2.132-0.726,1.124-7.005,3.75,0  c0.454-1.162-0.775-3.029,0.75-3.75c-0.031,0.063,1.799,4.355,1.5,3.75C476.987,444.637,477.612,450.485,474.929,452.39z"/>
<path fill-rule="evenodd" clip-rule="evenodd" d="M484.679,450.14C482.935,450.442,480.888,450.796,484.679,450.14L484.679,450.14z   M483.929,451.64C481.81,452.012,483.025,451.798,483.929,451.64L483.929,451.64z"/>
<path fill-rule="evenodd" clip-rule="evenodd" d="M486.179,447.89c0.135,0.634-0.384,3.022,0.75,5.25  C487.676,450.17,486.157,447.791,486.179,447.89z"/>
<path fill-rule="evenodd" clip-rule="evenodd" d="M489.179,452.39C488.249,446.471,488.766,449.758,489.179,452.39L489.179,452.39z   M489.179,447.89C489.179,446.243,489.179,446.243,489.179,447.89L489.179,447.89z"/>
<path fill-rule="evenodd" clip-rule="evenodd" d="M492.179,453.14C493.007,447.899,493.061,447.556,492.179,453.14L492.179,453.14z   M492.179,452.39C492.899,448.05,492.77,448.833,492.179,452.39L492.179,452.39z"/>
<path fill-rule="evenodd" clip-rule="evenodd" d="M495.179,452.39c1.916-2.473,1.654-5.59,3.75,0  C496.255,445.115,497.103,449.907,495.179,452.39z"/>
<path fill-rule="evenodd" clip-rule="evenodd" fill="#375E0D" stroke="#000000" stroke-linecap="square" stroke-miterlimit="10" d="  M486.179,421.64c-1.245-1.527,0.578-18.396,4.5-28.5C489.027,401.883,486.632,412.121,486.179,421.64z"/>
<path fill-rule="evenodd" clip-rule="evenodd" fill="#FF0000" stroke="#000000" stroke-linecap="square" stroke-miterlimit="10" d="  M492.179,385.64C483.507,376.696,488.165,381.5,492.179,385.64L492.179,385.64z"/>
<path fill-rule="evenodd" clip-rule="evenodd" fill="#FF0000" stroke="#000000" stroke-linecap="square" stroke-miterlimit="10" d="  M492.929,387.14c1.466-3.905,9.963-3.707,0-8.25C492.078,381.083,493.123,386.623,492.929,387.14z"/>
<path fill-rule="evenodd" clip-rule="evenodd" fill="#FF0000" stroke="#000000" stroke-linecap="square" stroke-miterlimit="10" d="  M492.179,387.89C502.615,390.658,498.495,389.565,492.179,387.89L492.179,387.89z"/>
<path fill-rule="evenodd" clip-rule="evenodd" fill="#FF0000" stroke="#000000" stroke-linecap="square" stroke-miterlimit="10" d="  M490.679,386.39c-3.204,2.01-8.694-5.818-6,5.25C489.195,391.117,491.442,385.911,490.679,386.39z"/>
<path fill-rule="evenodd" clip-rule="evenodd" fill="#FF0000" stroke="#000000" stroke-linecap="square" stroke-miterlimit="10" d="  M490.679,387.14C492.315,399.552,491.76,395.333,490.679,387.14L490.679,387.14z"/>
<path fill-rule="evenodd" clip-rule="evenodd" fill="#FFE600" stroke="#000000" stroke-linecap="square" stroke-miterlimit="10" d="  M489.929,386.39C495.645,387.635,493.709,387.213,489.929,386.39L489.929,386.39z"/>
<path fill-rule="evenodd" clip-rule="evenodd" fill="#FFFFFF" stroke="#000000" stroke-width="0.5" stroke-linecap="square" stroke-miterlimit="10" d="  M494.429,421.64C480.011,424.657,479.873,418.849,494.429,421.64L494.429,421.64z"/>
<path fill-rule="evenodd" clip-rule="evenodd" fill="#375E0D" stroke="#000000" stroke-linecap="square" stroke-miterlimit="10" d="  M485.429,430.64c-0.937-2.251,2.535-16.373,8.25-24.75C490.824,412.906,488.059,422.796,485.429,430.64z"/>
<path fill-rule="evenodd" clip-rule="evenodd" fill="#FF0000" stroke="#000000" stroke-linecap="square" stroke-miterlimit="10" d="  M496.679,399.89C489.979,391.804,491.059,393.106,496.679,399.89L496.679,399.89z"/>
<path fill-rule="evenodd" clip-rule="evenodd" fill="#FF0000" stroke="#000000" stroke-linecap="square" stroke-miterlimit="10" d="  M496.679,401.39c2.509-3.833,11.016-1.363,1.5-8.25C496.729,395.111,496.704,401.351,496.679,401.39z"/>
<path fill-rule="evenodd" clip-rule="evenodd" fill="#FF0000" stroke="#000000" stroke-linecap="square" stroke-miterlimit="10" d="  M495.929,401.39c0.729,0.415,1.768,5.562,3,6.75C507.535,398.946,499.146,403.22,495.929,401.39z"/>
<path fill-rule="evenodd" clip-rule="evenodd" fill="#FF0000" stroke="#000000" stroke-linecap="square" stroke-miterlimit="10" d="  M495.179,399.89c-0.859,0.257-4.991-2.231-6.75-2.25C489.096,409.479,491.783,400.907,495.179,399.89z"/>
<path fill-rule="evenodd" clip-rule="evenodd" fill="#FF0000" stroke="#000000" stroke-linecap="square" stroke-miterlimit="10" d="  M494.429,400.64C494.446,412.661,494.439,407.963,494.429,400.64L494.429,400.64z"/>
<path fill-rule="evenodd" clip-rule="evenodd" fill="#FFE600" stroke="#000000" stroke-linecap="square" stroke-miterlimit="10" d="  M493.679,399.89C498.216,401.364,498.608,401.491,493.679,399.89L493.679,399.89z"/>
<path fill-rule="evenodd" clip-rule="evenodd" fill="#375E0D" stroke="#000000" stroke-linecap="square" stroke-miterlimit="10" d="  M485.429,423.14c2.665-7.555,2.576-12.511,12.75-13.5C495.755,418.972,490.41,421.235,485.429,423.14z"/>
<path fill-rule="evenodd" clip-rule="evenodd" fill="#375E0D" stroke="#000000" stroke-linecap="square" stroke-miterlimit="10" d="  M486.929,440.39c3.759-3.719-0.997-22.639-6-33.75C482.052,416.223,487.319,428.796,486.929,440.39z"/>
<path fill-rule="evenodd" clip-rule="evenodd" fill="#FF0000" stroke="#000000" stroke-linecap="square" stroke-miterlimit="10" d="  M477.929,397.64C488.359,387.782,489.026,393.818,477.929,397.64L477.929,397.64z"/>
<path fill-rule="evenodd" clip-rule="evenodd" fill="#FF0000" stroke="#000000" stroke-linecap="square" stroke-miterlimit="10" d="  M477.179,399.14C470.156,388.014,476.979,389.543,477.179,399.14L477.179,399.14z"/>
<path fill-rule="evenodd" clip-rule="evenodd" fill="#FF0000" stroke="#000000" stroke-linecap="square" stroke-miterlimit="10" d="  M478.679,400.64C464.899,408.146,467.189,398.9,478.679,400.64L478.679,400.64z"/>
<path fill-rule="evenodd" clip-rule="evenodd" fill="#FF0000" stroke="#000000" stroke-linecap="square" stroke-miterlimit="10" d="  M480.179,398.39C494.985,402.361,487.99,404.253,480.179,398.39L480.179,398.39z"/>
<path fill="none" stroke="#000000" stroke-width="0.5" stroke-linecap="square" stroke-miterlimit="10" d="M486.929,423.14  c0.776-4.529,3.414-8.041,7.5-9.75"/>
<path fill-rule="evenodd" clip-rule="evenodd" fill="#FF0000" stroke="#000000" stroke-linecap="square" stroke-miterlimit="10" d="  M480.929,399.89C482.946,414.471,476.131,409.606,480.929,399.89L480.929,399.89z"/>
<path fill-rule="evenodd" clip-rule="evenodd" fill="#FFE600" stroke="#000000" stroke-linecap="square" stroke-miterlimit="10" d="  M481.679,398.39c-2.228,0.601-2.257,4.939-6,1.5C477.851,395.896,480.821,398.622,481.679,398.39z"/>
<path fill-rule="evenodd" clip-rule="evenodd" fill="#FFEC00" stroke="#000000" stroke-width="0.5" stroke-linecap="square" stroke-miterlimit="10" d="  M496.679,431.39c-1.004-3.218-0.982-6.521-2.25-9.75c-1.938-0.283-11.621-1.394-12.75-1.5  C471.083,438.988,493.409,453.134,496.679,431.39z"/>
</svg>