<svg xmlns="http://www.w3.org/2000/svg" xmlns:xlink="http://www.w3.org/1999/xlink" version="1.1" id="Layer_1" x="0px" y="0px" enable-background="new 0 0 822.05 841.89" xml:space="preserve" viewBox="202.35 253.33 416 338">
<path fill-rule="evenodd" clip-rule="evenodd" fill="#BCBEC0" stroke="#000000" stroke-width="2" stroke-linecap="square" stroke-miterlimit="10" d="  M203.352,418.578c28.485-26.914,55.955-54.662,87-78.75c13.248-10.279,68.639-57.382,86.828-50.016  c48.473,19.63,96.944,39.261,145.416,58.891c28.364,11.487,107.463,22.405,92.506,63.875  c-14.471,40.12-70.503,85.688-97.473,118.466c-14.978,18.204-29.955,36.408-44.934,54.612c-6.986,8.491-16.376-1.916-25.147-6.527  c-55.746-29.307-111.491-58.613-167.237-87.919c-20.894-10.984-41.787-21.968-62.68-32.952  C200.681,449.346,205.082,438.043,203.352,418.578z"/>
<path fill="none" stroke="#000000" stroke-width="2" stroke-linecap="square" stroke-miterlimit="10" d="M203.352,418.578  c83.74,44.263,167.48,88.525,251.221,132.788c29.414,15.547,137.639-136.036,162.779-164.288"/>
<line fill="none" stroke="#000000" stroke-width="2" stroke-linecap="square" stroke-miterlimit="10" x1="465.852" y1="557.328" x2="468.852" y2="590.328"/>
<path fill-rule="evenodd" clip-rule="evenodd" fill="#6D6F71" stroke="#000000" stroke-width="2" stroke-linecap="square" stroke-miterlimit="10" d="  M502.602,376.578c-7.064,99.266-227.25,99.724-227.25,0C275.352,276.644,495.523,277.113,502.602,376.578z"/>
<path fill="none" stroke="#000000" stroke-width="2" stroke-linecap="square" stroke-miterlimit="10" d="M283.602,349.578  c-14.19,35.475-28.332,61.899,4.125,90.75c31.66,28.143,84.734,29.904,124.5,23.625c56.068-8.853,146.871-69.875,76.875-126.375"/>
<path fill-rule="evenodd" clip-rule="evenodd" fill="#BCBEC0" stroke="#000000" stroke-width="2" stroke-linecap="square" stroke-miterlimit="10" d="  M429.852,417.078c-1.89,16.979-60.75,15.029-60.75,1.875C369.102,399.014,424.561,403.322,429.852,417.078z"/>
<path fill-rule="evenodd" clip-rule="evenodd" fill="#BCBEC0" stroke="#000000" stroke-width="2" stroke-linecap="square" stroke-miterlimit="10" d="  M588.852,399.828c-7.975,22.595-75.302,28.101-75.75,0C512.653,371.712,581.355,376.15,588.852,399.828z"/>
<path fill-rule="evenodd" clip-rule="evenodd" fill="#DEDFE0" stroke="#000000" stroke-width="2" stroke-linecap="square" stroke-miterlimit="10" d="  M424.602,363.078c-8.015,22.307-79.996,27.863-80.25,0C344.097,335.172,416.704,340.425,424.602,363.078z"/>
<path fill-rule="evenodd" clip-rule="evenodd" fill="#BCBEC0" stroke="#000000" stroke-width="2" stroke-linecap="square" stroke-miterlimit="10" d="  M589.602,354.828c-55.235,25.518-106.061,58.823-167.25,60c2.827,32.305,157.1-45.651,174-56.25  C594.264,356.084,591.964,356.53,589.602,354.828z"/>
<path fill-rule="evenodd" clip-rule="evenodd" fill="#ED1C24" stroke="#000000" stroke-width="2" stroke-linecap="square" stroke-miterlimit="10" d="  M540.852,254.328c9.75,9.5,19.5,19,29.25,28.5c-26,19.25-52,38.5-78,57.75c8,7.75,16,15.5,24,23.25c-24-2.25-48-4.5-72-6.75  c7.5-21,15-42,22.5-63c4.5,9,9,18,13.5,27C500.352,298.828,520.602,276.578,540.852,254.328z"/>
</svg>