<svg xmlns="http://www.w3.org/2000/svg" xmlns:xlink="http://www.w3.org/1999/xlink" version="1.1" id="Layer_1" x="0px" y="0px" enable-background="new 0 0 822.05 841.89" xml:space="preserve" viewBox="232.79 242.24 357.32 351.65">
<path fill-rule="evenodd" clip-rule="evenodd" fill="#0DB14B" stroke="#000000" stroke-width="2" stroke-linecap="square" stroke-miterlimit="10" d="  M263.789,390.39c-10.212,20.425-28.037,42.4-24,66c3.875,22.648,32.99,55.587,45,76.5c16.75-34,33.5-68,50.25-102  c9.75,5.25,19.5,10.5,29.25,15.75c-5.312-10.198-30.015-72.121-39.066-71.975c-30.478,0.491-60.956,0.983-91.434,1.475  C243.789,380.89,253.789,385.64,263.789,390.39z"/>
<path fill-rule="evenodd" clip-rule="evenodd" fill="#A4C096" stroke="#000000" stroke-width="2" stroke-linecap="square" stroke-miterlimit="10" d="  M284.789,532.89c7.806,12.599,18.912,24,34.331,24c21.671,0,43.341,0,65.012,0c24.514,0,20.657,0.27,20.657-24.568  c0-8.032,5.754-52.045,0-57.182c-6.167-5.505-42.416,0-50.6,0C303.983,475.14,307.773,487.51,284.789,532.89z"/>
<path fill-rule="evenodd" clip-rule="evenodd" fill="#0DB14B" stroke="#000000" stroke-width="2" stroke-linecap="square" stroke-miterlimit="10" d="  M510.541,298.14c-13.42-19.172-23.815-43.99-46.5-51.75c-23.287-7.966-63.647,1.607-88.502,2.25c21.75,31,43.501,62,65.252,93  c-9.25,6-18.5,12-27.75,18c11.506,0.213,77.495,8.146,81.732,0.11c14.256-27.037,28.512-54.073,42.768-81.11  C528.541,285.14,519.541,291.64,510.541,298.14z"/>
<path fill-rule="evenodd" clip-rule="evenodd" fill="#A4C096" stroke="#000000" stroke-width="2" stroke-linecap="square" stroke-miterlimit="10" d="  M375.539,248.64c-14.723,0.87-30.702,5.032-38.022,18.662c-10.302,19.184-20.605,38.368-30.907,57.552  c-11.635,21.666-10.09,18.141,11.817,30.007c7.202,3.9,42.904,29.865,50.362,27.279c9.601-3.329,25.038-43.396,30.151-52.26  C420.116,293.177,399.282,283.089,375.539,248.64z"/>
<path fill-rule="evenodd" clip-rule="evenodd" fill="#0DB14B" stroke="#000000" stroke-width="2" stroke-linecap="square" stroke-miterlimit="10" d="  M469.291,559.89c22.615-1.858,50.806,1.973,69-13.5c17.709-15.06,30.877-56.212,42.75-77.25c-37.75,2.75-75.5,5.5-113.25,8.25  c-0.25-11-0.5-22-0.75-33c-6.097,9.84-46.685,62.483-41.941,70.339c15.73,26.054,31.461,52.107,47.191,78.161  C471.291,581.89,470.291,570.89,469.291,559.89z"/>
<path fill-rule="evenodd" clip-rule="evenodd" fill="#A4C096" stroke="#000000" stroke-width="2" stroke-linecap="square" stroke-miterlimit="10" d="  M581.041,469.14c7.654-12.819,11.652-28.448,3.787-41.769c-11.014-18.651-22.026-37.302-33.039-55.953  c-12.452-21.089-10.266-17.915-31.686-5.382c-7.151,4.185-47.559,21.038-49.312,28.854c-2.247,10.013,23.317,44.137,28.141,53.266  C518.938,486.025,539.069,472.369,581.041,469.14z"/>
</svg>