<svg xmlns="http://www.w3.org/2000/svg" xmlns:xlink="http://www.w3.org/1999/xlink" version="1.1" id="Layer_1" x="0px" y="0px" enable-background="new 0 0 822.05 841.89" xml:space="preserve" viewBox="321.45 332.66 177.79 178.08">
<path fill-rule="evenodd" clip-rule="evenodd" fill="#F8130D" d="M352,416.39c37.04-26.237,37.285-22.771,18-63.75  c-5.699,9.393-72.507,93.247-39.375,106.5c16.512,6.604,34.761-16.254,45.178-25.242c16.653-14.367,33.306-28.734,49.959-43.102  c9.024-7.786-13.647-28.247-19.763-36.656c-8.088,12.176-108.584,129-66.75,145.5c17.557,6.925,42.459-27.384,50.951-35.549  c20.342-19.56,40.683-39.118,61.025-58.678c12.687-12.199-5.677-33.116-12.226-47.523c-10.815,15.186-113.485,126.047-80.25,150  c16.794,12.104,38.392-17.617,47.778-26.643c21.109-20.297,42.218-40.595,63.327-60.892c17.866-17.179,2.412-29.578-7.605-51.216  c-15.377,21.06-96.304,99.813-80.25,132c19.142,38.378,87.915-55.998,99.75-68.25c-10-9.25-20-18.5-30-27.75  c-10.591,19.704-46.885,63.34-38.248,89.25c10.229,30.685,44.416-7.467,53.248-18c8.033-9.58,32.545-43.532,10.125-52.5  c-9.403-3.761-15.058,1.267-22.875,5.25c-34.711,17.687-15.601,33.258,0.75,56.25c5.993-11.149,63.734-90.982,27-101.25  c-14.389-4.022-31.414,20.399-39.143,28.4c-15.099,15.631-30.196,31.263-45.295,46.894c-8.747,9.056,14.253,30.291,20.688,39.456  c10.091-13.93,109.948-119.281,73.125-141.375c-17.483-10.49-44.156,26.087-52.826,34.424  c-20.341,19.559-40.683,39.118-61.024,58.678c-12.736,12.246,5.579,32.417,12.226,46.773c10.436-14.652,114.201-127.329,79.5-150  c-17.394-11.363-38.229,17.461-47.778,26.643c-21.109,20.297-42.218,40.594-63.327,60.892  c-17.976,17.284-0.246,25.578,13.605,44.466c11.453-17.24,100.126-114.213,72.75-141c-12.662-12.39-25.805,1.24-36.122,9.955  c-19.669,16.614-39.338,33.227-59.007,49.841c-16.178,13.665,4.63,26.457,15.628,41.455c12.536-20.661,52.378-63.618,46.877-91.125  c-3.169-15.846-13.857-20.21-27.099-11.292c-21.61,14.554-49.651,27.661-56.528,55.167C323.94,408.627,334.657,425.216,352,416.39z"/>
</svg>