<svg xmlns="http://www.w3.org/2000/svg" xmlns:xlink="http://www.w3.org/1999/xlink" version="1.1" id="Layer_1" x="0px" y="0px" enable-background="new 0 0 822.05 841.89" xml:space="preserve" viewBox="290.33 248.4 243.99 350.69">
<path fill-rule="evenodd" clip-rule="evenodd" fill="#ED1C24" stroke="#000000" stroke-width="2" stroke-linecap="square" stroke-miterlimit="10" d="  M533.328,262.89c-8.25,9.5-16.5,19-24.75,28.5c-26.276-12.15-1.501-27.431,10.5-41.25  C523.441,254.044,530.318,257.944,533.328,262.89z"/>
<path fill-rule="evenodd" clip-rule="evenodd" fill="#FFFBCE" stroke="#000000" stroke-width="2" stroke-linecap="square" stroke-miterlimit="10" d="  M387.076,379.14c-7.17,47.801-9.625,95.834-13.5,144c34.348,10.739,32.238-61.576,36.75-84.75  c3.148,21.111,6.297,42.223,9.446,63.333c0.35,2.35,0.967,20.498,3.306,22.167c4.612,3.291,21.055,1.06,20.907-5.812  c-0.969-45.062-1.938-90.126-2.907-135.188C423.017,392.416,404.012,389.345,387.076,379.14z"/>
<path fill-rule="evenodd" clip-rule="evenodd" fill="#E4BC92" stroke="#000000" stroke-width="2" stroke-linecap="square" stroke-miterlimit="10" d="  M429.078,278.64c2.873,30.404-27.028,30.623-27.002,0C402.102,248.395,431.191,248.379,429.078,278.64z"/>
<path fill-rule="evenodd" clip-rule="evenodd" fill="#DEDFE0" stroke="#000000" stroke-width="2" stroke-linecap="square" stroke-miterlimit="10" d="  M396.076,304.89c-12.5,6-25,12-37.5,18c5.844,13.739,17.702,18.44,31.5,12.75c-2.891,31.39-17.664,56.17,15.75,63.75  c47.529,10.782,33.881-28.221,30.002-59.25c18.33,8.58,29.354,6.135,39-12C445.198,311.119,430.328,307.252,396.076,304.89z"/>
<path fill-rule="evenodd" clip-rule="evenodd" fill="#E4BC92" stroke="#000000" stroke-width="2" stroke-linecap="square" stroke-miterlimit="10" d="  M474.828,328.14c-3.493,3.38-6.075,8.1-9,12c40.317,9.376,33.974,1.786,45.711-37.133c3.26-10.809,11.669-19.978,3.414-28.867  c-9.823-10.579-13.92,10.049-27.375,6.75C498.469,294.797,493.427,324.899,474.828,328.14z"/>
<path fill-rule="evenodd" clip-rule="evenodd" fill="#E4BC92" stroke="#000000" stroke-width="2" stroke-linecap="square" stroke-miterlimit="10" d="  M358.576,322.89c4.74,3.756,8.199,10.248,12,15c-36.205,7.083-33.854,7.812-52.864-23.42c-11.525-18.934-39.544-34.166-19.136-53.08  c2.522,6.445,9.933,10.908,12.75,17.25c3.5-3.25,7-6.5,10.5-9.75C310.938,289.312,334.605,328.743,358.576,322.89z"/>
<path fill-rule="evenodd" clip-rule="evenodd" fill="#6D6F71" stroke="#000000" stroke-width="2" stroke-linecap="square" stroke-miterlimit="10" d="  M373.576,523.14c4.958-1.281,11.338,0,16.5,0c-2.585,19.816,9.266,65.854-15.375,69.375c-21.834,3.119-7.2-4.193-7.125-13.125  C367.709,563.536,373.92,542.078,373.576,523.14z"/>
<path fill-rule="evenodd" clip-rule="evenodd" fill="#6D6F71" d="M426.078,523.89c5.249-1.887,12.394-1.033,18-1.5  c-2.567,15.406-10.023,35.794-1.125,50.625c4.933,8.221,18.969,13.952,6.375,20.625C414.094,612.308,424.538,529.488,426.078,523.89  z"/>
<path fill="none" stroke="#000000" stroke-width="2" stroke-linecap="square" stroke-miterlimit="10" d="M426.078,523.89  c5.249-1.887,12.394-1.033,18-1.5c-2.966,17.794-6.009,31.559-2.25,48.75c1.959,8.962,19.732,13.154,9.75,21.75  c-32.159,27.692-27.396-64.076-28.5-69"/>
<path fill-rule="evenodd" clip-rule="evenodd" fill="#6D6F71" stroke="#000000" stroke-width="2" stroke-linecap="square" stroke-miterlimit="10" d="  M402.826,266.64c14.3-0.293,29.037,1.062,42.002,7.5C438.529,270.876,397.732,225.292,402.826,266.64z"/>
<path fill-rule="evenodd" clip-rule="evenodd" fill="#BCBEC0" stroke="#000000" stroke-width="2" stroke-linecap="square" stroke-miterlimit="10" d="  M403.576,295.14c-7.992,8.014-9.228,17.695-4.5,28.5c4.543-0.761,12.171-4.578,15.75-7.5  C411.321,309.597,408.403,300.737,403.576,295.14z"/>
<path fill-rule="evenodd" clip-rule="evenodd" fill="#BCBEC0" stroke="#000000" stroke-width="2" stroke-linecap="square" stroke-miterlimit="10" d="  M419.328,315.39c1.062-6.043,5.673-12.376,8.25-18c14.103,7.002,12.793,18.147,1.5,28.5  C425.828,322.39,422.578,318.89,419.328,315.39z"/>
</svg>