<svg xmlns="http://www.w3.org/2000/svg" xmlns:xlink="http://www.w3.org/1999/xlink" version="1.1" id="Layer_1" x="0px" y="0px" enable-background="new 0 0 822.05 841.89" xml:space="preserve" viewBox="306.41 356.64 211.89 133.09">
<path fill-rule="evenodd" clip-rule="evenodd" fill="#EED5B6" stroke="#000000" stroke-width="1.25" stroke-linecap="square" stroke-miterlimit="10" d="  M511.163,442.019c-6.197-4.067-10.966-2.312-14.25-9.75c0.477,0.038-23.571,2.871-20.695,13.734  C486.263,483.95,523.504,461.27,511.163,442.019z"/>
<path fill-rule="evenodd" clip-rule="evenodd" fill="#EED5B6" stroke="#000000" stroke-width="1.25" stroke-linecap="square" stroke-miterlimit="10" d="  M475.913,421.769C469.736,423.256,469.275,423.368,475.913,421.769L475.913,421.769z"/>
<path fill-rule="evenodd" clip-rule="evenodd" fill="#EED5B6" stroke="#000000" stroke-width="1.25" stroke-linecap="square" stroke-miterlimit="10" d="  M509.663,426.269C502.771,423.859,504.099,424.323,509.663,426.269L509.663,426.269z"/>
<path fill-rule="evenodd" clip-rule="evenodd" fill="#EED5B6" stroke="#000000" stroke-width="1.25" stroke-linecap="square" stroke-miterlimit="10" d="  M473.663,409.019c-5.076,22.11,16.844,43.453,32.25,20.25C523.817,402.304,483.111,378.205,473.663,409.019z"/>
<path fill-rule="evenodd" clip-rule="evenodd" d="M498.413,424.769c-7.254,7.016-9.885,11.837-15-1.5  C488.356,423.763,493.557,423.756,498.413,424.769z"/>
<path fill-rule="evenodd" clip-rule="evenodd" fill="#EED5B6" stroke="#000000" stroke-width="1.25" stroke-linecap="square" stroke-miterlimit="10" d="  M427.163,448.019c-9.487-0.577-15.207-4.93-15.75,6.75C423.251,459.091,422.939,454.557,427.163,448.019z"/>
<path fill-rule="evenodd" clip-rule="evenodd" fill="#137827" stroke="#000000" stroke-width="1.25" stroke-linecap="square" stroke-miterlimit="10" d="  M480.413,436.769c-21.521,4.679-38.096,8.81-60,4.5C412.271,472.039,483.76,469.014,480.413,436.769z"/>
<path fill-rule="evenodd" clip-rule="evenodd" fill="#392170" stroke="#000000" stroke-width="1.25" stroke-linecap="square" stroke-miterlimit="10" d="  M508.163,459.269c1.042,7.244,2,14.5,3,21.75C509.679,475.128,508.865,466.455,508.163,459.269z"/>
<path fill-rule="evenodd" clip-rule="evenodd" fill="#137827" stroke="#000000" stroke-width="1.25" stroke-linecap="square" stroke-miterlimit="10" d="  M463.913,486.269c3.06-16.683,2.698-34.214,13.5-48c9.812,23.084,20.684-6.022,34.5,8.25c6.263,6.47,7.284,21.229,3.75,29.25  C507.998,493.167,485.446,485.953,463.913,486.269z"/>
<path fill-rule="evenodd" clip-rule="evenodd" fill="#EED5B6" stroke="#000000" stroke-width="1.25" stroke-linecap="square" stroke-miterlimit="10" d="  M445.163,470.519c-4.75,0.25-9.5,0.5-14.25,0.75c0.25,2.75,0.5,5.5,0.75,8.25C443.679,481.759,442.502,477.614,445.163,470.519z"/>
<path fill-rule="evenodd" clip-rule="evenodd" fill="#137827" stroke="#000000" stroke-width="1.25" stroke-linecap="square" stroke-miterlimit="10" d="  M490.913,450.269c-16.512,12.141-34.321,13.752-54,17.25c-2.458,27.068,56.142,12.85,68.25-2.25  C516.559,451.059,508.978,437.896,490.913,450.269z"/>
<path fill-rule="evenodd" clip-rule="evenodd" fill="#EED5B6" stroke="#000000" stroke-width="1.25" stroke-linecap="square" stroke-miterlimit="10" d="  M430.163,469.769c-1.472-1.996,0.749-3.939-2.25-6C427.837,469.851,432.78,473.318,430.163,469.769z"/>
<path fill-rule="evenodd" clip-rule="evenodd" fill="#EED5B6" stroke="#000000" stroke-width="1.25" stroke-linecap="square" stroke-miterlimit="10" d="  M434.663,467.519c-0.952,5.557,0.96,9.044-4.5,12c-0.545-10.354-2.341-21.784-3-31.5  C431.726,452.938,433.409,460.047,434.663,467.519z"/>
<path fill-rule="evenodd" clip-rule="evenodd" fill="#EED5B6" stroke="#000000" stroke-width="1.25" stroke-linecap="square" stroke-miterlimit="10" d="  M409.913,424.769c2.513,3.977,5.389,8.01,3.75,15c0.321-1.323,0.821-2.573,1.498-3.75c0.968,6.885-0.418,12.378-2.998,19.5  c-1.112-0.224-2.112,0.026-3,0.75C407.591,445.785,407.349,434.83,409.913,424.769z"/>
<path fill="none" stroke="#000000" stroke-width="1.25" stroke-linecap="square" stroke-miterlimit="10" d="M414.411,436.769  c0.026,3.957-1.474,7.318-4.498,9"/>
<path fill-rule="evenodd" clip-rule="evenodd" fill="#137827" stroke="#000000" stroke-width="1.25" stroke-linecap="square" stroke-miterlimit="10" d="  M379.913,468.269c-10.25,0-20.5,0-30.75,0c9.44-36.355-5.393-39.083-13.125-3C329.604,495.292,384.102,489.645,379.913,468.269z"/>
<path fill-rule="evenodd" clip-rule="evenodd" fill="#EED5B6" stroke="#000000" stroke-width="1.25" stroke-linecap="square" stroke-miterlimit="10" d="  M322.913,439.019c5.5-4.425,10.348-2.504,13.5-9.75c1.634,0.043,21.618,4.448,19.312,13.383  C346.849,477.049,311.679,458.245,322.913,439.019z"/>
<path fill-rule="evenodd" clip-rule="evenodd" fill="#137827" stroke="#000000" stroke-width="1.25" stroke-linecap="square" stroke-miterlimit="10" d="  M355.163,436.019c-11.229,21.765-25.244-3.812-39,3c14.364,4.743,8.234,17.72,4.5,32.25c8.889,0,22.398-2.775,30.75,0  c7.979,2.652-9.761,19.703,13.5,13.5C363.193,469.012,362.417,449.551,355.163,436.019z"/>
<path fill-rule="evenodd" clip-rule="evenodd" fill="#F4EE12" stroke="#000000" stroke-width="1.25" stroke-linecap="square" stroke-miterlimit="10" d="  M356.663,487.019c7.345,0,39.815,4.709,44.25,0c1.987-2.109,1.987-38.391,0-40.5c-1.875-1.991-42.375-1.991-44.25,0  C352.17,451.29,356.663,479.786,356.663,487.019z"/>
<path fill-rule="evenodd" clip-rule="evenodd" fill="#137827" stroke="#000000" stroke-width="1.25" stroke-linecap="square" stroke-miterlimit="10" d="  M351.413,471.269c-10.25,0-20.5,0-30.75,0c9.411-36.62-5.348-39.295-13.125-3C301.303,497.367,355.583,492.622,351.413,471.269z"/>
<path fill-rule="evenodd" clip-rule="evenodd" fill="#EED5B6" stroke="#000000" stroke-width="1.25" stroke-linecap="square" stroke-miterlimit="10" d="  M358.913,472.769c0.541-3.053,1.891-5.678,1.5-8.25c-14.588,5.822-21.21,16.908-2.625,20.625  C377.107,489.007,379.376,469.185,358.913,472.769z"/>
<path fill-rule="evenodd" clip-rule="evenodd" fill="#EED5B6" stroke="#000000" stroke-width="1.25" stroke-linecap="square" stroke-miterlimit="10" d="  M355.913,419.519C362.606,422.303,361.093,421.674,355.913,419.519L355.913,419.519z"/>
<path fill-rule="evenodd" clip-rule="evenodd" fill="#EED5B6" stroke="#000000" stroke-width="1.25" stroke-linecap="square" stroke-miterlimit="10" d="  M324.413,424.019C330.979,421.994,330.008,422.292,324.413,424.019L324.413,424.019z"/>
<path fill-rule="evenodd" clip-rule="evenodd" fill="#EED5B6" stroke="#000000" stroke-width="1.25" stroke-linecap="square" stroke-miterlimit="10" d="  M358.163,407.519c3.901,17.316-14.167,43.25-28.5,21.75C312.686,403.803,346.036,378.729,358.163,407.519z"/>
<path fill-rule="evenodd" clip-rule="evenodd" fill="#FFFFFF" stroke="#000000" stroke-width="1.25" stroke-linecap="square" stroke-miterlimit="10" d="  M420.413,357.269c28.421,0.68,61.747,36.291,21.75,49.5c8.086,3.842,10.523,7.191,20.25,7.5c-17.774,4.99-59.007-0.649-73.125-12.75  C362.822,378.834,397.892,357.808,420.413,357.269z"/>
<path fill-rule="evenodd" clip-rule="evenodd" fill="#D01424" stroke="#000000" stroke-width="1.25" stroke-linecap="square" stroke-miterlimit="10" d="  M440.663,366.269c-13.981,7.816-20.355,12.68-33.75,3.75c-15.354-10.236-3.443,8.62,6.75,12.75  c-20.717,16.446-5.486,25.482,5.25,3.75c5.183,5.707,12.112,10.11,16.5,16.5C424.233,386.937,421.31,377.579,440.663,366.269z"/>
</svg>