<svg xmlns="http://www.w3.org/2000/svg" xmlns:xlink="http://www.w3.org/1999/xlink" version="1.1" id="Layer_1" x="0px" y="0px" enable-background="new 0 0 822.05 841.89" xml:space="preserve" viewBox="203.26 250.52 414.98 338.05">
<path fill-rule="evenodd" clip-rule="evenodd" fill="#B4D670" stroke="#010101" stroke-width="2" stroke-linecap="square" stroke-miterlimit="10" d="  M614.543,349.64c-1.613-20.083-14.829-60.453-37.417-60.972c-30.771-0.708-100.785-15.894-125.333,1.722  c-10.416,7.475-17.868,29.965-23.25,41.625c-5.157,11.174,18.004,15.839,26.25,18.375c34.417,10.586,72.511,7.46,108,6.75  c0.193,23.421,0.387,46.841,0.581,70.262c0.2,24.325-4.162,22.701-28.692,23.683c-39.888,1.596-74.633-8.68-111.389-22.694  c-20.39,47.96,112.478,44.61,135,41.25C633.87,458.363,615.642,416.125,614.543,349.64z"/>
<path fill-rule="evenodd" clip-rule="evenodd" fill="#FFFFFF" stroke="#010101" stroke-width="2" stroke-linecap="square" stroke-miterlimit="10" d="  M590.543,263.39c-30.755-11.382-74.722-6.524-107.027-5.056c-33.741,1.534-59.709,20.922-18.973,35.806  c31.05,11.344,82.916,7.635,114.375,0.375C596.612,290.432,616.771,276.17,590.543,263.39z"/>
<path fill-rule="evenodd" clip-rule="evenodd" fill="#FFFFFF" stroke="#010101" stroke-width="2" stroke-linecap="square" stroke-miterlimit="10" d="  M601.043,268.64c-14.215,16.12-159.514,26.184-159,0C442.622,239.153,587.084,253.592,601.043,268.64z"/>
<path fill-rule="evenodd" clip-rule="evenodd" fill="#FFFFFF" stroke="#010101" stroke-width="2" stroke-linecap="square" stroke-miterlimit="10" d="  M562.793,450.89c-0.5-32.25-1-64.5-1.5-96.75c-44.804,1.634-94.931,3.76-135.75-17.25c-7.641,31.453-10.211,85.481,16.5,103.5  C474.534,462.308,526.775,456.392,562.793,450.89z"/>
<path fill-rule="evenodd" clip-rule="evenodd" fill="#FFFFFF" d="M482.543,405.89c-2.066-4.573-9.379-6.826,2.25-6  C483.02,401.057,481.514,403.612,482.543,405.89z"/>
<path fill-rule="evenodd" clip-rule="evenodd" fill="#A4C096" d="M580.793,333.14c-13.797-3.235-19.959-10.515-9.75-21.75  C584.84,314.625,591.002,321.905,580.793,333.14z"/>
<path fill-rule="evenodd" clip-rule="evenodd" fill="#A4C096" d="M511.793,324.89c-5.211,2.491-12.987,2.078-18.75,3  c-6.094-14.231,1.746-19.931,16.5-18C510.246,314.58,512.289,320.213,511.793,324.89z"/>
<path fill-rule="evenodd" clip-rule="evenodd" fill="#A4C096" d="M475.043,339.89c-3.372-4.937-4.158-12.995-6-18.75  c13.351-8.288,19.959-0.706,20.25,14.25C484.827,336.8,479.683,339.627,475.043,339.89z"/>
<path fill-rule="evenodd" clip-rule="evenodd" fill="#A4C096" d="M458.543,337.64c-14.886-1.832-20.735-9.461-11.25-21.75  C461.504,318.426,468.128,325.557,458.543,337.64z"/>
<path fill-rule="evenodd" clip-rule="evenodd" fill="#A4C096" d="M548.543,336.14c-4.419-3.693-7.271-10.908-10.5-15.75  c2.751-2.983,8.898-6.975,12.75-8.25c3.72,3.318,9.133,11.712,10.5,16.5C557.043,331.14,552.793,333.64,548.543,336.14z"/>
<path fill-rule="evenodd" clip-rule="evenodd" fill="#A4C096" d="M529.043,345.14c-5.858-1.284-11.886-6.201-17.25-9  C517.771,315.099,543.65,329.064,529.043,345.14z"/>
<path fill-rule="evenodd" clip-rule="evenodd" fill="#A4C096" d="M594.293,354.14c-5.135,3.086-12.929,3.62-18.75,5.25  c-7.565-13.641,0.456-19.461,15-19.5C591.793,344.64,593.043,349.39,594.293,354.14z"/>
<path fill-rule="evenodd" clip-rule="evenodd" fill="#A4C096" d="M597.293,379.64c-12.294,7.943-21.744,6.195-22.5-9  c4.288-2.577,13.755-5.318,18.75-5.25C594.793,370.14,596.043,374.89,597.293,379.64z"/>
<path fill-rule="evenodd" clip-rule="evenodd" fill="#A4C096" d="M599.543,407.39c-5.735-0.833-11.888-5.168-17.25-7.5  c2.527-15.182,12.029-15.019,23.25-6C603.543,398.39,601.543,402.89,599.543,407.39z"/>
<path fill-rule="evenodd" clip-rule="evenodd" fill="#A4C096" d="M595.793,428.39c-5.211,2.49-12.987,2.078-18.75,3  c-1.586-3.723-2.677-10.976-2.25-15C587.863,411.011,597.223,413.357,595.793,428.39z"/>
<path fill-rule="evenodd" clip-rule="evenodd" fill="#A4C096" d="M598.043,444.89c-17.348,20.028-33.295-3.627-8.25-12.75  C592.378,436.134,596.539,440.416,598.043,444.89z"/>
<path fill-rule="evenodd" clip-rule="evenodd" fill="#007647" stroke="#000000" stroke-width="2" stroke-linecap="square" stroke-miterlimit="10" d="  M521.543,393.89c1.385,33.318-72.986,51.599-80.25,17.25C433.998,376.644,510.161,362.146,521.543,393.89z"/>
<path fill-rule="evenodd" clip-rule="evenodd" fill="#A4C096" stroke="#000000" stroke-width="2" stroke-linecap="square" stroke-miterlimit="10" d="  M515.543,395.39c-3.124,23.586-61.521,42.794-67.5,14.25C442.162,381.565,503.659,373.937,515.543,395.39z"/>
<path fill-rule="evenodd" clip-rule="evenodd" fill="#FFFBCE" d="M487.043,399.89c6.161-3.336,9.356-6.948,17.25-6  C499.139,401.055,494.302,398.904,487.043,399.89z"/>
<path fill-rule="evenodd" clip-rule="evenodd" fill="#FFFBCE" d="M460.793,408.89c6.113-3.566,9.39-7.438,17.25-6.75  C472.984,408.973,467.758,407.451,460.793,408.89z"/>
<path fill-rule="evenodd" clip-rule="evenodd" fill="#FFFBCE" d="M487.043,418.64c-3.015-6.511-6.136-10.906-3.75-18.75  C488.877,406.27,487.203,411.159,487.043,418.64z"/>
<path fill-rule="evenodd" clip-rule="evenodd" fill="#FFFBCE" d="M481.043,398.39c-0.925-3.867-4.077-5.048-2.25-9.75  C482.301,392.054,480.232,395.002,481.043,398.39z"/>
<path fill-rule="evenodd" clip-rule="evenodd" fill="#B4D670" stroke="#010101" stroke-width="2" stroke-linecap="square" stroke-miterlimit="10" d="  M398.541,349.64c-1.586-19.744-14.741-60.47-36.722-60.972c-30.893-0.706-101.396-15.98-126.028,1.722  c-10.417,7.486-17.865,29.958-23.25,41.625c-5.224,11.317,18.681,15.868,27,18.375c34.368,10.359,71.824,7.458,107.25,6.75  c0.167,20.268,0.335,40.535,0.502,60.803c0.242,29.259,3.956,28.398-23.752,32.947c-39.018,6.405-80.725-8.685-116.25-22.5  c-19.397,48.204,111.825,44.812,135,41.25C418.293,457.961,399.648,416.601,398.541,349.64z"/>
<path fill-rule="evenodd" clip-rule="evenodd" fill="#FFFFFF" stroke="#010101" stroke-width="2" stroke-linecap="square" stroke-miterlimit="10" d="  M374.541,263.39c-28.572-10.575-71.977-7.725-102-5.25c-19.779,1.63-73.636,21.401-30.375,34.125  c34.059,10.018,82.012,11.462,116.625,3.375C375.135,291.821,405.268,277.653,374.541,263.39z"/>
<path fill-rule="evenodd" clip-rule="evenodd" fill="#FFFFFF" stroke="#010101" stroke-width="2" stroke-linecap="square" stroke-miterlimit="10" d="  M385.041,268.64c-14.557,16.938-154.767,28.328-158.25,0C223.659,243.167,370.853,252.885,385.041,268.64z"/>
<path fill-rule="evenodd" clip-rule="evenodd" fill="#FFFFFF" stroke="#010101" stroke-width="2" stroke-linecap="square" stroke-miterlimit="10" d="  M346.791,450.89c-0.5-32.25-1-64.5-1.5-96.75c-44.804,1.634-94.931,3.76-135.75-17.25c-7.54,31.038-10.839,86.96,17.25,103.5  C261.609,460.893,308.903,456.678,346.791,450.89z"/>
<path fill-rule="evenodd" clip-rule="evenodd" fill="#FFFFFF" d="M266.541,405.89c-2.066-4.573-9.379-6.826,2.25-6  C267.018,401.057,265.511,403.612,266.541,405.89z"/>
<path fill-rule="evenodd" clip-rule="evenodd" fill="#A4C096" d="M364.791,333.14c-25.698-6.025-12.044-31.033,7.5-12.75  C369.791,324.64,367.291,328.89,364.791,333.14z"/>
<path fill-rule="evenodd" clip-rule="evenodd" fill="#A4C096" d="M295.791,324.89c-5.211,2.491-12.987,2.078-18.75,3  c-6.094-14.231,1.747-19.931,16.5-18C294.244,314.58,296.287,320.213,295.791,324.89z"/>
<path fill-rule="evenodd" clip-rule="evenodd" fill="#A4C096" d="M259.041,339.89c-3.373-4.937-4.158-12.995-6-18.75  c13.351-8.288,19.958-0.706,20.25,14.25C268.825,336.8,263.681,339.627,259.041,339.89z"/>
<path fill-rule="evenodd" clip-rule="evenodd" fill="#A4C096" d="M242.541,337.64c-14.886-1.832-20.736-9.461-11.25-21.75  C245.501,318.426,252.125,325.557,242.541,337.64z"/>
<path fill-rule="evenodd" clip-rule="evenodd" fill="#A4C096" d="M332.541,336.14c-4.419-3.693-7.272-10.908-10.5-15.75  c2.751-2.983,8.898-6.975,12.75-8.25c3.72,3.318,9.132,11.712,10.5,16.5C341.041,331.14,336.791,333.64,332.541,336.14z"/>
<path fill-rule="evenodd" clip-rule="evenodd" fill="#A4C096" d="M313.041,345.14c-25.698-6.025-12.044-31.033,7.5-12.75  C318.041,336.64,315.541,340.89,313.041,345.14z"/>
<path fill-rule="evenodd" clip-rule="evenodd" fill="#A4C096" d="M378.291,354.14c-5.135,3.086-12.929,3.62-18.75,5.25  c-7.565-13.641,0.456-19.461,15-19.5C375.791,344.64,377.041,349.39,378.291,354.14z"/>
<path fill-rule="evenodd" clip-rule="evenodd" fill="#A4C096" d="M381.291,379.64c-12.293,7.943-21.745,6.195-22.5-9  c4.289-2.577,13.755-5.318,18.75-5.25C378.791,370.14,380.041,374.89,381.291,379.64z"/>
<path fill-rule="evenodd" clip-rule="evenodd" fill="#A4C096" d="M383.541,407.39c-5.735-0.833-11.888-5.168-17.25-7.5  c2.528-15.182,12.03-15.019,23.25-6C387.541,398.39,385.541,402.89,383.541,407.39z"/>
<path fill-rule="evenodd" clip-rule="evenodd" fill="#A4C096" d="M379.791,428.39c-5.211,2.49-12.987,2.078-18.75,3  c-1.575-3.744-2.678-10.962-2.25-15c4.662-1.895,14.548-3.108,19.5-2.25C378.791,418.89,379.291,423.64,379.791,428.39z"/>
<path fill-rule="evenodd" clip-rule="evenodd" fill="#A4C096" d="M382.791,444.89c-17.928,19.984-34.299-3.535-9-12.75  C376.603,436.124,381.092,440.362,382.791,444.89z"/>
<path fill-rule="evenodd" clip-rule="evenodd" fill="#007647" stroke="#000000" stroke-width="2" stroke-linecap="square" stroke-miterlimit="10" d="  M305.541,393.89c2.137,33.514-73.084,51.426-80.25,17.25C218.093,376.809,294.197,361.973,305.541,393.89z"/>
<path fill-rule="evenodd" clip-rule="evenodd" fill="#A4C096" stroke="#000000" stroke-width="2" stroke-linecap="square" stroke-miterlimit="10" d="  M299.541,395.39c-3.121,23.562-61.757,42.798-67.5,14.25C226.358,381.39,287.749,374.103,299.541,395.39z"/>
<path fill-rule="evenodd" clip-rule="evenodd" fill="#FFFBCE" d="M271.041,399.89c6.427-3.41,9.78-7.104,18-6  C283.453,400.55,278.438,399.329,271.041,399.89z"/>
<path fill-rule="evenodd" clip-rule="evenodd" fill="#FFFBCE" d="M244.791,408.89c6.131-4.042,10.001-7.603,18-6.75  C257.346,408.438,251.938,408.01,244.791,408.89z"/>
<path fill-rule="evenodd" clip-rule="evenodd" fill="#FFFBCE" d="M271.041,418.64c-2.936-6.526-5.884-11.047-3.75-18.75  C272.875,406.27,271.201,411.159,271.041,418.64z"/>
<path fill-rule="evenodd" clip-rule="evenodd" fill="#FFFBCE" d="M265.041,398.39c-0.663-3.557-2.665-5.842-2.25-9.75  C266.289,392.044,264.386,394.873,265.041,398.39z"/>
<path fill-rule="evenodd" clip-rule="evenodd" fill="#B4D670" stroke="#010101" stroke-width="2" stroke-linecap="square" stroke-miterlimit="10" d="  M490.043,465.89c-2.816-20.188-13.972-60.433-37.417-60.972c-24.636-0.566-104.68-16.24-123.085-0.903  c-86.347,71.956,67.207,70.207,108.002,69.375c0.335,20.101,0.67,40.2,1.005,60.301c0.485,29.139,3.808,28.752-24.257,33.449  c-39.012,6.53-79.992-8.961-115.5-22.5c-20.796,47.886,112.697,44.557,135.002,41.25  C509.267,574.702,490.587,531.137,490.043,465.89z"/>
<path fill-rule="evenodd" clip-rule="evenodd" fill="#FFFFFF" stroke="#010101" stroke-width="2" stroke-linecap="square" stroke-miterlimit="10" d="  M465.293,379.64c-29.966-11.722-74.707-6.437-106.474-5.056c-33.979,1.478-59.777,21.056-18.778,35.806  c33.307,11.982,80.538,5.206,114.377,0C473.02,407.528,491.156,390.961,465.293,379.64z"/>
<path fill-rule="evenodd" clip-rule="evenodd" fill="#FFFFFF" stroke="#010101" stroke-width="2" stroke-linecap="square" stroke-miterlimit="10" d="  M476.543,384.89c-14.733,14.054-161.038,25.741-159.002,0C319.985,353.981,461.837,369.881,476.543,384.89z"/>
<path fill-rule="evenodd" clip-rule="evenodd" fill="#FFFFFF" stroke="#010101" stroke-width="2" stroke-linecap="square" stroke-miterlimit="10" d="  M437.543,567.14c-0.25-32.25-0.5-64.5-0.75-96.75c-43.827,1.599-96.699,4.627-136.502-17.25  c-5.154,33.132-10.356,83.868,17.25,102.75C350.557,578.472,400.74,570.691,437.543,567.14z"/>
<path fill-rule="evenodd" clip-rule="evenodd" fill="#FFFFFF" d="M358.041,522.14c-2.151-4.637-9.639-7.142,2.25-6  C358.147,517.199,356.899,519.679,358.041,522.14z"/>
<path fill-rule="evenodd" clip-rule="evenodd" fill="#A4C096" d="M456.293,449.39c-5.81-1.146-11.944-6.232-17.25-9  c1.031-3.992,4.659-10.51,7.5-13.5C460.253,430.551,466.483,438.16,456.293,449.39z"/>
<path fill-rule="evenodd" clip-rule="evenodd" fill="#A4C096" d="M386.541,441.14c-5.211,2.49-12.987,2.078-18.75,3  c-6.094-14.231,1.747-19.931,16.5-18C384.994,430.83,387.037,436.462,386.541,441.14z"/>
<path fill-rule="evenodd" clip-rule="evenodd" fill="#A4C096" d="M350.541,455.39c-3.301-4.733-4.156-12.468-6-18  c3.385-2.119,10.262-4.287,14.25-4.5C366.16,444.765,365.443,454.329,350.541,455.39z"/>
<path fill-rule="evenodd" clip-rule="evenodd" fill="#A4C096" d="M334.041,453.89c-27.133-4.127-15.192-31.214,6-14.25  C338.165,444.096,336.953,450.08,334.041,453.89z"/>
<path fill-rule="evenodd" clip-rule="evenodd" fill="#A4C096" d="M424.043,452.39c-4.42-3.692-7.273-10.907-10.502-15.75  c2.726-2.984,8.914-6.98,12.752-8.25C436.623,437.958,438.134,447.299,424.043,452.39z"/>
<path fill-rule="evenodd" clip-rule="evenodd" fill="#A4C096" d="M404.541,461.39c-5.81-1.146-11.945-6.232-17.25-9  c1.032-3.992,4.659-10.51,7.5-13.5C408.501,442.551,414.731,450.16,404.541,461.39z"/>
<path fill-rule="evenodd" clip-rule="evenodd" fill="#A4C096" d="M469.793,470.39c-5.135,3.086-12.929,3.62-18.75,5.25  C440.377,456.648,468.681,448.007,469.793,470.39z"/>
<path fill-rule="evenodd" clip-rule="evenodd" fill="#A4C096" d="M472.793,495.89c-5.025,3.143-12.982,3.635-18.75,5.25  c-1.978-3.622-3.781-10.873-3.75-15C462.957,479.13,472.689,480.395,472.793,495.89z"/>
<path fill-rule="evenodd" clip-rule="evenodd" fill="#A4C096" d="M475.043,523.64c-5.735-0.833-11.888-5.169-17.25-7.5  c2.527-15.182,12.029-15.02,23.25-6C479.043,514.64,477.043,519.14,475.043,523.64z"/>
<path fill-rule="evenodd" clip-rule="evenodd" fill="#A4C096" d="M471.293,544.64c-5.211,2.49-12.987,2.078-18.75,3  c-6.094-14.231,1.746-19.931,16.5-18C469.746,534.33,471.789,539.962,471.293,544.64z"/>
<path fill-rule="evenodd" clip-rule="evenodd" fill="#A4C096" d="M473.543,560.39c-3.642,4.637-10.902,7.787-15.75,11.25  C441.018,556.321,466.065,539.985,473.543,560.39z"/>
<path fill-rule="evenodd" clip-rule="evenodd" fill="#007647" stroke="#000000" stroke-width="2" stroke-linecap="square" stroke-miterlimit="10" d="  M397.041,509.39c0.626,33.712-72.262,52.646-80.25,18C308.681,492.213,382.873,479.649,397.041,509.39z"/>
<path fill-rule="evenodd" clip-rule="evenodd" fill="#A4C096" stroke="#000000" stroke-width="2" stroke-linecap="square" stroke-miterlimit="10" d="  M390.291,511.64c-1.613,24.921-60.412,41.542-66.75,14.25C317.309,499.053,379.233,488.445,390.291,511.64z"/>
<path fill-rule="evenodd" clip-rule="evenodd" fill="#FFFBCE" d="M362.541,516.14c6.291-3.647,9.349-7.583,17.25-6  C374.355,516.589,369.541,515.422,362.541,516.14z"/>
<path fill-rule="evenodd" clip-rule="evenodd" fill="#FFFBCE" d="M336.291,525.14c5.902-3.783,9.065-7.881,17.25-6.75  C348.263,524.657,343.491,524.134,336.291,525.14z"/>
<path fill-rule="evenodd" clip-rule="evenodd" fill="#FFFBCE" d="M361.791,534.14c-2.609-6.801-5.988-10.483-3-18  C363.85,522.642,362.089,527.283,361.791,534.14z"/>
<path fill-rule="evenodd" clip-rule="evenodd" fill="#FFFBCE" d="M355.791,514.64c-0.682-3.952-3.153-5.577-1.5-9.75  C357.092,508.68,355.206,511.247,355.791,514.64z"/>
</svg>