<svg xmlns="http://www.w3.org/2000/svg" xmlns:xlink="http://www.w3.org/1999/xlink" version="1.1" id="Layer_1" x="0px" y="0px" enable-background="new 0 0 822.05 841.89" xml:space="preserve" viewBox="216.04 250.59 387.83 345.18">
<path fill-rule="evenodd" clip-rule="evenodd" fill="#6D6F71" stroke="#000000" stroke-width="2" stroke-linecap="square" stroke-miterlimit="10" d="  M234.5,561.14c10.033,23.926,37.431,31.553,61.125,33.375c35.898,2.762,47.611-17.159,71.077-41.208  c52.13-53.426,104.259-106.852,156.389-160.277c17.995-18.442,88.381-67.404,78.909-98.14  c-68.351,70.812-136.702,141.624-205.053,212.437c-14.309,14.824-49.062,66.875-70.947,68.438  C295.915,577.915,261.091,577.312,234.5,561.14z"/>
<path fill-rule="evenodd" clip-rule="evenodd" fill="#DEDFE0" stroke="#000000" stroke-width="2" stroke-linecap="square" stroke-miterlimit="10" d="  M218.75,501.89c86.282-78.612,172.564-157.225,258.847-235.838c24.905-22.692,38.654-14.906,70.042-2.218  c29.41,11.89,69.478,18.232,41.152,47.296c-84.279,86.478-168.559,172.956-252.838,259.434c-17.149,17.597-75.512,4.82-93.953-7.174  C220.848,549.632,213.292,526.5,218.75,501.89z"/>
<path fill-rule="evenodd" clip-rule="evenodd" fill="#6D6F71" stroke="#000000" stroke-width="2" stroke-linecap="square" stroke-miterlimit="10" d="  M482.75,366.89C471.956,387.374,416,383,416,356.765C416,329.93,478.039,343.887,482.75,366.89z"/>
<path fill-rule="evenodd" clip-rule="evenodd" fill="#BCBEC0" stroke="#000000" stroke-width="2" stroke-linecap="square" stroke-miterlimit="10" d="  M578,295.64C544.79,323.473,556.739,257.854,578,295.64L578,295.64z"/>
<path fill-rule="evenodd" clip-rule="evenodd" fill="#BCBEC0" stroke="#000000" stroke-width="2" stroke-linecap="square" stroke-miterlimit="10" d="  M492.5,292.64C466.293,313.075,473.033,264.745,492.5,292.64L492.5,292.64z"/>
<path fill-rule="evenodd" clip-rule="evenodd" fill="#BCBEC0" stroke="#000000" stroke-width="2" stroke-linecap="square" stroke-miterlimit="10" d="  M523.25,304.64C494.876,323.812,505.66,276.019,523.25,304.64L523.25,304.64z"/>
<path fill-rule="evenodd" clip-rule="evenodd" fill="#BCBEC0" stroke="#000000" stroke-width="2" stroke-linecap="square" stroke-miterlimit="10" d="  M551.75,316.64C523.052,336.174,533.835,287.837,551.75,316.64L551.75,316.64z"/>
<path fill-rule="evenodd" clip-rule="evenodd" fill="#BCBEC0" stroke="#000000" stroke-width="2" stroke-linecap="square" stroke-miterlimit="10" d="  M536.75,332.39C507.558,351.858,521.161,303.309,536.75,332.39L536.75,332.39z"/>
<path fill-rule="evenodd" clip-rule="evenodd" fill="#BCBEC0" stroke="#000000" stroke-width="2" stroke-linecap="square" stroke-miterlimit="10" d="  M507.5,321.14C481.122,342.273,488.126,292.444,507.5,321.14L507.5,321.14z"/>
<path fill-rule="evenodd" clip-rule="evenodd" fill="#BCBEC0" stroke="#000000" stroke-width="2" stroke-linecap="square" stroke-miterlimit="10" d="  M478.25,310.64C449.182,330.235,462.541,281.959,478.25,310.64L478.25,310.64z"/>
<path fill-rule="evenodd" clip-rule="evenodd" fill="#BCBEC0" stroke="#000000" stroke-width="2" stroke-linecap="square" stroke-miterlimit="10" d="  M458.75,326.39C430.13,346.266,442.966,296.943,458.75,326.39L458.75,326.39z"/>
<path fill-rule="evenodd" clip-rule="evenodd" fill="#BCBEC0" stroke="#000000" stroke-width="2" stroke-linecap="square" stroke-miterlimit="10" d="  M491.75,339.89C465.161,361.193,472.711,310.926,491.75,339.89L491.75,339.89z"/>
<path fill-rule="evenodd" clip-rule="evenodd" fill="#BCBEC0" stroke="#000000" stroke-width="2" stroke-linecap="square" stroke-miterlimit="10" d="  M522.5,351.89C495.956,372.588,503.514,323.517,522.5,351.89L522.5,351.89z"/>
<path fill-rule="evenodd" clip-rule="evenodd" fill="#BCBEC0" stroke="#000000" stroke-width="2" stroke-linecap="square" stroke-miterlimit="10" d="  M424.25,402.89C397.634,422.898,405.409,374.305,424.25,402.89L424.25,402.89z"/>
<path fill-rule="evenodd" clip-rule="evenodd" fill="#BCBEC0" stroke="#000000" stroke-width="2" stroke-linecap="square" stroke-miterlimit="10" d="  M394.25,386.39C367.591,407.753,376.604,357.191,394.25,386.39L394.25,386.39z"/>
<path fill-rule="evenodd" clip-rule="evenodd" fill="#BCBEC0" stroke="#000000" stroke-width="2" stroke-linecap="square" stroke-miterlimit="10" d="  M375.5,403.64C350.336,425.423,356.091,374.627,375.5,403.64L375.5,403.64z"/>
<path fill-rule="evenodd" clip-rule="evenodd" fill="#BCBEC0" stroke="#000000" stroke-width="2" stroke-linecap="square" stroke-miterlimit="10" d="  M408.5,418.64C382.633,438.916,387.468,390.773,408.5,418.64L408.5,418.64z"/>
<path fill-rule="evenodd" clip-rule="evenodd" fill="#BCBEC0" stroke="#000000" stroke-width="2" stroke-linecap="square" stroke-miterlimit="10" d="  M356.75,419.39C331.399,440.539,337.547,390.686,356.75,419.39L356.75,419.39z"/>
<path fill-rule="evenodd" clip-rule="evenodd" fill="#BCBEC0" stroke="#000000" stroke-width="2" stroke-linecap="square" stroke-miterlimit="10" d="  M389,433.64C362.633,453.438,370.238,405.603,389,433.64L389,433.64z"/>
<path fill-rule="evenodd" clip-rule="evenodd" fill="#BCBEC0" stroke="#000000" stroke-width="2" stroke-linecap="square" stroke-miterlimit="10" d="  M423.5,447.89C396.956,468.587,404.514,419.516,423.5,447.89L423.5,447.89z"/>
<path fill-rule="evenodd" clip-rule="evenodd" fill="#BCBEC0" stroke="#000000" stroke-width="2" stroke-linecap="square" stroke-miterlimit="10" d="  M404,465.89C375.42,485.156,387.456,437.457,404,465.89L404,465.89z"/>
<path fill-rule="evenodd" clip-rule="evenodd" fill="#BCBEC0" stroke="#000000" stroke-width="2" stroke-linecap="square" stroke-miterlimit="10" d="  M369.5,455.39C342.484,475.618,352.198,426.761,369.5,455.39L369.5,455.39z"/>
<path fill-rule="evenodd" clip-rule="evenodd" fill="#BCBEC0" stroke="#000000" stroke-width="2" stroke-linecap="square" stroke-miterlimit="10" d="  M335,441.14C306.854,460.894,318.551,411.681,335,441.14L335,441.14z"/>
<path fill-rule="evenodd" clip-rule="evenodd" fill="#BCBEC0" stroke="#000000" stroke-width="2" stroke-linecap="square" stroke-miterlimit="10" d="  M455.75,404.39c11.739,13.263-10.789,43.302-24,33.75C416.788,427.322,440.889,399.591,455.75,404.39z"/>
</svg>