<svg xmlns="http://www.w3.org/2000/svg" xmlns:xlink="http://www.w3.org/1999/xlink" version="1.1" id="Layer_1" x="0px" y="0px" enable-background="new 0 0 822.05 841.89" xml:space="preserve" viewBox="208.9 251.09 409.55 338.7">
<path fill-rule="evenodd" clip-rule="evenodd" fill="#DFF3FD" stroke="#000000" stroke-width="2" stroke-linecap="square" stroke-miterlimit="10" d="  M380.901,252.091c-6.519,106.612-73.922,213.087-171,257.248c76.699,26.207,153.398,52.414,230.097,78.622  c31.953,10.918,102.114-89.435,118.655-114.622c8.729-13.293,82.401-169.388,51.092-175.629  C533.464,282.504,457.183,267.297,380.901,252.091z"/>
<path fill-rule="evenodd" clip-rule="evenodd" fill="#BCBEC0" stroke="#000000" stroke-width="2" stroke-linecap="square" stroke-miterlimit="10" d="  M398.901,303.091c42.501,8.5,85.001,17,127.502,25.5c-1.706,5.118-11.904,40.949-14.697,40.164  c-17.838-5.017-35.677-10.034-53.516-15.051c-20.232-5.69-40.465-11.38-60.697-17.071  C387.687,333.875,397.304,311.677,398.901,303.091z"/>
<path fill-rule="evenodd" clip-rule="evenodd" fill="#BCBEC0" stroke="#000000" stroke-width="2" stroke-linecap="square" stroke-miterlimit="10" d="  M377.901,358.591c41.251,13.75,82.501,27.5,123.752,41.25c-2.374,4.842-17.191,38.91-19.895,37.762  c-17.059-7.246-34.116-14.493-51.175-21.74c-19.347-8.219-38.694-16.438-58.042-24.657  C363.202,387.239,375.273,366.881,377.901,358.591z"/>
<path fill-rule="evenodd" clip-rule="evenodd" fill="#BCBEC0" stroke="#000000" stroke-width="2" stroke-linecap="square" stroke-miterlimit="10" d="  M356.901,414.841c38.5,14.999,77.001,29.999,115.502,44.998c-15.893,31.174-11.324,42.04-43.128,27.297  c-29.875-13.849-59.75-27.698-89.624-41.547C345.401,435.34,351.151,425.09,356.901,414.841z"/>
<path fill-rule="evenodd" clip-rule="evenodd" fill="#BCBEC0" stroke="#000000" stroke-width="2" stroke-linecap="square" stroke-miterlimit="10" d="  M322.401,462.089c-14,12.5-28,25-42,37.5c31.847,13.794,63.694,27.587,95.541,41.381c31.348,13.577,35.847-2.706,61.211-25.631  C398.903,497.589,360.652,479.839,322.401,462.089z"/>
<text transform="matrix(0.9537 0.3007 -0.3007 0.9537 533.9141 381.0894)" font-family="'ArialMT'" font-size="60">A</text>
<text transform="matrix(0.9304 0.3665 -0.3665 0.9304 507.6416 444.1089)" font-family="'ArialMT'" font-size="60">A</text>
<text transform="matrix(0.8634 0.5045 -0.5045 0.8634 470.8994 504.8169)" font-family="'ArialMT'" font-size="60">B</text>
<text transform="matrix(0.8049 0.5934 -0.5934 0.8049 423.6504 552.855)" font-family="'ArialMT'" font-size="60">C</text>
</svg>