<svg xmlns="http://www.w3.org/2000/svg" xmlns:xlink="http://www.w3.org/1999/xlink" version="1.1" id="Layer_1" x="0px" y="0px" enable-background="new 0 0 822.05 841.89" xml:space="preserve" viewBox="202.33 247.84 423.3 345.36">
<path fill-rule="evenodd" clip-rule="evenodd" fill="#DFF3FD" stroke="#000000" stroke-width="2" stroke-linecap="square" stroke-miterlimit="10" d="  M407.334,248.839c-9.165,98.732-64.956,194.714-156.75,236.248c69.668,23.62,139.336,47.24,209.004,70.86  c32.811,11.124,95.285-79.779,111.248-104.61c8.65-13.455,75.611-154.846,46.516-160.645  C547.346,276.742,477.34,262.791,407.334,248.839z"/>
<path fill-rule="evenodd" clip-rule="evenodd" fill="#DFF3FD" stroke="#000000" stroke-width="2" stroke-linecap="square" stroke-miterlimit="10" d="  M396.834,263.089c-10.387,98.885-65.069,193.245-156.75,235.498c69.864,23.926,139.728,47.852,209.592,71.777  c29.993,10.271,89.588-75.026,105.387-98.309c9.48-13.972,83.318-161.521,51.042-167.86  C536.348,290.494,466.591,276.792,396.834,263.089z"/>
<path fill-rule="evenodd" clip-rule="evenodd" fill="#DFF3FD" stroke="#000000" stroke-width="2" stroke-linecap="square" stroke-miterlimit="10" d="  M375.834,273.589c-19.845,99.849-59.406,190.635-156.75,235.498c69.864,23.926,139.728,47.852,209.592,71.777  c30.019,10.28,89.73-74.883,105.27-98.191c9.266-13.897,82.702-160.922,51.159-167.23  C515.348,301.492,445.591,287.541,375.834,273.589z"/>
<path fill-rule="evenodd" clip-rule="evenodd" fill="#DFF3FD" stroke="#000000" stroke-width="2" stroke-linecap="square" stroke-miterlimit="10" d="  M360.084,284.089c-18.646,93.82-58.35,199.426-156.75,235.498c69.864,23.926,139.728,47.852,209.592,71.777  c29.502,10.104,90.205-74.126,105.27-97.559c8.919-13.873,83.298-161.436,51.159-167.863  C499.598,311.992,429.841,298.041,360.084,284.089z"/>
<path fill-rule="evenodd" clip-rule="evenodd" fill="#BCBEC0" stroke="#000000" stroke-width="2" stroke-linecap="square" stroke-miterlimit="10" d="  M376.584,330.589c39.001,8,78.001,16,117.002,24c-15.057,43.398-13.997,36.394-57.594,23.938  c-18.411-5.26-36.822-10.521-55.233-15.78C363.864,357.919,373.316,346.52,376.584,330.589z"/>
<path fill-rule="evenodd" clip-rule="evenodd" fill="#BCBEC0" stroke="#000000" stroke-width="2" stroke-linecap="square" stroke-miterlimit="10" d="  M357.084,381.589c37.75,12.5,75.501,25,113.252,37.5c-20.24,41.358-18.109,34.886-59.958,17.251  c-19.26-8.117-38.521-16.233-57.782-24.35C343.242,408.049,354.48,389.833,357.084,381.589z"/>
<path fill-rule="evenodd" clip-rule="evenodd" fill="#BCBEC0" stroke="#000000" stroke-width="2" stroke-linecap="square" stroke-miterlimit="10" d="  M337.584,433.337c35.5,13.75,71.001,27.5,106.502,41.25c-15.762,30.211-11.244,37.562-42.18,23.541  c-26.69-12.097-53.381-24.194-80.072-36.291C327.084,452.337,332.334,442.837,337.584,433.337z"/>
<path fill-rule="evenodd" clip-rule="evenodd" fill="#BCBEC0" stroke="#000000" stroke-width="2" stroke-linecap="square" stroke-miterlimit="10" d="  M306.084,476.837c-12.75,11.5-25.5,23-38.25,34.5c27.65,11.905,55.301,23.811,82.951,35.715  c32.72,14.088,34.032,2.737,61.049-21.465C376.584,509.337,341.334,493.087,306.084,476.837z"/>
<text transform="matrix(0.9537 0.3007 -0.3007 0.9537 504.0596 400.333)" font-family="'ArialMT'" font-size="57">A</text>
<text transform="matrix(0.9304 0.3665 -0.3665 0.9304 476.3516 458.0952)" font-family="'ArialMT'" font-size="57">A</text>
<text transform="matrix(0.8634 0.5045 -0.5045 0.8634 443.3369 515.1021)" font-family="'ArialMT'" font-size="57">B</text>
<text transform="matrix(0.8049 0.5934 -0.5934 0.8049 397.6064 557.8276)" font-family="'ArialMT'" font-size="57">C</text>
</svg>