<svg xmlns="http://www.w3.org/2000/svg" xmlns:xlink="http://www.w3.org/1999/xlink" version="1.1" id="Layer_1" x="0px" y="0px" enable-background="new 0 0 822.05 841.89" xml:space="preserve" viewBox="238.15 247.66 346.32 351.38">
<path fill-rule="evenodd" clip-rule="evenodd" fill="#00AEEF" stroke="#000000" stroke-width="2" stroke-linecap="square" stroke-miterlimit="10" d="  M354.646,359.664c0,10.75,0,21.5,0,32.25c-38.5-24.5-77-49-115.5-73.5c38.5-23.25,77-46.5,115.5-69.75  c0,19.729-3.448,31.475,8.25,40.5c6.749,5.207,32.627,4.941,41.973,6.972c36.507,7.936,71.143,16.964,105.224,32.694  c70.915,32.73,73.306,73.924,73.306,146.332C578.967,387.909,417.302,368.085,354.646,359.664z"/>
<path fill-rule="evenodd" clip-rule="evenodd" fill="#0071BC" stroke="#000000" stroke-width="2" stroke-linecap="square" stroke-miterlimit="10" d="  M239.146,526.162c0,21.056,0,42.112,0,63.168c0,13.774,37.639,7.269,49.5,6.582c37.569-2.176,76.695-5.561,113.526-13.452  c54.021-11.575,176.752-34.686,181.226-107.298c0.846-13.729-5.785-32.18-18.75-31.5c-4.758,0.249-23.783,21.186-29.25,24.375  c-16.825,9.814-33.959,18.133-52.167,25.069C408.51,521.572,317.489,518.736,239.146,526.162z"/>
</svg>