<svg xmlns="http://www.w3.org/2000/svg" xmlns:xlink="http://www.w3.org/1999/xlink" version="1.1" id="Layer_1" x="0px" y="0px" enable-background="new 0 0 822.05 841.89" xml:space="preserve" viewBox="307.22 333.87 208.66 175.53">
<path fill-rule="evenodd" clip-rule="evenodd" fill="#878787" d="M315.129,371.773c-5.009,8.896-7.861,18.595-7.5,28.5  C309.84,390.949,313.505,379.721,315.129,371.773z"/>
<path fill="none" stroke="#000000" stroke-width="0.75" stroke-linecap="square" stroke-miterlimit="10" d="M315.129,371.773  c-5.009,8.896-7.861,18.595-7.5,28.5C309.84,390.949,313.505,379.721,315.129,371.773z"/>
<path fill-rule="evenodd" clip-rule="evenodd" fill="#878787" d="M353.379,383.023c-10.197,11.963-12.031,24.9,0.75,33.75  C326.052,423.263,326.469,378.242,353.379,383.023z"/>
<path fill="none" stroke="#000000" stroke-width="0.75" stroke-linecap="square" stroke-miterlimit="10" d="M353.379,383.023  c-10.197,11.963-12.031,24.9,0.75,33.75C326.052,423.263,326.469,378.242,353.379,383.023z"/>
<path fill-rule="evenodd" clip-rule="evenodd" fill="#878787" d="M316.629,416.023c-6.874-22.833-7.896-70.765,24.375-75.375  c11.808-1.687,30.253-5.807,40.875-6.375c16.619-0.888,40.978,21.937,51.002,5.25c-2.634,8.498-3.471,12.341-8.25,18.75c2-2,4-4,6-6  c-0.25,3.25-0.5,6.5-0.75,9.75c5.408-4.28,12.675-7.101,17.25-12c-15.125,21.255-14.649,49.393-41.252,23.25  c-6.9,12.634-23.962,31.867-13.5,46.5c-14.017,4.206-12.428-3.104-19.5-9.75c-11.04-10.375,1.764-12.424-15.75-18.75  c-18.042-6.517-43.605,4.746-24.75,24.75C327.418,417.182,321.265,417.263,316.629,416.023z"/>
<path fill="none" stroke="#000000" stroke-width="0.75" stroke-linecap="square" stroke-miterlimit="10" d="M316.629,416.023  c-6.874-22.833-7.896-70.765,24.375-75.375c11.808-1.687,30.253-5.807,40.875-6.375c16.619-0.888,40.978,21.937,51.002,5.25  c-2.634,8.498-3.471,12.341-8.25,18.75c2-2,4-4,6-6c-0.25,3.25-0.5,6.5-0.75,9.75c5.408-4.28,12.675-7.101,17.25-12  c-15.125,21.255-14.649,49.393-41.252,23.25c-6.9,12.634-23.962,31.867-13.5,46.5c-14.017,4.206-12.428-3.104-19.5-9.75  c-11.04-10.375,1.764-12.424-15.75-18.75c-18.042-6.517-43.605,4.746-24.75,24.75C327.418,417.182,321.265,417.263,316.629,416.023z  "/>
<path fill="none" stroke="#000000" stroke-width="0.75" stroke-linecap="square" stroke-miterlimit="10" d="M362.379,368.023  c-0.455,8.557,1.525,15.689,6,22.5"/>
<path fill="none" stroke="#000000" stroke-width="0.75" stroke-linecap="square" stroke-miterlimit="10" d="M327.129,362.023  c2.783,12.226,9.143,23.139,20.25,28.5"/>
<path fill="none" stroke="#000000" stroke-width="0.75" stroke-linecap="square" stroke-miterlimit="10" d="M394.629,363.523  c-0.777,6.174,1.371,10.885,6.75,12.75"/>
<path fill="none" stroke="#000000" stroke-width="0.75" stroke-linecap="square" stroke-miterlimit="10" d="M399.879,368.023  c-0.992,3.111,0.417,5.475,3.75,6.75"/>
<path fill="none" stroke="#000000" stroke-width="0.75" stroke-linecap="square" stroke-miterlimit="10" d="M429.881,361.273  c-3.647,5.593-2.198,9.334,4.5,10.5"/>
<path fill="none" stroke="#000000" stroke-width="0.75" stroke-linecap="square" stroke-miterlimit="10" d="M385.629,393.523  c-0.237-7.437-4.733-9.74-12-7.5"/>
<path fill="none" stroke="#000000" stroke-width="0.75" stroke-linecap="square" stroke-miterlimit="10" d="M385.629,418.273  c1.449-11.36,10.166-34.129,7.5-42"/>
<path fill-rule="evenodd" clip-rule="evenodd" fill="#878787" d="M407.379,354.523c-0.367-6.488-4.441-9.006,2.25-15  C415.795,346.646,410.74,348.159,407.379,354.523z"/>
<path fill="none" stroke="#000000" stroke-width="0.75" stroke-linecap="square" stroke-miterlimit="10" d="M407.379,354.523  c-0.367-6.488-4.441-9.006,2.25-15c3.593,3.417,1.483,5.798,3,9.75"/>
<path fill="none" stroke="#000000" stroke-width="0.75" stroke-linecap="square" stroke-miterlimit="10" d="M417.881,344.773  c4.477,0.8,7.171,3.229,6.75,7.5"/>
<path fill="none" stroke="#000000" stroke-width="0.75" stroke-linecap="square" stroke-miterlimit="10" d="M423.881,377.023  c3.006,0.605,4.436-2.701,6,1.5C426.371,380.569,426.281,377.506,423.881,377.023z"/>
<path fill="none" stroke="#000000" stroke-width="0.75" stroke-linecap="square" stroke-miterlimit="10" d="M416.381,381.523  c4.022-0.02,7.54,0.786,10.5,2.25"/>
<path fill-rule="evenodd" clip-rule="evenodd" stroke="#000000" stroke-width="0.75" stroke-linecap="square" stroke-miterlimit="10" d="  M414.881,367.273C412.418,366.524,413.058,366.719,414.881,367.273L414.881,367.273z"/>
<line fill="none" stroke="#000000" stroke-width="0.75" stroke-linecap="square" stroke-miterlimit="10" x1="373.629" y1="418.273" x2="373.629" y2="418.273"/>
<path fill-rule="evenodd" clip-rule="evenodd" fill="#878787" d="M345.129,446.775c-5.828,11.573-10.937,23.775-9.75,36.75  C338.8,471.672,343.871,457.109,345.129,446.775z"/>
<path fill="none" stroke="#000000" stroke-linecap="square" stroke-miterlimit="10" d="M345.129,446.775  c-5.828,11.573-10.937,23.775-9.75,36.75C338.8,471.672,343.871,457.109,345.129,446.775z"/>
<path fill-rule="evenodd" clip-rule="evenodd" fill="#878787" d="M394.629,461.025c-8.034,15.739-20.175,33.411,0.75,43.5  c-34.16,11.48-23.305-23.615-24.75-40.5C378.155,463.084,387.102,460.386,394.629,461.025z"/>
<path fill="none" stroke="#000000" stroke-linecap="square" stroke-miterlimit="10" d="M394.629,461.025  c-8.034,15.739-20.175,33.411,0.75,43.5c-34.16,11.48-23.305-23.615-24.75-40.5C378.155,463.084,387.102,460.386,394.629,461.025z"/>
<path fill-rule="evenodd" clip-rule="evenodd" fill="#878787" d="M347.379,503.775c-9.037-33.823-9.28-89.323,34.5-97.502  c9.557-1.785,15.88,5.524,24.75,3.75c8.091-1.618,17.817-9.653,24.752-10.5c20.706-2.528,53.755,28.775,65.25,6.75  c0.923,10.76-5.414,17.995-10.5,24.002c2.75-2.751,5.5-5.501,8.25-8.252c-0.25,4.001-0.5,8.001-0.75,12.002  c8.453-3.466,15.73-8.536,21.75-15.002c-12.906,23.454-26.104,68.263-52.5,30.002c-11.43,14.003-29.695,42.103-17.25,59.25  c-37.305,6.404-14.571-38.28-41.252-36.375c-9.563,0.683-29.622-7.531-37.5-1.875c-10.443,7.498-6.974,26.684,0.75,33.75  C360.928,505.537,353.525,505.341,347.379,503.775z"/>
<path fill="none" stroke="#000000" stroke-linecap="square" stroke-miterlimit="10" d="M347.379,503.775  c-9.037-33.823-9.28-89.323,34.5-97.502c9.557-1.785,15.88,5.524,24.75,3.75c8.091-1.618,17.817-9.653,24.752-10.5  c20.706-2.528,53.755,28.775,65.25,6.75c0.923,10.76-5.414,17.995-10.5,24.002c2.75-2.751,5.5-5.501,8.25-8.252  c-0.25,4.001-0.5,8.001-0.75,12.002c8.453-3.466,15.73-8.536,21.75-15.002c-12.906,23.454-26.104,68.263-52.5,30.002  c-11.43,14.003-29.695,42.103-17.25,59.25c-37.305,6.404-14.571-38.28-41.252-36.375c-9.563,0.683-29.622-7.531-37.5-1.875  c-10.443,7.498-6.974,26.684,0.75,33.75C360.928,505.537,353.525,505.341,347.379,503.775z"/>
<path fill="none" stroke="#000000" stroke-linecap="square" stroke-miterlimit="10" d="M405.879,442.275  c-0.969,10.615,1.95,20.579,7.5,29.25"/>
<path fill="none" stroke="#000000" stroke-linecap="square" stroke-miterlimit="10" d="M360.129,434.775  c3.375,15.021,11.52,30.101,26.25,36"/>
<path fill="none" stroke="#000000" stroke-linecap="square" stroke-miterlimit="10" d="M447.881,436.275  c-0.808,7.593,2.001,13.779,8.25,16.5"/>
<path fill="none" stroke="#000000" stroke-linecap="square" stroke-miterlimit="10" d="M453.881,442.275  c-0.676,3.956,1.354,6.903,5.25,8.25"/>
<path fill="none" stroke="#000000" stroke-linecap="square" stroke-miterlimit="10" d="M492.881,434.025  c-4.688,6.693-2.929,11.431,5.25,13.5"/>
<path fill="none" stroke="#000000" stroke-linecap="square" stroke-miterlimit="10" d="M436.631,475.275  c-0.463-9.571-6.301-12.547-15.75-9.75"/>
<path fill="none" stroke="#000000" stroke-linecap="square" stroke-miterlimit="10" d="M435.881,507.525  c3.441-8.086,1.29-26.45,2.25-32.25c1.669-10.082,15.726-8.169,7.5-21.75"/>
<path fill-rule="evenodd" clip-rule="evenodd" fill="#878787" d="M463.631,425.025c-2.4-8.261-4.718-13.21,3-19.502  C473.421,414.049,469.535,417.87,463.631,425.025z"/>
<path fill="none" stroke="#000000" stroke-linecap="square" stroke-miterlimit="10" d="M463.631,425.025  c-2.4-8.261-4.718-13.21,3-19.502c3.699,4.264,2.904,7.638,3.75,12.75"/>
<path fill="none" stroke="#000000" stroke-linecap="square" stroke-miterlimit="10" d="M477.881,413.023  c5.354,1.051,8.502,4.049,8.25,9"/>
<path fill="none" stroke="#000000" stroke-linecap="square" stroke-miterlimit="10" d="M484.631,454.275  c3.597,0.862,4.796-2.633,7.5,1.5C487.684,459.534,488.322,455.16,484.631,454.275z"/>
<path fill="none" stroke="#000000" stroke-linecap="square" stroke-miterlimit="10" d="M475.631,459.525  c5.407-0.84,9.592,0.305,13.5,3"/>
<path fill-rule="evenodd" clip-rule="evenodd" stroke="#000000" stroke-linecap="square" stroke-miterlimit="10" d="  M473.381,440.025C470.329,440.025,470.329,440.025,473.381,440.025L473.381,440.025z"/>
<line fill="none" stroke="#000000" stroke-linecap="square" stroke-miterlimit="10" x1="420.131" y1="506.775" x2="420.131" y2="506.775"/>
</svg>