<svg xmlns="http://www.w3.org/2000/svg" xmlns:xlink="http://www.w3.org/1999/xlink" version="1.1" id="Layer_1" x="0px" y="0px" enable-background="new 0 0 822.05 841.89" xml:space="preserve" viewBox="202.2 248.83 415.78 344.84">
<path fill-rule="evenodd" clip-rule="evenodd" fill="#FFFBCE" stroke="#000000" stroke-width="2" stroke-linecap="square" stroke-miterlimit="10" d="  M288.75,321.89c8.187,7.718,49.289,48.512,35.25,62.25c-14.02,13.72-54.755-24.983-63-33c-8.306-8.076-48.833-48.313-35.25-62.25  C239.525,274.756,280.052,314.016,288.75,321.89z"/>
<path fill-rule="evenodd" clip-rule="evenodd" fill="#FFFBCE" stroke="#000000" stroke-width="2" stroke-linecap="square" stroke-miterlimit="10" d="  M302.25,396.89c8.02,8.361,48.831,48.334,35.25,62.25c-13.759,14.1-54.6-24.941-63-33c-8.41-8.068-49.5-48.09-35.25-62.25  C253.166,350.062,293.49,388.96,302.25,396.89z"/>
<path fill-rule="evenodd" clip-rule="evenodd" fill="#FFFBCE" stroke="#000000" stroke-width="2" stroke-linecap="square" stroke-miterlimit="10" d="  M378.75,415.64c7.758,7.555,50.027,47.776,36.002,62.25c-14.319,14.776-55.935-26.024-63.752-33.75  c-8.264-8.168-48.598-46.592-35.25-61.5C328.857,368.001,371.146,407.583,378.75,415.64z"/>
<path fill-rule="evenodd" clip-rule="evenodd" fill="#FFFBCE" stroke="#000000" stroke-width="2" stroke-linecap="square" stroke-miterlimit="10" d="  M370.5,348.89c8.509,8.022,49.069,47.312,35.25,61.5c-13.646,14.009-54.592-24.86-63-33c-7.8-7.551-49.461-48.739-35.25-62.25  C321.467,301.862,362.936,340.737,370.5,348.89z"/>
<path fill-rule="evenodd" clip-rule="evenodd" fill="#FFFBCE" stroke="#000000" stroke-width="2" stroke-linecap="square" stroke-miterlimit="10" d="  M407.25,312.14c8.527,8.203,49.526,47.184,35.25,61.5c-13.856,13.896-54.455-24.728-63-33c-7.801-7.552-49.461-48.738-35.25-62.25  C358.23,265.098,399.696,303.998,407.25,312.14z"/>
<path fill-rule="evenodd" clip-rule="evenodd" fill="#FFFBCE" stroke="#000000" stroke-width="2" stroke-linecap="square" stroke-miterlimit="10" d="  M300.75,267.14c10.27,4.734,61.868,29.557,53.25,47.25c-8.824,18.116-60.014-6.333-70.5-11.25  c-10.872-5.098-61.293-28.243-53.25-46.5C238.355,238.243,289.83,262.432,300.75,267.14z"/>
<path fill-rule="evenodd" clip-rule="evenodd" fill="#FFFBCE" stroke="#000000" stroke-width="2" stroke-linecap="square" stroke-miterlimit="10" d="  M442.5,392.39c8.365,8.048,49.052,47.339,35.25,61.5c-13.676,14.032-54.546-24.893-62.998-33  c-7.846-7.526-49.719-48.483-35.252-62.25C394.041,344.803,434.323,384.548,442.5,392.39z"/>
<path fill-rule="evenodd" clip-rule="evenodd" fill="#FFFBCE" stroke="#000000" stroke-width="2" stroke-linecap="square" stroke-miterlimit="10" d="  M449.25,513.89c8.031,8.374,49.118,48.071,35.25,62.25c-13.702,14.01-54.586-24.929-63-33c-8.303-7.965-49.183-48.195-35.25-62.25  C400.028,466.991,440.582,506.043,449.25,513.89z"/>
<path fill-rule="evenodd" clip-rule="evenodd" fill="#FFFBCE" stroke="#000000" stroke-width="2" stroke-linecap="square" stroke-miterlimit="10" d="  M441,447.14c8.445,7.754,48.777,48.512,35.25,62.25c-13.677,13.89-54.731-24.931-63-33c-8.333-8.132-49.338-48.127-35.25-62.25  C391.988,400.117,432.158,439.136,441,447.14z"/>
<path fill-rule="evenodd" clip-rule="evenodd" fill="#FFFBCE" stroke="#000000" stroke-width="2" stroke-linecap="square" stroke-miterlimit="10" d="  M513,490.64c8.428,7.737,48.572,47.668,35.25,62.25c-13.337,14.599-54.991-25.332-63-33c-8.197-7.849-49.239-47.629-36-62.25  C462.73,442.751,504.682,483.111,513,490.64z"/>
<path fill-rule="evenodd" clip-rule="evenodd" fill="#FFFBCE" stroke="#000000" stroke-width="2" stroke-linecap="square" stroke-miterlimit="10" d="  M504.75,444.14c8.085,8.139,48.427,46.751,35.25,61.5c-13.244,14.824-55.776-25.28-63.75-33c-8.216-7.954-48.33-46.859-35.25-61.5  C454.178,396.391,496.892,436.317,504.75,444.14z"/>
<path fill-rule="evenodd" clip-rule="evenodd" fill="#FFFBCE" stroke="#000000" stroke-width="2" stroke-linecap="square" stroke-miterlimit="10" d="  M340.5,549.14c11.082,2.414,67.243,11.496,63.75,31.5c-3.492,20-59.374,9.486-70.5,7.5c-11.016-1.967-67.711-11.854-64.5-31.5  C272.465,536.972,329.578,547.087,340.5,549.14z"/>
<path fill-rule="evenodd" clip-rule="evenodd" fill="#FFFBCE" stroke="#000000" stroke-width="2" stroke-linecap="square" stroke-miterlimit="10" d="  M424.5,545.39c11.01,1.388,66.929,12.321,63.75,31.5c-3.296,19.884-60.341,9.585-71.25,7.5c-11.163-2.133-66.93-12.021-63.75-31.5  C356.479,533.103,413.6,543.113,424.5,545.39z"/>
<path fill-rule="evenodd" clip-rule="evenodd" fill="#FFFBCE" stroke="#000000" stroke-width="2" stroke-linecap="square" stroke-miterlimit="10" d="  M391.5,510.89c10.814,2.355,68.106,12.509,63.75,32.25c-4.037,18.295-60.171,9.573-71.25,7.5  c-11.125-2.081-67.09-13.072-63.75-32.25C323.681,498.695,380.409,508.806,391.5,510.89z"/>
<path fill-rule="evenodd" clip-rule="evenodd" fill="#FFFBCE" stroke="#000000" stroke-width="2" stroke-linecap="square" stroke-miterlimit="10" d="  M495.75,377.39c8.15,7.937,49.44,46.644,36,61.5c-13.395,14.806-55.757-25.262-63.75-33c-7.82-7.571-49.247-47.997-35.25-62.25  C446.893,329.239,488.377,369.413,495.75,377.39z"/>
<path fill-rule="evenodd" clip-rule="evenodd" fill="#FFFBCE" stroke="#000000" stroke-width="2" stroke-linecap="square" stroke-miterlimit="10" d="  M567.75,420.89c8.467,8.146,49.359,47.206,35.25,61.5c-13.711,13.891-54.531-24.803-63-33c-7.978-7.722-49.307-48.427-35.25-62.25  C519.002,373.124,560.014,412.519,567.75,420.89z"/>
<path fill-rule="evenodd" clip-rule="evenodd" fill="#FFFBCE" stroke="#000000" stroke-width="2" stroke-linecap="square" stroke-miterlimit="10" d="  M468,315.14c7.992,8.045,48.834,47.611,35.25,62.25c-13.426,14.468-55.78-25.266-63.75-33c-8.226-7.982-48.378-47.642-35.25-62.25  C417.553,267.337,459.605,307.736,468,315.14z"/>
<path fill-rule="evenodd" clip-rule="evenodd" fill="#FFFBCE" stroke="#000000" stroke-width="2" stroke-linecap="square" stroke-miterlimit="10" d="  M534.75,297.14c11.034,4.449,63.948,23.201,57.75,42c-6.205,18.821-60.203,0.142-71.25-3.75c-10.793-3.803-63.922-23.485-57.75-42  C469.914,274.149,523.936,293.689,534.75,297.14z"/>
<path fill-rule="evenodd" clip-rule="evenodd" fill="#FFFBCE" stroke="#000000" stroke-width="2" stroke-linecap="square" stroke-miterlimit="10" d="  M558.75,344.39c10.603,3.972,63.785,23.463,57.75,42c-6.194,19.026-60.85-0.062-71.25-3.75c-11.414-4.047-64.039-23.39-57.75-42  C494.031,321.315,547.28,341.267,558.75,344.39z"/>
<path fill-rule="evenodd" clip-rule="evenodd" fill="#FFFBCE" stroke="#000000" stroke-width="2" stroke-linecap="square" stroke-miterlimit="10" d="  M283.5,426.89c11.784,0.891,67.01,5.795,66,25.5c-1.024,19.997-58.185,15.286-69.75,14.25c-10.749-0.963-69.123-6.191-66.75-26.25  C215.316,420.812,272.458,426.105,283.5,426.89z"/>
<path fill-rule="evenodd" clip-rule="evenodd" fill="#FFFBCE" stroke="#000000" stroke-width="2" stroke-linecap="square" stroke-miterlimit="10" d="  M339.75,462.14c11.398,0.922,68.32,5.737,66.75,25.5c-1.608,20.234-58.349,15.232-69.75,14.25  c-11.148-0.961-69.033-6.299-66.75-26.25C272.209,456.328,328.439,461.196,339.75,462.14z"/>
<path fill-rule="evenodd" clip-rule="evenodd" fill="#FFFBCE" stroke="#000000" stroke-width="2" stroke-linecap="square" stroke-miterlimit="10" d="  M273,489.89c11.476,1.738,68.533,6.319,66.75,26.25c-1.818,20.319-58.169,15.18-69.75,14.25c-11.267-0.904-68.811-6.584-66.75-26.25  C205.237,485.177,261.646,488.753,273,489.89z"/>
</svg>