<svg xmlns="http://www.w3.org/2000/svg" xmlns:xlink="http://www.w3.org/1999/xlink" version="1.1" id="Layer_1" x="0px" y="0px" enable-background="new 0 0 822.05 841.89" xml:space="preserve" viewBox="200.35 382.77 421.25 77.68">
<path fill-rule="evenodd" clip-rule="evenodd" fill="#6C5635" stroke="#000000" stroke-width="2" stroke-linecap="square" stroke-miterlimit="10" d="  M287.602,403.201c-28.75,1.75-57.5,3.5-86.25,5.25c1.75,17.001,3.5,34.001,5.25,51.002c44.381-14.921,93.84-38.78,140.25-46.502  c47.53-7.908,101.721-1.017,150-1.5c10.318-41.98-106.46-23.647-134.508-23.954C336.239,387.212,317.013,415.034,287.602,403.201z"/>
<path fill-rule="evenodd" clip-rule="evenodd" fill="#BCBEC0" stroke="#000000" stroke-width="2" stroke-linecap="square" stroke-miterlimit="10" d="  M495.352,388.951c-6.407,31.517,100.723,17.705,125.25,18c-2.699-30.088-11.783-16.379-25.353-16.573  C561.95,389.902,528.65,389.426,495.352,388.951z"/>
<path fill="none" stroke="#000000" stroke-width="2" stroke-linecap="square" stroke-miterlimit="10" d="M309.352,427.203  c23.139,14.785,49.146,9.973,65.25-12.752"/>
<path fill-rule="evenodd" clip-rule="evenodd" fill="#6D6F71" stroke="#000000" stroke-width="2" stroke-linecap="square" stroke-miterlimit="10" d="  M336.352,416.701c3.5-1.25,7-2.5,10.5-3.75c0.198,2.767-0.703,19.504,0,14.252C339.425,426.157,339.558,421.732,336.352,416.701z"/>
</svg>