<svg xmlns="http://www.w3.org/2000/svg" xmlns:xlink="http://www.w3.org/1999/xlink" version="1.1" id="Layer_1" x="0px" y="0px" enable-background="new 0 0 822.05 841.89" xml:space="preserve" viewBox="193.85 239.26 433.35 361.66">
<path fill-rule="evenodd" clip-rule="evenodd" fill="#BCBEC0" stroke="#000000" stroke-width="2" stroke-linecap="square" stroke-miterlimit="10" d="  M622.264,430.64c-113.908,0-227.817,0-341.726,0c-21.115,0-81.278,13.275-81.278-12.658c0-32.039,0-64.078,0-96.117  c0-9.769-7.461-69.333,0-75.725c15.432-13.219,100.1,0,119.688,0c74.013,0,148.025,0,222.038,0  c21.115,0,81.278-13.275,81.278,12.658C622.264,316.079,622.264,373.359,622.264,430.64z"/>
<path fill-rule="evenodd" clip-rule="evenodd" fill="#BCBEC0" stroke="#000000" stroke-width="2" stroke-linecap="square" stroke-miterlimit="10" d="  M462.514,411.89c-67.035-34.377-139.76-70.381-214.504-84.222c-8.603-1.593-43.571-12.04-51-5.028  c-5.049,4.766,0.316,43.2,0.365,49.863c0.378,51.629,0.756,103.258,1.135,154.887c46.488-4.172,93.642-23.882,139.5-24.75  c7.318-0.139,105.947,17.117,81.754-13.125c-10.793-13.491-65.806-33.296-53.254-56.625c11.477-21.332,84.896-11.375,106.504-12.75  C469.905,416.785,466.381,414.337,462.514,411.89z"/>
<path fill-rule="evenodd" clip-rule="evenodd" fill="#BCBEC0" stroke="#000000" stroke-width="2" stroke-linecap="square" stroke-miterlimit="10" d="  M490.264,422.39c35.156-15.575,89.229-43.954,129-36c12.971,2.594,3.75,171.79,3.75,193.484c0,28.768-26.141,16.516-51.935,16.516  c-17.222,0-66.229,7.946-79.315,0c-16.797-10.199-32.779-62.883-41.748-80.087c-12.886-24.722-33.077-51.869-36.254-80.413  C439.263,431.39,464.763,426.89,490.264,422.39z"/>
<path fill-rule="evenodd" clip-rule="evenodd" fill="#00AEEF" stroke="#000000" stroke-width="2" stroke-linecap="square" stroke-miterlimit="10" d="  M197.76,523.64c-0.25,24-0.5,48-0.75,72c114.251-0.25,228.503-0.5,342.754-0.75c-97.951-30.418,71.351-96.392-19.5-126  c-13.8-4.497-116.625-12.367-88.5-34.5c7.809-6.145,37.392-3.878,48-6c23.104-4.621-7.823-16.872-17.25-16.5  c3.518,2.328,6.36,5.175,9,7.5c-19.544,3.198-92.126-10.147-103.504,14.25c-13.25,28.411,51.956,36.176,52.504,60.75  c0.685,30.706-65.036,8.691-82.504,8.25c-23.512-0.595-47.462,7.709-69.75,13.5C245.019,522.179,222.976,523.001,197.76,523.64z"/>
<path fill-rule="evenodd" clip-rule="evenodd" fill="#ED1C24" stroke="#000000" stroke-width="2" stroke-linecap="square" stroke-miterlimit="10" d="  M345.51,411.14c12.5-5,25-10,37.5-15c8.174,20.436,16.349,40.871,24.523,61.308c7.981,19.953,15.719,11.694,36.231,7.692  c-5.235,10.322-16.434,47.172-26.25,51.75c-8.472,3.951-48.657-18.713-58.504-22.5c8.75-3.5,17.5-7,26.25-10.5  C372.01,459.64,358.76,435.39,345.51,411.14z"/>
</svg>