<svg xmlns="http://www.w3.org/2000/svg" xmlns:xlink="http://www.w3.org/1999/xlink" version="1.1" id="Layer_1" x="0px" y="0px" enable-background="new 0 0 822.05 841.89" xml:space="preserve" viewBox="205.98 248.89 406.25 342.5">
<path fill-rule="evenodd" clip-rule="evenodd" fill="#967A66" stroke="#000000" stroke-width="2" stroke-linecap="square" stroke-miterlimit="10" d="  M456.736,496.64c13.283,15.939,26.566,31.88,39.85,47.819c13.918,16.702,31.097,9.915,52.4,9.181c-8.204,1.82-15.985,6.432-24,9  c6.121,2.21,11.726,6.588,18,8.25c-24.491-1.324-34.304,0.665-49.389-16.139c-18.287-20.37-36.574-40.741-54.861-61.111  C444.608,494.619,451.084,494.822,456.736,496.64z"/>
<path fill-rule="evenodd" clip-rule="evenodd" fill="#F7931E" stroke="#000000" stroke-width="2" stroke-linecap="square" stroke-miterlimit="10" d="  M588.736,273.89c-14.146,46.746,40.749,86.721,9,130.5c-40.869,56.355-84.907-19.184-52.5-60.75  c-18.234,2.219-63.983,5.783-65.25-22.5c-0.444-9.913,24.365-34.277,32.25-39C533.685,269.293,563.52,274.451,588.736,273.89z"/>
<path fill-rule="evenodd" clip-rule="evenodd" fill="#FFFBCE" stroke="#000000" stroke-width="2" stroke-linecap="square" stroke-miterlimit="10" d="  M425.236,490.64c45.49,10.134,103.269,11.856,141-20.25c18.357-15.621,30.023-38.438,33-62.25  c2.934-23.468-47.675-69.413-62.25-88.5C489.07,377.326,455.444,422.344,425.236,490.64z"/>
<path fill-rule="evenodd" clip-rule="evenodd" fill="#967A66" stroke="#000000" stroke-width="2" stroke-linecap="square" stroke-miterlimit="10" d="  M576.736,284.39c-33.839,11.784,26.854,12.831,34.5,12C599.736,292.39,588.236,288.39,576.736,284.39z"/>
<path fill-rule="evenodd" clip-rule="evenodd" fill="#6C5635" stroke="#000000" stroke-width="2" stroke-linecap="square" stroke-miterlimit="10" d="  M523.486,289.64c8.094-6.033,15.421-7.406,24-0.75C539.31,294.956,532.437,293.662,523.486,289.64z"/>
<path fill-rule="evenodd" clip-rule="evenodd" fill="#948B64" stroke="#000000" stroke-width="2" stroke-linecap="square" stroke-miterlimit="10" d="  M360.732,447.14c-30.972,8.577-149.706,20.693-153.75,57.75c36.667-9.444,73.333-18.889,110-28.333  c10.785-2.778,27.223-10.626,38.5-9.917c23.199,1.458,10.779,7.153,29.25,15c-11.221,17.953-26.104,34.658-25.5,57  c46.268-34.12,90.44-69.528,134.676-106.266c26.577-22.073,17.626-63.829,44.578-87.234c-14.761,0.301-60.734,0.654-56.625-24  c8.626-51.756,69.758-46.425,106.875-47.25c-19.291-41.343-77.759-22.724-98.25,6.75c-7.459,10.729-8.503,23.413-14.25,34.5  c-9.542,18.408-26.003,34.035-40.583,50.111C409.398,394.199,394.559,428.237,360.732,447.14z"/>
<path fill-rule="evenodd" clip-rule="evenodd" fill="#967A66" stroke="#000000" stroke-width="2" stroke-linecap="square" stroke-miterlimit="10" d="  M433.486,494.39c-3-1-6-2-9-3c15.5,25,31,50,46.5,75c-12,1.75-24,3.5-36,5.25c31.99,0.604,44.773,3.49,72.75,18.75  c-5.571-4.427-9.149-11.504-14.25-16.5c12.25,0,24.5,0,36.75,0c-14.263-1.87-40.94,0.932-49.527-11.444  C464.968,539.76,449.228,517.076,433.486,494.39z"/>
</svg>