<svg xmlns="http://www.w3.org/2000/svg" xmlns:xlink="http://www.w3.org/1999/xlink" version="1.1" id="Layer_1" x="0px" y="0px" enable-background="new 0 0 822.05 841.89" xml:space="preserve" viewBox="196.6 284.48 429.5 274.77">
<path fill-rule="evenodd" clip-rule="evenodd" fill="#DFF3FD" stroke="#000000" stroke-width="2" stroke-linecap="square" stroke-miterlimit="10" d="  M234.354,408.39c-9.864,21.469-14.446,148.935,4.852,148.383c17.569-0.502,22.353,3.65,22.116-14.332  c-0.229-17.367-0.457-34.734-0.686-52.102c-0.343-26.043,1.638-48.127,5.218-73.699c5.811,28.875,10.795,58.4,8.089,87.785  c-0.681,7.396-9.515,44.862-2.089,51.715c7.734,7.137,44.292-5.88,31.5-13.875c-6.003-3.752,2.522-83.288,2.306-96.098  C304.9,401.382,270.754,409.808,234.354,408.39z"/>
<path fill-rule="evenodd" clip-rule="evenodd" fill="#DFF3FD" stroke="#000000" stroke-width="2" stroke-linecap="square" stroke-miterlimit="10" d="  M234.354,373.14c-2.116,28.923-5.536,37.5,25.618,37.5c37.273,0,38.132-1.227,38.132-38.25  C276.854,372.64,255.604,372.89,234.354,373.14z"/>
<path fill-rule="evenodd" clip-rule="evenodd" fill="#DFF3FD" stroke="#000000" stroke-width="2" stroke-linecap="square" stroke-miterlimit="10" d="  M217.104,350.64c-6,12.25-12,24.5-18,36.75c3.967,1.488,16.852,4.613,21,5.25C235.61,376.198,225.498,366.472,217.104,350.64z"/>
<path fill-rule="evenodd" clip-rule="evenodd" fill="#DFF3FD" stroke="#000000" stroke-width="2" stroke-linecap="square" stroke-miterlimit="10" d="  M197.604,390.39c0.75,12.5,1.5,25,2.25,37.5c2.669,0.617,14.569,1.112,17.25,0.75C218.402,413.056,223.949,374.455,197.604,390.39z"/>
<path fill-rule="evenodd" clip-rule="evenodd" fill="#90A7D6" stroke="#000000" stroke-width="2" stroke-linecap="square" stroke-miterlimit="10" d="  M199.104,430.89c28.647-11.479,5.926,13.688,18.75,20.25c-0.25,2-0.5,4-0.75,6C198.292,459.621,195.26,446.945,199.104,430.89z"/>
<path fill-rule="evenodd" clip-rule="evenodd" fill="#DFF3FD" stroke="#000000" stroke-width="2" stroke-linecap="square" stroke-miterlimit="10" d="  M300.354,364.89c5.922-4.708,14.312-7.667,21-11.25c2.75,10.75,5.5,21.5,8.25,32.25c-10.97,1.393-12.694,1.682-20.25,9  C306.354,384.89,303.354,374.89,300.354,364.89z"/>
<path fill-rule="evenodd" clip-rule="evenodd" fill="#DFF3FD" stroke="#000000" stroke-width="2" stroke-linecap="square" stroke-miterlimit="10" d="  M310.104,400.89c-0.035-8.472,1.356-11.605,9-15c17.123-7.604,14.393,28.36,15.75,38.25c-2.325,0.722-17.2,2.932-18.75,3  C314.104,418.39,312.104,409.64,310.104,400.89z"/>
<path fill-rule="evenodd" clip-rule="evenodd" fill="#90A7D6" stroke="#000000" stroke-width="2" stroke-linecap="square" stroke-miterlimit="10" d="  M316.104,427.14c-0.25,4.75-0.5,9.5-0.75,14.25c2,0.25,4,0.5,6,0.75c0-1.75,0-3.5,0-5.25c4.621,9.44,7.507,0.104,5.25,13.5  c3.75,0.25,7.5,0.5,11.25,0.75C337.002,434.133,334.939,414.016,316.104,427.14z"/>
<path fill-rule="evenodd" clip-rule="evenodd" fill="#90A7D6" stroke="#000000" stroke-width="2" stroke-linecap="square" stroke-miterlimit="10" d="  M239.604,410.64c7.778-1.169,16.866,0.511,24.75,0.75C262.779,436.653,242.287,434.222,239.604,410.64z"/>
<path fill-rule="evenodd" clip-rule="evenodd" fill="#90A7D6" stroke="#000000" stroke-width="2" stroke-linecap="square" stroke-miterlimit="10" d="  M267.354,409.89c7.778-1.169,16.866,0.511,24.75,0.75C290.875,436.169,270.004,433.187,267.354,409.89z"/>
<line fill="none" stroke="#000000" stroke-width="2" stroke-linecap="square" stroke-miterlimit="10" x1="229.854" y1="490.14" x2="260.604" y2="487.89"/>
<line fill="none" stroke="#000000" stroke-width="2" stroke-linecap="square" stroke-miterlimit="10" x1="229.854" y1="445.89" x2="261.354" y2="445.89"/>
<line fill="none" stroke="#000000" stroke-width="2" stroke-linecap="square" stroke-miterlimit="10" x1="271.854" y1="445.89" x2="306.354" y2="446.64"/>
<line fill="none" stroke="#000000" stroke-width="2" stroke-linecap="square" stroke-miterlimit="10" x1="275.604" y1="487.89" x2="306.354" y2="487.14"/>
<line fill="none" stroke="#000000" stroke-width="2" stroke-linecap="square" stroke-miterlimit="10" x1="225.354" y1="543.39" x2="261.354" y2="544.89"/>
<line fill="none" stroke="#000000" stroke-width="2" stroke-linecap="square" stroke-miterlimit="10" x1="270.354" y1="543.39" x2="306.354" y2="544.14"/>
<path fill-rule="evenodd" clip-rule="evenodd" fill="#DFF3FD" stroke="#000000" stroke-width="2" stroke-linecap="square" stroke-miterlimit="10" d="  M297.354,310.89c0.509,33.863-57,33.783-57,0S297.863,277.027,297.354,310.89z"/>
<path fill-rule="evenodd" clip-rule="evenodd" fill="#6D6F71" stroke="#000000" stroke-width="2" stroke-linecap="square" stroke-miterlimit="10" d="  M250.104,331.14c-1.99-19.456,9.107-45.294,33-27.375C311.606,325.142,271.06,341.551,250.104,331.14z"/>
<path fill-rule="evenodd" clip-rule="evenodd" fill="#90A7D6" stroke="#000000" stroke-width="2" stroke-linecap="square" stroke-miterlimit="10" d="  M233.604,333.39c-34.203,6.456-9.217,56.403,5.25,28.5c-1,4-2,8-3,12c20.5,0.75,41,1.5,61.5,2.25c-1.496-5.074,1.321-11.366,0-16.5  c31.902,30.02,16.339-53.404-8.25-17.25c-8.045-8.562-35.48-11.562-39-1.5C245.549,330.614,241.671,336.437,233.604,333.39z"/>
<path fill-rule="evenodd" clip-rule="evenodd" fill="#BCBEC0" stroke="#000000" stroke-width="2" stroke-linecap="square" stroke-miterlimit="10" d="  M283.104,394.14c-5.558,0-27.043,3.433-30.75,0c-1.538-1.424-1.538-33.076,0-34.5C281.104,333.013,283.104,382.027,283.104,394.14z"/>
<path fill-rule="evenodd" clip-rule="evenodd" fill="#DFF3FD" stroke="#000000" stroke-width="2" stroke-linecap="square" stroke-miterlimit="10" d="  M378.354,408.39c-8.868,21.434-14.413,148.921,4.969,148.383c17.744-0.493,22.988,3.866,22.749-14.332  c-0.229-17.367-0.457-34.734-0.686-52.102c-0.343-26.043,1.638-48.127,5.218-73.699c4.841,29.013,10.938,58.469,7.852,87.785  c-0.854,8.111-10.188,44.205-1.852,51.715c7.817,7.042,44.28-5.887,31.5-13.875c-6.522-4.076,1.775-83.122,1.556-96.098  C448.895,401.035,415.279,409.811,378.354,408.39z"/>
<path fill-rule="evenodd" clip-rule="evenodd" fill="#DFF3FD" stroke="#000000" stroke-width="2" stroke-linecap="square" stroke-miterlimit="10" d="  M378.354,373.14c-2.137,29.2-5.003,37.5,26.368,37.5c37.272,0,38.132-1.227,38.132-38.25  C421.354,372.64,399.854,372.89,378.354,373.14z"/>
<path fill-rule="evenodd" clip-rule="evenodd" fill="#DFF3FD" stroke="#000000" stroke-width="2" stroke-linecap="square" stroke-miterlimit="10" d="  M361.854,350.64c-6,12.25-12,24.5-18,36.75c4.445,1.533,16.098,4.556,20.25,5.25C380.343,376.366,370.44,366.63,361.854,350.64z"/>
<path fill-rule="evenodd" clip-rule="evenodd" fill="#DFF3FD" stroke="#000000" stroke-width="2" stroke-linecap="square" stroke-miterlimit="10" d="  M342.354,390.39c0.75,12.5,1.5,25,2.25,37.5c2.61,0.601,13.806,1.09,16.5,0.75C362.334,413.866,368.484,374.126,342.354,390.39z"/>
<path fill-rule="evenodd" clip-rule="evenodd" fill="#90A7D6" stroke="#000000" stroke-width="2" stroke-linecap="square" stroke-miterlimit="10" d="  M343.104,430.89c29.81-11.697,6.398,13.546,19.5,20.25c-0.5,2-1,4-1.5,6C342.823,459.398,339.955,446.52,343.104,430.89z"/>
<path fill-rule="evenodd" clip-rule="evenodd" fill="#DFF3FD" stroke="#000000" stroke-width="2" stroke-linecap="square" stroke-miterlimit="10" d="  M444.354,364.89c5.905-4.715,14.319-7.671,21-11.25c3,10.75,6,21.5,9,32.25c-10.921,1.355-12.714,1.665-20.25,9  C450.854,384.89,447.604,374.89,444.354,364.89z"/>
<path fill-rule="evenodd" clip-rule="evenodd" fill="#DFF3FD" stroke="#000000" stroke-width="2" stroke-linecap="square" stroke-miterlimit="10" d="  M454.854,400.89c-0.817-9.455,2.595-13.997,12-15.75c13.79-2.571,11.442,29.474,12.75,39c-2.253,0.692-17.077,2.91-18.75,3  C458.854,418.39,456.854,409.64,454.854,400.89z"/>
<path fill-rule="evenodd" clip-rule="evenodd" fill="#90A7D6" stroke="#000000" stroke-width="2" stroke-linecap="square" stroke-miterlimit="10" d="  M460.854,427.14c-0.25,4.75-0.5,9.5-0.75,14.25c1.75,0.25,3.5,0.5,5.25,0.75c0.25-1.75,0.5-3.5,0.75-5.25  c3.713,8.514,7.168,1.194,5.25,13.5c3.75,0.25,7.5,0.5,11.25,0.75C481.749,434.063,479.139,414.087,460.854,427.14z"/>
<path fill-rule="evenodd" clip-rule="evenodd" fill="#90A7D6" stroke="#000000" stroke-width="2" stroke-linecap="square" stroke-miterlimit="10" d="  M384.354,410.64c7.778-1.169,16.866,0.511,24.75,0.75C407.515,436.627,387.027,434.136,384.354,410.64z"/>
<path fill-rule="evenodd" clip-rule="evenodd" fill="#90A7D6" stroke="#000000" stroke-width="2" stroke-linecap="square" stroke-miterlimit="10" d="  M411.354,409.89c8.053-1.154,17.347,0.51,25.5,0.75C434.014,435.914,415.082,433.177,411.354,409.89z"/>
<line fill="none" stroke="#000000" stroke-width="2" stroke-linecap="square" stroke-miterlimit="10" x1="374.604" y1="490.14" x2="405.354" y2="487.89"/>
<line fill="none" stroke="#000000" stroke-width="2" stroke-linecap="square" stroke-miterlimit="10" x1="374.604" y1="445.89" x2="406.104" y2="445.89"/>
<line fill="none" stroke="#000000" stroke-width="2" stroke-linecap="square" stroke-miterlimit="10" x1="416.604" y1="445.89" x2="450.354" y2="446.64"/>
<line fill="none" stroke="#000000" stroke-width="2" stroke-linecap="square" stroke-miterlimit="10" x1="420.354" y1="487.89" x2="450.354" y2="487.14"/>
<line fill="none" stroke="#000000" stroke-width="2" stroke-linecap="square" stroke-miterlimit="10" x1="369.354" y1="543.39" x2="406.104" y2="544.89"/>
<line fill="none" stroke="#000000" stroke-width="2" stroke-linecap="square" stroke-miterlimit="10" x1="414.354" y1="543.39" x2="451.104" y2="544.14"/>
<path fill-rule="evenodd" clip-rule="evenodd" fill="#DFF3FD" stroke="#000000" stroke-width="2" stroke-linecap="square" stroke-miterlimit="10" d="  M442.104,310.89c-2.018,33.642-57.75,34.121-57.75,0S440.086,277.248,442.104,310.89z"/>
<path fill-rule="evenodd" clip-rule="evenodd" fill="#6D6F71" stroke="#000000" stroke-width="2" stroke-linecap="square" stroke-miterlimit="10" d="  M394.104,331.14c-2.451-19.717,9.79-45.345,33.75-27.375C456.378,325.158,414.153,340.697,394.104,331.14z"/>
<path fill-rule="evenodd" clip-rule="evenodd" fill="#90A7D6" stroke="#000000" stroke-width="2" stroke-linecap="square" stroke-miterlimit="10" d="  M378.354,333.39c-35.461,5.708-8.376,56.903,5.25,28.5c-1,4-2,8-3,12c20.5,0.75,41,1.5,61.5,2.25c-1.553-5.04,1.318-11.377,0-16.5  c29.738,31.558,16.836-55.225-8.25-17.25c-8.232-8.61-36.053-11.544-39.75-1.5C390.245,330.317,386.285,336.46,378.354,333.39z"/>
<path fill-rule="evenodd" clip-rule="evenodd" fill="#BCBEC0" stroke="#000000" stroke-width="2" stroke-linecap="square" stroke-miterlimit="10" d="  M427.854,394.14c-5.639,0-27.78,3.5-31.5,0c-1.556-1.464-1.556-33.036,0-34.5c1.647-1.55,29.853-1.55,31.5,0  C431.529,363.1,427.854,388.405,427.854,394.14z"/>
<path fill-rule="evenodd" clip-rule="evenodd" fill="#DFF3FD" stroke="#000000" stroke-width="2" stroke-linecap="square" stroke-miterlimit="10" d="  M521.604,408.39c-9.82,20.565-13.831,148.905,4.969,148.383c17.569-0.488,23.196,3.889,22.717-14.332  c-0.457-17.367-0.914-34.734-1.371-52.102c-0.686-26.064,3.265-48.177,5.186-73.699c5.811,28.875,10.795,58.4,8.089,87.785  c-0.692,7.514-9.523,44.732-2.089,51.715c7.702,7.233,45.164-5.804,32.25-13.875c-6.522-4.076,1.775-83.122,1.556-96.098  C592.145,401.035,558.529,409.811,521.604,408.39z"/>
<path fill-rule="evenodd" clip-rule="evenodd" fill="#DFF3FD" stroke="#000000" stroke-width="2" stroke-linecap="square" stroke-miterlimit="10" d="  M521.604,373.14c-2.466,33.696-2.69,37.5,31.5,37.5c34.258,0,33-4.493,33-38.25C564.604,372.64,543.104,372.89,521.604,373.14z"/>
<path fill-rule="evenodd" clip-rule="evenodd" fill="#DFF3FD" stroke="#000000" stroke-width="2" stroke-linecap="square" stroke-miterlimit="10" d="  M505.104,350.64c-6,12.25-12,24.5-18,36.75c3.947,1.51,16.421,4.652,20.25,5.25C522.387,376.496,513.813,366.164,505.104,350.64z"/>
<path fill-rule="evenodd" clip-rule="evenodd" fill="#DFF3FD" stroke="#000000" stroke-width="2" stroke-linecap="square" stroke-miterlimit="10" d="  M484.854,390.39c1,12.5,2,25,3,37.5c2.784,0.648,13.735,1.111,16.5,0.75C505.631,413.306,511.228,373.887,484.854,390.39z"/>
<path fill-rule="evenodd" clip-rule="evenodd" fill="#90A7D6" stroke="#000000" stroke-width="2" stroke-linecap="square" stroke-miterlimit="10" d="  M486.354,430.89c30.214-11.562,6.235,13.462,19.5,20.25c-0.5,2-1,4-1.5,6C486.072,459.398,483.205,446.52,486.354,430.89z"/>
<path fill-rule="evenodd" clip-rule="evenodd" fill="#DFF3FD" stroke="#000000" stroke-width="2" stroke-linecap="square" stroke-miterlimit="10" d="  M587.604,364.89c5.905-4.715,14.319-7.671,21-11.25c3,10.75,6,21.5,9,32.25c-11.403,1.156-12.532,1.311-20.25,9  C594.104,384.89,590.854,374.89,587.604,364.89z"/>
<path fill-rule="evenodd" clip-rule="evenodd" fill="#DFF3FD" stroke="#000000" stroke-width="2" stroke-linecap="square" stroke-miterlimit="10" d="  M598.104,400.89c-1.159-8.749,0.673-11.293,8.25-15c17.84-8.728,14.603,28.494,15.75,38.25c-2.191,0.688-16.779,2.936-18,3  C602.104,418.39,600.104,409.64,598.104,400.89z"/>
<path fill-rule="evenodd" clip-rule="evenodd" fill="#90A7D6" stroke="#000000" stroke-width="2" stroke-linecap="square" stroke-miterlimit="10" d="  M604.104,427.14c-0.25,4.75-0.5,9.5-0.75,14.25c1.75,0.25,3.5,0.5,5.25,0.75c0.25-1.75,0.5-3.5,0.75-5.25  c3.869,8.521,7.166,1.207,5.25,13.5c3.5,0.25,7,0.5,10.5,0.75C624.26,434.281,621.542,414.161,604.104,427.14z"/>
<path fill-rule="evenodd" clip-rule="evenodd" fill="#90A7D6" stroke="#000000" stroke-width="2" stroke-linecap="square" stroke-miterlimit="10" d="  M526.854,410.64c8.053-1.154,17.347,0.51,25.5,0.75C549.137,436.316,530.622,434.174,526.854,410.64z"/>
<path fill-rule="evenodd" clip-rule="evenodd" fill="#90A7D6" stroke="#000000" stroke-width="2" stroke-linecap="square" stroke-miterlimit="10" d="  M554.604,409.89c8.053-1.154,17.347,0.51,25.5,0.75C577.354,435.938,557.992,433.396,554.604,409.89z"/>
<line fill="none" stroke="#000000" stroke-width="2" stroke-linecap="square" stroke-miterlimit="10" x1="517.854" y1="490.14" x2="547.854" y2="487.89"/>
<line fill="none" stroke="#000000" stroke-width="2" stroke-linecap="square" stroke-miterlimit="10" x1="517.854" y1="445.89" x2="549.354" y2="445.89"/>
<line fill="none" stroke="#000000" stroke-width="2" stroke-linecap="square" stroke-miterlimit="10" x1="559.104" y1="445.89" x2="593.604" y2="446.64"/>
<line fill="none" stroke="#000000" stroke-width="2" stroke-linecap="square" stroke-miterlimit="10" x1="562.854" y1="487.89" x2="593.604" y2="487.14"/>
<line fill="none" stroke="#000000" stroke-width="2" stroke-linecap="square" stroke-miterlimit="10" x1="512.604" y1="543.39" x2="549.354" y2="544.89"/>
<line fill="none" stroke="#000000" stroke-width="2" stroke-linecap="square" stroke-miterlimit="10" x1="557.604" y1="543.39" x2="594.354" y2="544.14"/>
<path fill-rule="evenodd" clip-rule="evenodd" fill="#DFF3FD" stroke="#000000" stroke-width="2" stroke-linecap="square" stroke-miterlimit="10" d="  M585.354,310.89c-2.018,33.642-57.75,34.121-57.75,0S583.336,277.248,585.354,310.89z"/>
<path fill-rule="evenodd" clip-rule="evenodd" fill="#6D6F71" stroke="#000000" stroke-width="2" stroke-linecap="square" stroke-miterlimit="10" d="  M537.354,331.14c-2.213-17.798,13.111-49.38,35.25-26.25C598.612,332.062,554.654,339.422,537.354,331.14z"/>
<path fill-rule="evenodd" clip-rule="evenodd" fill="#90A7D6" stroke="#000000" stroke-width="2" stroke-linecap="square" stroke-miterlimit="10" d="  M520.854,333.39c-32.497,6.25-10.772,56.501,6,28.5c-1,4-2,8-3,12c20.5,0.75,41,1.5,61.5,2.25c-1.553-5.04,1.318-11.377,0-16.5  c29.738,31.558,16.836-55.225-8.25-17.25c-8.232-8.61-36.053-11.544-39.75-1.5C533.267,330.156,529.196,336.42,520.854,333.39z"/>
<path fill-rule="evenodd" clip-rule="evenodd" fill="#BCBEC0" stroke="#000000" stroke-width="2" stroke-linecap="square" stroke-miterlimit="10" d="  M571.104,394.14c-5.639,0-27.78,3.5-31.5,0c-1.557-1.464-1.557-33.036,0-34.5c1.647-1.55,29.853-1.55,31.5,0  C574.779,363.1,571.104,388.405,571.104,394.14z"/>
</svg>