<svg xmlns="http://www.w3.org/2000/svg" xmlns:xlink="http://www.w3.org/1999/xlink" version="1.1" id="Layer_1" x="0px" y="0px" enable-background="new 0 0 822.05 841.89" xml:space="preserve" viewBox="318.28 244.73 184.25 354.83">
<path fill-rule="evenodd" clip-rule="evenodd" fill="#DFF3FD" stroke="#000000" stroke-width="2" stroke-linecap="square" stroke-miterlimit="10" d="  M367.283,404.64c-8.307,28.381-20.303,193.208,4.338,192.672c27.197-0.591,24.085,4.306,30.912-15.672  c5.898-17.26-0.97-47.534-1.344-65.856c-0.71-34.781,1.462-65.682,6.594-99.894c7.509,38.48,13.97,76.717,10.374,115.872  c-1.86,20.253-5.341,40.216-2.707,60.405c1.664,12.759,41.359,5.075,45.585-11.277c-15.166-8.843-1.157-105.188-1.468-128.801  C458.818,395.17,412.56,406.451,367.283,404.64z"/>
<path fill-rule="evenodd" clip-rule="evenodd" fill="#DFF3FD" stroke="#000000" stroke-width="2" stroke-linecap="square" stroke-miterlimit="10" d="  M367.283,358.89c-4.06,43.85-3.775,48.75,40.501,48.75c43.702,0,42.001-6.435,42.001-49.5  C422.284,358.39,394.784,358.64,367.283,358.89z"/>
<path fill-rule="evenodd" clip-rule="evenodd" fill="#DFF3FD" stroke="#000000" stroke-width="2" stroke-linecap="square" stroke-miterlimit="10" d="  M345.533,329.64c-7.75,16-15.5,32-23.25,48c9.735-1.717,18.773,0.542,26.25,6.75C365.911,350.601,351.789,359.332,345.533,329.64z"/>
<path fill-rule="evenodd" clip-rule="evenodd" fill="#DFF3FD" stroke="#000000" stroke-width="2" stroke-linecap="square" stroke-miterlimit="10" d="  M319.283,381.39c1.896,24.647-6.383,55.031,25.5,49.5C345.938,416.566,352.921,355.297,319.283,381.39z"/>
<path fill-rule="evenodd" clip-rule="evenodd" fill="#90A7D6" stroke="#000000" stroke-width="2" stroke-linecap="square" stroke-miterlimit="10" d="  M321.533,434.64c11.081-7.754,35.777,0.326,19.875,9c-17.7,9.654,11.981,18.939,3.375,24.75  C321.442,484.151,321.747,442.979,321.533,434.64z"/>
<path fill-rule="evenodd" clip-rule="evenodd" fill="#DFF3FD" stroke="#000000" stroke-width="2" stroke-linecap="square" stroke-miterlimit="10" d="  M452.035,349.14c9.25-5,18.5-10,27.75-15c3.75,13.75,7.5,27.5,11.25,41.25c-10.879-1.385-21.174,2.386-26.25,12  C460.535,374.64,456.285,361.89,452.035,349.14z"/>
<path fill-rule="evenodd" clip-rule="evenodd" fill="#DFF3FD" stroke="#000000" stroke-width="2" stroke-linecap="square" stroke-miterlimit="10" d="  M465.535,394.89c-1.573-9.624,2.896-17.829,13.125-19.875c22.258-4.452,16.497,34.384,18.375,49.875  c-9.574,0.887-15.606,1.106-24,3.75C470.535,417.39,468.035,406.14,465.535,394.89z"/>
<path fill-rule="evenodd" clip-rule="evenodd" fill="#90A7D6" stroke="#000000" stroke-width="2" stroke-linecap="square" stroke-miterlimit="10" d="  M473.035,428.64c-1.892,10.727-3.821,18.129,6.75,20.25c0.25-2.25,0.5-4.5,0.75-6.75c8.737,9.9,8.52,2.154,6.75,17.25  c4.75,0.25,9.5,0.5,14.25,0.75C501.234,439.596,496.598,410.516,473.035,428.64z"/>
<path fill-rule="evenodd" clip-rule="evenodd" fill="#90A7D6" stroke="#000000" stroke-width="2" stroke-linecap="square" stroke-miterlimit="10" d="  M374.033,407.64c10.75,0.25,21.5,0.5,32.25,0.75C401.077,441.337,380.426,439.013,374.033,407.64z"/>
<path fill-rule="evenodd" clip-rule="evenodd" fill="#90A7D6" stroke="#000000" stroke-width="2" stroke-linecap="square" stroke-miterlimit="10" d="  M409.283,406.89c11.001,0.25,22.001,0.5,33.002,0.75C437.325,440.841,416.474,437.582,409.283,406.89z"/>
<line fill="none" stroke="#000000" stroke-width="2" stroke-linecap="square" stroke-miterlimit="10" x1="361.283" y1="510.39" x2="401.033" y2="508.14"/>
<line fill="none" stroke="#000000" stroke-width="2" stroke-linecap="square" stroke-miterlimit="10" x1="361.283" y1="453.39" x2="402.533" y2="453.39"/>
<line fill="none" stroke="#000000" stroke-width="2" stroke-linecap="square" stroke-miterlimit="10" x1="416.033" y1="453.39" x2="460.285" y2="454.14"/>
<line fill="none" stroke="#000000" stroke-width="2" stroke-linecap="square" stroke-miterlimit="10" x1="420.533" y1="508.14" x2="460.285" y2="506.64"/>
<line fill="none" stroke="#000000" stroke-width="2" stroke-linecap="square" stroke-miterlimit="10" x1="355.283" y1="579.39" x2="402.533" y2="581.64"/>
<line fill="none" stroke="#000000" stroke-width="2" stroke-linecap="square" stroke-miterlimit="10" x1="413.783" y1="579.39" x2="461.035" y2="580.89"/>
<path fill-rule="evenodd" clip-rule="evenodd" fill="#DFF3FD" stroke="#000000" stroke-width="2" stroke-linecap="square" stroke-miterlimit="10" d="  M449.035,278.64c0.215,44.09-74.252,44.086-74.252,0C374.783,234.759,449.249,234.755,449.035,278.64z"/>
<path fill-rule="evenodd" clip-rule="evenodd" fill="#6D6F71" stroke="#000000" stroke-width="2" stroke-linecap="square" stroke-miterlimit="10" d="  M386.783,304.89c0-23.259-5.654-33.764,17.25-39.75c8.812-2.303,18.992-0.456,26.627,4.125c11.638,6.982,10.429,34.348-1.875,40.5  C416.626,315.845,398.579,309.557,386.783,304.89z"/>
<path fill-rule="evenodd" clip-rule="evenodd" fill="#90A7D6" stroke="#000000" stroke-width="2" stroke-linecap="square" stroke-miterlimit="10" d="  M366.533,307.89c-48.08,4.207-8.513,75.921,6.75,36c-2.396,4.597-2.082,10.807-3.75,15.75c26.5,1,53.001,2,79.502,3  c-0.569-6.621,1.88-14.69,0-21c1,2.5,2,5,3,7.5c16.407-8.869,39.798-18.025,14.25-33.75c-10.828-6.664-21.232-7.791-27.75,3.75  c-11.508-12.656-34.335-8.171-51.752-9c0,2.25,0,4.5,0,6.75C382.023,305.828,376.866,308.742,366.533,307.89z"/>
<path fill-rule="evenodd" clip-rule="evenodd" fill="#BCBEC0" stroke="#000000" stroke-width="2" stroke-linecap="square" stroke-miterlimit="10" d="  M430.285,385.89c-7.154,0-34.993,4.426-39.752,0c-1.973-1.835-1.973-42.415,0-44.25c2.115-1.967,37.638-1.967,39.752,0  C434.971,345.998,430.285,378.601,430.285,385.89z"/>
</svg>