<svg xmlns="http://www.w3.org/2000/svg" xmlns:xlink="http://www.w3.org/1999/xlink" version="1.1" id="Layer_1" x="0px" y="0px" enable-background="new 0 0 822.05 841.89" xml:space="preserve" viewBox="305.92 333.31 209.08 177.77">
<path fill-rule="evenodd" clip-rule="evenodd" fill="#8F9290" d="M485,353.89c-38.497-18.929-60.652,41.985-30,42  C454.361,423.068,516.976,373.287,485,353.89z"/>
<path fill-rule="evenodd" clip-rule="evenodd" fill="#303030" d="M446,383.89c2.621-0.667,5.608,0.519,7.5,2.25  c-0.496,1.909-1.932-6.989-1.5-6c9.346,3.182,17.531,11.877,20.25,21c-7.965-1.854-11.53-7.909-11.25-7.5  C456.087,389.51,452.302,386.643,446,383.89z"/>
<path fill-rule="evenodd" clip-rule="evenodd" fill="#303030" d="M443.75,360.64c7.519,1.946,10.552,9.463,15,0.75  C454.025,363.961,449.5,360.654,443.75,360.64z"/>
<path fill-rule="evenodd" clip-rule="evenodd" fill="#303030" d="M464,380.14c6.528,6.608,11.526,10.149,8.25,20.25  c0.062-0.42,0.803-4.468,0.75-4.5c0.103,0.62-1.76,6.404-2.25,6.75c5.101-5.488,3.971-7.507,6-14.25  C476.752,387.365,471.841,381.441,464,380.14z"/>
<path fill-rule="evenodd" clip-rule="evenodd" fill="#BFBFC0" d="M484.25,353.89C485.25,352.89,485.25,352.89,484.25,353.89  L484.25,353.89z"/>
<path fill-rule="evenodd" clip-rule="evenodd" fill="#303030" d="M440,389.89c4.216-2.485,4.027-3.082-5.25-12  C429.571,386.071,435.285,385.15,440,389.89z"/>
<path fill-rule="evenodd" clip-rule="evenodd" fill="#303030" d="M451.25,397.39c0.859,0.84,0.601,5.106,2.25,6.75  C456.758,392.312,452.138,398.258,451.25,397.39z"/>
<path fill-rule="evenodd" clip-rule="evenodd" fill="#8F9290" d="M441.5,364.39c3.238,28.645,29.405,23.458,49.5,25.5  c3.057-9.46,4.453-20.873,3-24.75C516.42,346.417,437.987,328.078,441.5,364.39z"/>
<path fill-rule="evenodd" clip-rule="evenodd" fill="#303030" d="M488,378.64c-1.892-1.418-2.465-4.558-2.25-6.75  c1.514-0.354-4.062,5.032-3.75,4.5c-2.763-9.668-0.994-21.312,5.25-29.25c3.002,8.742,1.186,6.912-2.25,15  C485.781,363.256,486.602,371.669,488,378.64z"/>
<path fill-rule="evenodd" clip-rule="evenodd" fill="#303030" d="M470.75,393.64c-2.988-7.297,0.782-14.231-8.25-12.75  c3.227,1.246,0.831,0.66,0.75,0.75C469.196,385.535,467.835,389.395,470.75,393.64z"/>
<path fill-rule="evenodd" clip-rule="evenodd" fill="#303030" d="M475.25,367.39c2.619-9.21,1.523-15.133,12-18.75  c-1.25,0.5-2.5,1-3.75,1.5c0.978-0.973,5.415-1.978,6.75-1.5c-7.32-1.148-8.943,0.735-15.75,3c1.193,0.139,2.193-0.361,3-1.5  C469.937,356.86,472.865,360.544,475.25,367.39z"/>
<path fill-rule="evenodd" clip-rule="evenodd" fill="#BFBFC0" d="M442.25,365.14C441.25,365.14,441.25,365.14,442.25,365.14  L442.25,365.14z"/>
<path fill-rule="evenodd" clip-rule="evenodd" fill="#303030" d="M497.75,380.14c-2.997-0.136-4.864-2.162-6.75,10.5  C500.859,390.481,496.527,386.212,497.75,380.14z"/>
<path fill-rule="evenodd" clip-rule="evenodd" fill="#303030" d="M497,365.14c0.312-2.185,3.567-3.047,3.75-6  C490.206,364.134,497.057,364.744,497,365.14z"/>
<path fill-rule="evenodd" clip-rule="evenodd" fill="#8F9290" d="M478.25,337.39c-25.633-13.212-36.862,8.555-49.5,24  c10.854,17.581,19.063,30.42,35.25,23.25C476.935,378.911,496.871,349.48,478.25,337.39z"/>
<path fill-rule="evenodd" clip-rule="evenodd" fill="#303030" d="M438.5,367.39c2.54-0.756,5.59,0.692,7.5,2.25  c0.022,1.124-2.628-6.68-2.25-6c9.951,3.082,17.843,11.257,21,20.25c-10.369-1.058-6.271-1.286-10.5-9.75  C450.23,374.136,444.723,370.012,438.5,367.39z"/>
<path fill-rule="evenodd" clip-rule="evenodd" fill="#303030" d="M437,344.14c7.497,2.2,10.306,9.077,15,0.75  c-1.042,0.579-2.77,0.42-3,0C446.55,347.508,441.652,344.201,437,344.14z"/>
<path fill-rule="evenodd" clip-rule="evenodd" fill="#303030" d="M456.5,363.64c6.117,6.811,11.717,8.837,8.25,19.5  c-0.061-1.288,0.189-2.538,0.75-3.75c0.504,1.702-0.795,5.035-2.25,6c5.359-4.845,4.138-7.206,6-13.5  C469.307,370.76,464.64,364.865,456.5,363.64z"/>
<path fill-rule="evenodd" clip-rule="evenodd" fill="#BFBFC0" d="M477.5,337.39C478.142,337.044,479.144,336.503,477.5,337.39  L477.5,337.39z"/>
<path fill-rule="evenodd" clip-rule="evenodd" fill="#303030" d="M433.25,373.39c2.204-2.805,4.749-3.156-4.5-12  C422.378,369.071,428.755,368.441,433.25,373.39z"/>
<path fill-rule="evenodd" clip-rule="evenodd" fill="#303030" d="M443.75,381.64c2.455,2.539-0.281,4.516,3,6.75  C449.476,377.333,444.458,382.372,443.75,381.64z"/>
<path fill-rule="evenodd" clip-rule="evenodd" fill="#8F9290" d="M471.5,398.14c-10.827-13.594-24.57-2.589-21,11.25  C459.947,412.669,470.42,409.291,471.5,398.14z"/>
<path fill-rule="evenodd" clip-rule="evenodd" fill="#303030" d="M452,400.39c1.841,2.274,5.43,1.644,5.25,10.5  c0.07,0.151-2.037-1.073-2.25-0.75C456.167,404.165,453.929,405.354,452,400.39z"/>
<path fill-rule="evenodd" clip-rule="evenodd" fill="#303030" d="M456.5,391.39c2.188,2.157,2.118,6.126,4.5,3  C459.588,394.832,458.451,393.313,456.5,391.39z"/>
<path fill-rule="evenodd" clip-rule="evenodd" fill="#303030" d="M458.75,401.89c-0.52,5.359,1.097,7.979-3,9  c2.402-0.604,3.473-0.92,5.25-3C460.807,408.442,458.746,402.551,458.75,401.89z"/>
<path fill-rule="evenodd" clip-rule="evenodd" fill="#BFBFC0" d="M471.5,398.14L471.5,398.14z"/>
<path fill-rule="evenodd" clip-rule="evenodd" fill="#8F9290" d="M448.25,401.14C448.127,402.657,449.02,391.622,448.25,401.14  L448.25,401.14z"/>
<path fill-rule="evenodd" clip-rule="evenodd" fill="#303030" d="M450.5,406.39C452.238,408.872,450.719,406.702,450.5,406.39  L450.5,406.39z"/>
<path fill-rule="evenodd" clip-rule="evenodd" fill="#8F9290" d="M454.25,392.14c-2.166,9.766,3.39,20.133,14.25,15.75  C482.749,402.139,467.129,385.191,454.25,392.14z"/>
<path fill-rule="evenodd" clip-rule="evenodd" fill="#303030" d="M467.75,407.14c0.893-3.899-2.093-6.691,6-10.5  C470.265,401.35,470.312,402.767,467.75,407.14z"/>
<path fill-rule="evenodd" clip-rule="evenodd" fill="#303030" d="M458.75,407.89c0.455-2.673,3.085-4.194,0-6  C459.706,403.931,459.089,405.9,458.75,407.89z"/>
<path fill-rule="evenodd" clip-rule="evenodd" fill="#303030" d="M465.5,400.39c2.446-2.001,2.536-4.47,6.75-3.75  c-0.417-0.658,0.539,0.105,1.5,0.75C466.521,392.333,468.608,397.847,465.5,400.39z"/>
<path fill-rule="evenodd" clip-rule="evenodd" fill="#BFBFC0" d="M454.25,392.14L454.25,392.14z"/>
<path fill-rule="evenodd" clip-rule="evenodd" fill="#8F9290" d="M470,409.39c3.377-1.786-2.544-0.158-4.5,1.5  C469.229,413.891,467.919,410.49,470,409.39z"/>
<path fill-rule="evenodd" clip-rule="evenodd" fill="#303030" d="M473,404.89C473.479,402.129,473.317,403.062,473,404.89  L473,404.89z"/>
<path fill-rule="evenodd" clip-rule="evenodd" fill="#8F9290" d="M472.25,391.39c-7.211-8.809-17.59-8.486-21,1.5  C446.041,408.144,470.602,406.698,472.25,391.39z"/>
<path fill-rule="evenodd" clip-rule="evenodd" fill="#303030" d="M453.5,393.64c1.775,2.523,5.837,1.317,4.5,10.5  C456.636,400.019,454.999,396.746,453.5,393.64z"/>
<path fill-rule="evenodd" clip-rule="evenodd" fill="#303030" d="M458,383.89c2.066,2.253,1.371,5.005,4.5,3.75  c-1.03-0.677-1.03-0.927,0-0.75C459.817,387.579,459.703,385.748,458,383.89z"/>
<path fill-rule="evenodd" clip-rule="evenodd" fill="#303030" d="M460.25,395.14c-0.361,3.603,1.792,5.332-1.5,8.25  c0.452,0.122,0.353,0.289-1.5,0.75c2.268-0.575,3.646-1.16,5.25-3C462.297,401.67,460.243,395.76,460.25,395.14z"/>
<path fill-rule="evenodd" clip-rule="evenodd" fill="#BFBFC0" d="M472.25,391.39L472.25,391.39z"/>
<path fill-rule="evenodd" clip-rule="evenodd" fill="#8F9290" d="M449.75,393.64c-0.26,2.38,1.831-1.886,0.75-5.25  C447.086,390.679,450.023,391.135,449.75,393.64z"/>
<path fill-rule="evenodd" clip-rule="evenodd" fill="#303030" d="M452,398.14C453.438,402.167,452.427,399.335,452,398.14  L452,398.14z"/>
<path fill-rule="evenodd" clip-rule="evenodd" fill="#8F9290" d="M458.75,369.64c-5.913-7.98-16.648-9.326-21,0  C430.872,384.378,456.066,385.445,458.75,369.64z"/>
<path fill-rule="evenodd" clip-rule="evenodd" fill="#303030" d="M440,370.39c2.201,3.172,5.698,1.85,4.5,11.25  C443.007,376.1,442.35,376.598,440,370.39z"/>
<path fill-rule="evenodd" clip-rule="evenodd" fill="#303030" d="M443.75,362.14c2.188,2.157,2.118,6.126,4.5,3  C446.838,365.582,445.701,364.063,443.75,362.14z"/>
<path fill-rule="evenodd" clip-rule="evenodd" fill="#303030" d="M446,372.64c0.088,5.297,0.82,8.035-3,9  C451.552,379.591,446.094,377.441,446,372.64z"/>
<path fill-rule="evenodd" clip-rule="evenodd" fill="#BFBFC0" d="M458.75,368.14C458.75,369.14,458.75,369.14,458.75,368.14  L458.75,368.14z"/>
<path fill-rule="evenodd" clip-rule="evenodd" fill="#8F9290" d="M436.25,371.14C436.338,374.959,436.041,362.016,436.25,371.14  L436.25,371.14z"/>
<path fill-rule="evenodd" clip-rule="evenodd" fill="#303030" d="M437.75,376.39C439.488,378.872,437.969,376.702,437.75,376.39  L437.75,376.39z"/>
<path fill-rule="evenodd" clip-rule="evenodd" fill="#8F9290" d="M442.25,362.89c-3.058,9.246,2.313,21.458,13.5,16.5  C470.076,373.04,454.417,356.213,442.25,362.89z"/>
<path fill-rule="evenodd" clip-rule="evenodd" fill="#303030" d="M454.25,377.89c1.253-3.257-0.656-6.514,6-10.5  c-0.25,0.75,0,1,0.75,0.75C455.744,372.694,457.881,372.715,454.25,377.89z"/>
<path fill-rule="evenodd" clip-rule="evenodd" fill="#303030" d="M446,378.64c0.428-2.946,2.732-4.359,0-6  C446.635,374.986,446.283,376.692,446,378.64z"/>
<path fill-rule="evenodd" clip-rule="evenodd" fill="#303030" d="M452.75,371.14c2.26-1.821,2.934-4.267,6.75-3.75  c-0.397-0.642,0.527,0.093,1.5,0.75C453.659,363.03,455.913,368.592,452.75,371.14z"/>
<path fill-rule="evenodd" clip-rule="evenodd" fill="#BFBFC0" d="M442.25,362.89C441.25,362.89,441.25,362.89,442.25,362.89  L442.25,362.89z"/>
<path fill-rule="evenodd" clip-rule="evenodd" fill="#8F9290" d="M457.25,380.14C459.561,378.666,449.137,385.318,457.25,380.14  L457.25,380.14z"/>
<path fill-rule="evenodd" clip-rule="evenodd" fill="#303030" d="M460.25,374.89C461.016,371.567,460.457,373.992,460.25,374.89  L460.25,374.89z"/>
<path fill-rule="evenodd" clip-rule="evenodd" fill="#8F9290" d="M459.5,362.14c-11.828-15.34-22.729-0.194-21,10.5  C447.96,377.078,458.358,373.632,459.5,362.14z"/>
<path fill-rule="evenodd" clip-rule="evenodd" fill="#303030" d="M440.75,363.64c1.902,2.59,5.924,1.176,4.5,10.5  c-0.323-0.677-0.823-0.927-1.5-0.75C444.46,367.958,442.497,367.862,440.75,363.64z"/>
<path fill-rule="evenodd" clip-rule="evenodd" fill="#303030" d="M445.25,355.39c1.768,1.679,1.478,4.396,4.5,3  c-1.137-0.135-0.73-1.243-0.75,0C447.336,357.625,445.54,355.666,445.25,355.39z"/>
<path fill-rule="evenodd" clip-rule="evenodd" fill="#303030" d="M447.5,365.89c0.088,5.297,0.82,8.035-3,9  C453.052,372.841,447.594,370.691,447.5,365.89z"/>
<path fill-rule="evenodd" clip-rule="evenodd" fill="#BFBFC0" d="M459.5,361.39C460.5,361.39,460.5,361.39,459.5,361.39  L459.5,361.39z"/>
<path fill-rule="evenodd" clip-rule="evenodd" fill="#8F9290" d="M437,364.39c0.027,3.31,1.352-3.064,0.75-5.25  C433.399,361.05,436.978,361.685,437,364.39z"/>
<path fill-rule="evenodd" clip-rule="evenodd" fill="#303030" d="M439.25,369.64C440.78,371.617,439.428,369.87,439.25,369.64  L439.25,369.64z"/>
<path fill-rule="evenodd" clip-rule="evenodd" fill="#8F9290" d="M447.5,381.64c-7.564-9.201-17.064-7.861-21,1.5  C420.439,397.558,445.688,397.795,447.5,381.64z"/>
<path fill-rule="evenodd" clip-rule="evenodd" fill="#303030" d="M428.75,383.89c1.772,2.536,5.757,1.327,4.5,10.5  C431.887,390.269,430.243,386.997,428.75,383.89z"/>
<path fill-rule="evenodd" clip-rule="evenodd" fill="#303030" d="M432.5,374.89c1.969,1.731,1.593,4.052,4.5,3  c-1.03,0.177-1.03-0.073,0-0.75C434.259,377.431,433.721,375.963,432.5,374.89z"/>
<path fill-rule="evenodd" clip-rule="evenodd" fill="#303030" d="M434.75,385.39c-0.533,5.358,1.104,7.978-3,9  c2.408-0.586,3.478-0.926,5.25-3C436.797,391.919,434.743,386.01,434.75,385.39z"/>
<path fill-rule="evenodd" clip-rule="evenodd" fill="#BFBFC0" d="M447.5,380.89L447.5,380.89z"/>
<path fill-rule="evenodd" clip-rule="evenodd" fill="#8F9290" d="M424.25,383.89c-0.26,2.38,1.831-1.886,0.75-5.25  C421.586,380.929,424.523,381.385,424.25,383.89z"/>
<path fill-rule="evenodd" clip-rule="evenodd" fill="#303030" d="M426.5,389.14C428.238,391.622,426.719,389.452,426.5,389.14  L426.5,389.14z"/>
<path fill-rule="evenodd" clip-rule="evenodd" fill="#8F9290" d="M431,375.64c-3.154,10.332,2.79,20.031,13.5,15.75  C458.476,385.805,443.688,368.288,431,375.64z"/>
<path fill-rule="evenodd" clip-rule="evenodd" fill="#303030" d="M443.75,390.64c1.009-3.89-1.794-6.581,6-10.5  C446.442,384.758,446.379,386.184,443.75,390.64z"/>
<path fill-rule="evenodd" clip-rule="evenodd" fill="#303030" d="M434,391.39c0.462-2.423,2.489-3.454,0.75-6  c0.048,1.486-1.664,0.963-0.75,0.75C435.617,388.956,434.377,389.416,434,391.39z"/>
<path fill-rule="evenodd" clip-rule="evenodd" fill="#303030" d="M441.5,383.89c2.416-2.049,2.561-4.466,6.75-3.75  c-0.354-0.624,0.374-0.029,1.5,0.75C442.665,375.504,444.697,381.178,441.5,383.89z"/>
<path fill-rule="evenodd" clip-rule="evenodd" fill="#BFBFC0" d="M431,375.64C430,375.64,430,375.64,431,375.64L431,375.64z"/>
<path fill-rule="evenodd" clip-rule="evenodd" fill="#8F9290" d="M446,392.89c2.453-1.106-1.646-1.376-4.5,1.5  C445.303,397.45,443.886,393.843,446,392.89z"/>
<path fill-rule="evenodd" clip-rule="evenodd" fill="#303030" d="M449,387.64C449.479,384.879,449.317,385.812,449,387.64  L449,387.64z"/>
<path fill-rule="evenodd" clip-rule="evenodd" fill="#8F9290" d="M448.25,374.89c-6.338-8.161-16.581-8.956-21,0  C419.961,389.662,446.798,392.046,448.25,374.89z"/>
<path fill-rule="evenodd" clip-rule="evenodd" fill="#303030" d="M429.5,375.64c2.091,3.237,5.759,2.161,4.5,11.25  C432.447,380.729,431.896,381.729,429.5,375.64z"/>
<path fill-rule="evenodd" clip-rule="evenodd" fill="#303030" d="M434,367.39c2.096,2.204,1.532,4.855,4.5,3.75  c-1.03-0.677-1.03-0.927,0-0.75C436.041,370.793,435.718,369.197,434,367.39z"/>
<path fill-rule="evenodd" clip-rule="evenodd" fill="#303030" d="M436.25,377.89c-0.324,3.675,1.654,5.198-1.5,8.25  c-0.659-0.181,1.908-0.183-1.5,0.75C441.863,384.766,436.269,382.782,436.25,377.89z"/>
<path fill-rule="evenodd" clip-rule="evenodd" fill="#BFBFC0" d="M448.25,374.14L448.25,374.14z"/>
<path fill-rule="evenodd" clip-rule="evenodd" fill="#8F9290" d="M425.75,376.39C425.838,380.209,425.541,367.266,425.75,376.39  L425.75,376.39z"/>
<path fill-rule="evenodd" clip-rule="evenodd" fill="#303030" d="M428,382.39C428.729,387.205,427.738,380.659,428,382.39  L428,382.39z"/>
<path fill-rule="evenodd" clip-rule="evenodd" fill="#8F9290" d="M441.5,369.64c-6.352-8.377-18.021-9.658-21,1.5  C416.44,386.345,439.433,383.474,441.5,369.64z"/>
<path fill-rule="evenodd" clip-rule="evenodd" fill="#303030" d="M422,370.39c2.169,3.255,5.688,2.15,5.25,11.25  C425.053,377.481,424.08,376.125,422,370.39z"/>
<path fill-rule="evenodd" clip-rule="evenodd" fill="#303030" d="M427.25,362.14c2.188,2.157,2.118,6.126,4.5,3  C430.338,365.582,429.201,364.063,427.25,362.14z"/>
<path fill-rule="evenodd" clip-rule="evenodd" fill="#303030" d="M428.75,372.64c-0.52,5.359,1.097,7.979-3,9  c2.402-0.604,3.473-0.92,5.25-3C430.807,379.192,428.746,373.301,428.75,372.64z"/>
<path fill-rule="evenodd" clip-rule="evenodd" fill="#BFBFC0" d="M441.5,368.14C441.5,369.14,441.5,369.14,441.5,368.14  L441.5,368.14z"/>
<path fill-rule="evenodd" clip-rule="evenodd" fill="#8F9290" d="M419,371.14C418.477,373.796,420.601,363.02,419,371.14L419,371.14  z"/>
<path fill-rule="evenodd" clip-rule="evenodd" fill="#303030" d="M421.25,376.39C422.988,378.872,421.469,376.702,421.25,376.39  L421.25,376.39z"/>
<path fill-rule="evenodd" clip-rule="evenodd" fill="#8F9290" d="M425,362.89c-3.218,9.591,2.375,21.034,13.5,16.5  C452.726,373.593,437.426,356.046,425,362.89z"/>
<path fill-rule="evenodd" clip-rule="evenodd" fill="#303030" d="M437.75,377.89c0.895-3.788-1.804-6.044,5.25-10.5  C440.944,371.635,440.014,374.045,437.75,377.89z"/>
<path fill-rule="evenodd" clip-rule="evenodd" fill="#303030" d="M428.75,378.64c0.547-2.867,3.226-4.783,0-6  C430.215,374.947,429.228,376.133,428.75,378.64z"/>
<path fill-rule="evenodd" clip-rule="evenodd" fill="#303030" d="M435.5,371.14c2.446-2.001,2.536-4.47,6.75-3.75  c-0.417-0.658,0.539,0.105,1.5,0.75C436.521,363.083,438.608,368.597,435.5,371.14z"/>
<path fill-rule="evenodd" clip-rule="evenodd" fill="#BFBFC0" d="M425,362.89C426,362.89,426,362.89,425,362.89L425,362.89z"/>
<path fill-rule="evenodd" clip-rule="evenodd" fill="#8F9290" d="M440,380.14C442.311,378.666,431.887,385.318,440,380.14  L440,380.14z"/>
<path fill-rule="evenodd" clip-rule="evenodd" fill="#303030" d="M443.75,374.89C444.516,371.567,443.957,373.992,443.75,374.89  L443.75,374.89z"/>
<path fill-rule="evenodd" clip-rule="evenodd" fill="#8F9290" d="M443,362.14c-6.111-7.849-16.784-8.787-21,0  C414.671,377.415,441.096,379.468,443,362.14z"/>
<path fill-rule="evenodd" clip-rule="evenodd" fill="#303030" d="M424.25,363.64c1.697,2.522,5.838,1.31,4.5,10.5  c-0.323-0.677-0.823-0.927-1.5-0.75C427.95,368.031,426.117,367.784,424.25,363.64z"/>
<path fill-rule="evenodd" clip-rule="evenodd" fill="#303030" d="M428,355.39c2.511,2.209,3.204,5.327,4.5,2.25  C429.76,357.931,429.22,356.463,428,355.39z"/>
<path fill-rule="evenodd" clip-rule="evenodd" fill="#303030" d="M430.25,365.89c0.069,5.298,0.831,8.032-3,9  c2.372-0.561,3.554-0.893,5.25-3C432.281,372.454,430.262,366.651,430.25,365.89z"/>
<path fill-rule="evenodd" clip-rule="evenodd" fill="#BFBFC0" d="M443,361.39L443,361.39z"/>
<path fill-rule="evenodd" clip-rule="evenodd" fill="#8F9290" d="M420.5,364.39c-0.26,2.38,1.831-1.886,0.75-5.25  C417.836,361.429,420.773,361.885,420.5,364.39z"/>
<path fill-rule="evenodd" clip-rule="evenodd" fill="#303030" d="M422,369.64C423.738,372.122,422.219,369.952,422,369.64  L422,369.64z"/>
<path fill-rule="evenodd" clip-rule="evenodd" fill="#8F9290" d="M509.75,369.64c-8.532-13.182-29.33-11.541-24.75,9  C487.626,390.417,512.366,389.456,509.75,369.64z"/>
<path fill-rule="evenodd" clip-rule="evenodd" fill="#303030" d="M486.5,372.64c2.586,0.623,3.269,4.75,3-0.75  c1.253,6.502,3.199,9.238,2.25,15.75C490.287,379.904,488.501,380.213,486.5,372.64z"/>
<path fill-rule="evenodd" clip-rule="evenodd" fill="#303030" d="M492.5,360.64c2.413,2.979,1.938,7.281,5.25,4.5c-1,0-1,0,0,0  C494.27,364.918,494.322,362.891,492.5,360.64z"/>
<path fill-rule="evenodd" clip-rule="evenodd" fill="#303030" d="M494.75,374.89c-1.205,5.125,2.187,7.356-2.25,12  c-0.647-0.098,1.839-0.486-1.5,0.75C501.041,384.557,495.188,381.892,494.75,374.89z"/>
<path fill-rule="evenodd" clip-rule="evenodd" fill="#BFBFC0" d="M509.75,369.64L509.75,369.64z"/>
<path fill-rule="evenodd" clip-rule="evenodd" fill="#8F9290" d="M482,372.64c-0.662,2.696,2.764-1.657,1.5-6.75  C478.619,368.21,482.867,369.108,482,372.64z"/>
<path fill-rule="evenodd" clip-rule="evenodd" fill="#303030" d="M485,380.89C485.296,386.571,484.917,379.295,485,380.89  L485,380.89z"/>
<path fill-rule="evenodd" clip-rule="evenodd" fill="#8F9290" d="M489.5,362.14c-3.169,12.116,1.734,22.268,12.75,26.25  c5.438-4.447,10.862-9.027,12.75-11.25C514.421,365.495,500.352,350.535,489.5,362.14z"/>
<path fill-rule="evenodd" clip-rule="evenodd" fill="#303030" d="M504.5,382.39c-0.355-2.837,1.653-5.021-2.25-3  c3.886-4.956,4.007-7.968,9.75-12c-0.177,0.677,0.073,1.177,0.75,1.5C506.739,374.937,508.506,375.848,504.5,382.39z"/>
<path fill-rule="evenodd" clip-rule="evenodd" fill="#303030" d="M493.25,383.89c0.796-3.807,3.742-4.693,0.75-8.25  C494.529,378.023,493.811,381.212,493.25,383.89z"/>
<path fill-rule="evenodd" clip-rule="evenodd" fill="#303030" d="M502.25,373.39c4.97-2.478,2.855-7.002,9.75-5.25  c-1.233-2.172,1.29,1.439,0.75,0.75C504.332,362.042,506.433,369.742,502.25,373.39z"/>
<path fill-rule="evenodd" clip-rule="evenodd" fill="#BFBFC0" d="M489.5,362.14C490.104,361.537,490.104,361.537,489.5,362.14  L489.5,362.14z"/>
<path fill-rule="evenodd" clip-rule="evenodd" fill="#8F9290" d="M508.25,384.64c3.287-1.896-3.145-0.909-6,3  C507.584,391.429,505.401,386.283,508.25,384.64z"/>
<path fill-rule="evenodd" clip-rule="evenodd" fill="#303030" d="M512,378.64C516.45,374.831,511.216,379.311,512,378.64L512,378.64  z"/>
<path fill-rule="evenodd" clip-rule="evenodd" fill="#8F9290" d="M511.25,359.89c-8.645-13.095-28.566-11.875-24.75,9  C488.668,380.748,512.788,380.351,511.25,359.89z"/>
<path fill-rule="evenodd" clip-rule="evenodd" fill="#303030" d="M488,362.14c2.123,1.344,2.869,4.826,3,0  c1.096,5.978,3.439,9.496,3,15.75C491.019,371.148,490.185,370.019,488,362.14z"/>
<path fill-rule="evenodd" clip-rule="evenodd" fill="#303030" d="M494,351.64c2.493,2.552,2.252,6.574,5.25,3.75c-1,0-1,0,0,0  C496.393,354.625,494.896,352.557,494,351.64z"/>
<path fill-rule="evenodd" clip-rule="evenodd" fill="#303030" d="M496.25,365.89c-1.584,7.382,2.128,10.705-3.75,12  c3.173-0.906,4.115-1.594,6-4.5C498.947,373.087,496.407,368.671,496.25,365.89z"/>
<path fill-rule="evenodd" clip-rule="evenodd" fill="#BFBFC0" d="M511.25,359.89C512.25,359.89,512.25,359.89,511.25,359.89  L511.25,359.89z"/>
<path fill-rule="evenodd" clip-rule="evenodd" fill="#8F9290" d="M483.5,362.89c-0.643,2.824,2.742-1.743,1.5-6.75  C479.887,358.535,484.251,359.588,483.5,362.89z"/>
<path fill-rule="evenodd" clip-rule="evenodd" fill="#303030" d="M485.75,371.14C485.234,377.533,485.938,368.821,485.75,371.14  L485.75,371.14z"/>
<path fill-rule="evenodd" clip-rule="evenodd" fill="#8F9290" d="M495.5,386.89c-6.043-9.982-16.598-10.418-25.5-3.75  C467.45,412.829,498.768,406.49,495.5,386.89z"/>
<path fill-rule="evenodd" clip-rule="evenodd" fill="#303030" d="M473,389.89c4.413,2.197,7.07,5.094,5.25,15  C476.353,398.429,474.341,396.351,473,389.89z"/>
<path fill-rule="evenodd" clip-rule="evenodd" fill="#303030" d="M479,377.89c2.412,2.959,2.055,7.242,5.25,4.5c-1,0-1,0,0,0  C480.736,381.953,480.961,380.294,479,377.89z"/>
<path fill-rule="evenodd" clip-rule="evenodd" fill="#303030" d="M480.5,392.14c-1.297,5.178,2.729,7.399-2.25,12  c0.15,0.028,2.783-0.223-1.5,0.75c3.44-0.992,4.709-1.738,6.75-4.5C483.434,400.505,481.275,394.674,480.5,392.14z"/>
<path fill-rule="evenodd" clip-rule="evenodd" fill="#BFBFC0" d="M495.5,386.89C496.5,386.89,496.5,386.89,495.5,386.89  L495.5,386.89z"/>
<path fill-rule="evenodd" clip-rule="evenodd" fill="#8F9290" d="M468.5,390.64c-0.637,3.976,2.144-3.062,1.5-6.75  C464.985,386.239,469.018,387.41,468.5,390.64z"/>
<path fill-rule="evenodd" clip-rule="evenodd" fill="#303030" d="M470.75,397.39C469.982,405.438,470.977,395.013,470.75,397.39  L470.75,397.39z"/>
<path fill-rule="evenodd" clip-rule="evenodd" fill="#8F9290" d="M476,378.64c-4.119,13.292,4.783,30.57,18.75,21  C509.276,389.687,489.452,366.542,476,378.64z"/>
<path fill-rule="evenodd" clip-rule="evenodd" fill="#303030" d="M491,399.64c-0.397-2.844,1.713-4.639-2.25-3  c3.719-4.972,3.861-7.392,9.75-11.25c-0.177,0.677,0.073,1.177,0.75,1.5C493.096,392.339,495.557,393.548,491,399.64z"/>
<path fill-rule="evenodd" clip-rule="evenodd" fill="#303030" d="M479.75,401.14c0.504-4.043,3.608-5.594,0-8.25  c0.73,1.663-0.735,0.905,0,0.75C481.146,396.741,480.076,398.523,479.75,401.14z"/>
<path fill-rule="evenodd" clip-rule="evenodd" fill="#303030" d="M489.5,390.64c5.733-3.269,5.803-8.574,10.5-4.5  C491.653,379.048,493.577,385.614,489.5,390.64z"/>
<path fill-rule="evenodd" clip-rule="evenodd" fill="#BFBFC0" d="M476,379.39L476,379.39z"/>
<path fill-rule="evenodd" clip-rule="evenodd" fill="#8F9290" d="M494.75,402.64c3.098-1.629-3.009-1.095-6,3  C493.894,409.031,491.546,404.325,494.75,402.64z"/>
<path fill-rule="evenodd" clip-rule="evenodd" fill="#303030" d="M497.75,396.64C499.913,392.63,498.347,395.535,497.75,396.64  L497.75,396.64z"/>
<path fill-rule="evenodd" clip-rule="evenodd" fill="#8F9290" d="M497,377.89c-5.896-10.012-16.459-10.203-25.5-3.75  C468.71,403.604,500.23,397.967,497,377.89z"/>
<path fill-rule="evenodd" clip-rule="evenodd" fill="#303030" d="M474.5,380.14c3.998,2.469,6.931,4.071,5.25,15  C478.014,388.704,475.825,386.577,474.5,380.14z"/>
<path fill-rule="evenodd" clip-rule="evenodd" fill="#303030" d="M480.5,368.14c2.383,3.022,1.661,7.429,5.25,4.5c-1,0-1,0,0,0  C481.926,372.284,482.381,370.526,480.5,368.14z"/>
<path fill-rule="evenodd" clip-rule="evenodd" fill="#303030" d="M482.75,383.14c-1.297,5.178,2.729,7.399-2.25,12  c-0.269-0.067,3.08-0.29-1.5,0.75c3.454-0.871,4.742-1.784,6.75-4.5C485.626,391.561,483.65,386.312,482.75,383.14z"/>
<path fill-rule="evenodd" clip-rule="evenodd" fill="#BFBFC0" d="M497,377.89C498,377.89,498,377.89,497,377.89L497,377.89z"/>
<path fill-rule="evenodd" clip-rule="evenodd" fill="#8F9290" d="M470,380.89c-0.633,4.528,1.844-3.66,1.5-6.75  C466.588,376.456,470.435,377.778,470,380.89z"/>
<path fill-rule="evenodd" clip-rule="evenodd" fill="#303030" d="M472.25,387.64C471.482,395.688,472.477,385.263,472.25,387.64  L472.25,387.64z"/>
<path fill-rule="evenodd" clip-rule="evenodd" fill="#8F9290" d="M488.75,369.64c-8.922-14.036-30.012-10.358-24.75,10.5  C466.571,390.331,491.74,388.868,488.75,369.64z"/>
<path fill-rule="evenodd" clip-rule="evenodd" fill="#303030" d="M465.5,372.64c2.474,0.995,2.55,4.436,3-0.75  c1.446,6.337,3.101,8.31,2.25,15.75C468.905,381.188,466.832,379.35,465.5,372.64z"/>
<path fill-rule="evenodd" clip-rule="evenodd" fill="#303030" d="M471.5,360.64c2.257,2.939,1.574,7.323,5.25,4.5c-1,0-1,0,0,0  C472.346,365.337,473.54,363.298,471.5,360.64z"/>
<path fill-rule="evenodd" clip-rule="evenodd" fill="#303030" d="M473.75,374.89c-1.297,5.178,2.729,7.399-2.25,12  c-0.269-0.067,3.08-0.29-1.5,0.75c3.454-0.871,4.742-1.784,6.75-4.5C476.626,383.311,474.65,378.062,473.75,374.89z"/>
<path fill-rule="evenodd" clip-rule="evenodd" fill="#BFBFC0" d="M488.75,369.64C489.75,369.64,489.75,369.64,488.75,369.64  L488.75,369.64z"/>
<path fill-rule="evenodd" clip-rule="evenodd" fill="#8F9290" d="M461.75,372.64c-0.633,4.528,1.844-3.66,1.5-6.75  C458.338,368.206,462.185,369.528,461.75,372.64z"/>
<path fill-rule="evenodd" clip-rule="evenodd" fill="#303030" d="M463.25,380.89C465.303,383.656,463.981,381.876,463.25,380.89  L463.25,380.89z"/>
<path fill-rule="evenodd" clip-rule="evenodd" fill="#8F9290" d="M469.25,362.14c-3.692,11.848,1.356,22.229,12.75,26.25  C503.01,372.918,482.53,348.195,469.25,362.14z"/>
<path fill-rule="evenodd" clip-rule="evenodd" fill="#303030" d="M485,382.39c-0.522-2.672,1.912-5.246-2.25-3  c3.664-5.349,3.812-8.196,9-12C489.391,373.249,488.273,377.024,485,382.39z"/>
<path fill-rule="evenodd" clip-rule="evenodd" fill="#303030" d="M473,383.89c0.72-3.829,3.771-4.659,0.75-8.25  c0.154,0.549-0.131,1.176-0.75,1.5C475.281,379.881,473.518,381.136,473,383.89z"/>
<path fill-rule="evenodd" clip-rule="evenodd" fill="#303030" d="M482.75,373.39c4.473-2.496,2.654-6.792,9-5.25  c-1.019-2,1.141,1.273,0.75,0.75C484.585,361.641,486.85,369.3,482.75,373.39z"/>
<path fill-rule="evenodd" clip-rule="evenodd" fill="#BFBFC0" d="M468.5,362.14C468.5,361.14,468.5,361.14,468.5,362.14  L468.5,362.14z"/>
<path fill-rule="evenodd" clip-rule="evenodd" fill="#8F9290" d="M488,384.64c3.198-1.766-3.079-0.998-6,3  C486.889,391.482,484.807,386.403,488,384.64z"/>
<path fill-rule="evenodd" clip-rule="evenodd" fill="#303030" d="M491,378.64C493.115,374.767,491.112,378.435,491,378.64  L491,378.64z"/>
<path fill-rule="evenodd" clip-rule="evenodd" fill="#8F9290" d="M490.25,359.89c-13.689-22.432-25.718,1.744-25.5,14.25  C475.39,381.488,492.487,375.124,490.25,359.89z"/>
<path fill-rule="evenodd" clip-rule="evenodd" fill="#303030" d="M467,362.14c2.529,1.16,2.804,4.902,3.75,0  c1.225,6.389,3.303,8.574,2.25,15.75C470.842,370.587,469.021,369.812,467,362.14z"/>
<path fill-rule="evenodd" clip-rule="evenodd" fill="#303030" d="M473.75,351.64c2.37,2.583,1.708,6.81,5.25,3.75c-1,0-1,0,0,0  C474.992,354.974,475.159,353.177,473.75,351.64z"/>
<path fill-rule="evenodd" clip-rule="evenodd" fill="#303030" d="M476,365.89c-1.718,7.129,2.219,10.491-3.75,12  C481.755,375.203,477.801,372.329,476,365.89z"/>
<path fill-rule="evenodd" clip-rule="evenodd" fill="#BFBFC0" d="M490.25,359.89C491.25,359.89,491.25,359.89,490.25,359.89  L490.25,359.89z"/>
<path fill-rule="evenodd" clip-rule="evenodd" fill="#8F9290" d="M463.25,362.89c-0.633,4.528,1.844-3.66,1.5-6.75  C459.838,358.456,463.685,359.778,463.25,362.89z"/>
<path fill-rule="evenodd" clip-rule="evenodd" fill="#303030" d="M464.75,371.14C466.696,374.48,464.978,371.53,464.75,371.14  L464.75,371.14z"/>
<path fill-rule="evenodd" clip-rule="evenodd" fill="#8F9290" d="M419.75,411.64c-15.134-9.289-56.661-6.203-68.625,9.75  c-0.98,1.307-9.098,40.096-13.875,34.125c9.086,11.358,18.699,32.387,30.75,28.125c-8.32,27.286,33.965,13.162,45,2.25  C431.236,467.856,445.818,427.053,419.75,411.64z"/>
<path fill-rule="evenodd" clip-rule="evenodd" fill="#303030" d="M353,462.64c4.835,1.456,8.171-0.115,12,3.75  c-1.885-3.484-1.502-7.402-3-10.5c7.213,6.824,19.191,5.839,24.375,12.75c5.727,7.636,2.486,14.759,10.875,21.75  c0,0.75,0,1.5,0,2.25c-12.68,1.84-20.109-6.199-18-18.75c-0.25,1.75-0.5,3.5-0.75,5.25C370.162,467.211,362.246,472.458,353,462.64z  "/>
<path fill-rule="evenodd" clip-rule="evenodd" fill="#303030" d="M350.75,423.64c8.867,9.159,22.092,13.649,26.25,0.75  C372.813,429.737,358.612,428.771,350.75,423.64z"/>
<path fill-rule="evenodd" clip-rule="evenodd" fill="#303030" d="M382.25,456.64c11.927,7.713,21.12,21.009,14.25,35.25  c-0.689-0.236,0.869-6.849,0.75-7.5c-1.27,4.132-2.031,7.342-3.75,11.25c9.123-5.977,12.987-14.579,11.25-25.5  c0.198,1.694-0.016,5.265-0.75,6.75C403.251,464.42,395.67,452.32,382.25,456.64z"/>
<path fill-rule="evenodd" clip-rule="evenodd" fill="#BFBFC0" d="M419,411.64C420,410.64,420,410.64,419,411.64L419,411.64z"/>
<path fill-rule="evenodd" clip-rule="evenodd" fill="#303030" d="M342.5,473.89c3.982,1.127,5.769-0.68,9,3  c-4.111-8.963-10.047-17.123-17.25-24C328.026,463.023,331.391,470.087,342.5,473.89z"/>
<path fill-rule="evenodd" clip-rule="evenodd" fill="#303030" d="M363.5,487.39c0.843,5.544-0.794,8.477,4.5,12  c1.023-4.665,0.631-10.978,0.75-15.75C365.241,482.742,366.46,486.605,363.5,487.39z"/>
<path fill-rule="evenodd" clip-rule="evenodd" fill="#8F9290" d="M345.5,431.14c2.132,13.561,11.815,35.719,29.25,38.625  c9.739,1.623,12.089,9.584,23.25,10.875c9.989,1.155,14.908-12.998,31.5-6c-0.248-15.584,9.251-27.608,11.25-42.75  c-2.515-0.424-4.422,0.421-6.75-0.75c27.443-10.177-12.339-38.741-28.5-37.125C379.058,396.659,343.027,396.965,345.5,431.14z"/>
<path fill-rule="evenodd" clip-rule="evenodd" fill="#303030" d="M427.25,454.39c-1.909-4.298-4.834-6.903-5.25-12  c-1.505,4.117-4.233,5.595-6,9c1.609-10.689-5.236-16.802-3.75-26.25c1.229-7.81,10.672-16.004,12.75-24  c7.879,8.127,7.464,19.001-3.75,24.75c1.25-0.5,2.5-1,3.75-1.5C421.138,436.759,426.187,440.754,427.25,454.39z"/>
<path fill-rule="evenodd" clip-rule="evenodd" fill="#303030" d="M396.5,479.89c1.52-12.685-2.328-25.722-14.25-21.75  c1.257,0.104,3.261,1.127,3,3C387.961,460.873,396,471.207,396.5,479.89z"/>
<path fill-rule="evenodd" clip-rule="evenodd" fill="#303030" d="M404,434.89c-1.593-14.665,4.524-28.563,19.5-32.25  c1.279,1.014-5.752,2.764-6,3c3.928-1.304,6.996-2.605,11.25-3c-8.501-3.345-17.866-1.491-26.25,4.5c0.766-0.1,4.785-1.766,5.25-1.5  C397.731,413.466,393.451,426.051,404,434.89z"/>
<path fill-rule="evenodd" clip-rule="evenodd" fill="#BFBFC0" d="M346.25,430.39C345.25,430.39,345.25,430.39,346.25,430.39  L346.25,430.39z"/>
<path fill-rule="evenodd" clip-rule="evenodd" fill="#303030" d="M441.5,455.89c-1.129-2.981-2.181-5.901-3-9  c-4.434,8.379-7.506,17.604-9,27C441.597,473.887,446.484,467.37,441.5,455.89z"/>
<path fill-rule="evenodd" clip-rule="evenodd" fill="#303030" d="M441.5,431.89c3.542-3.726,7.097-3.404,6.75-9.75  C433.234,428.569,436.422,427.311,441.5,431.89z"/>
<path fill-rule="evenodd" clip-rule="evenodd" fill="#8F9290" d="M408.5,383.89c-15.587-8.869-54.974-6.652-67.5,8.25  c0.506-0.602-12.616,32.487-12.75,29.25c0.483,11.63,12.235,25.733,22.5,38.25c2.365-1.369,3.517-2.797,6-3.75  c-8.862,28.576,34.524,11.561,45,0.75C418.979,438.861,434.052,399.28,408.5,383.89z"/>
<path fill-rule="evenodd" clip-rule="evenodd" fill="#303030" d="M341,434.89c6.027,1.758,8.3-1.359,13.5,3.75  c-1.741-3.46-1.563-7.404-3-10.5c6.701,5.462,16.456,5.962,21.75,11.25c7.162,7.153,5.485,16.941,13.5,24  c-11.821,5.062-21.57-4.245-18-17.25c-0.75,1.5-1.5,3-2.25,4.5C357.683,441.62,349.865,443.501,341,434.89z"/>
<path fill-rule="evenodd" clip-rule="evenodd" fill="#303030" d="M338.75,395.14c9.457,9.458,20.439,12.183,26.25,1.5  c1.314-1.017-6.726,0.518-5.25,1.5c-0.474-1.632,0.276-2.382,2.25-2.25C353.797,401.605,345.053,400.126,338.75,395.14z"/>
<path fill-rule="evenodd" clip-rule="evenodd" fill="#303030" d="M370.25,427.39c12.612,6.529,20.93,20.493,14.25,34.5  c-0.224-1.392,0.151-2.642,1.125-3.75c2.409-4.818-2.397,5.555-4.125,7.5c9.315-4.868,13.13-13.372,11.25-24  c0.2,0.9,0.422,5.257,0,6C391.292,434.337,383.604,423.189,370.25,427.39z"/>
<path fill-rule="evenodd" clip-rule="evenodd" fill="#BFBFC0" d="M407,383.89C407.642,383.544,408.644,383.003,407,383.89  L407,383.89z"/>
<path fill-rule="evenodd" clip-rule="evenodd" fill="#303030" d="M329.75,446.14c3.516,1.169,6.975,0.884,10.5,3  c-4.396-8.659-10.249-16.523-17.25-23.25C314.956,435.169,317.14,442.916,329.75,446.14z"/>
<path fill-rule="evenodd" clip-rule="evenodd" fill="#303030" d="M350.75,458.89c1.023,5.776-0.073,8.967,5.25,12  c1.053-5.385,0.034-11.322,0-16.5C352.955,454.892,353.312,457.83,350.75,458.89z"/>
<path fill-rule="evenodd" clip-rule="evenodd" fill="#8F9290" d="M397.25,487.39c-11.917-12.972-44.606-16.066-36.75,13.5  c0.807-1.139,1.807-1.639,3-1.5c-0.847,2.503-2.217,4.969-3,7.5C374.711,513.445,400.754,506.465,397.25,487.39z"/>
<path fill-rule="evenodd" clip-rule="evenodd" fill="#303030" d="M362.75,490.39c3.709-0.31,3.645,5.816,5.25-0.75  c3.893,7.2,4.304,11.539,3.75,20.25C368.23,501.774,368.699,497.848,362.75,490.39z"/>
<path fill-rule="evenodd" clip-rule="evenodd" fill="#303030" d="M371.75,476.89c3.229,2.961,2.8,6.211,7.5,6.75  c-0.25-0.75,0-1,0.75-0.75C376.893,481.61,374.389,479.31,371.75,476.89z"/>
<path fill-rule="evenodd" clip-rule="evenodd" fill="#303030" d="M375.5,494.89c-0.451,6.318,2.711,9.228-3,14.25  c-2.026-2.395,3.657,0.123-2.25,0.75C380.611,507.65,381.973,502.24,375.5,494.89z"/>
<path fill-rule="evenodd" clip-rule="evenodd" fill="#BFBFC0" d="M396.5,488.14L396.5,488.14z"/>
<path fill-rule="evenodd" clip-rule="evenodd" fill="#8F9290" d="M357.5,491.89c-0.978,3.683,4.032-1.142,2.25-8.25  C352.063,486.436,358.367,488.625,357.5,491.89z"/>
<path fill-rule="evenodd" clip-rule="evenodd" fill="#303030" d="M360.5,501.64C363.527,504.57,362.684,503.753,360.5,501.64  L360.5,501.64z"/>
<path fill-rule="evenodd" clip-rule="evenodd" fill="#8F9290" d="M368,476.89c-7.395,21.857,22.164,44.196,29.25,19.5  C414.473,491.178,382.759,459.681,368,476.89z"/>
<path fill-rule="evenodd" clip-rule="evenodd" fill="#303030" d="M389.75,503.14c-2.036-2.294,3.485-7.888-3-3  c3.257-7.752,6.915-11.36,14.25-15C395.676,494.022,394.371,494.871,389.75,503.14z"/>
<path fill-rule="evenodd" clip-rule="evenodd" fill="#303030" d="M374,505.39c1.023-4.419,5.892-7.53,0-9.75  C377.655,499.426,374.976,501.174,374,505.39z"/>
<path fill-rule="evenodd" clip-rule="evenodd" fill="#303030" d="M386,491.14c5.586-2.37,5.827-8.001,13.5-6  c0.059,0.605-1.367-1.598,2.25,0.75c-2.827-2.119-11.982-4.327-8.25-3.75C385.843,482.664,386.796,485.867,386,491.14z"/>
<path fill-rule="evenodd" clip-rule="evenodd" fill="#BFBFC0" d="M367.25,477.64L367.25,477.64z"/>
<path fill-rule="evenodd" clip-rule="evenodd" fill="#8F9290" d="M395,505.39c3.978-2.473-6.093,0.91-9,3.75  C393.692,514.213,391.193,508.01,395,505.39z"/>
<path fill-rule="evenodd" clip-rule="evenodd" fill="#303030" d="M398.75,499.39C400.597,494.175,399.208,498.099,398.75,499.39  L398.75,499.39z"/>
<path fill-rule="evenodd" clip-rule="evenodd" fill="#8F9290" d="M399.5,476.89c-9.949-11.036-24.568-13.896-37.5-5.25  c1.651,13.618-0.08,21.654,6.75,24.75C381.309,502.083,402.674,493.8,399.5,476.89z"/>
<path fill-rule="evenodd" clip-rule="evenodd" fill="#303030" d="M365.75,479.14c2.711,0.048,4.886,6.171,3.75-0.75  c4.593,7.084,5.3,13.003,5.25,19.5C370.4,491.847,370.017,487.451,365.75,479.14z"/>
<path fill-rule="evenodd" clip-rule="evenodd" fill="#303030" d="M374,464.89c3.64,3.387,2.958,7.456,8.25,6  c-1,0.25-1.25-0.25-0.75-1.5C378.132,471.593,377.384,468.039,374,464.89z"/>
<path fill-rule="evenodd" clip-rule="evenodd" fill="#303030" d="M377.75,482.14c-0.391,6.445,2.553,9.38-3,14.25  c-1.849-2.03,4.177,0.205-2.25,0.75C382.842,494.875,384.242,489.488,377.75,482.14z"/>
<path fill-rule="evenodd" clip-rule="evenodd" fill="#BFBFC0" d="M398.75,476.14L398.75,476.14z"/>
<path fill-rule="evenodd" clip-rule="evenodd" fill="#8F9290" d="M359.75,479.89c-0.612,1.18,4.581,0.477,2.25-9  C354.573,474.074,360.819,476.462,359.75,479.89z"/>
<path fill-rule="evenodd" clip-rule="evenodd" fill="#303030" d="M362.75,487.39C366.275,493.149,364.206,489.768,362.75,487.39  L362.75,487.39z"/>
<path fill-rule="evenodd" clip-rule="evenodd" fill="#8F9290" d="M376.25,437.14c-9.593-15.179-44.107-15.754-36.75,13.5  c0.807-1.139,1.807-1.639,3-1.5C339.111,468.881,380.474,457.613,376.25,437.14z"/>
<path fill-rule="evenodd" clip-rule="evenodd" fill="#303030" d="M341.75,440.14c2.557,0.326,4.462,5.627,3.75,0  c4.877,6.812,5.575,12.856,5.25,19.5C346,452.815,346.285,449.653,341.75,440.14z"/>
<path fill-rule="evenodd" clip-rule="evenodd" fill="#303030" d="M350,426.64c3.642,3.386,2.957,7.457,8.25,6  C355.021,431.24,352.749,429.196,350,426.64z"/>
<path fill-rule="evenodd" clip-rule="evenodd" fill="#303030" d="M354.5,443.89c-0.308,6.31,2.643,9.287-3,14.25  c-2.049-1.602,4.375,0.172-2.25,0.75c4.748-0.519,11.615-5.604,7.5-3C360.931,449.086,358.021,447.355,354.5,443.89z"/>
<path fill-rule="evenodd" clip-rule="evenodd" fill="#BFBFC0" d="M374.75,437.14C374.75,438.14,374.75,438.14,374.75,437.14  L374.75,437.14z"/>
<path fill-rule="evenodd" clip-rule="evenodd" fill="#8F9290" d="M336.5,440.89c1.459-3.732,1.257,8.715,2.625,1.875  c0.544-2.72,0.094-7.278-0.375-10.125c-1.25,0.25-2.5,0.5-3.75,0.75C333.368,436.887,336.485,439.915,336.5,440.89z"/>
<path fill-rule="evenodd" clip-rule="evenodd" fill="#303030" d="M339.5,449.89C342.527,452.82,341.684,452.003,339.5,449.89  L339.5,449.89z"/>
<path fill-rule="evenodd" clip-rule="evenodd" fill="#8F9290" d="M346.25,427.39c-7.292,20.419,23.101,43.937,29.25,19.5  C392.48,441.431,362.118,410.096,346.25,427.39z"/>
<path fill-rule="evenodd" clip-rule="evenodd" fill="#303030" d="M368.75,452.14c-1.986-2.37,2.739-7.706-3-3  c3.567-8.109,6.379-11.44,13.5-15c-0.25,0.75,0,1,0.75,0.75C373.041,442.533,372.645,444.029,368.75,452.14z"/>
<path fill-rule="evenodd" clip-rule="evenodd" fill="#303030" d="M353,455.14c0.992-4.758,5.407-7.311,0-9.75  C355.423,449.859,353.864,450.996,353,455.14z"/>
<path fill-rule="evenodd" clip-rule="evenodd" fill="#303030" d="M364.25,440.89c7.897-3.057,9.535-8.824,15.75-5.25  c-2.567-2.008-11.944-4.315-8.25-3.75C364.777,432.802,365.193,436.127,364.25,440.89z"/>
<path fill-rule="evenodd" clip-rule="evenodd" fill="#BFBFC0" d="M347,427.39C346,427.39,346,427.39,347,427.39L347,427.39z"/>
<path fill-rule="evenodd" clip-rule="evenodd" fill="#8F9290" d="M372.5,455.89c3.013-1.539-3.974-1.583-8.25,4.5  C370.881,462.667,369.125,457.615,372.5,455.89z"/>
<path fill-rule="evenodd" clip-rule="evenodd" fill="#303030" d="M377.75,449.14C380.67,442.783,377.59,449.49,377.75,449.14  L377.75,449.14z"/>
<path fill-rule="evenodd" clip-rule="evenodd" fill="#8F9290" d="M377.75,425.14c-9.686-10.918-23.94-13.471-36.75-5.25  c1.236,8.383,0.698,14.514,3,17.25C340.826,455.771,381.687,446.643,377.75,425.14z"/>
<path fill-rule="evenodd" clip-rule="evenodd" fill="#303030" d="M344,428.14c3.558-0.019,3.849,5.698,5.25-0.75  c3.368,7.322,4.123,12.688,3.75,20.25C348.104,440.426,348.283,436.645,344,428.14z"/>
<path fill-rule="evenodd" clip-rule="evenodd" fill="#303030" d="M352.25,415.39c2.615,2.778,1.455,6.97,6.75,5.25  c-1,0.25-1.25-0.25-0.75-1.5C354.691,420.544,354.22,417.484,352.25,415.39z"/>
<path fill-rule="evenodd" clip-rule="evenodd" fill="#303030" d="M356.75,431.89c-1.859,6.851,1.073,12.94-2.25,12  c0.801,2.237-2.504,2.869-3.75,3C361.615,445.212,362.96,439.244,356.75,431.89z"/>
<path fill-rule="evenodd" clip-rule="evenodd" fill="#BFBFC0" d="M377,425.14C378,425.14,378,425.14,377,425.14L377,425.14z"/>
<path fill-rule="evenodd" clip-rule="evenodd" fill="#8F9290" d="M338,429.64c-0.962,2.562,4.001-0.929,2.25-9  c-1.25,0.25-2.5,0.5-3.75,0.75C334.858,424.822,338.236,428.431,338,429.64z"/>
<path fill-rule="evenodd" clip-rule="evenodd" fill="#303030" d="M341.75,438.64C344.78,444.986,341.688,438.511,341.75,438.64  L341.75,438.64z"/>
<path fill-rule="evenodd" clip-rule="evenodd" fill="#8F9290" d="M356.75,459.64c-10.04-11.052-24.486-13.481-37.5-5.25  c1.097,6-0.751,12.993,0.75,18.75c0.807-1.139,1.807-1.639,3-1.5C317.879,490.21,360.845,481.455,356.75,459.64z"/>
<path fill-rule="evenodd" clip-rule="evenodd" fill="#303030" d="M323,461.89c2.717,0.068,4.883,6.157,3.75-0.75  c4.531,7.441,5.27,13.536,5.25,20.25C327.138,473.923,327.386,470.433,323,461.89z"/>
<path fill-rule="evenodd" clip-rule="evenodd" fill="#303030" d="M330.5,448.39c3.533,2.818,3.235,6.486,8.25,5.25  c-1,0.25-1.25-0.25-0.75-1.5C334.828,453.488,333.363,450.674,330.5,448.39z"/>
<path fill-rule="evenodd" clip-rule="evenodd" fill="#303030" d="M334.25,465.64c-0.394,6.445,2.555,9.379-3,14.25  c-1.842-2.131,4.166,0.206-2.25,0.75C339.373,478.425,340.701,472.985,334.25,465.64z"/>
<path fill-rule="evenodd" clip-rule="evenodd" fill="#BFBFC0" d="M355.25,458.89L355.25,458.89z"/>
<path fill-rule="evenodd" clip-rule="evenodd" fill="#8F9290" d="M317,462.64c-0.576,1.073,4.601,0.556,2.25-9  C311.827,457.099,318.119,459.162,317,462.64z"/>
<path fill-rule="evenodd" clip-rule="evenodd" fill="#303030" d="M320.75,472.39C323.777,475.32,322.934,474.503,320.75,472.39  L320.75,472.39z"/>
<path fill-rule="evenodd" clip-rule="evenodd" fill="#8F9290" d="M326.75,449.14c-7.181,21.57,22.603,44.348,29.25,19.5  C372.805,463.334,342.447,431.903,326.75,449.14z"/>
<path fill-rule="evenodd" clip-rule="evenodd" fill="#303030" d="M348.5,474.64c-1.899-2.735,2.952-7.001-3-3  c3.639-8.572,6.778-11.436,14.25-15C354.613,465.752,353.843,465.659,348.5,474.64z"/>
<path fill-rule="evenodd" clip-rule="evenodd" fill="#303030" d="M333.5,476.14c1.055-4.488,5.912-9.783,0-7.5  C337.266,469.374,334.439,472.144,333.5,476.14z"/>
<path fill-rule="evenodd" clip-rule="evenodd" fill="#303030" d="M344.75,463.39c5.099-2.478,5.714-8.105,13.5-6  c0,0.098-1.416-1.815,2.25,0.75c-4.562-3.603-4.877-3.001-10.5-3.75C349.953,454.383,345.789,457.362,344.75,463.39z"/>
<path fill-rule="evenodd" clip-rule="evenodd" fill="#BFBFC0" d="M328.25,449.89C327.25,449.89,327.25,449.89,328.25,449.89  L328.25,449.89z"/>
<path fill-rule="evenodd" clip-rule="evenodd" fill="#8F9290" d="M353,477.64c2.63-1.446-4.572-1.352-8.25,3.75  C352.026,486.518,349.319,479.665,353,477.64z"/>
<path fill-rule="evenodd" clip-rule="evenodd" fill="#303030" d="M359,470.14C360.847,464.925,359.458,468.849,359,470.14  L359,470.14z"/>
<path fill-rule="evenodd" clip-rule="evenodd" fill="#8F9290" d="M359,447.64c-9.838-11.878-25.004-13.701-37.5-5.25  c1.559,13.741,0.026,21.762,6.75,24.75C340.84,472.736,362.434,464.286,359,447.64z"/>
<path fill-rule="evenodd" clip-rule="evenodd" fill="#303030" d="M324.5,449.14c2.667,0.362,4.704,7.363,3.75,0  c4.777,7.18,5.387,12.839,5.25,19.5C329.248,461.948,330.148,458.328,324.5,449.14z"/>
<path fill-rule="evenodd" clip-rule="evenodd" fill="#303030" d="M332.75,436.39c3.683,3.35,2.927,7.465,8.25,6  c-1,0.25-1.25-0.25-0.75-1.5C337.332,442.139,335.959,439.309,332.75,436.39z"/>
<path fill-rule="evenodd" clip-rule="evenodd" fill="#303030" d="M337.25,452.14c-0.312,6.565,2.261,9.838-3,15.75  c-2.234-1.105,5.042-1.09-2.25,0.75c5.491-0.525,10.937-6.544,7.5-3.75C343.743,457.754,340.618,455.794,337.25,452.14z"/>
<path fill-rule="evenodd" clip-rule="evenodd" fill="#BFBFC0" d="M357.5,447.64L357.5,447.64z"/>
<path fill-rule="evenodd" clip-rule="evenodd" fill="#8F9290" d="M319.25,449.89c1.459-3.732,1.257,8.715,2.625,1.875  c0.544-2.72,0.094-7.278-0.375-10.125c-1.25,0.25-2.5,0.5-3.75,0.75C316.118,445.887,319.235,448.915,319.25,449.89z"/>
<path fill-rule="evenodd" clip-rule="evenodd" fill="#303030" d="M322.25,460.39C324.184,468.371,322.062,459.613,322.25,460.39  L322.25,460.39z"/>
<path fill-rule="evenodd" clip-rule="evenodd" fill="#8F9290" d="M347,437.14c-10.094-14.784-44.175-16.024-36.75,13.5  c0.807-1.139,1.807-1.639,3-1.5C309.723,468.823,351.227,457.628,347,437.14z"/>
<path fill-rule="evenodd" clip-rule="evenodd" fill="#303030" d="M312.5,440.14c3.543,0.311,3.094,5.232,5.25,0  c2.346,7.172,3.934,13.066,3.75,19.5C317.981,452.87,317.497,448.59,312.5,440.14z"/>
<path fill-rule="evenodd" clip-rule="evenodd" fill="#303030" d="M321.5,426.64c3.229,2.961,2.8,6.211,7.5,6.75  c-0.25-0.75,0-1,0.75-0.75C326.643,431.36,324.139,429.06,321.5,426.64z"/>
<path fill-rule="evenodd" clip-rule="evenodd" fill="#303030" d="M323.75,443.89c-0.378,6.314,2.677,9.258-3,14.25  c-1.857-2.338,4.161,0.289-2.25,0.75c3.453-0.468,11.85-4.714,8.25-3C329.043,449.469,326.66,447.247,323.75,443.89z"/>
<path fill-rule="evenodd" clip-rule="evenodd" fill="#BFBFC0" d="M346.25,437.14C346.25,438.14,346.25,438.14,346.25,437.14  L346.25,437.14z"/>
<path fill-rule="evenodd" clip-rule="evenodd" fill="#8F9290" d="M307.25,440.89c1.951-3.239,3,8.75,3,1.875  c0-3.396,0.019-6.787-0.75-10.125C302.39,435.977,308.233,438.368,307.25,440.89z"/>
<path fill-rule="evenodd" clip-rule="evenodd" fill="#303030" d="M310.25,449.89C313.277,452.82,312.434,452.003,310.25,449.89  L310.25,449.89z"/>
<path fill-rule="evenodd" clip-rule="evenodd" fill="#8F9290" d="M317.75,427.39c-7.297,21.03,23.167,43.671,29.25,19.5  C364.136,441.289,333.12,410.256,317.75,427.39z"/>
<path fill-rule="evenodd" clip-rule="evenodd" fill="#303030" d="M338.75,452.14c-1.837-2.824,2.891-6.96-3-3  c3.408-8.283,6.454-11.022,13.5-15C345.484,442.745,343.309,443.983,338.75,452.14z"/>
<path fill-rule="evenodd" clip-rule="evenodd" fill="#303030" d="M323.75,455.14c1.023-4.419,5.892-7.53,0-9.75  C327.405,449.176,324.726,450.924,323.75,455.14z"/>
<path fill-rule="evenodd" clip-rule="evenodd" fill="#303030" d="M335,440.89c5.586-2.37,5.827-8.001,13.5-6  c0.059,0.605-1.367-1.598,2.25,0.75c-2.827-2.119-11.982-4.327-8.25-3.75C334.843,432.414,335.796,435.617,335,440.89z"/>
<path fill-rule="evenodd" clip-rule="evenodd" fill="#BFBFC0" d="M317,427.39C318,427.39,318,427.39,317,427.39L317,427.39z"/>
<path fill-rule="evenodd" clip-rule="evenodd" fill="#8F9290" d="M344,455.89c3.013-1.539-3.974-1.583-8.25,4.5  C342.381,462.667,340.625,457.615,344,455.89z"/>
<path fill-rule="evenodd" clip-rule="evenodd" fill="#303030" d="M348.5,449.14C351.42,442.783,348.34,449.49,348.5,449.14  L348.5,449.14z"/>
<path fill-rule="evenodd" clip-rule="evenodd" fill="#8F9290" d="M349.25,425.14c-9.826-11.285-24.081-13.115-37.5-5.25  c1.097,6-0.751,12.993,0.75,18.75c0.807-1.139,1.807-1.639,3-1.5C310.41,455.599,353.529,447.062,349.25,425.14z"/>
<path fill-rule="evenodd" clip-rule="evenodd" fill="#303030" d="M315.5,428.14c2.712,0.051,4.885,6.169,3.75-0.75  c4.778,7.438,5.42,13.153,5.25,20.25C320.126,440.438,319.805,436.614,315.5,428.14z"/>
<path fill-rule="evenodd" clip-rule="evenodd" fill="#303030" d="M323.75,415.39c3.533,2.831,3.318,6.65,8.25,5.25  c-1,0.25-1.25-0.25-0.75-1.5C328.084,420.486,326.606,417.679,323.75,415.39z"/>
<path fill-rule="evenodd" clip-rule="evenodd" fill="#303030" d="M326,431.89c-0.321,6.44,2.52,9.409-3,14.25  c-2.014-1.93,4.33,0.095-2.25,0.75C331.108,444.675,332.471,439.289,326,431.89z"/>
<path fill-rule="evenodd" clip-rule="evenodd" fill="#BFBFC0" d="M348.5,425.14L348.5,425.14z"/>
<path fill-rule="evenodd" clip-rule="evenodd" fill="#8F9290" d="M311,429.64c-0.331,6.687,2.035-5.344,1.5-9  C304.873,424.633,311.179,426.031,311,429.64z"/>
<path fill-rule="evenodd" clip-rule="evenodd" fill="#303030" d="M312.5,438.64C315.527,441.57,314.684,440.753,312.5,438.64  L312.5,438.64z"/>
<path fill-rule="evenodd" clip-rule="evenodd" fill="#8F9290" d="M461.75,439.39c-13.183-30.773-62.056-5.788-39.75,17.25  C411.591,480.638,474.051,468.471,461.75,439.39z"/>
<path fill-rule="evenodd" clip-rule="evenodd" fill="#303030" d="M422,443.14c2.565,0.002,3.908,3.37,3.75,5.25  c-0.156,0.133,2.2-5.671,2.25-6c4.947,8.039,5.878,17.831,5.25,26.25c-5.987-4.641-5.227-9.93-5.25-10.5  C426.545,451.9,425.533,448.461,422,443.14z"/>
<path fill-rule="evenodd" clip-rule="evenodd" fill="#303030" d="M431.75,423.64c4.168,4.883,1.963,10.072,9.75,9  c-0.611-0.665-0.861-1.415-0.75-2.25C435.272,431.603,435.653,427.519,431.75,423.64z"/>
<path fill-rule="evenodd" clip-rule="evenodd" fill="#303030" d="M437,448.39c1.666,8.292,2.778,13.875-3.75,20.25  c-2.483-1.966,5.14-0.945-2.25,0.75C443.918,466.97,445.269,457.348,437,448.39z"/>
<path fill-rule="evenodd" clip-rule="evenodd" fill="#BFBFC0" d="M462.5,439.39L462.5,439.39z"/>
<path fill-rule="evenodd" clip-rule="evenodd" fill="#8F9290" d="M415.25,444.64c1.778-0.873,4.371-0.564,2.25-12.75  C409.186,435.407,414.481,438.055,415.25,444.64z"/>
<path fill-rule="evenodd" clip-rule="evenodd" fill="#303030" d="M419,457.39C421.635,467.473,418.771,456.512,419,457.39  L419,457.39z"/>
<path fill-rule="evenodd" clip-rule="evenodd" fill="#8F9290" d="M428,426.64c-7.961,18.967,4.655,37.81,21.75,44.25  c7.394-5.511,13.282-13.393,13.5-18c2.621-0.346,5.612-0.045,8.25,0C469.267,439.263,442.174,397.046,428,426.64z"/>
<path fill-rule="evenodd" clip-rule="evenodd" fill="#303030" d="M454.25,460.39c-1.513-2.518-0.408-5.579,1.5-7.5  c1.947,0.434-6.372,2.953-5.25,2.25c3.68-9.757,8.949-15.999,17.25-20.25c-3.804,7.245-1.658,6.146-8.25,10.5  C459.591,448.144,455.52,455.028,454.25,460.39z"/>
<path fill-rule="evenodd" clip-rule="evenodd" fill="#303030" d="M434.75,463.39c1.352-6.806,9.327-9.85,0-13.5  C439.845,454.757,435.205,456.902,434.75,463.39z"/>
<path fill-rule="evenodd" clip-rule="evenodd" fill="#303030" d="M449.75,444.64c5.26-5.713,7.911-9.791,16.5-8.25  c-3.316,1.86-1.41-2.83,3,1.5c-3.948-3.948-7.146-3.729-12-5.25C456.399,432.779,450.827,438.087,449.75,444.64z"/>
<path fill-rule="evenodd" clip-rule="evenodd" fill="#BFBFC0" d="M428,425.89C428.604,425.287,428.604,425.287,428,425.89  L428,425.89z"/>
<path fill-rule="evenodd" clip-rule="evenodd" fill="#8F9290" d="M460.25,465.64c-1.518-0.387-2.292-5.396-10.5,4.5  C457.521,475.332,456.003,469.106,460.25,465.64z"/>
<path fill-rule="evenodd" clip-rule="evenodd" fill="#303030" d="M467,455.14c1.815-2.577,3.86,1.64,5.25-3  C461.146,450.99,467.311,454.7,467,455.14z"/>
<path fill-rule="evenodd" clip-rule="evenodd" fill="#8F9290" d="M465.5,422.89c-15.973-28.956-62.478-5.449-40.5,17.25  C414.095,462.754,474.773,453.983,465.5,422.89z"/>
<path fill-rule="evenodd" clip-rule="evenodd" fill="#303030" d="M424.25,426.64c2.893,0.229,4.138,2.611,3.75,5.25  c-0.702,0.517,2.307-5.506,2.25-5.25c4.818,7.54,6.325,18.669,5.25,26.25c-7.035-7.18-4.085-4.179-3-12.75  C429.639,438.577,427.771,431.944,424.25,426.64z"/>
<path fill-rule="evenodd" clip-rule="evenodd" fill="#303030" d="M434.75,408.64c4.278,4.482,2.354,9.439,9.75,8.25  c-3.149-1.536-0.443-2.466-0.75-1.5C438.459,414.393,437.502,410.85,434.75,408.64z"/>
<path fill-rule="evenodd" clip-rule="evenodd" fill="#303030" d="M438.5,432.64c1.948,7.854,3.777,12.78-3,19.5  c0.616-5.028,2.614,0.153-3,0.75c6.202-0.953,6.594-2.907,11.25-6.75C444.696,444.232,443.493,437.189,438.5,432.64z"/>
<path fill-rule="evenodd" clip-rule="evenodd" fill="#BFBFC0" d="M464.75,422.14C465.75,422.14,465.75,422.14,464.75,422.14  L464.75,422.14z"/>
<path fill-rule="evenodd" clip-rule="evenodd" fill="#8F9290" d="M418.25,428.89c1.778-0.873,4.371-0.564,2.25-12.75  C411.914,420.104,417.329,422.51,418.25,428.89z"/>
<path fill-rule="evenodd" clip-rule="evenodd" fill="#303030" d="M422,440.89c-0.042,3.353-3.781,2.182-1.5,6  C426.84,440.648,422.011,440.051,422,440.89z"/>
<path fill-rule="evenodd" clip-rule="evenodd" fill="#8F9290" d="M437.75,469.39c-11.91-36.053-61.833,0.503-39,15.75  C386.955,512.491,450.914,497.542,437.75,469.39z"/>
<path fill-rule="evenodd" clip-rule="evenodd" fill="#303030" d="M398,473.14c3.593-0.052,3.814,7.868,6-0.75  c4.498,7.456,6.164,17.96,5.25,26.25C403.68,490.491,404.745,482.797,398,473.14z"/>
<path fill-rule="evenodd" clip-rule="evenodd" fill="#303030" d="M408.5,454.39c4.616,4.772,3.466,12.323,9.75,7.5  c-2.832,0.403-0.568-1.602-0.75-0.75C410.351,461.693,413.051,458.228,408.5,454.39z"/>
<path fill-rule="evenodd" clip-rule="evenodd" fill="#303030" d="M413,477.64c1.771,8.2,4.093,13.415-3,20.25c0.75-1,1.5-2,2.25-3  c-0.171,0.796-4.314,3.719-5.25,3.75c6.145-0.947,6.909-3.674,11.25-6.75C419.212,489.079,417.372,481.548,413,477.64z"/>
<path fill-rule="evenodd" clip-rule="evenodd" fill="#BFBFC0" d="M438.5,468.64C439.5,468.64,439.5,468.64,438.5,468.64  L438.5,468.64z"/>
<path fill-rule="evenodd" clip-rule="evenodd" fill="#8F9290" d="M392,475.39c-0.407,0.487,3.714-2.259,2.25-12.75  C385.583,466.587,391.123,469.267,392,475.39z"/>
<path fill-rule="evenodd" clip-rule="evenodd" fill="#303030" d="M395.75,486.64c-0.042,3.353-3.781,2.182-1.5,6  C400.589,486.398,395.761,485.801,395.75,486.64z"/>
<path fill-rule="evenodd" clip-rule="evenodd" fill="#8F9290" d="M404,455.89c-7.091,19.48,4.388,37.701,22.5,44.25  c7.818-5.41,12.746-11.49,13.5-17.25C462.91,479.257,421.03,428.642,404,455.89z"/>
<path fill-rule="evenodd" clip-rule="evenodd" fill="#303030" d="M430.25,489.64c-0.983-2.368,0.511-5.298,2.25-6.75  c2.402,0.994-6.544,2.087-5.25,1.5c3.348-9.172,8.65-14.85,17.25-18.75C437.66,474.771,434.165,477.917,430.25,489.64z"/>
<path fill-rule="evenodd" clip-rule="evenodd" fill="#303030" d="M411.5,493.39c0.97-7.242,8.815-9.575,0-14.25c0,0.75,0,1.5,0,2.25  C416.135,483.399,411.245,487.272,411.5,493.39z"/>
<path fill-rule="evenodd" clip-rule="evenodd" fill="#303030" d="M426.5,474.64c5.122-6.075,8.021-9.938,16.5-9  c-3.497,2.559-1.296-2.192,2.25,2.25c-4.019-4.389-6.598-3.853-12-5.25C433.035,462.601,427.585,466.353,426.5,474.64z"/>
<path fill-rule="evenodd" clip-rule="evenodd" fill="#BFBFC0" d="M404,455.89L404,455.89z"/>
<path fill-rule="evenodd" clip-rule="evenodd" fill="#8F9290" d="M437.75,494.89c-2.053-0.932-1.99-5.372-10.5,3.75  C434.23,504.566,432.983,498.378,437.75,494.89z"/>
<path fill-rule="evenodd" clip-rule="evenodd" fill="#303030" d="M442.25,484.39C445.882,478.29,442.742,483.563,442.25,484.39  L442.25,484.39z"/>
<path fill-rule="evenodd" clip-rule="evenodd" fill="#8F9290" d="M440.75,452.89c-13.162-37.231-61.451,3.049-39,15.75  C387.724,493.955,454.878,483.553,440.75,452.89z"/>
<path fill-rule="evenodd" clip-rule="evenodd" fill="#303030" d="M401,455.89c3.645-0.293,3.142,7.657,6-0.75  c4.59,8.03,6.503,17.949,3,27C408.479,471.561,407.499,464.456,401,455.89z"/>
<path fill-rule="evenodd" clip-rule="evenodd" fill="#303030" d="M411.5,437.14c4.55,4.68,2.759,12.287,9.75,7.5  c-3.395,0.765-0.579-1.308-0.75-0.75C413.676,444.857,415.787,440.748,411.5,437.14z"/>
<path fill-rule="evenodd" clip-rule="evenodd" fill="#303030" d="M416,461.14c1.992,8.137,3.985,13.519-3,20.25  c-0.219-5.392,2.6,0.496-3,0.75c6.115-0.942,6.967-3.541,11.25-6.75C422.199,472.958,420.438,465.542,416,461.14z"/>
<path fill-rule="evenodd" clip-rule="evenodd" fill="#BFBFC0" d="M441.5,452.89C442.5,452.89,442.5,452.89,441.5,452.89  L441.5,452.89z"/>
<path fill-rule="evenodd" clip-rule="evenodd" fill="#8F9290" d="M395.75,458.14c-0.674,0.844,3.308-2.37,1.5-12.75  C389.583,449.978,394.939,452.292,395.75,458.14z"/>
<path fill-rule="evenodd" clip-rule="evenodd" fill="#303030" d="M398.75,470.89c-0.042,3.353-3.781,2.182-1.5,6  C403.589,470.648,398.761,470.051,398.75,470.89z"/>
<path fill-rule="evenodd" clip-rule="evenodd" fill="#8F9290" d="M427.25,439.39c-14.061-33.52-61.783-0.475-39,17.25  C377.056,481.458,440.643,468.096,427.25,439.39z"/>
<path fill-rule="evenodd" clip-rule="evenodd" fill="#303030" d="M386.75,443.14c0.972,0.039,3.321,4.297,3.75,5.25  c-1.76,1.69,3.049-8.907,2.25-6c4.6,8.039,6.537,18.108,3,27c-1.308-4.993-2.999-11.295-3-11.25  C391.457,451.98,390.499,448.226,386.75,443.14z"/>
<path fill-rule="evenodd" clip-rule="evenodd" fill="#303030" d="M397.25,423.64c4.202,4.45,1.314,10.197,9.75,9  c-0.083-0.021-2.258-2.194-2.25-2.25C401.907,432.608,401.453,427.202,397.25,423.64z"/>
<path fill-rule="evenodd" clip-rule="evenodd" fill="#303030" d="M400.25,448.39c1.993,8.137,3.986,13.519-3,20.25  c-0.219-5.392,2.6,0.496-3,0.75c6.115-0.942,6.967-3.541,11.25-6.75C406.449,460.208,404.688,452.792,400.25,448.39z"/>
<path fill-rule="evenodd" clip-rule="evenodd" fill="#BFBFC0" d="M427.25,439.39C428.25,439.39,428.25,439.39,427.25,439.39  L427.25,439.39z"/>
<path fill-rule="evenodd" clip-rule="evenodd" fill="#8F9290" d="M381.5,444.64c-0.321,0.371,3.348-1.857,1.5-12.75  C375.383,436.448,380.596,438.79,381.5,444.64z"/>
<path fill-rule="evenodd" clip-rule="evenodd" fill="#303030" d="M383,457.39C387.3,462.887,385.113,460.091,383,457.39L383,457.39z  "/>
<path fill-rule="evenodd" clip-rule="evenodd" fill="#8F9290" d="M392.75,426.64c-6.848,18.317,4.744,37.726,22.5,44.25  c6.979-5.904,12.609-12.543,13.5-18C453.267,447.751,406.751,397.812,392.75,426.64z"/>
<path fill-rule="evenodd" clip-rule="evenodd" fill="#303030" d="M417.5,460.39c-1.217-2.727,0.223-5.9,2.25-7.5  c0.73,0.148-5.423,2.37-5.25,2.25c2.068-9.498,8.033-16.013,16.5-20.25c-1.338,9.237-0.735,6.099-7.5,10.5  C423.213,447.23,418.975,454.442,417.5,460.39z"/>
<path fill-rule="evenodd" clip-rule="evenodd" fill="#303030" d="M399.5,463.39c1.583-6.748,8.383-10.019,0-13.5  C402.709,452.701,399.706,456.487,399.5,463.39z"/>
<path fill-rule="evenodd" clip-rule="evenodd" fill="#303030" d="M413.75,444.64c5.292-5.842,7.586-9.986,16.5-8.25  c-0.396,1.943-2.84-3.923,2.25,1.5c-4.031-4.417-6.611-3.686-12-5.25C420.944,432.63,414.716,437.33,413.75,444.64z"/>
<path fill-rule="evenodd" clip-rule="evenodd" fill="#BFBFC0" d="M392.75,425.89C392.75,424.89,392.75,424.89,392.75,425.89  L392.75,425.89z"/>
<path fill-rule="evenodd" clip-rule="evenodd" fill="#8F9290" d="M425,465.64c-2.022-0.804-2.292-5.397-10.5,4.5  C421.514,475.168,420.326,469.273,425,465.64z"/>
<path fill-rule="evenodd" clip-rule="evenodd" fill="#303030" d="M431.75,455.14C433.883,449.849,432.825,452.474,431.75,455.14  L431.75,455.14z"/>
<path fill-rule="evenodd" clip-rule="evenodd" fill="#8F9290" d="M430.25,422.89c-14.161-33.365-61.801-0.488-39,17.25  c-1.304,2.173-3.673,4.515-5.25,6.75C397.085,453.221,443.865,454.206,430.25,422.89z"/>
<path fill-rule="evenodd" clip-rule="evenodd" fill="#303030" d="M389.75,426.64c2.574,0.028,3.655,3.06,3.75,5.25  c1.314-0.975,2.043-4.009,2.25-5.25c5.009,8.556,5.892,16.775,3.75,26.25C394.856,442.087,396.896,436.775,389.75,426.64z"/>
<path fill-rule="evenodd" clip-rule="evenodd" fill="#303030" d="M399.5,408.64c4.341,4.139,0.771,8.722,9,9  c-0.25-0.75,0-1,0.75-0.75c-0.232-0.087-2.251-2.163-2.25-2.25C404.382,415.946,403.102,411.354,399.5,408.64z"/>
<path fill-rule="evenodd" clip-rule="evenodd" fill="#303030" d="M404,432.64c1.771,7.372,3.383,12.622-3,19.5  c5.288-5.63-1.314,0.572-3,0.75c4.33-0.676,11.974-7.528,9-5.25C411.744,439.49,408.477,436.863,404,432.64z"/>
<path fill-rule="evenodd" clip-rule="evenodd" fill="#BFBFC0" d="M430.25,422.14C431.25,422.14,431.25,422.14,430.25,422.14  L430.25,422.14z"/>
<path fill-rule="evenodd" clip-rule="evenodd" fill="#8F9290" d="M383.75,428.89c-0.321,0.371,3.348-1.857,1.5-12.75  C377.633,420.698,382.846,423.04,383.75,428.89z"/>
<path fill-rule="evenodd" clip-rule="evenodd" fill="#303030" d="M385.25,440.89C389.434,446.741,386.94,443.254,385.25,440.89  L385.25,440.89z"/>
</svg>