<svg xmlns="http://www.w3.org/2000/svg" xmlns:xlink="http://www.w3.org/1999/xlink" version="1.1" id="Layer_1" x="0px" y="0px" enable-background="new 0 0 822.05 841.89" xml:space="preserve" viewBox="319.95 350.29 181.55 145.79">
<path fill-rule="evenodd" clip-rule="evenodd" fill="#8F9290" d="M444.5,386.14c-16.961-5.386-35.002-11.998-52.5,1.125  c-10.845,8.134-16.119,4.345-25.5,15.375c-6.834,8.035,2.868,20.41-14.25,29.25c11.553,11.599,18.563,25.997,30,37.5  c2.099-1.837,2.937-3.229,5.25-4.5c-8.499,28.18,38.061,16.503,47.625,3.75C453.286,444.425,475.179,406.744,444.5,386.14z"/>
<path fill-rule="evenodd" clip-rule="evenodd" fill="#303030" d="M371.75,442.39c5.134,1.29,8.973,0.211,13.5,3.75  c-1.967-3.83-1.487-7.764-3-11.25c8.229,9.482,18.629,7.461,27,15.75c5.216,5.164,4.351,17.907,11.25,24  c-12.874,3.72-22.438-6.363-20.25-19.5c-0.25,1.75-0.5,3.5-0.75,5.25C392.5,445.903,381.082,454.245,371.75,442.39z"/>
<path fill-rule="evenodd" clip-rule="evenodd" fill="#303030" d="M368.75,398.14c9.239,9.72,23.058,14.611,28.5,1.5  C391.994,404.752,376.605,403.486,368.75,398.14z"/>
<path fill-rule="evenodd" clip-rule="evenodd" fill="#303030" d="M404.75,434.89c12.879,8.636,21.794,22.695,15.75,38.25  c-0.609-0.393,0.827-6.773,0.75-7.5c-1.586,4.062-2.407,8.007-4.5,12c9.171-6.149,13.47-15.998,12-27  c-0.106,1.406-0.007,4.807-0.75,6C426.669,443.782,419.35,429.168,404.75,434.89z"/>
<path fill-rule="evenodd" clip-rule="evenodd" fill="#BFBFC0" d="M444.5,386.14C445.5,385.14,445.5,385.14,444.5,386.14  L444.5,386.14z"/>
<path fill-rule="evenodd" clip-rule="evenodd" fill="#303030" d="M361.25,454.39c3.633,1.377,6.451,0.572,9.75,3.75  c-4.951-9.617-11.11-18.58-18.75-26.25C344.282,442.278,348.73,451.33,361.25,454.39z"/>
<path fill-rule="evenodd" clip-rule="evenodd" fill="#303030" d="M382.25,469.39c0.899,5.312,0.124,8.612,4.5,12.75  c1.444-5.537,0.911-12.229,0.75-17.25C384.563,465.625,384.583,467.879,382.25,469.39z"/>
<path fill-rule="evenodd" clip-rule="evenodd" fill="#8F9290" d="M364.25,407.14c7.308,17.206,6.189,15.838,18.75,27.75  c6.347,6.02,17.821,23.379,26.25,24.75c14.126,2.298,23.048-12.681,36-7.5c16.126,6.45,20.453-30.002,23.25-44.25  c-3.234-0.372-4.827-0.607-6.75-1.5c30.072-10.311-12.604-37.78-27.75-40.5C405.25,360.727,363.026,374.28,364.25,407.14z"/>
<path fill-rule="evenodd" clip-rule="evenodd" fill="#303030" d="M452.75,432.64c-1.918-4.751-4.855-7.337-5.25-12.75  c-1.777,3.62-5.041,5.899-6.75,9c1.853-12.129-5.57-20.067-3.75-31.5c1.063-6.677,12.399-14.95,13.5-23.25  c9.607,9.016,7.723,22.134-4.5,27.75c1.5-0.75,3-1.5,4.5-2.25C444.196,413.084,454.643,418.144,452.75,432.64z"/>
<path fill-rule="evenodd" clip-rule="evenodd" fill="#303030" d="M419,461.14c1.735-13.003-2.431-27.491-15.75-24  c0.533,0.095,3.776,2.521,3.75,3C410.87,440.341,418.348,453.015,419,461.14z"/>
<path fill-rule="evenodd" clip-rule="evenodd" fill="#303030" d="M427.25,410.89c-1.232-15.651,5.388-31.317,21.75-35.25  c0.015,0.949-10.549,4.52-4.875,2.25c3.209-1.284,6.713-1.742,10.125-2.25c-10.193-3.876-20.453-1.4-28.5,6  c0.481-0.266,4.778-3.028,5.25-3C421.094,387.496,414.677,401.905,427.25,410.89z"/>
<path fill-rule="evenodd" clip-rule="evenodd" fill="#BFBFC0" d="M364.25,407.14C363.25,407.14,363.25,407.14,364.25,407.14  L364.25,407.14z"/>
<path fill-rule="evenodd" clip-rule="evenodd" fill="#303030" d="M468.5,434.14c-1.149-3.437-3.004-5.763-3-9.75  c-5.1,9.311-8.21,19.46-9.75,30C468.889,454.889,473.654,445.759,468.5,434.14z"/>
<path fill-rule="evenodd" clip-rule="evenodd" fill="#303030" d="M468.5,407.89c3.958-3.984,7.38-4.506,7.5-11.25  c-5.051,2.348-10.017,6.171-14.25,9.75C463.619,409.061,465.435,406.728,468.5,407.89z"/>
<path fill-rule="evenodd" clip-rule="evenodd" fill="#8F9290" d="M431.75,355.39c-22.687-6.362-31.03-7.741-54.75,1.5  c-5.931,2.311-27.066,4.27-23.25,17.625c3.273,11.457-4.203,21.421-14.25,26.625c11.772,11.005,18.836,25.481,29.25,37.5  c2.433-2.149,3.488-3.151,6-4.5c-9.447,30.679,37.19,12.727,48.75,1.5C444.047,415.685,458.242,373.432,431.75,355.39z"/>
<path fill-rule="evenodd" clip-rule="evenodd" fill="#303030" d="M358.25,411.64c5.18,2.123,9.098-0.322,14.25,3.75  c-2.029-3.649-2.143-8.079-3.75-11.25c8.631,9.031,19.419,7.367,27.75,15.75c6.285,6.324,1.651,16.503,11.25,23.25  c-12.935,5.014-23.032-5.089-20.25-18.75c-0.5,1.5-1,3-1.5,4.5C377.261,417.47,368.929,420.924,358.25,411.64z"/>
<path fill-rule="evenodd" clip-rule="evenodd" fill="#303030" d="M356,367.39c8.902,9.248,21.964,14.034,28.5,2.25  c0.908-0.588-6.298-0.09-5.25,0.75c-0.237-1.211,0.513-1.711,2.25-1.5C373.141,375.53,361.174,371.184,356,367.39z"/>
<path fill-rule="evenodd" clip-rule="evenodd" fill="#303030" d="M391.25,404.14c13.586,7.517,21.564,22.326,15.75,37.5  c-0.76-0.479,1.604-5.997,1.5-6.75c-1.738,4.396-2.309,7.282-5.25,11.25c9.499-5.474,13.553-15.291,12-26.25  c0.04,1.341,0.55,4.825,0,6C413.219,412.767,406.039,398.584,391.25,404.14z"/>
<path fill-rule="evenodd" clip-rule="evenodd" fill="#BFBFC0" d="M431,355.39C431.642,355.044,432.644,354.503,431,355.39  L431,355.39z"/>
<path fill-rule="evenodd" clip-rule="evenodd" fill="#303030" d="M347.75,423.64c3.568,1.114,6.964,0.878,10.5,3  c-4.631-9.533-11.003-18.258-18.75-25.5C330.612,410.989,335.141,420.301,347.75,423.64z"/>
<path fill-rule="evenodd" clip-rule="evenodd" fill="#303030" d="M368.75,438.64c1.181,5.366,0.862,8.999,5.25,12.75  c1.399-5.659,0.944-11.732,0.75-17.25C371.188,434.375,371.453,437.072,368.75,438.64z"/>
<path fill-rule="evenodd" clip-rule="evenodd" fill="#8F9290" d="M419.75,469.39c-13.149-21.939-54.049-5.916-36,13.5  C376.935,502.75,427.08,492.713,419.75,469.39z"/>
<path fill-rule="evenodd" clip-rule="evenodd" fill="#303030" d="M383,472.39c3.551-0.103,4.493,6.876,5.25-0.75  c4.453,7.611,5.044,13.328,4.5,21.75C389.095,484.565,389.153,479.877,383,472.39z"/>
<path fill-rule="evenodd" clip-rule="evenodd" fill="#303030" d="M392,457.39c3.882,4.267,2.823,9.579,9,6.75  c-1.891-0.306-0.646-0.964-0.75-0.75C394.771,462.785,395.064,460.339,392,457.39z"/>
<path fill-rule="evenodd" clip-rule="evenodd" fill="#303030" d="M395.75,476.89c0.032,6.943,3.718,10.188-3,15.75  c-2.194-1.967,4.303-0.274-2.25,0.75c5.423-1.36,5.644-2.504,9.75-6C400.397,487.121,399.505,480.995,395.75,476.89z"/>
<path fill-rule="evenodd" clip-rule="evenodd" fill="#BFBFC0" d="M419.75,469.39L419.75,469.39z"/>
<path fill-rule="evenodd" clip-rule="evenodd" fill="#8F9290" d="M377,473.89c-0.794,2.782,4.023-1.589,2.25-9  C371.163,467.788,378.217,469.624,377,473.89z"/>
<path fill-rule="evenodd" clip-rule="evenodd" fill="#303030" d="M380.75,483.64C384.161,489.923,381.208,484.484,380.75,483.64  L380.75,483.64z"/>
<path fill-rule="evenodd" clip-rule="evenodd" fill="#8F9290" d="M388.25,458.89c-10.662,24.727,28.494,46.722,32.25,21  C439.836,474.237,403.102,439.208,388.25,458.89z"/>
<path fill-rule="evenodd" clip-rule="evenodd" fill="#303030" d="M412.25,486.64c-2.104-2.772,2.976-7.398-3.75-3.75  c4.091-8.627,7.613-11.812,15.75-15.75C418.357,475.71,416.076,477.23,412.25,486.64z"/>
<path fill-rule="evenodd" clip-rule="evenodd" fill="#303030" d="M395,488.89c0.751-5.699,5.8-7.856,0-11.25  c0.717,1.729-0.62,0.787,0,0.75C396.677,482.977,395.346,485.628,395,488.89z"/>
<path fill-rule="evenodd" clip-rule="evenodd" fill="#303030" d="M408.5,473.89c5.707-3.945,5.905-8.804,14.25-6.75  c-0.063,1.797-1.959-2.347,2.25,1.5c-3.876-3.726-5.638-3.59-10.5-4.5C414.093,464.156,409.543,468.194,408.5,473.89z"/>
<path fill-rule="evenodd" clip-rule="evenodd" fill="#BFBFC0" d="M388.25,458.89L388.25,458.89z"/>
<path fill-rule="evenodd" clip-rule="evenodd" fill="#8F9290" d="M416.75,490.39c4.244-1.503-3.998-0.879-9,3.75  C415.214,499.213,412.769,493.057,416.75,490.39z"/>
<path fill-rule="evenodd" clip-rule="evenodd" fill="#303030" d="M422.75,482.14C425.962,475.71,422.965,481.71,422.75,482.14  L422.75,482.14z"/>
<path fill-rule="evenodd" clip-rule="evenodd" fill="#8F9290" d="M422,456.64c-8.424-14.746-27.646-14.076-40.5-5.25  c1.96,8.325,0.561,13.862,4.5,18.75C379.922,490.05,429.757,479.61,422,456.64z"/>
<path fill-rule="evenodd" clip-rule="evenodd" fill="#303030" d="M386,459.64c3.333,0.043,4.439,6.729,4.5-0.75  c5.022,7.913,5.802,14.246,3.75,21.75C391.035,471.53,390.206,468.649,386,459.64z"/>
<path fill-rule="evenodd" clip-rule="evenodd" fill="#303030" d="M394.25,443.89c3.762,4.18,2.957,9.746,9,6.75  c-1.842,0.087-0.809-0.612-0.75-0.75C397.181,450.287,397.441,447.012,394.25,443.89z"/>
<path fill-rule="evenodd" clip-rule="evenodd" fill="#303030" d="M398,464.14c0.065,6.912,3.598,10.09-3,15.75  c-2.005-1.781,4.843-0.08-2.25,0.75c5.357-1.65,5.781-2.674,9.75-6C402.903,473.81,401.62,467.662,398,464.14z"/>
<path fill-rule="evenodd" clip-rule="evenodd" fill="#BFBFC0" d="M422,456.64L422,456.64z"/>
<path fill-rule="evenodd" clip-rule="evenodd" fill="#8F9290" d="M379.25,461.14c-0.419,0.858,4.518-0.358,2.25-9.75  C374.321,454.434,379.718,456.111,379.25,461.14z"/>
<path fill-rule="evenodd" clip-rule="evenodd" fill="#303030" d="M383,470.14C385.818,476.538,383.879,472.135,383,470.14  L383,470.14z"/>
<path fill-rule="evenodd" clip-rule="evenodd" fill="#8F9290" d="M395.75,414.64c-7.236-14.899-28.509-14.99-40.5-5.25  c2.191,8.64,0.875,13.995,4.5,18c-0.762,2.424-2.788,3.641-3.75,6C368.709,441.883,402.519,436.067,395.75,414.64z"/>
<path fill-rule="evenodd" clip-rule="evenodd" fill="#303030" d="M359.75,416.89c3.188,0.28,4.048,6.572,4.5,0  c5.098,8.195,5.265,12.043,4.5,21c-2.023-4.95-2.625-4.405-2.25-10.5C364.883,426.521,362.635,420.939,359.75,416.89z"/>
<path fill-rule="evenodd" clip-rule="evenodd" fill="#303030" d="M368,401.89c3.897,4.211,2.45,8.706,9,7.5  c-1.079-0.549-0.552-1.963-0.75-1.5C371.141,407.186,370.965,404.694,368,401.89z"/>
<path fill-rule="evenodd" clip-rule="evenodd" fill="#303030" d="M371.75,421.39c0.112,6.938,3.678,10.222-3,15.75  c-2.103-1.492,5.046,0.086-2.25,0.75c6.126-0.699,6.072-2.682,9.75-6C376.311,431.834,376.869,426.083,371.75,421.39z"/>
<path fill-rule="evenodd" clip-rule="evenodd" fill="#BFBFC0" d="M395.75,413.89C395.75,414.89,395.75,414.89,395.75,413.89  L395.75,413.89z"/>
<path fill-rule="evenodd" clip-rule="evenodd" fill="#8F9290" d="M353.75,418.39c-0.986,2.206,3.742,0.295,1.5-9  C348.122,412.575,353.976,414.199,353.75,418.39z"/>
<path fill-rule="evenodd" clip-rule="evenodd" fill="#303030" d="M356.75,428.14C360.126,434.721,357.253,429.121,356.75,428.14  L356.75,428.14z"/>
<path fill-rule="evenodd" clip-rule="evenodd" fill="#8F9290" d="M365,403.39c-7.584,15.603,4.745,31.489,19.5,36  c5.581-6.402,10.888-9.257,12-14.25C416.415,417.889,378.897,384.062,365,403.39z"/>
<path fill-rule="evenodd" clip-rule="evenodd" fill="#303030" d="M388.25,431.14c-1.801-2.864,3.047-7.211-3-3.75  c3.805-8.308,7.222-11.921,14.25-15.75c-2.049,3.739-2.308,4.753-6.75,8.25C392.813,420.79,389.973,426.927,388.25,431.14z"/>
<path fill-rule="evenodd" clip-rule="evenodd" fill="#303030" d="M371,433.39c1.166-5.876,6.533-8.331,0-11.25  c1.214,1.628,0.316,0.692,0,0.75C373.633,427.468,371.604,428.909,371,433.39z"/>
<path fill-rule="evenodd" clip-rule="evenodd" fill="#303030" d="M384.5,418.39c5.34-3.826,6.684-8.114,14.25-6.75  c0.002,1.657-1.976-2.291,2.25,1.5c-3.791-3.723-5.527-3.6-10.5-4.5C391.027,408.593,385.359,412.916,384.5,418.39z"/>
<path fill-rule="evenodd" clip-rule="evenodd" fill="#BFBFC0" d="M365,403.39C364,403.39,364,403.39,365,403.39L365,403.39z"/>
<path fill-rule="evenodd" clip-rule="evenodd" fill="#8F9290" d="M392.75,435.64c2.789-0.626-1.944-3.323-8.25,3.75  C391.238,443.541,388.712,436.91,392.75,435.64z"/>
<path fill-rule="evenodd" clip-rule="evenodd" fill="#303030" d="M398.75,426.64C403.636,419.478,398.271,427.342,398.75,426.64  L398.75,426.64z"/>
<path fill-rule="evenodd" clip-rule="evenodd" fill="#8F9290" d="M398,401.14c-8.174-14.893-27.59-13.787-39.75-5.25  c1.814,8.222,0.506,14.458,3.75,18.75C355.823,434.269,405.879,424.559,398,401.14z"/>
<path fill-rule="evenodd" clip-rule="evenodd" fill="#303030" d="M362,404.14c3.494-0.144,4.046,6.939,5.25-0.75  c4.22,7.662,4.898,13.055,3.75,21.75C367.154,415.869,367.262,413.515,362,404.14z"/>
<path fill-rule="evenodd" clip-rule="evenodd" fill="#303030" d="M371,389.14c3.323,3.728,2.588,9.331,8.25,6  c-1.708,0.123-1.146,0.37-0.75-0.75C372.92,394.955,373.495,391.51,371,389.14z"/>
<path fill-rule="evenodd" clip-rule="evenodd" fill="#303030" d="M374.75,408.64c-0.343,6.681,1.937,10.025-3,15.75  c-0.979-3.656,2.441-0.063-3,0.75C380.082,422.983,381.703,416.228,374.75,408.64z"/>
<path fill-rule="evenodd" clip-rule="evenodd" fill="#BFBFC0" d="M398,401.14C399,401.14,399,401.14,398,401.14L398,401.14z"/>
<path fill-rule="evenodd" clip-rule="evenodd" fill="#8F9290" d="M356,405.64c-0.707,1.674,4.019-1.539,2.25-9.75  C349.854,399.215,356.5,400.557,356,405.64z"/>
<path fill-rule="evenodd" clip-rule="evenodd" fill="#303030" d="M359.75,415.39C361.168,425.634,359.481,413.449,359.75,415.39  L359.75,415.39z"/>
<path fill-rule="evenodd" clip-rule="evenodd" fill="#8F9290" d="M374.75,437.89c-8.352-14.677-27.539-13.809-40.5-5.25  c2.036,8.743,0.834,14.502,4.5,18.75c-0.834,2.028-2.88,3.912-3.75,6C346.969,465.526,382.166,459.849,374.75,437.89z"/>
<path fill-rule="evenodd" clip-rule="evenodd" fill="#303030" d="M338.75,440.89c3.342,0.073,4.439,6.708,4.5-0.75  c4.75,7.92,5.738,13.934,4.5,21.75C343.752,453.458,342.96,449.976,338.75,440.89z"/>
<path fill-rule="evenodd" clip-rule="evenodd" fill="#303030" d="M347,425.89c3.752,3.864,3.447,8.994,9,6  c-1.7-0.007-1.177,0.484-0.75-0.75C350.057,431.25,349.594,428.243,347,425.89z"/>
<path fill-rule="evenodd" clip-rule="evenodd" fill="#303030" d="M350.75,445.39c0.08,6.911,3.591,10.096-3,15.75  c-2.058-2.094,4.854-0.082-2.25,0.75c5.312-1.584,5.684-2.526,9.75-6C355.666,455.035,354.312,448.924,350.75,445.39z"/>
<path fill-rule="evenodd" clip-rule="evenodd" fill="#BFBFC0" d="M374.75,437.89L374.75,437.89z"/>
<path fill-rule="evenodd" clip-rule="evenodd" fill="#8F9290" d="M332,442.39c-0.341,0.652,4.552-0.215,2.25-9.75  C326.572,436.455,333.59,437.872,332,442.39z"/>
<path fill-rule="evenodd" clip-rule="evenodd" fill="#303030" d="M335.75,452.14C339.161,458.423,336.208,452.984,335.75,452.14  L335.75,452.14z"/>
<path fill-rule="evenodd" clip-rule="evenodd" fill="#8F9290" d="M344,427.39c-11.216,25.232,26.921,46.341,31.5,21  C395.249,442.807,358.726,407.483,344,427.39z"/>
<path fill-rule="evenodd" clip-rule="evenodd" fill="#303030" d="M367.25,455.14c-2.107-2.835,2.863-7.215-3.75-3.75  c3.782-8.035,7.82-12.233,15.75-15.75C373.328,444.326,371.15,445.334,367.25,455.14z"/>
<path fill-rule="evenodd" clip-rule="evenodd" fill="#303030" d="M350,456.64c1.123-5.155,5.118-6.81,0.75-11.25  c0.171,1.29-1.816,1.734-0.75,1.5C352.198,451.638,350.37,453.685,350,456.64z"/>
<path fill-rule="evenodd" clip-rule="evenodd" fill="#303030" d="M363.5,442.39c5.411-4.034,5.629-8.955,14.25-6.75  c-0.201,1.104-1.865-2.55,2.25,1.5c-4.548-4.566-5.009-3.342-10.5-4.5C369.353,432.637,364.453,436.362,363.5,442.39z"/>
<path fill-rule="evenodd" clip-rule="evenodd" fill="#BFBFC0" d="M344,427.39C343,427.39,343,427.39,344,427.39L344,427.39z"/>
<path fill-rule="evenodd" clip-rule="evenodd" fill="#8F9290" d="M371.75,458.89c3.483-1.111-3.391-1.678-8.25,3.75  C370.574,467.815,367.861,460.798,371.75,458.89z"/>
<path fill-rule="evenodd" clip-rule="evenodd" fill="#303030" d="M377.75,450.64C380.603,444.635,378.25,449.586,377.75,450.64  L377.75,450.64z"/>
<path fill-rule="evenodd" clip-rule="evenodd" fill="#8F9290" d="M377,425.14c-9.701-14.379-26.956-15.02-40.5-5.25  c3.867,15.169-1.2,22.635,8.25,26.25C357.48,451.01,382.939,443.442,377,425.14z"/>
<path fill-rule="evenodd" clip-rule="evenodd" fill="#303030" d="M341,427.39c3.302,0.405,4.178,7.959,4.5,0  c5.137,7.867,5.916,14.121,3.75,21.75c-1.255-5.45-1.822-5.969-1.5-11.25C345.799,437.112,343.905,432.068,341,427.39z"/>
<path fill-rule="evenodd" clip-rule="evenodd" fill="#303030" d="M349.25,412.39c3.929,4.354,3.131,9.715,9,6.75  c-1.822-0.034-0.836-0.543-0.75-0.75C352.354,418.436,352.328,415.395,349.25,412.39z"/>
<path fill-rule="evenodd" clip-rule="evenodd" fill="#303030" d="M353,431.89c0.09,6.939,3.689,10.213-3,15.75  c-1.097-1.533,4.248,0.013-2.25,1.5c5.569-1.059,6.062-2.794,9.75-6C358.084,442.255,357.476,436.062,353,431.89z"/>
<path fill-rule="evenodd" clip-rule="evenodd" fill="#BFBFC0" d="M377,425.14L377,425.14z"/>
<path fill-rule="evenodd" clip-rule="evenodd" fill="#8F9290" d="M335,428.89c-0.986,2.206,3.742,0.296,1.5-9  C329.372,423.075,335.226,424.699,335,428.89z"/>
<path fill-rule="evenodd" clip-rule="evenodd" fill="#303030" d="M338,438.64C341.571,444.952,338.806,440.065,338,438.64  L338,438.64z"/>
<path fill-rule="evenodd" clip-rule="evenodd" fill="#8F9290" d="M364.25,414.64c-12.94-23.789-53.826-6.136-36,12.75  c-0.767,2.307-2.903,3.732-3.75,6C337.107,442.094,370.982,435.951,364.25,414.64z"/>
<path fill-rule="evenodd" clip-rule="evenodd" fill="#303030" d="M327.5,416.89c3.499,0.265,4.124,6.607,5.25,0  c4.716,8.031,5.289,12.513,4.5,21C333.391,429.382,334.381,424.982,327.5,416.89z"/>
<path fill-rule="evenodd" clip-rule="evenodd" fill="#303030" d="M336.5,401.89c3.882,4.266,2.823,9.579,9,6.75  c-1.891-0.306-0.646-0.963-0.75-0.75C339.271,407.285,339.564,404.839,336.5,401.89z"/>
<path fill-rule="evenodd" clip-rule="evenodd" fill="#303030" d="M340.25,421.39c0.085,6.94,3.691,10.211-3,15.75  c-2.121-1.97,4.888,0.067-2.25,0.75c5.654-0.841,5.745-2.553,9.75-6C344.376,432.303,344.769,425.907,340.25,421.39z"/>
<path fill-rule="evenodd" clip-rule="evenodd" fill="#BFBFC0" d="M364.25,413.89C364.25,414.89,364.25,414.89,364.25,413.89  L364.25,413.89z"/>
<path fill-rule="evenodd" clip-rule="evenodd" fill="#8F9290" d="M321.5,418.39c-0.74,1.383,4.445,1.1,2.25-9  C316.204,412.086,322.365,413.839,321.5,418.39z"/>
<path fill-rule="evenodd" clip-rule="evenodd" fill="#303030" d="M325.25,428.14C328.626,434.721,325.753,429.121,325.25,428.14  L325.25,428.14z"/>
<path fill-rule="evenodd" clip-rule="evenodd" fill="#8F9290" d="M333.5,403.39c-7.961,15.674,4.899,31.537,19.5,36  c5.538-6.445,10.882-9.232,12-14.25C384.601,417.984,347.388,384.162,333.5,403.39z"/>
<path fill-rule="evenodd" clip-rule="evenodd" fill="#303030" d="M356.75,431.14c-2.106-2.835,2.863-7.215-3.75-3.75  c3.812-7.874,7.73-11.464,15-15.75C363.229,419.558,360.412,422.127,356.75,431.14z"/>
<path fill-rule="evenodd" clip-rule="evenodd" fill="#303030" d="M339.5,433.39c1.195-5.701,5.689-8.381,0-11.25  c0.82,1.675-0.739,0.828,0,0.75C341.666,427.777,339.94,429.64,339.5,433.39z"/>
<path fill-rule="evenodd" clip-rule="evenodd" fill="#303030" d="M353,418.39c5.707-3.945,5.905-8.804,14.25-6.75  c-0.063,1.796-1.959-2.347,2.25,1.5c-3.876-3.726-5.637-3.59-10.5-4.5C358.592,408.656,354.043,412.694,353,418.39z"/>
<path fill-rule="evenodd" clip-rule="evenodd" fill="#BFBFC0" d="M332.75,403.39C333.75,403.39,333.75,403.39,332.75,403.39  L332.75,403.39z"/>
<path fill-rule="evenodd" clip-rule="evenodd" fill="#8F9290" d="M361.25,435.64c2.789-0.626-1.944-3.323-8.25,3.75  C359.738,443.541,357.212,436.91,361.25,435.64z"/>
<path fill-rule="evenodd" clip-rule="evenodd" fill="#303030" d="M367.25,426.64C371.271,419.736,367.09,426.915,367.25,426.64  L367.25,426.64z"/>
<path fill-rule="evenodd" clip-rule="evenodd" fill="#8F9290" d="M366.5,401.14c-8.301-14.855-27.775-13.633-40.5-5.25  c2.184,8.63,1.121,14.664,4.5,18.75c-0.85,2.065-2.807,3.891-3.75,6C338.818,428.843,373.996,423.1,366.5,401.14z"/>
<path fill-rule="evenodd" clip-rule="evenodd" fill="#303030" d="M330.5,404.14c3.33,0.034,4.439,6.736,4.5-0.75  c4.911,7.832,5.924,13.847,4.5,21.75c-2.208-5.445-2.634-4.571-2.25-10.5C335.255,413.15,332.766,407.941,330.5,404.14z"/>
<path fill-rule="evenodd" clip-rule="evenodd" fill="#303030" d="M338.75,389.14c3.81,3.907,3.584,9.248,9,6  c-1.743-0.007-1.119,0.469-0.75-0.75C341.75,394.5,341.43,391.458,338.75,389.14z"/>
<path fill-rule="evenodd" clip-rule="evenodd" fill="#303030" d="M342.5,408.64c0.107,6.91,3.578,10.107-3,15.75  c-2.152-2.087,5.049-0.069-2.25,0.75c5.297-1.583,5.713-2.481,9.75-6C347.5,418.125,346.147,412.259,342.5,408.64z"/>
<path fill-rule="evenodd" clip-rule="evenodd" fill="#BFBFC0" d="M366.5,401.14L366.5,401.14z"/>
<path fill-rule="evenodd" clip-rule="evenodd" fill="#8F9290" d="M324.5,405.64c-0.689,1.735,3.669-1.506,1.5-9.75  C318.422,399.865,324.603,400.893,324.5,405.64z"/>
<path fill-rule="evenodd" clip-rule="evenodd" fill="#303030" d="M327.5,415.39C330.911,421.673,327.958,416.234,327.5,415.39  L327.5,415.39z"/>
<path fill-rule="evenodd" clip-rule="evenodd" fill="#8F9290" d="M491.75,416.14c-11.695-22.124-31.849-16.067-49.5-6.75  c0.079,9.846,2.228,21.099,5.25,25.5C435.416,459.167,506.063,449.55,491.75,416.14z"/>
<path fill-rule="evenodd" clip-rule="evenodd" fill="#303030" d="M447.5,419.89c2.33-0.099,4.187,4.287,4.5,6  c0.394-0.784,1.443-5.752,1.5-6.75c5.858,8.933,7.636,20.703,4.5,30c-5.705-8.222-3.015-5.934-2.25-15  C453.997,433.392,451.292,426.356,447.5,419.89z"/>
<path fill-rule="evenodd" clip-rule="evenodd" fill="#303030" d="M458,398.89c4.781,5.319,1.258,11.52,10.5,10.5  c-1.453-0.709-0.921-1.947-0.75-2.25C460.866,406.95,462.068,402.358,458,398.89z"/>
<path fill-rule="evenodd" clip-rule="evenodd" fill="#303030" d="M462.5,425.89c1.198,9.153,3.616,14.654-3.75,21.75  c-1.763-3.237,4.679,0.01-2.25,1.5c6.538-1.577,6.646-4.218,11.25-8.25C468.773,439.597,468.284,431.924,462.5,425.89z"/>
<path fill-rule="evenodd" clip-rule="evenodd" fill="#BFBFC0" d="M491.75,416.14L491.75,416.14z"/>
<path fill-rule="evenodd" clip-rule="evenodd" fill="#8F9290" d="M440,422.14c3.446-0.749,5.563,0.729,2.25-12.75  C434.074,413.457,439.232,415.753,440,422.14z"/>
<path fill-rule="evenodd" clip-rule="evenodd" fill="#303030" d="M444.5,435.64c0.119,1.892-2.021,4.084-1.5,6.75  C449.423,435.946,444.482,435.36,444.5,435.64z"/>
<path fill-rule="evenodd" clip-rule="evenodd" fill="#8F9290" d="M454.25,401.89c-10.657,23.484,7.012,38.222,23.25,48.75  c7.917-6.362,14.47-14.267,15-19.5c2.473-0.296,6.045-0.648,9-0.75C499.003,417.182,468.715,369.446,454.25,401.89z"/>
<path fill-rule="evenodd" clip-rule="evenodd" fill="#303030" d="M482.75,440.14c-1.252-2.284-0.497-5.361,0.75-7.5  c0.6,0.336-5.751,1.725-5.25,1.5c2.851-9.092,9.679-17.543,18-21.75c-0.729,9.933-1.328,6.738-8.25,11.25  C487.818,426.001,483.865,434.551,482.75,440.14z"/>
<path fill-rule="evenodd" clip-rule="evenodd" fill="#303030" d="M461,442.39c1.372-7.129,7.816-8.642,1.5-15.75  c0.356,1.364-1.672,2.275-1.5,2.25C466.045,435.121,461.149,436.195,461,442.39z"/>
<path fill-rule="evenodd" clip-rule="evenodd" fill="#303030" d="M478.25,422.14c5.247-6.773,7.785-11.535,17.25-9  c-2.438,2.422-2.232-3.854,3,1.5c-4.599-5.266-7.012-4.129-12.75-6C483.889,409.016,478.726,414.854,478.25,422.14z"/>
<path fill-rule="evenodd" clip-rule="evenodd" fill="#BFBFC0" d="M453.5,401.89C454.104,401.287,454.104,401.287,453.5,401.89  L453.5,401.89z"/>
<path fill-rule="evenodd" clip-rule="evenodd" fill="#8F9290" d="M488,445.39c-2.776-2.511-1.57-6.227-10.5,5.25  C485.518,455.839,483.894,449.642,488,445.39z"/>
<path fill-rule="evenodd" clip-rule="evenodd" fill="#303030" d="M495.5,433.39c0.25-0.405,4.887-1.31,6-3  C489.37,428.591,496.242,432.187,495.5,433.39z"/>
<path fill-rule="evenodd" clip-rule="evenodd" fill="#8F9290" d="M494.75,398.14c-11.574-21.82-31.896-16.48-49.5-6.75  c0.079,9.846,2.228,21.099,5.25,25.5C438.258,441.541,508.156,431.987,494.75,398.14z"/>
<path fill-rule="evenodd" clip-rule="evenodd" fill="#303030" d="M450.5,401.89c2.444,0.437,4.112,3.878,4.5,6  c-0.274,0.234,1.48-5.784,1.5-6c6.047,8.678,7.367,19.464,5.25,29.25c-7.018-7.976-3.896-5.294-3-14.25  C456.734,415.224,453.943,407.536,450.5,401.89z"/>
<path fill-rule="evenodd" clip-rule="evenodd" fill="#303030" d="M461,381.64c4.753,5.027,1.718,10.911,10.5,9.75  c-2.173-1.126-1.006-1.585-0.75-2.25C464.473,388.496,464.295,384.242,461,381.64z"/>
<path fill-rule="evenodd" clip-rule="evenodd" fill="#303030" d="M465.5,408.64c1.402,8.676,3.332,14.168-3.75,21  c0.333-4.579,2.821,0.443-3,1.5c7.251-1.32,7.004-3.609,12-8.25C470.899,422.672,470.325,414.195,465.5,408.64z"/>
<path fill-rule="evenodd" clip-rule="evenodd" fill="#BFBFC0" d="M494,398.14C495,398.14,495,398.14,494,398.14L494,398.14z"/>
<path fill-rule="evenodd" clip-rule="evenodd" fill="#8F9290" d="M443,404.14c3.446-0.749,5.563,0.729,2.25-12.75  C436.714,395.614,442.144,397.848,443,404.14z"/>
<path fill-rule="evenodd" clip-rule="evenodd" fill="#303030" d="M447.5,417.64c-0.023,3.309-3.448,2.953-1.5,6.75  C452.207,418.162,447.505,416.957,447.5,417.64z"/>
<path fill-rule="evenodd" clip-rule="evenodd" fill="#8F9290" d="M465.5,449.14c-14.044-32.682-65.304-8.973-43.5,18  C408.172,492.097,480.979,481.89,465.5,449.14z"/>
<path fill-rule="evenodd" clip-rule="evenodd" fill="#303030" d="M422,452.89c1.322,0.174,3.939,4.335,4.5,5.25  c0.107-0.184,1.458-5.627,1.5-6c5.574,8.102,7.211,19.725,5.25,29.25C424.284,473.164,429.238,464.31,422,452.89z"/>
<path fill-rule="evenodd" clip-rule="evenodd" fill="#303030" d="M432.5,431.89c4.908,5.229,1.706,12.19,10.5,9.75  c0.692,0.223-1.873-3.614-2.25-1.5c0.5,0,1,0,1.5,0C435.142,439.044,436.514,435.362,432.5,431.89z"/>
<path fill-rule="evenodd" clip-rule="evenodd" fill="#303030" d="M437,458.89c0.89,9.038,3.214,14.576-3.75,21.75  c0.75-1,1.5-2,2.25-3c-0.427,1.509-3.703,4.241-5.25,4.5c7.044-1.366,7.062-4.002,12-8.25  C442.441,473.51,441.479,464.304,437,458.89z"/>
<path fill-rule="evenodd" clip-rule="evenodd" fill="#BFBFC0" d="M465.5,449.14C466.5,449.14,466.5,449.14,465.5,449.14  L465.5,449.14z"/>
<path fill-rule="evenodd" clip-rule="evenodd" fill="#8F9290" d="M414.5,455.14c2.67-0.925,5.148,0.676,2.25-12.75  C408.114,446.109,413.64,448.768,414.5,455.14z"/>
<path fill-rule="evenodd" clip-rule="evenodd" fill="#303030" d="M419,467.89c-0.075,3.193-3.303,3.797-1.5,7.5  C423.305,469.086,419.022,466.935,419,467.89z"/>
<path fill-rule="evenodd" clip-rule="evenodd" fill="#8F9290" d="M428,434.14c-8.54,22.386,5.204,39.079,24,48.75  c8.211-5.244,14.357-13.007,15-19.5c2.702-0.33,5.395,0.177,8.25,0C473.546,446.901,443.01,403.99,428,434.14z"/>
<path fill-rule="evenodd" clip-rule="evenodd" fill="#303030" d="M456.5,472.39c-0.702-2.099,0.586-5.606,1.5-7.5  c1.796,0.469-6.345,2.848-5.25,2.25c2.39-9.52,9.443-17.774,18-21.75C469.317,459.41,460.521,457.382,456.5,472.39z"/>
<path fill-rule="evenodd" clip-rule="evenodd" fill="#303030" d="M435.5,475.39c0.973-7.541,7.977-10.469,0-15.75  c1.755,2.739,0.577,1.436,0,1.5C439.492,467.646,435.392,469.426,435.5,475.39z"/>
<path fill-rule="evenodd" clip-rule="evenodd" fill="#303030" d="M452,455.14c5.662-6.789,8.437-11.762,18-9.75  c-4.097,2.374-1.31-2.077,2.25,2.25c-4.593-5.601-6.497-4.029-12.75-6C458.673,441.622,453.041,446.644,452,455.14z"/>
<path fill-rule="evenodd" clip-rule="evenodd" fill="#BFBFC0" d="M428,434.14L428,434.14z"/>
<path fill-rule="evenodd" clip-rule="evenodd" fill="#8F9290" d="M462.5,478.39c-2.73-2.651-1.309-6.224-10.5,4.5  C459.759,489.044,457.953,482.369,462.5,478.39z"/>
<path fill-rule="evenodd" clip-rule="evenodd" fill="#303030" d="M469.25,466.39c1.83-1.738,4.539,0.497,6-3  C465.426,460.764,470.123,465.561,469.25,466.39z"/>
<path fill-rule="evenodd" clip-rule="evenodd" fill="#8F9290" d="M468.5,431.14c-15.162-33.252-66.271-6.682-43.5,18  C411.309,474.272,484.331,464.636,468.5,431.14z"/>
<path fill-rule="evenodd" clip-rule="evenodd" fill="#303030" d="M425,434.89c1.264,0.104,3.981,4.404,4.5,5.25  c-0.49,0.819,1.667-7.189,1.5-6c5.531,8.283,7.692,20.635,3.75,30c-3.319-5.715-3.771-14.224-3.75-12.75  C429.589,444.833,428.491,440.603,425,434.89z"/>
<path fill-rule="evenodd" clip-rule="evenodd" fill="#303030" d="M435.5,413.89c4.53,5.776,2.611,13.587,10.5,9  c-0.835,0.111-1.585-0.139-2.25-0.75C441.203,422.364,439.315,417.329,435.5,413.89z"/>
<path fill-rule="evenodd" clip-rule="evenodd" fill="#303030" d="M440,440.89c1.097,8.983,3.126,14.668-3.75,21.75  c0.746-4.997,2.281,0.504-3,1.5c7.017-1.36,7.114-3.923,12-8.25C445.401,455.612,444.592,446.571,440,440.89z"/>
<path fill-rule="evenodd" clip-rule="evenodd" fill="#BFBFC0" d="M468.5,431.14C469.5,431.14,469.5,431.14,468.5,431.14  L468.5,431.14z"/>
<path fill-rule="evenodd" clip-rule="evenodd" fill="#8F9290" d="M417.5,437.14c2.386-0.724,4.588,0.51,2.25-12.75  C411.127,428.81,416.71,431.09,417.5,437.14z"/>
<path fill-rule="evenodd" clip-rule="evenodd" fill="#303030" d="M422,449.89c-0.142,3.221-3.302,3.8-1.5,7.5  C425.995,451.347,422.049,448.77,422,449.89z"/>
<path fill-rule="evenodd" clip-rule="evenodd" fill="#8F9290" d="M452.75,416.14c-16.013-33.361-66.141-5.846-43.5,18.75  C396.849,459.906,468.303,448.868,452.75,416.14z"/>
<path fill-rule="evenodd" clip-rule="evenodd" fill="#303030" d="M409.25,419.89c1.364,0.071,3.945,5.008,4.5,6  c0.293-0.762,1.435-6.185,1.5-6.75c5.49,8.191,7.737,20.758,3.75,30c-3.822-6.223-3.72-13.792-3.75-12.75  C413.668,429.947,412.604,425.834,409.25,419.89z"/>
<path fill-rule="evenodd" clip-rule="evenodd" fill="#303030" d="M419.75,398.89c4.438,5.468,1.606,12.695,10.5,9.75  c-0.534-0.023-2.407-0.741-2.25-1.5C424.24,408.298,424.109,402.638,419.75,398.89z"/>
<path fill-rule="evenodd" clip-rule="evenodd" fill="#303030" d="M424.25,425.89c1.097,8.983,3.126,14.668-3.75,21.75  c0.804-4.825,2.46,0.557-3,1.5c7.003-1.358,7.143-3.885,12-8.25C429.651,440.612,428.842,431.571,424.25,425.89z"/>
<path fill-rule="evenodd" clip-rule="evenodd" fill="#BFBFC0" d="M452.75,416.14C453.75,416.14,453.75,416.14,452.75,416.14  L452.75,416.14z"/>
<path fill-rule="evenodd" clip-rule="evenodd" fill="#8F9290" d="M401.75,422.14c2.576-0.688,4.579,0.591,2.25-12.75  C395.409,413.793,400.909,416.089,401.75,422.14z"/>
<path fill-rule="evenodd" clip-rule="evenodd" fill="#303030" d="M405.5,435.64c0.698,2.665-2.208,3.604-0.75,6.75  C412.497,434.617,405.748,436.585,405.5,435.64z"/>
<path fill-rule="evenodd" clip-rule="evenodd" fill="#8F9290" d="M415.25,401.89c-9.203,22.845,6.781,37.851,24,48.75  c7.931-5.915,14.163-13.842,15-20.25C480.283,427.506,430.442,369.243,415.25,401.89z"/>
<path fill-rule="evenodd" clip-rule="evenodd" fill="#303030" d="M443.75,440.14c-1.089-2.201,0.229-5.807,1.5-7.5  c0.092,0.049-5.002,1.381-5.25,1.5c2.188-9.968,9.309-17.824,18-21.75c-1.123,9.865-1.766,6.825-8.25,11.25  C449.497,426.42,445.479,433.224,443.75,440.14z"/>
<path fill-rule="evenodd" clip-rule="evenodd" fill="#303030" d="M422.75,442.39c1.299-7.534,7.272-9.555,0.75-15.75  C424.196,430.116,422.554,437.33,422.75,442.39z"/>
<path fill-rule="evenodd" clip-rule="evenodd" fill="#303030" d="M439.25,422.14c6.434-6.258,7.918-11.602,18-9  c-1.25-0.25-2.5-0.5-3.75-0.75c1.802-0.537,4.908,0.83,6,2.25c-4.69-5.747-6.436-4.048-12.75-6  C446.116,408.678,440.38,414.095,439.25,422.14z"/>
<path fill-rule="evenodd" clip-rule="evenodd" fill="#BFBFC0" d="M415.25,401.89C415.25,400.89,415.25,400.89,415.25,401.89  L415.25,401.89z"/>
<path fill-rule="evenodd" clip-rule="evenodd" fill="#8F9290" d="M449.75,445.39c-2.879-2.614-1.581-6.32-10.5,5.25  C446.859,455.744,445.461,449.722,449.75,445.39z"/>
<path fill-rule="evenodd" clip-rule="evenodd" fill="#303030" d="M456.5,433.39c1.261-1.521,4.474-0.077,6-3  C451.229,428.217,457.339,432.377,456.5,433.39z"/>
<path fill-rule="evenodd" clip-rule="evenodd" fill="#8F9290" d="M455.75,398.14c-15.546-32.922-66.442-6.174-43.5,18.75  c-1.434,2.293-3.244,5.043-5.25,7.5C420.879,432.002,470.429,430.541,455.75,398.14z"/>
<path fill-rule="evenodd" clip-rule="evenodd" fill="#303030" d="M411.5,401.89c2.434,0.355,4.123,3.939,4.5,6  c0.133-0.117,2.243-5.963,2.25-6c5.468,8.388,7.204,19.754,4.5,29.25c-5.433-7.582-3.632-5.65-3-14.25  C418.781,415.716,414.95,406.485,411.5,401.89z"/>
<path fill-rule="evenodd" clip-rule="evenodd" fill="#303030" d="M422.75,381.64c4.696,4.98,1.293,12.2,10.5,9  c-0.642-0.102-2.403-0.705-2.25-1.5C428.097,389.467,426.266,384.25,422.75,381.64z"/>
<path fill-rule="evenodd" clip-rule="evenodd" fill="#303030" d="M427.25,408.64c1.208,8.494,2.817,13.958-3.75,21  c0.431-4.499,2.708,0.302-3,1.5c7.207-1.267,6.741-3.809,11.25-8.25C432.231,422.311,431.875,414.351,427.25,408.64z"/>
<path fill-rule="evenodd" clip-rule="evenodd" fill="#BFBFC0" d="M455.75,398.14C456.75,398.14,456.75,398.14,455.75,398.14  L455.75,398.14z"/>
<path fill-rule="evenodd" clip-rule="evenodd" fill="#8F9290" d="M404.75,404.14c2.576-0.688,4.579,0.591,2.25-12.75  C398.409,395.793,403.909,398.089,404.75,404.14z"/>
<path fill-rule="evenodd" clip-rule="evenodd" fill="#303030" d="M408.5,417.64c0.337,1.674-1.626,4.626-1.5,6.75  C415.464,416.897,408.644,418.353,408.5,417.64z"/>
</svg>