<svg xmlns="http://www.w3.org/2000/svg" xmlns:xlink="http://www.w3.org/1999/xlink" version="1.1" id="Layer_1" x="0px" y="0px" enable-background="new 0 0 822.05 841.89" xml:space="preserve" viewBox="204.21 247.18 412.71 347">
<path fill="none" stroke="#000000" stroke-width="2" stroke-linecap="square" stroke-miterlimit="10" d="M335.706,273.675  c-37.119-15.474,24.081-19.197,33.984-18.867c32.37,1.079,76.004,24.955,107.768,14.367c20.472-6.824,49.838-4.55,65.25,12  c17.163,18.43,9.229,41.012,39,45.75c16.266,2.589,46.301-8.117,8.25,17.25c-18.885,12.59-50.759,17.617-69,0.75  c-20.139-18.622-18.928-46.129-48.75-58.5C432.898,270.119,377.47,276.658,335.706,273.675z"/>
<line fill="none" stroke="#000000" stroke-width="2" stroke-linecap="square" stroke-miterlimit="10" x1="322.956" y1="264.675" x2="322.956" y2="398.175"/>
<line fill="none" stroke="#000000" stroke-width="2" stroke-linecap="square" stroke-miterlimit="10" x1="385.956" y1="278.175" x2="385.956" y2="397.425"/>
<line fill="none" stroke="#000000" stroke-width="2" stroke-linecap="square" stroke-miterlimit="10" x1="419.708" y1="281.925" x2="419.708" y2="398.175"/>
<line fill="none" stroke="#000000" stroke-width="2" stroke-linecap="square" stroke-miterlimit="10" x1="454.958" y1="283.425" x2="454.958" y2="398.175"/>
<line fill="none" stroke="#000000" stroke-width="2" stroke-linecap="square" stroke-miterlimit="10" x1="489.458" y1="297.675" x2="489.458" y2="398.175"/>
<line fill="none" stroke="#000000" stroke-width="2" stroke-linecap="square" stroke-miterlimit="10" x1="523.958" y1="348.675" x2="523.958" y2="398.175"/>
<line fill="none" stroke="#000000" stroke-width="2" stroke-linecap="square" stroke-miterlimit="10" x1="555.458" y1="356.175" x2="555.458" y2="398.925"/>
<line fill="none" stroke="#000000" stroke-width="2" stroke-linecap="square" stroke-miterlimit="10" x1="591.458" y1="397.425" x2="591.458" y2="345.675"/>
<path fill="none" stroke="#000000" stroke-width="2" stroke-linecap="square" stroke-miterlimit="10" d="M607.958,325.425  c0,24.25,0,48.5,0,72.75"/>
<path fill="none" stroke="#000000" stroke-width="2" stroke-linecap="square" stroke-miterlimit="10" d="M606.458,330.675  c-5.25,20.5-10.5,41-15.75,61.5c-10.75-11-21.5-22-32.25-33c-11.5,11.25-23,22.5-34.5,33.75c-11.5-30.75-23-61.5-34.5-92.25  c-11.5,31.5-23,63-34.5,94.5c-11.75-38.25-23.5-76.5-35.25-114.75c-11.25,38.25-22.501,76.5-33.752,114.75  c-11.5-39.5-23-79-34.5-118.5c-0.5,40.25-1,80.5-1.5,120.75"/>
<line fill="none" stroke="#000000" stroke-width="2" stroke-linecap="square" stroke-miterlimit="10" x1="322.956" y1="394.425" x2="351.456" y2="276.675"/>
<path fill="none" stroke="#000000" stroke-width="2" stroke-linecap="square" stroke-miterlimit="10" d="M322.206,266.925  c9,42.5,18,85,27,127.5c11.5-38.5,23-77,34.5-115.5c11.75,39,23.501,78,35.252,117c12-37,24-74,36-111  c10.75,36.75,21.5,73.5,32.25,110.25c12.5-15,25-30,37.5-45c10.5,15.75,21,31.5,31.5,47.25c11.25-16.5,22.5-33,33.75-49.5  c5.75,16,11.5,32,17.25,48"/>
<path fill-rule="evenodd" clip-rule="evenodd" fill="#BCBEC0" stroke="#000000" stroke-width="2" stroke-linecap="square" stroke-miterlimit="10" d="  M376.956,268.425C365.517,271.62,365.831,264.345,376.956,268.425L376.956,268.425z"/>
<path fill-rule="evenodd" clip-rule="evenodd" fill="#BCBEC0" stroke="#000000" stroke-width="2" stroke-linecap="square" stroke-miterlimit="10" d="  M397.956,269.925C385.459,273.195,386.916,264.739,397.956,269.925L397.956,269.925z"/>
<path fill-rule="evenodd" clip-rule="evenodd" fill="#BCBEC0" stroke="#000000" stroke-width="2" stroke-linecap="square" stroke-miterlimit="10" d="  M420.458,270.675C409.217,274.368,409.217,266.983,420.458,270.675L420.458,270.675z"/>
<path fill-rule="evenodd" clip-rule="evenodd" fill="#BCBEC0" stroke="#000000" stroke-width="2" stroke-linecap="square" stroke-miterlimit="10" d="  M441.458,272.175C429.628,277.289,429.628,267.062,441.458,272.175L441.458,272.175z"/>
<path fill-rule="evenodd" clip-rule="evenodd" fill="#BCBEC0" stroke="#000000" stroke-width="2" stroke-linecap="square" stroke-miterlimit="10" d="  M461.708,275.175C450.14,277.58,450.809,270.878,461.708,275.175L461.708,275.175z"/>
<path fill-rule="evenodd" clip-rule="evenodd" fill="#BCBEC0" stroke="#000000" stroke-width="2" stroke-linecap="square" stroke-miterlimit="10" d="  M482.708,279.675C470.311,282.077,470.86,274.947,482.708,279.675L482.708,279.675z"/>
<path fill-rule="evenodd" clip-rule="evenodd" fill="#BCBEC0" stroke="#000000" stroke-width="2" stroke-linecap="square" stroke-miterlimit="10" d="  M496.208,291.675C484.794,288.481,488.411,283.137,496.208,291.675L496.208,291.675z"/>
<path fill-rule="evenodd" clip-rule="evenodd" fill="#BCBEC0" stroke="#000000" stroke-width="2" stroke-linecap="square" stroke-miterlimit="10" d="  M512.708,305.175C499.375,302.915,505.115,293.717,512.708,305.175L512.708,305.175z"/>
<path fill-rule="evenodd" clip-rule="evenodd" fill="#BCBEC0" stroke="#000000" stroke-width="2" stroke-linecap="square" stroke-miterlimit="10" d="  M517.958,324.675C507.048,317.451,515.291,311.55,517.958,324.675L517.958,324.675z"/>
<path fill-rule="evenodd" clip-rule="evenodd" fill="#BCBEC0" stroke="#000000" stroke-width="2" stroke-linecap="square" stroke-miterlimit="10" d="  M528.458,342.675C519.59,334.961,525.085,330.25,528.458,342.675L528.458,342.675z"/>
<path fill-rule="evenodd" clip-rule="evenodd" fill="#ED1C24" stroke="#000000" stroke-width="2" stroke-linecap="square" stroke-miterlimit="10" d="  M530.708,308.175c-37.416-7.809,12.997,58.562,8.25,18.75C524.962,327.333,524.405,318.65,530.708,308.175z"/>
<path fill-rule="evenodd" clip-rule="evenodd" fill="#ED1C24" stroke="#000000" stroke-width="2" stroke-linecap="square" stroke-miterlimit="10" d="  M370.956,248.175c-27.116,26.397,54.62,24.035,20.25,3.75C383.919,264.75,375.932,259.528,370.956,248.175z"/>
<path fill-rule="evenodd" clip-rule="evenodd" fill="#ED1C24" stroke="#000000" stroke-width="2" stroke-linecap="square" stroke-miterlimit="10" d="  M414.458,251.175c-26.139,24.043,31.439,18.446,30.375,13.125C441.433,247.3,423.707,270.971,414.458,251.175z"/>
<path fill-rule="evenodd" clip-rule="evenodd" fill="#ED1C24" stroke="#000000" stroke-width="2" stroke-linecap="square" stroke-miterlimit="10" d="  M457.958,254.925c-27.938,21.073,28.5,22.599,28.5,17.625C486.458,256.574,464.514,275.345,457.958,254.925z"/>
<path fill-rule="evenodd" clip-rule="evenodd" fill="#ED1C24" stroke="#000000" stroke-width="2" stroke-linecap="square" stroke-miterlimit="10" d="  M502.208,272.175c-39.127,4.094,34.151,51.227,14.25,14.25C503.87,292.456,500.177,283.598,502.208,272.175z"/>
<path fill="none" stroke="#000000" stroke-width="2" stroke-linecap="square" stroke-miterlimit="10" d="M218.706,344.175  c-38.064-15.302,23.477-19.192,33.234-18.867c36.235,1.208,71.34,20.063,107.766,13.992c22.069-3.678,52.923-7.243,67.502,14.625  c9.661,14.491,12.979,49.443,39.75,42.75c30.024-7.506,28.614,5.818,1.5,20.25c-18.802,10.008-48.261,13.526-65.252-2.25  c-19.892-18.469-18.627-45.747-48-57.75C315.696,340.78,260.547,347.184,218.706,344.175z"/>
<line fill="none" stroke="#000000" stroke-width="2" stroke-linecap="square" stroke-miterlimit="10" x1="205.206" y1="334.425" x2="205.206" y2="468.677"/>
<line fill="none" stroke="#000000" stroke-width="2" stroke-linecap="square" stroke-miterlimit="10" x1="268.956" y1="348.675" x2="268.956" y2="467.927"/>
<line fill="none" stroke="#000000" stroke-width="2" stroke-linecap="square" stroke-miterlimit="10" x1="301.956" y1="351.675" x2="301.956" y2="468.677"/>
<line fill="none" stroke="#000000" stroke-width="2" stroke-linecap="square" stroke-miterlimit="10" x1="337.206" y1="353.175" x2="337.206" y2="467.927"/>
<line fill="none" stroke="#000000" stroke-width="2" stroke-linecap="square" stroke-miterlimit="10" x1="371.706" y1="368.175" x2="371.706" y2="468.677"/>
<line fill="none" stroke="#000000" stroke-width="2" stroke-linecap="square" stroke-miterlimit="10" x1="406.956" y1="419.175" x2="406.956" y2="467.927"/>
<line fill="none" stroke="#000000" stroke-width="2" stroke-linecap="square" stroke-miterlimit="10" x1="438.458" y1="425.927" x2="438.458" y2="469.427"/>
<line fill="none" stroke="#000000" stroke-width="2" stroke-linecap="square" stroke-miterlimit="10" x1="473.708" y1="467.927" x2="473.708" y2="415.425"/>
<path fill="none" stroke="#000000" stroke-width="2" stroke-linecap="square" stroke-miterlimit="10" d="M490.958,395.175  c0,24.25,0,48.501,0,72.752"/>
<path fill="none" stroke="#000000" stroke-width="2" stroke-linecap="square" stroke-miterlimit="10" d="M489.458,401.175  c-5.5,20.5-11,41.001-16.5,61.502c-10.5-11.25-21-22.5-31.5-33.75c-11.501,11.25-23.001,22.5-34.502,33.75  c-11.75-30.501-23.5-61.001-35.25-91.502c-11.5,31.25-23,62.501-34.5,93.752c-11.5-38.001-23-76.001-34.5-114.002  c-11.5,38-23,76.001-34.5,114.002c-11.5-39.501-23-79.001-34.5-118.502c-0.5,40.25-1,80.501-1.5,120.752"/>
<line fill="none" stroke="#000000" stroke-width="2" stroke-linecap="square" stroke-miterlimit="10" x1="205.206" y1="464.177" x2="233.706" y2="346.425"/>
<path fill="none" stroke="#000000" stroke-width="2" stroke-linecap="square" stroke-miterlimit="10" d="M205.206,336.675  c9,42.75,18,85.501,27,128.252c11.5-38.501,23-77.001,34.5-115.502c11.5,38.75,23,77.501,34.5,116.252  c12-36.751,24-73.501,36-110.252c11,36.75,22,73.501,33,110.252c12.25-15.001,24.5-30.001,36.75-45.002  c10.751,15.501,21.501,31.001,32.252,46.502c11-16.251,22-32.501,33-48.752c6,15.751,12,31.501,18,47.252"/>
<path fill-rule="evenodd" clip-rule="evenodd" fill="#BCBEC0" stroke="#000000" stroke-width="2" stroke-linecap="square" stroke-miterlimit="10" d="  M259.956,338.175C248.028,341.614,248.028,334.736,259.956,338.175L259.956,338.175z"/>
<path fill-rule="evenodd" clip-rule="evenodd" fill="#BCBEC0" stroke="#000000" stroke-width="2" stroke-linecap="square" stroke-miterlimit="10" d="  M280.956,339.675C269.462,345.153,267.826,336.497,280.956,339.675L280.956,339.675z"/>
<path fill-rule="evenodd" clip-rule="evenodd" fill="#BCBEC0" stroke="#000000" stroke-width="2" stroke-linecap="square" stroke-miterlimit="10" d="  M303.456,340.425C291.667,343.915,291.428,337.903,303.456,340.425L303.456,340.425z"/>
<path fill-rule="evenodd" clip-rule="evenodd" fill="#BCBEC0" stroke="#000000" stroke-width="2" stroke-linecap="square" stroke-miterlimit="10" d="  M324.456,342.675C312.063,345.354,312.299,339.332,324.456,342.675L324.456,342.675z"/>
<path fill-rule="evenodd" clip-rule="evenodd" fill="#BCBEC0" stroke="#000000" stroke-width="2" stroke-linecap="square" stroke-miterlimit="10" d="  M344.706,345.675C331.478,347.78,333.966,339.311,344.706,345.675L344.706,345.675z"/>
<path fill-rule="evenodd" clip-rule="evenodd" fill="#BCBEC0" stroke="#000000" stroke-width="2" stroke-linecap="square" stroke-miterlimit="10" d="  M364.956,350.175C351.83,353.441,353.811,342.846,364.956,350.175L364.956,350.175z"/>
<path fill-rule="evenodd" clip-rule="evenodd" fill="#BCBEC0" stroke="#000000" stroke-width="2" stroke-linecap="square" stroke-miterlimit="10" d="  M378.456,362.175C367.739,358.092,370.665,352.146,378.456,362.175L378.456,362.175z"/>
<path fill-rule="evenodd" clip-rule="evenodd" fill="#BCBEC0" stroke="#000000" stroke-width="2" stroke-linecap="square" stroke-miterlimit="10" d="  M394.956,374.925C383.727,371.684,387.221,366.194,394.956,374.925L394.956,374.925z"/>
<path fill-rule="evenodd" clip-rule="evenodd" fill="#BCBEC0" stroke="#000000" stroke-width="2" stroke-linecap="square" stroke-miterlimit="10" d="  M400.206,394.425C391.711,387.41,396.797,382.85,400.206,394.425L400.206,394.425z"/>
<path fill-rule="evenodd" clip-rule="evenodd" fill="#BCBEC0" stroke="#000000" stroke-width="2" stroke-linecap="square" stroke-miterlimit="10" d="  M411.456,412.425C401.415,405.053,406.787,401.671,411.456,412.425L411.456,412.425z"/>
<path fill-rule="evenodd" clip-rule="evenodd" fill="#ED1C24" stroke="#000000" stroke-width="2" stroke-linecap="square" stroke-miterlimit="10" d="  M412.956,377.925c-38.199-7.973,14.948,59,8.252,18.75C407.253,397.463,407.373,387.716,412.956,377.925z"/>
<path fill-rule="evenodd" clip-rule="evenodd" fill="#ED1C24" stroke="#000000" stroke-width="2" stroke-linecap="square" stroke-miterlimit="10" d="  M253.206,318.675c-21.749,19.458,24.289,24.007,30.75,12C284.754,329.192,257.965,328.909,253.206,318.675z"/>
<path fill-rule="evenodd" clip-rule="evenodd" fill="#ED1C24" stroke="#000000" stroke-width="2" stroke-linecap="square" stroke-miterlimit="10" d="  M296.706,320.925c-28.862,25.943,56.7,23.079,20.25,3.75C309.558,337.416,301.686,331.931,296.706,320.925z"/>
<path fill-rule="evenodd" clip-rule="evenodd" fill="#ED1C24" stroke="#000000" stroke-width="2" stroke-linecap="square" stroke-miterlimit="10" d="  M340.956,325.425c-24.731,16.114,17.399,23.348,27.75,18.75C371.672,342.858,343.421,333.958,340.956,325.425z"/>
<path fill-rule="evenodd" clip-rule="evenodd" fill="#ED1C24" stroke="#000000" stroke-width="2" stroke-linecap="square" stroke-miterlimit="10" d="  M384.456,341.925c-29.468,4.466,5.165,26.092,15.75,31.5c3.189-7.465,2.945-8.74-0.75-16.5  C385.863,362.907,382.436,353.912,384.456,341.925z"/>
<path fill="none" stroke="#000000" stroke-width="2" stroke-linecap="square" stroke-miterlimit="10" d="M343.206,467.927  c-37.162-15.301,24.077-19.197,33.984-18.867c33.562,1.119,74.178,23.857,107.393,14.367c21.156-6.045,49.616-5.316,65.625,12  c16.867,18.245,9.486,40.958,39,45.75c16.191,2.629,46.363-8.159,8.25,17.25c-19.544,13.029-50.828,16.53-69,0  c-20.111-18.294-19.312-45.553-48.75-57.75C440.324,464.359,384.993,470.912,343.206,467.927z"/>
<line fill="none" stroke="#000000" stroke-width="2" stroke-linecap="square" stroke-miterlimit="10" x1="330.456" y1="458.177" x2="330.456" y2="592.427"/>
<line fill="none" stroke="#000000" stroke-width="2" stroke-linecap="square" stroke-miterlimit="10" x1="393.456" y1="472.427" x2="393.456" y2="591.677"/>
<line fill="none" stroke="#000000" stroke-width="2" stroke-linecap="square" stroke-miterlimit="10" x1="427.208" y1="476.177" x2="427.208" y2="592.427"/>
<line fill="none" stroke="#000000" stroke-width="2" stroke-linecap="square" stroke-miterlimit="10" x1="462.458" y1="477.677" x2="462.458" y2="592.427"/>
<line fill="none" stroke="#000000" stroke-width="2" stroke-linecap="square" stroke-miterlimit="10" x1="496.208" y1="491.927" x2="496.208" y2="592.427"/>
<line fill="none" stroke="#000000" stroke-width="2" stroke-linecap="square" stroke-miterlimit="10" x1="531.458" y1="542.927" x2="531.458" y2="592.427"/>
<line fill="none" stroke="#000000" stroke-width="2" stroke-linecap="square" stroke-miterlimit="10" x1="562.958" y1="550.427" x2="562.958" y2="593.177"/>
<line fill="none" stroke="#000000" stroke-width="2" stroke-linecap="square" stroke-miterlimit="10" x1="598.958" y1="591.677" x2="598.958" y2="539.177"/>
<path fill="none" stroke="#000000" stroke-width="2" stroke-linecap="square" stroke-miterlimit="10" d="M615.458,519.677  c0,24.25,0,48.5,0,72.75"/>
<path fill="none" stroke="#000000" stroke-width="2" stroke-linecap="square" stroke-miterlimit="10" d="M613.958,524.927  c-5.25,20.5-10.5,41-15.75,61.5c-10.75-11.25-21.5-22.5-32.25-33.75c-11.5,11.25-23,22.5-34.5,33.75c-11.5-30.5-23-61-34.5-91.5  c-11.75,31.25-23.5,62.5-35.25,93.75c-11.5-38-23-76-34.5-114c-11.251,38-22.501,76-33.752,114c-11.5-39.25-23-78.5-34.5-117.75  c-0.5,40.25-1,80.5-1.5,120.75"/>
<line fill="none" stroke="#000000" stroke-width="2" stroke-linecap="square" stroke-miterlimit="10" x1="330.456" y1="587.927" x2="358.956" y2="470.927"/>
<path fill="none" stroke="#000000" stroke-width="2" stroke-linecap="square" stroke-miterlimit="10" d="M329.706,460.427  c9,42.75,18,85.5,27,128.25c11.5-38.5,23-77,34.5-115.5c11.5,39,23.001,78,34.502,117c12.25-37,24.5-74,36.75-111  c10.75,36.75,21.5,73.5,32.25,110.25c12.5-15,25-30,37.5-45c10.5,15.75,21,31.5,31.5,47.25c11.25-16.5,22.5-33,33.75-49.5  c5.75,15.75,11.5,31.5,17.25,47.25"/>
<path fill-rule="evenodd" clip-rule="evenodd" fill="#BCBEC0" stroke="#000000" stroke-width="2" stroke-linecap="square" stroke-miterlimit="10" d="  M384.456,461.927C373.563,467.178,371.908,458.943,384.456,461.927L384.456,461.927z"/>
<path fill-rule="evenodd" clip-rule="evenodd" fill="#BCBEC0" stroke="#000000" stroke-width="2" stroke-linecap="square" stroke-miterlimit="10" d="  M405.456,464.177C392.771,466.921,394.499,458.908,405.456,464.177L405.456,464.177z"/>
<path fill-rule="evenodd" clip-rule="evenodd" fill="#BCBEC0" stroke="#000000" stroke-width="2" stroke-linecap="square" stroke-miterlimit="10" d="  M427.958,464.927C415.461,468.197,416.918,459.741,427.958,464.927L427.958,464.927z"/>
<path fill-rule="evenodd" clip-rule="evenodd" fill="#BCBEC0" stroke="#000000" stroke-width="2" stroke-linecap="square" stroke-miterlimit="10" d="  M448.958,466.427C437.03,469.866,437.03,462.989,448.958,466.427L448.958,466.427z"/>
<path fill-rule="evenodd" clip-rule="evenodd" fill="#BCBEC0" stroke="#000000" stroke-width="2" stroke-linecap="square" stroke-miterlimit="10" d="  M469.208,469.427C457.57,471.259,458.193,464.694,469.208,469.427L469.208,469.427z"/>
<path fill-rule="evenodd" clip-rule="evenodd" fill="#BCBEC0" stroke="#000000" stroke-width="2" stroke-linecap="square" stroke-miterlimit="10" d="  M489.458,473.927C478.199,475.884,478.693,469.054,489.458,473.927L489.458,473.927z"/>
<path fill-rule="evenodd" clip-rule="evenodd" fill="#BCBEC0" stroke="#000000" stroke-width="2" stroke-linecap="square" stroke-miterlimit="10" d="  M503.708,485.927C490.257,483.279,496.248,475.042,503.708,485.927L503.708,485.927z"/>
<path fill-rule="evenodd" clip-rule="evenodd" fill="#BCBEC0" stroke="#000000" stroke-width="2" stroke-linecap="square" stroke-miterlimit="10" d="  M520.208,499.427C506.962,494.78,513.396,488.882,520.208,499.427L520.208,499.427z"/>
<path fill-rule="evenodd" clip-rule="evenodd" fill="#BCBEC0" stroke="#000000" stroke-width="2" stroke-linecap="square" stroke-miterlimit="10" d="  M525.458,518.927C514,511.334,523.197,505.594,525.458,518.927L525.458,518.927z"/>
<path fill-rule="evenodd" clip-rule="evenodd" fill="#BCBEC0" stroke="#000000" stroke-width="2" stroke-linecap="square" stroke-miterlimit="10" d="  M535.958,536.927C526.224,528.307,533.541,524.073,535.958,536.927L535.958,536.927z"/>
<path fill-rule="evenodd" clip-rule="evenodd" fill="#ED1C24" stroke="#000000" stroke-width="2" stroke-linecap="square" stroke-miterlimit="10" d="  M538.208,501.677c-34.583-7.701,1.936,37.064,6,33C557.008,521.877,526.202,521.34,538.208,501.677z"/>
<path fill-rule="evenodd" clip-rule="evenodd" fill="#ED1C24" stroke="#000000" stroke-width="2" stroke-linecap="square" stroke-miterlimit="10" d="  M378.456,442.427c-27.712,26.459,54.218,22.424,20.25,3.75C391.271,457.843,383.36,453.635,378.456,442.427z"/>
<path fill-rule="evenodd" clip-rule="evenodd" fill="#ED1C24" stroke="#000000" stroke-width="2" stroke-linecap="square" stroke-miterlimit="10" d="  M421.958,444.677c-21.035,20.478,19.353,21.13,30,15.75c13.274-6.707-22.595-11.735-12.75-5.25  C433.421,451.365,426.884,456.036,421.958,444.677z"/>
<path fill-rule="evenodd" clip-rule="evenodd" fill="#ED1C24" stroke="#000000" stroke-width="2" stroke-linecap="square" stroke-miterlimit="10" d="  M465.458,449.177c-27.516,21.582,28.5,22.35,28.5,17.625C493.958,450.099,471.733,469.518,465.458,449.177z"/>
<path fill-rule="evenodd" clip-rule="evenodd" fill="#ED1C24" stroke="#000000" stroke-width="2" stroke-linecap="square" stroke-miterlimit="10" d="  M509.708,466.427c-38.708,3.18,32.963,51.158,14.25,14.25C511.215,486.899,507.762,477.935,509.708,466.427z"/>
</svg>