<svg xmlns="http://www.w3.org/2000/svg" xmlns:xlink="http://www.w3.org/1999/xlink" version="1.1" id="Layer_1" x="0px" y="0px" enable-background="new 0 0 822.05 841.89" xml:space="preserve" viewBox="204.41 255.05 412.15 330.57">
<path fill-rule="evenodd" clip-rule="evenodd" fill="#AF8977" stroke="#000000" stroke-width="2" stroke-linecap="square" stroke-miterlimit="10" d="  M239.75,346.718c-10.623,5.049-45.511,18.643-30.75,27c-5.021,13.533,3.098,26.287,18,31.5  c-4.891,11.269,30.902,32.041,45.375,26.252c9-3.6,15.781-19.068,25.835-24.881c37.668-21.777,75.336-43.554,113.003-65.33  c11.406-6.594,35.543-13.861,43.786-24.166c9.892-12.365-2.25-15.875-2.25-28.125c0-21.707-24.154-38.895-43.5-29.25  c-15.438-9.031-22.012,6.918-37.5,16.875C329,304.076,285.935,325.605,239.75,346.718z"/>
<path fill="none" stroke="#000000" stroke-width="2" stroke-linecap="square" stroke-miterlimit="10" d="M248,343.718  c27.396,10.214,51.074,35.779,42,66.75"/>
<path fill="none" stroke="#000000" stroke-width="2" stroke-linecap="square" stroke-miterlimit="10" d="M259.25,338.468  c27.263,11.717,51.286,35.46,41.25,67.5"/>
<path fill="none" stroke="#000000" stroke-width="2" stroke-linecap="square" stroke-miterlimit="10" d="M268.25,333.218  c27.044,11.178,49.625,35.605,40.5,66.75"/>
<path fill="none" stroke="#000000" stroke-width="2" stroke-linecap="square" stroke-miterlimit="10" d="M278,329.468  c28.189,10.737,48.145,34.711,39.75,66"/>
<path fill="none" stroke="#000000" stroke-width="2" stroke-linecap="square" stroke-miterlimit="10" d="M289.25,324.218  c26.141,10.979,49.387,35.64,38.25,66"/>
<path fill="none" stroke="#000000" stroke-width="2" stroke-linecap="square" stroke-miterlimit="10" d="M297.5,319.718  c26.43,10.723,49.046,33.783,39,64.5"/>
<path fill="none" stroke="#000000" stroke-width="2" stroke-linecap="square" stroke-miterlimit="10" d="M305.75,315.968  c27.226,9.848,49.637,32.707,39.75,63.75"/>
<path fill="none" stroke="#000000" stroke-width="2" stroke-linecap="square" stroke-miterlimit="10" d="M315.5,309.968  c26.805,10.868,48.929,32.422,39.75,63.75"/>
<path fill="none" stroke="#000000" stroke-width="2" stroke-linecap="square" stroke-miterlimit="10" d="M326,304.718  c27.031,9.576,47.883,32.681,39,63"/>
<path fill="none" stroke="#000000" stroke-width="2" stroke-linecap="square" stroke-miterlimit="10" d="M335.75,300.218  c28.271,8.799,46.272,32.089,38.25,62.25"/>
<path fill="none" stroke="#000000" stroke-width="2" stroke-linecap="square" stroke-miterlimit="10" d="M344.75,294.218  c27.891,8.814,46.239,35.339,38.25,64.5"/>
<path fill="none" stroke="#000000" stroke-width="2" stroke-linecap="square" stroke-miterlimit="10" d="M352.25,288.218  c27.629,8.491,49.257,33.9,39.75,63.75"/>
<path fill="none" stroke="#000000" stroke-width="2" stroke-linecap="square" stroke-miterlimit="10" d="M360.5,282.968  c26.714,11.085,49.784,32.993,39.75,64.5"/>
<path fill="none" stroke="#000000" stroke-width="2" stroke-linecap="square" stroke-miterlimit="10" d="M369.5,278.468  c28.205,8.417,47.888,34.048,39.75,63.75"/>
<path fill="none" stroke="#000000" stroke-width="2" stroke-linecap="square" stroke-miterlimit="10" d="M376.25,273.968  c26.795,11.599,48.736,32.873,39.75,64.5"/>
<path fill="none" stroke="#000000" stroke-width="2" stroke-linecap="square" stroke-miterlimit="10" d="M379.25,269.468  c28.174,10.583,51.832,33.615,42.75,66"/>
<path fill="none" stroke="#000000" stroke-width="2" stroke-linecap="square" stroke-miterlimit="10" d="M384.5,264.218  c28.314,10.389,55.061,31.742,46.5,65.25"/>
<line fill="none" stroke="#000000" stroke-width="2" stroke-linecap="square" stroke-miterlimit="10" x1="256.25" y1="347.468" x2="216.5" y2="361.718"/>
<path fill="none" stroke="#000000" stroke-width="2" stroke-linecap="square" stroke-miterlimit="10" d="M209,373.718  c17.564-7.174,43.703-25.912,60-16.5c-13.72,6.236-51.037,15.175-58.5,27.75c-9.681,16.312,18.655,2.348,21.167,1.028  c1.92-1.009,54.607-29.956,50.083-16.778c-4.154,12.103-46.944,26.458-59.25,33c11.917,4.503,60.692-31.078,64.875-25.5  c9.312,12.417-43.41,33.757-53.625,39.75c12.694,10.861,43.719-19.421,57.75-28.5c-3.31,16.334-21.585,28.337-33.75,40.502"/>
<path fill="none" stroke="#000000" stroke-width="2" stroke-linecap="square" stroke-miterlimit="10" d="M432.5,322.718  c10.99-5.633,24.758-11.069,22.5-23.25c-6.066,6.168-14.935,9.581-21,15.75c0.017-15.211,18.311-12.815,18-28.5  c-6.051,5.975-15.426,8.548-21.75,14.25c-5.463-13.198,8.653-15.252,20.25-22.5c-7.24-6.332-57.337,20.753-21.75-18.75  c-8.438,1.37-13.775,9.023-15.75,18.75c-7.39-9.805-6.64-38.975-15.75-9.75"/>
<path fill-rule="evenodd" clip-rule="evenodd" fill="#AF8977" stroke="#000000" stroke-width="2" stroke-linecap="square" stroke-miterlimit="10" d="  M375.5,388.718c-10.437,5.13-46.752,19.047-30.75,27c-7.331,17.466,15.316,36.023,25.5,43.502  c34.582,25.394,40.956,2.525,74.457-16.843c14.702-8.5,163.865-78.896,147.918-100.159c-13.738-18.317-13.037-56.925-48.375-40.5  c-14.621-8.154-26.11,6.97-42,20.25C466.298,352.014,417.517,369.511,375.5,388.718z"/>
<path fill="none" stroke="#000000" stroke-width="2" stroke-linecap="square" stroke-miterlimit="10" d="M383.75,385.718  c26.818,11.58,51.276,34.823,42,66.752"/>
<path fill="none" stroke="#000000" stroke-width="2" stroke-linecap="square" stroke-miterlimit="10" d="M394.25,380.468  c26.628,9.641,52.501,36.36,42,66.752"/>
<path fill="none" stroke="#000000" stroke-width="2" stroke-linecap="square" stroke-miterlimit="10" d="M403.25,375.218  c27.911,8.933,49.964,36.735,41.25,66.752"/>
<path fill="none" stroke="#000000" stroke-width="2" stroke-linecap="square" stroke-miterlimit="10" d="M413.75,371.468  c27.812,9.856,48.242,35.72,39.75,66.002"/>
<path fill="none" stroke="#000000" stroke-width="2" stroke-linecap="square" stroke-miterlimit="10" d="M424.25,366.218  c27.308,10.156,48.462,35.793,39,66.002"/>
<path fill="none" stroke="#000000" stroke-width="2" stroke-linecap="square" stroke-miterlimit="10" d="M433.25,361.718  c26.204,11.343,49.186,33.355,39,64.502"/>
<path fill="none" stroke="#000000" stroke-width="2" stroke-linecap="square" stroke-miterlimit="10" d="M441.5,357.968  c27.321,9.46,49.487,33.176,39.75,63.75"/>
<path fill="none" stroke="#000000" stroke-width="2" stroke-linecap="square" stroke-miterlimit="10" d="M451.25,351.968  c26.648,10.183,49.005,33.16,39,63.75"/>
<path fill="none" stroke="#000000" stroke-width="2" stroke-linecap="square" stroke-miterlimit="10" d="M461.75,346.718  c25.853,9.159,49.516,33.59,38.25,63"/>
<path fill="none" stroke="#000000" stroke-width="2" stroke-linecap="square" stroke-miterlimit="10" d="M470.75,342.218  c26.25,7.268,49.524,32.605,38.25,61.5"/>
<path fill="none" stroke="#000000" stroke-width="2" stroke-linecap="square" stroke-miterlimit="10" d="M480.5,336.218  c26.282,8.783,48.322,36.007,37.5,64.5"/>
<path fill="none" stroke="#000000" stroke-width="2" stroke-linecap="square" stroke-miterlimit="10" d="M488,330.218  c27.488,8.448,49.198,34.083,39.75,63.75"/>
<path fill="none" stroke="#000000" stroke-width="2" stroke-linecap="square" stroke-miterlimit="10" d="M496.25,324.968  c27.943,10.143,47.966,33.612,39.75,64.5"/>
<path fill="none" stroke="#000000" stroke-width="2" stroke-linecap="square" stroke-miterlimit="10" d="M505.25,320.468  c27.354,9.369,48.599,33.549,39.75,63.75"/>
<path fill="none" stroke="#000000" stroke-width="2" stroke-linecap="square" stroke-miterlimit="10" d="M511.25,315.968  c27.592,10.71,49.395,32.783,40.5,64.5"/>
<path fill="none" stroke="#000000" stroke-width="2" stroke-linecap="square" stroke-miterlimit="10" d="M515,311.468  c28.15,9.801,51.513,34.514,42.75,66"/>
<path fill="none" stroke="#000000" stroke-width="2" stroke-linecap="square" stroke-miterlimit="10" d="M519.5,306.218  c27.542,8.656,57.643,33.005,46.5,65.25"/>
<line fill="none" stroke="#000000" stroke-width="2" stroke-linecap="square" stroke-miterlimit="10" x1="392" y1="389.468" x2="351.5" y2="403.718"/>
<path fill="none" stroke="#000000" stroke-width="2" stroke-linecap="square" stroke-miterlimit="10" d="M344.75,415.718  c17.564-7.174,43.703-25.912,60-16.5c-13.511,6.142-51.774,15.193-59.25,27.752c-9.707,16.307,19.756,2.163,21.917,1.027  c2.178-1.145,54.432-29.544,50.083-16.779c-4.114,12.078-46.974,26.475-59.25,33.002c15.844,5.986,45.431-17.494,61.718-25.947  c12.006-6.231-12.713,18.048-17.675,20.959c-1.573,0.923-42.897,25.562-28.293,23.738c16.638-2.078,38.282-23.663,52.5-33  c-1.954,16.306-21.489,28.506-33.75,40.5"/>
<path fill="none" stroke="#000000" stroke-width="2" stroke-linecap="square" stroke-miterlimit="10" d="M567.5,364.718  c11.088-5.028,24.976-10.521,23.25-23.25c-6.395,6.142-15.344,9.62-21.75,15.75c1.46-15.151,20.218-13.065,18-29.25  c-5.777,6.161-15.03,9.015-21,15c-5.463-13.198,8.653-15.252,20.25-22.5c-7.836-6.726-57.164,21.15-21.75-18.75  c-7.48,4.557-11.463,6.961-16.5,18c-7.521-8.958-6.708-38.469-15-9"/>
<path fill-rule="evenodd" clip-rule="evenodd" fill="#AF8977" stroke="#000000" stroke-width="2" stroke-linecap="square" stroke-miterlimit="10" d="  M397.25,501.97c-11.027,4.824-46.019,18.482-30.75,27c-6.776,17.225,16.101,38.393,26.25,45.75  c33.396,24.209,43.06-1.374,73.707-19.093c14.705-8.501,163.849-78.916,147.918-100.157c-13.738-18.318-13.036-56.928-48.375-40.502  c-14.79-8.249-25.902,7.146-42,20.252C487.588,464.866,439.426,482.69,397.25,501.97z"/>
<path fill="none" stroke="#000000" stroke-width="2" stroke-linecap="square" stroke-miterlimit="10" d="M405.5,498.97  c27.399,10.497,51.036,35.496,42,66.75"/>
<path fill="none" stroke="#000000" stroke-width="2" stroke-linecap="square" stroke-miterlimit="10" d="M416,493.72  c26.626,9.641,52.501,36.359,42,66.75"/>
<path fill="none" stroke="#000000" stroke-width="2" stroke-linecap="square" stroke-miterlimit="10" d="M425.75,488.47  c27.562,10.098,49.207,36.348,40.5,66.75"/>
<path fill="none" stroke="#000000" stroke-width="2" stroke-linecap="square" stroke-miterlimit="10" d="M435.5,484.72  c27.811,9.856,48.242,35.719,39.75,66"/>
<path fill="none" stroke="#000000" stroke-width="2" stroke-linecap="square" stroke-miterlimit="10" d="M446,479.47  c27.306,10.155,48.463,35.792,39,66"/>
<path fill="none" stroke="#000000" stroke-width="2" stroke-linecap="square" stroke-miterlimit="10" d="M455,474.97  c26.558,10.325,48.957,34.055,39,64.5"/>
<path fill="none" stroke="#000000" stroke-width="2" stroke-linecap="square" stroke-miterlimit="10" d="M463.25,471.22  c27.321,9.46,49.487,33.177,39.75,63.75"/>
<path fill="none" stroke="#000000" stroke-width="2" stroke-linecap="square" stroke-miterlimit="10" d="M473,465.22  c26.841,9.741,48.886,33.522,39,63.75"/>
<path fill="none" stroke="#000000" stroke-width="2" stroke-linecap="square" stroke-miterlimit="10" d="M483.5,459.97  c25.959,9.196,49.56,33.475,38.25,63"/>
<path fill="none" stroke="#000000" stroke-width="2" stroke-linecap="square" stroke-miterlimit="10" d="M492.5,454.72  c26,8.557,49.649,33.033,38.25,62.25"/>
<path fill="none" stroke="#000000" stroke-width="2" stroke-linecap="square" stroke-miterlimit="10" d="M502.25,448.72  c25.629,10.978,48.582,35.4,37.5,65.25"/>
<path fill="none" stroke="#000000" stroke-width="2" stroke-linecap="square" stroke-miterlimit="10" d="M509.75,443.47  c27.271,9.226,49.443,33.314,39.75,63.75"/>
<path fill="none" stroke="#000000" stroke-width="2" stroke-linecap="square" stroke-miterlimit="10" d="M518,438.22  c28.521,9.172,47.722,34.12,39.75,64.5"/>
<path fill="none" stroke="#000000" stroke-width="2" stroke-linecap="square" stroke-miterlimit="10" d="M527,433.72  c27.354,9.369,48.599,33.55,39.75,63.75"/>
<path fill="none" stroke="#000000" stroke-width="2" stroke-linecap="square" stroke-miterlimit="10" d="M533,429.22  c27.388,9.281,49.431,33.133,40.5,63.75"/>
<path fill="none" stroke="#000000" stroke-width="2" stroke-linecap="square" stroke-miterlimit="10" d="M536.75,424.72  c27.515,9.58,51.771,34.198,42.75,65.25"/>
<path fill="none" stroke="#000000" stroke-width="2" stroke-linecap="square" stroke-miterlimit="10" d="M542,419.468  c27.177,9.631,56.844,32.855,45.75,65.252"/>
<line fill="none" stroke="#000000" stroke-width="2" stroke-linecap="square" stroke-miterlimit="10" x1="413.75" y1="502.72" x2="373.25" y2="516.97"/>
<path fill="none" stroke="#000000" stroke-width="2" stroke-linecap="square" stroke-miterlimit="10" d="M366.5,528.97  c17.564-7.174,43.703-25.912,60-16.5c-13.646,6.202-51.582,15.124-59.25,27.75c-9.933,16.354,19.941,1.897,21.917,0.833  c4.266-2.297,47.384-31.463,49.333-18.833c1.619,10.496-47.942,29.637-58.5,35.25c15.844,5.986,45.431-17.492,61.718-25.945  c11.844-6.146-12.388,17.613-17.675,20.644c-1.562,0.896-43.439,25.895-28.293,24.052c16.598-2.02,38.322-23.689,52.5-33  c-1.953,16.306-21.488,28.506-33.748,40.5"/>
<path fill="none" stroke="#000000" stroke-width="2" stroke-linecap="square" stroke-miterlimit="10" d="M589.25,477.97  c11.088-5.027,24.976-10.521,23.25-23.25c-6.347,6.183-15.348,9.623-21.75,15.75c-0.319-16.121,19.835-13.09,18-29.25  c-5.776,6.16-14.995,9.049-21,15c-5.463-13.197,8.653-15.252,20.25-22.5c-7.837-6.727-57.164,21.151-21.75-18.752  c-7.48,4.557-11.464,6.963-16.5,18.002c-7.328-9.685-6.388-38.075-15-9.002"/>
</svg>