<svg xmlns="http://www.w3.org/2000/svg" xmlns:xlink="http://www.w3.org/1999/xlink" version="1.1" id="Layer_1" x="0px" y="0px" enable-background="new 0 0 822.05 841.89" xml:space="preserve" viewBox="200.28 256.46 421.8 331.44">
<path fill-rule="evenodd" clip-rule="evenodd" fill="#DFF3FD" d="M590.33,523.39c-15.319-10.836-41.229-18.987-21-37.5  c-0.579-0.737-1.329-1.237-2.25-1.5c-5.444,13.869-14.813,17.689-25.5,6c0.062,0.05,7.578,9.533,12,12.75  c-3.528,4.573-6.793,13.145-10.5,16.5c0.579,0.737,1.329,1.237,2.25,1.5C558.376,487.449,579.034,534.289,590.33,523.39z"/>
<path fill="none" stroke="#000000" stroke-width="2" stroke-linecap="square" stroke-miterlimit="10" d="M590.33,523.39  c-15.319-10.836-41.229-18.987-21-37.5c-0.579-0.737-1.329-1.237-2.25-1.5c-5.444,13.869-14.813,17.689-25.5,6  c0.062,0.05,7.578,9.533,12,12.75c-3.528,4.573-6.793,13.145-10.5,16.5c0.579,0.737,1.329,1.237,2.25,1.5  C558.376,487.449,579.034,534.289,590.33,523.39z"/>
<path fill="none" stroke="#000000" stroke-width="2" stroke-linecap="square" stroke-miterlimit="10" d="M540.83,491.89  c-13.404-6.829-36.862,2.888-46.5-6.75c-11.158-11.158,4.128-31.256,14.25-36.75"/>
<path fill-rule="evenodd" clip-rule="evenodd" fill="#DFF3FD" stroke="#000000" stroke-width="2" stroke-linecap="square" stroke-miterlimit="10" d="  M525.08,442.39C505.583,467.38,506.034,416.096,525.08,442.39L525.08,442.39z"/>
<path fill-rule="evenodd" clip-rule="evenodd" fill="#FFF200" stroke="#000000" stroke-width="2" stroke-linecap="square" stroke-miterlimit="10" d="  M522.83,430.39C511.947,431.515,511.947,429.265,522.83,430.39L522.83,430.39z"/>
<path fill-rule="evenodd" clip-rule="evenodd" fill="#FFF200" stroke="#000000" stroke-width="2" stroke-linecap="square" stroke-miterlimit="10" d="  M521.33,420.64C509.699,421.832,509.699,419.449,521.33,420.64L521.33,420.64z"/>
<path fill-rule="evenodd" clip-rule="evenodd" fill="#FFF200" stroke="#000000" stroke-width="2" stroke-linecap="square" stroke-miterlimit="10" d="  M515.33,413.14C503.919,414.455,504.435,411.354,515.33,413.14L515.33,413.14z"/>
<path fill-rule="evenodd" clip-rule="evenodd" fill="#FFF200" stroke="#000000" stroke-width="2" stroke-linecap="square" stroke-miterlimit="10" d="  M505.58,407.89C493.949,409.082,493.949,406.699,505.58,407.89L505.58,407.89z"/>
<path fill-rule="evenodd" clip-rule="evenodd" fill="#FFF200" stroke="#000000" stroke-width="2" stroke-linecap="square" stroke-miterlimit="10" d="  M495.08,404.14C484.43,405.025,484.556,402.776,495.08,404.14L495.08,404.14z"/>
<path fill-rule="evenodd" clip-rule="evenodd" fill="#FFF200" stroke="#000000" stroke-width="2" stroke-linecap="square" stroke-miterlimit="10" d="  M484.58,401.89C473.577,403.362,473.386,400.911,484.58,401.89L484.58,401.89z"/>
<path fill-rule="evenodd" clip-rule="evenodd" fill="#FFF200" stroke="#000000" stroke-width="2" stroke-linecap="square" stroke-miterlimit="10" d="  M474.83,396.64C462.687,397.739,463.585,393.338,474.83,396.64L474.83,396.64z"/>
<path fill-rule="evenodd" clip-rule="evenodd" fill="#FFF200" stroke="#000000" stroke-width="2" stroke-linecap="square" stroke-miterlimit="10" d="  M466.58,387.64C455.657,389.303,455.173,386.188,466.58,387.64L466.58,387.64z"/>
<path fill-rule="evenodd" clip-rule="evenodd" fill="#FFF200" stroke="#000000" stroke-width="2" stroke-linecap="square" stroke-miterlimit="10" d="  M456.08,379.39C444.449,380.582,444.449,378.199,456.08,379.39L456.08,379.39z"/>
<path fill-rule="evenodd" clip-rule="evenodd" fill="#FFF200" stroke="#000000" stroke-width="2" stroke-linecap="square" stroke-miterlimit="10" d="  M448.58,369.64C437.169,370.955,437.685,367.854,448.58,369.64L448.58,369.64z"/>
<path fill-rule="evenodd" clip-rule="evenodd" fill="#FFF200" stroke="#000000" stroke-width="2" stroke-linecap="square" stroke-miterlimit="10" d="  M441.83,359.14C431.455,360.803,430.4,357.953,441.83,359.14L441.83,359.14z"/>
<path fill-rule="evenodd" clip-rule="evenodd" fill="#FFF200" stroke="#000000" stroke-width="2" stroke-linecap="square" stroke-miterlimit="10" d="  M438.08,349.39C427.138,350.493,427.138,348.288,438.08,349.39L438.08,349.39z"/>
<path fill-rule="evenodd" clip-rule="evenodd" fill="#FFF200" stroke="#000000" stroke-width="2" stroke-linecap="square" stroke-miterlimit="10" d="  M437.33,337.39C425.68,338.805,425.65,336.434,437.33,337.39L437.33,337.39z"/>
<path fill-rule="evenodd" clip-rule="evenodd" fill="#FFF200" stroke="#000000" stroke-width="2" stroke-linecap="square" stroke-miterlimit="10" d="  M440.33,325.39C428.371,327.684,428.655,322.572,440.33,325.39L440.33,325.39z"/>
<path fill-rule="evenodd" clip-rule="evenodd" fill="#FFF200" stroke="#000000" stroke-width="2" stroke-linecap="square" stroke-miterlimit="10" d="  M447.08,314.14C436.09,316.118,435.354,313.03,447.08,314.14L447.08,314.14z"/>
<path fill-rule="evenodd" clip-rule="evenodd" fill="#FFF200" stroke="#000000" stroke-width="2" stroke-linecap="square" stroke-miterlimit="10" d="  M454.58,305.89C443.718,307.231,443.535,305.018,454.58,305.89L454.58,305.89z"/>
<path fill-rule="evenodd" clip-rule="evenodd" fill="#FFF200" stroke="#000000" stroke-width="2" stroke-linecap="square" stroke-miterlimit="10" d="  M461.33,295.39C451.24,297.045,450.304,294.21,461.33,295.39L461.33,295.39z"/>
<path fill-rule="evenodd" clip-rule="evenodd" fill="#FFF200" stroke="#000000" stroke-width="2" stroke-linecap="square" stroke-miterlimit="10" d="  M467.33,287.14C456.829,288.243,456.829,286.038,467.33,287.14L467.33,287.14z"/>
<path fill-rule="evenodd" clip-rule="evenodd" fill="#FFF200" stroke="#000000" stroke-width="2" stroke-linecap="square" stroke-miterlimit="10" d="  M476.33,279.64C465.447,280.765,465.447,278.515,476.33,279.64L476.33,279.64z"/>
<path fill-rule="evenodd" clip-rule="evenodd" fill="#FFF200" stroke="#000000" stroke-width="2" stroke-linecap="square" stroke-miterlimit="10" d="  M486.08,272.14C473.944,273.222,474.804,268.852,486.08,272.14L486.08,272.14z"/>
<path fill-rule="evenodd" clip-rule="evenodd" fill="#FFF200" stroke="#000000" stroke-width="2" stroke-linecap="square" stroke-miterlimit="10" d="  M496.58,266.89C485.491,268.111,485.491,265.669,496.58,266.89L496.58,266.89z"/>
<path fill-rule="evenodd" clip-rule="evenodd" fill="#FFF200" stroke="#000000" stroke-width="2" stroke-linecap="square" stroke-miterlimit="10" d="  M507.83,264.64C496.573,266.399,496.033,263.322,507.83,264.64L507.83,264.64z"/>
<path fill-rule="evenodd" clip-rule="evenodd" fill="#FFF200" stroke="#000000" stroke-width="2" stroke-linecap="square" stroke-miterlimit="10" d="  M519.83,264.64C508.478,266.366,507.871,263.359,519.83,264.64L519.83,264.64z"/>
<path fill-rule="evenodd" clip-rule="evenodd" fill="#FFF200" stroke="#000000" stroke-width="2" stroke-linecap="square" stroke-miterlimit="10" d="  M530.33,266.89C519.241,268.111,519.241,265.669,530.33,266.89L530.33,266.89z"/>
<path fill-rule="evenodd" clip-rule="evenodd" fill="#FFF200" stroke="#000000" stroke-width="2" stroke-linecap="square" stroke-miterlimit="10" d="  M540.83,267.64C530.627,269.507,529.869,266.62,540.83,267.64L540.83,267.64z"/>
<path fill-rule="evenodd" clip-rule="evenodd" fill="#FFF200" stroke="#000000" stroke-width="2" stroke-linecap="square" stroke-miterlimit="10" d="  M552.08,272.14C540.757,273.169,541.605,270.271,552.08,272.14L552.08,272.14z"/>
<path fill-rule="evenodd" clip-rule="evenodd" fill="#FFF200" stroke="#000000" stroke-width="2" stroke-linecap="square" stroke-miterlimit="10" d="  M563.33,275.89C551.44,277.175,551.863,274.183,563.33,275.89L563.33,275.89z"/>
<path fill-rule="evenodd" clip-rule="evenodd" fill="#FFF200" stroke="#000000" stroke-width="2" stroke-linecap="square" stroke-miterlimit="10" d="  M575.33,278.89C565.24,280.545,564.303,277.71,575.33,278.89L575.33,278.89z"/>
<path fill-rule="evenodd" clip-rule="evenodd" fill="#FFF200" stroke="#000000" stroke-width="2" stroke-linecap="square" stroke-miterlimit="10" d="  M585.83,284.14C574.68,287.516,573.815,283.013,585.83,284.14L585.83,284.14z"/>
<path fill-rule="evenodd" clip-rule="evenodd" fill="#FFF200" stroke="#000000" stroke-width="2" stroke-linecap="square" stroke-miterlimit="10" d="  M597.83,290.89C586.155,293.708,585.871,288.597,597.83,290.89L597.83,290.89z"/>
<path fill-rule="evenodd" clip-rule="evenodd" fill="#FFF200" stroke="#000000" stroke-width="2" stroke-linecap="square" stroke-miterlimit="10" d="  M606.83,297.64C596.627,299.507,595.869,296.62,606.83,297.64L606.83,297.64z"/>
<path fill-rule="evenodd" clip-rule="evenodd" fill="#FFF200" stroke="#000000" stroke-width="2" stroke-linecap="square" stroke-miterlimit="10" d="  M614.33,306.64C602.9,307.828,603.955,304.977,614.33,306.64L614.33,306.64z"/>
<path fill-rule="evenodd" clip-rule="evenodd" fill="#FFF200" stroke="#000000" stroke-width="2" stroke-linecap="square" stroke-miterlimit="10" d="  M618.83,316.39C608.258,317.51,608.258,315.271,618.83,316.39L618.83,316.39z"/>
<path fill-rule="evenodd" clip-rule="evenodd" fill="#FFF200" stroke="#000000" stroke-width="2" stroke-linecap="square" stroke-miterlimit="10" d="  M621.08,328.39C610.508,329.51,610.508,327.271,621.08,328.39L621.08,328.39z"/>
<path fill-rule="evenodd" clip-rule="evenodd" fill="#FFF200" stroke="#000000" stroke-width="2" stroke-linecap="square" stroke-miterlimit="10" d="  M621.08,339.64C610.958,341.184,610.066,338.331,621.08,339.64L621.08,339.64z"/>
<path fill-rule="evenodd" clip-rule="evenodd" fill="#FFF200" stroke="#000000" stroke-width="2" stroke-linecap="square" stroke-miterlimit="10" d="  M619.58,350.89C608.553,352.07,609.49,349.235,619.58,350.89L619.58,350.89z"/>
<path fill-rule="evenodd" clip-rule="evenodd" fill="#FFF200" stroke="#000000" stroke-width="2" stroke-linecap="square" stroke-miterlimit="10" d="  M615.83,361.39C604.585,364.692,603.687,360.292,615.83,361.39L615.83,361.39z"/>
<path fill-rule="evenodd" clip-rule="evenodd" fill="#FFF200" stroke="#000000" stroke-width="2" stroke-linecap="square" stroke-miterlimit="10" d="  M612.08,372.64C601.035,373.512,601.218,371.299,612.08,372.64L612.08,372.64z"/>
<path fill-rule="evenodd" clip-rule="evenodd" fill="#FFF200" stroke="#000000" stroke-width="2" stroke-linecap="square" stroke-miterlimit="10" d="  M606.83,381.64C596.258,382.76,596.258,380.521,606.83,381.64L606.83,381.64z"/>
<path fill-rule="evenodd" clip-rule="evenodd" fill="#FFF200" stroke="#000000" stroke-width="2" stroke-linecap="square" stroke-miterlimit="10" d="  M601.58,392.14C590.697,393.265,590.697,391.015,601.58,392.14L601.58,392.14z"/>
<path fill-rule="evenodd" clip-rule="evenodd" fill="#FFF200" stroke="#000000" stroke-width="2" stroke-linecap="square" stroke-miterlimit="10" d="  M594.08,400.39C583.077,401.862,582.886,399.411,594.08,400.39L594.08,400.39z"/>
<path fill-rule="evenodd" clip-rule="evenodd" fill="#FFF200" stroke="#000000" stroke-width="2" stroke-linecap="square" stroke-miterlimit="10" d="  M585.83,407.89C575.355,409.759,574.507,406.861,585.83,407.89L585.83,407.89z"/>
<path fill-rule="evenodd" clip-rule="evenodd" fill="#FFF200" stroke="#000000" stroke-width="2" stroke-linecap="square" stroke-miterlimit="10" d="  M576.83,414.64C565.418,415.955,565.935,412.854,576.83,414.64L576.83,414.64z"/>
<path fill-rule="evenodd" clip-rule="evenodd" fill="#FFF200" stroke="#000000" stroke-width="2" stroke-linecap="square" stroke-miterlimit="10" d="  M566.33,416.14C554.655,418.958,554.371,413.847,566.33,416.14L566.33,416.14z"/>
<path fill-rule="evenodd" clip-rule="evenodd" fill="#FFF200" stroke="#000000" stroke-width="2" stroke-linecap="square" stroke-miterlimit="10" d="  M555.83,421.39C544.311,422.606,544.311,420.174,555.83,421.39L555.83,421.39z"/>
<path fill-rule="evenodd" clip-rule="evenodd" fill="#FFF200" stroke="#000000" stroke-width="2" stroke-linecap="square" stroke-miterlimit="10" d="  M545.33,426.64C533.88,427.763,534.544,424.636,545.33,426.64L545.33,426.64z"/>
<path fill-rule="evenodd" clip-rule="evenodd" fill="#FFF200" stroke="#000000" stroke-width="2" stroke-linecap="square" stroke-miterlimit="10" d="  M534.83,428.89C523.199,430.082,523.199,427.699,534.83,428.89L534.83,428.89z"/>
<path fill-rule="evenodd" clip-rule="evenodd" fill="#FFF200" stroke="#000000" stroke-width="2" stroke-linecap="square" stroke-miterlimit="10" d="  M504.08,455.14C492.835,458.442,491.937,454.042,504.08,455.14L504.08,455.14z"/>
<path fill-rule="evenodd" clip-rule="evenodd" fill="#FFF200" stroke="#000000" stroke-width="2" stroke-linecap="square" stroke-miterlimit="10" d="  M496.58,476.14C485.169,477.455,485.685,474.354,496.58,476.14L496.58,476.14z"/>
<path fill-rule="evenodd" clip-rule="evenodd" fill="#FFF200" stroke="#000000" stroke-width="2" stroke-linecap="square" stroke-miterlimit="10" d="  M513.08,488.89C501.63,490.013,502.294,486.886,513.08,488.89L513.08,488.89z"/>
<path fill-rule="evenodd" clip-rule="evenodd" fill="#FFF200" stroke="#000000" stroke-width="2" stroke-linecap="square" stroke-miterlimit="10" d="  M539.33,489.64C527.315,490.768,528.18,486.264,539.33,489.64L539.33,489.64z"/>
<path fill-rule="evenodd" clip-rule="evenodd" fill="#DFF3FD" d="M481.58,585.64c-17.555-12.121-40.577-19.025-21.75-39  c-6.095,11.938-15.757,18.298-27,6c-1.53,0.323-2.28,1.323-2.25,3c16.893,6.404,9.552,18.704,6,27.75  C448.287,548.239,468.232,594.961,481.58,585.64z"/>
<path fill="none" stroke="#000000" stroke-width="2" stroke-linecap="square" stroke-miterlimit="10" d="M481.58,585.64  c-17.555-12.121-40.577-19.025-21.75-39c-6.095,11.938-15.757,18.298-27,6c-1.53,0.323-2.28,1.323-2.25,3  c16.893,6.404,9.552,18.704,6,27.75C448.287,548.239,468.232,594.961,481.58,585.64z"/>
<path fill="none" stroke="#000000" stroke-width="2" stroke-linecap="square" stroke-miterlimit="10" d="M432.08,553.39  c-11.676-4.841-40.361,2.688-46.877-6c-9.636-12.848,2.884-30.414,13.875-37.5"/>
<path fill-rule="evenodd" clip-rule="evenodd" fill="#DFF3FD" stroke="#000000" stroke-width="2" stroke-linecap="square" stroke-miterlimit="10" d="  M415.58,503.89C397.107,529.182,396.573,479.324,415.58,503.89L415.58,503.89z"/>
<path fill-rule="evenodd" clip-rule="evenodd" fill="#FFF200" stroke="#000000" stroke-width="2" stroke-linecap="square" stroke-miterlimit="10" d="  M414.078,492.64C402.467,493.623,402.664,491.182,414.078,492.64L414.078,492.64z"/>
<path fill-rule="evenodd" clip-rule="evenodd" fill="#FFF200" stroke="#000000" stroke-width="2" stroke-linecap="square" stroke-miterlimit="10" d="  M411.828,482.89C400.505,483.919,401.354,481.022,411.828,482.89L411.828,482.89z"/>
<path fill-rule="evenodd" clip-rule="evenodd" fill="#FFF200" stroke="#000000" stroke-width="2" stroke-linecap="square" stroke-miterlimit="10" d="  M406.578,474.64C395.036,477.58,394.616,473.213,406.578,474.64L406.578,474.64z"/>
<path fill-rule="evenodd" clip-rule="evenodd" fill="#FFF200" stroke="#000000" stroke-width="2" stroke-linecap="square" stroke-miterlimit="10" d="  M396.078,470.14C384.648,471.328,385.704,468.477,396.078,470.14L396.078,470.14z"/>
<path fill-rule="evenodd" clip-rule="evenodd" fill="#FFF200" stroke="#000000" stroke-width="2" stroke-linecap="square" stroke-miterlimit="10" d="  M386.328,465.64C375.542,467.644,374.877,464.517,386.328,465.64L386.328,465.64z"/>
<path fill-rule="evenodd" clip-rule="evenodd" fill="#FFF200" stroke="#000000" stroke-width="2" stroke-linecap="square" stroke-miterlimit="10" d="  M375.828,464.14C364.197,465.332,364.197,462.949,375.828,464.14L375.828,464.14z"/>
<path fill-rule="evenodd" clip-rule="evenodd" fill="#FFF200" stroke="#000000" stroke-width="2" stroke-linecap="square" stroke-miterlimit="10" d="  M365.328,458.14C354.518,459.507,354.346,457.249,365.328,458.14L365.328,458.14z"/>
<path fill-rule="evenodd" clip-rule="evenodd" fill="#FFF200" stroke="#000000" stroke-width="2" stroke-linecap="square" stroke-miterlimit="10" d="  M357.078,449.89C346.577,450.993,346.577,448.788,357.078,449.89L357.078,449.89z"/>
<path fill-rule="evenodd" clip-rule="evenodd" fill="#FFF200" stroke="#000000" stroke-width="2" stroke-linecap="square" stroke-miterlimit="10" d="  M346.578,441.64C335.148,442.828,336.204,439.977,346.578,441.64L346.578,441.64z"/>
<path fill-rule="evenodd" clip-rule="evenodd" fill="#FFF200" stroke="#000000" stroke-width="2" stroke-linecap="square" stroke-miterlimit="10" d="  M339.078,431.14C328.988,432.794,328.051,429.96,339.078,431.14L339.078,431.14z"/>
<path fill-rule="evenodd" clip-rule="evenodd" fill="#FFF200" stroke="#000000" stroke-width="2" stroke-linecap="square" stroke-miterlimit="10" d="  M333.078,421.39C321.447,422.582,321.447,420.199,333.078,421.39L333.078,421.39z"/>
<path fill-rule="evenodd" clip-rule="evenodd" fill="#FFF200" stroke="#000000" stroke-width="2" stroke-linecap="square" stroke-miterlimit="10" d="  M329.328,411.64C317.283,413.845,317.768,408.642,329.328,411.64L329.328,411.64z"/>
<path fill-rule="evenodd" clip-rule="evenodd" fill="#FFF200" stroke="#000000" stroke-width="2" stroke-linecap="square" stroke-miterlimit="10" d="  M327.828,399.64C316.885,400.743,316.885,398.538,327.828,399.64L327.828,399.64z"/>
<path fill-rule="evenodd" clip-rule="evenodd" fill="#FFF200" stroke="#000000" stroke-width="2" stroke-linecap="square" stroke-miterlimit="10" d="  M330.828,386.89C320.354,388.759,319.505,385.861,330.828,386.89L330.828,386.89z"/>
<path fill-rule="evenodd" clip-rule="evenodd" fill="#FFF200" stroke="#000000" stroke-width="2" stroke-linecap="square" stroke-miterlimit="10" d="  M337.578,376.39C327.006,377.51,327.006,375.271,337.578,376.39L337.578,376.39z"/>
<path fill-rule="evenodd" clip-rule="evenodd" fill="#FFF200" stroke="#000000" stroke-width="2" stroke-linecap="square" stroke-miterlimit="10" d="  M345.828,368.14C334.197,369.332,334.197,366.949,345.828,368.14L345.828,368.14z"/>
<path fill-rule="evenodd" clip-rule="evenodd" fill="#FFF200" stroke="#000000" stroke-width="2" stroke-linecap="square" stroke-miterlimit="10" d="  M352.578,357.64C341.242,358.849,341.242,356.431,352.578,357.64L352.578,357.64z"/>
<path fill-rule="evenodd" clip-rule="evenodd" fill="#FFF200" stroke="#000000" stroke-width="2" stroke-linecap="square" stroke-miterlimit="10" d="  M358.578,349.39C347.107,350.68,348.113,347.867,358.578,349.39L358.578,349.39z"/>
<path fill-rule="evenodd" clip-rule="evenodd" fill="#FFF200" stroke="#000000" stroke-width="2" stroke-linecap="square" stroke-miterlimit="10" d="  M367.578,341.89C355.852,343,356.587,339.912,367.578,341.89L367.578,341.89z"/>
<path fill-rule="evenodd" clip-rule="evenodd" fill="#FFF200" stroke="#000000" stroke-width="2" stroke-linecap="square" stroke-miterlimit="10" d="  M376.578,333.64C366.113,335.164,365.107,332.35,376.578,333.64L376.578,333.64z"/>
<path fill-rule="evenodd" clip-rule="evenodd" fill="#FFF200" stroke="#000000" stroke-width="2" stroke-linecap="square" stroke-miterlimit="10" d="  M387.078,329.14C376.307,330.35,376.792,327.515,387.078,329.14L387.078,329.14z"/>
<path fill-rule="evenodd" clip-rule="evenodd" fill="#FFF200" stroke="#000000" stroke-width="2" stroke-linecap="square" stroke-miterlimit="10" d="  M398.328,326.89C387.756,328.01,387.756,325.771,398.328,326.89L398.328,326.89z"/>
<path fill-rule="evenodd" clip-rule="evenodd" fill="#FFF200" stroke="#000000" stroke-width="2" stroke-linecap="square" stroke-miterlimit="10" d="  M410.328,326.89C399.446,328.015,399.446,325.765,410.328,326.89L410.328,326.89z"/>
<path fill-rule="evenodd" clip-rule="evenodd" fill="#FFF200" stroke="#000000" stroke-width="2" stroke-linecap="square" stroke-miterlimit="10" d="  M421.58,329.14C409.688,330.425,410.111,327.433,421.58,329.14L421.58,329.14z"/>
<path fill-rule="evenodd" clip-rule="evenodd" fill="#FFF200" stroke="#000000" stroke-width="2" stroke-linecap="square" stroke-miterlimit="10" d="  M432.08,329.89C420.991,331.111,420.991,328.669,432.08,329.89L432.08,329.89z"/>
<path fill-rule="evenodd" clip-rule="evenodd" fill="#FFF200" stroke="#000000" stroke-width="2" stroke-linecap="square" stroke-miterlimit="10" d="  M443.33,333.64C431.995,336.652,431.451,332.175,443.33,333.64L443.33,333.64z"/>
<path fill-rule="evenodd" clip-rule="evenodd" fill="#FFF200" stroke="#000000" stroke-width="2" stroke-linecap="square" stroke-miterlimit="10" d="  M453.83,337.39C443.395,339.025,442.355,336.232,453.83,337.39L453.83,337.39z"/>
<path fill-rule="evenodd" clip-rule="evenodd" fill="#FFF200" stroke="#000000" stroke-width="2" stroke-linecap="square" stroke-miterlimit="10" d="  M466.58,341.14C455.491,342.361,455.491,339.919,466.58,341.14L466.58,341.14z"/>
<path fill-rule="evenodd" clip-rule="evenodd" fill="#FFF200" stroke="#000000" stroke-width="2" stroke-linecap="square" stroke-miterlimit="10" d="  M476.33,346.39C465.806,347.754,465.68,345.505,476.33,346.39L476.33,346.39z"/>
<path fill-rule="evenodd" clip-rule="evenodd" fill="#FFF200" stroke="#000000" stroke-width="2" stroke-linecap="square" stroke-miterlimit="10" d="  M488.33,353.14C477.447,354.265,477.447,352.015,488.33,353.14L488.33,353.14z"/>
<path fill-rule="evenodd" clip-rule="evenodd" fill="#FFF200" stroke="#000000" stroke-width="2" stroke-linecap="square" stroke-miterlimit="10" d="  M498.08,359.89C486.991,361.111,486.991,358.669,498.08,359.89L498.08,359.89z"/>
<path fill-rule="evenodd" clip-rule="evenodd" fill="#FFF200" stroke="#000000" stroke-width="2" stroke-linecap="square" stroke-miterlimit="10" d="  M505.58,368.14C494.228,369.866,493.621,366.859,505.58,368.14L505.58,368.14z"/>
<path fill-rule="evenodd" clip-rule="evenodd" fill="#FFF200" stroke="#000000" stroke-width="2" stroke-linecap="square" stroke-miterlimit="10" d="  M510.08,378.64C498.669,379.955,499.185,376.854,510.08,378.64L510.08,378.64z"/>
<path fill-rule="evenodd" clip-rule="evenodd" fill="#FFF200" stroke="#000000" stroke-width="2" stroke-linecap="square" stroke-miterlimit="10" d="  M512.33,390.64C500.88,391.763,501.544,388.637,512.33,390.64L512.33,390.64z"/>
<path fill-rule="evenodd" clip-rule="evenodd" fill="#FFF200" stroke="#000000" stroke-width="2" stroke-linecap="square" stroke-miterlimit="10" d="  M512.33,401.89C501.241,403.111,501.241,400.669,512.33,401.89L512.33,401.89z"/>
<path fill-rule="evenodd" clip-rule="evenodd" fill="#FFF200" stroke="#000000" stroke-width="2" stroke-linecap="square" stroke-miterlimit="10" d="  M510.83,412.39C499.907,414.053,499.423,410.938,510.83,412.39L510.83,412.39z"/>
<path fill-rule="evenodd" clip-rule="evenodd" fill="#FFF200" stroke="#000000" stroke-width="2" stroke-linecap="square" stroke-miterlimit="10" d="  M506.33,423.64C495.447,424.765,495.447,422.515,506.33,423.64L506.33,423.64z"/>
<path fill-rule="evenodd" clip-rule="evenodd" fill="#FFF200" stroke="#000000" stroke-width="2" stroke-linecap="square" stroke-miterlimit="10" d="  M503.33,434.14C492.085,437.442,491.187,433.042,503.33,434.14L503.33,434.14z"/>
<path fill-rule="evenodd" clip-rule="evenodd" fill="#FFF200" stroke="#000000" stroke-width="2" stroke-linecap="square" stroke-miterlimit="10" d="  M498.08,443.89C486.886,444.87,487.077,442.417,498.08,443.89L498.08,443.89z"/>
<path fill-rule="evenodd" clip-rule="evenodd" fill="#FFF200" stroke="#000000" stroke-width="2" stroke-linecap="square" stroke-miterlimit="10" d="  M492.83,454.39C481.229,455.699,481.723,452.635,492.83,454.39L492.83,454.39z"/>
<path fill-rule="evenodd" clip-rule="evenodd" fill="#FFF200" stroke="#000000" stroke-width="2" stroke-linecap="square" stroke-miterlimit="10" d="  M485.33,462.64C473.699,463.832,473.699,461.449,485.33,462.64L485.33,462.64z"/>
<path fill-rule="evenodd" clip-rule="evenodd" fill="#FFF200" stroke="#000000" stroke-width="2" stroke-linecap="square" stroke-miterlimit="10" d="  M477.08,470.14C465.744,471.349,465.744,468.931,477.08,470.14L477.08,470.14z"/>
<path fill-rule="evenodd" clip-rule="evenodd" fill="#FFF200" stroke="#000000" stroke-width="2" stroke-linecap="square" stroke-miterlimit="10" d="  M468.08,476.14C456.613,477.847,456.19,474.856,468.08,476.14L468.08,476.14z"/>
<path fill-rule="evenodd" clip-rule="evenodd" fill="#FFF200" stroke="#000000" stroke-width="2" stroke-linecap="square" stroke-miterlimit="10" d="  M456.83,478.39C445.947,479.515,445.947,477.265,456.83,478.39L456.83,478.39z"/>
<path fill-rule="evenodd" clip-rule="evenodd" fill="#FFF200" stroke="#000000" stroke-width="2" stroke-linecap="square" stroke-miterlimit="10" d="  M446.33,483.64C435.369,484.66,436.127,481.774,446.33,483.64L446.33,483.64z"/>
<path fill-rule="evenodd" clip-rule="evenodd" fill="#FFF200" stroke="#000000" stroke-width="2" stroke-linecap="square" stroke-miterlimit="10" d="  M436.58,488.14C424.93,489.555,424.9,487.184,436.58,488.14L436.58,488.14z"/>
<path fill-rule="evenodd" clip-rule="evenodd" fill="#FFF200" stroke="#000000" stroke-width="2" stroke-linecap="square" stroke-miterlimit="10" d="  M425.33,491.14C414.348,492.032,414.521,489.773,425.33,491.14L425.33,491.14z"/>
<path fill-rule="evenodd" clip-rule="evenodd" fill="#FFF200" stroke="#000000" stroke-width="2" stroke-linecap="square" stroke-miterlimit="10" d="  M394.578,517.39C383.696,518.515,383.696,516.265,394.578,517.39L394.578,517.39z"/>
<path fill-rule="evenodd" clip-rule="evenodd" fill="#FFF200" stroke="#000000" stroke-width="2" stroke-linecap="square" stroke-miterlimit="10" d="  M387.078,537.64C376.766,539.15,376.314,536.301,387.078,537.64L387.078,537.64z"/>
<path fill-rule="evenodd" clip-rule="evenodd" fill="#FFF200" stroke="#000000" stroke-width="2" stroke-linecap="square" stroke-miterlimit="10" d="  M403.578,550.39C393.036,551.729,393.066,549.503,403.578,550.39L403.578,550.39z"/>
<path fill-rule="evenodd" clip-rule="evenodd" fill="#FFF200" stroke="#000000" stroke-width="2" stroke-linecap="square" stroke-miterlimit="10" d="  M429.83,551.14C419.306,552.504,419.18,550.255,429.83,551.14L429.83,551.14z"/>
<path fill-rule="evenodd" clip-rule="evenodd" fill="#DFF3FD" d="M371.328,530.14c-10.75-7.5-21.5-15-32.25-22.5  c3.448-4.557,7.556-15.519,9.75-18c-6.522,12.795-16.784,19.158-28.5,6c-1.079,0.763-1.829,1.763-2.25,3  c19.723,7.754,8.025,18.217,6,29.25C337.797,493.069,367.76,544.305,371.328,530.14z"/>
<path fill="none" stroke="#000000" stroke-width="2" stroke-linecap="square" stroke-miterlimit="10" d="M371.328,530.14  c-10.75-7.5-21.5-15-32.25-22.5c3.448-4.557,7.556-15.519,9.75-18c-6.522,12.795-16.784,19.158-28.5,6  c-1.079,0.763-1.829,1.763-2.25,3c19.723,7.754,8.025,18.217,6,29.25C337.797,493.069,367.76,544.305,371.328,530.14z"/>
<path fill="none" stroke="#000000" stroke-width="2" stroke-linecap="square" stroke-miterlimit="10" d="M319.578,497.14  c-13.267-6.813-40.794,3.281-49.5-6.75c-10.711-12.342,4.224-32.756,15-39"/>
<path fill-rule="evenodd" clip-rule="evenodd" fill="#DFF3FD" stroke="#000000" stroke-width="2" stroke-linecap="square" stroke-miterlimit="10" d="  M303.078,444.64C284.297,476.408,284.297,412.872,303.078,444.64L303.078,444.64z"/>
<path fill-rule="evenodd" clip-rule="evenodd" fill="#FFF200" stroke="#000000" stroke-width="2" stroke-linecap="square" stroke-miterlimit="10" d="  M300.828,432.64C288.683,435.212,288.683,430.068,300.828,432.64L300.828,432.64z"/>
<path fill-rule="evenodd" clip-rule="evenodd" fill="#FFF200" stroke="#000000" stroke-width="2" stroke-linecap="square" stroke-miterlimit="10" d="  M298.578,422.14C286.861,424.759,286.861,419.521,298.578,422.14L298.578,422.14z"/>
<path fill-rule="evenodd" clip-rule="evenodd" fill="#FFF200" stroke="#000000" stroke-width="2" stroke-linecap="square" stroke-miterlimit="10" d="  M292.578,413.89C281.019,416.752,280.748,411.55,292.578,413.89L292.578,413.89z"/>
<path fill-rule="evenodd" clip-rule="evenodd" fill="#FFF200" stroke="#000000" stroke-width="2" stroke-linecap="square" stroke-miterlimit="10" d="  M282.078,408.64C270.519,411.502,270.248,406.3,282.078,408.64L282.078,408.64z"/>
<path fill-rule="evenodd" clip-rule="evenodd" fill="#FFF200" stroke="#000000" stroke-width="2" stroke-linecap="square" stroke-miterlimit="10" d="  M271.578,404.89C259.441,406.119,260.289,401.704,271.578,404.89L271.578,404.89z"/>
<path fill-rule="evenodd" clip-rule="evenodd" fill="#FFF200" stroke="#000000" stroke-width="2" stroke-linecap="square" stroke-miterlimit="10" d="  M260.328,402.64C248.492,405.213,248.492,400.067,260.328,402.64L260.328,402.64z"/>
<path fill-rule="evenodd" clip-rule="evenodd" fill="#FFF200" stroke="#000000" stroke-width="2" stroke-linecap="square" stroke-miterlimit="10" d="  M249.828,396.64C237.683,399.212,237.683,394.068,249.828,396.64L249.828,396.64z"/>
<path fill-rule="evenodd" clip-rule="evenodd" fill="#FFF200" stroke="#000000" stroke-width="2" stroke-linecap="square" stroke-miterlimit="10" d="  M241.578,387.64C229.396,390.213,229.396,385.067,241.578,387.64L241.578,387.64z"/>
<path fill-rule="evenodd" clip-rule="evenodd" fill="#FFF200" stroke="#000000" stroke-width="2" stroke-linecap="square" stroke-miterlimit="10" d="  M230.328,378.64C218.665,382.126,217.745,377.393,230.328,378.64L230.328,378.64z"/>
<path fill-rule="evenodd" clip-rule="evenodd" fill="#FFF200" stroke="#000000" stroke-width="2" stroke-linecap="square" stroke-miterlimit="10" d="  M222.078,368.14C210.704,371.53,210.265,365.368,222.078,368.14L222.078,368.14z"/>
<path fill-rule="evenodd" clip-rule="evenodd" fill="#FFF200" stroke="#000000" stroke-width="2" stroke-linecap="square" stroke-miterlimit="10" d="  M215.328,357.64C203.877,360.963,203.377,354.936,215.328,357.64L215.328,357.64z"/>
<path fill-rule="evenodd" clip-rule="evenodd" fill="#FFF200" stroke="#000000" stroke-width="2" stroke-linecap="square" stroke-miterlimit="10" d="  M211.578,347.14C199.572,350.124,199.243,344.929,211.578,347.14L211.578,347.14z"/>
<path fill-rule="evenodd" clip-rule="evenodd" fill="#FFF200" stroke="#000000" stroke-width="2" stroke-linecap="square" stroke-miterlimit="10" d="  M210.078,334.39C198.593,337.863,198.115,331.822,210.078,334.39L210.078,334.39z"/>
<path fill-rule="evenodd" clip-rule="evenodd" fill="#FFF200" stroke="#000000" stroke-width="2" stroke-linecap="square" stroke-miterlimit="10" d="  M213.078,321.64C201.704,325.03,201.265,318.868,213.078,321.64L213.078,321.64z"/>
<path fill-rule="evenodd" clip-rule="evenodd" fill="#FFF200" stroke="#000000" stroke-width="2" stroke-linecap="square" stroke-miterlimit="10" d="  M220.578,310.39C209.383,313.421,208.501,308.106,220.578,310.39L220.578,310.39z"/>
<path fill-rule="evenodd" clip-rule="evenodd" fill="#FFF200" stroke="#000000" stroke-width="2" stroke-linecap="square" stroke-miterlimit="10" d="  M228.828,301.39C216.913,304.664,216.427,298.741,228.828,301.39L228.828,301.39z"/>
<path fill-rule="evenodd" clip-rule="evenodd" fill="#FFF200" stroke="#000000" stroke-width="2" stroke-linecap="square" stroke-miterlimit="10" d="  M236.328,290.89C223.962,293.525,224.363,287.638,236.328,290.89L236.328,290.89z"/>
<path fill-rule="evenodd" clip-rule="evenodd" fill="#FFF200" stroke="#000000" stroke-width="2" stroke-linecap="square" stroke-miterlimit="10" d="  M242.328,281.89C230.654,284.3,230.86,278.98,242.328,281.89L242.328,281.89z"/>
<path fill-rule="evenodd" clip-rule="evenodd" fill="#FFF200" stroke="#000000" stroke-width="2" stroke-linecap="square" stroke-miterlimit="10" d="  M252.078,273.64C239.981,276.432,239.881,271.338,252.078,273.64L252.078,273.64z"/>
<path fill-rule="evenodd" clip-rule="evenodd" fill="#FFF200" stroke="#000000" stroke-width="2" stroke-linecap="square" stroke-miterlimit="10" d="  M261.828,265.39C249.863,268.643,249.462,262.755,261.828,265.39L261.828,265.39z"/>
<path fill-rule="evenodd" clip-rule="evenodd" fill="#FFF200" stroke="#000000" stroke-width="2" stroke-linecap="square" stroke-miterlimit="10" d="  M273.078,260.14C261.113,263.393,260.712,257.505,273.078,260.14L273.078,260.14z"/>
<path fill-rule="evenodd" clip-rule="evenodd" fill="#FFF200" stroke="#000000" stroke-width="2" stroke-linecap="square" stroke-miterlimit="10" d="  M284.328,258.64C272.515,261.413,272.954,255.25,284.328,258.64L284.328,258.64z"/>
<path fill-rule="evenodd" clip-rule="evenodd" fill="#FFF200" stroke="#000000" stroke-width="2" stroke-linecap="square" stroke-miterlimit="10" d="  M297.078,258.64C284.941,259.869,285.789,255.454,297.078,258.64L297.078,258.64z"/>
<path fill-rule="evenodd" clip-rule="evenodd" fill="#FFF200" stroke="#000000" stroke-width="2" stroke-linecap="square" stroke-miterlimit="10" d="  M308.328,260.14C296.877,263.463,296.377,257.436,308.328,260.14L308.328,260.14z"/>
<path fill-rule="evenodd" clip-rule="evenodd" fill="#FFF200" stroke="#000000" stroke-width="2" stroke-linecap="square" stroke-miterlimit="10" d="  M319.578,261.64C307.861,264.26,307.861,259.021,319.578,261.64L319.578,261.64z"/>
<path fill-rule="evenodd" clip-rule="evenodd" fill="#FFF200" stroke="#000000" stroke-width="2" stroke-linecap="square" stroke-miterlimit="10" d="  M331.578,265.39C319.663,268.664,319.177,262.741,331.578,265.39L331.578,265.39z"/>
<path fill-rule="evenodd" clip-rule="evenodd" fill="#FFF200" stroke="#000000" stroke-width="2" stroke-linecap="square" stroke-miterlimit="10" d="  M342.828,269.89C330.427,272.539,330.913,266.617,342.828,269.89L342.828,269.89z"/>
<path fill-rule="evenodd" clip-rule="evenodd" fill="#FFF200" stroke="#000000" stroke-width="2" stroke-linecap="square" stroke-miterlimit="10" d="  M356.328,273.64C343.927,276.13,344.359,270.24,356.328,273.64L356.328,273.64z"/>
<path fill-rule="evenodd" clip-rule="evenodd" fill="#FFF200" stroke="#000000" stroke-width="2" stroke-linecap="square" stroke-miterlimit="10" d="  M366.828,278.89C354.731,281.682,354.631,276.588,366.828,278.89L366.828,278.89z"/>
<path fill-rule="evenodd" clip-rule="evenodd" fill="#FFF200" stroke="#000000" stroke-width="2" stroke-linecap="square" stroke-miterlimit="10" d="  M378.828,285.64C367.454,289.03,367.015,282.868,378.828,285.64L378.828,285.64z"/>
<path fill-rule="evenodd" clip-rule="evenodd" fill="#FFF200" stroke="#000000" stroke-width="2" stroke-linecap="square" stroke-miterlimit="10" d="  M389.328,293.14C377.183,295.712,377.183,290.568,389.328,293.14L389.328,293.14z"/>
<path fill-rule="evenodd" clip-rule="evenodd" fill="#FFF200" stroke="#000000" stroke-width="2" stroke-linecap="square" stroke-miterlimit="10" d="  M396.828,302.14C384.751,304.424,385.633,299.109,396.828,302.14L396.828,302.14z"/>
<path fill-rule="evenodd" clip-rule="evenodd" fill="#FFF200" stroke="#000000" stroke-width="2" stroke-linecap="square" stroke-miterlimit="10" d="  M402.078,312.64C389.743,314.852,390.071,309.656,402.078,312.64L402.078,312.64z"/>
<path fill-rule="evenodd" clip-rule="evenodd" fill="#FFF200" stroke="#000000" stroke-width="2" stroke-linecap="square" stroke-miterlimit="10" d="  M404.328,325.39C391.913,327.904,392.387,321.969,404.328,325.39L404.328,325.39z"/>
<path fill-rule="evenodd" clip-rule="evenodd" fill="#FFF200" stroke="#000000" stroke-width="2" stroke-linecap="square" stroke-miterlimit="10" d="  M404.328,337.39C391.927,340.039,392.413,334.117,404.328,337.39L404.328,337.39z"/>
<path fill-rule="evenodd" clip-rule="evenodd" fill="#FFF200" stroke="#000000" stroke-width="2" stroke-linecap="square" stroke-miterlimit="10" d="  M402.828,348.64C390.493,350.852,390.821,345.656,402.828,348.64L402.828,348.64z"/>
<path fill-rule="evenodd" clip-rule="evenodd" fill="#FFF200" stroke="#000000" stroke-width="2" stroke-linecap="square" stroke-miterlimit="10" d="  M398.328,359.89C386.359,363.29,385.927,357.4,398.328,359.89L398.328,359.89z"/>
<path fill-rule="evenodd" clip-rule="evenodd" fill="#FFF200" stroke="#000000" stroke-width="2" stroke-linecap="square" stroke-miterlimit="10" d="  M394.578,371.89C382.163,374.404,382.637,368.469,394.578,371.89L394.578,371.89z"/>
<path fill-rule="evenodd" clip-rule="evenodd" fill="#FFF200" stroke="#000000" stroke-width="2" stroke-linecap="square" stroke-miterlimit="10" d="  M389.328,380.89C377.387,384.311,376.913,378.376,389.328,380.89L389.328,380.89z"/>
<path fill-rule="evenodd" clip-rule="evenodd" fill="#FFF200" stroke="#000000" stroke-width="2" stroke-linecap="square" stroke-miterlimit="10" d="  M383.328,392.14C371.75,394.823,371.75,389.458,383.328,392.14L383.328,392.14z"/>
<path fill-rule="evenodd" clip-rule="evenodd" fill="#FFF200" stroke="#000000" stroke-width="2" stroke-linecap="square" stroke-miterlimit="10" d="  M375.828,401.14C363.171,402.545,364.215,397.891,375.828,401.14L375.828,401.14z"/>
<path fill-rule="evenodd" clip-rule="evenodd" fill="#FFF200" stroke="#000000" stroke-width="2" stroke-linecap="square" stroke-miterlimit="10" d="  M366.828,409.39C354.877,412.095,355.377,406.067,366.828,409.39L366.828,409.39z"/>
<path fill-rule="evenodd" clip-rule="evenodd" fill="#FFF200" stroke="#000000" stroke-width="2" stroke-linecap="square" stroke-miterlimit="10" d="  M357.078,415.39C345.704,418.78,345.265,412.618,357.078,415.39L357.078,415.39z"/>
<path fill-rule="evenodd" clip-rule="evenodd" fill="#FFF200" stroke="#000000" stroke-width="2" stroke-linecap="square" stroke-miterlimit="10" d="  M345.828,417.64C334.111,420.26,334.111,415.021,345.828,417.64L345.828,417.64z"/>
<path fill-rule="evenodd" clip-rule="evenodd" fill="#FFF200" stroke="#000000" stroke-width="2" stroke-linecap="square" stroke-miterlimit="10" d="  M335.328,422.89C323.146,425.463,323.146,420.317,335.328,422.89L335.328,422.89z"/>
<path fill-rule="evenodd" clip-rule="evenodd" fill="#FFF200" stroke="#000000" stroke-width="2" stroke-linecap="square" stroke-miterlimit="10" d="  M324.078,428.14C312.361,430.759,312.361,425.521,324.078,428.14L324.078,428.14z"/>
<path fill-rule="evenodd" clip-rule="evenodd" fill="#FFF200" stroke="#000000" stroke-width="2" stroke-linecap="square" stroke-miterlimit="10" d="  M312.828,431.14C300.691,432.369,301.539,427.954,312.828,431.14L312.828,431.14z"/>
<path fill-rule="evenodd" clip-rule="evenodd" fill="#FFF200" stroke="#000000" stroke-width="2" stroke-linecap="square" stroke-miterlimit="10" d="  M280.578,458.89C268.433,461.462,268.433,456.318,280.578,458.89L280.578,458.89z"/>
<path fill-rule="evenodd" clip-rule="evenodd" fill="#FFF200" stroke="#000000" stroke-width="2" stroke-linecap="square" stroke-miterlimit="10" d="  M273.078,479.89C261.109,483.291,260.677,477.4,273.078,479.89L273.078,479.89z"/>
<path fill-rule="evenodd" clip-rule="evenodd" fill="#FFF200" stroke="#000000" stroke-width="2" stroke-linecap="square" stroke-miterlimit="10" d="  M290.328,493.39C278.413,496.664,277.927,490.742,290.328,493.39L290.328,493.39z"/>
<path fill-rule="evenodd" clip-rule="evenodd" fill="#FFF200" stroke="#000000" stroke-width="2" stroke-linecap="square" stroke-miterlimit="10" d="  M317.328,494.14C306.566,497.461,305.688,492.988,317.328,494.14L317.328,494.14z"/>
</svg>