<svg xmlns="http://www.w3.org/2000/svg" xmlns:xlink="http://www.w3.org/1999/xlink" version="1.1" id="Layer_1" x="0px" y="0px" enable-background="new 0 0 822.05 841.89" xml:space="preserve" viewBox="233.71 251.55 353.13 342.8">
<path fill-rule="evenodd" clip-rule="evenodd" fill="#DFF3FD" d="M585.041,564.14c-18.75-2-37.5-4-56.25-6  c7.316-60.908,0.636-7.397-6-0.75c-3.071,3.077-26.238-7.734-26.25,0.75c-0.01,6.88,21.348,6.544,25.5,6  c-7.557,62.905,0.479,5.311,6,0.75C536.615,557.808,593.19,583.243,585.041,564.14z"/>
<path fill="none" stroke="#000000" stroke-width="2" stroke-linecap="square" stroke-miterlimit="10" d="M585.041,564.14  c-18.75-2-37.5-4-56.25-6c7.316-60.908,0.636-7.397-6-0.75c-3.071,3.077-26.238-7.734-26.25,0.75c-0.01,6.88,21.348,6.544,25.5,6  c-7.557,62.905,0.479,5.311,6,0.75C536.615,557.808,593.19,583.243,585.041,564.14z"/>
<path fill="none" stroke="#000000" stroke-width="2" stroke-linecap="square" stroke-miterlimit="10" d="M497.291,557.39  c-21.984,1.056-44.461,30.121-63,26.25c-25.045-5.229-19.773-44.997-10.5-60"/>
<path fill-rule="evenodd" clip-rule="evenodd" fill="#DFF3FD" stroke="#000000" stroke-width="2" stroke-linecap="square" stroke-miterlimit="10" d="  M441.041,504.14c2.528,12.585-15.356,26.902-23.25,12C410.066,501.556,431.681,493.745,441.041,504.14z"/>
<path fill-rule="evenodd" clip-rule="evenodd" fill="#FFF200" stroke="#000000" stroke-width="2" stroke-linecap="square" stroke-miterlimit="10" d="  M430.541,489.89C423.013,512.719,407.441,483.713,430.541,489.89L430.541,489.89z"/>
<path fill-rule="evenodd" clip-rule="evenodd" fill="#FFF200" stroke="#000000" stroke-width="2" stroke-linecap="square" stroke-miterlimit="10" d="  M420.791,477.89C413.794,501.117,397.72,472.095,420.791,477.89L420.791,477.89z"/>
<path fill-rule="evenodd" clip-rule="evenodd" fill="#FFF200" stroke="#000000" stroke-width="2" stroke-linecap="square" stroke-miterlimit="10" d="  M408.043,471.89C400.147,494.748,385.011,466.614,408.043,471.89L408.043,471.89z"/>
<path fill-rule="evenodd" clip-rule="evenodd" fill="#FFF200" stroke="#000000" stroke-width="2" stroke-linecap="square" stroke-miterlimit="10" d="  M390.791,472.64C385.177,493.671,367.452,469.536,390.791,472.64L390.791,472.64z"/>
<path fill-rule="evenodd" clip-rule="evenodd" fill="#FFF200" stroke="#000000" stroke-width="2" stroke-linecap="square" stroke-miterlimit="10" d="  M375.041,474.89C365.657,496.361,354.443,468.308,375.041,474.89L375.041,474.89z"/>
<path fill-rule="evenodd" clip-rule="evenodd" fill="#FFF200" stroke="#000000" stroke-width="2" stroke-linecap="square" stroke-miterlimit="10" d="  M360.041,480.14C351.879,501.977,337.22,473.847,360.041,480.14L360.041,480.14z"/>
<path fill-rule="evenodd" clip-rule="evenodd" fill="#FFF200" stroke="#000000" stroke-width="2" stroke-linecap="square" stroke-miterlimit="10" d="  M342.791,479.39C334.901,502.116,319.688,473.402,342.791,479.39L342.791,479.39z"/>
<path fill-rule="evenodd" clip-rule="evenodd" fill="#FFF200" stroke="#000000" stroke-width="2" stroke-linecap="square" stroke-miterlimit="10" d="  M325.541,474.14C319.95,494.936,302.86,470.603,325.541,474.14L325.541,474.14z"/>
<path fill-rule="evenodd" clip-rule="evenodd" fill="#FFF200" stroke="#000000" stroke-width="2" stroke-linecap="square" stroke-miterlimit="10" d="  M306.041,470.39C298.695,493.422,282.674,464.333,306.041,470.39L306.041,470.39z"/>
<path fill-rule="evenodd" clip-rule="evenodd" fill="#FFF200" stroke="#000000" stroke-width="2" stroke-linecap="square" stroke-miterlimit="10" d="  M288.791,462.89C282.7,482.863,265.884,459.313,288.791,462.89L288.791,462.89z"/>
<path fill-rule="evenodd" clip-rule="evenodd" fill="#FFF200" stroke="#000000" stroke-width="2" stroke-linecap="square" stroke-miterlimit="10" d="  M273.041,453.89C267.149,474.893,250.443,451.634,273.041,453.89L273.041,453.89z"/>
<path fill-rule="evenodd" clip-rule="evenodd" fill="#FFF200" stroke="#000000" stroke-width="2" stroke-linecap="square" stroke-miterlimit="10" d="  M261.041,444.14C254.351,467.042,238.016,436.182,261.041,444.14L261.041,444.14z"/>
<path fill-rule="evenodd" clip-rule="evenodd" fill="#FFF200" stroke="#000000" stroke-width="2" stroke-linecap="square" stroke-miterlimit="10" d="  M251.291,429.14C241.114,450.027,230.859,422.999,251.291,429.14L251.291,429.14z"/>
<path fill-rule="evenodd" clip-rule="evenodd" fill="#FFF200" stroke="#000000" stroke-width="2" stroke-linecap="square" stroke-miterlimit="10" d="  M246.791,410.39C239.433,433.363,223.75,404.625,246.791,410.39L246.791,410.39z"/>
<path fill-rule="evenodd" clip-rule="evenodd" fill="#FFF200" stroke="#000000" stroke-width="2" stroke-linecap="square" stroke-miterlimit="10" d="  M248.291,391.64C241.025,413.959,225.025,385.615,248.291,391.64L248.291,391.64z"/>
<path fill-rule="evenodd" clip-rule="evenodd" fill="#FFF200" stroke="#000000" stroke-width="2" stroke-linecap="square" stroke-miterlimit="10" d="  M252.041,375.14C242.259,396.427,231.66,368.627,252.041,375.14L252.041,375.14z"/>
<path fill-rule="evenodd" clip-rule="evenodd" fill="#FFF200" stroke="#000000" stroke-width="2" stroke-linecap="square" stroke-miterlimit="10" d="  M253.541,356.39C247.916,377.464,230.395,352.876,253.541,356.39L253.541,356.39z"/>
<path fill-rule="evenodd" clip-rule="evenodd" fill="#FFF200" stroke="#000000" stroke-width="2" stroke-linecap="square" stroke-miterlimit="10" d="  M255.791,341.39C246.33,362.636,235.177,334.266,255.791,341.39L255.791,341.39z"/>
<path fill-rule="evenodd" clip-rule="evenodd" fill="#FFF200" stroke="#000000" stroke-width="2" stroke-linecap="square" stroke-miterlimit="10" d="  M261.791,324.89C255.605,347.864,238.601,317.355,261.791,324.89L261.791,324.89z"/>
<path fill-rule="evenodd" clip-rule="evenodd" fill="#FFF200" stroke="#000000" stroke-width="2" stroke-linecap="square" stroke-miterlimit="10" d="  M268.541,308.39C261.851,331.293,245.516,300.433,268.541,308.39L268.541,308.39z"/>
<path fill-rule="evenodd" clip-rule="evenodd" fill="#FFF200" stroke="#000000" stroke-width="2" stroke-linecap="square" stroke-miterlimit="10" d="  M279.041,294.14C272.628,317.055,255.958,286.64,279.041,294.14L279.041,294.14z"/>
<path fill-rule="evenodd" clip-rule="evenodd" fill="#FFF200" stroke="#000000" stroke-width="2" stroke-linecap="square" stroke-miterlimit="10" d="  M292.541,283.64C285.036,305.846,269.835,276.706,292.541,283.64L292.541,283.64z"/>
<path fill-rule="evenodd" clip-rule="evenodd" fill="#FFF200" stroke="#000000" stroke-width="2" stroke-linecap="square" stroke-miterlimit="10" d="  M308.291,274.64C300.931,297.617,285.238,268.838,308.291,274.64L308.291,274.64z"/>
<path fill-rule="evenodd" clip-rule="evenodd" fill="#FFF200" stroke="#000000" stroke-width="2" stroke-linecap="square" stroke-miterlimit="10" d="  M323.291,270.14C316.75,290.057,300.973,266.404,323.291,270.14L323.291,270.14z"/>
<path fill-rule="evenodd" clip-rule="evenodd" fill="#FFF200" stroke="#000000" stroke-width="2" stroke-linecap="square" stroke-miterlimit="10" d="  M338.291,263.39C332.571,284.303,315.314,260.787,338.291,263.39L338.291,263.39z"/>
<path fill-rule="evenodd" clip-rule="evenodd" fill="#FFF200" stroke="#000000" stroke-width="2" stroke-linecap="square" stroke-miterlimit="10" d="  M356.291,261.14C347.844,283.086,333.535,254.408,356.291,261.14L356.291,261.14z"/>
<path fill-rule="evenodd" clip-rule="evenodd" fill="#FFF200" stroke="#000000" stroke-width="2" stroke-linecap="square" stroke-miterlimit="10" d="  M372.791,258.14C362.954,280.141,352.206,251.934,372.791,258.14L372.791,258.14z"/>
<path fill-rule="evenodd" clip-rule="evenodd" fill="#FFF200" stroke="#000000" stroke-width="2" stroke-linecap="square" stroke-miterlimit="10" d="  M392.291,253.64C384.651,276.653,369.057,247.618,392.291,253.64L392.291,253.64z"/>
<path fill-rule="evenodd" clip-rule="evenodd" fill="#FFF200" stroke="#000000" stroke-width="2" stroke-linecap="square" stroke-miterlimit="10" d="  M408.793,253.64C402.439,277.27,385.504,246.619,408.793,253.64L408.793,253.64z"/>
<path fill-rule="evenodd" clip-rule="evenodd" fill="#FFF200" stroke="#000000" stroke-width="2" stroke-linecap="square" stroke-miterlimit="10" d="  M429.041,253.64C423.476,277.78,405.312,246.486,429.041,253.64L429.041,253.64z"/>
<path fill-rule="evenodd" clip-rule="evenodd" fill="#FFF200" stroke="#000000" stroke-width="2" stroke-linecap="square" stroke-miterlimit="10" d="  M447.041,255.89C439.401,278.903,423.808,249.868,447.041,255.89L447.041,255.89z"/>
<path fill-rule="evenodd" clip-rule="evenodd" fill="#FFF200" stroke="#000000" stroke-width="2" stroke-linecap="square" stroke-miterlimit="10" d="  M462.041,261.89C456.427,282.922,438.702,258.786,462.041,261.89L462.041,261.89z"/>
<path fill-rule="evenodd" clip-rule="evenodd" fill="#FFF200" stroke="#000000" stroke-width="2" stroke-linecap="square" stroke-miterlimit="10" d="  M475.541,271.64C468.463,294.795,452.18,265.356,475.541,271.64L475.541,271.64z"/>
<path fill-rule="evenodd" clip-rule="evenodd" fill="#FFF200" stroke="#000000" stroke-width="2" stroke-linecap="square" stroke-miterlimit="10" d="  M486.791,285.89C481.967,306.834,462.729,281.99,486.791,285.89L486.791,285.89z"/>
<path fill-rule="evenodd" clip-rule="evenodd" fill="#FFF200" stroke="#000000" stroke-width="2" stroke-linecap="square" stroke-miterlimit="10" d="  M495.041,300.89C489.552,324.74,471.384,293.758,495.041,300.89L495.041,300.89z"/>
<path fill-rule="evenodd" clip-rule="evenodd" fill="#FFF200" stroke="#000000" stroke-width="2" stroke-linecap="square" stroke-miterlimit="10" d="  M501.041,315.89C493.435,338.755,477.88,310.585,501.041,315.89L501.041,315.89z"/>
<path fill-rule="evenodd" clip-rule="evenodd" fill="#FFF200" stroke="#000000" stroke-width="2" stroke-linecap="square" stroke-miterlimit="10" d="  M503.291,333.89C496.163,356.414,480.152,327.528,503.291,333.89L503.291,333.89z"/>
<path fill-rule="evenodd" clip-rule="evenodd" fill="#FFF200" stroke="#000000" stroke-width="2" stroke-linecap="square" stroke-miterlimit="10" d="  M506.291,350.39C498.953,373.278,483.068,344.144,506.291,350.39L506.291,350.39z"/>
<path fill-rule="evenodd" clip-rule="evenodd" fill="#FFF200" stroke="#000000" stroke-width="2" stroke-linecap="square" stroke-miterlimit="10" d="  M506.291,366.14C499.348,388.734,483.098,359.608,506.291,366.14L506.291,366.14z"/>
<path fill-rule="evenodd" clip-rule="evenodd" fill="#FFF200" stroke="#000000" stroke-width="2" stroke-linecap="square" stroke-miterlimit="10" d="  M506.291,383.39C500.726,407.53,482.562,376.236,506.291,383.39L506.291,383.39z"/>
<path fill-rule="evenodd" clip-rule="evenodd" fill="#FFF200" stroke="#000000" stroke-width="2" stroke-linecap="square" stroke-miterlimit="10" d="  M502.541,399.89C495.28,423.024,479.286,393.635,502.541,399.89L502.541,399.89z"/>
<path fill-rule="evenodd" clip-rule="evenodd" fill="#FFF200" stroke="#000000" stroke-width="2" stroke-linecap="square" stroke-miterlimit="10" d="  M497.291,415.64C490.412,438.795,474.183,409.641,497.291,415.64L497.291,415.64z"/>
<path fill-rule="evenodd" clip-rule="evenodd" fill="#FFF200" stroke="#000000" stroke-width="2" stroke-linecap="square" stroke-miterlimit="10" d="  M489.791,430.64C482.523,452.965,466.574,424.686,489.791,430.64L489.791,430.64z"/>
<path fill-rule="evenodd" clip-rule="evenodd" fill="#FFF200" stroke="#000000" stroke-width="2" stroke-linecap="square" stroke-miterlimit="10" d="  M477.041,440.39C469.495,463.074,453.823,435.547,477.041,440.39L477.041,440.39z"/>
<path fill-rule="evenodd" clip-rule="evenodd" fill="#FFF200" stroke="#000000" stroke-width="2" stroke-linecap="square" stroke-miterlimit="10" d="  M466.541,454.64C460.692,478.646,443.141,447.203,466.541,454.64L466.541,454.64z"/>
<path fill-rule="evenodd" clip-rule="evenodd" fill="#FFF200" stroke="#000000" stroke-width="2" stroke-linecap="square" stroke-miterlimit="10" d="  M456.791,468.89C448.824,490.882,434.09,462.265,456.791,468.89L456.791,468.89z"/>
<path fill-rule="evenodd" clip-rule="evenodd" fill="#FFF200" stroke="#000000" stroke-width="2" stroke-linecap="square" stroke-miterlimit="10" d="  M444.041,480.14C437.5,500.057,421.724,476.405,444.041,480.14L444.041,480.14z"/>
<path fill-rule="evenodd" clip-rule="evenodd" fill="#FFF200" stroke="#000000" stroke-width="2" stroke-linecap="square" stroke-miterlimit="10" d="  M423.041,536.39C415.469,559.356,400.102,529.978,423.041,536.39L423.041,536.39z"/>
<path fill-rule="evenodd" clip-rule="evenodd" fill="#FFF200" stroke="#000000" stroke-width="2" stroke-linecap="square" stroke-miterlimit="10" d="  M427.541,568.64C421.128,591.555,404.461,561.139,427.541,568.64L427.541,568.64z"/>
<path fill-rule="evenodd" clip-rule="evenodd" fill="#FFF200" stroke="#000000" stroke-width="2" stroke-linecap="square" stroke-miterlimit="10" d="  M458.291,573.14C452.726,597.28,434.562,565.986,458.291,573.14L458.291,573.14z"/>
<path fill-rule="evenodd" clip-rule="evenodd" fill="#FFF200" stroke="#000000" stroke-width="2" stroke-linecap="square" stroke-miterlimit="10" d="  M493.541,555.89C485.643,577.75,470.653,549.628,493.541,555.89L493.541,555.89z"/>
</svg>