<svg xmlns="http://www.w3.org/2000/svg" xmlns:xlink="http://www.w3.org/1999/xlink" version="1.1" id="Layer_1" x="0px" y="0px" enable-background="new 0 0 822.05 841.89" xml:space="preserve" viewBox="256.02 249.63 311.42 345.61">
<path fill-rule="evenodd" clip-rule="evenodd" fill="#90A7D6" stroke="#000000" stroke-width="2" stroke-linecap="square" stroke-miterlimit="10" d="  M330.25,298.626c-26.819,30.808-33.887,67.451-30.375,107.25c4.332,49.092,4.986,110.304,25.125,156.002  c16.197,36.753,47.003,34.151,84.194,30.167c39.317-4.213,110.613-15.015,140.806-40.667  c45.823-38.933-17.073-155.938-32.25-196.502c-16.534-44.191-33.365-66.191-79.5-78.75  C403.827,266.755,354.728,266.934,330.25,298.626z"/>
<path fill="none" stroke="#000000" stroke-width="2" stroke-linecap="square" stroke-miterlimit="10" d="M442.75,280.626  c-166.172,3.918-90.738,218.372-72,313.502"/>
<path fill="none" stroke="#000000" stroke-width="2" stroke-linecap="square" stroke-miterlimit="10" d="M522.25,378.126  c-23.919,1.499-147.986,16.644-146.806,49.696c1.817,50.888,1.371,124.303,41.056,162.556"/>
<path fill="none" stroke="#000000" stroke-width="2" stroke-linecap="square" stroke-miterlimit="10" d="M417.25,274.626  c-53.972,14.955-102.75,43.203-102.75,106.5c0,35.069,7.397,72.598,12.546,107.168c4.693,31.513,4.776,72.558,20.454,100.584"/>
<path fill-rule="evenodd" clip-rule="evenodd" fill="#BCBEC0" stroke="#000000" stroke-width="2" stroke-linecap="square" stroke-miterlimit="10" d="  M405.25,285.126c-2.25,11.5-4.5,23-6.75,34.5C421.218,320.165,421.529,290.459,405.25,285.126z"/>
<path fill-rule="evenodd" clip-rule="evenodd" fill="#BCBEC0" stroke="#000000" stroke-width="2" stroke-linecap="square" stroke-miterlimit="10" d="  M415,292.626c2.75-3,5.5-6,8.25-9c7.75,8,15.5,16,23.25,24C430.035,318.894,419.861,309.776,415,292.626z"/>
<path fill="none" stroke="#000000" stroke-width="2" stroke-linecap="square" stroke-miterlimit="10" d="M387.25,417.876  c3.015,41.201,5.965,147.016,47.25,169.502"/>
<path fill-rule="evenodd" clip-rule="evenodd" fill="#BCBEC0" stroke="#000000" stroke-width="2" stroke-linecap="square" stroke-miterlimit="10" d="  M413.5,406.626c-0.25,9.25-0.5,18.501-0.75,27.752C430.219,435.299,424.884,413.7,413.5,406.626z"/>
<path fill-rule="evenodd" clip-rule="evenodd" fill="#BCBEC0" stroke="#000000" stroke-width="2" stroke-linecap="square" stroke-miterlimit="10" d="  M415.75,399.876c0.113,14.624,13.749,19.5,24.75,27.752C447.07,409.223,429.834,407.31,415.75,399.876z"/>
<path fill-rule="evenodd" clip-rule="evenodd" fill="#0071BC" stroke="#000000" stroke-width="2" stroke-linecap="square" stroke-miterlimit="10" d="  M349,283.626c-11,10-22,20-33,30c-13.25-19.191-35.644-31.861-57.75-19.5C282.385,279.809,325.068,249.02,349,283.626z"/>
<path fill-rule="evenodd" clip-rule="evenodd" fill="#DFF3FD" stroke="#000000" stroke-width="2" stroke-linecap="square" stroke-miterlimit="10" d="  M291.25,294.876c-0.567,19.057,8.629,36.116,9.75,51.75c1.807,25.216-4.667,49.795-0.75,75.752  c-18.729-28.328-38.583-60.789-42.75-95.252C254.709,304.045,263.812,276.299,291.25,294.876z"/>
<path fill-rule="evenodd" clip-rule="evenodd" fill="#0071BC" stroke="#000000" stroke-width="2" stroke-linecap="square" stroke-miterlimit="10" d="  M389.5,268.626c-4.375-8.14-0.885-14.313-11.25-18c14.753,1.639,52.169-2.513,56.25,13.5  C440.214,286.548,400.333,270.527,389.5,268.626z"/>
<path fill-rule="evenodd" clip-rule="evenodd" fill="#DFF3FD" stroke="#000000" stroke-width="2" stroke-linecap="square" stroke-miterlimit="10" d="  M378.25,250.626c-7.135,6.428-10.121,15.277-8.25,24.75C391.756,274.911,393.301,260.74,378.25,250.626z"/>
</svg>