<svg xmlns="http://www.w3.org/2000/svg" xmlns:xlink="http://www.w3.org/1999/xlink" version="1.1" id="Layer_1" x="0px" y="0px" enable-background="new 0 0 822.05 841.89" xml:space="preserve" viewBox="207 250.91 410.07 344.7">
<path fill-rule="evenodd" clip-rule="evenodd" fill="#90A7D6" stroke="#000000" stroke-width="2" stroke-linecap="square" stroke-miterlimit="10" d="  M256.75,284.908c-39.596,39.119-20.069,126.546-4.875,172.127c15.681,47.042,125.321,23.428,151.875-3.375  c29.12-29.394-9.643-108.487-24-138.752C360.139,273.566,292.756,239.917,256.75,284.908z"/>
<path fill="none" stroke="#000000" stroke-width="2" stroke-linecap="square" stroke-miterlimit="10" d="M331.75,272.158  c-111.137,8.29-61.466,141.635-48,210.002"/>
<path fill="none" stroke="#000000" stroke-width="2" stroke-linecap="square" stroke-miterlimit="10" d="M385,337.408  c-19.092,2.228-98.25,9.311-98.25,36.75c0,32.904,2.534,81.184,27.75,105.752"/>
<path fill="none" stroke="#000000" stroke-width="2" stroke-linecap="square" stroke-miterlimit="10" d="M315.25,268.408  c-34.792,7.368-62.327,24.606-68.25,61.5c-6.326,39.403,3.828,113.023,21,149.252"/>
<path fill-rule="evenodd" clip-rule="evenodd" fill="#BCBEC0" stroke="#000000" stroke-width="2" stroke-linecap="square" stroke-miterlimit="10" d="  M307,275.158c-3.077,6.812-3.598,15.931-5.25,23.25C317.824,297.064,316.094,283.133,307,275.158z"/>
<path fill-rule="evenodd" clip-rule="evenodd" fill="#BCBEC0" stroke="#000000" stroke-width="2" stroke-linecap="square" stroke-miterlimit="10" d="  M313,280.408c2-2,4-4,6-6c5.037,3.215,12.906,10.531,15.75,15.75C323.458,297.014,316.401,293.28,313,280.408z"/>
<path fill="none" stroke="#000000" stroke-width="2" stroke-linecap="square" stroke-miterlimit="10" d="M294.25,364.408  c4.251,30.217,2.465,95.6,32.25,113.252"/>
<path fill-rule="evenodd" clip-rule="evenodd" fill="#BCBEC0" stroke="#000000" stroke-width="2" stroke-linecap="square" stroke-miterlimit="10" d="  M312.25,356.908c-0.386,6.24-0.5,12.503-0.75,18.75C321.997,372.353,320.504,364.797,312.25,356.908z"/>
<path fill-rule="evenodd" clip-rule="evenodd" fill="#BCBEC0" stroke="#000000" stroke-width="2" stroke-linecap="square" stroke-miterlimit="10" d="  M313.75,352.408c2.78,7.875,7.503,14.181,16.5,18C332.116,360.228,324.99,354.64,313.75,352.408z"/>
<path fill-rule="evenodd" clip-rule="evenodd" fill="#0071BC" stroke="#000000" stroke-width="2" stroke-linecap="square" stroke-miterlimit="10" d="  M268.75,274.408c-7.25,6.75-14.5,13.5-21.75,20.25c-8.144-13.828-24.327-20.792-39-13.5  C227.722,269.818,249.558,253.566,268.75,274.408z"/>
<path fill-rule="evenodd" clip-rule="evenodd" fill="#DFF3FD" stroke="#000000" stroke-width="2" stroke-linecap="square" stroke-miterlimit="10" d="  M230.5,281.908c-0.275,8.085-0.286,23.714,6,30c3.086,3.086-1.186,47.508,0,55.5C229.065,357.536,184.163,254,230.5,281.908z"/>
<path fill-rule="evenodd" clip-rule="evenodd" fill="#0071BC" stroke="#000000" stroke-width="2" stroke-linecap="square" stroke-miterlimit="10" d="  M295.75,264.658c-3.202-5.575,0.449-9.858-7.5-12.75C323.87,256.269,344.812,272.206,295.75,264.658z"/>
<path fill-rule="evenodd" clip-rule="evenodd" fill="#DFF3FD" stroke="#000000" stroke-width="2" stroke-linecap="square" stroke-miterlimit="10" d="  M288.25,251.908c-3.787,5.642-6.377,10.247-5.25,17.25C297.571,266.934,298.071,260.144,288.25,251.908z"/>
<path fill-rule="evenodd" clip-rule="evenodd" fill="#90A7D6" stroke="#000000" stroke-width="2" stroke-linecap="square" stroke-miterlimit="10" d="  M458.5,284.908c-39.596,39.119-20.068,126.546-4.875,172.127c15.681,47.042,125.322,23.429,151.875-3.375  c29.119-29.394-9.644-108.487-24-138.752C561.908,273.607,494.476,239.956,458.5,284.908z"/>
<path fill="none" stroke="#000000" stroke-width="2" stroke-linecap="square" stroke-miterlimit="10" d="M533.5,272.158  c-111.137,8.29-61.466,141.635-48,210.002"/>
<path fill="none" stroke="#000000" stroke-width="2" stroke-linecap="square" stroke-miterlimit="10" d="M586.75,337.408  c-19.092,2.228-98.25,9.311-98.25,36.75c0,32.904,2.534,81.184,27.75,105.752"/>
<path fill="none" stroke="#000000" stroke-width="2" stroke-linecap="square" stroke-miterlimit="10" d="M517,268.408  c-34.792,7.368-62.327,24.606-68.25,61.5c-6.326,39.403,3.828,113.023,21,149.252"/>
<path fill-rule="evenodd" clip-rule="evenodd" fill="#BCBEC0" stroke="#000000" stroke-width="2" stroke-linecap="square" stroke-miterlimit="10" d="  M508.75,275.158c-3.077,6.812-3.598,15.931-5.25,23.25C519.574,297.064,517.844,283.133,508.75,275.158z"/>
<path fill-rule="evenodd" clip-rule="evenodd" fill="#BCBEC0" stroke="#000000" stroke-width="2" stroke-linecap="square" stroke-miterlimit="10" d="  M514.75,280.408c8.375-7.86,15.78-1.204,21.75,9.75C525.208,297.014,518.151,293.28,514.75,280.408z"/>
<path fill="none" stroke="#000000" stroke-width="2" stroke-linecap="square" stroke-miterlimit="10" d="M496,364.408  c4.251,30.217,2.465,95.6,32.25,113.252"/>
<path fill-rule="evenodd" clip-rule="evenodd" fill="#BCBEC0" stroke="#000000" stroke-width="2" stroke-linecap="square" stroke-miterlimit="10" d="  M514,356.908c-0.386,6.24-0.5,12.503-0.75,18.75C523.747,372.353,522.254,364.797,514,356.908z"/>
<path fill-rule="evenodd" clip-rule="evenodd" fill="#BCBEC0" stroke="#000000" stroke-width="2" stroke-linecap="square" stroke-miterlimit="10" d="  M515.5,352.408c2.78,7.875,7.503,14.181,16.5,18C533.866,360.228,526.739,354.64,515.5,352.408z"/>
<path fill-rule="evenodd" clip-rule="evenodd" fill="#0071BC" stroke="#000000" stroke-width="2" stroke-linecap="square" stroke-miterlimit="10" d="  M470.5,274.408c-7.25,6.75-14.5,13.5-21.75,20.25c-8.145-13.828-24.327-20.792-39-13.5  C429.472,269.818,451.309,253.566,470.5,274.408z"/>
<path fill-rule="evenodd" clip-rule="evenodd" fill="#DFF3FD" stroke="#000000" stroke-width="2" stroke-linecap="square" stroke-miterlimit="10" d="  M432.25,281.908c-0.274,8.085-0.285,23.714,6,30c3.086,3.086-1.186,47.508,0,55.5C430.814,357.536,385.914,254,432.25,281.908z"/>
<path fill-rule="evenodd" clip-rule="evenodd" fill="#0071BC" stroke="#000000" stroke-width="2" stroke-linecap="square" stroke-miterlimit="10" d="  M497.5,264.658c-3.202-5.575,0.449-9.858-7.5-12.75C525.619,256.269,546.562,272.206,497.5,264.658z"/>
<path fill-rule="evenodd" clip-rule="evenodd" fill="#DFF3FD" stroke="#000000" stroke-width="2" stroke-linecap="square" stroke-miterlimit="10" d="  M490,251.908c-3.787,5.642-6.377,10.247-5.25,17.25C499.32,266.934,499.821,260.144,490,251.908z"/>
<path fill-rule="evenodd" clip-rule="evenodd" fill="#90A7D6" stroke="#000000" stroke-width="2" stroke-linecap="square" stroke-miterlimit="10" d="  M353.5,395.158c-40.08,40.446-18.981,125.481-4.875,172.502c14.358,47.859,126.371,22.552,151.875-3.75  c29.212-30.125-10.885-108.15-24-138.75C458.222,382.512,388.423,351.521,353.5,395.158z"/>
<path fill="none" stroke="#000000" stroke-width="2" stroke-linecap="square" stroke-miterlimit="10" d="M428.5,382.408  c-111.052,8.286-61.438,141.781-48,210.002"/>
<path fill="none" stroke="#000000" stroke-width="2" stroke-linecap="square" stroke-miterlimit="10" d="M481.75,448.41  c-19.56,1.214-98.25,8.855-98.25,36.375c0,32.211,2.285,81.591,27.752,105.375"/>
<path fill="none" stroke="#000000" stroke-width="2" stroke-linecap="square" stroke-miterlimit="10" d="M412.002,378.658  c-34.826,8.478-62.378,24.722-68.252,62.252c-6.108,39.03,3.318,112.746,21,148.5"/>
<path fill-rule="evenodd" clip-rule="evenodd" fill="#BCBEC0" stroke="#000000" stroke-width="2" stroke-linecap="square" stroke-miterlimit="10" d="  M403.75,386.158c-3.04,6.865-3.591,15.902-5.25,23.25C414.273,407.233,412.953,393.331,403.75,386.158z"/>
<path fill-rule="evenodd" clip-rule="evenodd" fill="#BCBEC0" stroke="#000000" stroke-width="2" stroke-linecap="square" stroke-miterlimit="10" d="  M409.75,390.658c2-2,4-4,6-6c4.899,3.475,12.371,11.132,15,16.5C419.674,407.156,412.926,403.036,409.75,390.658z"/>
<path fill="none" stroke="#000000" stroke-width="2" stroke-linecap="square" stroke-miterlimit="10" d="M391,474.66  c4.065,31.166,2.863,94.85,32.25,114"/>
<path fill-rule="evenodd" clip-rule="evenodd" fill="#BCBEC0" stroke="#000000" stroke-width="2" stroke-linecap="square" stroke-miterlimit="10" d="  M409,467.16c-0.386,6.24-0.5,12.503-0.75,18.75C418.747,482.605,417.254,475.049,409,467.16z"/>
<path fill-rule="evenodd" clip-rule="evenodd" fill="#BCBEC0" stroke="#000000" stroke-width="2" stroke-linecap="square" stroke-miterlimit="10" d="  M410.5,462.66c2.661,8.373,6.89,14.762,16.5,18.75C429.16,470.777,422.136,464.963,410.5,462.66z"/>
<path fill-rule="evenodd" clip-rule="evenodd" fill="#0071BC" stroke="#000000" stroke-width="2" stroke-linecap="square" stroke-miterlimit="10" d="  M365.5,384.658c-20.746,19.315-17.1,20.893-36.375,7.125c-7.046-5.033-16.905-4.132-24.375-0.375  C324.472,380.068,346.308,363.816,365.5,384.658z"/>
<path fill-rule="evenodd" clip-rule="evenodd" fill="#DFF3FD" stroke="#000000" stroke-width="2" stroke-linecap="square" stroke-miterlimit="10" d="  M327.25,392.158c-0.41,11.806,6.81,22.103,7.5,31.502c1.307,17.798-4.422,35.095-1.5,54  C325.283,467.421,280.267,365.389,327.25,392.158z"/>
<path fill-rule="evenodd" clip-rule="evenodd" fill="#0071BC" stroke="#000000" stroke-width="2" stroke-linecap="square" stroke-miterlimit="10" d="  M392.5,374.908c-3.371-5.493,0.864-9.943-7.5-12C422.303,366.714,440.504,383.524,392.5,374.908z"/>
<path fill-rule="evenodd" clip-rule="evenodd" fill="#DFF3FD" stroke="#000000" stroke-width="2" stroke-linecap="square" stroke-miterlimit="10" d="  M385,362.908c-3.603,5.076-6.475,9.564-5.25,16.5C393.672,376.573,395.386,370.916,385,362.908z"/>
</svg>