<svg xmlns="http://www.w3.org/2000/svg" xmlns:xlink="http://www.w3.org/1999/xlink" version="1.1" id="Layer_1" x="0px" y="0px" enable-background="new 0 0 822.05 841.89" xml:space="preserve" viewBox="304.86 333.73 211.88 177.15">
<path fill-rule="evenodd" clip-rule="evenodd" fill="#EED6B6" stroke="#000000" stroke-width="1.25" stroke-linecap="square" stroke-miterlimit="10" d="  M331.736,459.227c8.998-3.652,15.331-4.265,19.5-13.5c10.405,1.043,33.04,5.223,27.318,25.908  c-4.936,17.847-7.591,31.01-31.068,24.342C330.495,491.151,321.773,473.581,331.736,459.227z"/>
<path fill-rule="evenodd" clip-rule="evenodd" fill="#174B1E" stroke="#000000" stroke-width="1.25" stroke-linecap="square" stroke-miterlimit="10" d="  M327.986,485.477c-2.919,6.448-2.615,16.215-3.75,23.25c23,0,46,0,69,0c-0.51-6.705,0.814-15.511-1.5-21.75  c-2.883,18.363,4.781,27.029,23.252,21.75c-2.695-12.292-7.579-43.847-21.002-50.25c-16.398-7.822-19.073,11.306-36.75,10.5  c-15.482-0.705-13.605-17.15-29.25-12.75c-17.903,5.035-20.408,37.851-22.5,52.5C323.579,514.231,328.654,501.84,327.986,485.477z"/>
<path fill-rule="evenodd" clip-rule="evenodd" fill="#EED6B6" stroke="#000000" stroke-width="1.25" stroke-linecap="square" stroke-miterlimit="10" d="  M335.486,429.977C334.402,446.476,319.135,428.974,335.486,429.977L335.486,429.977z"/>
<path fill-rule="evenodd" clip-rule="evenodd" fill="#EED6B6" stroke="#000000" stroke-width="1.25" stroke-linecap="square" stroke-miterlimit="10" d="  M387.236,419.477C376.121,430.721,376.312,406.59,387.236,419.477L387.236,419.477z"/>
<path fill-rule="evenodd" clip-rule="evenodd" fill="#EED6B6" stroke="#000000" stroke-width="1.25" stroke-linecap="square" stroke-miterlimit="10" d="  M327.986,419.477c6.32,49.538,74.128,38.811,51.75-12C366.679,377.83,324.248,384.235,327.986,419.477z"/>
<path fill-rule="evenodd" clip-rule="evenodd" fill="#FFFFFF" stroke="#000000" stroke-width="1.25" stroke-linecap="square" stroke-miterlimit="10" d="  M425.488,385.727c-26.128,0.783-57.599,34.056-20.252,46.5c-6.983,3.196-10.393,6.685-18.75,7.5  c17.519,4.32,54.406-0.837,68.252-12.375C479.914,406.372,446.518,386.063,425.488,385.727z"/>
<path fill-rule="evenodd" clip-rule="evenodd" fill="#392270" stroke="#000000" stroke-width="1.25" stroke-linecap="square" stroke-miterlimit="10" d="  M327.986,485.477c-1.639,7.718-3,15.504-4.5,23.25C325.358,502.45,326.91,493.022,327.986,485.477z"/>
<path fill-rule="evenodd" clip-rule="evenodd" fill="#62221C" stroke="#000000" stroke-linecap="square" stroke-miterlimit="10" d="  M376.736,432.227c-7.257,1.651-10.748,6.767-19.5,4.5C364.106,452.548,374.643,448.556,376.736,432.227z"/>
<path fill-rule="evenodd" clip-rule="evenodd" fill="#FFFFFF" stroke="#000000" stroke-linecap="square" stroke-miterlimit="10" d="  M464.488,373.727c2.579,33.072,51.971,33.85,51.75,0C516.021,340.25,466.776,340.836,464.488,373.727z"/>
<path fill-rule="evenodd" clip-rule="evenodd" fill="#FFFFFF" d="M489.988,392.477v5.25V392.477z"/>
<line fill="none" stroke="#000000" stroke-linecap="square" stroke-miterlimit="10" x1="489.988" y1="392.477" x2="489.988" y2="397.727"/>
<path fill-rule="evenodd" clip-rule="evenodd" fill="#FFFFFF" d="M471.988,373.727h-5.25H471.988z"/>
<line fill="none" stroke="#000000" stroke-linecap="square" stroke-miterlimit="10" x1="471.988" y1="373.727" x2="466.738" y2="373.727"/>
<path fill-rule="evenodd" clip-rule="evenodd" fill="#FFFFFF" d="M513.988,373.727h-5.25H513.988z"/>
<line fill="none" stroke="#000000" stroke-linecap="square" stroke-miterlimit="10" x1="513.988" y1="373.727" x2="508.738" y2="373.727"/>
<path fill-rule="evenodd" clip-rule="evenodd" fill="#FFFFFF" d="M477.238,387.227l-3.75,3L477.238,387.227z"/>
<line fill="none" stroke="#000000" stroke-linecap="square" stroke-miterlimit="10" x1="477.238" y1="387.227" x2="473.488" y2="390.227"/>
<path fill-rule="evenodd" clip-rule="evenodd" fill="#FFFFFF" d="M507.238,357.227l-3.75,3.75L507.238,357.227z"/>
<line fill="none" stroke="#000000" stroke-linecap="square" stroke-miterlimit="10" x1="507.238" y1="357.227" x2="503.488" y2="360.977"/>
<path fill-rule="evenodd" clip-rule="evenodd" fill="#FFFFFF" d="M507.238,390.227l-3.75-3L507.238,390.227z"/>
<line fill="none" stroke="#000000" stroke-linecap="square" stroke-miterlimit="10" x1="507.238" y1="390.227" x2="503.488" y2="387.227"/>
<path fill-rule="evenodd" clip-rule="evenodd" stroke="#000000" stroke-linecap="square" stroke-miterlimit="10" d="  M487.738,352.727c2.121,0,2.607,6.25,5.25,0C490.346,346.478,489.859,352.727,487.738,352.727z"/>
<path fill-rule="evenodd" clip-rule="evenodd" stroke="#000000" stroke-linecap="square" stroke-miterlimit="10" d="  M490.738,357.977c-0.105,5.699,1.006,11.564,1.5,17.25c-1.5-0.25-3-0.5-4.5-0.75C488.726,369.046,490.361,363.476,490.738,357.977z"/>
<path fill-rule="evenodd" clip-rule="evenodd" stroke="#000000" stroke-linecap="square" stroke-miterlimit="10" d="  M487.738,373.727c2.059,0,2.18,6.48,5.25,0C489.918,367.247,489.797,373.727,487.738,373.727z"/>
<path fill-rule="evenodd" clip-rule="evenodd" fill="#D12727" stroke="#000000" stroke-width="0.5" stroke-linecap="square" stroke-miterlimit="10" d="  M473.488,358.727c1.814,0.18,0.879,4.531,5.25,2.25C479.336,353.698,476.19,358.995,473.488,358.727z"/>
<path fill-rule="evenodd" clip-rule="evenodd" fill="#D12727" stroke="#000000" stroke-width="0.5" stroke-linecap="square" stroke-miterlimit="10" d="  M473.488,340.727c2.75-2.25,5.5-4.5,8.25-6.75c1,1,2,2,3,3c-6.814,7.9-8.206,10.241-18.75,12  C467.737,341.795,472.37,341.391,473.488,340.727z"/>
</svg>