<svg xmlns="http://www.w3.org/2000/svg" xmlns:xlink="http://www.w3.org/1999/xlink" version="1.1" id="Layer_1" x="0px" y="0px" enable-background="new 0 0 822.05 841.89" xml:space="preserve" viewBox="217.27 248.82 386 350.97">
<path fill-rule="evenodd" clip-rule="evenodd" fill="#BCBEC0" stroke="#000000" stroke-width="2" stroke-linecap="square" stroke-miterlimit="10" d="  M539.266,450.824c-0.25,4.75-0.5,9.5-0.75,14.25c13.248-3.458,10.036-2.319,10.5-15.75  C545.766,449.824,542.516,450.324,539.266,450.824z"/>
<path fill-rule="evenodd" clip-rule="evenodd" fill="#BCBEC0" stroke="#000000" stroke-width="2" stroke-linecap="square" stroke-miterlimit="10" d="  M556.516,449.324c0.75,3.5,1.5,7,2.25,10.5c2,0,4,0,6,0C568.34,446.734,561.658,453.326,556.516,449.324z"/>
<path fill-rule="evenodd" clip-rule="evenodd" fill="#DFF3FD" stroke="#000000" stroke-width="2" stroke-linecap="square" stroke-miterlimit="10" d="  M547.516,249.824c-37.949,55.199-103.354,129.744-108,199.5c36.5,0,73,0,109.5,0C548.516,382.824,548.016,316.324,547.516,249.824z"/>
<path fill-rule="evenodd" clip-rule="evenodd" fill="#DFF3FD" stroke="#000000" stroke-width="2" stroke-linecap="square" stroke-miterlimit="10" d="  M560.266,320.324c-1.25,43-2.5,86-3.75,129c14.25-2,28.5-4,42.75-6C586.266,402.324,573.266,361.324,560.266,320.324z"/>
<path fill-rule="evenodd" clip-rule="evenodd" fill="#AF8977" stroke="#000000" stroke-width="2" stroke-linecap="square" stroke-miterlimit="10" d="  M436.516,467.324c-0.357,37.013,67.02,20.565,88.642,20.688c30.411,0.172,68.191,9.361,77.108-28.938  C547.016,461.824,491.766,464.574,436.516,467.324z"/>
<line fill="none" stroke="#000000" stroke-width="2" stroke-linecap="square" stroke-miterlimit="10" x1="438.766" y1="478.574" x2="597.766" y2="469.574"/>
<path fill-rule="evenodd" clip-rule="evenodd" fill="#BCBEC0" stroke="#000000" stroke-width="2" stroke-linecap="square" stroke-miterlimit="10" d="  M321.016,454.574c-0.25,4.5-0.5,9-0.75,13.5c13-3.294,10-1.998,10.5-15C327.516,453.574,324.266,454.074,321.016,454.574z"/>
<path fill-rule="evenodd" clip-rule="evenodd" fill="#BCBEC0" stroke="#000000" stroke-width="2" stroke-linecap="square" stroke-miterlimit="10" d="  M338.266,453.074c0.75,3.5,1.5,7,2.25,10.5c2,0,4,0,6,0C350.09,450.484,343.408,457.076,338.266,453.074z"/>
<path fill-rule="evenodd" clip-rule="evenodd" fill="#DFF3FD" stroke="#000000" stroke-width="2" stroke-linecap="square" stroke-miterlimit="10" d="  M329.266,252.824c-37.631,54.736-104.553,130.903-108,200.25c36.5,0,73,0,109.5,0C330.266,386.324,329.766,319.574,329.266,252.824z  "/>
<path fill-rule="evenodd" clip-rule="evenodd" fill="#DFF3FD" stroke="#000000" stroke-width="2" stroke-linecap="square" stroke-miterlimit="10" d="  M341.266,324.074c-1,43-2,86-3,129c14.25-2,28.5-4,42.75-6C367.766,406.074,354.516,365.074,341.266,324.074z"/>
<path fill-rule="evenodd" clip-rule="evenodd" fill="#AF8977" stroke="#000000" stroke-width="2" stroke-linecap="square" stroke-miterlimit="10" d="  M218.266,471.074c0.279,36.139,67.224,19.816,88.642,19.938c30.426,0.172,67.559,9.497,77.108-28.188  C328.766,465.574,273.516,468.324,218.266,471.074z"/>
<line fill="none" stroke="#000000" stroke-width="2" stroke-linecap="square" stroke-miterlimit="10" x1="220.516" y1="481.574" x2="379.516" y2="472.574"/>
<path fill-rule="evenodd" clip-rule="evenodd" fill="#BCBEC0" stroke="#000000" stroke-width="2" stroke-linecap="square" stroke-miterlimit="10" d="  M440.266,558.824c-0.25,4.5-0.5,9-0.75,13.5c13.698-3.53,10.817-1.769,11.25-15.75C447.266,557.324,443.766,558.074,440.266,558.824  z"/>
<path fill-rule="evenodd" clip-rule="evenodd" fill="#BCBEC0" stroke="#000000" stroke-width="2" stroke-linecap="square" stroke-miterlimit="10" d="  M458.266,556.574c0.75,3.75,1.5,7.5,2.25,11.25c2,0,4,0,6,0C470.323,554.187,463.266,560.804,458.266,556.574z"/>
<path fill-rule="evenodd" clip-rule="evenodd" fill="#DFF3FD" stroke="#000000" stroke-width="2" stroke-linecap="square" stroke-miterlimit="10" d="  M448.516,357.074c-38.958,56.667-99.961,128.821-108,199.5c36.75,0,73.5,0,110.25,0  C450.016,490.074,449.266,423.574,448.516,357.074z"/>
<path fill-rule="evenodd" clip-rule="evenodd" fill="#DFF3FD" stroke="#000000" stroke-width="2" stroke-linecap="square" stroke-miterlimit="10" d="  M461.266,428.324c-1,42.75-2,85.5-3,128.25c14.25-1.75,28.5-3.5,42.75-5.25C487.766,510.324,474.516,469.324,461.266,428.324z"/>
<path fill-rule="evenodd" clip-rule="evenodd" fill="#AF8977" stroke="#000000" stroke-width="2" stroke-linecap="square" stroke-miterlimit="10" d="  M338.266,575.324c-1.032,36.005,67.607,19.821,88.329,19.938c29.279,0.164,68.907,9.723,76.671-28.188  C448.266,569.824,393.266,572.574,338.266,575.324z"/>
<line fill="none" stroke="#000000" stroke-width="2" stroke-linecap="square" stroke-miterlimit="10" x1="339.766" y1="585.824" x2="499.516" y2="576.824"/>
</svg>