<svg xmlns="http://www.w3.org/2000/svg" xmlns:xlink="http://www.w3.org/1999/xlink" version="1.1" id="Layer_1" x="0px" y="0px" enable-background="new 0 0 822.05 841.89" xml:space="preserve" viewBox="294.75 244.56 232.08 349.66">
<path fill-rule="evenodd" clip-rule="evenodd" fill="#ED1C24" stroke="#000000" stroke-width="2" stroke-linecap="square" stroke-miterlimit="10" d="  M435.25,337.39c5.003-2.97,11.729-4.079,17.25-6c-19.28,34.875,60.461,62.986,71.25,102.75c13.15,48.465-39.009,74.065-76.5,87.75  c-10.185-36.852-20.369-73.704-30.554-110.556C405.36,370.316,407.434,370.914,435.25,337.39z"/>
<path fill-rule="evenodd" clip-rule="evenodd" fill="#FFFFFF" stroke="#000000" stroke-width="2" stroke-linecap="square" stroke-miterlimit="10" d="  M439.75,491.89c-4.104,18.553,17.283,14.228,28.5,6.75c6.858-4.572,6.424-8.064,3-14.25  C464.104,471.482,447.876,487.32,439.75,491.89z"/>
<path fill-rule="evenodd" clip-rule="evenodd" fill="#6D6F71" stroke="#000000" stroke-width="2" stroke-linecap="square" stroke-miterlimit="10" d="  M468.25,500.14c-0.332,16.988-17.703,21.459-32.25,19.5C439.461,503.046,454.243,503.742,468.25,500.14z"/>
<path fill-rule="evenodd" clip-rule="evenodd" fill="#FBD7A0" stroke="#000000" stroke-width="2" stroke-linecap="square" stroke-miterlimit="10" d="  M401.502,329.89c2.1,87.653-99.412,87.231-99.752,0C301.407,241.929,402.924,241.846,401.502,329.89z"/>
<path fill="none" stroke="#000000" stroke-width="2" stroke-linecap="square" stroke-miterlimit="10" d="M440.5,367.39  c-3.922,9.59-24.892,16.32-24,0C417.403,350.843,437.021,355.321,440.5,367.39z"/>
<path fill-rule="evenodd" clip-rule="evenodd" fill="#ED1C24" d="M408.252,358.39c14.583,14.439,80.325,104.927,52.217,121.992  c-27.482,16.686-19.382,40.835-34.969,67.008c-16.826,28.254-38.824,20.598-72.324,22.782c-16.245,1.06-21.659-46.167-23.676-60.282  c-2.831-19.818-18.855-15.557-22.5-42c-2.326-16.879-7.787-65.213,3.75-78.75C325.162,372.229,386.193,365.347,408.252,358.39z"/>
<path fill="none" stroke="#000000" stroke-width="2" stroke-linecap="square" stroke-miterlimit="10" d="M408.252,358.39  c29.82,29.526,50.136,66.382,54.387,108.889c1.478,14.777-3.806,14.097-16.607,21.869c-6.816,4.139-8.534,22.629-10.594,30.094  c-2.274,8.246-11.415,46.31-22.369,47.024c-23.344,1.522-57.038,11.744-70.818-4.626c-12.591-14.957-6.194-44.732-14.25-61.5  c-2.741-5.705-13.647-1.94-16.125-9.375c-2.761-8.284-4.635-18.077-5.069-26.764c-1.266-25.309-1.094-49.884,3.944-74.861"/>
<path fill-rule="evenodd" clip-rule="evenodd" fill="#FFFFFF" stroke="#000000" stroke-width="2" stroke-linecap="square" stroke-miterlimit="10" d="  M309.25,494.14C300.704,522.201,348.294,496.247,309.25,494.14L309.25,494.14z"/>
<path fill-rule="evenodd" clip-rule="evenodd" fill="#FFFFFF" stroke="#000000" stroke-width="2" stroke-linecap="square" stroke-miterlimit="10" d="  M380.5,566.14c-5.674,14.164-47.437,17.828-48,0C331.94,548.442,375.292,551.469,380.5,566.14z"/>
<path fill-rule="evenodd" clip-rule="evenodd" fill="#FFFFFF" stroke="#000000" stroke-width="2" stroke-linecap="square" stroke-miterlimit="10" d="  M430.75,564.64c-4.787,15.906-54.266,17.547-53.25,0C378.56,546.333,423.729,552.135,430.75,564.64z"/>
<path fill-rule="evenodd" clip-rule="evenodd" d="M379.75,569.89l-2.25-59.25L379.75,569.89z"/>
<line fill="none" stroke="#000000" stroke-width="2" stroke-linecap="square" stroke-miterlimit="10" x1="379.75" y1="569.89" x2="377.5" y2="510.64"/>
<path fill-rule="evenodd" clip-rule="evenodd" fill="#6D6F71" stroke="#000000" stroke-width="2" stroke-linecap="square" stroke-miterlimit="10" d="  M324.25,495.64c-2.159,27.838,35.986,14.976,53.708,14.137c18.103-0.855,66.609,9.019,64.792-18.637  C403.25,492.64,363.75,494.14,324.25,495.64z"/>
<path fill-rule="evenodd" clip-rule="evenodd" d="M442.75,491.14l-23.25-53.25L442.75,491.14z"/>
<line fill="none" stroke="#000000" stroke-width="2" stroke-linecap="square" stroke-miterlimit="10" x1="442.75" y1="491.14" x2="419.5" y2="437.89"/>
<path fill-rule="evenodd" clip-rule="evenodd" d="M329.5,491.14l-0.75-44.25L329.5,491.14z"/>
<line fill="none" stroke="#000000" stroke-width="2" stroke-linecap="square" stroke-miterlimit="10" x1="329.5" y1="491.14" x2="328.75" y2="446.89"/>
<path fill-rule="evenodd" clip-rule="evenodd" fill="#FFF200" stroke="#000000" stroke-width="2" stroke-linecap="square" stroke-miterlimit="10" d="  M397,497.89c-4.195,11.688-31.5,15.204-31.5,0S392.805,486.202,397,497.89z"/>
<path fill-rule="evenodd" clip-rule="evenodd" fill="#6D6F71" stroke="#000000" stroke-width="2" stroke-linecap="square" stroke-miterlimit="10" d="  M389.5,497.89C372.532,507,372.624,488.642,389.5,497.89L389.5,497.89z"/>
<path fill-rule="evenodd" clip-rule="evenodd" fill="#6D6F71" stroke="#000000" stroke-width="2" stroke-linecap="square" stroke-miterlimit="10" d="  M328.75,522.64c-18.931,2.874-31.607-18.54-2.25-15.75C327.202,511.803,329.324,517.752,328.75,522.64z"/>
<path fill-rule="evenodd" clip-rule="evenodd" fill="#ED1C24" d="M396.25,299.89c10.146-35.32-67.568-26.174-84.75-25.5  c26.94-24.695,85.165-47.273,108.75-6c15.45,27.039,21.738,65.247,1.5,91.5C413.25,339.89,404.75,319.89,396.25,299.89z"/>
<path fill="none" stroke="#000000" stroke-width="2" stroke-linecap="square" stroke-miterlimit="10" d="M396.25,299.89  c10.146-35.32-67.568-26.174-84.75-25.5c26.94-24.695,85.165-47.273,108.75-6c15.45,27.039,21.738,65.247,1.5,91.5  C413.25,339.89,404.75,319.89,396.25,299.89"/>
<path fill-rule="evenodd" clip-rule="evenodd" fill="#FFFFFF" stroke="#000000" stroke-width="2" stroke-linecap="square" stroke-miterlimit="10" d="  M303.25,292.39c29.401-8.914,68.889-14.575,96,3.75C411.157,246.267,310.693,245.625,303.25,292.39z"/>
<path fill-rule="evenodd" clip-rule="evenodd" fill="#FFFFFF" stroke="#000000" stroke-width="2" stroke-linecap="square" stroke-miterlimit="10" d="  M295.75,317.14c15.639,7.028,32.266,20.405,50.25,20.25c15.292-0.132,32.739-19.657,46.5-17.25  c31.909,5.581,8.196,62.824-6.75,81.75c-26.449,33.492-31.832,18.025-58.125,3C294.701,386.076,295.75,351.844,295.75,317.14z"/>
<path fill-rule="evenodd" clip-rule="evenodd" fill="#6D6F71" stroke="#000000" stroke-width="2" stroke-linecap="square" stroke-miterlimit="10" d="  M334,569.89c-14.817-9.153-30.96-2.486-35.25,15c18.712,12.893,62.799,11.873,75-10.5C360.531,578.591,344.26,580.023,334,569.89z"/>
<path fill-rule="evenodd" clip-rule="evenodd" fill="#6D6F71" stroke="#000000" stroke-width="2" stroke-linecap="square" stroke-miterlimit="10" d="  M428.5,569.89c14.817-9.153,30.96-2.486,35.25,15c-18.712,12.893-62.799,11.873-75-10.5  C401.969,578.591,418.24,580.024,428.5,569.89z"/>
<path fill-rule="evenodd" clip-rule="evenodd" fill="#6D6F71" stroke="#000000" stroke-width="2" stroke-linecap="square" stroke-miterlimit="10" d="  M335.5,305.89c-5.157,0.268-9.514,2.723-15,0C326.424,302.278,329.954,305.478,335.5,305.89z"/>
<path fill-rule="evenodd" clip-rule="evenodd" fill="#6D6F71" stroke="#000000" stroke-width="2" stroke-linecap="square" stroke-miterlimit="10" d="  M370,305.89c-6.788,0.938-13.371,2.558-20.25,0C356.402,304.008,363.393,305.099,370,305.89z"/>
</svg>