<svg xmlns="http://www.w3.org/2000/svg" xmlns:xlink="http://www.w3.org/1999/xlink" version="1.1" id="Layer_1" x="0px" y="0px" enable-background="new 0 0 822.05 841.89" xml:space="preserve" viewBox="304.22 346.43 213.5 146.75">
<path fill-rule="evenodd" clip-rule="evenodd" fill="#B3B3B3" stroke="#000000" stroke-width="0.5" stroke-linecap="square" stroke-miterlimit="10" d="  M416.218,429.181C398.746,472.852,383.096,405.451,416.218,429.181L416.218,429.181z"/>
<path fill-rule="evenodd" clip-rule="evenodd" fill="#B3B3B3" stroke="#000000" stroke-width="0.5" stroke-linecap="square" stroke-miterlimit="10" d="  M392.968,417.181C374.821,450.585,420.335,432.201,392.968,417.181L392.968,417.181z"/>
<path fill-rule="evenodd" clip-rule="evenodd" fill="#B3B3B3" stroke="#000000" stroke-width="0.5" stroke-linecap="square" stroke-miterlimit="10" d="  M396.718,393.931c-3-1.75-6-3.5-9-5.25c-1.25,1-2.5,2-3.75,3C388.096,394.768,397.83,394.228,396.718,393.931z"/>
<path fill-rule="evenodd" clip-rule="evenodd" fill="#B3B3B3" stroke="#000000" stroke-width="0.5" stroke-linecap="square" stroke-miterlimit="10" d="  M395.218,400.681c-5.499-2.003-11-4-16.5-6C387.341,390.072,389.873,397.635,395.218,400.681z"/>
<path fill-rule="evenodd" clip-rule="evenodd" fill="#B3B3B3" stroke="#000000" stroke-width="0.5" stroke-linecap="square" stroke-miterlimit="10" d="  M387.718,409.681c-5.874-3.501-11.08-8.562-16.5-12.75c7.511-0.042,16.675,1.315,24,3c-2.615-0.246-11.197,0.48-15.75,0  C380.363,400.542,390.021,411.836,387.718,409.681z"/>
<path fill-rule="evenodd" clip-rule="evenodd" fill="#B3B3B3" stroke="#000000" stroke-width="0.5" stroke-linecap="square" stroke-miterlimit="10" d="  M433.468,415.681c-6.807,3.572-11.654,7.137-13.5,16.5c4.45,1.602,13.423,2.744,18,2.25  C436.553,428.536,436.235,421.026,433.468,415.681z M429.718,419.431c0.027,0.142,4.636,9.047,4.5,12.75c-3.75-0.5-7.5-1-11.25-1.5  C425.218,426.931,427.468,423.181,429.718,419.431z"/>
<path fill-rule="evenodd" clip-rule="evenodd" fill="#E4E4E4" stroke="#000000" stroke-width="0.5" stroke-linecap="square" stroke-miterlimit="10" d="  M305.968,360.181c35.131-19.186,51.225,5.92,83.25,27c-18.305,10.768-21.092,18.206-37.974,5.928  C336.152,382.133,321.06,371.157,305.968,360.181z"/>
<path fill-rule="evenodd" clip-rule="evenodd" fill="#FFFFFF" stroke="#000000" stroke-width="0.5" stroke-linecap="square" stroke-miterlimit="10" d="  M329.968,346.681c-8.5,4.5-17,9-25.5,13.5c15.288,11.368,30.576,22.736,45.864,34.104c17.428,12.959,21.487,4.372,40.386-6.354  C370.468,374.181,350.218,360.431,329.968,346.681z M363.718,401.431c-18.75-13.75-37.5-27.5-56.25-41.25  c26.131-24.866,57.517,12.595,80.25,27.75C379.718,392.431,371.718,396.931,363.718,401.431z"/>
<path fill-rule="evenodd" clip-rule="evenodd" fill="#05A0C5" stroke="#000000" stroke-width="0.5" stroke-linecap="square" stroke-miterlimit="10" d="  M355.468,366.181c-3.668,0.031-3.992-3.704-8.25,0C351.223,369.914,351.533,366.214,355.468,366.181z"/>
<path fill-rule="evenodd" clip-rule="evenodd" fill="#05A0C5" stroke="#000000" stroke-width="0.5" stroke-linecap="square" stroke-miterlimit="10" d="  M332.218,350.431c-3.158,0.322-3.641-2.589-6.75,0.75C329.917,354.677,328.474,350.813,332.218,350.431z"/>
<path fill-rule="evenodd" clip-rule="evenodd" fill="#05A0C5" stroke="#000000" stroke-width="0.5" stroke-linecap="square" stroke-miterlimit="10" d="  M373.468,378.181c-3.103,0.38-4.026-3.706-8.25,0.75C369.163,382.897,369.256,378.697,373.468,378.181z"/>
<path fill-rule="evenodd" clip-rule="evenodd" fill="#05A0C5" stroke="#000000" stroke-width="0.5" stroke-linecap="square" stroke-miterlimit="10" d="  M359.968,369.181c-3.16,0.211-3.856-3.61-8.25,0C355.804,374.351,355.805,369.458,359.968,369.181z"/>
<path fill-rule="evenodd" clip-rule="evenodd" fill="#AAD8E1" stroke="#000000" stroke-width="0.5" stroke-linecap="square" stroke-miterlimit="10" d="  M350.218,363.181c-3.163,0.062-3.416-3.73-7.5,0C346.214,367.005,346.47,363.254,350.218,363.181z"/>
<path fill-rule="evenodd" clip-rule="evenodd" fill="#2A68A8" stroke="#000000" stroke-width="0.5" stroke-linecap="square" stroke-miterlimit="10" d="  M364.468,372.181c-3.109,0.374-4.026-3.706-8.25,0.75C360.567,376.944,360.374,372.674,364.468,372.181z"/>
<path fill-rule="evenodd" clip-rule="evenodd" fill="#AAD8E1" stroke="#000000" stroke-width="0.5" stroke-linecap="square" stroke-miterlimit="10" d="  M345.718,360.181c-3.175,0.034-3.421-3.725-7.5,0C342.052,363.97,342.18,360.219,345.718,360.181z"/>
<path fill-rule="evenodd" clip-rule="evenodd" fill="#2A68A8" stroke="#000000" stroke-width="0.5" stroke-linecap="square" stroke-miterlimit="10" d="  M368.968,375.181c-3.109,0.374-4.026-3.706-8.25,0.75C365.067,379.944,364.874,375.674,368.968,375.181z"/>
<path fill-rule="evenodd" clip-rule="evenodd" fill="#AAD8E1" stroke="#000000" stroke-width="0.5" stroke-linecap="square" stroke-miterlimit="10" d="  M383.218,384.931c-3.998-0.1-4.02-5.059-9,0C378.445,388.642,378.939,384.824,383.218,384.931z"/>
<path fill-rule="evenodd" clip-rule="evenodd" fill="#05A0C5" stroke="#000000" stroke-width="0.5" stroke-linecap="square" stroke-miterlimit="10" d="  M336.718,354.181c-3.169-0.156-3.312-3.5-7.5-0.75C332.792,358.258,333.159,354.006,336.718,354.181z"/>
<path fill-rule="evenodd" clip-rule="evenodd" fill="#05A0C5" stroke="#000000" stroke-width="0.5" stroke-linecap="square" stroke-miterlimit="10" d="  M387.718,387.931c-3.724,0.386-4.531-3.809-9,0.75C383.218,392.607,383.273,388.392,387.718,387.931z"/>
<path fill-rule="evenodd" clip-rule="evenodd" fill="#05A0C5" stroke="#000000" stroke-width="0.5" stroke-linecap="square" stroke-miterlimit="10" d="  M377.968,381.181c-3.103,0.38-4.026-3.706-8.25,0.75C373.663,385.897,373.756,381.697,377.968,381.181z"/>
<path fill-rule="evenodd" clip-rule="evenodd" fill="#2A68A8" stroke="#000000" stroke-width="0.5" stroke-linecap="square" stroke-miterlimit="10" d="  M341.968,357.181c-3.668,0.031-3.992-3.704-8.25,0C337.723,360.914,338.033,357.214,341.968,357.181z"/>
<path fill-rule="evenodd" clip-rule="evenodd" fill="#05A0C5" stroke="#000000" stroke-width="0.5" stroke-linecap="square" stroke-miterlimit="10" d="  M349.468,369.181c-3.725,0.19-4.385-3.62-9,0C345.105,374.274,345.126,369.403,349.468,369.181z"/>
<path fill-rule="evenodd" clip-rule="evenodd" fill="#05A0C5" stroke="#000000" stroke-width="0.5" stroke-linecap="square" stroke-miterlimit="10" d="  M326.968,353.431c-3.151,0.475-4.021-2.43-7.5,0.75C323.237,358.75,322.803,354.059,326.968,353.431z"/>
<path fill-rule="evenodd" clip-rule="evenodd" fill="#05A0C5" stroke="#000000" stroke-width="0.5" stroke-linecap="square" stroke-miterlimit="10" d="  M367.468,381.931c-3.249,0.081-3.865-3.603-8.25,0C362.888,385.687,363.381,382.033,367.468,381.931z"/>
<path fill-rule="evenodd" clip-rule="evenodd" fill="#05A0C5" stroke="#000000" stroke-width="0.5" stroke-linecap="square" stroke-miterlimit="10" d="  M353.968,372.181c-3.103,0.38-4.026-3.706-8.25,0.75C349.663,376.897,349.756,372.697,353.968,372.181z"/>
<path fill-rule="evenodd" clip-rule="evenodd" fill="#2A68A8" stroke="#000000" stroke-width="0.5" stroke-linecap="square" stroke-miterlimit="10" d="  M344.218,366.181c-3.163,0.062-3.416-3.73-7.5,0C340.214,370.005,340.47,366.254,344.218,366.181z"/>
<path fill-rule="evenodd" clip-rule="evenodd" fill="#2A68A8" stroke="#000000" stroke-width="0.5" stroke-linecap="square" stroke-miterlimit="10" d="  M358.468,375.181c-3.103,0.38-4.026-3.706-8.25,0.75C354.163,379.897,354.256,375.697,358.468,375.181z"/>
<path fill-rule="evenodd" clip-rule="evenodd" fill="#AAD8E1" stroke="#000000" stroke-width="0.5" stroke-linecap="square" stroke-miterlimit="10" d="  M340.468,363.181c-3.249,0.081-3.865-3.603-8.25,0C335.888,366.937,336.381,363.283,340.468,363.181z"/>
<path fill-rule="evenodd" clip-rule="evenodd" fill="#2A68A8" stroke="#000000" stroke-width="0.5" stroke-linecap="square" stroke-miterlimit="10" d="  M362.968,378.931c-3.249,0.081-3.865-3.603-8.25,0C358.388,382.687,358.881,379.033,362.968,378.931z"/>
<path fill-rule="evenodd" clip-rule="evenodd" fill="#05A0C5" stroke="#000000" stroke-width="0.5" stroke-linecap="square" stroke-miterlimit="10" d="  M376.468,387.931c-3.714,0.211-4.382-3.622-9,0C371.716,393.057,371.91,388.19,376.468,387.931z"/>
<path fill-rule="evenodd" clip-rule="evenodd" fill="#05A0C5" stroke="#000000" stroke-width="0.5" stroke-linecap="square" stroke-miterlimit="10" d="  M331.468,356.431c-3.613,0.392-4.152-3.986-8.25,0.75C327.185,361.169,327.248,356.889,331.468,356.431z"/>
<path fill-rule="evenodd" clip-rule="evenodd" fill="#AAD8E1" stroke="#000000" stroke-width="0.5" stroke-linecap="square" stroke-miterlimit="10" d="  M380.968,391.681c-3.451-0.097-3.4-5.052-8.25,0C376.769,395.457,377.049,391.571,380.968,391.681z"/>
<path fill-rule="evenodd" clip-rule="evenodd" fill="#05A0C5" stroke="#000000" stroke-width="0.5" stroke-linecap="square" stroke-miterlimit="10" d="  M371.968,384.931c-3.784,0.056-4.409-3.601-9,0C367.139,388.593,367.681,384.994,371.968,384.931z"/>
<path fill-rule="evenodd" clip-rule="evenodd" fill="#05A0C5" stroke="#000000" stroke-width="0.5" stroke-linecap="square" stroke-miterlimit="10" d="  M335.968,360.181c-3.874-0.141-3.721-5.163-8.25,0C331.778,363.966,332.054,360.039,335.968,360.181z"/>
<path fill-rule="evenodd" clip-rule="evenodd" fill="#05A0C5" stroke="#000000" stroke-width="0.5" stroke-linecap="square" stroke-miterlimit="10" d="  M343.468,372.931c-3.998-0.1-4.02-5.059-9,0C338.695,376.642,339.189,372.824,343.468,372.931z"/>
<path fill-rule="evenodd" clip-rule="evenodd" fill="#05A0C5" stroke="#000000" stroke-width="0.5" stroke-linecap="square" stroke-miterlimit="10" d="  M328.468,375.931c3.874,0.141,3.721,5.163,8.25,0C332.657,372.146,332.381,376.074,328.468,375.931z"/>
<path fill-rule="evenodd" clip-rule="evenodd" fill="#05A0C5" stroke="#000000" stroke-width="0.5" stroke-linecap="square" stroke-miterlimit="10" d="  M320.968,357.181c-3.193,0.106-3.668-3.84-7.5,0.75C317.374,360.808,317.024,357.312,320.968,357.181z"/>
<path fill-rule="evenodd" clip-rule="evenodd" fill="#05A0C5" stroke="#000000" stroke-width="0.5" stroke-linecap="square" stroke-miterlimit="10" d="  M307.468,360.181c3.316,0.157,2.925,4.171,6.75,0C310.648,355.25,311.364,360.366,307.468,360.181z"/>
<path fill-rule="evenodd" clip-rule="evenodd" fill="#05A0C5" stroke="#000000" stroke-width="0.5" stroke-linecap="square" stroke-miterlimit="10" d="  M360.718,384.931c-3.103,0.38-4.026-3.706-8.25,0.75C356.413,389.647,356.506,385.447,360.718,384.931z"/>
<path fill-rule="evenodd" clip-rule="evenodd" fill="#05A0C5" stroke="#000000" stroke-width="0.5" stroke-linecap="square" stroke-miterlimit="10" d="  M346.468,388.681c2.961-0.09,3.503,3.729,7.5,0C350.485,384.873,350.215,388.567,346.468,388.681z"/>
<path fill-rule="evenodd" clip-rule="evenodd" fill="#AAD8E1" stroke="#000000" stroke-width="0.5" stroke-linecap="square" stroke-miterlimit="10" d="  M332.968,379.681c3.613-0.392,4.152,3.986,8.25-0.75C337.251,374.943,337.188,379.223,332.968,379.681z"/>
<path fill-rule="evenodd" clip-rule="evenodd" fill="#05A0C5" stroke="#000000" stroke-width="0.5" stroke-linecap="square" stroke-miterlimit="10" d="  M347.968,375.931c-3.661,0.056-3.986-3.709-8.25,0C343.401,379.7,343.879,375.994,347.968,375.931z"/>
<path fill-rule="evenodd" clip-rule="evenodd" fill="#05A0C5" stroke="#000000" stroke-width="0.5" stroke-linecap="square" stroke-miterlimit="10" d="  M324.718,372.931c3.41-0.096,3.264,3.855,7.5-0.75C327.619,368.896,328.812,372.815,324.718,372.931z"/>
<path fill-rule="evenodd" clip-rule="evenodd" fill="#05A0C5" stroke="#000000" stroke-width="0.5" stroke-linecap="square" stroke-miterlimit="10" d="  M338.218,369.181c-3.103,0.38-4.026-3.706-8.25,0.75C333.913,373.897,334.006,369.697,338.218,369.181z"/>
<path fill-rule="evenodd" clip-rule="evenodd" fill="#AAD8E1" stroke="#000000" stroke-width="0.5" stroke-linecap="square" stroke-miterlimit="10" d="  M352.468,378.931c-3.714,0.211-4.382-3.622-9,0C347.716,384.057,347.91,379.19,352.468,378.931z"/>
<path fill-rule="evenodd" clip-rule="evenodd" fill="#AAD8E1" stroke="#000000" stroke-width="0.5" stroke-linecap="square" stroke-miterlimit="10" d="  M337.468,382.681c3.023-0.363,4.172,3.777,8.25-0.75C341.769,377.961,341.681,382.175,337.468,382.681z"/>
<path fill-rule="evenodd" clip-rule="evenodd" fill="#05A0C5" stroke="#000000" stroke-width="0.5" stroke-linecap="square" stroke-miterlimit="10" d="  M320.218,369.931c3.026-0.098,3.488,3.368,7.5,0C324.238,366.126,323.965,369.81,320.218,369.931z"/>
<path fill-rule="evenodd" clip-rule="evenodd" fill="#05A0C5" stroke="#000000" stroke-width="0.5" stroke-linecap="square" stroke-miterlimit="10" d="  M334.468,366.181c-3.103,0.38-4.026-3.706-8.25,0.75C330.163,370.897,330.256,366.697,334.468,366.181z"/>
<path fill-rule="evenodd" clip-rule="evenodd" fill="#05A0C5" stroke="#000000" stroke-width="0.5" stroke-linecap="square" stroke-miterlimit="10" d="  M341.968,385.681c3.285,0.051,4.126,3.364,8.25,0C346.182,381.919,345.894,385.742,341.968,385.681z"/>
<path fill-rule="evenodd" clip-rule="evenodd" fill="#05A0C5" stroke="#000000" stroke-width="0.5" stroke-linecap="square" stroke-miterlimit="10" d="  M356.968,381.931c-3.724,0.386-4.531-3.809-9,0.75C352.468,386.607,352.523,382.392,356.968,381.931z"/>
<path fill-rule="evenodd" clip-rule="evenodd" fill="#AAD8E1" stroke="#000000" stroke-width="0.5" stroke-linecap="square" stroke-miterlimit="10" d="  M370.468,391.681c-3.937,0.067-3.976-5.103-9,0C365.778,396.883,365.911,391.758,370.468,391.681z"/>
<path fill-rule="evenodd" clip-rule="evenodd" fill="#2A68A8" stroke="#000000" stroke-width="0.5" stroke-linecap="square" stroke-miterlimit="10" d="  M354.718,395.431c3.729-0.076,4.652,3.401,9,0C359.413,390.236,359.275,395.338,354.718,395.431z"/>
<path fill-rule="evenodd" clip-rule="evenodd" fill="#05A0C5" stroke="#000000" stroke-width="0.5" stroke-linecap="square" stroke-miterlimit="10" d="  M311.218,363.181c3.423-0.071,3.643,3.727,7.5,0C315.223,359.359,314.965,363.103,311.218,363.181z"/>
<path fill-rule="evenodd" clip-rule="evenodd" fill="#05A0C5" stroke="#000000" stroke-width="0.5" stroke-linecap="square" stroke-miterlimit="10" d="  M325.468,360.181c-3.661,0.056-3.986-3.709-8.25,0C320.901,363.95,321.379,360.244,325.468,360.181z"/>
<path fill-rule="evenodd" clip-rule="evenodd" fill="#05A0C5" stroke="#000000" stroke-width="0.5" stroke-linecap="square" stroke-miterlimit="10" d="  M374.968,394.681c-3.724,0.386-4.531-3.809-9,0.75C370.468,399.357,370.523,395.142,374.968,394.681z"/>
<path fill-rule="evenodd" clip-rule="evenodd" fill="#05A0C5" stroke="#000000" stroke-width="0.5" stroke-linecap="square" stroke-miterlimit="10" d="  M359.218,398.431c4.488,0.135,4.629,5.021,9.75,0C364.319,394.812,363.663,398.565,359.218,398.431z"/>
<path fill-rule="evenodd" clip-rule="evenodd" fill="#2A68A8" stroke="#000000" stroke-width="0.5" stroke-linecap="square" stroke-miterlimit="10" d="  M365.218,387.931c-3.103,0.38-4.026-3.706-8.25,0.75C360.913,392.647,361.006,388.447,365.218,387.931z"/>
<path fill-rule="evenodd" clip-rule="evenodd" fill="#AAD8E1" stroke="#000000" stroke-width="0.5" stroke-linecap="square" stroke-miterlimit="10" d="  M350.218,391.681c3.429,0.153,3.71,4.944,8.25,0C354.705,387.832,354.302,391.863,350.218,391.681z"/>
<path fill-rule="evenodd" clip-rule="evenodd" fill="#05A0C5" stroke="#000000" stroke-width="0.5" stroke-linecap="square" stroke-miterlimit="10" d="  M315.718,366.181c3.774,0.302,3.103,4.595,7.5,0.75C319.999,361.886,319.529,366.486,315.718,366.181z"/>
<path fill-rule="evenodd" clip-rule="evenodd" fill="#05A0C5" stroke="#000000" stroke-width="0.5" stroke-linecap="square" stroke-miterlimit="10" d="  M329.968,363.181c-3.604,0.216-3.948-3.742-8.25,0C325.345,368.42,325.627,363.442,329.968,363.181z"/>
<path fill-rule="evenodd" clip-rule="evenodd" fill="#E4E4E4" stroke="#000000" stroke-width="0.5" stroke-linecap="square" stroke-miterlimit="10" d="  M421.468,444.931c10.771-5.847,22.261-18.265,32.883-10.947c20.539,14.149,41.078,28.298,61.617,42.447  c-18.372,10.835-23.927,21.228-41.163,8.35C457.026,471.498,439.247,458.214,421.468,444.931z"/>
<path fill-rule="evenodd" clip-rule="evenodd" fill="#FFFFFF" stroke="#000000" stroke-width="0.5" stroke-linecap="square" stroke-miterlimit="10" d="  M448.468,429.181c-9.75,5.25-19.5,10.5-29.25,15.75c16.481,12.407,32.963,24.814,49.444,37.223  c22.38,16.848,24.151,8.952,48.806-5.723C494.468,460.681,471.468,444.931,448.468,429.181z M486.718,492.931  c-21.25-16-42.5-32-63.75-48c17.71-9.376,21.252-16.43,37.413-5.284c17.778,12.262,35.558,24.522,53.337,36.784  C504.718,481.931,495.718,487.431,486.718,492.931z"/>
<path fill-rule="evenodd" clip-rule="evenodd" fill="#05A0C5" stroke="#000000" stroke-width="0.5" stroke-linecap="square" stroke-miterlimit="10" d="  M477.718,451.681c-4.451,0.034-4.577-5.071-9.75,0C472.826,456.79,472.977,451.717,477.718,451.681z"/>
<path fill-rule="evenodd" clip-rule="evenodd" fill="#05A0C5" stroke="#000000" stroke-width="0.5" stroke-linecap="square" stroke-miterlimit="10" d="  M451.468,433.681c-3.249,0.081-3.865-3.603-8.25,0C446.888,437.436,447.381,433.783,451.468,433.681z"/>
<path fill-rule="evenodd" clip-rule="evenodd" fill="#05A0C5" stroke="#000000" stroke-width="0.5" stroke-linecap="square" stroke-miterlimit="10" d="  M497.968,465.931c-3.926,0.092-3.97-5.109-9,0C492.825,471.192,493.259,466.042,497.968,465.931z"/>
<path fill-rule="evenodd" clip-rule="evenodd" fill="#05A0C5" stroke="#000000" stroke-width="0.5" stroke-linecap="square" stroke-miterlimit="10" d="  M482.968,455.431c-3.937,0.066-3.976-5.103-9,0C478.278,460.633,478.411,455.508,482.968,455.431z"/>
<path fill-rule="evenodd" clip-rule="evenodd" fill="#AAD8E1" stroke="#000000" stroke-width="0.5" stroke-linecap="square" stroke-miterlimit="10" d="  M471.718,447.931c-3.865-0.104-3.709-5.176-8.25,0C467.208,451.758,467.629,447.821,471.718,447.931z"/>
<path fill-rule="evenodd" clip-rule="evenodd" fill="#2A68A8" stroke="#000000" stroke-width="0.5" stroke-linecap="square" stroke-miterlimit="10" d="  M488.218,458.431c-3.819,0.387-4.978-3.637-9.75,0.75C483.113,463.007,483.46,458.913,488.218,458.431z"/>
<path fill-rule="evenodd" clip-rule="evenodd" fill="#AAD8E1" stroke="#000000" stroke-width="0.5" stroke-linecap="square" stroke-miterlimit="10" d="  M467.218,444.181c-3.714,0.211-4.382-3.622-9,0C462.466,449.307,462.66,444.44,467.218,444.181z"/>
<path fill-rule="evenodd" clip-rule="evenodd" fill="#2A68A8" stroke="#000000" stroke-width="0.5" stroke-linecap="square" stroke-miterlimit="10" d="  M493.468,462.181c-4.246,0.384-5.051-3.849-9.75,0.75C488.382,466.773,488.703,462.612,493.468,462.181z"/>
<path fill-rule="evenodd" clip-rule="evenodd" fill="#AAD8E1" stroke="#000000" stroke-width="0.5" stroke-linecap="square" stroke-miterlimit="10" d="  M509.218,473.431c-4.768-0.103-4.617-6.425-10.5,0C503.794,478.527,504.104,473.321,509.218,473.431z"/>
<path fill-rule="evenodd" clip-rule="evenodd" fill="#05A0C5" stroke="#000000" stroke-width="0.5" stroke-linecap="square" stroke-miterlimit="10" d="  M456.718,437.431c-4.333-0.139-4.333-5.124-9,0C451.954,441.15,452.442,437.293,456.718,437.431z"/>
<path fill-rule="evenodd" clip-rule="evenodd" fill="#05A0C5" stroke="#000000" stroke-width="0.5" stroke-linecap="square" stroke-miterlimit="10" d="  M513.718,476.431c-3.623,0.533-4.51-3.83-9,0.75C509.28,482.565,509.044,477.119,513.718,476.431z"/>
<path fill-rule="evenodd" clip-rule="evenodd" fill="#05A0C5" stroke="#000000" stroke-width="0.5" stroke-linecap="square" stroke-miterlimit="10" d="  M503.218,468.931c-3.819,0.387-4.978-3.637-9.75,0.75C498.113,473.507,498.46,469.413,503.218,468.931z"/>
<path fill-rule="evenodd" clip-rule="evenodd" fill="#2A68A8" stroke="#000000" stroke-width="0.5" stroke-linecap="square" stroke-miterlimit="10" d="  M461.968,441.181c-4.283-0.329-4.123-4.768-9-0.75C456.974,445.318,457.568,440.842,461.968,441.181z"/>
<path fill-rule="evenodd" clip-rule="evenodd" fill="#05A0C5" stroke="#000000" stroke-width="0.5" stroke-linecap="square" stroke-miterlimit="10" d="  M470.968,455.431c-4.569,0.062-4.938-4.963-10.5,0C465.484,460.467,465.842,455.5,470.968,455.431z"/>
<path fill-rule="evenodd" clip-rule="evenodd" fill="#05A0C5" stroke="#000000" stroke-width="0.5" stroke-linecap="square" stroke-miterlimit="10" d="  M445.468,436.681c-3.72,0.393-4.529-3.81-9,0.75C440.596,441.326,440.939,437.16,445.468,436.681z"/>
<path fill-rule="evenodd" clip-rule="evenodd" fill="#05A0C5" stroke="#000000" stroke-width="0.5" stroke-linecap="square" stroke-miterlimit="10" d="  M491.218,469.681c-3.98,0.261-4.578-5.106-9.75,0.75C486.174,474.307,486.442,469.995,491.218,469.681z"/>
<path fill-rule="evenodd" clip-rule="evenodd" fill="#05A0C5" stroke="#000000" stroke-width="0.5" stroke-linecap="square" stroke-miterlimit="10" d="  M476.218,459.181c-4.028,0.091-4.362-4.973-9.75,0C470.94,464.312,471.289,459.292,476.218,459.181z"/>
<path fill-rule="evenodd" clip-rule="evenodd" fill="#2A68A8" stroke="#000000" stroke-width="0.5" stroke-linecap="square" stroke-miterlimit="10" d="  M464.968,450.931c-3.184,0.371-4.51-3.51-9,0.75C460.446,455.588,460.53,451.448,464.968,450.931z"/>
<path fill-rule="evenodd" clip-rule="evenodd" fill="#2A68A8" stroke="#000000" stroke-width="0.5" stroke-linecap="square" stroke-miterlimit="10" d="  M480.718,462.181c-3.724,0.386-4.531-3.809-9,0.75C476.218,466.857,476.273,462.641,480.718,462.181z"/>
<path fill-rule="evenodd" clip-rule="evenodd" fill="#AAD8E1" stroke="#000000" stroke-width="0.5" stroke-linecap="square" stroke-miterlimit="10" d="  M460.468,447.931c-3.72,0.393-4.529-3.81-9,0.75C455.596,452.576,455.939,448.41,460.468,447.931z"/>
<path fill-rule="evenodd" clip-rule="evenodd" fill="#2A68A8" stroke="#000000" stroke-width="0.5" stroke-linecap="square" stroke-miterlimit="10" d="  M485.968,465.931c-3.824,0.378-4.979-3.636-9.75,0.75C481.183,470.563,481.32,466.391,485.968,465.931z"/>
<path fill-rule="evenodd" clip-rule="evenodd" fill="#05A0C5" stroke="#000000" stroke-width="0.5" stroke-linecap="square" stroke-miterlimit="10" d="  M501.718,477.181c-4.569,0.062-4.938-4.963-10.5,0C496.234,482.217,496.592,477.25,501.718,477.181z"/>
<path fill-rule="evenodd" clip-rule="evenodd" fill="#05A0C5" stroke="#000000" stroke-width="0.5" stroke-linecap="square" stroke-miterlimit="10" d="  M449.968,440.431c-3.724,0.386-4.531-3.809-9,0.75C445.468,445.107,445.523,440.891,449.968,440.431z"/>
<path fill-rule="evenodd" clip-rule="evenodd" fill="#AAD8E1" stroke="#000000" stroke-width="0.5" stroke-linecap="square" stroke-miterlimit="10" d="  M506.968,480.931c-4.028,0.091-4.362-4.973-9.75,0C501.69,486.062,502.039,481.042,506.968,480.931z"/>
<path fill-rule="evenodd" clip-rule="evenodd" fill="#05A0C5" stroke="#000000" stroke-width="0.5" stroke-linecap="square" stroke-miterlimit="10" d="  M495.718,473.431c-4.041,0.065-4.367-4.969-9.75,0C490.812,478.525,490.973,473.507,495.718,473.431z"/>
<path fill-rule="evenodd" clip-rule="evenodd" fill="#05A0C5" stroke="#000000" stroke-width="0.5" stroke-linecap="square" stroke-miterlimit="10" d="  M455.968,444.181c-4.443,0.062-4.568-5.08-9.75,0C450.704,449.329,451.039,444.25,455.968,444.181z"/>
<path fill-rule="evenodd" clip-rule="evenodd" fill="#05A0C5" stroke="#000000" stroke-width="0.5" stroke-linecap="square" stroke-miterlimit="10" d="  M463.468,459.181c-4.041,0.065-4.367-4.969-9.75,0C458.562,464.275,458.723,459.257,463.468,459.181z"/>
<path fill-rule="evenodd" clip-rule="evenodd" fill="#05A0C5" stroke="#000000" stroke-width="0.5" stroke-linecap="square" stroke-miterlimit="10" d="  M446.968,462.931c4.052-0.073,3.805,5.082,9,0C451.659,457.732,451.524,462.849,446.968,462.931z"/>
<path fill-rule="evenodd" clip-rule="evenodd" fill="#05A0C5" stroke="#000000" stroke-width="0.5" stroke-linecap="square" stroke-miterlimit="10" d="  M437.968,440.431c-2.879,0.638-4.266-3.715-8.25,1.5C433.944,446.055,433.664,441.384,437.968,440.431z"/>
<path fill-rule="evenodd" clip-rule="evenodd" fill="#05A0C5" stroke="#000000" stroke-width="0.5" stroke-linecap="square" stroke-miterlimit="10" d="  M422.968,444.931c3.214-0.103,3.827,3.188,8.25,0C427.245,441.228,426.906,444.805,422.968,444.931z"/>
<path fill-rule="evenodd" clip-rule="evenodd" fill="#05A0C5" stroke="#000000" stroke-width="0.5" stroke-linecap="square" stroke-miterlimit="10" d="  M483.718,473.431c-3.819,0.387-4.978-3.637-9.75,0.75C478.613,478.007,478.96,473.913,483.718,473.431z"/>
<path fill-rule="evenodd" clip-rule="evenodd" fill="#05A0C5" stroke="#000000" stroke-width="0.5" stroke-linecap="square" stroke-miterlimit="10" d="  M467.218,477.931c3.545-0.099,4.21,4.641,9-0.75C471.601,473.153,471.671,477.807,467.218,477.931z"/>
<path fill-rule="evenodd" clip-rule="evenodd" fill="#AAD8E1" stroke="#000000" stroke-width="0.5" stroke-linecap="square" stroke-miterlimit="10" d="  M452.218,466.681c4.103,0.101,3.856,5.031,9,0C456.991,462.971,456.497,466.787,452.218,466.681z"/>
<path fill-rule="evenodd" clip-rule="evenodd" fill="#05A0C5" stroke="#000000" stroke-width="0.5" stroke-linecap="square" stroke-miterlimit="10" d="  M468.718,462.931c-4.028,0.091-4.362-4.973-9.75,0C463.44,468.062,463.789,463.042,468.718,462.931z"/>
<path fill-rule="evenodd" clip-rule="evenodd" fill="#05A0C5" stroke="#000000" stroke-width="0.5" stroke-linecap="square" stroke-miterlimit="10" d="  M442.468,459.181c3.567,0.099,3.203,5.051,8.25,0C446.668,455.406,446.387,459.29,442.468,459.181z"/>
<path fill-rule="evenodd" clip-rule="evenodd" fill="#05A0C5" stroke="#000000" stroke-width="0.5" stroke-linecap="square" stroke-miterlimit="10" d="  M458.218,454.681c-3.711,0.523-4.969-3.645-9.75,0.75C453.165,460.725,453.188,455.39,458.218,454.681z"/>
<path fill-rule="evenodd" clip-rule="evenodd" fill="#AAD8E1" stroke="#000000" stroke-width="0.5" stroke-linecap="square" stroke-miterlimit="10" d="  M473.968,466.681c-4.028,0.091-4.362-4.973-9.75,0C468.69,471.812,469.039,466.792,473.968,466.681z"/>
<path fill-rule="evenodd" clip-rule="evenodd" fill="#AAD8E1" stroke="#000000" stroke-width="0.5" stroke-linecap="square" stroke-miterlimit="10" d="  M457.468,470.431c3.743,0.123,4.011,4.937,9,0C462.084,465.141,462.005,470.581,457.468,470.431z"/>
<path fill-rule="evenodd" clip-rule="evenodd" fill="#05A0C5" stroke="#000000" stroke-width="0.5" stroke-linecap="square" stroke-miterlimit="10" d="  M437.218,456.181c3.653-0.371,4.652,3.897,9-0.75C441.715,451.502,441.663,455.729,437.218,456.181z"/>
<path fill-rule="evenodd" clip-rule="evenodd" fill="#05A0C5" stroke="#000000" stroke-width="0.5" stroke-linecap="square" stroke-miterlimit="10" d="  M453.718,451.681c-3.819,0.387-4.978-3.637-9.75,0.75C448.613,456.257,448.96,452.163,453.718,451.681z"/>
<path fill-rule="evenodd" clip-rule="evenodd" fill="#05A0C5" stroke="#000000" stroke-width="0.5" stroke-linecap="square" stroke-miterlimit="10" d="  M461.968,474.181c4.018,0.02,4.648,4.237,9.75,0C467.2,468.999,466.896,474.205,461.968,474.181z"/>
<path fill-rule="evenodd" clip-rule="evenodd" fill="#05A0C5" stroke="#000000" stroke-width="0.5" stroke-linecap="square" stroke-miterlimit="10" d="  M479.218,469.681c-3.711,0.523-4.969-3.645-9.75,0.75C474.165,475.725,474.188,470.39,479.218,469.681z"/>
<path fill-rule="evenodd" clip-rule="evenodd" fill="#AAD8E1" stroke="#000000" stroke-width="0.5" stroke-linecap="square" stroke-miterlimit="10" d="  M494.218,480.931c-4.502,0.226-4.903-4.995-10.5,0C488.781,487.429,488.863,481.199,494.218,480.931z"/>
<path fill-rule="evenodd" clip-rule="evenodd" fill="#2A68A8" stroke="#000000" stroke-width="0.5" stroke-linecap="square" stroke-miterlimit="10" d="  M476.218,485.431c4.455-0.081,5.235,4.59,10.5,0C481.597,478.86,481.565,485.333,476.218,485.431z"/>
<path fill-rule="evenodd" clip-rule="evenodd" fill="#05A0C5" stroke="#000000" stroke-width="0.5" stroke-linecap="square" stroke-miterlimit="10" d="  M427.468,447.931c3.757,0.279,3.453,4.955,8.25,0.75C431.921,443.798,431.458,448.228,427.468,447.931z"/>
<path fill-rule="evenodd" clip-rule="evenodd" fill="#05A0C5" stroke="#000000" stroke-width="0.5" stroke-linecap="square" stroke-miterlimit="10" d="  M443.218,444.181c-3.819,0.387-4.978-3.637-9.75,0.75C438.113,448.757,438.46,444.663,443.218,444.181z"/>
<path fill-rule="evenodd" clip-rule="evenodd" fill="#05A0C5" stroke="#000000" stroke-width="0.5" stroke-linecap="square" stroke-miterlimit="10" d="  M499.468,484.681c-3.883,0.397-4.557-5.131-9.75,0.75C494.925,490.828,494.566,485.183,499.468,484.681z"/>
<path fill-rule="evenodd" clip-rule="evenodd" fill="#05A0C5" stroke="#000000" stroke-width="0.5" stroke-linecap="square" stroke-miterlimit="10" d="  M482.218,489.181c4.768,0.103,4.617,6.425,10.5,0C487.642,484.085,487.332,489.292,482.218,489.181z"/>
<path fill-rule="evenodd" clip-rule="evenodd" fill="#2A68A8" stroke="#000000" stroke-width="0.5" stroke-linecap="square" stroke-miterlimit="10" d="  M488.968,477.181c-4.028,0.091-4.362-4.973-9.75,0C483.69,482.312,484.039,477.292,488.968,477.181z"/>
<path fill-rule="evenodd" clip-rule="evenodd" fill="#AAD8E1" stroke="#000000" stroke-width="0.5" stroke-linecap="square" stroke-miterlimit="10" d="  M471.718,481.681c3.902-0.184,4.861,4.479,9.75-0.75C476.731,477.03,476.497,481.457,471.718,481.681z"/>
<path fill-rule="evenodd" clip-rule="evenodd" fill="#05A0C5" stroke="#000000" stroke-width="0.5" stroke-linecap="square" stroke-miterlimit="10" d="  M431.968,451.681c4.587,0.401,3.838,5.071,9,0.75C436.948,447.527,436.359,452.065,431.968,451.681z"/>
<path fill-rule="evenodd" clip-rule="evenodd" fill="#05A0C5" stroke="#000000" stroke-width="0.5" stroke-linecap="square" stroke-miterlimit="10" d="  M448.468,447.931c-3.874,0.408-4.556-5.132-9.75,0.75C443.48,454.048,443.415,448.464,448.468,447.931z"/>
<path fill-rule="evenodd" clip-rule="evenodd" fill="#B3B3B3" stroke="#000000" stroke-width="0.5" stroke-linecap="square" stroke-miterlimit="10" d="  M394.468,395.431c-17.111,17.834,3.645,27.495,19.917,33.694c8.074,3.076,21.056-2.584,18.333-13.444  C431.77,411.899,400.297,400.354,394.468,395.431z"/>
<path fill-rule="evenodd" clip-rule="evenodd" fill="#E4E4E4" stroke="#000000" stroke-width="0.5" stroke-linecap="square" stroke-miterlimit="10" d="  M396.718,404.431c7.826,6.617,13.852,7.684,5.25,18C388.677,417.345,392.427,413.821,396.718,404.431z"/>
<path fill-rule="evenodd" clip-rule="evenodd" fill="#AAD8E1" stroke="#000000" stroke-width="0.5" stroke-linecap="square" stroke-miterlimit="10" d="  M397.468,406.681c-0.456,1.758,3.895,4.894-1.5,9.75c-1.25-1-2.5-2-3.75-3C393.968,411.181,395.718,408.931,397.468,406.681z"/>
<path fill-rule="evenodd" clip-rule="evenodd" fill="#AAD8E1" stroke="#000000" stroke-width="0.5" stroke-linecap="square" stroke-miterlimit="10" d="  M401.968,409.681c-0.297,2.298,5.46,4.383-0.75,10.5c-1.25-1-2.5-2-3.75-3C398.968,414.681,400.468,412.181,401.968,409.681z"/>
<path fill-rule="evenodd" clip-rule="evenodd" fill="#B3B3B3" stroke="#000000" stroke-width="0.5" stroke-linecap="square" stroke-miterlimit="10" d="  M432.718,438.181c-1.262-6.789-3.002-13.509-4.5-20.25c1.069,4.6,0.459,13.661,1.5,19.5c-2.533-1.263-6.677-3.534-9-5.25  C424.223,435.889,428.895,437.297,432.718,438.181z"/>
<path fill-rule="evenodd" clip-rule="evenodd" fill="#668187" d="M433.468,429.931C437.311,436.628,437.396,436.776,433.468,429.931  L433.468,429.931z"/>
<path fill="none" stroke="#000000" stroke-width="0.5" stroke-linecap="square" stroke-miterlimit="10" d="M433.468,429.931  c-0.074,3.862,0.468,7.064,4.5,4.5"/>
<path fill-rule="evenodd" clip-rule="evenodd" fill="#B3B3B3" stroke="#000000" stroke-width="0.5" stroke-linecap="square" stroke-miterlimit="10" d="  M403.468,390.931c-24.999,7.741,18.219,25.278,30,24.75C428.296,403.062,414.802,398.172,403.468,390.931z"/>
<path fill-rule="evenodd" clip-rule="evenodd" fill="#AAD8E1" d="M398.968,391.681L398.968,391.681L398.968,391.681z"/>
<line fill="none" stroke="#000000" stroke-width="0.5" stroke-linecap="square" stroke-miterlimit="10" x1="398.968" y1="391.681" x2="398.968" y2="391.681"/>
<path fill-rule="evenodd" clip-rule="evenodd" fill="#F9DF59" stroke="#000000" stroke-width="0.5" stroke-linecap="square" stroke-miterlimit="10" d="  M416.968,385.681c-7.551-6.068-16.978-9.325-26.25-7.5c7.164,19.002,37.015,36.608,57,34.5  C442.244,398.961,429.77,392.044,416.968,385.681z"/>
<path fill-rule="evenodd" clip-rule="evenodd" fill="#F9DF59" d="M392.218,378.931l23.248,7.5L392.218,378.931z"/>
<line fill="none" stroke="#000000" stroke-width="0.5" stroke-linecap="square" stroke-miterlimit="10" x1="392.218" y1="378.931" x2="415.466" y2="386.431"/>
<path fill-rule="evenodd" clip-rule="evenodd" fill="#F9DF59" d="M396.718,389.431l20.25-0.75L396.718,389.431z"/>
<line fill="none" stroke="#000000" stroke-width="0.5" stroke-linecap="square" stroke-miterlimit="10" x1="396.718" y1="389.431" x2="416.968" y2="388.681"/>
<path fill-rule="evenodd" clip-rule="evenodd" fill="#F9DF59" d="M415.466,402.931l6.002-9.75L415.466,402.931z"/>
<line fill="none" stroke="#000000" stroke-width="0.5" stroke-linecap="square" stroke-miterlimit="10" x1="415.466" y1="402.931" x2="421.468" y2="393.181"/>
<line fill="none" stroke="#000000" stroke-width="0.5" stroke-linecap="square" stroke-miterlimit="10" x1="437.968" y1="413.431" x2="427.468" y2="394.681"/>
<path fill-rule="evenodd" clip-rule="evenodd" fill="#F9DF59" d="M447.718,411.931l-18.75-18L447.718,411.931z"/>
<line fill="none" stroke="#000000" stroke-width="0.5" stroke-linecap="square" stroke-miterlimit="10" x1="447.718" y1="411.931" x2="428.968" y2="393.931"/>
<path fill-rule="evenodd" clip-rule="evenodd" fill="#F9DF59" stroke="#000000" stroke-width="0.5" stroke-linecap="square" stroke-miterlimit="10" d="  M430.468,393.931c-7.465-1.497-13.22-0.073-14.25-9C423.843,385.263,426.029,389.735,430.468,393.931z"/>
<path fill-rule="evenodd" clip-rule="evenodd" fill="#E4E4E4" d="M389.218,414.181l8.25-12.75L389.218,414.181z"/>
<line fill="none" stroke="#000000" stroke-width="0.5" stroke-linecap="square" stroke-miterlimit="10" x1="389.218" y1="414.181" x2="397.468" y2="401.431"/>
<path fill-rule="evenodd" clip-rule="evenodd" fill="#E4E4E4" stroke="#000000" stroke-width="0.5" stroke-linecap="square" stroke-miterlimit="10" d="  M404.968,423.181c4,2,8,4,12,6c1.5-3.75,3-7.5,4.5-11.25C410.775,410.24,409.958,414.958,404.968,423.181z"/>
<path fill-rule="evenodd" clip-rule="evenodd" fill="#AAD8E1" stroke="#000000" stroke-width="0.5" stroke-linecap="square" stroke-miterlimit="10" d="  M419.218,418.681c-1.204,1.362-6.253-1.415-6.75,6.75c1.25,0.5,2.5,1,3.75,1.5C417.218,424.181,418.218,421.431,419.218,418.681z"/>
<path fill-rule="evenodd" clip-rule="evenodd" fill="#AAD8E1" stroke="#000000" stroke-width="0.5" stroke-linecap="square" stroke-miterlimit="10" d="  M410.218,414.931c-1,2.75-2,5.5-3,8.25c1.25,0.5,2.5,1,3.75,1.5C417.3,417.25,410.354,417.335,410.218,414.931z"/>
<path fill-rule="evenodd" clip-rule="evenodd" fill="#E4E4E4" d="M418.468,430.681l6-15L418.468,430.681z"/>
<line fill="none" stroke="#000000" stroke-width="0.5" stroke-linecap="square" stroke-miterlimit="10" x1="418.468" y1="430.681" x2="424.468" y2="415.681"/>
<path fill="none" stroke="#000000" stroke-width="0.5" stroke-linecap="square" stroke-miterlimit="10" d="M392.218,423.931  c5.931,5.229,12.629,8.949,20.25,11.25"/>
<path fill-rule="evenodd" clip-rule="evenodd" fill="#F9DF59" stroke="#000000" stroke-width="0.5" stroke-linecap="square" stroke-miterlimit="10" d="  M412.468,436.681C404.614,435.063,404.207,434.979,412.468,436.681L412.468,436.681z"/>
<path fill-rule="evenodd" clip-rule="evenodd" fill="#F9DF59" stroke="#000000" stroke-width="0.5" stroke-linecap="square" stroke-miterlimit="10" d="  M404.218,432.931C396.843,431.909,395.788,431.762,404.218,432.931L404.218,432.931z"/>
<path fill-rule="evenodd" clip-rule="evenodd" fill="#2A68A8" stroke="#000000" stroke-width="0.5" stroke-linecap="square" stroke-miterlimit="10" d="  M404.218,432.181C398.155,432.098,397.656,432.091,404.218,432.181L404.218,432.181z"/>
<path fill-rule="evenodd" clip-rule="evenodd" fill="#2A68A8" stroke="#000000" stroke-width="0.5" stroke-linecap="square" stroke-miterlimit="10" d="  M412.468,435.931c-2.393-0.154-5.565,5.847-4.5-3C411.5,432.059,412.402,435.927,412.468,435.931z"/>
</svg>