<svg xmlns="http://www.w3.org/2000/svg" xmlns:xlink="http://www.w3.org/1999/xlink" version="1.1" id="Layer_1" x="0px" y="0px" enable-background="new 0 0 822.05 841.89" xml:space="preserve" viewBox="298.84 357.64 222.05 127.75">
<path fill-rule="evenodd" clip-rule="evenodd" fill="#F7F619" d="M476.5,484.14c-5.227,0.908-24,2.636-24-2.889  c0-5.75-3.797-32.513,0-36.111C479.387,419.654,476.5,475.77,476.5,484.14z"/>
<path fill-rule="evenodd" clip-rule="evenodd" d="M308.5,456.39c3.732,4.106,10.564,0.125,11.25,12  c7.349-18.777,12.262-12.102,10.5,6c-1.5,0-3,0-4.5,0c0-4.5,0-9,0-13.5c-4.593,16.787-8.891,17.168-12.75,0c0,4.5,0,9,0,13.5  c-1.5,0-3,0-4.5,0C308.5,468.395,308.338,462.383,308.5,456.39z"/>
<path fill-rule="evenodd" clip-rule="evenodd" d="M344.5,460.14c-0.802-2.181-5.837,2.477-4.5-3.75c4.5,0,9,0,13.5,0  c0,1.25,0,2.5,0,3.75c0.119-0.34-3.125,11.055-4.5,14.25c-1.5,0-3,0-4.5,0C344.5,469.64,344.5,464.89,344.5,460.14z"/>
<path fill-rule="evenodd" clip-rule="evenodd" d="M361.75,456.39c1.809,3.104,8.899,3.052,7.5,13.5c0.75-4.5,1.5-9,2.25-13.5  c2,0,4,0,6,0c1,4.5,2,9,3,13.5c0.75-4.5,1.5-9,2.25-13.5c1.5,0,3,0,4.5,0c-1.879,18.422-8.335,25.285-12.75,4.5  c-0.75,4.5-1.5,9-2.25,13.5c-2,0-4,0-6,0C364.77,468.467,362.552,462.433,361.75,456.39z"/>
<path fill-rule="evenodd" clip-rule="evenodd" d="M400,460.14c-0.802-2.181-5.837,2.477-4.5-3.75c4.5,0,9,0,13.5,0  c0,1.25,0,2.5,0,3.75c0.119-0.34-3.125,11.055-4.5,14.25c-1.5,0-3,0-4.5,0C400,469.64,400,464.89,400,460.14z"/>
<path fill-rule="evenodd" clip-rule="evenodd" d="M410.5,454.89c2.796,2.606,6.975-0.107,4.5,8.25  c12.459-1.347,6.812-0.833,9.75,11.25c-1.5,0-3,0-4.5,0c-1.109-12.128-4.389-11.356-5.25,0c-1.5,0-3,0-4.5,0  C410.5,467.973,409.779,461.256,410.5,454.89z"/>
<path fill-rule="evenodd" clip-rule="evenodd" d="M436,456.39c3.75,0,7.5,0,11.25,0c0,1.25,0,2.5,0,3.75c-2.25,0-4.5,0-6.75,0  c0,1.25,0,2.5,0,3.75c6.136,1.248,3.972-1.449,6.75,3c-2.377,2.632-3.973,4.242-6.75,7.5c-1.5,0-3,0-4.5,0  C436,468.39,435.955,462.389,436,456.39z"/>
<path fill-rule="evenodd" clip-rule="evenodd" d="M457.75,469.89c3.788,0.652,5.515,2.312,8.25-0.75  c-11.125-7.58-10.079-12.024,3.75-12c0.683-0.25-6.933,2.503-7.5,3C473.804,468.671,468.218,477.161,457.75,469.89z"/>
<path fill-rule="evenodd" clip-rule="evenodd" d="M481,469.89c3.788,0.652,5.515,2.312,8.25-0.75  c-11.125-7.58-10.079-12.024,3.75-12c0.531-0.195-6.866,2.453-7.5,3C497.629,469.019,491.445,475.741,481,469.89z"/>
<path fill-rule="evenodd" clip-rule="evenodd" d="M510.25,474.39c-8.439,1.94-14.207-0.975-13.5-13.5c1.5,0,3,0,4.5,0  c0.126,3.445-0.263,6.764,0.75,9.75c1.617-3.201,3.259-2.892,3.75-9.75c1.5,0,3,0,4.5,0C510.25,465.39,510.25,469.89,510.25,474.39z  "/>
<path fill="none" stroke="#000000" stroke-linecap="square" stroke-miterlimit="10" d="M518.5,484.89c-45.218,0-90.437,0-135.654,0  c-24.63,0-49.26,0-73.889,0c-10.772,0-11.835-33.27-6.457-39c13.138-13.997,116.022,0,135.654,0c24.63,0,49.26,0,73.89,0  C525.69,445.89,518.5,473.722,518.5,484.89z"/>
<line fill="none" stroke="#000000" stroke-width="1.25" stroke-linecap="square" stroke-miterlimit="10" x1="334" y1="447.39" x2="334" y2="483.39"/>
<line fill="none" stroke="#000000" stroke-width="1.25" stroke-linecap="square" stroke-miterlimit="10" x1="360.25" y1="447.39" x2="360.25" y2="483.39"/>
<line fill="none" stroke="#000000" stroke-width="1.25" stroke-linecap="square" stroke-miterlimit="10" x1="391.75" y1="447.39" x2="391.75" y2="483.39"/>
<line fill="none" stroke="#000000" stroke-width="1.25" stroke-linecap="square" stroke-miterlimit="10" x1="430" y1="447.39" x2="430" y2="483.39"/>
<line fill="none" stroke="#000000" stroke-width="1.25" stroke-linecap="square" stroke-miterlimit="10" x1="452.5" y1="447.39" x2="452.5" y2="483.39"/>
<line fill="none" stroke="#000000" stroke-width="1.25" stroke-linecap="square" stroke-miterlimit="10" x1="477.25" y1="447.39" x2="477.25" y2="483.39"/>
<path fill-rule="evenodd" clip-rule="evenodd" fill="#F8130D" stroke="#000000" stroke-width="1.5" stroke-linecap="square" stroke-miterlimit="10" d="  M470.5,403.14c0-3.106,1.778-49.51-12-33c-9.274,11.113,12.462,33.417-9,33c5.25,11.25,10.5,22.5,15.75,33.75  c4.75-11.25,9.5-22.5,14.25-33.75C476.5,403.14,473.5,403.14,470.5,403.14z"/>
<path fill-rule="evenodd" clip-rule="evenodd" fill="#168736" stroke="#000000" stroke-linecap="square" stroke-miterlimit="10" d="  M358.75,399.39c-4.391,10.012-10.913,20.579-17.25,28.5C350.41,421.333,366.034,403.113,358.75,399.39z"/>
<path fill-rule="evenodd" clip-rule="evenodd" fill="#168736" stroke="#000000" stroke-linecap="square" stroke-miterlimit="10" d="  M334.75,427.89c2.279-0.062,6.13,1.86,9.75,0C340.462,424.892,338.15,427.797,334.75,427.89z"/>
<path fill-rule="evenodd" clip-rule="evenodd" fill="#EDCBA6" stroke="#000000" stroke-linecap="square" stroke-miterlimit="10" d="  M364.75,391.89c-7.881,14.434-19.457,27.645-29.25,39.75c14.687-9.662,25.448-25.39,35.25-39.75  C368.142,389.243,367.42,392.025,364.75,391.89z"/>
<path fill-rule="evenodd" clip-rule="evenodd" fill="#EDCBA6" stroke="#000000" stroke-linecap="square" stroke-miterlimit="10" d="  M323.5,430.89c5.599,0.114,8.999,3.602,15-0.75C332.979,427.348,329.101,430.007,323.5,430.89z"/>
<path fill-rule="evenodd" clip-rule="evenodd" fill="#EDCBA6" stroke="#000000" stroke-linecap="square" stroke-miterlimit="10" d="  M379,421.89c12.081-7.363,24.608-15.422,36-23.25c5.616,10.353,13.122,20.29,20.25,30c-4.74-1.565-9.068-6.929-14.886-14.76  c-11.778-15.855-6.299-1.928-21.114,1.26C388.57,417.438,378.316,436.046,379,421.89z"/>
<path fill-rule="evenodd" clip-rule="evenodd" fill="#220F74" stroke="#000000" stroke-linecap="square" stroke-miterlimit="10" d="  M376,421.14c9.676-11.966,18.58-13.534,25.125-2.625C399.814,416.331,372.843,448.913,376,421.14z"/>
<path fill-rule="evenodd" clip-rule="evenodd" fill="#220F74" stroke="#000000" stroke-linecap="square" stroke-miterlimit="10" d="  M430.75,429.39C458.381,396.097,443.229,447.958,430.75,429.39L430.75,429.39z"/>
<path fill-rule="evenodd" clip-rule="evenodd" fill="#EDCBA6" stroke="#000000" stroke-linecap="square" stroke-miterlimit="10" d="  M376,421.89c10.553-7.312,21.844-15.647,31.5-23.25c5.171,11.135,14.543,22.312,15,32.25c-5.5-8.75-11-17.5-16.5-26.25  C398.321,410.935,376.842,436.293,376,421.89z"/>
<path fill-rule="evenodd" clip-rule="evenodd" fill="#220F74" stroke="#000000" stroke-linecap="square" stroke-miterlimit="10" d="  M421,428.64C446.867,392.297,432.048,449.279,421,428.64L421,428.64z"/>
<path fill-rule="evenodd" clip-rule="evenodd" fill="#FBF11E" stroke="#000000" stroke-linecap="square" stroke-miterlimit="10" d="  M355.75,391.14c-3.468,14.267-6.96,32.829,5.25,42.75c5.655-10.887,20.985-18.076,18.375-31.125  C377.006,390.922,365.801,386.288,355.75,391.14z"/>
<path fill-rule="evenodd" clip-rule="evenodd" fill="#EDCBA6" stroke="#000000" stroke-linecap="square" stroke-miterlimit="10" d="  M368.5,367.89c11.76,15.52-6.705,26.127-19.5,12.75C356.815,377.382,361.543,371.896,368.5,367.89z"/>
<path fill-rule="evenodd" clip-rule="evenodd" fill="#220F74" stroke="#000000" stroke-linecap="square" stroke-miterlimit="10" d="  M347.5,379.89c10.612-4.826,20.695-12.146,27-21.75C362.807,361.738,345.826,362.535,347.5,379.89z"/>
<line fill="none" stroke="#000000" stroke-linecap="square" stroke-miterlimit="10" x1="390.25" y1="381.39" x2="390.25" y2="381.39"/>
<path fill-rule="evenodd" clip-rule="evenodd" fill="#220F74" stroke="#000000" stroke-linecap="square" stroke-miterlimit="10" d="  M370,422.64c6.49-7.924,15.034-13.99,24.75-17.25c10.203,18.332-18.231,30.572-34.5,28.5C363.5,430.14,366.75,426.39,370,422.64z"/>
<path fill-rule="evenodd" clip-rule="evenodd" fill="#EDCBA6" stroke="#000000" stroke-linecap="square" stroke-miterlimit="10" d="  M353.5,400.14c-11.702,11.233-25.681,21.408-38.25,30.75C325.662,427.142,365.83,403.477,353.5,400.14z"/>
<path fill-rule="evenodd" clip-rule="evenodd" fill="#EDCBA6" stroke="#000000" stroke-linecap="square" stroke-miterlimit="10" d="  M304,430.14c5.424,0.207,9.385,4.271,14.25-1.5C312.697,426.862,308.911,429.449,304,430.14z"/>
<path fill-rule="evenodd" clip-rule="evenodd" fill="#FBF11E" stroke="#000000" stroke-linecap="square" stroke-miterlimit="10" d="  M356.5,410.64c17.643-18.477,2.257-29.356-12.75-9C348.402,403.85,352.16,408.63,356.5,410.64z"/>
</svg>