<svg xmlns="http://www.w3.org/2000/svg" xmlns:xlink="http://www.w3.org/1999/xlink" version="1.1" id="Layer_1" x="0px" y="0px" enable-background="new 0 0 822.05 841.89" xml:space="preserve" viewBox="312.57 344.9 194.97 155.39">
<path fill-rule="evenodd" clip-rule="evenodd" fill="#F7DE58" stroke="#000000" stroke-width="1.25" stroke-linecap="square" stroke-miterlimit="10" d="  M313.19,391.515c2.519-3.474,9.846-0.388,3-9C315.082,384.983,314.658,389.491,313.19,391.515z"/>
<path fill-rule="evenodd" clip-rule="evenodd" fill="#F7DE58" stroke="#000000" stroke-width="1.25" stroke-linecap="square" stroke-miterlimit="10" d="  M322.19,381.765C316.66,388.455,319.14,385.455,322.19,381.765L322.19,381.765z"/>
<path fill-rule="evenodd" clip-rule="evenodd" fill="#F7DE58" stroke="#000000" stroke-width="1.25" stroke-linecap="square" stroke-miterlimit="10" d="  M324.44,379.515c-1.276,2.322,2.612,4.954,0,8.25C311.907,378.312,320.045,382.263,324.44,379.515z"/>
<path fill-rule="evenodd" clip-rule="evenodd" fill="#F7DE58" stroke="#000000" stroke-width="1.25" stroke-linecap="square" stroke-miterlimit="10" d="  M327.44,375.765C323.104,387.58,317.594,379.812,327.44,375.765L327.44,375.765z"/>
<path fill-rule="evenodd" clip-rule="evenodd" fill="#F7DE58" stroke="#000000" stroke-width="1.25" stroke-linecap="square" stroke-miterlimit="10" d="  M416.692,386.265c7.558,34.741,58.34,53.528,61.5,87c-45.634-31.771-74.028-89.744-120.752-119.25  c-40.586-25.63-9.249,14.035-32.25,23.25c-0.335,1.388-0.085,2.638,0.75,3.75c30.105-2.304-1.8-51.736,38.297-5.391  c26.469,30.594,52.938,61.188,79.408,91.781c8.002,9.249,18.387,26.453,31.547,29.859c82.682,21.401-22.419-107.631-22.5-112.5  C440.689,383.686,428.607,384.396,416.692,386.265z"/>
<path fill-rule="evenodd" clip-rule="evenodd" fill="#F7DE58" stroke="#000000" stroke-width="1.25" stroke-linecap="square" stroke-miterlimit="10" d="  M460.192,375.765c-6.819,8.417-53.245,19.451-53.252,2.25C406.934,361.437,452.637,366.747,460.192,375.765z"/>
<path fill-rule="evenodd" clip-rule="evenodd" fill="#F7DE58" stroke="#000000" stroke-width="1.25" stroke-linecap="square" stroke-miterlimit="10" d="  M491.692,460.515C504.977,498.488,456.127,445.372,491.692,460.515L491.692,460.515z"/>
<path fill-rule="evenodd" clip-rule="evenodd" fill="#F7DE58" stroke="#000000" stroke-width="1.25" stroke-linecap="square" stroke-miterlimit="10" d="  M462.442,453.015C469.518,486.925,432.156,442.07,462.442,453.015L462.442,453.015z"/>
<path fill-rule="evenodd" clip-rule="evenodd" fill="#F7DE58" stroke="#000000" stroke-width="1.25" stroke-linecap="square" stroke-miterlimit="10" d="  M448.192,440.265C452.495,465.271,425.536,437.888,448.192,440.265L448.192,440.265z"/>
<path fill-rule="evenodd" clip-rule="evenodd" fill="#F7DE58" stroke="#000000" stroke-width="1.25" stroke-linecap="square" stroke-miterlimit="10" d="  M436.192,429.015C434.817,448.951,417.156,427.954,436.192,429.015L436.192,429.015z"/>
<path fill-rule="evenodd" clip-rule="evenodd" fill="#F7DE58" stroke="#000000" stroke-width="1.25" stroke-linecap="square" stroke-miterlimit="10" d="  M425.692,419.265C422.117,430.877,415.055,424.328,425.692,419.265L425.692,419.265z"/>
<path fill-rule="evenodd" clip-rule="evenodd" fill="#F7DE58" stroke="#000000" stroke-width="1.25" stroke-linecap="square" stroke-miterlimit="10" d="  M417.442,411.015C410.823,418.086,412.407,416.395,417.442,411.015L417.442,411.015z"/>
<path fill-rule="evenodd" clip-rule="evenodd" fill="#F7DE58" stroke="#000000" stroke-width="1.25" stroke-linecap="square" stroke-miterlimit="10" d="  M409.94,402.765C403.176,409.904,405.751,407.187,409.94,402.765L409.94,402.765z"/>
<path fill-rule="evenodd" clip-rule="evenodd" fill="#F7DE58" stroke="#000000" stroke-width="1.25" stroke-linecap="square" stroke-miterlimit="10" d="  M402.44,395.265C396.262,400.826,396.958,400.199,402.44,395.265L402.44,395.265z"/>
<path fill-rule="evenodd" clip-rule="evenodd" fill="#F7DE58" stroke="#000000" stroke-width="1.25" stroke-linecap="square" stroke-miterlimit="10" d="  M394.94,387.765C389.688,392.675,389.61,392.747,394.94,387.765L394.94,387.765z"/>
<path fill-rule="evenodd" clip-rule="evenodd" fill="#F7DE58" stroke="#000000" stroke-width="1.25" stroke-linecap="square" stroke-miterlimit="10" d="  M387.44,379.515C381.868,387.124,383.791,384.498,387.44,379.515L387.44,379.515z"/>
<path fill-rule="evenodd" clip-rule="evenodd" fill="#F7DE58" stroke="#000000" stroke-width="1.25" stroke-linecap="square" stroke-miterlimit="10" d="  M379.94,373.515c-1.347,1.671,3.318,3.695-1.5,5.25C371.555,371.648,378.432,375.387,379.94,373.515z"/>
<path fill-rule="evenodd" clip-rule="evenodd" fill="#F7DE58" stroke="#000000" stroke-width="1.25" stroke-linecap="square" stroke-miterlimit="10" d="  M370.19,362.265C365.42,366.395,366.197,365.723,370.19,362.265L370.19,362.265z"/>
<path fill-rule="evenodd" clip-rule="evenodd" fill="#F7DE58" stroke="#000000" stroke-width="1.25" stroke-linecap="square" stroke-miterlimit="10" d="  M361.94,354.765C359.172,359.269,360.42,357.238,361.94,354.765L361.94,354.765z"/>
<path fill-rule="evenodd" clip-rule="evenodd" fill="#F7DE58" stroke="#000000" stroke-width="1.25" stroke-linecap="square" stroke-miterlimit="10" d="  M436.192,437.265C432.866,441.384,433.732,440.312,436.192,437.265L436.192,437.265z"/>
<path fill-rule="evenodd" clip-rule="evenodd" fill="#F7DE58" stroke="#000000" stroke-width="1.25" stroke-linecap="square" stroke-miterlimit="10" d="  M446.692,448.515c-1.298,1.86,2.127,5.303-3,3.75C441.526,447.246,445.559,450.141,446.692,448.515z"/>
<path fill-rule="evenodd" clip-rule="evenodd" fill="#F7DE58" stroke="#000000" stroke-width="1.25" stroke-linecap="square" stroke-miterlimit="10" d="  M453.442,456.765C449.717,461.384,450.911,459.904,453.442,456.765L453.442,456.765z"/>
<path fill-rule="evenodd" clip-rule="evenodd" fill="#F7DE58" stroke="#000000" stroke-width="1.25" stroke-linecap="square" stroke-miterlimit="10" d="  M471.442,456.765c8.008-15.461-14.976-44.063-31.5-34.5C450.442,433.765,460.942,445.265,471.442,456.765z"/>
<path fill-rule="evenodd" clip-rule="evenodd" fill="#F7DE58" stroke="#000000" stroke-width="1.25" stroke-linecap="square" stroke-miterlimit="10" d="  M455.692,424.515C453.412,448.057,434.611,421.671,455.692,424.515L455.692,424.515z"/>
<path fill-rule="evenodd" clip-rule="evenodd" fill="#F7DE58" stroke="#000000" stroke-width="1.25" stroke-linecap="square" stroke-miterlimit="10" d="  M469.192,439.515C473.952,466.581,443.024,436.388,469.192,439.515L469.192,439.515z"/>
<path fill-rule="evenodd" clip-rule="evenodd" fill="#F7DE58" stroke="#000000" stroke-width="1.25" stroke-linecap="square" stroke-miterlimit="10" d="  M454.942,424.515C448.832,430.744,449.885,429.671,454.942,424.515L454.942,424.515z"/>
<path fill-rule="evenodd" clip-rule="evenodd" fill="#F7DE58" stroke="#000000" stroke-width="1.25" stroke-linecap="square" stroke-miterlimit="10" d="  M469.942,441.765C464.497,449.131,466.692,446.162,469.942,441.765L469.942,441.765z"/>
</svg>