<svg xmlns="http://www.w3.org/2000/svg" xmlns:xlink="http://www.w3.org/1999/xlink" version="1.1" id="Layer_1" x="0px" y="0px" enable-background="new 0 0 822.05 841.89" xml:space="preserve" viewBox="310.87 343.64 199.34 156.7">
<path fill-rule="evenodd" clip-rule="evenodd" fill="#EED6B6" stroke="#000000" stroke-width="1.25" stroke-linecap="square" stroke-miterlimit="10" d="  M344.494,435.767c11.337-1.123,20.666-6.66,24-17.248c3.052,7.61,16.961-1.041,25.5,7.498c14.947,14.947,12.698,12.706,6.223,36.584  C389.026,503.868,322.845,472.936,344.494,435.767z"/>
<path fill-rule="evenodd" clip-rule="evenodd" fill="#15782A" stroke="#000000" stroke-width="1.25" stroke-linecap="square" stroke-miterlimit="10" d="  M339.994,468.767c-1.75,9.75-3.5,19.5-5.25,29.25c29,0,58.001,0,87.002,0c-0.751-9.25-1.501-18.5-2.252-27.75  c2.537,23.456,1.053,33.816,29.252,27.75c-4.677-23.271-11.007-62.317-38.627-66c-10.126-1.351-18.182,19.032-35.625,16.125  c-17.876-2.979-15.726-21.842-35.25-16.125c-21.749,6.368-25.341,48.192-27.75,66C337.577,504.329,335.695,489.723,339.994,468.767z  "/>
<path fill-rule="evenodd" clip-rule="evenodd" fill="#EED6B6" stroke="#000000" stroke-width="1.25" stroke-linecap="square" stroke-miterlimit="10" d="  M348.994,399.769C352.798,424.84,324.542,392.48,348.994,399.769L348.994,399.769z"/>
<path fill-rule="evenodd" clip-rule="evenodd" fill="#EED6B6" stroke="#000000" stroke-width="1.25" stroke-linecap="square" stroke-miterlimit="10" d="  M414.244,385.519C399.702,409.776,402.591,361.046,414.244,385.519L414.244,385.519z"/>
<path fill-rule="evenodd" clip-rule="evenodd" fill="#EED6B6" stroke="#000000" stroke-width="1.25" stroke-linecap="square" stroke-miterlimit="10" d="  M339.994,386.269c5.266,45.799,68.439,60.066,68.25,6C408.048,336.187,334.164,331.229,339.994,386.269z"/>
<path fill-rule="evenodd" clip-rule="evenodd" fill="#FFFFFF" stroke="#000000" stroke-width="1.25" stroke-linecap="square" stroke-miterlimit="10" d="  M462.246,344.269c-33.904,0.551-71.308,41.432-25.5,57.75c-8.088,5.892-13.868,9.165-24.002,9  c20.263,5.802,75.203-0.423,89.252-17.25C525.72,365.354,488.61,344.44,462.246,344.269z"/>
<path fill-rule="evenodd" clip-rule="evenodd" fill="#392270" stroke="#000000" stroke-width="1.25" stroke-linecap="square" stroke-miterlimit="10" d="  M339.994,468.767c-2,9.75-4,19.5-6,29.25C336.358,489.723,338.284,478.296,339.994,468.767z"/>
<path fill-rule="evenodd" clip-rule="evenodd" fill="#62221C" stroke="#000000" stroke-linecap="square" stroke-miterlimit="10" d="  M400.744,402.019c-8.625,4.741-13.737,8.665-24,5.25C383.197,428.894,399.676,421.676,400.744,402.019z"/>
</svg>