<svg xmlns="http://www.w3.org/2000/svg" xmlns:xlink="http://www.w3.org/1999/xlink" version="1.1" id="Layer_1" x="0px" y="0px" enable-background="new 0 0 822.05 841.89" xml:space="preserve" viewBox="313.6 333.39 194.75 177.51">
<path fill-rule="evenodd" clip-rule="evenodd" fill="#D2D1D2" stroke="#000000" stroke-width="1.25" stroke-linecap="square" stroke-miterlimit="10" d="  M361.479,465.268c15.894-3.493,36.987-10.272,37.5-27.75c-0.218,1.377-1.215,4.966-2.25,6c31.842-0.663,35.479-0.464,56.039,22.055  c9.824,10.761,20.696,22.207,33.961,28.195c-45.5,2.5-91,5-136.5,7.5C353.979,489.268,357.729,477.268,361.479,465.268z"/>
<path fill-rule="evenodd" clip-rule="evenodd" fill="#D2D1D2" stroke="#000000" stroke-width="1.25" stroke-linecap="square" stroke-miterlimit="10" d="  M367.479,410.518c3.678,12.208-4.169,23.747-13.5,9.75C344.467,406,356.629,397.31,367.479,410.518z"/>
<path fill-rule="evenodd" clip-rule="evenodd" fill="#D2D1D2" stroke="#000000" stroke-width="1.25" stroke-linecap="square" stroke-miterlimit="10" d="  M465.729,409.018c-6.617,13.896-18.216,12.258-15.75-4.5C452.426,387.885,467.314,393.826,465.729,409.018z"/>
<path fill-rule="evenodd" clip-rule="evenodd" fill="#D2D1D2" stroke="#000000" stroke-width="1.25" stroke-linecap="square" stroke-miterlimit="10" d="  M360.729,381.268c-10.735,61.056,70.197,114.61,91.125,37.875c7.8-28.599,6.721-62.718-20.625-79.125  C400.331,321.479,363.49,348.887,360.729,381.268z"/>
<path fill-rule="evenodd" clip-rule="evenodd" fill="#D2D1D2" stroke="#000000" stroke-width="1.25" stroke-linecap="square" stroke-miterlimit="10" d="  M482.979,463.018c-26.333-8.361-22.509-1.707-39.375,12.75c-11.861,10.167-30.422,12.506-44.625,6  c-21.716-9.947-16.959-32.029-45-22.5c-21.333,7.249-25.562,27.871-31.5,48c61.75,0,123.5,0,185.25,0  C502.044,491.552,495.223,474.614,482.979,463.018z"/>
<path fill-rule="evenodd" clip-rule="evenodd" fill="#F8130D" d="M452.229,452.518c-14.632,11.043-33.188,17.956-51,21.75  C418.229,467.018,435.229,459.768,452.229,452.518z"/>
<path fill="none" stroke="#000000" stroke-width="1.25" stroke-linecap="square" stroke-miterlimit="10" d="M452.229,452.518  c-14.632,11.043-33.188,17.956-51,21.75"/>
<path fill-rule="evenodd" clip-rule="evenodd" fill="#F8130D" d="M357.729,455.518c8.778,9.726,20.706,15.814,33.75,17.25  C380.229,467.018,368.979,461.268,357.729,455.518z"/>
<path fill="none" stroke="#000000" stroke-width="1.25" stroke-linecap="square" stroke-miterlimit="10" d="M357.729,455.518  c8.778,9.726,20.706,15.814,33.75,17.25"/>
<path fill-rule="evenodd" clip-rule="evenodd" fill="#CECCCC" stroke="#000000" stroke-width="1.25" stroke-linecap="square" stroke-miterlimit="10" d="  M393.729,463.018c2.831,4.62-2.067,6.725,3.75,9.75C402.014,461.161,394.848,464.844,393.729,463.018z"/>
<path fill="none" stroke="#000000" stroke-width="1.25" stroke-linecap="square" stroke-miterlimit="10" d="M373.479,427.768  c22.629,8.086,45.996,9.632,69,2.25"/>
<path fill-rule="evenodd" clip-rule="evenodd" fill="#F8130D" stroke="#000000" stroke-width="1.25" stroke-linecap="square" stroke-miterlimit="10" d="  M349.479,499.768c7.243-17.535,12.493-35.79,26.25-49.5c-40.216-3.352-55.54,18.363-61.5,57.75c13,0,26,0,39,0  C352.737,504.552,351.125,502.591,349.479,499.768z"/>
<path fill-rule="evenodd" clip-rule="evenodd" fill="#F8130D" stroke="#000000" stroke-width="1.25" stroke-linecap="square" stroke-miterlimit="10" d="  M491.979,490.018c2.147-21.395-12.81-32.646-22.875-48.75c-19.724-31.558-28.028,52.425-28.875,66.75  C458.702,508.018,500.922,519.678,491.979,490.018z"/>
<path fill="none" stroke="#000000" stroke-width="1.25" stroke-linecap="square" stroke-miterlimit="10" d="M349.479,499.768  c-1,2.5-2,5-3,7.5"/>
<path fill-rule="evenodd" clip-rule="evenodd" fill="#F8130D" stroke="#000000" stroke-width="1.25" stroke-linecap="square" stroke-miterlimit="10" d="  M351.729,438.268c-15.759,36.802,65.064,46.531,85.5,43.125c9.119-1.52,21.587-18.465,17.25-28.125  C446.378,435.224,365.544,433.675,351.729,438.268z"/>
<path fill-rule="evenodd" clip-rule="evenodd" fill="#F8130D" stroke="#000000" stroke-width="1.25" stroke-linecap="square" stroke-miterlimit="10" d="  M359.229,411.268c11.614,19.322,122.431,1.683,101.25,37.5c-8.242,13.938-71.301,2.303-84.75-1.5  C349.644,439.892,347.043,432.705,359.229,411.268z"/>
<path fill="none" stroke="#000000" stroke-width="1.25" stroke-linecap="square" stroke-miterlimit="10" d="M362.979,430.018  c21.364,3.018,43.652,8.838,65.25,6c-1.25,0.25-2.5,0.5-3.75,0.75c12.204-3.189,24.491-4.409,35.25,1.5"/>
<path fill="none" stroke="#000000" stroke-width="1.25" stroke-linecap="square" stroke-miterlimit="10" d="M369.729,449.518  c25.805,14.792,59.781,26.368,86.25,6.75"/>
<path fill="none" stroke="#000000" stroke-width="1.25" stroke-linecap="square" stroke-miterlimit="10" d="M355.479,424.018  c2.083,3.784,5.512,5.944,9.75,6"/>
<path fill="none" stroke="#000000" stroke-width="1.25" stroke-linecap="square" stroke-miterlimit="10" d="M475.479,453.268  c-1.019,8.984-4.438,17.792-9.75,24.75"/>
</svg>