<svg xmlns="http://www.w3.org/2000/svg" xmlns:xlink="http://www.w3.org/1999/xlink" version="1.1" id="Layer_1" x="0px" y="0px" enable-background="new 0 0 822.05 841.89" xml:space="preserve" viewBox="226.29 260.57 368.83 325.11">
<path fill-rule="evenodd" clip-rule="evenodd" fill="#EAB649" stroke="#000000" stroke-width="2" stroke-linecap="square" stroke-miterlimit="10" d="  M240.75,512.14c-20.764-36.576-15.097-83.283,0.75-121.5c8.915-21.5,9.608-50.636,24-68.625c63.688-79.609,164.11-71.1,246-28.875  c32.505,16.761,60.264,32.047,70.5,67.875c5.811,20.338-2.905,39.387-0.75,58.875c2.036,18.413,16.541,33.188,12,53.625  c-7.709,34.69-54.116,70.074-83.25,86.625c-44.145,25.077-97.146,30.915-146.028,17.583  C318.538,565.333,277.969,540.536,240.75,512.14z"/>
<path fill-rule="evenodd" clip-rule="evenodd" fill="#EAB649" d="M231.75,424.39c100.152,117.342,245.657,83.995,349.5-4.5  C464.75,421.39,348.25,422.89,231.75,424.39z"/>
<path fill="none" stroke="#000000" stroke-width="2" stroke-linecap="square" stroke-miterlimit="10" d="M231.75,424.39  c100.152,117.342,245.657,83.995,349.5-4.5"/>
<path fill-rule="evenodd" clip-rule="evenodd" fill="#EAB649" d="M255,367.39c98.163,50.011,239.668,66.844,324-18.75  C471,354.89,363,361.14,255,367.39z"/>
<path fill="none" stroke="#000000" stroke-width="2" stroke-linecap="square" stroke-miterlimit="10" d="M255,367.39  c98.163,50.011,239.668,66.844,324-18.75"/>
<path fill="none" stroke="#000000" stroke-width="2" stroke-linecap="square" stroke-miterlimit="10" d="M297.75,473.89  c-8.921-18.386-9.932-41.41,2.25-58.5"/>
<path fill="none" stroke="#000000" stroke-width="2" stroke-linecap="square" stroke-miterlimit="10" d="M361.5,500.14  c-12.762-17.68-15.462-39.276-6.75-59.25"/>
<path fill="none" stroke="#000000" stroke-width="2" stroke-linecap="square" stroke-miterlimit="10" d="M441.75,438.64  c8.521,19.704,8.801,43.133-6.75,59.25"/>
<path fill="none" stroke="#000000" stroke-width="2" stroke-linecap="square" stroke-miterlimit="10" d="M508.5,417.64  c7.727,19.258,8.647,44.062-7.5,59.25"/>
<path fill="none" stroke="#000000" stroke-width="2" stroke-linecap="square" stroke-miterlimit="10" d="M531.75,459.64  c10.188,14.598,16.588,35.058,4.5,50.25"/>
<path fill="none" stroke="#000000" stroke-width="2" stroke-linecap="square" stroke-miterlimit="10" d="M276.75,467.14  c-9.072,12.206-8.304,28.252-5.25,42.75"/>
<path fill="none" stroke="#000000" stroke-width="2" stroke-linecap="square" stroke-miterlimit="10" d="M345,495.64  c-13.405,11.877-20.1,30.688-12,47.25"/>
<path fill="none" stroke="#000000" stroke-width="2" stroke-linecap="square" stroke-miterlimit="10" d="M453.75,493.39  c16.025,9.293,17.829,28.873,12,45"/>
</svg>