<svg xmlns="http://www.w3.org/2000/svg" xmlns:xlink="http://www.w3.org/1999/xlink" version="1.1" id="Layer_1" x="0px" y="0px" enable-background="new 0 0 822.05 841.89" xml:space="preserve" viewBox="196.91 335.25 430.4 166.56">
<path fill-rule="evenodd" clip-rule="evenodd" fill="#DEDFE0" stroke="#000000" stroke-width="2" stroke-linecap="square" stroke-miterlimit="10" d="  M238.264,339.141c-15.159,7.959-44.98,35.875-39.75,57c5.535,22.354,68.66,38.125,87.417,46.723  c24.869,11.397,63.513,34.231,91.833,31.277c11.483-1.198,15.251-6.908,24.75-11.25c6.415-2.933,6.669-13.564,14.762-12.126  c14.842,2.639,29.482,12.014,33.99-5.124c-10.5-2-21-4-31.5-6C447.12,348.053,301.666,327.688,238.264,339.141z"/>
<path fill="none" stroke="#000000" stroke-width="2" stroke-linecap="square" stroke-miterlimit="10" d="M198.514,396.141  c69.4-27.68,164.458,87.613,216.002-13.5"/>
<path fill="none" stroke="#000000" stroke-width="2" stroke-linecap="square" stroke-miterlimit="10" d="M232.264,345.891  c40.232,11.976,133.964,26.996,156,66"/>
<path fill-rule="evenodd" clip-rule="evenodd" fill="#BE6E29" stroke="#000000" stroke-width="2" stroke-linecap="square" stroke-miterlimit="10" d="  M443.016,464.391c-20.883-40.513,38.984-18.568,51.75-15c39.772,11.118,82.467-2.275,118.5,24.75  c45.757,34.317-42.457,27.408-56.944,22.833c-19.6-6.189-38.151-18.29-58.889-19.277  C478.771,476.808,457.703,477.63,443.016,464.391z"/>
</svg>