<svg xmlns="http://www.w3.org/2000/svg" xmlns:xlink="http://www.w3.org/1999/xlink" version="1.1" id="Layer_1" x="0px" y="0px" enable-background="new 0 0 822.05 841.89" xml:space="preserve" viewBox="197.84 269 425.19 302.98">
<path fill-rule="evenodd" clip-rule="evenodd" fill="#DEDFE0" stroke="#000000" stroke-width="2" stroke-linecap="square" stroke-miterlimit="10" d="  M333.842,271.89c-63.003,34.414-8.468,58.668,28.5,76.125c19.779,9.34,52.767,29.758,75.75,26.625  c7.883-1.075,12.85-1.619,18.375-8.25c12.699-15.239,30.117,3.482,37.125-12c-8.035-0.438-15.963-5.109-24-5.25  C490.106,280.854,381.353,263.69,333.842,271.89z"/>
<path fill="none" stroke="#000000" stroke-width="2" stroke-linecap="square" stroke-miterlimit="10" d="M303.092,314.64  c51.608-18.074,125.133,66.307,162.75-8.25"/>
<path fill="none" stroke="#000000" stroke-width="2" stroke-linecap="square" stroke-miterlimit="10" d="M329.342,277.14  c29.422,9.415,101.665,21.545,116.25,51"/>
<path fill-rule="evenodd" clip-rule="evenodd" fill="#BE6E29" stroke="#000000" stroke-width="2" stroke-linecap="square" stroke-miterlimit="10" d="  M486.842,367.89c-13.196-33.701,32.84-11.853,44.25-9c23.801,5.95,70.55-6.338,86.25,19.5c20.509,33.751-31.916,18.439-47.625,14.25  C548.065,386.866,503.63,381.88,486.842,367.89z"/>
<path fill-rule="evenodd" clip-rule="evenodd" fill="#DEDFE0" stroke="#000000" stroke-width="2" stroke-linecap="square" stroke-miterlimit="10" d="  M228.842,337.89c-63.648,33.148-6.251,59.972,29.25,75.75c19.731,8.77,53.221,29.267,75.75,26.25  c7.436-0.996,13.583-2.598,18.75-8.625c12.621-14.724,31.005,2.604,36.75-12.375c-41.199,1.225-5.709-39.979-36.75-55.5  C314.963,344.576,271.361,330.238,228.842,337.89z"/>
<path fill="none" stroke="#000000" stroke-width="2" stroke-linecap="square" stroke-miterlimit="10" d="M198.842,381.39  c52.674-24.666,120.333,65.784,162.75-10.5"/>
<path fill="none" stroke="#000000" stroke-width="2" stroke-linecap="square" stroke-miterlimit="10" d="M224.342,343.14  c29.412,7.507,102.079,21.871,117,50.25"/>
<path fill-rule="evenodd" clip-rule="evenodd" fill="#BE6E29" stroke="#000000" stroke-width="2" stroke-linecap="square" stroke-miterlimit="10" d="  M383.342,432.39c-14.271-32,29.541-12.57,40.5-10.5c23.492,4.438,75.215-4.845,90,19.5c20.155,33.189-32.899,19.314-48,15  C444.421,450.27,399.604,446.567,383.342,432.39z"/>
<path fill-rule="evenodd" clip-rule="evenodd" fill="#DEDFE0" stroke="#000000" stroke-width="2" stroke-linecap="square" stroke-miterlimit="10" d="  M252.092,442.89c-65.161,35.636-3.441,61.277,32.982,78.012c18.982,8.722,49.405,27.394,71.268,24.738  c7.625-0.926,13.361-1.588,18.75-7.875c12.621-14.725,31.005,2.604,36.75-12.375c-7.717,0.188-15.52-5.108-23.25-5.25  C409.53,450.442,299.457,438.203,252.092,442.89z"/>
<path fill="none" stroke="#000000" stroke-width="2" stroke-linecap="square" stroke-miterlimit="10" d="M222.092,486.39  c53.743-23.516,118.309,65.926,162.75-9"/>
<path fill="none" stroke="#000000" stroke-width="2" stroke-linecap="square" stroke-miterlimit="10" d="M247.592,448.14  c32.25,10.475,97.615,21.425,117,51"/>
<path fill-rule="evenodd" clip-rule="evenodd" fill="#BE6E29" stroke="#000000" stroke-width="2" stroke-linecap="square" stroke-miterlimit="10" d="  M405.842,538.89c-14.023-32.199,30.233-11.873,41.25-9.75c24.423,4.705,72.552-4.455,88.5,20.25  c20.886,32.354-31.362,20.299-47.25,14.625C465.482,555.851,423.269,554.49,405.842,538.89z"/>
</svg>