<svg xmlns="http://www.w3.org/2000/svg" xmlns:xlink="http://www.w3.org/1999/xlink" version="1.1" id="Layer_1" x="0px" y="0px" enable-background="new 0 0 822.05 841.89" xml:space="preserve" viewBox="296.75 248.38 227.75 346.25">
<path fill-rule="evenodd" clip-rule="evenodd" fill="#00A3B4" stroke="#000000" stroke-width="2" stroke-linecap="square" stroke-miterlimit="10" d="  M456,542.673c-38.574-26.862-92.65-24.763-137.25-21c13.564,20.578,63.36,30.447,87.75,33.75  C416.563,556.786,472.635,560.544,456,542.673z"/>
<path fill-rule="evenodd" clip-rule="evenodd" fill="#6D6F71" stroke="#000000" stroke-width="2" stroke-linecap="square" stroke-miterlimit="10" d="  M339.75,523.923c-1.882,26.511-41.838,27.44-42,0C297.587,496.316,338.207,496.421,339.75,523.923z"/>
<path fill-rule="evenodd" clip-rule="evenodd" fill="#6D6F71" stroke="#000000" stroke-width="2" stroke-linecap="square" stroke-miterlimit="10" d="  M523.5,544.173c-3.325,17.642-28.133,19.609-28.5,0C494.623,524.042,520.33,525.758,523.5,544.173z"/>
<path fill-rule="evenodd" clip-rule="evenodd" fill="#BCBEC0" d="M485.25,517.173c-3,1.25-6,2.5-9,3.75  c-12.72-83.549-25.438-167.098-38.158-250.646c-0.433-2.843,62.29-35.734-4.738-12.846c-44.452,15.179-47.546,31.172,1.646,12.993  c-14.52,36.768,12.824,118.345,18.296,158.221c3.904,28.457,7.808,56.914,11.712,85.372c1.036,7.547-19.798,35.341-24.758,45.907  c12.282,0.461,50.487,8.844,60,2.25C522.283,546.902,497.987,532.741,485.25,517.173z"/>
<path fill="none" stroke="#000000" stroke-width="2" stroke-linecap="square" stroke-miterlimit="10" d="M485.25,517.173  c-3,1.25-6,2.5-9,3.75c-12.72-83.549-25.438-167.098-38.158-250.646c-0.433-2.843,62.29-35.734-4.738-12.846  c-44.452,15.179-47.546,31.172,1.646,12.993c-14.52,36.768,12.824,118.345,18.296,158.221c3.904,28.457,7.808,56.914,11.712,85.372  c1.036,7.547-19.798,35.341-24.758,45.907c12.282,0.461,50.487,8.844,60,2.25C522.283,546.902,497.987,532.741,485.25,517.173z"/>
<path fill-rule="evenodd" clip-rule="evenodd" fill="#6D6F71" stroke="#000000" stroke-width="2" stroke-linecap="square" stroke-miterlimit="10" d="  M496.5,573.423c-0.528,26.898-39,26.984-39,0S495.972,546.525,496.5,573.423z"/>
</svg>