<svg xmlns="http://www.w3.org/2000/svg" xmlns:xlink="http://www.w3.org/1999/xlink" version="1.1" id="Layer_1" x="0px" y="0px" enable-background="new 0 0 822.05 841.89" xml:space="preserve" viewBox="202.43 317.75 414.07 204.29">
<path fill-rule="evenodd" clip-rule="evenodd" fill="#BCBEC0" stroke="#000000" stroke-width="2" stroke-linecap="square" stroke-miterlimit="10" d="  M615.5,517.47c-111.375,0-222.75,0-334.125,0c-29.399,0-74.625,15.664-74.625-18.644c0-33.266,0-66.531,0-99.797  c0-9.864-7.464-67.651,0-74.311c15.056-13.433,103.349,0,122.84,0c70.428,0,140.856,0,211.285,0  c29.398,0,74.625-15.665,74.625,18.644C615.5,401.398,615.5,459.434,615.5,517.47z"/>
<path fill-rule="evenodd" clip-rule="evenodd" fill="#FFFBCE" stroke="#000000" stroke-width="2" stroke-linecap="square" stroke-miterlimit="10" d="  M352.25,462.72c-20.317,0-104.865,12.827-117.75,0c-5.55-5.525-5.55-112.977,0-118.502c5.575-5.55,112.175-5.55,117.75,0  C365.119,357.03,352.25,442.384,352.25,462.72z"/>
<path fill-rule="evenodd" clip-rule="evenodd" fill="#FFFBCE" stroke="#000000" stroke-width="2" stroke-linecap="square" stroke-miterlimit="10" d="  M455.75,440.97c-9.319,0-82.5,1.533-82.5-1.454c0-17.218-10.813-86.985,0-98.298c5.65-5.912,82.5,2.644,82.5,1.454  C455.75,375.438,455.75,408.204,455.75,440.97z"/>
<path fill-rule="evenodd" clip-rule="evenodd" fill="#FFFBCE" stroke="#000000" stroke-width="2" stroke-linecap="square" stroke-miterlimit="10" d="  M593,462.72c-22.472,0-102.713,13.466-118.5,0c-5.063-4.319-5.063-117.183,0-121.502c7.27-6.2,111.23-6.2,118.5,0  C605.372,351.771,593,443.724,593,462.72z"/>
<path fill-rule="evenodd" clip-rule="evenodd" fill="#B9B8B9" stroke="#000000" stroke-width="2" stroke-linecap="square" stroke-miterlimit="10" d="  M266,350.968c-10.094,9.956-11.726-4.945-9-17.25C260.257,319.013,268.479,342.343,266,350.968z"/>
<path fill-rule="evenodd" clip-rule="evenodd" fill="#B9B8B9" stroke="#000000" stroke-width="2" stroke-linecap="square" stroke-miterlimit="10" d="  M325.25,350.968c-10.278,8.823-12.669-5.936-9-18C321.01,317.316,326.887,344.508,325.25,350.968z"/>
<path fill-rule="evenodd" clip-rule="evenodd" fill="#B9B8B9" stroke="#000000" stroke-width="2" stroke-linecap="square" stroke-miterlimit="10" d="  M395,349.468c-10.946,8.27-13.068-5.71-9.75-18C389.394,316.121,397.282,341.856,395,349.468z"/>
<path fill-rule="evenodd" clip-rule="evenodd" fill="#B9B8B9" stroke="#000000" stroke-width="2" stroke-linecap="square" stroke-miterlimit="10" d="  M445.25,348.718c-11.171,8.403-12.621-5.672-9.75-18C439.039,315.52,447.853,340.053,445.25,348.718z"/>
<path fill-rule="evenodd" clip-rule="evenodd" fill="#B9B8B9" stroke="#000000" stroke-width="2" stroke-linecap="square" stroke-miterlimit="10" d="  M511.25,347.218c-10.678,9.838-12.677-4.717-9.75-17.25C505.134,314.408,513.598,338.878,511.25,347.218z"/>
<path fill-rule="evenodd" clip-rule="evenodd" fill="#B9B8B9" stroke="#000000" stroke-width="2" stroke-linecap="square" stroke-miterlimit="10" d="  M569,348.718c-11.171,8.403-12.621-5.672-9.75-18C562.789,315.52,571.603,340.053,569,348.718z"/>
<text transform="matrix(1 0 0 1 251.0186 430.4937)"><tspan x="0" y="0" font-family="'ArialMT'" font-size="81" letter-spacing="-41">2</tspan><tspan x="3.819" y="0" font-family="'ArialMT'" font-size="81">1</tspan></text>
<text transform="matrix(1 0 0 1 395.7451 421.4702)" font-family="'ArialMT'" font-size="69">3</text>
<text transform="matrix(1 0 0 1 487.2686 430.4937)"><tspan x="0" y="0" font-family="'ArialMT'" font-size="81" letter-spacing="-37">1</tspan><tspan x="7.545" y="0" font-family="'ArialMT'" font-size="81">1</tspan></text>
</svg>