<svg xmlns="http://www.w3.org/2000/svg" xmlns:xlink="http://www.w3.org/1999/xlink" version="1.1" id="Layer_1" x="0px" y="0px" enable-background="new 0 0 822.05 841.89" xml:space="preserve" viewBox="212.9 247.8 395.75 342.09">
<path fill-rule="evenodd" clip-rule="evenodd" fill="#B9B8B9" d="M607.651,582.89c-34.5,0-69,0-103.5,0  c3.181-16.772,4.293-76.913,16.5-87c12.153-10.043,68.614-1.204,85.5-1.5C606.651,523.89,607.151,553.39,607.651,582.89z"/>
<path fill="none" stroke="#010101" stroke-width="2" stroke-linecap="square" stroke-miterlimit="10" d="M607.651,582.89  c-34.5,0-69,0-103.5,0c3.181-16.772,4.293-76.913,16.5-87c12.153-10.043,68.614-1.204,85.5-1.5  C606.651,523.89,607.151,553.39,607.651,582.89z"/>
<path fill-rule="evenodd" clip-rule="evenodd" fill="#B9B8B9" d="M534.151,518.39c-0.907,13.661-1.662,39.031,12,48  c10.561,6.933,27.59,5.929,32.625-7.5C589.322,530.766,547.843,485.087,534.151,518.39z"/>
<path fill="none" stroke="#010101" stroke-width="2" stroke-linecap="square" stroke-miterlimit="10" d="M534.151,518.39  c-0.907,13.661-1.662,39.031,12,48c10.561,6.933,27.59,5.929,32.625-7.5C589.322,530.766,547.843,485.087,534.151,518.39z"/>
<path fill="none" stroke="#010101" stroke-width="2" stroke-linecap="square" stroke-miterlimit="10" d="M534.151,536.39  c8.845-12.449,23.067-19.668,38.25-16.5"/>
<path fill-rule="evenodd" clip-rule="evenodd" fill="#C0BFBF" d="M554.401,521.39c0.333,2.595,2.604,4.8,3,7.5  c-0.646,1.354-1.646,1.854-3,1.5c-2.386-5.514-3.644-10.687-5.25-16.5C552.23,515.333,552.159,518.292,554.401,521.39z"/>
<path fill="none" stroke="#010101" stroke-width="2" stroke-linecap="square" stroke-miterlimit="10" d="M554.401,521.39  c0.333,2.595,2.604,4.8,3,7.5c-0.646,1.354-1.646,1.854-3,1.5c-2.386-5.514-3.644-10.687-5.25-16.5  C552.23,515.333,552.159,518.292,554.401,521.39z"/>
<path fill-rule="evenodd" clip-rule="evenodd" fill="#B9B8B9" d="M234.151,507.89c-19.783,13.273-16.708,54.738-20.25,76.5  c3.5,0.5,7,1,10.5,1.5C227.651,559.89,230.901,533.89,234.151,507.89z"/>
<path fill="none" stroke="#010101" stroke-width="2" stroke-linecap="square" stroke-miterlimit="10" d="M234.151,507.89  c-19.783,13.273-16.708,54.738-20.25,76.5c3.5,0.5,7,1,10.5,1.5C227.651,559.89,230.901,533.89,234.151,507.89z"/>
<path fill-rule="evenodd" clip-rule="evenodd" fill="#B9B8B9" d="M480.901,507.89c16.571,16.583,1.353,60.08-1.5,81  C460.486,570.899,477.428,530.22,480.901,507.89z"/>
<path fill="none" stroke="#010101" stroke-width="2" stroke-linecap="square" stroke-miterlimit="10" d="M480.901,507.89  c16.571,16.583,1.353,60.08-1.5,81C460.486,570.899,477.428,530.22,480.901,507.89z"/>
<path fill-rule="evenodd" clip-rule="evenodd" fill="#B9B8B9" d="M468.901,575.39c-82,0-164,0-246,0  c2-12.004,2.465-60.862,11.25-67.5c9.444-7.137,52.001,0,63.389,0c60.371,0,120.741,0,181.111,0  C475.401,530.39,472.151,552.89,468.901,575.39z"/>
<path fill="none" stroke="#010101" stroke-width="2" stroke-linecap="square" stroke-miterlimit="10" d="M468.901,575.39  c-82,0-164,0-246,0c2-12.004,2.465-60.862,11.25-67.5c9.444-7.137,52.001,0,63.389,0c60.371,0,120.741,0,181.111,0  C475.401,530.39,472.151,552.89,468.901,575.39z"/>
<path fill-rule="evenodd" clip-rule="evenodd" fill="#F4F4F4" d="M240.901,555.89c2.465-1.139,6.162,5.051,6.75-4.5  C240.247,549.437,243.849,554.529,240.901,555.89z"/>
<path fill="none" stroke="#010101" stroke-linecap="square" stroke-miterlimit="10" d="M240.901,555.89  c2.465-1.139,6.162,5.051,6.75-4.5C240.247,549.437,243.849,554.529,240.901,555.89z"/>
<path fill-rule="evenodd" clip-rule="evenodd" fill="#F4F4F4" d="M261.151,555.89c4.097-1.619,8.217,5.845,8.25-4.5  C262.119,549.393,264.977,554.377,261.151,555.89z"/>
<path fill="none" stroke="#010101" stroke-linecap="square" stroke-miterlimit="10" d="M261.151,555.89  c4.097-1.619,8.217,5.845,8.25-4.5C262.119,549.393,264.977,554.377,261.151,555.89z"/>
<path fill-rule="evenodd" clip-rule="evenodd" fill="#F4F4F4" d="M250.651,555.89c3.66-1.371,7.819,5.548,7.5-4.5  C250.268,549.027,253.714,554.743,250.651,555.89z"/>
<path fill="none" stroke="#010101" stroke-linecap="square" stroke-miterlimit="10" d="M250.651,555.89  c3.66-1.371,7.819,5.548,7.5-4.5C250.268,549.027,253.714,554.743,250.651,555.89z"/>
<path fill-rule="evenodd" clip-rule="evenodd" fill="#F4F4F4" d="M272.401,555.89c2.995-1.201,7.002,5.561,7.5-4.5  C272.1,549.128,275.646,554.589,272.401,555.89z"/>
<path fill="none" stroke="#010101" stroke-linecap="square" stroke-miterlimit="10" d="M272.401,555.89  c2.995-1.201,7.002,5.561,7.5-4.5C272.1,549.128,275.646,554.589,272.401,555.89z"/>
<path fill-rule="evenodd" clip-rule="evenodd" fill="#F4F4F4" d="M293.401,555.89c-1.411,0.444,5.947,1.834,7.5,1.5  C299.604,545.452,297.272,554.672,293.401,555.89z"/>
<path fill="none" stroke="#010101" stroke-linecap="square" stroke-miterlimit="10" d="M293.401,555.89  c-1.411,0.444,5.947,1.834,7.5,1.5C299.604,545.452,297.272,554.672,293.401,555.89z"/>
<path fill-rule="evenodd" clip-rule="evenodd" fill="#F4F4F4" d="M282.901,555.89c3.307-1.27,6.447,5.352,8.25-4.5  C284.218,549.604,285.462,554.907,282.901,555.89z"/>
<path fill="none" stroke="#010101" stroke-linecap="square" stroke-miterlimit="10" d="M282.901,555.89  c3.307-1.27,6.447,5.352,8.25-4.5C284.218,549.604,285.462,554.907,282.901,555.89z"/>
<path fill-rule="evenodd" clip-rule="evenodd" fill="#F4F4F4" d="M304.651,555.89c2.47-1.136,6.163,5.049,6.75-4.5  C304.728,549.734,307.213,554.712,304.651,555.89z"/>
<path fill="none" stroke="#010101" stroke-linecap="square" stroke-miterlimit="10" d="M304.651,555.89  c2.47-1.136,6.163,5.049,6.75-4.5C304.728,549.734,307.213,554.712,304.651,555.89z"/>
<path fill-rule="evenodd" clip-rule="evenodd" fill="#F4F4F4" d="M324.901,555.89c4.097-1.619,8.217,5.845,8.25-4.5  C325.869,549.393,328.727,554.377,324.901,555.89z"/>
<path fill="none" stroke="#010101" stroke-linecap="square" stroke-miterlimit="10" d="M324.901,555.89  c4.097-1.619,8.217,5.845,8.25-4.5C325.869,549.393,328.727,554.377,324.901,555.89z"/>
<path fill-rule="evenodd" clip-rule="evenodd" fill="#F4F4F4" d="M314.401,555.89c3.509-1.512,7.823,5.661,7.5-4.5  C314.098,549.128,317.682,554.477,314.401,555.89z"/>
<path fill="none" stroke="#010101" stroke-linecap="square" stroke-miterlimit="10" d="M314.401,555.89  c3.509-1.512,7.823,5.661,7.5-4.5C314.098,549.128,317.682,554.477,314.401,555.89z"/>
<path fill-rule="evenodd" clip-rule="evenodd" fill="#F4F4F4" d="M336.151,555.89c2.995-1.201,7.002,5.561,7.5-4.5  C335.85,549.128,339.396,554.589,336.151,555.89z"/>
<path fill="none" stroke="#010101" stroke-linecap="square" stroke-miterlimit="10" d="M336.151,555.89  c2.995-1.201,7.002,5.561,7.5-4.5C335.85,549.128,339.396,554.589,336.151,555.89z"/>
<path fill-rule="evenodd" clip-rule="evenodd" fill="#F4F4F4" d="M346.651,555.89c2.899-1.015,5.403,4.843,8.25-3  C348.083,548.343,349.506,554.891,346.651,555.89z"/>
<path fill="none" stroke="#010101" stroke-linecap="square" stroke-miterlimit="10" d="M346.651,555.89  c2.899-1.015,5.403,4.843,8.25-3C348.083,548.343,349.506,554.891,346.651,555.89z"/>
<path fill-rule="evenodd" clip-rule="evenodd" fill="#F4F4F4" d="M247.651,546.89c2.899-1.015,5.403,4.843,8.25-3  C249.083,539.343,250.506,545.891,247.651,546.89z"/>
<path fill="none" stroke="#010101" stroke-linecap="square" stroke-miterlimit="10" d="M247.651,546.89  c2.899-1.015,5.403,4.843,8.25-3C249.083,539.343,250.506,545.891,247.651,546.89z"/>
<path fill-rule="evenodd" clip-rule="evenodd" fill="#F4F4F4" d="M269.401,546.89c2.47-1.136,6.163,5.049,6.75-4.5  C269.478,540.734,271.963,545.712,269.401,546.89z"/>
<path fill="none" stroke="#010101" stroke-linecap="square" stroke-miterlimit="10" d="M269.401,546.89  c2.47-1.136,6.163,5.049,6.75-4.5C269.478,540.734,271.963,545.712,269.401,546.89z"/>
<path fill-rule="evenodd" clip-rule="evenodd" fill="#F4F4F4" d="M258.151,546.89c2.73-1.164,6.664,5.243,6.75-4.5  C257.59,540.512,260.981,545.683,258.151,546.89z"/>
<path fill="none" stroke="#010101" stroke-linecap="square" stroke-miterlimit="10" d="M258.151,546.89  c2.73-1.164,6.664,5.243,6.75-4.5C257.59,540.512,260.981,545.683,258.151,546.89z"/>
<path fill-rule="evenodd" clip-rule="evenodd" fill="#F4F4F4" d="M279.151,546.89c3.66-1.371,7.819,5.548,7.5-4.5  C278.768,540.027,282.214,545.743,279.151,546.89z"/>
<path fill="none" stroke="#010101" stroke-linecap="square" stroke-miterlimit="10" d="M279.151,546.89  c3.66-1.371,7.819,5.548,7.5-4.5C278.768,540.027,282.214,545.743,279.151,546.89z"/>
<path fill-rule="evenodd" clip-rule="evenodd" fill="#F4F4F4" d="M300.901,546.89c2.995-1.201,7.002,5.561,7.5-4.5  C300.6,540.128,304.146,545.589,300.901,546.89z"/>
<path fill="none" stroke="#010101" stroke-linecap="square" stroke-miterlimit="10" d="M300.901,546.89  c2.995-1.201,7.002,5.561,7.5-4.5C300.6,540.128,304.146,545.589,300.901,546.89z"/>
<path fill-rule="evenodd" clip-rule="evenodd" fill="#F4F4F4" d="M289.651,546.89c4.097-1.619,8.217,5.845,8.25-4.5  C290.619,540.393,293.477,545.377,289.651,546.89z"/>
<path fill="none" stroke="#010101" stroke-linecap="square" stroke-miterlimit="10" d="M289.651,546.89  c4.097-1.619,8.217,5.845,8.25-4.5C290.619,540.393,293.477,545.377,289.651,546.89z"/>
<path fill-rule="evenodd" clip-rule="evenodd" fill="#F4F4F4" d="M311.401,546.89c2.211-0.914,5.419,4.442,8.25-3  C312.863,539.363,314.343,545.674,311.401,546.89z"/>
<path fill="none" stroke="#010101" stroke-linecap="square" stroke-miterlimit="10" d="M311.401,546.89  c2.211-0.914,5.419,4.442,8.25-3C312.863,539.363,314.343,545.674,311.401,546.89z"/>
<path fill-rule="evenodd" clip-rule="evenodd" fill="#F4F4F4" d="M333.151,546.89c2.47-1.136,6.163,5.049,6.75-4.5  C333.228,540.734,335.713,545.712,333.151,546.89z"/>
<path fill="none" stroke="#010101" stroke-linecap="square" stroke-miterlimit="10" d="M333.151,546.89  c2.47-1.136,6.163,5.049,6.75-4.5C333.228,540.734,335.713,545.712,333.151,546.89z"/>
<path fill-rule="evenodd" clip-rule="evenodd" fill="#F4F4F4" d="M321.901,546.89c2.922-1.176,6.832,5.181,7.5-4.5  C322.004,540.417,324.637,545.789,321.901,546.89z"/>
<path fill="none" stroke="#010101" stroke-linecap="square" stroke-miterlimit="10" d="M321.901,546.89  c2.922-1.176,6.832,5.181,7.5-4.5C322.004,540.417,324.637,545.789,321.901,546.89z"/>
<path fill-rule="evenodd" clip-rule="evenodd" fill="#F4F4F4" d="M342.901,546.89c3.73-1.529,7.969,5.639,8.25-4.5  C343.279,540.102,346.089,545.583,342.901,546.89z"/>
<path fill="none" stroke="#010101" stroke-linecap="square" stroke-miterlimit="10" d="M342.901,546.89  c3.73-1.529,7.969,5.639,8.25-4.5C343.279,540.102,346.089,545.583,342.901,546.89z"/>
<path fill-rule="evenodd" clip-rule="evenodd" fill="#F4F4F4" d="M353.401,546.89c4.097-1.619,8.217,5.845,8.25-4.5  C354.369,540.393,357.227,545.377,353.401,546.89z"/>
<path fill="none" stroke="#010101" stroke-linecap="square" stroke-miterlimit="10" d="M353.401,546.89  c4.097-1.619,8.217,5.845,8.25-4.5C354.369,540.393,357.227,545.377,353.401,546.89z"/>
<path fill-rule="evenodd" clip-rule="evenodd" fill="#F4F4F4" d="M364.651,546.89c1.78-0.648,6.675,6.142,6.75-4.5  C363.603,540.208,367.302,545.924,364.651,546.89z"/>
<path fill="none" stroke="#010101" stroke-linecap="square" stroke-miterlimit="10" d="M364.651,546.89  c1.78-0.648,6.675,6.142,6.75-4.5C363.603,540.208,367.302,545.924,364.651,546.89z"/>
<path fill-rule="evenodd" clip-rule="evenodd" fill="#F4F4F4" d="M246.151,537.89c4.097-1.619,8.217,5.845,8.25-4.5  C247.119,531.393,249.977,536.377,246.151,537.89z"/>
<path fill="none" stroke="#010101" stroke-linecap="square" stroke-miterlimit="10" d="M246.151,537.89  c4.097-1.619,8.217,5.845,8.25-4.5C247.119,531.393,249.977,536.377,246.151,537.89z"/>
<path fill-rule="evenodd" clip-rule="evenodd" fill="#F4F4F4" d="M267.901,537.89c2.896-1.018,5.402,4.844,8.25-3  C269.208,530.299,270.866,536.848,267.901,537.89z"/>
<path fill="none" stroke="#010101" stroke-linecap="square" stroke-miterlimit="10" d="M267.901,537.89  c2.896-1.018,5.402,4.844,8.25-3C269.208,530.299,270.866,536.848,267.901,537.89z"/>
<path fill-rule="evenodd" clip-rule="evenodd" fill="#F4F4F4" d="M257.401,537.89c2.995-1.201,7.002,5.561,7.5-4.5  C257.1,531.128,260.646,536.589,257.401,537.89z"/>
<path fill="none" stroke="#010101" stroke-linecap="square" stroke-miterlimit="10" d="M257.401,537.89  c2.995-1.201,7.002,5.561,7.5-4.5C257.1,531.128,260.646,536.589,257.401,537.89z"/>
<path fill-rule="evenodd" clip-rule="evenodd" fill="#F4F4F4" d="M279.151,537.89c-1.76,0.652,5.501,1.808,6.75,1.5  c-0.24-2.032,0.103-4.154,0-6C278.095,531.205,281.818,536.901,279.151,537.89z"/>
<path fill="none" stroke="#010101" stroke-linecap="square" stroke-miterlimit="10" d="M279.151,537.89  c-1.76,0.652,5.501,1.808,6.75,1.5c-0.24-2.032,0.103-4.154,0-6C278.095,531.205,281.818,536.901,279.151,537.89z"/>
<path fill-rule="evenodd" clip-rule="evenodd" fill="#F4F4F4" d="M300.901,537.89c2.258-1.077,6.197,4.888,6.75-4.5  C299.786,531.189,303.744,536.535,300.901,537.89z"/>
<path fill="none" stroke="#010101" stroke-linecap="square" stroke-miterlimit="10" d="M300.901,537.89  c2.258-1.077,6.197,4.888,6.75-4.5C299.786,531.189,303.744,536.535,300.901,537.89z"/>
<path fill-rule="evenodd" clip-rule="evenodd" fill="#F4F4F4" d="M289.651,537.89c-2.203,0.948,6.272,1.614,6.75,1.5  c-0.236-1.962,0.036-4.021,0-6C289.748,531.74,292.161,536.81,289.651,537.89z"/>
<path fill="none" stroke="#010101" stroke-linecap="square" stroke-miterlimit="10" d="M289.651,537.89  c-2.203,0.948,6.272,1.614,6.75,1.5c-0.236-1.962,0.036-4.021,0-6C289.748,531.74,292.161,536.81,289.651,537.89z"/>
<path fill-rule="evenodd" clip-rule="evenodd" fill="#F4F4F4" d="M309.901,537.89c4.097-1.619,8.217,5.845,8.25-4.5  C310.869,531.393,313.727,536.377,309.901,537.89z"/>
<path fill="none" stroke="#010101" stroke-linecap="square" stroke-miterlimit="10" d="M309.901,537.89  c4.097-1.619,8.217,5.845,8.25-4.5C310.869,531.393,313.727,536.377,309.901,537.89z"/>
<path fill-rule="evenodd" clip-rule="evenodd" fill="#F4F4F4" d="M331.651,537.89c2.899-1.015,5.403,4.843,8.25-3  C333.083,530.343,334.506,536.891,331.651,537.89z"/>
<path fill="none" stroke="#010101" stroke-linecap="square" stroke-miterlimit="10" d="M331.651,537.89  c2.899-1.015,5.403,4.843,8.25-3C333.083,530.343,334.506,536.891,331.651,537.89z"/>
<path fill-rule="evenodd" clip-rule="evenodd" fill="#F4F4F4" d="M321.151,537.89c3.059-1.22,6.469,5.182,8.25-4.5  C321.702,531.239,323.744,536.856,321.151,537.89z"/>
<path fill="none" stroke="#010101" stroke-linecap="square" stroke-miterlimit="10" d="M321.151,537.89  c3.059-1.22,6.469,5.182,8.25-4.5C321.702,531.239,323.744,536.856,321.151,537.89z"/>
<path fill-rule="evenodd" clip-rule="evenodd" fill="#F4F4F4" d="M342.901,537.89c2.554-0.93,5.467,4.633,8.25-3  C343.868,530.101,345.5,536.944,342.901,537.89z"/>
<path fill="none" stroke="#010101" stroke-linecap="square" stroke-miterlimit="10" d="M342.901,537.89  c2.554-0.93,5.467,4.633,8.25-3C343.868,530.101,345.5,536.944,342.901,537.89z"/>
<path fill-rule="evenodd" clip-rule="evenodd" fill="#F4F4F4" d="M353.401,537.89c2.616-1.169,6.339,5.107,6.75-4.5  C353.485,531.736,355.941,536.755,353.401,537.89z"/>
<path fill="none" stroke="#010101" stroke-linecap="square" stroke-miterlimit="10" d="M353.401,537.89  c2.616-1.169,6.339,5.107,6.75-4.5C353.485,531.736,355.941,536.755,353.401,537.89z"/>
<path fill-rule="evenodd" clip-rule="evenodd" fill="#F4F4F4" d="M363.151,537.89c3.261-0.94,6.907,7.355,8.25-4.5  C363.521,531.091,367.046,536.767,363.151,537.89z"/>
<path fill="none" stroke="#010101" stroke-linecap="square" stroke-miterlimit="10" d="M363.151,537.89  c3.261-0.94,6.907,7.355,8.25-4.5C363.521,531.091,367.046,536.767,363.151,537.89z"/>
<path fill-rule="evenodd" clip-rule="evenodd" fill="#F4F4F4" d="M246.151,528.89c2.129-0.816,6.045,6.367,6.75-4.5  C245.604,522.357,248.006,528.178,246.151,528.89z"/>
<path fill="none" stroke="#010101" stroke-linecap="square" stroke-miterlimit="10" d="M246.151,528.89  c2.129-0.816,6.045,6.367,6.75-4.5C245.604,522.357,248.006,528.178,246.151,528.89z"/>
<path fill-rule="evenodd" clip-rule="evenodd" fill="#F4F4F4" d="M266.401,528.89c3.875-1.282,8.083,7.128,8.25-4.5  C267.361,522.391,270.164,527.645,266.401,528.89z"/>
<path fill="none" stroke="#010101" stroke-linecap="square" stroke-miterlimit="10" d="M266.401,528.89  c3.875-1.282,8.083,7.128,8.25-4.5C267.361,522.391,270.164,527.645,266.401,528.89z"/>
<path fill-rule="evenodd" clip-rule="evenodd" fill="#F4F4F4" d="M255.901,528.89c3.429-1.179,7.662,6.881,8.25-4.5  C256.271,522.09,259.868,527.526,255.901,528.89z"/>
<path fill="none" stroke="#010101" stroke-linecap="square" stroke-miterlimit="10" d="M255.901,528.89  c3.429-1.179,7.662,6.881,8.25-4.5C256.271,522.09,259.868,527.526,255.901,528.89z"/>
<path fill-rule="evenodd" clip-rule="evenodd" fill="#F4F4F4" d="M277.651,528.89c2.9-0.878,6.179,6.938,8.25-4.5  C278.018,522.089,281.57,527.705,277.651,528.89z"/>
<path fill="none" stroke="#010101" stroke-linecap="square" stroke-miterlimit="10" d="M277.651,528.89  c2.9-0.878,6.179,6.938,8.25-4.5C278.018,522.089,281.57,527.705,277.651,528.89z"/>
<path fill-rule="evenodd" clip-rule="evenodd" fill="#F4F4F4" d="M299.401,528.89C306.253,527.099,308.887,526.411,299.401,528.89  L299.401,528.89z"/>
<path fill="none" stroke="#010101" stroke-linecap="square" stroke-miterlimit="10" d="M299.401,528.89  C306.253,527.099,308.887,526.411,299.401,528.89L299.401,528.89z"/>
<path fill-rule="evenodd" clip-rule="evenodd" fill="#F4F4F4" d="M288.151,528.89C294.831,527.13,297.867,526.331,288.151,528.89  L288.151,528.89z"/>
<path fill="none" stroke="#010101" stroke-linecap="square" stroke-miterlimit="10" d="M288.151,528.89  C294.831,527.13,297.867,526.331,288.151,528.89L288.151,528.89z"/>
<path fill-rule="evenodd" clip-rule="evenodd" fill="#F4F4F4" d="M309.901,528.89c2.129-0.816,6.045,6.367,6.75-4.5  C309.354,522.357,311.756,528.178,309.901,528.89z"/>
<path fill="none" stroke="#010101" stroke-linecap="square" stroke-miterlimit="10" d="M309.901,528.89  c2.129-0.816,6.045,6.367,6.75-4.5C309.354,522.357,311.756,528.178,309.901,528.89z"/>
<path fill-rule="evenodd" clip-rule="evenodd" fill="#F4F4F4" d="M330.151,528.89c3.47-0.962,7.188,7.486,8.25-4.5  C331.14,522.399,333.81,527.875,330.151,528.89z"/>
<path fill="none" stroke="#010101" stroke-linecap="square" stroke-miterlimit="10" d="M330.151,528.89  c3.47-0.962,7.188,7.486,8.25-4.5C331.14,522.399,333.81,527.875,330.151,528.89z"/>
<path fill-rule="evenodd" clip-rule="evenodd" fill="#F4F4F4" d="M319.651,528.89c3.429-1.179,7.662,6.881,8.25-4.5  C320.021,522.09,323.618,527.526,319.651,528.89z"/>
<path fill="none" stroke="#010101" stroke-linecap="square" stroke-miterlimit="10" d="M319.651,528.89  c3.429-1.179,7.662,6.881,8.25-4.5C320.021,522.09,323.618,527.526,319.651,528.89z"/>
<path fill-rule="evenodd" clip-rule="evenodd" fill="#F4F4F4" d="M341.401,528.89c2.874-0.891,6.178,6.943,8.25-4.5  C342.232,522.366,344.019,528.08,341.401,528.89z"/>
<path fill="none" stroke="#010101" stroke-linecap="square" stroke-miterlimit="10" d="M341.401,528.89  c2.874-0.891,6.178,6.943,8.25-4.5C342.232,522.366,344.019,528.08,341.401,528.89z"/>
<path fill-rule="evenodd" clip-rule="evenodd" fill="#F4F4F4" d="M351.901,528.89C358.978,527.136,361.654,526.473,351.901,528.89  L351.901,528.89z"/>
<path fill="none" stroke="#010101" stroke-linecap="square" stroke-miterlimit="10" d="M351.901,528.89  C358.978,527.136,361.654,526.473,351.901,528.89L351.901,528.89z"/>
<path fill-rule="evenodd" clip-rule="evenodd" fill="#F4F4F4" d="M363.151,530.39c-0.294,0.187,5.099,1.211,6.75,0  C366.876,519.043,366.578,528.224,363.151,530.39z"/>
<path fill="none" stroke="#010101" stroke-linecap="square" stroke-miterlimit="10" d="M363.151,530.39  c-0.294,0.187,5.099,1.211,6.75,0C366.876,519.043,366.578,528.224,363.151,530.39z"/>
<path fill-rule="evenodd" clip-rule="evenodd" fill="#F4F4F4" d="M235.651,528.89c-1.76,0.652,5.501,1.808,6.75,1.5  c-0.24-2.032,0.103-4.154,0-6C234.595,522.205,238.318,527.901,235.651,528.89z"/>
<path fill="none" stroke="#010101" stroke-linecap="square" stroke-miterlimit="10" d="M235.651,528.89  c-1.76,0.652,5.501,1.808,6.75,1.5c-0.24-2.032,0.103-4.154,0-6C234.595,522.205,238.318,527.901,235.651,528.89z"/>
<path fill-rule="evenodd" clip-rule="evenodd" fill="#F4F4F4" d="M316.651,558.89C228.924,558.89,315.625,576.072,316.651,558.89  L316.651,558.89z"/>
<path fill="none" stroke="#010101" stroke-linecap="square" stroke-miterlimit="10" d="M316.651,558.89  C228.924,558.89,315.625,576.072,316.651,558.89L316.651,558.89z"/>
<path fill-rule="evenodd" clip-rule="evenodd" fill="#F4F4F4" d="M366.901,555.89c2.583-1.188,6.339,5.122,6.75-4.5  C366.231,549.323,368.999,554.925,366.901,555.89z"/>
<path fill="none" stroke="#010101" stroke-linecap="square" stroke-miterlimit="10" d="M366.901,555.89  c2.583-1.188,6.339,5.122,6.75-4.5C366.231,549.323,368.999,554.925,366.901,555.89z"/>
<path fill-rule="evenodd" clip-rule="evenodd" fill="#F4F4F4" d="M381.901,551.39c-11.449-3.288-22.369-3.066-25.5,6  C368.278,558.679,381.087,561.519,381.901,551.39z"/>
<path fill="none" stroke="#010101" stroke-linecap="square" stroke-miterlimit="10" d="M381.901,551.39  c-11.449-3.288-22.369-3.066-25.5,6C368.278,558.679,381.087,561.519,381.901,551.39z"/>
<path fill-rule="evenodd" clip-rule="evenodd" fill="#F4F4F4" d="M384.901,524.39C363.071,528.013,381.507,537.677,384.901,524.39  L384.901,524.39z"/>
<path fill="none" stroke="#010101" stroke-linecap="square" stroke-miterlimit="10" d="M384.901,524.39  C363.071,528.013,381.507,537.677,384.901,524.39L384.901,524.39z"/>
<path fill-rule="evenodd" clip-rule="evenodd" fill="#F4F4F4" d="M384.901,533.39C357.07,530.15,387.529,566.294,384.901,533.39  L384.901,533.39z"/>
<path fill="none" stroke="#010101" stroke-linecap="square" stroke-miterlimit="10" d="M384.901,533.39  C357.07,530.15,387.529,566.294,384.901,533.39L384.901,533.39z"/>
<path fill-rule="evenodd" clip-rule="evenodd" fill="#F4F4F4" d="M331.651,560.39c-5.606,0.36-9.459-3.68-10.5,6  C334.13,568.237,330.226,564.142,331.651,560.39z"/>
<path fill="none" stroke="#010101" stroke-linecap="square" stroke-miterlimit="10" d="M331.651,560.39  c-5.606,0.36-9.459-3.68-10.5,6C334.13,568.237,330.226,564.142,331.651,560.39z"/>
<path fill-rule="evenodd" clip-rule="evenodd" fill="#F4F4F4" d="M349.651,560.39c-7.554,0.898-12.137-2.956-12.75,6  C347.805,568.737,346.71,564.512,349.651,560.39z"/>
<path fill="none" stroke="#010101" stroke-linecap="square" stroke-miterlimit="10" d="M349.651,560.39  c-7.554,0.898-12.137-2.956-12.75,6C347.805,568.737,346.71,564.512,349.651,560.39z"/>
<path fill-rule="evenodd" clip-rule="evenodd" fill="#F4F4F4" d="M364.651,560.39c-5.947-0.245-9.495-3.219-12.75,4.5  C362.773,569.617,361.608,564.105,364.651,560.39z"/>
<path fill="none" stroke="#010101" stroke-linecap="square" stroke-miterlimit="10" d="M364.651,560.39  c-5.947-0.245-9.495-3.219-12.75,4.5C362.773,569.617,361.608,564.105,364.651,560.39z"/>
<path fill-rule="evenodd" clip-rule="evenodd" fill="#F4F4F4" d="M380.401,560.39c-6.34,0.097-10.383-3.68-12,6  C379.541,568.302,378.154,563.74,380.401,560.39z"/>
<path fill="none" stroke="#010101" stroke-linecap="square" stroke-miterlimit="10" d="M380.401,560.39  c-6.34,0.097-10.383-3.68-12,6C379.541,568.302,378.154,563.74,380.401,560.39z"/>
<path fill-rule="evenodd" clip-rule="evenodd" fill="#F4F4F4" d="M244.651,542.39c-7.24,1.073-11.627-2.948-12,6  C243.901,550.34,242.334,546.068,244.651,542.39z"/>
<path fill="none" stroke="#010101" stroke-linecap="square" stroke-miterlimit="10" d="M244.651,542.39  c-7.24,1.073-11.627-2.948-12,6C243.901,550.34,242.334,546.068,244.651,542.39z"/>
<path fill-rule="evenodd" clip-rule="evenodd" fill="#F4F4F4" d="M242.401,558.89C222.615,562.429,235.774,571.285,242.401,558.89  L242.401,558.89z"/>
<path fill="none" stroke="#010101" stroke-linecap="square" stroke-miterlimit="10" d="M242.401,558.89  C222.615,562.429,235.774,571.285,242.401,558.89L242.401,558.89z"/>
<path fill-rule="evenodd" clip-rule="evenodd" fill="#F4F4F4" d="M257.401,558.89C239.553,562.277,250.979,570.921,257.401,558.89  L257.401,558.89z"/>
<path fill="none" stroke="#010101" stroke-linecap="square" stroke-miterlimit="10" d="M257.401,558.89  C239.553,562.277,250.979,570.921,257.401,558.89L257.401,558.89z"/>
<path fill-rule="evenodd" clip-rule="evenodd" fill="#F4F4F4" d="M272.401,558.89C255.465,563.875,266.133,569.87,272.401,558.89  L272.401,558.89z"/>
<path fill="none" stroke="#010101" stroke-linecap="square" stroke-miterlimit="10" d="M272.401,558.89  C255.465,563.875,266.133,569.87,272.401,558.89L272.401,558.89z"/>
<path fill-rule="evenodd" clip-rule="evenodd" fill="#F4F4F4" d="M243.151,533.39c-5.129,3.087-9.797-3.732-9,6  C245.095,541.001,241.286,535.659,243.151,533.39z"/>
<path fill="none" stroke="#010101" stroke-linecap="square" stroke-miterlimit="10" d="M243.151,533.39  c-5.129,3.087-9.797-3.732-9,6C245.095,541.001,241.286,535.659,243.151,533.39z"/>
<path fill-rule="evenodd" clip-rule="evenodd" fill="#F4F4F4" d="M231.151,555.89c2.899-1.015,5.403,4.843,8.25-3  C232.583,548.343,234.006,554.891,231.151,555.89z"/>
<path fill="none" stroke="#010101" stroke-linecap="square" stroke-miterlimit="10" d="M231.151,555.89  c2.899-1.015,5.403,4.843,8.25-3C232.583,548.343,234.006,554.891,231.151,555.89z"/>
<path fill-rule="evenodd" clip-rule="evenodd" fill="#F4F4F4" d="M258.151,519.89c-1.968,0.96,5.734,1.752,6.75,1.5  c-0.229-2.71-0.183-4.965-0.75-7.5C257.411,513.509,261.021,518.491,258.151,519.89z"/>
<path fill="none" stroke="#010101" stroke-linecap="square" stroke-miterlimit="10" d="M258.151,519.89  c-1.968,0.96,5.734,1.752,6.75,1.5c-0.229-2.71-0.183-4.965-0.75-7.5C257.411,513.509,261.021,518.491,258.151,519.89z"/>
<path fill-rule="evenodd" clip-rule="evenodd" fill="#F4F4F4" d="M279.151,519.89c3.725-1.646,9.25,4.902,6.75-6  C278.097,512.934,282.485,518.417,279.151,519.89z"/>
<path fill="none" stroke="#010101" stroke-linecap="square" stroke-miterlimit="10" d="M279.151,519.89  c3.725-1.646,9.25,4.902,6.75-6C278.097,512.934,282.485,518.417,279.151,519.89z"/>
<path fill-rule="evenodd" clip-rule="evenodd" fill="#F4F4F4" d="M269.401,519.89c2.506-1.357,8.346,4.103,5.25-6  C269.029,514.02,271.786,518.598,269.401,519.89z"/>
<path fill="none" stroke="#010101" stroke-linecap="square" stroke-miterlimit="10" d="M269.401,519.89  c2.506-1.357,8.346,4.103,5.25-6C269.029,514.02,271.786,518.598,269.401,519.89z"/>
<path fill-rule="evenodd" clip-rule="evenodd" fill="#F4F4F4" d="M289.651,519.89C297.979,515.884,299.967,514.928,289.651,519.89  L289.651,519.89z"/>
<path fill="none" stroke="#010101" stroke-linecap="square" stroke-miterlimit="10" d="M289.651,519.89  C297.979,515.884,299.967,514.928,289.651,519.89L289.651,519.89z"/>
<path fill-rule="evenodd" clip-rule="evenodd" fill="#F4F4F4" d="M349.651,519.89C356.716,516.905,359.193,515.858,349.651,519.89  L349.651,519.89z"/>
<path fill="none" stroke="#010101" stroke-linecap="square" stroke-miterlimit="10" d="M349.651,519.89  C356.716,516.905,359.193,515.858,349.651,519.89L349.651,519.89z"/>
<path fill-rule="evenodd" clip-rule="evenodd" fill="#F4F4F4" d="M371.401,519.89C376.751,516.887,380.861,514.581,371.401,519.89  L371.401,519.89z"/>
<path fill="none" stroke="#010101" stroke-linecap="square" stroke-miterlimit="10" d="M371.401,519.89  C376.751,516.887,380.861,514.581,371.401,519.89L371.401,519.89z"/>
<path fill-rule="evenodd" clip-rule="evenodd" fill="#F4F4F4" d="M360.151,519.89c-1.978,0.978,5.745,1.749,6.75,1.5  c-0.361-3.414-0.476-4.739-1.5-7.5C359.861,514.018,362.431,518.763,360.151,519.89z"/>
<path fill="none" stroke="#010101" stroke-linecap="square" stroke-miterlimit="10" d="M360.151,519.89  c-1.978,0.978,5.745,1.749,6.75,1.5c-0.361-3.414-0.476-4.739-1.5-7.5C359.861,514.018,362.431,518.763,360.151,519.89z"/>
<path fill-rule="evenodd" clip-rule="evenodd" fill="#F4F4F4" d="M381.901,519.89C387.754,516.724,391.016,514.959,381.901,519.89  L381.901,519.89z"/>
<path fill="none" stroke="#010101" stroke-linecap="square" stroke-miterlimit="10" d="M381.901,519.89  C387.754,516.724,391.016,514.959,381.901,519.89L381.901,519.89z"/>
<path fill-rule="evenodd" clip-rule="evenodd" fill="#F4F4F4" d="M304.651,519.89C310.204,516.801,313.946,514.719,304.651,519.89  L304.651,519.89z"/>
<path fill="none" stroke="#010101" stroke-linecap="square" stroke-miterlimit="10" d="M304.651,519.89  C310.204,516.801,313.946,514.719,304.651,519.89L304.651,519.89z"/>
<path fill-rule="evenodd" clip-rule="evenodd" fill="#F4F4F4" d="M324.901,519.89C333.229,515.884,335.217,514.928,324.901,519.89  L324.901,519.89z"/>
<path fill="none" stroke="#010101" stroke-linecap="square" stroke-miterlimit="10" d="M324.901,519.89  C333.229,515.884,335.217,514.928,324.901,519.89L324.901,519.89z"/>
<path fill-rule="evenodd" clip-rule="evenodd" fill="#F4F4F4" d="M314.401,519.89C321.911,515.95,324.044,514.831,314.401,519.89  L314.401,519.89z"/>
<path fill="none" stroke="#010101" stroke-linecap="square" stroke-miterlimit="10" d="M314.401,519.89  C321.911,515.95,324.044,514.831,314.401,519.89L314.401,519.89z"/>
<path fill-rule="evenodd" clip-rule="evenodd" fill="#F4F4F4" d="M336.151,519.89C343.746,515.974,345.75,514.941,336.151,519.89  L336.151,519.89z"/>
<path fill="none" stroke="#010101" stroke-linecap="square" stroke-miterlimit="10" d="M336.151,519.89  C343.746,515.974,345.75,514.941,336.151,519.89L336.151,519.89z"/>
<path fill-rule="evenodd" clip-rule="evenodd" fill="#F4F4F4" d="M236.401,519.89c3.458-1.261,6.66,5.382,8.25-4.5  C237.36,513.391,240.204,518.503,236.401,519.89z"/>
<path fill="none" stroke="#010101" stroke-linecap="square" stroke-miterlimit="10" d="M236.401,519.89  c3.458-1.261,6.66,5.382,8.25-4.5C237.36,513.391,240.204,518.503,236.401,519.89z"/>
<path fill-rule="evenodd" clip-rule="evenodd" fill="#F4F4F4" d="M393.151,530.39c2.888-1.85,8.794,4.075,6.75-6  C392.122,523.068,396.293,528.378,393.151,530.39z"/>
<path fill="none" stroke="#010101" stroke-linecap="square" stroke-miterlimit="10" d="M393.151,530.39  c2.888-1.85,8.794,4.075,6.75-6C392.122,523.068,396.293,528.378,393.151,530.39z"/>
<path fill-rule="evenodd" clip-rule="evenodd" fill="#F4F4F4" d="M414.901,530.39C420.926,526.097,423.361,524.363,414.901,530.39  L414.901,530.39z"/>
<path fill="none" stroke="#010101" stroke-linecap="square" stroke-miterlimit="10" d="M414.901,530.39  C420.926,526.097,423.361,524.363,414.901,530.39L414.901,530.39z"/>
<path fill-rule="evenodd" clip-rule="evenodd" fill="#F4F4F4" d="M403.651,530.39c2.853-1.611,5.424,4.848,8.25-3  C404.82,520.552,407.217,528.375,403.651,530.39z"/>
<path fill="none" stroke="#010101" stroke-linecap="square" stroke-miterlimit="10" d="M403.651,530.39  c2.853-1.611,5.424,4.848,8.25-3C404.82,520.552,407.217,528.375,403.651,530.39z"/>
<path fill-rule="evenodd" clip-rule="evenodd" fill="#F4F4F4" d="M395.401,519.89c2.701-1.183,6.664,5.258,6.75-4.5  C393.968,513.027,397.763,518.856,395.401,519.89z"/>
<path fill="none" stroke="#010101" stroke-linecap="square" stroke-miterlimit="10" d="M395.401,519.89  c2.701-1.183,6.664,5.258,6.75-4.5C393.968,513.027,397.763,518.856,395.401,519.89z"/>
<path fill-rule="evenodd" clip-rule="evenodd" fill="#F4F4F4" d="M415.651,519.89c4.326-1.641,8.381,5.886,8.25-4.5  C416.613,513.392,419.467,518.443,415.651,519.89z"/>
<path fill="none" stroke="#010101" stroke-linecap="square" stroke-miterlimit="10" d="M415.651,519.89  c4.326-1.641,8.381,5.886,8.25-4.5C416.613,513.392,419.467,518.443,415.651,519.89z"/>
<path fill-rule="evenodd" clip-rule="evenodd" fill="#F4F4F4" d="M405.151,519.89c4.097-1.619,8.217,5.845,8.25-4.5  C406.119,513.393,408.977,518.377,405.151,519.89z"/>
<path fill="none" stroke="#010101" stroke-linecap="square" stroke-miterlimit="10" d="M405.151,519.89  c4.097-1.619,8.217,5.845,8.25-4.5C406.119,513.393,408.977,518.377,405.151,519.89z"/>
<path fill-rule="evenodd" clip-rule="evenodd" fill="#F4F4F4" d="M391.651,537.89c2.963-0.868,6.782,7.178,8.25-4.5  C392.02,531.09,395.555,536.746,391.651,537.89z"/>
<path fill="none" stroke="#010101" stroke-linecap="square" stroke-miterlimit="10" d="M391.651,537.89  c2.963-0.868,6.782,7.178,8.25-4.5C392.02,531.09,395.555,536.746,391.651,537.89z"/>
<path fill-rule="evenodd" clip-rule="evenodd" fill="#F4F4F4" d="M413.401,537.89C420.253,536.099,422.887,535.411,413.401,537.89  L413.401,537.89z"/>
<path fill="none" stroke="#010101" stroke-linecap="square" stroke-miterlimit="10" d="M413.401,537.89  C420.253,536.099,422.887,535.411,413.401,537.89L413.401,537.89z"/>
<path fill-rule="evenodd" clip-rule="evenodd" fill="#F4F4F4" d="M402.151,537.89c2.839-0.709,5.478,6.961,8.25-3  C403.441,530.288,404.917,537.2,402.151,537.89z"/>
<path fill="none" stroke="#010101" stroke-linecap="square" stroke-miterlimit="10" d="M402.151,537.89  c2.839-0.709,5.478,6.961,8.25-3C403.441,530.288,404.917,537.2,402.151,537.89z"/>
<path fill-rule="evenodd" clip-rule="evenodd" fill="#F4F4F4" d="M387.151,564.89C395.729,560.851,397.328,560.098,387.151,564.89  L387.151,564.89z"/>
<path fill="none" stroke="#010101" stroke-linecap="square" stroke-miterlimit="10" d="M387.151,564.89  C395.729,560.851,397.328,560.098,387.151,564.89L387.151,564.89z"/>
<path fill-rule="evenodd" clip-rule="evenodd" fill="#F4F4F4" d="M408.901,564.89C416.236,561.955,418.743,560.951,408.901,564.89  L408.901,564.89z"/>
<path fill="none" stroke="#010101" stroke-linecap="square" stroke-miterlimit="10" d="M408.901,564.89  C416.236,561.955,418.743,560.951,408.901,564.89L408.901,564.89z"/>
<path fill-rule="evenodd" clip-rule="evenodd" fill="#F4F4F4" d="M398.401,564.89C404.601,562.027,410.012,559.527,398.401,564.89  L398.401,564.89z"/>
<path fill="none" stroke="#010101" stroke-linecap="square" stroke-miterlimit="10" d="M398.401,564.89  C404.601,562.027,410.012,559.527,398.401,564.89L398.401,564.89z"/>
<path fill-rule="evenodd" clip-rule="evenodd" fill="#F4F4F4" d="M399.901,555.89c3.954-1.598,8.238,5.736,8.25-4.5  C400.307,549.101,403.894,554.277,399.901,555.89z"/>
<path fill="none" stroke="#010101" stroke-linecap="square" stroke-miterlimit="10" d="M399.901,555.89  c3.954-1.598,8.238,5.736,8.25-4.5C400.307,549.101,403.894,554.277,399.901,555.89z"/>
<path fill-rule="evenodd" clip-rule="evenodd" fill="#F4F4F4" d="M429.901,530.39c-1.126,0.699,5.353,0.964,6.75,0  C433.931,519.052,433.513,528.149,429.901,530.39z"/>
<path fill="none" stroke="#010101" stroke-linecap="square" stroke-miterlimit="10" d="M429.901,530.39  c-1.126,0.699,5.353,0.964,6.75,0C433.931,519.052,433.513,528.149,429.901,530.39z"/>
<path fill-rule="evenodd" clip-rule="evenodd" fill="#F4F4F4" d="M450.151,530.39c1.01-0.542,5.604,1.686,8.25,0  C455.165,518.484,454.427,528.094,450.151,530.39z"/>
<path fill="none" stroke="#010101" stroke-linecap="square" stroke-miterlimit="10" d="M450.151,530.39  c1.01-0.542,5.604,1.686,8.25,0C455.165,518.484,454.427,528.094,450.151,530.39z"/>
<path fill-rule="evenodd" clip-rule="evenodd" fill="#F4F4F4" d="M440.401,530.39c-0.267,0.166,5.079,1.226,6.75,0  C444.365,519.128,443.856,528.23,440.401,530.39z"/>
<path fill="none" stroke="#010101" stroke-linecap="square" stroke-miterlimit="10" d="M440.401,530.39  c-0.267,0.166,5.079,1.226,6.75,0C444.365,519.128,443.856,528.23,440.401,530.39z"/>
<path fill-rule="evenodd" clip-rule="evenodd" fill="#F4F4F4" d="M428.401,537.89c1.626-0.57,5.167,5.786,8.25-3  C429.522,530.13,431.266,536.886,428.401,537.89z"/>
<path fill="none" stroke="#010101" stroke-linecap="square" stroke-miterlimit="10" d="M428.401,537.89  c1.626-0.57,5.167,5.786,8.25-3C429.522,530.13,431.266,536.886,428.401,537.89z"/>
<path fill-rule="evenodd" clip-rule="evenodd" fill="#F4F4F4" d="M450.151,537.89c1.522-0.616,5.654,5.944,6.75-4.5  C448.766,531.065,452.515,536.934,450.151,537.89z"/>
<path fill="none" stroke="#010101" stroke-linecap="square" stroke-miterlimit="10" d="M450.151,537.89  c1.522-0.616,5.654,5.944,6.75-4.5C448.766,531.065,452.515,536.934,450.151,537.89z"/>
<path fill-rule="evenodd" clip-rule="evenodd" fill="#F4F4F4" d="M438.901,537.89c2.172-0.807,6.046,6.362,6.75-4.5  C439.062,531.755,441.269,537.011,438.901,537.89z"/>
<path fill="none" stroke="#010101" stroke-linecap="square" stroke-miterlimit="10" d="M438.901,537.89  c2.172-0.807,6.046,6.362,6.75-4.5C439.062,531.755,441.269,537.011,438.901,537.89z"/>
<path fill-rule="evenodd" clip-rule="evenodd" fill="#F4F4F4" d="M426.901,546.89c2.899-1.015,5.403,4.843,8.25-3  C428.334,539.343,429.756,545.891,426.901,546.89z"/>
<path fill="none" stroke="#010101" stroke-linecap="square" stroke-miterlimit="10" d="M426.901,546.89  c2.899-1.015,5.403,4.843,8.25-3C428.334,539.343,429.756,545.891,426.901,546.89z"/>
<path fill-rule="evenodd" clip-rule="evenodd" fill="#F4F4F4" d="M448.651,546.89c2.426-1.157,6.161,5.065,6.75-4.5  C447.195,540.045,451.174,545.686,448.651,546.89z"/>
<path fill="none" stroke="#010101" stroke-linecap="square" stroke-miterlimit="10" d="M448.651,546.89  c2.426-1.157,6.161,5.065,6.75-4.5C447.195,540.045,451.174,545.686,448.651,546.89z"/>
<path fill-rule="evenodd" clip-rule="evenodd" fill="#F4F4F4" d="M437.401,546.89c2.73-1.164,6.664,5.243,6.75-4.5  C436.84,540.512,440.231,545.683,437.401,546.89z"/>
<path fill="none" stroke="#010101" stroke-linecap="square" stroke-miterlimit="10" d="M437.401,546.89  c2.73-1.164,6.664,5.243,6.75-4.5C436.84,540.512,440.231,545.683,437.401,546.89z"/>
<path fill-rule="evenodd" clip-rule="evenodd" fill="#F4F4F4" d="M425.401,555.89c2.616-1.169,6.339,5.107,6.75-4.5  C425.485,549.736,427.941,554.755,425.401,555.89z"/>
<path fill="none" stroke="#010101" stroke-linecap="square" stroke-miterlimit="10" d="M425.401,555.89  c2.616-1.169,6.339,5.107,6.75-4.5C425.485,549.736,427.941,554.755,425.401,555.89z"/>
<path fill-rule="evenodd" clip-rule="evenodd" fill="#F4F4F4" d="M445.651,555.89c4.097-1.619,8.217,5.845,8.25-4.5  C446.618,549.393,449.477,554.377,445.651,555.89z"/>
<path fill="none" stroke="#010101" stroke-linecap="square" stroke-miterlimit="10" d="M445.651,555.89  c4.097-1.619,8.217,5.845,8.25-4.5C446.618,549.393,449.477,554.377,445.651,555.89z"/>
<path fill-rule="evenodd" clip-rule="evenodd" fill="#F4F4F4" d="M436.651,555.89c2.23-1.087,6.196,4.894,6.75-4.5  C435.189,549.043,439.191,554.653,436.651,555.89z"/>
<path fill="none" stroke="#010101" stroke-linecap="square" stroke-miterlimit="10" d="M436.651,555.89  c2.23-1.087,6.196,4.894,6.75-4.5C435.189,549.043,439.191,554.653,436.651,555.89z"/>
<path fill-rule="evenodd" clip-rule="evenodd" fill="#F4F4F4" d="M445.651,564.89c3.235-1.903,9.238,3.208,5.25-6  C445.221,559.022,448.11,563.443,445.651,564.89z"/>
<path fill="none" stroke="#010101" stroke-linecap="square" stroke-miterlimit="10" d="M445.651,564.89  c3.235-1.903,9.238,3.208,5.25-6C445.221,559.022,448.11,563.443,445.651,564.89z"/>
<path fill-rule="evenodd" clip-rule="evenodd" fill="#F4F4F4" d="M460.651,530.39c2.854-1.611,5.425,4.848,8.25-3  C461.82,520.552,464.218,528.375,460.651,530.39z"/>
<path fill="none" stroke="#010101" stroke-linecap="square" stroke-miterlimit="10" d="M460.651,530.39  c2.854-1.611,5.425,4.848,8.25-3C461.82,520.552,464.218,528.375,460.651,530.39z"/>
<path fill-rule="evenodd" clip-rule="evenodd" fill="#F4F4F4" d="M465.901,533.39c-5.387,3.225-9.104,4.834-7.5,15  C468.494,546.166,466.321,540.168,465.901,533.39z"/>
<path fill="none" stroke="#010101" stroke-linecap="square" stroke-miterlimit="10" d="M465.901,533.39  c-5.387,3.225-9.104,4.834-7.5,15C468.494,546.166,466.321,540.168,465.901,533.39z"/>
<path fill-rule="evenodd" clip-rule="evenodd" fill="#F4F4F4" d="M463.651,551.39c-5.509,3.146-9.215,5.544-8.25,15  C465.941,564.628,464.265,558.391,463.651,551.39z"/>
<path fill="none" stroke="#010101" stroke-linecap="square" stroke-miterlimit="10" d="M463.651,551.39  c-5.509,3.146-9.215,5.544-8.25,15C465.941,564.628,464.265,558.391,463.651,551.39z"/>
<path fill-rule="evenodd" clip-rule="evenodd" fill="#F4F4F4" d="M440.401,558.89c-9.292,0.317-15.604-2.685-16.5,7.5  c5.308,1.138,12.546,0.179,18,0C442.729,563.138,440.468,560.967,440.401,558.89z"/>
<path fill="none" stroke="#010101" stroke-linecap="square" stroke-miterlimit="10" d="M440.401,558.89  c-9.292,0.317-15.604-2.685-16.5,7.5c5.308,1.138,12.546,0.179,18,0C442.729,563.138,440.468,560.967,440.401,558.89z"/>
<path fill-rule="evenodd" clip-rule="evenodd" fill="#B9B8B9" d="M222.901,575.39c-5.154,3.935-8.522,5.163-9,12  c88.25,0.5,176.5,1,264.75,1.5C466.595,555.734,260.013,575.39,222.901,575.39z"/>
<path fill="none" stroke="#010101" stroke-width="2" stroke-linecap="square" stroke-miterlimit="10" d="M222.901,575.39  c-5.154,3.935-8.522,5.163-9,12c88.25,0.5,176.5,1,264.75,1.5C466.595,555.734,260.013,575.39,222.901,575.39z"/>
<path fill-rule="evenodd" clip-rule="evenodd" fill="#B9B8B9" d="M301.651,480.89c15.686,21.767,178,27.844,177,0  C477.489,448.535,318.854,463.337,301.651,480.89z"/>
<path fill="none" stroke="#010101" stroke-width="2" stroke-linecap="square" stroke-miterlimit="10" d="M301.651,480.89  c15.686,21.767,178,27.844,177,0C477.489,448.535,318.854,463.337,301.651,480.89z"/>
<path fill-rule="evenodd" clip-rule="evenodd" fill="#B9B8B9" d="M342.901,470.39c10.529,17.038,87.711,27.156,93.75,3  C442.778,448.882,355.095,451.835,342.901,470.39z"/>
<path fill="none" stroke="#010101" stroke-width="2" stroke-linecap="square" stroke-miterlimit="10" d="M342.901,470.39  c10.529,17.038,87.711,27.156,93.75,3C442.778,448.882,355.095,451.835,342.901,470.39z"/>
<path fill-rule="evenodd" clip-rule="evenodd" fill="#B9B8B9" d="M504.151,461.39c-7.284,19.852-65.94,9-83.574,9  c-46.905,0-93.81,0-140.714,0c-11.329,0-21.067-195.819-7.461-213c11.7-14.774,55.616-6,73.781-6c49.482,0,98.965,0,148.447,0  C515.258,251.39,504.151,435.08,504.151,461.39z"/>
<path fill="none" stroke="#010101" stroke-width="2" stroke-linecap="square" stroke-miterlimit="10" d="M504.151,461.39  c-7.284,19.852-65.94,9-83.574,9c-46.905,0-93.81,0-140.714,0c-11.329,0-21.067-195.819-7.461-213c11.7-14.774,55.616-6,73.781-6  c49.482,0,98.965,0,148.447,0C515.258,251.39,504.151,435.08,504.151,461.39z"/>
<path fill-rule="evenodd" clip-rule="evenodd" fill="#DFF3FD" d="M489.151,431.39c-8.739,15.115-43.471,7.5-59.633,7.5  c-43.772,0-87.544,0-131.316,0c-19.916,0-23.601-142.409-12.301-159c9.899-14.535,40.159-7.5,58.133-7.5  c43.772,0,87.543,0,131.316,0C505.142,272.39,489.151,405.408,489.151,431.39z"/>
<path fill="none" stroke="#010101" stroke-width="2" stroke-linecap="square" stroke-miterlimit="10" d="M489.151,431.39  c-8.739,15.115-43.471,7.5-59.633,7.5c-43.772,0-87.544,0-131.316,0c-19.916,0-23.601-142.409-12.301-159  c9.899-14.535,40.159-7.5,58.133-7.5c43.772,0,87.543,0,131.316,0C505.142,272.39,489.151,405.408,489.151,431.39z"/>
<path fill-rule="evenodd" clip-rule="evenodd" fill="#DFDFDE" d="M465.151,453.89C476.569,466.908,479.175,442.421,465.151,453.89  L465.151,453.89z"/>
<path fill="none" stroke="#010101" stroke-width="2" stroke-linecap="square" stroke-miterlimit="10" d="M465.151,453.89  C476.569,466.908,479.175,442.421,465.151,453.89L465.151,453.89z"/>
<path fill-rule="evenodd" clip-rule="evenodd" fill="#B9B8B9" d="M338.401,251.39c28.373,20.302,65.317,19.935,93.75,0  C400.901,251.39,369.651,251.39,338.401,251.39z"/>
<path fill="none" stroke="#010101" stroke-width="2" stroke-linecap="square" stroke-miterlimit="10" d="M338.401,251.39  c28.373,20.302,65.317,19.935,93.75,0C400.901,251.39,369.651,251.39,338.401,251.39z"/>
<path fill-rule="evenodd" clip-rule="evenodd" fill="#FFFFFF" stroke="#000000" stroke-width="2" stroke-linecap="square" stroke-miterlimit="10" d="  M462.151,437.39c-24.875,0-49.75,0-74.625,0c-10.83,0-67.028,7.79-74.625,0c-6.888-7.063-6.888-136.937,0-144  c6.716-6.886,142.534-6.886,149.25,0c7.656,7.851,0,61.127,0,72C462.151,389.39,462.151,413.39,462.151,437.39z"/>
<path fill-rule="evenodd" clip-rule="evenodd" fill="#FFFFFF" d="M334.651,317.39c30.75,0,61.5,0,92.25,0  C396.151,317.39,365.401,317.39,334.651,317.39z"/>
<line fill="none" stroke="#010101" stroke-width="2" stroke-linecap="square" stroke-miterlimit="10" x1="334.651" y1="317.39" x2="426.901" y2="317.39"/>
<path fill-rule="evenodd" clip-rule="evenodd" fill="#FFFFFF" d="M334.651,339.89c30.75,0,61.5,0,92.25,0  C396.151,339.89,365.401,339.89,334.651,339.89z"/>
<line fill="none" stroke="#010101" stroke-width="2" stroke-linecap="square" stroke-miterlimit="10" x1="334.651" y1="339.89" x2="426.901" y2="339.89"/>
<path fill-rule="evenodd" clip-rule="evenodd" fill="#FFFFFF" d="M334.651,360.89c30.75,0,61.5,0,92.25,0  C396.151,360.89,365.401,360.89,334.651,360.89z"/>
<line fill="none" stroke="#010101" stroke-width="2" stroke-linecap="square" stroke-miterlimit="10" x1="334.651" y1="360.89" x2="426.901" y2="360.89"/>
<path fill-rule="evenodd" clip-rule="evenodd" fill="#FFFFFF" d="M334.651,383.39c30.75,0,61.5,0,92.25,0  C396.151,383.39,365.401,383.39,334.651,383.39z"/>
<line fill="none" stroke="#010101" stroke-width="2" stroke-linecap="square" stroke-miterlimit="10" x1="334.651" y1="383.39" x2="426.901" y2="383.39"/>
<path fill-rule="evenodd" clip-rule="evenodd" fill="#FFFFFF" d="M334.651,405.89c30.75,0,61.5,0,92.25,0  C396.151,405.89,365.401,405.89,334.651,405.89z"/>
<line fill="none" stroke="#010101" stroke-width="2" stroke-linecap="square" stroke-miterlimit="10" x1="334.651" y1="405.89" x2="426.901" y2="405.89"/>
<path fill-rule="evenodd" clip-rule="evenodd" fill="#ED1C24" stroke="#000000" stroke-width="2" stroke-linecap="square" stroke-miterlimit="10" d="  M587.401,288.14c16.76,33.52,22.504,31.82-10.962,48.888c-32.953,16.806-50.533,13.25-37.788,49.362  c-19.25-6.75-38.5-13.5-57.75-20.25c9-16.75,18-33.5,27-50.25c1.546,6.955,8.533,12.626,10.5,19.5  C541.401,319.64,564.401,303.89,587.401,288.14z"/>
</svg>