<svg xmlns="http://www.w3.org/2000/svg" xmlns:xlink="http://www.w3.org/1999/xlink" version="1.1" id="Layer_1" x="0px" y="0px" enable-background="new 0 0 822.05 841.89" xml:space="preserve" viewBox="354.91 251.67 111.5 339.8">
<path fill-rule="evenodd" clip-rule="evenodd" fill="#BCBEC0" d="M434.664,315.14c-8.969-4.777-9.699-10.523-9-21.75  c1.738-27.935,16.81-21.75,39.75-21.75c-32.484-22.726-79.118-28.292-109.5,1.5c38.725,0,33.529,6.064,35.25,37.5  c-0.265-4.833-1.022,15.392,0,9.75c0.685-3.78-4.102,22.16-4.5,18.75c0.734,6.281,6.75,5.871,6.75,12.528  c0,6.634-8.323,15.788-8.25,16.722c0.238,3.045,8.075,9.262,8.25,8.25c-1.35,7.81-8.781,15.104-9,19.5  c-0.29,5.814,8.25,6.913,8.25,17.111c0,6.463-6.509,5.221-7.5,11.389c0.188-1.169,7.135,14.547,7.5,17.25  c-0.654-4.854-6.739,9.667-6.75,9.75c-0.526,3.908,3.765,25.029,3,30c-2.521,16.39,2.25,19.911,2.25,38.083  c0,7.706-17.292,68.173,15.75,70.667c35.001,2.643,18.75-66.208,18.75-71.027c0-11.737,7.026-11.234,7.5-18.223  c0.35-5.16-7.071-8.841-7.5-18c-0.013-0.261,6.014-5.646,6-9.75c0.002,0.688-0.71-21.88-0.75-22.5  c-1.381-21.374-2.118-36.473,0.75-57.75c-0.037,0.272-4.839-45.982-4.125-46.125C441.141,344.295,417.125,325.649,434.664,315.14z"/>
<path fill="none" stroke="#000000" stroke-width="2" stroke-linecap="square" stroke-miterlimit="10" d="M434.664,315.14  c-8.969-4.777-9.699-10.523-9-21.75c1.738-27.935,16.81-21.75,39.75-21.75c-32.484-22.726-79.118-28.292-109.5,1.5  c38.725,0,33.529,6.064,35.25,37.5c-0.265-4.833-1.022,15.392,0,9.75c0.685-3.78-4.102,22.16-4.5,18.75  c0.734,6.281,6.75,5.871,6.75,12.528c0,6.634-8.323,15.788-8.25,16.722c0.238,3.045,8.075,9.262,8.25,8.25  c-1.35,7.81-8.781,15.104-9,19.5c-0.29,5.814,8.25,6.913,8.25,17.111c0,6.463-6.509,5.221-7.5,11.389  c0.188-1.169,7.135,14.547,7.5,17.25c-0.654-4.854-6.739,9.667-6.75,9.75c-0.526,3.908,3.765,25.029,3,30  c-2.521,16.39,2.25,19.911,2.25,38.083c0,7.706-17.292,68.173,15.75,70.667c35.001,2.643,18.75-66.208,18.75-71.027  c0-11.737,7.026-11.234,7.5-18.223c0.35-5.16-7.071-8.841-7.5-18c-0.013-0.261,6.014-5.646,6-9.75c0.002,0.688-0.71-21.88-0.75-22.5  c-1.381-21.374-2.118-36.473,0.75-57.75c-0.037,0.272-4.839-45.982-4.125-46.125C441.141,344.295,417.125,325.649,434.664,315.14z"/>
</svg>