<svg xmlns="http://www.w3.org/2000/svg" xmlns:xlink="http://www.w3.org/1999/xlink" version="1.1" id="Layer_1" x="0px" y="0px" enable-background="new 0 0 822.05 841.89" xml:space="preserve" viewBox="338.07 353.4 142.56 134.47">
<path fill-rule="evenodd" clip-rule="evenodd" fill="#E6B98A" d="M395.26,389.271c-10.175-7.101-15.043-21.231-15.75-29.25  c-3.253-1.591-9.273-3.738-12-4.5c-32.792,23.384-6.64,53.892-13.5,87.748c-1.706,8.42-17.72,22.546-15,33.75  c4.269,17.583,10.213,2.561,18.75,6.75c-12.049-5.913-11.573-3.989-5.25-4.5c0.699,1.624-2.54,2.244-3-1.5  c-0.231-2.182,3.722,0.824,3.75,0.75c-18.191,15.443,9.79-31.718,12-35.25c11.224-17.936,17.836-40.356-1.5-63.748  C379.151,380.13,392.931,403.597,395.26,389.271z"/>
<path fill="none" stroke="#000000" stroke-width="1.25" stroke-linecap="square" stroke-miterlimit="10" d="M395.26,389.271  c-10.175-7.101-15.043-21.231-15.75-29.25c-3.253-1.591-9.273-3.738-12-4.5c-32.792,23.384-6.64,53.892-13.5,87.748  c-1.706,8.42-17.72,22.546-15,33.75c4.269,17.583,10.213,2.561,18.75,6.75c-12.049-5.913-11.573-3.989-5.25-4.5  c0.699,1.624-2.54,2.244-3-1.5c-0.231-2.182,3.722,0.824,3.75,0.75c-18.191,15.443,9.79-31.718,12-35.25  c11.224-17.936,17.836-40.356-1.5-63.748C379.151,380.13,392.931,403.597,395.26,389.271z"/>
<path fill-rule="evenodd" clip-rule="evenodd" d="M381.01,372.021C379.409,372.356,378.275,372.594,381.01,372.021L381.01,372.021z"/>
<path fill="none" stroke="#000000" stroke-width="1.25" stroke-linecap="square" stroke-miterlimit="10" d="M381.01,372.021  C379.409,372.356,378.275,372.594,381.01,372.021L381.01,372.021z"/>
<path fill="none" stroke="#000000" stroke-width="1.25" stroke-linecap="square" stroke-miterlimit="10" d="M354.01,407.271  c7.993-0.483,15.892-2.258,23.25-5.25"/>
<path fill="none" stroke="#000000" stroke-width="1.25" stroke-linecap="square" stroke-miterlimit="10" d="M354.76,412.521  c7.963,0.425,16.218,0.17,24-0.75"/>
<path fill="none" stroke="#000000" stroke-width="1.25" stroke-linecap="square" stroke-miterlimit="10" d="M354.01,416.271  c8,1.75,16,3.499,24,5.248"/>
<path fill="none" stroke="#000000" stroke-width="1.25" stroke-linecap="square" stroke-miterlimit="10" d="M351.01,401.271  c8.295-1.017,16.457-3.305,24-6.75"/>
<path fill="none" stroke="#000000" stroke-width="1.25" stroke-linecap="square" stroke-miterlimit="10" d="M349.51,397.521  c6.952-2.229,13.782-5.009,20.25-8.25"/>
<path fill="none" stroke="#000000" stroke-width="1.25" stroke-linecap="square" stroke-miterlimit="10" d="M357.01,428.269  c3.773-0.36,7.641-0.107,11.25,0.75"/>
<path fill="none" stroke="#000000" stroke-width="1.25" stroke-linecap="square" stroke-miterlimit="10" d="M354.01,421.519  c6.365,1.297,12.659,3.058,18.75,5.25"/>
<path fill-rule="evenodd" clip-rule="evenodd" fill="#E6B98A" d="M480.014,388.521c-10.986-5.762-15.018-22.858-15.75-30  c-3.322-1.605-8.611-3.621-11.25-4.5c-32.739,23.347-7.158,55.583-13.5,89.998c-1.598,8.668-18.075,22.654-15,34.5  c4.553,17.538,10.006,2.459,18.75,6.75c-12.05-5.913-11.573-3.989-5.25-4.5c0.698,1.624-2.54,2.244-3-1.5  c-0.18-2.271,3.689,0.909,3.75,0.75c-18.989,14.778,9.832-32.352,12-36c11.035-18.572,15.738-41.451-1.5-65.248  C464.261,379.685,477.663,402.979,480.014,388.521z"/>
<path fill="none" stroke="#000000" stroke-width="1.25" stroke-linecap="square" stroke-miterlimit="10" d="M480.014,388.521  c-10.986-5.762-15.018-22.858-15.75-30c-3.322-1.605-8.611-3.621-11.25-4.5c-32.739,23.347-7.158,55.583-13.5,89.998  c-1.598,8.668-18.075,22.654-15,34.5c4.553,17.538,10.006,2.459,18.75,6.75c-12.05-5.913-11.573-3.989-5.25-4.5  c0.698,1.624-2.54,2.244-3-1.5c-0.18-2.271,3.689,0.909,3.75,0.75c-18.989,14.778,9.832-32.352,12-36  c11.035-18.572,15.738-41.451-1.5-65.248C464.261,379.685,477.663,402.979,480.014,388.521z"/>
<path fill-rule="evenodd" clip-rule="evenodd" d="M465.014,370.521C463.412,370.856,462.279,371.094,465.014,370.521  L465.014,370.521z"/>
<path fill="none" stroke="#000000" stroke-width="1.25" stroke-linecap="square" stroke-miterlimit="10" d="M465.014,370.521  C463.412,370.856,462.279,371.094,465.014,370.521L465.014,370.521z"/>
<path fill="none" stroke="#000000" stroke-width="1.25" stroke-linecap="square" stroke-miterlimit="10" d="M438.764,406.521  c7.993-0.483,15.893-2.258,23.25-5.25"/>
<path fill="none" stroke="#000000" stroke-width="1.25" stroke-linecap="square" stroke-miterlimit="10" d="M439.514,412.521  c7.963,0.425,16.219,0.17,24-0.75"/>
<path fill="none" stroke="#000000" stroke-width="1.25" stroke-linecap="square" stroke-miterlimit="10" d="M438.764,416.271  c8,1.75,16,3.499,24,5.248"/>
<path fill="none" stroke="#000000" stroke-width="1.25" stroke-linecap="square" stroke-miterlimit="10" d="M435.764,400.521  c8.295-1.017,16.457-3.305,24-6.75"/>
<path fill="none" stroke="#000000" stroke-width="1.25" stroke-linecap="square" stroke-miterlimit="10" d="M434.264,396.771  c6.952-2.229,13.782-5.009,20.25-8.25"/>
<path fill="none" stroke="#000000" stroke-width="1.25" stroke-linecap="square" stroke-miterlimit="10" d="M441.764,428.269  c3.772-0.36,7.641-0.107,11.25,0.75"/>
<path fill="none" stroke="#000000" stroke-width="1.25" stroke-linecap="square" stroke-miterlimit="10" d="M438.764,421.519  c6.365,1.297,12.659,3.058,18.75,5.25"/>
</svg>