<svg xmlns="http://www.w3.org/2000/svg" xmlns:xlink="http://www.w3.org/1999/xlink" version="1.1" id="Layer_1" x="0px" y="0px" enable-background="new 0 0 822.05 841.89" xml:space="preserve" viewBox="320.55 359.89 182.95 122.5">
<path fill-rule="evenodd" clip-rule="evenodd" fill="#333333" stroke="#000000" stroke-width="0.5" stroke-linecap="square" stroke-miterlimit="10" d="  M417,439.39c1.802,27.675-32.327,22.886-27.375-1.875C394.174,414.771,418.095,415.226,417,439.39z"/>
<path fill-rule="evenodd" clip-rule="evenodd" fill="#333333" stroke="#000000" stroke-width="0.5" stroke-linecap="square" stroke-miterlimit="10" d="  M324,392.14c2.727-19.981,19.438-37.521,40.875-30.375c33.035,11.012,45.007,10.875,80.25,10.875  c21.909,0,45.375,11.443,45.375,36.375c0,34.85-28.599,47.323,12.75,67.875c-28.09,0.088-50.319-24.229-79.5-15.75  c1.246-2.125,4.528-7.76,6-9.75c5.13,0.211,13.953-0.824,16.5-0.75c-18.755-7.872-47.996,15.009-61.125-11.25  C373.493,416.125,321.867,410.329,324,392.14z"/>
<path fill="none" stroke="#000000" stroke-width="0.5" stroke-linecap="square" stroke-miterlimit="10" d="M370.5,390.64  c2.055-2.381,3.118-5.194,3-8.25"/>
<path fill-rule="evenodd" clip-rule="evenodd" stroke="#000000" stroke-width="0.5" stroke-linecap="square" stroke-miterlimit="10" d="  M345.75,389.89c-2.883,0.348-4.113,6.696-6.75-0.75C342.689,385.557,343.209,390.197,345.75,389.89z"/>
<path fill-rule="evenodd" clip-rule="evenodd" fill="#333333" stroke="#000000" stroke-width="0.5" stroke-linecap="square" stroke-miterlimit="10" d="  M404.25,429.64c-7.368,32.817,18.771,52.547,51,52.5C446.894,472.552,412.899,388.328,404.25,429.64z"/>
<path fill="none" stroke="#000000" stroke-width="0.5" stroke-linecap="square" stroke-miterlimit="10" d="M441.75,448.39  c13.718-2.914,28.012-8.822,33.75-22.5"/>
<path fill-rule="evenodd" clip-rule="evenodd" fill="#FFFFFF" d="M345,389.89C344.358,389.544,343.356,389.003,345,389.89  L345,389.89z"/>
<path fill-rule="evenodd" clip-rule="evenodd" stroke="#000000" stroke-width="0.5" stroke-linecap="square" stroke-miterlimit="10" d="  M321,392.14C319.351,410.356,328.691,397.339,321,392.14L321,392.14z"/>
<path fill-rule="evenodd" clip-rule="evenodd" fill="#232323" stroke="#000000" stroke-width="0.5" stroke-linecap="square" stroke-miterlimit="10" d="  M372.75,381.64c-2.98-0.354-6.103,0.031-9,0.75C370.557,380.526,376.003,382.026,372.75,381.64z"/>
<path fill-rule="evenodd" clip-rule="evenodd" fill="#333333" d="M446.25,449.89c5.161,0.84,7.469,3.025,12.75,0.75  C454.75,450.39,450.5,450.14,446.25,449.89z"/>
<path fill="none" stroke="#000000" stroke-width="0.5" stroke-linecap="square" stroke-miterlimit="10" d="M446.25,449.89  c4.107,2.28,8.529,2.568,12.75,0.75"/>
</svg>