<svg xmlns="http://www.w3.org/2000/svg" xmlns:xlink="http://www.w3.org/1999/xlink" version="1.1" id="Layer_1" x="0px" y="0px" enable-background="new 0 0 822.05 841.89" xml:space="preserve" viewBox="199.9 244.96 420.75 354">
<path fill-rule="evenodd" clip-rule="evenodd" fill="#73BF44" stroke="#010101" stroke-width="1.5" stroke-linecap="square" stroke-miterlimit="10" d="  M292.9,405.457c-26.496-29.897-64.249-26.706-92.25,0C231.4,405.457,262.15,405.457,292.9,405.457z"/>
<path fill-rule="evenodd" clip-rule="evenodd" fill="#2B9A47" stroke="#010101" stroke-width="1.5" stroke-linecap="square" stroke-miterlimit="10" d="  M371.65,405.457c-43.829-25.92-100.092-22.424-144.75,0C275.15,405.457,323.4,405.457,371.65,405.457z"/>
<path fill-rule="evenodd" clip-rule="evenodd" fill="#A05927" stroke="#010101" stroke-width="1.5" stroke-linecap="square" stroke-miterlimit="10" d="  M256.15,406.207c8.839-54.794-17.522-116.576,50.25-131.25c-17.218,9.498-41.57,15.369-41.25,39  c6.624-3.874,15.339-6.509,21.75-10.5c-16.094,7.67-24.81,20.475-18.75,38.25c14.017-17.346,26.498-33.965,47.25-43.5  c-10.438,5.878-19.601,14.24-25.5,24.75c8.886-1.873,17.929-2.878,27-3c-21.034,5.12-39.256,8.371-45,32.25  c22.028-1.393,53.346-32.926,74.25-42.75c-6.846,5.723-14.515,10.828-22.5,15c4.803-0.062,12.292,0.974,15.75,0.75  c-22.809-2.148-41.803,16.045-57,30.75c16.567,4.412,39.478-8.149,56.25-14.25c-12.01,4.612-23.792,9.901-35.25,15.75  c8.416,5.81,19.172,9.114,29.25,12.75c-13.73-4.327-29.328-10.145-43.875-7.5c-22.564,4.103-12.042,22.801-10.125,43.5  C272.004,406.207,262.666,407.858,256.15,406.207z"/>
<path fill-rule="evenodd" clip-rule="evenodd" fill="#C44F27" stroke="#010101" stroke-width="1.5" stroke-linecap="square" stroke-miterlimit="10" d="  M325.15,352.207c1.977,4.583,6.025,3.822,5.25,10.5C322.342,360.896,327.543,357.755,325.15,352.207z"/>
<path fill-rule="evenodd" clip-rule="evenodd" fill="#C52126" stroke="#010101" stroke-width="1.5" stroke-linecap="square" stroke-miterlimit="10" d="  M335.65,334.207c3.267,4.133,8.132,1.303,6.75,8.25C333.49,342.579,338.985,338.426,335.65,334.207z"/>
<path fill-rule="evenodd" clip-rule="evenodd" fill="#C52126" stroke="#010101" stroke-width="1.5" stroke-linecap="square" stroke-miterlimit="10" d="  M282.4,312.457c6.362,3.422,11.228,2.061,10.5,10.5C283.042,322.972,285.63,318.045,282.4,312.457z"/>
<path fill-rule="evenodd" clip-rule="evenodd" fill="#C52126" stroke="#010101" stroke-width="1.5" stroke-linecap="square" stroke-miterlimit="10" d="  M367.9,382.207c3.19,2.485,5.786-2.056,6.75,4.5c-1.276,0.053-2.276,0.553-3,1.5C369.277,386.612,369.88,383.749,367.9,382.207z"/>
<path fill-rule="evenodd" clip-rule="evenodd" fill="#C52126" stroke="#010101" stroke-width="1.5" stroke-linecap="square" stroke-miterlimit="10" d="  M292.9,330.457c1.138,1.86,4.498,1.105,3.75,5.25C291.245,335.691,294.677,333.362,292.9,330.457z"/>
<path fill-rule="evenodd" clip-rule="evenodd" fill="#C44F27" stroke="#010101" stroke-width="1.5" stroke-linecap="square" stroke-miterlimit="10" d="  M313.15,334.207c1.619,2.864,5.146,1.962,4.5,6.75C312.094,340.462,315.098,337.651,313.15,334.207z"/>
<path fill-rule="evenodd" clip-rule="evenodd" fill="#C52126" stroke="#010101" stroke-width="1.5" stroke-linecap="square" stroke-miterlimit="10" d="  M336.4,350.707c5.185,2.58,8.276-3.109,10.5,5.25C338.267,360.275,341.214,353.562,336.4,350.707z"/>
<path fill-rule="evenodd" clip-rule="evenodd" fill="#C52126" stroke="#010101" stroke-width="1.5" stroke-linecap="square" stroke-miterlimit="10" d="  M290.65,289.957c1.279,1.907,4.715,1.336,4.5,5.25C289.771,295.582,292.607,292.875,290.65,289.957z"/>
<path fill-rule="evenodd" clip-rule="evenodd" fill="#C52126" stroke="#010101" stroke-width="1.5" stroke-linecap="square" stroke-miterlimit="10" d="  M301.15,294.457c3.403,1.308,5.038-3.4,6.75,2.25C303.499,300.906,304.617,295.789,301.15,294.457z"/>
<path fill-rule="evenodd" clip-rule="evenodd" fill="#C44F27" stroke="#010101" stroke-width="1.5" stroke-linecap="square" stroke-miterlimit="10" d="  M350.65,353.707c2.615,0.905,4.366-3.738,6.75,2.25C352.258,359.469,353.402,354.659,350.65,353.707z"/>
<path fill-rule="evenodd" clip-rule="evenodd" fill="#C52126" stroke="#010101" stroke-width="1.5" stroke-linecap="square" stroke-miterlimit="10" d="  M349.9,365.707c2.64,0.827,4.114-3.412,6.75,1.5C352.237,372.331,353.197,366.739,349.9,365.707z"/>
<path fill-rule="evenodd" clip-rule="evenodd" fill="#C52126" stroke="#010101" stroke-width="1.5" stroke-linecap="square" stroke-miterlimit="10" d="  M325.15,373.957c2.088,4.227,6.136,2.638,5.25,9C322.846,382.072,327.521,378.753,325.15,373.957z"/>
<path fill-rule="evenodd" clip-rule="evenodd" fill="#C52126" stroke="#010101" stroke-width="1.5" stroke-linecap="square" stroke-miterlimit="10" d="  M294.4,355.957C304.622,361.892,303.7,361.356,294.4,355.957L294.4,355.957z"/>
<path fill-rule="evenodd" clip-rule="evenodd" fill="#C52126" stroke="#010101" stroke-width="1.5" stroke-linecap="square" stroke-miterlimit="10" d="  M305.65,372.457c3.029,0.792,4.51-4.3,6.75,1.5C308.21,379.013,309.062,373.349,305.65,372.457z"/>
<path fill-rule="evenodd" clip-rule="evenodd" fill="#C44F27" stroke="#010101" stroke-width="1.5" stroke-linecap="square" stroke-miterlimit="10" d="  M323.65,328.207c1.934,4.602,6.481,2.782,5.25,9.75C320.986,336.652,325.598,332.842,323.65,328.207z"/>
<path fill-rule="evenodd" clip-rule="evenodd" fill="#C44F27" stroke="#010101" stroke-width="1.5" stroke-linecap="square" stroke-miterlimit="10" d="  M355.9,378.457c1.935,2.933,5.624,1.316,4.5,6C354.974,384.32,357.883,381.463,355.9,378.457z"/>
<path fill-rule="evenodd" clip-rule="evenodd" fill="#C44F27" stroke="#010101" stroke-width="1.5" stroke-linecap="square" stroke-miterlimit="10" d="  M338.65,370.957c3.534,1.253,4.827-3.084,7.5,2.25C340.973,377.217,342.322,372.259,338.65,370.957z"/>
<path fill-rule="evenodd" clip-rule="evenodd" fill="#C44F27" stroke="#010101" stroke-width="1.5" stroke-linecap="square" stroke-miterlimit="10" d="  M303.4,337.207c1.507,1.835,4.603,0.171,5.25,4.5C303.145,343.549,305.511,339.778,303.4,337.207z"/>
<path fill-rule="evenodd" clip-rule="evenodd" fill="#C44F27" stroke="#010101" stroke-width="1.5" stroke-linecap="square" stroke-miterlimit="10" d="  M291.4,348.457c2.764,0.901,4.238-3.535,6.75,1.5C294.012,355.505,294.796,349.564,291.4,348.457z"/>
<path fill-rule="evenodd" clip-rule="evenodd" fill="#C44F27" stroke="#010101" stroke-width="1.5" stroke-linecap="square" stroke-miterlimit="10" d="  M313.9,356.707c2.756,3.567,6.838,0.535,6.75,7.5C313.1,365.523,316.965,360.672,313.9,356.707z"/>
<path fill-rule="evenodd" clip-rule="evenodd" fill="#C44F27" stroke="#010101" stroke-width="1.5" stroke-linecap="square" stroke-miterlimit="10" d="  M312.4,341.707c1.46,3.524,5.164,2.771,3.75,8.25C310.716,347.894,313.903,345.334,312.4,341.707z"/>
<path fill-rule="evenodd" clip-rule="evenodd" fill="#C44F27" stroke="#010101" stroke-width="1.5" stroke-linecap="square" stroke-miterlimit="10" d="  M364.15,367.957c3.791,0.985,5.023-4.543,7.5,2.25C366.437,373.813,368.187,369.005,364.15,367.957z"/>
<path fill="none" stroke="#010101" stroke-width="1.5" stroke-linecap="square" stroke-miterlimit="10" d="M262.9,260.707  c13.532,22.725,34.156,47.925,60,57"/>
<path fill="none" stroke="#010101" stroke-width="1.5" stroke-linecap="square" stroke-miterlimit="10" d="M247.15,294.457  c5.915,13.09,17.589,23.908,30.75,30"/>
<path fill="none" stroke="#010101" stroke-width="1.5" stroke-linecap="square" stroke-miterlimit="10" d="M238.9,262.207  c6.662,15.47,15.013,31.204,27.75,42"/>
<path fill="none" stroke="#010101" stroke-width="1.5" stroke-linecap="square" stroke-miterlimit="10" d="M249.4,355.207  c16.814,14.004,38.251,27.044,60.75,27"/>
<path fill="none" stroke="#010101" stroke-width="1.5" stroke-linecap="square" stroke-miterlimit="10" d="M304.9,385.207  c5.506,0.879,11.062,0.622,16.5-0.75"/>
<path fill="none" stroke="#010101" stroke-width="1.5" stroke-linecap="square" stroke-miterlimit="10" d="M260.65,337.207  c8.161,7.345,18.377,12.927,29.25,15"/>
<path fill-rule="evenodd" clip-rule="evenodd" fill="#FFFFFF" stroke="#010101" stroke-width="1.5" stroke-linecap="square" stroke-miterlimit="10" d="  M512.654,517.208c9.411,10.468,20.684,9.872,24.75-4.5c-2.25,10.25-4.5,20.5-6.75,30.75c-7.989-11.258-15.966-22.524-24-33.75  C508.654,512.208,510.654,514.708,512.654,517.208z"/>
<path fill-rule="evenodd" clip-rule="evenodd" fill="#FFFFFF" stroke="#010101" stroke-width="1.5" stroke-linecap="square" stroke-miterlimit="10" d="  M532.154,472.958c7.935,2.27,10.809,10.383,15.75-3c-1.749,9.893-4.442,19.624-7.5,29.25  C537.654,490.458,534.904,481.708,532.154,472.958z"/>
<path fill-rule="evenodd" clip-rule="evenodd" fill="#FFFFFF" stroke="#010101" stroke-width="1.5" stroke-linecap="square" stroke-miterlimit="10" d="  M482.654,489.458c4.461-0.862,6.698,2.165,9-3c1.173,3.888,3.031,7.814,3,12C488.487,496.933,486.489,493.681,482.654,489.458z"/>
<path fill-rule="evenodd" clip-rule="evenodd" fill="#FFFFFF" d="M499.154,529.208c9.376,0.007,15.163-2.746,19.5,5.25  C512.666,532.999,502.191,530.772,499.154,529.208z"/>
<path fill="none" stroke="#010101" stroke-width="1.5" stroke-linecap="square" stroke-miterlimit="10" d="M499.154,529.208  c9.376,0.007,15.163-2.746,19.5,5.25c-6.745-1.749-13.553-3.326-20.25-5.25"/>
<path fill-rule="evenodd" clip-rule="evenodd" fill="#FFFFFF" stroke="#010101" stroke-width="1.5" stroke-linecap="square" stroke-miterlimit="10" d="  M570.404,508.208c5.656,1.49,10.2,5.965,18,5.25c-9.77,3.485-19.82,6.088-30,8.25C561.044,515.57,565.147,512.298,570.404,508.208z"/>
<path fill-rule="evenodd" clip-rule="evenodd" fill="#FFFFFF" stroke="#010101" stroke-width="1.5" stroke-linecap="square" stroke-miterlimit="10" d="  M556.904,450.458c1.128-0.018,2.521,7.408,10.5-1.5c-4.416,6.054-9.471,12.232-14.25,18  C554.394,461.507,555.164,455.765,556.904,450.458z"/>
<path fill-rule="evenodd" clip-rule="evenodd" fill="#FFFFFF" stroke="#010101" stroke-width="1.5" stroke-linecap="square" stroke-miterlimit="10" d="  M542.654,510.458c8.517,3.351,18.81-0.957,26.25-6.75c-3.278,15.029-19.915,29.29-34.5,31.5  C534.736,526.072,538.326,515.007,542.654,510.458z"/>
<path fill-rule="evenodd" clip-rule="evenodd" fill="#A05927" stroke="#010101" stroke-width="1.5" stroke-linecap="square" stroke-miterlimit="10" d="  M522.404,589.208c1.623-44.119,8.095-50.842-37.5-63c10.494,1.469,20.877,4.647,31.5,6c-11.565-12.409-27.444-17.736-44.25-19.5  c5.428,0.532,11.045-0.199,16.5,0c-8.018-4.696-16.277-8.952-24.75-12.75c16.455,7.6,34.137,13.898,48.75,24.75  c-9.084-11.929-20.569-23.113-31.5-33.75c3.627,3.494,9.604,6.156,13.5,9c-0.51-4.15-0.039-10.98-0.75-14.25  c-0.219,23.424,25.249,36.677,35.25,55.5c9.282-23.792,9.021-48.138-5.25-69.75c3.131,4.87,7.265,9.487,10.5,14.25  c-2.763-8.677-6.021-17.197-9.75-25.5c6.884,12.468,12.476,25.629,15,39.75c4.328-16.897,9.132-34.356,18-49.5  c-3.088,6.539-4.878,13.543-7.5,20.25c6.726-7.143,12.901-15.066,19.5-22.5c-18.618,28.714-26.934,48.602-30.75,83.25  c15.655-12.626,31.96-29.358,50.25-37.5c-2.5,1.75-5,3.5-7.5,5.25c10.029-2.554,19.887-6.089,29.25-10.5  c-16.721,7.945-35.854,12.308-47.25,27.75c11.396-3.168,23.824-4.337,35.25-1.5c-48.486,3.283-68.097,26.079-54,73.5  C538.047,588.687,529.058,590.707,522.404,589.208z"/>
<path fill-rule="evenodd" clip-rule="evenodd" fill="#FFFFFF" stroke="#010101" stroke-width="1.5" stroke-linecap="square" stroke-miterlimit="10" d="  M462.404,490.208C451.969,492.013,452.151,491.299,462.404,490.208L462.404,490.208z"/>
<path fill-rule="evenodd" clip-rule="evenodd" fill="#FFFFFF" stroke="#010101" stroke-width="1.5" stroke-linecap="square" stroke-miterlimit="10" d="  M595.154,552.458C581.341,558.002,581.54,546.683,595.154,552.458L595.154,552.458z"/>
<path fill-rule="evenodd" clip-rule="evenodd" fill="#FFFFFF" stroke="#010101" stroke-width="1.5" stroke-linecap="square" stroke-miterlimit="10" d="  M472.904,547.958C471.633,536.303,476.006,537.549,472.904,547.958L472.904,547.958z"/>
<path fill-rule="evenodd" clip-rule="evenodd" fill="#FFFFFF" stroke="#010101" stroke-width="1.5" stroke-linecap="square" stroke-miterlimit="10" d="  M588.404,474.458C581.697,462.152,594.246,460.641,588.404,474.458L588.404,474.458z"/>
<path fill-rule="evenodd" clip-rule="evenodd" fill="#FFFFFF" stroke="#010101" stroke-width="1.5" stroke-linecap="square" stroke-miterlimit="10" d="  M538.904,598.208c-26.24-32.205-66.739-28.104-95.25-0.75C475.404,597.708,507.154,597.958,538.904,598.208z"/>
<path fill-rule="evenodd" clip-rule="evenodd" fill="#FFFFFF" stroke="#010101" stroke-width="1.5" stroke-linecap="square" stroke-miterlimit="10" d="  M619.904,597.458c-43.789-28.343-104.11-22.225-149.25,0C520.404,597.458,570.154,597.458,619.904,597.458z"/>
<path fill-rule="evenodd" clip-rule="evenodd" fill="#FFFFFF" stroke="#010101" stroke-width="1.5" stroke-linecap="square" stroke-miterlimit="10" d="  M501.404,478.958C497.094,465.23,507.62,466.125,501.404,478.958L501.404,478.958z"/>
<path fill-rule="evenodd" clip-rule="evenodd" fill="#FFFFFF" stroke="#010101" stroke-width="1.5" stroke-linecap="square" stroke-miterlimit="10" d="  M503.654,556.958C496.955,542.1,512.647,542.951,503.654,556.958L503.654,556.958z"/>
<path fill-rule="evenodd" clip-rule="evenodd" fill="#FFFFFF" stroke="#010101" stroke-width="1.5" stroke-linecap="square" stroke-miterlimit="10" d="  M612.404,469.208C607.618,454.989,620.112,457.679,612.404,469.208L612.404,469.208z"/>
<path fill-rule="evenodd" clip-rule="evenodd" fill="#FFFFFF" stroke="#010101" stroke-width="1.5" stroke-linecap="square" stroke-miterlimit="10" d="  M457.154,566.708C449.96,552.417,465.394,553.306,457.154,566.708L457.154,566.708z"/>
<path fill-rule="evenodd" clip-rule="evenodd" fill="#FFFFFF" stroke="#010101" stroke-width="1.5" stroke-linecap="square" stroke-miterlimit="10" d="  M612.404,575.708C607.429,561.544,620.025,564.072,612.404,575.708L612.404,575.708z"/>
<path fill-rule="evenodd" clip-rule="evenodd" fill="#FFFFFF" stroke="#010101" stroke-width="1.5" stroke-linecap="square" stroke-miterlimit="10" d="  M557.654,565.958C550.801,551.018,566.836,551.964,557.654,565.958L557.654,565.958z"/>
<path fill-rule="evenodd" clip-rule="evenodd" fill="#FFFFFF" stroke="#010101" stroke-width="1.5" stroke-linecap="square" stroke-miterlimit="10" d="  M610.154,539.708C603.369,525.944,616.669,524.671,610.154,539.708L610.154,539.708z"/>
<path fill-rule="evenodd" clip-rule="evenodd" fill="#FFFFFF" stroke="#010101" stroke-width="1.5" stroke-linecap="square" stroke-miterlimit="10" d="  M459.404,530.708C445.252,535.775,446.902,523.151,459.404,530.708L459.404,530.708z"/>
<path fill-rule="evenodd" clip-rule="evenodd" fill="#FFFFFF" stroke="#010101" stroke-width="1.5" stroke-linecap="square" stroke-miterlimit="10" d="  M565.904,491.708C558.949,478.749,571.157,477.19,565.904,491.708L565.904,491.708z"/>
<path fill-rule="evenodd" clip-rule="evenodd" fill="#FFFFFF" stroke="#010101" stroke-width="1.5" stroke-linecap="square" stroke-miterlimit="10" d="  M481.904,571.208C476.639,555.934,489.64,558.481,481.904,571.208L481.904,571.208z"/>
<path fill-rule="evenodd" clip-rule="evenodd" fill="#FFFFFF" stroke="#010101" stroke-width="1.5" stroke-linecap="square" stroke-miterlimit="10" d="  M475.154,476.708C468.09,463.977,481.872,461.372,475.154,476.708L475.154,476.708z"/>
<path fill-rule="evenodd" clip-rule="evenodd" fill="#EFC9E0" stroke="#010101" stroke-width="1.5" stroke-linecap="square" stroke-miterlimit="10" d="  M310.15,480.458c-5.398-5.703-8.253-7.844-12.75-16.5c-6.103,7.485-9.708,10.05-18,12.75c0.999,3.326,2.889,1.738,4.5,4.5  c-0.603,1.156-4.087,0.445-3.75,3c1.711,0.634,3.461,1.134,5.25,1.5c-0.045,2.555-3.18,2.697-2.25,6c2.822,0.46,3.18-1.751,6-1.5  c7.136,5.808,0.432,6.91,7.5,0c1,1.5,2,3,3,4.5c1.265-1.998-0.898-2.464-0.75-5.25c2.065,0.235,4.269,1.305,6.75,1.5  c-0.116-0.316-2.21-6.382-2.25-6.75C306.877,483.844,308.829,482.132,310.15,480.458z"/>
<path fill-rule="evenodd" clip-rule="evenodd" fill="#F6EB16" stroke="#010101" stroke-width="1.5" stroke-linecap="square" stroke-miterlimit="10" d="  M298.9,481.208C290.141,480.991,290.221,480.993,298.9,481.208L298.9,481.208z"/>
<path fill-rule="evenodd" clip-rule="evenodd" fill="#EFC9E0" stroke="#010101" stroke-width="1.5" stroke-linecap="square" stroke-miterlimit="10" d="  M247.15,533.708c-6.233-7.043-8.005-8.186-13.5-16.5c-2.421,2.892-2.941,4.806-4.5,8.25c-8.806-0.256-3.433-2.587-5.25,3.75  c-2.706,0.562-4.641-0.09-7.5,0.75c1.038,3.398,2.69,1.653,4.5,4.5c-2.573,5.044-5.649-0.88,1.5,4.5  c-1.351,4.91-2.724,1.76-1.5,6.75c1.896-0.103,3.441-2.899,5.25-3c1.367,1.516,0.299,4.714,3,6.75c2.052-2.106,2.912-4.888,4.5-6.75  c0.783,1.876,1.783,3.626,3,5.25c0.72-1.381-0.897-4.184-0.75-5.25c9.581,0.253,4.207,1.812,4.5-5.25  C242.882,536.769,245.922,535.068,247.15,533.708z"/>
<path fill-rule="evenodd" clip-rule="evenodd" fill="#F6EB16" stroke="#010101" stroke-width="1.5" stroke-linecap="square" stroke-miterlimit="10" d="  M235.15,534.458C226.921,533.826,227.217,533.848,235.15,534.458L235.15,534.458z"/>
<path fill-rule="evenodd" clip-rule="evenodd" fill="#EFC9E0" stroke="#010101" stroke-width="1.5" stroke-linecap="square" stroke-miterlimit="10" d="  M262.15,477.458c-5.327-4.796-7.631-7.843-12-15.75c-7.016,7.13-10.095,9.268-18,12c0.831,3.57,2.857,1.617,4.5,4.5  c-3.162,5.597-5.185,0.361,0.75,4.5c-0.569,2.858-2.807,3.215-2.25,6.75c3.289,0.628,3.677-2.059,6.75-2.25  c5.667,5.354,0.583,7.903,7.5,0c0.526,1.842,1.526,3.342,3,4.5c0.842-1.284-0.951-3.93-0.75-5.25c9.727,2.716,4.222,1.194,4.5-4.5  C259.464,481.499,260.837,479.83,262.15,477.458z"/>
<path fill-rule="evenodd" clip-rule="evenodd" fill="#F6EB16" stroke="#010101" stroke-width="1.5" stroke-linecap="square" stroke-miterlimit="10" d="  M251.65,478.208C242.079,478.394,242.053,478.394,251.65,478.208L251.65,478.208z"/>
<path fill-rule="evenodd" clip-rule="evenodd" fill="#73BF44" stroke="#010101" stroke-width="1.5" stroke-linecap="square" stroke-miterlimit="10" d="  M313.9,591.458c-27.907-31.376-72.937-31.803-102,0C245.9,591.458,279.9,591.458,313.9,591.458z"/>
<path fill-rule="evenodd" clip-rule="evenodd" fill="#2B9A47" stroke="#010101" stroke-width="1.5" stroke-linecap="square" stroke-miterlimit="10" d="  M401.65,591.458c-46.172-30.709-112.994-24.521-160.5,0C294.65,591.458,348.15,591.458,401.65,591.458z"/>
<path fill-rule="evenodd" clip-rule="evenodd" fill="#A05927" stroke="#010101" stroke-width="1.5" stroke-linecap="square" stroke-miterlimit="10" d="  M294.4,590.708c2.582-48.042,4.079-51.951-42.75-66c11.561,2.224,22.955,5.352,34.5,7.5c-10.959-14.287-29.671-20.086-48-23.25  c5.857,0.983,12.101,0.818,18,1.5c-9.02-5.19-18.282-9.947-27.75-14.25c18.759,7.282,38.006,14.999,54,27  c-9.313-14.001-23.557-25.857-35.25-38.25c3.944,4.226,9.729,6.965,14.25,10.5c-0.388-5.384,0.45-11.203-0.75-16.5  c2.745,27.332,30,40.681,40.5,63.75c8.777-29.62,10.14-52.29-6-79.5c3.259,5.138,7.785,9.977,11.25,15  c-1.722-9.849-5.272-19.232-10.5-27.75c8.282,13.768,14.665,29.06,17.25,45c4.243-19.674,11.424-38.931,20.25-57  c-3.517,7.726-5.665,15.88-8.25,24c7.115-8.607,13.329-18.068,21.75-25.5c-22.158,31.607-29.907,56.029-35.25,94.5  c18.184-14.838,35.986-34.346,57.75-43.5c-3.25,2.25-6.5,4.5-9.75,6.75c11.142-3.857,22.159-8.115,33-12.75  c-18.921,8.478-38.794,16.139-53.25,31.5c13.382-2.641,26.965-2.748,40.5-1.5c-46.826,1.225-83.2,29.927-60.75,78.75  C311.209,590.708,302.216,592.003,294.4,590.708z"/>
<path fill-rule="evenodd" clip-rule="evenodd" fill="#286331" stroke="#010101" stroke-width="1.5" stroke-linecap="square" stroke-miterlimit="10" d="  M341.65,451.958c4.504-1.842,8.288-3.16,13.5-2.25c-3.985,10.584-13.328,17.62-25.5,16.5  C332.567,460.559,336.596,455.824,341.65,451.958z"/>
<path fill-rule="evenodd" clip-rule="evenodd" fill="#286331" stroke="#010101" stroke-width="1.5" stroke-linecap="square" stroke-miterlimit="10" d="  M327.4,465.458c3.959-10.356,1.24-19.677-6.75-26.25C315.527,449.621,317.341,459.8,327.4,465.458z"/>
<path fill-rule="evenodd" clip-rule="evenodd" fill="#286331" stroke="#010101" stroke-width="1.5" stroke-linecap="square" stroke-miterlimit="10" d="  M345.4,436.208c-12.539,4.25-17.607,16.535-16.5,29.25C339.329,458.578,345.79,447.707,345.4,436.208z"/>
<path fill-rule="evenodd" clip-rule="evenodd" fill="#286331" stroke="#010101" stroke-width="1.5" stroke-linecap="square" stroke-miterlimit="10" d="  M328.15,468.458c8.031,0.168,12.26-1.611,15.75,7.5C332.865,481.033,332.48,476.025,328.15,468.458z"/>
<path fill-rule="evenodd" clip-rule="evenodd" fill="#286331" stroke="#010101" stroke-width="1.5" stroke-linecap="square" stroke-miterlimit="10" d="  M327.4,468.458c-5.696-3.295-6.261-8.376-15-4.5C317.553,471.474,320.994,468.678,327.4,468.458z"/>
<path fill-rule="evenodd" clip-rule="evenodd" fill="#286331" stroke="#010101" stroke-width="1.5" stroke-linecap="square" stroke-miterlimit="10" d="  M364.15,493.958c4.69,0.856,8.423,1.789,12,5.25c-8.788,6.739-20.473,8.354-30,0.75C351.767,496.724,357.461,494.727,364.15,493.958  z"/>
<path fill-rule="evenodd" clip-rule="evenodd" fill="#286331" stroke="#010101" stroke-width="1.5" stroke-linecap="square" stroke-miterlimit="10" d="  M343.9,498.458c9.328-6.852,12.242-16.394,8.25-26.25C342.842,478.471,339.35,488.083,343.9,498.458z"/>
<path fill-rule="evenodd" clip-rule="evenodd" fill="#286331" stroke="#010101" stroke-width="1.5" stroke-linecap="square" stroke-miterlimit="10" d="  M374.65,481.958c-12.963-1.819-23.467,5.318-28.5,17.25C358.586,497.987,369.287,493.164,374.65,481.958z"/>
<path fill-rule="evenodd" clip-rule="evenodd" fill="#286331" stroke="#010101" stroke-width="1.5" stroke-linecap="square" stroke-miterlimit="10" d="  M343.9,500.708c6.805,4.524,11.603,5.299,9,15C341.014,513.464,343.446,509.086,343.9,500.708z"/>
<path fill-rule="evenodd" clip-rule="evenodd" fill="#EFC9E0" stroke="#010101" stroke-width="1.5" stroke-linecap="square" stroke-miterlimit="10" d="  M375.4,502.958c-5.366-6.943-7.791-7.535-12-16.5c-8.073,6.645-9.384,5.595-11.25,12.75c-2.589,0.493-4.137-1.023-6.75,0  c0.347,5.761,1.615,5.637,5.25,9c-0.142,2.008-3.565,3.13-3,6c3.824,0.636,4.089-1.094,7.5-1.5c5.713,5.604,0.977,5.872,6.75-0.75  c1.162,1.056,1.713,4.54,3,5.25c0.886-1.198-0.238-3.87,0-6c9.53,3.309,4.554,1.569,3.75-4.5  C371.894,506.905,374.182,505.566,375.4,502.958z"/>
<path fill-rule="evenodd" clip-rule="evenodd" fill="#F6EB16" stroke="#010101" stroke-width="1.5" stroke-linecap="square" stroke-miterlimit="10" d="  M364.15,503.708C355.872,503.591,355.847,503.591,364.15,503.708L364.15,503.708z"/>
<path fill-rule="evenodd" clip-rule="evenodd" fill="#286331" stroke="#010101" stroke-width="1.5" stroke-linecap="square" stroke-miterlimit="10" d="  M254.65,479.708c-1.27-4.807-2.138-9.124-0.75-14.25c10.093,5.675,15.778,15.969,12.75,27.75  C261.973,489.661,257.794,485.25,254.65,479.708z"/>
<path fill-rule="evenodd" clip-rule="evenodd" fill="#286331" stroke="#010101" stroke-width="1.5" stroke-linecap="square" stroke-miterlimit="10" d="  M265.9,495.458c-10.163-5.954-19.885-4.622-27,3C248.147,504.104,258.746,504.079,265.9,495.458z"/>
<path fill-rule="evenodd" clip-rule="evenodd" fill="#286331" stroke="#010101" stroke-width="1.5" stroke-linecap="square" stroke-miterlimit="10" d="  M238.9,472.958c3.259,12.889,13.815,20.465,27,21C260.669,482.666,251.146,473.836,238.9,472.958z"/>
<path fill-rule="evenodd" clip-rule="evenodd" fill="#286331" stroke="#010101" stroke-width="1.5" stroke-linecap="square" stroke-miterlimit="10" d="  M268.15,495.458c1.23-8.342,0.144-13.104,9.75-14.25C281.197,492.208,276.579,492.856,268.15,495.458z"/>
<path fill-rule="evenodd" clip-rule="evenodd" fill="#286331" stroke="#010101" stroke-width="1.5" stroke-linecap="square" stroke-miterlimit="10" d="  M268.15,495.458c-4.465,5.684-9.957,5.28-6,15C269.267,505.982,267.391,501.956,268.15,495.458z"/>
<path fill-rule="evenodd" clip-rule="evenodd" fill="#286331" stroke="#010101" stroke-width="1.5" stroke-linecap="square" stroke-miterlimit="10" d="  M235.9,493.208c-1.064-4.379-2.27-7.847-0.75-12.75c10.803,5.28,16.049,15.759,13.5,27.75  C243.379,504.122,239.167,499.109,235.9,493.208z"/>
<path fill-rule="evenodd" clip-rule="evenodd" fill="#286331" stroke="#010101" stroke-width="1.5" stroke-linecap="square" stroke-miterlimit="10" d="  M247.15,509.708c-10.141-4.737-19.722-3.698-27,3C229.629,518.678,239.907,518.343,247.15,509.708z"/>
<path fill-rule="evenodd" clip-rule="evenodd" fill="#286331" stroke="#010101" stroke-width="1.5" stroke-linecap="square" stroke-miterlimit="10" d="  M220.15,487.958c3.687,12.08,13.738,20.05,27,20.25C242.342,496.495,232.347,488.718,220.15,487.958z"/>
<path fill-rule="evenodd" clip-rule="evenodd" fill="#286331" stroke="#010101" stroke-width="1.5" stroke-linecap="square" stroke-miterlimit="10" d="  M250.15,508.958c1.622-7.94,0.018-12.329,9.75-13.5C262.479,507.169,257.919,506.596,250.15,508.958z"/>
<path fill-rule="evenodd" clip-rule="evenodd" fill="#286331" stroke="#010101" stroke-width="1.5" stroke-linecap="square" stroke-miterlimit="10" d="  M250.15,509.708c-5.35,5.121-10.276,5.702-6.75,15.75C250.438,520.478,249.502,516.341,250.15,509.708z"/>
<path fill-rule="evenodd" clip-rule="evenodd" fill="#286331" stroke="#010101" stroke-width="1.5" stroke-linecap="square" stroke-miterlimit="10" d="  M235.15,522.458c-3.904-2.808-7.13-5.625-9.75-9.75c11.257-3.025,22.418,0.839,27.75,12  C247.229,525.625,241.275,524.774,235.15,522.458z"/>
<path fill-rule="evenodd" clip-rule="evenodd" fill="#286331" stroke="#010101" stroke-width="1.5" stroke-linecap="square" stroke-miterlimit="10" d="  M254.65,526.208c-10.797,3.215-17.315,11.338-18.75,21C247.039,545.298,254.932,537.976,254.65,526.208z"/>
<path fill-rule="evenodd" clip-rule="evenodd" fill="#286331" stroke="#010101" stroke-width="1.5" stroke-linecap="square" stroke-miterlimit="10" d="  M219.4,528.458c11.067,7.544,23.801,5.888,33.75-3C241.569,520.788,229.353,521.473,219.4,528.458z"/>
<path fill-rule="evenodd" clip-rule="evenodd" fill="#286331" stroke="#010101" stroke-width="1.5" stroke-linecap="square" stroke-miterlimit="10" d="  M256.15,524.708c-4.106-6.892-8.009-9.461-2.25-17.25C263.424,513.965,259.868,517.393,256.15,524.708z"/>
<path fill-rule="evenodd" clip-rule="evenodd" fill="#286331" stroke="#010101" stroke-width="1.5" stroke-linecap="square" stroke-miterlimit="10" d="  M256.15,525.458c0.722,6.721-3.212,10.387,6,15C263.484,532.374,259.752,529.661,256.15,525.458z"/>
<path fill-rule="evenodd" clip-rule="evenodd" fill="#286331" stroke="#010101" stroke-width="1.5" stroke-linecap="square" stroke-miterlimit="10" d="  M382.15,529.208c1.971,4.7,3.518,8.145,3,13.5c-10.331-3.599-18.067-12.207-18.75-24  C372.578,521.018,377.399,524.411,382.15,529.208z"/>
<path fill-rule="evenodd" clip-rule="evenodd" fill="#286331" stroke="#010101" stroke-width="1.5" stroke-linecap="square" stroke-miterlimit="10" d="  M367.15,516.458c10.668,2.642,19.735-0.438,25.5-9C382.058,503.283,371.865,505.875,367.15,516.458z"/>
<path fill-rule="evenodd" clip-rule="evenodd" fill="#286331" stroke="#010101" stroke-width="1.5" stroke-linecap="square" stroke-miterlimit="10" d="  M398.65,531.458c-6.177-11.731-18.534-16.631-31.5-14.25C375.142,527.471,386.394,533.548,398.65,531.458z"/>
<path fill-rule="evenodd" clip-rule="evenodd" fill="#286331" stroke="#010101" stroke-width="1.5" stroke-linecap="square" stroke-miterlimit="10" d="  M364.9,516.458c-0.238,8.482,1.353,12.882-6.75,17.25C353.113,522.871,357.61,521.342,364.9,516.458z"/>
<path fill-rule="evenodd" clip-rule="evenodd" fill="#286331" stroke="#010101" stroke-width="1.5" stroke-linecap="square" stroke-miterlimit="10" d="  M364.9,516.458c3.447-6.223,7.714-7.976,2.25-16.5C362.036,506.121,363.84,510.11,364.9,516.458z"/>
<path fill-rule="evenodd" clip-rule="evenodd" fill="#286331" stroke="#010101" stroke-width="1.5" stroke-linecap="square" stroke-miterlimit="10" d="  M391.9,475.208c4.611-1.663,8.179-3.179,13.5-2.25c-4.252,10.49-13.994,17.777-26.25,16.5  C382.418,483.678,386.17,479.434,391.9,475.208z"/>
<path fill-rule="evenodd" clip-rule="evenodd" fill="#286331" stroke="#010101" stroke-width="1.5" stroke-linecap="square" stroke-miterlimit="10" d="  M376.9,488.708c4.435-10.78,2.491-20.379-6-27C366.062,471.913,367.882,482.274,376.9,488.708z"/>
<path fill-rule="evenodd" clip-rule="evenodd" fill="#286331" stroke="#010101" stroke-width="1.5" stroke-linecap="square" stroke-miterlimit="10" d="  M396.4,458.708c-12.377,4.833-18.906,16.101-18,29.25C389.049,481.285,396.669,470.766,396.4,458.708z"/>
<path fill-rule="evenodd" clip-rule="evenodd" fill="#286331" stroke="#010101" stroke-width="1.5" stroke-linecap="square" stroke-miterlimit="10" d="  M377.65,490.958c8.318,0.757,13.222-1.014,15,8.25C381.301,502.583,381.012,498.107,377.65,490.958z"/>
<path fill-rule="evenodd" clip-rule="evenodd" fill="#286331" stroke="#010101" stroke-width="1.5" stroke-linecap="square" stroke-miterlimit="10" d="  M376.9,490.958c-5.775-4.006-5.667-9.906-15-4.5C366.665,492.315,370.618,490.728,376.9,490.958z"/>
<path fill-rule="evenodd" clip-rule="evenodd" fill="#286331" stroke="#010101" stroke-width="1.5" stroke-linecap="square" stroke-miterlimit="10" d="  M282.4,453.458c-0.954-4.863-1.269-9.286,0-14.25c9.675,5.944,15.37,16.074,12.75,27.75  C289.34,463.645,285.873,459.382,282.4,453.458z"/>
<path fill-rule="evenodd" clip-rule="evenodd" fill="#286331" stroke="#010101" stroke-width="1.5" stroke-linecap="square" stroke-miterlimit="10" d="  M294.4,469.958c-10.415-6.238-20.582-4.721-27.75,3C276.377,478.385,286.931,478.257,294.4,469.958z"/>
<path fill-rule="evenodd" clip-rule="evenodd" fill="#286331" stroke="#010101" stroke-width="1.5" stroke-linecap="square" stroke-miterlimit="10" d="  M267.4,447.458c2.694,13.005,14.037,19.494,27,21C288.965,456.907,279.564,448.623,267.4,447.458z"/>
<path fill-rule="evenodd" clip-rule="evenodd" fill="#286331" stroke="#010101" stroke-width="1.5" stroke-linecap="square" stroke-miterlimit="10" d="  M295.9,469.208c1.908-7.912,1.291-12.887,10.5-14.25C309.073,467.168,304.038,466.595,295.9,469.208z"/>
<path fill-rule="evenodd" clip-rule="evenodd" fill="#286331" stroke="#010101" stroke-width="1.5" stroke-linecap="square" stroke-miterlimit="10" d="  M295.9,469.958c-4.044,5.613-9.405,5.996-5.25,15C297.106,480.262,295.292,476.17,295.9,469.958z"/>
<path fill-rule="evenodd" clip-rule="evenodd" fill="#286331" stroke="#010101" stroke-width="1.5" stroke-linecap="square" stroke-miterlimit="10" d="  M305.65,450.458c2.408-3.883,5.617-7.354,9-10.5c4.063,11.196,0.792,22.621-9.75,29.25  C303.715,462.932,304.04,456.735,305.65,450.458z"/>
<path fill-rule="evenodd" clip-rule="evenodd" fill="#286331" stroke="#010101" stroke-width="1.5" stroke-linecap="square" stroke-miterlimit="10" d="  M302.65,469.958c-3.385-11.126-11.235-16.936-21.75-16.5C284.039,463.922,291.691,471.417,302.65,469.958z"/>
<path fill-rule="evenodd" clip-rule="evenodd" fill="#286331" stroke="#010101" stroke-width="1.5" stroke-linecap="square" stroke-miterlimit="10" d="  M298.9,435.458c-6.813,11.277-3.91,23.863,5.25,33C307.592,456.707,306.865,444.857,298.9,435.458z"/>
<path fill-rule="evenodd" clip-rule="evenodd" fill="#286331" stroke="#010101" stroke-width="1.5" stroke-linecap="square" stroke-miterlimit="10" d="  M304.15,471.458c7.23-4.829,9.895-9.002,18-3C316.277,477.988,312.271,475.437,304.15,471.458z"/>
<path fill-rule="evenodd" clip-rule="evenodd" fill="#286331" stroke="#010101" stroke-width="1.5" stroke-linecap="square" stroke-miterlimit="10" d="  M304.15,472.208c-6.633,0.696-10.308-3.562-14.25,6C297.242,479.448,299.552,475.77,304.15,472.208z"/>
<path fill-rule="evenodd" clip-rule="evenodd" fill="#EFC9E0" stroke="#010101" stroke-width="1.5" stroke-linecap="square" stroke-miterlimit="10" d="  M331.15,466.958c-4.857-6.639-7.155-7.228-12-16.5c-7.255,6.933-9.108,5.361-11.25,12.75c-3.32,0.646-3.57-0.779-6.75,0.75  c0.649,5.04,1.308,8.598,3,14.25c3.448,0.721,3.725-1.45,6.75-1.5c6.387,5.763,0.974,6.369,6.75-0.75  c1.077,1.539,2.196,4.962,3.75,6c0.764-1.836-0.584-4.909-0.75-6.75c9.588,3.39,4.898,1.886,3.75-4.5  C328.101,471.137,329.907,469.779,331.15,466.958z"/>
<path fill-rule="evenodd" clip-rule="evenodd" fill="#F6EB16" stroke="#010101" stroke-width="1.5" stroke-linecap="square" stroke-miterlimit="10" d="  M319.9,467.708C311.621,467.708,311.621,467.708,319.9,467.708L319.9,467.708z"/>
<path fill-rule="evenodd" clip-rule="evenodd" fill="#EFC9E0" stroke="#010101" stroke-width="1.5" stroke-linecap="square" stroke-miterlimit="10" d="  M277.9,511.208c-5.688-6.824-7.878-7.508-12-15.75c-7.86,5.795-9.689,4.87-11.25,12c-2.726,0.627-3.81-0.728-6.75,0.75  c0.644,5.554,1.467,4.971,5.25,8.25c-0.028,2.614-2.794,3.479-1.5,6.75c2.768,0.006,3.646-2.024,6-2.25  c1.066,1.091-0.002,4.639,2.25,6c2.441-2.451,2.666-4.336,4.5-6.75c1.451,1.338,1.667,4.459,3.75,5.25  c0.68-1.698-1.099-3.623-0.75-5.25c8.51,1.27,4.765,2.064,3.75-5.25C274.965,515.231,276.368,513.44,277.9,511.208z"/>
<path fill-rule="evenodd" clip-rule="evenodd" fill="#F6EB16" stroke="#010101" stroke-width="1.5" stroke-linecap="square" stroke-miterlimit="10" d="  M266.65,511.958C258.17,512.069,258.224,512.069,266.65,511.958L266.65,511.958z"/>
<path fill-rule="evenodd" clip-rule="evenodd" fill="#EFC9E0" stroke="#010101" stroke-width="1.5" stroke-linecap="square" stroke-miterlimit="10" d="  M403.9,499.208c-5.33-6.013-8.876-6.712-12-15.75c-6.576,6.592-8.865,5.67-11.25,12c-2.282,0.69-4.598-0.148-6.75,0.75  c0.689,4.169,2.153,0.765,3.75,3.75c-0.663,1.662-3.738,1.36-3.75,3.75c1.711,0.634,3.461,1.134,5.25,1.5  c-0.4,2.58-3.074,2.873-2.25,6c3.48,0.958,3.042-2.045,6-2.25c5.946,6.616,1.99,8.612,7.5,0c0.783,1.876,1.783,3.626,3,5.25  c1.112-1.505-0.581-3.906-0.75-6c3.667,0.964,3.751,1.513,7.5,1.5c-0.167-0.327-3.112-7.018-3-6  C400.944,503.459,402.58,501.713,403.9,499.208z"/>
<path fill-rule="evenodd" clip-rule="evenodd" fill="#F6EB16" stroke="#010101" stroke-width="1.5" stroke-linecap="square" stroke-miterlimit="10" d="  M391.9,500.708C384.644,500.95,384.415,500.958,391.9,500.708L391.9,500.708z"/>
<path fill-rule="evenodd" clip-rule="evenodd" fill="#F2EA31" stroke="#010101" stroke-width="1.5" stroke-linecap="square" stroke-miterlimit="10" d="  M441.404,302.707c-0.25,4.5-0.5,9-0.75,13.5c3-3.75,6-7.5,9-11.25c1,4.5,2,9,3,13.5c1.25-4.5,2.5-9,3.75-13.5  c2.799,4.699,7.383,8.586,9.75,13.5c-2.379-5.199-2.027-11.771-3.75-17.25c6.333,2.34,14.2,1.568,20.25,4.5  c-4.987-3.786-7.992-10.157-12.75-14.25c14-0.5,28-1,42-1.5c-13.5-3.25-27-6.5-40.5-9.75c5.704-2.951,10.574-8.072,16.5-10.5  c-5.802,2.147-12.729,1.483-18.75,3c3.329-5.053,4.565-11.721,8.25-16.5c-4.081,4.311-11.081,6.024-15.75,9.75c-1-3.25-2-6.5-3-9.75  c-2,2-4,4-6,6c-2.646-5.724-8.642-10.516-10.5-16.5c1.003,6.779-1.961,14.139-1.5,21c-4.328-3.629-10.322-5.719-14.25-9.75  c3.536,4.046,5.115,9.864,8.25,14.25c-4.5-0.25-9-0.5-13.5-0.75c3.5,2.5,7,5,10.5,7.5c-6.045,0.817-11.93,4.103-18.002,4.5  c6.342,0.482,12.453,4.233,18.752,5.25c-4.73,3.013-8.528,7.939-13.5,10.5c4.909-2.056,10.697-2.045,15.75-3.75  c-3.081,3.945-4.909,9.036-8.25,12.75c3.5-2.25,7-4.5,10.5-6.75c-4.001,7.512-6.506,15.826-10.5,23.25  C431.389,316.729,436.757,309.911,441.404,302.707z"/>
<path fill-rule="evenodd" clip-rule="evenodd" fill="#F58020" stroke="#010101" stroke-width="1.5" stroke-linecap="square" stroke-miterlimit="10" d="  M465.404,285.457c-1.919,17.799-28.821,19.063-28.5,0C437.218,266.88,463.037,268.553,465.404,285.457z"/>
<path fill-rule="evenodd" clip-rule="evenodd" fill="#73BF44" stroke="#010101" stroke-width="1.5" stroke-linecap="square" stroke-miterlimit="10" d="  M519.404,404.707c-26.607-30.16-71.04-30.92-98.25,0C453.904,404.707,486.654,404.707,519.404,404.707z"/>
<path fill-rule="evenodd" clip-rule="evenodd" fill="#2B9A47" stroke="#010101" stroke-width="1.5" stroke-linecap="square" stroke-miterlimit="10" d="  M604.154,404.707c-46.399-27.394-108.101-25.025-155.25,0C500.654,404.707,552.404,404.707,604.154,404.707z"/>
<path fill-rule="evenodd" clip-rule="evenodd" fill="#A05927" stroke="#010101" stroke-width="1.5" stroke-linecap="square" stroke-miterlimit="10" d="  M499.904,403.957c2.147-47.143,5.421-49.463-41.25-63.75c11.575,2.108,22.951,5.464,34.5,7.5  c-12.074-13.744-28.253-19.449-46.5-22.5c5.635,0.96,11.589,0.824,17.25,1.5c-9.068-4.62-18.069-9.37-27-14.25  c17.844,7.164,36.591,14.77,51.75,26.25c-8.87-13.471-22.549-24.847-33.75-36.75c3.829,3.949,9.927,6.962,14.25,10.5  c-0.36-5.381,0.449-11.209-0.75-16.5c2.193,27.425,29.689,37.769,38.25,61.5c10.718-27.741,8.817-51.121-6-76.5  c3.132,4.666,7.845,9.418,11.25,14.25c-1.501-9.161-4.859-18.178-9.75-26.25c8.309,13.221,13.458,28.173,16.5,43.5  c3.923-19.202,10.12-37.527,19.5-54.75c-3.72,7.09-5.698,14.841-8.25,22.5c7.186-7.927,13.639-16.762,21-24.75  c-19.439,31.837-28.305,53.802-33.75,91.5c16.834-15.262,34.926-32.16,55.5-42c-3,2.25-6,4.5-9,6.75c10.5-4,21-8,31.5-12  c-18.139,7.44-37.56,15.238-51,30c12.844-2.656,25.996-2.833,39-1.5c-46.813,1.449-78.254,27.916-59.25,75.75  C516.502,403.957,507.064,405.681,499.904,403.957z"/>
<path fill-rule="evenodd" clip-rule="evenodd" fill="#286331" stroke="#010101" stroke-width="1.5" stroke-linecap="square" stroke-miterlimit="10" d="  M546.404,270.457c4.152-1.732,7.627-3.251,12.75-2.25c-4.12,9.902-13.101,17.005-24.75,15.75  C537.348,278.676,541.417,274.237,546.404,270.457z"/>
<path fill-rule="evenodd" clip-rule="evenodd" fill="#286331" stroke="#010101" stroke-width="1.5" stroke-linecap="square" stroke-miterlimit="10" d="  M532.154,283.207c3.825-9.981,1.512-18.806-6.75-24.75C521.084,268.389,522.886,277.872,532.154,283.207z"/>
<path fill-rule="evenodd" clip-rule="evenodd" fill="#286331" stroke="#010101" stroke-width="1.5" stroke-linecap="square" stroke-miterlimit="10" d="  M549.404,254.707c-11.465,4.782-16.985,16.28-15.75,28.5C544.065,276.646,549.93,266.04,549.404,254.707z"/>
<path fill-rule="evenodd" clip-rule="evenodd" fill="#286331" stroke="#010101" stroke-width="1.5" stroke-linecap="square" stroke-miterlimit="10" d="  M532.904,286.207c7.867,0.085,12.012-2.403,15,7.5C537.765,297.718,536.818,293.29,532.904,286.207z"/>
<path fill-rule="evenodd" clip-rule="evenodd" fill="#286331" stroke="#010101" stroke-width="1.5" stroke-linecap="square" stroke-miterlimit="10" d="  M532.154,286.207c-5.479-3.437-5.851-8.807-14.25-3.75C523.271,289.065,526.592,285.807,532.154,286.207z"/>
<path fill-rule="evenodd" clip-rule="evenodd" fill="#286331" stroke="#010101" stroke-width="1.5" stroke-linecap="square" stroke-miterlimit="10" d="  M567.404,310.957c4.81,0.867,8.139,1.043,12,4.5c-8.784,7.05-19.745,8-29.25,1.5C555.602,313.061,560.609,311.696,567.404,310.957z"/>
<path fill-rule="evenodd" clip-rule="evenodd" fill="#286331" stroke="#010101" stroke-width="1.5" stroke-linecap="square" stroke-miterlimit="10" d="  M547.904,314.707c9.358-6.548,12.15-15.898,8.25-25.5C547.741,295.412,544.402,304.95,547.904,314.707z"/>
<path fill-rule="evenodd" clip-rule="evenodd" fill="#286331" stroke="#010101" stroke-width="1.5" stroke-linecap="square" stroke-miterlimit="10" d="  M577.904,298.957c-12.178-1.388-22.444,5.352-27.75,16.5C562.121,315.274,572.896,309.792,577.904,298.957z"/>
<path fill-rule="evenodd" clip-rule="evenodd" fill="#286331" stroke="#010101" stroke-width="1.5" stroke-linecap="square" stroke-miterlimit="10" d="  M547.904,317.707c6.468,4.102,11.62,3.691,9,13.5C545.465,330.136,548.461,325.667,547.904,317.707z"/>
<path fill-rule="evenodd" clip-rule="evenodd" fill="#286331" stroke="#010101" stroke-width="1.5" stroke-linecap="square" stroke-miterlimit="10" d="  M462.404,296.707c-1.137-4.449-2.156-8.563-0.75-13.5c9.458,5.546,14.94,15.683,12,27  C469.097,306.376,465.519,302.159,462.404,296.707z"/>
<path fill-rule="evenodd" clip-rule="evenodd" fill="#286331" stroke="#010101" stroke-width="1.5" stroke-linecap="square" stroke-miterlimit="10" d="  M472.904,312.457c-9.483-5.601-18.689-4.658-26.25,2.25C455.353,320.653,465.225,320.466,472.904,312.457z"/>
<path fill-rule="evenodd" clip-rule="evenodd" fill="#286331" stroke="#010101" stroke-width="1.5" stroke-linecap="square" stroke-miterlimit="10" d="  M446.654,290.707c3.679,12.07,13.809,19.373,26.25,20.25C468.491,299.059,458.816,291.438,446.654,290.707z"/>
<path fill-rule="evenodd" clip-rule="evenodd" fill="#286331" stroke="#010101" stroke-width="1.5" stroke-linecap="square" stroke-miterlimit="10" d="  M475.154,312.457c1.674-8.255,0.253-12.732,9.75-14.25C487.997,309.071,483.248,309.583,475.154,312.457z"/>
<path fill-rule="evenodd" clip-rule="evenodd" fill="#286331" stroke="#010101" stroke-width="1.5" stroke-linecap="square" stroke-miterlimit="10" d="  M475.154,312.457c-3.824,5.123-9.047,5.115-5.25,14.25C476.116,322.162,474.602,318.059,475.154,312.457z"/>
<path fill-rule="evenodd" clip-rule="evenodd" fill="#286331" stroke="#010101" stroke-width="1.5" stroke-linecap="square" stroke-miterlimit="10" d="  M444.404,310.207c-0.963-4.371-2.192-7.91-0.75-12.75c10.063,5.414,15.144,15.575,12.75,27  C451.171,320.56,447.494,315.915,444.404,310.207z"/>
<path fill-rule="evenodd" clip-rule="evenodd" fill="#286331" stroke="#010101" stroke-width="1.5" stroke-linecap="square" stroke-miterlimit="10" d="  M454.904,325.957c-9.697-4.751-19.012-3.643-26.25,3C437.967,334.53,447.856,334.499,454.904,325.957z"/>
<path fill-rule="evenodd" clip-rule="evenodd" fill="#286331" stroke="#010101" stroke-width="1.5" stroke-linecap="square" stroke-miterlimit="10" d="  M428.654,304.957c3.816,11.724,13.636,19.32,26.25,19.5C450.127,313.121,440.522,305.151,428.654,304.957z"/>
<path fill-rule="evenodd" clip-rule="evenodd" fill="#286331" stroke="#010101" stroke-width="1.5" stroke-linecap="square" stroke-miterlimit="10" d="  M457.904,325.207c1.947-7.597-0.963-12.286,9.75-12.75C469.865,323.841,464.715,322.023,457.904,325.207z"/>
<path fill-rule="evenodd" clip-rule="evenodd" fill="#286331" stroke="#010101" stroke-width="1.5" stroke-linecap="square" stroke-miterlimit="10" d="  M457.904,325.957c-4.471,5.249-9.935,5.043-6,15C457.995,336.287,456.879,332.329,457.904,325.957z"/>
<path fill-rule="evenodd" clip-rule="evenodd" fill="#286331" stroke="#010101" stroke-width="1.5" stroke-linecap="square" stroke-miterlimit="10" d="  M443.654,337.957c-4.031-2.779-7.001-3.972-9-9c10.589-2.858,20.758,1.017,26.25,11.25  C455.075,340.954,449.672,340.03,443.654,337.957z"/>
<path fill-rule="evenodd" clip-rule="evenodd" fill="#286331" stroke="#010101" stroke-width="1.5" stroke-linecap="square" stroke-miterlimit="10" d="  M462.404,342.457c-11.009,2.092-17.102,9.818-18,19.5C454.853,360.337,461.925,353.437,462.404,342.457z"/>
<path fill-rule="evenodd" clip-rule="evenodd" fill="#286331" stroke="#010101" stroke-width="1.5" stroke-linecap="square" stroke-miterlimit="10" d="  M428.654,343.957c10.412,7.191,22.539,5.154,32.25-2.25C449.811,336.014,437.637,336.885,428.654,343.957z"/>
<path fill-rule="evenodd" clip-rule="evenodd" fill="#286331" stroke="#010101" stroke-width="1.5" stroke-linecap="square" stroke-miterlimit="10" d="  M463.904,340.207c-4.01-6.672-8.458-8.957-2.25-16.5C471.216,330.396,466.573,332.937,463.904,340.207z"/>
<path fill-rule="evenodd" clip-rule="evenodd" fill="#286331" stroke="#010101" stroke-width="1.5" stroke-linecap="square" stroke-miterlimit="10" d="  M463.904,340.957c0.602,6.664-3.531,10.479,6,14.25C471.325,347.5,467.407,345.689,463.904,340.957z"/>
<path fill-rule="evenodd" clip-rule="evenodd" fill="#286331" stroke="#010101" stroke-width="1.5" stroke-linecap="square" stroke-miterlimit="10" d="  M584.654,344.707c2.364,4.508,4.59,7.077,3.75,12.75c-10.214-2.772-17.888-11.001-18-22.5  C576.134,336.574,580.259,339.939,584.654,344.707z"/>
<path fill-rule="evenodd" clip-rule="evenodd" fill="#286331" stroke="#010101" stroke-width="1.5" stroke-linecap="square" stroke-miterlimit="10" d="  M571.154,331.957c10.035,2.621,18.542-0.112,24-8.25C585.065,319.698,575.71,322.221,571.154,331.957z"/>
<path fill-rule="evenodd" clip-rule="evenodd" fill="#286331" stroke="#010101" stroke-width="1.5" stroke-linecap="square" stroke-miterlimit="10" d="  M601.154,346.957c-5.972-11.221-17.455-15.556-30-13.5C578.859,343.445,589.363,348.813,601.154,346.957z"/>
<path fill-rule="evenodd" clip-rule="evenodd" fill="#286331" stroke="#010101" stroke-width="1.5" stroke-linecap="square" stroke-miterlimit="10" d="  M568.904,332.707c0.302,7.909,1.807,11.913-6.75,15.75C556.323,338.202,561.312,337.204,568.904,332.707z"/>
<path fill-rule="evenodd" clip-rule="evenodd" fill="#286331" stroke="#010101" stroke-width="1.5" stroke-linecap="square" stroke-miterlimit="10" d="  M568.154,331.957c2.945-5.612,7.683-6.493,3-15C564.948,322.601,567.616,325.962,568.154,331.957z"/>
<path fill-rule="evenodd" clip-rule="evenodd" fill="#286331" stroke="#010101" stroke-width="1.5" stroke-linecap="square" stroke-miterlimit="10" d="  M594.404,292.957c4.438-1.545,7.618-3.151,12.75-2.25c-4.026,10.521-13.216,16.724-24.75,15.75  C585.416,301.017,589.412,296.697,594.404,292.957z"/>
<path fill-rule="evenodd" clip-rule="evenodd" fill="#286331" stroke="#010101" stroke-width="1.5" stroke-linecap="square" stroke-miterlimit="10" d="  M580.154,305.707c4.445-10.484,2.45-19.713-6-26.25C569.289,289.755,571.284,299.459,580.154,305.707z"/>
<path fill-rule="evenodd" clip-rule="evenodd" fill="#286331" stroke="#010101" stroke-width="1.5" stroke-linecap="square" stroke-miterlimit="10" d="  M598.904,277.207c-12.328,3.954-18.346,15.185-17.25,27.75C592.135,298.501,598.585,288.582,598.904,277.207z"/>
<path fill-rule="evenodd" clip-rule="evenodd" fill="#286331" stroke="#010101" stroke-width="1.5" stroke-linecap="square" stroke-miterlimit="10" d="  M580.904,307.207c7.91,1.044,12.417-1.488,14.25,9C584.452,319.274,583.986,314.705,580.904,307.207z"/>
<path fill-rule="evenodd" clip-rule="evenodd" fill="#286331" stroke="#010101" stroke-width="1.5" stroke-linecap="square" stroke-miterlimit="10" d="  M580.154,307.207c-5.729-3.71-6.472-8.665-15-3.75C570.667,309.21,574.304,307.304,580.154,307.207z"/>
<path fill-rule="evenodd" clip-rule="evenodd" fill="#286331" stroke="#010101" stroke-width="1.5" stroke-linecap="square" stroke-miterlimit="10" d="  M488.654,271.207c-0.738-4.14-0.976-8.465,0-12.75c9.759,5.406,14.859,15.083,12,26.25  C496.133,281.273,491.863,276.635,488.654,271.207z"/>
<path fill-rule="evenodd" clip-rule="evenodd" fill="#286331" stroke="#010101" stroke-width="1.5" stroke-linecap="square" stroke-miterlimit="10" d="  M499.904,287.707c-9.547-5.931-18.978-4.668-26.25,2.25C482.89,296.146,492.598,295.876,499.904,287.707z"/>
<path fill-rule="evenodd" clip-rule="evenodd" fill="#286331" stroke="#010101" stroke-width="1.5" stroke-linecap="square" stroke-miterlimit="10" d="  M474.404,265.957c2.93,12.051,13.205,18.756,25.5,20.25C495.628,274.818,485.785,267.032,474.404,265.957z"/>
<path fill-rule="evenodd" clip-rule="evenodd" fill="#286331" stroke="#010101" stroke-width="1.5" stroke-linecap="square" stroke-miterlimit="10" d="  M502.154,286.957c1.886-7.484,1.569-12.073,9.75-14.25C514.709,284.191,510.234,284.517,502.154,286.957z"/>
<path fill-rule="evenodd" clip-rule="evenodd" fill="#286331" stroke="#010101" stroke-width="1.5" stroke-linecap="square" stroke-miterlimit="10" d="  M502.154,287.707c-3.898,5.096-9.35,5.241-5.25,14.25C503.291,297.041,501.594,293.131,502.154,287.707z"/>
<path fill-rule="evenodd" clip-rule="evenodd" fill="#286331" stroke="#010101" stroke-width="1.5" stroke-linecap="square" stroke-miterlimit="10" d="  M511.904,268.957c2.262-3.765,4.247-7.213,8.25-9.75c3.893,10.534,0.593,21.146-9,27.75  C509.624,280.73,510.273,275.349,511.904,268.957z"/>
<path fill-rule="evenodd" clip-rule="evenodd" fill="#286331" stroke="#010101" stroke-width="1.5" stroke-linecap="square" stroke-miterlimit="10" d="  M508.154,287.707c-3.049-10.701-10.411-16.581-20.25-16.5C490.282,281.965,497.545,288.668,508.154,287.707z"/>
<path fill-rule="evenodd" clip-rule="evenodd" fill="#286331" stroke="#010101" stroke-width="1.5" stroke-linecap="square" stroke-miterlimit="10" d="  M505.154,253.957c-6.759,10.852-4.221,22.941,4.5,32.25C513.746,274.858,512.306,262.874,505.154,253.957z"/>
<path fill-rule="evenodd" clip-rule="evenodd" fill="#286331" stroke="#010101" stroke-width="1.5" stroke-linecap="square" stroke-miterlimit="10" d="  M510.404,288.457c7.082-4.437,9.466-8.305,17.25-2.25C521.348,296.045,518.3,292.464,510.404,288.457z"/>
<path fill-rule="evenodd" clip-rule="evenodd" fill="#286331" stroke="#010101" stroke-width="1.5" stroke-linecap="square" stroke-miterlimit="10" d="  M510.404,289.207c-6.844,0.935-10.379-2.817-14.25,6C503.795,296.668,505.525,292.908,510.404,289.207z"/>
<path fill-rule="evenodd" clip-rule="evenodd" fill="#F58020" stroke="#010101" stroke-width="1.5" stroke-linecap="square" stroke-miterlimit="10" d="  M475.904,316.957C464.87,317.937,465.299,315.49,475.904,316.957L475.904,316.957z"/>
<path fill-rule="evenodd" clip-rule="evenodd" fill="#F58020" stroke="#010101" stroke-width="1.5" stroke-linecap="square" stroke-miterlimit="10" d="  M512.654,284.707C501.881,287.499,501.691,281.782,512.654,284.707L512.654,284.707z"/>
<path fill-rule="evenodd" clip-rule="evenodd" fill="#F58020" stroke="#010101" stroke-width="1.5" stroke-linecap="square" stroke-miterlimit="10" d="  M488.654,280.957C478.399,281.997,478.92,279.024,488.654,280.957L488.654,280.957z"/>
<path fill-rule="evenodd" clip-rule="evenodd" fill="#F58020" stroke="#010101" stroke-width="1.5" stroke-linecap="square" stroke-miterlimit="10" d="  M559.904,333.457C549.524,336.072,549.524,330.841,559.904,333.457L559.904,333.457z"/>
<path fill-rule="evenodd" clip-rule="evenodd" fill="#F58020" stroke="#010101" stroke-width="1.5" stroke-linecap="square" stroke-miterlimit="10" d="  M576.404,294.457C564.375,297.746,564.389,291.06,576.404,294.457L576.404,294.457z"/>
<path fill-rule="evenodd" clip-rule="evenodd" fill="#F58020" stroke="#010101" stroke-width="1.5" stroke-linecap="square" stroke-miterlimit="10" d="  M589.154,335.707C577.182,338.237,577.381,332.203,589.154,335.707L589.154,335.707z"/>
<path fill-rule="evenodd" clip-rule="evenodd" fill="#F58020" stroke="#010101" stroke-width="1.5" stroke-linecap="square" stroke-miterlimit="10" d="  M451.154,334.957C439.097,337.85,439.665,331.062,451.154,334.957L451.154,334.957z"/>
<path fill-rule="evenodd" clip-rule="evenodd" fill="#F58020" stroke="#010101" stroke-width="1.5" stroke-linecap="square" stroke-miterlimit="10" d="  M454.154,298.207C444.043,299.456,443.846,295.807,454.154,298.207L454.154,298.207z"/>
<path fill-rule="evenodd" clip-rule="evenodd" fill="#F58020" stroke="#010101" stroke-width="1.5" stroke-linecap="square" stroke-miterlimit="10" d="  M472.904,342.457C462.145,345.997,461.812,341.335,472.904,342.457L472.904,342.457z"/>
</svg>