<svg xmlns="http://www.w3.org/2000/svg" xmlns:xlink="http://www.w3.org/1999/xlink" version="1.1" id="Layer_1" x="0px" y="0px" enable-background="new 0 0 822.05 841.89" xml:space="preserve" viewBox="300.37 246.02 220.47 350">
<path fill-rule="evenodd" clip-rule="evenodd" fill="#007647" stroke="#000000" stroke-width="2" stroke-linecap="square" stroke-miterlimit="10" d="  M301.37,267.269c12.767,10.435,36.207,26.41,41.25,42.75c5.142,16.66-2.475,19.05-8.25,36c-14.012,41.126,17.145,61.72,38.25,93.377  c8.15,12.225,13.811,28.069,10.875,42.75c-2.821,14.106-17.522,13.202-23.625,23.625c-21.678,37.025,28.41,71.153,55.5,89.25  c-26.737-28.62-32.704-44.091-18-75.75c18.065-38.896,6.216-53.77-19.5-87c-9.644-12.462-22.649-27.704-24-44.252  c-1.549-18.985,13.118-36.966,10.5-57C360.763,303.413,332.657,263.256,301.37,267.269z"/>
<path fill-rule="evenodd" clip-rule="evenodd" fill="#007647" stroke="#000000" stroke-width="2" stroke-linecap="square" stroke-miterlimit="10" d="  M415.37,595.021c3.006-19.695,8.802-44.284,21-60.75c9.161-12.365,31.862-17.586,36-30c6.862-20.586-7.589-40.233-3-62.25  c1.466-7.034,13.603-8.394,10.5-15.376c-3.797-8.545-6.528-17.939-6.75-27.376c-0.449-19.126,9.075-25.114,15.75-40.5  c19.562-45.092-6.318-81.737-45.75-104.25c31.496,8.667,70.938,26.318,76.125,62.625c4.592,32.142-19.12,56.812-15.375,89.625  c3.345,29.303,9.785,79.303-6.75,108.002C477.719,548.444,430.649,553.364,415.37,595.021z"/>
<path fill-rule="evenodd" clip-rule="evenodd" fill="#007647" stroke="#000000" stroke-width="2" stroke-linecap="square" stroke-miterlimit="10" d="  M380.87,247.019c-17.986,20.696-16.627,47.848,0.375,68.25c22.962,27.555,10.747,52.845,19.77,83.974  c9.096,31.382,34.303,70.835,19.605,103.903c-15.128,34.038-21.413,55.59-5.25,91.875c-0.167-38.622,8.977-61.35,21.75-94.5  c14.971-38.854-8.312-54.035-18.958-87.824c-7.783-24.704-5.649-34.189-6.542-56.178c-0.557-13.718-2.184-24.505-9-36.75  C388.088,293.663,368.529,281.019,380.87,247.019z"/>
</svg>