<svg xmlns="http://www.w3.org/2000/svg" xmlns:xlink="http://www.w3.org/1999/xlink" version="1.1" id="Layer_1" x="0px" y="0px" enable-background="new 0 0 822.05 841.89" xml:space="preserve" viewBox="203.75 306.68 415.25 235.15">
<path fill-rule="evenodd" clip-rule="evenodd" fill="#AF8977" stroke="#000000" stroke-width="2" stroke-linecap="square" stroke-miterlimit="10" d="  M205.5,519.816c87.963-45.556,175.926-91.111,263.889-136.667C492.191,371.34,590.521,301.667,618,336.066  c-90.376,51.754-180.753,103.508-271.129,155.262c-28.529,16.338-58.832,40.536-91.121,47.238  C240.947,541.639,198.64,545.705,205.5,519.816z"/>
<path fill-rule="evenodd" clip-rule="evenodd" fill="#6C5635" stroke="#000000" stroke-width="2" stroke-linecap="square" stroke-miterlimit="10" d="  M283.5,466.566c0,40.945,10.381,56.93,12.75,6c22.461,15.856,35.88-8.449-4.125-20.625  C245.829,437.851,261.859,472.445,283.5,466.566z"/>
<path fill-rule="evenodd" clip-rule="evenodd" fill="#6C5635" stroke="#000000" stroke-width="2" stroke-linecap="square" stroke-miterlimit="10" d="  M540.75,325.566c0,40.619,9.63,56.954,12,6c23.473,16.321,35.67-8.451-3.75-20.625C504.562,297.217,517.754,331.678,540.75,325.566z  "/>
<path fill-rule="evenodd" clip-rule="evenodd" fill="#6C5635" stroke="#000000" stroke-width="2" stroke-linecap="square" stroke-miterlimit="10" d="  M376.5,474.816c-2.944,4.091-4.114,10.285-6,15c13.563,4.933,35.286,18.445,49.5,18c17.115-0.536,42.629-19.128,58.5-26.25  c-4.594-5.893-31.775-45.764-36.072-43.377C420.452,450.398,398.476,462.607,376.5,474.816z"/>
<line fill="none" stroke="#000000" stroke-width="2" stroke-linecap="square" stroke-miterlimit="10" x1="444" y1="440.316" x2="420" y2="507.816"/>
</svg>