<svg xmlns="http://www.w3.org/2000/svg" xmlns:xlink="http://www.w3.org/1999/xlink" version="1.1" id="Layer_1" x="0px" y="0px" enable-background="new 0 0 822.05 841.89" xml:space="preserve" viewBox="334.02 247.73 154.25 349.25">
<path fill-rule="evenodd" clip-rule="evenodd" fill="#0DB14B" stroke="#000000" stroke-width="2" stroke-linecap="square" stroke-miterlimit="10" d="  M408.518,379.982c-20.542-33.559-32.061-61.325-73.5-62.25c32.112-22.71,60.278,9.422,74.25,36.75  c5.938-40.537-8.984-65.448,12.002-105.75c13.606,35.585-3.544,69.818-8.252,105c19.08-5.28,17.238-33.13,28.127-48.375  c13.592-19.028,36.213-20.671,46.125-43.125c-12.615,40.406-44.869,63.497-63,98.625c-5.976,11.578-16.114,81.755,4.5,78.377  c-4.015,15.289,1.429,101.129-10.125,105.75c-17.468,6.987-24.071,34.304-25.127,51c-1.64-38.545,14.256-65.911,16.846-106.691  C412.722,452.143,410.999,417.2,408.518,379.982z"/>
<path fill-rule="evenodd" clip-rule="evenodd" fill="#967A66" stroke="#000000" stroke-width="2" stroke-linecap="square" stroke-miterlimit="10" d="  M418.27,437.734c-6.39-15.899,18.816-73.128,38.25-53.252C474.537,402.91,434.365,436.439,418.27,437.734z"/>
<path fill-rule="evenodd" clip-rule="evenodd" fill="#967A66" stroke="#000000" stroke-width="2" stroke-linecap="square" stroke-miterlimit="10" d="  M410.768,401.732c-42.42-62.474-40.175,27.138-0.75,38.252C410.268,427.233,410.518,414.482,410.768,401.732z"/>
<path fill="none" stroke="#000000" stroke-width="2" stroke-linecap="square" stroke-miterlimit="10" d="M401.018,568.984  c22.804,2.538,12.378,29.015,31.502,25.5"/>
<path fill="none" stroke="#000000" stroke-width="2" stroke-linecap="square" stroke-miterlimit="10" d="M411.518,551.734  c21.123-5.808,13.969,12.911,26.252,20.25c11.884,7.101,24.127-12.063,27,11.25"/>
</svg>