<svg xmlns="http://www.w3.org/2000/svg" xmlns:xlink="http://www.w3.org/1999/xlink" version="1.1" id="Layer_1" x="0px" y="0px" enable-background="new 0 0 822.05 841.89" xml:space="preserve" viewBox="306.27 337.55 207.31 170.49">
<path fill-rule="evenodd" clip-rule="evenodd" fill="#ADAAAA" stroke="#000000" stroke-width="1.25" stroke-linecap="square" stroke-miterlimit="10" d="  M391.413,395.265c-10.25,4.75-20.5,9.5-30.75,14.25c-7.148-25.263-24.914-46.373-17.625-7.5c7.553,40.281,22.313,22.479,54.375,6.75  C395.438,405.089,393.805,398.745,391.413,395.265z"/>
<path fill-rule="evenodd" clip-rule="evenodd" fill="#ADAAAA" stroke="#000000" stroke-width="1.25" stroke-linecap="square" stroke-miterlimit="10" d="  M404.163,389.265c-0.471-3.768-0.869-7.174-2.25-10.5c-10.202,14.951-18.726,30.417,6,25.5  C436.686,398.543,422.222,370.641,404.163,389.265z"/>
<path fill-rule="evenodd" clip-rule="evenodd" fill="#ADAAAA" stroke="#000000" stroke-width="1.25" stroke-linecap="square" stroke-miterlimit="10" d="  M326.163,387.015c6.571-4.496,11.604-2.105,14.25-10.5c0.112,0.835-0.138,1.585-0.75,2.25c17.843-1.531,24.644,5.998,20.25,21.375  C351.948,428.017,313.115,407.979,326.163,387.015z"/>
<path fill-rule="evenodd" clip-rule="evenodd" fill="#ADAAAA" stroke="#000000" stroke-width="1.25" stroke-linecap="square" stroke-miterlimit="10" d="  M361.413,384.015c-11.335,24.171-28.357-5.17-42.75,3c16.714,4.699,6.231,20.938,4.5,36c11.5,0,23,0,34.5,0  c-1.411,4.571,0.715,10.492-0.75,15c3.965,0.804,11.129,0.43,15-0.75C370.585,420.116,369.521,398.592,361.413,384.015z"/>
<path fill-rule="evenodd" clip-rule="evenodd" fill="#ADAAAA" stroke="#000000" stroke-width="1.25" stroke-linecap="square" stroke-miterlimit="10" d="  M357.663,423.015c-11.5,0-23,0-34.5,0c0.599-5.214,9.465-30.071,3-34.5c-12.496-8.561-15.574,18.403-16.5,25.5  c-1.497,11.471-6.142,16.158,1.5,24C321.36,448.479,360.6,443.577,357.663,423.015z"/>
<path fill-rule="evenodd" clip-rule="evenodd" fill="#ADAAAA" stroke="#000000" stroke-width="1.25" stroke-linecap="square" stroke-miterlimit="10" d="  M365.163,424.515c1.202-3.04,2.373-6.423,2.25-9c-15.548,6.835-24.795,18.591-3.375,22.875  C386.133,442.809,387.311,418.815,365.163,424.515z"/>
<path fill-rule="evenodd" clip-rule="evenodd" fill="#ADAAAA" stroke="#000000" stroke-width="1.25" stroke-linecap="square" stroke-miterlimit="10" d="  M362.163,366.015C368.633,367.76,368.995,367.857,362.163,366.015L362.163,366.015z"/>
<path fill-rule="evenodd" clip-rule="evenodd" fill="#ADAAAA" stroke="#000000" stroke-width="1.25" stroke-linecap="square" stroke-miterlimit="10" d="  M327.663,370.515c-0.049,0.014,2.879,4.386,6,3C330.628,359.781,330.197,369.794,327.663,370.515z"/>
<path fill-rule="evenodd" clip-rule="evenodd" fill="#ADAAAA" stroke="#000000" stroke-width="1.25" stroke-linecap="square" stroke-miterlimit="10" d="  M364.413,352.515c7.396,25.292-20.052,45.396-33.75,18C316.925,343.039,353.995,323.557,364.413,352.515z"/>
<path fill-rule="evenodd" clip-rule="evenodd" fill="#137827" stroke="#000000" stroke-width="1.25" stroke-linecap="square" stroke-miterlimit="10" d="  M415.411,480.765c13.751,0,27.501,0,41.252,0c-0.927-5.949-11.786-36.392-3-42c14.819-9.459,18.234,24.19,19.5,31.5  c2.403,13.876,8.588,21.05-3,28.5C455.062,508.474,409.364,506.827,415.411,480.765z"/>
<path fill-rule="evenodd" clip-rule="evenodd" fill="#EED5B6" stroke="#000000" stroke-width="1.25" stroke-linecap="square" stroke-miterlimit="10" d="  M428.163,463.515c-0.962-2.778-1.781-5.553-3-8.25c11.839,3.414,30.234,18.403,7.875,22.875  C405.501,483.648,404.248,456.802,428.163,463.515z"/>
<path fill-rule="evenodd" clip-rule="evenodd" fill="#EED5B6" stroke="#000000" stroke-width="1.25" stroke-linecap="square" stroke-miterlimit="10" d="  M491.163,441.765c-7.533-4.752-13.405-3.918-17.25-12.75c-8.227,0.343-29.602,5.52-24.582,23.088  C460.76,492.104,507.425,465.25,491.163,441.765z"/>
<path fill-rule="evenodd" clip-rule="evenodd" fill="#137827" stroke="#000000" stroke-width="1.25" stroke-linecap="square" stroke-miterlimit="10" d="  M448.413,438.015c14.108,30.271,34.612-8.671,52.5,3.75c-21.148,1.313-8.271,28.161-6,42.75c-13.75,0-27.5,0-41.25,0  c1.857,5.45-1.09,12.562,0.75,18c-4.407,1.264-13.603,1.291-18,0C437.877,482.065,438.825,456.192,448.413,438.015z"/>
<path fill-rule="evenodd" clip-rule="evenodd" fill="#D01424" stroke="#000000" stroke-linecap="square" stroke-miterlimit="10" d="  M440.163,505.515c-7.049,0-39.381,4.553-43.5,0c-1.89-2.089-1.89-35.411,0-37.5c1.719-1.899,41.781-1.899,43.5,0  C444.369,472.664,440.163,498.651,440.163,505.515z"/>
<path fill-rule="evenodd" clip-rule="evenodd" fill="#137827" stroke="#000000" stroke-width="1.25" stroke-linecap="square" stroke-miterlimit="10" d="  M453.663,484.515c13.75,0,27.5,0,41.25,0c-7.456-47.892,9.138-54.673,17.625-3.75C518.987,519.458,447.312,511.684,453.663,484.515z  "/>
<path fill-rule="evenodd" clip-rule="evenodd" fill="#EED5B6" stroke="#000000" stroke-width="1.25" stroke-linecap="square" stroke-miterlimit="10" d="  M444.663,486.765c-1.354-3.696-3.031-7.193-3-10.5c17.534,8.725,30.547,19.327,6,26.25  C417.731,510.957,418.347,477.037,444.663,486.765z"/>
<path fill-rule="evenodd" clip-rule="evenodd" fill="#EED5B6" stroke="#000000" stroke-width="1.25" stroke-linecap="square" stroke-miterlimit="10" d="  M447.663,416.265C440.125,421.173,439.141,416.783,447.663,416.265L447.663,416.265z"/>
<path fill-rule="evenodd" clip-rule="evenodd" fill="#EED5B6" stroke="#000000" stroke-width="1.25" stroke-linecap="square" stroke-miterlimit="10" d="  M489.663,422.265C481.062,420.159,482.197,416.15,489.663,422.265L489.663,422.265z"/>
<path fill-rule="evenodd" clip-rule="evenodd" fill="#EED5B6" stroke="#000000" stroke-width="1.25" stroke-linecap="square" stroke-miterlimit="10" d="  M445.413,399.765c-12.224,40.592,45.094,54.805,44.25,8.25C489.165,380.526,454.076,371.173,445.413,399.765z"/>
<path fill-rule="evenodd" clip-rule="evenodd" fill="#D01424" stroke="#000000" stroke-linecap="square" stroke-miterlimit="10" d="  M399.663,393.015c4.563,3.752,12.486,5.203,18,7.5c7.221-17.537,27.976-42.696-2.252-45.75  C410.162,367.515,404.913,380.265,399.663,393.015z"/>
<path fill-rule="evenodd" clip-rule="evenodd" fill="#D01424" stroke="#000000" stroke-linecap="square" stroke-miterlimit="10" d="  M406.413,400.515c5.727,1.486,13.523-0.52,19.5-0.75c-0.75-13.75-1.5-27.5-2.25-41.25  C395.232,352.254,405.731,382.108,406.413,400.515z"/>
<path fill-rule="evenodd" clip-rule="evenodd" d="M409.413,361.515c6.571,2.635,9.022-1.147,11.25,9  c-2.073-2.374,0.007-4.089-4.502-4.5c-1.677,1.873,2.206,3.558-1.498,3.75c3.604-1.151-3.808-5.298-3.75-5.25  c0.074,3.08-0.5,6.637-0.75,7.5C409.913,368.515,409.663,365.015,409.413,361.515z"/>
<path fill-rule="evenodd" clip-rule="evenodd" d="M419.913,378.015c0.124-0.052-1.035-5.805,1.5,2.25c-3.75,0-7.5,0-11.25,0  C412.729,377.431,415.867,379.874,419.913,378.015z"/>
<path fill-rule="evenodd" clip-rule="evenodd" d="M410.913,391.515C423.874,385.681,423.65,396.133,410.913,391.515L410.913,391.515  z M411.663,391.515C421.28,390.803,422.734,390.695,411.663,391.515L411.663,391.515z"/>
<path fill-rule="evenodd" clip-rule="evenodd" fill="#ADAAAA" d="M402.663,378.765c0.533,7.196,7.133,10.501-4.5,15.75  C399.662,389.268,401.049,383.978,402.663,378.765z"/>
<path fill="none" stroke="#000000" stroke-width="1.25" stroke-linecap="square" stroke-miterlimit="10" d="M402.663,378.765  c5.73,6.562,3.606,12.092-4.5,15.75"/>
<path fill-rule="evenodd" clip-rule="evenodd" fill="#D01424" stroke="#000000" stroke-linecap="square" stroke-miterlimit="10" d="  M426.663,417.765c-14.064-21.229-11.979-2.232-10.502,6.75c5.125,4.36,13.241,10.338,19.502,12.75  C435.843,426.423,434.577,416.095,426.663,417.765z"/>
<path fill-rule="evenodd" clip-rule="evenodd" fill="#D01424" stroke="#000000" stroke-linecap="square" stroke-miterlimit="10" d="  M403.413,441.015c4.963,7.404,11.677,10.15,2.25,15.75c-5.708-4.217-10.652-7.771-12.75-9c-2.311-6.502-5.199-16.372-5.25-23.25  C397.627,428.62,405.938,434.473,403.413,441.015z"/>
</svg>