<svg xmlns="http://www.w3.org/2000/svg" xmlns:xlink="http://www.w3.org/1999/xlink" version="1.1" id="Layer_1" x="0px" y="0px" enable-background="new 0 0 822.05 841.89" xml:space="preserve" viewBox="301.81 330.15 217.88 181.25">
<path fill-rule="evenodd" clip-rule="evenodd" fill="#FFFFFF" stroke="#000000" stroke-width="1.25" stroke-linecap="square" stroke-miterlimit="10" d="  M305.438,364.524c15.626,12.956,39.246,20.446,49.5-2.625C365.192,338.827,310.125,361.523,305.438,364.524z"/>
<path fill="none" stroke="#000000" stroke-linecap="square" stroke-miterlimit="10" d="M302.438,364.524  c16.265-11.795,39.164-20.726,57-7.5"/>
<path fill-rule="evenodd" clip-rule="evenodd" fill="#D2D1D2" d="M519.189,331.524c-22.075,3.952-173.229,21.645-172.502,36.75  c0.419,8.704,76.613,40.162,85.126,44.625c28.375,14.875,56.751,29.75,85.126,44.625  C517.689,415.524,518.439,373.524,519.189,331.524z"/>
<path fill="none" stroke="#000000" stroke-linecap="square" stroke-miterlimit="10" d="M519.189,331.524  c-22.075,3.952-173.229,21.645-172.502,36.75c0.419,8.704,76.613,40.162,85.126,44.625c28.375,14.875,56.751,29.75,85.126,44.625"/>
<path fill-rule="evenodd" clip-rule="evenodd" d="M396.188,366.024c-11.988-0.286-29.701-6.447-32.25,6  c12.55,0.299,25.766-1.984,31.5,5.25c5.792-1.4,13.941-4.754,18.752-8.25C403.328,360.744,399.962,363.772,396.188,366.024z"/>
<path fill-rule="evenodd" clip-rule="evenodd" fill="#EDCBA6" d="M495.189,493.524c-7.444,35.558-49.577-7.324-48-27.75  c1.014-13.124,9.241-24.359,23.625-20.25C496.782,452.944,492.722,467.856,495.189,493.524z"/>
<path fill="none" stroke="#000000" stroke-width="1.25" stroke-linecap="square" stroke-miterlimit="10" d="M495.189,493.524  c-11.707,55.918-93.641-89.2-3.75-39"/>
<path fill="none" stroke="#000000" stroke-width="1.25" stroke-linecap="square" stroke-miterlimit="10" d="M453.189,465.774  c4.604-22.177,41.761-6.879,14.25,16.5"/>
<path fill="none" stroke="#000000" stroke-width="1.25" stroke-linecap="square" stroke-miterlimit="10" d="M477.939,479.274  c6.416,1.161,10.96,2.333,12,11.25c-5.227-0.958-10.15-2.607-15-5.25"/>
<path fill-rule="evenodd" clip-rule="evenodd" stroke="#000000" stroke-width="1.5" stroke-linecap="square" stroke-miterlimit="10" d="  M446.439,477.774c-5.704-0.399-11.528,0-17.25,0c-0.25,2-0.5,4-0.75,6c11.237,0.381,14.117,3.473,18,5.25  c5.845-1.439,13.846-4.775,18.75-8.25C454.169,472.628,450.26,475.552,446.439,477.774z"/>
<path fill-rule="evenodd" clip-rule="evenodd" fill="#82B9D7" stroke="#000000" stroke-linecap="square" stroke-miterlimit="10" d="  M321.188,362.274c1.773,13.881,24.206,20.278,26.25,3C349.453,348.247,325.891,349.023,321.188,362.274z"/>
<path fill-rule="evenodd" clip-rule="evenodd" fill="#EDCBA6" d="M518.439,330.774c-8.26,7.876-28.362,25.351-23.25,39  c1.717,4.583,13.358,3.695,16.875,3.375C521.081,372.329,517.966,339.613,518.439,330.774z"/>
<path fill="none" stroke="#000000" stroke-width="1.25" stroke-linecap="square" stroke-miterlimit="10" d="M518.439,330.774  c-10.962,10.452-42.574,53.643-2.25,42"/>
<path fill-rule="evenodd" clip-rule="evenodd" fill="#FBF11E" stroke="#000000" stroke-width="1.25" stroke-linecap="square" stroke-miterlimit="10" d="  M482.439,397.524c-1.497-14.322-23.961-31.393-28.5-9C450.6,405,479.022,405.012,482.439,397.524z"/>
<path fill-rule="evenodd" clip-rule="evenodd" fill="#FBF11E" stroke="#000000" stroke-width="1.25" stroke-linecap="square" stroke-miterlimit="10" d="  M486.189,402.024c13.892-4.934,25.93-26.981,2.25-26.25C470.117,376.34,477.364,401.814,486.189,402.024z"/>
<path fill-rule="evenodd" clip-rule="evenodd" fill="#FBF11E" stroke="#000000" stroke-width="1.25" stroke-linecap="square" stroke-miterlimit="10" d="  M481.689,405.024c7.166,10.163,35.056,22.691,30.75-2.25C509.5,385.743,481.078,397.407,481.689,405.024z"/>
<path fill-rule="evenodd" clip-rule="evenodd" fill="#FBF11E" stroke="#000000" stroke-width="1.25" stroke-linecap="square" stroke-miterlimit="10" d="  M477.189,401.274c-13.247-5.043-33.984-3.141-22.875,15.375C464.095,432.95,480.249,407.641,477.189,401.274z"/>
<path fill-rule="evenodd" clip-rule="evenodd" fill="#FBF11E" stroke="#000000" stroke-width="1.25" stroke-linecap="square" stroke-miterlimit="10" d="  M477.189,404.274c-13.062,12.936-12.185,28.955,9.375,25.875C507.073,427.219,485.812,400.802,477.189,404.274z"/>
<path fill-rule="evenodd" clip-rule="evenodd" fill="#F87F11" stroke="#000000" stroke-width="1.25" stroke-linecap="square" stroke-miterlimit="10" d="  M472.689,401.274C491.424,417.832,492.005,385.384,472.689,401.274L472.689,401.274z"/>
<path fill-rule="evenodd" clip-rule="evenodd" fill="#F8130D" stroke="#000000" stroke-width="1.25" stroke-linecap="square" stroke-miterlimit="10" d="  M360.188,439.524c-16.315,7.267-42.413,33.478-57.75,18.75c0,60.398,36.8,26.379,69,3  C362.753,455.167,362.626,448.707,360.188,439.524z"/>
<path fill-rule="evenodd" clip-rule="evenodd" fill="#EDCBA6" stroke="#000000" stroke-width="1.25" stroke-linecap="square" stroke-miterlimit="10" d="  M403.688,428.274c-5.889-13.807-20.034-7.5-30,3.75c-0.213-4.812-2.92-10.881-3-15c-5.846,11.546-28.976,36.241-5.25,43.5  C380.157,465.027,410.637,442.238,403.688,428.274z"/>
<path fill-rule="evenodd" clip-rule="evenodd" fill="#FB0F0C" d="M398.438,423.024l-17.25,9.75L398.438,423.024z"/>
<line fill="none" stroke="#000000" stroke-width="1.25" stroke-linecap="square" stroke-miterlimit="10" x1="398.438" y1="423.024" x2="381.188" y2="432.774"/>
<path fill-rule="evenodd" clip-rule="evenodd" fill="#FB0F0C" d="M403.688,428.274l-19.5,9L403.688,428.274z"/>
<line fill="none" stroke="#000000" stroke-width="1.25" stroke-linecap="square" stroke-miterlimit="10" x1="403.688" y1="428.274" x2="384.188" y2="437.274"/>
<path fill-rule="evenodd" clip-rule="evenodd" fill="#FB0F0C" d="M405.188,435.024l-16.5,8.25L405.188,435.024z"/>
<line fill="none" stroke="#000000" stroke-width="1.25" stroke-linecap="square" stroke-miterlimit="10" x1="405.188" y1="435.024" x2="388.688" y2="443.274"/>
<path fill-rule="evenodd" clip-rule="evenodd" fill="#F7F619" stroke="#000000" stroke-width="1.25" stroke-linecap="square" stroke-miterlimit="10" d="  M417.939,459.774c-2.697-17.689-7.473-26.053-23.252-28.5c-11.576-1.795-35.448-0.716-33.75,14.25  C341.674,454.867,391.048,525.136,417.939,459.774z"/>
<path fill-rule="evenodd" clip-rule="evenodd" fill="#EDCBA6" stroke="#000000" stroke-width="1.25" stroke-linecap="square" stroke-miterlimit="10" d="  M400.688,483.024c0.666-14.582-14.718-15.05-28.5-9c1.631-4.262,1.71-11.914,3-15c-9.888,8.758-39.693,20.776-23.25,37.5  C362.282,507.045,404.137,499.04,400.688,483.024z"/>
<path fill-rule="evenodd" clip-rule="evenodd" fill="#FB0F0C" d="M398.438,476.274l-19.5,2.25L398.438,476.274z"/>
<line fill="none" stroke="#000000" stroke-width="1.25" stroke-linecap="square" stroke-miterlimit="10" x1="398.438" y1="476.274" x2="378.938" y2="478.524"/>
<path fill-rule="evenodd" clip-rule="evenodd" fill="#FB0F0C" d="M400.688,483.024l-21,0.75L400.688,483.024z"/>
<line fill="none" stroke="#000000" stroke-width="1.25" stroke-linecap="square" stroke-miterlimit="10" x1="400.688" y1="483.024" x2="379.688" y2="483.774"/>
<path fill-rule="evenodd" clip-rule="evenodd" fill="#FB0F0C" d="M399.188,489.774l-18,0.75L399.188,489.774z"/>
<line fill="none" stroke="#000000" stroke-width="1.25" stroke-linecap="square" stroke-miterlimit="10" x1="399.188" y1="489.774" x2="381.188" y2="490.524"/>
<path fill="none" stroke="#000000" stroke-width="0.75" stroke-linecap="square" stroke-miterlimit="10" d="M384.188,413.274  c8.484-3.651,16.408-2.178,22.5,4.5"/>
<path fill="none" stroke="#000000" stroke-width="0.75" stroke-linecap="square" stroke-miterlimit="10" d="M357.188,432.024  c-0.611-9.479,3.448-16.614,12-20.25"/>
<path fill="none" stroke="#000000" stroke-width="0.75" stroke-linecap="square" stroke-miterlimit="10" d="M384.188,445.524  c9.396-2.482,15.689,1.096,17.25,10.5"/>
<path fill="none" stroke="#000000" stroke-width="0.75" stroke-linecap="square" stroke-miterlimit="10" d="M372.188,446.274  c-4.763-0.213-6.678,2.608-6,7.5"/>
<path fill="none" stroke="#000000" stroke-width="0.75" stroke-linecap="square" stroke-miterlimit="10" d="M386.438,459.774  c4.416-1.912,6.876-0.474,6.75,4.5"/>
<path fill="none" stroke="#000000" stroke-width="0.75" stroke-linecap="square" stroke-miterlimit="10" d="M386.438,504.024  c8.478,1.686,15.679-1.019,19.5-8.25"/>
<path fill-rule="evenodd" clip-rule="evenodd" fill="#F8130D" stroke="#000000" stroke-width="1.25" stroke-linecap="square" stroke-miterlimit="10" d="  M356.438,475.524c-16.161,0.705-41.431,6.787-54,2.25c0,11,0,22,0,33c18.548-2.229,37.119-6.824,55.5-10.5  C352.804,491.127,355.18,485.042,356.438,475.524z"/>
<path fill-rule="evenodd" clip-rule="evenodd" d="M328.688,363.774C346.183,379.43,344.467,349.389,328.688,363.774L328.688,363.774  z"/>
</svg>