<svg xmlns="http://www.w3.org/2000/svg" xmlns:xlink="http://www.w3.org/1999/xlink" version="1.1" id="Layer_1" x="0px" y="0px" enable-background="new 0 0 822.05 841.89" xml:space="preserve" viewBox="211.73 374.04 195.77 134.72">
<line fill="none" stroke="#000000" stroke-width="0.75" stroke-linecap="square" stroke-miterlimit="10" x1="608.5" y1="341.515" x2="608.5" y2="341.515"/>
<path fill-rule="evenodd" clip-rule="evenodd" d="M340.75,404.515c-2.501-38.022-53.976-42.079-54.75-3  c10.291-8.295,48.72-45.672,48.75,3c-2.25,0-4.5,0-6.75,0c1.6,6.137,5.897,15.976,9.75,21  C343.979,416.284,350.027,406.121,340.75,404.515z"/>
<path fill-rule="evenodd" clip-rule="evenodd" d="M283,404.515c-3.044-39.233-53.584-38.279-54.75,0c1.75,0,3.5,0,5.25,0  c1.638-29.567,43.792-32.666,43.5,0c-2.25,0-4.5,0-6.75,0c1.6,6.137,5.897,15.976,9.75,21  C286.229,416.284,292.277,406.121,283,404.515z"/>
<path fill-rule="evenodd" clip-rule="evenodd" d="M398.5,404.515c-3.371-37.693-53.047-42.372-54.75-3  c10.571-8.921,48.721-45.095,48.75,3c-2.25,0-4.5,0-6.75,0c2.202,6.366,6.286,15.771,10.5,21  C402.225,416.169,407.739,406.037,398.5,404.515z"/>
<path fill-rule="evenodd" clip-rule="evenodd" d="M239.5,446.515c-3.277,16.252-28.62,18.677-27.75,0  C212.623,427.786,236.057,429.811,239.5,446.515z"/>
<path fill-rule="evenodd" clip-rule="evenodd" d="M291.25,446.515c-3.214,15.811-27.538,18.996-27.75,0  C263.293,427.945,288.667,429.9,291.25,446.515z"/>
<path fill-rule="evenodd" clip-rule="evenodd" d="M407.5,446.515c-2.535,16.708-26.795,18.427-27,0  C380.293,427.962,404.921,429.729,407.5,446.515z"/>
<path fill-rule="evenodd" clip-rule="evenodd" d="M351.25,446.515c-2.535,16.708-26.795,18.427-27,0  C324.043,427.962,348.671,429.729,351.25,446.515z"/>
<text transform="matrix(1 0 0 1 214.7461 499.7642)" font-family="'MyriadPro-Regular'" font-size="36">1   2    3    4</text>
<path fill-rule="evenodd" clip-rule="evenodd" d="M233.5,419.515c-2.632-3.747-8.606-4.178-5.25-15.75c1.75,0,3.5,0,5.25,0  C233.5,408.998,233.203,414.293,233.5,419.515z"/>
</svg>