<svg xmlns="http://www.w3.org/2000/svg" xmlns:xlink="http://www.w3.org/1999/xlink" version="1.1" id="Layer_1" x="0px" y="0px" enable-background="new 0 0 822.05 841.89" xml:space="preserve" viewBox="204.64 296.92 414.19 253.97">
<path fill-rule="evenodd" clip-rule="evenodd" fill="#E4E5E6" d="M423.5,456.39c-30.313-0.501-139.332-1.009-146.625,42.75  c-7.409,44.456,119.589,47.25,142.736,47.25c30.248,0,142.262,2.263,149.764-42.75C576.923,458.351,446.438,455.982,423.5,456.39z"/>
<path fill-rule="evenodd" clip-rule="evenodd" fill="#6D6F71" d="M615.5,421.89c-3.274,162.186-252.75,162.936-252.75,0  C362.75,258.891,612.224,259.611,615.5,421.89z"/>
<path fill-rule="evenodd" clip-rule="evenodd" d="M615.5,421.89c-13.884,23.346-12.4,57.164-35.625,82.5  c-22.295,24.321-51.797,38.187-84.75,40.125c-67.294,3.959-125.085-49.706-129-116.25c-9.546-162.289,243.28-168.979,246.375-6.375  c2,0,4,0,6,0c-2.321-166.439-258.75-166.817-258.75,0c0,70.295,59.121,128.798,129,129c33.907,0.099,67.471-13.553,91.5-37.5  C599.079,494.626,628.808,445.075,615.5,421.89z"/>
<path fill-rule="evenodd" clip-rule="evenodd" fill="#ED1C24" d="M207.5,364.14c18.75-12,37.5-24,56.25-36  c14.75,30.5,29.5,61,44.25,91.5c11-6.5,22-13,33-19.5c-3.306,13.62-8.087,70.459-18.75,77.25c-10.673,6.798-63.518-12.334-77.25-15  c11.25-8.5,22.5-17,33.75-25.5C255,412.64,231.25,388.39,207.5,364.14z"/>
<path fill-rule="evenodd" clip-rule="evenodd" d="M207.5,364.14c14.483-0.224,39.798-22.563,54.75-32.25  c14.75,30.5,29.5,61,44.25,91.5c10-5.75,20-11.5,30-17.25c-2.919,11.944-7.141,61.522-16.5,67.5  c-9.368,5.983-55.445-10.473-67.5-12.75c10.25-8,20.5-16,30.75-24c-24.5-25-49-50-73.5-75c-2.726,1.255-2.976,2.755-0.75,4.5  c-0.75-2.75-2-3-3.75-0.75c23,23.5,46,47,69,70.5c-12,9.5-24,19-36,28.5c15.401,2.946,74.259,24.121,86.25,16.5  c11.968-7.606,17.308-71.703,21-87c-12,7-24,14-36,21c-14.75-30.5-29.5-61-44.25-91.5c-13.608,8.586-27.216,17.172-40.824,25.758  C215.738,354.88,197.633,360.734,207.5,364.14z"/>
</svg>