<svg xmlns="http://www.w3.org/2000/svg" xmlns:xlink="http://www.w3.org/1999/xlink" version="1.1" id="Layer_1" x="0px" y="0px" enable-background="new 0 0 822.05 841.89" xml:space="preserve" viewBox="335.83 244.43 148.3 353.24">
<path fill-rule="evenodd" clip-rule="evenodd" fill="#DEDFE0" stroke="#000000" stroke-width="2" stroke-linecap="square" stroke-miterlimit="10" d="  M376.619,258.14c15.064-12.768,58.326-20.671,72.002,0c14.017,21.188-14.461,39.966,13.125,51  c12.525,5.01,13.131,27.419,15.375,36.75c2.546,10.584,6.69,9.233,5.522,24.07c-2.394,30.398-4.395,60.855-7.212,91.217  c-3.505,37.775,6.103,115.745-34.311,131.463c-12.567,4.888-29.14,5.091-42.002,1.875c-29.896-7.474-34.393-17.279-37.757-46.889  c-6.114-53.803-6.72-111.112-16.243-164.236c-1.517-8.462-8.92-23.81-8.25-29.25c0.773-6.282,11.825-14.298,14.25-24  c1.916-7.661,6.271-16.09,14.25-18.75C386.535,304.335,376.939,279.579,376.619,258.14z"/>
<path fill="none" stroke="#000000" stroke-width="2" stroke-linecap="square" stroke-miterlimit="10" d="M376.619,258.14  c22.966,9.758,49.545,12.355,72.002,0"/>
<path fill="none" stroke="#000000" stroke-width="2" stroke-linecap="square" stroke-miterlimit="10" d="M377.369,308.39  c21.639,12.303,51.217,14.067,71.252-2.25"/>
<path fill="none" stroke="#000000" stroke-width="2" stroke-linecap="square" stroke-miterlimit="10" d="M350.369,344.39  c36.488,27.086,86.129,20.019,123.752,0"/>
<path fill="none" stroke="#000000" stroke-width="2" stroke-linecap="square" stroke-miterlimit="10" d="M345.119,364.64  c38.691,29.429,98.366,22.845,138.002-0.75"/>
<path fill="none" stroke="#000000" stroke-width="2" stroke-linecap="square" stroke-miterlimit="10" d="M359.369,316.64  c33.107,22.814,76.447,21.612,111.002,2.25"/>
</svg>