<svg xmlns="http://www.w3.org/2000/svg" xmlns:xlink="http://www.w3.org/1999/xlink" version="1.1" id="Layer_1" x="0px" y="0px" enable-background="new 0 0 822.05 841.89" xml:space="preserve" viewBox="263.63 245.85 295.25 349.33">
<path fill-rule="evenodd" clip-rule="evenodd" fill="#0DB14B" stroke="#000000" stroke-width="2" stroke-linecap="square" stroke-miterlimit="10" d="  M446.13,359.898c-13.711-24.104-50.341-66.12-83.252-50.25c-29.247,14.103-7.666,34.946-7.5,57.75  c0.123,16.868-21.512,44.58,4.5,53.25C391.675,431.246,417.253,368.443,446.13,359.898z"/>
<path fill-rule="evenodd" clip-rule="evenodd" fill="#0DB14B" stroke="#000000" stroke-width="2" stroke-linecap="square" stroke-miterlimit="10" d="  M450.63,358.398c2.679,29.704,16.895,61.658,44.625,72.75c19.621,7.849,31.544-38.29,39.375-48.75  c6.837-9.133,19.877-7.313,22.5-25.5c1.973-13.68,0.647-19.639-11.25-27.75C521.129,312.274,466.155,337.292,450.63,358.398z"/>
<path fill-rule="evenodd" clip-rule="evenodd" fill="#0DB14B" d="M353.878,372.648c9.529-13.751,25.358-22.77,42-24.75  c13.847-1.648,25.477,6.427,38.252,6.75c21.315,0.539,25.479-4.171,46.875-19.125c36.338-25.397,64.054-56.533,8.625-67.125  c-18.217-3.481-69.467-34.482-84.752-15.375c-26.5,33.125,17.93,80.866,40.502,102.375  C414.879,361.148,384.378,366.898,353.878,372.648z"/>
<path fill="none" stroke="#000000" stroke-width="2" stroke-linecap="square" stroke-miterlimit="10" d="M353.878,372.648  c9.529-13.751,25.358-22.77,42-24.75c13.847-1.648,25.477,6.427,38.252,6.75c21.315,0.539,25.479-4.171,46.875-19.125  c36.338-25.397,64.054-56.533,8.625-67.125c-18.217-3.481-69.467-34.482-84.752-15.375c-26.5,33.125,17.93,80.866,40.502,102.375"/>
<path fill="none" stroke="#000000" stroke-width="2" stroke-linecap="square" stroke-miterlimit="10" d="M464.13,264.648  c5.003,28.397,4.037,65.684-15,89.25"/>
<path fill="none" stroke="#000000" stroke-width="2" stroke-linecap="square" stroke-miterlimit="10" d="M450.63,358.398  c18.691,14.744,51.644,39.021,77.25,32.25"/>
<path fill-rule="evenodd" clip-rule="evenodd" fill="#0DB14B" stroke="#000000" stroke-width="2" stroke-linecap="square" stroke-miterlimit="10" d="  M443.13,365.148c26.056,120.823-69.564,199.289-178.502,223.5c46.467,22.563,117.485-29.068,148.498-63  C454.183,480.728,460.266,421.67,443.13,365.148z"/>
</svg>