<svg xmlns="http://www.w3.org/2000/svg" xmlns:xlink="http://www.w3.org/1999/xlink" version="1.1" id="Layer_1" x="0px" y="0px" enable-background="new 0 0 822.05 841.89" xml:space="preserve" viewBox="204.96 271.57 409.38 302.32">
<path fill-rule="evenodd" clip-rule="evenodd" fill="#BCBEC0" d="M263.714,572.89c74.691-69.263,149.383-138.525,224.073-207.788  c12.894-11.956,94.31-109.471,120.177-89.962c31.647,23.868-86.262,96.234-98.02,105.418  C427.867,444.668,345.791,508.78,263.714,572.89z"/>
<path fill="none" stroke="#000000" stroke-width="2" stroke-linecap="square" stroke-miterlimit="10" d="M263.714,572.89  c74.691-69.263,149.383-138.525,224.073-207.788c12.894-11.956,94.31-109.471,120.177-89.962  c31.647,23.868-86.262,96.234-98.02,105.418C427.867,444.668,345.791,508.78,263.714,572.89z"/>
<path fill-rule="evenodd" clip-rule="evenodd" fill="#FFFFFF" d="M554.714,325.39c8.008-16.635,22.999-31.193,40.5-37.5  C589.256,306.781,572.878,319.186,554.714,325.39z"/>
<path fill="none" stroke="#000000" stroke-width="2" stroke-linecap="square" stroke-miterlimit="10" d="M554.714,325.39  c8.008-16.635,22.999-31.193,40.5-37.5C589.256,306.781,572.878,319.186,554.714,325.39z"/>
<path fill-rule="evenodd" clip-rule="evenodd" fill="#ED1C24" stroke="#000000" stroke-width="2" stroke-linecap="square" stroke-miterlimit="10" d="  M205.964,427.39c17.5-5,35-10,52.5-15c2.5,31.5,5,63,7.5,94.5c6.242-3.154,14.926-1.822,21-5.25c-5.25,17.25-10.5,34.5-15.75,51.75  c-13-13-26-26-39-39c5.933,0.311,12.045-3.813,18-3.75C235.464,482.89,220.714,455.14,205.964,427.39z"/>
</svg>