<svg xmlns="http://www.w3.org/2000/svg" xmlns:xlink="http://www.w3.org/1999/xlink" version="1.1" id="Layer_1" x="0px" y="0px" enable-background="new 0 0 822.05 841.89" xml:space="preserve" viewBox="223.62 281.79 371.93 283.13">
<path fill-rule="evenodd" clip-rule="evenodd" fill="#E3E4E5" stroke="#000000" stroke-width="2" stroke-linecap="square" stroke-miterlimit="10" d="  M355.25,359.906c8.114,9.889,37.856,33.965,27,50.25c-13.375,20.062-15.055,42.74-15.75,66.748  c-0.627,21.647,4.347,112.931,50.625,79.875C458.634,527.129,467,429.076,467,382.767c0-19.644-4.665-57.106-21.75-70.111  C425.72,297.79,377.853,344.634,355.25,359.906z"/>
<path fill-rule="evenodd" clip-rule="evenodd" fill="#6D6F71" stroke="#000000" stroke-width="2" stroke-linecap="square" stroke-miterlimit="10" d="  M350,308.156c0,28.475-8.208,47.556,23.25,49.5c18.683,1.155,57.927-13.204,65.25-32.25C457.894,274.97,369.515,278.12,350,308.156z  "/>
<path fill="none" stroke="#000000" stroke-width="2" stroke-linecap="square" stroke-miterlimit="10" d="M422,340.406  c48.111,60.876,29.885,159.929-15,219.748"/>
<path fill="none" stroke="#000000" stroke-width="2" stroke-linecap="square" stroke-miterlimit="10" d="M383,411.656  c29.255,42.139,25.224,103.375,3.75,147.748"/>
<path fill-rule="evenodd" clip-rule="evenodd" fill="#6E745B" stroke="#000000" stroke-width="2" stroke-linecap="square" stroke-miterlimit="10" d="  M371,449.904c0.221-10.522,8.074-21.559,18.75-14.25c9.667,6.617-3.249,38.328-5.583,47.277  C370.635,534.803,371,468.988,371,449.904z"/>
<path fill-rule="evenodd" clip-rule="evenodd" fill="#7A4B81" stroke="#000000" stroke-width="2" stroke-linecap="square" stroke-miterlimit="10" d="  M375.5,461.154c2.56-0.619,4.496,1.055,5.25,3c1.724-1.053,2.724-2.553,3-4.5C376.062,451.99,378.308,460.475,375.5,461.154z"/>
<path fill-rule="evenodd" clip-rule="evenodd" fill="#6E745B" stroke="#000000" stroke-width="2" stroke-linecap="square" stroke-miterlimit="10" d="  M365,371.156c10.669,4.572,94.852,36.869,44.25,47.25C384.573,423.468,378.693,387.294,365,371.156z"/>
<path fill-rule="evenodd" clip-rule="evenodd" fill="#E3E4E5" stroke="#000000" stroke-width="2" stroke-linecap="square" stroke-miterlimit="10" d="  M380.75,290.156c-0.861,7.255-22.168,27.25-29.25,15C344.392,292.86,374.424,287.663,380.75,290.156z"/>
<path fill-rule="evenodd" clip-rule="evenodd" fill="#E3E4E5" stroke="#000000" stroke-width="2" stroke-linecap="square" stroke-miterlimit="10" d="  M382.25,308.906c-1.648,7.927-21.058,26.492-29.25,15C344.613,312.14,375.522,306.385,382.25,308.906z"/>
<path fill-rule="evenodd" clip-rule="evenodd" fill="#E3E4E5" stroke="#000000" stroke-width="2" stroke-linecap="square" stroke-miterlimit="10" d="  M415.25,302.906c-1.922,7.362-23.158,27.173-29.25,14.25C380.055,304.544,408.417,299.3,415.25,302.906z"/>
<path fill-rule="evenodd" clip-rule="evenodd" fill="#E3E4E5" stroke="#000000" stroke-width="2" stroke-linecap="square" stroke-miterlimit="10" d="  M413.752,283.406c-0.845,7.19-22.16,27.432-29.252,15C377.455,286.057,407.398,280.902,413.752,283.406z"/>
<path fill-rule="evenodd" clip-rule="evenodd" fill="#E3E4E5" stroke="#000000" stroke-width="2" stroke-linecap="square" stroke-miterlimit="10" d="  M484.25,359.906c37.858,47.628,19.34,40.25,12,92.998c-3.756,26.994-11.238,106.957,32.25,109.5  c42.325,2.476,53.068-81.659,58.5-109.5c10.681-54.741,14.548-102.148-19.5-149.248C539.75,322.406,512,341.156,484.25,359.906z"/>
<path fill-rule="evenodd" clip-rule="evenodd" fill="#6D6F71" stroke="#000000" stroke-width="2" stroke-linecap="square" stroke-miterlimit="10" d="  M478.25,308.156c-0.555,28.773-6.646,46.544,23.25,49.5c18.105,1.79,59.049-13.838,66-32.25  C587.025,273.687,499.357,280.887,478.25,308.156z"/>
<path fill="none" stroke="#000000" stroke-width="2" stroke-linecap="square" stroke-miterlimit="10" d="M551,340.406  c43.256,66.336,31.074,154.147-15,219.748"/>
<path fill="none" stroke="#000000" stroke-width="2" stroke-linecap="square" stroke-miterlimit="10" d="M512,411.656  c26.086,45.588,25.73,100.78,3,147.748"/>
<path fill-rule="evenodd" clip-rule="evenodd" fill="#6E745B" stroke="#000000" stroke-width="2" stroke-linecap="square" stroke-miterlimit="10" d="  M500,449.904c-0.399-21.703,16.22-18.987,21-3c4.016,13.433-10.177,49.643-19.5,58.5C497.737,487.27,499.657,468.414,500,449.904z"/>
<path fill-rule="evenodd" clip-rule="evenodd" fill="#7A4B81" stroke="#000000" stroke-width="2" stroke-linecap="square" stroke-miterlimit="10" d="  M503.75,461.154c2.88-0.403,4.651,0.446,6,3c1.153-1.303,1.903-2.803,2.25-4.5C505.315,452.31,506.533,460.764,503.75,461.154z"/>
<path fill-rule="evenodd" clip-rule="evenodd" fill="#6E745B" stroke="#000000" stroke-width="2" stroke-linecap="square" stroke-miterlimit="10" d="  M493.25,371.156c10.297,4.413,95.757,37.596,44.25,47.25C513.238,422.954,506.829,387.16,493.25,371.156z"/>
<path fill-rule="evenodd" clip-rule="evenodd" fill="#E3E4E5" stroke="#000000" stroke-width="2" stroke-linecap="square" stroke-miterlimit="10" d="  M509.75,290.156c-1.671,8.035-20.887,26.37-29.25,15C472.026,293.636,502.979,287.65,509.75,290.156z"/>
<path fill-rule="evenodd" clip-rule="evenodd" fill="#E3E4E5" stroke="#000000" stroke-width="2" stroke-linecap="square" stroke-miterlimit="10" d="  M510.5,308.906c-1.624,7.809-21.257,26.625-29.25,15C473.262,312.289,504.086,306.438,510.5,308.906z"/>
<path fill-rule="evenodd" clip-rule="evenodd" fill="#E3E4E5" stroke="#000000" stroke-width="2" stroke-linecap="square" stroke-miterlimit="10" d="  M543.5,302.906c-1.384,6.582-24.168,27.625-29.25,14.25C509.201,303.867,536.793,299.297,543.5,302.906z"/>
<path fill-rule="evenodd" clip-rule="evenodd" fill="#E3E4E5" stroke="#000000" stroke-width="2" stroke-linecap="square" stroke-miterlimit="10" d="  M542.75,283.406c-1.643,7.897-21.106,26.525-29.25,15C505.301,286.801,535.974,280.898,542.75,283.406z"/>
<path fill-rule="evenodd" clip-rule="evenodd" fill="#E3E4E5" stroke="#000000" stroke-width="2" stroke-linecap="square" stroke-miterlimit="10" d="  M231.5,359.906c37.913,47.697,19.352,40.163,12,92.998c-3.756,26.993-11.236,106.958,32.25,109.5  c42.326,2.474,53.068-81.658,58.5-109.5c10.681-54.741,14.548-102.148-19.5-149.248C287,322.406,259.25,341.156,231.5,359.906z"/>
<path fill-rule="evenodd" clip-rule="evenodd" fill="#6D6F71" stroke="#000000" stroke-width="2" stroke-linecap="square" stroke-miterlimit="10" d="  M225.5,308.156c-0.555,28.773-6.646,46.544,23.25,49.5c18.164,1.796,59.056-13.811,66-32.25  C334.233,273.673,246.615,280.877,225.5,308.156z"/>
<path fill="none" stroke="#000000" stroke-width="2" stroke-linecap="square" stroke-miterlimit="10" d="M298.25,340.406  c42.359,64.961,32.663,156.114-15,219.748"/>
<path fill="none" stroke="#000000" stroke-width="2" stroke-linecap="square" stroke-miterlimit="10" d="M259.25,411.656  c26.191,45.771,25.83,100.574,3,147.748"/>
<path fill-rule="evenodd" clip-rule="evenodd" fill="#6E745B" stroke="#000000" stroke-width="2" stroke-linecap="square" stroke-miterlimit="10" d="  M247.25,449.904c-0.099-21.727,16.241-18.918,21-3c4.016,13.433-10.176,49.643-19.5,58.5  C244.988,487.27,246.907,468.414,247.25,449.904z"/>
<path fill-rule="evenodd" clip-rule="evenodd" fill="#7A4B81" stroke="#000000" stroke-width="2" stroke-linecap="square" stroke-miterlimit="10" d="  M251,461.154c2.88-0.403,4.651,0.446,6,3c1.153-1.303,1.903-2.803,2.25-4.5C252.565,452.31,253.783,460.764,251,461.154z"/>
<path fill-rule="evenodd" clip-rule="evenodd" fill="#6E745B" stroke="#000000" stroke-width="2" stroke-linecap="square" stroke-miterlimit="10" d="  M240.5,371.156c10.297,4.413,95.757,37.596,44.25,47.25C260.489,422.954,254.079,387.16,240.5,371.156z"/>
<path fill-rule="evenodd" clip-rule="evenodd" fill="#E3E4E5" stroke="#000000" stroke-width="2" stroke-linecap="square" stroke-miterlimit="10" d="  M257,290.156c-1.671,8.035-20.887,26.37-29.25,15C219.277,293.636,250.229,287.65,257,290.156z"/>
<path fill-rule="evenodd" clip-rule="evenodd" fill="#E3E4E5" stroke="#000000" stroke-width="2" stroke-linecap="square" stroke-miterlimit="10" d="  M257.75,308.906c-1.624,7.809-21.257,26.625-29.25,15C220.512,312.289,251.335,306.438,257.75,308.906z"/>
<path fill-rule="evenodd" clip-rule="evenodd" fill="#E3E4E5" stroke="#000000" stroke-width="2" stroke-linecap="square" stroke-miterlimit="10" d="  M290.75,302.906c-1.344,6.391-23.571,27.716-29.25,14.25C255.999,304.11,284.221,299.393,290.75,302.906z"/>
<path fill-rule="evenodd" clip-rule="evenodd" fill="#E3E4E5" stroke="#000000" stroke-width="2" stroke-linecap="square" stroke-miterlimit="10" d="  M290,283.406c-1.624,7.809-21.257,26.625-29.25,15C252.855,286.925,283.224,280.846,290,283.406z"/>
</svg>