<svg xmlns="http://www.w3.org/2000/svg" xmlns:xlink="http://www.w3.org/1999/xlink" version="1.1" id="Layer_1" x="0px" y="0px" enable-background="new 0 0 822.05 841.89" xml:space="preserve" viewBox="253.21 248.44 324.3 345.46">
<path fill-rule="evenodd" clip-rule="evenodd" fill="#FFFBCE" stroke="#000000" stroke-width="2" stroke-linecap="square" stroke-miterlimit="10" d="  M492.5,592.9c-58.575,0-117.151,0-175.727,0c-27.704,0,16.379-51.831,24.977-58.5c-63.448-53.115-116.82-101.3-69.375-180.375  c26.674-44.456,57.11-93.54,117.75-101.625c43.245-5.766,110.45,11.475,126,58.125c2.214,6.64,19.492,7.737,24.75,16.5  c7.278,12.131,6.789,26.988,11.625,38.625c17.699,42.585,29.964,51.989-0.111,95.223c-21.612,31.067-48.168,59.715-81.639,78.027  C481.396,554.563,495.204,573.16,492.5,592.9z"/>
<line fill="none" stroke="#000000" stroke-width="2" stroke-linecap="square" stroke-miterlimit="10" x1="341.75" y1="534.4" x2="341.75" y2="534.4"/>
<path fill-rule="evenodd" clip-rule="evenodd" fill="#FFFBCE" d="M254.75,399.4c23.796,36.088,77.884,134.971,132,117.75  c-28.509-38.876-142.661-152.79-95.25-204.75c31.676-34.715,41.111,34.089,49.828,56.581  c9.054,23.363,41.357,151.931,69.422,149.669c-10.457-57.43-20.914-114.859-31.37-172.288c-4.983-27.369-9.967-54.737-14.95-82.106  c-2.339-12.844,28.44-13.159,37.695-14.481c38.22-5.46,22.01,58.098,21.65,78.609c-1.092,62.422-2.184,124.844-3.275,187.266  c18.5-81.5,37-163,55.5-244.5c32.223,16.087,46.481,30.409,32.661,63.012C482.273,396.408,455.887,458.654,429.5,520.9  c39.5-53.25,79-106.5,118.5-159.75c8.009,7.225,39.129,57.01,24.765,68.065C528.51,463.277,484.255,497.338,440,531.4  c13.397-2.016,27.008,2.449,35.25,13.5C401.75,496.4,328.25,447.9,254.75,399.4z"/>
<path fill="none" stroke="#000000" stroke-width="2" stroke-linecap="square" stroke-miterlimit="10" d="M254.75,399.4  c23.796,36.088,77.884,134.971,132,117.75c-28.509-38.876-142.661-152.79-95.25-204.75c31.676-34.715,41.111,34.089,49.828,56.581  c9.054,23.363,41.357,151.931,69.422,149.669c-10.457-57.43-20.914-114.859-31.37-172.288c-4.983-27.369-9.967-54.737-14.95-82.106  c-2.339-12.844,28.44-13.159,37.695-14.481c38.22-5.46,22.01,58.098,21.65,78.609c-1.092,62.422-2.184,124.844-3.275,187.266  c18.5-81.5,37-163,55.5-244.5c32.223,16.087,46.481,30.409,32.661,63.012C482.273,396.408,455.887,458.654,429.5,520.9  c39.5-53.25,79-106.5,118.5-159.75c8.009,7.225,39.129,57.01,24.765,68.065C528.51,463.277,484.255,497.338,440,531.4  c13.397-2.016,27.008,2.449,35.25,13.5"/>
<path fill-rule="evenodd" clip-rule="evenodd" fill="#FFFBCE" stroke="#000000" stroke-width="2" stroke-linecap="square" stroke-miterlimit="10" d="  M305,592.9c65.5,0,131,0,196.5,0c-10.714-42.312-42.015-75.543-87-77.25C369.995,513.961,306.376,540.836,305,592.9z"/>
</svg>