<svg xmlns="http://www.w3.org/2000/svg" xmlns:xlink="http://www.w3.org/1999/xlink" version="1.1" id="Layer_1" x="0px" y="0px" enable-background="new 0 0 822.05 841.89" xml:space="preserve" viewBox="202 258.35 418.86 326.54">
<path fill-rule="evenodd" clip-rule="evenodd" fill="#FFFBCE" stroke="#000000" stroke-width="2" stroke-linecap="square" stroke-miterlimit="10" d="  M341.75,460.89c-35.294,0-70.589,0-105.884,0c-9.836,0,14.781-32.624,17.384-34.5c-44.414-36.304-64.948-64.265-35.25-113.25  c8.601-14.187,16.785-30.294,31.5-39.75c20.103-12.919,36.007-4.951,54.375-8.625c15.681-3.136,27.837,4.934,40.125,13.125  c8.345,5.563,30,28.318,30,39.75c0,14.858,15,26.808,15,45c0,23.077-40.767,55.874-60,66  C336.391,438.28,342.113,448.901,341.75,460.89z"/>
<line fill="none" stroke="#000000" stroke-width="2" stroke-linecap="square" stroke-miterlimit="10" x1="253.25" y1="426.39" x2="253.25" y2="426.39"/>
<path fill-rule="evenodd" clip-rule="evenodd" fill="#FFFBCE" d="M203,347.64c15.156,21.64,43.705,77.326,77.25,68.25  c-18.993-24.338-76.256-79.988-58.875-114.75c15.675-31.351,26.379,14.852,31.331,27.456c7.621,19.397,20.837,82.707,41.044,88.044  c-6.246-34.098-12.491-68.195-18.737-102.292c-3.375-18.426-22.522-59.34,11.987-54.458c33.133,4.688,13.205,124.909,12.75,155.25  c10.75-47.5,21.5-95,32.25-142.5c54.635,21.882-12.532,111.782-27,146.25c23-31.25,46-62.5,69-93.75  c45.302,41.929-33.887,77.355-63,99.75c10.249,0.807,11.921,3.093,20.25,7.5C288.5,404.14,245.75,375.89,203,347.64z"/>
<path fill="none" stroke="#000000" stroke-width="2" stroke-linecap="square" stroke-miterlimit="10" d="M203,347.64  c15.156,21.64,43.705,77.326,77.25,68.25c-18.993-24.338-76.256-79.988-58.875-114.75c15.675-31.351,26.379,14.852,31.331,27.456  c7.621,19.397,20.837,82.707,41.044,88.044c-6.246-34.098-12.491-68.195-18.737-102.292c-3.375-18.426-22.522-59.34,11.987-54.458  c33.133,4.688,13.205,124.909,12.75,155.25c10.75-47.5,21.5-95,32.25-142.5c54.635,21.882-12.532,111.782-27,146.25  c23-31.25,46-62.5,69-93.75c45.302,41.929-33.887,77.355-63,99.75c10.208-1.979,12.792,3.554,20.25,7.5"/>
<path fill-rule="evenodd" clip-rule="evenodd" fill="#FFFBCE" stroke="#000000" stroke-width="2" stroke-linecap="square" stroke-miterlimit="10" d="  M232.25,460.89c38.25,0,76.5,0,114.75,0C332.821,404.554,237.709,397.984,232.25,460.89z"/>
<path fill-rule="evenodd" clip-rule="evenodd" fill="#FFFBCE" stroke="#000000" stroke-width="2" stroke-linecap="square" stroke-miterlimit="10" d="  M573.5,460.89c-35.295,0-70.589,0-105.884,0c-9.939,0,15.094-32.721,17.384-34.5c-44.915-36.713-64.177-63.446-35.25-113.25  c8.676-14.938,17.743-29.795,32.25-39.75c19.6-13.449,35.514-5.003,53.625-8.625c32.197-6.439,55.998,30,70.125,50.625  c29.698,43.359,0.833,89.117-45,113.25C568.141,438.28,573.863,448.901,573.5,460.89z"/>
<line fill="none" stroke="#000000" stroke-width="2" stroke-linecap="square" stroke-miterlimit="10" x1="485" y1="426.39" x2="485" y2="426.39"/>
<path fill-rule="evenodd" clip-rule="evenodd" fill="#FFFBCE" d="M434.75,347.64c15.039,21.097,44.335,77.46,77.25,68.25  c-18.993-24.338-76.256-79.988-58.875-114.75c14.292-28.583,23.251,5.229,28.389,18.509c7.969,20.597,22.826,91.412,43.986,96.991  c-6.077-34.098-12.153-68.195-18.23-102.292c-3.125-17.536-22.23-60.274,12.23-54.458c31.989,5.399,12.451,125.202,12,155.25  c10.75-47.5,21.5-95,32.25-142.5c54.419,22.66-12.126,110.814-27,146.25c23-31.25,46-62.5,69-93.75  c46.511,40.873-34.466,77.801-63,99.75c10.234,0.76,12.224,3.212,20.25,7.5C520.25,404.14,477.5,375.89,434.75,347.64z"/>
<path fill="none" stroke="#000000" stroke-width="2" stroke-linecap="square" stroke-miterlimit="10" d="M434.75,347.64  c15.039,21.097,44.335,77.46,77.25,68.25c-18.993-24.338-76.256-79.988-58.875-114.75c14.292-28.583,23.251,5.229,28.389,18.509  c7.969,20.597,22.826,91.412,43.986,96.991c-6.077-34.098-12.153-68.195-18.23-102.292c-3.125-17.536-22.23-60.274,12.23-54.458  c31.989,5.399,12.451,125.202,12,155.25c10.75-47.5,21.5-95,32.25-142.5c54.419,22.66-12.126,110.814-27,146.25  c23-31.25,46-62.5,69-93.75c46.511,40.873-34.466,77.801-63,99.75c10.198-1.99,13.099,3.68,20.25,7.5"/>
<path fill-rule="evenodd" clip-rule="evenodd" fill="#FFFBCE" stroke="#000000" stroke-width="2" stroke-linecap="square" stroke-miterlimit="10" d="  M464,460.89c38.25,0,76.5,0,114.75,0C567.904,402.273,469.298,399.841,464,460.89z"/>
<path fill-rule="evenodd" clip-rule="evenodd" fill="#FFFBCE" stroke="#000000" stroke-width="2" stroke-linecap="square" stroke-miterlimit="10" d="  M449,583.89c-35.75,0-71.5,0-107.25,0c-0.218-14.061,7.631-26.027,18.75-34.5c-19.806-16.552-53.873-42.159-54-71.25  c-0.076-17.391,16.515-32.676,21-48.375c3.304-11.563,27.342-33.281,38.25-39.375c14.748-8.239,40.155-7.125,55.5-3  c40.152,10.795,48.109,40.665,67.5,69.75c18.63,27.944-3.88,52.63-24,72.75c-3.662,3.662-28.233,22.944-27.375,24.375  C443.464,564.414,449.203,572.074,449,583.89z"/>
<line fill="none" stroke="#000000" stroke-width="2" stroke-linecap="square" stroke-miterlimit="10" x1="360.5" y1="549.39" x2="360.5" y2="549.39"/>
<path fill-rule="evenodd" clip-rule="evenodd" fill="#FFFBCE" d="M310.25,470.64c13.579,21.005,45.644,78.115,77.25,69  c-20.282-25.99-74.562-78.522-58.875-115.125c12.81-29.89,23.914,6.677,28.389,18.312c7.962,20.703,22.769,91.909,43.986,97.563  c-6.246-34.098-12.491-68.195-18.737-102.292c-3.253-17.759-22.676-61.28,12.737-54.458c32.182,6.2,12.461,124.383,12,155.25  c10.75-47.75,21.5-95.5,32.25-143.25c53.307,25.994-10.925,108.19-27,146.25c23-31.25,46-62.5,69-93.75  c46.248,40.828-34.809,78.064-63,99.75c8.792,2.078,12.543,3.786,20.25,7.5C395.75,527.14,353,498.89,310.25,470.64z"/>
<path fill="none" stroke="#000000" stroke-width="2" stroke-linecap="square" stroke-miterlimit="10" d="M310.25,470.64  c13.579,21.005,45.644,78.115,77.25,69c-20.282-25.99-74.562-78.522-58.875-115.125c12.81-29.89,23.914,6.677,28.389,18.312  c7.962,20.703,22.769,91.909,43.986,97.563c-6.246-34.098-12.491-68.195-18.737-102.292c-3.253-17.759-22.676-61.28,12.737-54.458  c32.182,6.2,12.461,124.383,12,155.25c10.75-47.75,21.5-95.5,32.25-143.25c53.307,25.994-10.925,108.19-27,146.25  c23-31.25,46-62.5,69-93.75c46.248,40.828-34.809,78.064-63,99.75c10.009-1.496,12.847,3.932,20.25,7.5"/>
<path fill-rule="evenodd" clip-rule="evenodd" fill="#FFFBCE" stroke="#000000" stroke-width="2" stroke-linecap="square" stroke-miterlimit="10" d="  M339.5,583.89c38.25,0,76.5,0,114.75,0C439.377,528.249,346.527,521.363,339.5,583.89z"/>
</svg>