<svg xmlns="http://www.w3.org/2000/svg" xmlns:xlink="http://www.w3.org/1999/xlink" version="1.1" id="Layer_1" x="0px" y="0px" enable-background="new 0 0 822.05 841.89" xml:space="preserve" viewBox="316.94 352.06 187.99 137.14">
<path fill-rule="evenodd" clip-rule="evenodd" fill="#F8130D" stroke="#000000" stroke-width="1.25" stroke-linecap="square" stroke-miterlimit="10" d="  M345.639,387.265c9.704-7.334,32.15-36.266,43.5-34.5C442.022,360.992,341.562,434.105,345.639,387.265z"/>
<path fill-rule="evenodd" clip-rule="evenodd" fill="#F8130D" stroke="#000000" stroke-width="1.25" stroke-linecap="square" stroke-miterlimit="10" d="  M405.639,396.265c4.437,34.65-16.731,87.413-59.25,81.75c-53.125-7.075-5.775-63.758,2.25-90.75  C367.024,396.136,385.707,395.417,405.639,396.265z"/>
<path fill-rule="evenodd" clip-rule="evenodd" fill="#F7F619" stroke="#000000" stroke-width="1.25" stroke-linecap="square" stroke-miterlimit="10" d="  M380.889,415.765c-7.5-5.75-15-11.5-22.5-17.25c-7.492,11.54-51.657,51.735-15,57.75c-4.767,6.299-9.062,20.097,1.5,22.5  c11.189,2.546-1.107-15.015,5.25-21C366.375,442.479,392.719,454.077,380.889,415.765z M348.639,448.765  c-27.846-3.256,4.566-27.626,9-39.75C388.733,413.008,376.297,454.703,348.639,448.765z"/>
<path fill-rule="evenodd" clip-rule="evenodd" fill="#F7F619" stroke="#000000" stroke-width="1.25" stroke-linecap="square" stroke-miterlimit="10" d="  M350.139,397.015c12.803-28.226,36.805-8.921,28.5,15.75C366.854,409.441,349.092,410.432,350.139,397.015z"/>
<path fill-rule="evenodd" clip-rule="evenodd" fill="#FFFFFF" stroke="#000000" stroke-width="1.25" stroke-linecap="square" stroke-miterlimit="10" d="  M374.889,473.515c-19.641,5.534-60.426,11.2-54-22.5c-23.967,44.973,90.133,51.595,77.25-14.25  C395.112,451.611,388.893,466.28,374.889,473.515z"/>
<path fill-rule="evenodd" clip-rule="evenodd" fill="#F7F619" stroke="#000000" stroke-width="1.25" stroke-linecap="square" stroke-miterlimit="10" d="  M335.139,416.515c9.918,3.797,18.237,1.443,23.25-7.5c-0.75,1-1.5,2-2.25,3c7.762-10.949,5.362-22.755-7.125-27.75  C345.439,382.835,337.782,412.503,335.139,416.515z"/>
<path fill-rule="evenodd" clip-rule="evenodd" fill="#F7F619" stroke="#000000" stroke-width="1.25" stroke-linecap="square" stroke-miterlimit="10" d="  M401.139,365.515c-2.692,26.789-27.843,19.904-38.625,37.875c-17.585,29.308,34.396,10.182,41.625,12.375  C410.564,399.326,407.619,381.645,401.139,365.515z"/>
<path fill-rule="evenodd" clip-rule="evenodd" fill="#F8130D" stroke="#000000" stroke-width="1.25" stroke-linecap="square" stroke-miterlimit="10" d="  M351.639,407.515c9.559-1.511,17.208-0.709,21.75,6.75C362.493,414.005,350.854,414.782,351.639,407.515z"/>
<path fill-rule="evenodd" clip-rule="evenodd" fill="#F8130D" stroke="#000000" stroke-width="1.25" stroke-linecap="square" stroke-miterlimit="10" d="  M353.139,399.265C400.125,390.277,344.886,417.429,353.139,399.265L353.139,399.265z"/>
<path fill-rule="evenodd" clip-rule="evenodd" fill="#F8130D" stroke="#000000" stroke-width="1.25" stroke-linecap="square" stroke-miterlimit="10" d="  M354.639,390.265c10.155-1.673,18.093-0.625,21,7.5C364.887,397.291,352.783,397.181,354.639,390.265z"/>
<path fill-rule="evenodd" clip-rule="evenodd" fill="#F8130D" stroke="#000000" stroke-width="1.25" stroke-linecap="square" stroke-miterlimit="10" d="  M476.141,391.015c-8.464-8.121-34.65-38.452-46.5-35.25C382.74,368.44,480.077,435.177,476.141,391.015z"/>
<path fill-rule="evenodd" clip-rule="evenodd" fill="#F8130D" stroke="#000000" stroke-width="1.25" stroke-linecap="square" stroke-miterlimit="10" d="  M416.141,400.015c-6.06,34.614,17.19,85.783,58.5,81c53.895-6.24,6.45-63.925-2.25-90.75  C454.394,399.17,435.711,398.766,416.141,400.015z"/>
<path fill-rule="evenodd" clip-rule="evenodd" fill="#F7F619" stroke="#000000" stroke-width="1.25" stroke-linecap="square" stroke-miterlimit="10" d="  M469.391,460.015c1.058,5.293,2.155,21.925,6.75,21.75c11.955-0.454,5.921-16.979,1.5-22.5c37.225-5.275-6.755-46.205-14.25-57.75  C441.965,417.941,423.525,463.77,469.391,460.015z M446.141,421.015c4.112-3.875,12.151-6.737,18-9  c2.488,7.657,32.853,35.729,14.625,39.375C457.123,455.718,442.291,444.489,446.141,421.015z"/>
<path fill-rule="evenodd" clip-rule="evenodd" fill="#F7F619" stroke="#000000" stroke-width="1.25" stroke-linecap="square" stroke-miterlimit="10" d="  M470.891,400.015c-11.876-28.474-34.566-7.971-28.5,15.75C454.294,412.492,473.244,413.63,470.891,400.015z"/>
<path fill-rule="evenodd" clip-rule="evenodd" fill="#FFFFFF" stroke="#000000" stroke-width="1.25" stroke-linecap="square" stroke-miterlimit="10" d="  M446.891,476.515c20.519,6.093,59.06,11.204,54-22.5c24.804,46.058-94.134,50.644-77.25-14.25  C426.403,454.336,432.981,469.981,446.891,476.515z"/>
<path fill-rule="evenodd" clip-rule="evenodd" fill="#F7F619" stroke="#000000" stroke-width="1.25" stroke-linecap="square" stroke-miterlimit="10" d="  M485.891,419.515c-10.213,2-17.018,2.44-22.5-7.5c0.75,1,1.5,2,2.25,3c-5.42-7.665-7.089-31.395,9-27.75  C478.415,388.12,483.918,415.661,485.891,419.515z"/>
<path fill-rule="evenodd" clip-rule="evenodd" fill="#F7F619" stroke="#000000" stroke-width="1.25" stroke-linecap="square" stroke-miterlimit="10" d="  M420.641,369.265c1.453,15.713,55.39,39.293,36.375,52.875c-7.744,5.531-30.162-0.955-36.375-7.125  C410.816,405.258,411.499,387.147,420.641,369.265z"/>
<path fill-rule="evenodd" clip-rule="evenodd" fill="#F8130D" stroke="#000000" stroke-width="1.25" stroke-linecap="square" stroke-miterlimit="10" d="  M469.391,411.265c-9.675-1.583-17.482-0.789-20.25,6.75C459.893,417.48,473.485,417.917,469.391,411.265z"/>
<path fill-rule="evenodd" clip-rule="evenodd" fill="#F8130D" stroke="#000000" stroke-width="1.25" stroke-linecap="square" stroke-miterlimit="10" d="  M468.641,402.265c-8.148-1.578-15.22-0.788-21.75,4.5C453.184,408.488,471.936,410.89,468.641,402.265z"/>
<path fill-rule="evenodd" clip-rule="evenodd" fill="#F8130D" stroke="#000000" stroke-width="1.25" stroke-linecap="square" stroke-miterlimit="10" d="  M467.141,394.015c-9.878-1.622-17.984-0.76-21,6.75C456.843,400.248,468.958,400.257,467.141,394.015z"/>
</svg>