<svg xmlns="http://www.w3.org/2000/svg" xmlns:xlink="http://www.w3.org/1999/xlink" version="1.1" id="Layer_1" x="0px" y="0px" enable-background="new 0 0 822.05 841.89" xml:space="preserve" viewBox="213.52 251.8 392.61 341.98">
<path fill-rule="evenodd" clip-rule="evenodd" fill="#CAB49E" stroke="#000000" stroke-width="2" stroke-linecap="square" stroke-miterlimit="10" d="  M214.525,263.943c40.675,80.426,129.938,164.458,226.502,153c36.229-4.299,72.772-20.389,99.75-45  c18.226-16.626,64.166-64.084,40.5-87.75c-53.943-53.943-135.29,56.413-189.002,60c-43.448,2.902-76.356-20.459-107.25-48  C276.999,289.038,214.035,228.262,214.525,263.943z"/>
<path fill-rule="evenodd" clip-rule="evenodd" fill="#74666F" stroke="#000000" stroke-width="2" stroke-linecap="square" stroke-miterlimit="10" d="  M486.777,305.943c14.761-19.453,83.347-42.41,93-8.625C588.418,327.559,503.296,331.71,486.777,305.943z"/>
<path fill-rule="evenodd" clip-rule="evenodd" fill="#CAB49E" stroke="#000000" stroke-width="2" stroke-linecap="square" stroke-miterlimit="10" d="  M225.025,345.693c46.308,81.278,123.592,158.185,223.363,153.196c35.482-1.774,73.962-19.565,100.264-42.944  c19.015-16.902,68.109-65.768,43.5-90.377c-23.88-23.879-72.201-7.86-94.875,7.875c-34.08,23.652-53.955,48.815-98.627,52.877  c-40.502,3.682-74.2-23.72-102.375-48.377C288.164,370.844,225.181,309.054,225.025,345.693z"/>
<path fill-rule="evenodd" clip-rule="evenodd" fill="#74666F" stroke="#000000" stroke-width="2" stroke-linecap="square" stroke-miterlimit="10" d="  M498.027,387.693c14.405-20.66,82.145-41.567,93-9C600.216,406.259,514.831,415.391,498.027,387.693z"/>
<path fill-rule="evenodd" clip-rule="evenodd" fill="#CAB49E" stroke="#000000" stroke-width="2" stroke-linecap="square" stroke-miterlimit="10" d="  M231.025,438.695c41.428,80.119,130.399,164.686,227.252,153c36.185-4.365,72.634-20.604,99.75-45  c18.327-16.488,64.089-64.161,40.5-87.75c-53.887-53.887-135.89,56.524-189.752,60c-43.514,2.809-75.587-20.442-106.5-48  C293.652,463.257,232.862,402.89,231.025,438.695z"/>
<path fill-rule="evenodd" clip-rule="evenodd" fill="#74666F" stroke="#000000" stroke-width="2" stroke-linecap="square" stroke-miterlimit="10" d="  M504.027,480.695c14.812-19.98,82.045-41.865,93-9C606.647,500.556,521.103,507.197,504.027,480.695z"/>
</svg>