<svg xmlns="http://www.w3.org/2000/svg" xmlns:xlink="http://www.w3.org/1999/xlink" version="1.1" id="Layer_1" x="0px" y="0px" enable-background="new 0 0 822.05 841.89" xml:space="preserve" viewBox="274.8 249.58 273.45 345.44">
<path fill-rule="evenodd" clip-rule="evenodd" fill="#6E91A3" stroke="#000000" stroke-width="2" stroke-linecap="square" stroke-miterlimit="10" d="  M312.295,259.978c0.045,67.333-25.289,138.414-30.378,206.694c-1.954,26.216-3.908,52.432-5.862,78.648  c-1.666,22.352,4.662,19.993,25.406,30.798c33.737,17.571,77.561,8.257,109.083-7.889c5.698,33.16,118.339,33.458,135.002,6  c6.604-10.882-7.96-68.16-9.75-81c-4.559-32.697-10.266-65.173-16.002-97.677c-7.976-45.198-34.207-92.312-35.631-136.442  C483.554,240.192,332.529,258.749,312.295,259.978z"/>
<line fill="none" stroke="#000000" stroke-width="2" stroke-linecap="square" stroke-miterlimit="10" x1="312.295" y1="277.978" x2="484.797" y2="278.728"/>
<path fill="none" stroke="#000000" stroke-width="2" stroke-linecap="square" stroke-miterlimit="10" d="M319.795,259.978  c-1.876,4.964-1.036,11.912-1.5,17.25c3.5,0,7,0,10.5,0c-3.75-11.277-0.503-17.642,11.25-18c-2.875,13.97,3.194,21.255,17.25,18  c-5.209-12.365-2.978-21.5,11.25-21c-1.492,9.272-0.99,22.69,8.625,22.125c15.957-0.938-3.082-24.145,20.625-23.625  c-2.331,7.166,0.713,16.042-1.5,23.25c26.025,3.926,2.569-26.527,27.752-24.75c-3.121,7.569-1.283,17.226-4.5,24.75  c19.582,2.335,1.237-21.63,20.25-25.5c-3.128,14.339-2.808,27.31,12.75,25.5c-3.948-15.167-5.572-25.843,9.611-27.361  c11.441-1.144-0.585,27.828,17.389,28.861c-0.232-6.986,1.032-15.775-0.75-22.5"/>
<path fill-rule="evenodd" clip-rule="evenodd" fill="#2B3F49" d="M356.545,279.478c5.757,56.421,14.221,112.327,23.543,168.26  c4.003,24.022,8.565,48.172,14.707,71.742c2.553,9.8,10.576,25.197,10.5,35.25c-0.151,20.002,2.229,14.968-21,26.25  c-16.855-38.503-10.439-91.881-9.117-132.867C376.983,392.135,363.792,334.844,356.545,279.478z"/>
<path fill="none" stroke="#000000" stroke-width="2" stroke-linecap="square" stroke-miterlimit="10" d="M356.545,279.478  c5.757,56.421,14.221,112.327,23.543,168.26c4.003,24.022,8.565,48.172,14.707,71.742c2.553,9.8,10.576,25.197,10.5,35.25  c-0.151,20.002,2.229,14.968-21,26.25c-20.284-46.333-8.313-109.005-9-158.252"/>
</svg>