<svg xmlns="http://www.w3.org/2000/svg" xmlns:xlink="http://www.w3.org/1999/xlink" version="1.1" id="Layer_1" x="0px" y="0px" enable-background="new 0 0 822.05 841.89" xml:space="preserve" viewBox="308.64 335.88 203.75 171.5">
<path fill-rule="evenodd" clip-rule="evenodd" fill="#137827" stroke="#000000" stroke-width="1.25" stroke-linecap="square" stroke-miterlimit="10" d="  M373.761,442.254c19.188,12.152,56.281,22.281,40.5,50.25C394.207,480.409,354.272,470.657,373.761,442.254z"/>
<path fill-rule="evenodd" clip-rule="evenodd" fill="#EED5B6" stroke="#000000" stroke-width="1.25" stroke-linecap="square" stroke-miterlimit="10" d="  M337.011,445.254c10.244-3.597,16.97-8.391,16.5-9.75c20.448-7.587,23.285,12.299,22.125,27.375  C372.961,497.652,319.991,470.592,337.011,445.254z"/>
<path fill-rule="evenodd" clip-rule="evenodd" fill="#137827" stroke="#000000" stroke-width="1.25" stroke-linecap="square" stroke-miterlimit="10" d="  M390.261,506.754c-3.716-21.278-1.653-47.303-16.5-64.5c-7.885,32.15-26.962-0.661-35.25,0.375  c-26.52,3.314-25.014,42.945-29.25,64.125C336.261,506.754,363.261,506.754,390.261,506.754z"/>
<path fill-rule="evenodd" clip-rule="evenodd" fill="#EED5B6" stroke="#000000" stroke-width="1.25" stroke-linecap="square" stroke-miterlimit="10" d="  M335.511,421.254C336.312,439.306,317.832,420.575,335.511,421.254L335.511,421.254z"/>
<path fill-rule="evenodd" clip-rule="evenodd" fill="#EED5B6" stroke="#000000" stroke-width="1.25" stroke-linecap="square" stroke-miterlimit="10" d="  M385.761,406.254C373.661,421.305,373.931,389.871,385.761,406.254L385.761,406.254z"/>
<path fill-rule="evenodd" clip-rule="evenodd" fill="#EED5B6" stroke="#000000" stroke-width="1.25" stroke-linecap="square" stroke-miterlimit="10" d="  M326.511,407.754c4.391,50.044,72.975,37.497,51.75-12.75C365.2,364.086,323.219,373.385,326.511,407.754z"/>
<path fill-rule="evenodd" clip-rule="evenodd" fill="#137827" stroke="#000000" stroke-width="1.25" stroke-linecap="square" stroke-miterlimit="10" d="  M409.011,428.004c-8.836,0.198-15.549,1.906-21,9C397.856,442.321,405.077,438.773,409.011,428.004z"/>
<path fill-rule="evenodd" clip-rule="evenodd" fill="#EED5B6" stroke="#000000" stroke-width="1.25" stroke-linecap="square" stroke-miterlimit="10" d="  M385.011,424.254c-4.223,0.23-7.404-0.227-11.25,1.5c17.262,10.653,32.279,22.673,27.375-6.75  C396.167,389.19,367.459,403.746,385.011,424.254z"/>
<path fill-rule="evenodd" clip-rule="evenodd" fill="#137827" stroke="#000000" stroke-width="1.25" stroke-linecap="square" stroke-miterlimit="10" d="  M409.011,428.754c-8.307,5.182-10.368,10.648-21.75,7.5c7.527,13.393,17.886,66.966,41.252,57.75  C453.66,484.085,414.479,444.193,409.011,428.754z"/>
<path fill-rule="evenodd" clip-rule="evenodd" fill="#63211C" stroke="#000000" stroke-linecap="square" stroke-miterlimit="10" d="  M375.261,411.504c-8.162,4.171-10.889,9.748-21,8.25C363.297,436.941,376.986,430.083,375.261,411.504z"/>
<path fill-rule="evenodd" clip-rule="evenodd" fill="#137827" d="M339.261,467.004l-3.75,39L339.261,467.004z"/>
<line fill="none" stroke="#000000" stroke-width="1.25" stroke-linecap="square" stroke-miterlimit="10" x1="339.261" y1="467.004" x2="335.511" y2="506.004"/>
<path fill-rule="evenodd" clip-rule="evenodd" fill="#FFFFFF" stroke="#000000" stroke-width="1.25" stroke-linecap="square" stroke-miterlimit="10" d="  M511.763,400.254c-12.75-7.25-25.5-14.5-38.25-21.75c9.5-7.25,19-14.5,28.5-21.75c-14,2.25-28,4.5-42,6.75  c0.867-6.965-3.012-14.935-1.5-21.75c-7.25,7-14.5,14-21.75,21c-4.25-8.75-8.5-17.5-12.75-26.25c-0.75,10.25-1.5,20.5-2.25,30.75  c-10.25-3.25-20.501-6.5-30.752-9.75c7.25,9.25,14.5,18.5,21.75,27.75c-6.764,2.342-13.248,8.449-20.25,9.75  c7.216-0.24,14.521,2.97,21.75,3c-10.5,7.5-21,15-31.5,22.5c19.007-4.362,47.604-20.65,57.752,3.75  c0.646-5.456,5.711-10.331,6.75-15.75c15.25,7.5,30.5,15,45.75,22.5c-7.25-10-14.5-20-21.75-30  C484.763,400.754,498.263,400.504,511.763,400.254z"/>
</svg>