<svg xmlns="http://www.w3.org/2000/svg" xmlns:xlink="http://www.w3.org/1999/xlink" version="1.1" id="Layer_1" x="0px" y="0px" enable-background="new 0 0 822.05 841.89" xml:space="preserve" viewBox="340.44 241.29 140.12 359.6">
<path fill-rule="evenodd" clip-rule="evenodd" fill="#FFFBCE" stroke="#000000" stroke-width="2" stroke-linecap="square" stroke-miterlimit="10" d="  M358.559,599.89c-16.622-2.016-6.75-147.074-6.75-167.351c0-17.345-13.036-183.196,0-189.649c12.067-5.974,6.75,34.513,6.75,40.028  c0,42.44,0,84.881,0,127.322C358.559,473.457,358.559,536.673,358.559,599.89z"/>
<path fill-rule="evenodd" clip-rule="evenodd" fill="#FFFBCE" stroke="#000000" stroke-width="2" stroke-linecap="square" stroke-miterlimit="10" d="  M347.309,325.39c-13.531,29.211,21.603,23.792,36.75,16.5C380.896,328.968,364.054,319.803,347.309,325.39z"/>
<path fill-rule="evenodd" clip-rule="evenodd" fill="#DFF3FD" stroke="#000000" stroke-linecap="square" stroke-miterlimit="10" d="  M369.059,324.64c1.579-18.508,8.856-44.38,28.5-51c43.074-14.516,9.732,33.839-11.25,25.5  c-26.838,38.358-2.229,297.466-27.75,300.75C362.059,508.14,365.559,416.39,369.059,324.64z"/>
<path fill-rule="evenodd" clip-rule="evenodd" fill="#DFF3FD" stroke="#000000" stroke-width="2" stroke-linecap="square" stroke-miterlimit="10" d="  M424.561,278.14c1.851,12.591-27.936,40.541-38.252,23.25C376.437,284.846,413.919,271.254,424.561,278.14z"/>
<path fill-rule="evenodd" clip-rule="evenodd" fill="#FFFBCE" stroke="#000000" stroke-width="2" stroke-linecap="square" stroke-miterlimit="10" d="  M367.559,515.14c11.064,2.953,23.013-15.173,34.5-4.5c22.399,20.812-32.507,21.444-37.5,21.75  C365.496,526.999,365.31,520.081,367.559,515.14z"/>
<path fill-rule="evenodd" clip-rule="evenodd" fill="#FFFBCE" stroke="#000000" stroke-width="2" stroke-linecap="square" stroke-miterlimit="10" d="  M348.059,543.64c-21.422,17.911,14.839,22.532,28.125,19.875C405.786,557.595,360.72,541.918,348.059,543.64z"/>
<path fill-rule="evenodd" clip-rule="evenodd" fill="#FFFBCE" stroke="#000000" stroke-width="2" stroke-linecap="square" stroke-miterlimit="10" d="  M406.559,284.14C400.679,284.14,400.679,284.14,406.559,284.14L406.559,284.14z"/>
<path fill-rule="evenodd" clip-rule="evenodd" fill="#FFFBCE" stroke="#000000" stroke-width="2" stroke-linecap="square" stroke-miterlimit="10" d="  M400.559,296.14c-2.279,0.257-2.658,6.13-5.25,0C397.799,291.739,398.724,296.347,400.559,296.14z"/>
<path fill-rule="evenodd" clip-rule="evenodd" fill="#FFFBCE" stroke="#000000" stroke-width="2" stroke-linecap="square" stroke-miterlimit="10" d="  M418.561,285.64c-2.185-0.211-3.221,2.356-6,0C415.733,281.576,416.17,285.409,418.561,285.64z"/>
<path fill-rule="evenodd" clip-rule="evenodd" fill="#FFFBCE" stroke="#000000" stroke-width="2" stroke-linecap="square" stroke-miterlimit="10" d="  M410.311,292.39C407.223,292.733,406.808,292.78,410.311,292.39L410.311,292.39z"/>
<path fill-rule="evenodd" clip-rule="evenodd" fill="#DFF3FD" stroke="#000000" stroke-linecap="square" stroke-miterlimit="10" d="  M403.559,323.14c-1.012,13.125-1.124,29.541,10.502,36.75C411.574,347.386,408.32,334.967,403.559,323.14z"/>
<path fill-rule="evenodd" clip-rule="evenodd" fill="#DFF3FD" stroke="#000000" stroke-linecap="square" stroke-miterlimit="10" d="  M420.061,314.89c2.789,13.243,7.005,27.834,20.25,32.25C434.15,336.042,427.287,325.326,420.061,314.89z"/>
<path fill-rule="evenodd" clip-rule="evenodd" fill="#DFF3FD" stroke="#000000" stroke-linecap="square" stroke-miterlimit="10" d="  M435.811,300.64c7.386,11.271,17.282,23.001,30.75,23.25C456.985,315.322,446.688,307.48,435.811,300.64z"/>
<path fill-rule="evenodd" clip-rule="evenodd" fill="#DFF3FD" stroke="#000000" stroke-linecap="square" stroke-miterlimit="10" d="  M462.061,342.64c5.473,7.544,8.668,13.06,18,14.25C474.59,351.657,468.577,346.516,462.061,342.64z"/>
<path fill-rule="evenodd" clip-rule="evenodd" fill="#DFF3FD" stroke="#000000" stroke-linecap="square" stroke-miterlimit="10" d="  M433.561,356.89c2.395,9.276,3.78,15.872,12,20.25C441.987,370.242,438.19,363.142,433.561,356.89z"/>
</svg>