<svg xmlns="http://www.w3.org/2000/svg" xmlns:xlink="http://www.w3.org/1999/xlink" version="1.1" id="Layer_1" x="0px" y="0px" enable-background="new 0 0 822.05 841.89" xml:space="preserve" viewBox="321.17 343.04 178.25 156.61">
<path fill-rule="evenodd" clip-rule="evenodd" fill="#EDCBA6" stroke="#000000" stroke-width="1.25" stroke-linecap="square" stroke-miterlimit="10" d="  M369.049,415.768C374.011,461.478,340.252,379.936,369.049,415.768L369.049,415.768z"/>
<path fill-rule="evenodd" clip-rule="evenodd" fill="#EDCBA6" stroke="#000000" stroke-width="1.25" stroke-linecap="square" stroke-miterlimit="10" d="  M462.051,418.768C446.942,461.662,448.343,375.438,462.051,418.768L462.051,418.768z"/>
<path fill-rule="evenodd" clip-rule="evenodd" fill="#EDCBA6" stroke="#000000" stroke-width="1.25" stroke-linecap="square" stroke-miterlimit="10" d="  M454.551,460.768c-10.622-3.264-21.766-21.1-29.76-20.922c-18.35,0.407-47.2,5.793-61.742,20.172c-30.639,30.295-13.028,39,18.69,39  c20.248,0,40.497,0,60.745,0C447.16,499.018,452.994,466.44,454.551,460.768z"/>
<path fill-rule="evenodd" clip-rule="evenodd" fill="#FFFFFF" stroke="#000000" stroke-width="1.25" stroke-linecap="square" stroke-miterlimit="10" d="  M481.551,451.768c-8.84-0.677-17.737-1.191-26.625-1.875c-9.418-0.725-6.311,10.892-13.875,15.375  c-12.831,7.604-24.004,14.002-39.752,9.75c-22.856-6.172-21.28-27.498-44.611-25.889c-27.279,1.881-29.69,26.474-34.889,49.889  c59,0,118.001,0,177.002,0C493.093,483.107,491.461,465.487,481.551,451.768z"/>
<path fill-rule="evenodd" clip-rule="evenodd" fill="#D0CE9E" stroke="#000000" stroke-width="1.25" stroke-linecap="square" stroke-miterlimit="10" d="  M361.549,392.518c-3.832,53.499,64.953,108.146,88.127,38.625c8.932-26.794,10.187-65.317-17.625-81.375  C399.599,331.031,363.637,358.278,361.549,392.518z"/>
<path fill-rule="evenodd" clip-rule="evenodd" d="M404.299,411.268C396.146,412.976,396.298,412.944,404.299,411.268  L404.299,411.268z"/>
<path fill-rule="evenodd" clip-rule="evenodd" d="M429.801,413.518C421.439,412.235,422.332,412.372,429.801,413.518  L429.801,413.518z"/>
<path fill="none" stroke="#000000" stroke-linecap="square" stroke-miterlimit="10" d="M407.301,426.268  c3.024,3.823,6.689,3.979,10.5,0.75"/>
<path fill="none" stroke="#000000" stroke-width="0.75" stroke-linecap="square" stroke-miterlimit="10" d="M390.799,414.268  c4.457-5.56,10.254-7.022,16.502-3.75"/>
<path fill="none" stroke="#000000" stroke-width="0.75" stroke-linecap="square" stroke-miterlimit="10" d="M436.551,414.268  c-4.878-5.188-10.791-6.213-16.5-2.25"/>
<path fill="none" stroke="#000000" stroke-linecap="square" stroke-miterlimit="10" d="M396.799,442.768  c10.418-2.996,20.659-2.83,31.502,0"/>
</svg>