<svg xmlns="http://www.w3.org/2000/svg" xmlns:xlink="http://www.w3.org/1999/xlink" version="1.1" id="Layer_1" x="0px" y="0px" enable-background="new 0 0 822.05 841.89" xml:space="preserve" viewBox="200.51 265.59 420.85 313.45">
<path fill-rule="evenodd" clip-rule="evenodd" fill="#FFFBCE" stroke="#000000" stroke-width="2" stroke-linecap="square" stroke-miterlimit="10" d="  M473.08,269.644c-74.028-15.982-71.582,33.046-94.835,95.444c-11.963,32.103-18.654,39.207,17.583,50.056  c36.787,11.014,77.771,13.211,115.569,19.271c59.499,9.538,54.884-72.882,65.383-115.646c6.046-24.625,8.783-26.998-12.2-37.874  C542.279,269.335,497.557,273.197,473.08,269.644z"/>
<path fill="none" stroke="#000000" stroke-width="2" stroke-linecap="square" stroke-miterlimit="10" d="M425.83,289.894  c-13.501,34.5-27.001,69-40.502,103.5c46.522,8.501,93.045,17.003,139.567,25.504c18.529,3.386,33.476-89.183,38.935-108.754  C517.83,303.394,471.83,296.644,425.83,289.894z"/>
<path fill-rule="evenodd" clip-rule="evenodd" fill="#BCBEC0" stroke="#000000" stroke-width="2" stroke-linecap="square" stroke-miterlimit="10" d="  M486.58,268.144c-17.126-5.139-32.353,22.293-1.5,18c-7.64,8.555-27.125,39.207-3,35.25c-2.295-3.776-6.487-11.468-2.25-15.75  c3.996-4.039,5.755-11.936,10.5-15c2.45-1.582,10.022,4.212,12.75,2.25C532.938,271.419,506.693,286.005,486.58,268.144z"/>
<path fill="none" stroke="#000000" stroke-width="2" stroke-linecap="square" stroke-miterlimit="10" d="M425.83,289.894  c10.181,26.542,23.759,46.062,15.097,73.347c-11.46,36.097-18.043,28.942-55.599,30.153"/>
<line fill="none" stroke="#000000" stroke-width="2" stroke-linecap="square" stroke-miterlimit="10" x1="446.83" y1="344.644" x2="551.08" y2="358.144"/>
<line fill="none" stroke="#000000" stroke-width="2" stroke-linecap="square" stroke-miterlimit="10" x1="431.83" y1="391.894" x2="535.33" y2="407.644"/>
<path fill-rule="evenodd" clip-rule="evenodd" fill="#BCBEC0" stroke="#000000" stroke-width="2" stroke-linecap="square" stroke-miterlimit="10" d="  M508.33,374.644c-2.342,16.913-26.461,18.316-27,0C480.792,356.359,504.892,359.687,508.33,374.644z"/>
<path fill-rule="evenodd" clip-rule="evenodd" fill="#666E75" stroke="#000000" stroke-width="2" stroke-linecap="square" stroke-miterlimit="10" d="  M502.33,374.644C485.699,393.38,484.643,357.384,502.33,374.644L502.33,374.644z"/>
<path fill-rule="evenodd" clip-rule="evenodd" fill="#FFFBCE" stroke="#000000" stroke-width="2" stroke-linecap="square" stroke-miterlimit="10" d="  M306.578,382.894c-73.376-17.946-72.157,34.418-94.833,94.889c-10.562,28.166-20.452,37.187,11.208,48.361  c36.791,12.985,79.637,14.738,117.933,20.878c59.869,9.597,53.848-49.729,65.111-97.032c4.762-19.999,21.46-47.452-5.294-55.096  C371.163,386.454,337.039,387.316,306.578,382.894z"/>
<path fill="none" stroke="#000000" stroke-width="2" stroke-linecap="square" stroke-miterlimit="10" d="M259.328,403.144  c-13.5,34.5-27,69-40.5,103.5c46.522,8.502,93.044,17.003,139.565,25.504c18.53,3.387,33.476-89.183,38.935-108.754  C351.328,416.644,305.328,409.894,259.328,403.144z"/>
<path fill-rule="evenodd" clip-rule="evenodd" fill="#BCBEC0" stroke="#000000" stroke-width="2" stroke-linecap="square" stroke-miterlimit="10" d="  M320.078,380.644c-18.779-2.922-31.096,22.868-1.5,18.75c-7.715,8.488-27.212,39.789-3,34.5  c-13.416-21.398,10.977-26.771,25.875-28.125C379.45,402.315,320.422,380.949,320.078,380.644z"/>
<path fill="none" stroke="#000000" stroke-width="2" stroke-linecap="square" stroke-miterlimit="10" d="M259.328,403.144  c10.181,26.542,23.758,46.062,15.096,73.347c-11.459,36.097-18.041,28.941-55.596,30.153"/>
<line fill="none" stroke="#000000" stroke-width="2" stroke-linecap="square" stroke-miterlimit="10" x1="280.328" y1="457.894" x2="384.578" y2="471.394"/>
<line fill="none" stroke="#000000" stroke-width="2" stroke-linecap="square" stroke-miterlimit="10" x1="265.328" y1="505.144" x2="368.828" y2="520.894"/>
<path fill-rule="evenodd" clip-rule="evenodd" fill="#BCBEC0" stroke="#000000" stroke-width="2" stroke-linecap="square" stroke-miterlimit="10" d="  M341.828,487.894c-2.487,16.839-26.663,18.223-27,0C314.49,469.618,338.625,472.5,341.828,487.894z"/>
<path fill-rule="evenodd" clip-rule="evenodd" fill="#666E75" stroke="#000000" stroke-width="2" stroke-linecap="square" stroke-miterlimit="10" d="  M335.828,487.894C318.865,507.066,318.75,469.019,335.828,487.894L335.828,487.894z"/>
<path fill-rule="evenodd" clip-rule="evenodd" fill="#FFFBCE" stroke="#000000" stroke-width="2" stroke-linecap="square" stroke-miterlimit="10" d="  M512.08,412.144c-73.852-15.828-71.606,33.578-94.279,95.444c-9.842,26.855-21.715,39.085,11.029,48.181  c38.134,10.593,78.653,14.62,117.6,21.211c62.309,10.545,56.118-59.401,67.373-106.669c6.746-28.334,14.096-33.61-10.223-46.167  C581.291,412.635,536.565,415.698,512.08,412.144z"/>
<path fill="none" stroke="#000000" stroke-width="2" stroke-linecap="square" stroke-miterlimit="10" d="M464.83,432.394  c-13.5,34.75-27,69.5-40.5,104.25c46.521,8.502,93.044,17.003,139.565,25.504c18.592,3.398,34.107-89.852,39.685-109.504  C557.33,445.894,511.08,439.144,464.83,432.394z"/>
<path fill-rule="evenodd" clip-rule="evenodd" fill="#BCBEC0" stroke="#000000" stroke-width="2" stroke-linecap="square" stroke-miterlimit="10" d="  M525.58,410.644c-19.064-2.809-30.529,22.479-1.5,18.75c-7.962,7.854-27.219,40.062-2.25,34.5c-2.893-4.064-7.271-10.749-2.25-15.75  c3.993-3.978,5.84-10.934,10.5-14.25c2.09-1.486,9.784,3.785,12.75,1.5C570.903,413.767,546.832,428.714,525.58,410.644z"/>
<path fill="none" stroke="#000000" stroke-width="2" stroke-linecap="square" stroke-miterlimit="10" d="M464.83,432.394  c10.033,26.517,23.873,46.595,15.097,73.802c-11.485,35.603-18.457,28.651-55.597,30.448"/>
<line fill="none" stroke="#000000" stroke-width="2" stroke-linecap="square" stroke-miterlimit="10" x1="485.83" y1="487.894" x2="590.83" y2="501.394"/>
<line fill="none" stroke="#000000" stroke-width="2" stroke-linecap="square" stroke-miterlimit="10" x1="470.83" y1="534.394" x2="574.33" y2="550.894"/>
<path fill-rule="evenodd" clip-rule="evenodd" fill="#BCBEC0" stroke="#000000" stroke-width="2" stroke-linecap="square" stroke-miterlimit="10" d="  M547.33,517.894c-2.438,16.496-27,18.449-27,0S544.893,501.398,547.33,517.894z"/>
<path fill-rule="evenodd" clip-rule="evenodd" fill="#666E75" stroke="#000000" stroke-width="2" stroke-linecap="square" stroke-miterlimit="10" d="  M541.33,517.894C524.909,536.488,524.909,499.3,541.33,517.894L541.33,517.894z"/>
</svg>