<svg xmlns="http://www.w3.org/2000/svg" xmlns:xlink="http://www.w3.org/1999/xlink" version="1.1" id="Layer_1" x="0px" y="0px" enable-background="new 0 0 822.05 841.89" xml:space="preserve" viewBox="350.22 340.7 117.02 165.19">
<path fill-rule="evenodd" clip-rule="evenodd" fill="#7D5E23" stroke="#000000" stroke-width="1.25" stroke-linecap="square" stroke-miterlimit="10" d="  M387.125,372.265c-11.596,1.87-18.016,101.297-8.25,117c7.579,12.188,8.25-45.087,8.25-47.588  C387.125,418.54,387.125,395.402,387.125,372.265z"/>
<path fill-rule="evenodd" clip-rule="evenodd" fill="#7D5E23" stroke="#000000" stroke-width="1.25" stroke-linecap="square" stroke-miterlimit="10" d="  M426.125,438.265c-12.202-0.205-15.322,45.344-8.25,51C430.116,499.056,426.125,444.775,426.125,438.265z"/>
<path fill-rule="evenodd" clip-rule="evenodd" fill="#CF001B" stroke="#000000" stroke-width="1.25" stroke-linecap="square" stroke-miterlimit="10" d="  M363.125,386.515c8-4.5,16-9,24-13.5c4.897,18.602-10.629,22.393-24,30.75C363.125,398.244,362.027,391.898,363.125,386.515z"/>
<path fill-rule="evenodd" clip-rule="evenodd" fill="#7D5E23" stroke="#000000" stroke-width="1.25" stroke-linecap="square" stroke-miterlimit="10" d="  M403.625,448.765c-12.202-0.205-15.322,45.344-8.25,51C407.616,509.556,403.625,455.275,403.625,448.765z"/>
<path fill-rule="evenodd" clip-rule="evenodd" fill="#CF001B" stroke="#000000" stroke-width="1.25" stroke-linecap="square" stroke-miterlimit="10" d="  M432.125,442.765c-7.717,12.637-65.456,23.385-70.5,2.25C356.309,422.742,423.484,426.225,432.125,442.765z"/>
<path fill-rule="evenodd" clip-rule="evenodd" fill="#7D5E23" stroke="#000000" stroke-width="1.25" stroke-linecap="square" stroke-miterlimit="10" d="  M363.875,382.015c-11.596,1.87-18.016,101.297-8.25,117c7.579,12.188,8.25-45.087,8.25-47.588  C363.875,428.29,363.875,405.152,363.875,382.015z"/>
<path fill-rule="evenodd" clip-rule="evenodd" stroke="#000000" stroke-width="1.25" stroke-linecap="square" stroke-miterlimit="10" d="  M442.625,433.015c-14.256,1.267-33.251-8.804-38.25,3.75c6.216,0.405,34.395-1.006,34.583,4.826  c0.442,13.711-1.433,35.388,4.417,43.924C442.095,468.146,440.872,450.249,442.625,433.015z"/>
<path fill-rule="evenodd" clip-rule="evenodd" fill="#392170" stroke="#000000" stroke-width="1.25" stroke-linecap="square" stroke-miterlimit="10" d="  M437.375,484.015c7.188-1.669,39.026,0.794,26.25,12C453.294,505.077,432.795,495.887,437.375,484.015z"/>
<path fill-rule="evenodd" clip-rule="evenodd" fill="#392170" stroke="#000000" stroke-width="1.25" stroke-linecap="square" stroke-miterlimit="10" d="  M401.375,422.515c17.887-1.7,51.488-3.944,33,19.5C421.954,440.983,377.299,443.134,401.375,422.515z"/>
<line fill="none" stroke="#000000" stroke-width="1.25" stroke-linecap="square" stroke-miterlimit="10" x1="434.375" y1="390.265" x2="434.375" y2="390.265"/>
<path fill-rule="evenodd" clip-rule="evenodd" stroke="#000000" stroke-width="1.25" stroke-linecap="square" stroke-miterlimit="10" d="  M434.375,440.515c-6.386-5.65-22.967-11.732-33-18c-1,2-2,4-3,6c37.874,17.134,31.038,21.75,28.5,63c1.25,0,2.5,0,3.75,0  C431.072,474.51,430.688,457.174,434.375,440.515z"/>
<path fill-rule="evenodd" clip-rule="evenodd" fill="#392170" stroke="#000000" stroke-width="1.25" stroke-linecap="square" stroke-miterlimit="10" d="  M426.125,491.515c5.574-1.542,42.065-0.998,26.25,10.5C442.907,508.898,419.294,504.603,426.125,491.515z"/>
<path fill-rule="evenodd" clip-rule="evenodd" fill="#392170" stroke="#000000" stroke-width="1.25" stroke-linecap="square" stroke-miterlimit="10" d="  M386.375,423.265c14.886-2.262,31.421-3.544,43.5,6c-9.739,21.351-48.08,21.369-61.5,0  C374.072,427.367,380.435,423.823,386.375,423.265z"/>
<path fill-rule="evenodd" clip-rule="evenodd" fill="#137827" stroke="#000000" stroke-width="1.25" stroke-linecap="square" stroke-miterlimit="10" d="  M383.375,377.515c-9.993,15.718-23.325,40.185-12,57.75c13.918-13.116,32.444-9.872,34.5-30.75  C407.264,390.412,397.665,377.25,383.375,377.515z"/>
<path fill-rule="evenodd" clip-rule="evenodd" fill="#137827" stroke="#000000" stroke-width="1.25" stroke-linecap="square" stroke-miterlimit="10" d="  M398.375,414.265c2.536-35.869-15.398-33.658-17.25,0.75C387.367,412.593,392.979,415.327,398.375,414.265z"/>
<path fill-rule="evenodd" clip-rule="evenodd" fill="#EED5B6" d="M385.625,412.765L385.625,412.765L385.625,412.765z"/>
<line fill="none" stroke="#000000" stroke-width="1.25" stroke-linecap="square" stroke-miterlimit="10" x1="385.625" y1="412.765" x2="385.625" y2="412.765"/>
<path fill-rule="evenodd" clip-rule="evenodd" stroke="#000000" stroke-width="1.25" stroke-linecap="square" stroke-miterlimit="10" d="  M414.125,449.515c-12.07-12.397-38.705-16.912-24.75-36.75c-4.939,3.765-8.278,10.489-11.25,16.5  c18.174,6.856,26.475,19.486,39,32.25C419.45,456,415.98,454.477,414.125,449.515z"/>
<path fill-rule="evenodd" clip-rule="evenodd" fill="#EED5B6" stroke="#000000" stroke-width="1.25" stroke-linecap="square" stroke-miterlimit="10" d="  M414.125,450.265c1.126,4.388,4.411,5.545,3,10.5c-7.268-5.569-8.634-7.94-11.25-16.5  C410.73,444.699,410.763,447.907,414.125,450.265z"/>
<path fill-rule="evenodd" clip-rule="evenodd" fill="#EED5B6" stroke="#000000" stroke-width="1.25" stroke-linecap="square" stroke-miterlimit="10" d="  M381.125,354.265c-5.804,18.968,13.812,37.228,27,18C423.302,350.137,390.514,325.736,381.125,354.265z"/>
</svg>