<svg xmlns="http://www.w3.org/2000/svg" xmlns:xlink="http://www.w3.org/1999/xlink" version="1.1" id="Layer_1" x="0px" y="0px" enable-background="new 0 0 822.05 841.89" xml:space="preserve" viewBox="210.15 261.96 405.61 321.21">
<path fill-rule="evenodd" clip-rule="evenodd" fill="#74666F" stroke="#000000" stroke-width="2" stroke-linecap="square" stroke-miterlimit="10" d="  M266.5,382.39c-3.286,20.841-28.849,19.009-27-2.25C241.369,358.645,266.715,361.56,266.5,382.39z"/>
<path fill-rule="evenodd" clip-rule="evenodd" fill="#74666F" stroke="#000000" stroke-width="2" stroke-linecap="square" stroke-miterlimit="10" d="  M470.5,337.39c-4.632,14.717-20.073,16.109-20.25-1.5C450.076,318.573,468.212,323.126,470.5,337.39z"/>
<path fill-rule="evenodd" clip-rule="evenodd" fill="#90A7D6" stroke="#000000" stroke-width="2" stroke-linecap="square" stroke-miterlimit="10" d="  M229,368.14c-21.146-2.354-23.328,4.038-7.5,15c20.729,14.357,62.978,13.182,87,9.75c36.451-5.207,81.178-44.967,112.828-63.398  c18.572-10.815,50.401-17.148,63.422-34.852c32.783-44.575-40.294-32.548-61.5-21C360.442,307.843,294.508,337.863,229,368.14z"/>
<path fill-rule="evenodd" clip-rule="evenodd" fill="#666E75" stroke="#000000" stroke-width="2" stroke-linecap="square" stroke-miterlimit="10" d="  M265.75,395.14c16,6.75,32,13.5,48,20.25c2.606-3.375,5.17-10.051,6-14.25C302.809,393.41,283.873,395.502,265.75,395.14z"/>
<path fill-rule="evenodd" clip-rule="evenodd" fill="#666E75" stroke="#000000" stroke-width="2" stroke-linecap="square" stroke-miterlimit="10" d="  M425.5,328.39C441.497,310.644,474.824,345.798,425.5,328.39L425.5,328.39z"/>
<path fill-rule="evenodd" clip-rule="evenodd" fill="#74666F" stroke="#000000" stroke-width="2" stroke-linecap="square" stroke-miterlimit="10" d="  M339.25,414.64c-3.371,20.844-28.279,18.092-26.25-3C315.066,390.162,340.515,393.706,339.25,414.64z"/>
<path fill-rule="evenodd" clip-rule="evenodd" fill="#BCBEC0" stroke="#000000" stroke-width="2" stroke-linecap="square" stroke-miterlimit="10" d="  M338.5,416.14C322.388,453.563,331.835,375.584,338.5,416.14L338.5,416.14z"/>
<path fill-rule="evenodd" clip-rule="evenodd" fill="#BCBEC0" stroke="#000000" stroke-width="2" stroke-linecap="square" stroke-miterlimit="10" d="  M470.5,338.14C455.92,358.335,460.062,314.364,470.5,338.14L470.5,338.14z"/>
<path fill-rule="evenodd" clip-rule="evenodd" fill="#74666F" stroke="#000000" stroke-width="2" stroke-linecap="square" stroke-miterlimit="10" d="  M289,470.14c-3.319,20.916-28.568,18.003-26.25-3C265.109,445.766,290.584,449.157,289,470.14z"/>
<path fill-rule="evenodd" clip-rule="evenodd" fill="#74666F" stroke="#000000" stroke-width="2" stroke-linecap="square" stroke-miterlimit="10" d="  M493,425.14c-4.435,14.175-22.416,15.261-20.25-2.25C474.954,405.071,491.659,410.37,493,425.14z"/>
<path fill-rule="evenodd" clip-rule="evenodd" fill="#90A7D6" stroke="#000000" stroke-width="2" stroke-linecap="square" stroke-miterlimit="10" d="  M252.25,455.14c-12.63-0.966-31.726,5.31-11.25,13.5c25.332,10.133,58.117,17.314,85.5,12c38.42-7.456,76.52-39.197,110.46-58.962  c21.034-12.249,51.231-20.979,68.415-38.163c40.807-40.807-36.932-35.266-58.875-22.875  C384.254,395.788,317.922,425.064,252.25,455.14z"/>
<path fill-rule="evenodd" clip-rule="evenodd" fill="#666E75" stroke="#000000" stroke-width="2" stroke-linecap="square" stroke-miterlimit="10" d="  M289,482.14c16.737,7.061,48.095,32.153,54,6.75C326.327,480.113,307.195,482.504,289,482.14z"/>
<path fill-rule="evenodd" clip-rule="evenodd" fill="#666E75" stroke="#000000" stroke-width="2" stroke-linecap="square" stroke-miterlimit="10" d="  M448,415.39C464.78,399.033,496.668,432.567,448,415.39L448,415.39z"/>
<path fill-rule="evenodd" clip-rule="evenodd" fill="#74666F" stroke="#000000" stroke-width="2" stroke-linecap="square" stroke-miterlimit="10" d="  M362.5,501.64c-3.522,20.345-28.307,19.071-26.25-2.25C338.308,478.056,362.741,480.608,362.5,501.64z"/>
<path fill-rule="evenodd" clip-rule="evenodd" fill="#BCBEC0" stroke="#000000" stroke-width="2" stroke-linecap="square" stroke-miterlimit="10" d="  M361.75,503.14C344.417,541.075,352.655,462.71,361.75,503.14L361.75,503.14z"/>
<path fill-rule="evenodd" clip-rule="evenodd" fill="#BCBEC0" stroke="#000000" stroke-width="2" stroke-linecap="square" stroke-miterlimit="10" d="  M493.75,425.14C478.16,444.934,483.062,401.923,493.75,425.14L493.75,425.14z"/>
<path fill-rule="evenodd" clip-rule="evenodd" fill="#74666F" stroke="#000000" stroke-width="2" stroke-linecap="square" stroke-miterlimit="10" d="  M385.75,535.39c-2.955,20.982-28.091,19.005-26.25-2.25C361.332,511.988,385.884,514.639,385.75,535.39z"/>
<path fill-rule="evenodd" clip-rule="evenodd" fill="#74666F" stroke="#000000" stroke-width="2" stroke-linecap="square" stroke-miterlimit="10" d="  M589.75,491.14c-5.034,14.092-20.763,15.436-20.25-2.25C570.019,470.996,588.09,476.785,589.75,491.14z"/>
<path fill-rule="evenodd" clip-rule="evenodd" fill="#90A7D6" stroke="#000000" stroke-width="2" stroke-linecap="square" stroke-miterlimit="10" d="  M348.25,521.14c-12.998-1.254-30.608,5.457-10.5,13.5c25.148,10.06,57.555,17.047,84.75,12  c38.608-7.165,76.618-39.043,110.622-58.962c22.245-13.031,48.872-21.699,68.628-38.163c44.165-36.804-36.546-35.379-58.5-22.875  C481.136,462.018,414.146,491.086,348.25,521.14z"/>
<path fill-rule="evenodd" clip-rule="evenodd" fill="#666E75" stroke="#000000" stroke-width="2" stroke-linecap="square" stroke-miterlimit="10" d="  M385,548.14c16.25,6.75,32.5,13.5,48.75,20.25c1.75-4.5,3.5-9,5.25-13.5C422.327,546.113,403.195,548.504,385,548.14z"/>
<path fill-rule="evenodd" clip-rule="evenodd" fill="#666E75" stroke="#000000" stroke-width="2" stroke-linecap="square" stroke-miterlimit="10" d="  M544.75,481.39C561.329,463.639,593.746,498.683,544.75,481.39L544.75,481.39z"/>
<path fill-rule="evenodd" clip-rule="evenodd" fill="#74666F" stroke="#000000" stroke-width="2" stroke-linecap="square" stroke-miterlimit="10" d="  M458.5,567.64c-3.295,22.412-30.139,17.19-25.875-4.125C436.618,543.549,460.623,547.233,458.5,567.64z"/>
<path fill-rule="evenodd" clip-rule="evenodd" fill="#BCBEC0" stroke="#000000" stroke-width="2" stroke-linecap="square" stroke-miterlimit="10" d="  M457.75,569.14C439.544,607.164,451.111,528.746,457.75,569.14L457.75,569.14z"/>
<path fill-rule="evenodd" clip-rule="evenodd" fill="#BCBEC0" stroke="#000000" stroke-width="2" stroke-linecap="square" stroke-miterlimit="10" d="  M590.5,491.14C574.652,510.63,579.625,468.348,590.5,491.14L590.5,491.14z"/>
</svg>