<svg xmlns="http://www.w3.org/2000/svg" xmlns:xlink="http://www.w3.org/1999/xlink" version="1.1" id="Layer_1" x="0px" y="0px" enable-background="new 0 0 822.05 841.89" xml:space="preserve" viewBox="209.38 256.69 397.08 338.52">
<path fill-rule="evenodd" clip-rule="evenodd" fill="#C6E9F7" stroke="#000000" stroke-width="2" stroke-linecap="square" stroke-miterlimit="10" d="  M262.6,290.75c0,36.974,1.565,69.898-15.558,102.588c-7.741,14.779-21.144,53.98-8.442,69.162  c7.861,9.396,54.304,11.574,66.117,14.438c85.221,20.66,152.506,51.013,241.724,32.805c17.103-3.49,65.746-1.485,47.661-29.992  c-7.846-12.367-53.407-28.067-65.531-34.664c-33.743-18.36-76.62-37.881-102.469-66.961c-24.058-27.065-32.072-64.063-34.127-99  C388.966,227.973,283.136,283.501,262.6,290.75z"/>
<path fill-rule="evenodd" clip-rule="evenodd" fill="#BCBEC0" stroke="#000000" stroke-width="2" stroke-linecap="square" stroke-miterlimit="10" d="  M236.35,466.25c0.239,18.423,0.479,36.846,0.718,55.269c0.061,4.697,19.052,8.644,24.407,11.856  c18.785,11.271,1.513,25.067-11.625,31.125c-6.137,2.83-49.084-1.104-37.5,18c5.091,8.396,20.485,6,28.111,6  c50.301,0,100.603,0,150.904,0c47.737,0,152.429,18.268,197.486-10.5c40.906-26.117-8.928-50.539,9-78.75  c-63.021,17.193-126.218,27.719-189.918,9.139C355.378,493.06,292.147,461.34,236.35,466.25z"/>
<path fill-rule="evenodd" clip-rule="evenodd" fill="#FFFFFF" stroke="#000000" stroke-width="2" stroke-linecap="square" stroke-miterlimit="10" d="  M327.85,493.25c-2.055,28.08-0.54,25.225-21,37.5c-6.962,4.177-15.441,10.264-10.125,19.125  c17.253,28.755,113.342,11.396,143.183,11.547c22.669,0.114,37.454-13.77,16.194-31.422  C428.73,507.273,362.124,507.583,327.85,493.25z"/>
<path fill-rule="evenodd" clip-rule="evenodd" fill="#FFFFFF" stroke="#000000" stroke-width="2" stroke-linecap="square" stroke-miterlimit="10" d="  M498.102,527.75c10.879-0.659,117.354-14.566,81,28.5c-12.723,15.071-52.758,6-69.84,6  C492.931,562.25,494.56,538.125,498.102,527.75z"/>
<path fill-rule="evenodd" clip-rule="evenodd" fill="#FFFFFF" stroke="#000000" stroke-width="2" stroke-linecap="square" stroke-miterlimit="10" d="  M359.35,269.75c-1.743,5.218-0.519,12.448-0.75,18c11.5,0,23,0,34.5,0C381.85,281.75,370.6,275.75,359.35,269.75z"/>
<path fill-rule="evenodd" clip-rule="evenodd" fill="#FFFFFF" stroke="#000000" stroke-width="2" stroke-linecap="square" stroke-miterlimit="10" d="  M360.85,302.75c-1.592,4.872-1.522,10.657-2.25,15.75c13-4,26-8,39-12C385.35,305.25,373.1,304,360.85,302.75z"/>
<path fill-rule="evenodd" clip-rule="evenodd" fill="#FFFFFF" stroke="#000000" stroke-width="2" stroke-linecap="square" stroke-miterlimit="10" d="  M365.35,335c0.245,6.5,4.672,14.015,6.75,20.25c12-5.75,24-11.5,36-17.25C393.85,337,379.6,336,365.35,335z"/>
<path fill-rule="evenodd" clip-rule="evenodd" fill="#FFFFFF" stroke="#000000" stroke-width="2" stroke-linecap="square" stroke-miterlimit="10" d="  M379.6,370.25c2.615,5.267,8.793,9.828,12.75,14.25c7.75-9.5,15.501-19,23.252-28.5C403.601,360.75,391.6,365.5,379.6,370.25z"/>
<path fill-rule="evenodd" clip-rule="evenodd" fill="#FFFFFF" stroke="#000000" stroke-width="2" stroke-linecap="square" stroke-miterlimit="10" d="  M398.35,395c3.474,4.783,10.344,8.274,15.002,12c6-10.75,12-21.5,18-32.25C420.351,381.5,409.35,388.25,398.35,395z"/>
<path fill-rule="evenodd" clip-rule="evenodd" fill="#FFFFFF" stroke="#000000" stroke-width="2" stroke-linecap="square" stroke-miterlimit="10" d="  M423.102,417.5c4.351,4.086,11.908,6.213,17.25,9c4.25-11.5,8.5-23,12.75-34.5C443.102,400.5,433.102,409,423.102,417.5z"/>
<path fill-rule="evenodd" clip-rule="evenodd" fill="#FFFFFF" stroke="#000000" stroke-width="2" stroke-linecap="square" stroke-miterlimit="10" d="  M450.102,434.75c4.144,4.021,11.385,6.21,16.5,9c4.5-11.5,9-23,13.5-34.5C470.102,417.75,460.102,426.25,450.102,434.75z"/>
<path fill-rule="evenodd" clip-rule="evenodd" fill="#FFFFFF" stroke="#000000" stroke-width="2" stroke-linecap="square" stroke-miterlimit="10" d="  M480.852,447.5c3.743,3.196,9.177,5.098,13.5,7.5c3.75-9.5,7.5-19,11.25-28.5C497.352,433.5,489.102,440.5,480.852,447.5z"/>
</svg>