<svg xmlns="http://www.w3.org/2000/svg" xmlns:xlink="http://www.w3.org/1999/xlink" version="1.1" id="Layer_1" x="0px" y="0px" enable-background="new 0 0 822.05 841.89" xml:space="preserve" viewBox="307.75 354.59 203.56 133.54">
<path fill-rule="evenodd" clip-rule="evenodd" fill="#F8130D" stroke="#000000" stroke-linecap="square" stroke-miterlimit="10" d="  M450.75,433.14c-27.443,9.486-115.93,57.424-142.5,35.25C351.785,470.787,413.807,414.798,450.75,433.14z"/>
<path fill-rule="evenodd" clip-rule="evenodd" fill="#F6F519" stroke="#000000" stroke-linecap="square" stroke-miterlimit="10" d="  M382.5,435.39c21.776,14.318-2.069,31.905-17.25,24c-7.378-3.842,5.785-17.095,6.75-18.75C375.5,438.89,379,437.14,382.5,435.39z"/>
<path fill-rule="evenodd" clip-rule="evenodd" fill="#200F75" stroke="#000000" stroke-linecap="square" stroke-miterlimit="10" d="  M390,440.64c5.568,1.512,9.197,0.773,12.75,6C390.743,452.706,391.777,448.642,390,440.64z"/>
<path fill-rule="evenodd" clip-rule="evenodd" fill="#200F75" stroke="#000000" stroke-linecap="square" stroke-miterlimit="10" d="  M384.75,393.39c-15.98-13.147,17.537-4.875,29.25-6c13.564-1.303,40.731-17.579,44.25,6.75  C439.529,381.862,408.049,396.132,384.75,393.39z"/>
<path fill-rule="evenodd" clip-rule="evenodd" fill="#FFFFFF" stroke="#000000" stroke-linecap="square" stroke-miterlimit="10" d="  M372.75,377.64c5.807,13.718,32.152,17.201,27.75-2.25C396.72,358.687,372.107,359.837,372.75,377.64z"/>
<path fill-rule="evenodd" clip-rule="evenodd" fill="#FFFFFF" stroke="#000000" stroke-linecap="square" stroke-miterlimit="10" d="  M411,363.39C397.658,361.284,399.269,356.797,411,363.39L411,363.39z"/>
<path fill-rule="evenodd" clip-rule="evenodd" fill="#200F75" stroke="#000000" stroke-linecap="square" stroke-miterlimit="10" d="  M464.25,401.64c-2.653-0.083-10.519-0.352-12-0.75C456.25,401.14,460.25,401.39,464.25,401.64z"/>
<path fill-rule="evenodd" clip-rule="evenodd" fill="#F6F519" stroke="#000000" stroke-linecap="square" stroke-miterlimit="10" d="  M456.75,401.64c-5.963,3.562-6.438,5.823-3.75-6.75C455.409,396.23,455.701,400.95,456.75,401.64z"/>
<path fill-rule="evenodd" clip-rule="evenodd" fill="#200F75" stroke="#000000" stroke-linecap="square" stroke-miterlimit="10" d="  M372.75,397.89c26.042,0.983,54.878,0.505,79.5,3.75C427.525,401.169,394.138,404.964,372.75,397.89z"/>
<path fill-rule="evenodd" clip-rule="evenodd" fill="#200F75" stroke="#000000" stroke-linecap="square" stroke-miterlimit="10" d="  M386.25,402.39C369.944,400.968,376.064,392.373,386.25,402.39L386.25,402.39z"/>
<path fill-rule="evenodd" clip-rule="evenodd" fill="#200F75" d="M388.5,381.39c6.036,0.945,8.042,4.836,12.75,1.5  C395.674,378.443,390.655,381.65,388.5,381.39z"/>
<path fill="none" stroke="#000000" stroke-linecap="square" stroke-miterlimit="10" d="M388.5,381.39  c6.036,0.945,8.042,4.836,12.75,1.5c-4.807-3.804-10.046-1.732-12.75-2.25"/>
<path fill-rule="evenodd" clip-rule="evenodd" fill="#200F75" stroke="#000000" stroke-linecap="square" stroke-miterlimit="10" d="  M396,378.39c-6.677-4.176-15.882-6.148-23.25-9C371.639,381.196,389.114,386.057,396,378.39z"/>
<path fill-rule="evenodd" clip-rule="evenodd" fill="#F8130D" stroke="#000000" stroke-linecap="square" stroke-miterlimit="10" d="  M463.5,445.89c-27.98,10.018-114.793,58.076-142.5,36C364.54,484.5,426.03,427.288,463.5,445.89z"/>
<path fill-rule="evenodd" clip-rule="evenodd" fill="#200F75" stroke="#000000" stroke-linecap="square" stroke-miterlimit="10" d="  M411.75,414.39c-0.575,17.079-19.583,14.963-33,16.5c2.5,4,5,8,7.5,12c-15.4,6.345-28.499-11.439-21.75-21.75  C371.459,410.508,401.101,416.638,411.75,414.39z"/>
<path fill-rule="evenodd" clip-rule="evenodd" fill="#200F75" stroke="#000000" stroke-linecap="square" stroke-miterlimit="10" d="  M417.75,410.64c5.115,16.51-13.723,19.392-26.25,24c4.171,2.852,6.981,7.811,11.25,10.5c-13.211,8.154-31.737-5.696-27-18  C380.176,415.646,408.366,414.626,417.75,410.64z"/>
<path fill-rule="evenodd" clip-rule="evenodd" fill="#F6F519" stroke="#000000" stroke-linecap="square" stroke-miterlimit="10" d="  M402.75,445.14c24.64,12.641-0.507,30.1-16.5,23.25c-7.369-3.156,5.465-16.589,6.75-18.75C396.25,448.14,399.5,446.64,402.75,445.14  z"/>
<path fill-rule="evenodd" clip-rule="evenodd" fill="#200F75" stroke="#000000" stroke-linecap="square" stroke-miterlimit="10" d="  M411.75,451.14c4.929,1.532,8.621,1.426,12,6C410.207,463.763,414.005,458.24,411.75,451.14z"/>
<path fill-rule="evenodd" clip-rule="evenodd" fill="#200F75" stroke="#000000" stroke-linecap="square" stroke-miterlimit="10" d="  M491.25,423.39c-2.765-0.259-10.353-0.955-12-1.5C483.25,422.39,487.25,422.89,491.25,423.39z"/>
<path fill-rule="evenodd" clip-rule="evenodd" fill="#F6F519" stroke="#000000" stroke-linecap="square" stroke-miterlimit="10" d="  M484.5,422.64C477.284,424.409,475.177,418.989,484.5,422.64L484.5,422.64z"/>
<path fill-rule="evenodd" clip-rule="evenodd" fill="#200F75" stroke="#000000" stroke-linecap="square" stroke-miterlimit="10" d="  M420.75,415.14c19.111,2.205,40.831,3.472,58.5,7.5C461.412,421.04,434.154,422.012,420.75,415.14z"/>
<path fill-rule="evenodd" clip-rule="evenodd" fill="#F6F519" stroke="#000000" stroke-linecap="square" stroke-miterlimit="10" d="  M402,386.64c13.792,3.568,40.828,8.003,33.75,27c-9.838-5.706-11.844-12.414-24.75-12c1.916,1.23,6.809,3.507,9,5.25  C403.773,433.686,353.178,396.719,402,386.64z"/>
<path fill-rule="evenodd" clip-rule="evenodd" fill="#200F75" d="M411.75,400.89C406.828,402.091,406.465,402.18,411.75,400.89  L411.75,400.89z"/>
<path fill="none" stroke="#000000" stroke-linecap="square" stroke-miterlimit="10" d="M411.75,400.89  c-1.781-0.383-3.359,0.137-4.5,1.5"/>
<path fill-rule="evenodd" clip-rule="evenodd" fill="#F8130D" stroke="#000000" stroke-linecap="square" stroke-miterlimit="10" d="  M399.75,380.64c25.92-12.013-18.372-41.709-27-14.25C382.913,368.51,392.358,373.404,399.75,380.64z"/>
<path fill-rule="evenodd" clip-rule="evenodd" fill="#200F75" stroke="#000000" stroke-linecap="square" stroke-miterlimit="10" d="  M434.25,413.64C432.005,428.873,414.158,413.923,434.25,413.64L434.25,413.64z"/>
<path fill-rule="evenodd" clip-rule="evenodd" fill="#9596B5" stroke="#000000" stroke-linecap="square" stroke-miterlimit="10" d="  M393.75,379.14c-5.418-4.063-13.926-5.674-20.25-8.25c-0.5,1.75-1,3.5-1.5,5.25C380.083,381.113,387.865,382.091,393.75,379.14z"/>
<path fill-rule="evenodd" clip-rule="evenodd" fill="#F8130D" stroke="#000000" stroke-linecap="square" stroke-miterlimit="10" d="  M404.25,382.89c-7.97-11.399-22.889-19.181-36-17.25C376.765,372.476,395.21,380.919,404.25,382.89z"/>
<path fill-rule="evenodd" clip-rule="evenodd" fill="#200F75" stroke="#000000" stroke-linecap="square" stroke-miterlimit="10" d="  M384.75,394.89c-20.276-9.16,11.303-6.869,22.5-11.25c12.459-4.875,31.09-32.728,44.25-7.5  C431.758,368.399,406.932,392.253,384.75,394.89z"/>
<path fill-rule="evenodd" clip-rule="evenodd" fill="#200F75" stroke="#000000" stroke-linecap="square" stroke-miterlimit="10" d="  M401.25,384.39c-7.502,6.826-16.759,7.486-25.5,2.25c0.677-0.323,0.927-0.823,0.75-1.5  C385.157,386.518,392.739,384.706,401.25,384.39z"/>
<path fill-rule="evenodd" clip-rule="evenodd" fill="#200F75" stroke="#000000" stroke-linecap="square" stroke-miterlimit="10" d="  M396,452.64c-0.248-0.014,5.714,1.528,8.25,0.75C401.62,450.954,399.803,452.849,396,452.64z"/>
<path fill-rule="evenodd" clip-rule="evenodd" fill="#200F75" stroke="#000000" stroke-linecap="square" stroke-miterlimit="10" d="  M373.5,444.39c1.007,0.362,3.841,3.755,8.25,3C379.907,444.517,377.235,445.733,373.5,444.39z"/>
<path fill-rule="evenodd" clip-rule="evenodd" fill="#200F75" stroke="#000000" stroke-linecap="square" stroke-miterlimit="10" d="  M394.5,455.64c0.273,0.229,1.511,3.709,4.5,4.5C401.577,456.534,397.191,457.906,394.5,455.64z"/>
<path fill-rule="evenodd" clip-rule="evenodd" fill="#200F75" stroke="#000000" stroke-linecap="square" stroke-miterlimit="10" d="  M372,446.64c0.23,0.18,2.152,3.82,5.25,4.5C377.686,447.623,374.816,448.847,372,446.64z"/>
<path fill-rule="evenodd" clip-rule="evenodd" fill="#FFFFFF" stroke="#000000" stroke-linecap="square" stroke-miterlimit="10" d="  M462.75,406.14C475.547,411.791,469.409,416.191,462.75,406.14L462.75,406.14z"/>
<path fill-rule="evenodd" clip-rule="evenodd" fill="#FFFFFF" stroke="#000000" stroke-linecap="square" stroke-miterlimit="10" d="  M504.75,412.14C512.918,418.558,512.733,418.413,504.75,412.14L504.75,412.14z"/>
<path fill-rule="evenodd" clip-rule="evenodd" fill="#FFFFFF" stroke="#000000" stroke-linecap="square" stroke-miterlimit="10" d="  M461.25,433.14c2.531,1.923,5.623-1.982,5.25,3.75C459.928,438.989,463.364,434.747,461.25,433.14z"/>
<path fill-rule="evenodd" clip-rule="evenodd" fill="#200F75" stroke="#000000" stroke-linecap="square" stroke-miterlimit="10" d="  M360.75,453.39c1.75,1.75,3.5,3.5,5.25,5.25c-4,1.25-8,2.5-12,3.75C353.304,456.323,357.37,457.908,360.75,453.39z"/>
<path fill-rule="evenodd" clip-rule="evenodd" fill="#200F75" stroke="#000000" stroke-linecap="square" stroke-miterlimit="10" d="  M381.75,463.14c1.75,1.75,3.5,3.5,5.25,5.25c-4.25,1.25-8.5,2.5-12.75,3.75C374.936,466.563,378.416,467.348,381.75,463.14z"/>
</svg>