<svg xmlns="http://www.w3.org/2000/svg" xmlns:xlink="http://www.w3.org/1999/xlink" version="1.1" id="Layer_1" x="0px" y="0px" enable-background="new 0 0 822.05 841.89" xml:space="preserve" viewBox="200.85 329.26 418.25 186.76">
<path fill-rule="evenodd" clip-rule="evenodd" fill="#D1982C" stroke="#000000" stroke-width="2" stroke-linecap="square" stroke-miterlimit="10" d="  M201.851,393.17c34.02,19.602,68.04,39.204,102.06,58.806c26.465,15.249,44.384,36.815,72.755,24.315  c80.479-35.457,160.958-70.914,241.437-106.371c-34.489-7.959-68.979-15.918-103.469-23.877  c-24.065-5.554-56.61-20.706-81.244-14.183C356.21,352.297,279.03,372.733,201.851,393.17z"/>
<path fill-rule="evenodd" clip-rule="evenodd" fill="#D1982C" stroke="#000000" stroke-width="2" stroke-linecap="square" stroke-miterlimit="10" d="  M398.351,469.67c0.307,15.648,5.804,58.71-24.75,41.25C343.434,493.682,385.869,474.542,398.351,469.67z"/>
<path fill-rule="evenodd" clip-rule="evenodd" fill="#D1982C" d="M378.851,477.92v36V477.92z"/>
<line fill="none" stroke="#000000" stroke-width="2" stroke-linecap="square" stroke-miterlimit="10" x1="378.851" y1="477.92" x2="378.851" y2="513.92"/>
<path fill-rule="evenodd" clip-rule="evenodd" fill="#D1982C" stroke="#000000" stroke-width="2" stroke-linecap="square" stroke-miterlimit="10" d="  M510.103,417.17c4.681-3.357,11.844-4.634,17.25-6.75c0.27,11.331,6.063,29.625-5.625,33.75  C503.7,450.533,506.304,429.608,510.103,417.17z"/>
<path fill-rule="evenodd" clip-rule="evenodd" fill="#D1982C" d="M516.103,417.17l-0.75,29.25L516.103,417.17z"/>
<line fill="none" stroke="#000000" stroke-width="2" stroke-linecap="square" stroke-miterlimit="10" x1="516.103" y1="417.17" x2="515.353" y2="446.42"/>
<path fill-rule="evenodd" clip-rule="evenodd" fill="#D1982C" stroke="#000000" stroke-width="2" stroke-linecap="square" stroke-miterlimit="10" d="  M603.853,377.42c3.998-3.233,9.679-5.094,14.25-7.5C615.169,407.075,590.044,409.436,603.853,377.42z"/>
<path fill-rule="evenodd" clip-rule="evenodd" fill="#D1982C" stroke="#000000" stroke-width="2" stroke-linecap="square" stroke-miterlimit="10" d="  M210.851,399.17c-0.289,13.659,4.178,24.873,17.25,28.5C235.879,412.541,224.764,404.194,210.851,399.17z"/>
<path fill="none" stroke="#000000" stroke-width="2" stroke-linecap="square" stroke-miterlimit="10" d="M225.101,402.92  c44.73-13.064,89.46-26.128,134.189-39.191c32.287-9.43,88.889-40.14,123.062-25.309c-79.75,26-159.501,52-239.252,78  c41.006,27.338,97.174-12.648,141.001-28.875c39.647-14.68,99.69-53.841,142.501-37.875c-77.501,32-155.001,64-232.502,96  c13.873,8.265,27.897,24.2,43.583,17.373c27.691-12.05,55.382-24.101,83.074-36.151c50.531-21.991,101.063-43.981,151.595-65.972"/>
</svg>