<svg xmlns="http://www.w3.org/2000/svg" xmlns:xlink="http://www.w3.org/1999/xlink" version="1.1" id="Layer_1" x="0px" y="0px" enable-background="new 0 0 822.05 841.89" xml:space="preserve" viewBox="216.56 275.04 393.46 295.25">
<path fill-rule="evenodd" clip-rule="evenodd" fill="#7A7C7F" stroke="#000000" stroke-width="2" stroke-linecap="square" stroke-miterlimit="10" d="  M245.268,425.294c-19.475,19.666-51.344,86.29,0.375,64.125c40.287-17.266,22.987,51.468-12.375,36.375  c-0.84,32.155,70.015-7.962,93-6.75c2.028,18.481-36.728,47.119-12,43.5c0.75,2.25,1.5,4.5,2.25,6.75  c15.441-8.33,29.246-15.948,40.5-30c18.378-22.945,11.624-32.502,41.25-40.5c18.444-4.979,39.514-6.87,57.004,1.875  c24.853,12.427-13.912,25.461-14.25,37.125c10.884-4.919,3.107,0.269,11.25,1.5c0.979-0.285,3.619-5.369,4.5-6  c0.589,3.566,1.647,7.001,2.25,10.5c14.704-12.916,21.496-10.589,29.25-28.5c4.724-10.911,4.437-26.219,5.833-37.861  c1.607-13.389-6.388-56.557-1.333-64.139c11.615-17.423,29.023-52.174,50.25-59.25c18.317-6.106,29.52,9.226,21,30c3.5-3,7-6,10.5-9  c-0.949,5.389-0.728,11.257-2.25,16.5c2.5-0.25,5-0.5,7.5-0.75c-2.316,6.585-1.985,14.878-5.25,21  c9.416-12.454,17.268-35.087,34.5-27.75c0-61.746-21.88-98.858-90-97.5c2-3.5,4-7,6-10.5c-32.545,18.036-61.237,46.266-68.25,84  c-34.45-12.838-76.735-9.167-108.754,8.25c-14.047,7.641-25.868,17.618-37.125,28.875  C288.804,419.258,278.741,419.799,245.268,425.294z"/>
<path fill-rule="evenodd" clip-rule="evenodd" fill="#7A7C7F" stroke="#000000" stroke-width="2" stroke-linecap="square" stroke-miterlimit="10" d="  M231.768,441.044c-3.027-4.918-4.092-11.764-6-17.25c4.328-0.137,11,1.324,15,3C237.935,431.28,235.559,437.387,231.768,441.044z"/>
<path fill-rule="evenodd" clip-rule="evenodd" fill="#7E1A17" stroke="#000000" stroke-width="2" stroke-linecap="square" stroke-miterlimit="10" d="  M238.518,473.294c2.488-11.989,12.491-17.497,24.75-15.75C257.032,465.739,248.491,471.369,238.518,473.294z"/>
<path fill-rule="evenodd" clip-rule="evenodd" fill="#EDEDEE" stroke="#000000" stroke-width="2" stroke-linecap="square" stroke-miterlimit="10" d="  M237.018,436.544c12.235-2.182,24.181,1.805,32.25,11.25c1.568-6.412,35.312-3.052,45-3.375c16.478-0.549,31.067-7.799,48-3.375  c9.856,2.575,18.478,11.287,28.5,14.25c-3.056-3.729-5.296-11.166-8.25-15c14.419,1.553,30.859,8.22,45.754,12  c-7.116-17.074,1.622-14.799,15.375-11.625c16.157,3.729,33.361-8.381,48.375-13.125c-23.486-33.026,81.987-109.106,76.5-52.5  c0.126-8.282,3.677-13.87,6-21.75c11.187,10.3,0.922,7.899,14.25,9.75c0.199,8.023,5.194,15.979,5.25,24  c2.569-0.333,13.389-2.563,15-3c-3.93-19.169-32.227-55.025-29.25-66.75c-7.71,2.618-16.927,0.705-24.75,3c0.75-3.5,1.5-7,2.25-10.5  c-30.979,12.263-47.299,21.339-67.125,48.375c-4.975,6.783-10.013,27.264-16.125,31.875c-10.743,8.104-41.852,6.786-55.504,9  c0.25-3.25,0.5-6.5,0.75-9.75c-20.817,17.409-51.114,13.746-76.5,15.75c1.5-3,3-6,4.5-9c-7.459,3.692-16.055,5.585-23.25,9.75  c20.052-18.021,39.831-40.649,65.25-51c-24.127,2.998-47.439,15.282-66,30.75c-8.191,6.826-24.239,29.51-33.367,31.249  C271.766,420.247,246.422,418.373,237.018,436.544z"/>
</svg>