<svg xmlns="http://www.w3.org/2000/svg" xmlns:xlink="http://www.w3.org/1999/xlink" version="1.1" id="Layer_1" x="0px" y="0px" enable-background="new 0 0 822.05 841.89" xml:space="preserve" viewBox="308.13 344.89 205.29 155.32">
<path fill-rule="evenodd" clip-rule="evenodd" fill="#137827" stroke="#000000" stroke-width="1.25" stroke-linecap="square" stroke-miterlimit="10" d="  M308.789,445.39c-2.303,53.978,107.853,73.012,109.502,32.25C419.959,436.431,333.11,419.43,308.789,445.39z"/>
<path fill="none" stroke="#000000" stroke-width="1.25" stroke-linecap="square" stroke-miterlimit="10" d="M308.789,445.39  c30.82,10.273,82.593,20.699,102.002,48.75"/>
<path fill-rule="evenodd" clip-rule="evenodd" d="M390.539,398.89c-0.692-5.757-1.5-11.5-2.25-17.25  c0.244,1.924-0.125,10.092,0,12.75c-2.174-3.971-6.305-7.942-8.25-11.25c0.633,5.451,1.917,12.574,3,15.75  c-0.5-3.75-1-7.5-1.5-11.25C383.569,391.719,388.812,396.18,390.539,398.89z"/>
<path fill-rule="evenodd" clip-rule="evenodd" d="M388.289,380.14c-0.649-5.867-0.889-12.956-3-16.5c0.5,4,1,8,1.5,12  c-2.261-3.922-7.203-8.54-9-11.25c0.547,5.44,1.995,12.62,3,15.75c-0.25-3.75-0.5-7.5-0.75-11.25  C382.228,372.672,386.501,376.926,388.289,380.14z"/>
<path fill-rule="evenodd" clip-rule="evenodd" d="M386.789,362.14c-0.683-5.716-1.552-12.806-3-17.25c0.25,4,0.5,8,0.75,12  c-2.153-3.848-6.403-8.015-8.25-11.25c0.606,5.438,0.408,11.146,1.5,16.5c-0.044-0.495,0.156-9.655,0-12  C379.677,354.855,384.784,359.063,386.789,362.14z"/>
<path fill-rule="evenodd" clip-rule="evenodd" d="M328.289,368.14c3.214,4.22,7.65,10.097,10.5,12c-2.25-3.25-4.5-6.5-6.75-9.75  c3.958,2.203,8.495,3.986,12.75,5.25c-2.898-3.994-5.662-8.373-9-12c-0.509-0.652,4.82,8.318,5.25,9  C337.173,369.937,331.817,368.947,328.289,368.14z"/>
<path fill-rule="evenodd" clip-rule="evenodd" d="M338.789,381.64c3.459,4.697,6.693,10.247,10.5,12c-2.25-3-4.5-6-6.75-9  c3.48,1.834,10.415,3.313,12.75,4.5c-2.739-4.059-5.69-8.397-9-12c-0.282-0.399,4.692,8.083,5.25,9  C347.683,384.471,341.828,382.463,338.789,381.64z"/>
<path fill-rule="evenodd" clip-rule="evenodd" d="M348.539,395.89c3.214,4.22,7.65,10.097,10.5,12c-2.25-3.25-4.5-6.5-6.75-9.75  c3.958,2.203,8.495,3.986,12.75,5.25c-2.898-3.994-5.662-8.373-9-12c-0.509-0.652,4.82,8.318,5.25,9  C357.423,397.687,352.067,396.697,348.539,395.89z"/>
<path fill-rule="evenodd" clip-rule="evenodd" fill="#EED5B6" stroke="#000000" stroke-width="1.5" stroke-linecap="square" stroke-miterlimit="10" d="  M405.539,476.14c-3.039-7.627,0.412-12.465-7.5-17.25c1.03-0.177,1.78,0.323,2.25,1.5c2.19-24.219,17.463-21.597,33.248-13.266  C456.812,459.409,423.938,496.395,405.539,476.14z"/>
<path fill-rule="evenodd" clip-rule="evenodd" fill="#137827" d="M512.791,421.39c-30.338,6.542-57.595-7.401-86.25-2.625  c-22.6,3.767-9.826,30.629-20.627,45.75c-14.702,20.582-32.873,27.197,1.875,33.375C463.056,507.715,482.981,459.33,512.791,421.39z  "/>
<path fill="none" stroke="#000000" stroke-width="1.25" stroke-linecap="square" stroke-miterlimit="10" d="M512.791,421.39  c-34.782,7.5-96.406-22.873-100.125,21.75c-1.116,13.393-29.204,38.395-28.127,45c2.993,18.36,57.362,8.181,70.502,6.75"/>
<path fill-rule="evenodd" clip-rule="evenodd" fill="#EED5B6" stroke="#000000" stroke-width="1.25" stroke-linecap="square" stroke-miterlimit="10" d="  M359.039,456.64c40.046,25.495,74.833-31.884,23.25-47.25C348.199,399.235,326.917,436.959,359.039,456.64z"/>
<line fill="none" stroke="#000000" stroke-linecap="square" stroke-miterlimit="10" x1="388.289" y1="424.39" x2="384.539" y2="430.39"/>
<line fill="none" stroke="#000000" stroke-linecap="square" stroke-miterlimit="10" x1="380.789" y1="437.89" x2="375.539" y2="445.39"/>
<path fill="none" stroke="#000000" stroke-linecap="square" stroke-miterlimit="10" d="M398.789,436.39  c-1.356,4.322-4.292,8.014-8.25,10.5"/>
</svg>