<svg xmlns="http://www.w3.org/2000/svg" xmlns:xlink="http://www.w3.org/1999/xlink" version="1.1" id="Layer_1" x="0px" y="0px" enable-background="new 0 0 822.05 841.89" xml:space="preserve" viewBox="204.42 295.56 409.77 247.85">
<path fill-rule="evenodd" clip-rule="evenodd" fill="#F89A1C" stroke="#000000" stroke-width="2" stroke-linecap="square" stroke-miterlimit="10" d="  M223.424,306.14c11.288,90.791,35.56,153.765,133.833,158.444c46.814,2.229,100.304,15.141,145.167-3.944  c18.571-7.9,31.396-22.091,46.008-35.688c8.487-7.898,30.761-21.651,34.992-32.562c5.117-13.194-5.42-32.701,0-45.75  c4.368-10.518,34.532-22.474,17.625-36c-17.146-13.716-34.765,8.064-48.425,17.821c-29.766,21.261-1.275,74.144-47.2,84.929  c-28.605,6.717-47.63-12.371-54-38.25c-7.73-31.404,9.925-56.521-27.606-61.416c-29.28-3.819-58.491-7.111-87.894-9.834  C306.839,301.197,248.272,287.603,223.424,306.14z"/>
<path fill="none" stroke="#000000" stroke-width="2" stroke-linecap="square" stroke-miterlimit="10" d="M223.424,306.14  c40.726,11.635,81.963,22.684,123.588,30.612c20.689,3.941,41.632,8.388,62.787,8.388c10.378,0,0.877,56.134,5.625,67.5  c10.794,25.841,43.229,35.455,68.25,30.75c39.823-7.489,54.061-32.658,51.75-71.25"/>
<path fill="none" stroke="#000000" stroke-width="2" stroke-linecap="square" stroke-miterlimit="10" d="M537.674,339.14  c-0.712,7.972-0.905,23.914,5.25,30c16.202,16.02,28.323-10.011,40.5-22.5"/>
<path fill-rule="evenodd" clip-rule="evenodd" fill="#9E5224" stroke="#000000" stroke-width="2" stroke-linecap="square" stroke-miterlimit="10" d="  M414.674,370.64c10.5,0.5,21,1,31.5,1.5c-10.75,11-21.5,22-32.25,33C414.174,393.64,414.424,382.14,414.674,370.64z"/>
<path fill-rule="evenodd" clip-rule="evenodd" fill="#CBCCCE" stroke="#000000" stroke-width="2" stroke-linecap="square" stroke-miterlimit="10" d="  M327.674,492.89c78.378,3.766,156.757,7.532,235.135,11.298c42.526,2.043,58.989-33.865,46.115-71.298  c-23.497,18.229-7.685,59.076-49.5,56.25c2.672-0.708,5.562-1.411,8.25-2.25c-38.956,0-40.436,3.737-55.5-32.25  c-16.866,5.142-12.439,19.354-5.25,32.25c-40.75-1.75-81.5-3.5-122.25-5.25c2.225-4.678,0.89-11.011,3-15.75  c-22.265-4.483-8.417,12.887-18,15.75C353.646,486.429,333.732,469.771,327.674,492.89z"/>
<path fill-rule="evenodd" clip-rule="evenodd" fill="#CBCCCE" stroke="#000000" stroke-width="2" stroke-linecap="square" stroke-miterlimit="10" d="  M306.674,459.14c5.504,5.307-1.885,13.36,12,9.75c-10.651,13.661-24.595,44.25-42.829,44.25c-23.16,0-60.44-10.58-70.421,17.25  c93.583,3.908,187.166,7.816,280.749,11.725c41.158,1.72,98.71-2.131,81.501-61.975c-22.861,5.931-8.624,35.78-33,46.5  c-10.599,4.661-43.581,2.328-51.75-3c-30.789-20.08-12.401-41.015,3.75-59.25c-18.5,1.5-37,3-55.5,4.5  c11.25,17.75,22.5,35.5,33.75,53.25c-51.5-2.75-103-5.5-154.5-8.25c10.75-16,21.5-32,32.25-48  C330.674,463.64,318.674,461.39,306.674,459.14z"/>
</svg>