<svg xmlns="http://www.w3.org/2000/svg" xmlns:xlink="http://www.w3.org/1999/xlink" version="1.1" id="Layer_1" x="0px" y="0px" enable-background="new 0 0 822.05 841.89" xml:space="preserve" viewBox="303.24 331.99 214.13 177.88">
<path fill-rule="evenodd" clip-rule="evenodd" fill="#EED5B6" stroke="#000000" stroke-width="1.5" stroke-linecap="square" stroke-miterlimit="10" d="  M426.117,482.246c-8.058-1.802-11.175-6.56-18-9.75c-15.538-7.264-17.917-8.802-39.24-8.328  c-17.886,0.397-44.786,26.14-48.51,43.578c23.025,0,46.05,0,69.074,0C416.258,507.746,419.57,510.667,426.117,482.246z"/>
<path fill-rule="evenodd" clip-rule="evenodd" fill="#134A1C" stroke="#000000" stroke-width="1.25" stroke-linecap="square" stroke-miterlimit="10" d="  M421.617,476.996c-7.372,54.192-97.839-42.01-117.75,31.5c50.75,0,101.5,0,152.25,0  C452.398,491.713,438.568,479.302,421.617,476.996z"/>
<path fill-rule="evenodd" clip-rule="evenodd" fill="#EED5B6" stroke="#000000" stroke-width="1.5" stroke-linecap="square" stroke-miterlimit="10" d="  M327.117,407.994c-3.355,28.945,19.396,63.179,49.5,67.502c43.758,6.284,51.346-45.066,48.75-78.002  C394.423,411.03,360.212,415.288,327.117,407.994z"/>
<path fill-rule="evenodd" clip-rule="evenodd" fill="#7D5E23" stroke="#000000" stroke-width="1.5" stroke-linecap="square" stroke-miterlimit="10" d="  M426.117,393.744c9.794,13.171,0.535,17.969-9.75,25.5c-24.652,18.05-27.017-4.484-33,27.752c-3.276,17.651,5.162,28.167-15,35.25  c-13.918,4.89-37.233-5.867-45.75-16.5C277.712,409.684,374.837,328.717,426.117,393.744z"/>
<path fill-rule="evenodd" clip-rule="evenodd" fill="#EED5B6" d="M422.367,429.746c17.095,11.862,14.38,29.833-8.25,21.75  C416.628,444.876,418.283,435.475,422.367,429.746z"/>
<path fill="none" stroke="#000000" stroke-linecap="square" stroke-miterlimit="10" d="M422.367,429.746  c17.095,11.862,14.38,29.833-8.25,21.75"/>
<path fill-rule="evenodd" clip-rule="evenodd" fill="#0C7823" stroke="#000000" stroke-width="1.25" stroke-linecap="square" stroke-miterlimit="10" d="  M454.617,509.246C427.683,507.528,467.519,465.161,454.617,509.246L454.617,509.246z"/>
<path fill-rule="evenodd" clip-rule="evenodd" fill="#F6EB23" stroke="#000000" stroke-width="1.25" stroke-linecap="square" stroke-miterlimit="10" d="  M453.117,470.246c1.168-13.521,22.36-28.979,26.25-9C482.435,477.003,456.931,475.36,453.117,470.246z"/>
<path fill-rule="evenodd" clip-rule="evenodd" fill="#F6EB23" stroke="#000000" stroke-width="1.25" stroke-linecap="square" stroke-miterlimit="10" d="  M449.367,473.996c-15.952-5.969-21.244-16.853-3.375-24C463.878,442.841,456.206,471.317,449.367,473.996z"/>
<path fill-rule="evenodd" clip-rule="evenodd" fill="#F6EB23" stroke="#000000" stroke-width="1.25" stroke-linecap="square" stroke-miterlimit="10" d="  M453.867,476.996c-7.12,9.658-36.01,18.502-28.5-3C430.265,459.973,453.827,469.461,453.867,476.996z"/>
<path fill-rule="evenodd" clip-rule="evenodd" fill="#F6EB23" stroke="#000000" stroke-width="1.25" stroke-linecap="square" stroke-miterlimit="10" d="  M457.617,473.246c8.658-3.639,34.486-3.463,21.75,12.75C467.865,500.637,454.514,480.251,457.617,473.246z"/>
<path fill-rule="evenodd" clip-rule="evenodd" fill="#F6EB23" stroke="#000000" stroke-width="1.25" stroke-linecap="square" stroke-miterlimit="10" d="  M457.617,475.496c10.88,10.88,8.788,35.12-10.5,24C432.954,491.331,450.451,474.23,457.617,475.496z"/>
<path fill-rule="evenodd" clip-rule="evenodd" fill="#E6981B" stroke="#000000" stroke-width="1.25" stroke-linecap="square" stroke-miterlimit="10" d="  M461.367,473.246C443.894,483.568,443.579,463.417,461.367,473.246L461.367,473.246z"/>
<path fill-rule="evenodd" clip-rule="evenodd" fill="#FFFFFF" stroke="#000000" stroke-linecap="square" stroke-miterlimit="10" d="  M450.117,383.994c1.958,42.935,67.022,43.374,66.75,0C516.598,341.095,452.409,341.604,450.117,383.994z"/>
<path fill-rule="evenodd" clip-rule="evenodd" fill="#FFFFFF" d="M483.867,407.994v6.75V407.994z"/>
<line fill="none" stroke="#000000" stroke-linecap="square" stroke-miterlimit="10" x1="483.867" y1="407.994" x2="483.867" y2="414.744"/>
<path fill-rule="evenodd" clip-rule="evenodd" fill="#FFFFFF" d="M459.867,383.994h-6.75H459.867z"/>
<line fill="none" stroke="#000000" stroke-linecap="square" stroke-miterlimit="10" x1="459.867" y1="383.994" x2="453.117" y2="383.994"/>
<path fill-rule="evenodd" clip-rule="evenodd" fill="#FFFFFF" d="M513.867,383.994h-6.75H513.867z"/>
<line fill="none" stroke="#000000" stroke-linecap="square" stroke-miterlimit="10" x1="513.867" y1="383.994" x2="507.117" y2="383.994"/>
<path fill-rule="evenodd" clip-rule="evenodd" fill="#FFFFFF" d="M466.617,401.244l-4.5,4.5L466.617,401.244z"/>
<line fill="none" stroke="#000000" stroke-linecap="square" stroke-miterlimit="10" x1="466.617" y1="401.244" x2="462.117" y2="405.744"/>
<path fill-rule="evenodd" clip-rule="evenodd" fill="#FFFFFF" d="M504.867,362.994l-4.5,4.5L504.867,362.994z"/>
<line fill="none" stroke="#000000" stroke-linecap="square" stroke-miterlimit="10" x1="504.867" y1="362.994" x2="500.367" y2="367.494"/>
<path fill-rule="evenodd" clip-rule="evenodd" fill="#FFFFFF" d="M504.867,405.744l-4.5-4.5L504.867,405.744z"/>
<line fill="none" stroke="#000000" stroke-linecap="square" stroke-miterlimit="10" x1="504.867" y1="405.744" x2="500.367" y2="401.244"/>
<path fill-rule="evenodd" clip-rule="evenodd" stroke="#000000" stroke-linecap="square" stroke-miterlimit="10" d="  M480.117,356.994C487.95,357.247,488.259,357.256,480.117,356.994L480.117,356.994z"/>
<path fill-rule="evenodd" clip-rule="evenodd" stroke="#000000" stroke-linecap="square" stroke-miterlimit="10" d="  M483.867,364.494c2.508,6.108,2.059,14.413,3,21c-2-0.25-4-0.5-6-0.75C481.867,377.995,482.775,371.228,483.867,364.494z"/>
<path fill-rule="evenodd" clip-rule="evenodd" stroke="#000000" stroke-linecap="square" stroke-miterlimit="10" d="  M480.117,383.994C487.747,384.427,487.692,384.424,480.117,383.994L480.117,383.994z"/>
<path fill-rule="evenodd" clip-rule="evenodd" fill="#D12327" stroke="#000000" stroke-width="0.5" stroke-linecap="square" stroke-miterlimit="10" d="  M462.117,365.244C470.259,364.981,469.95,364.991,462.117,365.244L462.117,365.244z"/>
<path fill-rule="evenodd" clip-rule="evenodd" fill="#D12327" stroke="#000000" stroke-width="0.5" stroke-linecap="square" stroke-miterlimit="10" d="  M462.117,341.244c3.5-3,7-6,10.5-9c1.25,1.5,2.5,3,3.75,4.5c-2.196,3.197-9.008,12.012-9,12c-4.369,1.989-10.242,3.005-15,3.75  C454.593,341.935,460.062,342.313,462.117,341.244z"/>
</svg>