<svg xmlns="http://www.w3.org/2000/svg" xmlns:xlink="http://www.w3.org/1999/xlink" version="1.1" id="Layer_1" x="0px" y="0px" enable-background="new 0 0 822.05 841.89" xml:space="preserve" viewBox="306 334.2 210.73 176.87">
<path fill-rule="evenodd" clip-rule="evenodd" fill="#878787" stroke="#000000" stroke-linecap="square" stroke-miterlimit="10" d="  M451.25,506.449c-31.598-16.521-72.365-14.071-102.375-38.625c-20.509-16.78-8.597-31.254-19.125-49.123  c1.36,9.314,0.205,18.681-3.75,26.998c-4.666-6.817-10.559-16.268-16.5-22.5c9.158,11.72,10.336,17.936,0.75,25.125  c-10.54,7.904,7.406,19.403,12.75,27.375c17.844,26.619,10.92,31.188,42.75,33C392.953,510.248,424.645,512.877,451.25,506.449z"/>
<path fill-rule="evenodd" clip-rule="evenodd" fill="#724211" stroke="#000000" stroke-linecap="square" stroke-miterlimit="10" d="  M381.5,492.199c-60.592-23.444,6.804-88.091,48.75-61.875C496.417,471.678,406.983,543.577,381.5,492.199z"/>
<path fill="none" stroke="#000000" stroke-linecap="square" stroke-miterlimit="10" d="M382.25,494.449  c-21.726-33.865,32.012-70.092,53.25-36c26.912,43.198-55.768,54.187-41.25,13.5c5.388-15.102,28.269-19.281,34.5-3  c7.501,19.599-21.633,32.546-27,12c-2.505-9.591,9.359-11.07,15-11.25c11.161-0.355,2.764,18.018,0.75,15.75  c-8.648-9.737-3.965-9.719-3.748-4.5"/>
<path fill="none" stroke="#000000" stroke-linecap="square" stroke-miterlimit="10" d="M323.75,454.699  c-2.396,4.073-6.459,6.215-11.25,6"/>
<path fill-rule="evenodd" clip-rule="evenodd" fill="#878787" stroke="#000000" stroke-linecap="square" stroke-miterlimit="10" d="  M306.5,424.699c3.314-0.342,7.234,6.991,5.25-3.748C306.256,419.654,309.061,424.435,306.5,424.699z"/>
<path fill-rule="evenodd" clip-rule="evenodd" fill="#878787" stroke="#000000" stroke-linecap="square" stroke-miterlimit="10" d="  M327.5,420.201C334.14,420.199,334.141,420.199,327.5,420.201L327.5,420.201z"/>
<path fill="none" stroke="#000000" stroke-linecap="square" stroke-miterlimit="10" d="M329.75,420.951  C328.75,420.951,328.75,420.951,329.75,420.951L329.75,420.951z"/>
<path fill="none" stroke="#000000" stroke-linecap="square" stroke-miterlimit="10" d="M329.75,420.951  C329.146,421.554,329.146,421.554,329.75,420.951L329.75,420.951z"/>
<path fill="none" stroke="#000000" stroke-linecap="square" stroke-miterlimit="10" d="M329.75,420.951  C329.146,421.554,329.146,421.554,329.75,420.951L329.75,420.951z"/>
<path fill="none" stroke="#000000" stroke-linecap="square" stroke-miterlimit="10" d="M329.75,420.951  C328.233,421.416,327.962,421.5,329.75,420.951L329.75,420.951z"/>
<path fill="none" stroke="#000000" stroke-linecap="square" stroke-miterlimit="10" d="M329.75,420.951  C328.233,421.416,327.962,421.5,329.75,420.951L329.75,420.951z"/>
<path fill="none" stroke="#000000" stroke-linecap="square" stroke-miterlimit="10" d="M329,420.951  C329.604,421.554,329.604,421.554,329,420.951L329,420.951z"/>
<path fill="none" stroke="#000000" stroke-linecap="square" stroke-miterlimit="10" d="M329.75,420.951  C328.477,420.951,328.477,420.951,329.75,420.951L329.75,420.951z"/>
<path fill="none" stroke="#000000" stroke-linecap="square" stroke-miterlimit="10" d="M329.75,420.951  C328.103,420.951,328.103,420.951,329.75,420.951L329.75,420.951z"/>
<path fill="none" stroke="#000000" stroke-linecap="square" stroke-miterlimit="10" d="M330.5,420.951  C328.528,420.951,328.528,420.951,330.5,420.951L330.5,420.951z"/>
<path fill="none" stroke="#000000" stroke-linecap="square" stroke-miterlimit="10" d="M329.75,420.951  C329.213,420.951,329.213,420.951,329.75,420.951L329.75,420.951z"/>
<path fill="none" stroke="#000000" stroke-linecap="square" stroke-miterlimit="10" d="M329.75,420.951  C329.213,420.951,329.213,420.951,329.75,420.951L329.75,420.951z"/>
<path fill="none" stroke="#000000" stroke-linecap="square" stroke-miterlimit="10" d="M329.75,420.951  C329.146,421.554,329.146,421.554,329.75,420.951L329.75,420.951z"/>
<path fill="none" stroke="#000000" stroke-linecap="square" stroke-miterlimit="10" d="M329.75,420.951  C329.146,421.554,329.146,421.554,329.75,420.951L329.75,420.951z"/>
<path fill="none" stroke="#000000" stroke-linecap="square" stroke-miterlimit="10" d="M329.75,420.951  C328.75,420.951,328.75,420.951,329.75,420.951L329.75,420.951z"/>
<path fill="none" stroke="#000000" stroke-linecap="square" stroke-miterlimit="10" d="M329.75,420.951  C328.576,421.13,328.182,421.19,329.75,420.951L329.75,420.951z"/>
<path fill="none" stroke="#000000" stroke-linecap="square" stroke-miterlimit="10" d="M329.75,420.951  C327.95,420.888,328.527,420.908,329.75,420.951L329.75,420.951z"/>
<path fill="none" stroke="#000000" stroke-linecap="square" stroke-miterlimit="10" d="M329,420.951  C330,420.951,330,420.951,329,420.951L329,420.951z"/>
<path fill="none" stroke="#000000" stroke-linecap="square" stroke-miterlimit="10" d="M330.5,420.951  C328.528,420.951,328.528,420.951,330.5,420.951L330.5,420.951z"/>
<path fill="none" stroke="#000000" stroke-linecap="square" stroke-miterlimit="10" d="M330.5,420.951  C328.528,420.951,328.528,420.951,330.5,420.951L330.5,420.951z"/>
<path fill="none" stroke="#000000" stroke-linecap="square" stroke-miterlimit="10" d="M330.5,420.951  C328.853,420.951,328.853,420.951,330.5,420.951L330.5,420.951z"/>
<path fill="none" stroke="#000000" stroke-linecap="square" stroke-miterlimit="10" d="M329.75,420.951  C329.213,420.951,329.213,420.951,329.75,420.951L329.75,420.951z"/>
<path fill="none" stroke="#000000" stroke-linecap="square" stroke-miterlimit="10" d="M329.75,420.951  C329.213,420.951,329.213,420.951,329.75,420.951L329.75,420.951z"/>
<path fill="none" stroke="#000000" stroke-linecap="square" stroke-miterlimit="10" d="M329.75,420.951  C329.146,421.554,329.146,421.554,329.75,420.951L329.75,420.951z"/>
<path fill="none" stroke="#000000" stroke-linecap="square" stroke-miterlimit="10" d="M329.75,420.951  C329.146,421.554,329.146,421.554,329.75,420.951L329.75,420.951z"/>
<path fill="none" stroke="#000000" stroke-linecap="square" stroke-miterlimit="10" d="M329.75,420.951L329.75,420.951z"/>
<path fill="none" stroke="#000000" stroke-linecap="square" stroke-miterlimit="10" d="M330.5,420.951  C328.8,420.951,328.8,420.951,330.5,420.951L330.5,420.951z"/>
<path fill="none" stroke="#000000" stroke-linecap="square" stroke-miterlimit="10" d="M330.5,420.951  C328.972,421.014,328.773,421.022,330.5,420.951L330.5,420.951z"/>
<path fill="none" stroke="#000000" stroke-linecap="square" stroke-miterlimit="10" d="M329,420.951  C330,420.951,330,420.951,329,420.951L329,420.951z"/>
<path fill="none" stroke="#000000" stroke-linecap="square" stroke-miterlimit="10" d="M330.5,420.951  C328.853,420.951,328.853,420.951,330.5,420.951L330.5,420.951z"/>
<path fill="none" stroke="#000000" stroke-linecap="square" stroke-miterlimit="10" d="M330.5,420.951  C328.853,420.951,328.853,420.951,330.5,420.951L330.5,420.951z"/>
<path fill="none" stroke="#000000" stroke-linecap="square" stroke-miterlimit="10" d="M330.5,420.951  C328.853,420.951,328.853,420.951,330.5,420.951L330.5,420.951z"/>
<path fill="none" stroke="#000000" stroke-linecap="square" stroke-miterlimit="10" d="M329.75,420.951  C329.213,420.951,329.213,420.951,329.75,420.951L329.75,420.951z"/>
<path fill="none" stroke="#000000" stroke-linecap="square" stroke-miterlimit="10" d="M329.75,420.951  C329.146,421.554,329.146,421.554,329.75,420.951L329.75,420.951z"/>
<path fill="none" stroke="#000000" stroke-linecap="square" stroke-miterlimit="10" d="M329.75,420.951  C329.146,421.554,329.146,421.554,329.75,420.951L329.75,420.951z"/>
<path fill="none" stroke="#000000" stroke-linecap="square" stroke-miterlimit="10" d="M329.75,420.951L329.75,420.951z"/>
<path fill="none" stroke="#000000" stroke-linecap="square" stroke-miterlimit="10" d="M329.75,420.951L329.75,420.951z"/>
<path fill="none" stroke="#000000" stroke-linecap="square" stroke-miterlimit="10" d="M330.5,420.951  C328.853,420.951,328.853,420.951,330.5,420.951L330.5,420.951z"/>
<path fill="none" stroke="#000000" stroke-linecap="square" stroke-miterlimit="10" d="M329.75,420.951  C329.213,420.951,329.213,420.951,329.75,420.951L329.75,420.951z"/>
<path fill="none" stroke="#000000" stroke-linecap="square" stroke-miterlimit="10" d="M329.75,420.951L329.75,420.951z"/>
<path fill="none" stroke="#000000" stroke-linecap="square" stroke-miterlimit="10" d="M329.75,420.951  C329.146,421.554,329.146,421.554,329.75,420.951L329.75,420.951z"/>
<path fill="none" stroke="#000000" stroke-linecap="square" stroke-miterlimit="10" d="M329.75,420.951  C329.146,421.554,329.146,421.554,329.75,420.951L329.75,420.951z"/>
<path fill="none" stroke="#000000" stroke-linecap="square" stroke-miterlimit="10" d="M329.75,420.951  C328.75,420.951,328.75,420.951,329.75,420.951L329.75,420.951z"/>
<path fill="none" stroke="#000000" stroke-linecap="square" stroke-miterlimit="10" d="M329.75,420.951L329.75,420.951z"/>
<path fill="none" stroke="#000000" stroke-linecap="square" stroke-miterlimit="10" d="M329.75,420.951L329.75,420.951z"/>
<path fill="none" stroke="#000000" stroke-linecap="square" stroke-miterlimit="10" d="M329.75,420.951L329.75,420.951z"/>
<path fill="none" stroke="#000000" stroke-linecap="square" stroke-miterlimit="10" d="M329.75,420.951  C328.106,421.837,329.108,421.297,329.75,420.951L329.75,420.951z"/>
<path fill="none" stroke="#000000" stroke-linecap="square" stroke-miterlimit="10" d="M329.75,420.951  C328.75,420.951,328.75,420.951,329.75,420.951L329.75,420.951z"/>
<path fill="none" stroke="#000000" stroke-linecap="square" stroke-miterlimit="10" d="M329.75,420.951  C328.63,420.951,328.63,420.951,329.75,420.951L329.75,420.951z"/>
<path fill="none" stroke="#000000" stroke-linecap="square" stroke-miterlimit="10" d="M329.75,420.951  C328.63,420.951,328.63,420.951,329.75,420.951L329.75,420.951z"/>
<path fill="none" stroke="#000000" stroke-linecap="square" stroke-miterlimit="10" d="M329,420.951  C330,420.951,330,420.951,329,420.951L329,420.951z"/>
<path fill="none" stroke="#000000" stroke-linecap="square" stroke-miterlimit="10" d="M329.75,420.951  C328.106,421.837,329.108,421.297,329.75,420.951L329.75,420.951z"/>
<path fill="none" stroke="#000000" stroke-linecap="square" stroke-miterlimit="10" d="M329.75,420.951  C328.106,421.837,329.108,421.297,329.75,420.951L329.75,420.951z"/>
<path fill="none" stroke="#000000" stroke-linecap="square" stroke-miterlimit="10" d="M329.75,420.951  C328.106,421.837,329.108,421.297,329.75,420.951L329.75,420.951z"/>
<path fill="none" stroke="#000000" stroke-linecap="square" stroke-miterlimit="10" d="M329.75,420.951  C328.106,421.837,329.108,421.297,329.75,420.951L329.75,420.951z"/>
<path fill="none" stroke="#000000" stroke-linecap="square" stroke-miterlimit="10" d="M329.75,420.951  C328.106,421.837,329.108,421.297,329.75,420.951L329.75,420.951z"/>
<path fill="none" stroke="#000000" stroke-linecap="square" stroke-miterlimit="10" d="M329.75,420.951  C328.106,421.837,329.108,421.297,329.75,420.951L329.75,420.951z"/>
<path fill="none" stroke="#000000" stroke-linecap="square" stroke-miterlimit="10" d="M329.75,420.951  C328.75,420.951,328.75,420.951,329.75,420.951L329.75,420.951z"/>
<path fill="none" stroke="#000000" stroke-linecap="square" stroke-miterlimit="10" d="M329.75,420.951  C328.75,420.951,328.75,420.951,329.75,420.951L329.75,420.951z"/>
<path fill="none" stroke="#000000" stroke-linecap="square" stroke-miterlimit="10" d="M329.75,420.951  C329.213,420.951,329.213,420.951,329.75,420.951L329.75,420.951z"/>
<path fill="none" stroke="#000000" stroke-linecap="square" stroke-miterlimit="10" d="M329.75,420.951  C328.63,420.951,328.63,420.951,329.75,420.951L329.75,420.951z"/>
<path fill="none" stroke="#000000" stroke-linecap="square" stroke-miterlimit="10" d="M329,420.951  C330,420.951,330,420.951,329,420.951L329,420.951z"/>
<path fill="none" stroke="#000000" stroke-linecap="square" stroke-miterlimit="10" d="M329.75,420.951  C329.146,421.554,329.146,421.554,329.75,420.951L329.75,420.951z"/>
<path fill="none" stroke="#000000" stroke-linecap="square" stroke-miterlimit="10" d="M329.75,420.951  C329.146,421.554,329.146,421.554,329.75,420.951L329.75,420.951z"/>
<path fill="none" stroke="#000000" stroke-linecap="square" stroke-miterlimit="10" d="M329.75,420.951  C329.146,421.554,329.146,421.554,329.75,420.951L329.75,420.951z"/>
<path fill="none" stroke="#000000" stroke-linecap="square" stroke-miterlimit="10" d="M329.75,420.951  C328.75,420.951,328.75,420.951,329.75,420.951L329.75,420.951z"/>
<path fill="none" stroke="#000000" stroke-linecap="square" stroke-miterlimit="10" d="M329.75,420.951  C328.75,420.951,328.75,420.951,329.75,420.951L329.75,420.951z"/>
<path fill="none" stroke="#000000" stroke-linecap="square" stroke-miterlimit="10" d="M329.75,420.951  C328.75,420.951,328.75,420.951,329.75,420.951L329.75,420.951z"/>
<path fill="none" stroke="#000000" stroke-linecap="square" stroke-miterlimit="10" d="M329.75,420.951  C328.75,420.951,328.75,420.951,329.75,420.951L329.75,420.951z"/>
<path fill="none" stroke="#000000" stroke-linecap="square" stroke-miterlimit="10" d="M329.75,420.951  C328.75,420.951,328.75,420.951,329.75,420.951L329.75,420.951z"/>
<path fill="none" stroke="#000000" stroke-linecap="square" stroke-miterlimit="10" d="M329.75,420.951  C329.146,421.554,329.146,421.554,329.75,420.951L329.75,420.951z"/>
<path fill="none" stroke="#000000" stroke-linecap="square" stroke-miterlimit="10" d="M329.75,420.951  C329.146,421.554,329.146,421.554,329.75,420.951L329.75,420.951z"/>
<path fill="none" stroke="#000000" stroke-linecap="square" stroke-miterlimit="10" d="M329,420.951  C330,420.951,330,420.951,329,420.951L329,420.951z"/>
<path fill="none" stroke="#000000" stroke-linecap="square" stroke-miterlimit="10" d="M329.75,420.951  C329.146,421.554,329.146,421.554,329.75,420.951L329.75,420.951z"/>
<path fill="none" stroke="#000000" stroke-linecap="square" stroke-miterlimit="10" d="M329.75,420.951  C329.146,421.554,329.146,421.554,329.75,420.951L329.75,420.951z"/>
<path fill="none" stroke="#000000" stroke-linecap="square" stroke-miterlimit="10" d="M329.75,420.951  C329.146,421.554,329.146,421.554,329.75,420.951L329.75,420.951z"/>
<path fill="none" stroke="#000000" stroke-linecap="square" stroke-miterlimit="10" d="M329.75,420.951  C328.75,420.951,328.75,420.951,329.75,420.951L329.75,420.951z"/>
<path fill="none" stroke="#000000" stroke-linecap="square" stroke-miterlimit="10" d="M329.75,420.951  C328.75,420.951,328.75,420.951,329.75,420.951L329.75,420.951z"/>
<path fill="none" stroke="#000000" stroke-linecap="square" stroke-miterlimit="10" d="M329.75,420.951  C328.75,420.951,328.75,420.951,329.75,420.951L329.75,420.951z"/>
<path fill="none" stroke="#000000" stroke-linecap="square" stroke-miterlimit="10" d="M329.75,420.951L329.75,420.951z"/>
<path fill="none" stroke="#000000" stroke-linecap="square" stroke-miterlimit="10" d="M329.75,420.951L329.75,420.951z"/>
<path fill="none" stroke="#000000" stroke-linecap="square" stroke-miterlimit="10" d="M329.75,420.951  C329.146,421.554,329.146,421.554,329.75,420.951L329.75,420.951z"/>
<path fill="none" stroke="#000000" stroke-linecap="square" stroke-miterlimit="10" d="M329.75,420.951  C328.75,420.951,328.75,420.951,329.75,420.951L329.75,420.951z"/>
<path fill="none" stroke="#000000" stroke-linecap="square" stroke-miterlimit="10" d="M329.75,420.951L329.75,420.951z"/>
<path fill="none" stroke="#000000" stroke-linecap="square" stroke-miterlimit="10" d="M329.75,420.951  C328.75,420.951,328.75,420.951,329.75,420.951L329.75,420.951z"/>
<path fill="none" stroke="#000000" stroke-linecap="square" stroke-miterlimit="10" d="M329.75,420.951  C328.75,420.951,328.75,420.951,329.75,420.951L329.75,420.951z"/>
<path fill="none" stroke="#000000" stroke-linecap="square" stroke-miterlimit="10" d="M329.75,420.951  C328.75,420.951,328.75,420.951,329.75,420.951L329.75,420.951z"/>
<path fill="none" stroke="#000000" stroke-linecap="square" stroke-miterlimit="10" d="M329.75,420.951  C328.75,420.951,328.75,420.951,329.75,420.951L329.75,420.951z"/>
<path fill="none" stroke="#000000" stroke-linecap="square" stroke-miterlimit="10" d="M329.75,420.951  C328.75,420.951,328.75,420.951,329.75,420.951L329.75,420.951z"/>
<path fill="none" stroke="#000000" stroke-linecap="square" stroke-miterlimit="10" d="M329.75,420.951L329.75,420.951z"/>
<path fill="none" stroke="#000000" stroke-linecap="square" stroke-miterlimit="10" d="M309.5,424.699  C308.5,424.699,308.5,424.699,309.5,424.699L309.5,424.699z"/>
<path fill="none" stroke="#000000" stroke-linecap="square" stroke-miterlimit="10" d="M309.5,425.449  C307.856,426.335,308.858,425.794,309.5,425.449L309.5,425.449z"/>
<path fill="none" stroke="#000000" stroke-linecap="square" stroke-miterlimit="10" d="M309.5,425.449  C308.896,426.052,308.896,426.052,309.5,425.449L309.5,425.449z"/>
<path fill="none" stroke="#000000" stroke-linecap="square" stroke-miterlimit="10" d="M309.5,426.199  C308.142,425.542,307.503,425.233,309.5,426.199L309.5,426.199z"/>
<path fill="none" stroke="#000000" stroke-linecap="square" stroke-miterlimit="10" d="M309.5,424.699  C307.088,425.006,308.296,424.853,309.5,424.699L309.5,424.699z"/>
<path fill="none" stroke="#000000" stroke-linecap="square" stroke-miterlimit="10" d="M308.75,425.449  C309.354,426.052,309.354,426.052,308.75,425.449L308.75,425.449z"/>
<path fill="none" stroke="#000000" stroke-linecap="square" stroke-miterlimit="10" d="M309.5,425.449  C307.528,425.449,307.528,425.449,309.5,425.449L309.5,425.449z"/>
<path fill="none" stroke="#000000" stroke-linecap="square" stroke-miterlimit="10" d="M309.5,425.449  C307.853,425.449,307.853,425.449,309.5,425.449L309.5,425.449z"/>
<path fill="none" stroke="#000000" stroke-linecap="square" stroke-miterlimit="10" d="M309.5,425.449  C307.853,425.449,307.853,425.449,309.5,425.449L309.5,425.449z"/>
<path fill="none" stroke="#000000" stroke-linecap="square" stroke-miterlimit="10" d="M309.5,425.449  C308.38,425.449,308.38,425.449,309.5,425.449L309.5,425.449z"/>
<path fill="none" stroke="#000000" stroke-linecap="square" stroke-miterlimit="10" d="M309.5,425.449  C307.856,426.335,308.858,425.794,309.5,425.449L309.5,425.449z"/>
<path fill="none" stroke="#000000" stroke-linecap="square" stroke-miterlimit="10" d="M309.5,425.449  C307.856,426.335,308.858,425.794,309.5,425.449L309.5,425.449z"/>
<path fill="none" stroke="#000000" stroke-linecap="square" stroke-miterlimit="10" d="M309.5,425.449  C308.896,426.052,308.896,426.052,309.5,425.449L309.5,425.449z"/>
<path fill="none" stroke="#000000" stroke-linecap="square" stroke-miterlimit="10" d="M309.5,425.449  C308.896,426.052,308.896,426.052,309.5,425.449L309.5,425.449z"/>
<path fill="none" stroke="#000000" stroke-linecap="square" stroke-miterlimit="10" d="M309.5,425.449  C307.8,425.449,307.8,425.449,309.5,425.449L309.5,425.449z"/>
<path fill="none" stroke="#000000" stroke-linecap="square" stroke-miterlimit="10" d="M309.5,425.449  C307.528,425.449,307.528,425.449,309.5,425.449L309.5,425.449z"/>
<path fill="none" stroke="#000000" stroke-linecap="square" stroke-miterlimit="10" d="M308.75,425.449  C309.354,426.052,309.354,426.052,308.75,425.449L308.75,425.449z"/>
<path fill="none" stroke="#000000" stroke-linecap="square" stroke-miterlimit="10" d="M309.5,425.449  C307.853,425.449,307.853,425.449,309.5,425.449L309.5,425.449z"/>
<path fill="none" stroke="#000000" stroke-linecap="square" stroke-miterlimit="10" d="M309.5,425.449  C307.853,425.449,307.853,425.449,309.5,425.449L309.5,425.449z"/>
<path fill="none" stroke="#000000" stroke-linecap="square" stroke-miterlimit="10" d="M309.5,425.449  C308.963,425.449,308.963,425.449,309.5,425.449L309.5,425.449z"/>
<path fill="none" stroke="#000000" stroke-linecap="square" stroke-miterlimit="10" d="M309.5,425.449  C308.896,426.052,308.896,426.052,309.5,425.449L309.5,425.449z"/>
<path fill="none" stroke="#000000" stroke-linecap="square" stroke-miterlimit="10" d="M309.5,425.449  C308.896,426.052,308.896,426.052,309.5,425.449L309.5,425.449z"/>
<path fill="none" stroke="#000000" stroke-linecap="square" stroke-miterlimit="10" d="M309.5,425.449  C308.896,426.052,308.896,426.052,309.5,425.449L309.5,425.449z"/>
<path fill="none" stroke="#000000" stroke-linecap="square" stroke-miterlimit="10" d="M309.5,425.449  C308.896,426.052,308.896,426.052,309.5,425.449L309.5,425.449z"/>
<path fill="none" stroke="#000000" stroke-linecap="square" stroke-miterlimit="10" d="M309.5,425.449  C308.896,426.052,308.896,426.052,309.5,425.449L309.5,425.449z"/>
<path fill="none" stroke="#000000" stroke-linecap="square" stroke-miterlimit="10" d="M309.5,425.449  C307.853,425.449,307.853,425.449,309.5,425.449L309.5,425.449z"/>
<path fill="none" stroke="#000000" stroke-linecap="square" stroke-miterlimit="10" d="M309.5,425.449  C307.853,425.449,307.853,425.449,309.5,425.449L309.5,425.449z"/>
<path fill="none" stroke="#000000" stroke-linecap="square" stroke-miterlimit="10" d="M308.75,425.449  C309.392,425.794,310.394,426.335,308.75,425.449L308.75,425.449z"/>
<path fill="none" stroke="#000000" stroke-linecap="square" stroke-miterlimit="10" d="M310.25,425.449  C308.603,425.449,308.603,425.449,310.25,425.449L310.25,425.449z"/>
<path fill="none" stroke="#000000" stroke-linecap="square" stroke-miterlimit="10" d="M309.5,425.449  C308.963,425.449,308.963,425.449,309.5,425.449L309.5,425.449z"/>
<path fill="none" stroke="#000000" stroke-linecap="square" stroke-miterlimit="10" d="M309.5,425.449  C308.963,425.449,308.963,425.449,309.5,425.449L309.5,425.449z"/>
<path fill="none" stroke="#000000" stroke-linecap="square" stroke-miterlimit="10" d="M309.5,425.449  C308.896,426.052,308.896,426.052,309.5,425.449L309.5,425.449z"/>
<path fill="none" stroke="#000000" stroke-linecap="square" stroke-miterlimit="10" d="M309.5,425.449  C308.896,426.052,308.896,426.052,309.5,425.449L309.5,425.449z"/>
<path fill="none" stroke="#000000" stroke-linecap="square" stroke-miterlimit="10" d="M309.5,425.449  C308.896,426.052,308.896,426.052,309.5,425.449L309.5,425.449z"/>
<path fill="none" stroke="#000000" stroke-linecap="square" stroke-miterlimit="10" d="M309.5,425.449  C309.5,426.449,309.5,426.449,309.5,425.449L309.5,425.449z"/>
<path fill="none" stroke="#000000" stroke-linecap="square" stroke-miterlimit="10" d="M309.5,425.449  C309.5,426.449,309.5,426.449,309.5,425.449L309.5,425.449z"/>
<path fill="none" stroke="#000000" stroke-linecap="square" stroke-miterlimit="10" d="M309.5,425.449  C308.896,426.052,308.896,426.052,309.5,425.449L309.5,425.449z"/>
<path fill="none" stroke="#000000" stroke-linecap="square" stroke-miterlimit="10" d="M309.5,425.449  C308.896,426.052,308.896,426.052,309.5,425.449L309.5,425.449z"/>
<path fill="none" stroke="#000000" stroke-linecap="square" stroke-miterlimit="10" d="M309.5,425.449  C309.5,426.449,309.5,426.449,309.5,425.449L309.5,425.449z"/>
<path fill="none" stroke="#000000" stroke-linecap="square" stroke-miterlimit="10" d="M309.5,425.449  C308.896,426.052,308.896,426.052,309.5,425.449L309.5,425.449z"/>
<path fill="none" stroke="#000000" stroke-linecap="square" stroke-miterlimit="10" d="M309.5,425.449  C308.896,426.052,308.896,426.052,309.5,425.449L309.5,425.449z"/>
<path fill="none" stroke="#000000" stroke-linecap="square" stroke-miterlimit="10" d="M309.5,425.449  C308.896,426.052,308.896,426.052,309.5,425.449L309.5,425.449z"/>
<path fill="none" stroke="#000000" stroke-linecap="square" stroke-miterlimit="10" d="M309.5,425.449  C308.896,426.052,308.896,426.052,309.5,425.449L309.5,425.449z"/>
<path fill="none" stroke="#000000" stroke-linecap="square" stroke-miterlimit="10" d="M309.5,425.449  C308.896,426.052,308.896,426.052,309.5,425.449L309.5,425.449z"/>
<path fill="none" stroke="#000000" stroke-linecap="square" stroke-miterlimit="10" d="M309.5,425.449  C309.5,426.449,309.5,426.449,309.5,425.449L309.5,425.449z"/>
<path fill="none" stroke="#000000" stroke-linecap="square" stroke-miterlimit="10" d="M309.5,425.449  C308.858,425.103,307.856,424.562,309.5,425.449L309.5,425.449z"/>
<path fill="none" stroke="#000000" stroke-linecap="square" stroke-miterlimit="10" d="M309.5,424.699  C307.856,425.585,308.858,425.044,309.5,424.699L309.5,424.699z"/>
<path fill="none" stroke="#000000" stroke-linecap="square" stroke-miterlimit="10" d="M309.5,424.699  C307.853,424.699,307.853,424.699,309.5,424.699L309.5,424.699z"/>
<path fill="none" stroke="#000000" stroke-linecap="square" stroke-miterlimit="10" d="M309.5,424.699  C307.856,425.585,308.858,425.044,309.5,424.699L309.5,424.699z"/>
<path fill="none" stroke="#000000" stroke-linecap="square" stroke-miterlimit="10" d="M308.75,425.449  C308.75,424.449,308.75,424.449,308.75,425.449L308.75,425.449z"/>
<path fill="none" stroke="#000000" stroke-linecap="square" stroke-miterlimit="10" d="M309.5,424.699  C307.856,425.585,308.858,425.044,309.5,424.699L309.5,424.699z"/>
<path fill="none" stroke="#000000" stroke-linecap="square" stroke-miterlimit="10" d="M309.5,424.699  C307.856,425.585,308.858,425.044,309.5,424.699L309.5,424.699z"/>
<path fill="none" stroke="#000000" stroke-linecap="square" stroke-miterlimit="10" d="M309.5,424.699  C307.856,425.585,308.858,425.044,309.5,424.699L309.5,424.699z"/>
<path fill="none" stroke="#000000" stroke-linecap="square" stroke-miterlimit="10" d="M309.5,424.699  C307.856,425.585,308.858,425.044,309.5,424.699L309.5,424.699z"/>
<path fill="none" stroke="#000000" stroke-linecap="square" stroke-miterlimit="10" d="M309.5,424.699  C307.856,425.585,308.858,425.044,309.5,424.699L309.5,424.699z"/>
<path fill="none" stroke="#000000" stroke-linecap="square" stroke-miterlimit="10" d="M309.5,424.699  C307.856,425.585,308.858,425.044,309.5,424.699L309.5,424.699z"/>
<path fill="none" stroke="#000000" stroke-linecap="square" stroke-miterlimit="10" d="M309.5,425.449  C308.858,425.103,307.856,424.562,309.5,425.449L309.5,425.449z"/>
<path fill="none" stroke="#000000" stroke-linecap="square" stroke-miterlimit="10" d="M309.5,424.699  C307.856,425.585,308.858,425.044,309.5,424.699L309.5,424.699z"/>
<path fill="none" stroke="#000000" stroke-linecap="square" stroke-miterlimit="10" d="M309.5,424.699  C307.856,425.585,308.858,425.044,309.5,424.699L309.5,424.699z"/>
<path fill="none" stroke="#000000" stroke-linecap="square" stroke-miterlimit="10" d="M309.5,424.699  C307.856,425.585,308.858,425.044,309.5,424.699L309.5,424.699z"/>
<path fill="none" stroke="#000000" stroke-linecap="square" stroke-miterlimit="10" d="M308.75,425.449  C308.75,424.449,308.75,424.449,308.75,425.449L308.75,425.449z"/>
<path fill="none" stroke="#000000" stroke-linecap="square" stroke-miterlimit="10" d="M309.5,424.699  C307.856,425.585,308.858,425.044,309.5,424.699L309.5,424.699z"/>
<path fill="none" stroke="#000000" stroke-linecap="square" stroke-miterlimit="10" d="M309.5,424.699  C307.856,425.585,308.858,425.044,309.5,424.699L309.5,424.699z"/>
<path fill="none" stroke="#000000" stroke-linecap="square" stroke-miterlimit="10" d="M309.5,424.699  C307.856,425.585,308.858,425.044,309.5,424.699L309.5,424.699z"/>
<path fill="none" stroke="#000000" stroke-linecap="square" stroke-miterlimit="10" d="M309.5,424.699  C307.856,425.585,308.858,425.044,309.5,424.699L309.5,424.699z"/>
<path fill="none" stroke="#000000" stroke-linecap="square" stroke-miterlimit="10" d="M309.5,424.699  C307.856,425.585,308.858,425.044,309.5,424.699L309.5,424.699z"/>
<path fill="none" stroke="#000000" stroke-linecap="square" stroke-miterlimit="10" d="M309.5,424.699  C307.856,425.585,308.858,425.044,309.5,424.699L309.5,424.699z"/>
<path fill="none" stroke="#000000" stroke-linecap="square" stroke-miterlimit="10" d="M309.5,424.699  C307.856,425.585,308.858,425.044,309.5,424.699L309.5,424.699z"/>
<path fill="none" stroke="#000000" stroke-linecap="square" stroke-miterlimit="10" d="M309.5,424.699  C307.856,425.585,308.858,425.044,309.5,424.699L309.5,424.699z"/>
<path fill="none" stroke="#000000" stroke-linecap="square" stroke-miterlimit="10" d="M309.5,424.699  C307.856,425.585,308.858,425.044,309.5,424.699L309.5,424.699z"/>
<path fill="none" stroke="#000000" stroke-linecap="square" stroke-miterlimit="10" d="M309.5,424.699  C307.856,425.585,308.858,425.044,309.5,424.699L309.5,424.699z"/>
<path fill="none" stroke="#000000" stroke-linecap="square" stroke-miterlimit="10" d="M308.75,425.449  C308.75,424.449,308.75,424.449,308.75,425.449L308.75,425.449z"/>
<path fill="none" stroke="#000000" stroke-linecap="square" stroke-miterlimit="10" d="M309.5,424.699  C307.856,425.585,308.858,425.044,309.5,424.699L309.5,424.699z"/>
<path fill="none" stroke="#000000" stroke-linecap="square" stroke-miterlimit="10" d="M309.5,424.699  C307.856,425.585,308.858,425.044,309.5,424.699L309.5,424.699z"/>
<path fill="none" stroke="#000000" stroke-linecap="square" stroke-miterlimit="10" d="M309.5,424.699  C307.856,425.585,308.858,425.044,309.5,424.699L309.5,424.699z"/>
<path fill="none" stroke="#000000" stroke-linecap="square" stroke-miterlimit="10" d="M309.5,424.699  C307.856,425.585,308.858,425.044,309.5,424.699L309.5,424.699z"/>
<path fill="none" stroke="#000000" stroke-linecap="square" stroke-miterlimit="10" d="M309.5,424.699  C307.856,425.585,308.858,425.044,309.5,424.699L309.5,424.699z"/>
<path fill="none" stroke="#000000" stroke-linecap="square" stroke-miterlimit="10" d="M309.5,424.699  C307.856,425.585,308.858,425.044,309.5,424.699L309.5,424.699z"/>
<path fill="none" stroke="#000000" stroke-linecap="square" stroke-miterlimit="10" d="M309.5,424.699  C307.856,425.585,308.858,425.044,309.5,424.699L309.5,424.699z"/>
<path fill="none" stroke="#000000" stroke-linecap="square" stroke-miterlimit="10" d="M309.5,424.699  C308.896,425.302,308.896,425.302,309.5,424.699L309.5,424.699z"/>
<path fill="none" stroke="#000000" stroke-linecap="square" stroke-miterlimit="10" d="M309.5,424.699  C307.856,425.585,308.858,425.044,309.5,424.699L309.5,424.699z"/>
<path fill="none" stroke="#000000" stroke-linecap="square" stroke-miterlimit="10" d="M309.5,424.699  C307.856,425.585,308.858,425.044,309.5,424.699L309.5,424.699z"/>
<path fill="none" stroke="#000000" stroke-linecap="square" stroke-miterlimit="10" d="M308.75,425.449  C309.354,424.845,309.354,424.845,308.75,425.449L308.75,425.449z"/>
<path fill="none" stroke="#000000" stroke-linecap="square" stroke-miterlimit="10" d="M309.5,424.699  C307.856,425.585,308.858,425.044,309.5,424.699L309.5,424.699z"/>
<path fill="none" stroke="#000000" stroke-linecap="square" stroke-miterlimit="10" d="M309.5,424.699  C307.856,425.585,308.858,425.044,309.5,424.699L309.5,424.699z"/>
<path fill="none" stroke="#000000" stroke-linecap="square" stroke-miterlimit="10" d="M309.5,424.699  C307.856,425.585,308.858,425.044,309.5,424.699L309.5,424.699z"/>
<path fill="none" stroke="#000000" stroke-linecap="square" stroke-miterlimit="10" d="M309.5,424.699  C307.856,425.585,308.858,425.044,309.5,424.699L309.5,424.699z"/>
<path fill="none" stroke="#000000" stroke-linecap="square" stroke-miterlimit="10" d="M309.5,424.699  C307.856,425.585,308.858,425.044,309.5,424.699L309.5,424.699z"/>
<path fill="none" stroke="#000000" stroke-linecap="square" stroke-miterlimit="10" d="M309.5,424.699  C307.856,425.585,308.858,425.044,309.5,424.699L309.5,424.699z"/>
<path fill-rule="evenodd" clip-rule="evenodd" fill="#878787" stroke="#000000" stroke-linecap="square" stroke-miterlimit="10" d="  M513.5,417.201c-30.038-13.354-70.081-12.373-96.75-36.375c-18.07-16.263-8.129-29.279-18-46.125  c1.587,9.141-0.448,17.316-3.75,25.5c-3.641-7.071-10.638-14.95-15-21c8.382,10.382,9.428,17.116,0.75,23.625  c-10.507,7.88,9.632,19.956,13.5,29.625C411.17,434.751,474.481,426.638,513.5,417.201z"/>
<path fill-rule="evenodd" clip-rule="evenodd" fill="#724211" stroke="#000000" stroke-linecap="square" stroke-miterlimit="10" d="  M447.5,404.451c-58.193-20.756,8.218-85.548,48.75-57C553.614,387.854,471.624,452.502,447.5,404.451z"/>
<path fill="none" stroke="#000000" stroke-linecap="square" stroke-miterlimit="10" d="M448.25,406.701  c-22.271-31.766,30.442-65.513,50.625-31.875c27.31,45.517-64.916,43.18-36.75,5.625c8.853-11.803,28.412-8.769,30.375,6.75  c2.344,18.53-22.637,23.787-26.25,5.25c-1.944-9.976,12.629-7.03,14.25-9c6.997-8.504,1.874,25.502-1.5,15  c-3.615-11.256-2.18-6.631-1.5-4.5"/>
<path fill="none" stroke="#000000" stroke-linecap="square" stroke-miterlimit="10" d="M392,369.201c-2.202,4-5.948,6.146-10.5,6"/>
<path fill-rule="evenodd" clip-rule="evenodd" fill="#878787" stroke="#000000" stroke-linecap="square" stroke-miterlimit="10" d="  M376.25,339.951C382.558,339.951,382.558,339.951,376.25,339.951L376.25,339.951z"/>
<path fill-rule="evenodd" clip-rule="evenodd" fill="#878787" stroke="#000000" stroke-linecap="square" stroke-miterlimit="10" d="  M395.75,337.701C402.686,336.94,402.194,336.994,395.75,337.701L395.75,337.701z"/>
<path fill="none" stroke="#000000" stroke-linecap="square" stroke-miterlimit="10" d="M398,337.701  C397,337.701,397,337.701,398,337.701L398,337.701z"/>
<path fill="none" stroke="#000000" stroke-linecap="square" stroke-miterlimit="10" d="M398,337.701  C397.396,338.304,397.396,338.304,398,337.701L398,337.701z"/>
<path fill="none" stroke="#000000" stroke-linecap="square" stroke-miterlimit="10" d="M398,337.701  C397.396,338.304,397.396,338.304,398,337.701L398,337.701z"/>
<path fill="none" stroke="#000000" stroke-linecap="square" stroke-miterlimit="10" d="M398,337.701  C396.483,338.166,396.212,338.25,398,337.701L398,337.701z"/>
<path fill="none" stroke="#000000" stroke-linecap="square" stroke-miterlimit="10" d="M398,337.701  C396.483,338.166,396.212,338.25,398,337.701L398,337.701z"/>
<path fill="none" stroke="#000000" stroke-linecap="square" stroke-miterlimit="10" d="M397.25,337.701  C397.854,338.304,397.854,338.304,397.25,337.701L397.25,337.701z"/>
<path fill="none" stroke="#000000" stroke-linecap="square" stroke-miterlimit="10" d="M398,337.701  C396.727,337.701,396.727,337.701,398,337.701L398,337.701z"/>
<path fill="none" stroke="#000000" stroke-linecap="square" stroke-miterlimit="10" d="M398,337.701  C396.353,337.701,396.353,337.701,398,337.701L398,337.701z"/>
<path fill="none" stroke="#000000" stroke-linecap="square" stroke-miterlimit="10" d="M398.75,337.701  C396.778,337.701,396.778,337.701,398.75,337.701L398.75,337.701z"/>
<path fill="none" stroke="#000000" stroke-linecap="square" stroke-miterlimit="10" d="M398,337.701  C397.463,337.701,397.463,337.701,398,337.701L398,337.701z"/>
<path fill="none" stroke="#000000" stroke-linecap="square" stroke-miterlimit="10" d="M398,337.701  C397.463,337.701,397.463,337.701,398,337.701L398,337.701z"/>
<path fill="none" stroke="#000000" stroke-linecap="square" stroke-miterlimit="10" d="M398,337.701  C397.396,338.304,397.396,338.304,398,337.701L398,337.701z"/>
<path fill="none" stroke="#000000" stroke-linecap="square" stroke-miterlimit="10" d="M398,337.701  C397.396,338.304,397.396,338.304,398,337.701L398,337.701z"/>
<path fill="none" stroke="#000000" stroke-linecap="square" stroke-miterlimit="10" d="M398,337.701  C397,337.701,397,337.701,398,337.701L398,337.701z"/>
<path fill="none" stroke="#000000" stroke-linecap="square" stroke-miterlimit="10" d="M398,337.701  C396.826,337.88,396.432,337.94,398,337.701L398,337.701z"/>
<path fill="none" stroke="#000000" stroke-linecap="square" stroke-miterlimit="10" d="M398,337.701  C396.2,337.638,396.777,337.658,398,337.701L398,337.701z"/>
<path fill="none" stroke="#000000" stroke-linecap="square" stroke-miterlimit="10" d="M397.25,337.701  C398.25,337.701,398.25,337.701,397.25,337.701L397.25,337.701z"/>
<path fill="none" stroke="#000000" stroke-linecap="square" stroke-miterlimit="10" d="M398.75,337.701  C396.778,337.701,396.778,337.701,398.75,337.701L398.75,337.701z"/>
<path fill="none" stroke="#000000" stroke-linecap="square" stroke-miterlimit="10" d="M398.75,337.701  C396.778,337.701,396.778,337.701,398.75,337.701L398.75,337.701z"/>
<path fill="none" stroke="#000000" stroke-linecap="square" stroke-miterlimit="10" d="M398.75,337.701  C397.103,337.701,397.103,337.701,398.75,337.701L398.75,337.701z"/>
<path fill="none" stroke="#000000" stroke-linecap="square" stroke-miterlimit="10" d="M398,337.701  C397.463,337.701,397.463,337.701,398,337.701L398,337.701z"/>
<path fill="none" stroke="#000000" stroke-linecap="square" stroke-miterlimit="10" d="M398,337.701  C397.463,337.701,397.463,337.701,398,337.701L398,337.701z"/>
<path fill="none" stroke="#000000" stroke-linecap="square" stroke-miterlimit="10" d="M398,337.701  C397.396,338.304,397.396,338.304,398,337.701L398,337.701z"/>
<path fill="none" stroke="#000000" stroke-linecap="square" stroke-miterlimit="10" d="M398,337.701  C397.396,338.304,397.396,338.304,398,337.701L398,337.701z"/>
<path fill="none" stroke="#000000" stroke-linecap="square" stroke-miterlimit="10" d="M398,337.701L398,337.701z"/>
<path fill="none" stroke="#000000" stroke-linecap="square" stroke-miterlimit="10" d="M398.75,337.701  C397.05,337.701,397.05,337.701,398.75,337.701L398.75,337.701z"/>
<path fill="none" stroke="#000000" stroke-linecap="square" stroke-miterlimit="10" d="M398.75,337.701  C397.222,337.764,397.023,337.772,398.75,337.701L398.75,337.701z"/>
<path fill="none" stroke="#000000" stroke-linecap="square" stroke-miterlimit="10" d="M397.25,337.701  C398.25,337.701,398.25,337.701,397.25,337.701L397.25,337.701z"/>
<path fill="none" stroke="#000000" stroke-linecap="square" stroke-miterlimit="10" d="M398.75,337.701  C397.103,337.701,397.103,337.701,398.75,337.701L398.75,337.701z"/>
<path fill="none" stroke="#000000" stroke-linecap="square" stroke-miterlimit="10" d="M398.75,337.701  C397.103,337.701,397.103,337.701,398.75,337.701L398.75,337.701z"/>
<path fill="none" stroke="#000000" stroke-linecap="square" stroke-miterlimit="10" d="M398.75,337.701  C397.103,337.701,397.103,337.701,398.75,337.701L398.75,337.701z"/>
<path fill="none" stroke="#000000" stroke-linecap="square" stroke-miterlimit="10" d="M398,337.701  C397.463,337.701,397.463,337.701,398,337.701L398,337.701z"/>
<path fill="none" stroke="#000000" stroke-linecap="square" stroke-miterlimit="10" d="M398,337.701  C397.396,338.304,397.396,338.304,398,337.701L398,337.701z"/>
<path fill="none" stroke="#000000" stroke-linecap="square" stroke-miterlimit="10" d="M398,337.701  C397.396,338.304,397.396,338.304,398,337.701L398,337.701z"/>
<path fill="none" stroke="#000000" stroke-linecap="square" stroke-miterlimit="10" d="M398,337.701L398,337.701z"/>
<path fill="none" stroke="#000000" stroke-linecap="square" stroke-miterlimit="10" d="M398,337.701L398,337.701z"/>
<path fill="none" stroke="#000000" stroke-linecap="square" stroke-miterlimit="10" d="M398.75,337.701  C397.103,337.701,397.103,337.701,398.75,337.701L398.75,337.701z"/>
<path fill="none" stroke="#000000" stroke-linecap="square" stroke-miterlimit="10" d="M398,337.701  C397.463,337.701,397.463,337.701,398,337.701L398,337.701z"/>
<path fill="none" stroke="#000000" stroke-linecap="square" stroke-miterlimit="10" d="M398,337.701L398,337.701z"/>
<path fill="none" stroke="#000000" stroke-linecap="square" stroke-miterlimit="10" d="M398,337.701  C397.396,338.304,397.396,338.304,398,337.701L398,337.701z"/>
<path fill="none" stroke="#000000" stroke-linecap="square" stroke-miterlimit="10" d="M398,337.701  C397.396,338.304,397.396,338.304,398,337.701L398,337.701z"/>
<path fill="none" stroke="#000000" stroke-linecap="square" stroke-miterlimit="10" d="M398,337.701  C397,337.701,397,337.701,398,337.701L398,337.701z"/>
<path fill="none" stroke="#000000" stroke-linecap="square" stroke-miterlimit="10" d="M398,337.701L398,337.701z"/>
<path fill="none" stroke="#000000" stroke-linecap="square" stroke-miterlimit="10" d="M398,337.701L398,337.701z"/>
<path fill="none" stroke="#000000" stroke-linecap="square" stroke-miterlimit="10" d="M398,337.701L398,337.701z"/>
<path fill="none" stroke="#000000" stroke-linecap="square" stroke-miterlimit="10" d="M398,337.701  C396.356,338.587,397.358,338.047,398,337.701L398,337.701z"/>
<path fill="none" stroke="#000000" stroke-linecap="square" stroke-miterlimit="10" d="M398,337.701  C397,337.701,397,337.701,398,337.701L398,337.701z"/>
<path fill="none" stroke="#000000" stroke-linecap="square" stroke-miterlimit="10" d="M398,337.701  C396.88,337.701,396.88,337.701,398,337.701L398,337.701z"/>
<path fill="none" stroke="#000000" stroke-linecap="square" stroke-miterlimit="10" d="M398,337.701  C396.88,337.701,396.88,337.701,398,337.701L398,337.701z"/>
<path fill="none" stroke="#000000" stroke-linecap="square" stroke-miterlimit="10" d="M397.25,337.701  C398.25,337.701,398.25,337.701,397.25,337.701L397.25,337.701z"/>
<path fill="none" stroke="#000000" stroke-linecap="square" stroke-miterlimit="10" d="M398,337.701  C396.356,338.587,397.358,338.047,398,337.701L398,337.701z"/>
<path fill="none" stroke="#000000" stroke-linecap="square" stroke-miterlimit="10" d="M398,337.701  C396.356,338.587,397.358,338.047,398,337.701L398,337.701z"/>
<path fill="none" stroke="#000000" stroke-linecap="square" stroke-miterlimit="10" d="M398,337.701  C396.356,338.587,397.358,338.047,398,337.701L398,337.701z"/>
<path fill="none" stroke="#000000" stroke-linecap="square" stroke-miterlimit="10" d="M398,337.701  C396.356,338.587,397.358,338.047,398,337.701L398,337.701z"/>
<path fill="none" stroke="#000000" stroke-linecap="square" stroke-miterlimit="10" d="M398,337.701  C396.356,338.587,397.358,338.047,398,337.701L398,337.701z"/>
<path fill="none" stroke="#000000" stroke-linecap="square" stroke-miterlimit="10" d="M398,337.701  C396.356,338.587,397.358,338.047,398,337.701L398,337.701z"/>
<path fill="none" stroke="#000000" stroke-linecap="square" stroke-miterlimit="10" d="M398,337.701  C397,337.701,397,337.701,398,337.701L398,337.701z"/>
<path fill="none" stroke="#000000" stroke-linecap="square" stroke-miterlimit="10" d="M398,337.701  C397,337.701,397,337.701,398,337.701L398,337.701z"/>
<path fill="none" stroke="#000000" stroke-linecap="square" stroke-miterlimit="10" d="M398,337.701  C397.463,337.701,397.463,337.701,398,337.701L398,337.701z"/>
<path fill="none" stroke="#000000" stroke-linecap="square" stroke-miterlimit="10" d="M398,337.701  C396.88,337.701,396.88,337.701,398,337.701L398,337.701z"/>
<path fill="none" stroke="#000000" stroke-linecap="square" stroke-miterlimit="10" d="M397.25,337.701  C398.25,337.701,398.25,337.701,397.25,337.701L397.25,337.701z"/>
<path fill="none" stroke="#000000" stroke-linecap="square" stroke-miterlimit="10" d="M398,337.701  C397.396,338.304,397.396,338.304,398,337.701L398,337.701z"/>
<path fill="none" stroke="#000000" stroke-linecap="square" stroke-miterlimit="10" d="M398,337.701  C397.396,338.304,397.396,338.304,398,337.701L398,337.701z"/>
<path fill="none" stroke="#000000" stroke-linecap="square" stroke-miterlimit="10" d="M398,337.701  C397.396,338.304,397.396,338.304,398,337.701L398,337.701z"/>
<path fill="none" stroke="#000000" stroke-linecap="square" stroke-miterlimit="10" d="M398,337.701  C397,337.701,397,337.701,398,337.701L398,337.701z"/>
<path fill="none" stroke="#000000" stroke-linecap="square" stroke-miterlimit="10" d="M398,337.701  C397,337.701,397,337.701,398,337.701L398,337.701z"/>
<path fill="none" stroke="#000000" stroke-linecap="square" stroke-miterlimit="10" d="M398,337.701  C397,337.701,397,337.701,398,337.701L398,337.701z"/>
<path fill="none" stroke="#000000" stroke-linecap="square" stroke-miterlimit="10" d="M398,337.701  C397,337.701,397,337.701,398,337.701L398,337.701z"/>
<path fill="none" stroke="#000000" stroke-linecap="square" stroke-miterlimit="10" d="M398,337.701  C397,337.701,397,337.701,398,337.701L398,337.701z"/>
<path fill="none" stroke="#000000" stroke-linecap="square" stroke-miterlimit="10" d="M398,337.701  C397.396,338.304,397.396,338.304,398,337.701L398,337.701z"/>
<path fill="none" stroke="#000000" stroke-linecap="square" stroke-miterlimit="10" d="M398,337.701  C397.396,338.304,397.396,338.304,398,337.701L398,337.701z"/>
<path fill="none" stroke="#000000" stroke-linecap="square" stroke-miterlimit="10" d="M397.25,337.701  C398.25,337.701,398.25,337.701,397.25,337.701L397.25,337.701z"/>
<path fill="none" stroke="#000000" stroke-linecap="square" stroke-miterlimit="10" d="M398,337.701  C397.396,338.304,397.396,338.304,398,337.701L398,337.701z"/>
<path fill="none" stroke="#000000" stroke-linecap="square" stroke-miterlimit="10" d="M398,337.701  C397.396,338.304,397.396,338.304,398,337.701L398,337.701z"/>
<path fill="none" stroke="#000000" stroke-linecap="square" stroke-miterlimit="10" d="M398,337.701  C397.396,338.304,397.396,338.304,398,337.701L398,337.701z"/>
<path fill="none" stroke="#000000" stroke-linecap="square" stroke-miterlimit="10" d="M398,337.701  C397,337.701,397,337.701,398,337.701L398,337.701z"/>
<path fill="none" stroke="#000000" stroke-linecap="square" stroke-miterlimit="10" d="M398,337.701  C397,337.701,397,337.701,398,337.701L398,337.701z"/>
<path fill="none" stroke="#000000" stroke-linecap="square" stroke-miterlimit="10" d="M398,337.701  C397,337.701,397,337.701,398,337.701L398,337.701z"/>
<path fill="none" stroke="#000000" stroke-linecap="square" stroke-miterlimit="10" d="M398,337.701L398,337.701z"/>
<path fill="none" stroke="#000000" stroke-linecap="square" stroke-miterlimit="10" d="M398,337.701L398,337.701z"/>
<path fill="none" stroke="#000000" stroke-linecap="square" stroke-miterlimit="10" d="M398,337.701  C397.396,338.304,397.396,338.304,398,337.701L398,337.701z"/>
<path fill="none" stroke="#000000" stroke-linecap="square" stroke-miterlimit="10" d="M398,337.701  C397,337.701,397,337.701,398,337.701L398,337.701z"/>
<path fill="none" stroke="#000000" stroke-linecap="square" stroke-miterlimit="10" d="M398,337.701L398,337.701z"/>
<path fill="none" stroke="#000000" stroke-linecap="square" stroke-miterlimit="10" d="M398,337.701  C397,337.701,397,337.701,398,337.701L398,337.701z"/>
<path fill="none" stroke="#000000" stroke-linecap="square" stroke-miterlimit="10" d="M398,337.701  C397,337.701,397,337.701,398,337.701L398,337.701z"/>
<path fill="none" stroke="#000000" stroke-linecap="square" stroke-miterlimit="10" d="M398,337.701  C397,337.701,397,337.701,398,337.701L398,337.701z"/>
<path fill="none" stroke="#000000" stroke-linecap="square" stroke-miterlimit="10" d="M398,337.701  C397,337.701,397,337.701,398,337.701L398,337.701z"/>
<path fill="none" stroke="#000000" stroke-linecap="square" stroke-miterlimit="10" d="M398,337.701  C397,337.701,397,337.701,398,337.701L398,337.701z"/>
<path fill="none" stroke="#000000" stroke-linecap="square" stroke-miterlimit="10" d="M398,337.701L398,337.701z"/>
<path fill="none" stroke="#000000" stroke-linecap="square" stroke-miterlimit="10" d="M379.25,340.701  C378.25,340.701,378.25,340.701,379.25,340.701L379.25,340.701z"/>
<path fill="none" stroke="#000000" stroke-linecap="square" stroke-miterlimit="10" d="M379.25,341.451  C377.606,342.337,378.608,341.797,379.25,341.451L379.25,341.451z"/>
<path fill="none" stroke="#000000" stroke-linecap="square" stroke-miterlimit="10" d="M379.25,341.451  C378.646,342.054,378.646,342.054,379.25,341.451L379.25,341.451z"/>
<path fill="none" stroke="#000000" stroke-linecap="square" stroke-miterlimit="10" d="M379.25,342.201  C377.892,341.543,377.253,341.235,379.25,342.201L379.25,342.201z"/>
<path fill="none" stroke="#000000" stroke-linecap="square" stroke-miterlimit="10" d="M379.25,340.701  C376.838,341.009,378.046,340.854,379.25,340.701L379.25,340.701z"/>
<path fill="none" stroke="#000000" stroke-linecap="square" stroke-miterlimit="10" d="M378.5,341.451  C379.104,342.054,379.104,342.054,378.5,341.451L378.5,341.451z"/>
<path fill="none" stroke="#000000" stroke-linecap="square" stroke-miterlimit="10" d="M379.25,341.451  C377.278,341.451,377.278,341.451,379.25,341.451L379.25,341.451z"/>
<path fill="none" stroke="#000000" stroke-linecap="square" stroke-miterlimit="10" d="M379.25,341.451  C377.603,341.451,377.603,341.451,379.25,341.451L379.25,341.451z"/>
<path fill="none" stroke="#000000" stroke-linecap="square" stroke-miterlimit="10" d="M379.25,341.451  C377.603,341.451,377.603,341.451,379.25,341.451L379.25,341.451z"/>
<path fill="none" stroke="#000000" stroke-linecap="square" stroke-miterlimit="10" d="M379.25,341.451  C378.13,341.451,378.13,341.451,379.25,341.451L379.25,341.451z"/>
<path fill="none" stroke="#000000" stroke-linecap="square" stroke-miterlimit="10" d="M379.25,341.451  C377.606,342.337,378.608,341.797,379.25,341.451L379.25,341.451z"/>
<path fill="none" stroke="#000000" stroke-linecap="square" stroke-miterlimit="10" d="M379.25,341.451  C377.606,342.337,378.608,341.797,379.25,341.451L379.25,341.451z"/>
<path fill="none" stroke="#000000" stroke-linecap="square" stroke-miterlimit="10" d="M379.25,341.451  C378.646,342.054,378.646,342.054,379.25,341.451L379.25,341.451z"/>
<path fill="none" stroke="#000000" stroke-linecap="square" stroke-miterlimit="10" d="M379.25,341.451  C378.646,342.054,378.646,342.054,379.25,341.451L379.25,341.451z"/>
<path fill="none" stroke="#000000" stroke-linecap="square" stroke-miterlimit="10" d="M379.25,341.451  C377.55,341.451,377.55,341.451,379.25,341.451L379.25,341.451z"/>
<path fill="none" stroke="#000000" stroke-linecap="square" stroke-miterlimit="10" d="M379.25,341.451  C377.278,341.451,377.278,341.451,379.25,341.451L379.25,341.451z"/>
<path fill="none" stroke="#000000" stroke-linecap="square" stroke-miterlimit="10" d="M378.5,341.451  C379.104,342.054,379.104,342.054,378.5,341.451L378.5,341.451z"/>
<path fill="none" stroke="#000000" stroke-linecap="square" stroke-miterlimit="10" d="M379.25,341.451  C377.603,341.451,377.603,341.451,379.25,341.451L379.25,341.451z"/>
<path fill="none" stroke="#000000" stroke-linecap="square" stroke-miterlimit="10" d="M379.25,341.451  C377.603,341.451,377.603,341.451,379.25,341.451L379.25,341.451z"/>
<path fill="none" stroke="#000000" stroke-linecap="square" stroke-miterlimit="10" d="M379.25,341.451  C378.713,341.451,378.713,341.451,379.25,341.451L379.25,341.451z"/>
<path fill="none" stroke="#000000" stroke-linecap="square" stroke-miterlimit="10" d="M379.25,341.451  C378.646,342.054,378.646,342.054,379.25,341.451L379.25,341.451z"/>
<path fill="none" stroke="#000000" stroke-linecap="square" stroke-miterlimit="10" d="M379.25,341.451  C378.646,342.054,378.646,342.054,379.25,341.451L379.25,341.451z"/>
<path fill="none" stroke="#000000" stroke-linecap="square" stroke-miterlimit="10" d="M379.25,341.451  C378.646,342.054,378.646,342.054,379.25,341.451L379.25,341.451z"/>
<path fill="none" stroke="#000000" stroke-linecap="square" stroke-miterlimit="10" d="M379.25,341.451  C378.646,342.054,378.646,342.054,379.25,341.451L379.25,341.451z"/>
<path fill="none" stroke="#000000" stroke-linecap="square" stroke-miterlimit="10" d="M379.25,341.451  C378.646,342.054,378.646,342.054,379.25,341.451L379.25,341.451z"/>
<path fill="none" stroke="#000000" stroke-linecap="square" stroke-miterlimit="10" d="M379.25,341.451  C377.603,341.451,377.603,341.451,379.25,341.451L379.25,341.451z"/>
<path fill="none" stroke="#000000" stroke-linecap="square" stroke-miterlimit="10" d="M379.25,341.451  C377.603,341.451,377.603,341.451,379.25,341.451L379.25,341.451z"/>
<path fill="none" stroke="#000000" stroke-linecap="square" stroke-miterlimit="10" d="M378.5,341.451  C379.142,341.797,380.144,342.337,378.5,341.451L378.5,341.451z"/>
<path fill="none" stroke="#000000" stroke-linecap="square" stroke-miterlimit="10" d="M380,341.451  C378.353,341.451,378.353,341.451,380,341.451L380,341.451z"/>
<path fill="none" stroke="#000000" stroke-linecap="square" stroke-miterlimit="10" d="M379.25,341.451  C378.713,341.451,378.713,341.451,379.25,341.451L379.25,341.451z"/>
<path fill="none" stroke="#000000" stroke-linecap="square" stroke-miterlimit="10" d="M379.25,341.451  C378.713,341.451,378.713,341.451,379.25,341.451L379.25,341.451z"/>
<path fill="none" stroke="#000000" stroke-linecap="square" stroke-miterlimit="10" d="M379.25,341.451  C378.646,342.054,378.646,342.054,379.25,341.451L379.25,341.451z"/>
<path fill="none" stroke="#000000" stroke-linecap="square" stroke-miterlimit="10" d="M379.25,341.451  C378.646,342.054,378.646,342.054,379.25,341.451L379.25,341.451z"/>
<path fill="none" stroke="#000000" stroke-linecap="square" stroke-miterlimit="10" d="M379.25,341.451  C378.646,342.054,378.646,342.054,379.25,341.451L379.25,341.451z"/>
<path fill="none" stroke="#000000" stroke-linecap="square" stroke-miterlimit="10" d="M379.25,341.451  C379.25,342.451,379.25,342.451,379.25,341.451L379.25,341.451z"/>
<path fill="none" stroke="#000000" stroke-linecap="square" stroke-miterlimit="10" d="M379.25,341.451  C379.25,342.451,379.25,342.451,379.25,341.451L379.25,341.451z"/>
<path fill="none" stroke="#000000" stroke-linecap="square" stroke-miterlimit="10" d="M379.25,341.451  C378.646,342.054,378.646,342.054,379.25,341.451L379.25,341.451z"/>
<path fill="none" stroke="#000000" stroke-linecap="square" stroke-miterlimit="10" d="M379.25,341.451  C378.646,342.054,378.646,342.054,379.25,341.451L379.25,341.451z"/>
<path fill="none" stroke="#000000" stroke-linecap="square" stroke-miterlimit="10" d="M379.25,341.451  C379.25,342.451,379.25,342.451,379.25,341.451L379.25,341.451z"/>
<path fill="none" stroke="#000000" stroke-linecap="square" stroke-miterlimit="10" d="M379.25,341.451  C378.646,342.054,378.646,342.054,379.25,341.451L379.25,341.451z"/>
<path fill="none" stroke="#000000" stroke-linecap="square" stroke-miterlimit="10" d="M379.25,341.451  C378.646,342.054,378.646,342.054,379.25,341.451L379.25,341.451z"/>
<path fill="none" stroke="#000000" stroke-linecap="square" stroke-miterlimit="10" d="M379.25,341.451  C378.646,342.054,378.646,342.054,379.25,341.451L379.25,341.451z"/>
<path fill="none" stroke="#000000" stroke-linecap="square" stroke-miterlimit="10" d="M379.25,341.451  C378.646,342.054,378.646,342.054,379.25,341.451L379.25,341.451z"/>
<path fill="none" stroke="#000000" stroke-linecap="square" stroke-miterlimit="10" d="M379.25,341.451  C378.646,342.054,378.646,342.054,379.25,341.451L379.25,341.451z"/>
<path fill="none" stroke="#000000" stroke-linecap="square" stroke-miterlimit="10" d="M379.25,341.451  C379.25,342.451,379.25,342.451,379.25,341.451L379.25,341.451z"/>
<path fill="none" stroke="#000000" stroke-linecap="square" stroke-miterlimit="10" d="M379.25,341.451  C378.608,341.104,377.606,340.564,379.25,341.451L379.25,341.451z"/>
<path fill="none" stroke="#000000" stroke-linecap="square" stroke-miterlimit="10" d="M379.25,340.701  C377.606,341.587,378.608,341.047,379.25,340.701L379.25,340.701z"/>
<path fill="none" stroke="#000000" stroke-linecap="square" stroke-miterlimit="10" d="M379.25,340.701  C377.603,340.701,377.603,340.701,379.25,340.701L379.25,340.701z"/>
<path fill="none" stroke="#000000" stroke-linecap="square" stroke-miterlimit="10" d="M379.25,340.701  C377.606,341.587,378.608,341.047,379.25,340.701L379.25,340.701z"/>
<path fill="none" stroke="#000000" stroke-linecap="square" stroke-miterlimit="10" d="M378.5,341.451  C378.5,340.451,378.5,340.451,378.5,341.451L378.5,341.451z"/>
<path fill="none" stroke="#000000" stroke-linecap="square" stroke-miterlimit="10" d="M379.25,340.701  C377.606,341.587,378.608,341.047,379.25,340.701L379.25,340.701z"/>
<path fill="none" stroke="#000000" stroke-linecap="square" stroke-miterlimit="10" d="M379.25,340.701  C377.606,341.587,378.608,341.047,379.25,340.701L379.25,340.701z"/>
<path fill="none" stroke="#000000" stroke-linecap="square" stroke-miterlimit="10" d="M379.25,340.701  C377.606,341.587,378.608,341.047,379.25,340.701L379.25,340.701z"/>
<path fill="none" stroke="#000000" stroke-linecap="square" stroke-miterlimit="10" d="M379.25,340.701  C377.606,341.587,378.608,341.047,379.25,340.701L379.25,340.701z"/>
<path fill="none" stroke="#000000" stroke-linecap="square" stroke-miterlimit="10" d="M379.25,340.701  C377.606,341.587,378.608,341.047,379.25,340.701L379.25,340.701z"/>
<path fill="none" stroke="#000000" stroke-linecap="square" stroke-miterlimit="10" d="M379.25,340.701  C377.606,341.587,378.608,341.047,379.25,340.701L379.25,340.701z"/>
<path fill="none" stroke="#000000" stroke-linecap="square" stroke-miterlimit="10" d="M379.25,341.451  C378.608,341.104,377.606,340.564,379.25,341.451L379.25,341.451z"/>
<path fill="none" stroke="#000000" stroke-linecap="square" stroke-miterlimit="10" d="M379.25,340.701  C377.606,341.587,378.608,341.047,379.25,340.701L379.25,340.701z"/>
<path fill="none" stroke="#000000" stroke-linecap="square" stroke-miterlimit="10" d="M379.25,340.701  C377.606,341.587,378.608,341.047,379.25,340.701L379.25,340.701z"/>
<path fill="none" stroke="#000000" stroke-linecap="square" stroke-miterlimit="10" d="M379.25,340.701  C377.606,341.587,378.608,341.047,379.25,340.701L379.25,340.701z"/>
<path fill="none" stroke="#000000" stroke-linecap="square" stroke-miterlimit="10" d="M378.5,341.451  C378.5,340.451,378.5,340.451,378.5,341.451L378.5,341.451z"/>
<path fill="none" stroke="#000000" stroke-linecap="square" stroke-miterlimit="10" d="M379.25,340.701  C377.606,341.587,378.608,341.047,379.25,340.701L379.25,340.701z"/>
<path fill="none" stroke="#000000" stroke-linecap="square" stroke-miterlimit="10" d="M379.25,340.701  C377.606,341.587,378.608,341.047,379.25,340.701L379.25,340.701z"/>
<path fill="none" stroke="#000000" stroke-linecap="square" stroke-miterlimit="10" d="M379.25,340.701  C377.606,341.587,378.608,341.047,379.25,340.701L379.25,340.701z"/>
<path fill="none" stroke="#000000" stroke-linecap="square" stroke-miterlimit="10" d="M379.25,340.701  C377.606,341.587,378.608,341.047,379.25,340.701L379.25,340.701z"/>
<path fill="none" stroke="#000000" stroke-linecap="square" stroke-miterlimit="10" d="M379.25,340.701  C377.606,341.587,378.608,341.047,379.25,340.701L379.25,340.701z"/>
<path fill="none" stroke="#000000" stroke-linecap="square" stroke-miterlimit="10" d="M379.25,340.701  C377.606,341.587,378.608,341.047,379.25,340.701L379.25,340.701z"/>
<path fill="none" stroke="#000000" stroke-linecap="square" stroke-miterlimit="10" d="M379.25,340.701  C377.606,341.587,378.608,341.047,379.25,340.701L379.25,340.701z"/>
<path fill="none" stroke="#000000" stroke-linecap="square" stroke-miterlimit="10" d="M379.25,340.701  C377.606,341.587,378.608,341.047,379.25,340.701L379.25,340.701z"/>
<path fill="none" stroke="#000000" stroke-linecap="square" stroke-miterlimit="10" d="M379.25,340.701  C377.606,341.587,378.608,341.047,379.25,340.701L379.25,340.701z"/>
<path fill="none" stroke="#000000" stroke-linecap="square" stroke-miterlimit="10" d="M379.25,340.701  C377.606,341.587,378.608,341.047,379.25,340.701L379.25,340.701z"/>
<path fill="none" stroke="#000000" stroke-linecap="square" stroke-miterlimit="10" d="M378.5,341.451  C378.5,340.451,378.5,340.451,378.5,341.451L378.5,341.451z"/>
<path fill="none" stroke="#000000" stroke-linecap="square" stroke-miterlimit="10" d="M379.25,340.701  C377.606,341.587,378.608,341.047,379.25,340.701L379.25,340.701z"/>
<path fill="none" stroke="#000000" stroke-linecap="square" stroke-miterlimit="10" d="M379.25,340.701  C377.606,341.587,378.608,341.047,379.25,340.701L379.25,340.701z"/>
<path fill="none" stroke="#000000" stroke-linecap="square" stroke-miterlimit="10" d="M379.25,340.701  C377.606,341.587,378.608,341.047,379.25,340.701L379.25,340.701z"/>
<path fill="none" stroke="#000000" stroke-linecap="square" stroke-miterlimit="10" d="M379.25,340.701  C377.606,341.587,378.608,341.047,379.25,340.701L379.25,340.701z"/>
<path fill="none" stroke="#000000" stroke-linecap="square" stroke-miterlimit="10" d="M379.25,340.701  C377.606,341.587,378.608,341.047,379.25,340.701L379.25,340.701z"/>
<path fill="none" stroke="#000000" stroke-linecap="square" stroke-miterlimit="10" d="M379.25,340.701  C377.606,341.587,378.608,341.047,379.25,340.701L379.25,340.701z"/>
<path fill="none" stroke="#000000" stroke-linecap="square" stroke-miterlimit="10" d="M379.25,340.701  C377.606,341.587,378.608,341.047,379.25,340.701L379.25,340.701z"/>
<path fill="none" stroke="#000000" stroke-linecap="square" stroke-miterlimit="10" d="M379.25,340.701  C378.646,341.304,378.646,341.304,379.25,340.701L379.25,340.701z"/>
<path fill="none" stroke="#000000" stroke-linecap="square" stroke-miterlimit="10" d="M379.25,340.701  C377.606,341.587,378.608,341.047,379.25,340.701L379.25,340.701z"/>
<path fill="none" stroke="#000000" stroke-linecap="square" stroke-miterlimit="10" d="M379.25,340.701  C377.606,341.587,378.608,341.047,379.25,340.701L379.25,340.701z"/>
<path fill="none" stroke="#000000" stroke-linecap="square" stroke-miterlimit="10" d="M378.5,341.451  C379.104,340.847,379.104,340.847,378.5,341.451L378.5,341.451z"/>
<path fill="none" stroke="#000000" stroke-linecap="square" stroke-miterlimit="10" d="M379.25,340.701  C377.606,341.587,378.608,341.047,379.25,340.701L379.25,340.701z"/>
<path fill="none" stroke="#000000" stroke-linecap="square" stroke-miterlimit="10" d="M379.25,340.701  C377.606,341.587,378.608,341.047,379.25,340.701L379.25,340.701z"/>
<path fill="none" stroke="#000000" stroke-linecap="square" stroke-miterlimit="10" d="M379.25,340.701  C377.606,341.587,378.608,341.047,379.25,340.701L379.25,340.701z"/>
<path fill="none" stroke="#000000" stroke-linecap="square" stroke-miterlimit="10" d="M379.25,340.701  C377.606,341.587,378.608,341.047,379.25,340.701L379.25,340.701z"/>
<path fill="none" stroke="#000000" stroke-linecap="square" stroke-miterlimit="10" d="M379.25,340.701  C377.606,341.587,378.608,341.047,379.25,340.701L379.25,340.701z"/>
<path fill="none" stroke="#000000" stroke-linecap="square" stroke-miterlimit="10" d="M379.25,340.701  C377.606,341.587,378.608,341.047,379.25,340.701L379.25,340.701z"/>
</svg>