<svg xmlns="http://www.w3.org/2000/svg" xmlns:xlink="http://www.w3.org/1999/xlink" version="1.1" id="Layer_1" x="0px" y="0px" enable-background="new 0 0 822.05 841.89" xml:space="preserve" viewBox="246.85 245.29 329 353.75">
<path fill-rule="evenodd" clip-rule="evenodd" fill="#DFF3FD" stroke="#000000" stroke-width="2" stroke-linecap="square" stroke-miterlimit="10" d="  M325.101,304.789c1.859,5.569,1.028,12.854,1.5,18.75c-4.25-1-8.5-2-12.75-3c7.43,6.09,11.544,13.893,12,23.25  c-4-1.75-8-3.5-12-5.25c7.504,6.678,11.561,15.167,11.25,24.75c-4.561-2.758-9.874-4.47-14.25-7.5  c13.259,8.432,19.541,21.223,15.75,36.75c-15.333-3.519-24.222-13.184-22.5-29.25c-2,4.5-4,9-6,13.5  c-7.396-8.83-10.727-6.319-12-20.25c-1.25,4.5-2.5,9-3.75,13.5c-6.809-8.733-10.16-9.407-12-21.75c-0.75,3.5-1.5,7-2.25,10.5  c-6.301-3.366-14.607-4.689-20.25-9c5.246,2.969,8.885,9.546,13.5,13.5c-3.25,2.75-6.5,5.5-9.75,8.25  c10.163-3.613,19.25-2.153,26.25,5.25c-2.5,1.75-5,3.5-7.5,5.25c6.98-1.519,14.688,0.412,21.75-0.75  c-4.524,4.148-7.327,10.284-12,14.25c13.344-7.115,27.969-8.476,39.75,2.25c-8.078,13.667-20.858,16.042-35.25,10.5c3,2.5,6,5,9,7.5  c-7.674-0.511-15.588,2.128-23.25,1.5c3.25,2.25,6.5,4.499,9.75,6.748c-7.778,0.684-15.456,4.198-23.25,4.5  c3.5,1.25,7,2.5,10.5,3.75c-6.284,3.835-12.051,9.741-18.75,12.75c11.791-8.563,22.152-8.471,24.75,6.75  c-0.419-12.659,3.234-11.865,6.75-18c1.719,4.963,4.643,9.024,6.75,13.5c-2.958-10.983-0.232-19.722,9-25.5  c1.896,5.29,6.432,10.27,7.5,15.75c-4.285-16.513,5.076-27.222,20.25-32.248c3.069,14.538,0.817,29.328-10.5,39.748  c3.506-3.882,8.799-6.295,12.75-9.75c1.612,11.063-2.861,19.541-12.75,25.5c3.75-1.5,7.5-3,11.25-4.5  c2.525,10.562-0.819,19.037-9.75,25.5c3.5-1.25,7-2.5,10.5-3.75c0.551,5.785,3.573,12.263,3,18c-0.582-5.999,2.471-12.701,3-18.75  c3.25,1.5,6.5,3,9.75,4.5c-6.683-6.964-10.463-15.226-11.25-24.75c3.75,1.75,7.5,3.5,11.25,5.25c-7.921-7.31-11.695-16.303-11.25-27  c5.411,3.515,12.378,5.56,17.25,9.75c-15.249-10.862-20.417-22.048-16.5-40.498c16.089,6.432,26.76,16.772,25.5,35.248  c-0.729-6.05,1.397-12.63,1.5-18.748c9.902,5.669,14.286,14.548,13.5,26.248c0.75-4.75,1.5-9.5,2.25-14.25  c12.267,2.238,16.186,11.394,13.5,23.25c1.5-4.5,3-9,4.5-13.5c4.818,2.688,11.42,3.388,15.75,6.75c-7.703-12.858-7.382-8.29-6.75-21  c-11.852,5.957-8.939,3.583-21.75,0c3.5-2,7-4,10.5-6c-10.85,3.561-20.171,1.439-27.75-6.748c4-1.5,8-3,12-4.5  c-12.702,2.804-25.86-0.012-35.25-9c8.02-10.754,20.246-12.729,32.25-6.75c-3-2.5-6-5-9-7.5c9.822-2.952,9.427-7.096,22.5-3  c-3.5-2.75-7-5.5-10.5-8.25c9.007-5.594,18.905-6.496,29.25-3c-3.25-2.25-6.5-4.5-9.75-6.75c5.115-4.172,9.24-11.132,15-14.25  c-5.034,4.076-12.989,5.179-18.75,8.25c-1-4-2-8-3-12c0.521,9.983-3.433,17.521-12,22.5c-1.75-4-3.5-8-5.25-12  c0.033,14.114-2.403,11.604-9,21.75c-0.75-4.25-1.5-8.5-2.25-12.75c0.911,15.539-11.96,22.354-25.5,26.25  c-3.715-14.782-0.413-28.857,13.5-36.75c-4.5,2-9,4-13.5,6c-1.975-10.878,3.028-18.846,13.5-24c-4.5,1-9,2-13.5,3  c-1.975-10.535,3.46-17.376,14.25-21C331.927,328.071,325.076,319.668,325.101,304.789z"/>
<path fill-rule="evenodd" clip-rule="evenodd" fill="#DFF3FD" stroke="#000000" stroke-width="2" stroke-linecap="square" stroke-miterlimit="10" d="  M492.351,246.289c1.66,5.597,0.515,12.871,0.75,18.75c-4-1-8-2-12-3c7.43,6.09,11.545,13.893,12,23.25c-4-1.5-8-3-12-4.5  c7.504,6.678,11.561,15.167,11.25,24.75c-4.781-3.039-10.418-4.932-15-8.25c13.182,8.583,20.787,21.621,16.5,37.5  c-14.793-4.085-24.005-13.495-23.25-29.25c-1.75,4.25-3.5,8.5-5.25,12.75c-7.374-8.282-10.83-6.468-12.75-19.5  c-1,4.25-2,8.5-3,12.75c-6.798-8.47-10.478-9.814-12.75-21.75c-0.5,3.5-1,7-1.5,10.5c-6.307-3.203-14.515-4.179-20.252-8.25  c5.18,2.809,8.884,9.02,13.502,12.75c-3.501,2.75-7.001,5.5-10.502,8.25c10.142-2.949,19.521-1.393,27.002,5.25  c-2.75,1.75-5.5,3.5-8.25,5.25c7.287-1.364,15.145,0.242,22.5-0.75c-4.514,4.139-7.281,10.365-12,14.25  c13.331-7.22,27.788-8.542,39,3c-7.688,13.233-20.765,16.466-34.5,9.75c3,2.5,6,5,9,7.5c-7.674-0.511-15.588,2.128-23.25,1.5  c3.25,2.25,6.5,4.5,9.75,6.75c-7.778,0.684-15.457,4.199-23.252,4.5c3.501,1.25,7.001,2.5,10.502,3.75  c-6.317,4.048-11.999,10.273-18.752,13.5c11.411-8.271,21.821-8.725,24.752,6c-1.028-20.645,5.971-19.793,13.5-4.5  c-2.957-10.983-0.232-19.722,9-25.5c1.933,5.269,6.434,10.278,7.5,15.75c-5.123-16.888,4.616-27.392,20.25-32.25  c3.235,14.747,0.664,29.603-11.25,39.75c3.714-3.942,9.311-6.286,13.5-9.75c1.517,11.172-2.96,19.919-12.75,26.25  c3.75-1.5,7.5-3,11.25-4.5c2.38,10.268-0.996,18.494-9.75,24.748c3.25-1.249,6.5-2.499,9.75-3.748  c0.492,5.807,3.571,12.243,3,17.998c-0.321-5.828,3.02-12.163,3.75-17.998c3.25,1.5,6.5,2.999,9.75,4.498  c-6.565-7.302-10.348-15.82-11.25-25.498c3.75,1.75,7.5,3.5,11.25,5.25c-7.922-7.31-11.695-16.303-11.25-27  c5.411,3.515,12.379,5.559,17.25,9.75c-13.868-9.953-21.842-22.299-16.5-39.75c16.247,5.91,26.843,16.052,25.5,34.5  c-0.678-6.074,1.397-12.615,1.5-18.75c9.58,5.945,14.004,14.768,13.5,26.25c0.75-4.75,1.5-9.5,2.25-14.25  c12.268,2.238,16.187,11.394,13.5,23.25c1.5-4.25,3-8.5,4.5-12.75c4.817,2.485,11.39,2.842,15.75,6  c-7.697-12.849-7.421-8.281-6.75-21c-11.884,5.897-8.902,3.593-21.75,0c3.5-1.75,7-3.5,10.5-5.25  c-10.798,2.728-20.347,0.547-28.5-6.75c4.25-1.75,8.5-3.5,12.75-5.25c-12.891,2.736-26.249-0.148-36-9  c8.471-10.814,20.94-12.566,33-6c-3.25-2.75-6.5-5.5-9.75-8.25c9.945-3.101,10.005-7.038,23.25-3c-3.5-2.5-7-5-10.5-7.5  c8.681-6.466,18.649-7.554,29.25-3.75c-3.5-2.25-7-4.5-10.5-6.75c5.375-4.212,9.779-11.027,15.75-14.25  c-5.025,4.069-12.98,5.216-18.75,8.25c-1-4-2-8-3-12c-1.496,12.333-5.793,13.476-12,22.5c-1.75-4-3.5-8-5.25-12  c0.032,14.114-2.402,11.604-9,21.75c-0.75-4.25-1.5-8.5-2.25-12.75c1.17,15.902-11.571,23.089-25.5,27  c-4.464-15.266-1.384-29.717,13.5-37.5c-4.5,2-9,4-13.5,6c-1.975-10.878,3.028-18.846,13.5-24c-4.5,1.25-9,2.5-13.5,3.75  c-2.202-10.896,3.157-17.98,14.25-21.75C499.177,269.571,492.326,261.168,492.351,246.289z"/>
<path fill-rule="evenodd" clip-rule="evenodd" fill="#DFF3FD" stroke="#000000" stroke-width="2" stroke-linecap="square" stroke-miterlimit="10" d="  M454.101,406.789c1.66,5.597,0.515,12.87,0.75,18.748c-4-1-8-2-12-3c7.635,6.021,11.535,13.823,11.25,23.25c-4-1.75-8-3.5-12-5.25  c7.914,6.514,12.272,15.016,12,24.75c-4.795-2.798-10.382-4.433-15-7.5c13.259,8.432,19.541,21.224,15.75,36.75  c-15.333-3.52-24.223-13.184-22.5-29.25c-2,4.5-4,9-6,13.5c-6.675-8.428-10.394-7.347-12.002-20.25c-0.999,4.5-1.999,9-2.998,13.5  c-6.415-8.463-10.307-10.399-12.75-21.75c-0.5,3.5-1,7-1.5,10.5c-6.513-3.37-15.074-4.727-21-9c5.259,2.977,8.837,9.581,13.5,13.5  c-3.25,2.75-6.5,5.5-9.75,8.25c10.4-3.667,19.783-2.22,27,5.25c-2.75,1.75-5.5,3.5-8.25,5.25c6.977-1.518,14.677,0.346,21.748-0.75  c-4.528,4.142-7.325,10.284-11.998,14.25c13.42-6.92,28.083-8.732,39.75,2.25c-7.688,13.234-20.766,16.466-34.502,9.75  c3,2.75,6,5.5,9,8.25c-7.661-0.547-15.604,2.203-23.248,1.5c3,2.25,6,4.5,9,6.75c-7.528,0.675-14.956,4.21-22.5,4.5  c3.25,1.25,6.5,2.5,9.75,3.75c-6.284,3.835-12.051,9.742-18.75,12.75c11.791-8.563,22.152-8.471,24.75,6.75  c-2.679-21.735,6.303-20.413,13.498-4.5c-2.304-11.097,0.768-20.021,9.752-26.25c1.702,5.501,5.89,10.84,6.75,16.5  c-4.448-16.72,4.584-27.684,20.25-32.25c3.86,14.628,1.227,29.438-10.5,39.75c3.505-3.879,8.79-6.309,12.75-9.75  c1.604,10.837-2.574,19.321-12,25.5c3.75-1.5,7.5-3,11.25-4.5c2.571,10.802-1.058,19.269-10.5,25.5c3.5-1.25,7-2.5,10.5-3.75  c0.506,5.802,3.574,12.25,3,18c-0.368-6.064,3.032-12.672,3.75-18.75c3,1.5,6,3,9,4.5c-6.683-6.964-10.463-15.226-11.25-24.75  c4,1.5,8,3,12,4.5c-7.893-6.998-11.905-15.742-12-26.25c5.667,3.532,12.852,5.537,18,9.75c-15.691-10.678-21.332-21.743-17.25-40.5  c15.819,5.444,26.659,16.999,25.5,34.5c-0.691-5.802,1.36-12.133,1.5-18c10.621,4.726,15.052,14.757,14.25,26.25  c-0.332-4.874,1.84-10.106,2.25-15c12.133,2.813,16.119,12.121,13.5,24c1.25-4.5,2.5-9,3.75-13.5  c5.062,2.693,11.949,3.325,16.5,6.75c-8.73-13.63-8.123-7.537-6.75-21c-12.23,5.979-9.593,3.51-22.5,0c3.5-2,7-4,10.5-6  c-10.851,3.562-20.172,1.439-27.75-6.75c4.25-1.5,8.5-3,12.75-4.5c-12.508,2.698-26.866,0.334-36-9  c8.211-10.893,20.759-12.756,33-6.75c-3.25-2.5-6.5-5-9.75-7.5c9.968-2.89,9.93-6.992,23.25-3c-3.75-2.75-7.5-5.5-11.25-8.25  c9.236-5.633,19.412-6.529,30-3c-3.5-2.5-7-5-10.5-7.5c5.075-3.968,9.312-10.578,15-13.5c-5.068,4.049-12.965,5.206-18.75,8.25  c-0.75-4-1.5-8-2.25-12c-1.612,13.011-5.557,12.891-12.75,21.75c-1.5-3.75-3-7.5-4.5-11.25c-0.81,13.108-3.302,11.907-9.75,21.75  c-0.5-4.25-1-8.5-1.5-12.75c0.093,15.119-12.234,22.196-25.5,26.25c-4.325-14.88-1.168-29.166,12.75-37.5  c-4.3,2.584-9.177,4.203-13.5,6.75c-1.166-10.84,4.003-18.835,14.25-24c-4.75,1-9.5,2-14.25,3c-1.202-10.256,4.04-17.165,14.25-21  C460.417,429.952,454.31,421.094,454.101,406.789z"/>
</svg>