<svg xmlns="http://www.w3.org/2000/svg" xmlns:xlink="http://www.w3.org/1999/xlink" version="1.1" id="Layer_1" x="0px" y="0px" enable-background="new 0 0 822.05 841.89" xml:space="preserve" viewBox="280.52 247.63 259.2 348.35">
<line fill="none" stroke="#000000" stroke-width="2" stroke-linecap="square" stroke-miterlimit="10" x1="334" y1="581.626" x2="343.75" y2="571.876"/>
<line fill="none" stroke="#000000" stroke-width="2" stroke-linecap="square" stroke-miterlimit="10" x1="366.25" y1="568.876" x2="378.25" y2="577.126"/>
<line fill="none" stroke="#000000" stroke-width="2" stroke-linecap="square" stroke-miterlimit="10" x1="462.25" y1="581.626" x2="472" y2="571.876"/>
<line fill="none" stroke="#000000" stroke-width="2" stroke-linecap="square" stroke-miterlimit="10" x1="494.5" y1="568.876" x2="505.75" y2="577.126"/>
<path fill-rule="evenodd" clip-rule="evenodd" fill="#90A7D6" stroke="#000000" stroke-width="2" stroke-linecap="square" stroke-miterlimit="10" d="  M319,319.878c-5.627,32.135-47.981,311.648,48.75,270.748c45.058-19.051,33.119-111.203,34.5-148.499  c1.232-33.255,1.527-66.627-2.25-99.749c-4.285-37.576-21.641-61.476-41.25-93.75C345.5,272.378,332.25,296.128,319,319.878z"/>
<path fill-rule="evenodd" clip-rule="evenodd" fill="#00AEEF" stroke="#000000" stroke-width="2" stroke-linecap="square" stroke-miterlimit="10" d="  M386.5,447.376c-0.361,17.3,0.525,107.307-30,107.25c-30.206-0.057-30-89.961-30-107.25s-0.206-107.192,30-107.248  C387.025,340.071,386.139,430.077,386.5,447.376z"/>
<line fill="none" stroke="#000000" stroke-width="2" stroke-linecap="square" stroke-miterlimit="10" x1="331" y1="299.628" x2="339.25" y2="309.378"/>
<line fill="none" stroke="#000000" stroke-width="2" stroke-linecap="square" stroke-miterlimit="10" x1="343.75" y1="282.378" x2="352" y2="292.128"/>
<line fill="none" stroke="#000000" stroke-width="2" stroke-linecap="square" stroke-miterlimit="10" x1="316" y1="334.128" x2="330.25" y2="335.628"/>
<line fill="none" stroke="#000000" stroke-width="2" stroke-linecap="square" stroke-miterlimit="10" x1="310.75" y1="368.628" x2="324.25" y2="370.878"/>
<line fill="none" stroke="#000000" stroke-width="2" stroke-linecap="square" stroke-miterlimit="10" x1="308.5" y1="400.128" x2="322.75" y2="402.378"/>
<line fill="none" stroke="#000000" stroke-width="2" stroke-linecap="square" stroke-miterlimit="10" x1="304" y1="437.626" x2="318.25" y2="439.126"/>
<line fill="none" stroke="#000000" stroke-width="2" stroke-linecap="square" stroke-miterlimit="10" x1="304" y1="483.376" x2="318.25" y2="485.626"/>
<line fill="none" stroke="#000000" stroke-width="2" stroke-linecap="square" stroke-miterlimit="10" x1="307.75" y1="520.126" x2="321.25" y2="522.376"/>
<line fill="none" stroke="#000000" stroke-width="2" stroke-linecap="square" stroke-miterlimit="10" x1="315.25" y1="557.626" x2="328" y2="551.626"/>
<line fill="none" stroke="#000000" stroke-width="2" stroke-linecap="square" stroke-miterlimit="10" x1="379.75" y1="546.376" x2="391" y2="554.626"/>
<line fill="none" stroke="#000000" stroke-width="2" stroke-linecap="square" stroke-miterlimit="10" x1="381.25" y1="520.126" x2="395.5" y2="523.126"/>
<line fill="none" stroke="#000000" stroke-width="2" stroke-linecap="square" stroke-miterlimit="10" x1="388" y1="498.376" x2="401.5" y2="501.376"/>
<line fill="none" stroke="#000000" stroke-width="2" stroke-linecap="square" stroke-miterlimit="10" x1="386.5" y1="466.126" x2="400.75" y2="468.376"/>
<line fill="none" stroke="#000000" stroke-width="2" stroke-linecap="square" stroke-miterlimit="10" x1="388" y1="437.626" x2="401.5" y2="440.626"/>
<line fill="none" stroke="#000000" stroke-width="2" stroke-linecap="square" stroke-miterlimit="10" x1="388.75" y1="404.628" x2="402.25" y2="407.628"/>
<line fill="none" stroke="#000000" stroke-width="2" stroke-linecap="square" stroke-miterlimit="10" x1="388" y1="381.378" x2="401.5" y2="383.628"/>
<line fill="none" stroke="#000000" stroke-width="2" stroke-linecap="square" stroke-miterlimit="10" x1="385" y1="352.128" x2="399.25" y2="351.378"/>
<line fill="none" stroke="#000000" stroke-width="2" stroke-linecap="square" stroke-miterlimit="10" x1="380.5" y1="325.128" x2="393.25" y2="320.628"/>
<line fill="none" stroke="#000000" stroke-width="2" stroke-linecap="square" stroke-miterlimit="10" x1="373" y1="304.878" x2="386.5" y2="300.378"/>
<line fill="none" stroke="#000000" stroke-width="2" stroke-linecap="square" stroke-miterlimit="10" x1="363.25" y1="287.628" x2="376.75" y2="283.128"/>
<path fill-rule="evenodd" clip-rule="evenodd" fill="#90A7D6" stroke="#000000" stroke-width="2" stroke-linecap="square" stroke-miterlimit="10" d="  M290.5,458.626c-24.909,22.367,8.131,32.045,25.875,27.375c28.124-7.401,65.239-16.709,90.375,3.375  C428.86,446.028,306.919,457.533,290.5,458.626z"/>
<path fill-rule="evenodd" clip-rule="evenodd" fill="#90A7D6" stroke="#000000" stroke-width="2" stroke-linecap="square" stroke-miterlimit="10" d="  M290.5,412.878c-24.92,22.283,8.096,32.052,25.875,27.373c28.765-7.569,64.556-16.607,90.375,3.375  C428.992,400.432,307.179,410.936,290.5,412.878z"/>
<path fill-rule="evenodd" clip-rule="evenodd" fill="#90A7D6" stroke="#000000" stroke-width="2" stroke-linecap="square" stroke-miterlimit="10" d="  M447.25,319.878c-5.426,30.985-47.626,313.277,48.75,270.748c44.097-19.459,33.114-111.08,34.5-148.499  c1.228-33.134,1.26-66.733-2.25-99.749c-3.992-37.546-21.723-61.611-41.25-93.75C473.75,272.378,460.5,296.128,447.25,319.878z"/>
<path fill-rule="evenodd" clip-rule="evenodd" fill="#00AEEF" stroke="#000000" stroke-width="2" stroke-linecap="square" stroke-miterlimit="10" d="  M514.75,447.376c-0.361,17.329,0.436,107.193-30,107.25c-30.297,0.057-30-89.99-30-107.25s-0.296-107.305,30-107.248  C515.185,340.185,514.389,430.046,514.75,447.376z"/>
<line fill="none" stroke="#000000" stroke-width="2" stroke-linecap="square" stroke-miterlimit="10" x1="459.25" y1="299.628" x2="467.5" y2="309.378"/>
<line fill="none" stroke="#000000" stroke-width="2" stroke-linecap="square" stroke-miterlimit="10" x1="472" y1="282.378" x2="480.25" y2="292.128"/>
<line fill="none" stroke="#000000" stroke-width="2" stroke-linecap="square" stroke-miterlimit="10" x1="444.25" y1="334.128" x2="457.75" y2="335.628"/>
<line fill="none" stroke="#000000" stroke-width="2" stroke-linecap="square" stroke-miterlimit="10" x1="439" y1="368.628" x2="452.5" y2="370.878"/>
<line fill="none" stroke="#000000" stroke-width="2" stroke-linecap="square" stroke-miterlimit="10" x1="436.75" y1="400.128" x2="450.25" y2="402.378"/>
<line fill="none" stroke="#000000" stroke-width="2" stroke-linecap="square" stroke-miterlimit="10" x1="432.25" y1="437.626" x2="446.5" y2="439.126"/>
<line fill="none" stroke="#000000" stroke-width="2" stroke-linecap="square" stroke-miterlimit="10" x1="432.25" y1="483.376" x2="446.5" y2="485.626"/>
<line fill="none" stroke="#000000" stroke-width="2" stroke-linecap="square" stroke-miterlimit="10" x1="435.25" y1="520.126" x2="449.5" y2="522.376"/>
<line fill="none" stroke="#000000" stroke-width="2" stroke-linecap="square" stroke-miterlimit="10" x1="443.5" y1="557.626" x2="456.25" y2="551.626"/>
<line fill="none" stroke="#000000" stroke-width="2" stroke-linecap="square" stroke-miterlimit="10" x1="507.25" y1="546.376" x2="518.5" y2="554.626"/>
<line fill="none" stroke="#000000" stroke-width="2" stroke-linecap="square" stroke-miterlimit="10" x1="509.5" y1="520.126" x2="523" y2="523.126"/>
<line fill="none" stroke="#000000" stroke-width="2" stroke-linecap="square" stroke-miterlimit="10" x1="516.25" y1="498.376" x2="529.75" y2="501.376"/>
<line fill="none" stroke="#000000" stroke-width="2" stroke-linecap="square" stroke-miterlimit="10" x1="514.75" y1="466.126" x2="528.25" y2="468.376"/>
<line fill="none" stroke="#000000" stroke-width="2" stroke-linecap="square" stroke-miterlimit="10" x1="515.5" y1="437.626" x2="529.75" y2="440.626"/>
<line fill="none" stroke="#000000" stroke-width="2" stroke-linecap="square" stroke-miterlimit="10" x1="517" y1="404.628" x2="530.5" y2="407.628"/>
<line fill="none" stroke="#000000" stroke-width="2" stroke-linecap="square" stroke-miterlimit="10" x1="515.5" y1="381.378" x2="529.75" y2="383.628"/>
<line fill="none" stroke="#000000" stroke-width="2" stroke-linecap="square" stroke-miterlimit="10" x1="513.25" y1="352.128" x2="527.5" y2="351.378"/>
<line fill="none" stroke="#000000" stroke-width="2" stroke-linecap="square" stroke-miterlimit="10" x1="508.75" y1="325.128" x2="521.5" y2="320.628"/>
<line fill="none" stroke="#000000" stroke-width="2" stroke-linecap="square" stroke-miterlimit="10" x1="501.25" y1="304.878" x2="514" y2="300.378"/>
<line fill="none" stroke="#000000" stroke-width="2" stroke-linecap="square" stroke-miterlimit="10" x1="491.5" y1="287.628" x2="504.25" y2="283.128"/>
<path fill-rule="evenodd" clip-rule="evenodd" fill="#90A7D6" stroke="#000000" stroke-width="2" stroke-linecap="square" stroke-miterlimit="10" d="  M530.5,458.626c21.508,21.315-4.312,29.613-19.5,29.25c-32.217-0.771-67.079-24.123-96.75,1.5  C391.483,446.342,514.386,457.591,530.5,458.626z"/>
<path fill-rule="evenodd" clip-rule="evenodd" fill="#90A7D6" stroke="#000000" stroke-width="2" stroke-linecap="square" stroke-miterlimit="10" d="  M530.5,412.878c21.55,21.266-4.356,29.61-19.5,29.248c-32.923-0.787-66.288-24.032-96.75,1.5  C391.341,400.728,514.133,411.034,530.5,412.878z"/>
</svg>