<svg xmlns="http://www.w3.org/2000/svg" xmlns:xlink="http://www.w3.org/1999/xlink" version="1.1" id="Layer_1" x="0px" y="0px" enable-background="new 0 0 822.05 841.89" xml:space="preserve" viewBox="199.27 278.02 421.86 287.76">
<path fill-rule="evenodd" clip-rule="evenodd" fill="#FFFBCE" stroke="#000000" stroke-width="2" stroke-linecap="square" stroke-miterlimit="10" d="  M214.25,486.64c-14.458-26.431-23.307-60.624,2.25-83.625c45.924-41.332,124.732-65.171,179.672-93.234  c29.677-15.159,59.924-36.372,94.828-29.391c33.979,6.796,101.468,40.698,119.625,69.75c21.834,34.935,3.135,66.627-26.625,87.75  c-44.698,31.726-90.576,62.121-138.047,89.508C409.73,548.296,366.563,569.4,323,563.89  C279.342,558.369,245.519,513.718,214.25,486.64z"/>
<path fill="none" stroke="#000000" stroke-width="2" stroke-linecap="square" stroke-miterlimit="10" d="M220.25,399.64  c-20.506,79.429,88.263,145.063,158.25,123.75c43.73-13.317,88.397-47.929,127.5-71.25c33.54-20.003,92.32-44.182,113.25-78"/>
<path fill="none" stroke="#000000" stroke-width="2" stroke-linecap="square" stroke-miterlimit="10" d="M518,355.39  c4.463,55.358-191.875,122.127-200.625,78.375C307.472,384.249,487.922,314.601,518,355.39z"/>
</svg>