<svg xmlns="http://www.w3.org/2000/svg" xmlns:xlink="http://www.w3.org/1999/xlink" version="1.1" id="Layer_1" x="0px" y="0px" enable-background="new 0 0 822.05 841.89" xml:space="preserve" viewBox="305.5 338.67 212.25 167.34">
<path fill-rule="evenodd" clip-rule="evenodd" fill="#E9CDA8" stroke="#000000" stroke-linecap="square" stroke-miterlimit="10" d="  M435.002,475.14c-8.121-1.698-12.206-6.381-19.5-9.75c-15.973-7.378-17.912-9.561-40.584-9.078  c-21.303,0.453-45.083,28.104-51.666,45.828c24.265,0,48.529,0,72.794,0C426.51,502.14,425.16,504.666,435.002,475.14z"/>
<path fill-rule="evenodd" clip-rule="evenodd" fill="#E58015" d="M467.252,504.39c-3.201-13.38-20.008-38.723-37.5-34.5  c-11.931,2.88-15.378,28.553-38.25,29.25c-26.686,0.813-28.683-27.542-43.5-31.5c-16.442-4.392-38.902,23.982-42,36.75  C359.752,504.39,413.502,504.39,467.252,504.39z"/>
<path fill="none" stroke="#000000" stroke-linecap="square" stroke-miterlimit="10" d="M467.252,504.39  c-3.201-13.38-20.008-38.723-37.5-34.5c-11.931,2.88-15.378,28.553-38.25,29.25c-26.686,0.813-28.683-27.542-43.5-31.5  c-16.442-4.392-38.902,23.982-42,36.75"/>
<path fill-rule="evenodd" clip-rule="evenodd" fill="#22631B" d="M467.252,502.89L467.252,502.89L467.252,502.89z"/>
<line fill="none" stroke="#000000" stroke-linecap="square" stroke-miterlimit="10" x1="467.252" y1="502.89" x2="467.252" y2="502.89"/>
<path fill-rule="evenodd" clip-rule="evenodd" fill="#22631B" d="M306.002,502.89L306.002,502.89L306.002,502.89z"/>
<line fill="none" stroke="#000000" stroke-linecap="square" stroke-miterlimit="10" x1="306.002" y1="502.89" x2="306.002" y2="502.89"/>
<path fill-rule="evenodd" clip-rule="evenodd" fill="#5C2812" stroke="#000000" stroke-width="0.5" stroke-linecap="square" stroke-miterlimit="10" d="  M402.752,380.64c23.089,15.308,40.886,49.519,4.5,62.25C402.059,423.56,385.677,396.525,402.752,380.64z"/>
<path fill-rule="evenodd" clip-rule="evenodd" fill="#E9CDA8" stroke="#000000" stroke-linecap="square" stroke-miterlimit="10" d="  M311.252,431.64c32.801,75.843,154.871,21.855,81.75-64.5C372.351,395.087,345.482,421.624,311.252,431.64z"/>
<path fill-rule="evenodd" clip-rule="evenodd" fill="#5C2812" stroke="#000000" stroke-linecap="square" stroke-miterlimit="10" d="  M392.252,363.39c27.701,11.522-0.169,31.005-12.75,39.75c-36.081,25.079-42.183,26.601-15,63.75  C303.181,518.077,269.625,316.21,392.252,363.39z"/>
<path fill-rule="evenodd" clip-rule="evenodd" fill="#E9CDA8" d="M360.002,454.14c-2.525,12.945-11.533,6.626-21,0.75  C334.553,452.128,349.475,429.642,360.002,454.14z"/>
<path fill="none" stroke="#000000" stroke-linecap="square" stroke-miterlimit="10" d="M360.002,454.14  c-3.928,20.141-39.616-8.26-9-12"/>
<path fill-rule="evenodd" clip-rule="evenodd" fill="#C9CAE5" stroke="#000000" stroke-width="0.5" stroke-linecap="square" stroke-miterlimit="10" d="  M471.752,348.39c-40.784,11.762-23.163,67.401-63,86.25c16.338,0.021,75.993-2.202,92.25-13.5  C533.533,398.531,511.446,341.583,471.752,348.39z"/>
<path fill-rule="evenodd" clip-rule="evenodd" fill="#CE0E21" d="M367.502,431.64L367.502,431.64L367.502,431.64z"/>
<line fill="none" stroke="#000000" stroke-width="1.5" stroke-linecap="square" stroke-miterlimit="10" x1="367.502" y1="431.64" x2="367.502" y2="431.64"/>
<path fill-rule="evenodd" clip-rule="evenodd" fill="#FFFFFF" d="M393.002,412.89c6.982-1.817,12.041-1.009,14.25-10.5  C398.097,400.736,397.185,405.98,393.002,412.89z"/>
<path fill-rule="evenodd" clip-rule="evenodd" d="M396.002,409.14C405.14,405.953,405.5,405.827,396.002,409.14L396.002,409.14z"/>
<path fill="none" stroke="#000000" stroke-width="0.5" stroke-linecap="square" stroke-miterlimit="10" d="M407.252,401.64  c-7.462,0.19-13.376,4.352-16.5,11.25"/>
<path fill-rule="evenodd" clip-rule="evenodd" fill="#FFFFFF" d="M369.002,429.39C388.775,424.583,381.756,411.152,369.002,429.39  L369.002,429.39z"/>
<path fill-rule="evenodd" clip-rule="evenodd" d="M373.502,426.39C382.257,422.125,381.626,422.433,373.502,426.39L373.502,426.39z"/>
<path fill="none" stroke="#000000" stroke-width="0.5" stroke-linecap="square" stroke-miterlimit="10" d="M383.252,417.39  c-7.403,1.428-12.657,6.234-15,13.5"/>
<path fill-rule="evenodd" clip-rule="evenodd" fill="#E9CDA8" d="M391.502,418.89c13.609,0.327,18.541,4.695,5.25,14.25  C395.062,428.552,392.312,423.692,391.502,418.89z"/>
<path fill="none" stroke="#000000" stroke-width="0.5" stroke-linecap="square" stroke-miterlimit="10" d="M391.502,418.89  c13.609,0.327,18.541,4.695,5.25,14.25"/>
<path fill-rule="evenodd" clip-rule="evenodd" fill="#E9CDA8" d="M442.502,504.39c2.238-10.891,2.737-72.648,14.25-70.5  C475.913,437.465,490.791,518.384,442.502,504.39z"/>
<path fill="none" stroke="#000000" stroke-width="0.5" stroke-linecap="square" stroke-miterlimit="10" d="M442.502,504.39  c1.07-5.205,3.492-71.957,11.25-72.75c4.266-0.436,17.452,31.355,18.75,35.25c4.761,14.282-2.889,25.275-5.25,38.25"/>
<path fill="none" stroke="#000000" stroke-width="0.5" stroke-linecap="square" stroke-miterlimit="10" d="M459.002,442.14  c1.756,8.518,1.275,17.411-1.5,25.5"/>
<path fill="none" stroke="#000000" stroke-width="0.5" stroke-linecap="square" stroke-miterlimit="10" d="M450.002,409.89  c1.901,6.166,3.203,12.712,3,18.75c-8.609-9.165-13.267-22.786-12.75-35.25C445.173,397.933,447.483,403.454,450.002,409.89z"/>
<path fill="none" stroke="#000000" stroke-width="0.5" stroke-linecap="square" stroke-miterlimit="10" d="M451.502,426.39  c6.75,15,13.5,30,20.25,45C470.676,458.509,454.191,426.8,451.502,426.39z"/>
<path fill="none" stroke="#000000" stroke-width="0.5" stroke-linecap="square" stroke-miterlimit="10" d="M444.752,478.89  c0.732,5.869,4.233,10.45,9.75,12.75"/>
<path fill-rule="evenodd" clip-rule="evenodd" fill="#E9CDA8" stroke="#000000" stroke-width="0.5" stroke-linecap="square" stroke-miterlimit="10" d="  M461.252,433.89C488.325,420.344,446.097,472.477,461.252,433.89L461.252,433.89z"/>
<path fill-rule="evenodd" clip-rule="evenodd" fill="#E9CDA8" stroke="#000000" stroke-width="0.5" stroke-linecap="square" stroke-miterlimit="10" d="  M465.002,457.89C504.444,439.283,442.02,446.132,465.002,457.89L465.002,457.89z"/>
<path fill-rule="evenodd" clip-rule="evenodd" fill="#E9CDA8" stroke="#000000" stroke-width="0.5" stroke-linecap="square" stroke-miterlimit="10" d="  M463.502,460.89C500.348,426.818,457.19,489.084,463.502,460.89L463.502,460.89z"/>
<path fill-rule="evenodd" clip-rule="evenodd" fill="#E9CDA8" stroke="#000000" stroke-width="0.5" stroke-linecap="square" stroke-miterlimit="10" d="  M469.502,466.89C499.404,460.303,469.431,481.138,469.502,466.89L469.502,466.89z"/>
<path fill="none" stroke="#000000" stroke-width="0.5" stroke-linecap="square" stroke-miterlimit="10" d="M468.002,492.39  c-1.838,0.334-3.648,0.089-5.25-0.75"/>
<path fill-rule="evenodd" clip-rule="evenodd" d="M402.002,437.64C411.085,438.419,410.806,438.395,402.002,437.64L402.002,437.64z"/>
<path fill="none" stroke="#000000" stroke-width="0.5" stroke-linecap="square" stroke-miterlimit="10" d="M386.252,438.39  c8.892,0.908,14.493,6.298,15,15"/>
<path fill-rule="evenodd" clip-rule="evenodd" fill="#C9CAE5" stroke="#000000" stroke-width="0.5" stroke-linecap="square" stroke-miterlimit="10" d="  M517.502,452.64c-3.701,17.524-30.253,19.989-30,0C487.762,432.152,514.33,433.847,517.502,452.64z"/>
<path fill-rule="evenodd" clip-rule="evenodd" fill="#C9CAE5" stroke="#000000" stroke-width="0.5" stroke-linecap="square" stroke-miterlimit="10" d="  M425.252,352.14c-2.8,16.954-28.591,19.322-27.75,0C398.315,333.454,422.176,335.612,425.252,352.14z"/>
</svg>