<svg xmlns="http://www.w3.org/2000/svg" xmlns:xlink="http://www.w3.org/1999/xlink" version="1.1" id="Layer_1" x="0px" y="0px" enable-background="new 0 0 822.05 841.89" xml:space="preserve" viewBox="199 281.05 422 278.9">
<path fill-rule="evenodd" clip-rule="evenodd" fill="#FFFBCE" stroke="#000000" stroke-width="2" stroke-linecap="square" stroke-miterlimit="10" d="  M222.5,414.14c-38.33-60.528,61.347-84.787,99.098-103.982c20.332-10.338,45.518-29.548,69.652-28.018  c23.699,1.502,66.088,23.649,79.5,40.5c41.529,52.18-71.847,100.701-107.766,120.773C298.979,479.181,273.092,457.388,222.5,414.14z  "/>
<path fill="none" stroke="#000000" stroke-width="2" stroke-linecap="square" stroke-miterlimit="10" d="M226.25,358.64  c-11.125,48.896,52.833,92.369,97.875,79.5c45.133-12.896,125.922-58.584,155.625-95.25"/>
<path fill="none" stroke="#000000" stroke-width="2" stroke-linecap="square" stroke-miterlimit="10" d="M415.252,330.89  c-1.396,29.479-114.962,81.988-127.502,51C275.057,350.523,393.655,310.196,415.252,330.89z"/>
<path fill-rule="evenodd" clip-rule="evenodd" fill="#FFFBCE" stroke="#000000" stroke-width="2" stroke-linecap="square" stroke-miterlimit="10" d="  M362.75,504.89c-40.083-59.633,61.729-85.362,98.348-103.982c19.71-10.022,48.45-31.047,72.277-27.643  c22.964,3.28,64.185,23.062,77.625,40.125c41.284,52.41-72.769,100.82-107.766,121.406  C440.489,571.706,411.637,547.366,362.75,504.89z"/>
<path fill="none" stroke="#000000" stroke-width="2" stroke-linecap="square" stroke-miterlimit="10" d="M365.75,449.39  c-6.509,49.145,50.512,93.247,98.625,79.5c46.883-13.395,123.226-58.476,155.625-95.25"/>
<path fill="none" stroke="#000000" stroke-width="2" stroke-linecap="square" stroke-miterlimit="10" d="M555.5,421.64  c-4.065,28.906-114.333,83.119-127.5,51C415.685,442.598,533.638,398.949,555.5,421.64z"/>
<path fill-rule="evenodd" clip-rule="evenodd" fill="#FFFBCE" stroke="#000000" stroke-width="2" stroke-linecap="square" stroke-miterlimit="10" d="  M209,510.89c-39.889-59.042,63.619-85.53,99.098-103.771c63.795-32.798,88.792-32.25,150.652,14.146  c50.852,38.139-85.183,105.807-108.516,119.531C287.455,577.725,258.007,553.574,209,510.89z"/>
<path fill="none" stroke="#000000" stroke-width="2" stroke-linecap="square" stroke-miterlimit="10" d="M212.75,456.14  c-10.179,50.269,52.581,90.167,98.25,78.75c45.813-11.453,125.003-59.019,156-95.25"/>
<path fill="none" stroke="#000000" stroke-width="2" stroke-linecap="square" stroke-miterlimit="10" d="M401.75,427.64  c-0.874,30.907-114.944,81.636-126.75,51C262.92,447.294,380.18,406.758,401.75,427.64z"/>
</svg>