<svg xmlns="http://www.w3.org/2000/svg" xmlns:xlink="http://www.w3.org/1999/xlink" version="1.1" id="Layer_1" x="0px" y="0px" enable-background="new 0 0 822.05 841.89" xml:space="preserve" viewBox="275.07 244.65 266.42 351.59">
<path fill-rule="evenodd" clip-rule="evenodd" fill="#F9CBDF" stroke="#000000" stroke-width="2" stroke-linecap="square" stroke-miterlimit="10" d="  M299.75,267.39c-17.641,12.542-37.62,79.5-10.08,79.5c53.074,0,106.148,0,159.221,0c26.684,0,91.608,15.758,91.608-16.333  c0-15.111-1.422-89.204-36-62.417c10.457-34.215-65.527-18.75-85.66-18.75c-21.285,0-107.679-16.394-96.59,19.5  C313.271,264.041,307.184,266.821,299.75,267.39z"/>
<path fill="none" stroke="#000000" stroke-width="2" stroke-linecap="square" stroke-miterlimit="10" d="M280.25,284.64  c5.56,9.115,14.987,6.234,27.75,6.633c8.091,0.253,3.75,47.595,3.75,57.117"/>
<path fill="none" stroke="#000000" stroke-width="2" stroke-linecap="square" stroke-miterlimit="10" d="M539.75,286.89  c-8.721,6.307-19.188,8.04-29.25,4.5c0,18.25,0,36.5,0,54.75"/>
<path fill="none" stroke="#000000" stroke-width="2" stroke-linecap="square" stroke-miterlimit="10" d="M510.5,322.14  c-38.478,0-76.955,0-115.432,0c-7.067,0-105.996,8.26-82.568-18c10.38-11.635,99.514,0,115.432,0  C447.152,304.14,520.619,289.238,510.5,322.14z"/>
<path fill="none" stroke="#000000" stroke-width="2" stroke-linecap="square" stroke-miterlimit="10" d="M317,304.14  c17.421-7.156,24.303-27.019,5.25-35.25"/>
<path fill="none" stroke="#000000" stroke-width="2" stroke-linecap="square" stroke-miterlimit="10" d="M504.5,268.14  c-18.094,9-16.417,30.78,6,34.5"/>
<line fill="none" stroke="#000000" stroke-width="2" stroke-linecap="square" stroke-miterlimit="10" x1="332" y1="292.89" x2="491" y2="292.89"/>
<line fill="none" stroke="#000000" stroke-width="2" stroke-linecap="square" stroke-miterlimit="10" x1="413" y1="250.89" x2="413" y2="294.39"/>
<line fill="none" stroke="#000000" stroke-width="2" stroke-linecap="square" stroke-miterlimit="10" x1="311.75" y1="291.39" x2="332" y2="274.89"/>
<line fill="none" stroke="#000000" stroke-width="2" stroke-linecap="square" stroke-miterlimit="10" x1="510.5" y1="291.39" x2="498.5" y2="271.89"/>
<path fill-rule="evenodd" clip-rule="evenodd" fill="#F9CBDF" stroke="#000000" stroke-width="2" stroke-linecap="square" stroke-miterlimit="10" d="  M299.75,388.14c-17.641,12.542-37.62,79.5-10.08,79.5c53.074,0,106.148,0,159.221,0c26.684,0,91.608,15.758,91.608-16.333  c0-15.743-1.122-88.388-36-62.417c10.457-34.215-65.527-18.75-85.66-18.75c-21.285,0-107.679-16.394-96.59,19.5  C313.302,384.663,308.029,387.625,299.75,388.14z"/>
<path fill="none" stroke="#000000" stroke-width="2" stroke-linecap="square" stroke-miterlimit="10" d="M280.25,405.39  c5.372,9.414,14.704,6.225,27.75,6.633c8.091,0.253,3.75,47.596,3.75,57.117"/>
<path fill="none" stroke="#000000" stroke-width="2" stroke-linecap="square" stroke-miterlimit="10" d="M539.75,407.64  c-8.447,6.735-19.004,8.083-29.25,4.5c0,18.25,0,36.5,0,54.75"/>
<path fill="none" stroke="#000000" stroke-width="2" stroke-linecap="square" stroke-miterlimit="10" d="M510.5,442.89  c-38.478,0-76.955,0-115.432,0c-7.341,0-104.658,8.316-82.568-17.25c9.902-11.46,99.896,0,115.432,0  C446.589,425.64,520.159,411.098,510.5,442.89z"/>
<path fill="none" stroke="#000000" stroke-width="2" stroke-linecap="square" stroke-miterlimit="10" d="M317,425.64  c17.006-7.748,24.565-27.275,5.25-36"/>
<path fill="none" stroke="#000000" stroke-width="2" stroke-linecap="square" stroke-miterlimit="10" d="M504.5,388.89  c-18.094,9-16.417,30.78,6,34.5"/>
<line fill="none" stroke="#000000" stroke-width="2" stroke-linecap="square" stroke-miterlimit="10" x1="332" y1="413.64" x2="491" y2="413.64"/>
<line fill="none" stroke="#000000" stroke-width="2" stroke-linecap="square" stroke-miterlimit="10" x1="413" y1="371.64" x2="413" y2="415.14"/>
<line fill="none" stroke="#000000" stroke-width="2" stroke-linecap="square" stroke-miterlimit="10" x1="311.75" y1="412.14" x2="332" y2="395.64"/>
<line fill="none" stroke="#000000" stroke-width="2" stroke-linecap="square" stroke-miterlimit="10" x1="510.5" y1="412.14" x2="498.5" y2="393.39"/>
<path fill-rule="evenodd" clip-rule="evenodd" fill="#F9CBDF" stroke="#000000" stroke-width="2" stroke-linecap="square" stroke-miterlimit="10" d="  M299.75,512.64c-17.462,12.444-37.679,78.75-10.08,78.75c53.074,0,106.148,0,159.221,0c26.417,0,91.608,15.654,91.608-16.139  c0-15.512-2.303-89.298-36-61.861c10.457-34.215-65.527-18.75-85.66-18.75c-21.285,0-107.679-16.394-96.59,19.5  C312.807,507.943,307.803,511.394,299.75,512.64z"/>
<path fill="none" stroke="#000000" stroke-width="2" stroke-linecap="square" stroke-miterlimit="10" d="M280.25,529.89  c5.814,9.184,15,6,27.75,6c7.93,0,3.75,47.537,3.75,57"/>
<path fill="none" stroke="#000000" stroke-width="2" stroke-linecap="square" stroke-miterlimit="10" d="M539.75,532.14  c-8.872,6.268-19.363,7.836-29.25,3.75c0,18.5,0,37,0,55.5"/>
<path fill="none" stroke="#000000" stroke-width="2" stroke-linecap="square" stroke-miterlimit="10" d="M510.5,567.39  c-38.478,0-76.955,0-115.432,0c-7.067,0-105.996,8.26-82.568-18c10.38-11.636,99.514,0,115.432,0  C447.152,549.39,520.619,534.488,510.5,567.39z"/>
<path fill="none" stroke="#000000" stroke-width="2" stroke-linecap="square" stroke-miterlimit="10" d="M317,549.39  c17.373-7.136,24.432-27.148,5.25-35.25"/>
<path fill="none" stroke="#000000" stroke-width="2" stroke-linecap="square" stroke-miterlimit="10" d="M504.5,513.39  c-18.274,8.154-15.964,30.158,6,34.5"/>
<line fill="none" stroke="#000000" stroke-width="2" stroke-linecap="square" stroke-miterlimit="10" x1="332" y1="538.14" x2="491" y2="538.14"/>
<line fill="none" stroke="#000000" stroke-width="2" stroke-linecap="square" stroke-miterlimit="10" x1="413" y1="496.14" x2="413" y2="538.89"/>
<line fill="none" stroke="#000000" stroke-width="2" stroke-linecap="square" stroke-miterlimit="10" x1="311.75" y1="535.89" x2="332" y2="520.14"/>
<line fill="none" stroke="#000000" stroke-width="2" stroke-linecap="square" stroke-miterlimit="10" x1="510.5" y1="535.89" x2="498.5" y2="517.14"/>
</svg>