<svg xmlns="http://www.w3.org/2000/svg" xmlns:xlink="http://www.w3.org/1999/xlink" version="1.1" id="Layer_1" x="0px" y="0px" enable-background="new 0 0 822.05 841.89" xml:space="preserve" viewBox="200.32 341.49 418.4 158.9">
<path fill-rule="evenodd" clip-rule="evenodd" fill="#F9CBDF" stroke="#000000" stroke-width="2" stroke-linecap="square" stroke-miterlimit="10" d="  M234.5,371.14c-32.789,28.791-30.75,32.728-30.75,76.5c0,28.121-12.103,49.5,17.757,49.5c84.755,0,169.511,0,254.267,0  c37.545,0,75.091,0,112.636,0c30.98,0,28.591,3.664,28.591-29.082c0-43.499,7.145-63.524-23.333-94.001  c-10.236-10.236-23.586-12.973-33.667-1.417c0-30.506,4.299-30-24.695-30c-38.283,0-76.566,0-114.85,0c-39.692,0-79.384,0-119.077,0  c-33.216,0-31.628-4.164-31.628,30.75C258.352,368.072,244.754,363.697,234.5,371.14z"/>
<path fill="none" stroke="#000000" stroke-width="2" stroke-linecap="square" stroke-miterlimit="10" d="M203.75,398.14  c1.786,17.082,32.198,10.154,46.722,10.444c6.009,0.12,2.778,79.246,2.778,90.806"/>
<path fill="none" stroke="#000000" stroke-width="2" stroke-linecap="square" stroke-miterlimit="10" d="M616.25,402.64  c-13.849,8.83-31.074,13.044-46.5,6c0,29.25,0,58.5,0,87.75"/>
<path fill="none" stroke="#000000" stroke-width="2" stroke-linecap="square" stroke-miterlimit="10" d="M569,458.14  c-57.848,0-115.694,0-173.542,0c-37.375,0-74.75,0-112.124,0c-8.87,0-17.739,0-26.608,0c-3.234,0-4.346-26.125-1.976-28.5  c5.37-5.381,43.95,0,51.173,0c40.79,0,81.579,0,122.369,0c37.374,0,74.749,0,112.124,0C570.639,429.64,569,425.67,569,458.14z"/>
<path fill="none" stroke="#000000" stroke-width="2" stroke-linecap="square" stroke-miterlimit="10" d="M262.25,429.64  c16.686-12.918,45.411-46.018,7.5-56.25"/>
<path fill="none" stroke="#000000" stroke-width="2" stroke-linecap="square" stroke-miterlimit="10" d="M560,372.64  c-10.387,2.341-15.365,10.063-18,20.25c-5.927,22.914,6.846,23.169,27,33.75"/>
<line fill="none" stroke="#000000" stroke-width="2" stroke-linecap="square" stroke-miterlimit="10" x1="285.5" y1="411.64" x2="539" y2="411.64"/>
<line fill="none" stroke="#000000" stroke-width="2" stroke-linecap="square" stroke-miterlimit="10" x1="414.502" y1="344.89" x2="414.502" y2="413.14"/>
<line fill="none" stroke="#000000" stroke-width="2" stroke-linecap="square" stroke-miterlimit="10" x1="253.25" y1="408.64" x2="284.75" y2="382.39"/>
<line fill="none" stroke="#000000" stroke-width="2" stroke-linecap="square" stroke-miterlimit="10" x1="569.75" y1="408.64" x2="550.25" y2="378.64"/>
</svg>