<svg xmlns="http://www.w3.org/2000/svg" xmlns:xlink="http://www.w3.org/1999/xlink" version="1.1" id="Layer_1" x="0px" y="0px" enable-background="new 0 0 822.05 841.89" xml:space="preserve" viewBox="214.09 254.93 393.41 334.25">
<path fill-rule="evenodd" clip-rule="evenodd" fill="#E4BE9D" stroke="#000000" stroke-width="2" stroke-linecap="square" stroke-miterlimit="10" d="  M560.75,375.933c19.716-12.348,21.817,23.306-5.25,19.5C557.16,389.267,557.747,381.521,560.75,375.933z"/>
<path fill-rule="evenodd" clip-rule="evenodd" fill="#6D6F71" stroke="#000000" stroke-width="2" stroke-linecap="square" stroke-miterlimit="10" d="  M476.75,411.183c-7,9.75-14,19.5-21,29.25c22.644,17.771,65.109-65.325,77.021-81.788c15.982-22.088,71.137-75.126,68.479-102.712  C555.338,305.863,516.292,356.008,476.75,411.183z"/>
<path fill-rule="evenodd" clip-rule="evenodd" fill="#007647" stroke="#000000" stroke-width="2" stroke-linecap="square" stroke-miterlimit="10" d="  M475.25,441.933c36.279,26.913,39.632,35.467,62.25-6c0.553,12.738,5.617,22.716,18,16.5c-16.332-36.101-6.618-49.204,4.361-86.944  c4.334-14.899,0.621-27.52-5.861-39.056C502.029,342.767,493.27,395.758,475.25,441.933z"/>
<path fill="none" stroke="#000000" stroke-width="2" stroke-linecap="square" stroke-miterlimit="10" d="M503,381.933  c9.625,1.72,15.998,1.204,21,9.75c7.483-8.768,32.922-39.691,18.75-51C526.269,327.532,506.741,375.458,503,381.933z"/>
<path fill-rule="evenodd" clip-rule="evenodd" fill="#E4BE9D" stroke="#000000" stroke-width="2" stroke-linecap="square" stroke-miterlimit="10" d="  M503,381.933c13.124-1.04,23.632,2.88,15.75,13.5c22.807-0.845,38.373-0.698,52.5-12C578.352,409.39,478.476,428.332,503,381.933z"/>
<path fill-rule="evenodd" clip-rule="evenodd" fill="#007647" stroke="#000000" stroke-width="2" stroke-linecap="square" stroke-miterlimit="10" d="  M555.5,322.683c16.793-7.474,33.171-5.685,51-5.25C589.548,293.424,552.941,267.889,555.5,322.683z"/>
<path fill-rule="evenodd" clip-rule="evenodd" fill="#E4BE9D" stroke="#000000" stroke-width="2" stroke-linecap="square" stroke-miterlimit="10" d="  M565.25,321.183c0.893,37.662,22.656,13.41,32.25-2.25C586.556,316.308,575.479,316.585,565.25,321.183z"/>
<path fill-rule="evenodd" clip-rule="evenodd" fill="#E4BE9D" stroke="#000000" stroke-width="2" stroke-linecap="square" stroke-miterlimit="10" d="  M571.25,342.933c-15.23,1.125-27.517-16.664-6-21.75C567.095,327.87,571.059,336.037,571.25,342.933z"/>
<path fill-rule="evenodd" clip-rule="evenodd" fill="#007647" stroke="#000000" stroke-width="2" stroke-linecap="square" stroke-miterlimit="10" d="  M486.5,453.183c-4.471,20.12-9.896,35.208-18.734,53.834c-4.238,8.93-15.818,53.632,9.5,34.221  c16.174-12.4,27.696-23.606,32.437-44.675C516.601,465.904,513.952,468.668,486.5,453.183z"/>
<path fill-rule="evenodd" clip-rule="evenodd" fill="#007647" stroke="#000000" stroke-width="2" stroke-linecap="square" stroke-miterlimit="10" d="  M519.5,468.933c6.003,14.462,13.583,28.956,17.672,44.086c3.645,13.486,25.278,44.42,29.565,15.702  c3.639-24.381,7.827-36.502-2.612-58.288c-9.332-19.476-25.663-12.328-26.625-34.5C531.5,446.933,525.5,457.933,519.5,468.933z"/>
<path fill-rule="evenodd" clip-rule="evenodd" fill="#6D6F71" d="M460.25,543.933c-9.323,18.033-7.915,44.184,20.25,44.25  c20.319,0.048-12.873-26.729-3-45C470.943,541.377,463.164,542.742,460.25,543.933z"/>
<path fill="none" stroke="#000000" stroke-width="2" stroke-linecap="square" stroke-miterlimit="10" d="M460.25,543.933  c-9.323,18.033-7.915,44.184,20.25,44.25c20.319,0.048-12.873-26.729-3-45c-5.4-0.47-11.945-2.383-17.25-1.5"/>
<path fill-rule="evenodd" clip-rule="evenodd" fill="#6D6F71" stroke="#000000" stroke-width="2" stroke-linecap="square" stroke-miterlimit="10" d="  M543.5,536.433c6.738-0.977,14.926,1.544,21.75,2.25c-15.021,36.078,67.622,38.25-28.5,38.25  C539,563.433,541.25,549.933,543.5,536.433z"/>
<path fill-rule="evenodd" clip-rule="evenodd" fill="#007647" stroke="#000000" stroke-width="2" stroke-linecap="square" stroke-miterlimit="10" d="  M540.5,327.933c-23.114-15.41-59.176-33.49-66.75,8.25c-4.072-3.769-11.065-4.741-15-8.25c-5.462,37.68-2.034,58.134,23.25,87  C499.598,379.287,511.894,355.073,540.5,327.933z"/>
<path fill="none" stroke="#000000" stroke-width="2" stroke-linecap="square" stroke-miterlimit="10" d="M533,336.183  c-30.631-9.05-30.811-13.438-47.25,14.25c-3.777-4.485-9.417-9.032-12-14.25"/>
<path fill-rule="evenodd" clip-rule="evenodd" fill="#E4BE9D" stroke="#000000" stroke-width="2" stroke-linecap="square" stroke-miterlimit="10" d="  M441.5,375.933c19.716-12.348,21.817,23.306-5.25,19.5C437.91,389.267,438.497,381.521,441.5,375.933z"/>
<path fill-rule="evenodd" clip-rule="evenodd" fill="#6D6F71" stroke="#000000" stroke-width="2" stroke-linecap="square" stroke-miterlimit="10" d="  M357.5,411.183c-7,9.75-14,19.5-21,29.25c22.644,17.771,65.109-65.325,77.021-81.788c15.982-22.088,71.137-75.126,68.479-102.712  C436.088,305.863,397.042,356.008,357.5,411.183z"/>
<path fill-rule="evenodd" clip-rule="evenodd" fill="#007647" stroke="#000000" stroke-width="2" stroke-linecap="square" stroke-miterlimit="10" d="  M356,441.933c35.905,27.467,39.83,35.104,62.25-6c0.553,12.738,5.617,22.716,18,16.5c-16.332-36.101-6.618-49.204,4.361-86.944  c4.334-14.899,0.621-27.52-5.861-39.056C382.779,342.767,374.02,395.758,356,441.933z"/>
<path fill="none" stroke="#000000" stroke-width="2" stroke-linecap="square" stroke-miterlimit="10" d="M383.75,381.933  c9.494,1.772,15.903,1.412,21,9.75c7.582-8.882,33.432-40.268,18-51C405.932,328.986,388.007,374.565,383.75,381.933z"/>
<path fill-rule="evenodd" clip-rule="evenodd" fill="#E4BE9D" stroke="#000000" stroke-width="2" stroke-linecap="square" stroke-miterlimit="10" d="  M383.75,381.933c13.124-1.04,23.632,2.88,15.75,13.5c22.807-0.845,38.373-0.698,52.5-12  C459.102,409.39,359.225,428.332,383.75,381.933z"/>
<path fill-rule="evenodd" clip-rule="evenodd" fill="#007647" stroke="#000000" stroke-width="2" stroke-linecap="square" stroke-miterlimit="10" d="  M436.25,322.683c16.793-7.474,33.171-5.685,51-5.25C470.298,293.424,433.691,267.889,436.25,322.683z"/>
<path fill-rule="evenodd" clip-rule="evenodd" fill="#E4BE9D" stroke="#000000" stroke-width="2" stroke-linecap="square" stroke-miterlimit="10" d="  M446,321.183c1.416,37.434,22.427,13.784,32.25-2.25C467.306,316.308,456.229,316.585,446,321.183z"/>
<path fill-rule="evenodd" clip-rule="evenodd" fill="#E4BE9D" stroke="#000000" stroke-width="2" stroke-linecap="square" stroke-miterlimit="10" d="  M452,342.933c-15.23,1.125-27.517-16.664-6-21.75C447.845,327.87,451.809,336.037,452,342.933z"/>
<path fill-rule="evenodd" clip-rule="evenodd" fill="#007647" stroke="#000000" stroke-width="2" stroke-linecap="square" stroke-miterlimit="10" d="  M367.25,453.183c-4.471,20.12-9.895,35.208-18.735,53.834c-4.238,8.93-15.818,53.632,9.5,34.221  c16.702-12.805,26.412-23.267,31.764-44.675C397.451,465.88,394.848,468.751,367.25,453.183z"/>
<path fill-rule="evenodd" clip-rule="evenodd" fill="#007647" stroke="#000000" stroke-width="2" stroke-linecap="square" stroke-miterlimit="10" d="  M400.25,468.933c6.003,14.462,13.583,28.956,17.672,44.086c3.645,13.486,25.278,44.42,29.565,15.702  c3.639-24.381,7.827-36.502-2.612-58.288c-9.332-19.476-25.663-12.328-26.625-34.5C412.25,446.933,406.25,457.933,400.25,468.933z"/>
<path fill-rule="evenodd" clip-rule="evenodd" fill="#6D6F71" d="M341,543.933c-9.229,17.85-7.955,44.517,20.25,44.25  c20.033-0.189-12.833-26.802-3-45C351.693,541.377,343.914,542.742,341,543.933z"/>
<path fill="none" stroke="#000000" stroke-width="2" stroke-linecap="square" stroke-miterlimit="10" d="M341,543.933  c-9.229,17.85-7.955,44.517,20.25,44.25c20.033-0.189-12.833-26.802-3-45c-5.4-0.47-11.945-2.383-17.25-1.5"/>
<path fill-rule="evenodd" clip-rule="evenodd" fill="#6D6F71" stroke="#000000" stroke-width="2" stroke-linecap="square" stroke-miterlimit="10" d="  M424.25,536.433c6.738-0.977,14.926,1.544,21.75,2.25c-15.021,36.078,67.622,38.25-28.5,38.25  C419.75,563.433,422,549.933,424.25,536.433z"/>
<path fill-rule="evenodd" clip-rule="evenodd" fill="#007647" stroke="#000000" stroke-width="2" stroke-linecap="square" stroke-miterlimit="10" d="  M421.25,327.933c-23.115-15.41-59.176-33.49-66.75,8.25c-4.072-3.769-11.065-4.741-15-8.25c-5.462,37.68-2.034,58.134,23.25,87  C380.348,379.287,392.644,355.073,421.25,327.933z"/>
<path fill="none" stroke="#000000" stroke-width="2" stroke-linecap="square" stroke-miterlimit="10" d="M413.752,336.183  c-30.632-9.05-30.812-13.438-47.252,14.25c-3.777-4.485-9.417-9.032-12-14.25"/>
<path fill-rule="evenodd" clip-rule="evenodd" fill="#E4BE9D" stroke="#000000" stroke-width="2" stroke-linecap="square" stroke-miterlimit="10" d="  M320.75,375.933c19.715-12.348,21.817,23.306-5.25,19.5C317.16,389.267,317.747,381.521,320.75,375.933z"/>
<path fill-rule="evenodd" clip-rule="evenodd" fill="#6D6F71" stroke="#000000" stroke-width="2" stroke-linecap="square" stroke-miterlimit="10" d="  M236.75,411.183c-7,9.75-14,19.5-21,29.25c22.644,17.771,65.109-65.325,77.021-81.788c15.982-22.088,71.137-75.126,68.479-102.712  C315.338,305.863,276.292,356.008,236.75,411.183z"/>
<path fill-rule="evenodd" clip-rule="evenodd" fill="#007647" stroke="#000000" stroke-width="2" stroke-linecap="square" stroke-miterlimit="10" d="  M235.25,441.933c36.279,26.913,39.632,35.467,62.25-6c0.553,12.738,5.617,22.716,18,16.5c-15.533-34.336-8.166-43.882,2.139-79.306  c5.212-17.917,5.375-32.152-3.639-46.694C262.029,342.767,253.27,395.758,235.25,441.933z"/>
<path fill="none" stroke="#000000" stroke-width="2" stroke-linecap="square" stroke-miterlimit="10" d="M263,381.933  c9.625,1.72,15.998,1.204,21,9.75c7.565-8.862,33.328-39.505,18.75-51C286.181,327.618,266.801,375.354,263,381.933z"/>
<path fill-rule="evenodd" clip-rule="evenodd" fill="#E4BE9D" stroke="#000000" stroke-width="2" stroke-linecap="square" stroke-miterlimit="10" d="  M263,381.933c12.96-1.121,23.759,2.671,15.75,13.5c22.806-0.845,38.373-0.698,52.5-12C338.352,409.39,238.475,428.332,263,381.933z"/>
<path fill-rule="evenodd" clip-rule="evenodd" fill="#007647" stroke="#000000" stroke-width="2" stroke-linecap="square" stroke-miterlimit="10" d="  M315.5,322.683c16.793-7.474,33.171-5.685,51-5.25C349.538,293.409,312.944,267.948,315.5,322.683z"/>
<path fill-rule="evenodd" clip-rule="evenodd" fill="#E4BE9D" stroke="#000000" stroke-width="2" stroke-linecap="square" stroke-miterlimit="10" d="  M325.25,321.183c0.893,37.662,22.656,13.41,32.25-2.25C346.556,316.308,335.479,316.585,325.25,321.183z"/>
<path fill-rule="evenodd" clip-rule="evenodd" fill="#E4BE9D" stroke="#000000" stroke-width="2" stroke-linecap="square" stroke-miterlimit="10" d="  M331.25,342.933c-15.23,1.125-27.517-16.664-6-21.75C327.095,327.87,331.059,336.037,331.25,342.933z"/>
<path fill-rule="evenodd" clip-rule="evenodd" fill="#007647" stroke="#000000" stroke-width="2" stroke-linecap="square" stroke-miterlimit="10" d="  M246.5,453.183c-4.471,20.12-9.895,35.208-18.735,53.834c-4.237,8.93-15.818,53.632,9.5,34.221  c16.174-12.4,27.696-23.606,32.437-44.675C276.601,465.904,273.952,468.668,246.5,453.183z"/>
<path fill-rule="evenodd" clip-rule="evenodd" fill="#007647" stroke="#000000" stroke-width="2" stroke-linecap="square" stroke-miterlimit="10" d="  M279.5,468.933c6.003,14.462,13.583,28.956,17.672,44.086c3.645,13.486,25.279,44.42,29.565,15.702  c3.639-24.381,7.827-36.502-2.612-58.288c-9.332-19.476-25.663-12.328-26.625-34.5C291.5,446.933,285.5,457.933,279.5,468.933z"/>
<path fill-rule="evenodd" clip-rule="evenodd" fill="#6D6F71" d="M220.25,543.933c-9.323,18.033-7.916,44.184,20.25,44.25  c20.319,0.048-12.873-26.729-3-45C230.943,541.377,223.164,542.742,220.25,543.933z"/>
<path fill="none" stroke="#000000" stroke-width="2" stroke-linecap="square" stroke-miterlimit="10" d="M220.25,543.933  c-9.323,18.033-7.916,44.184,20.25,44.25c20.319,0.048-12.873-26.729-3-45c-5.4-0.47-11.945-2.383-17.25-1.5"/>
<path fill-rule="evenodd" clip-rule="evenodd" fill="#6D6F71" stroke="#000000" stroke-width="2" stroke-linecap="square" stroke-miterlimit="10" d="  M303.5,536.433c6.738-0.977,14.926,1.544,21.75,2.25c-15.021,36.078,67.622,38.25-28.5,38.25  C299,563.433,301.25,549.933,303.5,536.433z"/>
<path fill-rule="evenodd" clip-rule="evenodd" fill="#007647" stroke="#000000" stroke-width="2" stroke-linecap="square" stroke-miterlimit="10" d="  M300.5,327.933c-23.115-15.41-59.176-33.49-66.75,8.25c-4.072-3.769-11.065-4.741-15-8.25c-5.416,37.362-2.578,59.116,24,87  C260.025,379.02,271.829,355.134,300.5,327.933z"/>
<path fill="none" stroke="#000000" stroke-width="2" stroke-linecap="square" stroke-miterlimit="10" d="M293,336.183  c-30.631-9.05-30.811-13.438-47.25,14.25c-3.777-4.485-9.417-9.032-12-14.25"/>
</svg>