<svg xmlns="http://www.w3.org/2000/svg" xmlns:xlink="http://www.w3.org/1999/xlink" version="1.1" id="Layer_1" x="0px" y="0px" enable-background="new 0 0 822.05 841.89" xml:space="preserve" viewBox="205.13 278.04 408.28 285.12">
<path fill-rule="evenodd" clip-rule="evenodd" fill="#DEDFE0" stroke="#000000" stroke-width="2" stroke-linecap="square" stroke-miterlimit="10" d="  M612.25,340.654c6.425,61.765-186.411,125.178-214.125,69.75C372.143,358.439,579.601,282.126,612.25,340.654z"/>
<path fill-rule="evenodd" clip-rule="evenodd" fill="#DFF3FD" stroke="#000000" stroke-width="2" stroke-linecap="square" stroke-miterlimit="10" d="  M445.75,366.904c24.398,6.153,52.399,3.542,73.875-10.125c38.892-24.749,15.771-47.61-15.75-68.625  C449.643,251.999,442.829,332.821,445.75,366.904z"/>
<path fill-rule="evenodd" clip-rule="evenodd" fill="#DEDFE0" stroke="#000000" stroke-width="2" stroke-linecap="square" stroke-miterlimit="10" d="  M489.25,423.152c20.844-3.832,43.134-8.872,60.75-20.998C546.874,435.756,513.529,438.349,489.25,423.152z"/>
<path fill-rule="evenodd" clip-rule="evenodd" fill="#DEDFE0" stroke="#000000" stroke-width="2" stroke-linecap="square" stroke-miterlimit="10" d="  M421.75,413.404c10.785,62.022-196.56,124.697-214.5,67.498C189.144,423.173,395.368,356.371,421.75,413.404z"/>
<path fill-rule="evenodd" clip-rule="evenodd" fill="#DFF3FD" stroke="#000000" stroke-width="2" stroke-linecap="square" stroke-miterlimit="10" d="  M256,438.902c22.547,6.086,48.916,4.66,69.75-6.75c39.862-21.83,24.874-49.301-9-69.748C260.255,328.302,252.373,397.05,256,438.902  z"/>
<path fill-rule="evenodd" clip-rule="evenodd" fill="#DEDFE0" stroke="#000000" stroke-width="2" stroke-linecap="square" stroke-miterlimit="10" d="  M299.5,495.902c21.122-5.096,41.929-9.683,60.75-21C355.417,508.329,324.648,509.724,299.5,495.902z"/>
<path fill-rule="evenodd" clip-rule="evenodd" fill="#DEDFE0" stroke="#000000" stroke-width="2" stroke-linecap="square" stroke-miterlimit="10" d="  M598,471.152c6.407,61.603-186.439,125.121-214.125,69.75C357.742,488.636,565.416,412.741,598,471.152z"/>
<path fill-rule="evenodd" clip-rule="evenodd" fill="#DFF3FD" stroke="#000000" stroke-width="2" stroke-linecap="square" stroke-miterlimit="10" d="  M431.5,497.402c24.398,6.153,52.399,3.541,73.875-10.125c39.053-24.852,15.632-47.702-15.75-68.623  C435.165,382.347,428.575,463.116,431.5,497.402z"/>
<path fill-rule="evenodd" clip-rule="evenodd" fill="#DEDFE0" stroke="#000000" stroke-width="2" stroke-linecap="square" stroke-miterlimit="10" d="  M475,553.652c20.844-3.836,43.133-8.873,60.75-21C532.143,567.165,499.909,567.409,475,553.652z"/>
</svg>