<svg xmlns="http://www.w3.org/2000/svg" xmlns:xlink="http://www.w3.org/1999/xlink" version="1.1" id="Layer_1" x="0px" y="0px" enable-background="new 0 0 822.05 841.89" xml:space="preserve" viewBox="196.51 271.73 424.14 297">
<path fill-rule="evenodd" clip-rule="evenodd" fill="#DEDFE0" stroke="#000000" stroke-width="2" stroke-linecap="square" stroke-miterlimit="10" d="  M618.02,391.89c19.056,73.94-134.089,129.353-183,144.75c-57.081,17.97-192.651,54.168-232.127-11.625  c-38.761-64.602,143.386-133.094,179.227-145.453C430.81,362.772,591.099,319.79,618.02,391.89z"/>
<path fill-rule="evenodd" clip-rule="evenodd" fill="#DFF3FD" stroke="#000000" stroke-width="2" stroke-linecap="square" stroke-miterlimit="10" d="  M296.268,442.14c47.515,11.192,101.107,7.966,143.252-18.75c12.151-7.703,51.455-37.253,51-53.25  c-0.502-17.65-47.982-54.688-60.639-64.972c-27.189-22.091-69.667-47.536-102.488-21.278  C287.285,315.976,293.099,397.453,296.268,442.14z"/>
<path fill-rule="evenodd" clip-rule="evenodd" fill="#DEDFE0" stroke="#000000" stroke-width="2" stroke-linecap="square" stroke-miterlimit="10" d="  M381.018,551.64c39.907-9.014,82.546-17.133,117.002-40.5C493.527,579.998,426.386,575.973,381.018,551.64z"/>
</svg>