<svg xmlns="http://www.w3.org/2000/svg" xmlns:xlink="http://www.w3.org/1999/xlink" version="1.1" id="Layer_1" x="0px" y="0px" enable-background="new 0 0 822.05 841.89" xml:space="preserve" viewBox="215.86 249.98 389.02 345.5">
<path fill-rule="evenodd" clip-rule="evenodd" fill="#6D6F71" stroke="#000000" stroke-width="2" stroke-linecap="square" stroke-miterlimit="10" d="  M280.75,441.476c17.75,0,35.5,0,53.25,0c-14.944-17.066-21.57-41.356-18-63.75c19.164,25.646,64.049,54.286,79.5,9  c19.724-57.809-72.183-88.24-87.75-135c-19.092,32.681-106.319,86.329-88.5,130.875c15.952,39.88,63.338,30.912,79.5-4.875  C302.661,399.861,298.698,426.27,280.75,441.476z"/>
<path fill-rule="evenodd" clip-rule="evenodd" fill="#6D6F71" stroke="#000000" stroke-width="2" stroke-linecap="square" stroke-miterlimit="10" d="  M486.25,440.726c17.75,0,35.5,0,53.25,0c-15.763-18.002-20.826-41.178-18-64.5c17.812,27.267,63.957,54.742,79.5,9.75  c20.577-59.567-75.429-86.354-87.75-135c-23.651,38.89-99.297,78.767-88.875,130.875c9.14,45.699,66.671,25.046,79.875-5.625  C507.002,399.477,504.247,424.122,486.25,440.726z"/>
<path fill-rule="evenodd" clip-rule="evenodd" fill="#6D6F71" stroke="#000000" stroke-width="2" stroke-linecap="square" stroke-miterlimit="10" d="  M380.5,594.476c17.75,0,35.5,0,53.25,0c-15.808-17.49-20.869-40.831-18-63.75c18.469,26.675,69.219,55.264,80.25,5.625  c13.44-60.481-75.688-81.046-88.5-131.625c-21.772,42.017-99.752,76.487-88.875,130.875c9.073,45.364,66.224,25.352,79.875-4.875  C401.322,553.715,398.254,578.095,380.5,594.476z"/>
</svg>