<svg xmlns="http://www.w3.org/2000/svg" xmlns:xlink="http://www.w3.org/1999/xlink" version="1.1" id="Layer_1" x="0px" y="0px" enable-background="new 0 0 822.05 841.89" xml:space="preserve" viewBox="202 251.44 416 340.59">
<path fill-rule="evenodd" clip-rule="evenodd" fill="#DFF3FD" stroke="#000000" stroke-width="2" stroke-linecap="square" stroke-miterlimit="10" d="  M617.006,348.643c-6.17,126.841-198.228,128.27-198.75,0C417.73,219.788,611.863,220.97,617.006,348.643z"/>
<path fill-rule="evenodd" clip-rule="evenodd" fill="#DFF3FD" stroke="#000000" stroke-width="2" stroke-linecap="square" stroke-miterlimit="10" d="  M578.756,349.393c-3.461,78.59-123.014,79.311-123,0C455.77,269.938,574.574,270.966,578.756,349.393z"/>
<path fill-rule="evenodd" clip-rule="evenodd" fill="#FFDB78" stroke="#000000" stroke-linecap="square" stroke-miterlimit="10" d="  M444.506,320.143c-19.097,8.075-7.986,34.931-0.75,48c7.771,14.034,33.007,29.471,50.25,35.25  c41.809,14.013,73.014-15.198,101.25-36.375c10.172-7.629,1.566-39.053-3.75-47.625c-16.761-27.023-37.888-29.552-63-28.5  c-20.553,0.86-27.258,10.281-42.75,13.5C471.274,307.402,448.706,292.784,444.506,320.143z"/>
<path fill="none" stroke="#000000" stroke-linecap="square" stroke-miterlimit="10" d="M445.256,318.643  c43.323-3.776,54.786,52.952-1.5,45.75"/>
<path fill="none" stroke="#000000" stroke-linecap="square" stroke-miterlimit="10" d="M440.006,322.393  c43.356-5.34,50.833,49.829,4.5,38.25"/>
<path fill="none" stroke="#000000" stroke-linecap="square" stroke-miterlimit="10" d="M435.506,326.893  c40.25-12.436,49.098,46.233,5.25,30"/>
<path fill="none" stroke="#000000" stroke-linecap="square" stroke-miterlimit="10" d="M446.006,313.393  c49.068-4.373,59.362,64.367-3,56.25"/>
<path fill="none" stroke="#000000" stroke-linecap="square" stroke-miterlimit="10" d="M526.256,345.643  c24.354-27.664,44.141,18.202,35.25,39.75"/>
<path fill="none" stroke="#000000" stroke-linecap="square" stroke-miterlimit="10" d="M530.006,347.893  c23.008-21.814,32.867,20.364,30,36.75"/>
<path fill="none" stroke="#000000" stroke-linecap="square" stroke-miterlimit="10" d="M490.256,350.143  c10.126-7.171,33.075-13.406,40.5,1.5c9.312,18.698-21.733,35.315-24,51.75"/>
<path fill="none" stroke="#000000" stroke-linecap="square" stroke-miterlimit="10" d="M491.006,353.893  c8.467-6.857,28.175-13.21,35.25-0.75c8.655,15.243-21.188,34.779-24.75,49.5"/>
<path fill="none" stroke="#000000" stroke-linecap="square" stroke-miterlimit="10" d="M489.506,357.643  c8.926-7.445,29.334-13.026,34.5,1.5c2.984,8.393-24.027,33.121-27,43.5"/>
<path fill="none" stroke="#000000" stroke-linecap="square" stroke-miterlimit="10" d="M482.756,363.643  c7.156-4.604,28.299-15.516,34.5-5.25c2.946,4.878-23.628,33.248-24.75,44.25"/>
<path fill="none" stroke="#000000" stroke-linecap="square" stroke-miterlimit="10" d="M478.256,364.393  c43.218-16.203,21.309,13.013,6.75,35.25"/>
<path fill="none" stroke="#000000" stroke-linecap="square" stroke-miterlimit="10" d="M465.506,369.643  c21.188-6.434,33.898,10.007,15.75,25.5"/>
<path fill="none" stroke="#000000" stroke-linecap="square" stroke-miterlimit="10" d="M455.756,370.393  c15.234-2.428,38.242,4.491,22.5,21.75"/>
<path fill="none" stroke="#000000" stroke-linecap="square" stroke-miterlimit="10" d="M443.756,373.393  c12.127,2.186,36.041,3.051,30,16.5"/>
<path fill="none" stroke="#000000" stroke-linecap="square" stroke-miterlimit="10" d="M530.756,350.143  c29.633-16.074,25.078,38.446,16.5,52.5"/>
<path fill="none" stroke="#000000" stroke-linecap="square" stroke-miterlimit="10" d="M533.006,353.143  c26.639-6.756,18.491,39.929,4.5,50.25"/>
<path fill="none" stroke="#000000" stroke-linecap="square" stroke-miterlimit="10" d="M532.256,357.643  c26.52-4.782,9.987,40.86-5.25,47.25"/>
<path fill="none" stroke="#000000" stroke-linecap="square" stroke-miterlimit="10" d="M532.256,360.643  c25.96,2.177,0.223,40.691-16.5,44.25"/>
<path fill="none" stroke="#000000" stroke-linecap="square" stroke-miterlimit="10" d="M532.256,365.143  c19.869,16.688-10.887,31.667-24.75,36.75"/>
<path fill="none" stroke="#000000" stroke-linecap="square" stroke-miterlimit="10" d="M527.756,372.643  c3.291,12.675-5.308,21.498-18,22.5"/>
<path fill="none" stroke="#000000" stroke-linecap="square" stroke-miterlimit="10" d="M454.256,305.143  c16.523,11.016,35.674,21.293,46.5,38.25"/>
<path fill="none" stroke="#000000" stroke-linecap="square" stroke-miterlimit="10" d="M461.756,302.143  c15.438,12.028,33.439,22.567,43.5,39.75"/>
<path fill="none" stroke="#000000" stroke-linecap="square" stroke-miterlimit="10" d="M480.506,306.643  c10.846,11.367,22.939,20.722,30.75,34.5"/>
<path fill="none" stroke="#000000" stroke-linecap="square" stroke-miterlimit="10" d="M486.506,305.143  c27.174,34.48,68.147,45.068,82.5-6.75"/>
<path fill="none" stroke="#000000" stroke-linecap="square" stroke-miterlimit="10" d="M488.756,299.893  c19.047,27.964,75.719,50.296,75-5.25"/>
<path fill="none" stroke="#000000" stroke-linecap="square" stroke-miterlimit="10" d="M494.756,298.393  c17.279,25.943,64.125,39.612,65.25-5.25"/>
<path fill="none" stroke="#000000" stroke-linecap="square" stroke-miterlimit="10" d="M499.256,295.393  c15.023,22.338,57.39,34.883,57-4.5"/>
<path fill="none" stroke="#000000" stroke-linecap="square" stroke-miterlimit="10" d="M504.506,291.643  c12.32,20.167,48.036,32.902,47.25-3"/>
<path fill="none" stroke="#000000" stroke-linecap="square" stroke-miterlimit="10" d="M513.506,292.393  c10.669,13.833,27.668,12.164,33.75-4.5"/>
<path fill="none" stroke="#000000" stroke-linecap="square" stroke-miterlimit="10" d="M567.506,307.393  c25.834,23.169,33.671,56.209-3,72.75"/>
<path fill="none" stroke="#000000" stroke-linecap="square" stroke-miterlimit="10" d="M565.256,311.143  c19.489,18.034,34.309,49.76,0.75,62.25"/>
<path fill="none" stroke="#000000" stroke-linecap="square" stroke-miterlimit="10" d="M563.006,315.643  c15.316,13.561,30.73,43.585,2.25,52.5"/>
<path fill="none" stroke="#000000" stroke-linecap="square" stroke-miterlimit="10" d="M560.006,320.143  c11.961,10.812,26.966,34.801,4.5,42.75"/>
<path fill="none" stroke="#000000" stroke-linecap="square" stroke-miterlimit="10" d="M557.006,323.893  c10.869,8.184,20.982,23.874,6,32.25"/>
<path fill="none" stroke="#000000" stroke-linecap="square" stroke-miterlimit="10" d="M553.256,326.893  c9.806,6.472,15.76,16.607,8.25,25.5"/>
<path fill="none" stroke="#000000" stroke-linecap="square" stroke-miterlimit="10" d="M550.256,329.893  c6.867,3.438,9.949,8.859,7.5,15.75"/>
<path fill-rule="evenodd" clip-rule="evenodd" fill="#C4262D" stroke="#000000" stroke-width="2" stroke-linecap="square" stroke-miterlimit="10" d="  M479.006,323.893c-0.504-8.566,41.655-13.874,56.25-12c4.842,0.622,31.246,12.744,35.25,18.75  c5.473,8.208-10.195,24.739-12.75,31.125C540.189,405.685,452.961,347.064,479.006,323.893z"/>
<path fill-rule="evenodd" clip-rule="evenodd" fill="#DFF3FD" stroke="#000000" stroke-width="2" stroke-linecap="square" stroke-miterlimit="10" d="  M401.752,348.643c6.751,126.986-198.297,128.103-198.75,0C202.546,219.723,409.204,221.045,401.752,348.643z"/>
<path fill-rule="evenodd" clip-rule="evenodd" fill="#DFF3FD" stroke="#000000" stroke-width="2" stroke-linecap="square" stroke-miterlimit="10" d="  M363.502,349.393c3.407,78.936-122.253,78.98-122.25,0C241.255,270.48,366.299,270.351,363.502,349.393z"/>
<path fill-rule="evenodd" clip-rule="evenodd" fill="#FFDB78" stroke="#000000" stroke-linecap="square" stroke-miterlimit="10" d="  M230.002,320.143c-24.484,10.126-0.75,33.282-0.75,49.875c0,10.156,38.371,28.923,47.625,32.625  c12.021,4.809,45.414,5.27,58.125-0.75c10.868-5.147,6.488-14.935,15.75-17.25c6.707-1.677,21.738-9.676,25.5-14.25  c32.661-39.708-26.405-81.014-62.25-79.5c-21.465,0.906-27.815,9.701-42.75,13.5C256.771,308.077,234.271,292.332,230.002,320.143z"/>
<path fill="none" stroke="#000000" stroke-linecap="square" stroke-miterlimit="10" d="M230.002,318.643  c43.197-4.339,55.857,52.974-1.5,45.75"/>
<path fill="none" stroke="#000000" stroke-linecap="square" stroke-miterlimit="10" d="M225.502,322.393  c44.367-5.138,49.752,49.669,4.5,38.25"/>
<path fill="none" stroke="#000000" stroke-linecap="square" stroke-miterlimit="10" d="M220.252,326.893  c40.636-11.54,50.235,45.185,6,30"/>
<path fill="none" stroke="#000000" stroke-linecap="square" stroke-miterlimit="10" d="M230.752,313.393  c48.909-4.848,60.987,64.296-2.25,56.25"/>
<path fill="none" stroke="#000000" stroke-linecap="square" stroke-miterlimit="10" d="M311.002,345.643  c25.617-26.783,45.228,17.385,36,39.75"/>
<path fill="none" stroke="#000000" stroke-linecap="square" stroke-miterlimit="10" d="M315.502,347.893  c23.166-22.197,32.062,20.84,30,36.75"/>
<path fill="none" stroke="#000000" stroke-linecap="square" stroke-miterlimit="10" d="M275.752,350.143  c10.449-7.4,32.206-13.26,39.75,1.5c9.621,18.823-21.779,34.567-23.25,51.75"/>
<path fill="none" stroke="#000000" stroke-linecap="square" stroke-miterlimit="10" d="M276.502,353.893  c8.425-6.968,27.986-13.196,35.25-0.75c8.799,15.077-21.264,35.089-24.75,49.5"/>
<path fill="none" stroke="#000000" stroke-linecap="square" stroke-miterlimit="10" d="M274.252,357.643  c10.279-7.956,31.665-13.046,34.5,3.75c1.569,9.296-23.572,30.282-26.25,41.25"/>
<path fill="none" stroke="#000000" stroke-linecap="square" stroke-miterlimit="10" d="M268.252,363.643  c7.156-4.604,28.299-15.516,34.5-5.25c3.384,5.603-24.436,32.472-24.75,44.25"/>
<path fill="none" stroke="#000000" stroke-linecap="square" stroke-miterlimit="10" d="M263.002,364.393  c9.306-3.358,19.596-4.718,29.25-3.75c-4.882,13.987-13.885,26.801-22.5,39"/>
<path fill="none" stroke="#000000" stroke-linecap="square" stroke-miterlimit="10" d="M251.002,369.643  c21.268-6.416,33.276,9.934,15.75,25.5"/>
<path fill="none" stroke="#000000" stroke-linecap="square" stroke-miterlimit="10" d="M240.502,370.393  c15.938-2.581,37.837,3.789,23.25,21.75"/>
<path fill="none" stroke="#000000" stroke-linecap="square" stroke-miterlimit="10" d="M229.252,373.393  c11.895,2.144,35.436,2.661,30,16.5"/>
<path fill="none" stroke="#000000" stroke-linecap="square" stroke-miterlimit="10" d="M316.252,350.143  c29.781-16.196,24.646,38.738,15.75,52.5"/>
<path fill="none" stroke="#000000" stroke-linecap="square" stroke-miterlimit="10" d="M317.752,353.143  c27.078-7.506,20.083,40.155,4.5,50.25"/>
<path fill="none" stroke="#000000" stroke-linecap="square" stroke-miterlimit="10" d="M317.752,357.643  c26.635-4.803,9.879,41.29-6,47.25"/>
<path fill="none" stroke="#000000" stroke-linecap="square" stroke-miterlimit="10" d="M317.752,360.643  c25.997,2.438-0.279,40.785-16.5,44.25"/>
<path fill="none" stroke="#000000" stroke-linecap="square" stroke-miterlimit="10" d="M317.002,365.143  c20.881,15.875-10.371,31.568-24,36.75"/>
<path fill="none" stroke="#000000" stroke-linecap="square" stroke-miterlimit="10" d="M312.502,372.643  c4.185,12.362-4.432,21.389-17.25,22.5"/>
<path fill="none" stroke="#000000" stroke-linecap="square" stroke-miterlimit="10" d="M239.002,305.143  c16.581,9.891,37.015,20.863,46.5,38.25"/>
<path fill="none" stroke="#000000" stroke-linecap="square" stroke-miterlimit="10" d="M246.502,302.143  c14.841,11.576,35.555,22.317,43.5,39.75"/>
<path fill="none" stroke="#000000" stroke-linecap="square" stroke-miterlimit="10" d="M266.002,306.643  c10.707,11.221,23.419,20.577,30,34.5"/>
<path fill="none" stroke="#000000" stroke-linecap="square" stroke-miterlimit="10" d="M272.002,305.143  c27.493,36.69,66.498,43.257,82.5-6.75"/>
<path fill="none" stroke="#000000" stroke-linecap="square" stroke-miterlimit="10" d="M274.252,299.893  c20.184,32.094,70.732,47.359,75-5.25"/>
<path fill="none" stroke="#000000" stroke-linecap="square" stroke-miterlimit="10" d="M280.252,298.393  c17.394,27.701,62.07,38.346,65.25-5.25"/>
<path fill="none" stroke="#000000" stroke-linecap="square" stroke-miterlimit="10" d="M284.752,295.393  c13.994,21.682,58.946,35.544,56.25-4.5"/>
<path fill="none" stroke="#000000" stroke-linecap="square" stroke-miterlimit="10" d="M290.002,291.643  c11.802,20.667,48.237,32.72,47.25-3"/>
<path fill="none" stroke="#000000" stroke-linecap="square" stroke-miterlimit="10" d="M299.002,292.393  c10.433,13.526,27.867,12.646,33-4.5"/>
<path fill="none" stroke="#000000" stroke-linecap="square" stroke-miterlimit="10" d="M352.252,307.393  c27.294,22.01,33.629,56.566-2.25,72.75"/>
<path fill="none" stroke="#000000" stroke-linecap="square" stroke-miterlimit="10" d="M350.752,311.143  c18.73,17.332,34.501,50.621,0.75,62.25"/>
<path fill="none" stroke="#000000" stroke-linecap="square" stroke-miterlimit="10" d="M348.502,315.643  c14.776,14.291,30.609,42.708,2.25,52.5"/>
<path fill="none" stroke="#000000" stroke-linecap="square" stroke-miterlimit="10" d="M345.502,320.143  c11.252,11.193,27.221,35.623,3.75,42.75"/>
<path fill="none" stroke="#000000" stroke-linecap="square" stroke-miterlimit="10" d="M342.502,323.893  c11.218,8.589,19.167,22.736,6,32.25"/>
<path fill="none" stroke="#000000" stroke-linecap="square" stroke-miterlimit="10" d="M338.752,326.893  c9.362,7.057,15.233,16.794,7.5,25.5"/>
<path fill="none" stroke="#000000" stroke-linecap="square" stroke-miterlimit="10" d="M335.752,329.893  c6.945,3.723,9.958,9.251,6.75,15.75"/>
<path fill-rule="evenodd" clip-rule="evenodd" fill="#C4262D" stroke="#000000" stroke-width="2" stroke-linecap="square" stroke-miterlimit="10" d="  M263.752,323.893c0.053-7.865,40.621-14.235,55.5-12.75c4.194,0.418,28.385,11.758,33.375,15.75  c14.675,11.74-8.625,21.399-8.625,29.625c0,34.147-49.196,8.564-58.875,10.5C273.694,369.305,254.678,332.692,263.752,323.893z"/>
<path fill-rule="evenodd" clip-rule="evenodd" fill="#DFF3FD" stroke="#000000" stroke-width="2" stroke-linecap="square" stroke-miterlimit="10" d="  M510.506,494.893c-4.188,127.82-198.754,128.564-198.754,0C311.752,366.259,506.315,367.003,510.506,494.893z"/>
<path fill-rule="evenodd" clip-rule="evenodd" fill="#DFF3FD" stroke="#000000" stroke-width="2" stroke-linecap="square" stroke-miterlimit="10" d="  M472.256,495.643c5.551,78.438-122.546,79.699-122.254,0C350.292,416.781,476.433,417.447,472.256,495.643z"/>
<path fill-rule="evenodd" clip-rule="evenodd" fill="#FFDB78" stroke="#000000" stroke-linecap="square" stroke-miterlimit="10" d="  M338.752,466.393c-19.553,7.797-8.233,37.16-1.5,48.75c9.714,16.722,31.207,23.824,48.375,34.125  c9.426,5.655,46.996,4.622,57.379-0.375c10.555-5.08,7.354-16.051,16.125-18c6.979-1.551,22.018-9.48,25.875-14.25  c10.531-13.023,9.694-34.843,1.125-49.125c-16.32-27.2-37.898-30.859-63.375-30.375c-22.822,0.434-26.962,9.941-42.754,13.5  C365.239,453.969,343.481,439.652,338.752,466.393z"/>
<path fill="none" stroke="#000000" stroke-linecap="square" stroke-miterlimit="10" d="M338.752,464.893  c44.833-2.583,54.212,49.541-1.5,46.5"/>
<path fill="none" stroke="#000000" stroke-linecap="square" stroke-miterlimit="10" d="M334.252,468.643  c45.833-1.468,47.94,50.22,3.75,38.25"/>
<path fill="none" stroke="#000000" stroke-linecap="square" stroke-miterlimit="10" d="M329.002,473.143  c42.458-9.138,47.513,46.28,5.25,30"/>
<path fill="none" stroke="#000000" stroke-linecap="square" stroke-miterlimit="10" d="M339.502,460.393  c46.978-7.655,62.277,65.657-2.25,55.5"/>
<path fill="none" stroke="#000000" stroke-linecap="square" stroke-miterlimit="10" d="M419.756,491.893  c25.34-27.567,43.907,18.299,36,39.75"/>
<path fill="none" stroke="#000000" stroke-linecap="square" stroke-miterlimit="10" d="M423.506,494.143  c22.822-22.593,33.296,20.696,30,36.75"/>
<path fill="none" stroke="#000000" stroke-linecap="square" stroke-miterlimit="10" d="M383.752,496.393  c10.3-7.256,32.737-13.013,40.504,1.5c10.318,19.281-22.485,35.497-23.254,51.75"/>
<path fill="none" stroke="#000000" stroke-linecap="square" stroke-miterlimit="10" d="M385.252,500.143  c9.757-7.979,29.791-12.414,36.004,2.25c5.909,13.946-22.275,33.854-26.254,47.25"/>
<path fill="none" stroke="#000000" stroke-linecap="square" stroke-miterlimit="10" d="M383.002,503.893  c9.204-7.101,29.511-12.907,34.504,1.5c3.355,9.683-24.361,32.534-26.254,44.25"/>
<path fill="none" stroke="#000000" stroke-linecap="square" stroke-miterlimit="10" d="M377.002,509.893  c6.534-4.582,28.568-15.881,34.5-5.25c2.897,5.193-23.904,33.734-24.75,44.25"/>
<path fill="none" stroke="#000000" stroke-linecap="square" stroke-miterlimit="10" d="M371.752,510.643  c9.306-3.357,19.596-4.718,29.25-3.75c-4.882,13.987-13.885,26.802-22.5,39"/>
<path fill="none" stroke="#000000" stroke-linecap="square" stroke-miterlimit="10" d="M359.002,516.643  c21.47-6.782,34.378,8.995,16.5,25.5"/>
<path fill="none" stroke="#000000" stroke-linecap="square" stroke-miterlimit="10" d="M349.252,516.643  c14.387-1.551,39.753,5.031,22.5,21.75"/>
<path fill="none" stroke="#000000" stroke-linecap="square" stroke-miterlimit="10" d="M338.002,519.643  c12.113,1.637,34.617,4.007,30,16.5"/>
<path fill="none" stroke="#000000" stroke-linecap="square" stroke-miterlimit="10" d="M425.006,497.143  c28.675-17.844,24.733,38.192,15.75,51.75"/>
<path fill="none" stroke="#000000" stroke-linecap="square" stroke-miterlimit="10" d="M426.506,499.393  c27.008-6.726,19.974,40.231,4.5,50.25"/>
<path fill="none" stroke="#000000" stroke-linecap="square" stroke-miterlimit="10" d="M426.506,503.893  c26.122-3.414,10.003,41.172-6,47.25"/>
<path fill="none" stroke="#000000" stroke-linecap="square" stroke-miterlimit="10" d="M426.506,507.643  c25.292,3.12-0.182,39.686-16.504,43.5"/>
<path fill="none" stroke="#000000" stroke-linecap="square" stroke-miterlimit="10" d="M425.756,512.143  c19.918,15.851-9.896,30.729-24.004,36"/>
<path fill="none" stroke="#000000" stroke-linecap="square" stroke-miterlimit="10" d="M421.256,518.893  c3.468,12.447-4.707,21.665-17.254,23.25"/>
<path fill="none" stroke="#000000" stroke-linecap="square" stroke-miterlimit="10" d="M347.752,451.393  c16.174,9.601,38.127,21.591,46.5,39"/>
<path fill="none" stroke="#000000" stroke-linecap="square" stroke-miterlimit="10" d="M355.252,449.143  c15.549,10.306,35.465,22.471,43.5,39.75"/>
<path fill="none" stroke="#000000" stroke-linecap="square" stroke-miterlimit="10" d="M374.752,453.643  c11.275,10.292,23.471,20.965,30,34.5"/>
<path fill="none" stroke="#000000" stroke-linecap="square" stroke-miterlimit="10" d="M380.002,452.143  c29.718,31.226,67.207,47.249,82.504-7.5"/>
<path fill="none" stroke="#000000" stroke-linecap="square" stroke-miterlimit="10" d="M383.002,446.893  c21.515,31.437,68.107,46.408,75.004-5.25"/>
<path fill="none" stroke="#000000" stroke-linecap="square" stroke-miterlimit="10" d="M389.002,444.643  c15.994,26.803,65.83,39.093,64.504-5.25"/>
<path fill="none" stroke="#000000" stroke-linecap="square" stroke-miterlimit="10" d="M392.752,442.393  c15.079,19.373,60.36,36.427,57.004-5.25"/>
<path fill="none" stroke="#000000" stroke-linecap="square" stroke-miterlimit="10" d="M398.752,437.893  c11.765,20.741,46.746,33.159,47.254-2.25"/>
<path fill="none" stroke="#000000" stroke-linecap="square" stroke-miterlimit="10" d="M407.752,438.643  c10.062,14.664,27.654,12.596,33.004-4.5"/>
<path fill="none" stroke="#000000" stroke-linecap="square" stroke-miterlimit="10" d="M461.006,453.643  c23.347,22.28,36.425,57.636-2.25,72.75"/>
<path fill="none" stroke="#000000" stroke-linecap="square" stroke-miterlimit="10" d="M459.506,457.393  c17.607,17.496,34.911,50.79,0.75,62.25"/>
<path fill="none" stroke="#000000" stroke-linecap="square" stroke-miterlimit="10" d="M457.256,461.893  c13.896,15.097,30.72,42.094,2.25,52.5"/>
<path fill="none" stroke="#000000" stroke-linecap="square" stroke-miterlimit="10" d="M454.256,466.393  c10.965,11.537,27.091,35.198,3.75,42.75"/>
<path fill="none" stroke="#000000" stroke-linecap="square" stroke-miterlimit="10" d="M451.256,470.143  c10.896,8.828,19.45,23.714,5.25,32.25"/>
<path fill="none" stroke="#000000" stroke-linecap="square" stroke-miterlimit="10" d="M447.506,473.893  c9.629,6.534,14.833,16.647,7.5,25.5"/>
<path fill="none" stroke="#000000" stroke-linecap="square" stroke-miterlimit="10" d="M444.506,476.893  c6.944,3.146,9.802,8.336,6.75,15"/>
<path fill-rule="evenodd" clip-rule="evenodd" fill="#C4262D" stroke="#000000" stroke-width="2" stroke-linecap="square" stroke-miterlimit="10" d="  M372.502,470.143c-0.077-8.021,41.945-13.683,56.254-12c1.701,0.2,31.837,12.813,33.75,16.5c8.608,16.592-9.046,17.713-10.125,28.5  c-1.274,12.741-16.569,18.629-28.125,18.75c-12.865,0.135-18.927-10.915-30.379-8.625  C383.322,515.379,362.243,479.022,372.502,470.143z"/>
</svg>