<svg xmlns="http://www.w3.org/2000/svg" xmlns:xlink="http://www.w3.org/1999/xlink" version="1.1" id="Layer_1" x="0px" y="0px" enable-background="new 0 0 822.05 841.89" xml:space="preserve" viewBox="236.75 253.11 347.76 337.09">
<path fill-rule="evenodd" clip-rule="evenodd" fill="#DFF3FD" stroke="#000000" stroke-width="2" stroke-linecap="square" stroke-miterlimit="10" d="  M583.5,421.89c2.293,223.103-345.3,223.064-345.75,0C237.299,198.178,586.096,198.194,583.5,421.89z"/>
<path fill-rule="evenodd" clip-rule="evenodd" fill="#DFF3FD" stroke="#000000" stroke-width="2" stroke-linecap="square" stroke-miterlimit="10" d="  M517.5,423.39c-1.367,137.632-213.754,137.759-213.75,0C303.754,285.926,514.974,286.229,517.5,423.39z"/>
<path fill-rule="evenodd" clip-rule="evenodd" fill="#FFDB78" stroke="#000000" stroke-width="2" stroke-linecap="square" stroke-miterlimit="10" d="  M284.25,372.39c-25.558,8.585-20.208,25.908-13.5,43.5c8.892,23.317,7.255,48.754,27.75,64.125  c11.042,8.281,21.732,6.314,32.25,11.625c13.273,6.702,21.272,19.256,35.25,24.75c22.137,8.701,57.105,3.422,80.25,0  c10.61-1.568,21.592,1.067,30.75-6.75c9.936-8.481,2.568-22.428,14.25-24.375c13.768-2.295,54.559-24.646,60-38.25  c20.16-50.399-39.069-124.575-88.5-131.625c-21.139-3.015-45.089,8.576-64.5,12c-7.57,1.335-14.667-12.084-20.25,1.875  c-2.199,5.498-13.324,7.233-20.25,10.125c-20.704,8.644-15.084-2.123-38.25-2.25C303.423,337.052,284.47,356.223,284.25,372.39z"/>
<path fill="none" stroke="#000000" stroke-linecap="square" stroke-miterlimit="10" d="M285,370.14  c23.654-5.653,75.748,24.009,70.125,52.125c-5.405,27.026-50.907,30.218-73.125,27.375"/>
<path fill="none" stroke="#000000" stroke-linecap="square" stroke-miterlimit="10" d="M276,376.14  c22.612-3.662,64.251,14.504,69,38.25c5.151,25.754-48.906,35.262-61.5,27.75"/>
<path fill="none" stroke="#000000" stroke-linecap="square" stroke-miterlimit="10" d="M267.75,383.64  c19.413-6.919,62.106,9.479,66.75,30.375c5.051,22.729-43.249,30.848-57,22.125"/>
<path fill="none" stroke="#000000" stroke-linecap="square" stroke-miterlimit="10" d="M286.5,361.14  c28.441-7.68,73.03,27.74,76.5,55.5c4.938,39.506-52.762,44.476-81,42"/>
<path fill="none" stroke="#000000" stroke-linecap="square" stroke-miterlimit="10" d="M425.25,416.64  c41.717-45.562,83.391,30.122,62.25,69"/>
<path fill="none" stroke="#000000" stroke-linecap="square" stroke-miterlimit="10" d="M432.75,420.39  c38.103-40.693,57.994,37.463,51.75,64.5"/>
<path fill="none" stroke="#000000" stroke-linecap="square" stroke-miterlimit="10" d="M363.75,424.89  c22.469-15.956,73.649-22.494,72.75,18c-0.668,30.048-48.708,44.511-43.5,74.25"/>
<path fill="none" stroke="#000000" stroke-linecap="square" stroke-miterlimit="10" d="M365.25,431.64  c16.383-12.537,49.592-23.816,61.875,0.75c14.035,28.069-40.849,56.683-43.875,84"/>
<path fill="none" stroke="#000000" stroke-linecap="square" stroke-miterlimit="10" d="M361.5,437.64  c13.338-9.63,54.565-24.93,60,2.25c4.956,24.786-45.191,49.09-45.75,76.5"/>
<path fill="none" stroke="#000000" stroke-linecap="square" stroke-miterlimit="10" d="M351,447.39  c10.777-5.797,50.324-28.134,60-8.25c7.094,14.578-45.46,51.669-43.5,76.5"/>
<path fill="none" stroke="#000000" stroke-linecap="square" stroke-miterlimit="10" d="M342,449.64  c16.006-5.528,34.247-10.5,51-6.75c-7.213,24.307-24.357,47.036-39,67.5"/>
<path fill="none" stroke="#000000" stroke-linecap="square" stroke-miterlimit="10" d="M320.25,459.39  c39.345-8.418,57.826,11.186,27.75,44.25"/>
<path fill="none" stroke="#000000" stroke-linecap="square" stroke-miterlimit="10" d="M303,460.14  c23.637-3.293,70.175,6.811,39.75,37.5"/>
<path fill="none" stroke="#000000" stroke-linecap="square" stroke-miterlimit="10" d="M282.75,465.39  c12.593,2.188,69.912,7.483,52.5,27.75"/>
<path fill="none" stroke="#000000" stroke-linecap="square" stroke-miterlimit="10" d="M434.25,424.89  c48.138-32.661,45.513,66.956,27.75,90.75"/>
<path fill="none" stroke="#000000" stroke-linecap="square" stroke-miterlimit="10" d="M437.25,429.39  c43.57-17.977,36.343,71.511,8.25,87.75"/>
<path fill="none" stroke="#000000" stroke-linecap="square" stroke-miterlimit="10" d="M437.25,437.64  c36.389-17.09,24.582,73.378-10.5,82.5"/>
<path fill="none" stroke="#000000" stroke-linecap="square" stroke-miterlimit="10" d="M437.25,443.64  c35.031-9.724,5.962,69.215-29.25,75.75"/>
<path fill="none" stroke="#000000" stroke-linecap="square" stroke-miterlimit="10" d="M435.75,451.14  c41.237,23.566-23.172,56.271-42,63"/>
<path fill="none" stroke="#000000" stroke-linecap="square" stroke-miterlimit="10" d="M428.25,463.14  c8.727,22.555-10.07,37.601-30.75,40.5"/>
<path fill="none" stroke="#000000" stroke-linecap="square" stroke-miterlimit="10" d="M300.75,346.14  c26.374,16.307,68.354,37.718,81,67.5"/>
<path fill="none" stroke="#000000" stroke-linecap="square" stroke-miterlimit="10" d="M313.5,341.64  c25.006,16.711,64.806,39.697,75.75,69"/>
<path fill="none" stroke="#000000" stroke-linecap="square" stroke-miterlimit="10" d="M346.5,349.14  c18.995,17.18,44.13,36.2,53.25,60.75"/>
<path fill="none" stroke="#000000" stroke-linecap="square" stroke-miterlimit="10" d="M357,346.89  c49.116,60.269,114.306,79.444,144-12"/>
<path fill="none" stroke="#000000" stroke-linecap="square" stroke-miterlimit="10" d="M361.5,337.89  c16.363,22.795,48.976,59.935,81.75,54c23.812-4.312,49.832-38.649,48.75-63.75"/>
<path fill="none" stroke="#000000" stroke-linecap="square" stroke-miterlimit="10" d="M371.25,334.89  c17.787,23.623,43.157,50.318,75.375,43.875c22.233-4.447,39.528-32.498,37.875-53.625"/>
<path fill="none" stroke="#000000" stroke-linecap="square" stroke-miterlimit="10" d="M379.5,329.64  c25.202,37.16,103.628,61.058,98.25-8.25"/>
<path fill="none" stroke="#000000" stroke-linecap="square" stroke-miterlimit="10" d="M388.5,322.89  c24.079,38.825,76.599,54.389,82.5-5.25"/>
<path fill="none" stroke="#000000" stroke-linecap="square" stroke-miterlimit="10" d="M404.25,324.39  c18.739,21.712,48.624,23.958,57.75-8.25"/>
<path fill="none" stroke="#000000" stroke-linecap="square" stroke-miterlimit="10" d="M498,349.89  c40.26,40.773,63.47,101.221-5.25,126.75"/>
<path fill="none" stroke="#000000" stroke-linecap="square" stroke-miterlimit="10" d="M495,356.64  c34.275,33.843,57.559,85.694,0.75,108"/>
<path fill="none" stroke="#000000" stroke-linecap="square" stroke-miterlimit="10" d="M490.5,364.89  c26.717,25.564,52.637,74.223,3.75,90.75"/>
<path fill="none" stroke="#000000" stroke-linecap="square" stroke-miterlimit="10" d="M485.25,371.64  c16.408,19.046,49.529,63.875,7.5,75"/>
<path fill="none" stroke="#000000" stroke-linecap="square" stroke-miterlimit="10" d="M480,378.39  c14.225,13.726,39.536,44.37,9.75,57"/>
<path fill="none" stroke="#000000" stroke-linecap="square" stroke-miterlimit="10" d="M474,384.39  c11.393,11.083,32.792,31.938,12.75,45"/>
<path fill="none" stroke="#000000" stroke-linecap="square" stroke-miterlimit="10" d="M468,389.64  c11.482,5.104,18.883,15.5,12.75,27"/>
<path fill-rule="evenodd" clip-rule="evenodd" fill="#C4262D" stroke="#000000" stroke-width="2" stroke-linecap="square" stroke-miterlimit="10" d="  M343.5,378.39c-7.464-27.532,17.36-11.615,30.75-10.5c22.652,1.886,47.095-16.494,67.5-10.5c9.751,2.864,20.941,13.651,30.75,18  c10.533,4.67,21.187,3.046,29.25,13.125c6.917,8.646,2.7,18.302-1.5,27.375c-2.331,5.035-11.949,6.198-13.5,9  c-0.443,0.802-2.21,8.104-3.75,10.5c-15.267,23.764-15.343,24.048-46.5,30.75c-9.004,1.937-14.829,7.973-25.5,5.25  c-9.599-2.449-7.599-15.642-19.5-17.625c-8.917-1.486-20.31,3.803-28.5-2.625c-13.725-10.771,0.692-14.561-5.25-26.25  C350.954,411.52,314.791,395.347,343.5,378.39z"/>
</svg>