<svg xmlns="http://www.w3.org/2000/svg" xmlns:xlink="http://www.w3.org/1999/xlink" version="1.1" id="Layer_1" x="0px" y="0px" enable-background="new 0 0 822.05 841.89" xml:space="preserve" viewBox="309.87 343.64 200.63 156.7">
<path fill-rule="evenodd" clip-rule="evenodd" fill="#EED5B6" stroke="#000000" stroke-width="1.25" stroke-linecap="square" stroke-miterlimit="10" d="  M343.494,435.767c11.338-1.123,20.667-6.661,24-17.25c3.052,7.608,16.961-1.039,25.5,7.5c14.947,14.947,12.698,12.706,6.223,36.584  C388.021,503.886,321.746,473.315,343.494,435.767z"/>
<path fill-rule="evenodd" clip-rule="evenodd" fill="#137827" stroke="#000000" stroke-width="1.25" stroke-linecap="square" stroke-miterlimit="10" d="  M338.994,468.767c-1.75,9.75-3.5,19.5-5.25,29.25c29,0,58.001,0,87.002,0c-0.751-9.25-1.501-18.5-2.252-27.75  c2.537,23.456,1.053,33.816,29.252,27.75c-4.906-24.415-11.048-60.859-38.627-66.375c-8.461-1.692-18.709,19.319-35.625,16.5  c-17.96-2.993-15.717-22.053-35.25-16.125c-22.283,6.763-25.015,47.693-27.75,66C336.577,504.329,334.695,489.723,338.994,468.767z"/>
<path fill-rule="evenodd" clip-rule="evenodd" fill="#EED5B6" stroke="#000000" stroke-width="1.25" stroke-linecap="square" stroke-miterlimit="10" d="  M347.994,399.767C351.747,424.808,323.577,392.489,347.994,399.767L347.994,399.767z"/>
<path fill-rule="evenodd" clip-rule="evenodd" fill="#EED5B6" stroke="#000000" stroke-width="1.25" stroke-linecap="square" stroke-miterlimit="10" d="  M413.244,385.517C398.702,409.774,401.591,361.044,413.244,385.517L413.244,385.517z"/>
<path fill-rule="evenodd" clip-rule="evenodd" fill="#EED5B6" stroke="#000000" stroke-width="1.25" stroke-linecap="square" stroke-miterlimit="10" d="  M338.994,386.267c5.265,45.789,68.47,60.077,68.25,6C407.01,334.81,331.173,332.601,338.994,386.267z"/>
<path fill-rule="evenodd" clip-rule="evenodd" fill="#FFFFFF" stroke="#000000" stroke-width="1.25" stroke-linecap="square" stroke-miterlimit="10" d="  M461.246,344.267c-34.172,0.277-71.19,41.471-25.5,57.75c-8.088,5.892-13.868,9.165-24.002,9c22.036,6.356,68.226-1.48,86.252-15  C531.585,370.826,485.745,344.426,461.246,344.267z"/>
<path fill-rule="evenodd" clip-rule="evenodd" fill="#392170" stroke="#000000" stroke-width="1.25" stroke-linecap="square" stroke-miterlimit="10" d="  M338.994,468.767c-2,9.75-4,19.5-6,29.25C335.358,489.723,337.284,478.296,338.994,468.767z"/>
<path fill-rule="evenodd" clip-rule="evenodd" fill="#63211C" stroke="#000000" stroke-linecap="square" stroke-miterlimit="10" d="  M399.744,402.017c-8.625,4.741-13.737,8.665-24,5.25C382.206,428.62,398.424,421.413,399.744,402.017z"/>
</svg>