<svg xmlns="http://www.w3.org/2000/svg" xmlns:xlink="http://www.w3.org/1999/xlink" version="1.1" id="Layer_1" x="0px" y="0px" enable-background="new 0 0 822.05 841.89" xml:space="preserve" viewBox="215.15 244.94 386 353.75">
<path fill-rule="evenodd" clip-rule="evenodd" fill="#BCBEC0" stroke="#000000" stroke-width="2" stroke-linecap="square" stroke-miterlimit="10" d="  M300.901,419.187c36.634-3.025,74.006,5.462,94.386-26.676c9.194-14.498,8.783-91.19-4.828-90.991  c-20.641,0.301-96.9-10.585-97.197,11.938C293.015,332.323,281.071,416.257,300.901,419.187z"/>
<path fill-rule="evenodd" clip-rule="evenodd" fill="#967A66" stroke="#000000" stroke-width="2" stroke-linecap="square" stroke-miterlimit="10" d="  M218.401,289.437c76.375-1.826,156.478-14.898,229.5,9c-77.25,2.5-154.5,5-231.75,7.5  C216.856,300.77,216.452,294.23,218.401,289.437z"/>
<path fill-rule="evenodd" clip-rule="evenodd" fill="#6C5635" stroke="#000000" stroke-width="2" stroke-linecap="square" stroke-miterlimit="10" d="  M217.651,305.937c27.5-0.75,55-1.5,82.5-2.25c0.227,34.947,0.454,69.894,0.681,104.841c0.144,22.182-55.505,15.105-74.931,16.659  C223.151,385.437,220.401,345.687,217.651,305.937z"/>
<path fill-rule="evenodd" clip-rule="evenodd" fill="#6C5635" stroke="#000000" stroke-width="2" stroke-linecap="square" stroke-miterlimit="10" d="  M386.401,302.187c-1.25,36.75-2.5,73.5-3.75,110.25c19.037-2.379,59.466,3.336,60.546-18.576  c1.568-31.808,3.136-63.616,4.704-95.424C427.401,299.687,406.901,300.937,386.401,302.187z"/>
<path fill-rule="evenodd" clip-rule="evenodd" fill="#BCBEC0" d="M300.901,344.937l84.75-4.5L300.901,344.937z"/>
<line fill="none" stroke="#000000" stroke-width="2" stroke-linecap="square" stroke-miterlimit="10" x1="300.901" y1="344.937" x2="385.651" y2="340.437"/>
<path fill-rule="evenodd" clip-rule="evenodd" fill="#BCBEC0" d="M300.901,383.937l84-5.25L300.901,383.937z"/>
<line fill="none" stroke="#000000" stroke-width="2" stroke-linecap="square" stroke-miterlimit="10" x1="300.901" y1="383.937" x2="384.901" y2="378.687"/>
<path fill-rule="evenodd" clip-rule="evenodd" fill="#BCBEC0" stroke="#000000" stroke-width="2" stroke-linecap="square" stroke-miterlimit="10" d="  M357.151,360.687c-3.847,13.875-25.207,17.501-24.75,0C332.858,343.196,353.282,346.942,357.151,360.687z"/>
<path fill-rule="evenodd" clip-rule="evenodd" fill="#BCBEC0" stroke="#000000" stroke-width="2" stroke-linecap="square" stroke-miterlimit="10" d="  M310.651,390.687c0,3,0,6,0,9c16.985-1.382,60.285,2.876,64.5-12C353.651,388.687,332.151,389.687,310.651,390.687z"/>
<path fill-rule="evenodd" clip-rule="evenodd" fill="#BCBEC0" stroke="#000000" stroke-width="2" stroke-linecap="square" stroke-miterlimit="10" d="  M325.651,309.687c-1.868,6.397,0,15.784,0,22.5c20.774-0.903,43.428,5.013,33.75-24  C348.151,308.687,336.901,309.187,325.651,309.687z"/>
<path fill-rule="evenodd" clip-rule="evenodd" fill="#BCBEC0" stroke="#000000" stroke-width="2" stroke-linecap="square" stroke-miterlimit="10" d="  M381.151,319.437C365.641,339.56,366.25,298.542,381.151,319.437L381.151,319.437z"/>
<path fill-rule="evenodd" clip-rule="evenodd" fill="#BCBEC0" stroke="#000000" stroke-width="2" stroke-linecap="square" stroke-miterlimit="10" d="  M320.401,320.937C307.684,338.79,305.169,304.368,320.401,320.937L320.401,320.937z"/>
<path fill-rule="evenodd" clip-rule="evenodd" fill="#BCBEC0" stroke="#000000" stroke-width="2" stroke-linecap="square" stroke-miterlimit="10" d="  M282.151,287.937c6.072,5.163,12.002,10.501,18,15.75C293.123,299.585,283.007,290.03,282.151,287.937z"/>
<path fill-rule="evenodd" clip-rule="evenodd" fill="#BCBEC0" d="M381.151,301.437c-9.25-5-18.5-10-27.75-15  C360.226,289.694,392.68,301.146,381.151,301.437z"/>
<path fill="none" stroke="#000000" stroke-width="2" stroke-linecap="square" stroke-miterlimit="10" d="M381.151,301.437  c-9.25-5-18.5-10-27.75-15c11,5.25,22,10.5,33,15.75"/>
<path fill-rule="evenodd" clip-rule="evenodd" fill="#BCBEC0" stroke="#000000" stroke-width="2" stroke-linecap="square" stroke-miterlimit="10" d="  M284.401,287.937c19.672,27.811,66.006,14.818,95.25,14.25C348.151,281.515,322.046,287.145,284.401,287.937z"/>
<path fill-rule="evenodd" clip-rule="evenodd" fill="#ED1C24" stroke="#000000" stroke-width="2" stroke-linecap="square" stroke-miterlimit="10" d="  M234.901,257.187c5.077-3.117,12.957-3.628,18.75-5.25c2.613,16.8-1.416,41.267,22.5,33c-5.5,9.5-11,19-16.5,28.5  c-10-7.25-20-14.5-30-21.75c6.437,0.267,13.034-4.222,19.5-4.5C244.401,277.187,239.651,267.187,234.901,257.187z"/>
<path fill-rule="evenodd" clip-rule="evenodd" fill="#ED1C24" stroke="#000000" stroke-width="2" stroke-linecap="square" stroke-miterlimit="10" d="  M387.901,251.937c5.249-3.394,13.469-4.144,19.5-6c2.575,16.918-1.642,42.051,22.5,33.75c-5.75,9.5-11.5,19-17.25,28.5  c-9.75-7.5-19.5-15-29.25-22.5c6.447,0.244,13.027-4.257,19.5-4.5C397.901,271.437,392.901,261.687,387.901,251.937z"/>
<path fill-rule="evenodd" clip-rule="evenodd" fill="#BCBEC0" stroke="#000000" stroke-width="2" stroke-linecap="square" stroke-miterlimit="10" d="  M452.401,486.687c36.69-3.002,74.712,5.531,95.136-26.676c9.193-14.498,8.783-91.19-4.827-90.991  c-20.642,0.301-96.9-10.585-97.197,11.938C445.226,402.813,432.734,478.784,452.401,486.687z"/>
<path fill-rule="evenodd" clip-rule="evenodd" fill="#967A66" stroke="#000000" stroke-width="2" stroke-linecap="square" stroke-miterlimit="10" d="  M369.901,356.937c76.593-1.824,157.017-14.967,230.25,9c-77.5,2.5-155,5-232.5,7.5C368.356,368.269,367.953,361.732,369.901,356.937  z"/>
<path fill-rule="evenodd" clip-rule="evenodd" fill="#6C5635" stroke="#000000" stroke-width="2" stroke-linecap="square" stroke-miterlimit="10" d="  M369.901,373.437c27.5-0.75,55-1.5,82.5-2.25c0,34.947,0,69.895,0,104.841c0,22.297-54.835,15.091-74.25,16.659  C375.401,452.937,372.651,413.187,369.901,373.437z"/>
<path fill-rule="evenodd" clip-rule="evenodd" fill="#6C5635" stroke="#000000" stroke-width="2" stroke-linecap="square" stroke-miterlimit="10" d="  M538.651,369.687c-1.25,36.75-2.5,73.5-3.75,110.25c19.036-2.38,59.466,3.336,60.546-18.576c1.568-31.808,3.136-63.616,4.704-95.424  C579.651,367.187,559.151,368.437,538.651,369.687z"/>
<path fill-rule="evenodd" clip-rule="evenodd" fill="#BCBEC0" d="M453.151,412.437l84-4.5L453.151,412.437z"/>
<line fill="none" stroke="#000000" stroke-width="2" stroke-linecap="square" stroke-miterlimit="10" x1="453.151" y1="412.437" x2="537.151" y2="407.937"/>
<path fill-rule="evenodd" clip-rule="evenodd" fill="#BCBEC0" d="M452.401,451.437l84.75-5.25L452.401,451.437z"/>
<line fill="none" stroke="#000000" stroke-width="2" stroke-linecap="square" stroke-miterlimit="10" x1="452.401" y1="451.437" x2="537.151" y2="446.187"/>
<path fill-rule="evenodd" clip-rule="evenodd" fill="#BCBEC0" stroke="#000000" stroke-width="2" stroke-linecap="square" stroke-miterlimit="10" d="  M508.651,428.187c-3.102,13.991-25.101,17.436-24.75,0C484.251,410.768,505.541,414.367,508.651,428.187z"/>
<path fill-rule="evenodd" clip-rule="evenodd" fill="#BCBEC0" stroke="#000000" stroke-width="2" stroke-linecap="square" stroke-miterlimit="10" d="  M462.901,458.187c0,3,0,6,0,9c21.5-1.75,43-3.5,64.5-5.25C521.798,447.69,479.666,457.398,462.901,458.187z"/>
<path fill-rule="evenodd" clip-rule="evenodd" fill="#BCBEC0" stroke="#000000" stroke-width="2" stroke-linecap="square" stroke-miterlimit="10" d="  M477.901,377.187c-1.868,6.397,0,15.784,0,22.5c20.773-0.903,43.428,5.013,33.75-24  C500.401,376.187,489.151,376.687,477.901,377.187z"/>
<path fill-rule="evenodd" clip-rule="evenodd" fill="#BCBEC0" stroke="#000000" stroke-width="2" stroke-linecap="square" stroke-miterlimit="10" d="  M532.651,386.937C518.002,407.523,518.504,365.937,532.651,386.937L532.651,386.937z"/>
<path fill-rule="evenodd" clip-rule="evenodd" fill="#BCBEC0" stroke="#000000" stroke-width="2" stroke-linecap="square" stroke-miterlimit="10" d="  M472.651,388.437C459.65,405.891,457.229,372.313,472.651,388.437L472.651,388.437z"/>
<path fill-rule="evenodd" clip-rule="evenodd" fill="#BCBEC0" stroke="#000000" stroke-width="2" stroke-linecap="square" stroke-miterlimit="10" d="  M434.401,355.437c6.071,5.163,12.002,10.501,18,15.75C445.373,367.085,435.257,357.53,434.401,355.437z"/>
<path fill-rule="evenodd" clip-rule="evenodd" fill="#BCBEC0" d="M533.401,368.937c-9.25-5-18.5-10-27.75-15  C512.476,357.194,544.93,368.646,533.401,368.937z"/>
<path fill="none" stroke="#000000" stroke-width="2" stroke-linecap="square" stroke-miterlimit="10" d="M533.401,368.937  c-9.25-5-18.5-10-27.75-15c11,5.25,22,10.5,33,15.75"/>
<path fill-rule="evenodd" clip-rule="evenodd" fill="#BCBEC0" stroke="#000000" stroke-width="2" stroke-linecap="square" stroke-miterlimit="10" d="  M436.651,355.437c19.628,27.598,65.304,15.286,94.5,15C500.257,348.512,474.46,354.641,436.651,355.437z"/>
<path fill-rule="evenodd" clip-rule="evenodd" fill="#ED1C24" stroke="#000000" stroke-width="2" stroke-linecap="square" stroke-miterlimit="10" d="  M386.401,324.687c5.281-3.188,13.483-3.63,19.5-5.25c2.613,16.8-1.416,41.267,22.5,33c-5.75,9.5-11.5,19-17.25,28.5  c-9.75-7.25-19.5-14.5-29.25-21.75c6.444,0.249,13.029-4.239,19.5-4.5C396.401,344.687,391.401,334.687,386.401,324.687z"/>
<path fill-rule="evenodd" clip-rule="evenodd" fill="#ED1C24" stroke="#000000" stroke-width="2" stroke-linecap="square" stroke-miterlimit="10" d="  M540.151,319.437c5.264-3.386,13.461-4.142,19.5-6c2.274,17.44-2.423,42.323,22.5,33.75c-5.75,9.5-11.5,19-17.25,28.5  c-10-7.25-20-14.5-30-21.75c6.733,0.106,13.5-4.82,20.25-5.25C550.151,338.937,545.151,329.187,540.151,319.437z"/>
<path fill-rule="evenodd" clip-rule="evenodd" fill="#BCBEC0" stroke="#000000" stroke-width="2" stroke-linecap="square" stroke-miterlimit="10" d="  M344.401,591.687c36.671-3.334,74.723,4.764,95.136-27.426c9.146-14.423,8.817-90.44-4.827-90.241  c-20.559,0.3-96.9-10.526-97.197,11.868C337.215,508.341,324.377,582.151,344.401,591.687z"/>
<path fill-rule="evenodd" clip-rule="evenodd" fill="#967A66" stroke="#000000" stroke-width="2" stroke-linecap="square" stroke-miterlimit="10" d="  M261.901,461.187c76.206-1.814,156.744-15.252,229.5,9c-77.25,2.5-154.5,5-231.75,7.5  C260.356,472.519,259.952,465.98,261.901,461.187z"/>
<path fill-rule="evenodd" clip-rule="evenodd" fill="#6C5635" stroke="#000000" stroke-width="2" stroke-linecap="square" stroke-miterlimit="10" d="  M261.901,478.437c27.5-1,55-2,82.5-3c0,35.174,0,70.348,0,105.521c0,22.41-54.751,15.153-74.25,16.729  C267.401,557.937,264.651,518.187,261.901,478.437z"/>
<path fill-rule="evenodd" clip-rule="evenodd" fill="#6C5635" stroke="#000000" stroke-width="2" stroke-linecap="square" stroke-miterlimit="10" d="  M430.651,473.937c-1.25,36.75-2.5,73.5-3.75,110.25c19.076-2.146,59.544,4.122,60.468-17.904  c1.344-32.031,2.688-64.063,4.032-96.096C471.151,471.437,450.901,472.687,430.651,473.937z"/>
<path fill-rule="evenodd" clip-rule="evenodd" fill="#BCBEC0" d="M345.151,517.437l84-5.25L345.151,517.437z"/>
<line fill="none" stroke="#000000" stroke-width="2" stroke-linecap="square" stroke-miterlimit="10" x1="345.151" y1="517.437" x2="429.151" y2="512.187"/>
<path fill-rule="evenodd" clip-rule="evenodd" fill="#BCBEC0" d="M344.401,555.687l84.75-5.25L344.401,555.687z"/>
<line fill="none" stroke="#000000" stroke-width="2" stroke-linecap="square" stroke-miterlimit="10" x1="344.401" y1="555.687" x2="429.151" y2="550.437"/>
<path fill-rule="evenodd" clip-rule="evenodd" fill="#BCBEC0" stroke="#000000" stroke-width="2" stroke-linecap="square" stroke-miterlimit="10" d="  M400.651,533.187c-3.355,13.187-25.083,17.264-24.75,0C376.237,515.783,398.244,517.848,400.651,533.187z"/>
<path fill-rule="evenodd" clip-rule="evenodd" fill="#BCBEC0" stroke="#000000" stroke-width="2" stroke-linecap="square" stroke-miterlimit="10" d="  M354.901,563.187c0,3,0,6,0,9c21.5-1.75,43-3.5,64.5-5.25C414.67,551.479,371.848,562.19,354.901,563.187z"/>
<path fill-rule="evenodd" clip-rule="evenodd" fill="#BCBEC0" stroke="#000000" stroke-width="2" stroke-linecap="square" stroke-miterlimit="10" d="  M369.901,481.437c-1.923,6.62,0,16.303,0,23.25c20.752-1.354,43.42,4.083,33.75-24.75  C392.401,480.437,381.151,480.937,369.901,481.437z"/>
<path fill-rule="evenodd" clip-rule="evenodd" fill="#BCBEC0" stroke="#000000" stroke-width="2" stroke-linecap="square" stroke-miterlimit="10" d="  M424.651,491.187C410.579,512.078,409.993,471.048,424.651,491.187L424.651,491.187z"/>
<path fill-rule="evenodd" clip-rule="evenodd" fill="#BCBEC0" stroke="#000000" stroke-width="2" stroke-linecap="square" stroke-miterlimit="10" d="  M364.651,493.437C349.23,509.561,351.65,475.983,364.651,493.437L364.651,493.437z"/>
<path fill-rule="evenodd" clip-rule="evenodd" fill="#BCBEC0" stroke="#000000" stroke-width="2" stroke-linecap="square" stroke-miterlimit="10" d="  M326.401,459.687c6.072,5.163,12.002,10.502,18,15.75C337.373,471.335,327.257,461.78,326.401,459.687z"/>
<path fill-rule="evenodd" clip-rule="evenodd" fill="#BCBEC0" d="M425.401,473.187c-9.25-4.75-18.5-9.5-27.75-14.25  C404.315,461.966,437.101,473.058,425.401,473.187z"/>
<path fill="none" stroke="#000000" stroke-width="2" stroke-linecap="square" stroke-miterlimit="10" d="M425.401,473.187  c-9.25-4.75-18.5-9.5-27.75-14.25c11,5,22,10,33,15"/>
<path fill-rule="evenodd" clip-rule="evenodd" fill="#BCBEC0" stroke="#000000" stroke-width="2" stroke-linecap="square" stroke-miterlimit="10" d="  M328.651,459.687c19.19,28.646,65.076,15.577,94.5,15C392.286,453.778,365.885,459.295,328.651,459.687z"/>
<path fill-rule="evenodd" clip-rule="evenodd" fill="#ED1C24" stroke="#000000" stroke-width="2" stroke-linecap="square" stroke-miterlimit="10" d="  M278.401,428.937c5.281-3.188,13.483-3.63,19.5-5.25c2.618,16.827-1.398,40.914,22.5,33.75c-5.75,9.5-11.5,19-17.25,28.5  c-9.75-7.5-19.5-15-29.25-22.5c6.445,0.249,13.028-4.257,19.5-4.5C288.401,448.937,283.401,438.937,278.401,428.937z"/>
<path fill-rule="evenodd" clip-rule="evenodd" fill="#ED1C24" stroke="#000000" stroke-width="2" stroke-linecap="square" stroke-miterlimit="10" d="  M432.151,423.687c5.296-3.181,13.477-3.628,19.5-5.25c2.31,17.32-2.19,41.533,22.5,33c-5.75,9.5-11.5,19-17.25,28.5  c-10-7.25-20-14.5-30-21.75c6.676,0.312,13.541-4.262,20.25-4.5C442.151,443.687,437.151,433.687,432.151,423.687z"/>
</svg>