<svg xmlns="http://www.w3.org/2000/svg" xmlns:xlink="http://www.w3.org/1999/xlink" version="1.1" id="Layer_1" x="0px" y="0px" enable-background="new 0 0 822.05 841.89" xml:space="preserve" viewBox="305.5 340.14 209.5 162.25">
<path fill-rule="evenodd" clip-rule="evenodd" fill="#4F4E4E" stroke="#000000" stroke-linecap="square" stroke-miterlimit="10" d="  M354.75,445.64c-18.352-10.276-29.599-18.613-48.75-27.75C314.478,426.28,351.602,447.946,354.75,445.64z"/>
<path fill-rule="evenodd" clip-rule="evenodd" fill="#4F4E4E" stroke="#000000" stroke-linecap="square" stroke-miterlimit="10" d="  M351.75,456.14c-19.169-4.963-35.474,14.666-38.25,32.25C324.24,471.454,337.992,462.687,351.75,456.14z"/>
<path fill-rule="evenodd" clip-rule="evenodd" fill="#4F4E4E" stroke="#000000" stroke-linecap="square" stroke-miterlimit="10" d="  M355.5,456.89c18.622,1.753,15.948,32.946,7.5,45c4.704-12.122,6.042-38.848-8.25-37.5C355,461.89,355.25,459.39,355.5,456.89z"/>
<path fill-rule="evenodd" clip-rule="evenodd" fill="#4F4E4E" stroke="#000000" stroke-linecap="square" stroke-miterlimit="10" d="  M354,449.39c-14.119-4.925-29.643-13.372-42-1.5C327.272,440.818,345.617,457.708,354,449.39z"/>
<path fill-rule="evenodd" clip-rule="evenodd" fill="#4F4E4E" stroke="#000000" stroke-linecap="square" stroke-miterlimit="10" d="  M362.25,456.14c18.877-0.919,35.038,1.344,46.5,17.25c-6.562-3.572-14.901-10.146-22.5-12  C375.008,458.648,360.504,465.256,362.25,456.14z"/>
<path fill-rule="evenodd" clip-rule="evenodd" fill="#4F4E4E" stroke="#000000" stroke-linecap="square" stroke-miterlimit="10" d="  M365.25,451.64c20.062,0.871,35.407-3.587,56.25-2.25C410.538,452.822,367.319,455.714,365.25,451.64z"/>
<path fill-rule="evenodd" clip-rule="evenodd" fill="#4F4E4E" stroke="#000000" stroke-linecap="square" stroke-miterlimit="10" d="  M363,445.64c13.854-5.573,29.159-12.251,43.5-18.75c-6.632,6.845-19.803,7.053-25.5,12.75  C372.994,447.646,360.651,457.064,363,445.64z"/>
<path fill-rule="evenodd" clip-rule="evenodd" fill="#4F4E4E" stroke="#000000" stroke-linecap="square" stroke-miterlimit="10" d="  M335.25,387.14c6.458,14.714,6.577,57.932,23.25,60C345.794,438.216,344.466,399.203,335.25,387.14z"/>
<path fill-rule="evenodd" clip-rule="evenodd" fill="#4F4E4E" stroke="#000000" stroke-linecap="square" stroke-miterlimit="10" d="  M384,410.39c-10.176,6.741-11.305,19.445-16.5,26.25c0.25,1.25,0.5,2.5,0.75,3.75C377.324,433.113,378.489,417.284,384,410.39z"/>
<path fill-rule="evenodd" clip-rule="evenodd" fill="#4F4E4E" stroke="#000000" stroke-linecap="square" stroke-miterlimit="10" d="  M354.75,405.14c7.618,12.62,1.104,22.03,6.75,31.5C348.364,438.833,356.146,411.937,354.75,405.14z"/>
<path fill-rule="evenodd" clip-rule="evenodd" fill="#4F4E4E" stroke="#000000" stroke-linecap="square" stroke-miterlimit="10" d="  M360.75,433.64c-17.114,4.439-25.828,35.002-3,30.75C374.074,461.349,374.416,437.99,360.75,433.64z"/>
<path fill-rule="evenodd" clip-rule="evenodd" fill="#4F4E4E" stroke="#000000" stroke-linecap="square" stroke-miterlimit="10" d="  M447.75,399.14c-18.353-10.277-29.598-18.614-48.75-27.75C407.478,379.779,444.602,401.445,447.75,399.14z"/>
<path fill-rule="evenodd" clip-rule="evenodd" fill="#4F4E4E" stroke="#000000" stroke-linecap="square" stroke-miterlimit="10" d="  M444.75,409.64c-19.17-4.963-35.472,14.667-38.25,32.25C417.242,424.956,430.991,416.188,444.75,409.64z"/>
<path fill-rule="evenodd" clip-rule="evenodd" fill="#4F4E4E" stroke="#000000" stroke-linecap="square" stroke-miterlimit="10" d="  M448.5,410.39c18.622,1.753,15.948,32.946,7.5,45c4.703-12.122,6.042-38.847-8.25-37.5C448,415.39,448.25,412.89,448.5,410.39z"/>
<path fill-rule="evenodd" clip-rule="evenodd" fill="#4F4E4E" stroke="#000000" stroke-linecap="square" stroke-miterlimit="10" d="  M447,402.89c-14.118-4.925-29.643-13.372-42-1.5C420.272,394.318,438.617,411.209,447,402.89z"/>
<path fill-rule="evenodd" clip-rule="evenodd" fill="#4F4E4E" stroke="#000000" stroke-linecap="square" stroke-miterlimit="10" d="  M455.25,409.64c18.877-0.919,35.038,1.344,46.5,17.25c-6.562-3.572-14.901-10.146-22.5-12  C468.008,412.147,453.504,418.756,455.25,409.64z"/>
<path fill-rule="evenodd" clip-rule="evenodd" fill="#4F4E4E" stroke="#000000" stroke-linecap="square" stroke-miterlimit="10" d="  M458.25,405.14c20.062,0.871,35.407-3.586,56.25-2.25C503.537,406.321,460.319,409.214,458.25,405.14z"/>
<path fill-rule="evenodd" clip-rule="evenodd" fill="#4F4E4E" stroke="#000000" stroke-linecap="square" stroke-miterlimit="10" d="  M456,399.14c13.854-5.573,29.159-12.251,43.5-18.75c-6.633,6.845-19.803,7.053-25.5,12.75  C465.994,401.146,453.65,410.564,456,399.14z"/>
<path fill-rule="evenodd" clip-rule="evenodd" fill="#4F4E4E" stroke="#000000" stroke-linecap="square" stroke-miterlimit="10" d="  M428.25,340.64c6.458,14.714,6.577,57.932,23.25,60C438.794,391.716,437.466,352.703,428.25,340.64z"/>
<path fill-rule="evenodd" clip-rule="evenodd" fill="#4F4E4E" stroke="#000000" stroke-linecap="square" stroke-miterlimit="10" d="  M477,363.89c-10.176,6.741-11.305,19.445-16.5,26.25c0.25,1.25,0.5,2.5,0.75,3.75C470.324,386.612,471.489,370.784,477,363.89z"/>
<path fill-rule="evenodd" clip-rule="evenodd" fill="#4F4E4E" stroke="#000000" stroke-linecap="square" stroke-miterlimit="10" d="  M447.75,358.64c7.618,12.62,1.104,22.03,6.75,31.5C441.364,392.333,449.146,365.437,447.75,358.64z"/>
<path fill-rule="evenodd" clip-rule="evenodd" fill="#4F4E4E" stroke="#000000" stroke-linecap="square" stroke-miterlimit="10" d="  M453.75,387.14c-17.114,4.439-25.827,35.002-3,30.75C467.074,414.85,467.416,391.489,453.75,387.14z"/>
</svg>