<svg xmlns="http://www.w3.org/2000/svg" xmlns:xlink="http://www.w3.org/1999/xlink" version="1.1" id="Layer_1" x="0px" y="0px" enable-background="new 0 0 822.05 841.89" xml:space="preserve" viewBox="352.5 363.64 116.5 115.75">
<path fill-rule="evenodd" clip-rule="evenodd" fill="#4F4E4E" stroke="#000000" stroke-linecap="square" stroke-miterlimit="10" d="  M401.75,422.64c-18.352-10.277-29.599-18.614-48.75-27.75C361.478,403.279,398.602,424.946,401.75,422.64z"/>
<path fill-rule="evenodd" clip-rule="evenodd" fill="#4F4E4E" stroke="#000000" stroke-linecap="square" stroke-miterlimit="10" d="  M398.75,433.14c-19.169-4.963-35.474,14.666-38.25,32.25C371.24,448.454,384.992,439.687,398.75,433.14z"/>
<path fill-rule="evenodd" clip-rule="evenodd" fill="#4F4E4E" stroke="#000000" stroke-linecap="square" stroke-miterlimit="10" d="  M402.5,433.89c18.622,1.751,15.948,32.945,7.502,45c4.704-12.123,6.043-38.849-8.252-37.5C402,438.89,402.25,436.39,402.5,433.89z"/>
<path fill-rule="evenodd" clip-rule="evenodd" fill="#4F4E4E" stroke="#000000" stroke-linecap="square" stroke-miterlimit="10" d="  M401,426.39c-14.119-4.925-29.643-13.372-42-1.5C374.272,417.818,392.617,434.708,401,426.39z"/>
<path fill-rule="evenodd" clip-rule="evenodd" fill="#4F4E4E" stroke="#000000" stroke-linecap="square" stroke-miterlimit="10" d="  M409.252,433.14c18.877-0.919,35.036,1.345,46.498,17.25c-6.562-3.572-14.901-10.146-22.5-12  C422.009,435.648,407.505,442.256,409.252,433.14z"/>
<path fill-rule="evenodd" clip-rule="evenodd" fill="#4F4E4E" stroke="#000000" stroke-linecap="square" stroke-miterlimit="10" d="  M412.252,428.64c20.062,0.87,35.406-3.586,56.248-2.25C457.538,429.821,414.32,432.714,412.252,428.64z"/>
<path fill-rule="evenodd" clip-rule="evenodd" fill="#4F4E4E" stroke="#000000" stroke-linecap="square" stroke-miterlimit="10" d="  M410.002,422.64c13.854-5.574,29.157-12.251,43.498-18.75c-6.633,6.845-19.803,7.053-25.5,12.75  C419.995,424.645,407.652,434.064,410.002,422.64z"/>
<path fill-rule="evenodd" clip-rule="evenodd" fill="#4F4E4E" stroke="#000000" stroke-linecap="square" stroke-miterlimit="10" d="  M382.25,364.14c6.459,14.715,6.576,57.934,23.252,60C392.795,415.219,391.465,376.202,382.25,364.14z"/>
<path fill-rule="evenodd" clip-rule="evenodd" fill="#4F4E4E" stroke="#000000" stroke-linecap="square" stroke-miterlimit="10" d="  M431,387.39c-10.176,6.741-11.305,19.445-16.5,26.25c0.25,1.25,0.5,2.5,0.75,3.75C424.324,410.112,425.489,394.284,431,387.39z"/>
<path fill-rule="evenodd" clip-rule="evenodd" fill="#4F4E4E" stroke="#000000" stroke-linecap="square" stroke-miterlimit="10" d="  M401.75,382.14c7.623,12.622,1.104,22.029,6.752,31.5C395.363,415.834,403.146,388.938,401.75,382.14z"/>
<path fill-rule="evenodd" clip-rule="evenodd" fill="#4F4E4E" stroke="#000000" stroke-linecap="square" stroke-miterlimit="10" d="  M407.752,410.64c-17.116,4.438-25.83,35.001-3.002,30.75C421.073,438.35,421.416,414.99,407.752,410.64z"/>
</svg>