<svg xmlns="http://www.w3.org/2000/svg" xmlns:xlink="http://www.w3.org/1999/xlink" version="1.1" id="Layer_1" x="0px" y="0px" enable-background="new 0 0 822.05 841.89" xml:space="preserve" viewBox="209.4 256.86 404 335.16">
<path fill-rule="evenodd" clip-rule="evenodd" fill="#BCBEC0" stroke="#000000" stroke-width="2" stroke-linecap="square" stroke-miterlimit="10" d="  M612.399,429.052c-6.416,87.67-66.896,157.677-157.723,161.806c-89.822,4.083-162.124-70.381-166.085-157.528  c-4.057-89.263,70.65-162.132,157.53-166.081C539.574,263.001,606.231,341.367,612.399,429.052z"/>
<path fill-rule="evenodd" clip-rule="evenodd" fill="#BCBEC0" stroke="#000000" stroke-width="2" stroke-linecap="square" stroke-miterlimit="10" d="  M592.899,431.302c-3.484,180.109-280.238,180.663-279.752,0C313.632,251.163,590.166,251.537,592.899,431.302z"/>
<path fill-rule="evenodd" clip-rule="evenodd" fill="#BCBEC0" stroke="#000000" stroke-width="2" stroke-linecap="square" stroke-miterlimit="10" d="  M521.649,428.302c-1.929,84.278-131.482,84.548-131.252,0C390.626,344.375,519.605,344.644,521.649,428.302z"/>
<path fill-rule="evenodd" clip-rule="evenodd" fill="#FFF200" stroke="#000000" stroke-width="2" stroke-linecap="square" stroke-miterlimit="10" d="  M336.397,366.054c5.5,10.75,11,21.5,16.5,32.25c1.5-4.25,3-8.5,4.5-12.75c43.796,15.958,64.783,57.351,105.752,66.748  c24.219,5.555,41.301,9.708,57.375,30.375c17.997,23.14,41.215,58.876,61.875,21c15.362-28.164,3.765-50.377-31.125-46.5  c-24.867,2.763-46.778-7.803-66.375-22.5c-16.373-12.28-17.052-17.881-36.75-23.623c-30.604-8.921-55.367-19.593-81.752-39  c2.5-3.25,5-6.5,7.5-9.75C361.397,363.554,348.897,364.804,336.397,366.054z"/>
<path fill-rule="evenodd" clip-rule="evenodd" fill="#F7931E" stroke="#000000" stroke-width="2" stroke-linecap="square" stroke-miterlimit="10" d="  M466.899,430.552c-3.475,11.855-22.443,16.539-21.75,0C445.818,414.603,463.114,419.495,466.899,430.552z"/>
<path fill-rule="evenodd" clip-rule="evenodd" fill="#ED1C24" stroke="#000000" stroke-width="2" stroke-linecap="square" stroke-miterlimit="10" d="  M340.147,273.054c-63.082,36.502-92.586,114.644-81.75,184.498c7.997-2.249,17.924-1.176,25.5-4.5c-8.5,18.75-17,37.5-25.5,56.25  c-16-15-32-30-48-45c9.75-0.5,19.5-1,29.25-1.5c-9.003-43.959-10.587-93.486,3.75-136.498c6.402-19.208,16.389-37.468,30-52.5  C297.723,246.94,308.626,259.164,340.147,273.054z"/>
</svg>