<svg xmlns="http://www.w3.org/2000/svg" xmlns:xlink="http://www.w3.org/1999/xlink" version="1.1" id="Layer_1" x="0px" y="0px" enable-background="new 0 0 822.05 841.89" xml:space="preserve" viewBox="262.89 247.14 294 348.76">
<path fill-rule="evenodd" clip-rule="evenodd" fill="#0DB14B" stroke="#000000" stroke-width="2" stroke-linecap="square" stroke-miterlimit="10" d="  M341.5,593.902c29.631-24.571,43.273-71.385,39-108.75c-4.203-36.754-30.33-70.732-13.875-109.127  c26.504-61.844,83.521-176.06,163.875-105.75c62.538,54.721-3.363,152.912-58.875,183.752  c-35.199,19.555-63.442,30.418-79.875,70.125C383.726,543.541,374.199,603.288,341.5,593.902z"/>
<path fill="none" stroke="#000000" stroke-width="2" stroke-linecap="square" stroke-miterlimit="10" d="M381.25,486.652  c38.577-84.394,87.253-143.469,150-210.752"/>
<path fill="none" stroke="#000000" stroke-width="2" stroke-linecap="square" stroke-miterlimit="10" d="M447.25,362.9  c-16.976-29.376-26.815-69.045-9.75-100.5"/>
<path fill="none" stroke="#000000" stroke-width="2" stroke-linecap="square" stroke-miterlimit="10" d="M411.252,420.65  c-18.898-27.298-29.991-60.75-21.752-93.75"/>
<path fill="none" stroke="#000000" stroke-width="2" stroke-linecap="square" stroke-miterlimit="10" d="M441.25,377.15  c40.735,1.324,82.023-13.322,114-38.25"/>
<path fill="none" stroke="#000000" stroke-width="2" stroke-linecap="square" stroke-miterlimit="10" d="M406.75,431.902  c37.352,2.812,79.152,3.347,110.25-21.002"/>
<path fill-rule="evenodd" clip-rule="evenodd" fill="#0DB14B" stroke="#000000" stroke-width="2" stroke-linecap="square" stroke-miterlimit="10" d="  M361.75,584.152c6.233-32.087-0.86-67.193-21-93.375c-21.618-28.103-53.744-40.211-66-76.127  C255.457,358.112,253.581,246.494,340,254.9c74.947,7.291,73.692,108.999,50.25,160.5c-13.298,29.216-31.857,50.505-27.75,84.752  C365.137,522.142,391.96,571.449,361.75,584.152z"/>
<path fill="none" stroke="#000000" stroke-width="2" stroke-linecap="square" stroke-miterlimit="10" d="M338.5,486.652  c-15.491-79.569-5.121-149.264,8.25-228.002"/>
<path fill="none" stroke="#000000" stroke-width="2" stroke-linecap="square" stroke-miterlimit="10" d="M327.25,363.65  c-26.003-15.714-53.169-36.248-55.5-69"/>
<path fill="none" stroke="#000000" stroke-width="2" stroke-linecap="square" stroke-miterlimit="10" d="M328.75,422.902  c-27.537-9.66-51.765-30.583-61.5-58.502"/>
<path fill="none" stroke="#000000" stroke-width="2" stroke-linecap="square" stroke-miterlimit="10" d="M329.5,377.15  c29.683-19.096,55.612-49.576,65.25-84"/>
<path fill="none" stroke="#000000" stroke-width="2" stroke-linecap="square" stroke-miterlimit="10" d="M330.25,433.402  c29.064-12.421,61.244-37.002,71.25-68.252"/>
</svg>