<svg xmlns="http://www.w3.org/2000/svg" xmlns:xlink="http://www.w3.org/1999/xlink" version="1.1" id="Layer_1" x="0px" y="0px" enable-background="new 0 0 822.05 841.89" xml:space="preserve" viewBox="242.75 259.11 335.75 324.59">
<path fill-rule="evenodd" clip-rule="evenodd" fill="#C4262D" stroke="#000000" stroke-width="2" stroke-linecap="square" stroke-miterlimit="10" d="  M577.504,421.141c-1.475,215.266-333.882,215.552-333.75,0C243.886,206.239,574.705,206.622,577.504,421.141z"/>
<path fill-rule="evenodd" clip-rule="evenodd" fill="#C87F2E" stroke="#000000" stroke-width="2" stroke-linecap="square" stroke-miterlimit="10" d="  M558.004,423.391c-2.607,183.934-278.643,187.142-287.806,3.889C260.815,239.613,554.359,235.04,558.004,423.391z"/>
<path fill-rule="evenodd" clip-rule="evenodd" fill="#942923" stroke="#000000" stroke-width="2" stroke-linecap="square" stroke-miterlimit="10" d="  M484.504,420.391c-3.244,86.494-135.014,87.111-135,0C349.518,333.602,480.509,334.483,484.504,420.391z"/>
<path fill-rule="evenodd" clip-rule="evenodd" fill="#FFF200" stroke="#000000" stroke-width="2" stroke-linecap="square" stroke-miterlimit="10" d="  M294.004,355.891c5.5,11.25,11,22.5,16.5,33.75c4.72-40.622,89.665,60.367,112.125,55.875  c52.137-10.427,93.368,110.263,124.875,52.5c14.888-27.293,3.244-55.596-32.625-47.625c-24.422,5.427-55.67-11.391-73.125-27  c-11.467-10.254-10.351-24.775-30.75-21.375c-29.094,4.849-64.72-24.3-86.25-40.125c2.5-3.25,5-6.5,7.5-9.75  C319.504,353.391,306.754,354.641,294.004,355.891z"/>
<path fill-rule="evenodd" clip-rule="evenodd" fill="#F7931E" stroke="#000000" stroke-width="2" stroke-linecap="square" stroke-miterlimit="10" d="  M428.254,422.641c-3.123,13.062-22.511,16.258-22.5,0C405.765,406.515,424.866,410.252,428.254,422.641z"/>
</svg>