<svg xmlns="http://www.w3.org/2000/svg" xmlns:xlink="http://www.w3.org/1999/xlink" version="1.1" id="Layer_1" x="0px" y="0px" enable-background="new 0 0 822.05 841.89" xml:space="preserve" viewBox="304.59 337.04 212.77 163.64">
<path fill-rule="evenodd" clip-rule="evenodd" fill="#BFBEB2" stroke="#000000" stroke-linecap="square" stroke-miterlimit="10" d="  M405,411.15c-11.221-5.419-26.627-12.27-32.25-19.5c-3.939-5.066-3.36-20.513-9.75-28.5c-8.322-10.402-51.318-43.408-57.375-13.125  c-4.391,21.953,19.232,49.446,40.125,53.625c9.668,1.934,19.309-3.622,27.75-0.75C385.974,407.145,397.443,432.289,405,411.15z"/>
<path fill-rule="evenodd" clip-rule="evenodd" fill="#BFBEB2" stroke="#000000" stroke-linecap="square" stroke-miterlimit="10" d="  M405,410.4c-10.29,7.042-10.619,13.73,1.5,20.248c2.532-1.832,9.472-9.234,11.25-11.998C413.992,416.012,409.397,411.949,405,410.4z  "/>
<path fill-rule="evenodd" clip-rule="evenodd" fill="#FF7F00" stroke="#000000" stroke-linecap="square" stroke-miterlimit="10" d="  M513,486.148c23.626,42.597-68.757-24.994-73.806-29.056c-6.467-5.201-33.235-20.552-31.194-28.694  c1.467-5.854,7.548-10.295,12.498-6.862C451.406,442.971,482.23,464.513,513,486.148z"/>
</svg>