<svg xmlns="http://www.w3.org/2000/svg" xmlns:xlink="http://www.w3.org/1999/xlink" version="1.1" id="Layer_1" x="0px" y="0px" enable-background="new 0 0 822.05 841.89" xml:space="preserve" viewBox="215.49 273.07 389.79 296.36">
<path fill-rule="evenodd" clip-rule="evenodd" fill="#AD6043" stroke="#000000" stroke-width="2" stroke-linecap="square" stroke-miterlimit="10" d="  M281.25,366.64c6.479-37.85,50.397-55.649,82.833-64.917c42.508-12.146,53.996-2.711,83.667,20.667  c13.876,10.933,34.703,14.184,54.281,23.273c23.407,10.868,46.605,30.268,70.219,38.977c16.583,6.116,37.438-3.534,30.75,19.875  c-4.79,16.766-21.333,25.478-34.5,35.625c-41.483,31.972-82.101,63.96-121.5,98.25c-23.704,20.63-42.281,42.312-73.125,21.75  c-39.035-26.023-76.286-47.24-111.375-78c-19.042-16.693-54.265-32.83-44.25-67.5C225.227,390.485,257.716,370.738,281.25,366.64z"/>
<path fill-rule="evenodd" clip-rule="evenodd" fill="#EFD1B1" stroke="#000000" stroke-width="2" stroke-linecap="square" stroke-miterlimit="10" d="  M286.5,343.39c8.53-36.298,48.741-56.784,82.083-64.722c41.605-9.906,53.286-4.119,82.917,20.472  c28.419,23.586,85.858,37.314,123,62.25c9.172,6.158,38.377,19.373,24.375,33.375c-19.563,19.563-45.548,35.613-67.359,52.5  c-34.851,26.981-67.831,66.753-104.766,89.625c-31.264,19.361-52.79-1.383-81.778-19.027c-33.31-20.276-61.252-45.087-88.472-68.723  c-17.576-15.262-48.208-36.116-27-62.625C245.048,367.08,260.573,348.39,286.5,343.39z"/>
<path fill-rule="evenodd" clip-rule="evenodd" fill="#F6EB14" stroke="#000000" stroke-width="2" stroke-linecap="square" stroke-miterlimit="10" d="  M369.75,349.39c28.429-1.96,56.858-3.921,85.288-5.882c4.265-0.294,10.962,67.275,12.212,76.382c-37.25,3.25-74.5,6.5-111.75,9.75  C354.677,408.646,338.095,347.088,369.75,349.39z"/>
<path fill-rule="evenodd" clip-rule="evenodd" fill="#FBF4A2" stroke="#000000" stroke-width="2" stroke-linecap="square" stroke-miterlimit="10" d="  M355.5,429.64c-2.895,28.711,48.431,13.462,66.219,12.566c18.554-0.935,55.707,7.281,45.531-22.316  C430,423.14,392.75,426.39,355.5,429.64z"/>
</svg>