<svg xmlns="http://www.w3.org/2000/svg" xmlns:xlink="http://www.w3.org/1999/xlink" version="1.1" id="Layer_1" x="0px" y="0px" enable-background="new 0 0 822.05 841.89" xml:space="preserve" viewBox="328.34 333.27 164.47 176.49">
<path fill-rule="evenodd" clip-rule="evenodd" fill="#5E1F0A" stroke="#000000" stroke-width="1.25" stroke-linecap="square" stroke-miterlimit="10" d="  M415.217,496.649c-0.222-18.432,17.568-35.492,3-50.25c-6.828,14.731-5.161,34.612-9,51c0.75-1,1.5-2,2.25-3  c0.323,2.16-1.448,5.005-0.75,7.5C419.318,501.968,413.819,499.197,415.217,496.649z"/>
<path fill-rule="evenodd" clip-rule="evenodd" fill="#5E1F0A" stroke="#000000" stroke-width="1.25" stroke-linecap="square" stroke-miterlimit="10" d="  M370.967,496.649c-33.078-35.231,11.698-25.917,5.25-57.75c-36.514,27.119-27.829,25.051-12.75,60.75  C364.832,499.583,369.525,498.293,370.967,496.649z"/>
<path fill-rule="evenodd" clip-rule="evenodd" fill="#5E1F0A" stroke="#000000" stroke-width="1.25" stroke-linecap="square" stroke-miterlimit="10" d="  M346.217,408.899c-11.236,4.914-17.33,15.518-17.25,27.75C341.525,433.018,347.67,422.016,346.217,408.899z"/>
<path fill-rule="evenodd" clip-rule="evenodd" fill="#878787" stroke="#000000" stroke-width="1.25" stroke-linecap="square" stroke-miterlimit="10" d="  M462.471,378.149c-2.932-8.24-3.237-17.004,0-24c-0.086,6.027,2.917,9.582,4.5,15c9.374-10.08,9.368-23.168,3.75-35.25  c4.717,7.508,7.364,12.372,7.5,22.5c2.139-6.119,6.145-14.488,6.75-21.75c0.212,4.645,0.964,9.754,1.5,14.25  c1.591-4.611,4.037-9.529,5.25-14.25C495.996,351.396,469.894,374.228,462.471,378.149z"/>
<path fill-rule="evenodd" clip-rule="evenodd" fill="#878787" stroke="#000000" stroke-width="1.25" stroke-linecap="square" stroke-miterlimit="10" d="  M452.721,376.649c1.431-9.349-0.114-19.199-4.5-23.25c1.862,7.149-0.47,9.34-0.75,15.75c-12.272-6.169-15.494-19.166-12.75-32.25  c-2.426,7.64-3.163,13.59-1.5,23.25c-4.019-6.123-9.566-13.494-12.004-20.25c1.19,5.038,1.742,9.539,2.25,14.25  c-2.33-3.893-5.998-8.384-8.25-12.75C415.265,358.912,445.518,373.901,452.721,376.649z"/>
<path fill-rule="evenodd" clip-rule="evenodd" fill="#5E1F0A" stroke="#000000" stroke-width="1.25" stroke-linecap="square" stroke-miterlimit="10" d="  M448.221,405.899c-0.387-1.313-1.74-3.499,0-7.5c1.76,1.871,12.642,5.542,15.75,8.25c21.748-35.639-15.877-24.301-30.75-36.75  c1.754,12.979,20.029,22.817,3.75,34.5c-23.17,16.627-79.473-19.666-96.004,12.75c-4.298,8.428,3.838,17.584,2.25,24.75  c-1.545,6.973-10.809,15.527-11.25,18c-2.559,14.345-6.455,44.985,9,42.75c-9.796-21.646-4.428-31.97,13.125-42  c19.795-11.312,10.734-7.497,34.875-7.5c25.875-0.003,29.633-3.646,39.06,22.277c5.203,14.31,4.312,29.685,16.444,28.723  c-9.963-16.114-18.32-45.885-3-57.375c10.184-7.638,19.444-21.325,21.75-34.125C453.632,420.722,452.119,414.768,448.221,405.899z"/>
<path fill-rule="evenodd" clip-rule="evenodd" fill="#5E1F0A" stroke="#000000" stroke-width="1.25" stroke-linecap="square" stroke-miterlimit="10" d="  M463.971,379.649c5.146-4.261,10.115-7.467,16.5-8.25C476.741,384.046,472.499,382.836,463.971,379.649z"/>
<path fill-rule="evenodd" clip-rule="evenodd" fill="#E6B98A" stroke="#000000" stroke-width="1.25" stroke-linecap="square" stroke-miterlimit="10" d="  M433.971,372.899c4.061,4.298,8.18,4.429,9.75,11.25C436.126,382.432,437.904,378.049,433.971,372.899z"/>
<path fill-rule="evenodd" clip-rule="evenodd" fill="#878787" stroke="#000000" stroke-width="1.25" stroke-linecap="square" stroke-miterlimit="10" d="  M417.467,500.399c-0.16,0.332-6.637,1.47-6.75,1.5c4.732,3.346,2.977,3.58,10.5,3C421.964,502.402,417.283,500.78,417.467,500.399z"/>
<path fill-rule="evenodd" clip-rule="evenodd" fill="#878787" stroke="#000000" stroke-width="1.25" stroke-linecap="square" stroke-miterlimit="10" d="  M372.467,497.399c-0.4,1.331-5.441,2.125-6.75,2.25C377.869,507.399,371.47,500.714,372.467,497.399z"/>
<path fill-rule="evenodd" clip-rule="evenodd" fill="#E6B98A" stroke="#000000" stroke-width="1.25" stroke-linecap="square" stroke-miterlimit="10" d="  M469.221,400.649C458.028,391.272,454.564,411.448,469.221,400.649L469.221,400.649z"/>
<path fill="none" stroke="#000000" stroke-width="1.25" stroke-linecap="square" stroke-miterlimit="10" d="M451.971,383.399  c3.738,2.015,7.049,6.329,9,11.25"/>
<path fill="none" stroke="#000000" stroke-width="1.25" stroke-linecap="square" stroke-miterlimit="10" d="M466.221,384.149  c-2.075,3.201-1.17,6.706,1.5,9.75"/>
<path fill="none" stroke="#000000" stroke-width="1.25" stroke-linecap="square" stroke-miterlimit="10" d="M448.221,398.399  c-3.073-2.291-4.213-5.444-3-9"/>
<line fill="none" stroke="#000000" stroke-width="1.25" stroke-linecap="square" stroke-miterlimit="10" x1="444.471" y1="388.649" x2="444.471" y2="388.649"/>
<path fill-rule="evenodd" clip-rule="evenodd" stroke="#000000" stroke-width="1.25" stroke-linecap="square" stroke-miterlimit="10" d="  M451.971,386.399C449.998,386.399,449.998,386.399,451.971,386.399L451.971,386.399z"/>
<path fill-rule="evenodd" clip-rule="evenodd" fill="#878787" stroke="#000000" stroke-width="1.25" stroke-linecap="square" stroke-miterlimit="10" d="  M334.967,504.149c4.671,1.269,4.692,6.195,9.75,1.5C340.651,500.973,339.393,505.351,334.967,504.149z"/>
<path fill="none" stroke="#000000" stroke-width="1.25" stroke-linecap="square" stroke-miterlimit="10" d="M447.471,398.399  C448.471,398.399,448.471,398.399,447.471,398.399L447.471,398.399z"/>
<path fill-rule="evenodd" clip-rule="evenodd" fill="#FFFFFF" stroke="#000000" stroke-width="1.25" stroke-linecap="square" stroke-miterlimit="10" d="  M457.971,403.649c-3.36-1.858-6.698-2.856-9.75-5.25C441.194,417.052,471.928,421.328,457.971,403.649z"/>
<path fill-rule="evenodd" clip-rule="evenodd" fill="#878787" stroke="#000000" stroke-width="1.25" stroke-linecap="square" stroke-miterlimit="10" d="  M437.721,504.899c3.718,1.256,5.21,7.898,10.5,1.5C443.81,503.431,442.118,506.384,437.721,504.899z"/>
<path fill-rule="evenodd" clip-rule="evenodd" stroke="#000000" stroke-width="1.25" stroke-linecap="square" stroke-miterlimit="10" d="  M468.471,386.399C466.475,387.365,467.113,387.056,468.471,386.399L468.471,386.399z"/>
<path fill="none" stroke="#000000" stroke-width="1.25" stroke-linecap="square" stroke-miterlimit="10" d="M457.971,402.149  c3.829,2.098,7.955,1.524,11.25-1.5"/>
</svg>