<svg xmlns="http://www.w3.org/2000/svg" xmlns:xlink="http://www.w3.org/1999/xlink" version="1.1" id="Layer_1" x="0px" y="0px" enable-background="new 0 0 822.05 841.89" xml:space="preserve" viewBox="388.28 338.07 43.25 170.36">
<path fill-rule="evenodd" clip-rule="evenodd" stroke="#000000" stroke-width="1.25" stroke-linecap="square" stroke-miterlimit="10" d="  M394.908,497.523C442.076,479.643,389.888,526.343,394.908,497.523L394.908,497.523z"/>
<path fill-rule="evenodd" clip-rule="evenodd" stroke="#000000" stroke-width="1.25" stroke-linecap="square" stroke-miterlimit="10" d="  M402.408,453.273c-0.489,13.424,0.56,36.087-6.75,45C396.303,485.799,391.805,458.258,402.408,453.273z"/>
<path fill-rule="evenodd" clip-rule="evenodd" stroke="#000000" stroke-width="1.25" stroke-linecap="square" stroke-miterlimit="10" d="  M405.408,497.523C452.625,481.185,402.863,527.348,405.408,497.523L405.408,497.523z"/>
<path fill-rule="evenodd" clip-rule="evenodd" stroke="#000000" stroke-width="1.25" stroke-linecap="square" stroke-miterlimit="10" d="  M413.658,454.023c-2.234,14.623-2.512,29.466-3,44.25c-1.25,0.25-2.5,0.5-3.75,0.75c0.639-18.533,7.515-42.6-7.5-57  C406.706,443.43,408.611,447.979,413.658,454.023z"/>
<path fill-rule="evenodd" clip-rule="evenodd" fill="#F8130D" stroke="#000000" stroke-width="1.25" stroke-linecap="square" stroke-miterlimit="10" d="  M423.41,419.521c1.14-11.876-0.779-56.689-20.627-48.75c-9.957,3.983-8.558,12.997-10.125,21.75  C387.645,420.53,399.721,418.336,423.41,419.521z M424.16,424.773c-5.314-7.743-18.701-4.176-30.752-4.502  c-0.25,11.751-0.5,23.501-0.75,35.252c2,0,4,0,6,0c0-6.429,0.669-13.115,0-19.5c-1.671,5.697,0,13.5,0,19.5  C427.176,459.885,422.982,448.322,424.16,424.773z"/>
<path fill-rule="evenodd" clip-rule="evenodd" fill="#EDCBA6" stroke="#000000" stroke-width="1.25" stroke-linecap="square" stroke-miterlimit="10" d="  M418.158,350.521c5.913,23.794-23.877,23.557-28.5,1.5C399.216,353.76,409.042,353.276,418.158,350.521z"/>
<path fill-rule="evenodd" clip-rule="evenodd" fill="#F8130D" stroke="#000000" stroke-width="1.25" stroke-linecap="square" stroke-miterlimit="10" d="  M388.908,349.771c13.917,2.01,28.979,0.499,42.002-4.5C416.883,344.232,398.055,328.502,388.908,349.771z"/>
<path fill="none" stroke="#000000" stroke-width="1.25" stroke-linecap="square" stroke-miterlimit="10" d="M393.408,426.273  c0.586,7.594,5.171,12.665,12.75,14.25"/>
<path fill="none" stroke="#000000" stroke-width="1.25" stroke-linecap="square" stroke-miterlimit="10" d="M406.158,425.523  c5.447,2.095,10.743,1.206,14.252-3.002"/>
<path fill-rule="evenodd" clip-rule="evenodd" stroke="#000000" stroke-width="1.25" stroke-linecap="square" stroke-miterlimit="10" d="  M401.658,412.771c3.49-10.056,6.875-20.35,4.5-30c-2.31,9.632-3.854,20.879-7.5,30.75c1,0,1,0,0,0  c5.113,3.709,11.421,9.027,17.25,10.502C411.425,419.823,406.634,416.348,401.658,412.771z"/>
<path fill-rule="evenodd" clip-rule="evenodd" fill="#F8130D" stroke="#000000" stroke-width="1.25" stroke-linecap="square" stroke-miterlimit="10" d="  M409.908,400.021c3.692-7.861,6.34-23.482-3.75-27C399.714,370.774,388.755,401.107,409.908,400.021z"/>
</svg>