<svg xmlns="http://www.w3.org/2000/svg" xmlns:xlink="http://www.w3.org/1999/xlink" version="1.1" id="Layer_1" x="0px" y="0px" enable-background="new 0 0 822.05 841.89" xml:space="preserve" viewBox="205.16 287.19 411.12 269.04">
<path fill-rule="evenodd" clip-rule="evenodd" fill="#90A7D6" stroke="#000000" stroke-width="2" stroke-linecap="square" stroke-miterlimit="10" d="  M426,422.666c-70.285,30.905-140.569,61.811-210.854,92.716c-4.761,2.094,30.841,47.484,51.527,38.729  c41.814-17.698,83.628-35.396,125.443-53.095c47.386-20.056,94.772-40.112,142.158-60.169c13.512-5.719,48.113-11.732,49.227-30.179  c1.97-32.65-34.467-8.15-47.475-1.883C487.494,432.167,478.378,434.863,426,422.666z"/>
<path fill-rule="evenodd" clip-rule="evenodd" fill="#90A7D6" stroke="#000000" stroke-width="2" stroke-linecap="square" stroke-miterlimit="10" d="  M215.25,343.917c-21.98,26.16,0.26,40.52,20.762,58.404c17.876,15.594,64.746,0.954,85.706-1.5  c67.771-7.936,135.543-15.872,203.314-23.808c25.192-2.95,54.67-1.417,76.843-14.721c18.64-11.184,16.771-40.841,1.049-52.072  c-30.057-21.469-35.076-23.941-71.557-21.046c-20.501,1.627-40.923,4.153-61.381,6.251  C390.459,303.582,286.481,304.182,215.25,343.917z"/>
<path fill="none" stroke="#000000" stroke-width="2" stroke-linecap="square" stroke-miterlimit="10" d="M215.25,343.917  c18.929,15.143,31.554,34.661,55.904,30.49c38.134-6.53,76.268-13.061,114.401-19.591c75.231-12.883,150.463-25.766,225.694-38.649"/>
<line fill="none" stroke="#000000" stroke-width="2" stroke-linecap="square" stroke-miterlimit="10" x1="256.5" y1="376.917" x2="248.25" y2="407.667"/>
<path fill-rule="evenodd" clip-rule="evenodd" fill="#BCBEC0" stroke="#000000" stroke-width="2" stroke-linecap="square" stroke-miterlimit="10" d="  M219,392.667c0,39.776-8.65,54.368,26.208,74.032c11.37,6.414,49.427-14.289,60.857-18.232  c39.707-13.7,79.413-27.401,119.119-41.101c17.585-6.068,48.052-10.582,59.315-24.449c-48.562,5.668-97.124,11.336-145.686,17.004  C291.675,405.424,258.729,418.438,219,392.667z"/>
<line fill="none" stroke="#000000" stroke-width="2" stroke-linecap="square" stroke-miterlimit="10" x1="246.75" y1="410.667" x2="248.25" y2="468.416"/>
<line fill="none" stroke="#000000" stroke-width="2" stroke-linecap="square" stroke-miterlimit="10" x1="233.25" y1="403.167" x2="234.75" y2="459.416"/>
<path fill-rule="evenodd" clip-rule="evenodd" fill="#BCBEC0" stroke="#000000" stroke-width="2" stroke-linecap="square" stroke-miterlimit="10" d="  M484.5,382.917c4.12,17.909,6.682,46.655-12.75,56.248c31.653-15.048,91.111-27.778,103.5-64.498  C545,377.417,514.75,380.167,484.5,382.917z"/>
<path fill-rule="evenodd" clip-rule="evenodd" fill="#BCBEC0" stroke="#000000" stroke-width="2" stroke-linecap="square" stroke-miterlimit="10" d="  M443.25,412.167c-65.5,31.499-131,62.999-196.5,94.498c8.683,8.015,22.82,30.104,34.731,24.354  c24.312-11.736,48.624-23.473,72.935-35.21c30.918-14.926,108.895-34.694,124.834-67.894  C467.25,422.667,455.25,417.417,443.25,412.167z"/>
<path fill-rule="evenodd" clip-rule="evenodd" fill="#6D6F71" d="M446.25,412.917c-3.822-18.474,21.56-18.08,36-22.5  c3.896,11.633,3.77,24.143,0.75,35.998C473.879,423.146,444.897,412.217,446.25,412.917z"/>
<path fill="none" stroke="#000000" stroke-width="2" stroke-linecap="square" stroke-miterlimit="10" d="M446.25,412.917  c-3.822-18.474,21.56-18.08,36-22.5c3.896,11.633,3.77,24.143,0.75,35.998c-13.25-4.75-26.5-9.499-39.75-14.248"/>
<path fill-rule="evenodd" clip-rule="evenodd" fill="#DEDFE0" stroke="#000000" stroke-width="2" stroke-linecap="square" stroke-miterlimit="10" d="  M246.75,506.666c-6.095,1.265-12.386,6.192-18,9c14.562,14.945,27.271,40.739,47.25,18C266.25,524.666,256.5,515.666,246.75,506.666  z"/>
</svg>