<svg xmlns="http://www.w3.org/2000/svg" xmlns:xlink="http://www.w3.org/1999/xlink" version="1.1" id="Layer_1" x="0px" y="0px" enable-background="new 0 0 822.05 841.89" xml:space="preserve" viewBox="218.25 254.23 382 338.3">
<path fill-rule="evenodd" clip-rule="evenodd" fill="#F7931E" stroke="#000000" stroke-width="2" stroke-linecap="square" stroke-miterlimit="10" d="  M219.309,444.89c-3.258,31.395,130.408-21.278,156,21c14.216,23.483-8.056,111.717,10.125,122.625  c32.656,19.594,35.209-62.1,40.127-77.625c9.809-30.967,24.065-67.514,61.5-61.664c24.687,3.857,90.236,34.979,109.5,10.664  c27.317-34.48-163.933-45.021-93.75-132.75c11.305-14.131,30.067-43.471,25.5-63c-5.226-22.344-19.742,3.025-34.125,14.25  c-34.427,26.87-77.726,78.071-121.877,42.75c-31.84-25.472-80.253-86.83-48.083-5.639c4.301,10.853,26.621,47.825,23.333,58.889  c-2.681,9.024-31.393,24.258-39,29.25C281.111,421.651,251.197,436.683,219.309,444.89z"/>
<path fill-rule="evenodd" clip-rule="evenodd" fill="#F7931E" stroke="#000000" stroke-width="2" stroke-linecap="square" stroke-miterlimit="10" d="  M473.561,436.64c-2.742,0.089-3.402,5.408-9,1.5C467.464,429.833,469.687,436.765,473.561,436.64z"/>
<path fill-rule="evenodd" clip-rule="evenodd" fill="#F7931E" stroke="#000000" stroke-width="2" stroke-linecap="square" stroke-miterlimit="10" d="  M432.311,467.39c-0.936,3.044,4.258,6.412-3,9C425.205,469.846,431.361,470.478,432.311,467.39z"/>
<path fill-rule="evenodd" clip-rule="evenodd" fill="#F7931E" stroke="#000000" stroke-width="2" stroke-linecap="square" stroke-miterlimit="10" d="  M426.311,485.39C422.845,495.234,423.364,493.757,426.311,485.39L426.311,485.39z"/>
<path fill-rule="evenodd" clip-rule="evenodd" fill="#F7931E" stroke="#000000" stroke-width="2" stroke-linecap="square" stroke-miterlimit="10" d="  M419.561,505.64C417.202,514.681,416.832,516.099,419.561,505.64L419.561,505.64z"/>
<path fill-rule="evenodd" clip-rule="evenodd" fill="#F7931E" stroke="#000000" stroke-width="2" stroke-linecap="square" stroke-miterlimit="10" d="  M413.559,524.39C409.937,533.866,410.271,532.992,413.559,524.39L413.559,524.39z"/>
<path fill-rule="evenodd" clip-rule="evenodd" fill="#F7931E" stroke="#000000" stroke-width="2" stroke-linecap="square" stroke-miterlimit="10" d="  M409.809,543.89C407.62,553.268,407.264,554.791,409.809,543.89L409.809,543.89z"/>
<path fill-rule="evenodd" clip-rule="evenodd" fill="#F7931E" stroke="#000000" stroke-width="2" stroke-linecap="square" stroke-miterlimit="10" d="  M493.811,438.89C483.998,438.89,483.998,438.89,493.811,438.89L493.811,438.89z"/>
<path fill-rule="evenodd" clip-rule="evenodd" fill="#F7931E" stroke="#000000" stroke-width="2" stroke-linecap="square" stroke-miterlimit="10" d="  M514.811,441.89c-3.583,0-5.242,6.007-9.75,0C509.568,435.883,511.228,441.89,514.811,441.89z"/>
<path fill-rule="evenodd" clip-rule="evenodd" fill="#F7931E" stroke="#000000" stroke-width="2" stroke-linecap="square" stroke-miterlimit="10" d="  M533.561,446.39c-2.717,0.082-4.293,6.273-9,0C529.225,440.461,530.711,446.476,533.561,446.39z"/>
<path fill-rule="evenodd" clip-rule="evenodd" fill="#F7931E" stroke="#000000" stroke-width="2" stroke-linecap="square" stroke-miterlimit="10" d="  M551.561,453.14C541.412,453.14,541.412,453.14,551.561,453.14L551.561,453.14z"/>
<path fill-rule="evenodd" clip-rule="evenodd" fill="#F7931E" stroke="#000000" stroke-width="2" stroke-linecap="square" stroke-miterlimit="10" d="  M572.561,458.39c-2.717,0.082-4.293,6.273-9,0C568.225,452.461,569.711,458.476,572.561,458.39z"/>
<path fill-rule="evenodd" clip-rule="evenodd" fill="#F7931E" stroke="#000000" stroke-width="2" stroke-linecap="square" stroke-miterlimit="10" d="  M473.561,355.64c-0.317,1.957,2.886,3.55,0,6.75c-0.75,0-1.5,0-2.25,0C469.117,357.514,473.268,357.448,473.561,355.64z"/>
<path fill-rule="evenodd" clip-rule="evenodd" fill="#F7931E" stroke="#000000" stroke-width="2" stroke-linecap="square" stroke-miterlimit="10" d="  M247.809,454.64c-1.086-0.043-2.325,3.287-6,1.5c0.177-0.677-0.073-1.177-0.75-1.5C244.043,450.21,245.521,454.55,247.809,454.64z"/>
<path fill-rule="evenodd" clip-rule="evenodd" fill="#F7931E" stroke="#000000" stroke-width="2" stroke-linecap="square" stroke-miterlimit="10" d="  M263.559,450.14c-1.234-0.042-3.417,3.378-6.75,0.75c0-0.75,0-1.5,0-2.25C260.374,446.675,262.129,450.091,263.559,450.14z"/>
<path fill-rule="evenodd" clip-rule="evenodd" fill="#F7931E" stroke="#000000" stroke-width="2" stroke-linecap="square" stroke-miterlimit="10" d="  M280.809,444.89c-2.493-0.096-3.118,3.816-6.75,0.75c0-0.75,0-1.5,0-2.25C277.127,441.706,279.655,444.846,280.809,444.89z"/>
<path fill-rule="evenodd" clip-rule="evenodd" fill="#F7931E" stroke="#000000" stroke-width="2" stroke-linecap="square" stroke-miterlimit="10" d="  M298.059,438.89c-1.817-0.214-3.913,3.96-6.75-0.75C295.471,434.164,296.515,438.708,298.059,438.89z"/>
<path fill-rule="evenodd" clip-rule="evenodd" fill="#F7931E" stroke="#000000" stroke-width="2" stroke-linecap="square" stroke-miterlimit="10" d="  M315.309,437.39c-2.495-0.093-3.118,3.816-6.75,0.75c0-0.75,0-1.5,0-2.25C312.015,433.927,312.865,437.299,315.309,437.39z"/>
<path fill-rule="evenodd" clip-rule="evenodd" fill="#F7931E" stroke="#000000" stroke-width="2" stroke-linecap="square" stroke-miterlimit="10" d="  M332.559,436.64c-1-0.1-3.496,3.316-6.75,0.75c0-0.75,0-1.5,0-2.25C330.738,431.779,331.091,436.495,332.559,436.64z"/>
<path fill-rule="evenodd" clip-rule="evenodd" fill="#F7931E" stroke="#000000" stroke-width="2" stroke-linecap="square" stroke-miterlimit="10" d="  M351.309,436.64c-2.342-0.241-3.13,3.807-6.75,0.75c0-0.75,0-1.5,0-2.25C348.872,432.127,350.163,436.522,351.309,436.64z"/>
<path fill-rule="evenodd" clip-rule="evenodd" fill="#F7931E" stroke="#000000" stroke-width="2" stroke-linecap="square" stroke-miterlimit="10" d="  M367.059,441.89c-2.566,0-3.121,3.814-6.75,0.75c0-0.5,0-1,0-1.5C363.675,438.486,365.712,441.89,367.059,441.89z"/>
<path fill-rule="evenodd" clip-rule="evenodd" fill="#F7931E" stroke="#000000" stroke-width="2" stroke-linecap="square" stroke-miterlimit="10" d="  M480.311,340.64c-0.38,1.81,2.851,3.589,0,6.75c-0.75,0-1.5,0-2.25,0C475.415,342.438,479.838,342.89,480.311,340.64z"/>
<path fill-rule="evenodd" clip-rule="evenodd" fill="#F7931E" stroke="#000000" stroke-width="2" stroke-linecap="square" stroke-miterlimit="10" d="  M486.311,326.39c0.009-0.141,2.83,2.925,1.5,6c-1-0.354-1.75-0.104-2.25,0.75C482.526,329.779,486.201,328.242,486.311,326.39z"/>
<path fill-rule="evenodd" clip-rule="evenodd" fill="#F7931E" stroke="#000000" stroke-width="2" stroke-linecap="square" stroke-miterlimit="10" d="  M496.061,315.14c-0.076,0.346,2.23,4.028,0,6.75C490.338,319.155,495.518,317.602,496.061,315.14z"/>
<path fill-rule="evenodd" clip-rule="evenodd" fill="#F7931E" stroke="#000000" stroke-width="2" stroke-linecap="square" stroke-miterlimit="10" d="  M504.311,299.39c-0.094,0.554,2.305,3.937,0,6.75c-0.835,0.112-1.585-0.138-2.25-0.75  C500.118,301.13,504.054,300.917,504.311,299.39z"/>
<path fill-rule="evenodd" clip-rule="evenodd" fill="#F7931E" stroke="#000000" stroke-width="2" stroke-linecap="square" stroke-miterlimit="10" d="  M511.811,285.14c-0.359,1.865,2.864,3.574,0,6.75c-0.75,0-1.5,0-2.25,0C507.213,287.176,511.516,286.67,511.811,285.14z"/>
</svg>