<svg xmlns="http://www.w3.org/2000/svg" xmlns:xlink="http://www.w3.org/1999/xlink" version="1.1" id="Layer_1" x="0px" y="0px" enable-background="new 0 0 822.05 841.89" xml:space="preserve" viewBox="201.39 252.4 418.25 337.25">
<path fill-rule="evenodd" clip-rule="evenodd" fill="#FFF200" stroke="#000000" stroke-width="2" stroke-linecap="square" stroke-miterlimit="10" d="  M518.894,253.398c7.613,15.412,17.248,52.355,30.75,62.25c13.541,9.924,51.952,7.906,69,10.5  c-12.311,11.943-45.14,32.873-50.25,48.75c-5.082,15.789,9.048,51.461,12,68.25c-15.238-7.991-44.741-32.18-61.5-32.25  c-16.848-0.071-46.883,24.289-62.25,32.25c2.96-16.832,17.06-52.403,12-68.25c-5.066-15.869-37.305-36.739-49.5-48.75  c17.048-2.594,55.459-0.576,69-10.5C501.646,305.753,511.28,268.81,518.894,253.398z"/>
<path fill-rule="evenodd" clip-rule="evenodd" fill="#FFF200" stroke="#000000" stroke-width="2" stroke-linecap="square" stroke-miterlimit="10" d="  M302.144,264.648c7.613,15.412,17.248,52.355,30.75,62.25c13.542,9.924,51.952,7.906,69,10.5c-12.266,11.895-44.232,32.214-49.5,48  c-5.308,15.907,8.478,51.994,11.25,69c-15.169-7.954-44.828-32.25-61.5-32.25s-46.331,24.296-61.5,32.25  c2.772-17.006,16.558-53.093,11.25-69c-5.268-15.786-37.234-36.105-49.5-48c17.048-2.594,55.458-0.576,69-10.5  C284.896,317.003,294.531,280.06,302.144,264.648z"/>
<path fill-rule="evenodd" clip-rule="evenodd" fill="#FFF200" stroke="#000000" stroke-width="2" stroke-linecap="square" stroke-miterlimit="10" d="  M419.894,398.898c7.613,15.412,17.248,52.354,30.75,62.25c13.541,9.924,51.952,7.906,69,10.5  c-12.263,12.076-44.322,32.808-49.5,48.75c-5.165,15.903,8.458,51.314,11.25,68.25c-15.169-7.954-44.828-32.25-61.5-32.25  s-46.331,24.296-61.5,32.25c2.792-16.936,16.415-52.347,11.25-68.25c-5.178-15.942-37.238-36.674-49.5-48.75  c17.048-2.594,55.458-0.576,69-10.5C402.646,451.252,412.28,414.31,419.894,398.898z"/>
</svg>