<svg xmlns="http://www.w3.org/2000/svg" xmlns:xlink="http://www.w3.org/1999/xlink" version="1.1" id="Layer_1" x="0px" y="0px" enable-background="new 0 0 822.05 841.89" xml:space="preserve" viewBox="198.75 255.61 421.71 334.21">
<path fill-rule="evenodd" clip-rule="evenodd" fill="#F7931E" stroke="#000000" stroke-width="2" stroke-linecap="square" stroke-miterlimit="10" d="  M395.5,371.357c6.973,29.363,86.25-29.999,95.25,24c0.609,3.653,0.648,83.42,15.375,58.875  c12.287-20.479,5.018-57.869,25.875-73.875c11.553-8.865,134.975,13.487,67.296-20.352c-31.674-15.837-54.438-17.37-41.046-52.398  c6.411-16.768,27.516-31.889,17.25-51c-31.116,39.229-64.662,61.473-102.75,28.5c-33.134-28.684-20.919-4.686-8.88,25.653  C477.135,344.187,425.909,363.523,395.5,371.357z"/>
<path fill-rule="evenodd" clip-rule="evenodd" fill="#F7931E" stroke="#000000" stroke-width="2" stroke-linecap="square" stroke-miterlimit="10" d="  M545.5,366.107C540.437,366.657,539.085,366.804,545.5,366.107L545.5,366.107z"/>
<path fill-rule="evenodd" clip-rule="evenodd" fill="#F7931E" stroke="#000000" stroke-width="2" stroke-linecap="square" stroke-miterlimit="10" d="  M521.5,384.107c-0.764,2.395,2.657,4.409-1.5,5.25C515.942,386.12,520.712,386.579,521.5,384.107z"/>
<path fill-rule="evenodd" clip-rule="evenodd" fill="#F7931E" stroke="#000000" stroke-width="2" stroke-linecap="square" stroke-miterlimit="10" d="  M517.75,394.607C516.509,400.324,516.37,400.961,517.75,394.607L517.75,394.607z"/>
<path fill-rule="evenodd" clip-rule="evenodd" fill="#F7931E" stroke="#000000" stroke-width="2" stroke-linecap="square" stroke-miterlimit="10" d="  M514,406.607c-0.764,2.395,2.657,4.409-1.5,5.25C508.442,408.62,513.212,409.079,514,406.607z"/>
<path fill-rule="evenodd" clip-rule="evenodd" fill="#F7931E" stroke="#000000" stroke-width="2" stroke-linecap="square" stroke-miterlimit="10" d="  M510.25,417.857c-0.802,2.308,2.699,4.117-1.5,5.25C504.905,419.503,509.354,420.437,510.25,417.857z"/>
<path fill-rule="evenodd" clip-rule="evenodd" fill="#F7931E" stroke="#000000" stroke-width="2" stroke-linecap="square" stroke-miterlimit="10" d="  M508,429.857c-0.481,2.121,3.564,3.303-1.5,5.25C504.652,431.752,507.742,430.994,508,429.857z"/>
<path fill-rule="evenodd" clip-rule="evenodd" fill="#F7931E" stroke="#000000" stroke-width="2" stroke-linecap="square" stroke-miterlimit="10" d="  M558.25,367.607c-2.604-0.074-3.254,3.651-6,0C555.102,363.005,555.472,367.528,558.25,367.607z"/>
<path fill-rule="evenodd" clip-rule="evenodd" fill="#F7931E" stroke="#000000" stroke-width="2" stroke-linecap="square" stroke-miterlimit="10" d="  M570.25,369.107c-2.328,0.207-3.13,4.334-6,0C566.994,366.404,568.055,369.302,570.25,369.107z"/>
<path fill-rule="evenodd" clip-rule="evenodd" fill="#F7931E" stroke="#000000" stroke-width="2" stroke-linecap="square" stroke-miterlimit="10" d="  M581.5,372.107c-2.036,0-2.787,4.353-5.25,0C578.713,367.754,579.464,372.107,581.5,372.107z"/>
<path fill-rule="evenodd" clip-rule="evenodd" fill="#F7931E" stroke="#000000" stroke-width="2" stroke-linecap="square" stroke-miterlimit="10" d="  M592,375.857c-2.086,0.071-2.8,4.331-5.25,0C589.075,372.534,590.204,375.918,592,375.857z"/>
<path fill-rule="evenodd" clip-rule="evenodd" fill="#F7931E" stroke="#000000" stroke-width="2" stroke-linecap="square" stroke-miterlimit="10" d="  M604.75,379.607c-2.195-0.195-3.256,2.703-6,0C601.62,375.272,602.422,379.4,604.75,379.607z"/>
<path fill-rule="evenodd" clip-rule="evenodd" fill="#F7931E" stroke="#000000" stroke-width="2" stroke-linecap="square" stroke-miterlimit="10" d="  M545.5,318.107C545.283,322.938,545.265,323.343,545.5,318.107L545.5,318.107z"/>
<path fill-rule="evenodd" clip-rule="evenodd" fill="#F7931E" stroke="#000000" stroke-width="2" stroke-linecap="square" stroke-miterlimit="10" d="  M412.75,376.607C408.757,376.767,407.171,376.83,412.75,376.607L412.75,376.607z"/>
<path fill-rule="evenodd" clip-rule="evenodd" fill="#F7931E" stroke="#000000" stroke-width="2" stroke-linecap="square" stroke-miterlimit="10" d="  M421.75,374.357C416.767,373.908,417.605,373.983,421.75,374.357L421.75,374.357z"/>
<path fill-rule="evenodd" clip-rule="evenodd" fill="#F7931E" stroke="#000000" stroke-width="2" stroke-linecap="square" stroke-miterlimit="10" d="  M431.5,371.357C427.588,370.424,427.892,370.497,431.5,371.357L431.5,371.357z"/>
<path fill-rule="evenodd" clip-rule="evenodd" fill="#F7931E" stroke="#000000" stroke-width="2" stroke-linecap="square" stroke-miterlimit="10" d="  M442,367.607C437.001,366.705,439.419,367.141,442,367.607L442,367.607z"/>
<path fill-rule="evenodd" clip-rule="evenodd" fill="#F7931E" stroke="#000000" stroke-width="2" stroke-linecap="square" stroke-miterlimit="10" d="  M451.75,366.857C447.34,366.089,448.646,366.316,451.75,366.857L451.75,366.857z"/>
<path fill-rule="evenodd" clip-rule="evenodd" fill="#F7931E" stroke="#000000" stroke-width="2" stroke-linecap="square" stroke-miterlimit="10" d="  M462.25,366.107C458.017,365.838,458.448,365.866,462.25,366.107L462.25,366.107z"/>
<path fill-rule="evenodd" clip-rule="evenodd" fill="#F7931E" stroke="#000000" stroke-width="2" stroke-linecap="square" stroke-miterlimit="10" d="  M473.5,366.107C469.059,365.896,468.534,365.872,473.5,366.107L473.5,366.107z"/>
<path fill-rule="evenodd" clip-rule="evenodd" fill="#F7931E" stroke="#000000" stroke-width="2" stroke-linecap="square" stroke-miterlimit="10" d="  M482.5,369.107C479.295,369.497,478.171,369.634,482.5,369.107L482.5,369.107z"/>
<path fill-rule="evenodd" clip-rule="evenodd" fill="#F7931E" stroke="#000000" stroke-width="2" stroke-linecap="square" stroke-miterlimit="10" d="  M550,309.857C548.552,314.371,549.018,312.921,550,309.857L550,309.857z"/>
<path fill-rule="evenodd" clip-rule="evenodd" fill="#F7931E" stroke="#000000" stroke-width="2" stroke-linecap="square" stroke-miterlimit="10" d="  M553.75,300.857C552.488,305.28,552.651,304.709,553.75,300.857L553.75,300.857z"/>
<path fill-rule="evenodd" clip-rule="evenodd" fill="#F7931E" stroke="#000000" stroke-width="2" stroke-linecap="square" stroke-miterlimit="10" d="  M559,294.107C558.408,298.319,558.273,299.278,559,294.107L559,294.107z"/>
<path fill-rule="evenodd" clip-rule="evenodd" fill="#F7931E" stroke="#000000" stroke-width="2" stroke-linecap="square" stroke-miterlimit="10" d="  M564.25,285.107C562.802,289.621,563.268,288.171,564.25,285.107L564.25,285.107z"/>
<path fill-rule="evenodd" clip-rule="evenodd" fill="#F7931E" stroke="#000000" stroke-width="2" stroke-linecap="square" stroke-miterlimit="10" d="  M568,276.857C568.038,280.914,568.037,280.732,568,276.857L568,276.857z"/>
<path fill-rule="evenodd" clip-rule="evenodd" fill="#F7931E" stroke="#000000" stroke-width="2" stroke-linecap="square" stroke-miterlimit="10" d="  M199.75,371.357c6.033,29.56,86.916-29.796,95.25,24.375c0.629,4.09,0.619,83.094,15.375,58.5  c12.178-20.297,4.98-58.07,25.875-73.875c11.443-8.655,135.666,13.833,67.296-20.352c-19.638-9.819-60.722-18.855-43.296-47.898  c9.749-16.247,26.821-34.447,21-54.75c-16.612,13.959-46.88,48.75-70.5,48.75c-25.322,0-34.631-30.623-55.5-38.25  c-0.302,15.981,25.758,56.68,17.25,64.125C251.979,349.938,226.211,364.54,199.75,371.357z"/>
<path fill-rule="evenodd" clip-rule="evenodd" fill="#F7931E" stroke="#000000" stroke-width="2" stroke-linecap="square" stroke-miterlimit="10" d="  M350.5,366.857c-2.657-0.226-3.023,2.808-6,0C347.302,362.335,347.687,366.618,350.5,366.857z"/>
<path fill-rule="evenodd" clip-rule="evenodd" fill="#F7931E" stroke="#000000" stroke-width="2" stroke-linecap="square" stroke-miterlimit="10" d="  M325.75,384.857C323.323,391,323.867,389.624,325.75,384.857L325.75,384.857z"/>
<path fill-rule="evenodd" clip-rule="evenodd" fill="#F7931E" stroke="#000000" stroke-width="2" stroke-linecap="square" stroke-miterlimit="10" d="  M322,395.357c-0.344,1.483,3.184,3.205-1.5,5.25C318.363,396.794,321.714,396.59,322,395.357z"/>
<path fill-rule="evenodd" clip-rule="evenodd" fill="#F7931E" stroke="#000000" stroke-width="2" stroke-linecap="square" stroke-miterlimit="10" d="  M318.25,407.357C316.103,413.498,316.5,412.361,318.25,407.357L318.25,407.357z"/>
<path fill-rule="evenodd" clip-rule="evenodd" fill="#F7931E" stroke="#000000" stroke-width="2" stroke-linecap="square" stroke-miterlimit="10" d="  M314.5,417.857c-0.764,2.395,2.657,4.409-1.5,5.25C308.942,419.87,313.711,420.329,314.5,417.857z"/>
<path fill-rule="evenodd" clip-rule="evenodd" fill="#F7931E" stroke="#000000" stroke-width="2" stroke-linecap="square" stroke-miterlimit="10" d="  M312.25,429.857C311.172,435.632,311.052,436.272,312.25,429.857L312.25,429.857z"/>
<path fill-rule="evenodd" clip-rule="evenodd" fill="#F7931E" stroke="#000000" stroke-width="2" stroke-linecap="square" stroke-miterlimit="10" d="  M362.5,367.607c-2.24,0.065-3.102,4.377-6,0C359.19,364.293,360.546,367.664,362.5,367.607z"/>
<path fill-rule="evenodd" clip-rule="evenodd" fill="#F7931E" stroke="#000000" stroke-width="2" stroke-linecap="square" stroke-miterlimit="10" d="  M374.5,369.857c-1.954-0.057-3.31,3.314-6,0C371.398,365.48,372.26,369.792,374.5,369.857z"/>
<path fill-rule="evenodd" clip-rule="evenodd" fill="#F7931E" stroke="#000000" stroke-width="2" stroke-linecap="square" stroke-miterlimit="10" d="  M385.75,372.107C380.561,372.634,379.257,372.766,385.75,372.107L385.75,372.107z"/>
<path fill-rule="evenodd" clip-rule="evenodd" fill="#F7931E" stroke="#000000" stroke-width="2" stroke-linecap="square" stroke-miterlimit="10" d="  M396.25,375.857C391.061,376.384,389.757,376.516,396.25,375.857L396.25,375.857z"/>
<path fill-rule="evenodd" clip-rule="evenodd" fill="#F7931E" stroke="#000000" stroke-width="2" stroke-linecap="square" stroke-miterlimit="10" d="  M409,379.607c-1.978-0.064-3.004,3.148-6,0C406.205,375.502,406.692,379.532,409,379.607z"/>
<path fill-rule="evenodd" clip-rule="evenodd" fill="#F7931E" stroke="#000000" stroke-width="2" stroke-linecap="square" stroke-miterlimit="10" d="  M349.75,318.857C349.788,322.914,349.787,322.732,349.75,318.857L349.75,318.857z"/>
<path fill-rule="evenodd" clip-rule="evenodd" fill="#F7931E" stroke="#000000" stroke-width="2" stroke-linecap="square" stroke-miterlimit="10" d="  M217,377.357C211.894,376.473,212.36,376.553,217,377.357L217,377.357z"/>
<path fill-rule="evenodd" clip-rule="evenodd" fill="#F7931E" stroke="#000000" stroke-width="2" stroke-linecap="square" stroke-miterlimit="10" d="  M226,374.357C221.411,374.357,221.411,374.357,226,374.357L226,374.357z"/>
<path fill-rule="evenodd" clip-rule="evenodd" fill="#F7931E" stroke="#000000" stroke-width="2" stroke-linecap="square" stroke-miterlimit="10" d="  M235.75,371.357C232.068,371.137,231.51,371.104,235.75,371.357L235.75,371.357z"/>
<path fill-rule="evenodd" clip-rule="evenodd" fill="#F7931E" stroke="#000000" stroke-width="2" stroke-linecap="square" stroke-miterlimit="10" d="  M246.25,367.607C241.824,367.591,242.843,367.595,246.25,367.607L246.25,367.607z"/>
<path fill-rule="evenodd" clip-rule="evenodd" fill="#F7931E" stroke="#000000" stroke-width="2" stroke-linecap="square" stroke-miterlimit="10" d="  M256,366.857C252.129,366.857,252.129,366.857,256,366.857L256,366.857z"/>
<path fill-rule="evenodd" clip-rule="evenodd" fill="#F7931E" stroke="#000000" stroke-width="2" stroke-linecap="square" stroke-miterlimit="10" d="  M266.5,366.107C263.759,366.272,261.871,366.387,266.5,366.107L266.5,366.107z"/>
<path fill-rule="evenodd" clip-rule="evenodd" fill="#F7931E" stroke="#000000" stroke-width="2" stroke-linecap="square" stroke-miterlimit="10" d="  M277.75,366.107C274.061,366.263,272.531,366.328,277.75,366.107L277.75,366.107z"/>
<path fill-rule="evenodd" clip-rule="evenodd" fill="#F7931E" stroke="#000000" stroke-width="2" stroke-linecap="square" stroke-miterlimit="10" d="  M286.75,369.857C282.421,369.33,283.545,369.467,286.75,369.857L286.75,369.857z"/>
<path fill-rule="evenodd" clip-rule="evenodd" fill="#F7931E" stroke="#000000" stroke-width="2" stroke-linecap="square" stroke-miterlimit="10" d="  M354.25,309.857C352.989,314.28,353.151,313.709,354.25,309.857L354.25,309.857z"/>
<path fill-rule="evenodd" clip-rule="evenodd" fill="#F7931E" stroke="#000000" stroke-width="2" stroke-linecap="square" stroke-miterlimit="10" d="  M358,300.857C356.748,305.698,356.772,305.604,358,300.857L358,300.857z"/>
<path fill-rule="evenodd" clip-rule="evenodd" fill="#F7931E" stroke="#000000" stroke-width="2" stroke-linecap="square" stroke-miterlimit="10" d="  M363.25,294.857C362.864,297.944,362.651,299.653,363.25,294.857L363.25,294.857z"/>
<path fill-rule="evenodd" clip-rule="evenodd" fill="#F7931E" stroke="#000000" stroke-width="2" stroke-linecap="square" stroke-miterlimit="10" d="  M368.5,285.107C367.239,289.53,367.401,288.959,368.5,285.107L368.5,285.107z"/>
<path fill-rule="evenodd" clip-rule="evenodd" fill="#F7931E" stroke="#000000" stroke-width="2" stroke-linecap="square" stroke-miterlimit="10" d="  M372.25,276.857C372.426,280.546,372.478,281.626,372.25,276.857L372.25,276.857z"/>
<path fill-rule="evenodd" clip-rule="evenodd" fill="#F7931E" stroke="#000000" stroke-width="2" stroke-linecap="square" stroke-miterlimit="10" d="  M294.25,501.107c6.666,29.474,86.312-29.631,95.25,24c0.618,3.707,0.351,83.915,15.375,58.875  c12.207-20.345,4.995-58.04,25.875-73.875c11.384-8.633,135.158,13.579,67.296-20.352c-19.606-9.804-60.693-18.902-43.296-47.898  c9.34-15.565,28.576-36.78,19.5-55.5c-32.036,40.959-67.676,63.573-105.75,25.5c-35.566-35.566-9.212,20.256-2.217,37.883  C375.531,473.045,314.157,495.55,294.25,501.107z"/>
<path fill-rule="evenodd" clip-rule="evenodd" fill="#F7931E" stroke="#000000" stroke-width="2" stroke-linecap="square" stroke-miterlimit="10" d="  M444.25,495.857C439.187,496.408,437.835,496.554,444.25,495.857L444.25,495.857z"/>
<path fill-rule="evenodd" clip-rule="evenodd" fill="#F7931E" stroke="#000000" stroke-width="2" stroke-linecap="square" stroke-miterlimit="10" d="  M420.25,513.857c-0.764,2.395,2.657,4.409-1.5,5.25C414.692,515.87,419.462,516.33,420.25,513.857z"/>
<path fill-rule="evenodd" clip-rule="evenodd" fill="#F7931E" stroke="#000000" stroke-width="2" stroke-linecap="square" stroke-miterlimit="10" d="  M416.5,524.357C414.855,530.997,415.115,529.948,416.5,524.357L416.5,524.357z"/>
<path fill-rule="evenodd" clip-rule="evenodd" fill="#F7931E" stroke="#000000" stroke-width="2" stroke-linecap="square" stroke-miterlimit="10" d="  M412.75,537.107C410.323,543.25,410.867,541.874,412.75,537.107L412.75,537.107z"/>
<path fill-rule="evenodd" clip-rule="evenodd" fill="#F7931E" stroke="#000000" stroke-width="2" stroke-linecap="square" stroke-miterlimit="10" d="  M409,547.607c-0.785,2.32,2.688,4.12-1.5,5.25C403.464,549.637,408.163,550.081,409,547.607z"/>
<path fill-rule="evenodd" clip-rule="evenodd" fill="#F7931E" stroke="#000000" stroke-width="2" stroke-linecap="square" stroke-miterlimit="10" d="  M406.75,559.607C405.671,564.929,405.4,566.267,406.75,559.607L406.75,559.607z"/>
<path fill-rule="evenodd" clip-rule="evenodd" fill="#F7931E" stroke="#000000" stroke-width="2" stroke-linecap="square" stroke-miterlimit="10" d="  M457,497.357c-2.604-0.074-3.254,3.651-6,0C453.852,492.755,454.222,497.278,457,497.357z"/>
<path fill-rule="evenodd" clip-rule="evenodd" fill="#F7931E" stroke="#000000" stroke-width="2" stroke-linecap="square" stroke-miterlimit="10" d="  M469,498.857c-2.328,0.207-3.13,4.335-6,0C465.744,496.155,466.805,499.052,469,498.857z"/>
<path fill-rule="evenodd" clip-rule="evenodd" fill="#F7931E" stroke="#000000" stroke-width="2" stroke-linecap="square" stroke-miterlimit="10" d="  M480.25,501.857c-2.086,0.071-2.8,4.331-5.25,0C477.325,498.535,478.454,501.918,480.25,501.857z"/>
<path fill-rule="evenodd" clip-rule="evenodd" fill="#F7931E" stroke="#000000" stroke-width="2" stroke-linecap="square" stroke-miterlimit="10" d="  M490.75,505.607c-2.086,0.071-2.8,4.331-5.25,0C487.825,502.285,488.954,505.668,490.75,505.607z"/>
<path fill-rule="evenodd" clip-rule="evenodd" fill="#F7931E" stroke="#000000" stroke-width="2" stroke-linecap="square" stroke-miterlimit="10" d="  M503.5,509.357c-2.195-0.195-3.256,2.702-6,0C500.37,505.022,501.172,509.15,503.5,509.357z"/>
<path fill-rule="evenodd" clip-rule="evenodd" fill="#F7931E" stroke="#000000" stroke-width="2" stroke-linecap="square" stroke-miterlimit="10" d="  M444.25,447.857C443.84,452.237,443.72,453.522,444.25,447.857L444.25,447.857z"/>
<path fill-rule="evenodd" clip-rule="evenodd" fill="#F7931E" stroke="#000000" stroke-width="2" stroke-linecap="square" stroke-miterlimit="10" d="  M311.5,506.357C307.137,506.73,306.1,506.819,311.5,506.357L311.5,506.357z"/>
<path fill-rule="evenodd" clip-rule="evenodd" fill="#F7931E" stroke="#000000" stroke-width="2" stroke-linecap="square" stroke-miterlimit="10" d="  M320.5,504.107C315.1,503.645,316.137,503.734,320.5,504.107L320.5,504.107z"/>
<path fill-rule="evenodd" clip-rule="evenodd" fill="#F7931E" stroke="#000000" stroke-width="2" stroke-linecap="square" stroke-miterlimit="10" d="  M330.25,501.107C325.25,500.205,327.668,500.641,330.25,501.107L330.25,501.107z"/>
<path fill-rule="evenodd" clip-rule="evenodd" fill="#F7931E" stroke="#000000" stroke-width="2" stroke-linecap="square" stroke-miterlimit="10" d="  M340.75,497.357C336.137,496.94,337.336,497.048,340.75,497.357L340.75,497.357z"/>
<path fill-rule="evenodd" clip-rule="evenodd" fill="#F7931E" stroke="#000000" stroke-width="2" stroke-linecap="square" stroke-miterlimit="10" d="  M350.5,496.607C346.171,496.08,347.295,496.217,350.5,496.607L350.5,496.607z"/>
<path fill-rule="evenodd" clip-rule="evenodd" fill="#F7931E" stroke="#000000" stroke-width="2" stroke-linecap="square" stroke-miterlimit="10" d="  M361,495.857C356.519,495.923,357.373,495.911,361,495.857L361,495.857z"/>
<path fill-rule="evenodd" clip-rule="evenodd" fill="#F7931E" stroke="#000000" stroke-width="2" stroke-linecap="square" stroke-miterlimit="10" d="  M372.25,495.857C367.318,495.857,367.318,495.857,372.25,495.857L372.25,495.857z"/>
<path fill-rule="evenodd" clip-rule="evenodd" fill="#F7931E" stroke="#000000" stroke-width="2" stroke-linecap="square" stroke-miterlimit="10" d="  M381.25,498.857C377.183,499.509,377.557,499.449,381.25,498.857L381.25,498.857z"/>
<path fill-rule="evenodd" clip-rule="evenodd" fill="#F7931E" stroke="#000000" stroke-width="2" stroke-linecap="square" stroke-miterlimit="10" d="  M448,439.607C448.276,444.133,448.228,443.342,448,439.607L448,439.607z"/>
<path fill-rule="evenodd" clip-rule="evenodd" fill="#F7931E" stroke="#000000" stroke-width="2" stroke-linecap="square" stroke-miterlimit="10" d="  M452.5,430.607C451.238,435.03,451.401,434.459,452.5,430.607L452.5,430.607z"/>
<path fill-rule="evenodd" clip-rule="evenodd" fill="#F7931E" stroke="#000000" stroke-width="2" stroke-linecap="square" stroke-miterlimit="10" d="  M457.75,423.857C456.865,428.963,456.946,428.498,457.75,423.857L457.75,423.857z"/>
<path fill-rule="evenodd" clip-rule="evenodd" fill="#F7931E" stroke="#000000" stroke-width="2" stroke-linecap="square" stroke-miterlimit="10" d="  M463,414.857C461.498,419.885,462.103,417.862,463,414.857L463,414.857z"/>
<path fill-rule="evenodd" clip-rule="evenodd" fill="#F7931E" stroke="#000000" stroke-width="2" stroke-linecap="square" stroke-miterlimit="10" d="  M466.75,406.607C466.816,410.587,466.826,411.169,466.75,406.607L466.75,406.607z"/>
</svg>