<svg xmlns="http://www.w3.org/2000/svg" xmlns:xlink="http://www.w3.org/1999/xlink" version="1.1" id="Layer_1" x="0px" y="0px" enable-background="new 0 0 822.05 841.89" xml:space="preserve" viewBox="209.06 250.76 405.72 341.75">
<path fill-rule="evenodd" clip-rule="evenodd" fill="#0DB14B" stroke="#000000" stroke-width="2" stroke-linecap="square" stroke-miterlimit="10" d="  M612.066,251.757c0,38.705,6.668,339.75-6.291,339.75c-131.903,0-263.807,0-395.711,0c57.169-72.99,117.441-143.431,184.612-207.472  C453.113,328.319,527.279,258.542,612.066,251.757z"/>
<path fill-rule="evenodd" clip-rule="evenodd" fill="#ED1C24" stroke="#000000" stroke-width="2" stroke-linecap="square" stroke-miterlimit="10" d="  M234.814,300.507c16.5-13,33-26,49.5-39c15.5,25,31,50,46.5,75c11.75-7.75,23.5-15.5,35.25-23.25c-2.25,27-4.5,54-6.75,81  c-28.25-2.75-56.5-5.5-84.75-8.25c10.75-9,21.5-18,32.25-27C282.814,339.507,258.814,320.007,234.814,300.507z"/>
</svg>