<svg xmlns="http://www.w3.org/2000/svg" xmlns:xlink="http://www.w3.org/1999/xlink" version="1.1" id="Layer_1" x="0px" y="0px" enable-background="new 0 0 822.05 841.89" xml:space="preserve" viewBox="202.84 313.47 413.75 214.94">
<path fill-rule="evenodd" clip-rule="evenodd" fill="#007647" stroke="#000000" stroke-width="2" stroke-linecap="square" stroke-miterlimit="10" d="  M203.842,456.967c9.313-46.711,36.37-31.007,66.75-33.75c46.616-4.21,64.792-59.25,119.625-59.25  c54.03,0,101.781,42.669,136.125,79.875c13.829,14.981,22.49,41.515,43.875,47.625c15.188,4.34,30.509,1.037,45.375,3.75  c-21.614,21.113-70.771,15.964-95.25,1.5c-5.121-3.026-19.531-20.663-23.25-21c-13.752-1.245-1.124,0.202-14.25,8.25  c-7.399,4.537-20.841,19.691-23.25,28.125c-2.439,8.539-9.145,17.978-22.5,10.875c-13.772-7.324-0.811-9.022-7.5-21.75  c-16.925-32.203-40.882-14.547-69.75-31.5c-2.303,16.121,0.668,49.481-19.5,56.25c-27.065,9.083-22.218-27.238-23.083-43.389  c-0.128-2.396-72.938-29.433-77.792-26.736C227.458,462.514,208.371,474.089,203.842,456.967z"/>
<path fill="none" stroke="#000000" stroke-width="2" stroke-linecap="square" stroke-miterlimit="10" d="M317.092,479.467  c-11.81-57.287,51.977-64.02,42.75-7.5"/>
<path fill="none" stroke="#000000" stroke-width="2" stroke-linecap="square" stroke-miterlimit="10" d="M413.844,478.717  c-3.625-29.124,2.828-93.38,47.998-84c34.354,7.134,37.279,55.217,29.25,81"/>
<path fill="none" stroke="#000000" stroke-width="2" stroke-linecap="square" stroke-miterlimit="10" d="M204.592,462.967  c12.55,0.347,23.133-7.954,31.5-18"/>
<path fill-rule="evenodd" clip-rule="evenodd" fill="#967A66" stroke="#000000" stroke-width="2" stroke-linecap="square" stroke-miterlimit="10" d="  M224.092,438.217c4.288-5.255,4.574-10.258,14.25-9.75C236.229,438.195,231.272,436.377,224.092,438.217z"/>
<path fill-rule="evenodd" clip-rule="evenodd" fill="#007647" stroke="#000000" stroke-width="2" stroke-linecap="square" stroke-miterlimit="10" d="  M311.092,480.217C335.807,499.737,290.303,547.381,311.092,480.217L311.092,480.217z"/>
<path fill-rule="evenodd" clip-rule="evenodd" fill="#007647" stroke="#000000" stroke-width="2" stroke-linecap="square" stroke-miterlimit="10" d="  M356.092,497.467c8.627-0.11,89.367,1.642,54.752-18c-12.173-6.907-33.846,1.873-48.752-7.5  C360.169,480.137,356.624,489.113,356.092,497.467z"/>
<path fill-rule="evenodd" clip-rule="evenodd" fill="#007647" stroke="#000000" stroke-width="2" stroke-linecap="square" stroke-miterlimit="10" d="  M420.592,489.217C400.201,516.039,448.75,513.743,420.592,489.217L420.592,489.217z"/>
<path fill-rule="evenodd" clip-rule="evenodd" fill="#BCBEC0" stroke="#000000" stroke-width="2" stroke-linecap="square" stroke-miterlimit="10" d="  M302.092,408.967C263.474,374.906,335.751,384.541,302.092,408.967L302.092,408.967z"/>
<path fill-rule="evenodd" clip-rule="evenodd" fill="#BCBEC0" stroke="#000000" stroke-width="2" stroke-linecap="square" stroke-miterlimit="10" d="  M303.592,383.467c-1.127-5.23,0.516-11.861,0.75-17.25c21.43-1.245,29.321,21.019,7.5,30  C309.245,392.205,305.147,387.951,303.592,383.467z"/>
<path fill-rule="evenodd" clip-rule="evenodd" fill="#BCBEC0" stroke="#000000" stroke-width="2" stroke-linecap="square" stroke-miterlimit="10" d="  M317.092,366.967c-1.412-5.112,0-11.898,0-17.25c14.559-1.35,23.26,9.612,29.25,21.75c-3.999,4.243-13.17,10.383-18.75,12  C324.326,378.334,318.887,372.724,317.092,366.967z"/>
<path fill-rule="evenodd" clip-rule="evenodd" fill="#BCBEC0" stroke="#000000" stroke-width="2" stroke-linecap="square" stroke-miterlimit="10" d="  M332.092,351.967c-0.79-7.391,1.02-15.813,1.5-23.25c7.75,5.5,15.5,11,23.25,16.5c0.804-8.321,5.556-16.412,6-24.75  c4.127,7.383,11.542,12.91,15.75,20.25c5-8.75,10-17.5,15-26.25c17.636,15.982,23.526,28.492,44.25,9  c-1.005,8.582,2.333,17.646,1.5,26.25c4.742-5.292,13.352-7.644,18-12c-1.15,8.367,1.428,17.779,1.5,26.25  c5.036-4.598,13.596-5.27,18.75-9.75c-0.867,21.361,17.869,12.941,15.75,30.75c4.5-0.5,9-1,13.5-1.5  c0.11,21.491,52.69,56.257,33,75.75c-28.308-41.953-64.753-58.418-104.25-84.75C403.012,352.748,347.868,383.713,332.092,351.967z"/>
<path fill-rule="evenodd" clip-rule="evenodd" fill="#BCBEC0" d="M354.592,344.467c0.31,19.438,12.419,24.206,29.25,18  C385.179,340.903,372.608,336.788,354.592,344.467z"/>
<path fill="none" stroke="#000000" stroke-width="2" stroke-linecap="square" stroke-miterlimit="10" d="M354.592,344.467  c0.31,19.438,12.419,24.206,29.25,18c-1.619-6.708-1.869-15.813-5.25-21.75"/>
<path fill-rule="evenodd" clip-rule="evenodd" fill="#BCBEC0" d="M417.592,336.217c-1.739,6.436-12.846,49.97,13.5,34.5  C452.039,358.417,429.198,340.648,417.592,336.217z"/>
<path fill="none" stroke="#000000" stroke-width="2" stroke-linecap="square" stroke-miterlimit="10" d="M417.592,336.217  c-2.465,9.119-12.489,26.146-2.056,29.5c15.885,5.106,21.404,3.562,23.806-16"/>
<path fill="none" stroke="#000000" stroke-width="2" stroke-linecap="square" stroke-miterlimit="10" d="M458.842,363.967  c-3.818,4.138-5.706,11.413-8.25,16.5c12.867,12.15,23.21,3.595,30.75-9.75"/>
<path fill="none" stroke="#000000" stroke-width="2" stroke-linecap="square" stroke-miterlimit="10" d="M493.342,384.967  c-4.822,2.821-8.768,8.768-12.75,12.75c7.91,10.733,17.936,9.203,27,0"/>
<path fill="none" stroke="#000000" stroke-width="2" stroke-linecap="square" stroke-miterlimit="10" d="M519.592,414.967  c-4.485,1.57-8.732,5.65-12.75,8.25c7.117,8.578,14.957,7.969,23.25,0"/>
<line fill="none" stroke="#000000" stroke-width="2" stroke-linecap="square" stroke-miterlimit="10" x1="537.592" y1="438.967" x2="530.092" y2="444.217"/>
</svg>