<svg xmlns="http://www.w3.org/2000/svg" xmlns:xlink="http://www.w3.org/1999/xlink" version="1.1" id="Layer_1" x="0px" y="0px" enable-background="new 0 0 822.05 841.89" xml:space="preserve" viewBox="290.1 260.29 237.92 320.76">
<path fill-rule="evenodd" clip-rule="evenodd" fill="#D1D1D2" stroke="#000000" stroke-width="2" stroke-linecap="square" stroke-miterlimit="10" d="  M526,414.897c-60.9,0-121.8,0-182.7,0c-9.575,0-46.8,6.217-46.8-5.442c0-15.731-10.085-82.434,0-92.808  c6.701-6.893,56.89,0,66.182,0c38.839,0,77.679,0,116.518,0c9.575,0,46.8-6.217,46.8,5.442C526,353.025,526,383.961,526,414.897z"/>
<path fill-rule="evenodd" clip-rule="evenodd" fill="#878787" stroke="#000000" stroke-width="2" stroke-linecap="square" stroke-miterlimit="10" d="  M449.5,391.647c-11.854,0-64.914,7.619-72,0c-3.708-3.987-3.708-71.013,0-75c2.983-3.208,69.018-3.208,72,0  C457.847,325.622,449.5,378.155,449.5,391.647z"/>
<path fill-rule="evenodd" clip-rule="evenodd" fill="#D1D1D2" stroke="#000000" stroke-width="2" stroke-linecap="square" stroke-miterlimit="10" d="  M449.5,391.647c-10.713,0-97.791,9.329-72-21.75c3.73-4.495,40.603,0,46.656,0C442.733,369.897,457.259,366.039,449.5,391.647z"/>
<path fill-rule="evenodd" clip-rule="evenodd" fill="#D1D1D2" stroke="#000000" stroke-width="2" stroke-linecap="square" stroke-miterlimit="10" d="  M440.5,361.647c-15.188,0-30.375,0-45.562,0c-11.622,0-15.743-27.834-8.438-34.5c5.465-4.986,37.832,0,45.562,0  C447.777,327.147,440.5,348.364,440.5,361.647z"/>
<path fill-rule="evenodd" clip-rule="evenodd" fill="#878787" stroke="#000000" stroke-width="2" stroke-linecap="square" stroke-miterlimit="10" d="  M526,294.147c-44.071,0-88.143,0-132.214,0c-7.248,0-125.417-7.105-98.786,19.5c13.99,13.976,112.326,0,132.214,0  C448.084,313.647,537.526,330.084,526,294.147z"/>
<path fill="none" stroke="#000000" stroke-width="2" stroke-linecap="square" stroke-miterlimit="10" d="M310,309.147  C300.424,299.563,307.042,291.477,310,309.147L310,309.147z"/>
<path fill-rule="evenodd" clip-rule="evenodd" fill="#D1D1D2" stroke="#000000" stroke-width="2" stroke-linecap="square" stroke-miterlimit="10" d="  M508.75,309.897c-35.824,0-71.648,0-107.473,0c-8.062,0-99.475,5.426-85.277-12c8.434-10.352,93.718,0,107.474,0  C440.641,297.897,512.534,286.263,508.75,309.897z"/>
<path fill="none" stroke="#000000" stroke-width="2" stroke-linecap="square" stroke-miterlimit="10" d="M521.5,309.897  C507.039,305.135,517.657,287.577,521.5,309.897L521.5,309.897z"/>
<path fill-rule="evenodd" clip-rule="evenodd" stroke="#000000" stroke-width="2" stroke-linecap="square" stroke-miterlimit="10" d="  M432.25,385.647C347.06,385.647,441.466,352.562,432.25,385.647L432.25,385.647z"/>
<path fill-rule="evenodd" clip-rule="evenodd" fill="#878787" stroke="#000000" stroke-width="2" stroke-linecap="square" stroke-miterlimit="10" d="  M373.75,372.147c-0.723,48.094-73.999,48.013-73.5,0C300.74,324.991,372.174,325.059,373.75,372.147z"/>
<path fill-rule="evenodd" clip-rule="evenodd" fill="#878787" stroke="#000000" stroke-width="2" stroke-linecap="square" stroke-miterlimit="10" d="  M524.5,371.397c-1.62,47.255-74.291,47.354-74.25,0C450.291,323.985,522.21,324.314,524.5,371.397z"/>
<path fill-rule="evenodd" clip-rule="evenodd" fill="#878787" stroke="#000000" stroke-width="2" stroke-linecap="square" stroke-miterlimit="10" d="  M318.25,333.147C275.845,344.928,325.253,296.302,318.25,333.147L318.25,333.147z"/>
<path fill-rule="evenodd" clip-rule="evenodd" fill="#878787" stroke="#000000" stroke-width="2" stroke-linecap="square" stroke-miterlimit="10" d="  M521.5,333.897C474.018,347.181,531.161,294.677,521.5,333.897L521.5,333.897z"/>
<path fill-rule="evenodd" clip-rule="evenodd" d="M404.5,342.897C397.688,343.015,397.704,343.014,404.5,342.897L404.5,342.897z"/>
<path fill-rule="evenodd" clip-rule="evenodd" d="M429.25,342.897C421.303,343.012,421.253,343.013,429.25,342.897L429.25,342.897z"/>
<path fill-rule="evenodd" clip-rule="evenodd" fill="#878787" stroke="#000000" stroke-width="2" stroke-linecap="square" stroke-miterlimit="10" d="  M303.25,293.397c-5.548-33.779,74.872-18,92.254-18c19.66,0,127.516-18.588,117.746,18.75c1.75,0,3.5,0,5.25,0  c8.548-48.828-93.489-28.688-121.655-28.995c-28.5-0.311-57-0.622-85.499-0.933C297.475,264.068,295.093,289.756,303.25,293.397z"/>
<path fill-rule="evenodd" clip-rule="evenodd" stroke="#000000" stroke-width="2" stroke-linecap="square" stroke-miterlimit="10" d="  M365.5,372.147c-1.607,36.814-57.52,37.148-57,0C309.009,335.766,363.045,336.429,365.5,372.147z"/>
<path fill-rule="evenodd" clip-rule="evenodd" stroke="#000000" stroke-width="2" stroke-linecap="square" stroke-miterlimit="10" d="  M516.25,371.397c-2.504,35.952-57.338,37.257-57,0C459.585,334.493,514.529,335.366,516.25,371.397z"/>
<path fill-rule="evenodd" clip-rule="evenodd" fill="#D1D1D2" stroke="#000000" stroke-width="2" stroke-linecap="square" stroke-miterlimit="10" d="  M526,578.397c-60.9,0-121.8,0-182.7,0c-9.575,0-46.8,6.217-46.8-5.442c0-15.731-10.085-82.434,0-92.808  c6.701-6.893,56.89,0,66.182,0c38.839,0,77.679,0,116.518,0c9.575,0,46.8-6.217,46.8,5.442C526,516.525,526,547.461,526,578.397z"/>
<path fill-rule="evenodd" clip-rule="evenodd" fill="#878787" stroke="#000000" stroke-width="2" stroke-linecap="square" stroke-miterlimit="10" d="  M449.5,554.397c-11.854,0-64.914,7.619-72,0c-3.708-3.986-3.708-71.014,0-75c2.983-3.207,69.018-3.207,72,0  C457.847,488.372,449.5,540.905,449.5,554.397z"/>
<path fill-rule="evenodd" clip-rule="evenodd" fill="#D1D1D2" stroke="#000000" stroke-width="2" stroke-linecap="square" stroke-miterlimit="10" d="  M449.5,554.397c-10.713,0-97.791,9.329-72-21.75c3.73-4.495,40.603,0,46.656,0C442.733,532.647,457.259,528.789,449.5,554.397z"/>
<path fill-rule="evenodd" clip-rule="evenodd" fill="#D1D1D2" stroke="#000000" stroke-width="2" stroke-linecap="square" stroke-miterlimit="10" d="  M440.5,524.397c-15.188,0-30.375,0-45.562,0c-11.496,0-15.765-26.965-8.438-33.75c5.362-4.966,37.91,0,45.562,0  C447.673,490.647,440.5,511.17,440.5,524.397z"/>
<path fill-rule="evenodd" clip-rule="evenodd" fill="#878787" stroke="#000000" stroke-width="2" stroke-linecap="square" stroke-miterlimit="10" d="  M526,457.647c-44.071,0-88.143,0-132.214,0c-7.531,0-124.06-7.146-98.786,18.75c13.51,13.844,112.712,0,132.214,0  C447.515,476.397,537.07,492.411,526,457.647z"/>
<path fill="none" stroke="#000000" stroke-width="2" stroke-linecap="square" stroke-miterlimit="10" d="M310,471.897  C300.424,462.314,307.042,454.227,310,471.897L310,471.897z"/>
<path fill-rule="evenodd" clip-rule="evenodd" fill="#D1D1D2" stroke="#000000" stroke-width="2" stroke-linecap="square" stroke-miterlimit="10" d="  M508.75,472.647c-35.824,0-71.648,0-107.473,0c-8.062,0-99.475,5.426-85.277-12c8.434-10.352,93.718,0,107.474,0  C440.641,460.647,512.534,449.013,508.75,472.647z"/>
<path fill="none" stroke="#000000" stroke-width="2" stroke-linecap="square" stroke-miterlimit="10" d="M521.5,472.647  C507.039,467.884,517.657,450.327,521.5,472.647L521.5,472.647z"/>
<path fill-rule="evenodd" clip-rule="evenodd" stroke="#000000" stroke-width="2" stroke-linecap="square" stroke-miterlimit="10" d="  M432.25,549.147C347.06,549.147,441.466,516.061,432.25,549.147L432.25,549.147z"/>
<path fill-rule="evenodd" clip-rule="evenodd" fill="#878787" stroke="#000000" stroke-width="2" stroke-linecap="square" stroke-miterlimit="10" d="  M373.75,535.647c-2.065,47.197-73.44,47.507-73.5,0C300.19,487.961,372.283,488.062,373.75,535.647z"/>
<path fill-rule="evenodd" clip-rule="evenodd" fill="#878787" stroke="#000000" stroke-width="2" stroke-linecap="square" stroke-miterlimit="10" d="  M524.5,534.147c-0.862,48.001-74.777,47.896-74.25,0C450.768,487.087,522.731,487.17,524.5,534.147z"/>
<path fill-rule="evenodd" clip-rule="evenodd" fill="#878787" stroke="#000000" stroke-width="2" stroke-linecap="square" stroke-miterlimit="10" d="  M318.25,496.647C275.845,508.427,325.253,459.802,318.25,496.647L318.25,496.647z"/>
<path fill-rule="evenodd" clip-rule="evenodd" fill="#878787" stroke="#000000" stroke-width="2" stroke-linecap="square" stroke-miterlimit="10" d="  M521.5,496.647C476.318,509.462,527.926,458.95,521.5,496.647L521.5,496.647z"/>
<path fill-rule="evenodd" clip-rule="evenodd" d="M404.5,506.397C397.8,505.65,397.543,505.621,404.5,506.397L404.5,506.397z"/>
<path fill-rule="evenodd" clip-rule="evenodd" d="M429.25,506.397C421.344,505.687,421.219,505.675,429.25,506.397L429.25,506.397z"/>
<path fill-rule="evenodd" clip-rule="evenodd" fill="#878787" stroke="#000000" stroke-width="2" stroke-linecap="square" stroke-miterlimit="10" d="  M303.25,456.147c-5.184-33.537,74.575-18,92.254-18c19.337,0,127.308-18.487,117.746,18.75c1.75,0,3.5,0,5.25,0  c8.548-48.828-93.489-28.688-121.655-28.995c-28.5-0.312-57-0.622-85.499-0.933C297.89,426.822,294.957,452.717,303.25,456.147z"/>
<path fill-rule="evenodd" clip-rule="evenodd" stroke="#000000" stroke-width="2" stroke-linecap="square" stroke-miterlimit="10" d="  M365.5,535.647c-1.691,36.344-56.677,36.685-57,0C308.175,498.722,363.341,499.313,365.5,535.647z"/>
<path fill-rule="evenodd" clip-rule="evenodd" stroke="#000000" stroke-width="2" stroke-linecap="square" stroke-miterlimit="10" d="  M516.25,534.147c-1.976,36.463-57.502,37.438-57,0C459.741,497.493,513.402,498.772,516.25,534.147z"/>
</svg>