<svg xmlns="http://www.w3.org/2000/svg" xmlns:xlink="http://www.w3.org/1999/xlink" version="1.1" id="Layer_1" x="0px" y="0px" enable-background="new 0 0 822.05 841.89" xml:space="preserve" viewBox="348.76 333.03 122.75 174.53">
<path fill-rule="evenodd" clip-rule="evenodd" stroke="#000000" stroke-width="1.25" stroke-linecap="square" stroke-miterlimit="10" d="  M353.885,497.515C392.253,495.091,352.011,512.308,353.885,497.515L353.885,497.515z"/>
<path fill-rule="evenodd" clip-rule="evenodd" stroke="#000000" stroke-width="1.25" stroke-linecap="square" stroke-miterlimit="10" d="  M359.885,462.265c-0.928,11.54-0.809,28.044-5.25,36.75C355.117,487.444,351.938,466.394,359.885,462.265z"/>
<path fill-rule="evenodd" clip-rule="evenodd" fill="#F8130D" stroke="#000000" stroke-width="1.25" stroke-linecap="square" stroke-miterlimit="10" d="  M446.889,506.515c-22.413,4.097-13.5-22.659-13.5-38.808c0-12.406-7.941-61.948,0-71.442c16.333-19.528,13.5,37.301,13.5,38.808  C446.889,458.887,446.889,482.701,446.889,506.515z"/>
<path fill-rule="evenodd" clip-rule="evenodd" fill="#878787" stroke="#000000" stroke-width="1.25" stroke-linecap="square" stroke-miterlimit="10" d="  M459.639,418.765c-39.31,47.365-56.48-60.073-39.75-78.75c6.291-7.023,31.829-9.209,39-1.5  C468.747,349.114,459.639,403.49,459.639,418.765z"/>
<path fill-rule="evenodd" clip-rule="evenodd" fill="#878787" d="M455.139,350.515l10.5-8.25L455.139,350.515z"/>
<line fill="none" stroke="#000000" stroke-width="1.25" stroke-linecap="square" stroke-miterlimit="10" x1="455.139" y1="350.515" x2="465.639" y2="342.265"/>
<path fill-rule="evenodd" clip-rule="evenodd" fill="#878787" d="M455.889,357.265h15H455.889z"/>
<line fill="none" stroke="#000000" stroke-width="1.25" stroke-linecap="square" stroke-miterlimit="10" x1="455.889" y1="357.265" x2="470.889" y2="357.265"/>
<path fill-rule="evenodd" clip-rule="evenodd" fill="#878787" d="M455.139,363.265l14.25,6.75L455.139,363.265z"/>
<line fill="none" stroke="#000000" stroke-width="1.25" stroke-linecap="square" stroke-miterlimit="10" x1="455.139" y1="363.265" x2="469.389" y2="370.015"/>
<path fill-rule="evenodd" clip-rule="evenodd" fill="#878787" d="M425.139,349.765l-11.254-8.25L425.139,349.765z"/>
<line fill="none" stroke="#000000" stroke-width="1.25" stroke-linecap="square" stroke-miterlimit="10" x1="425.139" y1="349.765" x2="413.885" y2="341.515"/>
<path fill-rule="evenodd" clip-rule="evenodd" fill="#878787" d="M423.639,356.515h-12.754H423.639z"/>
<line fill="none" stroke="#000000" stroke-width="1.25" stroke-linecap="square" stroke-miterlimit="10" x1="423.639" y1="356.515" x2="410.885" y2="356.515"/>
<path fill-rule="evenodd" clip-rule="evenodd" fill="#878787" d="M425.139,362.515l-13.504,6.75L425.139,362.515z"/>
<line fill="none" stroke="#000000" stroke-width="1.25" stroke-linecap="square" stroke-miterlimit="10" x1="425.139" y1="362.515" x2="411.635" y2="369.265"/>
<path fill-rule="evenodd" clip-rule="evenodd" fill="#FFFFFF" stroke="#000000" stroke-width="1.25" stroke-linecap="square" stroke-miterlimit="10" d="  M452.139,356.515c-2.896,15.211-25.61,17.461-24.75,0C428.216,339.728,448.761,342.349,452.139,356.515z"/>
<path fill-rule="evenodd" clip-rule="evenodd" fill="#FFFFFF" stroke="#000000" stroke-width="1.25" stroke-linecap="square" stroke-miterlimit="10" d="  M449.139,403.015C432.808,439.759,429.813,367.73,449.139,403.015L449.139,403.015z"/>
<path fill-rule="evenodd" clip-rule="evenodd" fill="#F8130D" stroke="#000000" stroke-width="1.25" stroke-linecap="square" stroke-miterlimit="10" d="  M450.639,357.265c-3.649,10.015-22.52,15.741-21,0C431.129,341.828,446.818,346.165,450.639,357.265z"/>
<path fill-rule="evenodd" clip-rule="evenodd" fill="#FFFFFF" stroke="#000000" stroke-width="1.25" stroke-linecap="square" stroke-miterlimit="10" d="  M449.139,382.015C431.55,417.069,430.512,346.284,449.139,382.015L449.139,382.015z"/>
<path fill-rule="evenodd" clip-rule="evenodd" stroke="#000000" stroke-width="1.25" stroke-linecap="square" stroke-miterlimit="10" d="  M362.885,498.265c9.535-0.658,15.539-3.018,18.75,5.25C370.93,505.806,361.258,506.142,362.885,498.265z"/>
<path fill-rule="evenodd" clip-rule="evenodd" stroke="#000000" stroke-width="1.25" stroke-linecap="square" stroke-miterlimit="10" d="  M368.885,462.265c-0.887,11.533-0.742,28.093-5.25,36.75c0.714-16.787,5.39-32.346-6-45.75c1.5-0.25,3-0.5,4.5-0.75  C363.771,456.452,366.236,459.139,368.885,462.265z"/>
<path fill-rule="evenodd" clip-rule="evenodd" fill="#F8130D" stroke="#000000" stroke-width="1.25" stroke-linecap="square" stroke-miterlimit="10" d="  M377.135,434.515c1.474-9.266,0.419-43.876-15.75-41.25C343.137,396.229,345.437,440.699,377.135,434.515z M377.885,438.265  c-5.133-4.218-16.592-5.469-25.5-3.75c-0.25,9.75-0.5,19.5-0.75,29.25c1.75,0,3.5,0,5.25,0c0-5.214-0.43-10.559,0-15.75  c-1.21,4.745,0,10.814,0,15.75C377.385,469.136,381.657,456.305,377.885,438.265z"/>
<path fill-rule="evenodd" clip-rule="evenodd" fill="#EDCBA6" stroke="#000000" stroke-width="1.25" stroke-linecap="square" stroke-miterlimit="10" d="  M373.385,377.515c1.625,19.792-19.595,19.836-24,1.5C358.262,380.446,365.028,377.774,373.385,377.515z"/>
<path fill-rule="evenodd" clip-rule="evenodd" fill="#F8130D" stroke="#000000" stroke-width="1.25" stroke-linecap="square" stroke-miterlimit="10" d="  M349.385,376.765c11.309,1.536,23.924,0.424,33.75-3.75C371.36,370.236,357.249,361.295,349.385,376.765z"/>
<path fill="none" stroke="#000000" stroke-width="1.25" stroke-linecap="square" stroke-miterlimit="10" d="M352.385,439.765  c0.476,6.33,4.171,10.346,10.5,11.25"/>
<path fill="none" stroke="#000000" stroke-width="1.25" stroke-linecap="square" stroke-miterlimit="10" d="M362.885,439.015  c4.544,1.573,9.012,0.898,12-2.25"/>
<path fill-rule="evenodd" clip-rule="evenodd" stroke="#000000" stroke-width="1.25" stroke-linecap="square" stroke-miterlimit="10" d="  M359.885,428.515c2.026-8.062,4.036-17.318,3-24c-1.384,7.302-4.429,19.762-6,24.75c4.476,3.286,9.171,7.771,14.25,9  C367.716,434.391,363.759,431.783,359.885,428.515z"/>
<path fill-rule="evenodd" clip-rule="evenodd" fill="#F8130D" stroke="#000000" stroke-width="1.25" stroke-linecap="square" stroke-miterlimit="10" d="  M365.885,418.015C385.178,375.512,332.494,414.826,365.885,418.015L365.885,418.015z"/>
</svg>