<svg xmlns="http://www.w3.org/2000/svg" xmlns:xlink="http://www.w3.org/1999/xlink" version="1.1" id="Layer_1" x="0px" y="0px" enable-background="new 0 0 822.05 841.89" xml:space="preserve" viewBox="263.59 251.25 298.72 340.74">
<path fill-rule="evenodd" clip-rule="evenodd" fill="#BCBEC0" stroke="#000000" stroke-width="2" stroke-linecap="square" stroke-miterlimit="10" d="  M310.752,305.876c-50.889,76.814-67.405,178.897-9.75,257.252c50.496,68.625,149.686-5.224,189.75-53.25  c50.013-59.952,73.826-159.199,6-216.752C445.447,249.592,348.69,242.368,310.752,305.876z"/>
<path fill-rule="evenodd" clip-rule="evenodd" fill="#6D6F71" stroke="#000000" stroke-width="2" stroke-linecap="square" stroke-miterlimit="10" d="  M316.002,299.876C288.399,276.151,388.68,230.744,316.002,299.876L316.002,299.876z"/>
<path fill-rule="evenodd" clip-rule="evenodd" fill="#6D6F71" stroke="#000000" stroke-width="2" stroke-linecap="square" stroke-miterlimit="10" d="  M438.252,265.376c6.145-26.278,54.291-8.818,38.25,15C463.752,275.376,451.002,270.376,438.252,265.376z"/>
<path fill-rule="evenodd" clip-rule="evenodd" fill="#6D6F71" stroke="#000000" stroke-width="2" stroke-linecap="square" stroke-miterlimit="10" d="  M535.752,356.126c33.916-10.474,33.196,46.434,3,48.75C537.752,388.626,536.752,372.376,535.752,356.126z"/>
<path fill-rule="evenodd" clip-rule="evenodd" fill="#DEDFE0" stroke="#000000" stroke-width="2" stroke-linecap="square" stroke-miterlimit="10" d="  M318.252,452.878c-14.817-46.966-12.535-108.847,31.5-139.502c41.713-29.039,107.552-23.247,135,22.5  c32.315,53.858,15.673,116.924-39.5,150.641C390.923,519.718,342.806,520.704,318.252,452.878z"/>
<path fill-rule="evenodd" clip-rule="evenodd" fill="#DFF3FD" stroke="#000000" stroke-width="2" stroke-linecap="square" stroke-miterlimit="10" d="  M475.752,394.376c-0.141,92.171-143.21,92.135-143.25,0C332.462,301.791,477.264,301.691,475.752,394.376z"/>
<path fill-rule="evenodd" clip-rule="evenodd" fill="#FFDB78" stroke="#000000" stroke-width="2" stroke-linecap="square" stroke-miterlimit="10" d="  M329.502,431.128c10.199,18.055,31.813,30.215,15.75,51C336.035,467.513,324.774,448.976,329.502,431.128z"/>
<path fill-rule="evenodd" clip-rule="evenodd" fill="#FFDB78" stroke="#000000" stroke-width="2" stroke-linecap="square" stroke-miterlimit="10" d="  M383.502,475.378c-3.192,5.607-3.616,13.949-5.25,20.25c19.314,2.997,41.25-2.525,54-18  C416.002,476.878,399.752,476.128,383.502,475.378z"/>
<path fill-rule="evenodd" clip-rule="evenodd" fill="#90A7D6" stroke="#000000" stroke-width="2" stroke-linecap="square" stroke-miterlimit="10" d="  M286.752,353.876c10.221,45.552,35.146,131.95-7.5,168.002C256.497,467.404,262.249,406.627,286.752,353.876z"/>
<path fill-rule="evenodd" clip-rule="evenodd" fill="#90A7D6" stroke="#000000" stroke-width="2" stroke-linecap="square" stroke-miterlimit="10" d="  M405.252,575.878c13.328-55.567,59.928-98.079,113.25-115.5C505.926,515.986,453.313,552.217,405.252,575.878z"/>
<path fill-rule="evenodd" clip-rule="evenodd" fill="#6D6F71" stroke="#000000" stroke-width="2" stroke-linecap="square" stroke-miterlimit="10" d="  M403.752,535.378c0.537,20.437-47.719,41.967-55.5,18.75C340.443,530.828,390.984,520.251,403.752,535.378z"/>
</svg>