<svg xmlns="http://www.w3.org/2000/svg" xmlns:xlink="http://www.w3.org/1999/xlink" version="1.1" id="Layer_1" x="0px" y="0px" enable-background="new 0 0 822.05 841.89" xml:space="preserve" viewBox="344.51 334.61 134.75 173.06">
<path fill-rule="evenodd" clip-rule="evenodd" fill="#F87F11" stroke="#000000" stroke-width="1.25" stroke-linecap="square" stroke-miterlimit="10" d="  M417.887,422.291c9.404,22.203-15.367,49.592-25.504,67.5c1.75-2.25,3.5-4.5,5.25-6.75c-0.5,1.75-1,3.5-1.5,5.25  C404.592,475.979,438.771,432.723,417.887,422.291z"/>
<path fill-rule="evenodd" clip-rule="evenodd" fill="#F87F11" stroke="#000000" stroke-width="1.25" stroke-linecap="square" stroke-miterlimit="10" d="  M400.633,428.291c2.042,29.279,14.242,62.882-15.75,75.75c4.956-3.033,11.173-4.387,16.5-6.75c-2.369,3.17-3.938,6.749-6,9.75  c5.679-8.468,13.409-12.09,23.254-10.5c-17.272-4.369-11.708-21.856-12.754-38.25C405.282,448.874,408.998,419.221,400.633,428.291z  "/>
<path fill-rule="evenodd" clip-rule="evenodd" fill="#FFFFFF" stroke="#000000" stroke-width="1.25" stroke-linecap="square" stroke-miterlimit="10" d="  M478.637,437.291c-27.423-30.697-40.37-77.894-96.754-70.5c9.6-9.433,12.432-32.848-7.5-31.5c-14.938,1.01-12.975,20.939,0.75,21  c-12.772,15.525-19.006,25.148-3.75,46.125c6.6,9.074,32.178,45.658,36.75,21.375C422.877,424.637,473.673,442.651,478.637,437.291z  "/>
<path fill-rule="evenodd" clip-rule="evenodd" stroke="#000000" stroke-width="1.25" stroke-linecap="square" stroke-miterlimit="10" d="  M374.383,345.791C370.576,346.169,370.036,346.223,374.383,345.791L374.383,345.791z"/>
<path fill-rule="evenodd" clip-rule="evenodd" fill="#282828" stroke="#000000" stroke-width="1.25" stroke-linecap="square" stroke-miterlimit="10" d="  M426.137,379.541c-1.98,7.288,3.081,12.684-9,12.75c6.136,16.954-12.908,16.886-24.004,14.25  c16.733,16.287,58.285,23.663,81.004,21.75c-10.187-17.885-20.178-36.944-38.25-48c-0.01-0.031,2.316,2.798,1.5,3.75  C433.26,383.274,430.062,380.389,426.137,379.541z"/>
<path fill-rule="evenodd" clip-rule="evenodd" fill="#F87F11" stroke="#000000" stroke-width="1.25" stroke-linecap="square" stroke-miterlimit="10" d="  M371.383,348.791c-10.665,6.511-18.301,15.85-26.25,25.5C356.305,366.489,367.341,361.803,371.383,348.791z"/>
</svg>