<svg xmlns="http://www.w3.org/2000/svg" xmlns:xlink="http://www.w3.org/1999/xlink" version="1.1" id="Layer_1" x="0px" y="0px" enable-background="new 0 0 822.05 841.89" xml:space="preserve" viewBox="317.55 334 186.68 173.39">
<line fill="none" stroke="#000060" stroke-linecap="square" stroke-miterlimit="10" x1="362.5" y1="424.39" x2="334" y2="485.89"/>
<line fill="none" stroke="#000060" stroke-linecap="square" stroke-miterlimit="10" x1="376" y1="426.64" x2="354.25" y2="470.14"/>
<line fill="none" stroke="#000060" stroke-linecap="square" stroke-miterlimit="10" x1="382" y1="441.64" x2="358" y2="490.39"/>
<line fill="none" stroke="#000060" stroke-linecap="square" stroke-miterlimit="10" x1="474.25" y1="417.64" x2="453.25" y2="461.14"/>
<line fill="none" stroke="#000060" stroke-linecap="square" stroke-miterlimit="10" x1="458.5" y1="421.39" x2="423.25" y2="493.39"/>
<line fill="none" stroke="#000060" stroke-linecap="square" stroke-miterlimit="10" x1="448" y1="414.64" x2="414.25" y2="487.39"/>
<path fill-rule="evenodd" clip-rule="evenodd" fill="#808080" stroke="#000000" stroke-linecap="square" stroke-miterlimit="10" d="  M357.25,359.14c6.311-23.884,62.008-7.657,46.5,15c6.708-10.612,24.881-11.149,30.75,5.25c14.937-26.219,75.893-0.201,33.75,29.25  c-14.781,10.33-27.688,14.624-44.25,18.75c-3.823,0.952-9.244-8.325-12-8.25c-3.767,0.103-6.297,10.439-11.25,9.75  c-9.466-1.318-15.887,2.089-22.5-9c-11.088,15.487-45.506-0.787-54.75-12c-10.346-12.549-5.745-43.621,12-28.5  C333.928,364.95,343.31,355.411,357.25,359.14z"/>
<path fill-rule="evenodd" clip-rule="evenodd" fill="#FFFF00" stroke="#000000" stroke-linecap="square" stroke-miterlimit="10" d="  M428.5,353.14c-7.25,5.5-14.5,11-21.75,16.5c7.553,3.831,13.32,11.45,21,15c-10.5,12-21,24-31.5,36c6.934-0.283,14.07,4.071,21,3.75  c-9,9.75-18,19.5-27,29.25c8.24-0.093,16.508,3.043,24.75,3c-9,16.75-18,33.5-27,50.25c16-18.75,32-37.5,48-56.25  c-9.25-1-18.5-2-27.75-3c9.5-9.75,19-19.5,28.5-29.25c-5.318-0.533-10.425-4.211-15.75-4.5c9-9.5,18-19,27-28.5  c-7.283-4.139-12.303-12.202-19.5-16.5c5.314-1.669,9.638-6.785,15-8.25C438.69,358.235,433.663,354.552,428.5,353.14z"/>
<path fill-rule="evenodd" clip-rule="evenodd" fill="#919190" stroke="#000000" stroke-linecap="square" stroke-miterlimit="10" d="  M460.75,397.39c42.185,33.021,58.303-42.604,25.5-34.5c16.861-24.558-44.1-44.422-54.75-9.75c-12.87-8.646-33.908-12.371-43.5,3  c-9.336,14.961,4.485,20.337,2.625,31.5C386.18,414.308,447.215,407.018,460.75,397.39z"/>
<line fill="none" stroke="#000060" stroke-linecap="square" stroke-miterlimit="10" x1="346" y1="426.64" x2="325" y2="466.39"/>
<line fill="none" stroke="#000060" stroke-linecap="square" stroke-miterlimit="10" x1="394" y1="466.39" x2="373" y2="506.14"/>
</svg>