<svg xmlns="http://www.w3.org/2000/svg" xmlns:xlink="http://www.w3.org/1999/xlink" version="1.1" id="Layer_1" x="0px" y="0px" enable-background="new 0 0 822.05 841.89" xml:space="preserve" viewBox="206.5 254.28 409.75 333.77">
<path fill-rule="evenodd" clip-rule="evenodd" fill="#DFF3FD" stroke="#000000" stroke-width="2" stroke-linecap="square" stroke-miterlimit="10" d="  M372.503,303.39c14.061,23.818,60.069-33,84.375-33c19.994,0,39.978,58.317,46.548,73.42c19.206,44.144,37.992,88.488,58.02,132.268  c2.874,6.283,43.891,107.103,53.308,78.562c5.927-17.962-43.236-92.472-51.067-109.22c-24.535-52.473-49.069-104.946-73.604-157.418  c-7.397-15.822-12.299-30.384-31.329-32.612C437.854,252.943,374.9,290.667,372.503,303.39z"/>
<path fill-rule="evenodd" clip-rule="evenodd" fill="#DFF3FD" stroke="#000000" stroke-width="2" stroke-linecap="square" stroke-miterlimit="10" d="  M207.503,329.64c15.484,26.228,60.536-38.228,85.5-33c21.21,4.441,38.543,59.472,46.954,78.521  c20.09,45.499,40.115,91.026,60.404,136.435c2.641,5.911,39.318,100.045,49.392,69.294c6.422-19.605-47.337-100.659-55.957-118.988  c-23.739-50.48-47.479-100.96-71.218-151.44c-7.071-15.036-11.472-26.993-29.576-28.822  C272.401,279.559,209.875,317.048,207.503,329.64z"/>
<path fill-rule="evenodd" clip-rule="evenodd" fill="#DFF3FD" stroke="#000000" stroke-width="2" stroke-linecap="square" stroke-miterlimit="10" d="  M284.753,311.64c14.028,23.761,60.257-33,84.375-33c19.878,0,39.784,57.873,46.548,73.42c19.206,44.144,37.992,88.488,58.02,132.268  c2.964,6.479,43.523,106.98,53.308,77.812c6.175-18.407-44.99-95.963-53.066-113.188c-24.406-52.059-48.813-104.116-73.22-156.174  c-6.838-14.585-11.986-27.833-29.714-29.889C350.455,260.508,286.087,299.612,284.753,311.64z"/>
</svg>