<svg xmlns="http://www.w3.org/2000/svg" xmlns:xlink="http://www.w3.org/1999/xlink" version="1.1" id="Layer_1" x="0px" y="0px" enable-background="new 0 0 822.05 841.89" xml:space="preserve" viewBox="351.01 344.24 116.73 151.15">
<path fill-rule="evenodd" clip-rule="evenodd" fill="#289D43" stroke="#000000" stroke-width="1.25" stroke-linecap="square" stroke-miterlimit="10" d="  M389.395,345.414c19.232,8.444,52.698,34.057,19.5,45C359.719,406.624,358.793,338.081,389.395,345.414z"/>
<path fill="none" stroke="#000000" stroke-width="1.25" stroke-linecap="square" stroke-miterlimit="10" d="M401.395,391.914  c1.161-12.828-1.769-25.624-10.5-35.25"/>
<path fill-rule="evenodd" clip-rule="evenodd" fill="#F72E0E" stroke="#000000" stroke-width="1.25" stroke-linecap="square" stroke-miterlimit="10" d="  M360.895,420.414c-3.811,22.047,6.895,49.526,22.5,65.25c21.675,21.839,30.891,0.682,48.375-24.75  c15.904-23.134,26.107-46.624-4.5-60.75C399.954,387.556,374.759,390.671,360.895,420.414z"/>
<path fill-rule="evenodd" clip-rule="evenodd" fill="#289D43" stroke="#000000" stroke-width="1.25" stroke-linecap="square" stroke-miterlimit="10" d="  M360.895,433.164c32.829,2.104,50.503-11.482,44.625-40.875c-4.022-20.112-33.247-15.844-43.125-7.875  c-14.127,11.396-10.989,32.862-9,49.5C355.895,433.664,358.395,433.414,360.895,433.164z"/>
<path fill="none" stroke="#000000" stroke-width="1.25" stroke-linecap="square" stroke-miterlimit="10" d="M402.145,388.164  c-7.272,14.436-18.549,27.491-33.75,33.75"/>
<path fill-rule="evenodd" clip-rule="evenodd" fill="#FCF218" d="M380.395,447.414C376.782,447.414,376.782,447.414,380.395,447.414  L380.395,447.414z"/>
<path fill-rule="evenodd" clip-rule="evenodd" fill="#FCF218" d="M411.146,451.164C407.053,451.164,407.053,451.164,411.146,451.164  L411.146,451.164z"/>
<path fill-rule="evenodd" clip-rule="evenodd" fill="#FCF218" d="M391.645,471.414C389.439,471.04,388.104,470.814,391.645,471.414  L391.645,471.414z"/>
<path fill-rule="evenodd" clip-rule="evenodd" fill="#FCF218" d="M409.645,469.164C407.936,468.738,405.521,468.137,409.645,469.164  L409.645,469.164z"/>
<path fill-rule="evenodd" clip-rule="evenodd" fill="#FCF218" d="M405.895,437.664C401.812,438.217,402.805,438.083,405.895,437.664  L405.895,437.664z"/>
<path fill-rule="evenodd" clip-rule="evenodd" fill="#FCF218" d="M418.645,458.664C414.626,456.898,415.667,457.355,418.645,458.664  L418.645,458.664z"/>
<path fill-rule="evenodd" clip-rule="evenodd" fill="#FCF218" d="M413.396,422.664C410.464,422.664,410.464,422.664,413.396,422.664  L413.396,422.664z"/>
<path fill-rule="evenodd" clip-rule="evenodd" fill="#FCF218" d="M399.145,448.914C395.532,448.914,395.532,448.914,399.145,448.914  L399.145,448.914z"/>
<path fill-rule="evenodd" clip-rule="evenodd" fill="#FCF218" d="M396.895,460.164C393.963,460.164,393.963,460.164,396.895,460.164  L396.895,460.164z"/>
<path fill-rule="evenodd" clip-rule="evenodd" fill="#FCF218" d="M385.645,457.914C382.515,457.914,382.515,457.914,385.645,457.914  L385.645,457.914z"/>
<path fill-rule="evenodd" clip-rule="evenodd" fill="#FCF218" d="M393.895,439.164C390.765,439.164,390.765,439.164,393.895,439.164  L393.895,439.164z"/>
<path fill-rule="evenodd" clip-rule="evenodd" fill="#FCF218" d="M417.145,437.664C413.534,437.664,413.534,437.664,417.145,437.664  L417.145,437.664z"/>
<path fill-rule="evenodd" clip-rule="evenodd" d="M427.645,464.664C426.402,464.213,424.057,463.365,427.645,464.664  L427.645,464.664z"/>
<path fill-rule="evenodd" clip-rule="evenodd" d="M414.146,466.914C409.463,468.068,416.138,466.423,414.146,466.914  L414.146,466.914z"/>
<path fill-rule="evenodd" clip-rule="evenodd" d="M393.895,482.664C390.568,483.958,392.303,483.283,393.895,482.664  L393.895,482.664z"/>
<path fill-rule="evenodd" clip-rule="evenodd" d="M402.145,469.164C400.158,468.697,397.866,468.159,402.145,469.164  L402.145,469.164z"/>
<path fill-rule="evenodd" clip-rule="evenodd" d="M387.145,476.664C387.046,476.66,382.734,476.5,387.145,476.664L387.145,476.664z"/>
<path fill-rule="evenodd" clip-rule="evenodd" d="M395.395,493.914C393.459,493.914,393.459,493.914,395.395,493.914  L395.395,493.914z"/>
<path fill-rule="evenodd" clip-rule="evenodd" d="M405.895,478.164C401.591,478.214,406.164,478.161,405.895,478.164  L405.895,478.164z"/>
<path fill-rule="evenodd" clip-rule="evenodd" d="M389.395,489.414C388.469,489.393,385.513,489.326,389.395,489.414  L389.395,489.414z"/>
<path fill-rule="evenodd" clip-rule="evenodd" d="M400.645,477.414C399.68,477.053,397.615,476.282,400.645,477.414L400.645,477.414  z"/>
<path fill-rule="evenodd" clip-rule="evenodd" d="M381.145,472.914C379.336,473.071,376.976,473.277,381.145,472.914  L381.145,472.914z"/>
<path fill-rule="evenodd" clip-rule="evenodd" d="M399.145,488.664C398.415,488.242,395.279,486.429,399.145,488.664  L399.145,488.664z"/>
<path fill-rule="evenodd" clip-rule="evenodd" d="M415.645,475.914C414.113,475.317,412.596,474.726,415.645,475.914  L415.645,475.914z"/>
<path fill-rule="evenodd" clip-rule="evenodd" fill="#FCF218" d="M428.395,452.664C424.265,451.784,426.196,452.195,428.395,452.664  L428.395,452.664z"/>
<path fill-rule="evenodd" clip-rule="evenodd" fill="#FCF218" d="M431.395,435.414C427.827,434.394,428.5,434.586,431.395,435.414  L431.395,435.414z"/>
<path fill-rule="evenodd" clip-rule="evenodd" fill="#FCF218" d="M443.395,428.664C441.626,426.885,440.474,425.727,443.395,428.664  L443.395,428.664z"/>
<path fill-rule="evenodd" clip-rule="evenodd" fill="#FCF218" d="M418.645,445.914C416.876,444.135,415.724,442.977,418.645,445.914  L418.645,445.914z"/>
<path fill-rule="evenodd" clip-rule="evenodd" fill="#FCF218" d="M421.645,427.914C417.835,426.722,420.391,427.521,421.645,427.914  L421.645,427.914z"/>
<path fill-rule="evenodd" clip-rule="evenodd" fill="#FCF218" d="M439.645,443.664C438.101,442.291,436.416,440.792,439.645,443.664  L439.645,443.664z"/>
<path fill-rule="evenodd" clip-rule="evenodd" fill="#FCF218" d="M409.645,482.664C405.835,481.472,408.391,482.271,409.645,482.664  L409.645,482.664z"/>
<path fill-rule="evenodd" clip-rule="evenodd" fill="#FCF218" d="M404.395,428.664C400.866,428.215,400.19,428.129,404.395,428.664  L404.395,428.664z"/>
<path fill-rule="evenodd" clip-rule="evenodd" fill="#FCF218" d="M411.896,413.664C407.416,414.563,409.159,414.213,411.896,413.664  L411.896,413.664z"/>
<path fill-rule="evenodd" clip-rule="evenodd" fill="#FCF218" d="M414.895,429.414C413.19,428.989,410.772,428.386,414.895,429.414  L414.895,429.414z"/>
<path fill-rule="evenodd" clip-rule="evenodd" fill="#FCF218" d="M420.145,419.664C416.688,418.242,417.562,418.602,420.145,419.664  L420.145,419.664z"/>
<path fill-rule="evenodd" clip-rule="evenodd" fill="#289D43" stroke="#000000" stroke-width="1.25" stroke-linecap="square" stroke-miterlimit="10" d="  M466.645,393.414c-8.66-14.655-57.683-42.594-61.5-3C400.912,434.313,473.626,409.706,466.645,393.414z"/>
<path fill="none" stroke="#000000" stroke-width="1.25" stroke-linecap="square" stroke-miterlimit="10" d="M405.895,390.414  c15.111-2.169,32.397-3.783,46.5,3"/>
</svg>