<svg xmlns="http://www.w3.org/2000/svg" xmlns:xlink="http://www.w3.org/1999/xlink" version="1.1" id="Layer_1" x="0px" y="0px" enable-background="new 0 0 822.05 841.89" xml:space="preserve" viewBox="212.3 259.73 397.42 328.19">
<path fill-rule="evenodd" clip-rule="evenodd" fill="#FEF8C1" stroke="#000000" stroke-width="2" stroke-linecap="square" stroke-miterlimit="10" d="  M213.3,299.666c2.778,54.862,5.556,109.724,8.333,164.585c1.672,33.021,81.928,61.007,108.046,76.383  c24.354,14.337,48.708,28.674,73.061,43.011c10.711,6.306,22.914-7.379,32.619-13.336c51.644-31.7,103.287-63.399,154.931-95.099  c18.431-11.313,14.729-125.383,17.012-148.518c2.042-20.703,4.813-19.588-15.065-24.448c-31.672-7.742-63.344-15.483-95.016-23.226  c-44.469-10.87-78.496-24.737-122.695-14.972C320.783,275.919,267.042,287.792,213.3,299.666z"/>
<path fill="none" stroke="#000000" stroke-width="2" stroke-linecap="square" stroke-miterlimit="10" d="M213.3,299.666  c32.722,13.194,65.443,26.388,98.164,39.583c16.031,6.464,71.583,40.346,88.513,35.212c69.025-20.932,138.049-41.863,207.075-62.795  "/>
<line fill="none" stroke="#000000" stroke-width="2" stroke-linecap="square" stroke-miterlimit="10" x1="399.3" y1="374.666" x2="408.3" y2="586.917"/>
</svg>