<svg xmlns="http://www.w3.org/2000/svg" xmlns:xlink="http://www.w3.org/1999/xlink" version="1.1" id="Layer_1" x="0px" y="0px" enable-background="new 0 0 822.05 841.89" xml:space="preserve" viewBox="298.59 246.56 225.15 348.85">
<path fill-rule="evenodd" clip-rule="evenodd" fill="#828487" stroke="#000000" stroke-width="2" stroke-linecap="square" stroke-miterlimit="10" d="  M349.756,263.314c-15.269,7.36-48.694,10.883-48.799,29.833c-0.203,36.814-0.407,73.628-0.61,110.442  c-0.22,39.878-0.44,79.756-0.661,119.634c-0.201,36.294-2.577,32.39,35.82,35.589c-3.75-53.499-7.5-106.999-11.25-160.498  c6.445,29.668,14.692,63.962,10.875,94.498c-4.49,35.919-20.06,83.3,19.125,96c26.641,8.635,165.504,14.009,139.502-36.75  c14.508-0.744,29.473,5.628,28.967-10.554c-0.618-19.797-1.237-39.594-1.855-59.391c-1.69-54.079-3.38-108.158-5.07-162.237  c-0.957-30.632-6.827-52.586-47.238-53.596C428.959,265.294,389.357,264.304,349.756,263.314z"/>
<path fill-rule="evenodd" clip-rule="evenodd" fill="#555658" stroke="#000000" stroke-width="2" stroke-linecap="square" stroke-miterlimit="10" d="  M373.006,247.564c-7.124,4.35-13.345,12.319-19.5,18c3.75,1.5,7.5,3,11.25,4.5c-5.446,2.549-8.906,9.211-14.25,12  c20.25,16.5,40.5,33,60.75,49.5C398.506,303.564,385.756,275.564,373.006,247.564z"/>
<path fill-rule="evenodd" clip-rule="evenodd" fill="#555658" stroke="#000000" stroke-width="2" stroke-linecap="square" stroke-miterlimit="10" d="  M444.258,252.064c-10.001,26.25-20.001,52.5-30.002,78.75c10.863-11.808,21.728-23.615,32.591-35.423  c7.309-7.944-5.512-19.478,19.161-27.577C459.061,262.784,451.95,255.806,444.258,252.064z"/>
<path fill-rule="evenodd" clip-rule="evenodd" fill="#C1E8FB" stroke="#000000" stroke-width="2" stroke-linecap="square" stroke-miterlimit="10" d="  M377.506,252.064c27.952,9.75,36.542,10.177,65.252,3c-9.501,23.75-19.001,47.5-28.502,71.25  C402.006,301.564,389.756,276.814,377.506,252.064z"/>
<path fill-rule="evenodd" clip-rule="evenodd" fill="#9E216E" stroke="#000000" stroke-width="2" stroke-linecap="square" stroke-miterlimit="10" d="  M406.006,266.314c-5.209,9.445-8.966,13.989,0,22.5c3.75-3.25,7.501-6.5,11.252-9.75  C413.743,275.082,410.379,269.252,406.006,266.314z"/>
<path fill-rule="evenodd" clip-rule="evenodd" fill="#9E216E" stroke="#000000" stroke-width="2" stroke-linecap="square" stroke-miterlimit="10" d="  M406.006,288.814c-8.898,13.349-1.376,26.522,8.25,37.5C424.633,310.748,425.799,295.717,406.006,288.814z"/>
<line fill="none" stroke="#000000" stroke-width="2" stroke-linecap="square" stroke-miterlimit="10" x1="409.756" y1="332.314" x2="410.506" y2="591.062"/>
<path fill-rule="evenodd" clip-rule="evenodd" fill="#828487" d="M301.006,284.314c8.5,38.86,16.863,77.724,23.25,117  C316.506,362.314,308.756,323.314,301.006,284.314z"/>
<path fill="none" stroke="#000000" stroke-width="2" stroke-linecap="square" stroke-miterlimit="10" d="M301.006,284.314  c8.5,38.86,16.863,77.724,23.25,117"/>
<path fill="none" stroke="#000000" stroke-width="2" stroke-linecap="square" stroke-miterlimit="10" d="M512.508,288.064  c-20.037,35.698-15.604,75.043-16.5,114c-0.58,25.234-24.321,146.923-2.25,149.998"/>
<path fill="none" stroke="#000000" stroke-width="2" stroke-linecap="square" stroke-miterlimit="10" d="M430.008,392.314  C418.078,395.418,418.111,388.653,430.008,392.314L430.008,392.314z"/>
<path fill="none" stroke="#000000" stroke-width="2" stroke-linecap="square" stroke-miterlimit="10" d="M430.758,427.562  C418.926,430.41,419.065,424.286,430.758,427.562L430.758,427.562z"/>
<path fill="none" stroke="#000000" stroke-width="2" stroke-linecap="square" stroke-miterlimit="10" d="M430.758,462.062  C420.393,465.813,419.653,460.511,430.758,462.062L430.758,462.062z"/>
</svg>