<svg xmlns="http://www.w3.org/2000/svg" xmlns:xlink="http://www.w3.org/1999/xlink" version="1.1" id="Layer_1" x="0px" y="0px" enable-background="new 0 0 822.05 841.89" xml:space="preserve" viewBox="305.8 331.43 210.07 181.95">
<path fill-rule="evenodd" clip-rule="evenodd" fill="#FFFFFF" stroke="#000000" stroke-width="0.75" stroke-linecap="square" stroke-miterlimit="10" d="  M448.75,401.015c9.077-9.85,19.256-9.063,30.75-12c5.602-1.431,11.474,4.424,13.5,3.75c7.585-2.523,15.427-14.563,21.75-18.75  c2.978,28.636-2.137,46.097-30.75,53.25c-10.594,2.648-47.402,10.828-54.75,0.75c-0.469-0.644,3.232-88.287,3.75-89.25  C450.302,306.556,448.551,396.291,448.75,401.015z"/>
<path fill="none" stroke="#000000" stroke-width="0.75" stroke-linecap="square" stroke-miterlimit="10" d="M449.5,427.265  c-2.623-8.007-3.144-17.476-1.5-26.25"/>
<path fill="none" stroke="#000000" stroke-width="0.75" stroke-linecap="square" stroke-miterlimit="10" d="M490.75,392.015  c2.875,11.927,0.294,33.113-18.75,28.5"/>
<path fill="none" stroke="#000000" stroke-width="0.75" stroke-linecap="square" stroke-miterlimit="10" d="M493.75,393.515  c8.224,5.187,13.533,9.104,6.75,15.75c6.936,2.496,4.915,6.68,6.75,10.5"/>
<path fill-rule="evenodd" clip-rule="evenodd" stroke="#000000" stroke-width="0.75" stroke-linecap="square" stroke-miterlimit="10" d="  M435.25,338.765c6.095-0.28,5.973,4.503,12,0C444.277,350.622,438.821,352.826,435.25,338.765z"/>
<path fill-rule="evenodd" clip-rule="evenodd" fill="#F87F11" stroke="#000000" stroke-width="0.75" stroke-linecap="square" stroke-miterlimit="10" d="  M438.25,345.515c0.074,23.207,10.041,17.413,6.75-2.25c-2.122,3.026-0.487,3.223-3.75,5.25  C439.733,342.707,439.813,344.628,438.25,345.515z"/>
<path fill-rule="evenodd" clip-rule="evenodd" stroke="#000000" stroke-width="0.75" stroke-linecap="square" stroke-miterlimit="10" d="  M440.5,359.765c1.958-0.748,2.097-5.808,3.75-0.75C443.772,363.996,441.605,359.343,440.5,359.765z"/>
<path fill-rule="evenodd" clip-rule="evenodd" fill="#FFFFFF" stroke="#000000" stroke-linecap="square" stroke-miterlimit="10" d="  M371.5,458.015c11.519-11.735,21.723-10.31,36-13.5c4.299-0.961,15.539,2.093,15,2.25c9.767-2.852,20.03-15.287,29.25-21.75  c3.545,36.374-2.943,54.508-37.5,64.875c-8.386,2.516-67.4,12.328-65.625-1.875c2.406-19.247,8.364-36.059,7.681-55.889  c-0.547-15.851-6.3-36.138-3.181-51.736c2.544-12.723,14.198-5.723,18.375,0.375C378.752,391.354,371.008,443.912,371.5,458.015z"/>
<path fill="none" stroke="#000000" stroke-linecap="square" stroke-miterlimit="10" d="M372.25,489.515  c-3.995-9.706-3.455-20.598-2.25-31.5"/>
<path fill="none" stroke="#000000" stroke-linecap="square" stroke-miterlimit="10" d="M423.25,446.765  c-0.262,2.874,0.37,4.894-3,5.25c9.285,13.267-1.932,37.049-20.25,29.25"/>
<path fill="none" stroke="#000000" stroke-linecap="square" stroke-miterlimit="10" d="M426.25,449.015  c10.553,4.74,16.134,11.806,8.25,18.75c8.462,3.354,5.76,7.702,8.25,12.75"/>
<path fill-rule="evenodd" clip-rule="evenodd" stroke="#000000" stroke-linecap="square" stroke-miterlimit="10" d="M355,382.265  c7.531-1.047,7.338,6.107,15,0C369.639,398.114,356.963,398.651,355,382.265z"/>
<path fill-rule="evenodd" clip-rule="evenodd" fill="#F87F11" stroke="#000000" stroke-linecap="square" stroke-miterlimit="10" d="  M358.75,391.265c-5.49,24.537,15.384,23.157,8.25-3c-1.432,1.524-3.353,4.625-4.5,6C360.49,386.834,360.798,390.208,358.75,391.265z  "/>
<path fill-rule="evenodd" clip-rule="evenodd" stroke="#000000" stroke-linecap="square" stroke-miterlimit="10" d="M362.5,409.265  c2.072-0.954,0.309-5.205,4.5-3C367.884,413.564,364.355,408.411,362.5,409.265z"/>
<path fill="none" stroke="#000000" stroke-linecap="square" stroke-miterlimit="10" d="M325,489.515  c-6.536,34.327,163.346,11.768,147.75-7.5"/>
<path fill="none" stroke="#000000" stroke-linecap="square" stroke-miterlimit="10" d="M325.75,475.265  c-19.092,2.326-27.587,22.448-9.375,33.375c16.924,10.154,58.815-1.225,78.375-0.375"/>
</svg>