<svg xmlns="http://www.w3.org/2000/svg" xmlns:xlink="http://www.w3.org/1999/xlink" version="1.1" id="Layer_1" x="0px" y="0px" enable-background="new 0 0 822.05 841.89" xml:space="preserve" viewBox="312.17 336.05 196.94 172.04">
<path fill-rule="evenodd" clip-rule="evenodd" fill="#FFFFFF" stroke="#000000" stroke-linecap="square" stroke-miterlimit="10" d="  M502.551,366.14c16.396-51.678-98.63-27.507-70.125,10.5c14.029,18.706,30.944,26.271,49.125,22.5  C497.315,395.87,519.434,390.186,502.551,366.14z"/>
<path fill-rule="evenodd" clip-rule="evenodd" fill="#FFFFFF" stroke="#000000" stroke-linecap="square" stroke-miterlimit="10" d="  M432.801,400.64C425.168,400.64,425.168,400.64,432.801,400.64L432.801,400.64z"/>
<path fill-rule="evenodd" clip-rule="evenodd" fill="#FFFFFF" stroke="#000000" stroke-linecap="square" stroke-miterlimit="10" d="  M443.301,393.89C433.774,393.447,433.145,392.225,443.301,393.89L443.301,393.89z"/>
<path fill-rule="evenodd" clip-rule="evenodd" fill="#F4C0D7" stroke="#000000" stroke-width="1.25" stroke-linecap="square" stroke-miterlimit="10" d="  M453.801,350.39c1.535,3.275,6.764,1.892,5.25,9c17.703-6.012,34.75,19.708,32.25,23.25c-3.473,4.921-36.097-0.934-35.25-21  c-3.534,1.168-6.775,0.915-9.75,1.5C449.289,359.433,450.855,354.07,453.801,350.39z"/>
<path fill-rule="evenodd" clip-rule="evenodd" fill="#EDCBA6" stroke="#000000" stroke-width="1.25" stroke-linecap="square" stroke-miterlimit="10" d="  M411.799,476.39c-6.391-3.482-18.302-15.75-24.117-15.75c-21.383,0-21.28,7.382-39.633,13.5c-19.539,6.513-23.686,32.25,1.404,32.25  C390.422,506.39,400.834,516.26,411.799,476.39z"/>
<path fill-rule="evenodd" clip-rule="evenodd" fill="#F7F619" stroke="#000000" stroke-width="1.25" stroke-linecap="square" stroke-miterlimit="10" d="  M432.051,469.64c-28.429-7.339-29.488,23.086-57.752,18.375c-11.883-1.98-20.805-21.68-28.083-20.986  c-26.434,2.518-27.654,13.578-33.417,39.361c43.75,0,87.501,0,131.252,0C441.416,493.617,438.52,480.929,432.051,469.64z"/>
<path fill-rule="evenodd" clip-rule="evenodd" fill="#EDCBA6" stroke="#000000" stroke-width="1.25" stroke-linecap="square" stroke-miterlimit="10" d="  M348.049,438.14C346.153,465.82,324.044,422.901,348.049,438.14L348.049,438.14z"/>
<path fill-rule="evenodd" clip-rule="evenodd" fill="#EDCBA6" stroke="#000000" stroke-width="1.25" stroke-linecap="square" stroke-miterlimit="10" d="  M419.301,441.14C404.624,467.875,408.153,412.915,419.301,441.14L419.301,441.14z"/>
<path fill-rule="evenodd" clip-rule="evenodd" fill="#EDCBA6" stroke="#000000" stroke-width="1.25" stroke-linecap="square" stroke-miterlimit="10" d="  M342.049,420.89c-2.957,45.824,51.482,79.534,69,27C432.746,382.82,345.03,358.651,342.049,420.89z"/>
<path fill-rule="evenodd" clip-rule="evenodd" d="M371.299,438.14c-2.704,1-1.368,7.219-5.25,1.5  C367.123,434.109,369.378,438.851,371.299,438.14z"/>
<path fill-rule="evenodd" clip-rule="evenodd" d="M396.049,440.39c-1.605-0.382-2.963,4.443-5.25-0.75  C394.776,434.401,394.105,439.927,396.049,440.39z"/>
<path fill="none" stroke="#000000" stroke-linecap="square" stroke-miterlimit="10" d="M376.549,450.14  c2.343,3.02,4.967,2.972,7.5,0"/>
<path fill="none" stroke="#000000" stroke-linecap="square" stroke-miterlimit="10" d="M366.049,460.64  c8.471,3.787,17.583,4.056,26.25,0.75"/>
<path fill="none" stroke="#000000" stroke-width="0.75" stroke-linecap="square" stroke-miterlimit="10" d="M361.549,439.64  c4.022-4.128,8.745-4.744,13.5-1.5"/>
<path fill="none" stroke="#000000" stroke-width="0.75" stroke-linecap="square" stroke-miterlimit="10" d="M400.549,439.64  c-4.198-3.604-8.994-3.906-13.5-0.75"/>
</svg>