<svg xmlns="http://www.w3.org/2000/svg" xmlns:xlink="http://www.w3.org/1999/xlink" version="1.1" id="Layer_1" x="0px" y="0px" enable-background="new 0 0 822.05 841.89" xml:space="preserve" viewBox="305.1 340.62 210.23 159.82">
<path fill-rule="evenodd" clip-rule="evenodd" fill="#00079F" stroke="#000000" stroke-linecap="square" stroke-miterlimit="10" d="  M309.854,418.438c9.461-17.807,19.687,0.667,28.5-6.75c10.012-8.427-0.775-33.737,16.5-42.375c13.666-6.833,22.729-7.784,37.5-1.875  c17.347,6.938,2.227-22.761,18.75-26.25c7.999-1.689,15.92,29.727,16.5,28.5c-8.48,17.942-18.73,2.295-28.5,15.75  c-10.45,14.392,3.358,33.999-18.75,45.75c-13.583,7.22-30.022,2.947-41.25-6C335.709,474.951,325.884,437.048,309.854,418.438z"/>
<path fill="none" stroke="#000000" stroke-width="0.5" stroke-linecap="square" stroke-miterlimit="10" d="M341.354,408.688  c-6.992,10.165-16.707,12.159-20.25,24.75"/>
<path fill="none" stroke="#000000" stroke-width="0.5" stroke-linecap="square" stroke-miterlimit="10" d="M342.854,423.688  c-9.417-1.185-16.011,5.58-18.75,16.5"/>
<path fill="none" stroke="#000000" stroke-width="0.5" stroke-linecap="square" stroke-miterlimit="10" d="M336.854,425.938  c-0.825,9.61-5.207,18.705-12,24"/>
<path fill="none" stroke="#000000" stroke-width="0.5" stroke-linecap="square" stroke-miterlimit="10" d="M333.854,416.188  c-8.464-0.448-14.327,3.822-16.5,12"/>
<path fill="none" stroke="#000000" stroke-width="0.5" stroke-linecap="square" stroke-miterlimit="10" d="M311.354,423.688  c3.602-7.684,10.039-12.185,18-12"/>
<path fill="none" stroke="#000000" stroke-width="0.5" stroke-linecap="square" stroke-miterlimit="10" d="M419.354,350.188  c-12.913,5.699-14.166,17.129-25.5,21"/>
<path fill="none" stroke="#000000" stroke-width="0.5" stroke-linecap="square" stroke-miterlimit="10" d="M421.604,362.188  c-9.479,7.314-20.82,7.882-26.25,19.5"/>
<path fill="none" stroke="#000000" stroke-width="0.5" stroke-linecap="square" stroke-miterlimit="10" d="M427.604,369.688  c-10.819,6.644-19.574,2.708-27.75,9"/>
<path fill-rule="evenodd" clip-rule="evenodd" fill="#FFF23F" stroke="#000000" stroke-linecap="square" stroke-miterlimit="10" d="  M355.604,382.438c11.103-0.556,15.324,5.533,17.25,16.125c2.762,15.192,12.822-3.762,18.75-4.125c17.875-1.094,24.6-8.16,39.75,8.25  c5.969,6.465,7.084,25.364,13.5,28.5c8.995,4.396,11.707-14.667,18.375-12c12.51,5.004,7.341,35.824,0.375,38.25  c-13.107,4.564-9.594-8.219-17.25-9c-1.636-0.167,0.126-8.618-5.25-9c-3.822-0.271-5.775,5.483-9,6  c-17.313,2.771-22.006,23.536-43.5,5.625c-8.062-6.719-10.029-26.135-16.5-30.375c-7.118-4.664-11.795,6.508-15,4.5  c-13.666-8.56-4.844,1.369-5.25-15.75C351.658,401.21,354.782,390.457,355.604,382.438z"/>
<path fill="none" stroke="#000000" stroke-width="0.5" stroke-linecap="square" stroke-miterlimit="10" d="M382.604,404.938  c-11.698,0.155-17.344-7.616-28.5-2.25"/>
<path fill="none" stroke="#000000" stroke-width="0.5" stroke-linecap="square" stroke-miterlimit="10" d="M374.354,416.188  c-4.446-7.986-12.844-9.7-22.5-6"/>
<path fill="none" stroke="#000000" stroke-width="0.5" stroke-linecap="square" stroke-miterlimit="10" d="M369.104,412.438  c-7.031,5.654-15.371,7.734-23.25,5.25"/>
<path fill="none" stroke="#000000" stroke-width="0.5" stroke-linecap="square" stroke-miterlimit="10" d="M372.854,403.438  c-3.726-7.401-10.29-10.328-18-7.5"/>
<path fill="none" stroke="#000000" stroke-width="0.5" stroke-linecap="square" stroke-miterlimit="10" d="M353.354,387.688  c8.336-1.53,15.284,1.259,19.5,8.25"/>
<path fill="none" stroke="#000000" stroke-width="0.5" stroke-linecap="square" stroke-miterlimit="10" d="M470.354,437.188  c-11.665-6.341-20.693-1.044-30-9"/>
<path fill="none" stroke="#000000" stroke-width="0.5" stroke-linecap="square" stroke-miterlimit="10" d="M464.354,446.938  c-11.217-3.823-17.589-13.096-29.25-10.5"/>
<path fill="none" stroke="#000000" stroke-width="0.5" stroke-linecap="square" stroke-miterlimit="10" d="M463.604,457.438  c-11.38-4.703-14.472-15.471-24-19.5"/>
<path fill-rule="evenodd" clip-rule="evenodd" fill="#FF0017" stroke="#000000" stroke-linecap="square" stroke-miterlimit="10" d="  M401.354,417.688c22.282-0.161,8.854,34.047,32.25,16.5c15.39-11.543,30.615-5.112,42,8.25c5.979,7.019,6.016,25.633,12.75,29.25  c9.779,5.253,11.479-14.948,20.25-9.75c15.667,9.286-3.154,28.98-3,37.5c-19.636,4.177-10.293-18.861-20.25-20.25  c-8.198-1.144-18.212,13.435-25.875,16.5c-26.722,10.688-43.152-24.912-44.623-45.75  C382.696,479.148,396.989,439.52,401.354,417.688z"/>
<path fill="none" stroke="#000000" stroke-width="0.5" stroke-linecap="square" stroke-miterlimit="10" d="M426.854,441.688  c-11.8-0.72-16.313-7.79-28.5-3.75"/>
<path fill="none" stroke="#000000" stroke-width="0.5" stroke-linecap="square" stroke-miterlimit="10" d="M418.604,452.188  c-4.696-8.152-12.897-10.469-22.5-7.5"/>
<path fill="none" stroke="#000000" stroke-width="0.5" stroke-linecap="square" stroke-miterlimit="10" d="M412.604,448.438  c-7.329,5.435-15.815,6.908-22.5,3"/>
<path fill="none" stroke="#000000" stroke-width="0.5" stroke-linecap="square" stroke-miterlimit="10" d="M417.854,439.438  c-4.135-7.803-10.659-11.082-18.75-8.25"/>
<path fill="none" stroke="#000000" stroke-width="0.5" stroke-linecap="square" stroke-miterlimit="10" d="M399.104,422.188  c8.48-0.649,15.348,3.005,18.75,10.5"/>
<path fill="none" stroke="#000000" stroke-width="0.5" stroke-linecap="square" stroke-miterlimit="10" d="M513.104,479.938  c-11.507-7.685-20.581-2.745-29.25-11.25"/>
<path fill="none" stroke="#000000" stroke-width="0.5" stroke-linecap="square" stroke-miterlimit="10" d="M506.354,488.938  c-10.52-4.629-16.689-13.756-28.5-12"/>
<path fill="none" stroke="#000000" stroke-width="0.5" stroke-linecap="square" stroke-miterlimit="10" d="M505.604,500.188  c-10.949-6.437-13.021-17.464-23.25-21.75"/>
<path fill-rule="evenodd" clip-rule="evenodd" fill="#00F23F" stroke="#000000" stroke-linecap="square" stroke-miterlimit="10" d="  M307.604,435.688c12.52-3.673,10.268,5.086,18.75,6.75c14.229,2.792-3.038,5.533,14.25,0.75  c17.554-4.856,19.677-24.944,43.125-10.875c7.67,4.602,13.812,23.916,20.625,25.125c7.451,1.322,10.482-17.413,13.5-16.5  c22.712,6.872,5.618,21.965,9.75,36.75c-20.167,12.572-20.74-28.271-35.25,0.75c-8.194,16.39-29.805,23.953-44.625,11.25  c-8.554-7.332-12.897-14.218-17.25-24.375c-5.142-11.998-8.499,13.094-13.125,11.625c-15.219-4.83-3.729,2.847-7.5-13.5  C307.913,455.023,308.615,444.277,307.604,435.688z"/>
<path fill="none" stroke="#000000" stroke-width="0.5" stroke-linecap="square" stroke-miterlimit="10" d="M338.354,449.938  c-11.541,3.708-18.133-2.114-27.75,6"/>
<path fill="none" stroke="#000000" stroke-width="0.5" stroke-linecap="square" stroke-miterlimit="10" d="M333.104,463.438  c-6.565-7.016-15.395-6.45-24,0"/>
<path fill="none" stroke="#000000" stroke-width="0.5" stroke-linecap="square" stroke-miterlimit="10" d="M326.354,461.188  c-5.485,7.251-13.408,11.701-21,11.25"/>
<path fill="none" stroke="#000000" stroke-width="0.5" stroke-linecap="square" stroke-miterlimit="10" d="M328.604,450.688  c-5.807-5.894-12.382-6.617-18.75-1.5"/>
<path fill="none" stroke="#000000" stroke-width="0.5" stroke-linecap="square" stroke-miterlimit="10" d="M306.854,440.938  c7.509-3.411,14.625-2.585,20.25,3"/>
<path fill="none" stroke="#000000" stroke-width="0.5" stroke-linecap="square" stroke-miterlimit="10" d="M429.854,455.938  c-13.278-2.952-19.879,5.005-30.75,0"/>
<path fill="none" stroke="#000000" stroke-width="0.5" stroke-linecap="square" stroke-miterlimit="10" d="M426.104,467.188  c-10.724-1.436-21.186-7.381-30.75-1.5"/>
<path fill="none" stroke="#000000" stroke-width="0.5" stroke-linecap="square" stroke-miterlimit="10" d="M426.854,477.688  c-11.58-2.771-17.131-10.546-26.25-12"/>
</svg>