<svg xmlns="http://www.w3.org/2000/svg" xmlns:xlink="http://www.w3.org/1999/xlink" version="1.1" id="Layer_1" x="0px" y="0px" enable-background="new 0 0 822.05 841.89" xml:space="preserve" viewBox="329.97 245.6 161.82 350.53">
<path fill-rule="evenodd" clip-rule="evenodd" fill="#206AB4" stroke="#000000" stroke-width="2" stroke-linecap="square" stroke-miterlimit="10" d="  M350.756,320.673c-10.701,21.799-20.367,36.562-19.764,60.69c0.583,23.324,8.158,43.537,5.698,67.087  c-4.635,44.367,12.886,86.525,35.178,125.028c18.938,32.712,60.517,25.403,82.389-2.306c28.499-36.104,33.074-77.567,28.041-121.43  c-2.893-25.205,4.977-52.584,8.436-77.596c1.303-9.419-24.201-48.056-27.419-62.621c-3.656-16.55-15.179-92.501-40.558-50.353  c-10.461,17.374,4.188,67.852-26.25,52.5c-15.591-7.864-18.198-49.627-31.5-54.75C342.747,248.352,351.063,307.753,350.756,320.673z  "/>
<path fill="none" stroke="#000000" stroke-width="2" stroke-linecap="square" stroke-miterlimit="10" d="M365.756,262.173  c-1.014,10.603-7.44,45.038,0.75,54c8.279,9.06,48.81,5.25,63,5.25c36.905,0,16.397-54.598,3-72.75"/>
<path fill="none" stroke="#000000" stroke-width="2" stroke-linecap="square" stroke-miterlimit="10" d="M365.756,288.423  c9.099,13.998,15.056,35.573,35.25,30c-11.75-17.75-23.5-35.5-35.25-53.25C365.756,272.741,364.78,280.93,365.756,288.423z"/>
<path fill="none" stroke="#000000" stroke-width="2" stroke-linecap="square" stroke-miterlimit="10" d="M408.508,316.923  c13.774-20.436,5.33-50.725,21.748-67.5C429.876,266.91,440.8,337.634,408.508,316.923z"/>
<path fill="none" stroke="#000000" stroke-width="2" stroke-linecap="square" stroke-miterlimit="10" d="M335.756,478.173  c37.14,32.909,40.959,67.064,48,114C363.886,559.077,337.236,517.943,335.756,478.173z"/>
<path fill="none" stroke="#000000" stroke-width="2" stroke-linecap="square" stroke-miterlimit="10" d="M485.006,484.173  c-33.819,25.231-49.699,63.479-53.25,105C465.042,566.633,484.636,523.619,485.006,484.173z"/>
<path fill-rule="evenodd" clip-rule="evenodd" fill="#FFFFFF" stroke="#000000" stroke-width="2" stroke-linecap="square" stroke-miterlimit="10" d="  M368.006,292.173c5.25,8.75,10.5,17.5,15.75,26.25C364.485,322.685,363.148,306.844,368.006,292.173z"/>
<path fill-rule="evenodd" clip-rule="evenodd" fill="#FFFFFF" stroke="#000000" stroke-width="2" stroke-linecap="square" stroke-miterlimit="10" d="  M426.506,322.173c39.432,6.999,18.316-54.194,5.25-69.75C431.76,274.761,433.334,300.811,426.506,322.173z"/>
<path fill-rule="evenodd" clip-rule="evenodd" fill="#FFFFFF" d="M421.256,331.923L421.256,331.923L421.256,331.923z"/>
<line fill="none" stroke="#000000" stroke-width="2" stroke-linecap="square" stroke-miterlimit="10" x1="421.256" y1="331.923" x2="421.256" y2="331.923"/>
</svg>