<svg xmlns="http://www.w3.org/2000/svg" xmlns:xlink="http://www.w3.org/1999/xlink" version="1.1" id="Layer_1" x="0px" y="0px" enable-background="new 0 0 822.05 841.89" xml:space="preserve" viewBox="233.56 250.18 349.91 340.22">
<path fill-rule="evenodd" clip-rule="evenodd" fill="#CDCFD0" stroke="#000000" stroke-width="2" stroke-linecap="square" stroke-miterlimit="10" d="  M261.807,252.651c-4.552,47.474-9.104,94.948-13.657,142.423c-2.051,21.388-25.384,123.861-5.843,135.077  c7.5-75.25,15-150.5,22.5-225.75c1.5,95,3,190,4.5,285c22.076-3.064,3.003-284.076,2.25-324.75c77.75,1.5,155.501,3,233.252,4.5  c-4.866,34.265-50.985,246.771-29.25,255.75c12-79.25,24-158.5,36-237.75c21.25,97,42.5,194,63.75,291  c21.215-5.555-11.099-100.601-15.171-119.662c-13.289-62.211-26.578-124.423-39.868-186.635  c-6.928-32.433-64.661-16.923-93.222-17.259C371.967,253.947,316.887,253.299,261.807,252.651z"/>
<line fill="none" stroke="#000000" stroke-width="2" stroke-linecap="square" stroke-miterlimit="10" x1="324.057" y1="498.651" x2="319.557" y2="266.901"/>
<line fill="none" stroke="#000000" stroke-width="2" stroke-linecap="square" stroke-miterlimit="10" x1="372.807" y1="267.651" x2="377.307" y2="499.401"/>
<line fill="none" stroke="#000000" stroke-width="2" stroke-linecap="square" stroke-miterlimit="10" x1="419.309" y1="499.401" x2="414.059" y2="267.651"/>
<line fill="none" stroke="#000000" stroke-width="2" stroke-linecap="square" stroke-miterlimit="10" x1="468.059" y1="268.401" x2="472.559" y2="500.151"/>
<path fill-rule="evenodd" clip-rule="evenodd" fill="#4466B0" stroke="#000000" stroke-width="2" stroke-linecap="square" stroke-miterlimit="10" d="  M321.057,502.401c5.941,18.361,54.863,13.229,61.5-5.25C362.057,498.901,341.557,500.651,321.057,502.401z"/>
<path fill-rule="evenodd" clip-rule="evenodd" fill="#4466B0" stroke="#000000" stroke-width="2" stroke-linecap="square" stroke-miterlimit="10" d="  M414.059,497.151c5.111,19.071,54.281,13.297,61.5-4.5C455.059,494.151,434.559,495.651,414.059,497.151z"/>
</svg>