<svg xmlns="http://www.w3.org/2000/svg" xmlns:xlink="http://www.w3.org/1999/xlink" version="1.1" id="Layer_1" x="0px" y="0px" enable-background="new 0 0 822.05 841.89" xml:space="preserve" viewBox="201.43 257.98 419.49 329.29">
<path fill-rule="evenodd" clip-rule="evenodd" fill="#7E5823" stroke="#000000" stroke-width="2" stroke-linecap="square" stroke-miterlimit="10" d="  M507.254,261.916c0,13.5,0,27,0,40.5c19.75-0.25,39.5-0.5,59.25-0.75c-0.355-6.639,0.617-42.113-4.699-41.903  C543.621,260.48,525.438,261.198,507.254,261.916z"/>
<path fill-rule="evenodd" clip-rule="evenodd" fill="#DD7926" stroke="#000000" stroke-width="2" stroke-linecap="square" stroke-miterlimit="10" d="  M510.254,303.916c0.033,24.667-10.14,41.505-15,61.5c-0.16,0.658,2.367,15.37,6,9c-3.537,6.203-8.014,5.664-13.5,12.75  c-44.05,56.893-34.482,100.493-18.683,169.545c3.522,15.396,0.158,29.205,16.698,29.205c28.712,0,57.424,0,86.136,0  c21.899,0,23.9,4.295,29.207-16.932c5.17-20.681,9.739-41.31,13.919-62.207c12.875-64.373,1.073-90.616-44.777-134.611  c2.289-0.07,7.541-1.518,11.25-1.5c-16.534-17.231-17.441-45.986-15-69C547.754,302.416,529.004,303.166,510.254,303.916z"/>
<path fill-rule="evenodd" clip-rule="evenodd" fill="#A8DFF3" stroke="#000000" stroke-width="2" stroke-linecap="square" stroke-miterlimit="10" d="  M510.254,332.416c15.82,0,31.641,0,47.461,0c15.595,0,8.789-17.314,8.789-30.75c-19.75,0.25-39.5,0.5-59.25,0.75  C510.896,312.465,513.25,322.889,510.254,332.416z"/>
<path fill-rule="evenodd" clip-rule="evenodd" fill="#7E5823" stroke="#000000" stroke-width="2" stroke-linecap="square" stroke-miterlimit="10" d="  M497.504,557.416c24.906,0,49.812,0,74.719,0c6.142,0,11.03-43.848,11.531-51c2.134-30.466-2.631-61.934-26.625-82.5  c-20.393-17.479-41.578-11.209-56.25,9.75C476.759,468.124,489.677,519.722,497.504,557.416z"/>
<path fill-rule="evenodd" clip-rule="evenodd" fill="#7E5823" stroke="#000000" stroke-width="2" stroke-linecap="square" stroke-miterlimit="10" d="  M377.502,260.416c0,13.75,0,27.5,0,41.25c19.5-0.25,39.001-0.5,58.502-0.75c-0.354-6.619,0.635-42.077-4.667-41.936  C413.392,259.458,395.447,259.937,377.502,260.416z"/>
<path fill-rule="evenodd" clip-rule="evenodd" fill="#DD7926" stroke="#000000" stroke-width="2" stroke-linecap="square" stroke-miterlimit="10" d="  M379.752,302.416c0.461,23.526-9.023,40.483-12.75,60.75c0.457-2.483-1.653,20.004,3.75,10.5c-3.416,6.008-7.953,5.462-13.5,12.75  c-43.675,57.383-34.57,100.111-18.683,169.545c3.523,15.396,0.158,29.205,16.699,29.205c28.712,0,57.424,0,86.137,0  c22.628,0,23.642,4.15,29.207-17.604c5.232-20.455,9.78-40.838,13.919-61.535c12.906-64.529,1.103-90.588-44.777-134.611  c2.252-0.086,7.59-1.524,11.25-1.5c-16.272-17.632-17.464-45.893-15-69C417.253,301.416,398.502,301.916,379.752,302.416z"/>
<path fill-rule="evenodd" clip-rule="evenodd" fill="#A8DFF3" stroke="#000000" stroke-width="2" stroke-linecap="square" stroke-miterlimit="10" d="  M379.752,331.666c15.821,0,31.642,0,47.463,0c15.595,0,8.789-17.314,8.789-30.75c-19.501,0.25-39.001,0.5-58.502,0.75  C380.494,311.75,382.448,322.103,379.752,331.666z"/>
<path fill-rule="evenodd" clip-rule="evenodd" fill="#7E5823" stroke="#000000" stroke-width="2" stroke-linecap="square" stroke-miterlimit="10" d="  M367.002,555.916c24.907,0,49.813,0,74.72,0c6.417,0,11.069-44.035,11.532-51c1.852-27.862-1.723-64.338-26.625-82.125  C350.465,368.388,359.262,519.933,367.002,555.916z"/>
<path fill-rule="evenodd" clip-rule="evenodd" fill="#7E5823" stroke="#000000" stroke-width="2" stroke-linecap="square" stroke-miterlimit="10" d="  M254.502,260.416c0,13.75,0,27.5,0,41.25c19.5-0.25,39-0.5,58.5-0.75c-0.354-6.618,0.635-42.077-4.667-41.936  C290.391,259.458,272.446,259.937,254.502,260.416z"/>
<path fill-rule="evenodd" clip-rule="evenodd" fill="#DD7926" stroke="#000000" stroke-width="2" stroke-linecap="square" stroke-miterlimit="10" d="  M256.752,302.416c0.461,23.526-9.023,40.483-12.75,60.75c0.457-2.483-1.653,20.004,3.75,10.5c-3.416,6.008-7.953,5.462-13.5,12.75  c-43.675,57.383-34.57,100.111-18.683,169.545c3.523,15.396,0.158,29.205,16.698,29.205c28.712,0,57.424,0,86.136,0  c22.628,0,23.642,4.15,29.207-17.604c5.232-20.455,9.78-40.838,13.92-61.535c12.906-64.529,1.102-90.588-44.778-134.611  c2.251-0.086,7.589-1.524,11.25-1.5c-16.272-17.632-17.464-45.893-15-69C294.252,301.416,275.502,301.916,256.752,302.416z"/>
<path fill-rule="evenodd" clip-rule="evenodd" fill="#A8DFF3" stroke="#000000" stroke-width="2" stroke-linecap="square" stroke-miterlimit="10" d="  M256.752,331.666c15.82,0,31.641,0,47.461,0c15.595,0,8.789-17.314,8.789-30.75c-19.5,0.25-39,0.5-58.5,0.75  C257.494,311.75,259.448,322.103,256.752,331.666z"/>
<path fill-rule="evenodd" clip-rule="evenodd" fill="#7E5823" stroke="#000000" stroke-width="2" stroke-linecap="square" stroke-miterlimit="10" d="  M244.002,555.916c24.906,0,49.812,0,74.718,0c6.417,0,11.069-44.035,11.532-51c1.852-27.862-1.723-64.338-26.625-82.125  C227.465,368.389,236.262,519.934,244.002,555.916z"/>
</svg>