<svg xmlns="http://www.w3.org/2000/svg" xmlns:xlink="http://www.w3.org/1999/xlink" version="1.1" id="Layer_1" x="0px" y="0px" enable-background="new 0 0 822.05 841.89" xml:space="preserve" viewBox="327.93 258.23 166 328.5">
<path fill-rule="evenodd" clip-rule="evenodd" fill="#7E5823" stroke="#000000" stroke-width="2" stroke-linecap="square" stroke-miterlimit="10" d="  M381.002,260.666c0,13.75,0,27.5,0,41.25c19.5-0.25,39.001-0.5,58.502-0.75c-0.354-6.619,0.635-42.077-4.667-41.936  C416.892,259.708,398.947,260.187,381.002,260.666z"/>
<path fill-rule="evenodd" clip-rule="evenodd" fill="#DD7926" stroke="#000000" stroke-width="2" stroke-linecap="square" stroke-miterlimit="10" d="  M383.252,302.666c0.461,23.526-9.023,40.483-12.75,60.75c0.457-2.483-1.653,20.004,3.75,10.5c-3.416,6.008-7.953,5.462-13.5,12.75  c-43.675,57.383-34.57,100.111-18.683,169.545c3.523,15.396,0.158,29.205,16.699,29.205c28.712,0,57.424,0,86.137,0  c22.628,0,23.642,4.15,29.207-17.604c5.232-20.455,9.78-40.838,13.919-61.535c12.906-64.529,1.103-90.588-44.777-134.611  c2.252-0.086,7.59-1.524,11.25-1.5c-16.272-17.632-17.464-45.893-15-69C420.753,301.666,402.002,302.166,383.252,302.666z"/>
<path fill-rule="evenodd" clip-rule="evenodd" fill="#A8DFF3" stroke="#000000" stroke-width="2" stroke-linecap="square" stroke-miterlimit="10" d="  M383.252,331.916c15.821,0,31.642,0,47.463,0c15.595,0,8.789-17.314,8.789-30.75c-19.501,0.25-39.001,0.5-58.502,0.75  C383.994,312,385.948,322.353,383.252,331.916z"/>
<path fill-rule="evenodd" clip-rule="evenodd" fill="#7E5823" stroke="#000000" stroke-width="2" stroke-linecap="square" stroke-miterlimit="10" d="  M370.502,556.166c24.907,0,49.813,0,74.72,0c6.417,0,11.069-44.035,11.532-51c1.852-27.862-1.723-64.338-26.625-82.125  C353.965,368.638,362.762,520.183,370.502,556.166z"/>
</svg>