<svg xmlns="http://www.w3.org/2000/svg" xmlns:xlink="http://www.w3.org/1999/xlink" version="1.1" id="Layer_1" x="0px" y="0px" enable-background="new 0 0 822.05 841.89" xml:space="preserve" viewBox="317.65 339.64 190.83 163.51">
<path fill-rule="evenodd" clip-rule="evenodd" d="M358,341.14c-2.211,7.516-2.879,19.5,5.25,19.5c20.223,0-4.975,20.821-5.25,14.25  c0.516,12.34-5.123,25.464,9.75,23.25c8.862,26.047-21.6,13.559-29.25,2.25c-3.015-4.457-7.5-31.656-7.5-32.625  C331,358.602,343.583,344.245,358,341.14z"/>
<path fill-rule="evenodd" clip-rule="evenodd" d="M425.5,362.89c0,7.672-4.388,30,4.277,30c18.675,0,18.675,21.75,0,21.75  c-3.703,0-15.078,41.367,10.723,35.25c14.128,33.705-34.794,27.562-45,3.75c-3.74-8.726-0.75-25.708-0.75-34.664  c0-8.249-10.5-1.802-10.5-20.447c0,2.686,11.219-20.535,10.5-19.889C402.489,371.68,416.179,367.665,425.5,362.89z"/>
<path fill-rule="evenodd" clip-rule="evenodd" d="M483.25,430.39c-3.281,11.154,19.465,34.5,5.25,34.5  c-8.06,0-11.281,25.244,4.5,22.5c8.653,25.433-21.316,14.225-29.25,3c-1.273-1.803-7.5-33.116-7.5-29.389  C456.25,449.802,467.314,433.617,483.25,430.39z"/>
<path fill-rule="evenodd" clip-rule="evenodd" d="M494.5,339.64c-2.329,7.978-2.896,19.5,5.625,19.5  c21.723,0-5.756,20.732-5.625,14.25c-0.259,12.854-4.807,26.021,10.5,23.25c8.583,26.085-22.237,13.759-30,2.25  c-2.326-3.448-7.5-32.84-7.5-32.625C467.5,358.86,481.707,342.23,494.5,339.64z"/>
<path fill-rule="evenodd" clip-rule="evenodd" d="M342.25,430.39c-3.281,11.154,19.465,34.5,5.25,34.5  c-7.856,0-11.535,25.401,4.5,22.5c7.503,22.052-27.531,20.19-29.625-0.75C319.961,462.505,305.793,439.839,342.25,430.39z"/>
</svg>