<svg xmlns="http://www.w3.org/2000/svg" xmlns:xlink="http://www.w3.org/1999/xlink" version="1.1" id="Layer_1" x="0px" y="0px" enable-background="new 0 0 822.05 841.89" xml:space="preserve" viewBox="314.52 258.77 192.5 331.19">
<path fill-rule="evenodd" clip-rule="evenodd" fill="#FFFEF1" stroke="#000000" stroke-width="2" stroke-linecap="square" stroke-miterlimit="10" d="  M387.515,490.66c10.483,0,73.041-5.941,76.373,1.366c14.042,30.795,28.085,61.589,42.127,92.384  c-24.895,0-76.288,10.64-97.944-0.621c-30.852-16.043-61.704-32.086-92.556-48.129C339.515,520.66,363.515,505.66,387.515,490.66z"/>
<path fill-rule="evenodd" clip-rule="evenodd" fill="#FFDB78" stroke="#000000" stroke-width="2" stroke-linecap="square" stroke-miterlimit="10" d="  M438.515,527.41c-11.2,26.546-21.002-4.555-21.002-17.518c0-35.426,0-70.852,0-106.278c0-12.998-7.953-59.68,0-70.454  c15.503-21.003,21.002-0.119,21.002,17.518C438.515,409.588,438.515,468.499,438.515,527.41z"/>
<path fill-rule="evenodd" clip-rule="evenodd" fill="#FFFBD2" stroke="#000000" stroke-width="2" stroke-linecap="square" stroke-miterlimit="10" d="  M467.015,296.41c-1.801,48.763-75.75,49.439-75.75,0C391.265,247.219,465.223,247.893,467.015,296.41z"/>
</svg>