<svg xmlns="http://www.w3.org/2000/svg" xmlns:xlink="http://www.w3.org/1999/xlink" version="1.1" id="Layer_1" x="0px" y="0px" enable-background="new 0 0 822.05 841.89" xml:space="preserve" viewBox="214.23 273.75 391.25 292.67">
<path fill-rule="evenodd" clip-rule="evenodd" fill="#BCBEC0" stroke="#000000" stroke-width="2" stroke-linecap="square" stroke-miterlimit="10" d="  M279.727,460.002c-14.023,9.876-13.445-44.717-9-54C278.74,389.267,279.551,453.673,279.727,460.002z"/>
<path fill-rule="evenodd" clip-rule="evenodd" fill="#BCBEC0" stroke="#000000" stroke-width="2" stroke-linecap="square" stroke-miterlimit="10" d="  M362.227,561.252c-6.27,7.378-7.376,4.821-7.667-6.5c-0.47-18.326-10.944-65.684-2.083-81.25c5.947-10.448,7.442-2.249,7.667,6.5  C360.838,507.085,361.532,534.169,362.227,561.252z"/>
<path fill-rule="evenodd" clip-rule="evenodd" fill="#BCBEC0" stroke="#000000" stroke-width="2" stroke-linecap="square" stroke-miterlimit="10" d="  M529.479,509.502c-2.318,2.385-0.556,4.703-4.5,6c-7.127-15.423-5.969-84.602,5.25-98.25c7.652-9.31,4.921,19.158,4.945,18.844  C533.275,460.565,531.377,485.034,529.479,509.502z"/>
<path fill-rule="evenodd" clip-rule="evenodd" fill="#90A7D6" stroke="#000000" stroke-width="2" stroke-linecap="square" stroke-miterlimit="10" d="  M263.977,328.752c69.015-8.666,139.977-31.699,205.5-5.997c17.58,6.896,93.225,24.133,98.788,42.491  c12.071,39.835,24.143,79.671,36.214,119.506c-45.235-30.213-91.903-43.522-144-24.75c-14.667,5.285-31.733,19.151-46.5,21.75  c-10.897,1.918-26.128-3.528-37.877-2.625c-38.941,2.995-26.115,29.353-29.625,59.625c-9.426-9.925-33.682-23.064-38.25-35.25  c-5.439-14.509-0.235-18.89,7.641-35.766c14.456-30.977-11.101-22.426-30.561-43.183c-22.386-23.878-40.623-6.05-70.08,4.698  C231.477,395.752,247.727,362.252,263.977,328.752z"/>
<path fill="none" stroke="#000000" stroke-width="2" stroke-linecap="square" stroke-miterlimit="10" d="M270.727,409.002  c-2.25-26.75-4.5-53.5-6.75-80.25c38.572,28.76,66.904,66.443,115.499,59.405c62.501-9.052,125.002-18.104,187.503-27.155  c-10,31-20,62-30,93"/>
<path fill="none" stroke="#000000" stroke-width="2" stroke-linecap="square" stroke-miterlimit="10" d="M324.727,448.752  c8.25-18.75,16.5-37.5,24.75-56.25c-0.75,32.5-1.5,65-2.25,97.5"/>
<path fill-rule="evenodd" clip-rule="evenodd" fill="#ED1C24" stroke="#000000" stroke-width="2" stroke-linecap="square" stroke-miterlimit="10" d="  M476.229,274.752c6.476,0.973,13.494,6.228,19.5,9c-7.25,11.5-14.5,23-21.75,34.5c6.076,1.556,11.812,6.768,18,7.5  c-12.25,3-24.5,6-36.75,9c-2-9.5-4-19-6-28.5c4.5,1.75,9,3.5,13.5,5.25C467.229,299.252,471.729,287.002,476.229,274.752z"/>
</svg>