<svg xmlns="http://www.w3.org/2000/svg" xmlns:xlink="http://www.w3.org/1999/xlink" version="1.1" id="Layer_1" x="0px" y="0px" enable-background="new 0 0 822.05 841.89" xml:space="preserve" viewBox="313.24 367.91 191.69 109.14">
<path fill-rule="evenodd" clip-rule="evenodd" fill="#724211" stroke="#000000" stroke-width="1.25" stroke-linecap="square" stroke-miterlimit="10" d="  M394.061,381.283c-13.89-0.317-19.023,66.605-9.75,75.752C395.891,468.457,394.061,390.608,394.061,381.283z"/>
<path fill-rule="evenodd" clip-rule="evenodd" fill="#724211" stroke="#000000" stroke-width="1.25" stroke-linecap="square" stroke-miterlimit="10" d="  M482.562,381.283c-13.89-0.317-19.023,66.605-9.75,75.752C484.393,468.457,482.562,390.608,482.562,381.283z"/>
<path fill-rule="evenodd" clip-rule="evenodd" fill="#724211" stroke="#000000" stroke-width="1.25" stroke-linecap="square" stroke-miterlimit="10" d="  M346.811,399.283c-13.89-0.317-19.023,66.605-9.75,75.752C348.641,486.457,346.811,408.608,346.811,399.283z"/>
<path fill-rule="evenodd" clip-rule="evenodd" fill="#724211" stroke="#000000" stroke-width="1.25" stroke-linecap="square" stroke-miterlimit="10" d="  M434.562,399.283c-15.185-0.796-19.96,65.985-10.5,75.752C436.457,487.833,434.562,408.386,434.562,399.283z"/>
<path fill-rule="evenodd" clip-rule="evenodd" fill="#724211" stroke="#000000" stroke-width="1.25" stroke-linecap="square" stroke-miterlimit="10" d="  M441.312,405.283c-42,0-84.001,0-126.002,0c21.623-12.613,47.831-36.75,73.387-36.75c38.538,0,77.077,0,115.615,0  C483.312,380.783,462.312,393.033,441.312,405.283z"/>
<path fill-rule="evenodd" clip-rule="evenodd" fill="#724211" stroke="#000000" stroke-width="1.25" stroke-linecap="square" stroke-miterlimit="10" d="  M442.062,418.033c-22.852,0-45.702,0-68.554,0c-6.512,0-72.359,7.212-57.448-12.75c4.684-6.271,60.4,0,68.554,0  C400.596,405.283,446.581,394.448,442.062,418.033z"/>
<path fill-rule="evenodd" clip-rule="evenodd" fill="#724211" stroke="#000000" stroke-width="1.25" stroke-linecap="square" stroke-miterlimit="10" d="  M442.062,417.283c18.36-11.419,60.744-26.14,62.25-48.75C487.965,378.184,437.639,395.154,442.062,417.283z"/>
</svg>