<svg xmlns="http://www.w3.org/2000/svg" xmlns:xlink="http://www.w3.org/1999/xlink" version="1.1" id="Layer_1" x="0px" y="0px" enable-background="new 0 0 822.05 841.89" xml:space="preserve" viewBox="231.34 316.81 357.92 211.83">
<path fill-rule="evenodd" clip-rule="evenodd" fill="#B4D670" stroke="#000000" stroke-width="2" stroke-linecap="square" stroke-miterlimit="10" d="  M237.25,454.89c0.24,3.173-0.144,6.203,0.75,9c4.694-17.367,12.514-42.554,4.5-59.25c26.988-0.595,12.291-22.25,29.25-34.5  c19.345-13.974,27.021,5.235,45.75-12c9.224-8.488,10.432-25.183,22.5-30.75c11.24-5.185,27.773,3.443,40.5-0.375  c28.18-8.454,41.599-10.342,75-8.625c25.346,1.303,32.996,13.344,54.75,21.75c16.675,6.444,14.966,1.188,27.75,9.75  c1.028,0.688,23.394,19.624,24,21c3.863,8.763-8.705,48.215-16.544,51.272c-33.34,13.005-66.679,26.01-100.019,39.015  c-14.503,5.657-46.245-9.023-62.688-10.037c-31.221-1.925-65.016,2.932-96.3,4.375C270.128,456.269,253.587,455.154,237.25,454.89z"/>
<path fill-rule="evenodd" clip-rule="evenodd" fill="#C6161D" d="M242.5,526.14c-14.843,2.537-9.381-30.467-8.25-39.75  c2.991-24.538,19.855-35.132,23.625-57.75c7.628-45.768,100.46-70.458,134.625-87.75c28.779-14.565,22.11-8.313,48.75,4.5  c30.762,14.795,46.711-9.27,73.361,4.056c12.319,6.16,10.483,16.139,21.889,22.194c10.878,5.775,27.296-0.241,34.5,4.5  c4.389,2.888,16.611,7.333,12,14.25c-13.37,20.055-2.256,1.076-0.75,20.25c0.424,5.403,15.522,23.325-3.822,27.155  c-39.272,7.775-78.545,15.552-117.818,23.327c-49.042,9.71-98.084,19.42-147.126,29.131  C284.231,496.044,266.565,520.588,242.5,526.14z"/>
<path fill="none" stroke="#000000" stroke-width="2" stroke-linecap="square" stroke-miterlimit="10" d="M242.5,526.14  c-14.843,2.537-9.381-30.467-8.25-39.75c2.991-24.538,19.855-35.132,23.625-57.75c7.628-45.768,100.46-70.458,134.625-87.75  c28.779-14.565,22.11-8.313,48.75,4.5c30.762,14.795,46.711-9.27,73.361,4.056c12.319,6.16,10.483,16.139,21.889,22.194  c10.878,5.775,27.296-0.241,34.5,4.5c4.389,2.888,16.611,7.333,12,14.25c-13.37,20.055-2.256,1.076-0.75,20.25  c0.424,5.403,15.522,23.325-3.822,27.155c-39.272,7.775-78.545,15.552-117.818,23.327c-49.042,9.71-98.084,19.42-147.126,29.131  c-31.289,6.194-42.248,16.193-67.983,37.387"/>
<path fill-rule="evenodd" clip-rule="evenodd" fill="#EAB649" stroke="#000000" stroke-width="2" stroke-linecap="square" stroke-miterlimit="10" d="  M245.5,527.64c0.389-170.883,247.917-227.657,337.5-90.75C470.5,467.14,358,497.39,245.5,527.64z"/>
</svg>