<svg xmlns="http://www.w3.org/2000/svg" xmlns:xlink="http://www.w3.org/1999/xlink" version="1.1" id="Layer_1" x="0px" y="0px" enable-background="new 0 0 822.05 841.89" xml:space="preserve" viewBox="222.9 269.19 375.73 307.45">
<path fill-rule="evenodd" clip-rule="evenodd" fill="#B4D670" stroke="#000000" stroke-width="2" stroke-linecap="square" stroke-miterlimit="10" d="  M227.25,374.64c0.17,2.208,0,4.534,0,6.75c4.936-14.116,8.903-31.226,3.75-45c20.938-0.656,8.786-17.25,22.5-26.25  c15.396-10.103,23.87,6.945,36-11.25c21.303-31.955,75.872-30.653,112.125-26.625c21.173,2.353,65.764,21.017,71.625,42.375  C495.286,394.942,267.458,375.496,227.25,374.64z"/>
<path fill-rule="evenodd" clip-rule="evenodd" fill="#C6161D" d="M231,428.64c-11.734-2.889-6.294-37.245-2.25-51  c5.955-20.256,23.57-37.017,39-49.875c21.102-17.585,52.311-30.274,77.25-39.375c30.151-11.003,26.009,6.305,57.75,8.25  c6.619,0.406,15.937-9.447,20.25-9c14.226,1.473,18.133,17.033,24,20.25c8.587,4.708,28.068,2.292,33.75,6.75  c12.071,9.471,1.317,11.048,3.75,15.75c10.709,20.702,12.134,29.41-22.615,36.176c-39.114,7.616-78.228,15.232-117.342,22.849  c-24.591,4.788-59.224,5.209-82.042,15.975C251.004,410.814,241.908,424.272,231,428.64z"/>
<path fill="none" stroke="#000000" stroke-width="2" stroke-linecap="square" stroke-miterlimit="10" d="M231,428.64  c-11.734-2.889-6.294-37.245-2.25-51c5.955-20.256,23.57-37.017,39-49.875c21.102-17.585,52.311-30.274,77.25-39.375  c30.151-11.003,26.009,6.305,57.75,8.25c6.619,0.406,15.937-9.447,20.25-9c14.226,1.473,18.133,17.033,24,20.25  c8.587,4.708,28.068,2.292,33.75,6.75c12.071,9.471,1.317,11.048,3.75,15.75c10.709,20.702,12.134,29.41-22.615,36.176  c-39.114,7.616-78.228,15.232-117.342,22.849c-24.591,4.788-59.224,5.209-82.042,15.975c-10.405,4.909-20.307,16.662-29.25,24"/>
<path fill-rule="evenodd" clip-rule="evenodd" fill="#EAB649" stroke="#000000" stroke-width="2" stroke-linecap="square" stroke-miterlimit="10" d="  M233.25,429.39c1.418-132.992,186.103-168.165,256.5-68.25C404.25,383.89,318.75,406.64,233.25,429.39z"/>
<path fill-rule="evenodd" clip-rule="evenodd" fill="#B4D670" stroke="#000000" stroke-width="2" stroke-linecap="square" stroke-miterlimit="10" d="  M331.5,422.64c0.232,2.422,0,5.065,0,7.5c4.214-15.434,12.201-91.921,43.125-74.25c19.963,11.407,22.224-31.082,46.5-28.875  c23.984,2.181,37.199-9.147,61.875-7.125c23.107,1.894,30.987,5.911,50.25,13.5c13.414,5.285,35.136,6.396,41.25,23.25  C606.312,444.332,375.872,423.584,331.5,422.64z"/>
<path fill-rule="evenodd" clip-rule="evenodd" fill="#C6161D" d="M335.25,476.64c-31.097-1.973,19.519-90.277,38.25-102.75  c22.414-14.925,51.439-28.815,75.75-37.5c27.941-9.982,31.825,6.107,62.25,8.25c10.787,0.76,10.923-9.111,21.75-6  c15.1,4.338,14.136,16.129,24.75,21c6.449,2.959,26.11-0.219,30,3.75c13.094,13.361-5.129,10.457-3,17.25  c3.311,10.563,15.527,8.056,12,21c-4.4,16.149-46.042,15.902-59.252,18.527c-60.571,12.034-143.95,11.78-192.665,51.75  C337.215,478.375,340.618,475.232,335.25,476.64z"/>
<path fill="none" stroke="#000000" stroke-width="2" stroke-linecap="square" stroke-miterlimit="10" d="M335.25,476.64  c-31.097-1.973,19.519-90.277,38.25-102.75c22.414-14.925,51.439-28.815,75.75-37.5c27.941-9.982,31.825,6.107,62.25,8.25  c10.787,0.76,10.923-9.111,21.75-6c15.1,4.338,14.136,16.129,24.75,21c6.449,2.959,26.11-0.219,30,3.75  c13.094,13.361-5.129,10.457-3,17.25c3.311,10.563,15.527,8.056,12,21c-4.4,16.149-46.042,15.902-59.252,18.527  c-60.571,12.034-143.95,11.78-192.665,51.75c-2.528,2.074-5.056,4.148-7.583,6.223"/>
<path fill-rule="evenodd" clip-rule="evenodd" fill="#EAB649" stroke="#000000" stroke-width="2" stroke-linecap="square" stroke-miterlimit="10" d="  M337.5,478.14c3.2-130.539,184.581-171.386,255.75-69C508,432.14,422.75,455.14,337.5,478.14z"/>
<path fill-rule="evenodd" clip-rule="evenodd" fill="#B4D670" stroke="#000000" stroke-width="2" stroke-linecap="square" stroke-miterlimit="10" d="  M294,520.89c0.17,2.208,0,4.534,0,6.75c4.936-14.116,8.903-31.226,3.75-45c20.938-0.656,8.786-17.251,22.5-26.25  c15.396-10.103,23.87,6.945,36-11.25c21.303-31.955,75.872-30.653,112.125-26.625c21.173,2.353,65.764,21.018,71.625,42.375  C562.036,541.192,334.208,521.746,294,520.89z"/>
<path fill-rule="evenodd" clip-rule="evenodd" fill="#C6161D" d="M297.75,574.89c-11.734-2.889-6.294-37.245-2.25-51  c5.955-20.256,23.57-37.017,39-49.875c21.103-17.586,52.311-30.273,77.252-39.375c30.149-11.002,26.008,6.305,57.748,8.25  c6.619,0.405,15.937-9.446,20.25-9c14.226,1.474,18.133,17.032,24,20.25c8.587,4.708,28.068,2.292,33.75,6.75  c12.071,9.471,1.317,11.048,3.75,15.75c10.709,20.702,12.134,29.409-22.615,36.176c-39.114,7.616-78.229,15.232-117.342,22.849  c-24.591,4.789-59.224,5.21-82.042,15.976C317.754,557.064,308.658,570.522,297.75,574.89z"/>
<path fill="none" stroke="#000000" stroke-width="2" stroke-linecap="square" stroke-miterlimit="10" d="M297.75,574.89  c-11.734-2.889-6.294-37.245-2.25-51c5.955-20.256,23.57-37.017,39-49.875c21.103-17.586,52.311-30.273,77.252-39.375  c30.149-11.002,26.008,6.305,57.748,8.25c6.619,0.405,15.937-9.446,20.25-9c14.226,1.474,18.133,17.032,24,20.25  c8.587,4.708,28.068,2.292,33.75,6.75c12.071,9.471,1.317,11.048,3.75,15.75c10.709,20.702,12.134,29.409-22.615,36.176  c-39.114,7.616-78.229,15.232-117.342,22.849c-24.591,4.789-59.224,5.21-82.042,15.976c-10.405,4.909-20.307,16.662-29.25,24"/>
<path fill-rule="evenodd" clip-rule="evenodd" fill="#EAB649" stroke="#000000" stroke-width="2" stroke-linecap="square" stroke-miterlimit="10" d="  M300,575.64c1.418-132.992,186.103-168.165,256.5-68.25C471,530.14,385.5,552.89,300,575.64z"/>
</svg>