<svg xmlns="http://www.w3.org/2000/svg" xmlns:xlink="http://www.w3.org/1999/xlink" version="1.1" id="Layer_1" x="0px" y="0px" enable-background="new 0 0 822.05 841.89" xml:space="preserve" viewBox="316.83 340.83 186.92 160.06">
<path fill-rule="evenodd" clip-rule="evenodd" fill="#F8F300" stroke="#000000" stroke-width="1.25" stroke-linecap="square" stroke-miterlimit="10" d="  M410.875,385.515c-27.996,14.017-65.651,52.146-93,31.5c0,28.36-6.68,61.831,33,56.25c24.974-3.513,56.818-37.081,77.25-51.75  C416.769,413.114,409.467,399.856,410.875,385.515z"/>
<path fill-rule="evenodd" clip-rule="evenodd" fill="#EED5B6" stroke="#000000" stroke-width="1.25" stroke-linecap="square" stroke-miterlimit="10" d="  M479.875,368.265c-5.86-25.696-32.731-6.49-48,6c0.339-7.722-3.836-16.864-3.75-24c-4.21,3.061-24.104,35.045-24.75,38.25  c-2.063,10.247-1.624,27.074,13.5,31.5C435.482,425.46,501.632,388.389,479.875,368.265z"/>
<path fill-rule="evenodd" clip-rule="evenodd" fill="#137827" d="M471.625,360.015l-27.75,15.75L471.625,360.015z"/>
<line fill="none" stroke="#000000" stroke-width="1.25" stroke-linecap="square" stroke-miterlimit="10" x1="471.625" y1="360.015" x2="443.875" y2="375.765"/>
<path fill-rule="evenodd" clip-rule="evenodd" fill="#137827" d="M479.875,368.265l-30,14.25L479.875,368.265z"/>
<line fill="none" stroke="#000000" stroke-width="1.25" stroke-linecap="square" stroke-miterlimit="10" x1="479.875" y1="368.265" x2="449.875" y2="382.515"/>
<path fill-rule="evenodd" clip-rule="evenodd" fill="#137827" d="M482.875,379.515l-26.25,12.75L482.875,379.515z"/>
<line fill="none" stroke="#000000" stroke-width="1.25" stroke-linecap="square" stroke-miterlimit="10" x1="482.875" y1="379.515" x2="456.625" y2="392.265"/>
<path fill-rule="evenodd" clip-rule="evenodd" fill="#FF0000" stroke="#000000" stroke-width="1.25" stroke-linecap="square" stroke-miterlimit="10" d="  M503.125,418.515c-16.013-29.059-3.645-36.229-36-43.5c-20.446-4.595-15.608-9.344-37.5,5.25c-6.469,4.313-29.746-4.445-17.25,15.75  c-33.267,2.417,6.01,65.251,29.625,68.625c10.294,1.471,41.34-1.468,47.625-7.875C498.638,447.579,495.663,430.321,503.125,418.515z  "/>
<path fill-rule="evenodd" clip-rule="evenodd" fill="#EED5B6" stroke="#000000" stroke-width="1.25" stroke-linecap="square" stroke-miterlimit="10" d="  M476.125,456.015c3.488-25.905-26.612-18.914-46.5-14.25c24.563-48.214-50.192,5.428-37.5,27.75  C402.666,488.053,486.463,488.423,476.125,456.015z"/>
<path fill-rule="evenodd" clip-rule="evenodd" fill="#137827" d="M471.625,445.515l-31.5,3L471.625,445.515z"/>
<line fill="none" stroke="#000000" stroke-width="1.25" stroke-linecap="square" stroke-miterlimit="10" x1="471.625" y1="445.515" x2="440.125" y2="448.515"/>
<path fill-rule="evenodd" clip-rule="evenodd" fill="#137827" d="M476.125,456.015l-33.75,0.75L476.125,456.015z"/>
<line fill="none" stroke="#000000" stroke-width="1.25" stroke-linecap="square" stroke-miterlimit="10" x1="476.125" y1="456.015" x2="442.375" y2="456.765"/>
<path fill-rule="evenodd" clip-rule="evenodd" fill="#137827" d="M473.875,467.265l-29.25,0.75L473.875,467.265z"/>
<line fill="none" stroke="#000000" stroke-width="1.25" stroke-linecap="square" stroke-miterlimit="10" x1="473.875" y1="467.265" x2="444.625" y2="468.015"/>
<path fill="none" stroke="#000000" stroke-width="0.75" stroke-linecap="square" stroke-miterlimit="10" d="M449.875,344.265  c12.436-5.246,27.275-4.205,36,6.75"/>
<path fill="none" stroke="#000000" stroke-width="0.75" stroke-linecap="square" stroke-miterlimit="10" d="M405.625,373.515  c0.037-13.654,5.903-26.936,19.5-31.5"/>
<path fill="none" stroke="#000000" stroke-width="0.75" stroke-linecap="square" stroke-miterlimit="10" d="M449.875,395.265  c13.517-3.468,27.038,2.916,26.25,18"/>
<path fill="none" stroke="#000000" stroke-width="0.75" stroke-linecap="square" stroke-miterlimit="10" d="M430.375,396.765  c-7.083,0.171-10.354,4.729-9.75,12"/>
<path fill="none" stroke="#000000" stroke-width="0.75" stroke-linecap="square" stroke-miterlimit="10" d="M452.875,418.515  c6.327-2.659,10.25-0.11,11.25,6.75"/>
<path fill="none" stroke="#000000" stroke-width="0.75" stroke-linecap="square" stroke-miterlimit="10" d="M452.875,489.015  c12.498,3.539,26.114,0.772,30.75-12"/>
<path fill-rule="evenodd" clip-rule="evenodd" fill="#F8F300" stroke="#000000" stroke-width="1.25" stroke-linecap="square" stroke-miterlimit="10" d="  M404.875,444.015c-19.956,0.021-75.184,15.579-87,3c0,17.75,0,35.5,0,53.25c29.914-2.226,60.043-10.557,89.25-17.25  C399.574,471.438,399.229,456.574,404.875,444.015z"/>
</svg>