<svg xmlns="http://www.w3.org/2000/svg" xmlns:xlink="http://www.w3.org/1999/xlink" version="1.1" id="Layer_1" x="0px" y="0px" enable-background="new 0 0 822.05 841.89" xml:space="preserve" viewBox="308.26 365.77 202.2 115.72">
<path fill-rule="evenodd" clip-rule="evenodd" fill="#137827" stroke="#000000" stroke-width="1.25" stroke-linecap="square" stroke-miterlimit="10" d="  M419.5,456.015c12.5,0,25,0,37.5,0c-0.658-7.758-10.986-33.378-1.5-39c12.381-7.338,15.87,23.743,16.5,29.25  c1.532,13.396,7.212,18.568-3,26.25C455.63,482.572,415.056,479.172,419.5,456.015z"/>
<path fill-rule="evenodd" clip-rule="evenodd" fill="#EED5B6" stroke="#000000" stroke-width="1.25" stroke-linecap="square" stroke-miterlimit="10" d="  M411.252,457.515c-1.123-3.263-2.264-6.995-2.252-9.75c16.087,7.967,27.568,20.287,3.377,25.125  C387.554,477.855,386.866,450.747,411.252,457.515z"/>
<path fill-rule="evenodd" clip-rule="evenodd" fill="#EED5B6" stroke="#000000" stroke-width="1.25" stroke-linecap="square" stroke-miterlimit="10" d="  M488.5,420.015c-6.876-4.103-12.208-3.246-15.75-11.25c1.212-0.237,1.712,0.513,1.5,2.25c-23.97-4.52-25.798,10.014-21.39,27.204  C459.604,464.52,504.932,442.31,488.5,420.015z"/>
<path fill-rule="evenodd" clip-rule="evenodd" fill="#137827" stroke="#000000" stroke-width="1.25" stroke-linecap="square" stroke-miterlimit="10" d="  M449.5,416.265c11.639,28.021,32.103-5.644,48,3.75c-19.477,1.094-7.808,25.719-6,39c-8.023,0-36.75-4.474-36.75,4.083  c0,12.365-1.014,17.019-16.5,12.417C441.57,455.862,441.11,434.319,449.5,416.265z"/>
<path fill-rule="evenodd" clip-rule="evenodd" fill="#F4EE12" stroke="#000000" stroke-width="1.25" stroke-linecap="square" stroke-miterlimit="10" d="  M448,478.515c-16.987,0-33.975,0-50.962,0c-2.207,0-6.212-45.037-2.288-49.5c4.585-5.215,43.091,0,50.962,0  C450.587,429.015,448,471.375,448,478.515z"/>
<path fill-rule="evenodd" clip-rule="evenodd" fill="#137827" stroke="#000000" stroke-width="1.25" stroke-linecap="square" stroke-miterlimit="10" d="  M454.75,459.015c12.25,0,24.5,0,36.75,0c-4.829-35.486,7.96-55.682,15-9.75c2.171,14.163,7.604,18.593-3,26.25  C490.068,485.212,448.912,482.865,454.75,459.015z"/>
<path fill-rule="evenodd" clip-rule="evenodd" fill="#EED5B6" stroke="#000000" stroke-width="1.25" stroke-linecap="square" stroke-miterlimit="10" d="  M445.75,461.265c-1.022-3.028-1.56-6.063-3-9c12.976,3.898,30.679,18.314,7.875,22.875  C422.236,480.818,422.009,453.498,445.75,461.265z"/>
<path fill-rule="evenodd" clip-rule="evenodd" fill="#EED5B6" stroke="#000000" stroke-width="1.25" stroke-linecap="square" stroke-miterlimit="10" d="  M448.75,396.765C442.162,399.286,442.188,399.276,448.75,396.765L448.75,396.765z"/>
<path fill-rule="evenodd" clip-rule="evenodd" fill="#EED5B6" stroke="#000000" stroke-width="1.25" stroke-linecap="square" stroke-miterlimit="10" d="  M487,402.015C479.997,399.418,480.917,399.759,487,402.015L487,402.015z"/>
<path fill-rule="evenodd" clip-rule="evenodd" fill="#EED5B6" stroke="#000000" stroke-width="1.25" stroke-linecap="square" stroke-miterlimit="10" d="  M446.5,382.515c-8.434,32.897,29.803,49.541,39.375,11.25C493.028,365.153,455.556,355.121,446.5,382.515z"/>
<path fill-rule="evenodd" clip-rule="evenodd" fill="#F1EFAD" d="M361.75,476.265c-8.575,0-46.582,5.5-51.75,0  c-2.32-2.469-2.32-44.781,0-47.25c2.184-2.324,49.566-2.324,51.75,0C366.993,434.595,361.75,467.817,361.75,476.265z"/>
<line fill="none" stroke="#000000" stroke-width="1.5" stroke-linecap="square" stroke-miterlimit="10" x1="361.75" y1="476.265" x2="352.75" y2="476.265"/>
<line fill="none" stroke="#000000" stroke-width="1.5" stroke-linecap="square" stroke-miterlimit="10" x1="346.75" y1="476.265" x2="337.75" y2="476.265"/>
<line fill="none" stroke="#000000" stroke-width="1.5" stroke-linecap="square" stroke-miterlimit="10" x1="331.75" y1="476.265" x2="322.75" y2="476.265"/>
<path fill="none" stroke="#000000" stroke-width="1.5" stroke-linecap="square" stroke-miterlimit="10" d="M316.75,476.265  c-3.368,0.935-6.333,0.932-6.75-2.25"/>
<line fill="none" stroke="#000000" stroke-width="1.5" stroke-linecap="square" stroke-miterlimit="10" x1="310" y1="468.015" x2="310" y2="459.015"/>
<line fill="none" stroke="#000000" stroke-width="1.5" stroke-linecap="square" stroke-miterlimit="10" x1="310" y1="453.015" x2="310" y2="444.015"/>
<path fill="none" stroke="#000000" stroke-width="1.5" stroke-linecap="square" stroke-miterlimit="10" d="M310,438.015  c-0.271-2.35,0.287-7.836,0.75-9"/>
<line fill="none" stroke="#000000" stroke-width="1.5" stroke-linecap="square" stroke-miterlimit="10" x1="316.75" y1="429.015" x2="325.75" y2="429.015"/>
<line fill="none" stroke="#000000" stroke-width="1.5" stroke-linecap="square" stroke-miterlimit="10" x1="331.75" y1="429.015" x2="340.75" y2="429.015"/>
<line fill="none" stroke="#000000" stroke-width="1.5" stroke-linecap="square" stroke-miterlimit="10" x1="346.75" y1="429.015" x2="355.75" y2="429.015"/>
<path fill="none" stroke="#000000" stroke-width="1.5" stroke-linecap="square" stroke-miterlimit="10" d="M361.75,429.015  c0,3,0,6,0,9"/>
<line fill="none" stroke="#000000" stroke-width="1.5" stroke-linecap="square" stroke-miterlimit="10" x1="361.75" y1="444.015" x2="361.75" y2="453.015"/>
<line fill="none" stroke="#000000" stroke-width="1.5" stroke-linecap="square" stroke-miterlimit="10" x1="361.75" y1="459.015" x2="361.75" y2="468.015"/>
<line fill="none" stroke="#000000" stroke-width="1.5" stroke-linecap="square" stroke-miterlimit="10" x1="361.75" y1="474.015" x2="361.75" y2="476.265"/>
<path fill-rule="evenodd" clip-rule="evenodd" d="M369.25,453.015c-74.045,0-2.493,3.13,0,13.5c6.021-1.754,15.313-5.902,20.25-9.75  C381.157,450.617,372,445.308,369.25,453.015z"/>
</svg>