<svg xmlns="http://www.w3.org/2000/svg" xmlns:xlink="http://www.w3.org/1999/xlink" version="1.1" id="Layer_1" x="0px" y="0px" enable-background="new 0 0 822.05 841.89" xml:space="preserve" viewBox="226.83 256.07 362.71 324.41">
<path fill-rule="evenodd" clip-rule="evenodd" fill="#AF8977" stroke="#000000" stroke-width="2" stroke-linecap="square" stroke-miterlimit="10" d="  M263.75,518.64c35.446,39.699,54.255,56.023,109.5,52.5c44.442-2.835,87.722-20.396,124.5-45  c35.567-23.794,67.096-59.646,79.5-101.25c13.508-45.303-3.192-75.562-23.25-116.25C457.25,378.64,360.5,448.64,263.75,518.64z"/>
<path fill-rule="evenodd" clip-rule="evenodd" fill="#BCBEC0" stroke="#000000" stroke-width="2" stroke-linecap="square" stroke-miterlimit="10" d="  M241.25,493.89c-11.586,21.461-1.322,43.717,24.75,30.75C259.636,513.356,249.261,504.636,241.25,493.89z"/>
<path fill-rule="evenodd" clip-rule="evenodd" fill="#BCBEC0" stroke="#000000" stroke-width="2" stroke-linecap="square" stroke-miterlimit="10" d="  M296.75,543.39c15.742,8.912,35.309,10.983,53.25,9C335.016,592.938,295.946,586.369,296.75,543.39z"/>
<path fill-rule="evenodd" clip-rule="evenodd" fill="#BCBEC0" stroke="#000000" stroke-width="2" stroke-linecap="square" stroke-miterlimit="10" d="  M410.75,539.64c22.474-5.738,45.672-18.525,63-33.75C484.14,545.472,434.434,579.573,410.75,539.64z"/>
<path fill-rule="evenodd" clip-rule="evenodd" fill="#BCBEC0" stroke="#000000" stroke-width="2" stroke-linecap="square" stroke-miterlimit="10" d="  M524,468.39c17.228-16.023,34.25-35.741,36.75-60C602.483,435.716,562.958,479.24,524,468.39z"/>
<path fill-rule="evenodd" clip-rule="evenodd" fill="#BCBEC0" stroke="#000000" stroke-width="2" stroke-linecap="square" stroke-miterlimit="10" d="  M565.25,327.39c4.19,13.639,8.219,27.719,9,42C588.711,353.369,600.85,320.589,565.25,327.39z"/>
<path fill-rule="evenodd" clip-rule="evenodd" fill="#FFF9BA" stroke="#000000" stroke-width="2" stroke-linecap="square" stroke-miterlimit="10" d="  M553.25,304.14c83.241,132.486-230.286,324.601-312,189.75C159.094,358.31,477.995,167.57,553.25,304.14z"/>
</svg>