<svg xmlns="http://www.w3.org/2000/svg" xmlns:xlink="http://www.w3.org/1999/xlink" version="1.1" id="Layer_1" x="0px" y="0px" enable-background="new 0 0 822.05 841.89" xml:space="preserve" viewBox="231.49 299.44 358.01 244.77">
<path fill-rule="evenodd" clip-rule="evenodd" fill="#FFFBCE" stroke="#000000" stroke-width="2" stroke-linecap="square" stroke-miterlimit="10" d="  M239,433.937c-10.188,12.324-8.213,25.952,4.5,34.5c24.137,16.229,86.729-25.422,111.22-35.475  c14.42-5.919,4.78-31.595-5.845-36.148C324,386.153,263.803,424.272,239,433.937z"/>
<path fill="none" stroke="#000000" stroke-width="2" stroke-linecap="square" stroke-miterlimit="10" d="M239,433.937  c17.821,5.187,26.142,23.699,16.5,39.75"/>
<path fill="none" stroke="#000000" stroke-width="2" stroke-linecap="square" stroke-miterlimit="10" d="M360.5,406.189  c50.949,6.709,95.927,29.321,47.25,77.998c-9.28,9.28-51,32.594-51,48.375c0,20.18,73.822-1.57,84.75-4.125"/>
<path fill-rule="evenodd" clip-rule="evenodd" fill="#FFFBCE" stroke="#000000" stroke-width="2" stroke-linecap="square" stroke-miterlimit="10" d="  M302,340.189c-11.825,14.262-6.11,31.157,10.5,37.5c15.522,5.928,96.246-25.94,106.5-39c10.257-13.062,5.528-30.403-9-36.75  C388.051,292.35,324.324,331.489,302,340.189z"/>
<path fill="none" stroke="#000000" stroke-width="2" stroke-linecap="square" stroke-miterlimit="10" d="M302,340.189  c17.355,6.011,26.387,23.118,17.25,39.75"/>
<path fill="none" stroke="#000000" stroke-width="2" stroke-linecap="square" stroke-miterlimit="10" d="M423.5,312.439  c52.68,4.576,94.631,31.369,47.25,78.75c-6.512,6.511-55.125,35.786-51,49.498c5.518,18.339,72.979-3.279,84.75-6"/>
<path fill-rule="evenodd" clip-rule="evenodd" fill="#FFFBCE" stroke="#000000" stroke-width="2" stroke-linecap="square" stroke-miterlimit="10" d="  M386,435.437c-10.428,12.662-7.351,29.1,7.875,35.625c25.984,11.136,82.435-26.288,107.854-36.609  c15.672-6.363,4.801-30.999-5.479-36.139C473.024,386.701,409.547,426.261,386,435.437z"/>
<path fill="none" stroke="#000000" stroke-width="2" stroke-linecap="square" stroke-miterlimit="10" d="M386,435.437  c17.877,4.965,26.592,22.398,17.25,39"/>
<path fill="none" stroke="#000000" stroke-width="2" stroke-linecap="square" stroke-miterlimit="10" d="M508.25,407.689  c52.167,0.678,89.618,28.599,50.25,74.248c-7.459,8.648-58.111,39.143-54.75,53.25c4.687,19.667,72.841-2.571,84.75-6"/>
</svg>