<svg xmlns="http://www.w3.org/2000/svg" xmlns:xlink="http://www.w3.org/1999/xlink" version="1.1" id="Layer_1" x="0px" y="0px" enable-background="new 0 0 822.05 841.89" xml:space="preserve" viewBox="216.38 267.35 389.14 308.56">
<path fill-rule="evenodd" clip-rule="evenodd" fill="#EAB649" stroke="#000000" stroke-width="2" stroke-linecap="square" stroke-miterlimit="10" d="  M220.523,325.154c9.65,28.467,9.535,43.262,36.75,55.5c23.929,10.76,51.836,14.25,77.833,14.25c27.261,0,54.32-3.333,80.792-9.75  c40.675-9.86,40.764-20.047,51.376-60C390.123,362.843,296.102,368.982,220.523,325.154z"/>
<path fill-rule="evenodd" clip-rule="evenodd" fill="#FFDB78" stroke="#000000" stroke-width="2" stroke-linecap="square" stroke-miterlimit="10" d="  M469.525,319.904c-16.755,46.195-243.865,55.689-252.002,3.75C210.824,280.89,450.124,270.804,469.525,319.904z"/>
<path fill-rule="evenodd" clip-rule="evenodd" fill="#F7931E" stroke="#000000" stroke-width="2" stroke-linecap="square" stroke-miterlimit="10" d="  M237.023,319.154c36.747-64.064,183.609-70.797,217.502-1.5C391.273,351.36,300.532,352.732,237.023,319.154z"/>
<path fill-rule="evenodd" clip-rule="evenodd" fill="#EAB763" stroke="#000000" stroke-width="2" stroke-linecap="square" stroke-miterlimit="10" d="  M261.023,328.904c13.833-28.887,45.948-70.61,83.25-57c-19.782,6.291-37.054,17.906-49.5,34.5  C284.747,319.773,281.02,347.468,261.023,328.904z"/>
<path fill-rule="evenodd" clip-rule="evenodd" fill="#EAB763" stroke="#000000" stroke-width="2" stroke-linecap="square" stroke-miterlimit="10" d="  M317.273,337.904c12.019-29.645,43.98-77.488,82.5-62.25c-19.954,8.085-37.437,19.779-49.5,37.875  C341.725,326.351,335.991,360.982,317.273,337.904z"/>
<path fill-rule="evenodd" clip-rule="evenodd" fill="#EAB763" stroke="#000000" stroke-width="2" stroke-linecap="square" stroke-miterlimit="10" d="  M292.523,274.904c26.29-0.374,50.684,3.792,75.75,11.625c8.791,2.747,80.978,33.958,63.752,45.375  c-13.609,9.02-46.915-23.275-60.002-29.25c-28.567-13.042-60.766-20.02-92.25-18.75  C283.061,278.737,287.361,277.137,292.523,274.904z"/>
<line fill="none" stroke="#000000" stroke-width="2" stroke-linecap="square" stroke-miterlimit="10" x1="241.523" y1="340.154" x2="251.273" y2="377.654"/>
<line fill="none" stroke="#000000" stroke-width="2" stroke-linecap="square" stroke-miterlimit="10" x1="258.023" y1="345.404" x2="268.523" y2="382.154"/>
<line fill="none" stroke="#000000" stroke-width="2" stroke-linecap="square" stroke-miterlimit="10" x1="278.273" y1="351.404" x2="288.023" y2="388.904"/>
<line fill="none" stroke="#000000" stroke-width="2" stroke-linecap="square" stroke-miterlimit="10" x1="302.273" y1="355.154" x2="308.273" y2="393.404"/>
<line fill="none" stroke="#000000" stroke-width="2" stroke-linecap="square" stroke-miterlimit="10" x1="323.273" y1="358.154" x2="327.773" y2="396.404"/>
<line fill="none" stroke="#000000" stroke-width="2" stroke-linecap="square" stroke-miterlimit="10" x1="344.273" y1="356.654" x2="345.023" y2="394.904"/>
<line fill="none" stroke="#000000" stroke-width="2" stroke-linecap="square" stroke-miterlimit="10" x1="364.523" y1="355.154" x2="361.523" y2="394.154"/>
<line fill="none" stroke="#000000" stroke-width="2" stroke-linecap="square" stroke-miterlimit="10" x1="384.023" y1="352.904" x2="378.773" y2="391.904"/>
<line fill="none" stroke="#000000" stroke-width="2" stroke-linecap="square" stroke-miterlimit="10" x1="403.523" y1="347.654" x2="396.773" y2="391.904"/>
<line fill="none" stroke="#000000" stroke-width="2" stroke-linecap="square" stroke-miterlimit="10" x1="422.275" y1="345.404" x2="413.275" y2="387.404"/>
<line fill="none" stroke="#000000" stroke-width="2" stroke-linecap="square" stroke-miterlimit="10" x1="438.025" y1="342.404" x2="429.775" y2="383.654"/>
<line fill="none" stroke="#000000" stroke-width="2" stroke-linecap="square" stroke-miterlimit="10" x1="452.275" y1="335.654" x2="444.025" y2="377.654"/>
<path fill-rule="evenodd" clip-rule="evenodd" fill="#EAB649" stroke="#000000" stroke-width="2" stroke-linecap="square" stroke-miterlimit="10" d="  M355.523,410.654c9.65,28.466,9.535,43.261,36.75,55.498c23.929,10.76,51.838,14.25,77.835,14.25c27.261,0,54.319-3.332,80.792-9.75  c40.673-9.86,40.763-20.046,51.375-59.998C525.128,448.344,431.098,454.478,355.523,410.654z"/>
<path fill-rule="evenodd" clip-rule="evenodd" fill="#FFDB78" stroke="#000000" stroke-width="2" stroke-linecap="square" stroke-miterlimit="10" d="  M604.525,405.404c-16.752,46.194-243.864,55.685-252.002,3.75C345.823,366.393,585.123,356.303,604.525,405.404z"/>
<path fill-rule="evenodd" clip-rule="evenodd" fill="#F7931E" stroke="#000000" stroke-width="2" stroke-linecap="square" stroke-miterlimit="10" d="  M372.023,404.654c36.747-64.064,183.609-70.797,217.502-1.5C526.276,436.859,435.529,438.231,372.023,404.654z"/>
<path fill-rule="evenodd" clip-rule="evenodd" fill="#EAB763" stroke="#000000" stroke-width="2" stroke-linecap="square" stroke-miterlimit="10" d="  M396.023,414.404c13.832-28.887,45.951-70.609,83.252-57c-19.782,6.291-37.055,17.906-49.5,34.5  C419.748,405.274,416.021,432.968,396.023,414.404z"/>
<path fill-rule="evenodd" clip-rule="evenodd" fill="#EAB763" stroke="#000000" stroke-width="2" stroke-linecap="square" stroke-miterlimit="10" d="  M452.275,423.402c12.021-29.644,43.979-77.486,82.5-62.248c-19.954,8.085-37.437,19.779-49.5,37.875  C476.728,411.851,470.992,446.48,452.275,423.402z"/>
<path fill-rule="evenodd" clip-rule="evenodd" fill="#EAB763" stroke="#000000" stroke-width="2" stroke-linecap="square" stroke-miterlimit="10" d="  M427.525,360.404c26.289-0.374,50.685,3.792,75.75,11.625c8.79,2.747,80.976,33.959,63.75,45.375  c-13.609,9.02-46.912-23.275-60-29.25c-28.566-13.042-60.766-20.02-92.25-18.75C418.062,364.237,422.363,362.638,427.525,360.404z"/>
<line fill="none" stroke="#000000" stroke-width="2" stroke-linecap="square" stroke-miterlimit="10" x1="376.523" y1="425.652" x2="386.273" y2="463.152"/>
<line fill="none" stroke="#000000" stroke-width="2" stroke-linecap="square" stroke-miterlimit="10" x1="393.023" y1="430.902" x2="403.523" y2="467.652"/>
<line fill="none" stroke="#000000" stroke-width="2" stroke-linecap="square" stroke-miterlimit="10" x1="413.275" y1="436.902" x2="423.025" y2="474.402"/>
<line fill="none" stroke="#000000" stroke-width="2" stroke-linecap="square" stroke-miterlimit="10" x1="437.275" y1="440.652" x2="443.275" y2="478.902"/>
<line fill="none" stroke="#000000" stroke-width="2" stroke-linecap="square" stroke-miterlimit="10" x1="458.275" y1="443.652" x2="462.775" y2="481.902"/>
<line fill="none" stroke="#000000" stroke-width="2" stroke-linecap="square" stroke-miterlimit="10" x1="479.275" y1="442.152" x2="480.025" y2="480.402"/>
<line fill="none" stroke="#000000" stroke-width="2" stroke-linecap="square" stroke-miterlimit="10" x1="499.525" y1="440.652" x2="496.525" y2="479.652"/>
<line fill="none" stroke="#000000" stroke-width="2" stroke-linecap="square" stroke-miterlimit="10" x1="519.025" y1="438.402" x2="513.775" y2="477.402"/>
<line fill="none" stroke="#000000" stroke-width="2" stroke-linecap="square" stroke-miterlimit="10" x1="538.525" y1="433.152" x2="531.775" y2="477.402"/>
<line fill="none" stroke="#000000" stroke-width="2" stroke-linecap="square" stroke-miterlimit="10" x1="557.275" y1="430.902" x2="548.275" y2="472.902"/>
<line fill="none" stroke="#000000" stroke-width="2" stroke-linecap="square" stroke-miterlimit="10" x1="573.025" y1="427.902" x2="564.775" y2="469.152"/>
<line fill="none" stroke="#000000" stroke-width="2" stroke-linecap="square" stroke-miterlimit="10" x1="587.275" y1="421.154" x2="579.025" y2="463.152"/>
<path fill-rule="evenodd" clip-rule="evenodd" fill="#EAB649" stroke="#000000" stroke-width="2" stroke-linecap="square" stroke-miterlimit="10" d="  M243.023,503.652c9.65,28.467,9.535,43.262,36.75,55.5c23.929,10.76,51.836,14.25,77.833,14.25c27.261,0,54.321-3.332,80.793-9.75  c40.674-9.86,40.763-20.047,51.375-60C412.623,541.341,318.602,547.48,243.023,503.652z"/>
<path fill-rule="evenodd" clip-rule="evenodd" fill="#FFDB78" stroke="#000000" stroke-width="2" stroke-linecap="square" stroke-miterlimit="10" d="  M492.025,498.402c-16.755,46.195-243.865,55.689-252.002,3.75C233.324,459.388,472.624,449.302,492.025,498.402z"/>
<path fill-rule="evenodd" clip-rule="evenodd" fill="#F7931E" stroke="#000000" stroke-width="2" stroke-linecap="square" stroke-miterlimit="10" d="  M259.523,497.652c36.747-64.064,183.609-70.797,217.502-1.5C413.773,529.859,323.032,531.23,259.523,497.652z"/>
<path fill-rule="evenodd" clip-rule="evenodd" fill="#EAB763" stroke="#000000" stroke-width="2" stroke-linecap="square" stroke-miterlimit="10" d="  M283.523,507.402c13.833-28.887,45.948-70.61,83.25-57c-19.782,6.291-37.054,17.905-49.5,34.5  C307.247,498.271,303.52,525.966,283.523,507.402z"/>
<path fill-rule="evenodd" clip-rule="evenodd" fill="#EAB763" stroke="#000000" stroke-width="2" stroke-linecap="square" stroke-miterlimit="10" d="  M339.773,516.402c12.02-29.646,43.98-77.487,82.502-62.25c-19.955,8.085-37.438,19.779-49.502,37.875  C364.225,504.849,358.491,539.48,339.773,516.402z"/>
<path fill-rule="evenodd" clip-rule="evenodd" fill="#EAB763" stroke="#000000" stroke-width="2" stroke-linecap="square" stroke-miterlimit="10" d="  M315.023,453.402c26.29-0.373,50.684,3.792,75.75,11.625c8.79,2.747,80.979,33.959,63.752,45.375  c-13.609,9.019-46.914-23.275-60.002-29.25c-28.567-13.041-60.766-20.021-92.25-18.75  C305.561,457.235,309.861,455.635,315.023,453.402z"/>
<line fill="none" stroke="#000000" stroke-width="2" stroke-linecap="square" stroke-miterlimit="10" x1="264.023" y1="518.652" x2="273.773" y2="556.152"/>
<line fill="none" stroke="#000000" stroke-width="2" stroke-linecap="square" stroke-miterlimit="10" x1="280.523" y1="523.902" x2="291.023" y2="560.652"/>
<line fill="none" stroke="#000000" stroke-width="2" stroke-linecap="square" stroke-miterlimit="10" x1="300.773" y1="529.902" x2="310.523" y2="567.402"/>
<line fill="none" stroke="#000000" stroke-width="2" stroke-linecap="square" stroke-miterlimit="10" x1="324.773" y1="533.652" x2="330.773" y2="571.902"/>
<line fill="none" stroke="#000000" stroke-width="2" stroke-linecap="square" stroke-miterlimit="10" x1="345.773" y1="536.652" x2="350.273" y2="574.902"/>
<line fill="none" stroke="#000000" stroke-width="2" stroke-linecap="square" stroke-miterlimit="10" x1="366.773" y1="535.152" x2="367.523" y2="573.402"/>
<line fill="none" stroke="#000000" stroke-width="2" stroke-linecap="square" stroke-miterlimit="10" x1="387.023" y1="533.652" x2="384.023" y2="572.652"/>
<line fill="none" stroke="#000000" stroke-width="2" stroke-linecap="square" stroke-miterlimit="10" x1="406.523" y1="531.402" x2="401.273" y2="570.402"/>
<line fill="none" stroke="#000000" stroke-width="2" stroke-linecap="square" stroke-miterlimit="10" x1="426.025" y1="526.152" x2="419.275" y2="570.402"/>
<line fill="none" stroke="#000000" stroke-width="2" stroke-linecap="square" stroke-miterlimit="10" x1="444.775" y1="523.902" x2="435.775" y2="565.902"/>
<line fill="none" stroke="#000000" stroke-width="2" stroke-linecap="square" stroke-miterlimit="10" x1="460.525" y1="520.902" x2="452.275" y2="562.152"/>
<line fill="none" stroke="#000000" stroke-width="2" stroke-linecap="square" stroke-miterlimit="10" x1="474.775" y1="514.152" x2="466.525" y2="556.152"/>
</svg>