<svg xmlns="http://www.w3.org/2000/svg" xmlns:xlink="http://www.w3.org/1999/xlink" version="1.1" id="Layer_1" x="0px" y="0px" enable-background="new 0 0 822.05 841.89" xml:space="preserve" viewBox="236.1 279.81 344.04 284.08">
<path fill-rule="evenodd" clip-rule="evenodd" fill="#ED2224" stroke="#010101" stroke-width="2" stroke-linecap="square" stroke-miterlimit="10" d="  M466.754,355.89c-40.738,9.75-83.825,53.834-70.5,98.25c13.689,45.629,71.358,56.604,112.5,45  C627.286,465.706,584.485,321.294,466.754,355.89z M501.254,466.14c-60.755,16.82-82.708-62.738-22.5-79.5  C550.845,366.57,578.191,450.501,501.254,466.14z"/>
<path fill-rule="evenodd" clip-rule="evenodd" fill="#ED2224" stroke="#010101" stroke-width="2" stroke-linecap="square" stroke-miterlimit="10" d="  M375.254,369.39c25.422-1.412,137.25-1.495,137.25-42.75c0-40.975-95.622-45.75-123.749-45.75  c-35.708,0-145.396-4.049-150.362,45.611C234.266,367.775,351.088,368.041,375.254,369.39z"/>
<path fill-rule="evenodd" clip-rule="evenodd" fill="#ED2224" stroke="#010101" stroke-width="2" stroke-linecap="square" stroke-miterlimit="10" d="  M512.504,324.39c-10.699,69.204-244.931,59.001-274.5,6c-7.42,93.992,30.032,232.5,145.5,232.5c49.349,0,89.675-48.058,108.75-89.25  C501.523,453.625,525.095,321.404,512.504,324.39z"/>
<line fill="none" stroke="#010101" stroke-width="2" stroke-linecap="square" stroke-miterlimit="10" x1="283.004" y1="358.89" x2="280.754" y2="415.14"/>
<path fill-rule="evenodd" clip-rule="evenodd" fill="#FFDB78" stroke="#010101" stroke-width="2" stroke-linecap="square" stroke-miterlimit="10" d="  M262.754,417.39c-13.175,29.645-9.255,41.408-3.111,73.667c5.271,27.668,32.125,15.569,57.662,14.897  c4.065-0.107,2.759-52.2,0.949-60.064C310.142,410.646,294.361,417.39,262.754,417.39z"/>
<path fill-rule="evenodd" clip-rule="evenodd" fill="#D5A743" stroke="#010101" stroke-width="2" stroke-linecap="square" stroke-miterlimit="10" d="  M271.004,351.39c71.156-25.812,140.157-23.564,211.5,0C412.835,373.497,340.458,373.832,271.004,351.39z"/>
</svg>