<svg xmlns="http://www.w3.org/2000/svg" xmlns:xlink="http://www.w3.org/1999/xlink" version="1.1" id="Layer_1" x="0px" y="0px" enable-background="new 0 0 822.05 841.89" xml:space="preserve" viewBox="234.57 259.52 352.25 322.25">
<path fill-rule="evenodd" clip-rule="evenodd" fill="#FFDB78" stroke="#000000" stroke-width="2" stroke-linecap="square" stroke-miterlimit="10" d="  M323.315,289.022c7,16,14,32,21,48c17.141-9.657,34.283-19.314,51.424-28.971c3.926-2.211-20.179-41.155-23.674-47.529  C355.815,270.022,339.565,279.522,323.315,289.022z"/>
<path fill-rule="evenodd" clip-rule="evenodd" fill="#FFF9AE" stroke="#000000" stroke-width="2" stroke-linecap="square" stroke-miterlimit="10" d="  M241.565,394.772c-9.518,41.642,7.273,81.058,17.25,122.25c3.75-1.75,7.5-3.5,11.25-5.25c5.071,8.135,40.283-9.599,52.46-13.861  c30.368-10.629,20.554-14.203,11.027-44.492c-7.297-23.199-9.476-50.267-29.363-65.021  C285.01,374.166,263.627,388.283,241.565,394.772z"/>
<path fill="none" stroke="#000000" stroke-width="2" stroke-linecap="square" stroke-miterlimit="10" d="M315.815,397.022  c-26.75,8-53.5,16-80.25,24c11.5,30.25,23,60.5,34.5,90.75"/>
<line fill="none" stroke="#000000" stroke-width="2" stroke-linecap="square" stroke-miterlimit="10" x1="268.565" y1="400.772" x2="284.315" y2="398.522"/>
<path fill="none" stroke="#000000" stroke-width="2" stroke-linecap="square" stroke-miterlimit="10" d="M275.315,399.272  c12.469-22.685-69.522-55.988-12.75-62.25c17.101-1.886,32.237,19.557,48,15.75c20.292-4.9,16.463-30.605,26.25-44.25"/>
<line fill="none" stroke="#000000" stroke-width="2" stroke-linecap="square" stroke-miterlimit="10" x1="336.815" y1="303.272" x2="340.565" y2="313.022"/>
<path fill-rule="evenodd" clip-rule="evenodd" fill="#FFDB78" stroke="#000000" stroke-width="2" stroke-linecap="square" stroke-miterlimit="10" d="  M511.567,297.272c7,16,14,32,21,48c17.75-10,35.5-20,53.25-30c-8.75-15.5-17.5-31-26.25-46.5  C543.567,278.272,527.567,287.772,511.567,297.272z"/>
<path fill-rule="evenodd" clip-rule="evenodd" fill="#FFF9AE" stroke="#000000" stroke-width="2" stroke-linecap="square" stroke-miterlimit="10" d="  M429.817,403.022c-9.503,41.574,6.841,81.039,16.5,122.25c4-1.75,8-3.5,12-5.25c5.071,8.135,40.283-9.599,52.461-13.861  c30.367-10.629,20.553-14.203,11.026-44.492c-7.296-23.199-9.476-50.267-29.362-65.021  C473.262,382.416,451.879,396.533,429.817,403.022z"/>
<path fill="none" stroke="#000000" stroke-width="2" stroke-linecap="square" stroke-miterlimit="10" d="M504.067,405.272  c-26.75,8-53.5,16-80.25,24c11.5,30.25,23,60.5,34.5,90.75"/>
<line fill="none" stroke="#000000" stroke-width="2" stroke-linecap="square" stroke-miterlimit="10" x1="456.817" y1="409.022" x2="471.817" y2="406.772"/>
<path fill="none" stroke="#000000" stroke-width="2" stroke-linecap="square" stroke-miterlimit="10" d="M463.567,407.522  c9.387-17.812-69.537-67.413-8.625-61.875c15.183,1.38,31.729,20.171,46.875,14.625c17.728-6.491,13.833-31.866,23.25-43.5"/>
<line fill="none" stroke="#000000" stroke-width="2" stroke-linecap="square" stroke-miterlimit="10" x1="524.317" y1="311.522" x2="528.067" y2="321.272"/>
<path fill-rule="evenodd" clip-rule="evenodd" fill="#FFDB78" stroke="#000000" stroke-width="2" stroke-linecap="square" stroke-miterlimit="10" d="  M412.567,353.522c6.75,15.75,13.5,31.5,20.25,47.25c18-10,36-20,54-30c-8.75-15.25-17.5-30.5-26.25-45.75  C444.567,334.522,428.567,344.022,412.567,353.522z"/>
<path fill-rule="evenodd" clip-rule="evenodd" fill="#FFF9AE" stroke="#000000" stroke-width="2" stroke-linecap="square" stroke-miterlimit="10" d="  M330.815,458.522c-10.685,41.552,6.488,80.912,16.5,122.25c4-1.75,8-3.5,12-5.25c5.071,8.135,40.284-9.599,52.462-13.861  c30.421-10.647,20.489-14.245,10.731-44.492c-7.406-22.958-9.954-50.08-29.443-65.021  C374.314,437.771,352.583,452.12,330.815,458.522z"/>
<path fill="none" stroke="#000000" stroke-width="2" stroke-linecap="square" stroke-miterlimit="10" d="M404.315,460.772  c-26.75,8-53.5,16-80.25,24c11.75,30.25,23.5,60.5,35.25,90.75"/>
<line fill="none" stroke="#000000" stroke-width="2" stroke-linecap="square" stroke-miterlimit="10" x1="357.815" y1="464.522" x2="372.815" y2="462.272"/>
<path fill="none" stroke="#000000" stroke-width="2" stroke-linecap="square" stroke-miterlimit="10" d="M363.815,463.772  c13.449-23.092-68.112-57.104-12-63c17.276-1.815,31.524,19.892,48,15.75c21.291-5.353,15.367-30.386,26.252-44.25"/>
<line fill="none" stroke="#000000" stroke-width="2" stroke-linecap="square" stroke-miterlimit="10" x1="425.317" y1="367.772" x2="429.067" y2="376.772"/>
</svg>