<svg xmlns="http://www.w3.org/2000/svg" xmlns:xlink="http://www.w3.org/1999/xlink" version="1.1" id="Layer_1" x="0px" y="0px" enable-background="new 0 0 822.05 841.89" xml:space="preserve" viewBox="305.03 348.03 210.5 144.18">
<path fill-rule="evenodd" clip-rule="evenodd" fill="#E8C8A6" stroke="#000000" stroke-width="0.5" stroke-linecap="square" stroke-miterlimit="10" d="  M451.531,466.896c3.104-12.042,6.237-27.665,2.25-37.5c0.391,13.032-2.284,25.81-6,38.25c-12.874-14.837-39.404-38.721-59.252-37.5  c19.093,10.038,39.029,20.53,53.627,36.75C448.84,474.323,449.62,476.219,451.531,466.896z"/>
<path fill-rule="evenodd" clip-rule="evenodd" fill="#E8C8A6" stroke="#000000" stroke-width="0.5" stroke-linecap="square" stroke-miterlimit="10" d="  M459.781,398.648c-9.491,2.092-20.388,27.527-6.75,31.498C468.024,434.511,465.327,405.235,459.781,398.648z"/>
<path fill-rule="evenodd" clip-rule="evenodd" fill="#E8C8A6" stroke="#000000" stroke-width="0.5" stroke-linecap="square" stroke-miterlimit="10" d="  M328.529,428.646c-15.88,6.792-16.084,59.25-1.5,62.25C323.405,469.868,325.286,449.574,328.529,428.646z"/>
<path fill-rule="evenodd" clip-rule="evenodd" fill="#FFFFFF" stroke="#000000" stroke-width="0.5" stroke-linecap="square" stroke-miterlimit="10" d="  M390.029,426.396c-6.644,0-63.936,5.186-42.75-17.998C357.469,397.248,396.82,403.59,390.029,426.396z"/>
<path fill-rule="evenodd" clip-rule="evenodd" fill="#E8C8A6" stroke="#000000" stroke-width="0.5" stroke-linecap="square" stroke-miterlimit="10" d="  M336.029,420.398c10.614-1.1,19.431-6.643,22.5-16.5c3.821,3.951,25.757,6.075,36,15.75c-8.16,30.463-3.161,41.572-35.297,43.264  C338.455,464.005,324.151,437.128,336.029,420.398z"/>
<path fill-rule="evenodd" clip-rule="evenodd" fill="#FFFFFF" stroke="#000000" stroke-width="0.5" stroke-linecap="square" stroke-miterlimit="10" d="  M404.279,452.646c9.994,11.668,38.23,12.215,34.502-9.75c-0.754-4.439-22.478-19.198-27.002-20.998  c-23.525-9.356-26,10.15-45.75,8.998c-17.891-1.044-19.672-23.603-40.5-11.998c-14.403,8.025-18.121,35.887-20.25,50.248  c6.507,1.868,18.786,1.771,25.5,0.75c0-5.545,1.472-13.303,0-18.75c-0.881,29.872-4.505,39.75,26.538,39.75  C398.039,490.896,405.491,495.39,404.279,452.646z"/>
<path fill-rule="evenodd" clip-rule="evenodd" stroke="#000000" stroke-width="0.5" stroke-linecap="square" stroke-miterlimit="10" d="  M393.779,375.398c-0.118,35.112-52.146,35.338-52.5,0C340.916,339.15,394.921,339.343,393.779,375.398z"/>
<path fill-rule="evenodd" clip-rule="evenodd" fill="#FFFFFF" stroke="#000000" stroke-width="0.5" stroke-linecap="square" stroke-miterlimit="10" d="  M342.029,414.398c1.5-2.25,3-4.5,4.5-6.75c11.987,14.206,28,24.439,12,42.748C353.029,438.397,347.529,426.397,342.029,414.398z"/>
<path fill-rule="evenodd" clip-rule="evenodd" fill="#FFFFFF" stroke="#000000" stroke-width="0.5" stroke-linecap="square" stroke-miterlimit="10" d="  M391.529,415.898c-0.75-2.5-1.5-5-2.25-7.5c-12.684,14.634-26.221,23.64-12.75,43.498  C381.529,439.897,386.529,427.897,391.529,415.898z"/>
<path fill-rule="evenodd" clip-rule="evenodd" fill="#E8C8A6" stroke="#000000" stroke-width="0.5" stroke-linecap="square" stroke-miterlimit="10" d="  M339.029,383.648c7.943,5.22,7.549,6.006,3.75-6.75C340.398,378.519,340.875,382.392,339.029,383.648z"/>
<path fill-rule="evenodd" clip-rule="evenodd" fill="#E8C8A6" stroke="#000000" stroke-width="0.5" stroke-linecap="square" stroke-miterlimit="10" d="  M388.529,383.648c7.235,4.133,7.874,6.849,3.75-6.75C389.146,378.212,389.592,383.08,388.529,383.648z"/>
<path fill-rule="evenodd" clip-rule="evenodd" fill="#E8C8A6" stroke="#000000" stroke-width="0.5" stroke-linecap="square" stroke-miterlimit="10" d="  M384.779,360.398c-14.432,14.735-25.014-6.348-35.25,1.5c-11.718,8.984-7.222,39.617,4.875,46.875  C384.478,426.817,406.939,379.409,384.779,360.398z"/>
<path fill-rule="evenodd" clip-rule="evenodd" fill="#03074F" stroke="#000000" stroke-width="0.5" stroke-linecap="square" stroke-miterlimit="10" d="  M375.029,463.896c0.825-7.601-0.738-15.54-3.75-22.5c-3.61,0.659-2.819,0.695-6.75,0.75c-4.792,15.707-3.68,32.459-4.5,48.75  C381.459,496.504,376.12,478.995,375.029,463.896z"/>
<path fill-rule="evenodd" clip-rule="evenodd" fill="#03074F" d="M367.529,430.896C364.311,446.213,372.076,446.315,367.529,430.896  L367.529,430.896z"/>
<path fill="none" stroke="#000000" stroke-width="0.5" stroke-linecap="square" stroke-miterlimit="10" d="M367.529,430.896  C364.311,446.213,372.076,446.315,367.529,430.896L367.529,430.896z"/>
<path fill-rule="evenodd" clip-rule="evenodd" fill="#FFFFFF" stroke="#000000" stroke-width="0.5" stroke-linecap="square" stroke-miterlimit="10" d="  M330.779,451.146c0,6.25,0,12.5,0,18.75C330.779,463.646,330.779,457.396,330.779,451.146z"/>
<path fill-rule="evenodd" clip-rule="evenodd" fill="#8BACCC" stroke="#000000" stroke-width="0.5" stroke-linecap="square" stroke-miterlimit="10" d="  M480.031,405.398c-5.628,16.715-42.175,17.135-37.5-3C446.684,384.511,476.302,392.571,480.031,405.398z"/>
<path fill-rule="evenodd" clip-rule="evenodd" fill="#8BACCC" stroke="#000000" stroke-width="0.5" stroke-linecap="square" stroke-miterlimit="10" d="  M515.281,439.896c-4.649,8.665-29.093,15.649-27.75,0C488.811,424.991,510.16,431.756,515.281,439.896z"/>
<path fill-rule="evenodd" clip-rule="evenodd" fill="#8BACCC" stroke="#000000" stroke-width="0.5" stroke-linecap="square" stroke-miterlimit="10" d="  M507.781,367.898c-4.028,8.676-27.873,15.326-27,0C481.635,352.913,503.606,359.322,507.781,367.898z"/>
<path fill-rule="evenodd" clip-rule="evenodd" fill="#8BACCC" stroke="#000000" stroke-width="0.5" stroke-linecap="square" stroke-miterlimit="10" d="  M443.281,372.398c-4.009,8.235-26.805,15.195-27.752,0C414.56,356.844,439.329,363.668,443.281,372.398z"/>
<path fill-rule="evenodd" clip-rule="evenodd" fill="#8BACCC" stroke="#000000" stroke-width="0.5" stroke-linecap="square" stroke-miterlimit="10" d="  M439.531,352.148C421.738,363.267,422.071,340.116,439.531,352.148L439.531,352.148z"/>
<path fill-rule="evenodd" clip-rule="evenodd" fill="#8BACCC" stroke="#000000" stroke-width="0.5" stroke-linecap="square" stroke-miterlimit="10" d="  M417.031,358.148C398.293,368.873,398.293,347.423,417.031,358.148L417.031,358.148z"/>
<path fill-rule="evenodd" clip-rule="evenodd" fill="#8BACCC" d="M418.531,364.898l-3.752-3L418.531,364.898z"/>
<line fill="none" stroke="#000000" stroke-width="0.5" stroke-linecap="square" stroke-miterlimit="10" x1="418.531" y1="364.898" x2="414.779" y2="361.898"/>
<path fill-rule="evenodd" clip-rule="evenodd" fill="#8BACCC" d="M431.281,357.398v4.5V357.398z"/>
<line fill="none" stroke="#000000" stroke-width="0.5" stroke-linecap="square" stroke-miterlimit="10" x1="431.281" y1="357.398" x2="431.281" y2="361.898"/>
<path fill-rule="evenodd" clip-rule="evenodd" fill="#8BACCC" d="M486.031,376.148l-12.75,18.75L486.031,376.148z"/>
<line fill="none" stroke="#000000" stroke-width="0.5" stroke-linecap="square" stroke-miterlimit="10" x1="486.031" y1="376.148" x2="473.281" y2="394.898"/>
<path fill-rule="evenodd" clip-rule="evenodd" fill="#8BACCC" d="M473.281,415.898l16.5,17.998L473.281,415.898z"/>
<line fill="none" stroke="#000000" stroke-width="0.5" stroke-linecap="square" stroke-miterlimit="10" x1="473.281" y1="415.898" x2="489.781" y2="433.896"/>
<path fill-rule="evenodd" clip-rule="evenodd" fill="#8BACCC" d="M438.031,379.898l11.25,14.25L438.031,379.898z"/>
<line fill="none" stroke="#000000" stroke-width="0.5" stroke-linecap="square" stroke-miterlimit="10" x1="438.031" y1="379.898" x2="449.281" y2="394.148"/>
<path fill-rule="evenodd" clip-rule="evenodd" fill="#8BACCC" stroke="#000000" stroke-width="0.5" stroke-linecap="square" stroke-miterlimit="10" d="  M469.531,432.396c-4.903-8.748-26.653-14.96-27.75,0C440.642,447.935,464.821,441.406,469.531,432.396z"/>
<path fill-rule="evenodd" clip-rule="evenodd" fill="#8BACCC" stroke="#000000" stroke-width="0.5" stroke-linecap="square" stroke-miterlimit="10" d="  M471.781,454.146C453.831,442.892,453.819,464.996,471.781,454.146L471.781,454.146z"/>
<path fill-rule="evenodd" clip-rule="evenodd" fill="#8BACCC" stroke="#000000" stroke-width="0.5" stroke-linecap="square" stroke-miterlimit="10" d="  M447.781,449.646C429.891,438.784,429.843,461.055,447.781,449.646L447.781,449.646z"/>
<path fill-rule="evenodd" clip-rule="evenodd" fill="#8BACCC" d="M459.781,418.898l-2.25,3.75L459.781,418.898z"/>
<line fill="none" stroke="#000000" stroke-width="0.5" stroke-linecap="square" stroke-miterlimit="10" x1="459.781" y1="418.898" x2="457.531" y2="422.648"/>
<path fill-rule="evenodd" clip-rule="evenodd" fill="#8BACCC" d="M447.781,441.396l-3.75,3.75L447.781,441.396z"/>
<line fill="none" stroke="#000000" stroke-width="0.5" stroke-linecap="square" stroke-miterlimit="10" x1="447.781" y1="441.396" x2="444.031" y2="445.146"/>
<path fill-rule="evenodd" clip-rule="evenodd" fill="#8BACCC" d="M459.781,441.396l1.5,6.75L459.781,441.396z"/>
<line fill="none" stroke="#000000" stroke-width="0.5" stroke-linecap="square" stroke-miterlimit="10" x1="459.781" y1="441.396" x2="461.281" y2="448.146"/>
<path fill-rule="evenodd" clip-rule="evenodd" fill="#E8C8A6" stroke="#000000" stroke-width="0.5" stroke-linecap="square" stroke-miterlimit="10" d="  M320.279,489.396c21.574-5.296,45.393-13.008,63-27C378.49,479.397,331.589,498.743,320.279,489.396z"/>
<path fill-rule="evenodd" clip-rule="evenodd" fill="#101177" stroke="#000000" stroke-width="0.5" stroke-linecap="square" stroke-miterlimit="10" d="  M387.779,457.146c24.251-15.999,48.501-31.999,72.752-47.998c-26.501,19.999-53.001,39.999-79.502,59.998  C383.279,465.146,385.529,461.146,387.779,457.146z"/>
<path fill-rule="evenodd" clip-rule="evenodd" fill="#E8C8A6" stroke="#000000" stroke-width="0.5" stroke-linecap="square" stroke-miterlimit="10" d="  M411.029,450.396c-7.812-5.149-38.418,2.815-34.5,16.5C380.728,481.562,408.046,457.565,411.029,450.396z"/>
<path fill-rule="evenodd" clip-rule="evenodd" fill="#E8C8A6" stroke="#000000" stroke-width="0.5" stroke-linecap="square" stroke-miterlimit="10" d="  M329.279,490.896C316.888,494.046,316.444,488.157,329.279,490.896L329.279,490.896z"/>
</svg>