<svg xmlns="http://www.w3.org/2000/svg" xmlns:xlink="http://www.w3.org/1999/xlink" version="1.1" id="Layer_1" x="0px" y="0px" enable-background="new 0 0 822.05 841.89" xml:space="preserve" viewBox="298.91 257.31 223.34 330.68">
<path fill-rule="evenodd" clip-rule="evenodd" fill="#6D6F71" stroke="#000000" stroke-width="2" stroke-linecap="square" stroke-miterlimit="10" d="  M300,286.24c-1.317-14.675,11.811-35.109,27.028-25.406c51.573,32.883,103.146,65.767,154.718,98.65  c5.574,3.554,1.155,15.737-3.246,19.756c-11.9,10.866-18.278,1.708-31.046-5.838C398.302,344.348,349.151,315.293,300,286.24z"/>
<path fill-rule="evenodd" clip-rule="evenodd" fill="#BCBEC0" stroke="#000000" stroke-width="2" stroke-linecap="square" stroke-miterlimit="10" d="  M483.75,368.74c7.808,4.279,15.688,11.442,19.5,18c13.948-2.478,9.453-4.213,17.25,3c-20.327,12.85-25.903,2.731-47.25-5.25  C478.77,380.281,480.143,372.583,483.75,368.74z"/>
<path fill-rule="evenodd" clip-rule="evenodd" fill="#BCBEC0" stroke="#000000" stroke-width="2" stroke-linecap="square" stroke-miterlimit="10" d="  M484.5,361.24c0.034,14.056,19.066-5.028,36.75,8.25c-3.727-11.025-38.621-35.849-49.5-28.5c7.422,3.225,12.96,10.713,20.25,14.25  C489.5,357.24,487,359.24,484.5,361.24z"/>
<path fill="none" stroke="#000000" stroke-width="2" stroke-linecap="square" stroke-miterlimit="10" d="M335.25,306.49  c0.567-13.252,6.413-26.061,20.25-27.75"/>
<path fill-rule="evenodd" clip-rule="evenodd" fill="#BCBEC0" stroke="#000000" stroke-width="2" stroke-linecap="square" stroke-miterlimit="10" d="  M396.752,345.49c-13.483,11.04-20.545,30.461-27.002,45.75c-0.893,2.114-12.276,9.517-15,14.25c-1.109,1.928,5.154,15.288-6,24.75  c1.75,0.75,3.5,1.5,5.25,2.25c3.876-16.47,17.168-10.827,21.25-19.444c5.692-12.016-2.772-20.872,6.5-31.556  c1.568-1.807,18.36-2.388,19.502,2.25c1.387,5.633-16.144,26.697-19.502,32.25c1.25,1,2.5,2,3.75,3c2.75-3.5,5.501-7,8.252-10.5  c4.102,3.338,20.943,12.306,23.248,9.75c4.307-4.777-8.401-24.453-9.748-33c4.69,1.587,10.39,0.466,14.998,2.25  c-3.859-13.731-17.125-19.256-23.248-27C422.017,376.788,422.333,352.637,396.752,345.49z"/>
<path fill-rule="evenodd" clip-rule="evenodd" fill="#6D6F71" stroke="#000000" stroke-width="2" stroke-linecap="square" stroke-miterlimit="10" d="  M382.5,415.99c-16.665,28.886-33.33,57.772-49.995,86.658c-8.94,15.497-27.556,37.661-27.255,54.342  C324.068,534.091,390.475,439.424,382.5,415.99z"/>
<path fill-rule="evenodd" clip-rule="evenodd" fill="#6D6F71" stroke="#000000" stroke-width="2" stroke-linecap="square" stroke-miterlimit="10" d="  M397.502,415.99c16.17,1.887,13.733,146.487,6,171c-12.051-14.745-5.437-48.147-5.524-67.2  C397.819,485.19,397.661,450.589,397.502,415.99z"/>
<path fill-rule="evenodd" clip-rule="evenodd" fill="#6D6F71" stroke="#000000" stroke-width="2" stroke-linecap="square" stroke-miterlimit="10" d="  M414,418.99c13.479-3.44,64.978,110.073,66,133.5C449.438,528.941,431.058,455.16,414,418.99z"/>
</svg>