<svg xmlns="http://www.w3.org/2000/svg" xmlns:xlink="http://www.w3.org/1999/xlink" version="1.1" id="Layer_1" x="0px" y="0px" enable-background="new 0 0 822.05 841.89" xml:space="preserve" viewBox="215.97 261.31 387.53 319.82">
<path fill-rule="evenodd" clip-rule="evenodd" fill="#BCBEC0" stroke="#000000" stroke-width="2" stroke-linecap="square" stroke-miterlimit="10" d="  M304,321.89c-22.063-5.457-103.651,17.236-84,58.5c8.169,17.153,71.955,28.254,60.75,3c-3.809-8.583-68.184,9.635-48-28.5  C254.67,347.27,289.856,343.28,304,321.89z"/>
<path fill-rule="evenodd" clip-rule="evenodd" fill="#0071BC" stroke="#000000" stroke-width="2" stroke-linecap="square" stroke-miterlimit="10" d="  M426.25,311.39c33.331,31.219-34.613,82.882-51.483,102.564c-28.291,33.005-64.911,13.028-88.017-21.564  c-26.479-39.644,26.995-75.234,51.811-104.483C370.49,250.277,397.398,286.735,426.25,311.39z"/>
<path fill-rule="evenodd" clip-rule="evenodd" fill="#0071BC" stroke="#000000" stroke-width="2" stroke-linecap="square" stroke-miterlimit="10" d="  M271,379.64c-13.188-19.986,25.861-48.843,37.614-62.52c12.134-14.12,42.277-70.828,65.08-50.425  c27.786,24.861-23.459,59.498-41.416,80.66C313.159,369.89,298.217,410.703,271,379.64z"/>
<path fill-rule="evenodd" clip-rule="evenodd" fill="#7BD3F7" stroke="#000000" stroke-width="2" stroke-linecap="square" stroke-miterlimit="10" d="  M360.25,353.39C339.424,354.827,351.41,331.501,360.25,353.39L360.25,353.39z"/>
<path fill-rule="evenodd" clip-rule="evenodd" fill="#7BD3F7" stroke="#000000" stroke-width="2" stroke-linecap="square" stroke-miterlimit="10" d="  M350.5,366.14C326.729,366.542,345.25,342.627,350.5,366.14L350.5,366.14z"/>
<path fill-rule="evenodd" clip-rule="evenodd" fill="#7BD3F7" stroke="#000000" stroke-width="2" stroke-linecap="square" stroke-miterlimit="10" d="  M339.25,378.89C317.999,376.104,331.898,358.445,339.25,378.89L339.25,378.89z"/>
<path fill-rule="evenodd" clip-rule="evenodd" fill="#7BD3F7" stroke="#000000" stroke-width="2" stroke-linecap="square" stroke-miterlimit="10" d="  M327.25,392.39C303.655,389.57,322.51,371.16,327.25,392.39L327.25,392.39z"/>
<path fill-rule="evenodd" clip-rule="evenodd" fill="#7BD3F7" stroke="#000000" stroke-width="2" stroke-linecap="square" stroke-miterlimit="10" d="  M342.25,405.14C318.831,401.883,338.465,384.427,342.25,405.14L342.25,405.14z"/>
<path fill-rule="evenodd" clip-rule="evenodd" fill="#7BD3F7" stroke="#000000" stroke-width="2" stroke-linecap="square" stroke-miterlimit="10" d="  M354.25,391.64C329.76,391.599,348.411,368.018,354.25,391.64L354.25,391.64z"/>
<path fill-rule="evenodd" clip-rule="evenodd" fill="#7BD3F7" stroke="#000000" stroke-width="2" stroke-linecap="square" stroke-miterlimit="10" d="  M364.75,378.14C343.863,379.223,356.212,356.032,364.75,378.14L364.75,378.14z"/>
<path fill-rule="evenodd" clip-rule="evenodd" fill="#7BD3F7" stroke="#000000" stroke-width="2" stroke-linecap="square" stroke-miterlimit="10" d="  M375.25,366.14C351.52,366.326,369.498,342.803,375.25,366.14L375.25,366.14z"/>
<path fill-rule="evenodd" clip-rule="evenodd" fill="#7BD3F7" stroke="#000000" stroke-width="2" stroke-linecap="square" stroke-miterlimit="10" d="  M389.5,378.14C368.021,374.897,381.772,357.501,389.5,378.14L389.5,378.14z"/>
<path fill-rule="evenodd" clip-rule="evenodd" fill="#7BD3F7" stroke="#000000" stroke-width="2" stroke-linecap="square" stroke-miterlimit="10" d="  M379,390.89C355.487,387.569,374.583,369.982,379,390.89L379,390.89z"/>
<path fill-rule="evenodd" clip-rule="evenodd" fill="#7BD3F7" stroke="#000000" stroke-width="2" stroke-linecap="square" stroke-miterlimit="10" d="  M368.5,404.39C347.528,404.11,359.803,381.688,368.5,404.39L368.5,404.39z"/>
<path fill-rule="evenodd" clip-rule="evenodd" fill="#7BD3F7" stroke="#000000" stroke-width="2" stroke-linecap="square" stroke-miterlimit="10" d="  M358,418.64C336.621,415.776,350.541,398.269,358,418.64L358,418.64z"/>
<path fill-rule="evenodd" clip-rule="evenodd" fill="#7BD3F7" stroke="#000000" stroke-width="2" stroke-linecap="square" stroke-miterlimit="10" d="  M403,324.89C359.069,330.296,390.714,277.246,403,324.89L403,324.89z"/>
<path fill-rule="evenodd" clip-rule="evenodd" fill="#BCBEC0" stroke="#000000" stroke-width="2" stroke-linecap="square" stroke-miterlimit="10" d="  M471.25,358.64c-22.764-4.229-101.124,15.896-84,57c8.231,19.757,43.907,28.654,57,13.5c11.631-13.462-18.893-7.9-27-10.5  c-14.62-4.689-25.151-9.746-16.5-27.75c-0.677-0.177-1.177,0.073-1.5,0.75C421.471,384.395,457.896,379.294,471.25,358.64z"/>
<path fill-rule="evenodd" clip-rule="evenodd" fill="#0071BC" stroke="#000000" stroke-width="2" stroke-linecap="square" stroke-miterlimit="10" d="  M592.75,348.14c35.191,29.801-34.941,84.141-50.733,102.564c-29.096,33.944-64.348,12.4-88.767-21.564  c-27.121-37.724,28.468-75.712,51.483-102.564C537.7,288.115,561.558,321.569,592.75,348.14z"/>
<path fill-rule="evenodd" clip-rule="evenodd" fill="#0071BC" stroke="#000000" stroke-width="2" stroke-linecap="square" stroke-miterlimit="10" d="  M437.5,416.39c-12.341-19.546,26.392-48.626,38.022-62.178c12.531-14.6,42.609-71.378,65.228-50.017  c25.682,24.255-16.225,49.813-34.625,71.694C486.403,399.343,466.724,449.356,437.5,416.39z"/>
<path fill-rule="evenodd" clip-rule="evenodd" fill="#7BD3F7" stroke="#000000" stroke-width="2" stroke-linecap="square" stroke-miterlimit="10" d="  M527.5,390.89C503.448,391.394,521.961,366.836,527.5,390.89L527.5,390.89z"/>
<path fill-rule="evenodd" clip-rule="evenodd" fill="#7BD3F7" stroke="#000000" stroke-width="2" stroke-linecap="square" stroke-miterlimit="10" d="  M517,402.89C492.741,400.767,514.475,381.856,517,402.89L517,402.89z"/>
<path fill-rule="evenodd" clip-rule="evenodd" fill="#7BD3F7" stroke="#000000" stroke-width="2" stroke-linecap="square" stroke-miterlimit="10" d="  M506.5,415.64C485.68,416.72,497.386,393.955,506.5,415.64L506.5,415.64z"/>
<path fill-rule="evenodd" clip-rule="evenodd" fill="#7BD3F7" stroke="#000000" stroke-width="2" stroke-linecap="square" stroke-miterlimit="10" d="  M493.75,429.14C470.718,427.576,489.937,408.129,493.75,429.14L493.75,429.14z"/>
<path fill-rule="evenodd" clip-rule="evenodd" fill="#7BD3F7" stroke="#000000" stroke-width="2" stroke-linecap="square" stroke-miterlimit="10" d="  M509.5,441.89C488.738,443.211,500.666,420.017,509.5,441.89L509.5,441.89z"/>
<path fill-rule="evenodd" clip-rule="evenodd" fill="#7BD3F7" stroke="#000000" stroke-width="2" stroke-linecap="square" stroke-miterlimit="10" d="  M520.75,428.39C497.237,425.069,516.332,407.482,520.75,428.39L520.75,428.39z"/>
<path fill-rule="evenodd" clip-rule="evenodd" fill="#7BD3F7" stroke="#000000" stroke-width="2" stroke-linecap="square" stroke-miterlimit="10" d="  M532,415.64C507.571,415.943,526.378,391.824,532,415.64L532,415.64z"/>
<path fill-rule="evenodd" clip-rule="evenodd" fill="#7BD3F7" stroke="#000000" stroke-width="2" stroke-linecap="square" stroke-miterlimit="10" d="  M541.75,402.89C517.491,400.767,539.225,381.856,541.75,402.89L541.75,402.89z"/>
<path fill-rule="evenodd" clip-rule="evenodd" fill="#7BD3F7" stroke="#000000" stroke-width="2" stroke-linecap="square" stroke-miterlimit="10" d="  M556.75,414.89C532.734,412.241,551.387,393.877,556.75,414.89L556.75,414.89z"/>
<path fill-rule="evenodd" clip-rule="evenodd" fill="#7BD3F7" stroke="#000000" stroke-width="2" stroke-linecap="square" stroke-miterlimit="10" d="  M546.25,427.64C524.574,425.655,539.137,407.078,546.25,427.64L546.25,427.64z"/>
<path fill-rule="evenodd" clip-rule="evenodd" fill="#7BD3F7" stroke="#000000" stroke-width="2" stroke-linecap="square" stroke-miterlimit="10" d="  M535,441.14C511.58,437.882,531.215,420.427,535,441.14L535,441.14z"/>
<path fill-rule="evenodd" clip-rule="evenodd" fill="#7BD3F7" stroke="#000000" stroke-width="2" stroke-linecap="square" stroke-miterlimit="10" d="  M525.25,455.39C502.961,457.371,517.234,432.698,525.25,455.39L525.25,455.39z"/>
<path fill-rule="evenodd" clip-rule="evenodd" fill="#7BD3F7" stroke="#000000" stroke-width="2" stroke-linecap="square" stroke-miterlimit="10" d="  M570.25,362.39C525.51,363.243,558.184,316.591,570.25,362.39L570.25,362.39z"/>
<path fill-rule="evenodd" clip-rule="evenodd" fill="#BCBEC0" stroke="#000000" stroke-width="2" stroke-linecap="square" stroke-miterlimit="10" d="  M343,471.14c-21.224-6.068-100.391,14.756-84,57c8.763,22.585,45.291,26.651,58.125,11.25c8.874-10.648-24.466-4.768-32.625-8.25  c-13.56-5.788-17.439-18.052-13.5-27C292.702,496.224,329.26,492.702,343,471.14z"/>
<path fill-rule="evenodd" clip-rule="evenodd" fill="#0071BC" stroke="#000000" stroke-width="2" stroke-linecap="square" stroke-miterlimit="10" d="  M464.5,460.64c34.867,29.294-35.184,84.085-50.835,102.564C385.401,596.577,347.91,575.932,325,541.64  c-26.259-39.306,28.444-76.06,52.561-104.482C409.309,399.74,435.738,435.607,464.5,460.64z"/>
<path fill-rule="evenodd" clip-rule="evenodd" fill="#0071BC" stroke="#000000" stroke-width="2" stroke-linecap="square" stroke-miterlimit="10" d="  M309.25,528.89c-11.852-19.915,26.208-48.645,38.022-62.52c11.393-13.379,42.66-71.738,65.228-50.425  c26.545,25.069-22.901,57.752-41.534,79.91C352.034,518.37,336.637,560.147,309.25,528.89z"/>
<path fill-rule="evenodd" clip-rule="evenodd" fill="#7BD3F7" stroke="#000000" stroke-width="2" stroke-linecap="square" stroke-miterlimit="10" d="  M399.25,502.64C377.069,504.611,391.007,479.989,399.25,502.64L399.25,502.64z"/>
<path fill-rule="evenodd" clip-rule="evenodd" fill="#7BD3F7" stroke="#000000" stroke-width="2" stroke-linecap="square" stroke-miterlimit="10" d="  M388.75,515.39C367.845,515.337,380.343,492.508,388.75,515.39L388.75,515.39z"/>
<path fill-rule="evenodd" clip-rule="evenodd" fill="#7BD3F7" stroke="#000000" stroke-width="2" stroke-linecap="square" stroke-miterlimit="10" d="  M378.25,528.14C354.655,525.32,373.51,506.91,378.25,528.14L378.25,528.14z"/>
<path fill-rule="evenodd" clip-rule="evenodd" fill="#7BD3F7" stroke="#000000" stroke-width="2" stroke-linecap="square" stroke-miterlimit="10" d="  M365.5,541.64C341.846,538.298,361.325,520.647,365.5,541.64L365.5,541.64z"/>
<path fill-rule="evenodd" clip-rule="evenodd" fill="#7BD3F7" stroke="#000000" stroke-width="2" stroke-linecap="square" stroke-miterlimit="10" d="  M381.25,554.39C359.95,552.013,373.487,533.705,381.25,554.39L381.25,554.39z"/>
<path fill-rule="evenodd" clip-rule="evenodd" fill="#7BD3F7" stroke="#000000" stroke-width="2" stroke-linecap="square" stroke-miterlimit="10" d="  M392.5,540.14C371.738,541.461,383.666,518.266,392.5,540.14L392.5,540.14z"/>
<path fill-rule="evenodd" clip-rule="evenodd" fill="#7BD3F7" stroke="#000000" stroke-width="2" stroke-linecap="square" stroke-miterlimit="10" d="  M403.75,527.39C381.854,528.767,395.355,504.881,403.75,527.39L403.75,527.39z"/>
<path fill-rule="evenodd" clip-rule="evenodd" fill="#7BD3F7" stroke="#000000" stroke-width="2" stroke-linecap="square" stroke-miterlimit="10" d="  M413.5,515.39C392.595,515.337,405.093,492.508,413.5,515.39L413.5,515.39z"/>
<path fill-rule="evenodd" clip-rule="evenodd" fill="#7BD3F7" stroke="#000000" stroke-width="2" stroke-linecap="square" stroke-miterlimit="10" d="  M427.75,527.39C403.851,523.101,424.289,506.735,427.75,527.39L427.75,527.39z"/>
<path fill-rule="evenodd" clip-rule="evenodd" fill="#7BD3F7" stroke="#000000" stroke-width="2" stroke-linecap="square" stroke-miterlimit="10" d="  M418,540.14C397.028,539.86,409.303,517.438,418,540.14L418,540.14z"/>
<path fill-rule="evenodd" clip-rule="evenodd" fill="#7BD3F7" stroke="#000000" stroke-width="2" stroke-linecap="square" stroke-miterlimit="10" d="  M406.75,553.64C385.149,549.935,399.614,533.164,406.75,553.64L406.75,553.64z"/>
<path fill-rule="evenodd" clip-rule="evenodd" fill="#7BD3F7" stroke="#000000" stroke-width="2" stroke-linecap="square" stroke-miterlimit="10" d="  M397,567.89C373.092,565.103,391.431,546.792,397,567.89L397,567.89z"/>
<path fill-rule="evenodd" clip-rule="evenodd" fill="#7BD3F7" stroke="#000000" stroke-width="2" stroke-linecap="square" stroke-miterlimit="10" d="  M441.25,474.14c-5.106,0.554-32.559-10.915-25.5-20.25C422.585,444.851,440.52,469.727,441.25,474.14z"/>
</svg>