<svg xmlns="http://www.w3.org/2000/svg" xmlns:xlink="http://www.w3.org/1999/xlink" version="1.1" id="Layer_1" x="0px" y="0px" enable-background="new 0 0 822.05 841.89" xml:space="preserve" viewBox="389.87 256.57 41.13 329.24">
<path fill-rule="evenodd" clip-rule="evenodd" fill="#BCBEC0" stroke="#000000" stroke-width="2" stroke-linecap="square" stroke-miterlimit="10" d="  M418.75,580.64C381.856,606.492,423.076,500.724,418.75,580.64L418.75,580.64z"/>
<path fill-rule="evenodd" clip-rule="evenodd" fill="#DCF2FD" stroke="#000000" stroke-width="2" stroke-linecap="square" stroke-miterlimit="10" d="  M391,276.14c0,74.625,0,149.251,0,223.876c0,15.1-2.834,52.874,17.627,52.874c18.41,0,21.373-21.002,21.373-37.212  c0-78.981,0-157.963,0-236.945C430,252.573,394.146,249.488,391,276.14z"/>
<path fill-rule="evenodd" clip-rule="evenodd" fill="#FFFFFF" stroke="#000000" stroke-width="2" stroke-linecap="square" stroke-miterlimit="10" d="  M400,273.89c18.754-36.262,21.75,27.523,21.75,35.409c0,70.737,0,141.474,0,212.211c0,5.941-12.273,46.353-17.278,26.838  c-6.313-24.614-6.563-43.652-6.332-69.183C398.76,410.74,399.38,342.315,400,273.89z"/>
<path fill-rule="evenodd" clip-rule="evenodd" fill="#ED1C24" stroke="#000000" stroke-linecap="square" stroke-miterlimit="10" d="  M412.752,552.14c-9.814-1.454-10.278-188.073-2.25-213c8.179,25.393,2.25,63.617,2.25,91.332  C412.752,471.028,412.752,511.584,412.752,552.14z"/>
</svg>