<svg xmlns="http://www.w3.org/2000/svg" xmlns:xlink="http://www.w3.org/1999/xlink" version="1.1" id="Layer_1" x="0px" y="0px" enable-background="new 0 0 822.05 841.89" xml:space="preserve" viewBox="301.53 330.17 216.22 184.59">
<path fill-rule="evenodd" clip-rule="evenodd" fill="#F5150D" stroke="#000000" stroke-width="1.25" stroke-linecap="square" stroke-miterlimit="10" d="  M337.875,366.515c-5.95,0-30.74,3.76-34.5,0c-1.627-1.627-1.627-32.873,0-34.5s32.873-1.627,34.5,0  C341.635,335.775,337.875,360.565,337.875,366.515z"/>
<path fill-rule="evenodd" clip-rule="evenodd" fill="#EBCBA7" stroke="#000000" stroke-width="1.25" stroke-linecap="square" stroke-miterlimit="10" d="  M394.875,395.765c-7.69-6.823-8.488-14.95-3.75-21.75c-2.038-1.258-11.152-6.28-12.75-6.75  C414.743,351.852,416.142,420.432,394.875,395.765z"/>
<path fill-rule="evenodd" clip-rule="evenodd" fill="#EBCBA7" d="M400.125,378.515C392.132,373.746,396.66,376.448,400.125,378.515  L400.125,378.515z"/>
<path fill="none" stroke="#000000" stroke-width="1.25" stroke-linecap="square" stroke-miterlimit="10" d="M400.125,378.515  c-8.731,1.01-6.132-2.003,0-6"/>
<path fill="none" stroke="#000000" stroke-width="1.25" stroke-linecap="square" stroke-miterlimit="10" d="M389.625,386.015  c3.768,0.608,5.727-0.548,9,2.25c-0.905,4.066-3.232,2.259-6.75,3"/>
<path fill="none" stroke="#000000" stroke-width="1.25" stroke-linecap="square" stroke-miterlimit="10" d="M390.375,380.015  c5.704,1.486,9.992,4.076,8.25,7.5"/>
<path fill-rule="evenodd" clip-rule="evenodd" fill="#EBCBA7" stroke="#000000" stroke-width="1.25" stroke-linecap="square" stroke-miterlimit="10" d="  M491.625,455.765C496.189,466.036,502.683,457.884,491.625,455.765L491.625,455.765z"/>
<path fill-rule="evenodd" clip-rule="evenodd" fill="#EBCBA7" stroke="#000000" stroke-width="1.25" stroke-linecap="square" stroke-miterlimit="10" d="  M447.375,443.765C457.865,449.417,457.865,439.538,447.375,443.765L447.375,443.765z"/>
<path fill-rule="evenodd" clip-rule="evenodd" fill="#EBCBA7" stroke="#000000" stroke-width="1.25" stroke-linecap="square" stroke-miterlimit="10" d="  M450.375,476.015c17.712-16.047,24.899-5.963,42.75-1.5C531.486,484.106,448.049,524.324,450.375,476.015z"/>
<path fill-rule="evenodd" clip-rule="evenodd" fill="#EBCBA7" stroke="#000000" stroke-width="1.25" stroke-linecap="square" stroke-miterlimit="10" d="  M500.625,440.765c-2.819,44.183-67.458,36.5-46.5-10.5C465.824,404.029,506.369,408.515,500.625,440.765z"/>
<path fill-rule="evenodd" clip-rule="evenodd" fill="#FFFFFF" d="M421.125,392.015L421.125,392.015L421.125,392.015z"/>
<line fill="none" stroke="#000000" stroke-width="1.25" stroke-linecap="square" stroke-miterlimit="10" x1="421.125" y1="392.015" x2="421.125" y2="392.015"/>
<path fill-rule="evenodd" clip-rule="evenodd" fill="#82B9D2" stroke="#000000" stroke-width="1.25" stroke-linecap="square" stroke-miterlimit="10" d="  M433.125,485.765c-14.73-27.449-26.822-55.799-38.25-84.75c11.12-1.245,12.269,0.21,21-9.75c5.251,25.651,20.164,77.984,41.25,94.5  c14.478,11.339,36.775,9.575,34.5-14.25c22.848-1.696,22.778,21.817,25.5,39C487.631,510.515,426.586,528.11,433.125,485.765z"/>
</svg>