<svg xmlns="http://www.w3.org/2000/svg" xmlns:xlink="http://www.w3.org/1999/xlink" version="1.1" id="Layer_1" x="0px" y="0px" enable-background="new 0 0 822.05 841.89" xml:space="preserve" viewBox="329.38 337.62 162.5 170.02">
<path fill-rule="evenodd" clip-rule="evenodd" fill="#EBCBA7" stroke="#000000" stroke-width="1.25" stroke-linecap="square" stroke-miterlimit="10" d="  M472.506,372.765c9.229-6.923,9.31-16.625,4.5-25.5c3.845-1.986,12.165-7.995,14.25-9c-7.563-0.384-26.061,3.905-32.25,11.25  C444.812,366.359,460.459,398.264,472.506,372.765z"/>
<path fill-rule="evenodd" clip-rule="evenodd" fill="#EBCBA7" d="M466.506,353.265c1.378-0.887,5.085,1.446,7.5-0.75  c-2.43-2.961-4.539-4.041-8.25-6C466.006,348.765,466.256,351.015,466.506,353.265z"/>
<path fill="none" stroke="#000000" stroke-width="1.25" stroke-linecap="square" stroke-miterlimit="10" d="M466.506,353.265  c3.095,0.164,4.835,1.674,7.5-0.75c-1.954-3.439-4.66-4.105-8.25-6"/>
<path fill="none" stroke="#000000" stroke-width="1.25" stroke-linecap="square" stroke-miterlimit="10" d="M478.506,362.265  c-4.955,0.584-8.332-0.748-10.5,3.75c2.344,1.978,4.692,1.371,8.25,2.25"/>
<path fill="none" stroke="#000000" stroke-width="1.25" stroke-linecap="square" stroke-miterlimit="10" d="M477.756,354.765  c-6.429,1.742-11.684,4.596-9.75,9"/>
<path fill-rule="evenodd" clip-rule="evenodd" fill="#EBCBA7" stroke="#000000" stroke-width="1.25" stroke-linecap="square" stroke-miterlimit="10" d="  M360.002,443.265C360.079,461.983,340.748,438.831,360.002,443.265L360.002,443.265z"/>
<path fill-rule="evenodd" clip-rule="evenodd" fill="#EBCBA7" stroke="#000000" stroke-width="1.25" stroke-linecap="square" stroke-miterlimit="10" d="  M411.002,429.765C399.107,445.458,399.107,414.072,411.002,429.765L411.002,429.765z"/>
<path fill-rule="evenodd" clip-rule="evenodd" fill="#EBCBA7" stroke="#000000" stroke-width="1.25" stroke-linecap="square" stroke-miterlimit="10" d="  M407.252,466.515c-18.295-18.266-29.38-8.457-49.125-1.875c-21.423,7.141-14.145,24.375,6.211,24.375  C386.122,489.015,408.413,496.435,407.252,466.515z"/>
<path fill-rule="evenodd" clip-rule="evenodd" fill="#EBCBA7" stroke="#000000" stroke-width="1.25" stroke-linecap="square" stroke-miterlimit="10" d="  M348.752,426.015c5.995,50.813,77.505,42.376,54.75-12C390.013,381.78,344.678,388.171,348.752,426.015z"/>
<path fill-rule="evenodd" clip-rule="evenodd" fill="#FFFFFF" d="M441.756,369.015L441.756,369.015L441.756,369.015z"/>
<line fill="none" stroke="#000000" stroke-width="1.25" stroke-linecap="square" stroke-miterlimit="10" x1="441.756" y1="369.015" x2="441.756" y2="369.015"/>
<path fill-rule="evenodd" clip-rule="evenodd" fill="#82B9D2" stroke="#000000" stroke-width="1.25" stroke-linecap="square" stroke-miterlimit="10" d="  M428.252,477.765c16.262-31.983,31.45-64.722,44.254-98.25c-10.655,4.11-19.649-1.406-24-12c-8.453,38.76-26.104,76.275-47.254,108  c-13.247,19.871-46.19,11.87-41.25-14.25c-26.922-1.863-26.835,25.579-30,45.75c24.969,0,49.938,0,74.908,0  C432.378,507.015,425.462,502.408,428.252,477.765z"/>
</svg>