<svg xmlns="http://www.w3.org/2000/svg" xmlns:xlink="http://www.w3.org/1999/xlink" version="1.1" id="Layer_1" x="0px" y="0px" enable-background="new 0 0 822.05 841.89" xml:space="preserve" viewBox="310.94 257.83 197.58 324.06">
<path fill-rule="evenodd" clip-rule="evenodd" fill="#FFF9B6" stroke="#000000" stroke-width="2" stroke-linecap="square" stroke-miterlimit="10" d="  M384.514,270.39c-7.071,11.735-51.635,17.232-51.75,0C332.643,252.302,377.3,257.916,384.514,270.39z"/>
<path fill-rule="evenodd" clip-rule="evenodd" fill="#ECF8FE" stroke="#000000" stroke-width="2" stroke-linecap="square" stroke-miterlimit="10" d="  M327.514,310.14c-23.7,41.066-12.252,110.85-12.413,157.521c-0.173,50.523-21.069,112.479,46.913,112.479  c59.735,0,41.25-59.273,41.25-102.881c0-52.658,11.567-119.795-11.25-168.619C372.939,322.885,347.73,320.565,327.514,310.14z"/>
<path fill-rule="evenodd" clip-rule="evenodd" fill="#FFF9B6" stroke="#000000" stroke-width="2" stroke-linecap="square" stroke-miterlimit="10" d="  M338.764,274.14c-32.507,31.337,3.061,46.773,32.25,43.125c16.635-2.079,21.202-7.311,18.75-23.25  C385.49,266.239,362.822,274.14,338.764,274.14z"/>
<path fill-rule="evenodd" clip-rule="evenodd" fill="#ECF8FE" stroke="#000000" stroke-width="2" stroke-linecap="square" stroke-miterlimit="10" d="  M421.266,495.39c28.75,0,57.5,0,86.25,0c-5.25,38.247,3.976,85.5-44.25,85.5C418.269,580.89,426.023,529.034,421.266,495.39z"/>
<path fill="none" stroke="#000000" stroke-width="2" stroke-linecap="square" stroke-miterlimit="10" d="M321.514,338.64  c23.81,11.594,53.932,10.886,77.25-1.5"/>
<path fill="none" stroke="#000000" stroke-width="2" stroke-linecap="square" stroke-miterlimit="10" d="M315.514,347.64  c28.802,9.955,61.03,14.434,87.75-3"/>
<path fill-rule="evenodd" clip-rule="evenodd" fill="#00AEEF" stroke="#000000" stroke-width="2" stroke-linecap="square" stroke-miterlimit="10" d="  M314.764,547.14c28.242,18.289,60.189,18.724,88.5,0.75C416.777,592.567,301.823,590.847,314.764,547.14z"/>
<path fill-rule="evenodd" clip-rule="evenodd" fill="#FFF9B6" d="M331.264,281.64c18.266,6.557,38.458,5.245,56.25-2.25  C368.764,280.14,350.014,280.89,331.264,281.64z"/>
<path fill="none" stroke="#000000" stroke-width="2" stroke-linecap="square" stroke-miterlimit="10" d="M331.264,281.64  c18.266,6.557,38.458,5.245,56.25-2.25"/>
<path fill-rule="evenodd" clip-rule="evenodd" fill="#00AEEF" stroke="#000000" stroke-width="2" stroke-linecap="square" stroke-miterlimit="10" d="  M421.266,501.39c-2.154,44.868,91.552,41.394,85.5-0.75C482.786,523.273,447.49,515.618,421.266,501.39z"/>
<path fill-rule="evenodd" clip-rule="evenodd" fill="#AABAC3" stroke="#000000" stroke-width="2" stroke-linecap="square" stroke-miterlimit="10" d="  M507.516,495.39c-9.171,23.475-86.25,30.21-86.25,0S498.345,471.916,507.516,495.39z"/>
</svg>