<svg xmlns="http://www.w3.org/2000/svg" xmlns:xlink="http://www.w3.org/1999/xlink" version="1.1" id="Layer_1" x="0px" y="0px" enable-background="new 0 0 822.05 841.89" xml:space="preserve" viewBox="223.29 272.64 374.22 296.57">
<path fill-rule="evenodd" clip-rule="evenodd" fill="#FFF9B6" stroke="#000000" stroke-width="2" stroke-linecap="square" stroke-miterlimit="10" d="  M523.003,282.89c-5.635,8.549-42.75,15.632-42.75,0S517.368,274.341,523.003,282.89z"/>
<path fill-rule="evenodd" clip-rule="evenodd" fill="#ECF8FE" stroke="#000000" stroke-width="2" stroke-linecap="square" stroke-miterlimit="10" d="  M475.753,315.89c-14.014,47.488-10.025,98.108-10.236,149.112c-0.166,40.366-11.724,75.888,39.486,75.888  c46.556,0,33.75-41.982,33.75-76.68c0-50.089,5.783-101.749-9-149.07C513.232,326.311,492.832,324.875,475.753,315.89z"/>
<path fill-rule="evenodd" clip-rule="evenodd" fill="#FFF9B6" stroke="#000000" stroke-width="2" stroke-linecap="square" stroke-miterlimit="10" d="  M485.503,285.89c-25.098,23.007,0.51,43.461,26.625,36c13.519-3.862,18.004-4.25,15.75-19.125  C524.329,279.342,506.037,285.89,485.503,285.89z"/>
<path fill="none" stroke="#000000" stroke-width="2" stroke-linecap="square" stroke-miterlimit="10" d="M470.503,339.89  c20.662,8.294,44.596,9.62,64.5-1.5"/>
<path fill="none" stroke="#000000" stroke-width="2" stroke-linecap="square" stroke-miterlimit="10" d="M466.003,347.39  c23.02,8.039,51.339,12.042,72.75-2.25"/>
<path fill-rule="evenodd" clip-rule="evenodd" fill="#00AEEF" stroke="#000000" stroke-width="2" stroke-linecap="square" stroke-miterlimit="10" d="  M465.253,513.14c21.653,15.972,51.602,15.933,73.5,0.75C549.396,551.636,455.645,549.543,465.253,513.14z"/>
<path fill-rule="evenodd" clip-rule="evenodd" fill="#FFF9B6" d="M478.753,292.64c15.563,4.568,32.165,4.318,47.25-2.25  C510.253,291.14,494.503,291.89,478.753,292.64z"/>
<path fill="none" stroke="#000000" stroke-width="2" stroke-linecap="square" stroke-miterlimit="10" d="M478.753,292.64  c15.563,4.568,32.165,4.318,47.25-2.25"/>
<path fill-rule="evenodd" clip-rule="evenodd" fill="#ECF8FE" stroke="#000000" stroke-width="2" stroke-linecap="square" stroke-miterlimit="10" d="  M524.503,496.64c24,0,48,0,72,0c-4.208,29.803,2.853,75.776-39,71.25C522.059,564.056,528.714,525.415,524.503,496.64z"/>
<path fill-rule="evenodd" clip-rule="evenodd" fill="#00AEEF" stroke="#000000" stroke-width="2" stroke-linecap="square" stroke-miterlimit="10" d="  M524.503,501.89c-1.787,36.236,75.736,34.93,71.25-0.75C574.979,519.319,547.078,513.499,524.503,501.89z"/>
<path fill-rule="evenodd" clip-rule="evenodd" fill="#AABAC3" stroke="#000000" stroke-width="2" stroke-linecap="square" stroke-miterlimit="10" d="  M596.503,496.64c-8.354,18.629-71.844,25.98-72,0C524.349,471.013,588.428,477.633,596.503,496.64z"/>
<path fill-rule="evenodd" clip-rule="evenodd" fill="#FFF9B6" stroke="#000000" stroke-width="2" stroke-linecap="square" stroke-miterlimit="10" d="  M399.253,282.89c-5.634,8.549-42.75,15.632-42.75,0S393.619,274.341,399.253,282.89z"/>
<path fill-rule="evenodd" clip-rule="evenodd" fill="#ECF8FE" stroke="#000000" stroke-width="2" stroke-linecap="square" stroke-miterlimit="10" d="  M352.003,315.89c-14.014,47.488-10.025,98.108-10.236,149.112c-0.167,40.366-11.725,75.888,39.486,75.888  c46.556,0,33.75-41.982,33.75-76.68c0-50.089,5.783-101.749-9-149.07C389.482,326.311,369.082,324.875,352.003,315.89z"/>
<path fill-rule="evenodd" clip-rule="evenodd" fill="#FFF9B6" stroke="#000000" stroke-width="2" stroke-linecap="square" stroke-miterlimit="10" d="  M361.753,285.89c-25.098,23.007,0.51,43.461,26.625,36c13.519-3.862,18.004-4.25,15.75-19.125  C400.579,279.342,382.288,285.89,361.753,285.89z"/>
<path fill="none" stroke="#000000" stroke-width="2" stroke-linecap="square" stroke-miterlimit="10" d="M346.753,339.89  c20.662,8.294,44.596,9.62,64.5-1.5"/>
<path fill="none" stroke="#000000" stroke-width="2" stroke-linecap="square" stroke-miterlimit="10" d="M342.253,347.39  c23.02,8.039,51.339,12.042,72.75-2.25"/>
<path fill-rule="evenodd" clip-rule="evenodd" fill="#00AEEF" stroke="#000000" stroke-width="2" stroke-linecap="square" stroke-miterlimit="10" d="  M341.503,513.14c21.653,15.972,51.602,15.933,73.5,0.75C425.646,551.636,331.894,549.543,341.503,513.14z"/>
<path fill-rule="evenodd" clip-rule="evenodd" fill="#FFF9B6" d="M355.003,292.64c15.563,4.568,32.165,4.318,47.25-2.25  C386.503,291.14,370.753,291.89,355.003,292.64z"/>
<path fill="none" stroke="#000000" stroke-width="2" stroke-linecap="square" stroke-miterlimit="10" d="M355.003,292.64  c15.563,4.568,32.165,4.318,47.25-2.25"/>
<path fill-rule="evenodd" clip-rule="evenodd" fill="#ECF8FE" stroke="#000000" stroke-width="2" stroke-linecap="square" stroke-miterlimit="10" d="  M400.753,496.64c24,0,48,0,72,0c-4.208,29.803,2.853,75.776-39,71.25C398.308,564.056,404.964,525.415,400.753,496.64z"/>
<path fill-rule="evenodd" clip-rule="evenodd" fill="#00AEEF" stroke="#000000" stroke-width="2" stroke-linecap="square" stroke-miterlimit="10" d="  M400.753,501.89c-1.787,36.236,75.736,34.93,71.25-0.75C451.229,519.319,423.328,513.499,400.753,501.89z"/>
<path fill-rule="evenodd" clip-rule="evenodd" fill="#AABAC3" stroke="#000000" stroke-width="2" stroke-linecap="square" stroke-miterlimit="10" d="  M472.753,496.64c-8.354,18.629-71.844,25.98-72,0C400.599,471.013,464.678,477.633,472.753,496.64z"/>
<path fill-rule="evenodd" clip-rule="evenodd" fill="#FFF9B6" stroke="#000000" stroke-width="2" stroke-linecap="square" stroke-miterlimit="10" d="  M283.003,282.89c-5.634,8.549-42.75,15.632-42.75,0S277.369,274.341,283.003,282.89z"/>
<path fill-rule="evenodd" clip-rule="evenodd" fill="#ECF8FE" stroke="#000000" stroke-width="2" stroke-linecap="square" stroke-miterlimit="10" d="  M235.753,315.89c-14.014,47.488-10.025,98.108-10.236,149.112c-0.167,40.366-11.725,75.888,39.486,75.888  c46.556,0,33.75-41.982,33.75-76.68c0-50.089,5.783-101.749-9-149.07C273.232,326.311,252.832,324.875,235.753,315.89z"/>
<path fill-rule="evenodd" clip-rule="evenodd" fill="#FFF9B6" stroke="#000000" stroke-width="2" stroke-linecap="square" stroke-miterlimit="10" d="  M245.503,285.89c-25.098,23.007,0.51,43.461,26.625,36c13.519-3.862,18.004-4.25,15.75-19.125  C284.329,279.342,266.038,285.89,245.503,285.89z"/>
<path fill="none" stroke="#000000" stroke-width="2" stroke-linecap="square" stroke-miterlimit="10" d="M230.503,339.89  c20.662,8.294,44.596,9.62,64.5-1.5"/>
<path fill="none" stroke="#000000" stroke-width="2" stroke-linecap="square" stroke-miterlimit="10" d="M226.003,347.39  c23.02,8.039,51.339,12.042,72.75-2.25"/>
<path fill-rule="evenodd" clip-rule="evenodd" fill="#00AEEF" stroke="#000000" stroke-width="2" stroke-linecap="square" stroke-miterlimit="10" d="  M225.253,513.14c21.653,15.972,51.602,15.933,73.5,0.75C309.396,551.636,215.644,549.543,225.253,513.14z"/>
<path fill-rule="evenodd" clip-rule="evenodd" fill="#FFF9B6" d="M238.753,292.64c15.563,4.568,32.165,4.318,47.25-2.25  C270.253,291.14,254.503,291.89,238.753,292.64z"/>
<path fill="none" stroke="#000000" stroke-width="2" stroke-linecap="square" stroke-miterlimit="10" d="M238.753,292.64  c15.563,4.568,32.165,4.318,47.25-2.25"/>
<path fill-rule="evenodd" clip-rule="evenodd" fill="#ECF8FE" stroke="#000000" stroke-width="2" stroke-linecap="square" stroke-miterlimit="10" d="  M284.503,496.64c24,0,48,0,72,0c-4.208,29.803,2.853,75.776-39,71.25C282.058,564.056,288.714,525.415,284.503,496.64z"/>
<path fill-rule="evenodd" clip-rule="evenodd" fill="#00AEEF" stroke="#000000" stroke-width="2" stroke-linecap="square" stroke-miterlimit="10" d="  M284.503,501.89c-1.787,36.236,75.736,34.93,71.25-0.75C334.979,519.319,307.078,513.499,284.503,501.89z"/>
<path fill-rule="evenodd" clip-rule="evenodd" fill="#AABAC3" stroke="#000000" stroke-width="2" stroke-linecap="square" stroke-miterlimit="10" d="  M356.503,496.64c-8.354,18.629-71.844,25.98-72,0C284.349,471.013,348.428,477.633,356.503,496.64z"/>
</svg>