<svg xmlns="http://www.w3.org/2000/svg" xmlns:xlink="http://www.w3.org/1999/xlink" version="1.1" id="Layer_1" x="0px" y="0px" enable-background="new 0 0 822.05 841.89" xml:space="preserve" viewBox="308.04 352.23 207.13 140.91">
<path fill-rule="evenodd" clip-rule="evenodd" fill="#EBCBA7" stroke="#000000" stroke-width="1.25" stroke-linecap="square" stroke-miterlimit="10" d="  M349.917,413.015C357.396,442.721,322.832,400.82,349.917,413.015L349.917,413.015z"/>
<path fill-rule="evenodd" clip-rule="evenodd" fill="#EBCBA7" stroke="#000000" stroke-width="1.25" stroke-linecap="square" stroke-miterlimit="10" d="  M412.167,396.515C399.175,423.673,399.321,369.078,412.167,396.515L412.167,396.515z"/>
<path fill-rule="evenodd" clip-rule="evenodd" fill="#EBCBA7" stroke="#000000" stroke-width="1.25" stroke-linecap="square" stroke-miterlimit="10" d="  M408.417,441.515c-22.795-11.3-33.32-20.891-57-3c-4.539,3.429-33.113,30.75-14.237,30.75  C377.058,469.265,397.563,481.674,408.417,441.515z"/>
<path fill-rule="evenodd" clip-rule="evenodd" fill="#EBCBA7" stroke="#000000" stroke-width="1.25" stroke-linecap="square" stroke-miterlimit="10" d="  M337.167,392.015c2.934,45.192,70.5,63.366,70.5,9C407.667,339.164,326.737,337.671,337.167,392.015z"/>
<path fill-rule="evenodd" clip-rule="evenodd" fill="#82B9D2" stroke="#000000" stroke-width="1.25" stroke-linecap="square" stroke-miterlimit="10" d="  M424.169,440.765c-18.747-11.407-34.465,20.671-62.252,10.5c-14.158-5.183-14.479-26.067-34.875-9.75  c-14.766,11.812-17.078,32.163-16.875,50.25c44.888,0,89.775,0,134.663,0C454.771,491.765,429.535,445.541,424.169,440.765z"/>
<path fill-rule="evenodd" clip-rule="evenodd" fill="#EBCBA7" stroke="#000000" stroke-width="1.25" stroke-linecap="square" stroke-miterlimit="10" d="  M421.919,435.515c17.436-5.173,39.888,12.215,48.75,26.25c-8.879-2.938-18.371-8.374-26.25-11.25  C454.933,492.444,376.967,442.421,421.919,435.515z"/>
<path fill="none" stroke="#000000" stroke-width="1.25" stroke-linecap="square" stroke-miterlimit="10" d="M432.419,464.015  c6.388-2.024,7.549-7.112,4.5-13.5"/>
<path fill-rule="evenodd" clip-rule="evenodd" fill="#EBCBA7" d="M416.665,458.015c3.594-0.103,9.221-0.188,13.504,0  C424.558,449.458,423.265,456.668,416.665,458.015z"/>
<path fill="none" stroke="#000000" stroke-width="1.25" stroke-linecap="square" stroke-miterlimit="10" d="M416.665,458.015  c3.594-0.103,9.221-0.188,13.504,0c-4.473-8-6.188-1.67-12-1.5"/>
<path fill-rule="evenodd" clip-rule="evenodd" fill="#FFFFFF" d="M406.167,440.015L406.167,440.015L406.167,440.015z"/>
<line fill="none" stroke="#000000" stroke-width="1.25" stroke-linecap="square" stroke-miterlimit="10" x1="406.167" y1="440.015" x2="406.167" y2="440.015"/>
<path fill-rule="evenodd" clip-rule="evenodd" fill="#82B9D2" stroke="#000000" stroke-width="1.25" stroke-linecap="square" stroke-miterlimit="10" d="  M309.417,481.265c33.25-13.75,66.5-27.5,99.75-41.25c-1.319,10.83,4.053,19.393,14.252,24.75  c-43.622,19.878-67.071,27.105-114.752,27.75C308.917,488.765,309.167,485.015,309.417,481.265z"/>
<path fill-rule="evenodd" clip-rule="evenodd" fill="#F3160D" stroke="#000000" stroke-width="1.25" stroke-linecap="square" stroke-miterlimit="10" d="  M512.669,489.515C467.542,502.259,525.414,444.388,512.669,489.515L512.669,489.515z"/>
<path fill-rule="evenodd" clip-rule="evenodd" fill="#F3160D" stroke="#000000" stroke-width="1.25" stroke-linecap="square" stroke-miterlimit="10" d="  M486.419,488.765C441.292,501.509,499.163,443.638,486.419,488.765L486.419,488.765z"/>
<path fill-rule="evenodd" clip-rule="evenodd" fill="#F3160D" stroke="#000000" stroke-width="1.25" stroke-linecap="square" stroke-miterlimit="10" d="  M498.419,467.765C453.292,480.509,511.163,422.638,498.419,467.765L498.419,467.765z"/>
</svg>