<svg xmlns="http://www.w3.org/2000/svg" xmlns:xlink="http://www.w3.org/1999/xlink" version="1.1" id="Layer_1" x="0px" y="0px" enable-background="new 0 0 822.05 841.89" xml:space="preserve" viewBox="307.25 333.8 207.5 174.22">
<path fill-rule="evenodd" clip-rule="evenodd" fill="#EBCBA7" stroke="#000000" stroke-width="1.25" stroke-linecap="square" stroke-miterlimit="10" d="  M469.125,382.015c-10.035-10.445-18.963-9.029-30-2.25C407.55,399.16,469.721,409.196,469.125,382.015z"/>
<path fill-rule="evenodd" clip-rule="evenodd" fill="#FFFFFF" stroke="#000000" stroke-linecap="square" stroke-miterlimit="10" d="  M478.125,381.265c-8.188-1.821-22.992,3.785-33,5.25c-7.114,1.042-6.947-13.603-19.5-4.5c-6.345,4.601-7.234,35.595-8.25,42  c23.25,0,46.5,0,69.75,0C483.788,409.501,484.487,394.544,478.125,381.265z"/>
<path fill-rule="evenodd" clip-rule="evenodd" fill="#EBCBA7" stroke="#000000" stroke-width="1.25" stroke-linecap="square" stroke-miterlimit="10" d="  M438.375,366.265c0.225-0.251,2.077,4.787,0,6.75C427.649,364.653,436.49,368.369,438.375,366.265z"/>
<path fill-rule="evenodd" clip-rule="evenodd" fill="#EBCBA7" stroke="#000000" stroke-width="1.25" stroke-linecap="square" stroke-miterlimit="10" d="  M471.375,358.015C465.692,357.538,464.266,357.418,471.375,358.015L471.375,358.015z"/>
<path fill-rule="evenodd" clip-rule="evenodd" fill="#EBCBA7" stroke="#000000" stroke-width="1.25" stroke-linecap="square" stroke-miterlimit="10" d="  M431.625,355.015c2.925,23.173,32.398,34.564,37.5,6.75C474.952,329.997,428.95,323.553,431.625,355.015z"/>
<path fill-rule="evenodd" clip-rule="evenodd" fill="#EBCBA7" stroke="#000000" stroke-width="1.25" stroke-linecap="square" stroke-miterlimit="10" d="  M441.375,387.265c-13.99-13.969-36.657-5.64-40.5,13.5C416.092,403.645,442.271,410.059,441.375,387.265z"/>
<path fill-rule="evenodd" clip-rule="evenodd" fill="#1D529A" stroke="#000000" stroke-width="1.25" stroke-linecap="square" stroke-miterlimit="10" d="  M450.375,386.515c-8.146-1.812-22.859,4.009-33,6c-6.262,1.229-7.27-13.717-19.5-4.5c-6.362,4.795-7.198,34.615-8.25,41.25  c23.25,0,46.5,0,69.75,0C456.359,414.924,457.506,399.432,450.375,386.515z"/>
<path fill-rule="evenodd" clip-rule="evenodd" fill="#EBCBA7" stroke="#000000" stroke-width="1.25" stroke-linecap="square" stroke-miterlimit="10" d="  M410.625,372.265C405.527,376.691,406.501,375.845,410.625,372.265L410.625,372.265z"/>
<path fill-rule="evenodd" clip-rule="evenodd" fill="#EBCBA7" stroke="#000000" stroke-width="1.25" stroke-linecap="square" stroke-miterlimit="10" d="  M443.625,363.265C437.544,363.086,436.969,363.07,443.625,363.265L443.625,363.265z"/>
<path fill-rule="evenodd" clip-rule="evenodd" fill="#EBCBA7" stroke="#000000" stroke-width="1.25" stroke-linecap="square" stroke-miterlimit="10" d="  M403.875,361.015c2.897,22.71,32.085,33.605,37.5,6.75C447.895,335.43,400.228,328.775,403.875,361.015z"/>
<path fill-rule="evenodd" clip-rule="evenodd" fill="#EBCBA7" stroke="#000000" stroke-width="1.25" stroke-linecap="square" stroke-miterlimit="10" d="  M496.875,386.515c-10.224-8.933-18.755-7.95-30-1.5C435.254,403.152,496.706,415.479,496.875,386.515z"/>
<path fill-rule="evenodd" clip-rule="evenodd" fill="#FFFFFF" stroke="#000000" stroke-linecap="square" stroke-miterlimit="10" d="  M505.125,385.765c-9.83,0.018-22.184,4.107-33,6c-6.066,1.062-7.05-13.375-19.5-4.5c-6.485,4.623-7.164,35.485-8.25,42  c23.25,0,46.5,0,69.75,0C512.151,414.687,512.534,398.668,505.125,385.765z"/>
<path fill-rule="evenodd" clip-rule="evenodd" fill="#EBCBA7" stroke="#000000" stroke-width="1.25" stroke-linecap="square" stroke-miterlimit="10" d="  M466.125,371.515C461.021,375.251,459.986,376.008,466.125,371.515L466.125,371.515z"/>
<path fill-rule="evenodd" clip-rule="evenodd" fill="#EBCBA7" stroke="#000000" stroke-width="1.25" stroke-linecap="square" stroke-miterlimit="10" d="  M499.125,362.515C491.646,363.109,492.883,363.011,499.125,362.515L499.125,362.515z"/>
<path fill-rule="evenodd" clip-rule="evenodd" fill="#EBCBA7" stroke="#000000" stroke-width="1.25" stroke-linecap="square" stroke-miterlimit="10" d="  M458.625,360.265c3.494,24.338,37.5,34.302,37.5,3.375C496.125,333.732,457.149,330.031,458.625,360.265z"/>
<path fill-rule="evenodd" clip-rule="evenodd" fill="#EBCBA7" stroke="#000000" stroke-width="1.25" stroke-linecap="square" stroke-miterlimit="10" d="  M360.375,475.015C351.677,505.483,337.795,456.238,360.375,475.015L360.375,475.015z"/>
<path fill-rule="evenodd" clip-rule="evenodd" fill="#EBCBA7" d="M346.875,473.515c2.399,4.406,8.14,4.472,7.5,12  C361.434,473.224,357.29,473.45,346.875,473.515z"/>
<path fill="none" stroke="#000000" stroke-width="1.25" stroke-linecap="square" stroke-miterlimit="10" d="M346.875,473.515  c2.399,4.406,8.14,4.472,7.5,12c7.65-9.327,0.391-9.168-2.25-14.25"/>
<path fill-rule="evenodd" clip-rule="evenodd" fill="#EBCBA7" d="M348.375,463.015c11.92,1.57,16.208,11.472,14.25,22.5  C377.201,473.005,368.592,449.074,348.375,463.015z"/>
<path fill="none" stroke="#000000" stroke-width="1.25" stroke-linecap="square" stroke-miterlimit="10" d="M348.375,463.015  c11.92,1.57,16.208,11.472,14.25,22.5c10.352-8.885,12.04-24.294-3.75-27"/>
<path fill-rule="evenodd" clip-rule="evenodd" fill="#EBCBA7" d="M346.875,468.265c7.287,5.752,12.895,6.487,11.25,18  C369.046,473.879,363.611,461.004,346.875,468.265z"/>
<path fill="none" stroke="#000000" stroke-width="1.25" stroke-linecap="square" stroke-miterlimit="10" d="M346.875,468.265  c7.287,5.752,12.895,6.487,11.25,18c7.95-9.017,8.515-17.495-3-21.75"/>
<path fill-rule="evenodd" clip-rule="evenodd" fill="#EBCBA7" stroke="#000000" stroke-width="1.25" stroke-linecap="square" stroke-miterlimit="10" d="  M381.375,438.265c-26.971,13.156-73.5,29.652-73.5,64.694c0,13.729,52.288-8.316,61.875-14.069  c11.522-6.914-26.235,2.68-19.125-18.375C356.497,453.128,391.077,457.916,381.375,438.265z"/>
<path fill-rule="evenodd" clip-rule="evenodd" fill="#EBCBA7" stroke="#000000" stroke-width="1.25" stroke-linecap="square" stroke-miterlimit="10" d="  M496.875,386.515c-10.224-8.933-18.755-7.95-30-1.5C435.254,403.152,496.706,415.479,496.875,386.515z"/>
<path fill-rule="evenodd" clip-rule="evenodd" fill="#1D529A" stroke="#000000" stroke-width="1.25" stroke-linecap="square" stroke-miterlimit="10" d="  M505.125,385.765c-9.83,0.018-22.184,4.107-33,6c-6.066,1.062-7.05-13.375-19.5-4.5c-6.485,4.623-7.164,35.485-8.25,42  c23.25,0,46.5,0,69.75,0C512.151,414.687,512.534,398.668,505.125,385.765z"/>
<path fill-rule="evenodd" clip-rule="evenodd" fill="#EBCBA7" stroke="#000000" stroke-width="1.25" stroke-linecap="square" stroke-miterlimit="10" d="  M466.125,371.515C461.021,375.251,459.986,376.008,466.125,371.515L466.125,371.515z"/>
<path fill-rule="evenodd" clip-rule="evenodd" fill="#EBCBA7" stroke="#000000" stroke-width="1.25" stroke-linecap="square" stroke-miterlimit="10" d="  M499.125,362.515C491.646,363.109,492.883,363.011,499.125,362.515L499.125,362.515z"/>
<path fill-rule="evenodd" clip-rule="evenodd" fill="#EBCBA7" stroke="#000000" stroke-width="1.25" stroke-linecap="square" stroke-miterlimit="10" d="  M458.625,360.265c3.494,24.338,37.5,34.302,37.5,3.375C496.125,333.732,457.149,330.031,458.625,360.265z"/>
</svg>