<svg xmlns="http://www.w3.org/2000/svg" xmlns:xlink="http://www.w3.org/1999/xlink" version="1.1" id="Layer_1" x="0px" y="0px" enable-background="new 0 0 822.05 841.89" xml:space="preserve" viewBox="308.6 333.88 203.33 177.94">
<path fill-rule="evenodd" clip-rule="evenodd" fill="#FFFFFF" stroke="#000000" stroke-width="1.25" stroke-linecap="square" stroke-miterlimit="10" d="  M506.354,358.015c9.735-33.103-83.921-31.595-72.75,6.75c6.44,22.106,40.497,10.873,46.5,15.375  C496.146,392.17,522.257,375.688,506.354,358.015z"/>
<path fill-rule="evenodd" clip-rule="evenodd" fill="#FFFFFF" stroke="#000000" stroke-width="1.25" stroke-linecap="square" stroke-miterlimit="10" d="  M404.354,376.765C394.919,376.88,394.887,376.881,404.354,376.765L404.354,376.765z"/>
<path fill-rule="evenodd" clip-rule="evenodd" fill="#FFFFFF" stroke="#000000" stroke-width="1.25" stroke-linecap="square" stroke-miterlimit="10" d="  M428.354,373.015C413.688,382.737,413.41,363.915,428.354,373.015L428.354,373.015z"/>
<path fill-rule="evenodd" clip-rule="evenodd" fill="#EDCBA6" stroke="#000000" stroke-width="1.25" stroke-linecap="square" stroke-miterlimit="10" d="  M339.854,451.765c10.749-1.228,19.877-6.744,23.25-16.5c10.045,17.459,41.358-4.255,30.375,36.75  C381.004,518.589,318.143,482.348,339.854,451.765z"/>
<path fill-rule="evenodd" clip-rule="evenodd" fill="#200F75" stroke="#000000" stroke-width="1.25" stroke-linecap="square" stroke-miterlimit="10" d="  M337.604,480.265c-2,9.75-4,19.5-6,29.25C333.968,501.221,335.894,489.794,337.604,480.265z"/>
<path fill-rule="evenodd" clip-rule="evenodd" fill="#F7F619" stroke="#000000" stroke-linecap="square" stroke-miterlimit="10" d="  M336.104,482.515c-1.75,9-3.5,18-5.25,27c27.25,0,54.5,0,81.75,0c-0.778-8.342-0.541-17.309-2.25-25.5  c-1.909,22.751,5.073,30.316,27.75,25.5c-6.481-21.717-10.179-57.704-36.75-61.5c-8.866-1.267-17.042,17.892-33.375,14.625  c-16.719-3.344-14.743-19.598-32.625-14.625c-20.492,5.698-23.479,45.093-26.25,61.5  C333.186,516.858,332.093,500.567,336.104,482.515z"/>
<path fill-rule="evenodd" clip-rule="evenodd" fill="#EDCBA6" stroke="#000000" stroke-width="1.25" stroke-linecap="square" stroke-miterlimit="10" d="  M337.604,408.265c4.632,45.514,68.178,51.019,61.5-0.75C392.979,360.031,329.059,359.12,337.604,408.265z"/>
</svg>