<svg xmlns="http://www.w3.org/2000/svg" xmlns:xlink="http://www.w3.org/1999/xlink" version="1.1" id="Layer_1" x="0px" y="0px" enable-background="new 0 0 822.05 841.89" xml:space="preserve" viewBox="309.89 336.9 202.64 172.14">
<path fill-rule="evenodd" clip-rule="evenodd" fill="#EDCBA6" stroke="#000000" stroke-width="1.25" stroke-linecap="square" stroke-miterlimit="10" d="  M343.511,447.64C339.545,471.875,323.76,432.952,343.511,447.64L343.511,447.64z"/>
<path fill-rule="evenodd" clip-rule="evenodd" fill="#EDCBA6" stroke="#000000" stroke-width="1.25" stroke-linecap="square" stroke-miterlimit="10" d="  M408.761,449.89C395.991,470.456,396.412,428.918,408.761,449.89L408.761,449.89z"/>
<path fill-rule="evenodd" clip-rule="evenodd" fill="#EDCBA6" stroke="#000000" stroke-width="1.25" stroke-linecap="square" stroke-miterlimit="10" d="  M403.511,479.14c-27.631-15.621-31.687-11.659-59.625-1.5c-12.341,4.487-25.338,29.25-4.796,29.25  C378.073,506.89,394.002,518.231,403.511,479.14z"/>
<path fill-rule="evenodd" clip-rule="evenodd" fill="#FFFFFF" stroke="#000000" stroke-width="1.25" stroke-linecap="square" stroke-miterlimit="10" d="  M423.013,473.14c-26.14-7.592-30.175,23.899-57.002,16.5c-9.216-2.542-18.72-19.653-24.139-19.111  c-23.914,2.392-27.528,12.057-31.361,36.361c41.5,0,83.001,0,124.502,0C432.309,495.078,429.116,483.42,423.013,473.14z"/>
<path fill-rule="evenodd" clip-rule="evenodd" fill="#EDCBA6" stroke="#000000" stroke-width="1.25" stroke-linecap="square" stroke-miterlimit="10" d="  M338.261,431.14c-3.321,45.055,49.429,72.247,63.75,22.125C418.475,395.642,342.984,376.11,338.261,431.14z"/>
<path fill-rule="evenodd" clip-rule="evenodd" d="M368.261,443.89c-2.438,0.72-1.228,5.491-5.25,1.5  C364.075,439.906,366.187,444.502,368.261,443.89z"/>
<path fill-rule="evenodd" clip-rule="evenodd" d="M387.761,445.39c-2.001-0.247-3.719,5.302-4.5-0.75  C386.17,440.159,386.341,445.214,387.761,445.39z"/>
<path fill="none" stroke="#000000" stroke-linecap="square" stroke-miterlimit="10" d="M370.511,455.14  c2.343,3.02,4.967,2.972,7.5,0"/>
<path fill="none" stroke="#000000" stroke-width="0.75" stroke-linecap="square" stroke-miterlimit="10" d="M358.511,446.14  c3.175-3.832,7.118-4.759,11.25-2.25"/>
<path fill="none" stroke="#000000" stroke-width="0.75" stroke-linecap="square" stroke-miterlimit="10" d="M390.761,446.14  c-3.347-3.363-7.373-3.964-11.25-1.5"/>
<path fill="none" stroke="#000000" stroke-linecap="square" stroke-miterlimit="10" d="M364.511,467.89  c6.677,0.661,13.439-0.363,19.5-3"/>
<path fill-rule="evenodd" clip-rule="evenodd" fill="#FFFFFF" stroke="#000000" stroke-linecap="square" stroke-miterlimit="10" d="  M505.513,374.89c17.066-47.092-66.709-44.636-84.75-21c-22.401,29.348,28.304,85.333,50.25,56.25  C493.47,436.947,526.044,398.874,505.513,374.89z"/>
<path fill-rule="evenodd" clip-rule="evenodd" fill="#FFFFFF" stroke="#000000" stroke-linecap="square" stroke-miterlimit="10" d="  M416.259,418.39C407.363,418.958,406.734,418.998,416.259,418.39L416.259,418.39z"/>
<path fill-rule="evenodd" clip-rule="evenodd" fill="#FFFFFF" stroke="#000000" stroke-linecap="square" stroke-miterlimit="10" d="  M430.513,410.14C416.23,418.025,416.094,401.778,430.513,410.14L430.513,410.14z"/>
</svg>