<svg xmlns="http://www.w3.org/2000/svg" xmlns:xlink="http://www.w3.org/1999/xlink" version="1.1" id="Layer_1" x="0px" y="0px" enable-background="new 0 0 822.05 841.89" xml:space="preserve" viewBox="330.41 348.09 156.73 149.43">
<path fill-rule="evenodd" clip-rule="evenodd" fill="#D2D1D2" d="M437.375,390.515c15.75-13,31.5-26,47.25-39  c3.395,31.061,1.28,63.572,0.792,94.841c-0.256,16.33-33.651,36.689-47.292,44.659C441.061,459.991,443.257,420.407,437.375,390.515  z"/>
<path fill="none" stroke="#000000" stroke-width="1.25" stroke-linecap="square" stroke-miterlimit="10" d="M437.375,390.515  c15.75-13,31.5-26,47.25-39c3.395,31.061,1.28,63.572,0.792,94.841c-0.256,16.33-33.651,36.689-47.292,44.659  C441.061,459.991,443.257,420.407,437.375,390.515"/>
<path fill-rule="evenodd" clip-rule="evenodd" fill="#D2D1D2" stroke="#000000" stroke-width="1.25" stroke-linecap="square" stroke-miterlimit="10" d="  M485.375,351.515c-26.214-5.264-57.541-1.5-84.827-1.5c-27.655,0-43.202,22.805-63.673,40.5c26.194-2.469,58.297-0.75,86.225-0.75  C449.545,389.765,464.758,368.533,485.375,351.515z"/>
<path fill-rule="evenodd" clip-rule="evenodd" fill="#FB0F0C" stroke="#000000" stroke-width="1.25" stroke-linecap="square" stroke-miterlimit="10" d="  M438.875,488.015c-6.892,8.326-89.025,12.695-99,4.5c-8.48-6.968-12.519-89.399-4.5-99c7.401-8.862,89.415-12.375,99-4.5  C449.817,401.704,438.875,466.429,438.875,488.015z"/>
<path fill-rule="evenodd" clip-rule="evenodd" fill="#FFFFFF" stroke="#000000" stroke-width="1.25" stroke-linecap="square" stroke-miterlimit="10" d="  M366.125,470.765c-3.694,10.943-19.1,15.438-20.25,0C344.696,454.931,362.408,460.838,366.125,470.765z"/>
<path fill-rule="evenodd" clip-rule="evenodd" fill="#FFFFFF" stroke="#000000" stroke-width="1.25" stroke-linecap="square" stroke-miterlimit="10" d="  M396.875,441.515c-3.601,9.998-22.756,15.538-21,0C377.55,426.688,392.838,431.946,396.875,441.515z"/>
<path fill-rule="evenodd" clip-rule="evenodd" fill="#FFFFFF" stroke="#000000" stroke-width="1.25" stroke-linecap="square" stroke-miterlimit="10" d="  M429.125,411.515C410.716,457.275,408.729,366.658,429.125,411.515L429.125,411.515z"/>
<path fill-rule="evenodd" clip-rule="evenodd" fill="#FFFFFF" stroke="#000000" stroke-linecap="square" stroke-miterlimit="10" d="  M421.625,366.515C399.115,396.231,398.581,337.175,421.625,366.515L421.625,366.515z"/>
<path fill-rule="evenodd" clip-rule="evenodd" fill="#FFFFFF" stroke="#000000" stroke-linecap="square" stroke-miterlimit="10" d="  M456.125,463.265C444.518,501.415,444.603,424.934,456.125,463.265L456.125,463.265z"/>
<path fill-rule="evenodd" clip-rule="evenodd" fill="#FFFFFF" stroke="#000000" stroke-linecap="square" stroke-miterlimit="10" d="  M470.375,424.265C459.199,461.684,458.962,385.823,470.375,424.265L470.375,424.265z"/>
<path fill-rule="evenodd" clip-rule="evenodd" fill="#FFFFFF" stroke="#000000" stroke-linecap="square" stroke-miterlimit="10" d="  M482.375,382.265c-6.818,21.424-13.288-0.673-5.25-12C482.356,373.864,481.074,377.015,482.375,382.265z"/>
<path fill-rule="evenodd" clip-rule="evenodd" fill="#FFFFFF" stroke="#000000" stroke-linecap="square" stroke-miterlimit="10" d="  M453.875,407.015C443.896,444.483,443.896,369.547,453.875,407.015L453.875,407.015z"/>
<path fill-rule="evenodd" clip-rule="evenodd" fill="#FFFFFF" stroke="#000000" stroke-linecap="square" stroke-miterlimit="10" d="  M482.375,441.515c-6.159,22.023-12.433-0.765-4.5-11.25C482.813,433.889,480.971,436.719,482.375,441.515z"/>
</svg>