<svg xmlns="http://www.w3.org/2000/svg" xmlns:xlink="http://www.w3.org/1999/xlink" version="1.1" id="Layer_1" x="0px" y="0px" enable-background="new 0 0 822.05 841.89" xml:space="preserve" viewBox="210 250.49 404 342.47">
<path fill-rule="evenodd" clip-rule="evenodd" fill="#F9CBDF" stroke="#000000" stroke-width="2" stroke-linecap="square" stroke-miterlimit="10" d="  M253,268.144c-16.123,16.123-29.25,22.672-29.25,45.195c0,33.219,0,66.438,0,99.657c0,32.47,31.742,48.982,65.25,43.397  c56.948-9.491,40.5-58.67,40.5-105.169C329.5,289.587,318.655,267.068,253,268.144z"/>
<path fill="none" stroke="#000000" stroke-width="2" stroke-linecap="square" stroke-miterlimit="10" d="M223.75,297.394  c33.269,19.35,72.126,19.248,105.75,0.75"/>
<path fill="none" stroke="#000000" stroke-width="2" stroke-linecap="square" stroke-miterlimit="10" d="M224.5,306.394  c33.743,16.725,72.577,21.336,105.75,0"/>
<path fill="none" stroke="#000000" stroke-width="2" stroke-linecap="square" stroke-miterlimit="10" d="M224.5,313.894  c32.272,19.751,73.133,19.604,105.75,0.75"/>
<path fill="none" stroke="#000000" stroke-width="2" stroke-linecap="square" stroke-miterlimit="10" d="M224.5,321.394  c32.922,19.148,72.496,19.045,105.75,0.75"/>
<path fill="none" stroke="#000000" stroke-width="2" stroke-linecap="square" stroke-miterlimit="10" d="M223.75,330.394  c31.347,19.99,73.288,19.43,105,0.75"/>
<path fill="none" stroke="#000000" stroke-width="2" stroke-linecap="square" stroke-miterlimit="10" d="M223.75,339.394  c33.741,16.724,72.593,21.326,105.75,0"/>
<path fill="none" stroke="#000000" stroke-width="2" stroke-linecap="square" stroke-miterlimit="10" d="M223.75,346.894  c32.271,19.75,73.145,19.598,105.75,0.75"/>
<path fill="none" stroke="#000000" stroke-width="2" stroke-linecap="square" stroke-miterlimit="10" d="M223.75,354.394  c32.928,19.152,72.525,19.029,105.75,0.75"/>
<path fill="none" stroke="#000000" stroke-width="2" stroke-linecap="square" stroke-miterlimit="10" d="M223,363.394  c32.257,19.46,72.443,19.644,105,0.75"/>
<path fill="none" stroke="#000000" stroke-width="2" stroke-linecap="square" stroke-miterlimit="10" d="M223.75,372.394  c31.821,17.447,73.846,21.424,105,0"/>
<path fill="none" stroke="#000000" stroke-width="2" stroke-linecap="square" stroke-miterlimit="10" d="M223.75,380.644  c32.338,17.73,72.873,19.905,105,0"/>
<path fill="none" stroke="#000000" stroke-width="2" stroke-linecap="square" stroke-miterlimit="10" d="M223.75,387.394  c31.196,19.894,73.458,19.331,105,0.75"/>
<path fill="none" stroke="#000000" stroke-width="2" stroke-linecap="square" stroke-miterlimit="10" d="M224.5,396.394  c33.263,19.347,72.102,19.262,105.75,0.75"/>
<path fill="none" stroke="#000000" stroke-width="2" stroke-linecap="square" stroke-miterlimit="10" d="M223,405.394  c31.926,17.355,73.904,21.621,105,0"/>
<path fill="none" stroke="#000000" stroke-width="2" stroke-linecap="square" stroke-miterlimit="10" d="M223,413.644  c32.754,16.941,72.705,20.671,105,0"/>
<path fill="none" stroke="#000000" stroke-width="2" stroke-linecap="square" stroke-miterlimit="10" d="M223,420.394  c32.106,19.368,72.615,19.544,105,0.75"/>
<path fill="none" stroke="#000000" stroke-width="2" stroke-linecap="square" stroke-miterlimit="10" d="M224.5,428.644  c34.079,17.823,71.562,19.559,105.75,0.75"/>
<path fill-rule="evenodd" clip-rule="evenodd" fill="#BCBEC0" stroke="#000000" stroke-width="2" stroke-linecap="square" stroke-miterlimit="10" d="  M223.75,436.894c-23.662,27.434-12.807,33.728,19.5,42c24.027,6.152,80.538,10.508,99-10.5c9.355-10.646,11.191-10.124-2.25-22.125  c-15.359-13.714-15.067-2.42-33,1.875C277.18,455.286,251.02,452.183,223.75,436.894z"/>
<path fill-rule="evenodd" clip-rule="evenodd" fill="#BCBEC0" stroke="#000000" stroke-width="2" stroke-linecap="square" stroke-miterlimit="10" d="  M253.75,260.644C232.357,296.624,373.8,252.069,253.75,260.644L253.75,260.644z"/>
<path fill-rule="evenodd" clip-rule="evenodd" fill="#BCBEC0" stroke="#000000" stroke-width="2" stroke-linecap="square" stroke-miterlimit="10" d="  M298.75,260.644c-6.215,6.372-43.952,15.879-45,0C252.663,244.177,292.982,253.572,298.75,260.644z"/>
<path fill="none" stroke="#000000" stroke-width="2" stroke-linecap="square" stroke-miterlimit="10" d="M331,425.644  c15.495-5.4,20.857,12.765,36,11.25"/>
<path fill-rule="evenodd" clip-rule="evenodd" fill="#FFFCD9" stroke="#000000" stroke-width="2" stroke-linecap="square" stroke-miterlimit="10" d="  M374.5,325.144c-16.123,16.123-29.25,22.672-29.25,45.195c0,33.219,0,66.438,0,99.657c0,32.47,31.742,48.982,65.25,43.397  c56.947-9.491,40.5-58.67,40.5-105.169C451,346.587,440.155,324.068,374.5,325.144z"/>
<path fill="none" stroke="#000000" stroke-width="2" stroke-linecap="square" stroke-miterlimit="10" d="M345.25,354.394  c33.269,19.35,72.127,19.248,105.75,0.75"/>
<path fill="none" stroke="#000000" stroke-width="2" stroke-linecap="square" stroke-miterlimit="10" d="M346,363.394  c33.743,16.725,72.577,21.336,105.75,0"/>
<path fill="none" stroke="#000000" stroke-width="2" stroke-linecap="square" stroke-miterlimit="10" d="M346,370.894  c32.272,19.751,73.134,19.604,105.75,0.75"/>
<path fill="none" stroke="#000000" stroke-width="2" stroke-linecap="square" stroke-miterlimit="10" d="M346,378.394  c32.923,19.149,72.496,19.045,105.75,0.75"/>
<path fill="none" stroke="#000000" stroke-width="2" stroke-linecap="square" stroke-miterlimit="10" d="M345.25,387.394  c31.347,19.99,73.288,19.43,105,0.75"/>
<path fill="none" stroke="#000000" stroke-width="2" stroke-linecap="square" stroke-miterlimit="10" d="M345.25,396.394  c33.741,16.724,72.593,21.326,105.75,0"/>
<path fill="none" stroke="#000000" stroke-width="2" stroke-linecap="square" stroke-miterlimit="10" d="M345.25,403.894  c32.271,19.75,73.145,19.598,105.75,0.75"/>
<path fill="none" stroke="#000000" stroke-width="2" stroke-linecap="square" stroke-miterlimit="10" d="M345.25,411.394  c32.928,19.152,72.524,19.029,105.75,0.75"/>
<path fill="none" stroke="#000000" stroke-width="2" stroke-linecap="square" stroke-miterlimit="10" d="M344.5,420.394  c32.257,19.46,72.443,19.645,105,0.75"/>
<path fill="none" stroke="#000000" stroke-width="2" stroke-linecap="square" stroke-miterlimit="10" d="M345.25,429.394  c31.821,17.446,73.846,21.424,105,0"/>
<path fill="none" stroke="#000000" stroke-width="2" stroke-linecap="square" stroke-miterlimit="10" d="M345.25,436.894  c30.343,20.318,74.288,19.778,105,0.75"/>
<path fill="none" stroke="#000000" stroke-width="2" stroke-linecap="square" stroke-miterlimit="10" d="M345.25,444.394  c31.196,19.894,73.457,19.33,105,0.75"/>
<path fill="none" stroke="#000000" stroke-width="2" stroke-linecap="square" stroke-miterlimit="10" d="M346,453.394  c33.263,19.347,72.103,19.262,105.75,0.75"/>
<path fill="none" stroke="#000000" stroke-width="2" stroke-linecap="square" stroke-miterlimit="10" d="M344.5,462.394  c31.926,17.355,73.904,21.621,105,0"/>
<path fill="none" stroke="#000000" stroke-width="2" stroke-linecap="square" stroke-miterlimit="10" d="M344.5,470.644  c32.754,16.941,72.705,20.671,105,0"/>
<path fill="none" stroke="#000000" stroke-width="2" stroke-linecap="square" stroke-miterlimit="10" d="M344.5,477.394  c32.106,19.368,72.615,19.544,105,0.75"/>
<path fill="none" stroke="#000000" stroke-width="2" stroke-linecap="square" stroke-miterlimit="10" d="M346,485.644  c34.079,17.823,71.562,19.559,105.75,0.75"/>
<path fill-rule="evenodd" clip-rule="evenodd" fill="#BCBEC0" stroke="#000000" stroke-width="2" stroke-linecap="square" stroke-miterlimit="10" d="  M345.25,493.894c-23.662,27.434-12.807,33.728,19.5,42c24.027,6.152,80.538,10.508,99-10.5c9.355-10.646,11.191-10.124-2.25-22.125  c-15.359-13.714-15.067-2.42-33,1.875C398.68,512.286,372.52,509.183,345.25,493.894z"/>
<path fill-rule="evenodd" clip-rule="evenodd" fill="#BCBEC0" stroke="#000000" stroke-width="2" stroke-linecap="square" stroke-miterlimit="10" d="  M375.25,317.644C353.857,353.624,495.3,309.069,375.25,317.644L375.25,317.644z"/>
<path fill-rule="evenodd" clip-rule="evenodd" fill="#BCBEC0" stroke="#000000" stroke-width="2" stroke-linecap="square" stroke-miterlimit="10" d="  M420.25,317.644c-6.215,6.373-43.952,15.879-45,0C374.163,301.178,414.482,310.572,420.25,317.644z"/>
<path fill="none" stroke="#000000" stroke-width="2" stroke-linecap="square" stroke-miterlimit="10" d="M452.5,482.644  c15.495-5.4,20.857,12.765,36,11.25"/>
<path fill-rule="evenodd" clip-rule="evenodd" fill="#7BD3F7" stroke="#000000" stroke-width="2" stroke-linecap="square" stroke-miterlimit="10" d="  M499,376.144c-16.123,16.123-29.25,22.672-29.25,45.195c0,33.219,0,66.438,0,99.657c0,32.47,31.741,48.982,65.25,43.397  c56.947-9.491,40.5-58.67,40.5-105.169C575.5,397.587,564.654,375.068,499,376.144z"/>
<path fill="none" stroke="#000000" stroke-width="2" stroke-linecap="square" stroke-miterlimit="10" d="M469.75,405.394  c33.269,19.35,72.127,19.248,105.75,0.75"/>
<path fill="none" stroke="#000000" stroke-width="2" stroke-linecap="square" stroke-miterlimit="10" d="M470.5,414.394  c33.743,16.725,72.577,21.336,105.75,0"/>
<path fill="none" stroke="#000000" stroke-width="2" stroke-linecap="square" stroke-miterlimit="10" d="M470.5,421.894  c32.272,19.752,73.134,19.604,105.75,0.75"/>
<path fill="none" stroke="#000000" stroke-width="2" stroke-linecap="square" stroke-miterlimit="10" d="M470.5,429.394  c32.923,19.148,72.496,19.045,105.75,0.75"/>
<path fill="none" stroke="#000000" stroke-width="2" stroke-linecap="square" stroke-miterlimit="10" d="M469.75,438.394  c31.347,19.989,73.288,19.431,105,0.75"/>
<path fill="none" stroke="#000000" stroke-width="2" stroke-linecap="square" stroke-miterlimit="10" d="M469.75,447.394  c33.74,16.724,72.593,21.326,105.75,0"/>
<path fill="none" stroke="#000000" stroke-width="2" stroke-linecap="square" stroke-miterlimit="10" d="M469.75,454.894  c32.271,19.75,73.145,19.598,105.75,0.75"/>
<path fill="none" stroke="#000000" stroke-width="2" stroke-linecap="square" stroke-miterlimit="10" d="M469.75,462.394  c32.928,19.152,72.525,19.029,105.75,0.75"/>
<path fill="none" stroke="#000000" stroke-width="2" stroke-linecap="square" stroke-miterlimit="10" d="M469,471.394  c32.257,19.46,72.443,19.645,105,0.75"/>
<path fill="none" stroke="#000000" stroke-width="2" stroke-linecap="square" stroke-miterlimit="10" d="M469.75,480.394  c31.82,17.446,73.847,21.424,105,0"/>
<path fill="none" stroke="#000000" stroke-width="2" stroke-linecap="square" stroke-miterlimit="10" d="M469.75,487.894  c30.343,20.318,74.288,19.778,105,0.75"/>
<path fill="none" stroke="#000000" stroke-width="2" stroke-linecap="square" stroke-miterlimit="10" d="M469.75,495.394  c31.196,19.894,73.457,19.33,105,0.75"/>
<path fill="none" stroke="#000000" stroke-width="2" stroke-linecap="square" stroke-miterlimit="10" d="M470.5,504.394  c33.263,19.347,72.103,19.262,105.75,0.75"/>
<path fill="none" stroke="#000000" stroke-width="2" stroke-linecap="square" stroke-miterlimit="10" d="M469,513.394  c31.927,17.355,73.904,21.621,105,0"/>
<path fill="none" stroke="#000000" stroke-width="2" stroke-linecap="square" stroke-miterlimit="10" d="M469,521.644  c32.754,16.941,72.705,20.671,105,0"/>
<path fill="none" stroke="#000000" stroke-width="2" stroke-linecap="square" stroke-miterlimit="10" d="M469,528.394  c32.105,19.368,72.615,19.544,105,0.75"/>
<path fill="none" stroke="#000000" stroke-width="2" stroke-linecap="square" stroke-miterlimit="10" d="M470.5,536.644  c34.078,17.823,71.562,19.559,105.75,0.75"/>
<path fill-rule="evenodd" clip-rule="evenodd" fill="#BCBEC0" stroke="#000000" stroke-width="2" stroke-linecap="square" stroke-miterlimit="10" d="  M469.75,544.894c-23.662,27.434-12.807,33.728,19.5,42c24.026,6.152,80.538,10.508,99-10.5c9.355-10.646,11.191-10.124-2.25-22.125  c-15.359-13.714-15.067-2.42-33,1.875C523.18,563.286,497.02,560.183,469.75,544.894z"/>
<path fill-rule="evenodd" clip-rule="evenodd" fill="#BCBEC0" stroke="#000000" stroke-width="2" stroke-linecap="square" stroke-miterlimit="10" d="  M499.75,368.644C478.357,404.624,619.8,360.069,499.75,368.644L499.75,368.644z"/>
<path fill-rule="evenodd" clip-rule="evenodd" fill="#BCBEC0" stroke="#000000" stroke-width="2" stroke-linecap="square" stroke-miterlimit="10" d="  M544.75,368.644c-6.215,6.373-43.952,15.879-45,0C498.663,352.177,538.982,361.572,544.75,368.644z"/>
<path fill="none" stroke="#000000" stroke-width="2" stroke-linecap="square" stroke-miterlimit="10" d="M577,533.644  c15.495-5.4,20.857,12.765,36,11.25"/>
</svg>