<svg xmlns="http://www.w3.org/2000/svg" xmlns:xlink="http://www.w3.org/1999/xlink" version="1.1" id="Layer_1" x="0px" y="0px" enable-background="new 0 0 822.05 841.89" xml:space="preserve" viewBox="317.35 336.17 186.2 172.47">
<path fill-rule="evenodd" clip-rule="evenodd" fill="#EED5B6" stroke="#000000" stroke-width="1.25" stroke-linecap="square" stroke-miterlimit="10" d="  M394.471,408.265c-0.689-5.6,0.437-17.957,3-26.25c-9.088,11.461-18.697,39.178-10.5,49.5  C391.137,422.348,405.623,408.119,394.471,408.265z"/>
<path fill-rule="evenodd" clip-rule="evenodd" fill="#EED5B6" stroke="#000000" stroke-width="1.25" stroke-linecap="square" stroke-miterlimit="10" d="  M424.471,412.015c-7.09-5.116-13.031-0.095-17.25,10.5c-1.778-2.736-3.754-5.331-5.25-8.25  C388.304,467.272,438.434,423.975,424.471,412.015z"/>
<path fill-rule="evenodd" clip-rule="evenodd" fill="#137827" d="M419.971,410.515l-7.5,10.5L419.971,410.515z"/>
<line fill="none" stroke="#000000" stroke-width="1.25" stroke-linecap="square" stroke-miterlimit="10" x1="419.971" y1="410.515" x2="412.471" y2="421.015"/>
<path fill-rule="evenodd" clip-rule="evenodd" fill="#137827" d="M424.471,412.015l-9,11.25L424.471,412.015z"/>
<line fill="none" stroke="#000000" stroke-width="1.25" stroke-linecap="square" stroke-miterlimit="10" x1="424.471" y1="412.015" x2="415.471" y2="423.265"/>
<path fill-rule="evenodd" clip-rule="evenodd" fill="#137827" d="M427.471,415.765l-7.5,9.75L427.471,415.765z"/>
<line fill="none" stroke="#000000" stroke-width="1.25" stroke-linecap="square" stroke-miterlimit="10" x1="427.471" y1="415.765" x2="419.971" y2="425.515"/>
<path fill-rule="evenodd" clip-rule="evenodd" fill="#137827" stroke="#000000" stroke-width="1.25" stroke-linecap="square" stroke-miterlimit="10" d="  M401.221,430.765c-5.074,5.627-11.912,21.264-18,24.75c-6.721,3.849-13.41-0.073-21,3c-6.953,2.814-22.33-5.815-19.5,10.5  c1.709,9.856,29.83,10.309,36,9c21.662-4.594,24.264-16.923,35.25-36.75C405.889,440.247,406.474,434.17,401.221,430.765z"/>
<path fill-rule="evenodd" clip-rule="evenodd" fill="#EED5B6" stroke="#000000" stroke-width="1.25" stroke-linecap="square" stroke-miterlimit="10" d="  M361.471,459.265c-17.949-16.956-37.382-3.339-39.75,20.25C338.609,481.253,361.98,481.39,361.471,459.265z"/>
<path fill-rule="evenodd" clip-rule="evenodd" fill="#137827" stroke="#000000" stroke-width="1.25" stroke-linecap="square" stroke-miterlimit="10" d="  M369.721,508.015c0.183-15.763,3.536-47.009-15.75-51.75c9.252,27.843-18.404-0.045-22.5,1.5c-17.026,6.421-12.75,36.034-13.5,50.25  C335.221,508.015,352.471,508.015,369.721,508.015z"/>
<path fill-rule="evenodd" clip-rule="evenodd" fill="#EED5B6" stroke="#000000" stroke-width="1.25" stroke-linecap="square" stroke-miterlimit="10" d="  M318.721,433.765c4.338,24.431,39,35.431,39,3.375C357.721,405.883,317.194,402.342,318.721,433.765z"/>
<path fill-rule="evenodd" clip-rule="evenodd" fill="#F4EE12" stroke="#000000" stroke-width="1.25" stroke-linecap="square" stroke-miterlimit="10" d="  M501.721,361.015c-9.776,19.255-43.074,9.811-34.5-11.625C476.376,326.502,509.606,337.479,501.721,361.015z"/>
<path fill-rule="evenodd" clip-rule="evenodd" fill="#137827" stroke="#000000" stroke-width="1.25" stroke-linecap="square" stroke-miterlimit="10" d="  M335.221,455.515c21.036-10.812,31.117-23.07,46.5-41.25c34.83,16.732-27.019,52.889-42,64.125  C322.392,491.386,315.423,463.752,335.221,455.515z"/>
<path fill-rule="evenodd" clip-rule="evenodd" d="M440.971,372.265c-10,7-20,14-30,21c13.636,14.508,23.938-22.346,37.5-9.75  c4.045-4.856,9.439-14.203,11.25-20.25C448.838,363.195,437.506,363.889,440.971,372.265z"/>
</svg>