<svg xmlns="http://www.w3.org/2000/svg" xmlns:xlink="http://www.w3.org/1999/xlink" version="1.1" id="Layer_1" x="0px" y="0px" enable-background="new 0 0 822.05 841.89" xml:space="preserve" viewBox="224 262.25 374 314.75">
<path fill-rule="evenodd" clip-rule="evenodd" fill="#942923" stroke="#000000" stroke-width="2" stroke-linecap="square" stroke-miterlimit="10" d="  M325.5,264c-5.501,7.665-6.824,16.642-3.75,25.5c6.994-0.568,12.843-0.347,19.5-0.75c0.747-9.398-1.1-17.543-6-25.5  C331.809,266.987,328.824,263.346,325.5,264z"/>
<path fill-rule="evenodd" clip-rule="evenodd" fill="#942923" stroke="#000000" stroke-width="2" stroke-linecap="square" stroke-miterlimit="10" d="  M324,289.5C320.609,328.445,360.854,270.773,324,289.5L324,289.5z"/>
<path fill-rule="evenodd" clip-rule="evenodd" fill="#942923" stroke="#000000" stroke-width="2" stroke-linecap="square" stroke-miterlimit="10" d="  M324,295.5c-26.73,8.603-6.639,60.454,18.75,46.5C366.912,328.721,352.843,286.772,324,295.5z"/>
<path fill-rule="evenodd" clip-rule="evenodd" fill="#942923" stroke="#000000" stroke-width="2" stroke-linecap="square" stroke-miterlimit="10" d="  M312,321c-19.372,20.329-4.687,71.008,27,67.5c17.601-1.948,25.923-20.961,28.125-36.375C372.446,314.878,337.616,320.117,312,321z"/>
<path fill-rule="evenodd" clip-rule="evenodd" fill="#942923" stroke="#000000" stroke-width="2" stroke-linecap="square" stroke-miterlimit="10" d="  M340.5,294.75c17.589,5.995,78.306,1.323,95.25-18.75c-15.498,0.731-32.502,7.561-47.93,11.906  C371.206,292.587,354.789,281.863,340.5,294.75z"/>
<path fill-rule="evenodd" clip-rule="evenodd" fill="#942923" stroke="#000000" stroke-width="2" stroke-linecap="square" stroke-miterlimit="10" d="  M320.25,297c-18.978,3.976-77.232,1.507-95.25-18.75c15.009-0.792,32.782,7.309,47.93,11.789  C289.824,295.036,306.147,282.684,320.25,297z"/>
<path fill-rule="evenodd" clip-rule="evenodd" fill="#942923" stroke="#000000" stroke-width="2" stroke-linecap="square" stroke-miterlimit="10" d="  M351.75,303c0.5,2.75,1,5.5,1.5,8.25c19.873-8.817,48.638,9.908,63-9C395.217,308.485,373.957,298.811,351.75,303z"/>
<path fill-rule="evenodd" clip-rule="evenodd" fill="#942923" stroke="#000000" stroke-width="2" stroke-linecap="square" stroke-miterlimit="10" d="  M355.5,319.5c13.018,20.098,28.254,46.046,49.502,57.75C398.449,362.109,371.388,315.737,355.5,319.5z"/>
<path fill-rule="evenodd" clip-rule="evenodd" fill="#942923" stroke="#000000" stroke-width="2" stroke-linecap="square" stroke-miterlimit="10" d="  M367.5,352.5c6.367,24.123,4.148,52.618,21.75,71.25c-0.053-25.779-14.183-61.741-23.25-87  C367.413,341.61,367.132,349.05,367.5,352.5z"/>
<path fill-rule="evenodd" clip-rule="evenodd" fill="#942923" stroke="#000000" stroke-width="2" stroke-linecap="square" stroke-miterlimit="10" d="  M303.75,351c8.208,24.091-5.204,58.538-15.75,80.25C294.486,404.586,297.724,377.783,303.75,351z"/>
<path fill-rule="evenodd" clip-rule="evenodd" fill="#942923" stroke="#000000" stroke-width="2" stroke-linecap="square" stroke-miterlimit="10" d="  M309.75,321c-13.894,12.183-26.866,49.094-33.75,68.25C292.635,367.322,294.775,341.462,309.75,321z"/>
<path fill-rule="evenodd" clip-rule="evenodd" fill="#942923" stroke="#000000" stroke-width="2" stroke-linecap="square" stroke-miterlimit="10" d="  M310.5,312c-18.079,6.503-37.132,21.996-56.25,14.25c19.934-4.434,38.835-16.081,57.75-21C311.5,307.5,311,309.75,310.5,312z"/>
<path fill-rule="evenodd" clip-rule="evenodd" fill="#942923" stroke="#000000" stroke-width="2" stroke-linecap="square" stroke-miterlimit="10" d="  M486.75,344.25c-5.501,7.665-6.823,16.642-3.75,25.5c6.994-0.568,12.843-0.347,19.5-0.75c0.747-9.398-1.1-17.543-6-25.5  C493.059,347.237,490.074,343.596,486.75,344.25z"/>
<path fill-rule="evenodd" clip-rule="evenodd" fill="#942923" stroke="#000000" stroke-width="2" stroke-linecap="square" stroke-miterlimit="10" d="  M485.25,369.75C481.859,408.695,522.104,351.023,485.25,369.75L485.25,369.75z"/>
<path fill-rule="evenodd" clip-rule="evenodd" fill="#942923" stroke="#000000" stroke-width="2" stroke-linecap="square" stroke-miterlimit="10" d="  M485.25,375.75c-26.73,8.603-6.639,60.453,18.75,46.5C528.162,408.971,514.093,367.022,485.25,375.75z"/>
<path fill-rule="evenodd" clip-rule="evenodd" fill="#942923" stroke="#000000" stroke-width="2" stroke-linecap="square" stroke-miterlimit="10" d="  M473.25,401.25c-19.372,20.329-4.687,71.008,27,67.5c17.601-1.948,25.923-20.961,28.125-36.375  C533.696,395.128,498.866,400.367,473.25,401.25z"/>
<path fill-rule="evenodd" clip-rule="evenodd" fill="#942923" stroke="#000000" stroke-width="2" stroke-linecap="square" stroke-miterlimit="10" d="  M501.75,375c17.59,5.995,78.306,1.323,95.25-18.75c-15.498,0.731-32.502,7.561-47.93,11.906  C532.455,372.837,516.039,362.113,501.75,375z"/>
<path fill-rule="evenodd" clip-rule="evenodd" fill="#942923" stroke="#000000" stroke-width="2" stroke-linecap="square" stroke-miterlimit="10" d="  M481.5,377.25c-18.978,3.976-77.232,1.507-95.25-18.75c15.009-0.792,32.781,7.309,47.93,11.789  C451.073,375.286,467.397,362.934,481.5,377.25z"/>
<path fill-rule="evenodd" clip-rule="evenodd" fill="#942923" stroke="#000000" stroke-width="2" stroke-linecap="square" stroke-miterlimit="10" d="  M513,383.25c0.5,2.75,1,5.5,1.5,8.25c19.873-8.817,48.636,9.908,63-9C556.468,388.734,535.206,379.061,513,383.25z"/>
<path fill-rule="evenodd" clip-rule="evenodd" fill="#942923" stroke="#000000" stroke-width="2" stroke-linecap="square" stroke-miterlimit="10" d="  M516.75,399.75c13.018,20.099,28.254,46.043,49.5,57.75C559.698,442.359,532.638,395.987,516.75,399.75z"/>
<path fill-rule="evenodd" clip-rule="evenodd" fill="#942923" stroke="#000000" stroke-width="2" stroke-linecap="square" stroke-miterlimit="10" d="  M528.75,432.75c6.366,24.123,4.148,52.617,21.75,71.25c-0.053-25.778-14.183-61.741-23.25-87  C528.663,421.86,528.382,429.3,528.75,432.75z"/>
<path fill-rule="evenodd" clip-rule="evenodd" fill="#942923" stroke="#000000" stroke-width="2" stroke-linecap="square" stroke-miterlimit="10" d="  M465,431.25c8.208,24.091-5.204,58.537-15.75,80.25C455.736,484.836,458.974,458.033,465,431.25z"/>
<path fill-rule="evenodd" clip-rule="evenodd" fill="#942923" stroke="#000000" stroke-width="2" stroke-linecap="square" stroke-miterlimit="10" d="  M471,401.25c-13.894,12.183-26.865,49.094-33.75,68.25C453.885,447.572,456.025,421.712,471,401.25z"/>
<path fill-rule="evenodd" clip-rule="evenodd" fill="#942923" stroke="#000000" stroke-width="2" stroke-linecap="square" stroke-miterlimit="10" d="  M471.75,392.25c-18.079,6.503-37.132,21.996-56.25,14.25c19.934-4.434,38.835-16.081,57.75-21  C472.75,387.75,472.25,390,471.75,392.25z"/>
<path fill-rule="evenodd" clip-rule="evenodd" fill="#942923" stroke="#000000" stroke-width="2" stroke-linecap="square" stroke-miterlimit="10" d="  M354.75,408.75c-5.501,7.665-6.824,16.642-3.75,25.5c6.994-0.568,12.843-0.347,19.5-0.75c0.747-9.398-1.1-17.543-6-25.5  C361.059,411.737,358.074,408.096,354.75,408.75z"/>
<path fill-rule="evenodd" clip-rule="evenodd" fill="#942923" stroke="#000000" stroke-width="2" stroke-linecap="square" stroke-miterlimit="10" d="  M353.25,434.25C349.859,473.195,390.104,415.523,353.25,434.25L353.25,434.25z"/>
<path fill-rule="evenodd" clip-rule="evenodd" fill="#942923" stroke="#000000" stroke-width="2" stroke-linecap="square" stroke-miterlimit="10" d="  M353.25,440.25c-26.73,8.603-6.639,60.453,18.75,46.5C396.162,473.471,382.093,431.522,353.25,440.25z"/>
<path fill-rule="evenodd" clip-rule="evenodd" fill="#942923" stroke="#000000" stroke-width="2" stroke-linecap="square" stroke-miterlimit="10" d="  M341.25,465.75c-19.372,20.329-4.687,71.008,27,67.5c17.601-1.948,25.923-20.961,28.125-36.375  C401.696,459.628,366.866,464.867,341.25,465.75z"/>
<path fill-rule="evenodd" clip-rule="evenodd" fill="#942923" stroke="#000000" stroke-width="2" stroke-linecap="square" stroke-miterlimit="10" d="  M369.75,439.5c17.589,5.994,78.306,1.324,95.25-18.75c-15.498,0.731-32.501,7.561-47.928,11.906  C400.457,437.337,384.04,426.613,369.75,439.5z"/>
<path fill-rule="evenodd" clip-rule="evenodd" fill="#942923" stroke="#000000" stroke-width="2" stroke-linecap="square" stroke-miterlimit="10" d="  M349.5,441.75c-18.978,3.976-77.232,1.507-95.25-18.75c15.009-0.792,32.782,7.309,47.93,11.789  C319.074,439.787,335.397,427.433,349.5,441.75z"/>
<path fill-rule="evenodd" clip-rule="evenodd" fill="#942923" stroke="#000000" stroke-width="2" stroke-linecap="square" stroke-miterlimit="10" d="  M381,447.75c0.5,2.75,1,5.5,1.5,8.25c19.874-8.817,48.636,9.907,63-9C424.468,453.234,403.207,443.561,381,447.75z"/>
<path fill-rule="evenodd" clip-rule="evenodd" fill="#942923" stroke="#000000" stroke-width="2" stroke-linecap="square" stroke-miterlimit="10" d="  M384.75,464.25c13.016,20.098,28.255,46.045,49.5,57.75C427.698,506.859,400.638,460.487,384.75,464.25z"/>
<path fill-rule="evenodd" clip-rule="evenodd" fill="#942923" stroke="#000000" stroke-width="2" stroke-linecap="square" stroke-miterlimit="10" d="  M396.75,497.25c6.366,24.122,4.152,52.617,21.75,71.25c-0.054-25.781-14.181-61.74-23.25-87  C396.663,486.361,396.382,493.8,396.75,497.25z"/>
<path fill-rule="evenodd" clip-rule="evenodd" fill="#942923" stroke="#000000" stroke-width="2" stroke-linecap="square" stroke-miterlimit="10" d="  M333,495.75c8.208,24.091-5.204,58.537-15.75,80.25C323.736,549.336,326.974,522.533,333,495.75z"/>
<path fill-rule="evenodd" clip-rule="evenodd" fill="#942923" stroke="#000000" stroke-width="2" stroke-linecap="square" stroke-miterlimit="10" d="  M339,465.75c-13.894,12.184-26.866,49.094-33.75,68.25C321.885,512.072,324.025,486.212,339,465.75z"/>
<path fill-rule="evenodd" clip-rule="evenodd" fill="#942923" stroke="#000000" stroke-width="2" stroke-linecap="square" stroke-miterlimit="10" d="  M339.75,456.75c-18.079,6.503-37.132,21.996-56.25,14.25c19.934-4.434,38.835-16.081,57.75-21  C340.75,452.25,340.25,454.5,339.75,456.75z"/>
</svg>