<svg xmlns="http://www.w3.org/2000/svg" xmlns:xlink="http://www.w3.org/1999/xlink" version="1.1" id="Layer_1" x="0px" y="0px" enable-background="new 0 0 822.05 841.89" xml:space="preserve" viewBox="238.07 279.96 345.59 276.5">
<path fill-rule="evenodd" clip-rule="evenodd" fill="#942923" stroke="#000000" stroke-width="2" stroke-linecap="square" stroke-miterlimit="10" d="  M401.869,282.459c-7.67,12.238-10.64,27.568-5.25,41.25c9.611-7.168,21.299-7.792,31.502-1.5c1.354-14.402-0.726-29.452-9.752-41.25  C411.91,287.423,408.979,281.423,401.869,282.459z"/>
<path fill-rule="evenodd" clip-rule="evenodd" fill="#942923" stroke="#000000" stroke-width="2" stroke-linecap="square" stroke-miterlimit="10" d="  M400.369,323.709c-3.882,13.452,1.978,21.75,15.375,21.75C437.771,345.459,425.763,301.508,400.369,323.709z"/>
<path fill-rule="evenodd" clip-rule="evenodd" fill="#942923" stroke="#000000" stroke-width="2" stroke-linecap="square" stroke-miterlimit="10" d="  M399.619,334.209c-40.371,1.893-15.532,87.755,21,81c21.653-4.004,32.183-34.847,28.502-53.25  C443.234,332.528,426.337,332.765,399.619,334.209z"/>
<path fill-rule="evenodd" clip-rule="evenodd" fill="#942923" stroke="#000000" stroke-width="2" stroke-linecap="square" stroke-miterlimit="10" d="  M380.119,375.459c-28.542,30.405-10.198,116.215,40.126,110.625c29.933-3.325,47.693-31.869,50.251-60  C476.129,364.125,423.87,374.078,380.119,375.459z"/>
<path fill-rule="evenodd" clip-rule="evenodd" fill="#942923" stroke="#000000" stroke-width="2" stroke-linecap="square" stroke-miterlimit="10" d="  M427.371,332.709c13.971,19.225,13.56-4.436,26.25-2.556c13.491,1.999,29.798,7.86,43.092,3.883  c7.729-2.312,88.026-23.501,85.908-29.077C582.939,305.797,439.665,322.856,427.371,332.709z"/>
<path fill-rule="evenodd" clip-rule="evenodd" fill="#942923" stroke="#000000" stroke-width="2" stroke-linecap="square" stroke-miterlimit="10" d="  M393.619,335.709c-13.971,19.225-13.56-4.436-26.25-2.556c-13.492,1.999-29.797,7.86-43.092,3.883  c-8.132-2.433-87.429-22.87-85.158-29.077C238.544,309.53,380.992,325.589,393.619,335.709z"/>
<path fill-rule="evenodd" clip-rule="evenodd" fill="#942923" stroke="#000000" stroke-width="2" stroke-linecap="square" stroke-miterlimit="10" d="  M445.371,346.209c1,4.25,2,8.5,3,12.75c34.581-16.875,71.393,14.258,102.75-13.5c-12.188-3.659-18.76,9.576-29.237,7.89  C498.418,349.573,468.694,338.512,445.371,346.209z"/>
<path fill-rule="evenodd" clip-rule="evenodd" fill="#942923" stroke="#000000" stroke-width="2" stroke-linecap="square" stroke-miterlimit="10" d="  M451.371,373.209c20.052,29.406,46.467,80.733,81,93.75c-1.747-15.898-23.918-32.503-33.323-46.609  C490.605,407.685,471.83,360.065,451.371,373.209z"/>
<path fill-rule="evenodd" clip-rule="evenodd" fill="#942923" stroke="#000000" stroke-width="2" stroke-linecap="square" stroke-miterlimit="10" d="  M470.871,427.209c7.346,29.384,5.141,99.188,36,115.5c0.062-18.083-13.252-31.768-15.332-48.409  c-4.27-34.15-11.256-60.891-22.918-93.341C471.352,409.369,472.662,420.242,470.871,427.209z"/>
<path fill-rule="evenodd" clip-rule="evenodd" fill="#942923" stroke="#000000" stroke-width="2" stroke-linecap="square" stroke-miterlimit="10" d="  M366.619,424.209c15.498,36.912-9.024,97.71-25.5,131.25C351.853,511.809,356.652,468.063,366.619,424.209z"/>
<path fill-rule="evenodd" clip-rule="evenodd" fill="#942923" stroke="#000000" stroke-width="2" stroke-linecap="square" stroke-miterlimit="10" d="  M376.369,375.459c-21.388,9.399-20.771,46.806-30,66c-7.473,15.543-19.901,28.248-24.75,45c16.628-21.709,34.048-42.172,42-69  C368.162,402.132,366.428,389.794,376.369,375.459z"/>
<path fill-rule="evenodd" clip-rule="evenodd" fill="#942923" stroke="#000000" stroke-width="2" stroke-linecap="square" stroke-miterlimit="10" d="  M377.869,360.459c-24.672,9.989-65.855,39.623-91.5,22.5c28.979-9.337,66.244-30.574,94.5-33.75  C379.869,352.959,378.869,356.709,377.869,360.459z"/>
</svg>