<svg xmlns="http://www.w3.org/2000/svg" xmlns:xlink="http://www.w3.org/1999/xlink" version="1.1" id="Layer_1" x="0px" y="0px" enable-background="new 0 0 822.05 841.89" xml:space="preserve" viewBox="215.43 280.35 388.48 287.2">
<path fill-rule="evenodd" clip-rule="evenodd" fill="#D6F0FC" stroke="#000000" stroke-linecap="square" stroke-miterlimit="10" d="  M249.68,294.052c24.442-20.077,22.002-16.339,45.444,4.972c14.61,13.282-3.024,26.389-12.444,41.528  C271.68,325.052,260.68,309.552,249.68,294.052z"/>
<path fill-rule="evenodd" clip-rule="evenodd" fill="#D6F0FC" stroke="#000000" stroke-linecap="square" stroke-miterlimit="10" d="  M303.68,306.802c9,11,18,22,27,33c5.128-7.889,32.845-41.717,26.555-47.461C335.284,272.299,326.575,290.511,303.68,306.802z"/>
<path fill-rule="evenodd" clip-rule="evenodd" fill="#942923" stroke="#000000" stroke-linecap="square" stroke-miterlimit="10" d="  M286.43,338.302c6.396,6.537,15.861,10.218,24.75,7.5c25.354-7.752,2.583-25.788-7.5-39  C297.93,317.302,292.18,327.802,286.43,338.302z"/>
<path fill-rule="evenodd" clip-rule="evenodd" fill="#942923" stroke="#000000" stroke-linecap="square" stroke-miterlimit="10" d="  M292.43,343.552c-6.667,42.222-13.333,84.443-20,126.665c-7.644,48.409-0.979,52.196,29.75,92.333  c35.24-43.697,37.506-46.458,29.669-101.079C328.135,435.59,332.916,330.69,292.43,343.552z"/>
<path fill-rule="evenodd" clip-rule="evenodd" fill="#ED1C24" stroke="#000000" stroke-linecap="square" stroke-miterlimit="10" d="  M224.93,378.802c-4.231,4.725-6.227,12.973-9,18.75c13.663,5.644,43.143,8.584,29.25,26.998c9.75-2.75,19.5-5.499,29.25-8.248  c-5-9.5-10-19-15-28.5c-0.793,4.908-4.139,9.392-5.25,14.25C244.43,394.302,234.68,386.552,224.93,378.802z"/>
<path fill-rule="evenodd" clip-rule="evenodd" fill="#D6F0FC" stroke="#000000" stroke-linecap="square" stroke-miterlimit="10" d="  M371.18,297.052c22.567-18.537,19.833-18.337,41.012,1.397c19.126,17.822,5.434,23.974-8.012,45.103  C393.18,328.052,382.18,312.552,371.18,297.052z"/>
<path fill-rule="evenodd" clip-rule="evenodd" fill="#D6F0FC" stroke="#000000" stroke-linecap="square" stroke-miterlimit="10" d="  M425.18,309.802c9,11.25,18,22.5,27,33.75c5.026-7.862,32.818-42.647,26.555-48.094C456.812,276.395,447.865,294.097,425.18,309.802  z"/>
<path fill-rule="evenodd" clip-rule="evenodd" fill="#942923" stroke="#000000" stroke-linecap="square" stroke-miterlimit="10" d="  M407.93,341.302c6.09,6.244,15.993,10.719,24.75,8.25c25.759-7.263,2.214-26.606-7.5-39  C419.43,320.802,413.68,331.052,407.93,341.302z"/>
<path fill-rule="evenodd" clip-rule="evenodd" fill="#942923" stroke="#000000" stroke-linecap="square" stroke-miterlimit="10" d="  M413.18,347.302c-6.481,42.037-12.963,84.073-19.444,126.109c-7.438,48.239-0.671,52.15,29.944,92.139  c6.686-8.156,38.735-37.142,37.375-46.623c-3.062-21.338-6.123-42.676-9.185-64.014C448.16,429.059,454.22,334.319,413.18,347.302z"/>
<path fill-rule="evenodd" clip-rule="evenodd" fill="#D6F0FC" stroke="#000000" stroke-linecap="square" stroke-miterlimit="10" d="  M494.93,298.552c24.441-20.077,22.002-16.339,45.444,4.972c14.609,13.282-3.024,26.389-12.444,41.528  C516.93,329.552,505.93,314.052,494.93,298.552z"/>
<path fill-rule="evenodd" clip-rule="evenodd" fill="#D6F0FC" stroke="#000000" stroke-linecap="square" stroke-miterlimit="10" d="  M548.93,311.302c9,11,18,22,27,33c5.128-7.889,32.846-41.717,26.555-47.461C580.533,276.799,571.825,295.011,548.93,311.302z"/>
<path fill-rule="evenodd" clip-rule="evenodd" fill="#942923" stroke="#000000" stroke-linecap="square" stroke-miterlimit="10" d="  M531.68,342.802c7.166,7.121,17.167,10.533,26.625,6.75c22.621-9.048,0.521-25.284-9.375-38.25  C543.18,321.802,537.43,332.302,531.68,342.802z"/>
<path fill-rule="evenodd" clip-rule="evenodd" fill="#942923" stroke="#000000" stroke-linecap="square" stroke-miterlimit="10" d="  M537.68,348.052c-6.667,42.222-13.333,84.443-20,126.665c-7.644,48.409-0.979,52.196,29.75,92.333  c35.187-43.632,37.499-46.51,29.906-101.079C573.642,439.417,579.326,334.888,537.68,348.052z"/>
</svg>