<svg xmlns="http://www.w3.org/2000/svg" xmlns:xlink="http://www.w3.org/1999/xlink" version="1.1" id="Layer_1" x="0px" y="0px" enable-background="new 0 0 822.05 841.89" xml:space="preserve" viewBox="223.84 289.8 373.91 263.89">
<path fill-rule="evenodd" clip-rule="evenodd" fill="#FFDB78" stroke="#010101" stroke-width="1.25" stroke-linecap="square" stroke-miterlimit="10" d="  M428.375,468.768c26.332,19.366,6.519,40.899-11.999,53.25c-25.647,17.105,23.553,25.59,38.999,13.5  c32.521-25.453,23.612-48.202,21-78.75c-1.21-14.148,21.284-7.953,1.5-18.75C460.526,428.55,421.382,451.614,428.375,468.768z"/>
<path fill-rule="evenodd" clip-rule="evenodd" fill="#FFDB78" stroke="#010101" stroke-width="1.25" stroke-linecap="square" stroke-miterlimit="10" d="  M306.125,429.018c11.238,21.236,28.065,59.581,21.75,84c-6.011,23.241-30.454,31.253,9.556,34.111  C407.734,552.151,353.083,397.419,306.125,429.018z"/>
<path fill-rule="evenodd" clip-rule="evenodd" fill="#FFDB78" stroke="#010101" stroke-width="1.25" stroke-linecap="square" stroke-miterlimit="10" d="  M285.125,342.768c12.371-37.275,43.749-35.096,76.694-30.028c38.799,5.969,72.594-5.222,110.056-5.222  c86.622,0,52.188,100.088,96,139.5c-1.999,1.405-7.218,4.981-9,6c-9.381-15.035-21.029-25.774-25.5-43.5  c-4.234-16.787,1.578-33.653-8.25-48.75c-1.818,38.122-11.896,61.755,3.25,98.777c9.47,23.148,7.672,64.857-15.25,81.973  c-19.346,14.444-49.193,1.193-28.5-19.5c31.018-31.018-3.143-37.15-12.75-63.75c-14.067,11.878-30.172,20.557-48,25.5  c-30.016,8.323-22.797-6.762-33.75,29.25c-5.008,16.467-7.654,33.799-26.25,39c-11.92,3.334-25.014-1.606-27-10.5  c-0.962-4.307,16.644-13.314,14.25-28.875c-3.271-21.262-10.185-33.369-21.75-49.875  C305.208,428.277,276.488,387.742,285.125,342.768z"/>
<path fill-rule="evenodd" clip-rule="evenodd" fill="#F58020" stroke="#010101" stroke-width="1.25" stroke-linecap="square" stroke-miterlimit="10" d="  M567.875,447.018c10.98,3.988,21.832,8.378,29.25,17.25c-4.383-2.188-9.657-2.761-14.25-4.5c6.589,6.967,10.982,15.866,12.75,25.5  c-4.668-6.724-10.328-10.668-15.75-16.5c4.937,10.295,7.038,21.685,7.5,33c-5.354-9.887-9.646-20.113-15-30  c-1.881,8.894-5.572,14.619-9,22.5C562.687,479.805,552.798,452.282,567.875,447.018z"/>
<path fill="none" stroke="#010101" stroke-width="1.25" stroke-linecap="square" stroke-miterlimit="10" d="M499.625,488.268  c3,0.5,6,1,9,1.5"/>
<path fill="none" stroke="#010101" stroke-width="1.25" stroke-linecap="square" stroke-miterlimit="10" d="M471.875,458.268  c4.162-3.338,7.912-7.088,11.25-11.25"/>
<path fill="none" stroke="#010101" stroke-width="1.25" stroke-linecap="square" stroke-miterlimit="10" d="M397.625,482.268  c-4.655-2.218-9.156-4.719-13.5-7.5"/>
<path fill-rule="evenodd" clip-rule="evenodd" fill="#FFDB78" stroke="#010101" stroke-width="1.25" stroke-linecap="square" stroke-miterlimit="10" d="  M356.375,298.518c-5.218-1.325-9.26-5.827-15.75-1.5c-11.326,7.551-19.9-6-33.75-6c-24.9,0-43.507,14.36-60,21  c-7.071,2.847-32.537-7.555-18,14.25c7.174,10.761,14.543-1.24,11.25,16.875c-1.738,9.562,0.068,23.216,6,31.125  c17.251,23.002,58.339,58.821,78.75,18c8.619-17.237,26.265-16.67,28.5-42c1.022-11.582-2.315-27.282-1.5-33.75  C352.726,309.768,356.805,307.15,356.375,298.518z"/>
<path fill="none" stroke="#010101" stroke-width="1.25" stroke-linecap="square" stroke-miterlimit="10" d="M279.125,337.518  C277.125,337.518,277.125,337.518,279.125,337.518L279.125,337.518z"/>
<path fill="none" stroke="#010101" stroke-width="1.25" stroke-linecap="square" stroke-miterlimit="10" d="M280.625,339.018  C277.739,339.716,276.909,339.917,280.625,339.018L280.625,339.018z"/>
<path fill="none" stroke="#010101" stroke-width="1.25" stroke-linecap="square" stroke-miterlimit="10" d="M280.625,339.018  C277.337,340.792,279.342,339.71,280.625,339.018L280.625,339.018z"/>
<path fill="none" stroke="#010101" stroke-width="1.25" stroke-linecap="square" stroke-miterlimit="10" d="M282.125,337.518  c-2.925,1.008-1.869,5.61-6,1.5C278.816,334.363,280.18,338.188,282.125,337.518z"/>
<path fill="none" stroke="#010101" stroke-width="1.25" stroke-linecap="square" stroke-miterlimit="10" d="M280.625,337.518  c-1.883,0.857-0.666,5.283-4.5,1.5C278.354,335.836,281.199,337.257,280.625,337.518z"/>
<path fill="none" stroke="#010101" stroke-width="1.25" stroke-linecap="square" stroke-miterlimit="10" d="M279.125,339.018  C279.125,341.018,279.125,341.018,279.125,339.018L279.125,339.018z"/>
<path fill="none" stroke="#010101" stroke-width="1.25" stroke-linecap="square" stroke-miterlimit="10" d="M280.625,339.018  C277.226,339.018,277.226,339.018,280.625,339.018L280.625,339.018z"/>
<path fill="none" stroke="#010101" stroke-width="1.25" stroke-linecap="square" stroke-miterlimit="10" d="M280.625,339.018  C277.226,339.018,277.226,339.018,280.625,339.018L280.625,339.018z"/>
<path fill="none" stroke="#010101" stroke-width="1.25" stroke-linecap="square" stroke-miterlimit="10" d="M280.625,339.018  C277.226,339.018,277.226,339.018,280.625,339.018L280.625,339.018z"/>
<path fill="none" stroke="#010101" stroke-width="1.25" stroke-linecap="square" stroke-miterlimit="10" d="M280.625,339.018  C277.331,339.018,277.331,339.018,280.625,339.018L280.625,339.018z"/>
<path fill="none" stroke="#010101" stroke-width="1.25" stroke-linecap="square" stroke-miterlimit="10" d="M280.625,339.018  C277.331,339.018,277.331,339.018,280.625,339.018L280.625,339.018z"/>
<path fill="none" stroke="#010101" stroke-width="1.25" stroke-linecap="square" stroke-miterlimit="10" d="M280.625,339.018  C277.739,339.716,276.909,339.917,280.625,339.018L280.625,339.018z"/>
<path fill="none" stroke="#010101" stroke-width="1.25" stroke-linecap="square" stroke-miterlimit="10" d="M280.625,339.018  C277.337,340.792,279.342,339.71,280.625,339.018L280.625,339.018z"/>
<path fill="none" stroke="#010101" stroke-width="1.25" stroke-linecap="square" stroke-miterlimit="10" d="M280.625,339.018  C278.625,339.018,278.625,339.018,280.625,339.018L280.625,339.018z"/>
<path fill="none" stroke="#010101" stroke-width="1.25" stroke-linecap="square" stroke-miterlimit="10" d="M282.125,339.018  c-2.665-0.189-2.85,3.527-6,0C279.393,333.636,279.049,338.8,282.125,339.018z"/>
<path fill="none" stroke="#010101" stroke-width="1.25" stroke-linecap="square" stroke-miterlimit="10" d="M280.625,337.518  C275.479,340.729,278.559,338.807,280.625,337.518L280.625,337.518z"/>
<path fill="none" stroke="#010101" stroke-width="1.25" stroke-linecap="square" stroke-miterlimit="10" d="M279.125,339.018  L279.125,339.018z"/>
<path fill="none" stroke="#010101" stroke-width="1.25" stroke-linecap="square" stroke-miterlimit="10" d="M280.625,339.018  C277.226,339.018,277.226,339.018,280.625,339.018L280.625,339.018z"/>
<path fill="none" stroke="#010101" stroke-width="1.25" stroke-linecap="square" stroke-miterlimit="10" d="M280.625,339.018  C277.226,339.018,277.226,339.018,280.625,339.018L280.625,339.018z"/>
<path fill="none" stroke="#010101" stroke-width="1.25" stroke-linecap="square" stroke-miterlimit="10" d="M280.625,339.018  C277.331,339.018,277.331,339.018,280.625,339.018L280.625,339.018z"/>
<path fill="none" stroke="#010101" stroke-width="1.25" stroke-linecap="square" stroke-miterlimit="10" d="M280.625,339.018  C277.331,339.018,277.331,339.018,280.625,339.018L280.625,339.018z"/>
<path fill="none" stroke="#010101" stroke-width="1.25" stroke-linecap="square" stroke-miterlimit="10" d="M280.625,339.018  C277.331,339.018,277.331,339.018,280.625,339.018L280.625,339.018z"/>
<path fill="none" stroke="#010101" stroke-width="1.25" stroke-linecap="square" stroke-miterlimit="10" d="M280.625,339.018  C277.337,340.792,279.342,339.71,280.625,339.018L280.625,339.018z"/>
<path fill="none" stroke="#010101" stroke-width="1.25" stroke-linecap="square" stroke-miterlimit="10" d="M280.625,339.018  C278.625,339.018,278.625,339.018,280.625,339.018L280.625,339.018z"/>
<path fill="none" stroke="#010101" stroke-width="1.25" stroke-linecap="square" stroke-miterlimit="10" d="M280.625,339.018  C278.625,339.018,278.625,339.018,280.625,339.018L280.625,339.018z"/>
<path fill="none" stroke="#010101" stroke-width="1.25" stroke-linecap="square" stroke-miterlimit="10" d="M280.625,339.018  C277.226,339.018,277.226,339.018,280.625,339.018L280.625,339.018z"/>
<path fill="none" stroke="#010101" stroke-width="1.25" stroke-linecap="square" stroke-miterlimit="10" d="M280.625,339.018  C275.744,338.52,278.237,338.774,280.625,339.018L280.625,339.018z"/>
<path fill="none" stroke="#010101" stroke-width="1.25" stroke-linecap="square" stroke-miterlimit="10" d="M279.125,339.018  L279.125,339.018z"/>
<path fill="none" stroke="#010101" stroke-width="1.25" stroke-linecap="square" stroke-miterlimit="10" d="M280.625,339.018  C277.331,339.018,277.331,339.018,280.625,339.018L280.625,339.018z"/>
<path fill="none" stroke="#010101" stroke-width="1.25" stroke-linecap="square" stroke-miterlimit="10" d="M280.625,339.018  C277.331,339.018,277.331,339.018,280.625,339.018L280.625,339.018z"/>
<path fill="none" stroke="#010101" stroke-width="1.25" stroke-linecap="square" stroke-miterlimit="10" d="M280.625,339.018  C277.331,339.018,277.331,339.018,280.625,339.018L280.625,339.018z"/>
<path fill="none" stroke="#010101" stroke-width="1.25" stroke-linecap="square" stroke-miterlimit="10" d="M280.625,339.018  C279.342,338.326,277.337,337.244,280.625,339.018L280.625,339.018z"/>
<path fill="none" stroke="#010101" stroke-width="1.25" stroke-linecap="square" stroke-miterlimit="10" d="M280.625,339.018  C278.625,339.018,278.625,339.018,280.625,339.018L280.625,339.018z"/>
<path fill="none" stroke="#010101" stroke-width="1.25" stroke-linecap="square" stroke-miterlimit="10" d="M280.625,339.018  C278.625,339.018,278.625,339.018,280.625,339.018L280.625,339.018z"/>
<path fill="none" stroke="#010101" stroke-width="1.25" stroke-linecap="square" stroke-miterlimit="10" d="M280.625,339.018  C278.625,339.018,278.625,339.018,280.625,339.018L280.625,339.018z"/>
<path fill="none" stroke="#010101" stroke-width="1.25" stroke-linecap="square" stroke-miterlimit="10" d="M280.625,339.018  C278.625,339.018,278.625,339.018,280.625,339.018L280.625,339.018z"/>
<path fill="none" stroke="#010101" stroke-width="1.25" stroke-linecap="square" stroke-miterlimit="10" d="M280.625,339.018  C278.385,339.018,278.385,339.018,280.625,339.018L280.625,339.018z"/>
<path fill="none" stroke="#010101" stroke-width="1.25" stroke-linecap="square" stroke-miterlimit="10" d="M280.625,339.018  C279.342,338.326,277.337,337.244,280.625,339.018L280.625,339.018z"/>
<path fill="none" stroke="#010101" stroke-width="1.25" stroke-linecap="square" stroke-miterlimit="10" d="M279.125,339.018  L279.125,339.018z"/>
<path fill="none" stroke="#010101" stroke-width="1.25" stroke-linecap="square" stroke-miterlimit="10" d="M280.625,339.018  C279.342,338.326,277.337,337.244,280.625,339.018L280.625,339.018z"/>
<path fill="none" stroke="#010101" stroke-width="1.25" stroke-linecap="square" stroke-miterlimit="10" d="M280.625,339.018  C278.625,339.018,278.625,339.018,280.625,339.018L280.625,339.018z"/>
<path fill="none" stroke="#010101" stroke-width="1.25" stroke-linecap="square" stroke-miterlimit="10" d="M280.625,339.018  C278.625,339.018,278.625,339.018,280.625,339.018L280.625,339.018z"/>
<path fill="none" stroke="#010101" stroke-width="1.25" stroke-linecap="square" stroke-miterlimit="10" d="M280.625,339.018  C278.625,339.018,278.625,339.018,280.625,339.018L280.625,339.018z"/>
<path fill="none" stroke="#010101" stroke-width="1.25" stroke-linecap="square" stroke-miterlimit="10" d="M280.625,339.018  C278.625,339.018,278.625,339.018,280.625,339.018L280.625,339.018z"/>
<path fill="none" stroke="#010101" stroke-width="1.25" stroke-linecap="square" stroke-miterlimit="10" d="M280.625,339.018  C278.625,339.018,278.625,339.018,280.625,339.018L280.625,339.018z"/>
<path fill="none" stroke="#010101" stroke-width="1.25" stroke-linecap="square" stroke-miterlimit="10" d="M279.125,337.518  L279.125,337.518z"/>
<path fill="none" stroke="#010101" stroke-width="1.25" stroke-linecap="square" stroke-miterlimit="10" d="M279.125,337.518  L279.125,337.518z"/>
<path fill="none" stroke="#010101" stroke-width="1.25" stroke-linecap="square" stroke-miterlimit="10" d="M280.625,337.518  C277.331,337.518,277.331,337.518,280.625,337.518L280.625,337.518z"/>
<path fill="none" stroke="#010101" stroke-width="1.25" stroke-linecap="square" stroke-miterlimit="10" d="M279.125,337.518  C278.051,337.518,278.051,337.518,279.125,337.518L279.125,337.518z"/>
<path fill="none" stroke="#010101" stroke-width="1.25" stroke-linecap="square" stroke-miterlimit="10" d="M279.125,337.518  L279.125,337.518z"/>
<path fill="none" stroke="#010101" stroke-width="1.25" stroke-linecap="square" stroke-miterlimit="10" d="M279.125,337.518  C278.051,337.518,278.051,337.518,279.125,337.518L279.125,337.518z"/>
<path fill="none" stroke="#010101" stroke-width="1.25" stroke-linecap="square" stroke-miterlimit="10" d="M279.125,337.518  C277.918,338.725,277.918,338.725,279.125,337.518L279.125,337.518z"/>
<path fill="none" stroke="#010101" stroke-width="1.25" stroke-linecap="square" stroke-miterlimit="10" d="M279.125,337.518  C277.918,338.725,277.918,338.725,279.125,337.518L279.125,337.518z"/>
<path fill="none" stroke="#010101" stroke-width="1.25" stroke-linecap="square" stroke-miterlimit="10" d="M279.125,337.518  C277.125,337.518,277.125,337.518,279.125,337.518L279.125,337.518z"/>
<path fill="none" stroke="#010101" stroke-width="1.25" stroke-linecap="square" stroke-miterlimit="10" d="M279.125,337.518  C277.125,337.518,277.125,337.518,279.125,337.518L279.125,337.518z"/>
<path fill="none" stroke="#010101" stroke-width="1.25" stroke-linecap="square" stroke-miterlimit="10" d="M279.125,337.518  L279.125,337.518z"/>
<path fill="none" stroke="#010101" stroke-width="1.25" stroke-linecap="square" stroke-miterlimit="10" d="M279.125,337.518  L279.125,337.518z"/>
<path fill="none" stroke="#010101" stroke-width="1.25" stroke-linecap="square" stroke-miterlimit="10" d="M279.125,337.518  L279.125,337.518z"/>
<path fill="none" stroke="#010101" stroke-width="1.25" stroke-linecap="square" stroke-miterlimit="10" d="M280.625,337.518  C277.331,337.518,277.331,337.518,280.625,337.518L280.625,337.518z"/>
<path fill="none" stroke="#010101" stroke-width="1.25" stroke-linecap="square" stroke-miterlimit="10" d="M279.125,337.518  C278.051,337.518,278.051,337.518,279.125,337.518L279.125,337.518z"/>
<path fill="none" stroke="#010101" stroke-width="1.25" stroke-linecap="square" stroke-miterlimit="10" d="M279.125,337.518  L279.125,337.518z"/>
<path fill="none" stroke="#010101" stroke-width="1.25" stroke-linecap="square" stroke-miterlimit="10" d="M279.125,337.518  C277.918,338.725,277.918,338.725,279.125,337.518L279.125,337.518z"/>
<path fill="none" stroke="#010101" stroke-width="1.25" stroke-linecap="square" stroke-miterlimit="10" d="M279.125,337.518  C277.918,338.725,277.918,338.725,279.125,337.518L279.125,337.518z"/>
<path fill="none" stroke="#010101" stroke-width="1.25" stroke-linecap="square" stroke-miterlimit="10" d="M279.125,337.518  C277.918,338.725,277.918,338.725,279.125,337.518L279.125,337.518z"/>
<path fill="none" stroke="#010101" stroke-width="1.25" stroke-linecap="square" stroke-miterlimit="10" d="M279.125,337.518  C277.125,337.518,277.125,337.518,279.125,337.518L279.125,337.518z"/>
<path fill="none" stroke="#010101" stroke-width="1.25" stroke-linecap="square" stroke-miterlimit="10" d="M279.125,337.518  C277.125,337.518,277.125,337.518,279.125,337.518L279.125,337.518z"/>
<path fill="none" stroke="#010101" stroke-width="1.25" stroke-linecap="square" stroke-miterlimit="10" d="M279.125,337.518  L279.125,337.518z"/>
<path fill="none" stroke="#010101" stroke-width="1.25" stroke-linecap="square" stroke-miterlimit="10" d="M279.125,337.518  L279.125,337.518z"/>
<path fill="none" stroke="#010101" stroke-width="1.25" stroke-linecap="square" stroke-miterlimit="10" d="M279.125,337.518  L279.125,337.518z"/>
<path fill="none" stroke="#010101" stroke-width="1.25" stroke-linecap="square" stroke-miterlimit="10" d="M279.125,337.518  C278.051,337.518,278.051,337.518,279.125,337.518L279.125,337.518z"/>
<path fill="none" stroke="#010101" stroke-width="1.25" stroke-linecap="square" stroke-miterlimit="10" d="M279.125,337.518  C277.918,338.725,277.918,338.725,279.125,337.518L279.125,337.518z"/>
<path fill="none" stroke="#010101" stroke-width="1.25" stroke-linecap="square" stroke-miterlimit="10" d="M279.125,337.518  L279.125,337.518z"/>
<path fill="none" stroke="#010101" stroke-width="1.25" stroke-linecap="square" stroke-miterlimit="10" d="M279.125,337.518  C277.918,338.725,277.918,338.725,279.125,337.518L279.125,337.518z"/>
<path fill="none" stroke="#010101" stroke-width="1.25" stroke-linecap="square" stroke-miterlimit="10" d="M279.125,337.518  C277.918,338.725,277.918,338.725,279.125,337.518L279.125,337.518z"/>
<path fill="none" stroke="#010101" stroke-width="1.25" stroke-linecap="square" stroke-miterlimit="10" d="M279.125,337.518  C277.125,337.518,277.125,337.518,279.125,337.518L279.125,337.518z"/>
<path fill="none" stroke="#010101" stroke-width="1.25" stroke-linecap="square" stroke-miterlimit="10" d="M279.125,337.518  L279.125,337.518z"/>
<path fill="none" stroke="#010101" stroke-width="1.25" stroke-linecap="square" stroke-miterlimit="10" d="M279.125,337.518  L279.125,337.518z"/>
<path fill="none" stroke="#010101" stroke-width="1.25" stroke-linecap="square" stroke-miterlimit="10" d="M279.125,337.518  L279.125,337.518z"/>
<path fill="none" stroke="#010101" stroke-width="1.25" stroke-linecap="square" stroke-miterlimit="10" d="M279.125,337.518  L279.125,337.518z"/>
<path fill="none" stroke="#010101" stroke-width="1.25" stroke-linecap="square" stroke-miterlimit="10" d="M279.125,337.518  L279.125,337.518z"/>
<path fill="none" stroke="#010101" stroke-width="1.25" stroke-linecap="square" stroke-miterlimit="10" d="M279.125,337.518  L279.125,337.518z"/>
<path fill="none" stroke="#010101" stroke-width="1.25" stroke-linecap="square" stroke-miterlimit="10" d="M279.125,337.518  L279.125,337.518z"/>
<path fill="none" stroke="#010101" stroke-width="1.25" stroke-linecap="square" stroke-miterlimit="10" d="M279.125,337.518  L279.125,337.518z"/>
<path fill="none" stroke="#010101" stroke-width="1.25" stroke-linecap="square" stroke-miterlimit="10" d="M279.125,337.518  L279.125,337.518z"/>
<path fill="none" stroke="#010101" stroke-width="1.25" stroke-linecap="square" stroke-miterlimit="10" d="M279.125,337.518  L279.125,337.518z"/>
<path fill="none" stroke="#010101" stroke-width="1.25" stroke-linecap="square" stroke-miterlimit="10" d="M279.125,337.518  L279.125,337.518z"/>
<path fill="none" stroke="#010101" stroke-width="1.25" stroke-linecap="square" stroke-miterlimit="10" d="M279.125,337.518  L279.125,337.518z"/>
<path fill="none" stroke="#010101" stroke-width="1.25" stroke-linecap="square" stroke-miterlimit="10" d="M279.125,337.518  L279.125,337.518z"/>
<path fill="none" stroke="#010101" stroke-width="1.25" stroke-linecap="square" stroke-miterlimit="10" d="M279.125,337.518  L279.125,337.518z"/>
<path fill="none" stroke="#010101" stroke-width="1.25" stroke-linecap="square" stroke-miterlimit="10" d="M273.125,337.518  c3.25-1.574,6.831-2.061,10.5-1.5"/>
<path fill-rule="evenodd" clip-rule="evenodd" fill="#F3DBB0" stroke="#010101" stroke-width="1.25" stroke-linecap="square" stroke-miterlimit="10" d="  M336.875,365.268c-7.921-9.689-20.825-13.117-31.5-6c-10.742,7.162-26.619-7.331-38.25,1.5c-25.969,19.717,18.688,45.488,33,9  C309.565,388.767,347.351,393.072,336.875,365.268z"/>
<path fill-rule="evenodd" clip-rule="evenodd" fill="#F6CB99" stroke="#010101" stroke-width="1.25" stroke-linecap="square" stroke-miterlimit="10" d="  M297.125,350.268C331.38,353.875,266.175,367.472,297.125,350.268L297.125,350.268z"/>
<path fill="none" stroke="#010101" stroke-width="1.25" stroke-linecap="square" stroke-miterlimit="10" d="M324.875,366.768  C324.875,368.768,324.875,368.768,324.875,366.768L324.875,366.768z"/>
<path fill="none" stroke="#010101" stroke-width="1.25" stroke-linecap="square" stroke-miterlimit="10" d="M315.875,372.768  C314.668,371.561,314.668,371.561,315.875,372.768L315.875,372.768z"/>
<path fill="none" stroke="#010101" stroke-width="1.25" stroke-linecap="square" stroke-miterlimit="10" d="M291.125,375.768  C289.918,376.975,289.918,376.975,291.125,375.768L291.125,375.768z"/>
<path fill="none" stroke="#010101" stroke-width="1.25" stroke-linecap="square" stroke-miterlimit="10" d="M283.625,378.768  C282.418,379.975,282.418,379.975,283.625,378.768L283.625,378.768z"/>
<path fill="none" stroke="#010101" stroke-width="1.25" stroke-linecap="square" stroke-miterlimit="10" d="M279.125,375.768  L279.125,375.768z"/>
<path fill="none" stroke="#010101" stroke-width="1.25" stroke-linecap="square" stroke-miterlimit="10" d="M286.625,372.768  C285.342,372.076,283.337,370.994,286.625,372.768L286.625,372.768z"/>
<path fill="none" stroke="#010101" stroke-width="1.25" stroke-linecap="square" stroke-miterlimit="10" d="M321.875,372.768  L321.875,372.768z"/>
<path fill="none" stroke="#010101" stroke-width="1.25" stroke-linecap="square" stroke-miterlimit="10" d="M327.875,374.268  C324.587,376.042,326.592,374.96,327.875,374.268L327.875,374.268z"/>
<path fill="none" stroke="#010101" stroke-width="1.25" stroke-linecap="square" stroke-miterlimit="10" d="M245.375,327.018  c-4.098-4.009-9.643-6.52-13.5-6"/>
<path fill="none" stroke="#010101" stroke-width="1.25" stroke-linecap="square" stroke-miterlimit="10" d="M341.375,310.518  c3.08-4.842,7.353-6.918,12-4.5"/>
<path fill="none" stroke="#010101" stroke-width="1.25" stroke-linecap="square" stroke-miterlimit="10" d="M288.125,384.768  c7.416,5.771,15.889,4.591,22.5-3"/>
<path fill="none" stroke="#010101" stroke-width="1.25" stroke-linecap="square" stroke-miterlimit="10" d="M312.875,333.018  C316.163,334.792,314.158,333.71,312.875,333.018L312.875,333.018z"/>
<path fill="none" stroke="#010101" stroke-width="1.25" stroke-linecap="square" stroke-miterlimit="10" d="M312.875,336.018  C314.082,334.811,314.082,334.811,312.875,336.018L312.875,336.018z"/>
<path fill="none" stroke="#010101" stroke-width="1.25" stroke-linecap="square" stroke-miterlimit="10" d="M312.875,336.018  C314.082,334.811,314.082,334.811,312.875,336.018L312.875,336.018z"/>
<path fill="none" stroke="#010101" stroke-width="1.25" stroke-linecap="square" stroke-miterlimit="10" d="M312.125,336.018  c-0.312,0.182,2.532,2.814,3.75-1.5C311.298,330.166,313.898,334.988,312.125,336.018z"/>
<path fill="none" stroke="#010101" stroke-width="1.25" stroke-linecap="square" stroke-miterlimit="10" d="M312.125,334.518  C317.964,335.546,314.388,334.917,312.125,334.518L312.125,334.518z"/>
<path fill="none" stroke="#010101" stroke-width="1.25" stroke-linecap="square" stroke-miterlimit="10" d="M314.375,336.018  C312.375,336.018,312.375,336.018,314.375,336.018L314.375,336.018z"/>
<path fill="none" stroke="#010101" stroke-width="1.25" stroke-linecap="square" stroke-miterlimit="10" d="M312.125,336.018  C313.191,335.279,317.425,332.346,312.125,336.018L312.125,336.018z"/>
<path fill="none" stroke="#010101" stroke-width="1.25" stroke-linecap="square" stroke-miterlimit="10" d="M312.125,336.018  C313.995,335.007,316.636,333.579,312.125,336.018L312.125,336.018z"/>
<path fill="none" stroke="#010101" stroke-width="1.25" stroke-linecap="square" stroke-miterlimit="10" d="M312.125,336.018  C313.448,335.5,315.282,334.782,312.125,336.018L312.125,336.018z"/>
<path fill="none" stroke="#010101" stroke-width="1.25" stroke-linecap="square" stroke-miterlimit="10" d="M312.875,336.018  C314.649,332.73,313.567,334.735,312.875,336.018L312.875,336.018z"/>
<path fill="none" stroke="#010101" stroke-width="1.25" stroke-linecap="square" stroke-miterlimit="10" d="M312.875,336.018  C314.082,334.811,314.082,334.811,312.875,336.018L312.875,336.018z"/>
<path fill="none" stroke="#010101" stroke-width="1.25" stroke-linecap="square" stroke-miterlimit="10" d="M312.875,336.018  C314.082,334.811,314.082,334.811,312.875,336.018L312.875,336.018z"/>
<path fill="none" stroke="#010101" stroke-width="1.25" stroke-linecap="square" stroke-miterlimit="10" d="M312.875,336.018  C314.082,334.811,314.082,334.811,312.875,336.018L312.875,336.018z"/>
<path fill="none" stroke="#010101" stroke-width="1.25" stroke-linecap="square" stroke-miterlimit="10" d="M312.875,336.018  C314.082,334.811,314.082,334.811,312.875,336.018L312.875,336.018z"/>
<path fill="none" stroke="#010101" stroke-width="1.25" stroke-linecap="square" stroke-miterlimit="10" d="M312.125,336.018  C312.323,335.892,318.071,332.231,312.125,336.018L312.125,336.018z"/>
<path fill="none" stroke="#010101" stroke-width="1.25" stroke-linecap="square" stroke-miterlimit="10" d="M312.125,334.518  C315.854,334.518,315.854,334.518,312.125,334.518L312.125,334.518z"/>
<path fill="none" stroke="#010101" stroke-width="1.25" stroke-linecap="square" stroke-miterlimit="10" d="M314.375,336.018  C312.375,336.018,312.375,336.018,314.375,336.018L314.375,336.018z"/>
<path fill="none" stroke="#010101" stroke-width="1.25" stroke-linecap="square" stroke-miterlimit="10" d="M312.125,336.018  C312.669,335.666,316.224,333.364,312.125,336.018L312.125,336.018z"/>
<path fill="none" stroke="#010101" stroke-width="1.25" stroke-linecap="square" stroke-miterlimit="10" d="M312.125,336.018  C313.448,335.5,315.282,334.782,312.125,336.018L312.125,336.018z"/>
<path fill="none" stroke="#010101" stroke-width="1.25" stroke-linecap="square" stroke-miterlimit="10" d="M312.125,336.018  C314.373,334.106,314.502,333.996,312.125,336.018L312.125,336.018z"/>
<path fill="none" stroke="#010101" stroke-width="1.25" stroke-linecap="square" stroke-miterlimit="10" d="M312.875,336.018  C314.649,332.73,313.567,334.735,312.875,336.018L312.875,336.018z"/>
<path fill="none" stroke="#010101" stroke-width="1.25" stroke-linecap="square" stroke-miterlimit="10" d="M312.875,336.018  C314.082,334.811,314.082,334.811,312.875,336.018L312.875,336.018z"/>
<path fill="none" stroke="#010101" stroke-width="1.25" stroke-linecap="square" stroke-miterlimit="10" d="M312.875,336.018  C314.082,334.811,314.082,334.811,312.875,336.018L312.875,336.018z"/>
<path fill="none" stroke="#010101" stroke-width="1.25" stroke-linecap="square" stroke-miterlimit="10" d="M312.875,336.018  C314.082,334.811,314.082,334.811,312.875,336.018L312.875,336.018z"/>
<path fill="none" stroke="#010101" stroke-width="1.25" stroke-linecap="square" stroke-miterlimit="10" d="M312.875,336.018  L312.875,336.018z"/>
<path fill="none" stroke="#010101" stroke-width="1.25" stroke-linecap="square" stroke-miterlimit="10" d="M312.125,336.018  C312.694,335.598,316.18,333.024,312.125,336.018L312.125,336.018z"/>
<path fill="none" stroke="#010101" stroke-width="1.25" stroke-linecap="square" stroke-miterlimit="10" d="M312.125,336.018  C314.153,333.887,314.779,333.229,312.125,336.018L312.125,336.018z"/>
<path fill="none" stroke="#010101" stroke-width="1.25" stroke-linecap="square" stroke-miterlimit="10" d="M314.375,336.018  C312.375,336.018,312.375,336.018,314.375,336.018L314.375,336.018z"/>
<path fill="none" stroke="#010101" stroke-width="1.25" stroke-linecap="square" stroke-miterlimit="10" d="M312.125,336.018  C314.373,334.106,314.502,333.996,312.125,336.018L312.125,336.018z"/>
<path fill="none" stroke="#010101" stroke-width="1.25" stroke-linecap="square" stroke-miterlimit="10" d="M312.125,336.018  C314.373,334.106,314.502,333.996,312.125,336.018L312.125,336.018z"/>
<path fill="none" stroke="#010101" stroke-width="1.25" stroke-linecap="square" stroke-miterlimit="10" d="M312.125,336.018  C314.373,334.106,314.502,333.996,312.125,336.018L312.125,336.018z"/>
<path fill="none" stroke="#010101" stroke-width="1.25" stroke-linecap="square" stroke-miterlimit="10" d="M312.875,336.018  C314.082,334.811,314.082,334.811,312.875,336.018L312.875,336.018z"/>
<path fill="none" stroke="#010101" stroke-width="1.25" stroke-linecap="square" stroke-miterlimit="10" d="M312.875,336.018  C314.082,334.811,314.082,334.811,312.875,336.018L312.875,336.018z"/>
<path fill="none" stroke="#010101" stroke-width="1.25" stroke-linecap="square" stroke-miterlimit="10" d="M312.875,336.018  C314.082,334.811,314.082,334.811,312.875,336.018L312.875,336.018z"/>
<path fill="none" stroke="#010101" stroke-width="1.25" stroke-linecap="square" stroke-miterlimit="10" d="M312.875,336.018  L312.875,336.018z"/>
<path fill="none" stroke="#010101" stroke-width="1.25" stroke-linecap="square" stroke-miterlimit="10" d="M312.875,336.018  L312.875,336.018z"/>
<path fill="none" stroke="#010101" stroke-width="1.25" stroke-linecap="square" stroke-miterlimit="10" d="M312.125,336.018  C315.028,334.866,313.909,335.31,312.125,336.018L312.125,336.018z"/>
<path fill="none" stroke="#010101" stroke-width="1.25" stroke-linecap="square" stroke-miterlimit="10" d="M312.125,336.018  C314.373,334.106,314.502,333.996,312.125,336.018L312.125,336.018z"/>
<path fill="none" stroke="#010101" stroke-width="1.25" stroke-linecap="square" stroke-miterlimit="10" d="M312.875,336.018  L312.875,336.018z"/>
<path fill="none" stroke="#010101" stroke-width="1.25" stroke-linecap="square" stroke-miterlimit="10" d="M312.125,336.018  C315.028,334.866,313.909,335.31,312.125,336.018L312.125,336.018z"/>
<path fill="none" stroke="#010101" stroke-width="1.25" stroke-linecap="square" stroke-miterlimit="10" d="M312.875,336.018  C314.082,334.811,314.082,334.811,312.875,336.018L312.875,336.018z"/>
<path fill="none" stroke="#010101" stroke-width="1.25" stroke-linecap="square" stroke-miterlimit="10" d="M312.875,336.018  C312.875,334.018,312.875,334.018,312.875,336.018L312.875,336.018z"/>
<path fill="none" stroke="#010101" stroke-width="1.25" stroke-linecap="square" stroke-miterlimit="10" d="M312.875,336.018  C312.875,334.018,312.875,334.018,312.875,336.018L312.875,336.018z"/>
<path fill="none" stroke="#010101" stroke-width="1.25" stroke-linecap="square" stroke-miterlimit="10" d="M312.875,336.018  C312.875,334.018,312.875,334.018,312.875,336.018L312.875,336.018z"/>
<path fill="none" stroke="#010101" stroke-width="1.25" stroke-linecap="square" stroke-miterlimit="10" d="M312.875,336.018  L312.875,336.018z"/>
<path fill="none" stroke="#010101" stroke-width="1.25" stroke-linecap="square" stroke-miterlimit="10" d="M312.875,334.518  C314.875,334.518,314.875,334.518,312.875,334.518L312.875,334.518z"/>
<path fill="none" stroke="#010101" stroke-width="1.25" stroke-linecap="square" stroke-miterlimit="10" d="M312.875,334.518  L312.875,334.518z"/>
<path fill="none" stroke="#010101" stroke-width="1.25" stroke-linecap="square" stroke-miterlimit="10" d="M312.125,334.518  C315.028,333.366,313.909,333.81,312.125,334.518L312.125,334.518z"/>
<path fill="none" stroke="#010101" stroke-width="1.25" stroke-linecap="square" stroke-miterlimit="10" d="M312.875,334.518  C314.649,331.23,313.567,333.235,312.875,334.518L312.875,334.518z"/>
<path fill="none" stroke="#010101" stroke-width="1.25" stroke-linecap="square" stroke-miterlimit="10" d="M314.375,334.518  C312.375,334.518,312.375,334.518,314.375,334.518L314.375,334.518z"/>
<path fill="none" stroke="#010101" stroke-width="1.25" stroke-linecap="square" stroke-miterlimit="10" d="M312.875,334.518  C314.082,333.311,314.082,333.311,312.875,334.518L312.875,334.518z"/>
<path fill="none" stroke="#010101" stroke-width="1.25" stroke-linecap="square" stroke-miterlimit="10" d="M312.875,334.518  C314.082,333.311,314.082,333.311,312.875,334.518L312.875,334.518z"/>
<path fill="none" stroke="#010101" stroke-width="1.25" stroke-linecap="square" stroke-miterlimit="10" d="M312.875,334.518  C314.082,333.311,314.082,333.311,312.875,334.518L312.875,334.518z"/>
<path fill="none" stroke="#010101" stroke-width="1.25" stroke-linecap="square" stroke-miterlimit="10" d="M312.875,334.518  C314.082,333.311,314.082,333.311,312.875,334.518L312.875,334.518z"/>
<path fill="none" stroke="#010101" stroke-width="1.25" stroke-linecap="square" stroke-miterlimit="10" d="M312.875,334.518  C314.082,333.311,314.082,333.311,312.875,334.518L312.875,334.518z"/>
<path fill="none" stroke="#010101" stroke-width="1.25" stroke-linecap="square" stroke-miterlimit="10" d="M312.875,334.518  C314.875,334.518,314.875,334.518,312.875,334.518L312.875,334.518z"/>
<path fill="none" stroke="#010101" stroke-width="1.25" stroke-linecap="square" stroke-miterlimit="10" d="M312.875,334.518  C314.875,334.518,314.875,334.518,312.875,334.518L312.875,334.518z"/>
<path fill="none" stroke="#010101" stroke-width="1.25" stroke-linecap="square" stroke-miterlimit="10" d="M312.875,334.518  L312.875,334.518z"/>
<path fill="none" stroke="#010101" stroke-width="1.25" stroke-linecap="square" stroke-miterlimit="10" d="M312.875,334.518  C314.082,333.311,314.082,333.311,312.875,334.518L312.875,334.518z"/>
<path fill="none" stroke="#010101" stroke-width="1.25" stroke-linecap="square" stroke-miterlimit="10" d="M312.875,334.518  C314.082,333.311,314.082,333.311,312.875,334.518L312.875,334.518z"/>
<path fill="none" stroke="#010101" stroke-width="1.25" stroke-linecap="square" stroke-miterlimit="10" d="M312.875,334.518  L312.875,334.518z"/>
<path fill="none" stroke="#010101" stroke-width="1.25" stroke-linecap="square" stroke-miterlimit="10" d="M312.875,334.518  C314.082,333.311,314.082,333.311,312.875,334.518L312.875,334.518z"/>
<path fill="none" stroke="#010101" stroke-width="1.25" stroke-linecap="square" stroke-miterlimit="10" d="M312.875,334.518  C314.082,333.311,314.082,333.311,312.875,334.518L312.875,334.518z"/>
<path fill="none" stroke="#010101" stroke-width="1.25" stroke-linecap="square" stroke-miterlimit="10" d="M312.875,334.518  C314.082,333.311,314.082,333.311,312.875,334.518L312.875,334.518z"/>
<path fill="none" stroke="#010101" stroke-width="1.25" stroke-linecap="square" stroke-miterlimit="10" d="M312.875,334.518  C314.082,333.311,314.082,333.311,312.875,334.518L312.875,334.518z"/>
<path fill="none" stroke="#010101" stroke-width="1.25" stroke-linecap="square" stroke-miterlimit="10" d="M312.875,334.518  C314.875,334.518,314.875,334.518,312.875,334.518L312.875,334.518z"/>
<path fill="none" stroke="#010101" stroke-width="1.25" stroke-linecap="square" stroke-miterlimit="10" d="M312.875,334.518  C314.875,334.518,314.875,334.518,312.875,334.518L312.875,334.518z"/>
<path fill="none" stroke="#010101" stroke-width="1.25" stroke-linecap="square" stroke-miterlimit="10" d="M312.875,334.518  L312.875,334.518z"/>
<path fill="none" stroke="#010101" stroke-width="1.25" stroke-linecap="square" stroke-miterlimit="10" d="M312.875,334.518  L312.875,334.518z"/>
<path fill="none" stroke="#010101" stroke-width="1.25" stroke-linecap="square" stroke-miterlimit="10" d="M312.875,334.518  C314.082,333.311,314.082,333.311,312.875,334.518L312.875,334.518z"/>
<path fill="none" stroke="#010101" stroke-width="1.25" stroke-linecap="square" stroke-miterlimit="10" d="M312.875,334.518  C314.082,333.311,314.082,333.311,312.875,334.518L312.875,334.518z"/>
<path fill="none" stroke="#010101" stroke-width="1.25" stroke-linecap="square" stroke-miterlimit="10" d="M312.875,334.518  L312.875,334.518z"/>
<path fill="none" stroke="#010101" stroke-width="1.25" stroke-linecap="square" stroke-miterlimit="10" d="M312.875,334.518  C314.082,333.311,314.082,333.311,312.875,334.518L312.875,334.518z"/>
<path fill="none" stroke="#010101" stroke-width="1.25" stroke-linecap="square" stroke-miterlimit="10" d="M312.875,334.518  C314.082,333.311,314.082,333.311,312.875,334.518L312.875,334.518z"/>
<path fill="none" stroke="#010101" stroke-width="1.25" stroke-linecap="square" stroke-miterlimit="10" d="M312.875,334.518  C314.082,333.311,314.082,333.311,312.875,334.518L312.875,334.518z"/>
<path fill="none" stroke="#010101" stroke-width="1.25" stroke-linecap="square" stroke-miterlimit="10" d="M312.875,334.518  C314.875,334.518,314.875,334.518,312.875,334.518L312.875,334.518z"/>
<path fill="none" stroke="#010101" stroke-width="1.25" stroke-linecap="square" stroke-miterlimit="10" d="M312.875,334.518  L312.875,334.518z"/>
<path fill="none" stroke="#010101" stroke-width="1.25" stroke-linecap="square" stroke-miterlimit="10" d="M312.875,334.518  L312.875,334.518z"/>
<path fill="none" stroke="#010101" stroke-width="1.25" stroke-linecap="square" stroke-miterlimit="10" d="M312.875,334.518  L312.875,334.518z"/>
<path fill="none" stroke="#010101" stroke-width="1.25" stroke-linecap="square" stroke-miterlimit="10" d="M312.875,334.518  L312.875,334.518z"/>
<path fill="none" stroke="#010101" stroke-width="1.25" stroke-linecap="square" stroke-miterlimit="10" d="M312.875,334.518  C314.082,333.311,314.082,333.311,312.875,334.518L312.875,334.518z"/>
<path fill="none" stroke="#010101" stroke-width="1.25" stroke-linecap="square" stroke-miterlimit="10" d="M312.875,334.518  C312.875,332.518,312.875,332.518,312.875,334.518L312.875,334.518z"/>
<path fill="none" stroke="#010101" stroke-width="1.25" stroke-linecap="square" stroke-miterlimit="10" d="M312.875,334.518  L312.875,334.518z"/>
<path fill="none" stroke="#010101" stroke-width="1.25" stroke-linecap="square" stroke-miterlimit="10" d="M312.875,334.518  L312.875,334.518z"/>
<path fill="none" stroke="#010101" stroke-width="1.25" stroke-linecap="square" stroke-miterlimit="10" d="M312.875,334.518  L312.875,334.518z"/>
<path fill="none" stroke="#010101" stroke-width="1.25" stroke-linecap="square" stroke-miterlimit="10" d="M312.875,334.518  L312.875,334.518z"/>
<path fill="none" stroke="#010101" stroke-width="1.25" stroke-linecap="square" stroke-miterlimit="10" d="M312.875,334.518  L312.875,334.518z"/>
<path fill="none" stroke="#010101" stroke-width="1.25" stroke-linecap="square" stroke-miterlimit="10" d="M312.875,334.518  L312.875,334.518z"/>
<path fill="none" stroke="#010101" stroke-width="1.25" stroke-linecap="square" stroke-miterlimit="10" d="M312.875,334.518  L312.875,334.518z"/>
<path fill="none" stroke="#010101" stroke-width="1.25" stroke-linecap="square" stroke-miterlimit="10" d="M317.375,333.018  c-2.957-0.53-5.731-0.045-8.25,1.5"/>
<path fill="none" stroke="#010101" stroke-width="1.25" stroke-linecap="square" stroke-miterlimit="10" d="M300.125,362.268  c-1.761,2.463-1.651,4.956,0,7.5"/>
<path fill="none" stroke="#010101" stroke-width="1.25" stroke-linecap="square" stroke-miterlimit="10" d="M251.375,315.018  c-1.293,2.381-2.292,4.882-3,7.5"/>
<path fill-rule="evenodd" clip-rule="evenodd" fill="#FFDB78" stroke="#010101" stroke-width="1.25" stroke-linecap="square" stroke-miterlimit="10" d="  M299.375,324.018c6.097,0.23,11.069,1.094,17.25-0.75C309.296,318.575,306.629,322.334,299.375,324.018z"/>
<path fill-rule="evenodd" clip-rule="evenodd" fill="#FFDB78" stroke="#010101" stroke-width="1.25" stroke-linecap="square" stroke-miterlimit="10" d="  M290.375,324.018c-6.097,0.23-11.069,1.094-17.25-0.75C280.454,318.575,283.121,322.334,290.375,324.018z"/>
<path fill-rule="evenodd" clip-rule="evenodd" fill="#FFDB78" stroke="#010101" stroke-width="1.25" stroke-linecap="square" stroke-miterlimit="10" d="  M299.375,315.018c6.097,0.23,11.069,1.094,17.25-0.75C309.296,309.575,306.629,313.334,299.375,315.018z"/>
<path fill-rule="evenodd" clip-rule="evenodd" fill="#FFDB78" stroke="#010101" stroke-width="1.25" stroke-linecap="square" stroke-miterlimit="10" d="  M290.375,315.018c-6.097,0.23-11.069,1.094-17.25-0.75C280.454,309.575,283.121,313.334,290.375,315.018z"/>
<path fill-rule="evenodd" clip-rule="evenodd" stroke="#010101" stroke-width="1.25" stroke-linecap="square" stroke-miterlimit="10" d="  M297.125,306.018c20.383,1.653,57.065,10.604,29.25,39.75C347.812,341.001,337.552,288.945,297.125,306.018z"/>
<path fill-rule="evenodd" clip-rule="evenodd" stroke="#010101" stroke-width="1.25" stroke-linecap="square" stroke-miterlimit="10" d="  M294.125,307.518c-20.383,1.653-57.065,10.604-29.25,39.75C243.438,342.501,253.698,290.445,294.125,307.518z"/>
<path fill-rule="evenodd" clip-rule="evenodd" stroke="#010101" stroke-width="1.25" stroke-linecap="square" stroke-miterlimit="10" d="  M246.875,340.518c4.97,5.561,6.751,11.588,13.5,15.75c-13.165-0.697-22.355-9.055-18-22.5  C243.875,336.018,245.375,338.268,246.875,340.518z"/>
<path fill-rule="evenodd" clip-rule="evenodd" d="M243.875,371.268c4.367-0.019,6.289,2.002,10.5,0c-4-2.5-8-5-12-7.5  C242.875,366.268,243.375,368.768,243.875,371.268z"/>
<path fill="none" stroke="#010101" stroke-width="1.25" stroke-linecap="square" stroke-miterlimit="10" d="M243.875,371.268  c4.158,0.764,6.633,1.838,10.5,0c-4-2.5-8-5-12-7.5"/>
<path fill-rule="evenodd" clip-rule="evenodd" d="M351.125,330.768c-4.15,9.723-11.164,17.665-21,20.25  C348.497,356.229,360.338,340.486,351.125,330.768z"/>
<path fill="none" stroke="#010101" stroke-width="1.25" stroke-linecap="square" stroke-miterlimit="10" d="M351.125,330.768  c-4.15,9.723-11.164,17.665-21,20.25c15.977,4.531,31.206-5.061,20.25-22.5"/>
<path fill-rule="evenodd" clip-rule="evenodd" stroke="#010101" stroke-width="1.25" stroke-linecap="square" stroke-miterlimit="10" d="  M340.625,361.518c4.555-1.445,10.546-3.398,11.25-4.5c-0.394,2.913-2.054,6.617-3.75,9  C345.625,364.518,343.125,363.018,340.625,361.518z"/>
<path fill-rule="evenodd" clip-rule="evenodd" stroke="#010101" stroke-width="1.25" stroke-linecap="square" stroke-miterlimit="10" d="  M282.875,292.518c3.993,2.891,9.401,2.744,11.25,6c4.25-2.5,8.5-5,12.75-7.5C298.674,289.754,290.679,290.628,282.875,292.518z"/>
<path fill-rule="evenodd" clip-rule="evenodd" stroke="#010101" stroke-width="1.25" stroke-linecap="square" stroke-miterlimit="10" d="  M363.125,313.518c7.709,26.774,12.925,59.476,3,86.25c12.295-20.913,13.363-48.237,6.75-71.25  C380.72,322.175,374.144,316.8,363.125,313.518z"/>
<path fill-rule="evenodd" clip-rule="evenodd" stroke="#010101" stroke-width="1.25" stroke-linecap="square" stroke-miterlimit="10" d="  M387.125,315.018c7.529,35.762,19.831,86.341-3,119.25C401.31,413.795,417.694,318.795,387.125,315.018z"/>
<path fill-rule="evenodd" clip-rule="evenodd" stroke="#010101" stroke-width="1.25" stroke-linecap="square" stroke-miterlimit="10" d="  M312.125,441.018c10.406-7.468,19.882-17.621,20.25-30.75c-6.628,10.475-13.618,21.028-24.75,24  C309.125,436.518,310.625,438.768,312.125,441.018z"/>
<path fill-rule="evenodd" clip-rule="evenodd" stroke="#010101" stroke-width="1.25" stroke-linecap="square" stroke-miterlimit="10" d="  M324.875,456.768c17.997,30.568,49.694-24.552,52.5-42.75C364.65,431.129,347.827,455.027,324.875,456.768z"/>
<path fill-rule="evenodd" clip-rule="evenodd" stroke="#010101" stroke-width="1.25" stroke-linecap="square" stroke-miterlimit="10" d="  M414.875,315.018c3.678,30.083,12.451,68.885-1.498,97.5C426.937,395.585,441.618,315.919,414.875,315.018z"/>
<path fill-rule="evenodd" clip-rule="evenodd" stroke="#010101" stroke-width="1.25" stroke-linecap="square" stroke-miterlimit="10" d="  M488.375,310.518c-1.207,13.29-3.1,26.851,0.75,39.75C481.685,338.28,481.017,319.464,488.375,310.518z"/>
<path fill-rule="evenodd" clip-rule="evenodd" d="M438.875,316.518c1.25,27.25,2.5,54.5,3.75,81.75c1.75-29.5,3.5-59,5.25-88.5  C440.31,310.444,440.318,314.504,438.875,316.518z"/>
<path fill="none" stroke="#010101" stroke-width="1.25" stroke-linecap="square" stroke-miterlimit="10" d="M438.875,316.518  c1.25,27.25,2.5,54.5,3.75,81.75c1.75-29.5,3.5-59,5.25-88.5c-3.5,1.25-7,2.5-10.5,3.75"/>
<path fill-rule="evenodd" clip-rule="evenodd" stroke="#010101" stroke-width="1.25" stroke-linecap="square" stroke-miterlimit="10" d="  M401.375,479.268c9.286-18.562,21.764-38.979,21.75-60C420.89,433.889,423.965,493.866,401.375,479.268z"/>
<path fill-rule="evenodd" clip-rule="evenodd" stroke="#010101" stroke-width="1.25" stroke-linecap="square" stroke-miterlimit="10" d="  M435.875,479.268c27.553-5.479,9.795-32.048,4.5-50.25C444.393,444.686,449.574,468.062,435.875,479.268z"/>
<path fill-rule="evenodd" clip-rule="evenodd" stroke="#010101" stroke-width="1.25" stroke-linecap="square" stroke-miterlimit="10" d="  M471.125,307.518c-2.269,21.55-15.515,75.777,6,90C453.993,391.604,458.298,312.635,471.125,307.518z"/>
<path fill-rule="evenodd" clip-rule="evenodd" stroke="#010101" stroke-width="1.25" stroke-linecap="square" stroke-miterlimit="10" d="  M348.875,490.518c0,3.75,0,7.5,0,11.25c5.789,0.22,14.053,1.051,19.5-0.75C359.387,499.915,355.788,495.186,348.875,490.518z"/>
<path fill-rule="evenodd" clip-rule="evenodd" stroke="#010101" stroke-width="1.25" stroke-linecap="square" stroke-miterlimit="10" d="  M330.875,498.018c0,3.75,0,7.5,0,11.25c5.789,0.22,14.053,1.051,19.5-0.75C341.387,507.415,337.788,502.686,330.875,498.018z"/>
<path fill-rule="evenodd" clip-rule="evenodd" stroke="#010101" stroke-width="1.25" stroke-linecap="square" stroke-miterlimit="10" d="  M394.625,492.768c-8.081-3.442-16.212-6.331-24-10.5C378.376,490.343,387.826,500.135,394.625,492.768z"/>
<path fill-rule="evenodd" clip-rule="evenodd" stroke="#010101" stroke-width="1.25" stroke-linecap="square" stroke-miterlimit="10" d="  M390.125,513.018c-6.848,0.435-12.882,1.502-18.75,5.25c3.879,3.031,10.965,5.466,15.75,6.75  C388.125,521.018,389.125,517.018,390.125,513.018z"/>
<path fill-rule="evenodd" clip-rule="evenodd" stroke="#010101" stroke-width="1.25" stroke-linecap="square" stroke-miterlimit="10" d="  M475.625,501.018c-8.081-3.442-16.212-6.331-24-10.5C459.376,498.593,468.826,508.385,475.625,501.018z"/>
<path fill-rule="evenodd" clip-rule="evenodd" stroke="#010101" stroke-width="1.25" stroke-linecap="square" stroke-miterlimit="10" d="  M529.625,461.268c-8.558,2.468-16.66,5.321-25.5,6.75C515.234,469.528,528.612,471.227,529.625,461.268z"/>
<path fill-rule="evenodd" clip-rule="evenodd" stroke="#010101" stroke-width="1.25" stroke-linecap="square" stroke-miterlimit="10" d="  M521.375,446.268c-8.558,2.468-16.66,5.321-25.5,6.75C506.984,454.528,520.362,456.227,521.375,446.268z"/>
<path fill-rule="evenodd" clip-rule="evenodd" stroke="#010101" stroke-width="1.25" stroke-linecap="square" stroke-miterlimit="10" d="  M522.125,524.268c-8.081-3.442-16.212-6.331-24-10.5C505.876,521.843,515.326,531.635,522.125,524.268z"/>
<path fill-rule="evenodd" clip-rule="evenodd" stroke="#010101" stroke-width="1.25" stroke-linecap="square" stroke-miterlimit="10" d="  M466.625,517.518c-6.672-1.95-12.568-3.129-19.5-1.5c2.665,4.041,8.656,8.606,12.75,11.25  C462.125,524.018,464.375,520.768,466.625,517.518z"/>
<path fill-rule="evenodd" clip-rule="evenodd" stroke="#010101" stroke-width="1.25" stroke-linecap="square" stroke-miterlimit="10" d="  M532.625,501.018c-6.672-1.95-12.568-3.129-19.5-1.5c2.665,4.041,8.656,8.606,12.75,11.25  C528.125,507.518,530.375,504.268,532.625,501.018z"/>
</svg>