<svg xmlns="http://www.w3.org/2000/svg" xmlns:xlink="http://www.w3.org/1999/xlink" version="1.1" id="Layer_1" x="0px" y="0px" enable-background="new 0 0 822.05 841.89" xml:space="preserve" viewBox="332 344.39 158.03 153.29">
<path fill-rule="evenodd" clip-rule="evenodd" fill="#FFFFFF" stroke="#000000" stroke-width="2" stroke-linecap="square" stroke-miterlimit="10" d="  M489,421.396c2.718,100.238-155.77,100.517-156,0C332.767,319.928,491.578,320.191,489,421.396z"/>
<path fill-rule="evenodd" clip-rule="evenodd" fill="#FFFFFF" d="M411,476.894v15.75V476.894z"/>
<line fill="none" stroke="#000000" stroke-width="2" stroke-linecap="square" stroke-miterlimit="10" x1="411" y1="476.894" x2="411" y2="492.644"/>
<path fill-rule="evenodd" clip-rule="evenodd" fill="#FFFFFF" d="M411,349.396v15.75V349.396z"/>
<line fill="none" stroke="#000000" stroke-width="2" stroke-linecap="square" stroke-miterlimit="10" x1="411" y1="349.396" x2="411" y2="365.146"/>
<path fill-rule="evenodd" clip-rule="evenodd" fill="#FFFFFF" d="M467.25,421.396h15H467.25z"/>
<line fill="none" stroke="#000000" stroke-width="2" stroke-linecap="square" stroke-miterlimit="10" x1="467.25" y1="421.396" x2="482.25" y2="421.396"/>
<path fill-rule="evenodd" clip-rule="evenodd" fill="#FFFFFF" d="M339.75,421.396h15H339.75z"/>
<line fill="none" stroke="#000000" stroke-width="2" stroke-linecap="square" stroke-miterlimit="10" x1="339.75" y1="421.396" x2="354.75" y2="421.396"/>
<path fill-rule="evenodd" clip-rule="evenodd" fill="#FFFFFF" d="M450.75,460.394l10.5,11.25L450.75,460.394z"/>
<line fill="none" stroke="#000000" stroke-width="2" stroke-linecap="square" stroke-miterlimit="10" x1="450.75" y1="460.394" x2="461.25" y2="471.644"/>
<path fill-rule="evenodd" clip-rule="evenodd" fill="#FFFFFF" d="M360.75,370.396l10.5,11.25L360.75,370.396z"/>
<line fill="none" stroke="#000000" stroke-width="2" stroke-linecap="square" stroke-miterlimit="10" x1="360.75" y1="370.396" x2="371.25" y2="381.646"/>
<path fill-rule="evenodd" clip-rule="evenodd" fill="#FFFFFF" d="M450.75,381.646l10.5-11.25L450.75,381.646z"/>
<line fill="none" stroke="#000000" stroke-width="2" stroke-linecap="square" stroke-miterlimit="10" x1="450.75" y1="381.646" x2="461.25" y2="370.396"/>
<path fill-rule="evenodd" clip-rule="evenodd" fill="#FFFFFF" d="M360.75,471.644l10.5-11.25L360.75,471.644z"/>
<line fill="none" stroke="#000000" stroke-width="2" stroke-linecap="square" stroke-miterlimit="10" x1="360.75" y1="471.644" x2="371.25" y2="460.394"/>
<path fill-rule="evenodd" clip-rule="evenodd" stroke="#000000" stroke-width="1.25" stroke-linecap="square" stroke-miterlimit="10" d="  M444,384.646c-13,10.75-26,21.5-39,32.25c3.75,2.75,7.5,5.499,11.25,8.248C425.5,411.645,434.75,398.146,444,384.646z"/>
<path fill-rule="evenodd" clip-rule="evenodd" stroke="#000000" stroke-width="1.25" stroke-linecap="square" stroke-miterlimit="10" d="  M419.25,421.396C401.93,449.261,400.421,392.689,419.25,421.396L419.25,421.396z"/>
<path fill-rule="evenodd" clip-rule="evenodd" stroke="#000000" stroke-width="1.25" stroke-linecap="square" stroke-miterlimit="10" d="  M411,459.644c2.5-12.749,5-25.499,7.5-38.248c-4.5,0-9,0-13.5,0C407,434.145,409,446.895,411,459.644z"/>
</svg>