<svg xmlns="http://www.w3.org/2000/svg" xmlns:xlink="http://www.w3.org/1999/xlink" version="1.1" id="Layer_1" x="0px" y="0px" enable-background="new 0 0 822.05 841.89" xml:space="preserve" viewBox="209.77 284.34 401.75 269.6">
<path fill-rule="evenodd" clip-rule="evenodd" fill="#B2B4B6" stroke="#000000" stroke-width="2" stroke-linecap="square" stroke-miterlimit="10" d="  M223.518,393.891c2.913,52.434-4.967,97.37,44.625,127.125c44.051,26.431,99.912,32.512,150.377,31.875  c46.278-0.584,94.892-8.185,135-32.25c50.202-30.121,43.113-75.991,48-129.75c-49.682,20.209-105.863,59.591-159.656,48.405  C369.082,424.161,296.299,409.026,223.518,393.891z"/>
<path fill-rule="evenodd" clip-rule="evenodd" fill="#7E8082" stroke="#000000" stroke-width="2" stroke-linecap="square" stroke-miterlimit="10" d="  M610.52,369.141c-9.802,113.97-399.752,110.447-399.752,0C210.768,259.188,600.506,255.63,610.52,369.141z"/>
<path fill-rule="evenodd" clip-rule="evenodd" fill="#5C5C5F" stroke="#000000" stroke-width="2" stroke-linecap="square" stroke-miterlimit="10" d="  M251.268,415.641C278.1,372.486,356.4,370.542,400.4,367.875c52.609-3.188,140.702,2.309,178.619,44.766  C482.528,451.955,346.119,471.906,251.268,415.641z"/>
<path fill="none" stroke="#000000" stroke-width="2" stroke-linecap="square" stroke-miterlimit="10" d="M228.018,468.141  c68.112,101.534,290.057,92.42,367.502,8.25"/>
<path fill-rule="evenodd" clip-rule="evenodd" fill="#5C5C5F" stroke="#000000" stroke-width="2" stroke-linecap="square" stroke-miterlimit="10" d="  M506.27,461.391c0,18.5,0,37,0,55.5c10.425,0.398,19.305-2.747,21-11.25c24.149,9.774,39.286-15.324,54.75-27  c15.448,13.847,15.853-43.703,16.5-53.25c-5.21,5.707-9.672,7.2-13.5,15C564.576,411.189,526.604,455,506.27,461.391z"/>
<path fill-rule="evenodd" clip-rule="evenodd" fill="#E0E1E2" stroke="#000000" stroke-width="2" stroke-linecap="square" stroke-miterlimit="10" d="  M528.02,471.141C515.901,477,516.025,464.85,528.02,471.141L528.02,471.141z"/>
<path fill-rule="evenodd" clip-rule="evenodd" fill="#E0E1E2" stroke="#000000" stroke-width="2" stroke-linecap="square" stroke-miterlimit="10" d="  M527.27,493.641C517.691,493.231,517.629,493.228,527.27,493.641L527.27,493.641z"/>
<path fill-rule="evenodd" clip-rule="evenodd" fill="#B2B4B6" stroke="#000000" stroke-width="2" stroke-linecap="square" stroke-miterlimit="10" d="  M540.02,456.141c-0.25,12.5-0.5,25-0.75,37.5c12.097-6.791,69.676-33.996,32.625-49.875  C559.974,438.657,547.423,446.636,540.02,456.141z"/>
</svg>