<svg xmlns="http://www.w3.org/2000/svg" xmlns:xlink="http://www.w3.org/1999/xlink" version="1.1" id="Layer_1" x="0px" y="0px" enable-background="new 0 0 822.05 841.89" xml:space="preserve" viewBox="251.01 247.96 320 342.43">
<path fill-rule="evenodd" clip-rule="evenodd" fill="#B2B4B6" stroke="#000000" stroke-width="2" stroke-linecap="square" stroke-miterlimit="10" d="  M281.26,476.891c1.651,31.362-3.677,61.012,21,83.25c25.282,22.784,69.629,29.25,102.375,29.25c37.701,0,74.136-2.938,108.002-21  c38.579-20.575,33.132-53.91,36.375-93.75c-35.448,14.463-74.872,42.155-113.26,34.214  C384.254,498.2,332.757,487.545,281.26,476.891z"/>
<path fill-rule="evenodd" clip-rule="evenodd" fill="#7E8082" stroke="#000000" stroke-width="2" stroke-linecap="square" stroke-miterlimit="10" d="  M555.762,459.641c-10.101,80.98-283.068,78.868-283.502,0C271.825,380.689,545.478,378.262,555.762,459.641z"/>
<path fill-rule="evenodd" clip-rule="evenodd" fill="#5C5C5F" stroke="#000000" stroke-width="2" stroke-linecap="square" stroke-miterlimit="10" d="  M300.76,491.891c41.725-51.097,188.786-48.836,232.502-1.5C466.409,514.929,364.853,536.962,300.76,491.891z"/>
<path fill="none" stroke="#000000" stroke-width="2" stroke-linecap="square" stroke-miterlimit="10" d="M284.26,530.141  c54.538,62.526,205.074,73.774,260.252,5.25"/>
<path fill-rule="evenodd" clip-rule="evenodd" fill="#5C5C5F" stroke="#000000" stroke-width="2" stroke-linecap="square" stroke-miterlimit="10" d="  M481.512,524.891c0,13,0,26,0,39c20.015-9.337,36.305-8.599,54-27c0,1.25,0,2.5,0,3.75c13.297-9.495,10.138-25.683,11.25-41.25  c-2.057,3.243-6.652,6.521-9,10.5C518.899,488.237,500.574,523.059,481.512,524.891z"/>
<path fill-rule="evenodd" clip-rule="evenodd" fill="#E0E1E2" stroke="#000000" stroke-width="2" stroke-linecap="square" stroke-miterlimit="10" d="  M497.262,531.641C489.176,531.76,489.221,531.759,497.262,531.641L497.262,531.641z"/>
<path fill-rule="evenodd" clip-rule="evenodd" fill="#E0E1E2" stroke="#000000" stroke-width="2" stroke-linecap="square" stroke-miterlimit="10" d="  M496.512,547.391C489.896,547.7,489.713,547.708,496.512,547.391L496.512,547.391z"/>
<path fill-rule="evenodd" clip-rule="evenodd" fill="#B2B4B6" stroke="#000000" stroke-width="2" stroke-linecap="square" stroke-miterlimit="10" d="  M505.512,521.141c-1.263,8.364,0,17.774,0,26.25c7.967-4.382,50.051-24.38,22.875-35.25  C520.071,508.815,510.522,514.62,505.512,521.141z"/>
<path fill-rule="evenodd" clip-rule="evenodd" fill="#B2B4B6" stroke="#000000" stroke-width="2" stroke-linecap="square" stroke-miterlimit="10" d="  M272.26,401.891c1.649,31.338-3.844,61.546,21.75,83.25c27.448,23.276,74.163,29.25,108.75,29.25c39.109,0,79.039-2.153,114.377-21  c39.695-21.171,34.742-52.007,38.625-93.75c-35.642,14.041-78.359,43.111-116.846,35.445  C383.364,424.021,327.812,412.956,272.26,401.891z"/>
<path fill-rule="evenodd" clip-rule="evenodd" fill="#7E8082" stroke="#000000" stroke-width="2" stroke-linecap="square" stroke-miterlimit="10" d="  M562.512,384.641c-8.905,80.966-299.63,78.273-300.002,0C262.138,306.296,552.668,303.231,562.512,384.641z"/>
<path fill-rule="evenodd" clip-rule="evenodd" fill="#5C5C5F" stroke="#000000" stroke-width="2" stroke-linecap="square" stroke-miterlimit="10" d="  M292.51,417.641c44.333-52.23,199.548-50.431,246.002-2.25C464.598,442.771,365.303,457.952,292.51,417.641z"/>
<path fill="none" stroke="#000000" stroke-width="2" stroke-linecap="square" stroke-miterlimit="10" d="M275.26,455.141  c60.343,64.409,214.216,72.378,276.002,5.25"/>
<path fill-rule="evenodd" clip-rule="evenodd" fill="#5C5C5F" stroke="#000000" stroke-width="2" stroke-linecap="square" stroke-miterlimit="10" d="  M484.512,449.891c0,13,0,26,0,39c7.675-3.708,11.642-2.824,15.75-7.5c36.243,11.042,51.355-30.472,53.25-57  c-2.265,3.177-7.122,6.164-9.75,10.5C523.047,412.805,505.051,448.357,484.512,449.891z"/>
<path fill-rule="evenodd" clip-rule="evenodd" fill="#E0E1E2" stroke="#000000" stroke-width="2" stroke-linecap="square" stroke-miterlimit="10" d="  M501.012,456.641C492.183,456.753,492.213,456.752,501.012,456.641L501.012,456.641z"/>
<path fill-rule="evenodd" clip-rule="evenodd" fill="#E0E1E2" stroke="#000000" stroke-width="2" stroke-linecap="square" stroke-miterlimit="10" d="  M500.262,472.391C492.567,472.677,492.653,472.674,500.262,472.391L500.262,472.391z"/>
<path fill-rule="evenodd" clip-rule="evenodd" fill="#B2B4B6" stroke="#000000" stroke-width="2" stroke-linecap="square" stroke-miterlimit="10" d="  M509.262,446.141c-1.324,8.324,0,17.803,0,26.25c8.309-4.251,52.999-23.8,24.375-35.25  C525.085,433.72,514.777,439.709,509.262,446.141z"/>
<path fill-rule="evenodd" clip-rule="evenodd" fill="#B2B4B6" stroke="#000000" stroke-width="2" stroke-linecap="square" stroke-miterlimit="10" d="  M262.51,326.141c1.758,33.397-3.631,60.511,23.25,82.5c29.108,23.811,76.433,28.708,112.5,30c41.664,1.493,85.985-2.116,123.752-21  c42.03-21.015,37.161-49.795,41.25-93.75c-37.519,13.57-83.271,42.4-123.335,35.003C380.788,347.977,321.649,337.059,262.51,326.141  z"/>
<path fill-rule="evenodd" clip-rule="evenodd" fill="#7E8082" stroke="#000000" stroke-width="2" stroke-linecap="square" stroke-miterlimit="10" d="  M570.012,308.891c-9.246,81.023-317.512,78.062-318.002,0C251.52,230.863,560.566,227.132,570.012,308.891z"/>
<path fill-rule="evenodd" clip-rule="evenodd" fill="#5C5C5F" stroke="#000000" stroke-width="2" stroke-linecap="square" stroke-miterlimit="10" d="  M284.26,341.141c50.616-54.365,206.701-46.705,261.002-2.25C473.255,369.419,354.434,383.945,284.26,341.141z"/>
<path fill="none" stroke="#000000" stroke-width="2" stroke-linecap="square" stroke-miterlimit="10" d="M265.51,378.641  c57.663,71.066,231.419,69.617,292.502,6"/>
<path fill-rule="evenodd" clip-rule="evenodd" fill="#5C5C5F" stroke="#000000" stroke-width="2" stroke-linecap="square" stroke-miterlimit="10" d="  M487.512,374.141c0,13,0,26,0,39c9.02-4.216,11.92-2.507,16.5-8.25c38.304,10.251,54.2-26.854,57-56.25  c-2.777,3.62-7.621,5.512-10.5,10.5C528.146,336.682,509.483,373.327,487.512,374.141z"/>
<path fill-rule="evenodd" clip-rule="evenodd" fill="#E0E1E2" stroke="#000000" stroke-width="2" stroke-linecap="square" stroke-miterlimit="10" d="  M504.762,380.891C495.823,381.003,495.838,381.003,504.762,380.891L504.762,380.891z"/>
<path fill-rule="evenodd" clip-rule="evenodd" fill="#E0E1E2" stroke="#000000" stroke-width="2" stroke-linecap="square" stroke-miterlimit="10" d="  M504.012,396.641C496.64,396.822,496.43,396.828,504.012,396.641L504.012,396.641z"/>
<path fill-rule="evenodd" clip-rule="evenodd" fill="#B2B4B6" stroke="#000000" stroke-width="2" stroke-linecap="square" stroke-miterlimit="10" d="  M514.512,370.391c-1.367,8.415-0.506,17.716-0.75,26.25c9.123-4.363,54.289-20.359,27.75-34.5  C532.336,357.251,520.633,363.169,514.512,370.391z"/>
</svg>