<svg xmlns="http://www.w3.org/2000/svg" xmlns:xlink="http://www.w3.org/1999/xlink" version="1.1" id="Layer_1" x="0px" y="0px" enable-background="new 0 0 822.05 841.89" xml:space="preserve" viewBox="310.69 337.15 200.14 171.87">
<path fill-rule="evenodd" clip-rule="evenodd" fill="#EDCBA6" stroke="#000000" stroke-width="1.25" stroke-linecap="square" stroke-miterlimit="10" d="  M354.811,431.14C357.745,473.204,328.463,400.476,354.811,431.14L354.811,431.14z"/>
<path fill-rule="evenodd" clip-rule="evenodd" fill="#EDCBA6" stroke="#000000" stroke-width="1.25" stroke-linecap="square" stroke-miterlimit="10" d="  M440.311,434.14C425.157,472.403,426.772,396.425,440.311,434.14L440.311,434.14z"/>
<path fill-rule="evenodd" clip-rule="evenodd" fill="#EDCBA6" stroke="#000000" stroke-width="1.25" stroke-linecap="square" stroke-miterlimit="10" d="  M433.561,472.39c-10.083-2.607-19.971-18.866-27.948-18.672c-26.692,0.651-27.691,9.219-50.427,16.797  c-18.262,6.087-31.79,37.875-3.516,37.875c21.936,0,43.872,0,65.808,0C430.464,508.39,430.561,483.468,433.561,472.39z"/>
<path fill-rule="evenodd" clip-rule="evenodd" fill="#FFFFFF" stroke="#000000" stroke-width="1.25" stroke-linecap="square" stroke-miterlimit="10" d="  M458.311,464.89c-8.296-1.082-16.43-1.182-24.75-1.875c-8.4-0.7-5.283,10.102-12.75,13.875c-12.562,6.349-21.522,13.142-36.75,9  c-20.459-5.563-19.769-25.248-40.694-23.639c-25.545,1.965-26.499,24.133-32.056,46.139c54.25,0,108.5,0,162.75,0  C469.532,493.681,466.92,477.616,458.311,464.89z"/>
<path fill-rule="evenodd" clip-rule="evenodd" fill="#EDCBA6" stroke="#000000" stroke-width="1.25" stroke-linecap="square" stroke-miterlimit="10" d="  M348.061,410.14c-3.442,46.787,55.33,98.017,80.25,39C461.281,371.056,353.529,333.778,348.061,410.14z"/>
<path fill-rule="evenodd" clip-rule="evenodd" d="M387.061,425.89c-1.598,0.525-0.5,5.618-4.5,1.5  C383.041,421.374,384.969,426.578,387.061,425.89z"/>
<path fill-rule="evenodd" clip-rule="evenodd" d="M408.811,427.39C403.605,427.047,403.343,427.03,408.811,427.39L408.811,427.39z"/>
<path fill="none" stroke="#000000" stroke-linecap="square" stroke-miterlimit="10" d="M390.061,440.89  c2.604,3.83,6.069,3.91,9.75,0.75"/>
<path fill="none" stroke="#000000" stroke-linecap="square" stroke-miterlimit="10" d="M388.561,458.14  c4.278-1.521,8.702-1.57,12.75,0"/>
<line fill="none" stroke="#000000" stroke-width="0.75" stroke-linecap="square" stroke-miterlimit="10" x1="387.061" y1="422.89" x2="375.811" y2="428.89"/>
<line fill="none" stroke="#000000" stroke-width="0.75" stroke-linecap="square" stroke-miterlimit="10" x1="406.561" y1="422.14" x2="406.561" y2="422.14"/>
<line fill="none" stroke="#000000" stroke-width="0.75" stroke-linecap="square" stroke-miterlimit="10" x1="403.561" y1="423.64" x2="415.561" y2="428.89"/>
<path fill-rule="evenodd" clip-rule="evenodd" fill="#FFFFFF" stroke="#000000" stroke-linecap="square" stroke-miterlimit="10" d="  M505.561,368.14c13.38-44.213-54.594-30.867-71.25-18.375c-28.171,21.128,22.671,72.851,41.25,48.375  C495.309,420.875,521.119,389.558,505.561,368.14z"/>
<path fill-rule="evenodd" clip-rule="evenodd" fill="#FFFFFF" stroke="#000000" stroke-linecap="square" stroke-miterlimit="10" d="  M429.061,405.64C421.437,405.64,421.437,405.64,429.061,405.64L429.061,405.64z"/>
<path fill-rule="evenodd" clip-rule="evenodd" fill="#FFFFFF" stroke="#000000" stroke-linecap="square" stroke-miterlimit="10" d="  M441.061,398.14C429.397,401.548,429.42,394.422,441.061,398.14L441.061,398.14z"/>
<path fill-rule="evenodd" clip-rule="evenodd" stroke="#000000" stroke-linecap="square" stroke-miterlimit="10" d="M448.561,380.14  c-4.241-5.417-4.241-18.583,0-24C448.561,363.797,449.9,372.623,448.561,380.14z"/>
<path fill-rule="evenodd" clip-rule="evenodd" fill="#F8130D" stroke="#000000" stroke-width="0.75" stroke-linecap="square" stroke-miterlimit="10" d="  M461.311,366.64C445.219,373.043,445.685,359.724,461.311,366.64L461.311,366.64z"/>
<path fill-rule="evenodd" clip-rule="evenodd" fill="#F8130D" stroke="#000000" stroke-width="0.75" stroke-linecap="square" stroke-miterlimit="10" d="  M491.311,368.14C452.745,397.438,456.708,337.328,491.311,368.14L491.311,368.14z"/>
<path fill-rule="evenodd" clip-rule="evenodd" stroke="#000000" stroke-linecap="square" stroke-miterlimit="10" d="M490.561,374.14  c-13.803,0-33.977,1.776-42.75-3C461.613,371.14,481.787,369.364,490.561,374.14z"/>
<path fill-rule="evenodd" clip-rule="evenodd" stroke="#000000" stroke-linecap="square" stroke-miterlimit="10" d="M491.311,380.14  c-1.015-4.532-3.294-15.061,0-20.25C491.311,366.629,491.579,373.408,491.311,380.14z"/>
</svg>