<svg xmlns="http://www.w3.org/2000/svg" xmlns:xlink="http://www.w3.org/1999/xlink" version="1.1" id="Layer_1" x="0px" y="0px" enable-background="new 0 0 822.05 841.89" xml:space="preserve" viewBox="291.04 271.54 239.71 305.51">
<path fill-rule="evenodd" clip-rule="evenodd" fill="#DCF2FD" stroke="#000000" stroke-width="2" stroke-linecap="square" stroke-miterlimit="10" d="  M343.037,311.295c-4.171-4.493-6.23-12.46-9-18c32.54-13.016,71.095-38.967,98.252-0.75c15.188,21.373-2.582,36.352-14.421,55.59  c-8.085,13.139,2.892,54.067,6.171,70.41c-21.72-10-30.39-2.862-41.421-25.615C369.424,365.719,356.23,338.507,343.037,311.295z"/>
<path fill-rule="evenodd" clip-rule="evenodd" fill="#BCBEC0" stroke="#000000" stroke-width="2" stroke-linecap="square" stroke-miterlimit="10" d="  M292.037,423.795c1.721,29.986,3.441,59.973,5.162,89.959c0.467,8.147,65.255,26.797,73.356,29.937  c22.778,8.828,58.838,31.892,83.484,32.354c8.389,0.157,75.844-28.425,75.706-32.933c-0.971-31.795-1.941-63.59-2.912-95.385  c-0.209-6.838-66.249-22.87-73.662-25.271c-23.611-7.646-58.873-27.352-83.884-27.162  C346.281,395.47,313.878,415.738,292.037,423.795z"/>
<path fill="none" stroke="#000000" stroke-width="2" stroke-linecap="square" stroke-miterlimit="10" d="M292.037,426.045  c44.062,16.627,88.124,33.254,132.186,49.881c39.836,15.032,64.188-7.271,102.566-25.131"/>
<line fill="none" stroke="#000000" stroke-width="2" stroke-linecap="square" stroke-miterlimit="10" x1="451.039" y1="482.295" x2="454.039" y2="576.045"/>
<path fill-rule="evenodd" clip-rule="evenodd" fill="#6D6F71" stroke="#000000" stroke-width="2" stroke-linecap="square" stroke-miterlimit="10" d="  M370.037,409.545c-8.25-1.784-14.119-3.018-22.5,3c33.692,14.472,100.217,63.56,134.252,37.5  C445.251,433.72,408.145,421.874,370.037,409.545z"/>
<path fill-rule="evenodd" clip-rule="evenodd" fill="#DCF2FD" stroke="#000000" stroke-width="2" stroke-linecap="square" stroke-miterlimit="10" d="  M373.787,338.295c-4.171-4.493-6.23-12.46-9-18c33.423-13.369,70.384-38.845,98.252-0.75c15.797,21.594-1.476,35.772-13.671,55.59  c-8.174,13.283,2.022,54.015,5.421,70.41c-21.719-10-30.388-2.862-41.42-25.615C400.175,392.719,386.981,365.507,373.787,338.295z"/>
<path fill-rule="evenodd" clip-rule="evenodd" fill="#DCF2FD" stroke="#000000" stroke-width="2" stroke-linecap="square" stroke-miterlimit="10" d="  M380.537,429.045c-9.717-24.89-28.61-50.874-54-61.5c19.925-17.711,78.511-68.253,98.252-32.25  c7.58,13.825-0.45,47.138,6.276,65.634c7.179,19.744,15.565,41.926,32.724,55.116C437.902,460.173,404.604,438.377,380.537,429.045z  "/>
<path fill-rule="evenodd" clip-rule="evenodd" fill="#ED1C24" stroke="#000000" stroke-width="2" stroke-linecap="square" stroke-miterlimit="10" d="  M512.539,355.545c9.176,35.685-3.894,29.317-37.5,39c3.291,5.078,3.654,12.628,7.5,17.25c-13-5.75-26-11.5-39-17.25  c6.75-10.5,13.5-21,20.25-31.5c1.049,5.25,5.417,9.801,6.75,15C484.539,370.545,498.539,363.045,512.539,355.545z"/>
</svg>