<svg xmlns="http://www.w3.org/2000/svg" xmlns:xlink="http://www.w3.org/1999/xlink" version="1.1" id="Layer_1" x="0px" y="0px" enable-background="new 0 0 822.05 841.89" xml:space="preserve" viewBox="308.11 332.85 206.75 176.86">
<path fill-rule="evenodd" clip-rule="evenodd" fill="#F8130D" stroke="#000000" stroke-width="1.5" stroke-linecap="square" stroke-miterlimit="10" d="  M505.111,370.14c0-3.106,1.778-49.51-12-33c-9.274,11.113,12.462,33.417-9,33c5.25,11.25,10.5,22.5,15.75,33.75  c4.75-11.25,9.5-22.5,14.25-33.75C511.111,370.14,508.111,370.14,505.111,370.14z"/>
<path fill-rule="evenodd" clip-rule="evenodd" stroke="#000000" stroke-linecap="square" stroke-miterlimit="10" d="M340.857,501.39  c4.405,0.608,7.818-0.327,12,1.5C345.833,507.304,342.29,502.021,340.857,501.39z"/>
<path fill-rule="evenodd" clip-rule="evenodd" stroke="#000000" stroke-linecap="square" stroke-miterlimit="10" d="M325.857,485.64  c3.379-6.045,7.053-12.068,10.5-18c-1.641,13.856-11.436,25.076-27.75,24C314.356,489.64,320.083,487.563,325.857,485.64z"/>
<path fill-rule="evenodd" clip-rule="evenodd" stroke="#000000" stroke-linecap="square" stroke-miterlimit="10" d="M309.357,491.64  c1.639,5.114,6.036,5.496,3,11.25C307.038,497.768,309.446,492.205,309.357,491.64z"/>
<path fill-rule="evenodd" clip-rule="evenodd" stroke="#000000" stroke-linecap="square" stroke-miterlimit="10" d="M344.607,482.64  c-0.491,4.97-2.435,15.102-4.5,19.5c3.437-9.045,2.91-17.997-2.25-25.5C342.045,476.836,342.461,479.092,344.607,482.64z"/>
<path fill-rule="evenodd" clip-rule="evenodd" stroke="#000000" stroke-linecap="square" stroke-miterlimit="10" d="M342.357,466.14  c-17.863-6.761-27.21,14.3-10.5,20.25c1-3.5,2-7,3-10.5c1.25,2.75,2.5,5.5,3.75,8.25  C348.798,479.283,345.733,474.906,342.357,466.14z"/>
<path fill-rule="evenodd" clip-rule="evenodd" stroke="#000000" stroke-linecap="square" stroke-miterlimit="10" d="M340.857,442.14  c1.098,12.347,9.097,18.704,21,19.5C346.536,464.016,337.927,449.91,340.857,442.14z"/>
<path fill-rule="evenodd" clip-rule="evenodd" stroke="#000000" stroke-linecap="square" stroke-miterlimit="10" d="M364.857,460.89  c-2.879-0.475-5.739,1.66-9-1.5C359.677,457.572,361.671,460.365,364.857,460.89z"/>
<path fill-rule="evenodd" clip-rule="evenodd" stroke="#000000" stroke-linecap="square" stroke-miterlimit="10" d="M345.357,448.89  C331.198,432.307,332.688,448.25,345.357,448.89L345.357,448.89z"/>
<path fill-rule="evenodd" clip-rule="evenodd" stroke="#000000" stroke-linecap="square" stroke-miterlimit="10" d="M336.357,464.64  c9.735-2.518,8.257-26.467-3-25.5C320.003,440.287,327.538,462.976,336.357,464.64z"/>
<path fill-rule="evenodd" clip-rule="evenodd" stroke="#000000" stroke-linecap="square" stroke-miterlimit="10" d="M331.857,442.89  c-11.82,3.968-15.816,14.427-15,24.75C312.844,453.313,323.069,442.238,331.857,442.89z"/>
<path fill-rule="evenodd" clip-rule="evenodd" stroke="#000000" stroke-linecap="square" stroke-miterlimit="10" d="M318.357,473.64  c0.018-3.028-2.411-5.253-0.75-9C321.373,468.383,318.377,470.268,318.357,473.64z"/>
<path fill-rule="evenodd" clip-rule="evenodd" stroke="#000000" stroke-linecap="square" stroke-miterlimit="10" d="M325.107,449.64  C343.23,437.425,326.275,436.75,325.107,449.64L325.107,449.64z"/>
<path fill-rule="evenodd" clip-rule="evenodd" d="M327.357,468.39c2.732,4.031,0.845,7.03,7.5,7.5  C332.357,473.39,329.857,470.89,327.357,468.39z"/>
<path fill="none" stroke="#000000" stroke-linecap="square" stroke-miterlimit="10" d="M327.357,468.39  c0.328,4.577,2.891,7.175,7.5,7.5"/>
<path fill-rule="evenodd" clip-rule="evenodd" stroke="#000000" stroke-linecap="square" stroke-miterlimit="10" d="M329.607,427.14  C334.143,457.998,353.879,411.133,329.607,427.14L329.607,427.14z"/>
<path fill-rule="evenodd" clip-rule="evenodd" stroke="#000000" stroke-linecap="square" stroke-miterlimit="10" d="M326.607,463.89  c3.25,0.25,6.5,0.5,9.75,0.75C335.03,464.294,326.416,463.88,326.607,463.89z"/>
<path fill-rule="evenodd" clip-rule="evenodd" fill="#F8130D" stroke="#000000" stroke-width="1.5" stroke-linecap="square" stroke-miterlimit="10" d="  M510.361,506.64c-25.841,7.219-24.75-2.983-24.75-23.139c0-9.825-6.845-59.648,0-66.111  C519.449,385.44,510.361,495.889,510.361,506.64z"/>
<path fill-rule="evenodd" clip-rule="evenodd" stroke="#000000" stroke-width="1.25" stroke-linecap="square" stroke-miterlimit="10" d="  M477.361,470.64c-5.838-4.455-15.017-6.731-21.75-9.75c-8.416,13.663-90.754-1.761-90.754,10.125  c0,12.482,82.823-4.383,90.004,10.125C462.138,477.745,470.669,475.05,477.361,470.64z"/>
</svg>