<svg xmlns="http://www.w3.org/2000/svg" xmlns:xlink="http://www.w3.org/1999/xlink" version="1.1" id="Layer_1" x="0px" y="0px" enable-background="new 0 0 822.05 841.89" xml:space="preserve" viewBox="309.16 349.14 201.24 144.41">
<path fill-rule="evenodd" clip-rule="evenodd" fill="#9F5B14" d="M309.789,409.765c4.212,16.32,91.292,73.479,104.25,67.5  c13.519,51.397,98.09-38.395,95.252-60C442.79,414.765,376.29,412.265,309.789,409.765z"/>
<path fill="none" stroke="#000000" stroke-width="1.25" stroke-linecap="square" stroke-miterlimit="10" d="M309.789,409.765  c4.212,16.32,91.292,73.479,104.25,67.5c13.519,51.397,98.09-38.395,95.252-60"/>
<path fill-rule="evenodd" clip-rule="evenodd" fill="#F1F4B3" stroke="#000000" stroke-width="1.25" stroke-linecap="square" stroke-miterlimit="10" d="  M317.289,401.515c20.028-13.97,63.555-52.225,87-51.75c13.337,0.27,88.661,41.86,91.502,55.5c36.338,1.01-8.786,35-15.75,43.125  c-11.391,13.289-32.879,41.646-53.25,38.25c-10.875-1.812-7.018-11.625-17.252-11.625c-12.06,0-21.736-11.691-30.75-18  C362.336,445.5,302.187,417.899,317.289,401.515z"/>
</svg>