<svg xmlns="http://www.w3.org/2000/svg" xmlns:xlink="http://www.w3.org/1999/xlink" version="1.1" id="Layer_1" x="0px" y="0px" enable-background="new 0 0 822.05 841.89" xml:space="preserve" viewBox="214.19 252.83 392.02 337.08">
<path fill-rule="evenodd" clip-rule="evenodd" fill="#E4BE9D" stroke="#000000" stroke-width="2" stroke-linecap="square" stroke-miterlimit="10" d="  M350.96,588.908c-31.563-39.633-49.801-86.731-56.25-136.5c-5.517-42.577-25.354-84.449-20.25-128.25  c2.981-25.584,18.763-64.173,52.125-49.875c34.087,14.609,34.75,60.201,31.125,91.125c-1.245,10.618-11.489,31.634-2.25,42  c6.347,7.122,18,7.079,18-4.875c0-42.59-17.592-81.491-14.625-126c2.365-35.474,43.871-13.286,51.75,5.625  c12.981,31.156-16.575,76.989,10.875,106.5c3.582-15.817-5.203-130.102,32.25-111.375c40.31,20.155,5.364,95.799,12,132.375  c5.808-14.199,0.121-138.797,42-97.5c30.951,30.521-25.779,100.052,15,127.5c2.001-20.296-23.437-55.37-8.25-74.25  c18.264-22.707,33.827,6.121,40.5,23.25c11.723,30.094,14.432,47.965,31.875,75.375c21.787,34.237,15.333,85.49,18.375,124.125  C520.46,588.408,435.71,588.658,350.96,588.908z"/>
<path fill-rule="evenodd" clip-rule="evenodd" fill="#DCF2FD" stroke="#000000" stroke-width="2" stroke-linecap="square" stroke-miterlimit="10" d="  M281.21,280.658c1.25,18.5,2.5,37,3.75,55.5c15.095-9.166,34.736-10.163,51.75-7.5c1.763-25.037,15.464-55.923-15.75-61.125  C306.849,265.181,291.789,271.577,281.21,280.658z"/>
<path fill-rule="evenodd" clip-rule="evenodd" fill="#DCF2FD" stroke="#000000" stroke-width="2" stroke-linecap="square" stroke-miterlimit="10" d="  M364.46,264.158c-3.625,54.242,52.602,12.505,32.25-6.75C388.001,249.167,370.834,256.752,364.46,264.158z"/>
<path fill-rule="evenodd" clip-rule="evenodd" fill="#DCF2FD" stroke="#000000" stroke-width="2" stroke-linecap="square" stroke-miterlimit="10" d="  M427.46,283.658c-2.448,55.488,55.533,9.857,32.25-9C450.147,266.913,434.023,276.007,427.46,283.658z"/>
<path fill-rule="evenodd" clip-rule="evenodd" fill="#DCF2FD" stroke="#000000" stroke-width="2" stroke-linecap="square" stroke-miterlimit="10" d="  M477.71,306.908c0,65.831,36.302,5.552,34.5,3.75C502.246,300.694,489.015,296.247,477.71,306.908z"/>
<path fill-rule="evenodd" clip-rule="evenodd" fill="#DCF2FD" stroke="#000000" stroke-width="2" stroke-linecap="square" stroke-miterlimit="10" d="  M516.71,370.658c5.496-19.017,23.496-27.971,25.5-2.25C534.087,369.125,524.808,371.4,516.71,370.658z"/>
<path fill-rule="evenodd" clip-rule="evenodd" fill="#ED1C24" stroke="#000000" stroke-width="2" stroke-linecap="square" stroke-miterlimit="10" d="  M215.21,394.658c-0.324-6.106,3.111-13.482,4.5-19.5c14.664,5.115,34.78,20.455,39-2.25c6.75,9.75,13.5,19.5,20.25,29.25  c-10,4.5-20,9-30,13.5C250.936,394.127,232.246,397.827,215.21,394.658z"/>
</svg>