<svg xmlns="http://www.w3.org/2000/svg" xmlns:xlink="http://www.w3.org/1999/xlink" version="1.1" id="Layer_1" x="0px" y="0px" enable-background="new 0 0 822.05 841.89" xml:space="preserve" viewBox="228.95 248.88 363.5 345.5">
<path fill-rule="evenodd" clip-rule="evenodd" fill="#E4BE9D" stroke="#000000" stroke-width="2" stroke-linecap="square" stroke-miterlimit="10" d="  M337.201,593.375c-31.563-39.633-49.801-86.731-56.25-136.5c-5.517-42.577-25.354-84.449-20.25-128.25  c2.981-25.584,18.763-64.173,52.125-49.875c34.087,14.609,34.75,60.201,31.125,91.125c-1.245,10.618-11.489,31.634-2.25,42  c6.347,7.122,18,7.079,18-4.875c0-42.59-17.592-81.491-14.625-126c2.365-35.474,43.871-13.286,51.75,5.625  c12.982,31.156-16.575,76.989,10.875,106.5c3.583-15.819-5.205-130.104,32.254-111.375c40.31,20.155,5.364,95.799,12,132.375  c5.808-14.199,0.121-138.797,42-97.5c30.951,30.521-25.779,100.052,15,127.5c2.002-20.297-23.437-55.37-8.25-74.25  c18.264-22.707,33.827,6.121,40.5,23.25c11.723,30.094,14.432,47.965,31.875,75.375c21.787,34.237,15.333,85.49,18.375,124.125  C506.704,592.875,421.952,593.125,337.201,593.375z"/>
<path fill-rule="evenodd" clip-rule="evenodd" fill="#DCF2FD" stroke="#000000" stroke-width="2" stroke-linecap="square" stroke-miterlimit="10" d="  M267.451,285.125c1.25,18.5,2.5,37,3.75,55.5c15.095-9.166,34.736-10.163,51.75-7.5c1.763-25.037,15.464-55.923-15.75-61.125  C293.09,269.647,278.03,276.043,267.451,285.125z"/>
<path fill-rule="evenodd" clip-rule="evenodd" fill="#DCF2FD" stroke="#000000" stroke-width="2" stroke-linecap="square" stroke-miterlimit="10" d="  M350.701,268.625c-3.625,54.242,52.602,12.505,32.25-6.75C374.242,253.634,357.076,261.219,350.701,268.625z"/>
<path fill-rule="evenodd" clip-rule="evenodd" fill="#DCF2FD" stroke="#000000" stroke-width="2" stroke-linecap="square" stroke-miterlimit="10" d="  M413.701,288.125c-2.449,55.486,55.538,9.861,32.254-9C436.393,271.378,420.265,280.474,413.701,288.125z"/>
<path fill-rule="evenodd" clip-rule="evenodd" fill="#DCF2FD" stroke="#000000" stroke-width="2" stroke-linecap="square" stroke-miterlimit="10" d="  M463.955,311.375c0,65.831,36.302,5.552,34.5,3.75C488.491,305.161,475.26,300.714,463.955,311.375z"/>
<path fill-rule="evenodd" clip-rule="evenodd" fill="#DCF2FD" stroke="#000000" stroke-width="2" stroke-linecap="square" stroke-miterlimit="10" d="  M502.955,375.125c5.496-19.017,23.496-27.971,25.5-2.25C520.332,373.591,511.053,375.867,502.955,375.125z"/>
<path fill-rule="evenodd" clip-rule="evenodd" fill="#ED1C24" stroke="#000000" stroke-width="2" stroke-linecap="square" stroke-miterlimit="10" d="  M229.951,263.375c3.26-5.23,10.373-9.335,15-13.5c9.201,12.609,16.932,36.494,33.75,21c-0.25,11.75-0.5,23.5-0.75,35.25  c-10.75-2-21.5-4-32.25-6C261.453,284.691,241.071,274.495,229.951,263.375z"/>
</svg>