<svg xmlns="http://www.w3.org/2000/svg" xmlns:xlink="http://www.w3.org/1999/xlink" version="1.1" id="Layer_1" x="0px" y="0px" enable-background="new 0 0 822.05 841.89" xml:space="preserve" viewBox="222.26 245.89 375.74 354.84">
<path fill-rule="evenodd" clip-rule="evenodd" fill="#E4BE9D" stroke="#000000" stroke-width="2" stroke-linecap="square" stroke-miterlimit="10" d="  M342.75,596.89c-31.563-39.633-49.801-86.731-56.25-136.5c-5.517-42.577-25.354-84.449-20.25-128.25  c2.981-25.584,18.763-64.173,52.125-49.875c34.087,14.609,34.75,60.201,31.125,91.125c-1.245,10.618-11.489,31.634-2.25,42  c6.347,7.121,18,7.079,18-4.875c0-42.59-17.592-81.491-14.625-126c2.365-35.479,43.87-13.28,51.751,5.625  c12.987,31.153-16.576,76.987,10.876,106.5c3.581-15.818-5.205-130.102,32.248-111.375c40.31,20.155,5.364,95.799,12,132.375  c5.808-14.199,0.121-138.797,42-97.5c30.951,30.521-25.779,100.052,15,127.5c2.002-20.297-23.437-55.37-8.25-74.25  c18.264-22.707,33.827,6.121,40.5,23.25c11.723,30.094,14.432,47.965,31.875,75.375c21.787,34.237,15.333,85.49,18.375,124.125  C512.25,596.39,427.5,596.64,342.75,596.89z"/>
<path fill-rule="evenodd" clip-rule="evenodd" fill="#DCF2FD" stroke="#000000" stroke-width="2" stroke-linecap="square" stroke-miterlimit="10" d="  M273,288.64c1.25,18.5,2.5,37,3.75,55.5c15.095-9.166,34.736-10.163,51.75-7.5c1.763-25.037,15.464-55.923-15.75-61.125  C298.639,273.163,283.579,279.559,273,288.64z"/>
<path fill-rule="evenodd" clip-rule="evenodd" fill="#DCF2FD" stroke="#000000" stroke-width="2" stroke-linecap="square" stroke-miterlimit="10" d="  M356.25,272.14c-3.625,54.242,52.602,12.505,32.25-6.75C379.791,257.15,362.625,264.734,356.25,272.14z"/>
<path fill-rule="evenodd" clip-rule="evenodd" fill="#DCF2FD" stroke="#000000" stroke-width="2" stroke-linecap="square" stroke-miterlimit="10" d="  M419.25,291.64c-2.447,55.488,55.533,9.857,32.25-9C441.938,274.896,425.812,283.99,419.25,291.64z"/>
<path fill-rule="evenodd" clip-rule="evenodd" fill="#DCF2FD" stroke="#000000" stroke-width="2" stroke-linecap="square" stroke-miterlimit="10" d="  M469.5,314.89c0,65.831,36.302,5.552,34.5,3.75C494.036,308.677,480.805,304.229,469.5,314.89z"/>
<path fill-rule="evenodd" clip-rule="evenodd" fill="#DCF2FD" stroke="#000000" stroke-width="2" stroke-linecap="square" stroke-miterlimit="10" d="  M508.5,378.64c5.496-19.017,23.496-27.971,25.5-2.25C525.877,377.107,516.598,379.382,508.5,378.64z"/>
<path fill-rule="evenodd" clip-rule="evenodd" fill="#BCBEC0" stroke="#000000" stroke-width="2" stroke-linecap="square" stroke-miterlimit="10" d="  M270.75,388.39c16.826,61.295,11.893,142.541,57.75,192.75c26.324,28.822,76.8,15.565,114.319,15.455  c51.394-0.152,102.787-0.304,154.181-0.455c-3.106-39.448,1.66-88.18-16.5-124.5c-7.64-15.28-15.23-27.719-22.5-42.75  c-10.195-21.081-1.897-17.203-20.25-18c-16.88-0.733-42.51,14.131-60.75,16.5c-24.291,3.155-49.935,2.957-74.248,0  C357.885,421.934,311.337,408.376,270.75,388.39z"/>
<path fill-rule="evenodd" clip-rule="evenodd" fill="#ED1C24" d="M576,360.64c-8.581,76.372-149.858,66.246-200.389,58.667  C328.624,412.259,192.275,364.593,243,295.39c47.256-64.47,183.061-43.965,245.25-21c35.566,13.134,75.892,34.245,87,73.125  c11.21,39.233,10.195-7.75,0-25.125c-37.134-63.284-142.179-76.5-207.611-76.5c-47.018,0-176.454,24.62-138.514,100.5  c36.757,73.514,145.246,88.963,217.875,87c37.443-1.012,74.732-7.489,107.25-27C565.863,399.422,597.107,349.141,576,360.64z"/>
</svg>