<svg xmlns="http://www.w3.org/2000/svg" xmlns:xlink="http://www.w3.org/1999/xlink" version="1.1" id="Layer_1" x="0px" y="0px" enable-background="new 0 0 822.05 841.89" xml:space="preserve" viewBox="268.73 271.97 286.36 300.58">
<path fill-rule="evenodd" clip-rule="evenodd" fill="#FFFDE9" stroke="#000000" stroke-width="2" stroke-linecap="square" stroke-miterlimit="10" d="  M269.729,353.302c0,40.077,0,80.154,0,120.231c0,30.133,43.328,44.229,66.693,59.711c25.14,16.658,46.356,45.903,73.114,28.149  c40.518-26.883,81.036-53.767,121.554-80.649c31.733-21.055,21.394-42.92,21.394-81.38c0-42.592,8.938-46.062-32.319-46.062  C436.685,353.302,353.207,353.302,269.729,353.302z"/>
<path fill-rule="evenodd" clip-rule="evenodd" fill="#FFFDE9" stroke="#000000" stroke-width="2" stroke-linecap="square" stroke-miterlimit="10" d="  M269.729,353.302c52.095-26.407,104.19-52.814,156.285-79.221c21.9-11.101,104.721,64.27,126.469,79.221  c-50.488,27.938-100.976,55.877-151.464,83.815C384.933,446.02,288.567,365.861,269.729,353.302z"/>
<path fill-rule="evenodd" clip-rule="evenodd" fill="#FFFDE9" d="M397.979,438.8l-3.75,132.75L397.979,438.8z"/>
<line fill="none" stroke="#000000" stroke-width="2" stroke-linecap="square" stroke-miterlimit="10" x1="397.979" y1="438.8" x2="394.229" y2="571.55"/>
</svg>