<svg xmlns="http://www.w3.org/2000/svg" xmlns:xlink="http://www.w3.org/1999/xlink" version="1.1" id="Layer_1" x="0px" y="0px" enable-background="new 0 0 822.05 841.89" xml:space="preserve" viewBox="316.69 337.82 187.46 171.94">
<path fill-rule="evenodd" clip-rule="evenodd" fill="#F1330D" stroke="#000000" stroke-width="1.25" stroke-linecap="square" stroke-miterlimit="10" d="  M370.875,374.58c-83.507-14.034-60.792,124.498,9.375,124.498c42.71,0,80.497-39.896,74.25-83.623  C448.481,373.323,406.892,368.537,370.875,374.58z"/>
<path fill-rule="evenodd" clip-rule="evenodd" fill="#174014" stroke="#000000" stroke-width="1.25" stroke-linecap="square" stroke-miterlimit="10" d="  M356.625,341.58c-5.474,14.099-1.458,28.284,12,36C362.562,369.375,354.001,355.689,356.625,341.58z"/>
<path fill-rule="evenodd" clip-rule="evenodd" fill="#174014" stroke="#000000" stroke-width="1.25" stroke-linecap="square" stroke-miterlimit="10" d="  M396.375,392.58c6.214,1.214,13.155,0.506,19.5,0.75c0-2,0-4,0-6c-4.778,0.297-9.57-0.667-14.25-1.5  c13.61-7.213,26.195-18.425,27-34.5c-4.6,16.477-19.314,21.746-33,30.75c-6.074-9.054-9.819-19.818-9.75-30.75  C377.332,365.007,377.469,388.409,396.375,392.58z"/>
<path fill-rule="evenodd" clip-rule="evenodd" fill="#174014" stroke="#000000" stroke-width="1.25" stroke-linecap="square" stroke-miterlimit="10" d="  M383.625,383.58c-1.423-15.288,7.039-26.311,20.25-24C388.181,367.135,402.394,393.844,383.625,383.58z"/>
<path fill="none" stroke="#000000" stroke-linecap="square" stroke-miterlimit="10" d="M354.375,341.58  c-1.329-4.215-0.674-4.476,2.25,0"/>
<path fill-rule="evenodd" clip-rule="evenodd" fill="#174014" stroke="#000000" stroke-width="1.25" stroke-linecap="square" stroke-miterlimit="10" d="  M403.875,380.58c4.494,4.874,9.98,7.289,12.75,12.75C421.666,384.627,412.752,384.375,403.875,380.58z"/>
<path fill-rule="evenodd" clip-rule="evenodd" fill="#174014" stroke="#000000" stroke-width="1.25" stroke-linecap="square" stroke-miterlimit="10" d="  M364.875,349.83c2.618,23.559,4.249,36.56,30,42.75C376.319,384.76,373.112,366.913,364.875,349.83z"/>
<path fill-rule="evenodd" clip-rule="evenodd" fill="#F1330D" stroke="#000000" stroke-width="1.25" stroke-linecap="square" stroke-miterlimit="10" d="  M451.125,427.828c-59.038-12.215-36.021,96.507,15,79.5C521.186,488.974,514.831,416.935,451.125,427.828z"/>
<path fill-rule="evenodd" clip-rule="evenodd" fill="#174014" stroke="#000000" stroke-width="1.25" stroke-linecap="square" stroke-miterlimit="10" d="  M441.375,406.08c-3.094,9.843-0.445,17.749,8.25,23.248C444.107,423.119,441.415,416.115,441.375,406.08z"/>
<path fill-rule="evenodd" clip-rule="evenodd" fill="#174014" stroke="#000000" stroke-width="1.25" stroke-linecap="square" stroke-miterlimit="10" d="  M466.875,439.078c4.5,0.25,9,0.5,13.5,0.75c0-1.5,0-3,0-4.5c-3.104,0.17-6.69,0.378-9.75,0c9.431-4.761,16.13-12.877,17.25-23.248  c-2.878,9.837-10.574,16.775-21,20.248c-1.989-7.252-6.292-12.269-6-20.248C454.479,422.097,455.499,434.711,466.875,439.078z"/>
<path fill-rule="evenodd" clip-rule="evenodd" fill="#174014" stroke="#000000" stroke-width="1.25" stroke-linecap="square" stroke-miterlimit="10" d="  M458.625,433.078c2.706-9.269,1.793-14.547,12.75-16.498C469.195,425.355,468.497,435.004,458.625,433.078z"/>
<path fill="none" stroke="#000000" stroke-linecap="square" stroke-miterlimit="10" d="M439.875,406.08  c-0.17-1.604-0.133-3.314,1.5,0"/>
<path fill-rule="evenodd" clip-rule="evenodd" fill="#174014" stroke="#000000" stroke-width="1.25" stroke-linecap="square" stroke-miterlimit="10" d="  M472.125,431.578c3.725,2.529,6.677,3.883,8.25,8.25c0.921-0.263,1.671-0.763,2.25-1.5  C479.907,432.117,476.573,434.597,472.125,431.578z"/>
<path fill-rule="evenodd" clip-rule="evenodd" fill="#174014" stroke="#000000" stroke-width="1.25" stroke-linecap="square" stroke-miterlimit="10" d="  M446.625,411.33c-1.762,14.445,5.162,25.238,19.5,27.748C455.878,434.01,449.514,422.708,446.625,411.33z"/>
</svg>