<svg xmlns="http://www.w3.org/2000/svg" xmlns:xlink="http://www.w3.org/1999/xlink" version="1.1" id="Layer_1" x="0px" y="0px" enable-background="new 0 0 822.05 841.89" xml:space="preserve" viewBox="341.44 342.82 139.12 161.88">
<path fill-rule="evenodd" clip-rule="evenodd" fill="#F1330D" stroke="#000000" stroke-width="1.25" stroke-linecap="square" stroke-miterlimit="10" d="  M395.625,379.58c-83.507-14.034-60.792,124.498,9.375,124.498c42.709,0,80.499-39.896,74.25-83.624  C473.229,378.323,431.643,373.537,395.625,379.58z"/>
<path fill-rule="evenodd" clip-rule="evenodd" fill="#174014" stroke="#000000" stroke-width="1.25" stroke-linecap="square" stroke-miterlimit="10" d="  M381.375,346.58c-5.474,14.099-1.458,28.284,12,36C387.312,374.375,378.751,360.689,381.375,346.58z"/>
<path fill-rule="evenodd" clip-rule="evenodd" fill="#174014" stroke="#000000" stroke-width="1.25" stroke-linecap="square" stroke-miterlimit="10" d="  M421.125,397.58c6.215,1.214,13.154,0.506,19.5,0.75c0-2,0-4,0-6c-4.777,0.297-9.57-0.667-14.25-1.5  c13.61-7.213,26.195-18.425,27-34.5c-4.6,16.477-19.313,21.746-33,30.75c-6.074-9.054-9.819-19.818-9.75-30.75  C402.082,370.007,402.219,393.409,421.125,397.58z"/>
<path fill-rule="evenodd" clip-rule="evenodd" fill="#174014" stroke="#000000" stroke-width="1.25" stroke-linecap="square" stroke-miterlimit="10" d="  M408.375,388.58c-1.423-15.288,7.039-26.311,20.25-24C412.931,372.135,427.144,398.844,408.375,388.58z"/>
<path fill="none" stroke="#000000" stroke-linecap="square" stroke-miterlimit="10" d="M379.125,346.58  c-1.329-4.215-0.674-4.476,2.25,0"/>
<path fill-rule="evenodd" clip-rule="evenodd" fill="#174014" stroke="#000000" stroke-width="1.25" stroke-linecap="square" stroke-miterlimit="10" d="  M428.625,385.58c4.494,4.874,9.98,7.289,12.75,12.75C446.416,389.627,437.502,389.375,428.625,385.58z"/>
<path fill-rule="evenodd" clip-rule="evenodd" fill="#174014" stroke="#000000" stroke-width="1.25" stroke-linecap="square" stroke-miterlimit="10" d="  M389.625,354.83c2.618,23.559,4.249,36.56,30,42.75C401.069,389.76,397.862,371.913,389.625,354.83z"/>
</svg>