<svg xmlns="http://www.w3.org/2000/svg" xmlns:xlink="http://www.w3.org/1999/xlink" version="1.1" id="Layer_1" x="0px" y="0px" enable-background="new 0 0 822.05 841.89" xml:space="preserve" viewBox="228.28 258.8 366.84 324.37">
<path fill-rule="evenodd" clip-rule="evenodd" fill="#BCBEC0" stroke="#000000" stroke-width="2" stroke-linecap="square" stroke-miterlimit="10" d="  M333.049,318.167c-27.697,16.292-59.581,30.307-83.889,51.417c-31.65,27.486-17.108,55.504-12.693,96.505  c3.759,34.909,50.211,33.927,81.212,43.329c24.637,7.472,50.21-25.218,69.223-39.773c32.482-24.866,64.964-49.733,97.445-74.6  c13.026-9.972,5.345-78.208,5.995-95.394c1.122-29.615-42.134-44.657-65.792-38.484  C394.208,269.084,359.896,301.443,333.049,318.167z"/>
<path fill="none" stroke="#000000" stroke-width="2" stroke-linecap="square" stroke-miterlimit="10" d="M256.549,363.167  c39.681,14.124,45.739,18.309,66.92,54.715c12.483,21.455,5.164,70.199,6.58,95.287"/>
<path fill="none" stroke="#000000" stroke-width="2" stroke-linecap="square" stroke-miterlimit="10" d="M232.549,423.169  c26.809,7.783,53.619,15.566,80.428,23.35c18.119,5.261,23.859-4.329,39.468-15.364c44.785-31.663,89.571-63.325,134.356-94.987"/>
<line fill="none" stroke="#000000" stroke-width="2" stroke-linecap="square" stroke-miterlimit="10" x1="300.799" y1="378.917" x2="466.551" y2="264.167"/>
<path fill-rule="evenodd" clip-rule="evenodd" fill="#BCBEC0" stroke="#000000" stroke-width="2" stroke-linecap="square" stroke-miterlimit="10" d="  M333.799,323.417c7.28,2.759,12.373,3.062,18-2.25c18.297-17.27-16.062-33.141,24-42.75c0.229,10.796,4.888,17.622,15,18.75  c-1.75-11.75-3.5-23.5-5.25-35.25C346.923,281.815,336.517,279.93,333.799,323.417z"/>
<line fill="none" stroke="#000000" stroke-width="2" stroke-linecap="square" stroke-miterlimit="10" x1="324.799" y1="420.167" x2="490.551" y2="299.417"/>
<path fill-rule="evenodd" clip-rule="evenodd" fill="#BCBEC0" stroke="#000000" stroke-width="2" stroke-linecap="square" stroke-miterlimit="10" d="  M396.049,387.167c9-7,18.001-14,27.002-21c3.99,27.432,12.698,42.191-14.25,57.752C404.55,411.669,400.299,399.418,396.049,387.167z  "/>
<path fill-rule="evenodd" clip-rule="evenodd" fill="#00AEEF" stroke="#000000" stroke-width="2" stroke-linecap="square" stroke-miterlimit="10" d="  M495.051,423.169c8.224,26.954,82.087-1.409,73.5-22.877C556.157,369.308,509.931,410.958,495.051,423.169z"/>
<path fill-rule="evenodd" clip-rule="evenodd" fill="#BCBEC0" d="M496.551,428.419c-20.164,7.922-57.699,13.62-67.5,33.75  c24.675-7.755,48.246-19.78,72-30C494.281,420.275,496.087,428.491,496.551,428.419z"/>
<path fill="none" stroke="#000000" stroke-width="2" stroke-linecap="square" stroke-miterlimit="10" d="M496.551,428.419  c-20.164,7.922-57.699,13.62-67.5,33.75c24.675-7.755,48.246-19.78,72-30c-2-3-4-6-6-9"/>
<path fill-rule="evenodd" clip-rule="evenodd" fill="#ED1C24" stroke="#000000" stroke-width="2" stroke-linecap="square" stroke-miterlimit="10" d="  M516.801,447.919c-2.408,26.024,71.817,33.912,76.875,8.625C600.349,423.182,530.666,444.231,516.801,447.919z"/>
<path fill-rule="evenodd" clip-rule="evenodd" fill="#BCBEC0" d="M519.051,454.669c-22.38-0.738-58.028-9.998-76.5,3.75  c25.329,4.234,52.344,1.5,78,1.5C519.153,447.185,517.327,454.044,519.051,454.669z"/>
<path fill="none" stroke="#000000" stroke-width="2" stroke-linecap="square" stroke-miterlimit="10" d="M519.051,454.669  c-22.38-0.738-58.028-9.998-76.5,3.75c25.329,4.234,52.344,1.5,78,1.5c-0.5-3.5-1-7-1.5-10.5"/>
<path fill-rule="evenodd" clip-rule="evenodd" fill="#6D6F71" stroke="#000000" stroke-width="2" stroke-linecap="square" stroke-miterlimit="10" d="  M379.549,471.919c20.043,1.374,29.001,18.857,6,25.5c19.597,15.702,29.08,0.974,47.788-0.522  c23.525-1.883,50.017-5.545,71.464-2.478c12.547,1.795,14.783,14.8,30,6c-15.271-8.816-15.924-25.609,0.75-33  c-6.098-8.956-13.547-9.234-23.25-6c-24.651,8.217-40.769,11.456-68.944,12.723C423.837,475.019,393.537,447.065,379.549,471.919z"/>
<path fill-rule="evenodd" clip-rule="evenodd" fill="#ED1C24" stroke="#000000" stroke-width="2" stroke-linecap="square" stroke-miterlimit="10" d="  M474.801,534.919c0.5-15.75,1-31.5,1.5-47.25c-15,2.5-30,5-45,7.5c6.764,3.617,10.75,12.385,17.25,16.5  c-18.751,17.75-37.501,35.5-56.252,53.25c9,5.75,18.001,11.5,27.002,17.25c12.75-20,25.5-40,38.25-60  C462.851,526.086,470.873,529.713,474.801,534.919z"/>
</svg>