<svg xmlns="http://www.w3.org/2000/svg" xmlns:xlink="http://www.w3.org/1999/xlink" version="1.1" id="Layer_1" x="0px" y="0px" enable-background="new 0 0 822.05 841.89" xml:space="preserve" viewBox="233.89 258.55 352.19 323.05">
<path fill-rule="evenodd" clip-rule="evenodd" fill="#F7931E" stroke="#000000" stroke-width="2" stroke-linecap="square" stroke-miterlimit="10" d="  M348.887,317.917c-27.697,16.292-59.581,30.307-83.889,51.417c-31.65,27.486-17.108,55.504-12.693,96.505  c3.759,34.909,50.211,33.927,81.212,43.329c24.637,7.472,50.209-25.218,69.222-39.773c32.481-24.866,64.962-49.733,97.444-74.6  c13.026-9.973,5.345-78.208,5.995-95.394c1.122-29.615-42.134-44.657-65.792-38.484  C410.045,268.834,375.733,301.193,348.887,317.917z"/>
<path fill="none" stroke="#000000" stroke-width="2" stroke-linecap="square" stroke-miterlimit="10" d="M272.387,362.917  c39.681,14.124,45.739,18.309,66.92,54.715c12.483,21.455,5.164,70.199,6.58,95.287"/>
<path fill="none" stroke="#000000" stroke-width="2" stroke-linecap="square" stroke-miterlimit="10" d="M248.387,422.919  c26.809,7.783,53.619,15.566,80.428,23.35c18.119,5.261,23.859-4.329,39.468-15.364c44.785-31.663,89.569-63.325,134.354-94.987"/>
<line fill="none" stroke="#000000" stroke-width="2" stroke-linecap="square" stroke-miterlimit="10" x1="316.637" y1="378.667" x2="482.387" y2="263.917"/>
<path fill-rule="evenodd" clip-rule="evenodd" fill="#BCBEC0" stroke="#000000" stroke-width="2" stroke-linecap="square" stroke-miterlimit="10" d="  M349.637,323.167c7.28,2.759,12.373,3.062,18-2.25c18.297-17.27-16.062-33.141,24-42.75c0.229,10.796,4.888,17.622,15,18.75  c-1.75-11.75-3.5-23.5-5.25-35.25C362.761,281.565,352.354,279.68,349.637,323.167z"/>
<line fill="none" stroke="#000000" stroke-width="2" stroke-linecap="square" stroke-miterlimit="10" x1="340.637" y1="419.917" x2="506.387" y2="299.167"/>
<path fill-rule="evenodd" clip-rule="evenodd" fill="#FFDB78" stroke="#000000" stroke-width="2" stroke-linecap="square" stroke-miterlimit="10" d="  M411.887,386.917c9-7,18-14,27-21c3.99,27.432,12.698,42.191-14.25,57.752C420.387,411.419,416.137,399.168,411.887,386.917z"/>
<path fill-rule="evenodd" clip-rule="evenodd" fill="#BCBEC0" stroke="#000000" stroke-width="2" stroke-linecap="square" stroke-miterlimit="10" d="  M395.387,471.669c20.043,1.374,29.001,18.857,6,25.5c19.596,15.702,29.079,0.974,47.786-0.522  c23.525-1.883,50.017-5.545,71.464-2.478c12.547,1.795,14.783,14.8,30,6c-15.271-8.816-15.924-25.609,0.75-33  c-6.098-8.956-13.547-9.234-23.25-6c-24.651,8.217-40.769,11.456-68.944,12.723C439.673,474.769,409.374,446.815,395.387,471.669z"/>
<path fill-rule="evenodd" clip-rule="evenodd" fill="#BCBEC0" stroke="#000000" stroke-width="2" stroke-linecap="square" stroke-miterlimit="10" d="  M510.887,422.919c8.224,26.954,82.087-1.409,73.5-22.877C571.993,369.058,525.767,410.708,510.887,422.919z"/>
<path fill-rule="evenodd" clip-rule="evenodd" fill="#BCBEC0" d="M512.387,428.169c-20.164,7.922-57.699,13.62-67.5,33.75  c24.675-7.755,48.246-19.78,72-30C510.117,420.025,511.923,428.241,512.387,428.169z"/>
<path fill="none" stroke="#000000" stroke-width="2" stroke-linecap="square" stroke-miterlimit="10" d="M512.387,428.169  c-20.164,7.922-57.699,13.62-67.5,33.75c24.675-7.755,48.246-19.78,72-30c-2-3-4-6-6-9"/>
<path fill-rule="evenodd" clip-rule="evenodd" fill="#ED1C24" stroke="#000000" stroke-width="2" stroke-linecap="square" stroke-miterlimit="10" d="  M318.137,535.419c0.25-15.75,0.5-31.5,0.75-47.25c-14.75,2.75-29.5,5.5-44.25,8.25c6.539,3.667,10.207,12.387,16.5,16.5  c-18.75,17.5-37.5,35-56.25,52.5c10.071,6.261,24.153,22.892,31.728,11.01c11.424-17.92,22.848-35.84,34.272-53.76  C306.187,526.586,314.209,530.213,318.137,535.419z"/>
</svg>