<svg xmlns="http://www.w3.org/2000/svg" xmlns:xlink="http://www.w3.org/1999/xlink" version="1.1" id="Layer_1" x="0px" y="0px" enable-background="new 0 0 822.05 841.89" xml:space="preserve" viewBox="315.44 336.39 191.06 172.54">
<path fill-rule="evenodd" clip-rule="evenodd" fill="#C9C3C3" stroke="#000000" stroke-width="0.5" stroke-linecap="square" stroke-miterlimit="10" d="  M506.25,500.89c-29.08-8.266-65.676-11.805-98.25-3.75c1.5,0.75,3.001,1.5,4.502,2.25c-8.408-0.567-16.404,1.458-23.252,3  C421.996,511.984,474.069,509.905,506.25,500.89z"/>
<path fill-rule="evenodd" clip-rule="evenodd" fill="#C9C3C3" stroke="#000000" stroke-width="0.5" stroke-linecap="square" stroke-miterlimit="10" d="  M459.75,457.39c13.402-5.344,11.562-12.422-1.5-16.5c1.551-9.155,0.068-3.546-2.25-11.25c18.793-20.211-31.124-20.22-41.248-21.75  c14.559,0.283,39.893-8.788,10.498-12.75c2.99-8.629,1.328-7.258,1.5-15.75c5.098-9.939,5.515-1.934,3.75-12  c51.847-11.477-26.774-30.75-42-30.75c-12.117,0-109.535,17.732-57.75,27c-10.034,10.21,1.717,15.488,14.25,15.75  c0.855,15.048,9.2,24.074,24.75,27c2.974,7.559,4.369,9.723,16.5,11.25c-4.127,13.234,24.192,21.482,36,27.75  c0.615,8.782,0.446,4.247,6.75,11.25c1.67,6.41,19.425,57.861,27.75,29.25C461.34,481.749,474.795,462.25,459.75,457.39z"/>
<path fill="none" stroke="#000000" stroke-width="0.5" stroke-linecap="square" stroke-miterlimit="10" d="M330.75,363.64  c31,2.55,59.748,4.106,90.75,0.75"/>
<path fill="none" stroke="#000000" stroke-width="0.5" stroke-linecap="square" stroke-miterlimit="10" d="M345,379.39  c19.44,2.984,40.845,4.341,60-0.75"/>
<path fill="none" stroke="#000000" stroke-width="0.5" stroke-linecap="square" stroke-miterlimit="10" d="M356.25,397.39  c14.844,2.636,30.533,1.905,45-2.25"/>
<path fill="none" stroke="#000000" stroke-width="0.5" stroke-linecap="square" stroke-miterlimit="10" d="M369.75,406.39  c9.51,1.691,19.336,1.199,28.5-1.5"/>
<path fill="none" stroke="#000000" stroke-width="0.5" stroke-linecap="square" stroke-miterlimit="10" d="M386.25,417.64  c9.882-0.432,19.945-2.113,28.502-6.75"/>
<path fill="none" stroke="#000000" stroke-width="0.5" stroke-linecap="square" stroke-miterlimit="10" d="M408,434.89  c10.318-0.408,20.492-2.735,30-6.75"/>
<path fill="none" stroke="#000000" stroke-width="0.5" stroke-linecap="square" stroke-miterlimit="10" d="M422.25,445.39  c9.415,0.491,18.642-2.108,26.25-7.5"/>
<path fill="none" stroke="#000000" stroke-width="0.5" stroke-linecap="square" stroke-miterlimit="10" d="M429,456.64  c8.619,0.525,16.871-2.086,23.25-7.5"/>
<path fill="none" stroke="#000000" stroke-width="0.5" stroke-linecap="square" stroke-miterlimit="10" d="M435,467.89  c5.118,0.313,10.265-0.983,14.25-3.75"/>
<path fill="none" stroke="#000000" stroke-width="0.5" stroke-linecap="square" stroke-miterlimit="10" d="M438,473.89  c5.154,0.555,10.282-0.204,15-2.25"/>
<path fill="none" stroke="#000000" stroke-width="0.5" stroke-linecap="square" stroke-miterlimit="10" d="M437.25,478.39  c4.182-0.07,8.239-0.821,12-2.25"/>
<path fill="none" stroke="#000000" stroke-width="0.5" stroke-linecap="square" stroke-miterlimit="10" d="M439.5,484.39  c3.807,1.355,7.911,1.157,10.5-0.75"/>
<path fill="none" stroke="#000000" stroke-width="0.5" stroke-linecap="square" stroke-miterlimit="10" d="M430.5,367.39  c-15.062,3.464-30.26,5.943-45.75,6"/>
<path fill="none" stroke="#000000" stroke-width="0.5" stroke-linecap="square" stroke-miterlimit="10" d="M381.75,402.64  c14.625-1.546,29.457-2.996,43.5-7.5"/>
<path fill="none" stroke="#000000" stroke-width="0.5" stroke-linecap="square" stroke-miterlimit="10" d="M429,437.14  c9.267-1.454,18.337-3.971,27-7.5"/>
<path fill="none" stroke="#000000" stroke-width="0.5" stroke-linecap="square" stroke-miterlimit="10" d="M435.75,449.14  c7.896-1.185,15.614-4.019,22.5-8.25"/>
<path fill="none" stroke="#000000" stroke-width="0.5" stroke-linecap="square" stroke-miterlimit="10" d="M440.25,462.64  c6.661-0.473,13.389-2.3,19.5-5.25"/>
<path fill="none" stroke="#000000" stroke-width="0.5" stroke-linecap="square" stroke-miterlimit="10" d="M456,467.89  c2.631,1.437,5.455,1.729,8.25,0.75"/>
<path fill="none" stroke="#000000" stroke-width="0.5" stroke-linecap="square" stroke-miterlimit="10" d="M330,347.89  c-1.425,19.952,63.043,14.25,78,14.25"/>
<path fill="none" stroke="#000000" stroke-width="0.5" stroke-linecap="square" stroke-miterlimit="10" d="M333.75,368.14  c17.401,13.349,46.298,9.327,67.5,8.25"/>
<path fill="none" stroke="#000000" stroke-width="0.5" stroke-linecap="square" stroke-miterlimit="10" d="M351,386.89  c12.416,10.424,30.104,8.142,45,4.5"/>
<path fill="none" stroke="#000000" stroke-width="0.5" stroke-linecap="square" stroke-miterlimit="10" d="M375,411.64  c9.765,1.463,19.818,0.88,29.25-2.25"/>
<path fill="none" stroke="#000000" stroke-width="0.5" stroke-linecap="square" stroke-miterlimit="10" d="M394.5,428.14  c10.929,1.488,22.232,1.006,33-1.5"/>
<path fill="none" stroke="#000000" stroke-width="0.5" stroke-linecap="square" stroke-miterlimit="10" d="M420,441.64  c5.504-0.239,11.022-0.741,16.5-1.5"/>
<path fill="none" stroke="#000000" stroke-width="0.5" stroke-linecap="square" stroke-miterlimit="10" d="M426.75,450.64  c4.206,4.424,10.275,5.062,16.5,2.25"/>
<path fill="none" stroke="#000000" stroke-width="0.5" stroke-linecap="square" stroke-miterlimit="10" d="M432,461.14  c1.981,3.327,5.637,4.59,9.75,3.75"/>
<path fill="none" stroke="#000000" stroke-width="0.5" stroke-linecap="square" stroke-miterlimit="10" d="M438.75,470.14  c3.441,1.015,7.032,1.006,10.5,0"/>
<path fill="none" stroke="#000000" stroke-width="0.5" stroke-linecap="square" stroke-miterlimit="10" d="M357.75,385.39  c19.295,3.594,39.399,2.697,58.5-1.5"/>
</svg>