<svg xmlns="http://www.w3.org/2000/svg" xmlns:xlink="http://www.w3.org/1999/xlink" version="1.1" id="Layer_1" x="0px" y="0px" enable-background="new 0 0 822.05 841.89" xml:space="preserve" viewBox="302.06 333.99 216.56 174.88">
<path fill-rule="evenodd" clip-rule="evenodd" fill="#134A1C" stroke="#000000" stroke-width="1.25" stroke-linecap="square" stroke-miterlimit="10" d="  M374.125,419.742c-19.03,8.454-52.999,41.268-71.25,24c0,22.673-4.174,48.223,27,43.5c18.045-2.734,43.512-30.059,57.75-40.5  C378.677,440.303,373.793,430.694,374.125,419.742z"/>
<path fill-rule="evenodd" clip-rule="evenodd" fill="#EED5B6" stroke="#000000" stroke-width="1.25" stroke-linecap="square" stroke-miterlimit="10" d="  M428.125,405.492c-7.121-18.455-25.051-6.01-37.5,5.25c0.284-6.181-3.482-14.194-3.75-18.75  C318.6,472.418,448.339,432.209,428.125,405.492z"/>
<path fill-rule="evenodd" clip-rule="evenodd" fill="#137827" d="M421.375,399.492l-21,12L421.375,399.492z"/>
<line fill="none" stroke="#000000" stroke-width="1.25" stroke-linecap="square" stroke-miterlimit="10" x1="421.375" y1="399.492" x2="400.375" y2="411.492"/>
<path fill-rule="evenodd" clip-rule="evenodd" fill="#137827" d="M428.125,405.492l-24,12L428.125,405.492z"/>
<line fill="none" stroke="#000000" stroke-width="1.25" stroke-linecap="square" stroke-miterlimit="10" x1="428.125" y1="405.492" x2="404.125" y2="417.492"/>
<path fill-rule="evenodd" clip-rule="evenodd" fill="#137827" d="M429.625,414.492l-20.25,9.75L429.625,414.492z"/>
<line fill="none" stroke="#000000" stroke-width="1.25" stroke-linecap="square" stroke-miterlimit="10" x1="429.625" y1="414.492" x2="409.375" y2="424.242"/>
<path fill-rule="evenodd" clip-rule="evenodd" fill="#F4EE12" stroke="#000000" stroke-width="1.25" stroke-linecap="square" stroke-miterlimit="10" d="  M445.375,445.242c-6.202-21.772-7.86-32.823-28.5-36c-11.386-1.752-47.21,0.486-41.25,18c-26.26,6.13,4.672,49.984,22.875,53.625  C432.539,487.674,434.215,464.932,445.375,445.242z"/>
<path fill-rule="evenodd" clip-rule="evenodd" fill="#EED5B6" stroke="#000000" stroke-width="1.25" stroke-linecap="square" stroke-miterlimit="10" d="  M425.125,473.742c1.105-19.494-20.901-16.025-36.75-10.5c19.775-38.343-47.367,6.174-24.75,27.75  C375.691,502.502,428.572,495.125,425.125,473.742z"/>
<path fill-rule="evenodd" clip-rule="evenodd" fill="#137827" d="M421.375,465.492l-24,2.25L421.375,465.492z"/>
<line fill="none" stroke="#000000" stroke-width="1.25" stroke-linecap="square" stroke-miterlimit="10" x1="421.375" y1="465.492" x2="397.375" y2="467.742"/>
<path fill-rule="evenodd" clip-rule="evenodd" fill="#137827" d="M425.125,473.742l-26.25,0.75L425.125,473.742z"/>
<line fill="none" stroke="#000000" stroke-width="1.25" stroke-linecap="square" stroke-miterlimit="10" x1="425.125" y1="473.742" x2="398.875" y2="474.492"/>
<path fill-rule="evenodd" clip-rule="evenodd" fill="#137827" d="M422.875,482.742l-22.5,0.75L422.875,482.742z"/>
<line fill="none" stroke="#000000" stroke-width="1.25" stroke-linecap="square" stroke-miterlimit="10" x1="422.875" y1="482.742" x2="400.375" y2="483.492"/>
<path fill="none" stroke="#000000" stroke-width="0.75" stroke-linecap="square" stroke-miterlimit="10" d="M404.125,387.492  c10.075-4.564,20.538-3.02,27.75,5.25"/>
<path fill="none" stroke="#000000" stroke-width="0.75" stroke-linecap="square" stroke-miterlimit="10" d="M370.375,409.992  c-0.49-11.058,4.647-20.198,15-24"/>
<path fill="none" stroke="#000000" stroke-width="0.75" stroke-linecap="square" stroke-miterlimit="10" d="M404.125,427.242  c11.667-3.164,20.067,1.517,21,13.5"/>
<path fill="none" stroke="#000000" stroke-width="0.75" stroke-linecap="square" stroke-miterlimit="10" d="M389.125,427.992  c-5.579,0.469-7.706,4.106-6.75,9.75"/>
<path fill="none" stroke="#000000" stroke-width="0.75" stroke-linecap="square" stroke-miterlimit="10" d="M406.375,444.492  c5.414-1.746,8.685,0.312,9,6"/>
<path fill="none" stroke="#000000" stroke-width="0.75" stroke-linecap="square" stroke-miterlimit="10" d="M406.375,499.242  c10.298,3.032,19.626,0.44,24-9"/>
<path fill-rule="evenodd" clip-rule="evenodd" fill="#134A1C" stroke="#000000" stroke-width="1.25" stroke-linecap="square" stroke-miterlimit="10" d="  M369.625,464.742c-16.256,0.262-56.382,10.254-66.75,2.25c0,13.75,0,27.5,0,41.25c22.903-2.876,45.649-8.613,68.25-13.5  C365.689,485.347,365.214,474.623,369.625,464.742z"/>
<path fill-rule="evenodd" clip-rule="evenodd" fill="#FFFFFF" stroke="#000000" stroke-linecap="square" stroke-miterlimit="10" d="  M451.375,385.992c0.377,42.649,66.267,42.39,66.75,0C518.616,342.895,451.173,342.629,451.375,385.992z"/>
<path fill-rule="evenodd" clip-rule="evenodd" fill="#FFFFFF" d="M484.375,409.242v6.75V409.242z"/>
<line fill="none" stroke="#000000" stroke-linecap="square" stroke-miterlimit="10" x1="484.375" y1="409.242" x2="484.375" y2="415.992"/>
<path fill-rule="evenodd" clip-rule="evenodd" fill="#FFFFFF" d="M460.375,385.992h-6H460.375z"/>
<line fill="none" stroke="#000000" stroke-linecap="square" stroke-miterlimit="10" x1="460.375" y1="385.992" x2="454.375" y2="385.992"/>
<path fill-rule="evenodd" clip-rule="evenodd" fill="#FFFFFF" d="M515.125,385.992h-6.75H515.125z"/>
<line fill="none" stroke="#000000" stroke-linecap="square" stroke-miterlimit="10" x1="515.125" y1="385.992" x2="508.375" y2="385.992"/>
<path fill-rule="evenodd" clip-rule="evenodd" fill="#FFFFFF" d="M467.875,402.492l-4.5,4.5L467.875,402.492z"/>
<line fill="none" stroke="#000000" stroke-linecap="square" stroke-miterlimit="10" x1="467.875" y1="402.492" x2="463.375" y2="406.992"/>
<path fill-rule="evenodd" clip-rule="evenodd" fill="#FFFFFF" d="M506.125,364.242l-4.5,4.5L506.125,364.242z"/>
<line fill="none" stroke="#000000" stroke-linecap="square" stroke-miterlimit="10" x1="506.125" y1="364.242" x2="501.625" y2="368.742"/>
<path fill-rule="evenodd" clip-rule="evenodd" fill="#FFFFFF" d="M506.125,406.992l-4.5-4.5L506.125,406.992z"/>
<line fill="none" stroke="#000000" stroke-linecap="square" stroke-miterlimit="10" x1="506.125" y1="406.992" x2="501.625" y2="402.492"/>
<path fill-rule="evenodd" clip-rule="evenodd" stroke="#000000" stroke-linecap="square" stroke-miterlimit="10" d="  M481.375,358.242C489.059,358.963,489.316,358.987,481.375,358.242L481.375,358.242z"/>
<path fill-rule="evenodd" clip-rule="evenodd" stroke="#000000" stroke-linecap="square" stroke-miterlimit="10" d="  M485.125,365.742c2.302,6.433,1.542,14.905,2.25,21.75c-1.75-0.25-3.5-0.5-5.25-0.75  C483.125,379.743,484.024,372.725,485.125,365.742z"/>
<path fill-rule="evenodd" clip-rule="evenodd" stroke="#000000" stroke-linecap="square" stroke-miterlimit="10" d="  M481.375,385.992C488.769,385.228,488.683,385.237,481.375,385.992L481.375,385.992z"/>
<path fill-rule="evenodd" clip-rule="evenodd" fill="#D12327" stroke="#000000" stroke-width="0.5" stroke-linecap="square" stroke-miterlimit="10" d="  M463.375,366.492C471.146,366.926,471.151,366.927,463.375,366.492L463.375,366.492z"/>
<path fill-rule="evenodd" clip-rule="evenodd" fill="#D12327" stroke="#000000" stroke-width="0.5" stroke-linecap="square" stroke-miterlimit="10" d="  M462.625,343.242c3.75-3,7.5-6,11.25-9c1,1.25,2,2.5,3,3.75c-1.842,3.038-8.256,12.009-8.25,12  c-4.553,1.986-10.805,3.186-15.75,3.75C455.977,342.943,461.683,343.674,462.625,343.242z"/>
</svg>