<svg xmlns="http://www.w3.org/2000/svg" xmlns:xlink="http://www.w3.org/1999/xlink" version="1.1" id="Layer_1" x="0px" y="0px" enable-background="new 0 0 822.05 841.89" xml:space="preserve" viewBox="318.69 339.2 182.66 165.66">
<path fill-rule="evenodd" clip-rule="evenodd" fill="#FFFFFF" stroke="#000000" stroke-width="0.5" stroke-linecap="square" stroke-miterlimit="10" d="  M319.029,346.39C316.826,387.328,355.782,319.563,319.029,346.39L319.029,346.39z"/>
<path fill-rule="evenodd" clip-rule="evenodd" fill="#FFFFFF" stroke="#000000" stroke-width="0.5" stroke-linecap="square" stroke-miterlimit="10" d="  M479.531,353.14C515.848,380.537,481.168,311.57,479.531,353.14L479.531,353.14z"/>
<path fill-rule="evenodd" clip-rule="evenodd" fill="#FFFFFF" stroke="#000000" stroke-width="0.5" stroke-linecap="square" stroke-miterlimit="10" d="  M328.779,345.64c-0.968,14.879,64.022,5.881,77.475,5.698c17.938-0.244,81.715,7.275,88.277-6.448  C439.28,345.14,384.03,345.39,328.779,345.64z"/>
<path fill-rule="evenodd" clip-rule="evenodd" fill="#FFFFFF" stroke="#000000" stroke-width="0.5" stroke-linecap="square" stroke-miterlimit="10" d="  M493.031,347.89C504.059,349.172,503.524,345.969,493.031,347.89L493.031,347.89z"/>
<path fill-rule="evenodd" clip-rule="evenodd" fill="#FFFFFF" stroke="#000000" stroke-width="0.5" stroke-linecap="square" stroke-miterlimit="10" d="  M319.029,348.64C331.3,351.442,331.146,345.457,319.029,348.64L319.029,348.64z"/>
<path fill-rule="evenodd" clip-rule="evenodd" fill="#FF0303" stroke="#000000" stroke-linecap="square" stroke-miterlimit="10" d="  M355.029,345.64c0,25.759-12.114,135.104,8.625,146.625c21.31,11.839,71.237,18.754,84.377,2.625  c19.95-24.489,10.677-117.427,12.646-148.377C461.197,338.357,368.873,344.184,355.029,345.64z"/>
<path fill="none" stroke="#000000" stroke-linecap="square" stroke-miterlimit="10" d="M388.779,342.64  c16.383,34.684-25.735,137.233-4.5,154.5"/>
<path fill-rule="evenodd" clip-rule="evenodd" fill="#BC0202" d="M376.779,341.89c8.415,35.941,12.309,59.886,9,96.75  C373.634,413.703,379.96,370.056,376.779,341.89z"/>
<path fill-rule="evenodd" clip-rule="evenodd" fill="#BC0202" d="M367.779,392.14c-3.21,19.073,6.71,38.162,4.5,59.25  C379.767,425.033,367.588,415.956,367.779,392.14z"/>
<path fill="none" stroke="#000000" stroke-linecap="square" stroke-miterlimit="10" d="M393.279,352.39  c11.403,34.673,20.259,83.354,16.5,120"/>
</svg>