<svg xmlns="http://www.w3.org/2000/svg" xmlns:xlink="http://www.w3.org/1999/xlink" version="1.1" id="Layer_1" x="0px" y="0px" enable-background="new 0 0 822.05 841.89" xml:space="preserve" viewBox="335.28 258.87 149.75 331.26">
<path fill-rule="evenodd" clip-rule="evenodd" fill="#BCBEC0" stroke="#000000" stroke-width="2" stroke-linecap="square" stroke-miterlimit="10" d="  M408.279,259.871c3.101,14.976-10.792,18.109-10.266,26.016c0.955,14.329,1.755,28.62,2.016,42.984  c0.577,31.868,0.968,65.241-4.5,96.75c-10.013,57.697-35.038,108.319-59.25,163.5c32.006,0,30.377,1.271,44.625-24.375  c6.065-10.918,16.942-23.044,30.375-22.125c10.805,0.739,18.859,10.893,24.752,18.75c18.163,24.218,13.587,27,48,27  c-25.807-53.857-48.838-100.597-57-159c-4.244-30.369-6.597-60.163-7.236-90.828c-0.339-16.259,0.066-32.489,0.338-48.75  C420.339,277.43,410.401,273.979,408.279,259.871z"/>
</svg>