<svg xmlns="http://www.w3.org/2000/svg" xmlns:xlink="http://www.w3.org/1999/xlink" version="1.1" id="Layer_1" x="0px" y="0px" enable-background="new 0 0 822.05 841.89" xml:space="preserve" viewBox="308.05 341.03 205.85 164.06">
<path fill-rule="evenodd" clip-rule="evenodd" fill="#1D0E82" stroke="#000000" stroke-linecap="square" stroke-miterlimit="10" d="  M381.25,430.22c0,82.521,17.844-2.555,45.75,18.375c3.372,2.529,27.75,34.824,27.75,13.209c0-22.393,7.358-31.584-15.876-31.584  C419.666,430.22,400.458,430.22,381.25,430.22z"/>
<path fill-rule="evenodd" clip-rule="evenodd" fill="#1C0B80" stroke="#000000" stroke-linecap="square" stroke-miterlimit="10" d="  M454.75,465.47c15.905-9.662,10.5-25.809,10.5-42.75C449.024,431.839,454.75,448.549,454.75,465.47z"/>
<path fill-rule="evenodd" clip-rule="evenodd" fill="#1C0B80" stroke="#000000" stroke-linecap="square" stroke-miterlimit="10" d="  M381.25,430.22c22.977,0,66.277,9.82,84-7.5C442.273,422.72,398.973,412.9,381.25,430.22z"/>
<path fill-rule="evenodd" clip-rule="evenodd" fill="#1C0B80" stroke="#000000" stroke-linecap="square" stroke-miterlimit="10" d="  M400,457.22c0.032,2.632-0.829,5.737-1.5,8.25c8.826-5.414,11.576-9.452,14.25-18.75C406.448,448.581,403.744,452.35,400,457.22z"/>
<path fill-rule="evenodd" clip-rule="evenodd" fill="#D21209" stroke="#000000" stroke-linecap="square" stroke-miterlimit="10" d="  M415.75,390.47c0,12.477,3.265,28.737-4.5,37.5C411.25,415.238,407.468,399.815,415.75,390.47z"/>
<path fill-rule="evenodd" clip-rule="evenodd" fill="#FB0F0C" stroke="#000000" stroke-linecap="square" stroke-miterlimit="10" d="  M415.75,390.47c-8.663-0.436-15.03-1.259-21.75,3.75C402.839,396.339,408.827,393.741,415.75,390.47z"/>
<path fill-rule="evenodd" clip-rule="evenodd" fill="#FB0F0C" stroke="#000000" stroke-linecap="square" stroke-miterlimit="10" d="  M394,394.22c0,6.614-2.368,53.74,17.25,33.75C422.181,416.832,411.882,389.11,394,394.22z"/>
<path fill-rule="evenodd" clip-rule="evenodd" fill="#D21209" stroke="#000000" stroke-linecap="square" stroke-miterlimit="10" d="  M452.5,390.47c0,12.477,3.265,28.737-4.5,37.5C448,415.238,444.218,399.815,452.5,390.47z"/>
<path fill-rule="evenodd" clip-rule="evenodd" fill="#FB0F0C" stroke="#000000" stroke-linecap="square" stroke-miterlimit="10" d="  M452.5,390.47c-8.663-0.436-15.03-1.259-21.75,3.75C439.59,396.339,445.576,393.741,452.5,390.47z"/>
<path fill-rule="evenodd" clip-rule="evenodd" fill="#FB0F0C" stroke="#000000" stroke-linecap="square" stroke-miterlimit="10" d="  M430.75,394.22c0,6.614-2.368,53.74,17.25,33.75C458.931,416.832,448.632,389.11,430.75,394.22z"/>
<path fill-rule="evenodd" clip-rule="evenodd" fill="#F7F619" stroke="#000000" stroke-linecap="square" stroke-miterlimit="10" d="  M454.75,394.97c-11.481,0-85.953,7.658-74.25-12C384.18,376.79,458.951,374.17,454.75,394.97z"/>
<path fill-rule="evenodd" clip-rule="evenodd" fill="#F7DD15" stroke="#000000" stroke-linecap="square" stroke-miterlimit="10" d="  M454.75,394.97c8.331-6.198,13.804-7.617,11.25-19.5C454.451,379.56,455.484,384.868,454.75,394.97z"/>
<path fill-rule="evenodd" clip-rule="evenodd" fill="#F7DD15" stroke="#000000" stroke-linecap="square" stroke-miterlimit="10" d="  M380.5,382.97c23.766,0,66.669,9.736,85.5-7.5C442.234,375.47,399.331,365.734,380.5,382.97z"/>
<path fill-rule="evenodd" clip-rule="evenodd" fill="#1D0E82" stroke="#000000" stroke-linecap="square" stroke-miterlimit="10" d="  M448,381.47c-9.364,2.645-29.667-4.833-17.25-17.25S450.645,372.106,448,381.47z"/>
<path fill-rule="evenodd" clip-rule="evenodd" fill="#1C0B80" stroke="#000000" stroke-linecap="square" stroke-miterlimit="10" d="  M452.5,361.22c0.547,8.834,1.919,14.919-4.5,20.25C445.372,372.218,448.365,367.086,452.5,361.22z"/>
<path fill-rule="evenodd" clip-rule="evenodd" fill="#1D0E82" stroke="#000000" stroke-linecap="square" stroke-miterlimit="10" d="  M452.5,361.22c-8.205-0.308-14.668-0.824-21.75,3C439.077,365.962,445.479,363.721,452.5,361.22z"/>
<path fill-rule="evenodd" clip-rule="evenodd" fill="#1D0E82" stroke="#000000" stroke-linecap="square" stroke-miterlimit="10" d="  M411.25,380.72C365.658,393.43,424.598,334.011,411.25,380.72L411.25,380.72z"/>
<path fill-rule="evenodd" clip-rule="evenodd" fill="#1C0B80" stroke="#000000" stroke-linecap="square" stroke-miterlimit="10" d="  M416.5,360.47c0.628,9.281,2.204,15.359-5.25,20.25C408.256,370.624,411.741,366.325,416.5,360.47z"/>
<path fill-rule="evenodd" clip-rule="evenodd" fill="#1D0E82" stroke="#000000" stroke-linecap="square" stroke-miterlimit="10" d="  M416.5,360.47c-8.23-0.374-14.826-0.966-21.75,3C402.979,365.078,409.386,363.12,416.5,360.47z"/>
<path fill-rule="evenodd" clip-rule="evenodd" fill="#1D0E82" stroke="#000000" stroke-linecap="square" stroke-miterlimit="10" d="  M474.25,449.72c-3.862,34.507,10.419,0.127,21.75,8.625c2.666,2,12,15.931,12,3.042C508,442.069,491.361,449.72,474.25,449.72z"/>
<path fill-rule="evenodd" clip-rule="evenodd" fill="#1C0B80" stroke="#000000" stroke-linecap="square" stroke-miterlimit="10" d="  M508,465.47c3.926-6.06,7.002-10.506,4.5-19.5C506.003,451.751,508.408,456.752,508,465.47z"/>
<path fill-rule="evenodd" clip-rule="evenodd" fill="#1C0B80" stroke="#000000" stroke-linecap="square" stroke-miterlimit="10" d="  M474.25,449.72c12.882,0,27.555,3.133,38.25-3.75C499.524,445.97,485.324,443.033,474.25,449.72z"/>
<path fill-rule="evenodd" clip-rule="evenodd" fill="#1C0B80" stroke="#000000" stroke-linecap="square" stroke-miterlimit="10" d="  M483.25,461.72c-1.719,0.422,1.792,3.354,5.25-4.5C486.494,457.883,484.642,461.378,483.25,461.72z"/>
<path fill-rule="evenodd" clip-rule="evenodd" fill="#F7DD15" stroke="#000000" stroke-linecap="square" stroke-miterlimit="10" d="  M504.25,412.22c0,13.812,1.726,26.568-4.5,37.5C499.75,437.099,495.801,420.924,504.25,412.22z"/>
<path fill-rule="evenodd" clip-rule="evenodd" fill="#F7F619" stroke="#000000" stroke-linecap="square" stroke-miterlimit="10" d="  M504.25,412.22c-8.239-0.347-14.816-0.971-21.75,3C490.758,416.948,497.28,414.873,504.25,412.22z"/>
<path fill-rule="evenodd" clip-rule="evenodd" fill="#F7F619" stroke="#000000" stroke-linecap="square" stroke-miterlimit="10" d="  M482.5,415.22c0,6.622-2.72,54.47,17.25,34.5C510.651,438.819,500.703,410.079,482.5,415.22z"/>
<path fill-rule="evenodd" clip-rule="evenodd" fill="#FB0F0C" stroke="#000000" stroke-linecap="square" stroke-miterlimit="10" d="  M493,395.72c-5.574,4.772-9.792,12.884-14.25,18.75c9.563,2.306,19.945,2.048,29.25-0.75  C503.277,408.053,498.742,400.308,493,395.72z"/>
<path fill-rule="evenodd" clip-rule="evenodd" fill="#FB0F0C" stroke="#000000" stroke-linecap="square" stroke-miterlimit="10" d="  M384.25,364.97c24.25,0,48.5,0,72.75,0C420.584,341.726,421.438,342.657,384.25,364.97z"/>
<path fill-rule="evenodd" clip-rule="evenodd" fill="#D21209" stroke="#000000" stroke-linecap="square" stroke-miterlimit="10" d="  M462.25,361.22c-11.684-7.059-28.621-23.821-41.25-18.75C432.569,349.701,450.147,367.835,462.25,361.22z"/>
<path fill-rule="evenodd" clip-rule="evenodd" fill="#724211" stroke="#000000" stroke-linecap="square" stroke-miterlimit="10" d="  M394.75,415.22c8.188,6.541,62.991,25.269,27.75,38.25C393.077,464.308,359.386,406.11,394.75,415.22z"/>
<path fill-rule="evenodd" clip-rule="evenodd" fill="#F4C0D7" stroke="#000000" stroke-linecap="square" stroke-miterlimit="10" d="  M419.5,448.97C453.275,444.409,396.453,418.367,419.5,448.97L419.5,448.97z"/>
<path fill-rule="evenodd" clip-rule="evenodd" fill="#724211" stroke="#000000" stroke-linecap="square" stroke-miterlimit="10" d="  M417.25,467.72c13.999-34.925,43.612,19.806,6.375,25.125C378.519,499.289,363.479,451.985,417.25,467.72z"/>
<path fill-rule="evenodd" clip-rule="evenodd" fill="#724211" stroke="#000000" stroke-linecap="square" stroke-miterlimit="10" d="  M339.25,442.22c-13.104,51.039,39.656,69.145,55.5,18C412.445,403.1,350.53,378.293,339.25,442.22z"/>
<path fill-rule="evenodd" clip-rule="evenodd" fill="#724211" stroke="#000000" stroke-linecap="square" stroke-miterlimit="10" d="  M379.75,474.47c16.687-35.676,41.634,25.5,3.75,25.5C334.401,499.97,318.022,452.684,379.75,474.47z"/>
<path fill-rule="evenodd" clip-rule="evenodd" fill="#F4C0D7" stroke="#000000" stroke-linecap="square" stroke-miterlimit="10" d="  M403,473.72c-11.873-12.117-22.006,8.013-14.25,18.75C398.247,505.617,405.442,482.068,403,473.72z"/>
<path fill-rule="evenodd" clip-rule="evenodd" fill="#724211" stroke="#000000" stroke-linecap="square" stroke-miterlimit="10" d="  M356.5,433.22c-10.831,8.691-16.612,18.111-25.875,27.375c-9.184,9.184-26.561,0.226-21-12.75  c5.27-12.297,22.071-32.116,36.375-34.5C360.142,410.988,363.91,423.094,356.5,433.22z"/>
<path fill-rule="evenodd" clip-rule="evenodd" fill="#724211" stroke="#000000" stroke-linecap="square" stroke-miterlimit="10" d="  M380.5,349.97c-10.065,11.511,3.701,33.011,17.25,21.75C411.751,360.084,394.578,343.13,380.5,349.97z"/>
<path fill-rule="evenodd" clip-rule="evenodd" fill="#F4C0D7" stroke="#000000" stroke-linecap="square" stroke-miterlimit="10" d="  M382.75,355.22C368.449,390.431,419.873,347.296,382.75,355.22L382.75,355.22z"/>
<path fill-rule="evenodd" clip-rule="evenodd" fill="#724211" stroke="#000000" stroke-linecap="square" stroke-miterlimit="10" d="  M333.25,358.97c0.401,16.129,24.15,22.232,27,4.5C363.007,346.315,338.779,343.804,333.25,358.97z"/>
<path fill-rule="evenodd" clip-rule="evenodd" fill="#F4C0D7" stroke="#000000" stroke-linecap="square" stroke-miterlimit="10" d="  M339.25,360.47C353.482,389.629,360.683,337.918,339.25,360.47L339.25,360.47z"/>
<path fill-rule="evenodd" clip-rule="evenodd" fill="#724211" stroke="#000000" stroke-linecap="square" stroke-miterlimit="10" d="  M339.25,378.47c-3.422,37.786,55.721,48.204,61.5,9.75C406.466,350.184,348.875,342.605,339.25,378.47z"/>
<path fill-rule="evenodd" clip-rule="evenodd" fill="#F4C0D7" stroke="#000000" stroke-linecap="square" stroke-miterlimit="10" d="  M368.5,383.72C381.445,393.137,383.451,377.965,368.5,383.72L368.5,383.72z"/>
<path fill-rule="evenodd" clip-rule="evenodd" fill="#724211" d="M388,391.97c-9.165,6.984-19.966,6.946-28.5-0.75  C369,391.47,378.5,391.72,388,391.97z"/>
<path fill="none" stroke="#000000" stroke-linecap="square" stroke-miterlimit="10" d="M388,391.97  c-9.165,6.984-19.966,6.946-28.5-0.75"/>
<path fill-rule="evenodd" clip-rule="evenodd" fill="#724211" d="M374.5,389.72v7.5V389.72z"/>
<line fill="none" stroke="#000000" stroke-linecap="square" stroke-miterlimit="10" x1="374.5" y1="389.72" x2="374.5" y2="397.22"/>
<path fill-rule="evenodd" clip-rule="evenodd" fill="#724211" stroke="#000000" stroke-linecap="square" stroke-miterlimit="10" d="  M383.5,378.47C387.942,379.067,387.367,378.99,383.5,378.47L383.5,378.47z"/>
<path fill-rule="evenodd" clip-rule="evenodd" fill="#724211" stroke="#000000" stroke-linecap="square" stroke-miterlimit="10" d="  M385,379.22C386.12,379.22,386.12,379.22,385,379.22L385,379.22z"/>
<path fill-rule="evenodd" clip-rule="evenodd" fill="#724211" stroke="#000000" stroke-linecap="square" stroke-miterlimit="10" d="  M385,379.22C386.644,380.107,385.642,379.566,385,379.22L385,379.22z"/>
<path fill-rule="evenodd" clip-rule="evenodd" fill="#724211" stroke="#000000" stroke-linecap="square" stroke-miterlimit="10" d="  M383.5,378.47C388.426,379.175,387.024,378.974,383.5,378.47L383.5,378.47z"/>
<path fill-rule="evenodd" clip-rule="evenodd" fill="#724211" stroke="#000000" stroke-linecap="square" stroke-miterlimit="10" d="  M384.25,378.47C387.118,379.069,387.912,379.234,384.25,378.47L384.25,378.47z"/>
<path fill-rule="evenodd" clip-rule="evenodd" fill="#724211" stroke="#000000" stroke-linecap="square" stroke-miterlimit="10" d="  M385.75,379.22C385.146,379.824,385.146,379.824,385.75,379.22L385.75,379.22z"/>
<path fill-rule="evenodd" clip-rule="evenodd" fill="#724211" stroke="#000000" stroke-linecap="square" stroke-miterlimit="10" d="  M384.25,378.47C387.022,379.488,387.327,379.6,384.25,378.47L384.25,378.47z"/>
<path fill-rule="evenodd" clip-rule="evenodd" fill="#724211" stroke="#000000" stroke-linecap="square" stroke-miterlimit="10" d="  M384.25,378.47C387.022,379.488,387.327,379.6,384.25,378.47L384.25,378.47z"/>
<path fill-rule="evenodd" clip-rule="evenodd" fill="#724211" stroke="#000000" stroke-linecap="square" stroke-miterlimit="10" d="  M384.25,378.47C387.684,379.743,386.242,379.208,384.25,378.47L384.25,378.47z"/>
<path fill-rule="evenodd" clip-rule="evenodd" fill="#724211" stroke="#000000" stroke-linecap="square" stroke-miterlimit="10" d="  M385,379.22C387.441,378.971,386.194,379.098,385,379.22L385,379.22z"/>
<path fill-rule="evenodd" clip-rule="evenodd" fill="#724211" stroke="#000000" stroke-linecap="square" stroke-miterlimit="10" d="  M385,379.22C386.647,379.22,386.647,379.22,385,379.22L385,379.22z"/>
<path fill-rule="evenodd" clip-rule="evenodd" fill="#724211" stroke="#000000" stroke-linecap="square" stroke-miterlimit="10" d="  M385,379.22C386.647,379.22,386.647,379.22,385,379.22L385,379.22z"/>
<path fill-rule="evenodd" clip-rule="evenodd" fill="#724211" stroke="#000000" stroke-linecap="square" stroke-miterlimit="10" d="  M385,379.22C386.12,379.22,386.12,379.22,385,379.22L385,379.22z"/>
<path fill-rule="evenodd" clip-rule="evenodd" fill="#724211" stroke="#000000" stroke-linecap="square" stroke-miterlimit="10" d="  M385,379.22C386.644,380.107,385.642,379.566,385,379.22L385,379.22z"/>
<path fill-rule="evenodd" clip-rule="evenodd" fill="#724211" stroke="#000000" stroke-linecap="square" stroke-miterlimit="10" d="  M383.5,378.47C388.426,379.175,387.024,378.974,383.5,378.47L383.5,378.47z"/>
<path fill-rule="evenodd" clip-rule="evenodd" fill="#724211" stroke="#000000" stroke-linecap="square" stroke-miterlimit="10" d="  M384.25,378.47C387.118,379.069,387.912,379.234,384.25,378.47L384.25,378.47z"/>
<path fill-rule="evenodd" clip-rule="evenodd" fill="#724211" stroke="#000000" stroke-linecap="square" stroke-miterlimit="10" d="  M385.75,379.22C385.146,379.824,385.146,379.824,385.75,379.22L385.75,379.22z"/>
<path fill-rule="evenodd" clip-rule="evenodd" fill="#724211" stroke="#000000" stroke-linecap="square" stroke-miterlimit="10" d="  M384.25,378.47C387.022,379.488,387.327,379.6,384.25,378.47L384.25,378.47z"/>
<path fill-rule="evenodd" clip-rule="evenodd" fill="#724211" stroke="#000000" stroke-linecap="square" stroke-miterlimit="10" d="  M384.25,378.47C387.022,379.488,387.327,379.6,384.25,378.47L384.25,378.47z"/>
<path fill-rule="evenodd" clip-rule="evenodd" fill="#724211" stroke="#000000" stroke-linecap="square" stroke-miterlimit="10" d="  M384.25,378.47C387.684,379.743,386.242,379.208,384.25,378.47L384.25,378.47z"/>
<path fill-rule="evenodd" clip-rule="evenodd" fill="#724211" stroke="#000000" stroke-linecap="square" stroke-miterlimit="10" d="  M385,379.22C387.441,378.971,386.194,379.098,385,379.22L385,379.22z"/>
<path fill-rule="evenodd" clip-rule="evenodd" fill="#724211" stroke="#000000" stroke-linecap="square" stroke-miterlimit="10" d="  M385,379.22C386.647,379.22,386.647,379.22,385,379.22L385,379.22z"/>
<path fill-rule="evenodd" clip-rule="evenodd" fill="#724211" stroke="#000000" stroke-linecap="square" stroke-miterlimit="10" d="  M385,379.22C386.647,379.22,386.647,379.22,385,379.22L385,379.22z"/>
<path fill-rule="evenodd" clip-rule="evenodd" fill="#724211" stroke="#000000" stroke-linecap="square" stroke-miterlimit="10" d="  M385,379.22C386.12,379.22,386.12,379.22,385,379.22L385,379.22z"/>
<path fill-rule="evenodd" clip-rule="evenodd" fill="#724211" stroke="#000000" stroke-linecap="square" stroke-miterlimit="10" d="  M385,379.22C385.604,379.824,385.604,379.824,385,379.22L385,379.22z"/>
<path fill-rule="evenodd" clip-rule="evenodd" fill="#724211" stroke="#000000" stroke-linecap="square" stroke-miterlimit="10" d="  M384.25,378.47C386.925,379.2,387.923,379.473,384.25,378.47L384.25,378.47z"/>
<path fill-rule="evenodd" clip-rule="evenodd" fill="#724211" stroke="#000000" stroke-linecap="square" stroke-miterlimit="10" d="  M384.25,378.47C387.711,379.251,387.172,379.129,384.25,378.47L384.25,378.47z"/>
<path fill-rule="evenodd" clip-rule="evenodd" fill="#724211" stroke="#000000" stroke-linecap="square" stroke-miterlimit="10" d="  M385.75,379.22C385.146,379.824,385.146,379.824,385.75,379.22L385.75,379.22z"/>
<path fill-rule="evenodd" clip-rule="evenodd" fill="#724211" stroke="#000000" stroke-linecap="square" stroke-miterlimit="10" d="  M384.25,378.47C386.884,379.511,386.87,379.506,384.25,378.47L384.25,378.47z"/>
<path fill-rule="evenodd" clip-rule="evenodd" fill="#724211" stroke="#000000" stroke-linecap="square" stroke-miterlimit="10" d="  M384.25,379.22C387.087,379.004,387.064,379.006,384.25,379.22L384.25,379.22z"/>
<path fill-rule="evenodd" clip-rule="evenodd" fill="#724211" stroke="#000000" stroke-linecap="square" stroke-miterlimit="10" d="  M384.25,379.22C387.087,379.004,387.064,379.006,384.25,379.22L384.25,379.22z"/>
<path fill-rule="evenodd" clip-rule="evenodd" fill="#724211" stroke="#000000" stroke-linecap="square" stroke-miterlimit="10" d="  M385,379.22C386.647,379.22,386.647,379.22,385,379.22L385,379.22z"/>
<path fill-rule="evenodd" clip-rule="evenodd" fill="#724211" stroke="#000000" stroke-linecap="square" stroke-miterlimit="10" d="  M385,379.22C386.647,379.22,386.647,379.22,385,379.22L385,379.22z"/>
<path fill-rule="evenodd" clip-rule="evenodd" fill="#724211" stroke="#000000" stroke-linecap="square" stroke-miterlimit="10" d="  M385,379.22C386.12,379.22,386.12,379.22,385,379.22L385,379.22z"/>
<path fill-rule="evenodd" clip-rule="evenodd" fill="#724211" stroke="#000000" stroke-linecap="square" stroke-miterlimit="10" d="  M385,379.22C385.604,379.824,385.604,379.824,385,379.22L385,379.22z"/>
<path fill-rule="evenodd" clip-rule="evenodd" fill="#724211" stroke="#000000" stroke-linecap="square" stroke-miterlimit="10" d="  M385,379.22C386,379.22,386,379.22,385,379.22L385,379.22z"/>
<path fill-rule="evenodd" clip-rule="evenodd" fill="#724211" stroke="#000000" stroke-linecap="square" stroke-miterlimit="10" d="  M384.25,378.47C386.481,379.383,387.042,379.613,384.25,378.47L384.25,378.47z"/>
<path fill-rule="evenodd" clip-rule="evenodd" fill="#724211" stroke="#000000" stroke-linecap="square" stroke-miterlimit="10" d="  M384.25,378.47C387.956,379.568,386.175,379.041,384.25,378.47L384.25,378.47z"/>
<path fill-rule="evenodd" clip-rule="evenodd" fill="#724211" stroke="#000000" stroke-linecap="square" stroke-miterlimit="10" d="  M385.75,379.22C384.75,379.22,384.75,379.22,385.75,379.22L385.75,379.22z"/>
<path fill-rule="evenodd" clip-rule="evenodd" fill="#724211" stroke="#000000" stroke-linecap="square" stroke-miterlimit="10" d="  M384.25,378.47C386.829,379.442,386.744,379.41,384.25,378.47L384.25,378.47z"/>
<path fill-rule="evenodd" clip-rule="evenodd" fill="#724211" stroke="#000000" stroke-linecap="square" stroke-miterlimit="10" d="  M384.25,379.22C386.503,379.009,387.218,378.942,384.25,379.22L384.25,379.22z"/>
<path fill-rule="evenodd" clip-rule="evenodd" fill="#724211" stroke="#000000" stroke-linecap="square" stroke-miterlimit="10" d="  M385,379.22C386.273,379.22,386.273,379.22,385,379.22L385,379.22z"/>
<path fill-rule="evenodd" clip-rule="evenodd" fill="#724211" stroke="#000000" stroke-linecap="square" stroke-miterlimit="10" d="  M385,379.22C384.407,379.276,387.276,379.006,385,379.22L385,379.22z"/>
<path fill-rule="evenodd" clip-rule="evenodd" fill="#724211" stroke="#000000" stroke-linecap="square" stroke-miterlimit="10" d="  M385,379.22C384.407,379.276,387.276,379.006,385,379.22L385,379.22z"/>
<path fill-rule="evenodd" clip-rule="evenodd" fill="#724211" stroke="#000000" stroke-linecap="square" stroke-miterlimit="10" d="  M385,379.22C385.604,379.824,385.604,379.824,385,379.22L385,379.22z"/>
<path fill-rule="evenodd" clip-rule="evenodd" fill="#724211" stroke="#000000" stroke-linecap="square" stroke-miterlimit="10" d="  M385,379.22C386,379.22,386,379.22,385,379.22L385,379.22z"/>
<path fill-rule="evenodd" clip-rule="evenodd" fill="#724211" stroke="#000000" stroke-linecap="square" stroke-miterlimit="10" d="  M385,379.22C386,379.22,386,379.22,385,379.22L385,379.22z"/>
<path fill-rule="evenodd" clip-rule="evenodd" fill="#724211" stroke="#000000" stroke-linecap="square" stroke-miterlimit="10" d="  M384.25,379.22C386.077,379.424,386.52,379.473,384.25,379.22L384.25,379.22z"/>
<path fill-rule="evenodd" clip-rule="evenodd" fill="#724211" stroke="#000000" stroke-linecap="square" stroke-miterlimit="10" d="  M385,379.22C384.407,379.276,387.276,379.006,385,379.22L385,379.22z"/>
<path fill-rule="evenodd" clip-rule="evenodd" fill="#724211" stroke="#000000" stroke-linecap="square" stroke-miterlimit="10" d="  M385.75,379.22C384.75,379.22,384.75,379.22,385.75,379.22L385.75,379.22z"/>
<path fill-rule="evenodd" clip-rule="evenodd" fill="#724211" stroke="#000000" stroke-linecap="square" stroke-miterlimit="10" d="  M385,379.22C385.537,379.22,385.537,379.22,385,379.22L385,379.22z"/>
<path fill-rule="evenodd" clip-rule="evenodd" fill="#724211" stroke="#000000" stroke-linecap="square" stroke-miterlimit="10" d="  M385,379.22C385.537,379.22,385.537,379.22,385,379.22L385,379.22z"/>
<path fill-rule="evenodd" clip-rule="evenodd" fill="#724211" stroke="#000000" stroke-linecap="square" stroke-miterlimit="10" d="  M385,379.22C385.604,378.617,385.604,378.617,385,379.22L385,379.22z"/>
<path fill-rule="evenodd" clip-rule="evenodd" fill="#724211" stroke="#000000" stroke-linecap="square" stroke-miterlimit="10" d="  M385,379.22C385.604,378.617,385.604,378.617,385,379.22L385,379.22z"/>
<path fill-rule="evenodd" clip-rule="evenodd" fill="#724211" stroke="#000000" stroke-linecap="square" stroke-miterlimit="10" d="  M385,379.22C386,379.22,386,379.22,385,379.22L385,379.22z"/>
<path fill-rule="evenodd" clip-rule="evenodd" fill="#724211" stroke="#000000" stroke-linecap="square" stroke-miterlimit="10" d="  M385,379.22C386,379.22,386,379.22,385,379.22L385,379.22z"/>
<path fill-rule="evenodd" clip-rule="evenodd" fill="#724211" stroke="#000000" stroke-linecap="square" stroke-miterlimit="10" d="  M359.5,378.47C363.754,379.681,363.921,379.729,359.5,378.47L359.5,378.47z"/>
<path fill-rule="evenodd" clip-rule="evenodd" fill="#724211" stroke="#000000" stroke-linecap="square" stroke-miterlimit="10" d="  M361,379.97C361.642,379.624,362.644,379.083,361,379.97L361,379.97z"/>
<path fill-rule="evenodd" clip-rule="evenodd" fill="#724211" stroke="#000000" stroke-linecap="square" stroke-miterlimit="10" d="  M361,379.97C361.642,379.624,362.644,379.083,361,379.97L361,379.97z"/>
<path fill-rule="evenodd" clip-rule="evenodd" fill="#724211" stroke="#000000" stroke-linecap="square" stroke-miterlimit="10" d="  M359.5,379.22C364.062,379.144,363.48,379.154,359.5,379.22L359.5,379.22z"/>
<path fill-rule="evenodd" clip-rule="evenodd" fill="#724211" stroke="#000000" stroke-linecap="square" stroke-miterlimit="10" d="  M360.25,379.22C363.562,379.203,363.564,379.203,360.25,379.22L360.25,379.22z"/>
<path fill-rule="evenodd" clip-rule="evenodd" fill="#724211" stroke="#000000" stroke-linecap="square" stroke-miterlimit="10" d="  M361.75,379.97C361.146,379.367,361.146,379.367,361.75,379.97L361.75,379.97z"/>
<path fill-rule="evenodd" clip-rule="evenodd" fill="#724211" stroke="#000000" stroke-linecap="square" stroke-miterlimit="10" d="  M360.25,379.22C363.893,379.767,362.976,379.629,360.25,379.22L360.25,379.22z"/>
<path fill-rule="evenodd" clip-rule="evenodd" fill="#724211" stroke="#000000" stroke-linecap="square" stroke-miterlimit="10" d="  M360.25,379.22C363.711,380.001,363.172,379.879,360.25,379.22L360.25,379.22z"/>
<path fill-rule="evenodd" clip-rule="evenodd" fill="#724211" stroke="#000000" stroke-linecap="square" stroke-miterlimit="10" d="  M360.25,379.22C363.832,380.042,362.492,379.735,360.25,379.22L360.25,379.22z"/>
<path fill-rule="evenodd" clip-rule="evenodd" fill="#724211" stroke="#000000" stroke-linecap="square" stroke-miterlimit="10" d="  M361,379.22C363.119,379.592,361.903,379.379,361,379.22L361,379.22z"/>
<path fill-rule="evenodd" clip-rule="evenodd" fill="#724211" stroke="#000000" stroke-linecap="square" stroke-miterlimit="10" d="  M361,379.22C363.571,379.957,361.696,379.419,361,379.22L361,379.22z"/>
<path fill-rule="evenodd" clip-rule="evenodd" fill="#724211" stroke="#000000" stroke-linecap="square" stroke-miterlimit="10" d="  M361,379.97C361.642,379.624,362.644,379.083,361,379.97L361,379.97z"/>
<path fill-rule="evenodd" clip-rule="evenodd" fill="#724211" stroke="#000000" stroke-linecap="square" stroke-miterlimit="10" d="  M361,379.97C361.642,379.624,362.644,379.083,361,379.97L361,379.97z"/>
<path fill-rule="evenodd" clip-rule="evenodd" fill="#724211" stroke="#000000" stroke-linecap="square" stroke-miterlimit="10" d="  M361,379.97C361.642,379.624,362.644,379.083,361,379.97L361,379.97z"/>
<path fill-rule="evenodd" clip-rule="evenodd" fill="#724211" stroke="#000000" stroke-linecap="square" stroke-miterlimit="10" d="  M359.5,379.22C364.062,379.144,363.48,379.154,359.5,379.22L359.5,379.22z"/>
<path fill-rule="evenodd" clip-rule="evenodd" fill="#724211" stroke="#000000" stroke-linecap="square" stroke-miterlimit="10" d="  M360.25,379.22C363.562,379.203,363.564,379.203,360.25,379.22L360.25,379.22z"/>
<path fill-rule="evenodd" clip-rule="evenodd" fill="#724211" stroke="#000000" stroke-linecap="square" stroke-miterlimit="10" d="  M361.75,379.97C361.146,379.367,361.146,379.367,361.75,379.97L361.75,379.97z"/>
<path fill-rule="evenodd" clip-rule="evenodd" fill="#724211" stroke="#000000" stroke-linecap="square" stroke-miterlimit="10" d="  M360.25,379.22C363.893,379.767,362.976,379.629,360.25,379.22L360.25,379.22z"/>
<path fill-rule="evenodd" clip-rule="evenodd" fill="#724211" stroke="#000000" stroke-linecap="square" stroke-miterlimit="10" d="  M360.25,379.22C363.711,380.001,363.172,379.879,360.25,379.22L360.25,379.22z"/>
<path fill-rule="evenodd" clip-rule="evenodd" fill="#724211" stroke="#000000" stroke-linecap="square" stroke-miterlimit="10" d="  M360.25,379.22C363.832,380.042,362.492,379.735,360.25,379.22L360.25,379.22z"/>
<path fill-rule="evenodd" clip-rule="evenodd" fill="#724211" stroke="#000000" stroke-linecap="square" stroke-miterlimit="10" d="  M361,379.22C363.119,379.592,361.903,379.379,361,379.22L361,379.22z"/>
<path fill-rule="evenodd" clip-rule="evenodd" fill="#724211" stroke="#000000" stroke-linecap="square" stroke-miterlimit="10" d="  M361,379.22C363.571,379.957,361.696,379.419,361,379.22L361,379.22z"/>
<path fill-rule="evenodd" clip-rule="evenodd" fill="#724211" stroke="#000000" stroke-linecap="square" stroke-miterlimit="10" d="  M361,379.97C361.642,379.624,362.644,379.083,361,379.97L361,379.97z"/>
<path fill-rule="evenodd" clip-rule="evenodd" fill="#724211" stroke="#000000" stroke-linecap="square" stroke-miterlimit="10" d="  M361,379.97C361.642,379.624,362.644,379.083,361,379.97L361,379.97z"/>
<path fill-rule="evenodd" clip-rule="evenodd" fill="#724211" stroke="#000000" stroke-linecap="square" stroke-miterlimit="10" d="  M361,379.97C361.642,379.624,362.644,379.083,361,379.97L361,379.97z"/>
<path fill-rule="evenodd" clip-rule="evenodd" fill="#724211" stroke="#000000" stroke-linecap="square" stroke-miterlimit="10" d="  M360.25,379.22C363.512,379.102,362.788,379.128,360.25,379.22L360.25,379.22z"/>
<path fill-rule="evenodd" clip-rule="evenodd" fill="#724211" stroke="#000000" stroke-linecap="square" stroke-miterlimit="10" d="  M360.25,379.22C363.332,379.444,363.538,379.459,360.25,379.22L360.25,379.22z"/>
<path fill-rule="evenodd" clip-rule="evenodd" fill="#724211" stroke="#000000" stroke-linecap="square" stroke-miterlimit="10" d="  M361.75,379.97C361.146,379.367,361.146,379.367,361.75,379.97L361.75,379.97z"/>
<path fill-rule="evenodd" clip-rule="evenodd" fill="#724211" stroke="#000000" stroke-linecap="square" stroke-miterlimit="10" d="  M360.25,379.22C362.914,379.859,363.146,379.915,360.25,379.22L360.25,379.22z"/>
<path fill-rule="evenodd" clip-rule="evenodd" fill="#724211" stroke="#000000" stroke-linecap="square" stroke-miterlimit="10" d="  M360.25,379.22C362.914,379.859,363.146,379.915,360.25,379.22L360.25,379.22z"/>
<path fill-rule="evenodd" clip-rule="evenodd" fill="#724211" stroke="#000000" stroke-linecap="square" stroke-miterlimit="10" d="  M360.25,379.22C362.61,379.799,362.842,379.856,360.25,379.22L360.25,379.22z"/>
<path fill-rule="evenodd" clip-rule="evenodd" fill="#724211" stroke="#000000" stroke-linecap="square" stroke-miterlimit="10" d="  M361,379.22C363.571,379.957,361.696,379.419,361,379.22L361,379.22z"/>
<path fill-rule="evenodd" clip-rule="evenodd" fill="#724211" stroke="#000000" stroke-linecap="square" stroke-miterlimit="10" d="  M361,379.22C362.856,380.194,362.429,379.97,361,379.22L361,379.22z"/>
<path fill-rule="evenodd" clip-rule="evenodd" fill="#724211" stroke="#000000" stroke-linecap="square" stroke-miterlimit="10" d="  M361,379.97C361.642,379.624,362.644,379.083,361,379.97L361,379.97z"/>
<path fill-rule="evenodd" clip-rule="evenodd" fill="#724211" stroke="#000000" stroke-linecap="square" stroke-miterlimit="10" d="  M361,379.97C361.642,379.624,362.644,379.083,361,379.97L361,379.97z"/>
<path fill-rule="evenodd" clip-rule="evenodd" fill="#724211" stroke="#000000" stroke-linecap="square" stroke-miterlimit="10" d="  M361,379.97C361.604,379.367,361.604,379.367,361,379.97L361,379.97z"/>
<path fill-rule="evenodd" clip-rule="evenodd" fill="#724211" stroke="#000000" stroke-linecap="square" stroke-miterlimit="10" d="  M360.25,379.22C362.464,379.553,363.555,379.717,360.25,379.22L360.25,379.22z"/>
<path fill-rule="evenodd" clip-rule="evenodd" fill="#724211" stroke="#000000" stroke-linecap="square" stroke-miterlimit="10" d="  M360.25,379.22C361.792,379.316,363.917,379.448,360.25,379.22L360.25,379.22z"/>
<path fill-rule="evenodd" clip-rule="evenodd" fill="#724211" stroke="#000000" stroke-linecap="square" stroke-miterlimit="10" d="  M361.75,379.97C361.146,379.367,361.146,379.367,361.75,379.97L361.75,379.97z"/>
<path fill-rule="evenodd" clip-rule="evenodd" fill="#724211" stroke="#000000" stroke-linecap="square" stroke-miterlimit="10" d="  M360.25,379.22C362.22,379.702,363.116,379.921,360.25,379.22L360.25,379.22z"/>
<path fill-rule="evenodd" clip-rule="evenodd" fill="#724211" stroke="#000000" stroke-linecap="square" stroke-miterlimit="10" d="  M360.25,379.22C362.61,379.799,362.842,379.856,360.25,379.22L360.25,379.22z"/>
<path fill-rule="evenodd" clip-rule="evenodd" fill="#724211" stroke="#000000" stroke-linecap="square" stroke-miterlimit="10" d="  M360.25,379.22C363.108,379.7,362.246,379.556,360.25,379.22L360.25,379.22z"/>
<path fill-rule="evenodd" clip-rule="evenodd" fill="#724211" stroke="#000000" stroke-linecap="square" stroke-miterlimit="10" d="  M361,379.22C361.824,380.044,361.824,380.044,361,379.22L361,379.22z"/>
<path fill-rule="evenodd" clip-rule="evenodd" fill="#724211" stroke="#000000" stroke-linecap="square" stroke-miterlimit="10" d="  M361,379.22C361.824,380.044,361.824,380.044,361,379.22L361,379.22z"/>
<path fill-rule="evenodd" clip-rule="evenodd" fill="#724211" stroke="#000000" stroke-linecap="square" stroke-miterlimit="10" d="  M361,379.97C361.642,379.624,362.644,379.083,361,379.97L361,379.97z"/>
<path fill-rule="evenodd" clip-rule="evenodd" fill="#724211" stroke="#000000" stroke-linecap="square" stroke-miterlimit="10" d="  M361,379.97C361.604,379.367,361.604,379.367,361,379.97L361,379.97z"/>
<path fill-rule="evenodd" clip-rule="evenodd" fill="#724211" stroke="#000000" stroke-linecap="square" stroke-miterlimit="10" d="  M361,379.97C361,378.97,361,378.97,361,379.97L361,379.97z"/>
<path fill-rule="evenodd" clip-rule="evenodd" fill="#724211" stroke="#000000" stroke-linecap="square" stroke-miterlimit="10" d="  M360.25,379.22C362.821,379.957,360.946,379.419,360.25,379.22L360.25,379.22z"/>
<path fill-rule="evenodd" clip-rule="evenodd" fill="#724211" stroke="#000000" stroke-linecap="square" stroke-miterlimit="10" d="  M361,379.22C360.407,379.276,363.276,379.006,361,379.22L361,379.22z"/>
<path fill-rule="evenodd" clip-rule="evenodd" fill="#724211" stroke="#000000" stroke-linecap="square" stroke-miterlimit="10" d="  M361.75,379.97C360.75,379.97,360.75,379.97,361.75,379.97L361.75,379.97z"/>
<path fill-rule="evenodd" clip-rule="evenodd" fill="#724211" stroke="#000000" stroke-linecap="square" stroke-miterlimit="10" d="  M361,379.22C361.346,379.862,361.887,380.864,361,379.22L361,379.22z"/>
<path fill-rule="evenodd" clip-rule="evenodd" fill="#724211" stroke="#000000" stroke-linecap="square" stroke-miterlimit="10" d="  M361,379.22C361.346,379.862,361.887,380.864,361,379.22L361,379.22z"/>
<path fill-rule="evenodd" clip-rule="evenodd" fill="#724211" stroke="#000000" stroke-linecap="square" stroke-miterlimit="10" d="  M361,379.22C361.346,379.862,361.887,380.864,361,379.22L361,379.22z"/>
<path fill-rule="evenodd" clip-rule="evenodd" fill="#724211" stroke="#000000" stroke-linecap="square" stroke-miterlimit="10" d="  M361,379.22C361.346,379.862,361.887,380.864,361,379.22L361,379.22z"/>
<path fill-rule="evenodd" clip-rule="evenodd" fill="#724211" stroke="#000000" stroke-linecap="square" stroke-miterlimit="10" d="  M361,379.22C361.346,379.862,361.887,380.864,361,379.22L361,379.22z"/>
<path fill-rule="evenodd" clip-rule="evenodd" fill="#724211" stroke="#000000" stroke-linecap="square" stroke-miterlimit="10" d="  M361,379.97C361.604,379.367,361.604,379.367,361,379.97L361,379.97z"/>
<path fill-rule="evenodd" clip-rule="evenodd" fill="#F4C0D7" stroke="#000000" stroke-linecap="square" stroke-miterlimit="10" d="  M442,471.47c-4.315-16.714-14.25-11.227-14.25,4.125C427.75,495.473,441.655,487.09,442,471.47z"/>
<path fill-rule="evenodd" clip-rule="evenodd" fill="#724211" d="M418.75,467.72C417.927,473.485,417.927,473.485,418.75,467.72  L418.75,467.72z"/>
<path fill="none" stroke="#000000" stroke-linecap="square" stroke-miterlimit="10" d="M418.75,467.72c-0.25,1.75-0.5,3.5-0.75,5.25  "/>
<path fill-rule="evenodd" clip-rule="evenodd" fill="#724211" d="M380.5,474.47C379.572,479.348,379.775,478.282,380.5,474.47  L380.5,474.47z"/>
<path fill="none" stroke="#000000" stroke-linecap="square" stroke-miterlimit="10" d="M380.5,474.47  c0.061,1.288-0.189,2.538-0.75,3.75"/>
<path fill-rule="evenodd" clip-rule="evenodd" fill="#F8130D" stroke="#000000" stroke-linecap="square" stroke-miterlimit="10" d="  M429.25,448.22c-32.723-0.461-32.667,45.42-4.5,54.75C420.6,483.923,421.04,466.207,429.25,448.22z"/>
<path fill-rule="evenodd" clip-rule="evenodd" fill="#200F75" stroke="#000000" stroke-linecap="square" stroke-miterlimit="10" d="  M471.25,484.22c-1.738-19.408-14.599-36.357-34.5-39.75c-0.646,1.872,2.262-1.5-3,3c8.199,16.73,16.005,35.848,15.75,54.75  C458.434,498.511,465.84,492.348,471.25,484.22z"/>
<path fill-rule="evenodd" clip-rule="evenodd" fill="#2F982F" stroke="#000000" stroke-linecap="square" stroke-miterlimit="10" d="  M429.25,448.22c-7.052,16.215-16.616,53.868,6.75,56.25C464.984,507.424,440.362,452.477,429.25,448.22z"/>
<path fill-rule="evenodd" clip-rule="evenodd" fill="#F7F619" stroke="#000000" stroke-linecap="square" stroke-miterlimit="10" d="  M431.5,448.22c19.714-11.708,38.179,18.457,39.75,36C487.29,454.403,449.979,415.689,431.5,448.22z"/>
<path fill-rule="evenodd" clip-rule="evenodd" fill="#F7F619" stroke="#000000" stroke-linecap="square" stroke-miterlimit="10" d="  M432.25,447.47c-22.869,0.476-30.178,20.205-28.5,40.5C385.753,459.929,418.843,419.95,432.25,447.47z"/>
<path fill-rule="evenodd" clip-rule="evenodd" fill="#200F75" stroke="#000000" stroke-linecap="square" stroke-miterlimit="10" d="  M419.5,428.72c-8.941,4.406-15.91,11.349-20.25,20.25c8.003-7.86,18.663-10.364,29.25-6.75  C427.062,436.252,423.835,432.578,419.5,428.72z"/>
<path fill-rule="evenodd" clip-rule="evenodd" fill="#F8130D" stroke="#000000" stroke-linecap="square" stroke-miterlimit="10" d="  M442.75,425.72c-6.223,5.675-10.811,10.133-10.5,19.5c10.236-10.038,24.424-8.862,36.75-3  C462.577,433.686,453.226,427.769,442.75,425.72z"/>
<path fill-rule="evenodd" clip-rule="evenodd" fill="#2F982F" stroke="#000000" stroke-linecap="square" stroke-miterlimit="10" d="  M442.75,425.72c-8.205-1.397-15.681-0.744-23.25,3c2.908,5.141,8.477,12.705,12.75,16.5  C431.91,434.982,437.688,432.505,442.75,425.72z"/>
<path fill-rule="evenodd" clip-rule="evenodd" fill="#200F75" stroke="#000000" stroke-linecap="square" stroke-miterlimit="10" d="  M419.5,447.47c5.991,5.617,28.776,5.04,22.5-8.25C435.768,426.023,420.071,437.934,419.5,447.47z"/>
</svg>