<svg xmlns="http://www.w3.org/2000/svg" xmlns:xlink="http://www.w3.org/1999/xlink" version="1.1" id="Layer_1" x="0px" y="0px" enable-background="new 0 0 822.05 841.89" xml:space="preserve" viewBox="267.65 242.83 293.42 354.18">
<path fill-rule="evenodd" clip-rule="evenodd" fill="#70C8BB" stroke="#000000" stroke-width="2" stroke-linecap="square" stroke-miterlimit="10" d="  M300.8,389.712c-13.103,26.473-50.446,65.848-21.281,83.744c22.688,13.922,45.375,27.844,68.062,41.766  c3.781,2.32,10.875,8.642,15.469,9.492c4.198,0.777,14.432-15.916,18.14-12.737c32.657,27.991,65.315,55.983,97.973,83.975  c2.681,2.298,67.89-66.907,75.89-74.987c-46.813-36.01-93.626-72.021-140.439-108.031c-16.367-12.59-26.314,13.356-46.377-4.849  C340.079,382.535,338.416,383.325,300.8,389.712z"/>
<path fill-rule="evenodd" clip-rule="evenodd" fill="#70C8BB" d="M381.05,419.712c-17.01,16.524-34.02,33.049-51.03,49.574  c-4.523,4.394,28.363,50.718,33.03,58.428C369.05,491.713,375.05,455.713,381.05,419.712z"/>
<path fill="none" stroke="#000000" stroke-width="2" stroke-linecap="square" stroke-miterlimit="10" d="M381.05,419.712  c-17.01,16.524-34.02,33.049-51.03,49.574c-4.523,4.394,28.363,50.718,33.03,58.428"/>
<path fill-rule="evenodd" clip-rule="evenodd" fill="#70C8BB" d="M328.55,470.714l167.252,109.5L328.55,470.714z"/>
<line fill="none" stroke="#000000" stroke-width="2" stroke-linecap="square" stroke-miterlimit="10" x1="328.55" y1="470.714" x2="495.802" y2="580.214"/>
<path fill-rule="evenodd" clip-rule="evenodd" fill="#70C8BB" stroke="#000000" stroke-width="2" stroke-linecap="square" stroke-miterlimit="10" d="  M409.55,262.212c-27.697,5.287-53.777,24.784-78.367,37.841c-29.948,15.901-19.401,40.919-19.689,74.048  c-0.313,36.085,29.202,28.414,62.339,35.236c39.919,8.219-7.691-35.068-17.533-45.125c10-9.5,20-19,30-28.5  c0.396,12.36,1.271,116.903,4.927,117.049c43.608,1.734,87.217,3.469,130.825,5.203c-10,2.5-20,5-30,7.5  c17.47,23.924,67.515-19.041,66.685-37.454c-1.24-27.481,7.428-80.504-7.879-103.464c-11.93-17.895-23.86-35.79-35.79-53.685  c-11.111-16.667-15.286-4.731-32.016-12.398c-4.827-2.212,5.12-13.5-2.682-13.5c-10.857,0-21.714,0-32.57,0  C429.978,244.962,407.887,237.211,409.55,262.212z"/>
<path fill-rule="evenodd" clip-rule="evenodd" fill="#70C8BB" d="M312.05,310.212l44.25,54L312.05,310.212z"/>
<line fill="none" stroke="#000000" stroke-width="2" stroke-linecap="square" stroke-miterlimit="10" x1="312.05" y1="310.212" x2="356.3" y2="364.212"/>
<path fill-rule="evenodd" clip-rule="evenodd" fill="#70C8BB" d="M416.298,247.212c31.441,12.146,35.248,11.73,66.004-2.25  C460.301,245.712,438.299,246.462,416.298,247.212z"/>
<path fill="none" stroke="#000000" stroke-width="2" stroke-linecap="square" stroke-miterlimit="10" d="M416.298,247.212  c31.441,12.146,35.248,11.73,66.004-2.25"/>
<path fill-rule="evenodd" clip-rule="evenodd" fill="#70C8BB" d="M447.052,260.712l3,194.252L447.052,260.712z"/>
<line fill="none" stroke="#000000" stroke-width="2" stroke-linecap="square" stroke-miterlimit="10" x1="447.052" y1="260.712" x2="450.052" y2="454.964"/>
<path fill-rule="evenodd" clip-rule="evenodd" fill="#70C8BB" d="M507.802,259.962l13.5,195.752L507.802,259.962z"/>
<line fill="none" stroke="#000000" stroke-width="2" stroke-linecap="square" stroke-miterlimit="10" x1="507.802" y1="259.962" x2="521.302" y2="455.714"/>
<path fill-rule="evenodd" clip-rule="evenodd" fill="#70C8BB" d="M517.552,388.962l36-54.75L517.552,388.962z"/>
<line fill="none" stroke="#000000" stroke-width="2" stroke-linecap="square" stroke-miterlimit="10" x1="517.552" y1="388.962" x2="553.552" y2="334.212"/>
<path fill-rule="evenodd" clip-rule="evenodd" fill="#70C8BB" d="M405.8,264.462l-21.75,75.75L405.8,264.462z"/>
<line fill="none" stroke="#000000" stroke-width="2" stroke-linecap="square" stroke-miterlimit="10" x1="405.8" y1="264.462" x2="384.05" y2="340.212"/>
</svg>