<svg xmlns="http://www.w3.org/2000/svg" xmlns:xlink="http://www.w3.org/1999/xlink" version="1.1" id="Layer_1" x="0px" y="0px" enable-background="new 0 0 822.05 841.89" xml:space="preserve" viewBox="247.24 278.83 326.38 285.28">
<path fill-rule="evenodd" clip-rule="evenodd" fill="#7BD3F7" stroke="#000000" stroke-width="2" stroke-linecap="square" stroke-miterlimit="10" d="  M342.736,355.577c-71.248,20.446-122.045,96.463-75.375,163.875c44.982,64.975,141.97,45.562,202.5,17.625  c47.156-21.765,136.789-99.703,89.25-156.75C513.413,325.489,401.762,332.348,342.736,355.577z"/>
<path fill="none" stroke="#000000" stroke-width="2" stroke-linecap="square" stroke-miterlimit="10" d="M248.236,447.077  c43.386,193.079,386.127,6.204,279-89.25"/>
<path fill-rule="evenodd" clip-rule="evenodd" fill="#0071BC" stroke="#000000" stroke-width="2" stroke-linecap="square" stroke-miterlimit="10" d="  M317.236,393.827c-4.566,67.428,105.446,79.257,135.75,30c25.63-41.66-18.836-71.81-53.625-81.75  C365.007,332.261,333.17,369.07,317.236,393.827z"/>
<path fill-rule="evenodd" clip-rule="evenodd" fill="#ED1C24" stroke="#000000" stroke-width="2" stroke-linecap="square" stroke-miterlimit="10" d="  M469.486,279.827c9.75,2.25,19.5,4.5,29.25,6.75c-8.992,18.392-17.983,36.784-26.976,55.177c-8.872,18.148,2.3,18.566,17.976,30.323  c-16,5-32,10-48,15c-4.5-16.75-9-33.5-13.5-50.25c5.479,5.381,14.756,7.467,21,12C455.986,325.827,462.736,302.827,469.486,279.827z  "/>
</svg>