<svg xmlns="http://www.w3.org/2000/svg" xmlns:xlink="http://www.w3.org/1999/xlink" version="1.1" id="Layer_1" x="0px" y="0px" enable-background="new 0 0 822.05 841.89" xml:space="preserve" viewBox="301.5 354.73 218.75 134.93">
<line fill="none" stroke="#000000" stroke-width="1.25" stroke-linecap="square" stroke-miterlimit="10" x1="434.125" y1="468.035" x2="407.125" y2="489.035"/>
<line fill="none" stroke="#000000" stroke-width="1.25" stroke-linecap="square" stroke-miterlimit="10" x1="413.875" y1="468.035" x2="387.625" y2="489.035"/>
<line fill="none" stroke="#000000" stroke-width="1.25" stroke-linecap="square" stroke-miterlimit="10" x1="393.625" y1="468.035" x2="367.375" y2="489.035"/>
<line fill="none" stroke="#000000" stroke-width="1.25" stroke-linecap="square" stroke-miterlimit="10" x1="373.375" y1="468.035" x2="347.125" y2="489.035"/>
<line fill="none" stroke="#000000" stroke-width="1.25" stroke-linecap="square" stroke-miterlimit="10" x1="353.875" y1="468.035" x2="326.875" y2="489.035"/>
<line fill="none" stroke="#000000" stroke-width="1.25" stroke-linecap="square" stroke-miterlimit="10" x1="333.625" y1="468.035" x2="306.625" y2="489.035"/>
<line fill="none" stroke="#000000" stroke-width="1.25" stroke-linecap="square" stroke-miterlimit="10" x1="494.125" y1="468.035" x2="467.875" y2="489.035"/>
<line fill="none" stroke="#000000" stroke-width="1.25" stroke-linecap="square" stroke-miterlimit="10" x1="473.875" y1="468.035" x2="447.625" y2="489.035"/>
<line fill="none" stroke="#000000" stroke-width="1.25" stroke-linecap="square" stroke-miterlimit="10" x1="453.625" y1="468.035" x2="427.375" y2="489.035"/>
<line fill="none" stroke="#000000" stroke-width="1.25" stroke-linecap="square" stroke-miterlimit="10" x1="514.375" y1="468.035" x2="487.375" y2="489.035"/>
<line fill="none" stroke="#000000" stroke-width="1.25" stroke-linecap="square" stroke-miterlimit="10" x1="302.125" y1="481.535" x2="509.125" y2="481.535"/>
<line fill="none" stroke="#000000" stroke-width="1.25" stroke-linecap="square" stroke-miterlimit="10" x1="310.375" y1="472.535" x2="519.625" y2="472.535"/>
<path fill-rule="evenodd" clip-rule="evenodd" fill="#D2D1D2" stroke="#000000" stroke-width="1.25" stroke-linecap="square" stroke-miterlimit="10" d="  M409.375,371.285c-7.467-9.229-18.775-22.66-30.75-12c-22.043-13.293-39.151,38.354-4.5,22.5c-1.27,6.036,0.386,11.537,0,15.75  C379.372,373.735,399.962,390.458,409.375,371.285z"/>
<path fill-rule="evenodd" clip-rule="evenodd" fill="#F8130D" stroke="#000000" stroke-width="1.25" stroke-linecap="square" stroke-miterlimit="10" d="  M363.625,434.285c-12.553,1.069-17.162,11.272-25.5,21C357.591,459.831,371.629,454.867,363.625,434.285z"/>
<path fill-rule="evenodd" clip-rule="evenodd" fill="#F8130D" stroke="#000000" stroke-width="1.25" stroke-linecap="square" stroke-miterlimit="10" d="  M464.875,420.035c-11.574,0-23.148,0-34.723,0c-3.823,0-6.111-32.191-2.777-35.25c4.174-3.829,28.663,0,34.723,0  C468.077,384.785,464.875,413.655,464.875,420.035z"/>
<path fill-rule="evenodd" clip-rule="evenodd" fill="#F8130D" stroke="#000000" stroke-width="1.25" stroke-linecap="square" stroke-miterlimit="10" d="  M365.875,420.035c19.056,5.998,28.076-5.02,29.25-23.25c-11.75,0.25-23.5,0.5-35.25,0.75  C361.778,404.671,362.682,413.4,365.875,420.035z"/>
<path fill-rule="evenodd" clip-rule="evenodd" fill="#F8130D" stroke="#000000" stroke-width="1.25" stroke-linecap="square" stroke-miterlimit="10" d="  M398.875,397.535C306.685,397.535,396.657,378.202,398.875,397.535L398.875,397.535z"/>
<path fill-rule="evenodd" clip-rule="evenodd" fill="#F8130D" stroke="#000000" stroke-width="1.25" stroke-linecap="square" stroke-miterlimit="10" d="  M353.875,419.285c27.407,0,54.815,0,82.223,0c34.001,0,28.806,0.667,30.277,35.25c-18.424-0.196-36.848-0.392-55.272-0.588  c-24.573-0.262-8.22,13.699-36.876,12.366C356.678,465.497,366.688,431.527,353.875,419.285z"/>
<path fill-rule="evenodd" clip-rule="evenodd" fill="#F8130D" stroke="#000000" stroke-width="1.25" stroke-linecap="square" stroke-miterlimit="10" d="  M422.875,376.535c-0.666,16.182,34.578,8.25,48,8.25C460.877,370.304,439.042,376.535,422.875,376.535z"/>
<path fill-rule="evenodd" clip-rule="evenodd" fill="#8ED4E5" stroke="#000000" stroke-width="1.25" stroke-linecap="square" stroke-miterlimit="10" d="  M437.875,409.535C474.671,420.036,433.805,367.788,437.875,409.535L437.875,409.535z"/>
<path fill-rule="evenodd" clip-rule="evenodd" stroke="#000000" stroke-width="1.25" stroke-linecap="square" stroke-miterlimit="10" d="  M407.875,467.285c-3.352,15.664-27.048,18.277-27.75,0C379.4,448.415,404.998,450.434,407.875,467.285z"/>
<path fill-rule="evenodd" clip-rule="evenodd" stroke="#000000" stroke-width="1.25" stroke-linecap="square" stroke-miterlimit="10" d="  M380.125,467.285c-3.714,15.039-27.032,18.679-27.75,0C351.654,448.538,377.375,450.418,380.125,467.285z"/>
<path fill-rule="evenodd" clip-rule="evenodd" fill="#F7F619" stroke="#000000" stroke-width="1.5" stroke-linecap="square" stroke-miterlimit="10" d="  M398.875,466.535C388.341,468.414,387.778,465.28,398.875,466.535L398.875,466.535z"/>
<path fill-rule="evenodd" clip-rule="evenodd" fill="#F7F619" stroke="#000000" stroke-width="1.5" stroke-linecap="square" stroke-miterlimit="10" d="  M371.125,467.285C360.309,468.417,360.727,465.23,371.125,467.285L371.125,467.285z"/>
<path fill-rule="evenodd" clip-rule="evenodd" stroke="#000000" stroke-width="1.25" stroke-linecap="square" stroke-miterlimit="10" d="  M458.875,456.035c-2.548,31.033-48.811,31.881-48.75,0C410.186,424.133,455.854,425.281,458.875,456.035z"/>
<path fill-rule="evenodd" clip-rule="evenodd" fill="#F7F619" stroke="#000000" stroke-width="1.25" stroke-linecap="square" stroke-miterlimit="10" d="  M443.875,456.035C424.641,491.962,424.641,420.107,443.875,456.035L443.875,456.035z"/>
</svg>