<svg xmlns="http://www.w3.org/2000/svg" xmlns:xlink="http://www.w3.org/1999/xlink" version="1.1" id="Layer_1" x="0px" y="0px" enable-background="new 0 0 822.05 841.89" xml:space="preserve" viewBox="216.34 327.24 390.25 189.65">
<path fill-rule="evenodd" clip-rule="evenodd" fill="#E4BE9D" stroke="#000000" stroke-width="2" stroke-linecap="square" stroke-miterlimit="10" d="  M218.312,417.64c77.508-27.874,155.016-55.747,232.523-83.621c35.299-12.694,129.244-6.026,146.977,35.621  c12.528,29.425-166.588,96.439-195.907,110.498c-34.75,16.662-38.003,25.644-70.175,6.166  C293.925,463.417,256.119,440.528,218.312,417.64z"/>
<path fill-rule="evenodd" clip-rule="evenodd" fill="#CBAA8D" stroke="#000000" stroke-width="2" stroke-linecap="square" stroke-miterlimit="10" d="  M260.312,422.89c58.916-22.232,117.832-44.465,176.747-66.697c45.169-17.045,101.017,16.12,145.753,29.947  c-63.257,28.528-126.514,57.056-189.771,85.583c-24.777,11.174-33.051,21.902-56.042,8.182  C319.103,469.225,257.287,446.482,260.312,422.89z"/>
<line fill="none" stroke="#000000" stroke-width="2" stroke-linecap="square" stroke-miterlimit="10" x1="456.062" y1="332.14" x2="459.062" y2="347.89"/>
<path fill-rule="evenodd" clip-rule="evenodd" fill="#FFFFFF" stroke="#000000" stroke-width="2" stroke-linecap="square" stroke-miterlimit="10" d="  M548.312,356.14c-6.689,5.447-43.136,8.001-41.25-7.5C509.058,332.242,544.401,348.198,548.312,356.14z"/>
<path fill-rule="evenodd" clip-rule="evenodd" fill="#AF8977" stroke="#000000" stroke-width="2" stroke-linecap="square" stroke-miterlimit="10" d="  M218.312,417.64c-9.994,35.661,59.692,55.391,83.071,68.436c38.232,21.334,44.323,34.095,82.062,16.355  c51.324-24.126,102.649-48.252,153.974-72.377c23.064-10.842,78.766-20.37,66.394-54.414  c-80.783,36.764-161.566,73.527-242.35,110.291c-15.047,6.848-32.212-25.588-45.65-35.666  C287.663,429.153,253.407,417.888,218.312,417.64z"/>
<line fill="none" stroke="#000000" stroke-width="2" stroke-linecap="square" stroke-miterlimit="10" x1="353.312" y1="489.64" x2="354.812" y2="515.89"/>
<path fill-rule="evenodd" clip-rule="evenodd" fill="#CBAA8D" stroke="#000000" stroke-width="2" stroke-linecap="square" stroke-miterlimit="10" d="  M304.562,462.64c-7.601,2.879-47.74-4.973-40.5-19.5C271.027,429.165,302.115,454.518,304.562,462.64z"/>
</svg>