<svg xmlns="http://www.w3.org/2000/svg" xmlns:xlink="http://www.w3.org/1999/xlink" version="1.1" id="Layer_1" x="0px" y="0px" enable-background="new 0 0 822.05 841.89" xml:space="preserve" viewBox="220.78 251.68 375.66 336.44">
<path fill-rule="evenodd" clip-rule="evenodd" fill="#BCBEC0" stroke="#000000" stroke-width="2" stroke-linecap="square" stroke-miterlimit="10" d="  M362.041,383.39c-23.593,8.882-138.959,32.538-140.25,63c-0.642,15.152,44.333,34.428,56.25,39  c17.986,6.9,19.656,4.327,47.82-10.188c19.481-10.041,38.961-20.081,58.442-30.121c8.779-4.524,11.942,4.405,28.154-4.388  c13.011-7.057,27.483-9.127,27.594-24.92c0.158-22.711,0.317-45.421,0.477-68.132c0.188-26.91,19.434-56.744,0.264-70.002  c-28.51-19.718-75.564,0.634-101.25,12.75c0.5,1.75,1,3.5,1.5,5.25c5.017-3.764,12.51-4.394,18-7.5  C360.041,319.89,361.041,351.64,362.041,383.39z"/>
<path fill-rule="evenodd" clip-rule="evenodd" fill="#FFFFFF" stroke="#000000" stroke-width="2" stroke-linecap="square" stroke-miterlimit="10" d="  M368.041,286.64c1.729,26.809,3.459,53.619,5.189,80.428c1.494,23.149,31.865,29.258,51.061,39.572  c1.107-29.24-8.845-85.473,10.5-108.75C413.536,293.294,389.927,284.04,368.041,286.64z"/>
<path fill-rule="evenodd" clip-rule="evenodd" fill="#6D6F71" stroke="#000000" stroke-width="2" stroke-linecap="square" stroke-miterlimit="10" d="  M228.541,456.14c1.411-25.031,49.345-32.332,67.317-39.584c21.739-8.772,43.479-17.544,65.219-26.316  c12.229-4.935,38.918,15.877,50.464,21.65c-28.669,13.246-127.717,37.397-133.5,73.5C261.541,475.64,245.041,465.89,228.541,456.14z  "/>
<path fill-rule="evenodd" clip-rule="evenodd" fill="#6D6F71" stroke="#000000" stroke-width="2" stroke-linecap="square" stroke-miterlimit="10" d="  M398.791,273.89c-34.298,14.607,27.872,44.158,42,9.75C454.342,250.638,402.751,238.994,398.791,273.89z"/>
<path fill-rule="evenodd" clip-rule="evenodd" fill="#E7F6FD" stroke="#000000" stroke-width="2" stroke-linecap="square" stroke-miterlimit="10" d="  M409.291,264.89c-1,3.5-2,7-3,10.5c6.51,2.005,19.514,2.573,26.25,1.5c-0.25-4.5-0.5-9-0.75-13.5  C424.958,263.846,415.736,262.708,409.291,264.89z"/>
<path fill-rule="evenodd" clip-rule="evenodd" fill="#BCBEC0" stroke="#000000" stroke-width="2" stroke-linecap="square" stroke-miterlimit="10" d="  M488.791,405.89c-24.139,9.141-138.697,32.86-139.5,63.75c-0.394,15.128,42.566,33,55.5,38.25c18.501,7.51,19.733,5.424,48.57-9.438  c19.48-10.041,38.961-20.081,58.441-30.121c9.094-4.687,11.389,4.688,27.859-4.683c12.175-6.927,26.938-9.628,27.148-24.625  c0.317-22.711,0.635-45.421,0.952-68.132c0.39-27.823,20.052-56.392-0.222-70.002c-29.772-19.987-74.128-0.436-100.5,12.75  c0.5,1.75,1,3.5,1.5,5.25c4.804-3.691,11.994-4.422,17.25-7.5C486.791,342.89,487.791,374.39,488.791,405.89z"/>
<path fill-rule="evenodd" clip-rule="evenodd" fill="#FFFFFF" stroke="#000000" stroke-width="2" stroke-linecap="square" stroke-miterlimit="10" d="  M494.791,309.89c1.729,26.593,3.459,53.186,5.188,79.779c1.503,23.099,32.013,29.701,51.062,40.221  c1.107-29.24-8.845-85.473,10.5-108.75C540.286,316.544,516.677,307.29,494.791,309.89z"/>
<path fill-rule="evenodd" clip-rule="evenodd" fill="#6D6F71" stroke="#000000" stroke-width="2" stroke-linecap="square" stroke-miterlimit="10" d="  M356.041,479.39c-0.379-24.456,49.652-32.555,66.972-39.584c21.612-8.772,43.225-17.544,64.838-26.316  c12.18-4.944,38.928,15.895,50.44,21.65c-28.953,13.462-126.139,37.377-133.5,72.75C388.541,498.39,372.291,488.89,356.041,479.39z"/>
<path fill-rule="evenodd" clip-rule="evenodd" fill="#6D6F71" stroke="#000000" stroke-width="2" stroke-linecap="square" stroke-miterlimit="10" d="  M526.291,296.39c-36.391,14.818,27.873,45.126,42,10.5C581.764,273.87,530.571,262.153,526.291,296.39z"/>
<path fill-rule="evenodd" clip-rule="evenodd" fill="#E7F6FD" stroke="#000000" stroke-width="2" stroke-linecap="square" stroke-miterlimit="10" d="  M536.041,287.39c-1,3.5-2,7-3,10.5c6.437,2.195,19.5,3.146,26.25,2.25c-0.25-4.75-0.5-9.5-0.75-14.25  C551.723,286.345,542.465,285.193,536.041,287.39z"/>
<path fill-rule="evenodd" clip-rule="evenodd" fill="#BCBEC0" stroke="#000000" stroke-width="2" stroke-linecap="square" stroke-miterlimit="10" d="  M508.291,480.89c-24.162,9.096-139.285,32.653-140.25,63.75c-0.467,15.053,42.647,33.104,55.5,38.25  c18.926,7.576,19.937,5.319,48.57-9.438c19.48-10.041,38.961-20.081,58.441-30.121c9.094-4.687,11.389,4.688,27.859-4.683  c12.175-6.927,26.938-9.628,27.148-24.625c0.317-22.711,0.635-45.421,0.952-68.132c0.39-27.823,20.052-56.392-0.222-70.002  c-29.772-19.987-74.128-0.436-100.5,12.75c0.5,1.75,1,3.5,1.5,5.25c5.018-3.769,12.521-4.371,18-7.5  C506.291,417.89,507.291,449.39,508.291,480.89z"/>
<path fill-rule="evenodd" clip-rule="evenodd" fill="#FFFFFF" stroke="#000000" stroke-width="2" stroke-linecap="square" stroke-miterlimit="10" d="  M514.291,384.89c1.514,26.593,3.027,53.187,4.54,79.779c1.315,23.108,31.933,29.713,50.96,40.221  c1.107-29.24-8.845-85.473,10.5-108.75C559.313,391.604,535.876,382.359,514.291,384.89z"/>
<path fill-rule="evenodd" clip-rule="evenodd" fill="#6D6F71" stroke="#000000" stroke-width="2" stroke-linecap="square" stroke-miterlimit="10" d="  M374.791,554.39c0.79-24.926,49.339-32.33,67.317-39.584c21.739-8.772,43.479-17.544,65.219-26.316  c12.229-4.935,38.918,15.877,50.464,21.65c-29.064,13.429-126.863,37.262-134.25,72.75  C407.291,573.39,391.041,563.89,374.791,554.39z"/>
<path fill-rule="evenodd" clip-rule="evenodd" fill="#6D6F71" stroke="#000000" stroke-width="2" stroke-linecap="square" stroke-miterlimit="10" d="  M545.041,371.39c-36.312,15.035,28.079,44.855,42,10.5C600.451,348.796,549.314,337.201,545.041,371.39z"/>
<path fill-rule="evenodd" clip-rule="evenodd" fill="#E7F6FD" stroke="#000000" stroke-width="2" stroke-linecap="square" stroke-miterlimit="10" d="  M555.541,362.39c-1,3.5-2,7-3,10.5c6.218,2.15,18.97,3.118,25.5,2.25c-0.25-4.75-0.5-9.5-0.75-14.25  C570.547,361.355,561.856,360.159,555.541,362.39z"/>
</svg>