<svg xmlns="http://www.w3.org/2000/svg" xmlns:xlink="http://www.w3.org/1999/xlink" version="1.1" id="Layer_1" x="0px" y="0px" enable-background="new 0 0 822.05 841.89" xml:space="preserve" viewBox="337.21 329.15 146.05 185">
<path fill-rule="evenodd" clip-rule="evenodd" fill="#B9060A" stroke="#000000" stroke-width="1.25" stroke-linecap="square" stroke-miterlimit="10" d="  M399.391,377.777c-8.729-7.709-4.611-34.467-2.25-48C402.861,339.178,399.62,363.075,399.391,377.777z"/>
<path fill-rule="evenodd" clip-rule="evenodd" fill="#D2D1D2" stroke="#000000" stroke-width="1.25" stroke-linecap="square" stroke-miterlimit="10" d="  M482.641,473.025c-13.748-19.823-50.901-94.664-73.5-101.248c-29.42-8.571-40.684,42.155-51.397,63.036  c-6.697,13.054-34.705,51.471-9.728,61.462c15.741,6.297,114.713,7.096,124.125-3c6.893-7.394-97.687,0.173-109.5-3.75  c-26.694-8.864-14.472-23.188-2.25-45.75c13.775-25.43,23.222-77.332,52.5-57.748C428.715,396.612,467.653,484.4,482.641,473.025z"/>
<path fill-rule="evenodd" clip-rule="evenodd" fill="#F8180C" stroke="#000000" stroke-width="1.25" stroke-linecap="square" stroke-miterlimit="10" d="  M397.141,330.527c0.679,13.353,1.856,27.541,0.375,40.875c-1.084,9.762,8.286,12.628,9.014,2.431  C407.608,358.733,414.786,329.01,397.141,330.527z"/>
<path fill-rule="evenodd" clip-rule="evenodd" fill="#D2D1D2" stroke="#000000" stroke-width="1.25" stroke-linecap="square" stroke-miterlimit="10" d="  M364.141,413.777c-7.245-60.148-40.522-3.415-8.25-4.5c0-1,0-2,0-3c-35.322-0.994,3.75-36.118,3.75-8.25  c0,41.148,72.165,87.703,99.75,115.498C443.037,479.585,392.878,442.959,364.141,413.777z"/>
</svg>