<svg xmlns="http://www.w3.org/2000/svg" xmlns:xlink="http://www.w3.org/1999/xlink" version="1.1" id="Layer_1" x="0px" y="0px" enable-background="new 0 0 822.05 841.89" xml:space="preserve" viewBox="262.05 261.64 307.63 320.75">
<path fill-rule="evenodd" clip-rule="evenodd" fill="#BCBEC0" stroke="#000000" stroke-width="2" stroke-linecap="square" stroke-miterlimit="10" d="  M428.873,291.89c-23.17-4.875-55.772,8.044-66.75,30c-9.785,19.571-17.367,40.797-27,60c-4.223,8.419-13.344,15.799-15,26.25  c-2.152,13.583,6.227,23.666,8.306,36.917c5.989,38.178-7.069,31.247-26.681,59.083c-15.976,22.676-37.306,46.982-38.625,74.25  c-1.117,1.295,10.583-9.101,13.5-12.75c5.028,7.414,8.524,3.85,9,15c7.745-7.404,11.634-8.915,12.75-19.5  c5.864,6.959,9.118,10.656,11.25,20.25c24.429-18.557-2.66-26.627-3-43.5c-0.678-33.603,44.594-44.878,42-86.25  c38.825,25.293,69.01-6.374,106.5-0.75c-10.184,35.991,36.161,50.419,4.5,89.25c22.859-7.273,69.266-7.577,87.75,9  c-0.75-4-1.5-8-2.25-12c4.25,1.25,8.5,2.5,12.75,3.75c6.726-34.806-31.975-14.953-50.25-23.25  c-21.061-9.562-21.433-31.342-26.308-51.354c-3.827-15.714-1.765-22.801-16.637-28.479c-18.417-7.032-29.806-4.979-29.806-24.042  c0-14.392-11.286-32.292-1.5-38.625c0.103,34.072,42.479,26.614,57,44.25c11.649,14.147,5.861,45.127,30,48  c-9.17-30.567-15.948-64.872,32.25-50.25c-8.543,2.406-7.951,6.202-18.75,6c4.654,2.108,8.249,6.555,12.75,9  c-5.376,2.381-8.083,5.131-14.25,6c8.58,3.632,17.783,0.696,25.5-6.75c-0.25,4-0.5,8-0.75,12c15.544-16.243,18.654-56.811-11.25-60  c-9.885-1.054-30.332,13-39.674,17.003c-8.622,3.695-31.926-12.352-40.576-16.253c4.525-3.155,7.285-9.173,12-12  C427.367,381.614,462.149,295.48,428.873,291.89z"/>
<path fill-rule="evenodd" clip-rule="evenodd" fill="#BCBEC0" stroke="#000000" stroke-width="2" stroke-linecap="square" stroke-miterlimit="10" d="  M378.623,273.89c17.764,5.494,62.578,8.524,63,33c-4.736-3.926-11.732-5.109-16.5-9c1.372,12.238,12.27,24.209,13.139,33.333  c2.088,21.916,44.896,65.7,43.111,25.167c-7.982,18.546-18.313,12.123-25.417-2.083c-7.301-14.602,14.526-19.662,20.917-5.417  c1.5-1.75,3-3.5,4.5-5.25c1.5,4.25,3,8.5,4.5,12.75c2.473-30.613,14.871-81.542-27.75-93.75c11.897,8.227,19.427,21.416,16.5,36  C441.892,290.726,415.175,252.684,378.623,273.89z"/>
<path fill="none" stroke="#000000" stroke-width="2" stroke-linecap="square" stroke-miterlimit="10" d="M266.873,561.14  c4.546,2.356,9.629-5.633,9,6c7.531-10.597,10.262-11.146,19.5-4.5c5.921-10.377,10.883-7.197,19.5-8.25"/>
<path fill-rule="evenodd" clip-rule="evenodd" fill="#BCBEC0" d="M520.373,539.39c6.102-28.036,23.468-1.816,37.5,1.5  C554.562,512.678,530.358,517.624,520.373,539.39z"/>
<path fill="none" stroke="#000000" stroke-width="2" stroke-linecap="square" stroke-miterlimit="10" d="M520.373,539.39  c6.102-28.036,23.468-1.816,37.5,1.5c-1.568-13.363-13.749-25.492-26.25-18"/>
<path fill-rule="evenodd" clip-rule="evenodd" fill="#BCBEC0" d="M391.373,309.14c-14.987,7.892-9.07,23.134-20,31.028  c-10.724,7.745-26.447,25.272-25.516,39.232c1.553,23.287,6.672,46.203,10.266,68.49c3.672,22.769,15.069,77.761,50.25,51.375  c11.775-8.832,26.882-2.624,31.5-22.125c-4.249,4.233-8.405,4.826-12.75,7.5c1.099-6.311,0.749-13.533,3-19.5  c-0.887,11.399-7.478,19.7-18.75,21c0.409-4.788-1.418-8.878-1.5-12.75c-4.729,25.502-28.519-0.281-18.75-13.5  c9.399-12.719,23.797-1.437,26.25,11.25c5.624-23.599-22.487-36.391-39.75-21.75c-5.717-30.07-22.339-103.2,28.502-99.75  c-8.661,21.278,18.957,22.305,26.998,6.75c-14.979,19.359,2.367,24.071,15.75,5.25C428.373,344.14,409.873,326.64,391.373,309.14z"/>
<path fill="none" stroke="#000000" stroke-width="2" stroke-linecap="square" stroke-miterlimit="10" d="M391.373,309.14  c-14.987,7.892-9.07,23.134-20,31.028c-10.724,7.745-26.447,25.272-25.516,39.232c1.553,23.287,6.672,46.203,10.266,68.49  c3.672,22.769,15.069,77.761,50.25,51.375c11.775-8.832,26.882-2.624,31.5-22.125c-4.249,4.233-8.405,4.826-12.75,7.5  c1.099-6.311,0.749-13.533,3-19.5c-0.887,11.399-7.478,19.7-18.75,21c0.409-4.788-1.418-8.878-1.5-12.75  c-4.729,25.502-28.519-0.281-18.75-13.5c9.399-12.719,23.797-1.437,26.25,11.25c5.624-23.599-22.487-36.391-39.75-21.75  c-5.717-30.07-22.339-103.2,28.502-99.75c-8.661,21.278,18.957,22.305,26.998,6.75c-14.979,19.359,2.367,24.071,15.75,5.25"/>
<path fill-rule="evenodd" clip-rule="evenodd" fill="#BCBEC0" d="M439.373,297.89c13.513-13.919,30.643,2.305,47.25-2.25  C470.873,296.39,455.123,297.14,439.373,297.89z"/>
<path fill="none" stroke="#000000" stroke-width="2" stroke-linecap="square" stroke-miterlimit="10" d="M439.373,297.89  c13.513-13.919,30.643,2.305,47.25-2.25"/>
<path fill-rule="evenodd" clip-rule="evenodd" fill="#BCBEC0" stroke="#000000" stroke-width="2" stroke-linecap="square" stroke-miterlimit="10" d="  M452.873,315.14c13.159,1.165,25.222,1.818,36.75-1.5C480.056,324.672,463.907,324.353,452.873,315.14z"/>
<path fill-rule="evenodd" clip-rule="evenodd" fill="#BCBEC0" stroke="#000000" stroke-width="2" stroke-linecap="square" stroke-miterlimit="10" d="  M462.623,330.14c16.466-22.788,27.888,10.442,23.25,26.25C483.491,343.899,474.936,333.936,462.623,330.14z"/>
</svg>