<svg xmlns="http://www.w3.org/2000/svg" xmlns:xlink="http://www.w3.org/1999/xlink" version="1.1" id="Layer_1" x="0px" y="0px" enable-background="new 0 0 822.05 841.89" xml:space="preserve" viewBox="351.62 335.5 116.75 171.19">
<path fill-rule="evenodd" clip-rule="evenodd" fill="#363A8F" stroke="#000000" stroke-width="1.25" stroke-linecap="square" stroke-miterlimit="10" d="  M369.492,348.39c33.545,0,69.452-15.289,75.541,21.247c7.069,42.417,14.14,84.835,21.209,127.253  c-19.508,1.009-41.812,11.531-45.73-10.018c-4.757-26.161-9.513-52.321-14.27-78.482c-3.484,23.808-6.968,47.615-10.452,71.424  c-4.165,28.46-11.096,20.498-39.798,19.326C360.492,448.89,364.992,398.64,369.492,348.39z"/>
<path fill-rule="evenodd" clip-rule="evenodd" fill="#767BB6" stroke="#000000" stroke-width="1.25" stroke-linecap="square" stroke-miterlimit="10" d="  M354.492,490.89c-0.75,4.25-1.5,8.5-2.25,12.75c15.827,0.299,41.297,9.148,42-11.25C380.992,491.89,367.742,491.39,354.492,490.89z"/>
<path fill-rule="evenodd" clip-rule="evenodd" fill="#767BB6" stroke="#000000" stroke-width="1.25" stroke-linecap="square" stroke-miterlimit="10" d="  M421.242,493.14c-0.628,20.185,31.452,10.751,46.5,10.5C466.354,482.57,437.979,492.573,421.242,493.14z"/>
<path fill="none" stroke="#000000" stroke-width="1.25" stroke-linecap="square" stroke-miterlimit="10" d="M433.992,362.64  c-3.029,10.459,0.047,18.503,9.75,21.75"/>
<path fill="none" stroke="#000000" stroke-width="1.25" stroke-linecap="square" stroke-miterlimit="10" d="M379.992,361.89  c1.235,10.478-2.296,19.912-11.25,24.75"/>
<path fill-rule="evenodd" clip-rule="evenodd" fill="#767BB6" stroke="#000000" stroke-width="1.25" stroke-linecap="square" stroke-miterlimit="10" d="  M369.492,338.64c0.513,19.638,53.869,9.75,72,9.75C439.584,328.68,387.787,338.64,369.492,338.64z"/>
<path fill-rule="evenodd" clip-rule="evenodd" d="M411.494,343.89C404.01,343.89,404.01,343.89,411.494,343.89L411.494,343.89z"/>
<line fill="none" stroke="#000000" stroke-linecap="square" stroke-miterlimit="10" x1="399.492" y1="337.89" x2="399.492" y2="348.39"/>
<path fill="none" stroke="#000000" stroke-linecap="square" stroke-miterlimit="10" d="M400.992,351.39  c-0.084,15.499-1.903,38.349,6.75,50.25"/>
</svg>