<svg xmlns="http://www.w3.org/2000/svg" xmlns:xlink="http://www.w3.org/1999/xlink" version="1.1" id="Layer_1" x="0px" y="0px" enable-background="new 0 0 822.05 841.89" xml:space="preserve" viewBox="210 303.9 401.47 237.39">
<path fill-rule="evenodd" clip-rule="evenodd" fill="#464648" stroke="#000000" stroke-width="2" stroke-linecap="square" stroke-miterlimit="10" d="  M336.104,438.398c15.255-3.191,24.201,5.992,36,6c11.921,0.008,26.537-10.125,35.867-9.584c8.669,0.503,48.743-1.74,49.002,6.584  c0.612,19.578,3.826,19.769-14.713,22.564c-26.438,3.988-183.098,43.42-182.656-16.564  C285.104,444.398,310.604,441.398,336.104,438.398z"/>
<path fill-rule="evenodd" clip-rule="evenodd" fill="#FFDB78" stroke="#000000" stroke-width="2" stroke-linecap="square" stroke-miterlimit="10" d="  M321.854,325.896c8.187,18.804,0.752,31.871-6.252,49.38c-2.986,7.465,40.164,27.204,46.968,31.161  c7.878,4.582,97.095,61.192,104.066,29.123c5.33-24.522,11.27-27.729-8.515-41.578c-24.424-17.096-48.847-34.191-73.27-51.288  c-14.577-10.204-1.061-18.213-13.123-31.423C357.667,295.87,338.291,316.796,321.854,325.896z"/>
<path fill-rule="evenodd" clip-rule="evenodd" fill="#FFDB78" d="M465.855,437.648c-23.901-15.603-47.804-31.205-71.705-46.808  c-33.578-21.919-40.332-17.027-19.047-52.194C405.354,371.646,435.604,404.647,465.855,437.648z"/>
<path fill="none" stroke="#000000" stroke-width="2" stroke-linecap="square" stroke-miterlimit="10" d="M465.855,437.648  c-23.901-15.603-47.804-31.205-71.705-46.808c-33.578-21.919-40.332-17.027-19.047-52.194"/>
<line fill="none" stroke="#000000" stroke-width="2" stroke-linecap="square" stroke-miterlimit="10" x1="315.854" y1="377.646" x2="357.854" y2="367.146"/>
<path fill-rule="evenodd" clip-rule="evenodd" fill="#FFDB78" d="M363.104,304.896c8.98,11.996,6.797,23.655,14.25,34.5  C372.604,327.896,367.854,316.396,363.104,304.896z"/>
<path fill="none" stroke="#000000" stroke-width="2" stroke-linecap="square" stroke-miterlimit="10" d="M363.104,304.896  c8.98,11.996,6.797,23.655,14.25,34.5"/>
<path fill-rule="evenodd" clip-rule="evenodd" fill="#FFDB78" d="M326.354,348.396c8.208-16.07,27.748-19.499,43.5-26.25  C355.354,330.896,340.854,339.646,326.354,348.396z"/>
<path fill="none" stroke="#000000" stroke-width="2" stroke-linecap="square" stroke-miterlimit="10" d="M326.354,348.396  c8.208-16.07,27.748-19.499,43.5-26.25"/>
<path fill-rule="evenodd" clip-rule="evenodd" fill="#FFDB78" d="M321.854,325.896l11.25,12L321.854,325.896z"/>
<line fill="none" stroke="#000000" stroke-width="2" stroke-linecap="square" stroke-miterlimit="10" x1="321.854" y1="325.896" x2="333.104" y2="337.896"/>
<path fill-rule="evenodd" clip-rule="evenodd" fill="#ED1C24" d="M269.354,390.396c8.024,39.375-56.081,16.398-55.389,34.391  c0.257,6.686-2.276,35.979,4.444,36.223c7.964,0.289,35.652,5.837,39.694-1.236c13.303-23.279,35.152-16.392,51.75-1.125  c-2.25-4-4.5-8-6.75-12c41.63-2.135,33.662-16.456,28.939-54.235C328.969,367.816,280.652,389.488,269.354,390.396z"/>
<path fill="none" stroke="#000000" stroke-width="2" stroke-linecap="square" stroke-miterlimit="10" d="M269.354,390.396  c8.024,39.375-56.081,16.398-55.389,34.391c0.257,6.686-2.276,35.979,4.444,36.223c7.964,0.289,35.652,5.837,39.694-1.236  c13.303-23.279,35.152-16.392,51.75-1.125c-2.25-4-4.5-8-6.75-12c41.63-2.135,33.662-16.456,28.939-54.235  c-2.774-22.192-48.327-7.125-63.439-0.517"/>
<path fill="none" stroke="#000000" stroke-width="2" stroke-linecap="square" stroke-miterlimit="10" d="M294.104,384.396  c-0.25,9-0.5,18-0.75,27c-8.251-0.236-18.25,1.151-26.25-0.75"/>
<line fill="none" stroke="#000000" stroke-width="2" stroke-linecap="square" stroke-miterlimit="10" x1="295.604" y1="411.396" x2="332.354" y2="409.146"/>
<line fill="none" stroke="#000000" stroke-width="2" stroke-linecap="square" stroke-miterlimit="10" x1="293.354" y1="411.396" x2="302.354" y2="444.398"/>
<path fill="none" stroke="#000000" stroke-width="2" stroke-linecap="square" stroke-miterlimit="10" d="M300.104,437.648  c-14.699-12.57-29.863-7.471-47.268-5.361c-24.344,2.95-19.571,5.645-20.232,30.111"/>
<path fill-rule="evenodd" clip-rule="evenodd" fill="#FFF200" stroke="#000000" stroke-width="2" stroke-linecap="square" stroke-miterlimit="10" d="  M252.854,448.898c-1.427,1.09-0.202,5.146-3,6.75c-1.777-8.02-0.912-8.015,1.5-13.5  C252.063,443.262,252.644,448.715,252.854,448.898z"/>
<path fill-rule="evenodd" clip-rule="evenodd" fill="#616365" stroke="#000000" stroke-width="2" stroke-linecap="square" stroke-miterlimit="10" d="  M301.604,475.898c-0.514,28.358-43.629,28.254-43.5,0C258.233,447.505,300.486,447.768,301.604,475.898z"/>
<path fill-rule="evenodd" clip-rule="evenodd" fill="#DCDDDE" stroke="#000000" stroke-width="2" stroke-linecap="square" stroke-miterlimit="10" d="  M295.604,475.898c-3.855,13.454-25.859,17.873-25.5,0C270.463,458.033,291.709,462.593,295.604,475.898z"/>
<path fill-rule="evenodd" clip-rule="evenodd" fill="#616365" stroke="#000000" stroke-width="2" stroke-linecap="square" stroke-miterlimit="10" d="  M420.105,460.148c-0.98,20.961-26.252,21.498-26.252,0C393.854,438.785,419.141,439.185,420.105,460.148z"/>
<path fill-rule="evenodd" clip-rule="evenodd" fill="#DCDDDE" stroke="#000000" stroke-width="2" stroke-linecap="square" stroke-miterlimit="10" d="  M415.605,460.148C399.844,503.669,399.647,417.191,415.605,460.148L415.605,460.148z"/>
<path fill-rule="evenodd" clip-rule="evenodd" fill="#616365" stroke="#000000" stroke-width="2" stroke-linecap="square" stroke-miterlimit="10" d="  M450.105,457.148c-1.67,18.346-20.705,19.316-20.25,0C430.297,438.404,447.96,439.689,450.105,457.148z"/>
<path fill-rule="evenodd" clip-rule="evenodd" fill="#DCDDDE" stroke="#000000" stroke-width="2" stroke-linecap="square" stroke-miterlimit="10" d="  M445.605,457.898C432.527,484.717,432.863,429.876,445.605,457.898L445.605,457.898z"/>
<path fill-rule="evenodd" clip-rule="evenodd" fill="#616365" stroke="#000000" stroke-width="2" stroke-linecap="square" stroke-miterlimit="10" d="  M233.354,465.398c0.097,9.188,4.878,19.443,14.25,22.5C271.216,495.6,262.191,447.17,233.354,465.398z"/>
<path fill-rule="evenodd" clip-rule="evenodd" fill="#8F959C" stroke="#000000" stroke-width="2" stroke-linecap="square" stroke-miterlimit="10" d="  M213.104,460.898c-12.085,18.477,31.408,12.985,42,12C253.629,451.355,229.812,463.403,213.104,460.898z"/>
<line fill="none" stroke="#000000" stroke-width="2" stroke-linecap="square" stroke-miterlimit="10" x1="222.854" y1="463.148" x2="222.854" y2="475.898"/>
<path fill-rule="evenodd" clip-rule="evenodd" fill="#464648" stroke="#000000" stroke-width="2" stroke-linecap="square" stroke-miterlimit="10" d="  M407.354,460.898c15.389-3.219,24.006,5.827,36.002,6c12.14,0.175,27.219-10.085,35.866-9.584c8.67,0.503,48.741-1.74,49.001,6.584  c0.611,19.578,3.826,19.769-14.713,22.564c-26.438,3.988-183.098,43.42-182.656-16.564  C356.354,466.898,381.854,463.898,407.354,460.898z"/>
<path fill-rule="evenodd" clip-rule="evenodd" fill="#FFDB78" stroke="#000000" stroke-width="2" stroke-linecap="square" stroke-miterlimit="10" d="  M393.104,349.146c9.923,21.927-12.236,35.125-7.5,51.75c2.344,8.229,40.953,23.817,48.216,28.041  c7.878,4.582,97.095,61.192,104.066,29.123c5.321-24.48,11.313-27.731-8.515-41.459c-24.423-16.908-48.846-33.817-73.268-50.725  c-14.77-10.225-0.945-18.767-13.123-32.104C428.868,318.314,409.424,339.821,393.104,349.146z"/>
<path fill-rule="evenodd" clip-rule="evenodd" fill="#FFDB78" d="M537.105,460.148c-23.901-15.437-47.803-30.873-71.704-46.31  c-33.987-21.951-40.13-16.941-19.046-52.692C476.605,394.146,506.855,427.147,537.105,460.148z"/>
<path fill="none" stroke="#000000" stroke-width="2" stroke-linecap="square" stroke-miterlimit="10" d="M537.105,460.148  c-23.901-15.437-47.803-30.873-71.704-46.31c-33.987-21.951-40.13-16.941-19.046-52.692"/>
<line fill="none" stroke="#000000" stroke-width="2" stroke-linecap="square" stroke-miterlimit="10" x1="386.354" y1="400.146" x2="429.105" y2="390.396"/>
<path fill-rule="evenodd" clip-rule="evenodd" fill="#FFDB78" d="M434.355,327.396c8.98,11.996,6.798,23.655,14.25,34.5  C443.855,350.396,439.105,338.896,434.355,327.396z"/>
<path fill="none" stroke="#000000" stroke-width="2" stroke-linecap="square" stroke-miterlimit="10" d="M434.355,327.396  c8.98,11.996,6.798,23.655,14.25,34.5"/>
<path fill-rule="evenodd" clip-rule="evenodd" fill="#FFDB78" d="M397.604,370.896c8.208-16.07,27.749-19.499,43.502-26.25  C426.604,353.396,412.104,362.146,397.604,370.896z"/>
<path fill="none" stroke="#000000" stroke-width="2" stroke-linecap="square" stroke-miterlimit="10" d="M397.604,370.896  c8.208-16.07,27.749-19.499,43.502-26.25"/>
<path fill-rule="evenodd" clip-rule="evenodd" fill="#FFDB78" d="M393.104,349.146l11.25,11.25L393.104,349.146z"/>
<line fill="none" stroke="#000000" stroke-width="2" stroke-linecap="square" stroke-miterlimit="10" x1="393.104" y1="349.146" x2="404.354" y2="360.396"/>
<path fill-rule="evenodd" clip-rule="evenodd" fill="#ED1C24" d="M340.604,413.646c7.662,38.389-41.368,13.26-55.5,30.752  c-1.917,2.373-0.596,36.794,1.5,39c2.905,3.058,36.729,3.871,41.25,2.25c24.163-8.664,22.356-31.661,53.25-4.5  c-2.25-4-4.5-8-6.75-12c42.003-1.077,33.604-16.191,28.939-54.087C400.185,389.806,351.79,412.34,340.604,413.646z"/>
<path fill="none" stroke="#000000" stroke-width="2" stroke-linecap="square" stroke-miterlimit="10" d="M340.604,413.646  c7.662,38.389-41.368,13.26-55.5,30.752c-1.917,2.373-0.596,36.794,1.5,39c2.905,3.058,36.729,3.871,41.25,2.25  c24.163-8.664,22.356-31.661,53.25-4.5c-2.25-4-4.5-8-6.75-12c42.003-1.077,33.604-16.191,28.939-54.087  c-2.804-22.782-48.417-7.035-63.439,0.085"/>
<path fill="none" stroke="#000000" stroke-width="2" stroke-linecap="square" stroke-miterlimit="10" d="M365.354,407.646  c1.419,8.116-0.514,17.986-0.75,26.252c-8.265-0.236-18.229,1.13-26.25-0.75"/>
<line fill="none" stroke="#000000" stroke-width="2" stroke-linecap="square" stroke-miterlimit="10" x1="366.854" y1="433.898" x2="403.604" y2="431.648"/>
<line fill="none" stroke="#000000" stroke-width="2" stroke-linecap="square" stroke-miterlimit="10" x1="364.604" y1="433.898" x2="373.604" y2="467.648"/>
<path fill="none" stroke="#000000" stroke-width="2" stroke-linecap="square" stroke-miterlimit="10" d="M371.354,460.148  c-14.699-12.57-29.863-7.471-47.268-5.361c-24.344,2.95-19.571,5.645-20.232,30.111"/>
<path fill-rule="evenodd" clip-rule="evenodd" fill="#FFF200" stroke="#000000" stroke-width="2" stroke-linecap="square" stroke-miterlimit="10" d="  M324.104,471.398c-7.318,6.097-6.134,6.206-3-6.75C323.84,466.216,322.744,470.403,324.104,471.398z"/>
<path fill-rule="evenodd" clip-rule="evenodd" fill="#616365" stroke="#000000" stroke-width="2" stroke-linecap="square" stroke-miterlimit="10" d="  M372.854,498.398c-0.409,28.639-44.056,28.675-43.5,0C329.893,470.564,371.681,470.786,372.854,498.398z"/>
<path fill-rule="evenodd" clip-rule="evenodd" fill="#DCDDDE" stroke="#000000" stroke-width="2" stroke-linecap="square" stroke-miterlimit="10" d="  M366.854,498.398c-3.469,14.747-25.162,17.932-25.5,0C341.018,480.639,362.715,485.757,366.854,498.398z"/>
<path fill-rule="evenodd" clip-rule="evenodd" fill="#616365" stroke="#000000" stroke-width="2" stroke-linecap="square" stroke-miterlimit="10" d="  M491.355,482.648c-1.188,19.551-26.25,22.96-26.25,1.875C465.105,463.02,489.975,460.075,491.355,482.648z"/>
<path fill-rule="evenodd" clip-rule="evenodd" fill="#DCDDDE" stroke="#000000" stroke-width="2" stroke-linecap="square" stroke-miterlimit="10" d="  M486.855,482.648C471.274,526.986,470.249,439.826,486.855,482.648L486.855,482.648z"/>
<path fill-rule="evenodd" clip-rule="evenodd" fill="#616365" stroke="#000000" stroke-width="2" stroke-linecap="square" stroke-miterlimit="10" d="  M521.355,480.398c-2.146,17.459-19.809,18.744-20.25,0C500.65,461.082,519.686,462.052,521.355,480.398z"/>
<path fill-rule="evenodd" clip-rule="evenodd" fill="#DCDDDE" stroke="#000000" stroke-width="2" stroke-linecap="square" stroke-miterlimit="10" d="  M516.855,480.398C504.113,508.419,503.777,453.579,516.855,480.398L516.855,480.398z"/>
<path fill-rule="evenodd" clip-rule="evenodd" fill="#616365" stroke="#000000" stroke-width="2" stroke-linecap="square" stroke-miterlimit="10" d="  M304.604,487.898c0.004,9.574,6.276,22.785,17.25,24C340.979,514.015,332.639,470.177,304.604,487.898z"/>
<path fill-rule="evenodd" clip-rule="evenodd" fill="#8F959C" stroke="#000000" stroke-width="2" stroke-linecap="square" stroke-miterlimit="10" d="  M284.354,483.398c-12.274,18.852,31.11,13.013,42,12C324.838,473.568,301.17,487.157,284.354,483.398z"/>
<line fill="none" stroke="#000000" stroke-width="2" stroke-linecap="square" stroke-miterlimit="10" x1="294.104" y1="486.398" x2="294.104" y2="498.398"/>
<path fill-rule="evenodd" clip-rule="evenodd" fill="#464648" stroke="#000000" stroke-width="2" stroke-linecap="square" stroke-miterlimit="10" d="  M474.105,481.898c15.715-3.902,23.813,5.162,36,5.25c11.563,0.083,27.777-10.049,35.256-9.621  c7.639,0.437,46.179-2.459,50.244,2.871c7.646,10.024,1.066,23.833-8.984,25.405c-26.853,4.2-190.485,46.488-189.018-15.655  C423.104,487.398,448.604,484.648,474.105,481.898z"/>
<path fill-rule="evenodd" clip-rule="evenodd" fill="#FFDB78" stroke="#000000" stroke-width="2" stroke-linecap="square" stroke-miterlimit="10" d="  M460.605,369.396c10.316,22.462-12.905,34.808-8.25,51.75c2.23,8.118,41.062,23.881,48.215,28.041  c8.288,4.82,96.478,61.178,104.144,29.123c5.87-24.55,12.095-27.681-7.96-41.459c-24.61-16.909-49.221-33.817-73.831-50.726  c-15.246-10.474,0.152-18.546-12.817-32.104C495.508,338.76,477.087,359.807,460.605,369.396z"/>
<path fill-rule="evenodd" clip-rule="evenodd" fill="#FFDB78" d="M603.855,481.148c-23.901-15.603-47.803-31.205-71.704-46.808  c-33.922-22.145-40.146-17.166-19.046-52.944C543.355,414.646,573.605,447.897,603.855,481.148z"/>
<path fill="none" stroke="#000000" stroke-width="2" stroke-linecap="square" stroke-miterlimit="10" d="M603.855,481.148  c-23.901-15.603-47.803-31.205-71.704-46.808c-33.922-22.145-40.146-17.166-19.046-52.944"/>
<line fill="none" stroke="#000000" stroke-width="2" stroke-linecap="square" stroke-miterlimit="10" x1="453.855" y1="421.146" x2="495.855" y2="410.646"/>
<path fill-rule="evenodd" clip-rule="evenodd" fill="#FFDB78" d="M501.855,347.646c9.06,13.306,4.984,23.385,14.25,34.5  C511.355,370.646,506.605,359.146,501.855,347.646z"/>
<path fill="none" stroke="#000000" stroke-width="2" stroke-linecap="square" stroke-miterlimit="10" d="M501.855,347.646  c9.06,13.306,4.984,23.385,14.25,34.5"/>
<path fill-rule="evenodd" clip-rule="evenodd" fill="#FFDB78" d="M465.105,391.146c8-15.907,27.192-19.018,42.75-25.5  C493.605,374.146,479.355,382.646,465.105,391.146z"/>
<path fill="none" stroke="#000000" stroke-width="2" stroke-linecap="square" stroke-miterlimit="10" d="M465.105,391.146  c8-15.907,27.192-19.018,42.75-25.5"/>
<path fill-rule="evenodd" clip-rule="evenodd" fill="#FFDB78" d="M460.605,369.396l11.25,11.25L460.605,369.396z"/>
<line fill="none" stroke="#000000" stroke-width="2" stroke-linecap="square" stroke-miterlimit="10" x1="460.605" y1="369.396" x2="471.855" y2="380.646"/>
<path fill-rule="evenodd" clip-rule="evenodd" fill="#ED1C24" d="M407.354,433.898c8.017,39.336-56.089,16.47-55.389,34.333  c0.261,6.664-2.306,35.216,4.444,35.584c8.652,0.472,35.292,6.727,40.069-0.917c13.853-22.164,34.196-17.611,51.377-1.5  c-2.25-4-4.5-8-6.75-12c41.771-1.071,33.651-15.79,28.939-53.484C466.87,410.512,418.585,432.608,407.354,433.898z"/>
<path fill="none" stroke="#000000" stroke-width="2" stroke-linecap="square" stroke-miterlimit="10" d="M407.354,433.898  c8.017,39.336-56.089,16.47-55.389,34.333c0.261,6.664-2.306,35.216,4.444,35.584c8.652,0.472,35.292,6.727,40.069-0.917  c13.853-22.164,34.196-17.611,51.377-1.5c-2.25-4-4.5-8-6.75-12c37.322-0.957,34.474-9.211,30.111-44.107  c-4.232-33.858-39.34-19.555-64.613-9.893"/>
<path fill="none" stroke="#000000" stroke-width="2" stroke-linecap="square" stroke-miterlimit="10" d="M432.105,427.898  c5.895,28.384-3.443,26.25-27.002,26.25"/>
<line fill="none" stroke="#000000" stroke-width="2" stroke-linecap="square" stroke-miterlimit="10" x1="433.605" y1="454.148" x2="470.355" y2="451.898"/>
<line fill="none" stroke="#000000" stroke-width="2" stroke-linecap="square" stroke-miterlimit="10" x1="432.105" y1="454.148" x2="441.105" y2="487.898"/>
<path fill="none" stroke="#000000" stroke-width="2" stroke-linecap="square" stroke-miterlimit="10" d="M438.105,480.398  c-14.319-12.793-29.774-7.415-46.974-5.361c-24.573,2.934-19.861,5.432-20.528,30.111"/>
<path fill-rule="evenodd" clip-rule="evenodd" fill="#FFF200" stroke="#000000" stroke-width="2" stroke-linecap="square" stroke-miterlimit="10" d="  M391.604,491.648c-0.792,0.668-1.576,5.438-2.25,6.75c-0.75,0-1.5,0-2.25,0c-1.026-6.699-0.027-8.124,1.5-13.5  C389.373,485.898,391.093,491.479,391.604,491.648z"/>
<path fill-rule="evenodd" clip-rule="evenodd" fill="#616365" stroke="#000000" stroke-width="2" stroke-linecap="square" stroke-miterlimit="10" d="  M440.355,519.398c-2.249,27.427-43.914,28.284-44.252,0C395.759,490.59,439.037,491.041,440.355,519.398z"/>
<path fill-rule="evenodd" clip-rule="evenodd" fill="#DCDDDE" stroke="#000000" stroke-width="2" stroke-linecap="square" stroke-miterlimit="10" d="  M433.605,519.398c-3.333,13.979-23.918,16.911-24.752,0C407.991,501.903,430.732,504.306,433.605,519.398z"/>
<path fill-rule="evenodd" clip-rule="evenodd" fill="#616365" stroke="#000000" stroke-width="2" stroke-linecap="square" stroke-miterlimit="10" d="  M558.105,503.648c-1.535,22.229-25.5,19.625-25.5-1.875C532.605,480.765,558.192,483.59,558.105,503.648z"/>
<path fill-rule="evenodd" clip-rule="evenodd" fill="#DCDDDE" stroke="#000000" stroke-width="2" stroke-linecap="square" stroke-miterlimit="10" d="  M553.605,503.648C538.176,546.179,539.167,459.617,553.605,503.648L553.605,503.648z"/>
<path fill-rule="evenodd" clip-rule="evenodd" fill="#616365" stroke="#000000" stroke-width="2" stroke-linecap="square" stroke-miterlimit="10" d="  M588.855,500.648c-2.418,17.256-21.487,18.868-21,0C568.349,481.57,587.245,482.089,588.855,500.648z"/>
<path fill-rule="evenodd" clip-rule="evenodd" fill="#DCDDDE" stroke="#000000" stroke-width="2" stroke-linecap="square" stroke-miterlimit="10" d="  M584.355,500.648C570.771,528.219,570.477,474.339,584.355,500.648L584.355,500.648z"/>
<path fill-rule="evenodd" clip-rule="evenodd" fill="#616365" stroke="#000000" stroke-width="2" stroke-linecap="square" stroke-miterlimit="10" d="  M371.354,508.898c0.912,10.391,6.568,18.678,16.125,22.5C405.589,538.642,403.251,489.267,371.354,508.898z"/>
<path fill-rule="evenodd" clip-rule="evenodd" fill="#8F959C" stroke="#000000" stroke-width="2" stroke-linecap="square" stroke-miterlimit="10" d="  M351.854,503.648c-16.021,18.154,31.184,13.171,41.25,12C391.786,494.677,368.212,507.284,351.854,503.648z"/>
<line fill="none" stroke="#000000" stroke-width="2" stroke-linecap="square" stroke-miterlimit="10" x1="360.854" y1="506.648" x2="360.854" y2="519.398"/>
</svg>