<svg xmlns="http://www.w3.org/2000/svg" xmlns:xlink="http://www.w3.org/1999/xlink" version="1.1" id="Layer_1" x="0px" y="0px" enable-background="new 0 0 822.05 841.89" xml:space="preserve" viewBox="209.33 276.23 399.1 293.42">
<path fill-rule="evenodd" clip-rule="evenodd" fill="#464648" stroke="#000000" stroke-width="2" stroke-linecap="square" stroke-miterlimit="10" d="  M401.905,479.644c9.259-0.37,18.519-0.741,27.777-1.111c12.102-0.483,15.69,8.99,26.223,10.111  c20.996,2.235,40.775-14.701,57.113-13.923c10.455,0.497,71.887-1.193,71.887,7.245c0,31.334,5.278,32.126-23.91,36.559  c-61.091,9.276-251.837,66.019-275.34-25.381C324.405,488.644,363.155,484.144,401.905,479.644z"/>
<path fill-rule="evenodd" clip-rule="evenodd" fill="#FFDB78" stroke="#000000" stroke-width="2" stroke-linecap="square" stroke-miterlimit="10" d="  M380.905,310.144c1.917,9.585,9.504,27.14,5.711,36.243c-3.441,8.258-19.993,34.315-17.711,42.507  c3.557,12.774,63.762,37.119,75.085,43.712c27.973,16.284,55.946,32.569,83.919,48.854c12.012,6.993,68.603,4.687,71.621-8.519  c7.948-34.774,16.847-39.622-11.321-59.211c-34.952-24.307-69.905-48.614-104.857-72.921c-4.283-2.979-19.262-9.869-21.446-14.915  c-6.604-15.253,11.867-19.266-2.448-34.476c-13.873-14.741-12.055-18.481-29.16-8.91  C413.833,291.72,397.369,300.932,380.905,310.144z"/>
<path fill-rule="evenodd" clip-rule="evenodd" fill="#FFDB78" d="M597.655,478.894c-37.609-24.498-75.22-48.996-112.829-73.494  c-16.038-10.447-32.075-20.893-48.112-31.339c-5.863-3.819,19.468-38.167,23.691-45.167  C506.155,378.894,551.905,428.894,597.655,478.894z"/>
<path fill="none" stroke="#000000" stroke-width="2" stroke-linecap="square" stroke-miterlimit="10" d="M597.655,478.894  c-37.609-24.498-75.22-48.996-112.829-73.494c-16.038-10.447-32.075-20.893-48.112-31.339c-5.863-3.819,19.468-38.167,23.691-45.167  "/>
<line fill="none" stroke="#000000" stroke-width="2" stroke-linecap="square" stroke-miterlimit="10" x1="370.405" y1="388.144" x2="434.155" y2="372.394"/>
<path fill-rule="evenodd" clip-rule="evenodd" fill="#FFDB78" d="M443.155,277.894c6.762,15.637,7.484,45.255,21.75,52.5  C457.655,312.894,450.405,295.394,443.155,277.894z"/>
<path fill="none" stroke="#000000" stroke-width="2" stroke-linecap="square" stroke-miterlimit="10" d="M443.155,277.894  c6.762,15.637,7.484,45.255,21.75,52.5"/>
<path fill-rule="evenodd" clip-rule="evenodd" fill="#FFDB78" d="M387.655,343.894c8.705-24.627,43.138-30.552,64.5-39.75  C430.655,317.394,409.155,330.644,387.655,343.894z"/>
<path fill="none" stroke="#000000" stroke-width="2" stroke-linecap="square" stroke-miterlimit="10" d="M387.655,343.894  c8.705-24.627,43.138-30.552,64.5-39.75"/>
<path fill-rule="evenodd" clip-rule="evenodd" fill="#FFDB78" d="M380.905,310.144l17.25,17.25L380.905,310.144z"/>
<line fill="none" stroke="#000000" stroke-width="2" stroke-linecap="square" stroke-miterlimit="10" x1="380.905" y1="310.144" x2="398.155" y2="327.394"/>
<path fill-rule="evenodd" clip-rule="evenodd" fill="#ED1C24" d="M300.655,407.644c-1.054,10.543,2.558,28.816-9,31.277  c-23,4.898-46,9.797-69,14.695c-12.573,2.677-4.88,30.384-4.462,41.268c1.03,26.778,11.375,19.018,37.44,20.259  c34.312,1.634,23.768-13.702,51.021-24.249c22.724-8.794,38.394,6.989,55.5,19.5c-4.396-4.906-6.072-12.49-9.75-18  c18.203-0.628,41.014,6.511,46.875-12.375c6.648-21.421-0.963-45.941-3.681-67.911C390.395,370.035,320.154,408.878,300.655,407.644  z"/>
<path fill="none" stroke="#000000" stroke-width="2" stroke-linecap="square" stroke-miterlimit="10" d="M300.655,407.644  c-1.054,10.543,2.558,28.816-9,31.277c-23,4.898-46,9.797-69,14.695c-12.573,2.677-4.88,30.384-4.462,41.268  c1.03,26.778,11.375,19.018,37.44,20.259c34.312,1.634,23.768-13.702,51.021-24.249c22.724-8.794,38.394,6.989,55.5,19.5  c-4.396-4.906-6.072-12.49-9.75-18c18.203-0.628,41.014,6.511,46.875-12.375c6.648-21.421-0.963-45.941-3.681-67.911  c-4.587-37.078-71.064-11.39-95.694-2.214"/>
<path fill="none" stroke="#000000" stroke-width="2" stroke-linecap="square" stroke-miterlimit="10" d="M338.155,398.644  c0,13.25,0,26.5,0,39.75c-13.5-0.25-27-0.5-40.5-0.75"/>
<line fill="none" stroke="#000000" stroke-width="2" stroke-linecap="square" stroke-miterlimit="10" x1="340.405" y1="438.394" x2="395.905" y2="435.394"/>
<line fill="none" stroke="#000000" stroke-width="2" stroke-linecap="square" stroke-miterlimit="10" x1="338.155" y1="438.394" x2="350.905" y2="489.394"/>
<path fill="none" stroke="#000000" stroke-width="2" stroke-linecap="square" stroke-miterlimit="10" d="M347.155,478.144  c-27.156-13.578-37.631-11.294-68.1-7.638c-38.503,4.62-32.441,6.146-33.15,45.138"/>
<path fill-rule="evenodd" clip-rule="evenodd" fill="#FFF200" stroke="#000000" stroke-width="2" stroke-linecap="square" stroke-miterlimit="10" d="  M276.655,495.394c-7.556,20.2-10.852-0.167-4.5-10.5C275.507,488.265,275,491.392,276.655,495.394z"/>
<path fill-rule="evenodd" clip-rule="evenodd" fill="#616365" stroke="#000000" stroke-width="2" stroke-linecap="square" stroke-miterlimit="10" d="  M350.155,536.644c-0.214,42.67-66,42.687-66,0S349.941,493.974,350.155,536.644z"/>
<path fill-rule="evenodd" clip-rule="evenodd" fill="#DCDDDE" stroke="#000000" stroke-width="2" stroke-linecap="square" stroke-miterlimit="10" d="  M340.405,536.644c-2.321,23.845-37.5,24.754-37.5,0S338.084,512.799,340.405,536.644z"/>
<path fill-rule="evenodd" clip-rule="evenodd" fill="#616365" stroke="#000000" stroke-width="2" stroke-linecap="square" stroke-miterlimit="10" d="  M528.655,512.644c1.469,32.53-39.405,32.625-39,0C490.049,481.01,529.984,480.965,528.655,512.644z"/>
<path fill-rule="evenodd" clip-rule="evenodd" fill="#DCDDDE" stroke="#000000" stroke-width="2" stroke-linecap="square" stroke-miterlimit="10" d="  M521.905,512.644c-1.716,18.423-25.5,22.184-25.5,1.875C496.405,493.573,519.746,490.908,521.905,512.644z"/>
<path fill-rule="evenodd" clip-rule="evenodd" fill="#616365" stroke="#000000" stroke-width="2" stroke-linecap="square" stroke-miterlimit="10" d="  M574.405,508.894c0.492,27.53-30.49,27.016-30.75,0C543.387,480.944,575.186,481.366,574.405,508.894z"/>
<path fill-rule="evenodd" clip-rule="evenodd" fill="#DCDDDE" stroke="#000000" stroke-width="2" stroke-linecap="square" stroke-miterlimit="10" d="  M567.655,508.894c-2.193,16.737-17.783,18.494-17.25,0C550.921,490.994,565.112,492.974,567.655,508.894z"/>
<path fill-rule="evenodd" clip-rule="evenodd" fill="#616365" stroke="#000000" stroke-width="2" stroke-linecap="square" stroke-miterlimit="10" d="  M246.655,520.894c0.383,14.895,8.669,30.227,23.625,34.5c18.449,5.271,16.257-0.583,17.097-18.648  C288.721,507.867,266.494,514.997,246.655,520.894z"/>
<path fill-rule="evenodd" clip-rule="evenodd" fill="#8F959C" stroke="#000000" stroke-width="2" stroke-linecap="square" stroke-miterlimit="10" d="  M216.655,514.144c-29.642,19.041,53.951,18.835,63,18C284.312,498.07,237.555,518.741,216.655,514.144z"/>
<line fill="none" stroke="#000000" stroke-width="2" stroke-linecap="square" stroke-miterlimit="10" x1="230.905" y1="517.894" x2="230.905" y2="536.644"/>
</svg>