<svg xmlns="http://www.w3.org/2000/svg" xmlns:xlink="http://www.w3.org/1999/xlink" version="1.1" id="Layer_1" x="0px" y="0px" enable-background="new 0 0 822.05 841.89" xml:space="preserve" viewBox="309.75 351.24 203 140.42">
<path fill-rule="evenodd" clip-rule="evenodd" fill="#F7DE58" stroke="#000000" stroke-width="1.25" stroke-linecap="square" stroke-miterlimit="10" d="  M503.125,455.524c3.723-1.403,5.05-3.694,9-2.25c-2.749,12.752-32.741,45.696-31.125,36c4.284-25.705-38.226-46.103-55.875-58.875  c-20.229-14.64-65.057-61.782-89.25-57.75c-20.674,3.446-1.912,24.056,3.75,31.125c-33.228-12.169-15.734-40.584,15-28.5  C392.507,390.168,459.572,467.276,503.125,455.524z"/>
<path fill-rule="evenodd" clip-rule="evenodd" fill="#F7DE58" stroke="#000000" stroke-width="1.25" stroke-linecap="square" stroke-miterlimit="10" d="  M378.625,388.024C318.446,474.95,392.31,397.853,378.625,388.024L378.625,388.024z"/>
<path fill-rule="evenodd" clip-rule="evenodd" fill="#F7DE58" stroke="#000000" stroke-width="1.25" stroke-linecap="square" stroke-miterlimit="10" d="  M386.875,394.024c2.25,1.5,4.5,3,6.75,4.5c-4.045,5.587-22.913,39.25-29.25,39C349.667,436.943,383.768,398.496,386.875,394.024z"/>
<path fill-rule="evenodd" clip-rule="evenodd" fill="#F7DE58" stroke="#000000" stroke-width="1.25" stroke-linecap="square" stroke-miterlimit="10" d="  M395.125,400.024c2.25,1.5,4.5,3,6.75,4.5c-7.792,10.951-21.92,46.227-35.25,33.75C376.589,426.774,385.892,412.75,395.125,400.024z  "/>
<path fill-rule="evenodd" clip-rule="evenodd" fill="#F7DE58" stroke="#000000" stroke-width="1.25" stroke-linecap="square" stroke-miterlimit="10" d="  M395.875,393.274c0.162,0.12,0.852-4.002-3.75-4.5c-2.161,5.613-2.893,3.039-5.25,5.25c1.789,2.156,5.085,3.214,6.75,5.25  C390.258,394.457,393.463,395.304,395.875,393.274z M387.625,388.024c0.493,0.307-1.434-4.38-3-5.25  c-2.742,4.355-4.113,2.781-6.75,5.25c2.278,2.716,5.043,3.398,7.5,5.25C381.905,388.748,385.349,389.677,387.625,388.024z   M404.875,397.774c-0.429-0.089-1.55-3.82-4.5-3.75c-1.717,4.803-3.043,3.246-5.25,6c1.728,1.71,5.553,3.193,6.75,4.5  C399.668,398.714,402.763,399.809,404.875,397.774z"/>
<path fill-rule="evenodd" clip-rule="evenodd" fill="#F7DE58" stroke="#000000" stroke-width="1.25" stroke-linecap="square" stroke-miterlimit="10" d="  M366.625,410.524c-3.272,10.113-17.306-6.471-26.25-9.75c6.293,7.153,15.359,12.835,24,18  C343.207,425.699,319.109,372.531,366.625,410.524z"/>
<path fill-rule="evenodd" clip-rule="evenodd" fill="#F7DE58" stroke="#000000" stroke-width="1.25" stroke-linecap="square" stroke-miterlimit="10" d="  M449.875,445.024c-34.505-25.649-94.463-80.612-132-85.5c18.21,14.119,37.846,26.622,57.012,39.69  c11.686,7.967,63.594,34.183,68.988,47.31c16.51,40.183-53.695-12.82-64.5-21C375.302,459.279,473.475,483.343,449.875,445.024z"/>
<path fill-rule="evenodd" clip-rule="evenodd" fill="#F7DE58" stroke="#000000" stroke-width="1.25" stroke-linecap="square" stroke-miterlimit="10" d="  M317.875,352.024c0.786-0.725-5.663,0.962-7.5,6.75C322.292,362.55,316.215,357.083,317.875,352.024z"/>
<path fill-rule="evenodd" clip-rule="evenodd" fill="#F7DE58" d="M313.375,358.774l3.75-6L313.375,358.774z"/>
<line fill="none" stroke="#000000" stroke-width="1.25" stroke-linecap="square" stroke-miterlimit="10" x1="313.375" y1="358.774" x2="317.125" y2="352.774"/>
</svg>