<svg xmlns="http://www.w3.org/2000/svg" xmlns:xlink="http://www.w3.org/1999/xlink" version="1.1" id="Layer_1" x="0px" y="0px" enable-background="new 0 0 822.05 841.89" xml:space="preserve" viewBox="331.15 337.95 155.99 172.38">
<path fill-rule="evenodd" clip-rule="evenodd" fill="#999999" stroke="#000000" stroke-linecap="square" stroke-miterlimit="10" d="  M340,417.199c25.816-19.189,83.316-16.625,114-12c48.721,7.344,34.051,60.498,12.75,95.252C424.5,472.7,382.25,444.95,340,417.199z"/>
<path fill-rule="evenodd" clip-rule="evenodd" fill="#FFFF99" stroke="#000000" stroke-width="0.5" stroke-linecap="square" stroke-miterlimit="10" d="  M454,423.951c-27.713-1.757-55.669-0.75-83.427-0.75c-20.562,0-20.039-3.021-20.267,17.306c-0.078,6.932-3.909,49.396,2.311,49.486  c15.323,0.222,84.121,10.941,96.133,1.458C458.02,484.132,454.059,439.801,454,423.951z"/>
<path fill-rule="evenodd" clip-rule="evenodd" fill="#999999" stroke="#000000" stroke-linecap="square" stroke-miterlimit="10" d="  M467.5,417.199c-26.965-4.844-93.979-14.227-118.5-1.5c-14.442,7.496-26.855,76.671-7.125,85.127  c23.124,9.91,81.288,12.156,105.375,4.125c25.127-8.378,19.482-3.491,20.056-36.167C467.607,451.576,468.661,434.369,467.5,417.199z   M452.5,491.451c-23.788,0.185-47.583-0.7-71.368-1.045c-13.199-0.191-31.459,6.468-31.287-8.879  c0.112-9.959-5.816-51.452,0.655-58.326c7.168-7.614,78.52-0.386,91.277,0.194C463.626,424.388,452.932,472.005,452.5,491.451z"/>
<path fill-rule="evenodd" clip-rule="evenodd" fill="#FFFFFF" stroke="#000000" stroke-width="0.5" stroke-linecap="square" stroke-miterlimit="10" d="  M417.25,474.201C363.486,486.109,417.932,445.058,417.25,474.201L417.25,474.201z"/>
<path fill-rule="evenodd" clip-rule="evenodd" fill="#FCD2AE" stroke="#000000" stroke-width="0.5" stroke-linecap="square" stroke-miterlimit="10" d="  M386.5,468.951c5.157-3.167,9.372-1.813,12.75-7.5c14.891-0.719,20.58,6.385,15.807,22.5  C410.922,497.909,376.259,488.022,386.5,468.951z"/>
<path fill-rule="evenodd" clip-rule="evenodd" fill="#101177" d="M467.5,417.199l8.25-10.5L467.5,417.199z"/>
<line fill="none" stroke="#000000" stroke-linecap="square" stroke-miterlimit="10" x1="467.5" y1="417.199" x2="475.75" y2="406.699"/>
<path fill-rule="evenodd" clip-rule="evenodd" fill="#999999" stroke="#000000" stroke-linecap="square" stroke-miterlimit="10" d="  M457,408.199c-13.207,6.319-31.062,5.688-45,0.75c0-0.75,0-1.5,0-2.25C425.807,401.806,444.936,400.647,457,408.199z"/>
<path fill-rule="evenodd" clip-rule="evenodd" fill="#CF001B" stroke="#000000" stroke-width="0.5" stroke-linecap="square" stroke-miterlimit="10" d="  M383.5,486.201c5.575,7.398,33.535,6.972,41.25,0.75c3.599,2.712,3.67,1.93,11.25,3.75c-1.513-28.837-19.361-15.947-35.25-15  c-13.202,0.787-12.364-10.011-26.25,0C359.175,486.75,371.568,494.88,383.5,486.201z"/>
<path fill="none" stroke="#000000" stroke-linecap="square" stroke-miterlimit="10" d="M361.75,504.201  c8.573-10.21,68.755-7.911,78,1.5"/>
<path fill-rule="evenodd" clip-rule="evenodd" fill="#BDBDC1" stroke="#000000" stroke-linecap="square" stroke-miterlimit="10" d="  M466,366.949c-25.767,0-54.37,1.567-78.75-0.75C413.017,366.199,441.619,364.631,466,366.949z"/>
<path fill-rule="evenodd" clip-rule="evenodd" fill="#BDBDC1" stroke="#000000" stroke-linecap="square" stroke-miterlimit="10" d="  M473.5,367.699c-4.657-1.481-7.772,3.151-8.25-3C470.931,363.091,472.378,367.342,473.5,367.699z"/>
<path fill="none" stroke="#000000" stroke-linecap="square" stroke-miterlimit="10" d="M391.75,365.449  c5.955-9.369,12.329-18.548,19.5-27c-4.106,19.339-8.893,38.611-13.5,57.75c11.06-16.021,19.791-37.493,32.25-52.5  c-2.607,15.278-7.143,30.472-9.75,45.75c10.048-11.927,16.895-28.143,26.25-41.25c-0.441,12.623-3.904,26.505-4.5,39  c6.668-10.142,12.082-24.358,18.75-34.5c-0.696,10.259-2.078,20.504-3,30.75c5.2-7.784,8.111-20.185,8.25-30.75  c-6.854,8.76-10.941,21.174-16.5,31.5c-0.44-11.22,5.428-25.393,2.25-35.25c-5.666,13.741-13.052,30.422-22.5,40.5  c3.578-14.65,6.172-29.6,9.75-44.25c-11.475,14.211-20.047,33.804-31.5,48c2.65-17.828,12.278-37.076,12-54  c-12.331,19.647-23.269,42.467-37.5,60c1.649-10.838,4.754-21.541,7.5-32.25"/>
<path fill-rule="evenodd" clip-rule="evenodd" fill="#999999" stroke="#000000" stroke-linecap="square" stroke-miterlimit="10" d="  M428.5,366.949c-0.267,2.552,1.504,54.286,10.5,42.75C445.618,401.212,435.962,369.173,428.5,366.949z"/>
<path fill-rule="evenodd" clip-rule="evenodd" stroke="#000000" stroke-width="0.5" stroke-linecap="square" stroke-miterlimit="10" d="  M428.5,447.951c-4.551,23.55-50.107,21.785-45.375-1.875C387.684,423.282,425.119,425.272,428.5,447.951z"/>
<path fill-rule="evenodd" clip-rule="evenodd" fill="#FCD2AE" stroke="#000000" stroke-width="0.5" stroke-linecap="square" stroke-miterlimit="10" d="  M406,453.201c-7.689,1.215-11.125,7.021-18.75,0c7.134,19.887,29.424,18.017,38.25,0.75  C417.361,459.159,414.095,453.754,406,453.201z"/>
<path fill-rule="evenodd" clip-rule="evenodd" fill="#FFFFFF" stroke="#000000" stroke-width="0.5" stroke-linecap="square" stroke-miterlimit="10" d="  M389.5,468.201c8.89-0.407,15.812,5.979,9.75,17.25C396.146,479.958,391.355,474.194,389.5,468.201z"/>
<path fill-rule="evenodd" clip-rule="evenodd" fill="#FFFFFF" stroke="#000000" stroke-width="0.5" stroke-linecap="square" stroke-miterlimit="10" d="  M418,468.951c-8.217-0.38-12.232,6.04-9,17.25C411.914,480.615,416.077,474.927,418,468.951z"/>
<path fill-rule="evenodd" clip-rule="evenodd" fill="#FFFFFF" stroke="#000000" stroke-width="0.5" stroke-linecap="square" stroke-miterlimit="10" d="  M424.75,486.951C424.75,491.068,424.75,491.068,424.75,486.951L424.75,486.951z"/>
<path fill-rule="evenodd" clip-rule="evenodd" fill="#101177" stroke="#000000" stroke-width="0.5" stroke-linecap="square" stroke-miterlimit="10" d="  M406,481.701c-1.798,3.231-5.873,0.134-5.25,9c2.5,0,5,0,7.5,0C408.113,488.124,405.732,483.941,406,481.701z"/>
<path fill-rule="evenodd" clip-rule="evenodd" fill="#101177" stroke="#000000" stroke-width="0.5" stroke-linecap="square" stroke-miterlimit="10" d="  M404.5,480.201c0.075,2.095,2.792-0.007,0.75-3.75c-0.5,0-1,0-1.5,0C400.946,480.98,404.555,481.727,404.5,480.201z"/>
<path fill-rule="evenodd" clip-rule="evenodd" fill="#101177" stroke="#000000" stroke-width="0.5" stroke-linecap="square" stroke-miterlimit="10" d="  M404.5,483.201C404.036,479.27,404.125,480.029,404.5,483.201L404.5,483.201z"/>
</svg>