<svg xmlns="http://www.w3.org/2000/svg" xmlns:xlink="http://www.w3.org/1999/xlink" version="1.1" id="Layer_1" x="0px" y="0px" enable-background="new 0 0 822.05 841.89" xml:space="preserve" viewBox="329.65 347.35 158.44 150.77">
<path fill-rule="evenodd" clip-rule="evenodd" fill="#D2D1D2" d="M435.926,390.265c16-12.75,32-25.5,48-38.25  c6.018,58.455,11.339,109.347-46.5,138.75C440.271,460.692,444.191,418.917,435.926,390.265z"/>
<path fill="none" stroke="#000000" stroke-width="1.25" stroke-linecap="square" stroke-miterlimit="10" d="M435.926,390.265  c16-12.75,32-25.5,48-38.25c6.018,58.455,11.339,109.347-46.5,138.75C440.271,460.692,444.191,418.917,435.926,390.265"/>
<path fill-rule="evenodd" clip-rule="evenodd" fill="#D2D1D2" stroke="#000000" stroke-width="1.25" stroke-linecap="square" stroke-miterlimit="10" d="  M484.676,352.015c-24.638-7.507-58.377-2.25-84.827-2.25c-27.252,0-44.154,23.608-64.423,40.5c27.076-2.254,58.016-0.75,86.225-0.75  C448.47,389.515,463.609,369.069,484.676,352.015z"/>
<path fill-rule="evenodd" clip-rule="evenodd" fill="#FB0F0C" stroke="#000000" stroke-width="1.25" stroke-linecap="square" stroke-miterlimit="10" d="  M438.176,488.515c-8.271,8.644-88.95,12.758-99,4.5c-8.834-7.259-12.454-88.867-4.5-99c7.179-9.146,88.85-13.73,99-5.25  C449.587,402.059,438.176,467.121,438.176,488.515z"/>
<path fill-rule="evenodd" clip-rule="evenodd" fill="#FFFFFF" stroke="#000000" stroke-width="1.25" stroke-linecap="square" stroke-miterlimit="10" d="  M369.926,465.265c-3.418,13.717-24.75,17.737-24.75,0S366.507,451.548,369.926,465.265z"/>
<path fill-rule="evenodd" clip-rule="evenodd" fill="#FFFFFF" stroke="#000000" stroke-width="1.25" stroke-linecap="square" stroke-miterlimit="10" d="  M425.426,415.765c-3.324,13.466-24.483,17.193-24,0C401.892,399.162,421.849,403.191,425.426,415.765z"/>
<path fill-rule="evenodd" clip-rule="evenodd" fill="#FFFFFF" stroke="#000000" stroke-linecap="square" stroke-miterlimit="10" d="  M420.176,367.015C398.039,396.494,398.467,337.213,420.176,367.015L420.176,367.015z"/>
<path fill-rule="evenodd" clip-rule="evenodd" fill="#FFFFFF" stroke="#000000" stroke-linecap="square" stroke-miterlimit="10" d="  M454.676,463.765C444.78,502.651,444.78,424.879,454.676,463.765L454.676,463.765z"/>
<path fill-rule="evenodd" clip-rule="evenodd" fill="#FFFFFF" stroke="#000000" stroke-linecap="square" stroke-miterlimit="10" d="  M469.676,424.015C457.896,461.796,458.885,386.473,469.676,424.015L469.676,424.015z"/>
<path fill-rule="evenodd" clip-rule="evenodd" fill="#FFFFFF" stroke="#000000" stroke-linecap="square" stroke-miterlimit="10" d="  M481.676,382.015C472.039,418.196,469.479,345.887,481.676,382.015L481.676,382.015z"/>
</svg>