<svg xmlns="http://www.w3.org/2000/svg" xmlns:xlink="http://www.w3.org/1999/xlink" version="1.1" id="Layer_1" x="0px" y="0px" enable-background="new 0 0 822.05 841.89" xml:space="preserve" viewBox="323.51 333.16 170.86 174.28">
<path fill-rule="evenodd" clip-rule="evenodd" fill="#935221" stroke="#000000" stroke-linecap="square" stroke-miterlimit="10" d="  M461.5,464.187c10.325,6.618,20.864,13.1,30.75,20.25c8.009-13.19-15.569-20.034-27-27.75C464,459.187,462.75,461.687,461.5,464.187  z"/>
<path fill-rule="evenodd" clip-rule="evenodd" fill="#935221" stroke="#000000" stroke-linecap="square" stroke-miterlimit="10" d="  M465.25,461.937C460.244,458.592,461.081,459.152,465.25,461.937L465.25,461.937z"/>
<path fill-rule="evenodd" clip-rule="evenodd" fill="#D8D2D2" stroke="#000000" stroke-linecap="square" stroke-miterlimit="10" d="  M370.75,398.937c27.756,19.198,61.566,51.887,92.25,61.5C450.676,445.384,382.043,394.665,370.75,398.937z"/>
<path fill-rule="evenodd" clip-rule="evenodd" fill="#FB0F0C" stroke="#000000" stroke-linecap="square" stroke-miterlimit="10" d="  M344.5,380.187c-16.871,22.775-22.517,51.2-19.861,79.083c1.767,18.55,0.193,31.713,17.986,35.667  c8.697,1.933,15.605,5.423,21.375,12C350.471,467.801,329.717,421.792,344.5,380.187z"/>
<path fill-rule="evenodd" clip-rule="evenodd" fill="#F8E50E" stroke="#000000" stroke-linecap="square" stroke-miterlimit="10" d="  M344.5,379.437c-14.11,42.479,5.675,87.507,19.5,127.5c11.415-17.672,28.671-33.666,51.002-32.25  C383.753,451.709,363.791,412.132,344.5,379.437z"/>
<path fill-rule="evenodd" clip-rule="evenodd" fill="#FB0F0C" stroke="#000000" stroke-linecap="square" stroke-miterlimit="10" d="  M475,361.437c-22.855-7.167-16.306-30.138-38.444-27.583c-34.863,4.023-68.356,17.677-91.306,44.833  C378.823,353.342,435.637,350.878,475,361.437z"/>
<path fill-rule="evenodd" clip-rule="evenodd" fill="#FB0F0C" stroke="#000000" stroke-linecap="square" stroke-miterlimit="10" d="  M344.5,379.437c19.291,32.695,39.253,72.272,70.502,95.25c3.738-24.202,19.019-45.177,40.498-57  C427.396,388.54,383.996,377.917,344.5,379.437z"/>
<path fill-rule="evenodd" clip-rule="evenodd" fill="#F8E50E" stroke="#000000" stroke-linecap="square" stroke-miterlimit="10" d="  M475,361.437c-39.181-10.51-97.686-8.48-130.5,18c39.496-1.52,82.896,9.103,111,38.25C448.126,395.841,455.311,373.762,475,361.437z  "/>
<path fill-rule="evenodd" clip-rule="evenodd" fill="#935221" stroke="#000000" stroke-linecap="square" stroke-miterlimit="10" d="  M345.25,377.937c-3-1.5-6-3-9-4.5C340.133,379.76,344.449,377.7,345.25,377.937z"/>
</svg>