<svg xmlns="http://www.w3.org/2000/svg" xmlns:xlink="http://www.w3.org/1999/xlink" version="1.1" id="Layer_1" x="0px" y="0px" enable-background="new 0 0 822.05 841.89" xml:space="preserve" viewBox="328.75 334.31 163.25 174.58">
<path fill-rule="evenodd" clip-rule="evenodd" fill="#E8C8A6" stroke="#000000" stroke-width="0.5" stroke-linecap="square" stroke-miterlimit="10" d="  M349.25,468.144c7.541,7.572,14.247,15.89,20.25,24.75c5.348-14.067,9.886-32.043,24.75-36.75  c-3.42,4.896-20.561,42.421-23.25,42.75C363.084,499.862,349.093,469.773,349.25,468.144z"/>
<path fill-rule="evenodd" clip-rule="evenodd" fill="#E8C8A6" stroke="#000000" stroke-width="0.5" stroke-linecap="square" stroke-miterlimit="10" d="  M329,468.144c6.642,4.372,13.401,6.259,21.75,1.5C343.459,463.175,337.3,465.239,329,468.144z"/>
<path fill-rule="evenodd" clip-rule="evenodd" fill="#E8C8A6" stroke="#000000" stroke-width="0.5" stroke-linecap="square" stroke-miterlimit="10" d="  M472.25,467.394c-7.7,7.312-15.027,15.031-21.75,23.25c-3.808-14.396-6.705-32.888-21.75-37.5c3.373,5.073,18.613,43.244,21,43.5  C457.036,497.426,472.217,469.579,472.25,467.394z"/>
<path fill-rule="evenodd" clip-rule="evenodd" fill="#E8C8A6" stroke="#000000" stroke-width="0.5" stroke-linecap="square" stroke-miterlimit="10" d="  M491.75,468.144c-7.734,4.643-14.577,6.017-21-0.75C478.952,462.458,484.252,464.833,491.75,468.144z"/>
<path fill-rule="evenodd" clip-rule="evenodd" fill="#196B05" stroke="#000000" stroke-width="0.5" stroke-linecap="square" stroke-miterlimit="10" d="  M388.25,455.394c22.604-10.127,90.901,10.428,52.5,33.75c-2.317-4.321-6.629-8.152-8.25-12.75c0.75,10.5,1.5,21,2.25,31.5  c-17.25,0.25-34.5,0.5-51.75,0.75c2.5-10.5,5-21,7.5-31.5c-2.513,4.854-8.082,8.257-11.25,12.75  C359.078,475.246,374.728,465.994,388.25,455.394z"/>
<path fill-rule="evenodd" clip-rule="evenodd" fill="#E8C8A6" stroke="#000000" stroke-width="0.5" stroke-linecap="square" stroke-miterlimit="10" d="  M396.5,431.394c-10.4,26.812,26.221,37.47,33,6.75C418.021,437.679,406.746,436.534,396.5,431.394z"/>
<path fill-rule="evenodd" clip-rule="evenodd" fill="#101177" stroke="#000000" stroke-width="0.5" stroke-linecap="square" stroke-miterlimit="10" d="  M428.75,432.894c-16.754,0.379-34.377-3.807-48-12.75C396.619,423.77,424.063,401.376,428.75,432.894z"/>
<path fill-rule="evenodd" clip-rule="evenodd" fill="#FF001D" stroke="#000000" stroke-width="0.5" stroke-linecap="square" stroke-miterlimit="10" d="  M395.75,365.394c7.964-3.608,13.33-5.368,9.75-15c-1.934-5.204-22.212,11.375-27,12c-4.343-19.325,13.503-30.25,30.75-27.375  c29.689,4.948,7.452,44.096-8.25,46.875C399.379,376.799,395.905,370.686,395.75,365.394z M422.75,388.644  c0.072,9.801-10.782,21.279-18.375,8.625C396.327,383.856,414.733,379.365,422.75,388.644z"/>
<path fill-rule="evenodd" clip-rule="evenodd" fill="#FF001D" stroke="#000000" stroke-width="0.5" stroke-linecap="square" stroke-miterlimit="10" d="  M442.25,393.144c13.499-0.71,5.708-3.879-3.75-6.75c20.538-15.922,26.499,25.281,0,13.5C439.75,397.644,441,395.394,442.25,393.144z   M443,408.894C433.448,405.361,434.683,403.007,443,408.894L443,408.894z"/>
</svg>