<svg xmlns="http://www.w3.org/2000/svg" xmlns:xlink="http://www.w3.org/1999/xlink" version="1.1" id="Layer_1" x="0px" y="0px" enable-background="new 0 0 822.05 841.89" xml:space="preserve" viewBox="305.02 248.72 212.67 345.7">
<path fill-rule="evenodd" clip-rule="evenodd" fill="#BCBEC0" stroke="#000000" stroke-width="2" stroke-linecap="square" stroke-miterlimit="10" d="  M306.015,413.394c63.25-0.5,126.5-1,189.75-1.5c0,73.411,11.124,179.616-93.75,181.502  C301.596,595.202,307.025,483.604,306.015,413.394z"/>
<path fill-rule="evenodd" clip-rule="evenodd" fill="#6D6F71" d="M422.265,471.896c-1.461-17.927-22.929-28.52-36.75-15  c-9.49,9.283-3.653,15.67-3,26.25c0.489,7.928,7.669,6.214,6.797,16.688c-1.266,15.188-2.531,30.375-3.797,45.562  c11.5,0,23,0,34.5,0C414.942,514.541,409.377,497.357,422.265,471.896z"/>
<path fill="none" stroke="#000000" stroke-width="2" stroke-linecap="square" stroke-miterlimit="10" d="M422.265,471.896  c-1.461-17.927-22.929-28.52-36.75-15c-9.49,9.283-3.653,15.67-3,26.25c0.489,7.928,7.669,6.214,6.797,16.688  c-1.266,15.188-2.531,30.375-3.797,45.562c11.5,0,23,0,34.5,0C414.942,514.541,409.377,497.357,422.265,471.896z"/>
<path fill-rule="evenodd" clip-rule="evenodd" fill="#8E9093" stroke="#000000" stroke-width="2" stroke-linecap="square" stroke-miterlimit="10" d="  M340.515,359.394c18.888,8.168,24.283,17.633,35.418-0.46c11.824-19.214,23.85-38.319,35.457-57.665  c8.2-13.667,28.453-15.229,42.375-10.875c61.646,19.278-0.053,92.105-16.5,121.5c38.015,0,36.854-0.177,55.988-32.793  c8.295-14.139,16.751-26.796,21.262-42.582c7.759-27.155-6.103-57.04-28.5-72.375C412.021,213.482,369.549,308.583,340.515,359.394z  "/>
</svg>