<svg xmlns="http://www.w3.org/2000/svg" xmlns:xlink="http://www.w3.org/1999/xlink" version="1.1" id="Layer_1" x="0px" y="0px" enable-background="new 0 0 822.05 841.89" xml:space="preserve" viewBox="305.53 356.89 208.22 132.31">
<path fill-rule="evenodd" clip-rule="evenodd" fill="#F1EC14" stroke="#000000" stroke-width="1.25" stroke-linecap="square" stroke-miterlimit="10" d="  M308.375,477.519c7.949,0,41.517,5.039,46.5,0c2.167-2.191,2.167-43.559,0-45.75c-2.144-2.168-44.356-2.168-46.5,0  C303.379,436.821,308.375,469.591,308.375,477.519z"/>
<path fill-rule="evenodd" clip-rule="evenodd" fill="#EED6B6" stroke="#000000" stroke-width="1.25" stroke-linecap="square" stroke-miterlimit="10" d="  M504.125,443.019c-5.26-4.839-10.416-2.609-12.75-10.5c-0.111,0.835,0.139,1.585,0.75,2.25c-16.968-1.541-21.294,6.251-18,20.25  C480.657,482.781,515.65,463.224,504.125,443.019z"/>
<path fill-rule="evenodd" clip-rule="evenodd" fill="#EED6B6" stroke="#000000" stroke-width="1.25" stroke-linecap="square" stroke-miterlimit="10" d="  M471.875,422.019C464.865,425.039,466.909,424.158,471.875,422.019L471.875,422.019z"/>
<path fill-rule="evenodd" clip-rule="evenodd" fill="#EED6B6" stroke="#000000" stroke-width="1.25" stroke-linecap="square" stroke-miterlimit="10" d="  M505.625,427.269C501.124,424.627,498.769,423.245,505.625,427.269L505.625,427.269z"/>
<path fill-rule="evenodd" clip-rule="evenodd" fill="#EED6B6" stroke="#000000" stroke-width="1.25" stroke-linecap="square" stroke-miterlimit="10" d="  M470.375,409.269c-6.666,22.425,16.221,43.098,31.5,20.25C519.611,402.998,479.116,379.162,470.375,409.269z"/>
<path fill-rule="evenodd" clip-rule="evenodd" d="M494.375,425.019c-7.076,7.243-9.582,11.95-15-1.5  C484.271,424.008,489.611,423.835,494.375,425.019z"/>
<path fill-rule="evenodd" clip-rule="evenodd" fill="#EED6B6" stroke="#000000" stroke-width="1.25" stroke-linecap="square" stroke-miterlimit="10" d="  M423.125,448.269c-4.75-0.5-9.5-1-14.25-1.5c-0.25,3-0.5,6-0.75,9C419.655,459.306,419.173,454.838,423.125,448.269z"/>
<path fill-rule="evenodd" clip-rule="evenodd" fill="#15782A" stroke="#000000" stroke-width="1.25" stroke-linecap="square" stroke-miterlimit="10" d="  M476.375,437.019c-21.871,5.23-37.725,9.806-60,4.5C408.338,471.894,480.247,470.031,476.375,437.019z"/>
<path fill-rule="evenodd" clip-rule="evenodd" fill="#392270" stroke="#000000" stroke-width="1.25" stroke-linecap="square" stroke-miterlimit="10" d="  M504.125,459.519c1,7.5,2,15,3,22.5C506.125,474.519,505.125,467.019,504.125,459.519z"/>
<path fill-rule="evenodd" clip-rule="evenodd" fill="#15782A" stroke="#000000" stroke-width="1.25" stroke-linecap="square" stroke-miterlimit="10" d="  M460.625,486.519c1.918-16.308,3.179-33.52,12.75-47.25c5.548,13.191,17.799,12.656,23.25-0.75c12.325,5.33,16.5,15.373,16.5,28.125  C513.125,498.036,487.875,486.519,460.625,486.519z"/>
<path fill-rule="evenodd" clip-rule="evenodd" fill="#EED6B6" stroke="#000000" stroke-width="1.25" stroke-linecap="square" stroke-miterlimit="10" d="  M441.875,470.769c-9.373,0.852-15.748-2.484-14.25,9C439.296,481.991,438.652,477.697,441.875,470.769z"/>
<path fill-rule="evenodd" clip-rule="evenodd" fill="#15782A" stroke="#000000" stroke-width="1.25" stroke-linecap="square" stroke-miterlimit="10" d="  M486.875,450.519c-16.196,13.315-33.972,14.517-54,18c-2.084,26.729,56.265,12.243,68.25-3  C512.006,451.68,505.764,438.4,486.875,450.519z"/>
<path fill-rule="evenodd" clip-rule="evenodd" fill="#EED6B6" stroke="#000000" stroke-width="1.25" stroke-linecap="square" stroke-miterlimit="10" d="  M426.875,470.019c-2.378-2.02,0.502-4.646-3-5.25C423.919,473.726,428.764,471.623,426.875,470.019z"/>
<path fill-rule="evenodd" clip-rule="evenodd" fill="#EED6B6" stroke="#000000" stroke-width="1.25" stroke-linecap="square" stroke-miterlimit="10" d="  M430.625,467.769c-1.148,5.729,1.434,9.194-4.5,12c-0.14-10.226-2.187-22.435-1.5-30.75  C427.972,455.054,429.385,461.142,430.625,467.769z"/>
<path fill-rule="evenodd" clip-rule="evenodd" fill="#EED6B6" stroke="#000000" stroke-width="1.25" stroke-linecap="square" stroke-miterlimit="10" d="  M406.625,425.769c2.394,3.65,4.774,7.835,3.75,14.25c-3.048-0.854,2.022-2.967,2.25-3  C412.26,470.098,399.013,446.813,406.625,425.769z"/>
<path fill="none" stroke="#000000" stroke-width="1.25" stroke-linecap="square" stroke-miterlimit="10" d="M411.125,437.769  c-0.621,4.435-1.852,7.239-4.5,8.25"/>
<path fill-rule="evenodd" clip-rule="evenodd" fill="#FFFFFF" stroke="#000000" stroke-width="1.25" stroke-linecap="square" stroke-miterlimit="10" d="  M416.375,357.519c29.25,0.694,60.456,34.204,22.5,50.25c7.597,3.586,10.864,7.28,20.25,7.5c-20.399,4.659-56.94-1.028-73.875-13.125  C356.139,381.35,395.888,358.005,416.375,357.519z"/>
<path fill-rule="evenodd" clip-rule="evenodd" fill="#D01A24" stroke="#000000" stroke-width="1.25" stroke-linecap="square" stroke-miterlimit="10" d="  M437.375,366.519c-14.659,8.94-20.488,13.091-34.5,3.75c-14.825-9.883-2.777,9.509,6.75,13.5c-19.143,17.257-5.333,24.449,5.25,3.75  c5.549,5.6,12.781,9.868,17.25,16.5C420.689,387.604,416.609,377.314,437.375,366.519z"/>
<path fill-rule="evenodd" clip-rule="evenodd" fill="#FFFFFF" d="M372.125,452.019c-5.022,0-51.664-3.721-41.25,8.25  c9.13,10.495,39.401-12.644,41.25,6.75c8.25-3.75,16.5-7.5,24.75-11.25c-8.25-3.5-16.5-7-24.75-10.5  C372.125,447.519,372.125,449.769,372.125,452.019z"/>
<line fill="none" stroke="#000000" stroke-linecap="square" stroke-miterlimit="10" x1="372.125" y1="452.019" x2="369.125" y2="452.019"/>
<line fill="none" stroke="#000000" stroke-linecap="square" stroke-miterlimit="10" x1="363.125" y1="452.019" x2="360.125" y2="452.019"/>
<line fill="none" stroke="#000000" stroke-linecap="square" stroke-miterlimit="10" x1="354.125" y1="452.019" x2="351.125" y2="452.019"/>
<line fill="none" stroke="#000000" stroke-linecap="square" stroke-miterlimit="10" x1="345.125" y1="452.019" x2="342.125" y2="452.019"/>
<line fill="none" stroke="#000000" stroke-linecap="square" stroke-miterlimit="10" x1="336.125" y1="452.019" x2="333.125" y2="452.019"/>
<line fill="none" stroke="#000000" stroke-linecap="square" stroke-miterlimit="10" x1="330.875" y1="455.019" x2="330.875" y2="458.019"/>
<line fill="none" stroke="#000000" stroke-linecap="square" stroke-miterlimit="10" x1="334.625" y1="460.269" x2="337.625" y2="460.269"/>
<line fill="none" stroke="#000000" stroke-linecap="square" stroke-miterlimit="10" x1="343.625" y1="460.269" x2="346.625" y2="460.269"/>
<line fill="none" stroke="#000000" stroke-linecap="square" stroke-miterlimit="10" x1="352.625" y1="460.269" x2="355.625" y2="460.269"/>
<line fill="none" stroke="#000000" stroke-linecap="square" stroke-miterlimit="10" x1="361.625" y1="460.269" x2="364.625" y2="460.269"/>
<path fill="none" stroke="#000000" stroke-linecap="square" stroke-miterlimit="10" d="M370.625,460.269c1.5-0.5,2,0,1.5,1.5"/>
<line fill="none" stroke="#000000" stroke-linecap="square" stroke-miterlimit="10" x1="372.875" y1="467.019" x2="375.125" y2="465.519"/>
<line fill="none" stroke="#000000" stroke-linecap="square" stroke-miterlimit="10" x1="381.125" y1="463.269" x2="383.375" y2="461.769"/>
<line fill="none" stroke="#000000" stroke-linecap="square" stroke-miterlimit="10" x1="388.625" y1="459.519" x2="391.625" y2="458.019"/>
<line fill="none" stroke="#000000" stroke-linecap="square" stroke-miterlimit="10" x1="396.125" y1="455.769" x2="393.125" y2="454.269"/>
<line fill="none" stroke="#000000" stroke-linecap="square" stroke-miterlimit="10" x1="387.875" y1="452.019" x2="384.875" y2="450.519"/>
<line fill="none" stroke="#000000" stroke-linecap="square" stroke-miterlimit="10" x1="379.625" y1="448.269" x2="376.625" y2="446.769"/>
<line fill="none" stroke="#000000" stroke-linecap="square" stroke-miterlimit="10" x1="372.125" y1="446.019" x2="372.125" y2="449.019"/>
</svg>