<svg xmlns="http://www.w3.org/2000/svg" xmlns:xlink="http://www.w3.org/1999/xlink" version="1.1" id="Layer_1" x="0px" y="0px" enable-background="new 0 0 822.05 841.89" xml:space="preserve" viewBox="199.21 287.89 422.01 297.5">
<path fill-rule="evenodd" clip-rule="evenodd" fill="#E0E1E2" d="M326.205,256.64L326.205,256.64L326.205,256.64z"/>
<line fill="none" stroke="#000000" stroke-width="2" stroke-linecap="square" stroke-miterlimit="10" x1="326.205" y1="256.64" x2="326.205" y2="256.64"/>
<path fill-rule="evenodd" clip-rule="evenodd" fill="#E3BD9D" stroke="#010101" stroke-width="2" stroke-linecap="square" stroke-miterlimit="10" d="  M364.455,295.64c0.25,15.25,0.5,30.5,0.75,45.75c28.614-0.673,62.409-14.947,65.629,17.25c1.893,18.923-0.617,18.48,18.014,20.5  c8.15,0.884,45.809,0.159,46.346,8.744c0.88,14.077-5.011,32.165,11.039,32.373c8.196,0.106,48.54-3.747,48.883,4.299  c0.541,12.712-5.431,31.584,9.389,31.584c18.568,0,37.137,0,55.705,0c-6.866,52.967-35.379,71.422-72.912,109.942  c-28.169,28.911-44.626,2.666-78.096-16.877c-88.665-51.771-177.331-103.544-265.996-155.315  c26.104-27.14,52.208-54.279,78.312-81.419C305.427,287.612,330.04,295.64,364.455,295.64z"/>
<path fill-rule="evenodd" clip-rule="evenodd" fill="#952B24" stroke="#010101" stroke-width="2" stroke-linecap="square" stroke-miterlimit="10" d="  M200.205,387.89c1.725,45.201,3.45,90.401,5.176,135.603c1.295,33.941-12.074,60.897,24.164,60.897c98.544,0,197.087,0,295.631,0  c9.805,0,4.283-28.019,4.283-36.111c0-6.121-53.525-2.889-62.288-2.889c-7.802,0,3.315-39-4.347-39  c-9.63,0-60.119,4.258-60.119-3.822c0-32.398,4.979-32.928-27.21-32.928c-36.838,0-38.04,6.146-38.04-31.111  c0-20.194-28.985-10.889-46.111-10.889c-25.664,0-16.139-17.114-16.139-40.5C250.205,387.39,225.205,387.64,200.205,387.89z"/>
<path fill-rule="evenodd" clip-rule="evenodd" fill="#E3BD9D" stroke="#010101" stroke-width="2" stroke-linecap="square" stroke-miterlimit="10" d="  M203.955,387.14c28.189,0,62.093,9.388,82.513-11.547c25.996-26.651,51.991-53.302,77.987-79.953  c-27.831,0-58.071-8.471-78.581,11.547C258.567,333.838,231.261,360.489,203.955,387.14z"/>
<path fill-rule="evenodd" clip-rule="evenodd" fill="#E3BD9D" stroke="#010101" stroke-width="2" stroke-linecap="square" stroke-miterlimit="10" d="  M275.205,428.39c28.136-0.335,55.078,6.909,75.709-13.038c26.015-25.154,52.03-50.308,78.045-75.462  c-28.134,0.662-55.709-6.276-76.357,13.683C326.803,378.512,301.004,403.451,275.205,428.39z"/>
<path fill-rule="evenodd" clip-rule="evenodd" fill="#E3BD9D" stroke="#010101" stroke-width="2" stroke-linecap="square" stroke-miterlimit="10" d="  M338.955,468.14c28.18,0.983,56.185,10.285,76.999-9.828c25.585-24.724,51.17-49.448,76.755-74.172  c-26.441-2.975-52.09-14.407-71.832,4.703C393.57,415.275,366.263,441.708,338.955,468.14z"/>
<path fill-rule="evenodd" clip-rule="evenodd" fill="#E3BD9D" stroke="#010101" stroke-width="2" stroke-linecap="square" stroke-miterlimit="10" d="  M409.455,504.89c26.577,0.719,48.595,8.063,68.107-10.473c25.799-24.51,51.598-49.019,77.396-73.527  c-26.723-0.347-50.499-7.753-70.039,11.118C459.766,456.302,434.61,480.596,409.455,504.89z"/>
<path fill-rule="evenodd" clip-rule="evenodd" fill="#E3BD9D" stroke="#010101" stroke-width="2" stroke-linecap="square" stroke-miterlimit="10" d="  M467.209,543.14c27.792,1.005,54.484,10.286,74.328-10.248c24.724-25.584,49.448-51.168,74.172-76.752  c-32.525,0-49.705-5.421-73.041,16.409C517.515,496.08,492.362,519.61,467.209,543.14z"/>
<path fill-rule="evenodd" clip-rule="evenodd" fill="#ED1C24" stroke="#010101" stroke-width="2" stroke-linecap="square" stroke-miterlimit="10" d="  M465.709,327.89c21.667,14.074,43.333,28.148,65,42.222c26.4,17.149,22.67,14.895,40.75-11.472c-31-15.5-62-31-93-46.5  c5.383-6.744,8.859-15.012,14.25-21.75c-22.5-0.5-45-1-67.5-1.5c7.75,20.5,15.5,41,23.25,61.5  C454.209,342.89,459.959,335.39,465.709,327.89z"/>
</svg>