<svg xmlns="http://www.w3.org/2000/svg" xmlns:xlink="http://www.w3.org/1999/xlink" version="1.1" id="Layer_1" x="0px" y="0px" enable-background="new 0 0 822.05 841.89" xml:space="preserve" viewBox="298.96 244.92 221.73 353.02">
<path fill-rule="evenodd" clip-rule="evenodd" fill="#E0E1E2" stroke="#000000" stroke-width="2" stroke-linecap="square" stroke-miterlimit="10" d="  M319.506,245.921c-30.466,29.933-16.154,91.053-16.375,130.216c-0.292,51.595-0.583,103.189-0.875,154.784  c27.93-6.327,45.618,22.708,70.102,20.86c30.893-2.332,63.479-9.28,93.76-1.972c11.121,2.685,49.849-21.712,49.918-33.804  c0.179-31.192,0.356-62.384,0.535-93.576c0.111-19.457,9.938-163.179-5.854-164.196C446.979,254.13,383.243,250.026,319.506,245.921  z"/>
<path fill-rule="evenodd" clip-rule="evenodd" fill="#E0E1E2" d="M323.256,530.171c-1.75-15.25-3.5-30.5-5.25-45.75  c11.826,6.804,43.502,33.509,56.403,31.205c27.449-4.901,54.898-9.804,82.347-14.705c-2.125,14.169-4.251,28.338-6.376,42.507  c-0.884,5.892,28.216,12.269,28.121,1.146c-0.28-32.809-0.562-65.617-0.842-98.426c-0.394-46.079-0.787-92.159-1.182-138.238  c-0.289-33.917,10.014-31.758,41.028-49.239C452.756,349.171,388.006,439.671,323.256,530.171z"/>
<path fill="none" stroke="#000000" stroke-width="2" stroke-linecap="square" stroke-miterlimit="10" d="M323.256,530.171  c-1.75-15.25-3.5-30.5-5.25-45.75c11.826,6.804,43.502,33.509,56.403,31.205c27.449-4.901,54.898-9.804,82.347-14.705  c-2.125,14.169-4.251,28.338-6.376,42.507c-0.884,5.892,28.216,12.269,28.121,1.146c-0.28-32.809-0.562-65.617-0.842-98.426  c-0.394-46.079-0.787-92.159-1.182-138.238c-0.289-33.917,10.014-31.758,41.028-49.239"/>
<path fill-rule="evenodd" clip-rule="evenodd" fill="#A5A7A9" stroke="#000000" stroke-width="2" stroke-linecap="square" stroke-miterlimit="10" d="  M318.006,484.421c0.247-70.773,0.493-141.546,0.74-212.32c0.113-32.323,140.327-6.885,167.26-5.93  c-26.524,6.91-18.446,44.738-19.624,65.45c-2.656,46.72-5.312,93.44-7.97,140.161c-2.272,39.973-13.337,31.225-54.059,38.496  C365.683,517.184,352.642,504.349,318.006,484.421z"/>
<path fill-rule="evenodd" clip-rule="evenodd" fill="#E0E1E2" d="M330.756,256.421L330.756,256.421L330.756,256.421z"/>
<line fill="none" stroke="#000000" stroke-width="2" stroke-linecap="square" stroke-miterlimit="10" x1="330.756" y1="256.421" x2="330.756" y2="256.421"/>
<path fill-rule="evenodd" clip-rule="evenodd" fill="#A5A7A9" d="M469.506,299.921c-40.964-2.087-134.341,16.116-138.75-43.5  C377.006,270.921,423.256,285.421,469.506,299.921z"/>
<path fill="none" stroke="#000000" stroke-width="2" stroke-linecap="square" stroke-miterlimit="10" d="M469.506,299.921  c-40.964-2.087-134.341,16.116-138.75-43.5"/>
<path fill-rule="evenodd" clip-rule="evenodd" fill="#E0E1E2" d="M351.756,293.921l3,211.5L351.756,293.921z"/>
<line fill="none" stroke="#000000" stroke-width="2" stroke-linecap="square" stroke-miterlimit="10" x1="351.756" y1="293.921" x2="354.756" y2="505.421"/>
<path fill-rule="evenodd" clip-rule="evenodd" fill="#BCBEC0" stroke="#000000" stroke-width="2" stroke-linecap="square" stroke-miterlimit="10" d="  M378.756,552.671c3.42,17.276,7.47,29.059,26.25,29.25c23.188,0.237,21.31-15.589,24.75-35.25  C412.756,548.671,395.756,550.671,378.756,552.671z"/>
<path fill-rule="evenodd" clip-rule="evenodd" fill="#BCBEC0" stroke="#000000" stroke-width="2" stroke-linecap="square" stroke-miterlimit="10" d="  M391.506,579.671c-0.123,23.25,37.286,23.778,33-3C414.833,583.801,402.541,584.318,391.506,579.671z"/>
</svg>