<svg xmlns="http://www.w3.org/2000/svg" xmlns:xlink="http://www.w3.org/1999/xlink" version="1.1" id="Layer_1" x="0px" y="0px" enable-background="new 0 0 822.05 841.89" xml:space="preserve" viewBox="236.28 270.14 348.22 304.25">
<path fill-rule="evenodd" clip-rule="evenodd" fill="#BCBEC0" stroke="#000000" stroke-width="2" stroke-linecap="square" stroke-miterlimit="10" d="  M287.999,271.14c6.282,28.274-10.973,53.566-21,78.75c-15.414,38.71-24.722,81.448-27.75,123c-1.02,13.997-6.174,100.5,5.863,100.5  c56.893,0,113.786,0,170.679,0c50.246,0,100.493,0,150.74,0c7.026,0,2.753-87.974,1.97-98.25  c-2.974-39.041-9.493-80.86-25.194-116.972c-11.65-26.796-29.295-56.77-24.306-87.028C442,271.14,365,271.14,287.999,271.14z"/>
<path fill="none" stroke="#000000" stroke-width="2" stroke-linecap="square" stroke-miterlimit="10" d="M338.249,480.39  c23.465,20.848,64.244,58.114,60,93"/>
<path fill="none" stroke="#000000" stroke-width="2" stroke-linecap="square" stroke-miterlimit="10" d="M409.499,573.39  c5.472-37.372,32.433-66.836,58.502-92.25"/>
<path fill-rule="evenodd" clip-rule="evenodd" fill="#FFFFFF" stroke="#000000" stroke-width="2" stroke-linecap="square" stroke-miterlimit="10" d="  M389.249,542.64c8.439,7.769,19.314,7.762,28.502,0.75c0.5,9.75,1,19.5,1.5,29.25C389.136,571.827,391.564,572.741,389.249,542.64z"/>
<path fill-rule="evenodd" clip-rule="evenodd" fill="#D5938C" stroke="#000000" stroke-width="2" stroke-linecap="square" stroke-miterlimit="10" d="  M377.999,442.89c3.091,14.045,12.002,55.665,26.25,55.5c25.04-0.289,11.455-51.029,32.252-60.75  C424.009,414.746,365.755,416.197,377.999,442.89z"/>
<path fill-rule="evenodd" clip-rule="evenodd" fill="#DF5B27" stroke="#000000" stroke-width="2" stroke-linecap="square" stroke-miterlimit="10" d="  M378.749,435.39c33.56,1.379,20.284,46.535,27,63.75c-3.014-24.282-0.005-57.192,26.252-66  C414.214,438.524,391.346,434.065,378.749,435.39z"/>
<path fill-rule="evenodd" clip-rule="evenodd" fill="#AF8977" stroke="#000000" stroke-width="2" stroke-linecap="square" stroke-miterlimit="10" d="  M436.501,437.64c-8.178-26.484,78.894-23.99,52.125,20.625c-7.357,12.262-33.094,19.75-42.375,5.625  c-12.017-18.289,26.233-23.616,20.25-3C508.535,450.329,456.634,399.875,436.501,437.64z"/>
<path fill-rule="evenodd" clip-rule="evenodd" fill="#AF8977" stroke="#000000" stroke-width="2" stroke-linecap="square" stroke-miterlimit="10" d="  M374.249,435.39c7.175-29.002-82.422-19.877-50.25,22.5c10.484,13.81,31.076,15.53,42,1.875  c10.028-12.535-25.729-23.735-21.75-1.125C303.937,447.989,351.417,399.83,374.249,435.39z"/>
<path fill="none" stroke="#000000" stroke-width="2" stroke-linecap="square" stroke-miterlimit="10" d="M416.251,341.64  C387.093,366.902,387.012,316.458,416.251,341.64L416.251,341.64z"/>
<path fill-rule="evenodd" clip-rule="evenodd" fill="#ED1C24" stroke="#000000" stroke-width="2" stroke-linecap="square" stroke-miterlimit="10" d="  M559.501,327.39c8,8.75,16,17.5,24,26.25c-17.166,11.853-34.332,23.706-51.498,35.558c-17.461,12.056-5.422,16.929,5.748,33.442  c-17.466-1.675-34.932-3.35-52.397-5.024c-5.23-0.501,0.214-44.5,0.647-51.976c15.165,13.073,17.28,23.673,31.198,8.344  C531.3,358.453,545.4,342.921,559.501,327.39z"/>
</svg>