<svg xmlns="http://www.w3.org/2000/svg" xmlns:xlink="http://www.w3.org/1999/xlink" version="1.1" id="Layer_1" x="0px" y="0px" enable-background="new 0 0 822.05 841.89" xml:space="preserve" viewBox="222.14 257.92 376.78 325.98">
<path fill-rule="evenodd" clip-rule="evenodd" fill="#FBC0DF" stroke="#000000" stroke-width="2" stroke-linecap="square" stroke-miterlimit="10" d="  M268.002,267.891c4.071,18.256-30.77,33.282-39,51.75c-14.184,31.827,0.259,63.182,12.75,92.625  c4.135,9.747,15.365,64.121,21,66.375c26.844,10.737,52.683,10.464,80.625,4.875c24.962-4.992,18.805-46.021,29.25-69  c11.49-25.277,24.171-46.326,21.75-75.375c-2.202-26.426-19.128-32.58-32.625-50.25c-8.947-11.713-8.919-21.771-24.141-21.633  C314.408,267.469,291.205,267.68,268.002,267.891z"/>
<path fill-rule="evenodd" clip-rule="evenodd" fill="#947183" stroke="#000000" stroke-width="2" stroke-linecap="square" stroke-miterlimit="10" d="  M354.252,267.141c-18.604,11.823-70.11,12.065-88.5,0C286.715,256.038,333.215,256.314,354.252,267.141z"/>
<path fill-rule="evenodd" clip-rule="evenodd" fill="#A0C07C" stroke="#000000" stroke-width="2" stroke-linecap="square" stroke-miterlimit="10" d="  M471.252,275.391c3.563,17.137-31.082,33.804-39,51.75c-13.936,31.585,0.251,62.412,12.75,91.875  c4.065,9.583,14.734,63.757,20.625,66.375c24.383,10.837,55.027,12.563,80.625,5.25c25.729-7.352,18.157-44.146,29.625-69.375  c11.344-24.955,24.142-45.931,21.75-74.625c-2.249-26.984-19.078-32.487-32.625-50.25c-9.095-11.925-8.852-21.772-24.141-21.633  C517.658,274.969,494.455,275.18,471.252,275.391z"/>
<path fill-rule="evenodd" clip-rule="evenodd" fill="#5F714A" stroke="#000000" stroke-width="2" stroke-linecap="square" stroke-miterlimit="10" d="  M557.502,274.641c-23.006,10.938-66.203,10.808-89.25,0C488.507,262.527,537.588,262.405,557.502,274.641z"/>
<path fill-rule="evenodd" clip-rule="evenodd" fill="#C4E9F2" stroke="#000000" stroke-width="2" stroke-linecap="square" stroke-miterlimit="10" d="  M362.502,363.141c3.965,18.194-25.546,28.659-35.25,44.25c-15.479,24.87-11.579,57.093,1.125,82.5  c10.636,21.272,25.125,50.166,25.125,74.625c0,19.128,38.71,18.375,54.376,18.375c9.187,0,27.063-0.034,34.874-5.25  c15.338-10.244,7.319-9.938,12-28.5c6.667-26.439,19.857-47.625,28.5-72.75c7.967-23.16,8.201-52-6-72.75  c-10.037-14.666-36.859-21.156-32.25-41.25C417.502,362.641,390.002,362.891,362.502,363.141z"/>
<path fill-rule="evenodd" clip-rule="evenodd" fill="#8BA5AC" stroke="#000000" stroke-width="2" stroke-linecap="square" stroke-miterlimit="10" d="  M448.002,362.391c-18.391,12.065-69.896,11.823-88.5,0C380.539,351.564,427.039,351.288,448.002,362.391z"/>
</svg>