<svg xmlns="http://www.w3.org/2000/svg" xmlns:xlink="http://www.w3.org/1999/xlink" version="1.1" id="Layer_1" x="0px" y="0px" enable-background="new 0 0 822.05 841.89" xml:space="preserve" viewBox="215.42 361.39 389.09 120.5">
<path fill-rule="evenodd" clip-rule="evenodd" fill="#C9C9C9" stroke="#000000" stroke-width="2" stroke-linecap="square" stroke-miterlimit="10" d="  M297.012,362.394c-31.88,11.972-78,18.82-78,55.167c0,42.209-15.215,63.333,28.02,63.333c98.579,0,197.157,0,295.735,0  c19.415,0,60.696-27.988,59.935-46.644c-1.827-44.779,12.614-65.553-32.794-66.453C478.942,365.997,387.977,364.195,297.012,362.394  z"/>
<path fill-rule="evenodd" clip-rule="evenodd" fill="#C9C9C9" d="M219.012,395.394c75.955,1.02,151.91,2.039,227.864,3.059  c34.372,0.461,68.744,0.923,103.116,1.384c9.629,0.129,4.271,68.756,4.271,81.057C442.513,452.394,330.762,423.894,219.012,395.394z  "/>
<path fill="none" stroke="#000000" stroke-width="2" stroke-linecap="square" stroke-miterlimit="10" d="M219.012,395.394  c75.955,1.02,151.91,2.039,227.864,3.059c34.372,0.461,68.744,0.923,103.116,1.384c9.629,0.129,4.271,68.756,4.271,81.057"/>
<path fill-rule="evenodd" clip-rule="evenodd" fill="#C9C9C9" d="M552.014,401.394l48-33L552.014,401.394z"/>
<line fill="none" stroke="#000000" stroke-width="2" stroke-linecap="square" stroke-miterlimit="10" x1="552.014" y1="401.394" x2="600.014" y2="368.394"/>
<path fill-rule="evenodd" clip-rule="evenodd" fill="#C4E9F2" stroke="#000000" stroke-width="2" stroke-linecap="square" stroke-miterlimit="10" d="  M467.264,469.644c-34.441,0-68.883,0-103.325,0c-17.058,0-34.116,0-51.173,0c-11.56,0-15.512-21.913-8.254-29.25  c10.767-10.884,87.753,0,103.325,0c17.058,0,34.116,0,51.173,0C474.158,440.394,467.264,456.572,467.264,469.644z"/>
<path fill-rule="evenodd" clip-rule="evenodd" fill="#4D4D4D" stroke="#000000" stroke-width="2" stroke-linecap="square" stroke-miterlimit="10" d="  M540.014,444.894c-0.546,30.461-47.545,30.587-48,0C491.549,413.63,539.865,413.613,540.014,444.894z"/>
<path fill-rule="evenodd" clip-rule="evenodd" fill="#4D4D4D" stroke="#000000" stroke-width="2" stroke-linecap="square" stroke-miterlimit="10" d="  M254.262,468.144C204.728,478.452,253.526,443.421,254.262,468.144L254.262,468.144z"/>
<path fill-rule="evenodd" clip-rule="evenodd" fill="#4D4D4D" stroke="#000000" stroke-width="2" stroke-linecap="square" stroke-miterlimit="10" d="  M435.764,456.894c-60.25-1.25-120.501-2.5-180.752-3.75c-10.286-36.578,53.636-19.902,74.937-19.461  c35.521,0.737,71.043,1.474,106.565,2.211C436.286,442.277,437.885,450.952,435.764,456.894z"/>
<path fill-rule="evenodd" clip-rule="evenodd" fill="#4D4D4D" stroke="#000000" stroke-width="2" stroke-linecap="square" stroke-miterlimit="10" d="  M256.512,432.894c36.795-25.532,46.595-25.371,91.093-24.788c39.136,0.513,78.273,1.025,117.409,1.538  c-33.295,29.965-41.388,26.761-86.479,25.813C337.86,434.603,297.186,433.749,256.512,432.894z"/>
<path fill-rule="evenodd" clip-rule="evenodd" fill="#4D4D4D" stroke="#000000" stroke-width="2" stroke-linecap="square" stroke-miterlimit="10" d="  M469.514,410.394c4.105,21.312-19.932,33.603-33.75,46.5C430.638,434.337,454.932,422.988,469.514,410.394z"/>
<path fill-rule="evenodd" clip-rule="evenodd" fill="#C9C9C9" d="M319.512,410.394c7.242,11.624,19.809,8.757,28.5-0.75  C339.069,409.426,320.132,410.064,319.512,410.394z"/>
<path fill="none" stroke="#000000" stroke-width="2" stroke-linecap="square" stroke-miterlimit="10" d="M319.512,410.394  c7.242,11.624,19.809,8.757,28.5-0.75c-10.25-0.25-20.5-0.5-30.75-0.75"/>
<path fill-rule="evenodd" clip-rule="evenodd" fill="#C9C9C9" d="M393.012,412.644c7.854,10.851,20.41,8.525,29.252-0.75  C412.36,411.411,396.041,410.823,393.012,412.644z"/>
<path fill="none" stroke="#000000" stroke-width="2" stroke-linecap="square" stroke-miterlimit="10" d="M393.012,412.644  c7.854,10.851,20.41,8.525,29.252-0.75c-10.251-0.5-20.501-1-30.752-1.5"/>
</svg>