<svg xmlns="http://www.w3.org/2000/svg" xmlns:xlink="http://www.w3.org/1999/xlink" version="1.1" id="Layer_1" x="0px" y="0px" enable-background="new 0 0 822.05 841.89" xml:space="preserve" viewBox="209.96 284.65 397.84 272.75">
<path fill-rule="evenodd" clip-rule="evenodd" fill="#C9C9C9" stroke="#000000" stroke-width="2" stroke-linecap="square" stroke-miterlimit="10" d="  M290.012,285.646c-15.584,6.234-66,18.497-66,35.16c0,29.534-14.956,63.84,18.821,63.84c84.579,0,169.158,0,253.737,0  c16.636,0,50.258-24.508,49.659-40.667c-1.424-38.458,10.129-52.833-28.408-53.629C441.885,288.782,365.948,287.214,290.012,285.646  z"/>
<path fill-rule="evenodd" clip-rule="evenodd" fill="#C9C9C9" d="M224.012,313.396c64.952,0.693,129.903,1.386,194.854,2.079  c28.048,0.299,56.095,0.598,84.143,0.897c4.947,0.053,2.255,59.407,2.255,68.274C411.513,360.896,317.762,337.146,224.012,313.396z"/>
<path fill="none" stroke="#000000" stroke-width="2" stroke-linecap="square" stroke-miterlimit="10" d="M224.012,313.396  c64.952,0.693,129.903,1.386,194.854,2.079c28.048,0.299,56.095,0.598,84.143,0.897c4.947,0.053,2.255,59.407,2.255,68.274"/>
<path fill-rule="evenodd" clip-rule="evenodd" fill="#C9C9C9" d="M503.764,318.646l40.5-27.75L503.764,318.646z"/>
<line fill="none" stroke="#000000" stroke-width="2" stroke-linecap="square" stroke-miterlimit="10" x1="503.764" y1="318.646" x2="544.264" y2="290.896"/>
<path fill-rule="evenodd" clip-rule="evenodd" fill="#C4E9F2" stroke="#000000" stroke-width="2" stroke-linecap="square" stroke-miterlimit="10" d="  M432.514,375.646c-28.248,0-56.496,0-84.745,0c-16.088,0-32.177,0-48.265,0c-6.999,0-7.778-20.889-4.242-24.75  c7.913-8.642,72.755,0,84.745,0C406.428,350.896,441.354,338.288,432.514,375.646z"/>
<path fill-rule="evenodd" clip-rule="evenodd" fill="#4D4D4D" stroke="#000000" stroke-width="2" stroke-linecap="square" stroke-miterlimit="10" d="  M493.264,354.646c-0.894,24.409-39.75,26.368-39.75,1.875C453.514,329.387,492.388,326.804,493.264,354.646z"/>
<path fill-rule="evenodd" clip-rule="evenodd" fill="#4D4D4D" stroke="#000000" stroke-width="2" stroke-linecap="square" stroke-miterlimit="10" d="  M253.262,374.146c-6.197,0.447-12.533,0-18.75,0c0-2,0-4,0-6C245.671,364.931,250.396,366.971,253.262,374.146z"/>
<path fill-rule="evenodd" clip-rule="evenodd" fill="#4D4D4D" stroke="#000000" stroke-width="2" stroke-linecap="square" stroke-miterlimit="10" d="  M406.262,364.396c-50.75-0.75-101.5-1.5-152.25-2.25c-7.879-32.265,51.647-16.992,71.093-16.607  C344.515,345.923,415.237,332.727,406.262,364.396z"/>
<path fill-rule="evenodd" clip-rule="evenodd" fill="#4D4D4D" stroke="#000000" stroke-width="2" stroke-linecap="square" stroke-miterlimit="10" d="  M255.512,344.146c50.863-34.736,114.906-19.692,175.502-18.75C385.789,365.297,314.121,345.611,255.512,344.146z"/>
<path fill-rule="evenodd" clip-rule="evenodd" fill="#4D4D4D" stroke="#000000" stroke-width="2" stroke-linecap="square" stroke-miterlimit="10" d="  M434.014,326.146c2.249,17.662-15.981,27.117-27.752,38.25C401.401,345.282,421.421,336.696,434.014,326.146z"/>
<path fill-rule="evenodd" clip-rule="evenodd" fill="#C9C9C9" d="M308.012,326.146c7.485,8.128,16.305,7.316,24.75-0.75  C324.011,323.893,309.902,324.93,308.012,326.146z"/>
<path fill="none" stroke="#000000" stroke-width="2" stroke-linecap="square" stroke-miterlimit="10" d="M308.012,326.146  c7.485,8.128,16.305,7.316,24.75-0.75c-8.614-0.492-17.64-1.91-26.25-1.5"/>
<path fill-rule="evenodd" clip-rule="evenodd" fill="#C9C9C9" d="M370.262,327.646c7.358,8.475,15.864,7.608,24-0.75  C386.895,326.07,371.368,327.195,370.262,327.646z"/>
<path fill="none" stroke="#000000" stroke-width="2" stroke-linecap="square" stroke-miterlimit="10" d="M370.262,327.646  c7.358,8.475,15.864,7.608,24-0.75c-8.364-0.246-17.165-1.391-25.5-0.75"/>
<path fill-rule="evenodd" clip-rule="evenodd" fill="#C9C9C9" stroke="#000000" stroke-width="2" stroke-linecap="square" stroke-miterlimit="10" d="  M350.012,372.646c-15.584,6.233-66,18.497-66,35.16c0,29.534-14.955,63.838,18.821,63.838c84.579,0,169.158,0,253.737,0  c16.636,0,50.258-24.508,49.659-40.666c-1.424-38.458,10.129-52.833-28.408-53.628C501.885,375.782,425.948,374.214,350.012,372.646  z"/>
<path fill-rule="evenodd" clip-rule="evenodd" fill="#C9C9C9" d="M284.012,400.396c64.952,0.693,129.903,1.386,194.854,2.079  c28.048,0.299,56.095,0.598,84.143,0.897c4.947,0.053,2.255,59.405,2.255,68.272C471.513,447.895,377.762,424.145,284.012,400.396z"/>
<path fill="none" stroke="#000000" stroke-width="2" stroke-linecap="square" stroke-miterlimit="10" d="M284.012,400.396  c64.952,0.693,129.903,1.386,194.854,2.079c28.048,0.299,56.095,0.598,84.143,0.897c4.947,0.053,2.255,59.405,2.255,68.272"/>
<path fill-rule="evenodd" clip-rule="evenodd" fill="#C9C9C9" d="M563.764,405.646l40.5-27.75L563.764,405.646z"/>
<line fill="none" stroke="#000000" stroke-width="2" stroke-linecap="square" stroke-miterlimit="10" x1="563.764" y1="405.646" x2="604.264" y2="377.896"/>
<path fill-rule="evenodd" clip-rule="evenodd" fill="#C4E9F2" stroke="#000000" stroke-width="2" stroke-linecap="square" stroke-miterlimit="10" d="  M492.514,462.644c-28.248,0-56.496,0-84.745,0c-16.088,0-32.177,0-48.265,0c-6.999,0-7.778-20.889-4.242-24.75  c7.913-8.642,72.755,0,84.744,0C466.428,437.894,501.354,425.287,492.514,462.644z"/>
<path fill-rule="evenodd" clip-rule="evenodd" fill="#4D4D4D" stroke="#000000" stroke-width="2" stroke-linecap="square" stroke-miterlimit="10" d="  M553.264,441.644c-0.895,24.409-39.75,26.367-39.75,1.875C513.514,416.387,552.389,413.804,553.264,441.644z"/>
<path fill-rule="evenodd" clip-rule="evenodd" fill="#4D4D4D" stroke="#000000" stroke-width="2" stroke-linecap="square" stroke-miterlimit="10" d="  M313.262,461.144c-6.197,0.447-12.533,0-18.75,0c0-2,0-4,0-6C305.671,451.929,310.396,453.968,313.262,461.144z"/>
<path fill-rule="evenodd" clip-rule="evenodd" fill="#4D4D4D" stroke="#000000" stroke-width="2" stroke-linecap="square" stroke-miterlimit="10" d="  M466.264,451.394c-50.751-0.75-101.501-1.5-152.252-2.25c-7.879-32.265,51.648-16.992,71.094-16.607  C404.516,432.921,475.239,419.725,466.264,451.394z"/>
<path fill-rule="evenodd" clip-rule="evenodd" fill="#4D4D4D" stroke="#000000" stroke-width="2" stroke-linecap="square" stroke-miterlimit="10" d="  M315.512,431.144c50.864-34.733,114.907-19.69,175.502-18.748C445.791,452.295,374.119,432.609,315.512,431.144z"/>
<path fill-rule="evenodd" clip-rule="evenodd" fill="#4D4D4D" stroke="#000000" stroke-width="2" stroke-linecap="square" stroke-miterlimit="10" d="  M494.014,413.146c2.248,17.66-15.98,27.115-27.75,38.248C461.403,432.281,481.422,423.696,494.014,413.146z"/>
<path fill-rule="evenodd" clip-rule="evenodd" fill="#C9C9C9" d="M368.012,413.146c7.485,8.128,16.305,7.316,24.75-0.75  C384.011,410.893,369.902,411.93,368.012,413.146z"/>
<path fill="none" stroke="#000000" stroke-width="2" stroke-linecap="square" stroke-miterlimit="10" d="M368.012,413.146  c7.485,8.128,16.305,7.316,24.75-0.75c-8.614-0.492-17.64-1.91-26.25-1.5"/>
<path fill-rule="evenodd" clip-rule="evenodd" fill="#C9C9C9" d="M430.264,414.646c7.358,8.475,15.863,7.607,24-0.75  C446.896,413.07,431.37,414.195,430.264,414.646z"/>
<path fill="none" stroke="#000000" stroke-width="2" stroke-linecap="square" stroke-miterlimit="10" d="M430.264,414.646  c7.358,8.475,15.863,7.607,24-0.75c-8.364-0.246-17.165-1.391-25.5-0.75"/>
<path fill-rule="evenodd" clip-rule="evenodd" fill="#C9C9C9" stroke="#000000" stroke-width="2" stroke-linecap="square" stroke-miterlimit="10" d="  M279.512,457.394c-15.17,5.993-65.25,19.486-65.25,35.16c0,29.534-14.956,63.84,18.821,63.84c84.579,0,169.158,0,253.737,0  c16.606,0,50.353-23.855,49.564-40.012c-1.882-38.582,9.609-53.485-29.063-54.284C431.385,460.53,355.448,458.962,279.512,457.394z"/>
<path fill-rule="evenodd" clip-rule="evenodd" fill="#C9C9C9" d="M214.262,485.144c64.952,0.866,129.903,1.732,194.855,2.598  c28.047,0.374,56.094,0.748,84.142,1.122c4.97,0.066,2.255,58.729,2.255,67.53C401.763,532.644,308.012,508.894,214.262,485.144z"/>
<path fill="none" stroke="#000000" stroke-width="2" stroke-linecap="square" stroke-miterlimit="10" d="M214.262,485.144  c64.952,0.866,129.903,1.732,194.855,2.598c28.047,0.374,56.094,0.748,84.142,1.122c4.97,0.066,2.255,58.729,2.255,67.53"/>
<path fill-rule="evenodd" clip-rule="evenodd" fill="#C9C9C9" d="M494.014,490.394l39.75-27.75L494.014,490.394z"/>
<line fill="none" stroke="#000000" stroke-width="2" stroke-linecap="square" stroke-miterlimit="10" x1="494.014" y1="490.394" x2="533.764" y2="462.644"/>
<path fill-rule="evenodd" clip-rule="evenodd" fill="#C4E9F2" stroke="#000000" stroke-width="2" stroke-linecap="square" stroke-miterlimit="10" d="  M422.014,547.394c-28.094,0-56.188,0-84.281,0c-7.264,0-80.324,7.228-52.221-24c7.675-8.528,72.513,0,84.281,0  C395.429,523.394,430.767,510.856,422.014,547.394z"/>
<path fill-rule="evenodd" clip-rule="evenodd" fill="#4D4D4D" stroke="#000000" stroke-width="2" stroke-linecap="square" stroke-miterlimit="10" d="  M483.514,526.394c-1.742,25.464-40.588,26.137-40.5,0C443.103,500.125,481.518,501.045,483.514,526.394z"/>
<path fill-rule="evenodd" clip-rule="evenodd" fill="#4D4D4D" stroke="#000000" stroke-width="2" stroke-linecap="square" stroke-miterlimit="10" d="  M243.512,545.894c-6.447,0.456-13.033,0-19.5,0c0-2,0-4,0-6C235.36,536.648,240.488,538.685,243.512,545.894z"/>
<path fill-rule="evenodd" clip-rule="evenodd" fill="#4D4D4D" stroke="#000000" stroke-width="2" stroke-linecap="square" stroke-miterlimit="10" d="  M396.512,536.894c-50.75-1-101.5-2-152.25-3c-7.879-32.265,51.647-16.992,71.093-16.607  C335.309,517.682,405.961,504.146,396.512,536.894z"/>
<path fill-rule="evenodd" clip-rule="evenodd" fill="#4D4D4D" stroke="#000000" stroke-width="2" stroke-linecap="square" stroke-miterlimit="10" d="  M245.012,516.644c51.536-34.357,114.476-20.136,175.502-19.5C376.135,537.485,303.225,517.802,245.012,516.644z"/>
<path fill-rule="evenodd" clip-rule="evenodd" fill="#4D4D4D" stroke="#000000" stroke-width="2" stroke-linecap="square" stroke-miterlimit="10" d="  M424.264,497.894c2.575,18.181-15.692,27.593-27.752,39C391.714,517.738,411.75,508.715,424.264,497.894z"/>
<path fill-rule="evenodd" clip-rule="evenodd" fill="#C9C9C9" d="M298.262,497.894c7.129,8.438,15.696,7.593,24-0.75  C314.895,496.319,299.368,497.443,298.262,497.894z"/>
<path fill="none" stroke="#000000" stroke-width="2" stroke-linecap="square" stroke-miterlimit="10" d="M298.262,497.894  c7.129,8.438,15.696,7.593,24-0.75c-8.364-0.246-17.165-1.391-25.5-0.75"/>
<path fill-rule="evenodd" clip-rule="evenodd" fill="#C9C9C9" d="M360.512,499.394c6.728,8.608,15.693,7.878,24-0.75  C376.467,497.826,360.261,499.541,360.512,499.394z"/>
<path fill="none" stroke="#000000" stroke-width="2" stroke-linecap="square" stroke-miterlimit="10" d="M360.512,499.394  c6.728,8.608,15.693,7.878,24-0.75c-8.615-0.246-17.665-1.403-26.25-0.75"/>
</svg>