<svg xmlns="http://www.w3.org/2000/svg" xmlns:xlink="http://www.w3.org/1999/xlink" version="1.1" id="Layer_1" x="0px" y="0px" enable-background="new 0 0 822.05 841.89" xml:space="preserve" viewBox="319.43 344.69 182.15 152.52">
<path fill-rule="evenodd" clip-rule="evenodd" fill="#31641F" stroke="#000000" stroke-width="1.25" stroke-linecap="square" stroke-miterlimit="10" d="  M464.5,377.33c43.563-29.223,56.208,100.81-7.875,82.5C410.261,446.583,410.043,353.866,464.5,377.33z"/>
<path fill="none" stroke="#000000" stroke-width="1.25" stroke-linecap="square" stroke-miterlimit="10" d="M473.5,383.33  c3.848-3.754,8.856-5.301,14.25-4.5"/>
<path fill="none" stroke="#000000" stroke-width="1.25" stroke-linecap="square" stroke-miterlimit="10" d="M443.5,386.33  c-3.706-0.95-7.462-1.702-11.25-2.25"/>
<path fill="none" stroke="#000000" stroke-width="1.25" stroke-linecap="square" stroke-miterlimit="10" d="M472.75,386.33  c-3.704-8.225-28.918-8.015-26.25,2.25"/>
<line fill="none" stroke="#000000" stroke-width="1.25" stroke-linecap="square" stroke-miterlimit="10" x1="468.25" y1="385.58" x2="468.25" y2="385.58"/>
<path fill-rule="evenodd" clip-rule="evenodd" fill="#31641F" stroke="#000000" stroke-width="1.25" stroke-linecap="square" stroke-miterlimit="10" d="  M469,387.08c-8.124-10.741-2.793-17.044-3-27c0.275,13.195,19.802-25.081,1.5-12C447.929,362.068,445.419,415.131,469,387.08z"/>
<path fill-rule="evenodd" clip-rule="evenodd" fill="#31641F" d="M443.5,453.08c-6.702-11.215-17.215-35.749-12-49.5  c8.542-22.521,15.563-9.076,34.125-16.5C487.166,378.463,490,405.059,490,419.705C490,455.368,475.014,452.45,443.5,453.08z"/>
<path fill="none" stroke="#000000" stroke-width="1.25" stroke-linecap="square" stroke-miterlimit="10" d="M443.5,453.08  c-17.476-29.241-21.215-62.521,15.75-64.5c36.03-1.929,40.119,33.745,21.75,63.75"/>
<path fill-rule="evenodd" clip-rule="evenodd" fill="#F1330D" stroke="#000000" stroke-width="1.25" stroke-linecap="square" stroke-miterlimit="10" d="  M370.75,375.08c-50.472-10.806-36.662,79.006,12,74.25C434.63,444.259,432.893,363.293,370.75,375.08z"/>
<path fill-rule="evenodd" clip-rule="evenodd" fill="#174014" stroke="#000000" stroke-width="1.25" stroke-linecap="square" stroke-miterlimit="10" d="  M361.75,355.58c-1.448,9.445-1.472,15.164,7.5,21c0.25-1.25,0.5-2.5,0.75-3.75C360.651,368.217,365.132,363.818,361.75,355.58z"/>
<path fill-rule="evenodd" clip-rule="evenodd" fill="#174014" stroke="#000000" stroke-width="1.25" stroke-linecap="square" stroke-miterlimit="10" d="  M385.75,385.58c4,0.25,8,0.5,12,0.75c0-1.25,0-2.5,0-3.75c-2.781-0.189-5.496-0.117-8.25-0.75c8.658-4.503,14.228-11.68,15.75-21  c-2.894,8.972-10.004,15.418-19.5,18.75c-1.973-6.733-5.921-11.27-6-18.75C373.882,370.684,375.024,381.277,385.75,385.58z"/>
<path fill-rule="evenodd" clip-rule="evenodd" fill="#174014" stroke="#000000" stroke-width="1.25" stroke-linecap="square" stroke-miterlimit="10" d="  M378.25,380.33c3.569-8.726,1.406-15.592,12-14.25C388.306,375.15,386.132,381.101,378.25,380.33z"/>
<path fill="none" stroke="#000000" stroke-linecap="square" stroke-miterlimit="10" d="M361,354.83  c-0.572-2.031-0.599-2.6,0.75,0.75"/>
<path fill-rule="evenodd" clip-rule="evenodd" fill="#174014" stroke="#000000" stroke-width="1.25" stroke-linecap="square" stroke-miterlimit="10" d="  M390.25,378.83c3.653,2.499,6.465,4.307,8.25,7.5c0.5-0.5,1-1,1.5-1.5C397.358,380.036,393.844,381.288,390.25,378.83z"/>
<path fill-rule="evenodd" clip-rule="evenodd" fill="#174014" stroke="#000000" stroke-width="1.25" stroke-linecap="square" stroke-miterlimit="10" d="  M367,360.08c-2.245,13.459,4.693,23.171,18,25.5C374.698,380.92,370.389,370.49,367,360.08z"/>
<path fill-rule="evenodd" clip-rule="evenodd" fill="#E7E4DE" d="M442.75,480.83c9.157-1.774,23.655-10.35,33-16.5  C463.149,458.494,442.911,467.081,442.75,480.83z"/>
<path fill="none" stroke="#000000" stroke-linecap="square" stroke-miterlimit="10" d="M442.75,480.83  c9.157-1.774,23.655-10.35,33-16.5C463.149,458.494,442.911,467.081,442.75,480.83"/>
<path fill-rule="evenodd" clip-rule="evenodd" fill="#EFE7BD" stroke="#000000" stroke-width="1.25" stroke-linecap="square" stroke-miterlimit="10" d="  M475,465.08c32.33-24.614-12.331-46.418-37.125-32.25c-10.92,6.24-23.924,21.505-18.375,35.25  C429.1,491.858,459.03,470.925,475,465.08z"/>
<path fill-rule="evenodd" clip-rule="evenodd" fill="#FFFFFF" stroke="#000000" stroke-width="1.25" stroke-linecap="square" stroke-miterlimit="10" d="  M451.75,493.58c-4.061-5.305-4.927-13.147-9.75-18.75c10.25-5.25,20.5-10.5,30.75-15.75c2.848,4.424,9.196,13.857,11.25,18.75  C471.41,476.622,460.343,484.567,451.75,493.58z"/>
<path fill-rule="evenodd" clip-rule="evenodd" fill="#D6CBB9" stroke="#000000" stroke-width="1.25" stroke-linecap="square" stroke-miterlimit="10" d="  M452.5,496.58C460.106,458.584,511.857,490.989,452.5,496.58L452.5,496.58z"/>
<path fill-rule="evenodd" clip-rule="evenodd" fill="#EEEADB" stroke="#000000" stroke-width="1.25" stroke-linecap="square" stroke-miterlimit="10" d="  M443.5,481.58c1.346-12.246,20.406-18.206,33-17.25C466.516,450.218,433.322,465.56,443.5,481.58z"/>
<path fill="none" stroke="#000000" stroke-width="1.25" stroke-linecap="square" stroke-miterlimit="10" d="M430.75,478.58  c-6.153-14.607,35.353-35.242,52.5-24.75"/>
<path fill="none" stroke="#000000" stroke-width="0.5" stroke-linecap="square" stroke-miterlimit="10" d="M430.75,471.83  c1.66-3.842,5.219-5.859,9.75-6"/>
<path fill="none" stroke="#000000" stroke-width="0.5" stroke-linecap="square" stroke-miterlimit="10" d="M455.5,455.33  c-4.219,0.676-8.19,2.82-11.25,6"/>
<path fill="none" stroke="#000000" stroke-width="0.5" stroke-linecap="square" stroke-miterlimit="10" d="M459.25,453.08  c2.788-1.778,6.262-2.44,9-1.5"/>
<path fill="none" stroke="#000000" stroke-width="0.5" stroke-linecap="square" stroke-miterlimit="10" d="M471.25,451.58  c4.157,0.146,8.44,1.207,12,3"/>
<path fill-rule="evenodd" clip-rule="evenodd" fill="#44300C" d="M473.5,435.83C472.858,435.484,471.856,434.943,473.5,435.83  L473.5,435.83z"/>
<path fill-rule="evenodd" clip-rule="evenodd" fill="#44300C" d="M468.25,428.33C466.606,429.216,467.608,428.675,468.25,428.33  L468.25,428.33z"/>
<path fill-rule="evenodd" clip-rule="evenodd" fill="#44300C" d="M476.5,443.33C474.856,444.216,475.858,443.675,476.5,443.33  L476.5,443.33z"/>
<path fill-rule="evenodd" clip-rule="evenodd" fill="#44300C" d="M481,445.58C481,444.58,481,444.58,481,445.58L481,445.58z"/>
<path fill-rule="evenodd" clip-rule="evenodd" fill="#44300C" d="M461.5,438.83C461.5,437.83,461.5,437.83,461.5,438.83  L461.5,438.83z"/>
<path fill-rule="evenodd" clip-rule="evenodd" fill="#44300C" d="M466,433.58C465.396,434.183,465.396,434.183,466,433.58  L466,433.58z"/>
<path fill-rule="evenodd" clip-rule="evenodd" fill="#DBD1A7" d="M460,436.58c6.604,3.198,10.179,2.047,15,7.5  c1.368-0.975,0.332-3.75,0.75-5.25c3.427-0.316,2.633,2.974,6,0.75C474.342,435.417,464.474,434.311,460,436.58z"/>
<path fill-rule="evenodd" clip-rule="evenodd" fill="#AC792F" d="M339.25,447.83C343.885,447.168,344.291,447.111,339.25,447.83  L339.25,447.83z"/>
<path fill-rule="evenodd" clip-rule="evenodd" fill="#AC792F" d="M328,463.58C331.422,463.149,331.477,463.142,328,463.58  L328,463.58z"/>
<path fill-rule="evenodd" clip-rule="evenodd" fill="#AC792F" d="M340,468.08C342.387,468.08,342.387,468.08,340,468.08L340,468.08z  "/>
<path fill-rule="evenodd" clip-rule="evenodd" fill="#AC792F" d="M343,470.33C344.358,469.672,344.997,469.364,343,470.33  L343,470.33z"/>
<path fill-rule="evenodd" clip-rule="evenodd" fill="#AC792F" d="M346.75,471.08C349.435,471.08,349.435,471.08,346.75,471.08  L346.75,471.08z"/>
<path fill-rule="evenodd" clip-rule="evenodd" fill="#AC792F" d="M358.75,454.58C361.928,453.885,360.553,454.185,358.75,454.58  L358.75,454.58z"/>
<path fill-rule="evenodd" clip-rule="evenodd" fill="#AC792F" d="M355.75,446.33C358.539,446.33,358.539,446.33,355.75,446.33  L355.75,446.33z"/>
<path fill-rule="evenodd" clip-rule="evenodd" fill="#AC792F" d="M359.5,443.33C361.358,442.88,360.943,442.981,359.5,443.33  L359.5,443.33z"/>
<path fill-rule="evenodd" clip-rule="evenodd" fill="#AC792F" d="M369.25,454.58C372.511,454.348,372.306,454.363,369.25,454.58  L369.25,454.58z"/>
<path fill-rule="evenodd" clip-rule="evenodd" fill="#AC792F" d="M381.25,443.33C383.883,443.126,384.055,443.114,381.25,443.33  L381.25,443.33z"/>
<path fill-rule="evenodd" clip-rule="evenodd" fill="#AC792F" d="M344.5,448.58C344.917,453.193,344.809,451.994,344.5,448.58  L344.5,448.58z"/>
<path fill-rule="evenodd" clip-rule="evenodd" fill="#AC792F" d="M331.75,450.08C332.199,451.937,332.099,451.523,331.75,450.08  L331.75,450.08z"/>
<path fill-rule="evenodd" clip-rule="evenodd" fill="#AC792F" d="M336.25,446.33C336.25,447.977,336.25,447.977,336.25,446.33  L336.25,446.33z"/>
<path fill-rule="evenodd" clip-rule="evenodd" fill="#AC792F" d="M338.5,434.33C338.189,438.418,338.048,440.285,338.5,434.33  L338.5,434.33z"/>
<path fill-rule="evenodd" clip-rule="evenodd" fill="#AC792F" d="M328,471.08C330.874,470.112,330.036,470.394,328,471.08  L328,471.08z"/>
<path fill-rule="evenodd" clip-rule="evenodd" fill="#AC792F" d="M329.5,471.83C332.451,472.546,331.986,472.434,329.5,471.83  L329.5,471.83z"/>
<path fill-rule="evenodd" clip-rule="evenodd" fill="#AC792F" d="M337,474.83C338.023,474.83,338.023,474.83,337,474.83L337,474.83z  "/>
<path fill-rule="evenodd" clip-rule="evenodd" fill="#AC792F" d="M330.25,453.83C330.25,452.83,330.25,452.83,330.25,453.83  L330.25,453.83z"/>
<path fill-rule="evenodd" clip-rule="evenodd" fill="#AC792F" d="M343.75,441.83C345.976,444.649,342.775,440.595,343.75,441.83  L343.75,441.83z"/>
<path fill-rule="evenodd" clip-rule="evenodd" fill="#AC792F" d="M343.75,447.08C344.87,447.08,344.87,447.08,343.75,447.08  L343.75,447.08z"/>
<path fill-rule="evenodd" clip-rule="evenodd" fill="#AC792F" d="M331,452.33C334.086,452.673,334.5,452.719,331,452.33L331,452.33z  "/>
<path fill-rule="evenodd" clip-rule="evenodd" fill="#AC792F" d="M352.75,462.83C354.397,462.83,354.397,462.83,352.75,462.83  L352.75,462.83z"/>
<path fill-rule="evenodd" clip-rule="evenodd" fill="#AC792F" d="M355,469.58C357.958,469.102,356.941,469.266,355,469.58  L355,469.58z"/>
<path fill-rule="evenodd" clip-rule="evenodd" fill="#AC792F" d="M348.25,465.83C350.792,465.83,350.792,465.83,348.25,465.83  L348.25,465.83z"/>
<path fill-rule="evenodd" clip-rule="evenodd" fill="#AC792F" d="M340.75,453.83C343.806,454.046,344.011,454.061,340.75,453.83  L340.75,453.83z"/>
<path fill-rule="evenodd" clip-rule="evenodd" fill="#AC792F" d="M344.5,462.08C344.5,464.747,344.5,459.413,344.5,462.08  L344.5,462.08z"/>
<path fill-rule="evenodd" clip-rule="evenodd" fill="#AC792F" d="M345.25,459.08C345.25,463.914,345.25,456.363,345.25,459.08  L345.25,459.08z"/>
<path fill-rule="evenodd" clip-rule="evenodd" fill="#AC792F" d="M349,459.08C346.421,460.2,348.204,459.425,349,459.08L349,459.08z  "/>
<path fill-rule="evenodd" clip-rule="evenodd" fill="#AC792F" d="M335.5,458.33C335.5,461.046,335.5,453.496,335.5,458.33  L335.5,458.33z"/>
<path fill-rule="evenodd" clip-rule="evenodd" fill="#AC792F" d="M352,463.58C351.463,463.58,351.463,463.58,352,463.58L352,463.58z  "/>
<path fill-rule="evenodd" clip-rule="evenodd" fill="#AC792F" d="M352,464.33C349.459,464.33,349.459,464.33,352,464.33L352,464.33z  "/>
<path fill-rule="evenodd" clip-rule="evenodd" fill="#AC792F" d="M354.25,460.58C353.25,460.58,353.25,460.58,354.25,460.58  L354.25,460.58z"/>
<path fill-rule="evenodd" clip-rule="evenodd" fill="#AC792F" d="M343.75,440.33C345.193,440.678,345.608,440.779,343.75,440.33  L343.75,440.33z"/>
<path fill-rule="evenodd" clip-rule="evenodd" fill="#AC792F" d="M367.75,444.08C369.397,444.08,369.397,444.08,367.75,444.08  L367.75,444.08z"/>
<path fill-rule="evenodd" clip-rule="evenodd" fill="#AC792F" d="M337.75,455.33C342.791,456.048,342.385,455.991,337.75,455.33  L337.75,455.33z"/>
<path fill-rule="evenodd" clip-rule="evenodd" fill="#AC792F" d="M342.25,463.58C342.036,466.394,342.034,466.417,342.25,463.58  L342.25,463.58z"/>
<path fill-rule="evenodd" clip-rule="evenodd" fill="#AC792F" d="M336.25,450.08C336.25,454.668,336.25,454.668,336.25,450.08  L336.25,450.08z"/>
<path fill-rule="evenodd" clip-rule="evenodd" fill="#AC792F" d="M349,464.33C349,465.977,349,465.977,349,464.33L349,464.33z"/>
<path fill-rule="evenodd" clip-rule="evenodd" fill="#AC792F" d="M342.25,456.83C343.062,460.026,343.111,460.22,342.25,456.83  L342.25,456.83z"/>
<path fill-rule="evenodd" clip-rule="evenodd" fill="#AC792F" d="M346.75,439.58C346.75,440.7,346.75,440.7,346.75,439.58  L346.75,439.58z"/>
<path fill-rule="evenodd" clip-rule="evenodd" fill="#AC792F" d="M345.25,441.83C345.483,443.808,345.501,443.96,345.25,441.83  L345.25,441.83z"/>
<path fill-rule="evenodd" clip-rule="evenodd" fill="#AC792F" d="M344.5,438.83C343.5,438.83,343.5,438.83,344.5,438.83  L344.5,438.83z"/>
<path fill-rule="evenodd" clip-rule="evenodd" fill="#AC792F" d="M349,442.58C349,444.227,349,444.227,349,442.58L349,442.58z"/>
<path fill-rule="evenodd" clip-rule="evenodd" fill="#AC792F" d="M346.75,441.83C346.75,446.761,346.75,446.761,346.75,441.83  L346.75,441.83z"/>
<path fill-rule="evenodd" clip-rule="evenodd" fill="#AC792F" d="M343,441.08C342.651,442.523,342.551,442.937,343,441.08  L343,441.08z"/>
<path fill-rule="evenodd" clip-rule="evenodd" fill="#AC792F" d="M328.75,450.83C332.02,449.477,328.732,450.837,328.75,450.83  L328.75,450.83z"/>
<path fill-rule="evenodd" clip-rule="evenodd" fill="#AC792F" d="M335.5,447.83C334.15,450.982,335.366,448.143,335.5,447.83  L335.5,447.83z"/>
<path fill-rule="evenodd" clip-rule="evenodd" fill="#AC792F" d="M338.5,450.83C337.889,454.098,338.036,453.313,338.5,450.83  L338.5,450.83z"/>
<path fill-rule="evenodd" clip-rule="evenodd" fill="#AC792F" d="M334.75,447.83C333.974,450.964,334.184,450.12,334.75,447.83  L334.75,447.83z"/>
<path fill-rule="evenodd" clip-rule="evenodd" fill="#AC792F" d="M337.75,444.83C337.75,445.95,337.75,445.95,337.75,444.83  L337.75,444.83z"/>
<path fill-rule="evenodd" clip-rule="evenodd" fill="#AC792F" d="M341.5,446.33C340.803,448.517,341.105,447.569,341.5,446.33  L341.5,446.33z"/>
<path fill-rule="evenodd" clip-rule="evenodd" fill="#AC792F" d="M338.5,449.33C338.5,449.867,338.5,449.867,338.5,449.33  L338.5,449.33z"/>
<path fill-rule="evenodd" clip-rule="evenodd" fill="#AC792F" d="M337,454.58C337,455.7,337,455.7,337,454.58L337,454.58z"/>
<path fill-rule="evenodd" clip-rule="evenodd" fill="#AC792F" d="M332.5,456.83C332.5,457.367,332.5,457.367,332.5,456.83  L332.5,456.83z"/>
<path fill-rule="evenodd" clip-rule="evenodd" fill="#AC792F" d="M343.75,445.58C346.494,446.198,346.891,446.287,343.75,445.58  L343.75,445.58z"/>
<path fill-rule="evenodd" clip-rule="evenodd" fill="#AC792F" d="M337.75,446.33C337.415,449.523,337.422,449.458,337.75,446.33  L337.75,446.33z"/>
<path fill-rule="evenodd" clip-rule="evenodd" fill="#AC792F" d="M345.25,457.58C345.25,458.58,345.25,458.58,345.25,457.58  L345.25,457.58z"/>
<path fill-rule="evenodd" clip-rule="evenodd" fill="#AC792F" d="M341.5,465.83C341.5,471.163,341.5,460.497,341.5,465.83  L341.5,465.83z"/>
<path fill-rule="evenodd" clip-rule="evenodd" fill="#AC792F" d="M330.25,449.33C326.693,449.463,325.23,449.518,330.25,449.33  L330.25,449.33z"/>
<path fill-rule="evenodd" clip-rule="evenodd" fill="#AC792F" d="M335.5,450.08C335.335,446.665,335.42,448.419,335.5,450.08  L335.5,450.08z"/>
<path fill-rule="evenodd" clip-rule="evenodd" fill="#AC792F" d="M352,445.58C351.342,443.331,351.147,442.665,352,445.58  L352,445.58z"/>
<path fill-rule="evenodd" clip-rule="evenodd" fill="#AC792F" d="M352,450.08C352.214,447.803,351.944,450.672,352,450.08  L352,450.08z"/>
<path fill-rule="evenodd" clip-rule="evenodd" fill="#AC792F" d="M349,447.83C349.349,446.386,349.449,445.972,349,447.83  L349,447.83z"/>
<path fill-rule="evenodd" clip-rule="evenodd" fill="#AC792F" d="M347.5,450.08C346.676,449.256,346.676,449.256,347.5,450.08  L347.5,450.08z"/>
<path fill-rule="evenodd" clip-rule="evenodd" fill="#AC792F" d="M355.75,442.58C355.404,441.938,354.863,440.936,355.75,442.58  L355.75,442.58z"/>
<path fill-rule="evenodd" clip-rule="evenodd" fill="#AC792F" d="M333.25,460.58C333.001,458.139,333.128,459.385,333.25,460.58  L333.25,460.58z"/>
<path fill-rule="evenodd" clip-rule="evenodd" fill="#AC792F" d="M336.25,458.33C336.464,456.053,336.194,458.922,336.25,458.33  L336.25,458.33z"/>
<path fill-rule="evenodd" clip-rule="evenodd" fill="#AC792F" d="M345.25,461.33C345.25,459.682,345.25,459.682,345.25,461.33  L345.25,461.33z"/>
<path fill-rule="evenodd" clip-rule="evenodd" fill="#AC792F" d="M349.75,456.83C349.964,454.553,349.694,457.422,349.75,456.83  L349.75,456.83z"/>
<path fill-rule="evenodd" clip-rule="evenodd" fill="#AC792F" d="M357.25,453.08C357.102,452.847,356.308,451.596,357.25,453.08  L357.25,453.08z"/>
<path fill-rule="evenodd" clip-rule="evenodd" fill="#AC792F" d="M329.5,459.08C328.5,459.08,328.5,459.08,329.5,459.08  L329.5,459.08z"/>
<path fill-rule="evenodd" clip-rule="evenodd" fill="#DDB55E" stroke="#000000" stroke-linecap="square" stroke-miterlimit="10" d="  M358,420.83c59.099-11.376,86.572,58.436,24.375,70.875C323.327,503.514,289.394,429.316,358,420.83z"/>
<path fill-rule="evenodd" clip-rule="evenodd" fill="#AC792F" d="M405.25,455.33C402.74,456.042,404.424,455.564,405.25,455.33  L405.25,455.33z"/>
<path fill-rule="evenodd" clip-rule="evenodd" fill="#AC792F" d="M404.5,447.08C401.998,448.024,403.072,447.619,404.5,447.08  L404.5,447.08z"/>
<path fill-rule="evenodd" clip-rule="evenodd" fill="#AC792F" d="M412,453.08C409.514,452.475,409.049,452.363,412,453.08  L412,453.08z"/>
<path fill-rule="evenodd" clip-rule="evenodd" fill="#AC792F" d="M365.5,450.08C362.465,450.778,362.888,450.68,365.5,450.08  L365.5,450.08z"/>
<path fill-rule="evenodd" clip-rule="evenodd" fill="#AC792F" d="M379.75,470.33C383.488,471.006,383.271,470.966,379.75,470.33  L379.75,470.33z"/>
<path fill-rule="evenodd" clip-rule="evenodd" fill="#AC792F" d="M378.25,456.83C380.229,456.596,380.381,456.579,378.25,456.83  L378.25,456.83z"/>
<path fill-rule="evenodd" clip-rule="evenodd" fill="#AC792F" d="M345.25,453.83C348.748,454.025,349.025,454.041,345.25,453.83  L345.25,453.83z"/>
<path fill-rule="evenodd" clip-rule="evenodd" fill="#AC792F" d="M346.75,447.08C348.722,447.08,348.722,447.08,346.75,447.08  L346.75,447.08z"/>
<path fill-rule="evenodd" clip-rule="evenodd" fill="#AC792F" d="M340,447.83C342.688,448.489,342.625,448.473,340,447.83  L340,447.83z"/>
<path fill-rule="evenodd" clip-rule="evenodd" fill="#AC792F" d="M368.5,471.83C368.5,473.802,368.5,473.802,368.5,471.83  L368.5,471.83z"/>
<path fill-rule="evenodd" clip-rule="evenodd" fill="#AC792F" d="M377.5,452.33C377.5,453.977,377.5,453.977,377.5,452.33  L377.5,452.33z"/>
<path fill-rule="evenodd" clip-rule="evenodd" fill="#AC792F" d="M341.5,459.08C341.949,460.937,341.849,460.523,341.5,459.08  L341.5,459.08z"/>
<path fill-rule="evenodd" clip-rule="evenodd" fill="#AC792F" d="M335.5,451.58C335.922,453.33,336.002,453.662,335.5,451.58  L335.5,451.58z"/>
<path fill-rule="evenodd" clip-rule="evenodd" fill="#AC792F" d="M334,455.33C333.396,455.933,333.396,455.933,334,455.33  L334,455.33z"/>
<path fill-rule="evenodd" clip-rule="evenodd" fill="#AC792F" d="M335.5,459.08C335.949,460.937,335.849,460.523,335.5,459.08  L335.5,459.08z"/>
<path fill-rule="evenodd" clip-rule="evenodd" fill="#AC792F" d="M337.75,455.33C338.096,455.971,338.637,456.973,337.75,455.33  L337.75,455.33z"/>
<path fill-rule="evenodd" clip-rule="evenodd" fill="#AC792F" d="M347.5,449.33C347.128,451.449,347.341,450.233,347.5,449.33  L347.5,449.33z"/>
<path fill-rule="evenodd" clip-rule="evenodd" fill="#AC792F" d="M344.5,447.08C344.5,448.08,344.5,448.08,344.5,447.08  L344.5,447.08z"/>
<path fill-rule="evenodd" clip-rule="evenodd" fill="#AC792F" d="M357.25,447.08C357.927,449.877,357.846,449.544,357.25,447.08  L357.25,447.08z"/>
<path fill-rule="evenodd" clip-rule="evenodd" fill="#AC792F" d="M370.75,481.58C373.203,481.919,373.466,481.957,370.75,481.58  L370.75,481.58z"/>
<path fill-rule="evenodd" clip-rule="evenodd" fill="#AC792F" d="M394,475.58C396.618,475.58,396.618,475.58,394,475.58L394,475.58z  "/>
<path fill-rule="evenodd" clip-rule="evenodd" fill="#AC792F" d="M392.5,469.58C393.943,469.928,394.358,470.029,392.5,469.58  L392.5,469.58z"/>
<path fill-rule="evenodd" clip-rule="evenodd" fill="#AC792F" d="M394.75,467.33C396.193,467.678,396.608,467.779,394.75,467.33  L394.75,467.33z"/>
<path fill-rule="evenodd" clip-rule="evenodd" fill="#AC792F" d="M402.25,475.58C405.039,475.58,405.039,475.58,402.25,475.58  L402.25,475.58z"/>
<path fill-rule="evenodd" clip-rule="evenodd" fill="#AC792F" d="M412,462.83C413.12,462.83,413.12,462.83,412,462.83L412,462.83z"/>
<path fill-rule="evenodd" clip-rule="evenodd" fill="#AC792F" d="M411.25,467.33C414.057,467.752,413.793,467.712,411.25,467.33  L411.25,467.33z"/>
<path fill-rule="evenodd" clip-rule="evenodd" fill="#AC792F" d="M372.25,447.83C371.454,447.484,369.671,446.709,372.25,447.83  L372.25,447.83z"/>
<path fill-rule="evenodd" clip-rule="evenodd" fill="#AC792F" d="M369.25,447.08C368.713,447.08,368.713,447.08,369.25,447.08  L369.25,447.08z"/>
<path fill-rule="evenodd" clip-rule="evenodd" fill="#AC792F" d="M383.5,471.08C383.711,474.769,383.678,474.185,383.5,471.08  L383.5,471.08z"/>
<path fill-rule="evenodd" clip-rule="evenodd" fill="#AC792F" d="M373.75,472.58C374.096,473.221,374.637,474.223,373.75,472.58  L373.75,472.58z"/>
<path fill-rule="evenodd" clip-rule="evenodd" fill="#AC792F" d="M376.75,469.58C377.5,471.008,377.724,471.436,376.75,469.58  L376.75,469.58z"/>
<path fill-rule="evenodd" clip-rule="evenodd" fill="#AC792F" d="M383.5,447.83C384.157,449.187,384.466,449.826,383.5,447.83  L383.5,447.83z"/>
<path fill-rule="evenodd" clip-rule="evenodd" fill="#AC792F" d="M383.5,450.08C383.5,450.617,383.5,450.617,383.5,450.08  L383.5,450.08z"/>
<path fill-rule="evenodd" clip-rule="evenodd" fill="#AC792F" d="M369.25,467.33C368.901,468.773,368.801,469.187,369.25,467.33  L369.25,467.33z"/>
<path fill-rule="evenodd" clip-rule="evenodd" fill="#AC792F" d="M353.5,462.83C353.5,464.477,353.5,464.477,353.5,462.83  L353.5,462.83z"/>
<path fill-rule="evenodd" clip-rule="evenodd" fill="#AC792F" d="M372.25,455.33C372.25,456.33,372.25,456.33,372.25,455.33  L372.25,455.33z"/>
<path fill-rule="evenodd" clip-rule="evenodd" fill="#AC792F" d="M370.75,456.83C371.109,457.365,372.213,459.01,370.75,456.83  L370.75,456.83z"/>
<path fill-rule="evenodd" clip-rule="evenodd" fill="#AC792F" d="M370,454.58C371,454.58,371,454.58,370,454.58L370,454.58z"/>
<path fill-rule="evenodd" clip-rule="evenodd" fill="#AC792F" d="M373.75,457.58C374.354,458.183,374.354,458.183,373.75,457.58  L373.75,457.58z"/>
<path fill-rule="evenodd" clip-rule="evenodd" fill="#AC792F" d="M371.5,453.08C371.5,453.617,371.5,453.617,371.5,453.08  L371.5,453.08z"/>
<path fill-rule="evenodd" clip-rule="evenodd" fill="#AC792F" d="M378.25,461.33C379.215,465.086,379.36,465.653,378.25,461.33  L378.25,461.33z"/>
<path fill-rule="evenodd" clip-rule="evenodd" fill="#AC792F" d="M369.25,456.08C368.646,456.683,368.646,456.683,369.25,456.08  L369.25,456.08z"/>
<path fill-rule="evenodd" clip-rule="evenodd" fill="#AC792F" d="M373,451.58C371.833,454.18,372.979,451.627,373,451.58L373,451.58  z"/>
<path fill-rule="evenodd" clip-rule="evenodd" fill="#AC792F" d="M371.5,448.58C371.5,449.7,371.5,449.7,371.5,448.58L371.5,448.58z  "/>
<path fill-rule="evenodd" clip-rule="evenodd" fill="#AC792F" d="M349.75,452.33C349.75,452.867,349.75,452.867,349.75,452.33  L349.75,452.33z"/>
<path fill-rule="evenodd" clip-rule="evenodd" fill="#AC792F" d="M348.25,453.08C348.25,454.08,348.25,454.08,348.25,453.08  L348.25,453.08z"/>
<path fill-rule="evenodd" clip-rule="evenodd" fill="#AC792F" d="M351.25,453.83C352.25,453.83,352.25,453.83,351.25,453.83  L351.25,453.83z"/>
<path fill-rule="evenodd" clip-rule="evenodd" fill="#AC792F" d="M348.25,456.83C347.363,458.473,347.904,457.471,348.25,456.83  L348.25,456.83z"/>
<path fill-rule="evenodd" clip-rule="evenodd" fill="#AC792F" d="M350.5,456.83C349.896,457.433,349.896,457.433,350.5,456.83  L350.5,456.83z"/>
<path fill-rule="evenodd" clip-rule="evenodd" fill="#AC792F" d="M344.5,446.33C344.5,446.867,344.5,446.867,344.5,446.33  L344.5,446.33z"/>
<path fill-rule="evenodd" clip-rule="evenodd" fill="#AC792F" d="M328.75,468.83C329.096,469.471,329.637,470.473,328.75,468.83  L328.75,468.83z"/>
<path fill-rule="evenodd" clip-rule="evenodd" fill="#AC792F" d="M328.75,472.58C329.574,473.403,329.574,473.403,328.75,472.58  L328.75,472.58z"/>
<path fill-rule="evenodd" clip-rule="evenodd" fill="#AC792F" d="M329.5,469.58C329.971,470.756,329.971,470.756,329.5,469.58  L329.5,469.58z"/>
<path fill-rule="evenodd" clip-rule="evenodd" fill="#AC792F" d="M328.75,472.58C329.75,473.58,329.75,473.58,328.75,472.58  L328.75,472.58z"/>
<path fill-rule="evenodd" clip-rule="evenodd" fill="#AC792F" d="M334.75,468.08C335.574,468.903,335.574,468.903,334.75,468.08  L334.75,468.08z"/>
<path fill-rule="evenodd" clip-rule="evenodd" fill="#AC792F" d="M328.75,463.58C329.774,465.35,330.49,466.588,328.75,463.58  L328.75,463.58z"/>
<path fill-rule="evenodd" clip-rule="evenodd" fill="#AC792F" d="M346.75,465.83C346.75,466.32,346.75,466.32,346.75,465.83  L346.75,465.83z"/>
<path fill-rule="evenodd" clip-rule="evenodd" fill="#AC792F" d="M360.25,468.83C360.25,470.88,360.25,470.88,360.25,468.83  L360.25,468.83z"/>
<path fill-rule="evenodd" clip-rule="evenodd" fill="#AC792F" d="M364.75,459.08C365.354,459.683,365.354,459.683,364.75,459.08  L364.75,459.08z"/>
<path fill-rule="evenodd" clip-rule="evenodd" fill="#AC792F" d="M367.75,459.83C367.771,459.877,368.917,462.43,367.75,459.83  L367.75,459.83z"/>
<path fill-rule="evenodd" clip-rule="evenodd" fill="#AC792F" d="M365.5,462.08C366.5,462.08,366.5,462.08,365.5,462.08  L365.5,462.08z"/>
<path fill-rule="evenodd" clip-rule="evenodd" fill="#AC792F" d="M364.75,465.83C364.75,466.367,364.75,466.367,364.75,465.83  L364.75,465.83z"/>
<path fill-rule="evenodd" clip-rule="evenodd" fill="#AC792F" d="M357.25,467.33C357.25,467.867,357.25,467.867,357.25,467.33  L357.25,467.33z"/>
<path fill-rule="evenodd" clip-rule="evenodd" fill="#AC792F" d="M356.5,460.58C359.289,460.58,359.289,460.58,356.5,460.58  L356.5,460.58z"/>
<path fill-rule="evenodd" clip-rule="evenodd" fill="#AC792F" d="M354.25,479.33C354.25,478.33,354.25,478.33,354.25,479.33  L354.25,479.33z"/>
<path fill-rule="evenodd" clip-rule="evenodd" fill="#AC792F" d="M383.5,462.83C385.144,463.716,384.142,463.175,383.5,462.83  L383.5,462.83z"/>
<path fill-rule="evenodd" clip-rule="evenodd" fill="#AC792F" d="M372.25,474.83C372.854,475.433,372.854,475.433,372.25,474.83  L372.25,474.83z"/>
<path fill-rule="evenodd" clip-rule="evenodd" fill="#AC792F" d="M364,454.58C365.644,455.466,364.642,454.925,364,454.58  L364,454.58z"/>
<path fill-rule="evenodd" clip-rule="evenodd" fill="#AC792F" d="M409.75,447.08C411.397,447.08,411.397,447.08,409.75,447.08  L409.75,447.08z"/>
<path fill-rule="evenodd" clip-rule="evenodd" fill="#AC792F" d="M367.75,451.58C368.5,453.008,368.724,453.436,367.75,451.58  L367.75,451.58z"/>
<path fill-rule="evenodd" clip-rule="evenodd" fill="#AC792F" d="M374.5,450.08C374.5,450.617,374.5,450.617,374.5,450.08  L374.5,450.08z"/>
<path fill-rule="evenodd" clip-rule="evenodd" fill="#AC792F" d="M375.25,447.08C375.25,447.617,375.25,447.617,375.25,447.08  L375.25,447.08z"/>
<path fill-rule="evenodd" clip-rule="evenodd" fill="#AC792F" d="M372.25,450.83C372.596,451.471,373.137,452.473,372.25,450.83  L372.25,450.83z"/>
<path fill-rule="evenodd" clip-rule="evenodd" fill="#AC792F" d="M373,459.83C373.75,461.258,373.974,461.686,373,459.83L373,459.83  z"/>
<path fill-rule="evenodd" clip-rule="evenodd" fill="#AC792F" d="M370.75,468.08L370.75,468.08z"/>
<path fill-rule="evenodd" clip-rule="evenodd" fill="#AC792F" d="M371.5,450.08C373.144,450.966,372.142,450.425,371.5,450.08  L371.5,450.08z"/>
<path fill-rule="evenodd" clip-rule="evenodd" fill="#AC792F" d="M373,451.58C374.443,451.928,374.858,452.029,373,451.58  L373,451.58z"/>
<path fill-rule="evenodd" clip-rule="evenodd" fill="#AC792F" d="M382.75,466.58C383.354,467.183,383.354,467.183,382.75,466.58  L382.75,466.58z"/>
<path fill-rule="evenodd" clip-rule="evenodd" fill="#AC792F" d="M382.75,470.33C383.87,470.33,383.87,470.33,382.75,470.33  L382.75,470.33z"/>
<path fill-rule="evenodd" clip-rule="evenodd" fill="#AC792F" d="M373,474.08C375.453,474.419,375.716,474.457,373,474.08  L373,474.08z"/>
<path fill-rule="evenodd" clip-rule="evenodd" fill="#AC792F" d="M389.5,481.58C391.147,481.58,391.147,481.58,389.5,481.58  L389.5,481.58z"/>
<path fill-rule="evenodd" clip-rule="evenodd" fill="#AC792F" d="M380.5,475.58C383.041,475.197,383.306,475.157,380.5,475.58  L380.5,475.58z"/>
<path fill-rule="evenodd" clip-rule="evenodd" fill="#AC792F" d="M383.5,480.83C383.5,481.83,383.5,481.83,383.5,480.83  L383.5,480.83z"/>
<path fill-rule="evenodd" clip-rule="evenodd" fill="#AC792F" d="M384.25,478.58C384.25,481.247,384.25,475.913,384.25,478.58  L384.25,478.58z"/>
<path fill-rule="evenodd" clip-rule="evenodd" fill="#AC792F" d="M386.5,479.33C387.475,480.564,384.274,476.51,386.5,479.33  L386.5,479.33z"/>
<path fill-rule="evenodd" clip-rule="evenodd" fill="#AC792F" d="M376.75,478.58C376.75,481.296,376.75,473.746,376.75,478.58  L376.75,478.58z"/>
<path fill-rule="evenodd" clip-rule="evenodd" fill="#AC792F" d="M391,480.08C390.396,479.476,390.396,479.476,391,480.08  L391,480.08z"/>
<path fill-rule="evenodd" clip-rule="evenodd" fill="#AC792F" d="M351.25,477.08L351.25,477.08z"/>
<path fill-rule="evenodd" clip-rule="evenodd" fill="#AC792F" d="M367.75,473.33C369.976,476.149,366.775,472.095,367.75,473.33  L367.75,473.33z"/>
<path fill-rule="evenodd" clip-rule="evenodd" fill="#AC792F" d="M383.5,465.83C384.5,465.83,384.5,465.83,383.5,465.83  L383.5,465.83z"/>
<path fill-rule="evenodd" clip-rule="evenodd" fill="#AC792F" d="M401.5,468.08C403.144,468.966,402.142,468.425,401.5,468.08  L401.5,468.08z"/>
<path fill-rule="evenodd" clip-rule="evenodd" fill="#AC792F" d="M379,449.33L379,449.33z"/>
<path fill-rule="evenodd" clip-rule="evenodd" fill="#AC792F" d="M352,444.08C352,445.2,352,445.2,352,444.08L352,444.08z"/>
<path fill-rule="evenodd" clip-rule="evenodd" fill="#AC792F" d="M340,460.58C340,461.7,340,461.7,340,460.58L340,460.58z"/>
<path fill-rule="evenodd" clip-rule="evenodd" fill="#AC792F" d="M349,444.83C348.651,446.273,348.551,446.687,349,444.83  L349,444.83z"/>
<path fill-rule="evenodd" clip-rule="evenodd" fill="#AC792F" d="M334,441.83C334,441.292,334,441.292,334,441.83L334,441.83z"/>
<path fill-rule="evenodd" clip-rule="evenodd" fill="#AC792F" d="M336.25,448.58C335.363,446.936,335.904,447.938,336.25,448.58  L336.25,448.58z"/>
<path fill-rule="evenodd" clip-rule="evenodd" fill="#AC792F" d="M378.25,476.33C382.34,476.33,382.34,476.33,378.25,476.33  L378.25,476.33z"/>
<path fill-rule="evenodd" clip-rule="evenodd" fill="#AC792F" d="M387.25,448.58C390.264,448.58,390.264,448.58,387.25,448.58  L387.25,448.58z"/>
<path fill-rule="evenodd" clip-rule="evenodd" fill="#AC792F" d="M342.25,454.58C346.025,454.369,345.748,454.384,342.25,454.58  L342.25,454.58z"/>
<path fill-rule="evenodd" clip-rule="evenodd" fill="#AC792F" d="M383.5,453.83C383.5,455.477,383.5,455.477,383.5,453.83  L383.5,453.83z"/>
<path fill-rule="evenodd" clip-rule="evenodd" fill="#AC792F" d="M382,438.08C381.796,437.766,383.235,439.982,382,438.08  L382,438.08z"/>
<path fill-rule="evenodd" clip-rule="evenodd" fill="#AC792F" d="M376,450.08C375.396,450.683,375.396,450.683,376,450.08  L376,450.08z"/>
<path fill-rule="evenodd" clip-rule="evenodd" fill="#AC792F" d="M377.5,453.83C377.5,455.477,377.5,455.477,377.5,453.83  L377.5,453.83z"/>
<path fill-rule="evenodd" clip-rule="evenodd" fill="#AC792F" d="M379.75,450.08C378.863,451.723,379.404,450.721,379.75,450.08  L379.75,450.08z"/>
<path fill-rule="evenodd" clip-rule="evenodd" fill="#AC792F" d="M368.5,447.83C367.5,447.83,367.5,447.83,368.5,447.83  L368.5,447.83z"/>
<path fill-rule="evenodd" clip-rule="evenodd" fill="#AC792F" d="M335.5,457.58C336.25,459.008,336.474,459.436,335.5,457.58  L335.5,457.58z"/>
<path fill-rule="evenodd" clip-rule="evenodd" fill="#AC792F" d="M336.25,454.58C335.25,454.58,335.25,454.58,336.25,454.58  L336.25,454.58z"/>
<path fill-rule="evenodd" clip-rule="evenodd" fill="#AC792F" d="M337.75,456.08C338.199,457.937,338.099,457.523,337.75,456.08  L337.75,456.08z"/>
<path fill-rule="evenodd" clip-rule="evenodd" fill="#AC792F" d="M340,455.33C339.396,455.933,339.396,455.933,340,455.33  L340,455.33z"/>
<path fill-rule="evenodd" clip-rule="evenodd" fill="#AC792F" d="M332.5,459.08C332.846,459.721,333.387,460.723,332.5,459.08  L332.5,459.08z"/>
<path fill-rule="evenodd" clip-rule="evenodd" fill="#AC792F" d="M357.25,445.58C357.699,447.437,357.599,447.023,357.25,445.58  L357.25,445.58z"/>
<path fill-rule="evenodd" clip-rule="evenodd" fill="#AC792F" d="M356.5,448.58C356.5,449.58,356.5,449.58,356.5,448.58  L356.5,448.58z"/>
<path fill-rule="evenodd" clip-rule="evenodd" fill="#AC792F" d="M358,450.83C359,450.83,359,450.83,358,450.83L358,450.83z"/>
<path fill-rule="evenodd" clip-rule="evenodd" fill="#AC792F" d="M357.25,456.83C357.699,458.687,357.599,458.273,357.25,456.83  L357.25,456.83z"/>
<path fill-rule="evenodd" clip-rule="evenodd" fill="#AC792F" d="M370.75,457.58C370.628,458.774,370.501,460.02,370.75,457.58  L370.75,457.58z"/>
<path fill-rule="evenodd" clip-rule="evenodd" fill="#AC792F" d="M376.75,472.58C377.4,474.937,377.838,476.523,376.75,472.58  L376.75,472.58z"/>
<path fill-rule="evenodd" clip-rule="evenodd" fill="#AC792F" d="M382,477.08C382,479.622,382,479.622,382,477.08L382,477.08z"/>
<path fill-rule="evenodd" clip-rule="evenodd" fill="#AC792F" d="M385,465.08C385.346,465.721,385.887,466.723,385,465.08  L385,465.08z"/>
<path fill-rule="evenodd" clip-rule="evenodd" fill="#AC792F" d="M384.25,466.58C384.25,468.279,384.25,468.279,384.25,466.58  L384.25,466.58z"/>
<path fill-rule="evenodd" clip-rule="evenodd" fill="#AC792F" d="M383.5,465.08C382.613,463.436,383.154,464.438,383.5,465.08  L383.5,465.08z"/>
<path fill-rule="evenodd" clip-rule="evenodd" fill="#AC792F" d="M387.25,467.33C386.363,468.973,386.904,467.971,387.25,467.33  L387.25,467.33z"/>
<path fill-rule="evenodd" clip-rule="evenodd" fill="#AC792F" d="M385,462.83C385,463.95,385,463.95,385,462.83L385,462.83z"/>
<path fill-rule="evenodd" clip-rule="evenodd" fill="#AC792F" d="M385,466.58C385.218,470.772,385.197,470.375,385,466.58  L385,466.58z"/>
<path fill-rule="evenodd" clip-rule="evenodd" fill="#AC792F" d="M382,465.83C382,467.477,382,467.477,382,465.83L382,465.83z"/>
<path fill-rule="evenodd" clip-rule="evenodd" fill="#AC792F" d="M385.75,462.08C383.083,462.08,388.417,462.08,385.75,462.08  L385.75,462.08z"/>
<path fill-rule="evenodd" clip-rule="evenodd" fill="#AC792F" d="M384.25,459.08C384.25,459.617,384.25,459.617,384.25,459.08  L384.25,459.08z"/>
<path fill-rule="evenodd" clip-rule="evenodd" fill="#AC792F" d="M347.5,454.58C347.5,455.7,347.5,455.7,347.5,454.58L347.5,454.58z  "/>
<path fill-rule="evenodd" clip-rule="evenodd" fill="#AC792F" d="M355,453.83C356,453.83,356,453.83,355,453.83L355,453.83z"/>
<path fill-rule="evenodd" clip-rule="evenodd" fill="#AC792F" d="M351.25,450.08C352.894,450.966,351.892,450.425,351.25,450.08  L351.25,450.08z"/>
<path fill-rule="evenodd" clip-rule="evenodd" fill="#AC792F" d="M349,450.83C349,451.367,349,451.367,349,450.83L349,450.83z"/>
<path fill-rule="evenodd" clip-rule="evenodd" fill="#AC792F" d="M343,447.83C343,448.367,343,448.367,343,447.83L343,447.83z"/>
<path fill-rule="evenodd" clip-rule="evenodd" fill="#AC792F" d="M338.5,450.08C339.104,450.683,339.104,450.683,338.5,450.08  L338.5,450.08z"/>
<path fill-rule="evenodd" clip-rule="evenodd" fill="#AC792F" d="M332.5,451.58C332.5,452.7,332.5,452.7,332.5,451.58L332.5,451.58z  "/>
<path fill-rule="evenodd" clip-rule="evenodd" fill="#AC792F" d="M343,480.83C341.557,480.481,341.142,480.38,343,480.83L343,480.83  z"/>
<path fill-rule="evenodd" clip-rule="evenodd" fill="#AC792F" d="M343.75,479.33C341.363,479.33,341.363,479.33,343.75,479.33  L343.75,479.33z"/>
<path fill-rule="evenodd" clip-rule="evenodd" fill="#AC792F" d="M341.5,478.58L341.5,478.58z"/>
<path fill-rule="evenodd" clip-rule="evenodd" fill="#AC792F" d="M348.25,478.58C346.392,479.029,346.807,478.928,348.25,478.58  L348.25,478.58z"/>
<path fill-rule="evenodd" clip-rule="evenodd" fill="#AC792F" d="M345.25,477.83C343.807,477.481,343.392,477.38,345.25,477.83  L345.25,477.83z"/>
<path fill-rule="evenodd" clip-rule="evenodd" fill="#AC792F" d="M342.25,477.08C340.606,476.193,341.608,476.734,342.25,477.08  L342.25,477.08z"/>
<path fill-rule="evenodd" clip-rule="evenodd" fill="#AC792F" d="M340,477.83C338.353,477.83,338.353,477.83,340,477.83L340,477.83z  "/>
<path fill-rule="evenodd" clip-rule="evenodd" fill="#AC792F" d="M340,479.33C338.353,479.33,338.353,479.33,340,479.33L340,479.33z  "/>
<path fill-rule="evenodd" clip-rule="evenodd" fill="#AC792F" d="M341.5,480.83C340.5,480.83,340.5,480.83,341.5,480.83  L341.5,480.83z"/>
<path fill-rule="evenodd" clip-rule="evenodd" fill="#AC792F" d="M346,480.08C346.604,480.683,346.604,480.683,346,480.08  L346,480.08z"/>
<path fill-rule="evenodd" clip-rule="evenodd" fill="#AC792F" d="M343,478.58C343,479.58,343,479.58,343,478.58L343,478.58z"/>
<path fill-rule="evenodd" clip-rule="evenodd" fill="#AC792F" d="M343.75,477.83C342.103,477.83,342.103,477.83,343.75,477.83  L343.75,477.83z"/>
<path fill-rule="evenodd" clip-rule="evenodd" fill="#AC792F" d="M344.5,479.33C343.057,478.981,342.642,478.88,344.5,479.33  L344.5,479.33z"/>
<path fill-rule="evenodd" clip-rule="evenodd" fill="#AC792F" d="M343,480.08C341.353,480.08,341.353,480.08,343,480.08L343,480.08z  "/>
<path fill-rule="evenodd" clip-rule="evenodd" fill="#AC792F" d="M340,479.33C338.353,479.33,338.353,479.33,340,479.33L340,479.33z  "/>
<path fill-rule="evenodd" clip-rule="evenodd" fill="#AC792F" d="M340,477.08C337.284,477.457,337.547,477.419,340,477.08  L340,477.08z"/>
<path fill-rule="evenodd" clip-rule="evenodd" fill="#AC792F" d="M344.5,477.08C341.206,477.08,341.206,477.08,344.5,477.08  L344.5,477.08z"/>
<path fill-rule="evenodd" clip-rule="evenodd" fill="#AC792F" d="M348.25,476.33C347.646,476.933,347.646,476.933,348.25,476.33  L348.25,476.33z"/>
<path fill-rule="evenodd" clip-rule="evenodd" fill="#AC792F" d="M345.25,476.33C343.807,475.981,343.392,475.88,345.25,476.33  L345.25,476.33z"/>
<path fill-rule="evenodd" clip-rule="evenodd" fill="#AC792F" d="M343.75,475.58C341.892,476.029,342.307,475.928,343.75,475.58  L343.75,475.58z"/>
<path fill-rule="evenodd" clip-rule="evenodd" fill="#AC792F" d="M347.5,477.08C345.113,477.08,345.113,477.08,347.5,477.08  L347.5,477.08z"/>
<path fill-rule="evenodd" clip-rule="evenodd" fill="#AC792F" d="M350.5,478.58C349.896,479.183,349.896,479.183,350.5,478.58  L350.5,478.58z"/>
<path fill-rule="evenodd" clip-rule="evenodd" fill="#AC792F" d="M352.75,479.33C348.97,479.955,351.403,479.552,352.75,479.33  L352.75,479.33z"/>
<path fill-rule="evenodd" clip-rule="evenodd" fill="#AC792F" d="M346.75,480.83C345.106,479.943,346.108,480.484,346.75,480.83  L346.75,480.83z"/>
<path fill-rule="evenodd" clip-rule="evenodd" fill="#AC792F" d="M346,480.83C344.319,480.508,343.365,480.326,346,480.83  L346,480.83z"/>
<path fill-rule="evenodd" clip-rule="evenodd" fill="#AC792F" d="M350.5,480.83C347.219,481.243,348.893,481.032,350.5,480.83  L350.5,480.83z"/>
<path fill-rule="evenodd" clip-rule="evenodd" fill="#AC792F" d="M356.5,480.08C353.784,480.457,354.047,480.419,356.5,480.08  L356.5,480.08z"/>
<path fill-rule="evenodd" clip-rule="evenodd" fill="#AC792F" d="M358,481.58C356.557,481.231,356.142,481.13,358,481.58L358,481.58  z"/>
<path fill-rule="evenodd" clip-rule="evenodd" fill="#AC792F" d="M355,480.83C353.88,480.83,353.88,480.83,355,480.83L355,480.83z"/>
<path fill-rule="evenodd" clip-rule="evenodd" fill="#AC792F" d="M354.25,478.58C352.606,477.693,353.608,478.234,354.25,478.58  L354.25,478.58z"/>
<path fill-rule="evenodd" clip-rule="evenodd" fill="#AC792F" d="M367.75,470.33C367.895,470.61,369.419,473.556,367.75,470.33  L367.75,470.33z"/>
<path fill-rule="evenodd" clip-rule="evenodd" fill="#AC792F" d="M366.25,471.08C366.25,472.388,366.25,472.388,366.25,471.08  L366.25,471.08z"/>
<path fill-rule="evenodd" clip-rule="evenodd" fill="#AC792F" d="M367,468.08C364.566,471.551,367.835,466.888,367,468.08  L367,468.08z"/>
<path fill-rule="evenodd" clip-rule="evenodd" fill="#AC792F" d="M371.5,473.33C372.333,472.497,372.333,472.497,371.5,473.33  L371.5,473.33z"/>
<path fill-rule="evenodd" clip-rule="evenodd" fill="#AC792F" d="M376,471.08C376.148,471.312,376.942,472.563,376,471.08  L376,471.08z"/>
<path fill-rule="evenodd" clip-rule="evenodd" fill="#AC792F" d="M379,472.58C378.612,475.087,378.546,475.509,379,472.58  L379,472.58z"/>
<path fill-rule="evenodd" clip-rule="evenodd" fill="#AC792F" d="M376,471.08C374.88,473.659,375.654,471.875,376,471.08L376,471.08  z"/>
<path fill-rule="evenodd" clip-rule="evenodd" fill="#AC792F" d="M378.25,468.83C377.363,470.473,377.904,469.471,378.25,468.83  L378.25,468.83z"/>
<path fill-rule="evenodd" clip-rule="evenodd" fill="#AC792F" d="M381.25,470.33C378.431,472.555,382.485,469.355,381.25,470.33  L381.25,470.33z"/>
<path fill-rule="evenodd" clip-rule="evenodd" fill="#AC792F" d="M379,471.83C379,472.367,379,472.367,379,471.83L379,471.83z"/>
<path fill-rule="evenodd" clip-rule="evenodd" fill="#AC792F" d="M377.5,475.58C377.846,476.221,378.387,477.223,377.5,475.58  L377.5,475.58z"/>
<path fill-rule="evenodd" clip-rule="evenodd" fill="#AC792F" d="M373.75,477.08C375.394,477.966,374.392,477.425,373.75,477.08  L373.75,477.08z"/>
<path fill-rule="evenodd" clip-rule="evenodd" fill="#AC792F" d="M382.75,469.58C385.31,469.58,385.31,469.58,382.75,469.58  L382.75,469.58z"/>
<path fill-rule="evenodd" clip-rule="evenodd" fill="#AC792F" d="M367,477.08C367.493,478.38,368.238,480.342,367,477.08L367,477.08  z"/>
<path fill-rule="evenodd" clip-rule="evenodd" fill="#AC792F" d="M358,472.58C357.396,473.183,357.396,473.183,358,472.58  L358,472.58z"/>
<path fill-rule="evenodd" clip-rule="evenodd" fill="#AC792F" d="M381.25,462.08C380.646,462.683,380.646,462.683,381.25,462.08  L381.25,462.08z"/>
<path fill-rule="evenodd" clip-rule="evenodd" fill="#AC792F" d="M387.25,459.83C387.699,461.687,387.599,461.273,387.25,459.83  L387.25,459.83z"/>
<path fill-rule="evenodd" clip-rule="evenodd" fill="#AC792F" d="M388,456.83C388.346,457.471,388.887,458.473,388,456.83  L388,456.83z"/>
<path fill-rule="evenodd" clip-rule="evenodd" fill="#AC792F" d="M385.75,461.33C385.75,462.33,385.75,462.33,385.75,461.33  L385.75,461.33z"/>
<path fill-rule="evenodd" clip-rule="evenodd" fill="#AC792F" d="M378.25,469.58C378.25,472.198,378.25,472.198,378.25,469.58  L378.25,469.58z"/>
<path fill-rule="evenodd" clip-rule="evenodd" fill="#AC792F" d="M384.25,477.83C384.25,478.83,384.25,478.83,384.25,477.83  L384.25,477.83z"/>
<path fill-rule="evenodd" clip-rule="evenodd" fill="#AC792F" d="M385,460.58C385.604,459.976,385.604,459.976,385,460.58  L385,460.58z"/>
<path fill-rule="evenodd" clip-rule="evenodd" fill="#AC792F" d="M386.5,461.33C387.104,461.933,387.104,461.933,386.5,461.33  L386.5,461.33z"/>
<path fill-rule="evenodd" clip-rule="evenodd" fill="#AC792F" d="M358,453.08C358.642,452.734,359.644,452.193,358,453.08  L358,453.08z"/>
<path fill-rule="evenodd" clip-rule="evenodd" fill="#AC792F" d="M354.25,451.58C355.25,451.58,355.25,451.58,354.25,451.58  L354.25,451.58z"/>
<path fill-rule="evenodd" clip-rule="evenodd" fill="#AC792F" d="M359.5,446.33C361.147,446.33,361.147,446.33,359.5,446.33  L359.5,446.33z"/>
<path fill-rule="evenodd" clip-rule="evenodd" fill="#AC792F" d="M381.25,455.33C381.036,457.606,381.306,454.737,381.25,455.33  L381.25,455.33z"/>
<path fill-rule="evenodd" clip-rule="evenodd" fill="#AC792F" d="M346.75,441.83C344.083,441.83,349.417,441.83,346.75,441.83  L346.75,441.83z"/>
<path fill-rule="evenodd" clip-rule="evenodd" fill="#AC792F" d="M351.25,451.58C350.25,451.58,350.25,451.58,351.25,451.58  L351.25,451.58z"/>
<path fill-rule="evenodd" clip-rule="evenodd" fill="#AC792F" d="M352,456.08C352,454.959,352,454.959,352,456.08L352,456.08z"/>
<path fill-rule="evenodd" clip-rule="evenodd" fill="#AC792F" d="M349,458.33C348.396,457.726,348.396,457.726,349,458.33  L349,458.33z"/>
<path fill-rule="evenodd" clip-rule="evenodd" fill="#AC792F" d="M353.5,451.58C353.5,450.58,353.5,450.58,353.5,451.58  L353.5,451.58z"/>
<path fill-rule="evenodd" clip-rule="evenodd" fill="#AC792F" d="M334,456.83C330.138,457.311,331.752,457.11,334,456.83L334,456.83  z"/>
<path fill-rule="evenodd" clip-rule="evenodd" fill="#AC792F" d="M365.5,467.33C361.575,467.28,363.432,467.303,365.5,467.33  L365.5,467.33z"/>
<path fill-rule="evenodd" clip-rule="evenodd" fill="#AC792F" d="M372.25,471.83C369.328,472.489,368.789,472.611,372.25,471.83  L372.25,471.83z"/>
<path fill-rule="evenodd" clip-rule="evenodd" fill="#AC792F" d="M337,448.58C335.678,446.833,335.554,446.669,337,448.58  L337,448.58z"/>
<path fill-rule="evenodd" clip-rule="evenodd" fill="#AC792F" d="M368.5,462.08C367.618,459.25,367.821,459.901,368.5,462.08  L368.5,462.08z"/>
<path fill-rule="evenodd" clip-rule="evenodd" fill="#AC792F" d="M376.75,472.58C376.157,471.125,375.762,470.157,376.75,472.58  L376.75,472.58z"/>
<path fill-rule="evenodd" clip-rule="evenodd" fill="#AC792F" d="M376.75,463.58C375.75,463.58,375.75,463.58,376.75,463.58  L376.75,463.58z"/>
<path fill-rule="evenodd" clip-rule="evenodd" fill="#AC792F" d="M374.5,460.58C373.75,459.151,373.526,458.723,374.5,460.58  L374.5,460.58z"/>
<path fill-rule="evenodd" clip-rule="evenodd" fill="#AC792F" d="M373,464.33C372.654,463.688,372.113,462.686,373,464.33  L373,464.33z"/>
<path fill-rule="evenodd" clip-rule="evenodd" fill="#AC792F" d="M384.25,464.33C385.25,464.33,385.25,464.33,384.25,464.33  L384.25,464.33z"/>
<path fill-rule="evenodd" clip-rule="evenodd" fill="#AC792F" d="M388.75,468.83C389.045,467.842,389.507,466.299,388.75,468.83  L388.75,468.83z"/>
<path fill-rule="evenodd" clip-rule="evenodd" fill="#AC792F" d="M389.5,472.58C388.896,471.976,388.896,471.976,389.5,472.58  L389.5,472.58z"/>
<path fill-rule="evenodd" clip-rule="evenodd" fill="#AC792F" d="M387.25,471.08C386.904,470.438,386.363,469.436,387.25,471.08  L387.25,471.08z"/>
<path fill-rule="evenodd" clip-rule="evenodd" fill="#AC792F" d="M385.75,472.58C384.106,471.693,385.108,472.234,385.75,472.58  L385.75,472.58z"/>
<path fill-rule="evenodd" clip-rule="evenodd" fill="#AC792F" d="M391.75,467.33C392.637,465.686,392.096,466.688,391.75,467.33  L391.75,467.33z"/>
<path fill-rule="evenodd" clip-rule="evenodd" fill="#AC792F" d="M395.5,464.33C394.676,463.506,394.676,463.506,395.5,464.33  L395.5,464.33z"/>
<path fill-rule="evenodd" clip-rule="evenodd" fill="#AC792F" d="M395.5,462.08C395.5,460.432,395.5,460.432,395.5,462.08  L395.5,462.08z"/>
<path fill-rule="evenodd" clip-rule="evenodd" fill="#AC792F" d="M394,459.83C393,459.83,393,459.83,394,459.83L394,459.83z"/>
<path fill-rule="evenodd" clip-rule="evenodd" fill="#AC792F" d="M390.25,451.58C389.701,449.792,389.785,450.063,390.25,451.58  L390.25,451.58z"/>
<path fill-rule="evenodd" clip-rule="evenodd" fill="#AC792F" d="M393.25,453.08C393.25,452.08,393.25,452.08,393.25,453.08  L393.25,453.08z"/>
<path fill-rule="evenodd" clip-rule="evenodd" fill="#AC792F" d="M399.25,459.83C399.163,457.622,399.126,456.683,399.25,459.83  L399.25,459.83z"/>
<path fill-rule="evenodd" clip-rule="evenodd" fill="#AC792F" d="M332.5,458.33C331.907,456.564,331.497,455.343,332.5,458.33  L332.5,458.33z"/>
<path fill-rule="evenodd" clip-rule="evenodd" fill="#AC792F" d="M337,453.83C336.342,451.581,336.147,450.915,337,453.83  L337,453.83z"/>
<path fill-rule="evenodd" clip-rule="evenodd" fill="#AC792F" d="M364.75,450.08C363.75,450.08,363.75,450.08,364.75,450.08  L364.75,450.08z"/>
<path fill-rule="evenodd" clip-rule="evenodd" fill="#AC792F" d="M365.5,448.58C365.5,447.71,365.5,447.71,365.5,448.58  L365.5,448.58z"/>
<path fill-rule="evenodd" clip-rule="evenodd" fill="#AC792F" d="M366.25,450.83C367.25,450.83,367.25,450.83,366.25,450.83  L366.25,450.83z"/>
<path fill-rule="evenodd" clip-rule="evenodd" fill="#AC792F" d="M362.5,448.58C362.5,447.58,362.5,447.58,362.5,448.58  L362.5,448.58z"/>
<path fill-rule="evenodd" clip-rule="evenodd" fill="#AC792F" d="M365.5,452.33C365.5,451.792,365.5,451.792,365.5,452.33  L365.5,452.33z"/>
<path fill-rule="evenodd" clip-rule="evenodd" fill="#AC792F" d="M358.75,441.83C358.148,438.698,358.124,438.575,358.75,441.83  L358.75,441.83z"/>
<path fill-rule="evenodd" clip-rule="evenodd" fill="#AC792F" d="M367.75,449.33C367.404,448.688,366.863,447.686,367.75,449.33  L367.75,449.33z"/>
<path fill-rule="evenodd" clip-rule="evenodd" fill="#AC792F" d="M364.75,453.83C364.75,453.292,364.75,453.292,364.75,453.83  L364.75,453.83z"/>
<path fill-rule="evenodd" clip-rule="evenodd" fill="#AC792F" d="M366.25,456.83C366.464,454.553,366.194,457.422,366.25,456.83  L366.25,456.83z"/>
<path fill-rule="evenodd" clip-rule="evenodd" fill="#AC792F" d="M367.75,474.83C367.964,472.553,367.694,475.422,367.75,474.83  L367.75,474.83z"/>
<path fill-rule="evenodd" clip-rule="evenodd" fill="#AC792F" d="M370.75,477.08C370.146,476.476,370.146,476.476,370.75,477.08  L370.75,477.08z"/>
<path fill-rule="evenodd" clip-rule="evenodd" fill="#AC792F" d="M375.25,480.08C374.26,478.886,373.479,477.945,375.25,480.08  L375.25,480.08z"/>
<path fill-rule="evenodd" clip-rule="evenodd" fill="#AC792F" d="M377.5,478.58C376.896,477.976,376.896,477.976,377.5,478.58  L377.5,478.58z"/>
<path fill-rule="evenodd" clip-rule="evenodd" fill="#AC792F" d="M384.25,480.08C382.606,479.193,383.608,479.734,384.25,480.08  L384.25,480.08z"/>
<path fill-rule="evenodd" clip-rule="evenodd" fill="#AC792F" d="M387.25,477.08C389.917,477.08,384.583,477.08,387.25,477.08  L387.25,477.08z"/>
<path fill-rule="evenodd" clip-rule="evenodd" fill="#AC792F" d="M393.25,474.08C395.917,474.08,390.583,474.08,393.25,474.08  L393.25,474.08z"/>
<path fill-rule="evenodd" clip-rule="evenodd" fill="#AC792F" d="M367.75,447.83C367.75,446.83,367.75,446.83,367.75,447.83  L367.75,447.83z"/>
<path fill-rule="evenodd" clip-rule="evenodd" fill="#AC792F" d="M376,445.58C375.77,443.122,375.777,443.193,376,445.58L376,445.58  z"/>
<path fill-rule="evenodd" clip-rule="evenodd" fill="#AC792F" d="M370.75,446.33C369.75,446.33,369.75,446.33,370.75,446.33  L370.75,446.33z"/>
<path fill-rule="evenodd" clip-rule="evenodd" fill="#AC792F" d="M371.5,453.08C371.1,451.415,371.104,451.428,371.5,453.08  L371.5,453.08z"/>
<path fill-rule="evenodd" clip-rule="evenodd" fill="#AC792F" d="M372.25,450.08C372.599,448.636,372.699,448.222,372.25,450.08  L372.25,450.08z"/>
<path fill-rule="evenodd" clip-rule="evenodd" fill="#AC792F" d="M373,446.33C373.887,444.686,373.346,445.688,373,446.33  L373,446.33z"/>
<path fill-rule="evenodd" clip-rule="evenodd" fill="#AC792F" d="M369.25,444.83C368.801,442.972,368.901,443.386,369.25,444.83  L369.25,444.83z"/>
<path fill-rule="evenodd" clip-rule="evenodd" fill="#AC792F" d="M367.75,447.08C366.926,446.256,366.926,446.256,367.75,447.08  L367.75,447.08z"/>
<path fill-rule="evenodd" clip-rule="evenodd" fill="#AC792F" d="M369.25,451.58C368.25,451.58,368.25,451.58,369.25,451.58  L369.25,451.58z"/>
<path fill-rule="evenodd" clip-rule="evenodd" fill="#AC792F" d="M379,447.08C379.214,444.803,378.944,447.672,379,447.08  L379,447.08z"/>
<path fill-rule="evenodd" clip-rule="evenodd" fill="#AC792F" d="M372.25,448.58C371.829,445.918,371.829,445.918,372.25,448.58  L372.25,448.58z"/>
<path fill-rule="evenodd" clip-rule="evenodd" fill="#AC792F" d="M370.75,450.08C370.092,447.831,369.897,447.165,370.75,450.08  L370.75,450.08z"/>
<path fill-rule="evenodd" clip-rule="evenodd" fill="#AC792F" d="M369.25,444.83C369.25,443.182,369.25,443.182,369.25,444.83  L369.25,444.83z"/>
<path fill-rule="evenodd" clip-rule="evenodd" fill="#AC792F" d="M373,448.58C373,446.039,373,446.039,373,448.58L373,448.58z"/>
<path fill-rule="evenodd" clip-rule="evenodd" fill="#AC792F" d="M374.5,452.33C375.104,451.726,375.104,451.726,374.5,452.33  L374.5,452.33z"/>
<path fill-rule="evenodd" clip-rule="evenodd" fill="#AC792F" d="M374.5,449.33C374.5,447.682,374.5,447.682,374.5,449.33  L374.5,449.33z"/>
<path fill-rule="evenodd" clip-rule="evenodd" fill="#AC792F" d="M375.25,447.08C374.426,446.256,374.426,446.256,375.25,447.08  L375.25,447.08z"/>
<path fill-rule="evenodd" clip-rule="evenodd" fill="#AC792F" d="M367.75,440.33C367.533,437.718,367.511,437.457,367.75,440.33  L367.75,440.33z"/>
<path fill-rule="evenodd" clip-rule="evenodd" fill="#AC792F" d="M372.25,455.33C371.426,454.506,371.426,454.506,372.25,455.33  L372.25,455.33z"/>
<path fill-rule="evenodd" clip-rule="evenodd" fill="#AC792F" d="M365.5,441.83C365.619,438.469,365.554,440.297,365.5,441.83  L365.5,441.83z"/>
<path fill-rule="evenodd" clip-rule="evenodd" fill="#AC792F" d="M368.5,451.58C371.167,451.58,365.833,451.58,368.5,451.58  L368.5,451.58z"/>
<path fill-rule="evenodd" clip-rule="evenodd" fill="#AC792F" d="M353.5,439.58C353.5,436.791,353.5,436.791,353.5,439.58  L353.5,439.58z"/>
<path fill-rule="evenodd" clip-rule="evenodd" fill="#AC792F" d="M369.25,456.08C368.368,453.25,368.571,453.901,369.25,456.08  L369.25,456.08z"/>
<path fill-rule="evenodd" clip-rule="evenodd" fill="#AC792F" d="M370.75,461.33C370.75,458.943,370.75,458.943,370.75,461.33  L370.75,461.33z"/>
<path fill-rule="evenodd" clip-rule="evenodd" fill="#AC792F" d="M398.5,447.83C396.856,446.943,397.858,447.484,398.5,447.83  L398.5,447.83z"/>
<path fill-rule="evenodd" clip-rule="evenodd" fill="#AC792F" d="M397.75,447.83C396.683,445.55,397.288,446.843,397.75,447.83  L397.75,447.83z"/>
<path fill-rule="evenodd" clip-rule="evenodd" fill="#AC792F" d="M370,460.58C369.3,459.342,369.328,459.391,370,460.58L370,460.58z  "/>
<path fill-rule="evenodd" clip-rule="evenodd" fill="#AC792F" d="M373,441.08C375.667,441.08,370.333,441.08,373,441.08L373,441.08z  "/>
<path fill-rule="evenodd" clip-rule="evenodd" fill="#AC792F" d="M346,456.08C345.55,455.181,344.76,453.607,346,456.08L346,456.08z  "/>
<path fill-rule="evenodd" clip-rule="evenodd" fill="#AC792F" d="M343,456.08C342.765,454.52,342.781,454.632,343,456.08L343,456.08  z"/>
<path fill-rule="evenodd" clip-rule="evenodd" fill="#AC792F" d="M347.5,455.33C347.5,454.792,347.5,454.792,347.5,455.33  L347.5,455.33z"/>
<path fill-rule="evenodd" clip-rule="evenodd" fill="#AC792F" d="M344.5,456.83C344.804,457.259,342.405,453.875,344.5,456.83  L344.5,456.83z"/>
<path fill-rule="evenodd" clip-rule="evenodd" fill="#AC792F" d="M383.5,444.83C383.676,441.47,383.532,444.212,383.5,444.83  L383.5,444.83z"/>
<path fill-rule="evenodd" clip-rule="evenodd" fill="#AC792F" d="M346.75,462.08C346.534,459.243,346.536,459.265,346.75,462.08  L346.75,462.08z"/>
<path fill-rule="evenodd" clip-rule="evenodd" fill="#AC792F" d="M344.5,462.08C343.773,460.75,343.256,459.802,344.5,462.08  L344.5,462.08z"/>
<path fill-rule="evenodd" clip-rule="evenodd" fill="#AC792F" d="M342.25,460.58C344.917,460.58,339.583,460.58,342.25,460.58  L342.25,460.58z"/>
<path fill-rule="evenodd" clip-rule="evenodd" fill="#AC792F" d="M339.25,460.58C339.25,459.459,339.25,459.459,339.25,460.58  L339.25,460.58z"/>
<path fill-rule="evenodd" clip-rule="evenodd" fill="#AC792F" d="M340.75,458.33C341.637,456.686,341.096,457.688,340.75,458.33  L340.75,458.33z"/>
<path fill-rule="evenodd" clip-rule="evenodd" fill="#AC792F" d="M341.5,453.83C340.5,453.83,340.5,453.83,341.5,453.83  L341.5,453.83z"/>
<path fill-rule="evenodd" clip-rule="evenodd" fill="#AC792F" d="M344.5,452.33C345.387,450.686,344.846,451.688,344.5,452.33  L344.5,452.33z"/>
<path fill-rule="evenodd" clip-rule="evenodd" fill="#AC792F" d="M337.75,461.33C334.11,461.275,336.127,461.305,337.75,461.33  L337.75,461.33z"/>
<path fill-rule="evenodd" clip-rule="evenodd" fill="#AC792F" d="M351.25,450.83C351.4,448.165,351.319,449.603,351.25,450.83  L351.25,450.83z"/>
<path fill-rule="evenodd" clip-rule="evenodd" fill="#AC792F" d="M358,452.33C357.654,451.688,357.113,450.686,358,452.33  L358,452.33z"/>
<path fill-rule="evenodd" clip-rule="evenodd" fill="#AC792F" d="M369.25,453.08C369.25,452.08,369.25,452.08,369.25,453.08  L369.25,453.08z"/>
<path fill-rule="evenodd" clip-rule="evenodd" fill="#AC792F" d="M363.25,456.08C363.464,453.803,363.194,456.672,363.25,456.08  L363.25,456.08z"/>
<path fill-rule="evenodd" clip-rule="evenodd" fill="#AC792F" d="M358,463.58C358,463.042,358,463.042,358,463.58L358,463.58z"/>
<path fill-rule="evenodd" clip-rule="evenodd" fill="#AC792F" d="M364.75,454.58C364.75,453.58,364.75,453.58,364.75,454.58  L364.75,454.58z"/>
<path fill-rule="evenodd" clip-rule="evenodd" fill="#AC792F" d="M334,462.08C333.694,460.126,333.476,458.733,334,462.08  L334,462.08z"/>
<path fill-rule="evenodd" clip-rule="evenodd" fill="#AC792F" d="M334.75,453.08C334.75,452.08,334.75,452.08,334.75,453.08  L334.75,453.08z"/>
<path fill-rule="evenodd" clip-rule="evenodd" fill="#AC792F" d="M366.25,455.33C364.606,454.443,365.608,454.984,366.25,455.33  L366.25,455.33z"/>
<path fill-rule="evenodd" clip-rule="evenodd" fill="#AC792F" d="M364,453.83C363.113,455.473,363.654,454.471,364,453.83  L364,453.83z"/>
<path fill-rule="evenodd" clip-rule="evenodd" fill="#AC792F" d="M360.25,447.83C359.25,448.83,359.25,448.83,360.25,447.83  L360.25,447.83z"/>
<path fill-rule="evenodd" clip-rule="evenodd" fill="#AC792F" d="M337,447.08C334.638,446.59,338.325,447.354,337,447.08L337,447.08  z"/>
<path fill-rule="evenodd" clip-rule="evenodd" fill="#AC792F" d="M367.75,477.83C367.75,478.83,367.75,478.83,367.75,477.83  L367.75,477.83z"/>
<path fill-rule="evenodd" clip-rule="evenodd" fill="#AC792F" d="M372.25,478.58C371.608,478.925,370.606,479.466,372.25,478.58  L372.25,478.58z"/>
<path fill-rule="evenodd" clip-rule="evenodd" fill="#AC792F" d="M370,459.83C370,458.709,370,458.709,370,459.83L370,459.83z"/>
<path fill-rule="evenodd" clip-rule="evenodd" fill="#AC792F" d="M400.75,463.58C403.417,463.58,398.083,463.58,400.75,463.58  L400.75,463.58z"/>
<path fill-rule="evenodd" clip-rule="evenodd" fill="#AC792F" d="M400.75,457.58L400.75,457.58z"/>
<path fill-rule="evenodd" clip-rule="evenodd" fill="#AC792F" d="M399.25,453.83C399.306,453.237,399.036,456.106,399.25,453.83  L399.25,453.83z"/>
<path fill-rule="evenodd" clip-rule="evenodd" fill="#AC792F" d="M401.5,450.83C402.104,451.433,402.104,451.433,401.5,450.83  L401.5,450.83z"/>
<path fill-rule="evenodd" clip-rule="evenodd" fill="#AC792F" d="M398.5,458.33C398.5,459.33,398.5,459.33,398.5,458.33  L398.5,458.33z"/>
<path fill-rule="evenodd" clip-rule="evenodd" fill="#AC792F" d="M330.25,438.83C331.25,438.83,331.25,438.83,330.25,438.83  L330.25,438.83z"/>
<path fill-rule="evenodd" clip-rule="evenodd" fill="#AC792F" d="M331,444.08C328.353,445.83,328.773,445.551,331,444.08L331,444.08  z"/>
<path fill-rule="evenodd" clip-rule="evenodd" fill="#AC792F" d="M335.5,449.33C335.5,450.33,335.5,450.33,335.5,449.33  L335.5,449.33z"/>
<path fill-rule="evenodd" clip-rule="evenodd" fill="#AC792F" d="M400,439.58C402.517,441.264,402.812,441.461,400,439.58  L400,439.58z"/>
<path fill-rule="evenodd" clip-rule="evenodd" fill="#AC792F" d="M394,440.33C393.176,441.153,393.176,441.153,394,440.33  L394,440.33z"/>
<path fill-rule="evenodd" clip-rule="evenodd" fill="#AC792F" d="M413.502,443.33C411.915,444.914,411.919,444.91,413.502,443.33  L413.502,443.33z"/>
<path fill-rule="evenodd" clip-rule="evenodd" fill="#AC792F" d="M405.25,447.08C404.426,447.903,404.426,447.903,405.25,447.08  L405.25,447.08z"/>
<path fill-rule="evenodd" clip-rule="evenodd" fill="#AC792F" d="M404.5,441.08C403.676,441.903,403.676,441.903,404.5,441.08  L404.5,441.08z"/>
<path fill-rule="evenodd" clip-rule="evenodd" fill="#AC792F" d="M403,441.08C402,441.08,402,441.08,403,441.08L403,441.08z"/>
<path fill-rule="evenodd" clip-rule="evenodd" fill="#AC792F" d="M404.5,443.33C404.5,444.33,404.5,444.33,404.5,443.33  L404.5,443.33z"/>
<path fill-rule="evenodd" clip-rule="evenodd" fill="#AC792F" d="M400,443.33C399.176,444.153,399.176,444.153,400,443.33  L400,443.33z"/>
<path fill-rule="evenodd" clip-rule="evenodd" fill="#AC792F" d="M401.5,444.83L401.5,444.83z"/>
<path fill-rule="evenodd" clip-rule="evenodd" fill="#AC792F" d="M376,436.58C376.039,438.757,376.055,439.648,376,436.58  L376,436.58z"/>
<path fill-rule="evenodd" clip-rule="evenodd" fill="#AC792F" d="M377.5,438.83C377.5,439.83,377.5,439.83,377.5,438.83  L377.5,438.83z"/>
<path fill-rule="evenodd" clip-rule="evenodd" fill="#AC792F" d="M376.75,437.33C376.621,438.792,376.491,440.258,376.75,437.33  L376.75,437.33z"/>
<path fill-rule="evenodd" clip-rule="evenodd" fill="#AC792F" d="M408.25,449.33C407.13,450.45,407.13,450.45,408.25,449.33  L408.25,449.33z"/>
<path fill-rule="evenodd" clip-rule="evenodd" fill="#AC792F" d="M391.75,440.33C389.474,440.116,392.343,440.385,391.75,440.33  L391.75,440.33z"/>
<path fill-rule="evenodd" clip-rule="evenodd" fill="#AC792F" d="M402.25,447.83C404.94,449.524,404.705,449.376,402.25,447.83  L402.25,447.83z"/>
<path fill-rule="evenodd" clip-rule="evenodd" fill="#AC792F" d="M414.252,442.58C413.429,443.403,413.429,443.403,414.252,442.58  L414.252,442.58z"/>
<path fill-rule="evenodd" clip-rule="evenodd" fill="#AC792F" d="M412,443.33C411.026,445.186,411.25,444.758,412,443.33L412,443.33  z"/>
<path fill-rule="evenodd" clip-rule="evenodd" fill="#AC792F" d="M412,446.33C411.396,446.933,411.396,446.933,412,446.33  L412,446.33z"/>
<path fill-rule="evenodd" clip-rule="evenodd" fill="#AC792F" d="M406.75,450.08C405.75,451.08,405.75,451.08,406.75,450.08  L406.75,450.08z"/>
<path fill-rule="evenodd" clip-rule="evenodd" fill="#AC792F" d="M407.5,449.33C407.24,449.804,406.184,451.728,407.5,449.33  L407.5,449.33z"/>
<path fill-rule="evenodd" clip-rule="evenodd" fill="#AC792F" d="M407.5,446.33C407.147,446.682,407.147,446.682,407.5,446.33  L407.5,446.33z"/>
<path fill-rule="evenodd" clip-rule="evenodd" fill="#AC792F" d="M407.5,441.08C406.676,441.903,406.676,441.903,407.5,441.08  L407.5,441.08z"/>
<path fill-rule="evenodd" clip-rule="evenodd" fill="#AC792F" d="M405.25,439.58C404.426,440.403,404.426,440.403,405.25,439.58  L405.25,439.58z"/>
<path fill-rule="evenodd" clip-rule="evenodd" fill="#AC792F" d="M409.75,447.83C410.75,447.83,410.75,447.83,409.75,447.83  L409.75,447.83z"/>
<path fill-rule="evenodd" clip-rule="evenodd" fill="#AC792F" d="M408.25,444.08C409.894,444.966,408.892,444.425,408.25,444.08  L408.25,444.08z"/>
<path fill-rule="evenodd" clip-rule="evenodd" fill="#AC792F" d="M405.25,441.83C406.25,441.83,406.25,441.83,405.25,441.83  L405.25,441.83z"/>
<path fill-rule="evenodd" clip-rule="evenodd" fill="#AC792F" d="M403.75,444.83C401.083,442.163,406.417,447.497,403.75,444.83  L403.75,444.83z"/>
<path fill-rule="evenodd" clip-rule="evenodd" fill="#AC792F" d="M399.25,444.83C400.894,443.943,399.892,444.484,399.25,444.83  L399.25,444.83z"/>
<path fill-rule="evenodd" clip-rule="evenodd" fill="#AC792F" d="M407.5,443.33C408.5,442.33,408.5,442.33,407.5,443.33  L407.5,443.33z"/>
<path fill-rule="evenodd" clip-rule="evenodd" fill="#AC792F" d="M402.25,446.33C404.759,445.104,401.592,446.651,402.25,446.33  L402.25,446.33z"/>
<path fill-rule="evenodd" clip-rule="evenodd" fill="#AC792F" d="M403.75,447.08C404.619,446.21,404.619,446.21,403.75,447.08  L403.75,447.08z"/>
<path fill-rule="evenodd" clip-rule="evenodd" fill="#AC792F" d="M402.25,449.33C402.306,449.922,402.036,447.053,402.25,449.33  L402.25,449.33z"/>
<path fill-rule="evenodd" clip-rule="evenodd" fill="#AC792F" d="M400,447.83C401.838,445.607,400.626,447.073,400,447.83  L400,447.83z"/>
<path fill-rule="evenodd" clip-rule="evenodd" fill="#AC792F" d="M395.5,445.58C398.221,444.06,397.255,444.599,395.5,445.58  L395.5,445.58z"/>
<path fill-rule="evenodd" clip-rule="evenodd" fill="#AC792F" d="M394,444.08C394.741,442.509,394.785,442.416,394,444.08  L394,444.08z"/>
<path fill-rule="evenodd" clip-rule="evenodd" fill="#AC792F" d="M393.25,441.83C393.854,441.226,393.854,441.226,393.25,441.83  L393.25,441.83z"/>
<path fill-rule="evenodd" clip-rule="evenodd" fill="#AC792F" d="M391.75,439.58C391.899,440.684,391.181,435.36,391.75,439.58  L391.75,439.58z"/>
<path fill-rule="evenodd" clip-rule="evenodd" fill="#AC792F" d="M394,438.83C395,438.83,395,438.83,394,438.83L394,438.83z"/>
<path fill-rule="evenodd" clip-rule="evenodd" fill="#AC792F" d="M406.75,441.08C407.141,440.579,408.04,439.427,406.75,441.08  L406.75,441.08z"/>
<path fill-rule="evenodd" clip-rule="evenodd" fill="#AC792F" d="M410.5,447.08C410.556,447.672,410.286,444.803,410.5,447.08  L410.5,447.08z"/>
</svg>