<svg xmlns="http://www.w3.org/2000/svg" xmlns:xlink="http://www.w3.org/1999/xlink" version="1.1" id="Layer_1" x="0px" y="0px" enable-background="new 0 0 822.05 841.89" xml:space="preserve" viewBox="296.79 261.11 228.86 320.79">
<path fill-rule="evenodd" clip-rule="evenodd" fill="#C4E9F2" stroke="#000000" stroke-width="2" stroke-linecap="square" stroke-miterlimit="10" d="  M371.265,289.904c-26.299,10.52-35.233,8.101-38.25,35.25c-1.774,15.964-1.825,33.685-8.25,48.75  c-4.691,11.001-19.905,19.747-23.25,27.75c-7.485,17.911-1.278,52.911-1.741,72.084c-0.661,27.38-1.323,54.761-1.984,82.142  c-0.143,5.891,34.357,14.681,39.725,16.022c40.161,10.04,82.541,11.461,123.375,4.875c19.53-3.15,38.625-7.896,57.773-12.82  c10.118-2.602,4.331-51.412,4.375-61.028c0.146-31.981,0.292-63.963,0.438-95.945c0.056-12.233-10.181-16.506-15.712-27.83  c-5.581-11.426-8.66-23.257-9.75-36c-2.548-29.787,5.606-30.76-23.515-46.645c-21.059-11.486-21.63-31.017-45.902-32.133  C390.926,262.644,383.046,253.577,371.265,289.904z"/>
<path fill-rule="evenodd" clip-rule="evenodd" fill="#00A0C6" stroke="#000000" stroke-width="2" stroke-linecap="square" stroke-miterlimit="10" d="  M369.765,289.904c3-9,6-18,9-27c13,29.25,25.999,58.5,38.998,87.75c-5.824-8.289-12.986-25.308-22.618-28.92  C377.432,315.091,360.286,313.819,369.765,289.904z"/>
<path fill-rule="evenodd" clip-rule="evenodd" fill="#00A0C6" stroke="#000000" stroke-width="2" stroke-linecap="square" stroke-miterlimit="10" d="  M417.763,350.654c9.251-28.5,18.501-57,27.752-85.5c4.294,5.86,24.2,40.212,11.602,43.688  C433.046,315.481,430.228,328.843,417.763,350.654z"/>
<path fill-rule="evenodd" clip-rule="evenodd" fill="#C4E9F2" d="M417.763,350.654l-4.498,230.248L417.763,350.654z"/>
<line fill="none" stroke="#000000" stroke-width="2" stroke-linecap="square" stroke-miterlimit="10" x1="417.763" y1="350.654" x2="413.265" y2="580.902"/>
</svg>