<svg xmlns="http://www.w3.org/2000/svg" xmlns:xlink="http://www.w3.org/1999/xlink" version="1.1" id="Layer_1" x="0px" y="0px" enable-background="new 0 0 822.05 841.89" xml:space="preserve" viewBox="320.71 332.19 177.86 179.21">
<path fill-rule="evenodd" clip-rule="evenodd" fill="#FFFF3E" stroke="#000000" stroke-linecap="square" stroke-miterlimit="10" d="  M336.207,474.437c19.224,0,38.447,0,57.671,0c12.2,0,15.473-35.431,8.329-42c-6.876-6.323-47.818,0-57.671,0  C328.261,432.437,336.207,460.782,336.207,474.437z"/>
<path fill-rule="evenodd" clip-rule="evenodd" fill="#FFFF3E" stroke="#000000" stroke-linecap="square" stroke-miterlimit="10" d="  M396.207,474.437c20.908,0,31.5,7.411,31.5-14.788c0-9.492,6.629-60.463,0-66.21C385.42,356.777,396.207,461.519,396.207,474.437z"/>
<path fill-rule="evenodd" clip-rule="evenodd" fill="#FF1A00" stroke="#000000" stroke-linecap="square" stroke-miterlimit="10" d="  M396.207,419.689c-38.012-1.118-47.01-7.666-67.5,23.998c22.5,0.25,45,0.5,67.5,0.75  C396.207,437.002,398.213,426.792,396.207,419.689z"/>
<path fill-rule="evenodd" clip-rule="evenodd" fill="#5B3E1C" stroke="#000000" stroke-linecap="square" stroke-miterlimit="10" d="  M406.707,460.937C430.295,442.253,408.879,499.777,406.707,460.937L406.707,460.937z"/>
<path fill-rule="evenodd" clip-rule="evenodd" fill="#FFFFFF" stroke="#000000" stroke-linecap="square" stroke-miterlimit="10" d="  M408.207,432.437C428.152,416.579,409.688,467.656,408.207,432.437L408.207,432.437z"/>
<path fill-rule="evenodd" clip-rule="evenodd" fill="#FF1A00" stroke="#000000" stroke-linecap="square" stroke-miterlimit="10" d="  M393.207,396.439c3.25-3,6.5-6,9.75-9c-12.24-10.692-2.001-9.218,0.75-18c3.599-11.488,5.511-21.418,8.25-36.75  c1.385,5.985,1.637,35.075,4.875,36c11.999,3.428,11.838,11.798,3.375,18.75c3.25,2.75,6.5,5.5,9.75,8.25  C417.707,395.939,405.457,396.189,393.207,396.439z"/>
<path fill-rule="evenodd" clip-rule="evenodd" fill="#FFFFFF" stroke="#000000" stroke-linecap="square" stroke-miterlimit="10" d="  M405.957,407.689C420.069,415.056,419.894,399.815,405.957,407.689L405.957,407.689z"/>
<path fill-rule="evenodd" clip-rule="evenodd" stroke="#000000" stroke-linecap="square" stroke-miterlimit="10" d="  M410.457,407.689C413.596,407.689,413.596,407.689,410.457,407.689L410.457,407.689z"/>
<path fill-rule="evenodd" clip-rule="evenodd" stroke="#000000" stroke-linecap="square" stroke-miterlimit="10" d="  M411.207,411.439C411.62,408.807,412.137,405.521,411.207,411.439L411.207,411.439z"/>
<path fill-rule="evenodd" clip-rule="evenodd" stroke="#000000" stroke-linecap="square" stroke-miterlimit="10" d="  M407.457,407.689C415.314,406.849,411.696,407.236,407.457,407.689L407.457,407.689z"/>
<path fill-rule="evenodd" clip-rule="evenodd" fill="#FFFFFF" stroke="#000000" stroke-linecap="square" stroke-miterlimit="10" d="  M372.207,453.437C390.725,446.51,377.093,475.618,372.207,453.437L372.207,453.437z"/>
<path fill-rule="evenodd" clip-rule="evenodd" fill="#FFFFFF" stroke="#000000" stroke-linecap="square" stroke-miterlimit="10" d="  M354.207,453.437C371.804,446.138,358.744,475.542,354.207,453.437L354.207,453.437z"/>
<path fill-rule="evenodd" clip-rule="evenodd" fill="#FFFFFF" stroke="#000000" stroke-linecap="square" stroke-miterlimit="10" d="  M326.457,470.687c-1.919,7.607-1.024,16.895-1.5,24.75c23.73,0.539,86.975,7.773,75-30.75c-29.539,3.758-36.692,6.444-60.75-12  C335.279,458.233,328.66,464.331,326.457,470.687z"/>
<path fill-rule="evenodd" clip-rule="evenodd" fill="#FF1A00" stroke="#000000" stroke-linecap="square" stroke-miterlimit="10" d="  M402.957,466.937c-15.602-39.79-64.644-26.382-81.75,5.25c8.036-1.308,14.56-9.496,18-18.75  C359.745,480.061,370.819,477.739,402.957,466.937z"/>
<line fill="none" stroke="#000000" stroke-linecap="square" stroke-miterlimit="10" x1="360.207" y1="496.937" x2="360.207" y2="475.937"/>
<path fill-rule="evenodd" clip-rule="evenodd" fill="#5B3E1C" stroke="#000000" stroke-linecap="square" stroke-miterlimit="10" d="  M334.707,482.687c10.493-7.918,15.087-1.234,12,13.5C333.906,498.225,335.776,492.688,334.707,482.687z"/>
<path fill-rule="evenodd" clip-rule="evenodd" fill="#8ADBFF" stroke="#000000" stroke-linecap="square" stroke-miterlimit="10" d="  M343.707,467.687c-2.445,0.214-2.864,5.948-6.75,0C340.712,462.774,341.41,467.888,343.707,467.687z"/>
<path fill-rule="evenodd" clip-rule="evenodd" fill="#FF1A00" stroke="#000000" stroke-linecap="square" stroke-miterlimit="10" d="  M362.457,448.187C375.086,443.727,370.238,439.54,362.457,448.187L362.457,448.187z"/>
<path fill="none" stroke="#000000" stroke-linecap="square" stroke-miterlimit="10" d="M461.457,458.687  c-1.719-5.062-6.186-6.336-3-13.5C462.788,450.242,460.918,454.181,461.457,458.687z"/>
<path fill-rule="evenodd" clip-rule="evenodd" fill="#009900" stroke="#000000" stroke-linecap="square" stroke-miterlimit="10" d="  M408.207,439.187c1.505-8.321,21.443-23.2,25.5-24.748c10.76-4.106,27.592,1.263,32.625-0.75  c19.104-7.641,47.717,37.789,20.625,43.498c2.095,22.599-29.652,24.095-32.25,2.25c-11.595,4.45-22.022,16.115-35.25,9.75  C410.593,464.921,412.975,447.267,408.207,439.187z"/>
<path fill-rule="evenodd" clip-rule="evenodd" fill="#993300" stroke="#000000" stroke-linecap="square" stroke-miterlimit="10" d="  M438.207,454.187c6.391,4.711,11.422,3.491,15.75,11.25c-0.635-4.799,0.496-9.345-1.5-15c6.22,4.343,5.407,4.921,8.25,11.25  c0.461,0.021,5.223-1.731,4.5-2.25c-0.505,13.163,4.543,29.845,12,42c-10.827-1.949-21.899-1.705-33-2.25  C459.662,493.035,448.288,460.099,438.207,454.187z"/>
<path fill="none" stroke="#000000" stroke-linecap="square" stroke-miterlimit="10" d="M465.207,451.937  c-1.678,8.969,3.786,13.649,13.5,14.25"/>
<path fill="none" stroke="#000000" stroke-linecap="square" stroke-miterlimit="10" d="M460.707,451.937  c-5.526,1.58-10.816-1.605-14.25-7.5"/>
<path fill="none" stroke="#000000" stroke-linecap="square" stroke-miterlimit="10" d="M435.957,448.187  c2.651,4.765,2.808,9.954,0,14.25"/>
<path fill="none" stroke="#000000" stroke-linecap="square" stroke-miterlimit="10" d="M461.457,434.687  c-6.95-2.095-13.567-0.283-18,5.25"/>
<path fill="none" stroke="#000000" stroke-linecap="square" stroke-miterlimit="10" d="M430.707,424.187  c8.292,1.504,12.604,6.662,12,15"/>
<path fill="none" stroke="#000000" stroke-linecap="square" stroke-miterlimit="10" d="M463.707,415.189  c-3.13,2.136-4.777,5.3-4.5,8.998"/>
<path fill-rule="evenodd" clip-rule="evenodd" fill="#FFFFFF" stroke="#000000" stroke-linecap="square" stroke-miterlimit="10" d="  M409.707,509.687c15.609,0.211,31.219,0.422,46.828,0.633c12.491,0.169,15.174-20.555,6.848-28.629  c-19.379-18.792-17.841-25.529-37.926-6.879c-17.505,16.255-20.789,14.108-45,11.625C372.436,509.02,393.577,506.46,409.707,509.687  z"/>
<line fill="none" stroke="#000000" stroke-linecap="square" stroke-miterlimit="10" x1="409.707" y1="509.687" x2="409.707" y2="489.437"/>
<path fill-rule="evenodd" clip-rule="evenodd" fill="#8ADBFF" stroke="#000000" stroke-linecap="square" stroke-miterlimit="10" d="  M399.207,501.437c2.25,0.5,4.5,1,6.75,1.5c-1.73-9.702,1.279-6.247-6.75-10.5C399.207,495.437,399.207,498.437,399.207,501.437z"/>
<path fill-rule="evenodd" clip-rule="evenodd" fill="#8ADBFF" stroke="#000000" stroke-linecap="square" stroke-miterlimit="10" d="  M384.957,499.187c2.25,0.5,4.5,1,6.75,1.5c-1.696-10,1.452-6.034-6.75-9.75C384.957,493.687,384.957,496.437,384.957,499.187z"/>
<path fill-rule="evenodd" clip-rule="evenodd" fill="#8ADBFF" stroke="#000000" stroke-linecap="square" stroke-miterlimit="10" d="  M427.707,498.437C455.501,496.974,430.134,476.629,427.707,498.437L427.707,498.437z"/>
<path fill-rule="evenodd" clip-rule="evenodd" fill="#5B3E1C" stroke="#000000" stroke-linecap="square" stroke-miterlimit="10" d="  M447.207,495.437c6.909-6.434,6.933-6.755,13.5,0C471.698,506.743,439.98,523.682,447.207,495.437z"/>
<path fill-rule="evenodd" clip-rule="evenodd" fill="#8ADBFF" stroke="#000000" stroke-linecap="square" stroke-miterlimit="10" d="  M436.707,478.937c3,0,6,0,9,0c0-2,0-4,0-6C434.881,469.837,440.067,476.888,436.707,478.937z"/>
<path fill-rule="evenodd" clip-rule="evenodd" fill="#FF1A00" stroke="#000000" stroke-linecap="square" stroke-miterlimit="10" d="  M472.707,484.187c-37.031-35.57-67.545-42.03-98.25,3c35.571,10.07,43.133,3.097,66-24.75  C448.39,470.214,468.094,494.441,472.707,484.187z"/>
<path fill-rule="evenodd" clip-rule="evenodd" fill="#FF1A00" stroke="#000000" stroke-linecap="square" stroke-miterlimit="10" d="  M408.207,460.187C422.81,460,417.425,445.501,408.207,460.187L408.207,460.187z"/>
</svg>