<svg xmlns="http://www.w3.org/2000/svg" xmlns:xlink="http://www.w3.org/1999/xlink" version="1.1" id="Layer_1" x="0px" y="0px" enable-background="new 0 0 822.05 841.89" xml:space="preserve" viewBox="191.68 241.89 437.56 361.17">
<path fill-rule="evenodd" clip-rule="evenodd" fill="#FFFFFF" d="M628,601.89c-135.907,0-271.814,0-407.722,0  c-6.551,0-27.278,4.398-27.278-3.883c0-28.734,0-57.468,0-86.202c0-81.42,0-162.84,0-244.26c0-9.268-5.416-25.655,5.727-25.655  c27.269,0,54.537,0,81.805,0c86.645,0,173.29,0,259.936,0c26.229,0,52.46,0,78.689,0c14.971,0,8.843,11.814,8.843,25.655  c0,81.42,0,162.84,0,244.26C628,541.833,628,571.862,628,601.89z"/>
<path fill-rule="evenodd" clip-rule="evenodd" fill="#4D4D4D" stroke="#000000" stroke-width="2" stroke-linecap="square" stroke-miterlimit="10" d="  M274,258.39c-0.302,5.564,1.108,47.709,3.75,50.25c24.227,23.3,29.178-15.323,30-26.25c0.546-7.256,11.738-24.668-4.5-27.375  C292.953,253.299,283.535,253.602,274,258.39z"/>
<path fill-rule="evenodd" clip-rule="evenodd" fill="#D1BF99" stroke="#000000" stroke-width="2" stroke-linecap="square" stroke-miterlimit="10" d="  M277.75,308.64c3.254,21.334-23.25,25.437-23.25,47.25c0,30.407,0,60.815,0,91.223c0,40.836,0,81.673,0,122.51  c0,25.683,35.626,15.768,53.297,15.768c38.906,0,17.953-142.074,17.953-170.474c0-18.573,6.072-49.81,0-68.026  C316.367,318.742,305.49,308.64,277.75,308.64z"/>
<path fill-rule="evenodd" clip-rule="evenodd" fill="#FF7F00" stroke="#000000" stroke-width="2" stroke-linecap="square" stroke-miterlimit="10" d="  M313,487.14c-21.006,0-44.25,10.169-44.25-13.828c0-11.85-7.926-66.83,0-74.672c12.43-12.298,44.25-3.336,44.25,13.828  C313,437.359,313,462.25,313,487.14z"/>
<path fill-rule="evenodd" clip-rule="evenodd" fill="#4D4D4D" stroke="#000000" stroke-width="2" stroke-linecap="square" stroke-miterlimit="10" d="  M385.75,258.39c-0.302,5.564,1.108,47.709,3.75,50.25c24.409,23.475,29.014-15.601,30-26.25c0.668-7.215,12.842-24.485-4.5-27.375  C404.739,253.305,395.277,253.667,385.75,258.39z"/>
<path fill-rule="evenodd" clip-rule="evenodd" fill="#D1BF99" stroke="#000000" stroke-width="2" stroke-linecap="square" stroke-miterlimit="10" d="  M389.5,308.64c3.109,16.43-19.583,31.575-23.25,50.25c-5.881,29.953,0.75,68.681,0.75,99.18c0,26.752-12.569,90.57,0,114.57  c8.245,15.743,42.135,24.094,60.75,12.75c12.602-7.679,9.75-13.869,9.75-30.321c0-49.864,0-99.729,0-149.593  c0-16.785,5.293-44.247,0-60.835C428.754,317.229,415.88,308.64,389.5,308.64z"/>
<path fill-rule="evenodd" clip-rule="evenodd" fill="#FF7F00" stroke="#000000" stroke-width="2" stroke-linecap="square" stroke-miterlimit="10" d="  M424.75,487.14c-21.006,0-44.25,10.169-44.25-13.828c0-11.85-7.926-66.83,0-74.672c12.43-12.298,44.25-3.336,44.25,13.828  C424.75,437.359,424.75,462.25,424.75,487.14z"/>
<path fill-rule="evenodd" clip-rule="evenodd" fill="#4D4D4D" stroke="#000000" stroke-width="2" stroke-linecap="square" stroke-miterlimit="10" d="  M494.5,258.39c-0.042,5.413,2.234,48.071,4.5,50.25c24.227,23.3,29.178-15.323,30-26.25  C530.705,259.737,525.58,243.355,494.5,258.39z"/>
<path fill-rule="evenodd" clip-rule="evenodd" fill="#D1BF99" stroke="#000000" stroke-width="2" stroke-linecap="square" stroke-miterlimit="10" d="  M499,308.64c3.045,19.961-21.04,26.567-23.625,47.25c-3.646,29.165,0.375,61.807,0.375,91.223c0,40.836,0,81.673,0,122.51  c0,26.671,39.36,15.768,57.884,15.768c29.624,0,13.366-147.996,13.366-170.474c0-21.676,3.202-46.563-0.375-68.026  c-1.378-8.266-12.077-15.297-16.875-21.75c-3.456-4.648,4.092-16.5-3.87-16.5C516.92,308.64,507.96,308.64,499,308.64z"/>
<path fill-rule="evenodd" clip-rule="evenodd" fill="#FF7F00" stroke="#000000" stroke-width="2" stroke-linecap="square" stroke-miterlimit="10" d="  M533.5,487.14c-20.943,0-43.5,10.026-43.5-13.828c0-11.754-7.892-66.955,0-74.672c12.581-12.302,43.5-3.165,43.5,13.828  C533.5,437.359,533.5,462.25,533.5,487.14z"/>
</svg>