<svg xmlns="http://www.w3.org/2000/svg" xmlns:xlink="http://www.w3.org/1999/xlink" version="1.1" id="Layer_1" x="0px" y="0px" enable-background="new 0 0 822.05 841.89" xml:space="preserve" viewBox="301.09 341.39 220.25 161.24">
<path fill-rule="evenodd" clip-rule="evenodd" d="M323.839,365.39c-4.903-4.802-9.695-13.173-13.5-17.25  c-1.352-2.721-0.957-4.564-7.5-6.75c-5.731,16.895,7.776,8.345,15.75,28.5C320.339,368.39,322.089,366.89,323.839,365.39z"/>
<path fill-rule="evenodd" clip-rule="evenodd" stroke="#000000" stroke-width="0.5" stroke-linecap="square" stroke-miterlimit="10" d="  M321.589,360.14C314.878,378.76,297.531,372.673,321.589,360.14L321.589,360.14z"/>
<path fill-rule="evenodd" clip-rule="evenodd" stroke="#000000" stroke-width="0.5" stroke-linecap="square" stroke-miterlimit="10" d="  M312.589,363.14c3.794-5.607,7.821-9.259,12-12.75C327.095,357.957,320.459,360.798,312.589,363.14z"/>
<path fill-rule="evenodd" clip-rule="evenodd" stroke="#000000" stroke-width="0.5" stroke-linecap="square" stroke-miterlimit="10" d="  M307.339,356.39c4.841-6.961,7.938-11.844,14.25-11.25C319.725,350.739,313.052,355.079,307.339,356.39z"/>
<path fill-rule="evenodd" clip-rule="evenodd" stroke="#000000" stroke-width="0.5" stroke-linecap="square" stroke-miterlimit="10" d="  M315.589,353.39c-5.979,3.949-9.889,6.694-14.25,11.25C308.417,364.625,312.347,357.954,315.589,353.39z"/>
<path fill-rule="evenodd" clip-rule="evenodd" fill="#BF602B" stroke="#000000" stroke-width="1.25" stroke-linecap="square" stroke-miterlimit="10" d="  M344.839,405.14c-25.801,26.529,20.414,43.933,30,60c3.943,6.609,0.497,23.061,14.25,33.375c12.104,9.078,30.481-1.313,39-10.875  c31.245-35.072-16.195-43.945-31.125-58.875C386.455,418.256,373.731,369.41,344.839,405.14z"/>
<line fill="none" stroke="#000000" stroke-width="0.5" stroke-linecap="square" stroke-miterlimit="10" x1="373.339" y1="473.39" x2="373.339" y2="473.39"/>
<path fill-rule="evenodd" clip-rule="evenodd" fill="#F9D15E" stroke="#000000" stroke-width="0.5" stroke-linecap="square" stroke-miterlimit="10" d="  M383.089,456.14c4.428-4.371,6.508-10.024,12.75-9.75C392.31,450.786,386.882,453.015,383.089,456.14z"/>
<path fill-rule="evenodd" clip-rule="evenodd" fill="#878787" stroke="#000000" stroke-width="0.5" stroke-linecap="square" stroke-miterlimit="10" d="  M318.589,369.89c18.5,24,37,48,55.5,72c3.25-2.75,6.5-5.5,9.75-8.25C369.843,417.895,336.008,365.739,318.589,369.89z"/>
<path fill-rule="evenodd" clip-rule="evenodd" fill="#BF602B" stroke="#000000" stroke-width="0.5" stroke-linecap="square" stroke-miterlimit="10" d="  M318.589,369.89c-4.792-6.352-9.789-12.502-10.5-18.75C311.027,356.963,316.314,365.548,318.589,369.89z"/>
<path fill="none" stroke="#000000" stroke-width="0.5" stroke-linecap="square" stroke-miterlimit="10" d="M311.839,353.39  c24.229,38.943,58.594,73.942,89.25,108"/>
<path fill="none" stroke="#000000" stroke-width="0.5" stroke-linecap="square" stroke-miterlimit="10" d="M402.589,459.14  c-24.787-34.408-55.875-64.41-83.25-96.75"/>
<path fill="none" stroke="#000000" stroke-width="0.5" stroke-linecap="square" stroke-miterlimit="10" d="M311.839,356.39  c24.367,37.053,54.58,73.94,85.5,105.75"/>
<path fill="none" stroke="#000000" stroke-width="0.5" stroke-linecap="square" stroke-miterlimit="10" d="M395.089,464.39  c-30.587-25.962-57.63-65.941-78.75-99.75"/>
<path fill-rule="evenodd" clip-rule="evenodd" fill="#878787" stroke="#000000" stroke-width="1.25" stroke-linecap="square" stroke-miterlimit="10" d="  M393.589,464.39c3-2.75,6-5.5,9-8.25c7.324,11.67,17.708,23.388,22.5,34.5C415.64,483.089,404.325,472.625,393.589,464.39z"/>
<path fill-rule="evenodd" clip-rule="evenodd" fill="#6D6D6A" d="M335.089,345.89l167.25,84L335.089,345.89z"/>
<line fill="none" stroke="#000000" stroke-width="0.5" stroke-linecap="square" stroke-miterlimit="10" x1="335.089" y1="345.89" x2="502.339" y2="429.89"/>
<path fill-rule="evenodd" clip-rule="evenodd" fill="#6D6D6A" stroke="#000000" stroke-width="0.5" stroke-linecap="square" stroke-miterlimit="10" d="  M502.339,430.64C505.959,432.159,510.308,433.982,502.339,430.64L502.339,430.64z"/>
<path fill-rule="evenodd" clip-rule="evenodd" stroke="#000000" stroke-width="0.5" stroke-linecap="square" stroke-miterlimit="10" d="  M512.839,441.14c-1.967-3.068,1.604-7.933-7.5-9.75c-1.227,0.831-0.773,1.029-4.5,3C504.839,436.64,508.839,438.89,512.839,441.14z"/>
<path fill-rule="evenodd" clip-rule="evenodd" stroke="#000000" stroke-width="0.5" stroke-linecap="square" stroke-miterlimit="10" d="  M329.089,343.64c56.42,34.424,129.968,66.788,192,101.25c-33.917-6.02-77.936-41.968-111.036-58.518  C387.233,374.962,344.693,362.775,329.089,343.64z"/>
<path fill-rule="evenodd" clip-rule="evenodd" stroke="#000000" stroke-width="0.5" stroke-linecap="square" stroke-miterlimit="10" d="  M493.339,431.39c0.072,0.021,5.172-0.302,7.5,1.5C497.667,437.173,497.376,432.625,493.339,431.39z"/>
<path fill-rule="evenodd" clip-rule="evenodd" fill="#FFFFFF" stroke="#000000" stroke-width="0.5" stroke-linecap="square" stroke-miterlimit="10" d="  M510.589,435.14C509.022,437.517,509.28,437.126,510.589,435.14L510.589,435.14z"/>
</svg>