<svg xmlns="http://www.w3.org/2000/svg" xmlns:xlink="http://www.w3.org/1999/xlink" version="1.1" id="Layer_1" x="0px" y="0px" enable-background="new 0 0 822.05 841.89" xml:space="preserve" viewBox="212.53 291.49 401.97 258">
<path fill-rule="evenodd" clip-rule="evenodd" fill="#668187" stroke="#000000" stroke-width="2" stroke-linecap="square" stroke-miterlimit="10" d="  M302.25,394.945c-19.076,17.12-101.583,70.142-87,93c7.687,12.048,47.64,20.514,60.806,26.75c21.87,10.359,38.481,26.107,62.944,31  c54.366,10.873,86.433-11.304,126.5-45.139c12.67-10.699,27.255-31.906,39.25-40.361c10.978-7.738,32.644-4.893,51-11.25  c32.123-11.125,57.75-55.165,57.75-88.125c0-9.636-3.365-19.586-11.25-25.5c-9.249-6.937-9.685,6.673-16.5,4.125  c-7.981-2.984-16.464-13.107-24.75-17.25c-16.178-8.089-36.079-12.005-54-13.125c-5.277-0.33-13.845,1.224-18.75-0.375  c-1.931-0.629,0.432-14.363-1.5-15c-10.866-3.581-31.643,1.871-42.853,2.534c-20.875,1.235-79.439-6.267-96.647,5.716  c-19.299,13.438-33.803,69.86-44.344,91.645C302.688,394.041,302.469,394.493,302.25,394.945z"/>
<path fill-rule="evenodd" clip-rule="evenodd" fill="#668187" d="M302.25,394.945c61.976,37.191,132.254,50.569,203.25,58.5  C437.75,433.945,370,414.445,302.25,394.945z"/>
<path fill="none" stroke="#000000" stroke-width="2" stroke-linecap="square" stroke-miterlimit="10" d="M302.25,394.945  c61.976,37.191,132.254,50.569,203.25,58.5"/>
<path fill-rule="evenodd" clip-rule="evenodd" fill="#668187" d="M347.25,301.945c37.657,16.312,216.879,117.588,251.25,74.625  c23.506-29.382-32.088-39.011-46.726-41.39C483.6,324.102,415.425,313.023,347.25,301.945z"/>
<path fill="none" stroke="#000000" stroke-width="2" stroke-linecap="square" stroke-miterlimit="10" d="M347.25,301.945  c63.871,27.667,126.967,58.929,194.806,75.889c14.69,3.673,44.571,13.578,56.444-1.264c9.171-11.463-0.752-28.981-11.25-35.625"/>
<path fill-rule="evenodd" clip-rule="evenodd" fill="#FFFFFF" stroke="#000000" stroke-width="2" stroke-linecap="square" stroke-miterlimit="10" d="  M462.75,350.695c23.057,2.857,18.986-15.501,35.25-13.875c16.906,1.69,32.554,6.376,48,13.125c8.668,3.787,62.09,30.071,30,34.5  c1.164,0.627,2.952,1.811,4.5,1.5C540.204,376.654,501.229,365.991,462.75,350.695z"/>
<path fill-rule="evenodd" clip-rule="evenodd" fill="#668187" d="M488.25,308.695l-0.75,27.75L488.25,308.695z"/>
<line fill="none" stroke="#000000" stroke-width="2" stroke-linecap="square" stroke-miterlimit="10" x1="488.25" y1="308.695" x2="487.5" y2="336.445"/>
<path fill-rule="evenodd" clip-rule="evenodd" fill="#FF0000" d="M587.25,343.945l-6,24.75L587.25,343.945z"/>
<line fill="none" stroke="#000000" stroke-width="2" stroke-linecap="square" stroke-miterlimit="10" x1="587.25" y1="343.945" x2="581.25" y2="368.695"/>
</svg>