<svg xmlns="http://www.w3.org/2000/svg" xmlns:xlink="http://www.w3.org/1999/xlink" version="1.1" id="Layer_1" x="0px" y="0px" enable-background="new 0 0 822.05 841.89" xml:space="preserve" viewBox="303.92 338.12 212.56 168.15">
<path fill-rule="evenodd" clip-rule="evenodd" fill="#EED5B6" stroke="#000000" stroke-width="1.5" stroke-linecap="square" stroke-miterlimit="10" d="  M448.551,474.89c-29.156-6.694-33.971-34.111-71.252-21.75c-23.828,7.9-44.796,28.2-53.25,51.75c26.148,0,52.296,0,78.444,0  C437.893,504.89,437.507,508.873,448.551,474.89z"/>
<path fill-rule="evenodd" clip-rule="evenodd" fill="#F8F300" stroke="#000000" stroke-width="1.25" stroke-linecap="square" stroke-miterlimit="10" d="  M443.301,468.14c-7.125,30.531-47.637,39.948-72.002,24c-18.406-12.048-11.92-27.043-35.25-21  c-13.653,3.536-28.516,21.305-31.5,34.5c60,0,120.001,0,180.002,0C479.715,485.622,463.544,471.212,443.301,468.14z"/>
<path fill-rule="evenodd" clip-rule="evenodd" fill="#7D5E23" stroke="#000000" stroke-width="1.5" stroke-linecap="square" stroke-miterlimit="10" d="  M448.551,393.14c11.586,28.559,9.929,72.363-33.002,61.5C422.093,434.464,423.817,397.435,448.551,393.14z"/>
<path fill-rule="evenodd" clip-rule="evenodd" fill="#EED5B6" stroke="#000000" stroke-width="1.5" stroke-linecap="square" stroke-miterlimit="10" d="  M331.549,387.14c-4.505,33.839,23.974,74.093,58.5,79.5c51.654,8.09,61.631-54.004,57.752-92.25  C409.932,391.139,371.941,393.876,331.549,387.14z"/>
<path fill-rule="evenodd" clip-rule="evenodd" fill="#7D5E23" stroke="#000000" stroke-width="1.5" stroke-linecap="square" stroke-miterlimit="10" d="  M449.301,370.64c24.084,35.435-39.194,28.819-54.891,30.389c-16.352,1.635-37.258-0.439-35.833,19.5  c1.596,22.344,4.208,41.137-22.528,28.111C277.431,420.083,378.208,276.033,449.301,370.64z"/>
<path fill-rule="evenodd" clip-rule="evenodd" fill="#EED5B6" d="M362.299,414.14c-17.705,1.001-17.482,24.23,1.5,24  C363.333,430.696,364.42,421.254,362.299,414.14z"/>
<path fill="none" stroke="#000000" stroke-width="1.5" stroke-linecap="square" stroke-miterlimit="10" d="M362.299,414.14  c-17.705,1.001-17.482,24.23,1.5,24"/>
<path fill-rule="evenodd" clip-rule="evenodd" d="M384.799,426.14C397.248,429.239,397.67,423.453,384.799,426.14L384.799,426.14z"/>
<path fill="none" stroke="#000000" stroke-width="0.5" stroke-linecap="square" stroke-miterlimit="10" d="M377.299,428.39  c6.462-6.41,14.846-8.728,23.25-6"/>
<path fill-rule="evenodd" clip-rule="evenodd" d="M418.551,420.89C431.038,426.648,431.729,416.646,418.551,420.89L418.551,420.89z"/>
<path fill="none" stroke="#000000" stroke-width="0.5" stroke-linecap="square" stroke-miterlimit="10" d="M411.049,421.64  c7.149-6.206,15.334-7.465,23.252-3"/>
<path fill-rule="evenodd" clip-rule="evenodd" fill="#F8F300" stroke="#000000" stroke-width="1.25" stroke-linecap="square" stroke-miterlimit="10" d="  M498.051,419.39c-7.71-3.128-64.078-3.972-51,12.375C463.147,451.886,488.334,437.925,498.051,419.39z"/>
<path fill-rule="evenodd" clip-rule="evenodd" fill="#EED5B6" stroke="#000000" stroke-width="1.25" stroke-linecap="square" stroke-miterlimit="10" d="  M474.051,392.39c9.339,7.976,22.809,30.814,11.25,42.75c-19.754,20.397-36.305-26.301-51.75-33  C447.051,398.89,460.551,395.64,474.051,392.39z"/>
<path fill-rule="evenodd" clip-rule="evenodd" fill="#EED5B6" stroke="#000000" stroke-width="1.25" stroke-linecap="square" stroke-miterlimit="10" d="  M403.549,399.14c16.886,10.876,54.755,5.775,70.502-6.75C455.421,383.337,418.633,386.008,403.549,399.14z"/>
<path fill-rule="evenodd" clip-rule="evenodd" fill="#F8F300" stroke="#000000" stroke-width="1.25" stroke-linecap="square" stroke-miterlimit="10" d="  M498.051,420.89c-13.941,15.006-34.909,18.272-53.25,9.75c5.224,15.41,10.431,30.881,15,46.5  c9.711,33.192,11.132,27.75,45.984,27.75C531.646,504.89,499.758,438.257,498.051,420.89z"/>
</svg>