<svg xmlns="http://www.w3.org/2000/svg" xmlns:xlink="http://www.w3.org/1999/xlink" version="1.1" id="Layer_1" x="0px" y="0px" enable-background="new 0 0 822.05 841.89" xml:space="preserve" viewBox="350.53 336.92 120.83 165.88">
<path fill-rule="evenodd" clip-rule="evenodd" fill="#F0CBA6" stroke="#000000" stroke-linecap="square" stroke-miterlimit="10" d="  M447.03,371.15c-21.499-4.697-40.723,30.159-69,26.25C400.933,411.292,425.268,378.032,447.03,371.15z"/>
<path fill-rule="evenodd" clip-rule="evenodd" fill="#F0CBA6" stroke="#000000" stroke-linecap="square" stroke-miterlimit="10" d="  M441.78,477.652c-12-11.25-24-22.5-36-33.75c12-8.001,24-16.001,36-24.002c-1-1-2-2-3-3c-12.114,9.349-25.016,19.764-39,25.502  C409.586,452.113,433.719,477.8,441.78,477.652z"/>
<path fill-rule="evenodd" clip-rule="evenodd" fill="#200F75" stroke="#000000" stroke-linecap="square" stroke-miterlimit="10" d="  M442.53,473.902c-10.067-1.484-38.762,11.25-22.362,11.25C432.641,485.152,450.254,489.021,442.53,473.902z"/>
<path fill-rule="evenodd" clip-rule="evenodd" fill="#200F75" stroke="#000000" stroke-linecap="square" stroke-miterlimit="10" d="  M438.03,488.152C374.444,501.609,463.128,511.736,438.03,488.152L438.03,488.152z"/>
<path fill-rule="evenodd" clip-rule="evenodd" fill="#F0CBA6" stroke="#000000" stroke-linecap="square" stroke-miterlimit="10" d="  M425.28,443.152c13.25-7.501,26.5-15.001,39.75-22.502c-1-1.25-2-2.5-3-3.75c-13.349,8.907-27.159,18.066-42,24.002  c4.698,17.23,7.334,37.303,15,52.5C433.693,477.455,427.076,457.999,425.28,443.152z"/>
<path fill-rule="evenodd" clip-rule="evenodd" fill="#200F75" stroke="#000000" stroke-linecap="square" stroke-miterlimit="10" d="  M429.03,432.652c10.926,19.861,37.45,12.25,41.625-8.625c3.915-19.574-48.794-7.642-58.125,1.875  C417.814,428.064,423.449,431.586,429.03,432.652z"/>
<line fill="none" stroke="#000000" stroke-linecap="square" stroke-miterlimit="10" x1="443.28" y1="422.152" x2="429.03" y2="431.902"/>
<path fill-rule="evenodd" clip-rule="evenodd" fill="#008000" stroke="#000000" stroke-linecap="square" stroke-miterlimit="10" d="  M426.78,395.15c0.16,24.396,25.535,18.588,42.75,15c-9.729-43.278-24.296-52.612-60.75-32.25c1.736,4.491,7.41,12.099,11.25,15  c2-2,4-4,6-6C426.048,389.217,425.802,393.041,426.78,395.15z"/>
<path fill-rule="evenodd" clip-rule="evenodd" fill="#F0CBA6" stroke="#000000" stroke-linecap="square" stroke-miterlimit="10" d="  M447.78,373.4c-20.77-3.894-40.643,30.384-69,26.25C401.104,413.306,426.619,381.042,447.78,373.4z"/>
<path fill-rule="evenodd" clip-rule="evenodd" fill="#008000" stroke="#000000" stroke-linecap="square" stroke-miterlimit="10" d="  M437.28,368.9c-7.744,2.638-15.362,8.705-22.502,12.75c1.224,3.308,7.196,12.456,9.752,15c5.053-3.031,34.495-15.9,32.25-24  C454.061,362.839,444.02,365.96,437.28,368.9z"/>
<path fill-rule="evenodd" clip-rule="evenodd" fill="#F0CBA6" stroke="#000000" stroke-linecap="square" stroke-miterlimit="10" d="  M414.03,353.15c1.597,24.526,32.115,20.106,28.5-4.5C433.45,352.437,423.664,354.012,414.03,353.15z"/>
<path fill-rule="evenodd" clip-rule="evenodd" fill="#200F75" stroke="#000000" stroke-linecap="square" stroke-miterlimit="10" d="  M442.53,346.4c-13.477,4.031-28.463,6.34-42,3.75C413.47,345.561,429.211,326.294,442.53,346.4z"/>
<path fill-rule="evenodd" clip-rule="evenodd" fill="#FFFFFF" stroke="#000000" stroke-linecap="square" stroke-miterlimit="10" d="  M379.53,370.4c-1.04,5.464-3.564,7.023-2.25,12.75C380.529,378.393,378.634,375.11,379.53,370.4z"/>
<path fill-rule="evenodd" clip-rule="evenodd" fill="#FFFFFF" stroke="#000000" stroke-linecap="square" stroke-miterlimit="10" d="  M365.28,359.9c-1.691,5.664-5.713,8.639,0.75,14.25C371.672,365.694,366.358,363.69,365.28,359.9z"/>
<path fill-rule="evenodd" clip-rule="evenodd" fill="#FFFFFF" stroke="#000000" stroke-linecap="square" stroke-miterlimit="10" d="  M369.78,360.65c-1.171,4.942-1.228,8.931-3.75,13.5c1.25,0.5,2.5,1,3.75,1.5C378.107,367.234,371.804,366.45,369.78,360.65z"/>
<path fill-rule="evenodd" clip-rule="evenodd" fill="#FFFFFF" stroke="#000000" stroke-linecap="square" stroke-miterlimit="10" d="  M375.78,363.65c-1.695,4.376-3.018,8.2-6,12C382.651,377.841,376.74,371.772,375.78,363.65z"/>
<path fill-rule="evenodd" clip-rule="evenodd" fill="#FFFFFF" stroke="#000000" stroke-linecap="square" stroke-miterlimit="10" d="  M376.53,383.15c-8.758-2.521-15.121-2.741-21.75-10.5C355.814,383.979,366.134,390.188,376.53,383.15z"/>
<path fill-rule="evenodd" clip-rule="evenodd" fill="#FFFFFF" stroke="#000000" stroke-linecap="square" stroke-miterlimit="10" d="  M376.53,383.15c-2.256-7.86-11.816-13.232-21.75-10.5C360.555,379.408,367.932,382.682,376.53,383.15z"/>
<path fill-rule="evenodd" clip-rule="evenodd" fill="#FFFFFF" stroke="#000000" stroke-linecap="square" stroke-miterlimit="10" d="  M353.28,375.65c1.619,9.31,4.887,14.117,17.25,12C361.576,386.127,359.31,380.486,353.28,375.65z"/>
<path fill-rule="evenodd" clip-rule="evenodd" fill="#FFFFFF" stroke="#000000" stroke-linecap="square" stroke-miterlimit="10" d="  M351.03,372.65c4.232-4.005,8.798-10.529,12.75-12.75C354.328,361.482,355.324,366.336,351.03,372.65z"/>
<path fill-rule="evenodd" clip-rule="evenodd" fill="#FFFFFF" stroke="#000000" stroke-linecap="square" stroke-miterlimit="10" d="  M351.03,372.65c0.308,2.156-0.527,4.88,0.75,7.5c4.65-5.085,8.917-11.49,12-17.25C355.229,363.223,355.597,367.996,351.03,372.65z"/>
<path fill-rule="evenodd" clip-rule="evenodd" fill="#F0CBA6" stroke="#000000" stroke-linecap="square" stroke-miterlimit="10" d="  M375.78,395.9c-6.88,3.483-11.119,7.021-19.5,0.75C363.083,391.081,368.746,392.787,375.78,395.9z"/>
<path fill-rule="evenodd" clip-rule="evenodd" fill="#F0CBA6" stroke="#000000" stroke-linecap="square" stroke-miterlimit="10" d="  M380.28,398.9c-6.324,3.92-11.497,6.187-19.5,0.75C367.759,393.322,373.094,395.572,380.28,398.9z"/>
</svg>