<svg xmlns="http://www.w3.org/2000/svg" xmlns:xlink="http://www.w3.org/1999/xlink" version="1.1" id="Layer_1" x="0px" y="0px" enable-background="new 0 0 822.05 841.89" xml:space="preserve" viewBox="273.89 256.93 274.25 329.96">
<path fill-rule="evenodd" clip-rule="evenodd" fill="#8A644A" d="M320.639,388.64c31.427-19.04,62.853-38.079,94.28-57.119  c20.407-12.364,64.633,18.695,84.878,27.284c38.068,16.15,47.342,10.882,47.342,51.16c0,41.547,0,83.094,0,124.642  c0,10.163-81.685,42.81-93.476,48.841c-16.766,8.574-74.043-33.093-90.33-41.447c-36.387-18.666-30.689-23.683-34.432-65.521  c-2.09-23.358-4.18-46.716-6.27-70.074C321.753,396.599,324.618,383.857,320.639,388.64z"/>
<path fill="none" stroke="#000000" stroke-width="2" stroke-linecap="square" stroke-miterlimit="10" d="M320.639,388.64  c29.454-17.844,58.908-35.688,88.361-53.533c25.884-15.682,54.651,8.364,81.145,19.603c31.646,13.426,56.994,11.677,56.994,46.606  c0,43.442,0,86.886,0,130.329c0,14.02-68.106,38.827-81.017,45.43c-29.688,15.184-56.071-11.108-84.569-25.728  c-36.576-18.764-47.379-15.926-50.918-55.488c-3.332-37.239-6.664-74.479-9.996-111.72"/>
<path fill="none" stroke="#000000" stroke-width="2" stroke-linecap="square" stroke-miterlimit="10" d="M323.639,384.14  c29.109,13.302,81.938,52.241,113.25,51.75c30.882-0.484,81.139-39.458,109.5-53.25"/>
<line fill="none" stroke="#000000" stroke-width="2" stroke-linecap="square" stroke-miterlimit="10" x1="436.889" y1="435.89" x2="448.889" y2="585.89"/>
<path fill-rule="evenodd" clip-rule="evenodd" fill="#402B13" stroke="#000000" stroke-width="2" stroke-linecap="square" stroke-miterlimit="10" d="  M411.389,375.89c-12.879-3.968-21.984,0.617-22.5,14.25c30.75-0.75,61.5-1.5,92.25-2.25  C471.637,363.696,432.146,375.371,411.389,375.89z"/>
<path fill-rule="evenodd" clip-rule="evenodd" fill="#E1EEEF" stroke="#000000" stroke-width="2" stroke-linecap="square" stroke-miterlimit="10" d="  M348.389,308.39c12.427,18.863,24.818,49.364,42,63.75c24.285,20.333,37.974,0.746,60.809-19.553  c14.312-12.721-26.08-56.448-35.67-71.225C407.962,269.704,360.836,302.093,348.389,308.39z"/>
<path fill-rule="evenodd" clip-rule="evenodd" fill="#E1EEEF" stroke="#000000" stroke-width="2" stroke-linecap="square" stroke-miterlimit="10" d="  M371.639,320.39c11.177,16.965,25.285,52.845,42,63.75c26.151,17.061,45.188-5.897,64.306-23.278  c6.285-5.714-33.435-58.433-39.223-67.5C431.296,281.729,384.03,314.122,371.639,320.39z"/>
<path fill-rule="evenodd" clip-rule="evenodd" fill="#890C08" stroke="#000000" stroke-width="2" stroke-linecap="square" stroke-miterlimit="10" d="  M274.889,277.64c24.25-27.161,50.969-27.704,69.75,7.5c2.985-4.414,8.726-7.336,11.25-12c2.25,12.75,4.5,25.5,6.75,38.25  c-12.5,1.75-25,3.5-37.5,5.25C360.058,288.795,293.584,273.692,274.889,277.64z"/>
<path fill-rule="evenodd" clip-rule="evenodd" fill="#E1EEEF" stroke="#000000" stroke-width="2" stroke-linecap="square" stroke-miterlimit="10" d="  M408.389,390.14c-3.25-13.75-6.5-27.5-9.75-41.25c25.5-4.25,51-8.5,76.5-12.75c0,9.414,5.916,47.958,0,54  C468.083,397.346,419.729,390.14,408.389,390.14z"/>
<line fill="none" stroke="#000000" stroke-width="2" stroke-linecap="square" stroke-miterlimit="10" x1="401.639" y1="328.64" x2="443.639" y2="340.64"/>
<line fill="none" stroke="#000000" stroke-width="2" stroke-linecap="square" stroke-miterlimit="10" x1="432.389" y1="313.64" x2="418.139" y2="345.14"/>
<line fill="none" stroke="#000000" stroke-width="2" stroke-linecap="square" stroke-miterlimit="10" x1="454.139" y1="364.64" x2="427.139" y2="388.64"/>
<line fill="none" stroke="#000000" stroke-width="2" stroke-linecap="square" stroke-miterlimit="10" x1="423.389" y1="366.14" x2="453.389" y2="388.64"/>
</svg>