<svg xmlns="http://www.w3.org/2000/svg" xmlns:xlink="http://www.w3.org/1999/xlink" version="1.1" id="Layer_1" x="0px" y="0px" enable-background="new 0 0 822.05 841.89" xml:space="preserve" viewBox="278.42 257.34 266 329.05">
<path fill-rule="evenodd" clip-rule="evenodd" fill="#8A644A" d="M316.917,388.14c31.426-19.04,62.852-38.079,94.278-57.119  c20.407-12.364,64.634,18.696,84.879,27.284c38.068,16.15,47.343,10.882,47.343,51.16c0,41.547,0,83.094,0,124.642  c0,10.163-81.685,42.81-93.476,48.841c-16.766,8.574-74.043-33.093-90.33-41.447c-36.387-18.666-30.689-23.683-34.432-65.521  c-2.09-23.358-4.18-46.716-6.27-70.074C318.032,396.099,320.896,383.357,316.917,388.14z"/>
<path fill="none" stroke="#000000" stroke-width="2" stroke-linecap="square" stroke-miterlimit="10" d="M316.917,388.14  c29.453-17.844,58.906-35.688,88.359-53.533c25.884-15.682,54.652,8.364,81.146,19.603c31.647,13.426,56.995,11.677,56.995,46.606  c0,43.442,0,86.886,0,130.329c0,14.02-68.106,38.827-81.017,45.43c-29.688,15.184-56.071-11.108-84.569-25.728  c-36.576-18.764-47.379-15.926-50.918-55.488c-3.332-37.239-6.664-74.479-9.996-111.72"/>
<path fill="none" stroke="#000000" stroke-width="2" stroke-linecap="square" stroke-miterlimit="10" d="M319.917,383.64  c29.109,13.302,81.938,52.241,113.25,51.75c30.882-0.484,81.139-39.458,109.5-53.25"/>
<line fill="none" stroke="#000000" stroke-width="2" stroke-linecap="square" stroke-miterlimit="10" x1="433.167" y1="435.39" x2="445.167" y2="585.39"/>
<path fill-rule="evenodd" clip-rule="evenodd" fill="#402B13" stroke="#000000" stroke-width="2" stroke-linecap="square" stroke-miterlimit="10" d="  M407.667,375.39c-12.879-3.968-21.984,0.617-22.5,14.25c30.75-0.75,61.5-1.5,92.25-2.25  C467.915,363.196,428.425,374.871,407.667,375.39z"/>
<path fill-rule="evenodd" clip-rule="evenodd" fill="#E1EEEF" stroke="#000000" stroke-width="2" stroke-linecap="square" stroke-miterlimit="10" d="  M376.917,319.89c11.177,16.965,25.284,52.845,41.998,63.75c26.151,17.062,45.189-5.897,64.308-23.278  c6.285-5.714-33.435-58.433-39.223-67.5C436.574,281.229,389.309,313.622,376.917,319.89z"/>
<line fill="none" stroke="#000000" stroke-width="2" stroke-linecap="square" stroke-miterlimit="10" x1="442.167" y1="317.64" x2="430.165" y2="365.64"/>
<line fill="none" stroke="#000000" stroke-width="2" stroke-linecap="square" stroke-miterlimit="10" x1="412.167" y1="331.14" x2="459.417" y2="347.64"/>
<path fill-rule="evenodd" clip-rule="evenodd" fill="#890C08" stroke="#000000" stroke-width="2" stroke-linecap="square" stroke-miterlimit="10" d="  M279.417,277.89c24.14-27.037,50.586-27.384,69.75,7.5c2.775-4.367,8.169-7.407,10.5-12c2.5,12.75,5,25.5,7.5,38.25  c-12.5,2-25,4-37.5,6C363.099,287.633,298.241,274.959,279.417,277.89z"/>
</svg>