<svg xmlns="http://www.w3.org/2000/svg" xmlns:xlink="http://www.w3.org/1999/xlink" version="1.1" id="Layer_1" x="0px" y="0px" enable-background="new 0 0 822.05 841.89" xml:space="preserve" viewBox="308.49 252.45 204.18 338.32">
<path fill-rule="evenodd" clip-rule="evenodd" fill="#4D4D4D" d="M367.765,270.14c18.754,4.629,31.214,24.308,43.125,5.25  c14.538-23.261,34.222,11.715,41.542,23.306c33.396,52.879,66.146,120.274,39.083,182.944c-1.25-2.5-2.5-5-3.75-7.5  c1.186,26.075,14.964,79.99-9.75,99c-1.25-2.25-2.5-4.5-3.75-6.75c-0.25,4.5-0.5,9-0.75,13.5  c-23.875-2.266-28.462-23.16-41.25-38.25c-24.063-28.394-47.126-49.879-58.875-85.125c-12.664-37.993-38.625-73.663-38.625-115.125  C334.765,318.705,341.127,274.965,367.765,270.14z"/>
<path fill="none" stroke="#000000" stroke-width="2" stroke-linecap="square" stroke-miterlimit="10" d="M367.765,270.14  c18.754,4.629,31.214,24.308,43.125,5.25c14.538-23.261,34.222,11.715,41.542,23.306c33.396,52.879,66.146,120.274,39.083,182.944  c-1.25-2.5-2.5-5-3.75-7.5c1.186,26.075,14.964,79.99-9.75,99c-1.25-2.25-2.5-4.5-3.75-6.75c-0.25,4.5-0.5,9-0.75,13.5  c-23.875-2.266-28.462-23.16-41.25-38.25c-24.063-28.394-47.126-49.879-58.875-85.125c-12.664-37.993-38.625-73.663-38.625-115.125  c0-20.697,5.792-65.949,30.75-69.75"/>
<path fill="none" stroke="#000000" stroke-width="2" stroke-linecap="square" stroke-miterlimit="10" d="M398.515,285.14  c0.404,16.217,18.891,97.774,45.75,76.5c3.583,14.995,24.069,39.208,30.75,59.25c6.36,19.08,3.991,40.377,11.25,57.75"/>
<path fill="none" stroke="#000000" stroke-width="2" stroke-linecap="square" stroke-miterlimit="10" d="M336.265,323.39  c15.214,26.438,26.25,24.083,26.25,54.375c0,33.763,19.355,67.046,15.75,100.125"/>
<path fill="none" stroke="#000000" stroke-width="2" stroke-linecap="square" stroke-miterlimit="10" d="M373.015,445.64  c12.416,20.945,32.351,55.757,59.25,58.5"/>
<path fill-rule="evenodd" clip-rule="evenodd" fill="#402B13" d="M376.765,513.14c-4.344,2.471-8.108,6.588-12,9.75  c6.031-0.764,12.638,3.142,18.75,3c-4.882,14.966-3.972,27.913-2.25,43.125c3.07,27.118,10.462,19.875,36.971,19.875  c4.452,0,3.192-37.322,5.001-46.361c2.928-14.627,30.063-14.724,41.278-15.139c4.626-0.171,47.348-5.709,48-7.5  c2.162-5.932-18.977-16.509-22.667-16.444C453.69,504.08,411.102,502.524,376.765,513.14z"/>
<path fill="none" stroke="#000000" stroke-width="2" stroke-linecap="square" stroke-miterlimit="10" d="M376.765,513.14  c-4.344,2.471-8.108,6.588-12,9.75c6.031-0.764,12.638,3.142,18.75,3c-4.882,14.966-3.972,27.913-2.25,43.125  c3.07,27.118,10.462,19.875,36.971,19.875c4.452,0,3.192-37.322,5.001-46.361c2.928-14.627,30.063-14.724,41.278-15.139  c23.991-0.889,70.934-12.725,28.5-24c-32.206-8.559-81.938,4.875-114,8.25"/>
<path fill-rule="evenodd" clip-rule="evenodd" fill="#9B6188" stroke="#000000" stroke-width="2" stroke-linecap="square" stroke-miterlimit="10" d="  M321.265,266.39c24.671-34.616,62.139,10.67,30.75,15c11.532,4.913,10.121,21.472-0.75,29.625  C328.183,328.327,328.782,290.428,321.265,266.39z"/>
<path fill-rule="evenodd" clip-rule="evenodd" fill="#4D4D4D" stroke="#000000" stroke-width="2" stroke-linecap="square" stroke-miterlimit="10" d="  M338.515,266.39c5.056-1.975,6.173-7.11,14.25-2.25C347.985,270.781,344.995,266.999,338.515,266.39z"/>
<path fill-rule="evenodd" clip-rule="evenodd" fill="#4D4D4D" stroke="#000000" stroke-width="2" stroke-linecap="square" stroke-miterlimit="10" d="  M318.265,267.89c-5.673,5.868-10.379,8.575-8.25,18c9.297-7.729,10.617-7.826,20.25-0.75  C328.592,276.526,324.029,273.374,318.265,267.89z"/>
<path fill-rule="evenodd" clip-rule="evenodd" fill="#9B6188" stroke="#000000" stroke-width="2" stroke-linecap="square" stroke-miterlimit="10" d="  M399.265,478.64c18.052,0.41,7.843,17.071,20.998,26.25c-1.5,1-3,2-4.5,3c-1.999-2-3.999-4-5.998-6  c-10.074,8.419-20.122,7.093-33,11.25c8.516-8.781,5.998-8.441,18.75-11.25c-8.915-0.224-17.381-1.167-26.25-0.75  C380.923,489.572,400.719,502.321,399.265,478.64z"/>
<path fill-rule="evenodd" clip-rule="evenodd" fill="#9B6188" stroke="#000000" stroke-width="2" stroke-linecap="square" stroke-miterlimit="10" d="  M439.015,480.89c3.043,5.96,2.146,23.492,16.5,26.25c-13.35,0.852-18.801,12.545-17.25,25.5c-8.494-7.354-9.425-7.245-16.502-12  c3.501-2.5,7.001-5,10.502-7.5c-3-1.5-6-3-9-4.5C440.989,509.215,436.901,496.108,439.015,480.89z"/>
</svg>