<svg xmlns="http://www.w3.org/2000/svg" xmlns:xlink="http://www.w3.org/1999/xlink" version="1.1" id="Layer_1" x="0px" y="0px" enable-background="new 0 0 822.05 841.89" xml:space="preserve" viewBox="353.9 341.29 112.9 164.22">
<path fill-rule="evenodd" clip-rule="evenodd" stroke="#000000" stroke-width="1.25" stroke-linecap="square" stroke-miterlimit="10" d="  M420.421,494.765C466.875,476.638,418.29,524.792,420.421,494.765L420.421,494.765z"/>
<path fill-rule="evenodd" clip-rule="evenodd" stroke="#000000" stroke-width="1.25" stroke-linecap="square" stroke-miterlimit="10" d="  M391.171,463.265c11.241-17.933,37.34-51.804,12-12c-11.116,17.461-23.557,26.555-45,23.25  C369.171,470.765,380.171,467.015,391.171,463.265z"/>
<path fill-rule="evenodd" clip-rule="evenodd" stroke="#000000" stroke-width="1.25" stroke-linecap="square" stroke-miterlimit="10" d="  M360.421,475.265C389.692,509.395,337.779,481.956,360.421,475.265L360.421,475.265z"/>
<path fill-rule="evenodd" clip-rule="evenodd" stroke="#000000" stroke-width="1.25" stroke-linecap="square" stroke-miterlimit="10" d="  M428.671,457.265c-2.353,13.196-3.498,30.549-9.75,38.25c1.996-16.301,9.954-36.01-3.75-48.75  C421.985,448.007,423.738,451.867,428.671,457.265z"/>
<path fill-rule="evenodd" clip-rule="evenodd" fill="#392170" stroke="#000000" stroke-width="1.25" stroke-linecap="square" stroke-miterlimit="10" d="  M423.421,425.765c-6.69-0.371-25.346-5.575-30-2.25c-14.657,10.472-6.524,38.72,9.75,42c0.632-6.748,5.272-13.505,5.25-20.25  c1.281,5.581,6.364,10.312,8.25,15.75C435.449,453.695,430.568,440.459,423.421,425.765z"/>
<path fill-rule="evenodd" clip-rule="evenodd" stroke="#000000" stroke-width="1.25" stroke-linecap="square" stroke-miterlimit="10" d="  M421.171,380.015c4.981,13.666,7.53,23.953,15.75,30.75c5.277,4.364,17.606,3.205,23.25,7.5c-8.258-3.136-26.541-1.198-31.5-5.25  C424.098,409.278,408.484,375.16,421.171,380.015z"/>
<path fill-rule="evenodd" clip-rule="evenodd" stroke="#000000" stroke-width="1.25" stroke-linecap="square" stroke-miterlimit="10" d="  M466.171,416.015c-6.076,0.394-11.164,3.121-15.75-3.75C457.623,409.95,460.726,413.966,466.171,416.015z"/>
<path fill-rule="evenodd" clip-rule="evenodd" fill="#137827" stroke="#000000" stroke-width="1.25" stroke-linecap="square" stroke-miterlimit="10" d="  M429.421,392.765C414.019,334.412,399.041,422.309,429.421,392.765L429.421,392.765z"/>
<path fill-rule="evenodd" clip-rule="evenodd" fill="#137827" stroke="#000000" stroke-width="1.25" stroke-linecap="square" stroke-miterlimit="10" d="  M412.171,422.015c24.515,4.298,11.759-48-4.125-48C387.08,374.015,384.021,426.889,412.171,422.015z"/>
<path fill-rule="evenodd" clip-rule="evenodd" stroke="#000000" stroke-width="1.25" stroke-linecap="square" stroke-miterlimit="10" d="  M402.421,381.515c-11.614,8.355-21.232,12.838-26.25,23.25c-2.848,5.908,1.335,18.04-1.5,24c1.021-8.571-5.278-27.456-3-32.25  C373.96,391.698,404.754,368.205,402.421,381.515z"/>
<path fill-rule="evenodd" clip-rule="evenodd" stroke="#000000" stroke-width="1.25" stroke-linecap="square" stroke-miterlimit="10" d="  M377.671,440.015c-1.965-5.765-5.793-8.843-1.5-16.5C381.635,429.505,378.482,434.141,377.671,440.015z"/>
<path fill-rule="evenodd" clip-rule="evenodd" fill="#137827" stroke="#000000" stroke-width="1.25" stroke-linecap="square" stroke-miterlimit="10" d="  M389.671,395.015c8.63-1.765,21.894-8.895,19.5-18.75C407.609,369.837,376.242,378.39,389.671,395.015z"/>
<path fill="none" stroke="#000000" stroke-width="1.25" stroke-linecap="square" stroke-miterlimit="10" d="M394.171,430.265  c0.663,8.244,5.898,13.575,14.25,15"/>
<path fill-rule="evenodd" clip-rule="evenodd" fill="#EED5B6" stroke="#000000" stroke-width="1.25" stroke-linecap="square" stroke-miterlimit="10" d="  M399.421,351.515c-5.913,19.589,17.594,31.048,24,8.625C428.761,341.452,407.937,334.726,399.421,351.515z"/>
<path fill-rule="evenodd" clip-rule="evenodd" fill="#137827" stroke="#000000" stroke-width="1.25" stroke-linecap="square" stroke-miterlimit="10" d="  M393.421,421.265c6.243,0.359,12.502,0.5,18.75,0.75C406.264,420.536,396.399,421.289,393.421,421.265z"/>
</svg>