<svg xmlns="http://www.w3.org/2000/svg" xmlns:xlink="http://www.w3.org/1999/xlink" version="1.1" id="Layer_1" x="0px" y="0px" enable-background="new 0 0 822.05 841.89" xml:space="preserve" viewBox="222.67 259.96 375.42 320.43">
<path fill-rule="evenodd" clip-rule="evenodd" fill="#5A4130" stroke="#000000" stroke-width="2" stroke-linecap="square" stroke-miterlimit="10" d="  M224.764,275.64c53.597-23.642,132.145-11.996,189-10.5c-1.039,32.735-2.079,65.471-3.118,98.206  c-0.449,14.136-0.897,28.271-1.346,42.407c-0.047,1.472-32.245,6.188-35.138,3.598C324.362,364.781,274.563,320.21,224.764,275.64z"/>
<path fill="none" stroke="#000000" stroke-width="2" stroke-linecap="square" stroke-miterlimit="10" d="M233.014,279.39  c23.266-2.214,186.934-22.159,180.75,8.25c-49.138-5.948-100.327-6.076-149.25,1.5c40.948,21.154,104.438,11.403,149.25,13.5  c2.272,16.819-7.604,21.835-23.25,16.5"/>
<path fill-rule="evenodd" clip-rule="evenodd" fill="#8A644A" stroke="#000000" stroke-width="2" stroke-linecap="square" stroke-miterlimit="10" d="  M227.014,277.89c0.122,22.633-11.279,135.808,7.352,141.526c51.035,15.664,102.815,34.721,155.398,44.474  c0.284-28.97,16.014-151.738-11.278-154.111C327.329,305.331,274.854,296.972,227.014,277.89z"/>
<path fill-rule="evenodd" clip-rule="evenodd" fill="#FFFFD9" stroke="#000000" stroke-width="2" stroke-linecap="square" stroke-miterlimit="10" d="  M377.014,439.14c-7.209,8.431-42.459,9.202-39-8.25C341.401,413.798,373.433,428.373,377.014,439.14z"/>
<path fill-rule="evenodd" clip-rule="evenodd" fill="#5A4130" stroke="#000000" stroke-width="2" stroke-linecap="square" stroke-miterlimit="10" d="  M407.764,319.14c52.511-25.017,132.76-12.73,189-11.25c-1.039,32.735-2.078,65.471-3.117,98.206  c-0.449,14.136-0.898,28.271-1.347,42.407c-0.047,1.473-32.234,6.185-35.138,3.601C507.362,407.783,457.562,363.461,407.764,319.14z  "/>
<path fill="none" stroke="#000000" stroke-width="2" stroke-linecap="square" stroke-miterlimit="10" d="M416.014,322.14  c23.373-2.225,187.029-22.425,180.75,9c-48.117-5.044-101.693-9.684-149.25,1.5c42.553,19.454,103.476,11.091,149.25,13.5  c2.272,16.819-7.604,21.835-23.25,16.5"/>
<path fill-rule="evenodd" clip-rule="evenodd" fill="#8A644A" stroke="#000000" stroke-width="2" stroke-linecap="square" stroke-miterlimit="10" d="  M410.014,320.64c0.121,22.596-11.178,136.707,7.352,142.211c51.68,15.351,103.333,30.557,155.398,44.539  c0.283-29.04,16.031-152.486-11.277-154.861C510.329,348.081,457.854,339.722,410.014,320.64z"/>
<path fill-rule="evenodd" clip-rule="evenodd" fill="#FFFFD9" stroke="#000000" stroke-width="2" stroke-linecap="square" stroke-miterlimit="10" d="  M560.014,482.64c-7.697,8.306-42.547,8.119-39-9C524.615,456.255,556.754,471.72,560.014,482.64z"/>
<path fill-rule="evenodd" clip-rule="evenodd" fill="#5A4130" stroke="#000000" stroke-width="2" stroke-linecap="square" stroke-miterlimit="10" d="  M290.764,391.14c52.511-25.017,132.76-12.73,189-11.25c-1.039,32.735-2.078,65.471-3.117,98.206  c-0.449,14.136-0.898,28.271-1.347,42.407c-0.047,1.473-32.234,6.185-35.138,3.601C390.362,479.783,340.563,435.461,290.764,391.14z  "/>
<path fill="none" stroke="#000000" stroke-width="2" stroke-linecap="square" stroke-miterlimit="10" d="M299.014,394.14  c23.373-2.225,187.029-22.425,180.75,9c-48.117-5.044-101.693-9.684-149.25,1.5c42.553,19.453,103.476,11.091,149.25,13.5  c2.272,16.819-7.604,21.835-23.25,16.5"/>
<path fill-rule="evenodd" clip-rule="evenodd" fill="#8A644A" stroke="#000000" stroke-width="2" stroke-linecap="square" stroke-miterlimit="10" d="  M293.014,392.64c0.121,22.596-11.178,136.707,7.352,142.211c51.68,15.351,103.333,30.557,155.398,44.539  c0.283-29.04,16.031-152.486-11.277-154.861C393.329,420.081,340.854,411.722,293.014,392.64z"/>
<path fill-rule="evenodd" clip-rule="evenodd" fill="#FFFFD9" stroke="#000000" stroke-width="2" stroke-linecap="square" stroke-miterlimit="10" d="  M443.014,554.64c-7.697,8.306-42.546,8.119-39-9C407.615,528.255,439.754,543.72,443.014,554.64z"/>
</svg>