<?xml version="1.0" encoding="UTF-8" standalone="no"?>
<!DOCTYPE svg PUBLIC "-//W3C//DTD SVG 1.1//EN" "http://www.w3.org/Graphics/SVG/1.1/DTD/svg11.dtd">
<svg width="100%" height="100%" viewBox="0 0 202 147" version="1.1" xmlns="http://www.w3.org/2000/svg" xmlns:xlink="http://www.w3.org/1999/xlink" xml:space="preserve" xmlns:serif="http://www.serif.com/" style="fill-rule:evenodd;clip-rule:evenodd;stroke-linecap:square;stroke-miterlimit:10;">
    <g transform="matrix(1,0,0,1,-307,-349.14)">
        <path d="M416.375,472.767L450.875,472.767C445.902,432.986 458.06,425.333 466.25,469.017C472.49,502.298 411.99,495.554 416.375,472.767Z" style="fill:rgb(21,120,42);stroke:black;stroke-width:1.25px;"/>
    </g>
    <g transform="matrix(1,0,0,1,-307,-349.14)">
        <path d="M417.125,474.267C415.911,471.24 414.752,467.834 414.875,465.267C429.746,470.881 440.607,483.136 420.125,487.767C394.944,493.46 394.96,467.342 417.125,474.267Z" style="fill:rgb(238,214,182);stroke:black;stroke-width:1.25px;"/>
    </g>
    <g transform="matrix(1,0,0,1,-307,-349.14)">
        <path d="M489.875,439.017C482.9,434.818 478.014,436.886 474.875,428.517C472.229,428.744 450.216,433.379 452.68,443.236C462.737,483.468 502.68,459.809 489.875,439.017Z" style="fill:rgb(238,214,182);stroke:black;stroke-width:1.25px;"/>
    </g>
    <g transform="matrix(1,0,0,1,-307,-349.14)">
        <path d="M453.125,436.017C465.519,460.286 482.133,431.147 497.375,439.017C480.922,443.705 489.328,460.629 492.125,475.767L457.625,475.767C459.041,480.319 456.895,486.259 458.375,490.767C454.299,491.794 446.681,491.853 442.625,490.767C444.174,473.354 445.338,451.238 453.125,436.017Z" style="fill:rgb(21,120,42);stroke:black;stroke-width:1.25px;"/>
    </g>
    <g transform="matrix(1,0,0,1,-307,-349.14)">
        <path d="M457.625,475.767L492.125,475.767C484.632,435.213 499.011,429.946 507.5,472.392C514.196,505.874 453.163,498.868 457.625,475.767Z" style="fill:rgb(21,120,42);stroke:black;stroke-width:1.25px;"/>
    </g>
    <g transform="matrix(1,0,0,1,-307,-349.14)">
        <path d="M449.375,477.267C448.31,474.093 447.323,471.56 447.125,468.267C461.058,474.414 473.788,487.212 452.375,490.767C427.557,494.887 427.288,471.218 449.375,477.267Z" style="fill:rgb(238,214,182);stroke:black;stroke-width:1.25px;"/>
    </g>
    <g transform="matrix(1,0,0,1,-307,-349.14)">
        <path d="M452.375,417.269C445.104,420.184 447.236,419.329 452.375,417.269Z" style="fill:rgb(238,214,182);stroke:black;stroke-width:1.25px;"/>
    </g>
    <g transform="matrix(1,0,0,1,-307,-349.14)">
        <path d="M487.625,422.519C482.877,420.241 481.011,419.345 487.625,422.519Z" style="fill:rgb(238,214,182);stroke:black;stroke-width:1.25px;"/>
    </g>
    <g transform="matrix(1,0,0,1,-307,-349.14)">
        <path d="M450.125,403.769C444.648,428.313 474.564,453.439 485,422.143C494.653,393.191 460.723,373.55 450.125,403.769Z" style="fill:rgb(238,214,182);stroke:black;stroke-width:1.25px;"/>
    </g>
    <g transform="matrix(1,0,0,1,-307,-349.14)">
        <path d="M309.875,474.267C317.878,474.267 351.316,479.326 356.375,474.267C358.561,472.081 358.561,429.953 356.375,427.767C354.189,425.581 312.061,425.581 309.875,427.767C304.816,432.826 309.875,466.264 309.875,474.267Z" style="fill:rgb(241,236,20);stroke:black;stroke-width:1.25px;"/>
    </g>
    <g transform="matrix(1,0,0,1,-307,-349.14)">
        <path d="M393.875,349.769C424.705,349.78 458.059,388.575 417.125,402.269C425.313,407.629 428.427,410.399 438.875,410.519C418.801,414.97 376.96,410.485 361.25,397.019C333.927,373.599 369.653,349.748 393.875,349.769Z" style="fill:white;stroke:black;stroke-width:1.25px;"/>
    </g>
    <g transform="matrix(0.592865,0,0,0.672835,-198.123,-236.363)">
        <path d="M483.375,388.015C478.774,375.443 464.406,369.699 456.375,382.765C449.131,394.551 476.121,419.109 481.125,426.265C487.88,418.59 518.177,399.343 510.375,385.015C503.678,372.715 488.023,377.241 483.375,388.015Z" style="fill:rgb(208,20,36);stroke:black;stroke-width:1.25px;"/>
    </g>
    <g transform="matrix(1,0,0,1,-307,-349.14)">
        <path d="M475.625,420.269C468.813,428.251 466.396,433.443 460.625,419.519C465.519,419.764 470.831,419.319 475.625,420.269Z"/>
    </g>
    <g transform="matrix(1,0,0,1,-307,-349.14)">
        <path d="M405.125,445.767C400.103,445.767 353.461,442.046 363.875,454.017C373.005,464.512 403.276,441.373 405.125,460.767C413.375,457.017 421.625,453.267 429.875,449.517C421.625,446.017 413.375,442.517 405.125,439.017L405.125,445.767Z"/>
    </g>
</svg>
