<svg xmlns="http://www.w3.org/2000/svg" xmlns:xlink="http://www.w3.org/1999/xlink" version="1.1" id="Layer_1" x="0px" y="0px" enable-background="new 0 0 822.05 841.89" xml:space="preserve" viewBox="216.12 249.68 390.36 341.31">
<path fill-rule="evenodd" clip-rule="evenodd" fill="#86888B" stroke="#000000" stroke-width="2" stroke-linecap="square" stroke-miterlimit="10" d="  M545.316,324.14c30.571,5.992,92.187,54.407,39.75,80.625c-55.543,27.771-115.854-37.531-159.75-65.625  c7.921-6.253,35.446-35.523,44.549-33.313C495.016,311.931,520.166,318.036,545.316,324.14z"/>
<path fill-rule="evenodd" clip-rule="evenodd" fill="#86888B" d="M507.066,329.39c18.889,4.242,94.32,29.616,67.125,62.25  C533.348,440.652,518.742,360.04,507.066,329.39z"/>
<path fill="none" stroke="#000000" stroke-width="2" stroke-linecap="square" stroke-miterlimit="10" d="M507.066,329.39  c23.006,5.166,69.111,19.005,72.375,48.375c2.286,20.575-26.694,29.935-42.375,30.375"/>
<path fill-rule="evenodd" clip-rule="evenodd" fill="#BCBEC0" stroke="#000000" stroke-width="2" stroke-linecap="square" stroke-miterlimit="10" d="  M297.064,302.39c-44.404,21.808-26.532,57.387,7.16,73.912c45.581,22.356,91.162,44.712,136.744,67.069  c15.724,7.712,34.401,10.086,51.099,4.52c35.01-11.67,75.625-62.567,23.024-81.224C450.805,343.864,367.91,294.184,297.064,302.39z"/>
<path fill="none" stroke="#000000" stroke-width="2" stroke-linecap="square" stroke-miterlimit="10" d="M289.564,305.39  c64.637,22.209,141.865,36.633,200.252,73.125c43.525,27.203-1.191,70.484-37.5,69.375"/>
<path fill-rule="evenodd" clip-rule="evenodd" fill="#BCBEC0" stroke="#000000" stroke-width="2" stroke-linecap="square" stroke-miterlimit="10" d="  M350.314,307.64c39.941,14.661,83.552,34.939,127.502,30c43.703-4.912,25.329-39.195,0-62.25  C435.459,236.836,354.711,240.371,350.314,307.64z"/>
<path fill-rule="evenodd" clip-rule="evenodd" fill="#BCBEC0" stroke="#000000" stroke-width="2" stroke-linecap="square" stroke-miterlimit="10" d="  M459.066,296.39c-14.625,21.69,92.957,52.146,114,41.625c12.182-6.091,8.036-27.173-4.898-28.705  C531.801,305.003,495.434,300.697,459.066,296.39z"/>
<path fill-rule="evenodd" clip-rule="evenodd" fill="#BCBEC0" d="M573.066,309.89c-17.271-3.308-21.21,15.202-19.5,29.25  C560.066,329.39,566.566,319.64,573.066,309.89z"/>
<path fill="none" stroke="#000000" stroke-width="2" stroke-linecap="square" stroke-miterlimit="10" d="M573.066,309.89  c-17.271-3.308-21.21,15.202-19.5,29.25"/>
<path fill="none" stroke="#000000" stroke-width="2" stroke-linecap="square" stroke-miterlimit="10" d="M308.314,311.39  c21.047-2.476,40.428-8.457,59.25,4.5c-9.5,1.5-19,3-28.5,4.5"/>
<path fill="none" stroke="#000000" stroke-width="2" stroke-linecap="square" stroke-miterlimit="10" d="M499.566,404.39  c-0.894,24.409-39.75,26.367-39.75,1.875C459.816,379.492,498.861,377.027,499.566,404.39z"/>
<path fill="none" stroke="#000000" stroke-width="2" stroke-linecap="square" stroke-miterlimit="10" d="M458.316,414.14  c-1.362,28.398-45.34,24.199-40.125-1.875C422.935,388.55,457.087,389.395,458.316,414.14z"/>
<path fill="none" stroke="#000000" stroke-width="2" stroke-linecap="square" stroke-miterlimit="10" d="M418.566,400.64  c-2.19,22.365-35.756,23.577-36.002,0C382.316,376.787,416.653,377.871,418.566,400.64z"/>
<path fill="none" stroke="#000000" stroke-width="2" stroke-linecap="square" stroke-miterlimit="10" d="M384.064,384.89  c-3.258,21.969-37.673,19.617-33.375-1.875C354.876,362.081,381.875,364.457,384.064,384.89z"/>
<path fill="none" stroke="#000000" stroke-width="2" stroke-linecap="square" stroke-miterlimit="10" d="M349.564,369.89  c-2.886,19.244-30.686,20.483-30.75,0C318.752,350.109,346.329,351.937,349.564,369.89z"/>
<path fill="none" stroke="#000000" stroke-width="2" stroke-linecap="square" stroke-miterlimit="10" d="M318.814,357.14  c-2.58,17.31-27.148,19.077-27,0C291.962,338.054,316.825,339.169,318.814,357.14z"/>
<path fill="none" stroke="#000000" stroke-width="2" stroke-linecap="square" stroke-miterlimit="10" d="M307.564,328.64  c-2.374,22.947-35.365,19.327-31.125-1.875C280.569,306.118,306.119,307.942,307.564,328.64z"/>
<line fill="none" stroke="#000000" stroke-width="2" stroke-linecap="square" stroke-miterlimit="10" x1="360.064" y1="330.89" x2="388.564" y2="322.64"/>
<line fill="none" stroke="#000000" stroke-width="2" stroke-linecap="square" stroke-miterlimit="10" x1="380.314" y1="336.14" x2="408.816" y2="328.64"/>
<line fill="none" stroke="#000000" stroke-width="2" stroke-linecap="square" stroke-miterlimit="10" x1="401.314" y1="343.64" x2="429.816" y2="336.14"/>
<line fill="none" stroke="#000000" stroke-width="2" stroke-linecap="square" stroke-miterlimit="10" x1="422.316" y1="351.14" x2="450.816" y2="342.89"/>
<line fill="none" stroke="#000000" stroke-width="2" stroke-linecap="square" stroke-miterlimit="10" x1="444.066" y1="358.64" x2="472.566" y2="350.39"/>
<line fill="none" stroke="#000000" stroke-width="2" stroke-linecap="square" stroke-miterlimit="10" x1="462.816" y1="366.14" x2="491.316" y2="357.89"/>
<line fill="none" stroke="#000000" stroke-width="2" stroke-linecap="square" stroke-miterlimit="10" x1="484.566" y1="375.14" x2="513.066" y2="366.89"/>
<line fill="none" stroke="#000000" stroke-width="2" stroke-linecap="square" stroke-miterlimit="10" x1="501.816" y1="390.14" x2="534.066" y2="379.64"/>
<line fill="none" stroke="#000000" stroke-width="2" stroke-linecap="square" stroke-miterlimit="10" x1="510.816" y1="404.39" x2="539.316" y2="396.89"/>
<line fill="none" stroke="#000000" stroke-width="2" stroke-linecap="square" stroke-miterlimit="10" x1="505.566" y1="421.64" x2="536.316" y2="413.39"/>
<line fill="none" stroke="#000000" stroke-width="2" stroke-linecap="square" stroke-miterlimit="10" x1="576.816" y1="388.64" x2="603.066" y2="381.14"/>
<line fill="none" stroke="#000000" stroke-width="2" stroke-linecap="square" stroke-miterlimit="10" x1="576.816" y1="375.89" x2="603.066" y2="368.39"/>
<line fill="none" stroke="#000000" stroke-width="2" stroke-linecap="square" stroke-miterlimit="10" x1="571.566" y1="361.64" x2="597.066" y2="354.14"/>
<line fill="none" stroke="#000000" stroke-width="2" stroke-linecap="square" stroke-miterlimit="10" x1="564.066" y1="351.14" x2="589.566" y2="344.39"/>
<line fill="none" stroke="#000000" stroke-width="2" stroke-linecap="square" stroke-miterlimit="10" x1="563.316" y1="402.14" x2="594.816" y2="395.39"/>
<line fill="none" stroke="#000000" stroke-width="2" stroke-linecap="square" stroke-miterlimit="10" x1="492.066" y1="437.39" x2="520.566" y2="429.14"/>
<path fill-rule="evenodd" clip-rule="evenodd" fill="#E4BE9D" stroke="#000000" stroke-width="2" stroke-linecap="square" stroke-miterlimit="10" d="  M296.314,405.14c15.813-8.484,16.456,13.834-3,14.25C294.314,414.64,295.314,409.89,296.314,405.14z"/>
<path fill-rule="evenodd" clip-rule="evenodd" fill="#6D6F71" stroke="#000000" stroke-width="2" stroke-linecap="square" stroke-miterlimit="10" d="  M234.064,431.39c-5.25,7.5-10.5,15-15.75,22.5c18.594,8.941,107.079-115.339,108.75-138.75  C292.571,352.508,263.551,389.925,234.064,431.39z"/>
<path fill-rule="evenodd" clip-rule="evenodd" fill="#007647" stroke="#000000" stroke-width="2" stroke-linecap="square" stroke-miterlimit="10" d="  M232.564,454.64c27.807,19.829,29.36,26.572,47.25-4.5c3.808,14.853,2.681,10.134,13.5,12.75  c-24.358-30.642,16.378-63.927-1.5-95.25C254.039,371.369,244.201,425.986,232.564,454.64z"/>
<path fill="none" stroke="#000000" stroke-width="2" stroke-linecap="square" stroke-miterlimit="10" d="M253.564,409.64  c6.355,3.746,11.207-0.789,15.75,7.5C297.628,382.971,280.408,364.007,253.564,409.64z"/>
<path fill-rule="evenodd" clip-rule="evenodd" fill="#E4BE9D" stroke="#000000" stroke-width="2" stroke-linecap="square" stroke-miterlimit="10" d="  M253.564,409.64c8.169,3.46,18.231-0.473,12,9.75c18.362-0.459,61.431-11.02,26.25,5.25  C274.562,432.619,241.202,436.028,253.564,409.64z"/>
<path fill-rule="evenodd" clip-rule="evenodd" fill="#007647" stroke="#000000" stroke-width="2" stroke-linecap="square" stroke-miterlimit="10" d="  M293.314,365.39c11.786-6.234,25.397-5.967,38.25-3.75C321.103,338.881,287.927,328.296,293.314,365.39z"/>
<path fill-rule="evenodd" clip-rule="evenodd" fill="#E4BE9D" stroke="#000000" stroke-width="2" stroke-linecap="square" stroke-miterlimit="10" d="  M300.064,363.89c1.275,8.071,3.572,14.239,10.5,18c6.08-6.482,9.507-10.91,13.5-19.5  C315.859,360.049,307.955,360.861,300.064,363.89z"/>
<path fill-rule="evenodd" clip-rule="evenodd" fill="#E4BE9D" stroke="#000000" stroke-width="2" stroke-linecap="square" stroke-miterlimit="10" d="  M304.564,380.39c-11.855-1.833-18.85-10.349-4.5-16.5C301.491,369.12,304.341,375.007,304.564,380.39z"/>
<path fill-rule="evenodd" clip-rule="evenodd" fill="#007647" stroke="#000000" stroke-width="2" stroke-linecap="square" stroke-miterlimit="10" d="  M241.564,462.89c-2.843,15.505-34.937,67.706-9.75,67.5C260.299,530.158,273.471,472.152,241.564,462.89z"/>
<path fill-rule="evenodd" clip-rule="evenodd" fill="#007647" stroke="#000000" stroke-width="2" stroke-linecap="square" stroke-miterlimit="10" d="  M265.564,474.89c3.818,8.983,30.037,79.647,36.056,42.027c2.801-17.506,5.697-25.198-1.931-40.902  c-7.976-16.42-16.392-7.495-19.875-25.875C275.064,458.39,270.314,466.64,265.564,474.89z"/>
<path fill-rule="evenodd" clip-rule="evenodd" fill="#6D6F71" d="M221.314,531.14c-9.698,15.635-1.767,28.103,15.375,33  c13.121,3.749-7.48-23.201-1.875-33.75C229.408,528.681,223.278,530.253,221.314,531.14z"/>
<path fill="none" stroke="#000000" stroke-width="2" stroke-linecap="square" stroke-miterlimit="10" d="M221.314,531.14  c-9.698,15.635-1.767,28.103,15.375,33c13.121,3.749-7.48-23.201-1.875-33.75c-4.5-0.5-9-1-13.5-1.5"/>
<path fill-rule="evenodd" clip-rule="evenodd" fill="#6D6F71" stroke="#000000" stroke-width="2" stroke-linecap="square" stroke-miterlimit="10" d="  M283.564,525.14c4.968-0.956,11.411,1.037,16.5,1.5c-10.007,27.676,51.188,29.25-21,29.25  C280.564,545.64,282.064,535.39,283.564,525.14z"/>
<path fill-rule="evenodd" clip-rule="evenodd" fill="#007647" stroke="#000000" stroke-width="2" stroke-linecap="square" stroke-miterlimit="10" d="  M282.064,369.14c-15.245-14.997-46.344-22.583-50.25,6c-3.475-2.45-8.751-3.558-12-6c-1.187,29.066-1.594,42.729,18,65.25  C251.147,407.726,260.37,389.339,282.064,369.14z"/>
<path fill="none" stroke="#000000" stroke-width="2" stroke-linecap="square" stroke-miterlimit="10" d="M276.064,375.14  c-15.889-9.364-30.527-9.818-35.25,10.5c-3-3.5-6-7-9-10.5"/>
<path fill-rule="evenodd" clip-rule="evenodd" fill="#E4BE9D" stroke="#000000" stroke-width="2" stroke-linecap="square" stroke-miterlimit="10" d="  M389.314,430.64c15.813-8.484,16.456,13.834-3,14.25C387.314,440.14,388.314,435.39,389.314,430.64z"/>
<path fill-rule="evenodd" clip-rule="evenodd" fill="#6D6F71" stroke="#000000" stroke-width="2" stroke-linecap="square" stroke-miterlimit="10" d="  M327.064,456.89c-5.25,7.5-10.5,15-15.75,22.5c18.594,8.941,107.081-115.339,108.752-138.75  C385.571,378.008,356.551,415.424,327.064,456.89z"/>
<path fill-rule="evenodd" clip-rule="evenodd" fill="#007647" stroke="#000000" stroke-width="2" stroke-linecap="square" stroke-miterlimit="10" d="  M325.564,480.14c27.807,19.829,29.36,26.572,47.25-4.5c3.808,14.853,2.681,10.134,13.5,12.75  c-24.358-30.642,16.378-63.927-1.5-95.25C347.039,396.869,337.201,451.486,325.564,480.14z"/>
<path fill="none" stroke="#000000" stroke-width="2" stroke-linecap="square" stroke-miterlimit="10" d="M346.564,435.14  c6.355,3.745,11.207-0.789,15.75,7.5C390.628,408.471,373.408,389.507,346.564,435.14z"/>
<path fill-rule="evenodd" clip-rule="evenodd" fill="#E4BE9D" stroke="#000000" stroke-width="2" stroke-linecap="square" stroke-miterlimit="10" d="  M346.564,435.14c8.169,3.46,18.231-0.473,12,9.75c18.362-0.459,61.431-11.02,26.25,5.25  C367.562,458.119,334.202,461.528,346.564,435.14z"/>
<path fill-rule="evenodd" clip-rule="evenodd" fill="#007647" stroke="#000000" stroke-width="2" stroke-linecap="square" stroke-miterlimit="10" d="  M386.314,390.89c11.787-6.235,25.398-5.967,38.252-3.75C414.104,364.379,380.927,353.796,386.314,390.89z"/>
<path fill-rule="evenodd" clip-rule="evenodd" fill="#E4BE9D" stroke="#000000" stroke-width="2" stroke-linecap="square" stroke-miterlimit="10" d="  M393.064,389.39c1.275,8.071,3.572,14.239,10.5,18c6.081-6.482,9.509-10.91,13.502-19.5  C408.861,385.549,400.956,386.361,393.064,389.39z"/>
<path fill-rule="evenodd" clip-rule="evenodd" fill="#E4BE9D" stroke="#000000" stroke-width="2" stroke-linecap="square" stroke-miterlimit="10" d="  M397.564,405.89c-11.855-1.833-18.85-10.349-4.5-16.5C394.491,394.62,397.341,400.507,397.564,405.89z"/>
<path fill-rule="evenodd" clip-rule="evenodd" fill="#007647" stroke="#000000" stroke-width="2" stroke-linecap="square" stroke-miterlimit="10" d="  M334.564,488.39c-2.843,15.505-34.937,67.706-9.75,67.5C353.299,555.658,366.471,497.652,334.564,488.39z"/>
<path fill-rule="evenodd" clip-rule="evenodd" fill="#007647" stroke="#000000" stroke-width="2" stroke-linecap="square" stroke-miterlimit="10" d="  M358.564,500.39c3.818,8.983,30.037,79.647,36.056,42.027c2.801-17.506,5.697-25.198-1.931-40.902  c-7.976-16.42-16.392-7.495-19.875-25.875C368.064,483.89,363.314,492.14,358.564,500.39z"/>
<path fill-rule="evenodd" clip-rule="evenodd" fill="#6D6F71" d="M314.314,556.64c-9.698,15.635-1.767,28.103,15.375,33  c13.121,3.749-7.48-23.201-1.875-33.75C322.408,554.181,316.278,555.753,314.314,556.64z"/>
<path fill="none" stroke="#000000" stroke-width="2" stroke-linecap="square" stroke-miterlimit="10" d="M314.314,556.64  c-9.698,15.635-1.767,28.103,15.375,33c13.121,3.749-7.48-23.201-1.875-33.75c-4.5-0.5-9-1-13.5-1.5"/>
<path fill-rule="evenodd" clip-rule="evenodd" fill="#6D6F71" stroke="#000000" stroke-width="2" stroke-linecap="square" stroke-miterlimit="10" d="  M376.564,550.64c4.968-0.956,11.411,1.037,16.5,1.5c-10.008,27.677,51.192,29.25-21,29.25  C373.564,571.14,375.064,560.89,376.564,550.64z"/>
<path fill-rule="evenodd" clip-rule="evenodd" fill="#007647" stroke="#000000" stroke-width="2" stroke-linecap="square" stroke-miterlimit="10" d="  M375.064,394.64c-15.245-14.997-46.344-22.583-50.25,6c-3.475-2.45-8.751-3.558-12-6c-1.187,29.066-1.594,42.729,18,65.25  C344.146,433.225,353.37,414.839,375.064,394.64z"/>
<path fill="none" stroke="#000000" stroke-width="2" stroke-linecap="square" stroke-miterlimit="10" d="M369.064,400.64  c-15.889-9.364-30.527-9.818-35.25,10.5c-3-3.5-6-7-9-10.5"/>
<path fill-rule="evenodd" clip-rule="evenodd" fill="#E4BE9D" stroke="#000000" stroke-width="2" stroke-linecap="square" stroke-miterlimit="10" d="  M501.066,423.14c15.188-8.201,15.506,14.463-3.75,15C498.511,433.363,498.898,427.531,501.066,423.14z"/>
<path fill-rule="evenodd" clip-rule="evenodd" fill="#6D6F71" stroke="#000000" stroke-width="2" stroke-linecap="square" stroke-miterlimit="10" d="  M438.066,450.14c-6.235,5.547-10.834,14.962-15.75,21.75c17.644,10.055,106.16-114.532,108.75-138  C497.08,371.333,467.688,409.127,438.066,450.14z"/>
<path fill-rule="evenodd" clip-rule="evenodd" fill="#007647" stroke="#000000" stroke-width="2" stroke-linecap="square" stroke-miterlimit="10" d="  M437.316,472.64c25.736,22.461,30.271,25.254,46.5-4.5c3.555,15.499,2.366,10.998,13.5,12.75c-23.252-31.629,17.789-64.651-1.5-94.5  C457.036,388.547,449.512,444.606,437.316,472.64z"/>
<path fill="none" stroke="#000000" stroke-width="2" stroke-linecap="square" stroke-miterlimit="10" d="M457.566,427.64  c5.838,3.657,11.283,0.712,15.75,7.5C502.463,403.597,485.671,381.268,457.566,427.64z"/>
<path fill-rule="evenodd" clip-rule="evenodd" fill="#E4BE9D" stroke="#000000" stroke-width="2" stroke-linecap="square" stroke-miterlimit="10" d="  M457.566,427.64c9.609,1.2,17.219,1.243,12,10.5c15.799-0.79,29.204,0.407,39-9.75C510.999,448.971,441.542,463.134,457.566,427.64z  "/>
<path fill-rule="evenodd" clip-rule="evenodd" fill="#007647" stroke="#000000" stroke-width="2" stroke-linecap="square" stroke-miterlimit="10" d="  M497.316,383.39c12.002-5.282,25.424-5.283,38.25-3.75C525.706,357.086,492.738,346.585,497.316,383.39z"/>
<path fill-rule="evenodd" clip-rule="evenodd" fill="#E4BE9D" stroke="#000000" stroke-width="2" stroke-linecap="square" stroke-miterlimit="10" d="  M504.816,382.64c2.779,25.861,16.206,11.295,24-1.5C520.215,378.312,512.502,379.462,504.816,382.64z"/>
<path fill-rule="evenodd" clip-rule="evenodd" fill="#E4BE9D" stroke="#000000" stroke-width="2" stroke-linecap="square" stroke-miterlimit="10" d="  M508.566,398.39c-11.139-3.072-19.639-9.976-3.75-15.75C506.01,387.653,508.47,393.267,508.566,398.39z"/>
<path fill-rule="evenodd" clip-rule="evenodd" fill="#007647" stroke="#000000" stroke-width="2" stroke-linecap="square" stroke-miterlimit="10" d="  M445.566,481.64c-1.229,9.771-33.503,85.057-5.277,64.194C462.852,529.158,480.562,492.753,445.566,481.64z"/>
<path fill-rule="evenodd" clip-rule="evenodd" fill="#007647" stroke="#000000" stroke-width="2" stroke-linecap="square" stroke-miterlimit="10" d="  M470.316,492.89c3.868,9.103,30.64,80.624,35.861,42.583c2.408-17.545,5.132-25.773-2.486-41.458  c-8.276-17.039-16.678-6.215-19.875-25.875C479.316,476.39,474.816,484.64,470.316,492.89z"/>
<path fill-rule="evenodd" clip-rule="evenodd" fill="#6D6F71" d="M426.066,549.89c-8.709,12.106-0.079,39.87,17.25,33  c9.207-3.65-11.613-20.921-4.5-34.5C433.51,546.953,427.918,549.071,426.066,549.89z"/>
<path fill="none" stroke="#000000" stroke-width="2" stroke-linecap="square" stroke-miterlimit="10" d="M426.066,549.89  c-8.709,12.106-0.079,39.87,17.25,33c9.207-3.65-11.613-20.921-4.5-34.5c-4.25-0.25-8.5-0.5-12.75-0.75"/>
<path fill-rule="evenodd" clip-rule="evenodd" fill="#6D6F71" stroke="#000000" stroke-width="2" stroke-linecap="square" stroke-miterlimit="10" d="  M488.316,543.89c4.968-0.956,11.411,1.037,16.5,1.5c-9.945,27.249,49.771,28.5-21.75,28.5  C484.816,563.89,486.566,553.89,488.316,543.89z"/>
<path fill-rule="evenodd" clip-rule="evenodd" fill="#007647" stroke="#000000" stroke-width="2" stroke-linecap="square" stroke-miterlimit="10" d="  M486.066,387.14c-15.463-15.395-46.253-21.673-50.25,6.75c-3.254-2.431-8.391-3.853-11.25-6c-1.8,29.398-2.636,42.291,18,64.5  C455.648,425.776,464.929,407.548,486.066,387.14z"/>
<path fill="none" stroke="#000000" stroke-width="2" stroke-linecap="square" stroke-miterlimit="10" d="M480.066,393.89  c-15.889-9.364-30.527-9.818-35.25,10.5c-3-3.5-6-7-9-10.5"/>
</svg>