<svg xmlns="http://www.w3.org/2000/svg" xmlns:xlink="http://www.w3.org/1999/xlink" version="1.1" id="Layer_1" x="0px" y="0px" enable-background="new 0 0 822.05 841.89" xml:space="preserve" viewBox="301.44 335.31 215.93 171.7">
<path fill-rule="evenodd" clip-rule="evenodd" fill="#FB0F0C" stroke="#000000" stroke-width="1.5" stroke-linecap="square" stroke-miterlimit="10" d="  M354.75,469.019c-17-0.25-34-0.5-51-0.75c-12.766,41.829,57.392-3.373,50.25,33.75c17.25-8,34.5-16,51.75-24  c-17-7.75-34-15.5-51-23.25C354.75,459.519,354.75,464.269,354.75,469.019z"/>
<path fill-rule="evenodd" clip-rule="evenodd" fill="#82B9D7" stroke="#000000" stroke-linecap="square" stroke-miterlimit="10" d="  M430.5,466.769c0.332,17.579-7.829,39.75,12.375,39.75c20.881,0,12.07-26.296,12.375-44.25  C447.336,463.708,438.032,464.006,430.5,466.769z"/>
<path fill-rule="evenodd" clip-rule="evenodd" fill="#BCB8B8" stroke="#000000" stroke-width="1.25" stroke-linecap="square" stroke-miterlimit="10" d="  M375.75,450.269c-6.509-6.971-8.549-16.271-5.25-25.5c7.476-20.911,27.411-10.213,46.333-7.889  c7.312,0.897,36.365,21.317,39.167,31.139c7.585,26.594-12.87,19.686-27.75,17.25c0.01,0.002-4.001-7.02-10.5-8.25  c-4.933-0.934-11.005,4.561-16.5,3.75C390.352,459.161,382.969,459.627,375.75,450.269z"/>
<path fill-rule="evenodd" clip-rule="evenodd" fill="#BCB8B8" stroke="#000000" stroke-width="1.25" stroke-linecap="square" stroke-miterlimit="10" d="  M378,412.769c6.354-21.018,3.795-31.223,25.861-35.028c10.092-1.74,18.061,38.191,13.14,40.653  C403.743,425.026,387.848,424.637,378,412.769z"/>
<path fill-rule="evenodd" clip-rule="evenodd" fill="#BCB8B8" stroke="#000000" stroke-width="1.25" stroke-linecap="square" stroke-miterlimit="10" d="  M364.5,358.769c-41.382,4.646,20.637,20.546,21.375,21c5.383,3.312,60.028,0.438,63.375-8.25c7.316-18.996-44.25-1.856-44.25-23.25  C405,335.919,376.391,363.524,364.5,358.769z"/>
<path fill-rule="evenodd" clip-rule="evenodd" fill="#BCB8B8" stroke="#000000" stroke-width="1.25" stroke-linecap="square" stroke-miterlimit="10" d="  M413.252,388.769c-3.776,9.881-24.002,16.41-24.002,0S409.476,378.888,413.252,388.769z"/>
<path fill-rule="evenodd" clip-rule="evenodd" fill="#1BA1C8" stroke="#000000" stroke-width="1.25" stroke-linecap="square" stroke-miterlimit="10" d="  M411,358.019C382.344,390.667,382.344,325.372,411,358.019L411,358.019z"/>
<path fill-rule="evenodd" clip-rule="evenodd" fill="#BCB8B8" d="M383.25,358.019c-2.396,8.165-5.604,12.629,1.5,20.25  C384.256,371.598,384.458,364.589,383.25,358.019z"/>
<path fill="none" stroke="#000000" stroke-width="1.25" stroke-linecap="square" stroke-miterlimit="10" d="M383.25,358.019  c-4.859,6.812-4.294,14.035,1.5,20.25"/>
<path fill="none" stroke="#000000" stroke-width="1.25" stroke-linecap="square" stroke-miterlimit="10" d="M411,375.269  c2.25,0,4.5,0,6.75,0"/>
<path fill="none" stroke="#000000" stroke-width="1.25" stroke-linecap="square" stroke-miterlimit="10" d="M409.5,429.269  c5.991-2.464,12.728-2.767,18.75-0.75"/>
<path fill-rule="evenodd" clip-rule="evenodd" fill="#EDCBA6" stroke="#000000" stroke-width="1.25" stroke-linecap="square" stroke-miterlimit="10" d="  M397.5,336.269c-10.37,5.283-43.77,13.575-37.5,27c3.635,7.783,19.461,7.576,25.5,6c-3.204-0.074-6.582-0.247-9.75-0.75  c36.054-22.124,51.186-18.454,93.75-14.25C448.276,342.241,421.955,334.179,397.5,336.269z"/>
<path fill-rule="evenodd" clip-rule="evenodd" fill="#8BD3E5" stroke="#000000" stroke-width="0.75" stroke-linecap="square" stroke-miterlimit="10" d="  M461.25,470.519C490.933,468.396,479.885,509.972,461.25,470.519L461.25,470.519z"/>
<path fill-rule="evenodd" clip-rule="evenodd" fill="#8BD3E5" stroke="#000000" stroke-width="0.75" stroke-linecap="square" stroke-miterlimit="10" d="  M423.75,484.769C429.458,512.791,386.451,496.836,423.75,484.769L423.75,484.769z"/>
<path fill-rule="evenodd" clip-rule="evenodd" fill="#8BD3E5" stroke="#000000" stroke-width="0.75" stroke-linecap="square" stroke-miterlimit="10" d="  M463.5,460.769C479.537,436.168,507.832,470.663,463.5,460.769L463.5,460.769z"/>
<path fill-rule="evenodd" clip-rule="evenodd" fill="#EDCBA6" stroke="#000000" stroke-width="1.25" stroke-linecap="square" stroke-miterlimit="10" d="  M475.5,349.769c-55.026-13.824-75.737-20.417-109.875,27.375c-8.719,12.206,26.89-2.14,31.5-6.75  c11.334-11.334,38.54-18.598,46.875,0.375c-17.064,1.866-32.217,0.481-38.25,18.75c23.495,4.65,43.438,2.367,66-3  c41.917-9.971,45-5.114,45-50.25C503,340.769,489.25,345.269,475.5,349.769z"/>
</svg>