<svg xmlns="http://www.w3.org/2000/svg" xmlns:xlink="http://www.w3.org/1999/xlink" version="1.1" id="Layer_1" x="0px" y="0px" enable-background="new 0 0 822.05 841.89" xml:space="preserve" viewBox="297.25 324.26 222.5 190.27">
<path fill-rule="evenodd" clip-rule="evenodd" fill="#82B9D7" stroke="#000000" stroke-linecap="square" stroke-miterlimit="10" d="  M518.381,512.89c-71.021,0-142.041,0-213.062,0c3.264,0-16.068-171.544-2.94-183.75c10.611-9.865,77.104,0,91.302,0  c40.587,0,81.173,0,121.76,0C521.468,329.14,518.381,492.457,518.381,512.89z"/>
<path fill-rule="evenodd" clip-rule="evenodd" fill="#2F982F" stroke="#000000" stroke-width="1.25" stroke-linecap="square" stroke-miterlimit="10" d="  M518.381,434.89c-29.731-51.157-160.248-6.217-202.113,3.889c-24.282,5.861-13.542,35.919-13.301,58.295  c0.263,24.424,17.867,15.066,40.406,15.066c58.586,0,117.172,0,175.758,0C518.881,486.39,518.631,460.64,518.381,434.89z"/>
<path fill-rule="evenodd" clip-rule="evenodd" fill="#99330C" stroke="#000000" stroke-linecap="square" stroke-miterlimit="10" d="  M311.379,511.39c11.957,2.165,28.41,0.494,42,0C339.379,511.39,325.379,511.39,311.379,511.39z"/>
<path fill-rule="evenodd" clip-rule="evenodd" fill="#99330C" stroke="#000000" stroke-linecap="square" stroke-miterlimit="10" d="  M383.379,485.89c20.602-0.481,147.556-1.698,114.752-43.5c-27-34.407-133.159-12.342-168.752-6.75  c35.964,11.004,80.922,1.743,118.502,4.875c29.604,2.467,32.854,17.358,1.694,22.152c-36.571,5.627-139.122-10.583-138.196,48.723  c14,0,28,0,42,0C343.449,492.708,369.001,486.468,383.379,485.89z"/>
<path fill-rule="evenodd" clip-rule="evenodd" fill="#FB0F0C" stroke="#000000" stroke-width="1.5" stroke-linecap="square" stroke-miterlimit="10" d="  M378.129,414.64c-13.513-17.099-32.645-62.8-54-33.75c12.5,15.75,25,31.5,37.5,47.25c-4.966,2.455-8.415,8.348-13.5,10.5  c20,9.75,40,19.5,60,29.25c-5.5-21-11-42-16.5-63C387.329,407.996,381.655,410.717,378.129,414.64z"/>
<path fill-rule="evenodd" clip-rule="evenodd" fill="#724211" stroke="#000000" stroke-width="1.25" stroke-linecap="square" stroke-miterlimit="10" d="  M465.131,423.64C436.012,428.341,465.131,351.03,465.131,423.64L465.131,423.64z"/>
<path fill-rule="evenodd" clip-rule="evenodd" fill="#279A30" stroke="#000000" stroke-width="1.25" stroke-linecap="square" stroke-miterlimit="10" d="  M459.881,351.64c2.438,2.458,5.867,3.555,1.5,5.25c7.552,7.156,10.397,13.971,6,20.25c1.428,2.097,5.588,2.815,7.5,4.5  c1.806,3.609-4.887,2.699-5.25,3c13.148,6.199,9.94,2.914,6,9.75c2.793,9.231,10.008,2.346-0.75,8.25  c3.941,2.218,7.354,4.504,10.5,6.75c-13.25,0.87-25.934-1.774-38.25,3.75c1.423-0.783,6.136-4.048,7.5-5.25  c-10.678,7.797-36.437,4.123-15.75-4.5c-11.042-4.85-5.071-5.353,6-9.75c-13.919-0.256-12.307-4.318-0.75-10.5  c-0.643-1.056-5.938-0.795-6-1.5c2.713-3.525,6.886-6.146,9.75-9.75c-1.752-3.055-5.462-0.14-5.25-6c4.712-1.354,5.461-1.029,9-4.5  c-1.709-3.297-0.909-7.862,2.25-17.25C455.671,346.852,457.776,349.204,459.881,351.64z"/>
</svg>