<svg xmlns="http://www.w3.org/2000/svg" xmlns:xlink="http://www.w3.org/1999/xlink" version="1.1" id="Layer_1" x="0px" y="0px" enable-background="new 0 0 822.05 841.89" xml:space="preserve" viewBox="306.99 338.31 206 167.71">
<path fill-rule="evenodd" clip-rule="evenodd" fill="#EBCBA7" stroke="#000000" stroke-width="1.25" stroke-linecap="square" stroke-miterlimit="10" d="  M445.613,452.265c10.844-9.997,28.433-12.364,39,0C506.438,477.801,444.625,478.99,445.613,452.265z"/>
<path fill-rule="evenodd" clip-rule="evenodd" fill="#1D529A" stroke="#000000" stroke-width="1.25" stroke-linecap="square" stroke-miterlimit="10" d="  M409.613,480.015c11.768-12.776,20.337-28.869,38.25-30.75c-1.04,0.109,14.816,10.24,20.25,10.5c13.833,0.66,9.691-17.352,27-6.75  c9.279,5.684,14.28,39.629,17.25,48.75c-25.238-0.247-87.94,15.406-75.75-24C428.68,495.873,414.846,500.356,409.613,480.015z"/>
<path fill-rule="evenodd" clip-rule="evenodd" fill="#EBCBA7" stroke="#000000" stroke-width="1.25" stroke-linecap="square" stroke-miterlimit="10" d="  M488.363,422.265c-2.688,30.376-45.901,37.295-42,0C449.622,391.117,491.32,390.615,488.363,422.265z"/>
<path fill-rule="evenodd" clip-rule="evenodd" fill="#1D529A" d="M423.863,471.765c-8.438-15.002-11.21-25.604-27-23.25  c2.683,13.098,8.263,25.216,15,36.75C415.628,481.03,421.27,476.754,423.863,471.765z"/>
<path fill="none" stroke="#000000" stroke-width="1.25" stroke-linecap="square" stroke-miterlimit="10" d="M423.863,471.765  c-8.438-15.002-11.21-25.604-27-23.25c2.683,13.098,8.263,25.216,15,36.75"/>
<path fill-rule="evenodd" clip-rule="evenodd" fill="#EBCBA7" stroke="#000000" stroke-width="1.25" stroke-linecap="square" stroke-miterlimit="10" d="  M495.113,483.015c-1.871-4.399,0.709-7.746-3-12C482.868,476.266,491.664,477.01,495.113,483.015z"/>
<path fill-rule="evenodd" clip-rule="evenodd" fill="#EBCBA7" stroke="#000000" stroke-width="1.25" stroke-linecap="square" stroke-miterlimit="10" d="  M494.363,487.515c1.373-11.197-5.249-19.323-15.75-21c1.422,1.473,4.934,5.907,6.75,8.25  C472.025,475.944,478.961,494.722,494.363,487.515z"/>
<line fill="none" stroke="#000000" stroke-width="1.25" stroke-linecap="square" stroke-miterlimit="10" x1="478.613" y1="484.515" x2="478.613" y2="484.515"/>
<line fill="none" stroke="#000000" stroke-width="1.25" stroke-linecap="square" stroke-miterlimit="10" x1="489.863" y1="492.015" x2="489.863" y2="492.015"/>
<path fill-rule="evenodd" clip-rule="evenodd" fill="#1D529A" stroke="#000000" stroke-width="1.25" stroke-linecap="square" stroke-miterlimit="10" d="  M480.863,489.015c4.613,12.106,15.324,16.348,27.75,12.75c-1.961-5.05-8.579-12.216-12.75-15.75  C490.21,492.519,486.795,487.542,480.863,489.015z"/>
<path fill-rule="evenodd" clip-rule="evenodd" fill="#EBCBA7" stroke="#000000" stroke-width="1.25" stroke-linecap="square" stroke-miterlimit="10" d="  M374.363,453.015c-15.018-14.013-43.24-8.059-45.75,15C345.094,471.401,375.305,477.867,374.363,453.015z"/>
<path fill-rule="evenodd" clip-rule="evenodd" fill="#1D529A" stroke="#000000" stroke-width="1.25" stroke-linecap="square" stroke-miterlimit="10" d="  M411.113,480.765c-11.602-12.247-20.827-28.696-38.25-30.75c0.529,0.062-15.038,10.441-21,10.5  c-12.646,0.125-8.496-15.648-24.75-8.25c-10.867,4.946-16.426,40.809-19.5,50.25c26.009-0.255,86.587,15.458,76.5-24  C391.705,496.795,405.316,500.722,411.113,480.765z"/>
<path fill-rule="evenodd" clip-rule="evenodd" fill="#EBCBA7" stroke="#000000" stroke-width="1.25" stroke-linecap="square" stroke-miterlimit="10" d="  M331.613,423.015c5.07,33.796,47.871,35.225,41.25-4.5C368.067,389.74,329.838,394.537,331.613,423.015z"/>
<path fill-rule="evenodd" clip-rule="evenodd" fill="#1D529A" d="M396.863,472.515c8.012-15.082,10.462-25.677,26.25-23.25  c-2.751,13-7.752,25.492-15,36.75C404.59,481.788,399.208,477.446,396.863,472.515z"/>
<path fill="none" stroke="#000000" stroke-width="1.25" stroke-linecap="square" stroke-miterlimit="10" d="M396.863,472.515  c8.012-15.082,10.462-25.677,26.25-23.25c-2.751,13-7.752,25.492-15,36.75"/>
<path fill-rule="evenodd" clip-rule="evenodd" fill="#EBCBA7" stroke="#000000" stroke-width="1.25" stroke-linecap="square" stroke-miterlimit="10" d="  M396.113,438.015c-4.238,1.62-8.029-3.275-9.75,6C389.833,442.663,392.647,439.34,396.113,438.015z"/>
<path fill-rule="evenodd" clip-rule="evenodd" fill="#EBCBA7" stroke="#000000" stroke-width="1.25" stroke-linecap="square" stroke-miterlimit="10" d="  M399.863,439.515c-8.609-1.968-16.821,0.879-22.5,8.25c2.794-0.592,6.972-1.248,10.5-2.25  C389.957,457.85,416.918,453.474,399.863,439.515z"/>
<path fill-rule="evenodd" clip-rule="evenodd" fill="#EBCBA7" d="M400.613,449.265C396.761,452.954,395.342,454.313,400.613,449.265  L400.613,449.265z"/>
<path fill="none" stroke="#000000" stroke-width="1.25" stroke-linecap="square" stroke-miterlimit="10" d="M400.613,449.265  c-0.562,1.908-2.336,3.289-4.5,3.75"/>
<path fill-rule="evenodd" clip-rule="evenodd" fill="#EBCBA7" stroke="#000000" stroke-width="1.25" stroke-linecap="square" stroke-miterlimit="10" d="  M324.863,483.765C330.949,470.076,334.05,471.861,324.863,483.765L324.863,483.765z"/>
<path fill-rule="evenodd" clip-rule="evenodd" fill="#EBCBA7" stroke="#000000" stroke-width="1.25" stroke-linecap="square" stroke-miterlimit="10" d="  M326.363,488.265c-1.922-11.638,5.517-19.921,15.75-20.25c-2.145,1.768-5.066,5.181-6.75,7.5  C348.334,477.193,340.914,495.365,326.363,488.265z"/>
<line fill="none" stroke="#000000" stroke-width="1.25" stroke-linecap="square" stroke-miterlimit="10" x1="342.113" y1="485.265" x2="342.113" y2="485.265"/>
<line fill="none" stroke="#000000" stroke-width="1.25" stroke-linecap="square" stroke-miterlimit="10" x1="330.113" y1="492.765" x2="330.113" y2="492.765"/>
<path fill-rule="evenodd" clip-rule="evenodd" fill="#1D529A" stroke="#000000" stroke-width="1.25" stroke-linecap="square" stroke-miterlimit="10" d="  M339.113,489.765c-4.248,12.494-15.146,16.503-27.75,12.75c2.15-5.129,9.137-12.217,13.5-15.75  C329.858,493.579,333.433,488.336,339.113,489.765z"/>
<path fill-rule="evenodd" clip-rule="evenodd" fill="#EBCBA7" stroke="#000000" stroke-width="1.25" stroke-linecap="square" stroke-miterlimit="10" d="  M420.113,440.265c4.234,2.077,8.077-3.685,9,6.75C425.584,445.548,423.509,441.93,420.113,440.265z"/>
<path fill-rule="evenodd" clip-rule="evenodd" fill="#EBCBA7" stroke="#000000" stroke-width="1.25" stroke-linecap="square" stroke-miterlimit="10" d="  M416.363,441.765c9.007-1.475,17.364,2.972,21,10.5c-3.109-1.158-6.528-2.516-9.75-3.75  C423.898,460.71,398.741,454.539,416.363,441.765z"/>
<path fill-rule="evenodd" clip-rule="evenodd" fill="#EBCBA7" d="M414.113,451.515C419.192,455.444,420.118,456.161,414.113,451.515  L414.113,451.515z"/>
<path fill="none" stroke="#000000" stroke-width="1.25" stroke-linecap="square" stroke-miterlimit="10" d="M414.113,451.515  c1.378,1.767,3.105,3.008,5.25,3.75"/>
<path fill-rule="evenodd" clip-rule="evenodd" fill="#FFFFFF" stroke="#000000" stroke-width="1.25" stroke-linecap="square" stroke-miterlimit="10" d="  M396.113,398.265c-6.862,6.321-11.145,11.597-21,12.75c17.931,1.521,30.88-7.572,47.25-10.5c-3.987-6.641-9.14-17.532-10.5-23.25  C402.603,382.403,394.458,390.382,396.113,398.265z"/>
<path fill-rule="evenodd" clip-rule="evenodd" fill="#FFFFFF" stroke="#000000" stroke-width="1.25" stroke-linecap="square" stroke-miterlimit="10" d="  M410.363,339.015c33.314,0.515,53.263,46.997,17.25,60c7.167,4.987,8.86,9.218,18.75,10.5c-17.625,4.772-57.918-6.071-69.75-19.875  C355.068,364.504,383.668,337.263,410.363,339.015z"/>
<path fill-rule="evenodd" clip-rule="evenodd" d="M384.113,386.265c-3.625-7.755-5.08-17.271-7.5-25.5  c6.124,4.866,8.49,4.284,11.25,16.5c2.116-20.704,12.884-20.704,15,0c2.58-13.467,4.008-11.468,11.25-16.5  c-2.652,17.692-15.943,40.163-18.75,9C395.803,382.942,390.101,382.105,384.113,386.265z"/>
<path fill-rule="evenodd" clip-rule="evenodd" d="M432.863,378.015c2.25,0.25,4.5,0.5,6.75,0.75c-8.043,11.505-27.076,8.486-24-8.25  c3.257-17.717,23.043-10.41,24,4.5c-5.57-0.671-11.812,1.273-17.25,0C425.857,385.41,427.774,378.94,432.863,378.015z   M432.863,371.265c-4.602-2.759-4.926-11.297-9.75,0C426.363,371.265,429.613,371.265,432.863,371.265z"/>
<path fill-rule="evenodd" clip-rule="evenodd" fill="#5A0C08" stroke="#000000" stroke-width="0.75" stroke-linecap="square" stroke-miterlimit="10" d="  M456.113,430.515c4.847,1.195,9.56,3.521,14.25,5.25C457.686,445.536,458.482,440.619,456.113,430.515z"/>
<path fill-rule="evenodd" clip-rule="evenodd" fill="#5A0C08" stroke="#000000" stroke-width="0.75" stroke-linecap="square" stroke-miterlimit="10" d="  M352.613,437.265c4.25-2.25,8.5-4.5,12.75-6.75C365.823,444.978,361.25,438.664,352.613,437.265z"/>
</svg>