<svg xmlns="http://www.w3.org/2000/svg" xmlns:xlink="http://www.w3.org/1999/xlink" version="1.1" id="Layer_1" x="0px" y="0px" enable-background="new 0 0 822.05 841.89" xml:space="preserve" viewBox="224.19 309.71 373.25 224.24">
<path fill-rule="evenodd" clip-rule="evenodd" fill="#5A2F19" stroke="#000000" stroke-width="2" stroke-linecap="square" stroke-miterlimit="10" d="  M225.186,463.197c63.08-48.251,126.16-96.503,189.239-144.755c19.718-15.082,41.539-4.144,65.631-0.217  c38.794,6.323,77.588,12.646,116.382,18.97c-62.924,56.827-125.847,113.654-188.771,170.481  c-29.342,26.499-25.479,26.4-62.203,9.821C305.371,499.397,265.278,481.296,225.186,463.197z"/>
<path fill-rule="evenodd" clip-rule="evenodd" fill="#402111" stroke="#000000" stroke-width="2" stroke-linecap="square" stroke-miterlimit="10" d="  M379.686,532.947c71.501-64.001,143.001-128.001,214.502-192.002c-1.92,29.571-3.84,59.142-5.761,88.713  c-1.965,30.26-2.092,26.919-30.29,37.341C498.653,488.981,439.169,510.964,379.686,532.947z"/>
</svg>