<svg xmlns="http://www.w3.org/2000/svg" xmlns:xlink="http://www.w3.org/1999/xlink" version="1.1" id="Layer_1" x="0px" y="0px" enable-background="new 0 0 822.05 841.89" xml:space="preserve" viewBox="248.5 251.85 326.22 341.25">
<path fill-rule="evenodd" clip-rule="evenodd" fill="#D4D4D4" stroke="#000000" stroke-width="2" stroke-linecap="square" stroke-miterlimit="10" d="  M249.5,286.693c1.707,17.503,130.358,7.5,150.263,7.5c37.786,0,75.572,0,113.358,0c9.123,0,51.769,6.411,58.879,0  c10.881-9.811-33.362-7.5-34.959-7.5c-38.435,0-76.869,0-115.305,0C364.325,286.693,306.912,286.693,249.5,286.693z"/>
<path fill-rule="evenodd" clip-rule="evenodd" fill="#3B3B3B" stroke="#000000" stroke-width="2" stroke-linecap="square" stroke-miterlimit="10" d="  M308,320.443c-20.444,17.143-18.281-53.764-12-63C312.477,233.214,308,312.282,308,320.443z"/>
<path fill-rule="evenodd" clip-rule="evenodd" fill="#3B3B3B" stroke="#000000" stroke-width="2" stroke-linecap="square" stroke-miterlimit="10" d="  M524,325.693c-21.337,17.11-17.932-56.527-12-63C531.71,241.181,524,314.354,524,325.693z"/>
<path fill-rule="evenodd" clip-rule="evenodd" fill="#E7B98A" stroke="#000000" stroke-width="2" stroke-linecap="square" stroke-miterlimit="10" d="  M397.25,355.693c-22.4-1.125-60.24-42.871-33-66c-26.887-22.894-26.116,32.813-19.125,49.125  c5.124,11.956,11.648,28.134,24.75,33.375c10.464,4.186,8.446,19.177,10.173,29.539c3.761,22.567,6.211,17.758,29.202,18.086  c47.58,0.68,12.666-27.162,40.125-52.125c12.843-11.675,19.461-26.094,23.625-42.75c1.966-7.864,5.412-19.772,3-27.75  c-4.668-15.439-24.928-17.606-18-3.75c11.529,23.059,0.576,33.923-13.875,48.375C430.511,355.432,419.22,353.407,397.25,355.693z"/>
<path fill-rule="evenodd" clip-rule="evenodd" fill="#0A58A5" stroke="#000000" stroke-width="2" stroke-linecap="square" stroke-miterlimit="10" d="  M394.25,356.443c1.719,14.267,3.107,30.092,0,44.25c-1.479,6.735-11.225,16.598-11.276,20.988  c-0.224,19.492-10.992,59.93,9.776,66.014c15.32,4.488,21.753-8.603,18.752-23.25c-2.994,12.357,3.085,30.623,18.748,24  c18.039-7.627,7.627-34.979,6.417-51.918c-2.02-28.273-18.869-50.438-12.417-80.834c-3.999-0.5-7.999-1-11.998-1.5  c-0.601,14.56-2.167,29.021-3.75,43.5c-4.818-12.835-4.49-29.066-5.25-43.5C400.251,354.943,397.25,355.693,394.25,356.443z"/>
<path fill-rule="evenodd" clip-rule="evenodd" fill="#E7B98A" stroke="#000000" stroke-width="2" stroke-linecap="square" stroke-miterlimit="10" d="  M385.25,486.195c-0.094,6.592,3.21,79.515,12.75,46.125c4.907-17.173-0.426-29.101,8.252-46.875  C399.627,485.681,391.594,484.432,385.25,486.195z"/>
<path fill-rule="evenodd" clip-rule="evenodd" fill="#E7B98A" stroke="#000000" stroke-width="2" stroke-linecap="square" stroke-miterlimit="10" d="  M415.25,488.445c6.771-1.076,13.174,1.685,20.25,0c1.265,12.274,0.191,63.461-7.5,66  C410.989,560.062,414.938,498.897,415.25,488.445z"/>
<path fill="none" stroke="#000000" stroke-width="2" stroke-linecap="square" stroke-miterlimit="10" d="M384.5,538.695  c0.815,13.219-3.723,26.413-12,36.75C403.688,594.083,409.459,531.896,384.5,538.695z"/>
<path fill="none" stroke="#000000" stroke-width="2" stroke-linecap="square" stroke-miterlimit="10" d="M418.25,552.195  c4.75-0.5,9.5-1,14.25-1.5c-1.395,13.883,4.905,39.373-9.75,41.25C403.114,594.459,420.374,564.371,418.25,552.195z"/>
<path fill-rule="evenodd" clip-rule="evenodd" fill="#E7B98A" stroke="#000000" stroke-width="2" stroke-linecap="square" stroke-miterlimit="10" d="  M422,337.693c2.029,29.237-27.75,25.341-27.75-2.625C394.25,308.314,423.971,312.064,422,337.693z"/>
</svg>