<svg xmlns="http://www.w3.org/2000/svg" xmlns:xlink="http://www.w3.org/1999/xlink" version="1.1" id="Layer_1" x="0px" y="0px" enable-background="new 0 0 822.05 841.89" xml:space="preserve" viewBox="307.63 292.55 209.59 257.09">
<path fill-rule="evenodd" clip-rule="evenodd" fill="#5A2F19" stroke="#000000" stroke-width="2" stroke-linecap="square" stroke-miterlimit="10" d="  M316.757,294.171c-3.107,45.051-9.978,83.685-7.652,129.03c1.714,33.431,3.429,66.862,5.143,100.294  c0.807,15.726-0.852,24.622,17.134,17.428c21.874-8.75,0.887-114.262-0.48-135.291c-2.382-36.652,6-73.789,7.605-110.711  C331.823,294.691,323.164,292.514,316.757,294.171z"/>
<path fill-rule="evenodd" clip-rule="evenodd" fill="#5A2F19" stroke="#000000" stroke-width="2" stroke-linecap="square" stroke-miterlimit="10" d="  M336.257,316.671c-2.093,7.147-1.033,16.533-1.5,24c24.379,0.362,147.066,14.443,153-4.5  C493.034,319.325,355.282,317.825,336.257,316.671z"/>
<path fill-rule="evenodd" clip-rule="evenodd" fill="#5A2F19" stroke="#000000" stroke-width="2" stroke-linecap="square" stroke-miterlimit="10" d="  M478.757,309.921c0.619,56.334,7.081,110.975,9,167.252c42.553-4.417,18.341-51.827,13.722-85.394  C498.406,369.459,505.979,302.846,478.757,309.921z"/>
<path fill="none" stroke="#000000" stroke-width="2" stroke-linecap="square" stroke-miterlimit="10" d="M417.257,319.671  c5.636,8.32,5.667,16.622-1.5,22.5"/>
<path fill-rule="evenodd" clip-rule="evenodd" fill="#4D4D4D" d="M342.257,432.923c0,24.997-9.701,81.612,5.25,97.5  c16.253,17.271,78.628,18.979,100.5,18c21.48-0.961,43.438-6.517,60.75-19.5c13.769-10.326,4.217-81.331,4.5-99.75  C461.735,429.633,390.375,417.078,342.257,432.923z"/>
<path fill="none" stroke="#000000" stroke-width="2" stroke-linecap="square" stroke-miterlimit="10" d="M342.257,432.923  c0,24.997-9.701,81.612,5.25,97.5c16.253,17.271,78.628,18.979,100.5,18c21.48-0.961,43.438-6.517,60.75-19.5  c13.769-10.326,4.217-81.331,4.5-99.75c-56,0.5-112,1-168,1.5"/>
<path fill-rule="evenodd" clip-rule="evenodd" fill="#3B3B3B" stroke="#000000" stroke-width="2" stroke-linecap="square" stroke-miterlimit="10" d="  M515.507,426.173c-17.251,28.466-177.366,33.38-173.25-2.25C346.406,388.003,500.844,399.06,515.507,426.173z"/>
<line fill="none" stroke="#000000" stroke-width="2" stroke-linecap="square" stroke-miterlimit="10" x1="436.757" y1="321.921" x2="434.507" y2="375.171"/>
<path fill="none" stroke="#000000" stroke-width="2" stroke-linecap="square" stroke-miterlimit="10" d="M423.257,384.171  c3.129-13.626,11.171-15.44,20.25-5.25"/>
<path fill-rule="evenodd" clip-rule="evenodd" fill="#D4D4D4" stroke="#000000" stroke-width="2" stroke-linecap="square" stroke-miterlimit="10" d="  M423.257,381.171c6.921-2.226,15.983-1.547,23.25-2.25C446.507,419.996,416.411,420.454,423.257,381.171z"/>
</svg>