<svg xmlns="http://www.w3.org/2000/svg" xmlns:xlink="http://www.w3.org/1999/xlink" version="1.1" id="Layer_1" x="0px" y="0px" enable-background="new 0 0 822.05 841.89" xml:space="preserve" viewBox="242.56 262.39 338.37 318.5">
<path fill-rule="evenodd" clip-rule="evenodd" fill="#031D3B" stroke="#000000" stroke-width="2" stroke-linecap="square" stroke-miterlimit="10" d="  M538,321.885c-13.762-3.946-27.692-7.159-42-7.5c6.168,18.018,21.358,31.19,21.75,45.75c0.453,16.844-13.058,46.168-27,56.625  c-38.806,29.104-106.212,14.516-150,30.375c-24.707,8.948-45.849,24.112-71.625,33c-19.103,6.587-27.665,7.013-25.125,21.75  c6.422,37.263,83.331,46.752,113.25,45.75c-0.25,10.75-0.5,21.5-0.75,32.25c19.154-6.774,17.965-30.976,31.125-33  c15.063-2.317,33.9-12.075,47.625-7.5c11.033,3.678,20.726,4.515,29.25-3.75c-3.5-3-7-6-10.5-9  c48.957-19.823,88.256-63.194,99-115.5c5.847-28.465,3.105-53.2,12.75-80.25c8.2-23,17.895-42.581,12.75-67.5  C561.989,279.833,545.813,299.646,538,321.885z"/>
<line fill="none" stroke="#000000" stroke-width="2" stroke-linecap="square" stroke-miterlimit="10" x1="520" y1="350.385" x2="538" y2="321.885"/>
<path fill="none" stroke="#000000" stroke-width="2" stroke-linecap="square" stroke-miterlimit="10" d="M382,508.635  c18.185,10.853,59.899,49.472,82.5,27C441.219,516.608,413.434,483.722,382,508.635z"/>
<path fill="none" stroke="#000000" stroke-width="2" stroke-linecap="square" stroke-miterlimit="10" d="M357.25,547.635  c7.224,1.025,14.535,1.026,21.75,0"/>
<path fill="none" stroke="#000000" stroke-width="2" stroke-linecap="square" stroke-miterlimit="10" d="M245.5,496.635  c23.327-3.888,55.087-14.596,78-9c12.203,2.98,13.744,16.327,30.75,12.75"/>
<path fill-rule="evenodd" clip-rule="evenodd" fill="#FFFFFF" stroke="#000000" stroke-width="2" stroke-linecap="square" stroke-miterlimit="10" d="  M327.25,489.885c-26.688,7.281-53.928,13.687-81.75,13.5c10.073,58.59,142.294,46.594,180,35.25  C392.148,515.634,365.701,503.053,327.25,489.885z"/>
<path fill="none" stroke="#000000" stroke-width="2" stroke-linecap="square" stroke-miterlimit="10" d="M336.25,464.385  c6.368,0.077,9.896-2.661,15.75,3C345.064,469.702,341.746,466.155,336.25,464.385z"/>
<path fill-rule="evenodd" clip-rule="evenodd" fill="#FFFFFF" d="M253,503.385c37.669,45.633,112.655,36.065,164.25,29.25  c-16.555-13.656-52.158-2.273-72.75-3.75c-28.831-2.067-57.035-9.508-81-26.25c20.322-3.022,41.153,11.609,61.5,15  c24.183,4.03,47.801,5.02,72.002,0c-26.887-17.572-68.691-3.356-99.002-20.25c20.751-7.953,58.597,8.757,83.25,8.25  C338.5,504.885,295.75,504.135,253,503.385z"/>
<path fill="none" stroke="#000000" stroke-width="2" stroke-linecap="square" stroke-miterlimit="10" d="M253,503.385  c37.669,45.633,112.655,36.065,164.25,29.25c-16.555-13.656-52.158-2.273-72.75-3.75c-28.831-2.067-57.035-9.508-81-26.25  c20.322-3.022,41.153,11.609,61.5,15c24.183,4.03,47.801,5.02,72.002,0c-26.887-17.572-68.691-3.356-99.002-20.25  c20.751-7.953,58.597,8.757,83.25,8.25"/>
</svg>