<svg xmlns="http://www.w3.org/2000/svg" xmlns:xlink="http://www.w3.org/1999/xlink" version="1.1" id="Layer_1" x="0px" y="0px" enable-background="new 0 0 822.05 841.89" xml:space="preserve" viewBox="314.28 338.16 192.22 166.14">
<path fill-rule="evenodd" clip-rule="evenodd" fill="#F8130D" stroke="#000000" stroke-width="1.25" stroke-linecap="square" stroke-miterlimit="10" d="  M448.375,420.265c8.874-40.312-41.424-22.976-67.11-21.834c-4.318,0.192-12.565-44.384-15.015-50.916  c-6.82-18.187-13.951-3.868-16.125,6c-3.986,18.095,15.075,52.095,14.25,73.5C386.11,419.051,422.771,421.91,448.375,420.265z"/>
<line fill="none" stroke="#000000" stroke-width="1.25" stroke-linecap="square" stroke-miterlimit="10" x1="456.625" y1="351.265" x2="456.625" y2="351.265"/>
<path fill-rule="evenodd" clip-rule="evenodd" fill="#878787" d="M467.875,475.765l-4.5,6L467.875,475.765z"/>
<line fill="none" stroke="#000000" stroke-width="1.25" stroke-linecap="square" stroke-miterlimit="10" x1="467.875" y1="475.765" x2="463.375" y2="481.765"/>
<path fill-rule="evenodd" clip-rule="evenodd" fill="#878787" d="M473.875,484.015l-10.5,0.75L473.875,484.015z"/>
<line fill="none" stroke="#000000" stroke-width="1.25" stroke-linecap="square" stroke-miterlimit="10" x1="473.875" y1="484.015" x2="463.375" y2="484.765"/>
<path fill-rule="evenodd" clip-rule="evenodd" fill="#878787" d="M473.125,492.265l-9-6L473.125,492.265z"/>
<line fill="none" stroke="#000000" stroke-width="1.25" stroke-linecap="square" stroke-miterlimit="10" x1="473.125" y1="492.265" x2="464.125" y2="486.265"/>
<path fill-rule="evenodd" clip-rule="evenodd" fill="#878787" d="M465.625,494.515l-2.25-7.5L465.625,494.515z"/>
<line fill="none" stroke="#000000" stroke-width="1.25" stroke-linecap="square" stroke-miterlimit="10" x1="465.625" y1="494.515" x2="463.375" y2="487.015"/>
<path fill-rule="evenodd" clip-rule="evenodd" fill="#878787" d="M457.375,492.265l3-6L457.375,492.265z"/>
<line fill="none" stroke="#000000" stroke-width="1.25" stroke-linecap="square" stroke-miterlimit="10" x1="457.375" y1="492.265" x2="460.375" y2="486.265"/>
<path fill-rule="evenodd" clip-rule="evenodd" fill="#878787" d="M452.125,484.765h6.75H452.125z"/>
<line fill="none" stroke="#000000" stroke-width="1.25" stroke-linecap="square" stroke-miterlimit="10" x1="452.125" y1="484.765" x2="458.875" y2="484.765"/>
<path fill-rule="evenodd" clip-rule="evenodd" fill="#878787" d="M460.375,473.515l1.5,9.75L460.375,473.515z"/>
<line fill="none" stroke="#000000" stroke-width="1.25" stroke-linecap="square" stroke-miterlimit="10" x1="460.375" y1="473.515" x2="461.875" y2="483.265"/>
<path fill-rule="evenodd" clip-rule="evenodd" fill="#878787" d="M452.875,478.015l6,4.5L452.875,478.015z"/>
<line fill="none" stroke="#000000" stroke-width="1.25" stroke-linecap="square" stroke-miterlimit="10" x1="452.875" y1="478.015" x2="458.875" y2="482.515"/>
<path fill-rule="evenodd" clip-rule="evenodd" fill="#878787" stroke="#000000" stroke-width="1.25" stroke-linecap="square" stroke-miterlimit="10" d="  M470.875,469.015c-24.199-11.985-30.645,16.204-12.75,29.625C476.356,512.314,489.191,481.128,470.875,469.015z M473.875,490.765  c-7.957,5.96-27.949,1.17-21-12.75C459.65,464.444,475.012,480.835,473.875,490.765z"/>
<path fill-rule="evenodd" clip-rule="evenodd" fill="#878787" stroke="#000000" stroke-width="1.25" stroke-linecap="square" stroke-miterlimit="10" d="  M465.625,486.265c-2.533-1.4-8.268,2.265-3.75-5.25C465.101,481.858,464.245,485.502,465.625,486.265z"/>
<path fill-rule="evenodd" clip-rule="evenodd" fill="#878787" stroke="#000000" stroke-width="1.25" stroke-linecap="square" stroke-miterlimit="10" d="  M461.875,465.265c-4.369,0.782-6.883,4.535-12.75,3.75c3-0.25,6-0.5,9-0.75c2.061,4.315,5.293,12.758,6.75,17.25  C452.818,484.915,440.674,466.997,461.875,465.265z"/>
<path fill-rule="evenodd" clip-rule="evenodd" fill="#BFBFBF" stroke="#000000" stroke-width="1.25" stroke-linecap="square" stroke-miterlimit="10" d="  M501.625,461.515c-21.793,16.872-51.141-32.689-51.984-46.617c-0.927-15.287,2.163-30.976-11.016-39.633  c-10.953-7.195-65.846,1.521-75,5.25c-2.786-13.235-6.982-52.279-26.25-35.25c29.956-5.986,18.952,46.555,30.75,59.25  c-2.848-6.116-1.883-14.562-3.75-21c53.313-3.808,76.748-20.832,82.5,35.25c-25.833,1.659-59.909-1.297-83.25,6.75  c0.5,0.5,1,1,1.5,1.5c27.5-1.75,55-3.5,82.5-5.25c-1.256,12.629,0.07,16.966,0.556,30.556c0.121,3.398-14.523,10.787-20.806,14.444  c-22.769,13.257-50.064,12.119-81,12.75c-0.25,1.25-0.5,2.5-0.75,3.75c17.179-0.708,75.052,8.87,83.25-11.625  c4.918-12.294,22.021-9.114,27.75-4.875c-3.268-11.076-5.988-17.701-6-30.75c15.326,3.662,20.196,18.048,28.861,31.194  C488.4,480.735,516.46,467.1,501.625,461.515z"/>
<path fill-rule="evenodd" clip-rule="evenodd" fill="#878787" stroke="#000000" stroke-width="1.25" stroke-linecap="square" stroke-miterlimit="10" d="  M373.375,399.265c-74.661-3.788-78.818,99.733-6.75,104.25C440.84,508.167,443.881,407.429,373.375,399.265z M372.625,411.265  c20.068,0.418,39.079,14.546,45,33.75c-12.75,1.25-25.5,2.5-38.25,3.75c7.256-8.312,15.941-16.691,24-24.75  c-1.25-1.25-2.5-2.5-3.75-3.75c-8.718,8.205-18.55,18.556-27.75,23.25C372.296,434.452,372.624,411.252,372.625,411.265z   M371.875,445.765C396.627,471.6,341.244,459.837,371.875,445.765L371.875,445.765z M369.625,411.265  c-1.049,11.013-1.588,22.969-4.5,33c-7.5-9-15-18-22.5-27C351.111,413.222,360.307,411.166,369.625,411.265z M338.125,420.265  c7.75,9.5,15.5,19,23.25,28.5c-12.5-3.25-25-6.5-37.5-9.75C326.543,431.329,331.411,424.899,338.125,420.265z M321.625,449.515  c6.792-4.788,25.554,1.762,38.25,4.5c-10.077,5.734-22.581,11.288-33.75,16.5C322.947,464.204,320.957,456.624,321.625,449.515z   M328.375,473.515c11-5,22-10,33-15c0.999,10.773-7.292,22.459-10.5,33C341.801,487.607,334.088,481.46,328.375,473.515z   M367.375,495.265c-4.014-0.135-8.163-1.128-12-2.25c4-9.75,8-19.5,12-29.25c8.462,6.124,10.377,18.834,14.25,30.75  C377.082,495.171,371.954,495.85,367.375,495.265z M387.625,493.015c-3.718-9.914-8.4-21.395-10.5-30.75  c10.649,5.578,24.609,17.191,34.502,13.5C405.509,483.872,397.245,489.816,387.625,493.015z M418.375,456.265  c-0.233,29.19-22.767,9.29-37.5-0.75C394.027,454.2,412.253,448.914,418.375,456.265z M368.875,458.515  C369.729,450.125,369.779,449.64,368.875,458.515L368.875,458.515z"/>
<path fill-rule="evenodd" clip-rule="evenodd" fill="#F8130D" stroke="#000000" stroke-width="1.25" stroke-linecap="square" stroke-miterlimit="10" d="  M379.375,384.265c6.729-15,36.754-9.047,51.75-9.75C427.923,389.769,393.604,383.628,379.375,384.265z"/>
<path fill-rule="evenodd" clip-rule="evenodd" fill="#9596B5" stroke="#000000" stroke-width="1.25" stroke-linecap="square" stroke-miterlimit="10" d="  M322.375,343.015c5.582-1.302,11.544-1.754,17.25-2.25c-0.857,2.275-0.112,2.807,0.75,5.25  C329.376,349.644,325.113,347.376,322.375,343.015z"/>
</svg>