<svg xmlns="http://www.w3.org/2000/svg" xmlns:xlink="http://www.w3.org/1999/xlink" version="1.1" id="Layer_1" x="0px" y="0px" enable-background="new 0 0 822.05 841.89" xml:space="preserve" viewBox="310.64 334.64 198 174.5">
<path fill-rule="evenodd" clip-rule="evenodd" fill="#FFFFFF" stroke="#000000" stroke-width="1.25" stroke-linecap="square" stroke-miterlimit="10" d="  M328.881,336.015c15.558-1.013,17.179,14.37,11.25,29.25c2.734-3.493,5.788-5.711,8.25-8.25  c-0.266,13.401-10.715,41.271-27.75,30.75C305.251,378.267,309.368,333.749,328.881,336.015z"/>
<path fill-rule="evenodd" clip-rule="evenodd" fill="#FFFFFF" d="M336.381,338.265l-0.75,19.5L336.381,338.265z"/>
<line fill="none" stroke="#000000" stroke-width="1.25" stroke-linecap="square" stroke-miterlimit="10" x1="336.381" y1="338.265" x2="335.631" y2="357.765"/>
<path fill-rule="evenodd" clip-rule="evenodd" fill="#FFFFFF" d="M329.631,335.265v21.75V335.265z"/>
<line fill="none" stroke="#000000" stroke-width="1.25" stroke-linecap="square" stroke-miterlimit="10" x1="329.631" y1="335.265" x2="329.631" y2="357.015"/>
<path fill-rule="evenodd" clip-rule="evenodd" fill="#FFFFFF" d="M321.381,337.515l0.75,18L321.381,337.515z"/>
<line fill="none" stroke="#000000" stroke-width="1.25" stroke-linecap="square" stroke-miterlimit="10" x1="321.381" y1="337.515" x2="322.131" y2="355.515"/>
<path fill-rule="evenodd" clip-rule="evenodd" fill="#EBCBA7" stroke="#000000" stroke-width="1.25" stroke-linecap="square" stroke-miterlimit="10" d="  M382.881,430.515c20.099-18.405,30.146-7.382,51.002-1.125c12.553,3.766,20.65,24.375,1.945,24.375  C412.099,453.765,382.346,463.726,382.881,430.515z"/>
<path fill-rule="evenodd" clip-rule="evenodd" fill="#82B9D7" stroke="#000000" stroke-width="1.25" stroke-linecap="square" stroke-miterlimit="10" d="  M334.881,462.015c21.245-21.405,29.741-45.007,56.25-25.125c22.445,16.834,31.477-13.298,42.377-10.875  c28.851,6.411,45.687,39.812,33.375,69.75c-3.299,8.021,5.208,12.75-6.069,12.75c-19.25,0-38.5,0-57.75,0  c-34.392,0-34.116-2.445-32.183-36.75C357.032,516.195,304.634,504.036,334.881,462.015z"/>
<path fill-rule="evenodd" clip-rule="evenodd" fill="#EBCBA7" stroke="#000000" stroke-width="1.25" stroke-linecap="square" stroke-miterlimit="10" d="  M433.883,399.015C440.95,418.002,450.794,387.846,433.883,399.015L433.883,399.015z"/>
<path fill-rule="evenodd" clip-rule="evenodd" fill="#EBCBA7" stroke="#000000" stroke-width="1.25" stroke-linecap="square" stroke-miterlimit="10" d="  M375.381,406.515C392.302,417.697,382.217,387.869,375.381,406.515L375.381,406.515z"/>
<path fill-rule="evenodd" clip-rule="evenodd" fill="#EBCBA7" stroke="#000000" stroke-width="1.25" stroke-linecap="square" stroke-miterlimit="10" d="  M436.133,379.515c12.452,46.059-49.015,69.767-55.502,14.625C376.027,355.012,426.839,338.775,436.133,379.515z"/>
<path fill-rule="evenodd" clip-rule="evenodd" fill="#FFFFFF" stroke="#000000" stroke-linecap="square" stroke-miterlimit="10" d="  M508.133,373.515c0.148,41.118-63.75,41.134-63.75,0S508.281,332.397,508.133,373.515z"/>
<path fill-rule="evenodd" clip-rule="evenodd" fill="#FFFFFF" d="M475.883,396.765v6V396.765z"/>
<line fill="none" stroke="#000000" stroke-linecap="square" stroke-miterlimit="10" x1="475.883" y1="396.765" x2="475.883" y2="402.765"/>
<path fill-rule="evenodd" clip-rule="evenodd" fill="#FFFFFF" d="M475.883,344.265v6.75V344.265z"/>
<line fill="none" stroke="#000000" stroke-linecap="square" stroke-miterlimit="10" x1="475.883" y1="344.265" x2="475.883" y2="351.015"/>
<path fill-rule="evenodd" clip-rule="evenodd" fill="#FFFFFF" d="M499.133,373.515h6H499.133z"/>
<line fill="none" stroke="#000000" stroke-linecap="square" stroke-miterlimit="10" x1="499.133" y1="373.515" x2="505.133" y2="373.515"/>
<path fill-rule="evenodd" clip-rule="evenodd" fill="#FFFFFF" d="M447.383,373.515h6H447.383z"/>
<line fill="none" stroke="#000000" stroke-linecap="square" stroke-miterlimit="10" x1="447.383" y1="373.515" x2="453.383" y2="373.515"/>
<path fill-rule="evenodd" clip-rule="evenodd" fill="#FFFFFF" d="M492.383,390.015l4.5,4.5L492.383,390.015z"/>
<line fill="none" stroke="#000000" stroke-linecap="square" stroke-miterlimit="10" x1="492.383" y1="390.015" x2="496.883" y2="394.515"/>
<path fill-rule="evenodd" clip-rule="evenodd" fill="#FFFFFF" d="M455.633,353.265l4.5,3.75L455.633,353.265z"/>
<line fill="none" stroke="#000000" stroke-linecap="square" stroke-miterlimit="10" x1="455.633" y1="353.265" x2="460.133" y2="357.015"/>
<path fill-rule="evenodd" clip-rule="evenodd" fill="#FFFFFF" d="M492.383,357.015l4.5-3.75L492.383,357.015z"/>
<line fill="none" stroke="#000000" stroke-linecap="square" stroke-miterlimit="10" x1="492.383" y1="357.015" x2="496.883" y2="353.265"/>
<path fill-rule="evenodd" clip-rule="evenodd" fill="#FFFFFF" d="M455.633,394.515l4.5-4.5L455.633,394.515z"/>
<line fill="none" stroke="#000000" stroke-linecap="square" stroke-miterlimit="10" x1="455.633" y1="394.515" x2="460.133" y2="390.015"/>
<path fill-rule="evenodd" clip-rule="evenodd" fill="#F8130D" stroke="#000000" stroke-width="1.25" stroke-linecap="square" stroke-miterlimit="10" d="  M498.383,355.515C490.961,354.759,491.02,354.766,498.383,355.515L498.383,355.515z"/>
<path fill-rule="evenodd" clip-rule="evenodd" stroke="#000000" stroke-linecap="square" stroke-miterlimit="10" d="  M475.133,354.765c-0.871,6.733-1.5,13.502-2.25,20.25c2-0.25,4-0.5,6-0.75C477.633,367.767,476.476,361.245,475.133,354.765z"/>
<path fill-rule="evenodd" clip-rule="evenodd" stroke="#000000" stroke-linecap="square" stroke-miterlimit="10" d="  M479.633,373.515C472.151,373.515,472.151,373.515,479.633,373.515L479.633,373.515z"/>
<path fill-rule="evenodd" clip-rule="evenodd" fill="#82B9D7" d="M442.883,474.765l-0.75,32.25L442.883,474.765z"/>
<line fill="none" stroke="#000000" stroke-width="1.25" stroke-linecap="square" stroke-miterlimit="10" x1="442.883" y1="474.765" x2="442.133" y2="507.015"/>
<path fill-rule="evenodd" clip-rule="evenodd" fill="#EBCBA7" stroke="#000000" stroke-width="1.25" stroke-linecap="square" stroke-miterlimit="10" d="  M343.131,451.515c-9.341-12.625,8.688-34.647,17.25-39.75c12.882-7.676,9.683-0.149,7.5,18c-1.777,14.782-7.906,27.872-9.75,43.5  C344.733,471.49,337.454,464.416,343.131,451.515z"/>
<path fill="none" stroke="#000000" stroke-width="1.25" stroke-linecap="square" stroke-miterlimit="10" d="M343.131,436.515  c9.052,6.74,13.718,11.754-0.75,7.5"/>
<path fill="none" stroke="#000000" stroke-width="1.25" stroke-linecap="square" stroke-miterlimit="10" d="M347.631,429.765  c6.213,5.118,9.115,10.499,5.25,14.25"/>
<path fill-rule="evenodd" clip-rule="evenodd" fill="#FFFFFF" d="M378.381,464.265L378.381,464.265L378.381,464.265z"/>
<line fill="none" stroke="#000000" stroke-width="1.25" stroke-linecap="square" stroke-miterlimit="10" x1="378.381" y1="464.265" x2="378.381" y2="464.265"/>
<path fill-rule="evenodd" clip-rule="evenodd" fill="#EBCBA7" d="M354.381,423.015c2.965,5.737,6.42,9.726,6.75,16.5  C353.029,438.54,355.402,431.74,354.381,423.015z"/>
<path fill="none" stroke="#000000" stroke-width="1.25" stroke-linecap="square" stroke-miterlimit="10" d="M354.381,423.015  c5.815,7.302,10.929,15.479,1.5,15.75"/>
<path fill-rule="evenodd" clip-rule="evenodd" fill="#EBCBA7" d="M360.381,434.265c-3.193-3.09-6.378-1.608-8.25-6  c4.049-1.572,7.828-1.65,12.75-1.5C363.381,429.265,361.881,431.765,360.381,434.265z"/>
<path fill="none" stroke="#000000" stroke-width="1.25" stroke-linecap="square" stroke-miterlimit="10" d="M360.381,434.265  c-3.843-1.99-6.601-2.13-8.25-6c3.895-1.916,7.97-1.646,12.75-1.5"/>
<path fill-rule="evenodd" clip-rule="evenodd" fill="#EBCBA7" d="M342.381,456.015c7.169,1.991,9.376,7.23,17.25,1.5  C353.899,457.017,348.129,456.192,342.381,456.015z"/>
<path fill="none" stroke="#000000" stroke-width="1.25" stroke-linecap="square" stroke-miterlimit="10" d="M342.381,456.015  c5.238,5.065,11.432,5.734,17.25,1.5"/>
<path fill-rule="evenodd" clip-rule="evenodd" fill="#82B9D7" d="M360.381,476.265c1-3.75,2-7.5,3-11.25  c-15.231,4.646-30.697-11.844-35.25,10.5C338.881,475.765,349.631,476.015,360.381,476.265z"/>
<path fill="none" stroke="#000000" stroke-linecap="square" stroke-miterlimit="10" d="M360.381,476.265c1-3.75,2-7.5,3-11.25  c-15.231,4.646-30.697-11.844-35.25,10.5"/>
<path fill-rule="evenodd" clip-rule="evenodd" d="M337.881,412.515c-1.75-3.5-3.5-7-5.25-10.5c-2,3.75-4,7.5-6,11.25  C330.381,413.015,334.131,412.765,337.881,412.515z"/>
<path fill="none" stroke="#000000" stroke-width="1.25" stroke-linecap="square" stroke-miterlimit="10" d="M355.131,405.015  c-8.789-1.27-17.371,0.827-24.75,6"/>
</svg>