<svg xmlns="http://www.w3.org/2000/svg" xmlns:xlink="http://www.w3.org/1999/xlink" version="1.1" id="Layer_1" x="0px" y="0px" enable-background="new 0 0 822.05 841.89" xml:space="preserve" viewBox="218.73 264.72 383.53 313.31">
<path fill="none" stroke="#000000" stroke-width="2" stroke-linecap="square" stroke-miterlimit="10" d="M319.5,476.64  c-10.234-10.244-112.177-121.5-64.5-121.5c48.933,0,75.121,79.851,69,118.5c-16.896-14.571-130.762-96.487-87-123  c41.657-25.238,81.048,101.027,90,123c-22.941,27.055-108.778-53.23-107.25-87c3.084-68.157,93.14,68.799,103.5,82.5"/>
<path fill="none" stroke="#000000" stroke-width="2" stroke-linecap="square" stroke-miterlimit="10" d="M314.25,484.14  c-20.265-14.663-111.725-82.801-81.75-117c24.935-28.449,82.948,87.14,91.5,106.5"/>
<path fill-rule="evenodd" clip-rule="evenodd" fill="#3B3B3B" stroke="#000000" stroke-width="2" stroke-linecap="square" stroke-miterlimit="10" d="  M313.5,487.14c20.369-47.603,96.015,66.84,88.5,83.25C386.648,603.913,320.901,500.378,313.5,487.14z"/>
<path fill-rule="evenodd" clip-rule="evenodd" fill="#FFFFFF" stroke="#000000" stroke-width="2" stroke-linecap="square" stroke-miterlimit="10" d="  M394.5,564.39C379.226,575.701,379.671,552.648,394.5,564.39L394.5,564.39z"/>
<path fill="none" stroke="#000000" stroke-width="2" stroke-linecap="square" stroke-miterlimit="10" d="M389.25,394.89  c-10.368-10.378-111.957-121.5-64.125-121.5c50.225,0,72.804,79.012,69.375,117.75c-17.665-12.85-131.083-96.822-87.75-123  c35.622-21.52,98.004,107.406,89.25,123.75c-16.482,30.771-106.5-58.36-106.5-89.625c0-63.711,95.285,73.771,103.5,85.125"/>
<path fill="none" stroke="#000000" stroke-width="2" stroke-linecap="square" stroke-miterlimit="10" d="M384.75,401.64  c-18.373-12.564-116.905-88.023-81-119.25c26.411-22.97,81.424,90.392,90.75,108.75"/>
<path fill-rule="evenodd" clip-rule="evenodd" fill="#3B3B3B" stroke="#000000" stroke-width="2" stroke-linecap="square" stroke-miterlimit="10" d="  M383.25,405.39c20.246-49.759,96.058,68.242,88.5,83.25C455.645,520.621,390.935,419.598,383.25,405.39z"/>
<path fill-rule="evenodd" clip-rule="evenodd" fill="#FFFFFF" stroke="#000000" stroke-width="2" stroke-linecap="square" stroke-miterlimit="10" d="  M465,481.89C449.452,490.661,449.368,474.1,465,481.89L465,481.89z"/>
<path fill="none" stroke="#000000" stroke-width="2" stroke-linecap="square" stroke-miterlimit="10" d="M518.25,398.64  c-10.348-10.358-111.987-121.5-64.125-121.5c50.188,0,72.933,79.817,69.375,118.5c-17.587-13.921-130.699-96.415-87.75-123  c41.757-25.848,81.123,101.211,90,123c-22.384,27.164-108.35-53.639-107.25-87c2.283-69.267,93.672,69.671,103.5,82.5"/>
<path fill="none" stroke="#000000" stroke-width="2" stroke-linecap="square" stroke-miterlimit="10" d="M513.75,406.14  c-19.073-12.665-115.747-87.933-81-119.25c26.185-23.601,81.785,90.169,90.75,108.75"/>
<path fill-rule="evenodd" clip-rule="evenodd" fill="#3B3B3B" stroke="#000000" stroke-width="2" stroke-linecap="square" stroke-miterlimit="10" d="  M512.25,409.14c20.553-48.032,95.866,66.787,88.5,83.25C585.947,525.472,519.449,422.451,512.25,409.14z"/>
<path fill-rule="evenodd" clip-rule="evenodd" fill="#FFFFFF" stroke="#000000" stroke-width="2" stroke-linecap="square" stroke-miterlimit="10" d="  M594,486.39C578.299,494.69,578.585,477.738,594,486.39L594,486.39z"/>
</svg>