<svg xmlns="http://www.w3.org/2000/svg" xmlns:xlink="http://www.w3.org/1999/xlink" version="1.1" id="Layer_1" x="0px" y="0px" enable-background="new 0 0 822.05 841.89" xml:space="preserve" viewBox="214.04 263.33 392.74 315.43">
<path fill-rule="evenodd" clip-rule="evenodd" fill="#B5B5B5" stroke="#000000" stroke-width="2" stroke-linecap="square" stroke-miterlimit="10" d="  M218,310.64c44.153-40.347,68.021-69.51,112.5-21c15.6,17.013,32.37,30.542,48.879,47.815  c17.297,18.098,34.594,36.195,51.891,54.293c7.312,7.651-18.115,31.523-26.268,37.864C376.268,451.958,348,376.707,319.25,374.39  c-17.202-1.386-20.654,22.992-39,27.75C228.943,415.448,206.463,347.612,218,310.64z"/>
<path fill-rule="evenodd" clip-rule="evenodd" fill="#B5B5B5" d="M219.5,307.64c37.437-5.609,47.392,10.642,71.25,34.5  c31.926,31.926,77.809,57.48,114.002,85.5C343.001,387.64,281.25,347.64,219.5,307.64z"/>
<path fill="none" stroke="#000000" stroke-width="2" stroke-linecap="square" stroke-miterlimit="10" d="M219.5,307.64  c37.437-5.609,47.392,10.642,71.25,34.5c31.926,31.926,77.809,57.48,114.002,85.5"/>
<path fill-rule="evenodd" clip-rule="evenodd" fill="#B5B5B5" d="M268.25,315.89l47.25-45L268.25,315.89z"/>
<line fill="none" stroke="#000000" stroke-width="2" stroke-linecap="square" stroke-miterlimit="10" x1="268.25" y1="315.89" x2="315.5" y2="270.89"/>
<path fill-rule="evenodd" clip-rule="evenodd" fill="#3B3B3B" stroke="#000000" stroke-width="2" stroke-linecap="square" stroke-miterlimit="10" d="  M285.5,330.14c14.75-14.5,29.5-29,44.25-43.5c5.243,10.727,13.104,19.285,24,24C343.364,321.768,286.81,386.133,285.5,330.14z"/>
<path fill-rule="evenodd" clip-rule="evenodd" fill="#B5B5B5" stroke="#000000" stroke-width="2" stroke-linecap="square" stroke-miterlimit="10" d="  M394.25,397.64c3.645-5.227,8.019-10.022,12.002-15c1,1.5,2,3,3,4.5C405.133,395.034,398.538,395.517,394.25,397.64z"/>
<path fill-rule="evenodd" clip-rule="evenodd" fill="#B5B5B5" stroke="#000000" stroke-width="2" stroke-linecap="square" stroke-miterlimit="10" d="  M236,291.89c-7.975-17.016,7.554-22.75,22.5-17.25C251,280.39,243.5,286.14,236,291.89z"/>
<path fill-rule="evenodd" clip-rule="evenodd" fill="#B5B5B5" stroke="#000000" stroke-width="2" stroke-linecap="square" stroke-miterlimit="10" d="  M390.5,339.14c43.252-39.523,68.997-69.154,113.25-21c15.554,16.925,31.898,30.83,48.366,48.053  c17.457,18.258,34.914,36.516,52.371,54.773c7.337,7.674-18.575,31.418-26.793,37.701c-27.942,21.368-57.219-54.025-85.194-55.777  c-17.504-1.096-21.329,24.029-39.75,28.5C401.698,443.78,379.649,375.909,390.5,339.14z"/>
<path fill-rule="evenodd" clip-rule="evenodd" fill="#B5B5B5" d="M392.75,336.89c36.309-9.146,48.744,11.994,71.25,34.5  c31.686,31.686,77.292,57.435,113.25,85.5C515.75,416.89,454.25,376.89,392.75,336.89z"/>
<path fill="none" stroke="#000000" stroke-width="2" stroke-linecap="square" stroke-miterlimit="10" d="M392.75,336.89  c36.309-9.146,48.744,11.994,71.25,34.5c31.686,31.686,77.292,57.435,113.25,85.5"/>
<path fill-rule="evenodd" clip-rule="evenodd" fill="#B5B5B5" d="M441.5,345.14l47.25-45.75L441.5,345.14z"/>
<line fill="none" stroke="#000000" stroke-width="2" stroke-linecap="square" stroke-miterlimit="10" x1="441.5" y1="345.14" x2="488.75" y2="299.39"/>
<path fill-rule="evenodd" clip-rule="evenodd" fill="#3B3B3B" stroke="#000000" stroke-width="2" stroke-linecap="square" stroke-miterlimit="10" d="  M458,358.64c14.75-14.5,29.5-29,44.25-43.5c5.318,10.745,12.822,19.726,24,24c-11.087,12.297-31.072,44.556-45.75,43.5  C469.543,381.852,458.872,368.345,458,358.64z"/>
<path fill-rule="evenodd" clip-rule="evenodd" fill="#B5B5B5" stroke="#000000" stroke-width="2" stroke-linecap="square" stroke-miterlimit="10" d="  M567.5,426.14c3.634-4.992,8.021-9.524,12-14.25C581.115,422.823,573.501,423.574,567.5,426.14z"/>
<path fill-rule="evenodd" clip-rule="evenodd" fill="#B5B5B5" stroke="#000000" stroke-width="2" stroke-linecap="square" stroke-miterlimit="10" d="  M409.252,321.14c-8.305-16.284,6.927-23.248,21.748-18C423.751,309.14,416.501,315.14,409.252,321.14z"/>
<path fill-rule="evenodd" clip-rule="evenodd" fill="#B5B5B5" stroke="#000000" stroke-width="2" stroke-linecap="square" stroke-miterlimit="10" d="  M257,454.64c44.153-40.347,68.021-69.51,112.5-21c15.6,17.013,32.37,30.543,48.879,47.815  c17.297,18.098,34.594,36.195,51.891,54.293c7.312,7.65-18.117,31.522-26.27,37.864c-28.73,22.346-57.002-52.906-85.75-55.223  c-17.202-1.387-20.654,22.991-39,27.75C267.943,559.448,245.463,491.612,257,454.64z"/>
<path fill-rule="evenodd" clip-rule="evenodd" fill="#B5B5B5" d="M258.5,451.64c37.437-5.609,47.392,10.642,71.25,34.5  c31.926,31.926,77.808,57.48,114,85.5C382,531.64,320.25,491.64,258.5,451.64z"/>
<path fill="none" stroke="#000000" stroke-width="2" stroke-linecap="square" stroke-miterlimit="10" d="M258.5,451.64  c37.437-5.609,47.392,10.642,71.25,34.5c31.926,31.926,77.808,57.48,114,85.5"/>
<path fill-rule="evenodd" clip-rule="evenodd" fill="#B5B5B5" d="M307.25,459.89l47.25-45L307.25,459.89z"/>
<line fill="none" stroke="#000000" stroke-width="2" stroke-linecap="square" stroke-miterlimit="10" x1="307.25" y1="459.89" x2="354.5" y2="414.89"/>
<path fill-rule="evenodd" clip-rule="evenodd" fill="#3B3B3B" stroke="#000000" stroke-width="2" stroke-linecap="square" stroke-miterlimit="10" d="  M324.5,474.14c14.75-14.5,29.5-29,44.25-43.5c5.243,10.727,13.104,19.285,24,24C382.364,465.768,325.81,530.133,324.5,474.14z"/>
<path fill-rule="evenodd" clip-rule="evenodd" fill="#B5B5B5" stroke="#000000" stroke-width="2" stroke-linecap="square" stroke-miterlimit="10" d="  M433.25,541.64c3.644-5.227,8.018-10.022,12-15c1,1.5,2,3,3,4.5C444.132,539.035,437.537,539.517,433.25,541.64z"/>
<path fill-rule="evenodd" clip-rule="evenodd" fill="#B5B5B5" stroke="#000000" stroke-width="2" stroke-linecap="square" stroke-miterlimit="10" d="  M275,435.89c-7.975-17.016,7.554-22.75,22.5-17.25C290,424.39,282.5,430.14,275,435.89z"/>
</svg>