<svg xmlns="http://www.w3.org/2000/svg" xmlns:xlink="http://www.w3.org/1999/xlink" version="1.1" id="Layer_1" x="0px" y="0px" enable-background="new 0 0 822.05 841.89" xml:space="preserve" viewBox="308.86 337.66 203.03 166.49">
<path fill-rule="evenodd" clip-rule="evenodd" fill="#EDCBA6" stroke="#000000" stroke-width="1.25" stroke-linecap="square" stroke-miterlimit="10" d="  M397.236,394.018c-14.067-13.902-37.766-6.032-40.5,13.5C372.164,408.963,396.697,415.909,397.236,394.018z"/>
<path fill-rule="evenodd" clip-rule="evenodd" fill="#D2D2D2" stroke="#000000" stroke-width="1.25" stroke-linecap="square" stroke-miterlimit="10" d="  M405.486,393.268c-8.02-1.623-22.779,3.984-33,6c-6.26,1.235-6.706-13.878-19.5-4.5c-6.316,4.63-7.222,34.767-8.25,41.25  c23.25,0,46.501,0,69.752,0C412.378,421.634,412.943,405.96,405.486,393.268z"/>
<path fill-rule="evenodd" clip-rule="evenodd" fill="#EDCBA6" stroke="#000000" stroke-width="1.25" stroke-linecap="square" stroke-miterlimit="10" d="  M366.486,379.018c-2.743,1.818-2.127,10.697-6-2.25C361.308,376.611,367.515,378.336,366.486,379.018z"/>
<path fill-rule="evenodd" clip-rule="evenodd" fill="#EDCBA6" stroke="#000000" stroke-width="1.25" stroke-linecap="square" stroke-miterlimit="10" d="  M399.486,370.018C393.136,369.545,391.844,369.449,399.486,370.018L399.486,370.018z"/>
<path fill-rule="evenodd" clip-rule="evenodd" fill="#EDCBA6" stroke="#000000" stroke-width="1.25" stroke-linecap="square" stroke-miterlimit="10" d="  M358.986,367.768c3.459,23.325,32.555,33.6,37.5,6C402.27,341.492,356.501,336.225,358.986,367.768z"/>
<path fill-rule="evenodd" clip-rule="evenodd" fill="#EDCBA6" stroke="#000000" stroke-width="1.25" stroke-linecap="square" stroke-miterlimit="10" d="  M361.986,435.268c-10.102-10.071-18.654-8.774-30-2.25C300.263,451.261,361.301,463.087,361.986,435.268z"/>
<path fill-rule="evenodd" clip-rule="evenodd" fill="#D2D2D2" stroke="#000000" stroke-width="1.25" stroke-linecap="square" stroke-miterlimit="10" d="  M370.236,434.518c-8.759-0.866-22.927,3.488-33,5.25c-6.573,1.149-7.028-13.537-19.5-4.5c-6.515,4.721-7.149,35.396-8.25,42  c23.25,0,46.5,0,69.75,0C377.082,462.499,377.26,447.698,370.236,434.518z"/>
<path fill-rule="evenodd" clip-rule="evenodd" fill="#EDCBA6" stroke="#000000" stroke-width="1.25" stroke-linecap="square" stroke-miterlimit="10" d="  M331.236,419.518C326.093,423.697,325.238,424.391,331.236,419.518L331.236,419.518z"/>
<path fill-rule="evenodd" clip-rule="evenodd" fill="#EDCBA6" stroke="#000000" stroke-width="1.25" stroke-linecap="square" stroke-miterlimit="10" d="  M364.236,411.268C358.417,410.604,356.67,410.405,364.236,411.268L364.236,411.268z"/>
<path fill-rule="evenodd" clip-rule="evenodd" fill="#EDCBA6" stroke="#000000" stroke-width="1.25" stroke-linecap="square" stroke-miterlimit="10" d="  M323.736,408.268c3.412,23.289,32.045,34.391,37.5,6.75C367.473,383.417,322.188,376.752,323.736,408.268z"/>
<path fill-rule="evenodd" clip-rule="evenodd" fill="#EDCBA6" stroke="#000000" stroke-width="1.25" stroke-linecap="square" stroke-miterlimit="10" d="  M410.736,460.768c-10.229-9.153-18.736-8.253-30-1.5C349.267,478.134,411.814,489.624,410.736,460.768z"/>
<path fill-rule="evenodd" clip-rule="evenodd" fill="#D2D2D2" stroke="#000000" stroke-width="1.25" stroke-linecap="square" stroke-miterlimit="10" d="  M418.988,460.018c-10.01,0.198-21.418,3.986-33.002,6c-6.238,1.085-6.426-13.443-18.75-4.5c-7.662,5.561-7.188,34.354-8.25,42  c23,0,46.001,0,69.002,0C426.015,488.939,426.397,472.921,418.988,460.018z"/>
<path fill-rule="evenodd" clip-rule="evenodd" fill="#EDCBA6" stroke="#000000" stroke-width="1.25" stroke-linecap="square" stroke-miterlimit="10" d="  M379.986,445.768C374.834,449.96,374.969,449.851,379.986,445.768L379.986,445.768z"/>
<path fill-rule="evenodd" clip-rule="evenodd" fill="#EDCBA6" stroke="#000000" stroke-width="1.25" stroke-linecap="square" stroke-miterlimit="10" d="  M412.986,436.768C405.715,437.334,407.129,437.224,412.986,436.768L412.986,436.768z"/>
<path fill-rule="evenodd" clip-rule="evenodd" fill="#EDCBA6" stroke="#000000" stroke-width="1.25" stroke-linecap="square" stroke-miterlimit="10" d="  M373.236,434.518c2.353,23.211,32.147,33.771,37.5,6.75C417.094,409.174,369.338,402.535,373.236,434.518z"/>
<path fill-rule="evenodd" clip-rule="evenodd" fill="#FF0000" stroke="#000000" stroke-width="1.25" stroke-linecap="square" stroke-miterlimit="10" d="  M447.488,448.768c-2.617-26.672,14.015-37.028,24.75-58.5c13.215-26.43-23.382-25.36-37.5-15.75  c-5.461-17.375-13.521-23.929,3.75-31.125c10.68-4.45,26.82-6.473,38.25-4.125c18.928,3.888,33.716,15.606,34.5,36  c0.699,18.181-12.011,26.029-20.25,39.75C473.8,443.644,485.709,448.768,447.488,448.768z M462.488,502.768  c-27.438-0.415-27.264-42.567,0-42.75C490.035,459.833,490.246,503.264,462.488,502.768z"/>
</svg>