<svg xmlns="http://www.w3.org/2000/svg" xmlns:xlink="http://www.w3.org/1999/xlink" version="1.1" id="Layer_1" x="0px" y="0px" enable-background="new 0 0 822.05 841.89" xml:space="preserve" viewBox="310.71 333.72 197.82 177.54">
<path fill-rule="evenodd" clip-rule="evenodd" fill="#E8CAA7" stroke="#000000" stroke-width="1.25" stroke-linecap="square" stroke-miterlimit="10" d="  M442.128,420.515c-27.606-15.322-30.437-12.591-58.875-2.25c-12.178,4.428-24.322,28.5-4.33,28.5  C416.255,446.765,431.588,457.405,442.128,420.515z"/>
<path fill-rule="evenodd" clip-rule="evenodd" fill="#82B9D7" stroke="#000000" stroke-width="1.25" stroke-linecap="square" stroke-miterlimit="10" d="  M457.128,419.015c-18.759-9.98-23.304,10.961-41.625,14.625c-22.1,4.42-25.551-21.1-47.25-18  c-35.137,5.02-58.971,99.462-12.375,87.375c0.243,2.061-0.007,4.061-0.75,6c24.777,0,49.554,0,74.331,0  c24.422,0,45.987,7.925,53.169-11.25C490.072,477.89,479.764,427.831,457.128,419.015z"/>
<path fill-rule="evenodd" clip-rule="evenodd" fill="#E8CAA7" stroke="#000000" stroke-width="1.25" stroke-linecap="square" stroke-miterlimit="10" d="  M385.878,384.515C378.636,408.252,366.227,368.06,385.878,384.515L385.878,384.515z"/>
<path fill-rule="evenodd" clip-rule="evenodd" fill="#E8CAA7" stroke="#000000" stroke-width="1.25" stroke-linecap="square" stroke-miterlimit="10" d="  M448.128,394.265C427.658,408.158,442.529,370.307,448.128,394.265L448.128,394.265z"/>
<path fill-rule="evenodd" clip-rule="evenodd" fill="#E8CAA7" stroke="#000000" stroke-width="1.25" stroke-linecap="square" stroke-miterlimit="10" d="  M381.378,360.515c-9.058,44.464,39.362,82.796,60.75,32.25C463.521,342.207,399.265,308.269,381.378,360.515z"/>
<path fill-rule="evenodd" clip-rule="evenodd" fill="#FFFFFF" stroke="#000000" stroke-width="1.25" stroke-linecap="square" stroke-miterlimit="10" d="  M329.628,337.265c18.037-1.207,16.755,15.506,12,31.5c17.443-25.726,3.265,33.964-17.25,26.25  C305.911,388.071,306.511,334.564,329.628,337.265z"/>
<path fill-rule="evenodd" clip-rule="evenodd" fill="#FFFFFF" d="M337.878,339.515l-0.75,21L337.878,339.515z"/>
<line fill="none" stroke="#000000" stroke-width="1.25" stroke-linecap="square" stroke-miterlimit="10" x1="337.878" y1="339.515" x2="337.128" y2="360.515"/>
<path fill-rule="evenodd" clip-rule="evenodd" fill="#FFFFFF" d="M330.378,336.515v23.25V336.515z"/>
<line fill="none" stroke="#000000" stroke-width="1.25" stroke-linecap="square" stroke-miterlimit="10" x1="330.378" y1="336.515" x2="330.378" y2="359.765"/>
<path fill-rule="evenodd" clip-rule="evenodd" fill="#FFFFFF" d="M322.128,338.765v19.5V338.765z"/>
<line fill="none" stroke="#000000" stroke-width="1.25" stroke-linecap="square" stroke-miterlimit="10" x1="322.128" y1="338.765" x2="322.128" y2="358.265"/>
<path fill-rule="evenodd" clip-rule="evenodd" d="M407.628,382.265c-1.976-0.182-2.612,5.153-4.5-0.75  C406.691,377.912,406.227,382.136,407.628,382.265z"/>
<path fill-rule="evenodd" clip-rule="evenodd" d="M424.128,385.265C419.915,384.6,418.452,384.369,424.128,385.265L424.128,385.265z  "/>
<path fill="none" stroke="#000000" stroke-width="0.75" stroke-linecap="square" stroke-miterlimit="10" d="M409.128,390.515  c1.437,2.874,3.489,3.533,6,1.5"/>
<path fill="none" stroke="#000000" stroke-width="0.75" stroke-linecap="square" stroke-miterlimit="10" d="M399.378,377.765  c4.23-2.53,8.203-2.123,11.25,1.5"/>
<path fill="none" stroke="#000000" stroke-width="0.75" stroke-linecap="square" stroke-miterlimit="10" d="M429.378,381.515  c-3.169-3.646-7.188-4.142-11.25-1.5"/>
<path fill-rule="evenodd" clip-rule="evenodd" fill="#FB0F0C" d="M454.128,468.515v40.5V468.515z"/>
<line fill="none" stroke="#000000" stroke-width="1.25" stroke-linecap="square" stroke-miterlimit="10" x1="454.128" y1="468.515" x2="454.128" y2="509.015"/>
<path fill-rule="evenodd" clip-rule="evenodd" stroke="#000000" stroke-linecap="square" stroke-miterlimit="10" d="  M404.628,400.265c5.211,0.707,9.846,1.478,15,0.75C412.846,408.704,411.274,402.393,404.628,400.265z"/>
<path fill-rule="evenodd" clip-rule="evenodd" fill="#E8CAA7" stroke="#000000" stroke-width="1.25" stroke-linecap="square" stroke-miterlimit="10" d="  M446.628,430.265c-17.863,9.656-58.728,22.834-57,48c11.924,3.942,41.342-7.191,49.5-17.25  C401.419,467.93,446.112,438.419,446.628,430.265z"/>
<path fill-rule="evenodd" clip-rule="evenodd" fill="#E8CAA7" d="M423.378,453.515c1.697,4.104,8.873,4.69,6.75,14.25  c13.308-12.891,1.035-23.997-15-21C417.878,449.015,420.628,451.265,423.378,453.515z"/>
<path fill="none" stroke="#000000" stroke-width="1.25" stroke-linecap="square" stroke-miterlimit="10" d="M423.378,453.515  c1.697,4.104,8.873,4.69,6.75,14.25c13.308-12.891,1.035-23.997-15-21"/>
<path fill-rule="evenodd" clip-rule="evenodd" fill="#E8CAA7" d="M418.878,458.765c1.699,2.391,4.803,3.572,4.5,8.25  C425.761,456.335,425.699,451.781,418.878,458.765z"/>
<path fill="none" stroke="#000000" stroke-width="1.25" stroke-linecap="square" stroke-miterlimit="10" d="M418.878,458.765  c1.699,2.391,4.803,3.572,4.5,8.25c8.479-10.273-0.716-8.307-5.25-13.5"/>
<path fill-rule="evenodd" clip-rule="evenodd" fill="#82B9D7" d="M354.378,470.015c22.887-9.918,42.076-29.848,55.125-3.75  c11.547,23.095-39.035,30.068-54.375,36C354.878,491.515,354.628,480.765,354.378,470.015z"/>
<path fill="none" stroke="#000000" stroke-width="1.25" stroke-linecap="square" stroke-miterlimit="10" d="M354.378,470.015  c22.887-9.918,42.076-29.848,55.125-3.75c11.547,23.095-39.035,30.068-54.375,36"/>
<path fill-rule="evenodd" clip-rule="evenodd" fill="#FB0F0C" stroke="#000000" stroke-width="1.25" stroke-linecap="square" stroke-miterlimit="10" d="  M480.378,386.765c-0.378-12.499,24.573-46.373-6-33c-10.757-21.129,28.075-19.202,33-2.25  C511.608,366.074,489.292,388.343,480.378,386.765z M486.378,410.015C446.488,392.075,527.134,392.751,486.378,410.015  L486.378,410.015z"/>
</svg>