<svg xmlns="http://www.w3.org/2000/svg" xmlns:xlink="http://www.w3.org/1999/xlink" version="1.1" id="Layer_1" x="0px" y="0px" enable-background="new 0 0 822.05 841.89" xml:space="preserve" viewBox="316.05 336.02 188 170.62">
<path fill-rule="evenodd" clip-rule="evenodd" fill="#D2D1D2" stroke="#000000" stroke-width="1.25" stroke-linecap="square" stroke-miterlimit="10" d="  M354.174,482.888c-2.866-8.974-0.33-15.053,12-15c-13.769-2.153-24.698-6.778-36.75-13.5c-0.53,1.677-0.03,2.927,1.5,3.75  c-9.205,1.868-6.237-0.724-5.25,5.25c-5.129,1.177-5.142,0.209-9,3.75c2.506,0.871,5.061,1.044,7.5,2.25  c-5.882,3.646-6.497,0.77,0.75,5.25C319.583,486.08,344.82,485.749,354.174,482.888z"/>
<path fill-rule="evenodd" clip-rule="evenodd" fill="#99330C" stroke="#000000" stroke-width="1.25" stroke-linecap="square" stroke-miterlimit="10" d="  M493.678,489.638c-1.631-1.199-4.795-1.018-6.75-1.5c5.598-2.794,10.788-7.986,16.5-10.5c-6.467,1.315-11.784,1.416-18.75,4.5  c2.957-3.177,5.902-7.956,8.25-10.5c-5.545,3.576-12.73,6.418-18,10.5c3.997-3.091,8.416-8.695,12-12  c-6.914,2.238-11.741,2.335-18.75,7.5c1.815-3.107,4.02-6.862,6-9.75c-4.838,1.899-8.093,3.041-12.75,6  c-3.586-1.055-5.083-3.153-15,3c0.068-11.522-0.668-5.948-9-2.25c-10.36-2.538-23.408-2.835-37.504-2.25  c23.262,22.268,24.402,20.904,53.629,28.875C467.33,505.021,490.602,501.788,493.678,489.638z"/>
<path fill-rule="evenodd" clip-rule="evenodd" fill="#D2D1D2" stroke="#000000" stroke-width="1.25" stroke-linecap="square" stroke-miterlimit="10" d="  M419.428,500.138c25.899-8.991-9.318-21.464-16.504-30c-7.3,5.864-15.607,5.69-15,15.75  C372.897,500.277,404.811,502.801,419.428,500.138z"/>
<path fill-rule="evenodd" clip-rule="evenodd" fill="#D2D1D2" stroke="#000000" stroke-width="1.25" stroke-linecap="square" stroke-miterlimit="10" d="  M424.678,496.388c3.899,2.113,8.025,4.897,12,6.75C432.594,494.106,427.464,497.179,424.678,496.388z"/>
<path fill-rule="evenodd" clip-rule="evenodd" fill="#FFFFFF" stroke="#000000" stroke-width="1.25" stroke-linecap="square" stroke-miterlimit="10" d="  M342.174,404.89C341.174,403.89,341.174,403.89,342.174,404.89L342.174,404.89z"/>
<path fill-rule="evenodd" clip-rule="evenodd" fill="#FFFFFF" stroke="#000000" stroke-width="1.25" stroke-linecap="square" stroke-miterlimit="10" d="  M395.424,411.64L395.424,411.64z"/>
<path fill-rule="evenodd" clip-rule="evenodd" fill="#FFFFFF" stroke="#000000" stroke-width="1.25" stroke-linecap="square" stroke-miterlimit="10" d="  M400.674,473.888C400.674,474.888,400.674,474.888,400.674,473.888L400.674,473.888z"/>
<path fill-rule="evenodd" clip-rule="evenodd" fill="#D2D1D2" stroke="#000000" stroke-linecap="square" stroke-miterlimit="10" d="  M429.178,488.888c5.343,5.927,10.73,7.006,7.5,17.25c-3.035-2.808-9.336-9.601-11.25-12  C425.718,492.472,429.176,488.896,429.178,488.888z"/>
<path fill-rule="evenodd" clip-rule="evenodd" fill="#FFFFFF" stroke="#000000" stroke-width="1.25" stroke-linecap="square" stroke-miterlimit="10" d="  M423.178,488.888C422.354,488.065,422.354,488.065,423.178,488.888L423.178,488.888z"/>
<path fill-rule="evenodd" clip-rule="evenodd" fill="#FFFFFF" stroke="#000000" stroke-width="1.25" stroke-linecap="square" stroke-miterlimit="10" d="  M423.178,488.888C422.291,487.245,422.832,488.247,423.178,488.888L423.178,488.888z"/>
<path fill-rule="evenodd" clip-rule="evenodd" fill="#FFFFFF" stroke="#000000" stroke-width="1.25" stroke-linecap="square" stroke-miterlimit="10" d="  M424.678,488.888C421.947,487.434,421.475,487.182,424.678,488.888L424.678,488.888z"/>
<path fill-rule="evenodd" clip-rule="evenodd" fill="#FFFFFF" stroke="#000000" stroke-width="1.25" stroke-linecap="square" stroke-miterlimit="10" d="  M423.928,488.888C422.942,487.596,421.875,486.197,423.928,488.888L423.928,488.888z"/>
<path fill-rule="evenodd" clip-rule="evenodd" fill="#FFFFFF" stroke="#000000" stroke-width="1.25" stroke-linecap="square" stroke-miterlimit="10" d="  M422.428,488.138C423.251,488.961,423.251,488.961,422.428,488.138L422.428,488.138z"/>
<path fill-rule="evenodd" clip-rule="evenodd" fill="#FFFFFF" stroke="#000000" stroke-width="1.25" stroke-linecap="square" stroke-miterlimit="10" d="  M423.928,488.888C422.229,487.189,422.229,487.189,423.928,488.888L423.928,488.888z"/>
<path fill-rule="evenodd" clip-rule="evenodd" fill="#FFFFFF" stroke="#000000" stroke-width="1.25" stroke-linecap="square" stroke-miterlimit="10" d="  M423.928,488.888C422.339,487.718,421.739,487.277,423.928,488.888L423.928,488.888z"/>
<path fill-rule="evenodd" clip-rule="evenodd" fill="#FFFFFF" stroke="#000000" stroke-width="1.25" stroke-linecap="square" stroke-miterlimit="10" d="  M423.928,488.888C422.346,487.306,422.346,487.306,423.928,488.888L423.928,488.888z"/>
<path fill-rule="evenodd" clip-rule="evenodd" fill="#FFFFFF" stroke="#000000" stroke-width="1.25" stroke-linecap="square" stroke-miterlimit="10" d="  M423.928,488.888C421.761,487.316,422.997,488.212,423.928,488.888L423.928,488.888z"/>
<path fill-rule="evenodd" clip-rule="evenodd" fill="#FFFFFF" stroke="#000000" stroke-width="1.25" stroke-linecap="square" stroke-miterlimit="10" d="  M423.928,488.888C421.674,488.028,422.357,488.289,423.928,488.888L423.928,488.888z"/>
<path fill-rule="evenodd" clip-rule="evenodd" fill="#FFFFFF" stroke="#000000" stroke-width="1.25" stroke-linecap="square" stroke-miterlimit="10" d="  M423.178,488.888C422.354,488.065,422.354,488.065,423.178,488.888L423.178,488.888z"/>
<path fill-rule="evenodd" clip-rule="evenodd" fill="#FFFFFF" stroke="#000000" stroke-width="1.25" stroke-linecap="square" stroke-miterlimit="10" d="  M423.178,488.888C422.354,488.065,422.354,488.065,423.178,488.888L423.178,488.888z"/>
<path fill-rule="evenodd" clip-rule="evenodd" fill="#FFFFFF" stroke="#000000" stroke-width="1.25" stroke-linecap="square" stroke-miterlimit="10" d="  M423.178,488.888C423.178,487.888,423.178,487.888,423.178,488.888L423.178,488.888z"/>
<path fill-rule="evenodd" clip-rule="evenodd" fill="#FFFFFF" stroke="#000000" stroke-width="1.25" stroke-linecap="square" stroke-miterlimit="10" d="  M423.928,488.888C422.229,487.189,422.229,487.189,423.928,488.888L423.928,488.888z"/>
<path fill-rule="evenodd" clip-rule="evenodd" fill="#FFFFFF" stroke="#000000" stroke-width="1.25" stroke-linecap="square" stroke-miterlimit="10" d="  M423.928,488.888C421.773,486.38,422.769,487.539,423.928,488.888L423.928,488.888z"/>
<path fill-rule="evenodd" clip-rule="evenodd" fill="#FFFFFF" stroke="#000000" stroke-width="1.25" stroke-linecap="square" stroke-miterlimit="10" d="  M422.428,488.138C423.251,488.961,423.251,488.961,422.428,488.138L422.428,488.138z"/>
<path fill-rule="evenodd" clip-rule="evenodd" fill="#FFFFFF" stroke="#000000" stroke-width="1.25" stroke-linecap="square" stroke-miterlimit="10" d="  M423.928,488.888C422.925,488.041,421.77,487.063,423.928,488.888L423.928,488.888z"/>
<path fill-rule="evenodd" clip-rule="evenodd" fill="#FFFFFF" stroke="#000000" stroke-width="1.25" stroke-linecap="square" stroke-miterlimit="10" d="  M423.928,488.888C422.925,488.041,421.77,487.063,423.928,488.888L423.928,488.888z"/>
<path fill-rule="evenodd" clip-rule="evenodd" fill="#FFFFFF" stroke="#000000" stroke-width="1.25" stroke-linecap="square" stroke-miterlimit="10" d="  M423.928,488.888C422.346,487.306,422.346,487.306,423.928,488.888L423.928,488.888z"/>
<path fill-rule="evenodd" clip-rule="evenodd" fill="#FFFFFF" stroke="#000000" stroke-width="1.25" stroke-linecap="square" stroke-miterlimit="10" d="  M423.928,488.888C420.941,487.659,423.382,488.664,423.928,488.888L423.928,488.888z"/>
<path fill-rule="evenodd" clip-rule="evenodd" fill="#FFFFFF" stroke="#000000" stroke-width="1.25" stroke-linecap="square" stroke-miterlimit="10" d="  M423.178,488.888C422.354,488.065,422.354,488.065,423.178,488.888L423.178,488.888z"/>
<path fill-rule="evenodd" clip-rule="evenodd" fill="#FFFFFF" stroke="#000000" stroke-width="1.25" stroke-linecap="square" stroke-miterlimit="10" d="  M423.178,488.888C422.354,488.065,422.354,488.065,423.178,488.888L423.178,488.888z"/>
<path fill-rule="evenodd" clip-rule="evenodd" fill="#FFFFFF" stroke="#000000" stroke-width="1.25" stroke-linecap="square" stroke-miterlimit="10" d="  M423.178,488.888C423.178,487.888,423.178,487.888,423.178,488.888L423.178,488.888z"/>
<path fill-rule="evenodd" clip-rule="evenodd" fill="#FFFFFF" stroke="#000000" stroke-width="1.25" stroke-linecap="square" stroke-miterlimit="10" d="  M423.178,488.888C423.178,487.888,423.178,487.888,423.178,488.888L423.178,488.888z"/>
<path fill-rule="evenodd" clip-rule="evenodd" fill="#FFFFFF" stroke="#000000" stroke-width="1.25" stroke-linecap="square" stroke-miterlimit="10" d="  M423.928,488.888C422.54,487.5,422.54,487.5,423.928,488.888L423.928,488.888z"/>
<path fill-rule="evenodd" clip-rule="evenodd" fill="#FFFFFF" stroke="#000000" stroke-width="1.25" stroke-linecap="square" stroke-miterlimit="10" d="  M423.928,488.888C422.346,487.306,422.346,487.306,423.928,488.888L423.928,488.888z"/>
<path fill-rule="evenodd" clip-rule="evenodd" fill="#FFFFFF" stroke="#000000" stroke-width="1.25" stroke-linecap="square" stroke-miterlimit="10" d="  M423.178,488.138C423.178,489.138,423.178,489.138,423.178,488.138L423.178,488.138z"/>
<path fill-rule="evenodd" clip-rule="evenodd" fill="#FFFFFF" stroke="#000000" stroke-width="1.25" stroke-linecap="square" stroke-miterlimit="10" d="  M423.928,488.888C422.532,487.493,422.532,487.493,423.928,488.888L423.928,488.888z"/>
<path fill-rule="evenodd" clip-rule="evenodd" fill="#FFFFFF" stroke="#000000" stroke-width="1.25" stroke-linecap="square" stroke-miterlimit="10" d="  M423.928,488.888C422.532,487.493,422.532,487.493,423.928,488.888L423.928,488.888z"/>
<path fill-rule="evenodd" clip-rule="evenodd" fill="#FFFFFF" stroke="#000000" stroke-width="1.25" stroke-linecap="square" stroke-miterlimit="10" d="  M423.928,488.888C420.941,487.659,423.382,488.664,423.928,488.888L423.928,488.888z"/>
<path fill-rule="evenodd" clip-rule="evenodd" fill="#FFFFFF" stroke="#000000" stroke-width="1.25" stroke-linecap="square" stroke-miterlimit="10" d="  M423.928,488.888C422.499,488.138,422.071,487.915,423.928,488.888L423.928,488.888z"/>
<path fill-rule="evenodd" clip-rule="evenodd" fill="#FFFFFF" stroke="#000000" stroke-width="1.25" stroke-linecap="square" stroke-miterlimit="10" d="  M423.178,488.888C422.291,487.245,422.832,488.247,423.178,488.888L423.178,488.888z"/>
<path fill-rule="evenodd" clip-rule="evenodd" fill="#FFFFFF" stroke="#000000" stroke-width="1.25" stroke-linecap="square" stroke-miterlimit="10" d="  M423.178,488.888C423.178,487.888,423.178,487.888,423.178,488.888L423.178,488.888z"/>
<path fill-rule="evenodd" clip-rule="evenodd" fill="#FFFFFF" stroke="#000000" stroke-width="1.25" stroke-linecap="square" stroke-miterlimit="10" d="  M423.178,488.888C423.178,487.888,423.178,487.888,423.178,488.888L423.178,488.888z"/>
<path fill-rule="evenodd" clip-rule="evenodd" fill="#FFFFFF" stroke="#000000" stroke-width="1.25" stroke-linecap="square" stroke-miterlimit="10" d="  M423.178,488.888C423.178,487.888,423.178,487.888,423.178,488.888L423.178,488.888z"/>
<path fill-rule="evenodd" clip-rule="evenodd" fill="#FFFFFF" stroke="#000000" stroke-width="1.25" stroke-linecap="square" stroke-miterlimit="10" d="  M423.928,488.888C421.939,487.662,422.948,488.285,423.928,488.888L423.928,488.888z"/>
<path fill-rule="evenodd" clip-rule="evenodd" fill="#FFFFFF" stroke="#000000" stroke-width="1.25" stroke-linecap="square" stroke-miterlimit="10" d="  M423.928,488.888C423.104,488.065,423.104,488.065,423.928,488.888L423.928,488.888z"/>
<path fill-rule="evenodd" clip-rule="evenodd" fill="#FFFFFF" stroke="#000000" stroke-width="1.25" stroke-linecap="square" stroke-miterlimit="10" d="  M423.178,488.138C423.178,489.138,423.178,489.138,423.178,488.138L423.178,488.138z"/>
<path fill-rule="evenodd" clip-rule="evenodd" fill="#FFFFFF" stroke="#000000" stroke-width="1.25" stroke-linecap="square" stroke-miterlimit="10" d="  M423.928,488.888C423.104,488.065,423.104,488.065,423.928,488.888L423.928,488.888z"/>
<path fill-rule="evenodd" clip-rule="evenodd" fill="#FFFFFF" stroke="#000000" stroke-width="1.25" stroke-linecap="square" stroke-miterlimit="10" d="  M423.928,488.888C423.286,488.542,422.284,488.001,423.928,488.888L423.928,488.888z"/>
<path fill-rule="evenodd" clip-rule="evenodd" fill="#FFFFFF" stroke="#000000" stroke-width="1.25" stroke-linecap="square" stroke-miterlimit="10" d="  M423.178,488.888C423.178,487.888,423.178,487.888,423.178,488.888L423.178,488.888z"/>
<path fill-rule="evenodd" clip-rule="evenodd" fill="#FFFFFF" stroke="#000000" stroke-width="1.25" stroke-linecap="square" stroke-miterlimit="10" d="  M423.178,488.888C423.178,487.888,423.178,487.888,423.178,488.888L423.178,488.888z"/>
<path fill-rule="evenodd" clip-rule="evenodd" fill="#FFFFFF" stroke="#000000" stroke-width="1.25" stroke-linecap="square" stroke-miterlimit="10" d="  M423.178,488.888C423.178,487.888,423.178,487.888,423.178,488.888L423.178,488.888z"/>
<path fill-rule="evenodd" clip-rule="evenodd" fill="#FFFFFF" stroke="#000000" stroke-width="1.25" stroke-linecap="square" stroke-miterlimit="10" d="  M423.178,488.888C423.178,487.888,423.178,487.888,423.178,488.888L423.178,488.888z"/>
<path fill-rule="evenodd" clip-rule="evenodd" fill="#D2D1D2" stroke="#000000" stroke-width="1.25" stroke-linecap="square" stroke-miterlimit="10" d="  M357.174,473.138c-8.18-1.573-16.09-1.097-22.5,1.5c6.529,5.43,14.674,6.165,24.75,3.75  C361.581,473.847,357.126,475.351,357.174,473.138z"/>
<path fill-rule="evenodd" clip-rule="evenodd" fill="#D2D1D2" d="M343.674,476.138c-2.326-0.733-4.525-1.216-6.75-2.25  C339.174,474.638,341.424,475.388,343.674,476.138z"/>
<path fill="none" stroke="#000000" stroke-width="1.25" stroke-linecap="square" stroke-miterlimit="10" d="M343.674,476.138  c-2.335-0.493-4.584-1.243-6.75-2.25"/>
<path fill-rule="evenodd" clip-rule="evenodd" fill="#D2D1D2" d="M343.674,478.388C338.641,477.935,338.557,477.927,343.674,478.388  L343.674,478.388z"/>
<path fill="none" stroke="#000000" stroke-width="1.25" stroke-linecap="square" stroke-miterlimit="10" d="M343.674,478.388  c-1.63,0.396-3.305,0.167-4.5-0.75"/>
<path fill-rule="evenodd" clip-rule="evenodd" fill="#D2D1D2" d="M348.174,473.138C343.141,472.685,343.057,472.677,348.174,473.138  L348.174,473.138z"/>
<path fill="none" stroke="#000000" stroke-width="1.25" stroke-linecap="square" stroke-miterlimit="10" d="M348.174,473.138  c-1.63,0.396-3.305,0.167-4.5-0.75"/>
<path fill-rule="evenodd" clip-rule="evenodd" fill="#F5CB99" stroke="#000000" stroke-width="1.25" stroke-linecap="square" stroke-miterlimit="10" d="  M362.424,485.888c-9.715-2.787-12.049-2.903-21-1.5c1.758,3.207,5.469,2.677,8.25,3.75c0.532-0.127-4.391-0.701-4.5-0.75  C349.842,488.316,363.122,485.755,362.424,485.888z"/>
<path fill-rule="evenodd" clip-rule="evenodd" fill="#D2D1D2" stroke="#000000" stroke-width="1.25" stroke-linecap="square" stroke-miterlimit="10" d="  M360.174,469.388c-22.643,10.095,11.513,21.156,23.25,27c0.652-4.656,3.751-6.92,4.5-9.75c-0.727-9.485-1.72-9.225,9-7.5  c3.207-4.41,1.096-5.075,6-8.25C392.211,470.157,374.631,473.93,360.174,469.388z"/>
<path fill-rule="evenodd" clip-rule="evenodd" fill="#99330C" stroke="#000000" stroke-width="1.25" stroke-linecap="square" stroke-miterlimit="10" d="  M407.424,384.64c2.728-4.971,5.729-7.785,6.002-13.5c-6.425,6.529-11.759,14.168-15.752,22.5c3.07-13.246,8.916-26.258,14.252-39  c-7.179,7.167-11.924,19.147-16.502,29.25c0.846-14.249,9.847-27.131,9.75-40.5c-8.434,7.707-11.564,23.903-15,36  c0.593-14.383,3.637-28.59,5.25-42.75c-7.472,9.845-7.485,24.066-11.25,36.75c-0.314-10.938,0.713-22.424-2.25-33  c-4.124,9.398-4.035,20.359-5.25,30c-2.844-9.181-2.862-21.174-5.25-31.5c-2.479,10.718-2.951,22.095-1.5,33  c-1.887-5.178-7.145-12.038-9-16.5c0.403,4.328-0.856,10.275-0.75,15c-2.252-2.386-6.822-5.789-8.25-7.5  c2.239,4.739,3.535,10.719,6,15.75c-6.971,5.3-1.006-1.164-3,8.25c-2.667-1.849-4.632-3.088-7.5-4.5  c-0.948,4.226,2.084,2.986,2.25,6c-6.387,1.938-5.417,1.468-6,6.75c-4.663,3.321-5.722,1.429-1.5,9.75  c-2.064,3.538-6.577-1.267,0.75,9c-2.255-0.206-3.573-2.855-6-2.25c-0.826,7.505-2.848,10.584,1.5,18.748  c-13.116,20.006,20.744,42,43.875,42C413.378,472.388,385.817,409.482,407.424,384.64z"/>
<path fill-rule="evenodd" clip-rule="evenodd" fill="#FB0F0C" stroke="#000000" stroke-width="0.75" stroke-linecap="square" stroke-miterlimit="10" d="  M418.678,434.138c2.142,0,42.458,0.656,28.5-9.75c-11.618-8.662-26.889,10.804-28.5-8.248c-9.501,4.5-19.002,8.999-28.504,13.498  c9.501,4.25,19.002,8.5,28.504,12.75C418.678,439.638,418.678,436.888,418.678,434.138z"/>
<path fill-rule="evenodd" clip-rule="evenodd" fill="#FB0F0C" stroke="#000000" stroke-linecap="square" stroke-miterlimit="10" d="  M477.928,445.388c0-3.264,2.016-51.032-12-34.498c-9.885,11.66,13.296,35.281-9.75,34.498c5.5,11.5,11,23,16.5,34.5  c5-11.5,10-23,15-34.5C484.428,445.388,481.178,445.388,477.928,445.388z"/>
</svg>