<svg xmlns="http://www.w3.org/2000/svg" xmlns:xlink="http://www.w3.org/1999/xlink" version="1.1" id="Layer_1" x="0px" y="0px" enable-background="new 0 0 822.05 841.89" xml:space="preserve" viewBox="219.24 266.2 379.67 312.94">
<path fill-rule="evenodd" clip-rule="evenodd" fill="#D3D1D2" stroke="#010101" stroke-width="1.25" stroke-linecap="square" stroke-miterlimit="10" d="  M489.117,520.766c-23.846-1.815-40.434-21.684-56.25-37.5c-12.234-12.234-67.471-1.927-78.75,3  c-14.686,6.415-26.27,22.591-44.602,27.305c-40.846,10.503-38.906,24.583-52.898,64.945c52.039,0,104.079,0,156.118,0  c19.46,0,38.921,0,58.382,0C475.346,578.516,487.08,527.584,489.117,520.766z"/>
<path fill-rule="evenodd" clip-rule="evenodd" fill="#D3D1D2" stroke="#010101" stroke-width="1.25" stroke-linecap="square" stroke-miterlimit="10" d="  M478.617,509.516c-14.55,68.405-116.462,76.318-155.25,25.5c-7.308-9.575-9.431-30.129-22.125-28.125  c-13.236,2.09-25.215,9.639-36.375,16.875c-20.843,13.515-38.943,29.739-45,54.75c112,0,224,0,336,0  C546.735,542.447,516.145,513.252,478.617,509.516z"/>
<path fill-rule="evenodd" clip-rule="evenodd" fill="#D3D1D2" stroke="#010101" stroke-width="1.25" stroke-linecap="square" stroke-miterlimit="10" d="  M489.867,370.016c19.425,60.172,16.642,126.144-63,114.75c8.333-25.926,16.667-51.852,25-77.778  C460.885,378.934,461.444,379.49,489.867,370.016z"/>
<path fill-rule="evenodd" clip-rule="evenodd" fill="#EECBA7" stroke="#010101" stroke-width="1.25" stroke-linecap="square" stroke-miterlimit="10" d="  M270.117,357.266c-4.708,73.19,51.325,145.372,126.375,150.375c88.106,5.874,92.625-112.77,92.625-172.875  C416.607,362.49,346.738,371.38,270.117,357.266z"/>
<path fill-rule="evenodd" clip-rule="evenodd" fill="#D3D1D2" stroke="#010101" stroke-width="1.25" stroke-linecap="square" stroke-miterlimit="10" d="  M489.867,326.516c32.102,43.864-21.102,57-54.375,57c-29.621,0-66.208-4.63-94.125,7.5c-34.572,15.022-18.535,51.805-16.5,87.75  c-106.711,6.978-90.091-113.153-36.667-170.139C350.875,241.775,436.059,260.546,489.867,326.516z"/>
<path fill-rule="evenodd" clip-rule="evenodd" fill="#EE2424" stroke="#010101" stroke-width="1.5" stroke-linecap="square" stroke-miterlimit="10" d="  M539.367,417.266c13.284-6.642,26.568-13.284,39.852-19.926c21.791-10.896,23.238-7.645,12.156-29.809  c-9.134-18.269-63.016,55.306-71.508,10.734c-16,20-32,40-48,60c25.25-1.5,50.5-3,75.75-4.5  C545.014,428.56,543.085,421.694,539.367,417.266z"/>
<path fill-rule="evenodd" clip-rule="evenodd" fill="#EE2424" d="M354.117,435.266L354.117,435.266z"/>
<line fill="none" stroke="#010101" stroke-width="1.5" stroke-linecap="square" stroke-miterlimit="10" x1="354.117" y1="435.266" x2="354.117" y2="435.266"/>
<path fill-rule="evenodd" clip-rule="evenodd" fill="#010101" d="M366.867,433.016C383.858,453.629,387.966,414.154,366.867,433.016  L366.867,433.016z"/>
<path fill="none" stroke="#010101" stroke-width="0.5" stroke-linecap="square" stroke-miterlimit="10" d="M389.367,427.016  c-11.674-5.166-23.327-0.411-32.25,8.25"/>
<path fill="none" stroke="#010101" stroke-linecap="square" stroke-miterlimit="10" d="M396.117,452.516  c6.558,3.669,14.003,3.206,19.5-1.5"/>
<path fill="none" stroke="#010101" stroke-linecap="square" stroke-miterlimit="10" d="M384.867,477.266  c15.264,6.17,32.616,7.204,43.5-6.75"/>
<path fill="none" stroke="#010101" stroke-width="0.5" stroke-linecap="square" stroke-miterlimit="10" d="M444.867,421.766  c-11.019-2.439-21.541,1.453-29.25,9.75c8.781-5.115,19.091-6.212,28.5-2.25"/>
</svg>