<svg xmlns="http://www.w3.org/2000/svg" xmlns:xlink="http://www.w3.org/1999/xlink" version="1.1" id="Layer_1" x="0px" y="0px" enable-background="new 0 0 822.05 841.89" xml:space="preserve" viewBox="212.5 255.85 389.5 330.1">
<path fill-rule="evenodd" clip-rule="evenodd" fill="#010101" d="M477.25,507.701c-47.892-15.186-94.624-33.929-141-53.25  c-36.273-15.112-86.142-52.507-123.75-48.748c30.176,16.46,265.761,137.842,276,105.748C484.75,510.201,481,508.951,477.25,507.701z  "/>
<path fill-rule="evenodd" clip-rule="evenodd" fill="#010101" d="M394.75,318.703c21.211,3.848,29.436,16.636,47.625,23.25  c11.921,4.335,20.531-7.596,24.375,10.5c-2.455-4.569-4.958-6.25-6.75-10.5c-12.03,14.707-18.08-1.441-31.5-6.75  c-14.415-5.702-29.806-5.111-43.5-11.25C388.049,321.561,391.353,320.504,394.75,318.703z"/>
<path fill-rule="evenodd" clip-rule="evenodd" fill="#010101" d="M383.5,326.953c21.814-4.424,24.59,18.75,44.625,18.75  c18.117,0,28.695,4.163,42.375,15c-12.698-4.279-32.609-6.937-50.248-13.5C405.444,341.692,392.233,328.403,383.5,326.953z"/>
<path fill-rule="evenodd" clip-rule="evenodd" fill="#010101" d="M385,332.203c18.847-4.931,53.401,24.746,66.75,27  c1.001,0.599,5.83,2.791,6.75,3C439.49,363.443,385.014,337.178,385,332.203z"/>
<path fill-rule="evenodd" clip-rule="evenodd" fill="#010101" d="M416.502,328.453c23.124,1.011,31.367,16.557,50.248,25.5  c10.177,4.82,17.059-11.873,21.75,6.75c-2.277-2.469-5.243-4.18-8.25-8.25c-7.646,6.747-59.988-13.68-73.5-20.25  C409.823,329.868,412.859,329.819,416.502,328.453z"/>
<path fill-rule="evenodd" clip-rule="evenodd" fill="#010101" d="M403,336.703c20.987-6.687,24.205,17.25,39.75,17.25  c18.431,0,33.812,3.456,48,15C468.595,361.061,423.561,340.34,403,336.703z"/>
<path fill-rule="evenodd" clip-rule="evenodd" fill="#010101" d="M405.25,340.453c20.469-4.022,55.363,25.511,73.5,30  C459.792,375.056,409.96,346.912,405.25,340.453z"/>
<path fill-rule="evenodd" clip-rule="evenodd" fill="#968686" stroke="#010101" stroke-width="2" stroke-linecap="square" stroke-miterlimit="10" d="  M340,302.203c7.24,23.623-37.984,36.952-18.75,58.5c-0.461-19.743,15.805-22.211,27-20.25c-5.438,10.373-17.212,20.57-3.75,28.5  c-1.45-0.854,15.754-10.648,23.625-7.5c5.747,2.299,9.354,9.908,22.125,9c-0.75,1.75-1.5,3.5-2.25,5.25  c19.59-17.418,12.193-27.853,4.084-49.812C382.101,298.85,368.179,305.021,340,302.203z"/>
<path fill-rule="evenodd" clip-rule="evenodd" fill="#010101" d="M386.5,320.203c18.379-5.556,35.168-2.204,52.875,2.625  c12.479,3.403,15.123-15.459,25.875-1.125c-3.21-1.301-5.001-1.36-9.75-4.5c-4.654,10.173-61.89,10.954-75.75,9.75  C381.998,324.705,384.309,322.505,386.5,320.203z"/>
<path fill-rule="evenodd" clip-rule="evenodd" fill="#010101" d="M378.25,332.203c15.054-10.712,30.414,0.469,46.5,0  c17.026-0.497,29.675-6.542,47.25-3.75C448.854,331.436,398.967,328.796,378.25,332.203z"/>
<path fill-rule="evenodd" clip-rule="evenodd" fill="#010101" d="M381.25,335.203c19.233-10.694,63.103,1.469,78.75,0  C443.303,344.052,384.382,340.302,381.25,335.203z"/>
<path fill-rule="evenodd" clip-rule="evenodd" fill="#010101" d="M409.75,320.203c20.536-7.278,33.535,3.75,52.875,3.75  c12.419,0,13.18-14.077,25.875-3.75c-6.467-0.928-2.813,2.852-9.75-3c-5.844,10.083-62.698,11.482-77.25,9.75  C404.11,324.509,407.071,322.563,409.75,320.203z"/>
<path fill-rule="evenodd" clip-rule="evenodd" fill="#010101" d="M401.5,332.203c13.246-9.855,30.139,0.457,45,0  c17.879-0.55,31.841-9.995,47.25-1.5c-17.177-3.85-32.777,1.812-55.125,5.25C425.524,337.968,408.909,330.723,401.5,332.203z"/>
<path fill-rule="evenodd" clip-rule="evenodd" fill="#010101" d="M405.25,335.203c19.507-11.254,62.004,2.685,78.75,0  C468.931,344.502,406.058,339.401,405.25,335.203z"/>
<path fill-rule="evenodd" clip-rule="evenodd" fill="#383637" d="M485.5,511.451c35.609-22.54,80.685-2.493,115.5,11.25  c-33.112-12.412-37.486,8.429-1.5,9c-7.254,0.076-14.504,2.482-21.75,3c7.372,2.818,14.247,7.322,21.75,9.75  c-7.119-1.593-14.602-1.532-21.75-3c5.133,2.462,9.823,5.885,15,8.25c-9-2.25-18-4.5-27-6.75c5.439,4.449,9.476,10.663,15,15  c-4.5-1.5-9-3-13.5-4.5c9,7.75,18,15.5,27,23.25c-11.253-7.471-22.545-15.323-35.25-18.75c3.799,1.994,10.849,8.749,16.5,13.5  C552.073,558.901,475.6,558.222,485.5,511.451z"/>
<path fill="none" stroke="#010101" stroke-width="2" stroke-linecap="square" stroke-miterlimit="10" d="M485.5,511.451  c35.609-22.54,80.685-2.493,115.5,11.25c-33.112-12.412-37.486,8.429-1.5,9c-7.254,0.076-14.504,2.482-21.75,3  c7.372,2.818,14.247,7.322,21.75,9.75c-7.119-1.593-14.602-1.532-21.75-3c5.133,2.462,9.823,5.885,15,8.25c-9-2.25-18-4.5-27-6.75  c5.439,4.449,9.476,10.663,15,15c-4.5-1.5-9-3-13.5-4.5c9,7.75,18,15.5,27,23.25c-11.253-7.471-22.545-15.323-35.25-18.75  c3.799,1.994,10.849,8.749,16.5,13.5c-13.453-7.207-24.371-2.837-36.75-6.75c-23.112-7.307-38.67-24.494-54.75-42"/>
<path fill-rule="evenodd" clip-rule="evenodd" fill="#968686" d="M292.75,422.203C244.292,429.271,320.947,485.182,292.75,422.203  L292.75,422.203z"/>
<path fill="none" stroke="#010101" stroke-width="2" stroke-linecap="square" stroke-miterlimit="10" d="M292.75,422.203  c-53.371,7.784,34.237,62.446,0-1.5"/>
<path fill-rule="evenodd" clip-rule="evenodd" fill="#010101" d="M364.75,529.451c-19.524,45.28-73.68-24.5-31.5-18  c-52.224-15.552-33.03,40.866,4.361,52.083c5.687,1.706,61.153,4.585,60.889,4.917c4.458-5.613-18.923-30.42-18.75-42  C375.073,527.386,368.994,527.364,364.75,529.451z"/>
<path fill-rule="evenodd" clip-rule="evenodd" fill="#383637" stroke="#010101" stroke-width="2" stroke-linecap="square" stroke-miterlimit="10" d="  M311.5,314.953c12.704-15.697,31.073-11.69,43.639-23c14.275-12.848,33.844-25.742,50.486-32.875  c32.729-14.026,42.415,43.36,16.127,31.125c19.595-0.657,4.713-14.203,1.498-25.5c-21.63,12.014-18.961,14.452-24,37.125  c-4.174,18.782,35.587,14.9,44.25,8.625C426.745,357.667,345.485,293.708,311.5,314.953z"/>
<path fill-rule="evenodd" clip-rule="evenodd" fill="#383637" stroke="#010101" stroke-width="2" stroke-linecap="square" stroke-miterlimit="10" d="  M370,368.953c-31.316-0.494-34.581,84.839-78.75,43.5c1,2.75,2,5.5,3,8.25c-2.75,0-5.5,0-8.25,0c3.25,1.749,6.5,3.499,9.75,5.248  c-3.75,1.75-7.5,3.5-11.25,5.25c2.75,1.5,5.5,3,8.25,4.5c-3.25,3.5-6.5,7-9.75,10.5c4.25-1.75,8.5-3.5,12.75-5.25  c-3.75,3.25-7.5,6.5-11.25,9.75c4.629-1.562,10.209-0.438,15-1.5c-0.597,6.77,0.772,15.413-1.5,21.75  c-1.345-38.998,56.69-15.343,68.25-51.748c55.897,32.465-33.94,24.005-39.75,43.498c-6.986,23.442,64.019,70.821,8.25,84  c9.858,2.738,23.778,5.766,33.375,1.5c8.094-3.598,18.411-25.363,23.625-25.5c15.817-0.416,11.933,55.547,43.5,57  c-17.82-5.627-20.096-26.925-23.25-43.5c17.491,19.73,36.961,30.792,62.861,35.973c15.37,3.073,33.708-8.063,40.639,12.777  c-4.97-32.356-37.872-35.623-62.625-46.875c-9.533-4.333-22.745-10.688-19.125-23.625c4.695-16.78,9.082,1.775,16.5-3  c23.921-15.398,31.309-24.485,13.861-54.027c-16.221-27.465-32.442-54.929-48.663-82.394C399.59,348.18,399.127,355.713,370,368.953  z"/>
<path fill-rule="evenodd" clip-rule="evenodd" fill="#010101" d="M405.25,353.953c25.119-5.269,41.538,17.533,61.5,28.5  c23.551,12.939,48.664,13.386,67.5,36.75c-14.697-8.92-38.663-19.458-55.5-15c11.944,2.571,29.039,15.461,42,21.748  c19.024,9.228,33.621,16.227,46.5,33.75c-8.062-10.921-20.047-12.823-26.25,0c-14.439-19.52-31.506-28.869-55.5-30.75  c3.474,1.127,6.673,2.432,9.75,3.75c-7.707-0.961-16.635,1.16-23.25,1.5c13.37,11.564,33.911,2.145,40.5,16.5  c-6.47-1.591-13.781,0.463-18.75,0c17.742,23.828,61.608,9.556,73.5,43.5c-16.525-18.568-47.462-17.97-70.781-19.266  c-36.656-2.036-45.816-14.083-62.719-39.234c-20.633-30.703-41.642-42.043-71.625-61.123  C339.666,360.286,394.448,358.448,405.25,353.953z"/>
<path fill-rule="evenodd" clip-rule="evenodd" fill="#383637" stroke="#010101" stroke-width="2" stroke-linecap="square" stroke-miterlimit="10" d="  M488.5,518.201C465.082,538.366,488.194,484.164,488.5,518.201L488.5,518.201z"/>
</svg>