<svg xmlns="http://www.w3.org/2000/svg" xmlns:xlink="http://www.w3.org/1999/xlink" version="1.1" id="Layer_1" x="0px" y="0px" enable-background="new 0 0 822.05 841.89" xml:space="preserve" viewBox="318.5 344.41 181.87 153.57">
<path fill-rule="evenodd" clip-rule="evenodd" fill="#F7F619" stroke="#000000" stroke-width="1.25" stroke-linecap="square" stroke-miterlimit="10" d="  M350.625,492.515c-9.639,10.155-27.688,3.363-20.25-11.25C337.664,466.947,353.583,479.727,350.625,492.515z"/>
<path fill-rule="evenodd" clip-rule="evenodd" fill="#F7F619" stroke="#000000" stroke-width="1.25" stroke-linecap="square" stroke-miterlimit="10" d="  M353.625,405.515c-9.115,9.96-27.775,3.287-20.25-11.25C340.742,380.034,357.225,392.51,353.625,405.515z"/>
<path fill-rule="evenodd" clip-rule="evenodd" fill="#F7F619" stroke="#000000" stroke-width="1.25" stroke-linecap="square" stroke-miterlimit="10" d="  M373.875,447.515c-3.673,12.935-24.493,17.093-23.25,0C351.814,431.158,370.235,434.846,373.875,447.515z"/>
<path fill-rule="evenodd" clip-rule="evenodd" fill="#F7F619" stroke="#000000" stroke-width="1.25" stroke-linecap="square" stroke-miterlimit="10" d="  M396.375,422.015c-9.166,9.171-28.22,3.559-20.25-11.25C383.949,396.229,399.661,409.05,396.375,422.015z"/>
<path fill-rule="evenodd" clip-rule="evenodd" fill="#F7F619" stroke="#000000" stroke-width="1.25" stroke-linecap="square" stroke-miterlimit="10" d="  M427.125,440.765c-3.504,12.486-23.539,16.71-23.25,0C404.16,424.244,423.638,428.299,427.125,440.765z"/>
<path fill-rule="evenodd" clip-rule="evenodd" fill="#F7F619" stroke="#000000" stroke-width="1.25" stroke-linecap="square" stroke-miterlimit="10" d="  M499.125,362.765c-9.131,9.168-28.29,3.253-20.25-11.25C486.971,336.912,503.083,349.783,499.125,362.765z"/>
<path fill-rule="evenodd" clip-rule="evenodd" fill="#F7F619" stroke="#000000" stroke-width="1.25" stroke-linecap="square" stroke-miterlimit="10" d="  M401.625,479.015c-3.957,12.92-24.424,17.169-23.25,0C379.483,462.799,397.64,466.19,401.625,479.015z"/>
<path fill-rule="evenodd" clip-rule="evenodd" fill="#F7F619" stroke="#000000" stroke-width="1.25" stroke-linecap="square" stroke-miterlimit="10" d="  M438.375,481.265c-3.455,12.788-23.25,16.6-23.25,0S434.92,468.477,438.375,481.265z"/>
<path fill-rule="evenodd" clip-rule="evenodd" fill="#F7F619" stroke="#000000" stroke-width="1.25" stroke-linecap="square" stroke-miterlimit="10" d="  M395.625,380.015c-3.134,13.196-22.155,15.881-23.25,0C371.252,363.733,392.376,366.653,395.625,380.015z"/>
<path fill-rule="evenodd" clip-rule="evenodd" fill="#F7F619" stroke="#000000" stroke-width="1.25" stroke-linecap="square" stroke-miterlimit="10" d="  M342.375,437.015c-3.143,13.107-23.531,16.103-23.25,0C319.404,421.017,339.268,424.004,342.375,437.015z"/>
<path fill-rule="evenodd" clip-rule="evenodd" stroke="#000000" stroke-width="1.25" stroke-linecap="square" stroke-miterlimit="10" d="  M469.125,366.515c-11.75,9-23.5,18-35.25,27c-1.25-2-2.5-4-3.75-6c-4.5,8-9,16-13.5,24c7.948-0.291,18.734-2.631,26.25-5.25  C433.348,386.834,483.6,386.36,469.125,366.515z"/>
</svg>