<svg xmlns="http://www.w3.org/2000/svg" xmlns:xlink="http://www.w3.org/1999/xlink" version="1.1" id="Layer_1" x="0px" y="0px" enable-background="new 0 0 822.05 841.89" xml:space="preserve" viewBox="276.08 247.54 270 349.06">
<path fill-rule="evenodd" clip-rule="evenodd" fill="#009193" stroke="#000000" stroke-width="2" stroke-linecap="square" stroke-miterlimit="10" d="  M434.826,580.794c-16.078,0-31.006-0.599-46.5,4.5c0.25-2.25,0.5-4.5,0.75-6.75c-2.75,3.25-5.5,6.5-8.25,9.75  c12.822,9.033,29.386,5.743,44.412,5.028C440.006,592.62,462.824,582.362,434.826,580.794z"/>
<path fill-rule="evenodd" clip-rule="evenodd" fill="#009193" stroke="#000000" stroke-width="2" stroke-linecap="square" stroke-miterlimit="10" d="  M472.33,581.544c16.254,0,31.038-0.714,46.5,5.25c-0.25-2.5-0.5-5-0.75-7.5c2.75,3.5,5.5,7,8.25,10.5  c-13.62,8.234-29.161,5.632-44.412,4.542C466.858,593.261,445.131,586.577,472.33,581.544z"/>
<path fill-rule="evenodd" clip-rule="evenodd" fill="#412A75" stroke="#000000" stroke-width="2" stroke-linecap="square" stroke-miterlimit="10" d="  M440.826,336.294c-9.903,3.038-15.059,9.037-23.25,15c-7.725,5.623-3.871,16.385-11.611,16.694  c-18.909,0.756-9.175,0.868-17.639,12.556c-16.907,23.347,7.764,32.248,3,60c14.201-7.726,28.059-19.743,31.5-36  c-1.518,51.261-4.443,115.742-33.75,159.75c21.657,12.135,106.891,33.666,125.254,8.25c6.273-8.683-13.361-72.054-15.164-85.031  c-3.594-25.873-6.884-53.098-4.336-79.219c2.854,8.39,8.824,15.719,12,24c9.178-11.172,20.247-23.36,35.25-22.5  c-12.144-14.112-23.146-34.261-42.75-38.25C545.377,354.745,457.198,334.15,440.826,336.294z"/>
<path fill-rule="evenodd" clip-rule="evenodd" fill="#FEDEA5" stroke="#000000" stroke-width="2" stroke-linecap="square" stroke-miterlimit="10" d="  M481.33,328.044c-0.301,29.258-36.004,29.438-36.004,0S481.029,298.786,481.33,328.044z"/>
<path fill-rule="evenodd" clip-rule="evenodd" fill="#412A75" stroke="#000000" stroke-width="2" stroke-linecap="square" stroke-miterlimit="10" d="  M443.826,319.794c13.501,0.25,27.003,0.5,40.504,0.75c-5.78-19.908-8.954-66.8-30.004-72  C465.333,267.649,448.786,299.958,443.826,319.794z"/>
<path fill="none" stroke="#000000" stroke-width="2" stroke-linecap="square" stroke-miterlimit="10" d="M410.826,358.794  c37.722,17.902,47.759,20.346,88.504,12.75"/>
<path fill="none" stroke="#000000" stroke-width="2" stroke-linecap="square" stroke-miterlimit="10" d="M461.83,392.544  c-2.251,63-4.503,126-6.754,189c17.157,1.293,9.648-162.383,9.754-189"/>
<path fill-rule="evenodd" clip-rule="evenodd" fill="#FEDEA5" stroke="#000000" stroke-width="2" stroke-linecap="square" stroke-miterlimit="10" d="  M389.826,373.794c-15.982-12.084-29.086-34.111-43.5-42c-0.636,8.679-3.221,7.23-5.25,13.5c-1.346-6.139-4.731-11.847-6-18  c-9.052,21.585,34.412,46.66,48.75,59.25C385.826,382.294,387.826,378.044,389.826,373.794z"/>
<path fill-rule="evenodd" clip-rule="evenodd" fill="#FEDEA5" stroke="#000000" stroke-width="2" stroke-linecap="square" stroke-miterlimit="10" d="  M520.33,419.544c5.245-4.706,10.356-8.039,18-8.25c0.046,22.818-31.708,70.45-53.25,57c3-3.25,6-6.5,9-9.75  c-6.902-2.354-7.619-5.191-15-5.25C492.748,443.597,518.966,444.061,520.33,419.544z"/>
<path fill-rule="evenodd" clip-rule="evenodd" fill="#412A75" stroke="#000000" stroke-width="2" stroke-linecap="square" stroke-miterlimit="10" d="  M545.08,412.794c-1.766,24.492-11.944,39.764-24,60.75c-22.398-13.615,0.574-26.508,11.25-41.25  C539.41,422.517,531.887,410.849,545.08,412.794z"/>
<path fill-rule="evenodd" clip-rule="evenodd" fill="#EDB329" stroke="#000000" stroke-linecap="square" stroke-miterlimit="10" d="  M354.576,343.794c-21.931-5.758-67.038-47.781-78-67.5C298.507,282.052,343.614,324.075,354.576,343.794z"/>
<path fill-rule="evenodd" clip-rule="evenodd" fill="#FFFFFF" stroke="#000000" stroke-width="2" stroke-linecap="square" stroke-miterlimit="10" d="  M445.326,336.294c-0.807,14.514,0.072,59.643,21.004,55.5c23.047-4.562,17.952-45.539,16.5-59.25  C472.335,348.828,456.094,358.13,445.326,336.294z"/>
</svg>