<svg xmlns="http://www.w3.org/2000/svg" xmlns:xlink="http://www.w3.org/1999/xlink" version="1.1" id="Layer_1" x="0px" y="0px" enable-background="new 0 0 822.05 841.89" xml:space="preserve" viewBox="304.58 352.94 212.75 137.97">
<path fill-rule="evenodd" clip-rule="evenodd" fill="#EED5B6" stroke="#000000" stroke-width="1.25" stroke-linecap="square" stroke-miterlimit="10" d="  M392.209,434.265c-10.627-1.146-19.667-7.39-21.75-15.75c-8.387,1.753-25.925,5.908-36,15c8.329,29.982,3.75,39.908,35.297,42.398  C389.884,477.502,403.834,450.294,392.209,434.265z"/>
<path fill-rule="evenodd" clip-rule="evenodd" stroke="#000000" stroke-width="1.25" stroke-linecap="square" stroke-miterlimit="10" d="  M326.209,421.515c-17.564-34.77-0.144-74.149,42-67.125c20.412,3.402,28.382,24.812,30.375,42.75  C403.435,440.8,360.405,422.583,326.209,421.515z"/>
<path fill-rule="evenodd" clip-rule="evenodd" fill="#EED5B6" stroke="#000000" stroke-width="1.25" stroke-linecap="square" stroke-miterlimit="10" d="  M385.459,380.265c19.938,44.859-42.419,65.109-57.75,11.25C347.569,390.673,367.412,389.179,385.459,380.265z"/>
<path fill-rule="evenodd" clip-rule="evenodd" fill="#0D0D0D" d="M368.959,398.265C365.716,399.898,365.684,399.915,368.959,398.265  L368.959,398.265z"/>
<path fill="none" stroke="#0D0D0D" stroke-width="0.75" stroke-linecap="square" stroke-miterlimit="10" d="M371.209,398.265  c-2.672-1.327-5.276-1.069-7.5,0.75"/>
<path fill="none" stroke="#0D0D0D" stroke-linecap="square" stroke-miterlimit="10" d="M362.959,405.765  c-1.432,1.954-4.09,2.06-6.75,0.75"/>
<path fill-rule="evenodd" clip-rule="evenodd" fill="#0D0D0D" d="M347.959,400.515C351.373,400.824,352.572,400.932,347.959,400.515  L347.959,400.515z"/>
<path fill="none" stroke="#0D0D0D" stroke-width="0.75" stroke-linecap="square" stroke-miterlimit="10" d="M345.709,401.265  c2.176-2.155,4.872-2.78,7.5-1.5"/>
<path fill="none" stroke="#000000" stroke-linecap="square" stroke-miterlimit="10" d="M351.709,415.515  c5.285,2.688,10.804,2.469,15.75-0.75"/>
<path fill-rule="evenodd" clip-rule="evenodd" fill="#FF9900" stroke="#000000" stroke-width="1.25" stroke-linecap="square" stroke-miterlimit="10" d="  M325.459,465.765c-2.055,6.028-0.52,14.565-0.75,21c24.75,0,49.5,0,74.25,0c-0.502-6.766,0.785-16.165-1.5-22.5  c-2.079,15.793,1.658,27.855,19.502,22.5c-1.354-13.235-1.141-44.166-12.752-52.875c-21.923-16.442-16.907,9.259-27.75,18.375  c-19.222,16.161-37.238,4.275-37.5-22.5c-29.637-2.61-32.18,35.856-33.75,57C322.7,491.639,329.847,483.154,325.459,465.765z"/>
<path fill-rule="evenodd" clip-rule="evenodd" fill="#EED5B6" stroke="#000000" stroke-width="1.25" stroke-linecap="square" stroke-miterlimit="10" d="  M491.961,435.765c-11.139-0.762-20.354-7.864-21.75-15c-21.463,2.979-38.173,7.179-30.375,35.25  C452.284,500.828,513.38,465.879,491.961,435.765z"/>
<path fill-rule="evenodd" clip-rule="evenodd" fill="#CDB828" stroke="#000000" stroke-width="1.25" stroke-linecap="square" stroke-miterlimit="10" d="  M425.211,423.765c-15.891-34.972-0.214-75.036,42.75-67.875c20.154,3.359,28.396,24.943,30.375,42.75  C503.197,442.392,459.217,424.466,425.211,423.765z"/>
<path fill-rule="evenodd" clip-rule="evenodd" fill="#EED5B6" stroke="#000000" stroke-width="1.25" stroke-linecap="square" stroke-miterlimit="10" d="  M484.461,381.765c22.242,41.758-45.885,69.649-57,11.25C446.722,392.198,467.331,391.365,484.461,381.765z"/>
<path fill-rule="evenodd" clip-rule="evenodd" fill="#0D0D0D" d="M468.711,400.515C465.165,400.664,465.339,400.657,468.711,400.515  L468.711,400.515z"/>
<path fill="none" stroke="#0D0D0D" stroke-width="0.75" stroke-linecap="square" stroke-miterlimit="10" d="M470.961,400.515  c-2.494-2.121-5.121-2.046-7.5,0"/>
<path fill="none" stroke="#0D0D0D" stroke-linecap="square" stroke-miterlimit="10" d="M462.711,407.265  c-2.08,2.537-4.761,2.834-7.5,0.75"/>
<path fill-rule="evenodd" clip-rule="evenodd" fill="#0D0D0D" d="M447.711,402.015C451.852,403.031,450.785,402.77,447.711,402.015  L447.711,402.015z"/>
<path fill="none" stroke="#0D0D0D" stroke-width="0.75" stroke-linecap="square" stroke-miterlimit="10" d="M445.461,402.765  c2.177-2.155,4.871-2.78,7.5-1.5"/>
<path fill="none" stroke="#000000" stroke-linecap="square" stroke-miterlimit="10" d="M451.461,417.015  c5.268,3.254,10.817,3.018,15.75-0.75"/>
<path fill-rule="evenodd" clip-rule="evenodd" fill="#0C7823" stroke="#000000" stroke-width="1.25" stroke-linecap="square" stroke-miterlimit="10" d="  M425.211,467.265c-2.116,6.25-0.521,15.082-0.75,21.75c24.75,0,49.5,0,74.25,0c-0.489-6.988,0.839-16.7-1.5-23.25  c-2.096,15.954,1.283,28.675,19.5,23.25c-1.111-12.191-1.362-46.567-13.125-53.625c-23.389-14.033-15.206,7.677-27.375,18.375  c-20.123,17.69-36.148,3.392-38.25-22.5c-30.096-1.764-30.827,36.121-33.002,57.75C422.371,493.772,429.072,484.484,425.211,467.265  z"/>
<path fill-rule="evenodd" clip-rule="evenodd" fill="#EED5B6" stroke="#000000" stroke-width="1.25" stroke-linecap="square" stroke-miterlimit="10" d="  M491.961,435.765c-11.139-0.762-20.354-7.864-21.75-15c-21.463,2.979-38.173,7.179-30.375,35.25  C452.284,500.828,513.38,465.879,491.961,435.765z"/>
<path fill-rule="evenodd" clip-rule="evenodd" fill="#CDB828" stroke="#000000" stroke-width="1.25" stroke-linecap="square" stroke-miterlimit="10" d="  M425.211,423.765c-15.891-34.972-0.214-75.036,42.75-67.875c20.154,3.359,28.396,24.943,30.375,42.75  C503.197,442.392,459.217,424.466,425.211,423.765z"/>
<path fill-rule="evenodd" clip-rule="evenodd" fill="#EED5B6" stroke="#000000" stroke-width="1.25" stroke-linecap="square" stroke-miterlimit="10" d="  M484.461,381.765c22.242,41.758-45.885,69.649-57,11.25C446.722,392.198,467.331,391.365,484.461,381.765z"/>
<path fill-rule="evenodd" clip-rule="evenodd" fill="#0D0D0D" d="M468.711,400.515C465.165,400.664,465.339,400.657,468.711,400.515  L468.711,400.515z"/>
<path fill="none" stroke="#0D0D0D" stroke-width="0.75" stroke-linecap="square" stroke-miterlimit="10" d="M470.961,400.515  c-2.494-2.121-5.121-2.046-7.5,0"/>
<path fill="none" stroke="#0D0D0D" stroke-linecap="square" stroke-miterlimit="10" d="M462.711,407.265  c-2.08,2.537-4.761,2.834-7.5,0.75"/>
<path fill-rule="evenodd" clip-rule="evenodd" fill="#0D0D0D" d="M447.711,402.015C451.852,403.031,450.785,402.77,447.711,402.015  L447.711,402.015z"/>
<path fill="none" stroke="#0D0D0D" stroke-width="0.75" stroke-linecap="square" stroke-miterlimit="10" d="M445.461,402.765  c2.177-2.155,4.871-2.78,7.5-1.5"/>
<path fill="none" stroke="#000000" stroke-linecap="square" stroke-miterlimit="10" d="M451.461,417.015  c5.268,3.254,10.817,3.018,15.75-0.75"/>
<path fill-rule="evenodd" clip-rule="evenodd" fill="#FF9900" stroke="#000000" stroke-width="1.25" stroke-linecap="square" stroke-miterlimit="10" d="  M425.211,467.265c-2.116,6.25-0.521,15.082-0.75,21.75c24.75,0,49.5,0,74.25,0c-0.489-6.988,0.839-16.7-1.5-23.25  c-2.096,15.954,1.283,28.675,19.5,23.25c-1.111-12.191-1.362-46.567-13.125-53.625c-23.389-14.033-15.206,7.677-27.375,18.375  c-20.123,17.69-36.148,3.392-38.25-22.5c-30.096-1.764-30.827,36.121-33.002,57.75C422.371,493.772,429.072,484.484,425.211,467.265  z"/>
</svg>