<svg xmlns="http://www.w3.org/2000/svg" xmlns:xlink="http://www.w3.org/1999/xlink" version="1.1" id="Layer_1" x="0px" y="0px" enable-background="new 0 0 822.05 841.89" xml:space="preserve" viewBox="368.43 331.89 82.95 175.25">
<path fill-rule="evenodd" clip-rule="evenodd" fill="#5E1F0A" stroke="#000000" stroke-width="1.25" stroke-linecap="square" stroke-miterlimit="10" d="  M379.877,332.515c6.524,59.665,17.594,120.174,45.004,174c-18.001,0-36.002,0-54.004,0  C370.985,481.362,362.914,332.267,379.877,332.515z"/>
<path fill-rule="evenodd" clip-rule="evenodd" fill="#FFFFFF" stroke="#000000" stroke-width="1.25" stroke-linecap="square" stroke-miterlimit="10" d="  M403.127,422.515c2.397,4.856,3.762,9.574,6.752,6c1.019,2.384,1.237,5.159,2.25,7.5c1.001-2.25,2.001-4.5,3.002-6.75  c1.16,1.818,0.571,5.296,1.5,6.75c18.737-14.214,5.894-48.566,9-67.5C396.686,359.73,390.45,406.734,403.127,422.515z"/>
<path fill-rule="evenodd" clip-rule="evenodd" fill="#FFFFFF" stroke="#000000" stroke-width="1.25" stroke-linecap="square" stroke-miterlimit="10" d="  M430.881,372.265c-0.724,10.516-0.412,63.763,10.5,42.75C447.276,403.662,442.475,376.591,430.881,372.265z"/>
<path fill-rule="evenodd" clip-rule="evenodd" fill="#FFFFFF" stroke="#000000" stroke-width="1.25" stroke-linecap="square" stroke-miterlimit="10" d="  M423.381,360.265c4.862-0.089,9.456-2.929,15-2.25c-4.224-11.496-11.795-16.697-21.75-12c-1.608-1.188,0.324-4.189,0-4.5  c-0.684,0.974-2.622,2.154-3.752,2.25C414.322,351.258,418.908,355.332,423.381,360.265z"/>
<path fill-rule="evenodd" clip-rule="evenodd" fill="#FFFFFF" stroke="#000000" stroke-width="1.25" stroke-linecap="square" stroke-miterlimit="10" d="  M416.631,362.515c-2.705-5.488-3.93-9.845-9.752-12.75c0.541,9.686,0.211,9.92-1.5,19.5  C409.386,367.677,413.46,365.478,416.631,362.515z"/>
<path fill-rule="evenodd" clip-rule="evenodd" fill="#AB0B27" stroke="#000000" stroke-width="1.25" stroke-linecap="square" stroke-miterlimit="10" d="  M429.381,453.265c1.271-9.713-0.452-19.038-5.25-27c-2.503,2.851-4.842,4.679-7.5,9.75c-0.666-1.044,0.171-5.996-1.5-6.75  c-1.001,2.25-2.001,4.5-3.002,6.75c-1.05-2.291-1.241-5.137-2.25-7.5c1.686,1.451-7.493-5.154-10.502-9  c5.544,9.423,11.184,19.48,12.752,30c0-1.75,0-3.5,0-5.25c1.382,6.492,4.923,12.977,6.752,19.5c0.202-4.777,3.622-9.518,4.5-14.25  C424.062,450.566,427.58,454.386,429.381,453.265z"/>
<path fill-rule="evenodd" clip-rule="evenodd" fill="#AB0B27" stroke="#000000" stroke-width="1.25" stroke-linecap="square" stroke-miterlimit="10" d="  M438.381,350.515c2.476,3.424,1.302,6.917,6,9.75C445.087,353.358,440.676,353.689,438.381,350.515z"/>
<path fill-rule="evenodd" clip-rule="evenodd" fill="#4D4D4D" stroke="#000000" stroke-width="1.25" stroke-linecap="square" stroke-miterlimit="10" d="  M411.379,344.515c-5.787-1.839-10.866-3.533-16.502-2.25c4.542,4.192,10.987,7.92,16.502,10.5  C414.26,349.478,411.559,348.055,411.379,344.515z"/>
<path fill-rule="evenodd" clip-rule="evenodd" stroke="#000000" stroke-width="1.25" stroke-linecap="square" stroke-miterlimit="10" d="  M443.631,369.265c5.279-19.017-18.344-41.256-27-23.25c9.955-4.697,17.526,0.504,21.75,12c-13.002,5.079-23.336-0.181-25.502-14.25  c1.77,11.115,5.163,22.774-9.752,30c8.418-6.053,12.924-5.912,22.504-5.25c-4.091,24.931,7.286,57.715,3.75,84.75  c-2.733-0.65-3.616-2.863-6-3.75c-5.501,15.727-9.877,32.179-4.5,49.5c0.25-1.5,0.5-3,0.75-4.5c0.5,2.5,1,5,1.5,7.5  c0.25-1.25,0.5-2.5,0.75-3.75c1,2.75,2,5.5,3,8.25c0.35-14.976,3.084-29.927,7.5-44.25c0.75,4.25,1.5,8.5,2.25,12.75  c0.369-5.066,1.438-9.807,1.5-15c1,4.5,2,9,3,13.5C440.323,440.415,461.476,402.124,443.631,369.265z"/>
<path fill-rule="evenodd" clip-rule="evenodd" fill="#4D4D4D" stroke="#000000" stroke-width="1.25" stroke-linecap="square" stroke-miterlimit="10" d="  M382.127,400.765c10.14-4.374,13.583,5.733,21,15c-1.909-1.824-7.832-4.555-10.5-6c1.196,10.1-0.505,5.183-3,12  C392.921,414.06,391.339,403.342,382.127,400.765z"/>
<path fill-rule="evenodd" clip-rule="evenodd" stroke="#000000" stroke-width="1.25" stroke-linecap="square" stroke-miterlimit="10" d="  M423.381,347.515C418.517,347.515,418.517,347.515,423.381,347.515L423.381,347.515z"/>
<path fill-rule="evenodd" clip-rule="evenodd" fill="#FFFFFF" stroke="#000000" stroke-width="1.25" stroke-linecap="square" stroke-miterlimit="10" d="  M425.631,419.515c3.703,0.496,8.339,3.079,13.5,5.25c0,0.75,0,1.5,0,2.25c-6.222,2.069-4.526-0.965-8.25-2.25  C425.605,429.727,425.677,425.93,425.631,419.515z"/>
<path fill-rule="evenodd" clip-rule="evenodd" fill="#FFFFFF" stroke="#000000" stroke-width="1.25" stroke-linecap="square" stroke-miterlimit="10" d="  M427.881,432.265c5.085,3.808,9.456,5.2,10.5,10.5C431.433,442.059,432.085,438.009,427.881,432.265z"/>
<path fill-rule="evenodd" clip-rule="evenodd" fill="#FFFFFF" stroke="#000000" stroke-width="1.25" stroke-linecap="square" stroke-miterlimit="10" d="  M427.131,366.265c4.166-0.889,8.249-2.506,12-4.5c-0.351,2.806,1.058,5.937,0.75,9C432.519,370.668,429.086,368.238,427.131,366.265  z"/>
<path fill-rule="evenodd" clip-rule="evenodd" d="M394.877,342.265c6.506,2.637,12.767,4.44,18.752,8.25  C407.38,347.766,401.073,345.13,394.877,342.265z"/>
<path fill="none" stroke="#000000" stroke-width="1.25" stroke-linecap="square" stroke-miterlimit="10" d="M394.877,342.265  c6.648,1.787,12.95,4.558,18.752,8.25"/>
</svg>