<svg xmlns="http://www.w3.org/2000/svg" xmlns:xlink="http://www.w3.org/1999/xlink" version="1.1" id="Layer_1" x="0px" y="0px" enable-background="new 0 0 822.05 841.89" xml:space="preserve" viewBox="306.59 332.99 209.63 177.57">
<path fill-rule="evenodd" clip-rule="evenodd" fill="#E9CCA9" stroke="#000000" stroke-width="1.25" stroke-linecap="square" stroke-miterlimit="10" d="  M403.215,370.742c-3.521-3.759-10.894,11.204-23.25,17.25c-1.795-9.869-6.727-15.739-15-19.875  c-12.264-6.132,5.86-13.401-2.25-22.875c-16.264-18.997-26.135,6.073-13.5,19.5c-22.54,5.013-20.194,41.637-42,54c0,0.5,0,1,0,1.5  c1.25,0,2.5,0,3.75,0c-7.688,22.042,24.029-16.69,28.5-27.75c4.492,19.323-2.645,43.135-1.5,63.748  c1.043,18.771,9.45,44.694-12,53.25c32.535,6.155,23.683-53.113,27.75-78c0.637,24.274,13.012,52.724,5.25,75.75  c6.205,1.792,14.952,3.351,21,2.25c-24.354-8.698-9.948-45.554-9.75-66c0.181-18.699-11.029-43.188-2.25-59.248  c13.081,30.173,38.229-5.074,48-20.25C409.896,363.854,407.979,367.397,403.215,370.742z"/>
<path fill="none" stroke="#000000" stroke-width="0.75" stroke-linecap="square" stroke-miterlimit="10" d="M340.215,387.242  c4.397,7.647,8.052,7.263,10.5-1.5"/>
<path fill="none" stroke="#000000" stroke-width="0.75" stroke-linecap="square" stroke-miterlimit="10" d="M353.715,385.742  c3.185,7.674,6.809,7.647,10.5,0"/>
<path fill-rule="evenodd" clip-rule="evenodd" stroke="#000000" stroke-linecap="square" stroke-miterlimit="10" d="M349.965,428.49  c1,2.75,2,5.5,3,8.25c1.25-2.75,2.5-5.5,3.75-8.25C354.465,428.49,352.215,428.49,349.965,428.49z"/>
<path fill-rule="evenodd" clip-rule="evenodd" fill="#21621B" stroke="#000000" stroke-width="1.25" stroke-linecap="square" stroke-miterlimit="10" d="  M336.465,420.242c9.206,16.456,21.341,19.829,33,2.998C358.181,423.628,347.219,423.332,336.465,420.242z"/>
<path fill-rule="evenodd" clip-rule="evenodd" fill="#21621B" stroke="#000000" stroke-width="1.25" stroke-linecap="square" stroke-miterlimit="10" d="  M352.965,389.492C338.322,397.675,338.1,381.822,352.965,389.492L352.965,389.492z"/>
<path fill-rule="evenodd" clip-rule="evenodd" fill="#21621B" stroke="#000000" stroke-width="1.25" stroke-linecap="square" stroke-miterlimit="10" d="  M364.965,390.992C351.547,396.009,351.652,384.842,364.965,390.992L364.965,390.992z"/>
<path fill-rule="evenodd" clip-rule="evenodd" d="M346.215,384.992c-0.441-3.583-3.463-12.552,0-17.25  C346.215,373.489,346.09,379.246,346.215,384.992z"/>
<path fill-rule="evenodd" clip-rule="evenodd" d="M362.715,384.242c0.022-2.948-1.709-12.688,2.25-17.25  C364.215,372.739,363.341,378.48,362.715,384.242z"/>
<path fill="none" stroke="#000000" stroke-width="1.25" stroke-linecap="square" stroke-miterlimit="10" d="M439.215,384.992  c-16.241-12.919-28.773-11.73-45,0.75C409.215,385.492,424.215,385.242,439.215,384.992z"/>
<path fill="none" stroke="#000000" stroke-width="1.25" stroke-linecap="square" stroke-miterlimit="10" d="M412.965,361.742  c6.396-0.171,6.701,5.292,4.5,12"/>
<path fill-rule="evenodd" clip-rule="evenodd" fill="#960F1E" stroke="#000000" stroke-width="1.25" stroke-linecap="square" stroke-miterlimit="10" d="  M432.465,417.242C380.978,405.407,418.284,441.186,432.465,417.242L432.465,417.242z"/>
<path fill-rule="evenodd" clip-rule="evenodd" fill="#21621B" stroke="#000000" stroke-width="1.25" stroke-linecap="square" stroke-miterlimit="10" d="  M432.465,420.242c6.548,22.581,12.242,45.461,24,65.998c-25.8-2.944-48.449,1.867-75.375-1.125  c-15.006-1.667,9.258-30.184,13.875-40.125c9.732-20.956,2.14-16.31,17.25-21.75C418.377,421.021,425.388,423.995,432.465,420.242z"/>
<path fill-rule="evenodd" clip-rule="evenodd" fill="#D02127" d="M428.715,429.99l13.5,55.5L428.715,429.99z"/>
<line fill="none" stroke="#000000" stroke-width="1.25" stroke-linecap="square" stroke-miterlimit="10" x1="428.715" y1="429.99" x2="442.215" y2="485.49"/>
<path fill-rule="evenodd" clip-rule="evenodd" fill="#D02127" d="M421.965,429.99l3,57L421.965,429.99z"/>
<line fill="none" stroke="#000000" stroke-width="1.25" stroke-linecap="square" stroke-miterlimit="10" x1="421.965" y1="429.99" x2="424.965" y2="486.99"/>
<path fill-rule="evenodd" clip-rule="evenodd" fill="#D02127" d="M413.717,429.24l-3.752,59.25L413.717,429.24z"/>
<line fill="none" stroke="#000000" stroke-width="1.25" stroke-linecap="square" stroke-miterlimit="10" x1="413.717" y1="429.24" x2="409.965" y2="488.49"/>
<path fill-rule="evenodd" clip-rule="evenodd" fill="#D02127" d="M405.465,428.49l-14.25,57L405.465,428.49z"/>
<line fill="none" stroke="#000000" stroke-width="1.25" stroke-linecap="square" stroke-miterlimit="10" x1="405.465" y1="428.49" x2="391.215" y2="485.49"/>
<path fill-rule="evenodd" clip-rule="evenodd" fill="#F5E507" stroke="#000000" stroke-width="1.25" stroke-linecap="square" stroke-miterlimit="10" d="  M432.465,417.242c0.5,2.25,1,4.499,1.5,6.748c-11.957,4.048-31.125,7.79-30.75-6.748  C412.811,419.268,422.668,418.991,432.465,417.242z"/>
<path fill-rule="evenodd" clip-rule="evenodd" fill="#F5E507" stroke="#000000" stroke-width="1.25" stroke-linecap="square" stroke-miterlimit="10" d="  M400.215,462.24C408.518,462.357,408.494,462.357,400.215,462.24L400.215,462.24z"/>
<path fill-rule="evenodd" clip-rule="evenodd" fill="#F5E507" stroke="#000000" stroke-width="1.25" stroke-linecap="square" stroke-miterlimit="10" d="  M412.215,477.99C420.955,477.559,420.906,477.562,412.215,477.99L412.215,477.99z"/>
<path fill-rule="evenodd" clip-rule="evenodd" fill="#F5E507" stroke="#000000" stroke-width="1.25" stroke-linecap="square" stroke-miterlimit="10" d="  M427.215,467.49C435.044,467.697,434.971,467.695,427.215,467.49L427.215,467.49z"/>
<path fill-rule="evenodd" clip-rule="evenodd" fill="#F5E507" stroke="#000000" stroke-width="1.25" stroke-linecap="square" stroke-miterlimit="10" d="  M413.717,447.99C421.428,447.862,421.306,447.865,413.717,447.99L413.717,447.99z"/>
<path fill-rule="evenodd" clip-rule="evenodd" fill="#F5E507" stroke="#000000" stroke-width="1.25" stroke-linecap="square" stroke-miterlimit="10" d="  M399.465,444.24c-3.037,1.69-1.022,5.543-6.75,5.25C394.728,437.233,398.626,444.707,399.465,444.24z"/>
<path fill-rule="evenodd" clip-rule="evenodd" fill="#F5E507" stroke="#000000" stroke-width="1.25" stroke-linecap="square" stroke-miterlimit="10" d="  M437.715,454.74c1.553,0.504,3.93-9.672,6.75,4.5C438.581,460.862,440.189,455.543,437.715,454.74z"/>
<path fill-rule="evenodd" clip-rule="evenodd" fill="#F5E507" stroke="#000000" stroke-width="1.25" stroke-linecap="square" stroke-miterlimit="10" d="  M444.465,474.99c-0.873-0.098,3.315-4.385,4.5-4.5c1,2.5,2,5,3,7.5C446.6,480.62,447.264,475.303,444.465,474.99z"/>
<path fill-rule="evenodd" clip-rule="evenodd" fill="#F5E507" stroke="#000000" stroke-width="1.25" stroke-linecap="square" stroke-miterlimit="10" d="  M385.215,474.24c-3.396,1.075-1.936,8.07-9,3C380.797,468.927,383.79,474.691,385.215,474.24z"/>
<path fill-rule="evenodd" clip-rule="evenodd" fill="#21621B" stroke="#000000" stroke-width="1.25" stroke-linecap="square" stroke-miterlimit="10" d="  M432.465,417.242c0.766-8.996,7.22-50.626-7.125-31.5c-9.133,12.177-13.692-2.841-14.625-2.25c1.679-1.064-7.5-9.826-7.5-0.972  c0,5.951-3.798,30.694,0,34.722C409.332,423.729,425.412,420.039,432.465,417.242z"/>
<path fill-rule="evenodd" clip-rule="evenodd" d="M391.965,340.742c25.769-20.539,58.377,11.755,33,33.75c-1-1-2-2-3-3  c25.815-27.203-27.079-43.604-23.25-22.5c-5.406,2.735-13.483,5.333-19.5,6C382.257,341.844,387.155,341.642,391.965,340.742z"/>
<path fill-rule="evenodd" clip-rule="evenodd" fill="#FFFFFF" stroke="#000000" stroke-linecap="square" stroke-miterlimit="10" d="  M463.215,372.992c1.331,33.702,52.884,33.533,52.5,0C515.333,339.697,465.514,339.945,463.215,372.992z"/>
<path fill-rule="evenodd" clip-rule="evenodd" fill="#FFFFFF" d="M489.465,391.742v5.25V391.742z"/>
<line fill="none" stroke="#000000" stroke-linecap="square" stroke-miterlimit="10" x1="489.465" y1="391.742" x2="489.465" y2="396.992"/>
<path fill-rule="evenodd" clip-rule="evenodd" fill="#FFFFFF" d="M470.715,372.992h-5.25H470.715z"/>
<line fill="none" stroke="#000000" stroke-linecap="square" stroke-miterlimit="10" x1="470.715" y1="372.992" x2="465.465" y2="372.992"/>
<path fill-rule="evenodd" clip-rule="evenodd" fill="#FFFFFF" d="M513.465,372.992h-5.25H513.465z"/>
<line fill="none" stroke="#000000" stroke-linecap="square" stroke-miterlimit="10" x1="513.465" y1="372.992" x2="508.215" y2="372.992"/>
<path fill-rule="evenodd" clip-rule="evenodd" fill="#FFFFFF" d="M475.965,386.492l-3,3.75L475.965,386.492z"/>
<line fill="none" stroke="#000000" stroke-linecap="square" stroke-miterlimit="10" x1="475.965" y1="386.492" x2="472.965" y2="390.242"/>
<path fill-rule="evenodd" clip-rule="evenodd" fill="#FFFFFF" d="M505.965,356.492l-3,3.75L505.965,356.492z"/>
<line fill="none" stroke="#000000" stroke-linecap="square" stroke-miterlimit="10" x1="505.965" y1="356.492" x2="502.965" y2="360.242"/>
<path fill-rule="evenodd" clip-rule="evenodd" fill="#FFFFFF" d="M505.965,390.242l-3-3.75L505.965,390.242z"/>
<line fill="none" stroke="#000000" stroke-linecap="square" stroke-miterlimit="10" x1="505.965" y1="390.242" x2="502.965" y2="386.492"/>
<path fill-rule="evenodd" clip-rule="evenodd" stroke="#000000" stroke-linecap="square" stroke-miterlimit="10" d="  M486.465,351.992c2.824,0,3.097,6.571,6,0C489.562,345.421,489.289,351.992,486.465,351.992z"/>
<path fill-rule="evenodd" clip-rule="evenodd" stroke="#000000" stroke-linecap="square" stroke-miterlimit="10" d="  M490.215,357.242c-0.105,5.699,1.006,11.564,1.5,17.25c-1.5-0.25-3-0.5-4.5-0.75C488.202,368.311,489.838,362.741,490.215,357.242z"/>
<path fill-rule="evenodd" clip-rule="evenodd" stroke="#000000" stroke-linecap="square" stroke-miterlimit="10" d="  M486.465,372.992c1.814,0.18,0.879,4.531,5.25,2.25C492.312,367.963,489.167,373.259,486.465,372.992z"/>
<path fill-rule="evenodd" clip-rule="evenodd" fill="#D12627" stroke="#000000" stroke-width="0.5" stroke-linecap="square" stroke-miterlimit="10" d="  M472.965,358.742c1.731-0.21,2.395,4.57,5.25,0C475.205,352.39,475.201,358.47,472.965,358.742z"/>
<path fill-rule="evenodd" clip-rule="evenodd" fill="#D12627" stroke="#000000" stroke-width="0.5" stroke-linecap="square" stroke-miterlimit="10" d="  M472.215,339.992c3-2.25,6-4.5,9-6.75c0.75,1,1.5,2,2.25,3c-6.495,7.499-8.478,10.539-18.75,12  C466.659,342.511,472.236,339.978,472.215,339.992z"/>
</svg>