<svg xmlns="http://www.w3.org/2000/svg" xmlns:xlink="http://www.w3.org/1999/xlink" version="1.1" id="Layer_1" x="0px" y="0px" enable-background="new 0 0 822.05 841.89" xml:space="preserve" viewBox="304.99 348.76 211.37 147.03">
<path fill-rule="evenodd" clip-rule="evenodd" fill="#828282" stroke="#000000" stroke-width="0.5" stroke-linecap="square" stroke-miterlimit="10" d="  M427.604,365.64c-1.593,20.995-32.033,22.155-32.25,0C395.135,343.271,426.488,343.667,427.604,365.64z"/>
<path fill-rule="evenodd" clip-rule="evenodd" fill="#684E28" stroke="#000000" stroke-width="0.5" stroke-linecap="square" stroke-miterlimit="10" d="  M514.604,494.64C479.079,502.419,524.745,456.441,514.604,494.64L514.604,494.64z"/>
<path fill-rule="evenodd" clip-rule="evenodd" fill="#684E28" stroke="#000000" stroke-width="0.5" stroke-linecap="square" stroke-miterlimit="10" d="  M318.854,493.89C283.918,501.83,328.405,457.021,318.854,493.89L318.854,493.89z"/>
<path fill-rule="evenodd" clip-rule="evenodd" fill="#684E28" stroke="#000000" stroke-width="0.5" stroke-linecap="square" stroke-miterlimit="10" d="  M305.354,473.64c11.483-11.483,27.284-35.726,42-42c15.02-6.403,46.752,0,62.831,0c26.927,0,53.855,0,80.783,0  c10.851,0,20.435,32.596,25.137,42C445.854,473.64,375.604,473.64,305.354,473.64z"/>
<path fill-rule="evenodd" clip-rule="evenodd" fill="#684E28" stroke="#000000" stroke-width="0.5" stroke-linecap="square" stroke-miterlimit="10" d="  M516.104,473.64c-40.412,0-80.823,0-121.235,0c-24.063,0-48.127,0-72.19,0c-18.56,0-24.407,9.75-2.131,9.75  c34.62,0,69.362-3.902,104.056-3.75C443.299,479.722,516.35,491.648,516.104,473.64z"/>
<path fill-rule="evenodd" clip-rule="evenodd" fill="#20465B" stroke="#000000" stroke-width="0.5" stroke-linecap="square" stroke-miterlimit="10" d="  M381.104,433.89c-5,10-10,20-15,30c29.75-0.5,59.5-1,89.25-1.5C433.098,427.151,422.821,433.89,381.104,433.89z"/>
<path fill-rule="evenodd" clip-rule="evenodd" fill="#FFFFFF" stroke="#000000" stroke-width="0.5" stroke-linecap="square" stroke-miterlimit="10" d="  M465.104,439.14c20.956-1.612,33.099-6.271,42,16.5C488.129,456.826,465.397,465.992,465.104,439.14z"/>
<path fill-rule="evenodd" clip-rule="evenodd" fill="#B2B2B2" stroke="#000000" stroke-width="0.5" stroke-linecap="square" stroke-miterlimit="10" d="  M464.354,436.14c20.582-1.083,32.244-4.936,42,16.5C486.976,454.222,463.39,464.223,464.354,436.14z"/>
<path fill-rule="evenodd" clip-rule="evenodd" fill="#FFFFFF" stroke="#000000" stroke-width="0.5" stroke-linecap="square" stroke-miterlimit="10" d="  M465.854,434.64c20.956-1.612,33.099-6.271,42,16.5C488.879,452.326,466.147,461.492,465.854,434.64z"/>
<path fill-rule="evenodd" clip-rule="evenodd" fill="#FFFFFF" stroke="#000000" stroke-width="0.5" stroke-linecap="square" stroke-miterlimit="10" d="  M468.104,431.64c21.012-1.659,32.407-5.794,42,16.5C490.726,449.722,467.14,459.723,468.104,431.64z"/>
<path fill-rule="evenodd" clip-rule="evenodd" fill="#B2B2B2" stroke="#000000" stroke-width="0.5" stroke-linecap="square" stroke-miterlimit="10" d="  M468.104,430.14c21.012-1.659,32.407-5.794,42,16.5C490.708,448.256,468.062,457.9,468.104,430.14z"/>
<path fill-rule="evenodd" clip-rule="evenodd" fill="#D0F1FC" stroke="#000000" stroke-width="0.5" stroke-linecap="square" stroke-miterlimit="10" d="  M448.604,445.14c24.654,0,37.268-5.325,35.25,24.75c-12.5,0-25,0-37.5,0C447.076,461.935,446.623,452.859,448.604,445.14z"/>
<path fill-rule="evenodd" clip-rule="evenodd" fill="#D0F1FC" stroke="#000000" stroke-width="0.5" stroke-linecap="square" stroke-miterlimit="10" d="  M448.604,442.89c24.654,0,37.268-5.325,35.25,24.75c-12.25,0-24.5,0-36.75,0C447.577,459.83,446.614,450.43,448.604,442.89z"/>
<path fill-rule="evenodd" clip-rule="evenodd" fill="#D0F1FC" stroke="#000000" stroke-width="0.5" stroke-linecap="square" stroke-miterlimit="10" d="  M450.854,445.89C449.205,443.075,447.787,440.652,450.854,445.89L450.854,445.89z"/>
<path fill-rule="evenodd" clip-rule="evenodd" fill="#D0F1FC" stroke="#000000" stroke-width="0.5" stroke-linecap="square" stroke-miterlimit="10" d="  M455.354,445.89C453.705,443.075,452.287,440.652,455.354,445.89L455.354,445.89z"/>
<path fill-rule="evenodd" clip-rule="evenodd" fill="#D0F1FC" stroke="#000000" stroke-width="0.5" stroke-linecap="square" stroke-miterlimit="10" d="  M459.854,445.89C458.205,443.075,456.787,440.652,459.854,445.89L459.854,445.89z"/>
<path fill-rule="evenodd" clip-rule="evenodd" fill="#D0F1FC" stroke="#000000" stroke-width="0.5" stroke-linecap="square" stroke-miterlimit="10" d="  M480.854,445.89C479.205,443.075,477.787,440.652,480.854,445.89L480.854,445.89z"/>
<path fill-rule="evenodd" clip-rule="evenodd" fill="#D0F1FC" stroke="#000000" stroke-width="0.5" stroke-linecap="square" stroke-miterlimit="10" d="  M476.354,445.89C474.705,443.075,473.287,440.652,476.354,445.89L476.354,445.89z"/>
<path fill-rule="evenodd" clip-rule="evenodd" fill="#D0F1FC" stroke="#000000" stroke-width="0.5" stroke-linecap="square" stroke-miterlimit="10" d="  M472.604,445.89C470.955,443.075,469.537,440.652,472.604,445.89L472.604,445.89z"/>
<path fill-rule="evenodd" clip-rule="evenodd" fill="#D0F1FC" stroke="#000000" stroke-width="0.5" stroke-linecap="square" stroke-miterlimit="10" d="  M468.104,445.89C466.455,443.075,465.037,440.652,468.104,445.89L468.104,445.89z"/>
<path fill-rule="evenodd" clip-rule="evenodd" fill="#D0F1FC" stroke="#000000" stroke-width="0.5" stroke-linecap="square" stroke-miterlimit="10" d="  M463.604,445.89C461.955,443.075,460.537,440.652,463.604,445.89L463.604,445.89z"/>
<path fill-rule="evenodd" clip-rule="evenodd" fill="#684E28" stroke="#000000" stroke-width="0.5" stroke-linecap="square" stroke-miterlimit="10" d="  M446.354,416.64c-12.159,0-103.566,10.306-72.75-27c4.588-5.554,49.242,0,57.036,0C452.319,389.64,446.354,395.415,446.354,416.64z"/>
<path fill-rule="evenodd" clip-rule="evenodd" fill="#FFFFFF" stroke="#000000" stroke-width="0.5" stroke-linecap="square" stroke-miterlimit="10" d="  M425.354,397.14C366.706,411.134,428.39,361.628,425.354,397.14L425.354,397.14z"/>
<path fill-rule="evenodd" clip-rule="evenodd" fill="#E8C8A6" stroke="#000000" stroke-width="0.5" stroke-linecap="square" stroke-miterlimit="10" d="  M392.354,393.39c6.3-4.634,11.283-2.203,13.5-10.5c0.112,0.835-0.138,1.585-0.75,2.25c17.521-1.504,23.774,5.52,19.875,20.25  C417.627,433.164,379.306,413.744,392.354,393.39z"/>
<path fill-rule="evenodd" clip-rule="evenodd" fill="#FFFFFF" stroke="#000000" stroke-width="0.5" stroke-linecap="square" stroke-miterlimit="10" d="  M433.604,430.89c-0.14-5.975,0.501-12.026,0.75-18c0.75,3,1.5,6,2.25,9c28.627-10.489-0.324-40.09-17.625-26.25  c-7.39,5.912-11.229,2.915-18-2.625c-9.851-8.06-26.341,4.737-34.125,11.625c4.463,12.692,12.042,18.206,21.75,7.5  c-2.583,5.506-1.018,12.962-3,18.75C401.604,430.89,417.604,430.89,433.604,430.89z"/>
<path fill-rule="evenodd" clip-rule="evenodd" fill="#FFFFFF" stroke="#000000" stroke-width="0.5" stroke-linecap="square" stroke-miterlimit="10" d="  M396.104,389.64c7.762-2.548,19.431,9.251,9.75,21.75C402.726,404.413,398.042,397.019,396.104,389.64z"/>
<path fill-rule="evenodd" clip-rule="evenodd" fill="#FFFFFF" stroke="#000000" stroke-width="0.5" stroke-linecap="square" stroke-miterlimit="10" d="  M426.104,390.39c-6.785-3.186-15.394,8.917-9,21.75C420.025,405.078,424.168,397.771,426.104,390.39z"/>
<path fill-rule="evenodd" clip-rule="evenodd" fill="#060949" stroke="#000000" stroke-width="0.5" stroke-linecap="square" stroke-miterlimit="10" d="  M416.354,419.64c-0.618-6.031-1.03-10.846-4.5-15.75C403.629,419.317,413.359,443.245,416.354,419.64z"/>
<path fill-rule="evenodd" clip-rule="evenodd" fill="#060949" stroke="#000000" stroke-width="0.5" stroke-linecap="square" stroke-miterlimit="10" d="  M414.105,403.89C408.954,403.89,408.954,403.89,414.105,403.89L414.105,403.89z"/>
<path fill-rule="evenodd" clip-rule="evenodd" fill="#E8C8A6" stroke="#000000" stroke-width="0.5" stroke-linecap="square" stroke-miterlimit="10" d="  M393.854,370.89C398.044,370.705,398.805,370.671,393.854,370.89L393.854,370.89z"/>
<path fill-rule="evenodd" clip-rule="evenodd" fill="#E8C8A6" stroke="#000000" stroke-width="0.5" stroke-linecap="square" stroke-miterlimit="10" d="  M424.604,370.89C428.795,370.705,429.556,370.671,424.604,370.89L424.604,370.89z"/>
<path fill-rule="evenodd" clip-rule="evenodd" fill="#E8C8A6" stroke="#000000" stroke-width="0.5" stroke-linecap="square" stroke-miterlimit="10" d="  M422.354,355.89c-9.285,4.363-36.581-1.631-24.75,21.75C410.873,403.866,437.215,375.921,422.354,355.89z"/>
<path fill-rule="evenodd" clip-rule="evenodd" fill="#FFFFFF" stroke="#000000" stroke-width="0.5" stroke-linecap="square" stroke-miterlimit="10" d="  M383.354,441.39c8.228,7.479,25.635,3.927,36.75-1.5C407.854,440.39,395.604,440.89,383.354,441.39z"/>
<path fill-rule="evenodd" clip-rule="evenodd" fill="#FFFFFF" stroke="#000000" stroke-width="0.5" stroke-linecap="square" stroke-miterlimit="10" d="  M395.354,418.14c10.25,0,20.5,0,30.75,0c0.896,31.559-11.628,27.625-39.75,27C395.835,439.371,398.837,428.926,395.354,418.14z"/>
<path fill-rule="evenodd" clip-rule="evenodd" fill="#101177" stroke="#000000" stroke-width="0.5" stroke-linecap="square" stroke-miterlimit="10" d="  M501.104,441.39c-1.849-2.075-9.162-6.845-9-13.5C495.104,432.389,498.053,436.925,501.104,441.39z"/>
<path fill-rule="evenodd" clip-rule="evenodd" fill="#101177" stroke="#000000" stroke-width="0.5" stroke-linecap="square" stroke-miterlimit="10" d="  M431.354,456.39c-5.541-3.993-18.33-5.943-24.75-3.75C414.629,453.856,423.251,456.301,431.354,456.39z"/>
<path fill-rule="evenodd" clip-rule="evenodd" fill="#E8C8A6" stroke="#000000" stroke-width="0.5" stroke-linecap="square" stroke-miterlimit="10" d="  M366.854,424.14c2.75-2.75,5.5-5.5,8.25-8.25c-1-1.25-2-2.5-3-3.75c-23.906,19.104,12.804,20.12,24.75,15.75  C386.769,427.851,376.68,426.586,366.854,424.14z"/>
<path fill-rule="evenodd" clip-rule="evenodd" fill="#E8C8A6" stroke="#000000" stroke-width="0.5" stroke-linecap="square" stroke-miterlimit="10" d="  M408.854,431.64c-6.2-3.602-10.426-7.109-18.75-2.25C396.47,435.774,401.28,433.313,408.854,431.64z"/>
<path fill-rule="evenodd" clip-rule="evenodd" fill="#B2B2B2" stroke="#000000" stroke-width="0.5" stroke-linecap="square" stroke-miterlimit="10" d="  M372.854,438.39C369.885,438.946,368.934,439.125,372.854,438.39L372.854,438.39z"/>
<path fill-rule="evenodd" clip-rule="evenodd" fill="#B2B2B2" stroke="#000000" stroke-width="0.5" stroke-linecap="square" stroke-miterlimit="10" d="  M325.604,463.89c2.21-13.875,15.04-8.636,28.5-9c-9.458-21.407,22.619-22.39,15.656-11.25  C355.378,466.651,352.604,463.89,325.604,463.89z"/>
<path fill-rule="evenodd" clip-rule="evenodd" fill="#B2B2B2" stroke="#000000" stroke-width="0.5" stroke-linecap="square" stroke-miterlimit="10" d="  M342.854,432.39c-9.337,4.052-14.851,12.048-16.5,22.5c25.031,0.659,29.495,0.302,40.5-21  C359.442,431.262,350.769,430.554,342.854,432.39z"/>
<path fill-rule="evenodd" clip-rule="evenodd" fill="#B2B2B2" d="M354.854,455.64l2.25,8.25L354.854,455.64z"/>
<line fill="none" stroke="#000000" stroke-width="0.5" stroke-linecap="square" stroke-miterlimit="10" x1="354.854" y1="455.64" x2="357.104" y2="463.89"/>
<path fill-rule="evenodd" clip-rule="evenodd" fill="#B2B2B2" stroke="#000000" stroke-width="0.5" stroke-linecap="square" stroke-miterlimit="10" d="  M343.604,430.89c-4.513,3.554-7.892,6.122-8.25,12.75c10.96,2.622,17.937-1.232,21.75-11.25  C353.087,430.72,348.213,430.229,343.604,430.89z"/>
<path fill-rule="evenodd" clip-rule="evenodd" fill="#B2B2B2" d="M336.104,439.89c5.25,0,10.5,0,15.75,0  C346.604,439.89,341.354,439.89,336.104,439.89z"/>
<path fill="none" stroke="#000000" stroke-width="0.5" stroke-linecap="square" stroke-miterlimit="10" d="M336.104,439.89  c5.25,0,10.5,0,15.75,0"/>
<path fill-rule="evenodd" clip-rule="evenodd" fill="#B2B2B2" d="M337.604,436.14c5.295,0.18,10.466,0.102,15.75,0.75  C348.104,436.64,342.854,436.378,337.604,436.14z"/>
<path fill="none" stroke="#000000" stroke-width="0.5" stroke-linecap="square" stroke-miterlimit="10" d="M337.604,436.14  c5.268-0.142,10.518,0.108,15.75,0.75"/>
<path fill-rule="evenodd" clip-rule="evenodd" fill="#B2B2B2" d="M339.854,433.14L339.854,433.14L339.854,433.14z"/>
<line fill="none" stroke="#000000" stroke-width="0.5" stroke-linecap="square" stroke-miterlimit="10" x1="339.854" y1="433.14" x2="339.854" y2="433.14"/>
<path fill-rule="evenodd" clip-rule="evenodd" fill="#B2B2B2" d="M340.604,432.39c5.196,0.37,9.894,0.126,15,1.5  C350.607,433.39,345.611,432.747,340.604,432.39z"/>
<path fill="none" stroke="#000000" stroke-width="0.5" stroke-linecap="square" stroke-miterlimit="10" d="M340.604,432.39  c5.058-0.319,10.114,0.185,15,1.5"/>
<path fill-rule="evenodd" clip-rule="evenodd" fill="#B2B2B2" d="M347.354,430.89c-3.269,4.505-6.963,6.303-7.5,12.75  C342.354,439.39,344.854,435.14,347.354,430.89z"/>
<path fill="none" stroke="#000000" stroke-width="0.5" stroke-linecap="square" stroke-miterlimit="10" d="M347.354,430.89  c-4.417,2.865-7.055,7.398-7.5,12.75"/>
<path fill-rule="evenodd" clip-rule="evenodd" fill="#B2B2B2" d="M351.104,430.89c-2.095,4.19-4.534,8.12-6,12.75  C347.104,439.39,349.104,435.14,351.104,430.89z"/>
<path fill="none" stroke="#000000" stroke-width="0.5" stroke-linecap="square" stroke-miterlimit="10" d="M351.104,430.89  c-2.547,3.916-4.564,8.217-6,12.75"/>
<path fill-rule="evenodd" clip-rule="evenodd" fill="#B2B2B2" stroke="#000000" stroke-width="0.5" stroke-linecap="square" stroke-miterlimit="10" d="  M360.854,451.89c-7.196-12.414-19.48-7.102-32.25-6c-17.907,1.544,7.5,9.227,5.25,7.5c-6.033-4.631,15.546-4.486,15-4.5  C347.527,457.512,353.52,454.431,360.854,451.89z"/>
<path fill-rule="evenodd" clip-rule="evenodd" fill="#B2B2B2" d="M323.354,451.14c4.949-0.044,7.873,1.679,12.75-1.5  C331.854,450.14,327.604,450.64,323.354,451.14z"/>
<path fill="none" stroke="#000000" stroke-width="0.5" stroke-linecap="square" stroke-miterlimit="10" d="M323.354,451.14  c4.276,1.547,8.903,1.007,12.75-1.5"/>
<path fill-rule="evenodd" clip-rule="evenodd" fill="#B2B2B2" d="M346.604,451.89c6.078-0.474,9.604,1.416,15-3  C356.616,449.887,351.633,451.145,346.604,451.89z"/>
<path fill="none" stroke="#000000" stroke-width="0.5" stroke-linecap="square" stroke-miterlimit="10" d="M346.604,451.89  c5.425,1.561,10.643,0.566,15-3"/>
<path fill-rule="evenodd" clip-rule="evenodd" fill="#B2B2B2" stroke="#000000" stroke-width="0.5" stroke-linecap="square" stroke-miterlimit="10" d="  M351.104,441.39C353.496,440.706,353.674,440.655,351.104,441.39L351.104,441.39z"/>
<path fill-rule="evenodd" clip-rule="evenodd" fill="#B2B2B2" stroke="#000000" stroke-width="0.5" stroke-linecap="square" stroke-miterlimit="10" d="  M379.604,445.14c-1.67-2.833-0.57-6.426-7.5-6c9.907,8.531-1.75,12.541-11.25,12.75C370.476,453.382,376.407,450.796,379.604,445.14  z"/>
<path fill-rule="evenodd" clip-rule="evenodd" fill="#E8C8A6" stroke="#000000" stroke-width="0.5" stroke-linecap="square" stroke-miterlimit="10" d="  M450.854,429.39c-2.5-4.25-5-8.5-7.5-12.75c-1,1-2,2-3,3c10.848,13.517-2.844,21.511-13.5,30  C436.902,447.088,447.336,438.154,450.854,429.39z"/>
<path fill-rule="evenodd" clip-rule="evenodd" fill="#E8C8A6" stroke="#000000" stroke-width="0.5" stroke-linecap="square" stroke-miterlimit="10" d="  M414.105,457.14c4.152-4.182,4.999-10.062,14.998-8.25C426.308,457.191,420.974,455.84,414.105,457.14z"/>
</svg>