<svg xmlns="http://www.w3.org/2000/svg" xmlns:xlink="http://www.w3.org/1999/xlink" version="1.1" id="Layer_1" x="0px" y="0px" enable-background="new 0 0 822.05 841.89" xml:space="preserve" viewBox="219.71 258.53 381.75 327.36">
<path fill-rule="evenodd" clip-rule="evenodd" fill="#743E3A" stroke="#000000" stroke-width="2" stroke-linecap="square" stroke-miterlimit="10" d="  M589.283,314.89c-40.343-74.396-146.924-69.656-198.754-10.5c-35.253,40.236-31.493,82.962-36,131.25  c-2.872,30.775-29.312,81.721-66.75,78.75c-25.855-2.052-27.764-41.297-50.25-38.25c-32.308,4.377-9.978,62.382,0.375,76.875  c51.825,72.555,156.513,5.068,179.629-58.5c5.27-14.492,55.304-18.396,71.25-24.375c25.068-9.4,54.187-21.334,75.75-37.5  C602.087,404.486,609.957,356.337,589.283,314.89z M541.283,366.64c-18.211,43.262-69.923,63.104-114,61.5  c0.143-31.289,7.157-77.563,40.125-90.75C489.227,328.663,545.347,332.547,541.283,366.64z"/>
<path fill-rule="evenodd" clip-rule="evenodd" fill="#743E3A" d="M427.283,428.14c1.651,19.349,1.38,42.309-7.5,60  C422.283,468.14,424.783,448.14,427.283,428.14z"/>
<path fill="none" stroke="#000000" stroke-width="2" stroke-linecap="square" stroke-miterlimit="10" d="M427.283,428.14  c1.651,19.349,1.38,42.309-7.5,60"/>
<path fill-rule="evenodd" clip-rule="evenodd" fill="#743E3A" d="M259.279,495.64c-16.317,2.733-29.283,14.576-34.5,30  C236.279,515.64,247.779,505.64,259.279,495.64z"/>
<path fill="none" stroke="#000000" stroke-width="2" stroke-linecap="square" stroke-miterlimit="10" d="M259.279,495.64  c-16.317,2.733-29.283,14.576-34.5,30"/>
<path fill-rule="evenodd" clip-rule="evenodd" fill="#743E3A" d="M267.529,503.14c-17.184,8.342-29.843,24.854-33.75,43.5  C245.029,532.14,256.279,517.64,267.529,503.14z"/>
<path fill="none" stroke="#000000" stroke-width="2" stroke-linecap="square" stroke-miterlimit="10" d="M267.529,503.14  c-17.184,8.342-29.843,24.854-33.75,43.5"/>
<path fill-rule="evenodd" clip-rule="evenodd" fill="#743E3A" d="M277.279,513.64c-17.041,16.312-23.804,39.035-15.75,61.5  C266.779,554.64,272.029,534.14,277.279,513.64z"/>
<path fill="none" stroke="#000000" stroke-width="2" stroke-linecap="square" stroke-miterlimit="10" d="M277.279,513.64  c-17.041,16.312-23.804,39.035-15.75,61.5"/>
<path fill-rule="evenodd" clip-rule="evenodd" fill="#743E3A" d="M295.279,515.89c-12.429,22.276-11.888,48.851,4.5,69  C298.279,561.89,296.779,538.89,295.279,515.89z"/>
<path fill="none" stroke="#000000" stroke-width="2" stroke-linecap="square" stroke-miterlimit="10" d="M295.279,515.89  c-12.429,22.276-11.888,48.851,4.5,69"/>
<path fill-rule="evenodd" clip-rule="evenodd" fill="#743E3A" d="M309.529,509.14c3.348,23.921,10.755,52.804,35.25,63  C333.029,551.14,321.279,530.14,309.529,509.14z"/>
<path fill="none" stroke="#000000" stroke-width="2" stroke-linecap="square" stroke-miterlimit="10" d="M309.529,509.14  c3.348,23.921,10.755,52.804,35.25,63"/>
<path fill-rule="evenodd" clip-rule="evenodd" fill="#743E3A" d="M324.529,497.89c8.661,23.78,25.589,49.214,51,57  C358.529,535.89,341.529,516.89,324.529,497.89z"/>
<path fill="none" stroke="#000000" stroke-width="2" stroke-linecap="square" stroke-miterlimit="10" d="M324.529,497.89  c8.661,23.78,25.589,49.214,51,57"/>
<path fill-rule="evenodd" clip-rule="evenodd" fill="#743E3A" d="M335.779,485.14c14.639,26.047,42.74,38.707,72,34.5  C383.779,508.14,359.779,496.64,335.779,485.14z"/>
<path fill="none" stroke="#000000" stroke-width="2" stroke-linecap="square" stroke-miterlimit="10" d="M335.779,485.14  c14.639,26.047,42.74,38.707,72,34.5"/>
<path fill-rule="evenodd" clip-rule="evenodd" fill="#743E3A" d="M344.779,471.64c21.149,20.899,50.545,22.771,78.004,15  C396.782,481.64,370.781,476.64,344.779,471.64z"/>
<path fill="none" stroke="#000000" stroke-width="2" stroke-linecap="square" stroke-miterlimit="10" d="M344.779,471.64  c21.149,20.899,50.545,22.771,78.004,15"/>
<path fill-rule="evenodd" clip-rule="evenodd" fill="#743E3A" d="M351.529,458.89c21.469,8.987,51.266,15.245,72.754,3.75  C400.032,461.39,375.781,460.14,351.529,458.89z"/>
<path fill="none" stroke="#000000" stroke-width="2" stroke-linecap="square" stroke-miterlimit="10" d="M351.529,458.89  c21.469,8.987,51.266,15.245,72.754,3.75"/>
<path fill-rule="evenodd" clip-rule="evenodd" fill="#743E3A" d="M354.529,441.64c22.223,7.339,54.499,11.678,72.004-7.5  C402.532,436.64,378.531,439.14,354.529,441.64z"/>
<path fill="none" stroke="#000000" stroke-width="2" stroke-linecap="square" stroke-miterlimit="10" d="M354.529,441.64  c22.223,7.339,54.499,11.678,72.004-7.5"/>
<path fill-rule="evenodd" clip-rule="evenodd" fill="#743E3A" stroke="#000000" stroke-width="2" stroke-linecap="square" stroke-miterlimit="10" d="  M353.779,426.64c-18.122,6.246-60.269,21.735-33.75,41.625C347.653,488.983,360.25,451.337,353.779,426.64z"/>
</svg>