<svg xmlns="http://www.w3.org/2000/svg" xmlns:xlink="http://www.w3.org/1999/xlink" version="1.1" id="Layer_1" x="0px" y="0px" enable-background="new 0 0 822.05 841.89" xml:space="preserve" viewBox="307.89 335.68 207.74 175.98">
<path fill-rule="evenodd" clip-rule="evenodd" fill="#F2DCC4" stroke="#000000" stroke-width="1.25" stroke-linecap="square" stroke-miterlimit="10" d="  M473.76,473.39c-9.963-2.518-19.504-18.862-27.12-18.672c-25.367,0.634-27.6,8.267-49.384,16.047  c-17.986,6.424-29.929,37.125-2.859,37.125c21.167,0,42.334,0,63.501,0C470.416,507.89,470.745,484.059,473.76,473.39z"/>
<path fill-rule="evenodd" clip-rule="evenodd" fill="#137827" stroke="#000000" stroke-width="1.25" stroke-linecap="square" stroke-miterlimit="10" d="  M488.76,483.14c-20.049-25.867-32.454,17.213-63,9c-19.332-5.198-20.023-21.961-39.948-21.194  c-22.952,0.883-24.954,20.108-33.556,38.444c45.251-0.25,90.503-0.5,135.754-0.75C488.507,500.27,488.812,489.652,488.76,483.14z"/>
<path fill-rule="evenodd" clip-rule="evenodd" fill="#EEDBC3" stroke="#000000" stroke-width="1.25" stroke-linecap="square" stroke-miterlimit="10" d="  M398.756,424.64C395.091,466.669,375.672,388.347,398.756,424.64L398.756,424.64z"/>
<path fill-rule="evenodd" clip-rule="evenodd" fill="#F2DCC4" stroke="#000000" stroke-width="1.25" stroke-linecap="square" stroke-miterlimit="10" d="  M397.256,390.14c-18.876,48.588,39.213,108.045,75.004,54C522.521,368.246,418.599,316.441,397.256,390.14z"/>
<path fill-rule="evenodd" clip-rule="evenodd" fill="#F2DCC4" stroke="#000000" stroke-width="1.25" stroke-linecap="square" stroke-miterlimit="10" d="  M467.76,424.64c-6.356-8.276-7.521-16.643-9-27c-3.131-21.918-10.719-20.632-21-38.625c-12.229-21.402,29.757-0.729,32.25,1.125  c12.146,9.036,19.63,20.57,23.25,40.5c6.344,34.924,12.611,72.48,21.75,108.75c-20.014,0-37.346,8.52-39.656-13.242  C472.822,472.312,470.291,448.476,467.76,424.64z"/>
<path fill="none" stroke="#000000" stroke-width="1.25" stroke-linecap="square" stroke-miterlimit="10" d="M467.01,371.39  c-7.677-8.116-16.335-15.362-25.5-21.75"/>
<path fill="none" stroke="#000000" stroke-width="1.25" stroke-linecap="square" stroke-miterlimit="10" d="M479.76,372.89  c-2.738-4.642-6.288-8.707-10.5-12"/>
<path fill="none" stroke="#000000" stroke-width="0.75" stroke-linecap="square" stroke-miterlimit="10" d="M411.506,411.14  c4.755-3.229,10.277-4.32,15.754-3"/>
<path fill="none" stroke="#000000" stroke-width="0.75" stroke-linecap="square" stroke-miterlimit="10" d="M445.26,405.89  c4.378,3.146,9.589,4.433,15,3.75"/>
<path fill-rule="evenodd" clip-rule="evenodd" d="M425.76,414.14c-2.279,0.257-2.658,6.13-5.25,0  C423,409.739,423.925,414.347,425.76,414.14z"/>
<path fill-rule="evenodd" clip-rule="evenodd" d="M455.01,416.39C450.375,415.729,449.97,415.671,455.01,416.39L455.01,416.39z"/>
<path fill="none" stroke="#000000" stroke-width="0.75" stroke-linecap="square" stroke-miterlimit="10" d="M432.51,426.89  c3.194,5.348,7.453,5.696,12,1.5"/>
<path fill-rule="evenodd" clip-rule="evenodd" d="M423.51,444.89c9.243-2.963,19.118-3.51,28.5-1.5  C443.898,449.143,433.619,449.199,423.51,444.89z"/>
<path fill-rule="evenodd" clip-rule="evenodd" fill="#FFFFFF" stroke="#000000" stroke-linecap="square" stroke-miterlimit="10" d="  M312.506,366.14c-13.212-44.109,48.048-29.589,63-18.375c25.567,19.175-18.76,72.61-36.75,48.375  C320.846,419.905,299.211,385.231,312.506,366.14z"/>
<path fill-rule="evenodd" clip-rule="evenodd" fill="#FFFFFF" stroke="#000000" stroke-linecap="square" stroke-miterlimit="10" d="  M405.506,357.89C414.136,357.321,413.855,357.34,405.506,357.89L405.506,357.89z"/>
<path fill-rule="evenodd" clip-rule="evenodd" fill="#FFFFFF" stroke="#000000" stroke-linecap="square" stroke-miterlimit="10" d="  M386.756,351.14C404.767,376.217,403.739,324.545,386.756,351.14L386.756,351.14z"/>
</svg>