<svg xmlns="http://www.w3.org/2000/svg" xmlns:xlink="http://www.w3.org/1999/xlink" version="1.1" id="Layer_1" x="0px" y="0px" enable-background="new 0 0 822.05 841.89" xml:space="preserve" viewBox="307.14 334.89 203.49 176.56">
<path fill-rule="evenodd" clip-rule="evenodd" fill="#ECD5B7" stroke="#000000" stroke-width="1.25" stroke-linecap="square" stroke-miterlimit="10" d="  M450.125,448.015c-17.188-12.464-40.333-19.005-57,0c-7.392,8.429-18.185,24.75,0.891,24.75  C424.025,472.765,446,483.129,450.125,448.015z"/>
<path fill-rule="evenodd" clip-rule="evenodd" fill="#137827" stroke="#000000" stroke-width="1.25" stroke-linecap="square" stroke-miterlimit="10" d="  M462.125,447.265c-20.604-11.223-35.006,29.494-59.25,5.25c-14.305-14.305-17.639-3.432-37.875-1.875  c-5.017,0.386-62.381,4.701-53.25,16.875c12.971,17.294,30.555,6.537,47.625,17.25c8.404,5.274,9.079,21.626,12,23.25  c11.369,6.319,44.222,0,57,0c39.601,0,62.135,12.062,54.75-32.25C480.938,462.644,475.428,450.755,462.125,447.265z"/>
<path fill-rule="evenodd" clip-rule="evenodd" fill="#ECD5B7" stroke="#000000" stroke-width="1.25" stroke-linecap="square" stroke-miterlimit="10" d="  M452.375,416.515C437.083,429.911,442.163,399.023,452.375,416.515L452.375,416.515z"/>
<path fill-rule="evenodd" clip-rule="evenodd" fill="#ECD5B7" stroke="#000000" stroke-width="1.25" stroke-linecap="square" stroke-miterlimit="10" d="  M387.875,400.765c-3.765,46.104,56.92,63.452,60,10.5C450.583,364.702,389.898,354.372,387.875,400.765z"/>
<path fill-rule="evenodd" clip-rule="evenodd" fill="#FFFFFF" stroke="#000000" stroke-width="1.25" stroke-linecap="square" stroke-miterlimit="10" d="  M330.875,337.015c16.753-1.733,16.468,15.411,11.25,30.75c2.896-4.126,6.003-5.938,9-9c1.267,15.58-14.129,47.005-32.25,30.75  C305.081,377.142,310.522,332.617,330.875,337.015z"/>
<path fill-rule="evenodd" clip-rule="evenodd" fill="#FFFFFF" d="M339.125,338.515l-1.5,21.75L339.125,338.515z"/>
<line fill="none" stroke="#000000" stroke-width="1.25" stroke-linecap="square" stroke-miterlimit="10" x1="339.125" y1="338.515" x2="337.625" y2="360.265"/>
<path fill-rule="evenodd" clip-rule="evenodd" fill="#FFFFFF" d="M330.875,335.515v23.25V335.515z"/>
<line fill="none" stroke="#000000" stroke-width="1.25" stroke-linecap="square" stroke-miterlimit="10" x1="330.875" y1="335.515" x2="330.875" y2="358.765"/>
<path fill-rule="evenodd" clip-rule="evenodd" fill="#FFFFFF" d="M322.625,337.765v19.5V337.765z"/>
<line fill="none" stroke="#000000" stroke-width="1.25" stroke-linecap="square" stroke-miterlimit="10" x1="322.625" y1="337.765" x2="322.625" y2="357.265"/>
<path fill-rule="evenodd" clip-rule="evenodd" d="M414.875,415.015C412.153,415,409.845,414.988,414.875,415.015L414.875,415.015z"/>
<path fill-rule="evenodd" clip-rule="evenodd" d="M429.875,414.265C426.318,414.186,424.894,414.154,429.875,414.265  L429.875,414.265z"/>
<path fill="none" stroke="#000000" stroke-width="0.75" stroke-linecap="square" stroke-miterlimit="10" d="M417.875,421.765  c1.42,1.944,3.305,2.132,5.25,0.75"/>
<path fill="none" stroke="#000000" stroke-width="0.75" stroke-linecap="square" stroke-miterlimit="10" d="M407.375,415.015  c3.346-3.081,7.057-3.028,10.5,0"/>
<path fill="none" stroke="#000000" stroke-width="0.75" stroke-linecap="square" stroke-miterlimit="10" d="M434.375,414.265  c-3.634-2.688-7.307-2.457-10.5,0.75"/>
<path fill-rule="evenodd" clip-rule="evenodd" fill="#137827" d="M460.625,491.515v16.5V491.515z"/>
<line fill="none" stroke="#000000" stroke-width="1.25" stroke-linecap="square" stroke-miterlimit="10" x1="460.625" y1="491.515" x2="460.625" y2="508.015"/>
<path fill-rule="evenodd" clip-rule="evenodd" stroke="#000000" stroke-linecap="square" stroke-miterlimit="10" d="  M414.875,430.765c4.797-0.332,9.114-0.728,13.5-2.25C423.89,436.941,421.196,431.291,414.875,430.765z"/>
<path fill-rule="evenodd" clip-rule="evenodd" fill="#ECD5B7" stroke="#000000" stroke-width="1.25" stroke-linecap="square" stroke-miterlimit="10" d="  M396.875,421.765C393.176,441.485,379.303,412.161,396.875,421.765L396.875,421.765z"/>
<path fill-rule="evenodd" clip-rule="evenodd" fill="#EED5B6" stroke="#000000" stroke-width="1.25" stroke-linecap="square" stroke-miterlimit="10" d="  M375.125,442.765c-18.979,0.431-23.798-15.75-3.75-21C372.541,428.293,375.709,436.218,375.125,442.765z"/>
<path fill-rule="evenodd" clip-rule="evenodd" fill="#EED5B6" stroke="#000000" stroke-width="1.25" stroke-linecap="square" stroke-miterlimit="10" d="  M366.875,424.015c12.877-12.947,35.089-9.458,36,6.75C404.185,454.08,361.847,449.881,366.875,424.015z"/>
<path fill="none" stroke="#000000" stroke-width="1.25" stroke-linecap="square" stroke-miterlimit="10" d="M402.875,432.265  c-8.396,4.978-18.404,10.564-15,0"/>
<path fill="none" stroke="#000000" stroke-width="1.25" stroke-linecap="square" stroke-miterlimit="10" d="M391.625,420.265  c-9.627,7.999-12.65,7.884-6-3.75"/>
<path fill="none" stroke="#000000" stroke-width="1.25" stroke-linecap="square" stroke-miterlimit="10" d="M397.625,426.265  c-5.996,6.119-11.611,8.452-14.25,1.5"/>
<path fill="none" stroke="#000000" stroke-width="1.25" stroke-linecap="square" stroke-miterlimit="10" d="M391.625,437.515  c-1.235,2.024-3.394,2.376-3.75,5.25c4.979,2.155,9.499,0.686,15-1.5"/>
<path fill-rule="evenodd" clip-rule="evenodd" fill="#EED5B6" d="M373.625,430.015c10.779,7.293,17.424,19.129,30.75,12  c-7.509,21.285-32.751,4.778-38.25-10.5C368.625,431.015,371.125,430.515,373.625,430.015z"/>
<path fill="none" stroke="#000000" stroke-width="1.25" stroke-linecap="square" stroke-miterlimit="10" d="M373.625,430.015  c10.779,7.293,17.424,19.129,30.75,12c-7.509,21.285-32.751,4.778-38.25-10.5"/>
<path fill-rule="evenodd" clip-rule="evenodd" fill="#137827" stroke="#000000" stroke-width="1.25" stroke-linecap="square" stroke-miterlimit="10" d="  M361.625,425.515c41.971,17.132-31.658,63.409-45.75,52.5C284.669,453.857,352.956,432.258,361.625,425.515z"/>
<path fill-rule="evenodd" clip-rule="evenodd" d="M370.625,463.015c2.75,3.5,5.5,7,8.25,10.5c1.25-4.75,2.5-9.5,3.75-14.25  C378.625,460.515,374.625,461.765,370.625,463.015z"/>
<path fill="none" stroke="#000000" stroke-width="1.5" stroke-linecap="square" stroke-miterlimit="10" d="M360.125,432.265  c10.597,7.944,16.634,20.464,16.5,33.75"/>
<path fill-rule="evenodd" clip-rule="evenodd" fill="#FFFFFF" stroke="#000000" stroke-linecap="square" stroke-miterlimit="10" d="  M462.125,381.265c0.147,31.014,48.461,31.003,48,0C509.67,350.678,462.671,350.804,462.125,381.265z"/>
<path fill-rule="evenodd" clip-rule="evenodd" fill="#FFFFFF" d="M486.125,398.515v4.5V398.515z"/>
<line fill="none" stroke="#000000" stroke-linecap="square" stroke-miterlimit="10" x1="486.125" y1="398.515" x2="486.125" y2="403.015"/>
<path fill-rule="evenodd" clip-rule="evenodd" fill="#FFFFFF" d="M468.875,381.265h-4.5H468.875z"/>
<line fill="none" stroke="#000000" stroke-linecap="square" stroke-miterlimit="10" x1="468.875" y1="381.265" x2="464.375" y2="381.265"/>
<path fill-rule="evenodd" clip-rule="evenodd" fill="#FFFFFF" d="M507.875,381.265h-4.5H507.875z"/>
<line fill="none" stroke="#000000" stroke-linecap="square" stroke-miterlimit="10" x1="507.875" y1="381.265" x2="503.375" y2="381.265"/>
<path fill-rule="evenodd" clip-rule="evenodd" fill="#FFFFFF" d="M474.125,393.265l-3.75,3.75L474.125,393.265z"/>
<line fill="none" stroke="#000000" stroke-linecap="square" stroke-miterlimit="10" x1="474.125" y1="393.265" x2="470.375" y2="397.015"/>
<path fill-rule="evenodd" clip-rule="evenodd" fill="#FFFFFF" d="M501.125,366.265l-3,3L501.125,366.265z"/>
<line fill="none" stroke="#000000" stroke-linecap="square" stroke-miterlimit="10" x1="501.125" y1="366.265" x2="498.125" y2="369.265"/>
<path fill-rule="evenodd" clip-rule="evenodd" fill="#FFFFFF" d="M501.125,397.015l-3-3.75L501.125,397.015z"/>
<line fill="none" stroke="#000000" stroke-linecap="square" stroke-miterlimit="10" x1="501.125" y1="397.015" x2="498.125" y2="393.265"/>
<path fill-rule="evenodd" clip-rule="evenodd" stroke="#000000" stroke-linecap="square" stroke-miterlimit="10" d="  M483.875,361.765C488.915,362.484,488.51,362.426,483.875,361.765L483.875,361.765z"/>
<path fill-rule="evenodd" clip-rule="evenodd" stroke="#000000" stroke-linecap="square" stroke-miterlimit="10" d="  M486.125,367.015c0.151,5.225,1.51,10.567,2.25,15.75C480.523,380.117,485.913,375.212,486.125,367.015z"/>
<path fill-rule="evenodd" clip-rule="evenodd" stroke="#000000" stroke-linecap="square" stroke-miterlimit="10" d="  M483.125,381.265c2.279,0.257,2.658,6.13,5.25,0C485.885,376.864,484.96,381.472,483.125,381.265z"/>
<path fill-rule="evenodd" clip-rule="evenodd" fill="#D12327" stroke="#000000" stroke-width="0.5" stroke-linecap="square" stroke-miterlimit="10" d="  M470.375,367.765c2.036,0,2.787,4.353,5.25,0C473.162,363.412,472.411,367.765,470.375,367.765z"/>
<path fill-rule="evenodd" clip-rule="evenodd" fill="#D12327" stroke="#000000" stroke-width="0.5" stroke-linecap="square" stroke-miterlimit="10" d="  M470.375,350.515c5.271-2.433,5.366-7.4,10.5-3.75c-6.166,7.338-7.869,9.927-17.25,11.25  C465.038,353.424,471.632,349.261,470.375,350.515z"/>
</svg>