<svg xmlns="http://www.w3.org/2000/svg" xmlns:xlink="http://www.w3.org/1999/xlink" version="1.1" id="Layer_1" x="0px" y="0px" enable-background="new 0 0 822.05 841.89" xml:space="preserve" viewBox="243.93 283.79 333.51 272.35">
<path fill-rule="evenodd" clip-rule="evenodd" fill="#D4D4D4" stroke="#000000" stroke-width="2" stroke-linecap="square" stroke-miterlimit="10" d="  M416.518,391.64c-39.984,28.56-79.968,57.12-119.952,85.68c-16.225,11.59-46.072,26.816-50.298,48.57  c-13.398,68.969,78.284-4.432,89.912-13.662c37.699-29.926,77.109-58.514,113.338-90.213c16.744-14.651,35.985-32.158,59.25-29.25  c42.492,5.312,91.495-46.301,54.75-83.625c-8.918,15.092-16.996,43.583-39,30c-23.739-14.654,4.219-36.182,15-49.5  C483.525,260.017,456.854,375.105,416.518,391.64z"/>
<path fill-rule="evenodd" clip-rule="evenodd" fill="#4D4D4D" stroke="#000000" stroke-width="2" stroke-linecap="square" stroke-miterlimit="10" d="  M484.018,336.14c-3.259,4.763-20.567,23.521-19.5,28.5c0.477,2.222,23.276,18.322,25.5,18c2.141-0.31,19.847-24.825,19.5-27  C508.704,350.539,488.556,339.611,484.018,336.14z"/>
<path fill-rule="evenodd" clip-rule="evenodd" fill="#D4D4D4" stroke="#000000" stroke-width="2" stroke-linecap="square" stroke-miterlimit="10" d="  M479.518,313.64c-2.897,6.367-9.285,12.38-13.5,18c-13.031-7.26-13.553-18.111-3-28.5  C468.129,306.393,475.508,309.174,479.518,313.64z"/>
<path fill-rule="evenodd" clip-rule="evenodd" fill="#D4D4D4" d="M505.018,361.64l40.5,22.5L505.018,361.64z"/>
<line fill="none" stroke="#000000" stroke-width="2" stroke-linecap="square" stroke-miterlimit="10" x1="505.018" y1="361.64" x2="545.518" y2="384.14"/>
<path fill-rule="evenodd" clip-rule="evenodd" fill="#D4D4D4" d="M479.518,342.14l-13.5-10.5L479.518,342.14z"/>
<line fill="none" stroke="#000000" stroke-width="2" stroke-linecap="square" stroke-miterlimit="10" x1="479.518" y1="342.14" x2="466.018" y2="331.64"/>
<path fill-rule="evenodd" clip-rule="evenodd" fill="#FFFFFF" stroke="#000000" stroke-width="2" stroke-linecap="square" stroke-miterlimit="10" d="  M289.018,528.14c-3.184,18.027-30,20.42-30,0S285.833,510.113,289.018,528.14z"/>
<path fill-rule="evenodd" clip-rule="evenodd" fill="#D4D4D4" stroke="#000000" stroke-width="2" stroke-linecap="square" stroke-miterlimit="10" d="  M298.018,487.64c42.975-29.79,85.95-59.579,128.926-89.369c14.63-10.141,40.98-3.287,22.574,15.119  c-35.634,35.634-82.797,65.188-122.388,96.86C308.542,525.121,277.132,509.665,298.018,487.64z"/>
<path fill-rule="evenodd" clip-rule="evenodd" fill="#4D4D4D" d="M488.518,343.64c-8.296,12.821-23.016,23.349-7.5,34.5  c7-10,14-20,21-30C497.518,346.64,493.018,345.14,488.518,343.64z"/>
<path fill="none" stroke="#000000" stroke-width="2" stroke-linecap="square" stroke-miterlimit="10" d="M488.518,343.64  c-8.296,12.821-23.016,23.349-7.5,34.5c7-10,14-20,21-30"/>
</svg>