<svg xmlns="http://www.w3.org/2000/svg" xmlns:xlink="http://www.w3.org/1999/xlink" version="1.1" id="Layer_1" x="0px" y="0px" enable-background="new 0 0 822.05 841.89" xml:space="preserve" viewBox="200.2 286.35 422.31 272.14">
<path fill-rule="evenodd" clip-rule="evenodd" fill="#E7B98A" stroke="#000000" stroke-width="2" stroke-linecap="square" stroke-miterlimit="10" d="  M325,325.896c-43.217,39.436-50.897,63.27-57.184,118.947c-2.754,24.396-18.77,26.242-34.316,45.676  c-6.01,7.512-31.435,23.556-32.25,32.625c-2.197,24.46,72.95,37.204,29.625,13.875c-19.584-10.545,36.895-40.645,46.125-49.875  c16.09-16.09,20.095-47.085,27-67.498c14.243,15.648,29.799,28.882,48,39.748c-11.265,12.036-18.26,30.351-19.889,46.639  c-0.831,8.311-14.327,29.398-13.861,32.861c4.66,34.665,83.927,13.075,22.5-2.25c9.585-17.942,34.414-46.73,36-67.5  c1.961-25.672-26.858-46.964-42-65.248c33.348-22.917,41.531-42.467,48.528-80.25C389.45,290.317,344.609,319.2,325,325.896z"/>
<path fill-rule="evenodd" clip-rule="evenodd" fill="#E7B98A" stroke="#000000" stroke-width="2" stroke-linecap="square" stroke-miterlimit="10" d="  M432.25,309.396c-7.128,26.947-79.901,30.747-80.25,0C351.646,278.256,425.094,281.808,432.25,309.396z"/>
<path fill-rule="evenodd" clip-rule="evenodd" fill="#E7B98A" stroke="#000000" stroke-width="2" stroke-linecap="square" stroke-miterlimit="10" d="  M331,317.646c24.551,0.582,25.807,14.562,24.75,34.5c-0.922,17.393-17.384,24.997,6.375,34.5  c17.237,6.895,41.636,25.325,58.875,12.75c19.412,39.521-76.24,4.688-87.75-11.25C322.403,373.126,323.604,333.41,331,317.646z"/>
<path fill-rule="evenodd" clip-rule="evenodd" fill="#E7B98A" stroke="#000000" stroke-width="2" stroke-linecap="square" stroke-miterlimit="10" d="  M443.5,357.396c64.554-10.175,106.5,22.535,106.5,85.732c0,23.267,8.231,32.613,27.75,47.016c7.523,5.551,25.958,8.478,27.75,9.75  c9.064,6.438,26.987,14.819,6.75,35.25c-6.789,6.854-27.201,13.018-33.75,3c-4.383-6.704,6.408-9.308,6-10.5  c0.31,0.904,15.157-9.771,7.174-14.605c-14.901-9.025-29.803-18.05-44.704-27.074c-15.134-9.166-22.437-33.938-26.595-50.57  c-9.752-39.007-49.749,33.751-43.5,41.25c5.249,6.299,42.751,52.109,40.125,58.5c-4.929,11.994-95.393,6.558-26.25-11.25  c-36.488-41.875-50.907-84.408-3-125.248c-18.5,0-37,0-55.5,0C436,384.896,439.75,371.146,443.5,357.396z"/>
<path fill-rule="evenodd" clip-rule="evenodd" fill="#A10000" stroke="#000000" stroke-width="2" stroke-linecap="square" stroke-miterlimit="10" d="  M280,373.896c17.519,11.638,35.369,22.681,53.25,33.75c-19.671,11.239-22.582,18.305-39,4.5  C284.854,404.246,280.561,385.57,280,373.896z"/>
<path fill-rule="evenodd" clip-rule="evenodd" fill="#0A50A1" stroke="#000000" stroke-width="2" stroke-linecap="square" stroke-miterlimit="10" d="  M487.75,398.646c9.354-0.668,65.667-13.31,58.5,10.5c-1.706,5.667-26.66,14.499-32.625,13.124  C502.93,419.804,495.079,406.499,487.75,398.646z"/>
<path fill-rule="evenodd" clip-rule="evenodd" fill="#E7B98A" stroke="#000000" stroke-width="2" stroke-linecap="square" stroke-miterlimit="10" d="  M454,361.896c-7.562,26.673-80.722,30.567-80.25,0C374.238,330.29,446.582,334.102,454,361.896z"/>
<path fill-rule="evenodd" clip-rule="evenodd" fill="#E7B98A" stroke="#000000" stroke-width="2" stroke-linecap="square" stroke-miterlimit="10" d="  M433.75,375.396c-8.919,34.5-32.106,58.897-70.125,42c-7.041-3.129-24.547-4.618-20.625,8.998c3.257,11.309,18.748,7.805,27,9.75  c35.271,8.314,55.904,10.247,75.75-20.998c4.111-6.473,20.278-29.456,15.75-39C455.292,363.064,442.371,364.807,433.75,375.396z"/>
</svg>