<svg xmlns="http://www.w3.org/2000/svg" xmlns:xlink="http://www.w3.org/1999/xlink" version="1.1" id="Layer_1" x="0px" y="0px" enable-background="new 0 0 822.05 841.89" xml:space="preserve" viewBox="190.22 243.72 439.35 352.24">
<path fill-rule="evenodd" clip-rule="evenodd" fill="#E7B98A" stroke="#000000" stroke-width="2" stroke-linecap="square" stroke-miterlimit="10" d="  M193,247.656c0,13.252-6.173,81.541,4.5,82.875c27.472,3.434,54.025,13.902,79.5,24.375c9.976,4.101,81.38,30.286,80.895,38.532  c-2.273,38.653-5.093,71.506,3.105,109.216c3-11,6-22,9-33c9,10.5,18,21,27,31.5c16.726-18.455,11.188-51.108,25.692-73.522  c21.006-32.461,24.798-40.414-6.942-64.476c-33.922-25.716-67.678-53.794-100.459-82.43c-7.843-6.851-32.167-36.408-43.178-36  C245.742,245.702,219.371,246.679,193,247.656z"/>
<path fill-rule="evenodd" clip-rule="evenodd" fill="#E7B98A" stroke="#000000" stroke-width="2" stroke-linecap="square" stroke-miterlimit="10" d="  M533.5,249.156c-23.905,20.685-50.022,39.458-69.75,64.5c-5.028,6.382-6.879,17.258-12.75,22.5  c-5.748,5.133-17.784,3.581-23.25,10.5c-17.457,22.101,1.459,19.991,14.25,42.375c6.77,11.846,14.383,23.228,23.723,34.901  c6.373,7.966-4.026,37.045-5.723,47.222c28.41,0.529,38.887-25.643,54-41.25c24.835-25.646,21.185-46.22-9-74.248  c32.861-14.199,65.723-28.398,98.583-42.598c32.925-14.227,23.476-31.131,24.417-66.902C596.5,247.156,565,248.156,533.5,249.156z"/>
<line fill="none" stroke="#000000" stroke-width="2" stroke-linecap="square" stroke-miterlimit="10" x1="499" y1="420.156" x2="493" y2="447.154"/>
<line fill="none" stroke="#000000" stroke-width="2" stroke-linecap="square" stroke-miterlimit="10" x1="515.5" y1="405.156" x2="512.5" y2="426.154"/>
<path fill-rule="evenodd" clip-rule="evenodd" fill="#668187" stroke="#000000" stroke-width="2" stroke-linecap="square" stroke-miterlimit="10" d="  M361,502.654c-4.47,8.94-9.282,19.129-14.25,27c12.703,6.04,49.522,14.609,62.25,12c-1.176,31.72,25.943,2.285,28.875-12.375  c2.611-13.055,15.072-9.1,21.375-17.625c9.959-13.472,7.79-22.804,10.082-39.993c4.139-31.034,4.122-49.464-2.665-80.005  c-3.959-17.812-46.412,2.245-54.75,11.139c-17.901,19.095-24.332,72.723-55.417,60.859C358,476.654,359.5,489.654,361,502.654z"/>
<path fill="none" stroke="#000000" stroke-width="2" stroke-linecap="square" stroke-miterlimit="10" d="M380.5,534.154  c19.67-9.383,57.14-17.811,68.625-37.5c24.02-41.177,18.436-52.711-17.625-82.498c-26.665,20.167,14.283,29.681,16.111,53.442  c1.73,22.502-30.261,26.23-35.611,2.056c-9.193,17.013,3.968,43.017-18,48"/>
<path fill-rule="evenodd" clip-rule="evenodd" fill="#D9F1F7" stroke="#000000" stroke-width="2" stroke-linecap="square" stroke-miterlimit="10" d="  M418,567.154C400.697,600.226,434.455,608.019,418,567.154L418,567.154z"/>
<path fill-rule="evenodd" clip-rule="evenodd" fill="#D9F1F7" stroke="#000000" stroke-width="2" stroke-linecap="square" stroke-miterlimit="10" d="  M371.5,544.654C354.194,577.723,387.956,585.522,371.5,544.654L371.5,544.654z"/>
<path fill-rule="evenodd" clip-rule="evenodd" fill="#D9F1F7" stroke="#000000" stroke-width="2" stroke-linecap="square" stroke-miterlimit="10" d="  M445,537.154C427.694,570.223,461.455,578.022,445,537.154L445,537.154z"/>
<path fill-rule="evenodd" clip-rule="evenodd" fill="#D9F1F7" stroke="#000000" stroke-width="2" stroke-linecap="square" stroke-miterlimit="10" d="  M464.5,544.654C447.194,577.723,480.955,585.522,464.5,544.654L464.5,544.654z"/>
<path fill-rule="evenodd" clip-rule="evenodd" fill="#E7B98A" stroke="#000000" stroke-width="2" stroke-linecap="square" stroke-miterlimit="10" d="  M383.5,457.654c72.716-32.981-1.964,90.108-30,6C365.275,469.868,377.118,469.719,383.5,457.654z"/>
</svg>