<svg xmlns="http://www.w3.org/2000/svg" xmlns:xlink="http://www.w3.org/1999/xlink" version="1.1" id="Layer_1" x="0px" y="0px" enable-background="new 0 0 822.05 841.89" xml:space="preserve" viewBox="306.04 364.93 209.62 113.97">
<path fill-rule="evenodd" clip-rule="evenodd" fill="#F91013" stroke="#000000" stroke-linecap="square" stroke-miterlimit="10" d="  M493.5,406.943c-26.119-4.931-142.196-41.494-152.25-18c30.775,5.761,61.551,11.522,92.326,17.283  c17.164,3.213,34.327,6.426,51.49,9.639C498.727,418.421,495.188,409.433,493.5,406.943z"/>
<path fill-rule="evenodd" clip-rule="evenodd" fill="#200F75" stroke="#000000" stroke-linecap="square" stroke-miterlimit="10" d="  M349.5,436.943C326.278,459.237,337.693,408.835,349.5,436.943L349.5,436.943z"/>
<path fill-rule="evenodd" clip-rule="evenodd" fill="#F91013" stroke="#000000" stroke-linecap="square" stroke-miterlimit="10" d="  M499.5,448.943c-3.88,10.123,6.439,33.025,12,19.125c6.47-16.174,3.352-47.61-1.5-62.625C506.5,419.943,503,434.443,499.5,448.943z"/>
<path fill-rule="evenodd" clip-rule="evenodd" fill="#F91013" stroke="#000000" stroke-linecap="square" stroke-miterlimit="10" d="  M318,392.693C279.42,433.632,353.639,415.559,318,392.693L318,392.693z"/>
<path fill-rule="evenodd" clip-rule="evenodd" fill="#200F75" stroke="#000000" stroke-linecap="square" stroke-miterlimit="10" d="  M348,447.443c31.051,6.059,62.103,12.116,93.167,18.111c4.707,0.908,49.998,8.724,45.583,11.139  C470.258,485.712,353.093,456.365,348,447.443z"/>
<path fill-rule="evenodd" clip-rule="evenodd" fill="#200F75" stroke="#000000" stroke-linecap="square" stroke-miterlimit="10" d="  M353.25,436.193c45.071,10.23,90.931,21.594,135.75,30C479.472,477.312,362.296,448.575,353.25,436.193z"/>
<path fill-rule="evenodd" clip-rule="evenodd" fill="#FFFFFF" stroke="#000000" stroke-linecap="square" stroke-miterlimit="10" d="  M334.5,370.943c57.5,11.5,115,23,172.5,34.5c-0.5,1.75-1,3.5-1.5,5.25C478.693,405.355,335.681,388.167,334.5,370.943z"/>
<path fill-rule="evenodd" clip-rule="evenodd" fill="#F91013" stroke="#000000" stroke-linecap="square" stroke-miterlimit="10" d="  M315,399.443c10.271,12.21,185.908,59.835,194.25,49.5c15.793-19.568-69.283-30.385-78.378-32.578  C411.92,411.795,322.793,377.434,315,399.443z"/>
<path fill-rule="evenodd" clip-rule="evenodd" fill="#FFFFFF" stroke="#000000" stroke-linecap="square" stroke-miterlimit="10" d="  M320.25,394.943c62.5,15.25,125,30.5,187.5,45.75C501.94,422.945,327.54,383.649,320.25,394.943z"/>
<path fill="none" stroke="#000000" stroke-linecap="square" stroke-miterlimit="10" d="M501,450.443  c-0.677,11.277,3.774,14.608,12,9.75"/>
<path fill="none" stroke="#000000" stroke-linecap="square" stroke-miterlimit="10" d="M323.25,406.193  c-3.962,7.798-9.162,7.946-14.25,1.5"/>
<path fill-rule="evenodd" clip-rule="evenodd" fill="#200F75" stroke="#000000" stroke-linecap="square" stroke-miterlimit="10" d="  M343.5,448.193C317.289,471.104,333.39,418.098,343.5,448.193L343.5,448.193z"/>
<path fill-rule="evenodd" clip-rule="evenodd" fill="#200F75" stroke="#000000" stroke-linecap="square" stroke-miterlimit="10" d="  M349.5,433.943c1.945,3.531,6.965-0.599,4.5,6C345.007,442.094,351.178,436.99,349.5,433.943z"/>
<path fill-rule="evenodd" clip-rule="evenodd" fill="#200F75" stroke="#000000" stroke-linecap="square" stroke-miterlimit="10" d="  M343.5,445.193C347.745,452.672,347.354,451.984,343.5,445.193L343.5,445.193z"/>
<path fill="none" stroke="#000000" stroke-linecap="square" stroke-miterlimit="10" d="M475.5,463.943  c0.347,1.396,0.132,2.751-0.75,3.75"/>
<path fill="none" stroke="#000000" stroke-linecap="square" stroke-miterlimit="10" d="M473.25,470.693  c1.041,1.428,1.031,2.954,0,4.5"/>
<path fill-rule="evenodd" clip-rule="evenodd" fill="#8ED4E5" stroke="#000000" stroke-linecap="square" stroke-miterlimit="10" d="  M353.25,369.443c-20.498-14.626-28.933,14.276-38.25,29.25C338.169,411.698,343.714,386.39,353.25,369.443z M327,395.693  c0.36-1.133-4.862-2.671,0.75-3.75C333.366,394.956,327.519,394.062,327,395.693z M339,376.193c0.54-1.248-4.275-3.149,1.5-3.75  C344.865,376.458,339.667,374.651,339,376.193z"/>
<path fill-rule="evenodd" clip-rule="evenodd" fill="#F4C0D7" stroke="#000000" stroke-linecap="square" stroke-miterlimit="10" d="  M375,373.193c-15.094-7.981-41.743,16.964-36,30.75C350.631,431.865,374.374,374.636,375,373.193z M351,401.693  c0.596-1.397-3.921-3.124,1.5-4.5C357.302,401.634,351.815,399.781,351,401.693z M362.25,381.443c0.157-2.289-5.402-2.878,0.75-4.5  C367.5,380.732,362.347,380.024,362.25,381.443z"/>
<path fill-rule="evenodd" clip-rule="evenodd" fill="#F87F11" stroke="#000000" stroke-linecap="square" stroke-miterlimit="10" d="  M397.5,376.193c-23.332-13.1-27.814,18.9-34.5,35.25C389.289,427.695,391.862,394.86,397.5,376.193z M375,406.943  c0.14-1.514-5.558-2.555,0.75-3.75C380.429,406.132,375.113,405.717,375,406.943z M385.5,385.943c0.36-1.133-4.862-2.671,0.75-3.75  C391.866,385.206,386.019,384.312,385.5,385.943z"/>
<path fill-rule="evenodd" clip-rule="evenodd" fill="#82218A" stroke="#000000" stroke-linecap="square" stroke-miterlimit="10" d="  M420,379.193c-20.812-11.346-36.991,28.489-30,39C409.122,446.941,419.604,382.563,420,379.193z M401.25,413.693  c0.14-1.514-5.558-2.555,0.75-3.75C406.679,412.882,401.363,412.467,401.25,413.693z M409.5,390.443  c0.14-1.514-5.558-2.555,0.75-3.75C414.929,389.632,409.613,389.217,409.5,390.443z"/>
<path fill-rule="evenodd" clip-rule="evenodd" fill="#279A30" stroke="#000000" stroke-linecap="square" stroke-miterlimit="10" d="  M442.5,382.943c-25.942-14.074-33.607,40.727-23.277,42.973C443.688,431.234,443.692,402.674,442.5,382.943z M426,419.693  c0.14-1.514-5.558-2.555,0.75-3.75C431.429,418.882,426.113,418.467,426,419.693z M432,394.943c0.14-1.514-5.558-2.555,0.75-3.75  C437.429,394.132,432.113,393.717,432,394.943z"/>
<path fill-rule="evenodd" clip-rule="evenodd" fill="#F8130D" stroke="#000000" stroke-linecap="square" stroke-miterlimit="10" d="  M459.75,432.443c1.078-6.95,11.027-40.343,6.75-45c-2.667-2.904-17.343-6.229-18.498-0.549  C444.286,405.16,427.114,442.542,459.75,432.443z M453,397.193c1.584,0.231,3.028-3.236,5.25,0.75  C454.466,401.481,454.447,397.404,453,397.193z M450,425.693c0.268-1.679-5.439-3.065,0.75-3.75  C455.411,424.871,450.211,424.366,450,425.693z"/>
<path fill-rule="evenodd" clip-rule="evenodd" fill="#F7F619" stroke="#000000" stroke-linecap="square" stroke-miterlimit="10" d="  M486,440.693c0.586-9.375,8.079-40.884,3-48c-3.056-4.281-17.261-9.573-18.332-1.133C468.203,410.969,452.479,448.939,486,440.693z   M477,401.693c1.57,0.239,3.028-3.236,5.25,0.75C478.832,405.744,478.549,401.929,477,401.693z M476.25,431.693  c0.14-1.514-5.558-2.556,0.75-3.75C481.679,430.881,476.363,430.467,476.25,431.693z"/>
<path fill-rule="evenodd" clip-rule="evenodd" fill="#200F75" stroke="#000000" stroke-linecap="square" stroke-miterlimit="10" d="  M510.75,447.443c0-4.832,6.893-75.819-17.25-54.75C479.91,404.552,483.354,454.384,510.75,447.443z M501,408.443  c0.14-1.514-5.558-2.555,0.75-3.75C506.429,407.632,501.113,407.217,501,408.443z M500.25,438.443c0.129-2.23-5.609-3.531,0.75-4.5  C506.127,437.162,500.36,436.535,500.25,438.443z"/>
</svg>