<svg xmlns="http://www.w3.org/2000/svg" xmlns:xlink="http://www.w3.org/1999/xlink" version="1.1" id="Layer_1" x="0px" y="0px" enable-background="new 0 0 822.05 841.89" xml:space="preserve" viewBox="201.92 319.57 414.52 205.54">
<path fill-rule="evenodd" clip-rule="evenodd" fill="#870E4E" stroke="#000000" stroke-width="2" stroke-linecap="square" stroke-miterlimit="10" d="  M237.5,326.998c-27.637-6.519-39.041-15.768-33,16.5c6.021,32.159,38.975,68.912,63.375,88.875  c37.336,30.548,89.829,50.941,138.375,52.125c39.835,0.972,73.449-19.242,114-19.5c13.937-0.089,70.377-0.396,72-24.75  c1.974-29.615-81.688-45.669-101.25-47.625c-13.084-1.309-25.161,4.423-38.25,2.625c-20.847-2.864-35.538-16.935-53.25-27  c-43.843-24.914-95.679-41.25-146.444-41.25C247.871,326.998,242.685,326.998,237.5,326.998z"/>
<path fill="none" stroke="#000000" stroke-width="2" stroke-linecap="square" stroke-miterlimit="10" d="M341.75,457.498  C330.598,458.209,330.619,453.815,341.75,457.498L341.75,457.498z"/>
<path fill="none" stroke="#000000" stroke-width="2" stroke-linecap="square" stroke-miterlimit="10" d="M377,466.498  C358.034,475.592,358.554,450.89,377,466.498L377,466.498z"/>
<path fill="none" stroke="#000000" stroke-width="2" stroke-linecap="square" stroke-miterlimit="10" d="M317,422.248  C301.582,422.56,303.705,414.617,317,422.248L317,422.248z"/>
<path fill="none" stroke="#000000" stroke-width="2" stroke-linecap="square" stroke-miterlimit="10" d="M414.502,473.998  C400.989,473.358,402.666,469.37,414.502,473.998L414.502,473.998z"/>
<path fill="none" stroke="#000000" stroke-width="2" stroke-linecap="square" stroke-miterlimit="10" d="M534.5,455.248  C526.842,453.278,526.376,453.159,534.5,455.248L534.5,455.248z"/>
<path fill="none" stroke="#000000" stroke-width="2" stroke-linecap="square" stroke-miterlimit="10" d="M554.75,451.498  c-2.835-0.8-6.166,1.377-9.75-1.5C549.786,445.246,551.316,450.53,554.75,451.498z"/>
<path fill-rule="evenodd" clip-rule="evenodd" fill="#870E4E" stroke="#000000" stroke-width="2" stroke-linecap="square" stroke-miterlimit="10" d="  M240.5,404.998c-23.713,0.89-42.204-7.583-30,19.875c13.829,31.115,49.75,56.872,78.75,73.125  c42.71,23.938,98.493,30.655,146.625,23.25c41.61-6.401,67.916-39.132,109.875-46.125c14.213-2.369,67.793-14.927,66-38.625  c-2.071-27.368-82.738-30.103-102-26.25c-34.988,6.998-51.817,16.287-87.917,2.75c-49.524-18.572-103.184-20.966-155.083-13.278  C257.94,401.025,249.157,402.909,240.5,404.998z"/>
<path fill="none" stroke="#000000" stroke-width="2" stroke-linecap="square" stroke-miterlimit="10" d="M372.5,508.498  C360.601,511.876,360.093,506.008,372.5,508.498L372.5,508.498z"/>
<path fill="none" stroke="#000000" stroke-width="2" stroke-linecap="square" stroke-miterlimit="10" d="M408.5,509.248  C389.689,520.322,388.769,499.327,408.5,509.248L408.5,509.248z"/>
<path fill="none" stroke="#000000" stroke-width="2" stroke-linecap="square" stroke-miterlimit="10" d="M340.25,479.248  C325.481,484.095,324.694,475.264,340.25,479.248L340.25,479.248z"/>
<path fill="none" stroke="#000000" stroke-width="2" stroke-linecap="square" stroke-miterlimit="10" d="M446.75,507.748  C434.101,510.031,433.099,505.939,446.75,507.748L446.75,507.748z"/>
<path fill="none" stroke="#000000" stroke-width="2" stroke-linecap="square" stroke-miterlimit="10" d="M559.25,461.998  C551.566,462.718,551.309,462.743,559.25,461.998L559.25,461.998z"/>
<path fill="none" stroke="#000000" stroke-width="2" stroke-linecap="square" stroke-miterlimit="10" d="M578,453.748  c-3.197,0-5.92,3.571-9.75,0C572.08,450.176,574.803,453.748,578,453.748z"/>
<path fill-rule="evenodd" clip-rule="evenodd" fill="#870E4E" stroke="#000000" stroke-width="2" stroke-linecap="square" stroke-miterlimit="10" d="  M378.5,341.998c-31.098,0.733,2.566,33.947,9.75,45.75c13.167,21.634,19.503,32.966,47.25,40.5c33.903,9.205,60.026,14.833,90.75,33  c23.102,13.66,49.951,9.271,70.125,21.375c33.086,19.852,14.248-9.261,8.625-18.375c-20.479-33.19-43.448-50.515-76.5-72.75  c-24.737-16.642-54.156-36.521-83.25-45C422.765,339.945,399.902,349.79,378.5,341.998z"/>
<path fill-rule="evenodd" clip-rule="evenodd" fill="#870E4E" stroke="#000000" stroke-width="2" stroke-linecap="square" stroke-miterlimit="10" d="  M405.5,388.498c-2.875,0-4.181,3.782-8.25,0.75c0-0.5,0-1,0-1.5C401.319,384.716,402.625,388.498,405.5,388.498z"/>
<path fill-rule="evenodd" clip-rule="evenodd" fill="#870E4E" stroke="#000000" stroke-width="2" stroke-linecap="square" stroke-miterlimit="10" d="  M428,404.248C411.173,409.655,411.101,398.617,428,404.248L428,404.248z"/>
<path fill-rule="evenodd" clip-rule="evenodd" fill="#870E4E" stroke="#000000" stroke-width="2" stroke-linecap="square" stroke-miterlimit="10" d="  M431.75,385.498C415.08,393.751,418.148,375.124,431.75,385.498L431.75,385.498z"/>
<path fill-rule="evenodd" clip-rule="evenodd" fill="#870E4E" stroke="#000000" stroke-width="2" stroke-linecap="square" stroke-miterlimit="10" d="  M559.25,458.248c-1.709,0-3.476,3.53-6.75,0C555.774,454.717,557.541,458.248,559.25,458.248z"/>
<path fill-rule="evenodd" clip-rule="evenodd" fill="#870E4E" stroke="#000000" stroke-width="2" stroke-linecap="square" stroke-miterlimit="10" d="  M582.5,454.498C569.896,457,570.39,451.098,582.5,454.498L582.5,454.498z"/>
</svg>