<svg xmlns="http://www.w3.org/2000/svg" xmlns:xlink="http://www.w3.org/1999/xlink" version="1.1" id="Layer_1" x="0px" y="0px" enable-background="new 0 0 822.05 841.89" xml:space="preserve" viewBox="305.21 336.66 211.25 169.76">
<path fill-rule="evenodd" clip-rule="evenodd" fill="#EED5B6" stroke="#000000" stroke-width="1.25" stroke-linecap="square" stroke-miterlimit="10" d="  M439.34,462.265c-11.592-2.778-21.169-21.13-30.51-20.922c-18.938,0.421-45.732,5.619-60.99,20.172  c-30.918,29.489-14.11,39.75,18.689,39.75c20.248,0,40.496,0,60.744,0C431.953,501.265,437.795,468.002,439.34,462.265z"/>
<path fill-rule="evenodd" clip-rule="evenodd" fill="#0C7823" stroke="#000000" stroke-width="1.25" stroke-linecap="square" stroke-miterlimit="10" d="  M461.84,460.765c-27.123-8.621-20.857-0.316-38.625,12.375c-12.894,9.21-25.825,10.138-40.875,6.375  c-22.662-5.665-17.373-28.902-42-23.625c-25.357,5.434-27.886,26.732-34.5,49.125c59.25,0,118.5,0,177.75,0  C477.739,489.542,473.389,472.866,461.84,460.765z"/>
<path fill-rule="evenodd" clip-rule="evenodd" fill="#EED5B6" stroke="#000000" stroke-width="1.25" stroke-linecap="square" stroke-miterlimit="10" d="  M352.34,419.515c6.803,13.339,0.214,19.543-12,9.75C328.725,419.953,341.854,411.872,352.34,419.515z"/>
<path fill-rule="evenodd" clip-rule="evenodd" fill="#EED5B6" stroke="#000000" stroke-width="1.25" stroke-linecap="square" stroke-miterlimit="10" d="  M434.09,403.765c-2.896,10.58-15,16.999-15,1.125C419.09,388.22,431.262,388.958,434.09,403.765z"/>
<path fill-rule="evenodd" clip-rule="evenodd" fill="#EED5B6" stroke="#000000" stroke-width="1.25" stroke-linecap="square" stroke-miterlimit="10" d="  M335.09,388.765c-2.416,52.635,84.224,97.515,91.125,28.5c2.683-26.824,1.571-64.142-27.375-76.5  C366.996,327.169,331.72,355.618,335.09,388.765z"/>
<path fill="none" stroke="#000000" stroke-linecap="square" stroke-miterlimit="10" d="M390.59,405.265  c-4.147-2.614-7.542-1.467-9.75,3"/>
<path fill-rule="evenodd" clip-rule="evenodd" d="M404.09,427.015c6.531-34.505-27.311,1.629-35.25,10.5  C381.745,438.118,397.094,437.501,404.09,427.015z"/>
<path fill="none" stroke="#000000" stroke-linecap="square" stroke-miterlimit="10" d="M362.84,399.265  c3.401-0.376,5.403-1.631,8.25,0.75c-5.634-0.891-7.521,2.209-12,3.75"/>
<path fill="none" stroke="#000000" stroke-linecap="square" stroke-miterlimit="10" d="M401.84,392.515  c-3.476,0.418-5.768-0.398-7.5,3c5.535-3.55,7.739-0.373,12.75,0"/>
<path fill="none" stroke="#000000" stroke-linecap="square" stroke-miterlimit="10" d="M356.84,390.265  c8.164-1.823,15.4,0.782,20.25,7.5"/>
<path fill="none" stroke="#000000" stroke-linecap="square" stroke-miterlimit="10" d="M387.59,393.265  c2.017-7.083,7.006-10.912,14.25-10.5"/>
<path fill-rule="evenodd" clip-rule="evenodd" fill="#EED5B6" stroke="#000000" stroke-width="1.25" stroke-linecap="square" stroke-miterlimit="10" d="  M364.34,426.265c6.917-23.816,33.074-4.323,48,7.5c-0.781-7.745,3.396-16.686,3.75-23.25c11.509,11.392,44.002,58.74,12,67.5  C408.187,483.462,347.103,447.145,364.34,426.265z"/>
<path fill-rule="evenodd" clip-rule="evenodd" fill="#D21025" d="M372.59,419.515l27,15L372.59,419.515z"/>
<line fill="none" stroke="#000000" stroke-width="1.25" stroke-linecap="square" stroke-miterlimit="10" x1="372.59" y1="419.515" x2="399.59" y2="434.515"/>
<path fill-rule="evenodd" clip-rule="evenodd" fill="#D21025" d="M364.34,426.265l30.75,15L364.34,426.265z"/>
<line fill="none" stroke="#000000" stroke-width="1.25" stroke-linecap="square" stroke-miterlimit="10" x1="364.34" y1="426.265" x2="395.09" y2="441.265"/>
<path fill-rule="evenodd" clip-rule="evenodd" fill="#D21025" d="M362.84,437.515l25.5,12.75L362.84,437.515z"/>
<line fill="none" stroke="#000000" stroke-width="1.25" stroke-linecap="square" stroke-miterlimit="10" x1="362.84" y1="437.515" x2="388.34" y2="450.265"/>
<path fill-rule="evenodd" clip-rule="evenodd" fill="#0C7823" stroke="#000000" stroke-width="1.25" stroke-linecap="square" stroke-miterlimit="10" d="  M442.34,446.515c21.39,5.101,73.5,9.425,73.5,39.375c0,46.153-76.328-1.517-88.5-7.875  C438.285,471.496,445.181,459.388,442.34,446.515z"/>
</svg>