<svg xmlns="http://www.w3.org/2000/svg" xmlns:xlink="http://www.w3.org/1999/xlink" version="1.1" id="Layer_1" x="0px" y="0px" enable-background="new 0 0 822.05 841.89" xml:space="preserve" viewBox="276.26 264.87 264.89 310.65">
<path fill-rule="evenodd" clip-rule="evenodd" fill="#FEDEA5" d="M294.514,335.892c8.448,62.472,16.896,124.944,25.345,187.417  c5.453,40.32,48.94,52.662,87.905,51.081c34.947-1.418,76.127-14.433,79.044-50.964c5.152-64.512,10.304-129.023,15.456-193.534  C434.125,331.614,360.879,327.474,294.514,335.892z"/>
<path fill="none" stroke="#000000" stroke-width="2" stroke-linecap="square" stroke-miterlimit="10" d="M294.514,335.892  c8.448,62.472,16.896,124.944,25.345,187.417c5.453,40.32,48.94,52.662,87.905,51.081c34.947-1.418,76.127-14.433,79.044-50.964  c5.152-64.512,10.304-129.023,15.456-193.534c-69.25,1.75-138.5,3.5-207.75,5.25"/>
<path fill-rule="evenodd" clip-rule="evenodd" fill="#EDB329" stroke="#000000" stroke-width="2" stroke-linecap="square" stroke-miterlimit="10" d="  M299.014,364.392c58.692,34.375,141.109,28.523,199.5-3C507.306,421.979,288.194,411.156,299.014,364.392z"/>
<path fill-rule="evenodd" clip-rule="evenodd" fill="#FF0000" stroke="#000000" stroke-width="2" stroke-linecap="square" stroke-miterlimit="10" d="  M357.514,427.39c-32.981,20.21-5.031,92.37,30,92.25c20.521-0.07,53.707-32.115,54.75-53.25  C444.108,429.006,385.596,433.371,357.514,427.39z"/>
<path fill="none" stroke="#000000" stroke-width="2" stroke-linecap="square" stroke-miterlimit="10" d="M383.764,503.14  c-1.709,0-3.476,3.53-6.75,0C380.288,499.61,382.055,503.14,383.764,503.14z"/>
<path fill="none" stroke="#000000" stroke-width="2" stroke-linecap="square" stroke-miterlimit="10" d="M399.514,493.39  c-1.058-0.104-2.693,3.468-6,0.75c0-0.75,0-1.5,0-2.25C397.922,488.704,398.249,493.266,399.514,493.39z"/>
<path fill="none" stroke="#000000" stroke-width="2" stroke-linecap="square" stroke-miterlimit="10" d="M398.764,505.39  c-1.834-0.207-2.76,4.401-5.25,0C396.105,499.259,396.485,505.132,398.764,505.39z"/>
<path fill-rule="evenodd" clip-rule="evenodd" fill="#165829" stroke="#000000" stroke-width="2" stroke-linecap="square" stroke-miterlimit="10" d="  M386.764,427.39c-9.397-4.849-19.9-4.847-29.25,0c6.092,1.894,11.152,7.127,17.25,9c-5.883,1.588-11.288,5.558-17.25,6.75  c16.75-1.76,30.436,1.892,24.75,21c9.387-14.989,23.925-11.999,37.5-3.75c-4.284-4.85-5.707-12.179-9.75-17.25  c8.456,1.813,17.827-0.445,26.25,1.5C429.408,424.876,403.654,428.519,386.764,427.39z"/>
<path fill-rule="evenodd" clip-rule="evenodd" fill="#165829" stroke="#000000" stroke-width="2" stroke-linecap="square" stroke-miterlimit="10" d="  M402.514,437.89C381.738,451.933,382.146,423.329,402.514,437.89L402.514,437.89z"/>
<path fill-rule="evenodd" clip-rule="evenodd" fill="#FF7F00" stroke="#000000" stroke-width="2" stroke-linecap="square" stroke-miterlimit="10" d="  M512.014,311.892c-12.867,62.345-234.901,61.21-234.75,0C277.415,250.696,498.485,250.368,512.014,311.892z"/>
<path fill-rule="evenodd" clip-rule="evenodd" fill="#FF7F00" stroke="#000000" stroke-width="2" stroke-linecap="square" stroke-miterlimit="10" d="  M512.014,305.142c1.276,9.335-2.341,18.232-9.75,24.75C541.514,340.194,558.746,308.229,512.014,305.142z"/>
</svg>