<svg xmlns="http://www.w3.org/2000/svg" xmlns:xlink="http://www.w3.org/1999/xlink" version="1.1" id="Layer_1" x="0px" y="0px" enable-background="new 0 0 822.05 841.89" xml:space="preserve" viewBox="255.11 274.94 309.2 297.25">
<path fill-rule="evenodd" clip-rule="evenodd" fill="#0A50A1" stroke="#000000" stroke-width="2" stroke-linecap="square" stroke-miterlimit="10" d="  M473.5,363.392c5.496,117.107-181.513,117.711-181.5,0C292.012,246.718,477.127,246.864,473.5,363.392z"/>
<path fill-rule="evenodd" clip-rule="evenodd" fill="#00A0C6" stroke="#000000" stroke-width="2" stroke-linecap="square" stroke-miterlimit="10" d="  M489.25,367.892c3.628,116.545-181.488,116.623-181.5,0C307.737,250.165,494.749,250.713,489.25,367.892z"/>
<path fill-rule="evenodd" clip-rule="evenodd" fill="#0A50A1" stroke="#000000" stroke-width="2" stroke-linecap="square" stroke-miterlimit="10" d="  M505,373.892c5.495,117.1-181.515,117.771-181.5,0C323.515,257.196,508.624,257.46,505,373.892z"/>
<path fill-rule="evenodd" clip-rule="evenodd" fill="#0A50A1" stroke="#000000" stroke-width="2" stroke-linecap="square" stroke-miterlimit="10" d="  M518.5,380.642c-1.288,117.315-181.516,117.534-181.5,0C337.016,263.477,515.561,263.958,518.5,380.642z"/>
<path fill="none" stroke="#000000" stroke-width="2" stroke-linecap="square" stroke-miterlimit="10" d="M514.75,408.392  c63.889,12.203,62.746,65.271,8.25,90.002c-39.19,17.785-86.715,18.951-129,18c-25.012-0.562-62.933-8.657-81,13.5"/>
<path fill="none" stroke="#000000" stroke-width="2" stroke-linecap="square" stroke-miterlimit="10" d="M309.25,529.894  c-20.983-8.557-71.092,4.938-46.5,32.25C284.254,586.025,332.567,558.183,309.25,529.894z"/>
</svg>